<svg width="17" height="16" viewBox="0 0 17 16" fill="none" xmlns="http://www.w3.org/2000/svg">
  <g clip-path="url(#clip0_335_418)">
  <path d="M13.849 6H7.84896C7.11258 6 6.51562 6.59695 6.51562 7.33333V13.3333C6.51562 14.0697 7.11258 14.6667 7.84896 14.6667H13.849C14.5853 14.6667 15.1823 14.0697 15.1823 13.3333V7.33333C15.1823 6.59695 14.5853 6 13.849 6Z" stroke="white" stroke-width="2" stroke-linecap="round" stroke-linejoin="round"/>
  <path d="M3.85156 9.99992H3.1849C2.83127 9.99992 2.49214 9.85944 2.24209 9.60939C1.99204 9.35935 1.85156 9.02021 1.85156 8.66659V2.66659C1.85156 2.31296 1.99204 1.97382 2.24209 1.72378C2.49214 1.47373 2.83127 1.33325 3.1849 1.33325H9.1849C9.53852 1.33325 9.87766 1.47373 10.1277 1.72378C10.3778 1.97382 10.5182 2.31296 10.5182 2.66659V3.33325" stroke="white" stroke-width="2" stroke-linecap="round" stroke-linejoin="round"/>
  </g>
  <defs>
  <clipPath id="clip0_335_418">
  <rect width="16" height="16" fill="white" transform="translate(0.515625)"/>
  </clipPath>
  </defs>
  </svg>
