<svg width="16" height="17" viewBox="0 0 16 17" fill="none" xmlns="http://www.w3.org/2000/svg">
  <g clip-path="url(#clip0_335_405)">
  <path d="M13.3333 6.5H7.33333C6.59695 6.5 6 7.09695 6 7.83333V13.8333C6 14.5697 6.59695 15.1667 7.33333 15.1667H13.3333C14.0697 15.1667 14.6667 14.5697 14.6667 13.8333V7.83333C14.6667 7.09695 14.0697 6.5 13.3333 6.5Z" stroke="#292929" stroke-width="2" stroke-linecap="round" stroke-linejoin="round"/>
  <path d="M3.33203 10.4999H2.66536C2.31174 10.4999 1.9726 10.3594 1.72256 10.1094C1.47251 9.85935 1.33203 9.52021 1.33203 9.16659V3.16659C1.33203 2.81296 1.47251 2.47382 1.72256 2.22378C1.9726 1.97373 2.31174 1.83325 2.66536 1.83325H8.66536C9.01899 1.83325 9.35813 1.97373 9.60817 2.22378C9.85822 2.47382 9.9987 2.81296 9.9987 3.16659V3.83325" stroke="#292929" stroke-width="2" stroke-linecap="round" stroke-linejoin="round"/>
  </g>
  <defs>
  <clipPath id="clip0_335_405">
  <rect width="16" height="16" fill="white" transform="translate(0 0.5)"/>
  </clipPath>
  </defs>
  </svg>
