<svg width="18" height="17" viewBox="0 0 18 17" fill="none" xmlns="http://www.w3.org/2000/svg">
  <path d="M11.349 11.3334C12.9138 11.3334 14.1823 10.0649 14.1823 8.50008C14.1823 6.93527 12.9138 5.66675 11.349 5.66675C9.78415 5.66675 8.51562 6.93527 8.51562 8.50008C8.51562 10.0649 9.78415 11.3334 11.349 11.3334Z" fill="#19BCFE"/>
  <path fill-rule="evenodd" clip-rule="evenodd" d="M5.68099 16.9999C7.2458 16.9999 8.51432 15.7314 8.51432 14.1666C8.51432 13.7394 8.51432 12.795 8.51432 11.3333C7.24148 11.3333 6.29703 11.3333 5.68099 11.3333C4.11618 11.3333 2.84766 12.6018 2.84766 14.1666C2.84766 15.7314 4.11618 16.9999 5.68099 16.9999Z" fill="#09CF83"/>
  <path fill-rule="evenodd" clip-rule="evenodd" d="M5.68099 11.3334H8.51432V5.66675C7.14704 5.66675 6.20259 5.66675 5.68099 5.66675C4.11618 5.66675 2.84766 6.93527 2.84766 8.50008C2.84766 10.0649 4.11618 11.3334 5.68099 11.3334Z" fill="#A259FF"/>
  <path fill-rule="evenodd" clip-rule="evenodd" d="M5.68099 5.66667H8.51432V0C7.14704 0 6.20259 0 5.68099 0C4.11618 0 2.84766 1.26853 2.84766 2.83333C2.84766 4.39814 4.11618 5.66667 5.68099 5.66667Z" fill="#F24E1E"/>
  <path fill-rule="evenodd" clip-rule="evenodd" d="M11.349 5.66667H8.51562V0H11.349C12.9138 0 14.1823 1.26853 14.1823 2.83333C14.1823 4.39814 12.9138 5.66667 11.349 5.66667Z" fill="#FF7262"/>
  </svg>
