<svg width="21" height="20" viewBox="0 0 21 20" fill="none" xmlns="http://www.w3.org/2000/svg">
  <g clip-path="url(#clip0_335_476)">
  <path d="M10.0143 0.833233C7.60888 0.808789 5.29214 1.74041 3.57327 3.42334C1.8544 5.10627 0.87404 7.40281 0.847656 9.80823C0.856925 11.7092 1.46844 13.5583 2.59438 15.09C3.72031 16.6217 5.30272 17.7571 7.11432 18.3332C7.57266 18.4166 7.73932 18.1416 7.73932 17.8999C7.73932 17.6582 7.73932 17.1249 7.73932 16.3749C5.18932 16.9166 4.64766 15.1749 4.64766 15.1749C4.4779 14.6281 4.11702 14.1608 3.63099 13.8582C2.79766 13.3082 3.69766 13.3166 3.69766 13.3166C3.9857 13.3551 4.26129 13.4583 4.50375 13.6185C4.74621 13.7787 4.94926 13.9917 5.09766 14.2416C5.35627 14.69 5.7806 15.019 6.27933 15.1577C6.77806 15.2964 7.31132 15.2338 7.76432 14.9832C7.81091 14.5269 8.01757 14.1018 8.34766 13.7832C6.31432 13.5582 4.18099 12.7916 4.18099 9.3499C4.16281 8.45213 4.49453 7.58249 5.10599 6.9249C4.82751 6.15412 4.86039 5.30516 5.19766 4.55823C5.19766 4.55823 5.97266 4.31657 7.69766 5.4749C9.19924 5.07477 10.7794 5.07477 12.281 5.4749C14.031 4.31657 14.781 4.55823 14.781 4.55823C15.1183 5.30516 15.1511 6.15412 14.8727 6.9249C15.4983 7.57044 15.848 8.43424 15.8477 9.33323C15.8477 12.7832 13.6977 13.5416 11.681 13.7666C11.9018 13.981 12.0724 14.2416 12.1805 14.5298C12.2885 14.818 12.3314 15.1265 12.306 15.4332V17.8916C12.306 17.8916 12.4727 18.4166 12.931 18.3249C14.7375 17.7452 16.3145 16.6095 17.437 15.08C18.5594 13.5505 19.1698 11.7054 19.181 9.80823C19.1546 7.40281 18.1743 5.10627 16.4554 3.42334C14.7365 1.74041 12.4198 0.808789 10.0143 0.833233Z" fill="#231F20"/>
  </g>
  <defs>
  <clipPath id="clip0_335_476">
  <rect width="20" height="20" fill="white" transform="translate(0.015625)"/>
  </clipPath>
  </defs>
  </svg>
