<svg width="531" height="261" viewBox="0 0 531 261" fill="none" xmlns="http://www.w3.org/2000/svg">
  <g filter="url(#filter0_d_190_8497)">
    <rect x="24" y="74.7271" width="234.052" height="157.273" rx="11.1453" fill="white"/>
  </g>
  <g filter="url(#filter1_d_190_8497)">
    <rect x="273" y="19.0002" width="234" height="156" rx="11.1453" fill="white"/>
  </g>
  <g filter="url(#filter2_d_190_8497)">
    <rect x="24" y="19.0002" width="234.052" height="44.5814" rx="11.1453" fill="white"/>
  </g>
  <g filter="url(#filter3_d_190_8497)">
    <rect x="272.914" y="187" width="234.052" height="44.5814" rx="11.1453" fill="white"/>
  </g>
  <rect x="41" y="175" width="199" height="46" rx="11.1453" fill="#EDEBEB"/>
  <rect x="41" y="88.0002" width="75" height="77" rx="11.1453" fill="#EDEBEB"/>
  <rect x="291" y="75.0002" width="202" height="81" rx="11.1453" fill="#EDEBEB"/>
  <rect x="129" y="92.0002" width="66" height="16" rx="8" fill="#EDEBEB"/>
  <rect x="76.0117" y="33.8606" width="76.7791" height="16.0988" rx="8.04942" fill="#EDEBEB"/>
  <rect x="291.488" y="201.861" width="28.4826" height="16.0988" rx="8.04942" fill="#EDEBEB"/>
  <rect x="199" y="92.0002" width="23" height="16" rx="8" fill="#EDEBEB"/>
  <rect x="219.662" y="33.8606" width="28.4826" height="16.0988" rx="8.04942" fill="#EDEBEB"/>
  <rect x="468.574" y="201.861" width="28.4826" height="16.0988" rx="8.04942" fill="#EDEBEB"/>
  <rect x="129" y="117" width="25" height="8" rx="4" fill="#EDEBEB"/>
  <rect x="458.668" y="43.7676" width="34.6744" height="8.6686" rx="4.3343" fill="#EDEBEB"/>
  <rect x="417.803" y="43.7676" width="34.6744" height="8.6686" rx="4.3343" fill="#EDEBEB"/>
  <rect x="376.936" y="43.7676" width="34.6744" height="8.6686" rx="4.3343" fill="#EDEBEB"/>
  <rect width="25" height="9" rx="4.5" transform="matrix(-1 0 0 1 240 129)" fill="#EDEBEB"/>
  <rect x="157" y="117" width="35" height="8" rx="4" fill="#EDEBEB"/>
  <rect width="33" height="9" rx="4.5" transform="matrix(-1 0 0 1 212 129)" fill="#EDEBEB"/>
  <rect x="195" y="117" width="45" height="8" rx="4" fill="#EDEBEB"/>
  <rect width="47" height="9" rx="4.5" transform="matrix(-1 0 0 1 176 129)" fill="#EDEBEB"/>
  <rect x="202.588" y="186" width="23.5291" height="23.5291" rx="7.10826" fill="#38BD95"/>
  <path d="M218.635 200.894V202.795H211.213V200.894H218.635ZM218.585 193.81L212.438 202.795H210.65V201.492L216.867 192.543H218.585V193.81ZM217.79 192.543V194.451H210.614V192.543H217.79Z" fill="white"/>
  <path d="M218.635 200.894H219.635V199.894H218.635V200.894ZM218.635 202.795V203.795H219.635V202.795H218.635ZM211.213 202.795H210.213V203.795H211.213V202.795ZM211.213 200.894V199.894H210.213V200.894H211.213ZM218.585 193.81L219.411 194.375L219.585 194.12V193.81H218.585ZM212.438 202.795V203.795H212.966L213.263 203.36L212.438 202.795ZM210.65 202.795H209.65V203.795H210.65V202.795ZM210.65 201.492L209.828 200.922L209.65 201.179V201.492H210.65ZM216.867 192.543V191.543H216.344L216.046 191.972L216.867 192.543ZM218.585 192.543H219.585V191.543H218.585V192.543ZM217.79 192.543H218.79V191.543H217.79V192.543ZM217.79 194.451V195.451H218.79V194.451H217.79ZM210.614 194.451H209.614V195.451H210.614V194.451ZM210.614 192.543V191.543H209.614V192.543H210.614ZM217.635 200.894V202.795H219.635V200.894H217.635ZM218.635 201.795H211.213V203.795H218.635V201.795ZM212.213 202.795V200.894H210.213V202.795H212.213ZM211.213 201.894H218.635V199.894H211.213V201.894ZM217.76 193.246L211.613 202.231L213.263 203.36L219.411 194.375L217.76 193.246ZM212.438 201.795H210.65V203.795H212.438V201.795ZM211.65 202.795V201.492H209.65V202.795H211.65ZM211.471 202.063L217.688 193.113L216.046 191.972L209.828 200.922L211.471 202.063ZM216.867 193.543H218.585V191.543H216.867V193.543ZM217.585 192.543V193.81H219.585V192.543H217.585ZM216.79 192.543V194.451H218.79V192.543H216.79ZM217.79 193.451H210.614V195.451H217.79V193.451ZM211.614 194.451V192.543H209.614V194.451H211.614ZM210.614 193.543H217.79V191.543H210.614V193.543Z" fill="white"/>
  <rect x="41.3379" y="30.1455" width="23.5291" height="23.5291" rx="7.10826" fill="#38BD95"/>
  <path d="M57.3846 45.0392V46.9404H49.9628V45.0392H57.3846ZM57.3353 37.9554L51.1881 46.9404H49.3995V45.6377L55.6172 36.688H57.3353V37.9554ZM56.5396 36.688V38.5962H49.3643V36.688H56.5396Z" fill="white"/>
  <path d="M57.3846 45.0392H58.3846V44.0392H57.3846V45.0392ZM57.3846 46.9404V47.9404H58.3846V46.9404H57.3846ZM49.9628 46.9404H48.9628V47.9404H49.9628V46.9404ZM49.9628 45.0392V44.0392H48.9628V45.0392H49.9628ZM57.3353 37.9554L58.1606 38.5201L58.3353 38.2648V37.9554H57.3353ZM51.1881 46.9404V47.9404H51.7155L52.0134 47.5051L51.1881 46.9404ZM49.3995 46.9404H48.3995V47.9404H49.3995V46.9404ZM49.3995 45.6377L48.5783 45.0672L48.3995 45.3245V45.6377H49.3995ZM55.6172 36.688V35.688H55.0943L54.7959 36.1174L55.6172 36.688ZM57.3353 36.688H58.3353V35.688H57.3353V36.688ZM56.5396 36.688H57.5396V35.688H56.5396V36.688ZM56.5396 38.5962V39.5962H57.5396V38.5962H56.5396ZM49.3643 38.5962H48.3643V39.5962H49.3643V38.5962ZM49.3643 36.688V35.688H48.3643V36.688H49.3643ZM56.3846 45.0392V46.9404H58.3846V45.0392H56.3846ZM57.3846 45.9404H49.9628V47.9404H57.3846V45.9404ZM50.9628 46.9404V45.0392H48.9628V46.9404H50.9628ZM49.9628 46.0392H57.3846V44.0392H49.9628V46.0392ZM56.51 37.3908L50.3627 46.3758L52.0134 47.5051L58.1606 38.5201L56.51 37.3908ZM51.1881 45.9404H49.3995V47.9404H51.1881V45.9404ZM50.3995 46.9404V45.6377H48.3995V46.9404H50.3995ZM50.2208 46.2083L56.4384 37.2585L54.7959 36.1174L48.5783 45.0672L50.2208 46.2083ZM55.6172 37.688H57.3353V35.688H55.6172V37.688ZM56.3353 36.688V37.9554H58.3353V36.688H56.3353ZM55.5396 36.688V38.5962H57.5396V36.688H55.5396ZM56.5396 37.5962H49.3643V39.5962H56.5396V37.5962ZM50.3643 38.5962V36.688H48.3643V38.5962H50.3643ZM49.3643 37.688H56.5396V35.688H49.3643V37.688Z" fill="white"/>
  <rect x="380.652" y="198.146" width="23.5291" height="23.5291" rx="7.10826" fill="#38BD95"/>
  <path d="M396.699 213.039V214.941H389.277V213.039H396.699ZM396.65 205.956L390.503 214.941H388.714V213.638L394.932 204.688H396.65V205.956ZM395.854 204.688V206.596H388.679V204.688H395.854Z" fill="white"/>
  <path d="M396.699 213.039H397.699V212.039H396.699V213.039ZM396.699 214.941V215.941H397.699V214.941H396.699ZM389.277 214.941H388.277V215.941H389.277V214.941ZM389.277 213.039V212.039H388.277V213.039H389.277ZM396.65 205.956L397.475 206.52L397.65 206.265V205.956H396.65ZM390.503 214.941V215.941H391.03L391.328 215.505L390.503 214.941ZM388.714 214.941H387.714V215.941H388.714V214.941ZM388.714 213.638L387.893 213.067L387.714 213.325V213.638H388.714ZM394.932 204.688V203.688H394.409L394.11 204.118L394.932 204.688ZM396.65 204.688H397.65V203.688H396.65V204.688ZM395.854 204.688H396.854V203.688H395.854V204.688ZM395.854 206.596V207.596H396.854V206.596H395.854ZM388.679 206.596H387.679V207.596H388.679V206.596ZM388.679 204.688V203.688H387.679V204.688H388.679ZM395.699 213.039V214.941H397.699V213.039H395.699ZM396.699 213.941H389.277V215.941H396.699V213.941ZM390.277 214.941V213.039H388.277V214.941H390.277ZM389.277 214.039H396.699V212.039H389.277V214.039ZM395.824 205.391L389.677 214.376L391.328 215.505L397.475 206.52L395.824 205.391ZM390.503 213.941H388.714V215.941H390.503V213.941ZM389.714 214.941V213.638H387.714V214.941H389.714ZM389.535 214.208L395.753 205.259L394.11 204.118L387.893 213.067L389.535 214.208ZM394.932 205.688H396.65V203.688H394.932V205.688ZM395.65 204.688V205.956H397.65V204.688H395.65ZM394.854 204.688V206.596H396.854V204.688H394.854ZM395.854 205.596H388.679V207.596H395.854V205.596ZM389.679 206.596V204.688H387.679V206.596H389.679ZM388.679 205.688H395.854V203.688H388.679V205.688Z" fill="white"/>
  <rect x="291.488" y="36.3374" width="23.5291" height="23.5291" rx="7.10826" fill="#38BD95"/>
  <path d="M307.535 51.2311V53.1323H300.113V51.2311H307.535ZM307.486 44.1473L301.338 53.1323H299.55V51.8296L305.768 42.8799H307.486V44.1473ZM306.69 42.8799V44.7881H299.515V42.8799H306.69Z" fill="white"/>
  <path d="M307.535 51.2311H308.535V50.2311H307.535V51.2311ZM307.535 53.1323V54.1323H308.535V53.1323H307.535ZM300.113 53.1323H299.113V54.1323H300.113V53.1323ZM300.113 51.2311V50.2311H299.113V51.2311H300.113ZM307.486 44.1473L308.311 44.712L308.486 44.4567V44.1473H307.486ZM301.338 53.1323V54.1323H301.866L302.164 53.697L301.338 53.1323ZM299.55 53.1323H298.55V54.1323H299.55V53.1323ZM299.55 51.8296L298.729 51.2591L298.55 51.5164V51.8296H299.55ZM305.768 42.8799V41.8799H305.245L304.946 42.3093L305.768 42.8799ZM307.486 42.8799H308.486V41.8799H307.486V42.8799ZM306.69 42.8799H307.69V41.8799H306.69V42.8799ZM306.69 44.7881V45.7881H307.69V44.7881H306.69ZM299.515 44.7881H298.515V45.7881H299.515V44.7881ZM299.515 42.8799V41.8799H298.515V42.8799H299.515ZM306.535 51.2311V53.1323H308.535V51.2311H306.535ZM307.535 52.1323H300.113V54.1323H307.535V52.1323ZM301.113 53.1323V51.2311H299.113V53.1323H301.113ZM300.113 52.2311H307.535V50.2311H300.113V52.2311ZM306.66 43.5827L300.513 52.5677L302.164 53.697L308.311 44.712L306.66 43.5827ZM301.338 52.1323H299.55V54.1323H301.338V52.1323ZM300.55 53.1323V51.8296H298.55V53.1323H300.55ZM300.371 52.4002L306.589 43.4504L304.946 42.3093L298.729 51.2591L300.371 52.4002ZM305.768 43.8799H307.486V41.8799H305.768V43.8799ZM306.486 42.8799V44.1473H308.486V42.8799H306.486ZM305.69 42.8799V44.7881H307.69V42.8799H305.69ZM306.69 43.7881H299.515V45.7881H306.69V43.7881ZM300.515 44.7881V42.8799H298.515V44.7881H300.515ZM299.515 43.8799H306.69V41.8799H299.515V43.8799Z" fill="white"/>
  <rect x="154.059" y="186" width="23.5291" height="23.5291" rx="7.10826" fill="#E1DDDD"/>
  <rect x="105.529" y="186" width="23.5291" height="23.5291" rx="7.10826" fill="#E1DDDD"/>
  <rect x="57" y="186" width="23.5291" height="23.5291" rx="7.10826" fill="#E1DDDD"/>
  <defs>
    <filter id="filter0_d_190_8497" x="0.47093" y="56.1515" width="281.111" height="204.331" filterUnits="userSpaceOnUse" color-interpolation-filters="sRGB">
      <feFlood flood-opacity="0" result="BackgroundImageFix"/>
      <feColorMatrix in="SourceAlpha" type="matrix" values="0 0 0 0 0 0 0 0 0 0 0 0 0 0 0 0 0 0 127 0" result="hardAlpha"/>
      <feOffset dy="4.95349"/>
      <feGaussianBlur stdDeviation="11.7645"/>
      <feComposite in2="hardAlpha" operator="out"/>
      <feColorMatrix type="matrix" values="0 0 0 0 0 0 0 0 0 0 0 0 0 0 0 0 0 0 0.08 0"/>
      <feBlend mode="normal" in2="BackgroundImageFix" result="effect1_dropShadow_190_8497"/>
      <feBlend mode="normal" in="SourceGraphic" in2="effect1_dropShadow_190_8497" result="shape"/>
    </filter>
    <filter id="filter1_d_190_8497" x="249.471" y="0.424663" width="281.058" height="203.058" filterUnits="userSpaceOnUse" color-interpolation-filters="sRGB">
      <feFlood flood-opacity="0" result="BackgroundImageFix"/>
      <feColorMatrix in="SourceAlpha" type="matrix" values="0 0 0 0 0 0 0 0 0 0 0 0 0 0 0 0 0 0 127 0" result="hardAlpha"/>
      <feOffset dy="4.95349"/>
      <feGaussianBlur stdDeviation="11.7645"/>
      <feComposite in2="hardAlpha" operator="out"/>
      <feColorMatrix type="matrix" values="0 0 0 0 0 0 0 0 0 0 0 0 0 0 0 0 0 0 0.08 0"/>
      <feBlend mode="normal" in2="BackgroundImageFix" result="effect1_dropShadow_190_8497"/>
      <feBlend mode="normal" in="SourceGraphic" in2="effect1_dropShadow_190_8497" result="shape"/>
    </filter>
    <filter id="filter2_d_190_8497" x="0.47093" y="0.424663" width="281.111" height="91.6394" filterUnits="userSpaceOnUse" color-interpolation-filters="sRGB">
      <feFlood flood-opacity="0" result="BackgroundImageFix"/>
      <feColorMatrix in="SourceAlpha" type="matrix" values="0 0 0 0 0 0 0 0 0 0 0 0 0 0 0 0 0 0 127 0" result="hardAlpha"/>
      <feOffset dy="4.95349"/>
      <feGaussianBlur stdDeviation="11.7645"/>
      <feComposite in2="hardAlpha" operator="out"/>
      <feColorMatrix type="matrix" values="0 0 0 0 0 0 0 0 0 0 0 0 0 0 0 0 0 0 0.08 0"/>
      <feBlend mode="normal" in2="BackgroundImageFix" result="effect1_dropShadow_190_8497"/>
      <feBlend mode="normal" in="SourceGraphic" in2="effect1_dropShadow_190_8497" result="shape"/>
    </filter>
    <filter id="filter3_d_190_8497" x="249.385" y="168.425" width="281.111" height="91.6396" filterUnits="userSpaceOnUse" color-interpolation-filters="sRGB">
      <feFlood flood-opacity="0" result="BackgroundImageFix"/>
      <feColorMatrix in="SourceAlpha" type="matrix" values="0 0 0 0 0 0 0 0 0 0 0 0 0 0 0 0 0 0 127 0" result="hardAlpha"/>
      <feOffset dy="4.95349"/>
      <feGaussianBlur stdDeviation="11.7645"/>
      <feComposite in2="hardAlpha" operator="out"/>
      <feColorMatrix type="matrix" values="0 0 0 0 0 0 0 0 0 0 0 0 0 0 0 0 0 0 0.08 0"/>
      <feBlend mode="normal" in2="BackgroundImageFix" result="effect1_dropShadow_190_8497"/>
      <feBlend mode="normal" in="SourceGraphic" in2="effect1_dropShadow_190_8497" result="shape"/>
    </filter>
  </defs>
</svg>