<svg width="21" height="20" viewBox="0 0 21 20" fill="none" xmlns="http://www.w3.org/2000/svg">
<path d="M10.0167 18.5713C5.29039 18.5713 1.44531 14.7263 1.44531 9.9999C1.44531 5.27354 5.29039 1.42847 10.0167 1.42847C14.7431 1.42847 18.5882 5.27354 18.5882 9.9999C18.5882 14.7263 14.7431 18.5713 10.0167 18.5713ZM10.0167 3.14275C6.23558 3.14275 3.1596 6.21894 3.1596 9.9999C3.1596 13.7809 6.23562 16.857 10.0167 16.857C13.7979 16.857 16.8739 13.7809 16.8739 9.9999C16.8739 6.21894 13.7979 3.14275 10.0167 3.14275ZM10.6064 8.28561C11.1513 7.53111 12.1494 7.23008 13.046 7.36822C13.8016 7.44451 14.5156 7.89307 14.8663 8.57392C14.4861 8.77077 14.1093 8.97302 13.7298 9.17021C13.611 8.93649 13.4415 8.71601 13.2034 8.59551C12.7578 8.35227 12.1257 8.50322 11.8652 8.94739C11.6521 9.29258 11.6201 9.71297 11.628 10.1092C11.6435 10.5152 11.7443 10.9492 12.0435 11.2428C12.3485 11.5352 12.8233 11.5779 13.2108 11.4473C13.5125 11.3414 13.7127 11.0641 13.8299 10.778C14.1882 10.9503 14.5379 11.1398 14.8935 11.3167C14.5026 12.0269 13.767 12.5479 12.9564 12.6363C12.1911 12.7216 11.3534 12.527 10.7998 11.9666C10.3665 11.5389 10.1492 10.9356 10.1 10.3377C10.0341 9.62558 10.1684 8.86618 10.6064 8.28561ZM5.59476 8.36818C6.10151 7.59891 7.07466 7.2462 7.96946 7.35549C8.77101 7.40021 9.54411 7.85472 9.91692 8.57542C9.53441 8.76962 9.15773 8.97417 8.77705 9.17207C8.67108 8.96227 8.5286 8.76292 8.32505 8.63818C7.92964 8.37787 7.34703 8.44732 7.02594 8.79554C6.73726 9.12201 6.67771 9.57904 6.67405 9.99825C6.67591 10.4248 6.75852 10.8845 7.05723 11.2081C7.3519 11.5247 7.83852 11.5803 8.2353 11.4559C8.55036 11.355 8.75795 11.0698 8.88049 10.7767C9.23641 10.9527 9.5873 11.1398 9.94289 11.3176C9.55047 12.0269 8.81786 12.5437 8.00845 12.6378C7.30983 12.7104 6.55792 12.5641 6.0059 12.1103C5.53414 11.7289 5.25881 11.1487 5.17439 10.5557C5.06616 9.81042 5.16067 9.00067 5.59476 8.36818Z" fill="black"/>
</svg>
