<svg width="36" height="35" viewBox="0 0 36 35" fill="none" xmlns="http://www.w3.org/2000/svg">
  <rect x="0.5" width="35" height="35" rx="12.4194" fill="#2F2F2F"/>
  <path d="M17.1192 28.3668C17.0047 28.3666 16.891 28.3466 16.7833 28.3075C16.5756 28.2315 16.3995 28.0879 16.283 27.8998C16.1666 27.7117 16.1167 27.49 16.1412 27.2702L16.9019 20.266H11.0831C10.9037 20.2662 10.7275 20.2176 10.5736 20.1253C10.4197 20.033 10.2938 19.9005 10.2095 19.7421C10.1252 19.5837 10.0857 19.4052 10.0951 19.226C10.1046 19.0468 10.1627 18.8735 10.2632 18.7248L18.0577 7.06759C18.181 6.88516 18.3617 6.74914 18.5711 6.68113C18.7805 6.61311 19.0066 6.61701 19.2136 6.69218C19.4125 6.76604 19.5824 6.902 19.6981 7.07992C19.8137 7.25785 19.869 7.46829 19.8557 7.68009L19.095 14.7337H24.9138C25.0933 14.7334 25.2694 14.7821 25.4233 14.8744C25.5773 14.9667 25.7031 15.0992 25.7874 15.2576C25.8717 15.416 25.9113 15.5944 25.9018 15.7737C25.8924 15.9529 25.8343 16.1262 25.7337 16.2748L17.9392 27.9321C17.8486 28.0662 17.7264 28.1759 17.5834 28.2517C17.4405 28.3275 17.2811 28.367 17.1192 28.3668Z" fill="white"/>
  </svg>
