<svg width="16" height="16" viewBox="0 0 16 16" fill="none" xmlns="http://www.w3.org/2000/svg">
<g clip-path="url(#clip0_365_307)">
<path d="M6.74919 1C6.9481 1 7.13886 1.07902 7.27952 1.21967C7.42017 1.36032 7.49919 1.55109 7.49919 1.75V8C7.49919 8.13261 7.55187 8.25979 7.64563 8.35355C7.7394 8.44732 7.86658 8.5 7.99919 8.5C8.1318 8.5 8.25897 8.44732 8.35274 8.35355C8.44651 8.25979 8.49919 8.13261 8.49919 8V5.467L8.58519 5.463C8.90219 5.451 9.22219 5.455 9.40119 5.49C9.53519 5.517 9.69519 5.586 9.84919 5.672C9.92619 5.714 9.99919 5.819 9.99919 5.986V8C9.99919 8.13261 10.0519 8.25979 10.1456 8.35355C10.2394 8.44732 10.3666 8.5 10.4992 8.5C10.6318 8.5 10.759 8.44732 10.8527 8.35355C10.9465 8.25979 10.9992 8.13261 10.9992 8V6.435L11.1052 6.425C11.4212 6.401 11.6892 6.415 11.8132 6.465C11.9312 6.511 12.1132 6.672 12.2992 6.895C12.3802 6.991 12.4492 7.085 12.4992 7.154V8.5C12.4992 8.63261 12.5519 8.75979 12.6456 8.85355C12.7394 8.94732 12.8666 9 12.9992 9C13.1318 9 13.259 8.94732 13.3527 8.85355C13.4465 8.75979 13.4992 8.63261 13.4992 8.5V7.5H13.8412C13.9809 7.5 14.1191 7.52929 14.2469 7.58599C14.3746 7.64269 14.4891 7.72553 14.5828 7.82917C14.6766 7.93282 14.7476 8.05497 14.7912 8.18773C14.8348 8.3205 14.8502 8.46094 14.8362 8.6L14.5652 11.315C14.5302 11.6639 14.4222 12.0016 14.2482 12.306L12.8532 14.748C12.8095 14.8245 12.7463 14.8881 12.6701 14.9324C12.5939 14.9766 12.5073 15 12.4192 15H6.11719C6.02441 15 5.93346 14.9742 5.85452 14.9254C5.77558 14.8767 5.71175 14.8069 5.67019 14.724L4.43819 12.259L1.92619 8.074C1.86165 7.9658 1.83884 7.83775 1.86205 7.71392C1.88526 7.59008 1.95289 7.47899 2.05224 7.4015C2.15158 7.32402 2.2758 7.28548 2.40156 7.29312C2.52732 7.30076 2.64596 7.35406 2.73519 7.443L5.14519 9.853C5.21506 9.92305 5.30414 9.97079 5.40115 9.99019C5.49817 10.0096 5.59876 9.99977 5.69019 9.96198C5.78162 9.92418 5.85978 9.86011 5.91479 9.77788C5.96979 9.69564 5.99917 9.59894 5.99919 9.5V1.75C5.99919 1.55109 6.0782 1.36032 6.21886 1.21967C6.35951 1.07902 6.55027 1 6.74919 1ZM8.49919 4.466V1.75C8.49919 1.28587 8.31481 0.840752 7.98662 0.512563C7.65844 0.184374 7.21332 0 6.74919 0C6.28506 0 5.83994 0.184374 5.51175 0.512563C5.18356 0.840752 4.99919 1.28587 4.99919 1.75V8.293L3.44219 6.736C3.18022 6.47548 2.83218 6.31951 2.46339 6.29737C2.09459 6.27522 1.73039 6.38843 1.43914 6.61574C1.14788 6.84305 0.94959 7.16884 0.881476 7.53196C0.813362 7.89509 0.880108 8.27059 1.06919 8.588L3.56019 12.741L4.77519 15.171C4.89982 15.4202 5.09139 15.6297 5.32842 15.7761C5.56545 15.9226 5.83858 16.0001 6.11719 16H12.4192C12.6836 15.9999 12.9433 15.9299 13.1719 15.7972C13.4006 15.6644 13.59 15.4736 13.7212 15.244L15.1162 12.803C15.3601 12.3763 15.5113 11.903 15.5602 11.414L15.8312 8.699C15.859 8.42097 15.8282 8.14019 15.7409 7.87478C15.6535 7.60936 15.5115 7.36519 15.324 7.15801C15.1366 6.95083 14.9077 6.78524 14.6523 6.67191C14.3969 6.55857 14.1206 6.50001 13.8412 6.5H13.2602C13.1978 6.41535 13.1327 6.33264 13.0652 6.252C12.8742 6.023 12.5552 5.684 12.1852 5.536C11.8212 5.39 11.3392 5.404 11.0272 5.428L10.8952 5.44C10.7887 5.16747 10.5907 4.94049 10.3352 4.798C10.1051 4.66532 9.85631 4.56822 9.59719 4.51C9.28719 4.448 8.85819 4.452 8.54719 4.464L8.49919 4.466Z" fill="black"/>
</g>
<defs>
<clipPath id="clip0_365_307">
<rect width="16" height="16" fill="white"/>
</clipPath>
</defs>
</svg>
