<svg width="17" height="17" viewBox="0 0 17 17" fill="none" xmlns="http://www.w3.org/2000/svg"> <g clip-path="url(#clip0_365_314)"> <path fill-rule="evenodd" clip-rule="evenodd" d="M16.0592 3.88278C16.1985 3.93834 16.3178 4.03434 16.402 4.1584C16.4861 4.28246 16.5311 4.42888 16.5312 4.57878V13.2408C16.5311 13.3907 16.4861 13.5371 16.402 13.6612C16.3178 13.7852 16.1985 13.8812 16.0592 13.9368L8.80925 16.8368C8.63047 16.9083 8.43103 16.9083 8.25225 16.8368L1.00225 13.9368C0.863219 13.8811 0.744055 13.785 0.660111 13.6609C0.576166 13.5369 0.531285 13.3906 0.53125 13.2408L0.53125 4.57878C0.531285 4.429 0.576166 4.28266 0.660111 4.15861C0.744055 4.03457 0.863219 3.9385 1.00225 3.88278L7.97425 1.09378L7.98425 1.09078L8.25225 0.982781C8.43133 0.911013 8.63117 0.911013 8.81025 0.982781L9.07925 1.09078L9.08925 1.09378L16.0592 3.88278ZM10.9353 2.90978L4.78125 5.37078L2.37725 4.40978L1.53125 4.74878V5.14878L8.03125 7.74878V15.6708L8.53125 15.8708L9.03125 15.6708V7.74978L15.5312 5.14978V4.74978L14.6853 4.41078L8.53125 6.87078L6.12725 5.90978L12.2812 3.44878L10.9353 2.90978Z" fill="black"/> </g> <defs> <clipPath id="clip0_365_314"> <rect width="16" height="16" fill="white" transform="translate(0.53125 0.909668)"/> </clipPath> </defs> </svg>
