<svg width="13" height="13" viewBox="0 0 13 13" fill="none" xmlns="http://www.w3.org/2000/svg">
<path fill-rule="evenodd" clip-rule="evenodd" d="M8.5408 6.29059C8.61103 6.3609 8.65047 6.45621 8.65047 6.55559C8.65047 6.65496 8.61103 6.75027 8.5408 6.82059L4.7908 10.5706C4.71971 10.6368 4.62569 10.6729 4.52854 10.6712C4.43139 10.6695 4.3387 10.6301 4.26999 10.5614C4.20128 10.4927 4.16193 10.4 4.16021 10.3028C4.1585 10.2057 4.19456 10.1117 4.2608 10.0406L7.7458 6.55559L4.2608 3.07059C4.19456 2.9995 4.1585 2.90548 4.16021 2.80833C4.16193 2.71118 4.20128 2.61848 4.26999 2.54978C4.3387 2.48107 4.43139 2.44171 4.52854 2.44C4.62569 2.43829 4.71971 2.47435 4.7908 2.54059L8.5408 6.29059Z" fill="black"/>
</svg>
