<svg width="17" height="17" viewBox="0 0 17 17" fill="none" xmlns="http://www.w3.org/2000/svg">
  <path fill-rule="evenodd" clip-rule="evenodd" d="M4.91406 8.07387C4.91406 7.94127 4.96674 7.81409 5.06051 7.72032C5.15428 7.62655 5.28145 7.57387 5.41406 7.57387H11.2071L9.06006 5.42787C8.96618 5.33399 8.91343 5.20665 8.91343 5.07387C8.91343 4.9411 8.96618 4.81376 9.06006 4.71987C9.15395 4.62599 9.28129 4.57324 9.41406 4.57324C9.54684 4.57324 9.67418 4.62599 9.76806 4.71987L12.7681 7.71987C12.8146 7.76632 12.8516 7.8215 12.8768 7.88224C12.902 7.94299 12.915 8.00811 12.915 8.07387C12.915 8.13964 12.902 8.20476 12.8768 8.26551C12.8516 8.32625 12.8146 8.38143 12.7681 8.42787L9.76806 11.4279C9.67418 11.5218 9.54684 11.5745 9.41406 11.5745C9.28129 11.5745 9.15395 11.5218 9.06006 11.4279C8.96618 11.334 8.91343 11.2066 8.91343 11.0739C8.91343 10.9411 8.96618 10.8138 9.06006 10.7199L11.2071 8.57387H5.41406C5.28145 8.57387 5.15428 8.5212 5.06051 8.42743C4.96674 8.33366 4.91406 8.20648 4.91406 8.07387Z" fill="#FF8100"/>
  </svg>
