<svg width="67" height="67" viewBox="0 0 67 67" fill="none" xmlns="http://www.w3.org/2000/svg">
  <g clip-path="url(#clip0_335_498)">
  <path d="M6.13677 11.5352C6.13677 10.0228 7.38337 8.79541 8.85463 8.79541H58.2144C59.7158 8.79541 60.9323 10.0146 60.9323 11.5352V49.8921C60.9323 51.4044 59.6857 52.6318 58.2144 52.6318H8.85463C8.49607 52.6311 8.14118 52.5596 7.81032 52.4214C7.47947 52.2832 7.17917 52.081 6.92665 51.8264C6.67413 51.5719 6.47436 51.27 6.33881 50.938C6.20327 50.6061 6.1346 50.2506 6.13677 49.8921V11.5352ZM11.6163 14.275V47.1523H55.4527V14.275H11.6163ZM14.3561 55.3716H52.713V60.8512H14.3561V55.3716Z" fill="black"/>
  </g>
  <defs>
  <clipPath id="clip0_335_498">
  <rect width="65.7546" height="65.7546" fill="white" transform="translate(0.65625 0.576172)"/>
  </clipPath>
  </defs>
  </svg>
