<svg width="19" height="18" viewBox="0 0 19 18" fill="none" xmlns="http://www.w3.org/2000/svg">
  <g clip-path="url(#clip0_335_481)">
  <path d="M15.4456 5.64809C15.3295 5.62463 15.2424 5.6129 15.1843 5.6129C14.7546 5.6129 14.383 5.75953 14.0694 6.05279C13.3609 5.73607 12.6989 5.47801 12.0834 5.27859C11.0729 4.95015 10.0161 4.68035 8.91273 4.46921C8.80821 4.18768 8.65142 3.95308 8.44236 3.7654C8.73271 2.38123 9.12179 1.1261 9.60958 0C11.0729 0.105572 12.4173 0.533724 13.6426 1.28446C14.8678 2.03519 15.8579 3.02053 16.6129 4.24047C16.1831 4.70968 15.7941 5.17889 15.4456 5.64809ZM7.36226 3.3607C7.06029 3.3607 6.77574 3.44282 6.50862 3.60704C5.56788 2.90323 4.62134 2.30499 3.66898 1.81232C5.10913 0.709677 6.72348 0.105572 8.51205 0C8.0591 1.02053 7.69326 2.14076 7.41452 3.3607H7.36226ZM1.31713 4.45161C1.71201 3.78299 2.21142 3.14956 2.81535 2.55132C3.6051 2.96188 4.4239 3.46628 5.27172 4.06452C3.77351 4.02933 2.45531 4.15836 1.31713 4.45161ZM5.68983 5.15543C5.71306 5.51906 5.83791 5.83871 6.06438 6.11437C6.29086 6.39003 6.5725 6.57478 6.90931 6.66862C6.83962 7.48974 6.80478 8.26979 6.80478 9.0088C6.80478 9.52493 6.8222 10.1173 6.85704 10.7859C6.60153 10.868 6.37506 11.0088 6.17762 11.2082C5.55046 10.9619 4.94653 10.6804 4.36583 10.3636C4.49358 10.1056 4.55746 9.84164 4.55746 9.57185C4.55746 9.10264 4.39486 8.70381 4.06967 8.37537C3.74447 8.04692 3.3496 7.8827 2.88503 7.8827C2.37401 7.8827 1.9501 8.08211 1.61329 8.48094C1.1255 8.03519 0.689974 7.57185 0.306709 7.09091C0.411236 6.58651 0.568026 6.08798 0.777079 5.59531C2.194 5.19648 3.83158 5.04985 5.68983 5.15543ZM1.23003 9.71261C1.26487 10.1466 1.44198 10.5132 1.76137 10.8123C2.08076 11.1114 2.45531 11.261 2.88503 11.261C3.01279 11.261 3.15216 11.2375 3.30314 11.1906C4.04644 11.6246 4.842 12 5.68983 12.3167V12.3871C5.68983 12.8446 5.84372 13.2346 6.15149 13.5572C6.45926 13.8798 6.83962 14.0528 7.29257 14.0762C7.58292 15.5073 7.98941 16.8152 8.51205 18C7.35064 17.9296 6.25311 17.6452 5.21946 17.1466C4.18581 16.6481 3.29443 16 2.54532 15.2023C1.79621 14.4047 1.20099 13.4663 0.759658 12.3871C0.318324 11.3079 0.0976562 10.1818 0.0976562 9.0088C0.0976562 8.99707 0.103463 8.83871 0.115077 8.53372C0.440271 8.94428 0.811921 9.33724 1.23003 9.71261ZM8.82563 13.1789C9.66184 13.3314 10.5039 13.4311 11.3517 13.478C11.433 13.7126 11.5607 13.9296 11.735 14.129C11.4678 15.3607 11.3052 16.5572 11.2472 17.7185C10.6548 17.871 10.109 17.9648 9.60958 18C9.06372 16.7449 8.6398 15.3255 8.33784 13.7419C8.54689 13.6012 8.70949 13.4135 8.82563 13.1789ZM14.2262 14.0235C14.3772 13.8358 14.4817 13.6364 14.5397 13.4252C15.3876 13.3548 16.2064 13.2434 16.9961 13.0909C16.4386 14.1935 15.6721 15.1496 14.6965 15.9589C14.592 15.349 14.4352 14.7038 14.2262 14.0235ZM11.3865 12.3519C10.5735 12.305 9.77217 12.1994 8.98242 12.0352C8.85466 11.4487 8.52366 11.044 7.98941 10.8211C7.94296 10.129 7.91973 9.52493 7.91973 9.0088C7.91973 8.2346 7.95457 7.43109 8.02426 6.59824C8.04748 6.59824 8.07652 6.58651 8.11136 6.56305C8.1462 6.53959 8.16943 6.52786 8.18105 6.52786C8.634 6.97361 9.02887 7.38416 9.36568 7.75953C10.3761 8.88563 11.2355 10.1642 11.944 11.5953C11.6885 11.7947 11.5027 12.0469 11.3865 12.3519ZM12.937 14.6393C12.9602 14.6393 13.0241 14.6334 13.1286 14.6217C13.3261 15.3372 13.4713 16.0469 13.5642 16.7507C13.2274 16.9501 12.8209 17.1496 12.3447 17.349C12.426 16.434 12.5654 15.5249 12.7628 14.6217C12.8557 14.6334 12.9138 14.6393 12.937 14.6393ZM12.8499 10.434C12.8383 10.4575 12.8238 10.4927 12.8063 10.5396C12.7889 10.5865 12.7744 10.6217 12.7628 10.6452C12.0311 9.30792 11.1717 8.09384 10.1845 7.00293C9.82444 6.59238 9.39472 6.14663 8.89531 5.66569C8.90693 5.66569 8.91564 5.65689 8.92144 5.6393L8.93015 5.6129C9.90574 5.81232 10.8407 6.05865 11.735 6.35191C12.2808 6.52786 12.8789 6.76246 13.5293 7.05572C13.5061 7.17302 13.4945 7.261 13.4945 7.31965C13.4945 7.67155 13.599 7.99413 13.8081 8.28739C13.4248 9.02639 13.1054 9.74194 12.8499 10.434ZM13.6687 11.4545C13.8081 11.044 13.8777 10.8328 13.8777 10.8211C14.11 10.2346 14.4004 9.60704 14.7488 8.93842C14.8998 8.98534 15.045 9.0088 15.1843 9.0088C15.5792 9.0088 15.9334 8.8739 16.247 8.60411C16.8161 9.00293 17.3736 9.44868 17.9194 9.94135C17.8498 10.61 17.7104 11.2551 17.5013 11.8768C16.549 12.0762 15.5444 12.217 14.4875 12.2991C14.3365 11.9238 14.0636 11.6422 13.6687 11.4545ZM16.8568 7.30205C16.8568 6.91496 16.729 6.56305 16.4735 6.24633C16.7174 5.92962 16.9613 5.64223 17.2052 5.38416C17.6233 6.34604 17.8672 7.33724 17.9369 8.35777C17.5536 8.06452 17.1819 7.80059 16.8219 7.56598C16.8451 7.46041 16.8568 7.37243 16.8568 7.30205Z" fill="black"/>
  </g>
  <defs>
  <clipPath id="clip0_335_481">
  <rect width="18" height="18" fill="white" transform="translate(0.015625)"/>
  </clipPath>
  </defs>
  </svg>
