<svg width="400" height="400" viewBox="0 0 400 400" fill="none" xmlns="http://www.w3.org/2000/svg">
<path d="M255.4 64.96C253.12 63.68 250.52 62.96 248.28 61.66C247.704 61.2578 247.198 60.7648 246.78 60.2C244.218 57.1722 241.312 54.4538 238.12 52.1C238.912 53.5122 239.83 54.8508 240.86 56.1C241.48 56.88 240.1 59.28 239.18 58.56C238.26 57.84 237.54 57.34 236.68 56.76C235.714 55.9758 234.616 55.3666 233.44 54.96C234.512 56.8726 235.778 58.6688 237.22 60.32C237.86 61.08 236.46 63.44 235.52 62.76C233.756 61.4774 231.912 60.3084 230 59.26C231.94 61.8678 234.138 64.2732 236.56 66.44C237.24 67.08 236.12 68.86 235.36 68.94C233.52 69.12 231.64 69.32 229.8 69.66C236.48 72.98 243.24 70.92 246.02 72.12C253.466 75.5138 260.056 80.5376 265.3 86.82C271.82 94.68 273.86 104.82 268.26 113.72C266.78 116.062 265.058 118.241 263.12 120.22C264.754 124.148 265.882 128.268 266.48 132.48C273.118 127.306 277.782 120.015 279.7 111.82C283.04 95.84 275.2 76 255.4 64.96Z" fill="#FF3E74"/>
<path d="M264.56 135.34C263.46 125.481 259.326 116.207 252.726 108.801C246.126 101.395 237.388 96.223 227.72 94C218.294 91.8056 208.418 92.6162 199.475 96.3184C190.533 100.021 182.973 106.428 177.857 114.644C172.74 122.859 170.323 132.469 170.944 142.128C171.565 151.786 175.193 161.008 181.32 168.5C187.384 175.994 195.57 181.483 204.804 184.249C214.04 187.014 223.894 186.928 233.08 184C243.084 180.685 251.656 174.056 257.38 165.208C263.104 156.36 265.636 145.823 264.56 135.34ZM210.68 125.2C209.02 142.36 190 144 184.88 131.7C184.56 130.94 185.32 129.94 185.9 129.56C193.767 124.296 202.384 120.25 211.46 117.56C219.842 114.999 228.522 113.547 237.28 113.24C237.72 113.24 237.86 113.56 237.84 113.98C237.82 114.4 237.84 114.92 237.96 115.24H250.36C251.66 115.24 250.5 118.02 249.32 118.02H238C236.66 131.34 223.6 138.46 210.68 125.2Z" fill="#FF3E74"/>
<path d="M228 188C239.724 185.254 250.08 178.412 257.206 168.705C264.33 158.999 267.754 147.067 266.86 135.06C273.752 129.583 278.804 122.13 281.34 113.7C286.06 96.48 278.38 74.56 257.34 62.6C254.94 61.24 250.36 59.82 249.08 58.36C248.066 57.2134 247.026 56.0934 245.96 55C243.96 53 241.42 49.94 238.58 49C236.4 48.32 235 50.26 235.38 52.26C234.832 51.886 234.184 51.6858 233.52 51.6858C232.856 51.6858 232.208 51.886 231.66 52.26C231.154 52.7796 230.822 53.4454 230.714 54.1632C230.606 54.881 230.728 55.6146 231.06 56.26C229.18 55.48 227.48 55.42 226.78 57.3C225.96 59.56 228.44 62.04 229.76 63.56C230.68 64.62 231.76 65.56 232.66 66.68C231.94 66.68 231.2 66.88 230.48 67.02C228.92 67.28 226.76 67.54 226.22 69.32C225.68 71.1 228.22 72.3 229.7 72.88C232.594 73.9676 235.668 74.4968 238.76 74.44C241.022 74.1388 243.324 74.3998 245.46 75.2C248.588 76.8332 251.59 78.6984 254.44 80.78C269.48 91.76 275.6 105.38 262.44 118.56C259.714 112.6 255.81 107.252 250.964 102.839C246.118 98.4264 240.428 95.0386 234.24 92.88C224.622 89.682 214.258 89.5008 204.534 92.3606C194.811 95.2204 186.195 100.984 179.84 108.88C173.534 116.785 169.761 126.409 169.015 136.494C168.27 146.579 170.585 156.653 175.66 165.4C180.949 174.143 188.834 181.019 198.216 185.07C207.598 189.121 218.008 190.145 228 188ZM177.74 114.86C182.272 107.688 188.658 101.874 196.222 98.0324C203.786 94.191 212.248 92.4648 220.712 93.0364C229.176 93.6082 237.33 96.4564 244.308 101.28C251.288 106.104 256.834 112.724 260.36 120.44C263.158 126.352 264.666 132.792 264.786 139.331C264.904 145.871 263.632 152.361 261.052 158.372C258.472 164.382 254.644 169.775 249.822 174.194C245 178.612 239.292 181.955 233.08 184C223.902 186.936 214.052 187.036 204.818 184.285C195.584 181.533 187.394 176.06 181.32 168.58C175.3 161.067 171.729 151.889 171.089 142.283C170.449 132.677 172.77 123.105 177.74 114.86ZM268.32 113.72C273.92 104.8 271.88 94.68 265.36 86.82C260.092 80.528 253.476 75.5036 246 72.12C243.3 70.96 236.36 72.92 229.78 69.66C231.62 69.32 233.5 69.12 235.34 68.94C236.1 68.94 237.22 67.08 236.54 66.44C234.13 64.267 231.94 61.8622 230 59.26C231.888 60.3162 233.712 61.485 235.46 62.76C236.4 63.44 237.8 61.08 237.16 60.32C235.712 58.674 234.444 56.877 233.38 54.96C234.554 55.372 235.65 55.9808 236.62 56.76C237.48 57.34 238.3 57.92 239.12 58.56C239.94 59.2 241.42 56.88 240.8 56.1C239.77 54.8508 238.852 53.5122 238.06 52.1C241.256 54.4486 244.164 57.1676 246.72 60.2C247.138 60.7648 247.644 61.2578 248.22 61.66C250.46 62.94 253.06 63.66 255.34 64.96C275.04 75.94 282.98 95.78 279.7 111.82C277.782 120.015 273.118 127.306 266.48 132.48C265.882 128.268 264.754 124.148 263.12 120.22C265.078 118.244 266.822 116.065 268.32 113.72Z" fill="#0D128A"/>
<path d="M202.82 138.22C205.1 136.864 207.01 134.966 208.382 132.695C209.754 130.424 210.542 127.849 210.68 125.2C220.02 134.8 229.38 133.8 234.42 127.2C236.448 124.527 237.688 121.34 238 118H249.42C250.6 118 251.76 115.22 250.46 115.22H238C238 114.82 238 114.4 237.88 114C237.76 113.6 237.88 113.22 237.32 113.22C223.822 113.737 210.556 116.903 198.28 122.54C194.009 124.554 189.903 126.901 186 129.56C185.42 129.94 184.66 130.94 184.98 131.7C185.651 133.359 186.663 134.859 187.95 136.103C189.237 137.347 190.771 138.308 192.452 138.922C194.133 139.536 195.925 139.791 197.711 139.671C199.497 139.55 201.236 139.055 202.82 138.22ZM235.36 121C235.204 121.682 234.998 122.35 234.74 123L224.36 117.24L227.66 116.72L235.36 121ZM233.36 125.62C232.602 126.653 231.652 127.53 230.56 128.2L214.56 119.34C216.3 118.9 218.04 118.48 219.8 118.12L233.36 125.62ZM208.2 128.14C208.042 128.818 207.842 129.486 207.6 130.14L198.4 125.08L200.76 124.04L208.2 128.14ZM206.2 132.78C205.456 133.824 204.51 134.708 203.42 135.38L191.42 128.72C192.66 128 193.92 127.333 195.2 126.72L206.2 132.78Z" fill="#0D128A"/>
<path d="M185.4 120.84C186.08 120.98 186.68 120.02 186.88 119.54C187.88 117.12 189.86 114.36 192.72 114.04C193.84 113.92 194.72 111.16 193.22 111.34C189.22 111.76 186.36 116.02 184.96 119.34C184.76 119.88 184.74 120.68 185.4 120.84Z" fill="#0D128A"/>
<path d="M229.22 104.16C226.34 102.16 222.28 100.62 218.86 102.26C217.82 102.76 217.3 105.54 218.86 104.76C221.44 103.52 225.28 105.14 227.64 106.76C228.7 107.48 230.24 104.9 229.22 104.16Z" fill="#0D128A"/>
<path d="M224.38 135.3C220.68 139.08 214.22 143.3 208.82 140.06C207.76 139.44 206.24 142.06 207.32 142.68C213.32 146.22 220.78 141.68 224.98 137.4C225.86 136.5 225.76 133.88 224.38 135.3Z" fill="#0D128A"/>
<path d="M192.62 156.16C190.838 156.514 189.235 157.479 188.089 158.888C186.942 160.298 186.324 162.063 186.34 163.88C186.318 164.77 186.483 165.654 186.823 166.476C187.163 167.299 187.672 168.041 188.316 168.655C188.96 169.269 189.726 169.741 190.563 170.042C191.401 170.342 192.292 170.464 193.18 170.4C194.946 170.082 196.547 169.164 197.713 167.801C198.88 166.438 199.539 164.714 199.58 162.92C199.636 162.001 199.492 161.08 199.159 160.221C198.826 159.362 198.311 158.585 197.651 157.943C196.99 157.302 196.198 156.81 195.33 156.502C194.462 156.195 193.537 156.078 192.62 156.16ZM188.62 162.66C188.648 162.082 188.801 161.517 189.069 161.003C189.337 160.49 189.713 160.041 190.171 159.688C190.63 159.334 191.159 159.084 191.724 158.955C192.288 158.826 192.874 158.821 193.44 158.94C194.566 159.192 195.573 159.818 196.299 160.714C197.025 161.611 197.427 162.726 197.44 163.88C197.12 169.84 188.4 168 188.52 162.66H188.62Z" fill="#0D128A"/>
<path d="M182.56 147.44C181.342 147.707 180.253 148.386 179.477 149.362C178.701 150.339 178.285 151.553 178.3 152.8C178.276 153.367 178.372 153.932 178.583 154.459C178.793 154.985 179.113 155.461 179.522 155.854C179.93 156.248 180.418 156.55 180.952 156.74C181.486 156.931 182.055 157.006 182.62 156.96C183.819 156.73 184.905 156.101 185.701 155.175C186.496 154.249 186.954 153.08 187 151.86C187.068 151.261 186.999 150.655 186.799 150.087C186.6 149.519 186.274 149.003 185.847 148.578C185.42 148.153 184.903 147.83 184.334 147.633C183.765 147.436 183.158 147.37 182.56 147.44ZM180.56 151.6C180.56 149.42 184.76 149.6 184.92 152.8C184.7 155.52 180.4 154 180.48 151.6H180.56Z" fill="#0D128A"/>
<path d="M289.78 155.76C273.284 154.964 256.956 159.36 243.09 168.329C229.222 177.298 218.518 190.389 212.48 205.76C215.038 204.44 217.784 203.522 220.62 203.04C227.534 190.559 237.554 180.073 249.708 172.6C261.864 165.126 275.742 160.917 290 160.38L290.32 155.66C290.15 155.735 289.966 155.77 289.78 155.76Z" fill="#FF3E74"/>
<path d="M232.18 205.76C234.394 207.412 236.296 209.444 237.8 211.76C250.336 195.594 268.396 184.62 288.52 180.94L289.06 172.94H288.9C277.666 174.105 266.806 177.631 257.032 183.288C247.258 188.944 238.788 196.602 232.18 205.76Z" fill="white"/>
<path d="M289.72 163C289.584 163.076 289.434 163.124 289.28 163.14C275.738 163.513 262.522 167.365 250.9 174.325C239.278 181.285 229.642 191.119 222.92 202.88C225.59 202.796 228.234 203.446 230.56 204.76C237.328 195.164 246.062 187.117 256.178 181.155C266.296 175.193 277.566 171.452 289.24 170.18L289.72 163Z" fill="#6CECC4"/>
<path d="M322.72 264.92L316.72 267.9C316.72 284.766 316.72 301.634 316.72 318.5C316.71 318.876 316.606 319.244 316.418 319.568C316.23 319.894 315.962 320.166 315.64 320.36C309.488 323.71 303.646 327.6 298.18 331.98C297.4 332.68 295.4 333.98 296.54 334.82C297.69 335.298 298.95 335.45 300.18 335.26C305.83 334.618 311.39 333.35 316.76 331.48C319.4 330.64 325.38 329.7 325.56 326.4C325.7 326.18 325.84 329.6 322.72 264.92Z" fill="white"/>
<path d="M356.4 325.72C347.46 319.96 347.28 320.7 347.28 319.72C347.28 319.72 347.28 283.04 347.28 268.76L341.04 269.38C338.42 323.76 338.4 318.44 338.36 324.86C338.36 327.46 339.86 328.68 342.16 329.5C347.7 331.5 360.6 335.8 366.48 335.22L367.66 334.96V334.82C364.426 331.196 360.622 328.122 356.4 325.72Z" fill="white"/>
<path d="M374 191.6C365.472 190.601 356.828 191.643 348.78 194.64C348.42 194.76 348.2 194.64 348.1 194.42C347.46 193.72 349.18 190.86 348.84 179.64C348.62 172.72 347.54 165 343.14 159.38C341.138 156.972 338.51 155.163 335.546 154.154C332.582 153.144 329.396 152.974 326.34 153.66C324.662 154.145 323.1 154.967 321.75 156.074C320.398 157.181 319.286 158.55 318.48 160.1C313.16 169.22 313.96 181.38 315.06 191.42C315.06 192.08 314.32 193.62 313.46 193.42C308.996 192.315 304.434 191.646 299.84 191.42C293.72 191.1 286.04 191.26 281.08 195.42C276.12 199.58 278.44 205.42 282.48 209.42C289.28 216.26 299.06 220.86 308.02 224.22C308.8 224.52 308.12 225.98 307.82 226.22C305.606 228.718 303.598 231.394 301.82 234.22C296.5 242.7 290.4 257.48 301.16 264.64C305.42 267.48 310.52 266.32 314.56 263.72C320.56 259.72 324.72 252.96 327.04 246.08C327.22 245.56 328.34 244.08 328.92 245.02C332.058 249.512 335.622 253.69 339.56 257.5C342.806 260.808 346.646 263.474 350.88 265.36C355.74 267.36 362.52 267.36 364.56 261.5C366.6 255.64 364.76 248.78 362.9 243.28C360.828 236.864 357.662 230.856 353.54 225.52C352.96 224.78 353.9 223.1 354.74 223.02C357.992 222.594 361.208 221.926 364.36 221.02C370.03 219.656 375.408 217.284 380.24 214.02C391.86 205.8 390.46 194 374 191.6ZM325.04 204C321.38 204.5 320.24 199.28 320.22 196.62C320.2 193.96 321.4 188.8 324.84 188.04C328.68 187.18 329.8 192.78 329.88 195.4C329.78 198.26 328.72 203.42 325.04 204ZM336.62 204.52C332.96 205.02 331.8 199.78 331.8 197.12C331.8 194.46 332.98 189.3 336.42 188.54C340.26 187.68 341.38 193.28 341.46 195.9C341.36 198.78 340.28 204 336.62 204.44V204.52Z" fill="#6CECC4"/>
<path d="M262.84 306.24C262.308 303.336 262.014 300.392 261.96 297.44C259.812 296.882 257.722 296.118 255.72 295.16C251.72 300.54 251.72 300.36 251.22 301.02C251.824 306.758 253.01 312.422 254.76 317.92C255.16 319.2 256.3 324.04 257.98 325.14C258.088 323.368 257.994 321.59 257.7 319.84C257.58 318.96 259.28 316.9 259.84 318.34C260.4 319.78 261.22 322.84 262.46 323.84C262.66 324.34 262.74 324.34 262.72 323.84C262.67 322.208 262.49 320.584 262.18 318.98C262.02 318 263.72 315.64 264.18 317.18C264.844 319.038 265.934 320.716 267.36 322.08C267.62 318.5 264.68 316.28 262.84 306.24Z" fill="white"/>
<path d="M205.54 310.84C205.54 316.84 205.32 322.66 205.22 328.58L215.98 329.04C215.36 322.68 214.72 316.3 213.98 309.94L205.54 310.84Z" fill="white"/>
<path d="M229.62 308.1C228.9 315.1 228.2 322.1 227.62 329.08L238.46 327.98C238.34 321.16 238.2 314.34 238.08 307.5L229.62 308.1Z" fill="white"/>
<path d="M181.86 300.68C180.408 301.826 178.701 302.606 176.884 302.954C175.067 303.302 173.193 303.208 171.42 302.68C167.8 301.58 164.96 298.86 161.68 297.16C161.02 296.82 159.8 296.08 159.9 297.16C160 298.24 162.44 299.7 163.22 300.66C164 301.62 162.58 303.52 161.52 303.1C159.54 302.336 157.457 301.872 155.34 301.72C157.191 303.478 159.383 304.84 161.78 305.72C162.84 306.14 161.5 308.6 160.5 308.42C158.345 307.882 156.14 307.566 153.92 307.48C154.48 307.88 157.22 309.38 157.92 309.7C162.552 312.444 167.711 314.182 173.06 314.8C177.245 315.214 181.439 314.112 184.879 311.692C188.319 309.274 190.775 305.698 191.8 301.62C188.468 302.328 185 302 181.86 300.68Z" fill="white"/>
<path d="M275.86 257.18C274.6 257.36 275.06 255.6 275.56 255.04C278.7 251.812 280.702 247.648 281.26 243.18C281.274 241.37 280.75 239.598 279.758 238.084C278.764 236.572 277.346 235.388 275.68 234.68C273 233.3 267.68 231.2 265.68 234.5C265.28 235.12 263.8 236.08 263.8 234.66C263.826 231.562 262.942 228.522 261.26 225.92C255.26 217.04 241.96 224.38 240.98 224.5C240 224.62 240.72 222.98 237.42 216.72C231.24 205.04 222.24 202.88 211.3 208.92C204.62 212.72 199.48 219.38 202.02 226.6C202.26 227.3 201.1 229.58 200.22 228.82C193.62 223.02 183.28 222.82 178.54 230.44C174.84 236.44 180.4 243.72 185.12 247.34C186.1 248.1 184.74 250.48 183.6 249.96C177.82 247.26 169.92 247.5 166.9 253.96C164.1 259.96 164.42 269.66 172.64 270.6C174.06 270.78 172.64 273.32 171.6 273.36C169.76 273.36 167.6 276 167.02 277.56C166.585 278.588 166.361 279.694 166.361 280.81C166.361 281.926 166.585 283.032 167.02 284.06C169.4 288.76 175.58 284.88 178.74 283.14C180.26 282.32 179.84 284.86 179.06 285.44C177.24 286.76 177.48 291.44 178.24 293.34C180.88 299.9 193.34 301.34 198.08 295.88C199.46 294.3 199.66 296.46 201 298.06C202.366 299.76 203.916 301.302 205.62 302.66C208.628 304.868 212.27 306.04 216 306C220.7 306 222.22 303.86 225.58 300.66C225.714 300.52 225.886 300.422 226.074 300.38C226.262 300.336 226.46 300.352 226.64 300.42C231.816 303.246 237.834 304.12 243.6 302.88C248.98 301.54 249.96 299.82 251 298.32C251.48 297.64 251 298.18 255.28 292.66C255.56 292.3 256.12 291.9 256.58 292.14C258.988 293.32 261.524 294.212 264.14 294.8C273.96 296.9 277.1 291.68 274.96 282.18C274.87 281.71 274.952 281.224 275.192 280.81C275.43 280.394 275.808 280.08 276.26 279.92C282.06 278.56 287.14 274.04 287.04 267.78C286.94 261.52 282.36 256.26 275.86 257.18ZM216.06 265.58C210.64 266.46 208.96 258.34 208.96 254.54C208.96 250.38 210.56 243.12 215.62 242.3C221.08 241.38 222.62 249.54 222.72 253.32C222.62 257.48 221.18 264.74 216 265.58H216.06ZM231.66 266.58C226.24 267.46 224.58 259.34 224.56 255.54C224.56 251.38 226.16 244.14 231.22 243.3C236.68 242.4 238.24 250.56 238.32 254.34C238.22 258.5 236.78 265.74 231.66 266.58Z" fill="white"/>
<path d="M290.36 147.18C274.32 146.339 258.358 149.926 244.218 157.549C230.08 165.172 218.312 176.537 210.2 190.4C205.296 198.477 201.958 207.406 200.36 216.72C200.26 217.54 200.14 218.34 200.04 219.14C201.73 214.118 205.212 209.896 209.82 207.28C215.748 190.847 226.752 176.727 241.238 166.965C255.726 157.203 272.944 152.305 290.4 152.98L290.78 147.08C290.656 147.16 290.508 147.195 290.36 147.18Z" fill="#FFDE26"/>
<path d="M55.3801 201.24C44.0201 198.96 30.6201 193.66 25.3801 183.24C19.0001 170.86 23.0801 153.6 29.0001 141.24C29.8401 139.46 30.2601 138.26 32.2401 137.72C36.5401 136.56 41.6601 135.72 45.2201 132.66C42.8821 132.61 40.5449 132.784 38.2401 133.18C37.1801 133.32 37.3201 131.96 37.7201 131.36C38.5201 130.16 39.2801 128.92 40.0201 127.66C40.9601 126.04 42.9401 123.46 42.9201 121.52C42.9201 120.86 42.8201 121.22 42.1601 121.66C40.3021 123.208 38.5885 124.922 37.0401 126.78C35.8801 128.14 35.0401 126.78 35.7001 125.54C36.3601 124.3 39.0001 118.46 37.7001 118.38C36.7401 118.38 34.7801 120.92 34.2201 121.56C33.6601 122.2 33.0601 122.86 32.5201 123.56C31.6801 124.6 30.4001 123.98 31.0001 122.7C31.7385 121.197 32.3215 119.622 32.7401 118C32.9601 117.04 33.2001 116.42 32.1601 117.02C31.1967 117.802 30.3893 118.759 29.7801 119.84C27.7801 122.7 26.3001 125.84 24.4201 128.84C16.4343 141.74 12.2411 156.628 12.3201 171.8C12.0906 177.381 13.4056 182.918 16.1201 187.8C21.8001 197.52 32.9001 204 44.0001 207.12L55.3801 201.24Z" fill="#FFDE26"/>
<path d="M92.0001 256.84L86.4201 262.2C86.4201 280.986 86.4201 299.754 86.4201 318.5C86.4109 318.874 86.3093 319.238 86.1243 319.564C85.9393 319.888 85.6767 320.162 85.3601 320.36C79.1953 323.706 73.3451 327.602 67.8801 332C67.1001 332.7 65.0801 334 66.2401 334.84C67.3835 335.316 68.6359 335.468 69.8601 335.28C75.5161 334.638 81.0835 333.37 86.4601 331.5C89.0801 330.66 95.0801 329.72 95.2601 326.42C95.2601 326.18 95.4201 329.66 92.0001 256.84Z" fill="white"/>
<path d="M118.34 325.72C109.38 319.96 109.22 320.7 109.22 319.72C109.22 319.72 109.22 281.72 109.22 266.78L103.4 261.16C103.28 263.68 100.36 317.74 100.32 324.86C100.32 327.46 101.82 328.68 104.12 329.5C110 331.6 119.76 334.76 126 335.2C127.216 335.39 128.459 335.308 129.64 334.96C129.647 334.914 129.647 334.866 129.64 334.82C126.393 331.192 122.576 328.118 118.34 325.72Z" fill="white"/>
<path d="M59.68 217.76C57.5584 213.306 56.206 208.526 55.68 203.62L28 217.82C62 217.82 58.6 217.86 59.68 217.76Z" fill="#FFDE26"/>
<path d="M107.26 152C105.6 146 102.76 135.78 100.5 128.48C96.9202 135.2 90.8802 147.26 89.1602 154.66C94.9868 152.702 101.117 151.801 107.26 152Z" fill="#FFDE26"/>
<path d="M68.76 167.5C73.1646 162.892 78.4218 159.184 84.24 156.58C77.8086 150.687 70.7612 145.504 63.22 141.12C62.72 140.86 61.84 140.28 60.96 139.84C65.78 156.96 66.7 160.22 68.76 167.5Z" fill="#FFDE26"/>
<path d="M73.78 235.3C69.25 231.736 65.3668 227.42 62.3 222.54C58.9 229.36 54.3 238.88 51.28 245.86C51.08 246.36 50.86 247.32 50.54 248.04C50.54 248 72.52 236 73.78 235.3Z" fill="#FFDE26"/>
<path d="M152.82 190.14C157.76 186 168 177.4 168 177.24C164.64 177.44 171.52 176.78 148.84 179.08C150.615 182.59 151.951 186.304 152.82 190.14Z" fill="#FFDE26"/>
<path d="M34.3201 166.74C36.3201 168.6 32.9601 165.02 56.4201 190.74C57.7667 184.637 60.2793 178.851 63.8201 173.7C32.2201 166.28 34.8401 166.9 34.3201 166.74Z" fill="#FFDE26"/>
<path d="M137.68 233.26C133.984 236.534 129.843 239.268 125.38 241.38C127.06 243.14 138.6 255.38 139.24 256.08C139.1 254 137.82 235.34 137.68 233.26Z" fill="#FFDE26"/>
<path d="M127.64 157.36C127.64 155.22 128.24 141.74 128.42 137.14C127.72 138.1 126.76 139.14 126.28 139.82L116.9 153.3C120.638 154.192 124.247 155.556 127.64 157.36Z" fill="#FFDE26"/>
<path d="M144.22 171.56C152.74 152.76 151.74 155.02 151.98 154.3C151.4 154.56 153.26 153.54 136.18 163.08C139.179 165.586 141.878 168.431 144.22 171.56Z" fill="#FFDE26"/>
<path d="M81.24 260.28L94 245C88.799 243.796 83.8234 241.77 79.26 239C81.88 269.06 80.6 254.76 81.24 260.28Z" fill="#FFDE26"/>
<path d="M150.42 220.46C150.02 219.92 149.48 219.34 149 218.74C147.087 222.498 144.686 225.988 141.86 229.12C145.86 230.16 149.86 231.44 154 232.56L160.98 234.56C160.38 233.84 161.38 235.14 150.42 220.46Z" fill="#FFDE26"/>
<path d="M153.84 198.18C153.935 203.416 153.061 208.624 151.26 213.54C168.86 208.48 132.12 219.28 175.26 206.56C153.84 198 157.22 199.34 153.84 198.18Z" fill="#FFDE26"/>
<path d="M111.62 263.04C112.76 258.92 116.16 246.6 116.74 244.56C111.906 245.89 106.886 246.418 101.88 246.12C102.96 248 111.54 262.88 111.62 263.04Z" fill="#FFDE26"/>
<path d="M148.9 214.54C156.9 194.54 146.54 172.84 129.64 162C119.795 155.912 108.087 153.572 96.6578 155.408C85.2288 157.245 74.843 163.134 67.4002 172C60.9242 179.875 57.4766 189.806 57.6802 200C58.7402 226.46 88.0002 250 117.5 241.76C124.466 239.924 130.918 236.516 136.361 231.796C141.805 227.078 146.094 221.174 148.9 214.54ZM90.3202 175.36C93.6002 174.72 95.0202 178.32 95.5402 181.36C96.0202 178.38 97.4402 175 100.38 174.42C104.56 173.6 105.74 179.66 105.84 182.54C105.74 185.72 104.56 191.44 100.54 191.92C97.4402 192.28 96.0002 188.88 95.5202 185.92C95.0002 188.98 93.5202 192.5 90.4802 192.86C86.4802 193.32 85.2602 187.62 85.2602 184.7C85.2602 181.78 86.5202 176.1 90.3202 175.36ZM115.04 209.68C113.18 218.22 101.86 221.92 94.2802 221.56C89.767 221.206 85.4156 219.72 81.627 217.242C77.8382 214.764 74.734 211.372 72.6002 207.38C70.4002 203.54 67.2402 195.38 72.7202 192.68C76.3202 190.86 80.9002 193.44 83.6202 195.72C90.0402 201.1 90.2202 206.18 95.5002 205.38C100 204.42 117.08 200.28 115.04 209.68Z" fill="#FFDE26"/>
<path d="M216.66 340C216.66 337.3 216.48 334.62 216.24 332L205.16 331.52C205.04 336.34 204.28 340.74 200.42 344.02C198.88 345.34 194.72 348.02 195.24 348.44C195.76 348.86 198.92 348.3 199.86 348.12C206.16 346.94 207.74 344.12 211.48 342.12C213.1 341.24 214.5 340.74 215.28 342.7C215.44 343.08 215.44 343.46 215.56 343.84C215.68 344.22 216.82 347.02 216.54 344.78C216.758 343.196 216.8 341.592 216.66 340Z" fill="#FF3E74"/>
<path d="M240.44 341.68C238.32 338.48 238.44 334.36 238.44 330.64L227.32 331.76C227.01 335.464 226.93 339.186 227.08 342.9C227.08 343.56 226.72 346.28 228.08 344.9C228.08 344.9 228.4 343.54 228.46 343.4C228.74 342.66 229.34 341.5 230.16 341.24C232.68 340.44 236.16 344.5 238.16 345.62C239.8 346.57 241.564 347.29 243.4 347.76C244.968 348.172 246.566 348.452 248.18 348.6C245.74 346 242.36 344.6 240.44 341.68Z" fill="#FF3E74"/>
<path d="M75.04 205.1C76.6998 208.848 79.4992 211.976 83.04 214.04C83.2792 212.914 83.289 211.75 83.0692 210.62C82.8492 209.49 82.404 208.414 81.76 207.46C80.8982 206.574 79.843 205.9 78.6772 205.49C77.5112 205.082 76.2662 204.948 75.04 205.1Z" fill="#FF3E74"/>
<path d="M390 200.7C389.72 194.7 384.42 191.3 379.2 189.76C369.84 187 359.4 188.62 350.26 191.58C350.81 187.665 351.05 183.713 350.98 179.76C350.98 172.4 349.92 164.22 345.62 158.02C343.542 155.154 340.674 152.956 337.368 151.691C334.062 150.427 330.46 150.152 327 150.9C323.378 151.84 320.23 154.084 318.16 157.2C311.48 166.38 311.52 179.2 312.58 190.2C308.87 189.412 305.106 188.911 301.32 188.7C294.6 188.3 286.76 188.58 281.14 192.7C276.28 196.28 274.26 202.28 277.4 207.66C280.72 213.36 287.2 217.26 292.8 220.36C296.818 222.63 300.98 224.634 305.26 226.36C299.52 233.3 294.38 242.08 293.26 250.96C291.66 263.92 301.74 274.38 314.6 266.38C314.6 281.46 314.6 316.2 314.6 318.5C311.574 320.22 308.614 322.034 305.72 323.94C301.92 326.44 296.56 329.42 294.46 333.66C291.7 339.16 300.46 338.06 303.3 337.66C307.608 336.876 311.852 335.78 316 334.38C318.98 333.44 323.28 332.7 325.62 330.5C327.96 328.3 327.8 325.22 327.62 322.2C327.42 318.02 324.68 261.46 324.42 256.04C325.81 253.784 326.994 251.408 327.96 248.94C331.326 253.506 335.116 257.746 339.28 261.6C338.88 270.08 336.12 322.22 336.16 326.48C336.16 332.14 342.94 333.08 347.24 334.48C352.7 336.2 358.66 338.2 364.44 338.16C366.92 338.16 370.68 337.2 369.96 333.88C369.34 331.06 365.64 328.72 363.52 327.16C360.092 324.648 356.534 322.318 352.86 320.18C352.1 319.72 351.28 319.1 350.46 318.66C350.06 318.44 349.44 318.66 349.44 317.12C349.44 314.42 349.44 304.38 349.44 268.3C356.76 271.18 362.54 268.84 365.26 264.3C368.46 259.02 367.66 252.08 366.3 246.3C364.516 238.828 361.34 231.758 356.94 225.46C365.698 224.322 374.05 221.074 381.28 216C386 212.46 390.28 206.84 390 200.7ZM325.68 326.4C325.5 329.7 319.52 330.64 316.88 331.48C311.51 333.348 305.95 334.614 300.3 335.26C299.07 335.45 297.81 335.298 296.66 334.82C295.52 333.94 297.52 332.68 298.3 331.98C303.766 327.6 309.608 323.71 315.76 320.36C316.082 320.166 316.35 319.894 316.538 319.568C316.726 319.244 316.83 318.876 316.84 318.5C316.84 301.634 316.84 284.766 316.84 267.9L322.84 264.92C325.88 330.38 325.7 326.18 325.68 326.4ZM356.4 325.72C360.622 328.122 364.426 331.196 367.66 334.82V334.96C366.478 335.306 365.236 335.388 364.02 335.2C357.74 334.76 348.02 331.6 342.16 329.5C339.86 328.68 338.34 327.5 338.36 324.86C338.36 318.24 338.22 327.74 341.04 269.38L347.28 268.76C347.28 283.04 347.28 319.72 347.28 319.72C347.28 320.7 347.36 320 356.4 325.72ZM380.26 214.18C375.428 217.444 370.05 219.816 364.38 221.18C361.228 222.086 358.012 222.754 354.76 223.18C353.9 223.18 352.98 224.94 353.56 225.68C357.682 231.016 360.848 237.024 362.92 243.44C364.78 248.94 366.6 255.94 364.58 261.66C362.56 267.38 355.76 267.52 350.9 265.52C347.492 264.044 344.35 262.018 341.6 259.52C336.842 255.242 332.594 250.43 328.94 245.18C328.36 244.32 327.24 245.72 327.06 246.24C325.05 252.888 321.076 258.772 315.66 263.12C311.36 266.36 305.66 267.82 301.18 264.8C290.42 257.64 296.52 242.8 301.84 234.38C303.618 231.554 305.626 228.878 307.84 226.38C308.14 226.04 308.82 224.58 308.04 224.38C299.08 221.02 289.3 216.38 282.5 209.58C278.5 205.58 275.92 199.94 281.1 195.58C286.28 191.22 293.74 191.28 299.86 191.58C304.454 191.806 309.016 192.475 313.48 193.58C314.34 193.8 315.16 192.26 315.08 191.58C313.98 181.58 313.08 169.38 318.5 160.26C319.306 158.71 320.418 157.34 321.77 156.233C323.12 155.126 324.682 154.305 326.36 153.82C329.416 153.134 332.602 153.304 335.566 154.314C338.53 155.323 341.158 157.132 343.16 159.54C347.56 165.16 348.64 172.88 348.86 179.8C349.2 190.92 347.5 193.9 348.12 194.58C348.22 194.82 348.44 194.92 348.8 194.8C356.828 191.752 365.466 190.655 374 191.6C390.38 194 392 205.76 380.26 214.18Z" fill="#0D128A"/>
<path d="M336.42 188.46C332.98 189.22 331.8 194.1 331.8 197.04C331.8 199.98 332.96 205.04 336.62 204.44C340.28 203.84 341.36 198.78 341.46 195.82C341.36 193.2 340.26 187.6 336.42 188.46ZM336.04 201.34C332.82 199.34 333.54 189.34 337.22 191.52C338.92 192.56 339.22 195.3 339.22 197.04C339.22 198.78 338.58 202.9 336 201.34H336.04Z" fill="#0D128A"/>
<path d="M336.62 193.84C335.12 194.22 334.4 196.18 334.4 197.56C334.4 198.62 334.92 200.38 336.4 200.1C337.88 199.82 338.64 197.88 338.68 196.36C338.54 195.3 338 193.46 336.62 193.84Z" fill="#0D128A"/>
<path d="M325.04 204C328.72 203.5 329.78 198.34 329.88 195.4C329.88 192.78 328.68 187.18 324.84 188.04C321.4 188.8 320.22 193.66 320.22 196.62C320.22 199.58 321.38 204.42 325.04 204ZM325.66 191.1C327.34 192.12 327.66 194.88 327.66 196.62C327.66 198.36 326.96 202.48 324.42 200.92C321.24 198.88 322 188.76 325.66 191.02V191.1Z" fill="#0D128A"/>
<path d="M327.5 195.64C327.36 194.4 326.38 192.88 325.06 193.44C324.372 193.852 323.838 194.478 323.538 195.221C323.238 195.965 323.19 196.786 323.4 197.56C324.14 201.08 328 199.72 327.5 195.64Z" fill="#0D128A"/>
<path d="M320.74 185.54C321.066 185.416 321.354 185.208 321.576 184.938C321.796 184.668 321.942 184.344 322 184C322.194 183.364 322.616 182.822 323.184 182.476C323.75 182.129 324.426 182.003 325.08 182.12C326.26 182.12 327.46 179.48 326.12 179.36C321.06 178.78 318.5 186 320.74 185.54Z" fill="#0D128A"/>
<path d="M336.62 178.36C335.44 178.26 334.24 181.02 335.58 181.12C336.816 181.224 337.99 181.709 338.938 182.508C339.888 183.307 340.566 184.38 340.88 185.58C341.06 186.28 341.8 186.08 342.22 185.74C342.51 185.501 342.732 185.191 342.866 184.841C342.998 184.49 343.038 184.111 342.98 183.74C342.598 182.3 341.782 181.012 340.646 180.05C339.508 179.088 338.104 178.498 336.62 178.36Z" fill="#0D128A"/>
<path d="M339.26 208C337.524 209.584 336.352 211.69 335.92 214C333.666 214.75 331.26 214.93 328.92 214.52C328.578 211.85 327.52 209.32 325.86 207.2C325.04 206.14 323.26 208.56 323.98 209.48C325.318 211.118 326.23 213.062 326.638 215.138C327.046 217.212 326.938 219.356 326.32 221.38C325.7 223.38 327.76 223.06 328.32 221.56C328.754 220.206 329.016 218.8 329.1 217.38C331.342 217.712 333.632 217.45 335.74 216.62C335.728 218.734 336.004 220.84 336.56 222.88C336.92 224.34 338.92 222.18 338.56 221.08C337.66 217.48 336.82 213.08 339.86 210.12C340.78 209.14 340.7 206.56 339.26 208Z" fill="#0D128A"/>
<path d="M289.78 155.76C290.96 155.76 292.14 153.06 290.82 153C273.296 152.232 255.986 157.085 241.414 166.849C226.842 176.614 215.772 190.78 209.82 207.28C205.212 209.896 201.73 214.118 200.04 219.14C200.04 218.34 200.26 217.54 200.36 216.72C201.958 207.406 205.296 198.477 210.2 190.4C218.306 176.532 230.074 165.163 244.214 157.54C258.354 149.916 274.318 146.332 290.36 147.18C291.52 147.18 292.7 144.48 291.4 144.42C242.76 142.04 202.26 178.62 197.4 223.36C193.851 221.662 189.794 221.354 186.029 222.498C182.264 223.642 179.064 226.154 177.06 229.54C173.76 235.06 175.64 241.04 179.32 245.68C176.015 245.156 172.633 245.868 169.82 247.68C162.8 252.6 159.18 267.86 168.74 272.42C167.12 273.762 165.874 275.5 165.124 277.466C164.374 279.432 164.145 281.56 164.46 283.64C164.517 285.024 165.083 286.336 166.051 287.326C167.019 288.316 168.319 288.912 169.7 289C172.029 288.874 174.293 288.188 176.3 287C175.772 288.838 175.582 290.754 175.74 292.66C175.874 294.012 176.302 295.32 176.993 296.49C177.683 297.662 178.621 298.668 179.74 299.44C177.687 300.406 175.367 300.646 173.16 300.12C169.42 299.2 166.52 296.28 163.16 294.54C160.9 293.36 158.58 293.32 157.68 296.12C157.497 296.608 157.421 297.13 157.455 297.652C157.49 298.172 157.634 298.68 157.88 299.14C156.702 298.958 155.511 298.878 154.32 298.9C152.88 298.9 151.64 301.7 153.86 304.36C153.043 304.184 152.19 304.29 151.44 304.66C151.036 304.88 150.694 305.196 150.442 305.58C150.19 305.964 150.038 306.404 149.998 306.862C149.959 307.32 150.033 307.78 150.215 308.202C150.397 308.624 150.68 308.994 151.04 309.28C152.55 310.382 154.172 311.32 155.88 312.08C160.761 315.026 166.217 316.888 171.88 317.54C176.91 317.894 181.898 316.412 185.921 313.372C189.943 310.33 192.728 305.936 193.76 301C195.301 300.506 196.738 299.734 198 298.72C198.63 299.746 199.389 300.688 200.26 301.52C201.272 302.672 202.368 303.75 203.54 304.74C202.96 336.32 203.18 336.22 202.24 338.64C200.56 342.94 194.68 344.18 192.98 348.06C190.42 353.88 203.36 349.64 205.26 348.68C207.436 347.368 209.546 345.946 211.58 344.42C212.66 343.84 212.9 343.74 213.4 344.86C213.9 345.98 213.56 347.14 214.56 348C214.888 348.306 215.306 348.5 215.752 348.554C216.196 348.608 216.648 348.52 217.04 348.3C219.26 347.14 218.78 343.52 218.84 341.5C219.04 334.42 218.38 329.28 216.28 308.76C220.44 308.44 222.54 306.36 225.66 303.38C226.4 303.76 227.18 304.1 227.96 304.42C225.46 329.1 224.88 334.04 224.82 339C224.58 341.702 224.68 344.424 225.12 347.1C225.68 349.22 228.3 349.1 229.56 346.5C229.826 345.688 230.038 344.86 230.2 344.02C232.62 344.76 234.42 346.9 236.58 348.16C238.878 349.47 241.39 350.364 244 350.8C245.66 351.08 248.38 351.64 250 350.56C250.53 350.198 250.91 349.654 251.068 349.032C251.226 348.41 251.152 347.752 250.86 347.18C250.812 347.004 250.716 346.844 250.58 346.72C248.58 344.24 245.48 342.9 243.34 340.5C240.46 337.28 240.82 332.62 240.76 328.6L240.34 306.18C243.546 305.89 246.624 304.782 249.28 302.96C249.976 309.266 251.364 315.478 253.42 321.48C254 323.12 255.64 329.38 258.44 328C258.894 327.724 259.282 327.352 259.576 326.91C259.868 326.466 260.062 325.966 260.14 325.44C261.04 326.94 262.14 327.92 263.46 327.02C263.97 326.63 264.388 326.132 264.682 325.562C264.976 324.992 265.14 324.362 265.16 323.72C265.762 324.418 266.432 325.054 267.16 325.62C267.7 326.04 268.48 325.12 268.7 324.76C271.58 319.92 267.72 314.46 266.34 309.72C265.226 305.868 264.556 301.904 264.34 297.9C274.72 299.54 279.1 292.44 277.52 282.24C280.682 281.278 283.49 279.404 285.594 276.854C287.696 274.302 289 271.188 289.34 267.9C289.74 260.92 285.54 254.58 278.66 254.36C281.72 250.24 284.2 244.96 283.5 240C282.52 233.06 271.82 227.16 266.06 231.62C265.814 228.558 264.742 225.622 262.96 223.12C257.94 216.5 248.96 218.7 242.38 221.52C241.604 218.668 240.468 215.926 239 213.36C251.178 197.644 268.764 187.015 288.34 183.54C289.44 183.36 290.34 180.56 288.86 180.84C268.67 184.487 250.54 195.472 237.96 211.68C236.456 209.364 234.554 207.332 232.34 205.68C238.95 196.478 247.438 188.785 257.244 183.11C267.05 177.434 277.948 173.907 289.22 172.76C290.26 172.4 291.06 169.92 289.56 170.08C277.856 171.33 266.552 175.063 256.406 181.03C246.258 186.996 237.502 195.059 230.72 204.68C228.398 203.356 225.752 202.706 223.08 202.8C229.802 191.039 239.438 181.205 251.06 174.245C262.682 167.285 275.898 163.433 289.44 163.06C290.62 163.06 291.76 160.26 290.48 160.28C276.162 160.776 262.218 164.972 250.002 172.459C237.788 179.945 227.72 190.467 220.78 203C217.944 203.482 215.198 204.4 212.64 205.72C218.676 190.383 229.358 177.32 243.192 168.36C257.026 159.401 273.316 154.995 289.78 155.76ZM172.96 314.86C166.2 314.36 160.12 311.14 154.34 307.82L153.92 307.54C156.14 307.624 158.345 307.94 160.5 308.48C161.5 308.66 162.84 306.2 161.78 305.78C160.501 305.322 159.28 304.718 158.14 303.98C157.119 303.374 156.178 302.642 155.34 301.8C157.457 301.952 159.54 302.416 161.52 303.18C162.58 303.6 163.92 301.6 163.22 300.74C162.52 299.88 160 298.38 160 297.24C160 296.1 161.12 296.9 161.78 297.24C165.08 298.96 167.9 301.66 171.52 302.76C173.293 303.288 175.167 303.382 176.984 303.034C178.801 302.686 180.508 301.906 181.96 300.76C185.063 302.08 188.494 302.43 191.8 301.76C190.753 305.84 188.274 309.408 184.816 311.812C181.357 314.218 177.149 315.3 172.96 314.86ZM216.66 340C216.79 341.554 216.75 343.116 216.54 344.66C216.84 346.96 215.54 344.24 215.56 343.72C215.58 343.2 215.44 342.96 215.28 342.58C214.5 340.58 213.1 341.12 211.48 342C207.74 344 206.16 346.88 199.86 348C198.92 348.18 196.04 348.94 195.24 348.32C194.44 347.7 198.88 345.22 200.42 343.9C204.28 340.62 205.04 336.22 205.16 331.4L216.24 331.88C216.48 334.54 216.66 337.22 216.66 340ZM205.22 328.66C205.22 322.66 205.44 316.84 205.54 310.92L214 310C214.666 316.36 215.334 322.726 216 329.1L205.22 328.66ZM229.62 308.18L237.98 307.58C238.1 314.42 238.24 321.24 238.36 328.06L227.52 329.16C228.2 322 228.9 315.1 229.62 308.1V308.18ZM240.44 341.76C242.44 344.68 245.74 346.1 248.08 348.6C246.466 348.452 244.868 348.172 243.3 347.76C241.464 347.29 239.7 346.57 238.06 345.62C236.06 344.5 232.64 340.44 230.06 341.24C229.24 341.5 228.64 342.66 228.36 343.4C228.36 343.54 228.08 344.8 227.98 344.9C226.62 346.36 227.02 343.64 226.98 342.9C226.83 339.186 226.91 335.464 227.22 331.76L238.34 330.64C238.44 334.36 238.32 338.48 240.44 341.68V341.76ZM265.06 314.62C265.78 316.62 267.58 319.68 267.46 322.16C266.034 320.796 264.944 319.118 264.28 317.26C263.72 315.72 262.02 318.08 262.28 319.06C262.598 320.662 262.778 322.288 262.82 323.92C262.82 324.42 262.82 324.42 262.56 323.92C261.32 322.92 260.56 319.92 259.94 318.42C259.32 316.92 257.68 319.04 257.8 319.92C258.094 321.67 258.188 323.448 258.08 325.22C256.4 324.12 255.26 319.22 254.86 318C253.106 312.502 251.92 306.84 251.32 301.1C251.8 300.54 251.32 301.1 255.82 295.24C257.822 296.198 259.912 296.962 262.06 297.52C262.146 303.316 263.16 309.062 265.06 314.54V314.62ZM219.06 206.06C226.74 204.58 232.28 208.28 236.38 215.04C240.78 222.3 239.68 225.04 240.94 224.58C241.92 224.46 255.24 217.14 261.22 226C262.902 228.602 263.786 231.642 263.76 234.74C263.76 236.16 265.24 235.2 265.64 234.58C267.64 231.28 272.94 233.38 275.64 234.76C277.306 235.468 278.724 236.652 279.718 238.164C280.71 239.678 281.234 241.45 281.22 243.26C280.662 247.728 278.66 251.892 275.52 255.12C275.02 255.68 274.56 257.44 275.82 257.26C282.32 256.34 286.9 261.68 286.98 267.94C287.06 274.2 282 278.72 276.2 280.08C275.748 280.238 275.37 280.554 275.132 280.97C274.892 281.384 274.81 281.87 274.9 282.34C277.06 291.9 273.84 297.04 264.08 294.96C261.464 294.374 258.926 293.482 256.52 292.3C256.06 292.06 255.5 292.46 255.22 292.82C252.88 295.9 250.2 299.62 249.58 300.22C247.83 301.618 245.774 302.584 243.58 303.04C237.814 304.284 231.794 303.412 226.62 300.58C226.44 300.51 226.242 300.496 226.054 300.54C225.866 300.582 225.694 300.68 225.56 300.82C222.02 304.18 220.12 306.82 213.56 306C208.12 305.24 204.46 302.38 200.98 298.14C199.64 296.54 199.44 294.38 198.06 295.96C193.24 301.54 180.82 299.96 178.22 293.42C177.46 291.54 177.22 286.84 179.04 285.52C179.82 284.94 180.24 282.4 178.72 283.22C175.56 284.96 169.38 288.84 167 284.14C166.565 283.112 166.341 282.006 166.341 280.89C166.341 279.774 166.565 278.668 167 277.64C167.6 276.08 169.74 273.54 171.58 273.44C172.64 273.44 174.04 270.86 172.62 270.68C164.4 269.74 164.08 260.02 166.88 254.04C169.9 247.58 177.8 247.34 183.58 250.04C184.72 250.56 186.08 248.18 185.1 247.42C180.38 243.8 174.82 236.52 178.52 230.52C183.22 222.88 193.52 223.04 200.2 228.9C201.08 229.66 202.2 227.38 202 226.68C198.66 216.94 209.1 207.88 219.12 206L219.06 206.06Z" fill="#0D128A"/>
<path d="M231.66 266.58C236.78 265.74 238.22 258.58 238.32 254.34C238.32 250.56 236.68 242.34 231.22 243.3C226.16 244.14 224.56 251.3 224.56 255.54C224.58 259.34 226.24 267.46 231.66 266.58ZM232.08 246.22C235.38 247.5 236.08 252.6 236.08 255.54C236.08 258.16 235 265.28 230.74 263.66C224.64 261.28 225.86 243.82 232 246.22H232.08Z" fill="#0D128A"/>
<path d="M231.08 257.54C232.98 257.2 233.8 254.74 233.88 252.82C233.88 251.44 233.22 248.82 231.28 249.32C229.34 249.82 228.58 252.34 228.58 254.04C228.6 255.4 229.24 257.88 231.08 257.54Z" fill="#0D128A"/>
<path d="M215.62 242.3C210.56 243.12 208.96 250.3 208.96 254.54C208.96 258.34 210.64 266.54 216.06 265.58C221.18 264.74 222.62 257.58 222.72 253.32C222.62 249.54 221.08 241.38 215.62 242.3ZM215.2 262.64C209.04 260.28 210.26 242.82 216.48 245.22C222.7 247.62 221.4 265.04 215.2 262.64Z" fill="#0D128A"/>
<path d="M214.5 254C214.5 255.36 215.14 257.84 216.98 257.5C218.82 257.16 219.7 254.72 219.78 252.78C219.78 251.4 219.12 248.78 217.18 249.28C215.24 249.78 214.5 252.34 214.5 254Z" fill="#0D128A"/>
<path d="M219.66 270.46C219.46 268.68 217.36 270.46 217.48 271.68C217.74 274.26 219.48 278.32 222.72 277.68C225.96 277.04 227.52 272.58 227.94 269.68C228.24 267.68 225.94 268.94 225.94 270.22C225.7 271.84 224.9 275.54 222.54 274.92C220.74 274.4 219.82 272 219.66 270.46Z" fill="#0D128A"/>
<path d="M209.4 235.28C208.54 236.9 210.1 237.82 210.96 236.2C211.598 235.006 212.468 233.95 213.518 233.094C214.57 232.24 215.78 231.602 217.08 231.22C218.14 230.9 219.08 228.08 217.6 228.52C215.852 229.044 214.226 229.914 212.818 231.074C211.41 232.234 210.248 233.664 209.4 235.28Z" fill="#0D128A"/>
<path d="M232.78 230.44C234.41 230.716 235.948 231.384 237.262 232.388C238.576 233.392 239.626 234.7 240.32 236.2C240.96 237.62 242.88 235.42 242.32 234.4C241.55 232.656 240.364 231.13 238.864 229.954C237.364 228.778 235.596 227.99 233.72 227.66C232.68 227.46 231.44 230.2 232.78 230.44Z" fill="#0D128A"/>
<path d="M175.14 203.34C152.6 194.32 155.64 195.48 153.62 194.86C153.62 194.02 153.4 193.2 153.26 192.38L168.86 179.2C173.86 174.98 172.66 174 168.86 174.4L147.54 176.56C146.88 175.42 146.2 174.34 145.54 173.26C146.72 170.64 151.84 159.26 153.2 156.3C154.88 152.62 156.62 149.18 151.54 152.02L134.32 161.6C132.84 160.496 131.305 159.468 129.72 158.52C129.72 155.6 130.34 142.2 130.5 138.42C130.7 133.08 130.5 130.42 126.94 135.7L114.94 152.88C113.26 152.56 111.56 152.32 109.84 152.16C109.84 152.16 104 131.38 103.3 128.56C102.94 127.32 102.82 125.62 101.8 124.76C101.6 124.58 101.22 124.76 101.04 124.76C99.4 125.6 98.58 128.18 97.76 129.74C94.18 136.6 88.84 147.54 87.06 155.06C80.9546 149.552 74.4282 144.53 67.54 140.04C65.66 138.9 61.9 136.04 59.54 136.56C59.1958 136.685 58.8924 136.902 58.6632 137.188C58.434 137.474 58.2876 137.817 58.24 138.18C57.76 139.88 59.04 142.36 59.48 143.96L66.72 169.66C65.68 170.92 65.94 170.62 65.56 171.12C64.1 170.64 67.72 171.52 33.04 163.42C31.34 163.02 29.04 164.2 30.18 166.32C31.0924 167.576 32.146 168.724 33.32 169.74L55.72 194.3C55.56 195.62 55.46 196.94 55.42 198.3C43.84 196 30.16 189.82 26.12 178.6C23.28 170.6 24.12 161.96 26.12 153.98C27.3114 149.352 29.0152 144.871 31.2 140.62C36.76 139.16 43.1 138.04 47.06 133.54C48.42 131.98 48.86 130 46.34 129.86C44.3784 129.805 42.416 129.939 40.48 130.26C41.28 128.96 42.04 127.64 42.74 126.26C43.44 124.88 45.96 120.92 44.74 119.04C43.82 117.52 41.56 119.04 39.5 121.04C40.34 118.62 40.7 116.24 39.14 115.58C37.9 115.04 36.24 116.2 34.74 117.72C35.22 115.9 35.26 114.24 33.98 113.72C31.34 112.8 26.84 120.5 25.42 122.92C24.86 123.9 22.92 127.38 23.16 127.08C16.9338 136.686 12.8416 147.517 11.16 158.84C10 166.12 9.16005 174.16 10.76 181.42C13.82 195.3 26.76 204.22 40.16 208.86L30.52 214C28.3424 214.936 26.2308 216.018 24.2 217.24C23.3 217.88 21.08 220.58 25.88 220.58H58.58C59.4428 220.684 60.3112 220.73 61.18 220.72C61.08 220.92 51.38 240.72 48.74 247.18C48.069 248.262 47.7672 249.532 47.88 250.8C47.9098 250.922 47.9752 251.034 48.0676 251.118C48.1602 251.204 48.2758 251.26 48.4 251.28C49.4342 251.2 50.422 250.818 51.24 250.18C79.0201 235.1 75.24 237.34 75.88 236.86L76.74 237.46C76.74 239.12 77.1 240.88 77.26 242.5C77.5 245.32 78.5 256.74 78.76 259.64C78.76 260.78 78.76 262.6 79.44 263.64C79.5202 263.738 79.627 263.81 79.7476 263.85C79.8682 263.89 79.9975 263.892 80.12 263.86C81.18 263.54 81.7001 262.7 82.4 261.86L84.14 259.76C84.14 277.06 84.14 316.24 84.14 318.54C81.14 320.26 78.14 322.08 75.26 323.98C71.48 326.48 66.12 329.46 64 333.7C61.26 339.2 70 338.1 72.84 337.7C77.1542 336.918 81.4056 335.822 85.56 334.42C88.52 333.48 92.84 332.74 95.18 330.54C97.52 328.34 97.36 325.26 97.18 322.24C96.98 318.06 94 256.36 93.62 248.36C94.3596 247.388 95.1542 246.46 96 245.58C96.8 245.726 97.6 245.846 98.4 245.94L101.7 251.66C101.14 263.46 98.04 322.26 98.08 326.52C98.08 332.18 104.88 333.12 109.18 334.52C114.64 336.24 120.58 338.24 126.38 338.2C128.84 338.2 132.62 337.24 131.9 333.92C131.28 331.1 127.58 328.76 125.46 327.2C122.058 324.622 118.527 322.218 114.88 320C113.966 319.358 113.011 318.776 112.02 318.26C111.844 318.156 111.701 318.006 111.605 317.826C111.51 317.646 111.467 317.444 111.48 317.24C111.36 315.24 111.38 323.42 111.48 266.74C111.689 266.688 111.882 266.586 112.04 266.44C113.074 265.162 113.72 263.614 113.9 261.98C114.76 258.84 118.1 246.78 118.9 243.98C120.14 243.58 121.34 243.14 122.54 242.66L136.38 257.18C139.46 260.42 141.96 262.78 141.4 254.62C141.18 251.36 139.92 232.62 139.84 231.58C143.08 232.62 134.6 230.22 161.4 237.72C162.36 238 163.26 238.46 164.16 237.72C164.407 237.542 164.615 237.314 164.769 237.052C164.924 236.788 165.022 236.496 165.058 236.194C165.094 235.89 165.066 235.584 164.977 235.292C164.888 235 164.739 234.732 164.54 234.5C162.28 231.06 161.96 231.08 152.2 218C151.88 217.54 151.28 216.92 150.78 216.3L174.48 209.3C182.26 207.04 180.7 205.56 175.14 203.34ZM168 177.24C167.56 177.66 166 179.02 152.76 190.14C151.885 186.303 150.542 182.589 148.76 179.08C171.5 176.78 164.72 177.44 168 177.24ZM152 154.3C151.72 155.12 144.16 171.76 144.24 171.56C141.91 168.434 139.225 165.588 136.24 163.08C153.26 153.54 151.36 154.56 152 154.3ZM126.28 139.82C126.76 139.1 127.72 138.1 128.42 137.14C128.24 141.74 127.72 155.14 127.64 157.36C124.242 155.581 120.634 154.237 116.9 153.36L126.28 139.82ZM100.5 128.48C101.54 131.84 104.28 141.36 107.26 152C101.116 151.801 94.9866 152.702 89.16 154.66C90.86 147.28 96.94 135.16 100.5 128.48ZM60.96 139.84C61.84 140.28 62.72 140.86 63.22 141.12C70.762 145.503 77.8096 150.686 84.24 156.58C78.4218 159.184 73.1646 162.892 68.76 167.5C68.22 165.56 60.9 139.62 60.96 139.84ZM34.32 166.74C34.84 166.9 32.32 166.32 63.82 173.66C60.2792 178.811 57.7666 184.597 56.42 190.7C33.04 165.1 36.3 168.56 34.32 166.74ZM16.12 187.8C13.4055 182.918 12.0906 177.381 12.32 171.8C12.2195 156.6 16.4138 141.681 24.42 128.76C26.3 125.82 27.76 122.62 29.78 119.76C30.3892 118.679 31.1966 117.722 32.16 116.94C33.2 116.34 32.96 116.94 32.74 117.92C32.3036 119.586 31.6936 121.201 30.92 122.74C30.32 124.02 31.6 124.74 32.44 123.6C32.98 122.92 33.54 122.26 34.14 121.6C34.74 120.94 36.66 118.34 37.62 118.42C38.92 118.42 36.18 124.52 35.62 125.58C35.06 126.64 35.8 128.18 36.96 126.82C38.484 124.973 40.1708 123.266 42 121.72C42.66 121.28 42.76 120.92 42.76 121.58C42.76 123.58 40.76 126.1 39.86 127.72C39.12 128.98 38.36 130.22 37.56 131.42C37.16 132.02 37.02 133.42 38.08 133.24C40.3848 132.845 42.722 132.671 45.06 132.72C41.5 135.68 36.38 136.72 32.08 137.78C30.08 138.32 29.68 139.52 28.84 141.3C22.84 153.74 18.84 170.96 25.22 183.3C30.54 193.64 43.98 198.92 55.22 201.3L44 207.12C32.9 204 21.8 197.52 16.12 187.8ZM27.96 217.8L55.66 203.6C56.1912 208.504 57.5434 213.284 59.66 217.74C58.5 217.86 27.76 217.82 28 217.82L27.96 217.8ZM69.96 237.46L50.54 248C50.78 247.46 51 245.18 62.3 222.5C65.3606 227.384 69.2448 231.702 73.78 235.26C72.52 236 71.26 236.8 70 237.48L69.96 237.46ZM95.26 326.4C95.08 329.7 89.08 330.64 86.46 331.48C81.084 333.352 75.5164 334.62 69.86 335.26C68.6358 335.448 67.3834 335.296 66.24 334.82C65.08 333.94 67.1 332.68 67.88 331.98C73.3394 327.59 79.183 323.702 85.34 320.36C85.6566 320.162 85.9193 319.888 86.1042 319.564C86.2892 319.238 86.3908 318.874 86.4 318.5C86.4 299.74 86.4 280.974 86.4 262.2L92 256.84C95.38 328.92 95.26 326.2 95.26 326.4ZM81.26 260.28C80.76 255.9 81.7401 267.38 79.26 239.06C83.8234 241.83 88.799 243.856 94 245.06L81.26 260.28ZM118.36 325.72C122.582 328.122 126.385 331.196 129.62 334.82C129.627 334.866 129.627 334.914 129.62 334.96C128.44 335.31 127.196 335.392 125.98 335.2C119.72 334.76 109.98 331.6 104.14 329.5C101.84 328.68 100.32 327.5 100.34 324.86C100.34 318.7 100.34 325.76 103.42 261.16L109.24 266.78C109.24 281.72 109.24 319.72 109.24 319.72C109.22 320.7 109.34 320 118.34 325.72H118.36ZM111.64 263.04C111.26 262.28 112.24 264.02 101.9 246.12C106.905 246.414 111.925 245.886 116.76 244.56C116.52 245.3 112.82 258.76 111.62 263.04H111.64ZM125.4 241.38C129.863 239.268 134.004 236.534 137.7 233.26C138 238 139.24 256 139.24 256C136.14 252.64 142.58 259.44 125.38 241.38H125.4ZM161 234.52C145.5 230.18 146.24 230.22 141.88 229.12C144.706 225.988 147.106 222.498 149.02 218.74C149.5 219.34 150.04 219.92 150.44 220.46C150.84 221 160.48 234 160.98 234.52H161ZM149 214.52C146.267 220.98 142.127 226.75 136.882 231.406C131.637 236.064 125.418 239.492 118.68 241.44C78.96 253.32 39.44 208.4 66.78 172.82C73.9934 163.797 84.2108 157.669 95.5674 155.554C106.924 153.439 118.662 155.479 128.64 161.3C146.18 172 156.98 194.12 148.9 214.54L149 214.52ZM151.36 213.52C153.118 208.696 153.999 203.594 153.96 198.46C153.96 197.94 152.24 197.32 175.28 206.46C166 209.32 151.48 213.48 151.26 213.54L151.36 213.52Z" fill="#0D128A"/>
<path d="M85.26 184.7C85.26 187.62 86.5 193.32 90.48 192.86C93.6 192.5 95 188.86 95.52 185.92C96 188.82 97.52 192.22 100.54 191.92C104.54 191.44 105.74 185.72 105.84 182.54C105.74 179.66 104.56 173.6 100.38 174.42C97.44 175 96.02 178.42 95.54 181.36C95.02 178.38 93.54 174.78 90.32 175.36C86.52 176.1 85.26 181.52 85.26 184.7ZM100.82 177.22C103.14 178.04 103.6 181.68 103.66 183.7C103.72 185.72 102.92 190.4 100 188.82C99.0192 188.22 98.3042 187.269 98 186.16C99.06 187.3 101.5 186.16 101.64 182.62C101.5 178.74 98.34 179.22 97.44 182.38C97.52 180.52 98.18 176.3 100.82 177.22ZM90.82 178.24C93.14 179.04 93.58 182.68 93.64 184.7C93.7 186.72 92.84 191.4 90 189.84C86.2 187.8 86.78 176.84 90.76 178.24H90.82Z" fill="#0D128A"/>
<path d="M90.26 187.58C91.86 187.26 92.58 185.26 92.64 183.58C92.64 182.44 92.1 180.48 90.64 180.84C89.18 181.2 88.3199 183.34 88.3399 184.84C88.2399 186 88.78 187.88 90.26 187.58Z" fill="#0D128A"/>
<path d="M95.5 205.38C90.24 206.18 90 201.08 83.62 195.72C80.9 193.44 76.32 190.86 72.72 192.68C67.24 195.48 70.3999 203.54 72.5999 207.38C74.7337 211.372 77.838 214.764 81.6268 217.242C85.4154 219.72 89.7668 221.206 94.2799 221.56C101.86 221.92 113.18 218.22 115.04 209.68C117.08 200.28 100 204.42 95.5 205.38ZM83.04 214C79.4992 211.936 76.6998 208.808 75.04 205.06C76.2662 204.908 77.5112 205.042 78.6772 205.45C79.843 205.86 80.8982 206.534 81.76 207.42C82.404 208.374 82.8491 209.45 83.0691 210.58C83.2889 211.71 83.2792 212.874 83.04 214Z" fill="#0D128A"/>
<path d="M81.6999 169.64C82.3399 169.74 83.0199 168.86 83.1799 168.34C83.4055 167.608 83.8587 166.967 84.4739 166.51C85.0889 166.053 85.8337 165.804 86.5999 165.8C88.1399 165.8 88.7399 162.98 87.6399 163.02C86.1783 163.121 84.7829 163.668 83.6421 164.587C82.5011 165.506 81.6697 166.753 81.2599 168.16C81.1199 168.66 80.9799 169.52 81.6999 169.64Z" fill="#0D128A"/>
</svg>
