<svg width="400" height="400" viewBox="0 0 400 400" fill="none" xmlns="http://www.w3.org/2000/svg">
<path d="M96.18 59.5399C96.1229 60.4939 95.8252 61.4179 95.3146 62.2257C94.804 63.0336 94.0972 63.699 93.26 64.1599C93.9709 65.3646 94.3067 66.7537 94.2248 68.15C94.1429 69.5464 93.6469 70.8867 92.8 71.9999C91.9713 73.0857 90.8652 73.9281 89.5982 74.4384C88.3311 74.9487 86.95 75.1082 85.6 74.8999C85.24 75.8799 84.38 77.5799 83.4 77.8999C83.2487 77.9788 83.0806 78.02 82.91 78.02C82.7394 78.02 82.5713 77.9788 82.42 77.8999C82.6575 79.3037 83.3198 80.601 84.3176 81.6167C85.3153 82.6323 86.6006 83.3176 88 83.5799C92.58 84.3999 96.86 82.8999 96.86 78.2399C97.9561 78.461 99.0871 78.4414 100.175 78.1825C101.263 77.9235 102.281 77.4313 103.16 76.7399C103.786 76.227 104.304 75.5954 104.685 74.8815C105.066 74.1676 105.302 73.3854 105.38 72.5799C105.58 67.4199 102 63.9999 99.78 63.9999C101.4 61.1399 100.36 58.6599 97.78 56.7799C97.1224 56.3719 96.3866 56.1062 95.62 55.9999C96.0335 57.1327 96.2236 58.3348 96.18 59.5399ZM56.2 61.0199C56.2902 61.0199 56.3767 60.9841 56.4404 60.9203C56.5042 60.8566 56.54 60.7701 56.54 60.6799C56.54 60.5897 56.5042 60.5033 56.4404 60.4395C56.3767 60.3757 56.2902 60.3399 56.2 60.3399L54.98 60.1999C54.6 60.1999 53.98 60.1999 53.62 60.0799C53.3872 57.1445 53.3872 54.1953 53.62 51.2599C53.616 51.1763 53.583 51.0967 53.5267 51.0348C53.4704 50.9729 53.3942 50.9325 53.3113 50.9207C53.2285 50.9088 53.1441 50.9262 53.0726 50.9699C53.0012 51.0136 52.9472 51.0808 52.92 51.1599C52.0504 53.3867 51.6618 55.7723 51.78 58.1599C51.7487 58.9859 51.8226 59.8126 52 60.6199C52.48 61.8799 54.9 61.3199 56.2 61.0199ZM46.92 49.3599C45.96 49.6199 44.66 50.5599 45.14 50.9199C45.8452 51.2436 46.6488 51.2795 47.38 51.0199C48.08 50.8399 49.24 50.1399 49.22 49.7799C49.2 49.4199 47.86 49.0999 46.92 49.3599ZM59.88 50.7599C66.92 52.2199 63.66 49.5399 60.2 49.0999C59.3 48.9799 57.2 49.0999 57.24 49.5999C57.28 50.0999 59.34 50.6399 59.88 50.7599ZM61.46 54.1199C61.404 54.021 61.3289 53.9341 61.2391 53.8644C61.1493 53.7947 61.0465 53.7435 60.9368 53.7137C60.827 53.6839 60.7125 53.6762 60.5998 53.691C60.487 53.7058 60.3784 53.7428 60.28 53.7999C59.78 54.0799 59.8 54.3799 59.92 55.9999C59.9359 56.228 60.0418 56.4404 60.2143 56.5904C60.3869 56.7405 60.6119 56.8158 60.84 56.7999C61.0681 56.784 61.2805 56.6781 61.4306 56.5056C61.5806 56.3331 61.6559 56.108 61.64 55.8799C61.6701 55.2875 61.6094 54.694 61.46 54.1199ZM47.3 55.2199C47.3186 54.9918 47.2458 54.7657 47.0976 54.5913C46.9495 54.4169 46.7381 54.3085 46.51 54.2899C46.2819 54.2713 46.0558 54.3441 45.8814 54.4923C45.707 54.6405 45.5986 54.8518 45.58 55.0799C45.5421 55.5658 45.5421 56.054 45.58 56.5399C45.5959 56.768 45.7018 56.9804 45.8743 57.1304C46.0469 57.2805 46.2719 57.3558 46.5 57.3399C46.7281 57.324 46.9405 57.2181 47.0906 57.0456C47.2406 56.8731 47.3159 56.648 47.3 56.4199C47.34 55.9999 47.28 55.4599 47.3 55.2199ZM54.24 68.2399C54.24 68.8799 56.78 69.0399 58.1 67.7199C59.08 66.7399 59.02 65.2399 58.62 65.1399C58.22 65.0399 58.48 65.1399 57.04 66.3799C56.14 67.1399 54.2 67.7399 54.24 68.2399Z" fill="black"/>
<path d="M389.16 51.6199C388.637 51.4511 388.084 51.3976 387.538 51.4632C386.993 51.5288 386.468 51.7119 386 52C386.382 51.0843 386.513 50.0832 386.38 49.0999C386.02 47.4799 383.66 46.7399 381.72 49.0999C381.6 47.82 381.02 46.9399 380 46.7599C377.46 46.2799 376.36 51.1199 375.8 53.66C374.48 52.68 372.32 51.02 371.24 52.32C370.934 52.6462 370.729 53.0532 370.647 53.4927C370.566 53.9322 370.612 54.3858 370.78 54.7999C371.558 56.1591 372.665 57.3007 374 58.1199C373.62 59 372 61.32 371.16 62.68C370.48 62.4799 369.04 62.0999 368.74 62.68C361.72 72.24 342.74 94.3999 330.92 93.9399C312.66 93.24 289.68 84.3999 287.38 84.7199L284.16 77.66C287.702 75.2345 290.362 71.7256 291.74 67.66C293.983 61.4545 295.002 54.8731 294.74 48.2799C294.755 46.1428 294.655 44.0064 294.44 41.8799C302.88 41.32 308.44 31.3799 301.86 23.1599C301.225 22.1744 300.399 21.3265 299.43 20.6668C298.461 20.0071 297.37 19.5491 296.22 19.3199C294.865 19.2494 293.508 19.4325 292.22 19.8599C284.22 21.8599 284.1 16.7999 278.62 15.4399C276.115 15.0203 273.543 15.2899 271.18 16.2199C263.18 19.0199 264.74 23.4799 261.04 27.1999C259.04 29.1999 250.5 26.3799 247.04 32.0599C243.36 38.2799 243.7 51.4399 249.04 56.5999C250.226 57.6655 251.535 58.5853 252.94 59.34C254.236 60.6646 255.752 61.7541 257.42 62.56C258.98 65.74 260.76 74.8799 261.42 78.3399L260.8 83.5399C256.535 84.2104 252.329 85.2134 248.22 86.5399C241.488 88.719 234.957 91.4759 228.7 94.7799C217.3 100.78 218.7 100.66 218.3 100.02C216.918 98.5154 215.448 97.0929 213.9 95.7599C202.98 86.56 191.14 78.7199 177.16 76.4199L175.52 67.12C179.92 63.52 182.32 56.2599 182.4 51.1199C184.04 51.7999 185.34 50.5999 186.2 49.1199C186.44 48.68 187.94 49.1199 189.1 46.52C189.301 45.9779 189.301 45.382 189.1 44.84C189.501 44.6004 189.845 44.2758 190.107 43.8892C190.37 43.5025 190.544 43.0631 190.618 42.6018C190.693 42.1405 190.665 41.6685 190.538 41.219C190.41 40.7695 190.186 40.3534 189.88 39.9999C190.496 39.6496 191.024 39.1628 191.422 38.5769C191.821 37.991 192.08 37.3216 192.18 36.6199C192.62 33.9999 192.02 31.6399 189.5 30.8199C189.5 30.2399 189.92 29.2799 189.92 29.0799C189.942 28.1486 189.776 27.2224 189.433 26.3565C189.089 25.4906 188.575 24.7028 187.92 24.0399C185.14 21.6599 184.26 21.8599 182.52 22.0399C182.52 20.8399 183.28 20.0399 182.02 18.3999C181.054 17.285 179.767 16.4948 178.336 16.1369C176.904 15.7791 175.397 15.8709 174.02 16.3999L173.52 16.5599C173.207 15.774 172.732 15.063 172.126 14.4736C171.519 13.8842 170.795 13.4297 170 13.1399C167.5 12.1999 165.78 13.4199 163.68 14.5199C160.54 11.7199 154.54 13.2199 151.32 15.1599C149.86 16.0399 149.72 17.5999 149.14 18.3199C147.897 18.2294 146.66 18.5529 145.62 19.2399C144.7 19.8199 143.84 20.6599 143.1 21.2399C142.612 21.6183 142.21 22.0954 141.92 22.6399C141.301 23.6567 140.944 24.8112 140.88 25.9999C140.388 26.1177 139.921 26.3208 139.5 26.5999C137.902 28.0305 136.779 29.9143 136.28 31.9999C136.062 33.1539 136.173 34.346 136.6 35.4399C136.6 35.5599 136.8 35.7999 136.86 35.9199C136.46 36.4999 135.42 36.9599 135.22 38.5199C135.02 40.0799 135.08 43.1399 136.6 44.0599C137.24 44.4399 138.6 44.84 139.08 45.1399C139.004 45.9582 139.004 46.7817 139.08 47.5999C139.6 50.9799 142.94 52.2 146.38 51.7L147.32 52.18C147.685 55.743 148.631 59.2223 150.12 62.4799C151.23 64.6318 152.903 66.4427 154.96 67.72L154 76.2399C149.226 76.9374 144.536 78.1168 140 79.7599C126.26 84.7799 118.24 91.2999 111.14 102.62C101.36 94.52 84.8 82.3799 72 82.5999C72.0822 81.7352 72.0822 80.8647 72 79.9999C72 79.4199 71.68 77.6399 71.14 77.3799C71.14 76.3999 70.98 75.38 70.9 74.44C75.42 81.1199 84.64 77.5799 83.62 73.0199C84.7607 73.0955 85.9028 72.8929 86.9479 72.4296C87.993 71.9662 88.91 71.256 89.62 70.36C90.3093 69.3751 90.679 68.2021 90.679 67C90.679 65.7978 90.3093 64.6248 89.62 63.6399C89.4544 63.3733 89.2525 63.1309 89.02 62.9199C92.14 62.1199 93.22 60.7399 93.62 58.7599C93.9419 57.2452 93.824 55.6699 93.28 54.22C93.6359 54.0442 93.9713 53.8295 94.28 53.58C95.1967 52.7039 95.8187 51.5648 96.06 50.32C96.5376 45.9861 95.5972 41.6142 93.38 37.8599C92.6615 36.6081 91.4859 35.6834 90.1 35.2799C89.8398 34.0893 89.6858 32.8779 89.64 31.6599C89.31 29.7689 88.5312 27.9845 87.3688 26.4568C86.2065 24.929 84.6945 23.7024 82.96 22.8799C81.2794 22.092 79.4553 21.6564 77.6 21.5999C76.8207 21.5353 76.0366 21.6376 75.3 21.8999C74.025 20.3576 72.3507 19.1953 70.46 18.5399C66.7908 17.8584 62.9987 18.481 59.74 20.2999C59.08 20.7399 58.56 21.5999 57.98 22.0199C56.5561 21.4085 55.0123 21.1268 53.4642 21.1961C51.9161 21.2654 50.4036 21.6838 49.04 22.4199C47.5924 23.0542 46.288 23.9748 45.2054 25.1262C44.1227 26.2776 43.2841 27.6361 42.74 29.1199C41.9 31.1199 41.14 34.3999 42.42 36.1199C42.4935 36.2152 42.5604 36.3154 42.62 36.4199C41.86 37.7599 40.12 38.4199 39.54 42.1399C39.3038 44.006 39.3781 45.8982 39.76 47.74C39.8664 48.1936 40.1207 48.599 40.4827 48.8923C40.8448 49.1855 41.2942 49.3501 41.76 49.36C41.14 55.36 41.24 63.36 44.52 68.54C45.3366 69.7516 46.2895 70.8656 47.36 71.86C48.4783 72.9557 49.8536 73.7533 51.36 74.18V77.7399C50.36 78.2999 51.06 81.4799 50.64 83.3999C42.52 82.84 31.16 84.7199 24.86 89.9199C15.14 97.9999 11.18 109.4 10.14 122C8.72001 139.38 18.14 150.14 32.76 152C33.6785 155.043 34.76 158.034 36 160.96C29.8225 172.543 25.3049 184.938 22.58 197.78C20.58 208.66 19.64 225.9 19.46 242.44C19.46 250.32 19.46 279.88 22.1 287.24C22.52 288.4 24.32 289.02 25.5 289.36C28.7814 290.219 32.1249 290.821 35.5 291.16C36.34 308.72 38.84 375.58 38.84 375.68C35.4035 377.519 32.2398 379.828 29.44 382.54C28.9951 382.936 28.6615 383.442 28.4721 384.006C28.2826 384.571 28.244 385.176 28.36 385.76C28.566 386.279 28.9526 386.707 29.4486 386.964C29.9446 387.221 30.5168 387.291 31.06 387.16C34.38 386.86 43.32 384.18 47.36 383.44C47.46 384.3 47.6 385.14 48.44 385.44C49.88 385.94 52.72 386.2 53.76 384.9C54.8 383.6 54.18 380.2 54.32 378.74C54.44 377.66 63.56 314.74 66.68 293.16H69.18C73.02 313.94 83.52 373.36 83.54 373.46C81.4609 375.04 79.4898 376.757 77.64 378.6C76.1 380.16 73.52 382.96 74.54 384.88C75.56 386.8 77.96 385.82 79.98 385.08C83.98 383.68 89.98 380.98 93.04 379.98C93.26 380.8 93.52 381.62 94.38 381.8C95.5734 381.98 96.7907 381.919 97.96 381.62C99.66 381.12 99.96 380.06 99.96 378.3C99.22 369.44 99.2 397.38 99.8 292.76C102.018 292.671 104.215 292.301 106.34 291.66C112 288.88 111.48 207.66 104.12 182.1C103.62 180.34 100.46 171.16 98.22 165.46C98.2903 165.266 98.2903 165.054 98.22 164.86C97.5624 163.204 96.8215 161.581 96 160C96.6 152.64 97.24 138.44 97.84 134.14L102.82 137.56C103.228 139.169 103.805 140.731 104.54 142.22C105.359 144.37 106.675 146.295 108.38 147.84C110.534 149.825 113.098 151.312 115.891 152.197C118.683 153.081 121.636 153.342 124.54 152.96H127.9C131.78 176 130.66 173.58 131.24 174.16C116.5 224.96 111.74 321.32 113.74 370.16C113.74 370.392 113.817 370.617 113.96 370.8C114.98 372.1 121.34 372.8 123.44 373.16C119.495 375.263 115.741 377.706 112.22 380.46C110.44 382.2 112.78 385.46 114.96 386.02C116.16 386.34 132.48 384.02 133.72 383.84C133.88 384.6 134.24 385.34 135 385.48C137.139 385.848 139.31 386.002 141.48 385.94C142.36 385.94 143.48 385.74 143.68 384.9C144.348 381.572 144.736 378.193 144.84 374.8C146.26 374.8 147.68 374.8 148.14 374.4C152.14 370.4 170 268.62 171.46 260.4C171.956 257.642 172.084 254.831 171.84 252.04C168.94 217.74 170.02 231.86 169.56 218.64C169.579 218.561 169.624 218.491 169.687 218.441C169.751 218.391 169.829 218.364 169.91 218.364C169.991 218.364 170.069 218.391 170.133 218.441C170.196 218.491 170.241 218.561 170.26 218.64C171.6 234.36 172.4 234.9 173.48 255.62C173.48 257.04 189.78 368.56 192.72 371.48C194.286 372.128 195.966 372.454 197.66 372.44C197.469 376.746 197.811 381.058 198.68 385.28C198.736 385.438 198.823 385.584 198.936 385.708C199.05 385.831 199.187 385.931 199.34 386C200.8 386.72 206.26 386 207.34 385.86C207.683 385.73 207.984 385.509 208.21 385.219C208.436 384.93 208.578 384.584 208.62 384.22C210.32 384.46 226.2 386.7 227.36 386.4C229.54 385.84 231.9 382.58 230.1 380.82C225.935 377.635 221.505 374.812 216.86 372.38C219.26 372.2 224.3 371.76 226.38 370.54C229.52 368.68 226.52 229.16 201.32 171.94C201.78 171.2 203.54 150.66 203.62 149.74C209.942 149.526 216.067 147.491 221.26 143.88L229.26 141C224.389 159.562 220.734 178.422 218.32 197.46C217.86 201.22 215.54 219.9 218.04 222.7C218.298 222.99 218.654 223.175 219.04 223.22C220.18 223.32 224.74 223.72 229.6 224.02C229.6 281.4 235.24 312.2 244.34 372.62C244.368 372.807 244.462 372.978 244.605 373.103C244.748 373.228 244.931 373.297 245.12 373.3H245.64C246.017 376.086 246.626 378.835 247.46 381.52C248.72 384.06 268.26 384 271.02 383.12C271.502 382.873 271.884 382.468 272.102 381.973C272.321 381.477 272.362 380.922 272.22 380.4C271.42 376.84 264.22 376.06 260.82 373.5H262C262.184 373.505 262.365 373.445 262.511 373.333C262.656 373.22 262.759 373.06 262.8 372.88L278.1 296.3C278.28 297.42 289.04 374.3 289.04 374.3C289.074 374.501 289.18 374.683 289.338 374.812C289.496 374.941 289.696 375.008 289.9 375H291.48C291.761 377.819 292.215 380.617 292.84 383.38C292.871 383.507 292.93 383.625 293.013 383.725C293.096 383.826 293.201 383.906 293.32 383.96C295.32 384.9 312.9 385.96 315.8 384.38C316.327 384.094 316.728 383.622 316.924 383.056C317.12 382.489 317.097 381.87 316.86 381.32C316.358 379.927 315.462 378.711 314.28 377.82C311.86 376.48 307.64 376.18 305.38 375H306.5C306.691 374.989 306.874 374.917 307.021 374.794C307.169 374.672 307.273 374.506 307.32 374.32C307.32 374.32 313.14 352.94 316.56 303.76C318.56 275.08 319.12 245.76 318.9 217.4C321.46 217.6 325.82 217.8 327.98 217.7C328.58 217.7 329.16 217.7 329.42 217.12C331.74 212.5 329.98 166.58 328.68 155C328.56 153.88 325.7 134.86 325.32 132.38C331.98 132.12 341.6 130.7 347.06 126.8C375.06 106.8 380.4 72.6399 382.68 68.0599C382.9 67.5799 382.36 67.34 381.02 66.68C381.789 64.3969 382.705 62.1656 383.76 60C386.54 58.4599 389.76 56.7 389.98 53.52C390.086 53.1573 390.063 52.7689 389.913 52.422C389.763 52.075 389.497 51.7913 389.16 51.6199ZM189.7 31.1999C189.54 31.1999 189.5 31.0799 189.5 30.8799C189.5 30.6799 189.88 31.1999 189.7 31.1999ZM263.32 107.2C273.2 107.82 279.08 107.9 289.12 107.84C289.76 111.72 290.48 115.96 291.26 120.46C285.88 120.46 267.64 120.66 262.9 120.58C263.12 116.18 263.28 111.68 263.32 107.24V107.2ZM260.7 149.06C272.34 149.74 280.98 149.92 296.44 149.6C297.48 155.3 298.56 161.06 299.52 166.12C290.16 166.4 268.56 166.78 258.84 166.5C259.22 163.32 260 155.6 260.7 149.1V149.06ZM258 172.94C273.24 173.82 285.44 173.86 300.94 173.4C301.7 177.24 302.44 180.96 303.16 184.46C285.48 185.14 268.18 185.18 255.88 184.94C256.693 180.98 257.4 176.98 258 172.94ZM295.14 142.4C289.14 142.52 267.14 142.76 261.3 142.68C261.82 136.96 262.22 131.78 262.52 127.08C272.12 127.68 278.64 127.9 292.52 127.74C293 130.38 294.76 140.2 295.14 142.4ZM286.54 88.9999C286.78 92.2799 287.5 97.3599 288 100.62C282.9 100.62 267.3 100.8 263.3 100.74C263.26 96.6344 262.986 92.5344 262.48 88.4599C267.88 95.7199 282.46 94.7199 286.54 88.9999ZM254.54 191.32C271.248 192.328 287.998 192.455 304.72 191.7C305.48 195.22 306.18 198.42 306.84 201.22C303.68 201.04 266.32 199.22 252.72 198.56C253.28 196.28 253.88 193.86 254.48 191.32H254.54ZM258.92 61.82C258.22 60.4199 253.78 59.82 253.36 56.2799C252.88 52.1399 257.7 52 259.36 53.86C259.5 54 260.48 55.32 260.6 55.4799C261.64 56.88 262.6 56.9199 262.92 54.9199C263.38 51.1999 262.24 43.7599 266.58 44.5399C269.681 45.5126 272.87 46.1824 276.1 46.54C282.24 47.1 287.12 46.5399 291.08 42.1399C291.52 42.0399 292.98 41.9799 293.5 41.9399C293.682 44.0548 293.735 46.1787 293.66 48.2999C293.796 54.72 292.682 61.1054 290.38 67.0999C287.2 74.7199 282.8 76.5599 282.8 76.5599C282.698 76.5989 282.605 76.6579 282.526 76.7335C282.447 76.8091 282.383 76.8996 282.34 76.9999C282.16 77.4599 282.1 76.9999 285.86 85.4199C286.66 92.6799 265.16 95.6399 262.38 84.2399L263.06 78.4199C263.14 77.9999 260.76 65.56 258.86 61.82H258.92ZM214.92 97.8199C221.244 104.099 225.602 112.084 227.46 120.8C228.64 126.8 228.14 131.84 226.18 135.3C224.896 137.522 223.292 139.544 221.42 141.3C219.458 143.306 217.064 144.838 214.42 145.78C208.868 147.817 202.91 148.502 197.04 147.78C189.233 146.793 181.525 145.14 174 142.84C174 142.24 173.88 141.6 173.82 140.84L180.72 138.32C182.041 137.952 183.321 137.45 184.54 136.82C185.24 136.46 185.3 135.4 185.38 134.5C185.72 131.22 185.04 131.66 186.04 130.86C188.28 129.1 194.44 127.38 197.12 126.62C198.02 126.38 199.32 126.18 198.92 125.32C198.793 124.091 198.29 122.932 197.48 122C193.26 104.12 193.98 104.18 193.3 104.3C193.254 104.304 193.209 104.319 193.169 104.342C193.129 104.365 193.094 104.397 193.067 104.435C193.041 104.473 193.023 104.517 193.014 104.562C193.006 104.608 193.008 104.655 193.02 104.7C193.92 110.02 195.26 116.9 196.22 121.54L193.74 121.18C193.32 121.18 192.9 121.18 192.8 120.98C192 119.32 192.34 117.36 190.42 116.4C190.22 116.265 189.994 116.174 189.757 116.132C189.519 116.091 189.276 116.099 189.042 116.158C188.808 116.216 188.589 116.323 188.399 116.472C188.21 116.62 188.053 116.807 187.94 117.02C186.9 119.02 188.16 123.5 187.94 123.44C186.875 123.876 185.76 124.179 184.62 124.34C184.574 124.157 184.492 123.985 184.379 123.833C184.265 123.682 184.123 123.555 183.96 123.46C179.902 121.477 175.68 119.851 171.34 118.6C170.4 110.72 169.16 100.8 168.72 97.4799C168.873 97.4086 169.015 97.3141 169.14 97.1999C169.846 95.8079 170.364 94.3283 170.68 92.7999C171.02 93.1799 171.3 93.5399 171.92 93.2999C177.346 89.3568 182.473 85.0183 187.26 80.3199C197.406 84.5076 206.76 90.3991 214.92 97.7399V97.8199ZM189.6 118C191.04 118.82 190.26 121.26 191.88 122.48C193.503 122.956 195.189 123.185 196.88 123.16C197.277 123.819 197.529 124.556 197.62 125.32C196.06 125.8 188.48 127.48 185.32 129.66C185.255 128.15 185.088 126.647 184.82 125.16C186.46 125.02 188.52 125.16 189.12 124.1C189.72 123.04 188.7 117.46 189.6 118ZM185.74 79.9999C182.16 83.0999 174.14 89.7399 171.74 91.4999C170.54 90.16 167.4 86.4399 166.52 85.0799C168.52 83.3599 175.92 78.3599 177 77.7599C179.988 78.1148 182.922 78.8265 185.74 79.8799V79.9999ZM154.24 77.6199L164 85.1399C162.52 86.7199 158.9 89.8599 157.28 91.4999C155 89.8599 148.78 83.2799 145.28 79.6399C148.219 78.7695 151.212 78.0947 154.24 77.6199ZM148.8 51.1399C148.52 50.7399 148.48 50.86 146.44 49.7799C145.1 48.68 143.48 47.7799 142.88 46.1399C142.88 44.7799 143.3 43.0999 144.72 43.1799C145.794 43.4273 146.79 43.9357 147.62 44.6599C148.528 44.9577 149.504 44.9778 150.423 44.7177C151.342 44.4576 152.163 43.9292 152.78 43.1999C153.473 41.9518 153.68 40.4913 153.36 39.0999C154.676 38.9822 155.895 38.3584 156.76 37.3599C157.187 36.4967 157.445 35.56 157.52 34.5999C159.391 35.1315 161.389 34.9827 163.16 34.1799C164.371 33.6583 165.475 32.9195 166.42 31.9999C166.629 32.5261 166.905 33.0235 167.24 33.4799C167.551 33.9555 167.985 34.3384 168.495 34.5883C169.005 34.8382 169.574 34.9459 170.14 34.9C170.846 34.7879 171.525 34.5437 172.14 34.1799V34.9799C172.129 35.5934 172.253 36.2017 172.503 36.7621C172.753 37.3224 173.122 37.8213 173.586 38.2235C174.049 38.6258 174.595 38.9217 175.185 39.0903C175.774 39.259 176.394 39.2964 177 39.1999C176.988 39.333 176.988 39.4669 177 39.5999C177.2 40.6799 176.78 43.9399 178.28 44.3199C179.78 44.6999 178.96 40.9599 181.84 40.4999C182.357 40.3737 182.903 40.4325 183.381 40.6664C183.86 40.9002 184.242 41.2942 184.46 41.7799C185.02 43.5799 184.46 44.3799 183.52 46.16L182.9 46.86C181.94 47.9 180.9 49 180.9 50C180.96 53.0592 180.381 56.0972 179.2 58.9199C178.184 61.7813 176.398 64.3071 174.04 66.22C173.923 66.3102 173.831 66.4299 173.775 66.5669C173.719 66.7039 173.7 66.8533 173.72 67L175.36 76.62L165 83.66C163.18 82.2599 165.6 84.34 155.64 76.6399L156.72 67.3399C156.739 67.1693 156.707 66.997 156.629 66.8442C156.55 66.6914 156.429 66.5648 156.28 66.48C149.1 62.46 149.66 52.52 148.8 51.1399ZM125.6 88.9399C131.072 85.0214 137.154 82.0345 143.6 80.0999C147.261 84.3129 151.154 88.3191 155.26 92.0999C156.14 92.8599 157.26 93.7999 158.04 92.9999C158.32 92.6799 158.74 92.2599 159.22 91.7799C159.719 93.5155 160.307 95.2244 160.98 96.8999C161.06 97.0482 161.168 97.1792 161.298 97.2856C161.429 97.392 161.579 97.4716 161.74 97.5199C161.52 100.1 160.98 107.52 160.36 115.74C154.015 114.378 147.526 113.8 141.04 114.02C141.04 113.5 141.68 107.34 141.7 107.14C141.7 106.06 141.7 104.64 141.82 104.08C141.844 103.992 141.832 103.899 141.787 103.82C141.742 103.741 141.668 103.684 141.58 103.66C141.492 103.636 141.399 103.648 141.32 103.693C141.242 103.738 141.184 103.812 141.16 103.9C139.38 107.52 139.7 110.08 139.94 114.08C135.466 114.301 131.082 115.409 127.04 117.34C126.958 117.382 126.896 117.456 126.868 117.544C126.84 117.632 126.848 117.728 126.89 117.81C126.932 117.892 127.006 117.954 127.094 117.982C127.182 118.01 127.278 118.002 127.36 117.96C141.36 111.12 166.76 117.6 180.26 123.42C181.202 123.806 182.117 124.254 183 124.76C183.616 127.914 183.804 131.136 183.56 134.34C183.56 135.24 183.56 135.46 181.96 136.08C180.82 136.54 179.46 136.86 178.62 137.18C175.88 138.2 173.24 139.18 170.62 140.18C155.83 144.927 140.718 148.603 125.4 151.18C120.42 151.18 113.86 150.26 110.2 146.82C94.36 132 110.92 99.02 125.6 88.9399ZM50.64 72C48.7812 70.928 47.1936 69.4431 46 67.66C42.88 62.82 42.84 54.9 43.36 49.18C46.1542 48.3103 48.6942 46.7726 50.76 44.6999C52.9959 42.4149 54.9499 39.8701 56.58 37.1199L57.7 34.9599C59.7275 40.1461 63.1976 44.6434 67.7 47.9199C69.2654 48.6366 70.959 49.0311 72.68 49.08C72.6408 50.6485 72.8089 52.2154 73.18 53.74C73.2199 53.8207 73.276 53.8924 73.3447 53.9507C73.4134 54.009 73.4933 54.0526 73.5795 54.0788C73.6657 54.1051 73.7563 54.1134 73.8458 54.1032C73.9354 54.0931 74.0219 54.0648 74.1 54.02C74.98 53.54 75.32 50.9599 76.68 49.18C77.04 48.68 77.46 48.2999 77.98 48.4199C78.5285 48.5039 79.0493 48.7164 79.5 49.04C81.5 50.52 79.9 56.4399 76.16 58.2799C75.04 58.84 69.2 65.6399 68.82 67.7799C68.5698 68.9554 68.6319 70.1759 69 71.32C69.12 73.06 69.32 75.3199 69.46 77.3199C65.76 77.3199 56.74 77.3199 53.04 77.4999C53.22 72.5599 53.32 73.08 50.64 72ZM88 291.58H72.9C75.2 263.1 78 193.26 77.4 168.52C80.0667 168.4 82.4667 168.24 84.6 168.04C89.16 191.62 91.7 268.52 88 291.58ZM38 289.76C35.84 265.9 38 188.46 43.72 167.76C44.72 167.9 51.88 168.54 51.88 168.54C48.84 192.98 45.72 263.12 46.8 290.54C43.56 290.3 40.6 290 37.88 289.76H38ZM60.12 167.08L52.6 166.78C52.5826 164.624 52.7364 162.471 53.06 160.34L55.76 160.14L61.6 160C61.3124 162.398 60.8172 164.767 60.12 167.08ZM36.96 160.5L51.44 160.22C51.0345 162.423 50.847 164.66 50.88 166.9C45.4465 166.856 40.0292 166.3 34.7 165.24C36.18 162 36.8 160.9 36.96 160.5ZM53.26 290.9C52.6 265.94 56.66 189.58 59.26 168.64C62 168.64 64.04 168.78 69.72 168.64C69.72 178.12 66.88 279.64 66.22 291.34C62.8 291.34 54.14 290.96 53.26 290.9ZM61.66 167.1C62.1508 164.765 62.3921 162.385 62.38 160C75.52 159.76 88.38 159.44 94.18 160.22C94.9702 161.613 95.6393 163.072 96.18 164.58C84.88 167 72.2 167.1 61.66 167.1ZM24 287C20.54 284.8 19.42 222.72 23.66 197.96C25.8165 186.878 29.3997 176.122 34.32 165.96L36.42 166.4C30.82 186.62 28.58 260.1 31.36 288.82C28.8345 288.556 26.3576 287.943 24 287ZM52.94 377C47.38 377.76 44.38 378.2 42.2 378.68C40.9491 378.797 39.6981 378.456 38.68 377.72C40.32 376.74 40.68 376.88 40.68 375.94C40.86 372.06 36.9 298.94 36.42 291.2C45.54 292.24 56.94 292.8 66.06 293.06C62.96 312.14 54.36 367.22 52.88 377.06L52.94 377ZM97.7 372.88C92.62 374.3 89.44 375.22 87.3 376.02C86.0754 376.31 84.7867 376.139 83.68 375.54C85.12 374.4 85.42 374.48 85.34 373.54C84.98 369.54 70.88 297.2 70.08 293.18C81.4 293.42 92.08 293.3 99.02 292.82C98.56 315.28 97.76 363.72 97.64 372.94L97.7 372.88ZM102.78 182.46C109.46 206.12 110.14 278.46 105.64 290.08C103.96 290.92 96.42 291.24 94.58 291.32C98.58 266.42 96.58 191.32 92 167.06C93.88 166.76 95.56 166.44 97.12 166.1C99.34 172.16 102.26 180.88 102.72 182.52L102.78 182.46ZM88.66 124C87.8 123.22 86.96 122.52 86.24 121.76C86.1843 121.688 86.1025 121.642 86.0124 121.631C85.9224 121.619 85.8316 121.644 85.76 121.7C85.6884 121.756 85.6419 121.838 85.6306 121.928C85.6193 122.018 85.6443 122.108 85.7 122.18C89.12 127.78 93.86 130.48 96.4 132.78C95.76 135.22 95.1 149.84 94.4 158.5C89.12 157.28 61.54 158.72 52.28 158.72C52.069 158.723 51.8677 158.809 51.72 158.96C44.44 159.3 38.7 159.64 37.1 159.74C36.14 157.5 34.94 153.88 34.2 151.58C37.4433 152.162 40.7667 152.135 44 151.5C44.0556 152.716 44.3194 153.913 44.78 155.04C45.78 155.92 79.06 153.54 80.12 153.32C80.84 153.16 80.86 152.16 80.92 151.32C81.1 149.32 81.22 144.92 81.3 139.76C81.6095 139.636 81.8886 139.447 82.1177 139.205C82.3469 138.963 82.5208 138.675 82.6273 138.359C82.7338 138.043 82.7704 137.708 82.7347 137.377C82.6989 137.045 82.5915 136.726 82.42 136.44C82.6539 136.142 82.8245 135.8 82.9213 135.433C83.0181 135.067 83.0391 134.685 82.9829 134.311C82.9267 133.936 82.7946 133.577 82.5946 133.255C82.3946 132.933 82.131 132.656 81.82 132.44C82.0786 132.188 82.2753 131.879 82.3947 131.539C82.5142 131.198 82.5532 130.834 82.5087 130.476C82.4641 130.117 82.3372 129.774 82.138 129.473C81.9387 129.172 81.6724 128.921 81.36 128.74C81.36 121.52 81.36 114.48 81.1 110.54C80.98 107.3 80.88 106.94 80.38 106.54C79.4 105.94 75.18 106.18 73.28 106.26C73.3063 105.412 73.0763 104.575 72.62 103.86C71.7 102.96 67.64 103.86 65.28 103.86C64.76 102.2 64.5 100.96 62.66 100.1C61.7543 99.78 60.7621 99.8074 59.8754 100.177C58.9887 100.546 58.2706 101.232 57.86 102.1C57.86 102.3 57.28 103.94 57.16 104.48C55.0139 104.642 52.8777 104.916 50.76 105.3C50 105.54 49.94 107.14 49.92 108.26C42.3 109.06 41.8 109.06 41.66 109.84C41.52 110.62 42.08 123.34 42.12 124.4C40.25 124.637 38.3988 125.005 36.58 125.5C36.9584 123.016 37.1855 120.511 37.26 118C37.26 116.9 37.36 112.2 36.7 112.18C36.04 112.16 35.64 116.78 35.58 117.7C35.46 119.1 35.28 124.32 35.38 125.88C34.54 126.14 33.74 126.42 32.92 126.74C32.8351 126.772 32.7664 126.836 32.7289 126.919C32.6914 127.001 32.6882 127.095 32.72 127.18C32.7518 127.265 32.8161 127.334 32.8986 127.371C32.9811 127.409 33.0751 127.412 33.16 127.38C44.46 123.48 59.76 125.66 68.14 129.86L68.52 138.28C61.28 143.34 49.76 149.6 40.96 150.72C38.3647 151.02 35.7408 150.966 33.16 150.56C18 148.6 10.18 137.74 11.28 122.14C12.14 110 16 98.2599 25.32 90.4799C31.32 85.4999 42.78 83.7999 50.58 84.4799C52.58 84.64 51.5 80.3199 52.02 78.7599C52.78 78.6399 55.2 78.5999 56.02 78.5799C55.9208 79.9582 55.9208 81.3417 56.02 82.7199C56.02 83.2999 56.44 85.4799 56.96 85.3199C57.48 85.1599 57.68 83.46 57.7 82.9799C57.72 82.4999 57.7 82.4399 57.52 78.5799H64.18C64.0995 79.9121 64.0995 81.2478 64.18 82.5799C64.18 83.16 64.6 85.34 65.12 85.1799C65.64 85.0199 65.84 83.3199 65.86 82.8399C65.88 82.3599 65.86 81.3599 65.68 78.6199H70.56C70.7601 79.2683 70.8678 79.9416 70.88 80.6199C70.88 82.9399 70.48 83.2799 70.88 83.7399C71.96 84.9599 81.76 80.1199 110.42 103.98C105.08 112.98 100.86 124.76 102.42 135.14C97.76 132 98.66 132.98 88.66 124ZM43.56 124.18C43.36 117.48 43.2 111.36 43.2 110.62C44.78 110.38 48.36 110.02 49.94 109.86C49.94 112.8 50.06 113 51.94 113.2C55.52 113.62 71.3 113.2 72.96 111.78C73.1106 111.658 73.2276 111.5 73.3 111.32C73.4268 110.218 73.4536 109.107 73.38 108C75.3318 107.89 77.2882 107.89 79.24 108C79.62 111.56 79.66 124.7 79.66 128.28C78.909 128.287 78.1623 128.394 77.44 128.6C77.72 126.96 78.14 124.3 76.48 123.94C76.0357 123.813 75.5638 123.819 75.1229 123.958C74.6821 124.096 74.2916 124.361 74 124.72C73.1338 126.056 72.6243 127.591 72.52 129.18C71.6043 129.183 70.6892 129.13 69.78 129.02C69.7491 128.912 69.6957 128.811 69.6233 128.725C69.551 128.639 69.4612 128.569 69.36 128.52C61.3051 124.787 52.3888 123.308 43.56 124.24V124.18ZM81.16 135.24C80.38 135.7 79.88 135.38 78.48 135.56C78.2625 135.56 78.054 135.646 77.9002 135.8C77.7464 135.954 77.66 136.162 77.66 136.38C77.66 136.597 77.7464 136.806 77.9002 136.96C78.054 137.114 78.2625 137.2 78.48 137.2C79.1449 137.268 79.8151 137.268 80.48 137.2C80.64 137.2 81.22 137.32 81.22 137.48C81.22 139.3 77.64 138.6 76.06 137.68C74.1026 137.56 72.1386 137.749 70.24 138.24L69.84 130C70.9282 130.291 72.063 130.366 73.18 130.22C73.3347 130.133 73.4496 129.99 73.5 129.82C73.96 128.14 74.34 125.04 76.1 125.48C76.2034 126.739 76.0746 128.007 75.72 129.22C75.52 130.46 76 130.74 76.94 130.66C77.7801 130.283 78.681 130.059 79.6 130C80.12 130 80.64 130 80.8 130.6C80.96 131.2 80.44 131.42 79.94 131.6C79.44 131.78 77.48 132.06 77.28 132.1C77.0823 132.162 76.9137 132.294 76.8053 132.471C76.6969 132.647 76.656 132.857 76.6901 133.062C76.7242 133.266 76.8309 133.451 76.9908 133.583C77.1506 133.715 77.3528 133.785 77.56 133.78C79.98 133.52 79.56 133.4 80.28 133.56C80.5936 133.633 80.8723 133.813 81.069 134.068C81.2657 134.323 81.3685 134.638 81.36 134.96C81.3634 135.03 81.3462 135.099 81.3107 135.16C81.2752 135.22 81.2228 135.269 81.16 135.3V135.24ZM70.14 139.06C71.9038 138.827 73.6808 138.706 75.46 138.7C76.7085 139.488 78.1443 139.93 79.62 139.98C79.62 143.56 79.62 149.98 79.38 151.86C75.02 152.32 49.6 154.8 45.24 154.4C45.0091 153.373 44.8554 152.33 44.78 151.28C55.82 149 69.58 140.18 70.14 139.12V139.06ZM142.14 384.08C139.86 384.228 137.571 384.108 135.32 383.72V382.72C135.297 382.48 135.182 382.258 135 382.1C134.46 381.68 134.88 381.98 120.88 383.76L116.3 384.28C115.86 384.28 115.36 384.5 115.36 384.28C114.28 384 112.7 382.1 113.36 381.4C117.097 378.401 121.04 375.668 125.16 373.22C131.38 373.96 138.82 374.48 143.42 374.62C143.216 377.818 142.795 380.999 142.16 384.14L142.14 384.08ZM209.72 372.56C211.58 372.56 213.44 372.46 215.22 372.36C217.92 374.02 226.84 379.52 229.04 381.78C229.4 382.16 229.04 382.9 228.72 383.32C227.44 385.08 226.46 384.64 226.1 384.6C222.7 384.32 211.44 382.74 208.1 382.26C207.984 382.243 207.866 382.25 207.752 382.281C207.639 382.312 207.533 382.365 207.441 382.438C207.35 382.511 207.274 382.602 207.219 382.706C207.163 382.809 207.13 382.923 207.12 383.04V384.04C204.878 384.446 202.594 384.573 200.32 384.42C199.511 380.525 199.096 376.558 199.08 372.58C199.04 372 198.44 372.82 209.74 372.62L209.72 372.56ZM200 170.8C189.74 170.8 140.94 172.02 132.62 172.96C132.42 169.56 130.1 155.58 129.54 152.22C139.193 150.559 148.752 148.396 158.18 145.74C157.945 147.1 157.884 148.485 158 149.86C160.411 152.771 163.089 155.449 166 157.86C166.151 157.979 166.33 158.055 166.521 158.079C166.711 158.104 166.904 158.077 167.08 158C169.94 155.613 172.392 152.775 174.34 149.6C174.423 147.946 174.309 146.287 174 144.66C179.56 146.66 194.64 149.82 202.2 149.7C201.84 153.84 200.32 168.68 200 170.8ZM221.2 189.26C226.32 154 231.1 142.32 231.2 139.72C234.369 138.342 237.32 136.509 239.96 134.28C240.998 133.359 241.973 132.37 242.88 131.32C243.22 131 242.76 130.5 242.44 130.8C242.12 131.1 241.34 131.52 240.78 131.88C233.98 136.44 232.42 138.1 224.44 140.94C226.183 139.218 227.504 137.117 228.3 134.8C231.8 122.98 226.98 110.8 219.32 101.22C228.454 95.5776 238.17 90.9374 248.3 87.3799C252.295 86.0408 256.387 85.0111 260.54 84.2999C260.69 85.1752 260.966 86.024 261.36 86.8199C264.56 106.48 258.24 163.7 254.48 182.7C252.3 193.74 248.14 209.84 243.36 220.14C243.041 220.903 242.66 221.639 242.22 222.34C239.7 223.18 222.02 221.7 219.28 221.44C217.24 217.74 220.62 193.54 221.24 189.26H221.2ZM305.8 373.26H290.62C290.62 372.66 279.34 292.88 279.02 291.78C280.3 283.56 289.02 239.46 288.72 228.44C288.72 228.35 288.684 228.263 288.62 228.2C288.557 228.136 288.47 228.1 288.38 228.1C288.29 228.1 288.203 228.136 288.14 228.2C288.076 228.263 288.04 228.35 288.04 228.44C288.04 229.6 287.68 231.84 287.2 234.82C279.78 281.14 274.08 307.82 261.32 371.9L245.88 371.74C235.76 307.74 230.8 276.7 230.54 224.1C232.66 224.22 241.46 224.78 243.16 223.92C243.76 223.62 244.38 222.28 244.76 221.5C247.763 214.646 250.237 207.572 252.16 200.34C265.86 201.1 301.06 202.74 307.12 203.06C309.7 215.22 309.88 215.92 310.6 216.18C312.887 216.764 315.224 217.132 317.58 217.28C317.74 257.82 315.62 333.8 305.84 373.16L305.8 373.26ZM381.8 67.98C379.04 74.44 373.16 106.76 346.24 125.64C340.98 129.32 331.4 130.64 325 130.82C324.711 127.674 324.108 124.566 323.2 121.54C322.8 120.3 322.2 118.84 321.84 117.96C321.803 117.887 321.741 117.829 321.666 117.795C321.591 117.762 321.507 117.755 321.428 117.776C321.348 117.797 321.278 117.845 321.23 117.911C321.181 117.977 321.156 118.058 321.16 118.14C322.26 126.9 322.44 123.8 323.64 131.72C323.64 131.72 326.94 154.06 327.06 155.16C328.6 169.16 329.58 210.24 328.02 215.94C322.498 216.069 316.976 215.641 311.54 214.66C309.4 207.52 288.46 103.8 288 86.2799C293.3 87.2399 313.74 94.5999 330.86 95.1399C346.14 95.5999 369.12 63.1399 369.32 63.1399C370.9 62.86 379.62 66.5599 381.82 67.8799L381.8 67.98ZM388.5 53.4C388.34 55.9799 385.34 57.72 383.12 59.08C382.34 59.58 380.58 65.52 380.36 66.36C377.595 65.0686 374.757 63.94 371.86 62.9799C373.86 59.9399 375.6 58.34 374.84 57.6199C373.46 56.36 370.84 54.66 372.2 53.24C372.368 53.2765 372.53 53.3371 372.68 53.4199C374.58 54.32 376.1 56.7599 376.92 55.2599C377.286 53.4974 377.788 51.7656 378.42 50.08C379.48 47.62 380.14 48.0799 379.88 50.4799C379.653 52.1203 379.244 53.7303 378.66 55.2799C378.591 55.4974 378.611 55.7334 378.716 55.9359C378.821 56.1385 379.003 56.291 379.22 56.36C379.437 56.4289 379.673 56.4086 379.876 56.3036C380.079 56.1986 380.231 56.0174 380.3 55.7999C380.799 54.0302 381.547 52.3401 382.52 50.7799C383.5 49.34 384.68 48.9799 384.64 49.9599C384.329 51.7168 383.647 53.3872 382.64 54.86C382.382 55.2192 382.224 55.64 382.18 56.08C382.148 56.2668 382.181 56.459 382.274 56.624C382.368 56.789 382.515 56.9166 382.692 56.985C382.869 57.0533 383.064 57.0583 383.244 56.9991C383.424 56.9398 383.578 56.82 383.68 56.66C384.281 55.8202 384.95 55.0309 385.68 54.2999C386.86 53.1399 388.58 52.34 388.52 53.2999L388.5 53.4Z" fill="black"/>
<path d="M163.26 54.96C164.08 56.82 168.56 55.66 167.68 54.72C167.616 54.6565 167.53 54.6208 167.44 54.6208C167.35 54.6208 167.264 54.6565 167.2 54.72C166.933 54.8057 166.647 54.8057 166.38 54.72C165.834 54.6417 165.302 54.4869 164.8 54.26V46.74C164.781 46.6614 164.736 46.5915 164.673 46.5415C164.609 46.4914 164.531 46.4642 164.45 46.4642C164.369 46.4642 164.291 46.4914 164.227 46.5415C164.164 46.5915 164.119 46.6614 164.1 46.74C163.382 48.9246 163.077 51.2237 163.2 53.52C163.15 54.0003 163.17 54.4855 163.26 54.96ZM157.46 50C157.46 49.46 157.46 48.88 157.34 48.38C157.301 48.1569 157.177 47.9576 156.994 47.8235C156.812 47.6894 156.585 47.6308 156.36 47.66C156.246 47.6769 156.137 47.7165 156.039 47.7762C155.941 47.836 155.856 47.9148 155.789 48.0081C155.722 48.1013 155.674 48.207 155.649 48.3189C155.623 48.4309 155.62 48.5469 155.64 48.66C155.64 49.02 155.64 49.44 155.74 50.12C155.748 50.2329 155.778 50.3432 155.828 50.4445C155.879 50.5458 155.949 50.6362 156.034 50.7105C156.12 50.7848 156.219 50.8415 156.326 50.8775C156.434 50.9134 156.547 50.9279 156.66 50.92C156.773 50.9121 156.883 50.882 156.985 50.8315C157.086 50.781 157.176 50.7111 157.251 50.6257C157.325 50.5402 157.382 50.441 157.418 50.3336C157.453 50.2263 157.468 50.1129 157.46 50ZM170.96 49.86C170.96 50.0881 171.051 50.3068 171.212 50.4681C171.373 50.6294 171.592 50.72 171.82 50.72C172.048 50.72 172.267 50.6294 172.428 50.4681C172.589 50.3068 172.68 50.0881 172.68 49.86V48.96C172.795 48.7976 172.851 48.6013 172.839 48.403C172.828 48.2046 172.75 48.0159 172.618 47.8675C172.486 47.7192 172.307 47.6199 172.112 47.5858C171.916 47.5518 171.714 47.585 171.54 47.68C170.76 48.18 170.96 49.18 170.96 49.86ZM166.92 62.22C166.201 62.6204 165.444 62.9486 164.66 63.2C164.22 63.2 164.12 63.82 164.66 63.88C165.168 64.1352 165.732 64.259 166.3 64.24C166.88 64.1713 167.437 63.9719 167.929 63.6566C168.421 63.3413 168.835 62.9185 169.14 62.42C169.387 61.8894 169.491 61.3031 169.44 60.72C169.459 60.6298 169.441 60.5359 169.39 60.4591C169.339 60.3822 169.26 60.3285 169.17 60.31C169.08 60.2914 168.986 60.3094 168.909 60.3601C168.832 60.4107 168.779 60.4898 168.76 60.58C168.214 61.1978 167.596 61.7483 166.92 62.22ZM278.56 63.58C280.08 64.06 282.56 64.38 283.62 63.18C284.68 61.98 284.1 58.86 283.98 57.54C283.73 54.9479 283.166 52.3958 282.3 49.94C282.281 49.8498 282.228 49.7707 282.151 49.7201C282.074 49.6694 281.98 49.6514 281.89 49.67C281.8 49.6885 281.721 49.7422 281.67 49.8191C281.619 49.8959 281.601 49.9898 281.62 50.08C281.62 50.7 281.9 53.76 281.96 54.54C282.343 57.0876 282.477 59.6664 282.36 62.24C281.912 62.5434 281.397 62.7354 280.86 62.8C278.86 63.14 278.4 62.66 278.3 63.18C278.288 63.2234 278.286 63.2689 278.293 63.3134C278.3 63.3579 278.316 63.4004 278.341 63.4381C278.365 63.4759 278.397 63.508 278.435 63.5325C278.473 63.5569 278.516 63.5731 278.56 63.58ZM275.18 50.4C275.18 49.76 273.34 49.44 272.14 49.7C270.94 49.96 269.3 51.22 269.76 51.7C270.22 52.18 275.1 50.98 275.18 50.4ZM273.86 55.18V56.9C273.86 57.1281 273.951 57.3468 274.112 57.5081C274.273 57.6694 274.492 57.76 274.72 57.76C274.948 57.76 275.167 57.6694 275.328 57.5081C275.489 57.3468 275.58 57.1281 275.58 56.9V55.24C275.585 55.0099 275.501 54.7869 275.344 54.6186C275.187 54.4504 274.97 54.3504 274.74 54.34C274.513 54.3397 274.295 54.4269 274.131 54.5834C273.968 54.7399 273.87 54.9536 273.86 55.18ZM290.92 51.22C291.08 50.98 290.44 49.7 288.92 49.22C287.4 48.74 286.24 49.5 286.24 49.86C286.24 50.22 290.62 51.66 290.92 51.22ZM273 67.86C272.54 68 272.54 70.88 275.28 71.7C276.68 72.1 278.58 71.88 278.62 71.38C278.66 70.88 275.9 70.28 275 69.66C274.1 69.04 273.38 67.74 273 67.86ZM288.18 54C288.067 53.9973 287.955 54.0169 287.849 54.0577C287.744 54.0985 287.648 54.1596 287.566 54.2376C287.484 54.3157 287.419 54.409 287.373 54.5124C287.327 54.6157 287.303 54.727 287.3 54.84V56.54C287.332 56.748 287.437 56.9379 287.596 57.0751C287.756 57.2123 287.96 57.2877 288.17 57.2877C288.38 57.2877 288.584 57.2123 288.744 57.0751C288.903 56.9379 289.008 56.748 289.04 56.54V54.88C289.043 54.7654 289.022 54.6514 288.98 54.5447C288.938 54.4381 288.875 54.3409 288.795 54.2589C288.715 54.1769 288.619 54.1118 288.514 54.0673C288.408 54.0228 288.295 53.9999 288.18 54Z" fill="black"/>
</svg>
