<svg width="400" height="400" viewBox="0 0 400 400" fill="none" xmlns="http://www.w3.org/2000/svg">
<path d="M346.072 124.54L287.672 120.094C301.672 129.882 326.388 154.448 330.574 207.434C330.701 207.48 330.815 207.555 330.907 207.653C330.999 207.752 331.067 207.871 331.104 208C331.459 209.818 331.712 211.654 331.862 213.5C331.861 213.731 331.771 213.952 331.61 214.117C331.449 214.282 331.23 214.379 331 214.386C331.046 215.36 331.084 216.342 331.108 217.34C331.244 217.292 331.389 217.275 331.533 217.291C331.677 217.307 331.815 217.355 331.937 217.432C332.059 217.509 332.162 217.613 332.239 217.735C332.315 217.858 332.363 217.996 332.378 218.14C332.618 220.837 332.743 223.54 332.752 226.248C332.706 234.345 331.665 242.405 329.654 250.248C329.472 251.95 329.266 253.664 329.038 255.41C344.206 248.584 360.786 240.672 375.572 233.344C378.874 231.07 381.684 228.156 383.837 224.774C385.99 221.392 387.441 217.612 388.104 213.658C392.674 185.704 392.492 139.386 346.072 124.54ZM129.768 229.934C133.988 238.302 140.538 244.476 148.844 240.134C153.871 237.257 157.761 232.747 159.868 227.352C152.882 224.8 141.018 222.528 129.768 229.934Z" fill="#FCAFB7"/>
<path d="M377.84 232.2C378.86 231.69 379.756 233.216 378.736 233.726C361.656 242.234 344.413 250.412 327.018 258.256C325.98 258.716 325.108 257.158 326.122 256.726L329.038 255.41C329.266 253.664 329.462 251.95 329.654 250.248C329.323 251.522 328.964 252.789 328.578 254.048C328.238 255.134 326.52 254.672 326.862 253.572C330.364 242.106 331.63 230.074 330.592 218.13C330.568 217.959 330.605 217.786 330.696 217.64C330.787 217.493 330.926 217.384 331.09 217.33C331.068 216.33 331.03 215.346 330.994 214.372C330.632 214.486 330.12 214.074 330.076 213.498C329.935 211.811 329.699 210.134 329.368 208.474C329.324 208.314 329.327 208.145 329.375 207.987C329.424 207.828 329.516 207.687 329.642 207.579C329.767 207.471 329.921 207.4 330.085 207.376C330.249 207.352 330.417 207.375 330.568 207.442C326.386 154.466 301.662 129.89 287.666 120.102L189.82 112.644C210.472 130.486 222.594 160.074 227.966 186.47C235.392 223.014 230.616 268.954 209.276 299.722C207.236 302.64 206.598 303.19 206.35 303.686L323.084 258.672C322.314 270.456 320.942 297.448 324.072 301.372C328.108 306.406 341.808 309.434 358.344 302.772C373.654 296.614 383.42 232.56 384.792 223.1C379.978 231.856 371.498 235.374 377.84 232.2Z" fill="#F76559"/>
<path d="M348.58 285.132C343.042 284.4 337.51 283.692 331.964 282.976C330.57 282.602 329.098 282.637 327.724 283.078C327.234 283.299 326.822 283.664 326.542 284.124C326.263 284.583 326.129 285.117 326.158 285.654L325.784 289.748C325.526 292.648 325.264 294.246 328.222 295.548C334.276 298.135 340.783 299.494 347.366 299.548C347.561 299.546 347.75 299.481 347.906 299.363C348.061 299.244 348.174 299.079 348.228 298.892C350.89 286.864 350.788 287.476 350.744 286.948C350.654 285.756 349.634 285.27 348.58 285.132ZM348.92 287.532C348.784 288.38 349.154 286.406 346.662 297.732C340.928 297.602 335.264 296.451 329.934 294.332C329.028 293.97 327.712 293.63 327.462 292.532C327.35 291.404 327.404 290.265 327.622 289.152C327.992 284.846 327.404 284.122 330.822 284.582C332.272 284.764 346.732 286.624 348.184 286.84C349.252 287 349 287 348.92 287.536V287.532ZM351.358 267.564C349.1 265.876 344.236 265.73 341.696 265.612C338.961 265.489 336.228 265.489 333.496 265.612C328.23 265.836 328.684 266.612 328.19 271.862C328.076 273.042 327.85 274.244 327.85 275.436C327.862 277.836 330.31 278.168 332.17 278.564C336.84 279.404 341.58 279.791 346.324 279.722C348.834 279.752 349.9 279.652 350.816 277.122C351.602 274.91 352.083 272.602 352.244 270.26C352.353 269.772 352.328 269.265 352.172 268.79C352.016 268.315 351.735 267.892 351.358 267.564ZM349.442 275.594C349.242 276.23 349.042 277.364 348.442 277.748C347.616 278.284 337.984 277.768 334.424 277.192C332.871 276.973 331.344 276.601 329.864 276.082C329.408 275.694 329.624 275.238 330.284 268.574C330.628 268.034 330.052 267.726 331.588 267.506C333.556 267.238 344.964 267.042 348.788 268.306C351.466 269.2 350.61 271.758 349.442 275.6V275.594Z" fill="#FCAFB7"/>
<path d="M314.466 70.908C313.751 73.6308 312.202 76.0616 310.036 77.86C311.505 78.857 312.752 80.1466 313.7 81.648C313.56 80.0988 313.509 78.543 313.546 76.988C313.57 76.034 313.478 74.504 314.816 74.492C314.965 74.4934 315.11 74.5364 315.236 74.616H315.348C315.108 74.43 315.218 74.656 314.466 70.908Z" fill="#FDE992"/>
<path d="M356.62 74.572C354.25 73.7159 352.176 72.1959 350.645 70.1933C349.115 68.1908 348.194 65.7903 347.99 63.2782C347.787 60.7662 348.311 58.2487 349.499 56.0262C350.687 53.8037 352.49 51.9701 354.692 50.744C351.606 50.8727 348.526 50.3855 345.63 49.3107C342.735 48.2359 340.082 46.595 337.828 44.484C335.048 42.084 332.462 38.586 333.45 35.058C331.46 38.2233 328.512 40.6708 325.034 42.044C322.091 43.7698 318.698 44.5724 315.294 44.348C313.558 44.0684 311.931 43.3223 310.586 42.1894C309.241 41.0564 308.23 39.5793 307.66 37.916C309.592 45.244 305.684 51.438 300.108 52.536C301.562 53.0966 302.925 53.8682 304.154 54.826C308.154 55.892 310.42 58.868 311.954 62.698C312.55 63.9071 313.209 65.084 313.928 66.224C314.155 65.815 314.535 65.512 314.984 65.3806C315.433 65.2492 315.916 65.3 316.328 65.522C316.328 64.322 316.402 62.482 317.586 62.402C318.524 62.33 319.42 63.582 319.932 64.364C320.64 62.764 321.696 62.626 322.484 63.298C323.955 65.1489 324.77 67.4359 324.8 69.8C325.72 72.158 325.61 72.056 325.742 71.922C325.839 71.8257 325.956 71.7529 326.085 71.7091C326.214 71.6653 326.352 71.6516 326.487 71.6692C326.622 71.6868 326.751 71.7351 326.865 71.8105C326.978 71.8858 327.073 71.9863 327.142 72.104C329.651 78.7096 331.117 85.6656 331.486 92.722C335.446 90.3131 340.065 89.2137 344.686 89.58C345.58 89.5525 346.468 89.7413 347.274 90.1302C348.079 90.5191 348.779 91.0967 349.314 91.814C348.351 90.2538 347.775 88.4855 347.635 86.6571C347.496 84.8287 347.796 82.9935 348.512 81.3051C349.227 79.6167 350.337 78.1243 351.747 76.9529C353.158 75.7814 354.829 74.965 356.62 74.572Z" fill="#FDE992"/>
<path d="M322.836 111.464C320.98 112.853 319.01 114.084 316.948 115.144C323.462 119.544 326.644 129.198 327.418 137.056C327.671 139.892 327.717 142.742 327.554 145.584C328.662 149.853 330.549 153.88 333.12 157.464C336.12 161.15 339.882 161.264 340.708 156.41C342.143 147.999 341.235 139.356 338.082 131.428C334.93 123.5 329.655 116.592 322.836 111.464Z" fill="#86F2AA"/>
<path d="M325.262 134.186C324.154 127.576 320.918 119.342 315.032 116.074C306.786 119.696 297.635 120.733 288.788 119.048C288.542 120.075 288.502 121.14 288.67 122.182C289.396 125.844 292.616 127.456 295.94 128.214C302.7 129.746 307.38 129.296 310.774 135.984C310.846 135.542 310.951 135.106 311.09 134.68C311.156 134.455 311.306 134.265 311.509 134.148C311.713 134.032 311.953 133.999 312.18 134.056C312.407 134.118 312.6 134.267 312.717 134.471C312.834 134.675 312.865 134.917 312.804 135.144C312.476 136.086 312.363 137.09 312.474 138.082C312.899 137.467 313.411 136.917 313.994 136.448C314.165 136.29 314.39 136.202 314.623 136.202C314.856 136.202 315.081 136.29 315.252 136.448C315.419 136.615 315.513 136.842 315.513 137.078C315.513 137.314 315.419 137.541 315.252 137.708C314.019 138.703 313.144 140.072 312.758 141.608C314.978 151.208 312.656 160.866 315.208 164.7C315.663 165.385 316.339 165.893 317.123 166.141C317.907 166.388 318.752 166.36 319.518 166.06C323.518 164.738 324.118 159.838 324.688 155.86C325.981 148.707 326.175 141.398 325.262 134.186Z" fill="#86F2AA"/>
<path d="M318.706 102.47C316.346 98.5146 314.94 94.0635 314.6 89.4699C314.424 88.2239 313.7 82.7959 313.7 81.6559C312.752 80.155 311.505 78.8655 310.036 77.8679C310.036 77.8679 309.512 78.2959 309.384 78.3899C309.75 80.3629 309.4 82.4016 308.398 84.1399C306.398 87.0039 300.844 87.3979 299.096 84.0939C299.15 89.39 298.299 94.6563 296.58 99.6659C295.196 104.304 293.846 110.248 288.89 112.346C287.472 112.935 285.903 113.058 284.41 112.696C284.306 112.896 284.422 112.63 283.038 117.574C290.172 119.935 297.791 120.439 305.174 119.039C312.557 117.639 319.463 114.382 325.238 109.574C325.238 109.574 324.954 108.574 324.438 106.91C322.039 106.199 319.994 104.615 318.706 102.47Z" fill="#FEE253"/>
<path d="M329.016 86.508C328.494 82.2266 327.473 78.0208 325.976 73.976C322.759 75.8465 319.049 76.6947 315.338 76.408C315.265 79.3257 315.428 82.2445 315.826 85.136C316.542 91.292 317.362 98.426 321.11 102.68C321.689 103.473 322.444 104.121 323.317 104.572C324.189 105.023 325.154 105.266 326.136 105.28C328.482 105.052 329.118 102.784 329.492 100.8C330.099 96.0412 329.938 91.2158 329.016 86.508ZM289.86 109.696C291.554 108.102 292.778 106.074 293.398 103.832C294.219 101.407 294.961 98.9554 295.622 96.482C297.193 91.5779 297.648 86.3846 296.954 81.282C293.29 81.282 288.354 80.528 286.01 77.71C282.964 81.7763 280.888 86.4858 279.942 91.478C278.926 96.078 277.942 101.974 279.58 106.13C281.362 110.654 286.2 112.762 289.86 109.696Z" fill="#FEE253"/>
<path d="M318.934 169.61C318.366 169.464 317.773 169.443 317.196 169.546C316.618 169.65 316.07 169.876 315.588 170.21C315.214 170.395 314.906 170.689 314.703 171.053C314.501 171.418 314.414 171.835 314.454 172.25C314.748 173.524 315.734 173.62 329.254 182.402C331.038 183.822 332.894 182.648 331.432 180.666C328.13 175.962 323.552 171 318.934 169.61ZM351.29 173.908C347.942 169.256 343.396 164.292 338.79 162.85C338.222 162.708 337.63 162.689 337.054 162.792C336.477 162.895 335.929 163.12 335.446 163.45C335.073 163.636 334.764 163.93 334.562 164.295C334.36 164.66 334.272 165.077 334.312 165.492C334.604 166.756 335.476 166.784 349.112 175.642C350.892 177.058 352.736 175.918 351.29 173.908ZM313.524 165.358C315.7 169.064 320.418 168.812 323.21 165.698C325.81 162.828 326.222 158.144 326.918 152.53C327.645 147.405 327.813 142.217 327.418 137.056C326.664 129.234 323.46 119.534 316.948 115.144C316.254 115.506 316.122 115.586 315.032 116.074C320.904 119.334 324.154 127.538 325.262 134.186C326.329 143.535 325.674 153.001 323.328 162.114C321.492 166.714 317 167.41 315.208 164.7C312.622 160.82 315.008 151.208 312.758 141.608C313.134 140.067 314.011 138.695 315.252 137.708C315.419 137.541 315.513 137.314 315.513 137.078C315.513 136.842 315.419 136.615 315.252 136.448C315.081 136.29 314.856 136.202 314.623 136.202C314.39 136.202 314.165 136.29 313.994 136.448C313.417 136.923 312.906 137.472 312.474 138.082C312.358 137.09 312.471 136.085 312.804 135.144C312.865 134.917 312.834 134.675 312.717 134.471C312.6 134.267 312.407 134.118 312.18 134.056C311.18 133.822 310.93 134.954 310.78 135.984C307.352 129.304 302.66 129.736 295.946 128.214C289.636 126.772 287.878 122.878 288.778 119.278C288.794 119.202 288.799 119.125 288.794 119.048C288.65 119.016 287.116 118.662 287.07 118.802C286.596 120.707 286.786 122.717 287.61 124.499C288.434 126.28 289.841 127.727 291.6 128.6C294.822 130.254 298.542 130.346 301.99 131.2C306.152 132.24 308.324 133.982 310.132 138.922C313.728 148.884 310.6 160.41 313.524 165.358ZM319.4 73.97C319.91 74.082 320.12 73.75 320.284 73.336C320.34 72.5065 320.228 71.6743 319.955 70.8889C319.683 70.1034 319.255 69.3808 318.698 68.764C318.56 68.679 318.406 68.624 318.245 68.6026C318.085 68.5813 317.921 68.594 317.766 68.6401C317.611 68.6862 317.467 68.7645 317.344 68.8699C317.221 68.9753 317.121 69.1055 317.052 69.252C316.607 70.3426 316.38 71.51 316.384 72.688C316.384 72.8654 316.454 73.0355 316.58 73.1611C316.705 73.2866 316.875 73.3575 317.052 73.358C317.228 73.3534 317.396 73.2814 317.521 73.1567C317.645 73.032 317.717 72.8643 317.722 72.688C317.772 70.868 317.968 69.926 318.142 70.034C318.286 70.2078 318.401 70.4036 318.482 70.614C319.32 72.29 318.51 73.774 319.4 73.97ZM308.976 66.134C304.394 69.4 301.13 67.096 298.826 67.438C294.094 68.152 296.416 76.286 304.564 75.716C305.414 75.66 305.426 74.316 304.564 74.39C303.615 74.5184 302.65 74.4541 301.726 74.2008C300.802 73.9476 299.939 73.5106 299.188 72.916C298.144 71.974 296.66 69.412 298.768 68.81C299.777 68.6889 300.8 68.7858 301.768 69.094C303.136 69.3294 304.536 69.2915 305.889 68.9826C307.242 68.6736 308.52 68.0997 309.65 67.294C310.336 66.8 309.678 65.634 308.976 66.134ZM296.728 65.884C296.854 65.9126 296.985 65.9048 297.107 65.8614C297.228 65.818 297.335 65.7408 297.414 65.639C297.493 65.5372 297.541 65.4149 297.553 65.2864C297.566 65.158 297.541 65.0288 297.482 64.914C297.206 64.198 298.008 63.208 298.712 64.342C299.026 64.848 299.3 65.272 299.688 65C300.626 64.32 299.622 62.878 298.45 62.72C296.132 62.332 295.482 65.516 296.728 65.884ZM306 63.366C306.128 63.4893 306.299 63.5582 306.477 63.5582C306.655 63.5582 306.826 63.4893 306.954 63.366C307.342 62.934 306.954 62.33 307.204 62.084C307.562 61.966 307.822 62.434 307.962 62.946C308.008 63.116 308.12 63.2606 308.274 63.348C308.427 63.4354 308.608 63.4584 308.778 63.412C308.948 63.3656 309.093 63.2535 309.18 63.1005C309.267 62.9475 309.29 62.766 309.244 62.596C308.61 60.298 306.4 60.24 305.864 61.768C305.775 62.0293 305.741 62.3062 305.765 62.5812C305.788 62.8562 305.868 63.1234 306 63.366ZM295.116 58.874C294.445 59.2374 293.881 59.7698 293.479 60.4185C293.078 61.0671 292.852 61.8095 292.826 62.572C292.8 63.372 294.176 63.638 294.176 62.346C294.241 61.8599 294.42 61.3959 294.698 60.9918C294.976 60.5877 295.345 60.2548 295.776 60.02C295.851 59.9767 295.917 59.9189 295.97 59.8501C296.023 59.7813 296.062 59.7027 296.085 59.6188C296.107 59.535 296.113 59.4475 296.102 59.3614C296.09 59.2753 296.062 59.1922 296.019 59.117C295.976 59.0418 295.918 58.9758 295.849 58.9228C295.78 58.8699 295.702 58.831 295.618 58.8085C295.534 58.7859 295.447 58.7801 295.36 58.7913C295.274 58.8026 295.191 58.8307 295.116 58.874Z" fill="#1D1D1B"/>
<path d="M331.478 92.74C331.104 85.6841 329.639 78.7289 327.134 72.122C326.894 71.564 326.086 71.588 325.646 72.008C322.892 73.9754 319.526 74.8972 316.154 74.608C316.265 74.5347 316.351 74.4297 316.402 74.3067C316.453 74.1836 316.465 74.0482 316.438 73.918C316.077 72.1367 315.713 70.356 315.348 68.576C315.27 68.19 314.748 66.794 315.348 66.658C316.016 66.512 316.472 67.458 316.72 67.906C316.803 68.0418 316.932 68.1434 317.084 68.1923C317.235 68.2411 317.399 68.2341 317.546 68.1724C317.693 68.1108 317.813 67.9985 317.884 67.8561C317.955 67.7136 317.973 67.5504 317.934 67.396C317.597 66.2764 317.554 65.0891 317.808 63.948C318.736 64.7224 319.392 65.7737 319.68 66.948C319.735 67.1083 319.849 67.2417 319.999 67.321C320.149 67.4002 320.323 67.4193 320.486 67.3745C320.65 67.3296 320.79 67.2241 320.878 67.0794C320.967 66.9348 320.997 66.7619 320.962 66.596C320.881 66.1903 320.888 65.7721 320.982 65.3693C321.076 64.9665 321.255 64.5883 321.506 64.26C322.735 65.7245 323.452 67.5504 323.548 69.46C323.63 70.312 324.948 70.292 324.876 69.46C324.718 67.2145 323.887 65.0688 322.492 63.302C322.319 63.1485 322.111 63.0389 321.886 62.9825C321.661 62.9261 321.426 62.9244 321.201 62.9778C320.976 63.0311 320.766 63.1378 320.591 63.2889C320.415 63.44 320.278 63.631 320.192 63.846C320.099 64.0156 320.015 64.1898 319.94 64.368C319.424 63.568 318.54 62.332 317.594 62.406C316.594 62.484 316.46 63.766 316.37 64.538C316.336 64.8655 316.324 65.1949 316.336 65.524C315.924 65.3022 315.441 65.2517 314.992 65.3834C314.542 65.5152 314.163 65.8186 313.936 66.228C313.216 65.0875 312.558 63.9099 311.962 62.7C310.408 58.876 308.128 55.85 304.162 54.83C302.934 53.8691 301.57 53.0966 300.114 52.538C296.631 51.2101 292.804 51.0785 289.238 52.164C286.945 52.855 284.835 54.0482 283.062 55.6569C281.288 57.2656 279.895 59.2494 278.984 61.464C277.824 65.232 279.646 70.228 276.602 73.18C275.926 73.768 275.188 74.281 274.402 74.71C272.632 75.834 270.922 77.806 271.568 79.802C272.192 81.754 274.88 82.876 274.698 84.918C274.498 87.08 269.988 89.192 268.698 93.004C267.904 94.9935 267.673 97.163 268.029 99.2751C268.386 101.387 269.316 103.361 270.718 104.98C272.379 106.619 274.57 107.612 276.898 107.78C277.884 107.78 278.11 107.552 278.066 107.008C280.266 112.154 285.182 113.92 288.866 112.35C293.822 110.252 295.17 104.308 296.556 99.67C298.274 94.66 299.125 89.394 299.074 84.098C300.816 87.4 306.372 87.01 308.374 84.144C309.376 82.4054 309.725 80.3669 309.36 78.394C311.854 76.5506 313.648 73.9157 314.45 70.92C315.164 74.454 315.11 74.46 315.346 74.618H315.234C315.109 74.5371 314.963 74.4934 314.814 74.492C313.476 74.516 313.568 76.036 313.544 76.988C313.518 78.694 313.594 80.57 313.692 81.65C314.48 88.832 314.978 97.146 318.692 102.472C319.896 104.392 321.674 105.884 323.774 106.736C324.816 107.13 325.955 107.186 327.031 106.894C328.106 106.603 329.062 105.98 329.762 105.114C331.864 102.3 331.77 96.252 331.478 92.74ZM289.548 71.272C289.567 71.252 289.582 71.229 289.594 71.204C289.774 71.004 290.04 70.704 290.308 70.704C290.488 70.75 290.508 71.374 290.534 71.566C290.57 72.0495 290.528 72.5357 290.41 73.006C290.375 73.1719 290.405 73.3448 290.494 73.4894C290.582 73.6341 290.722 73.7396 290.886 73.7845C291.049 73.8293 291.223 73.8102 291.373 73.731C291.523 73.6517 291.637 73.5183 291.692 73.358C292.416 71.316 293.584 71.134 293.506 70.874C294.077 71.9689 294.191 73.2451 293.824 74.424C293.789 74.5899 293.819 74.7628 293.908 74.9074C293.996 75.0521 294.136 75.1576 294.3 75.2025C294.463 75.2473 294.637 75.2282 294.787 75.149C294.937 75.0697 295.051 74.9363 295.106 74.776C295.23 74.334 295.718 73.404 296.306 73.754C296.818 74.05 296.944 75.002 297.056 75.512C297.361 76.9719 297.396 78.4756 297.158 79.948C294.18 79.948 289.452 79.38 287.406 77.226C287.68 76.95 288.07 73 289.548 71.272ZM295.622 96.472C294.957 98.9444 294.215 101.396 293.398 103.822C292.768 106.06 291.546 108.086 289.86 109.686C286.396 112.59 281.506 110.938 279.602 106.112C278.78 103.775 278.507 101.28 278.802 98.82C279.402 91.604 281.538 83.404 286.038 77.692C288.322 80.462 293.514 81.342 296.982 81.264C297.666 86.3747 297.202 91.5737 295.622 96.482V96.472ZM302.5 84.966C301.925 84.9594 301.369 84.7614 300.919 84.4031C300.469 84.0449 300.151 83.5469 300.016 82.988C299.771 82.2572 299.648 81.4909 299.652 80.72C302.558 81.2007 305.541 80.6683 308.102 79.212C308.46 83.682 306 85.55 302.5 84.976V84.966ZM313.228 70.332C312.869 71.8825 312.203 73.3451 311.267 74.6325C310.332 75.92 309.147 77.006 307.783 77.826C306.419 78.646 304.904 79.1831 303.328 79.4054C301.752 79.6277 300.148 79.5307 298.61 79.12C298.836 76.52 298.316 71.886 295.74 72.384C295.192 72.468 295.378 72.796 295.288 71.93C295.263 71.485 295.141 71.0509 294.929 70.6588C294.717 70.2667 294.421 69.9263 294.062 69.662C293.246 69.262 292.35 70.116 291.828 70.648C291.81 70.6642 291.795 70.6839 291.784 70.706C291.52 69.768 290.968 69.216 290.012 69.424C288.84 60.036 298.378 53.434 305.256 56.642C305.132 56.5936 304.996 56.5818 304.865 56.608C304.735 56.6342 304.614 56.6974 304.518 56.79C304.118 57.19 304.238 57.538 304.984 57.936C305.03 57.96 306.092 58.992 306.208 59.058C306.322 59.1226 306.453 59.1522 306.583 59.1431C306.714 59.134 306.839 59.0866 306.943 59.0069C307.048 58.9272 307.126 58.8186 307.169 58.6946C307.211 58.5707 307.217 58.4369 307.184 58.31C307.076 58.0111 306.907 57.7385 306.686 57.51C308.49 58.9687 309.859 60.8947 310.644 63.078C311.788 65.924 313.83 67.294 313.228 70.342V70.332ZM329.492 100.8C329.118 102.784 328.492 105.052 326.136 105.28C325.154 105.268 324.188 105.026 323.315 104.575C322.443 104.123 321.688 103.475 321.11 102.68C318.655 99.4528 317.137 95.6115 316.722 91.578C315.766 86.5787 315.302 81.4977 315.338 76.408C315.338 76.19 321.658 76.978 325.976 73.976C327.473 78.0209 328.493 82.2267 329.016 86.508C329.937 91.216 330.098 96.0411 329.492 100.8Z" fill="#1D1D1B"/>
<path d="M336.426 342.564C327.166 347.438 317.848 353.384 312.372 362.354C320.23 361.888 328.108 358.554 336.29 355.526C338.69 354.644 341.69 353.644 342.812 351.354C345.954 344.952 336.628 342.712 336.426 342.564ZM295.314 328.2C294.037 328.102 292.755 328.334 291.594 328.875C290.432 329.415 289.429 330.244 288.68 331.284C288.78 331.406 288.843 331.554 288.862 331.711C288.881 331.868 288.856 332.027 288.788 332.169C288.72 332.312 288.614 332.433 288.48 332.517C288.347 332.601 288.192 332.646 288.034 332.646C288.568 343.014 289.95 353.52 295.644 362.212C297.756 356.223 298.945 349.948 299.172 343.602C299.585 340.335 299.821 337.048 299.876 333.756C299.985 332.419 299.57 331.092 298.719 330.055C297.867 329.019 296.647 328.353 295.314 328.2Z" fill="#F76559"/>
<path d="M338.462 341.306C338.386 341.013 338.238 340.744 338.032 340.522C337.282 338.182 337.174 311.48 337.17 311.274C336.31 267.578 336.478 291.16 336.478 257.244C336.478 257.008 336.384 256.782 336.217 256.615C336.05 256.448 335.824 256.354 335.588 256.354C335.352 256.354 335.126 256.448 334.959 256.615C334.792 256.782 334.698 257.008 334.698 257.244C334.698 268.97 334.608 280.696 334.856 292.412C334.982 298.212 335.91 332.9 335.924 335.77C335.842 337.403 335.948 339.039 336.24 340.648C325.858 346.088 315.63 352.55 310.04 362.848C309.965 362.984 309.926 363.137 309.927 363.292C309.929 363.447 309.97 363.599 310.047 363.734C310.125 363.868 310.236 363.98 310.37 364.059C310.503 364.138 310.655 364.181 310.81 364.184C318.352 364.128 325.464 361.418 332.438 358.842C335.653 357.856 338.77 356.577 341.75 355.02C347.224 351.4 345.736 343.548 338.462 341.306ZM342.812 351.354C341.688 353.646 338.648 354.66 336.29 355.526C328.148 358.544 320.158 361.892 312.372 362.354C317.836 353.4 327.15 347.44 336.426 342.564C336.626 342.714 345.942 344.972 342.812 351.354ZM287.258 330.27C287.061 330.212 286.851 330.226 286.663 330.309C286.476 330.392 286.325 330.539 286.236 330.724C274.592 329.324 271.3 323.058 273.264 312.158C275.994 297.086 286.35 284.432 298.428 274.914C299.324 274.21 298.066 272.952 297.17 273.654C288.838 279.968 281.895 287.928 276.77 297.04C272.37 305.218 268.042 319.186 273.504 326.46C276.504 330.46 281.454 331.926 286.252 332.492C286.804 343.836 288.414 355.362 295.074 364.508C295.428 364.986 296.3 365.178 296.606 364.508C300.276 356.562 300.622 347.328 301.482 337.414C301.692 335.769 301.704 334.106 301.518 332.458C300.566 326 292.498 323.84 287.258 330.27ZM299.626 338.424C298.874 347.1 298.526 355.12 295.644 362.224C289.952 353.538 288.556 342.98 288.034 332.658C288.191 332.656 288.344 332.61 288.476 332.525C288.608 332.44 288.714 332.32 288.781 332.178C288.848 332.036 288.874 331.878 288.857 331.723C288.839 331.567 288.778 331.419 288.68 331.296C291.904 327.32 296.446 327.446 298.594 329.912C300.412 332 299.866 335.644 299.626 338.424Z" fill="#1D1D1B"/>
<path d="M92.654 242.126C90.5777 244.262 87.8816 245.689 84.9483 246.206C82.0149 246.723 78.9933 246.303 76.312 245.006C79.7546 261.307 86.3584 276.775 95.75 290.536C100.455 287.623 105.162 284.704 109.87 281.78C101.574 269.826 95.7227 256.35 92.654 242.126Z" fill="#FEE253"/>
<path d="M222.296 171.118C210.496 131.84 185.13 96.212 144.154 97.878C109.306 99.306 87.354 126.36 77.832 159.63C79.3875 160.935 80.9145 162.273 82.412 163.644C83.252 164.416 81.994 165.674 81.154 164.904C79.8892 163.748 78.6077 162.609 77.31 161.49C73.8412 174.754 72.009 188.393 71.854 202.102C72.2707 202.153 72.6602 202.336 72.966 202.624C73.766 203.582 72.536 204.7 71.832 204.7C71.8039 217.45 73.134 230.167 75.8 242.636C78.372 244.325 81.486 244.983 84.5214 244.478C87.5568 243.974 90.2906 242.344 92.178 239.914C86.804 215.334 87.478 188.47 92.824 167.852C100.266 139.306 117.086 114.526 146.694 114.4C174.2 114.488 192 137.888 202.12 163.35C215.92 198.15 215.898 236.058 206.044 264.968C215.484 265.792 221.954 256.72 219.788 247.728C219.731 247.502 219.766 247.263 219.883 247.063C220.001 246.862 220.193 246.716 220.417 246.655C220.642 246.594 220.881 246.624 221.084 246.738C221.287 246.852 221.437 247.041 221.502 247.264C223.948 257.402 216.552 267.978 205.454 266.68C199.654 283.28 190.352 299.208 173.97 305.784C151.476 314.826 125.856 302.818 110.936 283.184L96.782 291.962C122.256 326.436 168.382 337.562 198.422 309.61C222.732 286.988 239.968 229.948 222.296 171.118Z" fill="#FEE253"/>
<path d="M126.53 184.4C129.79 182.956 131.646 178.012 131.93 174.4C132.022 173.254 130.24 173.266 130.15 174.4C130 176.352 129.428 178.248 128.472 179.956C125.706 184.9 121.96 183.372 122.46 178.936C122.792 176.745 123.397 174.603 124.26 172.562C124.32 172.335 124.288 172.094 124.171 171.89C124.054 171.687 123.862 171.537 123.636 171.474C123.409 171.417 123.169 171.45 122.966 171.567C122.763 171.683 122.613 171.873 122.548 172.098C121.767 174.026 121.186 176.028 120.812 178.074C119.926 183.222 123.264 185.846 126.53 184.4ZM174.186 179.568C174.078 181.884 173.606 184.169 172.786 186.338C172.174 187.972 171.222 190.432 169.17 190.538C167.17 190.664 167.07 188.044 167.082 186.648C167.099 184.232 167.442 181.828 168.102 179.504C168.15 179.282 168.111 179.05 167.994 178.856C167.876 178.662 167.689 178.52 167.47 178.459C167.252 178.398 167.018 178.423 166.817 178.529C166.616 178.635 166.464 178.813 166.39 179.028C165.556 182.006 164.436 188.446 166.334 190.97C166.925 191.687 167.764 192.156 168.685 192.282C169.606 192.408 170.54 192.182 171.302 191.65C174.354 189.724 175.784 183.206 175.952 179.548C176.012 178.434 174.236 178.434 174.186 179.568ZM377.84 232.2C367.084 237.542 345.102 248.128 326.122 256.726C325.102 257.198 326 258.708 327.018 258.256C344.416 250.418 361.658 242.239 378.736 233.726C379.768 233.24 378.862 231.696 377.84 232.2ZM330.076 213.49C330.081 213.723 330.175 213.945 330.34 214.11C330.505 214.275 330.727 214.369 330.96 214.374H330.994C331.224 214.365 331.443 214.268 331.604 214.103C331.765 213.939 331.858 213.719 331.862 213.488C331.706 211.643 331.452 209.807 331.102 207.988C331.029 207.766 330.876 207.578 330.673 207.463C330.469 207.347 330.23 207.312 330.002 207.364C329.779 207.431 329.589 207.581 329.473 207.784C329.357 207.986 329.323 208.225 329.378 208.452C329.708 210.116 329.942 211.798 330.076 213.49ZM328.578 254.046C332.16 242.439 333.451 230.246 332.378 218.146C332.288 217.026 330.498 216.996 330.614 218.146C331.647 230.09 330.381 242.121 326.884 253.588C326.532 254.67 328.242 255.134 328.578 254.046Z" fill="#1D1D1B"/>
<path d="M217.788 153.37C206.272 126.102 186.176 101.352 156.948 96.834C123.548 91.67 90.29 110.856 76.334 158.406C70.888 153.896 66.812 150.884 43.682 133.228C42.776 132.536 41.882 134.078 42.786 134.76C64.4 151.278 69.156 154.76 75.824 160.276C72.1497 173.768 70.2246 187.677 70.096 201.66C69.858 201.592 50.85 196.398 45.566 194.958C45.3441 194.91 45.1123 194.949 44.918 195.066C44.7237 195.184 44.5816 195.371 44.5208 195.59C44.46 195.808 44.4851 196.042 44.5909 196.243C44.6967 196.444 44.8752 196.596 45.09 196.67C49.58 197.894 69.586 203.35 70.062 203.486C70.0404 210.894 70.4458 218.297 71.276 225.658C71.1653 225.761 71.0897 225.896 71.06 226.044C69.404 232.76 68.634 239.676 74.202 243.76C77.5967 260.793 84.3767 276.972 94.14 291.336C94.316 291.566 95.862 290.386 72.762 304.764C71.786 305.364 72.682 306.908 73.658 306.294L95.286 292.894C124.122 332.014 177.014 340.548 206.462 303.47C230.32 273.516 242.26 211.328 217.788 153.37ZM71.912 230.738C72.242 232.978 72.634 235.994 73.59 240.776C71.424 238.044 71.422 234.188 71.912 230.738ZM76.312 245.006C78.9945 246.298 82.0148 246.714 84.9468 246.198C87.8789 245.681 90.5747 244.257 92.654 242.126C95.7208 256.35 101.572 269.827 109.87 281.78C105.165 284.695 100.458 287.613 95.75 290.536C86.348 276.778 79.7434 261.306 76.312 245V245.006ZM195.644 204.36C194.444 204.452 194.668 205.076 195.02 203.622C195.348 202.318 195.654 200.8 194.158 200.118C192.842 199.518 191.696 200.594 190.79 201.446C190.64 201.67 191.14 200.13 190.494 199.154C190.269 198.822 189.951 198.565 189.58 198.413C189.208 198.262 188.801 198.224 188.408 198.304C187.5 198.504 186.922 199.334 186.366 200.016C184.311 202.515 182.818 205.427 181.989 208.554C181.161 211.682 181.017 214.952 181.566 218.14C181.766 219.262 183.47 218.786 183.278 217.662C182.78 214.563 182.988 211.392 183.889 208.385C184.789 205.379 186.358 202.615 188.478 200.3C189.278 199.484 189.022 200.936 188.976 201.4C188.817 202.702 188.505 203.981 188.046 205.21C187.994 205.416 188.018 205.634 188.113 205.825C188.208 206.015 188.368 206.165 188.564 206.247C188.76 206.33 188.979 206.339 189.182 206.274C189.384 206.209 189.557 206.073 189.668 205.892C190.336 204.55 191.266 203.354 192.402 202.376C192.56 202.24 193.15 201.616 193.388 201.706C193.888 201.886 193.172 203.692 193.06 204.076C192.725 205.24 192.312 206.381 191.824 207.49C191.37 208.512 192.754 209.384 193.354 208.386C193.688 207.744 194.12 207.159 194.636 206.652C195.146 206.208 196.134 205.756 196.654 206.436C197.218 207.164 196.454 208.808 195.622 210.96C192.01 220.334 187.518 228.412 190.178 244.52C191.746 254.022 194.706 264.084 203.698 266.32C199.698 277.702 193.346 290.144 184.01 297.804C162.114 315.77 130.898 305.822 112.912 282.9C112.742 282.686 112.594 282.47 112.424 282.254C113.224 281.766 122.494 276.018 126.34 273.624C127.314 273.024 126.418 271.48 125.444 272.092C120.748 275.005 116.049 277.916 111.346 280.824C102.686 268.992 97.23 254.552 94.052 240.36C99.774 232.332 103.652 215.682 93.574 189.018C93.1626 188.231 92.9485 187.356 92.95 186.468C93.11 185.504 94.164 185.582 94.81 185.99C95.4925 186.52 96.044 187.199 96.422 187.976C97.022 188.976 98.406 188.1 97.952 187.08C97.68 186.456 95.662 181.512 96.388 181.28C96.66 181.2 97.204 181.802 97.374 181.95C98.511 182.928 99.4406 184.123 100.108 185.466C100.56 186.35 102.07 185.738 101.73 184.784C101.273 183.555 100.961 182.276 100.8 180.974C100.742 180.52 100.492 179.046 101.298 179.874C103.422 182.186 104.993 184.95 105.894 187.958C106.795 190.966 107.001 194.139 106.498 197.238C106.298 198.36 108.018 198.838 108.21 197.714C108.732 194.661 108.618 191.533 107.877 188.526C107.135 185.518 105.781 182.696 103.9 180.236C102.948 178.99 101.5 176.948 99.738 178.236C98.796 178.94 98.91 180.036 99.036 181.082C98.128 180.222 96.948 179.082 95.61 179.7C93.928 180.468 94.47 182.33 94.998 184.146C94.6385 183.992 94.2502 183.916 93.8591 183.924C93.468 183.932 93.083 184.023 92.7298 184.191C92.3767 184.359 92.0635 184.601 91.811 184.9C91.5586 185.198 91.3728 185.548 91.266 185.924C94.496 158 107.356 125.492 134.2 117.916C145.202 114.773 156.991 115.983 167.124 121.296C180 128.118 189.382 140.8 195.904 153.812C213.47 188.832 215.34 231.492 204.262 264.716C201.61 264.07 199.258 262.538 197.594 260.374C193.994 255.786 192.066 246.786 191.448 241.002C190.475 233.477 191.493 225.829 194.4 218.82C197.34 211.038 198.378 209.22 198.562 207.524C198.629 207.115 198.602 206.695 198.483 206.298C198.363 205.901 198.155 205.536 197.874 205.231C197.593 204.926 197.246 204.689 196.86 204.538C196.473 204.387 196.057 204.326 195.644 204.36ZM92.37 190.784C93.948 194.89 105.158 217.868 93.538 237.896C90.1498 221.084 89.3546 203.853 91.18 186.8C91.348 188.186 91.7504 189.533 92.37 190.784ZM229.19 230.57C226.672 269.398 210.968 313.552 173.494 323.498C148.624 330.098 117.294 319.838 96.804 291.992L110.958 283.216C133.618 312.942 173.558 319.16 194.294 289.18C199.012 282.223 202.773 274.662 205.476 266.702C216.288 268.016 224.036 257.702 221.524 247.286C221.274 246.192 219.544 246.642 219.812 247.75C221.99 256.802 215.464 265.81 206.066 264.99C214.064 239.527 215.152 212.396 209.218 186.374C202.672 157.416 186.354 122.728 157.418 115.694C145.93 112.959 133.832 114.681 123.564 120.514C111.9 127.3 103.784 139.04 98.416 151.544C86.846 178.56 86.198 212.476 92.2 239.944C90.3119 242.373 87.5784 244.001 84.5437 244.505C81.5091 245.009 78.3959 244.352 75.824 242.664C73.1567 230.196 71.8258 217.478 71.854 204.728H71.946C72.83 204.502 73.726 203.528 72.988 202.652C72.6851 202.36 72.2941 202.176 71.876 202.13C72.0315 188.421 73.8637 174.782 77.332 161.518C78.636 162.63 79.9174 163.768 81.176 164.932C82.016 165.704 83.274 164.456 82.436 163.674C80.9354 162.306 79.4077 160.968 77.854 159.66C84.2 137.444 96.668 116.07 117.2 105.102C125.213 100.91 134.028 98.4734 143.056 97.953C152.084 97.4326 161.12 98.8408 169.562 102.084C212.568 119 232.25 183.4 229.2 230.57H229.19Z" fill="#1D1D1B"/>
<path d="M164.784 199.528C133.64 199.834 123.06 193.178 123.06 193.178C120.384 208.578 125.308 238.3 140.116 242.852C146.354 244.768 152.614 240.778 156.538 236.182C167.236 223.718 164.818 199.328 164.784 199.528ZM148.844 240.142C140.558 244.504 134.012 238.28 129.768 229.942C141.03 222.542 152.882 224.816 159.868 227.368C157.751 232.755 153.863 237.26 148.844 240.142ZM31.2 149.016C32.152 149.65 33.048 148.108 32.096 147.484L21.42 140.374C20.468 139.738 19.572 141.28 20.524 141.904C24.0853 144.275 27.644 146.645 31.2 149.016ZM39.2 153.54C49.1028 159.5 58.6644 166.008 67.84 173.036C68.746 173.728 69.64 172.184 68.736 171.504C59.5635 164.471 50.0023 157.959 40.098 152C39.124 151.4 38.226 152.952 39.2 153.54ZM49.92 208.454C51.054 208.554 51.054 206.776 49.92 206.674L10.85 203.304C9.71601 203.202 9.71601 204.984 10.85 205.086C21 205.958 47.03 208.2 49.92 208.454ZM83.274 284.122C84.296 283.612 83.4 282.082 82.378 282.59C81.078 283.238 43.892 301.618 42.578 301.916C42.4604 301.746 42.2872 301.622 42.0882 301.565C41.8891 301.509 41.6766 301.524 41.4872 301.607C41.2978 301.69 41.1434 301.837 41.0505 302.022C40.9575 302.207 40.9319 302.418 40.978 302.62C41.0651 302.85 41.2008 303.059 41.3758 303.233C41.5508 303.406 41.7611 303.54 41.9923 303.625C42.2236 303.71 42.4704 303.744 42.716 303.725C42.9617 303.707 43.2004 303.635 43.416 303.516C45.4 302.786 82.214 284.652 83.274 284.122ZM102.056 326.46C89.834 341.878 90.256 341.778 88.844 342.892C87.948 343.594 89.206 344.854 90.102 344.152C91.198 343.29 90.274 344.266 103.314 327.716C104.018 326.822 102.768 325.562 102.056 326.46Z" fill="#1D1D1B"/>
<path d="M302.5 84.9759C301.925 84.9694 301.369 84.7713 300.919 84.4131C300.469 84.0548 300.151 83.5569 300.016 82.9979C299.771 82.2671 299.648 81.5008 299.652 80.7299C302.558 81.2107 305.541 80.6783 308.102 79.2219C308.46 83.6819 306 85.5499 302.5 84.9759Z" fill="#FEE253"/>
</svg>
