<svg width="400" height="400" viewBox="0 0 400 400" fill="none" xmlns="http://www.w3.org/2000/svg">
<path d="M100.124 358.452C113.816 354.816 129.484 347.428 153.256 352.092C211.028 363.432 188.816 329.784 225.876 340.224" stroke="#020064" stroke-width="4" stroke-linecap="round" stroke-linejoin="round"/>
<path d="M225.836 340.224C213.036 340.224 197.34 384.78 152.272 366.18C139.42 360.876 119.344 368.384 101.944 369.632" stroke="#020064" stroke-width="4" stroke-linecap="round" stroke-linejoin="round"/>
<path d="M298.456 352.092C240.684 363.432 262.896 329.784 225.836 340.224C238.636 340.224 254.332 384.78 299.4 366.18C320.8 357.356 362.176 384 377.968 358.276C378.892 356.768 380 354.824 380 354.824C355.968 371.688 339.24 344.088 298.456 352.092Z" stroke="#020064" stroke-width="4" stroke-linecap="round" stroke-linejoin="round"/>
<path d="M94.656 350.424C105.416 343.788 110.22 333.032 137.292 338.824C139.412 339.235 141.596 339.16 143.683 338.606C145.77 338.052 147.704 337.032 149.34 335.624C150.994 334.246 152.328 332.522 153.246 330.574C154.164 328.626 154.645 326.501 154.656 324.348C154.666 322.264 154.263 320.199 153.473 318.271C152.682 316.342 151.518 314.59 150.048 313.112C148.578 311.635 146.832 310.462 144.907 309.662C142.983 308.862 140.92 308.449 138.836 308.448H131.084C129.964 308.448 128.852 308.413 127.748 308.344" stroke="#020064" stroke-width="4" stroke-linecap="round" stroke-linejoin="round"/>
<path d="M154.732 233.432V149.032C154.873 130.264 162.427 112.312 175.748 99.0904C189.07 85.8688 207.077 78.4492 225.846 78.4492C244.615 78.4492 262.622 85.8688 275.944 99.0904C289.265 112.312 296.819 130.264 296.96 149.032V249.432C296.96 252.538 297.572 255.612 298.76 258.482C299.948 261.351 301.69 263.958 303.886 266.154C306.082 268.35 308.689 270.092 311.558 271.28C314.427 272.468 317.502 273.08 320.608 273.08C324.994 273.075 329.199 271.33 332.3 268.228C335.402 265.127 337.147 260.922 337.152 256.536C337.146 254.492 336.728 252.469 335.922 250.59C335.117 248.711 333.941 247.014 332.464 245.6C319.024 232.772 324.564 209.476 329.472 191.54L335.928 167.2C354.116 167.2 354.436 198.904 352.752 205.052C352.028 207.686 352.031 210.467 352.762 213.099C353.492 215.731 354.922 218.116 356.9 220C361.83 224.726 365.756 230.398 368.442 236.676C371.128 242.955 372.519 249.711 372.532 256.54C372.512 270.305 367.035 283.5 357.302 293.234C347.568 302.967 334.373 308.444 320.608 308.464H312.856C310.772 308.465 308.709 308.878 306.785 309.678C304.86 310.478 303.114 311.651 301.644 313.128C300.174 314.606 299.01 316.358 298.219 318.287C297.429 320.215 297.026 322.28 297.036 324.364C297.047 326.518 297.528 328.642 298.446 330.59C299.364 332.538 300.698 334.262 302.352 335.64C303.988 337.048 305.922 338.068 308.009 338.622C310.096 339.176 312.28 339.251 314.4 338.84C354.556 330.236 345.72 358.064 380 354.84" stroke="#020064" stroke-width="4" stroke-linecap="round" stroke-linejoin="round"/>
<path d="M118.704 246.116C116.039 248.934 114.55 252.662 114.54 256.54C114.546 260.856 116.235 264.998 119.249 268.087C122.262 271.176 126.362 272.968 130.676 273.08" stroke="#020064" stroke-width="4" stroke-linecap="round" stroke-linejoin="round"/>
<path d="M106.424 170.96C107.653 169.745 109.112 168.787 110.716 168.142C112.32 167.497 114.036 167.178 115.764 167.204L122.22 191.532C125.82 204.696 129.764 220.752 126.292 233.432" stroke="#020064" stroke-width="4" stroke-linecap="round" stroke-linejoin="round"/>
<path d="M225.848 150.836C233.799 150.836 240.244 144.391 240.244 136.44C240.244 128.489 233.799 122.044 225.848 122.044C217.897 122.044 211.452 128.489 211.452 136.44C211.452 144.391 217.897 150.836 225.848 150.836Z" stroke="#020064" stroke-width="4" stroke-linecap="round" stroke-linejoin="round"/>
<path d="M225.848 216.28C232.663 216.426 239.3 214.102 244.535 209.736C249.77 205.37 253.248 199.258 254.328 192.528C254.383 192.124 254.339 191.714 254.2 191.331C254.06 190.948 253.83 190.605 253.528 190.332C253.213 190.05 252.838 189.842 252.432 189.724C252.025 189.605 251.598 189.579 251.18 189.648C234.408 192.332 217.316 192.332 200.544 189.648C200.127 189.579 199.7 189.605 199.294 189.724C198.888 189.842 198.515 190.05 198.2 190.332C197.898 190.606 197.668 190.948 197.528 191.331C197.389 191.714 197.345 192.124 197.4 192.528C198.479 199.252 201.953 205.36 207.181 209.725C212.409 214.09 219.039 216.418 225.848 216.28Z" stroke="#020064" stroke-width="4" stroke-linecap="round" stroke-linejoin="round"/>
<path d="M339.316 221.66C342.184 221.66 344.508 218.397 344.508 214.372C344.508 210.347 342.184 207.084 339.316 207.084C336.448 207.084 334.124 210.347 334.124 214.372C334.124 218.397 336.448 221.66 339.316 221.66Z" stroke="#020064" stroke-width="4" stroke-linecap="round" stroke-linejoin="round"/>
<path d="M354.947 254.303C357.702 253.508 359.03 249.728 357.913 245.861C356.796 241.994 353.658 239.504 350.903 240.3C348.148 241.095 346.82 244.875 347.937 248.742C349.054 252.609 352.192 255.099 354.947 254.303Z" stroke="#020064" stroke-width="4" stroke-linecap="round" stroke-linejoin="round"/>
<path d="M345.412 286.431C348.336 283.665 349.108 279.734 347.138 277.651C345.167 275.568 341.199 276.122 338.275 278.888C335.351 281.654 334.578 285.585 336.549 287.668C338.52 289.751 342.488 289.197 345.412 286.431Z" stroke="#020064" stroke-width="4" stroke-linecap="round" stroke-linejoin="round"/>
<path d="M56.0319 249.448C47.4687 250.382 39.552 254.446 33.8007 260.859C28.0493 267.272 24.8683 275.582 24.8679 284.196V312C24.8688 315.942 26.4096 319.727 29.1617 322.548C31.9139 325.37 35.6596 327.005 39.5999 327.104V356.704C37.8619 356.216 36.0155 356.28 34.3149 356.885C32.6142 357.49 31.1428 358.607 30.1032 360.082C29.0636 361.558 28.5069 363.32 28.5097 365.125C28.5124 366.93 29.0745 368.69 30.1186 370.162C31.1626 371.635 32.6374 372.748 34.3399 373.347C36.0424 373.947 37.8889 374.005 39.6254 373.512C41.3619 373.019 42.9031 372 44.0367 370.596C45.1703 369.191 45.8407 367.47 45.9559 365.668H46.0719C46.1687 367.154 46.6439 368.591 47.4527 369.842C48.2619 371.093 49.3775 372.116 50.6931 372.813C52.0091 373.511 53.4819 373.86 54.9711 373.828C56.4603 373.796 57.9163 373.382 59.2007 372.628C60.4851 371.874 61.5551 370.804 62.3091 369.519C63.0631 368.235 63.4755 366.778 63.5075 365.289C63.5395 363.8 63.1899 362.328 62.4919 361.012C61.7939 359.696 60.7707 358.581 59.5199 357.772V336.048C59.5199 334.146 60.2755 332.322 61.6207 330.977C62.9655 329.632 64.7899 328.876 66.6919 328.876C68.5939 328.876 70.4183 329.632 71.7631 330.977C73.1083 332.322 73.8639 334.146 73.8639 336.048V356.956C72.3779 357.527 71.0759 358.493 70.0987 359.75C69.1219 361.006 68.5067 362.506 68.3203 364.087C68.1335 365.668 68.3823 367.27 69.0399 368.72C69.6975 370.17 70.7391 371.412 72.0515 372.313C73.3639 373.214 74.8975 373.74 76.4867 373.832C78.0759 373.925 79.6603 373.582 81.0687 372.84C82.4771 372.098 83.6559 370.985 84.4775 369.622C85.2995 368.258 85.7331 366.696 85.7319 365.104C85.7283 366.827 86.2335 368.512 87.1839 369.949C88.1343 371.385 89.4879 372.509 91.0747 373.18C92.6615 373.85 94.4107 374.038 96.1035 373.718C97.7959 373.398 99.3567 372.586 100.59 371.383C101.822 370.18 102.673 368.64 103.034 366.955C103.395 365.271 103.25 363.517 102.619 361.914C101.987 360.312 100.896 358.932 99.4835 357.946C98.0703 356.961 96.3979 356.415 94.6759 356.376V284.192C94.6339 287.55 95.2587 290.883 96.5147 293.997C97.7703 297.112 99.6319 299.946 101.992 302.336C104.352 304.725 107.162 306.622 110.26 307.917C113.359 309.212 116.684 309.878 120.042 309.878C123.4 309.878 126.725 309.212 129.824 307.917C132.922 306.622 135.732 304.725 138.092 302.336C140.452 299.946 142.314 297.112 143.569 293.997C144.825 290.883 145.45 287.55 145.408 284.192V264.152C148.323 259.88 150.909 255.392 153.144 250.728C153.463 250.778 153.785 250.81 154.108 250.824C155.709 250.831 157.282 250.395 158.651 249.566C160.02 248.736 161.134 247.544 161.87 246.122C162.605 244.699 162.934 243.101 162.818 241.504C162.704 239.907 162.15 238.372 161.218 237.07C160.287 235.767 159.014 234.747 157.54 234.122C156.065 233.497 154.447 233.291 152.863 233.527C151.279 233.763 149.791 234.432 148.564 235.46C147.336 236.488 146.415 237.834 145.904 239.352C143.66 244.796 137.284 246.476 134.56 239.04C133.995 237.561 133.036 236.265 131.788 235.292C130.539 234.318 129.048 233.705 127.476 233.517C125.904 233.33 124.311 233.576 122.869 234.228C121.426 234.88 120.19 235.915 119.293 237.219C118.396 238.524 117.872 240.048 117.779 241.629C117.686 243.209 118.027 244.785 118.764 246.186C119.502 247.587 120.608 248.759 121.964 249.577C123.32 250.394 124.873 250.826 126.456 250.824L130.696 264.152V284.192C130.642 286.982 129.496 289.639 127.504 291.593C125.512 293.547 122.832 294.642 120.042 294.642C117.252 294.642 114.572 293.547 112.58 291.593C110.588 289.639 109.442 286.982 109.388 284.192C109.387 275.578 106.206 267.267 100.453 260.855C94.7011 254.443 86.7835 250.381 78.2199 249.448" stroke="#020064" stroke-width="4" stroke-linecap="round" stroke-linejoin="round"/>
<path d="M74.736 233.952C73.7356 234.953 72.548 235.746 71.2408 236.288C69.934 236.83 68.5328 237.108 67.118 237.108C65.7032 237.108 64.302 236.83 62.9952 236.288C61.688 235.746 60.5004 234.953 59.5 233.952" stroke="#020064" stroke-width="4" stroke-linecap="round" stroke-linejoin="round"/>
<path d="M39.5801 338.808V277.672" stroke="#020064" stroke-width="4" stroke-linecap="round" stroke-linejoin="round"/>
<path d="M114.236 199.072C114.236 223.4 74.904 255.072 67.116 255.072C59.328 255.072 20 223.4 20 199.072C20 174.744 41.096 158.124 67.116 158.124C93.136 158.124 114.236 174.748 114.236 199.072Z" stroke="#020064" stroke-width="4" stroke-linecap="round" stroke-linejoin="round"/>
<path d="M97.0473 208.477C100.746 201.411 99.2037 193.307 93.6021 190.374C88.0005 187.442 80.4613 190.792 76.7625 197.858C73.0641 204.923 74.6065 213.028 80.2077 215.96C85.8093 218.893 93.3485 215.542 97.0473 208.477Z" stroke="#020064" stroke-width="4" stroke-linecap="round" stroke-linejoin="round"/>
<path d="M54.0232 215.96C59.6244 213.028 61.1668 204.923 57.468 197.858C53.7696 190.792 46.23 187.442 40.6288 190.374C35.0273 193.306 33.4849 201.411 37.1836 208.477C40.8824 215.542 48.4216 218.892 54.0232 215.96Z" stroke="#020064" stroke-width="4" stroke-linecap="round" stroke-linejoin="round"/>
<path d="M64.7999 72.94C64.0087 72.94 63.2355 73.1744 62.5775 73.614C61.9199 74.0536 61.4071 74.6784 61.1043 75.4092C60.8015 76.14 60.7223 76.9444 60.8767 77.7204C61.0311 78.4964 61.4119 79.2088 61.9715 79.7684C62.5307 80.3276 63.2435 80.7088 64.0195 80.8632C64.7955 81.0176 65.5999 80.9384 66.3307 80.6356C67.0615 80.3328 67.6863 79.82 68.1259 79.1624C68.5651 78.5044 68.7999 77.7312 68.7999 76.94C68.7999 75.8792 68.3783 74.8616 67.6283 74.1116C66.8783 73.3612 65.8607 72.94 64.7999 72.94Z" stroke="#020064" stroke-width="4"/>
<path d="M108.4 72.94C107.609 72.94 106.836 73.1744 106.178 73.614C105.52 74.0536 105.007 74.6784 104.704 75.4092C104.402 76.14 104.322 76.9444 104.477 77.7204C104.631 78.4964 105.012 79.2088 105.572 79.7684C106.131 80.3276 106.844 80.7088 107.62 80.8632C108.396 81.0176 109.2 80.9384 109.931 80.6356C110.662 80.3328 111.286 79.82 111.726 79.1624C112.166 78.5044 112.4 77.7312 112.4 76.94C112.4 75.8792 111.978 74.8616 111.228 74.1116C110.478 73.3612 109.461 72.94 108.4 72.94Z" stroke="#020064" stroke-width="4"/>
<path d="M145.896 85.444C145.896 90.184 132.784 93.14 131.612 97.512C130.412 102.036 140.248 111.144 137.956 115.112C135.664 119.08 122.804 115.136 119.556 118.396C116.308 121.656 120.284 134.488 116.268 136.796C112.252 139.104 103.2 129.24 98.6681 130.452C94.2961 131.62 91.3401 144.732 86.6001 144.732C81.8601 144.732 78.9041 131.62 74.5321 130.452C70.0081 129.252 60.9001 139.084 56.9321 136.792C52.9641 134.5 56.9081 121.64 53.6481 118.392C50.3881 115.144 37.5601 119.12 35.2481 115.104C32.9361 111.088 42.8001 102.036 41.5921 97.504C40.4201 93.132 27.3081 90.176 27.3081 85.436C27.3081 80.696 40.4001 77.748 41.6001 73.376C42.8001 68.852 32.9641 59.744 35.2561 55.776C37.5481 51.808 50.4081 55.752 53.6561 52.492C56.9041 49.232 52.9281 36.404 56.9441 34.092C60.9601 31.78 70.0121 41.644 74.5441 40.436C78.9161 39.264 81.8721 26.152 86.6121 26.152C91.3521 26.152 94.3081 39.264 98.6801 40.436C103.204 41.636 112.312 31.8 116.28 34.092C120.248 36.384 116.304 49.244 119.564 52.492C122.824 55.74 135.652 51.764 137.964 55.78C140.276 59.796 130.412 68.848 131.624 73.38C132.8 77.748 145.896 80.704 145.896 85.444Z" stroke="#020064" stroke-width="4" stroke-linecap="round" stroke-linejoin="round"/>
<path d="M86.6 106.604C89.9392 106.676 93.1916 105.538 95.7568 103.399C98.322 101.26 100.026 98.2656 100.556 94.968C100.582 94.7704 100.559 94.5692 100.489 94.3824C100.419 94.1956 100.305 94.0284 100.156 93.896C100.002 93.7572 99.8192 93.6548 99.6204 93.596C99.422 93.5372 99.2128 93.5232 99.008 93.556C90.7936 94.8712 82.4224 94.8712 74.208 93.556C74.0036 93.5232 73.794 93.5372 73.5956 93.596C73.3968 93.6548 73.214 93.7572 73.06 93.896C72.9092 94.0272 72.794 94.194 72.724 94.3812C72.654 94.5684 72.632 94.77 72.66 94.968C73.1884 98.2632 74.8904 101.256 77.4524 103.395C80.0144 105.533 83.2636 106.673 86.6 106.604Z" stroke="#020064" stroke-width="4" stroke-linecap="round" stroke-linejoin="round"/>
<path d="M225.848 171.148C245.017 171.148 260.556 155.609 260.556 136.44C260.556 117.271 245.017 101.732 225.848 101.732C206.679 101.732 191.14 117.271 191.14 136.44C191.14 155.609 206.679 171.148 225.848 171.148Z" stroke="#020064" stroke-width="4" stroke-linecap="round" stroke-linejoin="round"/>
</svg>
