<svg width="400" height="400" viewBox="0 0 400 400" fill="none" xmlns="http://www.w3.org/2000/svg">
<path d="M263.72 293.52C264.944 295.892 265.563 298.531 265.52 301.2C265.76 306.58 267.82 320.12 267.82 321.66C267.82 331.16 168.06 334.36 152.42 320.52C140 309.6 155.36 294.8 155.36 294.8L263.72 293.52Z" fill="#D3FFCF"/>
<path d="M289.12 373.76C287.795 370.857 286.764 367.828 286.04 364.72C284.992 361.041 283.641 357.456 282 354C280.243 349.547 278.137 345.24 275.7 341.12C273.56 337.9 274.8 335.46 274.02 328.4C273.24 321.34 272.02 321.06 268.82 318.92C265.62 316.78 261 320.44 257.02 321.36C253.94 322.08 247.6 322.96 243.38 323.48C242.2 308.1 243.86 318.74 241.26 299.28C246.64 298.54 252.44 297.58 252.46 297.58C254.8 297.06 258.72 295.84 260.46 295.58C263.04 295.1 264.12 295.58 265.12 294.46C265.46 294.1 265.88 293.8 265.58 293.24C265.28 292.68 265.28 291.82 264.3 291.88C262.302 292.259 260.242 292.142 258.3 291.54C256.855 290.855 255.279 290.487 253.68 290.46C251.68 290.98 244.3 297 236.48 297.36C225.6 297.86 228.48 295.02 224.22 297.56C222.62 298.52 222 298.82 217.26 298.58C214.615 298.427 212.047 297.63 209.78 296.26C207.78 295.28 198.54 298.12 198.5 298.12C190.78 299.12 191.16 297.96 186.76 295.78C185.42 295.12 184.86 295.62 183.04 296.38C182.58 296.56 185.64 297.82 189.04 299.2C192.16 300.44 195.58 301.84 197.04 301.2H198.54L196.54 313.34L197.5 324.38V324.56C194.761 324.827 192 324.753 189.28 324.34C183 323.28 174.56 322.04 165.52 319.9C156.48 317.76 145.16 321.44 144.08 322.96C143 324.48 136.08 343.5 135.04 346.26C134 349.02 134.58 352.26 134.58 355.44C134.58 358.62 132.38 362 132 364.56C131.62 367.12 131.7 372.38 130.46 375.3C129.22 378.22 126.94 385.88 128.02 386.02C154.82 389.24 149.3 380.34 169.22 386.32C189.14 392.3 212.12 382.8 217.94 385.7C223.76 388.6 260.08 385.86 263.44 386.78C266.8 387.7 295.78 388.46 295.78 387.4C295.78 386.34 290.18 376.36 289.12 373.76ZM215.58 326.58C212.5 326.88 206.54 325.04 203.92 324.42C203.031 324.3 202.129 324.3 201.24 324.42C201.24 320 201.24 312.42 201.24 312.42L203.12 301.48C208.62 301.48 209.12 301.26 210.3 302.16C211.48 303.06 211.4 302.16 218.3 301.94C219.069 304.033 219.508 306.232 219.6 308.46C219.32 310.66 219.42 326.3 219.42 326.3H219.62C218.48 326.32 217.02 326.42 215.58 326.58V326.58ZM238.32 324.2C236.593 325.025 234.763 325.616 232.88 325.96C230.62 326.08 227.22 326.1 224.88 326.1L224.28 301.58L227.6 301.38C231.6 301.1 230.42 300.14 233.04 300.12C234.02 300.12 235.68 299.96 237.6 299.72C238.255 307.862 238.496 316.033 238.32 324.2V324.2Z" fill="#84D492"/>
<path d="M153.84 292C156.48 292.86 157.16 292.22 158.64 293.54C157.161 294.835 155.553 295.975 153.84 296.94C152.02 296.52 151.2 295.8 151.6 294.08C152 292.74 152.58 291.54 153.84 292Z" fill="#D3FFCF"/>
<path d="M336.72 214.66C337.84 219.82 337.18 235.92 336.92 237.42C335.24 246.54 326.5 249.12 320.14 248.02C309.1 246.02 301.62 237.3 277.22 217.12C276.06 216.18 278.14 215.3 278.9 211.62C279.445 209.778 280.387 208.078 281.66 206.64C282.88 204.9 289.96 192.64 291.26 190.64C291.72 189.92 291.72 189.9 300.06 196.76C301.1 197.62 307.02 226.34 311.12 223.58C312.82 222.44 309.12 219.7 306.8 211.26C302.58 195.44 297.9 169.4 291.12 154.46C290.44 152.96 288.32 146.8 286.86 145.12C283.54 141.24 271.04 139.96 267.82 133.26C266.88 131.26 267.38 131.98 264.16 121.96C263.64 120.3 264.16 120.1 264.44 119.78C264.72 119.46 265.8 119.78 266.18 120.2C267.154 121.396 267.919 122.748 268.44 124.2C271.42 130.74 270.34 131.68 272.44 132.2C277.12 133.52 276.12 130.7 281 131.54C282.481 131.97 283.992 132.291 285.52 132.5C286.28 132.5 287 131.32 285.72 130.82C284.522 130.145 283.204 129.71 281.84 129.54C280.48 129.54 281.84 126.34 280.64 122.62C278.06 113.82 279.78 114.12 277.24 111.9C275.58 110.46 273.08 108.1 271.08 108.32C269.08 108.54 269.66 109.56 267.22 114.44C265.56 117.74 263.64 118.02 264.28 115.66C265.359 112.85 266.136 109.934 266.6 106.96C267.32 102.96 270.6 102.32 272.6 103.54C275.44 105.3 274.9 104.3 278.76 106.56C283.22 109.16 280.28 100.84 281.22 86.68C281.308 83.9596 281.616 81.2508 282.14 78.58C282.14 78.24 282.32 77.06 283.16 76.9C284 76.74 284.42 77.56 284.54 78.9C284.98 83.7 283.02 97.3 286.7 109.2C285 109.2 282.98 108.72 283.48 110.32C283.58 110.62 286 110.98 286.06 110.98C293.52 112.02 298.38 115.98 299.02 114.52C299.46 113.48 298.26 113 297.14 112.52C296.02 112.04 296.86 112.16 298.82 107.16C300.28 103.4 303.82 86.86 305.94 87.16C306.6 87.16 307.14 87.5 307.12 88.46C307.12 92.22 302.34 102.3 301.26 111.52C300.04 121.7 302.22 115.78 300.26 135.8C299.8 140.58 303.28 141.3 309.6 154.68C309.6 154.68 317.5 172.68 319.94 177.24C325.76 188.22 334.44 204 336.72 214.66ZM298.72 118.52C299.64 117.12 285.98 112.52 282.72 113.24C282.521 113.317 282.359 113.467 282.267 113.658C282.174 113.85 282.158 114.07 282.221 114.274C282.285 114.477 282.424 114.649 282.609 114.754C282.794 114.859 283.013 114.89 283.22 114.84C289.22 115.02 295.98 118.84 297.64 119.26C298.32 119.36 298.52 118.88 298.76 118.52H298.72ZM297.76 140.88C299.42 138.88 290.7 139.3 291.18 132.52C291.58 126.84 295.5 120.18 293.56 119.78C292.9 119.64 292.48 119.66 291.96 121.24C288.78 130.78 285.96 138.5 296.34 141.34C296.58 141.38 297.04 141.74 297.8 140.88H297.76Z" fill="#C49E91"/>
<path d="M294 110.88C294 111.42 294.28 111.46 289.88 109.88C289.44 109.72 289.56 109.68 290.24 103.88C290.24 103.58 290.8 86.7399 292.24 81.1399C292.56 79.9799 292.56 79.2599 293.52 78.9399C296.6 77.9999 292.74 92.7399 294 110.88Z" fill="#C49E91"/>
<path d="M292.82 183.26C293.7 184 293.32 183.26 288.06 191.14C284.22 196.96 282.4 201.14 279.62 205.14C274.1 213.02 274.56 219.72 272.38 216.7C269.54 212.7 264.48 209.68 262.38 206.7C261.26 205.16 262.52 204.88 261.36 199.48C259.68 191.48 261.1 189.96 258.96 182.42C258.68 181.5 257.08 181.24 256.96 182.42C256.96 183.2 257.52 185.76 258.08 189.68C258.106 193.201 258.474 196.711 259.18 200.16C261.04 209.04 257.18 218.84 257.4 229.18C257.82 246.8 256.28 249.18 256.88 256.92C257.38 263.46 257.86 259.26 260.66 270.56C260.8 271.1 232.96 255.6 204.36 218.94C200.68 214.24 152.98 154.64 153.1 154.6C156.4 153.48 157.26 152.86 158.8 154.28C166 161.24 171.14 168 189.58 173.1C227.58 183.44 250.4 151.58 253.58 152.02C261.58 153.2 262.52 152.54 265.96 155.84C273.02 162.62 272.42 165.02 282.18 174.34C284.34 176.48 289.82 180.76 292.82 183.26ZM251.86 226.84C252.26 226.66 252.94 226.16 252.54 225.62C250.34 222.74 246.38 231.42 228.28 228.3C216.02 226.18 217 224.16 213.58 224.04C212.66 224.04 212.46 224.36 212.42 224.74C212.419 224.936 212.481 225.126 212.596 225.285C212.711 225.443 212.874 225.56 213.06 225.62C217.72 227.16 218.38 229.62 229.06 230.86C244.14 232.54 249.1 228 251.86 226.84V226.84Z" fill="#FFF59E"/>
<path d="M268.68 312.6C276.54 314.5 288.08 307.82 294.48 304.74C293 298.48 289.64 285.92 284.16 282.56C279.82 279.9 278.16 278.26 275.8 277.9C273.886 277.388 271.92 277.093 269.94 277.02C265.76 277.28 266.06 277.24 266.2 278.06C266.389 278.497 266.461 278.976 266.408 279.45C266.356 279.923 266.18 280.375 265.9 280.76C265.48 281.26 267.74 284.52 266.06 289.42C265.76 290.26 266.4 289.42 267.68 292.58C268.8 295.2 266.18 296.04 266 296.72C265.82 297.4 266.26 297.7 266.36 298.22C267.12 301.62 266.82 312.14 268.68 312.6Z" fill="#E3B27D"/>
<path d="M295.5 311.58C295.32 311.58 291.62 313.08 290.62 313.7C285.88 316.6 285.5 315.7 279.32 317.7C277.599 318.325 275.769 318.597 273.94 318.5C272.52 318.5 271.5 318.66 271.06 318.22C270.965 318.119 270.893 317.999 270.849 317.868C270.804 317.737 270.787 317.598 270.8 317.46C270.8 315.64 272.7 317.62 280.02 315.22C283.18 314.2 285.56 314.24 288.96 312C290.821 311.066 292.731 310.232 294.68 309.5C295.44 309.16 295.56 308.74 295.8 306.96C295.92 306.06 295.22 306.5 289.48 309.62C284.1 312.54 281.2 312.3 278.24 313.98C276.48 314.96 271.42 314.94 269.26 314.76C268.56 314.76 267.86 314.28 268.12 315.06C268.6 316.52 268.12 317.06 269.06 317.54C270.624 318.162 271.98 319.217 272.968 320.58C273.956 321.943 274.536 323.56 274.64 325.24C274.94 329.24 275.66 331.1 275.64 334.1C275.64 341.1 278.08 339.54 282.02 350.5C284.28 356.78 284.42 356.5 284.82 356.5C286.067 356.639 287.329 356.452 288.482 355.957C289.635 355.463 290.64 354.678 291.4 353.68C298.44 342.62 297.16 343.22 296.96 319.44C296.94 318.48 298.1 310.48 295.5 311.58Z" fill="#E3B27D"/>
<path d="M254.76 269.8C249.173 266.26 243.828 262.351 238.76 258.1C215.5 238.36 209.8 228.6 194.96 210.74C173.82 185.28 157.2 161.5 150.96 155.82C149.44 154.46 149.44 154.46 148.52 154.86C147.6 155.26 147.2 155.5 147.56 155.92C147.92 156.34 149.56 157.92 150.22 158.62C197.96 215.8 206.72 239 245.76 267.42C264.34 280.94 264.7 281.96 264.56 278.46C264.42 274.96 264.18 277.04 254.76 269.8Z" fill="#E3B27D"/>
<path d="M263.74 282.5C264.46 284.4 265.06 288.34 263.14 289.04C260.26 290.1 258.36 288.3 254.78 287.78C251.2 287.26 244.52 295.78 233.22 294.72C232.86 294.72 231.58 294.72 231.58 294.72C227.16 293.9 226.34 293.1 223.58 294.72C222.673 295.556 221.473 296.001 220.24 295.96C217.116 296.362 213.948 295.708 211.24 294.1C207.24 291.92 200.96 296.1 193.5 295.98C191.491 295.69 189.594 294.876 188 293.62C184.58 291.52 182.24 295.82 177.12 293.88C174.36 292.82 170.24 293.34 166.52 292.64C165.011 292.381 163.469 292.381 161.96 292.64C160.7 293.18 161.54 291.76 158.84 290.64C157.96 290.28 154.84 290.18 153.32 288.94C151.48 287.44 154.56 286.28 154.98 283.44C155.018 282.106 155.303 280.79 155.82 279.56C158.42 275.22 158.36 274.3 158.48 272.52C158.243 270.31 158.44 268.075 159.06 265.94C160.26 263.68 157.32 255.28 156.8 253.74C152.6 241.44 154.02 248.44 152.08 235.9C150.56 226.04 149.16 226.04 149.04 220.86C148.92 215.68 150.38 215.54 149.04 212.26C148.596 211.532 148.065 210.861 147.46 210.26C146.842 209.556 146.477 208.667 146.422 207.732C146.368 206.797 146.628 205.87 147.16 205.1C149.425 201.335 150.685 197.052 150.82 192.66C151.32 189.24 151.6 185.76 150.24 185.82C147.9 185.82 150.06 192.64 147.36 200C146.02 203.68 143.06 205.76 140.76 208C134.5 214 137.22 214.54 133.52 208.32C128.2 199.38 128.56 199.54 126.14 197.04C121.94 192.68 122.98 194.22 120.98 191.42C118.994 188.583 116.344 186.276 113.26 184.7C112.78 184.56 120.48 176.7 123.62 173.56C136.7 160.98 136.36 166.24 139.62 160.86C141.16 158.36 141.96 158.86 145.42 157.32C149.42 155.68 203.64 236.2 228.88 256.84C244.56 269.52 263.68 282.38 263.74 282.5ZM193.56 225.1C193.802 225.09 194.031 224.986 194.199 224.811C194.367 224.636 194.46 224.403 194.46 224.16C194.46 222.02 190.64 223.84 187.84 224.16C171.7 225.54 173.32 225.12 163.48 222.16C161.611 221.416 159.849 220.428 158.24 219.22C156.24 218.16 154.24 224.8 177.84 227.32C177.84 227.32 186.98 226.28 187.02 226.28C189.226 226.048 191.412 225.654 193.56 225.1V225.1Z" fill="#FFF59E"/>
<path d="M258.96 64.9999C257.46 67.5999 263.42 70.3399 262.38 74.7999C261.64 78.0199 259.04 78.3599 257.42 79.4199C255.8 80.4799 255.54 81.4199 257.16 83.6599C257.735 84.3112 258.073 85.1373 258.12 86.0048C258.168 86.8722 257.921 87.7301 257.42 88.4399C255.22 90.8599 251.94 89.4399 251.86 91.9199C251.76 95.0599 253.32 96.1999 250.98 97.4799C248.64 98.7599 245.94 96.5799 244.98 97.6399C244.02 98.6999 244.98 99.3399 245.24 100.54C245.92 102.9 244.26 102.22 240.72 104.16C239 105.12 238.24 107.58 240.04 110.48C242.94 115.18 243.1 115.46 239.22 117.92C232.34 122.32 240.98 125.78 238.24 129.32C235.5 132.86 235.62 134.48 235.76 135.32C235.9 136.16 235.12 136.24 234.54 135C234.026 134.213 233.781 133.281 233.843 132.343C233.904 131.406 234.268 130.513 234.88 129.8C235.3 129.317 235.609 128.748 235.785 128.133C235.961 127.518 236 126.872 235.9 126.24C235.78 125.26 234.54 124.24 233.18 123.26C232.623 122.686 232.279 121.938 232.206 121.141C232.133 120.344 232.336 119.546 232.78 118.88C234.54 116.18 235.5 116.58 235.92 114.88C236.26 113.52 234.56 112.18 233.58 109.96C233.32 109.56 242.14 101.44 242.78 94.3799C242.98 93.3619 242.9 92.3086 242.548 91.3327C242.196 90.3568 241.584 89.4951 240.78 88.8399C240.42 88.6199 240.22 88.4999 240.32 87.8599C245.4 54.1599 247.06 44.8399 247.58 42.3599C247.84 41.0599 247.58 40.5399 246.78 40.2199C245.98 39.8999 245.28 40.3799 245.18 39.1799C244.54 32.4999 236.08 28.9399 229.38 28.9399C227.589 28.7093 225.769 28.9931 224.133 29.758C222.497 30.523 221.112 31.7375 220.14 33.2599C219.72 34.0999 219.66 34.5999 219.12 34.0399C218.145 33.053 216.94 32.3242 215.613 31.9192C214.287 31.5142 212.88 31.4457 211.52 31.7199C207.96 32.1999 207.84 33.7199 207.7 32.4599C206.6 22.0799 187.7 21.0999 182.26 29.6199C181.54 30.7599 182.26 31.6199 180.48 31.7799C177.34 31.9399 178.72 32.8599 177.68 69.5799C177.04 92.1799 178.08 80.5999 175.54 93.7999C173.94 102.04 177.1 105.02 174.9 109.08C174.231 109.8 173.509 110.468 172.74 111.08C170.86 113.2 174.34 114.56 174.14 116.82C173.708 118.25 172.769 119.473 171.5 120.26C171.439 120.307 171.364 120.333 171.287 120.334C171.21 120.335 171.135 120.311 171.072 120.267C171.01 120.222 170.963 120.158 170.939 120.085C170.915 120.012 170.916 119.933 170.94 119.86C172.02 116.18 170.94 115.68 168.74 113.24C166.88 111.24 168.44 110.14 171.08 108.02C172.84 106.62 171.84 105.6 170.78 104.78C166 101.08 167.32 101.08 169.5 96.8999C170.48 95.0199 170 94.2799 169.12 93.3999C168.24 92.5199 166.22 91.1599 165.68 89.5999C165.36 88.671 165.264 87.6796 165.399 86.7065C165.535 85.7334 165.898 84.806 166.46 83.9999C168.46 81.3599 163.84 83.2599 161.88 80.6599C160.24 78.4799 162.4 76.4799 163.04 75.9399C164.32 74.8599 163.88 73.7999 162.84 73.8399C156.98 74.0599 155.84 69.3199 159.72 65.8399C160.94 64.7799 161.52 63.9799 159.72 63.2199C156.14 61.7799 157.72 60.8199 159.72 59.4399C161.32 58.4399 161.72 57.4399 159.3 56.6399C154.8 55.2199 155.3 51.2199 158.26 48.9799C161.22 46.7399 162.26 49.3999 163.78 48.6599C164.9 48.1199 163.9 46.1799 163.16 45.6399C159.16 42.6599 161.68 40.4399 162.94 40.3799C165.6 40.2199 165.44 40.5799 166.8 40.2399C170.48 39.3399 167.42 36.4799 167.18 34.0799C167.06 32.9799 167.62 30.7999 169.18 31.2399C170.26 31.5199 172.78 32.6799 172.4 30.4399C172.237 29.8371 172.194 29.2081 172.275 28.5888C172.356 27.9696 172.558 27.3724 172.87 26.8316C173.183 26.2907 173.599 25.8169 174.094 25.4374C174.59 25.0579 175.156 24.78 175.76 24.6199C176.96 24.3599 176.96 25.0199 178.82 26.2599C180.68 27.4999 182.56 26.7599 182.6 25.4799C182.6 22.6399 181.5 19.4799 187.3 16.8599C188.315 16.5454 189.398 16.5211 190.427 16.7897C191.455 17.0583 192.388 17.6091 193.12 18.3799C193.94 19.2799 194.42 19.9999 195.28 18.6399C195.931 16.9003 197.028 15.3623 198.46 14.1799C199.48 13.3122 200.681 12.6824 201.975 12.3365C203.268 11.9906 204.623 11.9371 205.94 12.1799C207.175 12.3402 208.329 12.8807 209.243 13.7265C210.157 14.5722 210.785 15.6813 211.04 16.8999C211.22 17.5999 211.04 18.1799 211.94 18.4199C212.54 18.5799 213.16 17.6799 213.26 17.4799C213.673 16.6623 214.296 15.9697 215.066 15.474C215.836 14.9782 216.725 14.6971 217.64 14.6599C221.1 15.1199 220.76 18.1799 221.3 18.6599C223.1 20.3399 222.02 14.5399 230 15.7999C231.34 16.0796 232.581 16.7104 233.597 17.6276C234.612 18.5449 235.366 19.7156 235.78 21.0199C236.82 23.3599 235.42 23.2599 236.14 25.0199C236.62 26.2399 237.52 25.8199 238.44 24.8399C241.22 21.7999 244.92 22.3999 244.2 24.9599C243.767 25.8399 243.522 26.8002 243.48 27.7799C243.489 27.9773 243.554 28.1679 243.668 28.3296C243.781 28.4913 243.939 28.6172 244.121 28.6928C244.304 28.7683 244.504 28.7903 244.699 28.7561C244.893 28.722 245.074 28.6331 245.22 28.4999C247.76 25.7399 255.98 28.1999 254.2 34.3399C253.7 36.0999 253.08 37.4199 254.32 37.9599C257.7 39.4199 258.86 39.5399 260.92 42.2199C261.868 43.3202 262.418 44.7069 262.484 46.1577C262.549 47.6084 262.125 49.039 261.28 50.2199C261.02 50.5999 259.58 51.4799 259.04 52.2199C258.929 52.3728 258.858 52.5514 258.834 52.739C258.811 52.9266 258.835 53.1172 258.905 53.2929C258.975 53.4686 259.088 53.6237 259.234 53.7439C259.38 53.864 259.554 53.9452 259.74 53.9799C262.44 54.2999 264.94 58.7799 261.9 62.2999C260.32 64.2199 259.76 63.5999 258.96 64.9999Z" fill="#585858"/>
<path d="M241.72 49.1799C246.12 45.1799 245.22 34.7399 238 86.6799C238 87.1399 237.78 87.3599 237.3 87.3999C236.82 87.4399 236 87.6999 235.3 87.2399C235.059 87.108 234.847 86.9277 234.679 86.7104C234.511 86.493 234.389 86.2433 234.321 85.9768C234.254 85.7103 234.242 85.4327 234.286 85.1614C234.331 84.8901 234.431 84.6309 234.58 84.3999C235.42 82.9799 237.7 82.5199 234.78 80.8399C232.44 79.4999 235.3 77.5799 235.86 76.1599C237.16 72.8799 230.94 75.0999 230.78 71.9399C230.54 67.6199 235.92 69.6799 234.78 64.1799C234.4 62.3999 232.88 62.3999 230.3 61.7999C229.16 61.5399 228.6 60.6199 227.98 59.7999C226.76 58.0399 229.98 54.5799 228.44 53.4999C226.9 52.4199 224.62 57.2799 222.12 55.7399C221.08 55.1199 219.72 54.4799 220.12 53.3199C220.94 50.6799 219.24 50.1199 217.98 51.3199C217.623 51.6139 217.194 51.8087 216.737 51.8848C216.281 51.961 215.812 51.9157 215.379 51.7537C214.945 51.5916 214.562 51.3184 214.267 50.9614C213.973 50.6045 213.777 50.1763 213.7 49.7199C213.28 47.2999 211.7 47.8799 211.2 49.2399C210.46 51.6599 207.96 53.9799 206.04 53.2399C205.391 53.0727 204.795 52.7451 204.306 52.2873C203.816 51.8295 203.45 51.2562 203.24 50.6199C203.121 50.4006 202.942 50.2201 202.724 50.0998C202.506 49.9794 202.257 49.9244 202.009 49.9413C201.76 49.9582 201.521 50.0462 201.321 50.1949C201.121 50.3436 200.968 50.5466 200.88 50.7799C199.72 53.1199 199.42 52.7799 197.48 52.9199C195.88 53.0399 194.98 51.9799 194.1 50.6799C193.975 50.4381 193.774 50.2441 193.528 50.1277C193.282 50.0114 193.005 49.9791 192.739 50.036C192.473 50.0928 192.233 50.2356 192.056 50.4424C191.879 50.6491 191.775 50.9083 191.76 51.1799C192.118 52.437 192.067 53.7754 191.614 55.0014C191.16 56.2274 190.329 57.2775 189.24 57.9999C187.763 58.8021 186.12 59.2473 184.44 59.2999C182.14 59.5799 182.26 57.8199 180.78 59.3999C180.54 59.6799 180.78 59.5199 180.26 59.8399C180.14 59.1399 180.12 35.6999 180.82 35.7199C181.52 35.7399 180.26 37.4999 182.82 41.4799C188.82 50.4799 201.66 46.8399 205.48 40.1199C207.04 37.3599 207.76 35.3799 210.4 34.5399C211.646 34.1088 212.994 34.0694 214.264 34.4269C215.533 34.7844 216.662 35.5218 217.5 36.5399C218.17 37.9164 218.718 39.3485 219.14 40.8199C221.36 50.2199 233.56 56.7599 241.72 49.1799Z" fill="#585858"/>
<path d="M248.6 152.62C243.5 158.16 240.34 159.44 233.96 163.4C229.396 166.854 224.156 169.307 218.58 170.6C214.808 171.731 210.913 172.402 206.98 172.6C203.88 172.6 203.98 172.6 203.98 172.6C191.294 172.36 178.985 168.25 168.7 160.82C159.14 152.14 159.7 154.14 164.5 152.82C180.78 148.56 181.4 148.82 184.5 137.04C185.768 132.791 186.586 128.42 186.94 124C188.52 124.98 194.16 130.9 201.4 129.8C209.78 128.5 213.88 124.72 215.4 124.18C215.54 126.04 212.02 135.86 214.26 144.18C216.76 153.26 240.2 150.64 248.6 152.62ZM203.06 157.24C204.66 157.24 212.74 156.06 212.4 154.5C211.98 152.5 208.56 155.8 202.26 155.54C201.56 155.54 201.28 155.54 198.58 154.12C194.16 151.92 193.2 152.76 185.92 154.66C183.26 155.36 184.26 156.66 186.14 156.14C188.02 155.62 193.64 153.9 195.42 154.66C200.86 157 201.46 157.38 203.06 157.24Z" fill="#C49E91"/>
<path d="M238.74 89.74C241.1 90.84 240.96 93.94 240.08 96.36C238.665 99.8726 236.633 103.104 234.08 105.9C233.486 106.634 232.636 107.116 231.701 107.25C230.767 107.383 229.816 107.158 229.04 106.62C228.62 106.38 228.04 106.38 227.48 107.1C224.84 110.46 223.96 116.78 211.64 123.78C206.24 126.84 199.64 129.02 193.96 126.38C187.54 123.38 184.38 117.02 181.12 111.4C174.26 99.54 178.54 93.1 179.38 85.1C179.82 81.1 179.18 76.22 179.58 71.1C179.8 68.24 179.8 64.4 180.88 62.2C181.14 61.7 181.38 61.28 181.8 61.22C183.2 61.06 183.8 61.82 186.32 61.34C188.598 61.135 190.726 60.1203 192.32 58.48C194.84 55.42 193.78 54.18 194.78 54.66C195.917 55.2752 197.22 55.5155 198.502 55.3467C199.784 55.1779 200.981 54.6086 201.92 53.72C202.8 52.98 202.18 54.42 205.46 55.58C207.82 56.4 210.8 54.5 212.08 52.74C212.8 51.7 213 54.86 216.88 54.28C218.66 54.02 217.46 57.48 222.64 58.42C223.559 58.4296 224.471 58.2527 225.32 57.9C226.52 57.4 223.94 60.2 228.26 63.46C229.395 64.0757 230.637 64.4694 231.92 64.62C232.68 64.78 233.12 65.6 232.18 66.24C226.5 70.06 228.18 75.62 231.84 76.24C232.38 76.24 232.94 76.38 232.6 76.78C231.977 77.5881 231.64 78.5797 231.64 79.6C231.64 80.6202 231.977 81.6118 232.6 82.42C233.38 83.24 232.04 83.38 232.2 86.42C232.34 88.82 234.2 88.62 233.26 89.7C232.62 90.48 233.26 91.84 234.14 91.38C234.84 90.92 236.34 88.64 238.74 89.74ZM238.64 94.68C239.3 94.4 239.48 92.82 238.4 91.82C236.84 90.36 233.94 92.9 232.9 96C231.86 99.1 234.32 98.78 233.06 100.42C232.32 101.38 231.22 102.26 232.12 103.08C233.02 103.9 234.12 102.48 234.9 101.6C235.171 101.299 235.372 100.943 235.489 100.556C235.607 100.169 235.638 99.7604 235.58 99.36C235.42 98.24 233.16 97.48 236.12 94.04C236.74 93.32 237.28 93.24 237.64 93.88C238 94.52 238.3 94.84 238.64 94.68V94.68ZM224.74 80.56C225.46 81.48 226.98 80.94 226.56 79.7C225.86 77.8637 224.574 76.3099 222.9 75.28C221.264 74.269 219.297 73.9388 217.42 74.36C211.64 74.66 212.18 78.36 214.66 77.26C220.48 74.88 222.6 77.84 224.74 80.56V80.56ZM215.56 107.2C215.44 108.48 217.1 109.92 217.78 106.44C217.16 100.44 212.06 101.08 213.62 103.08C214.16 103.78 212.2 103.86 211.32 103.88C205.127 104 198.954 103.122 193.04 101.28C190.26 100.5 190.04 100.72 191.82 104.6C195.46 112.6 197.64 119.5 204.54 115.5C208.74 113.08 213.38 107.34 215.62 105.98C215.72 107.12 215.64 106.54 215.56 107.2ZM216.28 86.46C216.62 84.76 216.28 83.92 215.64 83.66C215.455 83.6195 215.264 83.6187 215.078 83.6577C214.893 83.6966 214.718 83.7744 214.565 83.8859C214.412 83.9974 214.284 84.1401 214.19 84.3045C214.096 84.469 214.038 84.6515 214.02 84.84C213.38 88.1 216 88 216.28 86.46V86.46ZM207.2 96.76C209.52 96.26 209.88 93.12 208.38 93.22C207.74 93.22 207.72 93.62 207.5 93.94C207.28 94.26 206.96 94.94 206.18 94.64C204.42 93.96 204.5 91.52 203.1 93.44C202.772 93.95 202.306 94.3568 201.756 94.6136C201.206 94.8704 200.596 94.9667 199.994 94.8915C199.392 94.8162 198.823 94.5725 198.354 94.1883C197.884 93.8041 197.533 93.2951 197.34 92.72C196.8 90.28 198.2 89.24 199.96 87.6C200.556 87.1018 201.018 86.4613 201.301 85.7376C201.584 85.014 201.68 84.2306 201.58 83.46C201.58 82.7 200.78 82.28 200.22 83.04C199.773 84.3963 198.931 85.5876 197.8 86.46C190.96 91.9 197.8 100.64 203.6 96.46C204.02 96.16 204.18 95.82 204.54 96.08C204.904 96.3848 205.333 96.6042 205.793 96.7218C206.253 96.8395 206.734 96.8525 207.2 96.76V96.76ZM199.2 70.46C200.48 68.46 195.76 65.86 190.34 67.82C185.86 69.42 184.68 74 187.16 73.28C187.76 73.1 187.54 71.48 190.64 69.98C195.62 67.56 198.12 72.12 199.2 70.46V70.46ZM195.5 81.42C195.62 80.18 194.76 79.2 193.9 79.42C193.04 79.64 192.88 80.06 192.84 81.26C192.8 82.46 193.48 83.12 193.92 83.26C194.86 83.4 195.44 82.34 195.5 81.42V81.42Z" fill="#C49E91"/>
<path d="M235.76 35.5799C236.02 38.8399 233.08 38.6599 233.64 42.7199C234.7 50.1399 235.52 50.0999 233.88 50.0199C230.4 49.7999 231.12 50.7599 229.88 44.0199C229.625 43.2688 229.545 42.4696 229.646 41.683C229.746 40.8963 230.025 40.1429 230.46 39.4799C233.98 34.0199 229.24 30.5799 232.74 31.3599C234.9 31.9999 235.48 31.8399 235.76 35.5799Z" fill="white"/>
<path d="M201 105.22C210.08 106.94 213 105.34 212.04 106.2C202.34 115.08 200.04 118.58 195.08 106.56C193.64 103.02 191.52 103.44 201 105.22Z" fill="white"/>
<path d="M195.46 26C198.4 26.34 196.2 26 195.58 30C194.54 36.64 198.8 32 193.46 43.8C193.16 44.46 193.06 44.4 190.08 43.92C187.92 43.58 194.36 36.7 191.98 32.56C190.8 30.56 191.98 28.74 192.84 26.68C193.06 26.18 192.92 26.36 195.46 26Z" fill="white"/>
<path d="M186.4 304.62C191.6 306.12 192.58 306.04 192.4 306.78C191.86 308.58 189.06 308.32 185 307.54C179.56 306.5 173.64 304.74 167 305.96C165.92 306.16 166 305.96 162.82 305.7C162.629 305.666 162.432 305.697 162.261 305.79C162.09 305.882 161.955 306.029 161.878 306.208C161.802 306.386 161.788 306.586 161.839 306.773C161.89 306.961 162.003 307.125 162.16 307.24C164.532 308.014 166.959 308.609 169.42 309.02C171.82 309.46 173.02 309.02 174.56 309.82C178.76 312.26 179.22 310.94 181.44 312.36C187.12 315.98 189.76 315.56 188.28 316.9C186.8 318.24 185.16 317.86 178.78 314.7C174.52 312.58 169.24 313.66 162.32 311.94C160.5 311.48 159.5 313.16 160.78 313.64C170.1 317.06 169.1 315.24 172.78 317.94C175.32 319.94 175.92 319.44 179.3 321.94C180.16 322.58 179.02 323.22 178.3 323.24C175.24 323.24 168.58 319.52 166.84 319.52C165.028 319.482 163.228 319.22 161.48 318.74C158.9 318.12 149.72 325.64 144.22 326.74C139.5 327.74 134.66 324.18 134.22 322.46C134.22 322.14 134.04 322.16 136.02 316.56C137.1 313.5 138.46 318.2 143.66 313.6C144.764 312.202 145.413 310.499 145.52 308.72C145.52 308.04 146.38 307.22 148.64 305.12C150.9 303.02 152.84 301 154.48 299.6C163.02 292.28 162.48 294.32 171.3 295.02C177.58 295.5 175.3 295.32 188.8 300.76C189.76 301.14 188.8 303.1 187.08 302.76C179.828 300.026 172.13 298.67 164.38 298.76C163.36 298.76 162.6 299.5 162.72 299.96C163.22 302 165.6 298.66 186.4 304.62Z" fill="#C49E91"/>
<path d="M136.56 303.6C141.96 304.68 144.36 310.3 139.5 311.34C132 310.86 131.74 302.64 136.56 303.6Z" fill="white"/>
<path d="M133.18 212.16C132.063 213.803 130.761 215.313 129.3 216.66C126.26 219.4 126.82 219.66 126.06 218.96C122.06 215.2 119.44 209.26 110.36 202.1C104.8 197.7 103.7 200.94 110.78 192.6C114.78 187.92 113.92 187.72 114.98 188.46C118.56 190.94 119.28 193.9 124.16 198.46C127.08 201.14 127 202.2 128.9 205.32C130.32 207.54 132.62 211.18 133.18 212.16Z" fill="#C49E91"/>
<path d="M126.78 296.82C126.78 296.82 131.88 300.82 131.34 301.46C130.161 302.832 129.464 304.553 129.356 306.359C129.248 308.165 129.734 309.956 130.74 311.46C132.18 313.62 130.18 313.64 129.4 319.06C129.4 319.8 129.96 319.84 120.62 313.58C112.78 308.34 83.76 286.54 77.66 279.36C66.02 265.68 57 257.36 66.9 244.24C75.54 232.74 91.82 213.54 92.66 213.02C100.9 215.92 110.22 229.16 113.58 232.16C114.14 232.66 114.7 232.44 110.62 236.28C110.62 236.28 101.22 245.76 97.04 251.28C94.36 254.82 91.68 255.84 92.22 259.28C92.82 263.08 124 294 126.78 296.82Z" fill="#C49E91"/>
<path d="M101.38 203.04C110.7 207.62 123.14 223.24 122.4 223.96C117.38 228.88 117.98 228.8 117.28 227.96C114 224.34 103.9 212.48 98.5 209.28C96.72 208.22 96.22 208.46 96.62 208.04C101.84 202.44 100.28 204 101.38 203.04Z" fill="#C49E91"/>
<path d="M336.24 205.32C334.24 199.68 308.9 148.38 308.88 148.34C304.14 139.28 301.88 140.86 302.72 133.86C304.52 118.56 302.14 120.16 303.6 111.24C304.804 104.383 306.468 97.6141 308.58 90.98C309.62 87.14 308.96 85.2 306.16 84.98C304.16 84.8 302.92 86.7 301.64 90.26C299.74 95.48 298.02 103.22 296.3 107.26C295.84 108.34 296.82 83.54 296.78 82.1C296.913 80.6031 296.622 79.099 295.94 77.76C295.597 77.3573 295.142 77.0662 294.632 76.9237C294.123 76.7812 293.582 76.7938 293.08 76.96C290.42 77.68 290.22 80.6 289.52 85.68C288.44 93.8 288.2 107.38 287.84 105.34C286.2 96.24 286.34 93.66 286.2 83.34C286.2 81.96 286.36 80 286.2 78.28C286 75.84 284.72 74.72 283.04 74.96C281.68 75.14 280.94 75.7 280.32 77.68C277.76 85.54 279.68 104.6 278.8 103.86C277.82 103.294 276.78 102.838 275.7 102.5C272.78 101.02 271.28 100.1 268.66 101.22C264.66 102.92 265.24 104.14 263.8 109.22C262.36 114.3 261.48 115.7 262.14 117.86C262.38 118.58 261.36 119.86 261.92 121.42C267.48 137.84 262.82 137 282.84 144.78C286.08 146.06 286.08 147.58 288.4 153.6C291.88 162.66 293.54 167.78 294.4 171.08C295.26 174.38 299.96 189.08 299.84 193.52C298.536 192.607 297.281 191.625 296.08 190.58C295.46 190.1 296.08 189.62 296.3 187.22C296.503 186.399 296.506 185.542 296.307 184.721C296.109 183.899 295.715 183.137 295.16 182.5C293.4 180.88 290.56 178.26 285.32 173.96C270.6 162 272 149.76 254 150C253.2 150 251.54 149 250 150.4C249.48 150.9 240.46 148.92 235 149.26C233.96 149.26 219.18 148.5 217.12 145.02C214.8 141.16 215.68 134 216.26 131.26C217.84 123.9 217.5 122.12 219.56 120.76C223.121 117.724 225.997 113.969 228 109.74C228.2 109.28 228.3 108.56 228.64 108.74C229.391 109.219 230.251 109.501 231.14 109.56C231.9 109.56 231.84 111.56 233.92 113.9C234.24 114.24 234.1 114.2 232.52 115.62C231.858 116.189 231.324 116.891 230.95 117.681C230.577 118.47 230.373 119.328 230.353 120.201C230.332 121.074 230.494 121.941 230.83 122.747C231.165 123.553 231.666 124.28 232.3 124.88C234.18 126.34 234.42 126.56 233.98 127.52C233.071 128.482 232.456 129.685 232.208 130.985C231.96 132.286 232.089 133.63 232.58 134.86C233.082 135.847 233.76 136.735 234.58 137.48C235.54 138.58 237.92 138.78 237.48 136.94C235.98 130.44 244.26 132.32 238.8 122.82C236.34 118.52 248.26 120.02 242.92 110.82C241.66 108.66 240.02 106.94 242.32 105.96C244.62 104.98 245.28 105.06 246.6 103.82C248.5 102.02 246.6 99.82 247.84 99.98C252.28 100.88 256.02 97.48 253.98 93.46C252.7 90.9 259.74 92.78 259.98 86.64C260.2 81.78 256.9 81.82 259.06 80.8C260.024 80.5604 260.932 80.131 261.728 79.5369C262.525 78.9429 263.195 78.196 263.7 77.34C266.5 71.74 262.06 67.76 260.88 66.04C265.14 63.6 266.4 60.22 265.14 56.16C264.2 53.08 262.04 53.14 262.98 52.06C264.399 50.2594 265.072 47.9826 264.86 45.7C262 34.98 255.06 38 256 36C256.763 34.3412 256.892 32.46 256.361 30.7128C255.83 28.9656 254.677 27.4738 253.12 26.52C251.205 25.3847 248.973 24.9005 246.76 25.14C246.34 24.66 247.06 21.02 243.06 20.72C239.06 20.42 238.9 22.48 238.6 21.32C237.655 18.5065 235.769 16.1049 233.26 14.52C231.544 13.6708 229.629 13.3044 227.72 13.46C222.68 13.58 223.04 15.46 221.92 14.34C217.26 9.51996 213.02 15.2 212.58 14.1C211.1 10.4 200.3 6.67996 194.58 15.42C194.24 15.94 194.04 16.24 193.72 15.9C192.729 15.1182 191.552 14.6061 190.305 14.4134C189.057 14.2206 187.781 14.3538 186.6 14.8C176.8 18.8 182.16 25.38 180.14 24.16C178.12 22.94 176.72 21.6 174.52 22.72C168.88 25.58 171.44 29.74 169.86 29.16C166.98 28.08 164.24 31.88 165.06 34.86C166.34 39.52 166.34 37.28 162.72 37.84C161.579 37.989 160.535 38.5606 159.794 39.4418C159.054 40.3231 158.67 41.4499 158.72 42.6C158.88 45.56 160.3 45.92 159.3 46.04C158.333 46.2912 157.428 46.74 156.643 47.3581C155.857 47.9761 155.208 48.7501 154.737 49.6312C154.265 50.5123 153.981 51.4815 153.903 52.4778C153.824 53.474 153.953 54.4758 154.28 55.42C155.38 58.56 157.96 58.2 157 58.94C156.49 59.2511 156.072 59.6926 155.79 60.2189C155.507 60.7453 155.37 61.3374 155.392 61.9345C155.415 62.5315 155.596 63.1117 155.917 63.6154C156.238 64.1191 156.688 64.528 157.22 64.8C157.52 65 157.52 65.12 157.22 65.34C156.422 66.0671 155.834 66.9962 155.52 68.0292C155.206 69.0623 155.176 70.161 155.434 71.2095C155.692 72.2581 156.228 73.2175 156.986 73.9867C157.744 74.7559 158.695 75.3064 159.74 75.58C160.52 75.76 159.58 75.8 159.26 78.54C159.179 79.1846 159.228 79.8388 159.404 80.4643C159.579 81.0897 159.878 81.6739 160.282 82.1824C160.686 82.691 161.188 83.1137 161.758 83.4258C162.327 83.7379 162.954 83.9331 163.6 84C165.14 84.1 160.14 89.5 166.94 94.16C169.42 95.86 166.32 97.02 165.88 99.92C165.32 103.46 166.86 104.12 169.28 106.04C170.5 107 169.28 107 167.28 108.76C166.561 109.301 166.083 110.103 165.949 110.993C165.814 111.883 166.034 112.79 166.56 113.52C167.209 114.406 167.932 115.235 168.72 116C170.16 117.68 169.42 118.9 168.72 121.12C168.36 122.42 169.44 123.24 170.36 122.76C175.12 120.32 177.96 117.3 174.74 113.04C173.8 111.78 175.9 112.38 177.06 108.66C177.06 108.56 177.22 108.36 177.34 108.66C181.56 117.78 184.66 120.06 184.64 123.76C184.64 127.92 182.1 141.76 178.94 145.1C176.14 148.06 171.24 148.98 160.12 151.56C158.12 152.02 158.7 150.36 155.66 151.34C150.68 152.92 150.62 153.34 149.96 152.92C149.3 152.5 148.8 152.62 145.72 153.82C144.5 154.3 145.72 154.46 143.72 155.34C140.68 156.68 139.04 157.08 137.1 160.54C135.16 164 133.94 158.54 113.74 180.54C110.96 183.54 109.56 184.24 109.74 186.32C109.94 188.8 111.18 189.22 110.02 190.32C105.64 194.18 81.6 221.98 78.02 226.52C57.04 252.52 52.18 254.14 77.04 282.64C81.34 287.58 122.28 319.76 128.58 321.68C129.68 322.02 128.74 323.26 131.26 324.38C132.94 325.12 132.36 324.12 134.48 326.12C138.68 330.12 140.1 328.7 139.72 329.7C138.12 333.92 132.78 347.26 133.28 351.24C133.94 356.44 132.02 358.18 131.28 361.86C130.28 366.24 130.96 368.38 130.16 372.66C129.46 376.3 128.92 374.36 127.3 384.8C126.96 387.04 129.3 387.4 129.62 385.92C129.879 383.212 130.388 380.534 131.14 377.92C132.466 374.753 133.146 371.353 133.14 367.92C133.94 356.92 136.44 359.2 135.72 351.8C135.36 348.02 136.36 346.88 141.86 330.06C142.16 329.14 142.74 329.7 144.32 329.36C152.02 327.7 159.08 320.7 160.8 321.04C173.08 323.6 163.12 320.6 175.3 325.32C179.86 327.1 181.3 324 182.58 324.2C182.58 324.2 199.9 326.52 201.1 325.62C201.88 325.04 201.6 325.98 206.54 326.4C208.94 326.62 210.16 327.32 212.54 327.52C214.92 327.72 218.82 326.82 219.84 327.04C222.555 327.321 225.297 327.207 227.98 326.7C230.881 326.963 233.804 326.862 236.68 326.4C239.32 325.84 238.14 325.02 239.68 325.04C240.86 325.04 248.74 324.14 248.8 324.14C255.066 323.216 261.206 321.579 267.1 319.26C267.74 319.26 268.3 320.12 269.1 320.4C270.236 320.976 271.134 321.931 271.64 323.1C272.92 324.84 272.32 326.36 272.96 329.44C273.393 332.084 273.593 334.761 273.56 337.44C274.04 341.44 274.68 340.08 278.64 348.56C279.58 350.56 277.84 346.94 284.64 363.62C289.3 375.12 282.36 361.88 294.18 387.24C294.78 388.52 295.16 390.62 296.72 390.12C299.5 389.26 290.72 377.04 288.82 368.4C286.92 359.76 284.04 359.2 286.54 359.06C287.894 359.034 289.225 358.706 290.436 358.101C291.646 357.495 292.707 356.627 293.54 355.56C297.54 349.06 299.66 347.56 299.78 334.84C299.78 328.28 299.34 319.98 299.78 317.2C300.66 311.78 297.78 310.56 298.22 308.86C298.68 306.56 298.56 306.86 297.44 304.38C295.1 299.08 292.74 284.66 285.74 280.52C279.42 276.78 279.34 275.98 277.08 275.74C273.96 275.4 272.24 274.46 268.02 275.12C266.54 275.34 266.02 275.48 265.58 275.12C263.28 273.12 263.28 272.9 263.2 272.08C262.72 266.68 259.54 260.7 259.34 258.54C259.17 253.276 259.31 248.007 259.76 242.76C260.62 230.62 259.06 231.58 260.18 222.38C260.68 218.38 261.22 216.1 261.9 210.38C261.9 209.98 261.42 209.4 266.94 214.38C270.94 217.92 274.94 224.38 277.92 221.3C278.24 220.98 278.48 221.06 278.78 221.3C281.44 223.7 282.96 224.68 285.74 227.06C295.5 235.38 310.96 252.08 323.74 250.94C339.92 249.52 339.74 239.08 339.74 222.94C339.816 216.887 338.623 210.885 336.24 205.32V205.32ZM290.24 103.86C290.24 103.56 290.8 86.72 292.24 81.12C292.56 79.96 292.56 79.24 293.52 78.92C296.5 77.9 292.64 92.66 293.94 110.92C293.94 111.46 294.22 111.5 289.82 109.92C289.48 109.72 289.6 109.68 290.28 103.86H290.24ZM175.54 93.62C173.94 101.86 177.1 104.84 174.9 108.9C174.231 109.62 173.509 110.288 172.74 110.9C170.86 113.02 174.34 114.38 174.14 116.64C173.708 118.07 172.769 119.293 171.5 120.08C171.439 120.127 171.364 120.153 171.287 120.154C171.21 120.155 171.135 120.132 171.072 120.087C171.01 120.042 170.963 119.978 170.939 119.905C170.915 119.832 170.916 119.753 170.94 119.68C172.02 116 170.94 115.5 168.74 113.06C166.88 111.06 168.44 109.96 171.08 107.84C172.84 106.44 171.84 105.42 170.78 104.6C166 100.9 167.32 100.9 169.5 96.72C170.48 94.84 170 94.1 169.12 93.22C168.24 92.34 166.22 90.98 165.68 89.42C165.389 88.5167 165.309 87.559 165.444 86.6198C165.579 85.6806 165.926 84.7846 166.46 84C168.46 81.36 163.84 83.26 161.88 80.66C160.24 78.48 162.4 76.48 163.04 75.94C164.32 74.86 163.88 73.8 162.84 73.84C156.98 74.06 155.84 69.32 159.72 65.84C160.94 64.78 161.52 63.98 159.72 63.22C156.14 61.78 157.72 60.82 159.72 59.44C161.32 58.44 161.72 57.44 159.3 56.64C154.8 55.22 155.3 51.22 158.26 48.98C161.22 46.74 162.26 49.4 163.78 48.66C164.9 48.12 163.9 46.18 163.16 45.64C159.16 42.66 161.68 40.44 162.94 40.38C165.6 40.22 165.44 40.58 166.8 40.24C170.48 39.34 167.42 36.48 167.18 34.08C167.06 32.98 167.62 30.8 169.18 31.24C170.26 31.52 172.78 32.68 172.4 30.44C172.237 29.8372 172.194 29.2081 172.275 28.5888C172.356 27.9696 172.558 27.3724 172.87 26.8316C173.183 26.2908 173.599 25.817 174.094 25.4374C174.59 25.0579 175.156 24.7801 175.76 24.62C176.96 24.36 176.96 25.02 178.82 26.26C180.68 27.5 182.56 26.76 182.6 25.48C182.6 22.64 181.5 19.48 187.3 16.86C188.315 16.5455 189.398 16.5211 190.427 16.7897C191.455 17.0583 192.388 17.6091 193.12 18.38C193.94 19.28 194.42 20 195.28 18.64C195.931 16.9004 197.028 15.3623 198.46 14.18C199.48 13.3122 200.681 12.6825 201.975 12.3365C203.268 11.9906 204.623 11.9371 205.94 12.18C207.175 12.3403 208.329 12.8808 209.243 13.7265C210.157 14.5722 210.785 15.6813 211.04 16.9C211.22 17.6 211.04 18.18 211.94 18.42C212.54 18.58 213.16 17.68 213.26 17.48C213.673 16.6623 214.296 15.9698 215.066 15.474C215.836 14.9782 216.725 14.6972 217.64 14.66C221.1 15.12 220.76 18.18 221.3 18.66C223.1 20.34 222.02 14.54 230 15.8C231.34 16.0796 232.581 16.7104 233.597 17.6277C234.612 18.5449 235.366 19.7156 235.78 21.02C236.82 23.36 235.42 23.26 236.14 25.02C236.62 26.24 237.52 25.82 238.44 24.84C241.22 21.8 244.92 22.4 244.2 24.96C243.767 25.84 243.522 26.8002 243.48 27.78C243.489 27.9773 243.554 28.168 243.668 28.3296C243.781 28.4913 243.939 28.6173 244.121 28.6928C244.304 28.7683 244.504 28.7903 244.699 28.7562C244.893 28.722 245.074 28.6331 245.22 28.5C247.76 25.74 255.98 28.2 254.2 34.34C253.7 36.1 253.08 37.42 254.32 37.96C257.7 39.42 258.86 39.54 260.92 42.22C261.868 43.3202 262.418 44.707 262.484 46.1577C262.549 47.6084 262.125 49.039 261.28 50.22C261.02 50.6 259.58 51.48 259.04 52.22C258.929 52.3729 258.858 52.5514 258.834 52.739C258.811 52.9267 258.835 53.1172 258.905 53.2929C258.975 53.4686 259.088 53.6238 259.234 53.7439C259.38 53.864 259.554 53.9452 259.74 53.98C262.44 54.3 264.94 58.78 261.9 62.3C260.24 64.3 259.66 63.6 258.88 65C257.38 67.6 263.34 70.34 262.3 74.8C261.56 78.02 258.96 78.36 257.34 79.42C255.72 80.48 255.46 81.42 257.08 83.66C257.655 84.3112 257.993 85.1374 258.04 86.0048C258.088 86.8722 257.841 87.7302 257.34 88.44C255.14 90.86 251.86 89.44 251.78 91.92C251.68 95.06 253.24 96.2 250.9 97.48C248.56 98.76 245.86 96.58 244.9 97.64C243.94 98.7 244.9 99.34 245.16 100.54C245.84 102.9 244.18 102.22 240.64 104.16C238.92 105.12 238.16 107.58 239.96 110.48C242.86 115.18 243.02 115.46 239.14 117.92C232.26 122.32 240.9 125.78 238.16 129.32C235.42 132.86 235.54 134.48 235.68 135.32C235.82 136.16 235.04 136.24 234.46 135C233.946 134.213 233.701 133.281 233.763 132.343C233.824 131.406 234.188 130.513 234.8 129.8C235.22 129.317 235.529 128.748 235.705 128.133C235.881 127.518 235.92 126.872 235.82 126.24C235.7 125.26 234.46 124.24 233.1 123.26C232.543 122.686 232.199 121.938 232.126 121.141C232.053 120.344 232.256 119.546 232.7 118.88C234.46 116.18 235.42 116.58 235.84 114.88C236.18 113.52 234.48 112.18 233.5 109.96C233.24 109.56 242.06 101.44 242.7 94.38C242.9 93.362 242.82 92.3086 242.468 91.3327C242.116 90.3569 241.504 89.4952 240.7 88.84C240.34 88.62 240.14 88.5 240.24 87.86C245.32 54.16 246.98 44.84 247.5 42.36C247.76 41.06 247.5 40.54 246.7 40.22C245.9 39.9 245.2 40.38 245.1 39.18C244.46 32.5 236 28.94 229.3 28.94C227.509 28.7094 225.689 28.9931 224.053 29.7581C222.417 30.523 221.032 31.7376 220.06 33.26C219.64 34.1 219.58 34.6 219.04 34.04C218.065 33.0531 216.86 32.3243 215.533 31.9193C214.207 31.5143 212.8 31.4458 211.44 31.72C207.88 32.2 207.76 33.72 207.62 32.46C206.52 22.08 187.62 21.1 182.18 29.62C181.46 30.76 182.18 31.62 180.4 31.78C177.26 31.94 178.64 32.86 177.6 69.58C177.04 92 178 80.42 175.54 93.62ZM234.8 80.84C232.46 79.5 235.32 77.58 235.88 76.16C237.18 72.88 230.96 75.1 230.8 71.94C230.56 67.62 235.94 69.68 234.8 64.18C234.42 62.4 232.9 62.4 230.32 61.8C229.18 61.54 228.62 60.62 228 59.8C226.78 58.04 230 54.58 228.46 53.5C226.92 52.42 224.64 57.28 222.14 55.74C221.1 55.12 219.74 54.48 220.14 53.32C220.96 50.68 219.26 50.12 218 51.32C217.643 51.6139 217.214 51.8088 216.757 51.8849C216.301 51.961 215.832 51.9158 215.399 51.7537C214.965 51.5916 214.582 51.3184 214.287 50.9615C213.993 50.6045 213.797 50.1764 213.72 49.72C213.3 47.3 211.72 47.88 211.22 49.24C210.48 51.66 207.98 53.98 206.06 53.24C205.411 53.0727 204.815 52.7451 204.326 52.2874C203.836 51.8296 203.47 51.2562 203.26 50.62C203.141 50.4007 202.962 50.2201 202.744 50.0998C202.526 49.9795 202.277 49.9245 202.029 49.9413C201.78 49.9582 201.541 50.0462 201.341 50.1949C201.141 50.3436 200.988 50.5467 200.9 50.78C199.74 53.12 199.44 52.78 197.5 52.92C195.9 53.04 195 51.98 194.12 50.68C193.995 50.4382 193.794 50.2441 193.548 50.1278C193.302 50.0114 193.025 49.9792 192.759 50.036C192.493 50.0929 192.253 50.2357 192.076 50.4424C191.899 50.6491 191.795 50.9083 191.78 51.18C192.136 52.4391 192.082 53.7789 191.625 55.0052C191.168 56.2314 190.333 57.2803 189.24 58C187.763 58.8022 186.12 59.2474 184.44 59.3C182.14 59.58 182.26 57.82 180.78 59.4C180.54 59.68 180.78 59.52 180.26 59.84C180.14 59.14 180.12 35.7 180.82 35.72C181.52 35.74 180.26 37.5 182.82 41.48C188.82 50.48 201.66 46.84 205.48 40.12C207.04 37.36 207.76 35.38 210.4 34.54C211.634 34.1048 212.971 34.0535 214.235 34.3926C215.498 34.7317 216.63 35.4455 217.48 36.44C218.155 37.8303 218.71 39.2755 219.14 40.76C221.28 50.26 233.48 56.76 241.64 49.22C243.42 47.58 244.34 44.9 244.32 45.72C244.32 46.92 242.32 55.72 237.92 86.72C237.92 87.18 237.7 87.4 237.22 87.44C236.74 87.48 235.92 87.74 235.22 87.28C234.979 87.148 234.767 86.9677 234.599 86.7504C234.431 86.5331 234.309 86.2834 234.241 86.0168C234.174 85.7503 234.162 85.4727 234.206 85.2014C234.251 84.9301 234.351 84.6709 234.5 84.44C235.46 82.98 237.7 82.52 234.8 80.84V80.84ZM192 32.62C190.82 30.62 192 28.8 192.86 26.74C193.08 26.18 192.86 26.36 195.48 26.06C198.42 26.4 196.22 26.06 195.6 30.06C194.56 36.7 198.82 32.06 193.48 43.86C193.18 44.52 193.08 44.46 190.1 43.98C188 43.64 194.36 36.76 192 32.62ZM232.86 31.42C234.86 31.9 235.5 31.84 235.78 35.58C236.04 38.84 233.1 38.66 233.66 42.72C234.72 50.14 235.54 50.1 233.9 50.02C230.42 49.8 231.14 50.76 229.9 44.02C229.645 43.2689 229.565 42.4697 229.666 41.683C229.766 40.8963 230.045 40.1429 230.48 39.48C234 34 229.34 30.64 232.84 31.42H232.86ZM181.2 111.42C174.34 99.56 178.62 93.12 179.46 85.12C179.9 81.12 179.26 76.24 179.66 71.12C179.88 68.26 179.88 64.42 180.96 62.22C181.22 61.72 181.46 61.3 181.88 61.24C183.28 61.08 183.88 61.84 186.4 61.36C188.678 61.155 190.806 60.1403 192.4 58.5C194.92 55.44 193.86 54.2 194.86 54.68C195.998 55.2951 197.3 55.5355 198.582 55.3667C199.864 55.1979 201.061 54.6286 202 53.74C202.88 53 202.26 54.44 205.54 55.6C207.9 56.42 210.88 54.52 212.16 52.76C212.88 51.72 213.08 54.88 216.96 54.3C218.74 54.04 217.54 57.5 222.72 58.44C223.639 58.4496 224.551 58.2727 225.4 57.92C226.6 57.42 224.02 60.22 228.34 63.48C229.475 64.0957 230.717 64.4894 232 64.64C232.76 64.8 233.2 65.62 232.26 66.26C226.58 70.08 228.26 75.64 231.92 76.26C232.46 76.26 233.02 76.4 232.68 76.8C232.057 77.6081 231.72 78.5997 231.72 79.62C231.72 80.6402 232.057 81.6318 232.68 82.44C233.46 83.26 232.12 83.4 232.28 86.44C232.42 88.84 234.28 88.64 233.34 89.72C232.7 90.5 233.34 91.86 234.22 91.4C234.84 91.1 236.34 88.82 238.74 89.92C241.14 91.02 240.96 94.12 240.08 96.54C238.665 100.053 236.633 103.284 234.08 106.08C233.486 106.814 232.636 107.296 231.701 107.43C230.767 107.563 229.816 107.338 229.04 106.8C228.62 106.56 228.04 106.56 227.48 107.28C224.84 110.64 223.96 116.96 211.64 123.96C206.24 127.02 199.64 129.2 193.96 126.56C187.6 123.38 184.44 117.02 181.18 111.4L181.2 111.42ZM164.5 152.76C180.78 148.52 181.4 148.76 184.5 136.98C185.764 132.75 186.582 128.4 186.94 124C188.52 124.98 194.16 130.9 201.4 129.8C209.78 128.5 213.88 124.72 215.4 124.18C215.54 126.04 212.02 135.86 214.26 144.18C216.72 153.32 240.16 150.7 248.56 152.68C243.46 158.22 240.3 159.5 233.92 163.46C229.356 166.914 224.116 169.367 218.54 170.66C214.768 171.791 210.873 172.462 206.94 172.66C203.84 172.66 203.94 172.66 203.94 172.66C191.254 172.42 178.945 168.31 168.66 160.88C159.14 152 159.7 154 164.5 152.76ZM123.72 173.52C136.8 160.94 136.46 166.2 139.72 160.82C141.26 158.32 142.06 158.82 145.52 157.28C149.52 155.64 203.74 236.16 228.98 256.8C244.52 269.52 263.64 282.38 263.7 282.5C264.42 284.5 265.02 288.34 263.1 289.04C260.22 290.1 258.32 288.3 254.74 287.78C251.16 287.26 244.46 295.78 233.18 294.72C232.82 294.72 231.54 294.72 231.54 294.72C227.12 293.9 226.3 293.1 223.54 294.72C222.633 295.556 221.433 296.001 220.2 295.96C217.076 296.362 213.908 295.708 211.2 294.1C207.2 291.92 200.92 296.1 193.46 295.98C191.465 295.683 189.583 294.869 188 293.62C184.58 291.52 182.24 295.82 177.12 293.88C174.36 292.82 170.24 293.34 166.52 292.64C165.011 292.381 163.469 292.381 161.96 292.64C160.7 293.18 161.54 291.76 158.84 290.64C157.96 290.28 154.84 290.18 153.32 288.94C151.48 287.44 154.56 286.28 154.98 283.44C155.018 282.106 155.303 280.79 155.82 279.56C158.42 275.22 158.36 274.3 158.48 272.52C158.243 270.31 158.44 268.075 159.06 265.94C160.26 263.68 157.32 255.28 156.8 253.74C152.6 241.44 154.02 248.44 152.08 235.9C150.56 226.04 149.16 226.04 149.04 220.86C148.92 215.68 150.38 215.54 149.04 212.26C148.596 211.532 148.065 210.861 147.46 210.26C146.842 209.556 146.477 208.666 146.422 207.732C146.368 206.797 146.628 205.87 147.16 205.1C149.425 201.335 150.685 197.052 150.82 192.66C151.32 189.24 151.6 185.76 150.24 185.82C147.9 185.82 150.06 192.64 147.36 200C146.02 203.68 143.06 205.76 140.76 208C134.5 214 137.22 214.54 133.52 208.32C128.2 199.38 128.56 199.54 126.14 197.04C121.94 192.68 122.98 194.22 120.98 191.42C118.994 188.583 116.344 186.276 113.26 184.7C112.88 184.52 120.58 176.56 123.72 173.52ZM158.64 293.52C157.161 294.815 155.553 295.955 153.84 296.92C152.02 296.5 151.2 295.78 151.6 294.06C151.9 292.76 152.58 291.56 153.84 292.06C156.48 292.82 157.16 292.18 158.64 293.5V293.52ZM110.78 192.6C114.78 187.92 113.92 187.72 114.98 188.46C118.56 190.94 119.28 193.9 124.16 198.46C127.08 201.14 127 202.2 128.9 205.32C130.32 207.64 132.62 211.32 133.18 212.26C132.063 213.903 130.761 215.413 129.3 216.76C126.26 219.5 126.82 219.76 126.06 219.06C122.06 215.3 119.44 209.36 110.36 202.2C104.8 197.7 103.7 200.94 110.78 192.6ZM96.62 208.1C101.84 202.44 100.28 203.98 101.38 203.04C110.7 207.62 123.14 223.24 122.4 223.96C117.38 228.9 117.98 228.8 117.28 227.96C114 224.34 103.9 212.48 98.5 209.28C96.72 208.28 96.22 208.52 96.62 208.1ZM131.34 301.46C130.161 302.832 129.464 304.553 129.356 306.359C129.248 308.165 129.734 309.956 130.74 311.46C132.18 313.62 130.18 313.64 129.4 319.06C129.4 319.8 129.96 319.84 120.62 313.58C112.78 308.34 83.76 286.54 77.66 279.36C66.02 265.68 57 257.36 66.9 244.24C75.54 232.74 91.82 213.54 92.66 213.02C100.9 215.92 110.22 229.16 113.58 232.16C114.14 232.66 114.7 232.44 110.62 236.28C110.62 236.28 101.22 245.76 97.04 251.28C94.36 254.82 91.68 255.84 92.22 259.28C93.1088 261.278 94.3949 263.075 96 264.56C100.62 269.94 109.26 279.52 126.82 296.82C126.82 296.86 131.88 300.84 131.34 301.46ZM107.62 274.34C96.88 260.52 91.9 260.44 95.92 255.86C109.16 240.78 107.06 243.68 123.26 226.46C128.64 220.72 130.94 218.14 132.16 217.02C133.38 215.9 133.52 216.36 134.9 216.54C136.68 216.76 137.86 213.38 144.3 208.02C144.5 207.86 144.64 207.78 144.62 208.02C144.44 211.84 147.4 212.02 147.4 214.96C146.471 219.034 146.616 223.279 147.82 227.28C150.26 234.82 150.24 242.7 151.82 246.82C159.98 269.46 156.08 260.16 156.36 270.82C156.36 273.68 156.36 273.78 153.86 278.12C152.56 280.36 153.36 282.58 152.16 284.12C150.64 285.96 149.76 287.52 150.84 289.58C151.62 291.06 148.84 291.58 149.56 295.58C150.08 298.58 152.76 297.68 151.4 299.46C150.94 300.06 149.92 300.94 148.08 302.8C147.201 303.729 146.266 304.604 145.28 305.42C144.66 305.9 144.48 305.42 143.92 304.6C142.862 302.889 141.275 301.569 139.4 300.84C135.2 298.96 134.56 300.84 133.62 299.86C132.68 298.88 108.26 275.14 107.62 274.34ZM136.56 303.6C141.96 304.68 144.36 310.3 139.5 311.34C132 310.86 131.74 302.64 136.56 303.6ZM178.26 323.3C175.2 323.42 168.54 319.58 166.8 319.58C164.988 319.542 163.188 319.28 161.44 318.8C158.86 318.18 149.68 325.7 144.18 326.8C139.46 327.8 134.62 324.24 134.18 322.52C134.18 322.2 134 322.22 135.98 316.62C137.06 313.56 138.42 318.26 143.62 313.66C144.724 312.262 145.373 310.558 145.48 308.78C145.48 308.1 146.34 307.28 148.6 305.18C150.86 303.08 152.8 301.06 154.44 299.66C162.98 292.34 162.44 294.38 171.26 295.08C177.58 295.56 175.48 295.44 188.76 300.82C189.72 301.2 188.76 303.16 187.04 302.82C179.788 300.086 172.09 298.73 164.34 298.82C163.32 298.82 162.56 299.56 162.68 300.02C163.2 302.02 165.58 298.72 186.38 304.68C191.58 306.18 192.56 306.1 192.38 306.84C191.84 308.64 189.04 308.38 184.98 307.6C179.54 306.56 173.62 304.8 166.98 306.02C165.9 306.22 165.98 306.02 162.8 305.76C162.609 305.726 162.412 305.757 162.241 305.85C162.07 305.942 161.935 306.089 161.858 306.268C161.782 306.446 161.768 306.646 161.819 306.833C161.87 307.02 161.983 307.185 162.14 307.3C164.512 308.074 166.939 308.669 169.4 309.08C171.8 309.52 173 309.08 174.54 309.88C178.74 312.32 179.2 311 181.42 312.42C187.1 316.04 189.74 315.62 188.26 316.96C186.78 318.3 185.14 317.92 178.76 314.76C174.5 312.64 169.22 313.72 162.3 312C160.48 311.54 159.48 313.22 160.76 313.7C170.08 317.12 169.08 315.3 172.76 318C175.3 320 175.9 319.5 179.28 322C180.12 322.64 178.98 323.28 178.26 323.3ZM197.24 305.3C196.82 308.98 195.04 317.54 196.02 322.42C196.14 323 195.84 322.8 195.04 322.8C192.582 322.67 190.132 322.416 187.7 322.04C184.78 321.6 183.2 322.5 181.42 320.96C177.42 317.54 174.46 316.96 173.54 315.68C177.54 315.48 180.46 318.66 184.76 319.42C187.6 319.94 190.42 319.42 191.42 316.74C192.42 314.06 185.76 312.74 182.08 310.16C180.72 309.591 179.296 309.188 177.84 308.96C177.32 308.8 175.5 307.88 176.04 307.84C176.972 307.88 177.898 308.021 178.8 308.26C181.02 308.84 185.48 309.6 189.3 310.26C191.18 310.54 194.1 309.82 194.5 307.14C194.9 304.46 192.38 304.04 189.8 303.4C190.62 303 190.62 301.76 191.14 301.84C191.66 301.92 193.52 302.66 195.48 302.94C196.018 303.022 196.543 303.177 197.04 303.4C197.56 303.62 197.38 304 197.24 305.36V305.3ZM199.24 323.3C198.9 323.3 198.22 323.16 198.16 322.82C197.58 318.98 197 319.8 199.12 304.28C199.12 303.66 199.36 303.5 201.88 303.7C199.42 314.76 200.74 320.96 200.22 322.82C200.12 323.32 199.68 323.34 199.26 323.32L199.24 323.3ZM218.42 324.28C214.42 324.8 212.96 325.26 210.3 324.48C205.72 323.1 202.3 324.26 202.3 322.32C202.126 316.529 202.576 310.735 203.64 305.04C203.705 304.673 203.897 304.34 204.182 304.098C204.467 303.857 204.827 303.724 205.2 303.72H207.9C209.68 303.72 209.76 305.2 212.24 304.82C213.98 304.56 215.72 304.44 217.46 304.32C218.54 304.32 218.34 304.14 218.74 307.58C218 307.62 218.76 324.26 218.44 324.3L218.42 324.28ZM223.56 324.52C221.12 324.52 221.04 324.52 220.88 324.2C220.14 322.54 220.88 306.4 220.36 304.7C220.12 303.94 220.58 304.12 222.94 304.12C223.18 306.64 224 324.54 223.58 324.54L223.56 324.52ZM237.36 323.08C237.098 323.437 236.726 323.697 236.3 323.82C234.761 324.104 233.204 324.278 231.64 324.34C227.12 324.12 225.94 324.74 225.88 322.92C225.1 297.2 223.04 305.94 230.84 303.26C231.994 302.571 233.347 302.289 234.68 302.46C236.88 302.46 236.92 302.16 237.12 303.74C237.538 310.185 237.625 316.646 237.38 323.1L237.36 323.08ZM239.98 322.48C238.92 322.48 239.44 322.36 239.48 319.72C239.48 317.88 239.64 312.42 239.68 311.54C239.98 301.54 236.94 301.94 240.56 301.9C240.628 301.913 240.692 301.945 240.745 301.99C240.797 302.036 240.837 302.094 240.86 302.16C241.433 304.107 241.696 306.131 241.64 308.16C241.394 312.66 241.468 317.171 241.86 321.66C242 322.44 241.4 322.58 240 322.5L239.98 322.48ZM244.26 321.78C243.36 321.04 244.02 307.44 243.6 305.02C242.72 299.84 240.1 301.96 251.72 299.96C263.72 297.96 264.26 295.66 264.48 300.42C264.48 300.96 265.26 312.72 266.04 316.42C266.42 318 245.56 322.84 244.28 321.8L244.26 321.78ZM295.78 307.02C295.56 308.8 295.42 309.22 294.66 309.56C292.711 310.292 290.801 311.126 288.94 312.06C285.54 314.3 283.16 314.26 280 315.28C272.68 317.68 270.76 315.7 270.78 317.52C270.764 317.798 270.857 318.071 271.04 318.28C271.48 318.72 272.5 318.56 273.92 318.56C275.749 318.657 277.579 318.385 279.3 317.76C285.48 315.76 285.86 316.58 290.6 313.76C291.6 313.14 295.3 311.76 295.48 311.64C298.08 310.52 296.92 318.54 296.94 319.52C297.14 343.3 298.42 342.7 291.38 353.76C290.62 354.759 289.615 355.543 288.462 356.037C287.309 356.532 286.047 356.719 284.8 356.58C284.4 356.58 284.26 356.92 282 350.58C278 339.62 275.56 341.18 275.62 334.18C275.62 331.18 274.92 329.22 274.62 325.32C274.516 323.64 273.936 322.023 272.948 320.66C271.96 319.297 270.604 318.242 269.04 317.62C268.12 317.14 268.58 316.6 268.1 315.14C267.84 314.36 268.54 314.78 269.24 314.84C271.4 315.02 276.46 315.04 278.22 314.06C281.18 312.38 284.08 312.62 289.46 309.7C295.22 306.58 296 306.14 295.8 307.04L295.78 307.02ZM265.78 280.74C266.06 280.355 266.236 279.903 266.288 279.43C266.341 278.956 266.269 278.477 266.08 278.04C265.94 277.22 265.64 277.26 269.82 277C271.8 277.073 273.766 277.368 275.68 277.88C278.12 278.24 279.68 279.88 284.04 282.54C289.52 285.9 292.88 298.54 294.36 304.72C287.96 307.8 276.36 314.48 268.56 312.58C266.7 312.12 267 301.6 266.24 298.2C266.14 297.68 265.76 297.14 265.88 296.7C266 296.26 268.68 295.18 267.56 292.56C266.28 289.5 265.56 290.24 265.94 289.4C267.72 284.52 265.48 281.26 266 280.76L265.78 280.74ZM265.42 293.16C265.72 293.72 265.3 294.02 264.96 294.38C263.96 295.52 262.96 295.02 260.3 295.5C258.52 295.82 254.6 297.04 252.3 297.5C252.3 297.5 237.08 300 233.06 300.04C230.44 300.04 231.58 301.02 227.62 301.3C223.66 301.58 217.24 301.84 216.42 301.9C211.38 302.26 211.16 302.72 210.3 302.02C209.12 301.1 208.62 301.4 203 301.34C200.72 301.34 197 301.14 197 301.14C195.46 301.7 192.04 300.3 189 299.14C185.58 297.76 182.52 296.5 183 296.32C184.82 295.56 185.38 295.06 186.72 295.72C191.12 297.9 190.72 299.06 198.46 298.06C198.46 298.06 207.68 295.22 209.74 296.2C212.007 297.57 214.575 298.367 217.22 298.52C221.96 298.76 222.58 298.52 224.18 297.5C228.42 294.96 225.56 297.8 236.44 297.3C244.26 296.94 251.72 290.92 253.64 290.4C255.239 290.427 256.815 290.795 258.26 291.48C260.202 292.082 262.262 292.199 264.26 291.82C265.24 291.76 265.24 292.62 265.54 293.18L265.42 293.16ZM264.38 278.44C264.52 281.94 264.16 280.92 245.58 267.4C206.66 238.98 198 215.88 150.16 158.62C149.52 157.86 147.92 156.44 147.5 155.92C147.08 155.4 147.64 155.18 148.46 154.86C149.28 154.54 149.38 154.46 150.9 155.82C157.22 161.5 173.84 185.28 194.9 210.74C209.22 228 215.16 238.12 238.7 258.1C243.768 262.351 249.113 266.26 254.7 269.8C264.18 277.04 264.1 274.98 264.5 278.46L264.38 278.44ZM272.26 216.74C269.42 212.74 264.36 209.72 262.26 206.74C261.14 205.22 262.4 204.92 261.24 199.52C259.56 191.52 260.98 190 258.84 182.46C258.56 181.54 256.96 181.28 256.84 182.46C256.84 183.24 257.4 185.8 257.96 189.72C257.986 193.241 258.354 196.751 259.06 200.2C260.92 209.08 257.06 218.9 257.28 229.22C257.7 246.84 256.16 249.22 256.76 256.96C257.26 263.5 257.74 259.3 260.54 270.6C260.68 271.14 232.84 255.64 204.24 218.98C200.56 214.28 152.86 154.68 152.98 154.64C156.28 153.52 157.14 152.9 158.68 154.32C166 161.24 171.14 168 189.58 173.1C227.58 183.44 250.4 151.58 253.58 152.02C261.58 153.2 262.52 152.54 265.96 155.84C273.02 162.62 272.42 165.02 282.18 174.34C284.42 176.48 289.9 180.76 292.9 183.26C293.78 184 293.4 183.26 288.14 191.14C284.3 196.96 282.48 201.14 279.7 205.14C274.1 213.08 274.56 219.78 272.38 216.76L272.26 216.74ZM320.14 248C309.1 246 301.62 237.28 277.22 217.1C276.06 216.16 278.14 215.28 278.9 211.6C279.445 209.758 280.387 208.058 281.66 206.62C282.88 204.88 289.96 192.62 291.26 190.62C291.72 189.9 291.72 189.88 300.06 196.74C301.1 197.6 307.02 226.32 311.12 223.56C312.82 222.42 309.12 219.68 306.8 211.24C302.6 195.46 297.9 169.4 291.12 154.44C290.44 152.94 288.32 146.78 286.86 145.1C283.54 141.22 271.04 139.94 267.82 133.24C266.88 131.24 267.38 131.96 264.16 121.94C263.64 120.28 264.16 120.08 264.44 119.76C264.72 119.44 265.8 119.76 266.18 120.18C267.154 121.376 267.919 122.728 268.44 124.18C271.42 130.72 270.34 131.66 272.44 132.18C277.12 133.5 276.12 130.68 281 131.52C282.481 131.95 283.992 132.271 285.52 132.48C286.28 132.48 287 131.3 285.72 130.8C284.522 130.125 283.204 129.69 281.84 129.52C280.48 129.52 281.84 126.32 280.64 122.6C278 114 279.72 114.12 277.2 112C275.54 110.56 273.04 108.2 271.04 108.42C269.04 108.64 269.62 109.66 267.18 114.54C265.52 117.84 263.6 118.12 264.24 115.76C265.319 112.95 266.096 110.034 266.56 107.06C267.28 103.06 270.56 102.42 272.56 103.64C275.4 105.4 274.86 104.4 278.72 106.66C283.18 109.26 280.24 100.94 281.18 86.78C281.268 84.0596 281.576 81.3508 282.1 78.68C282.1 78.34 282.28 77.16 283.12 77C283.96 76.84 284.38 77.66 284.5 79C284.94 83.8 282.98 97.4 286.66 109.3C284.96 109.3 282.94 108.82 283.44 110.42C283.54 110.72 285.96 111.08 286.02 111.08C293.48 112.12 298.34 116.08 298.98 114.62C299.42 113.58 298.22 113.1 297.1 112.62C295.98 112.14 296.82 112.26 298.78 107.26C300.24 103.5 303.78 86.96 305.9 87.26C306.56 87.26 307.1 87.6 307.08 88.56C307.08 92.32 302.3 102.4 301.22 111.62C300 121.8 302.18 115.88 300.22 135.9C299.76 140.68 303.24 141.4 309.56 154.78C309.56 154.78 317.46 172.78 319.9 177.34C325.9 188.34 334.5 204.2 336.78 214.78C337.9 219.94 337.24 236.04 336.98 237.54C335.24 246.54 326.5 249.14 320.14 248ZM279.12 128.34C279.12 129.6 278.58 128.82 275.66 130.08C274.84 130.44 272.72 130.26 272.36 129.46C271.42 127.34 272.04 127.36 270.94 124.84C270.251 123.16 269.422 121.54 268.46 120C267.92 119.12 266.6 119.14 267.26 118.4C271.26 113.98 270.44 109.96 272.16 110.74C273.726 111.603 275.149 112.703 276.38 114C277.7 114.76 276.54 116.34 278.6 123.38C279.007 125 279.182 126.67 279.12 128.34Z" fill="#000001"/>
<path d="M282.84 113.24C286.02 112.6 299.68 117.12 298.84 118.52C298.6 118.88 298.4 119.36 297.84 119.26C296.18 118.94 289.36 115.02 283.42 114.84C283.315 114.878 283.203 114.895 283.092 114.89C282.98 114.885 282.871 114.858 282.769 114.811C282.668 114.763 282.577 114.697 282.502 114.614C282.426 114.532 282.368 114.435 282.33 114.33C282.292 114.225 282.275 114.113 282.28 114.002C282.285 113.89 282.312 113.781 282.359 113.679C282.407 113.578 282.473 113.487 282.556 113.412C282.638 113.336 282.735 113.278 282.84 113.24V113.24Z" fill="#000001"/>
<path d="M291.22 132.52C290.74 139.3 299.46 138.98 297.8 140.88C297.04 141.74 296.58 141.38 296.38 141.34C286.04 138.5 288.82 130.78 292 121.24C292.52 119.66 292.94 119.64 293.6 119.78C295.54 120.18 291.62 126.84 291.22 132.52Z" fill="#000001"/>
<path d="M264.6 386.62C265.22 387.5 264.2 389.48 262.88 388.16C261.56 386.84 262.16 386.16 260.6 382.64C256.92 374.44 256.14 367.42 253.56 357.9C253.44 357.44 252.04 354.48 253.02 354.26C256.24 353.56 255.94 364.54 263.22 382.78C263.564 384.099 264.026 385.384 264.6 386.62Z" fill="#000001"/>
<path d="M252.54 225.62C252.94 226.16 252.26 226.66 251.86 226.84C249.1 228.06 244.14 232.54 228.96 230.84C218.38 229.66 217.72 227.14 212.96 225.6C212.774 225.54 212.611 225.423 212.496 225.265C212.381 225.106 212.319 224.916 212.32 224.72C212.32 224.34 212.56 224 213.48 224.02C216.9 224.14 215.92 226.16 228.18 228.28C246.38 231.42 250.32 222.74 252.54 225.62Z" fill="#000001"/>
<path d="M238.4 91.8199C239.48 92.8199 239.3 94.3999 238.64 94.6799C238.3 94.8399 238.04 94.6799 237.64 93.8799C237.24 93.0799 236.76 93.3199 236.12 94.0399C233.16 97.4799 235.42 98.2599 235.58 99.3599C235.638 99.7603 235.607 100.169 235.489 100.556C235.372 100.943 235.171 101.299 234.9 101.6C234.2 102.48 232.9 103.82 232.12 103.08C231.34 102.34 232.32 101.38 233.06 100.42C234.32 98.7799 231.88 99.0399 232.9 95.9999C233.92 92.9599 236.84 90.3599 238.4 91.8199Z" fill="#000001"/>
<path d="M226.56 79.7C226.98 80.94 225.46 81.48 224.74 80.56C222.6 77.84 220.48 74.88 214.74 77.26C212.26 78.28 211.72 74.66 217.5 74.36C219.377 73.9388 221.344 74.269 222.98 75.28C224.624 76.3232 225.881 77.8754 226.56 79.7V79.7Z" fill="#000001"/>
<path d="M219.32 384.54C220.12 387.06 217.18 387.9 216.98 385.56C216.6 380.88 214.98 376.46 214.98 372.48C214.955 366.805 214.608 361.136 213.94 355.5C213.928 355.369 213.942 355.236 213.982 355.11C214.021 354.985 214.085 354.868 214.169 354.767C214.254 354.665 214.357 354.582 214.474 354.521C214.591 354.459 214.719 354.422 214.85 354.41C214.981 354.398 215.114 354.412 215.24 354.452C215.365 354.491 215.482 354.555 215.583 354.639C215.685 354.724 215.768 354.827 215.829 354.944C215.891 355.061 215.928 355.189 215.94 355.32C217.94 368.44 216.38 370.36 218.26 378.9C218.68 380.88 219.04 383.68 219.32 384.54Z" fill="#000001"/>
<path d="M217.78 106.44C217.1 109.92 215.44 108.44 215.56 107.2C215.56 106.54 215.72 107.2 215.56 105.98C213.32 107.34 208.68 113.08 204.48 115.5C197.58 119.5 195.4 112.54 191.76 104.6C190.1 100.96 190.18 100.6 192.5 101.14C198.563 103.064 204.899 103.99 211.26 103.88C212.14 103.88 214.1 103.88 213.56 103.08C212 101.08 217.16 100.38 217.78 106.44ZM212 106.2C212.96 105.34 210 106.94 200.96 105.22C191.48 103.44 193.6 103.02 194.96 106.56C200 118.58 202.36 115.08 212 106.2Z" fill="#000001"/>
<path d="M215.64 83.66C216.36 83.92 216.64 84.76 216.28 86.46C215.92 88.16 213.38 88.12 214.02 84.84C214.038 84.6515 214.096 84.469 214.19 84.3045C214.284 84.1401 214.412 83.9974 214.565 83.8859C214.718 83.7744 214.893 83.6966 215.078 83.6577C215.264 83.6187 215.455 83.6195 215.64 83.66V83.66Z" fill="#000001"/>
<path d="M212.4 154.5C212.74 156.06 204.66 157.26 203.06 157.24C201.46 157.22 200.86 157 195.42 154.66C193.64 153.9 188.02 155.56 186.14 156.14C184.26 156.72 183.26 155.36 185.92 154.66C193.2 152.66 194.16 151.92 198.58 154.12C201.28 155.46 201.56 155.5 202.26 155.54C208.56 155.8 212 152.58 212.4 154.5Z" fill="#000001"/>
<path d="M208.38 93.2199C209.88 93.2199 209.52 96.2599 207.2 96.7599C206.728 96.8418 206.244 96.8159 205.783 96.6843C205.322 96.5527 204.898 96.3188 204.54 95.9999C204.18 95.7399 204.02 95.9999 203.6 96.3799C197.78 100.64 190.96 91.8999 197.8 86.3799C198.931 85.5076 199.773 84.3163 200.22 82.9599C200.78 82.1999 201.52 82.6199 201.58 83.3799C201.699 84.1597 201.616 84.9569 201.339 85.6956C201.063 86.4343 200.602 87.0899 200 87.5999C198.24 89.2399 196.84 90.2799 197.38 92.7199C197.573 93.2951 197.924 93.8041 198.394 94.1883C198.863 94.5724 199.432 94.8162 200.034 94.8914C200.636 94.9667 201.246 94.8703 201.796 94.6135C202.346 94.3567 202.812 93.9499 203.14 93.4399C204.56 91.4399 204.46 93.9599 206.22 94.6399C207 94.9399 207.28 94.2999 207.54 93.9399C207.8 93.5799 207.74 93.2599 208.38 93.2199Z" fill="#000001"/>
<path d="M190.34 67.82C195.76 65.82 200.48 68.52 199.2 70.46C197.92 72.4 195.62 67.56 190.64 69.98C187.54 71.48 187.76 73.1 187.16 73.28C184.68 74 185.86 69.42 190.34 67.82Z" fill="#000001"/>
<path d="M194 79.4599C194.86 79.1999 195.72 80.1799 195.6 81.4599C195.6 82.3799 194.96 83.4599 194.02 83.2799C193.58 83.2799 192.92 82.5399 192.94 81.2799C192.96 80.0199 193.34 79.6199 194 79.4599Z" fill="#000001"/>
<path d="M194.46 224.16C194.46 224.402 194.367 224.636 194.199 224.811C194.031 224.986 193.802 225.09 193.56 225.1C191.41 225.627 189.224 225.994 187.02 226.2C187.02 226.2 177.84 227.2 177.84 227.24C154.28 224.72 156.34 218.08 158.24 219.14C159.853 220.32 161.615 221.281 163.48 222C173.32 224.96 171.7 225.38 187.84 224C190.64 223.84 194.36 222 194.46 224.16Z" fill="#000001"/>
<path d="M173.48 352C174.82 351.82 174.68 353.34 175 355.56C174.3 362.82 171 369.7 171.28 374.68C171.78 382.2 170.08 381.3 170.48 385.34C170.48 385.86 170.48 387.22 169.64 387.34C168.04 387.48 168.02 385.9 167.82 383.8C168.752 381.178 169.16 378.399 169.02 375.62C168.14 368.7 173.8 358.12 172.78 354.08C172.56 353.26 172.54 352.16 173.48 352Z" fill="#000001"/>
</svg>
