<svg width="400" height="400" viewBox="0 0 400 400" fill="none" xmlns="http://www.w3.org/2000/svg">
<path d="M39.5879 213.444C39.5879 255.879 56.445 296.575 86.4508 326.581C116.457 356.587 157.153 373.444 199.588 373.444C242.023 373.444 282.719 356.587 312.725 326.581C342.731 296.575 359.588 255.879 359.588 213.444C359.588 171.009 342.731 130.313 312.725 100.307C282.719 70.3011 242.023 53.444 199.588 53.444C157.153 53.444 116.457 70.3011 86.4508 100.307C56.445 130.313 39.5879 171.009 39.5879 213.444Z" fill="#D9EDFF"/>
<path d="M37.208 336.352C37.208 338.019 53.666 339.617 82.9614 340.795C112.257 341.974 151.99 342.636 193.42 342.636C234.85 342.636 274.583 341.974 303.879 340.795C333.174 339.617 349.632 338.019 349.632 336.352C349.632 334.685 333.174 333.087 303.879 331.909C274.583 330.73 234.85 330.068 193.42 330.068C151.99 330.068 112.257 330.73 82.9614 331.909C53.666 333.087 37.208 334.685 37.208 336.352Z" fill="#B0D9FF"/>
<path d="M229.096 306.636C218.092 306.636 204.604 344.928 165.868 328.944C147.488 321.344 111.928 344.252 98.3559 322.144C97.5559 320.844 96.6079 319.172 96.6079 319.172C126.072 321.952 118.48 298.032 153.008 305.428C154.829 305.782 156.707 305.718 158.5 305.243C160.294 304.768 161.957 303.893 163.364 302.684C164.785 301.499 165.931 300.017 166.72 298.343C167.509 296.669 167.922 294.843 167.932 292.992C167.94 291.201 167.595 289.425 166.915 287.768C166.235 286.11 165.235 284.604 163.971 283.334C162.708 282.064 161.205 281.057 159.551 280.369C157.897 279.682 156.123 279.328 154.332 279.328H147.656C135.825 279.314 124.483 274.609 116.117 266.244C107.751 257.88 103.044 246.538 103.028 234.708C103.039 228.838 104.235 223.031 106.544 217.634C108.853 212.238 112.227 207.362 116.464 203.3C118.163 201.682 119.392 199.633 120.019 197.372C120.647 195.111 120.65 192.723 120.028 190.46C118.584 185.176 118.86 157.924 134.492 157.924L140.04 178.832C144.256 194.248 149.016 214.272 137.464 225.296C136.194 226.513 135.183 227.974 134.491 229.592C133.799 231.209 133.44 232.949 133.436 234.708C133.44 238.478 134.94 242.093 137.606 244.758C140.271 247.424 143.886 248.924 147.656 248.928C150.327 248.93 152.972 248.406 155.44 247.385C157.908 246.365 160.151 244.868 162.04 242.98C163.93 241.092 165.428 238.85 166.451 236.383C167.474 233.916 168 231.271 168 228.6V142.308C168 134.282 169.581 126.334 172.652 118.918C175.724 111.503 180.226 104.765 185.902 99.0896C191.577 93.4141 198.315 88.9121 205.73 85.8405C213.146 82.7689 221.094 81.188 229.12 81.188C237.146 81.188 245.094 82.7689 252.51 85.8405C259.925 88.9121 266.663 93.4141 272.338 99.0896C278.014 104.765 282.516 111.503 285.587 118.918C288.659 126.334 290.24 134.282 290.24 142.308V228.6C290.24 233.991 292.382 239.162 296.194 242.974C300.006 246.786 305.177 248.928 310.568 248.928C314.338 248.924 317.952 247.424 320.617 244.758C323.282 242.092 324.781 238.478 324.784 234.708C324.78 232.949 324.421 231.209 323.729 229.592C323.037 227.974 322.026 226.513 320.756 225.296C309.204 214.272 313.956 194.248 318.184 178.832L323.732 157.924C339.364 157.924 339.64 185.176 338.192 190.46C337.571 192.723 337.574 195.111 338.202 197.372C338.829 199.633 340.057 201.681 341.756 203.3C345.994 207.362 349.368 212.237 351.678 217.634C353.987 223.031 355.184 228.838 355.196 234.708C355.182 246.543 350.474 257.888 342.104 266.255C333.734 274.622 322.387 279.326 310.552 279.336H303.888C302.097 279.336 300.323 279.69 298.669 280.377C297.014 281.065 295.512 282.072 294.249 283.342C292.985 284.612 291.984 286.118 291.305 287.776C290.625 289.433 290.279 291.209 290.288 293C290.295 294.851 290.708 296.678 291.498 298.352C292.287 300.027 293.433 301.508 294.856 302.692C296.262 303.901 297.924 304.776 299.717 305.251C301.51 305.726 303.387 305.79 305.208 305.436C339.724 298.04 332.132 321.96 361.608 319.18C361.608 319.18 360.66 320.852 359.86 322.152C346.288 344.252 310.728 321.352 292.352 328.952C253.616 344.952 240.124 306.644 229.124 306.644L229.096 306.636Z" fill="#B0D9FF" stroke="#020064" stroke-width="4" stroke-linecap="round" stroke-linejoin="round"/>
<path d="M229.096 306.636C218.092 306.636 204.604 344.928 165.868 328.944C147.488 321.344 111.928 344.252 98.3559 322.144C97.5559 320.844 96.6079 319.172 96.6079 319.172C117.18 333.444 131.744 309.972 166.712 316.828C216.368 326.572 197.276 297.656 229.112 306.628" fill="white"/>
<path d="M229.096 306.636C218.092 306.636 204.604 344.928 165.868 328.944C147.488 321.344 111.928 344.252 98.3559 322.144C97.5559 320.844 96.6079 319.172 96.6079 319.172C117.18 333.444 131.744 309.972 166.712 316.828C216.368 326.572 197.276 297.656 229.112 306.628" stroke="#020064" stroke-width="4" stroke-linecap="round" stroke-linejoin="round"/>
<path d="M291.512 316.836C241.856 326.58 260.948 297.664 229.112 306.636C240.112 306.636 253.604 344.928 292.34 328.944C310.716 321.344 346.276 344.252 359.848 322.144C360.648 320.844 361.596 319.172 361.596 319.172C340.944 333.676 326.564 309.956 291.512 316.836Z" fill="white" stroke="#020064" stroke-width="4" stroke-linecap="round" stroke-linejoin="round"/>
<path d="M229.104 200.104C234.959 200.23 240.662 198.234 245.161 194.485C249.66 190.736 252.652 185.486 253.584 179.704C253.628 179.356 253.587 179.002 253.465 178.673C253.342 178.344 253.141 178.05 252.88 177.816C252.611 177.576 252.292 177.398 251.946 177.296C251.6 177.195 251.236 177.171 250.88 177.228C236.467 179.536 221.778 179.536 207.364 177.228C207.008 177.171 206.644 177.194 206.297 177.296C205.951 177.397 205.633 177.575 205.364 177.816C205.102 178.05 204.901 178.344 204.777 178.673C204.654 179.002 204.612 179.355 204.656 179.704C205.588 185.48 208.575 190.725 213.067 194.473C217.56 198.222 223.255 200.221 229.104 200.104Z" fill="white" stroke="#020064" stroke-width="4" stroke-linecap="round" stroke-linejoin="round"/>
<path d="M322.168 198.468C322.168 200.129 322.638 201.723 323.474 202.897C324.311 204.072 325.445 204.732 326.628 204.732C327.811 204.732 328.945 204.072 329.782 202.897C330.618 201.723 331.088 200.129 331.088 198.468C331.088 196.807 330.618 195.213 329.782 194.039C328.945 192.864 327.811 192.204 326.628 192.204C325.445 192.204 324.311 192.864 323.474 194.039C322.638 195.213 322.168 196.807 322.168 198.468Z" fill="white" stroke="#020064" stroke-width="4" stroke-linecap="round" stroke-linejoin="round"/>
<path d="M334.039 228.004C334.5 229.6 335.394 231.001 336.523 231.897C337.653 232.794 338.926 233.113 340.062 232.785C341.199 232.457 342.105 231.508 342.583 230.147C343.061 228.787 343.07 227.125 342.609 225.529C342.148 223.933 341.255 222.533 340.125 221.636C338.996 220.74 337.723 220.421 336.586 220.749C335.45 221.077 334.543 222.026 334.065 223.386C333.588 224.747 333.578 226.408 334.039 228.004Z" fill="white" stroke="#020064" stroke-width="4" stroke-linecap="round" stroke-linejoin="round"/>
<path d="M324.25 261.462C325.063 262.321 326.322 262.692 327.75 262.492C329.178 262.292 330.659 261.539 331.865 260.397C333.072 259.255 333.907 257.819 334.185 256.404C334.464 254.989 334.163 253.712 333.351 252.852C332.538 251.993 331.279 251.623 329.85 251.822C328.422 252.022 326.942 252.776 325.735 253.917C324.528 255.059 323.694 256.495 323.415 257.91C323.137 259.325 323.437 260.603 324.25 261.462Z" fill="white" stroke="#020064" stroke-width="4" stroke-linecap="round" stroke-linejoin="round"/>
<path d="M199.272 131.484C199.272 139.396 202.415 146.984 208.01 152.578C213.604 158.173 221.192 161.316 229.104 161.316C237.016 161.316 244.604 158.173 250.198 152.578C255.793 146.984 258.936 139.396 258.936 131.484C258.936 123.572 255.793 115.984 250.198 110.39C244.604 104.795 237.016 101.652 229.104 101.652C221.192 101.652 213.604 104.795 208.01 110.39C202.415 115.984 199.272 123.572 199.272 131.484Z" fill="white" stroke="#020064" stroke-width="4" stroke-linecap="round" stroke-linejoin="round"/>
<path d="M216.728 131.484C216.728 134.766 218.032 137.914 220.353 140.235C222.674 142.556 225.822 143.86 229.104 143.86C232.386 143.86 235.534 142.556 237.855 140.235C240.176 137.914 241.48 134.766 241.48 131.484C241.48 128.202 240.176 125.054 237.855 122.733C235.534 120.412 232.386 119.108 229.104 119.108C225.822 119.108 222.674 120.412 220.353 122.733C218.032 125.054 216.728 128.202 216.728 131.484Z" fill="#B0D9FF" stroke="#020064" stroke-width="4" stroke-linecap="round" stroke-linejoin="round"/>
<path d="M197.752 228.148C197.759 225.995 196.999 223.91 195.609 222.266C194.218 220.622 192.287 219.528 190.163 219.178C188.038 218.829 185.859 219.247 184.015 220.359C182.171 221.47 180.783 223.202 180.1 225.244C177.756 230.932 171.096 232.692 168.252 224.92C167.662 223.374 166.661 222.019 165.356 221C164.051 219.982 162.493 219.341 160.85 219.144C159.207 218.948 157.541 219.204 156.033 219.886C154.525 220.568 153.232 221.649 152.295 223.013C151.357 224.376 150.81 225.97 150.712 227.622C150.615 229.274 150.971 230.921 151.742 232.386C152.514 233.85 153.671 235.075 155.088 235.929C156.505 236.784 158.129 237.234 159.784 237.232L164.216 251.156V272.092C164.161 275.007 162.964 277.785 160.883 279.827C158.801 281.869 156.002 283.013 153.086 283.013C150.17 283.013 147.371 281.869 145.29 279.827C143.208 277.785 142.011 275.007 141.956 272.092C141.95 262.412 138.1 253.13 131.252 246.287C124.405 239.444 115.121 235.6 105.44 235.6H90.1881C80.5042 235.6 71.2168 239.447 64.3688 246.294C57.5209 253.141 53.6732 262.428 53.6721 272.112V301.16C53.6728 305.275 55.2798 309.227 58.1511 312.174C61.0223 315.122 64.9308 316.832 69.0441 316.94V347.872C68.2518 347.636 67.4307 347.511 66.6041 347.5C64.8201 347.492 63.0727 348.006 61.5775 348.98C60.0823 349.953 58.9046 351.342 58.1896 352.977C57.4747 354.612 57.2537 356.42 57.5539 358.178C57.8542 359.937 58.6626 361.569 59.8794 362.874C61.0962 364.178 62.6682 365.099 64.4016 365.521C66.135 365.943 67.9541 365.848 69.6344 365.249C71.3147 364.649 72.7829 363.571 73.8579 362.147C74.9329 360.724 75.5678 359.016 75.6841 357.236H75.8041C75.9066 358.788 76.4043 360.287 77.2498 361.592C78.0953 362.897 79.2606 363.964 80.6348 364.692C82.009 365.419 83.5465 365.783 85.1011 365.749C86.6557 365.715 88.1757 365.283 89.5165 364.496C90.8574 363.709 91.9745 362.591 92.7617 361.25C93.549 359.909 93.9801 358.389 94.0141 356.835C94.0482 355.28 93.684 353.743 92.9562 352.369C92.2284 350.994 91.1612 349.829 89.8561 348.984V326.268C89.8561 324.281 90.6455 322.375 92.0505 320.97C93.4555 319.565 95.3611 318.776 97.3481 318.776C99.3351 318.776 101.241 319.565 102.646 320.97C104.051 322.375 104.84 324.281 104.84 326.268V348.108C103.287 348.704 101.927 349.713 100.906 351.026C99.8851 352.34 99.2423 353.907 99.0472 355.559C98.852 357.21 99.1119 358.884 99.7988 360.399C100.486 361.914 101.573 363.212 102.945 364.154C104.316 365.095 105.918 365.645 107.578 365.742C109.239 365.839 110.894 365.481 112.366 364.706C113.838 363.93 115.07 362.768 115.929 361.344C116.788 359.919 117.241 358.287 117.24 356.624C117.237 358.424 117.765 360.185 118.758 361.685C119.751 363.186 121.165 364.361 122.823 365.061C124.481 365.762 126.309 365.957 128.077 365.623C129.846 365.289 131.476 364.44 132.764 363.183C134.052 361.926 134.94 360.316 135.317 358.556C135.694 356.796 135.543 354.964 134.883 353.29C134.223 351.616 133.084 350.173 131.607 349.144C130.131 348.115 128.383 347.544 126.584 347.504V272.092C126.584 275.572 127.27 279.018 128.601 282.233C129.933 285.448 131.885 288.37 134.346 290.83C136.807 293.291 139.728 295.243 142.943 296.575C146.158 297.907 149.604 298.592 153.084 298.592C156.564 298.592 160.01 297.907 163.225 296.575C166.44 295.243 169.362 293.291 171.822 290.83C174.283 288.37 176.235 285.448 177.567 282.233C178.899 279.018 179.584 275.572 179.584 272.092V251.156C182.629 246.692 185.332 242.004 187.668 237.132C188.001 237.184 188.336 237.217 188.672 237.232C189.865 237.232 191.046 236.997 192.148 236.54C193.25 236.084 194.251 235.415 195.094 234.571C195.937 233.728 196.606 232.726 197.062 231.624C197.518 230.522 197.753 229.341 197.752 228.148Z" fill="#B0D9FF" stroke="#020064" stroke-width="4" stroke-linecap="round" stroke-linejoin="round"/>
<path d="M69.0439 316.924V265.28" stroke="#020064" stroke-width="4" stroke-linecap="round" stroke-linejoin="round"/>
<path d="M147.036 183.168C147.036 208.58 105.948 241.684 97.8119 241.684C89.6759 241.684 48.5879 208.58 48.5879 183.168C48.5879 157.756 70.6279 140.4 97.8119 140.4C124.996 140.4 147.036 157.752 147.036 183.168Z" fill="#B0D9FF" stroke="#020064" stroke-width="4" stroke-linecap="round" stroke-linejoin="round"/>
<path d="M105.772 219.6C103.661 221.71 100.797 222.896 97.812 222.896C94.8267 222.896 91.9635 221.71 89.8521 219.6" stroke="#020064" stroke-width="4" stroke-linecap="round" stroke-linejoin="round"/>
<path d="M111.489 200.808C114.299 202.279 117.731 202.282 121.03 200.816C124.33 199.35 127.225 196.536 129.081 192.991C130.936 189.447 131.599 185.464 130.924 181.917C130.249 178.371 128.291 175.552 125.481 174.081C122.67 172.61 119.238 172.607 115.939 174.073C112.64 175.539 109.744 178.353 107.889 181.898C106.033 185.442 105.37 189.425 106.046 192.972C106.721 196.518 108.679 199.337 111.489 200.808Z" fill="white" stroke="#020064" stroke-width="4" stroke-linecap="round" stroke-linejoin="round"/>
<path d="M66.5376 192.991C68.393 196.535 71.2887 199.35 74.5878 200.816C77.8869 202.282 81.3191 202.279 84.1293 200.807C86.9395 199.336 88.8976 196.518 89.5727 192.971C90.2478 189.425 89.5848 185.441 87.7294 181.897C85.874 178.353 82.9782 175.538 79.6791 174.072C76.38 172.606 72.9479 172.609 70.1377 174.08C67.3274 175.551 65.3694 178.37 64.6942 181.917C64.0191 185.463 64.6822 189.447 66.5376 192.991Z" fill="white" stroke="#020064" stroke-width="4" stroke-linecap="round" stroke-linejoin="round"/>
<path d="M170.088 77.544C170.088 81.616 158.816 84.156 157.812 87.912C156.772 91.8 165.232 99.628 163.264 103.032C161.296 106.436 150.24 103.056 147.436 105.86C144.632 108.664 148.064 119.688 144.612 121.684C141.16 123.68 133.38 115.192 129.492 116.232C125.736 117.236 123.196 128.508 119.124 128.508C115.052 128.508 112.508 117.236 108.752 116.232C104.864 115.192 97.0359 123.652 93.6319 121.684C90.2279 119.716 93.6079 108.66 90.8079 105.856C88.0079 103.052 76.9799 106.484 74.9799 103.032C72.9799 99.58 81.4719 91.8 80.4319 87.912C79.4279 84.156 68.1599 81.616 68.1599 77.544C68.1599 73.472 79.4279 70.928 80.4319 67.172C81.4719 63.284 73.0119 55.456 74.9839 52.052C76.9559 48.648 87.9999 52.028 90.7999 49.224C93.5999 46.42 90.1719 35.4 93.6239 33.4C97.0759 31.4 104.856 39.892 108.744 38.852C112.5 37.848 115.04 26.576 119.116 26.576C123.192 26.576 125.728 37.848 129.488 38.852C133.376 39.892 141.204 31.432 144.608 33.404C148.012 35.376 144.608 46.424 147.432 49.228C150.256 52.032 161.26 48.6 163.256 52.052C165.252 55.504 156.764 63.284 157.804 67.172C158.8 70.928 170.088 73.468 170.088 77.544Z" fill="#B0D9FF" stroke="#020064" stroke-width="4" stroke-linecap="round" stroke-linejoin="round"/>
<path d="M94.7241 70.232C94.7241 71.731 95.3196 73.1686 96.3796 74.2286C97.4395 75.2885 98.8771 75.884 100.376 75.884C101.875 75.884 103.313 75.2885 104.373 74.2286C105.433 73.1686 106.028 71.731 106.028 70.232C106.028 68.733 105.433 67.2954 104.373 66.2354C103.313 65.1755 101.875 64.58 100.376 64.58C98.8771 64.58 97.4395 65.1755 96.3796 66.2354C95.3196 67.2954 94.7241 68.733 94.7241 70.232Z" fill="#020064"/>
<path d="M132.22 70.232C132.22 71.731 132.815 73.1686 133.875 74.2286C134.935 75.2885 136.373 75.884 137.872 75.884C139.371 75.884 140.809 75.2885 141.869 74.2286C142.928 73.1686 143.524 71.731 143.524 70.232C143.524 68.733 142.928 67.2954 141.869 66.2354C140.809 65.1755 139.371 64.58 137.872 64.58C136.373 64.58 134.935 65.1755 133.875 66.2354C132.815 67.2954 132.22 68.733 132.22 70.232Z" fill="#020064"/>
<path d="M119.124 95.728C121.995 95.7914 124.791 94.8137 126.997 92.9755C129.203 91.1374 130.669 88.563 131.124 85.728C131.146 85.5577 131.126 85.3847 131.066 85.2238C131.006 85.0629 130.908 84.9188 130.78 84.804C130.647 84.6857 130.489 84.5985 130.319 84.5487C130.148 84.4989 129.968 84.4877 129.792 84.516C122.731 85.648 115.534 85.648 108.472 84.516C108.296 84.486 108.116 84.4963 107.945 84.5462C107.774 84.5961 107.616 84.6843 107.484 84.804C107.356 84.9184 107.257 85.0623 107.196 85.2232C107.136 85.3841 107.115 85.5573 107.136 85.728C107.592 88.5605 109.056 91.1328 111.259 92.9705C113.463 94.8083 116.256 95.7876 119.124 95.728Z" fill="white" stroke="#020064" stroke-width="4" stroke-linecap="round" stroke-linejoin="round"/>
</svg>
