<svg width="400" height="400" viewBox="0 0 400 400" fill="none" xmlns="http://www.w3.org/2000/svg">
<path d="M44.375 81.25H231.25C238.125 81.25 243.75 86.875 243.75 93.75V193.75C243.75 200.625 238.125 206.25 231.25 206.25H44.375C37.5 206.25 31.875 200.625 31.875 193.75V93.75C31.875 86.875 37.5 81.25 44.375 81.25Z" fill="#D6DCDC"/>
<path d="M141.875 130L155.625 153.75C156.875 156.25 156.25 158.75 153.75 160C153.125 160.625 152.5 160.625 151.25 160.625H124.375C121.875 160.625 119.375 158.75 119.375 156.25C119.375 155.625 119.375 154.375 120 153.75L133.75 130C135 127.5 138.125 126.875 140 128.125C141.25 128.75 141.875 129.375 141.875 130ZM181.25 125H206.25C210 125 212.5 127.5 212.5 131.25V156.25C212.5 160 210 162.5 206.25 162.5H181.25C177.5 162.5 175 160 175 156.25V131.25C175 127.5 177.5 125 181.25 125Z" fill="white"/>
<path d="M81.875 162.5C92.2303 162.5 100.625 154.105 100.625 143.75C100.625 133.395 92.2303 125 81.875 125C71.5197 125 63.125 133.395 63.125 143.75C63.125 154.105 71.5197 162.5 81.875 162.5Z" fill="white"/>
<path d="M81.25 243.75H143.75C164.375 243.75 181.25 260.625 181.25 281.25V356.25H43.75V281.25C43.75 260.625 60.625 243.75 81.25 243.75Z" fill="#231F20" stroke="#231F20" stroke-width="6.25" stroke-linecap="round" stroke-linejoin="round"/>
<path d="M212.5 325V312.5C212.5 285 190 262.5 162.5 262.5H25V281.25C25 295 36.25 306.25 50 306.25H75V356.25H243.75C250.625 356.25 256.25 350.625 256.25 343.75C256.25 333.125 248.125 325 237.5 325H212.5Z" fill="#FF366A" stroke="#231F20" stroke-width="6.25" stroke-linecap="round" stroke-linejoin="round"/>
<path d="M159.375 262.5V290.625C159.375 302.5 149.375 312.5 137.5 312.5C125.625 312.5 115.625 302.5 115.625 290.625V262.5H159.375Z" stroke="#231F20" stroke-width="6.25" stroke-linecap="round" stroke-linejoin="round"/>
<path d="M125 262.5L137.5 287.5L150 262.5H125ZM256.25 343.75C256.25 333.125 248.125 325 237.5 325H187.5V343.75C187.5 350.625 193.125 356.25 200 356.25H243.75C250.625 356.25 256.25 350.625 256.25 343.75Z" fill="#FCE9C3" stroke="#231F20" stroke-width="6.25" stroke-linecap="round" stroke-linejoin="round"/>
<path d="M187.5 306.25V356.25H212.5" stroke="#231F20" stroke-width="6.25" stroke-linecap="round" stroke-linejoin="round"/>
<path d="M50 187.5C46.25 187.5 43.75 190 43.75 193.75V206.25C33.125 206.25 25 214.375 25 225V281.25C25 295 36.25 306.25 50 306.25H56.25V193.75C56.25 190 53.75 187.5 50 187.5Z" fill="#FCE9C3" stroke="#231F20" stroke-width="6.25" stroke-linecap="round" stroke-linejoin="round"/>
<path d="M43.75 231.25C40 231.25 37.5 228.75 37.5 225C37.5 221.25 40 218.75 43.75 218.75H46.875C51.875 218.75 56.25 223.125 56.25 228.125V231.25" stroke="#231F20" stroke-width="6.25" stroke-linecap="round" stroke-linejoin="round"/>
<path d="M84.375 181.25C93.0044 181.25 100 174.254 100 165.625C100 156.996 93.0044 150 84.375 150C75.7456 150 68.75 156.996 68.75 165.625C68.75 174.254 75.7456 181.25 84.375 181.25Z" fill="#9B6C33" stroke="#231F20" stroke-width="6.25" stroke-linecap="round" stroke-linejoin="round"/>
<path d="M190.625 181.25C199.254 181.25 206.25 174.254 206.25 165.625C206.25 156.996 199.254 150 190.625 150C181.996 150 175 156.996 175 165.625C175 174.254 181.996 181.25 190.625 181.25Z" fill="#9B6C33" stroke="#231F20" stroke-width="6.25" stroke-linecap="round" stroke-linejoin="round"/>
<path d="M75 306.25H87.5" stroke="#231F20" stroke-width="6.25" stroke-linecap="round" stroke-linejoin="round"/>
<path d="M137.5 262.5C168.566 262.5 193.75 237.316 193.75 206.25C193.75 175.184 168.566 150 137.5 150C106.434 150 81.25 175.184 81.25 206.25C81.25 237.316 106.434 262.5 137.5 262.5Z" fill="#FCE9C3" stroke="#231F20" stroke-width="6.25" stroke-linecap="round" stroke-linejoin="round"/>
<path d="M125 228.125C125 236.875 131.875 243.75 140.625 243.75C149.375 243.75 156.25 236.875 156.25 228.125H125Z" fill="#231F20" stroke="#231F20" stroke-width="6.25" stroke-linecap="round" stroke-linejoin="round"/>
<path d="M140.625 243.75C147.529 243.75 153.125 240.952 153.125 237.5C153.125 234.048 147.529 231.25 140.625 231.25C133.721 231.25 128.125 234.048 128.125 237.5C128.125 240.952 133.721 243.75 140.625 243.75Z" fill="#FF3446" stroke="#231F20" stroke-width="6.25" stroke-linecap="round" stroke-linejoin="round"/>
<path d="M137.5 150C106.25 150 81.25 175 81.25 206.25C112.5 206.25 137.5 181.25 137.5 150ZM137.5 150C168.75 150 193.75 175 193.75 206.25C162.5 206.25 137.5 181.25 137.5 150Z" fill="#9B6C33" stroke="#231F20" stroke-width="6.25" stroke-linecap="round" stroke-linejoin="round"/>
<path d="M106.25 237.5C109.702 237.5 112.5 234.702 112.5 231.25C112.5 227.798 109.702 225 106.25 225C102.798 225 100 227.798 100 231.25C100 234.702 102.798 237.5 106.25 237.5Z" fill="#FCBE9D"/>
<path d="M175 237.5C178.452 237.5 181.25 234.702 181.25 231.25C181.25 227.798 178.452 225 175 225C171.548 225 168.75 227.798 168.75 231.25C168.75 234.702 171.548 237.5 175 237.5Z" fill="#FCBE9D"/>
<path d="M121.875 184.375C130.625 184.375 137.5 191.25 137.5 200C137.5 208.75 130.625 215.625 121.875 215.625C113.125 215.625 106.25 208.75 106.25 200C106.25 191.25 113.125 184.375 121.875 184.375Z" fill="white" stroke="#231F20" stroke-width="6.25" stroke-linecap="round" stroke-linejoin="round"/>
<path d="M125 198.75V201.25" stroke="#231F20" stroke-width="6.25" stroke-linecap="round" stroke-linejoin="round"/>
<path d="M165.625 184.375C174.375 184.375 181.25 191.25 181.25 200C181.25 208.75 174.375 215.625 165.625 215.625C156.875 215.625 150 208.75 150 200C150 191.25 156.875 184.375 165.625 184.375Z" fill="white" stroke="#231F20" stroke-width="6.25" stroke-linecap="round" stroke-linejoin="round"/>
<path d="M106.25 200L81.25 206.25M181.25 200L193.75 206.25L181.25 200ZM165.625 198.75V201.25V198.75ZM137.5 200H150H137.5Z" stroke="#231F20" stroke-width="6.25" stroke-linecap="round" stroke-linejoin="round"/>
<path d="M100 356.25H37.5C30.625 356.25 25 350.625 25 343.75C25 336.875 30.625 331.25 37.5 331.25H100V356.25Z" fill="#21CE62" stroke="#231F20" stroke-width="6.25" stroke-linecap="round" stroke-linejoin="round"/>
<path d="M137.5 356.25H87.5C80.625 356.25 75 350.625 75 343.75C75 336.875 80.625 331.25 87.5 331.25H137.5V356.25Z" fill="white" stroke="#231F20" stroke-width="6.25" stroke-linecap="round" stroke-linejoin="round"/>
<path d="M18.75 356.25H381.25C388.125 356.25 393.75 361.875 393.75 368.75V381.25C393.75 388.125 388.125 393.75 381.25 393.75H18.75C11.875 393.75 6.25 388.125 6.25 381.25V368.75C6.25 361.875 11.875 356.25 18.75 356.25Z" fill="#FF8C00" stroke="#231F20" stroke-width="6.94375" stroke-linecap="round" stroke-linejoin="round"/>
<path d="M68.75 356.25H381.25C388.125 356.25 393.75 361.875 393.75 368.75V381.25C393.75 388.125 388.125 393.75 381.25 393.75H68.75C61.875 393.75 56.25 388.125 56.25 381.25V368.75C56.25 361.875 61.875 356.25 68.75 356.25Z" fill="#FFC800" stroke="#231F20" stroke-width="6.25" stroke-linecap="round" stroke-linejoin="round"/>
<path d="M212.5 193.75H375C381.875 193.75 387.5 199.375 387.5 206.25V318.75C387.5 325.625 381.875 331.25 375 331.25H212.5C205.625 331.25 200 325.625 200 318.75V206.25C200 199.375 205.625 193.75 212.5 193.75Z" fill="white" stroke="#231F20" stroke-width="6.25" stroke-linecap="round" stroke-linejoin="round"/>
<path d="M206.25 193.75H381.25C388.125 193.75 393.75 199.375 393.75 206.25V318.75C393.75 325.625 388.125 331.25 381.25 331.25H206.25C199.375 331.25 193.75 325.625 193.75 318.75V206.25C193.75 199.375 199.375 193.75 206.25 193.75Z" fill="#CCCCCC" stroke="#231F20" stroke-width="6.25" stroke-linecap="round" stroke-linejoin="round"/>
<path d="M218.75 193.75H381.25C388.125 193.75 393.75 199.375 393.75 206.25V318.75C393.75 325.625 388.125 331.25 381.25 331.25H218.75C211.875 331.25 206.25 325.625 206.25 318.75V206.25C206.25 199.375 211.875 193.75 218.75 193.75Z" fill="#E6E6E6" stroke="#231F20" stroke-width="6.25" stroke-linecap="round" stroke-linejoin="round"/>
<path d="M318.75 343.75C318.75 350.625 313.125 356.25 306.25 356.25H268.75C275.625 356.25 281.25 350.625 281.25 343.75V312.5C281.25 305.625 286.875 300 293.75 300H306.25C313.125 300 318.75 305.625 318.75 312.5V343.75Z" fill="#B3B3B3" stroke="#231F20" stroke-width="6.25" stroke-linecap="round" stroke-linejoin="round"/>
<path d="M250 240.625H350C353.75 240.625 356.25 243.125 356.25 246.875V253.125C356.25 256.875 353.75 259.375 350 259.375H250C246.25 259.375 243.75 256.875 243.75 253.125V246.875C243.75 243.125 246.25 240.625 250 240.625Z" fill="white"/>
<path d="M325 137.5H268.75L241.875 164.375C239.375 166.875 235.625 166.875 233.125 164.375C231.875 163.125 231.25 161.875 231.25 160V137.5H200C186.25 137.5 175 126.25 175 112.5V31.25C175 17.5 186.25 6.25 200 6.25H325C338.75 6.25 350 17.5 350 31.25V112.5C350 126.25 338.75 137.5 325 137.5Z" fill="white" stroke="#231F20" stroke-width="6.25" stroke-linecap="round" stroke-linejoin="round"/>
<path d="M270.625 27.5C270.625 24.375 268.125 21.875 265 21.875C263.125 21.875 261.25 22.5 260.625 24.375L226.25 73.75C224.375 76.25 225 80 227.5 81.25C228.125 81.875 229.375 82.5 230.625 82.5H253.75V116.25C253.75 119.375 256.25 121.875 259.375 121.875C261.25 121.875 263.125 121.25 263.75 119.375L298.125 68.75C300 66.25 299.375 62.5 296.875 61.25C296.25 60.625 295 60 293.75 60H270.625V27.5Z" fill="#FFC800"/>
</svg>
