<svg width="400" height="400" viewBox="0 0 400 400" fill="none" xmlns="http://www.w3.org/2000/svg">
<path d="M387.366 167.392H380.96V241.718H387.366V167.392Z" fill="#FFE8BB"/>
<path d="M208.234 249.2L206.19 247.114C195.966 246.314 180.43 242.21 170.59 230.06C170.015 229.352 169.487 228.606 169.012 227.828C168.13 226.408 167.509 224.842 167.18 223.204C165.508 214.438 174.57 208.058 178.838 207.014C184.208 205.716 193.448 207.404 197.172 208.194C198.192 208.414 198.802 208.558 198.802 208.558C199.468 208.61 200.136 208.61 200.802 208.558C201.26 208.532 201.752 208.498 202.278 208.456C202.448 208.456 202.618 208.44 202.796 208.422C202.898 208.422 202.996 208.422 203.102 208.406C205.128 208.264 207.162 208.29 209.184 208.482C209.762 208.542 210.364 208.626 210.984 208.728C211.322 208.788 211.662 208.856 212.01 208.928C212.29 208.988 212.57 209.056 212.858 209.128C213.07 209.18 213.282 209.238 213.494 209.298C213.928 209.416 214.36 209.544 214.792 209.688C214.812 209.696 214.832 209.702 214.852 209.706C215.052 209.772 215.252 209.84 215.452 209.918V209.908C218.564 211.06 221.448 212.752 223.97 214.908C226.32 216.894 228.908 218.964 231.598 221.026C235.198 223.776 238.98 226.516 242.678 229.01C242.678 229.01 244.02 229.266 246.022 229.52L246.048 229.308V204.616H295.106C303.106 221.616 315.64 252.462 324.524 277.204C333.764 302.93 363.46 347.864 369.484 362.882C376.654 380.734 376.654 390.682 376.654 390.682H271.14C271.186 386.758 270.772 382.842 269.902 379.014L273.746 361.814C270.76 361.89 266.058 361.814 266.058 361.814V361.83C265.516 361.712 262.826 361.042 251.858 358.182C235.126 353.82 198.844 308.418 198.844 308.418C195.18 306.704 188.756 298.696 184.954 293.664C183.058 291.156 181.904 288.166 181.62 285.034H181.56C181.56 285.034 162.496 282.834 152.254 279.57C152.254 279.57 135.938 275.294 131.39 273.334C131.39 273.334 102.882 262.754 95.678 258.588C88.474 254.422 91.878 236.96 106.3 241.134C114.794 243.586 122.278 246.072 122.626 246.192C125.874 248.526 129.776 249.78 133.776 249.772H154.874C154.874 249.772 179.462 255.126 184.086 256.152L184.686 256.186C185.173 253.954 185.958 251.796 187.018 249.772H207.806L208.234 249.2Z" fill="#FFE8BB"/>
<path d="M370.812 191.158C370.872 191.074 370.93 190.99 370.99 190.912C370.776 193.038 369.974 195.062 368.674 196.758C367.798 198.015 366.536 198.952 365.078 199.429C363.622 199.906 362.05 199.895 360.6 199.4L355.6 205.746L350 198.636L355 192.29C354.58 190.535 354.55 188.709 354.908 186.94C355.268 185.171 356.008 183.502 357.078 182.048C358.202 180.535 359.846 179.492 361.694 179.12C361.62 179.187 361.554 179.262 361.494 179.342C360.24 181.057 359.564 183.127 359.564 185.251C359.564 187.376 360.24 189.445 361.494 191.16C362.016 191.912 362.712 192.527 363.524 192.952C364.336 193.376 365.238 193.598 366.154 193.598C367.07 193.597 367.972 193.375 368.782 192.951C369.594 192.526 370.29 191.911 370.812 191.158Z" fill="#55DEFF"/>
<path d="M366.332 216.834C367.358 218.234 367.91 219.922 367.91 221.658C367.91 223.392 367.358 225.082 366.332 226.48C365.906 227.094 365.336 227.598 364.674 227.944C364.012 228.29 363.274 228.472 362.526 228.472C361.778 228.472 361.04 228.29 360.378 227.944C359.716 227.598 359.146 227.094 358.72 226.48C357.7 225.12 357.15 223.464 357.152 221.764L357.084 221.856L349.982 212.856L344.382 205.746L339.382 199.4C337.93 199.897 336.356 199.909 334.898 199.433C333.438 198.956 332.174 198.018 331.296 196.76C330.002 195.062 329.202 193.039 328.988 190.914C329.046 190.992 329.098 191.076 329.166 191.16C329.686 191.914 330.382 192.53 331.194 192.955C332.006 193.381 332.908 193.603 333.824 193.603C334.74 193.603 335.642 193.381 336.454 192.955C337.266 192.53 337.962 191.914 338.482 191.16C339.738 189.446 340.414 187.376 340.414 185.251C340.414 183.126 339.738 181.056 338.482 179.342C338.424 179.265 338.362 179.191 338.296 179.12C340.138 179.494 341.778 180.537 342.896 182.048C343.968 183.501 344.71 185.17 345.07 186.939C345.432 188.708 345.402 190.534 344.984 192.29L349.984 198.636L355.584 205.746L362.678 214.746L362.61 214.84C363.34 214.87 364.054 215.066 364.698 215.412C365.344 215.756 365.902 216.244 366.332 216.834Z" fill="#55DEFF"/>
<path d="M344.374 205.744L349.982 212.854L347.428 216.096L344.374 205.744Z" fill="#313553"/>
<path d="M344.374 205.744L347.428 216.096L342.88 221.856L342.804 221.764C342.808 223.466 342.256 225.122 341.234 226.482C340.808 227.096 340.238 227.598 339.576 227.944C338.912 228.292 338.176 228.472 337.428 228.472C336.68 228.472 335.944 228.292 335.28 227.944C334.618 227.598 334.048 227.096 333.622 226.482C332.602 225.08 332.052 223.392 332.052 221.658C332.052 219.924 332.602 218.236 333.622 216.834C334.054 216.242 334.612 215.756 335.258 215.41C335.902 215.064 336.616 214.868 337.348 214.834L337.272 214.74L344.374 205.744Z" fill="#55DEFF"/>
<path d="M343.364 15.5161H337.254V86.4242H343.364V15.5161Z" fill="#FFE8BB"/>
<path d="M314.896 49.844C315.292 50.29 315.546 50.8454 315.622 51.4372C315.698 52.0292 315.594 52.6304 315.322 53.162L314.906 53.926L311.106 60.942C311.5 61.815 311.734 62.7522 311.794 63.708C312.014 67.086 310.156 69.954 307.652 70.108C305.148 70.262 302.936 67.666 302.714 64.288C302.492 60.91 304.352 58.044 306.856 57.888C307.32 57.8562 307.784 57.9194 308.222 58.074L311.622 51.814L312.452 50.278C312.546 50.0482 312.696 49.8458 312.888 49.6898C313.08 49.5338 313.31 49.4292 313.554 49.3858C313.798 49.3426 314.05 49.3618 314.284 49.442C314.518 49.522 314.73 49.6604 314.896 49.844Z" fill="#55DEFF"/>
<path d="M295.11 204.616H246.052V114C246.052 114 253.272 116.214 262.504 132.046C271.736 147.878 286.26 186.154 294.178 202.646C294.482 203.276 294.8 203.928 295.11 204.616Z" fill="#FFE8BB"/>
<path d="M266.16 361.848L266.058 361.814C266.058 361.814 270.76 361.89 273.746 361.814L269.902 379.014C268.408 370.98 266.168 362.224 266.066 361.824C266.096 361.834 266.128 361.842 266.16 361.848Z" fill="#313553"/>
<path d="M246.052 204.616V229.29L246.026 229.502C244.026 229.248 242.682 228.992 242.682 228.992C238.984 226.498 235.2 223.758 231.602 221.008L231.72 220.856C232.316 219.454 232.622 217.948 232.62 216.426V204.626L246.052 204.616Z" fill="#55DEFF"/>
<path d="M232.62 62.072V49.872C232.62 46.8486 231.418 43.9488 229.282 41.811C227.144 39.673 224.244 38.472 221.22 38.472H153.6C150.577 38.472 147.677 39.673 145.539 41.811C143.401 43.9488 142.2 46.8486 142.2 49.872V74.73C142.2 76.227 142.495 77.7094 143.068 79.0926C143.641 80.4756 144.48 81.7324 145.539 82.791C146.598 83.8496 147.854 84.6894 149.237 85.2622C150.621 85.8352 152.103 86.13 153.6 86.13H221.214C222.712 86.13 224.194 85.8352 225.576 85.2622C226.96 84.6894 228.216 83.8496 229.276 82.791C230.334 81.7324 231.174 80.4756 231.746 79.0926C232.32 77.7094 232.614 76.227 232.614 74.73L232.62 62.072ZM126.8 135.04V31.162C126.801 25.7324 128.957 20.5254 132.797 16.686C136.636 12.8465 141.842 10.689 147.272 10.688H149.724C149.724 14.7787 151.349 18.7018 154.242 21.5944C157.134 24.487 161.057 26.112 165.148 26.112H203.518C207.608 26.1098 211.532 24.4844 214.424 21.5926C217.318 18.7007 218.946 14.7788 218.95 10.688H225.57C228.26 10.6872 230.922 11.2162 233.408 12.2447C235.892 13.2733 238.15 14.7812 240.052 16.6824C241.954 18.5837 243.462 20.841 244.492 23.3254C245.522 25.8098 246.052 28.4728 246.052 31.162V204.616H232.62V191.574C232.62 188.551 231.418 185.651 229.282 183.513C227.144 181.375 224.244 180.174 221.22 180.174H153.6C150.577 180.174 147.677 181.375 145.539 183.513C143.401 185.651 142.2 188.551 142.2 191.574V216.426C142.2 219.45 143.401 222.35 145.539 224.486C147.677 226.624 150.577 227.826 153.6 227.826H169.018C169.493 228.604 170.021 229.35 170.596 230.058C180.43 242.208 195.966 246.306 206.196 247.112L208.24 249.198L207.816 249.776H147.272C141.841 249.772 136.634 247.612 132.795 243.772C128.956 239.93 126.799 234.72 126.8 229.29V135.04ZM142.216 135.04V145.578C142.216 148.601 143.417 151.501 145.555 153.639C147.693 155.777 150.593 156.978 153.616 156.978H221.23C224.254 156.978 227.154 155.777 229.292 153.639C231.428 151.501 232.63 148.601 232.63 145.578V120.726C232.63 117.703 231.428 114.803 229.292 112.665C227.154 110.527 224.254 109.326 221.23 109.326H153.6C150.577 109.326 147.677 110.527 145.539 112.665C143.401 114.803 142.2 117.703 142.2 120.726L142.216 135.04Z" fill="#55DEFF"/>
<path d="M232.62 204.616V216.416C232.622 217.938 232.316 219.444 231.72 220.846L231.602 220.998C228.912 218.936 226.324 216.866 223.974 214.88C221.452 212.724 218.568 211.032 215.456 209.88C216.23 208.538 216.684 207.034 216.784 205.488C216.886 203.942 216.628 202.392 216.034 200.962C215.44 199.53 214.526 198.254 213.36 197.233C212.194 196.212 210.81 195.472 209.312 195.071C207.816 194.671 206.246 194.62 204.726 194.922C203.206 195.225 201.776 195.873 200.548 196.817C199.318 197.76 198.322 198.974 197.636 200.364C196.951 201.754 196.594 203.282 196.594 204.832C196.595 205.974 196.793 207.108 197.178 208.184C193.454 207.394 184.214 205.706 178.844 207.004C174.576 208.048 165.514 214.428 167.186 223.194C167.516 224.832 168.136 226.398 169.018 227.818H153.6C150.577 227.818 147.677 226.616 145.539 224.478C143.401 222.342 142.2 219.442 142.2 216.418V191.574C142.2 188.55 143.401 185.651 145.539 183.513C147.677 181.375 150.577 180.174 153.6 180.174H221.214C224.238 180.174 227.138 181.375 229.276 183.513C231.412 185.651 232.614 188.55 232.614 191.574V204.616H232.62Z" fill="#55DEFF"/>
<path d="M142.2 135.04V120.726C142.2 117.702 143.401 114.803 145.539 112.665C147.677 110.527 150.577 109.326 153.6 109.326H221.214C224.238 109.326 227.138 110.527 229.276 112.665C231.412 114.803 232.614 117.702 232.614 120.726V145.578C232.614 148.601 231.412 151.501 229.276 153.639C227.138 155.777 224.238 156.978 221.214 156.978H153.6C150.577 156.978 147.677 155.777 145.539 153.639C143.401 151.501 142.2 148.601 142.2 145.578V135.04ZM175.088 135.26C175.087 133.262 174.494 131.31 173.384 129.649C172.274 127.988 170.696 126.694 168.85 125.93C167.004 125.166 164.973 124.966 163.014 125.356C161.055 125.746 159.255 126.708 157.843 128.121C156.43 129.533 155.468 131.333 155.078 133.292C154.688 135.251 154.888 137.282 155.652 139.128C156.416 140.974 157.711 142.551 159.371 143.662C161.032 144.772 162.984 145.365 164.982 145.366C166.31 145.366 167.624 145.105 168.851 144.598C170.078 144.09 171.192 143.346 172.131 142.407C173.07 141.469 173.815 140.355 174.324 139.128C174.832 137.902 175.094 136.587 175.094 135.26H175.088Z" fill="#55DEFF"/>
<path d="M232.62 62.072V74.73C232.62 76.227 232.326 77.7096 231.752 79.0926C231.18 80.4758 230.34 81.7324 229.282 82.791C228.222 83.8496 226.966 84.6894 225.582 85.2622C224.2 85.8352 222.718 86.13 221.22 86.13H153.6C152.103 86.13 150.621 85.8352 149.237 85.2622C147.854 84.6894 146.598 83.8496 145.539 82.791C144.48 81.7324 143.641 80.4758 143.068 79.0926C142.495 77.7096 142.2 76.227 142.2 74.73V49.878C142.2 46.8546 143.401 43.955 145.539 41.817C147.677 39.679 150.577 38.478 153.6 38.478H221.214C224.238 38.478 227.138 39.679 229.276 41.817C231.412 43.955 232.614 46.8546 232.614 49.878L232.62 62.072ZM216.804 62.292C216.804 60.2932 216.212 58.3394 215.1 56.6774C213.99 55.0156 212.412 53.7202 210.566 52.9552C208.718 52.1904 206.686 51.9902 204.726 52.3802C202.766 52.7702 200.966 53.7326 199.552 55.146C198.139 56.5594 197.176 58.36 196.786 60.3204C196.396 62.2808 196.596 64.3128 197.361 66.1594C198.126 68.006 199.421 69.5844 201.084 70.6948C202.746 71.8054 204.7 72.398 206.698 72.398C209.378 72.396 211.946 71.3304 213.84 69.4354C215.734 67.5406 216.798 64.9712 216.8 62.292H216.804Z" fill="#55DEFF"/>
<path d="M149.724 10.688H218.95C218.946 14.7788 217.318 18.7007 214.424 21.5926C211.532 24.4844 207.608 26.1098 203.518 26.112H165.148C161.057 26.112 157.134 24.487 154.242 21.5944C151.349 18.7018 149.724 14.7787 149.724 10.688Z" fill="#313553"/>
<path d="M216.8 204.836C216.798 206.608 216.334 208.348 215.452 209.884L214.84 209.684C214.82 209.68 214.8 209.674 214.78 209.666C214.348 209.514 213.916 209.386 213.482 209.276C213.27 209.216 213.058 209.158 212.846 209.106C212.558 209.03 212.278 208.97 211.998 208.906C211.65 208.84 211.31 208.772 210.972 208.706C210.36 208.596 209.772 208.52 209.172 208.46C207.15 208.264 205.116 208.238 203.09 208.384C202.988 208.384 202.89 208.4 202.784 208.4C202.606 208.418 202.436 208.426 202.266 208.434C201.732 208.468 201.24 208.502 200.79 208.536C200.124 208.588 199.456 208.588 198.79 208.536C198.79 208.536 198.19 208.392 197.16 208.172C196.775 207.096 196.577 205.962 196.576 204.82C196.557 203.48 196.805 202.152 197.304 200.91C197.803 199.667 198.545 198.536 199.485 197.582C200.426 196.629 201.546 195.872 202.78 195.355C204.016 194.838 205.342 194.572 206.682 194.572C208.02 194.572 209.346 194.838 210.582 195.355C211.816 195.872 212.936 196.629 213.878 197.582C214.818 198.536 215.558 199.667 216.058 200.91C216.558 202.152 216.804 203.48 216.786 204.82L216.8 204.836Z" fill="white"/>
<path d="M206.698 72.398C212.28 72.398 216.804 67.8734 216.804 62.292C216.804 56.7106 212.28 52.186 206.698 52.186C201.116 52.186 196.592 56.7106 196.592 62.292C196.592 67.8734 201.116 72.398 206.698 72.398Z" fill="white"/>
<path d="M154.874 249.772H187.022C185.962 251.796 185.177 253.954 184.69 256.186L184.09 256.152C179.462 255.126 154.874 249.772 154.874 249.772Z" fill="#313553"/>
<path d="M164.988 125.156C166.987 125.154 168.942 125.746 170.605 126.855C172.268 127.965 173.565 129.543 174.331 131.39C175.097 133.236 175.298 135.268 174.909 137.229C174.519 139.19 173.557 140.992 172.144 142.406C170.731 143.82 168.93 144.783 166.969 145.173C165.009 145.564 162.976 145.364 161.129 144.599C159.282 143.834 157.703 142.538 156.593 140.876C155.482 139.214 154.89 137.259 154.89 135.26C154.891 132.582 155.955 130.013 157.848 128.119C159.742 126.224 162.31 125.159 164.988 125.156Z" fill="white"/>
<path d="M141.332 10.688H147.272C141.842 10.689 136.636 12.8465 132.797 16.686C128.957 20.5254 126.801 25.7324 126.8 31.162V135.04H120.86V31.162C120.861 25.7324 123.017 20.5254 126.857 16.686C130.696 12.8465 135.902 10.689 141.332 10.688Z" fill="#313553"/>
<path d="M147.272 249.772H141.332C135.9 249.772 130.691 247.614 126.85 243.772C123.009 239.932 120.851 234.722 120.85 229.29V135.04H126.8V229.29C126.801 234.72 128.957 239.928 132.796 243.768C136.635 247.61 141.842 249.768 147.272 249.772Z" fill="#313553"/>
<path d="M114.622 192.78V218.7C114.622 218.7 105.364 217.114 92.774 215.018C80.184 212.922 80.174 197.818 86.902 192.78C93.63 187.742 113.756 192.78 113.756 192.78H114.622Z" fill="#FFE8BB"/>
<path d="M75.134 126.53V140.156H71.018C69.5 140.156 68.736 142.464 69.818 143.822L72.728 147.48L65.058 157.118L62.144 153.46C61.066 152.104 59.234 153.06 59.234 154.972V160.146H48.382V154.972C48.382 153.062 46.548 152.104 45.47 153.46L42.56 157.118L34.89 147.48L37.8 143.822C38.878 142.464 38.114 140.156 36.6 140.156H32.48V126.53H36.6C38.118 126.53 38.882 124.214 37.8 122.864L34.89 119.2L42.56 109.562L45.47 113.218C46.548 114.568 48.382 113.618 48.382 111.7V106.532H59.234V111.708C59.234 113.624 61.066 114.576 62.144 113.226L65.054 109.57L72.724 119.2L69.814 122.856C68.736 124.206 69.5 126.522 71.014 126.522L75.134 126.53ZM60.242 133.344C60.242 128.872 57.358 125.248 53.812 125.248C50.266 125.248 47.372 128.872 47.372 133.344C47.372 137.816 50.256 141.43 53.812 141.43C57.368 141.43 60.242 137.8 60.242 133.344Z" fill="#55DEFF"/>
<path d="M20.628 94.67H13.67V175.412H20.628V94.67Z" fill="#FFE8BB"/>
<path d="M20.628 94.67L88.734 100.61V169.472L20.628 175.412" stroke="#313553" stroke-width="0.848" stroke-linecap="round" stroke-linejoin="round"/>
<path d="M20.628 94.67H13.67V175.412H20.628V94.67Z" stroke="#313553" stroke-width="0.848" stroke-linecap="round" stroke-linejoin="round"/>
<path d="M337.254 15.5161L277.446 28.3702V93.0922L337.254 86.4222" stroke="#313553" stroke-width="0.848" stroke-linecap="round" stroke-linejoin="round"/>
<path d="M343.364 15.5161H337.254V86.4242H343.364V15.5161Z" stroke="#313553" stroke-width="0.848" stroke-linecap="round" stroke-linejoin="round"/>
<path d="M380.96 167.392L318.256 172.858V236.246L380.96 241.72" stroke="#313553" stroke-width="0.848" stroke-linecap="round" stroke-linejoin="round"/>
<path d="M387.366 167.392H380.96V241.718H387.366V167.392Z" stroke="#313553" stroke-width="0.848" stroke-linecap="round" stroke-linejoin="round"/>
<path d="M218.95 10.688H225.57C228.26 10.6872 230.922 11.2162 233.408 12.2447C235.892 13.2733 238.15 14.7812 240.052 16.6824C241.954 18.5837 243.462 20.841 244.492 23.3254C245.522 25.8098 246.052 28.4728 246.052 31.162V229.29" stroke="#313553" stroke-width="0.848" stroke-linecap="round" stroke-linejoin="round"/>
<path d="M148.638 10.688H149.724" stroke="#313553" stroke-width="0.848" stroke-linecap="round" stroke-linejoin="round"/>
<path d="M141.332 249.772C135.9 249.772 130.691 247.614 126.85 243.772C123.009 239.932 120.851 234.722 120.85 229.29V31.162C120.85 28.4728 121.38 25.8098 122.41 23.3254C123.439 20.841 124.948 18.5837 126.85 16.6824C128.752 14.7812 131.01 13.2733 133.495 12.2447C135.98 11.2162 138.643 10.6872 141.332 10.688" stroke="#313553" stroke-width="0.848" stroke-linecap="round" stroke-linejoin="round"/>
<path d="M207.81 249.772H187.022H154.874H148.638" stroke="#313553" stroke-width="0.848" stroke-linecap="round" stroke-linejoin="round"/>
<path d="M147.272 249.772C141.842 249.768 136.635 247.61 132.796 243.768C128.957 239.928 126.801 234.72 126.8 229.29V31.162C126.801 25.7324 128.957 20.5254 132.797 16.686C136.636 12.8465 141.842 10.689 147.272 10.688" stroke="#313553" stroke-width="0.848" stroke-linecap="round" stroke-linejoin="round"/>
<path d="M122.632 246.2C120.151 244.426 118.13 242.084 116.737 239.37C115.343 236.658 114.618 233.65 114.622 230.6V29.854C114.621 27.336 115.117 24.8424 116.081 22.516C117.045 20.1898 118.458 18.0762 120.239 16.2962C122.02 14.5162 124.134 13.1047 126.461 12.1424C128.788 11.1801 131.282 10.6859 133.8 10.688H148.648" stroke="#313553" stroke-width="0.848" stroke-linecap="round" stroke-linejoin="round"/>
<path d="M148.638 249.772H133.8C129.8 249.78 125.898 248.526 122.65 246.192" stroke="#313553" stroke-width="0.848" stroke-linecap="round" stroke-linejoin="round"/>
<path d="M218.95 10.688C218.946 14.7788 217.318 18.7007 214.424 21.5926C211.532 24.4844 207.608 26.1098 203.518 26.112H165.148C161.057 26.112 157.134 24.487 154.242 21.5944C151.349 18.7018 149.724 14.7787 149.724 10.688H218.95Z" stroke="#313553" stroke-width="0.848" stroke-linecap="round" stroke-linejoin="round"/>
<path d="M221.216 86.126H153.6C150.577 86.126 147.677 84.925 145.539 82.787C143.401 80.6492 142.2 77.7494 142.2 74.726V49.878C142.2 46.8546 143.401 43.955 145.539 41.817C147.677 39.679 150.577 38.478 153.6 38.478H221.214C224.238 38.478 227.138 39.679 229.276 41.817C231.412 43.955 232.614 46.8546 232.614 49.878V74.73C232.612 77.7524 231.412 80.6508 229.274 82.7878C227.136 84.9248 224.238 86.1254 221.216 86.126Z" stroke="#313553" stroke-width="0.848" stroke-linecap="round" stroke-linejoin="round"/>
<path d="M221.216 156.974H153.6C150.577 156.974 147.677 155.773 145.539 153.635C143.401 151.497 142.2 148.597 142.2 145.574V120.726C142.2 117.702 143.401 114.803 145.539 112.665C147.677 110.527 150.577 109.326 153.6 109.326H221.214C224.238 109.326 227.138 110.527 229.276 112.665C231.412 114.803 232.614 117.702 232.614 120.726V145.578C232.612 148.6 231.412 151.499 229.274 153.636C227.136 155.773 224.238 156.973 221.216 156.974Z" stroke="#313553" stroke-width="0.848" stroke-linecap="round" stroke-linejoin="round"/>
<path d="M169.026 227.822H153.6C150.577 227.822 147.677 226.62 145.539 224.482C143.401 222.346 142.2 219.446 142.2 216.422V191.574C142.2 188.55 143.401 185.651 145.539 183.513C147.677 181.375 150.577 180.174 153.6 180.174H221.214C224.238 180.174 227.138 181.375 229.276 183.513C231.412 185.651 232.614 188.55 232.614 191.574V216.426C232.616 217.948 232.31 219.454 231.714 220.856" stroke="#313553" stroke-width="0.848" stroke-linecap="round" stroke-linejoin="round"/>
<path d="M94.776 135.04H114.622H120.85H126.79H142.206H149.724" stroke="#313553" stroke-width="0.848" stroke-linecap="round" stroke-linejoin="round"/>
<path d="M197.178 208.188C193.454 207.398 184.214 205.71 178.844 207.008C174.576 208.052 165.514 214.432 167.186 223.198C167.516 224.836 168.136 226.402 169.018 227.822C169.494 228.6 170.021 229.346 170.596 230.054C180.43 242.204 195.966 246.302 206.196 247.108L208.24 249.194C213.212 254.294 225.812 267.194 229.164 270.794C229.164 270.794 238.938 309.11 249.748 319.92C264.376 334.556 272.748 338.73 282.148 340.13" stroke="#313553" stroke-width="0.848" stroke-linecap="round" stroke-linejoin="round"/>
<path d="M202.278 208.442C201.744 208.476 201.252 208.51 200.802 208.544" stroke="#313553" stroke-width="0.848" stroke-linecap="round" stroke-linejoin="round"/>
<path d="M210.976 208.714C210.364 208.604 209.776 208.528 209.176 208.468C207.154 208.272 205.12 208.246 203.094 208.392" stroke="#313553" stroke-width="0.848" stroke-linecap="round" stroke-linejoin="round"/>
<path d="M212.85 209.104C212.562 209.028 212.282 208.968 212.002 208.904" stroke="#313553" stroke-width="0.848" stroke-linecap="round" stroke-linejoin="round"/>
<path d="M214.784 209.664C214.352 209.512 213.92 209.384 213.486 209.274" stroke="#313553" stroke-width="0.848" stroke-linecap="round" stroke-linejoin="round"/>
<path d="M259.508 238.52C253.588 235.93 247.95 232.736 242.682 228.992C238.984 226.498 235.2 223.758 231.602 221.008C228.912 218.946 226.324 216.876 223.974 214.89C221.452 212.734 218.568 211.042 215.456 209.89L214.844 209.69" stroke="#313553" stroke-width="0.848" stroke-linecap="round" stroke-linejoin="round"/>
<path d="M242.682 229C242.682 229 244.024 229.256 246.026 229.51C250.166 230.044 257.158 230.604 261.044 229" stroke="#313553" stroke-width="0.848" stroke-linecap="round" stroke-linejoin="round"/>
<path d="M202.8 208.4C200.61 210.8 190.038 218.836 191.4 228.984" stroke="#313553" stroke-width="0.848" stroke-linecap="round" stroke-linejoin="round"/>
<path d="M167.186 223.2C171.174 226.186 180.972 228 184.808 225.846C184.808 225.846 187.066 214.35 192.138 210.524" stroke="#313553" stroke-width="0.848" stroke-linecap="round" stroke-linejoin="round"/>
<path d="M376.658 390.688C376.658 390.688 376.658 380.734 369.488 362.888C363.464 347.87 333.768 302.934 324.528 277.21C315.644 252.468 303.104 221.61 295.11 204.622C294.796 203.934 294.482 203.282 294.178 202.644C286.26 186.15 271.744 147.884 262.504 132.044C253.264 116.204 246.052 114 246.052 114" stroke="#313553" stroke-width="0.848" stroke-linecap="round" stroke-linejoin="round"/>
<path d="M266.16 361.848L266.058 361.814V361.83C266.16 362.23 268.4 370.986 269.894 379.02C270.764 382.848 271.178 386.764 271.132 390.688" stroke="#313553" stroke-width="0.848" stroke-linecap="round" stroke-linejoin="round"/>
<path d="M181.906 279.57C181.634 280.942 181.52 282.338 181.566 283.736C181.566 284.17 181.592 284.602 181.626 285.034C181.91 288.166 183.065 291.156 184.96 293.664C188.76 298.696 195.186 306.704 198.85 308.418C198.85 308.418 235.132 353.818 251.864 358.182C262.834 361.042 265.524 361.712 266.064 361.83C266.094 361.838 266.126 361.844 266.158 361.848C266.17 361.85 266.18 361.85 266.192 361.848" stroke="#313553" stroke-width="0.848" stroke-linecap="round" stroke-linejoin="round"/>
<path d="M181.566 285.034C181.566 285.034 162.502 282.834 152.26 279.57C152.26 279.57 135.944 275.294 131.396 273.334C131.396 273.334 102.888 262.754 95.684 258.588C88.48 254.422 91.884 236.96 106.306 241.134C114.8 243.586 122.284 246.072 122.632 246.192" stroke="#313553" stroke-width="0.848" stroke-linecap="round" stroke-linejoin="round"/>
<path d="M129.156 255.304C129.156 255.304 128.156 259.8 127.91 262.05" stroke="#313553" stroke-width="0.848" stroke-linecap="round" stroke-linejoin="round"/>
<path d="M155.46 259.546C155.46 259.546 154.46 266.588 154.212 268.838" stroke="#313553" stroke-width="0.848" stroke-linecap="round" stroke-linejoin="round"/>
<path d="M266.058 361.814C266.058 361.814 270.76 361.89 273.746 361.814L269.902 379.014" stroke="#313553" stroke-width="0.848" stroke-linecap="round" stroke-linejoin="round"/>
<path d="M113.756 192.78C113.756 192.78 93.614 187.74 86.902 192.78C80.19 197.82 80.182 212.922 92.774 215.018C105.366 217.114 114.622 218.7 114.622 218.7" stroke="#313553" stroke-width="0.848" stroke-linecap="round" stroke-linejoin="round"/>
<path d="M187.022 249.772C185.962 251.796 185.177 253.954 184.69 256.186C184.371 257.566 184.17 258.972 184.09 260.386" stroke="#313553" stroke-width="0.848" stroke-linecap="round" stroke-linejoin="round"/>
<path d="M154.874 249.772C154.874 249.772 179.462 255.126 184.086 256.152" stroke="#313553" stroke-width="0.848" stroke-linecap="round" stroke-linejoin="round"/>
<path d="M175.094 135.26C175.094 137.258 174.501 139.211 173.391 140.871C172.281 142.532 170.703 143.827 168.857 144.591C167.012 145.356 164.981 145.556 163.021 145.166C161.062 144.776 159.262 143.814 157.85 142.402C156.437 140.989 155.475 139.19 155.084 137.231C154.694 135.271 154.894 133.24 155.658 131.394C156.422 129.549 157.716 127.971 159.377 126.86C161.038 125.75 162.99 125.157 164.988 125.156C166.315 125.156 167.629 125.417 168.855 125.925C170.081 126.432 171.195 127.176 172.134 128.115C173.072 129.053 173.817 130.167 174.325 131.393C174.833 132.619 175.094 133.933 175.094 135.26Z" stroke="#313553" stroke-width="0.848" stroke-linecap="round" stroke-linejoin="round"/>
<path d="M268.426 62.072H246.052H232.62H221.972" stroke="#313553" stroke-width="0.848" stroke-linecap="round" stroke-linejoin="round"/>
<path d="M206.698 72.398C212.28 72.398 216.804 67.8734 216.804 62.292C216.804 56.7106 212.28 52.186 206.698 52.186C201.116 52.186 196.592 56.7106 196.592 62.292C196.592 67.8734 201.116 72.398 206.698 72.398Z" stroke="#313553" stroke-width="0.848" stroke-linecap="round" stroke-linejoin="round"/>
<path d="M310.85 204.616H295.11H246.052H232.62H221.972" stroke="#313553" stroke-width="0.848" stroke-linecap="round" stroke-linejoin="round"/>
<path d="M197.178 208.188C198.198 208.408 198.808 208.552 198.808 208.552C199.474 208.604 200.142 208.604 200.808 208.552C201.266 208.526 201.758 208.492 202.284 208.45C202.454 208.45 202.624 208.434 202.802 208.416C202.904 208.416 203.002 208.416 203.108 208.4C205.134 208.258 207.168 208.284 209.19 208.476C209.768 208.536 210.37 208.62 210.99 208.722C211.328 208.782 211.668 208.85 212.016 208.922C212.296 208.982 212.576 209.05 212.864 209.122C213.076 209.174 213.288 209.232 213.5 209.292C213.934 209.41 214.366 209.538 214.798 209.682C214.818 209.69 214.838 209.696 214.858 209.7C215.058 209.766 215.258 209.834 215.458 209.912V209.902C216.232 208.56 216.686 207.056 216.786 205.51C216.888 203.964 216.63 202.414 216.036 200.984C215.442 199.552 214.528 198.276 213.362 197.255C212.196 196.234 210.812 195.494 209.314 195.093C207.818 194.693 206.248 194.642 204.728 194.944C203.208 195.247 201.778 195.895 200.55 196.839C199.32 197.782 198.324 198.996 197.638 200.386C196.953 201.776 196.596 203.304 196.596 204.854C196.599 205.99 196.795 207.118 197.178 208.188Z" stroke="#313553" stroke-width="0.848" stroke-linecap="round" stroke-linejoin="round"/>
<path d="M75.134 126.53H71.018C69.5 126.53 68.736 124.214 69.818 122.864L72.724 119.2L65.054 109.562L62.144 113.218C61.066 114.568 59.234 113.618 59.234 111.7V106.532H48.382V111.708C48.382 113.624 46.548 114.576 45.47 113.226L42.56 109.57L34.89 119.2L37.8 122.864C38.878 124.214 38.114 126.53 36.6 126.53H32.48V140.156H36.6C38.118 140.156 38.882 142.464 37.8 143.822L34.89 147.48L42.56 157.118L45.47 153.46C46.548 152.104 48.382 153.06 48.382 154.972V160.146H59.234V154.972C59.234 153.062 61.066 152.104 62.144 153.46L65.054 157.118L72.724 147.48L69.814 143.822C68.736 142.464 69.5 140.156 71.014 140.156H75.13V126.53H75.134Z" stroke="#313553" stroke-width="0.848" stroke-linecap="round" stroke-linejoin="round"/>
<path d="M60.242 133.344C60.242 137.806 57.358 141.43 53.812 141.43C50.266 141.43 47.372 137.806 47.372 133.344C47.372 128.882 50.256 125.248 53.812 125.248C57.368 125.248 60.242 128.872 60.242 133.344Z" stroke="#313553" stroke-width="0.848" stroke-linecap="round" stroke-linejoin="round"/>
<path d="M311.614 51.8138C309.978 51.0736 308.188 50.744 306.396 50.8538C302.476 51.1078 299.072 53.9178 296.74 57.9818C294.304 62.4082 293.188 67.4404 293.524 72.4818C293.54 72.7438 293.558 73.0158 293.584 73.2818" stroke="#313553" stroke-width="0.848" stroke-linecap="round" stroke-linejoin="round"/>
<path d="M321.786 69.7421C321.786 69.4781 321.77 69.2161 321.752 68.9421C321.526 64.5903 320.076 60.3907 317.57 56.8261C316.798 55.7579 315.904 54.7837 314.906 53.9241" stroke="#313553" stroke-width="0.848" stroke-linecap="round" stroke-linejoin="round"/>
<path d="M321.786 69.742L330.186 69.198C330.17 68.936 330.17 68.672 330.152 68.398C329.786 61.4848 327.492 54.8124 323.526 49.138C318.97 42.86 312.546 39.1 305.674 39.55C299.064 39.984 293.37 44.684 289.654 51.506C286.176 58.1192 284.614 65.571 285.14 73.024C285.158 73.294 285.182 73.558 285.2 73.824L293.6 73.282" stroke="#313553" stroke-width="0.848" stroke-linecap="round" stroke-linejoin="round"/>
<path d="M314.906 53.926L315.322 53.162C315.594 52.6304 315.698 52.0292 315.622 51.4372C315.546 50.8454 315.292 50.29 314.896 49.844C314.73 49.6586 314.518 49.5186 314.282 49.4372C314.048 49.356 313.794 49.3362 313.55 49.3796C313.304 49.423 313.074 49.5284 312.88 49.6856C312.686 49.8428 312.536 50.0468 312.444 50.278L311.614 51.814L308.214 58.074C307.776 57.9194 307.312 57.8562 306.848 57.888C304.344 58.05 302.486 60.918 302.706 64.288C302.926 67.658 305.142 70.27 307.644 70.108C310.146 69.946 312.006 67.08 311.786 63.708C311.726 62.7522 311.492 61.815 311.098 60.942L314.906 53.926Z" stroke="#313553" stroke-width="0.848" stroke-linecap="round" stroke-linejoin="round"/>
<path d="M305.666 39.552L306.396 50.854" stroke="#313553" stroke-width="0.848" stroke-linecap="round" stroke-linejoin="round"/>
<path d="M289.706 51.542L295.848 57.922" stroke="#313553" stroke-width="0.848" stroke-linecap="round" stroke-linejoin="round"/>
<path d="M323.212 49.3602L318.07 56.4802" stroke="#313553" stroke-width="0.848" stroke-linecap="round" stroke-linejoin="round"/>
<path d="M355.6 205.744L360.6 199.398C362.05 199.894 363.624 199.905 365.08 199.429C366.538 198.953 367.8 198.015 368.678 196.758C369.978 195.062 370.78 193.038 370.994 190.912C370.934 190.99 370.876 191.074 370.816 191.158C370.294 191.912 369.598 192.528 368.786 192.953C367.972 193.378 367.07 193.601 366.154 193.601C365.236 193.601 364.334 193.378 363.52 192.953C362.708 192.528 362.012 191.912 361.49 191.158C360.238 189.442 359.562 187.373 359.562 185.249C359.562 183.125 360.238 181.056 361.49 179.34C361.55 179.26 361.616 179.186 361.69 179.118C359.842 179.49 358.198 180.533 357.074 182.046C356.004 183.499 355.264 185.169 354.904 186.938C354.546 188.706 354.576 190.532 354.996 192.288L349.996 198.634" stroke="#313553" stroke-width="0.848" stroke-linecap="round" stroke-linejoin="round"/>
<path d="M344.374 205.744L337.272 214.744L337.348 214.838C336.616 214.872 335.902 215.068 335.258 215.414C334.612 215.76 334.054 216.246 333.622 216.838C332.602 218.24 332.054 219.928 332.054 221.662C332.054 223.394 332.602 225.082 333.622 226.484C334.048 227.098 334.618 227.6 335.28 227.948C335.942 228.294 336.68 228.476 337.428 228.476C338.176 228.476 338.914 228.294 339.576 227.948C340.238 227.6 340.808 227.098 341.234 226.484C342.256 225.124 342.808 223.47 342.804 221.768L342.88 221.86L347.428 216.1L349.982 212.858" stroke="#313553" stroke-width="0.848" stroke-linecap="round" stroke-linejoin="round"/>
<path d="M349.982 198.634L344.982 192.288C345.4 190.532 345.43 188.705 345.068 186.936C344.708 185.167 343.966 183.499 342.894 182.046C341.776 180.535 340.136 179.491 338.294 179.118C338.36 179.189 338.422 179.263 338.48 179.34C339.736 181.054 340.412 183.124 340.412 185.249C340.412 187.374 339.736 189.444 338.48 191.158C337.96 191.912 337.264 192.528 336.452 192.953C335.64 193.379 334.738 193.601 333.822 193.601C332.906 193.601 332.004 193.379 331.192 192.953C330.38 192.528 329.684 191.912 329.164 191.158C329.096 191.074 329.044 190.99 328.986 190.912C329.2 193.036 330 195.06 331.294 196.758C332.172 198.016 333.436 198.954 334.896 199.43C336.354 199.907 337.928 199.895 339.38 199.398L344.38 205.744L349.98 212.854L357.082 221.854L357.15 221.762C357.148 223.462 357.698 225.118 358.718 226.478C359.144 227.092 359.714 227.594 360.376 227.942C361.038 228.288 361.776 228.47 362.524 228.47C363.272 228.47 364.01 228.288 364.672 227.942C365.334 227.594 365.904 227.092 366.33 226.478C367.356 225.078 367.908 223.39 367.908 221.654C367.908 219.92 367.356 218.232 366.33 216.832C365.9 216.24 365.344 215.754 364.7 215.408C364.058 215.062 363.344 214.864 362.614 214.832L362.682 214.738L355.588 205.738L349.982 198.634Z" stroke="#313553" stroke-width="0.848" stroke-linecap="round" stroke-linejoin="round"/>
<path d="M344.374 205.744L347.428 216.096" stroke="#313553" stroke-width="0.848" stroke-linecap="round" stroke-linejoin="round"/>
</svg>
