<svg width="400" height="400" viewBox="0 0 400 400" fill="none" xmlns="http://www.w3.org/2000/svg">
<path d="M109.564 312.4C109.564 312.4 88.178 318.3 102.164 330.79C120.9 347.514 235.994 343.548 235.994 343.548C235.994 343.548 290.458 344.948 294.504 325.336C294.504 325.336 289.49 309.058 278.052 311.258C266.614 313.458 247.344 319.176 247.344 319.176C247.344 319.176 262.208 332.32 230.098 327.446C208.802 324.214 140.698 319.704 140.698 319.704C140.698 319.704 115.722 315.2 109.564 312.4Z" fill="#38A1FF"/>
<path d="M216.38 133.076C217.078 139.592 217.78 141.092 218.228 144.602C218.359 145.281 218.27 145.984 217.976 146.611C217.682 147.237 217.197 147.753 216.591 148.087C215.985 148.42 215.289 148.553 214.603 148.466C213.917 148.378 213.276 148.076 212.772 147.602C212.156 146.986 211.1 147.778 211.628 148.482C213.476 151.386 217.798 152.36 219.724 148.922C220.455 147.288 220.61 145.455 220.164 143.722C219.584 140.11 218.714 136.43 217.788 132.9C217.6 132.2 216.294 132.284 216.38 133.076Z" fill="#191919"/>
<path d="M219.108 136.244C221.638 138.73 226.85 138.356 228.082 134.66C228.346 133.86 227.38 133.518 226.85 133.956C226.044 134.816 225.05 135.479 223.946 135.892C222.567 136.191 221.127 135.972 219.9 135.276C219.284 134.924 218.576 135.72 219.108 136.244Z" fill="#191919"/>
<path d="M200.014 137.652C202.364 140.594 207.414 141.612 210.132 138.532C210.572 138.092 210.132 137.036 209.428 137.388C208.111 138.13 206.603 138.459 205.097 138.333C203.591 138.208 202.158 137.633 200.982 136.684C200.376 136.23 199.586 137.114 200.014 137.652Z" fill="#191919"/>
<path d="M219.548 129.028C221.594 126.938 224.476 127.536 226.938 126.39C227.211 126.226 227.431 125.986 227.571 125.7C227.712 125.414 227.766 125.093 227.729 124.776C227.692 124.46 227.565 124.161 227.362 123.915C227.159 123.669 226.89 123.487 226.586 123.39C224.71 123.068 222.78 123.313 221.044 124.094C219.44 124.656 218.095 125.782 217.26 127.262C217.074 127.568 217.007 127.931 217.072 128.283C217.138 128.635 217.33 128.95 217.614 129.169C217.897 129.388 218.251 129.494 218.608 129.468C218.965 129.442 219.299 129.285 219.548 129.028Z" fill="#191919"/>
<path d="M210.22 128.676C208.385 127.857 206.34 127.628 204.369 128.022C202.398 128.417 200.599 129.414 199.22 130.876C198.42 131.844 199.122 133.932 200.62 133.34C201.988 132.71 203.399 132.181 204.844 131.756C206.388 131.539 207.947 131.451 209.506 131.492C209.829 131.473 210.138 131.351 210.387 131.145C210.636 130.939 210.814 130.659 210.893 130.345C210.973 130.032 210.95 129.701 210.829 129.401C210.708 129.1 210.495 128.847 210.22 128.676Z" fill="#191919"/>
<path d="M203.974 154.722C204.856 155.745 206.011 156.496 207.305 156.886C208.598 157.275 209.976 157.288 211.276 156.922C211.894 156.66 211.716 155.604 211.1 155.428C210.044 155.252 208.992 155.33 207.934 155.076C206.841 154.728 205.803 154.224 204.854 153.58C204.066 153.13 203.462 154.092 203.974 154.722Z" fill="#191919"/>
<path d="M194.12 13.6779C192.285 22.1514 192.74 30.9605 195.438 39.1999C195.465 39.3008 195.511 39.3953 195.575 39.4779C195.639 39.5605 195.718 39.6294 195.809 39.6807C195.9 39.7319 196 39.7644 196.104 39.7763C196.207 39.7881 196.312 39.779 196.412 39.7496C196.512 39.7202 196.606 39.671 196.686 39.6049C196.767 39.5389 196.834 39.4573 196.882 39.365C196.931 39.2727 196.961 39.1716 196.969 39.0677C196.978 38.9638 196.966 38.8591 196.934 38.7599C195.436 30.2979 194.208 22.6579 195.438 14.0359C195.614 13.2379 194.286 12.7999 194.12 13.6779Z" fill="#191919"/>
<path d="M187.696 10.51C184.867 20.128 185.36 30.4185 189.096 39.722C189.54 40.864 191.296 40.334 190.856 39.194C187.153 30.2073 186.504 20.2534 189.008 10.862C189.044 10.7722 189.06 10.6759 189.056 10.5793C189.052 10.4828 189.028 10.3881 188.985 10.3017C188.941 10.2153 188.88 10.139 188.805 10.0779C188.731 10.0168 188.644 9.97224 188.55 9.94719C188.457 9.92215 188.359 9.91717 188.264 9.93259C188.168 9.94801 188.077 9.98347 187.997 10.0366C187.916 10.0898 187.847 10.1595 187.796 10.2411C187.744 10.3227 187.71 10.4143 187.696 10.51Z" fill="#191919"/>
<path d="M181.184 22.916C180.696 31.1022 182.657 39.2483 186.816 46.316C186.944 46.5029 187.137 46.6353 187.358 46.6873C187.578 46.7393 187.811 46.7072 188.009 46.5971C188.207 46.487 188.357 46.307 188.429 46.0923C188.501 45.8775 188.491 45.6435 188.4 45.436C184.78 38.4704 182.822 30.761 182.68 22.912C182.68 21.948 181.272 22.036 181.184 22.916Z" fill="#191919"/>
<path d="M184.968 51.5119C157.136 64.0479 119.098 83.3639 103.316 110.64C86.832 139.13 103.746 171.364 126.716 190.268C139.595 200.802 154.652 208.345 170.8 212.354C171.08 212.436 171.381 212.403 171.637 212.262C171.893 212.122 172.082 211.886 172.164 211.606C172.246 211.326 172.213 211.025 172.072 210.769C171.932 210.513 171.696 210.324 171.416 210.242C143.916 203.06 118.1 185.956 104.988 160.176C97.334 145.13 96.154 127.866 104.372 112.752C119.372 85.1519 157.598 66.1519 185.584 52.6559C186.464 52.3999 185.758 51.1559 184.968 51.5119Z" fill="#191919"/>
<path d="M216.644 14.4699C219.273 22.7466 220.579 31.3861 220.516 40.0699C220.516 40.315 220.613 40.55 220.787 40.7233C220.96 40.8966 221.195 40.9939 221.44 40.9939C221.685 40.9939 221.92 40.8966 222.093 40.7233C222.267 40.55 222.364 40.315 222.364 40.0699C222.805 31.1435 221.304 22.2276 217.964 13.9379C217.884 13.7778 217.746 13.6537 217.578 13.5904C217.411 13.527 217.225 13.5291 217.059 13.5961C216.893 13.6631 216.758 13.7901 216.681 13.952C216.604 14.1139 216.591 14.2988 216.644 14.4699Z" fill="#191919"/>
<path d="M224.826 17.724C226.016 24.6387 226.285 31.6806 225.626 38.666C225.552 39.634 227.128 39.81 227.298 38.93C228.502 31.7563 228.172 24.4089 226.33 17.372C226.146 16.316 224.65 16.758 224.826 17.724Z" fill="#191919"/>
<path d="M232.658 27.844C232.968 32.684 232.583 37.5434 231.514 42.274C230.792 45.612 227.914 50.452 228.698 53.8C229.328 56.524 232.666 57.746 234.77 59.078C260.452 75.336 302.302 104.582 299.528 134.924C297.004 162.524 263.928 188.452 238.112 198.98C236.796 199.516 237.414 201.718 238.728 201.18C263.362 191.09 290.538 171.612 299.44 145.308C311.464 109.788 270.494 79.896 239.08 59.344C233.848 55.922 233.28 56.04 232.042 53.01C230.642 49.58 231.588 50.69 233.098 43.506C234.141 38.3258 234.466 33.0269 234.066 27.758C234.047 27.5772 233.959 27.4106 233.82 27.2932C233.681 27.1757 233.502 27.1163 233.321 27.1274C233.139 27.1385 232.969 27.2192 232.846 27.3527C232.722 27.4862 232.655 27.6622 232.658 27.844Z" fill="#191919"/>
<path d="M201.246 19.132C201.167 18.8974 201.001 18.7023 200.782 18.5872C200.563 18.472 200.308 18.4457 200.07 18.5137C199.832 18.5817 199.629 18.7387 199.504 18.9522C199.379 19.1657 199.341 19.4192 199.398 19.66C201.866 31.186 205.386 43.42 198.254 53.976C192.188 62.954 182.6 70 174.762 77.292C159.726 91.304 144 105.898 132.854 123.428C131.712 122.354 130.316 121.586 128.798 121.196C127.279 120.807 125.686 120.808 124.168 121.2C123.55 121.364 123.64 122.676 124.434 122.6C125.886 122.461 127.35 122.61 128.744 123.04C129.674 123.414 130.546 123.921 131.33 124.546C131.275 124.683 131.264 124.833 131.296 124.976C137.046 153.2 155.97 173.154 171.946 178.4C172.172 178.467 172.414 178.45 172.628 178.352C172.843 178.254 173.014 178.082 173.112 177.868C173.209 177.654 173.226 177.411 173.159 177.186C173.091 176.96 172.945 176.766 172.746 176.64C162.37 170.996 153.394 165.022 146.262 155.348C139.902 146.355 135.337 136.219 132.818 125.496C132.95 125.5 133.081 125.472 133.201 125.415C133.32 125.358 133.424 125.273 133.504 125.168C147.704 105.988 164.292 89.7 181.808 73.606C189.284 66.74 198.878 59.704 202.75 50.026C206.622 40.348 204.17 28.772 201.246 19.132Z" fill="#191919"/>
<path d="M280.522 118.03C279.09 117.749 277.61 117.83 276.217 118.268C274.825 118.705 273.564 119.484 272.55 120.534C257.51 105.939 243.31 90.5027 230.018 74.2999C223.166 65.7579 216.418 57.3119 213.828 46.4079C211.306 35.7559 212.428 25.2079 212.244 14.3819C212.23 13.5019 210.726 13.1459 210.572 14.1159C209.02 24.2856 209.258 34.6483 211.276 44.7359C213.398 55.1179 218.748 63.3079 225.178 71.5719C239.114 89.4839 254.63 107.416 272.016 122.216C269 126.846 266.45 131.85 263.454 136.508C260.08 141.321 256.151 145.721 251.75 149.618C245.128 156.018 238.816 162.728 232.218 169.064C231.602 169.864 232.658 170.91 233.274 170.208C240.224 163.696 246.824 156.834 253.774 150.234C262.136 141.942 269.091 132.343 274.364 121.814C274.396 121.753 274.423 121.69 274.442 121.624C276.179 120.268 278.318 119.53 280.522 119.526C281.314 119.426 281.228 118.2 280.522 118.03Z" fill="#191919"/>
<path d="M209.956 264.178C209.956 262.232 207.582 262.228 207.582 264.178C207.4 265.762 209.956 265.762 209.956 264.178Z" fill="#191919"/>
<path d="M252.542 130C250.478 129.809 248.397 130.111 246.472 130.88C245.768 131.144 245.328 130 245.944 129.65C247.99 128.521 250.294 127.945 252.63 127.978C252.863 127.493 253.13 127.025 253.43 126.578C253.98 125.454 254.275 124.222 254.296 122.971C254.317 121.72 254.062 120.48 253.55 119.338C253.038 118.196 252.281 117.181 251.333 116.364C250.385 115.548 249.269 114.949 248.064 114.612C248.775 112.368 249.015 110.001 248.768 107.66C248.604 106.496 248.098 105.406 247.315 104.529C246.532 103.652 245.506 103.027 244.368 102.732C242.784 102.468 240.638 103.016 239.88 101.588C239.663 101.059 239.572 100.486 239.616 99.9159C239.503 98.795 239.152 97.7111 238.588 96.7358C238.024 95.7606 237.259 94.9165 236.344 94.2593C235.429 93.6022 234.384 93.147 233.28 92.924C232.176 92.701 231.036 92.7153 229.938 92.9659C228.945 94.1467 228.413 95.6473 228.442 97.1899C228.429 97.3555 228.36 97.5116 228.246 97.6318C228.131 97.752 227.979 97.829 227.814 97.8497C227.649 97.8704 227.482 97.8336 227.342 97.7454C227.201 97.6573 227.095 97.5232 227.042 97.3659C226.882 96.2868 226.957 95.186 227.261 94.1383C227.564 93.0905 228.09 92.1204 228.802 91.2939C227.858 85.6319 221.468 82.1699 213.932 85.3119C213.578 83.4567 212.647 81.7605 211.273 80.4649C209.899 79.1693 208.151 78.3403 206.278 78.0959C204.4 77.925 202.51 78.2494 200.796 79.0369C199.083 79.8244 197.605 81.0474 196.512 82.5839C194.784 81.3801 192.732 80.728 190.626 80.7135C188.52 80.6989 186.46 81.3227 184.715 82.5025C182.971 83.6824 181.625 85.363 180.855 87.3229C180.084 89.2828 179.926 91.4301 180.4 93.4819C182.365 95.0545 183.832 97.1639 184.622 99.5539C184.87 100.262 183.754 100.692 183.478 100.08C182.759 98.5399 181.72 97.1706 180.431 96.0633C179.141 94.956 177.631 94.136 176 93.6579C165.03 93.0819 158.832 101.01 159.81 107.736C158.304 107.898 156.858 108.414 155.589 109.241C154.321 110.069 153.266 111.184 152.51 112.497C151.755 113.809 151.32 115.282 151.242 116.794C151.164 118.307 151.444 119.816 152.06 121.2C148.542 122.696 144.758 124.72 143.35 128.326C141.95 132.11 143.614 136.422 145.726 139.854C147.574 142.934 150.214 146.1 153.726 146.892C155.441 145.659 157.343 144.709 159.358 144.076C159.97 143.888 160.502 144.78 159.974 145.132C156.554 147.792 154.794 148.022 153.55 149.884C153.445 151.852 153.882 153.811 154.813 155.549C155.744 157.286 157.133 158.735 158.83 159.738C161.06 160.853 163.505 161.469 165.997 161.545C168.488 161.621 170.967 161.155 173.26 160.178C173.455 162.172 174.211 164.069 175.44 165.651C176.669 167.232 178.322 168.433 180.205 169.114C182.089 169.795 184.127 169.929 186.084 169.499C188.04 169.069 189.835 168.094 191.26 166.686C191.58 170.732 191.798 174.792 191.836 178.92C191.836 180.32 194.092 180.32 194.036 178.92C193.664 169.746 193.94 160.152 191.41 151.264C191.968 150.52 191.41 149.172 190.34 149.532C187.34 150.588 182.684 149.18 182.508 145.398C182.546 144.644 182.735 143.905 183.062 143.225C183.39 142.545 183.85 141.937 184.415 141.437C184.981 140.936 185.64 140.554 186.356 140.312C187.071 140.07 187.827 139.974 188.58 140.028C188.734 140.025 188.883 139.972 189.004 139.877C189.125 139.782 189.212 139.65 189.252 139.501C189.291 139.353 189.282 139.195 189.224 139.052C189.166 138.91 189.064 138.789 188.932 138.71C188.56 138.531 188.166 138.403 187.76 138.33C187.984 137.968 188.115 137.555 188.14 137.13C188.492 133.743 189.704 130.503 191.66 127.716C192.305 126.908 193.142 126.276 194.095 125.876C195.048 125.476 196.086 125.322 197.114 125.428C197.742 125.509 198.378 125.343 198.886 124.964C199.394 124.586 199.735 124.025 199.838 123.4C200.034 122.586 200.402 121.822 200.916 121.161C201.43 120.499 202.079 119.955 202.82 119.564C203.561 119.173 204.377 118.944 205.213 118.892C206.049 118.84 206.887 118.967 207.67 119.264C207.912 119.351 208.17 119.389 208.427 119.373C208.684 119.358 208.935 119.291 209.165 119.176C209.395 119.061 209.6 118.9 209.766 118.703C209.932 118.507 210.057 118.278 210.132 118.032C210.334 117.335 210.673 116.685 211.129 116.12C211.585 115.556 212.149 115.088 212.788 114.744C213.428 114.4 214.129 114.186 214.851 114.116C215.574 114.046 216.303 114.121 216.996 114.336C217.592 114.524 218.236 114.485 218.804 114.226C219.373 113.968 219.826 113.508 220.076 112.936C220.272 112.272 220.628 111.666 221.113 111.171C221.597 110.677 222.196 110.309 222.857 110.1C223.517 109.892 224.219 109.849 224.9 109.975C225.581 110.101 226.22 110.393 226.762 110.824C228.962 112.494 229.05 115.224 229.578 117.686C232.424 129.898 235.904 143.598 230.018 154.818C227.194 160.047 222.459 163.982 216.803 165.802C211.146 167.622 205.005 167.185 199.662 164.584C198.792 164.126 198.166 165.288 198.862 165.904C202.4 168.508 206.763 169.737 211.14 169.362C211.329 173.164 211.783 176.948 212.5 180.686C212.52 180.983 212.647 181.262 212.858 181.472C213.068 181.682 213.347 181.808 213.644 181.828C215.404 181.918 217.274 182.38 218.66 181.038C218.81 180.886 218.905 180.688 218.93 180.476C218.955 180.264 218.908 180.049 218.796 179.867C218.685 179.684 218.516 179.545 218.315 179.47C218.115 179.395 217.896 179.389 217.692 179.454C216.673 179.671 215.628 179.739 214.59 179.654C214.312 176.122 213.762 172.616 212.946 169.168C216.929 168.516 220.716 166.98 224.026 164.671C227.337 162.362 230.088 159.34 232.076 155.828C234.918 155.874 237.673 154.843 239.787 152.943C241.902 151.043 243.219 148.413 243.476 145.582C245.231 146.092 247.111 145.956 248.774 145.197C250.437 144.438 251.773 143.108 252.538 141.448C253.271 139.771 253.657 137.963 253.672 136.133C253.687 134.303 253.331 132.489 252.626 130.8C252.718 130.7 252.63 130.348 252.542 130ZM173.266 117.15C173.143 117.073 173.05 116.956 173.004 116.818C172.958 116.681 172.961 116.532 173.013 116.396C173.065 116.261 173.163 116.148 173.289 116.076C173.416 116.005 173.563 115.98 173.706 116.006C174.617 116.431 175.608 116.659 176.613 116.674C177.618 116.688 178.615 116.489 179.538 116.09C180.461 115.691 181.289 115.101 181.967 114.359C182.645 113.617 183.158 112.739 183.472 111.784C183.736 111.08 184.898 111.168 184.872 111.96C184.748 117.858 177.696 119.546 173.266 117.15ZM209.164 92.8659C205.822 93.3059 202.126 95.2419 202.654 99.1999C202.742 99.9039 201.686 99.9999 201.51 99.3779C200.366 94.8019 204.854 91.6339 209.078 91.6339C209.692 91.6339 209.87 92.7779 209.164 92.8659Z" fill="#191919"/>
<path d="M243.92 225.904C243.832 224.672 242.686 225.046 241.456 224.936C235.728 224.422 230.528 205.668 229.93 201.178C228.782 192.25 228.223 183.256 228.258 174.254C228.256 173.979 228.171 173.711 228.013 173.485C227.855 173.26 227.632 173.088 227.374 172.992C227.116 172.897 226.835 172.882 226.569 172.95C226.302 173.018 226.062 173.166 225.882 173.374C224.353 175.802 223.363 178.53 222.98 181.374C221.398 188.352 217.998 194.787 213.124 200.026C211.766 201.536 209.99 202.608 208.022 203.106C203.006 204.248 200.556 200.634 198.518 197.306C195.984 193.158 193.402 189.13 190.864 184.986C187.954 180.24 186.432 178.476 181.008 178.476C180.799 178.482 180.595 178.536 180.411 178.635C180.227 178.734 180.069 178.875 179.95 179.046C179.83 179.217 179.752 179.414 179.722 179.621C179.693 179.827 179.712 180.038 179.778 180.236C184.528 193.258 182.158 229.156 173.002 229.332C172.034 229.352 171.144 235.2 174.058 235.668C186.688 237.692 199.572 240.22 212.244 238.836C222.888 237.672 232.716 237.184 242.072 233.204C242.591 232.993 243.031 232.625 243.331 232.152C243.631 231.679 243.775 231.123 243.744 230.564L243.92 225.904ZM218.756 200.826C213.756 204.544 210.744 211.926 203.27 209.01C196.754 206.468 192.632 197.242 188.928 191.852C188.5 191.228 189.546 190.618 189.984 191.236C193.524 196.236 196.938 203.55 202.384 206.636C210.306 211.116 212.476 202.534 218.046 199.596C218.209 199.502 218.403 199.476 218.585 199.525C218.767 199.574 218.922 199.693 219.016 199.856C219.11 200.019 219.136 200.213 219.087 200.395C219.038 200.577 218.919 200.732 218.756 200.826Z" fill="#38A1FF"/>
<path d="M173.354 223.264C173.3 219.251 172.918 215.249 172.21 211.298C172.01 210.156 170.19 210.592 170.45 211.826C171.25 215.606 171.672 219.49 172.122 223.352C172.2 223.97 173.354 224.056 173.354 223.264Z" fill="#191919"/>
<path d="M239.08 214.64C239.417 209.926 239.505 205.197 239.344 200.474C239.344 199.244 237.322 199.242 237.408 200.474C237.496 205.226 237.352 209.982 237.76 214.64C237.76 214.815 237.83 214.983 237.953 215.107C238.077 215.23 238.245 215.3 238.42 215.3C238.595 215.3 238.763 215.23 238.887 215.107C239.01 214.983 239.08 214.815 239.08 214.64Z" fill="#191919"/>
<path d="M376.694 318.818C376.885 318.791 377.059 318.696 377.185 318.55C377.312 318.405 377.381 318.219 377.381 318.026C377.381 317.833 377.312 317.647 377.185 317.502C377.059 317.356 376.885 317.261 376.694 317.234C374.001 317.022 371.327 316.61 368.694 316.002C368.626 313.127 368.077 310.284 367.07 307.59C369.722 308.114 372.443 308.192 375.12 307.82C375.318 307.82 375.509 307.741 375.649 307.601C375.789 307.461 375.868 307.27 375.868 307.072C375.868 306.874 375.789 306.683 375.649 306.543C375.509 306.403 375.318 306.324 375.12 306.324C372.216 306.236 369.31 305.972 366.406 305.972C365.556 304.089 364.511 302.301 363.288 300.636C366.23 300.842 369.181 300.89 372.128 300.78C373.096 300.78 373.098 299.268 372.128 299.196C369.056 298.937 365.97 298.879 362.89 299.022C362.776 299.039 362.666 299.079 362.567 299.139C362.468 299.199 362.382 299.278 362.314 299.372C361.053 297.826 359.666 296.387 358.168 295.07C360.168 294.792 362.168 294.47 364.122 294.006C364.922 293.83 364.824 292.422 363.944 292.51C361.486 292.803 359.045 293.225 356.632 293.776C354.455 292.048 352.142 290.499 349.716 289.144C351.578 288.814 353.42 288.381 355.234 287.846C356.202 287.582 355.76 286.246 354.794 286.35C352.317 286.671 349.871 287.202 347.484 287.938C347.684 287.938 343.508 286 340.67 284.878C343.923 283.913 347.065 282.607 350.044 280.982C350.192 280.902 350.304 280.77 350.359 280.612C350.414 280.453 350.408 280.28 350.342 280.126C350.276 279.972 350.154 279.848 350.001 279.779C349.849 279.709 349.675 279.7 349.516 279.752C345.783 280.86 342.166 282.327 338.716 284.132C334.764 282.672 333.716 282.488 333.916 282.488C337.176 281.073 340.357 279.484 343.446 277.728C343.593 277.624 343.701 277.473 343.749 277.299C343.797 277.126 343.784 276.941 343.712 276.776C343.639 276.611 343.511 276.476 343.351 276.394C343.19 276.313 343.006 276.289 342.83 276.328C340.155 277.31 337.575 278.533 335.122 279.984C335.951 278.225 336.256 276.264 336 274.337C335.744 272.409 334.939 270.596 333.68 269.114C329.28 264.01 322.24 261.194 315.906 259.514C302.706 256.17 288.894 257.14 275.608 259.426C261.369 261.829 247.37 265.486 233.776 270.356C236.01 267.37 235.84 263.27 236.278 259.69C237.202 253.25 237.642 246.75 237.596 240.244C237.585 240.018 237.488 239.805 237.324 239.649C237.161 239.493 236.943 239.406 236.717 239.406C236.491 239.406 236.273 239.493 236.11 239.649C235.946 239.805 235.849 240.018 235.838 240.244C235.722 247.867 235.164 255.476 234.166 263.034C234.173 264.847 233.814 266.643 233.11 268.314C230.91 272.448 226.07 273.066 221.848 273.416C211.033 274.146 200.177 274.029 189.38 273.066C189.292 273.066 184.98 272.976 184.98 273.066C184.18 272.448 184.012 268.314 183.836 267.346C182.164 259.162 180.406 250.98 179.35 242.62C179.174 242.004 177.95 241.916 178.03 242.796C179.208 252.736 181.194 262.596 183.214 272.298C161.57 265.122 138.356 262.202 115.734 260.13C105.792 259.162 94.882 257.666 85.378 261.802C82.9095 262.764 80.655 264.203 78.7432 266.037C76.8314 267.872 75.2999 270.065 74.2363 272.491C73.1727 274.917 72.5978 277.53 72.5446 280.179C72.4913 282.827 72.9608 285.461 73.926 287.928C70.9582 288.841 68.0471 289.93 65.208 291.188C65.1639 291.055 65.085 290.936 64.9795 290.843C64.874 290.751 64.7458 290.688 64.608 290.662C62.243 289.845 59.9225 288.905 57.656 287.846C57.04 287.494 56.424 288.55 56.952 289.078C58.7636 290.519 60.8553 291.566 63.094 292.154C60.858 293.222 58.654 294.398 56.506 295.676C53.342 295.236 50.264 294.444 47.106 293.83C46.9275 293.794 46.7421 293.826 46.5854 293.919C46.4288 294.011 46.3119 294.159 46.2573 294.332C46.2028 294.506 46.2143 294.694 46.2897 294.859C46.3652 295.025 46.4992 295.157 46.666 295.23C49.0622 296.172 51.5638 296.819 54.116 297.158C50.7397 299.328 47.55 301.776 44.58 304.476C41.6385 303.938 38.6579 303.642 35.668 303.59C34.868 303.502 34.606 304.842 35.492 305.086C37.9003 305.636 40.3488 305.992 42.814 306.152C39.9731 308.9 37.453 311.962 35.302 315.278C32.61 314.924 30.002 314.322 27.302 314.06C26.422 313.886 26.336 315.204 27.126 315.556C29.4473 316.334 31.8541 316.828 34.294 317.028C33.0562 319.349 32.1641 321.837 31.646 324.416C31.342 324.416 32.096 324.416 23.168 326.016C22.9898 326.062 22.8343 326.171 22.7303 326.322C22.6263 326.474 22.5808 326.658 22.6023 326.841C22.6237 327.024 22.7108 327.192 22.8472 327.316C22.9836 327.439 23.1601 327.509 23.344 327.512C26.0511 327.411 28.7365 326.988 31.344 326.254C30.972 329.323 31.1892 332.435 31.984 335.422C29.0839 335.344 26.184 335.584 23.336 336.136C22.632 336.224 22.808 337.368 23.512 337.456C25.1544 337.515 26.7987 337.485 28.438 337.368C29.7896 337.379 31.1393 337.265 32.47 337.028C33.3642 339.633 34.6576 342.084 36.304 344.292C33.6857 344.904 31.1155 345.706 28.614 346.692C27.814 347.044 28.086 348.276 28.966 348.012C31.8297 347.432 34.6503 346.657 37.408 345.692C38.6725 347.195 40.0738 348.577 41.594 349.82C39.496 351.65 37.268 353.466 35.038 355.138C34.334 355.668 34.95 356.898 35.742 356.372C38.2888 354.73 40.7126 352.904 42.994 350.91C44.8293 352.258 46.7687 353.457 48.794 354.498C46.3102 356.475 44.1852 358.864 42.512 361.562C41.984 362.442 43.312 363.146 43.832 362.362C45.6191 359.673 47.8187 357.283 50.35 355.28C51.888 356.012 53.46 356.68 55.056 357.28C53.9358 359.617 53.0359 362.054 52.368 364.558C52.104 365.438 53.246 365.958 53.598 365.174C54.7628 362.803 55.7249 360.337 56.474 357.804C58.432 358.51 60.418 359.144 62.404 359.734C61.8918 360.591 61.5603 361.544 61.43 362.534C61.078 363.934 60.726 365.262 60.462 366.67C60.286 367.724 61.694 368.07 61.958 367.198C62.5242 364.833 63.2172 362.5 64.034 360.21C66.2647 360.842 68.504 361.451 70.752 362.038C70.352 362.938 70.102 363.948 69.788 364.822C69.32 366.13 68.988 367.55 68.644 368.87C68.556 369.66 69.788 370.012 70.044 369.22C70.9678 367.018 71.7618 364.764 72.422 362.47C74.662 363.045 76.908 363.598 79.16 364.13C78.866 365.444 78.626 366.752 78.316 367.99C77.964 369.484 77.436 370.892 77.172 372.39C77.1508 372.542 77.1826 372.697 77.2622 372.828C77.3418 372.96 77.4642 373.06 77.6089 373.111C77.7536 373.163 77.9117 373.163 78.0565 373.112C78.2013 373.061 78.324 372.961 78.404 372.83C79.7505 370.247 80.5621 367.42 80.79 364.516C83.8567 365.232 86.9233 365.923 89.99 366.588C89.025 369.564 88.2113 372.587 87.552 375.646C87.5234 375.814 87.5588 375.988 87.6512 376.131C87.7436 376.275 87.8864 376.379 88.0516 376.424C88.2168 376.468 88.3925 376.448 88.5442 376.37C88.696 376.291 88.8129 376.158 88.872 375.998C89.872 372.998 90.79 369.998 91.558 366.926C91.558 366.926 95.344 367.736 97.222 368.126C96.2355 370.385 95.5581 372.768 95.208 375.208C95.1791 375.323 95.1732 375.443 95.1907 375.561C95.2082 375.679 95.2487 375.792 95.3099 375.894C95.3711 375.996 95.4518 376.085 95.5474 376.156C95.643 376.227 95.7516 376.278 95.867 376.307C95.9824 376.336 96.1024 376.342 96.2201 376.324C96.3378 376.307 96.4509 376.266 96.553 376.205C96.655 376.144 96.744 376.063 96.8149 375.968C96.8858 375.872 96.9371 375.763 96.966 375.648C97.5031 373.225 98.1707 370.833 98.966 368.482C101.499 368.995 104.033 369.491 106.566 369.97C105.582 372.466 104.732 375.013 104.02 377.6C103.668 378.744 105.34 379.184 105.78 378.04C106.766 375.513 107.598 372.928 108.272 370.3C111.152 370.833 114.035 371.345 116.92 371.834C115.99 374.285 115.236 376.801 114.666 379.36C114.608 379.582 114.64 379.817 114.755 380.016C114.871 380.214 115.06 380.358 115.282 380.416C115.504 380.474 115.74 380.442 115.938 380.327C116.136 380.211 116.28 380.022 116.338 379.8C117.254 377.293 117.967 374.717 118.47 372.096C121.262 372.563 124.057 373.009 126.856 373.434C125.541 376.377 124.552 379.456 123.906 382.614C123.818 383.494 124.96 384.112 125.4 383.232C126.772 380.171 127.788 376.962 128.43 373.67C130.963 374.049 133.497 374.411 136.03 374.756C135.206 377.346 134.622 380.005 134.286 382.702C134.198 383.67 135.606 383.67 135.87 382.878C136.711 380.306 137.301 377.658 137.632 374.972C140.056 375.296 142.479 375.605 144.902 375.9C144.117 378.838 143.481 381.814 142.996 384.816C142.82 385.782 144.228 386.216 144.492 385.254C145.303 382.234 145.95 379.173 146.432 376.084C146.988 376.15 151.232 376.624 152.806 376.788C152.269 378.459 151.872 380.173 151.62 381.91C151.444 382.79 152.674 383.406 153.116 382.528C153.91 380.77 154.399 378.89 154.564 376.968C157.031 377.216 159.497 377.447 161.964 377.662C161.024 380.373 160.416 383.188 160.152 386.046C160.064 387.014 161.552 387.19 161.824 386.31C162.574 383.562 163.166 380.654 163.748 377.816C165.785 377.987 167.823 378.146 169.862 378.294C169.856 379.945 169.578 381.584 169.038 383.144C168.988 383.335 169.01 383.537 169.098 383.714C169.186 383.891 169.335 384.029 169.518 384.104C169.701 384.179 169.904 384.185 170.091 384.122C170.278 384.058 170.435 383.929 170.534 383.758C171.341 382.099 171.691 380.254 171.546 378.414C173.451 378.547 175.357 378.67 177.264 378.782C176.605 381.26 175.767 383.688 174.758 386.046C174.7 386.157 174.666 386.28 174.658 386.405C174.649 386.53 174.667 386.656 174.71 386.774C174.753 386.893 174.819 387.001 174.906 387.092C174.992 387.183 175.097 387.255 175.213 387.304C175.328 387.352 175.453 387.377 175.579 387.375C175.704 387.373 175.828 387.345 175.943 387.293C176.057 387.241 176.159 387.166 176.243 387.073C176.327 386.979 176.391 386.869 176.43 386.75C177.566 384.23 178.416 381.59 178.964 378.88C181.137 379.004 183.312 379.114 185.488 379.21C184.908 382.217 184.614 385.272 184.612 388.334C184.612 389.134 186.012 389.388 186.108 388.51C186.48 385.398 186.718 382.31 187.138 379.28C189.725 379.388 192.311 379.477 194.896 379.546C194.826 381.988 194.426 384.494 194.468 386.926C194.481 387.091 194.55 387.248 194.664 387.368C194.779 387.488 194.931 387.565 195.096 387.586C195.261 387.606 195.428 387.57 195.568 387.481C195.709 387.393 195.815 387.259 195.868 387.102C196.373 384.631 196.581 382.108 196.486 379.588C199.659 379.664 202.833 379.714 206.008 379.738C205.408 381.84 204.632 383.938 204.228 386.046C204.052 386.926 205.284 387.542 205.724 386.662C206.678 384.443 207.377 382.123 207.808 379.746C209.981 379.754 212.156 379.749 214.332 379.732C213.845 381.926 213.526 384.155 213.378 386.398C213.374 386.598 213.444 386.792 213.576 386.943C213.707 387.093 213.891 387.189 214.089 387.211C214.288 387.233 214.488 387.18 214.649 387.062C214.811 386.944 214.922 386.77 214.962 386.574C215.42 384.308 215.728 381.974 215.978 379.716C217.642 379.699 219.309 379.672 220.978 379.636C220.417 382.278 219.997 384.949 219.72 387.636C219.648 388.518 221.04 388.692 221.304 387.812C221.962 385.113 222.445 382.374 222.75 379.612C225.374 379.549 227.999 379.468 230.624 379.368C230.442 382.598 229.75 385.912 229.75 389.14C229.75 390.02 231.15 390.284 231.334 389.316C231.963 386.014 232.285 382.661 232.296 379.3C234.973 379.191 237.651 379.061 240.33 378.91C240.221 380.451 240.332 382 240.66 383.51C240.707 383.674 240.811 383.815 240.953 383.909C241.095 384.003 241.266 384.043 241.434 384.022C241.603 384.001 241.759 383.92 241.874 383.794C241.989 383.669 242.055 383.506 242.06 383.336C242.098 381.824 242.146 380.318 242.092 378.808C243.9 378.7 245.707 378.583 247.514 378.456C247.766 382.056 247.714 385.638 248.044 389.23C248.059 389.442 248.153 389.64 248.308 389.785C248.463 389.93 248.668 390.01 248.88 390.01C249.092 390.01 249.297 389.93 249.452 389.785C249.607 389.64 249.701 389.442 249.716 389.23C249.934 385.589 249.728 381.935 249.102 378.342C251.381 378.177 253.657 377.996 255.932 377.8C255.997 379.535 256.153 381.266 256.402 382.984C256.578 383.862 257.802 383.598 257.898 382.806C257.983 381.083 257.87 379.355 257.562 377.658C260.149 377.427 262.732 377.179 265.312 376.912C265.277 380.288 265.653 383.656 266.432 386.942C266.696 387.822 268.082 387.648 268.016 386.766C267.768 383.406 267.23 380.112 266.788 376.756C269.144 376.503 271.507 376.229 273.878 375.934C273.925 377.891 274.293 379.827 274.968 381.664C275.232 382.368 276.464 382.368 276.368 381.488C276.241 379.548 275.964 377.62 275.54 375.722C277.259 375.501 278.977 375.265 280.696 375.014C282.483 377.75 283.787 380.772 284.55 383.95C284.814 385.094 286.574 384.654 286.31 383.422C285.661 380.292 284.353 377.336 282.472 374.752C285.005 374.368 287.531 373.949 290.05 373.496C291.51 376.07 292.788 378.744 293.876 381.496C294.228 382.296 295.356 381.676 295.196 380.968C294.52 378.18 293.322 375.546 291.664 373.206C294.264 372.718 296.854 372.185 299.434 371.606C300.778 374.464 302.134 377.314 303.732 380.006C303.824 380.131 303.956 380.222 304.106 380.263C304.255 380.304 304.415 380.293 304.558 380.231C304.701 380.17 304.819 380.062 304.892 379.926C304.966 379.789 304.991 379.631 304.964 379.478C303.967 376.595 302.659 373.83 301.064 371.23C303.412 370.678 305.745 370.078 308.064 369.43C309.205 371.468 310.46 373.44 311.824 375.336C311.877 375.423 311.946 375.498 312.027 375.558C312.109 375.618 312.202 375.661 312.3 375.685C312.399 375.71 312.501 375.714 312.601 375.699C312.701 375.683 312.797 375.648 312.884 375.596C312.971 375.543 313.046 375.474 313.106 375.393C313.166 375.311 313.209 375.218 313.234 375.12C313.258 375.021 313.262 374.919 313.247 374.819C313.231 374.719 313.197 374.623 313.144 374.536C312.205 372.548 311.031 370.68 309.648 368.972C312.153 368.248 314.636 367.461 317.096 366.612C317.99 368.95 318.754 371.424 319.832 373.744C320.184 374.624 321.414 373.92 321.232 373.128C320.655 370.676 319.732 368.319 318.49 366.128C320.518 365.403 322.525 364.629 324.512 363.806C325.51 366.117 326.868 368.256 328.534 370.144C328.659 370.268 328.825 370.343 329.001 370.354C329.177 370.366 329.352 370.313 329.491 370.205C329.631 370.097 329.727 369.943 329.762 369.77C329.796 369.596 329.766 369.417 329.678 369.264C328.574 367.214 327.186 365.232 325.96 363.196C328.301 362.191 330.608 361.111 332.88 359.956C333.592 362.241 334.849 364.318 336.542 366.01C336.683 366.127 336.86 366.193 337.043 366.195C337.226 366.198 337.405 366.138 337.549 366.024C337.693 365.911 337.794 365.751 337.835 365.573C337.875 365.394 337.853 365.206 337.772 365.042C336.494 363.176 335.381 361.202 334.448 359.142C336.735 357.93 338.977 356.634 341.174 355.254C342.75 357.262 344.563 359.071 346.574 360.642C347.278 361.17 347.894 360.114 347.374 359.586C345.846 357.752 344.052 356.186 342.396 354.478C344.992 352.789 347.515 350.967 349.964 349.012C351.321 350.527 352.988 351.733 354.852 352.548C355.652 352.9 355.996 351.668 355.38 351.316C353.88 350.343 352.453 349.262 351.11 348.082C353.564 346.052 355.896 343.882 357.218 342.534C358.908 344.459 361.158 345.806 363.652 346.388C363.848 346.44 364.057 346.413 364.234 346.313C364.411 346.213 364.542 346.049 364.599 345.854C364.656 345.659 364.635 345.45 364.541 345.27C364.446 345.09 364.285 344.955 364.092 344.892C361.883 344.26 359.878 343.06 358.278 341.412C359.571 339.992 360.768 338.487 361.86 336.908C363.523 338.177 365.374 339.179 367.346 339.878C368.146 340.14 368.578 338.91 367.874 338.556C366.13 337.646 364.384 336.736 362.694 335.656C363.59 334.26 364.402 332.812 365.126 331.32C367.982 332.534 370.926 333.824 373.946 334.774C374.746 335.038 375.266 333.806 374.562 333.374C371.706 332.045 368.771 330.891 365.774 329.92C366.242 328.848 366.66 327.756 367.024 326.652C370.111 326.593 373.196 326.841 376.234 327.392C376.395 327.383 376.549 327.323 376.673 327.22C376.798 327.117 376.886 326.978 376.925 326.821C376.964 326.665 376.953 326.5 376.892 326.351C376.831 326.202 376.724 326.076 376.586 325.992C373.7 324.899 370.585 324.555 367.53 324.992C368.199 322.591 368.579 320.119 368.662 317.628C371.234 318.553 373.964 318.957 376.694 318.818ZM82.462 265.938C91.174 259.866 102.524 261.098 112.554 261.978C136.712 263.934 160.65 268.024 184.088 274.2C193.792 275.205 203.545 275.645 213.3 275.52C218.236 275.386 225.044 275.872 229.928 273.47C252.34 266.524 276.418 258.452 300.232 259.594C310.966 260.122 342.466 265.394 331.292 282.394C325.22 291.544 314.222 297.352 304.544 301.75C283.872 311.2 258.944 314.792 256.504 315.888C254.218 315.701 251.917 315.791 249.652 316.156C238.95 307.942 225.652 302.468 212.652 297.968C230.532 290.498 241.41 283.594 278.582 276.674C279.55 276.498 279.112 275.11 278.23 275.274C265.089 277.365 252.121 280.424 239.43 284.424C229.514 287.788 218.754 291.576 209.63 296.942C184.413 288.28 158.325 282.401 131.83 279.41C130.95 279.322 130.946 280.84 131.918 280.992C168.54 286.758 216.854 296.858 247.624 317.592C247.311 317.972 247.043 318.385 246.824 318.826C244.941 321.452 244.064 324.667 244.35 327.886C218.52 324.236 187.66 321.686 161.388 320.234C139.136 318.834 127.724 320.168 101.204 308.356C92.758 304.66 83.958 300.436 78.68 292.606C72.784 283.888 73.4 272.274 82.462 265.938ZM127.424 330.256C128.377 331.057 129.535 331.575 130.768 331.752C147.931 335.804 166 332.903 181.032 323.682C239.206 327.894 245.66 331.482 247.176 330.282C255.274 333.74 263.712 335.152 272.076 336.94C281.138 338.876 291.076 339.578 299.264 335.092C300.311 334.586 301.218 333.831 301.904 332.892C302.404 331.966 302.621 330.913 302.527 329.865C302.433 328.816 302.033 327.818 301.376 326.996C300.001 325.405 298.287 324.142 296.36 323.302C287.01 318.702 276.48 317.436 266.052 316.578C283.487 313.156 300.304 307.113 315.93 298.656C327.374 307.24 328.93 315.196 323.9 326.294C319.567 335.037 312.575 342.183 303.928 346.706C285.362 357.088 263.542 357.88 242.776 358.32C197.55 359.288 151.622 360.256 107.452 349.258C96.278 346.442 83.166 343.362 77.008 332.54C75.4652 330.003 74.5137 327.151 74.2242 324.196C73.9348 321.241 74.3148 318.258 75.336 315.47C77.516 309.892 82.114 306.47 86.906 303.242C96.542 309.718 115.066 316.616 126.346 319.164C125.395 320.908 124.99 322.898 125.182 324.875C125.374 326.853 126.155 328.727 127.424 330.256ZM355.84 341.166C346.074 351.022 332.524 358.766 319.678 363.78C304.456 369.674 288.178 372.316 271.988 374.162C203.038 382.171 133.194 376.975 66.188 358.852C57.124 356.39 47.71 353.398 40.758 346.71C34.158 340.464 30.64 331.488 33.456 322.602C34.0925 320.658 34.931 318.785 35.958 317.016C36.0456 316.954 36.119 316.873 36.1734 316.781C36.2279 316.688 36.2621 316.585 36.274 316.478C43.452 304.514 60.614 293.478 74.336 289.042C76.8074 294.554 80.8136 299.238 85.876 302.534C78.804 307.058 72.692 312.802 72.434 321.81C72.17 331.4 78.682 339.582 86.688 344.07C97.16 349.87 110.088 351.988 121.796 354.27C160.172 361.734 200.974 361.162 240.396 360.254C263.098 359.726 287.47 359.286 307.444 346.792C316.506 341.16 324.424 332.626 327.328 322.068C328.843 317.775 328.718 313.074 326.976 308.868C324.758 304.449 321.517 300.624 317.522 297.712C323.571 294.278 328.829 289.61 332.954 284.01C345.052 287.912 358.89 294.318 364.554 306.41C370.094 318.29 364.552 332.456 355.84 341.166Z" fill="#191919"/>
</svg>
