<svg width="400" height="400" viewBox="0 0 400 400" fill="none" xmlns="http://www.w3.org/2000/svg">
<path d="M58.58 315.74C56.4816 323.365 54.8585 331.114 53.72 338.94C52.86 344.78 52.54 351.54 56.66 355.78C58.2554 357.238 60.1807 358.287 62.2708 358.838C64.3609 359.388 66.5533 359.423 68.66 358.94C72.8643 357.924 76.8003 356.014 80.2 353.34C90.268 346.196 98.7013 336.993 104.94 326.34L58.58 315.74Z" fill="#FFF4EE"/>
<path d="M57.4002 315.44C55.1947 323.318 53.5243 331.337 52.4002 339.44C51.6002 345.32 51.4002 352.44 56.0802 356.86C60.7602 361.28 68.2202 360.86 73.9002 358.38C86.9602 351.84 98.5802 339.32 105.9 326.9C106.053 326.626 106.093 326.303 106.011 326C105.928 325.697 105.731 325.439 105.46 325.28C105.189 325.128 104.869 325.089 104.57 325.171C104.27 325.254 104.015 325.451 103.86 325.72C97.2548 337.095 88.0932 346.777 77.1002 354C71.9002 357.3 64.9602 359.88 59.2002 356.34C53.9002 353.08 53.9402 346.1 54.5002 340.66C55.6006 332.324 57.3186 324.081 59.6402 316C59.6796 315.846 59.6883 315.686 59.6659 315.529C59.6435 315.372 59.5904 315.221 59.5096 315.085C59.4288 314.948 59.3219 314.829 59.1951 314.734C59.0682 314.639 58.9238 314.569 58.7702 314.53C58.6165 314.491 58.4566 314.482 58.2996 314.504C58.1426 314.527 57.9915 314.58 57.855 314.661C57.7185 314.741 57.5992 314.848 57.504 314.975C57.4088 315.102 57.3396 315.246 57.3002 315.4L57.4002 315.44Z" fill="#5E503B"/>
<path d="M128.54 334.76C134 347.7 148.92 364.5 162 359.86C164.217 358.901 166.219 357.505 167.885 355.756C169.552 354.007 170.849 351.941 171.7 349.68C177.4 336.62 173.26 321.54 169.04 307.96L128.54 334.76Z" fill="#FFF4EE"/>
<path d="M127.42 335.06C132.14 346.54 143.58 360.54 155.98 361.66C159.115 361.824 162.229 361.074 164.945 359.501C167.662 357.928 169.862 355.6 171.28 352.8C174.603 346.55 176.041 339.471 175.42 332.42C174.599 324.001 172.779 315.709 170 307.72C169.889 307.445 169.68 307.219 169.415 307.087C169.149 306.954 168.844 306.923 168.557 306.999C168.27 307.075 168.02 307.253 167.855 307.5C167.69 307.747 167.621 308.046 167.66 308.34C171.52 320.9 175.8 335.12 170.92 348.02C168.92 353.5 164.66 358.94 158.4 359.46C146.54 360.44 134.22 345.64 129.58 334.54C129.02 333.14 126.74 333.76 127.24 335.16L127.42 335.06Z" fill="#5E503B"/>
<path d="M250.88 247.78C245.14 253.78 233.88 252.16 226.38 247.9C219.86 244.22 214.38 237.9 206.24 241.34C204.364 242.502 202.901 244.223 202.058 246.262C201.214 248.301 201.033 250.553 201.54 252.7C202.681 256.997 205.213 260.794 208.74 263.5C215.011 268.581 222.718 271.569 230.776 272.042C238.833 272.516 246.837 270.452 253.66 266.14L250.88 247.78Z" fill="#FFD6AE"/>
<path d="M224.74 245.58C220.96 243.24 217.28 240.2 212.74 239.44C210.823 239.004 208.822 239.122 206.97 239.781C205.118 240.439 203.491 241.611 202.28 243.16C190.62 258.94 225.24 285.48 254.16 267.16C255.44 266.34 254.16 264.32 253 265.16C225.88 282.3 193.84 257.64 204.42 244.34C207.24 240.8 212.16 241.14 215.92 242.84C219.68 244.54 223.26 247.72 227.2 249.66C234.52 253.32 245.4 255.12 251.74 248.62C252.8 247.54 251.14 245.88 250.08 246.98C249.84 247 241.56 256.5 224.74 245.58Z" fill="#5E503B"/>
<path d="M176.5 238.48C186.59 242.078 197.427 243.062 208 241.34C213.84 240.38 220.16 238.68 225.32 241.56C227.22 242.664 228.752 244.305 229.723 246.276C230.694 248.247 231.062 250.461 230.78 252.64C229.86 258.94 223.76 263.12 217.82 265.46C203.987 270.867 188.593 270.673 174.9 264.92L176.5 238.48Z" fill="#FFF4EE"/>
<path d="M176.2 239.6C202.56 248.98 216.04 237.1 224.98 242.84C226.495 243.788 227.728 245.125 228.551 246.711C229.374 248.298 229.757 250.075 229.66 251.86C229.446 253.571 228.876 255.218 227.988 256.696C227.099 258.174 225.911 259.449 224.5 260.44C214.7 268.08 193.86 271.66 175.22 263.82C173.8 263.26 173.22 265.52 174.58 266.18C190.18 272.7 209.84 272.56 224.72 263.28C231.08 259.28 234.28 251.5 230.2 244.88C225.52 237.06 216 238.88 208.4 240.18C197.799 241.971 186.916 241.028 176.78 237.44C175.36 236.92 174.78 239.2 176.18 239.78L176.2 239.6Z" fill="#5E503B"/>
<path d="M61.6002 223.04C62.3603 241.185 59.2586 259.284 52.5002 276.14C50.6941 280.062 49.287 284.156 48.3002 288.36C40.7402 330 101.6 344.14 131.08 339.76C187.36 331.32 193.4 263.76 172.94 221.18L61.6002 223.04Z" fill="#FFF4EE"/>
<path d="M60.4201 223.04C61.8201 256.68 49.8001 277.96 47.7801 285.52C45.767 292.77 46.103 300.472 48.7401 307.52C55.7801 325.52 76.0601 334.48 93.6001 338.62C112.2 343.06 132.98 343.76 150.5 335.04C188.5 316.08 192.84 260.06 173.94 220.64C173.28 219.28 171.28 220.48 171.94 221.84C180.651 240.165 184.112 260.546 181.94 280.72C179.8 299.66 171.62 318.72 155.32 329.54C139.02 340.36 119.32 340.88 100.84 337.54C91.1938 335.94 81.8428 332.899 73.1001 328.52C65.0637 324.747 58.2357 318.812 53.3801 311.38C50.8816 307.093 49.3746 302.301 48.9697 297.355C48.5647 292.41 49.2722 287.436 51.0401 282.8C53.0401 277.04 64.4601 253.68 62.6801 222.9C62.6429 222.616 62.5037 222.355 62.2884 222.166C62.0731 221.977 61.7965 221.873 61.5101 221.873C61.2237 221.873 60.947 221.977 60.7318 222.166C60.5165 222.355 60.3773 222.616 60.3401 222.9L60.4201 223.04Z" fill="#5E503B"/>
<path d="M111.04 318.48C93.2202 315.56 76.5202 309.04 62.7202 297.6C57.2202 293.34 52.9823 287.664 50.4602 281.18C49.5004 283.446 48.7766 285.805 48.3002 288.22C40.7402 330.08 101.6 344.22 131.08 339.76C156.88 335.9 172.02 319.62 179.08 299.04C162.54 314.28 138 322.38 111.04 318.48Z" fill="#FCF5AC"/>
<path d="M178.14 298.14C132.62 339.46 60.76 308.34 51.56 280.88C51.56 280.567 51.4357 280.267 51.2144 280.046C50.9931 279.824 50.693 279.7 50.38 279.7C50.0671 279.7 49.7669 279.824 49.5457 280.046C49.3244 280.267 49.2 280.567 49.2 280.88C46.8731 286.456 45.9868 292.527 46.623 298.536C47.2591 304.544 49.3971 310.295 52.84 315.26C65.34 332.54 92.84 340.5 113.94 341.54C126.42 342.681 138.975 340.428 150.28 335.02C165.18 327.72 174.68 315.02 180.08 299.26C180.48 298 178.94 297.38 178.14 298.14ZM117.82 339.46C81.38 338.72 39.36 319.46 50.36 284.68C53.5883 290.879 58.2092 296.246 63.86 300.36C93.58 323.58 142.78 330.06 176.3 302.72C166.44 327.36 143.76 340.44 117.82 339.46Z" fill="#5E503B"/>
<path d="M63.04 242.8C51.32 243.28 43.68 236.62 38.56 226.98C36.1 222.3 32.7 217.42 27.54 216.58C25.0405 216.356 22.5353 216.943 20.3956 218.255C18.2559 219.566 16.5954 221.531 15.66 223.86C13.8653 228.567 13.6755 233.734 15.12 238.56C20.48 260.76 40.46 266.1 61.36 264.1L63.04 242.8Z" fill="#FFF4EE"/>
<path d="M63.0401 241.62C53.4601 242.14 45.5001 236.82 40.7801 228.56C38.3201 224.56 36.3401 220.08 32.2801 217.3C30.372 215.991 28.1019 215.312 25.7884 215.359C23.4748 215.405 21.2339 216.175 19.3801 217.56C10.5001 223.92 12.3401 236.74 16.1801 245.56C19.4777 252.971 25.4794 258.844 32.9601 261.98C42.0052 265.423 51.7612 266.578 61.3601 265.34C62.8401 265.2 62.8601 262.84 61.3601 262.98C46.1601 264.4 28.2401 262.08 19.8801 247.6C15.4801 240 12.2401 227.18 19.6401 220.42C21.2976 218.777 23.5264 217.839 25.8599 217.801C28.1935 217.764 30.451 218.631 32.1601 220.22C35.6801 223.3 37.3201 227.72 39.8801 231.52C42.2401 235.497 45.6354 238.758 49.7037 240.956C53.772 243.154 58.3607 244.206 62.9801 244C63.2931 244 63.5932 243.876 63.8145 243.654C64.0358 243.433 64.1601 243.133 64.1601 242.82C64.1601 242.507 64.0358 242.207 63.8145 241.986C63.5932 241.764 63.2931 241.64 62.9801 241.64L63.0401 241.62Z" fill="#5E503B"/>
<path d="M176.24 254.38C170.24 247.38 158.06 245.94 147.4 254.54C140.212 260.303 134.289 267.486 130 275.64C122 267.36 114 257.38 102.48 254.26C92.02 251.52 79.04 255.06 74.66 264.92C71.18 272.8 74.3 282.64 80.82 288.26C84.2048 290.944 88.1039 292.906 92.2765 294.024C96.4492 295.142 100.807 295.392 105.08 294.76C113.605 293.404 121.792 290.431 129.2 286C129.64 285.76 142.82 291.42 144.96 291.66C150.609 292.405 156.352 291.893 161.78 290.16C181.5 283.84 184.56 264.26 176.24 254.38Z" fill="#FFFDA9"/>
<path d="M184.4 266C184.29 265.889 184.16 265.8 184.015 265.74C183.871 265.68 183.716 265.649 183.56 265.649C183.404 265.649 183.249 265.68 183.105 265.74C182.961 265.8 182.83 265.889 182.72 266L181.7 267.14C182.06 255.26 173.26 246.6 161.58 247.38L163.36 227.9C163.5 226.4 161.14 226.4 161 227.9L159.22 247.66C154.611 248.549 150.295 250.569 146.66 253.54C139.755 259.041 133.988 265.834 129.68 273.54C120.04 263.44 111.14 252.78 96.8401 252.1L90.5601 233.48C90.0801 232.04 87.8201 232.66 88.2201 234.08L94.2201 252.08C81.9401 252.54 71.7601 260.08 71.9601 272.2C66.4611 271.828 61.3271 269.315 57.6601 265.2C56.6601 264.08 55.0001 265.74 56.0001 266.88C58.0477 269.172 60.5273 271.037 63.2969 272.368C66.0665 273.7 69.0716 274.472 72.1401 274.64C73.9401 288.52 87.1801 296.2 100.42 296.2C107.46 296.2 119.06 293.3 129.38 287.2C131.76 287.94 142.76 292.58 144.76 292.8C160.76 294.94 178.26 287.18 181.24 271.12L184.44 267.54C184.623 267.323 184.72 267.046 184.713 266.762C184.705 266.479 184.594 266.207 184.4 266ZM179.36 266.76C179.12 284.12 161.48 292.76 145.1 290.56C143.52 290.38 133.32 286.14 130.54 285.2C129.18 284.74 129 284.84 128.54 285.04C121.26 289.402 113.206 292.315 104.82 293.62C100.711 294.257 96.5144 294.034 92.4964 292.963C88.4785 291.892 84.727 289.998 81.4801 287.4C74.9401 281.98 72.5401 272.4 75.6401 265.4C79.8001 256 92.2401 252.8 102.08 255.4C113.26 258.44 121.04 268.24 129.06 276.48C129.187 276.612 129.344 276.712 129.517 276.772C129.69 276.832 129.875 276.85 130.056 276.824C130.238 276.799 130.411 276.731 130.561 276.626C130.711 276.521 130.834 276.382 130.92 276.22C135.156 268.196 140.997 261.13 148.08 255.46C162.76 243.66 179.72 251.5 179.36 266.74V266.76Z" fill="#5E503B"/>
<path d="M127.88 273.68C127.42 275.14 129.68 275.68 130.22 274.32C131.22 271.145 131.512 267.79 131.077 264.491C130.641 261.191 129.489 258.027 127.7 255.22C126.88 253.96 124.84 255.22 125.7 256.4C127.252 258.967 128.248 261.832 128.624 264.809C128.999 267.785 128.746 270.807 127.88 273.68Z" fill="#5E503B"/>
<path d="M111.52 83.52C163.14 75.52 210.68 106.2 217.72 151.9C224.76 197.6 188.62 241.12 137 249.06C85.3802 257 37.8402 226.38 30.8202 180.68C23.8002 134.98 60.0002 91.46 111.52 83.52Z" fill="#FFF4EE"/>
<path d="M120.78 251.48C75.2401 251.48 36.0201 222.22 29.6601 180.84C26.2001 158.4 32.8201 135.8 48.2801 117.18C80.2001 78.76 140 69.56 182 96.6C224 123.64 232.28 176.88 200.28 215.4C180.54 239.12 150.56 251.48 120.78 251.48ZM111.7 84.68C58.96 92.78 25.2801 137.04 32.0001 180.5C38.9801 226 86.5601 255.62 136.82 248C189.7 239.86 223.24 195.56 216.56 152.18C209.88 108.8 164.38 76.58 111.7 84.68Z" fill="#5E503B"/>
<path d="M136.18 67.08C149.16 70.18 160.58 77.74 172.98 82.6C185.38 87.46 200.52 89.24 211.3 81.5C218.52 91.5 213.16 107.94 201.3 111.8C207.781 115.601 212.833 121.425 215.681 128.378C218.528 135.33 219.013 143.025 217.06 150.28C210.66 135.3 195.06 125.94 179.2 122.46C147.2 115.5 113 128.1 82.3801 116.16C83.6201 139.58 59.0201 157.2 58.3801 180.42C58.0001 192 66.3801 204.76 77.9801 204.54C63.5001 211.78 44.9401 208.54 32.6001 198.06C20.2601 187.58 14.0001 170.82 14.6201 154.64C15.655 138.356 21.903 122.838 32.4401 110.38C44.0001 96.32 57.4601 90 74.6601 86.62C75.5971 86.5447 76.509 86.2793 77.3401 85.84C78.0359 85.3252 78.6322 84.6882 79.1001 83.96C90.8401 68.62 118 62.74 136.18 67.08Z" fill="#FFAAD7"/>
<path d="M60.9401 209.58C32.2801 209.58 12.3801 184 13.4401 154.6C14.5115 138.058 20.8549 122.294 31.5401 109.62C42.4001 96.38 55.2201 89.14 74.4401 85.48C75.2639 85.4114 76.066 85.1803 76.8001 84.8C77.3083 84.372 77.7527 83.8737 78.1201 83.32C90.2601 67.42 118.12 61.54 136.46 65.92C149.62 69.08 161.04 76.66 173.4 81.5C180.38 84.24 197.98 89.5 210.62 80.54C210.873 80.3585 211.186 80.284 211.494 80.3327C211.801 80.3814 212.076 80.5493 212.26 80.8C219.42 90.8 215.02 106.66 203.96 112.02C210.049 116.171 214.699 122.11 217.268 129.017C219.837 135.925 220.197 143.459 218.3 150.58C218.236 150.816 218.1 151.025 217.911 151.18C217.722 151.335 217.49 151.428 217.247 151.446C217.003 151.463 216.76 151.405 216.551 151.278C216.342 151.152 216.178 150.964 216.08 150.74C210.46 137.58 196.62 127.44 179.04 123.6C148 116.84 114.18 128.82 83.7001 117.86C83.7001 141.16 60.2801 158.06 59.5401 180.44C59.2001 191.46 67.1201 203.54 77.9601 203.36C78.2215 203.364 78.4743 203.454 78.6787 203.617C78.8831 203.781 79.0276 204.007 79.0894 204.261C79.1512 204.515 79.1268 204.782 79.0202 205.021C78.9135 205.26 78.7306 205.457 78.5001 205.58C73.0382 208.263 67.0251 209.633 60.9401 209.58ZM123.44 66.84C107.44 66.84 89.0801 72.84 80.0401 84.66C79.4986 85.4751 78.8222 86.192 78.0401 86.78C77.0204 87.3397 75.8977 87.6867 74.7401 87.8C56.2201 91.34 43.8001 98.32 33.3201 111.12C22.967 123.409 16.8141 138.686 15.7601 154.72C15.2001 171.2 22.0001 187.48 33.3601 197.18C38.8186 201.809 45.3657 204.973 52.3847 206.372C59.4037 207.772 66.6635 207.362 73.4801 205.18C63.4801 202.56 56.8601 190.9 57.2001 180.38C58.0001 156.8 82.5201 139.14 81.3201 116.22C81.3104 116.024 81.3498 115.829 81.4347 115.652C81.5196 115.475 81.6472 115.322 81.806 115.207C81.9649 115.092 82.1499 115.018 82.3444 114.992C82.539 114.967 82.7368 114.99 82.9201 115.06C112.92 126.76 147.78 114.38 179.54 121.32C196.46 125 210.08 134.38 216.74 146.7C217.79 140.096 216.825 133.329 213.971 127.281C211.117 121.234 206.506 116.187 200.74 112.8C200.542 112.689 200.381 112.523 200.276 112.322C200.172 112.121 200.129 111.893 200.152 111.668C200.175 111.442 200.264 111.228 200.408 111.053C200.552 110.877 200.744 110.748 200.96 110.68C211.58 107.2 216.7 92.68 210.96 83.14C201.42 89.32 187.5 89.54 172.54 83.68C154.7 76.7 143.2 66.84 123.44 66.84Z" fill="#5E503B"/>
<path d="M98.04 179.38C105.496 179.38 111.54 173.336 111.54 165.88C111.54 158.424 105.496 152.38 98.04 152.38C90.5842 152.38 84.54 158.424 84.54 165.88C84.54 173.336 90.5842 179.38 98.04 179.38Z" fill="#FFCECC"/>
<path d="M177.4 180.3C184.856 180.3 190.9 174.256 190.9 166.8C190.9 159.344 184.856 153.3 177.4 153.3C169.944 153.3 163.9 159.344 163.9 166.8C163.9 174.256 169.944 180.3 177.4 180.3Z" fill="#FFCECC"/>
<path d="M108.86 148.64C107.48 148.64 106.13 149.049 104.982 149.816C103.834 150.583 102.94 151.673 102.411 152.949C101.883 154.224 101.745 155.628 102.014 156.982C102.284 158.336 102.948 159.579 103.925 160.556C104.901 161.532 106.144 162.197 107.498 162.466C108.852 162.735 110.256 162.597 111.531 162.069C112.807 161.54 113.897 160.646 114.664 159.498C115.431 158.35 115.84 157.001 115.84 155.62C115.84 153.769 115.105 151.993 113.796 150.684C112.487 149.375 110.711 148.64 108.86 148.64Z" fill="#5E503B"/>
<path d="M166.56 149.64C165.179 149.64 163.828 150.05 162.68 150.818C161.532 151.586 160.637 152.677 160.109 153.954C159.582 155.23 159.445 156.635 159.716 157.989C159.987 159.344 160.653 160.587 161.632 161.563C162.61 162.538 163.855 163.201 165.211 163.468C166.566 163.735 167.97 163.594 169.245 163.063C170.52 162.532 171.609 161.634 172.373 160.483C173.138 159.333 173.544 157.981 173.54 156.6C173.535 154.752 172.797 152.982 171.489 151.677C170.18 150.373 168.408 149.64 166.56 149.64Z" fill="#5E503B"/>
<path d="M108.28 171.28C108.073 179.329 108.744 187.376 110.28 195.28C111.78 203.08 114.98 211.7 122.28 214.88C144.82 224.88 158.64 188.88 160.52 173.48C151.504 178.212 141.282 180.147 131.16 179.04C127.76 178.8 108.14 176.58 108.28 171.28Z" fill="white"/>
<path d="M129.76 217.76C126.949 217.732 124.175 217.112 121.62 215.94C115.34 213.16 111.1 206.28 109.04 195.48C107.496 187.503 106.825 179.382 107.04 171.26C107.018 171.094 107.032 170.924 107.081 170.764C107.13 170.603 107.212 170.455 107.323 170.328C107.434 170.202 107.57 170.101 107.723 170.032C107.876 169.963 108.042 169.927 108.21 169.927C108.378 169.927 108.544 169.963 108.697 170.032C108.85 170.101 108.986 170.202 109.097 170.328C109.208 170.455 109.29 170.603 109.339 170.764C109.388 170.924 109.402 171.094 109.38 171.26C109.38 174.28 122.12 177.14 130.98 177.8C140.908 178.927 150.947 177.053 159.8 172.42C159.991 172.324 160.204 172.282 160.417 172.298C160.63 172.314 160.835 172.388 161.01 172.511C161.184 172.634 161.322 172.802 161.408 172.998C161.495 173.193 161.526 173.408 161.5 173.62C159.48 190.26 147.44 217.76 129.76 217.76ZM109.4 174.9C109.445 181.661 110.115 188.403 111.4 195.04C113.4 205.04 117.1 211.34 122.62 213.78C125.014 214.941 127.657 215.493 130.315 215.388C132.973 215.284 135.565 214.525 137.86 213.18C149.56 206.54 156.96 186.58 158.9 175.52C150.176 179.629 140.486 181.248 130.9 180.2C130.1 180.14 115.22 179 109.4 174.9Z" fill="#5E503B"/>
<path d="M379.76 102.96C377.078 106.804 374.001 110.357 370.58 113.56C371.67 107.045 371.043 100.359 368.76 94.16C367.6 91.0765 365.804 88.2719 363.488 85.9286C361.173 83.5854 358.39 81.7562 355.32 80.56C357.75 88.5542 356.908 97.1857 352.98 104.56C349.028 97.0075 342.839 90.8605 335.26 86.96C337.776 90.372 339.236 94.4467 339.46 98.68C339.531 100.81 338.994 102.917 337.909 104.752C336.825 106.587 335.24 108.074 333.34 109.04L353.04 143.84C358.042 144.305 363.076 143.397 367.6 141.214C372.124 139.031 375.968 135.655 378.716 131.45C381.464 127.245 383.014 122.37 383.198 117.35C383.382 112.33 382.193 107.355 379.76 102.96Z" fill="#3C444C"/>
<path d="M334 110C335.836 109.085 337.406 107.715 338.562 106.02C339.717 104.326 340.419 102.363 340.6 100.32C340.863 95.3016 339.363 90.3492 336.36 86.32L334.76 87.94C342.149 91.7634 348.182 97.7686 352.04 105.14C352.152 105.301 352.302 105.432 352.476 105.523C352.65 105.614 352.844 105.661 353.04 105.661C353.236 105.661 353.43 105.614 353.604 105.523C353.778 105.432 353.928 105.301 354.04 105.14C358.06 97.448 358.901 88.4852 356.38 80.18L354.96 81.64C360.39 83.7916 364.747 88.0053 367.08 93.36C369.783 99.736 370.596 106.755 369.42 113.58C369.28 114.66 370.78 115.02 371.42 114.42C374.898 111.119 378.041 107.482 380.8 103.56H378.8C381.151 107.785 382.299 112.574 382.119 117.405C381.938 122.237 380.436 126.927 377.776 130.964C375.116 135.002 371.399 138.233 367.031 140.305C362.663 142.378 357.81 143.213 353 142.72C351.5 142.58 351.52 144.92 353 145.06C358.212 145.521 363.452 144.555 368.157 142.266C372.862 139.976 376.856 136.45 379.71 132.065C382.565 127.679 384.172 122.6 384.361 117.371C384.549 112.141 383.311 106.96 380.78 102.38C380.618 102.112 380.357 101.92 380.053 101.845C379.749 101.77 379.428 101.818 379.16 101.98C376.326 105.818 373.189 109.423 369.78 112.76L371.78 113.58C373.025 106.192 372.058 98.6002 369 91.76C366.308 86.0913 361.528 81.6837 355.66 79.46C355.461 79.408 355.251 79.4089 355.053 79.4628C354.854 79.5167 354.673 79.6217 354.527 79.7673C354.382 79.9129 354.277 80.094 354.223 80.2927C354.169 80.4914 354.168 80.7008 354.22 80.9C356.544 88.5926 355.746 96.8908 352 104H354C349.956 96.3193 343.681 90.0438 336 86C335.02 85.5 333.66 86.56 334.42 87.62C337.016 91.0819 338.42 95.2926 338.42 99.62C338.339 101.402 337.782 103.13 336.808 104.625C335.834 106.119 334.478 107.326 332.88 108.12C331.52 108.72 332.72 110.74 334.08 110.12L334 110Z" fill="#53606B"/>
<path d="M321.82 341.78C321.464 340.66 320.764 339.68 319.82 338.98C314.24 334.056 310.269 327.569 308.42 320.36C306.2 310.36 310.94 298.82 309.52 290.36C308.48 284.14 305.74 277.02 305.52 272.36C304.914 259.628 306.726 246.897 310.86 234.84L252 233.36C247.59 246.973 244.247 260.908 242 275.04C241.08 280.9 238.92 289.24 239.32 296.46C239.58 301.26 242.72 311.44 242.72 314.92C242.651 328.352 244.848 341.699 249.22 354.4C250.62 358.54 253.48 363.4 257.84 362.9C259.185 362.598 260.411 361.909 261.367 360.917C262.324 359.925 262.968 358.675 263.22 357.32C263.639 354.515 263.558 351.657 262.98 348.88C261.826 339.988 261.954 330.976 263.36 322.12C286.58 318.36 285.14 318.44 286.24 318.74C286.722 319.063 287.122 319.492 287.41 319.995C287.698 320.499 287.866 321.061 287.9 321.64C289.6 329.3 292.12 337.08 297.7 342.62C303.28 348.16 312.56 350.62 319.12 346.3C319.973 345.907 320.688 345.264 321.17 344.458C321.651 343.651 321.878 342.718 321.82 341.78Z" fill="#FFD6AE"/>
<path d="M309.18 284.2C309.1 283.903 308.906 283.65 308.64 283.496C308.374 283.342 308.057 283.301 307.76 283.38L306 284C306.32 283.1 306.6 282.2 306.84 281.28C306.898 281.077 306.901 280.863 306.848 280.659C306.796 280.455 306.689 280.269 306.54 280.12C305.924 279.68 305.222 279.376 304.48 279.228C303.737 279.079 302.972 279.091 302.234 279.261C301.497 279.431 300.804 279.756 300.201 280.215C299.599 280.673 299.101 281.255 298.74 281.92C297.881 281.151 296.859 280.588 295.75 280.272C294.641 279.957 293.475 279.898 292.34 280.1C291.704 280.228 291.105 280.496 290.586 280.886C290.067 281.276 289.643 281.777 289.343 282.353C289.044 282.929 288.878 283.564 288.856 284.212C288.835 284.861 288.959 285.506 289.22 286.1C289.805 286.922 290.476 287.679 291.22 288.36L288.66 289.26C288.512 289.299 288.373 289.368 288.251 289.461C288.129 289.554 288.026 289.67 287.949 289.803C287.872 289.936 287.822 290.083 287.801 290.235C287.781 290.387 287.791 290.542 287.83 290.69C287.87 290.838 287.938 290.978 288.031 291.1C288.124 291.222 288.24 291.324 288.373 291.401C288.506 291.478 288.653 291.528 288.805 291.549C288.957 291.569 289.112 291.559 289.26 291.52L293.26 290.08L296.18 292.6C297.26 293.52 298.54 294.6 300.02 294.14C301.5 293.68 302.02 292.14 302.7 291.02C303.452 289.731 304.12 288.395 304.7 287.02L308.18 285.74C308.352 285.715 308.517 285.654 308.664 285.56C308.81 285.467 308.935 285.343 309.03 285.197C309.124 285.051 309.187 284.887 309.213 284.715C309.239 284.543 309.228 284.367 309.18 284.2ZM299.68 291.58C299.26 292.12 299.26 291.98 295.92 289.12L296.54 288.9C296.839 288.816 297.092 288.618 297.245 288.348C297.399 288.079 297.44 287.76 297.36 287.46C297.325 287.315 297.261 287.178 297.173 287.057C297.084 286.937 296.972 286.835 296.843 286.759C296.715 286.682 296.572 286.632 296.424 286.612C296.275 286.592 296.125 286.601 295.98 286.64L293.88 287.36C292.58 286.24 291.34 285.36 291.22 284.48C291.225 284.114 291.33 283.756 291.524 283.446C291.718 283.136 291.993 282.885 292.32 282.72C294.32 281.54 296.68 283.14 298.32 284.4C298.346 284.698 298.4 284.992 298.48 285.28C298.56 285.59 298.759 285.856 299.035 286.019C299.311 286.183 299.64 286.23 299.95 286.15C300.26 286.07 300.526 285.871 300.69 285.595C300.853 285.32 300.9 284.99 300.82 284.68C300.726 283.978 300.889 283.266 301.279 282.674C301.668 282.082 302.258 281.651 302.94 281.46C303.11 281.402 303.293 281.392 303.468 281.432C303.644 281.473 303.804 281.562 303.931 281.689C304.058 281.816 304.147 281.976 304.188 282.152C304.228 282.327 304.219 282.51 304.16 282.68C303.9 283.48 303.62 284.26 303.3 285.04L301.3 285.72C301.011 285.809 300.765 286.002 300.61 286.262C300.456 286.522 300.403 286.831 300.463 287.127C300.523 287.424 300.691 287.688 300.934 287.867C301.178 288.047 301.479 288.13 301.78 288.1C301.162 289.308 300.46 290.47 299.68 291.58Z" fill="#53606B"/>
<path d="M288.76 257.5L290.12 253.5C290.163 253.35 290.175 253.194 290.157 253.039C290.139 252.884 290.09 252.735 290.014 252.599C289.938 252.464 289.835 252.344 289.713 252.248C289.59 252.152 289.45 252.082 289.3 252.04C289.001 251.975 288.689 252.023 288.423 252.174C288.157 252.326 287.957 252.57 287.86 252.86L286.48 256.86C286.41 257.159 286.456 257.474 286.608 257.741C286.76 258.008 287.007 258.207 287.3 258.3C287.599 258.372 287.914 258.329 288.184 258.181C288.454 258.034 288.659 257.791 288.76 257.5Z" fill="#5E503B"/>
<path d="M254.58 255.26C254.961 252.715 255.702 250.237 256.78 247.9C256.924 247.629 256.961 247.314 256.883 247.018C256.805 246.721 256.618 246.465 256.36 246.3C256.097 246.146 255.784 246.101 255.488 246.176C255.192 246.251 254.938 246.439 254.78 246.7C253.575 249.234 252.74 251.929 252.3 254.7C252.221 254.997 252.262 255.313 252.416 255.58C252.57 255.846 252.823 256.04 253.12 256.12C253.428 256.199 253.754 256.153 254.028 255.992C254.302 255.831 254.5 255.567 254.58 255.26Z" fill="#5E503B"/>
<path d="M319.56 337.5C312.54 330.84 308.08 322.28 308.64 312.58C308.94 306.98 309.74 303.2 310.1 299.62C311.4 292.38 309.3 284.68 307.66 276.52C306.1 268.72 307.04 250.28 312.38 235.1C312.9 233.7 310.58 233.1 310.04 234.48C305.54 246.12 304.24 259.24 304.52 271.7C304.696 274.405 305.145 277.085 305.86 279.7C308.02 288.02 309.66 289.2 306.58 309.7C305.42 318.92 308.72 329.28 317.28 338.04C318.48 339.3 321.28 340.98 320.6 342.96C319.6 346.02 314.04 347.36 310.78 347.16C307.005 346.942 303.385 345.582 300.4 343.26C293.88 338.26 291.02 329.82 289.3 322.14C288.92 320.44 288.58 318.36 286.76 317.58C284.94 316.8 282.08 317.76 280.18 318.06L263.1 320.84C262.903 320.893 262.724 320.996 262.58 321.14C262.436 321.284 262.333 321.463 262.28 321.66C261.014 329.67 260.765 337.808 261.54 345.88C261.92 349.58 263.1 353.76 261.98 357.44C261.14 360.3 258.28 362.84 255.22 361.26C252.852 359.642 251.143 357.23 250.4 354.46C245.829 341.17 243.576 327.193 243.74 313.14C242.98 307.56 240.2 303.32 240.62 291.9C240.722 289.285 241.077 286.686 241.68 284.14C244.74 266.14 246.84 253.2 253.14 233.54C253.6 232.12 251.34 231.54 250.8 232.94C251.06 232.94 247.38 242.94 243.86 259.62C242.32 266.88 241.2 274.18 239.86 281.46C235.98 302.62 240.2 306.78 241.06 313.46C241.124 324.168 242.392 334.835 244.84 345.26C245.758 349.086 246.927 352.848 248.34 356.52C249.357 359.361 251.292 361.783 253.84 363.4C260.04 366.5 265.42 359.64 264.32 352.46C263.72 345.12 261.98 337.24 264.08 323.02L282.48 320.04C283.56 319.86 285.24 319.2 286 320.3C286.98 322.42 288.82 338.96 300.14 346.3C306 350.08 314.86 351.42 320.54 346.5C321.216 345.98 321.761 345.31 322.133 344.543C322.504 343.776 322.692 342.932 322.68 342.08C322.5 340 320.88 338.8 319.56 337.5Z" fill="#5E503B"/>
<path d="M285.72 318.6C288.036 314.707 291.39 311.536 295.406 309.441C299.422 307.347 303.942 306.411 308.46 306.74C309.019 303.314 309.32 299.851 309.36 296.38C309.337 294.563 309.123 292.753 308.72 290.98C307.34 297.16 301.82 300.98 296.38 303.18C287.717 307.067 278.388 309.253 268.9 309.62C259.35 309.986 249.957 307.118 242.24 301.48C240.683 300.375 239.548 298.775 239.02 296.94C239.84 301.767 240.915 306.547 242.24 311.26C246.134 310.762 250.09 311.201 253.78 312.54C258.28 314.04 263.46 316.94 264.86 321.92C285.84 318.5 285.04 318.58 285.72 318.6Z" fill="#3C444C"/>
<path d="M309.84 290.68C309.84 290.37 309.717 290.072 309.497 289.853C309.278 289.633 308.98 289.51 308.67 289.51C308.36 289.51 308.062 289.633 307.843 289.853C307.623 290.072 307.5 290.37 307.5 290.68C306.877 292.789 305.823 294.745 304.405 296.425C302.986 298.105 301.234 299.472 299.26 300.44C294.627 302.897 289.71 304.777 284.62 306.04C271.04 310.22 255.86 308.68 245.76 302.48C243.76 301.28 241.2 299.78 240.32 297.52C240.32 297.36 240 296.76 239.96 296.58C239.66 295.08 237.62 295.74 237.62 297.22C239.06 302.9 239.06 304.52 240.92 311.48C241.009 311.78 241.211 312.034 241.483 312.187C241.756 312.34 242.078 312.381 242.38 312.3C246.902 311.766 251.483 312.515 255.6 314.46C257.4 315.079 259.047 316.079 260.427 317.39C261.807 318.701 262.889 320.294 263.6 322.06C263.701 322.352 263.905 322.596 264.174 322.748C264.443 322.899 264.759 322.946 265.06 322.88C265.26 322.88 283.64 319.8 284.92 319.72C285.241 319.89 285.614 319.931 285.964 319.834C286.313 319.737 286.612 319.51 286.8 319.2C288.987 315.481 292.181 312.456 296.014 310.474C299.846 308.492 304.161 307.635 308.46 308C308.765 307.977 309.052 307.845 309.269 307.629C309.485 307.412 309.617 307.125 309.64 306.82C310.666 301.495 310.733 296.029 309.84 290.68ZM284.62 317.38C283.6 317.38 265.6 320.4 265.38 320.44C263.681 316.743 260.59 313.868 256.78 312.44C252.476 310.4 247.705 309.544 242.96 309.96C242.32 307.46 241.7 304.92 241.14 302.36C243.624 304.208 246.308 305.771 249.14 307.02C265.38 313.94 283.5 310.44 299.38 303.02C302.841 301.429 305.746 298.838 307.72 295.58C307.927 298.923 307.746 302.279 307.18 305.58C302.716 305.402 298.284 306.398 294.325 308.469C290.366 310.539 287.02 313.612 284.62 317.38Z" fill="#53606B"/>
<path d="M303.38 253.6C314.245 258.972 326.221 261.712 338.34 261.6C341.127 261.376 343.932 261.524 346.68 262.04C348.057 262.298 349.352 262.883 350.455 263.747C351.558 264.61 352.438 265.726 353.02 267C354.66 271.46 350.84 276.18 346.62 278.34C338.2 282.62 328.12 281.24 318.8 279.56C311.645 278.53 304.945 275.437 299.52 270.66L303.38 253.6Z" fill="#FFD6AE"/>
<path d="M324.5 261.64C338.26 263.9 341.98 261.4 347.58 263.48C349.105 263.882 350.416 264.857 351.24 266.203C352.063 267.548 352.336 269.159 352 270.7C351.418 272.291 350.506 273.741 349.324 274.955C348.142 276.168 346.716 277.117 345.14 277.74C338.44 280.78 330.66 280.24 323.58 279.16C319.406 278.68 315.287 277.803 311.28 276.54C307.403 275.035 303.801 272.899 300.62 270.22C299.42 269.3 297.76 270.84 298.94 271.76C302.062 274.334 305.496 276.504 309.16 278.22C313.13 279.684 317.258 280.678 321.46 281.18C329.08 282.44 337.3 283.18 344.66 280.46C350.3 278.3 357.52 271.9 353.48 265.28C348.64 258.48 340.16 260.88 331.96 260.26C322.229 259.538 312.726 256.966 303.96 252.68C302.62 252.02 301.42 254.04 302.78 254.68C309.667 257.985 316.975 260.327 324.5 261.64Z" fill="#5E503B"/>
<path d="M258 257.38C255.739 256.317 253.258 255.803 250.76 255.88C249.488 255.926 248.253 256.325 247.194 257.031C246.135 257.737 245.292 258.723 244.76 259.88C244.374 261.417 244.453 263.034 244.987 264.526C245.521 266.018 246.486 267.317 247.76 268.26C250.037 270.187 252.829 271.404 255.79 271.759C258.752 272.115 261.752 271.594 264.42 270.26C265.021 269.875 265.709 269.648 266.42 269.6C267.178 269.733 267.876 270.096 268.42 270.64C275.58 276.64 286.96 277.5 292.66 269.32C293.395 268.32 293.866 267.15 294.03 265.92C294.194 264.69 294.046 263.438 293.6 262.28C292.12 259.16 288.1 258.28 284.64 258.4C279.014 258.613 273.554 260.371 268.86 263.48C265.461 261.077 261.821 259.032 258 257.38Z" fill="#3C444C"/>
<path d="M294.16 260.96C291.88 257.44 286.92 256.96 283.02 257.26C277.966 257.696 273.087 259.32 268.78 262C264.746 259.071 260.26 256.821 255.5 255.34C251.68 254.26 247.06 254.56 244.54 258.04C239.42 265.04 250.76 276.04 262.8 272.18C263.72 271.86 264.54 271.38 265.42 271C266.84 270.42 267.76 271.56 268.76 272.34C275.5 277.56 285.62 278.34 292.02 271.78C294.64 268.98 296.42 264.48 294.16 260.96ZM290.66 269.78C285.46 275.46 277.06 275.12 270.96 270.96C269.62 270.08 268.36 268.62 266.72 268.34C265.08 268.06 263.64 269.36 262.16 269.86C254.06 272.56 245.84 267.38 245.64 262.08C245.46 257.58 250.74 256.08 255.14 257.68C266.56 261.68 267.8 265.48 269.36 264.42C272.676 262.215 276.404 260.705 280.32 259.98C283.633 259.082 287.149 259.307 290.32 260.62C294 262.66 293 267.1 290.66 269.78Z" fill="#53606B"/>
<path d="M292.36 270.92C295.159 271.888 298.144 272.19 301.08 271.8C301.373 271.72 301.622 271.529 301.775 271.267C301.929 271.006 301.973 270.694 301.9 270.4C301.82 270.097 301.624 269.837 301.355 269.677C301.086 269.516 300.765 269.467 300.46 269.54C297.931 269.823 295.37 269.515 292.98 268.64C292.681 268.565 292.364 268.609 292.096 268.762C291.828 268.914 291.629 269.164 291.54 269.46C291.474 269.762 291.521 270.077 291.672 270.346C291.824 270.615 292.068 270.819 292.36 270.92Z" fill="#5E503B"/>
<path d="M243.72 326L250.88 327.86C251.034 327.902 251.194 327.913 251.352 327.893C251.51 327.872 251.663 327.82 251.8 327.74C251.938 327.66 252.059 327.554 252.155 327.426C252.251 327.299 252.321 327.154 252.36 327C252.44 326.69 252.394 326.361 252.233 326.084C252.072 325.807 251.809 325.604 251.5 325.52L244.32 323.62C244.015 323.563 243.7 323.624 243.439 323.791C243.177 323.958 242.989 324.218 242.913 324.519C242.836 324.819 242.877 325.138 243.027 325.409C243.177 325.68 243.425 325.885 243.72 325.98V326Z" fill="#53606B"/>
<path d="M244.62 334.76L250.94 332.06C251.074 331.983 251.191 331.881 251.284 331.759C251.378 331.637 251.446 331.497 251.485 331.348C251.524 331.199 251.534 331.044 251.512 330.891C251.49 330.739 251.439 330.592 251.36 330.46C251.205 330.191 250.95 329.994 250.65 329.911C250.351 329.829 250.031 329.868 249.76 330.02L243.46 332.72C243.189 332.879 242.992 333.137 242.91 333.44C242.827 333.743 242.867 334.066 243.02 334.34C243.178 334.606 243.435 334.799 243.734 334.877C244.033 334.956 244.352 334.914 244.62 334.76Z" fill="#53606B"/>
<path d="M248.5 345.56C247.931 346.678 247.261 347.742 246.5 348.74C246.344 349.001 246.296 349.312 246.367 349.608C246.438 349.903 246.622 350.159 246.88 350.32C247.151 350.483 247.475 350.532 247.782 350.457C248.089 350.382 248.355 350.189 248.52 349.92C255.46 340.66 247.68 336.8 244.8 339.04C244.537 339.206 244.347 339.466 244.269 339.767C244.19 340.068 244.23 340.387 244.38 340.66C244.538 340.921 244.791 341.11 245.086 341.188C245.38 341.266 245.693 341.228 245.96 341.08C248.32 339.66 249.84 342.7 248.5 345.56Z" fill="#53606B"/>
<path d="M300 317.34C299.314 318.726 299.176 320.319 299.613 321.802C300.051 323.285 301.032 324.549 302.36 325.34C304.074 326.321 306.066 326.701 308.02 326.42C308.331 326.415 308.629 326.289 308.849 326.069C309.069 325.849 309.195 325.551 309.2 325.24C309.2 324.927 309.076 324.627 308.855 324.406C308.633 324.184 308.333 324.06 308.02 324.06C305.08 324.3 302.02 323.68 302.02 320.72C301.78 316.16 305.42 317.58 306.02 317.88C307.28 318.64 308.86 316.8 306.82 315.44C306.258 315.078 305.625 314.84 304.964 314.74C304.303 314.64 303.628 314.681 302.984 314.861C302.34 315.04 301.741 315.354 301.227 315.781C300.712 316.208 300.294 316.74 300 317.34Z" fill="#53606B"/>
<path d="M303.8 332.24L310.98 331.12C311.128 331.079 311.265 331.008 311.386 330.913C311.506 330.818 311.606 330.701 311.68 330.567C311.755 330.433 311.802 330.286 311.819 330.133C311.836 329.981 311.823 329.827 311.78 329.68C311.692 329.384 311.493 329.134 311.224 328.982C310.956 328.829 310.64 328.785 310.34 328.86L303.16 329.98C302.862 330.064 302.608 330.262 302.455 330.532C302.301 330.801 302.26 331.12 302.34 331.42C302.437 331.714 302.641 331.962 302.911 332.114C303.181 332.265 303.498 332.311 303.8 332.24Z" fill="#53606B"/>
<path d="M202.46 163.58C201.26 159.18 195.14 157.58 191.2 159.94C189.325 161.232 187.775 162.941 186.672 164.933C185.568 166.925 184.941 169.145 184.84 171.42C183.12 185.72 194.04 199.42 209.02 197.3L202.46 163.58Z" fill="#FFD6AE"/>
<path d="M194.2 157.78C191.997 158.183 189.951 159.195 188.294 160.701C186.636 162.207 185.433 164.146 184.82 166.3C179.16 182.88 191.96 201.12 209.42 198.44C210.9 198.2 210.28 195.94 208.8 196.1C194.8 197.76 184.12 185.18 186.18 170.82C186.98 159.84 199.16 156.42 201.42 163.8C201.515 164.095 201.72 164.343 201.991 164.493C202.262 164.643 202.581 164.684 202.881 164.607C203.182 164.531 203.442 164.343 203.609 164.081C203.776 163.82 203.837 163.505 203.78 163.2C203.58 162.98 200.84 156.7 194.2 157.78Z" fill="#5E503B"/>
<path d="M369.62 189.04C370.093 188.257 370.727 187.583 371.48 187.063C372.233 186.544 373.088 186.19 373.988 186.025C374.888 185.861 375.813 185.889 376.701 186.109C377.589 186.329 378.421 186.735 379.14 187.3C380.537 188.543 381.563 190.148 382.107 191.937C382.65 193.726 382.689 195.63 382.22 197.44C381.185 201.017 379.376 204.322 376.92 207.12C374 211.056 370.404 214.442 366.3 217.12C364.253 218.455 361.961 219.369 359.558 219.808C357.154 220.248 354.687 220.204 352.3 219.68L369.62 189.04Z" fill="#FFD6AE"/>
<path d="M370.66 189.62C373.86 183.16 387.52 189.62 377.96 203.62C372.46 211.62 363.28 221.24 352.46 218.58C352.163 218.532 351.859 218.596 351.606 218.759C351.353 218.922 351.169 219.172 351.089 219.463C351.01 219.753 351.041 220.062 351.176 220.331C351.31 220.6 351.54 220.81 351.82 220.92C362.06 223.46 370.88 216.4 376.94 208.92C379.98 205.14 383.08 200.92 383.56 196.02C383.841 194.036 383.548 192.014 382.715 190.192C381.882 188.37 380.544 186.825 378.86 185.74C377.135 184.771 375.1 184.514 373.188 185.021C371.276 185.529 369.637 186.763 368.62 188.46C367.96 189.8 369.98 191 370.62 189.64L370.66 189.62Z" fill="#5E503B"/>
<path d="M201.06 155.66C208.42 111.02 253.06 81.18 300.58 89.02C348.1 96.86 380.8 139.42 373.44 184C366.08 228.58 321.44 258.48 273.92 250.64C226.4 242.8 193.7 200.32 201.06 155.66Z" fill="#FFD6AE"/>
<path d="M289.08 253.14C234.34 253.14 191.46 206.62 199.9 155.48C207.36 110.26 252.6 80 300.76 87.86C348.92 95.72 382 139.06 374.6 184.26C368 224.64 331.16 253.14 289.08 253.14ZM285.42 88.94C244.46 88.94 208.68 116.64 202.22 155.86C195.04 199.36 226.58 241.72 274.1 249.56C321 257.3 365.04 227.82 372.28 183.88C380.42 134.5 338.94 88.94 285.42 88.94Z" fill="#5E503B"/>
<path d="M364.92 209.56C372.12 189.42 365.2 166.38 352.34 149.26C339.48 132.14 321.48 119.82 303.76 107.8C301.974 106.424 299.935 105.412 297.76 104.82C295.599 104.591 293.413 104.808 291.34 105.46C255.122 114.476 222.967 135.36 200 164.78C198.18 114.02 255.48 81.18 300.78 88.78C354.96 97.66 395.44 160.36 364.92 209.56Z" fill="#3C444C"/>
<path d="M363.82 209.16C370.18 191.34 365.44 168.64 351.4 149.96C338.46 132.74 319.68 119.96 303.1 108.78C301.407 107.467 299.459 106.52 297.38 106C295.431 105.814 293.465 106.025 291.6 106.62C255.642 115.633 223.708 136.363 200.84 165.54C200.684 165.694 200.488 165.802 200.274 165.852C200.061 165.901 199.837 165.89 199.63 165.819C199.422 165.748 199.238 165.621 199.098 165.452C198.959 165.282 198.869 165.077 198.84 164.86C197.06 114.74 253.32 79.66 301 87.6C355.96 96.66 397 160.44 366.02 210.22C365.879 210.512 365.629 210.736 365.323 210.843C365.017 210.949 364.682 210.931 364.39 210.79C364.098 210.649 363.874 210.399 363.767 210.093C363.661 209.787 363.679 209.452 363.82 209.16ZM297.82 103.66C300.249 104.251 302.525 105.348 304.5 106.88C321.16 118.16 340.12 131 353.3 148.56C365.46 164.74 370.84 183.9 368.36 200.56C389.42 153.32 350.52 98.08 300.54 89.84C255.44 82.34 201.86 114.38 201.08 161.44C224.13 133.178 255.7 113.127 291.08 104.28C293.254 103.615 295.541 103.404 297.8 103.66H297.82Z" fill="#53606B"/>
<path d="M282.94 190C292.94 191.72 300.5 190 306.16 183.14C300.86 194.42 296.78 224.94 278.68 219.62C262.26 214.74 263.34 189.14 266.3 175.94C269.64 188.36 282.68 190 282.94 190Z" fill="white"/>
<path d="M278.34 220.74C261.08 215.62 262.16 189.02 265.16 175.68C265.219 175.425 265.363 175.197 265.569 175.034C265.774 174.871 266.028 174.782 266.29 174.782C266.552 174.782 266.807 174.871 267.012 175.034C267.217 175.197 267.361 175.425 267.42 175.68C269.42 183.12 275.42 187.68 283.14 188.9C293.38 190.66 300.2 188.58 305.26 182.44C305.425 182.175 305.688 181.986 305.991 181.914C306.295 181.843 306.615 181.896 306.88 182.06C307.145 182.224 307.334 182.487 307.406 182.791C307.477 183.095 307.425 183.415 307.26 183.68C302 194.82 297.7 226.44 278.34 220.74ZM266.68 180.2C264.54 193.48 264.92 214.32 279.02 218.5C293.66 222.78 298.44 201.22 303.14 187.66C298 191.46 291.4 192.5 282.76 191.16C280.66 190.84 271.16 188.98 266.68 180.2Z" fill="#5E503B"/>
<path d="M362.14 228C361.86 229.48 364.14 230.12 364.48 228.64C365.416 223.814 365.924 218.915 366 214C366.022 213.834 366.008 213.664 365.959 213.504C365.91 213.343 365.828 213.195 365.717 213.068C365.606 212.942 365.47 212.841 365.317 212.772C365.164 212.703 364.998 212.667 364.83 212.667C364.662 212.667 364.496 212.703 364.343 212.772C364.19 212.841 364.054 212.942 363.943 213.068C363.832 213.195 363.75 213.343 363.701 213.504C363.652 213.664 363.638 213.834 363.66 214C363.443 218.694 362.936 223.369 362.14 228Z" fill="#5E503B"/>
<path d="M368.14 213.36L370.48 219.8C370.573 220.093 370.773 220.34 371.04 220.492C371.306 220.644 371.621 220.69 371.92 220.62C372.069 220.581 372.209 220.512 372.332 220.418C372.454 220.324 372.556 220.206 372.633 220.072C372.709 219.938 372.758 219.79 372.776 219.637C372.795 219.484 372.782 219.328 372.74 219.18L370.48 212.82C370.392 212.529 370.196 212.282 369.932 212.13C369.668 211.977 369.357 211.931 369.06 212C368.911 212.039 368.771 212.108 368.649 212.202C368.526 212.296 368.424 212.414 368.348 212.548C368.271 212.682 368.222 212.83 368.204 212.983C368.185 213.136 368.198 213.292 368.24 213.44L368.14 213.36Z" fill="#5E503B"/>
<path d="M245.44 152.98C248.268 152.98 251.033 153.819 253.385 155.39C255.736 156.961 257.569 159.195 258.652 161.808C259.734 164.421 260.017 167.296 259.465 170.07C258.914 172.844 257.552 175.392 255.552 177.392C253.552 179.392 251.004 180.753 248.23 181.305C245.456 181.857 242.581 181.574 239.968 180.491C237.355 179.409 235.121 177.576 233.55 175.225C231.979 172.873 231.14 170.108 231.14 167.28C231.145 163.489 232.654 159.855 235.334 157.174C238.015 154.494 241.649 152.985 245.44 152.98Z" fill="#FFAF9C"/>
<path d="M328.7 164.68C331.528 164.68 334.293 165.519 336.645 167.09C338.996 168.661 340.829 170.895 341.912 173.508C342.994 176.121 343.277 178.996 342.725 181.77C342.174 184.544 340.812 187.092 338.812 189.092C336.812 191.092 334.264 192.453 331.49 193.005C328.716 193.557 325.841 193.274 323.228 192.191C320.615 191.109 318.381 189.276 316.81 186.925C315.239 184.573 314.4 181.808 314.4 178.98C314.4 177.102 314.77 175.243 315.489 173.508C316.207 171.773 317.261 170.196 318.589 168.868C319.916 167.54 321.493 166.487 323.228 165.769C324.963 165.05 326.822 164.68 328.7 164.68Z" fill="#FFAF9C"/>
<path d="M258.22 150.56C256.756 150.56 255.326 150.994 254.109 151.807C252.892 152.62 251.943 153.776 251.383 155.128C250.823 156.48 250.677 157.968 250.962 159.404C251.248 160.839 251.953 162.158 252.987 163.193C254.022 164.228 255.341 164.932 256.776 165.218C258.212 165.503 259.7 165.357 261.052 164.797C262.404 164.237 263.56 163.288 264.373 162.071C265.186 160.854 265.62 159.424 265.62 157.96C265.62 155.997 264.84 154.115 263.453 152.727C262.065 151.34 260.183 150.56 258.22 150.56Z" fill="#5E503B"/>
<path d="M318.68 159.4C317.216 159.4 315.786 159.834 314.569 160.647C313.352 161.46 312.403 162.616 311.843 163.968C311.283 165.32 311.137 166.808 311.422 168.244C311.708 169.679 312.413 170.998 313.447 172.033C314.482 173.068 315.801 173.772 317.236 174.058C318.672 174.343 320.16 174.197 321.512 173.637C322.864 173.077 324.02 172.128 324.833 170.911C325.646 169.694 326.08 168.264 326.08 166.8C326.08 164.837 325.3 162.955 323.913 161.567C322.525 160.18 320.643 159.4 318.68 159.4Z" fill="#5E503B"/>
<path d="M30.22 66.32C29.4087 61.8768 29.5313 57.3133 30.58 52.92C28.3 61.8 23.74 69.04 14.78 67.38C17.4213 68.8546 19.4759 71.1917 20.6 74C22.3088 78.3877 22.9928 83.1077 22.6 87.8C26.96 77.8 29.12 75.3 40.1 75.14C35.42 75.1 31.44 70.92 30.22 66.32Z" fill="#FFE7AB"/>
<path d="M21.4401 87.66C21.793 83.1453 21.1089 78.6097 19.4401 74.4C18.448 71.8741 16.629 69.759 14.2801 68.4C12.6175 68.0623 10.9999 67.5321 9.46008 66.82C9.20957 66.7007 9.0091 66.497 8.89389 66.2446C8.77868 65.9922 8.7561 65.7072 8.83011 65.4398C8.90413 65.1724 9.07 64.9397 9.2986 64.7824C9.52719 64.6252 9.80389 64.5535 10.0801 64.58C11.8372 64.8019 13.5387 65.3442 15.1001 66.18C23.6401 67.64 27.3801 60.18 29.5601 51.88C29.6583 51.6048 29.8551 51.3758 30.1124 51.2374C30.3697 51.099 30.6692 51.0609 30.9529 51.1306C31.2367 51.2003 31.4845 51.3728 31.6483 51.6147C31.8122 51.8566 31.8806 52.1506 31.8401 52.44C30.6762 56.8806 30.492 61.5211 31.3001 66.04C32.3001 69.76 35.7201 73.84 40.0601 73.84C40.3441 73.8772 40.6048 74.0164 40.7937 74.2317C40.9826 74.447 41.0868 74.7236 41.0868 75.01C41.0868 75.2964 40.9826 75.573 40.7937 75.7883C40.6048 76.0036 40.3441 76.1428 40.0601 76.18C29.7401 76.34 27.8601 78.44 23.6401 88.18C23.5132 88.3998 23.3189 88.5729 23.0859 88.6736C22.8528 88.7742 22.5936 88.797 22.3466 88.7386C22.0996 88.6802 21.878 88.5438 21.7147 88.3495C21.5514 88.1552 21.4551 87.9134 21.4401 87.66ZM18.4801 68.72C19.8613 70.0864 20.9501 71.7195 21.6801 73.52C22.8138 76.4089 23.5212 79.4474 23.7801 82.54C26.4601 77.5 29.0801 75.22 34.3401 74.36C31.7614 72.4496 29.907 69.7209 29.0801 66.62C28.7609 64.9107 28.5803 63.1784 28.5401 61.44C27.6096 63.4007 26.2003 65.0955 24.442 66.3679C22.6838 67.6402 20.6334 68.4492 18.4801 68.72Z" fill="#EFAC54"/>
<path d="M206.2 20.4C207.16 26.86 201.2 28.4 197.34 32.12C205.52 29.72 213.34 33.06 218.92 39.28C217.78 36.06 216.58 30.44 217.36 27.28C219.62 22.2 224.04 20.58 226.6 18.24C220.94 19.72 216.86 22.58 210.86 17.92C208.172 15.7947 205.765 13.3348 203.7 10.6C204.913 13.7581 205.752 17.0471 206.2 20.4Z" fill="#FFE7AB"/>
<path d="M218 40C215.393 37.1332 212.173 34.8909 208.58 33.44C205.042 32.2117 201.208 32.1277 197.62 33.2C197.364 33.2781 197.089 33.2668 196.84 33.1679C196.591 33.069 196.383 32.8884 196.251 32.6557C196.118 32.423 196.068 32.1522 196.11 31.8876C196.152 31.6231 196.282 31.3806 196.48 31.2C200.48 27.4 205.82 26.14 204.98 20.5C204.523 17.2049 203.697 13.9714 202.52 10.86C202.464 10.7156 202.436 10.5614 202.439 10.4063C202.442 10.2513 202.476 10.0983 202.538 9.95624C202.6 9.81417 202.69 9.68574 202.802 9.57829C202.914 9.47084 203.046 9.38647 203.19 9.33001C203.334 9.27354 203.489 9.24607 203.644 9.24918C203.799 9.25229 203.952 9.28592 204.094 9.34813C204.236 9.41035 204.364 9.49994 204.472 9.61179C204.579 9.72363 204.664 9.85555 204.72 10C205.916 11.8767 207.432 13.5285 209.2 14.88C216.42 21.8 219.2 18.88 226.3 17.08C226.551 17.0231 226.814 17.05 227.049 17.1566C227.283 17.2631 227.477 17.4435 227.599 17.6702C227.721 17.8969 227.766 18.1574 227.727 18.4119C227.687 18.6665 227.565 18.9011 227.38 19.08C224.74 21.52 220.58 23.08 218.46 27.62C218.149 31.4488 218.681 35.2994 220.02 38.9C220.121 39.1626 220.123 39.453 220.026 39.7171C219.929 39.9812 219.739 40.201 219.492 40.3356C219.245 40.4701 218.957 40.5103 218.683 40.4486C218.408 40.3868 218.166 40.2274 218 40ZM216.58 35.46C216.23 33.7929 216.009 32.1012 215.92 30.4C215.6 27.44 216.48 24.4 220.56 21.18C218.814 21.6371 216.987 21.685 215.22 21.32C210.88 20.14 208.8 17.64 206.42 15.48C206.62 16.06 207.22 19.58 207.3 20.18C208.08 25.4 204.76 27.96 201.68 30.18C207.171 29.9497 212.536 31.8648 216.64 35.52L216.58 35.46Z" fill="#EFAC54"/>
<path d="M294.14 33.74C292.468 37.1582 289.956 40.0964 286.84 42.28C282.84 44.66 278.38 43.46 274.32 42.1C281.02 46.42 284.18 54.1 280.88 61.36C281.927 59.2865 283.275 57.3792 284.88 55.7C286.441 54.3003 288.397 53.4197 290.48 53.18C291.84 53.18 297.14 53.72 298.08 54.78C295.1 51.38 287.04 48.2 294.14 33.74Z" fill="#FFE7AB"/>
<path d="M279.38 61.76L279.82 60.84C282.66 54.5 280.24 47.3 273.68 43.08C273.453 42.9195 273.289 42.6839 273.219 42.4146C273.148 42.1453 273.175 41.8599 273.295 41.6086C273.415 41.3573 273.619 41.1564 273.873 41.0414C274.126 40.9263 274.412 40.9046 274.68 40.98C278.68 42.3 282.68 43.4 286.24 41.28C289.145 39.2238 291.489 36.4737 293.06 33.28C293.124 33.1408 293.216 33.0156 293.328 32.9117C293.441 32.8077 293.573 32.7269 293.717 32.674C293.861 32.6211 294.014 32.597 294.167 32.6032C294.32 32.6094 294.471 32.6457 294.61 32.71C294.749 32.7744 294.874 32.8655 294.978 32.9782C295.082 33.0909 295.163 33.223 295.216 33.367C295.269 33.5109 295.293 33.6638 295.287 33.8171C295.281 33.9703 295.244 34.1208 295.18 34.26C292.64 39.54 290.84 45.58 294.74 49.94C296.04 51.34 297.6 52.42 299 53.94C299.177 54.1771 299.259 54.4721 299.229 54.7665C299.199 55.061 299.059 55.3334 298.838 55.5297C298.616 55.7261 298.329 55.832 298.033 55.8265C297.737 55.821 297.454 55.7044 297.24 55.5C295.109 54.708 292.854 54.3017 290.58 54.3C285.84 54.82 283.68 58.58 281.46 62.76C281.31 63.0048 281.074 63.1851 280.799 63.2662C280.523 63.3473 280.228 63.3233 279.969 63.1988C279.71 63.0744 279.506 62.8584 279.398 62.5926C279.289 62.3268 279.283 62.0302 279.38 61.76ZM279.04 44.58C281.836 47.59 283.381 51.5518 283.36 55.66C285.16 53.5941 287.675 52.2865 290.4 52C291.518 52.0066 292.634 52.0935 293.74 52.26C292.222 50.823 291.112 49.0084 290.525 47.0018C289.938 44.9952 289.895 42.8688 290.4 40.84C289.019 42.4293 287.235 43.616 285.235 44.2743C283.235 44.9327 281.095 45.0383 279.04 44.58Z" fill="#EFAC54"/>
<path d="M371.32 327.64C372.662 330.539 372.816 333.848 371.751 336.86C370.686 339.872 368.486 342.348 365.62 343.76C367.183 343.111 368.865 342.8 370.556 342.847C372.248 342.894 373.91 343.298 375.434 344.032C376.958 344.767 378.31 345.816 379.4 347.11C380.49 348.404 381.295 349.913 381.76 351.54C380.24 346.38 379.4 340.02 383.26 336.28C385.48 334.14 389.04 333.12 390 330.28C384.3 331.44 378.62 337.82 371.32 327.64Z" fill="#FFE7AB"/>
<path d="M389.74 329.04C383.62 330.38 379.02 336.32 372.3 327.04C371.784 325.917 371.11 324.873 370.3 323.94C370.12 323.675 369.841 323.492 369.526 323.432C369.211 323.372 368.885 323.44 368.62 323.62C368.355 323.8 368.172 324.079 368.112 324.394C368.052 324.709 368.12 325.035 368.3 325.3C368.86 326.26 369.48 327.3 370.16 328.22C371.345 330.845 371.465 333.828 370.495 336.54C369.526 339.252 367.541 341.482 364.96 342.76C364.71 342.907 364.523 343.142 364.435 343.419C364.347 343.695 364.364 343.995 364.483 344.259C364.602 344.524 364.814 344.736 365.079 344.854C365.344 344.972 365.644 344.989 365.92 344.9C367.334 344.317 368.855 344.037 370.384 344.08C371.913 344.124 373.416 344.488 374.795 345.15C376.174 345.812 377.399 346.757 378.388 347.924C379.378 349.09 380.111 350.452 380.54 351.92C380.585 352.068 380.658 352.207 380.756 352.327C380.854 352.447 380.975 352.546 381.111 352.619C381.248 352.693 381.398 352.739 381.552 352.754C381.706 352.77 381.862 352.755 382.01 352.71C382.158 352.665 382.297 352.592 382.417 352.494C382.537 352.396 382.636 352.275 382.71 352.139C382.783 352.002 382.829 351.853 382.844 351.698C382.86 351.544 382.845 351.388 382.8 351.24C380.8 344.56 381.22 339.84 383.98 337.24C386.12 335.24 389.98 334.1 391.02 330.68C391.106 330.485 391.138 330.27 391.112 330.058C391.086 329.846 391.002 329.645 390.871 329.477C390.74 329.308 390.565 329.179 390.366 329.102C390.167 329.025 389.95 329.004 389.74 329.04ZM385.36 333.28C384.323 333.901 383.352 334.625 382.46 335.44C381.225 336.766 380.306 338.355 379.773 340.087C379.239 341.819 379.105 343.649 379.38 345.44C378.086 344.166 376.54 343.179 374.84 342.54C373.314 341.995 371.701 341.73 370.08 341.76C371.31 340.45 372.256 338.899 372.858 337.206C373.461 335.512 373.706 333.713 373.58 331.92C375.233 333.428 377.348 334.331 379.58 334.48C383.4 334.6 387.42 332 385.36 333.28Z" fill="#EFAC54"/>
<path d="M36.6402 376.4C34.9002 373.58 36.8602 368.06 37.0802 365C34.4202 370.86 25.9002 376.1 19.7002 373C25.7002 377.68 29.7002 381.72 28.1002 389.4C28.6273 387.589 29.6878 385.98 31.1434 384.781C32.599 383.582 34.3822 382.85 36.2602 382.68C39.0345 382.121 41.8514 381.8 44.6802 381.72C41.7972 380.274 39.0979 378.488 36.6402 376.4Z" fill="#FFE7AB"/>
<path d="M26.9601 389.18C28.3601 382.56 25.5201 379 18.9601 373.94C18.8288 373.857 18.715 373.749 18.6254 373.623C18.5357 373.496 18.4719 373.353 18.4375 373.202C18.4032 373.05 18.399 372.894 18.4251 372.741C18.4513 372.588 18.5074 372.441 18.5901 372.31C18.6728 372.179 18.7806 372.065 18.9073 371.975C19.034 371.886 19.1771 371.822 19.3285 371.787C19.4798 371.753 19.6365 371.749 19.7895 371.775C19.9425 371.801 20.0888 371.857 20.2201 371.94C25.6401 374.66 33.5201 369.94 36.0001 364.48C36.119 364.235 36.3193 364.038 36.5668 363.924C36.8143 363.809 37.0937 363.784 37.3577 363.852C37.6216 363.921 37.8538 364.078 38.0147 364.299C38.1755 364.519 38.2552 364.788 38.2401 365.06C38.0201 367.98 36.2401 373.34 37.5801 375.7C38.063 376.266 38.6547 376.728 39.3201 377.06C41.1964 378.398 43.1609 379.607 45.2001 380.68C45.4338 380.795 45.6218 380.986 45.7338 381.221C45.8459 381.457 45.8754 381.723 45.8176 381.977C45.7599 382.231 45.6182 382.459 45.4154 382.622C45.2127 382.786 44.9607 382.877 44.7001 382.88C41.9384 382.96 39.1886 383.275 36.4801 383.82C34.7992 383.957 33.2007 384.606 31.8993 385.678C30.5979 386.751 29.6559 388.196 29.2001 389.82C29.1152 390.117 28.9158 390.368 28.6458 390.518C28.3757 390.668 28.0572 390.705 27.7601 390.62C27.4631 390.535 27.2119 390.336 27.0619 390.066C26.9118 389.796 26.8752 389.477 26.9601 389.18ZM24.0601 375.18C27.0214 377.561 28.9836 380.964 29.5601 384.72C31.3191 382.931 33.6604 381.832 36.1601 381.62C37.6201 381.3 39.1601 381.08 40.7201 380.9C39.8601 380.36 39.0201 379.8 38.2001 379.2C34.4801 377.3 34.3601 374.26 35.0801 369.94C32.1587 372.981 28.2074 374.821 24.0001 375.1L24.0601 375.18Z" fill="#EFAC54"/>
<path d="M129.62 298.84C129.116 299.167 128.683 299.592 128.346 300.089C128.009 300.586 127.775 301.145 127.658 301.734C127.54 302.323 127.542 302.93 127.663 303.518C127.783 304.107 128.02 304.665 128.36 305.16C128.501 305.385 128.725 305.546 128.984 305.606C129.243 305.666 129.515 305.621 129.74 305.48C129.966 305.339 130.126 305.115 130.186 304.856C130.246 304.597 130.201 304.325 130.06 304.1C129.854 303.811 129.71 303.483 129.638 303.135C129.567 302.788 129.569 302.429 129.644 302.083C129.719 301.736 129.866 301.409 130.076 301.122C130.285 300.836 130.553 300.597 130.86 300.42C130.964 300.339 131.051 300.238 131.115 300.123C131.18 300.008 131.221 299.881 131.237 299.75C131.253 299.619 131.243 299.487 131.207 299.36C131.172 299.233 131.112 299.114 131.03 299.01C130.949 298.906 130.848 298.82 130.733 298.755C130.618 298.69 130.491 298.649 130.36 298.633C130.229 298.617 130.097 298.627 129.97 298.663C129.843 298.698 129.724 298.759 129.62 298.84Z" fill="#5E503B"/>
<path d="M270.94 290.4C270.781 290.188 270.544 290.048 270.282 290.01C270.019 289.973 269.752 290.041 269.54 290.2C269.328 290.359 269.188 290.596 269.15 290.859C269.113 291.121 269.181 291.388 269.34 291.6C269.595 291.929 269.733 292.334 269.733 292.75C269.733 293.166 269.595 293.571 269.34 293.9C269.176 294.11 269.1 294.377 269.13 294.643C269.16 294.908 269.293 295.151 269.5 295.32C271 296.44 272.88 293.02 270.94 290.4Z" fill="#5E503B"/>
<path d="M314.52 333.02C314.459 332.903 314.375 332.798 314.273 332.713C314.172 332.629 314.054 332.565 313.928 332.526C313.801 332.487 313.668 332.473 313.536 332.486C313.405 332.499 313.277 332.537 313.16 332.6C312.249 333.102 311.484 333.833 310.941 334.72C310.397 335.607 310.094 336.62 310.06 337.66C310.057 337.791 310.081 337.922 310.128 338.044C310.176 338.167 310.248 338.278 310.339 338.373C310.43 338.468 310.539 338.544 310.659 338.596C310.779 338.649 310.909 338.677 311.04 338.68C311.302 338.675 311.553 338.572 311.742 338.39C311.931 338.208 312.045 337.962 312.06 337.7C312.081 337.019 312.276 336.355 312.626 335.77C312.976 335.186 313.47 334.7 314.06 334.36C314.178 334.302 314.284 334.222 314.371 334.123C314.459 334.025 314.526 333.91 314.568 333.786C314.611 333.661 314.629 333.529 314.62 333.398C314.612 333.267 314.578 333.138 314.52 333.02Z" fill="#53606B"/>
</svg>
