<svg width="400" height="400" viewBox="0 0 400 400" fill="none" xmlns="http://www.w3.org/2000/svg">
<g clip-path="url(#clip0_902_8682)">
<path d="M206.388 94.052C207.8 93.8276 209.245 94.144 210.434 94.938C211.484 96.0245 212.073 97.475 212.078 98.986C212.004 104 210.561 108.898 207.904 113.15C204.364 119.6 199.558 125.924 192.728 128.708C191.752 129.204 190.632 129.338 189.566 129.086C188.93 128.773 188.379 128.311 187.961 127.738C187.542 127.165 187.27 126.5 187.166 125.798C185.396 118.462 189.822 110.62 192.858 104.17C194.041 101.454 195.91 99.0929 198.283 97.3188C200.655 95.5447 203.449 94.4188 206.388 94.052Z" fill="#F7846C"/>
<path d="M208.538 98.858C204.904 102.624 201.642 106.733 198.798 111.126C200.822 110.368 202.72 109.61 204.742 108.85C201.924 115.678 196.769 121.282 190.2 124.66C190.58 124.534 191.844 117.198 192.224 116.186C192.927 114.209 193.816 112.303 194.88 110.494C198.766 105.895 203.38 101.964 208.538 98.858Z" fill="#DD4040"/>
<path d="M119.244 34.23C132.778 34.988 143.908 44.6 156.044 50.418C161.793 53.0723 167.759 55.2302 173.876 56.868C181.999 59.5055 190.408 61.1613 198.924 61.8C207.496 62.3756 216.053 60.4888 223.588 56.362C227.762 53.832 231.682 49.912 232.442 45.106C233.2 39.542 229.406 33.976 224.22 31.574C218.911 29.4448 212.993 29.3991 207.652 31.446C211.129 28.4124 214.078 24.8222 216.378 20.822C217.335 19.3819 217.941 17.7382 218.15 16.022C218.402 12.222 215.494 8.94001 212.204 6.91601C203.226 1.21801 191.842 1.97801 181.472 3.62201C171.1 5.40001 160.35 7.92201 150.106 5.64601C143.654 4.12801 137.584 0.712007 130.88 0.0800065C124.893 -0.413423 118.949 1.447 114.312 5.26601C109.69 9.14507 106.782 14.6885 106.218 20.696C101.049 21.4539 96.1559 23.5105 91.9974 26.6735C87.8389 29.8365 84.5506 34.0026 82.4401 38.782C81.0081 42.6542 80.0733 46.6925 79.658 50.8C79.1517 57.7909 79.1517 64.8092 79.658 71.8C80.416 87.99 81.176 104.306 85.476 119.862C86.614 123.908 88.1321 128.21 91.9261 130.106C95.7261 132.13 100.652 130.612 103.814 127.576C106.696 124.325 108.737 120.417 109.76 116.194C116.716 92.542 113.932 67.12 116.716 42.584C116.933 39.6472 117.797 36.7946 119.244 34.23Z" fill="black"/>
<path d="M139.86 156.278C139.354 166.776 137.46 182.46 149.472 191.566C129.49 230.766 95.0879 218.126 95.0879 187.646C106.088 182.206 107.736 152.232 106.85 141.988C118.106 152.358 127.212 159.946 139.86 156.278Z" fill="#F7846C"/>
<path d="M106.976 151.726C111.53 159.44 116.336 167.536 124.304 171.962C126.183 173.055 128.283 173.714 130.45 173.889C132.617 174.064 134.796 173.752 136.826 172.974C137.735 172.603 138.621 172.181 139.482 171.71C139.178 166.567 139.262 161.408 139.734 156.278C127.086 159.946 117.98 152.478 106.85 142.114C107.096 145.312 107.138 148.523 106.976 151.726Z" fill="black"/>
<path d="M145.046 180.816C150.864 186.128 160.096 184.356 167.306 181.448C184.886 174.238 200.822 161.718 219.668 159.448C222.586 180.85 229.356 201.546 239.65 220.536C233.2 231.794 222.07 239.382 216.632 251.136C212.964 258.852 212.584 267.704 212.584 276.306C212.71 313.236 218.15 349.156 221.312 386.846C198.42 380.774 168.95 382.924 145.552 387.224C122.154 391.524 99.136 397.722 75.484 399.624C66.758 400.256 57.778 400.382 49.304 397.726C50.948 375.972 51.326 345.998 48.418 324.496C35.018 327.658 29.952 326.774 16.166 327.026C16.798 321.588 19.708 306.158 20.088 301.604C20.972 292.246 21.732 283.004 23.122 273.78C24.522 264.674 26.922 255.82 28.94 246.84C30.584 239.252 32.608 231.536 36.782 224.96C39.7631 220.568 43.2907 216.572 47.28 213.07C56.638 204.85 67.768 198.906 78.772 193.088C85.096 189.672 91.42 186.384 97.618 182.97C102.17 189.17 106.598 196.122 113.174 200.044C119.75 203.844 128.478 204.976 135.054 201.056C142.264 196.752 144.16 189.162 145.046 180.816Z" fill="#9778FF"/>
<path d="M69.034 315.766C77.8785 311.77 85.8666 306.1 92.558 299.07C93.2266 296.074 93.65 293.029 93.824 289.964C93.95 285.164 93.19 280.1 88.89 277.316C82.566 273.144 74.09 278.716 68.78 282.25C62.71 286.296 57.398 291.608 50.948 295.024C40.45 300.588 28.182 302.866 19.834 311.844C19.3304 312.36 18.8626 312.91 18.434 313.49C17.548 318.674 16.662 323.986 16.282 326.77C27.412 326.516 32.852 327.022 41.578 325.63C50.694 322.342 60.18 319.94 69.034 315.766ZM95.72 199.66C104.32 208.64 117.6 218.884 130.88 214.584C138.342 212.184 143.782 205.478 147.322 198.774C149.685 194.122 151.592 189.251 153.014 184.23C150.06 184.08 147.247 182.919 145.046 180.942C144.16 189.29 142.39 196.878 135.18 201.052C128.604 204.972 120.004 203.834 113.3 200.04C106.724 196.24 102.3 189.162 97.744 182.966C94.076 184.862 90.408 186.886 86.744 188.784C89.4889 192.606 92.4877 196.24 95.72 199.66Z" fill="#643CFF"/>
<path d="M200.442 62.812C201.519 78.5724 200.755 94.4045 198.166 109.988C195.766 123.9 192.348 141.86 182.356 152.358C175.61 159.02 166.656 162.98 157.188 163.488C142.482 164.74 127.745 161.474 114.944 154.128C99.0001 144.77 94.7081 131.236 92.1781 113.656C90.3066 102.115 89.3775 90.4401 89.4001 78.748C89.6541 62.812 92.3101 41.564 103.186 29.044C108.192 23.3519 114.362 18.8023 121.28 15.7036C128.197 12.6049 135.7 11.0294 143.28 11.084C162.378 11.336 178.692 21.328 189.95 35.884C196.052 43.6184 199.707 52.9981 200.446 62.822" fill="#F7846C"/>
<path d="M190.83 35.368C179.574 20.822 163.258 10.326 144.16 10.072C136.301 10.1756 128.549 11.9033 121.39 15.1465C114.231 18.3898 107.82 23.0784 102.56 28.918C91.6819 41.438 88.1419 63.446 87.8879 79.382C87.7619 87.35 89.7859 94.684 90.6719 102.652C91.4299 103.032 92.1879 103.538 92.9479 103.918C93.5799 104.17 95.098 105.056 95.856 104.55C96.49 104.17 96.6159 102.652 96.6159 102.15C96.8254 100.727 96.9097 99.2879 96.8679 97.85C96.8895 94.9726 97.1006 92.0997 97.4999 89.25C99.0797 77.128 102.485 65.3149 107.6 54.212C113.546 41.692 124.042 33.724 137.576 40.812C149.844 47.262 160.088 58.518 170.712 67.372C179.946 75.086 191.454 74.96 189.432 67.498C187.978 62.9525 186.878 58.3013 186.142 53.586C191.564 57.4753 197.953 59.7949 204.608 60.29C213.336 60.542 224.718 57 229.65 49.29C230.746 47.6839 231.374 45.8044 231.464 43.8618C231.553 41.9192 231.1 39.99 230.156 38.29" fill="black"/>
<path d="M86.234 83.05C82.946 80.898 78.772 79.25 75.358 81.026C73.7695 81.9545 72.5262 83.3746 71.816 85.072C69.416 90.258 70.416 96.456 72.702 101.768C76.6979 111.195 84.0417 118.808 93.318 123.142C95.718 124.28 98.63 125.04 100.78 123.648C102.013 122.713 102.866 121.363 103.18 119.848C104.299 115.457 104.079 110.832 102.548 106.568C99.388 96.582 95.214 88.866 86.234 83.05Z" fill="#F7846C"/>
<path d="M96.4801 114.8C95.0801 98.486 87.1201 92.8 79.4041 86.85C83.8321 92.794 88.0041 98.358 90.2821 105.45C88.0061 104.312 83.3261 102.794 80.5441 103.552C86.6141 106.714 88.3841 108.484 96.4801 114.808V114.8ZM160.6 81.4C160.316 87.6368 161.262 93.8685 163.384 99.74C165.28 104.42 169.2 108.846 174.512 109.352C169.297 112.595 163.497 114.785 157.44 115.8C154.532 105.308 156.682 91.522 160.6 81.4Z" fill="#DD4040"/>
<path d="M165.662 92.028C169.962 87.096 177.676 80.898 184.128 81.658C190.58 82.418 196.528 85.958 198.798 95.696C198.798 95.696 193.998 99.364 182.988 98.48C176.714 98.034 170.7 95.7944 165.662 92.028ZM116.082 87.6C120.384 82.668 128.098 76.47 134.548 77.23C140.998 77.99 146.948 81.53 149.22 91.268C149.22 91.268 144.42 94.936 133.41 94.05C127.143 93.5688 121.138 91.3336 116.082 87.6Z" fill="white"/>
<path d="M190.452 96.33C190.61 92.5106 191.557 88.7654 193.234 85.33C190.653 83.1714 187.478 81.8464 184.128 81.53C177.676 80.77 169.962 87.094 165.662 91.9C170.666 95.7269 176.699 97.9728 182.988 98.35C185.431 98.5718 187.89 98.5295 190.324 98.224C190.43 97.5986 190.473 96.964 190.452 96.33ZM142.896 80.266C140.483 78.5234 137.64 77.4742 134.674 77.232C128.224 76.472 120.51 82.796 116.21 87.602C121.214 91.4289 127.247 93.6748 133.536 94.052C136.021 94.2709 138.522 94.2287 140.998 93.926C140.524 89.2863 141.175 84.6008 142.896 80.266Z" fill="black"/>
<path d="M126.834 123.268C126.834 133.134 141.126 141.734 160.856 136.17" stroke="black" stroke-width="5.046" stroke-linejoin="round"/>
<path d="M155.922 59.144C155.038 63.824 154.658 67.24 150.61 68.378C144.666 70.022 134.17 65.596 128.098 64.836C122.4 64.2 116.716 66.6 111.4 69.01C114.688 64.71 116.964 59.01 122.276 57.754C124.143 57.3351 126.057 57.1649 127.968 57.248C136.446 57.248 147.576 58.512 155.922 59.144ZM202.214 75.966C201.544 74.6033 200.596 73.3966 199.43 72.424C197.154 70.528 193.866 70.528 191.084 70.528C187.668 70.528 184.254 70.528 180.838 70.654C179.994 70.7747 179.134 70.7007 178.323 70.4375C177.512 70.1744 176.772 69.7292 176.16 69.136C175.831 68.4922 175.576 67.8132 175.4 67.112C175.02 65.216 174.642 63.446 174.262 61.548C181.36 61.1241 188.484 61.4634 195.51 62.56C196.863 62.6614 198.149 63.1934 199.178 64.078C200.16 65.0536 200.859 66.2769 201.202 67.618C201.648 69.1814 201.903 70.7932 201.96 72.418C202.186 73.5863 202.271 74.7775 202.214 75.966Z" fill="black"/>
<path d="M260.898 157.29C257.23 155.268 254.574 151.6 251.792 148.438C248.504 144.77 245.216 139.332 245.216 134.272C245.216 132.502 246.228 131.236 247.998 131.996C251.666 133.64 258.748 140.342 262.67 140.722C266.47 141.102 268.614 135.03 269.752 131.364C270.54 128.406 271.599 125.528 272.914 122.764C273.657 122.091 274.548 121.603 275.514 121.339C276.481 121.075 277.497 121.043 278.478 121.246C280.628 122.386 282.278 125.294 285.056 123.524C289.482 120.868 293.53 128.324 299.348 126.306C301.118 125.674 300.36 128.836 302.004 129.72C303.648 130.604 305.038 127.192 305.544 129.088C306.176 131.87 309.344 132.756 311.744 132.888C312.756 132.888 311.618 138.328 311.87 139.34C312.489 142.475 312.472 145.703 311.819 148.832C311.166 151.96 309.891 154.926 308.07 157.552C306.212 160.155 303.86 162.365 301.147 164.058C298.434 165.751 295.414 166.892 292.26 167.416C286.675 168.124 281.001 167.339 275.818 165.14C270.593 163.034 265.593 160.407 260.894 157.298" fill="#DD4040"/>
<path d="M347.534 291.6C364.356 251.254 374.854 209.77 383.834 166.894C331.852 151.094 267.982 135.656 214.102 127.814C204.114 169.732 188.321 210.051 167.18 247.6C179.322 247.094 190.452 250.89 202.086 254.558C246.1 268.336 301.876 284.274 347.534 291.6Z" fill="#14D29B"/>
<path d="M344.626 285.8C361.194 245.96 371.692 205.108 380.546 163C329.828 147.696 267.602 132.772 215.114 125.184C205.124 166.481 189.551 206.223 168.824 243.312C180.712 242.806 191.462 246.474 202.846 250.016C245.848 263.278 300.106 278.708 344.626 285.8Z" fill="#FDB849"/>
<path d="M341.97 279.846C357.726 241.416 369.754 201.562 377.89 160.832C323.289 144.336 267.64 131.533 211.32 122.51C201.937 162.426 186.903 200.798 166.674 236.464C178.436 236.086 189.312 239.754 200.57 243.294C243.444 256.828 297.576 272.384 341.97 279.846Z" fill="#FFD340"/>
<path d="M288.85 156.912C288.724 157.67 288.47 158.556 287.584 158.682C281.768 159.314 279.49 127.948 284.17 124.154C288.344 120.866 291.758 126.052 292.012 130.354C292.77 139.332 290.368 148.564 288.85 156.912Z" fill="#F7846C"/>
<path d="M292.77 157.29C292.392 157.924 291.758 158.69 290.874 158.556C284.55 157.67 293.15 128.708 299.474 126.43C305.038 124.406 306.81 129.972 305.544 134.03C302.888 142.24 297.2 150.082 292.77 157.29ZM303.268 154.762C302.888 155.14 302.51 155.646 301.868 155.394C298.068 153.876 307.434 133.64 311.608 132.88C315.276 132.248 315.654 136.548 314.39 139.332C311.616 145.148 307.062 150.082 303.268 154.762Z" fill="#F7846C"/>
<path d="M363.724 202.696L364.104 201.052C357.526 199.786 350.444 198.142 342.982 196.252C345.534 188.384 347.895 180.456 350.064 172.474L348.42 171.968C346.144 179.936 343.866 187.904 341.338 195.746C333.876 193.848 326.16 191.698 318.192 189.546C320.492 181.672 322.6 173.744 324.516 165.768L322.872 165.39C320.974 173.358 318.824 181.19 316.548 189.04C314.018 188.282 311.49 187.64 308.96 186.89C304.026 185.49 299.094 184.108 294.288 182.842C296.564 174.37 298.462 166.528 300.106 159.698L298.462 159.318C296.818 166.148 294.92 173.99 292.644 182.338C285.814 180.44 279.112 178.67 272.408 176.898C274.684 169.817 276.707 162.734 278.478 155.65L276.834 155.272C275.064 162.472 272.914 169.562 270.764 176.52C263.302 174.622 255.964 172.852 248.884 171.334C251.54 163.618 254.196 155.904 256.724 148.314L255.08 147.808C252.55 155.524 249.894 163.24 247.238 171.08C240.282 169.69 233.454 168.424 226.876 167.54C229.406 160.078 231.808 152.616 233.832 145.026L232.188 144.52C230.164 152.236 227.762 159.824 225.106 167.286C219.443 166.526 213.744 166.059 208.032 165.886V167.656C213.216 167.782 218.782 168.288 224.474 168.92C222.074 175.624 219.54 182.2 216.874 188.778C211.43 187.862 205.942 187.229 200.432 186.88L200.306 188.65C205.646 188.956 210.965 189.547 216.242 190.422C213.586 196.746 210.678 202.942 207.642 209.022C202.456 208.01 197.27 207.124 192.212 206.492L191.958 208.262C196.758 208.768 201.698 209.662 206.758 210.662C203.47 217.238 199.929 223.688 196.134 230.012L197.652 230.898C201.452 224.322 205.114 217.744 208.53 211.042C215.486 212.558 222.694 214.33 229.904 216.354C227.122 222.93 224.086 229.38 220.924 235.704L222.442 236.462C225.604 230.012 228.642 223.436 231.548 216.862C238.504 218.884 245.46 221.034 252.416 223.184C249.355 229.707 246.065 236.119 242.552 242.41L244.07 243.294C247.61 236.844 250.898 230.394 254.07 223.694C257.106 224.706 260.016 225.592 262.924 226.604L276.962 231.156C274.562 237.356 271.904 243.556 269.122 249.756L270.64 250.516C273.422 244.316 276.078 237.994 278.48 231.798C285.68 234.074 292.772 236.224 299.982 238.122C297.582 244.066 295.182 250.01 292.646 255.954L294.29 256.586C296.855 250.589 299.342 244.56 301.752 238.5C309.34 240.524 316.802 242.3 324.138 243.686C321.356 250.516 318.448 257.22 315.538 263.922L317.182 264.682C320.209 257.843 323.161 250.97 326.036 244.066C332.896 245.281 339.822 246.082 346.778 246.466L346.904 244.696C340.113 244.416 333.351 243.655 326.668 242.42C329.336 235.696 331.951 228.95 334.51 222.184C341.65 223.784 348.869 225.008 356.138 225.85L356.264 224.08C349.123 223.225 342.031 222.001 335.016 220.412C337.672 212.95 340.328 205.488 342.73 198.026C349.812 199.66 357.02 201.43 363.724 202.696ZM308.2 188.53C310.73 189.29 313.26 189.93 315.8 190.68C313.53 198.352 311.126 205.984 308.59 213.572C301.39 211.55 294.046 209.272 286.836 207.122C289.366 199.28 291.516 191.692 293.54 184.484C298.462 185.748 303.4 187.14 308.2 188.53ZM291.886 183.978C289.862 191.178 287.712 198.778 285.182 206.616C284.424 206.364 283.782 206.238 283.032 205.984C276.582 204.086 270.258 202.064 263.808 200.166C266.59 193.084 269.246 185.874 271.522 178.538C278.226 180.31 285.056 182.08 291.886 183.978ZM269.886 178.16C267.504 185.435 264.932 192.646 262.172 199.786C254.836 197.636 247.626 195.614 240.418 193.842C243.074 186.886 245.476 179.93 247.88 173.1C255.08 174.492 262.416 176.262 269.878 178.16H269.886ZM225.872 169.052C232.45 169.938 239.152 171.076 246.236 172.594C243.836 179.55 241.302 186.38 238.774 193.336C231.816 191.566 224.86 190.174 218.284 189.036C220.939 182.424 223.466 175.762 225.864 169.052H225.872ZM208.798 209.272C211.834 203.202 214.742 196.872 217.398 190.672C224.102 191.81 230.932 193.328 238.014 194.972C235.484 201.55 232.956 208.126 230.172 214.572C223.102 212.595 215.975 210.827 208.8 209.272H208.798ZM231.816 215.09C234.6 208.514 237.256 201.936 239.658 195.36C246.742 197.13 254.076 199.16 261.412 201.304C258.741 208.149 255.83 214.899 252.686 221.54C245.848 219.264 238.766 217.114 231.8 215.09H231.816ZM263.056 224.83C260.148 223.944 257.238 222.932 254.33 222.046C257.492 215.344 260.4 208.646 263.056 201.81C269.506 203.708 275.958 205.61 282.408 207.628C283.166 207.882 283.808 208.008 284.558 208.26C282.28 215.216 279.878 222.3 277.096 229.382C272.534 227.864 267.728 226.346 263.048 224.83H263.056ZM278.866 229.888C281.502 222.901 283.99 215.859 286.328 208.766C293.528 210.916 300.872 213.194 308.082 215.216C305.682 222.3 303.15 229.256 300.368 236.338C293.169 234.287 285.998 232.137 278.858 229.888H278.866ZM324.524 241.776C317.188 240.376 309.6 238.616 302.138 236.592C304.794 229.636 307.45 222.678 309.852 215.592C317.568 217.742 325.156 219.766 332.492 221.41C329.828 228.244 327.172 235.074 324.516 241.776H324.524ZM332.872 219.776C325.536 218.132 317.948 216.108 310.232 213.958C312.768 206.37 315.172 198.738 317.442 191.066C325.126 193.245 332.842 195.312 340.586 197.266C338.176 204.846 335.646 212.434 332.864 219.77L332.872 219.776Z" fill="white"/>
<path d="M246.86 150.208L241.042 154.382L239.27 148.69L236.236 149.576L238.26 156.278L231.05 161.338L232.82 163.994L239.27 159.568L241.168 165.638L244.204 164.752L242.054 157.544L248.756 152.864L246.86 150.208ZM270.764 158.934L265.2 161.718C264.568 159.44 263.936 157.29 263.304 155.014L260.268 155.772C260.883 158.276 261.558 160.765 262.292 163.236L254.83 167.036L256.23 169.818L263.314 166.276C264.072 168.426 264.832 170.704 265.59 172.854L268.626 171.714C267.74 169.438 266.982 167.162 266.226 164.886L272.17 161.85L270.764 158.934ZM296.438 163.362C293.38 164.79 290.344 166.265 287.332 167.788L284.424 160.326L281.514 161.464L284.55 169.18C282.4 170.318 280.25 171.33 278.226 172.594L279.744 175.376C281.699 174.273 283.681 173.219 285.688 172.214L288.344 178.792L291.252 177.654L288.47 170.698C291.506 169.18 294.67 167.662 297.704 166.144L296.438 163.362ZM319.71 167.788C316.048 169.441 312.422 171.17 308.832 172.974C307.715 169.973 306.577 166.979 305.418 163.994L302.51 165.132C303.648 168.168 304.91 171.332 306.05 174.492C304.154 175.504 302.13 176.516 300.232 177.526L301.75 180.31C303.52 179.298 305.292 178.412 307.062 177.526C307.822 179.55 308.462 181.574 309.212 183.598L312.248 182.586C311.488 180.436 310.73 178.16 309.972 176.01C313.632 174.136 317.343 172.365 321.102 170.698L319.71 167.788ZM344.5 178.032L343.488 174.998C340.452 176.01 337.416 177.148 334.382 178.16C333.748 175.63 333.116 173.1 332.232 170.56L329.196 171.572C329.971 174.127 330.688 176.7 331.346 179.288C328.69 180.3 325.908 181.312 323.252 182.324L324.39 185.232C326.92 184.22 329.448 183.334 331.978 182.324C332.738 185.484 333.242 188.646 333.748 191.936L336.91 191.43C336.403 188.014 335.771 184.599 335.014 181.184C338.176 180.182 341.338 179.044 344.5 178.032ZM367.138 183.218L365.494 180.436L358.664 184.61C357.78 181.954 356.894 179.424 356.136 176.768L353.1 177.78C353.986 180.562 354.996 183.472 355.882 186.254L343.74 193.6L345.384 196.382L356.894 189.426C357.652 191.576 358.294 193.6 359.044 195.75L362.08 194.738C361.32 192.462 360.436 190.184 359.68 187.782L367.138 183.218ZM217.138 170.57C214.866 171.589 212.63 172.687 210.434 173.86C209.666 172.383 208.822 170.947 207.904 169.558L205.122 171.204C205.971 172.566 206.771 173.958 207.522 175.376C204.992 176.776 202.462 178.286 199.922 179.804L201.694 182.46C204.094 180.942 206.626 179.424 209.03 178.16C209.914 179.804 210.674 181.448 211.558 183.092L214.468 181.692C213.708 179.922 212.824 178.278 211.938 176.634C214.088 175.496 216.238 174.484 218.388 173.472L217.138 170.57ZM242.18 174.238L234.212 178.538L231.43 171.962L228.52 173.226L231.43 180.056L222.83 184.61L224.348 187.392L232.57 182.966C233.311 184.931 234.288 186.8 235.478 188.53L238 186.634C236.958 185.054 236.109 183.355 235.47 181.574L235.344 181.322L243.566 176.894L242.18 174.238ZM300.486 214.838C298.033 214.828 295.616 214.253 293.422 213.156C291.228 212.059 289.317 210.47 287.838 208.514C286.275 206.413 285.308 203.928 285.041 201.323C284.774 198.718 285.216 196.089 286.32 193.714C287.727 191.086 289.799 188.873 292.329 187.297C294.859 185.721 297.759 184.838 300.738 184.734C303.718 184.543 306.692 185.202 309.312 186.635C311.932 188.068 314.091 190.216 315.538 192.828C316.767 195.157 317.301 197.79 317.077 200.413C316.853 203.037 315.88 205.541 314.274 207.628C312.756 209.693 310.802 211.399 308.55 212.623C306.299 213.847 303.805 214.56 301.246 214.71C301.007 214.815 300.746 214.859 300.486 214.838ZM300.864 188.024C298.452 188.056 296.091 188.729 294.024 189.974C291.958 191.219 290.259 192.991 289.102 195.108C288.275 196.966 287.956 199.011 288.178 201.033C288.401 203.055 289.156 204.982 290.368 206.616C291.634 208.239 293.271 209.534 295.142 210.393C297.013 211.251 299.062 211.648 301.118 211.55C303.202 211.395 305.228 210.796 307.061 209.793C308.893 208.789 310.49 207.404 311.742 205.732C313.013 204.148 313.798 202.23 314 200.209C314.202 198.188 313.813 196.152 312.88 194.348C311.633 192.309 309.857 190.646 307.742 189.532C305.627 188.419 303.251 187.898 300.864 188.024Z" fill="black"/>
<path d="M224.22 136.17C222.183 136.067 220.252 135.228 218.786 133.809C217.321 132.39 216.42 130.487 216.252 128.454C216.154 126.503 216.502 124.555 217.269 122.757C218.035 120.96 219.201 119.361 220.678 118.082C221.801 116.893 223.154 115.943 224.654 115.29C226.154 114.637 227.77 114.294 229.406 114.282C231.202 114.278 232.949 114.872 234.369 115.972C235.79 117.072 236.803 118.614 237.248 120.354L233.832 120.986C233.538 120.015 232.934 119.167 232.111 118.573C231.289 117.979 230.294 117.672 229.28 117.698C226.934 117.8 224.716 118.795 223.08 120.48C222.003 121.394 221.147 122.54 220.578 123.833C220.008 125.125 219.739 126.53 219.792 127.942C219.906 129.153 220.455 130.282 221.337 131.12C222.22 131.957 223.376 132.446 224.592 132.496L224.972 135.91C224.756 136.076 224.492 136.168 224.22 136.17ZM247.872 139.2C245.835 139.098 243.904 138.259 242.438 136.841C240.973 135.422 240.072 133.519 239.904 131.486C239.806 129.535 240.154 127.587 240.921 125.789C241.687 123.992 242.853 122.393 244.33 121.114C245.453 119.925 246.805 118.975 248.304 118.322C249.804 117.669 251.42 117.326 253.056 117.314C254.853 117.308 256.6 117.903 258.02 119.003C259.441 120.103 260.454 121.645 260.898 123.386L257.484 124.018C257.19 123.047 256.585 122.199 255.762 121.604C254.94 121.01 253.945 120.702 252.93 120.728C250.584 120.831 248.366 121.827 246.73 123.512C245.653 124.426 244.797 125.572 244.227 126.865C243.657 128.157 243.388 129.562 243.44 130.974C243.554 132.185 244.103 133.314 244.986 134.151C245.869 134.988 247.025 135.476 248.24 135.526L248.62 138.942C248.405 139.107 248.143 139.197 247.872 139.2ZM270.132 143.884C268.095 143.782 266.164 142.943 264.698 141.525C263.233 140.106 262.332 138.203 262.164 136.17C262.066 134.219 262.414 132.271 263.181 130.473C263.947 128.676 265.113 127.077 266.59 125.798C267.713 124.609 269.065 123.659 270.564 123.006C272.064 122.353 273.68 122.01 275.316 121.998L275.19 125.412C272.815 125.546 270.569 126.535 268.866 128.196C267.789 129.11 266.934 130.257 266.365 131.549C265.795 132.842 265.526 134.247 265.578 135.658C265.692 136.869 266.241 137.998 267.124 138.835C268.006 139.672 269.163 140.161 270.378 140.21L270.758 143.626C270.638 143.884 270.384 143.884 270.132 143.884ZM316.674 157.29C314.637 157.187 312.706 156.349 311.241 154.93C309.775 153.511 308.874 151.609 308.706 149.576C308.609 147.625 308.957 145.677 309.724 143.88C310.491 142.083 311.657 140.484 313.134 139.204C314.257 138.015 315.609 137.065 317.109 136.412C318.608 135.759 320.224 135.416 321.86 135.404C323.657 135.399 325.403 135.993 326.824 137.093C328.244 138.193 329.257 139.735 329.702 141.476L326.286 142.108C325.992 141.137 325.388 140.289 324.565 139.695C323.743 139.101 322.748 138.794 321.734 138.82C319.388 138.922 317.17 139.917 315.534 141.602C314.457 142.516 313.602 143.662 313.032 144.955C312.463 146.248 312.194 147.652 312.246 149.064C312.359 150.275 312.908 151.404 313.791 152.242C314.674 153.079 315.83 153.567 317.046 153.616L317.426 157.032C317.218 157.211 316.948 157.303 316.674 157.29ZM337.164 162.73C335.127 162.627 333.196 161.788 331.73 160.369C330.265 158.95 329.364 157.047 329.196 155.014C329.098 153.063 329.445 151.115 330.212 149.318C330.979 147.521 332.145 145.923 333.622 144.644C335.926 142.289 339.057 140.926 342.35 140.844C344.146 140.839 345.893 141.434 347.313 142.534C348.733 143.634 349.745 145.176 350.19 146.916L346.776 147.548C346.482 146.577 345.877 145.729 345.054 145.135C344.232 144.541 343.236 144.234 342.222 144.26C339.876 144.362 337.658 145.357 336.022 147.042C334.945 147.956 334.089 149.102 333.52 150.395C332.95 151.687 332.681 153.092 332.734 154.504C332.848 155.715 333.397 156.844 334.279 157.682C335.162 158.519 336.318 159.008 337.534 159.058L337.912 162.472C337.814 162.568 337.696 162.64 337.567 162.685C337.438 162.73 337.3 162.745 337.164 162.73ZM360.436 169.558C358.399 169.456 356.468 168.617 355.002 167.199C353.537 165.78 352.636 163.877 352.468 161.844C352.37 159.893 352.718 157.945 353.485 156.147C354.251 154.35 355.417 152.751 356.894 151.472C359.198 149.118 362.328 147.755 365.62 147.672C367.417 147.666 369.164 148.261 370.584 149.361C372.005 150.461 373.018 152.003 373.462 153.744L370.048 154.376C369.754 153.405 369.149 152.557 368.326 151.963C367.504 151.369 366.508 151.062 365.494 151.088H365.368C363.066 151.215 360.897 152.209 359.298 153.87C358.219 154.784 357.361 155.931 356.789 157.224C356.218 158.518 355.948 159.925 356 161.338C356.114 162.549 356.663 163.678 357.546 164.515C358.428 165.353 359.585 165.842 360.8 165.892L361.18 169.306C360.965 169.468 360.705 169.556 360.436 169.558Z" fill="white"/>
<path d="M275.822 154.508C275.57 155.268 275.316 156.152 274.432 156.152C268.614 156.278 269.12 124.786 274.178 121.498C278.606 118.588 281.514 124.028 281.514 128.328C281.134 137.308 277.972 146.288 275.822 154.508Z" fill="#F7846C"/>
<path d="M97.238 303C96.858 295.032 96.48 286.938 96.352 278.97C96.1212 274.912 96.3331 270.84 96.984 266.828C98.63 258.732 103.436 251.776 108.114 244.946C103.556 248.154 99.4327 251.938 95.846 256.204C95.088 249.5 94.076 242.038 92.684 230.404C90.1979 253.383 89.8591 276.544 91.672 299.586" fill="#643CFF"/>
<path d="M35.7699 310.58C28.9399 313.742 21.4779 316.904 17.5579 323.228C17.044 323.93 16.6782 324.729 16.4825 325.577C16.2869 326.425 16.2656 327.304 16.4199 328.16C17.3039 331.07 21.2199 331.702 24.2599 331.576C41.6196 331.033 58.5536 326.07 73.4599 317.156C82.0599 311.972 90.6599 304.382 91.2939 294.264C91.4962 292.624 91.2328 290.961 90.5339 289.464C89.5854 287.982 88.1988 286.833 86.5669 286.175C84.9349 285.518 83.1387 285.385 81.4279 285.796C74.0919 287.314 66.6279 294.524 60.1799 298.196C52.0859 302.612 43.9999 306.786 35.7699 310.58Z" fill="black"/>
<path d="M252.804 235.2L266.464 248.734L217.39 307.544L196.774 291.988L252.804 235.2Z" fill="#D70A32"/>
<path d="M212.458 303.876L217.258 307.544L266.33 248.744L264.18 246.594C247.744 266.314 230.038 285.032 212.458 303.876Z" fill="#FF465A"/>
<path d="M266.464 248.734L275.822 224.83L252.8 235.2C252.924 236.932 253.416 238.619 254.244 240.145C255.072 241.672 256.216 243.005 257.6 244.054C260.198 246.212 263.217 247.806 266.464 248.734Z" fill="white"/>
<path d="M220.426 303.876C220.426 303.876 208.158 305.648 200.696 288.076C200.696 288.076 186.91 300.218 187.668 304.138C188.806 311.094 197.154 319.948 205.248 320.454C210.182 320.698 220.426 303.876 220.426 303.876Z" fill="#008C6E"/>
<path d="M214.102 312.984C217.516 308.556 220.426 303.876 220.426 303.876C220.426 303.876 208.158 305.648 200.696 288.076C200.696 288.076 196.896 291.49 193.36 295.276C194.624 305.648 203.858 310.834 214.102 312.984Z" fill="white"/>
<path d="M274.304 228.496C273.769 228.454 273.264 228.231 272.873 227.863C272.482 227.496 272.229 227.006 272.154 226.474C272.154 226.474 277.972 221.414 278.732 221.674C279.49 222.046 274.304 228.496 274.304 228.496Z" fill="black"/>
<path d="M233.326 297.8C232.948 297.042 232.442 296.4 232.188 295.902C229.912 292.236 227.888 288.314 225.486 284.772C231.686 285.406 235.098 290.972 241.422 291.476C243.444 291.73 246.48 290.59 245.722 288.694C245.566 288.392 245.352 288.125 245.091 287.908C244.83 287.69 244.529 287.527 244.204 287.428C242.56 286.67 240.788 285.784 239.144 285.028C241.214 285.537 243.337 285.791 245.468 285.786C246.606 285.786 248.25 285.28 248.124 284.142C248.124 283.51 247.618 283.13 247.112 282.742C240.282 277.05 234.592 266.426 227.762 260.742C231.682 258.466 239.018 260.996 242.562 265.422C245.344 268.964 243.7 275.666 246.362 279.334C246.691 279.823 247.149 280.212 247.684 280.459C248.219 280.706 248.812 280.801 249.398 280.734C251.042 280.608 251.42 280.102 251.674 278.584C252.669 272.975 252.322 267.211 250.662 261.762C249.144 256.704 246.108 251.762 241.302 249.62C236.876 247.724 231.69 248.608 227.01 249.748C213.73 253.036 168.326 267.706 185.906 288.196C187.284 290.098 189.089 291.65 191.176 292.727C193.263 293.804 195.574 294.375 197.922 294.396C204.84 294.63 211.669 292.779 217.522 289.084C218.156 288.704 222.202 292.75 222.582 293.13C224.1 294.53 225.618 296.292 227.008 297.81C228.02 298.822 232.194 302.49 233.838 300.72C234.338 300.2 233.706 298.564 233.326 297.8Z" fill="#F7846C"/>
<path d="M189.44 267.326C144.54 300.326 114.186 301.854 87.1201 313.362C88.7124 307.125 89.0563 300.635 88.1321 294.264C87.6261 291.864 85.6021 288.32 82.5661 289.332C69.6661 294.012 61.5661 306.406 48.7981 311.332C49.6829 320.927 51.0762 330.469 52.9721 339.916C54.4881 347.116 55.8801 356.232 62.4561 361.418C65.2401 363.568 72.4561 360.912 77.6341 359.774C83.4521 358.374 90.4081 357.624 95.9741 355.6C107.335 351.351 118.297 346.103 128.73 339.916C153.646 325.246 172.87 301.342 198.546 288.062C193.108 282.376 188.554 275.04 189.44 267.326Z" fill="#F7846C"/>
<path d="M67.8959 352.064C66.9455 351.404 65.8414 350.999 64.6895 350.889C63.5377 350.778 62.3767 350.965 61.3179 351.432C59.6801 351.966 58.1096 352.687 56.6379 353.582C57.886 356.644 59.8872 359.342 62.4559 361.424C63.9739 362.562 66.8839 362.31 70.0559 361.676C70.2979 358.262 70.4239 354.214 67.8959 352.064Z" fill="#DD4040"/>
</g>
<defs>
<clipPath id="clip0_902_8682">
<rect width="400" height="400" fill="white"/>
</clipPath>
</defs>
</svg>
