<svg width="400" height="400" viewBox="0 0 400 400" fill="none" xmlns="http://www.w3.org/2000/svg">
<path d="M186.88 208.634C186.88 348.278 187.48 342.106 185.48 347.684C184.177 351.715 181.767 355.298 178.526 358.026C174.917 361.273 170.604 363.64 165.926 364.942C164.858 365.19 107.952 375.302 50.1862 383.384C28.4542 386.426 14.0722 385.346 15.7622 356.674C15.7742 356.474 10.3122 92.852 10.3022 92.65C9.70447 73.0956 10.2113 53.5231 11.8202 34.026C12.9002 22 22.8002 17.2 34.6422 15.442C44.4762 13.986 153.22 33.218 165.964 38.558C170.503 40.7056 174.313 44.1354 176.924 48.424C187.276 63.412 184.294 84.08 184.458 97.106C184.724 118.106 184.766 94.08 187.214 208.608C187.105 208.631 186.992 208.64 186.88 208.634ZM19.2122 344.22C19.3062 365.974 15.1782 382.942 39.9602 380.924C70.6962 378.422 134.31 365.976 156.524 363.964C172.286 362.536 185.268 354.152 185.124 338.58C183.996 213.252 185.524 240.506 183.308 131.864C183.036 118.484 182.666 105.102 182.42 91.722C182.108 74.722 184.372 62.508 175.092 48.848C168.732 39.49 159.104 37.058 143.976 34.76C81.9422 25.336 48.8942 17.57 37.4002 18.584C29.2002 19.308 15.4742 24.4 14.8002 32.042C10.8002 77.01 19.2002 341.074 19.2122 344.22Z" fill="#191919"/>
<path d="M212.676 208.028C216.498 71.3599 215.336 119.654 215.252 80.4659C215.218 65.3699 218.628 48.3179 231.298 40.1419C242.556 32.8799 355.714 14.1419 365.298 15.4419C374.806 16.7379 386.38 21.3759 387.642 30.8419C388.36 36.2419 389.072 41.6599 389.264 47.0959C391.1 99.1299 388.998 92.0239 388.762 107.896C388.562 120.896 389.152 169.034 388.162 211.852C387.242 251.452 384.674 318.176 384.002 344.63C383.802 352.742 385.564 360.158 382.856 371.804C380.794 380.676 373.906 384.934 365.162 384.618C351.897 383.862 338.69 382.305 325.612 379.956C273.594 371.736 317.2 379.014 259.762 369.268C234.138 364.918 233.626 365.542 227.386 362.132C223.711 360.347 220.525 357.694 218.104 354.403C215.683 351.111 214.1 347.28 213.49 343.24C213.158 341.04 213.258 350.774 213.258 208.052C213.048 208.042 212.868 208.042 212.676 208.028ZM385.326 201.344C385.249 201.346 385.171 201.342 385.094 201.332C385.274 188.814 385.624 176.308 385.596 163.79C385.374 59.8699 388.23 111.79 385.546 34.7339C385.521 32.6268 384.952 30.5619 383.894 28.7396C382.836 26.9173 381.324 25.3997 379.506 24.3339C371.815 19.353 362.563 17.3688 353.506 18.7579C337.994 20.5579 317.452 24.5679 295.332 28.3579C254.354 35.3939 249.774 35.0359 240.676 38.2359C230.276 41.8919 227.23 43.2359 221.576 54.9779C216.478 65.5779 217.762 75.0859 217.326 102.282C214.766 262.282 215.678 148.034 214.982 338.656C214.832 342.113 215.524 345.555 217.001 348.685C218.477 351.815 220.693 354.539 223.456 356.622C228.378 360.57 234.317 363.044 240.586 363.756C270.038 366.882 249.828 365.294 332.786 377.574C343.648 379.439 354.616 380.618 365.626 381.104C373.58 381.272 379.55 375.814 380.116 370.452C381.75 354.962 380.728 346.71 380.824 332.384C380.876 325.654 379.908 360.058 385.326 201.344Z" fill="#191919"/>
<path d="M32.6003 347.362C31.7243 335.884 30.5123 309.318 28.8523 284.128C26.3123 245.574 27.1043 227.6 25.6523 106.21C25.3743 83.2199 27.2303 65.4859 27.6343 58.5339C52.4083 63.9339 95.2863 66.4279 170.234 75.1339C173.094 75.4659 173.018 75.5459 173.184 78.4699C175.822 124.934 175.184 171.454 175.708 217.958C176.068 249.8 176.57 323.446 176.57 327.942C151.73 331.218 156.236 330.28 127.57 333.48C43.7183 342.838 40.8183 347.82 32.6003 347.362ZM165.4 236.42L165.09 232.208C167.924 233.122 170.744 234.018 173.706 234.97C173.706 234.77 172.948 118.292 171.336 79.2419C171.286 77.9939 170.912 77.5919 169.702 77.4779C118.702 72.6779 59.3783 67.5419 30.2903 61.4179C30.0903 62.2419 29.1083 89.1819 29.1183 99.9259C29.1343 117.556 30.4443 145.4 30.4443 253.126C31.3663 253.39 30.4443 253.458 34.5783 250.974C38.4963 248.62 42.4283 246.294 46.3443 243.95C49.0103 244.568 51.6683 245.166 54.3443 245.784C46.5511 248.827 39.1082 252.7 32.1443 257.336C31.7377 257.543 31.4077 257.874 31.202 258.281C30.9963 258.688 30.9256 259.15 31.0003 259.6C31.4743 267.52 31.8383 275.442 32.2763 283.348C35.9903 350.382 35.3543 336.134 35.3543 343.904C118.378 329.254 115.112 332.408 174.314 325.732C174.314 289.224 174.552 318.066 173.786 240.45C173.776 239.42 173.646 238.772 172.446 238.48C170.076 237.898 167.742 237.128 165.4 236.42Z" fill="#191919"/>
<path d="M90.6503 359.61C86.8503 357.492 87.6503 348.43 96.5623 347.684C103.22 347.128 109.892 346.668 116.562 346.164C123.422 345.648 124.516 352.95 119.654 356.146C114.792 359.342 94.4543 361.726 90.6503 359.61ZM101.018 358.104C106.832 357.32 113.736 356.772 119.048 354.574C119.594 354.395 120.085 354.081 120.476 353.661C120.867 353.241 121.145 352.728 121.285 352.172C121.425 351.615 121.421 351.032 121.275 350.477C121.129 349.922 120.844 349.413 120.448 348.998C118.544 347.058 117.748 347.692 96.4483 349.334C90.2063 349.814 87.8163 357.694 94.0283 358.09C96.0863 358.222 98.1463 358.104 101.018 358.104Z" fill="#191919"/>
<path d="M97.3203 47.3419C97.3203 46.9419 97.3483 40.9779 103.304 40.9779C111.834 40.9779 114.276 56.6019 105.378 56.6019C103.6 56.5999 97.3203 56.0959 97.3203 47.3419ZM104.014 42.9179C102.708 43.0457 101.495 43.6522 100.609 44.6207C99.7225 45.5892 99.2258 46.8512 99.2143 48.1639C99.2143 48.3079 99.3383 54.8879 105.122 54.8879C112.172 54.8879 109.888 42.9179 104.014 42.9179Z" fill="#191919"/>
<path d="M367.438 347.336C366.495 347.405 365.547 347.397 364.604 347.312C347.204 344.298 329.884 340.834 312.404 338.36C287.852 334.884 273.994 334.36 226.966 328.38C223.528 327.942 223.544 327.826 223.554 324.336C223.738 255.272 225.314 77.812 227.34 75.536C227.94 74.866 229.556 75.112 230.728 74.982C295.488 67.762 299.636 68.09 351.412 62.09C357.182 61.422 362.902 60.29 368.632 59.346C369.868 59.146 371.078 58.806 372.47 58.496C372.572 59.94 372.636 61.096 372.752 62.244C375.74 91.762 373.866 121.318 373.628 150.862C373.028 225.062 374.576 233.702 370.396 297.704C368.958 319.8 368.082 342.502 367.438 347.336ZM227.038 255.736C226.454 256.421 226.118 257.283 226.084 258.182C226.072 261.138 225.636 319.006 225.788 322.008C232.6 315.286 238.988 308.538 247.32 304.068C244.576 298.986 241.488 294.834 244.088 283.36C250.336 255.788 264.666 231.36 264.012 231.034C264.01 231.442 246.382 234.216 227.036 255.732L227.038 255.736ZM295.384 152.536C294.958 152.275 294.46 152.154 293.961 152.19C293.463 152.226 292.987 152.417 292.602 152.736C289.904 154.522 287.144 154.706 285.378 152.84C284.78 152.274 284.056 151.859 283.265 151.631C282.474 151.402 281.64 151.366 280.832 151.526C281.832 154.526 281.014 155.716 277.818 156.034C277.568 156.111 277.338 156.242 277.144 156.418C276.951 156.594 276.799 156.81 276.698 157.052C275.912 159.052 274.882 161.222 272.588 161.052C270.946 161.006 269.353 161.613 268.158 162.74C267.668 163.086 267.012 163.204 266.51 163.54C266.162 163.772 265.71 164.236 265.724 164.57C266.566 182.214 265.232 195.17 276.31 202.254C279.425 204.036 282.652 205.614 285.97 206.98C287.102 207.51 288.074 208.112 288.056 209.53C288.006 213.638 287.962 217.76 287.798 221.868C287.674 225.022 279.128 227.086 276.762 227.83C279.562 229.492 281.44 232.364 290.824 232.63C296.402 232.764 301.95 231.765 307.13 229.694C309.822 228.638 312.384 227.26 314.998 226.022C314.818 225.362 306.662 223.194 306.46 223.138C305.929 223.025 305.46 222.714 305.15 222.268C304.839 221.823 304.709 221.276 304.786 220.738C304.932 207.354 304.814 211.826 305.03 207.938C298.706 210.064 297.63 210.18 296.182 208.738C296.982 208.302 297.702 207.852 298.474 207.516C300.274 206.734 302.106 206.084 303.858 205.224C314.5 200 317.614 193.348 320.258 181.694C322.396 182.724 324.366 183.716 326.544 182.324C326.444 182.194 326.361 182.052 326.298 181.9C325.088 179.75 326.498 179.544 327.856 180.136C328.532 180.226 328.81 181.388 330.136 180.316C335.994 175.58 330.06 167.266 324.366 170.748C324.009 170.985 323.606 171.145 323.183 171.218C322.76 171.291 322.327 171.275 321.911 171.172C321.494 171.069 321.104 170.881 320.764 170.619C320.424 170.358 320.142 170.028 319.936 169.652C319.554 168.769 319.277 167.844 319.112 166.896C315.288 167.308 314.438 166.432 313.712 161.05C311.452 161.05 309.14 161.168 307.182 159.13C304.942 156.796 305.382 154.33 305.65 151.494C302.568 153.646 299.73 154.814 295.382 152.534L295.384 152.536ZM369.82 61.302C367.31 61.902 364.99 62.666 362.62 62.99C319.636 68.864 342.778 66.224 230.768 77.414C229.368 77.554 228.784 77.89 228.746 79.5C228.45 91.748 227.868 103.996 227.702 116.256C227.702 116.456 225.968 250.168 226.222 251.944C227.258 252.52 235.36 238.448 257.864 229.858C274.162 223.636 276.908 226.126 284.51 221.436C284.726 221.256 284.902 221.032 285.024 220.779C285.146 220.526 285.212 220.249 285.218 219.968C285.218 217.03 284.948 214.094 285.09 211.168C285.168 209.568 284.536 209.07 283.236 208.552C278.906 207.195 274.887 204.993 271.412 202.074C271.196 201.932 270.954 201.835 270.7 201.789C270.446 201.742 270.185 201.748 269.932 201.804C267.96 202.055 265.956 201.779 264.125 201.003C262.295 200.227 260.703 198.979 259.512 197.386C257.774 194.81 257.084 191.667 257.583 188.6C258.083 185.532 259.734 182.771 262.2 180.88C262.667 180.418 262.943 179.798 262.974 179.142C263.078 174.26 263.096 169.366 263.09 164.486C263.087 164.237 263.031 163.992 262.928 163.766C262.825 163.54 262.676 163.338 262.49 163.172C258.462 160.344 260.864 157.954 260.69 155.884C260.438 154.271 260.274 152.645 260.2 151.014C260.155 146.711 261.042 142.449 262.8 138.522C261.683 138.526 260.598 138.144 259.729 137.44C258.861 136.736 258.262 135.754 258.034 134.66C257.568 132.032 259.658 130.808 261.408 129.534C258.06 123.12 260.186 118.664 264.242 117.158C263.724 115.315 263.692 113.369 264.147 111.51C264.603 109.651 265.531 107.941 266.842 106.546C267.918 104.959 269.459 103.744 271.253 103.068C273.047 102.392 275.007 102.289 276.862 102.772C278.262 97.452 282.284 95.52 286.972 94.902C289.258 94.7022 291.559 94.9912 293.724 95.7499C295.889 96.5085 297.868 97.7194 299.528 99.302C302.592 95.702 305.282 95.274 309.226 97.652C312.041 99.1825 314.286 101.582 315.626 104.492C319.206 102.264 322.226 102.72 325.4 105.92C327.318 107.895 328.528 110.449 328.84 113.184C329.24 116.068 327.604 118.156 325.672 120.332C326.921 119.921 328.266 119.907 329.523 120.292C330.78 120.677 331.886 121.442 332.69 122.482C333.563 123.442 334.05 124.691 334.06 125.988C334.07 127.285 333.601 128.541 332.742 129.514C333.717 129.947 334.585 130.589 335.284 131.395C335.983 132.201 336.496 133.151 336.786 134.178C337.076 135.204 337.137 136.282 336.963 137.335C336.79 138.387 336.387 139.389 335.782 140.268C336.721 141.003 337.422 141.999 337.795 143.131C338.169 144.263 338.198 145.481 337.88 146.63C337.592 147.739 336.904 148.702 335.948 149.334C334.993 149.967 333.838 150.224 332.704 150.056C332.704 157.218 329.08 157.774 329.304 158.856C329.89 161.943 329.568 165.133 328.376 168.04C335.832 169.882 337.004 176.54 331.042 182.824C332.165 184.44 332.867 186.31 333.085 188.266C333.302 190.221 333.03 192.2 332.29 194.024C331.69 196.018 330.38 197.724 328.607 198.818C326.834 199.911 324.722 200.318 322.67 199.96C320.761 199.376 318.907 198.621 317.132 197.706C314.666 201.085 311.565 203.95 308.002 206.142C307.002 206.742 307.418 208.234 307.526 218.004C307.552 220.438 307.5 220.516 309.926 221.082C333.546 226.596 341.818 226.754 369.774 243.208C369.774 229.298 370.28 156.008 370.662 124.57C371.076 91.282 371.442 94.726 369.82 61.302ZM342.6 233.6C339.766 232.378 345.15 234.148 322.188 227.444C316.67 225.832 320.388 228.02 310.61 232.222C303.095 235.724 294.727 236.981 286.514 235.84C274.664 233.956 274.684 228.098 272.888 228.384C270.008 228.842 267.43 229.556 266.114 232.736C261.872 242.992 252.514 260.664 247.184 284.47C246.424 287.23 246.23 290.115 246.612 292.952C246.995 295.79 247.948 298.52 249.412 300.98C255.336 310.662 255.678 315.074 257.448 327.896C257.922 331.34 257.2 326.13 344.134 340.054C348.448 327.854 351.1 315.34 354.552 303.144C350.539 301.347 346.893 298.823 343.798 295.7C333.942 285.406 332.818 269.808 334.242 255.7C334.787 247.67 337.695 239.981 342.6 233.6ZM353.948 299.422C352.012 295.962 351.232 295.022 350.366 293.266C350.146 292.816 350.482 292.094 350.566 291.49C351.12 291.618 351.816 291.578 352.214 291.902C352.983 292.51 353.641 293.246 354.16 294.078C364.56 311.452 362.664 308.598 365.672 314.928C366.084 312.416 365.23 321.354 369.574 248.874C369.626 248.446 369.545 248.013 369.342 247.633C369.14 247.253 368.826 246.944 368.442 246.748C361.628 242.424 354.494 238.627 347.102 235.39C346.696 235.136 346.206 235.05 345.737 235.151C345.268 235.252 344.857 235.531 344.59 235.93C337.484 243.774 336.66 258.752 337.21 269.364C337.338 277.127 339.733 284.683 344.1 291.102C346.379 294.882 349.837 297.807 353.942 299.428L353.948 299.422ZM364.52 343.906C365.342 324.008 365.488 324.426 364.972 323.028C362.911 316.835 360.308 310.837 357.192 305.102C354.282 317.362 351.792 329.25 347.224 340.634C352.962 341.734 358.654 342.8 364.514 343.912L364.52 343.906ZM254.666 328.966C253.404 321.122 253.066 313.318 248.652 306.566C240.721 312.215 233.42 318.7 226.874 325.91C236.32 326.95 245.426 327.954 254.66 328.972L254.666 328.966ZM318.788 135.49C318.329 136.152 317.778 136.746 317.152 137.254C316.688 137.516 316.32 137.92 316.103 138.408C315.887 138.895 315.834 139.44 315.952 139.96C316.14 142.296 315.424 144.615 313.952 146.438C313.278 147.154 312.542 147.808 311.752 148.394C318.398 153.212 323.486 158.852 325.952 166.876C326.235 166.224 326.48 165.556 326.686 164.876C327.163 163.055 327.256 161.154 326.959 159.294C326.662 157.435 325.981 155.658 324.96 154.076C324.635 153.497 324.351 152.895 324.11 152.276C326.674 152.418 327.176 154.608 328.45 155.998C330.64 152.328 330.894 149.798 329.05 146.828C326.826 143.284 324.374 138.2 318.782 135.496L318.788 135.49ZM296.4 150.874C297.416 150.964 298.37 151.13 299.31 151.13C300.227 151.201 301.147 151.06 302 150.716C302.852 150.372 303.613 149.835 304.223 149.148C304.834 148.46 305.276 147.641 305.516 146.753C305.757 145.866 305.788 144.935 305.608 144.034C304.976 139.234 302.838 134.75 298.24 133.114C293.642 131.478 291.064 132.482 291.3 138.034C291.323 139.015 291.584 139.976 292.06 140.834C296.012 147.376 298.494 147.186 296.4 150.874ZM310.926 122.372L311.236 121.948C303.324 115.422 287.902 113.608 286.366 122.548C286.215 123.769 286.189 125.003 286.29 126.23C286.346 127.648 289.11 128.998 290.178 128.086C295.332 123.686 301.49 125.046 302.542 124.338C305.036 122.757 307.99 122.065 310.926 122.372ZM291.712 129.314C292.678 130.692 292.69 130.784 294.288 130.474C300.728 129.222 309.05 137.152 307.848 147.332C308.895 146.916 309.844 146.286 310.634 145.483C311.425 144.68 312.039 143.72 312.437 142.667C312.836 141.613 313.011 140.487 312.95 139.362C312.89 138.237 312.596 137.137 312.086 136.132C308.496 127.94 300.534 125.052 291.712 129.314ZM272.148 138.96C271.897 140.159 271.921 141.399 272.218 142.588C272.516 143.776 273.078 144.881 273.864 145.821C274.65 146.761 275.639 147.51 276.756 148.012C277.873 148.515 279.09 148.757 280.314 148.722C284.656 148.922 287.652 149 290.476 145.722C290.747 145.406 290.943 145.033 291.049 144.631C291.154 144.229 291.167 143.808 291.087 143.399C291.006 142.991 290.834 142.607 290.583 142.275C290.332 141.943 290.009 141.673 289.638 141.484C288.122 140.776 286.478 140.38 284.806 140.321C283.133 140.262 281.465 140.539 279.902 141.138C279.251 141.512 278.481 141.623 277.751 141.448C277.021 141.272 276.385 140.825 275.974 140.196C275.174 139.284 274.446 139.4 272.148 138.96ZM321.748 185.672C321.166 189.146 320.126 192.528 318.656 195.73C323.68 198.356 327.798 196.99 329.578 192.13C329.971 191.008 330.115 189.814 329.999 188.631C329.883 187.448 329.511 186.305 328.908 185.28C328.726 185.084 328.501 184.934 328.251 184.84C328.001 184.746 327.732 184.711 327.466 184.738C325.632 184.954 323.818 185.324 321.758 185.672H321.748ZM284.5 127.55C283.891 125.915 283.669 124.161 283.852 122.426C284.035 120.691 284.619 119.022 285.556 117.55C281.881 118.798 278.587 120.967 275.986 123.848C274.753 125.058 273.818 126.539 273.255 128.173C272.692 129.806 272.516 131.549 272.742 133.262C272.75 133.988 272.921 134.702 273.242 135.353C273.562 136.004 274.025 136.574 274.596 137.022C274.97 131.762 276.902 128.116 284.5 127.55ZM289.316 138.496C289.107 137.229 289.19 135.932 289.558 134.702C289.927 133.472 290.571 132.343 291.442 131.4C288.992 130.259 286.259 129.865 283.586 130.268C282.08 130.443 280.63 130.944 279.336 131.736C276.97 133.554 276.708 136.41 278.176 139.708C281.512 136.268 285.362 137.3 289.316 138.496ZM271.116 146.378C271.052 146.238 270.858 145.876 270.69 145.502C270.08 144.422 269.74 143.21 269.7 141.97C269.66 140.731 269.92 139.499 270.458 138.382C270.735 137.952 270.857 137.441 270.806 136.933C270.755 136.424 270.533 135.948 270.176 135.582C269.731 136.01 269.228 136.374 268.682 136.664C267.128 137.229 265.784 138.258 264.835 139.613C263.886 140.968 263.376 142.582 263.376 144.236C263.098 147.004 262.834 149.76 262.526 152.762C265.62 150.462 268.312 148.452 271.106 146.378H271.116ZM263.338 182.876C260.092 186.778 259.438 190.706 261.43 194.816C262.83 197.686 265.5 198.588 268.81 198.95C264.898 194.172 264.4 188.518 263.328 182.876H263.338ZM315.238 135.664C316.17 134.641 316.707 133.32 316.754 131.937C316.801 130.555 316.356 129.2 315.496 128.116C314.395 126.7 312.855 125.69 311.118 125.242C309.381 124.795 307.545 124.936 305.896 125.644C308.039 126.612 309.967 127.996 311.569 129.716C313.171 131.437 314.415 133.458 315.228 135.664H315.238ZM286.438 151.286C288.027 151.594 289.672 151.397 291.143 150.722C292.613 150.047 293.836 148.929 294.638 147.524C294.072 146.924 293.506 146.302 292.888 145.644C291.672 148.556 290.888 149.238 286.432 151.286H286.438Z" fill="#191919"/>
<path d="M305.646 360.666C294.622 359.038 280.924 360.094 277.88 353.054C277.513 352.338 277.336 351.539 277.367 350.735C277.399 349.931 277.637 349.149 278.06 348.464C278.482 347.779 279.074 347.214 279.778 346.825C280.483 346.436 281.275 346.235 282.08 346.242C285.134 346.212 282.154 346.298 303.162 347.642C312.348 348.232 313.362 357.258 309.512 359.542C308.281 360.091 306.98 360.469 305.646 360.666ZM283.958 347.698C277.898 347.318 277.512 352.618 280.688 354.408C281.683 354.934 282.738 355.337 283.83 355.608C291.104 357.478 298.603 358.323 306.11 358.12C309.934 358.082 309.888 355.496 309.2 353.02C308.874 351.846 307.2 349.586 302.98 349.246C285.852 347.866 284.934 347.878 283.958 347.698Z" fill="#191919"/>
<path d="M296.76 40.916C300.022 40.916 303.144 43.538 302.8 46.516C302.6 57.04 295.46 56.662 295.2 56.662C293.836 56.662 289.152 56.61 289.152 50.096C289.15 44.576 293.33 40.916 296.76 40.916ZM295.008 54.902C299.724 54.902 300.832 50.502 300.832 48.142C300.885 46.8274 300.42 45.5445 299.536 44.5697C298.653 43.5949 297.422 43.006 296.108 42.93C290.082 42.93 288.074 54.902 295 54.902H295.008Z" fill="#191919"/>
<path d="M63.8763 71.476C60.9843 70.724 39.4203 68.84 39.2003 68.824C38.0283 68.734 38.3303 74.144 38.3123 105.72C38.3123 108.206 38.2983 108.282 40.7323 108.232C48.3963 108.074 56.0583 107.87 63.7323 107.678C65.7923 107.626 66.0983 107.408 66.1143 105.386C66.193 95.0966 66.253 84.8066 66.2943 74.516C66.2943 72.25 66.0803 72.05 63.8763 71.476ZM41.2483 106.506C41.2483 98.216 40.2783 97.96 45.0983 94.646C45.5326 94.3846 45.9949 94.1726 46.4763 94.014C46.5581 93.9798 46.6492 93.9753 46.7339 94.0013C46.8186 94.0272 46.8916 94.0819 46.9403 94.156C47.532 95.1975 47.8345 96.3782 47.8165 97.5759C47.7986 98.7735 47.4609 99.9447 46.8383 100.968C46.4663 101.424 45.2843 101.626 45.5243 101.626C45.6003 101.214 45.6923 100.802 45.7683 100.39C45.3683 100.504 44.7683 100.504 44.6103 100.776C43.7643 102.278 41.6223 106.108 41.2483 106.506ZM45.7823 106.198C44.764 106.309 43.7407 106.369 42.7163 106.378C43.1517 105.4 43.6731 104.463 44.2743 103.578C44.2743 103.578 45.8203 106.12 45.7823 106.2V106.198ZM57.4883 105.038C57.3563 105.414 57.9803 105.076 46.5923 105.798C46.5122 105.803 46.4324 105.783 46.3653 105.739C46.2981 105.694 46.2472 105.63 46.2203 105.554C45.8203 104.382 45.6543 104.216 45.9363 103.996C49.8063 100.966 50.3923 98.56 48.5763 92.796C49.3763 92.596 49.7763 92.262 50.4563 92.596C52.6923 93.672 55.0923 94.166 57.1023 92.364C57.3983 93.06 57.6583 93.564 57.8363 94.128C58.2363 95.35 58.4743 96.616 58.9443 97.812C59.3375 98.6514 59.4857 99.5848 59.3718 100.505C59.2578 101.425 58.8864 102.294 58.3003 103.012C57.9294 103.643 57.6557 104.326 57.4883 105.038ZM48.4483 83.324C48.6264 83.2387 48.8261 83.2092 49.0212 83.2392C49.2164 83.2691 49.398 83.3572 49.5423 83.492C49.718 83.6886 49.9362 83.8427 50.1803 83.9425C50.4244 84.0422 50.6881 84.0851 50.9512 84.0677C51.2143 84.0504 51.4701 83.9733 51.699 83.8423C51.9279 83.7114 52.124 83.53 52.2723 83.312C52.7403 82.512 53.8723 82.112 54.6723 81.548C55.0983 81.998 55.3683 82.548 55.7683 82.656C56.2289 82.7076 56.653 82.9311 56.956 83.2819C57.2589 83.6326 57.4183 84.0848 57.4023 84.548C57.4843 86.016 57.8403 87.444 56.4023 88.258C55.1523 88.964 54.8023 89.52 55.2443 91.458C55.8443 94.124 51.9583 92.36 51.9583 92.36C51.6383 92.386 51.7783 90.028 51.7783 90.028C51.817 89.9026 51.8303 89.7708 51.8172 89.6403C51.8042 89.5097 51.7651 89.3832 51.7023 89.268C51.1583 88.588 51.3643 88.832 50.7363 88.058C50.3277 87.2896 50.0204 86.4714 49.8223 85.624C49.7303 85.424 48.5583 85.29 48.2883 84.864C47.9043 84.254 48.0863 83.364 48.4483 83.324ZM47.9203 82.41C47.8695 81.7633 47.8521 81.1144 47.8683 80.466C48.6722 80.7159 49.5254 80.7632 50.352 80.6037C51.1786 80.4442 51.953 80.083 52.6063 79.552C52.9401 79.2487 53.3679 79.0691 53.8182 79.0433C54.2685 79.0174 54.714 79.1469 55.0803 79.41C56.0483 80.01 57.2683 79.31 57.9903 79.41C58.8523 79.53 58.3243 81.574 58.2743 81.534C57.4929 81.0662 56.5579 80.9274 55.6743 81.148C55.254 81.3383 54.7982 81.4379 54.3368 81.4404C53.8754 81.4428 53.4186 81.3479 52.9963 81.162C52.8783 81.096 48.0603 82.488 47.9203 82.41ZM62.0003 105.67L59.6003 105.45C59.5434 105.444 59.4885 105.425 59.4397 105.395C59.391 105.365 59.3496 105.325 59.3187 105.276C59.2878 105.228 59.2681 105.174 59.2611 105.117C59.2541 105.06 59.26 105.002 59.2783 104.948L59.9223 103.158C59.9445 103.097 59.9818 103.043 60.0309 103.001C60.0799 102.959 60.139 102.93 60.2024 102.917C60.2659 102.904 60.3315 102.908 60.3931 102.927C60.4547 102.947 60.5102 102.983 60.5543 103.03L62.3063 105.03C62.3591 105.086 62.3938 105.156 62.4057 105.232C62.4176 105.308 62.4063 105.386 62.3731 105.455C62.34 105.524 62.2866 105.582 62.2201 105.62C62.1535 105.659 62.0769 105.676 62.0003 105.67ZM63.3403 103.57C62.2063 102.462 60.8883 101.948 61.0483 99.952C60.8848 98.4298 60.4578 96.9477 59.7863 95.572C59.6063 94.992 59.4383 94.414 59.1863 93.572C63.9683 95.616 63.3483 98.244 63.3483 103.57H63.3403ZM63.8683 76.318C63.8263 78.332 63.5203 91.774 63.3143 94.568C59.2123 90.316 55.5003 91.258 55.5603 90.306C55.5965 89.9847 55.7538 89.6893 56.0003 89.48C56.3482 89.2066 56.7144 88.9573 57.0963 88.734C57.3528 88.585 57.577 88.3864 57.7559 88.1498C57.9348 87.9132 58.0648 87.6433 58.1383 87.356C58.2626 86.3207 58.216 85.2721 58.0003 84.252C57.8163 83.338 58.2403 83.652 58.4903 82.784C58.8311 81.5603 58.8649 80.2714 58.5886 79.0316C58.3123 77.7917 57.7345 76.6392 56.9063 75.676C56.2743 74.954 55.4763 76.076 55.1543 75.476C55.0421 75.2106 54.859 74.9812 54.6251 74.8129C54.3913 74.6447 54.1156 74.544 53.8283 74.522C51.9983 74.67 52.3843 75.176 51.5103 75.36C50.7883 75.512 50.0643 74.88 49.4883 75.308C48.8023 75.818 48.8743 77.062 48.4703 77.742C47.0363 80.162 47.5063 80.492 47.4923 81.342C47.5009 81.9566 47.6414 82.5623 47.9043 83.118C48.0383 83.416 46.9203 84.706 48.9723 85.798C49.5123 86.084 49.4663 87.288 49.7723 87.798C50.1925 88.3478 50.6488 88.8689 51.1383 89.358C51.5603 89.926 51.1003 90.67 50.9963 91.032C47.5942 91.5651 44.3946 92.9916 41.7243 95.166C41.4783 95.384 41.3383 71.79 41.3383 71.79C41.3367 71.7361 41.3471 71.6826 41.3686 71.6332C41.3901 71.5838 41.4223 71.5397 41.4628 71.5042C41.5033 71.4687 41.5511 71.4425 41.6029 71.4276C41.6547 71.4127 41.7091 71.4094 41.7623 71.418C63.8003 74.8 63.9703 71.766 63.8763 76.318H63.8683Z" fill="#191919"/>
<path d="M154.696 117.454C153.33 119.114 151.812 120.634 150.318 122.192C149.118 123.442 147.918 122.412 148.862 121.072C150.403 119.02 152.081 117.076 153.884 115.252C154.528 114.35 158.276 112.2 154.696 117.454Z" fill="#191919"/>
<path d="M157.232 136.694C155.693 136.623 154.163 136.416 152.66 136.076C151.772 135.83 150.704 134.04 152.906 134.04C154.554 134.068 156.196 134.245 157.812 134.568C162.32 134.826 161.172 137.058 157.232 136.694Z" fill="#191919"/>
<path d="M157.04 127.318C155.136 127.64 153.268 128.149 151.464 128.838C150.704 129.238 149.794 128.328 150.614 127.438C150.837 127.159 151.131 126.945 151.464 126.818C153.332 126.362 155.252 126.104 157.104 125.556C160.39 124.6 159.564 127.086 157.04 127.318Z" fill="#191919"/>
<path d="M146.904 312.062C146.536 321.99 139.158 325.776 134.012 321.662C131.437 319.296 129.901 316.009 129.74 312.516C129.578 309.022 130.804 305.607 133.15 303.014C138.574 297.816 146.534 302.514 146.904 312.062ZM136.124 312.076C136.022 312.036 135.906 311.998 135.802 311.96C135.918 311.432 135.97 310.464 136.138 310.44C137.424 310.226 138.73 310.174 140.028 310.284C141.186 310.414 140.93 311.484 140.838 312.284C140.568 314.642 142.752 313.864 143.916 313.802C144.972 313.748 145.274 313.184 144.986 312.244C144.314 310.044 143.158 308.22 140.696 307.918C138.973 307.705 137.231 307.697 135.506 307.892C134.576 308.02 133.717 308.463 133.073 309.147C132.428 309.831 132.038 310.715 131.966 311.652C131.838 312.31 132.068 313.596 132.39 313.686C133.376 313.934 134.409 313.926 135.39 313.662C135.738 313.6 135.88 312.642 136.124 312.076Z" fill="#38A1FF"/>
<path d="M77.7844 331.162C74.0931 330.993 70.6101 329.404 68.0642 326.726C65.5183 324.048 64.1068 320.489 64.1252 316.794C64.1435 313.099 65.5903 309.554 68.1626 306.901C70.735 304.249 74.2336 302.694 77.9264 302.562C79.7804 302.625 81.6038 303.053 83.2914 303.824C84.979 304.594 86.4974 305.691 87.7592 307.051C89.021 308.411 90.0011 310.007 90.6432 311.748C91.2853 313.488 91.5766 315.338 91.5004 317.192C91.5276 320.861 90.0993 324.392 87.5285 327.011C84.9576 329.629 81.4537 331.122 77.7844 331.162ZM89.3844 317.072C89.3172 314.825 88.5903 312.646 87.2941 310.809C85.9979 308.972 84.1898 307.557 82.095 306.739C80.0003 305.922 77.7114 305.74 75.5135 306.214C73.3157 306.689 71.306 307.799 69.7348 309.408C68.1637 311.016 67.1005 313.052 66.6778 315.26C66.2551 317.468 66.4914 319.752 67.3575 321.827C68.2235 323.902 69.6809 325.677 71.5482 326.929C73.4154 328.182 75.6099 328.858 77.8584 328.872C79.3898 328.855 80.9029 328.536 82.3109 327.933C83.7189 327.331 84.9944 326.456 86.0641 325.36C87.1339 324.264 87.9771 322.968 88.5455 321.546C89.1138 320.124 89.3962 318.603 89.3764 317.072H89.3844Z" fill="#191919"/>
<path d="M122.846 314.212C122.47 324.926 112.222 329.878 105.55 323.678C103.048 321.191 101.552 317.868 101.348 314.346C101.144 310.825 102.246 307.351 104.444 304.592C105.445 303.352 106.733 302.375 108.196 301.746C109.66 301.116 111.254 300.853 112.843 300.978C114.431 301.104 115.964 301.615 117.311 302.467C118.657 303.319 119.775 304.486 120.568 305.868C122.147 308.358 122.94 311.265 122.846 314.212ZM121.224 314.316C121.268 304.116 112.054 299.916 106.35 305.584C104.432 307.689 103.331 310.411 103.246 313.258C103.161 316.105 104.097 318.888 105.886 321.104C106.653 322.11 107.645 322.922 108.782 323.475C109.92 324.028 111.172 324.306 112.437 324.286C113.701 324.267 114.944 323.951 116.064 323.363C117.184 322.776 118.151 321.933 118.886 320.904C120.355 319.017 121.175 316.707 121.224 314.316Z" fill="#191919"/>
<path d="M364.63 97.1999C364.588 99.2979 364.316 101.4 364.102 103.496C364.022 104.282 363.754 104.922 362.738 105.056C344.12 107.484 345.774 107.83 341.062 106.986C340.753 106.881 340.473 106.702 340.248 106.464C340.024 106.226 339.861 105.937 339.774 105.622C337.632 84.6219 338.134 90.8759 339.104 71.7899C339.081 71.2691 339.258 70.759 339.598 70.3639C339.938 69.9688 340.416 69.7184 340.934 69.6639C347.348 68.4339 353.734 67.0639 360.174 66.0199C364.204 65.3719 364.8 65.9679 364.9 70.0199C365.02 74.8119 364.714 92.9319 364.63 97.1999ZM360.8 88.1019C361.096 81.6899 361.38 75.3399 361.676 68.9019C355.076 69.8819 348.63 70.8339 341.96 71.8139V91.2599C342.564 90.7286 343.224 90.2664 343.93 89.8819C345.958 89.0419 345.746 90.7079 344.87 91.3239C342.9 92.7099 341.484 94.0679 342.01 96.9239C342.262 99.4451 342.293 101.983 342.1 104.51L360.994 101.766C360.994 98.2499 360.944 95.0299 361.02 91.8119C361.07 91.3318 360.965 90.8484 360.719 90.4331C360.473 90.0178 360.099 89.6927 359.654 89.5059C357.742 88.4719 357.654 87.7299 360.8 88.1019Z" fill="#191919"/>
<path d="M315.898 317.33C316 314.806 316.843 312.368 318.322 310.32C319.801 308.273 321.851 306.707 324.215 305.817C326.58 304.928 329.154 304.755 331.616 305.321C334.078 305.886 336.318 307.164 338.058 308.996C339.798 310.827 340.959 313.13 341.397 315.618C341.835 318.106 341.53 320.668 340.521 322.983C339.511 325.299 337.842 327.265 335.721 328.637C333.6 330.009 331.122 330.726 328.596 330.698C326.884 330.655 325.197 330.276 323.632 329.581C322.067 328.886 320.655 327.889 319.475 326.647C318.296 325.405 317.373 323.943 316.759 322.345C316.145 320.746 315.853 319.042 315.898 317.33ZM338.126 317.69C337.722 316.376 336.955 315.203 335.914 314.305C334.873 313.408 333.599 312.822 332.24 312.616C329.706 312.242 327.151 312.031 324.59 311.984C323.445 311.943 322.314 312.25 321.346 312.864C320.378 313.478 319.619 314.37 319.168 315.424C317.842 318.224 318.914 318.5 321.616 318.862C324.192 319.208 324.352 319.106 324.32 316.492C324.304 315.192 324.874 314.614 326.034 314.728C327.746 314.898 329.446 315.2 331.146 315.54C332.036 315.718 332.164 316.364 331.958 317.214C331.358 319.688 331.53 319.944 334.044 320.162C337.242 320.442 339.252 320.482 338.126 317.69Z" fill="#38A1FF"/>
<path d="M289.304 304.464C290.396 303.733 291.622 303.226 292.911 302.973C294.201 302.719 295.527 302.723 296.815 302.985C298.102 303.248 299.325 303.763 300.412 304.5C301.499 305.238 302.429 306.184 303.148 307.284C304.951 309.912 305.776 313.088 305.482 316.262C305.188 319.435 303.793 322.406 301.538 324.658C300.427 325.798 299.059 326.655 297.548 327.157C296.037 327.658 294.427 327.79 292.855 327.54C291.282 327.29 289.793 326.666 288.512 325.721C287.231 324.776 286.195 323.537 285.492 322.108C283.826 319.218 283.294 315.812 283.998 312.551C284.703 309.291 286.594 306.408 289.304 304.464ZM296.128 304.954C294.576 304.63 292.964 304.769 291.49 305.353C290.016 305.936 288.746 306.94 287.836 308.238C286.247 310.19 285.363 312.621 285.327 315.138C285.291 317.655 286.104 320.111 287.636 322.108C288.297 323.032 289.141 323.809 290.116 324.392C291.091 324.975 292.175 325.349 293.302 325.493C294.428 325.637 295.573 325.547 296.663 325.228C297.753 324.909 298.765 324.368 299.636 323.64C306.124 318.328 304.4 306.688 296.128 304.954Z" fill="#191919"/>
<path d="M273.888 306.614C275.265 309.101 275.823 311.959 275.485 314.782C275.146 317.605 273.927 320.249 272 322.34C267.4 326.9 260.308 325.082 258.078 318.694C253.426 305.388 267.43 296.106 273.888 306.614ZM272.844 308.378C272.452 307.322 271.803 306.38 270.954 305.639C270.105 304.898 269.085 304.382 267.985 304.136C266.886 303.89 265.742 303.923 264.659 304.233C263.575 304.542 262.587 305.117 261.782 305.906C260.032 307.697 258.934 310.024 258.665 312.513C258.396 315.003 258.972 317.511 260.3 319.634C266.25 328.124 277.612 319.16 272.844 308.378Z" fill="#191919"/>
<path d="M290.836 167.912C290.965 171.103 290.745 174.299 290.178 177.442C289.332 183.358 285.214 186.03 290.154 187.938C291.97 188.64 292.716 190.38 290.514 190.694C289.706 190.745 288.897 190.615 288.146 190.313C287.395 190.011 286.721 189.545 286.174 188.948C285.627 188.352 285.22 187.64 284.984 186.866C284.747 186.092 284.687 185.274 284.808 184.474C284.921 183.706 285.169 182.964 285.542 182.284C287.742 178.684 287.388 174.63 288.724 165.258C288.818 164.6 290.184 159.528 290.836 167.912Z" fill="#191919"/>
<path d="M302.504 193.27C298.89 199.816 288.188 197.776 289.704 194.944C290.226 193.968 296.572 198.662 301.904 190.372C302.504 189.612 305.016 187.076 302.504 193.27Z" fill="#191919"/>
<path d="M307.59 162.412C307.668 162.636 307.655 162.882 307.556 163.098C307.456 163.313 307.277 163.482 307.056 163.568C306.835 163.655 306.589 163.653 306.369 163.562C306.15 163.471 305.974 163.299 305.878 163.082C303.942 161.35 301.946 158.424 299.232 159.746C297.586 160.546 296.812 158.896 298.486 158.086C302.6 156.088 306.728 159.492 307.59 162.412Z" fill="#191919"/>
<path d="M301.228 167.268C301.94 167.367 302.596 167.706 303.09 168.228C303.584 168.75 303.886 169.424 303.946 170.14C303.954 170.866 303.677 171.567 303.173 172.091C302.67 172.615 301.981 172.92 301.254 172.94C298.106 172.906 297.986 167.33 301.228 167.268Z" fill="#191919"/>
<path d="M284.344 159.102C282.487 159.254 280.759 160.113 279.516 161.502C278.536 163.614 277.728 162.314 278.086 160.588C278.642 157.91 283.198 156.234 285.736 157.304C287.4 157.48 288.62 159.682 284.344 159.102Z" fill="#191919"/>
<path d="M283.8 170.552C283.847 170.867 283.826 171.188 283.739 171.495C283.651 171.801 283.499 172.085 283.293 172.328C283.086 172.57 282.83 172.766 282.542 172.901C282.254 173.036 281.94 173.108 281.621 173.112C281.302 173.116 280.987 173.051 280.695 172.923C280.404 172.794 280.143 172.605 279.931 172.367C279.719 172.13 279.56 171.849 279.466 171.545C279.371 171.241 279.342 170.92 279.382 170.604C279.386 166.642 283.818 167 283.8 170.552Z" fill="#191919"/>
<path d="M112.326 190.938C110.653 191.234 108.929 191.022 107.377 190.329C105.825 189.636 104.517 188.494 103.62 187.05C102.031 184.948 100.967 182.498 100.516 179.902C99.7364 174.702 104.716 177.684 110.548 179.052C113.096 179.652 115.674 180.106 118.262 180.52C120.516 180.88 121.318 181.908 120.504 184.036C119.699 185.694 118.555 187.164 117.146 188.353C115.738 189.542 114.096 190.422 112.326 190.938ZM103.658 180.482C103.885 182.051 104.562 183.52 105.606 184.713C106.651 185.905 108.019 186.769 109.544 187.2C110.772 187.338 112.013 187.125 113.125 186.588C114.237 186.05 115.174 185.208 115.828 184.16C111.8 182.942 107.702 181.704 103.658 180.482Z" fill="#191919"/>
<path d="M119.872 174.376C117.644 175.814 115.77 175.042 117.672 172.484C118.42 171.389 118.892 170.13 119.046 168.813C119.201 167.497 119.034 166.162 118.56 164.924C115.776 155.524 112.36 145.524 112.186 144.356C112.122 143.944 112.352 143.21 112.636 143.094C112.872 143.044 113.117 143.055 113.347 143.127C113.577 143.199 113.785 143.33 113.95 143.506C116.929 150.173 119.533 157.001 121.75 163.958C122.556 165.675 122.808 167.6 122.471 169.466C122.135 171.333 121.226 173.048 119.872 174.376Z" fill="#191919"/>
<path d="M128.952 145.258C129.222 147.68 127.784 146.998 127.2 146.224C126.874 145.792 122.886 142.876 120.824 143.726C119.396 144.46 117.952 143.032 119.382 141.408C122.65 137.698 128.616 142.258 128.952 145.258Z" fill="#191919"/>
<path d="M103.468 159.45C101.48 159.45 100.48 157.32 100.48 155.85C100.48 154.204 101.032 151.826 102.718 151.826C107.288 151.834 107.8 159.45 103.468 159.45Z" fill="#191919"/>
<path d="M124.546 158.252C121.012 158.186 120.86 151.7 124.238 151.336C127.888 150.944 128.254 158.324 124.546 158.252Z" fill="#191919"/>
<path d="M103.76 143.366C102.544 143.394 101.355 143.733 100.307 144.35C99.259 144.968 98.3863 145.844 97.7724 146.894C96.6784 148.98 95.9724 146.636 96.0724 146.366C96.1991 145.142 96.7379 143.998 97.6004 143.12C98.5136 142.204 99.6606 141.557 100.916 141.248C102.172 140.939 103.489 140.981 104.722 141.368C106.98 141.858 106.928 143.352 103.76 143.366Z" fill="#191919"/>
<path d="M80.2581 321.218C77.5661 321.218 74.8581 321.236 72.1301 321.218C71.7809 321.251 71.4287 321.209 71.0965 321.097C70.7644 320.984 70.4596 320.803 70.202 320.565C69.9445 320.327 69.74 320.037 69.6018 319.715C69.4637 319.393 69.3949 319.045 69.4001 318.694C69.2821 317.266 69.2721 315.81 69.2721 314.38C69.2449 314.068 69.2836 313.753 69.3856 313.457C69.4876 313.16 69.6506 312.889 69.8642 312.659C70.0778 312.43 70.3371 312.248 70.6254 312.125C70.9138 312.002 71.2247 311.941 71.5381 311.946C74.3601 311.836 77.1801 311.908 80.2581 311.908V321.218Z" fill="#191919"/>
<path d="M86.0782 320.292C85.1262 319.776 84.2102 319.198 83.2322 318.784C82.7901 318.541 82.4162 318.19 82.1446 317.765C81.8731 317.339 81.7126 316.852 81.678 316.349C81.6434 315.845 81.7357 315.341 81.9464 314.883C82.1572 314.424 82.4796 314.026 82.8842 313.724C83.8842 313.138 84.8162 312.436 86.0842 311.572L86.0782 320.292Z" fill="#191919"/>
<path d="M113.948 318.514H115.57V320.6C113.78 320.678 112.004 320.756 110.136 320.846V318.876L112.312 318.63C111.836 317.91 111.526 317.406 111.192 316.904C108.306 312.576 108.792 313.904 109.592 312.152C109.966 312.474 110.558 312.72 110.688 313.118C111.032 314.176 111.498 315.102 112.71 315.118C113.998 315.144 114.31 314.098 114.628 313.07C114.756 312.67 115.228 312.388 115.556 312.07C116.324 313.484 116.902 312.544 114.616 316.576C114.308 317.118 113.894 317.606 113.534 318.122C113.664 318.256 113.8 318.386 113.948 318.514Z" fill="#191919"/>
<path d="M114.102 309.732C114.181 310.701 114.164 311.676 114.05 312.642C113.934 313.208 113.278 313.672 112.878 314.174C112.35 313.724 111.416 313.31 111.36 312.81C111.119 310.672 111.028 308.52 111.088 306.37C111.102 305.906 112.088 305.056 112.466 305.134C112.803 305.234 113.111 305.412 113.366 305.654C113.621 305.895 113.816 306.193 113.934 306.524C114.074 307.585 114.096 308.658 114 309.724L114.102 309.732Z" fill="#191919"/>
<path d="M346.96 89.828C345.602 88.99 346.858 84.936 347.076 81.162C347.402 75.536 354.212 74.562 355.434 78.482C356.32 81.312 357.174 84.152 357.92 87.022C357.984 87.3888 357.974 87.7647 357.89 88.1275C357.806 88.4903 357.651 88.8325 357.432 89.134C356.839 90.0495 355.997 90.7768 355.005 91.2306C354.013 91.6844 352.913 91.8458 351.832 91.696C350.131 91.2963 348.492 90.6679 346.96 89.828ZM351.8 79.2C349.632 79.048 349.294 81.178 349.636 83.372C349.836 84.622 350.436 85.666 351.826 85.794C352.826 85.884 353.806 84.518 353.938 83.114C354.114 81.13 353.8 79.344 351.8 79.2ZM351.234 89.464C350.034 88.33 349.082 87.416 347.976 86.36C347.772 88.348 348.918 89.468 351.224 89.468L351.234 89.464ZM356.294 88.588C356.094 88.37 355.864 88.138 355.658 87.918C355.058 88.518 354.472 89.104 353.894 89.696C354.06 89.876 354.228 90.07 354.408 90.25C355.016 89.7 355.654 89.146 356.284 88.6L356.294 88.588Z" fill="#38A1FF"/>
<path d="M296.876 322.352C294.918 322.184 293.102 322.03 291.276 321.862V319.906H293.542C293.104 319.132 292.824 318.616 292.542 318.09C290.228 313.822 290.684 315.056 291.486 313.454C291.82 313.814 292.348 314.124 292.486 314.548C293.074 316.48 294.228 317.194 295.512 316.21C295.912 315.902 296.05 315.254 296.4 314.844C296.763 314.492 297.16 314.177 297.586 313.904C298.198 315.652 299.076 314.446 294.648 319.956C295.706 320.124 296.258 320.214 297.006 320.33C296.954 320.948 296.914 321.58 296.876 322.352Z" fill="#191919"/>
<path d="M296.038 314.032C295.962 314.998 295.396 315.856 294.404 315.604C294.065 315.449 293.769 315.213 293.542 314.916C293.315 314.62 293.164 314.272 293.102 313.904C293.031 312.012 293.148 310.118 293.45 308.25C293.581 307.901 293.795 307.589 294.074 307.343C294.353 307.096 294.688 306.921 295.05 306.834C296.014 306.714 296.392 307.568 296.324 308.52C295.962 313.584 296.12 313.012 296.038 314.032Z" fill="#191919"/>
<path d="M267.744 309.4C267.564 312.04 267.41 314.372 267.254 316.8C265.374 316.66 263.636 316.542 261.91 316.4C261.676 316.4 261.445 316.351 261.231 316.256C261.017 316.161 260.826 316.022 260.669 315.849C260.513 315.675 260.394 315.47 260.322 315.248C260.249 315.026 260.224 314.791 260.248 314.558C260.142 308.566 260.218 309.4 267.744 309.4Z" fill="#191919"/>
<path d="M271.4 316.634C270.214 315.694 268.26 315.592 268.346 313.57C268.428 311.664 268.656 311.38 271.798 309.886C271.66 312.2 271.518 314.42 271.4 316.634Z" fill="#191919"/>
<path d="M351.224 89.468C348.918 89.468 347.772 88.348 347.966 86.364C349.072 87.42 350.026 88.322 351.224 89.468Z" fill="#191919"/>
<path d="M356.284 88.5999C355.654 89.1539 355.03 89.7079 354.398 90.2619C354.23 90.0819 354.064 89.8879 353.884 89.7079C354.484 89.1079 355.068 88.5239 355.648 87.9299C355.866 88.1419 356.066 88.3599 356.284 88.5999Z" fill="#191919"/>
<path d="M125.654 110.91C124.905 110.236 124.109 109.616 123.272 109.056C118.576 106.26 113.025 105.264 107.65 106.256C79.0121 111.256 63.8281 144.738 66.9021 172.028C67.5321 177.628 69.4301 170.314 69.9941 162.858C70.4169 154.26 72.4295 145.816 75.9301 137.952C80.6941 127.88 86.7601 118.888 97.0761 113.636C106.2 108.988 115.544 106.7 125.654 110.91ZM147.908 190.488C147.548 185.626 145.708 186.548 145.25 187.752C144.56 189.582 144.036 191.46 143.42 193.314C139.754 204.364 130.604 220.848 120.896 228.898C114.786 233.964 108.554 237.252 107.174 239.246C107.76 239.57 108.062 240.308 110.574 239.498C117.64 237.141 123.943 232.927 128.822 227.298C135.396 219.768 140.734 211.244 144.638 202.042C146.561 198.476 147.677 194.532 147.908 190.488ZM115.8 247.154C115.838 247.27 115.858 247.38 115.896 247.508C119.454 247.592 122.958 246.624 125.968 244.726C135.705 238.955 143.808 230.794 149.51 221.016C149.885 220.184 149.979 219.254 149.78 218.364C149.696 218.062 149.542 217.784 149.329 217.553C149.117 217.323 148.852 217.146 148.558 217.038C145.074 216.238 145.9 225.572 123.302 242.038C120.86 243.83 118.3 245.454 115.8 247.154ZM144.252 145.232C142.756 145.606 144.452 143.538 141.554 166.612C140.954 171.3 139.812 175.91 139.042 180.584C138.596 183.29 137.368 185.878 137.842 188.75C138.062 190.076 138.55 190.038 139.452 189.484C140.185 188.956 140.805 188.288 141.277 187.518C141.749 186.749 142.063 185.892 142.2 185C146.22 169.218 145.818 163.658 145.212 148.618C145.03 147.455 144.707 146.318 144.252 145.232ZM108.564 221.848C108.564 221.668 108.564 221.474 108.578 221.294C104.689 220.063 100.881 218.587 97.1781 216.876C90.6464 213.596 85.3728 208.261 82.1681 201.692C81.3461 199.94 80.9201 197.998 80.1261 196.218C79.2741 194.312 78.0841 194.104 77.3961 196.418C77.0125 198.137 77.2543 199.936 78.0781 201.492C81.0542 208.557 86.2306 214.474 92.8381 218.362C99.3101 222.324 104.114 222.738 108.564 221.848ZM81.1641 244.552C80.3278 243.514 79.3824 242.568 78.3441 241.732C73.5512 238.906 68.1591 237.251 62.6061 236.902C60.8697 236.766 59.1388 237.225 57.6981 238.204C55.2981 239.664 57.0981 241.092 58.5361 240.986C69.2761 240.182 79.5681 247.276 81.1721 244.552H81.1641Z" fill="#191919"/>
<path d="M144.212 128.568C147.598 137.684 146.826 143.18 147.484 144.82C150.636 152.682 151.126 165.896 150.8 173.6C150.384 183.246 154.4 179.842 155.564 194.682C156.015 200.485 155.439 206.322 153.864 211.926C153.482 214.35 153.414 216.813 153.664 219.254C153.664 220.228 155.242 221.122 159.808 226.042C161.468 227.842 162.356 229.042 165.1 232.204L165.41 236.416C165.02 237.012 164.662 237.629 164.34 238.264C162.688 242.431 160.254 246.243 157.168 249.494C153.243 253.281 148.835 256.533 144.058 259.166C131.184 266.472 120.342 263.324 116.948 263.996C110.688 265.234 101.666 269.582 89.736 265.902C77.112 262.006 72.874 253.168 68.628 249.802C64.504 246.534 59.484 245.85 54.37 245.784C51.704 245.184 49.02 244.568 46.354 243.95C50.342 238.184 54.232 240.962 57.166 232.816C61.566 220.616 56.194 216.744 53.882 166.942C53.2079 159.239 53.6152 151.48 55.092 143.89C58.636 128.86 66.244 116.56 79.702 108.408C101.822 95.01 134.922 103.556 144.212 128.568ZM134.322 163.224C133.408 153.758 133.174 146.74 128.938 141.588C124.885 136.401 120.287 131.665 115.222 127.46C113.46 126.06 110.022 127.476 108.036 128.516C99.9842 132.415 93.11 138.379 88.114 145.8C85.7481 148.934 84.1587 152.583 83.476 156.45C82.9996 160.225 82.8317 164.032 82.974 167.834C84.024 184.346 92.504 193.174 106.002 201.73C106.97 202.319 108.122 202.526 109.234 202.31C111.402 201.851 113.479 201.033 115.378 199.89C128.662 190.872 134.2 179.374 134.322 163.224ZM125.654 110.91C124.905 110.236 124.109 109.616 123.272 109.056C118.576 106.26 113.025 105.264 107.65 106.256C79.012 111.256 63.828 144.738 66.902 172.028C67.532 177.628 69.43 170.314 69.994 162.858C70.4168 154.26 72.4294 145.816 75.93 137.952C80.694 127.88 86.76 118.888 97.076 113.636C106.2 108.988 115.544 106.7 125.654 110.91ZM147.908 190.488C147.548 185.626 145.708 186.548 145.25 187.752C144.56 189.582 144.036 191.46 143.42 193.314C139.754 204.364 130.604 220.848 120.896 228.898C114.786 233.964 108.554 237.252 107.174 239.246C107.76 239.57 108.062 240.308 110.574 239.498C117.64 237.141 123.943 232.927 128.822 227.298C135.396 219.768 140.734 211.244 144.638 202.042C146.56 198.476 147.677 194.532 147.908 190.488ZM115.8 247.154C115.838 247.27 115.858 247.38 115.896 247.508C119.454 247.592 122.958 246.624 125.968 244.726C135.705 238.955 143.808 230.794 149.51 221.016C149.885 220.184 149.979 219.254 149.78 218.364C149.696 218.062 149.542 217.784 149.329 217.553C149.117 217.323 148.852 217.146 148.558 217.038C145.074 216.238 145.9 225.572 123.302 242.038C120.86 243.83 118.3 245.454 115.8 247.154ZM144.252 145.232C142.756 145.606 144.452 143.538 141.554 166.612C140.954 171.3 139.812 175.91 139.042 180.584C138.596 183.29 137.368 185.878 137.842 188.75C138.062 190.076 138.55 190.038 139.452 189.484C140.185 188.956 140.805 188.288 141.277 187.518C141.749 186.749 142.063 185.892 142.2 185C146.22 169.218 145.818 163.658 145.212 148.618C145.03 147.455 144.707 146.318 144.252 145.232ZM108.564 221.848C108.564 221.668 108.564 221.474 108.578 221.294C104.689 220.063 100.881 218.587 97.178 216.876C90.6463 213.596 85.3727 208.261 82.168 201.692C81.346 199.94 80.92 197.998 80.126 196.218C79.274 194.312 78.084 194.104 77.396 196.418C77.0124 198.137 77.2542 199.936 78.078 201.492C81.0541 208.557 86.2305 214.474 92.838 218.362C99.31 222.324 104.114 222.738 108.564 221.848ZM81.164 244.552C80.3277 243.514 79.3823 242.568 78.344 241.732C73.5512 238.906 68.159 237.251 62.606 236.902C60.8696 236.766 59.1387 237.225 57.698 238.204C55.298 239.664 57.098 241.092 58.536 240.986C69.276 240.182 79.568 247.276 81.172 244.552H81.164Z" fill="#38A1FF"/>
</svg>
