<svg width="400" height="400" viewBox="0 0 400 400" fill="none" xmlns="http://www.w3.org/2000/svg">
<path d="M208.42 75.26C206.866 64.8975 201.779 55.3904 194.019 48.3488C186.259 41.3071 176.304 37.1636 165.84 36.62C154.085 36.3056 142.484 39.3515 132.4 45.4C112 57.3 103.6 85.02 111.38 105.88C109.662 106.152 108.083 106.987 106.892 108.254C105.701 109.521 104.965 111.149 104.8 112.88C104.8 123.38 118.38 128.6 122.1 121.56C138.1 135.56 171.02 137.38 193.92 117.4C205.06 107.4 210.58 90 208.42 75.26ZM177.66 76.8C174.22 79 168.72 76.5 168.44 72.5C172.289 71.064 175.892 69.04 179.12 66.5C180.276 68.0654 180.77 70.0221 180.497 71.9487C180.224 73.8753 179.205 75.6175 177.66 76.8Z" fill="#FFF4EE"/>
<path d="M160.14 20.44C162.14 24.34 157.16 28.14 152.94 29.22C144.76 31.22 136 30.7 128 33.4C115.38 37.64 104 52.58 107.14 66.36C107.362 67.0022 107.418 67.6906 107.3 68.36C107.015 69.0094 106.567 69.5743 106 70C98.3001 77.36 98.0001 91.42 104.14 100.68C99.2801 111.72 90.3401 114.12 82.1401 118.68C67.4816 126.752 56.595 140.276 51.8401 156.32C59.4401 151.7 69.3601 153.4 77.4601 157.12C85.5601 160.84 92.7601 166.38 101.16 169.48C117.04 175.3 134.72 171.48 144.56 161.68C152 154 154.14 142.84 154.2 132.2C147.38 132.155 140.617 130.951 134.2 128.64C129.809 127.017 125.744 124.619 122.2 121.56C118.48 128.6 104.82 123.38 104.9 112.88C105.036 111.534 105.511 110.245 106.281 109.133C107.05 108.021 108.089 107.122 109.3 106.52C114.158 110.729 120.334 113.106 126.76 113.24C112.88 112.68 122 87.02 122 80.98C121.802 77.7516 121.037 74.5832 119.74 71.62C132.281 66.1813 144.236 59.4801 155.42 51.62C161.16 47.62 167.28 42.92 169.42 36.14C171.56 29.36 167.24 20.28 160.14 20.44Z" fill="#FFFDA9"/>
<path d="M136.84 202.34L101.54 161.6C98.8708 159.876 95.7577 158.966 92.5801 158.98C93.3501 159.045 94.0659 159.403 94.5801 159.98L129.88 200.74C130.39 201.336 130.645 202.109 130.589 202.892C130.533 203.674 130.17 204.403 129.58 204.92L100.58 231.26C100.284 231.514 99.9412 231.707 99.5704 231.827C99.1996 231.947 98.8085 231.992 98.4201 231.96C100.66 233 106.42 233.8 107.48 232.86L136.48 206.54C136.78 206.288 137.026 205.979 137.207 205.632C137.387 205.284 137.497 204.905 137.53 204.515C137.564 204.125 137.52 203.732 137.402 203.359C137.283 202.986 137.092 202.639 136.84 202.34Z" fill="#A2CCCB"/>
<path d="M96.46 230.98L61.16 190.22C60.6434 189.623 60.3849 188.845 60.4412 188.058C60.4974 187.271 60.8638 186.538 61.46 186.02L90.44 159.68C91.0413 159.173 91.8165 158.921 92.6009 158.977C93.3852 159.033 94.1167 159.393 94.64 159.98L130 200.74C130.51 201.336 130.765 202.109 130.709 202.892C130.653 203.674 130.29 204.403 129.7 204.92L100.7 231.26C100.405 231.523 100.06 231.725 99.6859 231.853C99.3118 231.982 98.9159 232.035 98.5213 232.008C98.1266 231.982 97.7411 231.878 97.3872 231.701C97.0333 231.525 96.7181 231.28 96.46 230.98Z" fill="#DFEDED"/>
<path d="M223.84 156.62C223.728 155.319 223.283 154.069 222.547 152.99C221.812 151.911 220.81 151.039 219.64 150.46C216.92 149.34 213.84 150.46 211.12 151.64C187.56 161.48 174.18 166.6 158.46 190.88C155.76 200.88 153.06 210.88 151.16 220.88C150.758 222.19 150.8 223.596 151.28 224.88C151.865 225.826 152.771 226.53 153.832 226.864C154.893 227.198 156.038 227.14 157.06 226.7C159.043 225.771 160.747 224.336 162 222.54C169.16 213.68 174.96 203.78 182.12 194.94C188.12 187.48 196.86 176.62 207 175.66C207.62 177.82 208.06 180.04 208.54 182.26C208.64 182.929 208.878 183.569 209.24 184.14C215.06 192 222.28 166.5 222.84 164.32C223.661 161.841 224.001 159.227 223.84 156.62Z" fill="#FEDAF6"/>
<path d="M168.22 224L192 200.78L119.26 238.98C118.667 239.262 118.161 239.7 117.797 240.247C117.432 240.793 117.223 241.428 117.19 242.084C117.157 242.741 117.302 243.393 117.611 243.974C117.919 244.554 118.378 245.04 118.94 245.38C127.337 250.534 136.458 254.404 146 256.86C148.72 243.58 158.42 233.72 168.22 224Z" fill="#FFFDA9"/>
<path d="M222.88 298.18C219.196 302.596 214.761 306.327 209.78 309.2C212.5 326.86 212.7 329.66 214.8 336.48C217.26 345.08 224.6 330.96 226.08 327.5C234.96 306.807 243.833 286.1 252.7 265.38C242.9 276.46 232.96 287.393 222.88 298.18Z" fill="#FFFDA9"/>
<path d="M227.64 77.88C227.498 76.8862 227.082 75.9515 226.44 75.18C223.56 72.56 219.76 74.62 217.16 77.52C214.18 80.46 211.34 83.52 208.62 86.72C207.44 98.28 202.26 110 194 117.4C182.793 127.194 168.34 132.463 153.46 132.18C152.96 134.46 152.58 136.76 152.26 139.08C140.039 148.78 129.288 160.198 120.34 172.98C119.895 173.496 119.604 174.127 119.5 174.8C119.34 176.66 121.7 177.68 123.5 177.64C128.42 177.52 132.68 174.38 136.56 171.38L151.5 159.82C152.269 171.549 153.772 183.219 156 194.76C166 177.58 182.78 161.54 201.86 156C196.1 151.66 194.04 147 192.8 139.88C192.22 136.54 191.76 133.18 191.44 129.88C203.44 119.08 215.04 107.54 223.44 93.68C226.22 88.78 228.74 83.32 227.64 77.88Z" fill="#ABFFE1"/>
<path d="M145.36 88.92C150.474 88.92 154.62 84.7742 154.62 79.66C154.62 74.5458 150.474 70.4 145.36 70.4C140.246 70.4 136.1 74.5458 136.1 79.66C136.1 84.7742 140.246 88.92 145.36 88.92Z" fill="#FFCECC"/>
<path d="M94.8198 318.94L95.1998 319.56C95.0598 319.36 94.9398 319.14 94.8198 318.94Z" fill="#E57676"/>
<path d="M195.68 312.32C194.58 312.32 193.48 312.32 192.38 312.18C170 310.64 149.4 296 145.56 273.28C139.72 274.14 132.7 274.44 129.18 279.28C127.52 281.56 126.98 284.5 125.4 286.84C120.12 294.6 111.4 291.24 104.08 293.88C94.4999 297.28 89.8599 310.18 94.8199 318.96C90.6199 310.96 109.1 307.14 105.2 318.58C104.19 320.899 102.656 322.953 100.72 324.58C97.4399 327.84 94.2799 331.6 93.5799 336.16C92.2399 344.6 99.7199 352.78 96.5599 361.02C95.0399 365.02 89.8599 367.72 86.3799 365.3C87.6999 366.22 88.7199 371.08 90.0599 372.64C91.9823 374.834 94.4231 376.511 97.1599 377.52C102.32 379.8 109.5 381.02 112.96 375.28C114.78 372.26 114.72 368.5 115.8 365.14C116.88 361.78 120.18 358.48 123.5 359.66C127.5 361.08 127.5 367.38 131.24 369.38C132.539 369.894 133.97 369.978 135.32 369.618C136.67 369.258 137.869 368.473 138.74 367.38C140.18 365.82 141.38 363.64 143.48 363.38C146.8 362.88 148.56 367.92 146.56 370.62C144.56 373.32 140.88 373.96 137.56 374.28C139.031 375.891 140.884 377.106 142.948 377.814C145.012 378.522 147.22 378.7 149.371 378.331C151.521 377.963 153.545 377.06 155.255 375.706C156.966 374.351 158.308 372.589 159.16 370.58C160.22 368.02 160.46 365.16 161.66 362.58C162.86 360 165.66 357.9 168.24 358.72C169.272 359.174 170.28 359.682 171.26 360.24C181.26 364.24 181.56 348.54 180.56 343.2C180.18 341.941 180.18 340.599 180.56 339.34C181.305 338.161 182.394 337.239 183.68 336.7C186.976 334.783 189.77 332.112 191.835 328.907C193.9 325.702 195.177 322.053 195.56 318.26C195.74 316.3 195.68 314.3 195.68 312.32Z" fill="#E57676"/>
<path d="M196.48 312.3H194.48C194.48 313.38 194.48 314.46 194.48 315.52C194.517 318.767 193.886 321.987 192.627 324.98C191.368 327.973 189.507 330.676 187.16 332.92C185.586 334.339 183.855 335.574 182 336.6C181.167 336.997 180.459 337.615 179.955 338.388C179.45 339.161 179.168 340.058 179.14 340.98C179.14 342.4 179.62 343.78 179.74 345.2C179.981 347.755 179.88 350.331 179.44 352.86C179.244 355.22 178.2 357.43 176.5 359.08C175.637 359.696 174.571 359.96 173.52 359.82C171.52 359.6 170.22 358.24 168.44 357.82C164.1 356.52 160.94 360.86 159.84 364.42C159.31 367.053 158.429 369.602 157.22 372C156.319 373.407 155.134 374.611 153.74 375.534C152.347 376.456 150.776 377.078 149.129 377.359C147.481 377.639 145.794 377.572 144.173 377.163C142.553 376.753 141.036 376.01 139.72 374.98C141.19 374.899 142.627 374.512 143.94 373.844C145.252 373.176 146.41 372.241 147.34 371.1C149.94 367.2 146.98 361.22 142.64 362.52C141.075 363.16 139.742 364.262 138.82 365.68C138.275 366.548 137.56 367.296 136.718 367.881C135.875 368.465 134.924 368.873 133.92 369.08C128.54 369.46 129.08 362.04 124.8 359.4C121.52 357.4 117.88 359.6 116.02 362.46C113.62 366.12 114.3 370.82 112.24 374.6C111.39 376.073 110.106 377.248 108.563 377.964C107.02 378.68 105.294 378.902 103.62 378.6C99.3751 378.144 95.3737 376.391 92.1601 373.58C90.4738 371.831 89.2861 369.663 88.7201 367.3C94.1601 367.94 98.9601 362.2 98.3401 356.12C98.1201 351.58 96.1801 347.42 95.1201 343.06C94.4145 340.908 94.2479 338.615 94.6349 336.383C95.022 334.152 95.9509 332.049 97.3401 330.26C100.9 325.12 108.32 321.44 106.58 314.14C105 309.44 97.3401 309.76 94.2801 313.98C93.7081 310.716 94.0756 307.357 95.3397 304.294C96.6039 301.231 98.7126 298.59 101.42 296.68C104.007 295.075 106.959 294.153 110 294C112.973 293.934 115.933 293.586 118.84 292.96C121.745 292.22 124.287 290.46 126 288C128.16 285.08 128.56 281.1 131.38 278.62C134.007 276.66 137.133 275.481 140.4 275.22C142.18 274.92 143.96 274.66 145.72 274.4C145.58 273.68 145.46 272.98 145.36 272.26C144.02 272.48 142.68 272.7 141.36 272.84C137.931 273.157 134.597 274.135 131.54 275.72C130.201 276.544 129.044 277.633 128.14 278.92C127.152 280.606 126.309 282.372 125.62 284.2C124.963 285.822 123.929 287.265 122.604 288.409C121.279 289.553 119.701 290.366 118 290.78C114.93 291.313 111.831 291.667 108.72 291.84C95.6401 292.66 88.0601 307.12 93.6001 318.76C93.7904 319.303 94.06 319.816 94.4001 320.28C95.0801 321.34 96.8001 320.28 96.1201 319.26C95.9401 318.92 95.7201 318.5 95.5601 318.16C95.3778 317.646 95.3025 317.1 95.3389 316.556C95.3753 316.012 95.5226 315.481 95.7717 314.996C96.0209 314.511 96.3666 314.081 96.7876 313.735C97.2087 313.388 97.6961 313.131 98.2201 312.98C100.22 312.14 103.7 311.98 104.52 314.56C106.04 323.1 92.8601 325.38 92.3601 337.96C92.6173 341.96 93.5014 345.895 94.9801 349.62C96.1201 353.38 97.2401 358.16 94.9801 361.74C93.3401 364.36 89.6801 366.24 86.8201 364.36C85.8801 363.76 84.8201 365.22 85.6201 365.94C85.6996 366.028 85.773 366.122 85.8401 366.22H85.9401C87.5801 368.38 87.0601 369.8 89.1801 373.04C91.5767 375.842 94.7073 377.92 98.2201 379.04C101.106 380.272 104.28 380.667 107.38 380.18C108.96 379.888 110.438 379.196 111.674 378.17C112.91 377.144 113.862 375.819 114.44 374.32C115.98 370.68 115.54 366.32 117.92 362.96C118.392 362.156 119.077 361.497 119.899 361.056C120.721 360.615 121.649 360.409 122.58 360.46C123.272 360.661 123.91 361.013 124.449 361.49C124.989 361.968 125.416 362.558 125.7 363.22C127.06 365.66 127.92 368.68 130.5 370.14C133.66 371.94 137.5 370.26 139.7 367.74C140.74 366.5 142.04 364.22 143.92 364.32C145.44 364.32 146.2 366.18 146.3 367.48C146.62 371.94 140.74 372.92 137.46 373.24C137.264 373.243 137.074 373.303 136.912 373.413C136.75 373.523 136.624 373.678 136.549 373.859C136.475 374.04 136.455 374.239 136.493 374.431C136.53 374.623 136.623 374.8 136.76 374.94C144.76 383.28 159.04 379.76 161.24 366.62C161.619 364.155 162.877 361.911 164.78 360.3C165.213 359.978 165.713 359.758 166.243 359.658C166.773 359.557 167.319 359.578 167.84 359.72C169 360.06 169.96 360.92 171.12 361.36C172.39 361.862 173.769 362.02 175.12 361.82C180.54 360.86 181.54 353.62 181.72 349.18C181.838 346.458 181.629 343.732 181.1 341.06C181.1 338.54 183.98 337.72 185.72 336.52C188.552 334.545 190.947 332.007 192.753 329.065C194.56 326.123 195.74 322.839 196.22 319.42C196.454 317.054 196.541 314.676 196.48 312.3Z" fill="#FFFDA9"/>
<path d="M178.9 309.74C167.926 306.294 158.434 299.248 151.96 289.74C148.058 290.196 144.217 291.067 140.5 292.34C139.145 292.799 137.974 293.683 137.16 294.86C135.16 298.3 138.72 302.62 137.9 306.52C137.02 310.78 131.9 312.2 127.58 313.22C123.26 314.24 118.32 317.22 119.24 321.46C119.81 323.332 121.077 324.915 122.78 325.88C124.89 327.108 126.897 328.506 128.78 330.06C129.731 330.832 130.46 331.842 130.896 332.987C131.331 334.132 131.457 335.371 131.26 336.58C130.04 341 123.76 341.5 120.8 344.98C124.034 347.079 127.912 347.952 131.734 347.442C135.556 346.933 139.069 345.073 141.64 342.2C143.5 340.08 144.88 337.3 147.52 336.36C150.16 335.42 153.52 336.9 156.26 338.06C159 339.22 162.78 339.84 164.8 337.58C165.556 336.59 166.057 335.429 166.26 334.2C167.122 330.445 167.438 326.585 167.2 322.74C170.284 322.804 173.267 321.642 175.495 319.508C177.722 317.374 179.012 314.444 179.08 311.36C179.07 310.816 179.009 310.273 178.9 309.74Z" fill="#FFFDA9"/>
<path d="M204.5 248C204.02 248.44 203.54 248.92 203.1 249.4C203.454 251.187 204.43 252.79 205.854 253.925C207.279 255.06 209.06 255.654 210.88 255.6L212.18 254.14C209 253.02 206.293 250.856 204.5 248Z" fill="#ABFFE1"/>
<path d="M199 254.76C198.45 255.469 198.122 256.325 198.06 257.22C198.347 258.456 199.019 259.569 199.978 260.399C200.938 261.229 202.136 261.733 203.4 261.84C204.439 261.755 205.422 261.333 206.2 260.64C204.56 260.46 203.008 259.809 201.73 258.765C200.452 257.722 199.504 256.331 199 254.76Z" fill="#ABFFE1"/>
<path d="M201.54 251.22C201.2 251.66 200.88 252.1 200.56 252.56C200.565 253.455 200.784 254.335 201.198 255.128C201.612 255.921 202.209 256.604 202.94 257.12C203.668 257.719 204.516 258.154 205.427 258.396C206.339 258.637 207.291 258.68 208.22 258.52L209.18 257.48C207.46 257.223 205.842 256.505 204.497 255.403C203.152 254.301 202.131 252.855 201.54 251.22Z" fill="#ABFFE1"/>
<path d="M231.26 217.1C227.472 215.679 223.276 215.817 219.59 217.486C215.905 219.154 213.031 222.216 211.6 226C209.04 232.78 210.62 241.28 206.26 246.94C206.537 247.387 206.844 247.815 207.18 248.22C208.968 246.357 210.601 244.35 212.06 242.22C212.24 241.96 212.5 241.9 212.46 241.34C212.42 240.78 211.86 240.24 211.62 239.76C211.46 239.502 211.356 239.214 211.314 238.914C211.272 238.613 211.293 238.307 211.375 238.016C211.458 237.724 211.601 237.453 211.795 237.219C211.988 236.986 212.229 236.795 212.5 236.66C213.084 236.425 213.728 236.388 214.335 236.554C214.942 236.721 215.477 237.081 215.86 237.58C216.72 238.68 216.94 240.12 218 241.08C218.978 241.843 220.162 242.295 221.4 242.38C221.706 242.449 221.989 242.598 222.22 242.81C222.451 243.022 222.623 243.292 222.718 243.591C222.813 243.89 222.828 244.209 222.762 244.516C222.695 244.823 222.55 245.107 222.34 245.34C221.44 246.28 219.98 246.1 218.82 246.4C216.15 247.429 213.994 249.47 212.82 252.08L213.58 252.34C214.552 250.953 215.81 249.791 217.27 248.932C218.729 248.073 220.356 247.537 222.04 247.36C226.04 246.56 230.38 246.56 234.04 244.18C236.405 242.65 238.302 240.497 239.52 237.957C240.738 235.418 241.23 232.591 240.943 229.789C240.655 226.987 239.599 224.319 237.89 222.08C236.181 219.84 233.887 218.117 231.26 217.1Z" fill="#ABFFE1"/>
<path d="M208.56 249.66C209.29 250.311 210.088 250.881 210.94 251.36C212.25 248.523 214.515 246.236 217.34 244.9C218.376 244.567 219.453 244.379 220.54 244.34C220.84 244.34 220.7 244.16 220.54 244.14C219.367 244.033 218.246 243.603 217.303 242.896C216.361 242.19 215.632 241.236 215.2 240.14C215.013 239.551 214.706 239.006 214.3 238.54C213.12 237.56 213.64 238.7 213.64 238.9C214.003 239.333 214.266 239.841 214.411 240.387C214.556 240.933 214.58 241.504 214.48 242.06C212.799 244.808 210.813 247.357 208.56 249.66Z" fill="#ABFFE1"/>
<path d="M300.86 204.3C286.224 204.214 272.152 198.649 261.416 188.702C250.68 178.755 244.06 165.147 242.86 150.56L168.22 224C159.78 232.3 151.16 241 147.16 252.12C144.868 259.04 144.342 266.423 145.631 273.598C146.92 280.772 149.983 287.511 154.54 293.2C159.23 298.759 165.005 303.302 171.511 306.552C178.018 309.801 185.119 311.689 192.38 312.1C198.254 312.567 204.154 311.585 209.56 309.24C214.63 306.352 219.141 302.579 222.88 298.1C251.16 267.86 278.213 236.527 304.04 204.1C302.987 204.257 301.924 204.324 300.86 204.3ZM226 185.2C226.28 183.94 228.24 184.48 228 185.74C227.017 190.671 227.017 195.749 228 200.68C228.18 201.94 226.26 202.46 226 201.2C224.86 195.928 224.86 190.472 226 185.2ZM235.52 245.56C232.172 247.598 228.373 248.78 224.46 249C221.701 249.196 219.044 250.121 216.76 251.68C214.76 253.32 214.96 255.04 207.82 261.84C204.14 265.84 197.82 263.3 196.14 258.24C195.42 255.52 197.66 252.98 199.14 250.98C203.14 245.36 204.68 246.48 206.1 242.84C207.181 239.425 207.852 235.894 208.1 232.32C208.68 223.72 213.92 216.12 222.58 214.32C224.806 213.89 227.095 213.903 229.316 214.358C231.536 214.813 233.646 215.701 235.524 216.971C237.401 218.242 239.01 219.87 240.259 221.762C241.507 223.654 242.371 225.774 242.8 228C243.382 231.314 243.008 234.726 241.723 237.835C240.437 240.945 238.292 243.624 235.54 245.56H235.52ZM248 210.84L259.52 200.1C260.46 199.22 261.88 200.64 260.94 201.52L249.4 212.26C248.38 213.14 246.96 211.72 248 210.84ZM272.3 232.44C266.46 235.06 257.1 234.66 257.7 232.44C257.732 232.308 257.791 232.183 257.873 232.074C257.954 231.965 258.056 231.873 258.174 231.804C258.291 231.735 258.421 231.69 258.556 231.673C258.691 231.655 258.829 231.664 258.96 231.7C263.052 232.835 267.41 232.524 271.3 230.82C271.413 230.738 271.542 230.68 271.679 230.651C271.816 230.622 271.957 230.621 272.094 230.65C272.231 230.679 272.361 230.736 272.474 230.818C272.587 230.9 272.682 231.005 272.753 231.126C272.823 231.247 272.867 231.381 272.882 231.521C272.897 231.66 272.883 231.8 272.84 231.934C272.798 232.067 272.728 232.19 272.634 232.294C272.541 232.399 272.427 232.482 272.3 232.54V232.44Z" fill="#ABFFE1"/>
<path d="M342 96.42C331.68 96.2 271.4 122.2 255.86 128.42C253.197 129.26 250.705 130.567 248.5 132.28C243.16 136.52 242.32 144.28 242.94 151.08C244.262 165.573 250.936 179.054 261.659 188.894C272.383 198.734 286.387 204.226 300.94 204.3C304.809 204.578 308.672 203.678 312.02 201.72C316.02 198.96 318.02 193.94 319.5 189.3C324.76 173.3 352.96 106.88 346.42 98.16C345.867 97.5498 345.18 97.0754 344.413 96.7736C343.647 96.4719 342.821 96.3508 342 96.42Z" fill="#FEDAF6"/>
<path d="M264.44 97.5C263.783 97.7433 263.071 97.7974 262.385 97.6559C261.699 97.5145 261.067 97.1833 260.56 96.7C260.132 96.0569 259.883 95.3112 259.84 94.54L258.96 88.84C258.2 95.38 256.96 99.42 250.36 99.42C252.531 99.5062 254.662 100.037 256.62 100.98C257.567 101.459 258.364 102.191 258.921 103.095C259.479 103.998 259.776 105.038 259.78 106.1C259.998 103.811 260.965 101.657 262.53 99.972C264.096 98.2873 266.173 97.1654 268.44 96.78C267.074 96.7785 265.719 97.0223 264.44 97.5Z" fill="#FFE7AB"/>
<path d="M268.52 95.78C264.84 95.66 264.14 97.38 261.7 96.36C260.72 95.74 260.76 94.02 260.62 93L260 88.54C259.8 87.34 258.14 87.8 258 88.82C257.2 94.5 256.48 98.38 250.36 98.4C249.04 98.4 249.12 100.26 250.36 100.4C253.66 100.78 258.96 101.74 258.86 106.14C258.86 107.44 260.72 107.42 260.86 106.14C261.09 104.061 261.998 102.116 263.444 100.605C264.89 99.0941 266.793 98.1012 268.86 97.78C270 97.58 269.56 96 268.52 95.78ZM259.76 102.48C258.575 100.819 256.826 99.646 254.84 99.18C258.84 96.9 257.82 95.86 258.66 93.66L258.78 94.44C258.793 95.1155 258.949 95.7805 259.239 96.3909C259.528 97.0012 259.945 97.543 260.46 97.98C261.048 98.3931 261.742 98.6291 262.46 98.66C261.305 99.7322 260.385 101.033 259.76 102.48Z" fill="#EFAC54"/>
<path d="M303.12 268.82C301.966 268.538 300.912 267.942 300.076 267.099C299.239 266.255 298.652 265.196 298.38 264.04C297.881 261.718 297.82 259.324 298.2 256.98C296.82 264.3 294.74 270.36 287.16 270.48L293.48 273.76C294.432 274.138 295.213 274.849 295.68 275.76C296.32 277.46 294.94 280.12 296.62 280.8C296.767 277.794 298.056 274.958 300.222 272.869C302.389 270.781 305.271 269.597 308.28 269.56C306.88 268.46 304.86 269.12 303.12 268.82Z" fill="#FFE7AB"/>
<path d="M308.74 268.64C307.574 267.962 306.219 267.681 304.88 267.84C304.156 267.927 303.421 267.852 302.729 267.62C302.037 267.389 301.406 267.006 300.88 266.5C298.36 264.04 298.88 260.12 299.14 256.92C299.26 255.8 297.38 255.56 297.14 256.66C296.454 260.051 295.367 263.347 293.9 266.48C293.025 267.389 291.979 268.116 290.823 268.621C289.666 269.125 288.421 269.397 287.16 269.42C286.94 269.418 286.725 269.488 286.55 269.62C286.374 269.752 286.246 269.939 286.187 270.151C286.128 270.363 286.14 270.588 286.222 270.792C286.304 270.996 286.451 271.168 286.64 271.28L291.26 273.72C292.34 274.28 294.38 274.92 294.76 276.24C295.3 278.06 293.82 280.46 296.08 281.6C296.232 281.688 296.403 281.734 296.578 281.734C296.753 281.734 296.925 281.689 297.077 281.602C297.229 281.514 297.356 281.389 297.444 281.238C297.532 281.087 297.579 280.915 297.58 280.74C297.708 277.993 298.885 275.4 300.868 273.494C302.851 271.589 305.49 270.518 308.24 270.5C308.458 270.498 308.67 270.424 308.842 270.291C309.015 270.157 309.139 269.97 309.195 269.76C309.252 269.549 309.238 269.325 309.156 269.123C309.074 268.921 308.928 268.751 308.74 268.64ZM296.74 276.04C296.596 275.364 296.279 274.737 295.82 274.22C294.747 273.322 293.548 272.587 292.26 272.04L290.26 270.98C292.037 270.618 293.66 269.72 294.911 268.408C296.162 267.096 296.982 265.432 297.26 263.64C297.482 265.113 298.137 266.487 299.141 267.587C300.145 268.687 301.453 269.464 302.9 269.82C300.19 271.101 298.012 273.286 296.74 276V276.04Z" fill="#EFAC54"/>
<path d="M117.16 166L108.66 173.36L111.28 176.32L116.48 171.82C116.605 171.711 116.75 171.627 116.907 171.574C117.064 171.521 117.229 171.5 117.395 171.511C117.56 171.522 117.722 171.566 117.87 171.639C118.019 171.713 118.151 171.815 118.26 171.94L125.3 180C125.532 180.29 125.646 180.657 125.62 181.027C125.594 181.398 125.43 181.745 125.16 182L120 186.48L122.6 189.46L131.1 182.16C131.381 181.913 131.556 181.566 131.586 181.192C131.615 180.819 131.499 180.449 131.26 180.16L119.14 166.16C119.021 166.019 118.875 165.903 118.711 165.818C118.547 165.734 118.367 165.683 118.183 165.668C117.999 165.653 117.814 165.675 117.638 165.732C117.463 165.789 117.3 165.88 117.16 166Z" fill="#DFEDED"/>
<path d="M151.06 66.4C150.105 66.3961 149.17 66.6759 148.375 67.204C147.579 67.7321 146.958 68.4847 146.591 69.3662C146.223 70.2478 146.126 71.2186 146.312 72.1554C146.497 73.0923 146.956 73.9529 147.632 74.6282C148.307 75.3035 149.168 75.763 150.105 75.9483C151.041 76.1337 152.012 76.0365 152.894 75.6692C153.775 75.3019 154.528 74.6811 155.056 73.8853C155.584 73.0896 155.864 72.155 155.86 71.2C155.86 70.5697 155.736 69.9455 155.495 69.3631C155.253 68.7808 154.9 68.2516 154.454 67.8059C154.008 67.3602 153.479 67.0066 152.897 66.7654C152.314 66.5242 151.69 66.4 151.06 66.4Z" fill="#5E503B"/>
<path d="M174.9 78.62C176.753 78.482 178.482 77.6368 179.729 76.2593C180.976 74.8818 181.646 73.0776 181.6 71.22C181.653 69.5954 181.252 67.9883 180.44 66.58C180.544 66.3972 180.587 66.1858 180.562 65.9768C180.537 65.7679 180.445 65.5727 180.3 65.42C179.76 64.88 179.18 65.14 178.66 65.56C175.512 68.111 171.973 70.1371 168.18 71.56C167.975 71.6276 167.794 71.7552 167.663 71.9264C167.531 72.0975 167.453 72.3043 167.44 72.52C167.697 74.2847 168.605 75.8894 169.986 77.0183C171.366 78.1472 173.119 78.7185 174.9 78.62ZM178.9 67.88C179.449 68.9265 179.71 70.0999 179.658 71.2805C179.605 72.4611 179.24 73.6065 178.6 74.6C178.035 75.3428 177.279 75.9179 176.413 76.2636C175.546 76.6094 174.602 76.7128 173.681 76.5628C172.76 76.4127 171.898 76.0149 171.186 75.4119C170.474 74.8089 169.939 74.0236 169.64 73.14C172.929 71.7815 176.033 70.0143 178.88 67.88H178.9Z" fill="#5E503B"/>
<path d="M347.74 98.38C345.1 93.98 339.16 95.36 334.16 96.94C311.54 104.1 295.66 110.94 261.18 125.1C256.7 126.94 251.54 128.34 247.8 131.48C242.48 135.94 241.44 143.48 241.8 150.16L222.32 169.36C222.84 167.72 223.34 166.06 223.78 164.4C224.84 160.4 225.78 155.76 223.18 152.1C220.58 148.44 216.34 148.38 212.42 149.82C208.5 151.26 204.88 152.74 201.16 154.3C197.38 151.1 194.58 146.66 193.56 139.08C193.06 136.14 192.68 133.2 192.38 130.24C203.8 120.08 214.66 109.2 222.88 96.24C225.701 92.2836 227.682 87.7913 228.7 83.04C229.24 79.42 228.96 73.78 224.38 73.04C219.8 72.3 216.6 76.54 213.88 79.4C212.5 80.84 211.14 82.3 209.88 83.8C210.358 72.3743 206.598 61.1747 199.322 52.3522C192.046 43.5296 181.768 37.7061 170.46 36C172.46 28.38 167.64 19.44 160.14 19.46C159.966 19.4634 159.795 19.5115 159.644 19.5997C159.494 19.6879 159.368 19.8132 159.28 19.9637C159.192 20.1142 159.144 20.2848 159.14 20.4592C159.137 20.6336 159.178 20.8061 159.26 20.96C160.9 24.54 155.76 27.48 153 28.18C142.1 30.98 136.38 29.14 126.46 32.9C114 37.74 103.18 52.58 106.24 66.72C106.368 67.0133 106.435 67.3299 106.435 67.65C106.435 67.9701 106.368 68.2867 106.24 68.58C105.303 69.5214 104.422 70.5164 103.6 71.56C97.94 78.92 97.2 91.74 103.06 100.96C99.68 108.16 94.02 111.68 86.82 115.22C75.7836 120.135 66.3314 128.022 59.52 138C55.7296 143.511 52.8339 149.585 50.94 156C50.8911 156.19 50.8992 156.39 50.9632 156.575C51.0271 156.761 51.1442 156.923 51.2998 157.043C51.4554 157.162 51.6426 157.233 51.8382 157.247C52.0339 157.26 52.2292 157.216 52.4 157.12C62.78 151.12 75.46 156.3 85.7 162.64L60.8 185.26C60.0054 185.955 59.5175 186.935 59.4426 187.988C59.3677 189.04 59.7118 190.08 60.4 190.88L95.7 231.64C96.338 232.354 97.2108 232.815 98.16 232.94C100.26 233.84 106.52 234.94 108.16 233.6L137.14 207.3C137.94 206.617 138.439 205.647 138.529 204.599C138.619 203.55 138.292 202.509 137.62 201.7L125.8 188L131.8 182.84C132.248 182.411 132.518 181.829 132.555 181.209C132.592 180.59 132.394 179.979 132 179.5L129.8 176.98C134.16 174.7 139.8 170.02 150.48 161.72C151.39 172.899 152.899 184.022 155 195.04C155.07 195.277 155.225 195.479 155.436 195.609C155.646 195.738 155.897 195.785 156.14 195.74C153.98 203.74 151.92 211.74 150.28 220.1C150.114 220.62 150.007 221.156 149.96 221.7L118.82 238C118.121 238.322 117.514 238.815 117.054 239.432C116.595 240.05 116.298 240.773 116.191 241.535C116.083 242.298 116.169 243.075 116.439 243.795C116.71 244.516 117.157 245.157 117.74 245.66C119.547 247.002 121.491 248.148 123.54 249.08C130.218 252.651 137.285 255.442 144.6 257.4C139.48 283 158.74 309.4 188.8 312.94C194.876 313.843 201.078 313.358 206.94 311.52C207.633 311.24 208.3 310.94 208.94 310.62C210.94 323.88 211.26 327.36 213.7 335.96C214.3 339.96 217.28 342.06 221.2 337.68C226.06 332.24 228.38 324.76 231.2 318.18L253.6 265.78C271.6 245.42 289.06 224.38 304.38 205.04C306.065 204.839 307.731 204.498 309.36 204.02C316.26 201.56 318.58 194.72 320.8 188.4C326.8 171.26 345.1 128.16 348.14 106.1C348.682 103.536 348.544 100.875 347.74 98.38ZM215.64 80.38C217.065 78.7539 218.661 77.2855 220.4 76C222.1 74.92 224.82 74.38 226.02 76.48C226.898 78.5374 227.101 80.82 226.6 83C225.581 87.4009 223.735 91.5682 221.16 95.28C213.34 106.82 206.46 114.92 192.22 127.74C192.02 125.34 191.88 122.94 191.82 120.54C193.972 118.894 195.979 117.067 197.82 115.08C204.713 107.224 208.917 97.3722 209.82 86.96C211.58 84.68 213.58 82.52 215.64 80.38ZM207.52 76C208.861 87.1559 206.379 98.437 200.48 108C185.06 132.62 144.48 139 123.28 121.38C123.423 121.016 123.537 120.642 123.62 120.26C123.86 119 121.9 118.46 121.62 119.72C121.274 121.104 120.4 122.297 119.185 123.044C117.97 123.792 116.511 124.034 115.12 123.72C109.02 122.44 103.86 116.42 106.42 110.6C106.955 109.386 107.867 108.376 109.02 107.72C114.186 111.981 120.683 114.295 127.38 114.26C127.645 114.26 127.9 114.155 128.087 113.967C128.275 113.78 128.38 113.525 128.38 113.26C128.38 112.995 128.275 112.74 128.087 112.553C127.9 112.365 127.645 112.26 127.38 112.26C126.185 112.36 124.986 112.117 123.924 111.561C122.862 111.005 121.979 110.159 121.38 109.12C120.27 106.713 119.795 104.062 120 101.42C120.92 89.42 122.82 84.82 122.92 80.98C122.758 77.9414 122.082 74.9522 120.92 72.14C132.726 66.937 144.027 60.6571 154.68 53.38C160.2 49.52 167.08 44.48 169.78 38C179.344 39.3751 188.201 43.8273 195.01 50.6834C201.819 57.5394 206.211 66.4263 207.52 76ZM102.64 76.8C103.301 75.1734 104.205 73.6562 105.32 72.3C106.36 71.04 108.06 69.98 108.32 68.3C108.44 66.3 107.8 65.94 107.66 62.9C106.96 50.56 117.48 37.5 129.16 34.12C140.84 30.74 149.84 32.74 156.8 28.74C159.46 27.22 161.92 24.74 161.52 21.6C168.7 22.96 171.92 34.5 165.16 41.94C161.525 45.905 157.366 49.3566 152.8 52.2C142.173 59.3888 130.897 65.5689 119.12 70.66C118.929 70.7682 118.78 70.9374 118.696 71.1405C118.613 71.3436 118.6 71.5688 118.66 71.78C123.74 82.48 118.32 87.54 118.04 102.1C117.901 104.905 118.48 107.7 119.72 110.22C119.986 110.662 120.294 111.077 120.64 111.46C117.047 110.575 113.685 108.933 110.777 106.644C107.87 104.355 105.484 101.472 103.78 98.1871C102.076 94.9024 101.093 91.2918 100.897 87.5966C100.7 83.9015 101.294 80.207 102.64 76.76V76.8ZM53.48 154.34C57.1659 143.5 63.7342 133.869 72.48 126.48C77.3846 122.538 82.7589 119.22 88.48 116.6C95.3 113.2 100.8 109.46 104.28 102.72C105.232 104.011 106.296 105.216 107.46 106.32C106.152 107.328 105.141 108.67 104.532 110.205C103.923 111.739 103.739 113.41 104 115.04C104.572 118.077 106.193 120.817 108.581 122.78C110.968 124.744 113.969 125.805 117.06 125.78C118.114 125.747 119.148 125.477 120.083 124.988C121.018 124.5 121.831 123.807 122.46 122.96C130.956 129.444 141.313 133.021 152 133.16C151.64 134.96 151.36 136.74 151.12 138.54C140.338 147.235 130.696 157.254 122.42 168.36L120 165.54C119.6 165.045 119.021 164.727 118.388 164.656C117.755 164.585 117.12 164.766 116.62 165.16L110.62 170.42C101.88 160.42 102.38 160.9 102.18 160.76C99.04 158.76 92.56 156.76 89.86 158.94L87.28 161.3C76.9 155.06 64.4 149.46 53.48 154.34ZM122.64 178.5L124.52 180.7C124.596 180.781 124.638 180.889 124.638 181C124.638 181.111 124.596 181.219 124.52 181.3L122 183.56L114.52 174.94L117.24 172.58C117.263 172.554 117.29 172.534 117.321 172.52C117.352 172.506 117.386 172.499 117.42 172.499C117.454 172.499 117.488 172.506 117.519 172.52C117.55 172.534 117.577 172.554 117.6 172.58L118.76 173.92C118 176.36 120.16 178.34 122.64 178.5ZM112.9 176.24L120.38 184.88L119.4 185.72C119.264 185.836 119.163 185.986 119.106 186.156C119.05 186.325 119.041 186.506 119.08 186.68L110.92 177.26C111.091 177.32 111.275 177.335 111.453 177.303C111.632 177.272 111.8 177.195 111.94 177.08L112.9 176.24ZM96.36 160.44C97.9653 160.857 99.492 161.532 100.88 162.44L109 171.82C107.9 172.78 107.7 172.86 107.66 173.38C107.62 173.9 109.02 175.06 96.36 160.44ZM97.2 230.32L62 189.56C61.6614 189.158 61.4946 188.639 61.5358 188.115C61.577 187.591 61.8227 187.104 62.22 186.76L91.08 160.44C91.4758 160.117 91.9803 159.958 92.4898 159.995C92.9993 160.032 93.4752 160.263 93.82 160.64L129.12 201.4C129.452 201.801 129.616 202.316 129.574 202.835C129.533 203.354 129.291 203.836 128.9 204.18L100 230.5C99.603 230.843 99.0869 231.017 98.5631 230.983C98.0393 230.95 97.5497 230.711 97.2 230.32ZM136 203C136.332 203.41 136.488 203.933 136.436 204.458C136.383 204.982 136.126 205.464 135.72 205.8L106.84 232.1C105.055 232.394 103.228 232.306 101.48 231.84L130.28 205.66C131.066 204.969 131.55 203.999 131.628 202.956C131.707 201.913 131.373 200.88 130.7 200.08L122.3 190.4C122.468 190.462 122.649 190.478 122.825 190.446C123 190.415 123.165 190.337 123.3 190.22L124.28 189.38L136 203ZM130.5 181.4L122.76 188L121.48 186.52L125.84 182.74C126.278 182.304 126.538 181.719 126.568 181.101C126.597 180.483 126.395 179.876 126 179.4L119 171.28C118.607 170.831 118.051 170.555 117.455 170.514C116.859 170.473 116.272 170.669 115.82 171.06L111.38 174.92L110 173.46C114.52 169.46 117.4 167.02 117.78 166.72C117.817 166.681 117.862 166.649 117.912 166.628C117.962 166.607 118.016 166.596 118.07 166.596C118.124 166.596 118.178 166.607 118.228 166.628C118.278 166.649 118.323 166.681 118.36 166.72L130.36 180.72C130.423 180.746 130.479 180.788 130.522 180.84C130.566 180.893 130.596 180.956 130.61 181.023C130.624 181.09 130.621 181.159 130.602 181.225C130.583 181.291 130.548 181.351 130.5 181.4ZM152.5 160.22L160.5 154.1C161.52 153.32 160.1 151.92 159.1 152.7C131.48 174 132 173.84 128.42 175.28L123.74 169.88C132.785 157.654 143.511 146.767 155.6 137.54C155.82 137.36 155.964 137.102 156.001 136.82C156.038 136.537 155.966 136.251 155.8 136.02C155.12 135.02 154.4 136.02 153.5 136.72C153.68 135.54 153.9 134.36 154.14 133.2C166.925 133.335 179.424 129.414 189.84 122C190.096 128.198 190.764 134.371 191.84 140.48C192.332 143.65 193.325 146.721 194.78 149.58C196.08 151.842 197.75 153.87 199.72 155.58C181.72 161.58 166.54 175.84 156.6 191.94C154.615 181.455 153.24 170.864 152.48 160.22H152.5ZM153.26 215.48C155.08 207.18 157.26 199.26 159.5 190.92C169.24 175.8 185.02 162 202 156.92C202.231 156.847 202.428 156.694 202.556 156.489C202.684 156.283 202.735 156.039 202.7 155.8C204.7 155.02 206.52 154.28 208.38 153.5C211.7 152.2 216.38 149.28 219.94 151.5C223.5 153.72 223.04 158.64 222.22 162.16C221.338 165.731 220.256 169.25 218.98 172.7L209.52 182C208.86 179.74 208.58 177.34 207.92 175.06C207.863 174.849 207.738 174.662 207.565 174.528C207.391 174.394 207.179 174.321 206.96 174.32C200.02 175.06 194.28 179.6 189.54 184.44C180.26 194.44 176.02 201.26 168.54 211.9L152.14 220.52C152.44 218.84 152.88 217.14 153.24 215.48H153.26ZM191.26 200.04L172.36 210C176.92 203.333 181.787 196.867 186.96 190.6C191.94 184.78 198.3 177.84 206.34 176.6C206.8 178.48 207.46 182.2 207.96 183.54L191.26 200.04ZM120.7 245.32C119.817 244.94 119.046 244.341 118.46 243.58C118.298 243.243 118.205 242.877 118.186 242.504C118.167 242.131 118.222 241.757 118.349 241.405C118.476 241.054 118.671 240.731 118.923 240.455C119.176 240.179 119.481 239.957 119.82 239.8C120.58 239.44 113.54 243.12 186.26 204.92C162.7 228.12 160.38 230.06 154.26 237.68C149.959 242.968 146.818 249.1 145.04 255.68C136.498 253.335 128.311 249.85 120.7 245.32ZM219.74 336.26C218.62 338 216.92 339.34 216.02 337.04C213.66 330.36 212.62 320.88 210.9 309.68C214.925 307.394 218.546 304.461 221.62 301C230.84 290.8 240.24 280.9 249.36 270.66C225.32 326.78 224 331.22 219.74 336.26ZM229.16 290C224.88 294.8 220.48 299.5 215.78 304C211.123 308.208 205.214 310.773 198.96 311.3C187.554 312.16 176.18 309.259 166.58 303.04C147.04 290.62 139.04 264.18 152.36 244.02C158.74 234.3 156.12 237.46 242.12 152.84C243.721 166.676 250.135 179.51 260.24 189.096C270.345 198.682 283.498 204.411 297.4 205.28C298.833 205.456 300.277 205.523 301.72 205.48C267.6 248 243.82 273.48 229.16 290ZM346.42 103.2C345.32 122.48 323.96 173.62 320.58 183.4C319.2 187.4 317.82 191.4 316.12 195.18C315.352 196.917 314.218 198.469 312.796 199.728C311.374 200.988 309.697 201.927 307.88 202.48C303.939 203.336 299.879 203.505 295.88 202.98C284.146 201.731 273.066 196.955 264.101 189.282C255.136 181.609 248.706 171.4 245.66 160C243.88 153.12 242.72 144.88 245.66 138.14C247.194 134.729 249.979 132.038 253.44 130.62C254.74 129.92 306.28 109.02 315.8 105.46C328.78 100.58 342.08 94.86 345.8 99.02C346.323 100.348 346.535 101.778 346.42 103.2Z" fill="#5E503B"/>
<path d="M327.84 199.38C298.28 232.8 280.6 254 262.44 276C261.62 276.98 263.04 278.42 263.86 277.42C287.36 248.84 307.18 226.04 329.34 200.88C330.18 199.92 328.78 198.5 327.92 199.46L327.84 199.38Z" fill="#FFFDA9"/>
<path d="M347.16 190.62C334.961 206.831 321.804 222.298 307.76 236.94C306.86 237.86 308.28 239.28 309.16 238.36C323.349 223.642 336.621 208.066 348.9 191.72C349.68 190.7 347.94 189.72 347.16 190.72V190.62Z" fill="#FFFDA9"/>
<path d="M120.22 259.08C104.88 277.72 64.4799 324.86 59.9999 330C59.1399 330.96 60.5599 332.38 61.3999 331.42C77.3999 313.2 117.4 265.74 121.72 260.44C122.44 259.5 121.04 258 120.22 259.08Z" fill="#FFFDA9"/>
<path d="M79.8 286.2C78.92 287.14 80.34 288.56 81.22 287.6L113.44 252.98C114.32 252.04 112.9 250.62 112.02 251.56C112 251.76 112.88 250.76 79.8 286.2Z" fill="#FFFDA9"/>
<path d="M192.7 64.88C197.814 64.88 201.96 60.7342 201.96 55.62C201.96 50.5058 197.814 46.36 192.7 46.36C187.586 46.36 183.44 50.5058 183.44 55.62C183.44 60.7342 187.586 64.88 192.7 64.88Z" fill="#FFCECC"/>
<path d="M182.52 60.14C183.473 60.14 184.405 59.8573 185.198 59.3277C185.99 58.798 186.608 58.0453 186.973 57.1645C187.338 56.2838 187.433 55.3146 187.247 54.3797C187.061 53.4447 186.602 52.5858 185.928 51.9117C185.254 51.2377 184.395 50.7786 183.46 50.5926C182.525 50.4066 181.556 50.5021 180.675 50.8669C179.795 51.2317 179.042 51.8495 178.512 52.6421C177.983 53.4348 177.7 54.3667 177.7 55.32C177.697 55.9537 177.82 56.5817 178.062 57.1677C178.303 57.7536 178.658 58.286 179.106 58.7341C179.554 59.1823 180.086 59.5372 180.672 59.7785C181.258 60.0198 181.886 60.1426 182.52 60.14Z" fill="#5E503B"/>
</svg>
