<svg width="400" height="400" viewBox="0 0 400 400" fill="none" xmlns="http://www.w3.org/2000/svg">
<g clip-path="url(#clip0_902_10487)">
<path d="M35.1841 198.376C35.1841 240.811 52.0412 281.507 82.047 311.513C112.053 341.519 152.749 358.376 195.184 358.376C237.619 358.376 278.315 341.519 308.321 311.513C338.327 281.507 355.184 240.811 355.184 198.376C355.184 155.941 338.327 115.245 308.321 85.2389C278.315 55.2331 237.619 38.376 195.184 38.376C152.749 38.376 112.053 55.2331 82.047 85.2389C52.0412 115.245 35.1841 155.941 35.1841 198.376Z" fill="#D9EDFF"/>
<path d="M95.844 105.5L40.708 229.86" stroke="#020064" stroke-width="4" stroke-linecap="round" stroke-linejoin="round"/>
<path d="M146.424 311.964L40.708 229.86" stroke="#020064" stroke-width="4" stroke-linecap="round" stroke-linejoin="round"/>
<path d="M311.376 189.004L256.584 285.148" stroke="#00AED9" stroke-width="4" stroke-linecap="round" stroke-linejoin="round"/>
<path d="M95.8442 105.5L239.248 74.968" stroke="#020064" stroke-width="4" stroke-linecap="round" stroke-linejoin="round"/>
<path d="M311.376 189.004L239.248 74.968" stroke="#020064" stroke-width="4" stroke-linecap="round" stroke-linejoin="round"/>
<path d="M311.376 189.004L194.036 215.244L40.708 229.86" stroke="#020064" stroke-width="4" stroke-linecap="round" stroke-linejoin="round"/>
<path d="M95.8442 105.5L146.424 311.964" stroke="#020064" stroke-width="4" stroke-linecap="round" stroke-linejoin="round"/>
<path d="M239.248 74.968L194.036 215.244" stroke="#020064" stroke-width="4" stroke-linecap="round" stroke-linejoin="round"/>
<path d="M95.8442 105.5L256.584 285.148" stroke="#020064" stroke-width="4" stroke-linecap="round" stroke-linejoin="round"/>
<path d="M256.584 285.148L146.424 311.964" stroke="#020064" stroke-width="4" stroke-linecap="round" stroke-linejoin="round"/>
<path d="M40.708 229.86L239.248 74.968" stroke="#020064" stroke-width="4" stroke-linecap="round" stroke-linejoin="round"/>
<path d="M1.17212 222.452C1.17212 228.242 2.31249 233.975 4.52812 239.324C6.74375 244.673 9.99125 249.533 14.0852 253.627C18.1791 257.721 23.0394 260.968 28.3884 263.184C33.7374 265.4 39.4704 266.54 45.2601 266.54C51.0498 266.54 56.7829 265.4 62.1319 263.184C67.4809 260.968 72.3411 257.721 76.435 253.627C80.529 249.533 83.7765 244.673 85.9921 239.324C88.2078 233.975 89.3481 228.242 89.3481 222.452C89.3481 216.662 88.2078 210.929 85.9921 205.58C83.7765 200.231 80.529 195.371 76.435 191.277C72.3411 187.183 67.4809 183.936 62.1319 181.72C56.7829 179.504 51.0498 178.364 45.2601 178.364C39.4704 178.364 33.7374 179.504 28.3884 181.72C23.0394 183.936 18.1791 187.183 14.0852 191.277C9.99125 195.371 6.74375 200.231 4.52812 205.58C2.31249 210.929 1.17212 216.662 1.17212 222.452Z" fill="white" stroke="#020064" stroke-width="4" stroke-linecap="round" stroke-linejoin="round"/>
<path d="M68.8002 233.68C68.7916 232.722 68.4518 231.797 67.8387 231.061C67.2255 230.326 66.3766 229.825 65.4362 229.644V226.952C65.4738 224.277 64.9794 221.621 63.9817 219.138C62.9839 216.655 61.5028 214.396 59.6242 212.491C57.7456 210.586 55.5072 209.073 53.0389 208.04C50.5706 207.008 47.9217 206.476 45.2462 206.476C42.5706 206.476 39.9217 207.008 37.4534 208.04C34.9852 209.073 32.7467 210.586 30.8681 212.491C28.9896 214.396 27.5084 216.655 26.5107 219.138C25.5129 221.621 25.0185 224.277 25.0562 226.952V229.644C24.0753 229.828 23.1945 230.361 22.5772 231.145C21.96 231.929 21.6483 232.911 21.7001 233.907C21.7519 234.904 22.1637 235.848 22.8589 236.564C23.5541 237.28 24.4855 237.719 25.4802 237.8C26.428 242.341 28.9105 246.417 32.5102 249.343C36.1099 252.269 40.6073 253.866 45.2462 253.866C49.885 253.866 54.3824 252.269 57.9821 249.343C61.5818 246.417 64.0643 242.341 65.0122 237.8C66.0429 237.707 67.0022 237.234 67.7026 236.472C68.403 235.71 68.7944 234.715 68.8002 233.68Z" fill="white" stroke="#020064" stroke-width="4" stroke-linecap="round" stroke-linejoin="round"/>
<path d="M31.8042 236.204C31.8042 236.873 32.0701 237.515 32.5435 237.989C33.0168 238.462 33.6588 238.728 34.3282 238.728C34.9976 238.728 35.6396 238.462 36.1129 237.989C36.5863 237.515 36.8522 236.873 36.8522 236.204C36.8522 235.535 36.5863 234.893 36.1129 234.419C35.6396 233.946 34.9976 233.68 34.3282 233.68C33.6588 233.68 33.0168 233.946 32.5435 234.419C32.0701 234.893 31.8042 235.535 31.8042 236.204Z" fill="#B0D9FF"/>
<path d="M53.6721 236.204C53.6721 236.535 53.7374 236.864 53.8642 237.17C53.9911 237.476 54.177 237.754 54.4114 237.989C54.6458 238.223 54.924 238.409 55.2302 238.536C55.5365 238.663 55.8647 238.728 56.1961 238.728C56.5276 238.728 56.8558 238.663 57.162 238.536C57.4682 238.409 57.7465 238.223 57.9809 237.989C58.2152 237.754 58.4011 237.476 58.528 237.17C58.6548 236.864 58.7201 236.535 58.7201 236.204C58.7201 235.873 58.6548 235.544 58.528 235.238C58.4011 234.932 58.2152 234.654 57.9809 234.419C57.7465 234.185 57.4682 233.999 57.162 233.872C56.8558 233.745 56.5276 233.68 56.1961 233.68C55.8647 233.68 55.5365 233.745 55.2302 233.872C54.924 233.999 54.6458 234.185 54.4114 234.419C54.177 234.654 53.9911 234.932 53.8642 235.238C53.7374 235.544 53.6721 235.873 53.6721 236.204Z" fill="#B0D9FF"/>
<path d="M40.2161 242.244C41.7098 243.242 43.4657 243.774 45.2621 243.774C47.0584 243.774 48.8144 243.242 50.3081 242.244" stroke="#020064" stroke-width="4" stroke-linecap="round" stroke-linejoin="round"/>
<path d="M67.1321 221.904C67.1713 219.007 66.6346 216.131 65.5531 213.444C64.4716 210.756 62.8669 208.31 60.8322 206.247C58.7975 204.185 56.3733 202.547 53.7005 201.43C51.0276 200.312 48.1593 199.736 45.2621 199.736C42.365 199.736 39.4967 200.312 36.8238 201.43C34.1509 202.547 31.7268 204.185 29.6921 206.247C27.6574 208.31 26.0527 210.756 24.9712 213.444C23.8897 216.131 23.353 219.007 23.3921 221.904V226.952C23.3921 227.398 23.5691 227.825 23.8842 228.14C24.1993 228.455 24.6266 228.632 25.0721 228.632H28.4401C28.8857 228.632 29.313 228.455 29.6281 228.14C29.9431 227.825 30.1201 227.398 30.1201 226.952C30.1218 224.949 30.5259 222.966 31.3085 221.122C32.0912 219.277 33.2364 217.609 34.6761 216.216C35.044 215.855 35.49 215.583 35.9798 215.422C36.4695 215.261 36.9898 215.215 37.5001 215.288C39.6231 215.552 41.5955 216.523 43.1001 218.044C45.0883 220.094 47.7099 221.413 50.5408 221.789C53.3718 222.164 56.2465 221.573 58.7001 220.112C59.5445 221.751 60.0865 223.529 60.3001 225.36C60.3482 225.798 60.5558 226.203 60.8833 226.498C61.2108 226.793 61.6353 226.958 62.0761 226.96H65.4401C65.8861 226.959 66.3134 226.781 66.6283 226.465C66.9433 226.15 67.1201 225.722 67.1201 225.276L67.1321 221.904Z" fill="white" stroke="#020064" stroke-width="4" stroke-linecap="round" stroke-linejoin="round"/>
<path d="M67.1321 221.904C67.1713 219.007 66.6346 216.131 65.5531 213.444C64.4716 210.756 62.8669 208.31 60.8322 206.247C58.7975 204.185 56.3733 202.547 53.7005 201.43C51.0276 200.312 48.1593 199.736 45.2621 199.736C42.365 199.736 39.4967 200.312 36.8238 201.43C34.1509 202.547 31.7268 204.185 29.6921 206.247C27.6574 208.31 26.0527 210.756 24.9712 213.444C23.8897 216.131 23.353 219.007 23.3921 221.904V226.952C23.3921 227.398 23.5691 227.825 23.8842 228.14C24.1993 228.455 24.6266 228.632 25.0721 228.632H28.4401C28.8857 228.632 29.313 228.455 29.6281 228.14C29.9431 227.825 30.1201 227.398 30.1201 226.952C30.1218 224.949 30.5259 222.966 31.3085 221.122C32.0912 219.277 33.2364 217.609 34.6761 216.216C35.044 215.855 35.49 215.583 35.9798 215.422C36.4695 215.261 36.9898 215.215 37.5001 215.288C39.6231 215.552 41.5955 216.523 43.1001 218.044C45.0883 220.094 47.7099 221.413 50.5408 221.789C53.3718 222.164 56.2465 221.573 58.7001 220.112C59.5445 221.751 60.0865 223.529 60.3001 225.36C60.3482 225.798 60.5558 226.203 60.8833 226.498C61.2108 226.793 61.6353 226.958 62.0761 226.96H65.4401C65.8861 226.959 66.3134 226.781 66.6283 226.465C66.9433 226.15 67.1201 225.722 67.1201 225.276L67.1321 221.904Z" stroke="#020064" stroke-width="4" stroke-linecap="round" stroke-linejoin="round"/>
<path d="M58.7 220.112C58.8778 220.007 59.0206 219.851 59.1106 219.665C59.2006 219.479 59.2338 219.271 59.2061 219.066C59.1783 218.861 59.0909 218.669 58.9547 218.514C58.8184 218.358 58.6394 218.246 58.44 218.192C55.7995 217.448 53.5142 215.78 52 213.492" fill="#FFDF3D"/>
<path d="M58.7 220.112C58.8778 220.007 59.0206 219.851 59.1106 219.665C59.2006 219.479 59.2338 219.271 59.2061 219.066C59.1783 218.861 59.0909 218.669 58.9547 218.514C58.8184 218.358 58.6394 218.246 58.44 218.192C55.7995 217.448 53.5142 215.78 52 213.492" stroke="#020064" stroke-width="4" stroke-linecap="round" stroke-linejoin="round"/>
<path d="M35.1682 229.472C35.1682 229.803 35.2335 230.132 35.3603 230.438C35.4872 230.744 35.6731 231.022 35.9075 231.257C36.1418 231.491 36.4201 231.677 36.7263 231.804C37.0325 231.931 37.3608 231.996 37.6922 231.996C38.0237 231.996 38.3519 231.931 38.6581 231.804C38.9643 231.677 39.2426 231.491 39.477 231.257C39.7113 231.022 39.8972 230.744 40.0241 230.438C40.1509 230.132 40.2162 229.803 40.2162 229.472C40.2162 229.141 40.1509 228.812 40.0241 228.506C39.8972 228.2 39.7113 227.922 39.477 227.687C39.2426 227.453 38.9643 227.267 38.6581 227.14C38.3519 227.013 38.0237 226.948 37.6922 226.948C37.3608 226.948 37.0325 227.013 36.7263 227.14C36.4201 227.267 36.1418 227.453 35.9075 227.687C35.6731 227.922 35.4872 228.2 35.3603 228.506C35.2335 228.812 35.1682 229.141 35.1682 229.472Z" fill="#020064"/>
<path d="M50.3081 229.472C50.3081 230.141 50.574 230.783 51.0474 231.257C51.5207 231.73 52.1627 231.996 52.8321 231.996C53.5015 231.996 54.1435 231.73 54.6168 231.257C55.0902 230.783 55.3561 230.141 55.3561 229.472C55.3561 228.803 55.0902 228.161 54.6168 227.687C54.1435 227.214 53.5015 226.948 52.8321 226.948C52.1627 226.948 51.5207 227.214 51.0474 227.687C50.574 228.161 50.3081 228.803 50.3081 229.472Z" fill="#020064"/>
<path d="M45.2602 200.032C48.1253 200.027 50.9632 200.587 53.6118 201.68C56.2604 202.773 58.6677 204.377 60.6962 206.4C61.5907 204.998 62.0718 203.371 62.0842 201.708C62.0842 195.204 54.5522 189.928 45.2602 189.928C35.9682 189.928 28.4602 195.204 28.4602 201.708C28.4666 203.369 28.9407 204.995 29.8282 206.4C31.8561 204.377 34.2627 202.773 36.9106 201.681C39.5585 200.588 42.3957 200.028 45.2602 200.032Z" fill="white" stroke="#020064" stroke-width="4" stroke-linecap="round" stroke-linejoin="round"/>
<path d="M192.956 74.156C192.956 85.8489 197.601 97.0628 205.869 105.331C214.137 113.599 225.351 118.244 237.044 118.244C248.737 118.244 259.951 113.599 268.219 105.331C276.487 97.0628 281.132 85.8489 281.132 74.156C281.132 62.4631 276.487 51.2492 268.219 42.9811C259.951 34.713 248.737 30.068 237.044 30.068C225.351 30.068 214.137 34.713 205.869 42.9811C197.601 51.2492 192.956 62.4631 192.956 74.156Z" fill="white" stroke="#020064" stroke-width="4" stroke-linecap="round" stroke-linejoin="round"/>
<path d="M265.64 85.6C265.63 84.5145 265.244 83.4659 264.549 82.6325C263.853 81.7991 262.89 81.2321 261.824 81.028V77.976C261.824 71.9089 259.414 66.0903 255.124 61.8002C250.834 57.5101 245.015 55.1 238.948 55.1C232.881 55.1 227.063 57.5101 222.772 61.8002C218.482 66.0903 216.072 71.9089 216.072 77.976V81.028C214.958 81.2336 213.957 81.8372 213.255 82.7263C212.554 83.6154 212.199 84.7293 212.258 85.8605C212.316 86.9917 212.785 88.063 213.575 88.8746C214.365 89.6862 215.423 90.1829 216.552 90.272C217.624 95.4203 220.436 100.042 224.516 103.36C228.595 106.679 233.694 108.49 238.952 108.49C244.211 108.49 249.309 106.679 253.389 103.36C257.468 100.042 260.281 95.4203 261.352 90.272C262.519 90.1647 263.605 89.627 264.398 88.7634C265.19 87.8998 265.633 86.7722 265.64 85.6Z" fill="white" stroke="#020064" stroke-width="4" stroke-linecap="round" stroke-linejoin="round"/>
<path d="M265.64 85.6C265.63 84.5145 265.244 83.4659 264.549 82.6325C263.853 81.7991 262.89 81.2321 261.824 81.028V77.976C261.824 71.9089 259.414 66.0903 255.124 61.8002C250.834 57.5101 245.015 55.1 238.948 55.1C232.881 55.1 227.063 57.5101 222.772 61.8002C218.482 66.0903 216.072 71.9089 216.072 77.976V81.028C214.958 81.2336 213.957 81.8372 213.255 82.7263C212.554 83.6154 212.199 84.7293 212.258 85.8605C212.316 86.9917 212.785 88.063 213.575 88.8746C214.365 89.6862 215.423 90.1829 216.552 90.272C217.624 95.4203 220.436 100.042 224.516 103.36C228.595 106.679 233.694 108.49 238.952 108.49C244.211 108.49 249.309 106.679 253.389 103.36C257.468 100.042 260.281 95.4203 261.352 90.272C262.519 90.1647 263.605 89.627 264.398 88.7634C265.19 87.8998 265.633 86.7722 265.64 85.6V85.6Z" stroke="#020064" stroke-width="4" stroke-linecap="round" stroke-linejoin="round"/>
<path d="M227.512 80.828C227.512 81.5865 227.814 82.314 228.35 82.8503C228.886 83.3867 229.614 83.688 230.372 83.688C231.131 83.688 231.858 83.3867 232.395 82.8503C232.931 82.314 233.232 81.5865 233.232 80.828C233.232 80.0695 232.931 79.342 232.395 78.8057C231.858 78.2693 231.131 77.968 230.372 77.968C229.614 77.968 228.886 78.2693 228.35 78.8057C227.814 79.342 227.512 80.0695 227.512 80.828Z" fill="#020064"/>
<path d="M244.668 80.828C244.668 81.5865 244.97 82.314 245.506 82.8503C246.042 83.3867 246.77 83.688 247.528 83.688C248.287 83.688 249.014 83.3867 249.551 82.8503C250.087 82.314 250.388 81.5865 250.388 80.828C250.388 80.0695 250.087 79.342 249.551 78.8057C249.014 78.2693 248.287 77.968 247.528 77.968C246.77 77.968 246.042 78.2693 245.506 78.8057C244.97 79.342 244.668 80.0695 244.668 80.828Z" fill="#020064"/>
<path d="M223.7 88.452C223.7 89.2105 224.002 89.938 224.538 90.4743C225.074 91.0107 225.802 91.312 226.56 91.312C227.319 91.312 228.046 91.0107 228.583 90.4743C229.119 89.938 229.42 89.2105 229.42 88.452C229.42 87.6935 229.119 86.966 228.583 86.4297C228.046 85.8933 227.319 85.592 226.56 85.592C225.802 85.592 225.074 85.8933 224.538 86.4297C224.002 86.966 223.7 87.6935 223.7 88.452Z" fill="#B0D9FF"/>
<path d="M248.48 88.452C248.48 89.2105 248.782 89.938 249.318 90.4743C249.854 91.0107 250.582 91.312 251.34 91.312C252.099 91.312 252.826 91.0107 253.363 90.4743C253.899 89.938 254.2 89.2105 254.2 88.452C254.2 87.6935 253.899 86.966 253.363 86.4297C252.826 85.8933 252.099 85.592 251.34 85.592C250.582 85.592 249.854 85.8933 249.318 86.4297C248.782 86.966 248.48 87.6935 248.48 88.452Z" fill="#B0D9FF"/>
<path d="M233.232 95.3C234.925 96.4289 236.915 97.0313 238.95 97.0313C240.985 97.0313 242.975 96.4289 244.668 95.3" stroke="#020064" stroke-width="4" stroke-linecap="round" stroke-linejoin="round"/>
<path d="M214.168 60.8V77.956C214.168 78.4613 214.369 78.946 214.726 79.3037C215.083 79.6614 215.567 79.8629 216.072 79.864H218L225.6 60.8H214.168Z" fill="white" stroke="#020064" stroke-width="4" stroke-linecap="round" stroke-linejoin="round"/>
<path d="M263.732 62.716C263.731 58.6716 262.124 54.7932 259.264 51.9338C256.403 49.0743 252.525 47.468 248.48 47.468H231.324C230.596 47.4681 229.883 47.2595 229.27 46.8667C228.656 46.4739 228.169 45.9135 227.864 45.252C227.664 44.8086 227.348 44.4267 226.951 44.1455C226.554 43.8643 226.089 43.694 225.604 43.652H222.364C219.444 43.5955 216.607 44.6213 214.398 46.5318C212.189 48.4423 210.765 51.1024 210.4 54C210.115 56.9913 211.019 59.9747 212.915 62.3054C214.812 64.6361 217.549 66.127 220.536 66.456C221.076 68.4798 222.21 70.2951 223.792 71.6671C225.375 73.0392 227.332 73.9048 229.412 74.152H233.228C233.379 74.1506 233.525 74.1002 233.644 74.0083C233.763 73.9165 233.85 73.7882 233.889 73.643C233.929 73.4978 233.92 73.3435 233.865 73.2037C233.809 73.0638 233.709 72.9459 233.58 72.868C231.848 71.8337 230.586 70.165 230.064 68.216C230.005 68.02 229.992 67.8127 230.027 67.611C230.063 67.4092 230.144 67.2184 230.267 67.054C230.389 66.8895 230.547 66.7559 230.73 66.6639C230.913 66.5719 231.115 66.524 231.32 66.524H246.896C247.397 66.5239 247.893 66.6229 248.356 66.8151C248.819 67.0073 249.239 67.289 249.592 67.644L259.916 77.964H261.82C262.071 77.9645 262.319 77.9155 262.551 77.8198C262.783 77.7241 262.993 77.5836 263.171 77.4063C263.348 77.229 263.488 77.0185 263.584 76.7868C263.68 76.555 263.729 76.3067 263.728 76.056L263.732 62.716Z" fill="white"/>
<path d="M263.732 62.716C263.731 58.6716 262.124 54.7932 259.264 51.9338C256.403 49.0743 252.525 47.468 248.48 47.468H231.324C230.596 47.4681 229.883 47.2595 229.27 46.8667C228.656 46.4739 228.169 45.9135 227.864 45.252C227.664 44.8086 227.348 44.4267 226.951 44.1455C226.554 43.8643 226.089 43.694 225.604 43.652H222.364C219.444 43.5955 216.607 44.6213 214.398 46.5318C212.189 48.4423 210.765 51.1024 210.4 54C210.115 56.9913 211.019 59.9747 212.915 62.3054C214.812 64.6361 217.549 66.127 220.536 66.456C221.076 68.4798 222.21 70.2951 223.792 71.6671C225.375 73.0392 227.332 73.9048 229.412 74.152H233.228C233.379 74.1506 233.525 74.1002 233.644 74.0083C233.763 73.9165 233.85 73.7882 233.889 73.643C233.929 73.4978 233.92 73.3435 233.865 73.2037C233.809 73.0638 233.709 72.9459 233.58 72.868C231.848 71.8337 230.586 70.165 230.064 68.216C230.005 68.02 229.992 67.8128 230.027 67.611C230.063 67.4092 230.144 67.2184 230.267 67.054C230.389 66.8895 230.547 66.7559 230.73 66.6639C230.913 66.5719 231.115 66.524 231.32 66.524H246.896C247.397 66.5239 247.893 66.6229 248.356 66.8151C248.819 67.0073 249.239 67.289 249.592 67.644L259.916 77.964H261.82C262.071 77.9645 262.319 77.9155 262.551 77.8198C262.783 77.7241 262.993 77.5836 263.171 77.4063C263.348 77.229 263.488 77.0185 263.584 76.7868C263.68 76.555 263.729 76.3067 263.728 76.056L263.732 62.716Z" stroke="#020064" stroke-width="4" stroke-linecap="round" stroke-linejoin="round"/>
<path d="M295.57 282.715L311.576 266.709L339.586 294.72L323.579 310.726L295.57 282.715Z" fill="white" stroke="#020064" stroke-width="4" stroke-linecap="round" stroke-linejoin="round"/>
<path d="M394 364.4L393.236 365.164C390.144 368.231 385.965 369.952 381.61 369.952C377.255 369.952 373.076 368.231 369.984 365.164L319.444 314.604C318.422 313.573 317.848 312.18 317.848 310.728C317.848 309.276 318.422 307.883 319.444 306.852L335.708 290.588C336.738 289.566 338.131 288.992 339.582 288.992C341.033 288.992 342.426 289.566 343.456 290.588L394 341.128C395.535 342.652 396.753 344.465 397.584 346.462C398.415 348.459 398.843 350.601 398.843 352.764C398.843 354.927 398.415 357.069 397.584 359.066C396.753 361.063 395.535 362.876 394 364.4Z" fill="#B0D9FF"/>
<path d="M394 364.4L393.236 365.164C390.144 368.231 385.965 369.952 381.61 369.952C377.255 369.952 373.076 368.231 369.984 365.164L319.444 314.604C318.422 313.573 317.848 312.18 317.848 310.728C317.848 309.276 318.422 307.883 319.444 306.852L335.708 290.588C336.738 289.566 338.131 288.992 339.582 288.992C341.033 288.992 342.426 289.566 343.456 290.588L394 341.128C395.535 342.652 396.753 344.465 397.584 346.462C398.415 348.459 398.843 350.601 398.843 352.764C398.843 354.927 398.415 357.069 397.584 359.066C396.753 361.063 395.535 362.876 394 364.4Z" stroke="#020064" stroke-width="4" stroke-linecap="round" stroke-linejoin="round"/>
<path d="M175.146 266.997C186.898 286.201 205.796 299.949 227.684 305.219C249.573 310.488 272.658 306.847 291.861 295.096C311.065 283.344 324.814 264.446 330.083 242.557C335.353 220.669 331.711 197.584 319.96 178.381C308.208 159.177 289.31 145.428 267.422 140.159C245.533 134.889 222.448 138.531 203.245 150.282C184.041 162.033 170.292 180.932 165.023 202.82C159.753 224.709 163.395 247.794 175.146 266.997Z" fill="white" stroke="#020064" stroke-width="4" stroke-linecap="round" stroke-linejoin="round"/>
<path d="M295.572 174.672C305.069 184.169 311.536 196.269 314.156 209.442C316.775 222.615 315.43 236.269 310.29 248.677C305.15 261.085 296.447 271.691 285.279 279.152C274.112 286.614 260.983 290.596 247.552 290.596C234.121 290.596 220.992 286.614 209.825 279.152C198.658 271.691 189.954 261.085 184.814 248.677C179.674 236.269 178.329 222.615 180.949 209.442C183.568 196.269 190.035 184.169 199.532 174.672C205.838 168.366 213.324 163.363 221.564 159.95C229.803 156.537 238.634 154.78 247.552 154.78C256.47 154.78 265.301 156.537 273.541 159.95C281.78 163.363 289.266 168.366 295.572 174.672Z" fill="#B0D9FF"/>
<path d="M245.916 255.24C238.112 255.284 230.453 257.344 223.68 261.22C216.907 265.097 211.251 270.658 207.26 277.364C218.539 285.669 232.109 290.286 246.113 290.583C260.116 290.881 273.87 286.845 285.492 279.028C281.645 271.87 275.938 265.882 268.973 261.695C262.008 257.509 254.042 255.279 245.916 255.24Z" fill="white"/>
<path d="M245.916 255.24C238.112 255.284 230.453 257.344 223.68 261.22C216.907 265.097 211.251 270.658 207.26 277.364C218.539 285.669 232.109 290.286 246.113 290.583C260.116 290.881 273.87 286.845 285.492 279.028C281.645 271.87 275.938 265.882 268.973 261.695C262.008 257.509 254.042 255.279 245.916 255.24V255.24Z" stroke="#020064" stroke-width="4" stroke-linejoin="round"/>
<path d="M259.332 257.42C258.612 257.191 257.885 256.985 257.152 256.804C256.305 256.59 255.553 256.099 255.017 255.409C254.481 254.719 254.19 253.87 254.192 252.996V239.484H238.284V252.844C238.284 253.723 237.988 254.576 237.445 255.266C236.902 255.957 236.142 256.445 235.288 256.652C234.368 256.876 233.452 257.124 232.548 257.408L232.456 257.528C232.691 260.942 234.214 264.139 236.715 266.473C239.216 268.808 242.51 270.107 245.932 270.107C249.354 270.107 252.648 268.808 255.149 266.473C257.651 264.139 259.173 260.942 259.408 257.528L259.332 257.42Z" fill="white" stroke="#020064" stroke-width="4" stroke-linecap="round" stroke-linejoin="round"/>
<path d="M281.732 206C281.732 215.548 277.939 224.705 271.188 231.456C264.437 238.207 255.28 242 245.732 242C236.184 242 227.028 238.207 220.276 231.456C213.525 224.705 209.732 215.548 209.732 206C209.732 186.096 219.892 170.48 230.228 167.512C231.089 167.264 232.001 167.253 232.868 167.479C233.735 167.705 234.525 168.16 235.156 168.796C246.348 180.052 281.732 166.024 281.732 206Z" fill="white"/>
<path d="M281.732 206C281.732 215.548 277.939 224.705 271.188 231.456C264.437 238.207 255.28 242 245.732 242C236.184 242 227.028 238.207 220.276 231.456C213.525 224.705 209.732 215.548 209.732 206C209.732 186.096 219.892 170.48 230.228 167.512C231.089 167.264 232.001 167.253 232.868 167.479C233.735 167.705 234.525 168.16 235.156 168.796C246.348 180.052 281.732 166.024 281.732 206Z" stroke="#020064" stroke-width="4" stroke-linecap="round" stroke-linejoin="round"/>
<path d="M275.764 215L269.72 218L265.36 202.744C264.953 201.279 264 200.025 262.698 199.24C261.396 198.454 259.842 198.197 258.356 198.52C250.05 200.499 241.395 200.499 233.088 198.52C231.602 198.198 230.049 198.456 228.747 199.241C227.445 200.026 226.492 201.279 226.084 202.744L221.724 218L215.772 215C207.208 215 207.772 230 217.268 230H217.296C219.176 236.083 222.954 241.405 228.078 245.184C233.202 248.964 239.401 251.003 245.768 251.003C252.135 251.003 258.335 248.964 263.458 245.184C268.582 241.405 272.361 236.083 274.24 230C283.748 230 284.324 215 275.764 215Z" fill="white" stroke="#020064" stroke-width="4" stroke-linecap="round" stroke-linejoin="round"/>
<path d="M232.884 215.752C232.884 216.692 233.257 217.593 233.922 218.258C234.587 218.923 235.488 219.296 236.428 219.296C237.368 219.296 238.269 218.923 238.934 218.258C239.599 217.593 239.972 216.692 239.972 215.752C239.972 214.812 239.599 213.911 238.934 213.246C238.269 212.581 237.368 212.208 236.428 212.208C235.488 212.208 234.587 212.581 233.922 213.246C233.257 213.911 232.884 214.812 232.884 215.752Z" fill="#020064"/>
<path d="M251.62 215.752C251.62 216.692 251.994 217.593 252.658 218.258C253.323 218.923 254.224 219.296 255.164 219.296C256.104 219.296 257.005 218.923 257.67 218.258C258.335 217.593 258.708 216.692 258.708 215.752C258.708 214.812 258.335 213.911 257.67 213.246C257.005 212.581 256.104 212.208 255.164 212.208C254.224 212.208 253.323 212.581 252.658 213.246C251.994 213.911 251.62 214.812 251.62 215.752Z" fill="#020064"/>
<path d="M230.8 224C230.8 224.594 230.624 225.174 230.294 225.667C229.964 226.161 229.496 226.545 228.947 226.772C228.399 226.999 227.795 227.058 227.213 226.942C226.631 226.826 226.097 226.54 225.677 226.12C225.258 225.7 224.973 225.165 224.857 224.583C224.742 224.001 224.802 223.397 225.03 222.849C225.257 222.301 225.642 221.833 226.136 221.504C226.63 221.174 227.211 220.999 227.804 221C228.198 221 228.588 221.078 228.951 221.228C229.315 221.379 229.646 221.6 229.924 221.879C230.202 222.158 230.423 222.488 230.573 222.852C230.723 223.216 230.801 223.606 230.8 224Z" fill="#B0D9FF"/>
<path d="M266.8 224C266.8 224.593 266.624 225.173 266.294 225.667C265.965 226.16 265.496 226.545 264.948 226.772C264.4 226.999 263.797 227.058 263.215 226.942C262.633 226.827 262.098 226.541 261.679 226.121C261.259 225.702 260.973 225.167 260.858 224.585C260.742 224.003 260.801 223.4 261.028 222.852C261.255 222.304 261.64 221.835 262.133 221.506C262.627 221.176 263.207 221 263.8 221C264.596 221 265.359 221.316 265.921 221.879C266.484 222.441 266.8 223.204 266.8 224Z" fill="#B0D9FF"/>
<path d="M238.308 233.732C240.529 235.211 243.138 236 245.806 236C248.474 236 251.083 235.211 253.304 233.732" stroke="#020064" stroke-width="4" stroke-linecap="round" stroke-linejoin="round"/>
<path d="M295.572 174.672C305.069 184.169 311.536 196.269 314.156 209.442C316.775 222.615 315.43 236.269 310.29 248.677C305.15 261.085 296.447 271.691 285.279 279.152C274.112 286.614 260.983 290.596 247.552 290.596C234.121 290.596 220.992 286.614 209.825 279.152C198.658 271.691 189.954 261.085 184.814 248.677C179.674 236.269 178.329 222.615 180.949 209.442C183.568 196.269 190.035 184.169 199.532 174.672C205.838 168.366 213.324 163.363 221.564 159.95C229.803 156.537 238.634 154.78 247.552 154.78C256.47 154.78 265.301 156.537 273.541 159.95C281.78 163.363 289.266 168.366 295.572 174.672V174.672Z" stroke="#020064" stroke-width="4" stroke-linecap="round" stroke-linejoin="round"/>
<path d="M117.084 305.356C117.084 312.795 120.039 319.929 125.299 325.189C130.559 330.449 137.693 333.404 145.132 333.404C152.571 333.404 159.705 330.449 164.965 325.189C170.225 319.929 173.18 312.795 173.18 305.356C173.18 297.917 170.225 290.783 164.965 285.523C159.705 280.263 152.571 277.308 145.132 277.308C137.693 277.308 130.559 280.263 125.299 285.523C120.039 290.783 117.084 297.917 117.084 305.356Z" fill="white" stroke="#020064" stroke-width="4" stroke-linecap="round" stroke-linejoin="round"/>
<path d="M136.108 304.704C136.108 307.097 137.059 309.393 138.751 311.085C140.444 312.777 142.739 313.728 145.132 313.728C147.525 313.728 149.821 312.777 151.513 311.085C153.205 309.393 154.156 307.097 154.156 304.704V300.192C154.156 297.799 153.205 295.503 151.513 293.811C149.821 292.119 147.525 291.168 145.132 291.168C142.739 291.168 140.444 292.119 138.751 293.811C137.059 295.503 136.108 297.799 136.108 300.192V304.704Z" fill="white" stroke="#020064" stroke-width="4" stroke-linecap="round" stroke-linejoin="round"/>
<path d="M163.884 326.212C158.737 330.837 152.061 333.396 145.14 333.396C138.22 333.396 131.544 330.837 126.396 326.212C127.936 322.515 130.536 319.356 133.867 317.134C137.198 314.911 141.113 313.723 145.118 313.719C149.122 313.716 153.039 314.897 156.374 317.114C159.709 319.332 162.314 322.486 163.86 326.18" fill="#B0D9FF"/>
<path d="M163.884 326.212C158.737 330.837 152.061 333.396 145.14 333.396C138.22 333.396 131.544 330.837 126.396 326.212C127.936 322.515 130.536 319.356 133.867 317.134C137.198 314.911 141.113 313.723 145.118 313.719C149.122 313.716 153.039 314.897 156.374 317.114C159.709 319.332 162.314 322.486 163.86 326.18" stroke="#020064" stroke-width="4" stroke-linecap="round" stroke-linejoin="round"/>
<path d="M136.184 299.028C136.421 297.208 137.207 295.504 138.437 294.143C139.668 292.781 141.284 291.827 143.07 291.408C144.857 290.988 146.729 291.124 148.436 291.795C150.144 292.467 151.606 293.644 152.628 295.168C150.493 297.239 147.836 298.692 144.94 299.371C142.044 300.051 139.018 299.932 136.184 299.028Z" fill="#B0D9FF" stroke="#020064" stroke-width="4" stroke-linecap="round" stroke-linejoin="round"/>
<path d="M68.9001 103.016C68.9001 110.455 71.8552 117.589 77.1152 122.849C82.3752 128.109 89.5093 131.064 96.9481 131.064C104.387 131.064 111.521 128.109 116.781 122.849C122.041 117.589 124.996 110.455 124.996 103.016C124.996 95.5772 122.041 88.4431 116.781 83.1831C111.521 77.923 104.387 74.968 96.9481 74.968C89.5093 74.968 82.3752 77.923 77.1152 83.1831C71.8552 88.4431 68.9001 95.5772 68.9001 103.016Z" fill="white" stroke="#020064" stroke-width="4" stroke-linecap="round" stroke-linejoin="round"/>
<path d="M87.9202 102.364C87.9699 104.725 88.9427 106.972 90.63 108.625C92.3172 110.277 94.5847 111.202 96.9462 111.202C99.3076 111.202 101.575 110.277 103.262 108.625C104.95 106.972 105.922 104.725 105.972 102.364V97.852C105.922 95.491 104.95 93.2436 103.262 91.5914C101.575 89.9393 99.3076 89.014 96.9462 89.014C94.5847 89.014 92.3172 89.9393 90.63 91.5914C88.9427 93.2436 87.9699 95.491 87.9202 97.852V102.364Z" fill="white" stroke="#020064" stroke-width="4" stroke-linecap="round" stroke-linejoin="round"/>
<path d="M115.696 123.876C110.547 128.499 103.872 131.056 96.952 131.056C90.0324 131.056 83.3568 128.499 78.208 123.876C79.7482 120.179 82.3476 117.02 85.6788 114.798C89.0101 112.575 92.9245 111.387 96.9294 111.383C100.934 111.38 104.851 112.561 108.186 114.778C111.521 116.996 114.125 120.15 115.672 123.844" fill="#B0D9FF"/>
<path d="M115.696 123.876C110.547 128.499 103.872 131.056 96.952 131.056C90.0324 131.056 83.3568 128.499 78.208 123.876C79.7482 120.179 82.3476 117.02 85.6788 114.798C89.0101 112.575 92.9245 111.387 96.9294 111.383C100.934 111.38 104.851 112.561 108.186 114.778C111.521 116.996 114.125 120.15 115.672 123.844" stroke="#020064" stroke-width="4" stroke-linecap="round" stroke-linejoin="round"/>
<path d="M88 96.688C88.2355 94.8673 89.021 93.1619 90.2515 91.7995C91.4819 90.4371 93.0988 89.4825 94.8862 89.0634C96.6735 88.6443 98.5462 88.7805 100.254 89.4539C101.962 90.1273 103.424 91.3058 104.444 92.832C102.308 94.9018 99.6507 96.3535 96.7549 97.0325C93.8591 97.7116 90.8334 97.5925 88 96.688Z" fill="#B0D9FF" stroke="#020064" stroke-width="4" stroke-linecap="round" stroke-linejoin="round"/>
</g>
<defs>
<clipPath id="clip0_902_10487">
<rect width="400" height="400" fill="white"/>
</clipPath>
</defs>
</svg>
