<svg width="400" height="400" viewBox="0 0 400 400" fill="none" xmlns="http://www.w3.org/2000/svg">
<g clip-path="url(#clip0_902_5577)">
<path d="M35.1841 198.324C35.1841 240.759 52.0412 281.455 82.047 311.461C112.053 341.467 152.749 358.324 195.184 358.324C237.619 358.324 278.315 341.467 308.321 311.461C338.327 281.455 355.184 240.759 355.184 198.324C355.184 155.889 338.327 115.193 308.321 85.1869C278.315 55.1811 237.619 38.324 195.184 38.324C152.749 38.324 112.053 55.1811 82.047 85.1869C52.0412 115.193 35.1841 155.889 35.1841 198.324Z" fill="#C7F0FF" stroke="#ACE5FA" stroke-width="4"/>
<path d="M95.844 105.5L40.708 229.86" stroke="#8CA4B8" stroke-width="4" stroke-linecap="round" stroke-linejoin="round"/>
<path d="M146.424 311.964L40.708 229.86" stroke="#8CA4B8" stroke-width="4" stroke-linecap="round" stroke-linejoin="round"/>
<path d="M311.376 189.004L256.584 285.148" stroke="#00AED9" stroke-width="4" stroke-linecap="round" stroke-linejoin="round"/>
<path d="M95.8438 105.5L239.248 74.968" stroke="#8CA4B8" stroke-width="4" stroke-linecap="round" stroke-linejoin="round"/>
<path d="M311.376 189.004L239.248 74.968" stroke="#8CA4B8" stroke-width="4" stroke-linecap="round" stroke-linejoin="round"/>
<path d="M311.376 189.004L194.036 215.244L40.708 229.86" stroke="#00AED9" stroke-width="4" stroke-linecap="round" stroke-linejoin="round"/>
<path d="M95.8438 105.5L146.424 311.964" stroke="#8CA4B8" stroke-width="4" stroke-linecap="round" stroke-linejoin="round"/>
<path d="M239.248 74.968L194.036 215.244" stroke="#8CA4B8" stroke-width="4" stroke-linecap="round" stroke-linejoin="round"/>
<path d="M95.8438 105.5L256.584 285.148" stroke="#8CA4B8" stroke-width="4" stroke-linecap="round" stroke-linejoin="round"/>
<path d="M256.584 285.148L146.424 311.964" stroke="#8CA4B8" stroke-width="4" stroke-linecap="round" stroke-linejoin="round"/>
<path d="M40.708 229.86L239.248 74.968" stroke="#8CA4B8" stroke-width="4" stroke-linecap="round" stroke-linejoin="round"/>
<path d="M1.17188 222.452C1.17187 228.242 2.31224 233.975 4.52787 239.324C6.7435 244.673 9.991 249.533 14.085 253.627C18.1789 257.721 23.0391 260.968 28.3881 263.184C33.7371 265.4 39.4702 266.54 45.2599 266.54C51.0496 266.54 56.7826 265.4 62.1316 263.184C67.4806 260.968 72.3409 257.721 76.4348 253.627C80.5287 249.533 83.7763 244.673 85.9919 239.324C88.2075 233.975 89.3479 228.242 89.3479 222.452C89.3479 216.662 88.2075 210.929 85.9919 205.58C83.7763 200.231 80.5287 195.371 76.4348 191.277C72.3409 187.183 67.4806 183.936 62.1316 181.72C56.7826 179.504 51.0496 178.364 45.2599 178.364C39.4702 178.364 33.7371 179.504 28.3881 181.72C23.0391 183.936 18.1789 187.183 14.085 191.277C9.991 195.371 6.7435 200.231 4.52787 205.58C2.31224 210.929 1.17187 216.662 1.17188 222.452Z" fill="white" stroke="#45413C" stroke-width="4" stroke-linecap="round" stroke-linejoin="round"/>
<path d="M68.7999 233.68C68.7913 232.722 68.4516 231.797 67.8384 231.061C67.2252 230.326 66.3764 229.825 65.4359 229.644V226.952C65.4736 224.277 64.9792 221.621 63.9814 219.138C62.9837 216.655 61.5025 214.396 59.624 212.491C57.7454 210.586 55.507 209.073 53.0387 208.04C50.5704 207.008 47.9215 206.476 45.2459 206.476C42.5704 206.476 39.9215 207.008 37.4532 208.04C34.9849 209.073 32.7465 210.586 30.8679 212.491C28.9894 214.396 27.5082 216.655 26.5104 219.138C25.5127 221.621 25.0183 224.277 25.0559 226.952V229.644C24.0751 229.828 23.1942 230.361 22.577 231.145C21.9597 231.929 21.6481 232.911 21.6999 233.908C21.7517 234.904 22.1635 235.848 22.8587 236.564C23.5539 237.28 24.4853 237.719 25.4799 237.8C26.4278 242.341 28.9103 246.417 32.51 249.343C36.1097 252.269 40.6071 253.866 45.2459 253.866C49.8848 253.866 54.3822 252.269 57.9819 249.343C61.5816 246.417 64.0641 242.341 65.0119 237.8C66.0427 237.707 67.0019 237.234 67.7024 236.472C68.4028 235.71 68.7941 234.715 68.7999 233.68Z" fill="#FFCEBF" stroke="#45413C" stroke-width="4" stroke-linecap="round" stroke-linejoin="round"/>
<path d="M31.8037 236.204C31.8037 236.873 32.0696 237.515 32.543 237.989C33.0163 238.462 33.6583 238.728 34.3277 238.728C34.9971 238.728 35.6391 238.462 36.1124 237.989C36.5858 237.515 36.8517 236.873 36.8517 236.204C36.8517 235.535 36.5858 234.893 36.1124 234.419C35.6391 233.946 34.9971 233.68 34.3277 233.68C33.6583 233.68 33.0163 233.946 32.543 234.419C32.0696 234.893 31.8037 235.535 31.8037 236.204Z" fill="#FFB59E"/>
<path d="M53.6719 236.204C53.6719 236.535 53.7372 236.864 53.864 237.17C53.9908 237.476 54.1768 237.754 54.4111 237.989C54.6455 238.223 54.9238 238.409 55.23 238.536C55.5362 238.663 55.8644 238.728 56.1959 238.728C56.5273 238.728 56.8555 238.663 57.1618 238.536C57.468 238.409 57.7462 238.223 57.9806 237.989C58.215 237.754 58.4009 237.476 58.5277 237.17C58.6546 236.864 58.7199 236.535 58.7199 236.204C58.7199 235.873 58.6546 235.544 58.5277 235.238C58.4009 234.932 58.215 234.654 57.9806 234.419C57.7462 234.185 57.468 233.999 57.1618 233.872C56.8555 233.745 56.5273 233.68 56.1959 233.68C55.8644 233.68 55.5362 233.745 55.23 233.872C54.9238 233.999 54.6455 234.185 54.4111 234.419C54.1768 234.654 53.9908 234.932 53.864 235.238C53.7372 235.544 53.6719 235.873 53.6719 236.204Z" fill="#FFB59E"/>
<path d="M40.2158 242.244C41.7095 243.242 43.4655 243.774 45.2618 243.774C47.0581 243.774 48.8141 243.242 50.3078 242.244" stroke="#45413C" stroke-width="4" stroke-linecap="round" stroke-linejoin="round"/>
<path d="M67.1317 221.904C67.1708 219.007 66.6341 216.131 65.5526 213.444C64.4711 210.756 62.8664 208.31 60.8317 206.247C58.797 204.185 56.3728 202.547 53.7 201.43C51.0271 200.312 48.1588 199.736 45.2617 199.736C42.3645 199.736 39.4962 200.312 36.8233 201.43C34.1505 202.547 31.7263 204.185 29.6916 206.247C27.6569 208.31 26.0522 210.756 24.9707 213.444C23.8892 216.131 23.3525 219.007 23.3916 221.904V226.952C23.3916 227.398 23.5686 227.825 23.8837 228.14C24.1988 228.455 24.6261 228.632 25.0716 228.632H28.4396C28.8852 228.632 29.3125 228.455 29.6276 228.14C29.9426 227.825 30.1196 227.398 30.1196 226.952C30.1213 224.949 30.5254 222.966 31.308 221.122C32.0907 219.277 33.2359 217.609 34.6756 216.216C35.0435 215.855 35.4896 215.583 35.9793 215.422C36.469 215.261 36.9893 215.215 37.4996 215.288C39.6226 215.552 41.595 216.523 43.0996 218.044C45.0878 220.094 47.7094 221.413 50.5403 221.789C53.3713 222.164 56.2461 221.573 58.6996 220.112C59.544 221.751 60.086 223.529 60.2996 225.36C60.3477 225.798 60.5553 226.203 60.8828 226.498C61.2103 226.793 61.6349 226.958 62.0756 226.96H65.4397C65.8856 226.959 66.3129 226.781 66.6278 226.465C66.9428 226.15 67.1197 225.722 67.1197 225.276L67.1317 221.904Z" fill="#FF6196" stroke="#45413C" stroke-width="4" stroke-linecap="round" stroke-linejoin="round"/>
<path d="M45.2598 206.76C49.6357 206.756 53.9371 207.892 57.7406 210.056C61.5441 212.22 64.7187 215.337 66.9518 219.1C66.2678 213.831 63.6893 208.991 59.6978 205.484C55.7064 201.978 50.5749 200.044 45.2618 200.044C39.9487 200.044 34.8172 201.978 30.8257 205.484C26.8343 208.991 24.2558 213.831 23.5718 219.1C25.8045 215.337 28.9784 212.221 32.7812 210.057C36.584 207.893 40.8846 206.757 45.2598 206.76Z" fill="#FF87AF"/>
<path d="M67.1317 221.904C67.1708 219.007 66.6341 216.131 65.5526 213.444C64.4711 210.756 62.8664 208.31 60.8317 206.247C58.797 204.185 56.3728 202.547 53.7 201.43C51.0271 200.312 48.1588 199.736 45.2617 199.736C42.3645 199.736 39.4962 200.312 36.8233 201.43C34.1505 202.547 31.7263 204.185 29.6916 206.247C27.6569 208.31 26.0522 210.756 24.9707 213.444C23.8892 216.131 23.3525 219.007 23.3916 221.904V226.952C23.3916 227.398 23.5686 227.825 23.8837 228.14C24.1988 228.455 24.6261 228.632 25.0716 228.632H28.4396C28.8852 228.632 29.3125 228.455 29.6276 228.14C29.9426 227.825 30.1196 227.398 30.1196 226.952C30.1213 224.949 30.5254 222.966 31.308 221.122C32.0907 219.277 33.2359 217.609 34.6756 216.216C35.0435 215.855 35.4896 215.583 35.9793 215.422C36.469 215.261 36.9893 215.215 37.4996 215.288C39.6226 215.552 41.595 216.523 43.0996 218.044C45.0878 220.094 47.7094 221.413 50.5403 221.789C53.3713 222.164 56.2461 221.573 58.6996 220.112C59.544 221.751 60.086 223.529 60.2996 225.36C60.3477 225.798 60.5553 226.203 60.8828 226.498C61.2103 226.793 61.6349 226.958 62.0756 226.96H65.4397C65.8856 226.959 66.3129 226.781 66.6278 226.465C66.9428 226.15 67.1197 225.722 67.1197 225.276L67.1317 221.904Z" stroke="#45413C" stroke-width="4" stroke-linecap="round" stroke-linejoin="round"/>
<path d="M58.7 220.112C58.8778 220.007 59.0206 219.851 59.1106 219.665C59.2006 219.479 59.2338 219.271 59.2061 219.066C59.1783 218.861 59.0909 218.669 58.9547 218.514C58.8184 218.358 58.6394 218.246 58.44 218.192C55.7995 217.448 53.5142 215.78 52 213.492" fill="#FFDF3D"/>
<path d="M58.7 220.112C58.8778 220.007 59.0206 219.851 59.1106 219.665C59.2006 219.479 59.2338 219.271 59.2061 219.066C59.1783 218.861 59.0909 218.669 58.9547 218.514C58.8184 218.358 58.6394 218.246 58.44 218.192C55.7995 217.448 53.5142 215.78 52 213.492" stroke="#45413C" stroke-width="4" stroke-linecap="round" stroke-linejoin="round"/>
<path d="M37.692 226.952C37.1926 226.952 36.7044 227.1 36.2893 227.378C35.8741 227.655 35.5506 228.05 35.3597 228.511C35.1688 228.972 35.119 229.48 35.2168 229.97C35.3145 230.46 35.5553 230.909 35.9086 231.262C36.262 231.615 36.7121 231.855 37.202 231.952C37.6919 232.049 38.1995 231.998 38.6606 231.807C39.1218 231.615 39.5157 231.291 39.7925 230.875C40.0694 230.46 40.2168 229.971 40.216 229.472C40.216 229.141 40.1507 228.813 40.0238 228.507C39.8969 228.201 39.7109 227.923 39.4765 227.689C39.242 227.455 38.9638 227.269 38.6576 227.143C38.3514 227.016 38.0232 226.952 37.692 226.952Z" fill="#45413C"/>
<path d="M52.8321 226.952C52.3327 226.952 51.8446 227.1 51.4294 227.378C51.0143 227.655 50.6908 228.05 50.4999 228.511C50.3089 228.972 50.2592 229.48 50.3569 229.97C50.4546 230.46 50.6954 230.909 51.0488 231.262C51.4022 231.615 51.8523 231.855 52.3422 231.952C52.832 232.049 53.3396 231.998 53.8008 231.807C54.2619 231.615 54.6558 231.291 54.9327 230.875C55.2095 230.46 55.3569 229.971 55.3561 229.472C55.355 228.803 55.0887 228.162 54.6154 227.69C54.1422 227.217 53.5008 226.952 52.8321 226.952Z" fill="#45413C"/>
<path d="M45.26 200.032C48.1251 200.027 50.963 200.587 53.6116 201.68C56.2602 202.773 58.6675 204.377 60.696 206.4C61.5905 204.998 62.0715 203.371 62.084 201.708C62.084 195.204 54.552 189.928 45.26 189.928C35.968 189.928 28.46 195.204 28.46 201.708C28.4664 203.369 28.9405 204.995 29.828 206.4C31.8558 204.377 34.2625 202.773 36.9104 201.681C39.5583 200.588 42.3955 200.028 45.26 200.032Z" fill="#FF6196" stroke="#45413C" stroke-width="4" stroke-linecap="round" stroke-linejoin="round"/>
<path d="M192.956 74.156C192.956 85.8489 197.601 97.0628 205.869 105.331C214.137 113.599 225.351 118.244 237.044 118.244C248.737 118.244 259.951 113.599 268.219 105.331C276.487 97.0628 281.132 85.8489 281.132 74.156C281.132 62.4631 276.487 51.2492 268.219 42.9811C259.951 34.713 248.737 30.068 237.044 30.068C225.351 30.068 214.137 34.713 205.869 42.9811C197.601 51.2492 192.956 62.4631 192.956 74.156Z" fill="white" stroke="#45413C" stroke-width="4" stroke-linecap="round" stroke-linejoin="round"/>
<path d="M265.64 85.6C265.63 84.5144 265.244 83.4659 264.548 82.6325C263.853 81.799 262.89 81.2321 261.824 81.028V77.976C261.824 71.9089 259.414 66.0903 255.124 61.8002C250.833 57.5101 245.015 55.1 238.948 55.1C232.881 55.1 227.062 57.5101 222.772 61.8002C218.482 66.0903 216.072 71.9089 216.072 77.976V81.028C214.958 81.2336 213.957 81.8372 213.255 82.7263C212.553 83.6154 212.199 84.7293 212.257 85.8605C212.316 86.9917 212.784 88.0629 213.574 88.8746C214.364 89.6862 215.423 90.1829 216.552 90.272C217.623 95.4203 220.435 100.042 224.515 103.36C228.595 106.679 233.693 108.49 238.952 108.49C244.21 108.49 249.309 106.679 253.388 103.36C257.468 100.042 260.28 95.4203 261.352 90.272C262.519 90.1647 263.605 89.6269 264.397 88.7634C265.19 87.8998 265.633 86.7721 265.64 85.6Z" fill="#D18660" stroke="#45413C" stroke-width="4" stroke-linecap="round" stroke-linejoin="round"/>
<path d="M265.64 85.6C265.63 84.5144 265.244 83.4659 264.548 82.6325C263.853 81.799 262.89 81.2321 261.824 81.028V77.976C261.824 71.9089 259.414 66.0903 255.124 61.8002C250.833 57.5101 245.015 55.1 238.948 55.1C232.881 55.1 227.062 57.5101 222.772 61.8002C218.482 66.0903 216.072 71.9089 216.072 77.976V81.028C214.958 81.2336 213.957 81.8372 213.255 82.7263C212.553 83.6154 212.199 84.7293 212.257 85.8605C212.316 86.9917 212.784 88.0629 213.574 88.8746C214.364 89.6862 215.423 90.1829 216.552 90.272C217.623 95.4203 220.435 100.042 224.515 103.36C228.595 106.679 233.693 108.49 238.952 108.49C244.21 108.49 249.309 106.679 253.388 103.36C257.468 100.042 260.28 95.4203 261.352 90.272C262.519 90.1647 263.605 89.627 264.397 88.7634C265.19 87.8998 265.633 86.7721 265.64 85.6V85.6Z" stroke="#45413C" stroke-width="4" stroke-linecap="round" stroke-linejoin="round"/>
<path d="M230.372 77.968C229.806 77.968 229.253 78.1358 228.783 78.45C228.312 78.7643 227.946 79.2109 227.729 79.7335C227.513 80.2561 227.456 80.8312 227.567 81.386C227.677 81.9408 227.949 82.4504 228.349 82.8503C228.749 83.2503 229.259 83.5227 229.814 83.6331C230.369 83.7434 230.944 83.6868 231.466 83.4703C231.989 83.2538 232.435 82.8873 232.75 82.4169C233.064 81.9466 233.232 81.3937 233.232 80.828C233.232 80.0695 232.93 79.342 232.394 78.8057C231.858 78.2693 231.13 77.968 230.372 77.968Z" fill="#45413C"/>
<path d="M247.528 77.968C246.962 77.968 246.409 78.1358 245.939 78.45C245.469 78.7643 245.102 79.2109 244.886 79.7335C244.669 80.2561 244.613 80.8312 244.723 81.386C244.833 81.9408 245.106 82.4504 245.506 82.8503C245.906 83.2503 246.415 83.5227 246.97 83.6331C247.525 83.7434 248.1 83.6868 248.622 83.4703C249.145 83.2538 249.592 82.8873 249.906 82.4169C250.22 81.9466 250.388 81.3937 250.388 80.828C250.388 80.0695 250.087 79.342 249.55 78.8057C249.014 78.2693 248.286 77.968 247.528 77.968Z" fill="#45413C"/>
<path d="M223.7 88.452C223.7 89.2106 224.001 89.938 224.537 90.4744C225.074 91.0107 225.801 91.312 226.56 91.312C227.318 91.312 228.046 91.0107 228.582 90.4744C229.118 89.938 229.42 89.2106 229.42 88.452C229.42 87.6935 229.118 86.9661 228.582 86.4297C228.046 85.8934 227.318 85.592 226.56 85.592C225.801 85.592 225.074 85.8934 224.537 86.4297C224.001 86.9661 223.7 87.6935 223.7 88.452Z" fill="#BD704A"/>
<path d="M248.48 88.452C248.48 89.2106 248.781 89.938 249.318 90.4744C249.854 91.0107 250.581 91.312 251.34 91.312C252.099 91.312 252.826 91.0107 253.362 90.4744C253.899 89.938 254.2 89.2106 254.2 88.452C254.2 87.6935 253.899 86.9661 253.362 86.4297C252.826 85.8934 252.099 85.592 251.34 85.592C250.581 85.592 249.854 85.8934 249.318 86.4297C248.781 86.9661 248.48 87.6935 248.48 88.452Z" fill="#BD704A"/>
<path d="M233.232 95.3C234.925 96.4289 236.915 97.0313 238.95 97.0313C240.985 97.0313 242.975 96.4289 244.668 95.3" stroke="#45413C" stroke-width="4" stroke-linecap="round" stroke-linejoin="round"/>
<path d="M214.168 60.8V77.9561C214.168 78.4614 214.368 78.9461 214.725 79.3038C215.082 79.6615 215.567 79.863 216.072 79.864H218L225.6 60.8H214.168Z" fill="#614B44" stroke="#45413C" stroke-width="4" stroke-linecap="round" stroke-linejoin="round"/>
<path d="M263.732 62.716C263.731 58.6716 262.123 54.7932 259.263 51.9338C256.403 49.0743 252.524 47.468 248.48 47.468H231.324C230.595 47.4681 229.882 47.2595 229.269 46.8667C228.656 46.4739 228.168 45.9135 227.864 45.252C227.663 44.8086 227.348 44.4267 226.951 44.1455C226.554 43.8643 226.089 43.694 225.604 43.652H222.364C219.444 43.5955 216.606 44.6213 214.397 46.5318C212.189 48.4423 210.765 51.1024 210.4 54C210.115 56.9913 211.018 59.9747 212.915 62.3054C214.811 64.6361 217.549 66.127 220.536 66.456C221.075 68.4798 222.209 70.2951 223.792 71.6671C225.374 73.0392 227.332 73.9048 229.412 74.152H233.228C233.378 74.1506 233.524 74.1002 233.644 74.0083C233.763 73.9165 233.849 73.7882 233.889 73.643C233.929 73.4978 233.92 73.3435 233.864 73.2037C233.808 73.0638 233.709 72.9459 233.58 72.868C231.847 71.8337 230.586 70.165 230.064 68.216C230.004 68.02 229.992 67.8127 230.027 67.611C230.062 67.4092 230.144 67.2184 230.266 67.054C230.388 66.8895 230.547 66.7559 230.73 66.6639C230.913 66.5719 231.115 66.524 231.32 66.524H246.896C247.397 66.5239 247.893 66.6229 248.355 66.8151C248.818 67.0073 249.238 67.289 249.592 67.644L259.916 77.964H261.82C262.07 77.9645 262.319 77.9155 262.551 77.8198C262.782 77.7241 262.993 77.5836 263.17 77.4063C263.347 77.229 263.488 77.0185 263.584 76.7868C263.679 76.555 263.728 76.3067 263.728 76.056L263.732 62.716Z" fill="#614B44"/>
<path d="M248.48 47.468H231.324C230.596 47.4676 229.883 47.2588 229.27 46.8661C228.657 46.4734 228.169 45.9132 227.864 45.252C227.663 44.8086 227.348 44.4267 226.951 44.1455C226.554 43.8643 226.089 43.694 225.604 43.652H222.364C219.444 43.5955 216.607 44.6213 214.398 46.5318C212.189 48.4423 210.765 51.1024 210.4 54C210.271 55.3796 210.392 56.7711 210.756 58.108C218.136 56.4851 225.672 55.6802 233.228 55.708C243.51 55.5962 253.744 57.14 263.536 60.28C262.956 56.7044 261.123 53.4518 258.365 51.1044C255.606 48.7569 252.102 47.4679 248.48 47.468Z" fill="#947063"/>
<path d="M263.732 62.716C263.731 58.6716 262.123 54.7932 259.263 51.9338C256.403 49.0743 252.524 47.468 248.48 47.468H231.324C230.595 47.4681 229.882 47.2595 229.269 46.8667C228.656 46.4739 228.168 45.9135 227.864 45.252C227.663 44.8086 227.348 44.4267 226.951 44.1455C226.554 43.8643 226.089 43.694 225.604 43.652H222.364C219.444 43.5955 216.606 44.6213 214.397 46.5318C212.189 48.4423 210.765 51.1024 210.4 54C210.115 56.9913 211.018 59.9747 212.915 62.3054C214.811 64.6361 217.549 66.127 220.536 66.456C221.075 68.4798 222.209 70.2951 223.792 71.6671C225.374 73.0392 227.332 73.9048 229.412 74.152H233.228C233.378 74.1506 233.524 74.1002 233.644 74.0083C233.763 73.9165 233.849 73.7882 233.889 73.643C233.929 73.4978 233.92 73.3435 233.864 73.2037C233.808 73.0638 233.709 72.9459 233.58 72.868C231.847 71.8337 230.586 70.165 230.064 68.216C230.004 68.02 229.992 67.8128 230.027 67.611C230.062 67.4092 230.144 67.2184 230.266 67.054C230.388 66.8895 230.547 66.7559 230.73 66.6639C230.913 66.5719 231.115 66.524 231.32 66.524H246.896C247.397 66.5239 247.893 66.6229 248.355 66.8151C248.818 67.0073 249.238 67.289 249.592 67.644L259.916 77.964H261.82C262.07 77.9645 262.319 77.9155 262.551 77.8198C262.782 77.7241 262.993 77.5836 263.17 77.4063C263.347 77.229 263.488 77.0185 263.584 76.7868C263.679 76.555 263.728 76.3067 263.728 76.056L263.732 62.716Z" stroke="#45413C" stroke-width="4" stroke-linecap="round" stroke-linejoin="round"/>
<path d="M295.569 282.715L311.576 266.709L339.585 294.72L323.579 310.726L295.569 282.715Z" fill="#F0F0F0" stroke="#45413C" stroke-width="4" stroke-linecap="round" stroke-linejoin="round"/>
<path d="M394 364.4L393.236 365.164C390.144 368.231 385.965 369.952 381.61 369.952C377.255 369.952 373.076 368.231 369.984 365.164L319.444 314.604C318.421 313.573 317.848 312.18 317.848 310.728C317.848 309.276 318.421 307.883 319.444 306.852L335.708 290.588C336.738 289.566 338.131 288.992 339.582 288.992C341.033 288.992 342.426 289.566 343.456 290.588L394 341.128C395.535 342.652 396.753 344.465 397.584 346.462C398.415 348.459 398.843 350.601 398.843 352.764C398.843 354.927 398.415 357.069 397.584 359.066C396.753 361.063 395.535 362.876 394 364.4Z" fill="#BF8256"/>
<path d="M394 364.4L393.6 364.78L327.6 298.688L335.68 290.608C336.71 289.586 338.103 289.012 339.554 289.012C341.005 289.012 342.398 289.586 343.428 290.608L394 341.128C395.535 342.652 396.753 344.465 397.584 346.462C398.415 348.459 398.843 350.601 398.843 352.764C398.843 354.927 398.415 357.069 397.584 359.066C396.753 361.063 395.535 362.876 394 364.4Z" fill="#DEA47A"/>
<path d="M394 364.4L393.236 365.164C390.144 368.231 385.965 369.952 381.61 369.952C377.255 369.952 373.076 368.231 369.984 365.164L319.444 314.604C318.421 313.573 317.848 312.18 317.848 310.728C317.848 309.276 318.421 307.883 319.444 306.852L335.708 290.588C336.738 289.566 338.131 288.992 339.582 288.992C341.033 288.992 342.426 289.566 343.456 290.588L394 341.128C395.535 342.652 396.753 344.465 397.584 346.462C398.415 348.459 398.843 350.601 398.843 352.764C398.843 354.927 398.415 357.069 397.584 359.066C396.753 361.063 395.535 362.876 394 364.4Z" stroke="#45413C" stroke-width="4" stroke-linecap="round" stroke-linejoin="round"/>
<path d="M175.146 266.997C186.897 286.201 205.796 299.949 227.684 305.219C249.572 310.488 272.657 306.847 291.861 295.096C311.064 283.344 324.813 264.446 330.083 242.557C335.352 220.669 331.711 197.584 319.959 178.38C308.208 159.177 289.309 145.428 267.421 140.159C245.533 134.889 222.448 138.531 203.244 150.282C184.041 162.033 170.292 180.932 165.022 202.82C159.753 224.709 163.394 247.794 175.146 266.997Z" fill="#F0F0F0" stroke="#45413C" stroke-width="4" stroke-linecap="round" stroke-linejoin="round"/>
<path d="M295.572 174.672C305.069 184.169 311.536 196.269 314.156 209.442C316.775 222.615 315.43 236.269 310.29 248.677C305.15 261.085 296.447 271.691 285.279 279.152C274.112 286.614 260.983 290.596 247.552 290.596C234.121 290.596 220.992 286.614 209.825 279.152C198.658 271.691 189.954 261.085 184.814 248.677C179.674 236.269 178.329 222.615 180.949 209.442C183.568 196.269 190.035 184.169 199.532 174.672C205.838 168.366 213.324 163.363 221.564 159.95C229.803 156.537 238.634 154.78 247.552 154.78C256.47 154.78 265.301 156.537 273.541 159.95C281.78 163.363 289.266 168.366 295.572 174.672Z" fill="#00B8F0"/>
<path d="M199.532 270.708C186.797 257.972 179.642 240.699 179.643 222.689C179.643 204.678 186.798 187.405 199.534 174.67C212.269 161.935 229.542 154.781 247.553 154.781C265.564 154.781 282.837 161.936 295.572 174.672L199.532 270.708Z" fill="#4ACFFF"/>
<path d="M245.916 255.24C238.112 255.284 230.452 257.344 223.679 261.22C216.907 265.097 211.25 270.658 207.26 277.364C218.539 285.669 232.109 290.286 246.112 290.583C260.116 290.881 273.87 286.845 285.492 279.028C281.645 271.87 275.938 265.882 268.973 261.695C262.008 257.509 254.042 255.279 245.916 255.24Z" fill="#F0F0F0"/>
<path d="M245.916 255.24C238.112 255.284 230.452 257.344 223.679 261.22C216.907 265.097 211.25 270.658 207.26 277.364C209.483 279.006 211.805 280.51 214.212 281.868C218.475 277.614 223.55 274.262 229.136 272.01C234.722 269.759 240.703 268.655 246.725 268.763C252.746 268.872 258.684 270.191 264.185 272.643C269.686 275.094 274.637 278.627 278.744 283.032C281.068 281.83 283.321 280.494 285.492 279.032C281.645 271.873 275.939 265.884 268.974 261.697C262.008 257.51 254.043 255.279 245.916 255.24Z" fill="white"/>
<path d="M245.916 255.24C238.112 255.284 230.452 257.344 223.679 261.22C216.907 265.097 211.25 270.658 207.26 277.364C218.539 285.669 232.109 290.286 246.112 290.583C260.116 290.881 273.87 286.845 285.492 279.028C281.645 271.87 275.938 265.882 268.973 261.695C262.008 257.509 254.042 255.279 245.916 255.24V255.24Z" stroke="#45413C" stroke-width="4" stroke-linejoin="round"/>
<path d="M259.332 257.42C258.612 257.191 257.885 256.985 257.152 256.804C256.305 256.59 255.553 256.099 255.017 255.409C254.481 254.719 254.19 253.87 254.192 252.996V239.484H238.284V252.844C238.284 253.723 237.988 254.576 237.445 255.266C236.902 255.957 236.142 256.445 235.288 256.652C234.368 256.876 233.452 257.124 232.548 257.408L232.456 257.528C232.691 260.942 234.214 264.139 236.715 266.473C239.216 268.808 242.51 270.107 245.932 270.107C249.354 270.107 252.648 268.808 255.149 266.473C257.651 264.139 259.173 260.942 259.408 257.528L259.332 257.42Z" fill="#FFCEBF" stroke="#45413C" stroke-width="4" stroke-linecap="round" stroke-linejoin="round"/>
<path d="M281.732 206C281.732 215.548 277.939 224.705 271.188 231.456C264.436 238.207 255.28 242 245.732 242C236.184 242 227.027 238.207 220.276 231.456C213.525 224.705 209.732 215.548 209.732 206C209.732 186.096 219.892 170.48 230.228 167.512C231.089 167.264 232.001 167.253 232.868 167.479C233.735 167.705 234.525 168.16 235.156 168.796C246.348 180.052 281.732 166.024 281.732 206Z" fill="#FFDF3D"/>
<path d="M281.344 211.304C277.316 178.04 242.36 192.672 233.744 179.004C223.5 179.004 212.328 192.604 210.144 211.428C209.874 209.633 209.741 207.819 209.744 206.004C209.744 186.1 219.904 170.484 230.24 167.516C231.101 167.268 232.013 167.257 232.88 167.483C233.747 167.709 234.537 168.164 235.168 168.8C246.368 180.052 281.736 166.024 281.736 206C281.735 207.775 281.604 209.548 281.344 211.304Z" fill="#FFEF9E"/>
<path d="M281.732 206C281.732 215.548 277.939 224.705 271.188 231.456C264.436 238.207 255.28 242 245.732 242C236.184 242 227.027 238.207 220.276 231.456C213.525 224.705 209.732 215.548 209.732 206C209.732 186.096 219.892 170.48 230.228 167.512C231.089 167.264 232.001 167.253 232.868 167.479C233.735 167.705 234.525 168.16 235.156 168.796C246.348 180.052 281.732 166.024 281.732 206Z" stroke="#45413C" stroke-width="4" stroke-linecap="round" stroke-linejoin="round"/>
<path d="M275.764 215L269.72 218L265.36 202.744C264.953 201.279 264 200.025 262.698 199.24C261.396 198.454 259.842 198.197 258.356 198.52C250.05 200.499 241.395 200.499 233.088 198.52C231.602 198.198 230.049 198.456 228.747 199.241C227.445 200.026 226.492 201.279 226.084 202.744L221.724 218L215.772 215C207.208 215 207.772 230 217.268 230H217.296C219.176 236.083 222.954 241.405 228.078 245.184C233.202 248.964 239.401 251.003 245.768 251.003C252.135 251.003 258.335 248.964 263.458 245.184C268.582 241.405 272.361 236.083 274.24 230C283.748 230 284.324 215 275.764 215Z" fill="#FFCEBF" stroke="#45413C" stroke-width="4" stroke-linecap="round" stroke-linejoin="round"/>
<path d="M232.884 215.752C232.884 216.692 233.257 217.593 233.922 218.258C234.586 218.923 235.488 219.296 236.428 219.296C237.368 219.296 238.269 218.923 238.934 218.258C239.598 217.593 239.972 216.692 239.972 215.752C239.972 214.812 239.598 213.911 238.934 213.246C238.269 212.581 237.368 212.208 236.428 212.208C235.488 212.208 234.586 212.581 233.922 213.246C233.257 213.911 232.884 214.812 232.884 215.752Z" fill="#45413C"/>
<path d="M251.62 215.752C251.62 216.692 251.994 217.593 252.658 218.258C253.323 218.923 254.224 219.296 255.164 219.296C256.104 219.296 257.005 218.923 257.67 218.258C258.335 217.593 258.708 216.692 258.708 215.752C258.708 214.812 258.335 213.911 257.67 213.246C257.005 212.581 256.104 212.208 255.164 212.208C254.224 212.208 253.323 212.581 252.658 213.246C251.994 213.911 251.62 214.812 251.62 215.752Z" fill="#45413C"/>
<path d="M230.8 224C230.8 224.594 230.624 225.174 230.294 225.667C229.964 226.161 229.495 226.545 228.947 226.772C228.399 226.999 227.795 227.058 227.213 226.942C226.631 226.826 226.096 226.54 225.677 226.12C225.258 225.7 224.972 225.165 224.857 224.583C224.742 224.001 224.802 223.397 225.029 222.849C225.257 222.301 225.642 221.833 226.136 221.504C226.63 221.174 227.21 220.999 227.804 221C228.198 221 228.587 221.078 228.951 221.228C229.315 221.379 229.645 221.6 229.924 221.879C230.202 222.158 230.423 222.488 230.573 222.852C230.723 223.216 230.8 223.606 230.8 224Z" fill="#FFB59E"/>
<path d="M266.8 224C266.8 224.593 266.624 225.173 266.294 225.667C265.965 226.16 265.496 226.545 264.948 226.772C264.4 226.999 263.796 227.058 263.215 226.942C262.633 226.827 262.098 226.541 261.678 226.121C261.259 225.702 260.973 225.167 260.857 224.585C260.742 224.003 260.801 223.4 261.028 222.852C261.255 222.304 261.64 221.835 262.133 221.506C262.626 221.176 263.206 221 263.8 221C264.595 221 265.359 221.316 265.921 221.879C266.484 222.441 266.8 223.204 266.8 224Z" fill="#FFB59E"/>
<path d="M238.308 233.732C240.529 235.211 243.138 236 245.806 236C248.474 236 251.083 235.211 253.304 233.732" stroke="#45413C" stroke-width="4" stroke-linecap="round" stroke-linejoin="round"/>
<path d="M295.572 174.672C305.069 184.169 311.536 196.269 314.156 209.442C316.775 222.615 315.43 236.269 310.29 248.677C305.15 261.085 296.447 271.691 285.279 279.152C274.112 286.614 260.983 290.596 247.552 290.596C234.121 290.596 220.992 286.614 209.825 279.152C198.658 271.691 189.954 261.085 184.814 248.677C179.674 236.269 178.329 222.615 180.949 209.442C183.568 196.269 190.035 184.169 199.532 174.672C205.838 168.366 213.324 163.363 221.564 159.95C229.803 156.537 238.634 154.78 247.552 154.78C256.47 154.78 265.301 156.537 273.541 159.95C281.78 163.363 289.266 168.366 295.572 174.672V174.672Z" stroke="#45413C" stroke-width="4" stroke-linecap="round" stroke-linejoin="round"/>
<path d="M117.084 305.356C117.084 312.795 120.039 319.929 125.299 325.189C130.559 330.449 137.693 333.404 145.132 333.404C152.571 333.404 159.705 330.449 164.965 325.189C170.225 319.929 173.18 312.795 173.18 305.356C173.18 297.917 170.225 290.783 164.965 285.523C159.705 280.263 152.571 277.308 145.132 277.308C137.693 277.308 130.559 280.263 125.299 285.523C120.039 290.783 117.084 297.917 117.084 305.356Z" fill="white" stroke="#45413C" stroke-width="4" stroke-linecap="round" stroke-linejoin="round"/>
<path d="M136.108 304.704C136.108 307.097 137.059 309.393 138.751 311.085C140.443 312.777 142.739 313.728 145.132 313.728C147.525 313.728 149.821 312.777 151.513 311.085C153.205 309.393 154.156 307.097 154.156 304.704V300.192C154.156 297.799 153.205 295.503 151.513 293.811C149.821 292.119 147.525 291.168 145.132 291.168C142.739 291.168 140.443 292.119 138.751 293.811C137.059 295.503 136.108 297.799 136.108 300.192V304.704Z" fill="#FFCEBF" stroke="#45413C" stroke-width="4" stroke-linecap="round" stroke-linejoin="round"/>
<path d="M163.884 326.212C158.736 330.837 152.06 333.396 145.14 333.396C138.22 333.396 131.544 330.837 126.396 326.212C127.936 322.515 130.536 319.356 133.867 317.134C137.198 314.911 141.112 313.723 145.117 313.719C149.122 313.716 153.039 314.897 156.374 317.114C159.709 319.332 162.313 322.486 163.86 326.18" fill="#FF6242"/>
<path d="M163.884 326.212C158.736 330.837 152.06 333.396 145.14 333.396C138.22 333.396 131.544 330.837 126.396 326.212C127.936 322.515 130.536 319.356 133.867 317.134C137.198 314.911 141.112 313.723 145.117 313.719C149.122 313.716 153.039 314.897 156.374 317.114C159.709 319.332 162.313 322.486 163.86 326.18" stroke="#45413C" stroke-width="4" stroke-linecap="round" stroke-linejoin="round"/>
<path d="M136.184 299.028C136.421 297.208 137.207 295.504 138.437 294.143C139.668 292.781 141.284 291.827 143.07 291.408C144.857 290.988 146.729 291.124 148.436 291.795C150.144 292.467 151.606 293.644 152.628 295.168C150.493 297.239 147.836 298.692 144.94 299.371C142.044 300.051 139.018 299.932 136.184 299.028Z" fill="#A86C4D" stroke="#45413C" stroke-width="4" stroke-linecap="round" stroke-linejoin="round"/>
<path d="M68.8999 103.016C68.8999 110.455 71.8549 117.589 77.115 122.849C82.375 128.109 89.5091 131.064 96.9479 131.064C104.387 131.064 111.521 128.109 116.781 122.849C122.041 117.589 124.996 110.455 124.996 103.016C124.996 95.5772 122.041 88.4431 116.781 83.1831C111.521 77.9231 104.387 74.968 96.9479 74.968C89.5091 74.968 82.375 77.9231 77.115 83.1831C71.8549 88.4431 68.8999 95.5772 68.8999 103.016Z" fill="white" stroke="#45413C" stroke-width="4" stroke-linecap="round" stroke-linejoin="round"/>
<path d="M87.9199 102.364C87.9696 104.725 88.9424 106.972 90.6297 108.625C92.317 110.277 94.5845 111.202 96.9459 111.202C99.3074 111.202 101.575 110.277 103.262 108.625C104.949 106.972 105.922 104.725 105.972 102.364V97.852C105.922 95.4911 104.949 93.2436 103.262 91.5914C101.575 89.9393 99.3074 89.014 96.9459 89.014C94.5845 89.014 92.317 89.9393 90.6297 91.5914C88.9424 93.2436 87.9696 95.4911 87.9199 97.852V102.364Z" fill="#FFCEBF" stroke="#45413C" stroke-width="4" stroke-linecap="round" stroke-linejoin="round"/>
<path d="M115.696 123.876C110.547 128.499 103.872 131.056 96.952 131.056C90.0324 131.056 83.3568 128.499 78.208 123.876C79.7482 120.179 82.3476 117.02 85.6788 114.798C89.0101 112.575 92.9245 111.387 96.9294 111.383C100.934 111.38 104.851 112.561 108.186 114.778C111.521 116.996 114.125 120.15 115.672 123.844" fill="#6DD627"/>
<path d="M115.696 123.876C110.547 128.499 103.872 131.056 96.952 131.056C90.0324 131.056 83.3568 128.499 78.208 123.876C79.7482 120.179 82.3476 117.02 85.6788 114.798C89.0101 112.575 92.9245 111.387 96.9294 111.383C100.934 111.38 104.851 112.561 108.186 114.778C111.521 116.996 114.125 120.15 115.672 123.844" stroke="#45413C" stroke-width="4" stroke-linecap="round" stroke-linejoin="round"/>
<path d="M88 96.688C88.2355 94.8673 89.021 93.1619 90.2515 91.7995C91.4819 90.4371 93.0988 89.4825 94.8862 89.0634C96.6735 88.6443 98.5462 88.7805 100.254 89.4539C101.962 90.1273 103.424 91.3058 104.444 92.832C102.308 94.9018 99.6507 96.3535 96.7549 97.0325C93.8591 97.7116 90.8334 97.5925 88 96.688Z" fill="#A86C4D" stroke="#45413C" stroke-width="4" stroke-linecap="round" stroke-linejoin="round"/>
</g>
<defs>
<clipPath id="clip0_902_5577">
<rect width="400" height="400" fill="white"/>
</clipPath>
</defs>
</svg>
