<svg width="400" height="400" viewBox="0 0 400 400" fill="none" xmlns="http://www.w3.org/2000/svg">
<path d="M96.4119 135.416L75.1279 183.416" stroke="#020064" stroke-width="4" stroke-linecap="round" stroke-linejoin="round"/>
<path d="M128.064 283.164L86.0239 250.512" stroke="#020064" stroke-width="4" stroke-linecap="round" stroke-linejoin="round"/>
<path d="M166.308 216.5L99.748 222.84" stroke="#020064" stroke-width="4" stroke-linecap="round" stroke-linejoin="round"/>
<path d="M131.88 108.876L194.74 95.492" stroke="#020064" stroke-width="4" stroke-linecap="round" stroke-linejoin="round"/>
<path d="M276.272 151.224L255.956 119.1" stroke="#020064" stroke-width="4" stroke-linecap="round" stroke-linejoin="round"/>
<path d="M111.276 137.18L144.004 270.78" stroke="#020064" stroke-width="4" stroke-linecap="round" stroke-linejoin="round"/>
<path d="M225.316 125.136L219.38 147.412" stroke="#020064" stroke-width="4" stroke-linecap="round" stroke-linejoin="round"/>
<path d="M122.804 131.832L174.956 184.876" stroke="#020064" stroke-width="4" stroke-linecap="round" stroke-linejoin="round"/>
<path d="M206.256 288.032L175.72 295.464" stroke="#020064" stroke-width="4" stroke-linecap="round" stroke-linejoin="round"/>
<path d="M93.0039 198L203.212 112.024" stroke="#020064" stroke-width="4" stroke-linecap="round" stroke-linejoin="round"/>
<path d="M59.912 260.24C81.9548 260.24 99.824 242.371 99.824 220.328C99.824 198.285 81.9548 180.416 59.912 180.416C37.8692 180.416 20 198.285 20 220.328C20 242.371 37.8692 260.24 59.912 260.24Z" stroke="#020064" stroke-width="4" stroke-linecap="round" stroke-linejoin="round"/>
<path d="M41.636 225.92V226.836C40.7472 227.004 39.9494 227.488 39.3911 228.2C38.8328 228.912 38.552 229.802 38.6009 230.705C38.6498 231.608 39.0251 232.463 39.657 233.11C40.2888 233.758 41.1344 234.153 42.036 234.224C42.8944 238.335 45.142 242.024 48.4008 244.673C51.6596 247.322 55.7308 248.767 59.93 248.767C64.1292 248.767 68.2004 247.322 71.4592 244.673C74.718 242.024 76.9656 238.335 77.824 234.224C78.7256 234.153 79.5712 233.758 80.2032 233.11C80.8348 232.463 81.2104 231.608 81.2592 230.705C81.308 229.802 81.0272 228.912 80.4688 228.2C79.9108 227.488 79.1128 227.004 78.224 226.836V224.4" stroke="#020064" stroke-width="4" stroke-linecap="round" stroke-linejoin="round"/>
<path d="M55.344 238.244C56.6968 239.148 58.2872 239.63 59.914 239.63C61.5408 239.63 63.1312 239.148 64.484 238.244" stroke="#020064" stroke-width="4" stroke-linecap="round" stroke-linejoin="round"/>
<path d="M79.7121 219.828C79.7121 214.577 77.6261 209.54 73.9129 205.827C70.1997 202.114 65.1633 200.028 59.9121 200.028C54.6609 200.028 49.6245 202.114 45.9113 205.827C42.1981 209.54 40.1121 214.577 40.1121 219.828V224.4C40.1133 224.804 40.2741 225.19 40.5597 225.475C40.8457 225.76 41.2325 225.92 41.6361 225.92H44.6841C44.8837 225.92 45.0813 225.881 45.2657 225.804C45.4501 225.728 45.6177 225.616 45.7589 225.475C45.9001 225.334 46.0121 225.166 46.0885 224.982C46.1649 224.797 46.2041 224.6 46.2041 224.4C46.2065 222.586 46.5729 220.792 47.2813 219.122C47.9897 217.452 49.0257 215.942 50.3281 214.68C50.6625 214.354 51.0669 214.109 51.5105 213.963C51.9545 213.818 52.4257 213.775 52.8881 213.84C54.8053 214.083 56.5853 214.962 57.9441 216.336C59.7457 218.194 62.1213 219.389 64.6869 219.728C67.2521 220.068 69.8569 219.532 72.0801 218.208C72.8481 219.692 73.3429 221.301 73.5401 222.96C73.5797 223.356 73.7657 223.723 74.0617 223.989C74.3577 224.256 74.7421 224.402 75.1401 224.4H78.1881C78.5917 224.399 78.9781 224.238 79.2633 223.952C79.5481 223.666 79.7081 223.28 79.7081 222.876L79.7121 219.828Z" stroke="#020064" stroke-width="4" stroke-linecap="round" stroke-linejoin="round"/>
<path d="M72.08 218.208C72.24 218.112 72.3684 217.971 72.4492 217.802C72.53 217.634 72.5596 217.446 72.5344 217.26C72.5092 217.075 72.4304 216.902 72.308 216.761C72.1852 216.62 72.024 216.518 71.844 216.468C69.4468 215.8 67.3712 214.289 66 212.212" stroke="#020064" stroke-width="4" stroke-linecap="round" stroke-linejoin="round"/>
<path d="M53.0559 227.688C52.5035 227.688 52.0559 227.24 52.0559 226.688C52.0559 226.136 52.5035 225.688 53.0559 225.688" stroke="#020064" stroke-width="4"/>
<path d="M53.0559 227.688C53.6083 227.688 54.0559 227.24 54.0559 226.688C54.0559 226.136 53.6083 225.688 53.0559 225.688" stroke="#020064" stroke-width="4"/>
<path d="M66.7639 227.688C66.2115 227.688 65.7639 227.24 65.7639 226.688C65.7639 226.136 66.2115 225.688 66.7639 225.688" stroke="#020064" stroke-width="4"/>
<path d="M66.7639 227.688C67.3163 227.688 67.7639 227.24 67.7639 226.688C67.7639 226.136 67.3163 225.688 66.7639 225.688" stroke="#020064" stroke-width="4"/>
<path d="M59.9121 200.028C62.5061 200.025 65.0749 200.534 67.4721 201.524C69.8697 202.514 72.0485 203.968 73.8841 205.8C74.6977 204.532 75.1345 203.059 75.1441 201.552C75.1441 195.664 68.3241 190.892 59.9121 190.892C51.5001 190.892 44.6841 195.664 44.6841 201.552C44.6945 203.058 45.1301 204.53 45.9401 205.8C49.6481 202.1 54.6737 200.024 59.9121 200.028Z" stroke="#020064" stroke-width="4" stroke-linecap="round" stroke-linejoin="round"/>
<path d="M233.536 125.984C255.579 125.984 273.448 108.115 273.448 86.072C273.448 64.0292 255.579 46.16 233.536 46.16C211.493 46.16 193.624 64.0292 193.624 86.072C193.624 108.115 211.493 125.984 233.536 125.984Z" stroke="#020064" stroke-width="4" stroke-linecap="round" stroke-linejoin="round"/>
<path d="M214.552 91.248V92.284C213.544 92.4708 212.638 93.018 212.002 93.8232C211.368 94.6284 211.047 95.6372 211.1 96.6612C211.153 97.6852 211.577 98.6552 212.292 99.39C213.008 100.125 213.966 100.575 214.988 100.656C215.961 105.313 218.508 109.493 222.2 112.493C225.892 115.493 230.504 117.131 235.262 117.131C240.02 117.131 244.632 115.493 248.324 112.493C252.016 109.493 254.563 105.313 255.536 100.656C256.558 100.575 257.516 100.125 258.232 99.39C258.947 98.6552 259.371 97.6852 259.424 96.6612C259.477 95.6372 259.156 94.6284 258.522 93.8232C257.886 93.018 256.98 92.4708 255.972 92.284V89.524" stroke="#020064" stroke-width="4" stroke-linecap="round" stroke-linejoin="round"/>
<path d="M227.904 93.112C227.352 93.112 226.904 92.6644 226.904 92.112C226.904 91.5596 227.352 91.112 227.904 91.112" stroke="#020064" stroke-width="4"/>
<path d="M227.904 93.112C228.456 93.112 228.904 92.6644 228.904 92.112C228.904 91.5596 228.456 91.112 227.904 91.112" stroke="#020064" stroke-width="4"/>
<path d="M242.986 93.112C242.434 93.112 241.986 92.6644 241.986 92.112C241.986 91.5596 242.434 91.112 242.986 91.112" stroke="#020064" stroke-width="4"/>
<path d="M242.986 93.112C243.538 93.112 243.986 92.6644 243.986 92.112C243.986 91.5596 243.538 91.112 242.986 91.112" stroke="#020064" stroke-width="4"/>
<path d="M230.084 105.2C231.617 106.223 233.419 106.769 235.262 106.769C237.105 106.769 238.907 106.223 240.44 105.2" stroke="#020064" stroke-width="4" stroke-linecap="round" stroke-linejoin="round"/>
<path d="M212.824 76.528V89.524C212.825 89.9816 213.008 90.42 213.332 90.7432C213.656 91.0664 214.094 91.248 214.552 91.248H216.276L220 81.944" stroke="#020064" stroke-width="4" stroke-linecap="round" stroke-linejoin="round"/>
<path d="M257.696 75.716C257.696 72.0544 256.242 68.5432 253.653 65.9536C251.064 63.3644 247.554 61.9092 243.892 61.908H228.36C227.701 61.9088 227.055 61.7208 226.5 61.3664C225.944 61.012 225.501 60.506 225.224 59.908C225.042 59.5068 224.758 59.1612 224.398 58.9068C224.039 58.6524 223.618 58.498 223.18 58.46H220.248C217.604 58.4096 215.036 59.3392 213.037 61.0696C211.038 62.8 209.75 65.2084 209.42 67.832C209.162 70.54 209.98 73.2408 211.697 75.3508C213.414 77.4608 215.892 78.8104 218.596 79.108C219.084 80.94 220.112 82.5836 221.544 83.8256C222.977 85.068 224.749 85.852 226.632 86.076H230.084C230.222 86.0776 230.356 86.0336 230.467 85.9504C230.577 85.8676 230.656 85.7504 230.693 85.6172C230.73 85.4844 230.721 85.3432 230.669 85.2152C230.616 85.0876 230.523 84.9812 230.404 84.912C228.829 83.9808 227.68 82.4704 227.204 80.704C227.153 80.5268 227.144 80.3408 227.176 80.1592C227.209 79.978 227.282 79.8068 227.392 79.6588C227.502 79.5104 227.644 79.3896 227.807 79.3052C227.971 79.2208 228.152 79.1752 228.336 79.172H242.44C242.893 79.1716 243.342 79.2608 243.761 79.4344C244.18 79.608 244.56 79.8628 244.88 80.184L254.224 89.528H255.952C256.41 89.5268 256.848 89.3444 257.171 89.0204C257.494 88.6964 257.676 88.2576 257.676 87.8L257.696 75.716Z" stroke="#020064" stroke-width="4" stroke-linecap="round" stroke-linejoin="round"/>
<path d="M305.696 265.072L322.744 282.124" stroke="#020064" stroke-width="4" stroke-linecap="round" stroke-linejoin="round"/>
<path d="M308.256 296.612L291.688 280.048" stroke="#020064" stroke-width="4" stroke-linecap="round" stroke-linejoin="round"/>
<path d="M375.628 348.8L374.936 349.492C372.138 352.269 368.355 353.828 364.412 353.828C360.469 353.828 356.686 352.269 353.888 349.492L308.132 303.752C307.207 302.819 306.688 301.558 306.688 300.244C306.688 298.93 307.207 297.669 308.132 296.736L322.856 282C323.789 281.074 325.05 280.555 326.364 280.555C327.679 280.555 328.939 281.074 329.872 282L375.628 327.764C377.011 329.144 378.109 330.784 378.857 332.588C379.606 334.393 379.991 336.328 379.991 338.282C379.991 340.236 379.606 342.171 378.857 343.976C378.109 345.78 377.011 347.42 375.628 348.8Z" stroke="#020064" stroke-width="4" stroke-linecap="round" stroke-linejoin="round"/>
<path d="M283.158 286.088C319.359 263.936 330.748 216.63 308.595 180.428C286.442 144.226 239.136 132.838 202.934 154.991C166.733 177.144 155.344 224.45 177.497 260.652C199.65 296.853 246.956 308.242 283.158 286.088Z" stroke="#020064" stroke-width="4" stroke-linecap="round" stroke-linejoin="round"/>
<path d="M277.4 271.544C274.012 265.17 268.985 259.815 262.838 256.032C256.69 252.248 249.645 250.172 242.428 250.018C235.212 249.865 228.084 251.639 221.782 255.157C215.479 258.676 210.228 263.812 206.572 270.036" stroke="#020064" stroke-width="4" stroke-linecap="round" stroke-linejoin="round"/>
<path d="M229.452 251.972L229.368 252.08C229.592 255.163 230.974 258.047 233.237 260.152C235.5 262.258 238.477 263.428 241.568 263.428C244.659 263.428 247.636 262.258 249.899 260.152C252.162 258.047 253.544 255.163 253.768 252.08L253.716 252C245.841 249.376 237.327 249.376 229.452 252V251.972Z" stroke="#020064" stroke-width="4" stroke-linecap="round" stroke-linejoin="round"/>
<path d="M210.336 214.4C209.325 211.212 208.812 207.888 208.816 204.544C208.816 186.524 218.016 172.388 227.372 169.7C228.152 169.477 228.978 169.467 229.763 169.672C230.548 169.876 231.264 170.288 231.836 170.864C241.96 181.048 273.992 168.352 273.992 204.544C273.994 207.871 273.487 211.179 272.488 214.352" stroke="#020064" stroke-width="4" stroke-linecap="round" stroke-linejoin="round"/>
<path d="M268.588 212.692L263.12 215.408L259.172 201.6C258.803 200.274 257.941 199.139 256.762 198.429C255.583 197.719 254.177 197.486 252.832 197.78C245.311 199.567 237.477 199.567 229.956 197.78C228.609 197.482 227.199 197.712 226.016 198.423C224.834 199.133 223.969 200.27 223.6 201.6L219.652 215.412L214.26 212.696C206.512 212.696 207.032 226.276 215.62 226.276H215.64C217.342 231.782 220.764 236.599 225.402 240.02C230.04 243.44 235.652 245.286 241.416 245.286C247.18 245.286 252.792 243.44 257.43 240.02C262.068 236.599 265.49 231.782 267.192 226.276C275.816 226.272 276.34 212.692 268.588 212.692Z" stroke="#020064" stroke-width="4" stroke-linecap="round" stroke-linejoin="round"/>
<path d="M232.68 215.372C231.576 215.372 230.68 214.477 230.68 213.372C230.68 212.268 231.576 211.372 232.68 211.372" stroke="#020064" stroke-width="4"/>
<path d="M232.68 215.372C233.784 215.372 234.68 214.477 234.68 213.372C234.68 212.268 233.784 211.372 232.68 211.372" stroke="#020064" stroke-width="4"/>
<path d="M250.26 215.372C249.156 215.372 248.26 214.477 248.26 213.372C248.26 212.268 249.156 211.372 250.26 211.372" stroke="#020064" stroke-width="4"/>
<path d="M250.26 215.372C251.364 215.372 252.26 214.477 252.26 213.372C252.26 212.268 251.364 211.372 250.26 211.372" stroke="#020064" stroke-width="4"/>
<path d="M234.68 229.648C236.691 230.988 239.054 231.703 241.47 231.703C243.886 231.703 246.249 230.988 248.26 229.648" stroke="#020064" stroke-width="4" stroke-linecap="round" stroke-linejoin="round"/>
<path d="M286.52 177.068C295.118 185.666 300.974 196.621 303.346 208.547C305.719 220.473 304.502 232.834 299.848 244.069C295.195 255.303 287.315 264.905 277.205 271.66C267.094 278.416 255.208 282.022 243.048 282.022C230.888 282.022 219.002 278.416 208.891 271.66C198.781 264.905 190.901 255.303 186.248 244.069C181.594 232.834 180.377 220.473 182.75 208.547C185.122 196.621 190.978 185.666 199.576 177.068C205.284 171.358 212.062 166.829 219.521 163.739C226.98 160.649 234.974 159.058 243.048 159.058C251.122 159.058 259.116 160.649 266.576 163.739C274.034 166.829 280.812 171.358 286.52 177.068Z" stroke="#020064" stroke-width="4" stroke-linecap="round" stroke-linejoin="round"/>
<path d="M150.328 320.772C164.352 320.772 175.72 309.404 175.72 295.38C175.72 281.356 164.352 269.988 150.328 269.988C136.304 269.988 124.936 281.356 124.936 295.38C124.936 309.404 136.304 320.772 150.328 320.772Z" stroke="#020064" stroke-width="4" stroke-linecap="round" stroke-linejoin="round"/>
<path d="M142.16 294.8C142.207 296.936 143.089 298.968 144.616 300.461C146.143 301.955 148.194 302.791 150.33 302.791C152.466 302.791 154.517 301.955 156.044 300.461C157.571 298.968 158.453 296.936 158.5 294.8V290.704C158.453 288.568 157.571 286.536 156.044 285.043C154.517 283.549 152.466 282.713 150.33 282.713C148.194 282.713 146.143 283.549 144.616 285.043C143.089 286.536 142.207 288.568 142.16 290.704V294.8Z" stroke="#020064" stroke-width="4" stroke-linecap="round" stroke-linejoin="round"/>
<path d="M167.304 314.264C162.643 318.45 156.599 320.766 150.334 320.766C144.069 320.766 138.025 318.45 133.364 314.264C134.766 310.924 137.122 308.073 140.137 306.067C143.152 304.06 146.693 302.989 150.315 302.986C153.936 302.983 157.478 304.049 160.497 306.05C163.516 308.051 165.877 310.899 167.284 314.236" stroke="#020064" stroke-width="4" stroke-linecap="round" stroke-linejoin="round"/>
<path d="M142.228 289.652C142.443 288.005 143.155 286.463 144.269 285.23C145.383 283.998 146.846 283.135 148.463 282.755C150.08 282.376 151.774 282.498 153.32 283.105C154.866 283.713 156.19 284.777 157.116 286.156C155.183 288.031 152.777 289.346 150.155 289.962C147.534 290.577 144.794 290.47 142.228 289.652Z" stroke="#020064" stroke-width="4" stroke-linecap="round" stroke-linejoin="round"/>
<path d="M106.704 137.592C120.728 137.592 132.096 126.224 132.096 112.2C132.096 98.1764 120.728 86.808 106.704 86.808C92.6804 86.808 81.312 98.1764 81.312 112.2C81.312 126.224 92.6804 137.592 106.704 137.592Z" stroke="#020064" stroke-width="4" stroke-linecap="round" stroke-linejoin="round"/>
<path d="M98.5359 111.6C98.5359 113.766 99.3963 115.844 100.928 117.376C102.46 118.907 104.537 119.768 106.704 119.768C108.87 119.768 110.948 118.907 112.479 117.376C114.011 115.844 114.872 113.766 114.872 111.6V107.524C114.872 105.358 114.011 103.28 112.479 101.748C110.948 100.216 108.87 99.356 106.704 99.356C104.537 99.356 102.46 100.216 100.928 101.748C99.3963 103.28 98.5359 105.358 98.5359 107.524V111.6Z" stroke="#020064" stroke-width="4" stroke-linecap="round" stroke-linejoin="round"/>
<path d="M123.676 131.084C119.016 135.27 112.972 137.586 106.708 137.586C100.444 137.586 94.4004 135.27 89.74 131.084C91.1352 127.738 93.4888 124.88 96.5048 122.868C99.5204 120.857 103.064 119.782 106.689 119.779C110.314 119.776 113.859 120.845 116.878 122.852C119.897 124.858 122.255 127.713 123.656 131.056" stroke="#020064" stroke-width="4" stroke-linecap="round" stroke-linejoin="round"/>
<path d="M98.6001 106.472C98.8141 104.824 99.5253 103.28 100.639 102.048C101.753 100.814 103.217 99.9504 104.835 99.5712C106.453 99.1916 108.148 99.3144 109.694 99.9236C111.24 100.533 112.564 101.599 113.488 102.98C111.554 104.854 109.148 106.168 106.526 106.783C103.905 107.398 101.166 107.29 98.6001 106.472Z" stroke="#020064" stroke-width="4" stroke-linecap="round" stroke-linejoin="round"/>
</svg>
