<svg width="400" height="400" viewBox="0 0 400 400" fill="none" xmlns="http://www.w3.org/2000/svg">
<g clip-path="url(#clip0_902_9130)">
<path d="M105.464 0C107.612 11.5249 106.926 23.3993 103.464 34.6C109.006 32.2603 113.677 28.2437 116.82 23.114C116.02 35.268 111.88 48.09 104 57.438C109.686 57.3039 115.299 56.127 120.56 53.966C117.881 59.2481 114.173 63.9414 109.654 67.7702C105.135 71.599 99.8964 74.4862 94.2461 76.262C100.35 77.9549 106.619 78.9848 112.944 79.334C110.288 82.3231 107.012 84.6964 103.344 86.2882C99.6764 87.88 95.7052 88.6519 91.7081 88.55C95.605 89.9893 99.854 90.176 103.862 89.084C99.2005 94.9348 93.4948 99.8708 87.0341 103.642C81.2829 102.389 76.0314 99.4616 71.9421 95.228C70.7163 87.3664 70.3575 79.3939 70.8721 71.454C71.0133 68.6865 71.5073 65.9484 72.3421 63.306C73.8278 59.7115 75.8053 56.3406 78.2181 53.29C89.3041 37.664 98.6521 17.764 105.464 0Z" fill="black"/>
<path d="M170.774 237.334L169.438 234.262C177.47 230.562 184.667 225.268 190.59 218.701C196.514 212.134 201.041 204.432 203.896 196.062C205.766 190.462 205.766 186.312 204.03 183.374C201.492 179.1 195.616 177.898 190.942 178.174C188.654 178.345 186.379 178.657 184.13 179.108C180.876 179.756 177.564 180.069 174.246 180.042C168.37 179.91 161.158 176.704 159.556 170.426C158.991 167.356 159.174 164.196 160.09 161.212C160.531 159.51 160.799 157.768 160.89 156.012C160.81 153.563 160.181 151.163 159.048 148.99C157.915 146.817 156.308 144.926 154.346 143.458C150.161 140.331 145.581 137.771 140.724 135.846L142.06 132.774C147.291 134.75 152.198 137.496 156.618 140.92C158.96 142.722 160.871 145.024 162.211 147.658C163.551 150.292 164.286 153.192 164.364 156.146C164.258 158.125 163.944 160.087 163.428 162C162.663 164.462 162.48 167.069 162.894 169.614C164.094 174.288 169.706 176.558 174.38 176.692C177.476 176.699 180.565 176.386 183.596 175.756C185.981 175.314 188.389 175.002 190.808 174.822C198.288 174.422 204.298 176.96 207.102 181.768C209.372 185.64 209.372 190.716 207.236 197.26C204.13 206.03 199.306 214.091 193.045 220.973C186.784 227.854 179.212 233.416 170.774 237.334Z" fill="#643CFF"/>
<path d="M124.696 384.916C129.372 383.716 134.046 382.116 138.72 380.642C124.162 348.988 83.9621 264.312 82.2261 251.358C85.8261 249.758 89.5701 246.416 92.5101 234.796C95.1801 224.378 95.7101 211.958 97.8521 201.406C98.7148 196.674 99.8324 191.993 101.2 187.382C95.3241 187.116 92.2521 191.782 90.3821 195.664C88.2828 199.472 86.7531 203.567 85.8421 207.818C85.0421 194.194 78.8961 181.64 72.8861 169.352C70.4561 164.334 68.052 159.303 65.6741 154.26C63.0021 154.794 62.0741 156.66 61.4001 159.202C60.8889 161.98 60.8436 164.823 61.2661 167.616C61.8153 170.196 62.5281 172.738 63.4001 175.228C59.2581 169.086 57.1221 165.612 53.2481 162.274C49.5101 158.934 44.4341 156.932 39.8921 154.528C39.4402 156.313 39.3977 158.177 39.7679 159.981C40.1382 161.785 40.9115 163.481 42.0301 164.944C39.7601 163.476 37.0881 162.944 34.8181 161.472C34.1565 163.541 34.0053 165.739 34.3772 167.878C34.7492 170.018 35.6333 172.036 36.9541 173.76C38.2901 175.496 40.1541 176.832 41.6301 178.434C45.0304 182.591 46.9563 187.758 47.1061 193.126C41.0815 187.662 34.6518 182.661 27.8721 178.168C24.1341 189.252 37.0881 195.53 40.6941 204.878C44.6941 215.162 39.7601 226.248 40.9621 236.8C42.1621 246.148 50.9781 253.762 54.8521 262.176C73.1501 302.91 80.4941 346.05 90.7781 388.922C102.22 389.272 113.65 387.922 124.696 384.916Z" fill="#E57B23"/>
<path d="M68.7361 254.428C71.1361 256.7 75.2801 257.1 78.3521 257.228C80.0828 257.362 81.8213 257.362 83.5521 257.228C82.9177 255.275 82.471 253.266 82.2181 251.228C82.8921 251.224 76.7501 254.162 68.7361 254.428ZM56.9821 187.916C56.1471 184.387 54.9847 180.945 53.5101 177.632C51.9929 174.56 49.8059 171.867 47.1101 169.752C46.1741 168.952 45.2401 168.284 44.3101 167.482C47.3821 171.622 50.3201 175.63 52.9921 180.036C54.4441 182.708 55.6461 185.38 56.9821 187.916ZM60.7221 177.366C63.2634 182.816 65.5367 188.388 67.5341 194.06C67.4001 191.79 67.1341 189.386 66.8661 187.116C66.5776 184.247 65.9499 181.423 64.9961 178.702C64.5508 177.568 63.9678 176.493 63.2601 175.502C60.7941 171.402 57.931 167.555 54.7121 164.016C55.1121 164.95 55.5121 165.752 55.9121 166.688C57.5424 170.235 59.1458 173.795 60.7221 177.366ZM75.5481 216.098C71.3933 219.248 67.983 223.275 65.5593 227.891C63.1356 232.508 61.7579 237.601 61.5241 242.81C59.5241 234.796 57.2501 226.916 55.6461 218.902C61.8001 219.17 69.5361 215.03 75.5481 216.098Z" fill="#B2490F"/>
<path d="M233.68 333.362C220.324 333.228 198.554 332.828 188.404 322.276C183.462 317.076 183.604 305.716 183.73 298.77C183.978 290.232 185.46 281.775 188.13 273.662C192.53 260.038 199.75 247.618 207.63 235.73C214.976 224.646 223.658 214.362 227.264 201.272C231.004 187.382 228.864 172.824 227.264 158.534C225.126 138.768 224.326 118.466 229.264 99.1C234.202 79.734 245.426 61.3 262.788 51.554C280.15 41.67 305.66 42.07 320.352 55.554C332.772 56.622 343.724 64.77 350.268 75.32C356.812 85.87 359.218 98.56 359.218 110.982C359.218 123.404 356.946 135.69 354.676 147.844C351.876 162.668 345.862 175.49 346.128 191.116C346.357 206.193 350.453 220.959 358.024 234C362.298 241.48 367.774 248.158 372.582 255.236C377.096 261.688 380.86 268.633 383.8 275.938C391.385 295.174 391.575 316.538 384.334 335.906C384.468 331.506 380.462 328.026 376.856 325.488C373.109 323.085 368.858 321.579 364.434 321.088C346.938 318.418 329.308 322.958 312.08 326.432C286.233 331.278 259.976 333.599 233.68 333.362Z" fill="black"/>
<path d="M375.118 379.306C383.266 347.118 385.536 312.526 375.518 280.874C373.721 274.477 370.779 268.458 366.836 263.11C360.826 255.898 351.476 251.758 342.394 249.086C324.098 243.886 324.364 240.538 314.748 237.066C295.512 246.236 273.881 249.132 252.91 245.346C251.424 245.384 249.965 245.749 248.636 246.416C247.436 246.816 246.1 247.084 244.898 247.616C242.626 248.416 240.498 249.352 238.352 250.286C232.325 252.972 226.123 255.248 219.788 257.098C213.297 258.564 207.237 261.524 202.09 265.743C196.943 269.961 192.851 275.323 190.14 281.4C182.528 296.892 179.456 313.988 174.514 330.55C169.48 347.151 162.344 363.04 153.278 377.83C175.635 374.001 198.472 373.911 220.858 377.562C231.81 379.298 242.496 381.962 253.446 383.706C268.615 386.001 283.919 387.295 299.258 387.578C325.302 388.254 350.678 388.388 375.118 379.306Z" fill="#14D29B"/>
<path d="M221.928 288.486C224.198 293.428 226.602 298.236 229.272 302.91C231.544 307.052 234.214 310.924 236.486 314.93C241.026 322.544 245.434 330.29 251.578 336.568C254.315 339.562 257.632 341.97 261.326 343.646C265.033 345.214 269.078 345.812 273.08 345.382C281.494 344.714 289.24 340.582 296.186 335.9C302.893 331.127 309.233 325.859 315.152 320.14C330.778 305.314 344 288.086 356.288 270.188C358.688 266.716 361.088 263.244 363.632 259.772C361.384 257.772 358.921 256.028 356.288 254.572C354.828 256.052 353.403 257.566 352.014 259.114C339.036 272.65 325.35 285.489 311.014 297.578C305.065 302.696 298.725 307.34 292.05 311.468C285.514 315.626 278.112 318.231 270.412 319.082C262.688 319.567 255.063 317.136 249.044 312.27C242.9 307.47 238.76 300.784 234.486 294.372L227.274 283.956C224.602 279.956 222.198 275.942 219.794 271.802C217.39 267.662 215.12 263.52 212.716 259.38C211.758 259.771 210.823 260.217 209.916 260.716C214.048 270.056 217.786 279.4 221.928 288.486ZM194.548 324.548C197.809 338.556 202.094 352.305 207.37 365.684C208.838 369.284 210.308 372.896 211.91 376.368C214.848 376.768 217.786 377.168 220.858 377.568C227.27 378.636 233.68 379.968 240.224 381.168C238.165 378.883 236.248 376.475 234.482 373.956C227.317 363.672 221.357 352.6 216.718 340.956C211.118 327.468 206.434 313.578 202.16 299.688C199.622 291.006 197.086 282.324 194.814 273.51C193.096 275.967 191.578 278.557 190.274 281.256C189.482 282.776 188.768 284.336 188.136 285.93C189.404 298.932 191.546 311.834 194.548 324.548ZM333.982 387.454C338.124 381.576 341.996 375.432 345.736 369.422C354.016 356.334 361.63 342.844 368.976 329.088C373.116 321.476 376.988 313.862 380.862 306.116C379.815 297.694 378.027 289.382 375.52 281.274C370.72 289.688 365.77 297.968 360.428 306.116C353.082 317.602 345.068 328.82 336.654 339.64C329.173 349.146 321.286 358.325 313.014 367.152C306.242 374.731 298.573 381.459 290.176 387.186C293.114 387.32 296.052 387.454 298.99 387.454C311.01 387.854 322.496 388.122 333.982 387.454Z" fill="#008C6E"/>
<path d="M224.464 144.778C222.988 148.09 222.614 151.788 223.396 155.328C223.83 157.089 224.769 158.685 226.098 159.919C227.427 161.153 229.088 161.972 230.876 162.274C232.565 162.376 234.25 162.021 235.754 161.247C237.258 160.473 238.526 159.308 239.424 157.874C241.189 154.978 242.113 151.649 242.094 148.258C242.484 144.742 241.635 141.2 239.694 138.242C233.546 130.62 226.868 138.9 224.464 144.778ZM216.852 183.108C214.875 186.787 214.306 191.06 215.252 195.128C216.852 200.738 222.062 204.612 227.672 206.348C231.536 207.759 235.797 207.615 239.558 205.948C244.902 203.148 247.038 196.198 245.97 190.188C244.902 184.178 241.428 178.968 238.09 174.026C234.89 169.226 232.346 164.01 227.004 169.626C223.058 173.668 219.646 178.199 216.852 183.108Z" fill="#FDB849"/>
<path d="M241.96 138.634C241.48 139.468 240.803 140.172 239.988 140.684C239.173 141.196 238.246 141.501 237.286 141.572C236.324 141.526 235.397 141.202 234.616 140.638C230.791 137.99 227.969 134.133 226.602 129.686C224.562 123.768 223.967 117.449 224.866 111.254C225.153 108.811 225.925 106.45 227.136 104.31C227.76 103.263 228.613 102.371 229.63 101.7C230.648 101.029 231.804 100.597 233.012 100.436C240.092 99.768 245.7 109.652 246.234 115.796C247.036 123.14 246.502 132.356 241.96 138.634Z" fill="#E57B23"/>
<path d="M236.352 130.754C237.82 125.954 239.424 121.004 238.622 115.928C237.954 112.19 234.348 104.978 229.674 104.978H229.14C232.478 109.118 230.74 115.796 230.608 120.604C230.408 123.964 230.678 127.335 231.408 130.62C232.067 133.441 233.053 136.175 234.346 138.768C234.825 136.053 235.495 133.375 236.352 130.754Z" fill="#B2490F"/>
<path d="M212.978 335.632C199.756 294.096 181.86 242.942 168.504 201.4C152.076 198.328 112.676 190.448 109.872 190.314L105.33 195.114C118.42 237.714 138.186 284.466 152.878 326.67C158.22 327.752 199.622 333.63 212.978 335.632Z" fill="#FF465A"/>
<path d="M208.438 340.44C195.216 298.904 177.318 247.752 163.962 206.214C147.536 203.142 108.136 195.262 105.33 195.128C119.354 240.672 132.71 286.35 148.33 331.358C153.678 332.56 195.082 338.438 208.438 340.44Z" fill="#D70A32"/>
<path d="M132.042 226.114C131.642 224.646 131.242 223.042 130.842 221.574C129.642 217.434 128.172 210.888 124.832 207.95C124.046 207.264 123.05 206.864 122.008 206.816C120.965 206.767 119.937 207.074 119.09 207.684C116.15 210.484 118.422 215.964 119.356 219.17C121.756 226.648 123.23 231.992 125.5 239.872C126.3 242.542 127.9 246.272 131.244 246.672C133.78 246.94 134.582 244.936 134.844 242.672C134.864 240.659 134.684 238.649 134.308 236.672C133.646 233.06 132.978 229.588 132.042 226.114Z" fill="black"/>
<path d="M235.284 251.624C252.78 244.144 265.468 238.536 268.806 182.308C279.994 177.342 292.391 175.763 304.466 177.766C304.332 188.184 304.6 198.736 307.266 208.752C309.932 218.768 314.744 238.536 330.772 245.08C309.134 260.974 285.094 262.976 266.53 289.956C260.4 266.716 246.234 265.38 235.284 251.624Z" fill="#E57B23"/>
<path d="M243.564 256.966C245.943 259.702 248.533 262.248 251.31 264.58C254.325 267.247 257.59 269.617 261.06 271.658C261.86 268.586 262.66 265.514 263.598 262.442C261.483 261.496 259.472 260.332 257.598 258.97C252.798 255.37 247.848 251.892 243.174 248.018C241.574 248.818 239.974 249.618 238.232 250.288C239.958 252.56 241.694 254.83 243.564 256.966ZM287.504 268.586C291.244 266.716 294.85 264.846 298.322 262.71C307.672 256.298 316.486 249.22 325.436 242.276C323.983 241.263 322.643 240.099 321.436 238.802C320.368 239.602 319.3 240.272 318.364 241.074C314.764 243.744 311.286 246.274 307.546 248.686C303.946 250.956 300.334 252.96 296.46 254.964C292.722 256.832 288.848 258.436 285.108 260.164C282.092 261.785 278.914 263.083 275.626 264.038C275.626 267.238 275.76 270.448 275.892 273.654C279.758 272.2 283.632 270.456 287.504 268.586Z" fill="#B2490F"/>
<path d="M283.498 205.546C278.987 207.642 274.046 208.648 269.074 208.484C267.617 208.426 266.196 208.015 264.934 207.284C266.002 199.672 268.134 192.46 268.672 182.31C279.86 177.344 292.257 175.765 304.332 177.768C304.332 181.768 304.332 185.782 304.6 189.788C298.729 196.44 291.544 201.806 283.498 205.546Z" fill="black"/>
<path d="M229.4 149.72C229.565 153.916 230.192 158.081 231.27 162.14C234.208 173.092 240.886 183.776 250.77 189.654C270.27 201.272 297.114 196.198 314.344 182.574C328.902 171.222 336.248 154.528 342.524 137.574C347.2 125.018 351.34 110.862 350.138 97.374C348.802 82.014 336.248 70.528 323.96 62.648C311.94 54.77 297.248 48.626 282.69 49.56C275.75 49.8248 269.088 52.3582 263.726 56.772C248.632 69.862 238.616 92.834 234.076 111.398C231.81 123.942 228.872 137.032 229.4 149.72Z" fill="#E57B23"/>
<path d="M352.014 97.498C350.678 82.138 337.054 69.718 324.9 61.698C312.88 53.818 297.654 47.54 283.1 48.476C275.782 48.9254 268.783 51.6315 263.066 56.222C248.508 68.91 239.024 90.022 234.75 110.046C236.954 105.653 239.453 101.414 242.23 97.358C245.97 91.758 249.442 86.006 253.45 80.664C257.249 75.086 261.89 70.1299 267.206 65.972C269.493 64.2391 272.071 62.9273 274.818 62.098C277.273 61.5621 279.799 61.427 282.298 61.698C286.698 62.098 291.914 63.834 293.384 68.242C299.784 64.37 308.742 67.574 314.752 70.914C321.175 74.1927 326.339 79.497 329.444 86.006C332.125 92.6035 333.179 99.7494 332.516 106.84C332.116 115.122 330.516 123.268 329.978 131.682C329.503 139.132 330.177 146.61 331.978 153.854C333.465 153.716 334.937 153.449 336.378 153.054C338.65 148.112 341.578 142.904 343.59 137.828C348.14 125.01 353.082 110.988 352.014 97.498Z" fill="black"/>
<path d="M279.784 100.461C280.382 98.3306 279.543 96.232 277.91 95.7733C276.276 95.3145 274.467 96.6694 273.869 98.7995C273.271 100.93 274.11 103.028 275.743 103.487C277.377 103.946 279.186 102.591 279.784 100.461Z" fill="#D70A32"/>
<path d="M281.894 123.676C285.768 119.676 289.642 115.662 295.518 115.128C306.202 113.658 314.082 123.676 312.08 133.692C304.373 132.125 296.853 129.753 289.642 126.614L281.894 123.676ZM237.02 109.25C240.892 105.25 244.766 101.238 250.642 100.704C261.326 99.234 269.206 109.25 267.204 119.268C259.498 117.703 251.978 115.334 244.766 112.2" fill="#B2490F"/>
<path d="M312.08 133.692C311.091 130.695 309.436 127.96 307.24 125.693C305.044 123.426 302.364 121.685 299.4 120.6C296.444 119.564 293.271 119.302 290.185 119.84C287.099 120.377 284.202 121.697 281.77 123.672C281.77 123.672 284.708 128.746 294.458 132.218C300.013 134.623 306.203 135.141 312.08 133.692ZM267.07 119.134C266.079 116.137 264.423 113.403 262.226 111.136C260.029 108.87 257.347 107.129 254.382 106.046C251.426 105.01 248.253 104.748 245.167 105.286C242.081 105.823 239.184 107.143 236.752 109.118C236.752 109.118 239.69 114.192 249.44 117.666C259.724 121.672 267.07 119.134 267.07 119.134Z" fill="white"/>
<path d="M296.854 128.75C297.549 126.03 298.627 123.422 300.054 121.004C299.811 120.855 299.538 120.764 299.254 120.736C296.298 119.701 293.125 119.44 290.039 119.977C286.953 120.515 284.056 121.834 281.624 123.808C281.624 123.808 284.562 128.884 294.312 132.356C294.823 132.595 295.36 132.774 295.912 132.89C296.148 131.493 296.462 130.111 296.854 128.75ZM251.444 111.654C252.119 109.818 253.016 108.072 254.114 106.454C254.248 106.32 254.248 106.188 254.382 106.188C251.426 105.152 248.254 104.89 245.167 105.428C242.081 105.965 239.184 107.284 236.752 109.258C236.752 109.258 239.69 114.334 249.44 117.806C249.708 117.94 249.84 117.94 250.108 118.074C250.333 115.894 250.781 113.743 251.444 111.654ZM32.5421 207.15C28.1922 203.696 24.4459 199.543 21.4561 194.862C18.3044 189.991 16.8491 184.217 17.3161 178.434L21.0561 178.834C20.6666 183.821 21.9319 188.797 24.6561 192.992C27.4999 197.347 31.0154 201.223 35.0721 204.478L32.5421 207.15ZM18.6521 204.612C13.5249 199.231 10.5742 192.141 10.3701 184.712L14.1101 184.578C14.291 191.083 16.9135 197.281 21.4561 201.94L18.6521 204.612ZM86.0981 183.51C84.084 170.442 79.004 158.037 71.2741 147.31L74.3461 145.172C82.377 156.397 87.6813 169.339 89.8381 182.972L86.0981 183.51ZM90.1041 168.284C89.1715 162.79 87.1755 157.53 84.2281 152.8L87.4281 150.8C90.6089 155.953 92.7808 161.664 93.8281 167.628L90.1041 168.284ZM266.536 98.7C262.662 96.562 259.056 94.026 255.05 92.288C251.075 90.3438 246.592 89.6906 242.228 90.42C243.607 88.6321 245.429 87.2355 247.514 86.3687C249.599 85.5019 251.874 85.1948 254.114 85.478C258.619 85.9987 262.977 87.4057 266.936 89.618C268.814 90.3801 270.57 91.4152 272.146 92.69C270.4 94.96 268.4 96.296 266.536 98.7ZM320.226 124.744C318.626 116.864 313.282 113.392 307.672 110.988C302.085 108.861 296.155 107.776 290.176 107.788C290.71 104.85 291.376 101.912 292.046 98.972C298.024 99.688 303.819 101.5 309.14 104.316C312.48 106.052 316.62 108.856 318.356 112.596C320.092 116.336 320.226 118.734 320.226 124.744Z" fill="black"/>
<path d="M281.36 160.4C277.36 164.94 274.95 167.478 269.074 168.948C266.375 169.679 263.549 169.816 260.792 169.348C259.412 169.087 258.098 168.55 256.93 167.77C255.762 166.99 254.763 165.983 253.992 164.808C253.252 163.632 252.847 162.276 252.824 160.887C252.8 159.497 253.158 158.128 253.858 156.928C255.244 157.941 256.843 158.625 258.532 158.928C265.954 161.017 273.732 161.518 281.36 160.4Z" fill="#B2490F"/>
<path d="M285.768 158.934C280.507 159.648 275.153 158.765 270.4 156.4C267.2 154.662 264.4 152.126 261.318 150.256C257.98 148.386 250.368 146.114 248.364 151.19C248.176 151.758 248.103 152.357 248.149 152.953C248.195 153.549 248.358 154.13 248.63 154.662C251.83 161.074 263.856 162.41 270 163.076C275.561 163.418 281.085 161.967 285.76 158.936" fill="black"/>
<path d="M261.862 140.37C257.72 138.77 253.58 137.298 250.642 133.97C257.44 127.305 263.903 120.306 270.008 113C267.47 122.34 265.334 131.154 261.862 140.37Z" fill="#B2490F"/>
<path d="M319.024 158.934C318.653 159.813 318.495 160.768 318.565 161.72C318.634 162.672 318.929 163.594 319.424 164.41C320.031 165.13 320.813 165.682 321.696 166.01C326.095 167.612 330.919 167.612 335.318 166.01C341.306 164.184 346.761 160.929 351.212 156.526C353.011 154.869 354.464 152.872 355.486 150.65C355.972 149.525 356.2 148.305 356.154 147.081C356.107 145.856 355.788 144.657 355.218 143.572C351.618 137.428 340.26 138.772 335.052 141.836C328.64 145.712 321.428 151.588 319.024 158.934Z" fill="#E57B23"/>
<path d="M325.97 156.4C329.695 156.24 333.404 156.972 336.788 158.536C336.232 157.04 336.138 155.412 336.52 153.862C337.32 150.79 340.52 149.722 343.332 149.186C346.144 148.65 349.074 148.52 351.88 148.118C342.932 143.308 331.312 147.982 325.97 156.4Z" fill="#B2490F"/>
<path d="M322.23 170.42C320.752 173.732 320.378 177.431 321.162 180.972C321.595 182.733 322.534 184.329 323.863 185.562C325.191 186.796 326.852 187.614 328.64 187.916C330.329 188.02 332.015 187.666 333.519 186.891C335.024 186.117 336.291 184.951 337.188 183.516C338.953 180.621 339.878 177.291 339.86 173.9C340.248 170.383 339.399 166.841 337.46 163.882C331.178 156.264 324.634 164.544 322.23 170.42Z" fill="#FFD340"/>
<path d="M367.238 282.076C368.081 276.55 368.528 270.97 368.574 265.38C368.62 259.734 367.097 254.185 364.174 249.354C359.226 242 320.894 211.424 313.282 198.2C312.482 212.224 306.604 225.314 300.058 237.734C293.382 250.022 285.768 262.042 281.094 275.134C273.214 297.306 274.016 321.746 277.622 344.986C274.822 327.624 283.898 311.328 293.782 296.77C303.666 282.346 315.552 268.858 321.696 252.43C318.758 266.186 310.476 277.138 304.332 289.692C296.186 306.388 292.98 326.422 300.058 343.516C298.458 330.562 303.258 317.606 309.14 305.986C315.022 294.366 322.63 283.816 329.042 272.464C334.784 262.312 339.326 251.094 340.26 239.474C345.728 242.839 350.056 247.772 352.68 253.632C355.871 261.212 357.634 269.317 357.88 277.538C358.414 285.686 358.146 293.966 359.08 302.114C360.411 314.647 364.273 326.779 370.432 337.774C364.702 320 364.968 300.774 367.238 282.076Z" fill="black"/>
<path d="M314.484 208.752C312.508 212.431 311.939 216.704 312.884 220.772C314.484 226.382 319.696 230.254 325.306 231.992C329.17 233.403 333.431 233.259 337.192 231.592C342.534 228.792 344.672 221.842 343.602 215.832C342.532 209.822 339.062 204.614 335.724 199.672C332.524 194.872 329.98 189.656 324.638 195.272C320.732 199.348 317.324 203.873 314.484 208.752Z" fill="#FFD340"/>
<path d="M294.984 395.6L289.784 392C274.29 380.837 259.971 368.128 247.046 354.07C234.358 340.314 222.604 325.354 216.06 307.592C212.188 297.174 218.198 273.134 186.544 256.038L190.8 268.72C184.924 268.32 179.046 262.976 174.506 259.37C162.886 250.022 156.61 224.244 139.906 230.79C147.786 243.61 154.864 257.234 162.878 269.922C155.666 264.58 150.59 257.234 144.448 250.822C138.306 244.41 132.56 235.33 122.276 239.07C124.548 242.942 126.55 247.618 128.82 251.49C126.42 249.09 125.082 247.35 120.274 249.49C124.027 262.14 130.865 273.66 140.174 283.012C133.896 276.868 123.478 270.458 116.132 277.536C130.29 286.618 139.772 298.772 150.19 310.792C157.835 319.734 166.535 327.717 176.1 334.566C180.765 337.365 185.581 339.906 190.524 342.178C195.466 344.716 200.676 346.578 205.082 349.792C208.345 352.387 211.302 355.344 213.898 358.606C223.246 369.692 231.126 381.712 240.342 393.064C244.216 397.74 251.026 398.942 257.038 399.742C269.874 401.476 281.894 393.864 294.984 395.6Z" fill="#E57B23"/>
<path d="M145.264 289.154L142.864 286.354C141.396 284.618 141.396 284.484 139.926 282.88C135.926 278.608 130.444 275.268 126.17 274.734C128.858 276.682 131.401 278.821 133.782 281.134C137.382 284.608 141.528 289.95 146.872 291.286C146.604 290.886 146.338 290.618 146.072 290.216C145.938 290.084 145.938 289.95 145.804 289.95C145.666 289.688 145.4 289.422 145.264 289.154ZM140.6 268.986C136.06 262.844 128.446 250.956 128.714 251.358C127.738 250.109 126.447 249.143 124.974 248.558C126.844 253.1 128.714 257.506 130.974 261.78C132.562 265.186 134.582 268.374 136.984 271.264C139.784 274.464 143.528 276.064 147.134 278.074C147.802 278.474 148.604 279.01 149.272 279.41C146.199 276.091 143.305 272.611 140.6 268.986Z" fill="#B2490F"/>
<path d="M55.246 87.48C55.2224 93.6117 56.2152 99.7049 58.184 105.512C59.7136 110.742 62.5127 115.513 66.332 119.4C71.942 124.6 80.088 126.612 87.834 126.21C95.6508 125.547 103.314 123.653 110.54 120.6C112.507 123.065 115.039 125.02 117.921 126.299C120.804 127.578 123.953 128.143 127.1 127.946C125.347 127.294 123.771 126.242 122.496 124.874C121.221 123.506 120.282 121.86 119.754 120.066C122.786 122.227 126.115 123.936 129.638 125.14C133.37 126.175 137.349 125.844 140.858 124.206C135.606 124.204 130.532 122.307 126.566 118.864C130.613 120.132 134.904 120.418 139.083 119.698C143.262 118.979 147.21 117.274 150.6 114.726C130.166 115.526 109.064 107.648 95.04 92.69C97.578 83.34 97.178 71.186 104.79 65.176C122.215 51.1563 136.389 33.5217 146.334 13.49C135.139 25.5128 122.69 36.3036 109.2 45.678C102.254 50.478 95.042 54.892 88.898 60.636C82.754 66.38 77.55 73.6 75.948 81.872C74.612 74.124 66.732 68.516 59.12 66.512C55.8829 65.4714 52.4314 65.2874 49.102 65.978C47.4316 66.3195 45.8728 67.0725 44.5669 68.1688C43.2611 69.265 42.2496 70.6699 41.624 72.256C41.1121 74.0628 41.1022 75.975 41.5956 77.7869C42.0889 79.5989 43.0668 81.2421 44.424 82.54C47.5062 85.154 51.2518 86.8638 55.246 87.48Z" fill="#9778FF"/>
<path d="M146.066 13.222C145.556 24.9514 142.161 36.3739 136.182 46.478C142.118 45.4733 147.587 42.6229 151.81 38.332C148.348 50.3686 141.202 61.0176 131.374 68.782C136.952 69.9826 142.707 70.1183 148.336 69.182C144.532 73.7205 139.85 77.444 134.571 80.1291C129.293 82.8142 123.527 84.4056 117.618 84.808C123.13 87.9243 129.007 90.3467 135.114 92.02C131.855 94.3122 128.137 95.8695 124.217 96.5843C120.297 97.2991 116.269 97.1543 112.41 96.16C115.846 98.5395 119.994 99.6689 124.162 99.36C118.223 103.945 111.538 107.472 104.4 109.786C99.1035 107.218 94.6539 103.185 91.5781 98.166C92.2433 90.2449 93.7176 82.4128 95.9781 74.792C96.7583 72.1208 97.8817 69.5622 99.3201 67.18C101.567 63.9998 104.267 61.1652 107.334 58.766C121.758 46.212 135.514 28.982 146.066 13.222ZM60.4541 71.72C60.1175 70.5528 59.4187 69.5227 58.4585 68.7786C57.4983 68.0344 56.3264 67.6147 55.1121 67.58C52.6644 67.576 50.3135 68.5359 48.5681 70.252C52.7081 68.248 56.4481 69.05 60.4541 71.72Z" fill="#643CFF"/>
<path d="M43.2261 78.934C37.6261 77.998 33.6101 73.858 29.6021 69.852C33.9493 70.7866 38.4303 70.9221 42.8261 70.252C43.7615 71.5706 44.1878 73.1834 44.0261 74.792C43.9661 76.2047 43.6965 77.6006 43.2261 78.934Z" fill="#D70A32"/>
</g>
<defs>
<clipPath id="clip0_902_9130">
<rect width="400" height="400" fill="white"/>
</clipPath>
</defs>
</svg>
