<svg width="400" height="400" viewBox="0 0 400 400" fill="none" xmlns="http://www.w3.org/2000/svg">
<path d="M253.82 299.24C252.478 302.418 250.788 305.436 248.78 308.24C258.42 315.38 263.38 327.9 266.78 338.98C267.98 342.98 269.02 346.98 269.86 350.98H285.62C282.92 329.08 272.98 309.84 253.82 299.24Z" fill="white"/>
<path d="M97.5801 351.04H113.72C116.82 336.68 123.44 315.52 136.56 307.26C134.582 304.248 132.984 301.004 131.8 297.6C110.72 307.16 100.32 328 97.5801 351.04Z" fill="white"/>
<path d="M252.54 296.66C255.12 289.42 254.98 283.98 254.96 276.26H131.78C131.482 282.182 132.116 288.114 133.66 293.84C136.067 301.62 140.62 308.564 146.798 313.872C152.976 319.178 160.526 322.634 168.58 323.84C172.264 324.262 175.974 324.416 179.68 324.3H209.56C224.24 324.3 237.02 319.76 245.98 308.48C248.802 304.928 251.018 300.934 252.54 296.66Z" fill="white"/>
<path d="M140.12 216.46C140.96 218.76 141.84 221.12 142.84 223.42C148.948 215.564 156.748 209.186 165.66 204.76C163.08 202.54 160.38 200.46 157.66 198.5C152.9 195.12 147.32 191.3 141.42 190.5C135.52 189.7 135.26 192.5 135.7 198.38C136.367 204.576 137.854 210.656 140.12 216.46Z" fill="#FF3E74"/>
<path d="M244 222.7C245.1 220.04 246 217.32 246.92 214.7C250.66 203.42 254.06 188.22 242.46 190.7C236.46 192 230.96 195.84 226.12 199.42C224.12 200.84 222.34 202.3 220.52 203.84C229.74 208.162 237.792 214.63 244 222.7Z" fill="#FF3E74"/>
<path d="M303.36 179.48C297.812 169.296 289.776 160.682 280 154.44C278.29 153.314 276.506 152.305 274.66 151.42C273.648 150.874 272.542 150.528 271.4 150.4C272.736 151.678 274.182 152.836 275.72 153.86C276.92 154.66 275.22 157.58 273.98 156.88C272.142 155.832 270.206 154.968 268.2 154.3L267.6 154.2C267.88 154.58 268.12 154.92 268.18 154.98C269.776 156.526 271.526 157.907 273.4 159.1C274.6 159.88 272.94 162.76 271.64 162.12C269.482 161.028 267.242 160.106 264.94 159.36C271.6 166 282.54 171.56 288.2 181.66C292.564 189.983 294.326 199.424 293.26 208.76C290.88 233.28 274.36 241.28 250.7 248.88C249.06 249.42 250.06 246.14 251.28 245.74L252.32 245.4C237.44 196 172 185.78 142.82 226.94C138.972 232.374 136.053 238.41 134.18 244.8L137.2 245.8C138.48 246.22 136.84 249.28 135.46 248.82C123.26 244.82 109.46 240.32 101.46 230.22C90.7002 216.6 91.3002 193.76 100.96 179.74C105.7 172.84 112.48 168.42 118.82 163.22C120.484 161.955 122.024 160.535 123.42 158.98H122.68C119.931 159.592 117.289 160.61 114.84 162C112.84 162.98 113.78 159.78 114.84 159.12C115.855 158.472 116.83 157.764 117.76 157C118.44 156.46 121.18 154.5 120.22 153.98C118.5 153.04 114.08 155.98 112.56 156.76C110.7 157.82 111.52 154.56 112.56 153.9C113.696 153.135 114.779 152.293 115.8 151.38C118.2 149.22 116.38 149.58 113.34 150.72C108.714 152.681 104.438 155.384 100.68 158.72C91.4096 165.936 84.3942 175.651 80.4602 186.72C76.8896 199.074 77.4514 212.256 82.0602 224.26C90.0002 245.46 112.88 258 135.78 259.68C137.3 259.8 135.92 262.98 134.58 262.88L131.82 262.62C131.82 266.08 131.82 269.56 131.82 273.06H254.98V262.52C253.846 262.666 252.706 262.786 251.56 262.88C250.12 262.98 251.42 259.78 252.76 259.68C266.67 258.754 279.974 253.636 290.92 245C309.46 229.7 314.7 200.66 303.36 179.48ZM213.36 263.48C207.676 265.582 201.572 266.3 195.555 265.574C189.538 264.846 183.78 262.696 178.76 259.3C173.48 255.64 166.9 244.96 174.22 240.06C174.468 239.836 174.772 239.684 175.1 239.62C176.071 239.334 177.095 239.272 178.094 239.442C179.092 239.612 180.038 240.008 180.86 240.6C186.397 242.37 192.189 243.208 198 243.08C204.938 242.406 211.704 240.532 218 237.54C219.194 236.694 220.56 236.12 222 235.86C225.08 235.64 227.1 238.26 227.86 240.98C230.76 250.98 221.72 260 213.28 263.5L213.36 263.48Z" fill="#FF3E74"/>
<path d="M223.2 212.66C223.524 213.688 223.666 214.764 223.62 215.84C223.62 221.22 221.34 225.58 218.52 225.58C214.52 225.58 212.74 217.4 213.68 213.42C209.3 214.52 202.68 217.56 203 222.06C203.48 228.76 214.08 230.06 219 229.92C223.92 229.78 236.02 227.44 235.76 220.34C234.84 214.98 228.42 213.1 223.2 212.66Z" fill="#FFDE26"/>
<path d="M174 213.8C174.72 217.8 173.04 225.58 169.06 225.58C166.26 225.58 163.98 221.22 163.98 215.84C163.936 214.73 164.085 213.62 164.42 212.56C145.86 213.04 148.92 226.92 166.24 229.58C170.012 230.226 173.879 230.056 177.58 229.08C180.26 228.32 184.14 226.76 184.58 223.58C185.26 218.46 179.12 215.3 174 213.8Z" fill="#FFDE26"/>
<path d="M51.5399 63.6L48.1599 57.44C47.7599 58.18 47.3597 58.92 46.9397 59.66C46.3563 61.0906 45.5827 62.436 44.6399 63.66C43.0155 64.86 41.2571 65.8668 39.3999 66.66L41.3999 67.7C42.7475 68.2504 44.0235 68.9622 45.1999 69.82C46.1323 71.0474 46.8989 72.3922 47.4799 73.82L48.8599 76.34C49.2599 75.6 49.6599 74.86 50.0799 74.12C50.6633 72.6894 51.4369 71.344 52.3799 70.12C54.0059 68.928 55.7641 67.928 57.6197 67.14C55.8397 66.14 54.0399 65.14 52.2399 64.18C52.0797 64.1606 51.9287 64.0956 51.8045 63.9928C51.6805 63.89 51.5885 63.7536 51.5399 63.6Z" fill="white"/>
<path d="M198.86 24.0004L193.64 14.3804L191.5 18.3804C190.67 20.387 189.581 22.2764 188.26 24.0004C186.465 25.3704 184.494 26.4938 182.4 27.3404L179.64 28.8604C180.84 29.5204 182.04 30.1804 183.26 30.8604C185.205 31.6526 187.045 32.6804 188.74 33.9204C190.074 35.6608 191.17 37.5708 192 39.6004C192.78 41.0004 193.54 42.4004 194.3 43.8204L196.46 39.8204C197.286 37.7972 198.368 35.8884 199.68 34.1404C201.476 32.7702 203.446 31.647 205.54 30.8004L208.32 29.2804L199.54 24.5004C199.394 24.479 199.256 24.4222 199.138 24.335C199.019 24.2478 198.924 24.133 198.86 24.0004Z" fill="white"/>
<path d="M330.74 115.2L327.48 109.2C327.08 109.9 326.7 110.62 326.3 111.34C325.716 112.746 324.942 114.065 324 115.26C322.43 116.419 320.732 117.392 318.94 118.16L320.78 119.16C322.09 119.673 323.334 120.344 324.48 121.16C325.3 122.305 325.972 123.548 326.48 124.86L328 127.6C328.4 126.9 328.78 126.18 329.18 125.46C329.748 124.072 330.502 122.767 331.42 121.58C332.986 120.417 334.684 119.443 336.48 118.68L331.3 115.84C331.158 115.793 331.032 115.709 330.932 115.596C330.834 115.484 330.768 115.347 330.74 115.2Z" fill="white"/>
<path d="M200 111.66C202 113.48 202.68 117.34 206 116.16C210.7 114.48 208.36 108.9 206.12 106.16C204.05 103.653 201.184 101.931 198 101.28C197.36 101.16 197.32 100.54 197.38 100C197.52 98.34 197.68 96.7 197.82 95.04L189.54 95.56C189.68 97.32 189.82 99.08 189.98 100.84C189.971 101.272 189.852 101.696 189.636 102.07C189.419 102.444 189.111 102.757 188.74 102.98C181.26 107.16 175.56 118 182 125.44C186.96 131.1 198.44 129.44 201.66 136.72C202.078 137.779 202.066 138.961 201.626 140.011C201.184 141.061 200.35 141.897 199.3 142.34C195.82 144 192 142 188.54 141.08C185.96 140.32 184.08 142.58 183.26 144.92C181.72 149.44 187.26 150.48 190.62 150.92C191.28 150.92 191.3 151.72 191.26 152.22C191.1 154 190.92 155.78 190.76 157.56L199.06 157.06L198.58 151.34C198.585 150.907 198.702 150.482 198.919 150.107C199.137 149.733 199.447 149.42 199.82 149.2C209.82 144.08 212.02 131.2 201.82 124.9C197.28 122.46 189.08 122.48 186.48 117.3C183.52 111.28 194 106 200 111.66Z" fill="#6CECC4"/>
<path d="M56.2199 182.48C58.5199 174.98 52.9799 167.32 44.9399 169.16C41.5399 170.24 37.1799 174.44 33.3199 173C30.7399 172.04 31.1799 169 32.2999 167C33.1263 165.564 34.3297 164.381 35.7799 163.58C37.6799 162.58 39.0599 163.08 41.0399 163.02L41.8999 163.28C42.9799 162.72 43.3199 162.02 42.8799 161.12C42.6717 160.377 42.2629 159.707 41.6983 159.181C41.1339 158.655 40.4355 158.295 39.6799 158.14C38.2967 157.745 36.8445 157.653 35.4225 157.871C34.0003 158.088 32.6419 158.61 31.4399 159.4C31.2701 159.518 31.0633 159.571 30.8577 159.549C30.6519 159.527 30.4611 159.432 30.3199 159.28L28.1599 156.66C27.2199 157.7 26.2999 158.66 25.3799 159.8L28.2999 162.26C28.4647 162.412 28.5839 162.606 28.6441 162.822C28.7041 163.037 28.7027 163.265 28.6399 163.48C26.9999 169.6 29.9399 178.86 37.6199 178.52C42.2199 178.32 47.6199 172.14 52.2999 174.52C56.7199 176.66 50.2999 182.08 48.2999 183.2C47.3799 183.68 46.4999 183.56 46.2999 184.5C46.2043 185.542 46.4275 186.588 46.9399 187.5C48.4199 190.4 51.0799 188.88 53.1199 187.28C53.5399 186.96 54.1399 186.68 54.5399 187.28L56.8199 190C57.7599 188.96 58.6799 188 59.5999 186.86L56.4599 184.2C56.2353 183.98 56.0899 183.692 56.0463 183.381C56.0029 183.07 56.0641 182.753 56.2199 182.48Z" fill="#6CECC4"/>
<path d="M363.04 172.1L364.48 170.78L360.36 167.46L358 170.5C357.76 170.82 357.2 171.28 356.76 171.18C349.94 169.7 339.76 173.74 343.58 182.22C345.26 185.96 349.32 190.22 347.22 194.72C344.94 199.56 340.42 194.56 338.96 191.8C338.834 191.378 338.616 190.989 338.324 190.659C338.032 190.33 337.672 190.067 337.27 189.89C336.866 189.714 336.43 189.626 335.99 189.635C335.55 189.643 335.116 189.748 334.72 189.94C334.02 190.14 332.72 190.5 332.6 191.3C332.48 192.1 334.36 194.6 335.02 195.3C335.68 196 334.8 197.3 334.28 197.84L332.64 199.34L336.76 202.66L339.28 199.38C339.52 199.08 340.08 198.58 340.52 198.7C347.46 200.46 355.38 196.7 353.14 188.54C351.8 184.9 348.14 181.64 348.64 177.48C348.668 176.847 348.84 176.228 349.144 175.671C349.446 175.115 349.872 174.635 350.39 174.268C350.908 173.902 351.502 173.658 352.126 173.556C352.752 173.454 353.394 173.496 354 173.68C355.584 174.261 356.91 175.381 357.748 176.845C358.586 178.308 358.88 180.021 358.58 181.68C358.4 183 357.92 183.68 359.24 184.46C359.754 184.755 360.338 184.91 360.93 184.91C361.522 184.91 362.106 184.755 362.62 184.46C365.92 182.46 364.02 177.04 362.4 174.74C361.74 173.84 362.46 172.62 363.04 172.1Z" fill="#6CECC4"/>
<path d="M148.38 51.8204C120.051 61.0016 92.3345 71.977 65.3999 84.6804C70.4247 98.4508 76.2547 111.914 82.8599 125C83.5521 126.759 84.4375 128.436 85.4999 130C85.5329 130.022 85.5599 130.052 85.5787 130.087C85.5973 130.122 85.6071 130.161 85.6071 130.2C85.6071 130.24 85.5973 130.279 85.5787 130.314C85.5599 130.349 85.5329 130.378 85.4999 130.4L86.1199 130.22C86.9599 130.02 123.62 116.22 139.86 109.24L138 104.92C137.48 103.7 139.72 101.16 140.42 102.92L142.62 108C150.144 104.729 157.488 101.057 164.62 97.0004C159.54 81.8404 154.46 66.6004 148.38 51.8204Z" fill="#FFDE26"/>
<path d="M236 20.46C226.994 35.2242 219.144 50.6636 212.52 66.64C231.22 77.82 272.24 101.38 293.2 109.26C302.06 95.26 310.98 81.26 318.88 66.74C292.198 49.6796 264.522 34.2256 236 20.46Z" fill="#FFDE26"/>
<path d="M197.64 212.5H190.66C190.469 212.498 190.281 212.55 190.119 212.652C189.958 212.756 189.83 212.902 189.751 213.076C189.672 213.252 189.646 213.444 189.676 213.634C189.706 213.822 189.791 213.998 189.92 214.14L193.92 218.56C194.024 218.666 194.151 218.75 194.29 218.802C194.43 218.854 194.579 218.876 194.728 218.864C194.877 218.854 195.021 218.81 195.151 218.736C195.281 218.662 195.393 218.562 195.48 218.44L198.46 214C198.552 213.852 198.604 213.684 198.609 213.51C198.614 213.334 198.573 213.162 198.489 213.01C198.406 212.858 198.283 212.73 198.134 212.64C197.985 212.55 197.814 212.502 197.64 212.5Z" fill="#0D128A"/>
<path d="M61.56 65.4202L53.82 61.1802L49.56 53.3804C49.06 52.4604 47.8 53.7602 47.56 54.1802C45.34 58.1802 44.34 60.0402 43.9 60.8202C43.7294 61.236 43.4078 61.5718 43 61.7602L36.22 65.4804C35.52 65.8804 34.22 67.8204 35.38 68.4404L39.38 70.6002C40.7154 71.1546 42.0002 71.8238 43.22 72.6002C43.9882 73.8318 44.6568 75.1226 45.22 76.4602L47.38 80.4602C47.9 81.3802 49.14 80.1004 49.38 79.6604L53.38 72.4202C54.28 71.9002 56.62 70.6002 60.72 68.4202C61.42 68.0002 62.68 66.0002 61.56 65.4202ZM52.3 70.1802C51.3572 71.4042 50.5834 72.7498 50 74.1802C49.58 74.9202 49.18 75.6604 48.78 76.4004L47.4 73.8802C46.819 72.4526 46.0524 71.1076 45.12 69.8802C43.941 69.0268 42.6656 68.3152 41.32 67.7604L39.32 66.7204C41.1778 65.9284 42.9364 64.9214 44.56 63.7204C45.5028 62.4964 46.2764 61.1508 46.86 59.7204C47.28 58.9804 47.68 58.2402 48.08 57.5002L51.46 63.6602C51.4928 63.8144 51.5684 63.9562 51.6782 64.0692C51.7878 64.1824 51.927 64.2626 52.08 64.3004L57.46 67.2604C55.6286 68.022 53.896 69.0024 52.3 70.1802Z" fill="#0D128A"/>
<path d="M175.62 30.6202L181 33.5602C183.022 34.4206 184.958 35.472 186.78 36.7002C187.946 38.4522 188.95 40.3066 189.78 42.2402L192.86 47.8802C193.36 48.8002 194.62 47.5002 194.86 47.0802C200.5 36.7602 200.02 37.6802 200.56 36.4602C201.26 36.1402 198.26 37.7402 211.42 30.4602C212.14 30.0602 213.42 28.1202 212.28 27.5002L201.14 21.5002L195.02 10.3202C194.52 9.40015 193.28 10.6802 193.02 11.1202C187.4 21.3602 187.84 20.5202 187.3 21.7402C186.22 22.2802 188.54 21.0402 176.44 27.7402C175.76 28.0002 174.5 30.0002 175.62 30.6202ZM182.4 27.3202C184.493 26.4798 186.463 25.3632 188.26 24.0002C189.585 22.2576 190.675 20.3478 191.5 18.3202L193.64 14.3202L198.86 24.0002C198.896 24.1552 198.972 24.2978 199.081 24.4138C199.19 24.5298 199.328 24.6148 199.48 24.6602L208.26 29.4402L205.48 30.9602C203.386 31.8068 201.416 32.93 199.62 34.3002C198.307 36.0544 197.225 37.97 196.4 40.0002L194.24 44.0002C193.48 42.5802 192.72 41.1802 191.94 39.7802C191.134 37.733 190.057 35.8026 188.74 34.0402C187.045 32.8002 185.205 31.7724 183.26 30.9802C182.04 30.3402 180.84 29.6802 179.64 28.9802L182.4 27.3202Z" fill="#0D128A"/>
<path d="M315.82 116.98C315.12 117.38 313.82 119.32 314.98 119.94L318.58 121.94C319.97 122.551 321.308 123.274 322.58 124.1C323.352 125.294 324.022 126.552 324.58 127.86C325.3 129.14 326 130.42 326.7 131.7C327.2 132.62 328.46 131.34 328.7 130.92C333.22 122.66 332.06 124.72 332.7 123.66C333.28 123.4 332.54 123.78 339.66 119.9C340.36 119.5 341.66 117.56 340.5 116.94L332.94 112.82L328.78 105.22C328.28 104.3 327.02 105.58 326.78 106C322.32 114.16 323.4 112.24 322.68 113.26C322.22 113.46 322.82 113.16 315.82 116.98ZM326.3 111.38C326.7 110.66 327.08 109.94 327.48 109.24L330.74 115.24C330.774 115.397 330.854 115.541 330.966 115.654C331.08 115.767 331.224 115.846 331.38 115.88L336.56 118.72C334.762 119.478 333.062 120.452 331.5 121.62C330.586 122.81 329.832 124.114 329.26 125.5C328.86 126.22 328.48 126.94 328.08 127.64L326.62 124.96C326.112 123.648 325.44 122.405 324.62 121.26C323.474 120.445 322.23 119.773 320.92 119.26L319.08 118.26C320.83 117.453 322.48 116.446 324 115.26C324.94 114.078 325.714 112.772 326.3 111.38Z" fill="#0D128A"/>
<path d="M192.36 112.44C193.826 112.395 195.277 112.742 196.564 113.445C197.85 114.148 198.926 115.182 199.68 116.44C200.96 118.44 201.86 119.9 204.54 119.44C209 118.64 212.08 113.26 211.28 108.94C210.3 103.62 204.9 99.46 199.86 98.18L200.34 93C200.34 92.62 200.34 91.68 199.72 91.72L188.64 92.42C188.107 92.5196 187.627 92.806 187.286 93.2274C186.946 93.649 186.766 94.178 186.78 94.72C186.94 96.72 187.12 98.72 187.28 100.84C174.86 108.98 172.68 126.32 185.12 131.74C189.12 133.5 195.62 134.24 198.46 137.74C198.64 137.96 199.08 138.32 199.16 138.6C199.38 139.48 199.38 139.16 198.74 139.5C197.46 140.24 193.96 139.4 192.62 139.02C190.08 138.3 188.62 136.84 186.04 138.3C182.66 140.3 179.44 146.08 180.66 149.72C181.64 152.68 185.8 153.58 188.66 153.96C188.5 155.78 188.32 157.62 188.16 159.44C188.16 159.84 188.16 160.78 188.78 160.74L200 160C200.532 159.9 201.012 159.614 201.354 159.193C201.694 158.771 201.874 158.242 201.86 157.7L201.32 151.2C211.88 144.72 215.72 129.2 203.7 121.74C199.42 119.44 193.86 119.14 190.48 116.5C189.5 115.74 188 114.5 189.28 113.14C190.226 112.636 191.289 112.394 192.36 112.44ZM201.86 124.84C212.02 131.06 209.86 144.02 199.86 149.14C199.487 149.36 199.177 149.673 198.959 150.047C198.742 150.422 198.625 150.847 198.62 151.28L199.1 157L190.8 157.5C190.96 155.72 191.14 153.94 191.3 152.16C191.3 151.66 191.3 150.94 190.66 150.86C187.26 150.48 181.76 149.44 183.3 144.86C184.12 142.52 186 140.26 188.58 141.02C191.94 142 195.86 143.86 199.42 142.28C200.47 141.837 201.304 141.001 201.746 139.951C202.186 138.901 202.198 137.719 201.78 136.66C198.56 129.32 187.08 131.04 182.12 125.38C175.6 117.94 181.3 107.1 188.72 102.92C189.09 102.707 189.401 102.406 189.624 102.042C189.848 101.679 189.977 101.266 190 100.84C189.84 99.08 189.7 97.32 189.56 95.56L197.84 95.04C197.7 96.7 197.54 98.34 197.4 100C197.4 100.54 197.4 101.16 198.02 101.28C201.246 101.92 204.152 103.659 206.24 106.2C208.48 108.9 210.82 114.48 206.12 116.2C202.78 117.38 202.12 113.52 200.12 111.7C194.12 106.12 183.6 111.28 186.62 117.28C189.12 122.42 197.32 122.4 201.86 124.84Z" fill="#0D128A"/>
<path d="M62.44 184.66L58.74 181.54C60.74 173.04 55.48 163.94 45.8 165.96C42.74 166.6 37.9 170.6 35.3 169.96C32.7 169.32 34.3 167.2 35.82 166.4C38.12 165.22 40.02 167 42.18 166.4C43.3592 165.936 44.3126 165.032 44.84 163.88C45.5362 162.6 45.7728 161.119 45.5108 159.686C45.2488 158.252 44.504 156.951 43.4 156C40.32 153.56 35.4 154.26 32.06 156L29.66 153.1C29.14 152.48 28.34 153.1 27.94 153.52C26.22 155.52 24.48 157.4 22.76 159.36C22.24 159.96 21.82 161.16 22.54 161.78L26 164.8C23.78 175.12 30.9 184.8 40.54 180.8C42.26 180.08 43.8 179.06 45.5 178.28C46.1 178 50.18 176.4 50.8 177.58C51.62 179.14 45.66 181.08 44.8 182.46C42.58 185.66 44.22 191.18 46.8 192.24C48.8 192.98 51.08 191.6 52.8 190.36L55.32 193.38C55.84 194.02 56.64 193.38 57.04 192.96L62.2 187.12C62.74 186.48 63.16 185.28 62.44 184.66ZM56.82 190L54.46 187.18C54.06 186.68 53.46 186.96 53.04 187.18C51.04 188.78 48.34 190.3 46.86 187.4C46.3476 186.488 46.1244 185.442 46.22 184.4C46.48 183.46 47.36 183.58 48.22 183.1C50.22 181.98 56.66 176.56 52.22 174.42C47.44 172.1 42.22 178.28 37.54 178.42C29.86 178.76 26.94 169.5 28.56 163.38C28.6228 163.165 28.6242 162.937 28.564 162.721C28.504 162.506 28.3848 162.311 28.22 162.16L25.3 159.7C26.22 158.64 27.14 157.7 28.08 156.56L30.24 159.18C30.381 159.331 30.572 159.427 30.7776 159.449C30.9834 159.471 31.1902 159.418 31.36 159.3C32.562 158.51 33.9204 157.988 35.3424 157.77C36.7646 157.553 38.2168 157.645 39.6 158.04C40.3556 158.195 41.054 158.555 41.6184 159.081C42.183 159.606 42.5918 160.277 42.8 161.02C43.24 161.92 42.8 162.62 41.82 163.18L40.96 162.92C38.96 162.92 37.6 162.48 35.7 163.48C31.5 165.74 29.6 171.48 33.24 172.94C36.88 174.4 41.46 170.18 44.86 169.1C52.86 167.26 58.44 174.92 56.14 182.42C56.0078 182.682 55.96 182.978 56.003 183.268C56.046 183.558 56.1776 183.828 56.38 184.04L59.52 186.7C58.68 187.82 57.74 188.86 56.82 190Z" fill="#0D128A"/>
<path d="M367.54 168.8L361.54 163.92C361.08 163.54 360.28 164.18 360.02 164.52L357.44 167.88C346.62 165.88 337.74 174.86 340.94 183.6C341.42 184.92 346.32 193.24 344.94 193.38C343.56 193.52 341.72 190.18 341.28 189.38C340.84 188.58 340.58 187.6 339.58 187.06C337.02 185.64 331.58 187.52 330.32 191.06C330.092 192.124 330.132 193.228 330.432 194.275C330.73 195.321 331.284 196.277 332.04 197.06L330.16 198.78C329.5 199.38 328.74 200.78 329.62 201.52L335.62 206.4C336.08 206.78 336.88 206.12 337.14 205.8C338.06 204.6 338.98 203.42 339.88 202.22C349.26 204.22 358.24 196.46 355.52 186.66C354.728 184.802 353.778 183.015 352.68 181.32C352.08 180.32 350.68 178.46 351.48 177.32C352.28 176.18 353.48 177.44 354.3 178.16C356.56 180.34 355.52 182.16 355.56 184.74C355.616 185.423 355.88 186.073 356.316 186.602C356.752 187.132 357.34 187.515 358 187.7C360.82 188.82 364.28 186.8 365.64 184.3C366.464 182.549 366.858 180.626 366.79 178.691C366.72 176.757 366.188 174.867 365.24 173.18L367.04 171.54C367.66 170.94 368.42 169.52 367.54 168.8ZM363.04 172.1C362.46 172.62 361.74 173.84 362.3 174.62C363.92 176.92 365.82 182.4 362.52 184.34C362.006 184.635 361.422 184.79 360.83 184.79C360.238 184.79 359.654 184.635 359.14 184.34C357.82 183.5 358.3 182.88 358.48 181.56C358.78 179.901 358.486 178.188 357.648 176.725C356.81 175.261 355.484 174.141 353.9 173.56C353.296 173.397 352.664 173.373 352.048 173.488C351.434 173.604 350.854 173.856 350.35 174.227C349.846 174.598 349.432 175.078 349.14 175.631C348.848 176.183 348.684 176.795 348.66 177.42C348.16 181.58 351.82 184.84 353.16 188.48C355.4 196.48 347.48 200.48 340.54 198.64C340.1 198.52 339.54 199.02 339.3 199.32L336.78 202.6L332.66 199.28L334.3 197.78C334.82 197.3 335.66 195.96 335.04 195.24C334.42 194.52 332.4 192.28 332.62 191.24C332.84 190.2 334.04 190.08 334.74 189.88C335.136 189.688 335.57 189.584 336.01 189.575C336.45 189.566 336.886 189.654 337.29 189.83C337.692 190.007 338.052 190.27 338.344 190.599C338.636 190.929 338.854 191.318 338.98 191.74C340.44 194.5 344.98 199.5 347.24 194.66C349.24 190.22 345.24 185.9 343.6 182.16C339.78 173.68 349.96 169.64 356.78 171.12C357.22 171.12 357.78 170.76 358.02 170.44L360.36 167.4L364.48 170.72L363.04 172.1Z" fill="#0D128A"/>
<path d="M83.78 133.42C83.8754 133.534 84.002 133.617 84.1442 133.66C84.2862 133.703 84.4378 133.703 84.58 133.66C105.42 126.14 147.34 110.12 166.32 98.9002C166.745 98.6538 167.086 98.2858 167.3 97.844C167.514 97.402 167.59 96.906 167.52 96.4202C162.22 80.4202 156.92 64.4202 150.5 49.0002C150.475 48.905 150.431 48.816 150.37 48.7382C150.31 48.6604 150.235 48.5954 150.149 48.547C150.064 48.4986 149.969 48.4676 149.871 48.4562C149.774 48.4448 149.675 48.4528 149.58 48.4802C120.197 57.9734 91.4686 69.3846 63.58 82.6402C63.2334 82.8402 62.9546 83.1398 62.78 83.5002C62.6006 83.7254 62.472 83.9868 62.403 84.2664C62.334 84.546 62.3262 84.8372 62.38 85.1202C68.188 101.775 75.345 117.929 83.78 133.42ZM148.38 51.8202C154.38 66.6002 159.54 81.8202 164.6 96.9802C157.468 101.037 150.124 104.709 142.6 107.98L140.44 102.84C139.74 101.16 137.5 103.7 138.02 104.84L139.82 109.12C124.52 115.8 87.06 130 86.1 130.18L85.48 130.36C85.513 130.338 85.5402 130.309 85.5588 130.274C85.5776 130.239 85.5874 130.2 85.5874 130.16C85.5874 130.121 85.5776 130.082 85.5588 130.047C85.5402 130.012 85.513 129.982 85.48 129.96C84.4204 128.409 83.5352 126.745 82.84 125C76.2448 111.912 70.4216 98.449 65.4 84.6802C92.3346 71.9768 120.051 61.0014 148.38 51.8202Z" fill="#0D128A"/>
<path d="M210 69.24C229.84 81.24 270.62 104.64 292.32 112.64C293.1 112.92 293.72 112.26 294.1 111.66C303.54 96.78 313.1 81.82 321.46 66.3C321.76 65.74 322.1 64.72 321.46 64.3C294.216 46.8484 265.944 31.0532 236.8 17C236.08 16.66 235.24 17.4201 234.8 18.2601C225.138 34.0054 216.776 50.5136 209.8 67.62C209.6 68.1 209.5 68.92 210 69.24ZM236 20.46C264.52 34.2316 292.194 49.6854 318.88 66.74C310.88 81.26 302.06 95.3 293.2 109.26C280.136 104.02 267.442 97.9064 255.2 90.96C240.64 83.1 224.42 73.8 212.44 66.64C219.088 50.6614 226.966 35.2218 236 20.46Z" fill="#0D128A"/>
<path d="M76.12 157.46C77.18 158.3 79.02 155.46 77.86 154.44L15.6 104.98C14.54 104.14 12.7 106.98 13.84 108L76.12 157.46Z" fill="#0D128A"/>
<path d="M90.4399 45.5404C91.1199 46.8404 93.2599 44.1204 92.6199 42.9204L81.5599 22.0004C80.8799 20.7204 78.7599 23.4204 79.3999 24.6404L90.4399 45.5404Z" fill="#0D128A"/>
<path d="M385.04 105.28L322.78 154.74C321.6 155.68 321.68 158.6 323.46 157.16L385.72 107.7C386.9 106.78 386.84 103.86 385.04 105.28Z" fill="#0D128A"/>
<path d="M309.48 44.7602C313.174 37.7868 316.86 30.8002 320.54 23.8002C321.52 21.9402 319.72 20.8602 318.72 22.7602C315.04 29.7336 311.354 36.7136 307.66 43.7002C306.68 45.5802 308.48 46.6602 309.48 44.7602Z" fill="#0D128A"/>
<path d="M178.68 259.32C183.7 262.716 189.458 264.866 195.475 265.594C201.492 266.32 207.596 265.602 213.28 263.5C221.72 260.08 230.76 250.98 227.96 240.98C227.2 238.26 225.18 235.62 222.1 235.86C220.66 236.12 219.294 236.694 218.1 237.54C211.806 240.534 205.038 242.408 198.1 243.08C192.277 243.216 186.471 242.386 180.92 240.62C180.098 240.028 179.152 239.632 178.154 239.462C177.155 239.292 176.131 239.354 175.16 239.64C174.832 239.704 174.528 239.856 174.28 240.08C166.82 244.98 173.4 255.66 178.68 259.32ZM218.8 239.56C219.5 241.56 221.1 247.4 219.04 247.86C218.152 247.906 217.268 247.732 216.464 247.35C215.662 246.97 214.966 246.396 214.44 245.68C213.622 244.64 212.898 243.53 212.28 242.36C214.534 241.628 216.718 240.692 218.8 239.56ZM202.52 244.5C205.324 244.182 208.094 243.62 210.8 242.82C210.782 242.94 210.782 243.06 210.8 243.18C211.278 244.268 211.514 245.446 211.492 246.634C211.472 247.82 211.194 248.99 210.68 250.06C210.082 250.72 209.292 251.178 208.42 251.368C207.548 251.558 206.64 251.472 205.82 251.12C205.096 250.784 204.45 250.302 203.924 249.702C203.396 249.104 203 248.4 202.76 247.64C202.4 246.694 202.164 245.706 202.06 244.7C202 244.5 201.88 244.58 202.52 244.5ZM200.32 244.7C199.902 247.038 198.687 249.158 196.88 250.7C196.248 251.172 195.479 251.428 194.69 251.428C193.901 251.428 193.133 251.172 192.5 250.7C191.049 248.982 190.331 246.762 190.5 244.52C193.76 244.9 197.049 244.96 200.32 244.7ZM178.58 241.76C181.755 242.834 185.012 243.642 188.32 244.18C187.398 246.048 185.784 247.484 183.82 248.18C183.038 248.482 182.185 248.552 181.364 248.378C180.544 248.204 179.792 247.794 179.2 247.2C178.317 245.528 178.096 243.586 178.58 241.76Z" fill="#0D128A"/>
<path d="M319.02 383.82C315.6 380.7 310.56 379.02 306.32 377.44C303.42 376.36 300.48 375.44 297.52 374.48L294.7 352C294.7 351.62 294.54 351.1 294.04 351.1H288.18C285.6 328.74 275.66 306.76 255.06 296.04C257.58 288.56 257.46 282.04 257.46 274.04V262.26C282.02 258.46 304.52 242.52 310.06 217.24C313.08 203.42 312.06 188.6 305.08 176.1C298.582 164.376 288.754 154.841 276.84 148.7C274.3 147.46 269.08 145.16 267.78 149.2C267.63 149.744 267.63 150.317 267.78 150.86C267.148 150.82 266.518 150.963 265.964 151.272C265.41 151.58 264.958 152.041 264.66 152.6C264.366 153.122 264.21 153.711 264.21 154.31C264.21 154.909 264.366 155.498 264.66 156.02C262.18 155.66 260.3 156.26 260.78 159.12C261.16 161.42 264.28 163.52 265.9 164.9C268.12 166.9 270.42 168.56 272.74 170.28C281.44 176.74 287.74 184.6 290.02 195.34C292.02 205.06 291.28 216.2 286.22 224.92C279.98 235.74 266.64 240.74 255.02 244.6C253.692 239.93 251.832 235.428 249.48 231.18C253.806 231.01 258.106 231.91 262 233.8C263.28 234.44 265 231.42 263.74 230.78C258.918 228.412 253.516 227.482 248.18 228.1C247.54 228.1 248.3 228.8 246.18 225.74C249.524 222.996 253.508 221.146 257.76 220.36C259.04 220.14 260.12 216.92 258.36 217.22C253.946 218.07 249.794 219.948 246.24 222.7C247.12 220.5 247.92 218.28 248.68 216.1C251.108 209.852 252.526 203.256 252.88 196.56C252.88 192.26 251.76 187.54 246.72 187.24C240.72 186.84 234.36 190.88 229.52 194.1C225.54 196.744 221.75 199.664 218.18 202.84C210.402 199.596 202.05 197.956 193.623 198.018C185.196 198.08 176.869 199.843 169.14 203.2C165.971 200.334 162.632 197.662 159.14 195.2C154.1 191.66 147.8 187.34 141.4 187.2C128.16 186.78 134.16 207.46 136.3 214.24C137.3 217.44 138.42 220.76 139.74 223.98C136.347 221.43 132.412 219.7 128.24 218.92C126.92 218.7 125.48 221.84 127.04 222.12C131.65 222.986 135.949 225.056 139.5 228.12C139.16 228.66 138.82 229.2 138.5 229.74C133.135 229.156 127.714 230.12 122.88 232.52C121.68 233.12 121.08 236.32 122.88 235.4C127.174 233.304 131.963 232.432 136.72 232.88C134.816 236.426 133.3 240.168 132.2 244.04C122.2 240.66 111.54 236.46 104.62 228.6C98.0199 221.06 95.8599 210.36 96.4599 200.6C96.7133 195.11 98.1405 189.738 100.645 184.846C103.15 179.954 106.674 175.656 110.98 172.24C115.76 168.24 121.76 165.04 125.48 160C127.04 157.86 127.1 155.28 123.82 155.72C123.24 155.797 122.665 155.91 122.1 156.06C122.559 155.544 122.891 154.929 123.072 154.263C123.252 153.596 123.276 152.897 123.14 152.22C122.66 150.52 120.98 150.4 119.14 150.88C119.315 150.547 119.462 150.199 119.58 149.84C121 145.46 115.28 147 113.12 147.84C102.24 152.22 92.5799 161.7 85.9799 171.18C78.1543 182.399 74.6067 196.051 75.9799 209.66C76.8179 223.166 82.7085 235.86 92.4799 245.22C102.824 254.486 115.729 260.406 129.5 262.2C129.26 267.24 129.24 282.68 129.34 283.04C129.374 287.05 129.932 291.036 131 294.9C127.833 296.452 124.819 298.3 122 300.42C106 312.1 97.4199 330.64 95.0399 351.04H90.3799C89.9111 351.116 89.4795 351.342 89.1511 351.684C88.8225 352.028 88.6149 352.468 88.5599 352.94C87.6533 360.194 86.7467 367.46 85.8399 374.74C79.1721 376.446 72.7765 379.078 66.8399 382.56C65.3399 383.52 61.6799 386.08 63.0199 388.34C64.0999 390.14 68.2399 389.88 69.9599 389.92C80.5877 390.024 91.2091 389.356 101.74 387.92C106.86 387.38 112.72 387.48 116.56 383.56C117.797 382.218 118.751 380.642 119.366 378.924C119.982 377.206 120.245 375.382 120.14 373.56V352C120.14 351.46 120.02 351.1 119.48 351.1H116C116.72 347.82 117.56 344.56 118.48 341.36C121.88 329.72 127.42 315.26 138.1 309.5C147.24 321.82 160.94 327.5 176.22 327.5C212.92 327.5 215.32 327.76 221.18 326.52C231.22 324.35 240.234 318.854 246.76 310.92C258.2 318.92 264.04 337.82 266.94 351.08H264.94C263.98 351.08 263.08 352.68 263.08 353.38V372.82C262.786 375.682 263.168 378.574 264.2 381.26C266.9 386.68 272.32 387.1 277.66 387.72C288.526 389.19 299.476 389.952 310.44 390C312.92 390 316.44 390.24 318.7 388.9C319.172 388.68 319.576 388.336 319.868 387.906C320.162 387.476 320.334 386.974 320.366 386.456C320.4 385.936 320.292 385.416 320.054 384.954C319.818 384.49 319.46 384.098 319.02 383.82ZM226 199.44C230.84 195.86 236.36 192.02 242.34 190.72C253.94 188.18 250.54 203.38 246.8 214.72C245.92 217.38 244.98 220.1 243.88 222.72C237.668 214.656 229.618 208.196 220.4 203.88C222.24 202.32 224.12 200.86 226 199.44ZM218.5 225.58C221.32 225.58 223.6 221.22 223.6 215.84C223.646 214.764 223.504 213.688 223.18 212.66C228.4 213.1 234.82 214.98 235.78 220.34C236.04 227.44 224.18 229.74 219.02 229.92C213.86 230.1 203.46 228.76 203.02 222.06C202.7 217.56 209.32 214.52 213.7 213.42C212.74 217.38 214.46 225.58 218.52 225.58H218.5ZM135.66 198.4C135.287 196.25 135.501 194.039 136.28 192C137.26 190.24 139.62 190.34 141.38 190.56C147.38 191.34 152.86 195.16 157.62 198.56C160.38 200.56 163.08 202.56 165.62 204.82C156.707 209.246 148.907 215.624 142.8 223.48C141.8 221.18 140.92 218.82 140.08 216.52C137.81 210.702 136.324 204.61 135.66 198.4ZM169.06 225.58C173.06 225.58 174.74 217.9 174 213.8C179.12 215.3 185.26 218.46 184.58 223.58C184.14 226.76 180.26 228.32 177.58 229.08C173.879 230.056 170.012 230.226 166.24 229.58C161.02 228.78 151.64 225.58 151.8 218.94C152.68 214.08 159.08 212.7 164.42 212.56C164.085 213.62 163.936 214.73 163.98 215.84C164 221.22 166.26 225.58 169.06 225.58ZM81.9999 224.16C77.3913 212.156 76.8295 198.974 80.3999 186.62C84.3341 175.551 91.3495 165.836 100.62 158.62C104.381 155.288 108.656 152.586 113.28 150.62C116.32 149.48 118.14 149.12 115.74 151.28C114.707 152.257 113.611 153.166 112.46 154C111.46 154.66 110.64 158 112.46 156.86C113.98 156.02 118.46 153.14 120.12 154.08C121.08 154.6 118.34 156.56 117.66 157.1C116.73 157.865 115.755 158.573 114.74 159.22C113.74 159.88 112.86 163.08 114.74 162.1C117.206 160.697 119.869 159.673 122.64 159.06H123.38C121.983 160.615 120.443 162.035 118.78 163.3C112.44 168.5 105.66 172.92 100.92 179.82C91.2599 193.82 90.6599 216.68 101.42 230.3C109.42 240.44 123.26 244.9 135.42 248.9C136.8 249.36 138.44 246.3 137.16 245.88L134.14 244.88C136.184 237.938 139.448 231.416 143.78 225.62C145.509 223.34 147.387 221.174 149.4 219.14C147.98 225.5 154.66 230.04 160.8 231.9C167.62 233.9 176.38 234.04 182.46 229.78C186.76 226.78 188.64 221.28 185.28 216.82C180.62 210.64 169.82 208.26 161.28 209.94C170.738 204.43 181.473 201.49 192.419 201.408C203.364 201.328 214.142 204.11 223.68 209.48C216.42 209.06 208.24 211.24 203.68 216.1C200.04 219.96 199.28 225.54 203.68 229.2C213.42 237.48 236.46 232.36 238.38 220.96C244.866 227.952 249.656 236.342 252.38 245.48L251.34 245.82C250.12 246.22 249.12 249.5 250.76 248.96C262.12 245.22 274.18 241.1 282.76 232.8C295.34 220.8 296.64 196.8 288.24 181.74C282.56 171.58 271.72 166.16 264.98 159.44C267.28 160.187 269.52 161.11 271.68 162.2C272.98 162.84 274.64 159.96 273.44 159.18C271.566 157.987 269.816 156.606 268.22 155.06C268.22 155.06 267.92 154.66 267.64 154.28L268.24 154.38C270.238 155.019 272.168 155.857 274 156.88C275.24 157.58 276.94 154.66 275.74 153.86C274.2 152.837 272.754 151.679 271.42 150.4C272.06 150.52 272.72 150.62 272.94 150.7C275.42 151.692 277.786 152.946 280 154.44C289.79 160.677 297.84 169.291 303.4 179.48C314.74 200.66 309.4 229.7 290.92 245C280.566 253.194 268.064 258.224 254.92 259.48C252.58 259.72 252.6 259.6 252.1 260C251.1 260.82 250.44 262.96 251.62 262.88C252.8 262.8 253.9 262.66 255.04 262.52V273.06H131.78C131.78 269.56 131.78 266.08 131.78 262.62L134.54 262.88C135.88 262.98 137.26 259.8 135.74 259.68C112.96 258 89.9999 245.5 81.9999 224.16ZM201.64 280.38V276.26H255V280.38H201.64ZM254.94 283.58C254.878 287.618 254.204 291.624 252.94 295.46C245.396 293.64 238.62 289.482 233.58 283.58H254.94ZM131.84 280.38C131.84 279.02 131.84 277.64 131.84 276.26H199.08V280.38H131.84ZM152.84 283.58C147.974 289.314 141.458 293.406 134.18 295.3C132.891 291.52 132.157 287.572 132 283.58H152.84ZM113.72 351.04H97.5799C100.3 328.26 110.74 307.16 131.8 297.6C132.983 301.004 134.582 304.248 136.56 307.26C123.44 315.52 116.82 336.68 113.72 351.04ZM246 308.44C236.92 319.88 224 324.26 209.58 324.26C173.74 324.26 172.64 324.4 168.6 323.8C161.292 322.714 154.384 319.772 148.537 315.254C142.689 310.738 138.098 304.798 135.2 298C143.019 295.49 149.917 290.714 155.02 284.28C155.189 284.066 155.317 283.822 155.4 283.56H199.08V299.22H191.08C189.72 299.22 188.38 302.42 189.88 302.42H199.76C200.84 302.42 201.62 301.1 201.62 300.12V283.56H230C229.934 283.746 229.914 283.942 229.938 284.136C229.962 284.332 230.032 284.518 230.14 284.68C238.26 294.68 249.7 298.8 251.82 298.56C250.346 302.106 248.386 305.432 246 308.44ZM269.84 351.04C269 347.04 267.96 342.94 266.76 339.04C263.4 327.96 258.44 315.44 248.76 308.3C250.766 305.496 252.458 302.478 253.8 299.3C273.12 309.98 282.92 329.3 285.56 351.1L269.84 351.04Z" fill="#0D128A"/>
<path d="M99.0399 82.3602L93.2199 113.2C92.7999 115.44 95.3799 114.04 95.6599 112.58L101.48 81.7402C102 79.5002 99.3199 80.9002 99.0399 82.3602Z" fill="#0D128A"/>
<path d="M88.0001 88C85.0801 88.46 83.2201 92.12 83.6201 94.86C83.6925 95.511 83.9049 96.1388 84.2427 96.7C84.5807 97.2612 85.0359 97.7426 85.5775 98.1112C86.1191 98.4798 86.7339 98.7268 87.3799 98.8354C88.0259 98.944 88.6877 98.9114 89.3201 98.74C95.7801 97.36 93.5001 87 88.0001 88ZM86.0001 92.82C85.9719 92.5464 86.0187 92.2706 86.1351 92.0214C86.2515 91.7724 86.4333 91.5596 86.6611 91.4056C86.8889 91.2518 87.1543 91.1624 87.4287 91.1474C87.7033 91.1322 87.9767 91.192 88.2201 91.32C88.9675 91.6942 89.5999 92.2636 90.0505 92.9676C90.5011 93.6718 90.7531 94.4844 90.7801 95.32C90.3109 95.6148 89.7717 95.7794 89.2179 95.7968C88.6641 95.8144 88.1157 95.684 87.6289 95.4192C87.1423 95.1544 86.7347 94.7648 86.4485 94.2904C86.1621 93.816 86.0075 93.274 86.0001 92.72V92.82Z" fill="#0D128A"/>
<path d="M107.74 95.4602C104.82 95.9402 102.96 99.5802 103.36 102.32C103.436 102.97 103.65 103.596 103.989 104.155C104.328 104.714 104.783 105.194 105.324 105.562C105.864 105.931 106.478 106.178 107.122 106.288C107.767 106.398 108.428 106.368 109.06 106.2C116 104.84 112.88 94.6202 107.74 95.4602ZM108 103.08C107.37 102.924 106.808 102.565 106.4 102.06C105.992 101.554 105.76 100.929 105.74 100.28C105.707 100.007 105.75 99.7308 105.864 99.4808C105.977 99.2306 106.157 99.0164 106.384 98.8618C106.611 98.707 106.876 98.6176 107.151 98.6032C107.425 98.5888 107.698 98.65 107.94 98.7802C108.689 99.1526 109.323 99.7216 109.773 100.426C110.224 101.13 110.475 101.944 110.5 102.78C109.727 103.168 108.843 103.274 108 103.08Z" fill="#0D128A"/>
<path d="M124.74 62.4002C124.18 60.7002 121.9 63.2202 122.32 64.4002L124.66 71.3802C125.22 73.0602 127.48 70.5402 127.08 69.3802L124.74 62.4002Z" fill="#0D128A"/>
<path d="M132.9 83.34L130.56 76.36C130 74.66 127.72 77.2 128.14 78.36L130.48 85.34C131.04 87.1 133.3 84.58 132.9 83.34Z" fill="#0D128A"/>
<path d="M137.54 96.72L135.22 89.74C134.66 88.06 132.38 90.58 132.8 91.74L135.12 98.72C135.68 100.5 138 98 137.54 96.72Z" fill="#0D128A"/>
<path d="M277.6 55.0804C280.32 52.8204 282.08 49.9402 278.74 47.5002C274.9 44.6802 270.6 48.7604 267.76 52.5604C267.76 48.9604 267.36 44.7202 264.6 42.8202C263.954 42.4336 263.236 42.1784 262.49 42.0696C261.744 41.9608 260.984 42.0006 260.254 42.1864C259.524 42.3722 258.838 42.7006 258.234 43.1526C257.632 43.6046 257.124 44.1714 256.74 44.8202C255.22 47.8802 257.22 51.6204 258.64 54.3204C258.98 54.9604 259.34 55.6004 259.7 56.2204L256.74 54.7802C255.86 54.3402 255.02 55.5204 254.74 56.1804L246.32 77.3204C246.16 77.7602 246.02 78.6804 246.56 78.9404L264.98 87.9604C265.7 88.3204 266.42 87.5204 266.76 86.9804L278.88 68.0002C279.52 67.2004 279.84 66.0002 279.08 65.6002L276.76 64.4602C280.56 64.4602 284.1 63.3202 284.92 59.7802C285.84 56.0002 281.6 55.0804 277.6 55.0804ZM272 74.9604L263.54 70.8202L267.08 63.6002L276.38 68.1604L272 74.9604ZM256.24 58.3002L265.2 62.6802L261.6 70.0002L253.2 65.8802C254.2 63.2802 255.2 60.7802 256.18 58.3002H256.24ZM249.12 76.3004L252 69.0202L260.16 73.0202L256.68 80.0004L249.12 76.3004ZM265.92 84.5404L258.62 80.9604C259.74 78.6404 260.88 76.3404 262 74.0404L270 78.0004L265.92 84.5404ZM282.62 60.2404C282.4 61.6804 275.94 61.2202 274.92 61.1602C269.44 60.8002 269.4 60.1804 268.64 60.5804L265.54 59.0604C262.602 55.5746 260.38 51.5446 259 47.2004C258.34 44.4804 262.02 45.2002 263.1 46.1202C265.88 48.5002 265.34 54.1202 265.22 57.3002C265.22 58.9402 266.96 57.8604 267.38 57.1402C268.86 54.6002 271.78 49.9204 275.08 49.9004C275.92 49.9004 277.86 50.6204 277.9 51.7004C277.94 52.7804 276.52 53.3204 275.9 53.7004C274.744 54.408 273.534 55.0232 272.28 55.5404C271.24 55.9404 269.72 58.9202 271.68 58.6802C272.92 58.4402 282.94 57.6402 282.56 60.1402L282.62 60.2404Z" fill="#0D128A"/>
</svg>
