<svg width="400" height="400" viewBox="0 0 400 400" fill="none" xmlns="http://www.w3.org/2000/svg">
<path d="M159.375 50C160.673 50.0159 161.965 50.1949 163.218 50.5329C164.614 44.5645 168.156 39.3179 173.17 35.7925C178.184 32.2671 184.32 30.7091 190.409 31.4155C196.497 32.1218 202.113 35.043 206.187 39.6227C210.261 44.2024 212.508 50.1206 212.5 56.25C215.815 56.25 218.995 57.567 221.339 59.9112C223.683 62.2554 225 65.4348 225 68.75C225 72.0652 223.683 75.2446 221.339 77.5888C218.995 79.933 215.815 81.25 212.5 81.25H159.375C155.231 81.25 151.257 79.6038 148.326 76.6735C145.396 73.7433 143.75 69.769 143.75 65.625C143.75 61.481 145.396 57.5067 148.326 54.5765C151.257 51.6462 155.231 50 159.375 50Z" fill="#F1F1F1" stroke="#F1F1F1" stroke-width="6.25" stroke-linecap="round" stroke-linejoin="round"/>
<path d="M359.375 106.25C358.077 106.266 356.785 106.445 355.532 106.783C354.136 100.814 350.594 95.5679 345.58 92.0425C340.566 88.5171 334.43 86.9591 328.341 87.6655C322.253 88.3718 316.637 91.293 312.563 95.8727C308.489 100.452 306.242 106.371 306.25 112.5C302.935 112.5 299.755 113.817 297.411 116.161C295.067 118.505 293.75 121.685 293.75 125C293.75 128.315 295.067 131.495 297.411 133.839C299.755 136.183 302.935 137.5 306.25 137.5H359.375C363.519 137.5 367.493 135.854 370.424 132.924C373.354 129.993 375 126.019 375 121.875C375 117.731 373.354 113.757 370.424 110.826C367.493 107.896 363.519 106.25 359.375 106.25Z" fill="#F1F1F1" stroke="#F1F1F1" stroke-width="6.25" stroke-linecap="round" stroke-linejoin="round"/>
<path d="M62.5 93.75C79.7589 93.75 93.75 79.7589 93.75 62.5C93.75 45.2411 79.7589 31.25 62.5 31.25C45.2411 31.25 31.25 45.2411 31.25 62.5C31.25 79.7589 45.2411 93.75 62.5 93.75Z" fill="#FFC700" stroke="#FFC700" stroke-width="6.25" stroke-linecap="round" stroke-linejoin="round"/>
<path d="M62.5 6.25V18.75" stroke="#FFC700" stroke-width="6.25" stroke-linecap="round" stroke-linejoin="round"/>
<path d="M62.5 106.25V118.75" stroke="#FFC700" stroke-width="6.25" stroke-linecap="round" stroke-linejoin="round"/>
<path d="M118.75 62.5H106.25" stroke="#FFC700" stroke-width="6.25" stroke-linecap="round" stroke-linejoin="round"/>
<path d="M18.75 62.5H6.25" stroke="#FFC700" stroke-width="6.25" stroke-linecap="round" stroke-linejoin="round"/>
<path d="M22.7253 22.7253L31.5642 31.5641" stroke="#FFC700" stroke-width="6.25" stroke-linecap="round" stroke-linejoin="round"/>
<path d="M93.436 93.4359L102.275 102.275" stroke="#FFC700" stroke-width="6.25" stroke-linecap="round" stroke-linejoin="round"/>
<path d="M102.275 22.7253L93.436 31.5641" stroke="#FFC700" stroke-width="6.25" stroke-linecap="round" stroke-linejoin="round"/>
<path d="M31.5642 93.4359L22.7253 102.275" stroke="#FFC700" stroke-width="6.25" stroke-linecap="round" stroke-linejoin="round"/>
<path d="M118.75 168.75H56.25V193.75H75L87.5 243.75H137.5V187.5C137.5 182.527 135.525 177.758 132.008 174.242C128.492 170.725 123.723 168.75 118.75 168.75Z" fill="#1E4BDD" stroke="#231F20" stroke-width="6.25" stroke-linecap="round" stroke-linejoin="round"/>
<path d="M131.25 243.75H106.25L93.75 168.75H118.75L131.25 243.75Z" fill="#EBB383" stroke="#231F20" stroke-width="6.25" stroke-linecap="round" stroke-linejoin="round"/>
<path d="M111.025 181.25C107.712 181.25 104.465 180.328 101.647 178.586C98.8285 176.844 96.5512 174.352 95.0697 171.389L93.75 168.75H118.75C119.408 170.067 119.719 171.53 119.653 173.001C119.587 174.472 119.146 175.901 118.372 177.154C117.598 178.406 116.516 179.44 115.231 180.157C113.945 180.874 112.497 181.25 111.025 181.25Z" fill="#EBB383" stroke="#231F20" stroke-width="6.25" stroke-linecap="round" stroke-linejoin="round"/>
<path d="M45.3125 131.25C48.2133 131.25 50.9953 132.402 53.0465 134.454C55.0977 136.505 56.25 139.287 56.25 142.188V193.75C50.4484 193.75 44.8844 191.445 40.782 187.343C36.6797 183.241 34.375 177.677 34.375 171.875V142.188C34.375 139.287 35.5273 136.505 37.5785 134.454C39.6297 132.402 42.4117 131.25 45.3125 131.25Z" fill="#EBB383" stroke="#231F20" stroke-width="6.25" stroke-linecap="round" stroke-linejoin="round"/>
<path d="M106.25 168.75C126.961 168.75 143.75 151.961 143.75 131.25C143.75 110.539 126.961 93.75 106.25 93.75C85.5393 93.75 68.75 110.539 68.75 131.25C68.75 151.961 85.5393 168.75 106.25 168.75Z" fill="#EBB383" stroke="#231F20" stroke-width="6.25" stroke-linecap="round" stroke-linejoin="round"/>
<path d="M93.75 143.75C93.75 147.065 95.067 150.245 97.4112 152.589C99.7554 154.933 102.935 156.25 106.25 156.25C109.565 156.25 112.745 154.933 115.089 152.589C117.433 150.245 118.75 147.065 118.75 143.75H93.75Z" fill="#1E4BDE" stroke="#231F20" stroke-width="6.25" stroke-linecap="round" stroke-linejoin="round"/>
<path d="M106.25 156.25C112.196 156.25 117.016 153.452 117.016 150C117.016 146.548 112.196 143.75 106.25 143.75C100.304 143.75 95.4836 146.548 95.4836 150C95.4836 153.452 100.304 156.25 106.25 156.25Z" fill="#E62234" stroke="#231F20" stroke-width="6.25" stroke-linecap="round" stroke-linejoin="round"/>
<path d="M93.75 125V131.25" stroke="#231F20" stroke-width="6.25" stroke-linecap="round" stroke-linejoin="round"/>
<path d="M118.75 125V131.25" stroke="#231F20" stroke-width="6.25" stroke-linecap="round" stroke-linejoin="round"/>
<path d="M243.75 318.75H218.75C208.804 318.75 199.266 322.701 192.233 329.733C185.201 336.766 181.25 346.304 181.25 356.25C181.25 366.196 185.201 375.734 192.233 382.767C199.266 389.799 208.804 393.75 218.75 393.75H243.75C253.696 393.75 263.234 389.799 270.267 382.767C277.299 375.734 281.25 366.196 281.25 356.25C281.25 346.304 277.299 336.766 270.267 329.733C263.234 322.701 253.696 318.75 243.75 318.75Z" fill="#231F20" stroke="#231F20" stroke-width="6.25" stroke-linecap="round" stroke-linejoin="round"/>
<path d="M256.25 393.75C276.961 393.75 293.75 376.961 293.75 356.25C293.75 335.539 276.961 318.75 256.25 318.75C235.539 318.75 218.75 335.539 218.75 356.25C218.75 376.961 235.539 393.75 256.25 393.75Z" fill="#333333" stroke="#231F20" stroke-width="6.25" stroke-linecap="round" stroke-linejoin="round"/>
<path d="M256.25 375C266.605 375 275 366.605 275 356.25C275 345.895 266.605 337.5 256.25 337.5C245.895 337.5 237.5 345.895 237.5 356.25C237.5 366.605 245.895 375 256.25 375Z" fill="#4D4D4D" stroke="#231F20" stroke-width="6.25" stroke-linecap="round" stroke-linejoin="round"/>
<path d="M106.25 318.75H81.25C71.3044 318.75 61.7661 322.701 54.7335 329.733C47.7009 336.766 43.75 346.304 43.75 356.25C43.75 366.196 47.7009 375.734 54.7335 382.767C61.7661 389.799 71.3044 393.75 81.25 393.75H106.25C116.196 393.75 125.734 389.799 132.767 382.767C139.799 375.734 143.75 366.196 143.75 356.25C143.75 346.304 139.799 336.766 132.767 329.733C125.734 322.701 116.196 318.75 106.25 318.75Z" fill="#231F20" stroke="#231F20" stroke-width="6.25" stroke-linecap="round" stroke-linejoin="round"/>
<path d="M106.25 393.75C126.961 393.75 143.75 376.961 143.75 356.25C143.75 335.539 126.961 318.75 106.25 318.75C85.5393 318.75 68.75 335.539 68.75 356.25C68.75 376.961 85.5393 393.75 106.25 393.75Z" fill="#333333" stroke="#231F20" stroke-width="6.25" stroke-linecap="round" stroke-linejoin="round"/>
<path d="M106.25 375C116.605 375 125 366.605 125 356.25C125 345.895 116.605 337.5 106.25 337.5C95.8947 337.5 87.5 345.895 87.5 356.25C87.5 366.605 95.8947 375 106.25 375Z" fill="#4D4D4D" stroke="#231F20" stroke-width="6.25" stroke-linecap="round" stroke-linejoin="round"/>
<path d="M331.25 318.75H306.25C296.304 318.75 286.766 322.701 279.733 329.733C272.701 336.766 268.75 346.304 268.75 356.25C268.75 366.196 272.701 375.734 279.733 382.767C286.766 389.799 296.304 393.75 306.25 393.75H331.25C341.196 393.75 350.734 389.799 357.767 382.767C364.799 375.734 368.75 366.196 368.75 356.25C368.75 346.304 364.799 336.766 357.767 329.733C350.734 322.701 341.196 318.75 331.25 318.75Z" fill="#231F20" stroke="#231F20" stroke-width="6.25" stroke-linecap="round" stroke-linejoin="round"/>
<path d="M181.25 318.75H156.25C146.304 318.75 136.766 322.701 129.733 329.733C122.701 336.766 118.75 346.304 118.75 356.25C118.75 366.196 122.701 375.734 129.733 382.767C136.766 389.799 146.304 393.75 156.25 393.75H181.25C191.196 393.75 200.734 389.799 207.767 382.767C214.799 375.734 218.75 366.196 218.75 356.25C218.75 346.304 214.799 336.766 207.767 329.733C200.734 322.701 191.196 318.75 181.25 318.75Z" fill="#231F20" stroke="#231F20" stroke-width="6.25" stroke-linecap="round" stroke-linejoin="round"/>
<path d="M368.75 356.25H31.25C24.6196 356.25 18.2607 353.616 13.5723 348.928C8.88392 344.239 6.25 337.88 6.25 331.25V293.247C6.25 289.665 7.27586 286.158 9.20622 283.141C11.1366 280.125 13.8907 277.724 17.1427 276.223L87.5 243.75H375L390.451 274.652C392.62 278.991 393.75 283.776 393.75 288.627V331.25C393.75 337.88 391.116 344.239 386.428 348.928C381.739 353.616 375.38 356.25 368.75 356.25Z" fill="#FF8B00" stroke="#231F20" stroke-width="6.25" stroke-linecap="round" stroke-linejoin="round"/>
<path d="M6.25 293.75H393.75V331.25C393.75 337.88 391.116 344.239 386.428 348.928C381.739 353.616 375.38 356.25 368.75 356.25H31.25C24.6196 356.25 18.2607 353.616 13.5723 348.928C8.88392 344.239 6.25 337.88 6.25 331.25V293.75Z" fill="#FF8B00" stroke="#231F20" stroke-width="6.25" stroke-linecap="round" stroke-linejoin="round"/>
<path d="M368.75 356.25H31.25C24.6196 356.25 18.2607 353.616 13.5723 348.928C8.88392 344.239 6.25 337.88 6.25 331.25H393.75C393.75 337.88 391.116 344.239 386.428 348.928C381.739 353.616 375.38 356.25 368.75 356.25Z" fill="#B1B1B1" stroke="#231F20" stroke-width="6.25" stroke-linecap="round" stroke-linejoin="round"/>
<path d="M375 243.75H87.5L118.09 182.57C120.167 178.417 123.358 174.925 127.308 172.484C131.257 170.043 135.808 168.75 140.451 168.75H336.731C342.306 168.75 347.721 170.614 352.116 174.045C356.51 177.476 359.632 182.278 360.984 187.687L375 243.75Z" fill="#1E9CDD" stroke="#231F20" stroke-width="6.25" stroke-linecap="round" stroke-linejoin="round"/>
<path d="M140.451 168.75C135.808 168.75 131.257 170.043 127.308 172.484C123.358 174.925 120.166 178.417 118.09 182.57L115.625 187.5H360.92C359.537 182.135 356.41 177.383 352.032 173.989C347.653 170.595 342.271 168.752 336.731 168.75H140.451Z" fill="#FF8B00" stroke="#231F20" stroke-width="6.25" stroke-linecap="round" stroke-linejoin="round"/>
<path d="M393.75 331.25C393.75 337.88 391.116 344.239 386.428 348.928C381.739 353.616 375.38 356.25 368.75 356.25H118.75C112.12 356.25 105.761 353.616 101.072 348.928C96.3839 344.239 93.75 337.88 93.75 331.25V293.247C93.75 289.665 94.7759 286.158 96.7062 283.141C98.6366 280.125 101.391 277.724 104.643 276.223L175 243.75H375L389.791 273.332C392.395 278.539 393.75 284.281 393.75 290.103V331.25Z" fill="#FFC700" stroke="#231F20" stroke-width="6.25" stroke-linecap="round" stroke-linejoin="round"/>
<path d="M368.75 356.25H118.75C112.12 356.25 105.761 353.616 101.072 348.928C96.3839 344.239 93.75 337.88 93.75 331.25H393.75C393.75 337.88 391.116 344.239 386.428 348.928C381.739 353.616 375.38 356.25 368.75 356.25Z" fill="#E4E4E4" stroke="#231F20" stroke-width="6.25" stroke-linecap="round" stroke-linejoin="round"/>
<path d="M181.25 393.75C201.961 393.75 218.75 376.961 218.75 356.25C218.75 335.539 201.961 318.75 181.25 318.75C160.539 318.75 143.75 335.539 143.75 356.25C143.75 376.961 160.539 393.75 181.25 393.75Z" fill="#666666" stroke="#231F20" stroke-width="6.25" stroke-linecap="round" stroke-linejoin="round"/>
<path d="M181.25 375C191.605 375 200 366.605 200 356.25C200 345.895 191.605 337.5 181.25 337.5C170.895 337.5 162.5 345.895 162.5 356.25C162.5 366.605 170.895 375 181.25 375Z" fill="#999999" stroke="#231F20" stroke-width="6.25" stroke-linecap="round" stroke-linejoin="round"/>
<path d="M331.25 393.75C351.961 393.75 368.75 376.961 368.75 356.25C368.75 335.539 351.961 318.75 331.25 318.75C310.539 318.75 293.75 335.539 293.75 356.25C293.75 376.961 310.539 393.75 331.25 393.75Z" fill="#666666" stroke="#231F20" stroke-width="6.25" stroke-linecap="round" stroke-linejoin="round"/>
<path d="M331.25 375C341.605 375 350 366.605 350 356.25C350 345.895 341.605 337.5 331.25 337.5C320.895 337.5 312.5 345.895 312.5 356.25C312.5 366.605 320.895 375 331.25 375Z" fill="#999999" stroke="#231F20" stroke-width="6.25" stroke-linecap="round" stroke-linejoin="round"/>
<path d="M318.75 106.25H156.25C149.346 106.25 143.75 111.846 143.75 118.75V156.25C143.75 163.154 149.346 168.75 156.25 168.75H318.75C325.654 168.75 331.25 163.154 331.25 156.25V118.75C331.25 111.846 325.654 106.25 318.75 106.25Z" fill="#199A4A" stroke="#231F20" stroke-width="6.25" stroke-linecap="round" stroke-linejoin="round"/>
<path d="M190.625 137.5V145.312C190.625 146.556 190.131 147.748 189.252 148.627C188.373 149.506 187.181 150 185.938 150H176.562C175.319 150 174.127 149.506 173.248 148.627C172.369 147.748 171.875 146.556 171.875 145.312V137.5" stroke="#231F20" stroke-width="6.25" stroke-linecap="round" stroke-linejoin="round"/>
<path d="M318.75 106.25H231.25C224.346 106.25 218.75 111.846 218.75 118.75V156.25C218.75 163.154 224.346 168.75 231.25 168.75H318.75C325.654 168.75 331.25 163.154 331.25 156.25V118.75C331.25 111.846 325.654 106.25 318.75 106.25Z" fill="#21CD62" stroke="#231F20" stroke-width="6.25" stroke-linecap="round" stroke-linejoin="round"/>
<path d="M143.75 137.5H331.25" stroke="#231F20" stroke-width="6.25" stroke-linecap="round" stroke-linejoin="round"/>
<path d="M300 56.25H181.25C174.346 56.25 168.75 61.8464 168.75 68.75V93.75C168.75 100.654 174.346 106.25 181.25 106.25H300C306.904 106.25 312.5 100.654 312.5 93.75V68.75C312.5 61.8464 306.904 56.25 300 56.25Z" fill="#9A6C33" stroke="#231F20" stroke-width="6.25" stroke-linecap="round" stroke-linejoin="round"/>
<path d="M212.5 81.25V89.0625C212.5 90.3057 212.006 91.498 211.127 92.3771C210.248 93.2561 209.056 93.75 207.812 93.75H198.438C197.194 93.75 196.002 93.2561 195.123 92.3771C194.244 91.498 193.75 90.3057 193.75 89.0625V81.25" stroke="#231F20" stroke-width="6.25" stroke-linecap="round" stroke-linejoin="round"/>
<path d="M300 56.25H250C243.096 56.25 237.5 61.8464 237.5 68.75V93.75C237.5 100.654 243.096 106.25 250 106.25H300C306.904 106.25 312.5 100.654 312.5 93.75V68.75C312.5 61.8464 306.904 56.25 300 56.25Z" fill="#EDC98C" stroke="#231F20" stroke-width="6.25" stroke-linecap="round" stroke-linejoin="round"/>
<path d="M168.75 81.25H237.5H312.5" stroke="#231F20" stroke-width="6.25" stroke-linecap="round" stroke-linejoin="round"/>
<path d="M375 243.75H175L205.59 182.57C207.666 178.417 210.858 174.925 214.808 172.484C218.757 170.043 223.308 168.75 227.951 168.75H336.731C342.306 168.75 347.721 170.614 352.116 174.045C356.51 177.476 359.632 182.278 360.984 187.687L375 243.75Z" fill="#33DDFF" stroke="#231F20" stroke-width="6.25" stroke-linecap="round" stroke-linejoin="round"/>
<path d="M281.25 243.75H175L205.59 182.57C207.666 178.417 210.858 174.925 214.808 172.484C218.757 170.043 223.308 168.75 227.951 168.75H281.25V243.75Z" fill="#33DDFF" stroke="#231F20" stroke-width="6.25" stroke-linecap="round" stroke-linejoin="round"/>
<path d="M227.951 168.75C223.308 168.75 218.757 170.043 214.808 172.484C210.858 174.925 207.666 178.417 205.59 182.57L203.125 187.5H360.92L360.918 187.494C359.535 182.134 356.411 177.385 352.036 173.993C351.984 173.952 351.923 173.924 351.87 173.884C350.854 173.102 349.778 172.399 348.654 171.781C348.377 171.631 348.07 171.537 347.788 171.397C346.865 170.917 345.912 170.496 344.936 170.136C344.276 169.906 343.576 169.782 342.894 169.609C342.241 169.441 341.608 169.221 340.937 169.106C339.548 168.869 338.14 168.75 336.731 168.75L227.951 168.75Z" fill="#FFC700" stroke="#231F20" stroke-width="6.25" stroke-linecap="round" stroke-linejoin="round"/>
<path d="M68.75 293.75H93.75V312.5H81.25C77.9348 312.5 74.7554 311.183 72.4112 308.839C70.067 306.495 68.75 303.315 68.75 300V293.75Z" fill="#CBCBCB" stroke="#231F20" stroke-width="6.25" stroke-linecap="round" stroke-linejoin="round"/>
<path d="M6.25 293.75H31.25V300C31.25 303.315 29.933 306.495 27.5888 308.839C25.2446 311.183 22.0652 312.5 18.75 312.5H6.25V293.75Z" fill="#CBCBCB" stroke="#231F20" stroke-width="6.25" stroke-linecap="round" stroke-linejoin="round"/>
<path d="M93.75 293.75H106.25C107.908 293.75 109.497 294.408 110.669 295.581C111.842 296.753 112.5 298.342 112.5 300V306.25C112.5 307.908 111.842 309.497 110.669 310.669C109.497 311.842 107.908 312.5 106.25 312.5H93.75V293.75Z" fill="white" stroke="#231F20" stroke-width="6.25" stroke-linecap="round" stroke-linejoin="round"/>
<path d="M393.75 312.5H381.25C379.592 312.5 378.003 311.842 376.831 310.669C375.658 309.497 375 307.908 375 306.25V300C375 298.342 375.658 296.753 376.831 295.581C378.003 294.408 379.592 293.75 381.25 293.75H393.75V312.5Z" fill="white" stroke="#231F20" stroke-width="6.25" stroke-linecap="round" stroke-linejoin="round"/>
<path d="M56.25 325H37.5C34.0482 325 31.25 327.798 31.25 331.25C31.25 334.702 34.0482 337.5 37.5 337.5H56.25C59.7018 337.5 62.5 334.702 62.5 331.25C62.5 327.798 59.7018 325 56.25 325Z" fill="#999999" stroke="#231F20" stroke-width="6.25" stroke-linecap="round" stroke-linejoin="round"/>
<path d="M231.25 206.25C251.961 206.25 268.75 189.461 268.75 168.75C268.75 148.039 251.961 131.25 231.25 131.25C210.539 131.25 193.75 148.039 193.75 168.75C193.75 189.461 210.539 206.25 231.25 206.25Z" fill="#FBE8C2" stroke="#231F20" stroke-width="6.25" stroke-linecap="round" stroke-linejoin="round"/>
<path d="M210.938 190.625C214.389 190.625 217.188 187.827 217.188 184.375C217.188 180.923 214.389 178.125 210.938 178.125C207.486 178.125 204.688 180.923 204.688 184.375C204.688 187.827 207.486 190.625 210.938 190.625Z" fill="#FBBD9C"/>
<path d="M251.562 190.625C255.014 190.625 257.812 187.827 257.812 184.375C257.812 180.923 255.014 178.125 251.562 178.125C248.111 178.125 245.312 180.923 245.312 184.375C245.312 187.827 248.111 190.625 251.562 190.625Z" fill="#FBBD9C"/>
<path d="M193.75 168.75C203.696 168.75 213.234 164.799 220.267 157.767C227.299 150.734 231.25 141.196 231.25 131.25C221.304 131.25 211.766 135.201 204.733 142.233C197.701 149.266 193.75 158.804 193.75 168.75Z" fill="#713C1A" stroke="#231F20" stroke-width="6.25" stroke-linecap="round" stroke-linejoin="round"/>
<path d="M268.75 168.75C268.75 158.804 264.799 149.266 257.767 142.233C250.734 135.201 241.196 131.25 231.25 131.25C231.25 141.196 235.201 150.734 242.233 157.767C249.266 164.799 258.804 168.75 268.75 168.75Z" fill="#713C1A" stroke="#231F20" stroke-width="6.25" stroke-linecap="round" stroke-linejoin="round"/>
<path d="M218.75 162.5V168.75" stroke="#231F20" stroke-width="6.25" stroke-linecap="round" stroke-linejoin="round"/>
<path d="M243.75 162.5V168.75" stroke="#231F20" stroke-width="6.25" stroke-linecap="round" stroke-linejoin="round"/>
<path d="M293.75 243.75V231.25C293.75 224.62 296.384 218.261 301.072 213.572C305.761 208.884 312.12 206.25 318.75 206.25H362.5C367.473 206.25 372.242 208.225 375.758 211.742C379.275 215.258 381.25 220.027 381.25 225V231.25C381.25 234.565 379.933 237.745 377.589 240.089C375.245 242.433 372.065 243.75 368.75 243.75H293.75Z" fill="#C17E3D" stroke="#231F20" stroke-width="6.25" stroke-linecap="round" stroke-linejoin="round"/>
<path d="M362.5 206.25H312.5V243.75H362.5V206.25Z" fill="#FF5500" stroke="#231F20" stroke-width="6.25" stroke-linecap="round" stroke-linejoin="round"/>
<path d="M325 206.25H350V212.5C350 215.815 348.683 218.995 346.339 221.339C343.995 223.683 340.815 225 337.5 225C334.185 225 331.005 223.683 328.661 221.339C326.317 218.995 325 215.815 325 212.5V206.25Z" fill="#C17E3D" stroke="#231F20" stroke-width="6.25" stroke-linecap="round" stroke-linejoin="round"/>
<path d="M312.5 206.25H362.5C365.815 206.25 368.995 204.933 371.339 202.589C373.683 200.245 375 197.065 375 193.75V170.322C375.148 160.381 371.45 150.767 364.676 143.49C357.903 136.212 348.58 131.833 338.653 131.267C333.634 131.113 328.635 131.968 323.953 133.782C319.27 135.597 315 138.333 311.395 141.829C307.79 145.325 304.923 149.509 302.966 154.133C301.009 158.758 300 163.728 300 168.75V193.75C300 197.065 301.317 200.245 303.661 202.589C306.005 204.933 309.185 206.25 312.5 206.25Z" fill="#231F20" stroke="#231F20" stroke-width="6.25" stroke-linecap="round" stroke-linejoin="round"/>
<path d="M337.5 206.25C358.211 206.25 375 189.461 375 168.75C375 148.039 358.211 131.25 337.5 131.25C316.789 131.25 300 148.039 300 168.75C300 189.461 316.789 206.25 337.5 206.25Z" fill="#C17E3D" stroke="#231F20" stroke-width="6.25" stroke-linecap="round" stroke-linejoin="round"/>
<path d="M315.625 187.5C319.077 187.5 321.875 184.702 321.875 181.25C321.875 177.798 319.077 175 315.625 175C312.173 175 309.375 177.798 309.375 181.25C309.375 184.702 312.173 187.5 315.625 187.5Z" fill="#AA532C"/>
<path d="M359.375 187.5C362.827 187.5 365.625 184.702 365.625 181.25C365.625 177.798 362.827 175 359.375 175C355.923 175 353.125 177.798 353.125 181.25C353.125 184.702 355.923 187.5 359.375 187.5Z" fill="#AA532C"/>
<path d="M300 168.75C309.946 168.75 319.484 164.799 326.517 157.767C333.549 150.734 337.5 141.196 337.5 131.25C327.554 131.25 318.016 135.201 310.983 142.233C303.951 149.266 300 158.804 300 168.75Z" fill="#231F20" stroke="#231F20" stroke-width="6.25" stroke-linecap="round" stroke-linejoin="round"/>
<path d="M375 168.75C375 158.804 371.049 149.266 364.017 142.233C356.984 135.201 347.446 131.25 337.5 131.25C337.5 141.196 341.451 150.734 348.483 157.767C355.516 164.799 365.054 168.75 375 168.75Z" fill="#231F20" stroke="#231F20" stroke-width="6.25" stroke-linecap="round" stroke-linejoin="round"/>
<path d="M346.875 181.25C346.875 183.736 345.887 186.121 344.129 187.879C342.371 189.637 339.986 190.625 337.5 190.625C335.014 190.625 332.629 189.637 330.871 187.879C329.113 186.121 328.125 183.736 328.125 181.25" stroke="#231F20" stroke-width="6.25" stroke-linecap="round" stroke-linejoin="round"/>
<path d="M321.875 162.5V168.75" stroke="#231F20" stroke-width="6.25" stroke-linecap="round" stroke-linejoin="round"/>
<path d="M353.125 162.5V168.75" stroke="#231F20" stroke-width="6.25" stroke-linecap="round" stroke-linejoin="round"/>
<path d="M243.75 206.25H193.75L182.812 228.125H200V243.75H246.875V250H268.75V231.25C268.75 227.967 268.103 224.716 266.847 221.683C265.591 218.65 263.749 215.894 261.428 213.572C259.106 211.251 256.35 209.409 253.317 208.153C250.284 206.897 247.033 206.25 243.75 206.25Z" fill="#FF3446" stroke="#231F20" stroke-width="6.25" stroke-linecap="round" stroke-linejoin="round"/>
<path d="M246.875 243.75V237.5" stroke="#231F20" stroke-width="6.25" stroke-linecap="round" stroke-linejoin="round"/>
<path d="M218.75 206.25H243.75C243.75 209.565 242.433 212.745 240.089 215.089C237.745 217.433 234.565 218.75 231.25 218.75C227.935 218.75 224.755 217.433 222.411 215.089C220.067 212.745 218.75 209.565 218.75 206.25Z" fill="#FBE8C2" stroke="#231F20" stroke-width="6.25" stroke-linecap="round" stroke-linejoin="round"/>
<path d="M246.875 250H268.75V281.25C268.75 284.151 267.598 286.933 265.546 288.984C263.495 291.035 260.713 292.188 257.812 292.188C254.912 292.188 252.13 291.035 250.079 288.984C248.027 286.933 246.875 284.151 246.875 281.25V250Z" fill="#FBE8C2" stroke="#231F20" stroke-width="6.25" stroke-linecap="round" stroke-linejoin="round"/>
<path d="M306.25 231.25H300C294.822 231.25 290.625 235.447 290.625 240.625C290.625 245.803 294.822 250 300 250H306.25C311.428 250 315.625 245.803 315.625 240.625C315.625 235.447 311.428 231.25 306.25 231.25Z" fill="#C17E3D" stroke="#231F20" stroke-width="6.25" stroke-linecap="round" stroke-linejoin="round"/>
<path d="M243.75 262.5H231.25" stroke="#231F20" stroke-width="6.25" stroke-linecap="round" stroke-linejoin="round"/>
<path d="M240.089 187.5C237.745 189.844 234.565 191.161 231.25 191.161C227.935 191.161 224.755 189.844 222.411 187.5" stroke="#231F20" stroke-width="6.25" stroke-linecap="round" stroke-linejoin="round"/>
<path d="M218.75 159.375H206.25C202.798 159.375 200 162.173 200 165.625V171.875C200 175.327 202.798 178.125 206.25 178.125H218.75C222.202 178.125 225 175.327 225 171.875V165.625C225 162.173 222.202 159.375 218.75 159.375Z" fill="#231F20" stroke="#231F20" stroke-width="6.25" stroke-linecap="round" stroke-linejoin="round"/>
<path d="M256.25 159.375H243.75C240.298 159.375 237.5 162.173 237.5 165.625V171.875C237.5 175.327 240.298 178.125 243.75 178.125H256.25C259.702 178.125 262.5 175.327 262.5 171.875V165.625C262.5 162.173 259.702 159.375 256.25 159.375Z" fill="#231F20" stroke="#231F20" stroke-width="6.25" stroke-linecap="round" stroke-linejoin="round"/>
<path d="M256.25 165.625H253.125" stroke="#808080" stroke-width="6.25" stroke-linecap="round" stroke-linejoin="round"/>
<path d="M218.75 165.625H215.625" stroke="#808080" stroke-width="6.25" stroke-linecap="round" stroke-linejoin="round"/>
<path d="M225 168.75H237.5" stroke="#231F20" stroke-width="6.25" stroke-linecap="round" stroke-linejoin="round"/>
<path d="M143.75 125L43.75 118.75" stroke="#231F20" stroke-width="6.25" stroke-linecap="round" stroke-linejoin="round"/>
<path d="M70.3552 120.413L143.182 124.964C141.771 116.631 137.583 109.02 131.301 103.367C125.018 97.7136 117.008 94.3502 108.573 93.823C100.137 93.2958 91.7716 95.6357 84.8337 100.463C77.8958 105.29 72.7935 112.32 70.3552 120.413Z" fill="#FF3446" stroke="#231F20" stroke-width="6.25" stroke-linecap="round" stroke-linejoin="round"/>
<path d="M381.25 225C381.25 220.027 379.275 215.258 375.758 211.742C372.242 208.225 367.473 206.25 362.5 206.25V225H343.75C340.435 225 337.255 226.317 334.911 228.661C332.567 231.005 331.25 234.185 331.25 237.5C331.25 239.158 331.908 240.747 333.081 241.919C334.253 243.092 335.842 243.75 337.5 243.75H368.75C372.065 243.75 375.245 242.433 377.589 240.089C379.933 237.745 381.25 234.565 381.25 231.25V225Z" fill="#C17E3D" stroke="#231F20" stroke-width="6.25" stroke-linecap="round" stroke-linejoin="round"/>
<path d="M368.75 225H362.5" stroke="#231F20" stroke-width="6.25" stroke-linecap="round" stroke-linejoin="round"/>
<path d="M82.8125 146.875C86.2643 146.875 89.0625 144.077 89.0625 140.625C89.0625 137.173 86.2643 134.375 82.8125 134.375C79.3607 134.375 76.5625 137.173 76.5625 140.625C76.5625 144.077 79.3607 146.875 82.8125 146.875Z" fill="#EB8561"/>
<path d="M129.688 146.875C133.139 146.875 135.938 144.077 135.938 140.625C135.938 137.173 133.139 134.375 129.688 134.375C126.236 134.375 123.438 137.173 123.438 140.625C123.438 144.077 126.236 146.875 129.688 146.875Z" fill="#EB8561"/>
</svg>
