<svg width="400" height="400" viewBox="0 0 400 400" fill="none" xmlns="http://www.w3.org/2000/svg">
<path d="M94.8278 262.196H57.9658V278.842H94.8278V262.196Z" fill="#313553"/>
<path d="M94.8278 286.224H57.9658V302.87H94.8278V286.224Z" fill="#313553"/>
<path d="M94.8278 310.252H57.9658V356.232H94.8278V310.252Z" fill="#313553"/>
<path d="M325.908 78.438C328.036 78.438 330.114 79.0688 331.884 80.2506C333.652 81.4326 335.03 83.1124 335.846 85.0778C336.66 87.0432 336.872 89.206 336.458 91.2924C336.042 93.3788 335.018 95.2954 333.514 96.7996C332.01 98.3038 330.092 99.3282 328.006 99.7434C325.92 100.158 323.758 99.9454 321.792 99.1312C319.826 98.3172 318.146 96.9386 316.964 95.1698C315.782 93.4008 315.152 91.3214 315.152 89.194C315.152 86.3416 316.286 83.6064 318.304 81.5896C320.32 79.5726 323.056 78.439 325.908 78.438Z" fill="#313553"/>
<path d="M325.908 128.896C328.036 128.895 330.116 129.526 331.886 130.707C333.656 131.889 335.036 133.569 335.852 135.535C336.666 137.5 336.88 139.664 336.466 141.751C336.052 143.839 335.028 145.756 333.524 147.262C332.018 148.767 330.102 149.793 328.014 150.208C325.928 150.624 323.764 150.412 321.798 149.598C319.832 148.785 318.15 147.406 316.968 145.637C315.784 143.868 315.152 141.788 315.152 139.66C315.152 136.806 316.284 134.069 318.302 132.051C320.318 130.032 323.054 128.898 325.908 128.896Z" fill="#313553"/>
<path d="M45.558 121.748C56.8544 121.748 66.012 112.591 66.012 101.294C66.012 89.9976 56.8544 80.84 45.558 80.84C34.2616 80.84 25.104 89.9976 25.104 101.294C25.104 112.591 34.2616 121.748 45.558 121.748Z" fill="#313553"/>
<path d="M233.462 62.7802C235.496 62.7802 237.146 61.1308 237.146 59.0962C237.146 57.0614 235.496 55.4122 233.462 55.4122C231.428 55.4122 229.778 57.0614 229.778 59.0962C229.778 61.1308 231.428 62.7802 233.462 62.7802Z" fill="#313553"/>
<path d="M92.1401 82.122C94.1747 82.122 95.8241 80.4726 95.8241 78.438C95.8241 76.4032 94.1747 74.754 92.1401 74.754C90.1055 74.754 88.4561 76.4032 88.4561 78.438C88.4561 80.4726 90.1055 82.122 92.1401 82.122Z" fill="#313553"/>
<path d="M63.5999 219.952C65.0443 219.952 66.4561 220.382 67.6567 221.184C68.8573 221.986 69.7929 223.128 70.3451 224.462C70.8973 225.796 71.0415 227.264 70.7591 228.682C70.4769 230.098 69.7809 231.398 68.7591 232.42C67.7375 233.44 66.4361 234.136 65.0193 234.416C63.6027 234.698 62.1345 234.552 60.8005 233.998C59.4663 233.446 58.3263 232.508 57.5245 231.308C56.7227 230.106 56.2953 228.694 56.2959 227.25C56.2957 226.292 56.4845 225.342 56.8515 224.456C57.2187 223.57 57.7567 222.764 58.4351 222.086C59.1135 221.41 59.9187 220.872 60.8051 220.506C61.6913 220.138 62.6411 219.95 63.5999 219.952Z" fill="#FFE8BB"/>
<path d="M311.902 50.326C315.936 50.326 319.206 47.056 319.206 43.022C319.206 38.9882 315.936 35.718 311.902 35.718C307.868 35.718 304.598 38.9882 304.598 43.022C304.598 47.056 307.868 50.326 311.902 50.326Z" fill="#FFE8BB"/>
<path d="M172.526 11.688C173.971 11.6868 175.383 12.114 176.585 12.9155C177.786 13.717 178.724 14.8568 179.278 16.1909C179.832 17.5249 179.978 18.9933 179.697 20.4104C179.417 21.8274 178.722 23.1294 177.702 24.1518C176.681 25.1742 175.381 25.871 173.964 26.1542C172.548 26.4374 171.079 26.2942 169.744 25.7428C168.409 25.1914 167.267 24.2566 166.463 23.0564C165.66 21.8562 165.23 20.4444 165.228 19C165.226 18.0404 165.414 17.0899 165.78 16.2029C166.145 15.3158 166.683 14.5096 167.361 13.8305C168.038 13.1513 168.844 12.6125 169.73 12.2449C170.616 11.8772 171.566 11.688 172.526 11.688Z" fill="#FFE8BB"/>
<path d="M31.552 50.326C35.586 50.326 38.856 47.056 38.856 43.022C38.856 38.9882 35.586 35.718 31.552 35.718C27.5182 35.718 24.248 38.9882 24.248 43.022C24.248 47.056 27.5182 50.326 31.552 50.326Z" fill="#FFE8BB"/>
<path d="M290.034 235.472L280.978 236.816C278.984 236.82 277.062 236.072 275.594 234.722C274.126 233.374 273.22 231.522 273.056 229.534C273.056 229.504 273.056 229.466 273.056 229.442C272.714 227.51 273.082 225.518 274.09 223.836C275.098 222.152 276.68 220.888 278.546 220.278L287.546 218.942C286.998 219.112 282.134 220.742 283.308 228.542C283.458 230.296 284.208 231.944 285.434 233.208C286.66 234.47 288.286 235.27 290.034 235.472Z" fill="#55DEFF"/>
<path d="M352.832 70.6322V181.032C352.832 181.712 352.56 182.363 352.08 182.844C351.6 183.325 350.948 183.595 350.268 183.596H301.554C300.874 183.595 300.224 183.325 299.744 182.844C299.262 182.363 298.992 181.712 298.992 181.032V70.6322C298.994 69.9528 299.264 69.3016 299.744 68.821C300.224 68.3404 300.874 68.0698 301.554 68.0682H350.268C350.948 68.0696 351.598 68.3404 352.08 68.8208C352.56 69.3014 352.83 69.9526 352.832 70.6322ZM336.67 89.2002C336.67 87.0718 336.04 84.9912 334.858 83.2212C333.678 81.4514 331.998 80.0716 330.032 79.2566C328.066 78.4414 325.902 78.2276 323.814 78.6422C321.726 79.0568 319.81 80.081 318.304 81.5856C316.798 83.09 315.774 85.007 315.358 87.0942C314.942 89.1814 315.154 91.345 315.968 93.3114C316.782 95.2778 318.162 96.9588 319.93 98.1414C321.7 99.3242 323.78 99.9558 325.908 99.9562C328.762 99.9566 331.498 98.8238 333.516 96.8068C335.534 94.7896 336.67 92.0534 336.67 89.2002ZM336.67 139.666C336.67 137.538 336.04 135.457 334.858 133.687C333.678 131.917 331.998 130.538 330.032 129.723C328.066 128.907 325.902 128.694 323.814 129.108C321.726 129.523 319.81 130.547 318.304 132.052C316.798 133.556 315.774 135.473 315.358 137.56C314.942 139.647 315.154 141.811 315.968 143.777C316.782 145.744 318.162 147.425 319.93 148.607C321.7 149.79 323.78 150.422 325.908 150.422C328.762 150.422 331.5 149.288 333.518 147.27C335.536 145.252 336.67 142.514 336.67 139.66V139.666Z" fill="#55DEFF"/>
<path d="M104.516 254.868V365.258C104.515 365.938 104.245 366.59 103.765 367.07C103.285 367.55 102.633 367.82 101.954 367.822H53.2398C52.56 367.82 51.9086 367.55 51.428 367.07C50.9474 366.59 50.6768 365.938 50.6758 365.258V254.868C50.6758 254.188 50.946 253.536 51.4268 253.054C51.9076 252.574 52.5598 252.304 53.2398 252.304H101.954C102.29 252.304 102.624 252.37 102.935 252.5C103.246 252.628 103.528 252.816 103.766 253.056C104.004 253.294 104.193 253.576 104.321 253.886C104.45 254.198 104.516 254.532 104.516 254.868ZM94.8258 356.232V310.252H57.9658V356.232H94.8258ZM94.8258 302.872V286.224H57.9658V302.872H94.8258ZM94.8258 278.842V262.2H57.9658V278.846L94.8258 278.842Z" fill="#55DEFF"/>
<path d="M213.456 46.5998V157C213.456 157.681 213.188 158.334 212.706 158.816C212.226 159.299 211.574 159.57 210.892 159.572H162.178C161.498 159.57 160.846 159.298 160.365 158.816C159.885 158.333 159.616 157.68 159.616 157V46.5998C159.617 45.9204 159.887 45.2688 160.367 44.7882C160.847 44.3074 161.499 44.037 162.178 44.0358H210.892C211.572 44.0364 212.224 44.3068 212.704 44.7874C213.186 45.2682 213.456 45.92 213.456 46.5998Z" fill="#55DEFF"/>
<path d="M72.4822 70.6322V181.032C72.4822 181.37 72.4156 181.704 72.2864 182.016C72.157 182.328 71.9676 182.611 71.7286 182.849C71.4898 183.088 71.2062 183.277 70.8942 183.406C70.5822 183.535 70.2478 183.601 69.9102 183.6H21.2002C20.8636 183.6 20.5302 183.534 20.2192 183.405C19.9083 183.276 19.6258 183.087 19.3879 182.849C19.1499 182.611 18.9613 182.328 18.8326 182.017C18.704 181.706 18.6379 181.373 18.6382 181.036V70.6362C18.6374 70.2992 18.7031 69.9654 18.8315 69.6538C18.9599 69.3424 19.1485 69.0592 19.3864 68.8206C19.6244 68.582 19.9071 68.3928 20.2184 68.2638C20.5296 68.1346 20.8632 68.0682 21.2002 68.0682H69.9102C70.5912 68.0676 71.2444 68.3372 71.7266 68.818C72.2088 69.2988 72.4806 69.9512 72.4822 70.6322ZM66.0122 101.294C66.0126 97.2486 64.8134 93.2938 62.566 89.93C60.3188 86.566 57.1244 83.944 53.387 82.3956C49.6496 80.8472 45.5368 80.4418 41.569 81.2308C37.6012 82.0198 33.9564 83.9678 31.0958 86.8282C28.235 89.6888 26.2868 93.3332 25.4974 97.301C24.708 101.269 25.113 105.381 26.661 109.119C28.209 112.857 30.8306 116.051 34.1944 118.299C37.558 120.546 41.5126 121.746 45.5582 121.746C50.9826 121.746 56.1848 119.591 60.0206 115.756C63.8564 111.921 66.0116 106.719 66.0122 101.294Z" fill="#55DEFF"/>
<path d="M281.518 73.034C282.248 73.0328 282.962 73.2482 283.57 73.653C284.176 74.0578 284.65 74.6336 284.93 75.3078C285.21 75.982 285.284 76.724 285.142 77.44C285 78.156 284.648 78.8136 284.132 79.3298C283.616 79.8458 282.958 80.1972 282.242 80.3394C281.526 80.4814 280.784 80.408 280.11 80.128C279.436 79.8482 278.86 79.3746 278.454 78.7672C278.05 78.1598 277.834 77.4458 277.836 76.716C277.836 75.7396 278.224 74.8034 278.914 74.113C279.606 73.4226 280.542 73.0344 281.518 73.034Z" fill="#313553"/>
<path d="M281.518 112.444C283.552 112.444 285.202 110.795 285.202 108.76C285.202 106.725 283.552 105.076 281.518 105.076C279.484 105.076 277.834 106.725 277.834 108.76C277.834 110.795 279.484 112.444 281.518 112.444Z" fill="#313553"/>
<path d="M281.518 128.466C283.552 128.466 285.202 126.817 285.202 124.782C285.202 122.747 283.552 121.098 281.518 121.098C279.484 121.098 277.834 122.747 277.834 124.782C277.834 126.817 279.484 128.466 281.518 128.466Z" fill="#313553"/>
<path d="M281.518 137.112C282.248 137.111 282.962 137.326 283.568 137.731C284.176 138.135 284.65 138.71 284.93 139.384C285.21 140.058 285.284 140.799 285.142 141.515C285 142.231 284.65 142.889 284.134 143.405C283.62 143.921 282.962 144.273 282.246 144.417C281.532 144.56 280.79 144.487 280.116 144.208C279.442 143.93 278.864 143.457 278.458 142.851C278.054 142.245 277.836 141.532 277.836 140.802C277.836 140.318 277.93 139.838 278.114 139.391C278.3 138.943 278.57 138.537 278.912 138.194C279.254 137.851 279.66 137.579 280.108 137.394C280.554 137.208 281.034 137.112 281.518 137.112Z" fill="#313553"/>
<path d="M124.176 292.756C124.906 292.756 125.619 292.97 126.226 293.376C126.833 293.78 127.306 294.356 127.586 295.028C127.866 295.702 127.94 296.444 127.798 297.16C127.657 297.876 127.306 298.532 126.791 299.048C126.276 299.566 125.619 299.918 124.904 300.06C124.188 300.204 123.447 300.132 122.773 299.852C122.098 299.574 121.522 299.102 121.116 298.496C120.71 297.89 120.493 297.178 120.492 296.448C120.492 295.47 120.879 294.532 121.57 293.84C122.261 293.148 123.198 292.758 124.176 292.756Z" fill="#313553"/>
<path d="M124.176 324.8C124.905 324.8 125.617 325.016 126.223 325.422C126.829 325.826 127.301 326.402 127.58 327.074C127.859 327.748 127.932 328.488 127.789 329.204C127.647 329.918 127.296 330.574 126.78 331.09C126.265 331.604 125.608 331.956 124.894 332.098C124.179 332.24 123.438 332.166 122.765 331.888C122.092 331.608 121.517 331.136 121.112 330.53C120.708 329.924 120.492 329.21 120.492 328.482C120.494 327.506 120.882 326.57 121.573 325.88C122.264 325.19 123.2 324.802 124.176 324.8Z" fill="#313553"/>
<path d="M207.472 227.156C210.41 227.462 213.378 227.252 216.242 226.532C222.612 224.84 226.218 218.046 226.218 218.046C228.45 221.162 231.06 223.988 233.986 226.462L205.556 230.4C206.266 229.406 206.904 228.364 207.464 227.28L207.472 227.156Z" fill="#313553"/>
<path d="M195.758 204.772C203.032 194.604 221.632 178.838 234.072 177.572C237.43 177.226 253.472 184.252 265.998 189.858C265.998 189.858 295.198 188.814 299.216 193.348C315.878 212.102 330.478 263.402 333.328 269.1C336.178 274.798 377.246 297.73 390.858 304.772V387.744L310.634 339.208C305.544 339.832 300.398 339.832 295.308 339.208C252.216 330.84 194.47 287.23 183.288 282.048C175.074 278.248 173.12 270.298 172.088 264.962C171.867 263.454 171.526 261.968 171.068 260.514C170.363 259.086 169.427 257.784 168.296 256.662C166.944 255.178 165.324 253.642 163.88 252.214C162.74 251.128 161.684 249.956 160.722 248.708C159.591 247.132 158.95 245.26 158.879 243.322C158.808 241.384 159.31 239.468 160.322 237.814C161.084 236.434 162.041 235.17 163.164 234.062C167.14 230.078 176.684 233.482 177.07 233.614C177.443 230.708 178.544 227.944 180.27 225.576C186.316 216.194 187.682 211.084 189.768 208.318C190.443 207.386 191.362 206.66 192.424 206.218C193.2 205.884 194.36 205.382 195.758 204.772ZM207.472 227.156V227.288C206.912 228.372 206.274 229.414 205.564 230.408C202.82 234.512 198.898 237.688 194.314 239.518C193.736 239.718 193.126 239.896 192.514 240.052C194.969 242.592 197.084 245.438 198.806 248.522C199.254 249.328 199.646 250.164 199.98 251.024C199.98 251.024 222.126 264.712 225.692 266.69C225.692 266.69 248.438 254.622 255.372 251.254C255.372 251.254 247.944 243.642 246.338 241.626L280.992 236.816L290.048 235.472L294.094 234.872C296.28 234.542 298.246 233.358 299.562 231.582C300.878 229.804 301.436 227.58 301.114 225.392C300.792 223.204 299.616 221.234 297.846 219.912C296.074 218.588 293.85 218.022 291.662 218.334L287.608 218.934C287.592 218.932 287.578 218.932 287.562 218.934L278.562 220.27L234.01 226.454C231.084 223.98 228.474 221.154 226.242 218.038C226.242 218.038 222.642 224.838 216.266 226.524C213.394 227.25 210.418 227.462 207.472 227.156Z" fill="#FFE8BB"/>
<path d="M390.858 304.778C377.246 297.736 336.176 274.796 333.328 269.106C330.48 263.416 315.878 212.106 299.216 193.354C295.2 188.82 266 189.864 266 189.864" stroke="#313553" stroke-width="0.772" stroke-linecap="round" stroke-linejoin="round"/>
<path d="M177.066 233.628C176.68 233.496 167.136 230.092 163.16 234.076C162.037 235.184 161.08 236.446 160.318 237.828C159.306 239.482 158.804 241.398 158.875 243.336C158.946 245.274 159.587 247.146 160.718 248.722C161.68 249.97 162.736 251.142 163.876 252.228C165.32 253.656 166.94 255.192 168.292 256.676C169.423 257.798 170.359 259.1 171.064 260.528C171.522 261.982 171.863 263.468 172.084 264.976C173.118 270.31 175.072 278.256 183.284 282.062C194.466 287.244 252.212 330.862 295.304 339.222C300.394 339.846 305.54 339.846 310.63 339.222L390.854 387.758" stroke="#313553" stroke-width="0.772" stroke-linecap="round" stroke-linejoin="round"/>
<path d="M192.484 240.044H192.5C194.955 242.584 197.07 245.43 198.792 248.514C199.24 249.32 199.632 250.156 199.966 251.016C199.966 251.016 222.112 264.704 225.678 266.682C225.678 266.682 248.424 254.614 255.358 251.246C255.358 251.246 247.93 243.634 246.324 241.618L246.302 241.602" stroke="#313553" stroke-width="0.772" stroke-linecap="round" stroke-linejoin="round"/>
<path d="M168.294 256.668C168.294 256.668 170.642 248.204 172.594 245.988C174.546 243.772 169.544 238.638 166.348 236.346" stroke="#313553" stroke-width="0.772" stroke-linecap="round" stroke-linejoin="round"/>
<path d="M175.83 258.2C174.63 260.046 171.63 262.818 172.086 264.964" stroke="#313553" stroke-width="0.772" stroke-linecap="round" stroke-linejoin="round"/>
<path d="M234.072 226.532C234.072 226.532 234.04 226.508 233.986 226.462C231.06 223.988 228.45 221.162 226.218 218.046C226.218 218.046 222.618 224.846 216.242 226.532C213.378 227.252 210.41 227.462 207.472 227.156C206.21 227.046 204.956 226.838 203.726 226.532" stroke="#313553" stroke-width="0.772" stroke-linecap="round" stroke-linejoin="round"/>
<path d="M207.464 227.288C206.902 228.372 206.266 229.414 205.556 230.408C202.812 234.51 198.89 237.686 194.306 239.518C193.728 239.718 193.118 239.896 192.506 240.052C192.166 240.128 191.826 240.198 191.472 240.252C183.58 241.618 176.708 239.828 177.072 233.612C177.445 230.706 178.546 227.942 180.272 225.574C186.318 216.192 187.684 211.08 189.77 208.316C190.445 207.384 191.364 206.658 192.426 206.216C193.226 205.876 194.378 205.374 195.776 204.764C201.93 202.032 212.91 196.99 220.222 193.164C229.186 188.476 232.036 189.496 237.34 191.736C242.644 193.976 269.74 209.262 269.74 209.262" stroke="#313553" stroke-width="0.772" stroke-linecap="round" stroke-linejoin="round"/>
<path d="M279.982 196.048C277.426 195.014 272.136 192.604 265.998 189.864C253.474 184.264 237.43 177.232 234.072 177.578C221.632 178.838 203.032 194.604 195.758 204.778" stroke="#313553" stroke-width="0.772" stroke-linecap="round" stroke-linejoin="round"/>
<path d="M205.556 230.408L233.986 226.462L278.538 220.278" stroke="#313553" stroke-width="0.772" stroke-linecap="round" stroke-linejoin="round"/>
<path d="M280.978 236.816L246.324 241.626L199.518 248.128" stroke="#313553" stroke-width="0.772" stroke-linecap="round" stroke-linejoin="round"/>
<path d="M153.308 242.066L144.304 247.526L151.486 249.378L153.098 249.796L163.592 252.506" stroke="#313553" stroke-width="0.772" stroke-linecap="round" stroke-linejoin="round"/>
<path d="M160.302 237.82L153.308 242.066" stroke="#313553" stroke-width="0.772" stroke-linecap="round" stroke-linejoin="round"/>
<path d="M290.034 235.472L280.978 236.816C278.984 236.82 277.062 236.072 275.594 234.722C274.126 233.374 273.22 231.522 273.056 229.534C273.056 229.504 273.056 229.466 273.056 229.442C272.714 227.51 273.082 225.518 274.09 223.836C275.098 222.152 276.68 220.888 278.546 220.278L287.546 218.942" stroke="#313553" stroke-width="0.772" stroke-linecap="round" stroke-linejoin="round"/>
<path d="M290.034 235.472L294.08 234.872C296.266 234.542 298.232 233.358 299.548 231.582C300.864 229.804 301.422 227.58 301.1 225.392C300.778 223.204 299.602 221.234 297.832 219.912C296.06 218.588 293.836 218.022 291.648 218.334L287.594 218.934C287.578 218.932 287.564 218.932 287.548 218.934C287 219.104 282.136 220.734 283.31 228.534C283.458 230.29 284.208 231.938 285.434 233.204C286.658 234.468 288.284 235.27 290.034 235.472Z" stroke="#313553" stroke-width="0.772" stroke-linecap="round" stroke-linejoin="round"/>
<path d="M144.304 247.526L139.742 247.966" stroke="#313553" stroke-width="0.772" stroke-linecap="round" stroke-linejoin="round"/>
<path d="M69.948 189.6H21.166C18.4322 189.6 15.8106 188.513 13.8776 186.58C11.9446 184.647 10.8584 182.026 10.8579 179.292V70.6782C10.859 67.9446 11.9453 65.3234 13.8782 63.3904C15.8111 61.4576 18.4324 60.3712 21.166 60.3702H69.948C72.6816 60.3706 75.3032 61.4568 77.2362 63.3898C79.1692 65.3228 80.2554 67.9444 80.256 70.6782V179.292C80.2554 182.026 79.1692 184.647 77.2362 186.58C75.3032 188.513 72.6816 189.6 69.948 189.6Z" stroke="#313553" stroke-width="0.772" stroke-linecap="round" stroke-linejoin="round"/>
<path d="M69.9102 183.6H21.2002C20.8636 183.6 20.5302 183.534 20.2192 183.405C19.9083 183.276 19.6258 183.087 19.3879 182.849C19.1499 182.611 18.9613 182.328 18.8326 182.017C18.704 181.706 18.6379 181.373 18.6382 181.036V70.6362C18.6374 70.2992 18.7031 69.9654 18.8315 69.6538C18.9599 69.3424 19.1485 69.0592 19.3864 68.8206C19.6244 68.582 19.9071 68.3928 20.2184 68.2638C20.5296 68.1346 20.8632 68.0682 21.2002 68.0682H69.9102C70.5912 68.0676 71.2444 68.3372 71.7266 68.818C72.2088 69.2988 72.4806 69.9512 72.4822 70.6322V181.032C72.4822 181.37 72.4156 181.704 72.2864 182.016C72.157 182.328 71.9676 182.611 71.7286 182.849C71.4898 183.088 71.2062 183.277 70.8942 183.406C70.5822 183.535 70.2478 183.601 69.9102 183.6Z" stroke="#313553" stroke-width="0.772" stroke-linecap="round" stroke-linejoin="round"/>
<path d="M31.498 64.146H57.216" stroke="#313553" stroke-width="0.772" stroke-linecap="round" stroke-linejoin="round"/>
<path d="M61.764 43.8082H44.354" stroke="#313553" stroke-width="0.772" stroke-linecap="round" stroke-linejoin="round"/>
<path d="M31.552 50.326C35.586 50.326 38.856 47.056 38.856 43.022C38.856 38.9882 35.586 35.718 31.552 35.718C27.5182 35.718 24.248 38.9882 24.248 43.022C24.248 47.056 27.5182 50.326 31.552 50.326Z" stroke="#313553" stroke-width="0.772" stroke-linecap="round" stroke-linejoin="round"/>
<path d="M102 373.83H53.2099C51.8563 373.83 50.5157 373.564 49.2649 373.046C48.0143 372.528 46.8777 371.768 45.9205 370.812C44.9633 369.854 44.2041 368.718 43.6861 367.466C43.1681 366.216 42.9017 364.876 42.9019 363.522V254.906C42.9017 253.552 43.1681 252.212 43.6861 250.962C44.2041 249.71 44.9633 248.574 45.9207 247.618C46.8779 246.66 48.0143 245.902 49.2651 245.384C50.5159 244.866 51.8563 244.6 53.2099 244.6H102C104.733 244.6 107.354 245.686 109.287 247.618C111.22 249.552 112.307 252.172 112.308 254.906V363.522C112.307 366.256 111.22 368.876 109.288 370.81C107.355 372.742 104.733 373.828 102 373.83Z" stroke="#313553" stroke-width="0.772" stroke-linecap="round" stroke-linejoin="round"/>
<path d="M101.954 367.822H53.2398C52.56 367.82 51.9086 367.55 51.428 367.07C50.9474 366.59 50.6768 365.938 50.6758 365.258V254.868C50.6758 254.188 50.946 253.536 51.4268 253.054C51.9076 252.574 52.5598 252.304 53.2398 252.304H101.954C102.29 252.304 102.624 252.37 102.935 252.5C103.246 252.628 103.528 252.816 103.766 253.056C104.004 253.294 104.193 253.576 104.321 253.886C104.45 254.198 104.516 254.532 104.516 254.868V365.258C104.515 365.938 104.245 366.59 103.765 367.07C103.285 367.55 102.633 367.82 101.954 367.822Z" stroke="#313553" stroke-width="0.772" stroke-linecap="round" stroke-linejoin="round"/>
<path d="M63.5322 248.374H89.2522" stroke="#313553" stroke-width="0.772" stroke-linecap="round" stroke-linejoin="round"/>
<path d="M93.808 228.044H76.396" stroke="#313553" stroke-width="0.772" stroke-linecap="round" stroke-linejoin="round"/>
<path d="M70.89 227.25C70.8904 228.694 70.4626 230.106 69.6604 231.306C68.8584 232.508 67.7182 233.444 66.384 233.996C65.05 234.548 63.582 234.694 62.1656 234.412C60.7494 234.13 59.4484 233.434 58.4274 232.414C57.4064 231.392 56.7114 230.09 56.43 228.674C56.1486 227.258 56.2936 225.79 56.8466 224.456C57.3998 223.122 58.336 221.982 59.537 221.18C60.7382 220.378 62.15 219.952 63.594 219.952C65.5292 219.952 67.385 220.722 68.7532 222.09C70.1214 223.458 70.89 225.314 70.89 227.25Z" stroke="#313553" stroke-width="0.772" stroke-linecap="round" stroke-linejoin="round"/>
<path d="M210.922 165.564H162.14C160.786 165.564 159.446 165.298 158.196 164.78C156.946 164.262 155.81 163.502 154.853 162.545C153.897 161.588 153.138 160.451 152.621 159.2C152.104 157.95 151.839 156.609 151.84 155.256V46.656C151.839 45.3026 152.104 43.9624 152.622 42.7118C153.139 41.4612 153.897 40.3248 154.854 39.3676C155.81 38.4102 156.946 37.6508 158.196 37.1328C159.447 36.6146 160.787 36.348 162.14 36.348H210.922C212.276 36.3468 213.616 36.6128 214.868 37.1304C216.118 37.648 217.256 38.4074 218.214 39.3646C219.17 40.322 219.93 41.4588 220.448 42.71C220.966 43.961 221.23 45.302 221.23 46.656V155.256C221.232 156.61 220.966 157.951 220.448 159.202C219.93 160.453 219.172 161.59 218.214 162.548C217.256 163.505 216.12 164.264 214.868 164.782C213.616 165.299 212.276 165.565 210.922 165.564Z" stroke="#313553" stroke-width="0.772" stroke-linecap="round" stroke-linejoin="round"/>
<path d="M210.892 159.566H162.178C161.499 159.564 160.848 159.293 160.368 158.812C159.887 158.331 159.617 157.679 159.616 157V46.5998C159.617 45.9204 159.887 45.2688 160.367 44.7882C160.847 44.3074 161.499 44.037 162.178 44.0358H210.892C211.572 44.0364 212.224 44.3068 212.704 44.7874C213.186 45.2682 213.456 45.92 213.456 46.5998V157C213.456 157.68 213.184 158.332 212.704 158.812C212.224 159.293 211.572 159.564 210.892 159.566Z" stroke="#313553" stroke-width="0.772" stroke-linecap="round" stroke-linejoin="round"/>
<path d="M172.472 40.118H198.19" stroke="#313553" stroke-width="0.772" stroke-linecap="round" stroke-linejoin="round"/>
<path d="M202.746 19.78H185.334" stroke="#313553" stroke-width="0.772" stroke-linecap="round" stroke-linejoin="round"/>
<path d="M179.83 19C179.83 20.444 179.401 21.8556 178.599 23.056C177.796 24.2566 176.656 25.1922 175.321 25.7446C173.987 26.297 172.519 26.4414 171.103 26.1596C169.687 25.8778 168.386 25.1824 167.365 24.1614C166.344 23.1402 165.648 21.8394 165.366 20.423C165.085 19.0068 165.229 17.5388 165.782 16.2046C166.334 14.8704 167.27 13.73 168.47 12.9275C169.671 12.125 171.082 11.6964 172.526 11.696C173.485 11.6958 174.435 11.8845 175.321 12.2515C176.208 12.6185 177.013 13.1565 177.691 13.8348C178.37 14.513 178.908 15.3183 179.275 16.2046C179.642 17.0909 179.83 18.0408 179.83 19Z" stroke="#313553" stroke-width="0.772" stroke-linecap="round" stroke-linejoin="round"/>
<path d="M350.298 189.6H301.516C298.782 189.6 296.16 188.513 294.228 186.58C292.294 184.647 291.208 182.026 291.208 179.292V70.6782C291.21 67.9446 292.296 65.3234 294.228 63.3904C296.162 61.4576 298.782 60.3712 301.516 60.3702H350.298C351.652 60.3698 352.992 60.6362 354.244 61.1542C355.494 61.6722 356.63 62.4314 357.588 63.3886C358.544 64.346 359.304 65.4824 359.822 66.7332C360.34 67.9838 360.606 69.3244 360.606 70.6782V179.292C360.606 180.646 360.34 181.987 359.822 183.237C359.304 184.488 358.546 185.625 357.588 186.582C356.63 187.539 355.494 188.299 354.244 188.817C352.992 189.334 351.652 189.601 350.298 189.6Z" stroke="#313553" stroke-width="0.772" stroke-linecap="round" stroke-linejoin="round"/>
<path d="M350.268 183.6H301.554C300.874 183.599 300.224 183.328 299.744 182.848C299.262 182.367 298.992 181.716 298.992 181.036V70.636C298.994 69.9566 299.264 69.3054 299.744 68.8248C300.224 68.3444 300.874 68.0736 301.554 68.072H350.268C350.948 68.0736 351.598 68.3442 352.08 68.8248C352.56 69.3052 352.83 69.9564 352.832 70.636V181.036C352.832 181.716 352.56 182.367 352.08 182.848C351.6 183.328 350.948 183.599 350.268 183.6Z" stroke="#313553" stroke-width="0.772" stroke-linecap="round" stroke-linejoin="round"/>
<path d="M311.848 64.146H337.566" stroke="#313553" stroke-width="0.772" stroke-linecap="round" stroke-linejoin="round"/>
<path d="M342.114 43.8082H324.702" stroke="#313553" stroke-width="0.772" stroke-linecap="round" stroke-linejoin="round"/>
<path d="M311.902 50.326C315.936 50.326 319.206 47.056 319.206 43.022C319.206 38.9882 315.936 35.718 311.902 35.718C307.868 35.718 304.598 38.9882 304.598 43.022C304.598 47.056 307.868 50.326 311.902 50.326Z" stroke="#313553" stroke-width="0.772" stroke-linecap="round" stroke-linejoin="round"/>
<path d="M127.866 296.448C127.865 297.178 127.649 297.89 127.243 298.496C126.837 299.102 126.261 299.574 125.587 299.852C124.913 300.13 124.172 300.204 123.457 300.06C122.742 299.918 122.085 299.566 121.57 299.052C121.054 298.536 120.703 297.878 120.561 297.164C120.419 296.448 120.492 295.706 120.771 295.034C121.05 294.36 121.522 293.784 122.128 293.378C122.734 292.972 123.447 292.756 124.176 292.756C124.661 292.756 125.141 292.852 125.589 293.036C126.037 293.222 126.444 293.494 126.787 293.836C127.129 294.18 127.401 294.586 127.586 295.034C127.772 295.482 127.867 295.964 127.866 296.448Z" stroke="#313553" stroke-width="0.772" stroke-linecap="round" stroke-linejoin="round"/>
<path d="M127.866 328.482C127.867 329.212 127.652 329.926 127.248 330.532C126.843 331.14 126.268 331.614 125.594 331.894C124.921 332.174 124.179 332.248 123.463 332.106C122.747 331.964 122.09 331.614 121.573 331.098C121.057 330.584 120.705 329.926 120.562 329.212C120.419 328.496 120.491 327.754 120.77 327.08C121.048 326.406 121.521 325.828 122.127 325.424C122.734 325.018 123.447 324.8 124.176 324.8C124.66 324.8 125.14 324.894 125.587 325.078C126.035 325.264 126.442 325.534 126.784 325.876C127.127 326.218 127.399 326.624 127.585 327.072C127.77 327.518 127.866 327.998 127.866 328.482Z" stroke="#313553" stroke-width="0.772" stroke-linecap="round" stroke-linejoin="round"/>
<path d="M128.252 328.482H227.092V310.06" stroke="#313553" stroke-width="0.772" stroke-linecap="round" stroke-linejoin="round"/>
<path d="M92.1401 82.122C94.1747 82.122 95.8241 80.4726 95.8241 78.438C95.8241 76.4032 94.1747 74.754 92.1401 74.754C90.1055 74.754 88.4561 76.4032 88.4561 78.438C88.4561 80.4726 90.1055 82.122 92.1401 82.122Z" stroke="#313553" stroke-width="0.772" stroke-linecap="round" stroke-linejoin="round"/>
<path d="M95.8218 78.438H124.176V195.8H203.41" stroke="#313553" stroke-width="0.772" stroke-linecap="round" stroke-linejoin="round"/>
<path d="M133.988 247.966H127.866V208.324H189.752H189.76" stroke="#313553" stroke-width="0.772" stroke-linecap="round" stroke-linejoin="round"/>
<path d="M285.2 76.716C285.2 77.4446 284.984 78.1572 284.58 78.7632C284.176 79.3694 283.6 79.8418 282.928 80.121C282.254 80.4 281.514 80.4734 280.798 80.3314C280.084 80.1894 279.428 79.8388 278.912 79.3236C278.396 78.8084 278.046 78.152 277.902 77.4374C277.76 76.7228 277.834 75.9818 278.112 75.3086C278.392 74.6354 278.864 74.0598 279.47 73.655C280.074 73.25 280.788 73.034 281.516 73.034C282.492 73.0344 283.43 73.4226 284.12 74.1128C284.81 74.8032 285.198 75.7394 285.2 76.716Z" stroke="#313553" stroke-width="0.772" stroke-linecap="round" stroke-linejoin="round"/>
<path d="M233.462 62.7802C235.496 62.7802 237.146 61.1308 237.146 59.0962C237.146 57.0614 235.496 55.4122 233.462 55.4122C231.428 55.4122 229.778 57.0614 229.778 59.0962C229.778 61.1308 231.428 62.7802 233.462 62.7802Z" stroke="#313553" stroke-width="0.772" stroke-linecap="round" stroke-linejoin="round"/>
<path d="M281.518 112.444C283.552 112.444 285.202 110.795 285.202 108.76C285.202 106.725 283.552 105.076 281.518 105.076C279.484 105.076 277.834 106.725 277.834 108.76C277.834 110.795 279.484 112.444 281.518 112.444Z" stroke="#313553" stroke-width="0.772" stroke-linecap="round" stroke-linejoin="round"/>
<path d="M281.518 128.466C283.552 128.466 285.202 126.817 285.202 124.782C285.202 122.747 283.552 121.098 281.518 121.098C279.484 121.098 277.834 122.747 277.834 124.782C277.834 126.817 279.484 128.466 281.518 128.466Z" stroke="#313553" stroke-width="0.772" stroke-linecap="round" stroke-linejoin="round"/>
<path d="M285.2 140.8C285.198 141.528 284.982 142.24 284.576 142.845C284.17 143.45 283.594 143.921 282.922 144.199C282.248 144.477 281.508 144.549 280.794 144.407C280.08 144.264 279.424 143.912 278.908 143.397C278.394 142.882 278.044 142.225 277.902 141.511C277.76 140.796 277.834 140.056 278.114 139.383C278.392 138.71 278.864 138.135 279.47 137.731C280.076 137.326 280.788 137.11 281.516 137.11C282 137.11 282.48 137.206 282.928 137.391C283.374 137.577 283.78 137.849 284.124 138.191C284.466 138.534 284.736 138.941 284.922 139.388C285.106 139.836 285.2 140.316 285.2 140.8Z" stroke="#313553" stroke-width="0.772" stroke-linecap="round" stroke-linejoin="round"/>
<path d="M233.462 62.78V108.76H250.834H277.836" stroke="#313553" stroke-width="0.772" stroke-linecap="round" stroke-linejoin="round"/>
<path d="M277.836 124.782H265.528V189.06" stroke="#313553" stroke-width="0.772" stroke-linecap="round" stroke-linejoin="round"/>
<path d="M277.836 140.802H273.002V189.06" stroke="#313553" stroke-width="0.772" stroke-linecap="round" stroke-linejoin="round"/>
<path d="M277.836 76.716H250.834V108.76V182.79" stroke="#313553" stroke-width="0.772" stroke-linecap="round" stroke-linejoin="round"/>
<path d="M45.558 121.748C56.8544 121.748 66.012 112.591 66.012 101.294C66.012 89.9976 56.8544 80.84 45.558 80.84C34.2616 80.84 25.104 89.9976 25.104 101.294C25.104 112.591 34.2616 121.748 45.558 121.748Z" stroke="#313553" stroke-width="0.772" stroke-linecap="round" stroke-linejoin="round"/>
<path d="M25.644 133.76H63.07" stroke="#313553" stroke-width="0.772" stroke-linecap="round" stroke-linejoin="round"/>
<path d="M25.644 145.776H63.07" stroke="#313553" stroke-width="0.772" stroke-linecap="round" stroke-linejoin="round"/>
<path d="M25.644 157.79H63.07" stroke="#313553" stroke-width="0.772" stroke-linecap="round" stroke-linejoin="round"/>
<path d="M94.8278 262.196H57.9658V278.842H94.8278V262.196Z" stroke="#313553" stroke-width="0.772" stroke-linecap="round" stroke-linejoin="round"/>
<path d="M94.8278 286.224H57.9658V302.87H94.8278V286.224Z" stroke="#313553" stroke-width="0.772" stroke-linecap="round" stroke-linejoin="round"/>
<path d="M94.8278 310.252H57.9658V356.232H94.8278V310.252Z" stroke="#313553" stroke-width="0.772" stroke-linecap="round" stroke-linejoin="round"/>
<path d="M336.67 89.2C336.67 91.3284 336.04 93.409 334.858 95.179C333.676 96.9488 331.996 98.3286 330.03 99.1436C328.064 99.9588 325.902 100.173 323.814 99.758C321.726 99.3434 319.808 98.3192 318.304 96.8146C316.798 95.3102 315.772 93.3932 315.358 91.306C314.942 89.2188 315.154 87.0552 315.968 85.0888C316.782 83.1224 318.16 81.4414 319.93 80.2588C321.7 79.076 323.78 78.4444 325.908 78.444C328.762 78.4436 331.498 79.5764 333.516 81.5934C335.534 83.6106 336.668 86.3468 336.67 89.2Z" stroke="#313553" stroke-width="0.772" stroke-linecap="round" stroke-linejoin="round"/>
<path d="M310.75 110.844H341.072" stroke="#313553" stroke-width="0.772" stroke-linecap="round" stroke-linejoin="round"/>
<path d="M310.75 118.852H341.072" stroke="#313553" stroke-width="0.772" stroke-linecap="round" stroke-linejoin="round"/>
<path d="M336.67 139.66C336.67 141.788 336.038 143.868 334.854 145.637C333.672 147.406 331.992 148.784 330.026 149.598C328.06 150.412 325.896 150.624 323.81 150.209C321.722 149.793 319.806 148.769 318.3 147.264C316.796 145.759 315.772 143.842 315.356 141.755C314.942 139.668 315.154 137.505 315.968 135.539C316.782 133.573 318.162 131.892 319.93 130.71C321.7 129.528 323.78 128.896 325.908 128.896C327.322 128.896 328.722 129.174 330.028 129.715C331.334 130.256 332.52 131.049 333.52 132.048C334.518 133.048 335.312 134.235 335.852 135.541C336.392 136.847 336.67 138.246 336.67 139.66Z" stroke="#313553" stroke-width="0.772" stroke-linecap="round" stroke-linejoin="round"/>
<path d="M310.75 161.302H341.072" stroke="#313553" stroke-width="0.772" stroke-linecap="round" stroke-linejoin="round"/>
<path d="M310.75 169.318H341.072" stroke="#313553" stroke-width="0.772" stroke-linecap="round" stroke-linejoin="round"/>
<path d="M127.866 296.448H205.556" stroke="#313553" stroke-width="0.772" stroke-linecap="round" stroke-linejoin="round"/>
</svg>
