<svg width="400" height="400" viewBox="0 0 400 400" fill="none" xmlns="http://www.w3.org/2000/svg">
<path d="M262.4 192.666C260.357 193.882 258.229 194.952 256.034 195.866C236.486 204.188 209.752 202.688 189.922 197.728C183.65 228.376 202.198 355.376 202.198 355.376C219.272 359.712 230.552 355.088 230.552 355.088L227.092 231.812C228.834 258.724 239.826 338.964 239.826 338.964C252.274 347.65 265.286 338.1 265.286 338.1C269.786 288.2 262.758 197.256 262.4 192.666Z" fill="#59679C"/>
<path d="M75.1577 334.29C74.6712 334.638 74.0713 334.79 73.4777 334.716C73.6517 339.716 74.8137 346.472 77.4277 350.554C78.3037 351.922 80.2277 354.41 78.4137 355.84L78.3637 355.876C78.3205 354.523 77.9053 353.208 77.1637 352.076C77.1067 351.98 77.0313 351.895 76.9417 351.828C76.8522 351.761 76.7503 351.712 76.6418 351.684C76.5334 351.656 76.4205 351.65 76.3096 351.666C76.1987 351.682 76.0921 351.719 75.9957 351.776C75.8993 351.833 75.8151 351.908 75.7478 351.998C75.6806 352.087 75.6316 352.189 75.6038 352.298C75.5759 352.406 75.5697 352.519 75.5855 352.63C75.6012 352.741 75.6387 352.848 75.6957 352.944C76.4302 353.978 76.7798 355.236 76.6837 356.5C76.3031 356.534 75.9203 356.534 75.5397 356.5C75.5188 354.942 75.2853 353.395 74.8457 351.9C74.7787 351.69 74.6331 351.515 74.4393 351.41C74.2455 351.306 74.0188 351.281 73.8068 351.34C73.5948 351.399 73.4141 351.539 73.3027 351.728C73.1913 351.918 73.158 352.144 73.2097 352.358C73.578 353.572 73.7924 354.828 73.8477 356.096C67.4797 353.77 66.1557 345.296 64.9557 338.47C64.0654 333.314 63.4731 328.11 63.1817 322.886C62.6355 323.107 62.0781 323.299 61.5117 323.462C61.9297 330.444 63.6157 346.436 67.2637 352.49C72.5297 361.182 81.7577 358.786 80.7657 353.476C80.0797 349.736 75.4877 348 75.1577 334.29ZM51.8537 368.82L52.3937 364.964C52.4541 364.747 52.4261 364.515 52.3156 364.32C52.2051 364.124 52.0214 363.979 51.8047 363.919C51.588 363.859 51.3562 363.887 51.1602 363.997C50.9642 364.108 50.8201 364.291 50.7597 364.508L50.1117 369.086C48.8407 369.25 47.5578 369.302 46.2777 369.242C45.8077 365.324 48.2497 364.294 46.8917 363.476C46.6964 363.365 46.4656 363.334 46.248 363.39C46.0305 363.446 45.8432 363.585 45.7257 363.776C44.831 365.373 44.4373 367.202 44.5957 369.026C43.3912 368.828 42.2205 368.461 41.1177 367.938C41.1417 367.844 41.1457 367.906 41.1717 367.83C42.2897 364.25 45.0297 360.598 49.1717 360.742C53.0597 360.882 56.0397 364.1 58.4457 367.108C56.2807 367.797 54.0802 368.368 51.8537 368.82Z" fill="#FE744F"/>
<path d="M72.2158 256.2C75.9178 248.738 84.0618 231.848 86.2718 223.438C86.6865 221.083 86.6238 218.669 86.0875 216.339C85.5512 214.009 84.5522 211.81 83.1498 209.874C75.6998 212.59 71.2258 210.92 68.8578 209.202C54.3898 222.736 51.4998 216.854 43.8938 223.288C44.0503 223.213 44.2105 223.147 44.3738 223.088C45.4198 222.726 45.8638 224.374 44.8318 224.722C42.8891 225.494 41.1472 226.698 39.7378 228.242C38.3813 230.422 37.3581 232.793 36.7018 235.276C35.852 238.419 35.452 241.667 35.5138 244.922C35.5258 245.298 35.8878 247.294 36.2178 249.148C41.2318 247.656 43.9178 241.64 45.6598 236.736C46.4239 234.806 46.7918 232.743 46.7418 230.668C46.6698 229.574 48.3738 229.588 48.4358 230.668C48.6938 235.038 44.5478 248.778 36.4978 250.852L36.9678 253.512C33.0538 257.069 29.9627 261.438 27.9098 266.312C18.9098 258.142 13.6358 235.42 23.8958 216.382C23.9899 216.204 24.0183 215.998 23.9759 215.802C23.9335 215.605 23.823 215.429 23.6639 215.306C23.5049 215.182 23.3074 215.119 23.1062 215.126C22.9049 215.134 22.7129 215.213 22.5638 215.348C15.1018 221.148 11.7018 230.548 10.5238 239.63C8.49977 255.126 12.1118 271.474 25.0978 279.574C24.8858 285.94 25.5118 292.307 26.9598 298.51C26.2138 315.31 35.5038 332.278 34.3838 348.728C34.3118 350.07 34.3098 350.102 33.1218 350.674C31.6257 351.404 30.362 352.536 29.4714 353.942C28.5808 355.349 28.0983 356.975 28.0778 358.64C28.4778 361.408 34.7918 361.92 37.4238 360.984C44.4938 358.464 45.2238 349.206 45.7678 341.722C45.3516 339.957 44.8962 338.202 44.4018 336.458C44.2872 338.571 44.1539 340.683 44.0018 342.794C43.5238 348.952 42.8658 357.162 37.0018 359.3C37.0018 356.238 38.8638 355.476 37.6138 354.796C37.4178 354.689 37.1885 354.66 36.972 354.715C36.7556 354.771 36.5683 354.906 36.4478 355.094C35.5195 356.436 35.1376 358.081 35.3798 359.694C34.5053 359.819 33.6161 359.794 32.7498 359.622C32.6943 359.564 32.6334 359.512 32.5678 359.466C32.6123 357.904 33.1182 356.391 34.0218 355.116C34.1363 354.922 34.169 354.69 34.1125 354.471C34.0561 354.253 33.9152 354.066 33.7208 353.951C33.5264 353.836 33.2944 353.804 33.0759 353.86C32.8575 353.917 32.6703 354.058 32.5558 354.252C31.5502 355.69 30.9638 357.378 30.8618 359.13C29.7298 358.752 29.7158 358.476 29.8518 357.712C30.0429 356.624 30.4674 355.59 31.0961 354.682C31.7248 353.773 32.5428 353.012 33.4938 352.45C35.2098 351.45 35.9278 351.474 36.1238 348.99C37.2078 334.39 30.0098 319.224 28.8458 304.454C30.8135 310.039 34.2784 314.975 38.8618 318.724C38.0618 316.42 37.2778 314.284 36.6618 312.912C36.2158 311.928 37.6818 311.062 38.1278 312.06C39.8158 315.646 43.4518 327.26 44.5798 331.1C48.1458 343.386 50.0898 349.674 47.7018 359.202C52.3758 358.632 55.7818 361.552 58.8158 365.064C60.0801 347.377 60.1843 329.626 59.1278 311.926C59.0578 310.84 60.7598 310.846 60.8338 311.926C61.0018 314.594 61.2658 321.19 61.2898 321.814C62.5681 321.444 63.7891 320.899 64.9178 320.194C64.9792 320.157 65.047 320.132 65.1178 320.12C63.0338 312.474 62.2338 298.222 69.6598 295.444C70.7347 294.995 71.9217 294.886 73.0602 295.133C74.1987 295.381 75.2339 295.971 76.0258 296.826C76.7118 297.666 75.5118 298.882 74.8258 298.026C74.0518 297.232 73.0037 296.764 71.8958 296.717C70.7879 296.67 69.704 297.048 68.8658 297.774C66.9198 299.693 65.7814 302.284 65.6838 305.016C64.7057 312.852 66.2318 320.796 70.0438 327.712C71.0202 329.482 72.1456 331.165 73.4078 332.744C74.0938 333.448 74.7478 332.72 75.5578 331.714C73.7572 330.384 72.4208 328.522 71.7378 326.39C71.677 326.173 71.7049 325.941 71.8151 325.745C71.9254 325.549 72.1091 325.405 72.3258 325.344C72.5424 325.283 72.7744 325.311 72.9705 325.421C73.1667 325.532 73.311 325.715 73.3718 325.932C73.4558 326.172 73.5398 326.426 73.6358 326.666C74.2686 328.12 75.2661 329.386 76.5318 330.342C77.0364 329.578 77.4939 328.784 77.9018 327.964C76.3679 326.787 75.1343 325.263 74.3018 323.518C73.7738 322.39 75.3338 321.734 75.7678 322.654C76.4118 324.012 78.1038 326.308 78.6158 326.308C79.6792 323.778 79.7393 320.937 78.7838 318.364C77.8298 315.964 74.0138 310.848 75.6958 302.386C75.8958 301.318 77.5458 301.774 77.3298 302.842C77.1076 303.979 76.993 305.134 76.9878 306.292C78.0392 303.871 78.737 301.312 79.0598 298.692C79.5778 291.002 77.8098 271.732 72.5738 262.806L72.5478 262.854C72.5478 262.854 59.6698 269.028 36.3738 262.23C36.3738 262.23 36.0878 257.014 37.9598 254.998C37.9518 254.972 55.6258 263.152 72.2158 256.2ZM77.5818 225.642C77.5818 225.642 76.2298 233.554 72.7578 233.554C69.2858 233.554 68.3178 224.106 68.3178 224.106C69.647 225.042 71.1705 225.666 72.7746 225.931C74.3786 226.197 76.0219 226.096 77.5818 225.638V225.642ZM58.4858 221.2C58.9062 221.2 59.317 221.325 59.6664 221.559C60.0157 221.793 60.2879 222.125 60.4485 222.514C60.6091 222.902 60.6509 223.33 60.5687 223.742C60.4864 224.154 60.2838 224.533 59.9864 224.83C59.689 225.127 59.3101 225.329 58.8978 225.411C58.4854 225.493 58.0581 225.451 57.6697 225.29C57.2814 225.129 56.9494 224.856 56.7159 224.507C56.4824 224.157 56.3578 223.746 56.3578 223.326C56.3572 223.046 56.4119 222.77 56.5187 222.511C56.6255 222.253 56.7823 222.018 56.98 221.821C57.1777 221.623 57.4125 221.467 57.6709 221.36C57.9294 221.254 58.2063 221.199 58.4858 221.2ZM25.1998 277.618C16.5998 271.786 10.1498 259.818 12.0098 241.456C12.8098 233.528 15.2098 225.504 20.5038 219.602C12.3398 238.964 17.9998 259.952 27.2478 267.946C26.1091 271.056 25.4195 274.313 25.1998 277.618ZM37.7418 265.23C33.1533 276.874 32.3239 289.661 35.3698 301.8C35.6338 302.856 33.9998 303.312 33.7358 302.256C30.6032 289.82 31.4304 276.716 36.1018 264.772C36.4998 263.772 38.1318 264.222 37.7358 265.23H37.7418Z" fill="#FE744F"/>
<path d="M170.07 179.446C150.627 183.894 130.441 183.98 110.962 179.698C104.234 197.346 90.2977 250.118 114.818 344.378C114.818 344.378 117.858 350.458 137.818 346.12L140.666 217.164L142.408 217.068L153.008 346.794C160.786 349.842 169.387 350.063 177.312 347.418C177.312 347.418 193.69 227.442 170.07 179.446ZM114.014 203.298C111.942 204.907 109.469 205.917 106.864 206.218C106.646 206.207 106.441 206.114 106.291 205.956C106.141 205.798 106.057 205.589 106.057 205.371C106.057 205.153 106.141 204.944 106.291 204.786C106.441 204.628 106.646 204.535 106.864 204.524C108.058 204.475 109.222 204.131 110.252 203.524C113.159 202.236 115.665 200.19 117.51 197.6C119.676 194.387 120.527 190.466 119.888 186.644C119.688 185.574 121.336 185.124 121.528 186.194C122.119 189.469 121.72 192.846 120.382 195.893C119.043 198.94 116.826 201.518 114.014 203.298ZM172.63 205.204C168.658 203.014 165.512 199.584 163.672 195.438C161.833 191.292 161.401 186.658 162.442 182.244C162.694 181.176 164.328 181.632 164.076 182.7C163.095 186.753 163.485 191.016 165.186 194.823C166.887 198.63 169.802 201.765 173.476 203.738C174.444 204.254 173.588 205.724 172.63 205.2V205.204ZM72.1077 256.2C55.5197 263.162 37.8437 254.974 37.8437 254.974C35.9577 257.006 36.2577 262.208 36.2577 262.208C59.5537 269.008 72.4317 262.832 72.4317 262.832C73.0281 261.81 73.3303 260.643 73.3049 259.46C73.2794 258.277 72.9274 257.124 72.2877 256.128C72.2157 256.148 72.1677 256.172 72.1077 256.2Z" fill="#FFD35C"/>
<path d="M341.486 212.85C316.976 225.97 287.686 217.018 281.512 214.88C281.152 230.114 280.334 285.414 286.258 328.16C287.46 328.709 288.713 329.138 290 329.44C296.075 330.966 302.504 330.094 307.954 327.006L312 241.936L315.184 243.378L314.032 345.81C314.032 345.81 326.19 350.434 337.182 345.232C340.512 309.302 343.434 250 341.486 212.85Z" fill="#B2EACD"/>
<path d="M360.54 186.8C360.216 186.03 358.712 182.462 358.604 182.2C358.176 181.2 355.992 182.11 373.888 172.386C374.812 174.512 375.688 176.674 376.488 178.848C371.427 181.983 366.089 184.645 360.54 186.8Z" fill="#76D3DE"/>
<path d="M348.6 131.63C347.922 133.674 346.13 136.888 344.012 136.448C341.94 136.004 341.712 132.712 342.234 130.488C341.26 132.95 339.112 133.372 338.006 132.446C336.528 131.18 337.174 127.518 337.898 125.67C337.342 126.743 336.568 127.689 335.626 128.446C335.146 128.812 334.565 129.023 333.962 129.049C333.358 129.074 332.761 128.914 332.252 128.59C330.416 127.156 331.204 122.852 332.082 120.686C331.023 121.118 329.857 121.21 328.744 120.95C328.372 120.875 328.027 120.7 327.748 120.443C327.469 120.187 327.265 119.858 327.16 119.494C327.054 119.129 327.05 118.743 327.149 118.376C327.248 118.01 327.445 117.678 327.72 117.416C324.337 116.118 320.804 115.254 317.204 114.846C317.297 114.943 317.363 115.063 317.395 115.193C317.427 115.324 317.423 115.461 317.384 115.59C314.918 124.528 302.814 128.894 299.658 116.678C299.641 116.595 299.636 116.51 299.644 116.426C296.535 117.754 293.629 119.515 291.014 121.658C284.4 125.8 275.476 132 265.376 139.906C265.392 142.23 265.164 153.154 264.92 163.868L275.63 157.298C275.471 157.252 275.33 157.161 275.222 157.035C275.115 156.91 275.046 156.756 275.025 156.592C275.004 156.429 275.031 156.262 275.103 156.114C275.174 155.965 275.288 155.841 275.43 155.756C277.85 154.584 280.194 153.26 282.448 151.792C282.655 151.725 282.878 151.723 283.087 151.785C283.296 151.847 283.481 151.971 283.618 152.14C284.088 152.8 283.492 158.578 283.418 159.312C283.414 159.527 283.33 159.732 283.182 159.888C283.034 160.044 282.832 160.138 282.618 160.152C282.048 177.188 280.336 197.45 280.336 214.472C298.554 221.592 324.558 222.554 342.842 212.164L341.882 153.908C341.882 153.908 351.252 169.49 356.85 180.544C357.91 179.018 373.332 170.73 373.97 170.41C369.538 160.498 361 144.1 348.6 131.63Z" fill="#76D3DE"/>
<path d="M162.466 111.386C158.111 108.996 153.374 107.38 148.466 106.61C148.496 107.651 148.29 108.685 147.862 109.634C147.434 110.583 146.797 111.423 145.997 112.09C145.198 112.757 144.258 113.234 143.247 113.484C142.236 113.735 141.182 113.752 140.164 113.536C135.33 113.486 132.176 111.56 131.526 106.808C128.177 107.351 124.896 108.254 121.74 109.5C121.57 110.842 120.152 112.02 117.584 111.386C117.354 111.506 117.138 111.608 116.91 111.728C117.628 113.792 118.272 117.69 116.538 119.046C116.029 119.372 115.431 119.534 114.827 119.508C114.223 119.482 113.641 119.271 113.162 118.902C112.216 118.149 111.442 117.202 110.892 116.126C111.592 117.926 112.274 121.674 110.784 122.902C109.732 123.796 107.564 123.502 106.554 120.944C107.8 126 104.414 129.4 101.5 124.74C97.5068 129.711 93.8296 134.927 90.4897 140.358C108.59 147.568 107.422 146.958 107.664 147.452L109.04 148.034L112.68 141.716C114.174 154.319 111.993 167.086 106.4 178.478C122.412 183.638 149.214 184.878 174.122 178.478C174.122 178.478 166.322 164.554 168.248 140.538L172.296 144.37C172.678 144.058 172.626 144.158 172.586 143.95C172.404 143.32 171.92 144.064 182.748 133.594C182.862 133.484 183.004 133.407 183.159 133.372C183.314 133.337 183.475 133.344 183.626 133.394C183.945 132.95 184.218 132.475 184.442 131.976C178.854 123.466 171.321 116.408 162.466 111.386Z" fill="#FCAFB7"/>
<path d="M387.288 212.97C385.908 212.9 385.288 211.252 384.826 210.17C384.741 210.027 384.616 209.913 384.467 209.84C384.317 209.768 384.15 209.74 383.985 209.762C383.821 209.783 383.666 209.852 383.54 209.96C383.414 210.068 383.322 210.21 383.276 210.37C382.81 213.076 385.032 215.484 383.564 217.026C382.164 218.492 380.38 212.534 380.176 211.716C379.902 210.648 378.352 211.104 378.542 212.174C378.84 213.794 378.832 215.456 378.518 217.074C378.166 218.874 377.902 220.02 376.752 218.074C375.523 215.09 374.871 211.901 374.83 208.674C374.819 208.456 374.726 208.251 374.568 208.101C374.41 207.951 374.201 207.867 373.983 207.867C373.765 207.867 373.556 207.951 373.398 208.101C373.24 208.251 373.147 208.456 373.136 208.674C372.936 212.232 370.282 214.942 369.508 214.646C368.734 214.35 368.74 212.796 368.74 212.16C368.77 208.618 370.686 204.67 370.06 200.41C369.3 195.042 367.15 191.494 365.184 186.69C368.616 185.229 371.956 183.56 375.184 181.69C380.764 191.85 381.834 199.89 387.368 209.874C387.8 210.652 389.212 213.068 387.288 212.97ZM325.422 80.3719C324.659 75.8584 323.61 71.3981 322.28 67.0179C312.73 77.0019 306.08 72.6639 300.728 74.5399C295.376 76.4159 299.142 85.9639 299.142 85.9639C293.178 84.0999 287.71 84.4139 287.71 90.6079C287.71 93.3699 292.672 93.8879 295.432 93.9479C295.088 92.7879 293.656 93.1119 293.922 91.9479C294.304 90.2759 297.964 92.3819 297.096 95.2179L299.582 105.5C299.475 108.917 299.843 112.333 300.674 115.65C300.69 115.712 301.144 115.738 301.274 116.25C302.396 120.512 305 123.488 309.036 122.25C310.65 121.692 312.104 120.751 313.274 119.508C314.444 118.265 315.296 116.756 315.756 115.112C316.316 111.674 316.23 108.162 315.5 104.756C316.588 105.736 322.562 102.39 323.044 102.03C328.6 97.9119 326.37 86.1399 325.422 80.3719ZM295.928 90.5479C295.216 89.7968 294.319 89.2451 293.328 88.9479C293.116 88.8799 292.938 88.7343 292.829 88.5404C292.72 88.3464 292.688 88.1183 292.74 87.9019C292.805 87.6887 292.949 87.5086 293.143 87.3991C293.337 87.2896 293.566 87.2591 293.782 87.3139C295.046 87.7049 296.193 88.4023 297.122 89.3439C297.906 90.1799 296.692 91.3459 295.928 90.5479ZM307.966 83.6339C307.538 84.7699 305.966 84.1439 306.334 83.1779C306.655 82.198 307.24 81.3252 308.023 80.655C308.807 79.9848 309.76 79.543 310.778 79.3779C310.991 79.328 311.215 79.3622 311.403 79.4735C311.592 79.5849 311.73 79.7646 311.788 79.9753C311.847 80.186 311.822 80.4113 311.719 80.6041C311.616 80.7969 311.442 80.9423 311.234 81.0099C309.418 81.5999 308.65 81.9279 307.966 83.6339ZM310.676 84.4919C311.6 84.7819 312.514 85.082 313.438 85.382C313.654 85.445 313.837 85.5891 313.949 85.7841C314.06 85.9791 314.092 86.2099 314.038 86.4279C313.976 86.6441 313.832 86.8272 313.636 86.9373C313.44 87.0474 313.209 87.0757 312.992 87.0159C312.068 86.7259 311.154 86.4279 310.23 86.1279C310.027 86.0568 309.859 85.9114 309.759 85.7211C309.659 85.5308 309.635 85.3097 309.691 85.1023C309.748 84.8949 309.881 84.7166 310.063 84.6033C310.246 84.4901 310.465 84.4503 310.676 84.4919ZM320.112 97.3239C319.373 97.6995 318.563 97.9148 317.736 97.9558C316.908 97.9969 316.081 97.8628 315.309 97.5622C314.536 97.2617 313.836 96.8015 313.254 96.2118C312.672 95.622 312.221 94.916 311.93 94.1399C311.815 93.9455 311.783 93.7136 311.839 93.4951C311.896 93.2766 312.037 93.0895 312.231 92.9749C312.425 92.8604 312.657 92.8277 312.876 92.8842C313.094 92.9406 313.281 93.0815 313.396 93.2759C313.574 93.8556 313.875 94.3899 314.279 94.8424C314.683 95.2949 315.179 95.6548 315.735 95.8977C316.291 96.1406 316.892 96.2606 317.498 96.2496C318.105 96.2386 318.702 96.0968 319.248 95.8339C319.445 95.7309 319.674 95.7079 319.887 95.7696C320.101 95.8314 320.282 95.9731 320.393 96.1653C320.505 96.3575 320.538 96.5852 320.485 96.8011C320.433 97.017 320.299 97.2043 320.112 97.3239ZM320.582 75.5239C322.328 74.0559 325.008 75.1939 324.33 76.4719C323.996 77.0999 322.946 76.8859 321.182 76.9759C321.016 76.9726 320.855 76.9211 320.718 76.8276C320.581 76.7342 320.474 76.6029 320.411 76.4498C320.347 76.2967 320.329 76.1284 320.36 75.9654C320.39 75.8024 320.467 75.6518 320.582 75.5319V75.5239ZM325.338 81.2119C325.122 81.8239 324.906 82.4239 324.69 83.0259C324.627 83.2436 324.48 83.4275 324.282 83.5376C324.084 83.6477 323.85 83.6751 323.632 83.6139C323.417 83.5471 323.235 83.3999 323.126 83.2028C323.016 83.0058 322.987 82.7741 323.044 82.5559C323.26 81.9439 323.468 81.3399 323.692 80.7419C323.755 80.5237 323.903 80.3395 324.102 80.23C324.301 80.1205 324.536 80.0946 324.754 80.1579C324.972 80.2213 325.156 80.3688 325.266 80.568C325.375 80.7672 325.401 81.0017 325.338 81.2199V81.2119Z" fill="#FFCEB6"/>
<path d="M116.764 354.854C121.895 359.402 126.483 364.528 130.436 370.13C130.436 370.13 135.436 363.182 134.1 356.814C134.1 356.814 125.51 350.734 116.764 354.854Z" fill="#97A0B2"/>
<path d="M183.328 135.4C183.128 135.6 177.308 141.2 174.618 143.81L184.11 153.626C184.22 147.924 184.476 141.984 184.77 136.914L183.328 135.4ZM140.546 111.848C135.018 111.884 132.116 109.816 133.458 100.964C135.469 101.92 137.657 102.446 139.883 102.508C142.109 102.57 144.323 102.167 146.384 101.324C147.486 107.612 146.982 111.782 140.546 111.848Z" fill="#FFCEB6"/>
<path d="M154.524 86.2C153.876 86.116 153.612 86.764 153.756 87.28C153.042 90.1951 151.972 93.0115 150.572 95.666C148.922 97.9566 146.553 99.6293 143.842 100.418C141.132 101.206 138.235 101.065 135.614 100.016C126.29 96.828 127.792 88.336 127.24 85.55C127.202 85.409 127.128 85.2805 127.025 85.1773C126.921 85.0741 126.793 84.9998 126.652 84.962C124.116 84.3 121.27 82.066 121.15 79.242C121.122 78.5115 121.304 77.7883 121.674 77.1581C122.045 76.5278 122.588 76.017 123.24 75.686C124.706 75.062 125.858 77.14 126.412 78.174C126.499 78.3142 126.624 78.4265 126.773 78.4973C126.922 78.5682 127.088 78.5947 127.251 78.5736C127.415 78.5525 127.569 78.4847 127.695 78.3784C127.821 78.272 127.914 78.1316 127.962 77.974C128.315 75.8003 128.783 73.6467 129.362 71.522C134.65 71.642 140.656 70.548 144.464 66.656C144.682 68.5118 145.266 70.3059 146.181 71.9346C147.097 73.5632 148.327 74.9939 149.8 76.144C149.255 75.768 148.622 75.5399 147.962 75.482C147.737 75.4851 147.521 75.5762 147.362 75.7357C147.203 75.8952 147.113 76.1107 147.11 76.336C147.182 77.638 149 76.846 149.692 78.51C150.292 79.66 152.72 78.408 149.968 76.276C151.284 77.3669 152.744 78.272 154.306 78.966C154.258 79.566 154.222 80.166 154.174 80.744C154.114 81.562 155.11 81.766 155.628 81.344C156.639 80.46 157.804 79.7679 159.064 79.302C160.524 78.838 161.23 79.15 161.646 80.622C162.706 84.83 157.898 86.628 154.524 86.2ZM73.8859 194.89C70.8942 197.771 67.2633 199.903 63.2898 201.112C59.3164 202.321 55.1132 202.572 51.0239 201.846C47.5899 201.312 49.3599 200.604 50.9999 200.524C51.5893 200.521 52.174 200.42 52.7299 200.224C52.8864 200.174 53.0254 200.081 53.1306 199.955C53.2359 199.829 53.3029 199.676 53.3239 199.513C53.3449 199.35 53.319 199.185 53.2492 199.036C53.1794 198.887 53.0687 198.762 52.9299 198.674C51.2439 197.544 48.3719 197.93 48.1479 196.186C48.0399 195.286 49.9619 195.61 50.4799 195.61C51.8479 195.61 53.2059 195.598 54.5759 195.598C54.7784 195.593 54.9723 195.515 55.1231 195.38C55.2739 195.245 55.3718 195.061 55.3992 194.86C55.4266 194.659 55.3817 194.455 55.2727 194.285C55.1637 194.114 54.9975 193.988 54.8039 193.928C53.244 193.309 51.835 192.362 50.6719 191.152C50.3599 190.828 49.4339 190.096 50.1179 189.784C54.5704 189.4 59.0419 190.261 63.0339 192.27C63.8339 192.654 64.8719 191.586 64.0679 190.936C60.6839 188.216 59.6439 184.66 63.2499 186.166C66.2932 187.713 69.1178 189.656 71.6499 191.946C72.4659 192.678 73.6679 191.478 72.8499 190.746C70.519 188.677 67.9871 186.846 65.2919 185.28C93.0279 141.696 92.2919 143.08 92.3359 143.002C96.4919 144.636 105.36 148.132 105.648 148.24C87.5379 176.532 82.4519 187.362 73.8859 194.89Z" fill="#FFCEB6"/>
<path d="M329.256 59.9119C329.436 58.5119 328.328 56.874 326.96 57.138C326.36 57.26 326.36 57.3499 321.11 60.8019C322.053 59.3154 322.572 57.5998 322.612 55.84C322.492 54.086 321.012 52.32 319.272 52.56C315.992 53.016 313.726 60.528 303.088 63.986C297.596 65.776 287.874 66.2559 288.312 77.0319C288.552 79.968 289.251 82.8483 290.384 85.568C292.126 84.728 294.866 84.632 299.142 85.968C299.142 85.968 295.382 76.4179 300.728 74.5439C306.074 72.6699 312.742 77.006 322.28 67.022C322.546 67.876 322.786 68.728 323.026 69.594C324.703 67.7765 326.145 65.7561 327.32 63.58C328.252 62.5321 328.917 61.2733 329.256 59.9119Z" fill="#C17E48"/>
<path d="M275.036 129.678L276.388 131.606C285.94 124.704 288.884 123.186 292.366 120.606L288.84 115.686C283.755 119.847 279.127 124.537 275.036 129.678ZM165.2 108.426L162.474 111.386C168.624 114.819 174.135 119.29 178.762 124.6L179.274 124C173.74 119.637 168.982 114.372 165.2 108.426ZM120.5 107.416C119.38 106.698 116.224 107.092 114.9 107.176L114.5 107.2C112.213 106.506 109.767 106.537 107.498 107.287C105.229 108.038 103.248 109.472 101.826 111.394C100.404 113.315 99.6109 115.629 99.5558 118.018C99.5007 120.407 100.186 122.755 101.518 124.74C104.348 129.268 107.818 126.284 106.576 120.94C107.554 123.408 109.704 123.818 110.806 122.898C112.282 121.632 111.636 117.968 110.914 116.122C111.468 117.196 112.242 118.141 113.184 118.898C113.665 119.264 114.246 119.474 114.849 119.499C115.453 119.525 116.05 119.366 116.56 119.042C118.42 117.59 117.57 113.368 116.734 111.136C117.792 111.562 118.955 111.656 120.068 111.406C120.503 111.314 120.898 111.086 121.196 110.756C121.494 110.426 121.681 110.01 121.729 109.567C121.777 109.125 121.684 108.679 121.463 108.293C121.242 107.906 120.905 107.599 120.5 107.416ZM240.778 56.758C239.959 56.7289 239.144 56.8844 238.394 57.2129C237.643 57.5415 236.976 58.0347 236.442 58.656C236.188 56.6251 235.9 54.5988 235.576 52.578C234.734 47.4 229.886 44.978 224.656 44.6C220.352 44.0718 215.989 44.2999 211.764 45.274C209.052 45.7034 206.555 47.0068 204.652 48.986C202.106 52.06 202.406 56.506 202.814 60.482C202.994 62.14 203.692 68.622 203.86 70.22C214.204 80.48 226.734 75.42 236.994 65.15L237.042 65.102C237.078 65.102 237.102 65.09 237.126 65.09C245.058 64.138 245.058 56.758 240.778 56.758ZM347.2 121.232C345.768 119.258 343.766 117.771 341.463 116.97C339.16 116.168 336.668 116.092 334.32 116.75C330.352 116.518 329.016 116.212 327.72 117.416C327.446 117.678 327.249 118.01 327.151 118.377C327.053 118.743 327.056 119.129 327.162 119.493C327.267 119.857 327.471 120.186 327.749 120.442C328.028 120.699 328.372 120.875 328.744 120.95C329.857 121.21 331.023 121.118 332.082 120.686C331.21 122.848 330.414 127.158 332.252 128.59C332.76 128.917 333.358 129.079 333.962 129.053C334.566 129.027 335.147 128.815 335.626 128.446C336.572 127.693 337.346 126.746 337.898 125.67C337.194 127.47 336.518 131.222 338.006 132.446C339.054 133.338 341.224 133.046 342.234 130.488C341.052 135.33 344.074 138.638 346.932 134.862C348.362 132.889 349.154 130.525 349.202 128.089C349.25 125.653 348.551 123.26 347.2 121.232Z" fill="#9B6868"/>
<path d="M204.652 48.986C206.555 47.0076 209.052 45.7044 211.764 45.274C217.43 43.966 226.582 43.728 231.624 46.692C232.674 47.323 233.572 48.1775 234.255 49.1947C234.938 50.2119 235.389 51.367 235.576 52.578C235.9 54.596 236.19 56.628 236.442 58.656C238.094 56.744 241.654 55.904 243.068 57.846C244.127 56.7404 244.783 55.3096 244.928 53.7851C245.073 52.2605 244.7 50.7317 243.868 49.446C243.458 49.0332 243.196 48.4968 243.122 47.92C243.152 47.184 245.322 43.146 242.882 38.994C242.181 37.7743 241.139 36.7865 239.884 36.1524C238.628 35.5183 237.215 35.2658 235.818 35.426C235.624 34.2291 235 33.144 234.064 32.374C232.062 30.1701 229.349 28.7412 226.4 28.338C224.93 28.1799 223.45 28.5188 222.196 29.3004C220.942 30.082 219.985 31.2612 219.48 32.65C214.12 27.308 205.062 29.172 203.116 32.926C202.86 33.3901 202.737 33.9158 202.761 34.4451C202.785 34.9745 202.955 35.4869 203.252 35.926C201.852 34.258 199.038 34.686 197.146 35.872C193.066 38.436 192.892 42.34 194.84 44.21C195.392 44.738 196.16 45.17 196.33 45.916C196.359 46.3177 196.262 46.7187 196.053 47.0631C195.844 47.4075 195.534 47.6783 195.164 47.838C194.454 48.212 193.638 48.354 192.918 48.704C192.365 49.031 191.887 49.4695 191.513 49.9914C191.14 50.5134 190.878 51.1074 190.747 51.7357C190.615 52.364 190.616 53.0128 190.748 53.6409C190.881 54.269 191.143 54.8626 191.518 55.384C192.358 56.3799 193.516 57.0544 194.797 57.2928C196.078 57.5313 197.402 57.319 198.544 56.692C197.68 57.4647 197.103 58.5068 196.907 59.6489C196.711 60.791 196.907 61.9659 197.463 62.9824C198.02 63.999 198.903 64.7975 199.971 65.248C201.039 65.6986 202.227 65.7747 203.344 65.464C202.638 58.946 201.492 52.8 204.652 48.986ZM237.042 65.102C226.778 75.364 214.242 80.522 203.86 70.22C204.618 77.282 204.646 77.54 204.718 79.098C204.866 82.454 205.03 86.986 207.636 88.626C211.196 90.87 220.352 90.804 224.648 89.936C229.18 89.022 235.124 86.668 237.156 82.162C237.631 81.0596 237.896 79.8779 237.936 78.678C237.982 77.65 237.32 65.102 237.042 65.102ZM230.62 78.27C230.541 79.3482 230.084 80.3641 229.331 81.1395C228.578 81.9148 227.575 82.4 226.5 82.51C225.074 82.8433 223.581 82.7306 222.221 82.1872C220.862 81.6439 219.703 80.696 218.9 79.472C221.113 79.6306 223.332 79.246 225.362 78.3516C227.393 77.4571 229.175 76.08 230.552 74.34C230.8 75.6363 230.823 76.9658 230.62 78.27Z" fill="#C17E48"/>
<path d="M290 329.44C288.104 332.126 284.086 345.594 288.036 354.698C290.236 359.768 295.676 362.532 299.508 357.318C301.538 354.554 301.308 351.202 301.508 347.946C302.476 332.726 302.818 331.528 301.966 329.446C298.036 330.419 293.928 330.417 290 329.44ZM249.448 345.136C245.964 347.81 245.448 352.726 246.048 353.786C240.526 355.878 239.188 361.266 242.204 362.712C243.546 363.354 250.586 363.112 251.936 363.072C264.88 362.714 266.228 362.872 266.172 356.562C266.032 345.102 255.896 340.2 249.448 345.136ZM254.636 361.282C251.776 361.415 248.916 361.467 246.058 361.438C244.194 361.406 243.026 361.526 242.574 360.85C242.406 360.463 242.34 360.039 242.382 359.619C242.424 359.199 242.573 358.796 242.814 358.45C243.508 357.455 244.402 356.615 245.438 355.984C246.474 355.352 247.631 354.944 248.834 354.784C251.935 354.373 255.084 354.524 258.132 355.23C258.314 355.262 258.501 355.236 258.667 355.157C258.834 355.078 258.972 354.948 259.061 354.787C259.151 354.626 259.188 354.441 259.168 354.258C259.148 354.074 259.071 353.902 258.948 353.764C259.545 353.747 260.141 353.841 260.704 354.04C260.92 354.096 261.15 354.066 261.344 353.956C261.539 353.847 261.684 353.666 261.748 353.452C262.302 351.486 256.874 351.922 254.36 353.052C252.132 352.795 249.877 352.893 247.68 353.34C247.548 352.205 247.675 351.054 248.049 349.975C248.424 348.895 249.037 347.914 249.844 347.104C254.572 342.482 263.024 345.49 264.344 354.458C265.362 361.9 263.284 360.85 254.636 361.282ZM241 285.98C247.034 287.501 253.346 287.543 259.4 286.1C260.47 285.848 260.018 284.202 258.95 284.464C253.192 285.844 247.185 285.804 241.446 284.346C241.233 284.3 241.011 284.337 240.825 284.449C240.639 284.562 240.504 284.741 240.447 284.951C240.389 285.161 240.415 285.385 240.518 285.576C240.621 285.768 240.793 285.912 241 285.98ZM224.566 58.844C224.745 58.928 224.94 58.9755 225.138 58.9837C225.336 58.9919 225.534 58.9608 225.72 58.892C226.576 58.754 227.454 58.86 228.252 59.1978C229.051 59.5356 229.738 60.0916 230.236 60.802C230.355 60.987 230.541 61.1186 230.756 61.1693C230.97 61.2199 231.196 61.1857 231.385 61.0737C231.575 60.9617 231.713 60.7807 231.773 60.5686C231.832 60.3565 231.806 60.1298 231.702 59.936C230.914 58.8269 229.82 57.9713 228.554 57.474C227.873 57.1723 227.13 57.0332 226.386 57.068C225.642 57.1027 224.916 57.3102 224.266 57.674C224.151 57.8691 224.118 58.1017 224.174 58.3209C224.23 58.5402 224.371 58.7283 224.566 58.844ZM206.22 64.022C206.586 63.87 208.266 60.766 211.518 60.766C211.743 60.7609 211.957 60.6693 212.116 60.5102C212.275 60.3512 212.367 60.1369 212.372 59.912C212.372 58.334 208.042 59.088 205.786 61.912C205.042 62.814 204.742 63.2 205.03 63.69C205.153 63.8814 205.342 64.021 205.562 64.0822C205.781 64.1434 206.015 64.122 206.22 64.022ZM211.17 67.566C211.157 67.2434 211.02 66.9383 210.787 66.7146C210.554 66.4909 210.244 66.366 209.921 66.366C209.598 66.366 209.288 66.4909 209.055 66.7146C208.822 66.9383 208.685 67.2434 208.672 67.566C208.685 67.8886 208.822 68.1937 209.055 68.4174C209.288 68.6411 209.598 68.766 209.921 68.766C210.244 68.766 210.554 68.6411 210.787 68.4174C211.02 68.1937 211.157 67.8886 211.17 67.566ZM226.02 63.222C225.688 63.222 225.37 63.3537 225.136 63.5881C224.902 63.8225 224.77 64.1405 224.77 64.472C224.77 64.8035 224.902 65.1215 225.136 65.3559C225.37 65.5903 225.688 65.722 226.02 65.722C226.351 65.722 226.669 65.5903 226.904 65.3559C227.138 65.1215 227.27 64.8035 227.27 64.472C227.27 64.1405 227.138 63.8225 226.904 63.5881C226.669 63.3537 226.351 63.222 226.02 63.222ZM220.77 70.544C221.387 70.3379 221.956 70.0064 222.439 69.5704C222.923 69.1343 223.311 68.6031 223.58 68.01C223.639 67.7925 223.61 67.5603 223.499 67.3643C223.387 67.1683 223.202 67.0247 222.985 66.965C222.767 66.9053 222.535 66.9345 222.339 67.0461C222.143 67.1577 221.999 67.3425 221.94 67.56C221.792 67.8813 221.549 68.1494 221.244 68.328C219.938 69.226 219.474 69.516 218.744 67.528C217.928 65.3278 217.435 63.0213 217.28 60.68C217.208 59.598 215.502 59.586 215.586 60.68C215.832 64.56 217.134 72 220.77 70.544ZM290.774 111.716C284.514 103.872 273.108 84.17 251.836 78.93C247.249 77.9358 242.595 77.2813 237.912 76.972C237.946 77.5362 237.946 78.1019 237.912 78.666C252.646 79.834 262.536 82.492 274.604 94.344C279.678 99.328 280.66 101.03 286.376 108.798C278.205 112.907 271.385 119.274 266.724 127.142C264.022 123.588 264.662 123.234 257.232 110.756C257.116 110.567 256.931 110.43 256.716 110.376C256.501 110.321 256.274 110.353 256.082 110.465C255.89 110.576 255.75 110.758 255.691 110.972C255.632 111.186 255.659 111.414 255.766 111.608C258.252 115.777 260.627 120.011 262.89 124.308C262.776 124.99 263.806 127.93 263.624 149.224C263.624 150.314 262.784 188.912 262.458 189.94C261.75 192.116 252.57 195.444 250.78 196.042C232.916 201.998 210.294 200.7 192.152 196.548C189.636 195.948 189.166 196.06 188.464 192.762C185.14 177.306 185.464 154.486 186.384 138.604C187.29 124.112 187.46 123.468 189.076 108.738C189.196 107.656 187.49 107.656 187.382 108.738C187.046 111.812 186.698 114.9 186.36 117.976C180.832 113.79 171.23 105.322 168.46 98.898C179.036 90.1811 191.455 83.9817 204.778 80.768C204.762 80.568 204.692 79.29 204.682 79.086C192.285 81.9761 180.638 87.4501 170.502 95.15C167.967 96.7163 165.787 98.7946 164.102 101.252C163.642 101.916 163.352 102.683 163.258 103.485C163.164 104.287 163.268 105.1 163.562 105.852C168.342 113.852 176.522 123.916 185.308 127.344C185.266 127.684 185.216 127.864 185.392 128.144C185.192 130.294 185.032 132.432 184.888 134.584C184.562 134.246 184.25 133.91 183.926 133.574C183.762 133.424 183.548 133.341 183.326 133.341C183.104 133.341 182.89 133.424 182.726 133.574C171.936 144.006 172.38 143.294 172.562 143.93C172.704 144.494 178.622 150.316 184.048 156.028C183.912 167.28 184.41 183.028 186.98 194.016C187.051 194.85 187.366 195.646 187.884 196.303C188.403 196.961 189.103 197.452 189.898 197.716C193.428 199.04 206.086 200.838 212.81 201.368C224.376 202.483 236.047 201.627 247.326 198.834C252.602 197.467 257.667 195.385 262.38 192.646C264.562 191.112 264.254 189.294 264.362 186.7C264.422 185.1 265.406 144.422 265.362 139.882C265.34 135.736 265.168 131.592 264.846 127.458C266.539 129.725 268.233 131.979 269.928 134.222C270.005 134.346 270.113 134.449 270.242 134.52C270.37 134.591 270.514 134.629 270.661 134.629C270.807 134.629 270.952 134.591 271.08 134.52C271.208 134.449 271.316 134.346 271.394 134.222C276.451 127.372 282.298 121.143 288.814 115.662C292.07 113.17 292.548 113.856 290.774 111.716ZM184.11 153.622C180.942 150.353 177.778 147.081 174.618 143.806C177.32 141.206 183.124 135.606 183.328 135.396L184.77 136.91C184.446 142.476 184.226 148.048 184.11 153.622ZM165.8 106.2C165 104.916 164.5 104.504 165.368 102.62C165.814 101.683 166.433 100.84 167.194 100.134C171.258 108.996 185.966 119.72 186.166 119.92C185.966 121.818 185.744 123.72 185.542 125.614C177.638 122.354 170.324 113.416 165.8 106.2ZM270.694 132.426C269.746 131.154 268.796 129.892 267.836 128.626C272.397 120.682 279.212 114.268 287.418 110.196C288.138 111.158 288.884 112.108 289.654 113.032C283.08 117.4 275.506 126.142 270.686 132.428L270.694 132.426Z" fill="#1D1D1B"/>
<path d="M194.316 111.164C193.916 111.052 192.916 111.462 192.932 112.164C193.244 122.926 192.362 132.028 198.916 136.9C204.48 141.052 213 138.022 215.516 126.868C216.516 122.468 217.368 116.15 215.974 111.868C215.915 111.7 215.807 111.553 215.662 111.449C215.518 111.344 215.344 111.287 215.166 111.284C214.988 111.281 214.813 111.333 214.665 111.433C214.517 111.533 214.404 111.675 214.34 111.842C198.2 111.722 197.4 112.02 194.316 111.164ZM209.658 134.664C208.48 135.868 206.933 136.644 205.263 136.868C203.593 137.092 201.896 136.751 200.442 135.9C194.086 131.946 195.116 121.798 194.83 119.466C201.486 120.536 208.264 120.608 214.942 119.682C214.432 125 213.368 131.278 209.658 134.664ZM214.63 113.482C214.956 114.965 215.091 116.483 215.03 118C208.304 118.937 201.475 118.852 194.774 117.748C194.726 116.162 194.69 114.564 194.644 112.978C197.694 113.459 200.785 113.628 203.87 113.482C211.464 113.534 214.386 113.588 214.63 113.482ZM106.324 351.42C98.226 355.66 110.566 369.356 116.164 370.906C120.891 372.094 125.866 371.823 130.436 370.13C126.02 363.8 113.158 347.842 106.324 351.42ZM163.042 352C154.164 353.538 148.962 364.736 148.962 364.736C158.606 366.428 168.476 366.36 178.096 364.536C178.096 364.536 171.908 350.46 163.042 352ZM224.674 360.778C213.538 355.946 202.128 359.39 199.096 363.434C197.238 365.904 197.658 368.962 201.728 370.558C207.328 372.634 218.514 371.442 224.386 370.256C233.352 368.45 232.4 364.126 224.674 360.778ZM217.538 369.578C184.36 373.026 204.03 354.048 223.448 362.084C228.958 364.374 229.19 366.226 228.974 365.796C229.956 368.224 220.2 369.29 217.538 369.57V369.578ZM83.15 209.87C81.1746 206.836 78.7841 204.094 76.048 201.724C73.7787 204.335 71.379 206.829 68.858 209.198C71.2 210.916 75.7 212.6 83.15 209.87ZM43.714 245.016C45.514 242.2 48.696 235.066 48.436 230.66C48.374 229.58 46.67 229.568 46.742 230.66C46.942 234.134 44.966 239.002 43.402 242.11C39.042 250.832 29.874 252.456 31.166 242.898C31.8424 239.246 33.4286 235.824 35.778 232.948C38.034 229.918 41.278 225.932 44.832 224.714C45.864 224.366 45.42 222.714 44.374 223.08C40.452 224.454 37.594 227.834 35.094 231.05C32.3431 234.249 30.439 238.087 29.556 242.212C27.8 253.284 38.148 253.744 43.714 245.016ZM37.736 265.23C38.136 264.21 36.5 263.77 36.102 264.78C31.4305 276.724 30.6034 289.828 33.736 302.264C33.7964 302.481 33.9405 302.664 34.1365 302.775C34.3325 302.885 34.5643 302.913 34.781 302.853C34.9976 302.792 35.1814 302.648 35.2919 302.452C35.4024 302.256 35.4304 302.025 35.37 301.808C32.3199 289.667 33.1473 276.876 37.736 265.23ZM78.26 313.286C76.9695 309.956 76.6444 306.329 77.322 302.822C77.538 301.754 75.894 301.298 75.688 302.366C75.1572 305.133 75.1694 307.976 75.724 310.738C76.4302 313.385 77.455 315.937 78.776 318.338C79.7315 320.911 79.6714 323.752 78.608 326.282C78.096 326.282 76.408 323.986 75.76 322.628C75.324 321.702 73.76 322.366 74.294 323.492C75.1259 325.238 76.3596 326.761 77.894 327.938C77.4855 328.757 77.028 329.552 76.524 330.316C75.2586 329.379 74.2636 328.124 73.64 326.678C73.6319 326.667 73.6277 326.654 73.628 326.64C73.532 326.4 73.448 326.146 73.364 325.906C73.3339 325.799 73.283 325.698 73.2141 325.611C73.1453 325.523 73.0599 325.45 72.9627 325.395C72.8656 325.341 72.7587 325.306 72.6481 325.293C72.5374 325.279 72.4253 325.288 72.318 325.318C72.2107 325.348 72.1104 325.399 72.0227 325.468C71.9351 325.537 71.8619 325.622 71.8073 325.719C71.7527 325.816 71.7178 325.923 71.7045 326.034C71.6912 326.145 71.6999 326.257 71.73 326.364C72.4115 328.496 73.7483 330.359 75.55 331.688C75.3126 331.988 75.0561 332.273 74.782 332.54C74.314 332.984 73.904 333.236 73.4 332.718C72.1374 331.139 71.012 329.456 70.036 327.686C66.2252 320.77 64.6991 312.826 65.676 304.99C65.7736 302.258 66.912 299.667 68.858 297.748C69.6964 297.023 70.7802 296.645 71.888 296.691C72.9957 296.738 74.0437 297.206 74.818 298C75.502 298.852 76.704 297.64 76.018 296.8C73.434 293.6 67.05 294.366 64.818 300.98C62.974 306.38 63.568 314.454 65.106 320.094C65.0353 320.106 64.9674 320.131 64.906 320.168C63.7774 320.873 62.5564 321.418 61.278 321.788C61.254 321.164 60.99 314.568 60.822 311.9C60.8087 311.76 60.7629 311.625 60.6883 311.505C60.6137 311.386 60.5123 311.286 60.3922 311.212C60.272 311.139 60.1364 311.094 59.9961 311.083C59.8558 311.071 59.7147 311.092 59.584 311.144C58.752 311.47 59.276 311.204 59.62 323.41C60.1278 337.29 59.8554 351.188 58.804 365.038C55.75 361.502 52.346 358.606 47.69 359.176C49.718 351.088 48.542 345.764 46.69 338.68C44.3201 329.648 41.4572 320.753 38.114 312.034C37.67 311.034 36.202 311.902 36.648 312.886C38.874 317.872 46.916 342.116 47.028 350.394C47.128 356.432 45.676 358.794 46.066 359.574C44.4502 360.309 43.0181 361.394 41.8732 362.751C40.7283 364.108 39.8992 365.702 39.446 367.418C39.6518 368.059 39.8326 368.709 39.988 369.364C46.03 372.318 52.722 370.564 58.826 368.764C58.938 368.732 60.226 367.778 60.278 367.336C60.278 365.502 61.122 362.634 61.432 346.226C61.766 327.92 61.05 323.496 61.396 323.496C62.8491 323.086 64.2428 322.489 65.542 321.72C66.608 325.058 70.694 334.062 73.362 334.694C75.26 335.126 77.098 332.438 78.144 330.812C83.976 321.764 79.558 316.612 78.26 313.286ZM51.86 368.82L52.4 364.964C52.4604 364.747 52.4324 364.515 52.3219 364.319C52.2114 364.124 52.0276 363.979 51.811 363.919C51.5943 363.859 51.3625 363.887 51.1665 363.997C50.9705 364.108 50.8264 364.291 50.766 364.508L50.118 369.086C48.847 369.25 47.5641 369.302 46.284 369.242C45.814 365.324 48.256 364.294 46.898 363.476C46.7027 363.365 46.4719 363.334 46.2543 363.39C46.0367 363.446 45.8495 363.585 45.732 363.776C44.8373 365.373 44.4436 367.202 44.602 369.026C43.3975 368.828 42.2268 368.461 41.124 367.938C41.148 367.844 41.152 367.906 41.178 367.83C42.296 364.25 45.036 360.598 49.178 360.742C53.066 360.882 56.046 364.1 58.452 367.108C56.285 367.797 54.0825 368.368 51.854 368.82H51.86ZM58.486 221.2C58.9064 221.2 59.3172 221.325 59.6666 221.559C60.0159 221.793 60.2881 222.125 60.4487 222.514C60.6093 222.902 60.6511 223.33 60.5689 223.742C60.4866 224.154 60.284 224.533 59.9866 224.83C59.6892 225.127 59.3103 225.329 58.898 225.411C58.4856 225.493 58.0583 225.451 57.6699 225.29C57.2816 225.129 56.9496 224.856 56.7161 224.507C56.4826 224.157 56.358 223.746 56.358 223.326C56.358 223.047 56.413 222.77 56.52 222.512C56.627 222.254 56.7837 222.019 56.9814 221.822C57.179 221.625 57.4136 221.468 57.6718 221.361C57.9299 221.255 58.2066 221.2 58.486 221.2ZM72.758 233.55C76.23 233.55 77.582 225.638 77.582 225.638C76.0214 226.093 74.3786 226.191 72.775 225.925C71.1714 225.659 69.6482 225.036 68.318 224.102C68.318 224.102 69.286 233.55 72.758 233.55ZM107.634 148.214C107.695 148.101 107.731 147.976 107.738 147.847C107.745 147.719 107.723 147.591 107.674 147.472C107.625 147.353 107.55 147.246 107.455 147.16C107.36 147.073 107.247 147.009 107.124 146.972C103.608 145.59 92.324 141.142 92.172 141.078C91.99 141.028 91.7965 141.04 91.6223 141.113C91.4481 141.185 91.3029 141.314 91.21 141.478C90.286 142.918 64.672 182.902 63.722 184.51C60.71 183.38 58.886 185.044 59.302 187.11C59.926 190.184 62.042 189.51 57.164 188.51C54.9283 188.022 52.6366 187.84 50.352 187.97C47.73 188.37 46.766 190.664 51.288 193.904C50.592 193.904 49.888 193.904 49.198 193.916C45.334 193.952 45.736 198.152 48.998 199.154C46.958 199.834 46.456 202.78 49.634 203.354C68.258 206.61 78.276 195.03 88.128 179.448C89.272 177.618 106.976 149.53 107.634 148.214ZM73.886 194.89C70.8943 197.771 67.2633 199.903 63.2898 201.112C59.3164 202.321 55.1132 202.572 51.024 201.846C47.59 201.312 49.36 200.604 51 200.524C51.5893 200.521 52.174 200.419 52.73 200.224C52.8864 200.174 53.0254 200.081 53.1307 199.955C53.2359 199.829 53.303 199.676 53.324 199.513C53.345 199.35 53.3191 199.184 53.2493 199.036C53.1795 198.887 53.0687 198.762 52.93 198.674C51.244 197.544 48.372 197.93 48.148 196.186C48.04 195.286 49.962 195.61 50.48 195.61C51.848 195.61 53.206 195.598 54.576 195.598C54.7784 195.593 54.9724 195.515 55.1232 195.38C55.274 195.245 55.3718 195.06 55.3992 194.86C55.4266 194.659 55.3818 194.455 55.2727 194.285C55.1637 194.114 54.9976 193.987 54.804 193.928C53.244 193.309 51.835 192.362 50.672 191.152C50.36 190.828 49.434 190.096 50.118 189.784C54.5704 189.4 59.042 190.261 63.034 192.27C63.834 192.654 64.872 191.586 64.068 190.936C60.684 188.216 59.644 184.66 63.25 186.166C66.2932 187.713 69.1179 189.656 71.65 191.946C72.466 192.678 73.668 191.478 72.85 190.746C70.5191 188.677 67.9871 186.846 65.292 185.28C93.028 141.696 92.292 143.08 92.336 143.002C96.492 144.636 105.36 148.132 105.648 148.24C87.538 176.532 82.452 187.362 73.886 194.89ZM311.234 81C311.442 80.9323 311.616 80.7869 311.719 80.5941C311.822 80.4013 311.847 80.176 311.788 79.9653C311.73 79.7547 311.592 79.5749 311.403 79.4635C311.215 79.3522 310.991 79.318 310.778 79.368C309.76 79.533 308.807 79.9748 308.023 80.645C307.24 81.3152 306.655 82.188 306.334 83.168C305.972 84.14 307.534 84.768 307.966 83.624C308.648 81.928 309.428 81.64 311.234 81ZM314.028 86.428C314.082 86.2099 314.05 85.9791 313.939 85.7842C313.827 85.5892 313.644 85.445 313.428 85.382C312.504 85.082 311.59 84.782 310.666 84.492C310.453 84.4425 310.228 84.4772 310.04 84.589C309.852 84.7007 309.714 84.8808 309.655 85.0918C309.596 85.3027 309.621 85.5282 309.725 85.7212C309.828 85.9143 310.002 86.06 310.21 86.128C311.134 86.428 312.048 86.728 312.972 87.016C313.08 87.0471 313.193 87.0565 313.305 87.0437C313.416 87.031 313.524 86.9963 313.622 86.9416C313.72 86.887 313.807 86.8135 313.876 86.7253C313.946 86.6372 313.998 86.5361 314.028 86.428ZM324.75 80.162C323.722 79.934 323.6 80.992 323.044 82.562C322.986 82.779 323.015 83.0102 323.126 83.2057C323.236 83.4012 323.42 83.5454 323.636 83.6071C323.852 83.6688 324.083 83.6431 324.281 83.5355C324.478 83.4279 324.625 83.247 324.69 83.032C324.906 82.432 325.122 81.832 325.338 81.218C325.396 81.0001 325.367 80.7682 325.257 80.5712C325.148 80.3742 324.966 80.2275 324.75 80.162ZM324.33 76.48C325.032 75.232 322.348 74.054 320.582 75.532C320.466 75.6518 320.387 75.803 320.356 75.967C320.324 76.131 320.341 76.3007 320.405 76.455C320.469 76.6093 320.576 76.7416 320.714 76.8356C320.853 76.9296 321.015 76.9812 321.182 76.984C322.948 76.896 324.012 77.116 324.33 76.48ZM319.248 95.834C318.702 96.0968 318.105 96.2386 317.498 96.2496C316.892 96.2606 316.291 96.1406 315.735 95.8977C315.179 95.6548 314.683 95.2949 314.279 94.8424C313.875 94.3899 313.574 93.8556 313.396 93.276C313.014 92.384 311.396 92.958 311.93 94.14C312.221 94.9159 312.672 95.6216 313.254 96.2112C313.837 96.8008 314.537 97.2608 315.309 97.5613C316.081 97.8618 316.908 97.996 317.736 97.9551C318.563 97.9142 319.373 97.6991 320.112 97.324C320.299 97.2043 320.433 97.017 320.485 96.8011C320.538 96.5853 320.505 96.3575 320.393 96.1653C320.282 95.9731 320.101 95.8314 319.887 95.7696C319.674 95.7079 319.445 95.731 319.248 95.834ZM293.788 87.316C293.572 87.259 293.342 87.2886 293.148 87.3984C292.953 87.5082 292.809 87.6896 292.746 87.904C292.692 88.1204 292.724 88.3491 292.833 88.5435C292.942 88.7378 293.121 88.8832 293.334 88.95C294.326 89.2463 295.222 89.7981 295.934 90.55C296.093 90.7087 296.309 90.7979 296.534 90.7979C296.759 90.7979 296.975 90.7087 297.134 90.55C298.246 89.352 295.164 87.744 293.788 87.316ZM296.302 96.628C296.683 96.2384 296.958 95.7574 297.099 95.2311C297.241 94.7048 297.245 94.151 297.111 93.6227C296.977 93.0944 296.71 92.6094 296.335 92.2142C295.959 91.819 295.489 91.5269 294.968 91.366C294.751 91.3083 294.521 91.3376 294.325 91.4474C294.13 91.5572 293.985 91.739 293.922 91.954C293.64 93.182 295.268 92.742 295.484 94.176C295.484 96.05 293.272 96.112 293.272 93.792C292.716 93.7365 292.163 93.6523 291.616 93.54C291.482 94.1344 291.533 94.7554 291.761 95.3204C291.989 95.8853 292.383 96.3675 292.892 96.7028C293.401 97.038 294 97.2104 294.609 97.197C295.218 97.1837 295.808 96.9852 296.302 96.628ZM386.922 205.318C382.998 197.152 381.898 190.262 376.65 180.772C377.65 180.122 378.672 179.71 378.26 178.79C377.954 177.566 375.86 172.59 375.042 170.754C374.937 170.575 374.77 170.441 374.572 170.377C374.374 170.314 374.16 170.325 373.97 170.41C373.77 170.48 357.902 178.962 356.826 180.52C356.17 181.486 356.484 181.52 359.206 187.994C359.293 188.211 359.449 188.392 359.65 188.51C360.08 188.94 360.344 188.72 363.628 187.356C365.584 192.042 368.24 196.632 368.492 201.756C368.636 204.77 367.472 207.702 367.122 210.67C366.38 216.842 370.296 218.616 373.55 213.036C373.95 215.406 374.678 218.95 376.434 220.268C376.726 220.514 377.08 220.675 377.457 220.732C377.834 220.79 378.22 220.742 378.572 220.594C378.96 220.341 379.287 220.005 379.529 219.61C379.771 219.215 379.923 218.771 379.972 218.31C380.47 216.332 380.084 216.492 380.572 217.254C382.792 220.938 386.736 218.234 385.512 214.094C386.067 214.502 386.745 214.707 387.433 214.677C388.121 214.646 388.777 214.381 389.294 213.926C391.22 212 388.818 209.292 386.922 205.318ZM360.54 186.8C360.216 186.03 358.712 182.462 358.604 182.2C358.176 181.2 355.992 182.11 373.888 172.386C374.812 174.512 375.688 176.674 376.488 178.848C371.428 181.983 366.089 184.645 360.54 186.8ZM387.288 212.978C385.908 212.908 385.288 211.26 384.826 210.178C384.741 210.035 384.616 209.921 384.467 209.848C384.317 209.776 384.15 209.748 383.985 209.77C383.821 209.791 383.666 209.86 383.54 209.968C383.414 210.076 383.322 210.218 383.276 210.378C382.81 213.084 385.032 215.492 383.564 217.034C382.164 218.5 380.38 212.542 380.176 211.724C379.902 210.656 378.352 211.112 378.542 212.182C378.84 213.802 378.832 215.464 378.518 217.082C378.166 218.882 377.902 220.028 376.752 218.082C375.523 215.098 374.871 211.909 374.83 208.682C374.819 208.464 374.726 208.259 374.568 208.109C374.41 207.959 374.201 207.875 373.983 207.875C373.765 207.875 373.556 207.959 373.398 208.109C373.24 208.259 373.147 208.464 373.136 208.682C372.936 212.24 370.282 214.95 369.508 214.654C368.734 214.358 368.74 212.804 368.74 212.168C368.77 208.626 370.686 204.678 370.06 200.418C369.3 195.05 367.15 191.502 365.184 186.698C368.616 185.237 371.956 183.568 375.184 181.698C380.764 191.858 381.834 199.898 387.368 209.882C387.8 210.652 389.212 213.068 387.288 212.97V212.978ZM302.128 125.088C300.956 125.614 296.662 127.504 296.566 127.54C297.336 125.397 297.931 123.195 298.344 120.956C298.405 120.739 298.377 120.507 298.267 120.311C298.156 120.115 297.973 119.971 297.756 119.91C297.539 119.849 297.307 119.877 297.111 119.987C296.915 120.098 296.771 120.281 296.71 120.498C295.386 127.798 293.776 128.144 294.992 129.004C296.31 129.932 297.618 128.922 303.016 126.554C303.882 126.184 303.34 124.544 302.128 125.088ZM319.524 120.908C320.044 123.087 320.146 125.345 319.824 127.562C317.985 126.879 316.222 126.008 314.562 124.962C313.638 124.374 312.784 125.85 313.708 126.428C315.774 127.719 317.983 128.763 320.292 129.54C320.51 129.597 320.742 129.566 320.938 129.454C321.133 129.342 321.277 129.157 321.338 128.94C321.886 126.126 321.824 123.228 321.158 120.44C320.906 119.388 319.266 119.848 319.524 120.908ZM317.38 115.6C317.425 115.39 317.389 115.171 317.278 114.986C317.168 114.802 316.991 114.667 316.784 114.608C316.578 114.549 316.356 114.571 316.165 114.67C315.974 114.768 315.828 114.936 315.756 115.138C315.296 116.782 314.444 118.291 313.274 119.534C312.104 120.777 310.65 121.718 309.036 122.276C304.924 123.53 302.366 120.416 301.274 116.276C301.205 116.07 301.059 115.898 300.868 115.795C300.676 115.693 300.452 115.667 300.242 115.724C300.032 115.78 299.852 115.915 299.738 116.1C299.623 116.285 299.584 116.507 299.628 116.72C302.8 128.894 314.966 124.564 317.38 115.6Z" fill="#1D1D1B"/>
<path d="M360.6 182.292C360.465 182.374 360.349 182.485 360.261 182.617C360.172 182.748 360.113 182.898 360.088 183.054C360.063 183.211 360.072 183.371 360.115 183.523C360.158 183.676 360.233 183.817 360.336 183.938C360.507 184.083 360.715 184.177 360.936 184.21C361.158 184.243 361.384 184.213 361.59 184.124C362.854 182.926 361.366 181.826 360.6 182.292ZM309.346 131.462C310.074 131.41 310.39 130.204 309.692 129.626C309.568 129.548 309.43 129.497 309.286 129.475C309.141 129.453 308.994 129.461 308.853 129.498C308.712 129.536 308.58 129.602 308.465 129.693C308.351 129.784 308.256 129.897 308.188 130.026C307.8 130.934 308.506 131.52 309.346 131.462ZM309.8 140.55C310.528 140.5 310.844 139.294 310.146 138.714C310.022 138.636 309.884 138.585 309.74 138.563C309.595 138.541 309.448 138.549 309.307 138.586C309.166 138.624 309.034 138.69 308.919 138.781C308.805 138.872 308.71 138.985 308.642 139.114C308.236 140.022 308.952 140.6 309.8 140.55ZM282.448 151.8C280.198 153.274 277.854 154.599 275.43 155.764C274.47 156.292 275.322 157.764 276.284 157.23C277.514 156.554 281.934 154.166 282.094 154.052C282.094 155.294 281.858 157.998 281.716 159.314C281.716 159.539 281.805 159.756 281.965 159.915C282.124 160.074 282.34 160.164 282.566 160.164C282.791 160.164 283.008 160.074 283.167 159.915C283.326 159.756 283.416 159.539 283.416 159.314C283.494 158.564 284.09 152.804 283.616 152.142C283.478 151.975 283.293 151.853 283.084 151.792C282.876 151.731 282.654 151.734 282.448 151.8ZM325.038 351.888C321.847 352.318 318.805 353.504 316.165 355.348C313.526 357.192 311.365 359.64 309.864 362.488C320.465 361.874 331.099 362.103 341.664 363.172C337.546 357.702 331 351.418 325.038 351.888ZM289.452 284.034C292.871 284.924 296.433 285.123 299.93 284.62C300.14 284.553 300.315 284.408 300.42 284.214C300.524 284.021 300.549 283.794 300.49 283.583C300.431 283.371 300.291 283.19 300.101 283.079C299.911 282.968 299.686 282.936 299.472 282.988C296.277 283.429 293.026 283.229 289.91 282.398C289.696 282.346 289.47 282.38 289.28 282.491C289.09 282.602 288.951 282.783 288.892 282.995C288.832 283.207 288.858 283.434 288.962 283.628C289.067 283.821 289.242 283.967 289.452 284.034Z" fill="#1D1D1B"/>
<path d="M173.482 203.738C169.81 201.763 166.897 198.627 165.196 194.821C163.495 191.015 163.104 186.752 164.082 182.7C164.334 181.632 162.7 181.188 162.448 182.244C161.411 186.658 161.846 191.291 163.685 195.436C165.524 199.58 168.667 203.011 172.636 205.204C173.6 205.73 174.444 204.264 173.482 203.738ZM119.888 186.648C120.373 189.516 120.015 192.464 118.86 195.133C117.704 197.803 115.799 200.08 113.376 201.69C111.48 203.171 109.24 204.146 106.864 204.524C106.646 204.535 106.441 204.628 106.291 204.786C106.141 204.944 106.057 205.153 106.057 205.371C106.057 205.589 106.141 205.798 106.291 205.956C106.441 206.114 106.646 206.207 106.864 206.218C109.47 205.919 111.944 204.909 114.014 203.298C116.827 201.52 119.045 198.943 120.384 195.896C121.722 192.849 122.121 189.472 121.528 186.198C121.324 185.116 119.69 185.578 119.888 186.648Z" fill="#AC47F5"/>
<path d="M167.26 76.612C166.407 73.003 164.78 69.6228 162.489 66.7065C160.199 63.7903 157.3 61.4079 153.996 59.7249C150.692 58.042 147.06 57.0989 143.355 56.9613C139.649 56.8237 135.958 57.4948 132.538 58.928C114.938 66.348 104.264 96.976 131.494 103.054C131.21 104.525 131.26 106.042 131.638 107.491C132.016 108.941 132.714 110.288 133.68 111.434C136.68 114.306 144.508 114.502 147.256 110.66C148.312 114.7 150.796 114.64 148.542 116.102C147.619 116.716 146.888 117.578 146.432 118.589C145.977 119.599 145.815 120.718 145.965 121.816C146.116 122.914 146.573 123.948 147.283 124.798C147.994 125.649 148.93 126.282 149.984 126.626C148.994 127.504 148.217 128.595 147.711 129.817C147.205 131.04 146.984 132.361 147.064 133.681C147.143 135.002 147.522 136.287 148.171 137.439C148.821 138.592 149.724 139.582 150.812 140.334C149.932 141.577 149.385 143.024 149.223 144.538C149.061 146.053 149.289 147.583 149.886 148.984C150.608 150.63 151.858 152.456 151.004 154.03C153.714 155.03 157.474 150.188 156.362 144.682C156.16 144.098 156.12 143.471 156.245 142.866C156.37 142.262 156.655 141.702 157.072 141.246C158.942 138.278 160.386 134.756 158.574 131.732C158.241 131.383 158.041 130.929 158.009 130.448C157.978 129.967 158.116 129.49 158.4 129.1C159.978 125.72 160.724 121.7 158.172 118.974C156.972 117.714 156.658 117.476 157.536 115.538C158.143 114.471 158.436 113.253 158.381 112.026C158.326 110.799 157.925 109.613 157.224 108.604C156.71 108.036 156.536 107.876 156.824 107.128C157.634 105.636 158.044 103.96 158.014 102.262C164.758 97.97 169.74 87.226 167.26 76.612ZM140.546 111.848C135.018 111.884 132.116 109.816 133.458 100.964C135.468 101.92 137.657 102.446 139.883 102.508C142.108 102.57 144.323 102.167 146.384 101.324C147.486 107.612 146.982 111.782 140.546 111.848ZM154.524 86.2C153.876 86.116 153.612 86.764 153.756 87.28C153.041 90.1951 151.972 93.0115 150.572 95.666C148.922 97.9566 146.553 99.6292 143.842 100.418C141.131 101.206 138.235 101.065 135.614 100.016C126.29 96.828 127.792 88.336 127.24 85.55C127.202 85.409 127.128 85.2805 127.024 85.1773C126.921 85.074 126.793 84.9998 126.652 84.962C124.116 84.3 121.27 82.066 121.15 79.242C121.122 78.5115 121.304 77.7883 121.674 77.158C122.044 76.5278 122.588 76.0169 123.24 75.686C124.706 75.062 125.858 77.14 126.412 78.174C126.498 78.3142 126.624 78.4265 126.773 78.4973C126.921 78.5682 127.088 78.5946 127.251 78.5735C127.415 78.5524 127.569 78.4847 127.695 78.3783C127.821 78.272 127.913 78.1316 127.962 77.974C128.315 75.8003 128.782 73.6467 129.362 71.522C134.65 71.642 140.656 70.548 144.464 66.656C144.681 68.5118 145.265 70.3059 146.181 71.9345C147.097 73.5632 148.327 74.9939 149.8 76.144C149.255 75.768 148.621 75.5399 147.962 75.482C147.736 75.4851 147.521 75.5761 147.362 75.7357C147.203 75.8952 147.112 76.1106 147.11 76.336C147.182 77.638 149 76.846 149.692 78.51C150.292 79.66 152.72 78.408 149.968 76.276C151.284 77.3669 152.743 78.272 154.306 78.966C154.258 79.566 154.222 80.166 154.174 80.744C154.114 81.562 155.11 81.766 155.628 81.344C156.639 80.4599 157.804 79.7679 159.064 79.302C160.524 78.838 161.23 79.15 161.646 80.622C162.706 84.83 157.898 86.628 154.524 86.2Z" fill="#1D1D1B"/>
<path d="M134.774 80.888C134.774 80.5565 134.642 80.2385 134.407 80.0041C134.173 79.7697 133.855 79.638 133.524 79.638C133.192 79.638 132.874 79.7697 132.64 80.0041C132.405 80.2385 132.274 80.5565 132.274 80.888C132.274 81.2195 132.405 81.5374 132.64 81.7719C132.874 82.0063 133.192 82.138 133.524 82.138C133.855 82.138 134.173 82.0063 134.407 81.7719C134.642 81.5374 134.774 81.2195 134.774 80.888ZM147.556 81.742C147.233 81.7549 146.928 81.8921 146.704 82.1249C146.481 82.3578 146.356 82.6681 146.356 82.991C146.356 83.3138 146.481 83.6242 146.704 83.857C146.928 84.0898 147.233 84.2271 147.556 84.24C147.878 84.2271 148.183 84.0898 148.407 83.857C148.631 83.6242 148.756 83.3138 148.756 82.991C148.756 82.6681 148.631 82.3578 148.407 82.1249C148.183 81.8921 147.878 81.7549 147.556 81.742ZM134.774 75.53C134.993 75.5194 135.199 75.4249 135.351 75.2661C135.502 75.1073 135.586 74.8963 135.586 74.677C135.586 74.4576 135.502 74.2467 135.351 74.0879C135.199 73.9291 134.993 73.8346 134.774 73.824C134.099 73.8583 133.444 74.0568 132.864 74.4022C132.284 74.7476 131.797 75.2295 131.446 75.806C131.335 76.0013 131.304 76.2321 131.36 76.4496C131.416 76.6672 131.554 76.8545 131.746 76.972C132.928 77.614 133.134 75.53 134.774 75.53ZM145.286 88.23C143.118 91.322 136.8 90.864 135.974 87.4C135.722 86.332 134.088 86.788 134.34 87.856C135.448 92.592 143.6 93.632 146.752 89.106C147.388 88.182 145.91 87.34 145.286 88.23ZM151.532 156.264C152.3 155.482 151.1 154.282 150.332 155.064C149.155 156.276 148.276 157.745 147.763 159.355C147.25 160.964 147.118 162.671 147.376 164.34C147.406 164.447 147.457 164.548 147.525 164.635C147.594 164.723 147.68 164.796 147.777 164.851C147.874 164.905 147.981 164.94 148.092 164.953C148.202 164.967 148.314 164.958 148.422 164.928C148.529 164.898 148.629 164.847 148.717 164.778C148.804 164.709 148.878 164.624 148.932 164.527C148.987 164.43 149.022 164.323 149.035 164.212C149.048 164.101 149.04 163.989 149.01 163.882C148.824 162.504 148.955 161.102 149.392 159.782C149.829 158.462 150.561 157.259 151.532 156.264ZM152.674 155.976C152.563 156 152.459 156.048 152.37 156.117C152.281 156.186 152.208 156.275 152.158 156.376C150.589 159.243 150.092 162.576 150.758 165.776C150.818 165.993 150.963 166.176 151.159 166.287C151.355 166.397 151.587 166.425 151.804 166.364C152.02 166.303 152.204 166.159 152.314 165.963C152.425 165.767 152.452 165.535 152.392 165.318C151.933 163.047 152.154 160.69 153.028 158.544C153.725 160.263 154.066 162.107 154.028 163.962C154.038 164.18 154.132 164.385 154.29 164.535C154.447 164.685 154.657 164.769 154.875 164.769C155.092 164.769 155.302 164.685 155.459 164.535C155.617 164.385 155.711 164.18 155.722 163.962C155.765 161.27 155.111 158.612 153.824 156.248C153.773 156.147 153.701 156.059 153.612 155.989C153.524 155.92 153.422 155.87 153.312 155.844C153.202 155.818 153.088 155.817 152.978 155.839C152.868 155.862 152.764 155.909 152.674 155.976ZM154.224 155.232C155.837 157.275 156.777 159.768 156.916 162.368C156.926 162.587 157.021 162.794 157.18 162.945C157.338 163.096 157.549 163.181 157.769 163.181C157.988 163.181 158.199 163.096 158.358 162.945C158.516 162.794 158.611 162.587 158.622 162.368C158.458 159.324 157.344 156.408 155.438 154.03C154.832 153.272 153.4 154.212 154.224 155.232Z" fill="#1D1D1B"/>
</svg>
