<svg width="400" height="400" viewBox="0 0 400 400" fill="none" xmlns="http://www.w3.org/2000/svg">
<path d="M241.582 10L241.164 48.152L265.104 89.648L265.522 51.496L241.582 10Z" fill="#B8FFD4"/>
<path d="M251.09 65.5034L238.55 77.9674L235.092 119.881L265.15 89.8234L251.09 65.5034Z" fill="#B8FFD4"/>
<path fill-rule="evenodd" clip-rule="evenodd" d="M251 180.772C276.456 157.906 300.588 133.61 323.282 108C317.05 97.2 309.146 89.6 299.152 85.884C269.986 118.914 238.34 149.67 204.494 177.884C198.813 189.438 194.688 194.938 181.356 195.487C181.09 203.132 180.136 210.738 178.506 218.212C178.506 218.212 184.2 228.2 199.858 229.696C214.79 231.124 257.922 213.394 257.922 213.394C278.662 218.836 298.782 226.41 317.962 235.994C324.916 227.482 330.464 218.552 330.844 207.266C310.358 196.302 288.718 187.649 266.32 181.466C260.78 179.891 255.688 179.875 251 180.772ZM198.11 216.378C198.11 216.872 197.914 217.346 197.565 217.694C197.215 218.044 196.742 218.24 196.248 218.24C195.754 218.24 195.281 218.044 194.931 217.694C194.582 217.346 194.386 216.872 194.386 216.378C194.386 215.884 194.582 215.41 194.931 215.062C195.281 214.712 195.754 214.516 196.248 214.516C196.742 214.516 197.215 214.712 197.565 215.062C197.914 215.41 198.11 215.884 198.11 216.378ZM225.342 197.137C225.692 196.787 225.888 196.314 225.888 195.82C225.888 195.326 225.692 194.853 225.342 194.503C224.994 194.154 224.52 193.958 224.026 193.958C223.532 193.958 223.058 194.154 222.71 194.503C222.36 194.853 222.164 195.326 222.164 195.82C222.164 196.314 222.36 196.787 222.71 197.137C223.058 197.486 223.532 197.682 224.026 197.682C224.52 197.682 224.994 197.486 225.342 197.137ZM259.062 207.562C259.062 208.056 258.866 208.53 258.516 208.878C258.168 209.228 257.694 209.424 257.2 209.424C256.706 209.424 256.232 209.228 255.884 208.878C255.534 208.53 255.338 208.056 255.338 207.562C255.338 207.068 255.534 206.594 255.884 206.246C256.232 205.896 256.706 205.7 257.2 205.7C257.694 205.7 258.168 205.896 258.516 206.246C258.866 206.594 259.062 207.068 259.062 207.562ZM293.742 198.999C294.092 198.649 294.288 198.176 294.288 197.682C294.288 197.188 294.092 196.715 293.742 196.365C293.394 196.016 292.92 195.82 292.426 195.82C291.932 195.82 291.458 196.016 291.11 196.365C290.76 196.715 290.564 197.188 290.564 197.682C290.564 198.176 290.76 198.649 291.11 198.999C291.458 199.348 291.932 199.544 292.426 199.544C292.92 199.544 293.394 199.348 293.742 198.999ZM313.896 224.966C313.896 225.46 313.7 225.934 313.35 226.282C313.002 226.632 312.528 226.828 312.034 226.828C311.54 226.828 311.066 226.632 310.718 226.282C310.368 225.934 310.172 225.46 310.172 224.966C310.172 224.472 310.368 223.998 310.718 223.65C311.066 223.3 311.54 223.104 312.034 223.104C312.528 223.104 313.002 223.3 313.35 223.65C313.7 223.998 313.896 224.472 313.896 224.966ZM217.666 178.745C218.016 178.395 218.212 177.922 218.212 177.428C218.212 176.934 218.016 176.461 217.666 176.111C217.318 175.762 216.844 175.566 216.35 175.566C215.856 175.566 215.382 175.762 215.034 176.111C214.684 176.461 214.488 176.934 214.488 177.428C214.488 177.922 214.684 178.395 215.034 178.745C215.382 179.094 215.856 179.29 216.35 179.29C216.844 179.29 217.318 179.094 217.666 178.745ZM252.032 169.524C252.032 170.018 251.836 170.491 251.486 170.841C251.138 171.19 250.664 171.386 250.17 171.386C249.676 171.386 249.202 171.19 248.854 170.841C248.504 170.491 248.308 170.018 248.308 169.524C248.308 169.03 248.504 168.557 248.854 168.207C249.202 167.858 249.676 167.662 250.17 167.662C250.664 167.662 251.138 167.858 251.486 168.207C251.836 168.557 252.032 169.03 252.032 169.524ZM258.516 140.175C258.866 139.825 259.062 139.352 259.062 138.858C259.062 138.364 258.866 137.891 258.516 137.541C258.168 137.192 257.694 136.996 257.2 136.996C256.706 136.996 256.232 137.192 255.884 137.541C255.534 137.891 255.338 138.364 255.338 138.858C255.338 139.352 255.534 139.825 255.884 140.175C256.232 140.524 256.706 140.72 257.2 140.72C257.694 140.72 258.168 140.524 258.516 140.175ZM294.288 129.282C294.288 129.776 294.092 130.249 293.742 130.599C293.394 130.948 292.92 131.144 292.426 131.144C291.932 131.144 291.458 130.948 291.11 130.599C290.76 130.249 290.564 129.776 290.564 129.282C290.564 128.788 290.76 128.315 291.11 127.965C291.458 127.616 291.932 127.42 292.426 127.42C292.92 127.42 293.394 127.616 293.742 127.965C294.092 128.315 294.288 128.788 294.288 129.282ZM302.454 98.1166C302.804 97.7674 303 97.2938 303 96.8C303 96.3062 302.804 95.8326 302.454 95.4834C302.106 95.1342 301.632 94.938 301.138 94.938C300.644 94.938 300.17 95.1342 299.822 95.4834C299.472 95.8326 299.276 96.3062 299.276 96.8C299.276 97.2938 299.472 97.7674 299.822 98.1166C300.17 98.4658 300.644 98.662 301.138 98.662C301.632 98.662 302.106 98.4658 302.454 98.1166Z" fill="#B8FFD4"/>
<path d="M199.848 144.824C199.506 145.47 198.034 148.092 196.552 150.824C192.714 147.066 194.414 144.292 199.848 144.824Z" fill="#E9E9E9"/>
<path d="M212.436 150.448L210.2 156.87C212.2 156.984 214.738 156.554 214.846 154.588C214.744 153.771 214.478 152.983 214.064 152.272C213.65 151.56 213.096 150.94 212.436 150.448Z" fill="#E9E9E9"/>
<path d="M188.724 119.098C189.294 121.834 189.826 124.19 190.124 125.482C191.796 124.608 192.852 123.544 192.822 122.404C192.8 120.92 191.27 119.782 188.724 119.098Z" fill="#E9E9E9"/>
<path d="M175.728 126.888C169.572 125.406 169.382 121.72 175.348 119.592C175.643 122.012 175.77 124.45 175.728 126.888Z" fill="#E9E9E9"/>
<path d="M369.908 232.072C369.756 230.704 363.486 227.93 356.19 225.156C349.35 222.534 337.228 216.756 330.16 213.224C328.732 219.528 325.986 225.458 322.104 230.624C327.652 233.284 332.972 236.438 336.202 236.704C338.338 236.83 340.48 236.546 342.51 235.868C351.098 233.136 370.4 236.974 369.908 232.072Z" fill="#E9E9E9"/>
<path d="M334.6 52.978C333.232 52.826 329.2 58.412 324.948 64.948C321.224 70.686 312.37 82.086 306.404 89.496C311.528 92.8262 315.966 97.109 319.476 102.112C323.732 96.184 330.914 90.75 332.054 86.912C332.614 84.846 332.78 82.6936 332.548 80.566C331.718 71.6 339.508 53.51 334.6 52.978Z" fill="#E9E9E9"/>
<path d="M147.494 142.734C148.57 142.022 149.377 140.97 149.785 139.745C150.194 138.521 150.18 137.195 149.747 135.98C149.314 134.764 148.487 133.728 147.396 133.038C146.306 132.347 145.016 132.042 143.732 132.17C144.443 131.123 144.788 129.872 144.715 128.608C144.642 127.345 144.154 126.142 143.327 125.185C142.499 124.227 141.379 123.57 140.14 123.314C138.901 123.058 137.613 123.218 136.474 123.77C138.358 118.13 130.546 113.666 126.442 118.64C126.41 117.245 125.89 115.905 124.973 114.854C124.056 113.802 122.8 113.105 121.422 112.884C120.044 112.662 118.633 112.931 117.432 113.642C116.232 114.354 115.319 115.463 114.852 116.778C112.594 110.836 103.718 112.452 103.718 118.526C102.811 117.637 101.636 117.074 100.375 116.924C99.1149 116.774 97.8402 117.046 96.7506 117.697C95.661 118.349 94.8175 119.342 94.3525 120.524C93.8873 121.705 93.8268 123.007 94.1798 124.226C93.0048 123.7 91.6873 123.583 90.4377 123.893C89.1883 124.204 88.079 124.924 87.2872 125.939C86.4952 126.955 86.0661 128.206 86.0689 129.493C86.0715 130.781 86.5058 132.03 87.3018 133.042C85.9496 132.886 84.5857 133.214 83.4523 133.968C82.3191 134.722 81.4898 135.853 81.1116 137.161C80.7334 138.469 80.831 139.868 81.3868 141.11C81.9426 142.353 82.9209 143.358 84.1477 143.948C82.8021 144.133 81.5651 144.788 80.6569 145.798C79.7487 146.808 79.2279 148.108 79.1869 149.465C79.1459 150.823 79.5873 152.151 80.4329 153.215C81.2785 154.278 82.4738 155.007 83.8058 155.272C78.6578 158.656 82.0177 166.688 87.6057 165.76C86.9027 166.816 86.5665 168.073 86.6491 169.339C86.7315 170.604 87.2282 171.808 88.0624 172.763C88.8966 173.718 90.0218 174.373 91.2648 174.625C92.5076 174.878 93.7991 174.714 94.9397 174.16C93.0397 179.85 101.07 184.212 104.972 179.214C104.979 180.578 105.47 181.894 106.358 182.93C107.246 183.965 108.472 184.651 109.819 184.865C111.165 185.08 112.545 184.809 113.71 184.101C114.876 183.393 115.752 182.294 116.182 181C116.498 181.877 117.023 182.664 117.713 183.292C118.402 183.92 119.234 184.369 120.137 184.601C121.04 184.834 121.987 184.842 122.893 184.625C123.8 184.408 124.64 183.972 125.34 183.356C123.496 177.763 121.986 172.066 120.818 166.294C117.31 150.998 118.164 156.59 116.486 149.878C111.698 148.852 113.18 143.19 116.524 144.976C118.124 145.85 118.69 145.736 118.69 144.71C119.146 136.274 125.454 133.652 130.128 141.974C133.776 148.472 136.208 160.252 129.558 161.924C128.866 162.118 128.148 162.207 127.43 162.19C127.43 163.948 131.322 169.462 132.066 170.39C134.35 170.015 136.684 170.08 138.944 170.58L144.606 168.87C144.793 168.201 144.818 167.497 144.679 166.816C144.54 166.136 144.241 165.498 143.806 164.956C145.155 165.119 146.517 164.798 147.652 164.051C148.786 163.304 149.62 162.179 150.003 160.876C150.387 159.573 150.296 158.176 149.748 156.933C149.199 155.69 148.227 154.682 147.006 154.088C148.351 153.91 149.59 153.264 150.505 152.263C151.421 151.262 151.955 149.971 152.013 148.616C152.071 147.261 151.65 145.928 150.824 144.853C149.997 143.777 148.818 143.027 147.494 142.734Z" fill="#E9E9E9"/>
<path d="M127.582 162.228C125.883 162.1 124.216 161.702 122.642 161.05L129.178 165.914C128.406 164.804 127.863 163.551 127.582 162.228Z" fill="#E9E9E9"/>
<path d="M181.352 195.554C173.921 196.168 166.46 196.345 159.008 196.086L181.162 200.988C181.32 199.181 181.383 197.367 181.352 195.554Z" fill="#E9E9E9"/>
<path d="M111.014 64.91C111.012 67.3822 110.278 69.7986 108.903 71.8536C107.528 73.9084 105.575 75.5096 103.291 76.4546C101.006 77.3996 98.4928 77.646 96.068 77.1628C93.6434 76.6794 91.4166 75.4882 89.669 73.7394C87.9214 71.9906 86.7314 69.763 86.2496 67.338C85.768 64.9132 86.016 62.3998 86.9624 60.1158C87.909 57.8318 89.5114 55.8798 91.5672 54.5064C93.6228 53.133 96.0396 52.4 98.512 52.4C100.155 52.3982 101.782 52.7206 103.3 53.3486C104.819 53.9768 106.198 54.8984 107.359 56.0604C108.521 57.2226 109.441 58.6024 110.068 60.121C110.696 61.6396 111.017 63.267 111.014 64.91Z" fill="#E9E9E9"/>
<path d="M190.7 250.464C190.18 243.03 191.188 235.568 193.664 228.538" stroke="black" stroke-width="1.5" stroke-linecap="round" stroke-linejoin="round"/>
<path d="M194.234 147.408L192.828 122.404" stroke="black" stroke-width="1.5" stroke-linecap="round" stroke-linejoin="round"/>
<path d="M173.41 165.344L170.978 123.544" stroke="black" stroke-width="1.5" stroke-linecap="round" stroke-linejoin="round"/>
<path d="M129.254 166.066L122.49 160.974" stroke="black" stroke-width="1.5" stroke-linecap="round" stroke-linejoin="round"/>
<path d="M122.49 160.974C137.538 166.788 134.836 150.184 130.242 142.012C125.564 133.692 119.26 136.312 118.804 144.748C118.804 145.774 118.238 145.88 116.638 145.014C113.304 143.214 111.812 148.89 116.6 149.916C117.246 152.538 117.786 153.98 118.424 156.072C119.118 158.35 120.424 164.016 120.932 166.332C123.312 177.25 125.564 186.246 130.132 193.274C142.624 212.51 158.556 218.962 178.506 218.274C180.136 210.8 181.09 203.194 181.356 195.55C195.492 194.372 198.992 191.318 210.692 164.428C211.866 161.728 213.092 158.842 214.454 155.65" stroke="black" stroke-width="1.5" stroke-linecap="round" stroke-linejoin="round"/>
<path d="M132.218 170.436C130.172 168.018 128.599 165.236 127.582 162.236" stroke="black" stroke-width="1.5" stroke-linecap="round" stroke-linejoin="round"/>
<path d="M194.234 147.4C191.422 154.24 184.986 168.432 179.452 172.214C172.482 176.978 141.224 170.998 141.224 170.998C136.132 169.934 131.61 169.364 127.582 172.48" stroke="black" stroke-width="1.5" stroke-linecap="round" stroke-linejoin="round"/>
<path d="M139.058 170.588L173.106 160.214" stroke="black" stroke-width="1.5" stroke-linecap="round" stroke-linejoin="round"/>
<path d="M207.382 124.228C210.08 121.796 215.782 115.078 219.01 111.46C220.496 109.792 221.21 114.272 212.398 124.646" stroke="black" stroke-width="1.5" stroke-linecap="round" stroke-linejoin="round"/>
<path d="M210.2 126.2C213.278 124.148 217.248 120.892 220.954 118.03C222.692 116.688 224.032 119.246 214.954 127.758" stroke="black" stroke-width="1.5" stroke-linecap="round" stroke-linejoin="round"/>
<path d="M212.436 150.448C215.436 153.248 214.952 154.818 214.45 155.648C211.67 159.356 197.06 154.18 194.714 148.294C193.764 145.914 195.746 144.42 199.848 144.818" stroke="black" stroke-width="1.5" stroke-linecap="round" stroke-linejoin="round"/>
<path d="M210.2 156.87L212.442 150.448C214.418 144.406 214.874 142.924 213.81 139.162C212.974 136.198 212.142 134.798 214 133.69C224.088 127.678 224.338 124.916 222.36 125.596C218.144 127.048 215.52 127.61 212.708 128.332" stroke="black" stroke-width="1.5" stroke-linecap="round" stroke-linejoin="round"/>
<path d="M200.58 137.414C199.437 133.559 197.681 129.912 195.38 126.614C194.012 124.714 195.38 122.852 201.232 129.274" stroke="black" stroke-width="1.5" stroke-linecap="round" stroke-linejoin="round"/>
<path d="M175.348 119.6C169.394 121.698 169.518 125.45 175.728 126.896C180.554 127.978 185.601 127.488 190.128 125.496C194.388 123.27 193.328 120.408 188.728 119.112" stroke="black" stroke-width="1.5" stroke-linecap="round" stroke-linejoin="round"/>
<path d="M181.542 113.322C180.972 111.954 180.516 110.814 180.06 109.788C177.501 104.319 174.312 99.1666 170.56 94.436C165.988 89.318 165.022 90.82 167.862 96.45C172.5 105.65 176.122 116.636 175.728 126.888" stroke="black" stroke-width="1.5" stroke-linecap="round" stroke-linejoin="round"/>
<path d="M171.89 96.032C171.619 93.4974 171.721 90.9368 172.194 88.432C172.384 87.748 173.366 87.104 174.246 91.358C174.434 92.27 175.312 96.184 175.69 97.558C176.337 100.369 177.162 103.136 178.16 105.842" stroke="black" stroke-width="1.5" stroke-linecap="round" stroke-linejoin="round"/>
<path d="M180.06 109.788C181.922 112.372 183.546 105.528 184.582 102.72C185.524 100.17 187.582 97.706 187.128 105.152C186.812 110.396 188.778 119.732 190.128 125.482" stroke="black" stroke-width="1.5" stroke-linecap="round" stroke-linejoin="round"/>
<path d="M204.912 192.248L249.334 181.2C254.922 179.799 260.78 179.891 266.32 181.466C288.718 187.649 310.358 196.302 330.844 207.266C330.464 218.552 324.916 227.482 317.962 235.994C298.782 226.41 278.662 218.836 257.922 213.394C257.922 213.394 214.79 231.124 199.858 229.696C184.2 228.2 178.458 218.182 178.458 218.182" stroke="black" stroke-width="1.5" stroke-linecap="round" stroke-linejoin="round"/>
<path d="M251 180.772C276.456 157.906 300.588 133.61 323.282 108C317.05 97.2 309.146 89.6 299.152 85.884C269.986 118.914 238.34 149.67 204.494 177.884" stroke="black" stroke-width="1.5" stroke-linecap="round" stroke-linejoin="round"/>
<path d="M369.908 232.072C369.756 230.704 363.486 227.93 356.19 225.156C349.35 222.534 337.228 216.756 330.16 213.224C328.732 219.528 325.986 225.458 322.104 230.624C327.652 233.284 332.972 236.438 336.202 236.704C338.338 236.83 340.48 236.546 342.51 235.868C351.098 233.136 370.4 236.974 369.908 232.072Z" stroke="black" stroke-width="1.5" stroke-linecap="round" stroke-linejoin="round"/>
<path d="M334.6 52.978C333.232 52.826 329.2 58.412 324.948 64.948C321.224 70.686 312.37 82.086 306.404 89.496C311.528 92.8262 315.966 97.109 319.476 102.112C323.732 96.184 330.914 90.75 332.054 86.912C332.614 84.846 332.78 82.6936 332.548 80.566C331.718 71.6 339.508 53.51 334.6 52.978Z" stroke="black" stroke-width="1.5" stroke-linecap="round" stroke-linejoin="round"/>
<path d="M144.72 168.878C144.845 167.887 144.78 166.881 144.53 165.914C144.366 165.576 144.165 165.257 143.93 164.964C145.281 165.133 146.648 164.815 147.787 164.069C148.926 163.323 149.762 162.196 150.147 160.889C150.532 159.583 150.439 158.183 149.887 156.938C149.334 155.694 148.357 154.686 147.13 154.096C148.489 153.926 149.742 153.276 150.666 152.265C151.589 151.253 152.121 149.946 152.167 148.577C152.213 147.208 151.769 145.868 150.915 144.797C150.062 143.726 148.854 142.995 147.51 142.734C148.493 142.091 149.256 141.163 149.697 140.075C150.138 138.987 150.236 137.79 149.978 136.644C149.72 135.499 149.118 134.459 148.253 133.665C147.388 132.871 146.301 132.36 145.138 132.2C144.674 132.134 144.205 132.121 143.738 132.162C144.244 131.439 144.57 130.605 144.688 129.73C144.793 128.981 144.749 128.22 144.559 127.488C144.368 126.757 144.036 126.07 143.58 125.467C143.124 124.864 142.554 124.357 141.902 123.975C141.25 123.593 140.529 123.343 139.78 123.24C138.65 123.08 137.497 123.265 136.474 123.772C136.544 123.536 136.595 123.294 136.626 123.05C136.799 121.803 136.558 120.534 135.94 119.437C135.323 118.341 134.363 117.476 133.207 116.977C132.052 116.478 130.765 116.371 129.543 116.673C128.321 116.976 127.232 117.67 126.442 118.65C126.449 117.259 125.953 115.912 125.045 114.857C124.137 113.803 122.879 113.112 121.502 112.912L121.122 112.836C119.779 112.654 118.415 112.95 117.269 113.672C116.122 114.395 115.267 115.498 114.852 116.788C114.404 115.588 113.569 114.572 112.479 113.9C111.389 113.229 110.106 112.939 108.833 113.078C107.56 113.217 106.369 113.777 105.45 114.668C104.531 115.56 103.934 116.732 103.756 118C103.724 118.175 103.712 118.354 103.718 118.532C102.844 117.661 101.71 117.1 100.488 116.932C99.7398 116.826 98.978 116.868 98.2464 117.057C97.5148 117.247 96.8278 117.578 96.2248 118.034C95.6218 118.49 95.115 119.06 94.7332 119.712C94.3514 120.364 94.1022 121.085 94 121.834C93.89 122.639 93.9582 123.458 94.2 124.234C93.7066 124.004 93.1814 123.851 92.642 123.778C91.8934 123.673 91.1314 123.716 90.3996 123.905C89.6678 124.095 88.9804 124.427 88.377 124.882C87.7734 125.337 87.2656 125.907 86.8824 126.559C86.4992 127.21 86.2484 127.931 86.144 128.68C86.0406 129.45 86.0914 130.233 86.2936 130.983C86.4958 131.734 86.8454 132.436 87.322 133.05C85.9672 132.888 84.599 133.212 83.4614 133.966C82.3238 134.719 81.4912 135.852 81.112 137.163C80.733 138.474 80.8322 139.877 81.392 141.121C81.9518 142.365 82.9358 143.37 84.168 143.956C82.8164 144.133 81.5716 144.785 80.657 145.796C79.7422 146.806 79.2174 148.11 79.1762 149.472C79.135 150.835 79.5804 152.168 80.4324 153.232C81.2844 154.296 82.4874 155.022 83.826 155.28C83.145 155.727 82.5684 156.316 82.1356 157.006C81.7028 157.697 81.424 158.472 81.318 159.28C81.1134 160.786 81.5116 162.311 82.4258 163.525C83.34 164.739 84.6964 165.543 86.2 165.762C86.6638 165.836 87.1364 165.836 87.6 165.762C87.1222 166.496 86.8108 167.326 86.688 168.194C86.544 169.231 86.685 170.287 87.0958 171.25C87.5066 172.212 88.172 173.045 89.0202 173.658C89.8684 174.272 90.8676 174.642 91.9104 174.731C92.9534 174.819 94.0008 174.622 94.94 174.16C94.8704 174.383 94.8196 174.612 94.788 174.844C94.679 175.593 94.7196 176.356 94.9074 177.09C95.0954 177.823 95.4268 178.512 95.8828 179.116C96.3386 179.721 96.9098 180.228 97.5634 180.61C98.217 180.993 98.9398 181.241 99.69 181.342C100.68 181.487 101.691 181.366 102.619 180.992C103.547 180.618 104.359 180.005 104.972 179.214C104.97 180.583 105.457 181.907 106.344 182.949C107.232 183.99 108.462 184.681 109.814 184.896C111.166 185.112 112.55 184.838 113.717 184.123C114.884 183.409 115.759 182.301 116.182 181C116.498 181.877 117.023 182.664 117.713 183.292C118.402 183.919 119.235 184.369 120.138 184.601C121.041 184.834 121.987 184.842 122.893 184.625C123.8 184.408 124.64 183.972 125.34 183.356" stroke="black" stroke-width="1.5" stroke-linecap="round" stroke-linejoin="round"/>
<path d="M121.198 167.472L129.254 166.066" stroke="black" stroke-width="1.5" stroke-linecap="round" stroke-linejoin="round"/>
<path d="M339.66 340.334C336.782 339.354 334.146 337.772 331.924 335.696C329.704 333.618 327.95 331.094 326.778 328.288L321.952 316.812L340.496 309.364L342.244 313.468C344.12 317.942 347.644 321.522 352.086 323.468L372.758 332.588C373.038 332.706 373.292 332.88 373.504 333.098C373.716 333.316 373.88 333.576 373.99 333.858C374.1 334.142 374.152 334.444 374.144 334.748C374.134 335.052 374.064 335.352 373.936 335.628C372.18 339.544 369.024 342.664 365.088 344.372C361.15 346.08 356.716 346.256 352.656 344.862L339.66 340.334Z" stroke="black" stroke-width="1.5" stroke-linecap="round" stroke-linejoin="round"/>
<path d="M321.952 316.812L340.496 309.364L334.568 295.38C334.398 294.994 334.086 294.688 333.698 294.526C333.308 294.362 332.872 294.356 332.478 294.506L316.974 300.706C316.776 300.788 316.596 300.908 316.446 301.058C316.294 301.21 316.174 301.39 316.094 301.588C316.012 301.786 315.972 301.998 315.972 302.212C315.974 302.426 316.016 302.636 316.1 302.834L321.952 316.812Z" stroke="black" stroke-width="1.5" stroke-linecap="round" stroke-linejoin="round"/>
<path d="M190.586 155.616C193.073 158.482 196.168 160.757 199.645 162.277C203.122 163.796 206.896 164.522 210.688 164.4" stroke="black" stroke-width="1.5" stroke-linecap="round" stroke-linejoin="round"/>
<path d="M171.472 131.904C174.955 133.352 178.71 134.031 182.48 133.897C186.25 133.763 189.946 132.818 193.318 131.126" stroke="black" stroke-width="1.5" stroke-linecap="round" stroke-linejoin="round"/>
<path d="M70.7336 258.064L242.152 341.36" stroke="black" stroke-width="1.5" stroke-linecap="round" stroke-linejoin="round"/>
<path d="M277.378 344.476C278.388 342.394 278.53 339.998 277.776 337.81C277.02 335.624 275.428 333.826 273.35 332.81L259.29 326.01C257.208 325 254.812 324.858 252.624 325.612C250.438 326.368 248.64 327.96 247.624 330.038L227.902 370.622C226.892 372.704 226.75 375.1 227.504 377.288C228.26 379.474 229.852 381.272 231.93 382.288L245.99 389.128C248.072 390.138 250.468 390.28 252.656 389.526C254.842 388.77 256.64 387.178 257.656 385.1L277.378 344.476Z" stroke="black" stroke-width="1.5" stroke-linecap="round" stroke-linejoin="round"/>
<path d="M65.1479 231.654L70.9619 219.722C73.8171 213.85 78.8867 209.35 85.0569 207.212C91.2273 205.076 97.9935 205.474 103.87 208.322L260.734 284.522C266.606 287.378 271.106 292.446 273.244 298.618C275.38 304.788 274.982 311.554 272.134 317.43L266.32 329.4" stroke="black" stroke-width="1.5" stroke-linecap="round" stroke-linejoin="round"/>
<path d="M44.8181 291.39L231.968 382.286" stroke="black" stroke-width="1.5" stroke-linecap="round" stroke-linejoin="round"/>
<path d="M338.026 134.64L341.066 154.096" stroke="black" stroke-width="1.5" stroke-linecap="round" stroke-linejoin="round"/>
<path d="M349.274 142.848L329.818 145.888" stroke="black" stroke-width="1.5" stroke-linecap="round" stroke-linejoin="round"/>
<path d="M111.014 64.91C111.012 67.3822 110.278 69.7986 108.903 71.8536C107.528 73.9084 105.575 75.5096 103.291 76.4546C101.006 77.3996 98.4928 77.646 96.068 77.1628C93.6434 76.6794 91.4166 75.4882 89.669 73.7394C87.9214 71.9906 86.7314 69.763 86.2496 67.338C85.768 64.9132 86.016 62.3998 86.9624 60.1158C87.909 57.8318 89.5114 55.8798 91.5672 54.5064C93.6228 53.133 96.0396 52.4 98.512 52.4C100.155 52.3982 101.782 52.7206 103.3 53.3486C104.819 53.9768 106.198 54.8984 107.359 56.0604C108.521 57.2226 109.441 58.6024 110.068 60.121C110.696 61.6396 111.017 63.267 111.014 64.91Z" stroke="black" stroke-width="1.5" stroke-linecap="round" stroke-linejoin="round"/>
<path d="M96.2 43.554C97.7846 46.2276 98.5858 49.2928 98.512 52.4C95.674 51.1594 93.2392 49.1506 91.482 46.6C89.894 43.9246 89.0906 40.8564 89.164 37.746C92.0052 38.9878 94.4424 40.9996 96.2 43.554Z" stroke="black" stroke-width="1.5" stroke-linecap="round" stroke-linejoin="round"/>
<path d="M181.132 200.982L159.008 196.048" stroke="black" stroke-width="1.5" stroke-linecap="round" stroke-linejoin="round"/>
<path d="M181.352 195.554C167.975 196.749 154.504 196.341 141.224 194.338" stroke="black" stroke-width="1.5" stroke-linecap="round" stroke-linejoin="round"/>
<path d="M43.032 175.49L43.906 180.354" stroke="black" stroke-width="1.5" stroke-linecap="round" stroke-linejoin="round"/>
<path d="M40.1059 185.75L35.2419 186.624" stroke="black" stroke-width="1.5" stroke-linecap="round" stroke-linejoin="round"/>
<path d="M54.166 183.318L49.302 184.154" stroke="black" stroke-width="1.5" stroke-linecap="round" stroke-linejoin="round"/>
<path d="M46.338 194.414L45.502 189.55" stroke="black" stroke-width="1.5" stroke-linecap="round" stroke-linejoin="round"/>
<path d="M49.302 184.154C48.6978 184.261 48.0785 184.247 47.4795 184.114C46.8805 183.98 46.3138 183.73 45.812 183.377C45.31 183.024 44.883 182.575 44.5552 182.056C44.2274 181.537 44.0055 180.959 43.9021 180.354C44.0089 180.958 43.9953 181.578 43.8619 182.177C43.7285 182.776 43.4781 183.342 43.1249 183.844C42.7719 184.346 42.3228 184.773 41.8042 185.101C41.2854 185.429 40.7071 185.651 40.1021 185.754C40.7065 185.647 41.3258 185.661 41.9246 185.794C42.5236 185.928 43.0905 186.178 43.5923 186.531C44.0941 186.884 44.5211 187.333 44.8489 187.852C45.1767 188.371 45.3986 188.949 45.502 189.554C45.3952 188.95 45.4088 188.33 45.5422 187.731C45.6756 187.132 45.9261 186.566 46.2793 186.064C46.6325 185.562 47.0812 185.135 47.6 184.807C48.1188 184.479 48.6972 184.257 49.302 184.154Z" stroke="black" stroke-width="1.5" stroke-linecap="round" stroke-linejoin="round"/>
<path d="M310.476 232.376C313.816 246.456 312 261.268 305.356 274.124C298.712 286.98 287.68 297.028 274.262 302.448" stroke="black" stroke-width="1.5" stroke-linecap="round" stroke-linejoin="round"/>
<path d="M196.552 150.828C198.034 148.092 199.82 144.862 199.82 144.862C200.656 143.152 200.456 129.582 201.758 126.662C202.098 125.902 208.452 118.462 211.448 114.844C213.998 111.77 216.35 111.424 210.004 121.57" stroke="black" stroke-width="1.5" stroke-linecap="round" stroke-linejoin="round"/>
<path d="M76.1999 246.74C77.2091 244.658 77.3519 242.262 76.5969 240.074C75.8419 237.888 74.2505 236.09 72.1719 235.074L58.1499 228.274C56.0681 227.264 53.6713 227.122 51.4845 227.876C49.2977 228.632 47.4993 230.224 46.4839 232.302L26.7239 272.886C25.7147 274.968 25.5719 277.364 26.3269 279.552C27.0819 281.738 28.6733 283.536 30.7519 284.552L44.8119 291.392C46.8937 292.402 49.2905 292.544 51.4773 291.79C53.6641 291.034 55.4625 289.442 56.4779 287.364L76.1999 246.74Z" stroke="black" stroke-width="1.5" stroke-linecap="round" stroke-linejoin="round"/>
<path d="M241.582 10L241.164 48.152L265.104 89.648L265.522 51.496L241.582 10Z" stroke="black" stroke-width="1.5" stroke-linejoin="round"/>
<path d="M251.09 65.5034L238.55 77.9674L235.092 119.881L265.15 89.8234L251.09 65.5034Z" stroke="black" stroke-width="1.5" stroke-linejoin="round"/>
</svg>
