<svg width="400" height="400" viewBox="0 0 400 400" fill="none" xmlns="http://www.w3.org/2000/svg">
<path d="M232.28 286.66C230.08 280.8 219.14 284.66 209.46 276.66C205.46 273.32 201.46 260.06 201.46 260.06C201.46 260.06 211.46 267.18 217.24 261.94C223.02 256.7 220.4 241.52 209.24 245.44C197.4 249.64 194.32 245.14 180.8 240.52C167.28 235.9 159.22 244.38 159.22 244.38C138.44 241.92 125.72 246.16 115.98 251.54C107.38 241.54 91.38 248.7 83.42 256.2C74.2 264.88 75.98 271.96 77.04 274.2C65.38 283.24 65.04 292.42 65.86 299.24C66.5362 306.412 69.4188 313.198 74.1108 318.662C78.8028 324.128 85.0736 328.006 92.06 329.76C92.06 329.76 91.74 344.76 95.9 346.12C100.06 347.48 101.68 342.3 109.9 338.12C118.78 335.8 128.2 326.6 123.24 320.12C134.3 326.98 150.98 322.8 152.36 305C157.8 315.56 182.78 314.28 196.36 308.42C198 321 194 332.9 188.56 338C180.56 345.44 173.98 344.84 169.88 348.36C165.78 351.88 175.52 362.66 197.88 348.78C217.7 336.46 219.14 315.32 205.36 298.22C219.04 302 234.56 292.72 232.28 286.66ZM117.78 288.88C117.64 289.2 115.06 274.32 128.28 267.42C137.38 262.66 147.9 265.9 149.08 273.16C150.62 282.68 124.5 271.32 117.78 288.88Z" fill="#3D9CFB"/>
<path d="M86.5004 228.46C80.2204 224.18 90.7604 189.34 102.32 189.9C115.92 190.56 136.64 220.46 129.38 231.26C125.4 237.18 97.0004 235.6 86.5004 228.46Z" fill="#3D9CFB"/>
<path d="M50.8404 204C48.0604 202 52.7204 186 57.8204 186.18C63.8204 186.48 72.9804 200.3 69.8204 205.3C68.0004 208 55.4804 207.34 50.8404 204Z" fill="#3D9CFB"/>
<path d="M140.5 194.64C138.2 193.04 142.04 180.12 146.24 180.32C151.18 180.58 158.7 191.66 156.06 195.68C154.62 197.88 144.3 197.28 140.5 194.64Z" fill="#3D9CFB"/>
<path d="M275.04 61.06C275.04 61.06 294.18 48.14 299.92 51.3C306.66 55.02 302.98 57.5 306.66 60.82C311.48 65.18 331.54 58.36 335.42 62.82C340.58 68.82 331.42 75 334.12 80.96C336.82 86.92 350.7 87.9 350.7 91.22C350.7 95.64 344.7 95.04 344.24 99.22C344 101.04 347.5 109.1 344.78 110.48C342.06 111.86 331.66 99.16 324.48 100.36C319.22 101.24 315.24 107.84 310.14 107.7C302.28 107.48 287.74 93.08 282.9 96.18C278.06 99.28 276.52 107.68 271.46 107.48C266.4 107.28 260.42 93.84 256.64 94.78C252.86 95.72 246 107.88 242 107.04C237.696 105.812 233.236 105.219 228.76 105.28C223.88 105.46 212.22 112.28 204.56 110.74C200.56 109.94 197.44 105.46 194.02 106.36C188.38 107.82 183.56 116.66 181.24 115.02C179.34 113.68 182.76 107.9 181.24 104.9C180.36 103.24 175.24 102.3 174.66 99.34C173.88 96 188.74 91.08 189.06 86C189.38 80.92 186.26 82 187.92 76.78C189.58 71.56 205 74.9 210.44 76.02C217.34 84.78 229.62 96.02 257.62 86.96C272.88 82 275.04 61.06 275.04 61.06Z" fill="#3D9CFB"/>
<path d="M261.16 183.8C256.9 185.22 253.06 185.92 249.28 183.28C249.004 183.08 248.69 182.937 248.356 182.859C248.024 182.781 247.68 182.768 247.342 182.823C247.006 182.878 246.682 182.999 246.392 183.178C246.102 183.358 245.85 183.593 245.65 183.87C245.45 184.147 245.308 184.461 245.23 184.793C245.15 185.126 245.138 185.47 245.194 185.807C245.248 186.144 245.368 186.467 245.548 186.758C245.728 187.048 245.964 187.3 246.24 187.5C251.9 191.5 257.86 190.48 263.04 188.66C263.684 188.411 264.204 187.916 264.484 187.284C264.762 186.652 264.78 185.935 264.53 185.29C264.28 184.646 263.786 184.127 263.154 183.847C262.522 183.568 261.804 183.551 261.16 183.8Z" fill="#001434"/>
<path d="M260.74 159.84C257.174 158.188 253.184 157.685 249.32 158.4C245.32 159.16 242.34 161.28 243.62 163.36C243.968 163.951 244.53 164.384 245.19 164.571C245.85 164.757 246.556 164.681 247.16 164.36C250.32 162.36 255.44 162.88 259.44 164.7C260.008 164.687 260.554 164.491 261 164.141C261.446 163.791 261.766 163.305 261.914 162.758C262.06 162.21 262.024 161.629 261.814 161.103C261.602 160.577 261.226 160.134 260.74 159.84Z" fill="#001434"/>
<path d="M205.08 126.98C209.5 125.42 212.1 123.64 218.02 124.24C221.84 124.64 221.88 119.36 218.28 118.86C213.314 118.454 208.338 119.548 204 122C200.98 123.64 203 127.74 205.08 126.98Z" fill="#001434"/>
<path d="M214 129.62C187.46 132.96 194.42 168.82 218.14 166.82C242.62 164.76 237.86 126.64 214 129.62ZM228.28 154.12C227.352 156.419 225.712 158.361 223.6 159.66C217.6 154.5 208.36 147.84 202.76 143.92C208.6 126.74 235.74 135.38 228.36 154.12H228.28Z" fill="#001434"/>
<path d="M247.72 153.4C247.976 153.666 248.284 153.876 248.626 154.014C248.966 154.152 249.334 154.216 249.702 154.201C250.07 154.186 250.432 154.094 250.762 153.929C251.09 153.764 251.382 153.531 251.614 153.246C251.848 152.96 252.016 152.628 252.112 152.272C252.206 151.916 252.224 151.543 252.164 151.18C252.104 150.816 251.968 150.469 251.764 150.163C251.56 149.856 251.292 149.596 250.98 149.4C243.08 144.44 250.52 135.74 258.12 138.94C261.24 140.26 263.36 135.28 260.12 134.16C257.848 133.339 255.412 133.068 253.014 133.366C250.616 133.665 248.322 134.527 246.32 135.88C240.92 140 239.58 147.84 247.72 153.4Z" fill="#001434"/>
<path d="M291.74 122.46C263.74 122.34 267.46 163.2 292.86 160.46C317.32 158 314.78 122.56 291.74 122.46ZM298.7 153.26C292.9 148.1 283.36 141.26 277.48 137.12C287.14 114.6 318.92 136.42 298.7 153.26Z" fill="#001434"/>
<path d="M266.5 169.44C263.6 171.82 257.32 174.34 255.32 169.66C255.104 169.155 254.734 168.731 254.264 168.448C253.794 168.164 253.248 168.036 252.7 168.08C247.74 168.4 251.54 175.78 243.08 169.8C240.32 167.8 237.82 171.3 239.92 173.94C242.42 177.1 250.28 180.26 253.28 175.5C257.88 181.5 267.28 176.3 270.12 172.7C270.508 172.214 270.696 171.598 270.646 170.978C270.596 170.357 270.31 169.78 269.846 169.364C269.384 168.947 268.78 168.723 268.158 168.737C267.536 168.752 266.942 169.003 266.5 169.44Z" fill="#001434"/>
<path d="M279.5 116.74C283.884 115.678 288.476 115.83 292.78 117.18C294.78 117.7 296.38 113.84 293.94 112.26C290.2 109.82 281.46 110.26 278.12 111.72C277.79 111.811 277.482 111.965 277.212 112.175C276.942 112.385 276.716 112.646 276.548 112.943C276.378 113.24 276.27 113.568 276.228 113.907C276.184 114.246 276.21 114.59 276.3 114.92C276.39 115.25 276.546 115.558 276.756 115.828C276.966 116.098 277.226 116.324 277.524 116.493C277.82 116.662 278.148 116.771 278.488 116.813C278.826 116.855 279.17 116.831 279.5 116.74Z" fill="#001434"/>
<path d="M57.4601 199.3C54.6601 199.54 54.7001 203.3 58.2001 203C61.0801 202.62 60.9401 198.76 57.4601 199.3Z" fill="#001434"/>
<path d="M107.34 221C110.68 220.22 110.84 219.48 110.66 211.6C110.48 203.1 109.68 189.94 100.78 191.6C91.5404 191.86 99.3204 222.92 107.34 221Z" fill="#001434"/>
<path d="M90.4004 308.82C86.8604 309.18 85.7804 310.1 85.9804 311.92C86.1404 313.26 87.1604 314.42 89.9804 314.22C92.2804 314.06 96.3604 316.34 97.8004 320.84C99.2404 325.34 103.54 323 102.92 319.3C102.22 314.34 97.1404 308.14 90.4004 308.82Z" fill="#001434"/>
<path d="M108.52 223.8C101.6 225.14 102.3 234.72 108.92 234.26C116.34 233.74 116 222.34 108.52 223.8Z" fill="#001434"/>
<path d="M59.2005 194.56C59.1685 192.987 58.8217 191.437 58.1805 190C57.6205 189.2 55.1405 189.22 54.1805 190C52.5205 191.3 53.9005 198.2 56.4605 198.18C58.1605 198 59.5405 197.58 59.2005 194.56Z" fill="#001434"/>
<path d="M385.5 282.22C380.244 281.6 374.954 281.294 369.66 281.3C384.76 261.78 390 249.08 390 233.3C390 201.64 359.54 166.46 336.34 151.58C346.16 147.02 353.96 136.68 352.98 125.26C360.42 121.78 356.76 109.84 357.92 103.12C360.38 98.58 367.52 97.72 366.06 89C364.86 75.94 341.26 83.5 346.48 69.2C347.56 65.08 349.06 59.42 344.6 54.84C339.98 48.94 321.14 53.64 314.9 50.56C312.1 29.82 299.24 33.72 284.26 42.98C255.58 12 202 22.48 166.18 46C148.8 57.52 122.66 86.64 139.88 151.72C117.54 151.34 89.8802 150.72 66.3802 150.54C8.84022 150 2.62024 156.76 15.8002 204.36C19.8002 226.26 25.8002 253.82 29.2802 269.32C32.7402 283.32 32.8602 298.08 44.2202 304.04C33.1802 323.22 45.6002 328.04 60.2202 319.7C65.1178 326.598 71.719 332.11 79.3802 335.7C78.1002 365.16 94.1402 357.52 107.38 341.88C111.98 338.78 117.26 339.88 122.28 335.3C144.42 350.14 163.82 340.24 188.64 333.96C182.2 345.52 149.36 347.18 146.64 357.4C143.72 368.58 150.88 375.68 159.82 376.26C180.6 377.6 214.44 357.96 217.82 327.4C233.18 323.7 270.82 315.28 279.44 310.76C283.74 308.76 283.78 303.02 283.78 299.9C283.98 293.44 281.14 291.9 264.72 286.02C296.2 288.22 361.96 286.4 384.72 286.5C388 286.52 388.9 282.18 385.5 282.22ZM341.22 142.82C331.48 150.26 326.94 147.36 326.74 156.14C326.16 183.22 284.88 195.78 251.86 197.56C246.4 197.84 241.72 197.36 236.86 197.18C221.56 196.62 211.12 191.9 205.52 187.18C199.379 182.253 194.401 176.032 190.94 168.96C185.059 155.425 183.766 140.338 187.26 126C193.46 118.32 192.94 116 195.56 115.6C197.56 115.24 202.84 119.3 207.56 118.42C214.72 117.12 222.16 109.46 228.08 107.36C234.08 108.36 239.06 117.36 246.08 115.94C253.26 115.3 255.36 104.14 260.56 101.94C264.16 103.2 266.32 109.6 272.14 108.88C284.54 106.62 278.58 92.46 292.7 106.76C299.72 114.16 305.22 117 310.94 116.62C317.8 116.18 321.28 109.9 325.84 110.02C331.46 110.16 340.02 125.28 347.84 126.02C348.254 129.152 347.864 132.338 346.706 135.277C345.548 138.217 343.66 140.812 341.22 142.82ZM286.42 47.86C292.08 44.04 301.78 39.7 304.96 40.76C309.36 42.24 307.8 50.76 310.96 54.02C315.24 59.88 335.46 54.44 340.96 58.54C345.9 63.66 336.68 73.6 342.48 79.44C346.34 84.84 359.7 83.76 361.02 89.9C360.82 98.54 350.08 95.64 352.64 110.56C354.08 137.4 335.02 102.98 325.38 104.8C318.88 105.6 316.82 111.84 309.82 111.74C299.82 111 284.72 84 275.98 100.42C274.7 102.42 273.98 103.5 271.88 103.64C267.66 103.36 265.74 95.84 260.16 96.72C253 97 251.08 109 245.32 110.72C239.98 110.72 234.62 101.78 228.52 102.08C220 102.5 210.34 118.08 200.52 111.24C199.793 110.688 198.959 110.292 198.07 110.079C197.182 109.865 196.259 109.838 195.36 110C188.74 110.6 182.98 128.94 176.28 125.48C170.98 123.22 178.78 113.64 171.96 107.08C165.96 101.38 158.58 97.94 170.62 93.46C197.56 83.46 151.14 67.46 202.42 68.74C212.76 101.8 275.78 100.36 277.44 62.74C283.66 60.3 288 54.42 286.42 47.86ZM169.06 50.24C196.16 32.1 228.66 24.64 255.66 31.68C271.24 35.68 290.32 47.08 276.78 57.3C275.884 54.0956 274.308 51.1218 272.16 48.58C269.94 46.04 266.5 48.76 268.78 51.24C274.12 57 273.76 69.84 268.06 75.24C266.646 71.7628 264.702 68.5246 262.3 65.64C261.854 65.1096 261.216 64.778 260.526 64.7178C259.836 64.6578 259.15 64.8744 258.62 65.32C258.09 65.7656 257.758 66.4036 257.698 67.0938C257.638 67.784 257.854 68.4696 258.3 69C260.46 71.56 263.58 76.48 263.76 79.66C258.484 83.7028 252.178 86.1834 245.56 86.82C244.854 82.0932 243.38 77.5132 241.2 73.26C240.888 72.6448 240.342 72.179 239.686 71.9652C239.03 71.7514 238.316 71.807 237.7 72.12C237.084 72.433 236.62 72.9776 236.406 73.634C236.192 74.2904 236.248 75.0048 236.56 75.62C238.418 79.237 239.694 83.125 240.34 87.14C223.46 87.3 206.12 77.56 205.7 57.82C205.68 57.1286 205.386 56.4736 204.884 55.9978C204.382 55.5218 203.712 55.2638 203.02 55.28C199.02 55.7 200.84 60.82 201.02 63.4C180.16 62.22 166.06 67 173.42 81.28C176.12 86.54 172.76 86.54 168.5 88.66C149.36 96.66 159 104.08 169.66 112.78C170.24 116.96 167.66 122.78 170.44 127.12C160.68 130.86 146.6 132.2 141.12 132.58C135.32 95.22 144.94 66.38 169.06 50.24ZM38.8202 287.14C32.4002 260.54 27.4202 236.44 20.9202 203.44C18.9202 191.64 11.5802 170.58 17.1202 163.02C32.3402 149.88 95.3602 157.64 121.56 156.52C139.48 158 154.66 154 166 162.88C176.8 171.42 177.32 212.08 183.74 226.3C176.96 224.1 165.24 228.92 161.36 231.96C157.273 231.536 153.157 231.484 149.06 231.8C142.12 213.8 115.06 174.7 98.0402 179.46C83.1402 183.64 70.2202 226.14 69.1402 241.84C58.3802 249.84 57.5202 264.24 61.4002 269.2C45.8802 281.2 52.2802 294.84 47.0402 299.64C44.0002 298.26 40.3402 293.46 38.8202 287.14ZM196.92 237.84C210.44 247.12 222.48 235.46 226.22 244.74C229.18 252.08 216.38 260.74 212.06 262.74C200.06 250.94 190.06 236.62 169.68 233.22C179.06 228 190.16 233.2 196.92 237.84ZM76.9202 256.7L78.9202 257.82C74.022 259.656 69.4658 262.3 65.4402 265.64C57.7402 246.56 90.8402 233.28 105.82 241.64C119.44 247.26 110.96 258.36 97.0202 257.32C87.6402 256.7 84.0602 254.94 79.7002 252.3C79.1196 252 78.4472 251.93 77.817 252.102C77.1868 252.276 76.645 252.68 76.2994 253.236C75.954 253.79 75.83 254.454 75.9526 255.096C76.075 255.738 76.4348 256.312 76.9602 256.7H76.9202ZM75.1202 237.98C77.4402 224.78 89.1202 187.42 100.18 185.1C111.24 182.78 137.02 215.64 142.84 232.36C132.921 233.132 123.325 236.244 114.84 241.44C108.68 234.56 89.8002 230.36 75.1602 238L75.1202 237.98ZM122.86 326.34C117.08 336.34 111.1 332.58 103.98 337.84C95.4202 345.84 83.4602 361.36 84.3002 337.84C88.3002 340.56 94.8402 337.46 89.3002 333.84C77.6202 331 63.3002 320.58 60.7802 308.7C60.6316 308.026 60.2226 307.436 59.642 307.062C59.0614 306.688 58.3562 306.558 57.6802 306.7C53.7802 307.94 56.6002 312.7 57.5402 315.2C54.1002 316.74 49.0002 320.66 46.0202 318.76C41.1802 315.66 54.1602 301.12 54.5602 292.88C55.6802 277.04 73.5602 262.88 86.8602 261.08C99.3202 265.4 121.4 260.1 117.44 246.08C136.02 233.26 176.42 233.36 193.6 250.86C188.64 247.34 178.14 246.98 171.6 249.66C164.12 252.7 159.38 257.28 162.1 260.38C162.349 260.622 162.646 260.808 162.971 260.928C163.296 261.048 163.643 261.1 163.989 261.08C164.335 261.06 164.673 260.966 164.981 260.808C165.29 260.65 165.562 260.43 165.78 260.16C184.38 241.98 206.86 265.92 220.46 276.3C225.64 279.4 241.66 275.76 243.5 281.6C245.68 293.88 226.54 301.6 216.08 301.28C210.08 300.92 202.36 294.06 199.92 291.44C197.48 288.82 193.76 292.58 196.12 295C197.672 296.614 199.329 298.124 201.08 299.52C196.22 313.68 172.14 317.64 156.66 315.28C157.14 305.28 153.54 298.64 146.96 292.42C166.36 275.84 145.22 251.56 124.3 267.4C115.62 273.98 109.18 285.28 113.82 293.4C114.177 293.972 114.742 294.384 115.397 294.548C116.051 294.712 116.744 294.614 117.328 294.276C117.912 293.938 118.342 293.388 118.527 292.738C118.712 292.09 118.638 291.396 118.32 290.8C115.58 286.02 119.72 277.26 127.38 271.66C131.18 267.02 149.84 263.98 149.54 278.04C148.88 283.5 143.4 289.5 138.24 293C134.58 296.5 140.5 299.62 143.02 295.96C163.48 312.68 142.8 338.12 123.8 320.2C118.76 316.96 117.44 323.66 122.9 326.34H122.86ZM178.12 331.36C156.12 336.96 145.04 343.06 125.84 331.26C126.32 330.606 126.8 329.886 127.28 329.1C135.76 334.7 152.68 328.84 155.28 320.32C167.14 322.72 185.28 319.6 193.66 315C194.076 319.262 193.55 323.564 192.12 327.6C186.94 328.96 182.32 330.22 178.16 331.36H178.12ZM189.1 361.24C180.6 366.18 171.3 371.04 162.8 371.24C155.26 371.42 150.42 367.12 151.58 360.4C152.36 355.86 158.76 354.4 163.2 352.52C180.4 345.48 201.96 344.02 198.42 311.66C201.318 309.158 203.662 306.08 205.3 302.62C219.16 315.82 213.72 346.62 189.14 361.24H189.1ZM278.46 299.12C278.46 300.72 278.6 305.12 277.22 305.96C269.66 310.16 233.42 318.32 218 321.96C217.708 316.588 216.496 311.304 214.42 306.34C227.74 307.46 245.56 299.36 248.8 286.08C267.16 292.32 278.56 295.5 278.5 299.12H278.46ZM248.46 280.52C243.3 266.52 224.06 278.22 216.16 266.52C227.38 260.74 233.64 249.54 230.6 242.52C227.7 235.76 222.76 235.58 212.08 236.86C202.78 237.96 198.3 231.02 189.84 228.18C183.62 212.44 182.9 192.18 178.92 176.88C175.32 162.5 168.2 152 145.28 151.76C143.98 147 142.9 142.34 142.04 137.76C148.76 137.26 165.14 135.6 175.44 130.66C177.409 131.287 179.538 131.188 181.44 130.38C176 168 195.8 200 235.06 201.72C227.42 209.28 228.16 217.22 217.58 208.56C217.1 208.062 216.45 207.76 215.76 207.712C215.07 207.664 214.386 207.874 213.84 208.3C212.1 210.02 213.34 212.74 218.2 215.76C224.2 219.48 228.6 219.94 233.82 212.62C238.46 206.16 240.74 202.44 243.08 202.34C249.08 202.04 248.2 217.34 260.18 219.42C266.32 220.5 270.94 216.9 274.62 212.8C276.9 210.26 273.86 206.6 271.1 209.04C265.84 213.7 257.78 219.04 251.54 202.34C283.54 201.22 332.4 189.06 331.54 154.9C345.34 162.26 367.36 181.3 377.08 201.78C357.08 202.18 327.08 212.16 303.64 234.3C299.64 227.5 298.2 222.76 295.02 223.48C292.34 224.08 292.68 228.16 298.76 238.18C282.36 255.46 276.32 274.18 275.36 281.08C266 280.76 256 280.5 248.54 280.52H248.46ZM281.26 281.32C284.028 268.168 290.224 255.984 299.22 246C319.76 222.62 350.02 205.7 379.5 207C393.16 239.52 380.54 259.28 362.84 281.26C305.36 281.72 333.28 283.2 281.34 281.32H281.26Z" fill="#001434"/>
<path d="M96.46 286.6C96.02 281.56 92.06 278.6 86.46 279C82.16 279.3 79.96 282.78 81.86 284.46C83.76 286.14 85.3 283 88.24 284.32C88.8292 284.58 89.339 284.99 89.7174 285.51C90.096 286.032 90.3298 286.644 90.3948 287.284C90.4598 287.924 90.354 288.57 90.0878 289.156C89.8218 289.742 89.405 290.248 88.88 290.62C82.98 288.44 81.92 294.9 84.88 299.44C88.66 306.28 98.24 302.08 93.38 294.26C95.38 291.6 98.78 290.1 100.54 294.7C101.68 297.7 99.92 300.96 102.54 301.94C107.72 304 108.78 285.52 96.46 286.6Z" fill="#001434"/>
<path d="M68.74 289.4C65.2 289.4 64.02 290.14 64.02 291.98C64.02 293.34 64.9 294.6 67.82 294.72C69.609 295.112 71.2374 296.036 72.4906 297.37C73.7438 298.706 74.563 300.39 74.84 302.2C75.72 306.66 80.28 304.98 80.1 301.26C79.86 296.24 75.52 289.48 68.74 289.4Z" fill="#001434"/>
<path d="M40.7602 240.52C36.2602 217.58 26.4002 182.22 30.5202 174.16C33.9202 167.56 54.0402 170.16 64.9002 169.24C87.1202 169.24 110.8 168.7 141.54 169.06C152.22 169.3 161 167.98 164.32 178.66C165.36 181.98 169.04 182.66 168.48 177.68C166.92 163.68 153.98 164.1 141.62 163.84C119.62 163.6 88.9602 163.84 77.3602 164.06C18.0003 164 17.7003 157.02 30.4802 217.7C32.6402 223.42 36.2602 251.04 39.7002 265.56C41.5202 273.26 42.6602 275.9 44.5802 275.38C46.5002 274.86 46.2802 272.38 44.9802 265.72C43.6802 259.06 41.3202 246 40.7602 240.52Z" fill="#001434"/>
<path d="M43.8401 190.18C38.7201 200.38 38.9801 206.18 41.8401 208.92C45.4401 212.4 55.4201 209.86 62.8001 209.56C78.3801 208.92 78.6201 200.56 68.8001 188.88C58.9801 177.2 51.3401 175.26 43.8401 190.18ZM69.3801 201.64C69.0201 204.28 58.4401 204.96 53.6201 205.28C45.4601 205.84 42.6801 204.94 48.3801 192.74C53.2401 182.3 57.7201 182.74 64.7201 192.22C66.9801 195.32 69.6801 199.32 69.3801 201.64Z" fill="#001434"/>
<path d="M149.36 192.22C150.84 192.22 151.5 191.18 151.02 188.94C150.64 185.08 149.28 182.04 146.62 184.54C145.24 185.84 146.9 192.42 149.36 192.22Z" fill="#001434"/>
<path d="M147.08 176.24C137.9 178 133.78 197.26 137.3 200.64C141.3 204.42 147.74 202.52 153.84 202.24C165.52 201.68 166.66 195.74 161.1 187.1C155.32 178.1 151.18 175.46 147.08 176.24ZM160 195.6C158.96 197.48 156.66 197.6 154.48 197.78C143.16 198.62 135.46 202.92 142.48 186.36C149.24 170.36 161.44 193.06 160 195.6Z" fill="#001434"/>
<path d="M150.1 193.1C147.66 193.34 147.7 196.92 150.76 196.58C153.28 196.22 153.16 192.6 150.1 193.1Z" fill="#001434"/>
</svg>
