<svg width="400" height="400" viewBox="0 0 400 400" fill="none" xmlns="http://www.w3.org/2000/svg">
<path d="M191.12 69.14C191.58 68.76 191.62 67.7 191.7 66.66C192.34 54.7362 192.38 42.7878 191.82 30.86C191.56 28.2 191.46 28.1 188.62 27.88C180.94 27.22 148.02 27.88 146.5 29.28C145.46 30.28 145.98 65.54 146.92 68.72C146.99 68.8671 147.097 68.9939 147.23 69.0884C147.363 69.1829 147.518 69.242 147.68 69.26C150.22 69.68 188.94 70.94 191.12 69.14ZM146.94 29.72C148.64 28.62 186.18 28.42 190.16 29.52C191.18 34.4 190.58 65.02 190 68.04C182.94 69 152.12 68.36 148.14 67.94C147.054 55.2307 146.654 42.4723 146.94 29.72ZM192.96 80.52C192.929 80.3042 192.841 80.1009 192.703 79.9317C192.566 79.7626 192.385 79.6341 192.18 79.56C188.74 78.32 149.48 79.14 147.92 80.64C146.94 81.56 147.3 116.64 148.32 120.08C148.39 120.227 148.497 120.354 148.63 120.448C148.763 120.543 148.918 120.602 149.08 120.62C152.36 121.16 187.24 122 191.84 120.8C192.52 120.62 192.74 120.36 192.86 119.92C193.66 116.9 194 84.6 192.96 80.52ZM191.4 119.38C184.32 120.34 153.66 119.74 149.54 119.38C148.6 114.68 147.84 84.08 148.34 81.16C150.12 79.96 187.9 79.94 191.56 80.94C192.5 85.38 192 116 191.4 119.38ZM244.8 68.7C245.24 68.34 245.28 67.26 245.38 66.22C245.98 54.2942 245.98 42.3458 245.38 30.42C245.12 27.76 245 27.68 242.2 27.44C234.5 26.8 201.6 27.44 200.08 28.84C199.04 29.82 199.54 65.1 200.5 68.28C200.558 68.432 200.658 68.5639 200.79 68.6597C200.921 68.7556 201.078 68.8113 201.24 68.82C204 69.26 242.6 70.5 244.8 68.7ZM200.62 29.28C204.62 28.06 240.26 28.08 243.82 29.08C244.76 33.56 244.34 64.1 243.66 67.6C236.58 68.56 205.9 67.94 201.8 67.6C200.711 54.8575 200.317 42.0653 200.62 29.28ZM72.4 146.88C72.68 147.66 73.72 148 74.58 148.2C81.9 149.98 108.78 149.02 117.08 147.44C117.96 147.28 119.72 146.96 120.2 146.22C122.04 143.26 121.3 95.68 119.1 93.04C116.9 90.4 78.24 90.86 74.84 93.46C72.28 95.44 71.68 144.8 72.4 146.88ZM75.7 94.48C78.94 92.22 117.08 91.56 118.62 93.42C120.62 95.82 120.38 142.6 119 145.42C115.26 147.42 78.6 148.68 73.86 146.38C73.22 146 73.82 98.58 75.7 94.48ZM23.52 161.06C23.679 161.298 23.8926 161.495 24.1431 161.634C24.3935 161.774 24.6736 161.851 24.96 161.86C32.1477 162.447 39.3758 162.326 46.54 161.5C47.1944 161.474 47.8241 161.243 48.34 160.84C49.42 159.42 48.86 139.52 47.64 138.32C46.42 137.12 26.9 137.06 24.94 138.32C24.6405 138.576 24.442 138.931 24.38 139.32C23.476 146.529 23.1883 153.802 23.52 161.06ZM47.18 160C43.6278 160.495 40.0463 160.749 36.46 160.76C36.7277 160.216 37.0282 159.688 37.36 159.18C38.5474 157.626 40.0938 156.383 41.8668 155.558C43.6397 154.732 45.5864 154.349 47.54 154.44C47.5315 156.299 47.4113 158.156 47.18 160ZM25.8 139.38C28.2 138.44 46.62 138.18 47.22 138.76C47.4009 139.365 47.5084 139.989 47.54 140.62C44.48 141.02 44 146.8 43.92 149.88C42.6797 147.868 41.3031 145.944 39.8 144.12C39.2735 143.699 38.6491 143.417 37.9848 143.302C37.3204 143.186 36.6376 143.241 36 143.46C34.54 144.1 34.82 145.9 35.02 147.32C35.5335 149.138 36.2585 150.89 37.18 152.54C35.98 151.58 31.18 147.7 29.82 147.46C28.46 147.22 27.14 147.3 26.46 148.5C24.46 152.02 29.28 157.86 32.14 160.72C29.7336 160.751 27.328 160.618 24.94 160.32C24.7011 153.328 24.9886 146.329 25.8 139.38Z" fill="black"/>
<path d="M16.3998 168.42C16.6798 169.08 17.5998 169.32 18.3998 169.46C24.3998 170.7 45.9998 170 52.6998 168.92C53.4598 168.78 54.8998 168.56 55.3198 168C56.8798 165.88 56.2198 132.76 54.3998 130.84C52.8598 129.24 21.4598 129.1 18.5198 131.02C18.1327 131.392 17.8856 131.887 17.8198 132.42C16.2798 138.46 15.7998 166.94 16.3998 168.42ZM19.2798 132.12C22.0398 130.62 52.6598 130.12 53.8798 131.28C55.0998 132.44 55.2798 163.74 54.1198 167.1C50.2598 168.34 26.4998 169.34 17.8198 167.82C17.4198 166.46 17.7798 136.4 19.2798 132.12ZM321.06 127.6C321.836 128.488 322.664 129.329 323.54 130.12C323.56 130.154 323.587 130.183 323.62 130.206C323.652 130.229 323.689 130.244 323.728 130.251C323.767 130.259 323.807 130.258 323.845 130.249C323.884 130.239 323.92 130.222 323.951 130.198C323.983 130.174 324.008 130.143 324.027 130.108C324.046 130.073 324.057 130.035 324.059 129.995C324.062 129.956 324.056 129.916 324.043 129.879C324.029 129.842 324.008 129.808 323.98 129.78C322.438 126.758 320.261 124.104 317.6 122C317.549 121.944 317.479 121.911 317.404 121.907C317.329 121.903 317.256 121.93 317.2 121.98C317.144 122.03 317.111 122.101 317.107 122.176C317.103 122.251 317.129 122.324 317.18 122.38C318.302 124.241 319.601 125.989 321.06 127.6ZM300.76 135.1C301.554 132.063 301.684 128.891 301.14 125.8C301.14 125.726 301.11 125.655 301.058 125.602C301.005 125.549 300.934 125.52 300.86 125.52C300.786 125.52 300.714 125.549 300.662 125.602C300.609 125.655 300.58 125.726 300.58 125.8C300.326 126.959 300.159 128.136 300.08 129.32C299.871 131.23 299.911 133.16 300.2 135.06C300.16 135.44 300.72 135.48 300.76 135.1ZM274.7 132.84C275.601 131.539 276.358 130.144 276.96 128.68C277.645 127.241 278.149 125.723 278.46 124.16C278.451 124.111 278.429 124.066 278.397 124.028C278.365 123.991 278.323 123.962 278.276 123.946C278.23 123.93 278.179 123.926 278.131 123.936C278.082 123.945 278.037 123.967 278 124C277.8 124.32 277.18 125.24 276.8 126C275.623 128.11 274.761 130.381 274.24 132.74C274.204 132.776 274.179 132.82 274.166 132.869C274.154 132.917 274.155 132.969 274.169 133.017C274.183 133.065 274.21 133.109 274.247 133.143C274.284 133.177 274.329 133.201 274.378 133.212C274.427 133.222 274.478 133.22 274.526 133.204C274.574 133.188 274.616 133.159 274.649 133.121C274.682 133.083 274.704 133.037 274.713 132.988C274.722 132.938 274.717 132.887 274.7 132.84ZM150.84 270.8C161.42 271.48 161.56 260.04 150.84 261.86C144 262.22 146.1 270.44 150.84 270.8ZM150.84 262.46C159.78 262 159.06 269.78 150.84 269.28C148 269.14 145.5 263.36 150.92 262.46H150.84ZM189.52 264.6C200.14 265.28 200.24 253.84 189.52 255.66C182.76 256 184.8 264.24 189.52 264.6ZM189.52 256.26C198.46 255.8 197.76 263.58 189.52 263.08C186.72 262.94 184.2 257.16 189.6 256.26H189.52ZM212.24 269.48C222.84 270.16 222.96 258.72 212.24 260.52C205.46 260.9 207.5 269.12 212.24 269.48ZM212.24 261.14C221.18 260.68 220.48 268.46 212.24 267.96C209.44 267.82 206.9 262 212.32 261.14H212.24ZM218.42 253.12C229 253.8 229.16 242.36 218.42 244.18C211.64 244.54 213.7 252.78 218.42 253.12ZM218.42 244.8C227.36 244.34 226.64 252.1 218.42 251.62C215.62 251.46 213.08 245.68 218.5 244.8H218.42ZM138.66 228.32C141.403 228.982 144.293 228.657 146.82 227.4C150.82 225.24 151 220.32 148.64 216.48C144.98 210.48 137.36 211.1 134.64 215.4C133.475 217.47 133.085 219.888 133.54 222.22C133.81 223.586 134.421 224.861 135.316 225.928C136.211 226.994 137.361 227.817 138.66 228.32ZM135.04 222C134.632 220.021 134.907 217.963 135.82 216.16C136.78 214.783 138.186 213.78 139.801 213.321C141.415 212.861 143.139 212.974 144.68 213.64C148.8 215.96 150.98 223.76 146.12 226.14C143.954 227.176 141.504 227.457 139.16 226.94C138.119 226.521 137.198 225.85 136.479 224.988C135.76 224.126 135.266 223.099 135.04 222Z" fill="black"/>
<path d="M139.24 216.98C139 216.58 137.72 216.22 137.82 217.44C137.92 218.66 140 218.2 139.24 216.98ZM143.7 217.02C144.14 216.32 142.4 215.02 142.22 216.68C142.16 217.22 142.92 218.2 143.7 217.02ZM138.72 222C137.98 222.5 140.28 224.8 143.12 223.52C143.557 223.341 143.936 223.044 144.215 222.663C144.494 222.282 144.661 221.831 144.7 221.36C144.712 221.322 144.716 221.282 144.712 221.242C144.709 221.202 144.697 221.164 144.679 221.129C144.66 221.093 144.635 221.062 144.604 221.037C144.573 221.011 144.538 220.992 144.5 220.98C144.462 220.968 144.422 220.964 144.382 220.968C144.342 220.971 144.304 220.983 144.269 221.001C144.233 221.02 144.202 221.045 144.176 221.076C144.151 221.107 144.132 221.142 144.12 221.18C143.437 221.737 142.624 222.113 141.757 222.273C140.891 222.434 139.998 222.375 139.16 222.1C139.112 222.032 139.04 221.985 138.959 221.966C138.878 221.948 138.793 221.96 138.72 222ZM162.86 232.28C164.68 233.04 173.3 232.82 174.72 231.02C175.08 230.58 174.84 230.14 174.58 229.64C173.7 227.96 168.8 219.76 167.04 220.06C165.28 220.36 163.52 225.06 163.04 226.6C162.56 228.14 161.4 231.66 162.86 232.28ZM164.86 224.64C165.12 223.86 166.24 220.82 167.04 220.64C167.84 220.46 173.04 230.04 173.16 230.24C169.998 231.075 166.707 231.305 163.46 230.92C163.652 228.767 164.15 226.652 164.94 224.64H164.86ZM214.78 128.2C214.75 128.017 214.657 127.851 214.516 127.731C214.374 127.61 214.195 127.545 214.01 127.545C213.825 127.545 213.645 127.61 213.504 127.731C213.363 127.851 213.27 128.017 213.24 128.2C213.26 128.668 213.34 129.132 213.48 129.58C213.496 129.691 213.536 129.797 213.597 129.89C213.658 129.984 213.738 130.064 213.832 130.124C213.926 130.184 214.032 130.224 214.143 130.239C214.254 130.255 214.367 130.246 214.474 130.214C214.581 130.183 214.68 130.128 214.765 130.054C214.849 129.981 214.916 129.89 214.962 129.788C215.008 129.686 215.032 129.576 215.032 129.464C215.031 129.352 215.007 129.242 214.96 129.14C214.87 128.833 214.81 128.518 214.78 128.2ZM219.06 134.98C219.573 134.752 220.04 134.434 220.44 134.04C220.76 133.74 220.62 133.4 220.16 133.48L218.82 133.76C218.554 132.786 218.386 131.788 218.32 130.78C218.32 130.02 217.98 127.58 217.58 127.42C217.18 127.26 217.08 128.04 216.96 128.72C216.6 131 216.9 135.82 219.06 134.98ZM222.36 127.66C222.39 127.843 222.483 128.009 222.624 128.129C222.765 128.25 222.945 128.316 223.13 128.316C223.315 128.316 223.495 128.25 223.636 128.129C223.777 128.009 223.87 127.843 223.9 127.66V126.56C223.875 126.357 223.775 126.17 223.62 126.037C223.464 125.904 223.265 125.833 223.06 125.84C222.855 125.86 222.665 125.959 222.531 126.115C222.397 126.272 222.329 126.474 222.34 126.68C222.26 126.82 222.36 127.66 222.36 127.66ZM223.14 136.24C222.86 136.24 223.14 136.24 221.64 137.42C221.495 137.538 221.341 137.645 221.18 137.74C219.7 138.6 219.02 138.12 218.88 138.56C218.74 139 219.92 139.7 221.22 139.38C223.34 138.86 223.68 136.4 223.14 136.24ZM78.34 140.28C78.56 140.96 79.4 141.26 80.1 141.42C85.8 142.86 106.24 142.04 112.32 140.84C113.08 140.68 114.32 140.42 114.78 139.8C116.22 137.42 115.52 100.48 113.86 98.4C112.2 96.32 82.92 96.58 80.24 98.66C78.24 100.26 77.78 138.64 78.34 140.28ZM110.54 122.28C111.136 122.066 111.773 121.989 112.403 122.055C113.033 122.121 113.641 122.327 114.18 122.66C114.265 128.12 114.058 133.582 113.56 139.02L113.16 139.16C111.796 134.069 109.023 129.465 105.16 125.88C106.811 124.462 108.615 123.235 110.54 122.22V122.28ZM103.2 106.28C106.5 108.4 106.4 113.84 100.64 113.9C97.14 113.9 95.64 112.22 95.64 110.22C95.6191 109.332 95.8459 108.456 96.2952 107.69C96.7444 106.924 97.3981 106.298 98.1832 105.882C98.9682 105.467 99.8534 105.279 100.74 105.338C101.626 105.398 102.478 105.703 103.2 106.22V106.28ZM83.48 123.08C89.34 119.58 93.68 119.38 99.48 123.08C104.66 126.42 110.34 133.08 111.7 139.5C105.7 140.58 82.66 141.5 79.7 139.88C79.44 138.8 79.34 127.48 79.34 126.24C80.6124 125.035 81.9989 123.957 83.48 123.02V123.08ZM274.88 346.44C273.953 346.51 273.035 346.671 272.14 346.92C271.2 347.28 270.38 347.86 270.84 348.76C271.42 350.047 272.305 351.173 273.42 352.04C273.7 352.34 274.14 351.9 273.86 351.6C273.58 351.3 273.54 350.68 272.42 348.46C273.371 348.048 274.287 347.56 275.16 347C275.217 346.954 275.257 346.89 275.273 346.819C275.289 346.747 275.28 346.672 275.247 346.607C275.214 346.541 275.16 346.489 275.093 346.458C275.026 346.428 274.951 346.422 274.88 346.44ZM270.82 340.7C270.438 340.666 270.055 340.743 269.716 340.92C269.377 341.098 269.095 341.369 268.906 341.702C268.716 342.035 268.626 342.415 268.646 342.798C268.667 343.18 268.796 343.549 269.02 343.86C269.038 343.929 269.078 343.99 269.134 344.033C269.19 344.077 269.259 344.101 269.33 344.101C269.401 344.101 269.47 344.077 269.526 344.033C269.582 343.99 269.622 343.929 269.64 343.86C269.641 343.351 269.775 342.852 270.027 342.41C270.28 341.968 270.642 341.6 271.08 341.34C271.38 341.12 271.32 340.6 270.82 340.7ZM219.36 141.84C219.151 141.833 218.946 141.895 218.775 142.016C218.605 142.136 218.478 142.309 218.415 142.508C218.352 142.707 218.355 142.922 218.425 143.119C218.494 143.316 218.626 143.485 218.8 143.6C219.009 143.732 219.26 143.779 219.502 143.73C219.744 143.682 219.958 143.542 220.1 143.34C220.19 143.198 220.242 143.036 220.25 142.868C220.259 142.7 220.225 142.533 220.151 142.382C220.076 142.232 219.965 142.103 219.826 142.008C219.688 141.913 219.527 141.855 219.36 141.84ZM222.88 143.16C222.629 143.184 222.395 143.299 222.222 143.483C222.049 143.667 221.949 143.908 221.94 144.16C221.938 144.346 221.991 144.529 222.093 144.685C222.195 144.841 222.341 144.963 222.512 145.036C222.684 145.109 222.873 145.129 223.056 145.094C223.239 145.059 223.407 144.971 223.54 144.84C223.688 144.71 223.792 144.537 223.839 144.345C223.885 144.153 223.871 143.952 223.799 143.769C223.727 143.585 223.6 143.428 223.435 143.319C223.271 143.21 223.077 143.155 222.88 143.16ZM222.82 140.14C222.78 140.282 222.773 140.432 222.801 140.577C222.828 140.723 222.889 140.86 222.978 140.978C223.067 141.096 223.182 141.192 223.314 141.258C223.446 141.325 223.592 141.359 223.74 141.36C223.881 141.355 224.02 141.322 224.148 141.261C224.275 141.2 224.388 141.113 224.481 141.005C224.573 140.898 224.642 140.773 224.683 140.638C224.724 140.503 224.737 140.36 224.72 140.22C224.676 140.006 224.562 139.813 224.395 139.671C224.229 139.529 224.02 139.447 223.801 139.438C223.583 139.429 223.368 139.493 223.19 139.62C223.012 139.747 222.882 139.93 222.82 140.14ZM228.26 144.26C228.467 144.266 228.67 144.203 228.838 144.082C229.005 143.961 229.128 143.788 229.188 143.59C229.247 143.391 229.239 143.179 229.165 142.986C229.092 142.792 228.956 142.629 228.78 142.52C228.636 142.432 228.471 142.384 228.302 142.38C228.133 142.376 227.967 142.416 227.818 142.498C227.67 142.579 227.546 142.697 227.459 142.842C227.371 142.986 227.323 143.151 227.32 143.32C227.325 143.568 227.426 143.804 227.601 143.979C227.776 144.154 228.012 144.255 228.26 144.26ZM230 139.8C230.134 139.773 230.26 139.717 230.371 139.637C230.481 139.557 230.574 139.454 230.641 139.335C230.709 139.217 230.751 139.085 230.763 138.949C230.776 138.813 230.76 138.676 230.715 138.547C230.671 138.418 230.599 138.3 230.506 138.2C230.412 138.101 230.298 138.023 230.171 137.971C230.045 137.919 229.909 137.895 229.773 137.9C229.636 137.905 229.502 137.939 229.38 138C229.171 138.104 229.008 138.28 228.919 138.496C228.831 138.711 228.824 138.952 228.9 139.172C228.976 139.392 229.129 139.578 229.332 139.693C229.534 139.809 229.772 139.847 230 139.8Z" fill="black"/>
<path d="M379.74 237.34C375.929 236.19 371.835 236.424 368.18 238C376.44 227.4 380.88 216.8 380.88 202.52C380.88 194.42 380.08 186.8 372.42 184.26C367.7 182.68 359.44 185.14 354.96 187.42C354.96 178.94 355.66 67.16 352.62 59.08C352.38 58.38 351.02 58.08 350.22 57.88C341.6 55.78 300.22 52.02 298.22 53.76C296.92 54.88 297.36 63.34 297.44 65.02C294.74 65.02 281.88 64.84 280.16 66.9C277.5 70.04 263.34 106.56 264.16 110.62C264.199 110.849 264.312 111.06 264.48 111.22C272.96 119.48 329.04 117.98 331.6 112.84C333.26 109.84 322 70.26 320 68C318 65.74 301.34 65.14 298.16 65.1C297.95 61.763 298.071 58.4134 298.52 55.1C298.72 54.26 298.86 54.34 299.18 54.28C304.54 53.3 348.28 57.62 351.56 59.68C353.04 64.24 353.06 93.34 353.72 188.22C348.019 191.481 343.506 196.477 340.84 202.48C338.2 202.08 334.6 205.08 332.72 206.96C330.158 209.576 327.927 212.498 326.08 215.66C325.737 209.875 324.779 204.142 323.22 198.56C318.68 186.34 305 164.56 295.46 173.76C291.843 177.838 289.384 182.81 288.34 188.16C284.86 184.855 281.031 181.938 276.92 179.46C274.5 170.956 269.152 163.582 261.82 158.64C258.84 156.546 255.681 154.719 252.38 153.18C252.354 153.116 252.32 153.056 252.28 153C250.28 150.74 245.14 150.06 242.08 149.94C242.36 147.64 240.38 137.64 239.9 135.2C240.496 135.212 241.084 135.059 241.6 134.76C243.6 134.64 251.44 134.26 252.86 133C253.122 132.702 253.289 132.333 253.34 131.94C253.673 129.881 253.887 127.804 253.98 125.72C254.96 110.94 254.3 111.72 254.76 111.72C261.08 114.06 263.16 107.96 254.76 105V104.4C257.22 103.86 260.08 102.72 258.94 100.4C258.477 99.7471 257.857 99.2215 257.136 98.872C256.416 98.5224 255.62 98.3601 254.82 98.4C254.82 93.32 256.16 22.22 252.96 18.4C249.38 14.14 140 16.24 136.26 20.2C134 22.48 135.4 122.92 138 132.48C138.14 132.98 138.68 133.08 139.2 133.16C147.86 134.56 199.2 135.16 211.2 135.28C211.454 136.571 211.781 137.846 212.18 139.1C213.098 141.389 214.457 143.475 216.18 145.24C217.687 146.294 219.463 146.897 221.3 146.98C220.7 148.34 219.54 150.86 218.94 152.12C213.298 153.782 207.913 156.219 202.94 159.36C189.5 168.62 179.56 185.86 172 200C170.585 202.8 169.363 205.694 168.34 208.66C160.02 208.44 125.82 209.64 124.92 210.66C124.46 211.1 124.92 212.02 125.04 212.84C126.6 218.62 132.42 237.46 134.82 244.22C131.2 244.8 127.58 245.54 123.96 246.22C123.864 245.953 123.75 245.692 123.62 245.44C123.57 245.324 123.498 245.219 123.407 245.132C123.316 245.044 123.208 244.976 123.09 244.931C122.972 244.886 122.846 244.866 122.72 244.871C122.594 244.876 122.47 244.906 122.356 244.959C122.241 245.013 122.139 245.089 122.055 245.184C121.971 245.278 121.907 245.388 121.866 245.507C121.825 245.627 121.809 245.753 121.818 245.879C121.828 246.005 121.862 246.128 121.92 246.24C121.959 246.325 121.992 246.411 122.02 246.5C117.74 247.08 115.2 247.02 105.76 248.36C105.695 248.145 105.556 247.96 105.366 247.839C105.177 247.718 104.951 247.669 104.728 247.7C104.506 247.732 104.302 247.842 104.154 248.01C104.006 248.179 103.923 248.395 103.92 248.62C98.4401 249.44 93.5401 250.3 87.7201 251.38C87.641 251.128 87.5475 250.881 87.4401 250.64C87.3389 250.412 87.1529 250.232 86.9214 250.139C86.6899 250.045 86.4312 250.046 86.2001 250.14C86.0854 250.188 85.9813 250.258 85.894 250.347C85.8066 250.435 85.7377 250.54 85.6912 250.656C85.6447 250.771 85.6215 250.894 85.623 251.019C85.6246 251.143 85.6507 251.266 85.7001 251.38C85.7001 251.5 85.7001 251.6 85.8401 251.72C80.8801 252.64 75.8401 253.6 70.9801 254.5V253.66C70.9409 253.416 70.8131 253.196 70.6211 253.041C70.4291 252.886 70.1865 252.807 69.9401 252.82C69.8164 252.832 69.6964 252.869 69.587 252.928C69.4776 252.988 69.3811 253.068 69.303 253.165C69.2248 253.261 69.1667 253.373 69.1319 253.492C69.097 253.611 69.0862 253.736 69.1001 253.86C69.1201 254.186 69.1201 254.514 69.1001 254.84C66.6401 255.28 64.1601 255.68 61.6801 256.08C61.6047 255.877 61.4617 255.706 61.2751 255.597C61.0885 255.487 60.8698 255.445 60.656 255.478C60.4421 255.511 60.2461 255.617 60.1011 255.777C59.9561 255.938 59.871 256.144 59.8601 256.36C43.4201 258.9 46.8601 258.08 42.2601 248.92C41.4811 246.823 40.1553 244.972 38.4201 243.56C38.1453 243.401 37.8414 243.299 37.5265 243.259C37.2116 243.22 36.8919 243.243 36.5862 243.329C36.2806 243.415 35.9952 243.561 35.7469 243.758C35.4985 243.956 35.2922 244.201 35.1401 244.48C33.8601 246.28 34.7601 252.34 35.1401 254.66C35.5201 256.98 37.5601 267.74 38.9601 269.14C39.4801 269.66 41.1801 269.7 42.7001 269.78V270.24C28.8201 271.54 11.2201 276.44 9.98008 290.4C9.06008 300.86 17.5401 305 27.7601 307.22C27.1201 310.72 18.5601 356.42 19.0201 359.08C19.5801 362.1 26.8201 363.86 28.0401 360.6C29.9201 355.5 36.7801 314.06 37.6801 308.6C47.911 309.529 58.2132 309.328 68.4001 308C69.3201 313.44 76.1401 354.64 78.0201 359.74C79.2201 362.98 86.4801 361.22 87.0201 358.22C87.5001 355.56 79.0201 310.34 78.2001 305.86C89.5801 302.46 101.18 295.5 99.6001 283.68C114.16 283.02 130.82 281.22 145.22 279.34C145.206 281.918 145.81 284.462 146.98 286.76C148.4 289.42 153.5 291.24 156.36 292.16C155.84 294.94 146.1 346.72 146.6 349.54C147.1 352.36 154.4 354.3 155.6 351.06C157.6 345.76 164.88 301.3 166.02 294.66C188.18 299.24 198.46 297.9 206.4 297C206.6 299.38 210.4 348.58 211.66 351C212.98 353.76 220.44 353.56 220.76 350.12C221.26 344.58 216.76 301.12 216.34 295.7C228.531 294.151 240.508 291.226 252.04 286.98C254.44 296.12 260.54 318.98 261.06 320.84C255.255 323.119 250.343 327.217 247.06 332.52C243.536 334.091 240.104 335.86 236.78 337.82C234.944 338.626 233.178 339.583 231.5 340.68C229.914 341.684 228.552 343.005 227.5 344.56C227.384 344.818 227.324 345.097 227.324 345.38C227.324 345.663 227.384 345.942 227.5 346.2C227.987 347.191 228.667 348.075 229.5 348.8C233.16 351.98 235.02 350.48 241.98 360.42C245.54 365.48 246.84 371.94 251.3 377.4C254.44 381.24 256 385.4 263.3 383.54C267.3 382.54 269.5 380.8 274.96 379.32C277.74 378.58 280.6 378.04 283.38 377.2C300.62 372.04 296.56 373.44 308.36 371.76C310.36 371.46 312.5 371 314.56 370.68C318.172 370.385 321.797 370.278 325.42 370.36C325.876 370.241 326.285 369.986 326.592 369.628C326.899 369.271 327.09 368.829 327.14 368.36C327.315 367.31 327.362 366.242 327.28 365.18C327.485 362.747 326.88 360.314 325.56 358.26C334.8 359.86 359.14 357.94 361.18 356.74C361.369 356.643 361.523 356.489 361.62 356.3C362.82 353.72 364.52 330.64 364.54 321.8C365.21 321.693 365.877 321.567 366.54 321.42C367.94 321.08 368.14 314.54 367.26 312.76C367.188 312.586 367.079 312.43 366.941 312.302C366.803 312.174 366.639 312.078 366.46 312.02C360.74 310.72 345.08 311.04 338.92 311.28C338.695 303.828 337.886 296.405 336.5 289.08C343.915 287.376 351.124 284.875 358 281.62C370.82 275.28 378.26 272.78 386.84 260.4C392.98 251.6 389.88 240.7 379.74 237.34ZM319.52 68.32C321.52 70.32 330.86 106.32 330.7 111.88C330.58 116.48 273.88 117.88 265.7 110.3C265.8 104.04 279.14 70.04 281.12 67.64C283.1 65.24 316.92 65.52 319.52 68.32ZM359.8 186.98C363.14 185.88 368.6 184.58 371.94 185.7C378.86 188 379.34 195.26 379.34 202.52C379.34 217.6 374.26 228.36 365.12 239.38C360.92 241.696 357.091 244.629 353.76 248.08C355.557 240.592 355.998 232.843 355.06 225.2C354.906 223.842 354.618 222.502 354.2 221.2C355.593 216.983 357.319 212.884 359.36 208.94C362.58 202.94 363.88 203.04 363.36 202.54C363.334 202.51 363.301 202.486 363.265 202.47C363.229 202.454 363.19 202.445 363.15 202.445C363.11 202.445 363.071 202.454 363.035 202.47C362.999 202.486 362.966 202.51 362.94 202.54C358.709 207.317 355.479 212.893 353.44 218.94C351.58 213.98 346.78 205.08 342.08 202.94C343.761 199.194 346.206 195.839 349.257 193.091C352.308 190.343 355.899 188.262 359.8 186.98ZM333.68 208C335.378 206.081 337.593 204.692 340.06 204C343.86 203.4 352.78 217.28 353.52 225.48C354.58 233.875 353.899 242.399 351.52 250.52C349.518 252.702 347.655 255.006 345.94 257.42C342.16 262.78 340.14 263.86 336.98 272.44C337.52 251.2 339.2 223.92 339.2 223.02C339.22 222.974 339.228 222.924 339.224 222.874C339.22 222.824 339.203 222.775 339.175 222.734C339.147 222.692 339.109 222.658 339.064 222.634C339.02 222.611 338.97 222.599 338.92 222.6C338.58 222.6 338.58 223.02 338.54 223.34C338 228.44 336 262 335.6 275.02C332.06 257.96 323.6 251.52 320.74 247.38C319.64 233.6 323.8 217.74 333.68 208ZM293.68 223.34C295.68 228.84 299.26 236.66 303.68 240.44C299.118 239.481 294.385 239.715 289.94 241.12C290.96 237.54 293.14 227.64 293.72 223.28L293.68 223.34ZM287.18 246C287.145 245.46 287.277 244.922 287.56 244.46C291.56 239.18 313.14 239.04 325.56 255.7C331.568 264.187 334.885 274.284 335.08 284.68C329.54 275.32 310.34 256.96 297.96 252.68C297.922 252.667 297.882 252.661 297.841 252.664C297.801 252.666 297.762 252.677 297.726 252.694C297.69 252.712 297.657 252.736 297.63 252.767C297.604 252.797 297.583 252.832 297.57 252.87C297.557 252.908 297.551 252.948 297.554 252.989C297.556 253.029 297.567 253.068 297.584 253.104C297.602 253.141 297.627 253.173 297.657 253.2C297.687 253.226 297.722 253.247 297.76 253.26C312.34 258.6 335.26 283.44 334.96 288.5C333.722 288.476 332.484 288.556 331.26 288.74C329.526 288.739 327.794 288.605 326.08 288.34C320.6 287.4 317.08 284.88 308.74 277.04C302.87 271.672 297.421 265.862 292.44 259.66C290.54 256.36 287.12 249.86 287.18 246ZM289.58 188.94C290.502 183.665 292.87 178.749 296.42 174.74C304.7 166.74 317.72 188.28 321.7 199C323.388 205.26 324.394 211.684 324.7 218.16C320.821 226.563 319.017 235.775 319.44 245.02C313.72 236.38 305.76 217.6 302.86 203.02C302.32 200.44 300.14 186.82 300.14 185.24C300.38 184.84 299.54 184.38 299.5 185.24C299.985 194.073 301.277 202.843 303.36 211.44C306.418 222.156 310.7 232.484 316.12 242.22C320.44 250.22 321.3 247.14 311.76 242.76C309.824 241.914 307.816 241.244 305.76 240.76C304.692 239.976 303.701 239.092 302.8 238.12C294.9 228.98 287.66 203.52 289.58 188.96V188.94ZM139.2 250.94C142.14 251.1 145.42 250.28 146.64 247.64L160.94 248C160.808 249.289 161.18 250.58 161.978 251.601C162.775 252.622 163.937 253.296 165.22 253.48C166.392 253.634 167.582 253.544 168.718 253.217C169.854 252.891 170.91 252.333 171.82 251.58C172.295 251.163 172.663 250.639 172.896 250.051C173.129 249.464 173.22 248.829 173.16 248.2L182.58 248.34C183.08 249.06 211.06 245.8 213.56 244.62C214.8 244.04 214.44 242 213.72 240.84C213.96 240.84 213.84 240.84 214.12 241.3C214.29 241.717 214.574 242.078 214.94 242.34C218.366 242.758 221.842 242.353 225.08 241.16C225.72 240.72 225.64 240.2 225.5 239.38C243.26 236.86 241.78 237.38 251.86 235.06C252.42 234.94 244.86 237.56 240.36 239.98C238.188 241.124 236.171 242.542 234.36 244.2C229.8 248.58 219.76 280.04 211.74 281.56C201.946 283.201 191.972 283.484 182.1 282.4C182.384 281.701 182.456 280.933 182.307 280.193C182.158 279.454 181.793 278.774 181.26 278.24C180.426 277.475 179.449 276.881 178.385 276.493C177.321 276.105 176.191 275.931 175.06 275.98C171.58 275.98 169.84 278.12 170.46 280.9C161.306 279.422 152.269 277.29 143.42 274.52C142.54 272 139.66 254 139.2 250.94ZM138.88 247.34L144.88 247.6C144.157 248.31 143.284 248.847 142.325 249.172C141.366 249.498 140.345 249.603 139.34 249.48C139.26 249.26 139.1 248.38 138.88 247.34ZM171.68 248.18C171.69 248.313 171.69 248.447 171.68 248.58C171.622 249.07 171.449 249.54 171.174 249.95C170.9 250.36 170.531 250.7 170.1 250.94C168.629 251.787 166.927 252.144 165.24 251.96C164.425 251.792 163.683 251.375 163.116 250.765C162.55 250.156 162.188 249.385 162.08 248.56C162.07 248.38 162.07 248.2 162.08 248.02L171.68 248.18ZM190.26 233.42L185.44 234.02C200.14 214.34 191.8 223.22 190.26 233.42ZM184.48 235.42L190.48 234.74C190.98 235.62 195.78 237.18 196.7 237.48C196.525 237.814 196.377 238.162 196.26 238.52C191.96 238.2 187.44 237.9 182.76 237.74L184.48 235.42ZM224.1 240C221.377 240.774 218.549 241.112 215.72 241C213.565 236.04 211.721 230.95 210.2 225.76C212.491 223.755 215.237 222.34 218.2 221.64C219.08 223.74 224 237.88 224.1 240ZM213.28 239.46C202.04 240.16 199.28 240.56 197.5 240.12C197.38 235.26 205.72 232.74 210.56 231.96C211.52 234.9 212.52 237.58 213.28 239.44V239.46ZM190.18 243.84C192.46 243.52 210.18 241.16 212.46 241.7C212.738 242.178 212.87 242.728 212.84 243.28C210.08 244.12 183.38 247.68 183.14 247.7C182.885 246.925 182.75 246.116 182.74 245.3V245.14C183.74 245.12 180 245.24 190.18 243.82V243.84ZM181.6 239.08C185.6 239.24 189.78 239.46 196 239.96C196 240.5 196 241 196.56 241.4C197.12 241.8 198.56 241.22 189.72 242.88C187.225 243.217 184.772 243.814 182.4 244.66C181.2 238.6 181.14 239.62 181.6 239.06V239.08ZM180.72 281.78C170.42 280.7 171.12 281.06 171.1 280.62C171.041 280.092 171.127 279.558 171.349 279.075C171.571 278.592 171.921 278.179 172.36 277.88C174.6 276.42 182 278.18 180.72 281.76V281.78ZM250.92 153.26C250.38 153.68 231.78 167.82 229.04 169.54C227.654 167.379 226.124 165.315 224.46 163.36C226.7 160.88 241.78 150.5 241.78 150.5C242.42 150.5 248.56 151.16 250.92 153.24V153.26ZM211.36 156C213.806 155.011 216.319 154.196 218.88 153.56C222.88 163.26 221.84 161.14 222.52 162.86C219.6 164.173 216.755 165.649 214 167.28C212.78 164.38 210.96 159.06 211.36 156ZM253.36 96.12V98.64C247.36 99.42 247.36 100.64 247.36 99.86C250.62 98 252.72 97.5 253.38 96L253.36 96.12ZM245.52 111.64C245.112 111.277 244.654 110.974 244.16 110.74C243.86 110.58 244.16 110.74 244.16 110.28C244.235 109.91 244.235 109.53 244.16 109.16C244.657 109.291 245.167 109.371 245.68 109.4C245.58 110 245.56 110.84 245.54 111.56L245.52 111.64ZM239 100.9C238.36 101.76 237.6 102.64 237 103.54C237.885 100.033 239.727 96.8411 242.32 94.32C243.174 93.7704 243.99 93.1623 244.76 92.5C247.24 89.64 242.76 86.72 239.12 89.98C236.415 92.3036 234.564 95.4642 233.86 98.96C233.34 101.62 234.12 101.3 233.16 101.06C232.281 100.742 231.319 100.742 230.44 101.06C229.8 99.18 225.6 99.2 224.18 100.22C223.6 100.64 224 100.56 223.54 100.22C222.645 99.9684 221.705 99.9186 220.789 100.074C219.872 100.23 219.002 100.587 218.24 101.12C218.06 101.24 217.42 102.04 217.06 102.42C216.273 102.381 215.487 102.517 214.76 102.82C214.008 103.165 213.42 103.789 213.12 104.56V105.02C212.763 104.955 212.397 104.955 212.04 105.02C210.693 105.582 209.622 106.653 209.06 108C208.733 108.613 208.641 109.324 208.8 110C207.06 110.94 205.24 112.3 205.54 114.26C205.707 114.752 205.958 115.212 206.28 115.62C205.78 115.98 204.42 116.14 204.7 119.18L203.2 119.06C202.16 113.8 201.52 81.18 202.04 80.82C204.42 79.72 241.4 79.58 245.22 80.64C245.671 85.1586 245.858 89.6997 245.78 94.24C243.096 95.9418 240.794 98.1824 239.02 100.82L239 100.9ZM251.66 131.9C249.203 132.556 246.681 132.938 244.14 133.04C244.492 132.783 244.76 132.427 244.91 132.018C245.059 131.608 245.084 131.163 244.98 130.74C245.372 130.666 245.741 130.498 246.054 130.251C246.367 130.003 246.616 129.684 246.78 129.32C247.001 128.727 247.001 128.074 246.78 127.48C246.66 127.2 246.54 127.48 247.16 127.14C247.532 126.964 247.862 126.711 248.128 126.396C248.394 126.082 248.589 125.715 248.701 125.319C248.813 124.922 248.839 124.507 248.776 124.1C248.714 123.693 248.565 123.305 248.34 122.96C248.648 122.605 248.846 122.169 248.91 121.704C248.974 121.238 248.901 120.765 248.7 120.34C248.372 119.759 247.867 119.297 247.26 119.02C247.558 118.521 247.684 117.937 247.619 117.359C247.554 116.781 247.302 116.241 246.9 115.82C246.9 114.1 247.06 111.94 247.14 109.52C249.202 109.54 251.226 110.083 253.02 111.1C252.9 114.36 252.46 128.86 251.68 131.82L251.66 131.9ZM139.28 131.9C136.6 120.4 134.96 22.52 136.68 20.76C140 17.12 244.58 15.78 252 19.4C252.366 20.7067 252.601 22.0467 252.7 23.4C254.14 38.1 253.72 79.4 253.46 94.54C252.52 92.32 249.56 92.54 247.32 93.4C247.371 88.9773 247.151 84.5557 246.66 80.16C246.639 79.9411 246.553 79.7333 246.415 79.5626C246.276 79.3918 246.09 79.2657 245.88 79.2C242.38 77.94 203.18 78.78 201.62 80.26C200.66 81.2 201 116.26 202.04 119.72C202.103 119.867 202.205 119.993 202.336 120.085C202.467 120.177 202.621 120.231 202.78 120.24C203.34 120.24 204.64 120.42 205.08 120.44C205.42 121.06 205.96 121.18 206.26 121.44C206.083 121.587 205.945 121.775 205.857 121.987C205.77 122.2 205.737 122.431 205.76 122.66C205.868 123.698 206.271 124.683 206.92 125.5C207.88 126.64 208.76 126.3 209.74 126.3C209.94 127.96 210.36 130.7 210.98 133.74C196.66 133.76 145.76 133 139.3 131.76L139.28 131.9ZM223.02 145.9C222.795 145.714 222.512 145.615 222.22 145.62C220.486 145.588 218.791 145.105 217.3 144.22C215.714 142.611 214.446 140.718 213.56 138.64C212.006 133.361 211.027 127.929 210.64 122.44C210.82 119.96 213.32 116.9 217.84 115.96C221.404 115.333 225.075 115.786 228.38 117.26C231.04 118.32 234.72 122.56 236.2 124.86C236.269 124.955 236.371 125.021 236.486 125.043C236.602 125.066 236.721 125.043 236.82 124.98C237.448 124.575 238.119 124.239 238.82 123.98C239.416 123.841 240.044 123.941 240.567 124.258C241.091 124.576 241.469 125.087 241.62 125.68C242.66 128.04 238.76 131.98 238.22 132.74C238.145 132.94 238.145 133.16 238.22 133.36C239.323 138.743 240.111 144.185 240.58 149.66C239.92 150.04 239.1 150.66 232.28 155.78C229.347 157.652 226.54 159.717 223.88 161.96C223.14 159.6 221.26 155.44 220.3 153.34C223.46 146.26 223.5 146.3 223.04 145.84L223.02 145.9ZM173.32 200.7C181.32 185.54 193.84 163.34 210.64 156.52C210.562 160.775 211.423 164.995 213.16 168.88C213.226 168.975 213.315 169.052 213.417 169.106C213.52 169.159 213.634 169.187 213.75 169.187C213.866 169.187 213.98 169.159 214.083 169.106C214.185 169.052 214.274 168.975 214.34 168.88C215.11 168.223 215.964 167.671 216.88 167.24C217.254 168.678 217.891 170.035 218.76 171.24C218.32 173.76 210.3 206.76 210.76 208.7C212.178 212.374 214.053 215.855 216.34 219.06C216.78 219.66 217.26 220.12 217.88 219.62C220.897 216.564 223.409 213.046 225.32 209.2C225.44 208.78 225.48 209.06 224.1 171.96C224.76 171.2 226.1 169.6 226.72 168.68C228.36 170.98 227.44 170.68 228.02 171.14C228.6 171.6 228.94 171.34 229.44 171.14C232.72 169.26 249.44 156.34 252.06 153.84C255.316 155.326 258.429 157.107 261.36 159.16C274.5 167.56 277.36 182.26 278.74 197.74C279.66 208.62 278.28 217.86 270.24 224.78C264.93 229.084 258.682 232.078 252 233.52C247.64 234.6 228.68 237.38 225.08 237.88C223.5 232.931 221.671 228.065 219.6 223.3C226.14 220.46 237.88 216.28 244.56 214.02C244.676 213.988 244.777 213.917 244.847 213.818C244.916 213.72 244.949 213.6 244.94 213.48C244.5 207.88 243.92 193.26 246.08 188.06C246.24 187.7 245.66 187.46 245.5 187.82C243.18 193.12 243.5 207.34 243.82 213.12C236.96 215.32 225.62 219.12 219.02 221.98C218.74 221.38 218.72 221.1 218.16 221.04C216.46 220.9 209.92 223.68 209.02 225.38C208.62 226.12 209.84 229.86 210.26 231.2C206.1 231.56 200.26 232.94 197.5 236.14C195.494 235.57 193.551 234.8 191.7 233.84C192.58 227.84 197.42 218.3 200.46 213.24C201.62 211.24 203.08 198.26 203.22 196.12C203.331 194.208 203.331 192.292 203.22 190.38C203.202 190.311 203.162 190.25 203.106 190.207C203.05 190.163 202.981 190.139 202.91 190.139C202.839 190.139 202.77 190.163 202.714 190.207C202.658 190.25 202.618 190.311 202.6 190.38C202.48 191.62 202.26 193.06 202 194.7C201.88 195.6 200.46 210.22 199 212.7C194.36 219.28 185.78 231.32 180.82 237.68C180.64 236.88 174.68 210.2 173.52 209.48C172.33 209.104 171.088 208.921 169.84 208.94C170.818 206.12 171.98 203.367 173.32 200.7ZM126.42 211.78C132.68 211.14 170.42 209.24 172.88 210.46C173 211.4 175.62 218.3 177.88 229.04C179.58 237.04 181.88 245.04 182.32 247.7C181.28 247.7 138.96 246.02 137 245.7C135.48 242.28 127.44 215.78 126.42 211.78ZM40.0001 267.86C38.8001 265.86 34.6801 247.66 36.4201 245.22C38.6601 242.1 42.4201 253.42 43.6601 255.64C46.0601 260.34 50.2201 259.26 60.4001 257.64C60.7601 258.7 60.8801 259.64 61.8001 259.64C61.954 259.637 62.1049 259.597 62.2402 259.524C62.3754 259.451 62.4911 259.346 62.5774 259.218C62.6636 259.091 62.718 258.945 62.7359 258.792C62.7537 258.639 62.7346 258.484 62.6801 258.34C62.5201 257.94 62.4001 257.56 62.3001 257.24C69.9601 256.02 69.1401 255.96 69.1601 256.28C69.1601 256.529 69.2591 256.768 69.4354 256.945C69.6117 257.121 69.8508 257.22 70.1001 257.22C70.3494 257.22 70.5885 257.121 70.7648 256.945C70.941 256.768 71.0401 256.529 71.0401 256.28V255.82C76.1601 254.9 81.2601 253.82 86.3801 252.96C86.3801 253.24 86.5201 253.5 86.6201 253.76C86.7023 253.996 86.8749 254.19 87.1 254.299C87.325 254.407 87.584 254.422 87.8201 254.34C88.0561 254.258 88.2498 254.085 88.3586 253.86C88.4674 253.635 88.4823 253.376 88.4001 253.14C88.4001 252.96 88.4001 252.78 88.2401 252.62C93.8201 251.58 98.6601 250.62 104.1 249.9V251.26C104.111 251.383 104.145 251.504 104.202 251.614C104.259 251.724 104.337 251.821 104.432 251.901C104.527 251.981 104.636 252.042 104.754 252.079C104.872 252.117 104.997 252.131 105.12 252.12C105.244 252.109 105.364 252.075 105.474 252.018C105.584 251.961 105.681 251.883 105.761 251.788C105.841 251.693 105.902 251.584 105.939 251.466C105.977 251.348 105.991 251.223 105.98 251.1V249.64C115.98 248.18 117.8 248.36 122.62 247.64L122.96 248.58C123.077 248.78 123.262 248.932 123.481 249.006C123.7 249.081 123.939 249.073 124.153 248.986C124.368 248.898 124.543 248.736 124.647 248.529C124.751 248.322 124.777 248.084 124.72 247.86C124.645 247.69 124.578 247.517 124.52 247.34C128.14 246.74 131.74 245.98 135.38 245.34C136.02 247.02 135.94 247 137.9 247.16C138.12 247.16 138.84 255.34 141.48 270.02C119 271.26 75.9001 272.02 54.6801 268.66C53.4001 268.46 51.4001 268.38 51.6001 268.38C49.3001 265.32 45.0801 259.5 43.2801 262.82C42.4461 264.41 42.1714 266.235 42.5001 268C41.6645 268.014 40.8289 267.967 40.0001 267.86ZM62.2601 271.14C59.9228 271.72 57.6248 272.448 55.3801 273.32C54.4312 272.265 53.5431 271.156 52.7201 270C54.8001 270.2 56.1001 270.58 62.2201 271.14H62.2601ZM26.6801 360C26.2401 361.2 23.0001 360.84 21.3801 359.68C20.1201 358.76 19.7001 362.94 28.6201 307.34C31.389 307.895 34.1867 308.296 37.0001 308.54C31.1401 338.5 27.6401 357.34 26.6801 360ZM85.5401 357C85.5401 357.9 85.8001 358.2 84.8801 358.88C83.3001 360.02 80.0201 360.44 79.5601 359.22C78.5601 356.54 74.6601 335.54 69.2801 307.9C72.0655 307.449 74.8232 306.842 77.5401 306.08C79.8201 320.34 85.4001 355.44 85.5401 356.9V357ZM53.5401 298.56C42.1001 298.56 17.7401 298.14 11.9801 288.2C14.9401 276.58 31.2001 272.82 43.1201 271.6C44.1227 275.469 45.3515 279.275 46.8001 283C47.5064 284.745 48.8307 286.169 50.5201 287C51.8803 287.357 53.3026 287.409 54.6854 287.153C56.0682 286.898 57.3775 286.34 58.5201 285.52C86.3401 282.64 75.7601 284.56 96.1201 283.86C88.7401 295.28 67.3601 298.48 53.5601 298.46L53.5401 298.56ZM71.7601 282.82C71.2601 282.82 58.2401 283.88 57.7601 284.16C56.7991 284.856 55.7023 285.342 54.5411 285.587C53.38 285.832 52.1803 285.829 51.0201 285.58C49.72 284.902 48.7055 283.781 48.1601 282.42C46.9401 279.36 41.8201 265.36 44.6601 263.6C46.8001 263.88 53.2001 274.22 54.7601 274.96C54.887 275.025 55.0275 275.059 55.1701 275.059C55.3126 275.059 55.4532 275.025 55.5801 274.96C59.2156 273.536 62.9614 272.413 66.7801 271.6C91.6762 272.9 116.628 272.7 141.5 271C141.731 272.419 142.051 273.822 142.46 275.2C142.493 275.282 142.545 275.355 142.611 275.414C142.677 275.473 142.755 275.516 142.84 275.54C144.84 276.18 147.3 276.98 150.36 277.84C97.4801 284.38 86.1601 281.64 71.7801 282.72L71.7601 282.82ZM154.24 350.54C153.8 351.74 150.54 351.36 148.94 350.2C147.7 349.32 147.08 354.48 157.06 292.38C159.58 293.16 162.42 293.9 165.44 294.54C158.62 329.4 155.26 347.78 154.26 350.44L154.24 350.54ZM219.3 350.04C219.18 351.3 215.96 351.8 214.1 351.1C212.62 350.54 213.34 354.88 207.22 296.94C210.02 296.62 212.84 296.26 215.68 295.86C218 328.82 219.58 347.18 219.32 350L219.3 350.04ZM252.84 286.76C255.5 285.72 258.14 284.6 260.7 283.38L269.52 318.24C267.119 318.67 264.767 319.34 262.5 320.24C260 311.32 255.34 295.3 252.86 286.66L252.84 286.76ZM277.52 319.06C282.334 319.238 287.1 320.086 291.68 321.58C293.306 322.032 294.908 322.566 296.48 323.18C301.383 325.419 305.789 328.615 309.44 332.58C313 336.78 313.8 342.24 313.44 347.78C313.18 351.12 311.02 353.3 308.4 355.42C308.12 353.16 304.4 351.42 302.24 351.08C301.92 351.08 301.88 351.2 302.74 350.72C304.278 349.866 305.509 348.551 306.26 346.96C306.54 346.66 306.08 346.24 305.82 346.54C303.64 348.04 302.48 349.24 299.54 351.08C299.34 351.08 299.38 351.56 298.1 351.5C296.318 351.079 294.491 350.877 292.66 350.9C291.755 348.623 291.414 346.161 291.665 343.724C291.915 341.286 292.751 338.945 294.1 336.9C297.54 332.28 298.84 333.96 298.84 333.1C298.84 331.76 290.08 334.18 290.18 344.86C290.254 346.971 290.844 349.031 291.9 350.86C289.521 350.978 287.18 351.506 284.98 352.42C284.52 352 282.6 353 281.36 352.42C282.417 348.842 282.811 345.1 282.52 341.38C282.221 339.16 281.283 337.076 279.82 335.38C278.187 333.518 276.129 332.077 273.82 331.18C269.06 329.46 267.44 331.88 264.62 332.78C264.153 332.937 263.647 332.937 263.18 332.78C261.38 332.2 256.52 330.78 255.46 332.4C254.64 333.62 255.84 335.42 256.62 336.78C257.4 338.14 257.66 338.22 256.36 341.52C255.973 342.614 255.463 343.661 254.84 344.64C253.82 345.7 250.4 346.48 249.76 347.72C248.46 350.12 253.4 352.54 254.32 353.72C255.24 354.9 256.84 357.08 257.7 358C260.96 361.56 268.94 362.38 273.08 361.06C275.077 360.431 276.881 359.302 278.32 357.78C279.58 358.84 279.34 360.5 279 362.16C278.8 363.12 277.78 363.68 277 364.16C274.431 365.82 271.39 366.592 268.34 366.36C267.546 366.103 266.776 365.775 266.04 365.38C264.044 364.905 262.14 364.108 260.4 363.02C258.889 361.492 257.123 360.239 255.18 359.32C245.72 356.9 243.92 345.54 246.9 336.62C250.58 325.3 265.32 318.74 277.54 318.96L277.52 319.06ZM271 360.52C273 357.08 271.86 352.52 269.7 349.32C267.1 345.32 264.78 346.72 263 345.8C260.48 344.48 260.1 343 259.1 342.28C258.62 341.966 258.094 341.73 257.54 341.58C258.007 340.563 258.298 339.474 258.4 338.36C258.26 337 256.06 334.08 256.4 333.42C257.46 332.92 261.4 334.02 262.52 334.4C264.66 335.12 267.12 333.1 269 332.4C272.1 331.38 276.44 334 278.54 336.4C281.96 340.4 281.2 345.3 280.18 350.4C279.908 352.824 278.875 355.099 277.229 356.899C275.584 358.7 273.41 359.932 271.02 360.42L271 360.52ZM267.12 354.32C267.28 354.6 266.9 354.98 266.56 354.62C266.3 354.363 266.108 354.047 265.999 353.698C265.891 353.349 265.871 352.979 265.94 352.62C265.973 352.262 266.11 351.922 266.334 351.642C266.558 351.361 266.859 351.152 267.2 351.04C267.74 350.86 267.8 351.36 267.6 351.52C267.32 351.904 267.133 352.348 267.053 352.816C266.974 353.284 267.003 353.765 267.14 354.22L267.12 354.32ZM325.96 365.32C325.96 366.44 326.2 368.2 325.46 368.92C325.08 369.3 319.84 368.48 314.48 369.26C312.48 369.56 310.34 370.02 308.28 370.3C296.74 371.94 300.28 370.6 283.06 375.8C280.3 376.62 277.48 377.16 274.7 377.9C269.3 379.36 266.96 381.14 263.06 382.1C256.84 383.66 255.76 380.26 252.66 376.5C248.3 371.18 247.04 364.82 243.38 359.64C236.18 349.46 234.3 350.98 230.6 347.82C229.872 347.22 229.273 346.478 228.84 345.64C228.777 345.534 228.743 345.413 228.743 345.29C228.743 345.167 228.777 345.046 228.84 344.94C229.815 343.734 230.961 342.676 232.24 341.8C233.861 340.724 235.567 339.781 237.34 338.98C240.1 337.48 243.8 335.18 246.2 334.14C241.66 343.74 243.28 358.14 254.6 360.86C255.322 361.106 255.998 361.471 256.6 361.94C258.003 363.234 259.546 364.368 261.2 365.32C262.56 365.92 264.1 366.24 265.46 366.74C266.569 367.396 267.816 367.783 269.101 367.87C270.386 367.956 271.673 367.741 272.86 367.24C275.059 366.577 277.1 365.475 278.86 364C279.229 363.617 279.485 363.139 279.6 362.62C279.96 360.62 280.12 358.76 278.6 357.52C279.673 356.204 280.487 354.698 281 353.08C281.697 353.336 282.448 353.405 283.18 353.28C280.18 355.74 281.06 357.86 284.92 358.84C288.64 359.762 292.499 359.985 296.3 359.5C300.06 359.16 305.12 359.38 308.16 357.06C311.2 354.74 314.28 352.04 314.66 347.9C315.04 343.76 314.44 342.8 315.04 344.1C316.22 346.62 317.14 349.28 318.5 351.66C320.82 355.66 325.14 357.98 325.76 362.7C325.896 363.534 325.976 364.376 326 365.22L325.96 365.32ZM360.46 355.66C360.46 355.54 360.46 355.66 360.46 355.66C360.86 356.4 331.3 358.82 324.26 356.66C323.96 356.3 323.66 355.94 323.32 355.58C321.32 348.92 318.7 330.84 317.9 324.74C333.309 324.797 348.706 323.882 364 322C363.78 327.68 361.58 352.54 360.48 355.56L360.46 355.66ZM366.46 313.18C367.25 315.672 367.25 318.348 366.46 320.84C365.62 322.16 319.14 323.86 315.6 322.96C314.628 320.636 314.263 318.104 314.54 315.6C314.54 315.6 315.46 315.18 316.42 314.96C326.4 312.64 365.5 311.52 366.56 313.08L366.46 313.18ZM337.74 311.46C332.36 311.68 320.64 312.3 315.58 313.6C314.68 313.84 313.42 314.2 313.18 315.02C312.58 316.92 313.28 322.64 314.62 324.08C315.04 324.56 316.24 324.6 317.12 324.66C317.86 332.08 319.58 345.82 321.12 353.14C317.82 349.26 317.12 344.9 314.38 340.6C313.879 337.301 312.497 334.199 310.38 331.62C306.58 327.46 301.982 324.107 296.86 321.76C295.34 321.14 293.76 320.66 291.92 320.1C285.143 317.75 277.911 317.017 270.8 317.96C270.3 315.96 263.8 292.34 261.22 283.06C274.08 276.7 281.88 265.2 286.7 251.68C287.89 254.747 289.356 257.699 291.08 260.5C293.28 264.1 312.94 284.3 320.66 287.74C323.97 289.109 327.543 289.723 331.12 289.54C332.352 289.504 333.581 289.397 334.8 289.22C335.24 291.1 336.36 296.42 337.84 311.36L337.74 311.46ZM385.52 259.64C377.12 271.76 369.66 274.22 357.28 280.36C350.823 283.46 344.068 285.9 337.12 287.64C339.02 282.98 344.4 277.16 347.8 273.64C356.185 265.136 365.053 257.123 374.36 249.64C374.424 249.592 374.466 249.521 374.477 249.442C374.488 249.364 374.468 249.284 374.42 249.22C374.372 249.156 374.301 249.114 374.223 249.103C374.144 249.092 374.064 249.112 374 249.16C354.78 262.2 340 279.16 336.5 285.68C336.546 283.233 336.406 280.786 336.08 278.36C336.868 274.701 338.139 271.164 339.86 267.84C341.868 264.355 344.191 261.061 346.8 258C353.78 248.34 367.78 234.98 379.18 238.8C388.48 241.82 391.12 251.6 385.62 259.54L385.52 259.64Z" fill="black"/>
<path d="M97.1802 256.9C97.34 256.898 97.4967 256.856 97.6362 256.778C97.7757 256.7 97.8935 256.588 97.9789 256.453C98.0643 256.318 98.1147 256.164 98.1254 256.004C98.1361 255.845 98.1068 255.685 98.0402 255.54C97.6602 254.7 97.4602 253.9 96.9202 252.92C96.7979 252.703 96.5959 252.542 96.3571 252.471C96.1182 252.4 95.8611 252.425 95.6402 252.54C95.5308 252.599 95.4341 252.678 95.3557 252.775C95.2773 252.871 95.2188 252.982 95.1834 253.101C95.1481 253.22 95.1367 253.345 95.1499 253.468C95.163 253.592 95.2005 253.711 95.2602 253.82C96.1402 255.44 96.1202 256.9 97.1802 256.9ZM79.3802 259.04C79.3956 259.288 79.5063 259.52 79.689 259.687C79.8717 259.855 80.1122 259.946 80.3602 259.94C80.4837 259.935 80.6049 259.905 80.717 259.853C80.8291 259.801 80.9298 259.728 81.0134 259.637C81.097 259.546 81.1618 259.439 81.2042 259.323C81.2465 259.207 81.2656 259.083 81.2602 258.96C81.2602 256.96 81.7002 255.36 80.2002 255.26C79.9488 255.285 79.7176 255.409 79.5566 255.603C79.3956 255.798 79.3179 256.048 79.3402 256.3C79.4402 257.26 79.3402 258 79.3802 259.04ZM114.5 253.82C114.511 253.943 114.545 254.064 114.602 254.174C114.659 254.284 114.737 254.381 114.832 254.461C114.927 254.541 115.036 254.602 115.154 254.639C115.272 254.677 115.397 254.691 115.52 254.68C115.644 254.67 115.764 254.635 115.874 254.578C115.984 254.521 116.082 254.443 116.161 254.348C116.241 254.253 116.302 254.144 116.339 254.026C116.377 253.908 116.391 253.783 116.38 253.66C116.38 252.72 116.38 251.88 116.22 250.8C116.154 250.577 116.009 250.385 115.811 250.261C115.614 250.136 115.379 250.088 115.149 250.125C114.918 250.162 114.709 250.281 114.561 250.46C114.412 250.64 114.334 250.867 114.34 251.1C114.48 252 114.42 252.84 114.5 253.82Z" fill="black"/>
</svg>
