<svg width="230" height="285" viewBox="0 0 230 285" fill="none" xmlns="http://www.w3.org/2000/svg">
<g clip-path="url(#clip0_601_398)">
<path d="M84.5297 258.977L83.6306 284.124H106.288L100.894 278.578L104.31 260.595" fill="#4075B5"/>
<path d="M84.5297 258.977L83.6306 284.124" stroke="#2B4257" stroke-width="2" stroke-miterlimit="10" stroke-linecap="round"/>
<path d="M96.8478 267.609L102.354 270.889" stroke="#2B4257" stroke-width="2" stroke-miterlimit="10" stroke-linecap="round"/>
<path d="M96.0673 270.889L101.573 274.169" stroke="#2B4257" stroke-width="2" stroke-miterlimit="10" stroke-linecap="round"/>
<path d="M95.2832 274.169L100.789 277.449" stroke="#2B4257" stroke-width="2" stroke-miterlimit="10" stroke-linecap="round"/>
<path d="M163.688 194.611L171.507 218.527L192.777 210.72L185.803 207.375L182.814 189.317" fill="#628ECC"/>
<path d="M163.688 194.611L171.507 218.527" stroke="#2B4257" stroke-width="2" stroke-miterlimit="10" stroke-linecap="round"/>
<path d="M178.225 198.47L184.526 199.653" stroke="#2B4257" stroke-width="2" stroke-miterlimit="10" stroke-linecap="round"/>
<path d="M178.621 201.818L184.922 203.002" stroke="#2B4257" stroke-width="2" stroke-miterlimit="10" stroke-linecap="round"/>
<path d="M179.016 205.167L185.317 206.35" stroke="#2B4257" stroke-width="2" stroke-miterlimit="10" stroke-linecap="round"/>
<path d="M17.2757 114.219C17.8152 114.219 27.7055 119.794 25.5476 123.03C23.3897 126.267 21.5663 127.166 21.5663 127.166C21.5663 127.166 20.1529 136.517 16.3766 136.517C12.6003 136.517 0.965714 130.173 2.19571 116.352" fill="#FBC2A5"/>
<path d="M112.28 71.6618C108.876 71.6568 105.476 71.4298 102.102 70.982C87.896 69.1155 77.5742 63.9797 77.1426 63.7603L81.185 55.7294L85.2023 47.6876C91.4798 50.5167 98.1485 52.3815 104.983 53.219C119.272 54.9777 131.539 51.7804 141.448 43.6956L152.812 57.6319C141.444 66.8928 127.587 71.6618 112.28 71.6618Z" fill="#F4AB9D"/>
<path d="M2.36111 118.315C1.69216 104.544 3.06601 92.3164 6.4467 81.9442C9.28432 73.2335 13.5354 65.7996 19.0811 59.8474C28.7916 49.4177 39.1135 47.1519 40.2608 46.9253L43.735 64.5696L43.8752 64.5408C42.8215 64.7818 18.0705 71.0576 20.3219 117.441L2.36111 118.315Z" fill="#FBC2A5"/>
<path d="M2.36111 118.315C1.69216 104.544 3.06601 92.3164 6.4467 81.9442C9.28432 73.2335 13.5354 65.7996 19.0811 59.8474" stroke="#2B4257" stroke-width="2" stroke-miterlimit="10" stroke-linecap="round"/>
<path d="M6.84595 108.734C6.84595 108.734 15.1898 107.742 20.1889 110.079" stroke="#2B4257" stroke-width="2" stroke-miterlimit="10" stroke-linecap="round"/>
<path d="M63.6882 48.2836C64.7905 45.265 67.0467 42.808 69.9606 41.4529C72.8744 40.0979 76.2072 39.9559 79.2257 41.0581L95.5936 47.0349L87.2815 69.7979L70.9137 63.8211C67.8951 62.7188 65.4381 60.4626 64.0831 57.5488C62.728 54.6349 62.586 51.3021 63.6882 48.2836Z" fill="#4075B5"/>
<path d="M79.2322 41.0593L95.5997 47.0403" stroke="#FFF1D7" stroke-width="2" stroke-miterlimit="10" stroke-linecap="round"/>
<path d="M95.5997 47.0369L87.2847 69.8026L70.9171 63.8252" stroke="#2B4257" stroke-width="2" stroke-miterlimit="10" stroke-linecap="round"/>
<path d="M108.673 262.944L79.9227 261.865L94.3086 262.412L79.9227 261.869C80.4614 239.998 79.6482 218.115 77.4879 196.345C73.111 153.816 63.5444 123.865 50.5431 111.975L69.9641 90.7556C80.9153 100.772 89.3455 116.024 95.7328 137.388C100.408 153.083 103.926 172.043 106.163 193.741C109.863 230.137 108.716 261.624 108.673 262.944Z" fill="#2B4257"/>
<path d="M159.736 198.815C155.308 183.678 147.321 170.008 135.999 158.175C126.684 148.465 115.071 139.912 101.473 132.762C77.6569 120.236 55.8874 116.373 55.6716 116.337L60.4909 88.0007C61.5339 88.177 86.2848 92.4712 114.024 106.886C130.529 115.467 144.774 125.893 156.366 137.884C171.137 153.165 181.563 170.971 187.349 190.752L159.736 198.815Z" fill="#2B4257"/>
<path d="M135.992 158.189C126.677 148.479 115.064 139.926 101.466 132.777C77.6497 120.25 55.8802 116.388 55.6644 116.352" stroke="#FFF1D7" stroke-width="2" stroke-miterlimit="10" stroke-linecap="round"/>
<path d="M43.0516 93.3953H80.1313V97.9484C80.1337 100.384 79.6562 102.796 78.7262 105.046C77.7963 107.297 76.432 109.343 74.7113 111.066C72.9906 112.789 70.9473 114.157 68.698 115.09C66.4487 116.024 64.0376 116.505 61.6023 116.506C56.6852 116.506 51.9695 114.553 48.4926 111.076C45.0157 107.599 43.0624 102.883 43.0624 97.9664V93.3953H43.0516Z" fill="#2B4257"/>
<path d="M61.6023 38.1426C64.0369 38.1426 66.4478 38.6221 68.6971 39.5538C70.9465 40.4856 72.9903 41.8512 74.7119 43.5728C76.4335 45.2944 77.7991 47.3382 78.7308 49.5875C79.6626 51.8369 80.1421 54.2477 80.1421 56.6824V93.3952H43.0516V56.686C43.0512 54.2501 43.5307 51.838 44.4629 49.5875C45.3951 47.3371 46.7616 45.2923 48.4844 43.5702C50.2071 41.8481 52.2524 40.4824 54.5032 39.5511C56.7541 38.6198 59.1664 38.1412 61.6023 38.1426Z" fill="#628ECC"/>
<path d="M80.1349 73.1794H43.0516V79.5128H80.1349V73.1794Z" fill="#4075B5"/>
<path d="M80.1349 81.9622H43.0516V88.2956H80.1349V81.9622Z" fill="#4075B5"/>
<path d="M80.1313 93.3953V56.686C80.1323 51.7702 78.1809 47.0552 74.7062 43.5779C71.2316 40.1005 66.5181 38.1454 61.6023 38.1426" stroke="#FFF1D7" stroke-width="2" stroke-miterlimit="10" stroke-linecap="round"/>
<path d="M43.0516 56.686V93.4097" stroke="#2B4257" stroke-width="2" stroke-miterlimit="10" stroke-linecap="round"/>
<path d="M43.0516 57.9736V73.1795C47.4537 72.133 50.633 69.1263 50.633 65.5766C50.633 62.0269 47.4537 59.0202 43.0516 57.9736Z" fill="#2B4257"/>
<path d="M176.747 284.124H67.871" stroke="#2B4257" stroke-width="2" stroke-miterlimit="10" stroke-linecap="round"/>
<path d="M60.7715 284.124H56.7506" stroke="#2B4257" stroke-width="2" stroke-miterlimit="10" stroke-linecap="round"/>
<path d="M61.649 45.0767C65.8281 45.0767 69.4138 43.2605 70.9351 40.6746C68.0984 39.0165 64.8699 38.1473 61.5842 38.1571C58.3336 38.1533 55.1398 39.0095 52.3269 40.6386C53.8374 43.2353 57.4411 45.0767 61.649 45.0767Z" fill="#FBC2A5"/>
<path d="M52.3341 40.6243C53.8374 43.2353 57.4411 45.0767 61.649 45.0767C65.8569 45.0767 69.4138 43.2605 70.9351 40.6746" stroke="#2B4257" stroke-width="2" stroke-miterlimit="10" stroke-linecap="round"/>
<path d="M54.564 41.4946L68.619 41.6709V27.213L54.564 25.6414V41.4946Z" fill="#FBC2A5"/>
<path d="M61.4944 29.5615C61.4914 30.431 61.6986 31.2883 62.0984 32.0604C62.4981 32.8325 63.0786 33.4966 63.7903 33.996C64.502 34.4955 65.3239 34.8155 66.186 34.9288C67.048 35.0421 67.9247 34.9454 68.7413 34.6469V27.3353L62.3684 26.616C61.7966 27.4918 61.4928 28.5155 61.4944 29.5615Z" fill="#2B4257"/>
<path d="M54.564 25.6414V39.5957" stroke="#2B4257" stroke-width="2" stroke-miterlimit="10" stroke-linecap="round"/>
<path d="M74.7797 6.06934L72.6902 22.5052H77.1894L74.7797 6.06934Z" fill="#F39B92"/>
<path d="M72.6902 22.5051H77.1894" stroke="#2B4257" stroke-width="2" stroke-miterlimit="10" stroke-linecap="round"/>
<path d="M68.619 40.0056V27.2129" stroke="#FFF1D7" stroke-width="2" stroke-miterlimit="10" stroke-linecap="round"/>
<path d="M57.5058 6.06938H74.7689V24.7027C74.7642 26.6668 73.9816 28.549 72.5924 29.9375C71.2033 31.326 69.3207 32.1077 67.3566 32.1115H66.328C63.1469 32.1115 60.0961 30.8478 57.8468 28.5984C55.5974 26.3491 54.3337 23.2983 54.3337 20.1172V9.23788C54.3337 8.39468 54.6687 7.58602 55.2649 6.98978C55.8612 6.39355 56.6698 6.05859 57.513 6.05859L57.5058 6.06938Z" fill="#FBC2A5"/>
<path d="M80.1314 3.6885C80.1314 3.6885 70.0828 2.07008 65.4074 0.631493C61.2175 -0.659642 55.2617 1.4443 53.8051 4.83937C53.4059 5.7352 52.8097 6.52937 52.0609 7.16269C49.0542 9.80251 43.2423 17.0314 54.5784 26.9937C54.5784 26.9937 58.3655 22.6779 58.8366 20.0453L60.7068 20.9192L62.6669 14.5499C62.6669 14.5499 66.6518 14.0571 69.0362 12.9314L66.7848 11.313C66.7848 11.313 78.5525 10.8203 80.1314 3.6885Z" fill="#2B4257"/>
<path d="M66.7704 11.313C66.7704 11.313 78.5524 10.8203 80.1313 3.68848" stroke="#586977" stroke-width="2" stroke-miterlimit="10" stroke-linecap="round"/>
<path d="M62.6525 14.5498C62.6525 14.5498 66.6374 14.0571 69.0218 12.9314" stroke="#586977" stroke-width="2" stroke-miterlimit="10" stroke-linecap="round"/>
<path d="M68.3565 18.0887C68.43 18.032 68.4953 17.9654 68.5507 17.8909C68.6381 17.7863 68.7485 17.7033 68.8733 17.6484C68.998 17.5935 69.1338 17.5682 69.27 17.5744H72.7945V20.0704C72.7945 20.7867 72.51 21.4737 72.0034 21.9802C71.4969 22.4868 70.8099 22.7713 70.0936 22.7713C69.3772 22.7713 68.6902 22.4868 68.1837 21.9802C67.6772 21.4737 67.3926 20.7867 67.3926 20.0704C67.3906 19.6883 67.4765 19.3108 67.6436 18.9672C67.8108 18.6236 68.0547 18.323 68.3565 18.0887Z" fill="#F4AB9D"/>
<path d="M68.3169 17.8694C68.5039 16.866 69.4893 16.251 70.7337 16.4488C71.5266 16.5871 72.2485 16.9918 72.7801 17.596C72.5931 18.5995 71.6077 19.2145 70.3633 19.0167C69.5707 18.8775 68.8491 18.4729 68.3169 17.8694Z" fill="#F7F7F7"/>
<path d="M72.7801 17.5852C72.5931 18.5886 71.6077 19.2036 70.3633 19.0058C69.5722 18.8695 68.8507 18.4689 68.3169 17.8693" stroke="#2B4257" stroke-width="2" stroke-miterlimit="10" stroke-linecap="round"/>
<path d="M71.4745 17.8837C71.6096 17.8837 71.7191 17.7453 71.7191 17.5744C71.7191 17.4036 71.6096 17.2651 71.4745 17.2651C71.3395 17.2651 71.23 17.4036 71.23 17.5744C71.23 17.7453 71.3395 17.8837 71.4745 17.8837Z" fill="#2B4257"/>
<path d="M66.9898 23.3756C68.0227 23.3756 68.86 22.5383 68.86 21.5054C68.86 20.4726 68.0227 19.6353 66.9898 19.6353C65.9569 19.6353 65.1196 20.4726 65.1196 21.5054C65.1196 22.5383 65.9569 23.3756 66.9898 23.3756Z" fill="#E57873"/>
<path d="M73.0391 14.8518C72.4404 14.4786 71.7539 14.2695 71.0488 14.2455C70.3436 14.2215 69.6446 14.3835 69.0219 14.7152" stroke="#2B4257" stroke-width="2" stroke-miterlimit="10" stroke-linecap="round"/>
<path d="M69.0289 24.1738C69.5812 24.6567 70.2507 24.9859 70.9702 25.1285C71.6898 25.2712 72.4342 25.2223 73.1289 24.9866" stroke="#2B4257" stroke-width="2" stroke-miterlimit="10" stroke-linecap="round"/>
<path d="M57.6533 23.462C59.3596 23.462 60.7427 22.0788 60.7427 20.3726C60.7427 18.6664 59.3596 17.2832 57.6533 17.2832C55.9471 17.2832 54.564 18.6664 54.564 20.3726C54.564 22.0788 55.9471 23.462 57.6533 23.462Z" fill="#FBC2A5"/>
<path d="M57.6534 21.9549C58.5273 21.9549 59.2358 21.2465 59.2358 20.3725C59.2358 19.4985 58.5273 18.79 57.6534 18.79C56.7794 18.79 56.0709 19.4985 56.0709 20.3725C56.0709 21.2465 56.7794 21.9549 57.6534 21.9549Z" fill="#F4AB9D"/>
<path d="M53.8377 43.3039C55.7573 45.8811 56.5745 49.1153 56.1095 52.295C55.6445 55.4746 53.9354 58.3394 51.3582 60.2589L37.3837 70.6676L22.9082 51.2331L36.8827 40.8244C39.4599 38.9049 42.6941 38.0877 45.8737 38.5527C49.0534 39.0177 51.9182 40.7268 53.8377 43.3039Z" fill="#628ECC"/>
<path d="M51.3631 60.2573L37.3907 70.6691" stroke="#FFF1D7" stroke-width="2" stroke-miterlimit="10" stroke-linecap="round"/>
<path d="M37.3907 70.6692L22.9149 51.2339L36.8872 40.8257" stroke="#2B4257" stroke-width="2" stroke-miterlimit="10" stroke-linecap="round"/>
<path d="M6.21649 114.489C9.19591 114.489 11.6112 112.073 11.6112 109.094C11.6112 106.115 9.19591 103.699 6.21649 103.699C3.23707 103.699 0.821777 106.115 0.821777 109.094C0.821777 112.073 3.23707 114.489 6.21649 114.489Z" fill="#628ECC"/>
<path d="M11.6112 109.094C11.6112 110.161 11.2948 111.204 10.702 112.091C10.1093 112.978 9.26672 113.67 8.28096 114.078C7.29521 114.486 6.21051 114.593 5.16404 114.385C4.11757 114.177 3.15632 113.663 2.40186 112.909C1.64739 112.154 1.13359 111.193 0.925438 110.146C0.717281 109.1 0.824115 108.015 1.23243 107.029C1.64074 106.044 2.3322 105.201 3.21935 104.608C4.10651 104.016 5.14952 103.699 6.21649 103.699" stroke="#2B4257" stroke-width="2" stroke-miterlimit="10" stroke-linecap="round"/>
<path d="M6.21655 103.699C7.64732 103.699 9.01949 104.268 10.0312 105.279C11.0429 106.291 11.6113 107.663 11.6113 109.094" stroke="#FFF1D7" stroke-width="2" stroke-miterlimit="10" stroke-linecap="round"/>
<path d="M6.21649 106.037L5.49719 109.094H8.5542" stroke="#2B4257" stroke-width="2" stroke-miterlimit="10" stroke-linecap="round"/>
<path d="M145.961 43.4763C145.961 43.4763 159.027 30.1262 161.257 31.0901C164.231 32.3776 158.646 39.5418 158.646 39.5418C158.646 39.5418 162.17 51.5324 154.726 57.3192C147.281 63.1059 141.185 53.0394 141.185 53.0394" fill="#F4AB9D"/>
<path d="M139.933 48.569C139.933 48.569 140.448 35.9813 145.688 37.0602C150.928 38.1392 156.553 44.8178 154.596 45.2458C152.64 45.6738 148.885 44.8862 148.885 44.8862C148.885 44.8862 154.039 51.0002 149.27 56.3661" fill="#F4AB9D"/>
<path d="M145.681 37.0601C150.914 38.139 156.546 44.8177 154.589 45.2456" stroke="#FFF1D7" stroke-width="2" stroke-miterlimit="10" stroke-linecap="round"/>
<path d="M154.589 45.2456C152.633 45.6772 148.878 44.886 148.878 44.886C148.878 44.886 154.032 51 149.263 56.3659" stroke="#2B4257" stroke-width="2" stroke-miterlimit="10" stroke-linecap="round"/>
<path d="M211.302 43.0403C218.727 35.6161 219.405 24.2576 212.818 17.6704C206.231 11.0833 194.872 11.7619 187.448 19.1861C180.024 26.6104 179.345 37.9689 185.932 44.556C192.52 51.1432 203.878 50.4646 211.302 43.0403Z" fill="#C3D8DD"/>
<path d="M212.816 17.6716C219.405 24.2604 218.725 35.618 211.302 43.0412C203.879 50.4643 192.514 51.144 185.932 44.5589" stroke="#2B4257" stroke-width="2" stroke-miterlimit="10" stroke-linecap="round"/>
<path d="M205.911 53.3521C205.911 53.3521 245.112 158.934 192.777 206.35" stroke="#2B4257" stroke-width="2" stroke-miterlimit="10" stroke-linecap="round" stroke-dasharray="6 6"/>
<path d="M198.747 55.7473C198.747 55.7473 230.007 153.78 190.446 196.578" stroke="#2B4257" stroke-width="2" stroke-miterlimit="10" stroke-linecap="round" stroke-dasharray="6 6"/>
<path d="M214.057 50.6189C214.057 50.6189 249.119 131.306 214.057 198.47" stroke="#2B4257" stroke-width="2" stroke-miterlimit="10" stroke-linecap="round" stroke-dasharray="6 6"/>
</g>
<defs>
<clipPath id="clip0_601_398">
<rect x="0.462158" y="0.246582" width="229.538" height="284.237" fill="white"/>
</clipPath>
</defs>
</svg>
