<svg width="1338" height="863" viewBox="0 0 1338 863" fill="none" xmlns="http://www.w3.org/2000/svg">
<g clip-path="url(#clip0_16_746)">
<rect width="1338" height="863" fill="white"/>
<path d="M615.62 862.19C933.482 862.19 1191.16 847.845 1191.16 830.15C1191.16 812.455 933.482 798.11 615.62 798.11C297.758 798.11 40.0796 812.455 40.0796 830.15C40.0796 847.845 297.758 862.19 615.62 862.19Z" fill="#E3E5FC"/>
<path d="M1225.75 809.96C1261.82 808.04 1301.76 798.65 1323.83 775.83C1334.7 764.59 1339.72 750.21 1336.77 734.23C1333.44 716.18 1318.98 699.82 1315.78 681.71C1312.48 663.06 1327.1 656.26 1333.74 641.54C1341.26 624.89 1337.4 603.76 1323.2 587.12C1316.02 578.71 1306.36 571.6 1295.43 567.21C1283.77 562.53 1270.73 563.26 1264.21 551.45C1260.27 544.31 1260.66 536.57 1262 529.47C1265.44 511.3 1274.45 495 1281.68 478.13C1284.56 471.43 1286.83 463.08 1280.92 456.6C1268.93 443.47 1239.77 446.68 1227.12 451.7C1213.54 457.09 1203.76 467.78 1200.69 480.58C1197.97 491.9 1199.71 505.68 1189.99 513.05C1183.27 518.15 1172.91 518.55 1164.04 520.93C1148.13 525.2 1146.7 538.14 1150.96 551.71C1156.11 568.12 1161.48 584.54 1151.69 598.53C1143.08 610.84 1126.42 617.1 1115.64 627.99C1112.02 631.65 1109.01 636.06 1109.02 641.2C1109.07 659.39 1135.1 672.48 1137.18 691.58C1138.18 700.75 1136.33 709.54 1135.14 718.38C1131.08 748.53 1142.66 779.48 1175.25 801.19C1205.49 821.34 1247.2 826.24 1276.39 813.07" fill="#E3E5FC"/>
<path d="M1207.22 803.27C1207.16 803.27 1207.1 803.27 1207.04 803.26C1206.01 803.16 1205.25 802.25 1205.35 801.22L1226.47 578.42C1226.57 577.39 1227.57 576.6 1228.51 576.73C1229.54 576.83 1230.3 577.74 1230.2 578.77L1209.08 801.57C1208.99 802.54 1208.18 803.27 1207.22 803.27Z" fill="white"/>
<path d="M1217.78 691.87C1217.06 691.87 1216.37 691.45 1216.06 690.74C1215.65 689.79 1216.08 688.69 1217.03 688.27L1280.05 660.8C1281 660.39 1282.1 660.82 1282.52 661.77C1282.93 662.72 1282.5 663.82 1281.55 664.24L1218.53 691.71C1218.28 691.82 1218.03 691.87 1217.78 691.87Z" fill="white"/>
<path d="M1221.52 645.74C1220.8 645.74 1220.11 645.32 1219.8 644.61C1219.39 643.66 1219.82 642.56 1220.77 642.14L1283.79 614.67C1284.74 614.27 1285.84 614.69 1286.26 615.64C1286.67 616.59 1286.24 617.69 1285.29 618.11L1222.27 645.58C1222.03 645.69 1221.78 645.74 1221.52 645.74Z" fill="white"/>
<path d="M1219.8 670.53C1219.55 670.53 1219.29 670.48 1219.05 670.37L1162.64 645.59C1161.69 645.17 1161.26 644.07 1161.68 643.12C1162.1 642.17 1163.21 641.76 1164.15 642.16L1220.56 666.94C1221.51 667.36 1221.94 668.46 1221.52 669.41C1221.21 670.11 1220.52 670.53 1219.8 670.53Z" fill="white"/>
<path d="M1172.73 753.42C1172.93 752.72 1173.1 752.02 1173.26 751.31C1175.38 741.41 1172.24 732.03 1164.12 726.25C1157.71 721.68 1147.28 720.27 1144.78 711.6C1143.61 707.54 1144.98 703.19 1146.7 699.33C1148.42 695.47 1150.54 691.65 1150.93 687.44C1151.32 683.23 1149.39 678.41 1145.36 677.11C1142.44 676.17 1139.27 677.26 1136.22 676.96C1124.85 675.81 1128.73 663 1125.63 655.69C1124.31 652.59 1121.54 649.89 1118.18 649.61C1114.6 649.3 1111.42 651.65 1108.3 653.42C1105.18 655.19 1100.96 656.37 1098.22 654.05C1095.35 651.62 1096.03 647.03 1097.44 643.53C1100.89 634.94 1107.04 627.73 1113.53 621.13C1116.2 618.42 1119.09 615.5 1119.63 611.73C1120.32 606.95 1116.89 602.46 1112.89 599.76C1103.04 593.1 1091.25 588.59 1079.79 585.69C1067.47 582.57 1040.5 581.92 1041.9 602.03C1042.74 614.02 1060.62 633.03 1046.92 642.94C1040.21 647.79 1024.48 646.25 1028.81 658.75C1029.71 661.36 1031.05 663.83 1031.67 666.53C1034.07 676.85 1025.69 684.93 1025.26 694.81C1024.9 703.08 1032.96 709.68 1038.46 714.64C1040.96 716.89 1043.21 719.99 1042.76 723.32C1042.5 725.27 1041.35 726.98 1040.81 728.88C1039.81 732.4 1041.01 736.13 1041.25 739.78C1041.77 747.58 1034.58 748.66 1032 754.86C1026.31 768.54 1053.51 768.03 1059.26 775.39C1064.03 781.51 1062.99 789.92 1066.48 796.6C1074.02 811.02 1097.78 814.72 1112.22 815.93C1121.76 816.73 1132.02 814.99 1139.21 808.67C1147.07 801.76 1149.64 791.32 1154.23 782.33C1159.6 771.74 1169.36 765.24 1172.73 753.42Z" fill="#A7ADFF"/>
<path d="M1184.39 796.01C1180.34 786.38 1181.51 775.46 1182.75 765.08C1183.16 761.61 1183.62 758.03 1185.43 755.04C1187.1 752.29 1190.27 750.1 1193.6 750.6C1193.98 750.66 1194.37 750.74 1194.73 750.61C1195.36 750.37 1195.55 749.59 1195.63 748.93C1196.17 744.44 1195.15 740.15 1195.13 735.69C1195.11 729.83 1200.81 734.3 1202.55 736.46C1203.9 738.14 1205 740.01 1206.38 741.66C1206.54 741.85 1206.78 742.06 1207.01 741.97C1207.24 741.88 1207.27 741.56 1207.27 741.31C1207.28 740.11 1207.65 738.91 1208.31 737.91C1209.03 736.82 1210.08 735.98 1210.93 734.98C1213.47 732.02 1212.4 726.67 1214.35 723.07C1216.21 719.63 1219.62 716.6 1223.8 717.46C1230.7 718.88 1231.69 728.36 1230.33 735.27C1229.71 738.43 1229.29 742.47 1232.03 744.15C1234.94 745.93 1251.14 732.59 1256.72 729.07C1259.28 727.46 1262.8 726 1265.1 727.96C1267.32 729.86 1266.58 733.43 1265.41 736.11C1264.07 739.18 1270.34 741.24 1271.91 743.22C1277.71 750.51 1274.55 762.9 1270.64 770.23C1266.55 777.9 1260.5 784.62 1254.08 790.41C1248.82 795.16 1260.55 806.36 1255.94 811.8C1248.49 820.57 1218.01 819.86 1206.24 818.74C1196.23 817.78 1190.52 809.17 1186.54 800.83C1185.78 799.24 1185.07 797.63 1184.39 796.01Z" fill="#F44E4E"/>
<path d="M1196.99 815.82C1196.65 815.82 1196.31 815.73 1196 815.54C1195.12 814.99 1194.85 813.84 1195.4 812.96L1229.59 758.15C1230.14 757.27 1231.31 757.01 1232.17 757.55C1233.05 758.1 1233.32 759.25 1232.77 760.13L1198.58 814.94C1198.22 815.5 1197.61 815.82 1196.99 815.82Z" fill="white"/>
<path d="M1222.2 775.38C1221.3 775.38 1220.5 774.72 1220.35 773.8C1220.19 772.78 1220.88 771.82 1221.91 771.66L1240.65 768.68C1241.68 768.5 1242.64 769.21 1242.8 770.24C1242.96 771.26 1242.27 772.22 1241.24 772.38L1222.5 775.36C1222.4 775.38 1222.3 775.38 1222.2 775.38Z" fill="white"/>
<path d="M1130.91 821.52C1130.13 821.52 1129.41 821.03 1129.14 820.26L1074.95 663.14C1074.61 662.16 1075.13 661.09 1076.11 660.76C1077.08 660.42 1078.16 660.94 1078.49 661.92L1132.68 819.04C1133.02 820.02 1132.5 821.09 1131.52 821.42C1131.32 821.48 1131.11 821.52 1130.91 821.52Z" fill="white"/>
<path d="M1108.75 761C1108.69 761 1108.62 761 1108.56 760.99L1073.29 757.46C1072.26 757.36 1071.51 756.44 1071.61 755.41C1071.71 754.38 1072.65 753.64 1073.66 753.73L1108.93 757.26C1109.96 757.36 1110.71 758.28 1110.61 759.31C1110.51 760.28 1109.7 761 1108.75 761Z" fill="white"/>
<path d="M1094.15 714.68C1094.04 714.68 1093.92 714.67 1093.81 714.65L1063.9 709.14C1062.88 708.95 1062.21 707.98 1062.4 706.96C1062.59 705.94 1063.55 705.27 1064.58 705.46L1094.49 710.97C1095.51 711.16 1096.18 712.13 1095.99 713.15C1095.83 714.05 1095.04 714.68 1094.15 714.68Z" fill="white"/>
<path d="M1101.42 735.66C1100.96 735.66 1100.5 735.49 1100.14 735.16C1099.39 734.45 1099.35 733.27 1100.05 732.51L1124.85 706.02C1125.56 705.27 1126.74 705.23 1127.5 705.93C1128.25 706.64 1128.29 707.82 1127.59 708.58L1102.79 735.07C1102.42 735.46 1101.92 735.66 1101.42 735.66Z" fill="white"/>
<path d="M262.47 648.89H44.9698C20.2398 648.89 0.00976562 628.66 0.00976562 603.93V71.55C0.00976562 46.82 20.2398 26.59 44.9698 26.59H262.47C287.2 26.59 307.43 46.82 307.43 71.55V603.92C307.43 628.65 287.2 648.89 262.47 648.89Z" fill="#E3E5FC"/>
<path d="M242.96 590.83H64.4698C39.7398 590.83 19.5098 570.6 19.5098 545.87V92.47C19.5098 67.74 39.7398 47.51 64.4698 47.51H242.96C267.69 47.51 287.92 67.74 287.92 92.47V545.87C287.93 570.59 267.69 590.83 242.96 590.83Z" fill="white"/>
<path d="M182.68 40.82H124.76C123.35 40.82 122.2 39.67 122.2 38.26C122.2 36.85 123.35 35.7 124.76 35.7H182.68C184.09 35.7 185.24 36.85 185.24 38.26C185.24 39.67 184.08 40.82 182.68 40.82Z" fill="#E3E5FC"/>
<path d="M153.72 633.89C162.528 633.89 169.67 626.749 169.67 617.94C169.67 609.131 162.528 601.99 153.72 601.99C144.911 601.99 137.77 609.131 137.77 617.94C137.77 626.749 144.911 633.89 153.72 633.89Z" fill="#A7ADFF"/>
<path d="M222.3 526H85.1296C69.5596 526 56.8096 513.26 56.8096 497.68C56.8096 482.11 69.5496 469.36 85.1296 469.36H222.3C237.87 469.36 250.62 482.1 250.62 497.68C250.62 513.25 237.88 526 222.3 526Z" fill="#F44E4E"/>
<path d="M252.72 135.97H170.08C166.31 135.97 163.23 132.89 163.23 129.12C163.23 125.35 166.31 122.27 170.08 122.27H252.72C256.49 122.27 259.57 125.35 259.57 129.12C259.57 132.89 256.49 135.97 252.72 135.97Z" fill="#A7ADFF"/>
<path d="M252.72 167.35H170.08C166.31 167.35 163.23 164.27 163.23 160.5C163.23 156.73 166.31 153.65 170.08 153.65H252.72C256.49 153.65 259.57 156.73 259.57 160.5C259.57 164.26 256.49 167.35 252.72 167.35Z" fill="#A7ADFF"/>
<path d="M152.54 427.97C151.67 427.26 151.53 425.96 152.25 425.09L171.04 402.02C171.75 401.15 173.05 401.01 173.92 401.73C174.79 402.44 174.93 403.74 174.21 404.61L155.42 427.68C154.71 428.55 153.41 428.68 152.54 427.97Z" fill="#E3E5FC"/>
<path d="M154.89 427.97C155.76 427.26 155.9 425.96 155.18 425.09L136.39 402.02C135.68 401.15 134.38 401.01 133.51 401.73C132.64 402.44 132.5 403.74 133.22 404.61L152.01 427.68C152.72 428.55 154.02 428.68 154.89 427.97Z" fill="#E3E5FC"/>
<path fill-rule="evenodd" clip-rule="evenodd" d="M80.0596 122.91H120.91H120.92V119.16C120.92 104.57 111.76 92.7 100.49 92.7C89.2196 92.7 80.0596 104.57 80.0596 119.16V122.91ZM113.15 115.42H87.8196C89.0396 106.86 94.3496 100.19 100.48 100.2C106.62 100.2 111.93 106.86 113.15 115.42Z" fill="#E3E5FC"/>
<path d="M83.2198 114.28C76.8398 114.28 71.6198 118.36 71.6198 123.34L60.7598 187.06C60.7598 192.04 65.9798 196.12 72.3598 196.12H119.6L106.92 114.28H83.2198Z" fill="#A7ADFF"/>
<path d="M136.85 187.05L127.54 123.33C127.54 118.35 122.32 114.27 115.94 114.27H106.91L119.59 196.11H125.24C131.63 196.11 136.85 192.04 136.85 187.05Z" fill="#978CFF"/>
<path d="M252.72 282.74H170.08C166.31 282.74 163.23 279.66 163.23 275.89C163.23 272.12 166.31 269.04 170.08 269.04H252.72C256.49 269.04 259.57 272.12 259.57 275.89C259.57 279.65 256.49 282.74 252.72 282.74Z" fill="#A7ADFF"/>
<path d="M252.72 314.11H170.08C166.31 314.11 163.23 311.03 163.23 307.26C163.23 303.49 166.31 300.41 170.08 300.41H252.72C256.49 300.41 259.57 303.49 259.57 307.26C259.57 311.03 256.49 314.11 252.72 314.11Z" fill="#A7ADFF"/>
<path fill-rule="evenodd" clip-rule="evenodd" d="M80.0596 269.67H120.91H120.92V265.92C120.92 251.33 111.76 239.46 100.49 239.46C89.2196 239.46 80.0596 251.33 80.0596 265.92V269.67ZM113.15 262.18H87.8196C89.0396 253.62 94.3496 246.96 100.48 246.96C106.62 246.96 111.93 253.62 113.15 262.18Z" fill="#E3E5FC"/>
<path d="M83.2198 261.04C76.8398 261.04 71.6198 265.12 71.6198 270.1L60.7598 333.82C60.7598 338.8 65.9798 342.88 72.3598 342.88H119.6L106.92 261.04H83.2198V261.04Z" fill="#FAE026"/>
<path d="M136.85 333.82L127.54 270.1C127.54 265.12 122.32 261.04 115.94 261.04H106.91L119.59 342.88H125.24C131.63 342.88 136.85 338.8 136.85 333.82Z" fill="#FDC510"/>
<path d="M133.4 205.01C142.369 205.01 149.64 197.739 149.64 188.77C149.64 179.801 142.369 172.53 133.4 172.53C124.431 172.53 117.16 179.801 117.16 188.77C117.16 197.739 124.431 205.01 133.4 205.01Z" fill="#F44E4E"/>
<path d="M133.4 353.98C142.369 353.98 149.64 346.709 149.64 337.74C149.64 328.771 142.369 321.5 133.4 321.5C124.431 321.5 117.16 328.771 117.16 337.74C117.16 346.709 124.431 353.98 133.4 353.98Z" fill="#F44E4E"/>
<path d="M153.72 459.42C147.71 459.42 142.79 454.5 142.79 448.49C142.79 442.48 147.71 437.56 153.72 437.56C159.73 437.56 164.65 442.48 164.65 448.49C164.65 454.51 159.73 459.42 153.72 459.42Z" fill="#4B369D"/>
<path d="M494.439 326.76C522.839 294.79 585.019 227.51 610.569 193.35C611.909 191.56 613.279 189.67 613.549 187.48C613.889 184.71 612.419 182.08 611.219 179.54C608.389 173.56 606.879 167 606.829 160.42C606.799 157.16 607.179 153.73 609.089 151.04C610.999 148.36 614.829 146.74 617.849 148.17C617.289 158.74 619.199 169.43 623.389 179.2C626.099 174.9 628.809 170.61 631.509 166.31C634.269 180.65 622.509 193.25 616.209 206.49C613.019 213.2 571.969 260.21 567.729 266.35C544.119 300.52 538.039 313.34 514.549 334.67C508.319 340.33 501.869 346.13 493.909 349.1C485.949 352.08 475.999 351.6 469.959 345.74L494.439 326.76Z" fill="#EAC2AB"/>
<path d="M794.839 530.2L818.509 576.73L803.129 587.28L781.439 537.07C781.429 537.07 789.079 530.16 794.839 530.2Z" fill="#EAC2AB"/>
<path d="M888.42 599.91C888.42 599.91 875.14 604.05 849.7 605.63C824.26 607.21 790.39 604.1 784.4 601.97C775.29 598.74 782.28 570.73 790.76 570.79C799.24 570.85 802.52 582.35 817.49 572.22C830.31 563.54 840.52 580.15 862.82 584.72C885.12 589.29 894.15 591.13 888.42 599.91Z" fill="#FDC510"/>
<path d="M744.5 508.93C747.4 515.68 749.48 522.8 752.99 529.26C757.92 538.34 765.9 547.18 764.28 557.38C763.68 561.2 762.16 566.13 765.46 568.14C767.92 569.64 771.12 567.92 773.04 565.77C777.19 561.11 779.07 554.08 784.72 551.44C789.77 549.08 795.78 551.24 801.25 550.2C810.44 548.45 816.23 538.18 825.45 536.57C825.27 533.97 822.1 532.98 819.72 531.92C814.69 529.68 811.48 524.77 808.57 520.1C798.09 503.29 787.81 486.23 780.49 467.83C778.94 463.95 777.52 459.98 775.28 456.46C773.29 453.31 770.7 450.59 768 448.02C762.63 442.92 756.74 438.37 750.46 434.46C741.93 429.14 730.42 424.51 720.85 429.98C713.28 434.31 707.05 445.43 708.5 454.21C710.12 464.03 719.6 471.87 725.58 479.16C733.05 488.29 739.83 498.07 744.5 508.93Z" fill="#4B369D"/>
<path d="M853.239 434.5L908.939 441.35L908.529 460.55L850.849 449.89C850.849 449.88 849.589 439.37 853.239 434.5Z" fill="#EAC2AB"/>
<path d="M949.47 377.62C949.47 377.62 950.02 392.01 944.49 417.65C938.96 443.29 931.67 471.57 926.52 475.59C921.37 479.61 889.32 473.75 891.77 465.38C894.22 457.01 907.06 457.25 900.78 439.38C895.4 424.07 915.49 419.01 926.51 398.34C937.54 377.67 941.98 369.3 949.47 377.62Z" fill="#FDC510"/>
<path d="M606.249 462.1C590.749 467.28 585.289 483.06 580.179 498.59C576.479 509.85 574.449 521.67 574.199 533.52C574.049 540.22 574.849 547.73 579.949 552.07C582.769 554.46 586.489 555.49 590.139 556.1C616.419 560.53 642.839 546.8 661.889 528.17C680.939 509.54 694.559 486.18 710.799 465.05C718.039 455.63 727.179 445.91 739.039 445.18C752.529 444.35 763.449 455.29 775.569 461.26C788.569 467.66 803.04 471.34 817.329 473.44C832.079 475.6 840.24 476.41 854.389 482.07C859.909 484.28 865.75 492.33 870.9 493.78C886.34 498.13 876.099 489.79 878.27 485.82C881.06 480.73 883.4 472.3 882.009 467.53C879.599 459.3 878.66 450.16 878.99 441.6C879.199 436.11 883.769 432.2 886.339 427.55C891.489 416.31 858.139 420.88 844.389 420.3C828.349 419.63 812.589 415.89 797.129 411.55C779.789 406.68 762.66 401.03 745.829 394.62C733.63 389.98 720.779 384.84 707.929 387.09C690.379 390.16 678.349 405.73 665.709 418.28C651.059 432.83 641.429 440.96 622.339 448.82" fill="#5A54FF"/>
<path d="M448.939 314.9L457.819 342.86L481.699 348.11L474.519 336.4C474.519 336.4 462.769 316.91 467.019 304.64C471.269 292.37 448.939 314.9 448.939 314.9Z" fill="#D4A79A"/>
<path d="M455.949 230.89C462.259 232.26 472.889 239.25 474.799 245.41C476.069 249.49 477.389 253.84 480.109 257.23C483.569 261.56 488.469 263.62 492.999 266.52C497.449 269.37 491.239 270.58 489.299 273.24C487.129 276.22 486.969 279.61 486.659 283.33C486.029 290.99 487.689 305.42 483.059 311.76C476.819 320.3 453.709 316.85 446.219 312.65C444.729 311.82 427.519 302.56 427.919 301.53L455.949 230.89Z" fill="#EAC2AB"/>
<path d="M415.07 236.9C416.35 235.22 415.19 232.83 415.34 230.72C415.53 228.02 417.88 226.02 420.13 224.51C432.5 216.17 447.84 212.33 462.68 213.85C468.6 214.46 467.04 215.93 472.1 219.07C478.56 223.07 486.64 237.86 477.18 243.83C467.19 250.14 455.36 243.53 465.33 245.03C459.5 244.16 456.73 249.13 453.57 253.9C441.5 272.11 442.7 294.68 448.95 314.9C415.54 305.71 394.91 280.67 403.5 254.2C407.2 242.8 416.29 226.44 406.4 215.73C400.17 208.99 389.93 207.8 380.8 208.72C371.99 209.61 362.92 212.31 356.77 218.69C347.12 228.72 347.42 244.91 352.09 258.02C356.76 271.13 365.01 282.72 369.79 295.79C373.63 306.3 373.75 320.66 363.86 325.88C354.94 330.58 344.49 324.63 334.92 321.46C322.93 317.49 308.51 318.52 299.27 327.12C290.02 335.72 288.91 352.75 298.98 360.38C293.94 364.05 291.5 370.94 293.1 376.97C294.71 382.99 300.26 387.76 306.46 388.43C314.92 389.35 323.15 383.33 331.53 384.82C336.24 385.66 340.18 388.75 344.5 390.81C348.82 392.87 354.47 393.73 358 390.5C359.96 388.71 360.82 386.05 361.96 383.66C368.02 371.01 382.88 364.79 390.19 352.82C404.36 329.61 389.78 294.17 388.07 269.4C387.51 261.26 388.23 251.97 394.52 246.77C400.25 242.04 407.12 238.45 413.41 234.52C413.95 235.31 414.51 236.11 415.07 236.9Z" fill="#4B369D"/>
<path d="M448.039 279.41C448.039 279.41 433.679 275.63 435.109 286.66C436.539 297.69 450.289 299.31 450.289 299.31L446.779 286.41L448.039 279.41Z" fill="#EAC2AB"/>
<path d="M417.95 226.19C417.95 226.19 421.47 228.05 419.28 233.35C417.09 238.66 406.64 250.78 406.09 247.06C405.54 243.34 398.05 246.39 401.48 241.08C404.91 235.77 404.13 237.54 407.92 231.48C411.56 225.66 407.41 223.18 409.56 220.78C413.33 216.59 416.22 224.05 417.95 226.19Z" fill="#F44E4E"/>
<path d="M488.6 336.01C508.52 341.69 505.88 342.85 520.92 357.1C533.69 369.21 550.83 396.43 557.45 412.74C561.63 423.04 574.38 432.86 580.19 442.36C585.01 450.24 598.34 447.42 602.83 455.51C603.48 456.67 604.15 457.87 605.2 458.68C607.09 460.14 602.25 463.03 604.52 463.79C607.23 464.7 614.06 476.09 615.53 478.54C618.41 483.37 614.68 478.28 614.36 483.93C613.93 491.52 616.03 493.75 612.2 499.29C607.38 506.26 605.38 514.71 603.45 522.83C601.81 529.75 601.13 539.02 596 544.27C590.99 549.4 583.22 550.9 576.08 550.32C561.9 549.16 547.6 541.68 538.61 530.63C527.79 517.32 526.52 499.78 517.83 485.48C509.87 472.38 497.86 462.58 488.85 450.3C479.41 437.43 473.38 422.56 467.36 407.89C460.45 391.06 451.5 375.94 452.91 357.08C453.55 348.55 455.72 339.73 461.47 333.41C467.23 327.1 480.38 333.67 488.6 336.01Z" fill="#F44E4E"/>
<path d="M604.73 462.81C611.35 460.11 621.56 450.75 625.43 447.06C621.42 448.67 618.44 451.89 613.82 450.57C607.13 448.67 600.45 446.76 593.79 444.78C531.49 419.82 508.76 378.39 508.76 378.39C508.76 378.39 516.94 387.16 492.84 365.28C468.74 343.4 475.35 362.49 475.35 362.49C475.35 362.49 493.16 389.86 521.85 420.72C550.54 451.58 588.03 458.84 588.03 458.84C592.76 460.08 597.51 461.27 602.25 462.26C603.12 462.42 603.92 462.61 604.73 462.81Z" fill="#EAC2AB"/>
<path d="M517.21 369.46C517.21 369.46 482.12 317.59 466.63 338.77C451.14 359.95 499.8 409.66 499.8 409.66L524.73 374.54L517.21 369.46Z" fill="#D7384E"/>
<path fill-rule="evenodd" clip-rule="evenodd" d="M621.04 194.81L622.47 198.28L670.93 178.3L669.5 174.84C662.28 157.34 645.54 147.58 632.19 153.08C625.51 155.84 620.73 161.83 618.71 169.98C616.8 177.71 617.63 186.53 621.04 194.81ZM635.05 160.02C636.7 159.33 638.44 159.01 640.21 159.01C647.78 159.01 656 164.94 660.97 174.31L626.71 188.43C624.99 182.71 624.72 176.91 625.99 171.79C627.42 166.02 630.64 161.84 635.05 160.02Z" fill="#E3E5FC"/>
<path d="M621.27 187.61C613.33 190.88 608.92 198.64 611.48 204.84L630.64 289.73C633.2 295.93 641.79 298.33 649.73 295.06L708.53 270.83L650.77 175.45L621.27 187.61Z" fill="#FAE026"/>
<path d="M725.36 250.7L681.09 176.15C678.53 169.95 669.94 167.55 662 170.82L650.76 175.45L708.52 270.83L715.56 267.93C723.51 264.66 727.92 256.9 725.36 250.7Z" fill="#FDC510"/>
<path d="M493.28 18.33H392.02C388.91 18.33 386.37 15.79 386.37 12.68V6.32999C386.37 3.21999 388.91 0.679993 392.02 0.679993H493.28C496.39 0.679993 498.93 3.21999 498.93 6.32999V12.68C498.93 15.79 496.39 18.33 493.28 18.33Z" fill="#E3E5FC"/>
<path d="M493.28 48.28H392.02C388.91 48.28 386.37 45.74 386.37 42.63V36.28C386.37 33.17 388.91 30.63 392.02 30.63H493.28C496.39 30.63 498.93 33.17 498.93 36.28V42.63C498.93 45.74 496.39 48.28 493.28 48.28Z" fill="#E3E5FC"/>
<path d="M493.28 78.23H392.02C388.91 78.23 386.37 75.69 386.37 72.58V66.23C386.37 63.12 388.91 60.58 392.02 60.58H493.28C496.39 60.58 498.93 63.12 498.93 66.23V72.58C498.93 75.69 496.39 78.23 493.28 78.23Z" fill="#E3E5FC"/>
<path d="M493.28 108.18H392.02C388.91 108.18 386.37 105.64 386.37 102.53V96.18C386.37 93.07 388.91 90.53 392.02 90.53H493.28C496.39 90.53 498.93 93.07 498.93 96.18V102.53C498.93 105.64 496.39 108.18 493.28 108.18Z" fill="#E3E5FC"/>
<path d="M372.43 553.22C359.77 553.22 349.41 542.86 349.41 530.2C349.41 517.54 359.77 507.18 372.43 507.18C385.09 507.18 395.45 517.54 395.45 530.2C395.45 542.86 385.09 553.22 372.43 553.22Z" fill="#E3E5FC"/>
<path fill-rule="evenodd" clip-rule="evenodd" d="M382.73 502.72C385.32 503.69 387.88 504.17 390.33 504.17C393.69 504.17 396.86 503.26 399.6 501.46C409.03 495.31 410.22 480.36 402.24 468.14L400.19 465L365.99 487.35L368.04 490.49C371.79 496.23 377.01 500.57 382.73 502.72ZM385.36 495.7C382.14 494.49 379.11 492.3 376.57 489.38L397.8 475.52C401.45 483.36 400.65 491.83 395.51 495.19C392.8 496.96 389.19 497.14 385.36 495.7Z" fill="#E3E5FC"/>
<path d="M402.27 473.96C407.61 470.47 409.75 464.2 407.03 460.03L381.29 400.74C378.57 396.57 371.97 396.01 366.62 399.5L327.07 425.33L382.43 486.92L402.27 473.96Z" fill="#A7ADFF"/>
<path d="M317.57 442.34L360.2 490.6C362.92 494.77 369.52 495.33 374.87 491.84L382.43 486.91L327.07 425.32L322.34 428.41C316.99 431.9 314.85 438.17 317.57 442.34Z" fill="#978CFF"/>
<path fill-rule="evenodd" clip-rule="evenodd" d="M401.83 415.94L402.92 419.52L453.05 404.24L451.96 400.66C449.35 392.09 444.4 384.74 438.03 379.98C431.3 374.96 423.79 373.36 416.89 375.46C409.99 377.57 404.65 383.09 401.87 391C399.23 398.51 399.22 407.37 401.83 415.94ZM419.08 382.63C420.32 382.25 421.61 382.06 422.92 382.06C426.41 382.06 430.08 383.4 433.54 385.98C437.77 389.14 441.24 393.79 443.53 399.31L408.08 410.11C406.91 404.26 407.19 398.46 408.94 393.48C410.91 387.88 414.51 384.02 419.08 382.63Z" fill="#E3E5FC"/>
<path d="M402.74 408.78C394.52 411.28 389.4 418.58 391.35 425L402.36 511.33C404.32 517.75 412.64 520.95 420.86 518.45L481.7 499.92L433.26 399.49L402.74 408.78Z" fill="#FAE026"/>
<path d="M500.37 481.48L463.38 403.06C461.42 396.64 453.1 393.44 444.88 395.94L433.25 399.48L481.69 499.91L488.97 497.69C497.2 495.19 502.32 487.89 500.37 481.48Z" fill="#FDC510"/>
<path d="M538.87 602.35H379.23C366.57 602.35 356.21 591.99 356.21 579.33C356.21 566.67 366.57 556.31 379.23 556.31H538.87C551.53 556.31 561.89 566.67 561.89 579.33C561.89 591.99 551.53 602.35 538.87 602.35Z" fill="#FDC510"/>
<path d="M494.2 551.01H423.89C411.23 551.01 400.87 540.65 400.87 527.99C400.87 515.33 411.23 504.97 423.89 504.97H494.2C506.86 504.97 517.22 515.33 517.22 527.99C517.23 540.65 506.86 551.01 494.2 551.01Z" fill="#978CFF"/>
<path d="M646.13 601.62H597.21C584.55 601.62 574.19 591.26 574.19 578.6C574.19 565.94 584.55 555.58 597.21 555.58H646.13C658.79 555.58 669.15 565.94 669.15 578.6C669.16 591.26 658.8 601.62 646.13 601.62Z" fill="#A7ADFF"/>
<path d="M447.89 819.05C461.216 819.05 472.02 808.247 472.02 794.92C472.02 781.593 461.216 770.79 447.89 770.79C434.563 770.79 423.76 781.593 423.76 794.92C423.76 808.247 434.563 819.05 447.89 819.05Z" fill="#4B369D"/>
<path d="M447.89 811.98C457.312 811.98 464.95 804.342 464.95 794.92C464.95 785.498 457.312 777.86 447.89 777.86C438.468 777.86 430.83 785.498 430.83 794.92C430.83 804.342 438.468 811.98 447.89 811.98Z" fill="#E3E5FC"/>
<path d="M618.85 819.05C632.177 819.05 642.98 808.247 642.98 794.92C642.98 781.593 632.177 770.79 618.85 770.79C605.523 770.79 594.72 781.593 594.72 794.92C594.72 808.247 605.523 819.05 618.85 819.05Z" fill="#4B369D"/>
<path d="M618.85 811.98C628.272 811.98 635.91 804.342 635.91 794.92C635.91 785.498 628.272 777.86 618.85 777.86C609.428 777.86 601.79 785.498 601.79 794.92C601.79 804.342 609.428 811.98 618.85 811.98Z" fill="#E3E5FC"/>
<path d="M423.56 763.29C419.8 763.29 377.42 762.52 368.8 728.66C365.57 715.98 358.41 676.82 350.13 631.47C338.4 567.28 322.33 479.36 317.27 469.76C309.51 455.04 302.79 452.14 277.53 452.59C252.12 453.02 158.33 452.56 157.38 452.55L157.42 445.06C158.36 445.06 252.06 445.53 277.4 445.1C303.27 444.68 314.16 447.79 323.9 466.27C329.09 476.13 341.1 540.4 357.5 630.12C365.76 675.33 372.9 714.37 376.06 726.81C383.46 755.88 423.31 755.78 423.73 755.8H669.16V763.29H423.76C423.72 763.29 423.65 763.29 423.56 763.29Z" fill="#4B369D"/>
<path d="M678.21 607.92H349.75V600.43H672.42L705.37 474.37H321.63V466.88H715.08L678.21 607.92Z" fill="#4B369D"/>
<rect x="409.604" y="471.511" width="7.48974" height="137.965" transform="rotate(-14.549 409.604 471.511)" fill="#4B369D"/>
<rect x="512.18" y="470.63" width="7.49" height="130.99" fill="#4B369D"/>
<rect x="580.828" y="603.198" width="137.972" height="7.49009" transform="rotate(-75.4635 580.828 603.198)" fill="#4B369D"/>
<rect x="333.19" y="511.55" width="362.77" height="7.49" fill="#4B369D"/>
<rect x="341.83" y="556.52" width="344.96" height="7.49" fill="#4B369D"/>
</g>
<defs>
<clipPath id="clip0_16_746">
<rect width="1338" height="863" fill="white"/>
</clipPath>
</defs>
</svg>
