<svg width="1467" height="757" viewBox="0 0 1467 757" fill="none" xmlns="http://www.w3.org/2000/svg">
<g clip-path="url(#clip0_16_868)">
<rect width="1467" height="757" fill="white"/>
<path d="M1373.05 269.81C1374.35 271.96 1374.63 274.57 1374.7 277.09C1375.36 300.08 1360.26 322.69 1338.78 330.88C1333.73 332.81 1328.2 334.12 1324.26 337.81C1320.32 341.51 1319.04 348.77 1323.37 351.99C1326.24 354.12 1330.21 353.64 1333.74 353.06C1346.63 350.93 1359.53 348.8 1372.42 346.67C1375 358.44 1368.1 371.57 1356.94 376.11C1352.27 378.01 1347.07 378.54 1342.61 380.9C1338.15 383.26 1334.51 388.56 1336.45 393.22C1338.21 397.46 1344.02 399.99 1343.61 404.57C1343.22 409 1337.62 410.38 1333.45 411.89C1311.88 419.67 1312.69 451 1298.13 468.71C1288.68 480.2 1273.5 484.91 1259.21 489.06C1246.88 492.64 1233.97 496.25 1221.37 493.8C1200.7 489.79 1185.42 467.57 1189.08 446.84C1192.73 426.14 1211.13 411.9 1227.26 398.43C1261.06 370.21 1288.11 343.99 1295.96 300.44C1298.58 285.91 1302.81 276.1 1315.94 267.96C1329.13 259.78 1362.75 252.76 1373.05 269.81Z" fill="#F44E4E"/>
<path d="M1178 428.42C1187.84 415.62 1197.69 402.82 1207.53 390.02C1236.63 352.19 1266.14 313.63 1282.9 268.94C1289.53 251.27 1294.11 232.44 1292.57 213.64C1292.26 209.77 1291.51 205.59 1288.63 202.99C1283.73 198.57 1275.99 201.17 1270.14 204.2C1252.57 213.3 1236.1 224.51 1221.2 237.53C1220.73 196.27 1260.85 165.04 1268.01 124.4C1269.17 117.81 1269.32 110.59 1265.79 104.91C1263.52 101.26 1259.91 98.58 1256.01 96.78C1242.74 90.64 1226.6 94.29 1214.41 102.37C1202.23 110.45 1193.18 122.35 1184.39 134.03C1196.65 118.44 1204.36 99.31 1206.34 79.57C1207.16 71.39 1206.73 62.33 1201.3 56.15C1192.1 45.69 1174.08 50 1164.26 59.9C1145.33 78.98 1146.14 109.36 1146.79 136.23C1147.44 163.1 1144.37 194.44 1121.85 209.12C1119.15 210.88 1116.11 212.46 1114.54 215.28C1111.48 220.77 1115.79 227.74 1121.21 230.93C1126.63 234.12 1133.13 235.17 1138.44 238.53C1150.35 246.06 1152.73 262.46 1151.43 276.49C1150.13 290.52 1146.42 304.98 1150.68 318.42C1155.97 335.13 1157.09 356.47 1160.98 373.56C1162.74 381.32 1177.18 379.66 1177.47 387.61C1177.77 395.56 1179.91 404.16 1186.27 408.94C1192.64 413.71 1203.92 411.78 1205.86 404.06" fill="#5A54FF"/>
<path d="M1406.94 696.95C1424.72 695.41 1443.13 693.07 1458.21 683.53C1463.81 679.99 1469.31 673.11 1465.98 667.38C1464.66 665.11 1462.25 663.74 1459.91 662.56C1435.78 650.34 1407.29 646.96 1380.97 653.21C1370.5 655.69 1359.36 659.61 1349.35 655.67C1371.96 642.94 1394.57 630.22 1417.18 617.49C1421.6 615 1426.2 612.35 1428.95 608.09C1431.7 603.83 1431.89 597.45 1427.97 594.22C1426.25 592.8 1424.01 592.18 1421.81 591.78C1408.2 589.28 1393.46 594.14 1383.99 604.23C1398.21 585.89 1407.69 563.9 1411.25 540.96C1411.76 537.66 1412.09 534.06 1410.36 531.21C1408.79 528.63 1405.83 527.25 1402.94 526.39C1392.84 523.4 1381.39 525.39 1372.88 531.61C1362.96 538.87 1357.72 550.69 1350.98 560.97C1344.23 571.24 1333.8 581.07 1321.55 580.09C1334.51 560.65 1341.06 537.02 1339.95 513.68C1339.56 505.5 1338.11 497 1333.24 490.42C1327.17 482.23 1316.42 478.3 1306.25 478.95C1296.08 479.6 1286.5 484.35 1278.53 490.7C1254.68 509.73 1244.85 544.52 1255.23 573.21C1257.81 580.35 1261.55 588.03 1258.92 595.16C1257.07 600.16 1252.48 603.56 1248 606.46C1217.93 625.95 1180.57 657.73 1219.11 692.06C1229.54 701.35 1240.36 701.74 1253.73 701.37C1275.39 700.77 1297 700.93 1318.68 700.74C1348.11 700.5 1377.58 699.5 1406.94 696.95Z" fill="#FAE026"/>
<path d="M1148.5 414.14C1148.35 414.14 1148.2 414.12 1148.04 414.08C1147.03 413.83 1146.43 412.81 1146.68 411.8C1205.51 178.98 1206.66 177.85 1207.15 177.36C1207.89 176.63 1209.07 176.64 1209.8 177.38C1210.39 177.98 1210.5 178.88 1210.12 179.58C1207.96 185.35 1170.11 334.39 1150.31 412.72C1150.1 413.57 1149.33 414.14 1148.5 414.14Z" fill="white"/>
<path d="M1173.81 314.3C1173.1 314.3 1172.43 313.9 1172.11 313.22C1171.67 312.28 1172.08 311.17 1173.02 310.73L1245.75 276.92C1246.68 276.49 1247.81 276.89 1248.24 277.83C1248.68 278.77 1248.27 279.88 1247.33 280.32L1174.6 314.13C1174.35 314.25 1174.08 314.3 1173.81 314.3Z" fill="white"/>
<path d="M1271.94 427.88C1271.7 427.88 1271.46 427.83 1271.22 427.74C1270.26 427.34 1269.81 426.25 1270.21 425.29L1317.25 311.72C1317.65 310.76 1318.75 310.31 1319.7 310.71C1320.66 311.11 1321.11 312.2 1320.71 313.16L1273.67 426.73C1273.37 427.44 1272.68 427.88 1271.94 427.88Z" fill="white"/>
<path d="M1271.94 692.94C1271.47 692.94 1271 692.77 1270.64 692.42C1269.89 691.7 1269.87 690.52 1270.59 689.77L1349.48 607.69C1350.2 606.94 1351.39 606.93 1352.13 607.64C1352.88 608.36 1352.9 609.54 1352.18 610.29L1273.29 692.37C1272.93 692.75 1272.43 692.94 1271.94 692.94Z" fill="white"/>
<path d="M1371.44 680.18C1371.29 680.18 1371.13 680.16 1370.97 680.12L1302.28 662.22C1301.28 661.96 1300.68 660.94 1300.94 659.93C1301.2 658.93 1302.22 658.33 1303.22 658.59L1371.91 676.49C1372.91 676.75 1373.51 677.77 1373.25 678.78C1373.03 679.62 1372.28 680.18 1371.44 680.18Z" fill="white"/>
<path d="M827.24 667.26H585.87C577.76 667.26 571.12 660.62 571.12 652.51C571.12 644.4 577.76 637.76 585.87 637.76H827.25C835.36 637.76 842 644.4 842 652.51C842 660.62 835.36 667.26 827.24 667.26Z" fill="#978CFF"/>
<path d="M751.78 667.26H661.33C655 667.26 649.82 662.08 649.82 655.75V547.86C649.82 541.53 655 536.35 661.33 536.35H751.78C758.11 536.35 763.29 541.53 763.29 547.86V655.75C763.29 662.08 758.11 667.26 751.78 667.26Z" fill="#978CFF"/>
<path d="M1128.18 575.91H284.93C267.5 575.91 253.24 561.65 253.24 544.22V31.88C253.24 14.45 267.5 0.190002 284.93 0.190002H1128.18C1145.61 0.190002 1159.87 14.45 1159.87 31.88V544.22C1159.88 561.65 1145.61 575.91 1128.18 575.91Z" fill="#A7ADFF"/>
<path d="M296.55 13.59C280.86 13.59 268.03 26.42 268.03 42.11V226.33C357.81 154.25 448.88 83.47 540.86 13.59L296.55 13.59Z" fill="#EFF0FC"/>
<path d="M1113.09 13.59H1031.61H540.85C448.87 83.47 357.8 154.25 268.02 226.33V419.74V489.37C268.02 505.06 280.86 517.89 296.54 517.89H1113.08C1128.77 517.89 1141.6 505.05 1141.6 489.37V42.11C1141.61 26.42 1128.77 13.59 1113.09 13.59Z" fill="#E3E5FC"/>
<path d="M704.82 551.06C709.172 551.06 712.7 547.532 712.7 543.18C712.7 538.828 709.172 535.3 704.82 535.3C700.468 535.3 696.94 538.828 696.94 543.18C696.94 547.532 700.468 551.06 704.82 551.06Z" fill="#4B369D"/>
<path d="M16.44 683.85C14.91 682.49 13.31 680.9 13.11 678.86C12.87 676.38 14.82 674.21 16.92 672.86C22.38 669.33 29.24 669.05 35.53 667.39C41.82 665.73 48.47 661.47 48.91 654.99C49.8 641.82 27.18 630.66 18.8 623.74C12.7 618.7 6.43003 613.44 2.95003 606.34C-0.529966 599.24 -0.429966 589.74 5.34003 584.33C12.49 577.62 42.84 583.44 50.78 577.67C61.06 570.2 -6.74997 550.8 49.67 542.84C37.24 509.58 73.96 520.79 82.22 529.13C87.52 534.48 101.68 551.6 108.37 548.13C111.46 546.53 126.93 550.51 129.08 547.76C137.87 536.53 119.27 547.37 131.56 540.27C145.65 567.34 124.99 604.43 123.17 632.58C122.26 646.71 139.2 648.38 139.72 663.73C140.03 672.79 136.28 681.43 132.61 689.72C127.8 700.58 122.2 712.28 111.51 717.47C102.52 721.84 91.85 720.56 82.13 718.22C57.85 712.37 35.07 700.45 16.44 683.85Z" fill="#5A54FF"/>
<path d="M119.31 734.51C118.53 734.51 117.81 734.02 117.54 733.25L65.08 580.92C64.74 579.94 65.26 578.88 66.24 578.54C67.22 578.2 68.28 578.72 68.62 579.7L121.08 732.03C121.42 733.01 120.9 734.07 119.92 734.41C119.72 734.48 119.51 734.51 119.31 734.51Z" fill="white"/>
<path d="M83.69 631.06C83.45 631.06 83.2 631.01 82.96 630.91C38.6 612.19 38.63 611.21 38.7 609.59C38.73 608.81 39.29 608.07 40.04 607.83C40.89 607.55 41.8 607.91 42.24 608.65C45.75 610.87 69.63 621.22 84.42 627.47C85.37 627.87 85.82 628.97 85.42 629.92C85.11 630.63 84.42 631.06 83.69 631.06Z" fill="white"/>
<path d="M109.21 705.19C109 705.19 108.79 705.15 108.58 705.08C108.17 704.93 50.6101 684.65 50.6101 684.65L51.8501 681.12C110.23 701.69 110.23 701.69 110.53 702C111.15 702.62 111.26 703.58 110.79 704.33C110.45 704.87 109.84 705.19 109.21 705.19Z" fill="white"/>
<path d="M454.53 654.08C458.77 650.95 463.4 647.12 463.7 641.86C464.02 636.25 458.69 631.42 453.1 630.89C447.5 630.36 442.05 633.24 437.99 637.14C433.52 618.96 467.11 609.2 464.29 590.7C455.45 587.63 444.8 590.95 439.27 598.51C433.24 584.42 442.6 568.76 452.15 556.77C461.7 544.78 472.55 530.94 469.61 515.9C461.1 514.54 452.03 517.17 445.57 522.88C441.46 516.1 440.73 507.37 443.65 500C445.41 495.55 448.48 491.21 447.77 486.48C446.32 476.77 432.53 476.33 422.96 478.53C424.37 456.11 405.35 434.4 382.94 432.85C373.02 432.16 360.73 437.77 361.14 447.71C361.28 451.21 363.03 454.4 364.52 457.56C371.25 471.88 373.19 488.41 369.96 503.9C367.09 517.67 360.55 533.01 368.27 544.77C370.76 548.57 374.52 551.43 376.93 555.29C379.76 559.81 380.5 565.28 381.18 570.56C384.71 598.06 381.15 648.94 399.41 671.6C417.28 693.78 456.33 664.9 473.01 652.53C499.43 632.95 519.92 602.35 518.78 569.49C518.71 567.52 518.47 565.35 517.01 564.03C515.4 562.57 512.94 562.71 510.78 562.94C501.1 563.97 491.41 564.99 481.73 566.02C486.52 541 515.51 523.75 514.39 498.3C507.48 497.55 500.56 496.8 493.65 496.05C499.32 486.83 505.1 477.29 506.71 466.59C508.32 455.89 504.68 443.63 495.27 438.3C481.51 430.51 464.82 440.6 452.34 450.26C479.33 429.11 501.72 287.87 439.22 318.94C432.35 322.36 424.35 325.07 417.12 322.52C399.7 316.38 415.6 288.42 406.51 275.79C403.29 271.31 398.11 268.57 392.79 267.12C380.44 263.74 366.49 266.91 356.82 275.3C347.15 283.69 342.03 297.04 343.62 309.75C344.8 319.15 349.32 327.75 353.47 336.27C366.88 363.79 252.97 289.93 296.18 391.63C279.01 379.99 346.31 402.68 325.83 405.98C305.35 409.28 286.43 427.19 287.5 447.91C288.5 467.05 304.61 481.38 318.88 494.17C333.16 506.96 347.93 523.67 345.03 542.62C343.36 553.5 336.05 562.57 331.87 572.76C327.68 582.94 327.93 596.99 337.53 602.38C343.14 605.53 350.62 604.83 355.46 609.07C359.95 613 360.49 619.63 361.33 625.54C364.22 645.9 377.27 673.83 396.28 684.26C414.44 694.16 438.67 665.81 454.53 654.08Z" fill="#FAE026"/>
<path d="M448.43 688.74C447.55 688.74 446.76 688.11 446.59 687.22L400.73 445.09C400.54 444.07 401.21 443.09 402.22 442.9C403.26 442.71 404.22 443.38 404.41 444.39L450.27 686.52C450.46 687.54 449.79 688.52 448.78 688.71C448.66 688.73 448.54 688.74 448.43 688.74Z" fill="white"/>
<path d="M425.94 570C425.6 570 425.26 569.91 424.95 569.72C424.07 569.17 423.8 568.02 424.35 567.14L466.82 498.64C467.37 497.76 468.52 497.49 469.4 498.04C470.28 498.59 470.55 499.74 470 500.62L427.53 569.12C427.17 569.68 426.56 570 425.94 570Z" fill="white"/>
<path d="M389.41 435.65C389.07 435.65 388.73 435.56 388.42 435.37C387.54 434.82 387.27 433.67 387.82 432.79L430.29 364.29C430.84 363.41 431.99 363.14 432.87 363.69C433.75 364.24 434.02 365.39 433.47 366.27L391 434.77C390.65 435.34 390.04 435.65 389.41 435.65Z" fill="white"/>
<path d="M744.74 548.57C746.86 547.13 749.19 546.03 751.67 545.38C762.01 542.67 772.75 548.06 781.15 554.66C789.56 561.26 797.08 569.36 806.93 573.51C811.51 575.44 818.61 575.14 819.39 570.23C819.75 567.95 818.41 565.78 817.08 563.89C803.74 544.91 785.66 530.71 769.21 514.64C764.81 510.34 760.03 504.4 762.41 498.73C764.96 492.64 773.86 492.4 779.65 495.56C785.44 498.72 789.9 504.1 795.98 506.65C797.57 507.32 799.32 507.78 801.01 507.44C804.21 506.8 806.25 503.38 806.41 500.12C807.4 480.06 782.21 466.2 773.5 450.49C766.07 437.08 766.09 420.88 767.35 405.6C768.34 393.67 770.31 381.01 778.23 372.04C780.02 370.01 782.29 368.13 784.98 367.94C795.24 367.18 797.28 390.97 803.47 397.18C809.1 402.82 816.86 406.52 820.75 413.47C825.66 422.24 822.85 433.17 824.3 443.12C826.61 459.03 841.18 461.85 846.28 473.6C846.42 464.51 846.45 455.3 846.52 446.16C846.54 443.25 846.71 439.98 848.86 438.01C853.54 433.71 860.67 440.31 862.01 446.52C863.78 454.69 862.16 463.18 862.26 471.54C862.36 479.9 864.86 489.18 872.07 493.42C880.02 498.09 890.02 494.81 898.83 492.09C907.64 489.37 918.62 487.86 924.83 494.68C927.27 497.35 928.49 500.92 929.18 504.47C935 534.56 906.66 564.52 915.37 593.9C923.18 620.24 940.26 635.49 913.03 657.33C901.87 666.28 889.51 670.6 875.19 667.34C864.23 664.85 854.32 659.14 844.42 653.83C823.97 642.88 800.94 638.2 779.34 629.82C764.27 623.97 749.56 615.54 740.23 602.33C730.9 589.12 728.14 570.36 736.87 556.75C738.92 553.55 741.6 550.7 744.74 548.57Z" fill="#F44E4E"/>
<path d="M895.39 668.75C894.65 668.75 893.95 668.31 893.66 667.59L800.79 441.08C800.4 440.12 800.86 439.03 801.81 438.64C802.76 438.25 803.87 438.7 804.25 439.66L897.12 666.17C897.51 667.13 897.05 668.22 896.1 668.61C895.87 668.7 895.63 668.75 895.39 668.75Z" fill="white"/>
<path d="M876.87 623.56C876.74 623.56 876.61 623.55 876.47 623.52L784.02 603.64C783.01 603.42 782.37 602.43 782.58 601.42C782.8 600.41 783.79 599.77 784.81 599.98L877.26 619.86C878.27 620.08 878.91 621.07 878.7 622.08C878.51 622.96 877.73 623.56 876.87 623.56Z" fill="white"/>
<path d="M842 538.53C841.8 538.53 841.58 538.5 841.38 538.42L805.65 525.82C804.67 525.48 804.16 524.41 804.5 523.43C804.84 522.46 805.92 521.95 806.89 522.29L842.62 534.89C843.6 535.23 844.11 536.3 843.77 537.28C843.5 538.04 842.77 538.53 842 538.53Z" fill="white"/>
<path d="M852.6 564.37C852.43 564.37 852.25 564.35 852.08 564.29C851.08 564 850.51 562.96 850.8 561.97L864.53 514.78C864.82 513.79 865.85 513.2 866.85 513.5C867.85 513.79 868.42 514.83 868.13 515.82L854.4 563.01C854.16 563.84 853.41 564.37 852.6 564.37Z" fill="white"/>
<path d="M144.11 466.36C143.07 466.36 142.24 465.52 142.24 464.49V458.87C142.24 457.83 143.08 457 144.11 457C145.14 457 145.98 457.84 145.98 458.87V464.49C145.98 465.52 145.15 466.36 144.11 466.36Z" fill="#4B369D"/>
<path fill-rule="evenodd" clip-rule="evenodd" d="M199.72 194.68C199.72 195.71 200.56 196.54 201.59 196.54C201.594 196.54 201.597 196.54 201.599 196.539C201.602 196.538 201.604 196.536 201.61 196.53C205.53 196.49 209.35 196.48 213.02 196.48C214.05 196.48 214.89 195.65 214.89 194.61C214.89 193.58 214.06 192.74 213.02 192.74C209.34 192.74 205.51 192.76 201.58 192.79C200.54 192.8 199.71 193.65 199.72 194.68ZM235.85 196.63H235.82C232.4 196.58 228.57 196.55 224.41 196.52C223.37 196.51 222.54 195.67 222.55 194.64C222.56 193.61 223.53 192.87 224.43 192.78C228.59 192.81 232.44 192.84 235.87 192.89C236.9 192.9 237.73 193.75 237.72 194.79C237.71 195.81 236.88 196.63 235.85 196.63ZM176.88 195.07C176.9 196.09 177.74 196.9 178.75 196.9C178.77 196.9 178.78 196.9 178.81 196.89C182.64 196.79 186.45 196.71 190.21 196.65C191.24 196.64 192.07 195.79 192.05 194.75C192.04 193.72 191.36 192.94 190.15 192.91L189.873 192.915C186.184 192.983 182.456 193.052 178.71 193.15C177.67 193.18 176.85 194.04 176.88 195.07ZM156.93 202.39C156.32 202.39 155.71 202.09 155.35 201.53C154.79 200.66 155.04 199.5 155.91 198.94C159.1 196.88 162.84 195.35 167.01 194.4C168 194.15 169.02 194.8 169.25 195.81C169.48 196.82 168.85 197.82 167.84 198.05C164.09 198.9 160.76 200.26 157.94 202.09C157.63 202.29 157.28 202.39 156.93 202.39ZM144.36 220.94C144.49 220.97 144.62 220.98 144.75 220.98C145.61 220.98 146.39 220.37 146.59 219.51C147.38 215.78 148.71 212.44 150.54 209.57C151.1 208.69 150.84 207.54 149.97 206.98C149.1 206.42 147.94 206.68 147.38 207.55C145.31 210.79 143.81 214.55 142.92 218.72C142.7 219.73 143.35 220.72 144.36 220.94ZM144.11 243.76C143.07 243.76 142.24 242.92 142.24 241.89V232.43C142.22 232.39 142.13 231.69 142.06 230.6C141.99 229.57 142.78 228.68 143.81 228.61C144.83 228.55 145.73 229.33 145.8 230.36C145.854 231.189 145.92 231.754 145.948 231.985C145.955 232.052 145.96 232.091 145.96 232.1L145.98 241.89C145.98 242.92 145.15 243.76 144.11 243.76ZM142.24 264.73C142.24 265.76 143.07 266.6 144.11 266.6C145.15 266.6 145.98 265.76 145.98 264.72V253.3C145.98 252.27 145.14 251.43 144.11 251.43C143.08 251.43 142.24 252.26 142.24 253.3V264.73ZM144.11 289.44C143.07 289.44 142.24 288.6 142.24 287.57V276.15C142.24 275.11 143.08 274.28 144.11 274.28C145.14 274.28 145.98 275.12 145.98 276.15V287.57C145.98 288.6 145.15 289.44 144.11 289.44ZM142.24 310.41C142.24 311.44 143.07 312.28 144.11 312.28C145.15 312.28 145.98 311.44 145.98 310.41V298.99C145.98 297.96 145.14 297.12 144.11 297.12C143.08 297.12 142.24 297.95 142.24 298.99V310.41ZM144.11 335.12C143.07 335.12 142.24 334.28 142.24 333.25V321.83C142.24 320.79 143.08 319.96 144.11 319.96C145.14 319.96 145.98 320.8 145.98 321.83V333.25C145.98 334.28 145.15 335.12 144.11 335.12ZM142.24 356.09C142.24 357.12 143.07 357.96 144.11 357.96C145.15 357.96 145.98 357.12 145.98 356.09V344.67C145.98 343.64 145.14 342.8 144.11 342.8C143.08 342.8 142.24 343.63 142.24 344.67V356.09ZM144.11 380.8C143.07 380.8 142.24 379.96 142.24 378.93V367.5C142.24 366.46 143.08 365.63 144.11 365.63C145.14 365.63 145.98 366.47 145.98 367.5V378.92C145.98 379.96 145.15 380.8 144.11 380.8ZM142.24 401.77C142.24 402.8 143.07 403.64 144.11 403.64C145.15 403.64 145.98 402.8 145.98 401.77V390.35C145.98 389.32 145.14 388.48 144.11 388.48C143.08 388.48 142.24 389.31 142.24 390.35V401.77ZM144.11 426.48C143.07 426.48 142.24 425.64 142.24 424.61V413.19C142.24 412.15 143.08 411.32 144.11 411.32C145.14 411.32 145.98 412.16 145.98 413.19V424.61C145.98 425.64 145.15 426.48 144.11 426.48ZM144.11 449.32C143.07 449.32 142.24 448.48 142.24 447.45V436.03C142.24 434.99 143.08 434.16 144.11 434.16C145.14 434.16 145.98 435 145.98 436.03V447.45C145.98 448.48 145.15 449.32 144.11 449.32Z" fill="#4B369D"/>
<path d="M252.96 196.95C252.94 196.95 252.93 196.95 252.91 196.95C252.91 196.95 250.89 196.9 247.31 196.82C246.28 196.8 245.45 195.94 245.47 194.91C245.49 193.88 246.45 193.15 247.38 193.07C250.97 193.14 253 193.2 253 193.2C254.03 193.23 254.85 194.09 254.82 195.12C254.8 196.14 253.97 196.95 252.96 196.95Z" fill="#4B369D"/>
<path d="M716.17 672.89C715.15 672.89 714.32 672.08 714.3 671.06C714.22 667.51 714.16 665.47 714.16 665.47C714.13 664.44 714.94 663.57 715.98 663.54C716.94 663.55 717.88 664.32 717.91 665.36C717.91 665.36 717.97 667.41 718.05 670.99C718.07 672.02 717.25 672.88 716.22 672.9C716.2 672.89 716.18 672.89 716.17 672.89Z" fill="#4B369D"/>
<path fill-rule="evenodd" clip-rule="evenodd" d="M714.57 693.27C714.57 694.31 715.41 695.14 716.44 695.14C717.48 695.14 718.32 694.29 718.32 693.25C718.3 689.21 718.27 685.46 718.23 682.1C718.21 681.07 717.22 680.19 716.33 680.25C715.3 680.27 714.47 681.12 714.48 682.15C714.52 685.5 714.56 689.24 714.57 693.27ZM716.3 717.4H716.27C715.24 717.38 714.41 716.53 714.43 715.5C714.49 711.71 714.53 707.98 714.55 704.39C714.56 703.36 715.39 702.53 716.42 702.53H716.43C717.47 702.54 718.3 703.38 718.29 704.41C718.27 708.02 718.23 711.75 718.17 715.56C718.16 716.58 717.33 717.4 716.3 717.4ZM713.78 739.38C713.97 739.45 714.17 739.48 714.37 739.48C715.15 739.48 715.88 738.98 716.15 738.19C717.2 735.05 717.79 731.5 717.91 727.63L717.94 726.71C717.97 725.67 717.15 724.81 716.12 724.78C715.16 724.76 714.22 725.57 714.19 726.6L714.16 727.52C714.06 731.02 713.53 734.21 712.6 737.01C712.27 737.99 712.8 739.05 713.78 739.38ZM291.19 745.27C290.45 745.27 289.75 744.83 289.46 744.11C289.06 743.13 288.78 742.09 288.63 741.01L288.61 732.37C288.61 731.33 289.45 730.5 290.48 730.5C291.51 730.5 292.35 731.34 292.35 732.37V740.75C292.44 741.26 292.63 741.99 292.91 742.68C293.3 743.64 292.84 744.73 291.89 745.12C291.67 745.22 291.43 745.27 291.19 745.27ZM697.44 753.37C697.72 754.14 698.44 754.62 699.21 754.62C699.41 754.62 699.62 754.58 699.83 754.51C703.82 753.1 707.23 751.02 709.95 748.33C710.68 747.6 710.69 746.42 709.96 745.68C709.23 744.95 708.05 744.94 707.31 745.67C704.98 747.97 702.05 749.75 698.58 750.98C697.61 751.32 697.09 752.39 697.44 753.37ZM309.565 755.693H309.565L309.54 755.69C305.19 755.01 301.43 753.93 298.35 752.5C297.41 752.06 297.01 750.95 297.44 750.01C297.87 749.07 298.98 748.67 299.93 749.1C302.69 750.38 306.12 751.35 310.12 751.98C311.14 752.14 311.84 753.1 311.68 754.12C311.53 755.05 310.73 755.71 309.83 755.71C309.738 755.71 309.655 755.702 309.565 755.693H309.565H309.565ZM320.95 756.46H332.08C333.12 756.46 333.95 755.62 333.95 754.59C333.95 753.56 333.12 752.72 332.08 752.72H320.95C319.92 752.72 319.08 753.55 319.08 754.59C319.08 755.62 319.91 756.46 320.95 756.46ZM354.35 756.46H343.22C342.18 756.46 341.35 755.62 341.35 754.59C341.35 753.55 342.19 752.72 343.22 752.72H354.35C355.39 752.72 356.22 753.56 356.22 754.59C356.22 755.62 355.38 756.46 354.35 756.46ZM365.48 756.46H376.61C377.64 756.46 378.48 755.62 378.48 754.59C378.48 753.56 377.65 752.72 376.61 752.72H365.48C364.45 752.72 363.61 753.55 363.61 754.59C363.61 755.62 364.44 756.46 365.48 756.46ZM398.87 756.46H387.74C386.7 756.46 385.87 755.62 385.87 754.59C385.87 753.55 386.71 752.72 387.74 752.72H398.87C399.91 752.72 400.74 753.56 400.74 754.59C400.74 755.62 399.91 756.46 398.87 756.46ZM410 756.46H421.13C422.17 756.46 423.01 755.62 423 754.59C423 753.56 422.17 752.72 421.13 752.72H410C408.97 752.72 408.13 753.55 408.13 754.59C408.13 755.62 408.96 756.46 410 756.46ZM443.4 756.46H432.27C431.23 756.46 430.4 755.62 430.4 754.59C430.4 753.55 431.24 752.72 432.27 752.72H443.4C444.44 752.72 445.27 753.56 445.27 754.59C445.27 755.62 444.43 756.46 443.4 756.46ZM454.53 756.46H465.66C466.7 756.46 467.53 755.62 467.53 754.59C467.53 753.56 466.7 752.72 465.66 752.72H454.53C453.5 752.72 452.66 753.55 452.66 754.59C452.66 755.62 453.49 756.46 454.53 756.46ZM487.92 756.46H476.79C475.75 756.46 474.92 755.62 474.92 754.59C474.92 753.55 475.76 752.72 476.79 752.72H487.92C488.96 752.72 489.79 753.56 489.79 754.59C489.8 755.62 488.96 756.46 487.92 756.46ZM499.06 756.46H510.19C511.22 756.46 512.06 755.62 512.06 754.59C512.06 753.56 511.23 752.72 510.19 752.72H499.06C498.03 752.72 497.19 753.55 497.19 754.59C497.19 755.62 498.02 756.46 499.06 756.46ZM532.45 756.46H521.32C520.28 756.46 519.45 755.62 519.45 754.59C519.45 753.55 520.29 752.72 521.32 752.72H532.45C533.49 752.72 534.32 753.56 534.32 754.59C534.32 755.62 533.49 756.46 532.45 756.46ZM543.58 756.46H554.71C555.75 756.46 556.59 755.62 556.58 754.59C556.58 753.56 555.75 752.72 554.71 752.72H543.58C542.55 752.72 541.71 753.55 541.71 754.59C541.71 755.62 542.54 756.46 543.58 756.46ZM576.98 756.46H565.85C564.81 756.46 563.98 755.62 563.98 754.59C563.98 753.55 564.82 752.72 565.85 752.72H576.98C578.02 752.72 578.85 753.56 578.85 754.59C578.85 755.62 578.01 756.46 576.98 756.46ZM588.11 756.46H599.24C600.27 756.46 601.11 755.62 601.11 754.59C601.11 753.56 600.28 752.72 599.24 752.72H588.11C587.08 752.72 586.24 753.55 586.24 754.59C586.24 755.62 587.07 756.46 588.11 756.46ZM621.5 756.46H610.37C609.33 756.46 608.5 755.62 608.5 754.59C608.5 753.55 609.34 752.72 610.37 752.72H621.5C622.54 752.72 623.37 753.56 623.37 754.59C623.38 755.62 622.54 756.46 621.5 756.46ZM632.63 756.46H643.76C644.8 756.46 645.64 755.62 645.63 754.59C645.63 753.56 644.8 752.72 643.76 752.72H632.63C631.6 752.72 630.76 753.55 630.76 754.59C630.76 755.62 631.59 756.46 632.63 756.46ZM666.03 756.46H654.9C653.86 756.46 653.03 755.62 653.03 754.59C653.03 753.55 653.87 752.72 654.9 752.72H666.03C667.07 752.72 667.9 753.56 667.9 754.59C667.9 755.62 667.06 756.46 666.03 756.46ZM686.41 756.68C684.176 756.68 682.622 756.51 682.183 756.462L682.107 756.454C682.081 756.451 682.065 756.45 682.06 756.45L677.17 756.47C676.13 756.47 675.3 755.63 675.3 754.6C675.3 753.56 676.14 752.73 677.17 752.73H682.32C682.366 752.733 682.451 752.741 682.572 752.753C683.309 752.826 685.377 753.03 688.22 752.91C689.25 752.88 690.13 753.67 690.17 754.7C690.22 755.73 689.41 756.61 688.38 756.65C687.67 756.67 687.01 756.68 686.41 756.68Z" fill="#4B369D"/>
<path d="M290.49 723.03C289.45 723.03 288.62 722.19 288.62 721.16V715.54C288.62 714.5 289.46 713.67 290.49 713.67C291.52 713.67 292.36 714.51 292.36 715.54V721.16C292.37 722.19 291.53 723.03 290.49 723.03Z" fill="#4B369D"/>
<path d="M474.17 239.26H258.27C233.72 239.26 213.63 219.17 213.63 194.62C213.63 170.07 233.72 149.98 258.27 149.98H474.17C498.72 149.98 518.81 170.07 518.81 194.62C518.82 219.17 498.73 239.26 474.17 239.26Z" fill="#4B369D"/>
<path d="M468.4 174.92C469.3 174.83 470.21 174.79 471.11 174.81C483.07 175.06 492.61 184.99 492.36 196.96C492.11 208.92 482.18 218.45 470.21 218.21L470.32 213.01C479.42 213.2 486.97 205.95 487.16 196.86C487.35 187.76 480.1 180.21 471.01 180.02C470.33 180.01 469.63 180.03 468.94 180.11L468.4 174.92Z" fill="white"/>
<path d="M463.2 215.46L471.46 220.46L471.66 210.81L463.2 215.46Z" fill="white"/>
<path d="M460.01 217.83C459.11 217.92 458.2 217.96 457.3 217.94C445.34 217.69 435.8 207.76 436.05 195.79C436.3 183.83 446.23 174.3 458.2 174.54L458.09 179.74C448.99 179.55 441.44 186.8 441.25 195.89C441.06 204.99 448.31 212.54 457.4 212.73C458.08 212.74 458.78 212.72 459.47 212.64L460.01 217.83Z" fill="white"/>
<path d="M465.21 177.29L456.96 172.3L456.76 181.94L465.21 177.29Z" fill="white"/>
<path d="M1331.18 718.26C1329.88 718.91 1327.85 719.28 1324.88 719.28C1245.02 719.27 1165.2 719.25 1085.33 719.47C1045.33 719.58 1005.33 719.29 965.33 719.38C945.13 719.42 924.93 719.57 904.73 719.9C894.63 720.07 884.53 720.29 874.43 720.57C867 720.78 857.99 722.15 850.92 719.06C848.51 718.01 846.23 716.6 845.27 714C845.12 713.39 845.08 712.77 845.15 712.14C845.93 706.76 854.18 697.72 857.42 693.27C864.07 684.12 870.87 674.17 882.8 671C889.74 669.16 897.05 669.19 904.26 669.23C1030.59 669.23 1156.92 669.93 1283.25 670.32C1291.17 670.34 1300.95 671.51 1306.46 677.56C1313.46 685.24 1319.63 693.56 1325.3 702.18C1328.69 707.33 1336.88 715.43 1331.18 718.26Z" fill="#978CFF"/>
<path d="M1265.66 675.73H909.61C884.88 675.73 864.65 655.5 864.65 630.77V384.62C864.65 359.89 884.88 339.66 909.61 339.66H1265.66C1290.39 339.66 1310.62 359.89 1310.62 384.62V630.76C1310.62 655.5 1290.39 675.73 1265.66 675.73Z" fill="#A7ADFF"/>
<path d="M910.22 354.27C890.95 354.27 875.18 370.04 875.18 389.31V572.97C989.22 504.53 1100.76 432.21 1208.46 354.28H910.22V354.27Z" fill="#EFF0FC"/>
<path d="M1263.13 354.27H1208.47C1100.76 432.2 989.23 504.53 875.19 572.96V612.66C875.19 631.93 890.96 647.7 910.23 647.7H1263.14C1282.41 647.7 1298.18 631.93 1298.18 612.66V389.31C1298.17 370.04 1282.4 354.27 1263.13 354.27Z" fill="#E3E5FC"/>
<path d="M1111.19 660.4H1079.91C1079.15 660.4 1078.53 659.78 1078.53 659.02C1078.53 658.26 1079.15 657.64 1079.91 657.64H1111.19C1111.95 657.64 1112.57 658.26 1112.57 659.02C1112.58 659.78 1111.95 660.4 1111.19 660.4Z" fill="#E3E5FC"/>
<path d="M907.18 350.95C908.898 350.95 910.29 349.558 910.29 347.84C910.29 346.122 908.898 344.73 907.18 344.73C905.462 344.73 904.07 346.122 904.07 347.84C904.07 349.558 905.462 350.95 907.18 350.95Z" fill="#E3E5FC"/>
<path d="M920.58 350.95C922.297 350.95 923.69 349.558 923.69 347.84C923.69 346.122 922.297 344.73 920.58 344.73C918.862 344.73 917.47 346.122 917.47 347.84C917.47 349.558 918.862 350.95 920.58 350.95Z" fill="white"/>
<path d="M934.1 350.95C935.817 350.95 937.21 349.558 937.21 347.84C937.21 346.122 935.817 344.73 934.1 344.73C932.382 344.73 930.99 346.122 930.99 347.84C930.99 349.558 932.382 350.95 934.1 350.95Z" fill="#4B369D"/>
<path d="M898.97 692.21H888.45C886.26 692.21 884.47 690.42 884.47 688.23C884.47 686.04 886.26 684.25 888.45 684.25H898.97C901.16 684.25 902.95 686.04 902.95 688.23C902.96 690.42 901.16 692.21 898.97 692.21Z" fill="#E3E5FC"/>
<path d="M929.72 692.21H919.2C917.01 692.21 915.22 690.42 915.22 688.23C915.22 686.04 917.01 684.25 919.2 684.25H929.72C931.91 684.25 933.7 686.04 933.7 688.23C933.7 690.42 931.91 692.21 929.72 692.21Z" fill="#E3E5FC"/>
<path d="M960.47 692.21H949.95C947.76 692.21 945.97 690.42 945.97 688.23C945.97 686.04 947.76 684.25 949.95 684.25H960.47C962.66 684.25 964.45 686.04 964.45 688.23C964.45 690.42 962.66 692.21 960.47 692.21Z" fill="#E3E5FC"/>
<path d="M991.22 692.21H980.7C978.51 692.21 976.72 690.42 976.72 688.23C976.72 686.04 978.51 684.25 980.7 684.25H991.22C993.41 684.25 995.2 686.04 995.2 688.23C995.2 690.42 993.41 692.21 991.22 692.21Z" fill="#E3E5FC"/>
<path d="M1021.97 692.21H1011.45C1009.26 692.21 1007.47 690.42 1007.47 688.23C1007.47 686.04 1009.26 684.25 1011.45 684.25H1021.97C1024.16 684.25 1025.95 686.04 1025.95 688.23C1025.95 690.42 1024.16 692.21 1021.97 692.21Z" fill="#E3E5FC"/>
<path d="M1052.72 692.21H1042.2C1040.01 692.21 1038.22 690.42 1038.22 688.23C1038.22 686.04 1040.01 684.25 1042.2 684.25H1052.72C1054.91 684.25 1056.7 686.04 1056.7 688.23C1056.7 690.42 1054.91 692.21 1052.72 692.21Z" fill="#E3E5FC"/>
<path d="M1083.46 692.21H1072.94C1070.75 692.21 1068.96 690.42 1068.96 688.23C1068.96 686.04 1070.75 684.25 1072.94 684.25H1083.46C1085.65 684.25 1087.44 686.04 1087.44 688.23C1087.45 690.42 1085.66 692.21 1083.46 692.21Z" fill="#E3E5FC"/>
<path d="M1114.21 692.21H1103.69C1101.5 692.21 1099.71 690.42 1099.71 688.23C1099.71 686.04 1101.5 684.25 1103.69 684.25H1114.21C1116.4 684.25 1118.19 686.04 1118.19 688.23C1118.2 690.42 1116.4 692.21 1114.21 692.21Z" fill="#E3E5FC"/>
<path d="M1144.96 692.21H1134.44C1132.25 692.21 1130.46 690.42 1130.46 688.23C1130.46 686.04 1132.25 684.25 1134.44 684.25H1144.96C1147.15 684.25 1148.94 686.04 1148.94 688.23C1148.95 690.42 1147.15 692.21 1144.96 692.21Z" fill="#E3E5FC"/>
<path d="M1175.71 692.21H1165.19C1163 692.21 1161.21 690.42 1161.21 688.23C1161.21 686.04 1163 684.25 1165.19 684.25H1175.71C1177.9 684.25 1179.69 686.04 1179.69 688.23C1179.7 690.42 1177.9 692.21 1175.71 692.21Z" fill="#E3E5FC"/>
<path d="M1206.46 692.21H1195.94C1193.75 692.21 1191.96 690.42 1191.96 688.23C1191.96 686.04 1193.75 684.25 1195.94 684.25H1206.46C1208.65 684.25 1210.44 686.04 1210.44 688.23C1210.44 690.42 1208.65 692.21 1206.46 692.21Z" fill="#E3E5FC"/>
<path d="M1237.21 692.21H1226.69C1224.5 692.21 1222.71 690.42 1222.71 688.23C1222.71 686.04 1224.5 684.25 1226.69 684.25H1237.21C1239.4 684.25 1241.19 686.04 1241.19 688.23C1241.19 690.42 1239.4 692.21 1237.21 692.21Z" fill="#E3E5FC"/>
<path d="M1267.96 692.21H1257.44C1255.25 692.21 1253.46 690.42 1253.46 688.23C1253.46 686.04 1255.25 684.25 1257.44 684.25H1267.96C1270.15 684.25 1271.94 686.04 1271.94 688.23C1271.94 690.42 1270.15 692.21 1267.96 692.21Z" fill="#E3E5FC"/>
<path d="M1264.02 403.43H1181.38C1177.61 403.43 1174.53 400.35 1174.53 396.58C1174.53 392.81 1177.61 389.73 1181.38 389.73H1264.02C1267.79 389.73 1270.87 392.81 1270.87 396.58C1270.87 400.35 1267.79 403.43 1264.02 403.43Z" fill="#A7ADFF"/>
<path d="M1264.02 434.8H1181.38C1177.61 434.8 1174.53 431.72 1174.53 427.95C1174.53 424.18 1177.61 421.1 1181.38 421.1H1264.02C1267.79 421.1 1270.87 424.18 1270.87 427.95C1270.87 431.72 1267.79 434.8 1264.02 434.8Z" fill="#A7ADFF"/>
<path d="M412.4 416.91V678.64C412.4 698.93 395.8 715.53 375.51 715.53H207.4C187.11 715.53 170.51 698.93 170.51 678.64V416.91C170.51 396.62 187.11 380.02 207.4 380.02H375.51C395.8 380.01 412.4 396.62 412.4 416.91Z" fill="#A7ADFF"/>
<path d="M184.29 677.83C184.29 680.94 184.88 683.91 185.9 686.68C189.52 696.47 198.91 703.51 209.88 703.51H343.99H372.98C387.05 703.51 398.57 691.95 398.57 677.83V419.16C398.57 411.31 395 404.25 389.42 399.53C323.77 462.52 254.03 521.41 184.29 580.31V677.83H184.29Z" fill="#E3E5FC"/>
<path d="M344.13 393.48H209.87C195.8 393.48 184.28 405.04 184.28 419.16V459.23V580.31C254.02 521.42 323.76 462.52 389.41 399.53C384.95 395.76 379.22 393.48 372.97 393.48H344.13V393.48Z" fill="#EFF0FC"/>
<path d="M291.45 712.74C294.051 712.74 296.16 710.631 296.16 708.03C296.16 705.429 294.051 703.32 291.45 703.32C288.849 703.32 286.74 705.429 286.74 708.03C286.74 710.631 288.849 712.74 291.45 712.74Z" fill="#4B369D"/>
<path d="M362.5 445.74H279.86C276.09 445.74 273.01 442.66 273.01 438.89C273.01 435.12 276.09 432.04 279.86 432.04H362.5C366.27 432.04 369.35 435.12 369.35 438.89C369.36 442.66 366.27 445.74 362.5 445.74Z" fill="#A7ADFF"/>
<path d="M362.5 477.11H279.86C276.09 477.11 273.01 474.03 273.01 470.26C273.01 466.49 276.09 463.41 279.86 463.41H362.5C366.27 463.41 369.35 466.49 369.35 470.26C369.36 474.03 366.27 477.11 362.5 477.11Z" fill="#A7ADFF"/>
<path d="M191.1 464.48H102.09C91.9699 464.48 83.6899 472.76 83.6899 482.88V572.16C122.9 536.96 162.86 502.62 204.54 470.39C201.17 466.78 196.4 464.48 191.1 464.48Z" fill="#EFF0FC"/>
<path d="M204.53 470.4C162.86 502.62 122.89 536.97 83.6799 572.17V650.35V700.75C83.6799 710.87 91.9599 719.15 102.08 719.15H191.09C201.21 719.15 209.49 710.87 209.49 700.75V482.89C209.49 478.16 207.67 473.85 204.71 470.58C204.66 470.51 204.59 470.46 204.53 470.4Z" fill="#E3E5FC"/>
<path fill-rule="evenodd" clip-rule="evenodd" d="M102.09 464.48H191.1C201.22 464.48 209.5 472.76 209.5 482.88V700.74C209.5 710.86 201.22 719.14 191.1 719.14H102.09C91.9699 719.14 83.6899 710.86 83.6899 700.74V482.88C83.6899 472.76 91.9699 464.48 102.09 464.48ZM183.11 695.38C193.23 695.38 201.51 687.1 201.51 676.98V491.44C201.51 481.32 193.23 473.04 183.11 473.04H110.07C99.9499 473.04 91.6699 481.32 91.6699 491.44V676.98C91.6699 687.1 99.9499 695.38 110.07 695.38H183.11Z" fill="#978CFF"/>
<path d="M158.44 470.31H134.74C134.16 470.31 133.69 469.84 133.69 469.26C133.69 468.68 134.16 468.21 134.74 468.21H158.44C159.02 468.21 159.49 468.68 159.49 469.26C159.49 469.84 159.02 470.31 158.44 470.31Z" fill="#E3E5FC"/>
<path d="M146.59 713C150.196 713 153.12 710.076 153.12 706.47C153.12 702.864 150.196 699.94 146.59 699.94C142.983 699.94 140.06 702.864 140.06 706.47C140.06 710.076 142.983 713 146.59 713Z" fill="#4B369D"/>
<path d="M187.91 638.86H105.27C101.5 638.86 98.4199 635.78 98.4199 632.01C98.4199 628.24 101.5 625.16 105.27 625.16H187.91C191.68 625.16 194.76 628.24 194.76 632.01C194.76 635.78 191.68 638.86 187.91 638.86Z" fill="white"/>
<path d="M187.91 670.24H105.27C101.5 670.24 98.4199 667.16 98.4199 663.39C98.4199 659.62 101.5 656.54 105.27 656.54H187.91C191.68 656.54 194.76 659.62 194.76 663.39C194.76 667.15 191.68 670.24 187.91 670.24Z" fill="white"/>
</g>
<defs>
<clipPath id="clip0_16_868">
<rect width="1467" height="757" fill="white"/>
</clipPath>
</defs>
</svg>
