<svg xmlns="http://www.w3.org/2000/svg" viewBox="0 0 48 48"><title>13-Multimedia File</title><g id="_13-Multimedia_File" data-name="13-Multimedia File"><path d="M42.71,8.29l-8-8A1,1,0,0,0,34,0H8A3,3,0,0,0,5,3V45a3,3,0,0,0,3,3H40a3,3,0,0,0,3-3V9A1,1,0,0,0,42.71,8.29ZM35,3.41,39.59,8H36a1,1,0,0,1-1-1ZM41,45a1,1,0,0,1-1,1H8a1,1,0,0,1-1-1V3A1,1,0,0,1,8,2H33V7a3,3,0,0,0,3,3h5Z"/><path d="M34,18H20a1,1,0,0,0-1,1V30.56A4,4,0,0,0,17,30a4,4,0,1,0,4,4V20H33v6.56A4,4,0,0,0,31,26a4,4,0,1,0,4,4V19A1,1,0,0,0,34,18ZM17,36a2,2,0,1,1,2-2A2,2,0,0,1,17,36Zm14-4a2,2,0,1,1,2-2A2,2,0,0,1,31,32Z"/></g></svg>