<svg width="1656" height="835" viewBox="0 0 1656 835" fill="none" xmlns="http://www.w3.org/2000/svg">
<g clip-path="url(#clip0_16_1015)">
<rect width="1656" height="835" fill="white"/>
<path d="M974.84 740.92C973.3 738.96 971.71 736.59 972.3 734.16C972.87 731.8 975.24 730.41 977.4 729.29C987.45 724.07 997.5 718.85 1007.55 713.64C989.96 695.44 975.68 674.06 965.59 650.85C963.91 646.98 962.5 642 965.39 638.92C969.04 635.03 975.42 637.95 980.01 640.67C984.6 643.39 991.88 645 994.13 640.16C995.5 637.2 993.78 633.81 992.22 630.93C980.57 609.43 976.32 584 980.35 559.88C980.82 557.08 981.44 554.2 983.18 551.96C988.46 545.19 1000.09 549.11 1004.71 556.35C1009.33 563.59 1009.87 572.66 1013.12 580.61C1016.37 588.56 1024.83 595.97 1032.83 592.85C1038.76 590.54 1042.99 582.99 1049.24 584.19C1051.78 584.68 1053.79 586.61 1055.43 588.61C1063.65 598.64 1066.36 612.92 1062.38 625.27C1059.85 633.13 1055.18 642.78 1061.05 648.59C1064.93 652.44 1071.51 651.97 1075.86 655.28C1083.06 660.77 1079.93 672.33 1074.86 679.83C1069.79 687.34 1063.07 695.49 1065.2 704.3C1066.26 708.67 1069.38 712.22 1071.11 716.37C1073.36 721.78 1073.11 727.85 1072.82 733.7C1072.34 743.4 1071.87 753.09 1071.39 762.79C1070.06 789.99 1058.52 807.63 1034.22 792.71C1013.11 779.78 990.34 760.66 974.84 740.92Z" fill="#A7ADFF"/>
<path d="M1054.36 794.33C1053.76 794.33 1053.21 793.91 1053.07 793.3C1042.31 744.94 1017.64 632.04 1020.91 628.28C1021.39 627.73 1022.22 627.67 1022.77 628.15C1023.25 628.57 1023.36 629.26 1023.05 629.79C1021.74 635.95 1041.79 730.45 1055.64 792.72C1055.8 793.43 1055.35 794.13 1054.64 794.29C1054.55 794.32 1054.45 794.33 1054.36 794.33Z" fill="white"/>
<path d="M1022.45 713.08C1020.78 703.13 1022.82 691.64 1030.9 685.6C1041.93 677.36 1060.63 681.53 1068.11 669.97C1053.15 646.19 1043.43 619.13 1039.83 591.26C1037.96 576.81 1041.2 557.57 1055.57 555.19C1063.37 553.9 1072.66 558.34 1078.62 553.13C1082.07 550.11 1082.69 545.01 1082.5 540.44C1081.58 517.6 1066.82 497.33 1064.25 474.62C1060.66 442.87 1085.26 410.53 1116.81 405.51C1147.3 405.51 1120.74 464.64 1137 488.9C1145.1 489.32 1149.54 480 1153.02 472.68C1156.5 465.36 1165.21 457.7 1171.58 462.71C1173.5 464.22 1174.56 466.59 1175.21 468.94C1179.56 484.56 1169.38 500.02 1164.24 515.4C1159.1 530.78 1164.01 553.52 1180.22 553.95C1196.04 554.36 1209.13 531.87 1223.25 539.02C1232.65 543.78 1231.94 557.49 1228.26 567.36C1223.91 579.01 1217.37 589.83 1209.08 599.09C1203.11 605.75 1196.16 611.74 1191.99 619.65C1187.82 627.56 1187.26 638.33 1193.61 644.62C1199.23 650.18 1208.66 650.84 1213.61 657C1222.41 667.96 1210 683.04 1198.72 691.42C1189.73 698.1 1180.74 704.78 1171.75 711.46C1164.24 717.04 1188.84 704.46 1186.04 713.38C1183.24 722.31 1156.26 753.02 1165.61 752.93C1210.61 740.3 1134.6 783.21 1122.4 788.3C1108.16 794.24 1098.09 792.58 1085.93 784.25C1063.57 768.93 1027.17 741.12 1022.45 713.08Z" fill="#E3E5FC"/>
<path d="M1103.16 792.9C1103.12 792.9 1103.08 792.9 1103.04 792.89C1102.32 792.82 1101.78 792.18 1101.85 791.46L1125.05 537.89C1125.12 537.17 1125.71 536.63 1126.48 536.7C1127.2 536.77 1127.74 537.41 1127.67 538.13L1104.47 791.7C1104.41 792.39 1103.84 792.9 1103.16 792.9Z" fill="white"/>
<path d="M1118.13 629.29C1117.85 629.29 1117.57 629.2 1117.33 629.02L1069.67 592.44C1069.09 592 1068.98 591.17 1069.43 590.59C1069.88 590.01 1070.7 589.91 1071.28 590.35L1118.94 626.93C1119.52 627.37 1119.63 628.2 1119.18 628.78C1118.92 629.11 1118.53 629.29 1118.13 629.29Z" fill="white"/>
<path d="M1120.6 602.28C1120.16 602.28 1119.73 602.06 1119.48 601.66C1119.1 601.04 1119.29 600.23 1119.91 599.85L1165.48 571.68C1166.1 571.3 1166.91 571.49 1167.29 572.11C1167.67 572.73 1167.48 573.54 1166.86 573.92L1121.29 602.09C1121.08 602.21 1120.84 602.28 1120.6 602.28Z" fill="white"/>
<path d="M271.74 261.3C271.99 261.32 272.23 261.38 272.48 261.51C273.26 261.92 273.51 262.78 273.66 263.55C275.05 270.64 275.09 268.92 273.78 278.06C275.88 272.41 275.11 273.38 278.76 268.37C279.47 267.4 280.25 266.4 281.43 265.85C289.03 262.3 281.01 279.29 279.66 281.22C274.65 288.37 265.51 289.76 256.87 286.61C249.29 283.85 242.18 278.32 239.76 271.42C239.54 270.8 239.4 270.02 239.95 269.59C240.33 269.29 240.9 269.27 241.42 269.3C246.07 269.52 250.33 271.77 253.76 274.53C257.19 277.29 259.97 280.58 263.18 283.52C265.45 285.61 270.69 285.75 273.94 286.25C279.47 287.1 281.75 285.35 286.7 283.14C287.78 282.66 288.95 282.23 290.17 282.3C291.39 282.37 292.65 283.1 292.83 284.14C292.94 284.76 292.66 285.38 292.32 285.93C288.01 292.94 277.3 291.44 272.83 285.47C268.57 279.77 266.1 270.5 268.59 264.03C269.09 262.73 270.38 261.21 271.74 261.3Z" fill="#A7ADFF"/>
<path d="M202.7 445.26C208.45 435.39 219.23 428.61 228.13 420.69C237.03 412.77 244.61 401.89 241.41 391.09C236.1 373.16 205.51 367.45 200.65 349.43C195.1 328.82 226.86 315.41 232.61 294.99C235.89 283.34 229.97 270.92 221.27 261.41C212.57 251.9 201.23 244.49 191.24 235.98C179.14 225.67 168.69 213.13 165.68 198.76C162.67 184.39 168.67 168.07 183.15 160.78C191.31 156.67 201.07 155.76 210.07 153.25C219.07 150.74 228.24 145.6 230 137.56C230.87 133.57 229.78 129.47 229.08 125.43C223.23 91.86 248.33 56.62 285.51 46.22C284.04 54.48 296.94 60.29 306 57.38C315.05 54.47 320.41 46.62 324.94 39.27C329.48 31.92 334.52 24 343.38 20.68C350.49 18.01 358.68 18.87 366.41 19.86C372.39 20.62 379.38 22.08 381.74 26.9C382.72 28.91 382.67 31.16 382.54 33.32C381.35 52.87 374.85 71.83 372.57 91.3C370.29 110.76 372.9 132.01 387.46 147.22C396.21 156.37 408.84 162.87 415.13 173.4C425.1 190.1 415.7 210 405.71 226.44C395.72 242.88 384.79 261.65 392.12 279.31C399.49 297.06 482.85 275.27 473.05 391.53C470.68 419.7 432.18 394.8 438.8 422.24C441.6 433.84 416.24 426.27 414.96 438.02C414.55 441.75 432.29 457.59 431.32 461.24C427.96 473.89 414.16 475.77 425.8 484.2C431.88 488.6 439.84 491.98 442.47 498.42C447.2 509.99 431.23 519.68 417.35 521.9C405.76 523.75 399.82 487.31 390.73 494.57C380.05 503.09 370.62 532.49 314.22 531.64C290.9 531.29 275.74 468.59 259.5 481.55C222.36 511.2 172.89 496.43 202.7 445.26Z" fill="#E3E5FC"/>
<rect x="297.021" y="172.346" width="2.63013" height="578.068" transform="rotate(-1.27774 297.021 172.346)" fill="#4B369D"/>
<path d="M304.63 356.01L302.81 354.11C307.48 349.63 348.69 310.33 357.11 308.69L357.62 311.27C351.81 312.4 322.75 338.64 304.63 356.01Z" fill="#4B369D"/>
<path d="M298.7 287.44C283.18 268.7 232.69 207.09 234.57 200.87C234.75 200.27 235.19 199.83 235.78 199.66L236.53 202.18C236.9 202.07 237.1 201.71 237.11 201.54C236.94 206.75 276.04 255.96 300.73 285.76L298.7 287.44Z" fill="#4B369D"/>
<path d="M300.43 221.2L298.39 219.54C299.88 217.71 334.88 174.6 338.59 170.86L340.46 172.71C336.84 176.36 300.79 220.75 300.43 221.2Z" fill="#4B369D"/>
<path d="M800.67 834.09C1151.78 834.09 1436.41 825.454 1436.41 814.8C1436.41 804.146 1151.78 795.51 800.67 795.51C449.56 795.51 164.93 804.146 164.93 814.8C164.93 825.454 449.56 834.09 800.67 834.09Z" fill="#E3E5FC"/>
<path d="M453.97 754.23C450.66 750.31 447.8 745.77 447.07 740.69C446.89 739.46 446.87 738.11 447.61 737.11C448.25 736.25 449.33 735.84 450.38 735.62C457.82 734.03 464.8 739.48 470.17 744.86C479.66 754.38 488.13 764.91 495.39 776.22C491.05 769.45 488.75 756.48 489.79 748.52C489.83 748.21 489.89 747.87 490.14 747.67C490.39 747.47 490.75 747.48 491.06 747.54C493.35 747.98 494.79 750.2 495.89 752.26C499.28 758.63 502.24 765.99 504.21 773.14C502.98 768.65 506.63 763.24 509.95 760.57C515.89 755.79 514.62 762.46 513.33 766.38C512.07 770.22 503.67 785.27 497.68 781.91C496.58 781.29 496.32 777.94 495.41 776.86C493.84 774.98 491.66 774.37 489.41 773.67C483.37 771.8 477.08 771.02 471.41 768.07C464.78 764.64 458.79 759.94 453.97 754.23Z" fill="#A7ADFF"/>
<path d="M720.71 797.3C721.47 789.56 721.45 782.39 723.99 774.83C724.85 772.28 726.06 769.57 728.48 768.4C728.94 768.18 729.48 768.02 729.94 768.23C730.35 768.41 730.6 768.81 730.8 769.21C743.95 794.42 708.65 808.59 692.54 789.63C691.54 788.46 690.61 787.12 690.47 785.58C690.22 782.77 692.9 780.34 695.7 780.01C698.5 779.68 701.25 780.96 703.57 782.56C709.69 786.81 713.77 793.34 717.67 799.69C712.24 791.52 709.43 781.64 709.76 771.84C709.81 770.37 710.31 768.49 711.77 768.36C712.47 768.3 713.12 768.71 713.68 769.14C717.69 772.23 719.95 777.16 720.79 782.16C721.63 787.16 721.19 792.26 720.71 797.3Z" fill="#F44E4E"/>
<path d="M1429.31 766.76C1429.63 766.77 1429.96 766.85 1430.29 767.03C1431.33 767.59 1431.71 768.87 1431.95 770.02C1434.2 780.58 1434.14 777.99 1433.02 791.84C1435.38 783.19 1434.45 784.71 1438.86 776.9C1439.72 775.38 1440.67 773.83 1442.16 772.91C1451.8 767.01 1442.47 793.15 1440.84 796.16C1434.8 807.29 1423.03 810.04 1411.62 805.94C1401.61 802.34 1392.04 794.55 1388.46 784.35C1388.14 783.43 1387.9 782.28 1388.59 781.58C1389.06 781.1 1389.8 781.03 1390.47 781.03C1396.51 781.02 1402.19 784.09 1406.81 787.99C1411.43 791.89 1415.26 796.63 1419.61 800.82C1422.69 803.79 1429.49 803.62 1433.74 804.13C1440.97 805 1443.82 802.2 1450.09 798.51C1451.46 797.7 1452.95 796.97 1454.54 796.99C1456.13 797.01 1457.81 798 1458.11 799.56C1458.29 800.49 1457.96 801.44 1457.56 802.29C1452.42 813.14 1438.42 811.69 1432.25 803.02C1426.36 794.75 1422.57 781 1425.39 771.08C1425.95 769.1 1427.52 766.73 1429.31 766.76Z" fill="#F44E4E"/>
<path d="M45.81 774.22C46.16 774.23 46.52 774.32 46.89 774.52C48.03 775.14 48.45 776.55 48.72 777.82C51.2 789.47 51.14 786.61 49.91 801.89C52.52 792.35 51.48 794.02 56.35 785.41C57.3 783.74 58.35 782.02 59.99 781.01C70.62 774.5 60.33 803.34 58.53 806.66C51.86 818.93 38.88 821.97 26.29 817.45C15.25 813.48 4.69002 804.88 0.74002 793.63C0.38002 792.61 0.13002 791.34 0.88002 790.58C1.40002 790.05 2.22002 789.98 2.96002 789.97C9.63002 789.96 15.89 793.35 20.98 797.65C26.08 801.95 30.3 807.18 35.1 811.81C38.5 815.09 46 814.9 50.69 815.46C58.66 816.42 61.81 813.33 68.73 809.26C70.24 808.37 71.89 807.56 73.64 807.58C75.39 807.6 77.24 808.7 77.57 810.42C77.77 811.44 77.41 812.49 76.96 813.43C71.29 825.41 55.84 823.8 49.03 814.24C42.53 805.12 38.35 789.95 41.46 779.01C42.1 776.8 43.84 774.18 45.81 774.22Z" fill="#FDC510"/>
<path d="M354.61 584.24C352.9 580.94 351.29 577.32 351.77 573.63C353.5 560.4 374.78 563.6 384.72 554.7C395.09 545.41 388.55 528.31 380.62 516.87C372.69 505.43 363.66 490.61 371.01 478.78C374.62 472.98 381.59 469.53 384.05 463.15C386.88 455.8 382.82 446.67 387.05 440.03C393.28 430.25 408.37 436.3 417.7 443.19C424.34 432.46 423.69 418.97 425.77 406.53C427.85 394.09 435.28 380.29 447.86 379.29C450.6 386.74 450.12 397.19 457.57 399.93C463.55 402.13 469.68 396.93 473.07 391.54C476.46 386.15 479.23 379.67 485.04 377.05C495.25 372.44 506.5 384.14 506.72 395.34C506.94 406.54 500.55 416.61 495.99 426.84C491.67 436.52 488.87 447.51 491.76 457.71C494.65 467.91 504.76 476.59 515.22 474.83C518.97 474.2 523.19 472.43 526.26 474.68C527.92 475.89 528.68 477.97 529.1 479.98C531.4 490.85 526.43 501.73 522.94 512.27C519.45 522.81 517.82 535.69 525.27 543.92C528.72 547.73 533.83 550.13 536.09 554.74C540.95 564.67 529.49 574.65 519.36 579.07C509.22 583.49 496.64 590.04 497.67 601.05C498.2 606.74 502.59 611.54 503.04 617.24C503.8 626.78 493.38 633.58 483.87 634.74C466.95 636.8 456.66 636.52 440.9 643.57C427.2 649.69 422.35 653.58 408.91 645.68C388.1 633.43 365.55 605.38 354.61 584.24Z" fill="#FDC510"/>
<rect x="389.482" y="791.039" width="302.87" height="2.63009" transform="rotate(-78.2002 389.482 791.039)" fill="#4B369D"/>
<rect x="427.419" y="609.817" width="67.2014" height="2.63005" transform="rotate(-35.513 427.419 609.817)" fill="#4B369D"/>
<rect x="422.453" y="494.815" width="2.62991" height="71.0976" transform="rotate(-12.2224 422.453 494.815)" fill="#4B369D"/>
<path d="M80.93 694.11C82.29 691.51 83.94 688.96 86.35 687.29C91.6 683.68 98.61 685.23 104.96 685.68C111.31 686.13 119.28 684 120.44 677.73C121.2 673.62 118.54 669.75 116.25 666.25C110.74 657.83 106.63 648.51 104.14 638.76C101.87 629.88 103.05 617.44 112.03 615.59C120.88 613.76 129.05 624.75 137.67 622.04C132.73 600.03 127.79 578.02 122.85 556.02C120.88 547.27 119.01 537.69 122.99 529.66C126.98 521.62 139.6 517.76 144.94 524.97C147.82 528.86 147.47 534.15 147.29 538.99C146.75 553.63 148.93 568.37 153.7 582.23C157.21 592.43 168.07 603.94 176.74 597.51C181.5 593.98 186.31 585.65 190.6 589.74C184.51 629.88 228.13 661.53 232.58 701.89C237.37 745.37 209.18 811.97 157.45 795.51C116.27 782.41 52.96 747.76 80.93 694.11Z" fill="#F44E4E"/>
<path d="M198.22 823.23C197.63 823.23 197.1 822.84 196.94 822.24L149.03 638.04C148.85 637.34 149.27 636.62 149.97 636.43C150.68 636.24 151.4 636.67 151.58 637.37L199.49 821.57C199.67 822.27 199.25 822.99 198.55 823.18C198.44 823.22 198.33 823.23 198.22 823.23Z" fill="white"/>
<path d="M180.94 756.8C180.7 756.8 180.47 756.74 180.25 756.61L116.93 717.67C116.31 717.29 116.12 716.48 116.5 715.86C116.88 715.24 117.69 715.05 118.31 715.43L181.63 754.37C182.25 754.75 182.44 755.56 182.06 756.18C181.82 756.58 181.39 756.8 180.94 756.8Z" fill="white"/>
<path d="M168.81 705.9C168.69 705.9 168.57 705.88 168.45 705.85C167.75 705.65 167.35 704.92 167.55 704.22L184.85 644C185.05 643.3 185.78 642.9 186.48 643.1C187.18 643.3 187.58 644.03 187.38 644.73L170.07 704.95C169.91 705.52 169.39 705.9 168.81 705.9Z" fill="white"/>
<path d="M153.77 767.11C151.24 762.77 149.41 757.59 150.77 752.75C153.4 743.37 166.04 740.93 175.37 743.75C184.7 746.57 192.95 752.74 202.58 754.19C212.22 755.64 224.29 748.91 222.74 739.29C221.96 734.43 218.03 730.81 214.64 727.25C204.91 717.02 198 704.13 194.86 690.36C193.67 685.12 194.17 677.89 199.39 676.61C202.45 675.86 205.48 677.77 208.06 679.58C218.71 687.06 229.36 694.55 240.02 702.03C237.16 675.7 235.14 646.26 251.74 625.62C254.83 621.77 260.13 618.15 264.33 620.74C266.19 621.89 267.22 623.99 268.02 626.03C274.31 642.06 272.12 660.69 279.73 676.13C280.86 678.42 282.29 680.71 284.52 681.95C294.84 687.71 302.98 666.98 314.77 667.84C322.44 668.4 326.11 678.18 324.45 685.69C322.79 693.2 317.86 699.58 315.57 706.92C313.28 714.26 315.03 724.14 322.31 726.59C325.71 727.74 329.43 726.93 332.92 726.13C343.79 723.62 354.66 721.1 365.53 718.59C361.26 728.23 356.98 737.86 352.71 747.5C351.59 750.03 350.46 752.97 351.64 755.47C354.14 760.75 362.64 757.87 367.54 761.05C373.02 764.6 370.58 773.84 365.03 777.27C359.48 780.7 352.53 780.46 346.06 781.34C309.77 786.27 288.65 814.78 249.82 807.36C218.23 801.32 171.99 798.4 153.77 767.11Z" fill="#978CFF"/>
<path d="M275.62 808.54C274.97 808.54 274.4 808.05 274.31 807.39C269.9 772.56 263.04 713.73 266.64 711.1C267.22 710.67 268.05 710.8 268.48 711.39C268.86 711.91 268.8 712.61 268.38 713.06C266.51 717.62 272.61 773.01 276.92 807.06C277.01 807.78 276.5 808.44 275.78 808.53C275.73 808.53 275.67 808.54 275.62 808.54Z" fill="white"/>
<path d="M269.66 756.8C269.33 756.8 269 756.68 268.75 756.43L242.06 730.73C241.54 730.23 241.52 729.39 242.02 728.87C242.52 728.35 243.36 728.33 243.88 728.83L270.57 754.53C271.09 755.03 271.11 755.87 270.61 756.39C270.35 756.67 270.01 756.8 269.66 756.8Z" fill="white"/>
<path d="M1115.12 183.62C1113.17 189.05 1111.47 194.81 1112.3 200.52C1112.97 205.16 1115.31 209.47 1118.47 212.94C1121.7 216.5 1126.14 219.35 1130.95 219.27C1132.98 214.39 1133.82 209.01 1133.35 203.74C1134.87 206.59 1136.39 209.44 1137.92 212.29C1139.74 215.69 1141.86 219.37 1145.5 220.66C1149.13 221.95 1154.18 218.81 1153.01 215.13C1152.43 213.3 1150.51 211.77 1150.96 209.91C1151.5 207.67 1154.78 207.63 1156.78 208.78C1158.77 209.93 1160.61 211.78 1162.91 211.69C1166.24 211.55 1167.91 207.1 1166.62 204.03C1165.33 200.96 1162.27 199.07 1159.39 197.39C1153.48 193.93 1146.13 190.91 1140.86 186.55C1137.89 184.09 1135.03 178.25 1132.15 176.48C1124.17 171.57 1118.62 172.86 1115.12 183.62Z" fill="#F44E4E"/>
<path d="M1287 212.1C1287.83 213.32 1288.91 214.46 1290.33 214.85C1292.7 215.49 1295.18 213.7 1296.17 211.45C1297.16 209.2 1297.04 206.64 1296.89 204.19C1300.66 207.73 1305.82 210.59 1310.84 209.34C1315.86 208.09 1319.03 200.93 1315.2 197.45C1318.84 198.4 1322.76 199.34 1326.29 198.02C1329.82 196.7 1332.32 192.1 1330.13 189.04C1329.03 187.5 1327.12 186.8 1325.33 186.18C1317.24 183.39 1309.16 180.59 1301.07 177.8C1298.98 177.08 1296.81 176.34 1294.6 176.53C1278.07 177.91 1280.09 201.97 1287 212.1Z" fill="#FDC510"/>
<path d="M530.89 337.65C531.72 338.87 532.8 340.01 534.22 340.4C536.59 341.04 539.07 339.25 540.06 337C541.05 334.75 540.93 332.19 540.78 329.74C544.55 333.28 549.71 336.14 554.73 334.89C559.75 333.64 562.92 326.48 559.09 323C562.73 323.95 566.65 324.89 570.18 323.57C573.71 322.25 576.21 317.65 574.02 314.59C572.92 313.05 571.01 312.35 569.22 311.73C561.13 308.94 553.05 306.14 544.96 303.35C542.87 302.63 540.7 301.89 538.49 302.08C521.96 303.46 523.98 327.51 530.89 337.65Z" fill="#E3E5FC"/>
<path d="M1408.4 497.89C1409.38 498.39 1410.5 498.76 1411.57 498.5C1413.36 498.07 1414.34 496 1414.18 494.17C1414.02 492.34 1413.02 490.7 1412.05 489.15C1415.8 490.12 1420.21 490.14 1423.06 487.52C1425.91 484.89 1425.41 479.05 1421.65 478.15C1424.38 477.46 1427.29 476.67 1429.13 474.54C1430.97 472.41 1430.96 468.49 1428.42 467.27C1427.14 466.66 1425.64 466.88 1424.24 467.12C1417.93 468.19 1411.62 469.27 1405.31 470.34C1403.68 470.62 1401.99 470.92 1400.61 471.83C1390.25 478.66 1400.23 493.72 1408.4 497.89Z" fill="#FDC510"/>
<path d="M1241.93 349.93C1238.63 350.96 1225.39 310.86 1212.41 328.08C1200.82 343.46 1231.64 353.15 1241.93 349.93Z" fill="#FDC510"/>
<path d="M1355.5 327.65C1364.38 329.25 1373.53 328.31 1382.38 326.58C1373.3 323.56 1365.15 318.33 1356.48 314.28C1351.37 311.89 1333.3 303.73 1333.68 315.21C1333.91 321.89 1350.64 326.78 1355.5 327.65Z" fill="#E3E5FC"/>
<path d="M1001.61 327.56C1014.12 332.37 1028.6 331.81 1040.7 326.04C1035.53 328.5 1015.05 319.78 1009.52 318.18C1001.79 315.94 990.22 309.2 982.56 312.83C985.29 319.68 994.61 324.87 1001.61 327.56Z" fill="#E3E5FC"/>
<path d="M1108.26 74.84C1120.77 79.65 1135.25 79.09 1147.35 73.32C1142.18 75.78 1121.7 67.06 1116.17 65.46C1108.44 63.22 1096.87 56.48 1089.21 60.11C1091.94 66.96 1101.26 72.15 1108.26 74.84Z" fill="#E3E5FC"/>
<path d="M592.17 78.39C596.01 85.15 599.85 91.9 603.68 98.66C605.57 101.99 607.52 105.39 610.38 107.93C613.25 110.47 617.25 112.05 620.95 111.07C622.44 110.68 623.95 109.69 624.21 108.17C624.4 107.06 623.85 105.96 623.31 104.98C617.05 93.65 607.99 83.88 597.16 76.79" fill="#FDC510"/>
<path d="M639.43 353.76C643.27 360.52 647.11 367.27 650.94 374.03C652.83 377.36 654.78 380.76 657.64 383.3C660.5 385.84 664.51 387.42 668.21 386.44C669.7 386.05 671.21 385.06 671.47 383.54C671.66 382.43 671.11 381.33 670.57 380.35C664.31 369.02 655.25 359.25 644.42 352.16" fill="#FDC510"/>
<path d="M511.97 83.14C509.5 82.91 509.68 86.89 510.96 89.02C516.67 98.45 525.76 107.92 536.72 106.72C538.19 106.56 539.75 106.14 540.69 105C542.75 102.5 540.57 98.8 538.27 96.51C531.65 89.92 523.53 84.85 514.7 81.79" fill="#F44E4E"/>
<path d="M666.22 19.11C667.57 19.31 668.92 18.83 670.18 18.32C678.87 14.86 687.02 10.07 694.27 4.17001C688.27 4.09001 656.34 -1.51999 652.96 1.86001C647.48 7.35001 659.83 18.16 666.22 19.11Z" fill="#E3E5FC"/>
<path d="M1571.23 568.67C1577.21 566.56 1583.93 561.82 1582.68 555.6C1559.62 553.72 1521.24 546.12 1499.63 554.6C1510.87 575.33 1552.17 575.39 1571.23 568.67Z" fill="#F44E4E"/>
<path d="M1530.7 640.61C1543.8 643.39 1558.33 637.18 1565.36 625.79C1556.66 626.24 1547.89 625.3 1539.48 623.02C1532.63 621.16 1513.78 610.89 1510.43 622.44C1507.8 631.51 1524.18 639.22 1530.7 640.61Z" fill="#FDC510"/>
<path d="M1652.82 611.85C1653.62 611.52 1654.47 611.13 1654.91 610.38C1656.34 607.94 1652.36 606 1649.53 605.96C1643.52 605.87 1613.02 602.77 1617.94 613.38C1622.67 623.58 1645.72 614.78 1652.82 611.85Z" fill="#FDC510"/>
<path fill-rule="evenodd" clip-rule="evenodd" d="M1307.11 639.45C1268.75 633.76 1237.43 628.16 1208.55 621.83C1167.68 612.87 1126.19 594.65 1077.99 564.5C1034.47 537.27 999.37 505.89 973.68 471.23C964.91 459.41 955.27 447.91 945.94 436.79L945.94 436.789C942.13 432.25 938.32 427.71 934.56 423.14C930.86 427.6 926.56 431.52 921.77 434.82C914.97 439.5 908.73 441.24 903.23 439.98C898.78 438.97 894.95 435.58 892.99 430.93C891.05 426.33 891.29 421.3 893.63 417.47C899.03 408.63 910.63 407.01 921.65 407.53C919.15 403.6 918.32 400.55 919.71 398.38C920.89 396.55 922.71 395.56 924.98 395.52C929.74 395.48 935.78 399.79 937.86 402.82C942.61 409.69 939.89 415.87 936.76 420.29C940.68 425.06 944.65 429.79 948.62 434.519L948.62 434.52L948.62 434.52L948.886 434.837C958.163 445.899 967.753 457.333 976.49 469.13C1001.93 503.44 1036.7 534.52 1079.85 561.51C1127.7 591.44 1168.83 609.52 1209.3 618.39C1238.1 624.7 1269.35 630.29 1307.62 635.97L1307.11 639.45ZM918.37 410.97C910.06 410.97 900.72 412.58 896.61 419.31C894.86 422.18 894.71 426.01 896.21 429.57C897.73 433.18 900.64 435.79 903.99 436.56C908.48 437.59 913.8 436.03 919.76 431.93C924.44 428.71 928.62 424.86 932.2 420.47C932.138 420.408 932.084 420.346 932.023 420.277L932.023 420.277L932 420.25C928.94 416.91 926.31 413.9 924.23 411.21C922.41 411.06 920.42 410.97 918.37 410.97ZM934.34 417.61C932.3 415.38 930.6 413.42 929.18 411.72C930.16 411.84 931.01 411.96 931.71 412.06L932.2 408.58C930.27 408.31 928.23 408.06 926.13 407.86C922.38 402.81 922.21 400.96 922.64 400.29C923.18 399.46 923.93 399.07 925.02 399.05H925.1C928.45 399.05 933.38 402.54 934.96 404.83C937.76 408.88 937.61 412.69 934.34 417.61Z" fill="#4B369D"/>
<path d="M1103.53 677.77C1107.55 665.58 1114.8 652.95 1127.08 649.22C1140.43 645.16 1154.08 652.98 1167.13 657.95C1177.61 661.94 1188.62 664.11 1199.79 665.3C1198.14 665.58 1196.48 665.85 1194.81 666.07C1162.05 672.21 1141.34 640.09 1101.86 683.23C1102.39 681.4 1102.94 679.57 1103.53 677.77Z" fill="#FFECA7"/>
<path fill-rule="evenodd" clip-rule="evenodd" d="M1141.33 724.46C1150.09 719.11 1159.78 715.67 1171.18 715.67C1183.19 716.376 1195.41 718.56 1207.78 720.771C1236.76 725.953 1266.55 731.279 1296.34 718.06C1308.3 710.09 1323.62 723.99 1335.21 738.46C1343.7 737.35 1351.46 732.15 1353.02 722.78C1353.02 722.458 1352.49 721.472 1351.97 720.498C1351.47 719.567 1350.98 718.648 1350.96 718.33C1334.42 705.16 1308.42 694.67 1286.5 687.75C1283.9 687.75 1284.28 685.483 1284.75 682.658C1285.14 680.351 1285.59 677.672 1284.53 675.55C1297.07 680.923 1305.31 677.911 1315.78 674.083C1319.1 672.867 1322.65 671.568 1326.64 670.43C1334.7 668.407 1334.32 655.493 1334.03 645.879C1333.99 644.232 1333.94 642.682 1333.94 641.3C1341.08 642.32 1353.69 651.156 1360.65 656.033C1361.13 656.369 1361.58 656.686 1362 656.98C1366.07 656.77 1369.31 655.67 1369.31 651.93C1370.93 648.643 1366.28 645.138 1361.74 641.719C1359.76 640.228 1357.81 638.753 1356.4 637.32C1356.4 637.132 1356.4 636.916 1356.4 636.676C1356.38 633.888 1356.33 627.97 1358.47 627.97C1365.86 626.715 1371.72 630.123 1377.67 633.588C1382.91 636.637 1388.22 639.73 1394.73 639.73C1393.27 637.487 1394.44 636.917 1396.1 636.106C1397.35 635.499 1398.87 634.757 1399.77 633.08C1399.89 633.207 1400.01 633.336 1400.13 633.465C1400.5 633.851 1400.86 634.237 1401.27 634.59C1404.93 637.721 1409.65 639.857 1414.31 641.965C1417.24 643.291 1420.15 644.606 1422.75 646.15C1424.4 647.13 1426.27 648.64 1425.91 650.55C1425.68 651.75 1424.63 652.57 1423.64 653.24C1422.56 653.972 1421.58 654.839 1420.61 655.694C1418.39 657.655 1416.25 659.551 1413.14 659.6C1410.66 659.637 1408.71 658.1 1406.75 656.559C1405.57 655.629 1404.38 654.697 1403.08 654.11C1403.08 654.11 1398.5 653.75 1394.61 648.68C1392.08 645.387 1392.23 646.915 1392.43 648.864C1392.44 649.004 1392.46 649.147 1392.47 649.29C1392.73 651.98 1394.63 653.17 1396.84 654.27C1400.7 656.2 1404.71 658.27 1408.01 661.09C1408.05 661.127 1408.1 661.165 1408.14 661.204C1409.31 662.197 1411.08 663.704 1411.1 665.35C1411.15 669.15 1406.33 671.72 1403.26 672.66C1400.17 673.602 1397.07 673.407 1393.95 673.211C1392.03 673.09 1390.11 672.969 1388.18 673.11C1383.05 673.49 1379.26 677.06 1376.39 681.1C1374.56 687.968 1371.63 694.765 1368.82 701.288C1367.98 703.228 1367.15 705.144 1366.37 707.03C1367.35 708.069 1368.35 709.238 1369.39 710.451C1372.85 714.49 1376.74 719.019 1381.59 720.88C1382.53 721.24 1383.55 721.653 1384.64 722.091C1392.16 725.116 1402.7 729.361 1408.84 726.12C1408.99 726.043 1409.13 725.964 1409.28 725.885C1411.87 724.506 1415 722.844 1417.21 724.65C1418.59 725.77 1418.83 727.85 1418.26 729.53C1417.69 731.2 1416.47 732.57 1415.29 733.89C1412.75 736.72 1409.96 739.69 1406.25 740.5C1403.73 741.05 1401.13 740.52 1398.61 739.98C1393.11 738.808 1387.75 737.145 1382.39 735.479C1378.88 734.387 1375.36 733.295 1371.8 732.34C1369.74 731.79 1367.95 731.22 1366.37 730.64C1368.36 732.348 1370.27 734.045 1372.15 735.718C1378.63 741.479 1384.8 746.959 1392.72 751.64C1393.64 752.18 1394.62 752.77 1395.07 753.74C1396.36 756.53 1392.39 758.88 1389.31 758.88C1383.51 758.887 1378.22 756.388 1372.9 753.877C1370.2 752.603 1367.49 751.326 1364.71 750.37C1360.6 748.952 1356.29 748.242 1351.99 747.531C1347.91 746.858 1343.83 746.184 1339.91 744.91C1338.55 744.46 1337.24 743.92 1335.94 743.33C1329.42 747.3 1322.2 750.59 1314.24 753.28C1302.46 757.255 1283.3 754.332 1270.06 752.311C1269.08 752.162 1268.13 752.017 1267.22 751.88C1256.03 750.2 1242.64 747.31 1232.3 742.71C1200.94 728.77 1171.87 722.58 1141.33 724.46ZM1352.92 719.918C1352.39 719.476 1351.86 719.033 1351.32 718.6C1351.99 719.18 1352.8 719.84 1353.72 720.58C1353.45 720.36 1353.19 720.139 1352.92 719.918Z" fill="#FFECA7"/>
<path d="M1108.99 700.67C1109.5 700.89 1109.07 699.9 1108.51 699.89C1096.64 699.73 1085.12 703.54 1073.87 707.3C1069.27 708.84 1064.29 710.67 1061.79 714.83C1061.5 715.31 1061.25 715.84 1061.29 716.4C1061.35 717.22 1062.04 717.85 1062.73 718.29C1065.81 720.25 1069.73 720.13 1073.37 719.96C1085.74 719.36 1098.1 718.76 1110.47 718.15" fill="#F9AE10"/>
<path d="M1303.36 552.61C1305.04 552.61 1306.42 551.23 1306.42 549.55C1306.42 547.87 1305.04 546.49 1303.36 546.49C1301.68 546.49 1300.3 547.87 1300.3 549.55C1300.3 551.24 1301.68 552.61 1303.36 552.61Z" fill="white"/>
<path d="M1303.36 552.65C1305.56 552.65 1307.37 554.45 1307.37 556.66H1299.36C1299.35 554.46 1301.16 552.65 1303.36 552.65Z" fill="white"/>
<path d="M1064.4 733.86C1073.69 728.14 1083.31 722.32 1089.74 713.5C1096.54 704.18 1097.67 692.28 1102.6 682.08C1108.1 670.71 1119.94 663.23 1132.01 660.53C1150.49 656.4 1168.25 665.62 1186.54 666.44C1197.91 666.95 1209.28 667.04 1220.66 666.75C1231.72 666.47 1242.82 667.07 1253.65 664.27C1267.84 660.6 1282.31 655.18 1294.31 646.24C1307.51 636.41 1313.85 620.76 1326.61 610.84C1335.17 604.19 1347.07 598.01 1358.14 597.86C1369.64 597.7 1381.17 604.53 1388.34 613.16C1393.37 619.21 1395.1 628.2 1400.6 633.92C1398.45 637.84 1395.28 640.89 1397.89 644.81C1396.32 642.52 1389.6 642.37 1387 641.28C1379.42 638.09 1373.06 632.22 1364.98 630.26C1362.9 629.75 1360.45 629.61 1358.85 631.04C1357.13 632.58 1357.17 635.41 1358.3 637.42C1359.96 640.35 1363.38 642.19 1365.83 644.42C1368.62 646.96 1370.79 651.22 1368.74 654.38C1366.89 657.24 1362.59 657.37 1359.51 655.93C1356.42 654.49 1354.02 651.92 1351.12 650.11C1347.5 647.86 1341.73 647.28 1339.99 652.18C1339.26 654.24 1339.48 656.49 1339.71 658.66C1342.04 680.17 1311.22 681.25 1296.52 678.95C1293.84 678.53 1286.34 675.64 1286.26 679.93C1286.22 682.23 1290.48 685.19 1292.18 686.24C1295.26 688.16 1298.76 689.26 1302.19 690.46C1313.36 694.39 1368.44 714.37 1350.5 733.55C1348.65 735.53 1346.18 736.84 1343.62 737.7C1341.79 738.31 1339.84 738.72 1337.92 738.5C1328.24 737.4 1322.51 724.13 1314.73 719.18C1303.65 712.14 1295.58 719.05 1284.76 722.21C1260.07 729.41 1234.23 725.14 1209.41 720.98C1196.94 718.89 1184.46 716.78 1171.83 716.01C1163.34 715.49 1155.41 718.61 1147.56 721.4C1138.64 724.57 1130.15 725.26 1120.93 726.85C1112.3 728.34 1103.77 730.41 1095.38 732.92C1086.46 735.59 1076.19 743.7 1067.19 746.09C1064.39 746.83 1060.95 747.32 1058.99 745.19C1055.71 741.66 1060.29 736.39 1064.4 733.86Z" fill="#FDC510"/>
<path d="M1337.71 586.1C1338.98 582.47 1340.22 578.83 1340.83 575.04C1340.92 574.49 1341 573.91 1341.33 573.46C1342.27 572.17 1344.51 572.91 1345.24 574.33C1345.98 575.75 1349.86 580.11 1349.97 581.71C1350.46 588.78 1352.66 591.16 1352.56 598.3C1352.46 605.28 1348.76 612.34 1342.79 616.02C1342.3 616.32 1341.77 616.61 1341.19 616.63C1340.41 616.65 1339.7 616.17 1339.11 615.65C1333.71 610.93 1333.12 602.64 1334.73 595.65L1337.71 586.1Z" fill="#F9AE10"/>
<path d="M1388.07 619.43C1389.09 619.53 1390.35 620.12 1390.2 621.13C1390.08 621.91 1389.18 622.27 1388.42 622.5C1385.98 623.27 1383.64 624.38 1381.5 625.79C1377.39 628.5 1375.94 626.34 1379.15 622.93C1381.41 620.54 1384.77 619.11 1388.07 619.43Z" fill="#4B369D"/>
<path d="M1347.72 588.58C1349.23 584.27 1350.7 579.96 1351.42 575.46C1351.52 574.81 1351.62 574.12 1352.01 573.59C1354.58 570.05 1358.35 576.81 1359.27 578.74C1360.68 581.71 1361.62 584.88 1362.43 588.06C1363.18 591 1364.21 593.9 1364.76 596.88C1366.68 607.39 1363.28 619.05 1353.32 624.21C1352.91 624.42 1352.48 624.63 1352.02 624.71C1350.11 625.06 1346.86 624.03 1345.09 623.39C1343.7 622.88 1342.38 622.06 1341.51 620.85C1337.59 615.36 1342.46 605.48 1344.19 599.91C1344.19 599.9 1347.72 588.58 1347.72 588.58Z" fill="#F9DC2C"/>
<path d="M1354.34 583.91C1354.14 584.04 1353.96 584.22 1353.8 584.39C1352.75 585.54 1352.35 586.85 1351.64 588.14C1350.04 591.06 1348.54 594.02 1347.18 597.03C1344.25 603.53 1340.9 610.94 1345.6 617.47C1345.78 617.73 1345.99 617.99 1346.3 618.12C1346.7 618.3 1347.19 618.23 1347.63 618.15C1350.8 617.59 1354.67 617.12 1357.24 615.27C1359 614.01 1359.85 612.05 1360.36 610.12C1362.55 601.86 1359.7 593.27 1356.65 585.22C1356.37 584.49 1355.85 583.61 1354.97 583.67C1354.74 583.7 1354.53 583.79 1354.34 583.91Z" fill="white"/>
<path d="M1379.79 627.13C1377.53 627.89 1371.59 628.63 1371.59 628.63C1371.59 628.63 1372.2 628.82 1376.49 630.06C1380.78 631.3 1381.6 633.2 1385.41 632.64C1389.22 632.08 1390.89 630.64 1390.89 630.64C1390.89 630.64 1393.59 621.57 1389.76 623.46C1385.93 625.35 1380.82 627.15 1380.82 627.15L1379.79 627.13Z" fill="#F9AE10"/>
<path d="M1392.13 626.78C1391.54 625.33 1392.13 626.78 1392.13 626.78C1392.72 628.23 1392.25 630.13 1390.87 630.88C1390.36 631.16 1389.76 631.26 1389.17 631.25C1387.86 631.22 1386.55 630.54 1385.87 629.41C1385.19 628.28 1385.22 626.73 1386.05 625.7C1386.87 624.67 1388.47 624.33 1389.59 625.02" fill="#4B369D"/>
<path d="M1418.5 728.34C1418.5 728.34 1415.8 725.07 1415.21 728.34C1414.62 731.61 1413.65 733.06 1415.21 732.59C1416.77 732.13 1418.5 728.34 1418.5 728.34Z" fill="#4B369D"/>
<path d="M1414.38 734.58C1414.41 734.7 1414.62 734.59 1414.58 734.47C1414.54 734.35 1414.4 734.32 1414.28 734.3C1413.18 734.16 1412.03 734.64 1411.34 735.51C1410.66 736.38 1410.48 737.62 1410.88 738.65C1411.52 738.9 1412.1 738.2 1412.5 737.64C1413.31 736.47 1414.37 735.48 1415.59 734.75" fill="#4B369D"/>
<path d="M1408.73 739.63C1407.4 738.95 1405.62 739.33 1404.69 740.51C1406.29 741.11 1408.17 740.87 1409.56 739.89" fill="#4B369D"/>
<path d="M1385.59 757.82C1385.41 756.89 1384.96 755.91 1384.08 755.57C1383.2 755.23 1381.98 756.04 1382.27 756.93C1382.41 757.36 1382.83 757.64 1383.25 757.81C1383.95 758.09 1384.74 758.14 1385.47 757.96" fill="#4B369D"/>
<path d="M1389.66 758.23C1389.92 757.79 1389.56 757.2 1389.09 757.02C1388.61 756.84 1388.08 756.95 1387.58 757.06C1387.01 757.19 1386.28 757.6 1386.51 758.14C1386.63 758.43 1386.97 758.53 1387.28 758.59C1388.18 758.75 1389.12 758.72 1390.01 758.5" fill="#4B369D"/>
<path d="M1064.4 733.86C1064.4 733.86 1067.23 736.92 1064.4 737.31C1061.57 737.7 1061.29 736.27 1061.29 736.27L1064.4 733.86Z" fill="#4B369D"/>
<path d="M1058.32 740.37C1058.32 740.37 1062.56 739.88 1062.16 741.65C1061.77 743.42 1058.98 745.22 1058.98 745.22L1058.32 740.37Z" fill="#4B369D"/>
<path d="M1067.08 740.3C1067.67 740.07 1070.62 740.46 1068.46 741.64C1066.3 742.82 1065.42 743.61 1065.66 741.84C1065.9 740.07 1067.08 740.3 1067.08 740.3Z" fill="#4B369D"/>
<path d="M1071.41 710.95C1071.41 710.95 1075.94 711.93 1072.98 712.72C1070.02 713.51 1070.41 713.7 1069.24 712.72C1068.06 711.73 1071.41 710.95 1071.41 710.95Z" fill="#4B369D"/>
<path d="M1064.65 711.65C1064.65 711.65 1067.58 712.67 1065.65 713.38C1063.73 714.09 1061.78 714.83 1061.78 714.83L1064.65 711.65Z" fill="#4B369D"/>
<path d="M1063.47 717.24C1063.47 717.24 1064.63 715.67 1067.43 717.24C1070.23 718.81 1071.1 720.19 1069.24 720.02C1067.38 719.85 1067.22 718.42 1065.45 718.62C1063.68 718.82 1063.47 717.24 1063.47 717.24Z" fill="#4B369D"/>
<path d="M1416.31 645.93C1416.38 645.6 1416.46 645.26 1416.66 644.99C1417.35 644.03 1418.84 644.34 1419.92 644.82C1421.87 645.67 1423.75 646.68 1425.53 647.85C1429.22 650.27 1423.73 655.48 1420.67 655.38C1416.61 655.25 1415.69 648.97 1416.31 645.93Z" fill="#4B369D"/>
<path d="M1308.56 631.22C1306.68 633.56 1318.05 651.51 1319.79 653.96C1324.03 659.95 1329.72 664.37 1336.26 667.64C1349.34 674.17 1364.22 675.94 1378.44 678.49L1374.95 685.77C1353.3 680.38 1330.33 678.34 1316.15 659.82C1314.23 657.31 1301.4 640.14 1303.36 637.71C1305.09 635.55 1306.82 633.39 1308.56 631.22Z" fill="#F44E4E"/>
<path d="M840.54 156.57L831.61 198.24L796.7 205.71C796.7 205.71 821.07 179.91 821.81 153.6C822.56 127.3 840.54 156.57 840.54 156.57Z" fill="#D4A79A"/>
<path d="M883.58 75.24C883.58 75.24 889.24 85.87 877.63 113.87C866.02 141.87 856.07 162.44 847.58 159.29C824.09 150.6 812.96 134.59 806.89 118.54C799.44 98.86 826.9 58.1 826.9 58.1L847.9 50.74L883.58 75.24Z" fill="#EAC2AB"/>
<path d="M810.72 94.44C809.87 94.56 813.89 129.7 813.98 132.86C808.03 126.76 800.01 120.87 795.17 113.85C787.78 103.12 782.87 93.23 772.98 84.52C767.95 80.09 779.32 75.15 778.91 74.8C776.2 72.51 774.19 69.53 778.6 67.42C780.51 66.51 782.85 66.05 783.95 64.25C784.82 62.82 784.57 60.91 783.7 59.47C780.87 54.82 771.08 51.52 775.34 44.22C777.81 39.99 782.87 39.93 784.62 34.78C785.38 32.53 785.83 30.1 787.24 28.19C793.49 19.73 807.06 30.43 815.08 29.29C820.46 28.53 823.91 23.33 829.37 22.68C834.97 22.01 843.19 22.39 848.26 25.2C854.73 28.77 856.33 39.65 862.37 42.18C863.4 42.61 864.56 42.63 865.68 42.63C876.52 42.7 886.66 41.28 895.94 47.85C910.58 58.22 905.01 100.12 883.92 90.33C881.5 89.21 879.38 87.54 877.06 86.23C865.86 79.94 853.58 93.31 844.8 75.62C843.23 72.46 821.21 73.29 821.74 82.27C822.42 93.86 810.96 94.43 810.72 94.44Z" fill="#4B369D"/>
<path d="M815.58 93.72C815.58 93.72 808.25 82.21 806.78 97.77C805.31 113.33 812.88 117.79 812.88 117.79L815.58 93.72Z" fill="#EAC2AB"/>
<path d="M666.78 640.24L621.84 672.16L609.62 658.23L658.49 627.71C658.49 627.72 666.25 634.36 666.78 640.24Z" fill="#D4A79A"/>
<path d="M641.68 737.67C640.61 738.31 635.24 734.93 634.4 734.5C625.72 730 612.15 723.52 607.42 714.56C602.81 705.83 602.65 695 599.42 685.74C597.15 679.22 592.76 673.65 589.03 667.89C584.91 661.53 611.15 641.23 615.93 649.36C619.8 655.94 611.78 664.11 627.1 670.72C640.23 676.38 622.63 690.03 631.5 708.56C639.34 724.92 653.38 730.66 641.68 737.67Z" fill="#F3AA02"/>
<path d="M770.41 484.44C759.51 523.3 765.85 523.93 739.01 554.24C725.92 569.02 645.51 599.01 632.02 613.45C612.77 634.05 628.87 654.85 643.15 660.89C652.49 664.84 656.54 685.15 670.74 670.04C672.14 668.55 697.19 645.71 704.53 631.88C712.93 616.06 773.89 584.02 790.48 568.8C829.98 532.59 810.02 515.19 834.19 467.78C843.39 449.73 841.35 430.51 844.08 409.75C845.75 397.04 826.36 337.58 799.39 348.09C782.61 354.64 789.02 388.68 789.73 402.11C790.23 411.4 791.56 421.64 789.26 430.62C784.53 449.05 775.56 466.07 770.41 484.44Z" fill="#4B369D"/>
<path d="M850.28 673.74L850.3 730.53L831.32 732.49L834.82 673.24C834.82 673.23 845.03 670.67 850.28 673.74Z" fill="#EAC2AB"/>
<path d="M918.09 767.78C918.09 767.78 903.85 769.39 878.05 765.7C852.25 762.01 823.71 756.73 819.39 751.83C815.07 746.93 818.79 714.18 827.25 716.03C835.71 717.89 836.31 730.86 853.63 723.21C868.47 716.65 874.8 736.55 896.03 746.14C917.26 755.75 925.86 759.61 918.09 767.78Z" fill="#FDC510"/>
<path d="M884.96 704.15C884.09 702.12 884.86 692.01 884.96 689.47C885.98 663.53 882.61 652.3 885.45 633C899.46 537.8 907.24 518.58 884.71 479.19C862.49 440.36 847.91 423.43 844.17 376.79C842.87 360.6 874.94 339.68 850.48 344.31C838.89 346.5 827.45 346.07 815.9 344.05C809.82 342.99 816.02 341.01 809.82 342.99C788.69 349.73 772.97 387.56 772.71 402.13C772.12 434.79 845.78 486.14 844.17 515.47C840.36 585.28 834.98 570.46 830.04 611.74C827.62 631.97 824.81 634.59 822.11 654.78C820.54 666.55 818.16 679.06 806.3 692.61C794.96 705.57 865.94 716.3 879.44 715.97C889.59 715.72 887.92 711.06 884.96 704.15Z" fill="#5A54FF"/>
<path d="M945.27 396.12C944.25 386.48 944.6 388.8 939.67 389.35C934.74 389.89 911.21 379.53 903.13 375.32C900.06 373.72 887.84 361.55 873.68 346.85C870.86 350.01 866.64 352.04 861.02 351.84C859.17 351.77 857.34 351.65 855.54 351.47C869.63 364.66 881.43 375.26 884.7 377.13C894.04 382.47 890.53 383.62 894.84 391.94C899.15 400.26 902.06 403.13 908.88 404.28C915.7 405.43 923.94 404.25 927.57 403.32C931.2 402.39 931.95 414.76 933.66 418.59C935.37 422.42 938.47 412.85 938.47 412.85C938.47 412.85 938.23 420.4 941.82 422.14C945.39 423.87 946.3 405.76 945.27 396.12Z" fill="#EAC2AB"/>
<path d="M855.33 267.01C849.21 242.14 855.86 200.31 838.33 181.87C836.54 179.98 834.63 178.11 832.25 177.04C810.22 167.12 796.94 185.2 787.47 200.88C777.99 216.58 778.2 233.55 773.57 251.15C768.31 271.15 779.18 284.78 778.8 305.43C778.57 318 773.4 334.27 772.7 346.86C772.21 355.65 743.95 385.74 741.94 394.31C740.61 400.01 757.05 393.36 759.22 399.16C760.94 403.75 768.83 402.02 772.71 402.15C787.71 402.64 802.42 398.2 815.76 391.6C827.95 385.58 840.83 385.81 854.89 384.65C861.87 384.07 870.92 378.06 867.76 365.37C860.28 335.31 862.46 308.96 859.36 287.73C858.36 280.84 857.03 273.9 855.33 267.01Z" fill="#D7384E"/>
<path d="M822.1 205.7C822.1 205.7 809.64 232.85 815.58 259.18C821.52 285.51 820.81 315.94 837.25 335.25C853.69 354.56 877.68 395.99 881.78 394.29C885.88 392.59 890.23 383.64 901.8 378.17C913.37 372.7 908.61 369.19 884.95 351.05C861.29 332.91 846.93 314.77 844.16 285.52C841.41 256.26 856.04 180.89 822.1 205.7Z" fill="#F44E4E"/>
<path d="M814.84 130.84C814.84 130.84 740.68 66.56 710.26 132.33C679.84 198.1 688.92 204.53 631.38 187.01C549.45 162.06 580.46 196.07 548.28 205.7C529.18 211.41 565.6 227.9 565.6 227.9C565.6 227.9 564.78 234.36 582.81 237.73C600.84 241.1 605.46 241.65 606.93 246.35C608.4 251.05 613.61 247.61 611.05 240.41C608.49 233.21 606.96 212.41 616.85 214.08C626.74 215.75 647.7 243.13 683.99 232.8C720.28 222.47 732.79 154.01 756.88 162.42C780.96 170.82 763.07 189.14 807.33 180.6C851.59 172.07 814.84 130.84 814.84 130.84Z" fill="#F9AE10"/>
<path d="M816.23 141.3C816.23 141.3 825.04 166.14 840.07 166.17C855.1 166.2 855.27 161.99 852.25 175.45C849.23 188.91 856.73 190.59 852.25 198.99C847.77 207.39 836.41 199.22 831.47 192.38C826.53 185.54 819.3 181.07 811.16 178.68C803.02 176.29 798.97 168.26 816.23 141.3Z" fill="#FDC510"/>
</g>
<defs>
<clipPath id="clip0_16_1015">
<rect width="1656" height="835" fill="white"/>
</clipPath>
</defs>
</svg>
