<svg width="1072" height="757" viewBox="0 0 1072 757" fill="none" xmlns="http://www.w3.org/2000/svg">
<g clip-path="url(#clip0_16_1124)">
<rect width="1072" height="757" fill="white"/>
<path d="M566.15 756.58C817.307 756.58 1020.91 730.693 1020.91 698.76C1020.91 666.827 817.307 640.94 566.15 640.94C314.993 640.94 111.39 666.827 111.39 698.76C111.39 730.693 314.993 756.58 566.15 756.58Z" fill="#E3E5FC"/>
<path d="M655.62 533.72C663.22 524.26 676.2 518.65 687.18 511.61C698.15 504.57 707.94 494.31 705.45 482.73C701.33 463.52 667.16 453.68 663.56 434.43C659.45 412.42 697.01 402.66 705.74 382.3C710.72 370.68 705.32 357.09 696.45 346.14C687.58 335.19 675.47 326.07 665.02 315.99C652.36 303.78 641.82 289.47 639.94 274.23C638.06 258.99 646.63 242.9 663.88 237.23C673.6 234.04 684.8 234.36 695.31 232.92C705.82 231.48 716.79 227.36 719.66 219.28C721.08 215.27 720.28 210.89 719.91 206.63C716.85 171.19 749.18 138 792.58 132.05C790.02 140.4 804.07 148.07 814.68 146.22C825.29 144.38 832.22 136.96 838.17 129.95C844.12 122.94 850.7 115.41 861.13 113.12C869.5 111.28 878.73 113.22 887.41 115.24C894.13 116.8 901.92 119.21 904.08 124.5C904.98 126.7 904.68 129.02 904.3 131.24C900.85 151.29 891.43 170.05 886.75 189.87C882.07 209.69 882.77 231.98 897.69 249.58C906.66 260.16 920.33 268.51 926.35 280.2C935.9 298.74 923.08 318.1 909.95 333.8C896.82 349.5 882.38 367.49 888.83 386.68C895.31 405.98 992.44 394.21 968.84 513.08C963.12 541.88 922 511.19 926.59 540.4C928.53 552.74 900.5 541.66 897.79 553.63C896.93 557.43 915.4 576.09 913.91 579.73C908.74 592.37 892.84 592.54 905.17 602.74C911.61 608.07 920.3 612.59 922.6 619.59C926.73 632.16 907.54 640.11 891.51 640.61C878.13 641.02 875.28 602.61 864.16 608.93C851.1 616.36 837.23 645.52 773.17 637.38C746.69 634.01 736.16 567.27 716.31 578.57C670.92 604.39 616.24 582.75 655.62 533.72Z" fill="#E3E5FC"/>
<rect x="778.336" y="649.206" width="385.56" height="3.75" transform="rotate(-88.0172 778.336 649.206)" fill="white"/>
<path d="M781.25 455.07L779.11 451.99C784.91 447.96 836.07 412.61 845.9 411.99L846.13 415.73C839.49 416.15 803.69 439.49 781.25 455.07Z" fill="white"/>
<path d="M781.46 383.38C756.55 349.36 715.14 291.37 717.72 285.14C718.05 284.35 718.73 283.81 719.58 283.68L720.15 287.38C720.87 287.27 721.25 286.61 721.25 286.29C721.17 292.39 759.99 347.71 784.48 381.15L781.46 383.38Z" fill="white"/>
<path d="M790.97 315.19L788.46 312.41C790.35 310.71 834.8 270.66 839.43 267.25L841.65 270.27C837.17 273.56 791.43 314.77 790.97 315.19Z" fill="white"/>
<path d="M849.48 419.33C851.74 413.42 854.45 407.22 861.21 403.93C869.78 399.79 882.14 401.5 891.9 405.56C901.65 409.62 909.92 415.83 919.38 420.76C921.92 422.08 924.89 423.36 927.69 422.86C930.52 422.36 932.26 420.2 933.58 418.14C948.32 394.32 943.51 365.3 948.82 339.42C950.16 332.35 952.62 324.75 958.74 319.7C974.82 305.65 978.09 315.65 993.47 299.73C1004.21 288.61 1010.71 265.05 1026.47 259.51C1059.06 248.06 1045.61 311.99 1044.78 327.1C1043.22 355.76 1082.19 362.05 1068.16 394.38C1062.07 408.42 1050 418.46 1041 430.35C1032.09 442.31 1026.63 459.1 1037.34 471.75C1044.31 479.99 1058.1 486.62 1057.32 496.46C1056.84 502.25 1050.93 505.79 1045.38 508.51C1031.53 515.37 1017.18 521.52 1002.38 526.96C998.64 528.34 994.66 529.8 992.86 532.73C990.39 536.73 992.77 542.16 994.32 547.14C1000.04 565.51 992.58 583.01 978.13 594.21C963.76 605.46 943.17 611.21 922.21 615.45C895.24 620.95 867.2 624.41 838.3 625.71C754.19 625.98 794.46 569.61 802.35 547.95C817.5 504.44 833.22 461.56 849.48 419.33Z" fill="#FDC510"/>
<path d="M863.87 606.28C863.53 606.28 863.18 606.19 862.87 605.99C862 605.44 861.73 604.28 862.28 603.41L1003.65 378.84C1004.2 377.96 1005.37 377.7 1006.23 378.25C1007.1 378.8 1007.37 379.96 1006.82 380.83L865.45 605.4C865.1 605.97 864.49 606.28 863.87 606.28Z" fill="white"/>
<path d="M944.26 478.47C943.47 478.47 942.74 477.97 942.48 477.18L931.85 444.61C931.53 443.63 932.07 442.57 933.05 442.25C934.04 441.93 935.09 442.46 935.41 443.45L946.04 476.02C946.36 477 945.82 478.06 944.84 478.38C944.64 478.44 944.45 478.47 944.26 478.47Z" fill="white"/>
<path d="M964.61 446.85C963.76 446.85 963 446.27 962.79 445.41C962.55 444.4 963.17 443.39 964.17 443.15L997.48 435.14C998.5 434.89 999.5 435.52 999.74 436.52C999.98 437.53 999.36 438.54 998.36 438.78L965.05 446.79C964.91 446.83 964.76 446.85 964.61 446.85Z" fill="white"/>
<path d="M669.83 606.07C667.95 600.84 667.01 594.84 669.46 589.85C674.21 580.17 688.45 580.07 698.02 585.01C707.59 589.95 715.33 598.32 725.52 601.84C735.71 605.36 750.19 600.46 750.44 589.69C750.56 584.25 747.02 579.52 744.05 574.96C735.53 561.87 730.6 546.46 729.96 530.86C729.71 524.92 731.72 517.15 737.66 516.81C741.14 516.61 744.05 519.29 746.49 521.78C756.57 532.06 766.65 542.34 776.73 552.63C778.91 523.41 782.64 490.99 804.84 471.87C808.98 468.31 815.47 465.43 819.52 469.1C821.31 470.73 822.01 473.22 822.47 475.6C826.09 494.3 819.96 514.12 825.13 532.45C825.9 535.17 826.99 537.94 829.17 539.74C839.23 548.08 852.26 527.17 864.91 530.47C873.14 532.62 875.17 544 871.85 551.83C868.53 559.66 861.89 565.62 857.92 573.14C853.96 580.66 853.87 591.76 861.3 595.89C864.77 597.82 868.97 597.7 872.94 597.52C885.27 596.97 897.6 596.42 909.93 595.87C903.34 605.49 896.76 615.12 890.17 624.74C888.44 627.27 886.62 630.23 887.41 633.2C889.06 639.44 898.89 638.02 903.58 642.46C908.82 647.42 904.32 656.98 897.59 659.6C890.86 662.22 883.35 660.56 876.14 660.22C835.68 658.29 806.97 685.05 766.23 669.17C733.06 656.23 683.36 643.76 669.83 606.07Z" fill="#5A54FF"/>
<path d="M794.3 675.6C794.27 675.6 794.25 675.6 794.22 675.6C793.44 675.56 792.86 674.89 792.9 674.12C795.1 635.36 799.46 570.01 803.88 567.89C804.58 567.56 805.42 567.85 805.75 568.55C806.05 569.17 805.85 569.9 805.31 570.29C802.36 574.78 797.85 636.33 795.69 674.28C795.66 675.02 795.04 675.6 794.3 675.6Z" fill="white"/>
<path d="M796.66 638.92C796.02 638.92 795.45 638.48 795.29 637.84C795.11 637.09 795.58 636.33 796.34 636.15L846.38 624.32C847.13 624.14 847.89 624.61 848.07 625.36C848.25 626.11 847.78 626.87 847.02 627.05L796.98 638.88C796.87 638.9 796.76 638.92 796.66 638.92Z" fill="white"/>
<path d="M794.91 665.41C794.66 665.41 794.41 665.35 794.18 665.21L730.42 626.6C729.76 626.2 729.55 625.33 729.95 624.67C730.35 624.01 731.22 623.79 731.88 624.2L795.64 662.81C796.3 663.21 796.51 664.08 796.11 664.74C795.85 665.17 795.39 665.41 794.91 665.41Z" fill="white"/>
<path d="M798.22 618.13C797.78 618.13 797.35 617.93 797.08 617.54L773.22 584.22C772.77 583.59 772.91 582.71 773.54 582.26C774.17 581.81 775.04 581.95 775.5 582.58L799.36 615.9C799.81 616.53 799.67 617.41 799.04 617.86C798.79 618.04 798.51 618.13 798.22 618.13Z" fill="white"/>
<path d="M912.9 56.16C913.78 57.46 914.94 58.68 916.45 59.1C918.98 59.79 921.63 57.87 922.69 55.47C923.75 53.07 923.61 50.34 923.46 47.72C927.48 51.5 932.99 54.55 938.35 53.22C943.71 51.89 947.1 44.24 943 40.53C946.89 41.54 951.07 42.55 954.84 41.14C958.6 39.74 961.28 34.82 958.93 31.56C957.75 29.92 955.72 29.17 953.81 28.51C945.18 25.53 936.55 22.55 927.92 19.57C925.69 18.8 923.38 18.02 921.02 18.21C903.38 19.67 905.53 45.35 912.9 56.16Z" fill="#FDC510"/>
<path d="M97.3901 216.29C98.2701 217.59 99.4301 218.81 100.94 219.23C103.47 219.92 106.12 218 107.18 215.6C108.24 213.2 108.1 210.47 107.95 207.85C111.97 211.63 117.48 214.68 122.84 213.35C128.2 212.02 131.59 204.37 127.49 200.66C131.38 201.67 135.56 202.68 139.33 201.27C143.09 199.87 145.77 194.95 143.42 191.69C142.24 190.05 140.21 189.3 138.3 188.64C129.67 185.66 121.04 182.68 112.41 179.7C110.18 178.93 107.87 178.15 105.51 178.34C87.8701 179.8 90.0201 205.47 97.3901 216.29Z" fill="#E3E5FC"/>
<path d="M323.17 98.84C319.65 99.94 305.52 57.14 291.66 75.52C279.29 91.93 312.19 102.28 323.17 98.84Z" fill="#FDC510"/>
<path d="M23.68 311.52C33.16 313.23 42.92 312.23 52.37 310.38C42.68 307.16 33.98 301.58 24.73 297.25C19.28 294.7 -0.0099588 285.99 0.390041 298.24C0.630041 305.37 18.5 310.59 23.68 311.52Z" fill="#E3E5FC"/>
<path d="M836.01 45.4C849.36 50.53 864.81 49.93 877.73 43.78C872.22 46.41 850.35 37.1 844.45 35.39C836.2 33 823.85 25.8 815.67 29.68C818.59 36.99 828.54 42.53 836.01 45.4Z" fill="#E3E5FC"/>
<path d="M929.54 194.9C933.64 202.11 937.73 209.32 941.83 216.53C943.85 220.08 945.92 223.71 948.98 226.42C952.04 229.13 956.31 230.82 960.26 229.77C961.85 229.35 963.47 228.3 963.74 226.68C963.94 225.49 963.36 224.32 962.78 223.27C956.1 211.18 946.43 200.75 934.87 193.19" fill="#FDC510"/>
<path d="M990.75 146.54C992.19 146.75 993.63 146.24 994.98 145.7C1004.25 142.01 1012.95 136.9 1020.69 130.6C1014.29 130.52 980.21 124.53 976.6 128.14C970.74 133.99 983.93 145.52 990.75 146.54Z" fill="#E3E5FC"/>
<path d="M204.88 85.23C205.74 84.88 206.64 84.46 207.11 83.66C208.63 81.05 204.38 78.99 201.36 78.95C194.94 78.85 162.39 75.55 167.64 86.87C172.69 97.76 197.3 88.37 204.88 85.23Z" fill="#FDC510"/>
<path d="M262.9 573.23C245.13 568.14 227.52 562.87 214.79 549.61C208.21 542.75 204.17 530.23 211.92 524.73C215.82 521.96 221.04 522.4 225.82 522.05C244.19 520.73 233.97 504.22 224.74 497.9C208.45 486.75 188.66 477.83 180.53 459.83C180.02 458.7 179.55 457.46 179.8 456.24C180.17 454.42 181.96 453.29 183.64 452.51C195.13 447.26 214.7 454.19 222.82 442.85C242.64 415.14 181.11 368.29 167.44 350.5C164.83 347.1 162.1 343.42 161.85 339.14C161.36 330.84 170.55 324.91 178.87 324.65C191.61 324.26 203.54 331.54 216.41 329.47C226.55 327.84 233.24 318.23 235.56 308.83C242.53 280.52 229.07 249.83 230.53 221.12C231.73 197.62 247.99 152.84 279.66 163.79C294.16 168.8 298.53 186.6 303.06 201.26C307.25 214.85 313.27 230.13 322 241.4C328.4 249.66 337.76 256.24 348.19 256.82C368.46 257.95 395.04 241.75 395.35 274.5C395.45 284.53 391.89 294.22 390.74 304.19C389.59 314.15 391.62 325.65 399.93 331.27C415.08 341.52 460.39 320.4 458.25 352.76C457.71 360.86 453.35 368.13 449.55 375.3C431.19 409.98 466.16 408.38 474.95 434.73C478.11 444.21 476.08 454.8 471.63 463.74C464.49 478.09 452.13 489.6 443.12 502.79C424.83 529.57 412.58 560.05 402.49 590.71C395.09 613.19 388.82 656.99 357.39 657.42C338 657.69 331.77 628.26 325.24 614.99C312.51 589.13 289.09 580.72 262.9 573.23Z" fill="#FDC510"/>
<path d="M376.43 667.5C375.56 667.5 374.78 666.89 374.6 666L304.21 318.79C304.01 317.78 304.66 316.79 305.67 316.58C306.7 316.38 307.68 317.03 307.88 318.04L378.27 665.25C378.47 666.26 377.82 667.25 376.81 667.46C376.68 667.48 376.56 667.5 376.43 667.5Z" fill="white"/>
<path d="M329.54 426.34C329.28 426.34 329.02 426.29 328.77 426.17C327.83 425.75 327.41 424.64 327.83 423.69L357.77 357.19C358.19 356.24 359.31 355.83 360.25 356.25C361.19 356.67 361.61 357.78 361.19 358.73L331.25 425.23C330.93 425.93 330.25 426.34 329.54 426.34Z" fill="white"/>
<path d="M356.35 551.97C356.09 551.97 355.83 551.92 355.58 551.8C354.64 551.38 354.22 550.27 354.64 549.32L384.58 482.82C385.01 481.87 386.12 481.46 387.06 481.88C388 482.3 388.42 483.41 388 484.36L358.06 550.86C357.75 551.56 357.07 551.97 356.35 551.97Z" fill="white"/>
<path d="M337.17 494.01C336.9 494.01 336.63 493.95 336.37 493.83L271.66 463.27C270.73 462.83 270.32 461.71 270.77 460.78C271.21 459.84 272.33 459.45 273.27 459.89L337.98 490.45C338.91 490.89 339.32 492.01 338.87 492.94C338.54 493.61 337.87 494.01 337.17 494.01Z" fill="white"/>
<path d="M981.69 677.97C986.43 669.03 989.96 660.35 996.72 652.6C999 649.99 1001.79 647.37 1005.26 647.28C1005.91 647.26 1006.64 647.37 1007.09 647.87C1007.49 648.31 1007.58 648.94 1007.63 649.53C1010.82 687.2 961.72 685.01 951.91 653.29C951.3 651.33 950.85 649.2 951.45 647.27C952.54 643.74 956.94 642.26 960.44 643.4C963.94 644.53 966.59 647.58 968.55 650.79C973.75 659.27 975.37 669.4 976.87 679.21C974.44 666.37 975.99 652.88 981.24 641.21C982.03 639.46 983.55 637.46 985.36 638.1C986.23 638.41 986.8 639.26 987.25 640.09C990.51 646.02 990.75 653.22 989.28 659.71C987.81 666.2 984.76 672.15 981.69 677.97Z" fill="#978CFF"/>
<path d="M339.57 638.47C343.96 631.61 347.74 623.66 348.71 614.77C348.94 612.62 348.97 610.25 347.99 608.51C347.14 607 345.71 606.29 344.32 605.9C334.46 603.12 325.21 612.65 318.1 622.08C305.53 638.74 294.31 657.17 284.69 676.96C290.44 665.12 293.48 642.41 292.11 628.49C292.06 627.94 291.97 627.35 291.65 627C291.32 626.65 290.85 626.67 290.43 626.77C287.4 627.54 285.49 631.43 284.03 635.03C279.53 646.18 275.62 659.06 273.01 671.57C274.65 663.71 269.8 654.25 265.4 649.57C257.53 641.2 259.21 652.88 260.92 659.74C262.59 666.47 273.72 692.79 281.65 686.91C283.1 685.83 283.46 679.95 284.65 678.06C286.73 674.78 289.62 673.7 292.6 672.48C300.6 669.2 308.93 667.85 316.45 662.69C325.24 656.67 333.18 648.46 339.57 638.47Z" fill="#978CFF"/>
<path d="M437.45 618.48C437.79 618.43 438.15 618.47 438.53 618.6C439.72 619.02 440.33 620.3 440.79 621.48C444.94 632.25 444.44 629.53 445.6 644.34C446.64 634.81 445.91 636.57 449.25 627.58C449.9 625.83 450.64 624.03 452.06 622.81C461.25 614.95 455.79 644.14 454.57 647.59C450.06 660.36 438.09 665.25 425.35 662.84C414.17 660.73 402.76 654.1 397.26 643.94C396.76 643.02 396.32 641.84 396.93 640.99C397.35 640.4 398.12 640.21 398.83 640.09C405.21 639.06 411.72 641.35 417.25 644.69C422.79 648.03 427.62 652.39 432.93 656.09C436.69 658.71 443.84 657.38 448.42 657.21C456.2 656.92 458.74 653.47 464.75 648.52C466.06 647.44 467.51 646.41 469.19 646.16C470.87 645.91 472.81 646.68 473.39 648.28C473.73 649.23 473.55 650.29 473.27 651.26C469.67 663.59 454.64 664.41 446.66 656.3C439.05 648.56 432.73 634.67 434.04 623.73C434.3 621.51 435.57 618.74 437.45 618.48Z" fill="#F44E4E"/>
<path d="M75.86 555.58C78.08 554.31 80.49 553.38 83.01 552.92C93.52 551 103.82 557.19 111.71 564.4C119.59 571.62 126.48 580.26 135.99 585.15C140.41 587.42 147.51 587.66 148.66 582.83C149.2 580.58 148.02 578.32 146.84 576.33C134.98 556.4 118.02 540.87 102.83 523.6C98.77 518.98 94.45 512.7 97.25 507.22C100.25 501.34 109.14 501.77 114.68 505.37C120.22 508.96 124.25 514.66 130.13 517.67C131.66 518.45 133.37 519.05 135.08 518.84C138.32 518.44 140.61 515.19 141.02 511.95C143.52 492.02 119.45 476.3 111.96 459.97C105.56 446.04 106.81 429.88 109.23 414.74C111.12 402.92 114.04 390.45 122.62 382.1C124.56 380.22 126.96 378.51 129.66 378.52C139.95 378.54 140.18 402.42 145.89 409.07C151.07 415.12 158.54 419.4 161.89 426.62C166.12 435.74 162.5 446.42 163.18 456.45C164.28 472.49 178.6 476.41 182.79 488.51C183.61 479.46 184.34 470.27 185.1 461.16C185.34 458.26 185.76 455.01 188.05 453.21C193.04 449.28 199.65 456.4 200.52 462.69C201.67 470.97 199.41 479.31 198.88 487.66C198.35 496.01 200.13 505.45 207 510.21C214.57 515.46 224.79 512.95 233.78 510.91C242.77 508.87 253.84 508.19 259.51 515.46C261.74 518.31 262.69 521.96 263.1 525.56C266.63 556 236.1 583.74 242.56 613.69C248.35 640.55 264.24 657.05 235.43 676.76C223.62 684.84 210.98 688.21 196.94 683.88C186.2 680.56 176.75 674.12 167.28 668.08C147.71 655.61 125.1 649.2 104.21 639.22C89.62 632.25 75.6 622.73 67.3 608.85C59 594.98 57.67 576.06 67.4 563.15C69.69 560.11 72.57 557.47 75.86 555.58Z" fill="#F44E4E"/>
<path d="M217.14 686.82C216.35 686.82 215.61 686.32 215.36 685.52L139.89 452.64C139.57 451.66 140.11 450.6 141.09 450.28C142.09 449.96 143.13 450.5 143.45 451.48L218.92 684.36C219.24 685.34 218.7 686.4 217.72 686.72C217.52 686.79 217.33 686.82 217.14 686.82Z" fill="white"/>
<path d="M202.08 640.36C201.9 640.36 201.73 640.33 201.55 640.28L110.86 613.46C109.87 613.17 109.3 612.12 109.59 611.13C109.89 610.14 110.93 609.57 111.92 609.86L202.61 636.68C203.6 636.97 204.17 638.02 203.88 639.01C203.63 639.83 202.89 640.36 202.08 640.36Z" fill="white"/>
<path d="M173.74 552.93C173.49 552.93 173.23 552.88 172.99 552.77L138.32 537.5C137.37 537.08 136.94 535.98 137.36 535.03C137.78 534.08 138.89 533.65 139.83 534.07L174.5 549.34C175.45 549.76 175.88 550.86 175.46 551.81C175.15 552.51 174.47 552.93 173.74 552.93Z" fill="white"/>
<path fill-rule="evenodd" clip-rule="evenodd" d="M347.23 207.31C347.23 92.98 439.91 0.290009 554.25 0.290009C668.58 0.290009 761.27 92.97 761.27 207.31C761.27 321.65 617.01 582.95 554.25 582.95C497.11 582.95 347.23 321.64 347.23 207.31ZM413.31 211.64C413.31 289.48 476.41 352.58 554.25 352.58C632.09 352.58 695.19 289.48 695.19 211.64C695.19 133.8 632.09 70.7 554.25 70.7C476.41 70.7 413.31 133.8 413.31 211.64Z" fill="#978CFF"/>
<path d="M554.25 712.52C636.082 712.52 702.42 703.552 702.42 692.49C702.42 681.428 636.082 672.46 554.25 672.46C472.418 672.46 406.08 681.428 406.08 692.49C406.08 703.552 472.418 712.52 554.25 712.52Z" fill="#978CFF"/>
</g>
<defs>
<clipPath id="clip0_16_1124">
<rect width="1072" height="757" fill="white"/>
</clipPath>
</defs>
</svg>
