<svg xmlns="http://www.w3.org/2000/svg" viewBox="0 0 48 48"><title>15-Document</title><g id="_15-Document" data-name="15-Document"><path d="M2,45V3A1,1,0,0,1,3,2H28V7a3,3,0,0,0,3,3h5v3h2V9a1,1,0,0,0-.29-.71l-8-8A1,1,0,0,0,29,0H3A3,3,0,0,0,0,3V45a3,3,0,0,0,3,3H17V46H3A1,1,0,0,1,2,45ZM30,3.41,34.59,8H31a1,1,0,0,1-1-1Z"/><rect x="11" y="18" width="6" height="2"/><rect x="7" y="24" width="10" height="2"/><rect x="7" y="30" width="9" height="2"/><rect x="7" y="36" width="9" height="2"/><path d="M47.71,23.29l-7-7A1,1,0,0,0,40,16H23a3,3,0,0,0-3,3V45a3,3,0,0,0,3,3H45a3,3,0,0,0,3-3V24A1,1,0,0,0,47.71,23.29ZM41,19.41,44.59,23H42a1,1,0,0,1-1-1ZM46,45a1,1,0,0,1-1,1H23a1,1,0,0,1-1-1V19a1,1,0,0,1,1-1H39v4a3,3,0,0,0,3,3h4Z"/></g></svg>