<svg width="1589" height="993" viewBox="0 0 1589 993" fill="none" xmlns="http://www.w3.org/2000/svg">
<g clip-path="url(#clip0_16_1176)">
<rect width="1589" height="993" fill="white"/>
<path d="M68.3701 899.62C95.8401 917.05 123.28 934.48 150.46 952.37C123.36 944.31 96.0501 936.17 71.1501 922.78C46.2501 909.4 23.6201 890.23 10.9201 864.97C-1.76989 839.71 -3.16989 807.84 11.7101 783.8C32.7601 749.79 83.2401 733.04 119.05 752.8C133.93 761 148.27 774.46 165.08 771.93C198.63 766.86 222.03 732.88 253.73 721.33C287.97 708.86 326.16 707.07 361.34 716.8C375.47 720.71 417.49 736.52 419.18 708.33C419.68 699.88 415.97 691.7 415.74 683.24C414.6 642.46 527.48 680.53 551.31 660.81C571.14 644.4 575.73 617.19 594.13 599.18C615.84 577.93 643.83 564.21 667.84 545.87C696.78 523.75 725.82 485.15 711.49 446.94C705.05 429.77 690.8 413.65 694.52 395.69C696.71 385.08 704.84 376.85 712.59 369.29C734.05 348.33 755.51 327.38 776.97 306.42C781.85 301.66 787.74 296.53 794.51 297.37C802.32 298.34 807 307.22 806.62 315.08C806.24 322.94 802.32 330.11 799.3 337.38C784.97 371.86 790.83 414.31 815.49 442.62C830.42 459.76 852.11 473.31 856.96 495.52C862.06 518.86 849.57 551.13 870.73 562.21C881.73 567.97 895.57 562.83 907.37 566.69C931.33 574.54 929.56 608.62 940.75 631.22C955.51 661.03 993.15 669.39 1021.15 687.35C1051.4 706.75 1071.12 738.5 1096.4 764.04C1128.87 796.85 1171.36 819.6 1216.67 828.42C1236.09 832.2 1260.72 831.04 1269.76 813.45C1279.24 795.01 1265.05 769.14 1278.27 753.16C1293.42 734.86 1321.95 750.79 1342.59 762.55C1374.06 780.49 1410.83 786.02 1446.52 792.28C1482.2 798.54 1518.97 806.37 1548.16 827.82C1577.35 849.28 1596.87 888.07 1585.19 922.36C1572.12 960.75 1527.83 978.07 1487.87 984.99C1339.03 1010.76 1188.92 959.35 1038.55 945.03C884.83 930.4 731.34 954.68 578.43 967.56C420.73 980.85 268.32 966.05 111.59 948.49" fill="#E3E5FC"/>
<path opacity="0.27" d="M722.72 593.89C722.44 607.22 724.22 620.69 721.77 633.8C719.32 646.9 711.34 660.16 698.5 663.76C680.41 668.83 657.66 654.06 643.89 666.83C633.39 676.57 637.97 694.24 632.25 707.37C620.64 734.03 576.88 727.58 559.35 750.78C553.13 759.01 550.76 770.47 542.13 776.13C531.68 782.97 517.99 777.87 505.89 774.77C456.74 762.19 406.33 787.2 363.33 814.14C334.55 832.18 306.55 851.45 279.43 871.9C273.73 876.2 267.8 880.9 265.34 887.6C261.43 898.21 267.52 909.82 274.59 918.64C307.63 959.83 375.65 917.41 428.34 920.83C519.59 926.74 587.89 910.64 679.29 907.72C743.7 905.66 802.41 917.52 865.79 905.85C925.41 894.87 998.41 913.17 1059.03 912.63C1086.88 912.38 1116.96 917.62 1140.88 903.36C1144.09 901.45 1147.19 899.12 1149.06 895.89C1154.45 886.58 1147.59 875.07 1140.35 867.13C1111.49 835.51 1018.91 847.11 994.15 812.18C928.09 718.98 897.28 723 824.09 697.6C814.58 694.3 804.65 690.97 797.51 683.88C790.37 676.79 787.07 664.68 793 656.55C798.49 649.03 809.42 647.57 815.78 640.76C829.24 626.33 813.4 603.67 813.51 583.94C813.56 575.81 816.49 567.99 817.63 559.95C821.35 533.75 794.86 493.22 764.98 502.56C736.09 511.56 723.25 569 722.72 593.89Z" fill="#A7ADFF"/>
<path d="M715.62 389.74C707.44 395.85 699.02 402.23 694.11 411.18C687.4 423.4 697.44 433.46 701.53 444.37C703.98 450.88 705.21 455.49 703.85 462.42C702.7 468.27 695.23 474.45 699.68 480.69C705.93 489.38 717.17 484.3 723.23 496.46C728.19 506.41 726.25 518.09 732.63 527.56C739.24 537.38 750.49 545.07 754.63 556.43C758.99 568.37 749.34 585.95 762.66 594.32C769.76 598.79 779.7 595 784.79 588.33C795.49 574.3 795.33 548.13 798 531.44C799.24 523.69 804.65 513.45 811.8 516.69C816.29 518.73 822.4 551.1 831.78 534.35C833.62 531.06 833.37 527.05 833.07 523.3C832.64 518.01 830.86 512.05 831.67 506.74C834.61 487.46 839.23 477.09 833.24 456.8C832.6 454.62 832.12 451.86 833.89 450.43C834.82 449.68 836.1 449.57 837.29 449.5C844.75 449.03 853.38 449.52 857.38 441.69C861.69 433.25 851.59 426.85 848.73 419.78C849.3 421.2 869.29 426.93 872.53 428.71C866.41 414.09 851.67 402.8 836.66 398.46" fill="#F44E4E"/>
<path d="M725.56 459.71C727.71 466.63 730.93 472.89 735.35 477.95C738.82 481.92 743.05 485.35 745.31 490.19C747.25 494.34 747.53 499.14 749.31 503.37C756.19 519.72 769.04 502.27 773.56 494.17C779.16 484.16 784.7 481.21 795.24 481.36C796.42 481.38 797.74 481.33 798.55 480.43C799.31 479.58 799.32 478.27 799.15 477.11C798.22 470.67 791.29 461.7 798.07 456.21C800.75 454.04 804.24 453.39 807.46 452.26C823.61 446.57 823.22 416.9 822.61 402.66C822.38 397.3 820.26 392.19 817.37 387.76C801.25 363.01 759.66 362.92 740.1 383.88C724.22 400.88 717.79 434.66 725.56 459.71Z" fill="#D7384E"/>
<path d="M926.89 410.33C918.29 417.18 855.78 370.1 794.8 315.83L863.94 260.75C902.96 332.51 934.72 404.09 926.89 410.33Z" fill="#5A54FF"/>
<path d="M623.85 410.33C632.45 417.18 694.96 370.1 755.94 315.83L686.8 260.75C647.78 332.51 616.02 404.09 623.85 410.33Z" fill="#5A54FF"/>
<path d="M679.29 270.89C679.29 353.11 721.04 398.21 772.54 398.21C824.04 398.21 865.79 353.11 865.79 270.89C865.79 238.05 855.01 188.35 840.44 140.49H703.92C689.66 188.35 679.29 238.05 679.29 270.89Z" fill="#A7ADFF"/>
<path d="M772.54 0.759995C755.56 0.759995 725.35 68.54 703.91 140.49H840.43C818.52 68.54 788 0.759995 772.54 0.759995Z" fill="#5A54FF"/>
<path d="M841.68 388.39H703.4C692.53 388.39 683.64 379.5 683.64 368.63C683.64 357.76 692.53 348.87 703.4 348.87H841.68C852.55 348.87 861.44 357.76 861.44 368.63C861.44 379.5 852.55 388.39 841.68 388.39Z" fill="#978CFF"/>
<path d="M835.41 399.17H709.67C706.71 399.17 704.28 396.74 704.28 393.78C704.28 390.82 706.71 388.39 709.67 388.39H835.41C838.37 388.39 840.8 390.82 840.8 393.78C840.8 396.74 838.38 399.17 835.41 399.17Z" fill="#5A54FF"/>
<path d="M772.54 196.18C745.5 196.18 723.59 218.1 723.59 245.13C723.59 246.63 723.68 248.1 723.81 249.56C752.53 237.89 781.04 225.83 808.98 212.52C800.02 202.51 787.03 196.18 772.54 196.18Z" fill="white"/>
<path d="M723.81 249.56C726.05 274.52 747 294.08 772.54 294.08C799.58 294.08 821.49 272.16 821.49 245.13C821.49 232.59 816.73 221.18 808.98 212.52C781.04 225.83 752.53 237.89 723.81 249.56Z" fill="#E3E5FC"/>
</g>
<defs>
<clipPath id="clip0_16_1176">
<rect width="1589" height="993" fill="white"/>
</clipPath>
</defs>
</svg>
