<svg width="1190" height="843" viewBox="0 0 1190 843" fill="none" xmlns="http://www.w3.org/2000/svg">
<g clip-path="url(#clip0_16_1284)">
<rect width="1190" height="843" fill="white"/>
<path d="M600.98 839.14C866.336 839.14 1081.45 830.759 1081.45 820.42C1081.45 810.081 866.336 801.7 600.98 801.7C335.624 801.7 120.51 810.081 120.51 820.42C120.51 830.759 335.624 839.14 600.98 839.14Z" fill="#E3E5FC"/>
<path d="M1030.62 201.04C999.22 197.87 969.66 188.75 942.24 172.14C926.17 162.41 907.8 149.78 893.35 137.85C863.44 113.17 834.37 91.1901 805.67 65.1201C805.37 64.8501 801.37 61.6701 801.49 61.3101C801.49 61.3101 795.87 77.2301 795.87 77.2401C823.71 101.35 850.4 126.77 878.67 150.39C918.46 183.62 966.57 215.52 1020.16 219.72C1030.99 220.57 1030.62 201.04 1030.62 201.04Z" fill="#D4A79A"/>
<path d="M1036.53 158.43L1036.94 203.91L1071.84 219.19C1071.84 219.19 1051.88 186.99 1056.74 159.33C1061.6 131.67 1036.53 158.43 1036.53 158.43Z" fill="#D4A79A"/>
<path d="M1008.94 64.1701C1008.94 64.1701 1000.75 74.0701 1006.89 105.83C1013.03 137.59 1024.09 164.97 1033.64 163.5C1060.06 159.44 1070.07 141.34 1079.86 125.86C1091.86 106.88 1071.88 58.3801 1071.88 58.3801L1051.5 46.1801L1008.94 64.1701Z" fill="#EAC2AB"/>
<path d="M981.31 54.5401C975.81 35.8001 981.37 14.2801 997.82 3.14006C999.7 1.87006 1001.8 0.700057 1004.07 0.730057C1014.23 0.870057 1009.41 22.9601 1026.27 21.5601C1037.24 20.6501 1045.99 12.8101 1056.83 11.7301C1070.57 10.3701 1081.21 17.5901 1089.33 28.0301C1091.75 31.1401 1108.66 55.8901 1099.89 57.5801C1127.11 52.3301 1101.17 117.74 1095.11 126.56C1090.28 133.58 1081.17 136.86 1073.55 134.51C1076.22 128.08 1078.88 121.51 1079.62 114.51C1080.37 107.51 1091.07 76.2301 1056.83 67.8401C1032.48 61.8801 1007.68 88.9201 986.37 64.4001C984.13 61.8201 982.45 58.4101 981.31 54.5401Z" fill="#4B369D"/>
<path d="M1080.6 91.6701C1080.6 91.6701 1090.73 81.2001 1088.93 97.7901C1087.13 114.38 1078.27 117.42 1078.27 117.42L1080.6 91.6701Z" fill="#EAC2AB"/>
<path d="M1130.63 729.07L1151.57 784.05L1170.67 778.94L1145.41 722.87C1145.41 722.88 1134.58 724.17 1130.63 729.07Z" fill="#D4A79A"/>
<path d="M1102.63 835.32C1103.31 836.46 1110.07 836 1111.08 836.01C1121.51 836.16 1137.54 836.92 1146.51 830.89C1155.25 825.01 1160.87 814.91 1168.59 807.83C1174.02 802.85 1180.95 799.83 1187.37 796.3C1194.46 792.4 1180.04 760.06 1171.44 765.29C1164.48 769.53 1167.9 781.25 1150.15 779.73C1134.94 778.42 1144.6 800.14 1126.91 813.08C1111.27 824.52 1095.17 822.83 1102.63 835.32Z" fill="#F3AA02"/>
<path d="M1072.91 525.84C1083.6 578.73 1103.48 627.31 1131.94 672.55C1145.82 694.62 1150.74 701.15 1165.07 722.87C1185.51 753.85 1130.36 772.83 1114.51 777.56C1104.13 780.66 1088.54 780.87 1088.88 771.83C1088.98 769.17 1090.71 766.63 1092.12 764.12C1104.96 741.19 1092 716.95 1081.65 695.43C1050.62 630.92 1045.14 615.62 1020.16 548.73C1010.65 523.26 1005.84 436.81 1003.52 409.23C1002.1 392.35 1016.32 322.72 1045.56 342.27C1063.76 354.44 1055.62 397.29 1054.4 414.59C1053.56 426.55 1051.76 439.57 1053.99 451.75C1058.58 476.77 1067.86 500.85 1072.91 525.84Z" fill="#4B369D"/>
<path d="M1065.21 750.83L1052.2 810.02L1071.54 816.4L1081.45 753.83C1081.44 753.84 1071.39 748.83 1065.21 750.83Z" fill="#EAC2AB"/>
<path d="M973 833.34C973 833.34 987.47 838.28 1015.21 840.34C1042.95 842.4 1073.91 843.43 1079.53 839.31C1085.16 835.19 1088.78 800.2 1079.53 800.2C1070.28 800.2 1066.69 813.58 1050.38 801.64C1036.41 791.41 1025.25 810.7 1000.93 815.84C976.61 820.99 966.76 823.05 973 833.34Z" fill="#FDC510"/>
<path d="M1020.59 774C1021.52 771.83 1023.96 770.21 1026.08 768.52C1045.45 753.08 1040.72 729.53 1037.62 708.95C1030.27 660.13 1045.82 610.78 1041.08 562.09C1034.31 492.56 1039.17 466.6 1028.28 420.14C1024.32 403.26 1018.86 377.16 1044.97 382.1C1057.34 384.44 1069.55 383.98 1081.88 381.82C1088.37 380.68 1081.75 378.57 1088.37 380.68C1110.92 387.88 1109.14 409.26 1107.19 430.09C1104.3 460.93 1102.49 503.29 1101 534.61C1098.88 579.01 1091.49 623.46 1096.76 667.52C1099.34 689.11 1102.34 710.64 1105.22 732.19C1106.9 744.76 1117.41 772.3 1110.36 783.68C1100.68 799.3 1057.55 786.06 1043.14 785.71C1032.31 785.43 1017.43 781.37 1020.59 774Z" fill="#5A54FF"/>
<path d="M1013.3 285.56C1019.84 259.02 1012.74 214.38 1031.45 194.69C1033.37 192.67 1035.22 190.12 1037.94 189.53C1086.48 179 1089.16 203.02 1099.26 219.75C1109.38 236.5 1095.62 249.84 1100.57 268.62C1106.19 289.97 1105.06 312.17 1105.46 334.21C1105.71 347.63 1103.89 354.21 1104.65 367.65C1105.18 377.03 1104.55 383.95 1106.69 393.1C1108.11 399.18 1118.2 420.4 1115.88 426.59C1114.04 431.49 1105.62 429.64 1101.48 429.78C1085.47 430.31 1080.4 430.23 1066.16 423.2C1053.15 416.77 1003.01 431.26 988.01 430.02C980.56 429.4 998.27 393.32 1001.64 379.78C1009.63 347.69 1005.69 330.33 1009 307.67C1010.07 300.32 1011.49 292.92 1013.3 285.56Z" fill="#D7384E"/>
<path d="M1037.94 189.53C1037.94 189.53 1025.1 201.14 992.92 186.5L982.28 219.75C982.28 219.75 1013.37 234.63 1028.18 223.38C1040.94 213.7 1037.6 190.2 1037.94 189.53Z" fill="#D7384E"/>
<path d="M1098.44 330.64C1090.95 350.31 996.5 368.41 950.5 364.44C939.23 363.47 927.36 362.03 919.8 371.19C925.18 373.8 929.22 372.14 935.03 373.21C928.13 379.36 921.23 385.52 914.33 391.67C912.2 393.57 909.84 396.5 911.09 399.17C912.01 401.15 914.41 401.61 916.44 401.58C929.83 401.37 941.06 390.87 953.79 386.35C969.48 380.78 981.98 382.49 997.74 379.77C1104.47 361.35 1128.18 358.16 1121.39 292.23C1116.23 242.11 1106.21 234.29 1091.72 218.48C1089.42 215.97 1085.28 213.53 1083.07 216.11C1081.97 217.4 1082.11 219.32 1082.41 220.99C1084.11 230.39 1088.84 238.9 1092.65 247.66C1101.99 269.16 1104.9 313.69 1098.44 330.64Z" fill="#EAC2AB"/>
<path d="M1083.04 259.33C1083.04 259.33 1053.97 179.65 1077.91 190.96C1101.67 202.19 1124.73 252.87 1124.73 252.87L1085.15 269.7L1083.04 259.33Z" fill="#F44E4E"/>
<path d="M40.7799 569.73C43.5399 592.23 69.0299 607.78 97.4299 604.3L785.45 519.84C813.85 516.35 834.82 495.09 832.06 472.6L826.88 430.43L35.5999 527.55L40.7799 569.73Z" fill="#978CFF"/>
<path d="M791.97 146.07C788.57 118.34 762.55 98.51 734.15 102L46.13 186.46C17.73 189.95 -2.71004 215.48 0.689961 243.21L15.2 361.42L806.48 264.29L791.97 146.07Z" fill="#978CFF"/>
<rect x="15.176" y="361.398" width="797.177" height="167.381" transform="rotate(-6.99638 15.176 361.398)" fill="#4B369D"/>
<path d="M103.62 339.92C127.562 339.92 146.97 320.512 146.97 296.57C146.97 272.628 127.562 253.22 103.62 253.22C79.6785 253.22 60.27 272.628 60.27 296.57C60.27 320.512 79.6785 339.92 103.62 339.92Z" fill="#978CFF"/>
<path d="M730.23 377.32L618.7 391.01C603.82 392.84 590.15 382.16 588.32 367.28L581.02 307.84C579.19 292.96 589.87 279.29 604.75 277.46L716.28 263.77C731.16 261.94 744.83 272.62 746.66 287.5L753.96 346.94C755.79 361.82 745.11 375.49 730.23 377.32Z" fill="#978CFF"/>
<path d="M89.75 420C89.75 448.61 113.16 472.02 141.77 472.02H834.96C863.57 472.02 886.98 448.61 886.98 420V366.37H89.75V420Z" fill="#A7ADFF"/>
<path d="M886.97 72.9601C886.97 44.3501 863.56 20.9401 834.95 20.9401H141.76C113.15 20.9401 89.74 44.3501 89.74 72.9601V194.94H886.96V72.9601H886.97Z" fill="#A7ADFF"/>
<rect x="89.75" y="194.94" width="797.22" height="171.43" fill="#E3E5FC"/>
<path d="M196.67 152.12C220.612 152.12 240.02 132.712 240.02 108.77C240.02 84.8285 220.612 65.42 196.67 65.42C172.729 65.42 153.32 84.8285 153.32 108.77C153.32 132.712 172.729 152.12 196.67 152.12Z" fill="#5A54FF"/>
<path d="M808.77 265.27H696.4C681.41 265.27 669.14 253 669.14 238.01V178.13C669.14 163.14 681.41 150.87 696.4 150.87H808.77C823.76 150.87 836.03 163.14 836.03 178.13V238.01C836.03 253 823.77 265.27 808.77 265.27Z" fill="#5A54FF"/>
<path d="M277.76 337.47H160.87C153.14 337.47 146.82 331.15 146.82 323.42V319.01C146.82 311.28 153.14 304.96 160.87 304.96H277.76C285.49 304.96 291.81 311.28 291.81 319.01V323.42C291.81 331.15 285.49 337.47 277.76 337.47Z" fill="white"/>
<path d="M459.93 337.47H343.04C335.31 337.47 328.99 331.15 328.99 323.42V319.01C328.99 311.28 335.31 304.96 343.04 304.96H459.93C467.66 304.96 473.98 311.28 473.98 319.01V323.42C473.98 331.15 467.65 337.47 459.93 337.47Z" fill="white"/>
<path d="M642.09 337.47H525.21C517.48 337.47 511.16 331.15 511.16 323.42V319.01C511.16 311.28 517.48 304.96 525.21 304.96H642.1C649.83 304.96 656.15 311.28 656.15 319.01V323.42C656.14 331.15 649.82 337.47 642.09 337.47Z" fill="white"/>
<path d="M821.98 337.47H705.09C697.36 337.47 691.04 331.15 691.04 323.42V319.01C691.04 311.28 697.36 304.96 705.09 304.96H821.98C829.71 304.96 836.03 311.28 836.03 319.01V323.42C836.03 331.15 829.71 337.47 821.98 337.47Z" fill="white"/>
<path d="M945.68 429.91C938.2 434.88 930.6 439.69 922.9 444.33C914.54 449.3 905.3 446.65 901.81 438.81C892.18 417.48 875.99 399.22 862.29 378.18C855.84 368.27 851.77 363.9 862.16 355.96C868.25 351.31 873.29 348.65 879.46 344.21C895.48 332.68 901.72 337.78 907.98 345.87C927.74 371.39 934.68 385.95 947.54 408.22C952.35 416.42 953.79 424.59 945.68 429.91Z" fill="#F3AA02"/>
<path d="M939.49 450.41C931.46 454.61 923.36 458.66 915.19 462.55C906.33 466.71 896.37 463.44 895.49 455.06C891.98 421.75 884.24 414.47 861.13 395.74C854.16 390.09 854.05 379.11 860.9 374.17C867.3 369.59 880.44 359.93 886.6 355.1C893.16 349.89 904.48 356.18 910.74 363.9C927.58 384.83 941.07 405.76 945.69 429.91C947.43 439.06 948.18 445.93 939.49 450.41Z" fill="#FFD592"/>
<path fill-rule="evenodd" clip-rule="evenodd" d="M890.1 405.75C890.1 415.61 898.12 423.63 907.98 423.63C917.84 423.63 925.86 415.61 925.86 405.75C925.86 395.89 917.84 387.87 907.98 387.87C898.12 387.87 890.1 395.89 890.1 405.75ZM893.85 405.75C893.85 397.96 900.19 391.62 907.98 391.62C915.77 391.62 922.11 397.96 922.11 405.75C922.11 413.54 915.77 419.88 907.98 419.88C900.19 419.88 893.85 413.54 893.85 405.75Z" fill="#F3AA02"/>
</g>
<defs>
<clipPath id="clip0_16_1284">
<rect width="1190" height="843" fill="white"/>
</clipPath>
</defs>
</svg>
