<svg xmlns="http://www.w3.org/2000/svg" viewBox="0 0 48 48"><title>17-Emotion - Happy</title><g id="_17-Emotion_-_Happy" data-name="17-Emotion - Happy"><path d="M24,0A24,24,0,1,0,48,24,24,24,0,0,0,24,0Zm0,46A22,22,0,1,1,46,24,22,22,0,0,1,24,46Z"/><path d="M16,20a4,4,0,1,0-4-4A4,4,0,0,0,16,20Zm0-6a2,2,0,1,1-2,2A2,2,0,0,1,16,14Z"/><path d="M32,12a4,4,0,1,0,4,4A4,4,0,0,0,32,12Zm0,6a2,2,0,1,1,2-2A2,2,0,0,1,32,18Z"/><path d="M24,37A10,10,0,0,1,14,27H12a12,12,0,0,0,24,0H34A10,10,0,0,1,24,37Z"/></g></svg>