<svg width="1298" height="879" viewBox="0 0 1298 879" fill="none" xmlns="http://www.w3.org/2000/svg">
<g clip-path="url(#clip0_16_1336)">
<rect width="1298" height="879" fill="white"/>
<path d="M1204.11 784.63C1205.84 786.65 1208.2 786.69 1210.37 786.63C1222.92 786.3 1235.5 787.22 1248.05 787.15C1259.91 787.08 1269.72 788.18 1270.96 765.5C1271.22 760.72 1271.72 729.35 1273.49 705.49H1189.39C1192.56 729.83 1196.05 754.37 1201.32 777.49C1201.94 780.14 1202.65 782.92 1204.11 784.63Z" fill="#FDC510"/>
<path d="M1230.87 758.17C1240.21 758.17 1247.78 750.599 1247.78 741.26C1247.78 731.921 1240.21 724.35 1230.87 724.35C1221.53 724.35 1213.96 731.921 1213.96 741.26C1213.96 750.599 1221.53 758.17 1230.87 758.17Z" fill="white"/>
<path d="M1216.61 662.99C1212.43 662.03 1208.43 660.5 1204.92 658.04C1198.56 653.59 1194.24 645.55 1196.05 638.01C1199.32 624.4 1219.4 619.21 1220.75 605.28C1221.29 599.74 1218.52 594.45 1217.73 588.94C1216.94 583.43 1219.6 576.38 1225.16 576.17C1227.42 586.33 1234.21 595.4 1243.32 600.44C1247.55 602.78 1252.29 604.32 1255.99 607.43C1259.69 610.54 1262.11 616.02 1259.8 620.27C1258.21 623.21 1254.91 624.7 1252.14 626.59C1249.37 628.48 1246.79 631.69 1247.8 634.88C1248.3 636.46 1249.59 637.64 1250.85 638.73C1254.99 642.31 1270.36 650.07 1263.99 657.46C1262.05 659.71 1259.05 660.68 1256.17 661.42C1246.67 663.86 1236.8 664.85 1227 664.35C1223.53 664.16 1220.01 663.77 1216.61 662.99Z" fill="#A7ADFF"/>
<path d="M1267.53 700.22H1193.63C1186.03 700.22 1179.82 694 1179.82 686.41C1179.82 678.81 1186.04 672.6 1193.63 672.6H1267.53C1275.13 672.6 1281.34 678.82 1281.34 686.41C1281.34 694.01 1275.13 700.22 1267.53 700.22Z" fill="#4B369D"/>
<path d="M434.58 875.28C674.531 875.28 869.05 858.661 869.05 838.16C869.05 817.659 674.531 801.04 434.58 801.04C194.629 801.04 0.109985 817.659 0.109985 838.16C0.109985 858.661 194.629 875.28 434.58 875.28Z" fill="#E3E5FC"/>
<path d="M1179.98 504.01C1190.85 496.41 1202.49 486.01 1201.55 472.78C1185 472.38 1168.38 475.85 1153.37 482.83C1148.08 475.82 1156.66 466.83 1164.18 462.31C1180.48 452.5 1196.79 442.69 1213.09 432.89C1207.37 427.59 1199.63 424.52 1191.83 424.47C1185.77 409.8 1214.77 400.05 1212.16 384.39C1210.79 376.17 1200.47 372.09 1192.42 374.24C1184.37 376.39 1178.23 382.74 1172.53 388.82C1176.14 378.48 1182.8 369.54 1188.1 359.95C1193.4 350.36 1197.44 339.28 1195.1 328.58C1192.76 317.88 1181.92 308.54 1171.31 311.28C1163.98 313.17 1159.01 319.86 1155.17 326.39C1146.81 340.59 1140.85 356.19 1137.61 372.34C1135.67 381.98 1130.02 395 1120.69 391.89C1115.65 390.21 1113.54 384.41 1110.25 380.24C1101.04 368.55 1080.84 370.97 1071.39 382.46C1061.94 393.95 1061.68 410.81 1066.46 424.9C1069.41 433.6 1073.36 444.93 1066.08 450.53C1058.91 456.05 1047.47 449.74 1039.83 454.57C1030.59 460.41 1035.74 474.34 1036.84 485.22C1038.15 498.18 1031.94 510.54 1026.8 522.5C1021.66 534.47 1017.47 548.28 1022.65 560.22C1038.23 596.12 1158.3 519.16 1179.98 504.01Z" fill="#F44E4E"/>
<path d="M1201.86 590.31C1205.47 586.86 1209.18 582.51 1208.57 577.55C1207.93 572.37 1202.54 568.85 1197.34 568.5C1192.13 568.15 1187.1 570.2 1182.29 572.2C1179.37 568.29 1183.73 563.12 1187.79 560.42C1205.9 548.36 1228.94 537.67 1233.35 516.36C1233.72 514.58 1233.9 512.59 1232.88 511.08C1231.87 509.58 1229.95 509 1228.16 508.78C1217.31 507.41 1207.43 515.02 1196.65 516.85C1184.79 518.86 1172.83 513.73 1160.8 514.08C1151.11 514.36 1141.92 518.16 1132.99 521.9C1116.39 528.85 1099.36 536.08 1086.52 548.68C1067.23 567.61 1039.9 622.57 1080.49 633.26C1119.73 643.61 1174.39 616.53 1201.86 590.31Z" fill="#FDC510"/>
<path d="M1055.7 531.19C1055.25 531.19 1054.81 531.03 1054.45 530.71C1053.68 530.02 1053.61 528.83 1054.3 528.06L1148.37 422.81C1149.06 422.04 1150.25 421.97 1151.02 422.66C1151.79 423.35 1151.86 424.54 1151.17 425.31L1057.1 530.56C1056.73 530.98 1056.22 531.19 1055.7 531.19Z" fill="white"/>
<path d="M1107.26 473.51C1106.33 473.51 1105.53 472.82 1105.4 471.87L1097.76 412.16C1097.63 411.13 1098.36 410.2 1099.38 410.06C1100.36 409.94 1101.34 410.65 1101.48 411.68L1109.12 471.39C1109.25 472.42 1108.52 473.35 1107.5 473.49C1107.42 473.5 1107.34 473.51 1107.26 473.51Z" fill="white"/>
<path d="M1050.07 636.64C1049.47 636.64 1048.87 636.35 1048.51 635.8C1047.94 634.94 1048.17 633.77 1049.04 633.2L1155.5 562.58C1156.35 562.01 1157.52 562.24 1158.1 563.11C1158.67 563.97 1158.44 565.14 1157.57 565.71L1051.11 636.33C1050.78 636.54 1050.42 636.64 1050.07 636.64Z" fill="white"/>
<path d="M1113.15 595.73C1113 595.73 1112.84 595.71 1112.68 595.67C1111.68 595.41 1111.08 594.39 1111.34 593.38L1123.29 547.47C1123.55 546.47 1124.57 545.86 1125.57 546.13C1126.57 546.39 1127.17 547.41 1126.91 548.42L1114.96 594.33C1114.75 595.17 1113.98 595.73 1113.15 595.73Z" fill="white"/>
<path d="M565.01 601.35C552.06 591.71 539.1 582.07 526.15 572.43C487.86 543.94 448.97 514.86 420.69 476.42C409.51 461.22 399.98 444.35 396.34 425.84C395.59 422.03 395.17 417.81 397.23 414.52C400.74 408.94 408.89 409.33 415.35 410.65C434.73 414.62 453.63 420.94 471.51 429.41C460.74 389.57 413.63 370.44 395.68 333.28C392.77 327.25 390.67 320.35 392.52 313.92C393.71 309.79 396.45 306.23 399.72 303.43C410.82 293.91 427.35 293.04 441.27 297.49C455.19 301.95 467.13 310.95 478.77 319.79C462.73 308.12 450.11 291.81 442.83 273.35C439.82 265.7 437.76 256.86 441.31 249.45C447.32 236.88 465.84 236.13 477.97 242.98C501.38 256.19 508.86 285.64 515.54 311.68C522.22 337.72 533.71 367.03 559.37 375.04C562.45 376 565.8 376.7 568.08 378.98C572.52 383.43 570.27 391.31 565.92 395.85C561.57 400.39 555.61 403.17 551.41 407.85C542 418.34 544.17 434.76 549.24 447.91C554.31 461.06 561.81 473.96 561.37 488.05C560.82 505.57 565.55 526.41 566.46 543.91C566.88 551.86 552.53 554.19 554.41 561.92C556.29 569.65 556.57 578.51 551.74 584.84C546.91 591.17 535.53 592.37 531.56 585.48" fill="#5A54FF"/>
<path d="M589.01 579.65C588.36 579.65 587.73 579.31 587.39 578.71C547.04 508.72 470.07 375.6 466.42 370.63C465.86 370.06 465.72 369.16 466.12 368.43C466.62 367.52 467.76 367.2 468.66 367.69C469.27 368.02 470.68 368.8 590.63 576.84C591.15 577.73 590.84 578.88 589.94 579.4C589.65 579.57 589.32 579.65 589.01 579.65Z" fill="white"/>
<path d="M537.49 490.46C537.39 490.46 537.29 490.45 537.19 490.44L458 477.69C456.98 477.53 456.28 476.56 456.45 475.54C456.61 474.52 457.6 473.82 458.59 473.99L537.78 486.74C538.8 486.9 539.5 487.87 539.33 488.89C539.19 489.81 538.39 490.46 537.49 490.46Z" fill="white"/>
<path d="M96.77 765.01C102.59 761.43 105.36 753.58 103.08 747.14C99.36 736.62 89.73 740.16 82.89 734.64C74.83 728.13 84.58 717.9 84.04 710.22C83.45 701.77 75.84 693.6 73.55 685.44C68.29 666.66 89.64 680.68 95.73 678.49C98.28 677.57 99.95 675.01 100.53 672.37C102.02 665.62 99.18 660.17 102.88 653.78C106.45 647.61 111.72 644.83 110.2 636.45C109.34 631.71 106.41 627.36 106.49 622.54C106.51 621.16 106.9 619.61 108.11 618.93C109.02 618.42 110.17 618.56 111.16 618.9C114.45 620.05 116.61 623.12 119.25 625.39C121.9 627.66 126.15 629.06 128.69 626.67C130.38 625.08 130.55 622.51 130.89 620.22C131.51 616.08 134.42 613.2 138.02 615.6C141.95 618.21 140.45 628.48 139.86 632.16C138.92 638 137.5 644.06 139.23 649.72C142.1 659.08 149.94 648.59 153.36 645.49C156.16 642.95 160.84 641.43 163.53 644.08C168.88 649.36 160.28 656.41 159.14 661.42C158.6 663.8 159.3 666.65 161.41 667.88C167.6 671.47 172.84 665.08 173.78 674.62C174.42 681.16 168.51 687.4 172.18 693.93C175.39 699.64 186.07 702.07 181.84 710.09C179.25 715.01 168.09 714.79 168.68 721.79C169.06 726.36 175.93 728.43 175.93 733.01C175.93 736.46 171.92 738.5 168.47 738.67C165.02 738.85 161.4 738.04 158.22 739.39C154.61 740.92 152.53 745.35 153.64 749.1C154.61 752.37 157.65 755.34 156.7 758.61C155.55 762.54 150.1 762.69 146.06 762.05C129.54 759.47 111.84 757.74 96.77 765.01Z" fill="#F44E4E"/>
<path d="M127.98 764.19C126.94 764.19 126.11 763.35 126.11 762.32V688.57C126.11 687.53 126.95 686.7 127.98 686.7C129.01 686.7 129.85 687.54 129.85 688.57V762.32C129.86 763.35 129.02 764.19 127.98 764.19Z" fill="white"/>
<path d="M127.98 735.48C127.56 735.48 127.15 735.34 126.8 735.06C126 734.41 125.87 733.23 126.53 732.43L145.88 708.58C146.54 707.77 147.72 707.66 148.52 708.31C149.32 708.96 149.45 710.14 148.79 710.94L129.44 734.79C129.07 735.25 128.53 735.48 127.98 735.48Z" fill="white"/>
<path d="M127.98 715.34C127.55 715.34 127.12 715.2 126.77 714.9L103.72 695.5C102.93 694.83 102.83 693.65 103.49 692.86C104.16 692.07 105.34 691.97 106.13 692.63L129.18 712.03C129.97 712.7 130.07 713.88 129.41 714.67C129.04 715.12 128.52 715.34 127.98 715.34Z" fill="white"/>
<path d="M93.54 754.67C96.57 774.83 99.31 795.91 104.41 815.36C104.83 816.98 105.33 818.68 106.36 819.72C107.57 820.95 109.23 820.97 110.75 820.94C119.55 820.74 128.37 821.3 137.18 821.25C145.5 821.21 152.38 821.88 153.25 808.06C153.55 803.27 154.31 754.67 158.73 754.67C158.7 754.67 93.54 754.67 93.54 754.67Z" fill="#978CFF"/>
<path d="M152.77 766.72H99.49C92.86 766.72 87.44 761.3 87.44 754.67C87.44 748.04 92.86 742.62 99.49 742.62H152.77C159.4 742.62 164.82 748.04 164.82 754.67C164.82 761.29 159.4 766.72 152.77 766.72Z" fill="#A7ADFF"/>
<path d="M1137.15 743C1135.42 743.86 1132.72 744.35 1128.77 744.35C1022.52 744.34 916.3 744.31 810.03 744.6C756.81 744.74 703.58 744.36 650.36 744.48C623.48 744.54 596.6 744.73 569.73 745.18C556.29 745.41 542.85 745.7 529.41 746.07C519.53 746.34 507.54 748.18 498.13 744.07C494.92 742.67 491.89 740.79 490.61 737.34C490.4 736.52 490.35 735.7 490.45 734.86C491.49 727.7 502.46 715.68 506.77 709.75C515.62 697.58 524.67 684.34 540.54 680.12C549.77 677.67 559.51 677.71 569.09 677.77C737.18 677.77 905.28 678.7 1073.36 679.22C1083.9 679.25 1096.91 680.8 1104.24 688.85C1113.56 699.08 1121.76 710.15 1129.3 721.61C1133.85 728.46 1144.75 739.23 1137.15 743Z" fill="#978CFF"/>
<path d="M1064.84 686.41H561.37C536.64 686.41 516.41 666.18 516.41 641.45V284.21C516.41 259.48 536.64 239.25 561.37 239.25H1064.85C1089.58 239.25 1109.81 259.48 1109.81 284.21V641.45C1109.81 666.18 1089.57 686.41 1064.84 686.41Z" fill="#A7ADFF"/>
<path d="M577.04 258.68C551.4 258.68 530.42 279.66 530.42 305.3V549.67C682.16 458.61 830.57 362.38 973.88 258.68L577.04 258.68Z" fill="#EFF0FC"/>
<path d="M1046.61 258.68H973.88C830.56 362.37 682.16 458.61 530.42 549.67V602.49C530.42 628.13 551.4 649.11 577.04 649.11H1046.61C1072.25 649.11 1093.23 628.13 1093.23 602.49V305.3C1093.23 279.66 1072.25 258.68 1046.61 258.68Z" fill="#E3E5FC"/>
<path d="M844.91 666.01H802.38C801.62 666.01 801 665.39 801 664.63V663.71C801 662.95 801.62 662.33 802.38 662.33H844.91C845.67 662.33 846.29 662.95 846.29 663.71V664.63C846.29 665.39 845.67 666.01 844.91 666.01Z" fill="#E3E5FC"/>
<path d="M572.99 254.26C575.276 254.26 577.13 252.406 577.13 250.12C577.13 247.834 575.276 245.98 572.99 245.98C570.704 245.98 568.85 247.834 568.85 250.12C568.85 252.406 570.704 254.26 572.99 254.26Z" fill="#E3E5FC"/>
<path d="M590.82 254.26C593.106 254.26 594.96 252.406 594.96 250.12C594.96 247.834 593.106 245.98 590.82 245.98C588.534 245.98 586.68 247.834 586.68 250.12C586.68 252.406 588.534 254.26 590.82 254.26Z" fill="white"/>
<path d="M608.81 254.26C611.096 254.26 612.95 252.406 612.95 250.12C612.95 247.834 611.096 245.98 608.81 245.98C606.524 245.98 604.67 247.834 604.67 250.12C604.67 252.406 606.524 254.26 608.81 254.26Z" fill="#4B369D"/>
<path d="M563.39 708.34H546.75C544.56 708.34 542.77 706.55 542.77 704.36V701.73C542.77 699.54 544.56 697.75 546.75 697.75H563.39C565.58 697.75 567.37 699.54 567.37 701.73V704.36C567.37 706.55 565.58 708.34 563.39 708.34Z" fill="#E3E5FC"/>
<path d="M604.3 708.34H587.66C585.47 708.34 583.68 706.55 583.68 704.36V701.73C583.68 699.54 585.47 697.75 587.66 697.75H604.3C606.49 697.75 608.28 699.54 608.28 701.73V704.36C608.29 706.55 606.49 708.34 604.3 708.34Z" fill="#E3E5FC"/>
<path d="M645.22 708.34H628.58C626.39 708.34 624.6 706.55 624.6 704.36V701.73C624.6 699.54 626.39 697.75 628.58 697.75H645.22C647.41 697.75 649.2 699.54 649.2 701.73V704.36C649.2 706.55 647.41 708.34 645.22 708.34Z" fill="#E3E5FC"/>
<path d="M686.13 708.34H669.49C667.3 708.34 665.51 706.55 665.51 704.36V701.73C665.51 699.54 667.3 697.75 669.49 697.75H686.13C688.32 697.75 690.11 699.54 690.11 701.73V704.36C690.11 706.55 688.32 708.34 686.13 708.34Z" fill="#E3E5FC"/>
<path d="M727.04 708.34H710.4C708.21 708.34 706.42 706.55 706.42 704.36V701.73C706.42 699.54 708.21 697.75 710.4 697.75H727.04C729.23 697.75 731.02 699.54 731.02 701.73V704.36C731.03 706.55 729.23 708.34 727.04 708.34Z" fill="#E3E5FC"/>
<path d="M767.96 708.34H751.32C749.13 708.34 747.34 706.55 747.34 704.36V701.73C747.34 699.54 749.13 697.75 751.32 697.75H767.96C770.15 697.75 771.94 699.54 771.94 701.73V704.36C771.94 706.55 770.15 708.34 767.96 708.34Z" fill="#E3E5FC"/>
<path d="M808.87 708.34H792.23C790.04 708.34 788.25 706.55 788.25 704.36V701.73C788.25 699.54 790.04 697.75 792.23 697.75H808.87C811.06 697.75 812.85 699.54 812.85 701.73V704.36C812.85 706.55 811.06 708.34 808.87 708.34Z" fill="#E3E5FC"/>
<path d="M849.79 708.34H833.15C830.96 708.34 829.17 706.55 829.17 704.36V701.73C829.17 699.54 830.96 697.75 833.15 697.75H849.79C851.98 697.75 853.77 699.54 853.77 701.73V704.36C853.77 706.55 851.98 708.34 849.79 708.34Z" fill="#E3E5FC"/>
<path d="M890.7 708.34H874.06C871.87 708.34 870.08 706.55 870.08 704.36V701.73C870.08 699.54 871.87 697.75 874.06 697.75H890.7C892.89 697.75 894.68 699.54 894.68 701.73V704.36C894.68 706.55 892.89 708.34 890.7 708.34Z" fill="#E3E5FC"/>
<path d="M931.61 708.34H914.97C912.78 708.34 910.99 706.55 910.99 704.36V701.73C910.99 699.54 912.78 697.75 914.97 697.75H931.61C933.8 697.75 935.59 699.54 935.59 701.73V704.36C935.6 706.55 933.8 708.34 931.61 708.34Z" fill="#E3E5FC"/>
<path d="M972.53 708.34H955.89C953.7 708.34 951.91 706.55 951.91 704.36V701.73C951.91 699.54 953.7 697.75 955.89 697.75H972.53C974.72 697.75 976.51 699.54 976.51 701.73V704.36C976.51 706.55 974.72 708.34 972.53 708.34Z" fill="#E3E5FC"/>
<path d="M1013.44 708.34H996.8C994.61 708.34 992.82 706.55 992.82 704.36V701.73C992.82 699.54 994.61 697.75 996.8 697.75H1013.44C1015.63 697.75 1017.42 699.54 1017.42 701.73V704.36C1017.42 706.55 1015.63 708.34 1013.44 708.34Z" fill="#E3E5FC"/>
<path d="M1054.35 708.34H1037.71C1035.52 708.34 1033.73 706.55 1033.73 704.36V701.73C1033.73 699.54 1035.52 697.75 1037.71 697.75H1054.35C1056.54 697.75 1058.33 699.54 1058.33 701.73V704.36C1058.34 706.55 1056.55 708.34 1054.35 708.34Z" fill="#E3E5FC"/>
<path d="M299.87 450.5H139.78C111.96 450.5 89.2 427.74 89.2 399.92C89.2 372.1 111.96 349.34 139.78 349.34H299.87C327.69 349.34 350.45 372.1 350.45 399.92C350.45 427.73 327.69 450.5 299.87 450.5Z" fill="#E3E5FC"/>
<path d="M196.64 424.02C195.7 424.02 194.76 423.67 194.03 422.96L171.69 401.24L193.96 378.48C195.41 377 197.78 376.97 199.26 378.42C200.74 379.87 200.76 382.24 199.32 383.72L182.3 401.11L199.25 417.59C200.73 419.03 200.76 421.4 199.32 422.89C198.6 423.64 197.62 424.02 196.64 424.02Z" fill="#A7ADFF"/>
<path d="M239.13 424.02C238.19 424.02 237.24 423.67 236.51 422.95C235.03 421.5 235.01 419.13 236.45 417.65L253.47 400.26L236.52 383.78C235.04 382.34 235.01 379.97 236.45 378.48C237.89 376.99 240.26 376.96 241.75 378.4L264.09 400.12L241.82 422.88C241.08 423.64 240.11 424.02 239.13 424.02Z" fill="#A7ADFF"/>
<path d="M206.19 441.16C205.81 441.16 205.41 441.1 205.02 440.97C203.06 440.33 201.98 438.21 202.63 436.24L226.03 364.75C226.67 362.78 228.77 361.7 230.76 362.36C232.72 363 233.8 365.12 233.15 367.09L209.75 438.58C209.24 440.15 207.77 441.16 206.19 441.16Z" fill="#A7ADFF"/>
<path fill-rule="evenodd" clip-rule="evenodd" d="M1091.59 138.14H1162.32V67.41H1091.59V138.14ZM1158.57 134.39H1095.34V71.16H1158.57V134.39Z" fill="#4B369D"/>
<rect x="1092.14" y="134.945" width="94.7191" height="3.74996" transform="rotate(-45 1092.14 134.945)" fill="#4B369D"/>
<rect x="1092.14" y="70.6132" width="3.74996" height="94.7191" transform="rotate(-45 1092.14 70.6132)" fill="#4B369D"/>
<path fill-rule="evenodd" clip-rule="evenodd" d="M1158.57 138.14H1229.3V67.41H1158.57V138.14ZM1225.55 134.39H1162.32V71.16H1225.55V134.39Z" fill="#4B369D"/>
<rect x="1159.11" y="134.944" width="94.7191" height="3.74996" transform="rotate(-45 1159.11 134.944)" fill="#4B369D"/>
<rect x="1159.11" y="70.6123" width="3.74996" height="94.7191" transform="rotate(-45 1159.11 70.6123)" fill="#4B369D"/>
<path fill-rule="evenodd" clip-rule="evenodd" d="M957.64 807.92H1028.37V737.19H957.64V807.92ZM1024.62 804.17H961.39V740.94H1024.62V804.17Z" fill="#4B369D"/>
<rect x="958.172" y="804.723" width="94.7191" height="3.74996" transform="rotate(-45 958.172 804.723)" fill="#4B369D"/>
<rect x="958.179" y="740.398" width="3.74996" height="94.7191" transform="rotate(-45 958.179 740.398)" fill="#4B369D"/>
<path fill-rule="evenodd" clip-rule="evenodd" d="M957.64 740.94H1028.37V670.21H957.64V740.94ZM1024.62 737.19H961.39V673.96H1024.62V737.19Z" fill="#4B369D"/>
<rect x="958.171" y="737.744" width="94.7191" height="3.74996" transform="rotate(-45 958.171 737.744)" fill="#4B369D"/>
<rect x="958.178" y="673.419" width="3.74996" height="94.7191" transform="rotate(-45 958.178 673.419)" fill="#4B369D"/>
<path fill-rule="evenodd" clip-rule="evenodd" d="M957.64 673.96H1028.37V603.23H957.64V673.96ZM1024.62 670.22H961.39V606.99H1024.62V670.22Z" fill="#4B369D"/>
<rect x="958.177" y="670.772" width="94.7191" height="3.74996" transform="rotate(-45 958.177 670.772)" fill="#4B369D"/>
<rect x="958.177" y="606.44" width="3.74996" height="94.7191" transform="rotate(-45 958.177 606.44)" fill="#4B369D"/>
<path fill-rule="evenodd" clip-rule="evenodd" d="M957.64 606.98H1028.37V536.25H957.64V606.98ZM1024.62 603.24H961.39V540.01H1024.62V603.24Z" fill="#4B369D"/>
<rect x="958.176" y="603.793" width="94.7191" height="3.74996" transform="rotate(-45 958.176 603.793)" fill="#4B369D"/>
<rect x="958.176" y="539.461" width="3.74996" height="94.7191" transform="rotate(-45 958.176 539.461)" fill="#4B369D"/>
<path fill-rule="evenodd" clip-rule="evenodd" d="M957.64 540.01H1028.37V469.28H957.64V540.01ZM1024.62 536.26H961.39V473.03H1024.62V536.26Z" fill="#4B369D"/>
<rect x="958.175" y="536.814" width="94.7191" height="3.74996" transform="rotate(-45 958.175 536.814)" fill="#4B369D"/>
<rect x="958.175" y="472.482" width="3.74996" height="94.7191" transform="rotate(-45 958.175 472.482)" fill="#4B369D"/>
<path fill-rule="evenodd" clip-rule="evenodd" d="M957.64 473.03H1028.37V402.3H957.64V473.03ZM1024.62 469.28H961.39V406.05H1024.62V469.28Z" fill="#4B369D"/>
<rect x="958.174" y="469.835" width="94.7191" height="3.74996" transform="rotate(-45 958.174 469.835)" fill="#4B369D"/>
<rect x="958.174" y="405.503" width="3.74996" height="94.7191" transform="rotate(-45 958.174 405.503)" fill="#4B369D"/>
<path fill-rule="evenodd" clip-rule="evenodd" d="M957.64 406.05H1028.37V335.32H957.64V406.05ZM1024.62 402.3H961.39V339.07H1024.62V402.3Z" fill="#4B369D"/>
<rect x="958.174" y="402.856" width="94.7191" height="3.74996" transform="rotate(-45 958.174 402.856)" fill="#4B369D"/>
<rect x="958.181" y="338.531" width="3.74996" height="94.7191" transform="rotate(-45 958.181 338.531)" fill="#4B369D"/>
<path fill-rule="evenodd" clip-rule="evenodd" d="M957.64 339.07H1028.37V268.34H957.64V339.07ZM1024.62 335.32H961.39V272.09H1024.62V335.32Z" fill="#4B369D"/>
<rect x="958.18" y="335.884" width="94.7191" height="3.74996" transform="rotate(-45 958.18 335.884)" fill="#4B369D"/>
<rect x="958.18" y="271.552" width="3.74996" height="94.7191" transform="rotate(-45 958.18 271.552)" fill="#4B369D"/>
<path fill-rule="evenodd" clip-rule="evenodd" d="M957.64 272.09H1028.37V201.36H957.64V272.09ZM1024.62 268.35H961.39V205.12H1024.62V268.35Z" fill="#4B369D"/>
<rect x="958.179" y="268.905" width="94.7191" height="3.74996" transform="rotate(-45 958.179 268.905)" fill="#4B369D"/>
<rect x="958.179" y="204.573" width="3.74996" height="94.7191" transform="rotate(-45 958.179 204.573)" fill="#4B369D"/>
<path fill-rule="evenodd" clip-rule="evenodd" d="M957.64 205.12H1028.37V134.39H957.64V205.12ZM1024.62 201.37H961.39V138.14H1024.62V201.37Z" fill="#4B369D"/>
<rect x="958.178" y="201.926" width="94.7191" height="3.74996" transform="rotate(-45 958.178 201.926)" fill="#4B369D"/>
<rect x="958.178" y="137.594" width="3.74996" height="94.7191" transform="rotate(-45 958.178 137.594)" fill="#4B369D"/>
<path fill-rule="evenodd" clip-rule="evenodd" d="M957.64 138.14H1028.37V67.41H957.64V138.14ZM1024.62 134.39H961.39V71.16H1024.62V134.39Z" fill="#4B369D"/>
<rect x="958.177" y="134.947" width="94.7191" height="3.74996" transform="rotate(-45 958.177 134.947)" fill="#4B369D"/>
<rect x="958.177" y="70.615" width="3.74996" height="94.7191" transform="rotate(-45 958.177 70.615)" fill="#4B369D"/>
<path fill-rule="evenodd" clip-rule="evenodd" d="M957.64 71.1601H1028.37V0.430054H957.64V71.1601ZM1024.62 67.41H961.39V4.18005H1024.62V67.41Z" fill="#4B369D"/>
<rect x="958.176" y="67.9681" width="94.7191" height="3.74996" transform="rotate(-45 958.176 67.9681)" fill="#4B369D"/>
<rect x="958.183" y="3.64319" width="3.74996" height="94.7191" transform="rotate(-45 958.183 3.64319)" fill="#4B369D"/>
<path fill-rule="evenodd" clip-rule="evenodd" d="M1024.61 138.14H1095.34V67.41H1024.61V138.14ZM1091.6 134.39H1028.37V71.16H1091.6V134.39Z" fill="#4B369D"/>
<rect x="1025.16" y="134.946" width="94.7191" height="3.74996" transform="rotate(-45 1025.16 134.946)" fill="#4B369D"/>
<rect x="1025.16" y="70.6141" width="3.74996" height="94.7191" transform="rotate(-45 1025.16 70.6141)" fill="#4B369D"/>
<path fill-rule="evenodd" clip-rule="evenodd" d="M890.66 138.14H961.39V67.41H890.66V138.14ZM957.64 134.39H894.41V71.16H957.64V134.39Z" fill="#4B369D"/>
<rect x="891.205" y="134.941" width="94.7191" height="3.74996" transform="rotate(-45 891.205 134.941)" fill="#4B369D"/>
<rect x="891.198" y="70.616" width="3.74996" height="94.7191" transform="rotate(-45 891.198 70.616)" fill="#4B369D"/>
<path fill-rule="evenodd" clip-rule="evenodd" d="M823.68 138.14H894.41V67.41H823.68V138.14ZM890.66 134.39H827.43V71.16H890.66V134.39Z" fill="#4B369D"/>
<rect x="824.226" y="134.942" width="94.7191" height="3.74996" transform="rotate(-45 824.226 134.942)" fill="#4B369D"/>
<rect x="824.219" y="70.6168" width="3.74996" height="94.7191" transform="rotate(-45 824.219 70.6168)" fill="#4B369D"/>
<path fill-rule="evenodd" clip-rule="evenodd" d="M754.53 138.14H827.9V64.77L754.53 138.14ZM824.15 134.39H763.57L824.15 73.81V134.39Z" fill="#4B369D"/>
<rect x="757.717" y="134.941" width="94.7191" height="3.74996" transform="rotate(-45 757.717 134.941)" fill="#4B369D"/>
<rect x="757.18" y="169.75" width="3.75" height="236.17" fill="#4B369D"/>
<path d="M772.13 423.93H748.57C741.84 423.93 736.33 418.42 736.33 411.69V388.13C736.33 381.4 741.84 375.89 748.57 375.89H772.13C778.86 375.89 784.37 381.4 784.37 388.13V411.69C784.37 418.42 778.86 423.93 772.13 423.93Z" fill="#4B369D"/>
<path d="M752.11 475.05C736.94 475.05 728.45 462.08 726.98 449.98L730.7 449.53C731.98 460.04 739.23 471.31 752.11 471.31C752.16 471.31 752.21 471.31 752.25 471.31C762.35 471.24 773.17 463.8 773.18 452.83C773.18 439.64 759.79 434.15 759.66 434.09L758.48 433.62V416.21H762.23V431.14C765.93 432.96 776.93 439.48 776.93 452.82C776.93 466.45 764.13 474.97 752.28 475.05C752.22 475.05 752.16 475.05 752.11 475.05Z" fill="#4B369D"/>
<path d="M893.44 189.27H699.14C686.62 189.27 676.38 179.03 676.38 166.51C676.38 153.99 686.62 143.75 699.14 143.75H893.44C905.96 143.75 916.2 153.99 916.2 166.51C916.19 179.03 905.95 189.27 893.44 189.27Z" fill="#978CFF"/>
<path d="M1259.09 878.44H955.29C934.17 878.44 916.88 861.16 916.88 840.03V822.79C916.88 801.67 934.16 784.38 955.29 784.38H1259.09C1280.21 784.38 1297.5 801.66 1297.5 822.79V840.03C1297.49 861.15 1280.21 878.44 1259.09 878.44Z" fill="#A7ADFF"/>
<path d="M1212.37 822.23H1058.74C1054.1 822.23 1050.31 818.44 1050.31 813.8C1050.31 809.16 1054.1 805.37 1058.74 805.37H1212.37C1217.01 805.37 1220.8 809.16 1220.8 813.8C1220.8 818.44 1217.01 822.23 1212.37 822.23Z" fill="white"/>
<path d="M1140.64 855.02H1058.74C1054.1 855.02 1050.31 851.23 1050.31 846.59C1050.31 841.95 1054.1 838.16 1058.74 838.16H1140.64C1145.28 838.16 1149.07 841.95 1149.07 846.59C1149.07 851.22 1145.28 855.02 1140.64 855.02Z" fill="white"/>
<path d="M986.14 862.51C1001.92 862.51 1014.71 849.719 1014.71 833.94C1014.71 818.161 1001.92 805.37 986.14 805.37C970.361 805.37 957.57 818.161 957.57 833.94C957.57 849.719 970.361 862.51 986.14 862.51Z" fill="white"/>
<path d="M609.04 691.99C607.33 692.71 605.63 693.43 603.92 694.15C606.57 673.03 606.65 651.72 607.5 630.48C607.77 623.75 605.69 609.54 611.74 606.56C619.57 602.7 628.85 610.67 636.78 607.09C645.74 603.04 644.07 592.59 645.8 584.61C647.25 577.94 656.31 545.48 666.33 561.65C681.45 551.96 694.38 530.29 713.25 527.45C716.69 526.93 720.66 528.2 722.23 531.31C723.15 533.14 723.12 535.29 722.89 537.33C722.35 542.19 720.78 546.93 718.32 551.15C716.68 553.97 714.62 556.6 713.63 559.71C712.64 562.82 713.01 566.68 715.57 568.7C717.8 570.46 720.91 570.33 723.7 570.82C726.49 571.32 729.63 573.27 729.34 576.09C729.23 577.21 728.58 578.19 727.95 579.13C699.6 621.06 686.26 672.21 646.13 705.27C640.05 710.28 633.23 715 625.4 715.88C616.24 716.91 607.16 712.37 600.62 705.87C594.08 699.38 589.68 691.09 585.48 682.89" fill="#5A54FF"/>
<path d="M712.16 762.54C729.95 758.84 748.8 754.17 761.19 740.88C750.88 739.23 740.57 737.58 730.26 735.93C728.87 735.71 727.32 735.39 726.51 734.23C725.19 732.34 726.76 729.8 728.42 728.2C739.03 717.95 754.71 715.47 768.02 709.12C771.96 707.24 776.13 704.44 776.82 700.12C777.54 695.58 773.82 691.28 769.48 689.73C765.15 688.18 760.38 688.7 755.81 689.24C764.67 678.29 773.53 667.34 782.4 656.39C784.03 654.37 785.73 652.19 785.95 649.61C786.41 644.22 779.85 640.44 774.55 641.53C769.25 642.62 765.22 646.8 761.55 650.77C769.66 633.94 775.75 616.13 779.65 597.86C780.85 592.27 781.48 585.51 777.21 581.71C773.01 577.98 766.06 579.44 761.94 583.25C757.81 587.06 755.74 592.52 753.52 597.68C747.35 611.98 739 625.34 728.85 637.16C727.69 638.51 726.44 639.89 724.77 640.48C719.65 642.3 715.35 635.86 714.93 630.45C714.51 625.03 715.47 618.86 711.86 614.8C707.74 610.16 699.7 611.43 695.26 615.76C690.82 620.08 689.05 626.39 687.45 632.38C684.77 642.45 682.09 652.51 679.41 662.58C675.07 658.87 670.54 655.06 665.05 653.48C659.56 651.9 652.8 653.21 649.73 658.03C648.17 660.48 647.75 663.45 647.18 666.29C642.2 691.21 623.65 711.56 617.34 736.18C612.62 754.59 619.08 778.84 641.99 776.82C664.77 774.77 689.58 767.24 712.16 762.54Z" fill="#FDC510"/>
<path d="M628.6 770.09C628.11 770.09 627.62 769.9 627.25 769.51C626.54 768.76 626.56 767.58 627.31 766.86L734.54 664.08C735.29 663.36 736.47 663.39 737.19 664.13C737.9 664.88 737.88 666.06 737.13 666.78L629.9 769.56C629.54 769.91 629.07 770.09 628.6 770.09Z" fill="white"/>
<path d="M665.74 734.49C665.65 734.49 665.56 734.48 665.48 734.47C664.46 734.33 663.74 733.38 663.88 732.36L670.67 683.65C670.81 682.62 671.78 681.91 672.78 682.05C673.8 682.19 674.52 683.14 674.38 684.16L667.59 732.87C667.46 733.81 666.66 734.49 665.74 734.49Z" fill="white"/>
<path d="M694.84 706.59C693.94 706.59 693.15 705.94 693 705.03C692.83 704.01 693.52 703.04 694.53 702.87L735.52 695.91C736.54 695.76 737.51 696.42 737.68 697.45C737.85 698.47 737.16 699.44 736.15 699.61L695.16 706.57C695.06 706.58 694.95 706.59 694.84 706.59Z" fill="white"/>
<path d="M615.88 685.79C615.49 685.79 615.1 685.67 614.77 685.42C613.94 684.81 613.76 683.63 614.37 682.8L685.65 586.05C686.26 585.21 687.44 585.04 688.27 585.65C689.1 586.26 689.28 587.44 688.67 588.27L617.38 685.02C617.02 685.52 616.46 685.79 615.88 685.79Z" fill="white"/>
<path d="M661.42 623.97C661.27 623.97 661.11 623.95 660.95 623.91C659.95 623.65 659.35 622.63 659.61 621.62L670.72 578.99C670.98 577.99 672 577.39 673 577.65C674 577.91 674.6 578.93 674.34 579.94L663.23 622.57C663.01 623.42 662.26 623.97 661.42 623.97Z" fill="white"/>
<path d="M628.73 832.27H224.35C211.11 832.27 200.28 821.44 200.28 808.2V515.34C200.28 502.1 211.11 491.27 224.35 491.27H628.73C641.97 491.27 652.8 502.1 652.8 515.34V808.2C652.8 821.44 641.97 832.27 628.73 832.27Z" fill="#A7ADFF"/>
<path d="M616.98 803.83H234.15C221.4 803.83 210.97 793.4 210.97 780.65V529.27C210.97 516.52 221.4 506.09 234.15 506.09H616.99C629.74 506.09 640.17 516.52 640.17 529.27V780.65C640.16 793.4 629.73 803.83 616.98 803.83Z" fill="#E3E5FC"/>
<path d="M450.44 816.72H418.7C417.93 816.72 417.3 816.09 417.3 815.32C417.3 814.55 417.93 813.92 418.7 813.92H450.44C451.21 813.92 451.84 814.55 451.84 815.32C451.85 816.09 451.22 816.72 450.44 816.72Z" fill="#E3E5FC"/>
<path d="M224.43 502.73C226.175 502.73 227.59 501.315 227.59 499.57C227.59 497.825 226.175 496.41 224.43 496.41C222.685 496.41 221.27 497.825 221.27 499.57C221.27 501.315 222.685 502.73 224.43 502.73Z" fill="#E3E5FC"/>
<path d="M238.02 502.73C239.765 502.73 241.18 501.315 241.18 499.57C241.18 497.825 239.765 496.41 238.02 496.41C236.275 496.41 234.86 497.825 234.86 499.57C234.86 501.315 236.275 502.73 238.02 502.73Z" fill="white"/>
<path d="M251.74 502.73C253.485 502.73 254.9 501.315 254.9 499.57C254.9 497.825 253.485 496.41 251.74 496.41C249.995 496.41 248.58 497.825 248.58 499.57C248.58 501.315 249.995 502.73 251.74 502.73Z" fill="#4B369D"/>
<path d="M444.44 674.77H252.34C250.28 674.77 248.59 673.08 248.59 671.02C248.59 668.96 250.28 667.27 252.34 667.27H444.44C446.5 667.27 448.19 668.96 448.19 671.02C448.19 673.08 446.51 674.77 444.44 674.77Z" fill="white"/>
<path d="M444.44 691.96H252.34C250.28 691.96 248.59 690.27 248.59 688.21C248.59 686.15 250.28 684.46 252.34 684.46H444.44C446.5 684.46 448.19 686.15 448.19 688.21C448.19 690.27 446.51 691.96 444.44 691.96Z" fill="white"/>
<path d="M444.44 709.15H252.34C250.28 709.15 248.59 707.46 248.59 705.4C248.59 703.34 250.28 701.65 252.34 701.65H444.44C446.5 701.65 448.19 703.34 448.19 705.4C448.19 707.46 446.51 709.15 444.44 709.15Z" fill="white"/>
<path d="M444.44 728.53H252.34C250.28 728.53 248.59 726.84 248.59 724.78C248.59 722.72 250.28 721.03 252.34 721.03H444.44C446.5 721.03 448.19 722.72 448.19 724.78C448.19 726.84 446.51 728.53 444.44 728.53Z" fill="white"/>
<path d="M444.44 745.72H252.34C250.28 745.72 248.59 744.03 248.59 741.97C248.59 739.91 250.28 738.22 252.34 738.22H444.44C446.5 738.22 448.19 739.91 448.19 741.97C448.19 744.03 446.51 745.72 444.44 745.72Z" fill="white"/>
<path d="M444.44 762.91H252.34C250.28 762.91 248.59 761.22 248.59 759.16C248.59 757.1 250.28 755.41 252.34 755.41H444.44C446.5 755.41 448.19 757.1 448.19 759.16C448.19 761.22 446.51 762.91 444.44 762.91Z" fill="white"/>
<path d="M293.55 634.14H403.23C427.96 634.14 448.19 613.91 448.19 589.18V581.14C448.19 556.41 427.96 536.18 403.23 536.18H293.55C268.82 536.18 248.59 556.41 248.59 581.14V589.18C248.58 613.91 268.82 634.14 293.55 634.14Z" fill="white"/>
<path d="M535.38 707.7H557.46C582.19 707.7 602.42 687.47 602.42 662.74V581.14C602.42 556.41 582.19 536.18 557.46 536.18H535.38C510.65 536.18 490.42 556.41 490.42 581.14V662.74C490.41 687.47 510.65 707.7 535.38 707.7Z" fill="white"/>
<path d="M510.64 758.43H582.21C593.33 758.43 602.43 749.33 602.43 738.21C602.43 727.09 593.33 717.99 582.21 717.99H510.64C499.52 717.99 490.42 727.09 490.42 738.21C490.41 749.34 499.51 758.43 510.64 758.43Z" fill="white"/>
</g>
<defs>
<clipPath id="clip0_16_1336">
<rect width="1298" height="879" fill="white"/>
</clipPath>
</defs>
</svg>
