<svg width="1444" height="899" viewBox="0 0 1444 899" fill="none" xmlns="http://www.w3.org/2000/svg">
<g clip-path="url(#clip0_16_1562)">
<rect width="1444" height="899" fill="white"/>
<path d="M979.27 877.86C978.5 876.12 978.01 873.79 979.46 872.56C980.51 871.67 982.07 871.83 983.4 872.16C987.71 873.21 991.72 875.45 994.86 878.58C993.7 873.5 993.74 868.14 994.98 863.08C995.31 861.74 995.94 860.2 997.3 859.93C999.05 859.57 1000.29 861.54 1000.98 863.19C1002.73 867.4 1004.48 871.6 1006.23 875.81C1008.32 870.91 1011.28 866.39 1014.94 862.53C1015.52 861.92 1016.19 861.28 1017.04 861.21C1019.14 861.02 1019.78 863.99 1019.57 866.08C1018.64 875.27 1017.95 894.67 1007.01 896.45C996.1 898.21 983.28 886.93 979.27 877.86Z" fill="#5A54FF"/>
<path d="M781.54 882.48C782.23 881.8 783.34 881.81 784.3 881.99C788.46 882.75 792.09 885.94 793.38 889.98C793.64 886.14 794.52 882.35 795.98 878.79C796.59 877.31 797.35 875.8 798.65 874.87C799.95 873.94 801.94 873.79 803.06 874.94C803.92 875.82 804.04 877.17 804.05 878.4C804.07 881.8 803.58 885.2 802.58 888.45C808.22 881.79 814.56 874.7 823.15 873.13C824.24 872.93 825.48 872.86 826.33 873.57C827.79 874.77 827.07 877.13 826.09 878.74C821.29 886.69 810.47 896.04 801.08 897.93C795.64 899.02 775.34 888.54 781.54 882.48Z" fill="#F44E4E"/>
<path d="M673.61 800.61C938.966 800.61 1154.08 780.987 1154.08 756.78C1154.08 732.573 938.966 712.95 673.61 712.95C408.254 712.95 193.14 732.573 193.14 756.78C193.14 780.987 408.254 800.61 673.61 800.61Z" fill="#E3E5FC"/>
<path d="M771.02 676.51C777.92 676.02 783.15 668.91 788.5 663.4C793.85 657.89 801.88 653.69 807.34 659.05C814.18 665.77 811 681.79 818.1 688.06C836.72 687.44 874.4 675.49 885.98 690.29C915.18 727.59 910.15 703.49 927.53 711.98C928.85 712.63 930.28 713.4 930.94 714.98C932.64 719.02 928.16 722.65 924.62 723.63C889.59 733.33 853.87 728.66 818.64 725.87C801.27 724.49 784.38 721.25 767.1 723.63C754.51 725.37 740.51 731.01 728.61 723.28C714.67 714.22 704.43 684.67 713.01 666.39C730.43 629.3 752.59 677.82 771.02 676.51Z" fill="#FDC510"/>
<path d="M775.51 714.27C775.15 714.27 774.79 714.17 774.47 713.95C773.61 713.38 773.38 712.21 773.95 711.35L797.07 676.8C797.64 675.94 798.8 675.71 799.67 676.28C800.53 676.85 800.76 678.02 800.19 678.88L777.07 713.43C776.71 713.98 776.12 714.27 775.51 714.27Z" fill="white"/>
<path d="M839.21 746.94C838.9 746.94 838.58 746.86 838.29 746.7C837.39 746.19 837.07 745.05 837.58 744.15L865.06 695.38C865.57 694.48 866.72 694.16 867.61 694.67C868.51 695.18 868.83 696.32 868.32 697.22L840.84 745.99C840.5 746.6 839.87 746.94 839.21 746.94Z" fill="white"/>
<path d="M857.62 714.27C857.02 714.27 856.43 713.98 856.07 713.45L845.15 697.35C844.57 696.49 844.8 695.33 845.65 694.75C846.5 694.17 847.67 694.39 848.25 695.25L859.17 711.35C859.75 712.21 859.52 713.37 858.67 713.95C858.35 714.17 857.99 714.27 857.62 714.27Z" fill="white"/>
<path d="M1056.43 822.97C1056.94 825.38 1059.8 827.99 1061.45 826.16C1061.93 825.62 1062.08 824.87 1062.18 824.16C1063.41 815.78 1062.8 805.91 1069.28 800.46C1071.64 804.88 1073.99 809.3 1076.35 813.71C1079.68 801.4 1083.56 788.25 1093.51 780.28C1093.7 786 1093.9 791.71 1094.09 797.43C1094.13 798.49 1094.23 799.69 1095.04 800.36C1096.58 801.63 1098.78 799.9 1099.86 798.22C1103.83 792.07 1105.9 784.42 1111.64 779.87C1112.7 779.03 1114.17 778.31 1115.34 778.97C1116.06 779.38 1116.43 780.21 1116.64 781.01C1118.11 786.61 1113.89 791.89 1110.97 796.89C1107.6 802.64 1105.72 809.26 1105.56 815.93C1109.1 813.02 1112.64 810.1 1116.18 807.19C1118.3 805.44 1121.87 803.86 1123.35 806.17C1124.22 807.52 1123.59 809.31 1122.77 810.68C1120.83 813.93 1117.94 816.52 1115.84 819.66C1113.74 822.81 1112.47 826.99 1114.21 830.36C1118.03 826.81 1123.23 824.78 1128.44 824.81C1120.43 829.43 1119.61 840.68 1113.9 847.95C1104.09 860.44 1074.76 866.91 1061 857.59C1054.38 853.11 1051.09 845.11 1049.26 837.61C1048.1 832.83 1047.12 827.32 1049 822.58C1051.67 815.89 1054.98 816.11 1056.43 822.97Z" fill="#E3E5FC"/>
<path d="M59.2199 639.74C55.7399 634.66 52.3399 629.16 52.1299 623.09C51.3499 600.26 92.1599 592.65 92.4799 569.8C92.6499 557.31 80.3399 548.62 71.2399 539.67C62.1399 530.72 56.3799 514.09 67.2599 507.2C70.0799 505.41 73.5199 504.75 76.4899 503.21C86.2999 498.12 88.2699 484.92 84.6199 474.82C80.9699 464.72 73.2899 456.52 67.5199 447.37C44.9999 411.63 53.6999 366.16 63.0999 325.4C64.8599 317.78 69.9199 308.06 77.7999 310.06C82.6199 311.28 84.8899 316.44 86.4799 320.97C93.2799 340.29 100.08 359.6 106.88 378.92C109.78 387.15 114.39 396.78 123.4 397.76C141.35 399.71 144 367.43 161.91 365.21C173.61 375 174.48 391.97 172.97 406.78C171.46 421.59 168.64 437.39 175.64 450.66C182.64 463.93 204.78 470.31 213.47 457.98C225.12 474.85 205.6 499.32 215.74 517.07C222.49 528.89 239.47 532.02 247.49 543.09C254.26 552.44 252.98 564.89 251.78 576.21C246.06 630.51 243.46 700.78 176.34 717.83C127.56 730.22 82.7899 674.1 59.2199 639.74Z" fill="#5A54FF"/>
<path d="M20.73 680.89C18.63 678.72 16.48 676.26 16.19 673.25C15.51 666.19 24.43 662.78 31.36 661.31C38.29 659.84 46.9799 654.98 44.79 648.23C44.22 646.47 42.95 645.04 41.6399 643.74C34.9599 637.04 26.63 632 20.69 624.63C14.76 617.25 11.79 606.08 17.39 598.46C19 596.27 21.25 594.44 22.12 591.86C23.73 587.04 19.93 582.29 16.79 578.3C8.46995 567.73 -13.69 520.71 12.64 516.85C21.19 515.6 29.42 521.13 34.7 527.96C39.9799 534.8 43.1899 542.99 47.8699 550.24C65.24 577.17 96.2299 572.79 108.05 606.21C109.25 609.6 110.92 613.45 114.39 614.39C122.39 616.55 127.68 598.36 133.95 610.69C146.59 635.54 159.23 669.75 148.2 697.21C141.55 713.75 126.08 734.1 105.71 729.84C74.33 723.28 42.7299 703.68 20.73 680.89Z" fill="#F44E4E"/>
<path d="M108.54 706.63C107.86 706.63 107.2 706.25 106.87 705.6L50.4499 593.99C49.9799 593.07 50.3499 591.94 51.2799 591.47C52.1899 591 53.3299 591.37 53.7999 592.3L110.22 703.91C110.69 704.83 110.32 705.96 109.39 706.43C109.12 706.57 108.83 706.63 108.54 706.63Z" fill="white"/>
<path d="M182.01 724.49C181.14 724.49 180.36 723.88 180.18 722.99L124.2 446.86C124 445.85 124.65 444.86 125.66 444.65C126.67 444.45 127.67 445.1 127.87 446.12L183.85 722.25C184.05 723.26 183.4 724.25 182.39 724.46C182.25 724.47 182.13 724.49 182.01 724.49Z" fill="white"/>
<path d="M144.71 532.7C144.45 532.7 144.19 532.65 143.94 532.54C143 532.12 142.58 531 143 530.06L166.81 477.17C167.24 476.22 168.35 475.81 169.29 476.23C170.23 476.65 170.65 477.77 170.23 478.71L146.42 531.6C146.1 532.29 145.42 532.7 144.71 532.7Z" fill="white"/>
<path d="M166.04 632.61C165.78 632.61 165.52 632.56 165.27 632.45C164.33 632.03 163.91 630.91 164.33 629.97L188.14 577.08C188.56 576.13 189.68 575.72 190.62 576.14C191.56 576.56 191.98 577.68 191.56 578.62L167.75 631.51C167.44 632.2 166.75 632.61 166.04 632.61Z" fill="white"/>
<path d="M150.78 586.51C150.51 586.51 150.24 586.45 149.98 586.33L98.51 562.03C97.58 561.59 97.17 560.47 97.62 559.54C98.06 558.6 99.18 558.2 100.12 558.65L151.59 582.95C152.52 583.39 152.93 584.51 152.48 585.44C152.16 586.12 151.48 586.51 150.78 586.51Z" fill="white"/>
<path d="M64.5599 681.28C89.6799 671.51 117.3 684.49 141.47 696.41C165.64 708.33 194.76 719.45 218.45 706.57C247.74 690.64 252.29 684.23 284.11 703.15C304.74 715.4 364.8 734 387.85 738.42C405.05 741.71 555.13 770.98 427.29 767.14C390.98 766.05 351.38 762.64 316.21 761.5C239.97 759.04 163.49 750.52 87.1299 754.04C69.9999 754.85 30.0099 772 15.4899 758.43C-4.7401 739.5 46.8899 688.16 64.5599 681.28Z" fill="#FDC510"/>
<path d="M91.54 673C91.42 673 91.29 672.99 91.17 672.96C90.15 672.76 89.49 671.77 89.7 670.76L97.48 631.89C97.68 630.87 98.7 630.22 99.68 630.42C100.7 630.62 101.36 631.61 101.15 632.62L93.37 671.49C93.2 672.39 92.42 673 91.54 673Z" fill="white"/>
<path d="M282.15 769.35C281.54 769.35 280.94 769.05 280.58 768.5L251.16 723.69C250.59 722.82 250.83 721.66 251.7 721.1C252.56 720.53 253.72 720.77 254.29 721.64L283.71 766.45C284.28 767.32 284.04 768.48 283.17 769.04C282.86 769.25 282.51 769.35 282.15 769.35Z" fill="white"/>
<path d="M114.79 762.35C114.28 762.35 113.78 762.14 113.41 761.74L78.9499 723.93C78.2499 723.17 78.3099 721.98 79.0699 721.28C79.8299 720.58 81.0199 720.64 81.7199 721.4L116.18 759.21C116.88 759.97 116.82 761.16 116.06 761.86C115.69 762.19 115.24 762.35 114.79 762.35Z" fill="white"/>
<path d="M99.3199 745.37C98.9299 745.37 98.5399 745.25 98.1999 745C97.3699 744.38 97.1899 743.21 97.8099 742.38L113.28 721.54C113.9 720.71 115.08 720.54 115.9 721.15C116.73 721.77 116.91 722.94 116.29 723.77L100.82 744.61C100.45 745.11 99.8899 745.37 99.3199 745.37Z" fill="white"/>
<path d="M267.44 746.94C267.16 746.94 266.88 746.88 266.62 746.75L232.62 730.17C231.69 729.72 231.3 728.6 231.76 727.67C232.22 726.74 233.35 726.36 234.26 726.81L268.26 743.39C269.19 743.84 269.58 744.96 269.12 745.89C268.8 746.56 268.14 746.94 267.44 746.94Z" fill="white"/>
<path d="M259.58 734.95C259.36 734.95 259.13 734.91 258.91 734.83C257.94 734.46 257.46 733.38 257.82 732.41L265.69 711.73C266.06 710.76 267.15 710.28 268.11 710.65C269.08 711.02 269.56 712.1 269.2 713.07L261.33 733.75C261.04 734.5 260.33 734.95 259.58 734.95Z" fill="white"/>
<path d="M1249.06 630.43C1248.59 626.72 1248.52 622.46 1251.2 619.85C1257.59 613.64 1269.12 624.44 1276.74 619.83C1280.86 617.34 1281.47 611.53 1280.32 606.86C1279.17 602.19 1276.75 597.8 1276.45 593.01C1275.63 579.86 1289.82 571.64 1298.06 561.35C1305.76 551.73 1309.28 538.24 1319.87 531.94C1322.94 530.11 1326.83 529.05 1330.08 530.53C1336.02 533.23 1335.81 541.64 1334.49 548.03C1331.01 564.83 1326.84 584.1 1337.29 597.7C1341.3 602.92 1347.55 607.66 1347.1 614.24C1346.62 621.22 1338.77 625.33 1336.3 631.87C1333.28 639.88 1339.08 649.01 1336.79 657.26C1334.4 665.89 1324.44 669.91 1319.4 677.32C1317.05 680.78 1315.8 684.96 1313.1 688.15C1301.26 702.13 1279.65 691.48 1270.68 680.43C1259.06 666.13 1251.39 648.74 1249.06 630.43Z" fill="#A7ADFF"/>
<path d="M1028.43 616.21C1053.46 604.9 1081.24 620.58 1105.56 634.98C1129.88 649.38 1159.14 662.87 1182.7 647.86C1211.84 629.29 1216.32 621.74 1248.36 644.51C1269.14 659.25 1329.44 681.97 1352.55 687.45C1369.8 691.54 1520.29 727.87 1392.33 721.93C1355.98 720.24 1316.32 715.77 1281.12 714.04C1204.8 710.29 1128.18 699.36 1051.81 702.71C1034.67 703.48 994.85 723.38 980.17 707.13C959.72 684.48 1010.82 624.17 1028.43 616.21Z" fill="#E3E5FC"/>
<path d="M1263.18 599.58C1266.31 594.24 1268.55 586.21 1262.89 583.19C1260.57 581.95 1257.72 582.17 1255.06 582.43C1246.25 583.29 1237.45 584.14 1228.64 585C1225.84 574.33 1232.22 563.32 1240.35 555.38C1248.48 547.43 1258.53 541.24 1265.86 532.65C1273.19 524.06 1277.38 511.66 1271.64 502.07C1265.9 492.48 1247.61 491.17 1243.51 501.47C1251.82 482.19 1260.14 462.91 1268.45 443.64C1270.56 438.75 1272.02 431.92 1267.14 429.28C1264.69 427.96 1261.62 428.42 1258.88 429.09C1245.6 432.34 1233.46 439.56 1224.68 449.42C1234.99 432.41 1220.72 411.42 1204.67 398.89C1190.1 387.52 1167.73 378.73 1153.2 390.16C1135.63 403.99 1147.85 430.42 1145.19 451.74C1144.67 455.93 1143.31 460.34 1139.8 463C1134.2 467.26 1125.72 465.38 1119.05 467.95C1106.37 472.84 1106.61 489.46 1109.01 502.07C1115.71 537.18 1122.4 572.29 1129.1 607.39C1117.54 598.67 1105.99 589.95 1094.43 581.23C1089.04 577.17 1082.11 572.86 1075.73 575.39C1072.05 576.85 1069.69 580.34 1068.68 583.96C1064.3 599.76 1081.27 612.8 1089.63 627.14C1106.85 656.71 1085.42 746.99 1149.02 711.4C1196.02 685.12 1237 644.26 1263.18 599.58Z" fill="#5A54FF"/>
<path d="M1288.86 679.72C1288.7 679.72 1288.55 679.7 1288.38 679.66C1287.38 679.4 1286.78 678.37 1287.04 677.37L1307.02 601.27C1307.28 600.27 1308.29 599.67 1309.31 599.93C1310.31 600.19 1310.91 601.22 1310.65 602.22L1290.67 678.32C1290.45 679.16 1289.69 679.72 1288.86 679.72Z" fill="white"/>
<path d="M1297.97 641.67C1297.27 641.67 1296.59 641.27 1296.27 640.59C1295.83 639.65 1296.24 638.54 1297.17 638.1L1320.53 627.15C1321.46 626.71 1322.58 627.11 1323.02 628.05C1323.46 628.99 1323.05 630.1 1322.12 630.54L1298.76 641.49C1298.51 641.61 1298.24 641.67 1297.97 641.67Z" fill="white"/>
<path d="M1291.58 669.33C1290.91 669.33 1290.25 668.96 1289.92 668.32L1272.66 635.18C1272.18 634.26 1272.54 633.13 1273.46 632.65C1274.36 632.17 1275.51 632.53 1275.98 633.45L1293.24 666.59C1293.72 667.51 1293.36 668.64 1292.44 669.12C1292.17 669.27 1291.88 669.33 1291.58 669.33Z" fill="white"/>
<path d="M1148.82 693.72C1148.67 693.72 1148.52 693.7 1148.37 693.67C1147.36 693.42 1146.75 692.41 1147 691.4L1199.6 477.49C1199.85 476.49 1200.86 475.86 1201.87 476.12C1202.88 476.37 1203.49 477.38 1203.24 478.39L1150.64 692.3C1150.43 693.15 1149.67 693.72 1148.82 693.72Z" fill="white"/>
<path d="M1183.16 554.07C1182.57 554.07 1181.99 553.79 1181.63 553.27C1181.03 552.42 1181.24 551.26 1182.09 550.66L1229.08 517.76C1229.93 517.17 1231.1 517.37 1231.69 518.22C1232.29 519.07 1232.08 520.23 1231.23 520.83L1184.24 553.73C1183.91 553.96 1183.54 554.07 1183.16 554.07Z" fill="white"/>
<path d="M1157.37 669.33C1156.8 669.33 1156.24 669.07 1155.87 668.57C1155.25 667.74 1155.43 666.57 1156.25 665.95L1215.29 622.02C1216.11 621.41 1217.29 621.57 1217.91 622.41C1218.53 623.24 1218.35 624.41 1217.53 625.03L1158.49 668.96C1158.15 669.21 1157.76 669.33 1157.37 669.33Z" fill="white"/>
<path d="M1240.25 673.4C1232.56 670.81 1223.27 669.88 1216.27 673.58C1205.92 679.04 1204.36 692.34 1193.31 696.77C1179.54 702.29 1163.91 689.69 1148.82 691.85C1135.91 693.7 1127.6 705.79 1114.57 706.86C1108.36 707.37 1102.35 705.23 1096.46 703.55C1090.56 701.87 1083.87 700.66 1078.25 702.9C1072.63 705.14 1069.9 712.26 1074.72 715.52C1076.88 716.98 1079.84 717.27 1082.63 717.49C1130.4 721.29 1178.72 722.54 1226.67 720.52C1240.32 719.94 1263.69 720.47 1269.15 706.91C1274.71 693.13 1253.76 677.95 1240.25 673.4Z" fill="#F44E4E"/>
<path d="M1226.68 722.39C1226.51 722.39 1226.34 722.37 1226.16 722.32C1225.16 722.04 1224.59 721 1224.88 720L1233.35 690.42C1233.63 689.43 1234.64 688.84 1235.67 689.14C1236.67 689.42 1237.24 690.46 1236.95 691.46L1228.48 721.04C1228.24 721.85 1227.49 722.39 1226.68 722.39Z" fill="white"/>
<path d="M1231.31 706.22C1230.66 706.22 1230.03 705.88 1229.69 705.28L1225.06 697.23C1224.54 696.33 1224.86 695.19 1225.75 694.67C1226.64 694.16 1227.79 694.46 1228.31 695.36L1232.94 703.41C1233.46 704.31 1233.14 705.45 1232.25 705.97C1231.95 706.14 1231.62 706.22 1231.31 706.22Z" fill="white"/>
<path d="M809.03 728.49H543.06C534.95 728.49 528.31 721.85 528.31 713.74V711.06C528.31 702.95 534.95 696.31 543.06 696.31H809.03C817.14 696.31 823.78 702.95 823.78 711.06V713.74C823.78 721.85 817.14 728.49 809.03 728.49Z" fill="#978CFF"/>
<path d="M726.42 728.49H625.67C619.34 728.49 614.16 723.31 614.16 716.98V597.21C614.16 590.88 619.34 585.7 625.67 585.7H726.42C732.75 585.7 737.93 590.88 737.93 597.21V716.99C737.92 723.31 732.75 728.49 726.42 728.49Z" fill="#978CFF"/>
<path d="M1138.83 628.85H213.25C195.82 628.85 181.56 614.59 181.56 597.16V32.55C181.56 15.12 195.82 0.859985 213.25 0.859985H1138.82C1156.25 0.859985 1170.51 15.12 1170.51 32.55V597.16C1170.52 614.59 1156.26 628.85 1138.83 628.85Z" fill="#A7ADFF"/>
<path d="M228.8 15.47C211.69 15.47 197.69 29.47 197.69 46.58V247.52C295.62 168.9 394.96 91.69 495.29 15.47L228.8 15.47Z" fill="#EFF0FC"/>
<path d="M1119.48 15.47H1030.61H495.29C394.96 91.69 295.62 168.91 197.69 247.52V458.49V534.45C197.69 551.56 211.69 565.56 228.8 565.56H1119.48C1136.59 565.56 1150.59 551.56 1150.59 534.45V46.58C1150.59 29.47 1136.59 15.47 1119.48 15.47Z" fill="#E3E5FC"/>
<path d="M674.14 601.75C678.89 601.75 682.74 597.9 682.74 593.15C682.74 588.4 678.89 584.55 674.14 584.55C669.39 584.55 665.54 588.4 665.54 593.15C665.54 597.9 669.39 601.75 674.14 601.75Z" fill="#4B369D"/>
<path d="M1013.12 352.42C1011.8 352.42 1010.48 351.96 1009.41 351.02L735 110.01C732.67 107.96 732.44 104.41 734.49 102.08C736.54 99.75 740.09 99.51 742.42 101.57L1016.83 342.59C1019.16 344.64 1019.39 348.19 1017.34 350.52C1016.24 351.78 1014.68 352.42 1013.12 352.42Z" fill="#978CFF"/>
<path d="M700.48 150.69C698.09 150.69 695.71 149.78 693.88 147.97C690.21 144.32 690.19 138.39 693.83 134.72L769.5 58.5C773.15 54.83 779.07 54.81 782.75 58.45C786.42 62.1 786.44 68.03 782.8 71.7L707.13 147.92C705.29 149.77 702.89 150.69 700.48 150.69Z" fill="#978CFF"/>
<rect x="912.516" y="327.699" width="3.74994" height="532.671" transform="rotate(-4.19788 912.516 327.699)" fill="#4B369D"/>
<rect x="999.935" y="327.704" width="3.74994" height="532.671" transform="rotate(-4.19788 999.935 327.704)" fill="#4B369D"/>
<rect x="918.29" y="378.33" width="87.42" height="3.75" fill="#4B369D"/>
<rect x="922.79" y="424.69" width="87.42" height="3.75" fill="#4B369D"/>
<rect x="927.3" y="471.06" width="87.42" height="3.75" fill="#4B369D"/>
<rect x="927.3" y="517.43" width="87.42" height="3.75" fill="#4B369D"/>
<rect x="931.8" y="563.79" width="87.42" height="3.75" fill="#4B369D"/>
<rect x="936.3" y="610.16" width="87.42" height="3.75" fill="#4B369D"/>
<rect x="936.3" y="656.52" width="87.42" height="3.75" fill="#4B369D"/>
<rect x="940.8" y="702.89" width="87.42" height="3.75" fill="#4B369D"/>
<path d="M1011.82 276.37L1013.21 302.24L1033.46 310.05C1033.46 310.05 1021.29 292.24 1023.35 276.38C1025.4 260.5 1011.82 276.37 1011.82 276.37Z" fill="#D4A79A"/>
<path d="M993.73 223.44C993.73 223.44 989.32 229.28 993.62 247.2C997.92 265.12 1004.9 280.41 1010.3 279.34C1025.23 276.36 1030.47 265.81 1035.64 256.75C1041.99 245.65 1029.39 218.56 1029.39 218.56L1017.48 212.14L993.73 223.44Z" fill="#EAC2AB"/>
<path d="M996.76 209.45C987.26 218.48 984.1 232.36 983.71 245.46C983.51 252.09 983.91 258.8 985.72 265.18C987.73 272.3 991.43 278.8 994.49 285.53C995.02 286.7 995.54 287.93 995.43 289.21C995.29 290.73 994.29 292.01 993.43 293.27C987.73 301.68 987.76 313.59 993.51 321.97C995.53 324.91 998.37 327.53 1001.87 328.18C1006.23 329 1012.39 327.53 1013.86 331.72C1014.59 333.81 1013.42 336.19 1014.11 338.29C1015.13 341.38 1019.31 341.9 1022.51 341.28C1025.71 340.66 1029.25 339.54 1032.03 341.24C1035.68 343.48 1035.8 349.37 1039.6 351.34C1041.03 352.08 1042.71 352.09 1044.33 352.09C1050.97 352.08 1053.95 357.12 1060.59 357.11C1063.56 357.1 1070.39 351.98 1072.83 350.29C1075.27 348.61 1076.34 344.65 1074.14 342.67C1072.01 340.75 1068.11 341.61 1066.4 339.31C1063.67 335.61 1070.5 331 1069.37 326.54C1068.99 325.03 1067.71 323.84 1067.43 322.31C1067.1 320.49 1068.25 318.77 1068.78 316.99C1070.52 311.19 1065.64 305.64 1060.93 301.84C1056.22 298.04 1050.74 293.65 1050.76 287.6C1050.78 280.45 1058.62 275.39 1059.39 268.27C1060.21 260.67 1052.68 254.1 1053.32 246.49C1053.71 241.85 1057.1 237.89 1057.59 233.26C1058.16 227.92 1054.82 223.04 1051.64 218.71C1049.26 215.47 1046.82 212.17 1043.52 209.89C1039.05 206.8 1035.57 208.87 1031.15 207.69C1027.21 206.64 1024.41 203.16 1019.97 202.36C1011.81 200.89 1002.74 203.77 996.76 209.45Z" fill="#4B369D"/>
<path d="M1075.61 569.19L1099.91 593.71L1108.94 586.43L1082.07 562.36C1082.07 562.35 1076.57 565.61 1075.61 569.19Z" fill="#D4A79A"/>
<path d="M1086.6 638.8C1086.6 638.8 1093.44 633.4 1102.99 620.77C1112.55 608.13 1122.6 593.64 1122.37 589.68C1122.14 585.72 1106.51 573.17 1103.66 577.59C1100.81 582.01 1106.09 587.87 1095.34 591.98C1086.13 595.5 1091.91 606.8 1086.86 620.03C1081.81 633.25 1079.75 638.6 1086.6 638.8Z" fill="#F3AA02"/>
<path d="M1058.56 508.03C1060.94 517.41 1061.63 527.57 1066.77 535.24C1074.58 546.9 1088.29 550.25 1100.83 552.8C1097.25 564.27 1090.35 573.87 1083.59 583.2C1078.59 590.1 1073.47 597.12 1066.8 601.75C1064.54 592.84 1062.25 583.84 1058.22 575.82C1054.62 568.66 1049.74 562.49 1045.51 555.8C1032.95 535.93 1026.44 511.92 1020.13 488.39C1016.84 476.11 992.98 379.97 1025.48 402.13C1047.54 417.17 1042.27 443.79 1058.56 508.03Z" fill="#4B369D"/>
<path d="M1001.1 604.99L993.69 638.7L1004.71 642.34L1010.35 606.71C1010.35 606.71 1004.62 603.86 1001.1 604.99Z" fill="#EAC2AB"/>
<path d="M948.58 651.99C948.58 651.99 956.82 654.8 972.62 655.98C988.42 657.16 1006.05 657.74 1009.26 655.39C1012.47 653.04 1014.53 633.11 1009.26 633.11C1003.99 633.11 1001.95 640.73 992.66 633.93C984.7 628.1 978.35 639.09 964.5 642.02C950.64 644.96 945.03 646.13 948.58 651.99Z" fill="#FDC510"/>
<path d="M972.45 612.51C973.05 611.31 974.5 610.47 975.77 609.59C987.34 601.51 985.5 587.95 984.48 576.14C982.06 548.13 988.31 520.44 991.74 492.79C995.08 465.8 994.09 438.44 989.58 411.64C987.94 401.9 985.78 386.87 1000.44 390.62C1007.39 392.4 1014.34 392.57 1021.43 391.79C1025.16 391.38 1021.47 389.94 1025.16 391.38C1037.72 396.28 1028.11 408.9 1024.94 417.17C1018.63 433.64 1024.63 465.7 1022.65 483.45C1019.85 508.61 1018.18 529.5 1019.59 554.73C1020.28 567.09 1021.21 579.44 1022.07 591.79C1022.57 598.99 1027.55 615.03 1023.14 621.24C1017.08 629.77 993.03 620.69 984.86 619.97C978.7 619.43 970.39 616.58 972.45 612.51Z" fill="#5A54FF"/>
<path d="M970.7 325.9C959.28 334.53 943.86 349.84 932.87 332.04C927.12 322.72 923.06 312.49 917.69 302.95C913.88 293.06 909.31 282.62 909.66 271.8C910.02 260.75 909.37 245.85 908.31 243.14C907.25 240.43 894.57 228.53 894.41 233.48C894.25 238.43 901.49 256.6 892.07 248C889.24 245.42 890.91 250.2 891.87 255.95C892.83 261.7 900.5 269.31 900.5 269.31C908.11 301.29 905.9 339.19 941.27 354.89C951.09 359.25 966.54 345.16 974.42 340.32C977.21 338.6 1004.82 319.63 1005.56 320.36C1002.31 317.17 999.06 313.97 995.81 310.78C995.03 310.01 994.18 309.21 993.1 309.05C991.84 308.86 990.64 309.59 989.6 310.32C984.41 313.96 979.87 318.42 975 322.48C973.6 323.65 972.17 324.79 970.7 325.9Z" fill="#EAC2AB"/>
<path d="M987.66 396.99C987.66 395.8 985.68 364.98 990.03 345.22C994.38 325.46 990.03 308.47 1005.05 296.61C1020.07 284.75 1032.32 300.56 1036.27 308.86C1040.22 317.16 1036.65 359.57 1037.21 373.53C1037.78 387.8 1037.21 385.22 1040.36 400.58C1042.37 410.4 1061.17 433.48 1037.44 426.57C1029.38 424.22 1012.48 423.21 1005.58 420.77C999.41 418.59 992.1 417.05 987.22 412C985.68 410.42 987.66 396.99 987.66 396.99Z" fill="#D7384E"/>
<path d="M979.27 312.46C979.27 312.46 1007.01 282.89 1017.65 296.31C1028.29 309.73 990.63 337.4 990.63 337.4L973.54 315.18L979.27 312.46Z" fill="#F44E4E"/>
</g>
<defs>
<clipPath id="clip0_16_1562">
<rect width="1444" height="899" fill="white"/>
</clipPath>
</defs>
</svg>
