<svg id="_1-Document" data-name="1-Document" xmlns="http://www.w3.org/2000/svg" viewBox="0 0 48 48"><title>1-Document</title><path d="M42.71,8.29l-8-8A1,1,0,0,0,34,0H8A3,3,0,0,0,5,3V45a3,3,0,0,0,3,3H40a3,3,0,0,0,3-3V9A1,1,0,0,0,42.71,8.29ZM35,3.41,39.59,8H36a1,1,0,0,1-1-1ZM41,45a1,1,0,0,1-1,1H8a1,1,0,0,1-1-1V3A1,1,0,0,1,8,2H33V7a3,3,0,0,0,3,3h5Z"/><rect x="16" y="18" width="20" height="2"/><rect x="12" y="24" width="24" height="2"/><rect x="12" y="30" width="24" height="2"/><rect x="12" y="36" width="16" height="2"/><rect x="34" y="36" width="2" height="2"/><rect x="30" y="36" width="2" height="2"/></svg>