<svg width="1227" height="924" viewBox="0 0 1227 924" fill="none" xmlns="http://www.w3.org/2000/svg">
<g clip-path="url(#clip0_16_2)">
<rect width="1227" height="924" fill="white"/>
<path d="M794.33 420.8C794.33 420.8 854.12 516.62 911.26 569.41C968.4 622.2 1034.91 676.28 994.63 775.59C954.35 874.9 835.63 915.57 623.33 910.38C411.03 905.19 336.07 904.06 289.51 798.74C242.95 693.42 397.91 669.8 503.76 637.78C609.61 605.76 794.33 420.8 794.33 420.8Z" fill="#E3E5FC"/>
<path opacity="0.49" d="M804.54 629.98C804.54 629.98 833.66 742.38 729.84 769.06C626.02 795.75 432.3 791.82 359.37 739.89C286.44 687.96 804.54 629.98 804.54 629.98Z" fill="url(#paint0_linear_16_2)"/>
<path d="M1074.81 824.56C1085.09 818.23 1089.99 804.36 1085.97 792.98C1079.39 774.38 1062.38 780.65 1050.29 770.88C1036.05 759.38 1053.27 741.29 1052.32 727.71C1051.28 712.77 1037.83 698.34 1033.78 683.9C1024.49 650.71 1062.22 675.48 1072.98 671.61C1077.48 669.99 1080.43 665.47 1081.47 660.79C1084.11 648.86 1079.09 639.22 1085.62 627.93C1091.93 617.03 1101.25 612.11 1098.56 597.31C1097.04 588.93 1091.87 581.25 1092 572.73C1092.04 570.29 1092.73 567.55 1094.86 566.36C1096.48 565.45 1098.5 565.7 1100.25 566.31C1106.06 568.35 1109.88 573.77 1114.56 577.78C1119.24 581.79 1126.76 584.27 1131.25 580.05C1134.24 577.24 1134.53 572.7 1135.14 568.64C1136.23 561.32 1141.37 556.24 1147.75 560.47C1154.7 565.08 1152.04 583.23 1150.99 589.74C1149.33 600.06 1146.81 610.78 1149.88 620.78C1154.95 637.32 1168.81 618.79 1174.85 613.31C1179.8 608.82 1188.07 606.13 1192.82 610.82C1202.28 620.15 1187.07 632.62 1185.07 641.46C1184.11 645.67 1185.35 650.71 1189.09 652.87C1200.04 659.21 1209.29 647.91 1210.95 664.78C1212.09 676.34 1201.63 687.36 1208.12 698.92C1213.79 709.02 1232.66 713.31 1225.2 727.48C1220.62 736.18 1200.9 735.79 1201.94 748.17C1202.62 756.24 1214.75 759.9 1214.76 768C1214.77 774.1 1207.67 777.7 1201.58 778.01C1195.49 778.32 1189.07 776.9 1183.46 779.28C1177.09 781.98 1173.4 789.81 1175.37 796.45C1177.09 802.22 1182.46 807.47 1180.77 813.25C1178.74 820.2 1169.11 820.45 1161.96 819.34C1132.74 814.77 1101.45 811.72 1074.81 824.56Z" fill="#FDC510"/>
<path d="M1129.99 821.68C1128.95 821.68 1128.12 820.84 1128.12 819.81V689.44C1128.12 688.41 1128.96 687.57 1129.99 687.57C1131.03 687.57 1131.86 688.41 1131.86 689.44V819.8C1131.86 820.84 1131.03 821.68 1129.99 821.68Z" fill="white"/>
<path d="M1129.99 770.94C1129.57 770.94 1129.16 770.8 1128.81 770.52C1128.01 769.87 1127.88 768.69 1128.54 767.88L1162.73 725.73C1163.39 724.92 1164.57 724.81 1165.37 725.46C1166.17 726.11 1166.3 727.29 1165.64 728.1L1131.45 770.25C1131.07 770.7 1130.54 770.94 1129.99 770.94Z" fill="white"/>
<path d="M1129.99 735.34C1129.56 735.34 1129.13 735.2 1128.78 734.9L1088.03 700.61C1087.24 699.94 1087.14 698.76 1087.8 697.97C1088.47 697.18 1089.65 697.08 1090.44 697.74L1131.19 732.03C1131.98 732.7 1132.08 733.88 1131.42 734.67C1131.05 735.12 1130.52 735.34 1129.99 735.34Z" fill="white"/>
<path d="M1069.11 806.29C1074.47 841.92 1079.3 879.19 1088.32 913.57C1089.07 916.43 1089.95 919.43 1091.77 921.27C1093.92 923.44 1096.84 923.48 1099.53 923.42C1115.09 923.06 1130.68 924.06 1146.24 923.97C1160.95 923.89 1173.1 925.08 1174.64 900.65C1175.17 892.18 1176.51 806.28 1184.32 806.28C1184.29 806.29 1069.11 806.29 1069.11 806.29Z" fill="#978CFF"/>
<path d="M1173.8 827.58H1079.63C1067.92 827.58 1058.33 818 1058.33 806.28C1058.33 794.57 1067.91 784.98 1079.63 784.98H1173.8C1185.51 784.98 1195.1 794.56 1195.1 806.28C1195.1 818 1185.51 827.58 1173.8 827.58Z" fill="#A7ADFF"/>
<path d="M719.86 45.3798C719.86 45.3798 732.2 72.7998 712.92 89.6798C693.64 106.56 667.43 93.1998 641.99 108.66C616.55 124.12 619.29 142.44 630.96 183.23C644.84 231.75 660 230.3 673.63 233.81C687.26 237.33 691.33 275.3 692.87 292.88C694.41 310.46 696.72 322.41 648.15 346.32C599.58 370.23 626.08 406.8 630.95 454.2C636.34 506.63 574.13 536.87 563.34 549.53C552.55 562.19 527.1 564.3 513.22 537.58C499.34 510.86 569.87 491.19 563.71 448.3C557.54 405.41 519.88 376.55 573.08 334.36C626.28 292.17 615.77 258.43 598.04 223.98C580.31 189.53 571.83 176.17 586.47 131.87C601.11 87.5698 585.7 100.93 604.97 65.7698C624.26 30.6198 694.42 -8.06016 719.86 45.3798Z" fill="#4B369D"/>
<path d="M686.31 253.49L690.18 325.68L746.69 347.47C746.69 347.47 712.71 297.75 718.47 253.48C724.23 209.22 686.31 253.49 686.31 253.49Z" fill="#D4A79A"/>
<path d="M817.27 487.68C817.27 487.68 813.52 480.81 802.28 445.53C791.04 410.25 786.98 397.13 771.37 362.99C755.76 328.85 723.28 307.52 723.28 307.52L682.69 305.33C682.69 305.33 677.69 305.64 654.28 325C630.86 344.36 608.38 399.63 608.38 399.63L598.39 509.54L668.65 561.37L718.31 579.27C715.92 576.08 713.99 572.7 712.79 569.12C704.47 544.39 732.35 407.43 733.29 395.25C734.23 383.07 757.82 499.23 757.82 499.23L778.25 493.3L792.27 537.97L801.04 492.36L817.27 487.68Z" fill="#F44E4E"/>
<path d="M795.1 547.01L792.26 537.97L787.73 561.53L795.1 547.01Z" fill="url(#paint1_linear_16_2)"/>
<path d="M757.8 499.23C757.8 499.23 734.21 383.07 733.27 395.25C732.33 407.43 704.45 544.39 712.77 569.12C713.97 572.7 715.9 576.08 718.29 579.27L769.38 597.68L787.73 561.52L792.26 537.96L778.24 493.29L757.8 499.23Z" fill="#FDC510"/>
<path d="M757.8 499.23C757.8 499.23 734.21 383.07 733.27 395.25C732.33 407.43 704.45 544.39 712.77 569.12C713.97 572.7 715.9 576.08 718.29 579.27L769.38 597.68L787.73 561.52L792.26 537.96L778.24 493.29L757.8 499.23Z" fill="#D7384E"/>
<path d="M343.78 455.55L630.64 469.39L686.31 523.31L418.37 516.56L343.78 455.55Z" fill="black"/>
<path d="M614.28 478.09L355.3 460.6C348.3 461.14 342.23 456.43 341.74 450.06L289.55 310.04C289.06 303.68 294.33 298.08 301.32 297.54L560.3 315.04C567.3 314.5 573.37 319.21 573.86 325.58L626.05 465.6C626.55 471.95 621.27 477.55 614.28 478.09Z" fill="#E3E5FC"/>
<path d="M484.355 399.564C487.432 385.408 476.538 371.023 460.024 367.433C443.509 363.843 427.627 372.409 424.55 386.566C421.473 400.722 432.367 415.107 448.881 418.697C465.396 422.286 481.278 413.721 484.355 399.564Z" fill="#A7ADFF"/>
<path d="M225.77 704.19L152.54 811.44L185.88 839.61L255.64 723.17C255.64 723.16 239.65 705.17 225.77 704.19Z" fill="#D4A79A"/>
<path d="M4.23007 871.26C4.23007 871.26 32.4001 880.88 86.3801 884.88C140.36 888.89 200.61 890.89 211.56 882.88C222.51 874.87 229.55 806.76 211.56 806.76C193.57 806.76 186.57 832.8 154.84 809.56C127.66 789.65 105.94 827.19 58.6101 837.2C11.2801 847.21 -7.88993 851.23 4.23007 871.26Z" fill="#F3AA02"/>
<path d="M681.6 588.22C675.13 576.05 640.11 582.91 598.14 567.3C556.16 551.69 529.05 518.9 481.36 481.12C433.67 443.34 436.93 449.89 416.35 448.33C395.77 446.77 370.29 502.35 355.91 531.71C325.64 593.53 287.33 648.77 230.1 684.71C212.71 695.63 136.09 737.17 123.29 754.57C96.3301 791.19 228.88 791.5 263.54 795.73C297.85 799.91 317.09 780.42 330.97 749.62C346.81 714.49 364.14 680.11 381.45 645.73C390.11 628.53 398.81 611.34 407.3 594.05C410.96 586.6 418.88 559.56 427.71 556.19C454.87 545.85 490.72 628.64 498.34 647.24C513.69 684.71 569.88 728.43 610.71 732.8C651.54 737.17 682.25 710.01 695.64 670.35C709.04 630.69 681.6 588.22 681.6 588.22Z" fill="#4B369D"/>
<path d="M365.46 712.32L292.23 819.57L325.57 847.74L395.33 731.3C395.32 731.29 379.34 713.3 365.46 712.32Z" fill="#EAC2AB"/>
<path d="M143.92 879.39C143.92 879.39 172.09 889.01 226.07 893.01C280.05 897.02 340.3 899.02 351.25 891.01C362.2 883 369.24 814.89 351.25 814.89C333.26 814.89 326.26 840.93 294.53 817.69C267.35 797.78 245.63 835.32 198.3 845.33C150.97 855.34 131.79 859.36 143.92 879.39Z" fill="#FDC510"/>
<path d="M787.6 588.22C781.42 576.05 747.94 582.91 707.82 567.3C667.7 551.69 641.78 518.9 596.19 481.12C550.6 443.34 553.72 449.89 534.05 448.33C514.38 446.77 490.02 502.35 476.28 531.71C434.01 622.02 347.02 682.63 267.85 738.39C262.93 741.85 257.41 746.66 258.43 752.59C258.95 755.61 261.11 758.05 263.32 760.18C292.69 788.53 347.71 801.28 387.25 799.43C427.06 797.57 448.67 764.35 463.71 731.5C490.61 672.73 516.89 612.17 549.57 556.39C561.85 535.45 600.99 619.99 604.39 627.86C624.66 674.86 664.9 726.65 719.85 732.8C758.88 737.17 788.23 710.01 801.04 670.35C813.83 630.69 787.6 588.22 787.6 588.22Z" fill="#5A54FF"/>
<path d="M635.82 99.8197C635.82 99.8197 605.64 122.08 617.65 172.08C629.66 222.08 667.01 264.78 682.08 261.77C723.75 253.45 738.36 224 752.81 198.73C770.53 167.74 735.35 92.1397 735.35 92.1397L702.12 74.2197L635.82 99.8197Z" fill="#EAC2AB"/>
<path d="M695.96 77.7299C695.96 77.7299 716.93 84.7599 735.36 114.29C753.79 143.82 741.7 148.64 741.7 188.23C741.7 199.8 739.53 211.2 733.26 221.06C728.71 228.22 722.22 233.86 717.51 240.88C711.56 249.74 709.66 259.74 710.14 270.31C711.15 292.66 714.72 311.22 734.57 323.84C756.03 337.48 766.04 355.7 771.68 380.32C778.43 409.8 827.03 426.48 843.99 415.23C860.95 403.98 810.36 411.49 820.39 362.98C830.41 314.46 833.85 293.87 804.55 280.39C775.25 266.91 789.25 263.35 804.67 233.82C820.09 204.29 780.34 204.65 796.03 153.25C814.14 93.9199 797.73 27.7999 709.06 46.0799C620.39 64.3599 695.96 77.7299 695.96 77.7299Z" fill="#4B369D"/>
<path d="M674.37 134.19C699.81 118.72 693.65 106.55 712.93 89.6798C732.2 72.7999 719.87 45.3798 719.87 45.3798C694.43 -8.06015 624.27 30.6098 604.99 65.7698C585.71 100.93 601.14 87.5699 586.49 131.87C576.39 162.4 577.29 178.24 584.63 196.42L626.1 213.21C609.31 149.51 655.23 145.82 674.37 134.19Z" fill="#4B369D"/>
<path d="M777.61 545.13C777.61 545.13 777.61 562.3 771.05 559.18C764.49 556.06 702.98 517.65 694.86 508.6C686.74 499.54 667.69 466.76 666.76 460.2C665.82 453.64 668.95 453.33 656.14 455.2C643.34 457.07 620.23 464.26 623.67 468.31C627.1 472.37 636.78 469.56 636.78 469.56C636.78 469.56 625.44 476.74 630.95 477.68C636.46 478.62 652.7 475.49 652.7 480.49C652.7 485.49 651.76 502.35 655.51 510.78C659.26 519.21 663.94 522.02 676.12 524.83C688.3 527.64 690.45 526.7 700.46 537.01C710.47 547.32 766.36 596.96 773.54 599.46C780.72 601.96 783.84 606.33 792.59 590.4C801.34 574.47 807.58 562.3 808.2 537.32C808.82 512.34 806.01 488.3 806.01 488.3L778.22 493.3C778.24 493.3 780.73 521.4 777.61 545.13Z" fill="#EAC2AB"/>
<path d="M867.51 227.94C872.49 205.12 883.61 182.37 891.77 160.46C896.11 148.82 905.64 133.12 906.61 120.65C906.93 116.56 910.83 113.53 915.32 113.88L1081.66 102.64C1086.15 102.99 1089.54 106.58 1089.22 110.67L1055.7 200.6C1055.38 204.69 1051.48 207.72 1046.99 207.37L912.84 215.94C904.62 220.93 891.58 225.92 883.35 230.89C874.22 236.4 862.94 248.88 867.51 227.94Z" fill="#E3E5FC"/>
<path d="M987.89 170.68L1041.94 168.33C1045.58 168.17 1048.42 165.07 1048.26 161.43C1048.1 157.79 1045 154.95 1041.36 155.11L987.31 157.46C983.67 157.62 980.83 160.72 980.99 164.36C981.15 167.99 984.25 170.83 987.89 170.68Z" fill="white"/>
<path d="M949.02 148.29L1046.94 144.04C1050.58 143.88 1053.42 140.78 1053.26 137.14C1053.1 133.5 1050 130.66 1046.36 130.82L948.44 135.07C944.8 135.23 941.96 138.33 942.12 141.97C942.28 145.6 945.38 148.45 949.02 148.29Z" fill="white"/>
<path d="M380.55 248.38C374.79 221.96 361.92 195.63 352.46 170.27C347.44 156.8 336.4 138.63 335.28 124.19C334.91 119.46 330.4 115.95 325.2 116.36L132.66 103.35C127.46 103.75 123.54 107.91 123.91 112.64L162.71 216.74C163.08 221.47 167.59 224.98 172.79 224.57L328.07 234.5C337.59 240.27 352.67 246.06 362.21 251.81C372.78 258.18 385.84 272.63 380.55 248.38Z" fill="#E3E5FC"/>
<path d="M241.21 182.1L178.65 179.38C174.44 179.2 171.15 175.6 171.33 171.39C171.51 167.18 175.11 163.89 179.32 164.07L241.88 166.79C246.09 166.97 249.38 170.57 249.2 174.78C249.01 178.99 245.42 182.28 241.21 182.1Z" fill="white"/>
<path d="M286.2 156.19L172.85 151.27C168.64 151.09 165.35 147.49 165.53 143.28C165.71 139.07 169.31 135.78 173.52 135.96L286.87 140.88C291.08 141.06 294.37 144.66 294.19 148.87C294 153.08 290.41 156.37 286.2 156.19Z" fill="white"/>
<g opacity="0.72">
<path d="M486.26 94.2699C482.55 77.2599 474.26 60.3099 468.18 43.9799C464.95 35.3099 457.84 23.6099 457.12 14.3099C456.88 11.2599 453.98 9.0099 450.63 9.2699L326.66 0.899902C323.31 1.1599 320.79 3.8399 321.02 6.8799L346 73.8999C346.24 76.9499 349.14 79.1999 352.49 78.9399L452.47 85.3299C458.6 89.0499 468.31 92.7699 474.45 96.4699C481.26 100.58 489.66 109.88 486.26 94.2699Z" fill="#E3E5FC"/>
<path d="M396.54 51.59L356.26 49.84C353.55 49.72 351.43 47.41 351.55 44.7C351.67 41.99 353.98 39.87 356.69 39.99L396.97 41.74C399.68 41.86 401.8 44.17 401.68 46.88C401.56 49.59 399.25 51.71 396.54 51.59Z" fill="white"/>
<path d="M425.51 34.9099L352.53 31.7399C349.82 31.6199 347.7 29.3099 347.82 26.5999C347.94 23.8899 350.25 21.7699 352.96 21.8899L425.94 25.0599C428.65 25.1799 430.77 27.4899 430.65 30.1999C430.53 32.9099 428.22 35.0299 425.51 34.9099Z" fill="white"/>
</g>
<path d="M493.81 191.24L431.25 188.52C427.04 188.34 423.75 184.74 423.93 180.53C424.11 176.32 427.71 173.03 431.92 173.21L494.48 175.93C498.69 176.11 501.98 179.71 501.8 183.92C501.61 188.13 498.01 191.42 493.81 191.24Z" fill="#E3E5FC"/>
<path d="M500.05 221.81L437.49 219.09C433.28 218.91 429.99 215.31 430.17 211.1C430.35 206.89 433.95 203.6 438.16 203.78L500.72 206.5C504.93 206.68 508.22 210.28 508.04 214.49C507.85 218.7 504.26 222 500.05 221.81Z" fill="#E3E5FC"/>
<path d="M511.14 253.2L448.58 250.48C444.37 250.3 441.08 246.7 441.26 242.49C441.44 238.28 445.04 234.99 449.25 235.17L511.81 237.89C516.02 238.07 519.31 241.67 519.13 245.88C518.95 250.09 515.35 253.38 511.14 253.2Z" fill="#E3E5FC"/>
</g>
<defs>
<linearGradient id="paint0_linear_16_2" x1="840.872" y1="759.158" x2="835.615" y2="595.411" gradientUnits="userSpaceOnUse">
<stop stop-color="#A7ADFF"/>
<stop offset="1" stop-color="#E3E5FC"/>
</linearGradient>
<linearGradient id="paint1_linear_16_2" x1="825.616" y1="449.99" x2="698.897" y2="405.181" gradientUnits="userSpaceOnUse">
<stop stop-color="#A7ADFF"/>
<stop offset="1" stop-color="#E3E5FC"/>
</linearGradient>
<clipPath id="clip0_16_2">
<rect width="1227" height="924" fill="white"/>
</clipPath>
</defs>
</svg>
