<svg width="400" height="400" viewBox="0 0 400 400" fill="none" xmlns="http://www.w3.org/2000/svg">
<path d="M215.68 340.992L247.244 329.056" stroke="#020064" stroke-width="4" stroke-linecap="round" stroke-linejoin="round"/>
<path d="M55.604 172.416L105.868 302.376" stroke="#020064" stroke-width="4" stroke-linecap="round" stroke-linejoin="round"/>
<path d="M192.272 60.896L137 91.408" stroke="#020064" stroke-width="4" stroke-linecap="round" stroke-linejoin="round"/>
<path d="M59.752 154.256L118.428 104.26" stroke="#020064" stroke-width="4" stroke-linecap="round" stroke-linejoin="round"/>
<path d="M254.428 75.728L212.72 59.536" stroke="#020064" stroke-width="4" stroke-linecap="round" stroke-linejoin="round"/>
<path d="M291.4 108.472L272.704 88.184" stroke="#020064" stroke-width="4" stroke-linecap="round" stroke-linejoin="round"/>
<path d="M335.736 129.4L309.828 120.508" stroke="#020064" stroke-width="4" stroke-linecap="round" stroke-linejoin="round"/>
<path d="M315.304 223.392L285.552 292.384" stroke="#020064" stroke-width="4" stroke-linecap="round" stroke-linejoin="round"/>
<path d="M338.3 289.964L300.392 307.048" stroke="#020064" stroke-width="4" stroke-linecap="round" stroke-linejoin="round"/>
<path d="M138.316 95.492L253.748 81.232" stroke="#020064" stroke-width="4" stroke-linecap="round" stroke-linejoin="round"/>
<path d="M123.452 260.868L112.808 301.976" stroke="#020064" stroke-width="4" stroke-linecap="round" stroke-linejoin="round"/>
<path d="M58.92 170.348L118.96 241.22" stroke="#020064" stroke-width="4" stroke-linecap="round" stroke-linejoin="round"/>
<path d="M196.052 334.344L133.524 258.632" stroke="#020064" stroke-width="4" stroke-linecap="round" stroke-linejoin="round"/>
<path d="M156.62 162.26L193.764 154.972" stroke="#020064" stroke-width="4" stroke-linecap="round" stroke-linejoin="round"/>
<path d="M261.764 90.716L232.228 189.636" stroke="#020064" stroke-width="4" stroke-linecap="round" stroke-linejoin="round"/>
<path d="M316.364 169.524L302.624 127.608" stroke="#020064" stroke-width="4" stroke-linecap="round" stroke-linejoin="round"/>
<path d="M211.968 188.668L207.096 163.924" stroke="#020064" stroke-width="4" stroke-linecap="round" stroke-linejoin="round"/>
<path d="M215.52 156.812L298.412 188.284" stroke="#020064" stroke-width="4" stroke-linecap="round" stroke-linejoin="round"/>
<path d="M345.768 274.316L332.728 224.616" stroke="#020064" stroke-width="4" stroke-linecap="round" stroke-linejoin="round"/>
<path d="M259.124 294.24L242.104 266.264" stroke="#020064" stroke-width="4" stroke-linecap="round" stroke-linejoin="round"/>
<path d="M194.008 341.384L120.72 316.6" stroke="#020064" stroke-width="4" stroke-linecap="round" stroke-linejoin="round"/>
<path d="M178.688 238.488L137.392 247.468" stroke="#020064" stroke-width="4" stroke-linecap="round" stroke-linejoin="round"/>
<path d="M343.084 143.924L335.116 169.392" stroke="#020064" stroke-width="4" stroke-linecap="round" stroke-linejoin="round"/>
<path d="M204.904 164.136C211.174 164.136 216.256 159.054 216.256 152.784C216.256 146.514 211.174 141.432 204.904 141.432C198.634 141.432 193.552 146.514 193.552 152.784C193.552 159.054 198.634 164.136 204.904 164.136Z" stroke="#020064" stroke-width="4" stroke-linecap="round" stroke-linejoin="round"/>
<path d="M244.296 195.464L292.6 126.132" stroke="#020064" stroke-width="4" stroke-linecap="round" stroke-linejoin="round"/>
<path d="M147.684 181.24L185.096 206.496" stroke="#020064" stroke-width="4" stroke-linecap="round" stroke-linejoin="round"/>
<path d="M127.496 131.576L127.224 108.228" stroke="#020064" stroke-width="4" stroke-linecap="round" stroke-linejoin="round"/>
<path d="M147.076 138.88L195.912 64.908" stroke="#020064" stroke-width="4" stroke-linecap="round" stroke-linejoin="round"/>
<path d="M99.616 165.5L62.692 162.376" stroke="#020064" stroke-width="4" stroke-linecap="round" stroke-linejoin="round"/>
<path d="M127.5 189.1L126.524 238.532" stroke="#020064" stroke-width="4" stroke-linecap="round" stroke-linejoin="round"/>
<path d="M299.088 128.172C305.358 128.172 310.44 123.09 310.44 116.82C310.44 110.55 305.358 105.468 299.088 105.468C292.818 105.468 287.736 110.55 287.736 116.82C287.736 123.09 292.818 128.172 299.088 128.172Z" stroke="#020064" stroke-width="4" stroke-linecap="round" stroke-linejoin="round"/>
<path d="M346.476 144.44C352.746 144.44 357.828 139.358 357.828 133.088C357.828 126.818 352.746 121.736 346.476 121.736C340.206 121.736 335.124 126.818 335.124 133.088C335.124 139.358 340.206 144.44 346.476 144.44Z" stroke="#020064" stroke-width="4" stroke-linecap="round" stroke-linejoin="round"/>
<path d="M348.648 296.652C354.918 296.652 360 291.57 360 285.3C360 279.03 354.918 273.948 348.648 273.948C342.378 273.948 337.296 279.03 337.296 285.3C337.296 291.57 342.378 296.652 348.648 296.652Z" stroke="#020064" stroke-width="4" stroke-linecap="round" stroke-linejoin="round"/>
<path d="M265.012 91.192C271.282 91.192 276.364 86.1096 276.364 79.84C276.364 73.5704 271.282 68.488 265.012 68.488C258.742 68.488 253.66 73.5704 253.66 79.84C253.66 86.1096 258.742 91.192 265.012 91.192Z" stroke="#020064" stroke-width="4" stroke-linecap="round" stroke-linejoin="round"/>
<path d="M127.048 108.232C133.318 108.232 138.4 103.15 138.4 96.88C138.4 90.6104 133.318 85.528 127.048 85.528C120.778 85.528 115.696 90.6104 115.696 96.88C115.696 103.15 120.778 108.232 127.048 108.232Z" stroke="#020064" stroke-width="4" stroke-linecap="round" stroke-linejoin="round"/>
<path d="M51.352 173.24C57.6216 173.24 62.704 168.158 62.704 161.888C62.704 155.618 57.6216 150.536 51.352 150.536C45.0824 150.536 40 155.618 40 161.888C40 168.158 45.0824 173.24 51.352 173.24Z" stroke="#020064" stroke-width="4" stroke-linecap="round" stroke-linejoin="round"/>
<path d="M202.164 66.788C208.434 66.788 213.516 61.7056 213.516 55.436C213.516 49.1664 208.434 44.084 202.164 44.084C195.894 44.084 190.812 49.1664 190.812 55.436C190.812 61.7056 195.894 66.788 202.164 66.788Z" stroke="#020064" stroke-width="4" stroke-linecap="round" stroke-linejoin="round"/>
<path d="M204.904 355.916C211.174 355.916 216.256 350.834 216.256 344.564C216.256 338.294 211.174 333.212 204.904 333.212C198.634 333.212 193.552 338.294 193.552 344.564C193.552 350.834 198.634 355.916 204.904 355.916Z" stroke="#020064" stroke-width="4" stroke-linecap="round" stroke-linejoin="round"/>
<path d="M109.964 324.316C116.234 324.316 121.316 319.234 121.316 312.964C121.316 306.694 116.234 301.612 109.964 301.612C103.694 301.612 98.6121 306.694 98.6121 312.964C98.6121 319.234 103.694 324.316 109.964 324.316Z" stroke="#020064" stroke-width="4" stroke-linecap="round" stroke-linejoin="round"/>
<path d="M126.3 261.232C132.57 261.232 137.652 256.15 137.652 249.88C137.652 243.61 132.57 238.528 126.3 238.528C120.03 238.528 114.948 243.61 114.948 249.88C114.948 256.15 120.03 261.232 126.3 261.232Z" stroke="#020064" stroke-width="4" stroke-linecap="round" stroke-linejoin="round"/>
<path d="M127.92 189.104C143.806 189.104 156.684 176.226 156.684 160.34C156.684 144.454 143.806 131.576 127.92 131.576C112.034 131.576 99.156 144.454 99.156 160.34C99.156 176.226 112.034 189.104 127.92 189.104Z" stroke="#020064" stroke-width="4" stroke-linecap="round" stroke-linejoin="round"/>
<path d="M118.664 159.672C118.664 162.127 119.639 164.481 121.375 166.217C123.111 167.953 125.465 168.928 127.92 168.928C130.375 168.928 132.729 167.953 134.465 166.217C136.201 164.481 137.176 162.127 137.176 159.672V155.044C137.176 152.589 136.201 150.235 134.465 148.499C132.729 146.763 130.375 145.788 127.92 145.788C125.465 145.788 123.111 146.763 121.375 148.499C119.639 150.235 118.664 152.589 118.664 155.044V159.672Z" stroke="#020064" stroke-width="4" stroke-linecap="round" stroke-linejoin="round"/>
<path d="M147.148 181.732C141.868 186.476 135.022 189.1 127.924 189.1C120.826 189.1 113.98 186.476 108.7 181.732C110.28 177.941 112.947 174.702 116.364 172.422C119.781 170.142 123.796 168.924 127.903 168.921C132.011 168.917 136.028 170.129 139.448 172.403C142.869 174.676 145.541 177.911 147.128 181.7" stroke="#020064" stroke-width="4" stroke-linecap="round" stroke-linejoin="round"/>
<path d="M118.74 153.852C118.982 151.985 119.789 150.237 121.051 148.84C122.313 147.443 123.971 146.464 125.803 146.034C127.636 145.604 129.556 145.742 131.308 146.432C133.06 147.121 134.56 148.328 135.608 149.892C133.417 152.016 130.692 153.505 127.721 154.203C124.751 154.9 121.647 154.779 118.74 153.852Z" stroke="#020064" stroke-width="4" stroke-linecap="round" stroke-linejoin="round"/>
<path d="M220.132 272.416C243.476 272.416 262.4 253.492 262.4 230.148C262.4 206.804 243.476 187.88 220.132 187.88C196.788 187.88 177.864 206.804 177.864 230.148C177.864 253.492 196.788 272.416 220.132 272.416Z" stroke="#020064" stroke-width="4" stroke-linecap="round" stroke-linejoin="round"/>
<path d="M206.532 229.168C206.532 232.775 207.965 236.234 210.515 238.785C213.066 241.335 216.525 242.768 220.132 242.768C223.739 242.768 227.198 241.335 229.749 238.785C232.299 236.234 233.732 232.775 233.732 229.168V222.368C233.732 218.761 232.299 215.302 229.749 212.751C227.198 210.201 223.739 208.768 220.132 208.768C216.525 208.768 213.066 210.201 210.515 212.751C207.965 215.302 206.532 218.761 206.532 222.368V229.168Z" stroke="#020064" stroke-width="4" stroke-linecap="round" stroke-linejoin="round"/>
<path d="M248.4 261.6C240.642 268.57 230.581 272.426 220.152 272.426C209.723 272.426 199.662 268.57 191.904 261.6C194.226 256.028 198.143 251.268 203.164 247.918C208.185 244.568 214.084 242.778 220.12 242.773C226.156 242.768 232.058 244.548 237.085 247.889C242.111 251.231 246.037 255.984 248.368 261.552" stroke="#020064" stroke-width="4" stroke-linecap="round" stroke-linejoin="round"/>
<path d="M206.644 220.616C206.997 217.869 208.181 215.295 210.036 213.239C211.892 211.183 214.331 209.743 217.028 209.11C219.724 208.478 222.549 208.684 225.126 209.701C227.702 210.718 229.906 212.496 231.444 214.8C228.223 217.922 224.215 220.111 219.848 221.135C215.48 222.16 210.917 221.98 206.644 220.616Z" stroke="#020064" stroke-width="4" stroke-linecap="round" stroke-linejoin="round"/>
<path d="M325.936 225.424C341.822 225.424 354.7 212.546 354.7 196.66C354.7 180.774 341.822 167.896 325.936 167.896C310.05 167.896 297.172 180.774 297.172 196.66C297.172 212.546 310.05 225.424 325.936 225.424Z" stroke="#020064" stroke-width="4" stroke-linecap="round" stroke-linejoin="round"/>
<path d="M316.684 196C316.684 198.455 317.659 200.81 319.396 202.546C321.132 204.283 323.486 205.258 325.942 205.258C328.397 205.258 330.752 204.283 332.488 202.546C334.224 200.81 335.2 198.455 335.2 196V191.364C335.226 190.132 335.005 188.908 334.552 187.763C334.098 186.618 333.42 185.575 332.559 184.695C331.697 183.815 330.668 183.116 329.532 182.639C328.397 182.162 327.178 181.916 325.946 181.916C324.714 181.916 323.495 182.162 322.36 182.639C321.224 183.116 320.195 183.815 319.333 184.695C318.472 185.575 317.794 186.618 317.34 187.763C316.887 188.908 316.666 190.132 316.692 191.364L316.684 196Z" stroke="#020064" stroke-width="4" stroke-linecap="round" stroke-linejoin="round"/>
<path d="M345.168 218.052C339.888 222.796 333.04 225.42 325.942 225.42C318.844 225.42 311.996 222.796 306.716 218.052C308.296 214.261 310.963 211.022 314.38 208.742C317.797 206.462 321.812 205.244 325.919 205.241C330.027 205.237 334.044 206.449 337.464 208.723C340.885 210.996 343.557 214.231 345.144 218.02" stroke="#020064" stroke-width="4" stroke-linecap="round" stroke-linejoin="round"/>
<path d="M316.76 190.168C317.002 188.301 317.808 186.553 319.07 185.156C320.332 183.759 321.99 182.78 323.822 182.35C325.655 181.92 327.575 182.06 329.326 182.75C331.078 183.44 332.577 184.648 333.624 186.212C331.434 188.336 328.709 189.826 325.739 190.522C322.769 191.219 319.666 191.097 316.76 190.168Z" stroke="#020064" stroke-width="4" stroke-linecap="round" stroke-linejoin="round"/>
<path d="M274.124 347.552C290.01 347.552 302.888 334.674 302.888 318.788C302.888 302.902 290.01 290.024 274.124 290.024C258.238 290.024 245.36 302.902 245.36 318.788C245.36 334.674 258.238 347.552 274.124 347.552Z" stroke="#020064" stroke-width="4" stroke-linecap="round" stroke-linejoin="round"/>
<path d="M264.868 318.124C264.842 319.356 265.063 320.58 265.516 321.725C265.97 322.87 266.648 323.913 267.509 324.793C268.371 325.673 269.4 326.372 270.536 326.849C271.671 327.326 272.89 327.572 274.122 327.572C275.354 327.572 276.573 327.326 277.708 326.849C278.844 326.372 279.873 325.673 280.735 324.793C281.596 323.913 282.274 322.87 282.728 321.725C283.181 320.58 283.402 319.356 283.376 318.124V313.496C283.402 312.264 283.181 311.04 282.728 309.895C282.274 308.75 281.596 307.707 280.735 306.827C279.873 305.947 278.844 305.248 277.708 304.771C276.573 304.294 275.354 304.048 274.122 304.048C272.89 304.048 271.671 304.294 270.536 304.771C269.4 305.248 268.371 305.947 267.509 306.827C266.648 307.707 265.97 308.75 265.516 309.895C265.063 311.04 264.842 312.264 264.868 313.496V318.124Z" stroke="#020064" stroke-width="4" stroke-linecap="round" stroke-linejoin="round"/>
<path d="M293.352 340.184C288.072 344.928 281.226 347.552 274.128 347.552C267.03 347.552 260.184 344.928 254.904 340.184C256.484 336.392 259.15 333.153 262.566 330.873C265.983 328.593 269.998 327.374 274.105 327.371C278.213 327.368 282.23 328.579 285.65 330.854C289.07 333.128 291.742 336.363 293.328 340.152" stroke="#020064" stroke-width="4" stroke-linecap="round" stroke-linejoin="round"/>
<path d="M264.944 312.3C265.186 310.433 265.992 308.685 267.254 307.288C268.516 305.891 270.174 304.912 272.006 304.482C273.839 304.052 275.759 304.192 277.51 304.882C279.262 305.572 280.761 306.78 281.808 308.344C279.618 310.467 276.893 311.957 273.923 312.653C270.953 313.35 267.85 313.228 264.944 312.3Z" stroke="#020064" stroke-width="4" stroke-linecap="round" stroke-linejoin="round"/>
<path d="M338.216 280.824L258.984 246.82" stroke="#020064" stroke-width="4" stroke-linecap="round" stroke-linejoin="round"/>
<path d="M214.464 272.04L206.444 333.316" stroke="#020064" stroke-width="4" stroke-linecap="round" stroke-linejoin="round"/>
<path d="M212.124 144.024L257.796 88.6" stroke="#020064" stroke-width="4" stroke-linecap="round" stroke-linejoin="round"/>
</svg>
