<svg width="400" height="400" viewBox="0 0 400 400" fill="none" xmlns="http://www.w3.org/2000/svg">
<path d="M204.704 362.444C293.07 362.444 364.704 290.81 364.704 202.444C364.704 114.078 293.07 42.444 204.704 42.444C116.338 42.444 44.704 114.078 44.704 202.444C44.704 290.81 116.338 362.444 204.704 362.444Z" fill="#D9EDFF"/>
<path d="M269.416 312.36L215.424 223.62M200.2 338.54L269.416 312.36L200.2 338.54ZM46.644 154.888L105.256 306.436L46.644 154.888ZM197.46 48.908L122.388 90.352L197.46 48.908ZM46.644 154.888L122.388 90.352L46.644 154.888ZM260.308 73.308L197.46 48.908L260.308 73.308ZM294.384 110.292L260.308 73.308L294.384 110.292ZM341.768 126.56L294.384 110.292L341.768 126.56ZM321.232 192.204L269.416 312.36L321.232 192.204ZM343.944 278.772L269.416 312.36L343.944 278.772ZM122.388 90.352L260.308 73.308L122.388 90.352ZM121.592 243.352L105.256 306.436L121.592 243.352ZM46.644 154.888L121.592 243.352L46.644 154.888ZM200.2 338.54L121.592 243.352L200.2 338.54ZM123.212 161.364L200.2 146.256L123.212 161.364ZM260.308 73.308L215.424 223.62L260.308 73.308ZM321.232 192.204L294.384 110.292L321.232 192.204ZM215.424 223.62L200.2 146.256L260.308 73.308L215.424 223.62Z" stroke="#020064" stroke-width="4" stroke-linecap="round" stroke-linejoin="round"/>
<path d="M215.324 222.972L200.2 338.54L105.256 306.436" stroke="#020064" stroke-width="4" stroke-linecap="round" stroke-linejoin="round"/>
<path d="M200.2 157.608C206.47 157.608 211.552 152.526 211.552 146.256C211.552 139.986 206.47 134.904 200.2 134.904C193.93 134.904 188.848 139.986 188.848 146.256C188.848 152.526 193.93 157.608 200.2 157.608Z" fill="white" stroke="#020064" stroke-width="4" stroke-linecap="round" stroke-linejoin="round"/>
<path d="M215.424 223.62L294.384 110.292L215.424 223.62Z" fill="white"/>
<path d="M215.424 223.62L294.384 110.292" stroke="#020064" stroke-width="4" stroke-linecap="round" stroke-linejoin="round"/>
<path d="M294.384 121.644C300.654 121.644 305.736 116.562 305.736 110.292C305.736 104.022 300.654 98.94 294.384 98.94C288.114 98.94 283.032 104.022 283.032 110.292C283.032 116.562 288.114 121.644 294.384 121.644Z" fill="white" stroke="#020064" stroke-width="4" stroke-linecap="round" stroke-linejoin="round"/>
<path d="M341.768 137.912C348.038 137.912 353.12 132.83 353.12 126.56C353.12 120.29 348.038 115.208 341.768 115.208C335.498 115.208 330.416 120.29 330.416 126.56C330.416 132.83 335.498 137.912 341.768 137.912Z" fill="white" stroke="#020064" stroke-width="4" stroke-linecap="round" stroke-linejoin="round"/>
<path d="M343.944 290.124C350.214 290.124 355.296 285.042 355.296 278.772C355.296 272.502 350.214 267.42 343.944 267.42C337.674 267.42 332.592 272.502 332.592 278.772C332.592 285.042 337.674 290.124 343.944 290.124Z" fill="white" stroke="#020064" stroke-width="4" stroke-linecap="round" stroke-linejoin="round"/>
<path d="M260.308 84.66C266.578 84.66 271.66 79.5775 271.66 73.308C271.66 67.0385 266.578 61.956 260.308 61.956C254.039 61.956 248.956 67.0385 248.956 73.308C248.956 79.5775 254.039 84.66 260.308 84.66Z" fill="white" stroke="#020064" stroke-width="4" stroke-linecap="round" stroke-linejoin="round"/>
<path d="M122.344 101.704C128.613 101.704 133.696 96.6215 133.696 90.352C133.696 84.0825 128.613 79 122.344 79C116.074 79 110.992 84.0825 110.992 90.352C110.992 96.6215 116.074 101.704 122.344 101.704Z" fill="white" stroke="#020064" stroke-width="4" stroke-linecap="round" stroke-linejoin="round"/>
<path d="M46.644 166.712C52.9135 166.712 57.996 161.63 57.996 155.36C57.996 149.09 52.9135 144.008 46.644 144.008C40.3745 144.008 35.292 149.09 35.292 155.36C35.292 161.63 40.3745 166.712 46.644 166.712Z" fill="white" stroke="#020064" stroke-width="4" stroke-linecap="round" stroke-linejoin="round"/>
<path d="M197.46 60.26C203.73 60.26 208.812 55.1775 208.812 48.908C208.812 42.6385 203.73 37.556 197.46 37.556C191.191 37.556 186.108 42.6385 186.108 48.908C186.108 55.1775 191.191 60.26 197.46 60.26Z" fill="white" stroke="#020064" stroke-width="4" stroke-linecap="round" stroke-linejoin="round"/>
<path d="M200.2 349.388C206.47 349.388 211.552 344.306 211.552 338.036C211.552 331.766 206.47 326.684 200.2 326.684C193.93 326.684 188.848 331.766 188.848 338.036C188.848 344.306 193.93 349.388 200.2 349.388Z" fill="white" stroke="#020064" stroke-width="4" stroke-linecap="round" stroke-linejoin="round"/>
<path d="M105.256 317.788C111.526 317.788 116.608 312.706 116.608 306.436C116.608 300.166 111.526 295.084 105.256 295.084C98.9865 295.084 93.9041 300.166 93.9041 306.436C93.9041 312.706 98.9865 317.788 105.256 317.788Z" fill="white" stroke="#020064" stroke-width="4" stroke-linecap="round" stroke-linejoin="round"/>
<path d="M121.592 254.704C127.862 254.704 132.944 249.622 132.944 243.352C132.944 237.082 127.862 232 121.592 232C115.322 232 110.24 237.082 110.24 243.352C110.24 249.622 115.322 254.704 121.592 254.704Z" fill="white" stroke="#020064" stroke-width="4" stroke-linecap="round" stroke-linejoin="round"/>
<path d="M123.212 182.576C139.098 182.576 151.976 169.698 151.976 153.812C151.976 137.926 139.098 125.048 123.212 125.048C107.326 125.048 94.448 137.926 94.448 153.812C94.448 169.698 107.326 182.576 123.212 182.576Z" fill="white" stroke="#020064" stroke-width="4" stroke-linecap="round" stroke-linejoin="round"/>
<path d="M142.444 175.2C137.164 179.942 130.318 182.564 123.222 182.564C116.126 182.564 109.28 179.942 104 175.2C105.588 171.418 108.257 168.19 111.673 165.92C115.089 163.649 119.099 162.438 123.2 162.438C127.301 162.438 131.311 163.649 134.727 165.92C138.143 168.19 140.812 171.418 142.4 175.2" fill="#B0D9FF"/>
<path d="M142.444 175.2C137.164 179.942 130.318 182.564 123.222 182.564C116.126 182.564 109.28 179.942 104 175.2C105.588 171.418 108.257 168.19 111.673 165.92C115.089 163.649 119.099 162.438 123.2 162.438C127.301 162.438 131.311 163.649 134.727 165.92C138.143 168.19 140.812 171.418 142.4 175.2" stroke="#020064" stroke-width="4" stroke-linecap="round" stroke-linejoin="round"/>
<path d="M215.428 265.888C238.772 265.888 257.696 246.964 257.696 223.62C257.696 200.276 238.772 181.352 215.428 181.352C192.084 181.352 173.16 200.276 173.16 223.62C173.16 246.964 192.084 265.888 215.428 265.888Z" fill="white" stroke="#020064" stroke-width="4" stroke-linecap="round" stroke-linejoin="round"/>
<path d="M201.828 222.64C201.828 226.247 203.261 229.706 205.811 232.257C208.362 234.807 211.821 236.24 215.428 236.24C219.035 236.24 222.494 234.807 225.045 232.257C227.595 229.706 229.028 226.247 229.028 222.64V215.84C229.028 212.233 227.595 208.774 225.045 206.223C222.494 203.673 219.035 202.24 215.428 202.24C211.821 202.24 208.362 203.673 205.811 206.223C203.261 208.774 201.828 212.233 201.828 215.84V222.64Z" fill="white" stroke="#020064" stroke-width="4" stroke-linecap="round" stroke-linejoin="round"/>
<path d="M243.68 255.056C235.922 262.026 225.861 265.881 215.432 265.881C205.003 265.881 194.942 262.026 187.184 255.056C189.506 249.485 193.423 244.724 198.444 241.374C203.465 238.024 209.364 236.234 215.4 236.229C221.436 236.224 227.338 238.004 232.365 241.345C237.391 244.687 241.317 249.441 243.648 255.008" fill="#B0D9FF"/>
<path d="M243.68 255.056C235.922 262.026 225.861 265.881 215.432 265.881C205.003 265.881 194.942 262.026 187.184 255.056C189.506 249.485 193.423 244.724 198.444 241.374C203.465 238.024 209.364 236.234 215.4 236.229C221.436 236.224 227.338 238.004 232.365 241.345C237.391 244.687 241.317 249.441 243.648 255.008" stroke="#020064" stroke-width="4" stroke-linecap="round" stroke-linejoin="round"/>
<path d="M201.94 214.084C202.294 211.337 203.478 208.764 205.334 206.709C207.19 204.653 209.629 203.213 212.325 202.581C215.022 201.949 217.847 202.156 220.422 203.173C222.998 204.189 225.202 205.969 226.74 208.272C223.52 211.396 219.512 213.586 215.144 214.61C210.776 215.633 206.213 215.452 201.94 214.084Z" fill="white" stroke="#020064" stroke-width="4" stroke-linecap="round" stroke-linejoin="round"/>
<path d="M321.232 218.896C337.118 218.896 349.996 206.018 349.996 190.132C349.996 174.246 337.118 161.368 321.232 161.368C305.346 161.368 292.468 174.246 292.468 190.132C292.468 206.018 305.346 218.896 321.232 218.896Z" fill="white" stroke="#020064" stroke-width="4" stroke-linecap="round" stroke-linejoin="round"/>
<path d="M311.976 189.464C311.976 191.919 312.951 194.273 314.687 196.009C316.423 197.745 318.777 198.72 321.232 198.72C323.687 198.72 326.041 197.745 327.777 196.009C329.513 194.273 330.488 191.919 330.488 189.464V184.836C330.488 182.381 329.513 180.027 327.777 178.291C326.041 176.555 323.687 175.58 321.232 175.58C318.777 175.58 316.423 176.555 314.687 178.291C312.951 180.027 311.976 182.381 311.976 184.836V189.464Z" fill="white" stroke="#020064" stroke-width="4" stroke-linecap="round" stroke-linejoin="round"/>
<path d="M340.46 211.524C335.18 216.268 328.333 218.892 321.236 218.892C314.138 218.892 307.292 216.268 302.012 211.524C303.592 207.733 306.259 204.493 309.676 202.214C313.093 199.934 317.108 198.716 321.215 198.713C325.323 198.709 329.34 199.921 332.76 202.195C336.181 204.469 338.853 207.703 340.44 211.492" fill="#B0D9FF"/>
<path d="M340.46 211.524C335.18 216.268 328.333 218.892 321.236 218.892C314.138 218.892 307.292 216.268 302.012 211.524C303.592 207.733 306.259 204.493 309.676 202.214C313.093 199.934 317.108 198.716 321.215 198.713C325.323 198.709 329.34 199.921 332.76 202.195C336.181 204.469 338.853 207.703 340.44 211.492" stroke="#020064" stroke-width="4" stroke-linecap="round" stroke-linejoin="round"/>
<path d="M312.052 183.64C312.295 181.773 313.102 180.025 314.364 178.629C315.626 177.233 317.284 176.254 319.117 175.825C320.95 175.395 322.87 175.534 324.621 176.223C326.373 176.913 327.872 178.12 328.92 179.684C326.729 181.807 324.003 183.297 321.033 183.993C318.062 184.69 314.959 184.568 312.052 183.64Z" fill="white" stroke="#020064" stroke-width="4" stroke-linecap="round" stroke-linejoin="round"/>
<path d="M269.416 341.024C285.302 341.024 298.18 328.146 298.18 312.26C298.18 296.374 285.302 283.496 269.416 283.496C253.53 283.496 240.652 296.374 240.652 312.26C240.652 328.146 253.53 341.024 269.416 341.024Z" fill="white" stroke="#020064" stroke-width="4" stroke-linecap="round" stroke-linejoin="round"/>
<path d="M260.16 311.6C260.16 314.055 261.135 316.409 262.871 318.145C264.607 319.881 266.961 320.856 269.416 320.856C271.871 320.856 274.225 319.881 275.961 318.145C277.697 316.409 278.672 314.055 278.672 311.6V306.968C278.672 304.513 277.697 302.159 275.961 300.423C274.225 298.687 271.871 297.712 269.416 297.712C266.961 297.712 264.607 298.687 262.871 300.423C261.135 302.159 260.16 304.513 260.16 306.968V311.6Z" fill="white" stroke="#020064" stroke-width="4" stroke-linecap="round" stroke-linejoin="round"/>
<path d="M288.644 333.656C283.363 338.397 276.517 341.019 269.42 341.019C262.323 341.019 255.477 338.397 250.196 333.656C251.776 329.865 254.442 326.625 257.859 324.345C261.276 322.065 265.29 320.847 269.398 320.843C273.506 320.839 277.523 322.05 280.944 324.323C284.365 326.597 287.037 329.831 288.624 333.62" fill="#B0D9FF"/>
<path d="M288.644 333.656C283.363 338.397 276.517 341.019 269.42 341.019C262.323 341.019 255.477 338.397 250.196 333.656C251.776 329.865 254.442 326.625 257.859 324.345C261.276 322.065 265.29 320.847 269.398 320.843C273.506 320.839 277.523 322.05 280.944 324.323C284.365 326.597 287.037 329.831 288.624 333.62" stroke="#020064" stroke-width="4" stroke-linecap="round" stroke-linejoin="round"/>
<path d="M260.236 305.772C260.479 303.905 261.286 302.157 262.548 300.761C263.81 299.365 265.468 298.386 267.301 297.957C269.134 297.527 271.054 297.666 272.805 298.355C274.557 299.045 276.056 300.252 277.104 301.816C274.913 303.939 272.187 305.429 269.217 306.125C266.246 306.822 263.143 306.7 260.236 305.772Z" fill="white" stroke="#020064" stroke-width="4" stroke-linecap="round" stroke-linejoin="round"/>
<path d="M333.512 274.292L254.28 240.292M210.812 150.284L293.704 181.756L210.812 150.284ZM341.064 267.788L328.024 218.088L341.064 267.788ZM173.98 231.96L132.688 240.94L173.98 231.96ZM338.38 137.396L330.412 162.86L338.38 137.396ZM142.98 174.708L180.392 199.968L142.98 174.708ZM122.792 125.048L122.52 101.7L122.792 125.048ZM142.368 132.352L191.204 58.38L142.368 132.352ZM94.908 158.972L57.984 155.844L94.908 158.972ZM122.796 182.572L121.816 232.004L122.796 182.572Z" stroke="#020064" stroke-width="4" stroke-linecap="round" stroke-linejoin="round"/>
<path d="M113.96 153.144C113.934 154.375 114.155 155.6 114.608 156.745C115.062 157.89 115.74 158.933 116.601 159.813C117.463 160.693 118.492 161.392 119.627 161.869C120.763 162.347 121.982 162.592 123.214 162.592C124.446 162.592 125.665 162.347 126.801 161.869C127.936 161.392 128.965 160.693 129.827 159.813C130.689 158.933 131.366 157.89 131.82 156.745C132.273 155.6 132.494 154.375 132.468 153.144V148.516C132.494 147.285 132.273 146.06 131.82 144.915C131.366 143.77 130.689 142.727 129.827 141.847C128.965 140.967 127.936 140.268 126.801 139.791C125.665 139.313 124.446 139.068 123.214 139.068C121.982 139.068 120.763 139.313 119.627 139.791C118.492 140.268 117.463 140.967 116.601 141.847C115.74 142.727 115.062 143.77 114.608 144.915C114.155 146.06 113.934 147.285 113.96 148.516V153.144Z" fill="white" stroke="#020064" stroke-width="4" stroke-linecap="round" stroke-linejoin="round"/>
<path d="M114.036 147.32C114.278 145.453 115.084 143.705 116.346 142.308C117.608 140.911 119.266 139.932 121.098 139.502C122.931 139.073 124.851 139.212 126.602 139.902C128.354 140.592 129.853 141.8 130.9 143.364C128.71 145.488 125.985 146.978 123.015 147.675C120.045 148.371 116.942 148.249 114.036 147.32Z" fill="white" stroke="#020064" stroke-width="4" stroke-linecap="round" stroke-linejoin="round"/>
</svg>
