<svg width="400" height="400" viewBox="0 0 400 400" fill="none" xmlns="http://www.w3.org/2000/svg">
<path d="M62.9 127.32C66.02 134.76 90.18 129.32 83.26 120.02C77.22 112 60.4 121.38 62.9 127.32Z" fill="#3D9CFB"/>
<path d="M118.16 54.54C109.2 62 127.16 75.22 131.3 63.4C135.3 76.46 154.96 67.76 148.52 56.88C155.72 60.42 158.64 48.5 155.24 44.44C154.135 43.1804 152.589 42.3928 150.92 42.24C163.7 33.12 142.92 18.92 137.2 32.84C137.2 15.12 111.32 26.12 120.58 39.7C110.48 36.26 107.38 54.56 118.16 54.54ZM116.62 45.76C117.8 41.58 122.78 46.12 125.36 43.52C128.44 40.42 118.76 31.82 127.36 28.9C135.96 25.98 129.54 38.38 135 40.08C141.12 41.96 141.42 27.46 148.26 32.9C154.66 37.98 141.54 39.4 143.62 44.42C145.7 49.44 154 43.68 151.62 51.08C150.18 55.42 143.62 47.32 141.4 51.52C139.18 55.72 148.08 60.32 143.4 63.8C139.16 66.98 136.64 63.8 134.94 60.02C129.22 47.02 126.94 73.56 120.4 59.36C119.3 57.04 126.4 56.04 125.38 52.44C124 47.28 114.56 52.96 116.62 45.76Z" fill="#3D9CFB"/>
<path d="M54 115.26C55.9034 122.878 55.8346 130.856 53.8 138.44C34.12 112.26 20.64 143.62 51.42 145.44C43.12 158.14 45.42 157.78 46.26 158.66C49.18 161.42 66.26 138.36 58.56 113.72C74.14 108.64 75.74 78.86 57.56 74.02C42.92 70.12 24.72 85.3 30.62 100.86C34.92 113.3 44.24 117.34 54 115.26ZM35.52 100.26C41.68 90.26 48.38 100.26 52.62 110.7C46.62 112 39.08 109.8 35.54 100.26H35.52ZM65.88 90C66.7908 93.6948 66.425 97.5892 64.8418 101.05C63.2586 104.51 60.5512 107.333 57.16 109.06C51 100.5 55.46 85.18 65.88 90ZM63.68 84.22C57 83.92 51.14 88.54 49.68 96.02C44.9 91.42 40.6 89.04 34.54 93.8C35.2 80 56.4 72 63.68 84.24V84.22Z" fill="#3D9CFB"/>
<path d="M69.4201 326.36C62.5801 321.44 53.0001 327.7 54.7601 336.58C52.8169 332.226 50.0531 328.288 46.6201 324.98C44.3001 322.98 41.1201 326.62 43.4801 328.62C46.1829 331.344 48.3893 334.518 50.0001 338C48.4747 338.186 47.0193 338.748 45.7645 339.634C44.5097 340.52 43.4947 341.706 42.8107 343.082C42.1267 344.458 41.7951 345.982 41.8457 347.518C41.8961 349.052 42.3271 350.552 43.1001 351.88C38.8083 348.248 35.0691 344.01 32.0001 339.3C31.7673 338.728 31.3233 338.268 30.7601 338.016C30.1971 337.762 29.5583 337.736 28.9763 337.942C28.3945 338.148 27.9143 338.57 27.6357 339.122C27.3571 339.672 27.3013 340.31 27.4801 340.9C31.6339 347.684 37.1337 353.544 43.6401 358.12C32.1401 363.48 40.2001 377.88 52.5001 376.22C62.7401 376.06 69.4801 371.6 79.4601 369.06C80.0127 368.884 80.4821 368.514 80.7803 368.016C81.0787 367.52 81.1853 366.93 81.0801 366.36C76.4801 354.96 78.5201 332.88 69.4201 326.36ZM65.2401 368.36C35.9401 379.92 33.5201 351.38 67.2401 367.64L65.2401 368.36ZM46.8201 347.32C48.2601 331.98 65.6601 359.32 71.8201 363.68C55.6201 360.98 46.3201 352.78 46.8201 347.28V347.32ZM66.5601 350.54C48.5601 330.28 71.0801 311.28 74.2801 359.26C71.5001 356.3 68.9801 353.24 66.5601 350.5V350.54Z" fill="#3D9CFB"/>
<path d="M237.26 96.5C213.76 69.76 192.4 74.98 179.26 83.86C175.756 86.2944 171.511 87.4264 167.26 87.06C160.6 86.8 130.5 82.12 114 126C114 126 100.2 170.46 94.6 178.84C89 187.22 80.6 200.06 69.2 201.34C61.54 202.22 57.68 196.98 51.2 198.5C37.92 201.56 37.2 233.54 52.02 262.3C67.8 293.08 92.98 304.3 116.02 307.86C103.12 262.8 109.4 227.36 152.98 222.26C167.22 194.8 151.96 175.94 145.6 160.26C135.24 135.14 152.2 113.52 173.5 105.2C212.1 90.14 244.62 120.78 250.7 164.3C250.7 164.3 260.78 123.24 237.26 96.5Z" fill="#3D9CFB"/>
<path d="M329.06 303.34C307.96 304.68 297.2 292.16 294.04 296.24C292.24 298.58 294.66 299.44 297.48 300.92C294.82 314.7 292.34 327.66 289.82 333.66C286.46 329.8 278.54 329.42 276.34 334.78C272.94 343.16 285.14 347.7 290.98 342.42C296.12 337.78 297.4 328.12 300.48 311.04C307.2 313.42 321.84 316.64 325.3 317.4C324.46 326.226 322.316 334.88 318.94 343.08C315.38 340 312.18 340.18 310.12 341.76C305.88 345 309.32 354.58 316.94 353.44C320.94 352.84 324.26 351.82 327.58 335.58C330.46 321.54 333.76 303.64 329.06 303.34ZM301.44 305.8C301.62 304.86 301.8 303.92 301.98 302.94C309.68 306.17 317.912 307.946 326.26 308.18C326.14 309.48 326.02 310.72 325.9 311.94C317.56 312 306.18 307.72 301.44 305.8Z" fill="#001434"/>
<path d="M274 111.26C284.26 107.88 279.5 93.98 272.7 73.5C274.058 74.9182 275.784 75.9282 277.686 76.416C279.588 76.9038 281.588 76.8498 283.46 76.26C293.2 74 288.44 56.62 282.7 61.44C275.18 72.2 266.7 62.02 266.3 69.74C269.24 78.14 273.5 89.86 274.62 95.34C256.7 87.06 257.06 116.8 274 111.26Z" fill="#001434"/>
<path d="M179.26 172C189.26 175.36 204.72 168.84 212.34 161.52C214.22 159.72 212.34 154.98 208.84 157.52C203 161.8 192.98 168.28 179.66 167.16C179.018 167.107 178.382 167.311 177.89 167.727C177.399 168.144 177.093 168.738 177.04 169.38C176.987 170.022 177.191 170.658 177.608 171.15C178.024 171.641 178.618 171.947 179.26 172Z" fill="#001434"/>
<path d="M74.5401 222.8C64.4001 230.28 59.0001 218.16 56.5401 225.54C57.0601 233.98 57.9401 245.86 57.5401 251.14C43.7201 239.24 34.9801 266.26 52.4801 265.4C63.8201 264.84 62.8601 251 61.6801 230.84C68.4201 242.22 83.6801 235.06 77.8601 223.3C77.4789 222.804 76.9199 222.474 76.3009 222.38C75.6819 222.288 75.0507 222.438 74.5401 222.8Z" fill="#001434"/>
<path d="M204.72 127.26C210.168 124.385 216.366 123.247 222.48 124C225.56 124.3 225.68 120.56 222.72 119.54C218.28 118.04 206.42 119.54 202.44 123.4C200.74 125.04 202.62 128.44 204.72 127.26Z" fill="#001434"/>
<path d="M167.06 127.82C169.74 126.4 167.06 121.58 163.92 122.82C153.92 126.96 135.74 147.38 142.68 149.38C143.267 149.604 143.916 149.601 144.5 149.372C145.085 149.143 145.562 148.703 145.84 148.14C148.42 142.24 158.28 132.48 167.06 127.82Z" fill="#001434"/>
<path d="M376.52 87.6C371.58 86.86 364.3 88.48 356.52 91.4C355 82.68 363.12 80.64 366.3 73.24C367.336 70.788 367.86 68.1498 367.84 65.4876C367.82 62.8256 367.254 60.1958 366.18 57.76C365.93 57.174 365.458 56.7108 364.868 56.4726C364.278 56.2346 363.616 56.2408 363.03 56.49C362.444 56.7394 361.98 57.2114 361.742 57.802C361.504 58.3928 361.51 59.054 361.76 59.64C368.46 75.76 347.32 79.64 352.02 93.18C348.96 94.46 345.88 95.88 342.84 97.4C341.886 95.8154 340.412 94.6104 338.668 93.9906C336.924 93.3706 335.02 93.374 333.28 94C329.28 95.04 329.98 99.84 332.84 99.06C336.06 98.18 336.84 98.44 338.4 99.7C331.672 103.267 325.284 107.444 319.32 112.18C317.66 110.5 318.02 109 318.74 106.54C321.66 96.66 313.34 97.44 307.94 92.76C305.4 90.54 317.82 76.4 313.94 74.3C313.68 74.1186 313.388 73.9906 313.08 73.9234C312.77 73.8564 312.45 73.8514 312.14 73.9092C311.828 73.967 311.532 74.086 311.268 74.2596C311.004 74.4332 310.776 74.6578 310.6 74.92C296.74 96.26 302.86 95.62 314.38 101.6C315.04 105.34 310.86 111.4 315.68 115.4C304.7 132.06 324.64 128 298.82 152.6C289.98 143.42 274.92 151.2 277.56 162.96C270.838 160.254 263.62 159 256.38 159.28C267.48 110 217.78 49.48 172 75.32C169.26 76.86 167.3 79.12 163.78 80C160.773 80.536 157.7 80.5766 154.68 80.12C137.32 79.5 120.88 83.9 105.48 103.2C83.8601 131.72 86.3601 165.2 63.6001 193.46C42.8001 219.34 33.4801 201.02 22.2801 204.32C19.0801 205.26 11.0601 208.68 10.2801 224.78C9.58126 239.994 12.3531 255.168 18.3858 269.154C24.4185 283.138 33.5537 295.568 45.1001 305.5C59.2047 318.114 76.6879 326.33 95.4001 329.14C101.4 361.44 131.82 368.74 162.24 359.54C185.5 375.82 214.94 367.3 229.98 343.54C237.5 332.16 235.98 316.3 241.78 304.62C248.2 292.02 264.34 284.78 273.26 281.26C290.18 274.56 289.4 262.78 278.98 256.36C272.84 253.86 263.08 252.46 260.2 246.5C266.68 239.96 272.32 234.2 276.2 229.7C285 245.9 295.16 264.48 305.52 272.62C322.82 286.24 353.64 276.76 355.78 253.32C357.58 233.8 348.82 217.7 339.92 200.04C331.92 184.04 339.08 174.66 329.42 166.72C342.52 144.94 360.22 160.52 360.62 135.54C360.84 122.86 361.5 120.64 371.72 120.1C391.84 119.02 398 91.3 376.52 87.6ZM344.9 101.72C347.98 100.16 351.12 98.7 354.16 97.42C356.012 99.9036 358.246 102.077 360.78 103.86C354.44 115.06 321.14 153 311.34 166.48C310.72 165.58 310.04 164.6 309.34 163.58C320.08 153.34 331.74 126.12 345.12 117.18C349.18 114.42 345.3 104.62 344.9 101.72ZM318.62 119.32L319.54 118.38C321.312 119.461 323.164 120.404 325.08 121.2C322.58 123.96 320.28 126.4 317.62 129.54C317.1 125.76 316.34 121.7 318.62 119.32ZM305.02 153.06C313.52 144.08 322.5 131.06 331.02 121.7C334.46 117.9 326.02 117.24 323.36 115.04C328.798 110.898 334.562 107.206 340.6 104C341.502 106.97 342.132 110.016 342.48 113.1C330.82 121.62 317.16 148.68 306.32 159.82C305.14 158.44 303.86 157.04 302.54 155.82L305.02 153.06ZM279.12 168.86C279.62 170.32 280.16 171.8 280.76 173.3C268.26 182.44 257.34 198.5 247.3 208.56C241.3 207.44 238.62 205.3 239.62 199.8C250.54 189.8 251.14 176.82 255.32 164.2C263.526 163.614 271.74 165.222 279.12 168.86ZM139.24 173.82C122.3 146.64 133.14 124.24 152.22 111.5C168.22 100.82 189.74 96.5 207.66 105.8C198.92 104.62 178.76 111.34 181.66 116.88C182.089 117.507 182.723 117.965 183.452 118.176C184.182 118.388 184.962 118.34 185.66 118.04C193.627 112.296 203.476 109.788 213.22 111.02C234.92 117.24 257.48 164.6 242.1 188.72C242.42 184.28 240.56 180.94 234.94 180.72C221.38 180.6 207.3 199.84 205.72 213.26C193.98 219.26 165.72 225.5 145.72 220.68C153.68 201.6 147.78 187.54 139.24 173.82ZM204.66 219.2C204.12 243.7 184.66 234.42 168.2 239.7C166.75 234.932 164.074 230.63 160.44 227.22C175.64 226.82 193.16 224.18 204.66 219.2ZM184.8 242.24C200.06 242.04 208.6 236.68 209.14 221.4C209.46 211.9 217.14 193.8 227.36 187.82C230.44 186 235.36 184.84 237.14 186.26C238.92 187.68 236.16 193.42 235.48 197.26C234.3 203.98 234.26 210.46 243.64 212.62C232.92 224.62 224.94 233.2 210.4 248.62C204.68 248.76 197.68 253.58 190.4 259.7C185.76 248.76 177.46 246.62 170.4 251.96C170.269 249.414 169.955 246.88 169.46 244.38C174.409 242.778 179.601 242.052 184.8 242.24ZM266 194.86C265.774 196.852 265.734 198.861 265.88 200.86C246.68 219.4 239.56 232.1 220.22 251.48C219.012 250.55 217.662 249.82 216.22 249.32C231.56 233.16 240.28 223.72 266 194.86ZM266.74 206.86C267.164 208.806 267.692 210.73 268.32 212.62C256.6 226.46 239.16 247.62 226.06 261.08C225.938 258.838 225.104 256.696 223.68 254.96C243.24 235.1 250.48 222.86 266.74 206.78V206.86ZM23.6601 269.36C10.1201 239.36 11.6601 212.12 23.6601 208.42C32.6401 205.68 45.3201 223.92 67.2401 196.42C90.2201 168.12 88.1001 134.08 109.24 106.08C131.36 78 155.48 86.88 164.46 84.52C168.68 83.4 172.3 80.08 176.28 78.26C218.68 59.06 259.86 112.04 251.84 157.88C244.58 128.6 228.82 108.12 203.02 98.42C177.22 88.72 132.56 108.9 126.4 137.8C119.48 170.16 156 187.5 140.68 220.38C90.8 221.52 82.6801 280.98 93.8201 324.22C73.5401 322.12 38.0001 301.32 23.6601 269.36ZM142.12 225.2C170.56 225.98 166.56 263.78 160.84 281.32C135.18 286.2 108.96 305.78 99.4201 326.36C86.44 283.36 96.2201 224 142.12 225.2ZM143.56 358C128 360 106 354 101.82 333.5C116.78 295.94 157.52 287.5 164.94 285.24C170.6 283.52 169.42 255.54 177.08 254.04C184.74 252.54 186.06 270.32 194.5 262.72C207.46 246.72 231.3 253.92 216.16 272.94C213.082 276.072 209.736 278.93 206.16 281.48C205.756 281.78 205.456 282.2 205.302 282.678C205.148 283.156 205.146 283.672 205.298 284.152C205.45 284.63 205.748 285.052 206.15 285.354C206.552 285.656 207.038 285.826 207.54 285.84C209.96 285.38 211.86 283.16 217.1 278.86C219.098 284.112 220.304 289.632 220.68 295.24C216.92 298.16 211.62 301.42 211.56 301.46C211.116 301.734 210.774 302.146 210.586 302.632C210.398 303.12 210.374 303.654 210.516 304.156C210.658 304.658 210.96 305.098 211.376 305.414C211.792 305.728 212.298 305.9 212.82 305.9C214.82 305.54 216.04 304.18 220.52 301.32C218.76 333.18 177.66 353.44 143.56 358ZM272.34 259.18C284.1 261.04 283.8 273.04 271.46 276.72C259.66 281.08 244.16 289.06 237.46 302.42C231.46 314.16 232.98 329.76 225.9 340.9C213 361.04 189.24 369.68 168.36 357.7C204.6 346.42 233.64 318.86 223.74 284.1C234.72 272.1 246.18 260.54 256.66 250C260 255.3 267 257.52 272.34 259.18ZM222 278.74C221.6 277.514 221.16 276.254 220.68 274.96C232.42 259.82 256.14 235.9 270.24 217.68C271.28 220.2 272.46 222.7 273.7 225.12C264.24 236.28 242 256.94 222 278.74ZM330.94 184.38C331.26 204.08 354.94 228.38 350.94 252.78C347.1 275.88 319.2 278.54 307.7 267.54C296.96 257.28 289.14 243.54 280.58 227.84C270.36 209.84 263.74 189.68 282.58 177.84C285.04 182.24 285.74 183.56 287.2 183.96C288.66 184.36 290.26 181.82 289.2 180.28C287.982 178.074 286.912 175.789 286 173.44C281.12 161.44 280.2 152.46 290 153.3C296 153.8 303.36 164.72 308.26 170.74C313.16 176.76 330.52 158.68 330.96 184.38H330.94ZM385.1 103.7C380.52 126.8 354.5 101.9 355.76 135.14C355.36 154.62 338.62 141.52 324.76 164.9C322.694 164.57 320.586 164.57 318.52 164.9C330.2 150.12 365.14 109.26 366.08 103.84C366.52 99.54 362.82 101.02 358.78 95.58C370.26 90.4 386.18 90.48 385.12 103.7H385.1Z" fill="#001434"/>
<path d="M188 136.98C199.4 136.06 208.74 139.66 198.9 150.04C195.66 153.46 199.2 155.9 201.92 153.76C208.84 148.36 208.66 142.42 207.02 138.48C204.22 132 192.48 131.08 186 132.74C181.86 133.82 182.36 137.44 188 136.98Z" fill="#001434"/>
<path d="M151.56 156.44C150.8 158.44 155.14 161.46 156.82 158.04C160.06 151.46 165.46 145.08 172.52 143.52C173.82 143.22 174.94 141.84 174.36 140.66C171.24 134.4 156 145.32 151.56 156.44Z" fill="#001434"/>
</svg>
