<svg width="400" height="400" viewBox="0 0 400 400" fill="none" xmlns="http://www.w3.org/2000/svg">
<path d="M258.16 101.16C253.404 99.142 248.432 97.679 243.34 96.8C243.14 96.7612 242.962 96.6496 242.84 96.487C242.718 96.3244 242.662 96.1224 242.68 95.92C242.734 90.9818 242.346 86.0488 241.52 81.18C241.26 79.92 240.92 77.62 239.82 76.76C237.5 74.96 232.42 80.76 230.98 82.22C224.98 88.1 224.66 89.86 223.66 89.58C222.98 89.58 220.2 88.26 213.66 87.04C211.398 86.674 209.112 86.4868 206.82 86.48H206.62C206.8 86.92 206.96 87.58 207.1 87.84C209.926 92.5824 213.446 96.8764 217.54 100.58C218.16 101.2 217.3 102.68 216.8 103.06C206.8 110.8 199.28 118.44 211.92 116.8C217.98 115.704 223.858 113.765 229.38 111.04C229.544 110.925 229.744 110.873 229.942 110.895C230.142 110.918 230.326 111.012 230.46 111.16C232.12 113.58 233.86 115.96 235.62 118.3C238 121.676 240.75 124.775 243.82 127.54C243.82 126.56 244.24 125.94 243.24 119.32C242.82 116.48 242.32 113.66 241.72 110.88C241.63 110.348 241.73 109.801 242 109.334C242.27 108.866 242.694 108.508 243.2 108.32C247.438 107.302 251.618 106.053 255.72 104.58C260.94 102.58 260 102.14 258.16 101.16Z" fill="#FFDE26"/>
<path d="M113.42 92.86H113.54C114.26 91.84 112.64 92.98 113.42 92.86Z" fill="#6CECC4"/>
<path d="M165.26 92.98C163.788 90.1566 161.967 87.5292 159.84 85.16C155.28 79.76 154.06 79.16 153.84 78.54C153.778 78.2614 153.776 77.9726 153.835 77.6932C153.893 77.4138 154.011 77.15 154.18 76.92C155.455 73.9686 156.531 70.9352 157.4 67.84C157.9 66.08 159.12 62.82 158.48 60.98C158.1 59.88 157.54 60.04 156.48 60.36C151.36 61.84 146.48 66.36 142.48 69.68C142.12 69.96 141.4 70.3 141.08 69.68C139.603 67.3544 138.001 65.1112 136.28 62.96C135.06 61.4 130.14 55.46 128.28 56.2C127.06 56.68 127.36 60.32 127.4 61.4C127.983 67.5248 129.403 73.5408 131.62 79.28C131.94 80.12 131.14 81.28 130.46 81.72C127.82 83.2 125.2 84.76 122.64 86.38C119.438 88.1454 116.462 90.2946 113.78 92.78C114.52 93.02 114.14 93.14 116.76 93.3C121.851 93.428 126.945 93.1806 132 92.56C132.38 92.56 132.84 92.56 132.9 93.06C133.26 95.52 133.7 97.94 134.2 100.36C134.657 103.979 135.705 107.499 137.3 110.78C138 111.92 138.26 112.28 139.1 111.22C141.36 108.38 144.12 99.88 145.1 96.4C145.28 95.76 146.02 94.86 146.78 94.94C151.653 95.4198 156.557 95.48 161.44 95.12C165.68 94.64 165.88 94.62 165.26 92.98Z" fill="#FFDE26"/>
<path d="M112.86 180.58C112.271 179.311 111.943 177.937 111.895 176.538C111.847 175.14 112.08 173.747 112.58 172.44C113.154 171.085 113.907 169.814 114.82 168.66C115.496 167.771 116.098 166.828 116.62 165.84C117.18 164.5 117.22 164.78 116.24 164.38C113.3 163.22 106.24 170.72 99.1599 162.68C97.9577 161.222 96.6183 159.882 95.1599 158.68C93.6199 157.48 92.9199 157.12 92.2199 159.12C91.1399 162.18 91.3199 165.62 89.9199 168.58C88.7417 171.005 86.7337 172.928 84.2599 174C82.5043 174.661 80.8055 175.464 79.1799 176.4C76.9999 177.72 79.6599 178.24 79.4599 178.14C82.0399 179.38 84.7599 179.62 86.8799 181.68C88.5101 183.321 89.5209 185.477 89.7399 187.78C89.8999 189.52 88.2799 195 90.0799 195.92C92.5399 197.18 96.7799 191.02 97.9599 189.44C99.2653 187.37 101.131 185.713 103.34 184.66C105.882 183.68 108.698 183.68 111.24 184.66C113.292 185.314 115.383 185.842 117.5 186.24C115.785 184.497 114.232 182.603 112.86 180.58Z" fill="#FFDE26"/>
<path d="M249.08 317.22C242.18 317.22 235.48 320.4 229.28 323.22C202.44 335.04 188.22 320.5 174.84 317.64C172.622 317.036 170.266 317.184 168.14 318.06C165.22 319.46 164.26 322.64 163.88 325.64C163.3 331.226 163.921 336.872 165.7 342.2C171.94 360.62 190.36 373.02 209.7 373.44C217.85 373.498 225.924 371.878 233.422 368.682C240.92 365.484 247.678 360.78 253.28 354.86C258.82 348.86 263.42 340.5 263.5 332.08C263.594 330.142 263.288 328.204 262.602 326.388C261.916 324.572 260.864 322.916 259.512 321.522C258.162 320.13 256.538 319.028 254.744 318.288C252.948 317.548 251.022 317.184 249.08 317.22ZM253.74 342C250.962 347.726 246.912 352.74 241.9 356.66C221.36 372.5 182.12 369.6 171.24 343.34C169.06 337.88 168.2 329.8 172.92 325.34C179.06 319.56 188.32 325.34 195.42 328.98C201.462 331.642 208.048 332.84 214.64 332.48C223.86 331.28 230.28 327.14 235.36 325.14C239.82 322.68 248.5 321.48 253.52 326.58C257.68 330.82 256 337.26 253.74 342Z" fill="#FF3E74"/>
<path d="M271.28 250.92C252.26 239.84 185.84 237.12 153.62 247.7C150.96 248.58 141.12 251.42 142.74 255.8C143.548 257.436 144.869 258.762 146.5 259.58C169.9 273.58 250.08 272.62 272.08 260C277.54 256.9 276.72 254 271.28 250.92ZM264.44 254.92C263.72 259.48 256.44 260.52 252.96 261.24C229.44 266.02 179.76 265.6 160.26 260.58C157.68 259.92 151.6 258.58 152.86 254.76C154.12 250.94 160.54 249.88 163.9 249.18C185.64 244.68 232.94 244.58 254.72 249.18C257.24 249.72 263.42 250.58 264.38 253.76C264.528 254.094 264.55 254.472 264.44 254.82V254.92Z" fill="#FF3E74"/>
<path d="M218.22 51.02C218.22 59.94 232.76 61.96 233.18 52.4C232.74 42.56 218.22 43.64 218.22 51.02Z" fill="white"/>
<path d="M242.62 14.3C242.034 14.1528 241.422 14.135 240.83 14.248C240.236 14.3609 239.674 14.6018 239.182 14.954C238.692 15.3061 238.282 15.7611 237.986 16.2871C237.688 16.8131 237.508 17.3977 237.46 18C237.32 23.42 246.68 25.4 247 19.38C246.96 18.1602 246.504 16.9908 245.708 16.0665C244.91 15.1422 243.82 14.5188 242.62 14.3Z" fill="white"/>
<path d="M202.36 21.82C201.776 21.673 201.166 21.6546 200.574 21.7664C199.981 21.8782 199.42 22.1174 198.929 22.4674C198.439 22.8174 198.03 23.2698 197.731 23.7936C197.433 24.3172 197.251 24.8994 197.2 25.5C197.06 30.92 206.42 32.88 206.74 26.86C206.696 25.6462 206.236 24.4842 205.44 23.5672C204.642 22.6504 203.556 22.0338 202.36 21.82Z" fill="white"/>
<path d="M198.12 58.52C197.1 58.288 196.041 58.2822 195.018 58.5036C193.996 58.7248 193.034 59.1674 192.201 59.8004C191.367 60.4334 190.683 61.2414 190.196 62.1674C189.708 63.0934 189.43 64.1148 189.38 65.16C189.38 74.44 204.52 76.48 204.94 66.52C204.894 64.6064 204.192 62.7668 202.95 61.3102C201.708 59.8536 200.002 58.8684 198.12 58.52Z" fill="white"/>
<path d="M324.38 243.04C321.502 240.364 318.464 237.866 315.28 235.56C314.78 235.2 314.88 234.5 315.06 233.98C315.92 231.36 320.72 215.06 316.38 214.72C313.9 214.54 310.38 219.34 309.08 220.92C307.78 222.5 306.24 224.32 304.94 226.1C304.7 226.44 303.9 227.06 303.46 226.7C300.306 223.774 296.726 221.346 292.84 219.5C290.36 218.54 294.32 228.74 295.38 231.2C295.68 231.88 295.06 232.88 294.52 233.4C292.9 235.02 284.52 243 286.9 244.74C288.9 246.24 293.32 245.74 295.62 245.7C301.62 245.7 302.02 244.96 302.28 245.92C303.312 249.824 304.81 253.592 306.74 257.14C307 257.52 307.4 258.28 307.86 258.46C308.594 257.35 309.052 256.082 309.2 254.76C309.994 251.662 310.622 248.524 311.08 245.36C311.18 244.62 311.98 243.36 312.86 243.48C314.86 243.74 316.86 243.92 318.86 244.04C320.924 244.394 323.036 244.394 325.1 244.04C324.94 243.66 324.66 243.32 324.38 243.04Z" fill="#FFDE26"/>
<path d="M290.94 79.72C291.882 80.293 292.94 80.6448 294.036 80.7492C295.134 80.8536 296.24 80.7078 297.272 80.3226C298.304 79.9374 299.234 79.3232 299.994 78.5258C300.756 77.7286 301.324 76.7692 301.66 75.72C302.522 73.5322 302.996 71.2108 303.06 68.86C289.6 63.78 285.38 76 290.94 79.72Z" fill="#FF3E74"/>
<path d="M264 68.54C263.486 69.182 263.104 69.9202 262.876 70.7112C262.65 71.5024 262.584 72.3308 262.68 73.148C262.776 73.9652 263.036 74.755 263.44 75.4712C263.846 76.1876 264.39 76.816 265.04 77.32C265.856 77.8388 266.77 78.185 267.726 78.337C268.68 78.489 269.656 78.4436 270.594 78.2038C271.53 77.964 272.408 77.5346 273.174 76.9422C273.938 76.35 274.574 75.6072 275.04 74.76C276.382 72.224 277.108 69.4084 277.16 66.54C272.58 64.72 267.02 64.48 264 68.54Z" fill="#FF3E74"/>
<path d="M223.64 181.82C223.64 186.58 223.78 188.36 223.64 189.36C224.18 189.5 224.8 189.8 225.28 189.96L240.18 194.82C244.82 182.42 242.86 188.02 251.22 183.84C268.08 175.38 267.62 151.84 251.96 142.52C247.282 139.732 241.806 138.588 236.404 139.269C231 139.95 225.98 142.418 222.14 146.28C218.172 150.67 215.984 156.382 216.002 162.299C216.02 168.217 218.244 173.915 222.24 178.28C222.774 178.686 223.186 179.231 223.434 179.855C223.68 180.479 223.752 181.158 223.64 181.82Z" fill="white"/>
<path d="M302.58 290.86C300.86 286.46 297.1 285.12 292.58 286.86C289.964 287.964 287.534 289.47 285.38 291.32C286.98 303.08 286.5 302.78 286.72 302.6L294.72 296C296.44 294.58 296.52 297.46 295.38 298.38C286.7 305.58 287.26 305.14 286.92 305.3C287.386 311.128 287.554 316.976 287.42 322.82C292.06 322.362 296.332 320.098 299.32 316.52C304.7 309.8 305.7 298.74 302.58 290.86Z" fill="#FFDE26"/>
<path d="M116.5 305.32C118.14 313.78 122.82 320.32 131.24 322.36C131.1 316.36 131.24 310.48 131.76 304.92L124.2 298.66C123.08 297.74 124.9 294.86 125.92 295.7L132.1 300.82C132.4 297.44 132.78 294.06 133.22 290.7C130.804 288.708 128.007 287.232 125 286.36C114.84 283.78 115.3 299.16 116.5 305.32Z" fill="#FFDE26"/>
<path d="M276.48 259.46C264.18 274.62 181.4 277.66 149.7 264.94C146.705 263.916 143.973 262.244 141.7 260.04C132.08 295.34 125.46 353.44 156.24 373.02C181.3 389.02 215.82 390.62 243.64 381.76C255.76 377.88 268.06 371.5 275.76 361.04C292 339 283.62 285.78 276.48 259.46ZM175.82 286.46C176.8 280.68 180.96 274.46 187.56 275.44C194.88 276.46 199.76 283.96 202.26 290.22C205.84 300 202.98 308.46 209.98 312.88C216.98 317.3 218.66 306.68 217.58 302.3C217.57 302.174 217.57 302.046 217.58 301.92C215.472 297.058 214.78 291.698 215.58 286.46C216.56 280.68 220.72 274.46 227.32 275.44C241.32 277.44 250.48 305.2 238.6 313.92C233.2 317.92 226.74 314.38 222.8 310.04C221.892 309.038 221.064 307.968 220.32 306.84C219.74 311.28 217.6 315.68 213.34 316.84C208.08 318.18 204.82 313.4 203.2 308.3C202.338 310.586 200.82 312.568 198.84 314C188.44 321.54 173.02 303.08 175.82 286.46ZM265.24 336C259.92 361.32 230.12 378.86 204.68 376.3C195.468 375.416 186.694 371.942 179.374 366.278C172.055 360.616 166.489 352.996 163.32 344.3C160.62 335.78 158.16 317.76 169.94 314.58C174.98 313.22 180.46 315.78 185.02 317.7C191.48 320.38 197.72 323.3 204.72 324.3C210.83 325.218 217.07 324.762 222.98 322.96C231.5 320.28 244.74 311.48 255.6 314.96C264.38 317.74 266.96 327.76 265.24 336Z" fill="#FFDE26"/>
<path d="M293.84 100.6V125.38L316 106.2L293.84 100.6Z" fill="white"/>
<path d="M98.1602 112.88L113.34 119.86C112.58 115.58 111.807 111.307 111.02 107.04L98.1602 112.88Z" fill="white"/>
<path d="M182.86 13.6L166.18 17.28L176 26.3L182.86 13.6Z" fill="white"/>
<path d="M138.14 163.04C144.68 170 151.06 178 152.84 187.6L157.56 188.04C155.88 169.26 138.56 150.72 122.12 141.76C103.64 131.76 79.4799 132.8 64.54 148.66C58.0372 155.82 53.4062 164.477 51.06 173.86C50.6976 175.058 50.8196 176.351 51.4 177.46C52.46 178.8 53.84 177.98 54.56 176.74C55.379 174.794 56.0476 172.788 56.56 170.74C58.127 166.471 60.2665 162.434 62.9199 158.74C74.7599 142.44 96.66 138.9 114.66 146.26C123.592 150.118 131.597 155.839 138.14 163.04Z" fill="#6CECC4"/>
<path d="M343.3 135.34C339.08 139.34 342 142.26 340.76 154.42C339.2 168 334.56 178.28 321.4 181.16C320.18 184.52 316.5 191.02 305.92 191.84C306.42 191.84 306.88 192.04 307.28 192.08C313.686 192.568 320.114 191.476 326 188.9C345.18 180.44 350.82 155.52 348.7 136.56C348 133.1 345.66 133.14 343.3 135.34Z" fill="#6CECC4"/>
<path d="M169.16 145.88C165.562 141.701 163.576 136.374 163.56 130.86C164.56 121.32 170.2 111.9 176.42 104.64C177.548 103.609 178.524 102.424 179.32 101.12C180.071 99.0596 180.071 96.8004 179.32 94.74C178.52 92.48 177.06 91.58 175.06 93.24C172.159 95.9468 169.63 99.0272 167.54 102.4C152.92 124 152.76 149.14 174.72 163.42C167.2 156.48 168 149.32 169.16 145.88Z" fill="#FF3E74"/>
<path d="M135.38 82.9C136.32 84.12 138.32 81.38 137.5 80.32C136.927 79.5938 136.548 78.7332 136.4 77.82C136.26 77.02 135.3 77.3 134.88 77.66C134.559 77.9214 134.311 78.2614 134.161 78.6468C134.01 79.0324 133.962 79.4502 134.02 79.86C134.214 80.9706 134.681 82.0154 135.38 82.9Z" fill="#0D128A"/>
<path d="M141.42 80.16C142.12 81.8 144.3 79.3 143.78 78.16C143.26 77.02 142.92 76.16 142.48 75.14C141.78 73.5 139.6 76 140.1 77.14L141.42 80.16Z" fill="#0D128A"/>
<path d="M150.64 78.8C150.34 77.14 148.04 79.58 148.26 80.8C148.394 81.568 148.373 82.3552 148.197 83.115C148.022 83.8746 147.697 84.5916 147.24 85.2234C146.783 85.8554 146.205 86.3894 145.538 86.7942C144.872 87.1988 144.131 87.466 143.36 87.58C141.06 88.08 137.52 87.82 135.98 85.8C135.04 84.58 133.04 87.32 133.86 88.38C136.56 91.9 142.86 91.44 146.22 89.18C147.883 88.0638 149.186 86.4886 149.97 84.646C150.755 82.8032 150.988 80.7724 150.64 78.8Z" fill="#0D128A"/>
<path d="M309.24 236.28C310.012 235.308 310.534 234.16 310.76 232.94C310.88 232.34 310.62 231.54 309.86 231.72C309.1 231.9 306.94 235.88 307.54 236.7C308.14 237.52 308.9 236.74 309.24 236.28Z" fill="#0D128A"/>
<path d="M303.24 235.06C304.04 235.06 304.66 234.2 304.92 233.58L305.94 231.24C306.16 230.7 306.2 229.66 305.44 229.58C304.68 229.5 304.02 230.42 303.76 231.04L302.74 233.38C302.52 234 302.48 234.96 303.24 235.06Z" fill="#0D128A"/>
<path d="M309.16 238.78C307.82 240.52 304.02 239.94 302.44 239.06C301.486 238.56 300.71 237.776 300.224 236.814C299.736 235.854 299.56 234.766 299.72 233.7C300.12 231.5 297.58 232.86 297.32 234.3C296.98 235.89 297.19 237.548 297.918 239.002C298.644 240.456 299.844 241.618 301.32 242.3C302.83 242.982 304.514 243.18 306.14 242.866C307.766 242.55 309.256 241.738 310.4 240.54C311.48 239.18 310.56 236.98 309.16 238.78Z" fill="#0D128A"/>
<path d="M254.22 163.58C254.128 163.197 253.952 162.84 253.706 162.532C253.46 162.224 253.15 161.974 252.798 161.799C252.446 161.623 252.06 161.527 251.666 161.517C251.272 161.507 250.882 161.583 250.52 161.74C248.16 162.58 246.86 165.52 245.54 167.74C244.36 167.457 243.292 166.822 242.48 165.92C244.6 163.42 246.48 159.44 243.78 157.36C240 154.46 238.1 161.74 238.44 164.18C238.512 164.725 238.64 165.261 238.82 165.78C237.28 166.371 235.588 166.448 234 166C234.05 165.214 234.05 164.426 234 163.64C233.88 160.5 231.64 153.52 227.28 156.66C222.92 159.8 225.76 166.44 231.44 168.66C230.414 172.977 229.076 177.215 227.44 181.34C226.76 183.5 229.08 183.34 229.62 181.54C230.86 177.54 232.6 173.44 233.48 169.24C235.744 169.669 238.086 169.271 240.08 168.12C241.046 169.392 242.39 170.323 243.92 170.78C241.198 175.413 239.442 180.55 238.76 185.88C238.54 188.1 241.02 186.74 241.16 185.26C241.814 180.234 243.502 175.399 246.12 171.06C249.76 170.96 254.9 167.34 254.22 163.58ZM228.22 161.74C227.64 160.1 229.18 158.76 230.22 160.32C231.134 161.712 231.634 163.335 231.66 165C231.086 164.662 230.538 164.281 230.02 163.86C229.274 163.274 228.644 162.555 228.16 161.74H228.22ZM242.8 159.34C244.6 160.28 241.92 164.24 241.12 165.02C240.24 163.14 240.28 158 242.74 159.34H242.8ZM248 167.82C248.494 166.796 249.07 165.813 249.72 164.88C252.1 161.92 254.68 163.88 251.02 166.44C250.158 167.165 249.114 167.642 248 167.82Z" fill="#0D128A"/>
<path d="M228.64 96.78C229.026 96.6286 229.364 96.3792 229.624 96.0566C229.884 95.7338 230.054 95.349 230.12 94.94C230.26 94.26 230.38 93.58 230.52 92.94C230.66 92.3 230.38 91.5 229.6 91.72C229.214 91.8714 228.876 92.1208 228.616 92.4436C228.356 92.7662 228.186 93.151 228.12 93.56C227.98 94.24 227.86 94.92 227.72 95.56C227.58 96.2 227.86 97 228.64 96.78Z" fill="#0D128A"/>
<path d="M236 93.22C235.654 93.4334 235.362 93.726 235.15 94.0736C234.938 94.4212 234.812 94.814 234.78 95.22V97.22C234.768 97.372 234.798 97.5244 234.87 97.6594C234.94 97.7946 235.048 97.9064 235.18 97.9822C235.312 98.0578 235.464 98.094 235.616 98.0866C235.768 98.0792 235.916 98.0282 236.04 97.94C236.39 97.7304 236.684 97.4388 236.896 97.0904C237.11 96.742 237.234 96.3472 237.26 95.94V94C237.286 93.8432 237.266 93.682 237.2 93.5372C237.134 93.3922 237.028 93.27 236.892 93.1864C236.758 93.1026 236.6 93.061 236.442 93.067C236.282 93.0732 236.128 93.1264 236 93.22Z" fill="#0D128A"/>
<path d="M235.56 101.02C233.78 102.34 231.44 103.58 229.26 102.38C228.484 101.893 227.838 101.226 227.374 100.435C226.912 99.645 226.646 98.7548 226.6 97.84C226.4 95.84 224 97.84 224.14 99.2C224.168 100.529 224.554 101.825 225.258 102.952C225.962 104.079 226.958 104.994 228.14 105.6C231.04 106.82 234.02 105.1 236.32 103.4C237.44 102.52 237.38 99.7 235.56 101.02Z" fill="#0D128A"/>
<path d="M94 174.32C94.78 176.04 96.86 173.34 96.36 172.32C95.62 170.68 95.58 170.32 95.12 170.32C94.08 170.2 92.98 172.12 93.34 172.9L94 174.32Z" fill="#0D128A"/>
<path d="M99.1199 172.34C99.7399 173.2 101.12 171.96 101.38 170.76C101.5 169.94 101.38 169.94 100.36 168.5C99.7599 167.66 98.3599 168.9 98.0999 170.1C97.9999 170.92 98.1199 170.92 99.1199 172.34Z" fill="#0D128A"/>
<path d="M103.58 174.42C102.86 176.6 101.88 179.14 99.38 179.7C98.1482 179.845 96.8998 179.664 95.7594 179.177C94.619 178.689 93.6262 177.911 92.88 176.92C91.86 175.74 89.88 178.5 90.76 179.5C91.7734 180.881 93.1956 181.908 94.8254 182.436C96.455 182.964 98.2094 182.965 99.84 182.44C103.04 181.1 104.72 177.74 105.84 174.62C106.46 172.48 104.14 172.74 103.58 174.42Z" fill="#0D128A"/>
<path d="M262.5 176.16C264.864 172.367 266.226 168.036 266.456 163.572C266.686 159.109 265.776 154.661 263.814 150.645C261.852 146.63 258.902 143.179 255.24 140.617C251.578 138.055 247.326 136.466 242.88 136C220 134 204.16 162.14 219.64 180.32C219.74 180.46 221.16 181.58 221.16 181.58C221.16 181.58 221.16 188.58 221.16 191.46C221.16 191.7 221.26 192.18 221.54 192.26L239.68 198.26C240.6 198.56 241.32 197.64 241.68 196.88L244.9 188.88C248.546 188.072 251.988 186.527 255.016 184.339C258.042 182.152 260.59 179.368 262.5 176.16ZM225.34 190C224.84 189.84 224.26 189.54 223.7 189.4C223.7 188.36 223.7 188.46 223.7 181.86C223.806 181.216 223.736 180.556 223.502 179.948C223.266 179.339 222.872 178.805 222.36 178.4C218.366 174.035 216.14 168.337 216.122 162.419C216.104 156.502 218.292 150.79 222.26 146.4C226.38 142.213 231.88 139.662 237.738 139.219C243.596 138.777 249.416 140.473 254.118 143.994C258.82 147.515 262.086 152.622 263.312 158.367C264.538 164.112 263.638 170.107 260.78 175.24C259.184 177.87 257.084 180.158 254.598 181.971C252.112 183.783 249.292 185.085 246.3 185.8C243.5 186.48 243.68 185.8 240.3 194.94L225.34 190Z" fill="#0D128A"/>
<path d="M202.96 118.14C204.96 122.14 213.92 119.52 216.96 118.64C220.924 117.483 224.79 116.012 228.52 114.24C232.1 119.594 236.114 124.644 240.52 129.34C241.42 130.18 242.52 131.34 243.98 130.98C247.52 129.9 246.18 122.86 245.98 120.4C245.6 117.24 245.08 114.08 244.46 110.94C246.98 110.3 249.5 109.56 251.98 108.76C255.24 107.7 260.46 106.44 262.32 103.22C265.72 97.38 249.82 94.64 245.18 93.8C245.17 90.5328 244.99 87.2684 244.64 84.02C244.36 81.28 244.18 74.98 241.16 73.52C238.14 72.06 233.34 76.94 231.4 78.78C228.912 81.1706 226.55 83.6872 224.32 86.32C219.34 84.66 203.96 79.5 203.82 87.08C203.82 90.46 207.22 94.04 209.22 96.44C210.84 98.44 212.54 100.28 214.3 102.1C212.088 103.885 209.984 105.802 208 107.84C206 110 201.2 114.64 202.96 118.14ZM216.72 103.08C217.22 102.7 218.08 101.22 217.46 100.6C213.366 96.8964 209.846 92.6024 207.02 87.86C206.88 87.6 206.72 86.94 206.54 86.5H206.74C209.032 86.5068 211.318 86.694 213.58 87.06C216.886 87.6714 220.148 88.5068 223.34 89.56C224.74 90.02 224.56 88.62 230.98 82.24C232.42 80.82 237.5 74.98 239.82 76.78C240.92 77.64 241.26 79.94 241.52 81.2C242.346 86.0688 242.734 91.0018 242.68 95.94C242.662 96.1424 242.718 96.3444 242.84 96.507C242.962 96.6696 243.14 96.7812 243.34 96.82C248.43 97.7018 253.404 99.1646 258.16 101.18C260.16 102.18 260.88 102.62 255.64 104.62C251.538 106.096 247.36 107.345 243.12 108.36C242.614 108.548 242.19 108.906 241.92 109.374C241.65 109.841 241.55 110.388 241.64 110.92C242.24 113.7 242.74 116.52 243.16 119.36C244.16 126 243.78 126.54 243.74 127.58C240.67 124.816 237.92 121.716 235.54 118.34C233.78 116 232.04 113.62 230.38 111.2C230.246 111.052 230.062 110.958 229.862 110.935C229.664 110.913 229.464 110.965 229.3 111.08C223.774 113.799 217.898 115.737 211.84 116.84C199.24 118.46 206.6 110.88 216.72 103.08Z" fill="#0D128A"/>
<path d="M130.56 95.74C131 98.68 131.54 101.6 132.2 104.5C132.86 107.4 133.6 113.3 136.38 114.82C140.9 117.26 145.24 103.44 146.76 98.16C149.96 98.42 153.18 98.54 156.36 98.48C159.54 98.42 165.26 98.6 167.38 95.4C169.5 92.2 165.86 87.4 163.86 84.9C161.581 82.008 159.137 79.25 156.54 76.64C158.54 72.02 164.42 56.98 158.54 57C155.08 57 151.28 60.14 148.54 62.02C146.54 63.44 144.54 64.94 142.54 66.52C140.734 63.7132 138.729 61.0398 136.54 58.52C134.54 56.34 130.66 51.48 127.36 53.9C123.36 56.84 124.66 64.4 125.36 68.44C126.119 72.3698 127.182 76.2348 128.54 80C125.64 81.68 122.76 83.42 119.96 85.28C117.16 87.14 111.16 90.14 110.76 93.88C110.26 98.64 126 96.36 130.56 95.74ZM130.3 81.74C130.98 81.34 131.78 80.14 131.46 79.3C129.245 73.5602 127.825 67.5444 127.24 61.42C127.24 60.34 126.9 56.7 128.12 56.22C129.98 55.48 134.88 61.42 136.12 62.98C137.841 65.1312 139.443 67.3744 140.92 69.7C141.24 70.22 141.96 69.88 142.32 69.7C146.32 66.32 151.26 61.86 156.32 60.38C157.46 60.06 158.02 59.9 158.32 61C158.96 62.84 157.74 66.1 157.24 67.86C156.371 70.9552 155.295 73.9886 154.02 76.94C153.853 77.1636 153.735 77.4198 153.673 77.6918C153.611 77.964 153.607 78.246 153.66 78.52C153.694 78.6174 153.748 78.7062 153.82 78.78C156.88 81.82 163.66 89.2 165.1 92.96C165.7 94.58 165.7 94.6 161.22 95.1C156.337 95.46 151.433 95.3998 146.56 94.92C145.8 94.92 145.06 95.74 144.88 96.38C143.9 99.84 141.14 108.38 138.88 111.2C138.04 112.26 137.78 111.9 137.08 110.76C135.485 107.479 134.438 103.959 133.98 100.34C133.48 97.92 133.04 95.5 132.68 93.04C132.68 92.58 132.16 92.48 131.78 92.54C126.695 93.199 121.567 93.4798 116.44 93.38C115.419 93.4536 114.396 93.2752 113.46 92.86C116.143 90.3746 119.118 88.2254 122.32 86.46C125.04 84.86 127.66 83.3 130.3 81.82V81.74ZM113.54 92.78H113.42C112.64 93 114.26 91.84 113.54 92.86V92.78Z" fill="#0D128A"/>
<path d="M324.68 238.74C322.4 236.74 320.02 234.74 317.58 233.04C318.654 229.628 319.464 226.138 320 222.6C320.36 220.08 321.68 212.6 318 211.64C314.94 210.9 311.3 215.32 309.54 217.2C307.752 219.108 306.07 221.11 304.5 223.2C302.84 221.86 301.14 220.58 299.38 219.36C297.62 218.14 294.18 215.36 291.68 216.02C286.3 217.36 290.78 228.18 292.56 232.3C290.88 234.06 289.24 235.88 287.74 237.78C286.24 239.68 282.66 243.78 284 246.58C285.34 249.38 290.24 248.8 292.48 248.84C295.01 248.87 297.54 248.77 300.06 248.54C301.04 252.1 304.48 264.26 308.46 261.06C310.72 259.24 311.4 255.26 312.02 252.6C312.48 250.6 312.86 248.74 313.18 246.8C315.52 247.06 317.88 247.24 320.24 247.32C322.6 247.4 326.94 247.96 328.38 245.46C329.82 242.96 326.38 240.26 324.68 238.74ZM323.56 244.22C319.996 244.19 316.436 243.948 312.9 243.5C312.02 243.5 311.22 244.64 311.12 245.38C310.654 248.544 310.026 251.68 309.24 254.78C309.092 256.102 308.634 257.37 307.9 258.48C307.44 258.3 307.04 257.54 306.78 257.16C305.852 255.684 305.094 254.106 304.52 252.46C301.94 245.84 302.68 245.3 301.42 245.42C300.16 245.54 297.42 245.68 295.66 245.72C293.36 245.72 288.9 246.26 286.94 244.76C284.46 242.88 294.24 233.84 294.66 233.3C294.944 233.056 295.162 232.746 295.294 232.396C295.428 232.048 295.47 231.67 295.42 231.3C294.34 228.84 290.4 218.64 292.88 219.6C296.766 221.446 300.346 223.874 303.5 226.8C303.94 227.16 304.74 226.54 304.98 226.2C306.28 224.42 307.66 222.7 309.12 221.02C310.58 219.34 313.94 214.64 316.42 214.82C320.76 215.16 315.96 231.46 315.1 234.08C314.92 234.6 314.82 235.3 315.32 235.66C318.884 238.182 322.228 240.998 325.32 244.08C324.5 244.1 323.8 244.22 323.56 244.22Z" fill="#0D128A"/>
<path d="M119.74 189.04C123.74 185.86 115.98 180.46 114.9 177.8C113.38 174.08 115.52 171.42 117.46 168.42C118.34 167.04 120.28 164.26 119.56 162.42C118.84 160.58 117.06 161.16 115.7 161.38C112.42 162 109.34 164 106 163.14C102.22 162.26 100.34 158.54 97.58 156.16C96.08 154.84 94.16 153.52 92.34 155.04C87.16 159.34 91.14 168.16 84.34 171.24C81.96 172.22 72.98 175.58 75.72 179.66C77.16 181.82 80.86 181.98 82.96 183.06C84.346 183.747 85.503 184.821 86.291 186.152C87.079 187.483 87.4642 189.014 87.4 190.56C87.4 193.56 85.98 201.14 91.4 198.74C93.6462 197.604 95.6132 195.986 97.16 194C99.52 191.28 101.16 187.8 105.02 187.26C108.08 186.84 111.18 188.44 114.12 189.12C115.76 189.42 118.22 190.22 119.74 189.04ZM98 189.52C96.82 191.1 92.58 197.26 90.12 196C88.32 195.08 89.94 189.6 89.78 187.86C89.5608 185.557 88.5502 183.401 86.92 181.76C84.8 179.76 82.08 179.46 79.5 178.22C79.7 178.22 77.04 177.8 79.22 176.48C80.83 175.518 82.5156 174.689 84.26 174C86.7774 172.924 88.8174 170.969 90 168.5C91.4 165.54 91.22 162.1 92.3 159.04C93 157.04 93.7 157.4 95.24 158.6C96.6982 159.802 98.0378 161.142 99.24 162.6C100.154 163.751 101.311 164.687 102.628 165.341C103.945 165.994 105.39 166.349 106.86 166.38C110.42 166.38 114.54 163.6 116.32 164.38C117.3 164.78 117.26 164.5 116.7 165.84C115.84 167.84 113.6 169.84 112.7 172.44C112.2 173.747 111.967 175.14 112.015 176.538C112.063 177.937 112.391 179.311 112.98 180.58C114.34 182.649 115.894 184.585 117.62 186.36C115.501 185.97 113.41 185.442 111.36 184.78C108.818 183.8 106.002 183.8 103.46 184.78C101.227 185.809 99.3326 187.453 98 189.52Z" fill="#0D128A"/>
<path d="M296 283.04C291.956 283.888 288.208 285.792 285.14 288.56C283.564 277.346 281.306 266.24 278.38 255.3C278.42 254.988 278.42 254.672 278.38 254.36C277.86 248.82 270.04 246.22 265.72 244.78C238.34 235.64 181.54 235.68 154.3 244.62C149.36 246.24 141.7 248.88 140.3 254.62C140.09 255.48 140.09 256.38 140.3 257.24C137.414 266.968 135.248 276.894 133.82 286.94C127.46 282.62 119.56 280.26 115.82 288.74C113.819 293.564 113.072 298.814 113.649 304.004C114.226 309.194 116.108 314.154 119.12 318.42C122.206 322.296 126.628 324.878 131.52 325.66C132.36 342.76 136.6 360.1 149.08 371.66C174.94 395.44 241.78 397.56 271.78 368.88C283.56 357.64 286.74 342.02 287.5 325.82C291.758 325.214 295.726 323.306 298.86 320.36C302.864 316.266 305.47 311.008 306.3 305.34C307.38 298.14 307.2 281.26 296 283.04ZM132.2 300.82L126 295.7C124.98 294.86 123.16 297.7 124.28 298.66L131.84 304.92C131.42 310.48 131.18 316.38 131.32 322.36C122.9 320.36 118.22 313.78 116.58 305.32C115.38 299.16 114.92 283.78 125.08 286.36C128.087 287.232 130.884 288.708 133.3 290.7C132.78 294 132.4 297.44 132.1 300.82H132.2ZM153.72 247.7C184.52 237.58 251.46 239.34 271.38 250.92C277.66 254.58 277.04 257.24 272.18 260C268.872 261.76 265.358 263.104 261.72 264C241.16 269.76 211.84 270.54 190.3 269.02C178.04 268.16 157.12 265.8 146.6 259.5C144.964 258.69 143.642 257.36 142.84 255.72C141.12 251.42 150.96 248.58 153.62 247.7H153.72ZM275.86 361.04C268.16 371.5 255.86 377.88 243.74 381.76C215.92 390.62 181.4 388.96 156.34 373.02C125.54 353.42 132.34 295.02 141.8 260.04C144.073 262.244 146.805 263.916 149.8 264.94C181.44 277.64 264.26 274.66 276.58 259.46C283.66 286 292 339.02 275.76 361.04H275.86ZM299.44 316.5C296.452 320.078 292.18 322.342 287.54 322.8C287.68 316.96 287.54 311.1 287.04 305.28C287.38 305.12 286.86 305.52 295.5 298.36C296.64 297.44 296.56 294.56 294.84 295.98L286.84 302.58C286.62 302.76 287.1 303.1 285.5 291.3C287.654 289.45 290.084 287.944 292.7 286.84C297.18 285.12 300.94 286.46 302.7 290.84C305.7 298.74 304.7 309.8 299.34 316.5H299.44Z" fill="#0D128A"/>
<path d="M255.6 314.88C244.74 311.34 231.6 320.14 222.98 322.88C217.07 324.682 210.83 325.14 204.72 324.22C190.58 322.22 178.72 312.12 169.94 314.5C158.16 317.68 160.62 335.7 163.32 344.22C166.489 352.916 172.055 360.536 179.374 366.198C186.694 371.862 195.468 375.336 204.68 376.22C230.1 378.78 259.92 361.28 265.24 335.92C266.96 327.76 264.38 317.74 255.6 314.88ZM253.18 354.78C247.578 360.7 240.82 365.404 233.322 368.602C225.824 371.798 217.75 373.418 209.6 373.36C190.36 372.94 171.94 360.54 165.6 342.12C163.821 336.792 163.2 331.146 163.78 325.56C164.16 322.56 165.12 319.38 168.04 317.98C173.58 315.34 182.5 320.26 189.2 323.08C202.46 328.62 214 329.82 229.2 323.08C235.4 320.34 242.1 317.22 249 317.08C250.944 317.048 252.876 317.414 254.672 318.16C256.468 318.904 258.092 320.012 259.442 321.41C260.794 322.81 261.842 324.472 262.522 326.294C263.204 328.116 263.502 330.058 263.4 332C263.32 340.42 258.72 348.7 253.18 354.78Z" fill="#0D128A"/>
<path d="M198.84 314C200.78 312.56 202.26 310.586 203.1 308.32C204.72 313.42 207.98 318.2 213.24 316.86C217.5 315.76 219.64 311.36 220.22 306.86C220.962 307.988 221.792 309.058 222.7 310.06C226.7 314.4 233.1 317.9 238.5 313.94C250.38 305.24 241.18 277.42 227.22 275.46C220.62 274.54 216.46 280.7 215.48 286.48C214.68 291.718 215.372 297.078 217.48 301.94C217.47 302.066 217.47 302.194 217.48 302.32C218.56 306.7 216.62 317.18 209.88 312.9C203.14 308.62 205.88 300.4 202.16 290.24C199.66 283.98 194.78 276.48 187.46 275.46C180.86 274.54 176.7 280.7 175.72 286.48C173.02 303.14 188.5 321.5 198.84 314ZM219.38 281.34C219.372 281.414 219.372 281.486 219.38 281.56C225.5 293.56 240.02 297.26 240.72 297C242.02 303.6 241.84 312.6 234.18 312.64C227.06 312.64 221.72 304.64 219.5 298.86C218 294.62 216.26 285.78 219.38 281.26V281.34ZM179.72 281.34C182.08 289.34 198.44 297.94 201.16 297C202.44 303.6 202.26 312.6 194.6 312.64C187.48 312.64 182.16 304.64 179.92 298.86C178.32 294.62 176.6 285.78 179.72 281.26V281.34Z" fill="#0D128A"/>
<path d="M235.36 325.14C229.9 327.3 223.9 331.28 214.64 332.48C208.048 332.84 201.462 331.642 195.42 328.98C188.3 325.3 179.06 319.56 172.92 325.34C168.2 329.78 169.06 337.86 171.24 343.34C182.12 369.6 221.36 372.5 241.9 356.66C246.912 352.74 250.962 347.726 253.74 342C256.02 337.28 257.74 330.84 253.52 326.6C248.86 321.84 240.32 322.4 235.36 325.14ZM189.72 330.12C196.447 333.702 203.94 335.61 211.56 335.68C211.56 335.68 211.56 344.82 211.56 349.3C206.264 349.118 201.196 347.106 197.215 343.61C193.234 340.114 190.585 335.348 189.72 330.12ZM232.2 336.12C230.828 339.87 228.366 343.124 225.13 345.462C221.894 347.8 218.03 349.116 214.04 349.24C214.04 349.24 214.04 335.6 214.04 335.56C221.31 334.664 228.304 332.23 234.56 328.42C234.116 331.086 233.322 333.682 232.2 336.14V336.12Z" fill="#0D128A"/>
<path d="M160.26 260.48C179.76 265.5 229.5 265.92 252.96 261.14C256.5 260.42 263.72 259.38 264.44 254.82C264.56 254.476 264.56 254.104 264.44 253.76C263.48 250.58 257.3 249.76 254.78 249.18C233.76 244.64 186.54 244.42 163.96 249.18C160.6 249.88 154.2 250.82 152.92 254.76C151.64 258.7 157.68 259.82 160.26 260.48Z" fill="#0D128A"/>
<path d="M241.3 201.42L220.96 194.48C219.58 194.02 218 197.02 219.24 197.44L239.6 204.38C240.96 204.84 242.54 201.84 241.3 201.42Z" fill="#0D128A"/>
<path d="M219.74 200C218.36 199.54 216.78 202.56 218.02 202.96L236.4 209.08C237.78 209.54 239.36 206.54 238.12 206.12L219.74 200Z" fill="#0D128A"/>
<path d="M197.66 76.36C200.354 75.9602 202.816 74.6128 204.606 72.5598C206.394 70.5068 207.392 67.883 207.42 65.16C207.37 64.4406 207.27 63.7256 207.12 63.02L218 58.52C218.974 59.7302 220.234 60.681 221.664 61.288C223.094 61.8952 224.652 62.1396 226.2 62C235.28 61.06 239.64 47.76 230.72 42.68C230.98 42.34 230.46 43.34 239.26 25.8C240.864 26.384 242.624 26.3786 244.226 25.7852C245.826 25.1918 247.164 24.0486 248 22.56C251.66 16.78 247.44 10.44 241.82 11.16C235.82 11.92 232.3 20.34 237.46 24.68C228.48 42.56 229.04 41.32 228.96 41.88C227.586 41.453 226.132 41.3428 224.708 41.5576C223.284 41.7724 221.928 42.3064 220.74 43.12C216.634 38.3066 212.54 33.4734 208.46 28.62C208.944 27.4838 209.17 26.2542 209.12 25.02C209.066 24.0968 208.824 23.1944 208.41 22.3678C207.996 21.5412 207.416 20.8078 206.71 20.2126C206.002 19.6173 205.18 19.1725 204.294 18.9056C203.41 18.6387 202.478 18.5551 201.56 18.66C199.635 19.0062 197.893 20.0164 196.636 21.5146C195.378 23.0128 194.686 24.9042 194.68 26.86C194.656 28.2628 195.062 29.6392 195.845 30.8038C196.627 31.9682 197.748 32.865 199.056 33.3728C200.364 33.8806 201.796 33.9754 203.158 33.644C204.522 33.3128 205.752 32.5714 206.68 31.52L218.38 45.34C217.106 46.8196 216.266 48.6234 215.956 50.5512C215.646 52.4788 215.876 54.455 216.62 56.26L206.24 60.56C205.374 58.8216 204 57.3884 202.298 56.452C200.598 55.5158 198.651 55.1208 196.72 55.32C194.014 55.6922 191.535 57.0318 189.741 59.0908C187.946 61.1498 186.959 63.7888 186.96 66.52C186.961 67.886 187.245 69.2372 187.794 70.4878C188.344 71.7386 189.147 72.8618 190.152 73.7864C191.158 74.7112 192.344 75.4172 193.636 75.8602C194.929 76.3032 196.299 76.4734 197.66 76.36ZM237.46 18C237.512 17.3994 237.692 16.8171 237.992 16.2935C238.29 15.7698 238.698 15.3174 239.19 14.9674C239.68 14.6173 240.242 14.3782 240.834 14.2664C241.426 14.1546 242.036 14.1729 242.62 14.32C243.818 14.5346 244.908 15.1541 245.706 16.075C246.502 16.996 246.96 18.1626 247 19.38C246.68 25.36 237.32 23.4 237.46 18ZM202.36 21.84C203.556 22.0538 204.642 22.6704 205.44 23.5872C206.236 24.5042 206.694 25.6662 206.74 26.88C206.42 32.88 197.06 30.88 197.2 25.52C197.249 24.9176 197.428 24.3332 197.725 23.807C198.023 23.281 198.431 22.8262 198.922 22.474C199.413 22.1218 199.975 21.8808 200.57 21.768C201.162 21.655 201.774 21.6728 202.36 21.82V21.84ZM233.18 52.4C232.76 61.96 218.24 59.94 218.22 51.02C218.22 43.64 232.74 42.56 233.18 52.4ZM198.12 58.52C200.002 58.8684 201.708 59.8534 202.95 61.3102C204.19 62.7668 204.894 64.6064 204.94 66.52C204.52 76.52 189.32 74.52 189.38 65.16C189.43 64.1148 189.708 63.0932 190.196 62.1672C190.683 61.2414 191.367 60.4334 192.2 59.8004C193.034 59.1674 193.995 58.7246 195.018 58.5034C196.041 58.2822 197.1 58.288 198.12 58.52Z" fill="#0D128A"/>
<path d="M267 81.46C274.48 82.2 278.64 75.04 279.54 67.46C280.708 59.8392 281.144 52.1238 280.84 44.42C288.748 46.4662 296.958 47.0758 305.08 46.22C304.82 52.68 304.24 59.12 303.44 65.54C301.406 64.7122 299.198 64.4048 297.016 64.6458C294.832 64.8866 292.744 65.6684 290.94 66.92C289.398 68.0836 288.156 69.5972 287.314 71.336C286.472 73.0748 286.056 74.9888 286.1 76.92C286.5 85.2 298.58 87.34 303.36 77.14C304.744 74.0972 305.486 70.8022 305.54 67.46C305.54 67.2 307.2 55.08 307.54 43.92C307.556 43.7962 307.542 43.6704 307.498 43.5532C307.456 43.436 307.384 43.3308 307.292 43.2466C307.2 43.1624 307.09 43.1014 306.97 43.069C306.848 43.0364 306.722 43.0334 306.6 43.06C297.46 44.1196 288.202 43.2822 279.4 40.6C278.18 40.22 276.72 43.24 278.2 43.72C278.572 50.2214 278.424 56.742 277.76 63.22C275.702 62.3596 273.464 62.0278 271.244 62.2548C269.026 62.482 266.9 63.2606 265.06 64.52C258.32 69.62 258.38 80.58 267 81.46ZM297.58 80.2C296.532 80.7218 295.362 80.9526 294.194 80.868C293.026 80.7836 291.902 80.3872 290.94 79.72C290.29 79.2178 289.746 78.5912 289.342 77.8766C288.936 77.162 288.678 76.3738 288.582 75.5582C288.484 74.7426 288.552 73.916 288.778 73.1264C289.004 72.3368 289.386 71.6004 289.9 70.96C292.88 66.96 298.28 67.16 303.06 68.96C303.032 70.0814 302.912 71.1986 302.7 72.3C302 75.72 300.74 78.68 297.58 80.2ZM277.24 66.54C277.188 69.4082 276.462 72.224 275.12 74.76C274.654 75.6072 274.018 76.35 273.254 76.9422C272.488 77.5346 271.612 77.9638 270.674 78.2038C269.736 78.4436 268.76 78.489 267.806 78.337C266.85 78.185 265.936 77.8388 265.12 77.32C259.44 73.54 264 61.34 277.24 66.54Z" fill="#0D128A"/>
<path d="M293.2 97.02C292.3 96.78 291.3 98.32 291.38 99.34V128.62C291.38 129.62 292.34 129.66 292.96 129.12L319.2 106.4C319.84 105.86 320.76 103.98 319.46 103.64L293.2 97.02ZM293.84 125.38V100.6L316 106.2L293.84 125.38Z" fill="#0D128A"/>
<path d="M93.7 114.58L114.36 124C115.62 124.58 116.58 122.46 116.36 121.5L113.2 104.06C113.2 103.6 112.88 103.48 112.58 103.54C112.28 103.6 113.2 103.12 94.58 111.54C93.84 112 92.6 114 93.7 114.58ZM111.02 107.04C111.807 111.293 112.58 115.567 113.34 119.86L98.16 112.88L111.02 107.04Z" fill="#0D128A"/>
<path d="M175.1 30C175.66 30.5 176.5 29.68 176.84 29.02L186 12.14C186.34 11.52 186.66 9.8 185.4 10.14L163.18 15C162 15.24 161.12 17.18 162 18L175.1 30ZM182.86 13.6L176 26.3L166.18 17.28L182.86 13.6Z" fill="#0D128A"/>
<path d="M176.5 203.3C160 184.66 127.68 189.06 106.14 206.2C102.58 209.02 98.96 212.62 98.14 217.3C96.5 226.4 104.78 228.64 111.98 228.12C127.98 226.98 146.32 218.8 154.28 204.24L148.96 203.18C141.74 212.02 129.58 217.64 118.3 220.12C113.93 221.346 109.314 221.394 104.92 220.26C102.36 219.4 102.5 217.02 104.16 215.22C105.623 213.864 107.218 212.658 108.92 211.62C140.1 188.78 178.92 193.62 183.66 236.34C184.243 241.284 184.37 246.272 184.04 251.24C186.3 248.74 185.8 249.24 188.78 246.24C188.64 231.22 186.2 214.84 176.5 203.3Z" fill="#6CECC4"/>
<path d="M319.66 159.2C317.66 151.74 310.42 146.08 302.56 147.66C294.7 149.24 288.56 156.1 286.28 163.34C285.106 167.103 284.924 171.106 285.752 174.96C286.578 178.814 288.386 182.389 291 185.34L300.66 178.88C289.06 171.68 291.44 156.88 302.66 157.68C310.26 158.2 316.92 168.34 308.66 177.68C302.38 184.76 291.36 188.48 290.06 189.36C279.38 193.7 267.5 195.18 257.46 201C238.28 212.1 232.02 233.6 234.42 255.26C234.7 257.66 234.58 259.46 237.26 259.86C238.8 260.106 240.376 259.954 241.84 259.42C244.72 258.16 243.1 254.96 242.62 252.56C242.206 250.422 241.952 248.256 241.86 246.08C241.36 237.4 242.5 227.58 247.1 220.08C251.7 212.58 259.8 208.08 268.12 205.72C278.28 202.72 288.3 200.1 297.72 195.04C311.64 187.26 323.7 174.38 319.66 159.2Z" fill="#6CECC4"/>
<path d="M181.1 151.36C180 143.84 187.64 134.72 196.3 137.54C200.04 138.76 203.56 142.42 202.82 146.58C202.258 148.716 201.17 150.677 199.658 152.287C198.146 153.897 196.256 155.105 194.16 155.8C191.861 156.557 189.435 156.856 187.02 156.68L190.76 167.78C206.76 165.2 214.58 144.82 205.12 131.78C202.916 128.804 199.674 126.763 196.037 126.063C192.399 125.363 188.632 126.055 185.48 128C176.7 133.28 169.98 147.84 179.48 170.12C182.669 177.228 186.611 183.974 191.24 190.24C194.339 194.082 197.23 198.088 199.9 202.24C202.048 205.646 203.486 209.454 204.126 213.43C204.764 217.406 204.592 221.472 203.62 225.38C201.228 233.306 197 240.556 191.28 246.54C188.62 249.4 180 257.66 180.7 259.32C180.94 259.9 185.2 260.4 185.96 260.54C186.649 260.762 187.375 260.844 188.096 260.782C188.817 260.72 189.519 260.516 190.16 260.18C192.008 258.702 193.667 257.002 195.1 255.12C210.44 237.82 216.2 215.94 205.22 195.58C199.06 184.14 183.64 168.86 181.1 151.36Z" fill="#FF3E74"/>
<path d="M339.12 137.78C337.4 141.66 338.84 143.98 338.56 151.78C338.28 159.58 336.26 170.1 329.88 174.82C326.504 177.146 322.568 178.527 318.48 178.82C324.18 168.68 325.32 153.88 314.48 146.82C301.26 138.2 286.2 153.28 283.38 165.68C282.488 169.392 282.446 173.259 283.26 176.989C284.074 180.719 285.722 184.217 288.08 187.22C278.08 191 267.06 192.6 257.64 197.94C237.04 209.64 229.3 232.78 231.76 256.12C231.94 257.8 231.76 260.36 233 261.7C234.82 263.7 238.84 263.18 241.12 262.48C242.558 262.102 243.822 261.242 244.702 260.046C245.584 258.848 246.028 257.384 245.96 255.9C245.96 253.48 244.9 251.14 244.58 248.76C243.46 240.76 244.14 230.22 247.8 222.76C250.362 217.994 254.376 214.168 259.26 211.84C267.94 207.36 275.8 207.84 292.16 200.46C300.88 196.46 301.18 195.08 303.16 195C304.72 195 306.4 195.4 307.96 195.44C313.244 195.595 318.508 194.726 323.46 192.88C345.84 184.56 353.46 156.76 351.04 135.12C350 126.3 341.36 132.72 339.12 137.78ZM307.28 192C306.88 192 306.42 191.86 305.92 191.76C316.5 190.94 320.18 184.44 321.4 181.08C324.426 180.479 327.302 179.282 329.86 177.56C337.14 172.54 339.86 162.6 340.82 153.78C341.94 142.16 339.1 139.18 343.3 135.26C345.66 133.06 348.06 133.02 348.68 136.48C350.8 155.44 345.16 180.36 325.98 188.82C320.1 191.391 313.68 192.483 307.28 192ZM241.8 246C241.892 248.176 242.146 250.342 242.56 252.48C243.04 254.88 244.56 258.08 241.78 259.34C240.316 259.874 238.74 260.026 237.2 259.78C234.52 259.38 234.64 257.58 234.36 255.18C231.96 233.52 238.24 212.02 257.4 200.92C267.4 195.1 279.4 193.62 290 189.28C291.5 188.26 302.34 184.68 308.58 177.66C316.58 168.56 310.58 158.2 302.58 157.66C291.64 156.9 288.88 171.52 300.58 178.86L290.92 185.32C288.306 182.369 286.498 178.794 285.672 174.94C284.844 171.086 285.026 167.083 286.2 163.32C288.44 156.08 294.9 149.18 302.48 147.64C310.36 146.06 317.6 151.64 319.58 159.18C323.48 173.86 311.58 187.18 297.58 194.8C288.16 199.86 278.14 202.48 267.98 205.48C259.66 207.94 251.6 212.22 246.96 219.84C242.32 227.46 241.3 237.26 241.8 246ZM304.24 161.52C309.94 163.88 312.24 171.78 305.66 177.52C299.96 175.3 295.28 170.94 295.66 164.42C296.2 160.42 301.06 160.16 304.24 161.46V161.52Z" fill="#0D128A"/>
<path d="M192 170.5C205.7 167.2 213.52 152 211.02 138.5C209.9 132.5 206.58 126.28 200.62 123.88C197.405 122.713 193.926 122.48 190.584 123.21C187.243 123.939 184.176 125.6 181.74 128C177.056 132.636 173.979 138.649 172.96 145.16C170.132 142.521 168.002 139.223 166.76 135.56C165.957 132.52 165.881 129.334 166.54 126.26C168.59 119.208 172.168 112.693 177.02 107.18C178.312 105.849 179.521 104.439 180.64 102.96C182.8 99.64 183.38 92.76 180.04 89.9C179.312 89.3474 178.408 89.0774 177.496 89.1398C176.584 89.2024 175.726 89.5932 175.08 90.24C171.751 93.1232 168.878 96.495 166.56 100.24C161.332 107.722 157.634 116.164 155.68 125.08C152.82 139.76 156.64 152.96 168.28 163.08C169.972 164.58 171.8 165.919 173.74 167.08C176.28 168.6 176.82 171.64 178 174.24C182.48 184 188.88 192.24 195.06 200.86C201.24 209.48 204.22 219.02 200.36 229.12C198.179 234.572 195.043 239.59 191.1 243.94C191.107 239.148 190.773 234.364 190.1 229.62C188.66 219.26 185.44 209.02 178.62 200.9C173.68 195.471 167.265 191.6 160.16 189.76C160.16 170.36 145.14 153.14 129.96 142.72C112.98 130.92 89.9999 127.7 71.9999 139.44C63.9261 144.958 57.4986 152.561 53.4 161.44C52.14 164.02 43.6799 181.84 51.9399 181.44C55.6599 181.22 56.9799 176.26 57.9399 173.44C59.5081 168.296 61.9949 163.478 65.2799 159.22C78.2999 142.84 105.88 139.46 129.62 159.58C138.18 166.82 147.36 176.76 150.12 188.04C139.311 187.698 128.598 190.158 119.02 195.18C110.56 199.46 99.9999 205.74 96.5199 215.18C95.0999 218.96 94.8199 223.92 97.3399 227.32C98.4825 228.626 99.8952 229.67 101.48 230.378C103.065 231.086 104.784 231.442 106.52 231.42C115.58 232.04 125.28 229.16 133.4 225.42C143.4 220.76 152.28 213.32 157.08 203.42C161.59 204.82 165.737 207.196 169.225 210.378C172.713 213.562 175.456 217.476 177.26 221.84C180.823 231.188 182.324 241.198 181.66 251.18C181.66 252.12 181.44 253.36 181.38 254.6C179.06 257.6 176.86 261.38 179.38 262.82C181.117 263.396 182.931 263.706 184.76 263.74C186.428 264.02 188.136 263.96 189.78 263.56C193.12 262.48 195.2 258.76 197.38 256.22C211.24 240 218.02 219.04 210.06 198.98C206 188.26 198 180 192 170.5ZM195.14 255.24C193.707 257.122 192.048 258.822 190.2 260.3C189.559 260.636 188.857 260.84 188.136 260.902C187.415 260.964 186.689 260.882 186 260.66C185.24 260.52 180.98 260.02 180.74 259.44C180.04 257.76 188.52 249.7 191.32 246.66C197.04 240.676 201.268 233.426 203.66 225.5C204.642 221.596 204.824 217.532 204.194 213.556C203.566 209.58 202.138 205.772 200 202.36C197.33 198.208 194.439 194.202 191.34 190.36C186.719 184.089 182.777 177.344 179.58 170.24C170 148 176.78 133.28 185.48 128C188.618 126.042 192.376 125.332 196.012 126.009C199.648 126.687 202.898 128.703 205.12 131.66C214.58 144.76 206.72 165.14 190.76 167.66L187.02 156.56C189.435 156.736 191.86 156.437 194.16 155.68C196.256 154.985 198.146 153.777 199.658 152.167C201.17 150.557 202.258 148.596 202.82 146.46C203.56 142.3 200.04 138.64 196.3 137.42C187.7 134.62 179.9 143.54 181.1 151.24C183.92 169.24 199.26 184.38 205.3 195.58C216.3 216.1 210.48 238 195.18 255.24H195.14ZM183.6 236.34C178.94 193.52 140 188.86 108.9 211.62C107.198 212.658 105.603 213.864 104.14 215.22C102.48 217.02 102.34 219.4 104.9 220.26C109.294 221.394 113.91 221.346 118.28 220.12C129.54 217.64 141.72 212.12 148.94 203.18L154.26 204.24C146.26 218.8 127.86 226.98 111.96 228.12C104.76 228.64 96.48 226.4 98.12 217.3C98.96 212.62 102.58 209.02 106.12 206.2C127.06 189.54 159.46 184.2 176.48 203.3C186.16 214.82 188.62 231.14 188.74 246.24C186.04 249 186.2 248.8 184 251.24C184.327 246.272 184.206 241.286 183.64 236.34H183.6ZM142.54 206.34C136.456 211.032 129.461 214.404 122 216.24C118.126 217.48 114.063 218.022 110 217.84C102.48 217.18 106.74 216.08 109.58 214C120.52 205.762 133.886 201.386 147.58 201.56C146.085 203.336 144.409 204.95 142.58 206.38L142.54 206.34ZM62.9399 158.74C60.2901 162.436 58.151 166.472 56.58 170.74C56.0678 172.788 55.3992 174.794 54.58 176.74C53.86 177.98 52.4799 178.74 51.4199 177.46C50.8397 176.351 50.7176 175.058 51.08 173.86C53.431 164.479 58.0613 155.823 64.5599 148.66C79.4999 132.8 103.66 131.66 122.14 141.76C138.56 150.72 155.88 169.28 157.56 188L152.84 187.56C151.06 178 144.68 170 138.14 163.04C131.611 155.86 123.627 150.153 114.72 146.3C96.7199 138.96 74.8199 142.48 62.9799 158.78L62.9399 158.74ZM167.54 102.4C169.63 99.0272 172.159 95.9468 175.06 93.24C177.06 91.58 178.52 92.48 179.32 94.74C180.071 96.8004 180.071 99.0596 179.32 101.12C178.524 102.424 177.548 103.609 176.42 104.64C170.22 111.86 164.56 121.34 163.56 130.86C163.581 136.373 165.567 141.699 169.16 145.88C168.08 149.32 167.16 156.48 174.72 163.42C152.62 149.06 153.06 123.88 167.54 102.4ZM194.1 140.4C196.78 141.02 200.5 143.6 200.46 146.7C200.42 149.8 196.46 152.36 193.62 153.06C190.78 153.76 184.86 154.3 183.88 151.06C182.74 142.96 188.86 139.2 194.1 140.38V140.4Z" fill="#0D128A"/>
</svg>
