<svg width="400" height="400" viewBox="0 0 400 400" fill="none" xmlns="http://www.w3.org/2000/svg">
<path d="M338.374 86.352L338.28 86.596C336.205 92.8931 334.826 99.3986 334.168 105.996C334.074 106.78 334.002 107.442 333.946 107.956C333.868 108.702 333.828 109.136 333.828 109.136L326.282 112.418L324.482 113.198L312.026 118.614C312.026 118.614 311.342 119.428 310.122 121.162C303.291 131.398 297.553 142.323 293 153.756C293 153.756 296.728 184.588 291.568 204.09L288.59 223.612L308 229.32L312.07 230.52C312.754 219.488 322.086 199.264 331.354 181.452C327.438 180.575 323.745 178.899 320.507 176.528C317.269 174.157 314.555 171.142 312.537 167.674C310.518 164.205 309.238 160.357 308.776 156.37C308.315 152.383 308.682 148.344 309.854 144.506C311.256 140.353 313.602 136.582 316.708 133.49C318.589 131.612 320.738 130.025 323.086 128.78C328.159 126.127 333.911 125.059 339.598 125.714C343.297 126.117 346.888 127.208 350.186 128.932C349.917 125.77 349.815 122.595 349.88 119.422C349.022 118.534 348.256 117.561 347.594 116.518C345.674 113.64 344.691 110.239 344.78 106.78C344.869 103.322 346.025 99.9756 348.09 97.2C348.514 96.6211 348.974 96.0687 349.466 95.546C351.187 93.7534 353.281 92.362 355.601 91.4709C357.92 90.5797 360.408 90.2107 362.886 90.39C370.18 78.854 378.866 66.538 384.014 59.39C384.012 59.378 341.582 78.514 338.374 86.352Z" fill="#C17E48"/>
<path d="M184.63 106.434C183.236 106.269 181.933 105.652 180.922 104.678C178.856 101.954 180.084 98.4181 181.358 96.0661C180.983 95.0169 180.588 93.9748 180.174 92.9401C178.652 92.4121 177.362 91.4581 178.802 89.8001C178.256 88.6224 177.616 87.4907 176.888 86.4161C173.14 81.0901 177.398 66.5721 177.592 54.2001C177.682 48.5121 176.916 43.2761 174.112 39.6001C170.097 34.3233 166.091 29.0393 162.094 23.7481C158.176 18.5621 154.82 14.1081 153.306 12.1001H153.26C153.232 12.3001 153.206 12.5001 153.172 12.7781C152.012 21.9401 151.494 31.2021 150.874 40.4101C149.9 54.8321 149.074 69.2661 148.274 83.6981C147.422 99.0568 146.614 114.417 145.85 129.778C145.41 138.558 144.981 147.337 144.564 156.116C149.776 157.97 154.329 161.314 157.658 165.732C157.92 162.39 159.314 155.85 159.51 154.824C160.236 151.014 161.207 147.255 162.418 143.57C164.343 137.634 167.058 131.983 170.488 126.77C174.444 120.589 179.761 115.394 186.032 111.582C185.61 109.97 185.14 108.232 184.63 106.434ZM384.014 59.3761C378.866 66.5341 370.18 78.8501 362.886 90.3861C356.158 101.028 350.612 111.004 350.124 115.648C349.998 116.902 349.917 118.159 349.88 119.418C349.815 122.591 349.917 125.766 350.186 128.928C350.786 136.7 351.798 143.618 350.124 147.18C349.59 148.316 347.676 151.676 344.974 156.474L343.998 158.208C342.25 161.313 340.517 164.427 338.798 167.548L338.598 167.9C338.311 168.42 338.023 168.947 337.732 169.482L337.51 169.882C335.417 173.715 333.362 177.569 331.344 181.442C322.076 199.254 312.744 219.478 312.06 230.51L338.342 238.236L346.68 240.686L361.056 244.912L361.998 238.09L364.186 222.226L367.23 200.158L370.83 174.038L374.696 146.022L378.524 118.268C379.691 109.823 380.856 101.376 382.02 92.9281L384.886 72.1601L386.822 58.1201L387.272 54.8561C386.51 55.9241 385.388 57.4681 384.014 59.3761Z" fill="#E59E70"/>
<path d="M349.466 95.5421C348.974 96.0648 348.514 96.6171 348.09 97.1961C346.025 99.9716 344.869 103.318 344.78 106.776C344.691 110.235 345.674 113.636 347.594 116.514C348.256 117.557 349.022 118.53 349.88 119.418C349.916 118.154 349.992 116.896 350.124 115.648C350.612 111.004 356.158 101.028 362.886 90.3861C360.408 90.2067 357.92 90.5757 355.601 91.4669C353.281 92.358 351.187 93.7494 349.466 95.5421ZM182.86 30.6621C180.668 27.3555 177.433 24.8779 173.669 23.6244C169.906 22.371 165.83 22.4138 162.094 23.7461C165.962 28.864 170.378 34.696 174.112 39.598C176.912 43.276 177.682 48.5121 177.592 54.1981C179.881 52.6474 181.781 50.5896 183.145 48.1846C184.508 45.7796 185.299 43.0924 185.454 40.3321C185.618 36.9171 184.711 33.5362 182.86 30.6621Z" fill="#FFD35C"/>
<path d="M337.89 153.122C340.331 152.396 342.591 151.161 344.522 149.5C345.482 148.712 346.154 147.627 346.431 146.416C346.708 145.205 346.576 143.936 346.054 142.808C345.488 142.036 344.771 141.387 343.949 140.898C343.126 140.409 342.213 140.091 341.264 139.962C341.293 139.883 341.312 139.801 341.322 139.718L341.642 134.49L341.688 133.738C341.686 133.48 341.583 133.232 341.4 133.05C341.218 132.867 340.97 132.764 340.712 132.762C340.455 132.769 340.211 132.874 340.03 133.055C339.849 133.237 339.744 133.481 339.738 133.738L339.416 138.966L339.378 139.612L339.27 139.596C338.384 139.466 337.493 139.368 336.6 139.302L336.912 134.2L336.958 133.448C336.957 133.19 336.854 132.943 336.672 132.76C336.489 132.577 336.242 132.474 335.984 132.472C335.727 132.478 335.482 132.583 335.301 132.765C335.119 132.946 335.014 133.191 335.008 133.448L334.688 138.676V138.784L329.984 138.496L329.232 138.45C328.974 138.451 328.726 138.554 328.544 138.737C328.361 138.92 328.259 139.168 328.258 139.426C328.265 139.682 328.369 139.926 328.551 140.107C328.732 140.289 328.976 140.393 329.232 140.4L331.908 140.564L330.446 164.4L330.286 167L328.244 166.874L327.492 166.828C327.234 166.83 326.987 166.934 326.804 167.116C326.622 167.299 326.518 167.546 326.516 167.804C326.522 168.061 326.627 168.306 326.809 168.487C326.99 168.669 327.235 168.774 327.492 168.78L332.72 169.1H332.83L332.54 173.804L332.494 174.558C332.496 174.816 332.599 175.063 332.782 175.246C332.964 175.428 333.212 175.531 333.47 175.532C333.727 175.526 333.971 175.421 334.153 175.24C334.334 175.059 334.439 174.815 334.446 174.558L334.766 169.33V169.278C335.49 169.348 336.218 169.408 336.942 169.444L337.542 169.47L337.516 169.884L337.738 169.484C338.027 168.951 338.316 168.423 338.604 167.902L338.804 167.55C338.414 167.55 338.034 167.538 337.68 167.528C335.854 167.483 334.033 167.301 332.234 166.984C332.501 162.735 332.761 158.486 333.016 154.238C333.127 154.29 333.246 154.321 333.368 154.328C333.483 154.336 333.597 154.346 333.71 154.358C333.823 154.37 333.957 154.384 334.11 154.4C334.35 154.426 334.466 154.442 334.462 154.442C335.521 154.59 336.57 154.8 337.604 155.07C339.957 155.583 342.151 156.656 344 158.2C344.334 157.6 344.66 157.024 344.976 156.466C343.371 155.182 341.54 154.212 339.576 153.606C339.018 153.431 338.456 153.27 337.89 153.122ZM337.416 151.228C336.016 151.726 334.582 152.12 333.124 152.406L333.666 143.57L333.814 141.148C335.014 141.148 336.234 141.208 337.434 141.322C339.748 141.306 342.013 141.985 343.936 143.272C345.336 144.548 344.536 146.746 343.29 147.978C341.595 149.481 339.589 150.59 337.416 151.228Z" fill="black"/>
<path d="M40.688 271.906L22.6 265.106L16.562 262.836L19.8 273.66L64.114 290.684L61.976 279.908L40.688 271.906ZM358.554 251.326L350.58 260.216L326.2 287.38L298 318.818L274.684 344.818L265.06 355.544L264.348 356.632C262.615 359.284 260.877 361.936 259.136 364.588L358.572 256.112L360.868 248.824C360.104 249.658 359.308 250.486 358.554 251.326ZM258.05 362.688L262.8 355.44C259.8 354.412 256.868 353.188 253.914 352.078L233.564 344.426L205.152 333.744L171.526 321.1L137.228 308.2L132.702 311.434L127.604 315.074L257.308 364.906C257.186 364.764 257.116 364.584 257.109 364.396C257.103 364.209 257.16 364.025 257.272 363.874L258.05 362.688Z" fill="#B2EACD"/>
<path d="M61.526 277.664L46.94 272.18L26.6 264.53C23.884 263.508 21.176 262.392 18.434 261.418L36.046 250.246L53.858 238.95L53.458 236.898L44.294 242.71L17.034 260L15.936 260.694C15.831 260.724 15.7332 260.775 15.6483 260.844C15.5635 260.913 15.4933 260.998 15.442 261.094C15.3532 261.232 15.2986 261.389 15.2826 261.552C15.2666 261.716 15.2898 261.88 15.3503 262.033C15.4107 262.185 15.5066 262.321 15.63 262.429C15.7534 262.537 15.9008 262.614 16.06 262.654L16.562 262.842L22.6 265.112L40.688 271.912L61.972 279.912L61.75 278.792L61.526 277.664ZM388.748 52.284C382.919 51.232 377.089 50.1827 371.258 49.136C363.327 47.7094 355.397 46.286 347.468 44.866L319.364 39.83L288.548 34.312L257 28.664L226.556 23.218L199.072 18.306L176.506 14.272L160.506 11.412C158.014 10.966 155.524 10.5 153.028 10.076L152.71 10.018C152.461 9.95262 152.195 9.98732 151.971 10.1148C151.747 10.2422 151.581 10.4522 151.51 10.7C150.228 18.95 149.832 27.384 149.248 35.7C148.264 49.7 147.448 63.7001 146.648 77.69C145.775 93.23 144.948 108.776 144.168 124.328C143.641 134.72 143.131 145.113 142.636 155.506L143.02 155.614C143.538 155.762 144.05 155.928 144.558 156.106C144.982 147.329 145.411 138.549 145.844 129.768C146.616 114.407 147.424 99.0467 148.268 83.688C149.068 69.2561 149.9 54.822 150.868 40.4C151.488 31.2 152.006 21.93 153.166 12.768C153.2 12.488 153.226 12.292 153.254 12.09H153.3L157.3 12.804L171.39 15.322L192.498 19.104L218.964 23.836L248.852 29.182L280.31 34.812L311.478 40.392C321.114 42.116 330.749 43.842 340.384 45.57C348.733 47.066 357.083 48.564 365.432 50.064L384.632 53.516L387.402 54.016L387.284 54.862L386.834 58.126L384.898 72.166L382.032 92.934L378.536 118.274L374.708 146.028L370.842 174.044L367.242 200.164L364.198 222.232L362.01 238.096L361.068 244.918L346.692 240.692L338.354 238.242L312.072 230.516L308.002 229.316L288.584 223.608L258.6 214.8C258.224 215.376 257.828 215.938 257.418 216.486L296.292 227.912L338.704 240.38L360.118 246.674L351.476 256.308L328.16 282.296L299.96 313.734L275.58 340.898L267.606 349.786L265.094 352.586C264.794 352.922 264.258 353.35 263.946 353.774L257.904 351.502L239.816 344.702L213.204 334.702L180.604 322.442L144.876 309L139.132 306.84L138.178 307.522L137.228 308.2L171.526 321.096L205.152 333.74L233.564 344.422L253.914 352.074C256.868 353.184 259.81 354.408 262.8 355.436L258.05 362.684L257.272 363.874C257.16 364.025 257.103 364.209 257.109 364.396C257.116 364.584 257.186 364.764 257.308 364.906C257.428 365.05 257.583 365.161 257.758 365.229C257.933 365.296 258.122 365.318 258.308 365.292C258.394 365.276 258.478 365.249 258.556 365.21C258.719 365.132 258.858 365.01 258.956 364.858L259.142 364.574C260.875 361.922 262.613 359.27 264.354 356.618L265.066 355.53L274.69 344.804L298.006 318.804L326.206 287.366L350.578 260.202L358.552 251.312C359.306 250.472 360.102 249.644 360.872 248.8C361.394 248.228 361.906 247.65 362.378 247.048C362.498 246.99 362.602 246.901 362.677 246.79C362.752 246.68 362.798 246.551 362.808 246.418L363.52 241.258L365.458 227.216L368.322 206.448L371.818 181.108L375.648 153.354L379.512 125.338L383.112 99.218L386.156 77.15L388.344 61.288C388.691 58.7907 389.035 56.294 389.378 53.798L389.424 53.47C389.483 53.2235 389.445 52.9639 389.32 52.7438C389.194 52.5236 388.99 52.3593 388.748 52.284Z" fill="#4FB3AA"/>
<path d="M258.312 365.296L258.438 365.344L258.56 365.214C258.482 365.253 258.398 365.28 258.312 365.296Z" fill="#FFCEB6"/>
<path d="M268.478 219.324L262.836 223.852L247.484 236.172L245.432 237.818C245.32 237.719 245.186 237.647 245.042 237.606C232.204 233.906 219.621 229.37 207.374 224.028L205.6 223.228L219.254 213.48L227.68 207.462L228.044 207.202C229.056 206.48 228.084 204.786 227.06 205.518L221.284 209.642L205.568 220.862L182.322 237.462L153.958 257.708L122.888 279.892L91.524 302.292L62.276 323.168L37.556 340.818L19.776 353.512L11.348 359.528L10.986 359.788C9.97201 360.51 10.946 362.204 11.97 361.472L17.744 357.35L26.442 351.14C29.154 352.806 31.942 354.36 34.732 355.888C42.4653 360.127 50.3573 364.055 58.408 367.672C63.8573 370.132 69.3673 372.453 74.938 374.634L66.318 381.552L58.152 388.104L57.798 388.39C56.818 389.174 58.198 390.548 59.176 389.768L64.818 385.242L77.202 375.304C77.3537 375.244 77.4835 375.14 77.574 375.004L80.174 372.922L102.878 354.702L130.576 332.476L160.744 308.276L191.356 283.71L219.896 260.8L244.01 241.45L261.336 227.546L269.502 220.992L269.858 220.708C270.836 219.918 269.448 218.546 268.478 219.324ZM83.644 367.648L76.68 373.236C66.68 369.356 56.8687 365.018 47.246 360.222C41.3206 357.292 35.4935 354.167 29.774 350.852C29.2407 350.539 28.7073 350.223 28.174 349.906L33.464 346.128L56.71 329.528L69.296 320.54C71.734 322.08 74.242 323.514 76.752 324.928C83.6853 328.829 90.7733 332.451 98.016 335.794C103.436 338.31 108.923 340.669 114.478 342.872H114.506L107.762 348.284L83.644 367.648ZM211.11 265.36C210.994 265.152 210.805 264.994 210.58 264.916C206.161 263.38 201.887 261.455 197.808 259.162C197.585 259.039 197.323 259.007 197.077 259.075C196.832 259.142 196.622 259.303 196.493 259.523C196.365 259.743 196.327 260.004 196.388 260.251C196.45 260.499 196.605 260.712 196.822 260.846C200.89 263.133 205.15 265.061 209.552 266.61L197.082 276.61L170.032 298.324C169.916 298.208 169.772 298.123 169.614 298.078C165.465 296.907 161.413 295.418 157.492 293.626C156.364 293.09 155.372 294.772 156.508 295.31C160.322 297.067 164.262 298.538 168.294 299.71L166.914 300.818L136.302 325.4L115.642 341.978C115.648 341.768 115.589 341.562 115.472 341.388C115.356 341.213 115.188 341.079 114.992 341.004C105.825 337.367 96.8473 333.295 88.058 328.79C82.742 326.089 77.5178 323.21 72.394 320.16C71.934 319.886 71.478 319.6 71.02 319.32L85.07 309.288L116.14 287.096L147.506 264.696L176.754 243.82L201.474 226.172L203.824 224.492C203.899 224.564 203.985 224.623 204.078 224.668C212.515 228.54 221.159 231.945 229.97 234.868C234.503 236.424 239.07 237.881 243.67 239.238L224.78 254.4L211.11 265.36Z" fill="#1D1D1B"/>
<path d="M209 217.458L208.736 217.098C207.774 215.768 206.918 214.363 206.178 212.898L206.102 213.366C206.1 213.452 206.086 213.536 206.06 213.618L205.984 214.078L202.542 234.928L199.796 251.564L199.744 251.882L199.692 252.202C200.2 252.267 200.712 252.303 201.224 252.31H201.482C202.11 252.286 203.418 252.236 207.442 228.924C208.104 225.096 208.73 221.254 209.27 217.834L209.248 217.806L209 217.458ZM261.944 198.556C261.17 193.985 259.28 189.676 256.442 186.01C255.809 185.212 255.132 184.449 254.414 183.726C254.144 183.452 253.882 183.168 253.602 182.904C253.479 182.79 253.328 182.708 253.165 182.668C253.002 182.627 252.831 182.628 252.668 182.671C252.505 182.714 252.356 182.797 252.234 182.913C252.112 183.029 252.021 183.174 251.97 183.334C251.009 185.744 249.896 188.09 248.638 190.358C247.304 192.928 245.602 195.29 243.588 197.37C242.888 198.236 241.976 198.907 240.941 199.317C239.905 199.727 238.781 199.862 237.678 199.71C236.449 199.304 235.36 198.556 234.54 197.554C233.11 195.935 232.017 194.047 231.324 192C231.11 191.385 230.931 190.758 230.788 190.122C230.729 189.857 230.677 189.59 230.63 189.322V189.308C230.572 188.772 230.522 188.234 230.48 187.696C230.416 186.93 230.38 186.161 230.372 185.392C230.372 185.1 230.372 184.804 230.396 184.514L229.396 185.114C229.061 185.314 228.735 185.499 228.418 185.67C224.472 187.84 220.337 189.647 216.064 191.07C213.523 191.961 210.927 192.688 208.292 193.246C207.73 194.279 207.018 195.223 206.178 196.046C205.824 196.404 205.456 196.752 205.08 197.096L204.788 197.364C204.746 197.628 204.702 197.892 204.652 198.164L205.052 197.946L207.228 196.746C207.397 196.659 207.586 196.623 207.775 196.64C207.964 196.657 208.144 196.727 208.294 196.843C208.444 196.958 208.559 197.114 208.624 197.292C208.689 197.47 208.702 197.663 208.662 197.848L208.324 199.888L208.302 200.022L207.982 201.96C207.81 203.012 207.637 204.063 207.462 205.114L207.41 205.434L207.356 205.756L206.776 209.27L206.728 209.566C206.869 209.682 206.976 209.835 207.036 210.008L207.104 210.188L207.19 210.406L207.216 210.474L207.232 210.508C207.504 211.13 207.794 211.744 208.108 212.346C208.442 212.986 208.806 213.612 209.182 214.232C209.266 214.37 209.354 214.506 209.44 214.632C209.526 214.758 209.612 214.914 209.704 215.052C211.623 218.038 214.061 220.655 216.904 222.78C217.604 223.294 218.328 223.773 219.076 224.214C224.648 227.385 231.088 228.688 237.454 227.934C237.56 227.917 237.669 227.923 237.773 227.949C237.878 227.975 237.976 228.023 238.062 228.088C238.147 228.153 238.219 228.235 238.272 228.328C238.326 228.422 238.36 228.525 238.372 228.632C240.474 228.359 242.531 227.809 244.49 226.998C249.146 224.913 253.237 221.745 256.42 217.758C256.76 217.342 257.093 216.917 257.42 216.482C257.83 215.934 258.22 215.372 258.602 214.796C260.624 211.88 261.907 208.517 262.342 204.996C262.362 204.782 262.376 204.566 262.388 204.35C262.455 202.408 262.306 200.465 261.944 198.556Z" fill="#59679C"/>
<path d="M204.412 116.04C204.787 117.484 205.406 118.853 206.242 120.088C206.777 121.046 207.567 121.837 208.525 122.372C209.484 122.907 210.572 123.164 211.668 123.116C213.983 122.59 216.022 121.226 217.392 119.286C219.843 116.37 221.852 113.109 223.354 109.608C223.407 109.485 223.485 109.374 223.584 109.284C222.424 108.84 221.241 108.447 220.036 108.104C217.654 107.697 215.276 107.269 212.902 106.82C212.869 107.711 212.602 108.577 212.128 109.332C210.01 112.28 206.937 114.404 203.43 115.342C203.647 115.336 203.861 115.401 204.038 115.527C204.215 115.653 204.346 115.833 204.412 116.04ZM189.156 111.2C189.222 112.222 189.393 113.233 189.666 114.22C190.51 117.534 192.816 121.754 196.906 121.052C198.197 120.67 199.384 119.999 200.376 119.088C201.369 118.177 202.139 117.052 202.63 115.798C202.699 115.653 202.811 115.532 202.952 115.454C201.489 115.915 199.917 115.898 198.464 115.406C196.206 114.34 195.83 110.168 195.81 107.716C194.688 107.99 193.576 108.292 192.492 108.648C191.1 109.111 189.739 109.663 188.418 110.302C188.623 110.35 188.806 110.463 188.94 110.626C189.073 110.788 189.149 110.99 189.156 111.2Z" fill="#AC47F5"/>
<path d="M247 136.242C246.011 132.255 244.43 128.439 242.31 124.92C242.197 124.764 242.141 124.574 242.152 124.382C242.162 124.19 242.237 124.007 242.366 123.864C238.784 119.079 234.311 115.032 229.194 111.944C227.865 111.172 226.491 110.482 225.078 109.878C225.152 110.114 225.137 110.369 225.034 110.594C224.327 112.158 223.531 113.679 222.65 115.152C221.23 117.704 219.461 120.045 217.394 122.108C216.522 123.207 215.372 124.053 214.064 124.558C212.755 125.064 211.336 125.212 209.951 124.985C208.567 124.759 207.268 124.167 206.189 123.271C205.11 122.375 204.289 121.207 203.812 119.888C203.412 125.66 202.972 131.436 202.718 137.218C202.664 138.47 200.718 138.472 200.768 137.218C200.832 135.734 200.922 134.25 201.014 132.768C201.266 128.62 201.539 124.473 201.834 120.328C201.124 121.137 200.259 121.797 199.29 122.267C198.322 122.738 197.269 123.01 196.194 123.068C195.041 123.053 193.906 122.775 192.876 122.255C191.846 121.735 190.949 120.987 190.252 120.068C188.373 117.482 187.311 114.394 187.2 111.2C187.195 111.096 187.207 110.991 187.234 110.89C186.826 111.103 186.422 111.325 186.022 111.556C179.751 115.368 174.434 120.563 170.478 126.744C167.048 131.957 164.333 137.608 162.408 143.544C161.197 147.229 160.225 150.988 159.5 154.798C159.3 155.824 157.9 162.364 157.648 165.706C157.79 165.894 157.932 166.08 158.068 166.27C158.588 166.998 159.071 167.75 159.516 168.526L161.116 169.348C162.091 168.706 163.103 168.124 164.148 167.604C169.888 164.795 176.431 164.086 182.64 165.6C186.491 166.511 190.124 168.177 193.326 170.502C193.601 170.208 193.934 169.972 194.303 169.811C194.672 169.649 195.071 169.564 195.474 169.562C198.106 169.592 200.644 170.546 202.644 172.258L202.098 170.784C202.031 170.535 202.065 170.269 202.192 170.045C202.319 169.82 202.53 169.655 202.778 169.584C204.109 169.225 205.416 168.783 206.692 168.262C209.305 167.224 211.823 165.96 214.216 164.484C217.3 162.604 220.092 160.28 222.5 157.588C225.224 154.527 227.224 150.892 228.352 146.952C229.636 142.008 229.708 136.826 228.562 131.848C228.304 130.62 230.186 130.1 230.442 131.328C231.798 137.11 231.583 143.149 229.818 148.82C226.985 156.397 221.535 162.711 214.452 166.62C211.276 168.554 207.872 170.084 204.318 171.176L206.02 175.776C207.197 177.43 208.08 179.274 208.632 181.228C209.038 182.665 209.299 184.139 209.41 185.628C209.434 185.95 209.448 186.274 209.458 186.598C209.468 186.922 209.458 187.25 209.458 187.576C209.447 188.529 209.37 189.48 209.226 190.422C209.194 190.622 209.148 190.822 209.106 191.022C211.764 190.322 214.406 189.622 217.012 188.69C219.744 187.711 222.415 186.571 225.012 185.276C225.884 184.838 226.75 184.39 227.6 183.914C227.982 183.7 228.354 183.474 228.732 183.252C228.982 183.104 229.236 182.962 229.484 182.81L229.734 182.658C231.015 181.87 232.265 181.031 233.482 180.14C239.299 176.079 243.745 170.347 246.23 163.702C249.243 154.835 249.511 145.264 247 136.242ZM182.158 123.118C181.936 123.918 181.734 124.718 181.536 125.518C178.7 136.841 177.005 148.419 176.476 160.08C176.424 161.332 174.476 161.334 174.524 160.08C174.698 155.906 175.05 151.744 175.55 147.596C176.496 139.156 178.076 130.799 180.276 122.596C180.345 122.346 180.511 122.135 180.736 122.007C180.962 121.88 181.228 121.847 181.478 121.916C181.728 121.985 181.939 122.151 182.067 122.376C182.194 122.602 182.227 122.868 182.158 123.118ZM199.38 136.456C199.374 136.714 199.272 136.96 199.094 137.146C198.957 137.282 198.784 137.374 198.595 137.411C198.406 137.449 198.21 137.429 198.032 137.355C197.854 137.282 197.702 137.157 197.595 136.997C197.488 136.837 197.43 136.649 197.43 136.456C197.448 135.856 197.48 135.256 197.51 134.656C197.519 134.4 197.62 134.155 197.796 133.968C197.932 133.832 198.106 133.739 198.295 133.701C198.484 133.663 198.68 133.683 198.859 133.756C199.037 133.83 199.189 133.955 199.297 134.115C199.404 134.275 199.462 134.463 199.462 134.656C199.432 135.262 199.4 135.86 199.38 136.456ZM199.38 128.656C199.373 128.913 199.271 129.159 199.094 129.346C198.911 129.528 198.663 129.631 198.404 129.632C198.146 129.632 197.898 129.528 197.715 129.345C197.533 129.163 197.43 128.915 197.43 128.656C197.448 128.056 197.48 127.456 197.51 126.856C197.519 126.599 197.62 126.354 197.796 126.166C197.933 126.03 198.106 125.937 198.296 125.899C198.485 125.861 198.681 125.881 198.859 125.955C199.038 126.028 199.19 126.154 199.297 126.314C199.405 126.474 199.462 126.663 199.462 126.856C199.432 127.458 199.4 128.056 199.38 128.654V128.656Z" fill="#AC47F5"/>
<path d="M306.338 97.3821C304.927 100.613 304.285 104.127 304.464 107.648C304.77 112.666 306.766 117.433 310.126 121.172C311.346 119.438 312.03 118.624 312.03 118.624L324.486 113.208C322.886 108.281 321.281 103.355 319.67 98.4301L317.714 99.0661C317.469 99.122 317.212 99.0812 316.996 98.9522C316.78 98.8233 316.623 98.6161 316.556 98.3738C316.489 98.1315 316.519 97.8728 316.638 97.6515C316.757 97.4303 316.957 97.2636 317.196 97.1861L317.772 96.9981L321.106 95.9121L319.804 91.9121C319.769 91.7883 319.76 91.659 319.775 91.5314C319.791 91.4039 319.831 91.2807 319.895 91.1688C319.958 91.057 320.043 90.9588 320.144 90.8798C320.245 90.8008 320.361 90.7426 320.485 90.7085C320.609 90.6744 320.738 90.6651 320.866 90.6811C320.993 90.6971 321.116 90.7382 321.228 90.8019C321.339 90.8656 321.437 90.9507 321.516 91.0523C321.595 91.1539 321.652 91.2701 321.686 91.3941L321.874 91.9701L323.06 95.6121C323.644 95.4321 324.23 95.2661 324.822 95.1261H324.858L324.734 94.7481L323.428 90.7481C323.393 90.6243 323.384 90.495 323.399 90.3674C323.415 90.2399 323.455 90.1167 323.519 90.0048C323.582 89.893 323.667 89.7948 323.768 89.7158C323.869 89.6368 323.985 89.5786 324.109 89.5445C324.233 89.5104 324.362 89.5011 324.49 89.5171C324.617 89.5331 324.74 89.5742 324.852 89.6379C324.963 89.7016 325.061 89.7867 325.14 89.8883C325.219 89.9899 325.276 90.1061 325.31 90.2301L325.498 90.8041L326.786 94.7641C328.23 94.4569 329.736 94.6971 331.012 95.4381C331.787 96.0869 332.323 96.9752 332.537 97.9628C332.75 98.9504 332.629 99.9811 332.192 100.892C331.383 102.694 330.178 104.291 328.668 105.564C328.988 105.536 329.308 105.508 329.626 105.492C331.159 105.398 332.697 105.576 334.168 106.018C334.826 99.4207 336.205 92.9152 338.28 86.6181C335.491 85.1508 332.433 84.265 329.292 84.0143C326.15 83.7637 322.99 84.1533 320.004 85.1597C317.017 86.1661 314.266 87.7683 311.917 89.8692C309.568 91.9701 307.67 94.526 306.338 97.3821Z" fill="#FFD35C"/>
<path d="M324.928 108.26L326.286 112.426L333.832 109.144C333.832 109.144 333.872 108.71 333.95 107.964C330.991 107.075 327.822 107.179 324.928 108.26ZM330.366 100.224C330.874 99.012 330.812 97.224 329.366 96.782C327.575 96.4835 325.736 96.6813 324.05 97.354C323.281 97.5794 322.521 97.834 321.77 98.118L321.64 98.17L322.216 99.936L324.318 106.386C325.262 105.774 326.159 105.092 327.002 104.348C328.418 103.242 329.567 101.833 330.366 100.224ZM350.186 128.928C346.888 127.204 343.296 126.112 339.596 125.71C333.91 125.055 328.158 126.123 323.086 128.776C320.738 130.021 318.589 131.608 316.708 133.486C313.602 136.578 311.256 140.349 309.854 144.502C308.682 148.34 308.315 152.379 308.776 156.366C309.238 160.353 310.518 164.201 312.537 167.67C314.555 171.138 317.269 174.153 320.507 176.524C323.745 178.895 327.438 180.571 331.354 181.448C333.372 177.575 335.427 173.721 337.52 169.888L337.546 169.474L336.946 169.448C336.219 169.41 335.494 169.354 334.77 169.282V169.334L334.45 174.562C334.443 174.819 334.338 175.063 334.157 175.244C333.975 175.425 333.731 175.53 333.474 175.536C333.216 175.535 332.968 175.432 332.786 175.25C332.603 175.067 332.5 174.82 332.498 174.562L332.544 173.808L332.834 169.104H332.724L327.496 168.784C327.239 168.778 326.994 168.673 326.813 168.491C326.631 168.31 326.526 168.065 326.52 167.808C326.522 167.55 326.626 167.303 326.808 167.12C326.991 166.938 327.238 166.834 327.496 166.832L328.248 166.878L330.29 167.004L330.45 164.404L331.912 140.568L329.236 140.404C328.98 140.397 328.736 140.293 328.555 140.111C328.373 139.93 328.269 139.686 328.262 139.43C328.263 139.172 328.365 138.924 328.548 138.741C328.73 138.558 328.978 138.455 329.236 138.454L329.988 138.5L334.692 138.788V138.68C334.797 136.936 334.904 135.193 335.012 133.452C335.018 133.195 335.123 132.95 335.305 132.769C335.486 132.587 335.731 132.482 335.988 132.476C336.246 132.478 336.493 132.581 336.676 132.764C336.858 132.947 336.961 133.194 336.962 133.452L336.916 134.204L336.604 139.306C337.498 139.374 338.392 139.468 339.274 139.6L339.382 139.616L339.42 138.97L339.742 133.742C339.748 133.485 339.853 133.241 340.034 133.059C340.215 132.878 340.459 132.773 340.716 132.766C340.974 132.768 341.222 132.871 341.404 133.054C341.587 133.236 341.69 133.484 341.692 133.742L341.646 134.494C341.541 136.238 341.434 137.981 341.326 139.722C341.316 139.805 341.297 139.887 341.268 139.966C342.217 140.095 343.13 140.413 343.953 140.902C344.775 141.391 345.492 142.04 346.058 142.812C346.58 143.94 346.712 145.209 346.435 146.42C346.158 147.631 345.486 148.716 344.526 149.504C342.595 151.165 340.335 152.4 337.894 153.126C338.462 153.274 339.024 153.436 339.572 153.618C341.536 154.224 343.367 155.194 344.972 156.478C347.674 151.678 349.588 148.32 350.122 147.184C351.8 143.618 350.78 136.7 350.186 128.928Z" fill="#FFD35C"/>
<path d="M334.46 154.44C334.46 154.44 334.348 154.424 334.108 154.398C333.975 154.382 333.841 154.368 333.708 154.356C333.575 154.344 333.461 154.334 333.366 154.326C333.244 154.319 333.125 154.288 333.014 154.236L332.232 166.982C334.031 167.299 335.852 167.481 337.678 167.526C338.032 167.526 338.412 167.546 338.802 167.548C340.519 164.426 342.252 161.312 344.002 158.208C342.153 156.66 339.957 155.583 337.602 155.066C336.567 154.798 335.518 154.589 334.46 154.44ZM343.29 147.978C344.528 146.746 345.332 144.548 343.936 143.272C342.013 141.985 339.748 141.306 337.434 141.322C336.234 141.208 335.022 141.144 333.814 141.148L333.666 143.57L333.124 152.406C334.582 152.12 336.016 151.726 337.416 151.228C339.589 150.59 341.595 149.481 343.29 147.978ZM204.366 62.508C190.782 64.25 189.282 74.862 189.192 75.612C192.168 75.3718 195.155 75.3163 198.138 75.446C204.047 75.6262 209.878 76.8371 215.37 79.0241C217.45 79.8142 219.404 80.9036 221.17 82.2581C221.259 82.3226 221.333 82.4048 221.389 82.4994C221.445 82.5941 221.48 82.6992 221.494 82.8082C221.507 82.9172 221.498 83.0278 221.467 83.133C221.435 83.2383 221.383 83.336 221.312 83.42C221.966 83.804 222.594 84.2041 223.19 84.6201C225.888 73.1261 218.13 60.744 204.366 62.508ZM173.65 190.812C173.717 190.811 173.784 190.815 173.85 190.824L173.65 190.796V190.812ZM87.546 226.34L87.522 226.198C89.8484 225.745 92.002 224.651 93.74 223.04C96.172 220.478 95.158 216.55 93.084 214.064C93.038 214.006 92.994 213.948 92.946 213.892C92.5502 213.443 92.1099 213.036 91.632 212.676C89.3476 211.119 86.6791 210.219 83.918 210.076C83.2283 210.015 82.5364 209.979 81.844 209.97L81.972 209.892C84.389 208.524 86.4622 206.622 88.034 204.332C88.7767 203.279 89.1375 202.004 89.0567 200.718C88.976 199.432 88.4585 198.212 87.59 197.26C86.0499 196.118 84.1468 195.576 82.236 195.734C82.2508 195.626 82.2508 195.516 82.236 195.408L81.3 190L81.166 189.22C81.0964 188.971 80.9312 188.76 80.7064 188.632C80.4817 188.504 80.2155 188.47 79.966 188.538C79.7199 188.612 79.5118 188.778 79.3848 189.002C79.2578 189.225 79.2217 189.489 79.284 189.738L80.214 195.138L80.33 195.82L79.872 195.86C79.024 195.94 78.176 196.06 77.328 196.188L76.408 190.836L76.274 190.056C76.2044 189.807 76.0392 189.596 75.8144 189.468C75.5897 189.34 75.3235 189.306 75.074 189.374C74.8283 189.449 74.6206 189.615 74.494 189.838C74.3674 190.061 74.3316 190.325 74.394 190.574L75.322 195.974L75.344 196.104L70.402 196.954L69.622 197.088C69.3727 197.157 69.161 197.322 69.0332 197.547C68.9054 197.772 68.8719 198.038 68.94 198.288C69.0141 198.534 69.18 198.742 69.4035 198.869C69.6269 198.996 69.8907 199.032 70.14 198.97L72.922 198.49L74.522 207.814L76.956 221.968L77.156 223.182L77.306 224.048L77.628 225.924L75.428 226.3L74.648 226.434C74.3991 226.504 74.1879 226.669 74.0604 226.894C73.933 227.119 73.8998 227.385 73.968 227.634C74.0421 227.88 74.208 228.088 74.4315 228.215C74.6549 228.342 74.9187 228.378 75.168 228.316L80.568 227.386L80.698 227.364L81.548 232.308L81.684 233.088C81.7536 233.337 81.9188 233.548 82.1436 233.676C82.3683 233.804 82.6345 233.838 82.884 233.77C83.1301 233.696 83.3382 233.53 83.4652 233.307C83.5922 233.083 83.6283 232.819 83.566 232.57L82.638 227.17L82.624 227.098C83.38 226.996 84.132 226.882 84.876 226.748L85.606 226.608L86.442 231.47L86.576 232.252C86.6456 232.501 86.8109 232.712 87.0357 232.84C87.2606 232.967 87.5267 233 87.776 232.932C88.0221 232.858 88.2302 232.692 88.3572 232.469C88.4842 232.245 88.5203 231.981 88.458 231.732L87.546 226.34ZM76.946 210.404H76.928L75.348 201.204L74.908 198.648C76.1179 198.358 77.3414 198.127 78.574 197.958C80.9102 197.414 83.3511 197.525 85.628 198.28C87.494 199.176 87.348 201.61 86.414 203.212C85.0654 205.219 83.2688 206.885 81.166 208.078C79.8236 208.958 78.4162 209.734 76.956 210.4L76.946 210.404ZM85.006 224.756C83.1947 225.119 81.3602 225.354 79.516 225.46C79.3693 224.62 79.2247 223.779 79.082 222.938L78.724 220.856L78 216.586L77.236 212.146C77.3875 212.199 77.5498 212.212 77.708 212.186C77.79 212.172 77.874 212.162 77.958 212.15L78.298 212.106C78.512 212.082 78.724 212.06 78.938 212.04C80.0623 211.939 81.1916 211.903 82.32 211.934C84.9474 211.891 87.5399 212.54 89.838 213.814C90.068 213.96 90.3 214.106 90.516 214.274C91.7015 215.201 92.5604 216.482 92.968 217.93C93.2014 218.485 93.2922 219.09 93.2321 219.69C93.172 220.289 92.963 220.864 92.624 221.362C90.978 223.508 87.544 224.252 85.016 224.756H85.006ZM186.942 185.8C186.084 183.812 183.284 182.576 181.43 181.724C180.282 181.199 179.106 180.735 177.908 180.336L177.016 182.536L175.468 186.336C174.983 187.536 174.496 188.733 174.008 189.926L173.658 190.79C173.698 190.79 173.914 190.824 174.01 190.834C174.326 190.87 174.644 190.9 174.96 190.924C175.893 191 176.833 191.037 177.778 191.034H178.002C180.198 191.118 182.389 190.754 184.44 189.964C185.978 189.286 187.706 187.572 186.942 185.8ZM172.97 192.484C171.37 196.425 169.767 200.368 168.16 204.312C169.7 205.152 171.297 205.883 172.94 206.498C175.238 207.36 178.386 208.498 180.826 207.556C183.266 206.614 183.386 202.772 182.55 200.654C181.378 198.205 179.496 196.165 177.15 194.798C176.257 194.211 175.331 193.677 174.376 193.198C174.077 193.05 173.777 192.907 173.474 192.768C173.388 192.728 173.3 192.692 173.214 192.654C173.128 192.616 173.254 192.668 173.32 192.698C173.193 192.646 173.075 192.573 172.97 192.484Z" fill="#FFD35C"/>
<path d="M204.074 197.974C203.831 198.173 203.585 198.366 203.336 198.554L203.068 198.754C202.471 199.192 201.851 199.596 201.21 199.966C200.834 200.186 200.449 200.39 200.056 200.578C198.468 201.332 195.918 202.124 194.84 200.152C194.488 199.488 194.357 198.728 194.466 197.984C194.557 197.337 194.745 196.707 195.026 196.116C195.424 195.28 195.906 194.487 196.464 193.748C196.676 193.456 196.9 193.17 197.126 192.886C194.998 193.548 188.592 195.35 189.238 191.07C189.752 189.178 190.959 187.548 192.618 186.504L192.488 186.52C191.341 186.678 190.175 186.63 189.044 186.38C189.023 187.587 188.628 188.759 187.915 189.733C187.201 190.707 186.203 191.436 185.058 191.82C184.345 192.118 183.609 192.357 182.858 192.536C181.283 192.894 179.673 193.069 178.058 193.056L178.31 193.23C178.69 193.486 179.066 193.748 179.43 194.03C182.124 195.798 184.061 198.508 184.86 201.63C185.396 204.686 184.346 208.592 181.06 209.552C178.792 210.049 176.428 209.871 174.26 209.04L174.232 209.108L172.26 213.956C172.186 214.202 172.02 214.41 171.797 214.537C171.573 214.664 171.309 214.7 171.06 214.638C170.811 214.568 170.6 214.403 170.472 214.179C170.344 213.954 170.31 213.688 170.378 213.438L170.664 212.738L172.43 208.394L171.926 208.194C171.228 207.918 170.526 207.622 169.844 207.314L167.872 212.164C167.798 212.41 167.631 212.617 167.408 212.744C167.185 212.871 166.921 212.906 166.672 212.844C166.548 212.81 166.433 212.752 166.332 212.673C166.231 212.595 166.146 212.497 166.083 212.385C166.02 212.274 165.979 212.151 165.964 212.024C165.948 211.897 165.958 211.768 165.992 211.644L166.276 210.942L168.076 206.524L168 206.492L163.15 204.52C162.904 204.446 162.696 204.28 162.569 204.057C162.442 203.833 162.406 203.569 162.468 203.32C162.537 203.071 162.702 202.859 162.927 202.731C163.152 202.603 163.418 202.57 163.668 202.638L164.368 202.922L166.316 203.722L167.278 201.358L171.4 191.2L172.14 189.384L173.89 185.08L176.29 179.176L173.854 178.186C173.608 178.112 173.4 177.946 173.273 177.723C173.146 177.499 173.11 177.235 173.172 176.986C173.242 176.737 173.407 176.526 173.632 176.398C173.856 176.27 174.122 176.236 174.372 176.304L175.072 176.588L175.262 176.666L179.49 178.386L179.514 178.328L181.486 173.48C181.547 173.327 181.637 173.186 181.75 173.066C181.867 172.941 182.016 172.85 182.181 172.803C182.346 172.756 182.52 172.754 182.686 172.798C182.935 172.867 183.147 173.032 183.274 173.257C183.402 173.482 183.435 173.749 183.366 173.998L183.082 174.698L181.14 179.476C182.004 179.84 182.854 180.234 183.68 180.662L183.902 180.114L185.874 175.264C185.948 175.018 186.114 174.81 186.337 174.683C186.561 174.556 186.825 174.52 187.074 174.582C187.323 174.652 187.534 174.817 187.662 175.042C187.79 175.266 187.824 175.533 187.756 175.782L187.472 176.482L185.498 181.332C185.459 181.427 185.41 181.518 185.352 181.602C185.852 181.909 186.332 182.247 186.788 182.616C187.01 182.796 187.222 182.986 187.422 183.182C187.452 183.118 187.488 183.056 187.522 182.994C188.128 182.074 188.939 181.306 189.892 180.752C192.256 179.344 194.797 178.255 197.448 177.514C197.324 177.428 197.204 177.34 197.086 177.254C195.923 176.399 194.899 175.369 194.052 174.2C193.673 173.781 193.387 173.287 193.211 172.749C193.036 172.212 192.975 171.644 193.034 171.082C193.092 170.872 193.192 170.676 193.326 170.504C190.124 168.178 186.492 166.511 182.64 165.6C176.428 164.094 169.885 164.811 164.148 167.628C163.103 168.148 162.09 168.73 161.116 169.372L159.516 168.55C159.069 167.775 158.587 167.023 158.068 166.294C157.932 166.104 157.79 165.918 157.648 165.73C154.319 161.312 149.767 157.969 144.556 156.114C144.048 155.935 143.534 155.771 143.016 155.622L142.632 155.514C138.169 154.286 133.458 154.273 128.988 155.474C123.165 157.04 118.051 160.547 114.492 165.414C111.707 169.347 109.976 173.929 109.464 178.721C108.952 183.514 109.676 188.357 111.568 192.79C110.161 193.531 108.813 194.377 107.534 195.322C105.73 192.201 103.367 189.439 100.564 187.172C97.1817 184.484 93.2806 182.524 89.1052 181.415C84.9299 180.305 80.5704 180.07 76.3 180.725C72.0296 181.379 67.9404 182.909 64.2889 185.218C60.6374 187.526 57.5022 190.565 55.08 194.142C52.0222 198.844 50.3568 204.314 50.2761 209.922C50.1955 215.53 51.7028 221.046 54.624 225.834C55.6093 226.145 56.592 226.465 57.572 226.792C55.8517 224.388 54.5076 221.735 53.586 218.926C51.6674 212.946 51.8175 206.494 54.0121 200.61C56.2067 194.726 60.3181 189.751 65.684 186.488C70.2296 183.784 75.4131 182.339 80.702 182.3C85.7989 182.23 90.8235 183.51 95.2664 186.008C99.7093 188.507 103.412 192.136 106 196.528C104.266 197.983 102.7 199.627 101.332 201.43C99.5592 203.786 98.1502 206.395 97.152 209.17C96.812 210.112 96.528 211.066 96.284 212.03C94.5197 219.205 95.2403 226.767 98.328 233.48C97.676 233.992 97.004 234.48 96.304 234.934C94.7176 235.963 93.0302 236.828 91.268 237.514L92.708 237.97L94.092 238.408C95.9036 237.538 97.6196 236.482 99.212 235.256C100.387 237.461 101.821 239.519 103.484 241.384L111.728 244L117.864 245.944C118.904 245.278 120.064 244.744 121.148 244.144L128.502 240.094L150.948 227.732L156.916 224.446C157.394 220.958 157.25 217.412 156.492 213.974C156.369 213.418 156.231 212.865 156.078 212.316C158.803 215.402 162.204 217.817 166.016 219.374L166.08 219.398L176.784 213.504L198.274 201.668L201.316 199.994L203.058 199.034L203.724 198.668L204.054 198.486L204.654 198.156C204.704 197.892 204.748 197.628 204.79 197.356C204.554 197.568 204.315 197.774 204.074 197.974ZM135.212 218.8C132.665 219.79 129.943 220.253 127.212 220.16C127.812 220.55 128.412 220.96 128.976 221.382C131.9 223.298 134.007 226.232 134.89 229.614C135.49 232.916 134.362 237.174 130.808 238.214C128.307 238.759 125.701 238.556 123.316 237.628L123.25 237.792L121.09 243.104C121.016 243.35 120.85 243.558 120.627 243.685C120.403 243.812 120.139 243.848 119.89 243.786C119.641 243.716 119.43 243.551 119.302 243.327C119.174 243.102 119.14 242.836 119.208 242.586L119.52 241.818L121.486 236.982L120.796 236.716C120.017 236.407 119.246 236.081 118.482 235.736L118.442 235.836L116.28 241.15C116.206 241.396 116.039 241.603 115.816 241.73C115.593 241.857 115.329 241.892 115.08 241.83C114.831 241.761 114.619 241.596 114.492 241.371C114.364 241.146 114.331 240.879 114.4 240.63L114.712 239.864L116.712 234.948L116.554 234.882L111.242 232.722C110.996 232.648 110.788 232.482 110.661 232.259C110.534 232.035 110.498 231.771 110.56 231.522C110.629 231.273 110.794 231.061 111.019 230.934C111.244 230.806 111.511 230.773 111.76 230.842L112.528 231.154L114.728 232.052L115.832 229.34C117.884 224.289 119.937 219.24 121.992 214.192C123.037 211.616 124.085 209.041 125.134 206.466L125.5 205.566L125.732 204.994L122.966 203.87C122.727 203.797 122.524 203.637 122.397 203.421C122.27 203.206 122.228 202.951 122.28 202.706V202.67C122.35 202.421 122.515 202.21 122.74 202.082C122.964 201.954 123.23 201.92 123.48 201.988L124.248 202.3L129.164 204.3L129.228 204.142L131.388 198.828C131.462 198.582 131.629 198.375 131.852 198.248C132.075 198.121 132.339 198.086 132.588 198.148C132.721 198.18 132.844 198.246 132.946 198.338C133.096 198.454 133.207 198.613 133.264 198.793C133.322 198.973 133.324 199.167 133.27 199.348L132.958 200.114L132.358 201.57L130.79 205.422C131.627 205.774 132.449 206.153 133.256 206.56C133.398 206.632 133.546 206.698 133.686 206.772L133.742 206.802L133.822 206.602L134.022 206.094L136.184 200.78C136.258 200.534 136.424 200.326 136.647 200.199C136.871 200.072 137.135 200.036 137.384 200.098C137.633 200.167 137.845 200.332 137.973 200.557C138.101 200.782 138.134 201.049 138.066 201.298L137.754 202.066L135.884 206.666L135.594 207.38C135.553 207.479 135.502 207.573 135.44 207.66L135.392 207.728C135.816 207.988 136.24 208.27 136.646 208.576C137.627 209.116 138.421 209.942 138.922 210.944C139.422 211.946 139.606 213.077 139.449 214.186C139.292 215.295 138.8 216.33 138.041 217.153C137.281 217.976 136.289 218.548 135.196 218.794L135.212 218.8ZM141.866 193.95C138.584 191.976 134.978 190.597 131.216 189.876C130.916 189.818 130.616 189.774 130.31 189.726L130.852 187.798C131.429 185.739 132.008 183.682 132.588 181.626C132.648 181.657 132.711 181.682 132.776 181.7C134.399 182.155 135.962 182.801 137.432 183.624C138.054 183.975 138.652 184.368 139.22 184.8C140.307 185.602 141.229 186.605 141.938 187.754C142.583 188.824 142.885 190.067 142.802 191.314C142.8 192.274 142.469 193.205 141.866 193.952V193.95ZM133.104 179.784C133.824 177.228 134.543 174.671 135.26 172.114L135.872 169.938C136.958 170.174 138.032 170.472 139.086 170.81C140.026 171.095 140.949 171.435 141.85 171.828C142.537 172.128 143.176 172.526 143.748 173.01C144.058 173.272 144.328 173.579 144.548 173.92C144.807 174.519 144.849 175.189 144.666 175.815C144.484 176.442 144.088 176.984 143.548 177.35C143.333 177.545 143.099 177.719 142.85 177.87C142.421 178.128 141.973 178.35 141.508 178.536C140.079 179.072 138.587 179.419 137.068 179.568C135.754 179.736 134.429 179.809 133.104 179.786V179.784ZM160.868 186.06C160.764 186.705 160.631 187.347 160.468 187.986C159.957 190.047 159.169 192.029 158.124 193.878C157.42 195.121 156.607 196.3 155.696 197.4C154.266 199.09 152.623 200.588 150.808 201.856C150.46 201.404 150.099 200.963 149.726 200.534C147.902 198.429 145.813 196.569 143.512 195C144.167 194.046 144.586 192.951 144.735 191.803C144.885 190.656 144.759 189.49 144.37 188.4C143.678 186.549 142.478 184.932 140.908 183.732C140.364 183.288 139.794 182.878 139.2 182.504C138.988 182.37 138.778 182.236 138.564 182.104C138.218 181.904 137.864 181.704 137.506 181.526C138.837 181.37 140.149 181.076 141.42 180.65C142.114 180.41 142.787 180.114 143.432 179.764C143.524 179.712 143.632 179.672 143.714 179.62C144.755 179.113 145.604 178.282 146.134 177.252C146.664 176.222 146.845 175.048 146.652 173.906C146.419 173.217 146.052 172.581 145.571 172.036C145.091 171.49 144.506 171.046 143.852 170.728C143.527 170.537 143.193 170.362 142.852 170.202C142.873 170.166 142.892 170.129 142.908 170.09L144.068 165.97L144.216 165.438L144.404 164.774C144.445 164.612 144.446 164.443 144.405 164.281C144.364 164.12 144.283 163.971 144.17 163.848C144.053 163.712 143.896 163.616 143.722 163.574C143.473 163.512 143.209 163.548 142.985 163.675C142.762 163.802 142.596 164.01 142.522 164.256L142.122 165.642L141.204 168.906L141.054 169.446C140.301 169.156 139.536 168.896 138.762 168.668L140.002 164.256L140.2 163.6C140.241 163.475 140.255 163.342 140.244 163.211C140.232 163.08 140.193 162.952 140.131 162.836C140.068 162.72 139.983 162.618 139.88 162.536C139.777 162.454 139.658 162.393 139.531 162.358C139.404 162.323 139.271 162.314 139.14 162.332C139.01 162.35 138.884 162.394 138.771 162.461C138.658 162.529 138.559 162.619 138.482 162.726C138.404 162.832 138.349 162.954 138.32 163.082L137.012 167.732L137 167.8L132.938 166.658L132.272 166.472C132.147 166.431 132.014 166.417 131.883 166.428C131.752 166.44 131.624 166.479 131.508 166.541C131.392 166.604 131.29 166.689 131.208 166.792C131.126 166.895 131.065 167.014 131.03 167.141C130.995 167.268 130.986 167.401 131.004 167.532C131.022 167.662 131.066 167.788 131.133 167.901C131.201 168.014 131.291 168.113 131.398 168.19C131.504 168.268 131.625 168.323 131.754 168.352L134.106 169.014L128.384 189.368L128.352 189.482L128.226 189.468C123.128 188.988 117.992 189.837 113.32 191.932C110.794 186.026 110.567 179.389 112.685 173.325C114.803 167.26 119.112 162.207 124.766 159.158C129.823 156.591 135.613 155.855 141.152 157.074C141.618 157.18 142.078 157.312 142.538 157.446C142.656 157.48 142.776 157.506 142.892 157.542C143.422 157.704 143.944 157.888 144.46 158.086C148.025 159.451 151.248 161.579 153.904 164.32C156.5 167.008 158.486 170.224 159.728 173.748C161.13 177.693 161.522 181.927 160.868 186.062V186.06Z" fill="#FFD35C"/>
<path d="M134.986 209.812C134.242 209.306 133.466 208.847 132.664 208.44C132.192 208.195 131.714 207.961 131.23 207.74C129.96 207.159 128.658 206.649 127.332 206.212L127.306 206.272L126.94 207.17L126.304 208.736L122.578 217.902C122.689 217.886 122.801 217.886 122.912 217.902C122.48 217.84 122.912 217.902 123.088 217.92C124.584 218.087 126.089 218.162 127.594 218.146C130.03 218.239 132.458 217.814 134.718 216.9C136.394 216.1 138.192 214.188 137.374 212.3C136.817 211.27 135.992 210.411 134.986 209.812ZM123.564 220.338C123.234 220.171 122.901 220.012 122.564 219.86L122.272 219.732C122.186 219.694 122.298 219.732 122.372 219.772C122.207 219.704 122.06 219.598 121.942 219.464L120.142 223.884L116.586 232.632C118.319 233.581 120.119 234.404 121.97 235.096C124.498 236.038 127.97 237.284 130.638 236.22C131.223 235.929 131.728 235.5 132.112 234.97C132.495 234.441 132.744 233.827 132.838 233.18C133.242 231.657 133.147 230.045 132.568 228.58C131.292 225.875 129.226 223.62 126.642 222.112C125.653 221.459 124.625 220.866 123.564 220.338Z" fill="#FFD35C"/>
<path d="M204.964 200.212L204.04 200.72L203.968 200.76H203.952L202.972 201.3L198.622 203.7L180.848 213.488L168.554 220.258L159.222 225.398L156.46 226.92L138.544 236.8L123.438 245.12L119.438 247.32C119.172 247.466 118.912 247.634 118.638 247.76C118.658 248.66 118.638 249.56 118.616 250.468C118.574 251.822 118.506 253.178 118.476 254.522L118.15 269.198L117.776 286.088L117.494 298.712L117.472 299.744V300.042L117.456 300.77L117.342 305.85C117.331 306.101 117.223 306.338 117.041 306.511C116.86 306.685 116.618 306.782 116.367 306.782C116.116 306.782 115.874 306.685 115.693 306.511C115.511 306.338 115.403 306.101 115.392 305.85V305.752C115.33 303.858 115.434 301.94 115.504 300.038C115.518 299.696 115.528 299.356 115.538 299.016L115.55 298.658L115.564 297.984L115.876 283.984L116.25 267.092L116.56 253.14L116.632 249.908L116.684 247.64C115.734 247.35 114.794 247.016 113.852 246.716L106.6 244.414L105.98 244.214L91.326 239.572L89.756 239.074L88.08 238.544L83.654 237.144L65.68 231.448L63.252 230.68L61.852 230.238L59.832 229.598L58.07 229.04L56.422 228.518L53.61 227.626C53.702 228.13 53.786 228.626 53.884 229.132L55.172 235.624L55.204 235.78L55.604 237.832L56.11 240.388L61.064 242.1C69.432 244.991 77.8034 247.869 86.178 250.734C92.834 253.008 99.472 255.412 106.208 257.438C106.457 257.508 106.668 257.673 106.795 257.897C106.922 258.122 106.955 258.388 106.886 258.637C106.818 258.886 106.654 259.098 106.429 259.226C106.205 259.354 105.939 259.388 105.69 259.32C102.706 258.422 99.756 257.394 96.804 256.4C87.9854 253.431 79.1807 250.423 70.39 247.376C65.774 245.788 61.1607 244.195 56.55 242.598L59.06 255.258L63.564 277.968L63.664 278.47L63.888 279.594L64.11 280.714L66.25 291.514L67.29 296.758C67.766 299.15 68.2407 301.543 68.714 303.936L68.76 304.166L73.96 306.188L79.36 308.286L99.178 315.992L114.578 321.98C115.478 321.18 116.618 320.546 117.578 319.858L124.34 315.028L125.432 314.248L135.032 307.384L135.982 306.708L136.936 306.024L144.736 300.456L168.466 283.506L187.984 269.564L195.75 264.016C195.838 263.186 195.979 262.363 196.174 261.552L197.082 256.05L197.766 251.904L197.82 251.582L197.872 251.266L199.846 239.302C200.913 232.871 201.974 226.441 203.03 220.012L203.83 215.19C202.056 216.19 200.23 217.128 198.454 218.114L196.958 218.95L196.606 219.15L196.254 219.35C192.081 221.674 187.911 224.003 183.744 226.338C177.889 229.621 172.044 232.919 166.208 236.234C161.008 239.178 155.831 242.165 150.68 245.194C147.684 246.838 144.781 248.645 141.982 250.606C140.982 251.36 140.006 249.666 140.998 248.922C141.174 248.79 141.354 248.662 141.536 248.536C144.696 246.348 148.078 244.454 151.39 242.514C156.716 239.394 162.076 236.334 167.442 233.288C173.246 229.993 179.061 226.717 184.886 223.46C188.77 221.287 192.657 219.118 196.548 216.954L196.9 216.754L197.252 216.554L198.892 215.638L204.246 212.668L204.748 209.628L205.036 207.88L205.334 206.08L205.426 205.532L205.478 205.21L205.532 204.888L205.678 204.004L206.106 201.404L206.426 199.464L206.436 199.402L206.36 199.444L204.964 200.212Z" fill="#FF9F48"/>
<path d="M194.924 171.552C194.924 171.552 194.914 171.552 194.912 171.584C194.932 171.566 194.942 171.552 194.924 171.552ZM206.582 181.166C205.671 178.222 203.87 175.632 201.426 173.754C199.77 172.325 197.661 171.528 195.474 171.506C195.284 171.536 195.097 171.586 194.918 171.656V171.72C194.918 171.678 194.918 171.708 194.942 171.764C194.974 171.862 195.032 172.044 195.05 172.086C195.125 172.252 195.211 172.413 195.308 172.568C195.536 172.954 195.795 173.32 196.084 173.662C196.981 174.835 198.126 175.795 199.438 176.472C199.792 176.619 200.173 176.688 200.556 176.672C200.675 176.66 200.794 176.674 200.908 176.711C201.021 176.749 201.125 176.81 201.213 176.89C201.301 176.97 201.371 177.068 201.419 177.177C201.467 177.287 201.491 177.405 201.49 177.524C201.537 177.74 201.502 177.967 201.391 178.158C201.28 178.35 201.101 178.493 200.89 178.56C200.865 178.571 200.84 178.581 200.814 178.588C199.524 178.928 198.246 179.314 196.984 179.746C194.999 180.369 193.083 181.191 191.264 182.2C190.556 182.566 189.923 183.06 189.396 183.658C189.344 183.731 189.297 183.808 189.256 183.888C189.216 183.962 189.184 184.039 189.16 184.12C189.152 184.163 189.152 184.207 189.16 184.25C189.169 184.27 189.182 184.287 189.2 184.3C189.417 184.435 189.66 184.52 189.914 184.548C190.168 184.589 190.425 184.613 190.682 184.62H190.914C191.799 184.625 192.683 184.563 193.558 184.432C194.717 184.272 195.866 184.049 197 183.764C198.046 183.5 198.764 185.044 197.75 185.546C196.898 185.975 196.073 186.454 195.278 186.982C194.89 187.238 194.506 187.502 194.134 187.782C192.9 188.698 191.266 189.992 191.148 191.642C191.148 191.624 191.216 191.75 191.148 191.678C191.256 191.788 191.046 191.596 191.238 191.778C191.086 191.636 191.426 191.814 191.238 191.778C191.344 191.804 191.438 191.842 191.556 191.866C192.132 191.932 192.715 191.916 193.286 191.818C195.707 191.391 198.066 190.668 200.31 189.666C200.34 189.656 200.37 189.647 200.4 189.64C200.603 189.588 200.818 189.613 201.004 189.708C201.19 189.804 201.334 189.965 201.41 190.16C201.511 190.34 201.551 190.549 201.524 190.754C201.497 190.959 201.405 191.15 201.26 191.298C200.114 192.337 199.073 193.486 198.152 194.728C197.689 195.338 197.282 195.989 196.936 196.672C196.773 196.998 196.639 197.338 196.536 197.688C196.451 197.966 196.406 198.255 196.402 198.546C196.401 198.63 196.407 198.713 196.42 198.796C196.445 198.955 196.499 199.108 196.58 199.248C196.614 199.297 196.656 199.338 196.706 199.37C196.763 199.39 196.818 199.413 196.872 199.44C197.011 199.447 197.151 199.447 197.29 199.44C197.61 199.403 197.925 199.331 198.23 199.226C198.304 199.2 198.376 199.168 198.45 199.14C199.257 198.823 200.027 198.421 200.748 197.94C200.806 197.904 200.86 197.862 200.918 197.824C201.704 197.317 202.457 196.762 203.174 196.162C203.522 195.872 203.854 195.562 204.174 195.256C204.494 194.95 204.792 194.656 205.086 194.334L205.188 194.226C205.334 194.068 205.49 193.916 205.63 193.754C206.025 193.301 206.361 192.8 206.63 192.262C207.093 191.28 207.364 190.218 207.43 189.134C207.472 188.702 207.492 188.27 207.504 187.836C207.504 187.508 207.516 187.182 207.504 186.856C207.492 186.53 207.484 186.208 207.462 185.884C207.357 184.282 207.061 182.698 206.582 181.166ZM223.886 91.058C223.614 90.1606 223.025 89.3927 222.229 88.898C221.432 88.4033 220.483 88.2156 219.558 88.37C219.034 88.6628 218.46 88.8548 217.866 88.936C212.79 89.792 211.466 85.058 211.144 81.992C211.113 81.6946 211.089 81.3966 211.072 81.098C210.872 81.298 210.642 81.534 210.388 81.774C208.11 83.9428 205.269 85.4285 202.188 86.062C195.686 87.362 195.806 83.862 195.806 83.862C193.727 84.2336 191.612 84.3677 189.502 84.262C189.04 85.0159 188.654 85.8138 188.35 86.644C187.635 88.5421 187.248 90.5481 187.206 92.576C187.248 94.6413 187.71 96.6764 188.562 98.558C189.222 100.115 190.147 101.547 191.296 102.788C192.588 104.192 194.129 105.345 195.84 106.188C195.828 106.404 195.814 106.724 195.808 107.124V107.724C195.828 110.176 196.208 114.348 198.462 115.414C199.915 115.906 201.487 115.923 202.95 115.462C203.095 115.378 203.261 115.337 203.428 115.342C206.935 114.404 210.008 112.28 212.126 109.332C212.6 108.577 212.867 107.711 212.9 106.82V106.694C212.9 106.652 212.912 106.59 212.912 106.536V104.01C215.096 102.116 216.703 99.6459 217.55 96.882C218.375 97.3021 219.306 97.4646 220.224 97.3483C221.142 97.232 222.004 96.8424 222.698 96.23C223.379 95.5777 223.854 94.7406 224.065 93.8216C224.276 92.9027 224.214 91.942 223.886 91.058ZM191.738 91.93C191.618 91.892 191.509 91.823 191.424 91.73C191.243 91.5456 191.141 91.2983 191.138 91.04V89.64C191.141 89.3824 191.244 89.136 191.424 88.952C191.607 88.769 191.855 88.6661 192.114 88.666C192.37 88.6771 192.614 88.7784 192.802 88.952C192.982 89.136 193.085 89.3824 193.088 89.64V91.04C193.085 91.2983 192.983 91.5456 192.802 91.73C192.619 91.9119 192.372 92.0146 192.114 92.016C191.983 92.0205 191.854 91.9909 191.738 91.93ZM201.824 107.806C201.76 108.004 201.635 108.176 201.468 108.3C201.301 108.424 201.1 108.492 200.892 108.496C200.097 108.471 199.307 108.352 198.54 108.142C198.149 108.048 197.762 107.937 197.38 107.81C197.183 107.746 197.009 107.626 196.88 107.464C196.8 107.359 196.741 107.238 196.708 107.11C196.667 106.947 196.667 106.775 196.708 106.612V106.598C196.781 106.352 196.948 106.145 197.172 106.02C197.396 105.895 197.66 105.863 197.908 105.93C198.679 106.189 199.472 106.379 200.276 106.5C200.483 106.526 200.691 106.542 200.9 106.546C201.084 106.546 201.264 106.601 201.418 106.702C201.492 106.755 201.559 106.816 201.618 106.886C201.769 107.064 201.856 107.287 201.866 107.52C201.869 107.615 201.855 107.71 201.824 107.8V107.806ZM207.594 98.35C205.594 102.214 200.08 104.564 196.194 101.974C195.088 101.129 194.179 100.053 193.532 98.8211C192.885 97.5889 192.514 96.2302 192.446 94.84C192.439 94.6876 192.469 94.5357 192.533 94.3973C192.598 94.259 192.695 94.1384 192.816 94.0459C192.938 93.9534 193.08 93.8918 193.23 93.8664C193.381 93.841 193.535 93.8525 193.68 93.9C194.806 94.2771 195.975 94.5109 197.16 94.596C200.611 94.8943 204.088 94.6595 207.468 93.9C208.026 93.782 208.772 94.17 208.702 94.84C208.557 96.0686 208.183 97.2591 207.6 98.35H207.594ZM210.646 90.462V91.688C210.641 91.9459 210.539 92.1925 210.36 92.378C210.176 92.56 209.929 92.6627 209.67 92.664C209.54 92.6689 209.41 92.6399 209.294 92.58C209.174 92.5415 209.066 92.4726 208.98 92.38C208.799 92.1956 208.697 91.9483 208.694 91.69V90.29C208.697 90.0317 208.799 89.7844 208.98 89.6C209.164 89.4181 209.411 89.3154 209.67 89.314C209.801 89.3072 209.931 89.3363 210.046 89.398C210.166 89.4366 210.274 89.5055 210.36 89.598C210.541 89.7824 210.643 90.0297 210.646 90.288V90.462Z" fill="#FFCEB6"/>
<path d="M324.928 108.262C327.821 107.181 330.988 107.077 333.946 107.966C334.002 107.452 334.074 106.79 334.168 106.006C332.697 105.564 331.159 105.386 329.626 105.48C329.308 105.496 328.988 105.524 328.668 105.552C330.181 104.28 331.389 102.683 332.2 100.88C332.637 99.969 332.758 98.9384 332.545 97.9508C332.331 96.9632 331.795 96.0748 331.02 95.426C329.744 94.685 328.238 94.4448 326.794 94.752L325.506 90.792L325.318 90.218C325.284 90.094 325.227 89.9778 325.148 89.8762C325.069 89.7746 324.971 89.6895 324.86 89.6258C324.748 89.5621 324.625 89.521 324.498 89.505C324.37 89.489 324.241 89.4983 324.117 89.5324C323.993 89.5665 323.877 89.6247 323.776 89.7037C323.675 89.7827 323.59 89.8809 323.527 89.9928C323.463 90.1046 323.423 90.2278 323.407 90.3554C323.392 90.4829 323.401 90.6122 323.436 90.736L324.742 94.736L324.866 95.114H324.83C324.23 95.254 323.652 95.42 323.068 95.6C322.668 94.3867 322.273 93.1727 321.882 91.958L321.694 91.382C321.66 91.258 321.603 91.1418 321.524 91.0402C321.445 90.9386 321.347 90.8535 321.236 90.7898C321.124 90.7261 321.001 90.685 320.874 90.669C320.746 90.653 320.617 90.6623 320.493 90.6964C320.369 90.7305 320.253 90.7887 320.152 90.8677C320.051 90.9467 319.966 91.0449 319.903 91.1568C319.839 91.2686 319.799 91.3918 319.783 91.5194C319.768 91.6469 319.777 91.7763 319.812 91.9L321.114 95.9L317.78 96.986L317.204 97.174C316.965 97.2515 316.765 97.4182 316.646 97.6395C316.527 97.8607 316.497 98.1194 316.564 98.3617C316.631 98.604 316.788 98.8112 317.004 98.9401C317.22 99.0691 317.477 99.1099 317.722 99.054L319.678 98.418L324.494 113.196L326.294 112.416L324.936 108.25L324.928 108.262ZM324.314 106.386L322.212 99.936L321.636 98.17L321.766 98.118C322.517 97.8353 323.277 97.5807 324.046 97.354C325.732 96.6813 327.571 96.4835 329.362 96.782C330.812 97.22 330.874 99.012 330.362 100.224C329.562 101.833 328.411 103.242 326.994 104.348C326.152 105.092 325.256 105.773 324.314 106.386ZM263.746 188.296C262.946 186.506 260.746 180.348 258.114 180.348C256.55 180.348 255.224 182.226 254.414 183.726C255.132 184.449 255.809 185.212 256.442 186.01C259.28 189.676 261.17 193.985 261.944 198.556C262.304 200.467 262.45 202.412 262.38 204.356C263.783 206.185 265.544 207.708 267.556 208.832C270.746 209.56 268.444 201.098 268.118 199.89C266.958 195.92 265.496 192.044 263.746 188.296ZM125.22 317.766C123.8 318.221 122.55 319.093 121.632 320.268C118.412 324.056 116.232 332.944 122.744 334.772C126.028 335.692 129.744 332.656 131.064 327.988C132.12 324.224 130.77 316.266 125.22 317.766ZM190.654 271.282C189.75 271.575 188.954 272.132 188.37 272.882C186.322 275.294 184.932 280.948 189.078 282.112C191.168 282.698 193.538 280.766 194.372 277.796C195.044 275.4 194.186 270.328 190.654 271.282ZM111.234 232.728L116.546 234.888L116.704 234.954L114.704 239.87L114.392 240.636C114.323 240.885 114.356 241.152 114.484 241.377C114.611 241.602 114.823 241.767 115.072 241.836C115.321 241.898 115.585 241.863 115.808 241.736C116.031 241.609 116.198 241.402 116.272 241.156L118.434 235.842L118.474 235.742C119.24 236.086 120.012 236.416 120.788 236.722L121.478 236.988L119.512 241.824L119.2 242.592C119.132 242.842 119.166 243.108 119.294 243.332C119.422 243.557 119.633 243.722 119.882 243.792C120.131 243.854 120.395 243.818 120.619 243.691C120.842 243.564 121.008 243.356 121.082 243.11L123.242 237.798L123.308 237.634C125.693 238.562 128.299 238.765 130.8 238.22C134.354 237.176 135.472 232.918 134.882 229.62C133.999 226.238 131.892 223.304 128.968 221.388C128.4 220.958 127.808 220.556 127.204 220.166C129.935 220.258 132.657 219.796 135.204 218.806C136.297 218.56 137.289 217.988 138.049 217.165C138.808 216.342 139.3 215.307 139.457 214.198C139.614 213.089 139.43 211.958 138.93 210.956C138.429 209.954 137.635 209.128 136.654 208.588C136.251 208.284 135.832 208.001 135.4 207.74L135.448 207.672C135.509 207.585 135.561 207.492 135.602 207.394L135.892 206.678L137.762 202.078L138.074 201.31C138.143 201.06 138.109 200.794 137.982 200.569C137.854 200.344 137.642 200.179 137.392 200.11C137.143 200.048 136.879 200.083 136.656 200.21C136.433 200.337 136.266 200.544 136.192 200.79C135.469 202.562 134.749 204.333 134.03 206.104L133.83 206.612L133.75 206.812L133.694 206.782C133.554 206.708 133.406 206.642 133.264 206.57C132.464 206.17 131.642 205.791 130.798 205.432L132.366 201.58L132.966 200.124L133.278 199.358C133.332 199.177 133.33 198.983 133.272 198.803C133.215 198.623 133.104 198.464 132.954 198.348C132.852 198.256 132.729 198.19 132.596 198.158C132.347 198.096 132.083 198.131 131.86 198.258C131.637 198.385 131.47 198.592 131.396 198.838L129.236 204.152L129.172 204.31L124.256 202.31L123.484 202C123.234 201.932 122.968 201.966 122.744 202.094C122.519 202.222 122.354 202.433 122.284 202.682V202.718C122.232 202.963 122.274 203.218 122.401 203.433C122.528 203.649 122.731 203.809 122.97 203.882L125.736 205.006L125.504 205.578L125.138 206.478L122 214.2L115.84 229.348L114.736 232.06L112.536 231.162L111.768 230.85C111.519 230.781 111.252 230.814 111.027 230.942C110.802 231.069 110.637 231.281 110.568 231.53C110.506 231.777 110.54 232.038 110.663 232.261C110.787 232.484 110.991 232.651 111.234 232.728ZM126.304 208.728L126.94 207.162L127.306 206.264L127.332 206.204C128.658 206.641 129.96 207.151 131.23 207.732C131.714 207.952 132.192 208.188 132.664 208.432C133.466 208.839 134.242 209.298 134.986 209.804C135.992 210.402 136.817 211.262 137.374 212.292C138.192 214.18 136.394 216.092 134.718 216.892C132.458 217.806 130.03 218.231 127.594 218.138C126.089 218.151 124.584 218.076 123.088 217.912C122.908 217.892 122.488 217.834 122.912 217.894C122.801 217.878 122.689 217.878 122.578 217.894L126.304 208.728ZM120.144 223.876L121.944 219.456C122.062 219.59 122.209 219.696 122.374 219.764C122.3 219.732 122.188 219.686 122.274 219.724L122.568 219.852C122.904 220.004 123.237 220.163 123.568 220.33C124.63 220.861 125.658 221.456 126.648 222.112C129.232 223.62 131.298 225.876 132.574 228.582C133.154 230.047 133.249 231.659 132.844 233.182C132.75 233.829 132.501 234.443 132.118 234.972C131.734 235.502 131.229 235.93 130.644 236.222C127.968 237.286 124.504 236.04 121.976 235.098C120.125 234.406 118.325 233.583 116.592 232.634C117.773 229.717 118.957 226.8 120.144 223.884V223.876ZM180.174 92.94C181.096 93.2388 182.046 93.4399 183.01 93.54C182.388 94.3333 181.836 95.1784 181.358 96.066C180.084 98.418 178.856 101.954 180.922 104.678C181.933 105.652 183.236 106.269 184.63 106.434C188.322 107.062 192.07 107.296 195.812 107.132C195.812 106.732 195.832 106.412 195.844 106.196C194.133 105.353 192.592 104.2 191.3 102.796C190.151 101.555 189.226 100.123 188.566 98.566C187.714 96.6843 187.252 94.6492 187.21 92.584C187.252 90.5561 187.639 88.5501 188.354 86.652C188.658 85.8218 189.044 85.0238 189.506 84.27C191.616 84.3757 193.731 84.2415 195.81 83.87C195.81 83.87 195.69 87.362 202.192 86.07C205.273 85.4364 208.114 83.9508 210.392 81.782C210.626 81.5626 210.854 81.3372 211.076 81.106C211.092 81.38 211.114 81.68 211.148 82C211.476 85.066 212.794 89.8 217.87 88.944C218.464 88.8627 219.038 88.6707 219.562 88.378C220.487 88.2236 221.436 88.4113 222.233 88.906C223.029 89.4007 223.618 90.1685 223.89 91.066C224.219 91.9491 224.283 92.9091 224.074 93.828C223.864 94.7469 223.391 95.5846 222.712 96.238C222.018 96.8504 221.156 97.24 220.238 97.3563C219.32 97.4725 218.389 97.3101 217.564 96.89C216.717 99.6539 215.11 102.124 212.926 104.018V106.544C212.926 106.598 212.926 106.65 212.914 106.702C212.902 106.754 212.914 106.786 212.914 106.828C214.89 107.2 217.514 107.682 220.048 108.112C222.639 108.611 225.257 108.958 227.888 109.154C231.022 109.154 229.452 102.554 226.946 98.852C227.456 99.388 228.746 100.078 231.638 98.452C233.776 97.242 230.988 89.986 223.21 84.63C222.61 84.22 221.986 83.82 221.332 83.43C221.403 83.3459 221.455 83.2482 221.487 83.143C221.518 83.0377 221.527 82.9271 221.514 82.8181C221.5 82.7091 221.465 82.604 221.409 82.5094C221.353 82.4147 221.279 82.3326 221.19 82.268C219.424 80.9136 217.47 79.8241 215.39 79.034C209.898 76.847 204.067 75.6362 198.158 75.456C195.175 75.3263 192.188 75.3817 189.212 75.622C187.059 75.79 184.911 76.034 182.77 76.354C181.532 76.538 182.058 78.418 183.288 78.234C185.192 77.9513 187.109 77.7307 189.04 77.572C187.715 78.247 186.686 79.3862 186.148 80.772C185.914 81.1683 185.821 81.6319 185.883 82.0878C185.946 82.5436 186.16 82.9651 186.492 83.284C183.845 85.2351 181.33 87.3583 178.962 89.64C178.91 89.696 178.868 89.748 178.822 89.802C177.362 91.458 178.652 92.412 180.174 92.94Z" fill="black"/>
<path d="M196.186 101.974C200.08 104.564 205.586 102.214 207.586 98.3501C208.169 97.259 208.542 96.0685 208.686 94.8401C208.756 94.1701 208.01 93.7821 207.452 93.9001C204.072 94.6596 200.595 94.8943 197.144 94.5961C195.959 94.5119 194.79 94.2781 193.664 93.9001C193.519 93.8526 193.365 93.8411 193.214 93.8665C193.064 93.8919 192.922 93.9535 192.8 94.046C192.679 94.1384 192.582 94.259 192.517 94.3974C192.453 94.5357 192.423 94.6876 192.43 94.8401C192.499 96.2309 192.871 97.59 193.52 98.8222C194.168 100.054 195.078 101.13 196.186 101.974ZM194.662 96.2001C195.485 96.3611 196.316 96.4799 197.152 96.5561C200.255 96.826 203.38 96.6678 206.44 96.0861C206.362 96.3358 206.273 96.582 206.174 96.8241C205.576 98.2855 204.5 99.501 203.122 100.272C202.291 100.743 201.362 101.015 200.408 101.066C199.454 101.117 198.501 100.947 197.624 100.568C196.389 99.8289 195.458 98.6728 195 97.3081C194.869 96.9447 194.756 96.5749 194.662 96.2001ZM209.67 92.6641C209.929 92.6627 210.176 92.56 210.36 92.3781C210.539 92.1925 210.641 91.946 210.646 91.6881V90.2881C210.643 90.0298 210.541 89.7825 210.36 89.5981C210.274 89.5055 210.166 89.4366 210.046 89.3981C209.931 89.3363 209.801 89.3073 209.67 89.3141C209.411 89.3154 209.164 89.4181 208.98 89.6001C208.799 89.7845 208.697 90.0318 208.694 90.2901V91.6901C208.697 91.9484 208.799 92.1956 208.98 92.3801C209.066 92.4726 209.174 92.5415 209.294 92.5801C209.409 92.6418 209.539 92.6708 209.67 92.6641ZM193.088 91.0381V89.6381C193.085 89.3804 192.982 89.134 192.802 88.9501C192.614 88.7764 192.37 88.6751 192.114 88.6641C191.855 88.6641 191.607 88.767 191.424 88.9501C191.244 89.134 191.141 89.3804 191.138 89.6381V91.0381C191.141 91.2964 191.243 91.5436 191.424 91.7281C191.509 91.821 191.618 91.89 191.738 91.9281C191.854 91.9882 191.984 92.0172 192.114 92.0121C192.372 92.0106 192.619 91.9079 192.802 91.7261C192.982 91.5421 193.085 91.2957 193.088 91.0381ZM200.892 106.546C200.683 106.542 200.475 106.526 200.268 106.5C199.464 106.38 198.671 106.189 197.9 105.93C197.652 105.863 197.388 105.895 197.164 106.02C196.94 106.145 196.773 106.352 196.7 106.598V106.612C196.659 106.776 196.659 106.947 196.7 107.11C196.733 107.238 196.792 107.359 196.872 107.464C197.001 107.626 197.175 107.746 197.372 107.81C197.754 107.938 198.142 108.044 198.532 108.142C199.299 108.353 200.089 108.471 200.884 108.496C201.092 108.492 201.293 108.424 201.46 108.3C201.627 108.176 201.752 108.004 201.816 107.806C201.847 107.714 201.861 107.617 201.858 107.52C201.848 107.287 201.761 107.064 201.61 106.886C201.551 106.816 201.484 106.755 201.41 106.702C201.256 106.601 201.076 106.547 200.892 106.546ZM200.774 137.218C200.718 138.472 202.67 138.47 202.724 137.218C202.978 131.436 203.414 125.66 203.818 119.888C204.295 121.207 205.116 122.375 206.195 123.271C207.274 124.167 208.573 124.759 209.957 124.985C211.342 125.212 212.761 125.064 214.07 124.558C215.378 124.053 216.528 123.207 217.4 122.108C219.467 120.045 221.236 117.704 222.656 115.152C223.537 113.681 224.333 112.162 225.04 110.6C225.143 110.375 225.158 110.12 225.084 109.884C225.045 109.732 224.971 109.59 224.867 109.472C224.763 109.354 224.633 109.261 224.486 109.203C224.34 109.144 224.182 109.121 224.026 109.135C223.869 109.15 223.717 109.2 223.584 109.284C223.486 109.375 223.407 109.485 223.354 109.608C221.852 113.109 219.843 116.37 217.392 119.286C216.022 121.226 213.983 122.59 211.668 123.116C210.572 123.164 209.484 122.907 208.525 122.372C207.567 121.837 206.777 121.046 206.242 120.088C205.406 118.853 204.787 117.484 204.412 116.04C204.346 115.833 204.215 115.653 204.038 115.527C203.861 115.401 203.647 115.336 203.43 115.342C203.263 115.337 203.097 115.378 202.952 115.462C202.811 115.54 202.699 115.661 202.63 115.806C202.139 117.06 201.369 118.185 200.376 119.096C199.384 120.007 198.197 120.678 196.906 121.06C192.816 121.762 190.506 117.542 189.666 114.228C189.393 113.241 189.222 112.23 189.156 111.208C189.149 110.998 189.073 110.796 188.94 110.634C188.806 110.471 188.623 110.358 188.418 110.31C188.302 110.27 188.179 110.254 188.057 110.262C187.934 110.27 187.815 110.302 187.705 110.357C187.595 110.411 187.497 110.487 187.417 110.58C187.337 110.673 187.276 110.781 187.238 110.898C187.211 110.999 187.199 111.104 187.204 111.208C187.319 114.396 188.382 117.478 190.258 120.058C190.955 120.977 191.852 121.725 192.882 122.245C193.912 122.765 195.047 123.043 196.2 123.058C197.275 123 198.328 122.728 199.296 122.257C200.265 121.787 201.13 121.127 201.84 120.318C201.552 124.463 201.279 128.61 201.02 132.758C200.924 134.244 200.842 135.731 200.774 137.218Z" fill="black"/>
<path d="M199.176 126.172C198.993 125.989 198.745 125.886 198.486 125.886C198.227 125.886 197.979 125.989 197.796 126.172C197.62 126.36 197.519 126.605 197.51 126.862C197.48 127.462 197.448 128.062 197.43 128.662C197.43 128.921 197.533 129.168 197.715 129.351C197.898 129.534 198.146 129.638 198.404 129.638C198.663 129.637 198.911 129.534 199.094 129.352C199.271 129.165 199.373 128.919 199.38 128.662C199.398 128.062 199.432 127.462 199.462 126.862C199.459 126.604 199.357 126.356 199.176 126.172ZM198.486 133.69C198.227 133.691 197.979 133.793 197.796 133.976C197.62 134.163 197.519 134.408 197.51 134.664C197.48 135.264 197.448 135.864 197.43 136.464C197.43 136.657 197.486 136.846 197.593 137.007C197.7 137.167 197.853 137.292 198.031 137.366C198.209 137.44 198.405 137.46 198.595 137.422C198.784 137.384 198.958 137.291 199.094 137.154C199.272 136.968 199.374 136.722 199.38 136.464C199.398 135.864 199.432 135.264 199.462 134.664C199.461 134.406 199.358 134.158 199.175 133.975C198.992 133.793 198.745 133.69 198.486 133.69ZM246.48 128.842C245.82 127.219 245.035 125.65 244.132 124.148L244 123.934C243.913 123.8 243.796 123.689 243.657 123.61C243.519 123.531 243.363 123.486 243.204 123.479C243.045 123.472 242.886 123.504 242.741 123.571C242.597 123.638 242.47 123.738 242.372 123.864C242.243 124.007 242.168 124.19 242.158 124.382C242.147 124.574 242.203 124.764 242.316 124.92C244.436 128.439 246.017 132.255 247.006 136.242C249.513 145.262 249.243 154.828 246.23 163.692C243.745 170.337 239.299 176.069 233.482 180.13C232.269 181.022 231.019 181.861 229.734 182.648L229.484 182.8C229.236 182.952 228.982 183.094 228.732 183.242C228.354 183.464 227.982 183.69 227.6 183.904C226.75 184.38 225.884 184.828 225.012 185.266C222.415 186.561 219.744 187.701 217.012 188.68C214.412 189.618 211.764 190.312 209.106 191.012C209.148 190.812 209.194 190.612 209.226 190.412C209.37 189.47 209.447 188.519 209.458 187.566V186.588C209.458 186.26 209.434 185.94 209.41 185.618C209.299 184.129 209.038 182.655 208.632 181.218C208.08 179.264 207.197 177.42 206.02 175.766C205.452 174.235 204.885 172.702 204.318 171.166C207.872 170.074 211.276 168.544 214.452 166.61C221.535 162.702 226.986 156.388 229.818 148.81C231.583 143.139 231.798 137.1 230.442 131.318C230.186 130.09 228.304 130.61 228.562 131.838C229.708 136.816 229.636 141.998 228.352 146.942C227.224 150.882 225.224 154.517 222.5 157.578C220.092 160.27 217.3 162.594 214.216 164.474C211.823 165.95 209.305 167.214 206.692 168.252C205.416 168.773 204.109 169.215 202.778 169.574C202.53 169.645 202.319 169.81 202.192 170.035C202.065 170.259 202.031 170.525 202.098 170.774L202.644 172.248C200.644 170.536 198.106 169.582 195.474 169.552C195.071 169.554 194.672 169.639 194.303 169.801C193.934 169.962 193.601 170.198 193.326 170.492C193.192 170.664 193.092 170.86 193.034 171.07C192.975 171.632 193.036 172.2 193.211 172.737C193.387 173.275 193.673 173.769 194.052 174.188C194.898 175.36 195.922 176.394 197.086 177.252C197.204 177.338 197.324 177.426 197.448 177.512C194.797 178.253 192.256 179.341 189.892 180.75C188.939 181.306 188.128 182.076 187.524 183C187.488 183.062 187.452 183.124 187.422 183.188C187.222 182.988 187.01 182.802 186.788 182.622C186.332 182.253 185.852 181.915 185.352 181.608C185.41 181.524 185.459 181.433 185.498 181.338L187.472 176.488L187.756 175.788C187.824 175.539 187.79 175.272 187.662 175.048C187.534 174.823 187.323 174.658 187.074 174.588C186.825 174.526 186.561 174.562 186.337 174.689C186.114 174.816 185.948 175.024 185.874 175.27L183.902 180.12L183.68 180.668C182.849 180.239 182.002 179.844 181.14 179.482L183.082 174.704L183.366 174.004C183.435 173.755 183.402 173.488 183.274 173.263C183.147 173.038 182.935 172.873 182.686 172.804C182.52 172.76 182.346 172.762 182.181 172.809C182.016 172.856 181.867 172.947 181.75 173.072C181.637 173.192 181.547 173.333 181.486 173.486L179.514 178.334L179.49 178.392L175.262 176.672L175.072 176.594L174.372 176.31C174.122 176.242 173.856 176.276 173.632 176.404C173.407 176.532 173.242 176.743 173.172 176.992C173.11 177.241 173.146 177.505 173.273 177.729C173.4 177.952 173.608 178.118 173.854 178.192L176.29 179.182L173.89 185.086L172.14 189.39L171.4 191.206L167.272 201.358L166.31 203.722L164.362 202.922L163.662 202.638C163.412 202.57 163.146 202.603 162.921 202.731C162.696 202.859 162.531 203.071 162.462 203.32C162.4 203.569 162.436 203.833 162.563 204.057C162.69 204.28 162.898 204.446 163.144 204.52L167.994 206.492L168.05 206.516C167.451 207.991 166.851 209.463 166.25 210.934L165.966 211.636C165.932 211.759 165.922 211.888 165.938 212.016C165.953 212.143 165.994 212.266 166.057 212.377C166.12 212.489 166.205 212.587 166.306 212.665C166.407 212.744 166.522 212.802 166.646 212.836C166.895 212.898 167.159 212.863 167.382 212.736C167.605 212.609 167.772 212.402 167.846 212.156L169.818 207.306C170.506 207.614 171.202 207.906 171.9 208.186L172.404 208.386C171.813 209.834 171.225 211.282 170.638 212.73L170.352 213.43C170.284 213.68 170.318 213.946 170.446 214.17C170.574 214.395 170.785 214.56 171.034 214.63C171.283 214.692 171.547 214.656 171.771 214.529C171.994 214.402 172.16 214.194 172.234 213.948L174.206 209.1L174.234 209.032C176.402 209.863 178.766 210.041 181.034 209.544C184.318 208.584 185.368 204.678 184.834 201.622C184.035 198.5 182.098 195.79 179.404 194.022C179.037 193.747 178.663 193.48 178.284 193.222L178.032 193.048C179.647 193.061 181.257 192.886 182.832 192.528C183.583 192.349 184.319 192.11 185.032 191.812C186.177 191.428 187.175 190.699 187.889 189.725C188.602 188.751 188.997 187.579 189.018 186.372C190.149 186.622 191.315 186.67 192.462 186.512L192.592 186.496C190.933 187.54 189.726 189.17 189.212 191.062C188.566 195.342 194.972 193.54 197.1 192.878C196.874 193.162 196.65 193.448 196.438 193.74C195.88 194.479 195.398 195.272 195 196.108C194.719 196.699 194.531 197.329 194.44 197.976C194.331 198.72 194.462 199.48 194.814 200.144C195.892 202.116 198.442 201.324 200.03 200.57C200.43 200.386 200.806 200.17 201.184 199.958C201.825 199.588 202.445 199.184 203.042 198.746L203.31 198.546C203.561 198.358 203.807 198.165 204.048 197.966C204.289 197.767 204.528 197.567 204.764 197.366L205.056 197.098C205.432 196.754 205.8 196.406 206.154 196.048C206.994 195.225 207.706 194.281 208.268 193.248C210.903 192.69 213.499 191.963 216.04 191.072C220.313 189.649 224.448 187.842 228.394 185.672C228.722 185.489 229.048 185.304 229.372 185.116C229.696 184.928 230.029 184.728 230.372 184.516C231.222 184 232.062 183.47 232.884 182.916C238.997 179.006 243.894 173.464 247.022 166.916C250.769 157.992 251.661 148.127 249.576 138.676C248.87 135.304 247.833 132.01 246.48 128.842ZM173.656 190.8L173.856 190.828C173.79 190.819 173.723 190.815 173.656 190.816V190.8ZM182.55 200.658C183.386 202.776 183.284 206.602 180.826 207.56C178.368 208.518 175.238 207.36 172.94 206.502C171.297 205.887 169.7 205.156 168.16 204.316C169.76 200.373 171.363 196.431 172.97 192.488C173.072 192.576 173.188 192.648 173.312 192.7C173.246 192.67 173.148 192.63 173.206 192.656C173.264 192.682 173.38 192.73 173.466 192.77C173.768 192.908 174.066 193.052 174.368 193.2C175.323 193.679 176.249 194.213 177.142 194.8C179.491 196.165 181.375 198.204 182.55 200.654V200.658ZM184.44 189.978C182.388 190.767 180.197 191.13 178 191.044H177.776C176.843 191.044 175.903 191.007 174.958 190.934C174.641 190.91 174.324 190.88 174.008 190.844C173.912 190.844 173.696 190.804 173.656 190.8L174 189.932L175.46 186.342L177.008 182.542C177.307 181.81 177.604 181.077 177.9 180.342C178.864 180.66 179.814 181.028 180.746 181.432L181.422 181.73C183.276 182.582 186.076 183.818 186.934 185.806C187.706 187.572 185.978 189.286 184.44 189.974V189.978ZM194.924 171.556C194.942 171.556 194.924 171.57 194.912 171.588C194.914 171.556 194.92 171.552 194.924 171.552V171.556ZM207.512 187.856C207.502 188.289 207.478 188.722 207.438 189.154C207.372 190.238 207.101 191.3 206.638 192.282C206.369 192.82 206.033 193.321 205.638 193.774C205.498 193.936 205.342 194.088 205.196 194.246L205.094 194.354C204.801 194.67 204.497 194.977 204.182 195.276C203.854 195.588 203.52 195.892 203.182 196.182C202.465 196.782 201.712 197.337 200.926 197.844C200.868 197.882 200.814 197.924 200.756 197.96C200.035 198.441 199.265 198.844 198.458 199.16C198.384 199.188 198.312 199.22 198.238 199.246C197.933 199.351 197.618 199.423 197.298 199.46C197.159 199.467 197.019 199.467 196.88 199.46C196.826 199.433 196.771 199.41 196.714 199.39C196.664 199.358 196.622 199.317 196.588 199.268C196.507 199.128 196.453 198.975 196.428 198.816C196.415 198.733 196.409 198.65 196.41 198.566C196.414 198.275 196.459 197.986 196.544 197.708C196.647 197.358 196.781 197.018 196.944 196.692C197.29 196.009 197.697 195.358 198.16 194.748C199.081 193.506 200.122 192.357 201.268 191.318C201.413 191.17 201.505 190.979 201.532 190.774C201.559 190.569 201.519 190.36 201.418 190.18C201.342 189.985 201.198 189.824 201.012 189.728C200.826 189.633 200.611 189.608 200.408 189.66C200.378 189.667 200.348 189.676 200.318 189.686C198.074 190.688 195.715 191.411 193.294 191.838C192.723 191.936 192.14 191.952 191.564 191.886C191.456 191.862 191.352 191.824 191.246 191.798C191.088 191.664 191.428 191.842 191.246 191.798C191.046 191.616 191.264 191.798 191.156 191.698C191.226 191.77 191.156 191.644 191.156 191.662C191.274 190.012 192.908 188.718 194.142 187.802C194.514 187.526 194.898 187.262 195.286 187.002C196.081 186.474 196.906 185.995 197.758 185.566C198.772 185.064 198.052 183.52 197.008 183.784C195.874 184.069 194.725 184.292 193.566 184.452C192.691 184.583 191.807 184.645 190.922 184.64H190.69C190.433 184.633 190.176 184.609 189.922 184.568C189.669 184.54 189.425 184.455 189.208 184.32C189.19 184.307 189.177 184.29 189.168 184.27C189.16 184.227 189.16 184.183 189.168 184.14C189.192 184.059 189.224 183.982 189.264 183.908C189.305 183.828 189.352 183.751 189.404 183.678C189.931 183.081 190.565 182.587 191.272 182.22C193.093 181.207 195.012 180.382 197 179.756C198.262 179.324 199.54 178.938 200.83 178.598C200.856 178.591 200.882 178.581 200.906 178.57C201.117 178.503 201.296 178.36 201.407 178.168C201.518 177.977 201.553 177.75 201.506 177.534C201.507 177.415 201.483 177.297 201.435 177.188C201.387 177.078 201.317 176.98 201.229 176.9C201.141 176.82 201.037 176.759 200.924 176.721C200.81 176.684 200.691 176.67 200.572 176.682C200.189 176.698 199.808 176.629 199.454 176.482C198.142 175.805 196.997 174.845 196.1 173.672C195.811 173.33 195.552 172.964 195.324 172.578C195.227 172.423 195.141 172.262 195.066 172.096C195.048 172.054 194.99 171.872 194.958 171.774C194.938 171.718 194.926 171.688 194.934 171.73V171.666C195.113 171.596 195.3 171.546 195.49 171.516C197.677 171.538 199.786 172.335 201.442 173.764C203.886 175.642 205.687 178.232 206.598 181.176C207.083 182.713 207.382 184.302 207.49 185.91C207.513 186.234 207.527 186.558 207.532 186.882C207.524 187.2 207.522 187.524 207.512 187.852V187.856ZM176.476 160.088C177.005 148.427 178.7 136.849 181.536 125.526C181.736 124.726 181.936 123.926 182.158 123.126C182.226 122.877 182.192 122.611 182.064 122.387C181.936 122.163 181.724 121.998 181.475 121.93C181.226 121.861 180.96 121.894 180.735 122.021C180.511 122.148 180.345 122.359 180.276 122.608C178.076 130.811 176.496 139.168 175.55 147.608C175.045 151.754 174.703 155.919 174.524 160.092C174.474 161.344 176.424 161.34 176.476 160.088Z" fill="black"/>
<path d="M237.45 227.936C231.084 228.69 224.644 227.387 219.072 224.216C218.324 223.775 217.6 223.296 216.9 222.782C214.057 220.657 211.618 218.04 209.7 215.054C209.608 214.916 209.524 214.774 209.436 214.634L209.178 214.234C208.802 213.614 208.438 212.988 208.104 212.348C207.79 211.748 207.504 211.132 207.228 210.51L207.212 210.476L207.186 210.408L207.1 210.19C207.076 210.131 207.053 210.071 207.032 210.01C206.972 209.837 206.865 209.684 206.724 209.568L206.772 209.272L207.352 205.758L207.406 205.436L207.458 205.116L207.978 201.962L208.298 200.024L208.32 199.89L208.658 197.85C208.698 197.665 208.685 197.472 208.62 197.294C208.555 197.116 208.44 196.96 208.29 196.845C208.14 196.729 207.96 196.659 207.771 196.642C207.582 196.625 207.393 196.661 207.224 196.748L205.048 197.948L204.648 198.166L204.048 198.496L203.718 198.678L203.052 199.044L201.31 200.004L198.268 201.678L176.778 213.514L166.08 219.4L156.916 224.448L150.948 227.734L128.502 240.096L121.148 244.146C120.072 244.746 118.904 245.274 117.864 245.946L111.728 244L103.49 241.39L96 239.012L94.098 238.412L92.714 237.974L91.274 237.518L77.048 233L67.824 230.078L65.398 229.31L60.662 227.808C59.634 227.484 58.604 227.134 57.572 226.786C57.07 226.616 56.572 226.452 56.064 226.288C55.556 226.124 55.104 225.976 54.624 225.828C54.024 225.648 53.424 225.478 52.824 225.322C52.7146 225.266 52.5947 225.233 52.472 225.226C52.2569 225.172 52.0293 225.203 51.8365 225.313C51.6436 225.422 51.5002 225.602 51.436 225.814C51.3436 226.01 51.3176 226.232 51.362 226.444L52.738 233.376L53.436 236.892L53.836 238.944L56.092 250.318L60.278 271.422L61.514 277.658L61.738 278.782L61.96 279.902L64.098 290.678L64.178 291.078L66.634 303.458C66.778 304.188 66.782 305.368 67.528 305.748C67.582 305.778 67.642 305.8 67.698 305.828C65.84 310.072 65.638 315.778 70.712 317.2C73.996 318.122 77.712 315.086 79.032 310.418L79.076 310.244L86.612 313.174L106 320.72L112.436 323.224C113.16 323.504 114.456 324.324 115.236 323.914C115.747 323.598 116.236 323.249 116.7 322.868L120.338 320.268L127.604 315.078L132.702 311.438L137.228 308.204L138.178 307.526L139.132 306.844L149.218 299.644L166.916 287.004L182.838 275.63L193.878 267.744L196.612 265.792C197.066 265.468 197.514 265.192 197.638 264.62C198.352 261.29 198.754 257.862 199.308 254.504L199.688 252.204L199.74 251.884L199.792 251.566L202.538 234.93L205.98 214.08L206.056 213.62L206.098 213.368L206.174 212.9C206.914 214.365 207.77 215.77 208.732 217.1L208.996 217.46L209.244 217.802L209.266 217.83C212.875 222.752 217.889 226.466 223.648 228.486C228.097 229.923 232.801 230.4 237.448 229.886C237.593 229.87 237.734 229.824 237.861 229.751C237.987 229.678 238.097 229.58 238.184 229.462C238.27 229.344 238.331 229.209 238.362 229.066C238.394 228.923 238.395 228.775 238.366 228.632C238.353 228.525 238.319 228.422 238.266 228.329C238.213 228.236 238.141 228.155 238.056 228.09C237.97 228.025 237.872 227.978 237.768 227.951C237.664 227.925 237.556 227.92 237.45 227.936ZM206.426 199.462L206.106 201.402L205.678 204.002L205.532 204.886L205.478 205.208L205.426 205.53L205.334 206.078L205.036 207.878L204.748 209.626L204.246 212.666C202.459 213.654 200.675 214.644 198.892 215.636L197.252 216.552L196.9 216.752L196.548 216.952C192.657 219.117 188.77 221.286 184.886 223.458C179.062 226.721 173.247 229.997 167.442 233.286C162.07 236.325 156.72 239.4 151.39 242.512C148.078 244.452 144.696 246.346 141.536 248.534C141.354 248.659 141.175 248.788 140.998 248.92C139.998 249.664 140.978 251.358 141.982 250.604C144.781 248.643 147.684 246.836 150.68 245.192C155.826 242.156 161.014 239.192 166.208 236.232C172.043 232.912 177.888 229.613 183.744 226.336C187.909 224 192.079 221.671 196.254 219.348L196.606 219.148L196.958 218.948L198.454 218.112C200.228 217.126 202.054 216.196 203.83 215.188L203.03 220.01C201.963 226.439 200.902 232.869 199.846 239.3L197.872 251.264L197.82 251.58L197.766 251.902L197.082 256.048L196.174 261.55C195.979 262.361 195.838 263.184 195.75 264.014L187.984 269.562L168.466 283.504L144.74 300.452L136.94 306.02L135.986 306.704L135.036 307.38L125.436 314.244L124.344 315.024L117.582 319.854C116.62 320.542 115.48 321.184 114.582 321.976L99.182 315.988L79.364 308.282L73.964 306.184L68.764 304.162L68.718 303.932C68.2433 301.532 67.7687 299.139 67.294 296.754L66.254 291.51L64.114 280.71L63.892 279.59L63.668 278.466L63.568 277.964L59.064 255.254L56.554 242.594C61.166 244.194 65.7793 245.787 70.394 247.372C79.194 250.4 87.9987 253.408 96.808 256.396C99.76 257.396 102.71 258.418 105.694 259.316C105.943 259.384 106.209 259.35 106.433 259.222C106.658 259.094 106.822 258.882 106.89 258.633C106.959 258.384 106.926 258.118 106.799 257.893C106.672 257.669 106.461 257.503 106.212 257.434C99.476 255.408 92.838 253.004 86.182 250.73C77.806 247.869 69.4347 244.991 61.068 242.096L56.114 240.384L55.608 237.828L55.208 235.776L55.176 235.62L53.888 229.128C53.79 228.632 53.706 228.128 53.614 227.622L56.426 228.514L58.074 229.036L59.836 229.594L61.856 230.234L63.256 230.676L65.684 231.444L83.658 237.14L88.084 238.54L89.76 239.07L91.33 239.568L105.984 244.21L106.604 244.41L113.856 246.706C114.798 247.006 115.738 247.34 116.688 247.63L116.636 249.898L116.564 253.13L116.254 267.082L115.88 283.974L115.568 297.974L115.554 298.648L115.542 299.006C115.542 299.346 115.522 299.686 115.508 300.028C115.438 301.93 115.334 303.848 115.396 305.742V305.84C115.407 306.091 115.515 306.328 115.697 306.501C115.878 306.675 116.12 306.772 116.371 306.772C116.622 306.772 116.864 306.675 117.045 306.501C117.227 306.328 117.335 306.091 117.346 305.84L117.46 300.76L117.476 300.032V299.734L117.498 298.702L117.78 286.078L118.154 269.188L118.48 254.512C118.51 253.168 118.578 251.812 118.62 250.458C118.648 249.554 118.662 248.658 118.642 247.75C118.912 247.624 119.172 247.456 119.442 247.31L123.442 245.11L138.548 236.79L156.464 226.924L159.226 225.402L168.558 220.262L180.852 213.492L198.626 203.704L202.976 201.304L203.956 200.764H203.972L204.044 200.724L204.968 200.216L206.368 199.446L206.444 199.404L206.426 199.462Z" fill="black"/>
<path d="M322.968 264.466C322.009 263.994 321.026 263.574 320.022 263.208C318.2 262.48 316.366 261.78 314.532 261.084C311.04 259.76 307.542 258.453 304.038 257.164L308.174 253.262C310.408 251.164 312.774 249.15 314.91 246.952L315.008 246.862C315.928 246.004 314.546 244.626 313.628 245.482C311.784 247.203 309.943 248.927 308.104 250.654C306.064 252.569 304.027 254.487 301.994 256.41C300.68 255.926 299.366 255.438 298.05 254.956C292.275 252.835 286.497 250.726 280.716 248.63L285.1 244.724L289.9 240.486C290.648 239.826 291.448 239.196 292.16 238.486C292.191 238.456 292.224 238.427 292.258 238.4C293.202 237.57 291.818 236.2 290.878 237.02C288.951 238.715 287.029 240.412 285.112 242.112C282.952 244.024 280.797 245.941 278.646 247.864C273.299 245.924 267.951 243.991 262.602 242.064L257.312 240.158C256.47 239.856 255.626 239.488 254.766 239.244C254.73 239.244 254.694 239.218 254.658 239.204C253.476 238.78 252.966 240.664 254.14 241.086L260.514 243.38C265.669 245.239 270.821 247.101 275.97 248.966L276.992 249.34C274.992 251.122 272.98 252.898 270.992 254.686C267.915 257.438 264.843 260.196 261.776 262.96C256.812 261.16 251.847 259.364 246.88 257.572L241.59 255.666C240.75 255.362 239.906 254.994 239.044 254.75C239.008 254.75 238.972 254.724 238.938 254.712C237.754 254.286 237.244 256.17 238.418 256.592L244.794 258.886C249.911 260.733 255.029 262.583 260.146 264.436C257.913 266.452 255.683 268.471 253.456 270.494C251.003 272.729 248.556 274.971 246.116 277.222C241.788 275.651 237.459 274.085 233.128 272.524L227.838 270.618C226.998 270.316 226.154 269.946 225.294 269.702C225.256 269.702 225.222 269.676 225.186 269.664C224.002 269.238 223.492 271.124 224.668 271.544L231.042 273.84C235.533 275.457 240.022 277.08 244.51 278.708C242.085 280.956 239.671 283.216 237.268 285.488C233.804 288.618 230.509 291.931 227.398 295.412C227.168 295.684 226.946 295.964 226.728 296.248C226.599 296.472 226.563 296.737 226.629 296.987C226.694 297.237 226.856 297.451 227.078 297.582C227.303 297.706 227.567 297.739 227.815 297.674C228.063 297.609 228.277 297.45 228.412 297.232C228.19 297.518 228.486 297.142 228.548 297.066L228.872 296.68C229.114 296.4 229.362 296.122 229.61 295.848C230.254 295.142 230.918 294.448 231.586 293.77C233.416 291.898 235.294 290.074 237.186 288.264C240.285 285.295 243.413 282.357 246.572 279.452C252.923 281.753 259.268 284.065 265.608 286.388L269.208 287.716C266.897 289.969 264.598 292.236 262.31 294.516C259.058 297.758 255.71 300.98 252.76 304.516C252.528 304.796 252.302 305.079 252.082 305.366C251.952 305.59 251.916 305.856 251.982 306.106C252.047 306.356 252.209 306.571 252.432 306.702C252.657 306.826 252.921 306.859 253.169 306.794C253.417 306.729 253.631 306.57 253.766 306.352C253.546 306.634 253.832 306.272 253.89 306.198L254.216 305.798C254.458 305.51 254.706 305.226 254.956 304.944C255.59 304.23 256.238 303.532 256.892 302.836C258.65 300.972 260.446 299.148 262.254 297.332C265.221 294.352 268.215 291.398 271.238 288.47C275.041 289.871 278.841 291.283 282.638 292.706C284.686 293.476 286.732 294.252 288.77 295.05C289.482 295.33 290.194 295.61 290.902 295.9L291.318 296.072L291.498 296.148H291.522C291.722 296.236 291.922 296.322 292.122 296.414C292.252 296.474 292.382 296.534 292.51 296.602C293.618 297.192 294.604 295.508 293.494 294.918C292.536 294.446 291.553 294.026 290.55 293.66C288.725 292.937 286.894 292.228 285.058 291.534C280.977 289.986 276.885 288.461 272.784 286.958C274.277 285.509 275.772 284.06 277.268 282.612C280.263 279.725 283.263 276.848 286.268 273.98C289.64 275.224 293.009 276.477 296.374 277.74C298.42 278.512 300.468 279.288 302.504 280.086C303.219 280.365 303.929 280.648 304.636 280.936L305.054 281.108L305.234 281.182L305.26 281.194C305.593 281.336 305.923 281.488 306.248 281.648C307.354 282.238 308.342 280.554 307.232 279.964C306.274 279.491 305.29 279.071 304.286 278.706C302.462 277.981 300.632 277.273 298.796 276.58C295.148 275.196 291.492 273.831 287.828 272.486C289.915 270.498 292.003 268.513 294.092 266.53C296.875 263.894 299.663 261.265 302.456 258.642C305.672 259.83 308.885 261.03 312.096 262.242C314.145 263.011 316.189 263.793 318.228 264.588C318.94 264.865 319.651 265.148 320.36 265.436L320.778 265.608L320.958 265.684L320.982 265.694C321.182 265.782 321.382 265.868 321.582 265.96C321.712 266.02 321.842 266.082 321.968 266.15C323.09 266.742 324.078 265.058 322.968 264.466ZM277.8 279.384C275.44 281.651 273.085 283.928 270.734 286.216L268.564 285.416C262.179 283.069 255.789 280.736 249.394 278.416L248.156 277.968C249.716 276.535 251.278 275.103 252.842 273.672C255.947 270.835 259.063 268.007 262.19 265.19C267.907 267.263 273.623 269.345 279.336 271.436L284.224 273.236L277.8 279.384ZM294.614 263.36C291.669 266.149 288.727 268.943 285.788 271.742L282.314 270.462C276.158 268.195 269.997 265.947 263.832 263.718C266.02 261.747 268.209 259.779 270.4 257.812C273.28 255.233 276.167 252.663 279.06 250.1C284.393 252.039 289.727 253.983 295.06 255.934C296.843 256.586 298.623 257.241 300.402 257.9C298.478 259.72 296.55 261.54 294.618 263.36H294.614Z" fill="#4FB3AA"/>
<path d="M266.162 97.42C267.32 96.868 268.482 96.32 269.65 95.788C270.079 95.592 270.511 95.4 270.946 95.212L271.146 95.128L271.304 95.062C271.452 95.002 271.6 94.942 271.748 94.886C272.91 94.442 272.406 92.556 271.23 93.004C266.894 94.654 262.734 96.898 258.576 98.938C253.42 101.471 248.277 104.029 243.148 106.61L239.784 108.304C238.664 108.87 239.65 110.554 240.77 109.988C243.837 108.44 246.903 106.9 249.97 105.368C255.352 102.684 260.734 100 266.162 97.42ZM261.32 115.4C261.47 115.33 261.62 115.264 261.77 115.2L261.792 115.19L261.95 115.128C262.196 115.054 262.403 114.887 262.53 114.664C262.657 114.441 262.692 114.177 262.63 113.928C262.56 113.679 262.395 113.468 262.17 113.34C261.946 113.212 261.68 113.178 261.43 113.246C259.864 113.846 258.36 114.646 256.856 115.384C255.03 116.278 253.208 117.184 251.392 118.1L250.192 118.7C249.072 119.266 250.058 120.95 251.178 120.384C254.144 118.886 257.114 117.384 260.114 115.962C260.51 115.778 260.914 115.586 261.32 115.4ZM280.024 159.422C276.954 160.99 274.062 162.988 271.152 164.822C267.564 167.089 263.988 169.379 260.424 171.692L258.024 173.248C256.976 173.93 257.952 175.62 259.01 174.934C264.952 171.074 270.906 167.224 276.938 163.504C278.278 162.678 279.612 161.816 281.014 161.104C282.126 160.534 281.14 158.85 280.024 159.422Z" fill="#AC47F5"/>
<path d="M265.11 46.1C264.658 43.726 261.728 41.254 259.806 44.634C259.598 45.0836 259.501 45.5769 259.525 46.0719C259.548 46.5668 259.692 47.0487 259.942 47.4763C260.192 47.9039 260.542 48.2646 260.962 48.5275C261.383 48.7904 261.86 48.9477 262.354 48.986C264.736 48.972 265.388 47.554 265.11 46.1Z" fill="#1D1D1B"/>
<path d="M203.976 65.388C203.286 65.9028 202.665 66.5037 202.128 67.176C200.911 68.6309 200.054 70.3521 199.626 72.2C199.585 72.3254 199.571 72.4578 199.582 72.5891C199.594 72.7204 199.633 72.8479 199.695 72.964C199.758 73.08 199.843 73.1822 199.946 73.2644C200.049 73.3465 200.168 73.4069 200.295 73.4419C200.422 73.477 200.555 73.4859 200.686 73.4681C200.816 73.4504 200.942 73.4064 201.055 73.3387C201.168 73.2711 201.267 73.1812 201.344 73.0745C201.422 72.9678 201.477 72.8466 201.506 72.718C201.607 72.2428 201.741 71.7751 201.906 71.318C201.942 71.2207 201.98 71.1227 202.02 71.024C202.02 71.01 202.11 70.824 202.122 70.79C202.208 70.606 202.298 70.422 202.394 70.242C202.585 69.8816 202.795 69.5318 203.024 69.194C203.122 69.048 203.224 68.906 203.328 68.766L203.384 68.692V68.68L203.534 68.496C203.874 68.0834 204.243 67.6951 204.638 67.334C204.754 67.228 204.874 67.134 204.996 67.024C205.118 66.914 205.062 66.968 205.016 67.004C205.216 66.8577 205.353 66.6401 205.398 66.396C205.443 66.152 205.392 65.9 205.257 65.692C205.122 65.4839 204.912 65.3356 204.671 65.2776C204.429 65.2196 204.175 65.2563 203.96 65.38L203.976 65.388ZM215.484 67.786C215.352 67.5641 215.138 67.4029 214.889 67.3374C214.639 67.2719 214.374 67.3074 214.15 67.436C213.932 67.5709 213.773 67.7847 213.708 68.033C213.643 68.2814 213.676 68.5453 213.8 68.77C213.846 68.888 213.892 69.006 213.934 69.126C214.112 69.6324 214.253 70.1511 214.356 70.678C214.492 71.3587 214.554 72.052 214.542 72.746C214.535 73.6309 214.406 74.5106 214.158 75.36C214.09 75.6092 214.124 75.8751 214.252 76.0993C214.38 76.3235 214.592 76.4879 214.841 76.5564C215.09 76.625 215.356 76.592 215.581 76.4649C215.805 76.3377 215.971 76.1267 216.04 75.878C216.814 73.1995 216.617 70.3335 215.484 67.786Z" fill="black"/>
</svg>
