<svg width="400" height="400" viewBox="0 0 400 400" fill="none" xmlns="http://www.w3.org/2000/svg">
<path d="M198.74 111.5C197.78 108.22 198.4 105.88 201.32 106C204.24 106.12 204.84 109.8 204.22 111.5H198.74Z" fill="#FEDAF6"/>
<path d="M209.52 111.56C208.56 108.28 209.2 105.92 212.1 106.06C215 106.2 215.62 109.86 215 111.56H209.52Z" fill="#FEDAF6"/>
<path d="M220.36 112.2C219.42 108.92 220.04 106.58 222.94 106.7C225.84 106.82 226.48 110.5 225.86 112.2H220.36Z" fill="#FEDAF6"/>
<path d="M296.12 132.96C295.405 130.928 294.243 129.083 292.72 127.56C291.182 126.395 289.418 125.564 287.54 125.12C235.2 108.88 176.92 108 123.1 118.42C107.2 121.48 87.6 125.1 73.74 133.48C72.1801 134.281 70.8148 135.414 69.74 136.8C68.9061 138.17 68.3552 139.693 68.12 141.28C63.8482 161.394 60.6106 181.714 58.42 202.16C59.1247 200.968 60.22 200.057 61.52 199.58C68.8444 196.201 76.5262 193.658 84.42 192C106.801 186.577 129.57 182.9 152.52 181C167.92 179.74 183.38 179.3 198.84 178.84C226.54 178.04 254.28 177.22 281.98 178.5C289.74 178.86 300.14 179.72 304.64 182.26C306.161 183.159 307.46 184.39 308.44 185.86C306 165.8 302.5 147.76 296.12 132.96ZM134.28 169.1C123.629 174.145 112.316 177.653 100.68 179.52C91.84 180.92 81.2 180.66 75.96 173.38C71.68 167.38 72.98 158.98 76.42 152.5C79.3848 147.276 83.388 142.714 88.1829 139.095C92.9778 135.477 98.4628 132.878 104.3 131.46C116.035 128.7 128.306 129.261 139.74 133.08L134.28 169.1ZM167.44 155.88C167.887 150.034 168.776 144.231 170.1 138.52C170.1 138.52 191.6 137.3 202.1 138.3C203.66 143.44 204.28 149.3 205.46 155.1C197.72 154.36 172.48 155.54 167.44 155.88ZM289.74 165.7C284.78 171.7 276.76 172.52 268.96 171.94C259.294 171.215 249.8 168.988 240.82 165.34L233.2 131.08C241.363 128.84 249.746 127.499 258.2 127.08C266.757 126.617 275.218 129.071 282.2 134.04C287.43 138.032 291.163 143.668 292.8 150.04C293.583 152.704 293.713 155.518 293.181 158.243C292.648 160.969 291.468 163.526 289.74 165.7Z" fill="#ABFFE1"/>
<path d="M214 133.08C195.82 131.34 158.36 133.48 158.36 133.48C156.119 143.417 154.601 153.503 153.82 163.66C162.6 163.1 206.5 161.02 219.82 162.32C217.74 152.32 216.62 142 214 133.08ZM167.44 155.88C167.887 150.034 168.776 144.231 170.1 138.52C170.1 138.52 191.6 137.3 202.1 138.3C203.66 143.44 204.28 149.3 205.46 155.1C197.72 154.36 172.48 155.54 167.44 155.88Z" fill="#DFEDED"/>
<path d="M202.64 111.7C202.376 113.614 201.628 115.429 200.466 116.973C199.304 118.516 197.767 119.737 196 120.52C191.963 122.247 187.611 123.118 183.22 123.08C175.04 123.08 165.72 121.22 161.76 113.26C161.18 112.12 159.46 113.12 160.04 114.28C163.24 120.72 170.04 123.98 177.02 124.82C181.015 125.217 185.042 125.143 189.02 124.6C196.58 123.66 203.72 119.66 204.56 111.84L202.64 111.7Z" fill="#51BDBF"/>
<path d="M220.56 162C218.38 152.3 217.58 142.3 214.74 132.76C214.662 132.56 214.524 132.39 214.345 132.272C214.166 132.153 213.954 132.093 213.74 132.1C197.74 130.84 178.54 131.98 158.52 132.5C158.368 132.451 158.205 132.439 158.047 132.467C157.889 132.495 157.741 132.561 157.614 132.66C157.488 132.759 157.388 132.887 157.323 133.033C157.257 133.18 157.229 133.34 157.24 133.5C154.902 143.359 153.37 153.392 152.66 163.5C152.66 163.765 152.765 164.02 152.953 164.207C153.14 164.395 153.395 164.5 153.66 164.5C165.78 163.72 207.5 161.94 219.66 163.16C219.933 163.125 220.181 162.983 220.35 162.766C220.518 162.549 220.594 162.273 220.56 162ZM201.2 139.16C202.56 144 203.2 149 204.12 153.94C199.66 153.7 195.18 153.7 190.72 153.94C185.54 154.12 172.6 154.62 168.52 154.82C168.925 149.655 169.714 144.528 170.88 139.48C180.973 138.823 191.095 138.717 201.2 139.16ZM194 161.14C184 161.48 167.3 161.9 154.72 162.68C155.321 153.182 156.773 143.758 159.06 134.52C165.3 134.18 173.76 133.82 182.48 133.62C182.36 134.74 182.3 135.84 182.28 136.96C177.94 137.1 174.06 137.34 170.28 137.44C170.048 137.445 169.824 137.528 169.646 137.678C169.467 137.827 169.346 138.032 169.3 138.26C167.917 144.048 167.021 149.942 166.62 155.88C166.625 156.144 166.732 156.395 166.919 156.581C167.105 156.768 167.356 156.875 167.62 156.88C177.62 156.24 198.54 155.4 205.62 156.1C205.77 156.092 205.917 156.051 206.05 155.981C206.184 155.91 206.3 155.812 206.391 155.692C206.482 155.572 206.547 155.434 206.579 155.287C206.612 155.14 206.612 154.987 206.58 154.84C205.34 149.26 204.92 143.5 203.24 138.02C203.17 137.814 203.039 137.634 202.864 137.505C202.688 137.377 202.478 137.305 202.26 137.3C197.44 136.96 193.26 136.84 189.48 136.84C189.5 135.73 189.44 134.621 189.3 133.52C198.18 133.42 206.82 133.52 213.2 134.08C215.78 142.98 216.82 152.24 218.58 161.32C210.18 160.8 202 160.86 194 161.14Z" fill="#51BDBF"/>
<path d="M130.32 54.62C119.267 67.3133 108.727 80.44 98.7001 94C97.4086 90.0478 94.7491 86.6862 91.2001 84.52C89.3481 83.379 87.1745 82.873 85.009 83.0787C82.8435 83.2844 80.8041 84.1907 79.2001 85.66C71.5401 92.76 82.3401 103.84 90.5401 103.24C92.216 103.154 93.836 102.609 95.2224 101.663C96.6089 100.718 97.7083 99.4089 98.4001 97.88C108.56 84 120.58 68.88 131.74 56C132.58 55.06 131.18 53.64 130.32 54.62Z" fill="#51BDBF"/>
<path d="M207.34 45.78C206.991 44.1663 206.247 42.6642 205.176 41.4078C204.104 40.1514 202.738 39.1799 201.2 38.58C194.7 36 187.8 35.18 181.2 29.74C180.38 29.08 178.98 29.94 179.64 30.96L199.34 61.5C194 61.02 188.26 65.02 188.5 70.78C188.539 72.2753 189.117 73.7062 190.128 74.8089C191.138 75.9116 192.514 76.6116 194 76.78C197.08 77.1 199.76 74.28 201.08 71.74C203.08 67.98 203.26 64.04 202.26 62.32L184 34C194.54 40 203.06 38.54 205.12 45.32C206.24 49.02 205.12 52.86 203.96 56.4C203.58 57.64 205.5 58.16 205.96 56.94C207.356 53.3963 207.83 49.5568 207.34 45.78Z" fill="#51BDBF"/>
<path d="M363.74 112.92C357.066 108.966 350.906 104.204 345.4 98.74C345.21 98.5555 344.955 98.4523 344.69 98.4523C344.425 98.4523 344.17 98.5555 343.98 98.74L324.12 116C324.002 115.032 323.654 114.105 323.106 113.299C322.557 112.492 321.824 111.828 320.967 111.362C320.11 110.896 319.154 110.642 318.178 110.621C317.203 110.6 316.237 110.812 315.36 111.24C311.14 113.58 312.86 119.82 317.64 120.64C318.924 120.727 320.212 120.544 321.421 120.103C322.63 119.662 323.733 118.973 324.66 118.08L339.1 105.58L355.52 118.7C351.52 121.8 347.52 124.8 343.52 127.74C342.847 126.538 341.811 125.579 340.56 125C339.728 124.602 338.794 124.466 337.882 124.609C336.971 124.753 336.124 125.17 335.455 125.805C334.785 126.44 334.324 127.263 334.132 128.165C333.94 129.068 334.027 130.008 334.38 130.86C334.842 131.617 335.501 132.235 336.286 132.647C337.072 133.059 337.954 133.25 338.84 133.2C341.066 132.91 343.09 131.762 344.48 130C344.68 129.76 357.74 119.64 363.94 114.42C364.035 114.313 364.106 114.186 364.148 114.049C364.19 113.911 364.202 113.767 364.183 113.624C364.164 113.482 364.115 113.345 364.038 113.224C363.962 113.102 363.86 112.999 363.74 112.92ZM357.1 117.48L340.6 104.32L344.6 100.82C349.736 105.817 355.403 110.237 361.5 114C360 115.12 358.58 116.3 357.1 117.48Z" fill="#51BDBF"/>
<path d="M176.2 80.24C175.34 76.24 171.32 73.58 171.22 69.52C171.22 68.24 169.5 68.16 169.22 69.52C169.22 69.64 166.38 86.12 166.38 86.12C164.801 84.499 162.643 83.571 160.38 83.54C159.199 83.5403 158.043 83.8825 157.052 84.5252C156.061 85.168 155.277 86.0838 154.795 87.1622C154.312 88.2407 154.153 89.4356 154.335 90.6028C154.517 91.7699 155.033 92.8595 155.82 93.74C156.984 94.6187 158.384 95.1315 159.84 95.2134C161.297 95.2953 162.744 94.9426 164 94.2C165.148 93.5333 166.122 92.6038 166.842 91.4878C167.562 90.3719 168.007 89.1012 168.14 87.78L170.62 74C171.48 75.56 172.62 77.04 173.44 78.7C175 81.2 174.7 85.08 171.7 85.44C171.435 85.44 171.18 85.5454 170.993 85.7329C170.805 85.9204 170.7 86.1748 170.7 86.44C170.7 86.7052 170.805 86.9596 170.993 87.1471C171.18 87.3346 171.435 87.44 171.7 87.44C175.26 87.28 176.9 83.34 176.2 80.24Z" fill="#51BDBF"/>
<path d="M370.84 150.1C357.347 152.46 343.8 154.527 330.2 156.3L330.56 153.72C330.6 153.572 330.605 153.417 330.576 153.267C330.546 153.117 330.483 152.976 330.39 152.854C330.297 152.732 330.178 152.633 330.041 152.565C329.904 152.497 329.753 152.461 329.6 152.46L315.74 153.58C315.475 153.58 315.22 153.685 315.033 153.873C314.845 154.06 314.74 154.315 314.74 154.58C314.74 154.845 314.845 155.1 315.033 155.287C315.22 155.475 315.475 155.58 315.74 155.58L328.44 154.56L328 157.28C328 157.82 328.24 158.64 328.96 158.54C343.12 156.727 357.227 154.58 371.28 152.1C372.64 151.88 372.1 150 370.84 150.1Z" fill="#51BDBF"/>
<path d="M342 53.2L318.76 75.06L317.74 72.74C317.66 72.6096 317.552 72.4987 317.424 72.4157C317.295 72.3327 317.15 72.2796 316.998 72.2604C316.846 72.2412 316.692 72.2564 316.547 72.3048C316.402 72.3532 316.27 72.4336 316.16 72.54L283.38 104.54C282.46 105.44 283.88 106.86 284.8 105.96C284.8 106.16 283.02 107.76 316.54 75.06L317.56 77.32C317.638 77.45 317.744 77.5607 317.871 77.6438C317.997 77.7268 318.141 77.7799 318.291 77.7992C318.442 77.8184 318.594 77.8033 318.738 77.7549C318.881 77.7066 319.012 77.6262 319.12 77.52L343.46 54.62C344.4 53.74 342.98 52.32 342 53.2Z" fill="#51BDBF"/>
<path d="M248.54 92.52L253.74 56.16C253.9 55 251.98 54.16 251.74 55.82L246.6 92.3C246.46 93.2 248.2 94.44 248.54 92.52Z" fill="#51BDBF"/>
<path d="M75.4601 112.46L59.4601 99.56C58.8601 99.08 57.6601 99.32 57.7401 100.28L58.1201 104.7L35.8401 89.38C34.7801 88.64 33.8401 90.38 34.8201 91.1L58.8201 107.6C58.974 107.682 59.1464 107.723 59.3209 107.72C59.4953 107.716 59.6659 107.668 59.8164 107.58C59.9669 107.492 60.0922 107.366 60.1804 107.216C60.2686 107.065 60.3167 106.894 60.3201 106.72L60.0001 102.52L74.0001 113.88C75.0401 114.68 76.4601 113.26 75.4601 112.46Z" fill="#51BDBF"/>
<path d="M94.12 68.28C89.7596 63.5879 86.065 58.3186 83.14 52.62C82.54 51.46 80.8 52.48 81.4 53.62C84.4098 59.4495 88.2126 64.834 92.7 69.62C93.58 70.56 95 69.16 94.12 68.2V68.28Z" fill="#51BDBF"/>
<path d="M53.2 161.3C45.1388 162.23 37.0344 162.738 28.92 162.82C28.6548 162.82 28.4005 162.925 28.2129 163.113C28.0254 163.3 27.92 163.555 27.92 163.82C27.92 164.085 28.0254 164.34 28.2129 164.527C28.4005 164.715 28.6548 164.82 28.92 164.82C37.0338 164.723 45.1375 164.216 53.2 163.3C54.48 163.16 54.48 161.16 53.2 161.3Z" fill="#51BDBF"/>
<path d="M50.5601 188L41.5001 192C41.3867 192.063 41.2868 192.147 41.2062 192.248C41.1256 192.35 41.0659 192.466 41.0306 192.591C40.9952 192.715 40.985 192.846 41.0003 192.974C41.0157 193.103 41.0564 193.227 41.1201 193.34C41.2542 193.572 41.474 193.742 41.7322 193.813C41.9904 193.884 42.2662 193.851 42.5001 193.72L51.5801 189.72C51.8108 189.585 51.9784 189.363 52.0459 189.105C52.1134 188.846 52.0753 188.571 51.9401 188.34C51.8048 188.109 51.5834 187.942 51.3246 187.874C51.0658 187.807 50.7908 187.845 50.5601 187.98V188Z" fill="#51BDBF"/>
<path d="M320.74 187.02L333.22 196C333.451 196.132 333.725 196.169 333.983 196.101C334.241 196.034 334.463 195.868 334.6 195.64C334.726 195.41 334.759 195.141 334.692 194.888C334.625 194.635 334.463 194.417 334.24 194.28L321.74 185.3C321.627 185.218 321.498 185.16 321.361 185.131C321.224 185.102 321.083 185.101 320.946 185.13C320.809 185.159 320.679 185.216 320.566 185.298C320.453 185.38 320.358 185.485 320.287 185.606C320.217 185.727 320.173 185.861 320.158 186.001C320.143 186.14 320.157 186.28 320.199 186.414C320.242 186.547 320.312 186.67 320.405 186.774C320.499 186.879 320.612 186.962 320.74 187.02Z" fill="#51BDBF"/>
<path d="M76 242.2C76 242 77.3 241.78 55.46 265.16C55.3391 265.284 55.2524 265.437 55.2084 265.604C55.1643 265.772 55.1645 265.948 55.2088 266.115C55.2532 266.282 55.3402 266.435 55.4613 266.559C55.5825 266.682 55.7336 266.772 55.9 266.82C58.0419 267.645 60.2411 268.314 62.48 268.82L48.88 288.3C48.16 289.36 49.88 290.3 50.62 289.3L64.94 268.68C65.0117 268.547 65.0531 268.4 65.061 268.249C65.0689 268.098 65.0432 267.948 64.9858 267.808C64.9284 267.668 64.8407 267.543 64.729 267.441C64.6173 267.34 64.4845 267.264 64.34 267.22C62.1538 266.729 59.997 266.114 57.88 265.38L77.42 243.56C78.24 242.66 76.84 241.24 76 242.2Z" fill="#51BDBF"/>
<path d="M312.38 267.04C313.32 267.92 314.74 266.52 313.8 265.64C302.8 255.4 292.193 244.733 281.98 233.64C281.1 232.7 279.7 234.12 280.56 235.06C280.56 235.48 296.38 252.14 312.38 267.04Z" fill="#51BDBF"/>
<path d="M263 241.3C265.39 244.862 267.224 248.767 268.44 252.88C268.53 253.124 268.708 253.325 268.938 253.444C269.169 253.563 269.436 253.592 269.687 253.524C269.938 253.456 270.154 253.297 270.293 253.078C270.433 252.859 270.485 252.596 270.44 252.34C269.182 248.076 267.28 244.029 264.8 240.34C264.1 239.28 262.36 240.34 263.08 241.36L263 241.3Z" fill="#51BDBF"/>
<path d="M294.1 269.24C288.966 270.345 283.747 271.014 278.5 271.24C278.236 271.245 277.985 271.352 277.799 271.539C277.612 271.725 277.505 271.976 277.5 272.24C277.055 276.863 275.965 281.4 274.26 285.72C273.613 285.202 272.866 284.824 272.066 284.609C271.266 284.394 270.43 284.347 269.611 284.471C268.792 284.595 268.007 284.887 267.307 285.329C266.606 285.771 266.004 286.354 265.54 287.04C265.273 287.464 265.096 287.939 265.021 288.435C264.945 288.931 264.973 289.437 265.103 289.921C265.233 290.406 265.461 290.858 265.774 291.251C266.086 291.643 266.477 291.966 266.92 292.2C267.72 292.671 268.632 292.92 269.56 292.92C270.489 292.92 271.4 292.671 272.2 292.2C273.021 291.8 273.736 291.21 274.285 290.48C274.834 289.75 275.203 288.9 275.36 288C276.857 284.509 277.977 280.869 278.7 277.14C282.714 277.615 286.781 277.351 290.7 276.36L287.06 285.44C284.36 283.18 278.88 284.5 278.6 288.62V288.8V288.7C278.666 289.295 278.857 289.87 279.162 290.385C279.467 290.901 279.878 291.345 280.368 291.689C280.858 292.034 281.416 292.27 282.004 292.382C282.592 292.494 283.198 292.48 283.78 292.34C284.851 292.242 285.861 291.8 286.658 291.078C287.455 290.357 287.996 289.396 288.2 288.34L295.32 270.52C295.64 269.7 294.76 269.1 294.1 269.24ZM279.04 275.12C279.04 274.46 279.24 273.8 279.32 273.12C283.802 272.857 288.263 272.323 292.68 271.52L291.72 273.92C287.621 275.186 283.304 275.594 279.04 275.12Z" fill="#51BDBF"/>
<path d="M97.6 300.62C95.46 294.24 92.94 288 90.4 281.78C89.94 280.6 88 281.12 88.4 282.3C90.52 287.54 92.52 292.82 94.4 298.14C92.9972 297.921 91.565 298.268 90.4176 299.104C89.2702 299.94 88.5015 301.198 88.28 302.6C87.94 307.38 95.52 307.88 97.36 302.72C97.6079 302.05 97.6902 301.329 97.6 300.62Z" fill="#51BDBF"/>
<path d="M142.3 115.08C142.64 115.08 142.18 114.48 138.84 131.8C118.74 125.52 94.84 128.12 80.12 145.3C74.12 152.4 69.4 163.3 74.12 172.3C78.5 180.66 89 181.82 97.4 180.98C109.703 179.519 121.694 176.102 132.92 170.86C132.48 174.66 132.1 178.44 131.76 182.28C131.64 183.56 133.76 183.54 133.76 182.28C135.764 159.841 139.286 137.563 144.3 115.6C144.336 115.347 144.277 115.09 144.136 114.878C143.994 114.665 143.779 114.512 143.532 114.448C143.285 114.384 143.023 114.413 142.796 114.529C142.568 114.646 142.392 114.842 142.3 115.08ZM80.3 148.16C84.5383 142.665 90.0225 138.257 96.3 135.3C91.8525 139.544 87.9796 144.351 84.78 149.6C80.48 156.26 76.64 163.6 75.94 171.6C71.82 164.32 75.64 154.44 80.34 148.16H80.3ZM78 174.1C78 165.52 82 157.68 86.66 150.56C90.6799 143.724 96.0325 137.766 102.4 133.04C108.099 131.303 114.045 130.512 120 130.7C103.821 142.195 92.6461 159.438 88.76 178.9C84.7192 178.62 80.9078 176.92 78 174.1ZM90.76 179.08C92.7215 169.326 96.5854 160.055 102.131 151.795C107.676 143.535 114.795 136.448 123.08 130.94H123.18C128.367 131.358 133.496 132.323 138.48 133.82C137.12 133.56 112.8 148.5 102.48 177.82C102.461 177.919 102.461 178.021 102.48 178.12C98.6151 178.879 94.677 179.201 90.74 179.08H90.76ZM135.32 149.4C127.114 156.077 120.798 164.786 117 174.66C112.969 175.884 108.876 176.899 104.74 177.7C110.968 160.594 122.657 146.017 138 136.22C135.18 151.72 136.28 148.6 135.32 149.4ZM119.54 173.86C123.037 165.394 128.461 157.861 135.38 151.86C134.46 158.1 133.8 163.14 133.18 168.44C128.744 170.514 124.189 172.323 119.54 173.86Z" fill="#51BDBF"/>
<path d="M289.32 140.14C286.669 136.511 283.311 133.456 279.447 131.16C275.584 128.863 271.295 127.374 266.84 126.78C255.58 124.94 244.3 127.44 233.18 130.02C231.78 125.32 230.1 120.02 227.46 112.82C227.02 111.62 225.1 112.14 225.46 113.34C233.109 134.063 238.272 155.62 240.84 177.56C240.98 178.84 242.98 178.84 242.84 177.56C242.4 173.88 241.92 170.2 241.34 166.54C250.647 170.218 260.487 172.365 270.48 172.9C278.62 173.32 287.3 171.68 291.9 164.24C296.5 156.8 294.22 147.2 289.32 140.14ZM285.08 138.14C289.678 142.915 292.3 149.252 292.42 155.88C286.363 144.323 277.007 134.827 265.54 128.6C272.967 129.3 279.898 132.634 285.08 138V138.14ZM238.72 152C246.726 156.674 253.864 162.696 259.82 169.8C253.399 168.682 247.121 166.858 241.1 164.36C240.36 160.14 239.6 156 238.72 152ZM262.32 170.2C262.342 169.934 262.264 169.67 262.1 169.46C255.812 161.638 248.138 155.041 239.46 150C239.28 149.917 239.079 149.89 238.883 149.923C238.687 149.955 238.505 150.044 238.36 150.18C237.373 145.687 236.287 141.207 235.1 136.74C251.35 143.698 264.926 155.704 273.82 170.98C269.972 170.944 266.131 170.657 262.32 170.12V170.2ZM276.06 170.98C266.736 154.457 252.085 141.583 234.5 134.46C234.26 133.66 234.04 132.86 233.82 132.08C236.84 131.36 240.02 130.66 243.26 130.08C260.936 137.899 275.374 151.575 284.14 168.8C281.579 169.994 278.819 170.706 276 170.9L276.06 170.98ZM285.86 167.86C277.393 151.037 263.586 137.497 246.6 129.36C251.118 128.581 255.696 128.206 260.28 128.24C274.199 134.469 285.444 145.452 292 159.22C291.056 162.722 288.874 165.763 285.86 167.78V167.86Z" fill="#51BDBF"/>
<path d="M297.46 210.72C292.44 214.72 277.46 214.04 271.04 214.54C261.16 215.3 252.06 215.22 242.18 215.96C222.38 217.467 202.613 218.907 182.88 220.28C164.04 221.62 144.88 221.86 126.1 224.16C110.98 226 93.74 232.94 78.84 226.64C70.46 223.1 64.38 215.64 59.64 207.9C58.9975 207.127 58.5467 206.213 58.3242 205.233C58.1018 204.253 58.1141 203.234 58.36 202.26C59.0617 201.02 60.1819 200.07 61.52 199.58C68.8629 196.248 76.5394 193.707 84.42 192C131.58 181.24 156.92 180 198.84 178.84C226.54 178.02 254.28 177.22 281.98 178.5C289.74 178.86 300.14 179.72 304.64 182.26C308.64 184.14 309 188.26 306.96 191.64C305.24 195.48 303.42 200.36 301.7 204.18C300.801 206.653 299.351 208.89 297.46 210.72Z" fill="#51BDBF"/>
<path d="M223.2 335.38C212.62 340.9 198.78 340.34 187.42 336.66C182.882 335.299 178.589 333.227 174.7 330.52L157.62 362C156.7 363.66 155.8 365.74 156.8 367.36C157.8 368.98 160.62 369.02 162.66 368.42C169.414 366.453 175.59 362.877 180.66 358C183.655 354.993 186.96 352.311 190.52 350C192.88 348.68 200.28 345.66 202.7 348C205.12 350.34 200.5 355.52 197.68 362.64C197.097 363.842 196.802 365.164 196.82 366.5C197.08 369.86 200.36 369.94 202.82 369.02C212.82 365.3 219.88 357.2 225.2 348.32C229.284 341.504 231.709 333.825 232.28 325.9C230.572 330.101 227.324 333.492 223.2 335.38Z" fill="#51BDBF"/>
<path d="M165.44 291.26C170.422 295.699 173.932 301.552 175.501 308.038C177.07 314.524 176.623 321.335 174.22 327.56C173.899 328.116 173.779 328.766 173.88 329.4C174.101 329.989 174.527 330.479 175.08 330.78C187.84 339.44 209.08 342.78 223.2 335.38C225.33 334.408 227.247 333.024 228.84 331.308C230.433 329.591 231.67 327.577 232.48 325.38C232.995 323.356 233.204 321.266 233.1 319.18C232.537 310.352 229.866 301.788 225.311 294.206C220.756 286.623 214.449 280.243 206.92 275.6L165.44 291.26Z" fill="#ABFFE1"/>
<path d="M237.26 200C235.26 198 232.58 196.22 229.48 197.02C226.38 197.82 224.72 201.26 224.22 204.42C223.797 208.295 223.885 212.208 224.48 216.06C210.06 197.82 182.48 191.32 159.18 198.7C147.719 202.413 137.729 209.659 130.64 219.4C130.145 217.082 129.373 214.833 128.34 212.7C127.79 211.581 126.959 210.625 125.928 209.923C124.898 209.222 123.703 208.801 122.46 208.7C121.177 208.808 119.953 209.282 118.932 210.065C117.911 210.849 117.136 211.909 116.7 213.12C115.837 215.555 115.583 218.164 115.96 220.72C116.535 227.758 118.315 234.644 121.22 241.08C119.896 249.277 121.003 257.683 124.405 265.258C127.806 272.832 133.353 279.244 140.36 283.7C150.501 289.876 162.127 293.187 174 293.28C174.683 296.998 176.104 300.541 178.18 303.7C179.432 305.95 181.525 307.612 184 308.32C185.628 308.479 187.268 308.167 188.725 307.423C190.181 306.679 191.394 305.532 192.22 304.12C194.92 300.12 195.34 297.42 198.1 289.32C199.287 288.92 200.467 288.48 201.64 288C201.12 293.46 205.42 300.84 211.76 303.38C213.346 304 215.073 304.165 216.747 303.858C218.422 303.55 219.978 302.782 221.24 301.64C224.88 297.94 224.06 294.18 221.88 290.8C228.061 282.348 233.148 273.148 237.02 263.42C238.279 262.242 239.237 260.779 239.811 259.153C240.386 257.527 240.56 255.787 240.32 254.08C242.45 247.205 243.982 240.159 244.9 233.02C246.26 222 245.78 208.34 237.26 200Z" fill="#FFF4EE"/>
<path d="M145.18 228.48C149.631 228.48 153.24 224.871 153.24 220.42C153.24 215.969 149.631 212.36 145.18 212.36C140.729 212.36 137.12 215.969 137.12 220.42C137.12 224.871 140.729 228.48 145.18 228.48Z" fill="#FFCECC"/>
<path d="M202.76 230.62C207.211 230.62 210.82 227.011 210.82 222.56C210.82 218.109 207.211 214.5 202.76 214.5C198.309 214.5 194.7 218.109 194.7 222.56C194.7 227.011 198.309 230.62 202.76 230.62Z" fill="#FFCECC"/>
<path d="M181.22 138C181.22 138.265 181.325 138.52 181.513 138.707C181.7 138.895 181.955 139 182.22 139L189.18 138.68C189.442 138.67 189.691 138.562 189.876 138.376C190.062 138.191 190.17 137.942 190.18 137.68C190.223 135.856 190.076 134.033 189.74 132.24C189.683 132.029 189.558 131.842 189.385 131.708C189.211 131.574 188.999 131.501 188.78 131.5L182.64 131.8C182.449 131.754 182.249 131.764 182.063 131.827C181.877 131.89 181.713 132.005 181.589 132.158C181.466 132.311 181.388 132.495 181.365 132.69C181.343 132.885 181.375 133.083 181.46 133.26C181.26 134.832 181.18 136.416 181.22 138ZM188 133.46C188.146 134.52 188.213 135.59 188.2 136.66L183.2 136.9C183.2 135.82 183.2 134.76 183.4 133.7L188 133.46Z" fill="#5E503B"/>
<path d="M309.44 187.02C308.136 174.893 306.024 162.866 303.12 151.02C301.779 145.725 300.103 140.521 298.1 135.44C297.24 132.867 296.043 130.419 294.54 128.16C292.802 126.142 290.459 124.739 287.86 124.16C268.072 118.115 247.721 114.094 227.12 112.16C227.463 110.546 227.169 108.862 226.3 107.46C225.937 106.929 225.46 106.487 224.903 106.165C224.347 105.843 223.725 105.65 223.084 105.601C222.444 105.551 221.8 105.645 221.2 105.877C220.601 106.109 220.061 106.472 219.62 106.94C219.189 107.608 218.907 108.361 218.793 109.148C218.68 109.935 218.736 110.737 218.96 111.5L216.3 111.32C216.86 108.38 215.28 105.08 212.14 104.94C209 104.8 207.28 106.78 208.14 110.94L205.6 110.84C205.75 109.441 205.426 108.033 204.68 106.84C204.333 106.295 203.867 105.836 203.317 105.497C202.767 105.158 202.147 104.948 201.505 104.883C200.862 104.818 200.213 104.898 199.606 105.12C198.999 105.341 198.45 105.696 198 106.16C197.582 106.803 197.305 107.528 197.187 108.287C197.07 109.045 197.115 109.82 197.32 110.56C166.233 110.36 135.234 113.872 104.98 121.02C94.24 123.54 83.32 126.62 73.76 132.16C71.4031 133.263 69.4616 135.093 68.22 137.38C67.245 139.96 66.5738 142.645 66.22 145.38C62.2981 164.211 59.3343 183.229 57.34 202.36C56.9817 204.145 57.341 205.998 58.34 207.52C59.3069 209.266 60.3824 210.949 61.56 212.56C65.7582 219.059 71.6779 224.266 78.66 227.6C90.38 232.48 103.34 229.48 115.76 227.04C116.724 231.916 118.241 236.667 120.28 241.2C119.256 247.928 119.807 254.802 121.889 261.281C123.972 267.76 127.528 273.668 132.28 278.54C141.12 287.42 154.16 292.2 166.44 293.66C170.263 297.606 173 302.473 174.388 307.789C175.776 313.105 175.766 318.689 174.36 324C173.5 327.04 172.02 328.62 173.48 330.62L156.98 360.98C155.7 363.34 154.22 366.76 156.98 368.82C158.98 370.34 161.96 369.68 164.22 368.94C167.359 367.908 170.371 366.526 173.2 364.82C181.2 359.98 182.08 357.14 188.78 352.22C190.678 350.863 192.777 349.81 195 349.1C196.74 348.5 199.88 347.34 201.64 348.42C203.82 349.78 200 354.42 197.08 361.42C196.277 362.973 195.846 364.692 195.82 366.44C195.819 367.467 196.213 368.455 196.92 369.2C197.627 369.945 198.594 370.389 199.62 370.44C202.214 370.42 204.751 369.672 206.94 368.28C220.1 361.22 231.58 344.68 233.16 326.46C233.985 323.879 234.298 321.161 234.08 318.46C233.477 308.051 229.826 298.049 223.58 289.7C229.219 281.722 233.917 273.118 237.58 264.06C238.965 262.771 240.021 261.168 240.658 259.386C241.294 257.604 241.494 255.695 241.24 253.82C244.58 242.92 247.46 227.6 245.92 216.56C302.26 213.32 296.8 218.7 306.4 195.28C306.52 195.22 309.62 188.52 309.44 187.02ZM222.9 107.88C224.48 107.88 225.18 110.44 224.9 111.88L221.38 111.58C220.88 109.62 220.82 107.8 222.9 107.88ZM212 107.24C213.76 107.24 214.32 109.8 213.86 111.1L210.54 110.94C210 108.96 210 107.14 212 107.24ZM201.22 107.24C202.8 107.24 203.42 109.38 203.22 110.72H199.72C199.26 108.74 199.3 107.1 201.26 107.18L201.22 107.24ZM68.14 146.24C68.4826 143.647 69.0582 141.09 69.86 138.6C70.92 135.92 73.7 134.6 76.1 133.2C90.82 125.04 114.48 120.78 131.26 117.92C188 108.16 242.34 112.4 285.4 125.56C288.28 126.44 291.26 127.08 293.06 129.56C294.481 131.821 295.622 134.245 296.46 136.78C302.1 151.44 304.98 167.96 306.9 182.78C303.86 180.24 298.54 179.3 294.9 178.78C267.38 175.5 207.82 177.56 180.2 178.6C151.126 179.391 122.186 182.839 93.74 188.9C84.541 190.631 75.493 193.086 66.68 196.24C64.2429 197.182 61.8711 198.284 59.58 199.54C61.22 183.64 65.04 161.46 68.14 146.24ZM117.12 222.24C116.68 218.24 116.26 211.44 121.34 209.92C122.452 209.69 123.607 209.818 124.642 210.285C125.677 210.752 126.537 211.534 127.1 212.52C128.3 214.582 129.139 216.835 129.58 219.18C125.484 224.749 122.54 231.079 120.92 237.8C118.97 232.784 117.693 227.531 117.12 222.18V222.24ZM209.74 364.24C207.74 365.58 196.98 372.24 197.74 365.62C198.22 362.92 199.08 361.44 201.74 356.34C202.84 354.18 204.94 351.1 204.16 348.54C202.82 344.18 195.64 346.7 192.92 347.8C182.12 352.12 179.56 361.66 163.62 367.08C162.179 367.702 160.595 367.916 159.04 367.7C157.04 367.2 157.26 365.14 157.94 363.6C158.4 362.52 157.2 364.8 175.08 332.2C175.96 332.766 176.867 333.287 177.8 333.76C192.44 341.76 215.04 344.22 228.12 333.56C229.094 332.773 229.985 331.888 230.78 330.92C228.229 344.265 220.71 356.144 209.74 364.16V364.24ZM232 322.78C231.667 325.662 230.37 328.347 228.32 330.4C224.397 334.154 219.435 336.642 214.08 337.54C208.519 338.659 202.804 338.781 197.2 337.9C189.932 336.923 182.945 334.452 176.68 330.64C176.18 330.32 175.02 329.74 174.84 329.12C174.66 328.5 175.36 327.38 175.58 326.8C177.48 321.269 177.913 315.339 176.837 309.59C175.761 303.841 173.212 298.47 169.44 294C170.7 294.1 171.96 294.16 173.22 294.2C173.74 296.707 174.587 299.134 175.74 301.42C176.998 304.549 179.274 307.163 182.2 308.84C183.693 309.426 185.324 309.559 186.892 309.225C188.461 308.891 189.896 308.103 191.02 306.96C193.565 304.363 195.398 301.153 196.34 297.64C197.18 295.16 198.02 292.66 198.82 290.16L200.6 289.52C200.858 292.696 201.975 295.742 203.832 298.332C205.688 300.921 208.215 302.957 211.14 304.22C217.64 306.96 225.66 302.08 224.52 294.84C229.86 303.148 232.474 312.915 232 322.78ZM175.24 294.16C182.417 294.118 189.547 293.012 196.4 290.88L194.62 296.2C193.34 300.08 191.76 304.48 187.98 306.6C181.84 310 176.76 301.02 175.24 294.16ZM218.86 292.88C218.08 293.9 219.48 295.32 220.26 294.3L221.72 292.3C225.14 299 218.76 304.3 212.66 302.46C209.802 301.415 207.322 299.539 205.54 297.072C203.758 294.605 202.755 291.662 202.66 288.62C213.108 284.459 222.102 277.315 228.52 268.08C230.628 268.251 232.734 267.732 234.52 266.6C230.405 275.973 225.145 284.8 218.86 292.88ZM238.5 259.66C237.39 261.781 235.715 263.553 233.66 264.78C232.706 265.512 231.571 265.97 230.376 266.104C229.181 266.238 227.972 266.043 226.88 265.54C226.639 265.432 226.364 265.424 226.117 265.517C225.869 265.611 225.669 265.799 225.56 266.04C225.465 266.249 225.445 266.485 225.503 266.707C225.562 266.929 225.695 267.124 225.88 267.26L226.3 267.5C210 292 168.52 300.92 139.32 281.76C131.43 276.12 125.728 267.929 123.178 258.572C120.627 249.215 121.384 239.264 125.32 230.4C129.933 220.379 137.324 211.891 146.615 205.942C155.906 199.994 166.708 196.835 177.74 196.84C189.512 196.628 201.115 199.659 211.28 205.6C226.52 215.12 234.64 231.88 233.28 247.6C232.286 247.827 231.352 248.263 230.54 248.88C229.46 249.6 230.54 251.34 231.54 250.62C232.103 250.127 232.778 249.776 233.505 249.599C234.233 249.421 234.993 249.422 235.72 249.6C236.563 250.078 237.304 250.717 237.9 251.482C238.496 252.246 238.935 253.12 239.194 254.054C239.452 254.988 239.523 255.964 239.404 256.926C239.285 257.888 238.978 258.817 238.5 259.66ZM243.66 234C242.862 239.697 241.665 245.33 240.08 250.86C239.592 249.985 238.921 249.225 238.114 248.632C237.306 248.038 236.381 247.625 235.4 247.42C236.28 235.935 232.698 224.552 225.4 215.64C224.843 212.006 224.756 208.316 225.14 204.66C226.36 197.2 231.88 195.24 237.52 201.74C241.19 206.058 243.445 211.399 243.98 217.04C244.644 222.682 244.536 228.387 243.66 234ZM307 188.72C306.366 190.578 305.618 192.394 304.76 194.16L302.36 200.02C295.92 215.76 298.36 211.78 245.64 214.82C244.934 210.999 243.581 207.326 241.64 203.96C239.04 199.58 233.28 193.46 227.64 196.58C222.36 199.5 222.58 207.44 223.06 212.96C201.98 189.78 155.78 186.1 131.06 217.12C129.88 212.86 127.6 207.6 122.44 207.64C116.98 207.64 114.92 213.22 114.82 217.64C114.826 220.117 115.013 222.59 115.38 225.04C108.988 226.47 102.517 227.518 96 228.18C87.9077 228.978 79.7973 226.849 73.14 222.18C68.6234 218.681 64.7866 214.383 61.82 209.5C60.5246 207.939 59.6135 206.097 59.16 204.12C58.94 201.88 61.16 200.94 62.92 200.12C74.18 194.66 96.64 190.12 108.92 187.84C148.56 180.62 178.66 180.42 221.22 179.24C240.1 178.72 259.22 178.62 278.22 179.36C285.68 179.64 293.48 179.78 300.7 181.82C304 182.76 308.1 184.6 307 188.72Z" fill="#5E503B"/>
<path d="M155.48 218.68C158.102 217.861 160.521 216.498 162.58 214.68C164.77 212.964 166.703 210.943 168.32 208.68C169.08 207.64 167.34 206.68 166.6 207.68C164.02 211.285 160.583 214.193 156.6 216.14C154.98 216.92 152.36 217.56 151.08 215.8C149.8 214.04 151.44 211.42 152.5 209.8C153.22 208.74 151.54 207.8 150.78 208.94C149.36 211.08 147.94 213.76 149.2 216.32C149.819 217.372 150.78 218.18 151.923 218.609C153.066 219.039 154.321 219.064 155.48 218.68Z" fill="#5E503B"/>
<path d="M189.44 221.04C196.02 221.68 201.44 216.24 205.44 211.88C206.34 210.94 204.92 209.52 204.04 210.46C200.58 214.14 196.68 218.28 191.4 219C189 219.32 186.74 218.62 186.16 216.04C186.025 214.879 186.171 213.703 186.585 212.61C186.999 211.517 187.67 210.54 188.54 209.76C189.4 208.8 187.98 207.38 187.12 208.34C186.084 209.313 185.28 210.507 184.768 211.833C184.255 213.159 184.048 214.583 184.16 216C184.296 217.331 184.903 218.57 185.87 219.494C186.838 220.418 188.104 220.966 189.44 221.04Z" fill="#5E503B"/>
<path d="M204.36 225.38C204.244 225.307 204.114 225.259 203.978 225.239C203.843 225.218 203.704 225.226 203.572 225.261C203.44 225.297 203.316 225.359 203.208 225.444C203.101 225.529 203.012 225.636 202.948 225.757C202.883 225.878 202.844 226.01 202.833 226.147C202.822 226.284 202.839 226.421 202.883 226.551C202.928 226.681 202.998 226.8 203.09 226.901C203.183 227.003 203.295 227.084 203.42 227.14C203.895 227.38 204.344 227.668 204.76 228C197.968 233.549 189.977 237.438 181.42 239.36C177.155 240.282 172.803 240.738 168.44 240.72C164.044 240.808 159.719 239.605 156 237.26C154.189 236.006 152.824 234.207 152.105 232.125C151.386 230.042 151.349 227.785 152 225.68C152.46 224.44 150.48 223.92 150 225.32C149.407 227.256 149.325 229.313 149.763 231.289C150.202 233.266 151.144 235.096 152.5 236.6C155.578 239.938 159.796 242 164.32 242.38C171.79 243.11 179.331 242.351 186.506 240.147C193.681 237.943 200.348 234.338 206.12 229.54C206.311 229.868 206.478 230.209 206.62 230.56C206.739 230.804 206.951 230.991 207.208 231.079C207.465 231.167 207.746 231.149 207.99 231.03C208.234 230.911 208.421 230.699 208.509 230.442C208.597 230.185 208.579 229.904 208.46 229.66C207.613 227.813 206.169 226.305 204.36 225.38Z" fill="#5E503B"/>
<path d="M187.56 293.04C187.043 294.318 186.085 295.368 184.86 296C183.36 296.52 181.8 295.18 180.86 294L178.36 294.16C179.94 296.62 182.18 298.72 185.04 298.16C185.916 297.874 186.723 297.41 187.411 296.797C188.099 296.184 188.654 295.437 189.04 294.6C189.36 294.06 189.64 293.5 189.92 292.94C189.68 296.56 189.14 300.16 188.6 303.74C187.938 308.334 186.75 312.837 185.06 317.16C184.338 308.974 181.589 301.097 177.06 294.24H174.58C180.17 302.201 183.167 311.693 183.16 321.42C183.162 321.638 183.236 321.85 183.37 322.022C183.503 322.195 183.69 322.319 183.9 322.376C184.111 322.432 184.335 322.418 184.537 322.336C184.739 322.254 184.909 322.108 185.02 321.92C187.736 316.343 189.572 310.379 190.46 304.24C191.08 300.24 191.64 296.24 191.9 292.24C190.46 292.48 189.02 292.78 187.56 293.04Z" fill="#EFAC54"/>
</svg>
