<svg width="400" height="400" viewBox="0 0 400 400" fill="none" xmlns="http://www.w3.org/2000/svg">
<path d="M83.8201 290C83.8354 292.663 84.736 295.245 86.3801 297.34C94.8601 308.64 102.52 311.7 99.8001 325.34C99.4201 327.34 98.8801 329.2 98.4001 331.12C96.4001 338.72 89.1201 336.9 75.7201 339.82C68.6228 341.23 61.3174 341.23 54.2201 339.82C50.8601 339.22 47.4401 338.78 44.0601 338.1C40.6801 337.42 39.1001 335.4 39.8001 331.8C42.2601 319.02 29.3001 326.48 15.6201 295.8C9.32009 281.76 22.0001 264.28 33.8401 254C41.6601 247.28 57.8401 237.68 67.5801 236.5C71.3309 235.926 75.1519 235.994 78.8801 236.7C80.2319 237.07 81.4395 237.842 82.343 238.913C83.2466 239.985 83.8035 241.305 83.9401 242.7C84.9801 254.54 83.6801 281.08 83.8201 290Z" fill="#FEF0BB"/>
<path d="M350.92 284.22C346.32 284.22 345.92 283.38 345.18 280.06C344.2 275.72 345.78 273.16 349.32 271.08C350.718 270.04 352.054 268.918 353.32 267.72C355.72 265.88 355.86 263.2 356.1 260.56C356.147 259.991 356 259.424 355.684 258.948C355.369 258.473 354.902 258.118 354.36 257.94C346.54 254.34 343.38 256.98 340.66 252.42C320.3 218.68 322.5 224.64 319.98 219.34C319.819 219.081 319.765 218.77 319.828 218.472C319.891 218.173 320.068 217.911 320.32 217.74C320.88 217.38 321.34 217.74 321.74 218.08C322.14 218.42 322.82 219.12 323.18 218.34C324.3 215.98 326.8 215.92 328.72 215C331.331 213.471 334.209 212.452 337.2 212C349.86 211.02 360.88 214 368.66 224.9C377.38 237.2 382.48 252.78 375.22 266.02C373.15 269.882 370.797 273.586 368.18 277.1C366.503 279.54 363.992 281.282 361.12 282C357.34 282.7 353.68 284 350.92 284.22Z" fill="#FEF0BB"/>
<path d="M321.46 366.98C316.78 352.38 307.18 340.02 299.08 327.16C298.593 326.266 297.863 325.527 296.975 325.028C296.088 324.53 295.077 324.291 294.06 324.34C277.72 326.56 259.58 322.46 217.76 335.38C218.72 335.74 218.1 336.5 217.76 337.16C214.26 345.16 209.28 356.2 209.38 365.16C208.965 364.797 208.625 364.355 208.38 363.86C208.133 364.699 207.629 365.441 206.94 365.98C208.783 368.218 210.473 370.576 212 373.04C218.26 379.04 218.62 385.68 227.2 386.74C248.94 389.38 265.9 386.74 277.98 386.38C281.72 386.24 309.74 386.24 321.64 384.1C325.9 383.32 325.2 381.3 324.3 377.36C323.162 373.955 322.214 370.49 321.46 366.98Z" fill="#FEF0BB"/>
<path d="M148.92 302.74C153.18 294.94 154.12 292.4 156.68 292.4C158.68 292.4 159.62 293.88 160.12 295.7C163.12 306.66 160.12 319.7 163.68 327.56C164.4 329.18 164.94 329.2 165.96 327.76C168.534 323.568 170.456 319.009 171.66 314.24C173.4 308.76 173.5 305.96 175.82 306.14C178.66 306.36 178.06 310.86 181.46 322.24C187.06 306.54 181.04 294.04 186.6 291.68C188.74 290.78 190.42 292.24 191.94 293.54C194.861 296.177 197.15 299.438 198.64 303.08C200.56 306.937 201.389 311.245 201.036 315.539C200.684 319.833 199.163 323.948 196.64 327.44C191.34 335.16 200.64 334.32 194.92 351.44C194.16 354.799 192.849 358.009 191.04 360.94C190.78 361.3 190.6 370.94 178.92 376.94C176.753 377.845 174.346 377.999 172.08 377.38C158.82 375.08 149.82 366.28 138.34 369.62C134.06 370.86 131.62 369.74 129.24 366C127.966 364.134 127.171 361.982 126.927 359.735C126.683 357.489 126.996 355.216 127.84 353.12C129.196 350.25 130.029 347.162 130.3 344C130.3 334 120.3 333.56 124.72 317.86C126.94 309.78 130.052 301.972 134 294.58C135.331 291.927 137.321 289.661 139.78 288C140.215 287.628 140.768 287.424 141.34 287.424C141.912 287.424 142.465 287.628 142.9 288C143.94 289.12 144.9 288.8 146.06 288.66C152.42 287.84 148.68 295.72 148.94 300.04C148.96 300.72 148.92 301.42 148.92 302.74Z" fill="#FFC7D6"/>
<path d="M173.32 99.16C173.387 96.4892 173.28 93.8169 173 91.16C173 90.78 173.16 90.42 172.68 90.16C168.04 87.9 166.4 83.48 165.02 79.02C164.566 77.3188 163.711 75.7508 162.529 74.4463C161.346 73.1418 159.869 72.1385 158.22 71.52C156.426 70.7815 154.805 69.6781 153.46 68.28C150.14 64.92 151.9 60.06 155.46 57.8C157.22 56.7 160.64 58.48 161.24 60.58C161.271 60.7743 161.349 60.9579 161.468 61.1149C161.586 61.2718 161.742 61.3972 161.92 61.48C162.826 61.8227 163.823 61.8383 164.74 61.5243C165.656 61.2103 166.434 60.5863 166.94 59.76C168.198 57.5737 169.686 55.5287 171.38 53.66C171.72 53.24 172.06 52.78 172.68 52.88C177.42 53.58 181.18 51.04 184.86 48.88C190.6 45.4 196.1 41.56 199.82 35.72C200 35.435 200.25 35.2002 200.545 35.0375C200.841 34.8748 201.173 34.7895 201.51 34.7895C201.847 34.7895 202.179 34.8748 202.475 35.0375C202.77 35.2002 203.02 35.435 203.2 35.72C205.92 39.86 210.2 41.92 214.34 44.12C218.48 46.32 218.76 47.24 218.16 51.54C216.52 63.42 217.46 67.54 213.26 79.66C212.729 81.0273 211.904 82.261 210.843 83.2737C209.782 84.2864 208.511 85.0533 207.12 85.52C203.801 86.8995 200.234 87.5803 196.64 87.52C193.658 87.6406 190.7 88.0968 187.82 88.88C185.08 89.42 186.4 92.32 183.82 93.16C183.08 93.4 183.26 93.9 183.38 94.44C184.013 97.9018 184.227 101.427 184.02 104.94C184.02 105.68 184.02 106.56 183.08 106.64C182.14 106.72 182.06 105.82 181.92 105.12C181.521 101.622 181.421 98.0955 181.62 94.58C181.62 92.32 180.44 92.36 178.28 91.92C174.5 91.16 174.52 91.16 174.84 95.08C179.56 156.62 181.14 156.4 179.3 156.5C178.32 156.5 178.16 155.46 178.06 154.72C177.56 150.26 172.72 105 173.32 99.16ZM176.66 69.16C177.52 69.1763 178.352 68.8543 178.976 68.2632C179.601 67.6722 179.969 66.8594 180 66C179.944 65.1698 179.589 64.3881 179 63.7997C178.412 63.2113 177.63 62.8562 176.8 62.8C172.62 62.66 172.76 69.06 176.66 69.12V69.16ZM209.86 75.36C213.22 75.56 213.22 69.36 210.08 69.58C208.32 69.58 207.84 71 207.62 72.42C207.547 72.7611 207.549 73.114 207.627 73.4541C207.704 73.7942 207.854 74.1134 208.068 74.3895C208.281 74.6655 208.552 74.8918 208.861 75.0525C209.171 75.2132 209.512 75.3045 209.86 75.32V75.36Z" fill="#FFC7D6"/>
<path d="M121.44 46C116.729 43.4088 111.805 41.2275 106.72 39.48C104.52 38.6 105.16 40.66 104.94 41.86C104.52 44.58 103.12 45.16 100.94 43.44C96.4512 39.9208 92.2817 36.0123 88.4801 31.76C88.0218 31.3171 87.7515 30.7148 87.7255 30.078C87.6994 29.4412 87.9195 28.8188 88.3401 28.34C90.3401 25.72 92.2201 23.12 94.3401 20.62C95.9401 18.62 97.2601 18.74 98.9401 20.62C101.44 23.38 101.42 27.72 103.36 25.62C111.84 16.34 109.76 26.82 123.84 43.14C125.48 44.86 124.34 47.54 121.44 46Z" fill="#FFC7D6"/>
<path d="M103.8 62.14C103.818 62.4538 103.749 62.7664 103.601 63.0438C103.454 63.3213 103.233 63.553 102.963 63.7138C102.693 63.8745 102.384 63.9583 102.069 63.9558C101.755 63.9534 101.448 63.8649 101.18 63.7C94.9201 60.78 88.0001 59.48 82.0001 56.12C80.6001 55.36 79.7801 55.34 79.7801 57.24C79.7367 57.6333 79.6563 58.0217 79.5401 58.4C79.0201 61.26 77.9601 61.72 75.5401 60.1C71.3201 57.34 67.1001 54.62 62.8601 51.88C61.0601 50.72 61.1601 50.36 62.6401 48.9C64.3185 47.0173 65.7378 44.9187 66.8601 42.66C69.7801 37.68 70.7001 37.62 73.9801 42.38C76.1201 45.52 76.1201 45.52 78.7801 42.96C82.7801 39.12 82.5601 43.64 95.2001 54.68C100 59 103.6 60.62 103.8 62.14Z" fill="#FFC7D6"/>
<path d="M103.2 102C101.688 102.19 100.153 101.99 98.7401 101.42C97.7401 101.08 97.3001 101.12 96.7401 102.24C95.3601 105.54 92.9801 108.34 91.7601 111.74C91.1801 113.38 89.8801 113.18 88.6201 112.56C88.3397 112.473 88.0818 112.326 87.8647 112.128C87.6477 111.931 87.4768 111.688 87.3642 111.417C87.2515 111.146 87.2 110.853 87.2131 110.56C87.2262 110.267 87.3037 109.98 87.4401 109.72C90.9201 101.02 94.2001 100.26 91.2601 99.72C87.6001 99.16 83.9601 98.4 80.3001 97.86C78.5618 97.4377 76.8726 96.8344 75.2601 96.06C73.8801 95.52 74.1401 94.2 74.3601 93.1C75.7145 87.6945 77.6316 82.4458 80.0801 77.44C81.1601 74.9 82.0801 74.46 84.5201 75.76C88.1801 77.76 91.8801 79.76 95.3201 82.12C97.1444 83.6427 99.3383 84.6568 101.68 85.06C104.136 85.439 106.376 86.6798 108 88.56C112.18 92.88 108.94 100.9 103.2 102ZM88.0001 96.62C90.0001 97.12 89.6201 94.8 94.6601 86.38C95.5201 84.98 95.2401 84.38 93.9001 83.68C90.2495 82.0141 86.709 80.1169 83.3001 78C82.6601 77.52 82.4801 77.74 82.2601 78.44C77.3601 93.5 75.5801 93.72 79.4001 94.82C82.2601 95.56 85.1801 96 88.0001 96.62ZM102.6 100.62C104.6 101 105.54 99.52 106.4 97.86C107.6 95.56 108.54 93.14 106.8 90.78C105.262 88.7752 103.079 87.3625 100.62 86.78C100.456 86.7039 100.278 86.6651 100.097 86.6664C99.9166 86.6677 99.7386 86.7091 99.576 86.7875C99.4133 86.866 99.2702 86.9796 99.1567 87.1201C99.0433 87.2606 98.9625 87.4245 98.9201 87.6C95.0601 97.42 94.2801 97.6 95.2001 97.94C97.5601 98.82 99.5801 100.66 102.64 100.64L102.6 100.62Z" fill="#FFC7D6"/>
<path d="M168.36 119.3C167.6 119.3 167.4 118.76 167.26 118.14C166.18 113.62 165.4 96.64 164.2 89.2C164.18 88.9337 164.18 88.6663 164.2 88.4C164.2 87.72 164.2 86.96 164.98 86.78C165.76 86.6 166.32 87.32 166.46 88.04C167.68 93.56 167.38 91.06 169.14 111.08C169.3 113.26 170 119.16 168.36 119.3Z" fill="#FFC7D6"/>
<path d="M56.3601 79.8C56.6029 77.4251 57.3449 75.1284 58.5375 73.0603C59.73 70.9923 61.3462 69.1997 63.2801 67.8C63.7816 67.4699 64.3608 67.2769 64.9601 67.24C65.6801 67.12 66.7801 68.34 65.8001 68.96C61.6201 71.56 60.1601 75.8 58.9201 80.2C58.6201 81.32 58.5801 83.24 57.4001 83.1C56.2201 82.96 56.3801 81.06 56.3601 79.8Z" fill="#FFC7D6"/>
<path d="M188.12 95.76C188.12 90.76 187.88 89.12 189.18 89.16C189.94 89.16 189.98 89.9 190.06 90.52C190.557 94.5046 190.557 98.5354 190.06 102.52C190.06 102.98 190.06 103.58 189.5 103.68C188.94 103.78 188.7 103.06 188.54 102.6C188.015 100.36 187.873 98.0474 188.12 95.76Z" fill="#FFC7D6"/>
<path d="M62.9601 79.58C63.1541 78.2644 63.6297 77.0062 64.3546 75.8913C65.0794 74.7764 66.0364 73.8311 67.1601 73.12C67.3006 73.0044 67.4625 72.9177 67.6366 72.8647C67.8106 72.8117 67.9934 72.7935 68.1744 72.8111C68.3555 72.8288 68.5313 72.8819 68.6919 72.9675C68.8524 73.0531 68.9945 73.1695 69.1101 73.31C69.2257 73.4505 69.3124 73.6124 69.3654 73.7865C69.4184 73.9605 69.4366 74.1433 69.419 74.3243C69.4013 74.5054 69.3482 74.6812 69.2626 74.8418C69.177 75.0023 69.0606 75.1444 68.9201 75.26C64.9201 78.38 66.5201 82.68 64.1001 82.2C63.0601 82 62.8201 80.46 62.9601 79.58Z" fill="#FFC7D6"/>
<path d="M297.84 98.32C299.66 101.3 300.06 97.14 307.22 97.46C310.4 97.6 313.6 97.56 316.78 97.46C318.98 97.4563 321.166 97.1122 323.26 96.44C316.3 92.82 313.74 94.44 314.04 92.12C314.28 90.12 316.62 91.44 323.24 91.02C325.108 91.0452 326.971 90.8233 328.78 90.36C328.732 90.0686 328.6 89.7976 328.4 89.58C328.18 89.4887 327.952 89.4151 327.72 89.36C323.25 88.2887 318.63 87.991 314.06 88.48C313.12 88.48 312.06 88.48 311.94 87.3C311.82 86.12 312.98 85.92 313.94 85.78C321.48 84.68 323.58 84.78 326.44 83.78C326.363 83.6369 326.261 83.5083 326.14 83.4C325.045 83.0911 323.929 82.8638 322.8 82.72C315.2 82.72 316.2 82.72 315.66 82.72C310.66 83.28 308.7 84.6 308.24 82.72C307.88 81.4 309.74 81.14 310.42 80.92C313.81 79.985 317.148 78.8701 320.42 77.58C318.304 76.9253 316.049 76.8631 313.9 77.4C309.564 77.8724 305.426 79.4721 301.9 82.04C301.605 82.3655 301.193 82.5608 300.755 82.5833C300.316 82.6058 299.887 82.4536 299.56 82.16C297.02 80.34 303.98 76.28 304.98 73.52C303.997 73.631 303.049 73.9515 302.2 74.46C297.471 76.9774 293.15 80.1936 289.38 84C288.818 84.5857 288.358 85.2618 288.02 86C287.62 86.72 287.58 87.1 288.34 87.74C292.058 90.7301 295.266 94.3031 297.84 98.32Z" fill="#FFC7D6"/>
<path d="M133.42 162.14C140.54 162.38 141.14 163 141.42 162.14C141.7 161.28 140.82 161.04 140.26 160.74C135.34 157.96 130.82 159.7 131.14 157.2C131.46 154.7 135.52 157.92 143.14 156.1C143.368 156.07 143.587 155.99 143.781 155.865C143.974 155.741 144.138 155.575 144.26 155.38C142.903 154.124 141.13 153.411 139.28 153.38C135.924 153.124 132.585 152.677 129.28 152.04C128.42 151.9 127.54 151.76 127.7 150.7C127.86 149.64 128.8 149.68 129.7 149.78C133.022 149.922 136.326 150.337 139.58 151.02C139.972 151.07 140.368 151.07 140.76 151.02C141.22 151.02 141.76 151.02 141.92 150.48C142.08 149.94 141.64 149.78 141.36 149.5C140.338 148.591 139.144 147.894 137.85 147.451C136.555 147.008 135.185 146.828 133.82 146.92C130.106 146.623 126.37 146.737 122.68 147.26C122 147.38 121.28 147.26 120.96 146.62C120.64 145.98 121.24 145.28 121.84 144.86C124.587 143.231 127.137 141.292 129.44 139.08C132.04 136.06 120.18 139.38 111.44 147.08C108.72 149.46 107.86 153.08 106.5 156.16C105.269 158.873 104.59 161.803 104.5 164.78C103.966 164.635 103.502 164.302 103.194 163.843C102.885 163.384 102.753 162.829 102.82 162.28C102.52 162.6 101.58 163.04 102.38 165.24C102.76 166.3 103.68 165.68 104.38 165.56C110.336 164.605 116.35 164.057 122.38 163.92C131.58 163.52 132.48 164.38 128.78 163.3C130.129 162.35 131.783 161.937 133.42 162.14Z" fill="#FFC7D6"/>
<path d="M300.28 18C311.58 18.82 326.28 21.5 332.78 30.72C342.28 43.98 325.9 53.28 309.74 54.88C300.44 55.82 296.1 53.68 292.2 55.66C286.823 58.1675 280.811 58.9835 274.96 58C272.44 57.18 272.64 54.88 274.96 54.26C277.469 53.6384 279.913 52.7813 282.26 51.7C288.62 48.72 273.48 49.16 266.26 41.82C265.481 41.1331 264.857 40.2883 264.43 39.3417C264.003 38.3952 263.782 37.3685 263.782 36.33C263.782 35.2915 264.003 34.2648 264.43 33.3183C264.857 32.3717 265.481 31.5269 266.26 30.84C270.12 27.1604 274.723 24.3506 279.76 22.6C286.36 19.88 292.98 17.36 300.28 18Z" fill="#A6EEF8"/>
<path d="M296.92 141.02C294.546 140.091 292.269 138.932 290.12 137.56C285.68 134.56 284.9 130.26 288.12 125.96C289.501 124.072 291.282 122.511 293.335 121.391C295.389 120.271 297.665 119.618 300 119.48C312.38 118.72 324.64 119.32 336.28 124.34C346.64 128.82 346.78 136.34 340.72 139.6C332.38 144.1 319.82 144.7 310.4 144.5C307.58 144.5 306.54 143.54 304.1 145.16C300.34 147.68 296.1 147.5 291.8 147.16C290.04 147.04 289.48 144.76 291.44 143.74C293.1 142.9 294.78 142 296.92 141.02Z" fill="#A6EEF8"/>
<path d="M34.0001 368.88C34.0001 365.02 34.0001 365.06 30.7001 364.76C28.9211 364.583 27.1521 364.316 25.4001 363.96C24.6601 363.82 23.8801 363.58 24.0001 362.6C24.1201 361.62 25.0201 361.36 25.8001 361.4C38.6801 361.78 32.6201 365.72 36.6601 348.52C36.9401 347.28 37.0401 346.18 35.2201 346.24C34.82 346.222 34.4237 346.155 34.0401 346.04C32.5801 345.74 33.1401 343.9 34.1401 344.04C37.6601 344.82 38.1401 342.44 38.5801 339.92C38.7401 339.04 38.5801 337.44 39.9801 337.74C41.3801 338.04 40.7201 339.54 40.5601 340.48C39.7001 345.32 39.0801 344.14 53.1601 346.48C54.4401 346.68 55.1601 346.3 55.3401 344.94C55.6801 342.94 56.1801 340.94 56.6601 338.94C56.8201 338.18 57.0201 337.18 58.0801 337.44C59.1401 337.7 59.0801 338.56 58.9401 339.44C58.6201 341.44 58.4201 343.44 58.0001 345.3C57.7401 346.56 58.1601 347.02 59.3201 347.14L69.0001 348.1C71.0001 348.3 73.0001 348.38 75.1601 348.54C76.1201 348.54 76.5801 348.34 76.6601 347.26C76.8201 345.14 77.1801 343.06 77.4201 340.96C77.4201 340.22 77.5401 339.36 78.5401 339.36C79.5401 339.36 79.7601 340.32 79.7601 341.08C79.6201 347.9 78.6401 348.8 80.8401 349.08C90.8401 350.16 93.0201 351.92 92.8401 348.9C92.6801 346.9 95.2601 347.22 95.0401 349.02C94.8201 350.82 96.0601 351.22 97.4601 351.36C98.7873 351.489 100.092 351.791 101.34 352.26C101.668 352.356 101.949 352.57 102.128 352.861C102.308 353.152 102.372 353.5 102.31 353.836C102.248 354.172 102.063 354.473 101.791 354.681C101.52 354.889 101.181 354.988 100.84 354.96C99.4001 354.86 97.9401 354.72 96.4801 354.58C94.4801 354.4 95.4201 354.96 94.1401 364.8C94.0201 365.9 94.3201 366.38 95.3801 366.5C96.4401 366.62 98.5601 366.72 98.5001 368.28C98.4401 369.84 96.5001 369.58 95.2601 369.66C94.4401 369.66 93.9001 369.84 93.8001 370.84C93.7605 371.16 93.6055 371.454 93.3643 371.667C93.123 371.88 92.8121 371.998 92.4901 371.998C92.1681 371.998 91.8572 371.88 91.6159 371.667C91.3746 371.454 91.2196 371.16 91.1801 370.84C91.0601 369.84 90.4601 369.8 89.6601 369.7C85.9001 369.3 82.1001 369.48 78.3601 368.8C76.9001 368.54 77.3401 370.06 76.6401 372.52C76.4801 373.1 76.1201 373.66 75.4201 373.62C74.7201 373.58 74.4401 373.12 74.2201 372.48C73.3801 370.14 74.9201 368.36 72.7201 368.2C67.3001 367.78 61.9001 367.32 56.4801 366.82C55.1601 366.68 55.6601 367.52 54.6401 371.52C54.2601 372.86 52.7801 372.78 52.4601 371.42C52.0524 370.217 51.9493 368.932 52.1601 367.68C52.7801 365.44 50.5001 366.8 38.1601 365.5C36.6201 365.32 37.6401 367.94 36.9201 370.66C36.7201 371.4 36.6001 372.16 35.6801 372.18C34.7601 372.2 34.3801 371.34 34.2201 370.58C34.0861 370.023 34.0123 369.453 34.0001 368.88ZM56.0001 361.54C55.6601 362.72 56.2601 363.42 57.6801 363.54L73.3401 364.8C74.0201 364.8 74.6601 364.8 74.7601 363.9C75.1401 360.28 75.5801 356.66 76.0001 353.04C76.2401 350.64 74.6001 352.38 58.8201 350.1C58.1201 350 57.3601 349.9 57.2401 351.04C56.8001 354.46 56.3601 357.88 56.0001 361.54ZM48.5801 362.84C48.5801 363.04 48.4801 362.84 51.5801 362.84C52.3801 362.84 52.7201 362.58 52.8401 361.72C53.3001 358.12 53.8401 354.54 54.3801 350.94C54.5201 349.94 54.1201 349.38 53.1601 349.3C42.3601 348.34 39.6201 345.74 39.2801 348.22C38.7401 352.34 38.2201 356.48 37.6601 360.6C37.5001 361.84 37.8801 362.36 39.2601 362.38C42.3201 362.48 45.4201 362.68 48.5201 362.84H48.5801ZM86.5801 366.02C88.1201 366.02 89.1801 366.02 90.2601 366.02C91.3401 366.02 91.4201 365.78 91.5201 364.9C91.8601 361.8 92.2601 358.74 92.6801 355.66C92.8601 354.42 92.4401 353.66 91.1601 353.66C75.8001 352.6 79.8601 347.66 77.9201 363.34C77.7201 365.04 78.5801 365.52 79.9201 365.54C82.2401 365.56 84.6001 366.24 86.5201 366L86.5801 366.02Z" fill="#A6EEF8"/>
<path d="M162.94 187C164.089 182.457 166.128 178.188 168.94 174.44C169.6 173.38 170.54 172.56 171.94 173.42C173.34 174.28 172.88 175.28 172.34 176.38C167 187.24 166.34 189.96 164.08 189.08C163.3 188.76 162.92 188.16 162.94 187Z" fill="#A6EEF8"/>
<path d="M96.7001 279.28C96.7001 276.34 98.1201 274.24 100.12 274.3C101.397 274.5 102.569 275.127 103.445 276.079C104.32 277.03 104.847 278.25 104.94 279.54C104.928 280.655 104.519 281.729 103.785 282.568C103.052 283.408 102.043 283.958 100.94 284.12C99.7784 283.938 98.7175 283.353 97.9427 282.469C97.1678 281.584 96.728 280.456 96.7001 279.28Z" fill="#A6EEF8"/>
<path d="M210.88 312.88C211.155 311.297 211.901 309.833 213.02 308.68C214.68 307.06 216.38 305.5 218.16 304C219.18 303.12 220.42 302.66 221.48 304C222.54 305.34 221.8 306.18 220.92 307.12C214.92 313.72 214.6 314.5 213.32 314.9C213.019 315.022 212.691 315.06 212.37 315.01C212.049 314.96 211.748 314.825 211.498 314.618C211.248 314.411 211.058 314.14 210.949 313.834C210.841 313.528 210.817 313.198 210.88 312.88Z" fill="#A6EEF8"/>
<path d="M188.84 234.36C188.72 235.62 188.38 236.8 186.84 236.72C185.3 236.64 184.96 235.4 185.04 234.14C185.24 230.62 185.52 227.14 185.78 223.62C185.78 222.26 186.22 221.04 187.94 221.14C190.28 221.26 190 222.9 188.84 234.36Z" fill="#A6EEF8"/>
<path d="M107 171.4C108.86 171.72 109.44 173.08 114.06 183.9C114.86 185.9 111.76 187.9 110.06 184.34C108.36 180.78 106.96 177.74 105.5 174.34C104.88 172.88 105.72 171.36 107 171.4Z" fill="#A6EEF8"/>
<path d="M123.16 227.66C123.16 228.88 122.84 229.92 121.54 230.12C120.24 230.32 119.66 229.34 119.36 228.26C118.46 224.94 117.56 221.62 116.76 218.26C116.46 216.98 116.18 215.38 117.92 214.9C119.66 214.42 120.4 215.78 120.76 217.24C121.6 220.7 122.36 224.18 123.16 227.66Z" fill="#A6EEF8"/>
<path d="M182.3 261.06C180 260.92 177.48 259.3 173.48 257.06C173.173 256.965 172.893 256.797 172.665 256.571C172.437 256.344 172.266 256.066 172.168 255.76C172.07 255.454 172.047 255.129 172.101 254.812C172.156 254.495 172.286 254.196 172.48 253.94C173.46 252.14 174.48 251.68 176.12 252.54C177.16 253.1 182.82 257.08 183.48 257.58C183.894 257.808 184.201 258.19 184.335 258.643C184.47 259.095 184.422 259.583 184.2 260C184.051 260.366 183.782 260.671 183.436 260.864C183.091 261.056 182.69 261.126 182.3 261.06Z" fill="#A6EEF8"/>
<path d="M139.82 190.28C139.26 192.42 140.18 190.02 135.52 199.64C134.9 200.88 133.96 201.64 132.64 201.08C131.32 200.52 131.58 199.26 131.94 198.28C133.005 195 134.455 191.858 136.26 188.92C136.86 188.02 137.64 187.34 138.74 187.7C139.84 188.06 139.74 189.12 139.82 190.28Z" fill="#A6EEF8"/>
<path d="M204.18 287.78C201 287.78 197.62 281.92 196.18 279.04C195.62 277.98 195.44 276.78 196.7 276.1C197.96 275.42 198.7 276.3 199.5 277.24C205.5 284.94 206.52 285.24 205.62 286.88C205.495 287.155 205.291 287.386 205.035 287.546C204.779 287.706 204.482 287.788 204.18 287.78Z" fill="#A6EEF8"/>
<path d="M119.4 306.84C117.82 312.26 118.72 309.16 116.66 317.28C116.4 318.26 115.84 319 114.66 318.8C114.42 318.78 114.187 318.712 113.974 318.6C113.762 318.488 113.574 318.333 113.422 318.146C113.271 317.959 113.159 317.744 113.093 317.512C113.028 317.281 113.009 317.039 113.04 316.8C113.232 312.827 114.269 308.941 116.08 305.4C116.267 305.054 116.571 304.786 116.937 304.643C117.303 304.5 117.708 304.492 118.08 304.62C118.96 304.88 119.38 305.56 119.4 306.84Z" fill="#A6EEF8"/>
<path d="M198.9 191.3C201.06 192.14 203.24 192.92 205.4 193.76C205.859 193.911 206.242 194.233 206.47 194.658C206.698 195.084 206.753 195.581 206.624 196.046C206.496 196.512 206.193 196.91 205.779 197.158C205.365 197.406 204.871 197.486 204.4 197.38C200.946 196.584 197.592 195.403 194.4 193.86C193.989 193.702 193.654 193.391 193.468 192.992C193.281 192.593 193.257 192.137 193.4 191.72C194 189.6 196.8 190.48 198.9 191.3Z" fill="#A6EEF8"/>
<path d="M266.56 214.78C266.275 214.962 265.936 215.039 265.601 214.999C265.265 214.959 264.954 214.804 264.72 214.56C258.46 208.26 255.04 205.7 257.38 203.6C258.4 202.68 259.38 203.46 260.18 204.18C262.614 206.617 264.911 209.188 267.06 211.88C267.229 212.099 267.35 212.351 267.417 212.619C267.483 212.888 267.493 213.167 267.446 213.44C267.399 213.712 267.296 213.972 267.144 214.203C266.991 214.433 266.792 214.63 266.56 214.78Z" fill="#A6EEF8"/>
<path d="M232.76 191C232.76 189.2 232.54 187.5 234.32 187.26C234.779 187.207 235.241 187.33 235.613 187.605C235.984 187.88 236.237 188.286 236.32 188.74C237.097 191.951 237.599 195.223 237.82 198.52C238.1 201.52 234.48 202.02 233.98 199.06C233.396 196.403 232.988 193.711 232.76 191Z" fill="#A6EEF8"/>
<path d="M146.14 249.54C146.14 251.38 146.46 253.36 144.62 253.54C144.186 253.63 143.733 253.546 143.36 253.307C142.986 253.068 142.721 252.692 142.62 252.26C141.992 248.89 141.585 245.483 141.4 242.06C141.4 240.94 141.54 239.68 143.06 239.6C144.58 239.52 145.06 240.62 145.24 241.76C145.756 244.324 146.057 246.926 146.14 249.54Z" fill="#A6EEF8"/>
<path d="M241.52 216.88C241.52 215.52 241.76 214.64 242.74 214.48C244.12 214.26 244 215 248.18 226.14C248.68 227.48 248.7 228.78 247.2 229.3C245.7 229.82 244.96 228.58 244.54 227.3C244 225.54 241.82 218.72 241.52 216.88Z" fill="#A6EEF8"/>
<path d="M162.94 219.8C162.14 221.48 161.28 223.12 160.42 224.76C159.76 225.98 158.76 226.76 157.36 226.18C155.96 225.6 156.36 224.18 156.76 223.24C157.7 220.454 158.926 217.773 160.42 215.24C160.88 214.52 161.28 213.64 162.3 213.72C162.9 213.84 164.94 215.76 162.94 219.8Z" fill="#A6EEF8"/>
<path d="M221.8 216.18C219.4 217.071 217.062 218.12 214.8 219.32C211.92 220.46 210.54 217.52 212.54 216.2C215.047 214.587 217.58 213.04 220.14 211.56C223.66 209.56 224.6 215.46 221.8 216.18Z" fill="#A6EEF8"/>
<path d="M133.14 270.3C134.28 270.3 134.84 270.6 135.14 271.26C135.342 271.613 135.421 272.023 135.363 272.425C135.305 272.827 135.114 273.199 134.82 273.48C132.321 275.671 129.411 277.343 126.26 278.4C124.92 278.92 123.84 277.46 124.26 276.06C125.38 273.16 131.2 271.14 133.14 270.3Z" fill="#A6EEF8"/>
<path d="M212.42 177.34C212.42 182.1 212.84 183.96 210.66 184C210.402 184.016 210.144 183.973 209.904 183.875C209.665 183.777 209.451 183.626 209.278 183.434C209.105 183.242 208.978 183.013 208.905 182.765C208.833 182.516 208.817 182.255 208.86 182C209.08 174.48 207.32 170.58 209.32 169.86C212.36 168.78 212.38 177.14 212.42 177.34Z" fill="#A6EEF8"/>
<path d="M244.34 166.52C245.941 164.331 247.771 162.319 249.8 160.52C249.967 160.332 250.172 160.182 250.401 160.079C250.63 159.976 250.879 159.923 251.13 159.923C251.381 159.923 251.63 159.976 251.859 160.079C252.088 160.182 252.293 160.332 252.46 160.52C252.636 160.679 252.777 160.874 252.873 161.091C252.969 161.308 253.019 161.543 253.019 161.78C253.019 162.017 252.969 162.252 252.873 162.469C252.777 162.686 252.636 162.881 252.46 163.04C250.64 165.16 248.74 167.18 246.82 169.22C246.524 169.489 246.155 169.663 245.759 169.72C245.363 169.778 244.96 169.715 244.6 169.54C243.64 169.08 243.72 167.36 244.34 166.52Z" fill="#A6EEF8"/>
<path d="M147.72 168.7C147.88 165.06 153.9 170.4 153.72 173.18C153.72 174.38 152.94 175.02 151.72 174.68C149.722 173.222 148.304 171.104 147.72 168.7Z" fill="#A6EEF8"/>
<path d="M265.36 192.38C264.24 192.18 262.46 192.16 262.44 190.64C262.42 189.12 265.22 188.64 266.94 188.96C267.78 189.1 268.66 189.4 268.66 190.54C268.66 192.18 266.98 192.2 265.36 192.38Z" fill="#A6EEF8"/>
<path d="M161.74 73.8C160.485 74.0449 159.186 73.9198 158 73.44C151.76 70.96 152.12 67.44 151.46 66.66C150.855 66.0459 150.511 65.2218 150.5 64.36C150.18 59.52 153.28 56.76 156.8 54.5C159.78 52.5 160.42 52.16 161.08 56.2C161.08 56.4 161.08 56.6 161.22 56.8C162.246 57.6074 163.137 58.5728 163.86 59.66C164.433 59.8336 165.043 59.8451 165.622 59.6933C166.201 59.5415 166.726 59.2323 167.14 58.8C166.035 58.7144 165.007 58.1971 164.28 57.36C164.09 57.1958 163.96 56.9735 163.909 56.7275C163.859 56.4816 163.891 56.2259 164 56C164.6 55.02 165.44 56.22 168.38 56.86C168.966 55.3268 169.473 53.7648 169.9 52.18C168.254 51.6651 166.66 50.9954 165.14 50.18C164.8 50 164.3 49.84 164.48 49.34C165.2 47.2 170.86 52.98 181.34 49.06C183.78 48.0204 186.1 46.7194 188.26 45.18C188.26 44.1 186.06 44.1 185.16 44.02C183.918 43.7457 182.622 43.8551 181.443 44.3337C180.265 44.8123 179.259 45.6374 178.56 46.7C178.26 47.14 177.98 47.46 177.44 47.14C176.9 46.82 177.04 46.2 177.2 45.7C177.767 44.5696 178.618 43.6063 179.67 42.9049C180.722 42.2035 181.939 41.7883 183.2 41.7C188.1 41.36 189.36 43.24 190.64 43.4C196 39.24 196.84 38.62 202.64 29.58C202.911 29.254 203.091 28.862 203.161 28.4439C203.231 28.0259 203.19 27.5967 203.04 27.2C202.58 26.24 201.6 26.38 200.74 26.48C198.74 26.74 195.8 29.74 194.38 30.04C194.1 30.04 193.88 30.14 194.24 29.82C194.94 29.18 194.36 29.34 195.48 27.82C195.818 27.4555 196.046 27.0031 196.138 26.5149C196.23 26.0266 196.182 25.5224 196 25.06C195.6 24.04 194.62 23.94 193.64 23.98C186.48 24.26 179.26 28.48 173.44 32.6C171.157 34.613 168.597 36.2899 165.84 37.58C165.62 35.14 168.8 31.38 166.86 29.9C166.459 29.649 165.99 29.5277 165.518 29.5528C165.046 29.5778 164.592 29.748 164.22 30.04C156.02 34.7 156.96 35.38 155.7 32.3C154.96 30.46 153.88 29.54 152.54 29.58C151.231 30.1058 150.066 30.9353 149.14 32L147.8 33.48C146.062 35.1513 144.821 37.271 144.214 39.6044C143.607 41.9377 143.657 44.3936 144.36 46.7C145.065 48.7857 145.218 51.0183 144.804 53.1806C144.391 55.3429 143.425 57.3615 142 59.04C141.302 60.0096 140.693 61.0405 140.18 62.12C139.606 63.1386 139.249 64.2652 139.132 65.4287C139.015 66.5923 139.14 67.7674 139.5 68.88C140.042 69.7525 140.76 70.5033 141.606 71.085C142.453 71.6668 143.411 72.0668 144.42 72.26C147.88 73.26 150.02 72.92 152.58 74.74C153.257 74.8758 153.898 75.1508 154.463 75.5475C155.027 75.9442 155.504 76.454 155.861 77.0445C156.218 77.635 156.449 78.2933 156.538 78.9777C156.628 79.6621 156.574 80.3575 156.38 81.02C157.26 83.18 157.98 85.02 160.38 84.12C161.357 83.7187 162.211 83.0667 162.855 82.2299C163.499 81.393 163.911 80.4009 164.049 79.3539C164.187 78.3068 164.046 77.2419 163.641 76.2667C163.235 75.2915 162.58 74.4406 161.74 73.8Z" fill="#A6EEF8"/>
<path d="M205.14 33.68C205.14 36.34 207 37.68 208.86 38.94C216 43.82 224.76 47.34 224.36 54.82C224.36 58.02 223.2 62.3 221.26 64.08C218.653 67.2502 217.326 71.281 217.54 75.38C217.593 78.1331 216.632 80.8096 214.84 82.9C213.52 84.5 211.38 86.9 212.84 88.26C214.862 87.8993 216.928 87.8655 218.96 88.16C219.426 88.1355 219.879 88.0035 220.285 87.7745C220.691 87.5455 221.038 87.2257 221.3 86.84C223.117 84.7785 224.694 82.5173 226 80.1C226.26 79.54 226.56 78.92 227.3 79.2C228.04 79.48 228.04 80.24 227.86 80.92C227.654 81.6544 227.386 82.3703 227.06 83.06C226.44 84.36 228.24 89.06 231.5 86.52C237.5 81.92 243.28 73.28 237.5 68.52C233.94 65.6 234.4 61.52 234.44 56.7C234.44 51.22 233.18 43.96 229.02 40.38C227.52 39.08 226.32 39.38 225.68 41.2C225.04 43.02 224.2 42.3 223.5 41.42C220.097 37.6785 215.929 34.7116 211.28 32.72C209.46 31.82 207.04 32.48 205.68 30.48C205.68 30.36 204.96 30.48 204.78 30.62C204.509 30.8669 204.317 31.1885 204.228 31.5444C204.139 31.9003 204.157 32.2745 204.28 32.62L204.4 32.94C204.62 32.7 205.16 32.9 205.14 33.68Z" fill="#A6EEF8"/>
<path d="M318.56 222C317.7 222 317.72 222.2 316.82 222.7C316.449 223.266 315.966 223.749 315.4 224.12C310.989 227.548 306.862 231.327 303.06 235.42C300.18 240.68 302.46 244.02 299.22 247.24C299.229 247.387 299.229 247.533 299.22 247.68C299.56 249.68 297.5 249.94 295.9 250.74C295.036 251.056 294.268 251.59 293.672 252.291C293.076 252.992 292.673 253.836 292.5 254.74C294.5 257.66 298.4 257.62 297.66 262.86C297.658 262.907 297.658 262.953 297.66 263C298.06 265.24 297.3 262.54 298.56 278.48C298.641 279.505 298.905 280.508 299.34 281.44C301.077 283.303 303.459 284.433 306 284.6C309.784 285.307 313.614 285.735 317.46 285.88C320 285.88 321.24 286.52 322.04 288.2C322.711 289.158 323.042 290.312 322.98 291.48C323.354 293.703 323.588 295.948 323.68 298.2C324.122 298.444 324.627 298.55 325.13 298.504C325.633 298.457 326.11 298.261 326.5 297.94C340.74 289.22 344.5 291.24 344.14 287.08C343.42 277.7 343.08 277.62 343.36 276.1C343.031 275.851 342.647 275.687 342.24 275.62C342.091 275.588 341.95 275.523 341.828 275.43C341.707 275.338 341.607 275.219 341.536 275.084C341.466 274.948 341.426 274.799 341.42 274.646C341.413 274.493 341.441 274.341 341.5 274.2C342.06 272.72 343.6 274.08 346.66 274C351.92 271.64 355.94 262 352.4 258.4C350.889 258.104 349.326 258.22 347.876 258.738C346.426 259.255 345.142 260.154 344.16 261.34C343.9 261.66 343.78 262.34 343.14 261.96C341.88 261.26 343.14 259.36 344.24 258.48C342.46 259.4 341.68 260.16 341.34 258.36C340.24 252.48 337.52 249.16 330.8 235.46C328.962 231.651 326.621 228.106 323.84 224.92C322.668 223.465 321.325 222.155 319.84 221.02C319.864 221.166 319.864 221.314 319.84 221.46C319.74 222.38 319.02 222 318.56 222ZM314.04 260C309.16 260 309.54 252.84 314.34 252.78C315.272 252.723 316.189 253.029 316.901 253.633C317.613 254.236 318.064 255.092 318.16 256.02C318.084 257.07 317.613 258.053 316.841 258.769C316.068 259.486 315.053 259.883 314 259.88L314.04 260Z" fill="#A6EEF8"/>
<path d="M380.88 324.58C379.522 324.349 378.263 323.72 377.263 322.773C376.262 321.826 375.565 320.603 375.26 319.26C374.86 317.26 365.08 300.9 362.86 296.8C362.22 295.6 359.74 293.24 359.22 292.36C354.42 284.36 357.22 284.68 347.08 288.52C347.027 288.27 346.96 288.023 346.88 287.78C346.46 286.76 346.76 284.84 345.14 285.16C343.52 285.48 344.56 287.16 344.64 288.2C344.82 290.74 346.16 287.9 325.06 299.36C324.06 299.9 323.64 299.74 323.64 298.18C323.06 287.42 321.64 285.88 317.42 285.86C313.575 285.705 309.745 285.277 305.96 284.58C303.411 284.388 301.037 283.212 299.34 281.3C295.82 277.02 296.88 268.36 297.66 262.86C297.66 262.86 297.66 262.76 297.66 262.7C298.4 257.5 294.62 257.62 292.5 254.7C291.08 252.7 293.2 251.88 298.5 247.94C299.213 247.404 299.814 246.732 300.267 245.963C300.72 245.194 301.016 244.344 301.14 243.46C301.7 239.8 301.14 238.94 303.14 235.46C306.32 229.46 311.68 225.46 317.7 222.26C318.88 221.62 319.8 222.7 319.84 221.56C319.88 220.42 317.84 220.28 316.66 220.84C310.858 223.076 305.833 226.954 302.2 232C298.48 237.72 299.56 238.66 299.56 241.48C299.56 246.68 295.9 248.36 292.94 250.42C289.98 252.48 289.86 254.42 292.38 256.94C292.775 257.39 293.233 257.781 293.74 258.1C294.635 258.574 295.329 259.354 295.696 260.298C296.063 261.242 296.079 262.286 295.74 263.24C295.131 266.442 294.93 269.708 295.14 272.96C295.52 280.8 299 284.86 306.62 286.52C310.045 287.369 313.539 287.911 317.06 288.14C317.426 288.11 317.794 288.155 318.141 288.274C318.488 288.393 318.807 288.582 319.078 288.83C319.348 289.078 319.564 289.379 319.713 289.715C319.861 290.05 319.939 290.413 319.94 290.78C320.54 296.48 321.7 299.28 321 301.2C320.3 303.12 317.8 303.56 316.18 304.78C313.639 306.28 311.563 308.453 310.18 311.06C303.56 327.06 305.74 328.92 304.18 329.32C303.92 328.98 303.66 328.7 303.44 328.36C300.7 324.12 297.2 321.72 291.84 322.78C289.399 323.085 286.941 323.238 284.48 323.24C283.54 323.24 283.16 323.04 283 321.96C282.527 318.523 281.479 315.19 279.9 312.1C277.9 308.1 270.92 308.7 266.7 308.88C265.9 308.88 264.98 309.36 264.56 308.12C263.74 305.7 262.8 303.3 261.88 300.84C264.74 301.12 264.7 301.1 265.42 298.36C267.08 292.22 268.82 286.12 270.44 279.98C270.528 279.575 270.726 279.203 271.012 278.903C271.298 278.603 271.66 278.388 272.06 278.28C283.96 273.62 284.52 261.7 276.16 260.1C277.98 253.98 279.5 249.5 278.4 245.5C276.652 238.6 273.693 232.065 269.66 226.2C268.62 224.76 267.88 224.68 266.72 226C266.72 219.64 267.74 223.36 269.64 185.76C269.74 184.26 268.9 182.34 269.88 181.34C270.86 180.34 272.9 180.92 274.48 180.82C277.1 180.64 277.92 179.64 277.22 177.06C275.78 171.54 274.24 166.02 272.8 160.48C272.749 160.069 272.615 159.672 272.407 159.314C272.198 158.956 271.919 158.644 271.586 158.397C271.253 158.15 270.873 157.974 270.47 157.878C270.067 157.782 269.648 157.769 269.24 157.84C261.48 158.28 229.24 159.84 221.02 160.3C220.24 160.3 219.54 160.3 219.5 159.28C219.248 157.103 219.565 154.898 220.42 152.88C223.018 148.189 225.013 143.19 226.36 138C226.64 136.62 227.36 136.76 228.2 137.26C230.929 138.724 233.814 139.878 236.8 140.7C246 143.68 250 146 254 145.64C254.5 145.64 254.98 145.48 255.04 144.92C255.1 144.36 254.3 144.38 249.74 142.6C242.925 139.632 235.932 137.094 228.8 135C227.26 134.62 226.8 133.96 226.8 132.5C226.543 129.54 225.619 126.677 224.099 124.124C222.578 121.571 220.5 119.396 218.02 117.76C217.243 117.126 216.311 116.712 215.32 116.56C214.82 116.56 214.18 116.38 213.96 117.06C213.74 117.74 214.28 117.96 214.78 118.22C217.603 119.748 219.943 122.036 221.533 124.825C223.124 127.614 223.902 130.792 223.78 134C223.78 149.4 215.48 151.58 217.04 159.34C217.18 160 217.04 160.54 216.2 160.6L208.58 161.02C211.22 156.8 205.9 155.52 199.04 148.76C198.631 148.482 198.339 148.063 198.221 147.583C198.103 147.103 198.166 146.596 198.4 146.16C199.8 142.52 201.08 138.82 202.4 135.18C204.4 129.88 204.4 129.68 199.9 126.3C197.06 124.18 195.74 123.82 196.48 122.5C196.84 121.86 197.28 122.5 197.66 122.5C198.4 122.8 199.08 123.22 199.84 123.48C202.32 124.4 203.08 123.9 203.26 121.24C203.7 115.42 205.08 95 205.56 90.64C205.56 90.16 205.9 89.48 205.08 89.38C204.26 89.28 204.3 89.78 204.16 90.24C202.82 94.24 202.64 98.84 201.02 120.1C201.02 120.62 201.02 121.18 200.18 121.16C199.201 121.036 198.281 120.623 197.537 119.975C196.793 119.327 196.258 118.473 196 117.52C194.98 113.52 195.04 109.2 193.02 105.4C192.44 104.4 194.48 103.08 194.2 92.82C194.08 89.34 195.94 92.6 207.72 87.4C209.742 86.5767 211.548 85.3015 213 83.6721C214.453 82.0428 215.513 80.1025 216.1 78C218.359 69.6582 220.003 61.1621 221.02 52.58C221.14 51.6 221.16 50.58 220.1 50.58C219.04 50.58 218.86 51.32 218.72 52.16C218.72 52.68 218.46 53.2 218.36 53.7C213.3 76.18 214.9 82.48 205.58 85.7C199.9 87.7 194.2 88.86 188.2 87.18C186.98 86.82 185.76 86.8 185.58 88.6C185.482 88.8493 185.297 89.0551 185.06 89.18C179.92 92.7 175.72 93.66 171.5 87.8C169.303 85.1453 167.688 82.0587 166.76 78.74C166.411 77.4624 165.936 76.2229 165.34 75.04C165.06 74.36 164.66 73.56 163.74 73.94C162.82 74.32 163.34 75.28 164.1 77.94C164.532 79.5322 165.046 81.101 165.64 82.64C167.3 86.86 161.9 83.2 153.64 89.72C149 93.38 144.12 96.74 139.38 100.3C134.64 103.86 131.38 103.32 125.66 107.46C122.62 109.64 120.28 112.22 120.28 116.26C120.28 118.64 115.04 119.54 113.04 136.76C112.64 140.16 112.4 143.5 109.56 146.08C107.669 148.054 106.157 150.359 105.1 152.88C103.535 155.75 102.678 158.952 102.6 162.22C102.515 162.786 102.638 163.364 102.947 163.846C103.256 164.328 103.73 164.681 104.28 164.84C104.35 161.86 105.031 158.926 106.28 156.22C107.62 153.04 108.5 149.52 111.22 147.12C116.16 142.687 122.126 139.552 128.58 138C128.742 137.958 128.912 137.951 129.077 137.978C129.242 138.006 129.4 138.068 129.54 138.16C129.86 138.52 129.54 138.9 129.22 139.16C126.913 141.367 124.363 143.306 121.62 144.94C121 145.36 120.32 145.84 120.72 146.7C121.12 147.56 121.78 147.46 122.46 147.34C126.15 146.828 129.885 146.714 133.6 147C134.965 146.907 136.335 147.087 137.63 147.53C138.925 147.973 140.118 148.67 141.14 149.58C141.42 149.86 141.82 150.1 141.7 150.56C141.58 151.02 141 151.1 140.54 151.1C140.149 151.161 139.751 151.161 139.36 151.1C136.106 150.419 132.802 150.004 129.48 149.86C128.66 149.86 127.72 149.86 127.48 150.78C127.24 151.7 128.2 151.98 129.04 152.12C132.346 152.754 135.684 153.202 139.04 153.46C140.895 153.492 142.674 154.204 144.04 155.46C143.916 155.658 143.749 155.825 143.552 155.95C143.355 156.074 143.132 156.153 142.9 156.18C135.4 158 131.34 154.58 130.9 157.28C130.46 159.98 135.12 158.02 140.02 160.8C140.58 161.12 141.4 161.48 141.18 162.22C140.96 162.96 140.14 162.6 139.6 162.58C133.38 162.3 130.82 161.5 128.32 163.56C129.06 163.76 131.8 164.54 132.6 164.74C132.334 164.895 132.052 165.023 131.76 165.12C124.32 165.62 116.86 166.32 109.4 166.54C103.82 166.72 98.2201 166.82 92.6401 167.08C89.98 167.2 89.3801 168.3 90.6401 170.64C91.2801 171.94 93.9001 182.02 94.1601 183.08C94.259 183.714 94.5945 184.288 95.0992 184.685C95.6038 185.082 96.2401 185.273 96.8801 185.22C98.2001 185.22 99.5401 185.22 100.88 185.22C103.04 185.22 101.4 186.04 104.68 208.68C106.3 219.86 104.86 214.98 110.3 253.78C108.484 252.831 106.405 252.513 104.388 252.875C102.371 253.237 100.532 254.259 99.1601 255.78C98.4001 256.56 98.1401 255.9 97.8001 255.48C95.4469 252.659 92.5227 250.369 89.2201 248.76C86.5201 247.38 88.4201 246.76 84.7201 238.9C83.7001 236.76 83.1801 234.18 79.6801 234.54C78.2201 234.72 76.6801 233.6 75.0601 233.58C66.6041 233.613 58.2353 235.291 50.42 238.52C45.02 240.66 40.64 244.42 35.94 247.58C28.1712 252.712 21.6791 259.553 16.96 267.58C14.9569 270.827 13.2948 274.272 12.0001 277.86C5.82005 296.4 15.6 306 19.8 312.18C29.0201 325.72 39.98 324.5 37.28 330.44C35.7 333.94 36.6001 335.3 40.2201 336.74C46.68 339.3 53.5401 339.08 60.2201 339.46C68.1001 339.92 76.0401 339.92 83.9001 340.92C88.9001 341.54 89.7201 342.92 101.42 355.98C102.04 356.68 102.6 357.76 104.08 357.54C100.351 351.653 95.6983 346.406 90.3001 342C98.8201 342 99.5201 340 101.54 334.58C103.124 330.058 104.132 325.354 104.54 320.58C104.7 319.02 105.48 316.14 103.82 315.92C103.55 315.872 103.272 315.931 103.045 316.084C102.817 316.237 102.658 316.472 102.6 316.74C102.226 317.942 101.951 319.173 101.78 320.42C101.288 325.779 100.118 331.055 98.3001 336.12C95.4001 343.88 89.6001 339.16 75.6401 338.12C71.6401 337.86 67.2001 335.68 63.2401 337.76C62.1401 338.32 59.96 338.26 55.44 337.1C53.44 336.56 51.26 335.26 49.44 335.7C46.44 336.44 44.1001 335.26 41.5601 334.44C39.0201 333.62 38.8601 333.44 40.0801 330.8C40.7061 329.872 40.9455 328.737 40.7476 327.635C40.5497 326.533 39.9299 325.552 39.0201 324.9C33.98 319.96 24.3001 319.34 15.1601 300.18C9.76005 288.84 11.8 273.44 26.06 261.16C31.5201 256.46 37.04 251.9 42.46 247.16C53.4 237.62 66.1801 234.68 80.3201 236.36C80.8087 236.369 81.2835 236.524 81.6829 236.806C82.0823 237.087 82.3879 237.483 82.5601 237.94C84.3835 242.093 85.5767 246.495 86.1001 251C88.48 272.6 83.5801 288.56 77.6601 308.1C77.5201 308.56 77.08 309.02 77.84 309.76C80.8801 304.84 82.1201 299.3 84.1201 293.76C86.9223 300.457 91.72 306.127 97.8601 310C98.6401 310.48 99.8601 311.18 100.4 310.42C100.94 309.66 99.5801 309 98.9401 308.42C93.3107 304.352 88.7367 298.997 85.6001 292.8C85.3124 292.254 85.1359 291.657 85.081 291.042C85.0261 290.428 85.0937 289.808 85.2801 289.22C88.6378 277.22 89.7632 264.706 88.6001 252.3C88.6001 251.76 88.22 251.12 88.84 250.56C94.5252 253.891 98.719 259.273 100.56 265.6C101.12 267.2 102.56 269.04 102.24 270.3C101.92 271.56 99.6801 272.62 98.2401 273.7C94.4294 276.388 91.0102 279.592 88.0801 283.22C87.6711 283.577 87.3715 284.043 87.2158 284.563C87.0601 285.083 87.0547 285.637 87.2001 286.16C91.7814 281.192 96.8917 276.739 102.44 272.88C103 272.48 103.5 271.74 104.28 272.6C105.817 274.135 107.685 275.298 109.74 276C111.446 276.551 112.917 277.659 113.918 279.145C114.919 280.632 115.392 282.412 115.26 284.2C115.26 289.28 115.42 291.98 108.46 289.9C107.68 289.74 107 289.46 106.74 290.22C106.48 290.98 107.18 291.24 107.7 291.52C108.65 292.051 109.697 292.387 110.779 292.507C111.861 292.627 112.956 292.529 114 292.22C113.857 293.54 113.47 294.821 112.86 296C110.86 301.08 107.08 305.02 103.7 309.22C102.91 310.291 101.816 311.1 100.56 311.54C99.9577 311.739 99.4115 312.079 98.9663 312.531C98.5212 312.983 98.19 313.535 98.0001 314.14C96.7297 317.494 95.6349 320.912 94.7201 324.38C94.5401 325.16 93.8801 326.38 94.7201 326.7C95.5601 327.02 96.1201 325.68 96.4801 324.92C97.8149 321.876 98.892 318.725 99.7001 315.5C99.9601 314.54 100.18 313.5 101.2 313.02C103.096 311.931 104.833 310.585 106.36 309.02C112.135 304.395 115.897 297.716 116.86 290.38C118 281.82 115.78 276.22 108.5 273.54C107.565 273.154 106.735 272.551 106.08 271.78C105.54 271.22 105.34 270.74 106.08 270.2C108.28 268.68 110.48 267.1 112.84 265.44C113.32 267.728 113.32 270.092 112.84 272.38C112.84 272.7 112.34 273.16 112.84 273.4C113.78 273.78 114.1 272.24 114.26 271.2C114.813 266.965 114.347 262.659 112.9 258.64C112.76 258.16 112.2 257.62 112.68 257.18C114.28 255.7 113.18 254.72 112.4 246.54C111.68 239.32 109.78 232.28 109.88 224.94C109.73 221.884 109.321 218.847 108.66 215.86C107.22 206.34 106.08 196.76 104.24 187.3C103.92 185.6 104.08 185.02 106.02 184.98C123.78 184.62 229.64 181.98 264.82 181.1C267.32 181.1 267.32 181.1 266.98 183.44C266.22 189.1 266.4 193.44 266.12 197.92C265.94 201.14 263.7 225.42 263.4 228.62C262.688 227.866 262.178 226.944 261.92 225.94C260.68 223.38 258.92 223.16 257.18 225.32C256.52 226.12 255.8 226.9 254.92 227.88C253.76 223.48 253.7 221.88 252.1 221.88C250.5 221.88 250.4 223.68 249.4 227.34C248.24 225.34 247.4 223.62 246.16 222C243.18 217.74 241.94 222.58 238.16 229.62C237.82 230.24 237.64 231.12 236.68 231.34C236.26 228.32 236.28 226.04 234.68 225.72C233.62 225.5 233.08 226.22 232.68 227C231.96 228.38 231.28 229.8 230.54 231.3C230.06 230.62 230.34 230 230.24 229.46C230.06 228.56 230.08 227.46 229.08 227.06C228.08 226.66 227.54 227.64 226.96 228.2C221.44 233.46 221.34 237.88 219.42 235.12C218.56 233.86 217.58 232.66 216.64 231.48C216.14 230.82 215.54 230.24 214.64 230.54C214.272 230.696 213.959 230.958 213.742 231.293C213.525 231.628 213.412 232.021 213.42 232.42C213.12 235.74 212.72 239.02 212.5 242.42C212.412 245.36 212.098 248.289 211.56 251.18C210.54 255.56 209.16 260.06 209.82 264.72C209.96 265.82 209.66 266.02 208.54 265.92C207.91 265.812 207.266 265.829 206.643 265.972C206.02 266.115 205.432 266.38 204.913 266.753C204.394 267.125 203.954 267.596 203.619 268.14C203.283 268.684 203.059 269.289 202.96 269.92C202.568 271.161 202.456 272.475 202.632 273.765C202.808 275.055 203.269 276.289 203.98 277.38C205.927 280.82 208.989 283.494 212.66 284.96C214.18 285.54 213.38 284.96 224.66 303.48C224.86 303.86 225.08 304.52 225.64 304.24C227.64 303.3 228.02 304.88 228.56 306.08C230.058 309.538 231.81 312.88 233.8 316.08C232.386 316.714 230.937 317.268 229.46 317.74C228.79 317.822 228.144 318.04 227.562 318.38C226.979 318.72 226.472 319.175 226.071 319.718C225.67 320.261 225.385 320.88 225.231 321.537C225.078 322.194 225.061 322.876 225.18 323.54C225.18 324.74 225.18 325.96 225.4 327.16C225.4 327.98 225.4 329.7 226.14 329.56C226.88 329.42 226.66 327.94 226.76 327.12C226.908 325.363 226.908 323.597 226.76 321.84C227.82 322.715 228.834 323.643 229.8 324.62C230.34 325.22 231.68 325.52 231.14 326.62C230.6 327.72 230.52 329.78 228.28 330.2C224.923 330.711 221.672 331.771 218.66 333.34C218.18 333.6 217.34 333.9 217.72 334.62C218.1 335.34 218.72 334.76 219.18 334.62C237.494 329.265 256.41 326.241 275.48 325.62C282.021 325.655 288.559 325.307 295.06 324.58C296.449 324.687 297.757 325.274 298.76 326.24C299.299 326.74 299.757 327.32 300.12 327.96C309.64 342.78 312.8 348.56 317.38 351.96C318.96 353.12 317.96 352.86 321.38 367.2C322.145 370.738 323.106 374.23 324.26 377.66C325.358 379.721 327.033 381.417 329.08 382.54C329.5 381.8 329.08 381.42 328.74 380.98C326.42 376.98 326.74 377.38 320.52 354.46C320.08 352.86 320.16 353.88 313.46 343.28C313.08 342.62 313.62 341.68 312.56 330.16C312.339 329.253 312.388 328.3 312.7 327.42C314.3 324.96 314.34 322 315.44 319.42C315.76 318.6 315.76 317.62 316.58 316.84C318.58 325.12 318.1 325.22 320.86 323.56C327.42 319.56 333.94 315.66 340.5 311.72C342.24 310.68 344.18 308.38 345.72 309C347.26 309.62 347.72 312.38 348.44 314.28C358.12 338.12 357.12 337.3 358.78 337.56C355.825 327.835 352.045 318.381 347.48 309.3C346.92 308.16 347 307.7 348.1 307.02C352.46 304.3 357.26 302.22 361.04 298.48C364.68 306.28 369.2 313.56 372.94 321.26C373.417 322.324 374.129 323.265 375.023 324.014C375.917 324.762 376.969 325.298 378.1 325.58C383.72 326.96 384.92 331.58 388.34 341.34C388.64 342.2 388.64 343.34 389.94 343.56V337.56C387.84 331.82 386.34 326 380.88 324.58ZM274.88 263.56C275.018 263.11 275.31 262.722 275.705 262.466C276.1 262.21 276.573 262.102 277.04 262.16C277.574 262.136 278.099 262.298 278.526 262.62C278.953 262.941 279.255 263.401 279.38 263.92C279.782 265.051 279.898 266.264 279.717 267.451C279.535 268.638 279.062 269.761 278.34 270.72C276.591 273.038 274.278 274.87 271.62 276.04C272.436 271.822 273.498 267.654 274.8 263.56H274.88ZM108.88 266.32C108.383 266.659 107.869 266.973 107.34 267.26C106.42 267.7 105.54 269.14 104.68 268.54C103.82 267.94 103.6 266.2 103.16 264.96C102.92 264.3 103.54 264.04 103.9 263.68C105.088 262.326 105.981 260.739 106.52 259.02C106.76 258.4 107.06 257.54 106.4 257.2C104.92 256.48 104.4 260.42 102.4 262.66C100.22 258.38 99.16 257.32 100.82 255.9C101.56 255.155 102.473 254.605 103.478 254.301C104.482 253.996 105.547 253.945 106.576 254.153C107.605 254.362 108.566 254.822 109.373 255.493C110.18 256.165 110.808 257.026 111.2 258C113.44 263.06 113.32 263.44 108.78 266.32H108.88ZM205.96 160.64L205.78 161.2C195.14 161.72 195 162.02 194.86 161.04C194.86 160.58 194.66 159.94 195.18 159.8C198.02 159.04 196.82 156.44 197.56 154.72C197.648 154.225 197.688 153.723 197.68 153.22C200.027 156.082 202.784 158.582 205.86 160.64H205.96ZM195.2 125.5C195.76 125.02 196.08 125.5 196.72 125.96C198.568 127.017 200.171 128.456 201.42 130.18C202.54 132.18 200.28 133.86 199.7 135.74C198.98 138.06 198 140.32 197.1 142.6C197.1 142.6 196.92 142.76 196.6 143.06C195.78 137.62 195.64 132.32 194.36 127.06C194.18 126.38 194.68 126 195.2 125.5ZM194 120.56C194.92 125.9 189.58 121.36 182 125.18C180.798 120.589 179.982 115.906 179.56 111.18C179.56 110.5 179.56 109.98 180.3 109.58C183.079 108.135 186.168 107.387 189.3 107.4C189.862 107.326 190.431 107.478 190.881 107.823C191.331 108.168 191.625 108.678 191.7 109.24C192.56 113.02 193.4 116.78 194 120.56ZM191.12 161.1C191.12 162.26 190.18 161.98 189.52 162.02L180.38 162.52C182.38 159.02 184.38 155.94 186.24 152.84L186.72 152.96C186.94 154.12 187.16 155.24 187.3 156.38C187.84 160.72 191.26 158 191.12 161.1ZM166.9 86.72C168.56 86.04 168.3 87.32 169.68 89.58C170.477 91.1112 171.649 92.416 173.086 93.373C174.523 94.33 176.178 94.9083 177.898 95.0539C179.619 95.1996 181.348 94.908 182.925 94.2062C184.502 93.5045 185.877 92.4153 186.92 91.04C187.3 90.6 187.8 89.4 188.54 90.1C188.94 90.48 188.54 90.64 188.26 90.84C181.8 96 178.46 103.54 173.46 99.66C169.46 96.7 168 92.26 166.12 88.02C165.76 87.24 166.32 86.96 166.9 86.72ZM162.32 88C164.16 87.52 163.56 88.7 166.5 95.38C167.622 98.0448 169.473 100.339 171.84 102C173.039 103.041 174.58 103.602 176.167 103.576C177.754 103.55 179.276 102.939 180.44 101.86C190.12 93.86 188.62 90.32 191.4 90.72C192.96 90.94 192.42 90.92 192.02 103.64C192.02 104.5 191.7 104.84 190.84 104.72C186 104 182 105.86 178 108C177.28 108.4 177.3 109.1 177.34 109.74C177.485 114.379 177.993 119 178.86 123.56C179.32 125.56 179.94 127.78 182.76 127.84C183.52 127.84 183.42 128.6 183.46 129.06C183.88 132.48 184.5 140.24 185.34 144.46C185.538 145.184 185.569 145.944 185.43 146.682C185.291 147.42 184.987 148.117 184.54 148.72C183.16 150.72 181.98 152.72 180.54 154.94C172.88 131.52 167.38 116 161.66 90.64C161.626 90.2418 161.559 89.8472 161.46 89.46C161.2 88.62 161.58 88.2 162.32 88ZM179.46 156.92C178.98 157.86 178.46 158.78 177.88 159.82C173.26 152.06 163.54 141.82 160.58 139.94C159.94 139.52 159.78 139.2 160.22 138.54C162.9 134.54 165.6 130.34 168.72 126.16C177.24 153.64 177.72 155.28 179.4 155.8C180.16 156 179.64 156.56 179.46 156.92ZM151.46 95.46C154.16 93.46 156.72 91.24 159.46 89.02C160.94 95.54 162.32 101.78 163.84 108C167.22 121.72 168.88 122.48 166.14 123.04C162.449 123.894 158.904 125.289 155.62 127.18C154.22 127.94 153.96 127.62 153.78 126.1C152.7 116.94 151.9 107.78 150.28 98.68C150.099 98.088 150.116 97.4531 150.329 96.8718C150.542 96.2905 150.939 95.7948 151.46 95.46ZM144.5 158.1C147.12 156.96 147.44 155.02 145.16 153.3C144.28 152.64 143.16 152.26 144 150.76C144.38 150.02 143.7 149.24 143.22 148.62C139.8 144.06 132.44 144.44 126.78 144.36C128.14 142.72 129.8 142 130.78 140.58C131.76 139.16 132.64 138.26 131.74 136.8C130.84 135.34 129.34 135.68 128 136C124.206 136.712 120.56 138.064 117.22 140C116.7 140.28 116.16 140.9 115.22 140.68C114.931 133.51 116.866 126.427 120.76 120.4C121.902 118.935 122.534 117.137 122.56 115.28C122.579 114.313 122.805 113.361 123.222 112.488C123.64 111.615 124.239 110.842 124.98 110.22C131.96 103.38 137.24 106.72 146.58 99.26C149.48 96.94 148 96.46 151.74 128.48C151.96 130.48 152.86 130.88 154.62 129.98C160.62 126.9 161.06 126.36 166.94 124.88C163.678 129.145 160.692 133.614 158 138.26C157.5 139.16 157.06 140.12 158.24 140.88C163.78 144.46 170.24 153.2 174.76 158.88C175.18 159.38 175.72 159.78 176.14 160.28C176.56 160.78 177.64 160.28 177.24 161.5C177.141 161.918 176.894 162.285 176.544 162.535C176.195 162.785 175.768 162.901 175.34 162.86C172.88 162.86 152.98 163.96 145.48 164.38C144.22 164.38 143.48 164.38 143.9 162.76C144.32 161.14 143.24 160.16 142.12 159.16C142.68 158.34 143.7 158.46 144.5 158.1ZM99.1401 182C98.8326 182.067 98.5142 182.067 98.2069 181.999C97.8996 181.931 97.6106 181.798 97.3598 181.608C97.1089 181.418 96.9022 181.175 96.7538 180.898C96.6054 180.62 96.5188 180.314 96.5001 180C94.3601 172 92.3601 170.68 95.1001 170.54C97.2801 170.54 266.28 161.66 266.88 161.54C268.72 161.18 269.58 161.82 270 163.76C272.54 175.76 274.66 177.02 271.3 177.06C271.06 177.16 105.8 181.7 99.1401 182ZM207.3 267.76C209.3 267.14 210.16 267.62 210.52 269.76C211.3 274.46 212.42 279.06 213.68 283.76C206.4 280.78 201.66 269.46 207.3 267.72V267.76ZM278.94 314.88C279.44 317.02 280.78 318.74 280.42 320.88C280.56 318.48 276.24 318.56 278.94 314.84V314.88ZM229.42 303.48C229.42 302.7 230.06 302.84 230.34 302.78C233.333 302.208 236.359 301.828 239.4 301.64C232.86 303.3 232.6 303.12 232.88 304.06C233.16 305 232.42 303.64 253.48 301.88C254.16 301.88 255.04 301.76 255 300.98C254.96 300.2 254.06 300.2 253.4 300.2H249.4C252.84 299.76 256.18 298.84 259.54 299.9C260.38 300.16 260.36 300.52 260.28 301.28C259.98 303.92 259.6 299.28 233.38 306.2C232.938 306.286 232.483 306.283 232.043 306.19C231.602 306.097 231.185 305.916 230.815 305.659C230.446 305.401 230.132 305.072 229.893 304.691C229.653 304.31 229.492 303.884 229.42 303.44V303.48ZM232.04 308.52C262.04 302.3 245.68 305.84 259.06 303.56C260.28 303.36 260.78 303.76 261.06 304.82C261.48 306.28 262.62 307.98 262.18 309.08C261.74 310.18 259.56 309.7 258.18 309.96C251.08 311.32 244.02 312.86 237.06 314.9C233.78 315.82 236 312.56 232 308.48L232.04 308.52ZM228.16 320C231.02 319.04 233.66 318.16 236.7 317.18C235.16 319.58 233.86 321.6 232.46 323.74L228.16 320ZM237.18 327.84C236.34 328.04 235.68 328.04 235.36 327.22C235.04 326.4 233.36 325.66 234.2 324.16C235.04 322.66 236 321.1 236.88 319.56C237.26 318.9 237.62 318.7 238.2 319.38C240.2 321.66 242.02 323.9 244.2 326.4C241.56 326.92 239.34 327.32 237.18 327.86V327.84ZM238.42 316.66C241.1 316.02 243.6 315.48 246.06 314.8C247.38 314.44 247.54 315.66 248.22 316.14C248.9 316.62 248.52 317.18 248.22 317.7C247.14 319.7 246.06 321.94 244.96 324.1C242.82 321.68 240.72 319.3 238.42 316.68V316.66ZM254.26 324.86C251.84 325.22 249.42 325.52 246.72 325.86C247.9 323.28 248.96 320.98 250.12 318.38C251.72 320.26 253.16 322 254.62 323.7C255.2 324.36 255.16 324.76 254.26 324.88V324.86ZM260.58 321.56C260.454 321.863 260.36 322.178 260.3 322.5C260.08 323.12 260.76 324.06 259.58 324.3C259.155 324.372 258.717 324.318 258.323 324.144C257.928 323.97 257.593 323.683 257.36 323.32C255.5 321.18 253.56 319.06 251.7 316.9C251.509 316.607 251.384 316.276 251.336 315.93C251.287 315.583 251.315 315.231 251.418 314.896C251.521 314.562 251.697 314.255 251.932 313.996C252.168 313.738 252.457 313.534 252.78 313.4C254.06 313.04 255.36 312.86 256.78 312.6C257.7 312.32 258.18 313.36 258.78 313.88C261.4 316 262.74 318.4 260.58 321.58V321.56ZM259.88 312.14C261.615 311.573 263.437 311.322 265.26 311.4C265.26 311.58 265.36 311.66 265.26 311.72C263.46 316 262.86 316 259.88 312.16V312.14ZM262.16 324.14C262.16 323.92 261.98 323.76 262.02 323.7C262.78 322.46 263.08 319.96 264.02 320.1C265.52 320.34 266.54 322.1 267.8 323.82L262.16 324.14ZM274.02 322.14C273.78 323.46 273.12 324 272.02 323.78C270.44 324.06 270.44 323.34 265.56 318.14C265.12 317.68 264.8 317.3 265.12 316.6C265.78 315.1 266.38 313.56 267.12 312.04C268.36 309.16 269.76 313.18 274.86 317.68C275.76 318.4 274.4 320 274 322L274.02 322.14ZM271.12 310.96C274.46 310.62 278.72 310.3 277.12 313.34C276.74 314.08 276.48 314.92 276.12 315.84C274.32 314.297 272.648 312.612 271.12 310.8V310.96ZM281.38 323.14C281.16 323.82 280.22 323.42 279.6 323.52C279.01 323.604 278.416 323.657 277.82 323.68C275.7 323.82 275.82 323.8 276.36 321.68C276.8 320.16 277.24 319.68 278.54 321.06C278.9 321.44 279.88 323.06 280.42 321.06C280.765 321.234 281.045 321.515 281.218 321.861C281.391 322.207 281.447 322.599 281.38 322.98V323.14ZM354 299.54C342.9 306.48 320.38 320.76 320 320.92C319.14 316.42 318.36 312.02 317.5 307.64C317.34 306.84 317.74 306.58 318.28 306.26C329.374 299.726 341.002 294.146 353.04 289.58C354.36 289 355.24 288.96 355.58 290.66C355.72 291.42 356.22 292.12 356.44 292.88C356.909 294.266 357.583 295.574 358.44 296.76C357.091 297.881 355.598 298.816 354 299.54Z" fill="#471280"/>
<path d="M234.14 101.82C226.44 93.68 227.34 90.88 223.66 89.5C220.46 88.3 226.06 87.5 227.78 80.92C227.98 80.24 227.98 79.52 227.22 79.22C226.46 78.92 226.18 79.54 225.94 80.1C224.673 82.5077 223.144 84.7681 221.38 86.84C219.12 89.76 218.84 86.54 209.9 88.96C209.24 89.14 208.44 89.4 208.56 90.16C208.78 91.46 210.72 90.36 213.62 90.44C218.04 90.44 222.68 90.08 225.74 94.44C227.855 97.1748 230.125 99.7857 232.54 102.26C234.467 104.486 237.156 105.912 240.08 106.26C241.624 106.313 243.107 106.878 244.295 107.866C245.483 108.855 246.308 110.211 246.64 111.72C247.075 113.338 247.749 114.881 248.64 116.3C249.04 116.94 249.4 118.1 250.24 117.76C251.08 117.42 250.82 116.3 250.7 115.44C250.705 115.24 250.664 115.042 250.58 114.86C249.76 113.52 250.4 112.62 251.42 111.78C253.42 110.1 255.42 108.34 257.32 106.7C266 99.6 275.84 94.24 285.32 88.46C286.72 87.6 286.08 88.26 295.32 99.1C296.34 100.3 298.14 103.1 298.84 102.94C299.427 102.803 299.997 102.602 300.54 102.34C304.132 100.724 308.073 100.037 312 100.34C316.042 100.583 320.097 100.157 324 99.08C326.46 98.1 326.7 96.22 324.7 94.54C324.4 94.28 323.78 94.22 323.88 93.5C325.916 93.4939 327.94 93.1769 329.88 92.56C330.41 92.4506 330.89 92.1738 331.25 91.7704C331.61 91.3671 331.831 90.8585 331.88 90.32C331.98 88.32 329.5 87.76 326.34 86.54C328.34 85.62 329.82 85.14 329.72 83.6C329.62 82.06 328.32 81.84 321.72 80.32L323.5 79.48C324.52 79.04 325.5 78.5 325.5 77.24C325.5 75.98 324.2 75.68 323.18 75.42C315.08 73.42 308.72 76.46 305.48 77.42C307 75.42 309.02 73.42 307.64 71.42C306.74 70.2 305.38 70.52 304.16 71.02C296.66 74.04 290.44 78.02 286.16 84.84C285.42 86.02 286.16 84.6 277.12 89.74C262.58 97.94 255.52 104 248.96 110.98C248.338 109.112 247.13 107.495 245.516 106.367C243.902 105.24 241.968 104.662 240 104.72C237.753 104.52 235.662 103.486 234.14 101.82ZM288.14 85.82C288.496 85.0919 288.954 84.4184 289.5 83.82C293.307 80.1027 297.649 76.9748 302.38 74.54C303.227 74.0113 304.186 73.6893 305.18 73.6C304.14 76.32 297.18 80.42 299.76 82.24C300.069 82.5186 300.472 82.6695 300.888 82.6621C301.304 82.6547 301.701 82.4895 302 82.2C305.489 79.6296 309.593 78.0225 313.9 77.54C316.052 77.0196 318.304 77.0887 320.42 77.74C317.147 79.0207 313.809 80.1289 310.42 81.06C309.6 81.34 307.9 81.54 308.24 82.86C308.96 85.76 315.72 80.28 326.96 83.64C324.066 84.4626 321.099 84.9986 318.1 85.24C314.24 85.92 311.88 85.46 311.96 87.24C311.96 88.52 313.14 88.5 314.08 88.42C318.65 87.9404 323.269 88.238 327.74 89.3C328.337 89.4084 328.888 89.6941 329.32 90.12C327.379 90.7239 325.352 91.0076 323.32 90.96C316.74 91.38 314.36 90.14 314.12 92.06C313.84 94.46 316.4 92.76 323.36 96.38C321.265 97.0494 319.079 97.3935 316.88 97.4C313.7 97.5 310.5 97.54 307.3 97.4C300.14 97.08 299.72 101.24 297.92 98.26C295.366 94.2051 292.171 90.5915 288.46 87.56C287.6 86.96 287.64 86.56 288 85.84L288.14 85.82Z" fill="#471280"/>
<path d="M143.46 278.9C142.56 279.62 142.24 280.9 141.12 281.22C138.425 282.239 136.15 284.134 134.66 286.6C128.8 294.794 124.508 304.003 122 313.76C119.6 322.8 119.46 331.46 125.36 339.44C127.6 342.44 127.06 345.72 125.92 349.12C125.685 350.192 125.138 351.17 124.348 351.932C123.558 352.694 122.56 353.204 121.48 353.4C112.66 356.004 104.765 361.069 98.7201 368C97.5947 369.171 96.6751 370.523 96.0001 372C95.3318 373.051 95.0887 374.316 95.3201 375.54C97.5606 371.45 100.708 367.926 104.52 365.24C109.751 360.884 115.718 357.497 122.14 355.24C122.88 354.98 124.14 354.02 124.14 356.1C123.923 359.23 124.94 362.32 126.974 364.709C129.008 367.097 131.896 368.595 135.02 368.88C135.98 369.02 136.84 369.06 137.48 367.96C132.48 365.68 127.74 364.42 126.58 358.44C126.028 356.014 126.274 353.475 127.28 351.2C128.393 348.803 128.796 346.137 128.441 343.518C128.087 340.898 126.99 338.435 125.28 336.42C124.925 335.86 124.604 335.279 124.32 334.68C122.266 330.98 121.559 326.683 122.32 322.52C124.44 309.958 129.324 298.024 136.62 287.58C137.91 285.502 139.78 283.847 142 282.82C142.74 282.58 144.8 283.62 143.18 281.38C142.86 280.96 143.54 280.82 143.82 280.64C152.2 275.08 161.14 276.42 165.46 275.58C169.32 274.84 165.46 274.22 161.76 274.14C155.22 274 148.86 274.54 143.46 278.9Z" fill="#471280"/>
<path d="M140.96 73.86C144.84 76.8 146.48 76.1 151.36 76.62C151.834 76.5923 152.307 76.6883 152.733 76.8985C153.159 77.1088 153.523 77.4261 153.789 77.8194C154.055 78.2126 154.215 78.6683 154.252 79.1418C154.289 79.6152 154.202 80.0901 154 80.52C153.64 81.9557 152.746 83.2001 151.5 84C151.317 84.1444 151.183 84.3425 151.118 84.5666C151.052 84.7907 151.059 85.0297 151.136 85.25C151.213 85.4704 151.357 85.6611 151.548 85.7956C151.738 85.93 151.967 86.0015 152.2 86C154.442 85.4265 156.721 85.0055 159.02 84.74C158.736 84.4664 158.395 84.2583 158.022 84.1304C157.649 84.0026 157.252 83.9581 156.86 84C154.7 84.12 155.86 82.78 156.32 81.08C157.32 77.08 154.2 74.52 150.14 74.46C148.614 74.4766 147.091 74.3223 145.6 74C144.329 73.7972 143.128 73.2847 142.103 72.5079C141.077 71.7311 140.258 70.7138 139.719 69.5457C139.179 68.3777 138.935 67.0948 139.009 65.8102C139.082 64.5256 139.471 63.2789 140.14 62.18C140.648 61.0647 141.272 60.0056 142 59.02C143.436 57.3482 144.413 55.3314 144.834 53.1678C145.255 51.0042 145.105 48.7683 144.4 46.68C143.709 44.371 143.666 41.9165 144.276 39.5848C144.887 37.2532 146.126 35.1343 147.86 33.46C149.048 31.7602 150.644 30.385 152.5 29.46C153.89 28.9199 155.413 28.8221 156.86 29.18C158.261 29.5387 159.741 29.4232 161.069 28.8515C162.397 28.2797 163.498 27.284 164.2 26.02C166.78 22.16 168.42 18.7 174.68 16.48C180.05 14.6414 185.775 14.0799 191.4 14.84C203.72 16.34 205.28 20.24 206.92 20.84C207.38 21.02 207.88 21.6 208.32 21.06C208.76 20.52 208.46 19.92 208.04 19.46C204.34 15.46 202.04 13.24 192.42 12.22C180.82 10.94 170.58 13.34 163.42 23.52C162.827 24.6067 161.883 25.4599 160.742 25.9395C159.601 26.4192 158.331 26.4969 157.14 26.16C155.346 25.7238 153.464 25.8165 151.721 26.427C149.978 27.0374 148.45 28.1395 147.32 29.6C134.08 44.24 148.7 47.82 141.32 57.6C140.257 59.0443 139.307 60.5689 138.48 62.16C137.862 63.087 137.435 64.1283 137.225 65.2225C137.015 66.3168 137.026 67.4421 137.257 68.5321C137.488 69.6222 137.934 70.655 138.57 71.57C139.206 72.4849 140.019 73.2635 140.96 73.86Z" fill="#471280"/>
<path d="M213.08 374.68C211.3 371.653 209.295 368.765 207.08 366.04C201.82 359.62 200.8 360.04 201.54 358.42C204.678 351.726 205.419 344.156 203.64 336.98C202.447 332.047 202.832 326.863 204.74 322.16C207.22 315.74 208.06 311.98 204.5 300.88C200.72 289.16 193.8 280.32 181.86 276.08C181.114 275.831 180.352 275.631 179.58 275.48C179.408 275.431 179.224 275.449 179.065 275.531C178.906 275.613 178.785 275.753 178.726 275.922C178.667 276.091 178.675 276.276 178.748 276.44C178.822 276.603 178.955 276.732 179.12 276.8C182.26 278.94 198.08 282.8 204.76 307.12C206.08 311.88 206.42 315.02 202.2 324.14C197.74 333.8 203.2 338.94 200.98 350.14C198.56 362.46 189.5 368.76 187.26 372.64C187.04 373.04 186.62 373.5 186.98 373.9C187.34 374.3 187.96 374.06 188.42 373.78C192.389 370.862 195.89 367.355 198.8 363.38C200.38 361.08 200.4 361.04 202.08 363.38C206.181 368.615 209.923 374.12 213.28 379.86C213.48 380.22 213.56 380.88 214.18 380.72C214.8 380.56 214.56 379.96 214.58 379.52C214.589 377.791 214.065 376.101 213.08 374.68Z" fill="#471280"/>
<path d="M341.38 254.22C342.02 253.94 341.7 253.32 341.54 252.84C340.407 248.95 338.914 245.173 337.08 241.56C332.955 233.82 327.89 226.619 322 220.12C320.92 218.94 320.92 218.58 322.56 218.12C328.92 216.7 335.3 215.44 341.74 214.58C345.827 214.18 349.95 214.798 353.74 216.38C357.018 217.883 360.079 219.82 362.84 222.14C370.543 227.387 376.157 235.174 378.7 244.14C381.08 252.14 380.56 259.52 376.02 266.54C368.9 277.64 364.02 280.22 362.74 283.74C364.216 283.465 365.594 282.81 366.74 281.84C372.625 277.058 377.207 270.866 380.06 263.84C384.42 253.66 379.2 242.42 376.68 234.88C375.842 232.688 374.631 230.658 373.1 228.88C367.72 222 360.5 217.9 352.52 214.88C349.065 213.323 345.282 212.636 341.5 212.88C334.66 213.62 323.2 214.88 317 217.86C316.46 218.1 315.72 218.28 315.94 219.06C316.16 219.84 316.86 219.76 317.44 219.56C319.26 219 319.92 219.96 323.8 224.9C339.14 244.38 339.2 255.06 341.38 254.22Z" fill="#471280"/>
<path d="M219.8 27.72C225.454 29.8576 230.129 33.9928 232.941 39.3439C235.753 44.695 236.507 50.8909 235.06 56.76C231.72 69.84 243.44 66.76 240.64 76.76C238.98 82.62 236.2 87.34 229.5 88.3C229.308 88.332 229.12 88.3857 228.94 88.46C228.36 88.64 227.62 88.7 227.62 89.44C227.62 90.18 228.36 90.12 228.82 90.3C237.56 93.6 245.52 80.3 244.04 72.7C243.653 71.2502 242.982 69.8918 242.065 68.7038C241.148 67.5158 240.004 66.5219 238.7 65.78C237.522 65.0807 236.636 63.9789 236.206 62.6777C235.776 61.3766 235.83 59.9639 236.36 58.7C238.128 53.576 238.337 48.0427 236.96 42.8C234 29.58 222 24 213.74 23.52C213.16 23.52 212.26 23.12 212.06 24.06C211.74 25.54 213.46 25.2 219.8 27.72Z" fill="#471280"/>
<path d="M294.22 104C287.84 110.42 280.8 116.14 274.22 122.4C267.64 128.66 262.22 135.56 256.4 142.28C255.9 142.84 255.06 143.7 255.74 144.28C256.42 144.86 257.14 143.96 257.74 143.5C266.42 136.28 265.6 134.04 280.86 119.86C286.139 115.295 291.135 110.412 295.82 105.24C298 102.76 296.22 102 294.22 104Z" fill="#471280"/>
<path d="M189.52 47.54C189.791 47.3367 190.087 47.1687 190.4 47.04C191.08 47.82 192.22 48.84 192.84 48.4C193.46 47.96 193.2 46.64 192.72 45.76C193.172 45.0684 193.773 44.4873 194.48 44.06C197.741 41.9478 200.308 38.9219 201.86 35.36C202.02 34.88 202.26 34.22 201.7 33.92C201.14 33.62 200.82 34.34 200.56 34.74C197.876 38.3728 194.42 41.3648 190.44 43.5C189.78 42.9 188.08 41.28 183.16 41.62C178.8 42 176 46.12 177.42 47.04C178.84 47.96 178.26 43.32 185.14 43.92C186.263 43.9023 187.355 44.2852 188.22 45C187.538 45.7259 186.741 46.3341 185.86 46.8C174.9 53.22 168.26 49.18 165.64 48.8C164.52 48.62 163.88 49.46 165.12 50.14C172.38 54 179.46 54.36 189.52 47.54Z" fill="#471280"/>
<path d="M342.72 260.38C342.48 260.96 342.36 261.56 343.06 261.94C343.76 262.32 343.82 261.64 344.08 261.34C345.055 260.146 346.338 259.24 347.791 258.722C349.243 258.204 350.809 258.093 352.32 258.4C354.7 258.86 355.72 260.56 355.18 263.36C354.739 265.485 353.926 267.516 352.78 269.36C350.1 273.72 348.08 274.6 343.08 273.52C340.88 273.04 341.08 275.36 342.16 275.52C344.76 276 343.44 277.96 343.76 280.76C343.86 281.66 343.96 282.9 345.1 282.76C346.24 282.62 345.52 279.34 345.74 277.92C345.96 276.5 346.58 275.7 348.7 275.56C349.474 275.362 350.17 274.937 350.7 274.34C354.383 271.106 356.706 266.597 357.2 261.72C357.375 260.417 357.04 259.096 356.265 258.034C355.49 256.972 354.335 256.251 353.04 256.02C351.316 255.621 349.524 255.621 347.8 256.02C348.08 254.16 348.34 252.52 348.56 250.9C348.587 250.803 348.592 250.701 348.577 250.601C348.562 250.501 348.525 250.406 348.471 250.321C348.416 250.236 348.344 250.163 348.259 250.108C348.175 250.053 348.08 250.016 347.98 250C347.46 250 347.36 250.3 347.26 250.72C346.1 255.14 347.68 255.98 345.9 256.96C344.478 257.7 343.355 258.908 342.72 260.38Z" fill="#471280"/>
<path d="M190.76 85.2C191.922 86.0535 193.372 86.4184 194.8 86.2166C196.228 86.0147 197.52 85.2622 198.4 84.12C199.153 83.1112 199.975 82.1556 200.86 81.26C202.24 79.78 202.2 79.66 200.38 78.9C197 77.5 193.34 76.9 190.04 75.32C188.934 74.7246 187.738 74.3126 186.5 74.1C184.5 73.84 183.64 74.86 184.28 76.66C185.333 80.1983 187.636 83.2334 190.76 85.2ZM197.46 80.4C198.04 80.54 198.28 80.8 197.9 81.52C197.697 82.0421 197.375 82.5095 196.959 82.8851C196.544 83.2608 196.046 83.5342 195.506 83.6838C194.966 83.8333 194.399 83.8548 193.849 83.7465C193.3 83.6382 192.783 83.4031 192.34 83.06C189.909 81.6188 188.083 79.345 187.2 76.66C190.516 78.1753 193.947 79.4259 197.46 80.4Z" fill="#471280"/>
<path d="M165.88 64C166.24 63.64 166 63.28 165.88 62.9C163.24 57.8 159.26 52.9 155.02 56.9C153.602 58.1012 152.542 59.6698 151.956 61.4338C151.37 63.1978 151.282 65.089 151.7 66.9C152.084 68.4425 152.869 69.856 153.976 70.9975C155.082 72.139 156.47 72.9678 158 73.4C159.575 74.0511 161.345 74.0511 162.92 73.4C161.553 72.862 160.218 72.2477 158.92 71.56C154.92 69.12 153.42 66.18 154.52 62.32C154.683 61.4062 155.087 60.5529 155.693 59.8492C156.298 59.1456 157.081 58.6174 157.96 58.32C159.66 57.88 160.54 59.64 161.6 60.66C162.66 61.68 164.84 65.12 165.88 64Z" fill="#471280"/>
<path d="M41.22 337.7C39.22 337.46 35.92 340.6 34.7 342.2C28.3543 350.554 23.3912 359.872 20 369.8C20 370.56 20 371.18 20.66 371.28C21.32 371.38 21.22 370.72 21.4 370.32C24.46 363.84 34.6 341.56 41.4 338.98C41.76 338.84 42.28 338.98 42.16 338.36C42.04 337.74 41.64 337.76 41.22 337.7Z" fill="#471280"/>
<path d="M205.14 33.68C205.14 32.54 203.94 32.56 203.84 33.68C202.94 42.76 223.2 44.56 222.34 55.46C222.095 58.1832 221.377 60.8429 220.22 63.32C220.04 63.68 219.42 64.08 219.94 64.52C220.46 64.96 220.94 64.38 221.28 64.06C223.391 61.4454 224.492 58.1587 224.38 54.8C224.8 47.34 216.06 43.84 208.9 38.92C207 37.66 205.12 36.34 205.14 33.68Z" fill="#471280"/>
<path d="M218 335.44C217.28 335.18 216.98 335.86 216.62 336.54C212.031 343.969 209.091 352.297 208 360.96C207.847 361.73 207.895 362.528 208.14 363.274C208.386 364.02 208.82 364.691 209.4 365.22C209.28 356.12 214.4 344.9 217.76 337.22C218 336.66 218.74 335.82 218 335.44Z" fill="#471280"/>
<path d="M310.32 230.84C310.1 231.2 309.66 231.6 310.12 232.08C310.58 232.56 310.7 232.22 311.06 231.92C317.06 226.88 322.08 232.22 322.9 240.38C323.4 245.46 323.28 246.38 324.08 246.38C324.88 246.38 325.04 244.84 325.26 241.46C325.26 240.6 325.26 239.74 325.1 238.88C324.48 234.74 323.1 230.88 319.1 228.88C317.626 228.19 315.964 228.008 314.376 228.362C312.787 228.717 311.361 229.588 310.32 230.84Z" fill="#471280"/>
<path d="M344.66 254.66C344.56 247 341.02 240.5 337.24 234.12C337.09 233.906 336.923 233.706 336.74 233.52C336.4 233.12 335.96 232.92 335.52 233.22C334.6 233.8 335.9 234.9 337.24 237.56C344.4 251.72 341.92 257.08 343.92 256.98C345.16 256.98 344.48 255.64 344.66 254.88C344.67 254.807 344.67 254.733 344.66 254.66Z" fill="#471280"/>
<path d="M375.02 332.56C368.8 334.12 352.58 343.22 349.4 345.84C349.04 346.16 348.72 346.54 349.2 347.02C350 347.78 349.34 345.94 375.2 333.76C375.54 333.58 376 333.64 376.04 333.04C376.08 332.44 375.4 332.48 375.02 332.56Z" fill="#471280"/>
<path d="M367.46 353.86C366.04 353.68 366.4 355.86 364.26 357.86C359.527 362.511 354.554 366.91 349.36 371.04C348.96 371.4 348.24 371.84 348.82 372.48C349.4 373.12 349.78 372.48 350.2 372.2C354.56 368.72 363.38 362.2 367.08 356.58C367.553 356.008 367.858 355.315 367.96 354.58C368 354.24 367.88 354 367.46 353.86Z" fill="#471280"/>
<path d="M86.0001 327.7C83.5401 327.36 81.0801 327.08 78.6201 326.8C69.8401 325.82 60.7601 324.8 52.2401 321.56C52.1233 321.513 51.9929 321.515 51.8769 321.563C51.761 321.612 51.6688 321.704 51.6201 321.82C51.5648 321.934 51.5569 322.065 51.5981 322.185C51.6393 322.305 51.7263 322.404 51.8401 322.46C62.0001 327.62 72.7201 328.68 85.6601 328.68H86.0001C86.126 328.68 86.2475 328.633 86.3402 328.548C86.4329 328.463 86.49 328.346 86.5001 328.22C86.5058 328.152 86.497 328.083 86.4742 328.019C86.4514 327.955 86.4151 327.896 86.3678 327.847C86.3205 327.798 86.2632 327.759 86.1998 327.734C86.1364 327.708 86.0683 327.697 86.0001 327.7Z" fill="#471280"/>
<path d="M183.62 61.28C185.18 61.52 185.62 60.2 185.96 59.08C186.601 56.9837 186.799 54.7768 186.54 52.6C186.36 51.3 185.84 50.94 184.72 51.8C183.789 52.5277 183.053 53.475 182.578 54.5571C182.104 55.6392 181.905 56.8222 182 58C182 59.5 182 61.04 183.62 61.28Z" fill="#471280"/>
<path d="M205.6 72.5C205.553 71.5066 205.259 70.5406 204.746 69.6888C204.233 68.837 203.516 68.1261 202.66 67.62C202.18 67.5 201.68 67.46 201.4 67.9C201.12 68.34 201.52 68.78 201.96 69.1C202.408 69.4395 202.77 69.878 203.02 70.3811C203.27 70.8842 203.4 71.4383 203.4 72C203.52 75.02 201.4 74.64 198.6 73.68C198.08 73.52 197.54 73.18 197.18 73.68C196.82 74.18 197.36 74.56 197.6 74.94C198.189 75.7085 199 76.2766 199.924 76.5665C200.847 76.8565 201.838 76.8542 202.76 76.56C203.599 76.2665 204.325 75.7166 204.835 74.988C205.344 74.2594 205.612 73.3891 205.6 72.5Z" fill="#471280"/>
<path d="M310.8 266.14C306.6 268.8 303.7 272.14 301.8 268.44C301.54 267.94 301.42 267.34 300.76 267.54C300.1 267.74 300.1 268.44 300.16 269.02C300.358 269.762 300.742 270.441 301.275 270.994C301.808 271.547 302.474 271.954 303.208 272.178C303.943 272.402 304.722 272.436 305.473 272.275C306.224 272.114 306.922 271.765 307.5 271.26C309.177 270.178 310.663 268.826 311.9 267.26C312.28 266.78 313.22 266.26 312.74 265.68C312.26 265.1 311.38 265.8 310.8 266.14Z" fill="#471280"/>
<path d="M215.14 52.58C215.342 53.3373 215.502 54.1051 215.62 54.88C215.62 55.08 215.74 57 216.96 55.1C217.473 54.1141 217.656 52.9898 217.484 51.8921C217.311 50.7943 216.791 49.7807 216 49C215.111 48.1011 213.922 47.5613 212.66 47.4838C211.398 47.4063 210.152 47.7966 209.16 48.58C208.48 49.28 208 50.1 208.66 51.06C208.94 51.48 209.18 51.72 209.72 51.06C211.76 48.96 214.32 49.64 215.14 52.58Z" fill="#471280"/>
<path d="M188.16 358.18C187.72 356.7 186.64 358.3 186.4 359.38C185.643 364.114 183.094 368.375 179.28 371.28C179.753 371.314 180.227 371.314 180.7 371.28C185.3 370.18 189.54 362.72 188.16 358.18Z" fill="#471280"/>
<path d="M355.72 281.36C353.529 281.237 351.33 281.398 349.18 281.84C348.36 282.02 347.18 282.04 347.36 283.22C347.54 284.4 348.6 284.16 349.36 284.1C350.88 284 358.3 283.48 360.48 283.28C360.86 283.28 361.52 283.28 361.54 282.64C361.56 282 361 281.98 360.56 281.84C358.984 281.417 357.349 281.255 355.72 281.36Z" fill="#471280"/>
<path d="M311.66 247.82C312.72 245.5 314.3 243.22 312.66 240.48C312.44 240.08 312.48 239.58 311.86 239.54C311.663 239.544 311.472 239.604 311.308 239.714C311.145 239.824 311.017 239.979 310.94 240.16C309.899 242.258 309.113 244.474 308.6 246.76C308.6 247.68 308.84 248.38 309.64 248.76C309.834 248.839 310.042 248.877 310.251 248.872C310.46 248.867 310.665 248.819 310.855 248.731C311.045 248.642 311.214 248.516 311.353 248.359C311.491 248.203 311.596 248.019 311.66 247.82Z" fill="#471280"/>
<path d="M211.72 59.42C210.32 59.06 209.56 60.14 209 61.24C208.451 62.5023 208.165 63.8634 208.16 65.24C208.16 66.12 208.28 67.02 209.3 67.24C210.32 67.46 210.92 66.9 211.44 66.18C212.317 64.8388 212.693 63.231 212.5 61.64C212.3 61.08 213.12 59.76 211.72 59.42Z" fill="#471280"/>
<path d="M367.84 271.24C368.2 270.6 369.14 269.92 368.04 269.24C366.94 268.56 366.58 269.54 366.04 270.16C364.98 271.64 364.62 272.6 360.8 280.62C363.14 280.46 363.36 279.28 367.84 271.24Z" fill="#471280"/>
<path d="M136.54 357.7C136.38 357.16 136.94 356.16 135.84 356.2C134.74 356.24 134.86 357.12 134.86 357.86C134.86 362.68 142.04 368.54 144.72 366.22C140.1 365.14 137.88 361.86 136.54 357.7Z" fill="#471280"/>
<path d="M159.82 66C159.729 66.0368 159.647 66.091 159.577 66.1597C159.508 66.2283 159.452 66.31 159.414 66.4001C159.376 66.4902 159.356 66.5868 159.355 66.6846C159.355 66.7824 159.373 66.8794 159.41 66.97C159.447 67.0606 159.501 67.1431 159.57 67.2127C159.638 67.2824 159.72 67.3378 159.81 67.3759C159.9 67.414 159.997 67.4339 160.095 67.4346C160.192 67.4353 160.289 67.4168 160.38 67.38C161.62 67.06 162.82 66.74 163.76 68.02C163.803 68.0706 163.857 68.1113 163.917 68.1392C163.978 68.1671 164.043 68.1815 164.11 68.1815C164.177 68.1815 164.242 68.1671 164.303 68.1392C164.363 68.1113 164.417 68.0706 164.46 68.02C165.8 66.56 160.46 61.44 158.46 61.46C157.76 61.46 157.1 61.6 156.98 62.44C156.86 63.28 157.58 63.28 158.18 63.3C158.773 63.3993 159.315 63.6952 159.72 64.14C160.3 64.78 161.58 65.34 159.82 66Z" fill="#471280"/>
<path d="M368.64 366C368.573 365.91 368.477 365.845 368.368 365.816C368.259 365.787 368.144 365.795 368.04 365.84C363.329 367.79 358.996 370.551 355.24 374C355.165 374.09 355.124 374.203 355.124 374.32C355.124 374.437 355.165 374.55 355.24 374.64C355.288 374.707 355.351 374.762 355.424 374.801C355.497 374.839 355.578 374.859 355.66 374.86C355.732 374.881 355.808 374.881 355.88 374.86L357.62 374C361.731 372.281 365.483 369.804 368.68 366.7C368.762 366.599 368.803 366.472 368.796 366.342C368.788 366.213 368.733 366.091 368.64 366Z" fill="#471280"/>
<path d="M167.68 58.84C168.36 58.6 169.68 58.84 169.68 57.74C169.68 57.02 169.06 56.88 168.44 56.76C165.64 56.2 164.68 54.92 164.06 55.9C163.931 56.1334 163.887 56.4039 163.934 56.6662C163.982 56.9284 164.118 57.1664 164.32 57.34C164.751 57.8023 165.271 58.1732 165.848 58.4309C166.425 58.6886 167.048 58.8277 167.68 58.84Z" fill="#471280"/>
<path d="M254.76 118.58C254.38 116.58 256.06 116.84 256.48 118.12C256.883 119.358 257.132 120.641 257.22 121.94C257.34 123.34 255.66 123.08 255.56 122.24C255.46 121.4 254.96 119.64 254.76 118.58Z" fill="#471280"/>
</svg>
