<svg width="400" height="400" viewBox="0 0 400 400" fill="none" xmlns="http://www.w3.org/2000/svg">
<path d="M174.184 245.2C173.958 244.192 173.965 243.146 174.204 242.142C176.068 233.892 175.786 221.718 177.648 211.82C179.51 201.922 185.648 203.036 192.434 200.664C196.766 199.144 200.82 196.808 205.434 194.664C208.182 193.351 211.028 192.251 213.944 191.372C222.584 188.828 244.272 197.972 254.776 199.654C257.258 200.048 259.704 200.644 262.09 201.434L262.138 201.29C262.138 201.29 310.042 168.454 322.566 159.462C335.09 150.47 360.8 132.212 360.8 132.212L390.082 199.652C390.082 199.652 332.59 237.652 324.082 245.144C315.574 252.636 296.862 262.158 296.862 262.158L296.71 262.122C295.568 267.354 291.768 273.322 281.292 279.238L280.66 279.458C278.926 275.468 276.734 271.696 274.128 268.214C263.68 248.994 221.068 220.514 217.384 221.126C213.7 221.738 203.526 223.078 203.526 223.078C202.778 225.326 199.65 226.584 199.65 226.584H199.382C199.433 233.384 197.097 239.986 192.782 245.24C185.966 253.84 175.586 251.4 174.184 245.2Z" fill="#FFE8BB"/>
<path d="M292.706 76.0238C293.376 79.09 293.634 82.2316 293.476 85.3658C293.444 85.9144 293.296 86.45 293.042 86.9378C292.79 87.4256 292.436 87.8544 292.006 88.1968C291.576 88.539 291.08 88.7868 290.548 88.9242C290.014 89.0616 289.46 89.0852 288.918 88.9938L274.682 86.6438C273.81 86.5042 273.01 86.0716 272.418 85.4172C271.824 84.7628 271.47 83.9258 271.416 83.0438C271.36 80.701 270.514 78.4458 269.016 76.6438C268.404 75.9328 267.718 75.2898 266.968 74.7258L262.872 99.5478L268.722 103.088C276.77 107.832 281.942 113.336 284.236 119.6C286.53 125.857 287.14 132.607 286 139.174C285.278 143.797 283.638 148.23 281.174 152.208C278.826 155.998 275.796 159.32 272.238 162.008C268.638 164.703 264.522 166.633 260.148 167.678C257.308 168.374 254.39 168.696 251.466 168.634L249.506 180.52C249.398 181.178 249.16 181.809 248.808 182.376C248.454 182.942 247.994 183.434 247.452 183.823C246.908 184.211 246.294 184.489 245.644 184.64C244.994 184.792 244.322 184.814 243.662 184.705C243.004 184.596 242.374 184.359 241.808 184.006C241.24 183.653 240.748 183.193 240.36 182.65C239.972 182.108 239.694 181.494 239.542 180.844C239.392 180.194 239.37 179.52 239.478 178.862L241.416 167.122C234.424 165.264 228.24 161.145 223.832 155.408C221.686 152.698 220.004 149.651 218.856 146.39C218.504 145.42 218.188 144.424 217.914 143.39C217.196 140.7 216.814 137.932 216.772 135.148C216.752 134.243 216.93 133.346 217.296 132.518C217.662 131.691 218.204 130.954 218.888 130.36C219.57 129.766 220.374 129.33 221.246 129.083C222.116 128.835 223.03 128.782 223.922 128.928L229.936 129.928L234.204 130.63C235.468 130.843 236.634 131.445 237.54 132.352C238.446 133.259 239.046 134.426 239.258 135.69C239.556 137.44 240.064 139.147 240.77 140.776C241.61 142.7 243.136 144.241 245.052 145.1L249.672 117.1L244.566 114.2C238.232 110.747 233.006 105.574 229.486 99.2778C226.174 92.9514 225.12 85.6848 226.496 78.6778C227.218 74.0448 228.9 69.6134 231.43 65.6658C233.84 61.9066 236.982 58.671 240.67 56.1518C244.192 53.6316 248.202 51.8778 252.444 51.0038C255.156 50.4378 257.926 50.1956 260.694 50.2818L262.418 39.8278C262.638 38.4978 263.376 37.3094 264.472 36.5242C265.014 36.1354 265.628 35.8574 266.278 35.7058C266.928 35.5542 267.602 35.5322 268.26 35.6408C268.92 35.7496 269.55 35.987 270.118 36.3394C270.684 36.692 271.176 37.1526 271.564 37.6952C271.954 38.2378 272.232 38.8516 272.384 39.5018C272.534 40.1518 272.556 40.8254 272.448 41.4838L270.73 51.9118C273.48 52.7362 276.11 53.9198 278.552 55.4318C282.18 57.6586 285.294 60.6294 287.688 64.1478C290.104 67.7492 291.808 71.7808 292.706 76.0238ZM264.2 136.04C264.758 133.141 264.354 130.139 263.052 127.49C262.052 125.672 260.676 124.088 259.016 122.842L255.182 146.062C256.424 145.713 257.616 145.205 258.728 144.55C260.234 143.649 261.512 142.413 262.462 140.936C263.41 139.46 264.006 137.784 264.2 136.04ZM253.51 93.7998L257.05 72.3598C255.374 72.649 253.808 73.388 252.52 74.4978C250.226 76.4108 248.708 79.0944 248.252 82.0458C247.906 84.2196 248.096 86.445 248.808 88.5278C249.79 90.7314 251.432 92.5742 253.51 93.7998Z" fill="#55DEFF"/>
<path d="M174.184 245.2C175.584 251.4 185.966 253.834 192.772 245.242C197.087 239.988 199.423 233.386 199.372 226.586H199.64C199.64 226.586 202.768 225.328 203.516 223.08C203.516 223.08 213.682 221.74 217.374 221.128C221.066 220.516 263.67 248.996 274.118 268.216C276.724 271.698 278.916 275.47 280.65 279.46C281.784 282.39 282.216 285.18 280.85 286.796C276.14 292.396 270.38 290.748 266.338 286.094C266.138 285.868 265.938 285.626 265.738 285.38C261.674 280.19 251.246 267.52 251.246 267.52L242.544 262.12C244.574 264.02 246.48 266.046 248.25 268.19C250.58 271.366 259.744 280.722 263.86 287.136C264.918 288.524 265.614 290.154 265.882 291.878C265.796 293.138 265.41 294.362 264.756 295.444C264.104 296.526 263.202 297.436 262.128 298.102C261.052 298.766 259.834 299.164 258.574 299.264C257.314 299.366 256.048 299.164 254.882 298.678C254.738 298.618 254.598 298.544 254.468 298.458C250.984 296.3 233.834 280.916 231.172 278.408C230.64 277.42 229.908 276.552 229.022 275.864C228.486 275.432 227.916 275.046 227.316 274.71L227.29 274.688C222.78 272.124 217.844 273.088 213.582 276.42C208.88 280.112 210.942 277.932 208.908 280.05C208.734 278.384 208.022 276.822 206.88 275.596C202.666 270.866 196.954 270.632 191.578 273.526C187.429 275.91 183.426 278.542 179.59 281.404L163.944 282.902L163.808 282.876C164.191 280.092 163.587 277.262 162.102 274.876C158.702 269.748 153.6 270.276 150.912 270.436C150.471 270.466 150.035 270.544 149.612 270.67L149.578 270.436C147.495 269.41 145.477 268.258 143.536 266.984C140.992 265.396 138.23 263.568 136.022 262.084C133.59 260.448 131.844 259.238 131.844 259.238C132.008 239.404 133.452 219.604 136.166 199.956L139.694 201.324C145.412 203.544 156.218 207.724 157.6 208.212C158.261 208.56 158.997 208.742 159.745 208.742C160.492 208.742 161.229 208.56 161.89 208.212C163.848 207.47 186.876 195.344 191.53 194.238C196.184 193.132 205.422 194.656 205.422 194.656C200.802 196.808 196.748 199.144 192.422 200.656C185.644 203.028 179.492 201.906 177.636 211.812C175.78 221.718 176.056 233.884 174.192 242.134C173.955 243.142 173.953 244.19 174.184 245.2Z" fill="#FFE8BB"/>
<path d="M265.76 285.378C265.96 285.624 266.16 285.866 266.36 286.092C266.36 286.092 263.94 287.212 263.892 287.138C259.776 280.724 250.612 271.368 248.282 268.192C246.512 266.05 244.606 264.022 242.576 262.122L251.278 267.522C251.278 267.522 261.696 280.188 265.76 285.378Z" fill="#FFE8BB"/>
<path d="M254.492 298.458L254.018 299.152C253.84 300.086 253.446 300.964 252.87 301.718C252.292 302.474 251.546 303.082 250.692 303.498C249.478 304.26 248.12 304.762 246.702 304.974C245.284 305.184 243.838 305.098 242.456 304.72C241.216 304.12 240.02 303.432 238.876 302.666L237.046 302.466C237.97 301.612 238.788 300.648 239.48 299.598C242.08 295.214 241.99 292.498 239.122 290.216C238.044 289.196 236.718 288.478 235.276 288.132C233.832 287.786 232.324 287.824 230.902 288.244L230.598 288.058C230.752 287.802 230.886 287.534 230.998 287.258C231.682 285.89 232.056 284.388 232.09 282.86C232.124 281.332 231.82 279.814 231.198 278.418C233.858 280.916 251 296.3 254.492 298.458Z" fill="#FFE8BB"/>
<path d="M242.456 304.72C240.022 307.736 236.694 309.902 232.95 310.908C232.162 311.192 231.322 311.3 230.488 311.228C229.652 311.154 228.844 310.9 228.118 310.482L227.182 310.468C230.638 308.016 233.934 305.344 237.046 302.468L238.876 302.668C240.02 303.434 241.216 304.12 242.456 304.72Z" fill="#FFE8BB"/>
<path d="M239.122 290.2C241.99 292.482 242.072 295.2 239.48 299.582C238.788 300.632 237.97 301.596 237.046 302.45C233.934 305.326 230.638 307.998 227.182 310.45C226.034 311.282 225.3 311.79 225.3 311.79C213.984 318.438 208.966 319.914 204.918 318.01C203.664 317.51 202.54 316.73 201.628 315.734C200.718 314.736 200.044 313.544 199.66 312.25L199.46 311.796C204.002 309.806 208.404 307.508 212.632 304.916C212.632 304.916 227.432 293.402 230.592 288.034L230.896 288.22C232.32 287.8 233.83 287.762 235.274 288.11C236.718 288.458 238.044 289.178 239.122 290.2Z" fill="#FFE8BB"/>
<path d="M231.2 278.4C231.822 279.796 232.126 281.314 232.092 282.842C232.058 284.372 231.684 285.872 231 287.24C230.888 287.516 230.754 287.784 230.6 288.04C227.438 293.408 212.64 304.922 212.64 304.922C208.412 307.514 204.01 309.812 199.468 311.802C190.068 315.714 187.88 313.402 184.504 311.816C181.287 310.118 178.871 307.216 177.782 303.746V303.65C180.577 303.44 183.306 302.694 185.818 301.45C185.818 301.45 204.158 291.65 206.914 287.132C208.35 285.054 209.062 282.562 208.942 280.038C210.976 277.92 208.914 280.1 213.616 276.408C217.878 273.074 222.816 272.112 227.324 274.676L227.35 274.698C227.95 275.034 228.52 275.42 229.056 275.852C229.94 276.542 230.672 277.41 231.2 278.4Z" fill="#FFE8BB"/>
<path d="M179.6 281.4C183.441 278.538 187.448 275.908 191.6 273.522C196.976 270.628 202.688 270.862 206.902 275.592C208.044 276.818 208.756 278.38 208.93 280.046C209.05 282.568 208.338 285.062 206.902 287.14C204.146 291.656 185.806 301.458 185.806 301.458C183.294 302.702 180.565 303.448 177.77 303.658C172.456 303.834 167.151 303.09 162.09 301.458C156.572 300.028 153.938 289.704 153.938 289.704C156.051 289.36 158.108 288.736 160.056 287.848C161.052 287.402 161.919 286.712 162.577 285.842C163.236 284.972 163.665 283.952 163.824 282.872L163.96 282.898L179.6 281.4Z" fill="#FFE8BB"/>
<path d="M202.884 30.476L204.182 36.76L126.83 52.7L147.802 154.484L141.512 155.776L140.214 149.486L119.248 47.71L196.594 31.77L202.884 30.476Z" fill="#55DEFF"/>
<path d="M196.594 31.77L119.248 47.71L140.214 149.486L133.924 150.786L111.658 42.712L195.302 25.48L196.594 31.77Z" fill="#313553"/>
<path d="M149.63 270.668C150.053 270.542 150.489 270.464 150.93 270.434C153.618 270.282 158.71 269.746 162.12 274.874C163.605 277.26 164.209 280.09 163.826 282.874C163.667 283.954 163.238 284.974 162.579 285.844C161.921 286.714 161.054 287.404 160.058 287.85C158.11 288.738 156.053 289.362 153.94 289.706C149.246 290.496 144.364 290.07 142.22 287.96C138.62 284.406 134.748 276.24 143.156 267.614L143.556 266.98C145.497 268.254 147.515 269.406 149.598 270.432L149.63 270.668Z" fill="#FFE8BB"/>
<path d="M138.508 196.504L138.432 196.566C138.358 196.467 138.262 196.385 138.153 196.326C138.043 196.268 137.922 196.235 137.798 196.229C137.674 196.223 137.55 196.245 137.435 196.292C137.32 196.34 137.217 196.412 137.134 196.504C136.606 197.585 136.284 198.755 136.184 199.954C133.47 219.602 132.026 239.402 131.862 259.236C131.95 263.806 132.314 266.818 133.05 267.224C133.509 267.542 134.075 267.664 134.624 267.566L134.652 267.656C132.604 269.018 127.138 269.704 125.652 265.382C125.285 261.878 125.258 258.346 125.57 254.836C126.278 237.836 129.048 205.836 130.57 197.068C130.651 196.305 130.841 195.557 131.134 194.848C132.776 192.696 138.316 193.934 138.508 196.504Z" fill="#55DEFF"/>
<path d="M130.2 197L130.578 197.07C129.052 205.848 126.282 237.846 125.578 254.838H125.378C125.378 254.838 113.528 249.518 107.506 248.802C98.776 247.772 10.082 206.582 10.082 206.582L44.018 140.482L124.684 194.256L130.2 197Z" fill="#FFE8BB"/>
<path d="M360.792 132.212L390.074 199.652" stroke="#FFE8BB" stroke-width="0.687" stroke-linecap="round" stroke-linejoin="round"/>
<path d="M10.074 206.574L44.018 140.482" stroke="#FFE8BB" stroke-width="0.687" stroke-linecap="round" stroke-linejoin="round"/>
<path d="M290.862 349.086C269.654 363.092 245.144 371.294 219.778 372.876C194.412 374.456 169.074 369.36 146.291 358.096C123.508 346.832 104.075 329.792 89.931 308.676C75.7866 287.558 67.4244 263.104 65.678 237.748" stroke="#313553" stroke-width="0.687" stroke-linecap="round" stroke-linejoin="round"/>
<path d="M356 232.166C355.398 252.912 350.35 273.288 341.2 291.916C332.048 310.546 319.006 326.994 302.954 340.15" stroke="#313553" stroke-width="0.687" stroke-linecap="round" stroke-linejoin="round"/>
<path d="M274.64 325.928C258.81 336.384 240.656 342.796 221.77 344.6C202.884 346.406 183.844 343.548 166.32 336.28C148.796 329.01 133.323 317.554 121.259 302.912C109.195 288.27 100.908 270.89 97.126 252.3" stroke="#313553" stroke-width="0.687" stroke-linecap="round" stroke-linejoin="round"/>
<path d="M324.628 250.8C319.57 277.496 305.29 301.566 284.284 318.8" stroke="#313553" stroke-width="0.687" stroke-linecap="round" stroke-linejoin="round"/>
<path d="M288.656 143.856C295.518 150.048 301.616 157.035 306.824 164.67" stroke="#313553" stroke-width="0.687" stroke-linecap="round" stroke-linejoin="round"/>
<path d="M107.184 177.69C112.532 166.948 119.509 157.099 127.868 148.49" stroke="#313553" stroke-width="0.687" stroke-linecap="round" stroke-linejoin="round"/>
<path d="M281.81 100.984C300.104 111.276 315.968 125.387 328.32 142.358" stroke="#313553" stroke-width="0.687" stroke-linecap="round" stroke-linejoin="round"/>
<path d="M82.232 159.736C91.5306 142.24 104.293 126.82 119.742 114.414" stroke="#313553" stroke-width="0.687" stroke-linecap="round" stroke-linejoin="round"/>
<path d="M262.144 201.288C262.144 201.288 310.048 168.452 322.572 159.46C335.096 150.468 360.8 132.212 360.8 132.212" stroke="#313553" stroke-width="0.687" stroke-linecap="round" stroke-linejoin="round"/>
<path d="M296.858 262.158C296.858 262.158 315.568 252.63 324.078 245.144C332.588 237.658 390.078 199.652 390.078 199.652" stroke="#313553" stroke-width="0.687" stroke-linecap="round" stroke-linejoin="round"/>
<path d="M10.074 206.574C10.074 206.574 98.77 247.774 107.5 248.794C113.522 249.51 125.372 254.83 125.372 254.83" stroke="#313553" stroke-width="0.687" stroke-linecap="round" stroke-linejoin="round"/>
<path d="M130.204 196.998L124.684 194.256L44.018 140.482" stroke="#313553" stroke-width="0.687" stroke-linecap="round" stroke-linejoin="round"/>
<path d="M139.78 201.144C139.662 199.539 139.203 197.978 138.432 196.566C138.358 196.466 138.262 196.385 138.153 196.326C138.043 196.268 137.922 196.235 137.798 196.229C137.674 196.223 137.55 196.245 137.435 196.292C137.32 196.34 137.217 196.412 137.134 196.504C136.606 197.585 136.284 198.755 136.184 199.954C133.47 219.602 132.026 239.402 131.862 259.236C131.95 263.806 132.314 266.818 133.05 267.224C133.509 267.542 134.075 267.664 134.624 267.566C136.424 267.1 135.842 262.666 135.842 262.666" stroke="#313553" stroke-width="0.687" stroke-linecap="round" stroke-linejoin="round"/>
<path d="M138.508 196.504C138.308 193.934 132.776 192.704 131.146 194.848C130.853 195.557 130.663 196.305 130.582 197.068C129.056 205.846 126.286 237.844 125.582 254.836C125.27 258.346 125.297 261.878 125.664 265.382C127.142 269.704 132.608 269.018 134.664 267.656" stroke="#313553" stroke-width="0.687" stroke-linecap="round" stroke-linejoin="round"/>
<path d="M136.184 199.954L139.712 201.322C145.43 203.542 156.236 207.722 157.618 208.21C158.279 208.558 159.015 208.74 159.763 208.74C160.511 208.74 161.247 208.558 161.908 208.21C163.866 207.468 186.894 195.342 191.548 194.236C196.202 193.13 205.44 194.654 205.44 194.654" stroke="#313553" stroke-width="0.687" stroke-linecap="round" stroke-linejoin="round"/>
<path d="M131.862 259.236C131.862 259.236 133.608 260.446 136.04 262.082C138.24 263.566 141.01 265.394 143.554 266.982C145.495 268.256 147.513 269.408 149.596 270.434" stroke="#313553" stroke-width="0.687" stroke-linecap="round" stroke-linejoin="round"/>
<path d="M296.17 249.048C296.17 251.95 297.908 256.624 296.706 262.122C295.564 267.354 291.764 273.322 281.288 279.24" stroke="#313553" stroke-width="0.687" stroke-linecap="round" stroke-linejoin="round"/>
<path d="M271.554 205.942C268.634 203.994 265.448 202.474 262.096 201.432C259.71 200.642 257.264 200.048 254.782 199.652C244.278 197.974 222.582 188.826 213.95 191.37C211.034 192.249 208.188 193.349 205.44 194.662C200.82 196.814 196.766 199.15 192.44 200.662C185.662 203.034 179.51 201.912 177.654 211.818C175.798 221.724 176.074 233.89 174.21 242.14C173.971 243.144 173.964 244.19 174.19 245.198C175.59 251.398 185.972 253.832 192.778 245.24C197.093 239.986 199.429 233.384 199.378 226.584C199.364 224.666 199.148 222.756 198.732 220.884" stroke="#313553" stroke-width="0.687" stroke-linecap="round" stroke-linejoin="round"/>
<path d="M199.646 226.584C199.646 226.584 202.774 225.326 203.522 223.078C203.522 223.078 213.688 221.738 217.38 221.126C221.072 220.514 263.676 248.994 274.124 268.214" stroke="#313553" stroke-width="0.687" stroke-linecap="round" stroke-linejoin="round"/>
<path d="M274.124 268.214C276.73 271.696 278.922 275.468 280.656 279.458C281.79 282.388 282.222 285.178 280.856 286.794C276.146 292.394 270.386 290.746 266.344 286.092C266.144 285.866 265.944 285.624 265.744 285.378C261.68 280.188 251.252 267.518 251.252 267.518L242.55 262.118" stroke="#313553" stroke-width="0.687" stroke-linecap="round" stroke-linejoin="round"/>
<path d="M227.34 243.674C227.518 245.526 227.982 247.338 228.716 249.048C229.286 249.708 236.888 256.562 242.566 262.122C244.596 264.022 246.502 266.048 248.272 268.192C250.602 271.368 259.766 280.724 263.882 287.138C264.94 288.526 265.636 290.156 265.904 291.88C265.818 293.14 265.432 294.364 264.778 295.446C264.126 296.528 263.224 297.438 262.15 298.104C261.074 298.768 259.856 299.166 258.596 299.266C257.336 299.368 256.07 299.166 254.904 298.68C254.76 298.62 254.62 298.546 254.49 298.46C251.006 296.302 233.856 280.918 231.194 278.41L231.182 278.396" stroke="#313553" stroke-width="0.687" stroke-linecap="round" stroke-linejoin="round"/>
<path d="M254.018 299.152C253.84 300.086 253.446 300.964 252.87 301.718C252.292 302.474 251.546 303.082 250.692 303.498C249.478 304.26 248.12 304.762 246.702 304.974C245.284 305.184 243.838 305.098 242.456 304.72C241.216 304.12 240.02 303.432 238.876 302.666" stroke="#313553" stroke-width="0.687" stroke-linecap="round" stroke-linejoin="round"/>
<path d="M242.456 304.72C240.022 307.736 236.694 309.902 232.95 310.908C232.162 311.192 231.322 311.3 230.488 311.228C229.652 311.154 228.844 310.9 228.118 310.482" stroke="#313553" stroke-width="0.687" stroke-linecap="round" stroke-linejoin="round"/>
<path d="M217.38 221.126C217.38 221.126 220.488 218.046 220.488 216.294" stroke="#313553" stroke-width="0.687" stroke-linecap="round" stroke-linejoin="round"/>
<path d="M203.522 223.078C203.798 221.634 203.798 220.15 203.522 218.706" stroke="#313553" stroke-width="0.687" stroke-linecap="round" stroke-linejoin="round"/>
<path d="M174.026 244.56C174.025 244.786 174.079 245.006 174.184 245.206C175.428 247.722 184.152 246.91 186.95 242.718C189.966 238.188 186.282 232.166 186.282 232.166" stroke="#313553" stroke-width="0.687" stroke-linecap="round" stroke-linejoin="round"/>
<path d="M175.882 230.53C175.882 230.53 178.122 230.358 181.082 230.014" stroke="#313553" stroke-width="0.687" stroke-linecap="round" stroke-linejoin="round"/>
<path d="M273.128 287.138C275.174 286.534 277.054 285.466 278.62 284.016" stroke="#313553" stroke-width="0.687" stroke-linecap="round" stroke-linejoin="round"/>
<path d="M266.35 286.092C266.35 286.092 263.93 287.212 263.882 287.138" stroke="#313553" stroke-width="0.687" stroke-linecap="round" stroke-linejoin="round"/>
<path d="M144.86 273.2C146.304 272.108 147.915 271.256 149.63 270.678C150.053 270.552 150.489 270.474 150.93 270.444C153.618 270.292 158.71 269.756 162.12 274.884C163.605 277.27 164.209 280.1 163.826 282.884C163.667 283.964 163.238 284.984 162.579 285.854C161.921 286.724 161.054 287.414 160.058 287.86C158.11 288.748 156.053 289.372 153.94 289.716C149.246 290.506 144.364 290.08 142.22 287.97C138.62 284.416 134.748 276.25 143.156 267.624" stroke="#313553" stroke-width="0.687" stroke-linecap="round" stroke-linejoin="round"/>
<path d="M179.6 281.4C178.012 282.556 176.692 283.538 175.874 284.144" stroke="#313553" stroke-width="0.687" stroke-linecap="round" stroke-linejoin="round"/>
<path d="M153.94 289.708C153.94 289.708 156.574 300.032 162.092 301.462C167.153 303.094 172.458 303.838 177.772 303.662C180.567 303.452 183.296 302.706 185.808 301.462C185.808 301.462 204.148 291.662 206.904 287.144C208.34 285.066 209.052 282.572 208.932 280.05C208.758 278.384 208.046 276.822 206.904 275.596C202.69 270.866 196.978 270.632 191.602 273.526C187.453 275.91 183.45 278.542 179.614 281.404" stroke="#313553" stroke-width="0.687" stroke-linecap="round" stroke-linejoin="round"/>
<path d="M179.614 281.404H179.608L163.962 282.902" stroke="#313553" stroke-width="0.687" stroke-linecap="round" stroke-linejoin="round"/>
<path d="M191.974 280.58C190.671 282.12 189.962 284.074 189.974 286.092C190.071 286.94 190.375 287.752 190.859 288.456C191.344 289.16 191.994 289.734 192.752 290.128C193.51 290.522 194.354 290.724 195.208 290.716C196.062 290.708 196.902 290.488 197.652 290.08C201.206 288.114 206.898 284.134 205.332 280.58" stroke="#313553" stroke-width="0.687" stroke-linecap="round" stroke-linejoin="round"/>
<path d="M194.414 278.4C195.656 277.298 197.171 276.55 198.8 276.234C199.946 276.184 201.068 276.57 201.942 277.314" stroke="#313553" stroke-width="0.687" stroke-linecap="round" stroke-linejoin="round"/>
<path d="M227.314 274.688C222.804 272.124 217.868 273.088 213.606 276.42C208.904 280.112 210.966 277.932 208.932 280.05C208.89 280.092 208.85 280.14 208.802 280.188" stroke="#313553" stroke-width="0.687" stroke-linecap="round" stroke-linejoin="round"/>
<path d="M177.78 303.758C178.869 307.228 181.285 310.13 184.502 311.828C187.878 313.416 190.076 315.726 199.466 311.814C204.008 309.824 208.41 307.526 212.638 304.934C212.638 304.934 227.438 293.42 230.598 288.052C230.752 287.796 230.886 287.528 230.998 287.252C231.682 285.884 232.056 284.384 232.09 282.854C232.124 281.326 231.82 279.808 231.198 278.412C230.666 277.424 229.934 276.556 229.048 275.868C228.512 275.436 227.942 275.05 227.342 274.714" stroke="#313553" stroke-width="0.687" stroke-linecap="round" stroke-linejoin="round"/>
<path d="M215.166 283.308C214.15 285.05 213.786 287.096 214.142 289.082C214.382 289.902 214.82 290.65 215.416 291.26C216.014 291.872 216.752 292.326 217.566 292.586C218.378 292.844 219.244 292.9 220.084 292.748C220.924 292.594 221.714 292.238 222.384 291.708C225.56 289.166 230.488 284.278 228.344 281.04" stroke="#313553" stroke-width="0.687" stroke-linecap="round" stroke-linejoin="round"/>
<path d="M217.2 280.738C218.236 279.444 219.602 278.452 221.152 277.864C222.274 277.62 223.448 277.81 224.438 278.394" stroke="#313553" stroke-width="0.687" stroke-linecap="round" stroke-linejoin="round"/>
<path d="M199.66 312.268C200.044 313.562 200.718 314.754 201.628 315.75C202.54 316.748 203.664 317.526 204.918 318.028C208.966 319.932 213.984 318.454 225.3 311.808C225.3 311.808 226.034 311.3 227.182 310.468C230.638 308.016 233.934 305.344 237.046 302.468C237.97 301.614 238.788 300.65 239.48 299.6C242.08 295.216 241.99 292.5 239.122 290.218C238.044 289.198 236.718 288.48 235.276 288.134C233.832 287.788 232.324 287.826 230.902 288.246" stroke="#313553" stroke-width="0.687" stroke-linecap="round" stroke-linejoin="round"/>
<path d="M227.822 294.918C227.036 296.264 226.756 297.846 227.032 299.38C227.216 300.014 227.556 300.594 228.016 301.068C228.478 301.542 229.05 301.894 229.68 302.096C230.31 302.296 230.98 302.34 231.63 302.22C232.28 302.102 232.892 301.824 233.41 301.414C235.864 299.448 239.68 295.668 238.01 293.158" stroke="#313553" stroke-width="0.687" stroke-linecap="round" stroke-linejoin="round"/>
<path d="M229.4 292.926C230.204 291.924 231.264 291.156 232.466 290.704C233.334 290.514 234.24 290.662 235.002 291.118" stroke="#313553" stroke-width="0.687" stroke-linecap="round" stroke-linejoin="round"/>
<path d="M220.488 265.98L222.79 270.372L227.314 274.688L227.34 274.71" stroke="#313553" stroke-width="0.687" stroke-linecap="round" stroke-linejoin="round"/>
<path d="M160.058 287.852C158.061 286.936 156.239 285.678 154.676 284.134C153.614 282.75 152.878 281.146 152.524 279.438C152.449 279.052 152.275 278.692 152.018 278.394C151.762 278.096 151.433 277.87 151.063 277.738C150.692 277.604 150.294 277.572 149.907 277.64C149.52 277.708 149.157 277.876 148.854 278.126C147.892 278.838 147.218 279.872 146.956 281.04C146.653 282.382 146.809 283.786 147.4 285.026C147.991 286.268 148.982 287.276 150.214 287.886" stroke="#313553" stroke-width="0.687" stroke-linecap="round" stroke-linejoin="round"/>
<path d="M218.804 146.406L149.094 160.766L147.802 154.484L126.83 52.7L204.182 36.76L210.466 35.468L229.932 129.916" stroke="#313553" stroke-width="0.687" stroke-linecap="round" stroke-linejoin="round"/>
<path d="M147.802 154.484L141.512 155.776L140.214 149.486L119.248 47.71L196.594 31.77L202.884 30.476L204.182 36.76V36.766" stroke="#313553" stroke-width="0.687" stroke-linecap="round" stroke-linejoin="round"/>
<path d="M140.214 149.486L133.924 150.786L111.658 42.712L195.302 25.48L196.594 31.77" stroke="#313553" stroke-width="0.687" stroke-linecap="round" stroke-linejoin="round"/>
<path d="M143.1 64.338L200.126 52.59" stroke="#313553" stroke-width="0.687" stroke-linecap="round" stroke-linejoin="round"/>
<path d="M148.832 76.2722L205.86 64.5162" stroke="#313553" stroke-width="0.687" stroke-linecap="round" stroke-linejoin="round"/>
<path d="M143.842 83.854L207.158 70.806" stroke="#313553" stroke-width="0.687" stroke-linecap="round" stroke-linejoin="round"/>
<path d="M145.134 90.142L208.45 77.096" stroke="#313553" stroke-width="0.687" stroke-linecap="round" stroke-linejoin="round"/>
<path d="M146.434 96.432L190.882 87.27" stroke="#313553" stroke-width="0.687" stroke-linecap="round" stroke-linejoin="round"/>
<path d="M154.016 101.424L211.042 89.676" stroke="#313553" stroke-width="0.687" stroke-linecap="round" stroke-linejoin="round"/>
<path d="M149.026 109.006L212.342 95.966" stroke="#313553" stroke-width="0.687" stroke-linecap="round" stroke-linejoin="round"/>
<path d="M150.318 115.294L213.634 102.248" stroke="#313553" stroke-width="0.687" stroke-linecap="round" stroke-linejoin="round"/>
<path d="M157.9 120.292L214.934 108.538" stroke="#313553" stroke-width="0.687" stroke-linecap="round" stroke-linejoin="round"/>
<path d="M152.91 127.874L216.226 114.828" stroke="#313553" stroke-width="0.687" stroke-linecap="round" stroke-linejoin="round"/>
<path d="M154.208 134.164L217.524 121.118" stroke="#313553" stroke-width="0.687" stroke-linecap="round" stroke-linejoin="round"/>
<path d="M174.424 146.386L180.88 145.06L188.55 143.478L204.484 140.192L207.51 139.566L212.59 138.522" stroke="#313553" stroke-width="0.687" stroke-linecap="round" stroke-linejoin="round"/>
<path d="M193.2 136.686C193 137.416 191.762 142.008 193.468 142.056C195.31 142.11 199.51 131.518 199.51 131.518C199.51 131.518 197.454 140.118 199.942 140.296C202.43 140.474 202.068 134.178 204.226 133.594C205.744 133.18 204.486 137.676 204.486 140.194C204.486 141.274 204.72 141.994 205.498 141.794C206.466 141.554 207.05 140.64 207.512 139.566C208.268 137.766 208.7 135.524 210.048 135.188" stroke="#313553" stroke-width="0.687" stroke-linecap="round" stroke-linejoin="round"/>
<path d="M185.2 139.78C186.08 141.918 187.4 143.58 188.512 143.32C191.042 142.708 192.926 137.464 193.194 136.686C193.199 136.663 193.206 136.64 193.214 136.618V136.598" stroke="#313553" stroke-width="0.687" stroke-linecap="round" stroke-linejoin="round"/>
<path d="M185.2 139.78C187.24 135.93 188.368 131.414 185.928 132.04C183.56 132.652 183.938 136.7 185.2 139.78Z" stroke="#313553" stroke-width="0.687" stroke-linecap="round" stroke-linejoin="round"/>
<path d="M180.832 144.832C182.2 144.462 183.89 142.262 185.204 139.78" stroke="#313553" stroke-width="0.687" stroke-linecap="round" stroke-linejoin="round"/>
<path d="M170.48 138.9L167.318 143.704L164.156 148.502" stroke="#313553" stroke-width="0.687" stroke-linecap="round" stroke-linejoin="round"/>
<path d="M162.512 140.542L167.318 143.704L172.116 146.86" stroke="#313553" stroke-width="0.687" stroke-linecap="round" stroke-linejoin="round"/>
<path d="M218.852 146.386C220 149.647 221.682 152.694 223.828 155.404C228.238 161.14 234.42 165.258 241.412 167.118L239.474 178.858C239.366 179.516 239.388 180.19 239.538 180.84C239.69 181.49 239.968 182.104 240.356 182.646C240.744 183.189 241.236 183.649 241.804 184.002C242.37 184.355 243 184.592 243.658 184.701C244.318 184.81 244.99 184.788 245.64 184.636C246.29 184.485 246.904 184.207 247.448 183.819C247.99 183.43 248.45 182.938 248.804 182.372C249.156 181.805 249.394 181.174 249.502 180.516L251.462 168.63C254.386 168.692 257.304 168.37 260.144 167.674C264.518 166.627 268.634 164.696 272.234 162C275.792 159.312 278.822 155.99 281.17 152.2C283.634 148.224 285.276 143.795 286 139.174C287.138 132.607 286.53 125.855 284.234 119.598C281.938 113.331 276.766 107.827 268.72 103.086L262.87 99.5458L266.966 74.7238C267.716 75.2878 268.402 75.931 269.014 76.6418C270.512 78.444 271.358 80.699 271.414 83.042C271.468 83.9238 271.822 84.7608 272.416 85.4152C273.008 86.0696 273.808 86.5022 274.68 86.6418L288.916 88.9918C289.458 89.0832 290.012 89.0596 290.546 88.9222C291.078 88.7848 291.574 88.537 292.004 88.1948C292.434 87.8524 292.788 87.4236 293.04 86.9358C293.294 86.448 293.442 85.9124 293.474 85.3638C293.632 82.2296 293.374 79.088 292.704 76.022C291.804 71.783 290.102 67.7556 287.686 64.1578C285.292 60.6394 282.178 57.6686 278.55 55.442C276.108 53.9298 273.478 52.7462 270.728 51.922L272.446 41.494C272.554 40.8354 272.532 40.1618 272.382 39.5118C272.23 38.8616 271.952 38.2478 271.562 37.7052C271.174 37.1626 270.682 36.702 270.116 36.3496C269.548 35.997 268.918 35.7596 268.258 35.651C267.6 35.5422 266.926 35.5642 266.276 35.7158C265.626 35.8674 265.012 36.1454 264.47 36.5342C263.374 37.3194 262.636 38.5078 262.416 39.838L260.692 50.292C257.924 50.2056 255.154 50.4478 252.442 51.014C248.2 51.8878 244.19 53.6416 240.668 56.1618C236.98 58.681 233.838 61.9166 231.428 65.676C228.898 69.6234 227.216 74.0548 226.494 78.688C225.118 85.6948 226.172 92.9614 229.484 99.288C233.004 105.584 238.23 110.757 244.564 114.21L249.666 117.104L245.046 145.104C243.13 144.245 241.604 142.704 240.764 140.78C240.058 139.151 239.55 137.443 239.252 135.692C239.04 134.428 238.44 133.262 237.534 132.355C236.628 131.449 235.462 130.847 234.198 130.634L229.93 129.932L223.916 128.932C223.024 128.786 222.11 128.839 221.24 129.087C220.368 129.334 219.564 129.77 218.882 130.364C218.198 130.958 217.656 131.695 217.29 132.522C216.924 133.35 216.746 134.247 216.766 135.152C216.808 137.936 217.19 140.704 217.908 143.394C218.184 144.42 218.5 145.416 218.852 146.386Z" stroke="#313553" stroke-width="0.687" stroke-linecap="round" stroke-linejoin="round"/>
<path d="M248.8 88.534C248.088 86.451 247.898 84.2256 248.244 82.052C248.7 79.1006 250.218 76.417 252.512 74.504C253.8 73.394 255.366 72.655 257.042 72.366L253.502 93.806C251.424 92.5802 249.782 90.7374 248.8 88.534Z" stroke="#313553" stroke-width="0.687" stroke-linecap="round" stroke-linejoin="round"/>
<path d="M258.734 144.55C257.622 145.205 256.43 145.713 255.188 146.062L259.022 122.842C260.682 124.088 262.058 125.672 263.058 127.49C264.36 130.139 264.764 133.141 264.206 136.04C264.012 137.784 263.416 139.46 262.468 140.936C261.518 142.413 260.24 143.649 258.734 144.55Z" stroke="#313553" stroke-width="0.687" stroke-linecap="round" stroke-linejoin="round"/>
</svg>
