<svg width="400" height="400" viewBox="0 0 400 400" fill="none" xmlns="http://www.w3.org/2000/svg">
<path fill-rule="evenodd" clip-rule="evenodd" d="M327.736 44.886C275.67 45.706 61.154 46.152 7.498 45.47C4.312 45.43 4.07 40 7.368 40C62.678 40.068 253.88 39.014 327.632 40.6C331.182 40.672 330.218 44.846 327.736 44.886Z" fill="#191919"/>
<path fill-rule="evenodd" clip-rule="evenodd" d="M263.846 200.83C260.254 202.381 256.437 203.348 252.54 203.696C252.914 208.276 252.864 212.881 252.392 217.452C252.341 217.699 252.204 217.919 252.005 218.075C251.807 218.23 251.56 218.31 251.308 218.301C251.056 218.292 250.816 218.194 250.629 218.025C250.442 217.856 250.322 217.626 250.288 217.376C249.914 214.25 250.788 210.864 250.158 203.85C245.48 203.976 243.288 202.526 239.178 201.968C228.958 200.572 219.134 197.087 210.32 191.728C210.058 191.527 209.886 191.231 209.84 190.905C209.795 190.578 209.881 190.246 210.078 189.982C219.122 178.938 226.076 166.338 230.6 152.8C231.134 151.27 232.904 149.214 232.912 151.848C232.934 158.6 232.146 165.348 232.146 172.11C232.146 184.382 232.472 197.51 244.428 200.594C251.76 202.48 258.584 200.088 263.122 198.876C264.2 198.578 265 200.272 263.846 200.83Z" fill="#191919"/>
<path fill-rule="evenodd" clip-rule="evenodd" d="M246.538 174.572C245.49 176.602 249.062 176.362 251.204 176.464C251.474 176.486 251.728 176.604 251.92 176.796C252.112 176.988 252.23 177.241 252.253 177.512C252.275 177.782 252.202 178.052 252.044 178.273C251.887 178.494 251.657 178.652 251.394 178.72C249.978 178.911 248.538 178.829 247.152 178.48C244.676 177.966 242.786 177.054 244.134 174.28C245.006 172.408 245.996 170.592 247.098 168.846C247.233 168.634 247.441 168.479 247.682 168.41C247.923 168.34 248.182 168.36 248.409 168.467C248.636 168.574 248.817 168.76 248.917 168.99C249.017 169.22 249.03 169.479 248.954 169.718C248.273 171.395 247.465 173.017 246.538 174.572Z" fill="#191919"/>
<path fill-rule="evenodd" clip-rule="evenodd" d="M260.108 166.754C260.132 168.038 260.228 169.984 258.336 170.034C256.812 170.076 256.384 168.728 256.392 166.926C256.4 163.68 260.03 162.776 260.108 166.754Z" fill="#191919"/>
<path fill-rule="evenodd" clip-rule="evenodd" d="M242.266 166.672C242.234 167.9 241.712 169.058 240.294 169C239.11 168.952 238.684 167.352 238.718 166.298C238.768 164.742 239.258 163.948 240.242 163.732C241.752 163.4 242.308 165.132 242.266 166.672Z" fill="#191919"/>
<path fill-rule="evenodd" clip-rule="evenodd" d="M240.896 157.512C240.104 157.42 239.301 157.552 238.58 157.892C237.858 158.232 237.246 158.767 236.812 159.436C235.716 161.056 234.544 159.726 234.96 158.766C235.494 157.599 236.388 156.634 237.512 156.012C238.635 155.391 239.927 155.146 241.2 155.314C241.484 155.362 241.739 155.52 241.909 155.752C242.08 155.985 242.153 156.275 242.113 156.56C242.074 156.846 241.925 157.105 241.697 157.283C241.47 157.46 241.183 157.543 240.896 157.512Z" fill="#191919"/>
<path fill-rule="evenodd" clip-rule="evenodd" d="M257.188 157.236C256.938 157.234 256.697 157.144 256.508 156.981C256.319 156.818 256.194 156.593 256.155 156.346C256.117 156.099 256.167 155.847 256.298 155.634C256.428 155.421 256.631 155.262 256.868 155.184C258.394 154.857 259.988 155.093 261.354 155.849C262.72 156.604 263.766 157.829 264.3 159.296C264.63 160.442 263.1 161.382 262.52 160.096C262.06 159.107 261.292 158.293 260.33 157.778C259.369 157.262 258.266 157.072 257.188 157.236Z" fill="#191919"/>
<path fill-rule="evenodd" clip-rule="evenodd" d="M247.66 185.33C248.52 187.267 250.046 188.831 251.961 189.737C253.876 190.644 256.053 190.834 258.096 190.272C260.203 189.592 261.974 188.138 263.05 186.203C264.127 184.268 264.429 181.997 263.896 179.848C263.652 178.848 262.756 178.5 261.68 179.348C257.178 182.896 253.846 183.45 248.526 183.538C247.662 183.552 247.156 184.326 247.66 185.33Z" fill="#191919"/>
<path fill-rule="evenodd" clip-rule="evenodd" d="M102.176 223.848C102.652 224.75 101.32 225.718 100.576 225.048C96.27 221.15 88.386 215.648 86.162 210.448C83.162 203.448 84.8 194.682 78.864 189.018C78.65 188.835 78.5147 188.577 78.4861 188.296C78.4575 188.016 78.5378 187.736 78.7104 187.513C78.883 187.291 79.1347 187.143 79.4131 187.101C79.6916 187.059 79.9755 187.126 80.206 187.288C86.766 191.902 85.522 200.936 88.56 207.488C91.64 214.122 98.8 217.466 102.176 223.848Z" fill="#191919"/>
<path fill-rule="evenodd" clip-rule="evenodd" d="M58.302 213.632C52.1826 212.418 46.459 209.708 41.642 205.744C40.096 204.382 41.948 203.284 43.076 204.046C47.8666 207.431 53.3494 209.709 59.128 210.716C64.7681 211.55 70.5101 211.403 76.1 210.28C77.478 210.096 77.448 212.112 76.5 212.68C72.188 215.27 63.142 214.698 58.302 213.632Z" fill="#191919"/>
<path fill-rule="evenodd" clip-rule="evenodd" d="M32.872 210.514C32.016 209.576 33.456 208.33 34.396 209.01C40.8146 213.935 48.1843 217.476 56.04 219.41C62.176 220.81 60.474 223.682 54.966 222.546C46.5266 220.938 38.8014 216.731 32.872 210.514Z" fill="#191919"/>
<path fill-rule="evenodd" clip-rule="evenodd" d="M56.712 232.43C49.422 232.008 39.326 228.648 33.854 223.852C33.6616 223.677 33.5381 223.438 33.506 223.18C33.4739 222.921 33.5351 222.66 33.6787 222.443C33.8223 222.226 34.0388 222.067 34.2892 221.995C34.5395 221.924 34.8072 221.944 35.044 222.052C43.362 226.128 47.798 228.198 57.094 229.352C62.49 230.024 62.332 232.756 56.712 232.43Z" fill="#191919"/>
<path fill-rule="evenodd" clip-rule="evenodd" d="M88.932 241.762C90.398 242.762 88.732 245.224 87.238 244.34C79.354 239.698 70.376 242.54 61.812 242.526C53.4616 242.668 45.2813 240.159 38.446 235.36C37.46 234.622 38.546 233.146 39.588 233.624C47.4141 237.576 56.1069 239.502 64.87 239.224C72.964 238.734 81.736 236.862 88.932 241.762Z" fill="#191919"/>
<path fill-rule="evenodd" clip-rule="evenodd" d="M392.348 360.018C312.298 360.992 84.376 358.986 35.692 358.418C32.556 358.382 30.068 354.842 35.602 354.818C98.202 354.496 299.124 354.572 392.232 355.43C395.898 355.454 395.908 359.974 392.348 360.018Z" fill="#38A1FF"/>
<path fill-rule="evenodd" clip-rule="evenodd" d="M238.098 215.314C220.498 218.114 186.786 236.932 168.428 261.21C185.828 258.576 237.148 258.126 251.896 259.856C246.347 253.099 240.202 246.854 233.536 241.196C236.096 238.262 238.504 235.98 240.61 233.972C236.396 231.372 229.468 227.224 226.41 225.796C229.874 221.848 233.798 218.329 238.098 215.314Z" fill="#38A1FF"/>
<path fill-rule="evenodd" clip-rule="evenodd" d="M276.58 234.874C278.836 237.123 280.761 239.682 282.296 242.474C276.126 246.01 264.16 252.632 256.938 260.306C263.834 261.21 268.338 264.556 270.738 274.706C271.77 279.06 273.194 286.046 274.606 293.888C287.672 291.032 300.955 289.276 314.314 288.638C311.97 282.636 308.836 276.972 304.996 271.798C304.172 270.708 305.7 269.324 306.61 270.382C311.248 275.706 314.838 281.859 317.188 288.518C323.172 288.164 329.174 288.249 335.146 288.772C336.506 288.926 336.522 290.96 335.114 290.926C314.946 290.269 294.776 292.169 275.086 296.582C277.096 308.046 278.988 320.856 279.582 329.826C310.582 329.524 360.874 344.842 368.668 326.364C386.124 284.982 333.108 219.668 295.386 213.95C298.57 218.357 300.8 223.38 301.932 228.698C297.8 230.132 282 233.894 276.58 234.874Z" fill="#38A1FF"/>
<path fill-rule="evenodd" clip-rule="evenodd" d="M253.374 246.614C247.034 230.792 247.206 222.37 245.398 214.614C245.356 214.346 245.214 214.105 244.999 213.94C244.785 213.774 244.515 213.698 244.245 213.726C243.976 213.754 243.728 213.884 243.552 214.09C243.376 214.296 243.286 214.562 243.3 214.832C243.236 224.194 248.006 239.788 251.88 248.754C252.003 248.971 252.175 249.156 252.382 249.294C252.59 249.432 252.827 249.52 253.075 249.549C253.323 249.578 253.574 249.548 253.808 249.462C254.042 249.376 254.252 249.237 254.422 249.054C266.968 231.632 273.236 225.338 287.622 214.164C287.846 214.006 288 213.767 288.051 213.497C288.102 213.228 288.047 212.949 287.897 212.719C287.747 212.49 287.514 212.327 287.247 212.266C286.98 212.204 286.699 212.249 286.464 212.39C273.113 221.3 261.829 232.971 253.374 246.614Z" fill="#38A1FF"/>
<path fill-rule="evenodd" clip-rule="evenodd" d="M151.372 263.016C139.032 255.492 118.114 236.982 109.538 225.272C100.92 234.063 93.2525 243.738 86.664 254.138C102.276 277.162 127 302 142.494 309.216C140.694 301.54 140.236 280.322 140.694 273.55C141.152 266.778 146.256 264.07 151.372 263.016Z" fill="#38A1FF"/>
<path fill-rule="evenodd" clip-rule="evenodd" d="M80.662 262.666C84.49 262.506 82.522 259.822 80.89 259.79C59.09 259.362 35.726 258.83 19.29 259.086C20.56 164.112 19.8 104.186 20.32 50.6719C20.334 49.2539 18.208 49.4719 18.144 50.8219C16.068 94.3279 17.344 211.488 15.744 258.762C15.688 260.382 15.8 261.416 19.304 261.572C29.118 262.012 38.682 262.03 48.552 262.2C57.622 262.358 71.872 263.034 80.662 262.666Z" fill="#38A1FF"/>
<path fill-rule="evenodd" clip-rule="evenodd" d="M319.498 168.4C320.46 148.9 320.16 129.142 320.248 109.6C320.3 98.048 320.824 67.032 320.694 51.81C320.672 49.174 317.954 50.676 317.926 52.01C317.4 77.856 316.038 142.392 317.026 168.428C317.11 170.62 319.4 170.588 319.498 168.4Z" fill="#38A1FF"/>
<path fill-rule="evenodd" clip-rule="evenodd" d="M50.892 108.8C50.892 102.46 50.946 96.124 50.892 89.784C79.448 89.62 108.022 89.458 136.574 88.942C136.598 94.49 136.574 100.038 136.574 105.586C109.3 106.284 81.41 107.312 54.054 107.802C52.292 107.834 52.578 110.466 54.282 110.488C81.904 110.822 110.374 109.06 138.082 108.342C138.449 108.304 138.786 108.125 139.024 107.844C139.262 107.562 139.382 107.2 139.358 106.832C139.358 100.354 139.336 93.874 139.38 87.396C139.341 87.0265 139.161 86.6865 138.876 86.4472C138.592 86.2078 138.227 86.0877 137.856 86.112C108.354 86.13 78.832 86.532 49.33 86.926C48.9528 86.965 48.6053 87.1487 48.3607 87.4385C48.1161 87.7282 47.9932 88.1015 48.018 88.48C48.182 95.32 48.53 102.144 48.766 108.98C48.8 110.37 50.89 110.174 50.892 108.8Z" fill="#38A1FF"/>
<path fill-rule="evenodd" clip-rule="evenodd" d="M49.228 154.514C79.052 153.35 109.758 153.214 139.4 151.172C139.617 151.177 139.832 151.134 140.031 151.045C140.229 150.956 140.405 150.825 140.546 150.66C140.687 150.495 140.789 150.3 140.845 150.091C140.902 149.881 140.911 149.662 140.872 149.448C140.348 145.22 139.822 140.992 139.272 136.768C139.042 135.014 136.41 135.614 136.602 137.336C137.002 141.006 137.446 144.674 137.882 148.336C108.926 149.558 79.714 150.384 50.882 151.308C50.882 145.574 50.852 139.832 51.014 134.108C80.164 133.806 108.814 133.334 138.284 133.574C138.568 133.579 138.843 133.473 139.051 133.279C139.259 133.084 139.383 132.817 139.397 132.533C139.411 132.249 139.315 131.971 139.127 131.757C138.94 131.543 138.677 131.41 138.394 131.386C108.81 130.024 79.102 130.624 49.394 130.684C49.1637 130.672 48.9333 130.705 48.716 130.782C48.4986 130.859 48.2987 130.978 48.1276 131.133C47.9566 131.288 47.8179 131.475 47.7194 131.683C47.621 131.892 47.5647 132.118 47.554 132.348C47.8 139.174 47.708 146.024 47.732 152.858C47.7165 153.274 47.8642 153.681 48.1436 153.99C48.423 154.299 48.8121 154.487 49.228 154.514Z" fill="#38A1FF"/>
<path fill-rule="evenodd" clip-rule="evenodd" d="M136.946 194.566C122.626 194.756 104.408 194.472 89.718 195.166C88.488 195.224 88.544 197.732 89.75 197.752C102.976 197.978 122.992 197.324 138.282 197.646C139.972 197.682 140.05 196.046 139.852 194.83C138.865 188.861 138.811 182.775 139.694 176.79C139.735 176.574 139.727 176.352 139.67 176.14C139.614 175.927 139.51 175.73 139.368 175.563C139.225 175.396 139.047 175.263 138.846 175.174C138.646 175.085 138.428 175.042 138.208 175.048C109.112 175.736 80.008 176.812 50.914 177.278C50.5229 177.305 50.1573 177.482 49.894 177.772C49.6307 178.063 49.4902 178.444 49.502 178.836C49.45 185.132 49.462 191.436 49.418 197.724C49.4453 198.138 49.6324 198.525 49.9399 198.804C50.2474 199.083 50.6512 199.231 51.066 199.218C59.466 198.91 66.08 198.956 74.482 198.438C75.882 198.352 75.764 195.826 74.376 195.822C66.5 195.8 60.426 195.886 52.552 196.05C52.522 190.768 52.516 185.486 52.48 180.204C80.524 179.204 108.59 178.764 136.64 177.98C135.984 183.497 136.087 189.077 136.946 194.566Z" fill="#38A1FF"/>
<path fill-rule="evenodd" clip-rule="evenodd" d="M204.936 213.214C206.26 213.528 206.62 211.402 205.336 211.026C191.33 206.564 179.583 196.876 172.536 183.976C156.274 154.932 166.336 116.87 192.756 97.562C216.156 80.46 266.424 80.808 282.632 108.762C283.612 110.452 286.158 109.528 285.342 107.73C272.67 79.8 221.238 75.8 196.016 91.2C166.318 109.34 152.544 148.572 167.256 180.726C174.656 196.902 188.4 209.298 204.936 213.214Z" fill="#38A1FF"/>
<path fill-rule="evenodd" clip-rule="evenodd" d="M319.264 219.068C319.772 214.756 319.32 203.268 319.338 196.546C319.338 194.134 317.074 195.02 316.992 196.03C316.511 203.703 316.491 211.397 316.932 219.072C317.022 220.218 319.132 220.2 319.264 219.068Z" fill="#38A1FF"/>
<path fill-rule="evenodd" clip-rule="evenodd" d="M326.436 337.356C314.498 335.956 289.742 334.422 273.666 334.156C273.666 324.926 264.838 272.156 259.22 267.742C253.84 263.514 151.776 262.726 147.562 270.742C142.022 281.294 151.178 346.666 156.234 348.392C164.46 351.192 320.812 350.726 327.634 350.192C331.2 349.922 331.708 337.97 326.436 337.356ZM179.068 274.038C173.14 274.658 167.468 275.478 161.556 276.344C156.438 277.094 156.076 278.166 155.52 283.078C154.815 288.91 154.477 294.781 154.508 300.656C154.508 301.906 152.69 302.234 152.524 300.918C151.759 294.176 151.81 287.367 152.676 280.638C153.248 276.222 154.876 274.238 159.276 273.34C165.782 272.026 172.423 271.505 179.054 271.788C179.323 271.827 179.57 271.962 179.748 272.167C179.927 272.372 180.026 272.635 180.028 272.907C180.029 273.179 179.933 273.443 179.757 273.65C179.581 273.858 179.337 273.995 179.068 274.038ZM205.2 318.696C200.97 319.496 196.388 317.208 194.738 310.756C193.304 305.156 195.938 300.93 200.59 299.74C211.73 296.892 215.8 316.67 205.2 318.696Z" fill="#191919"/>
<path fill-rule="evenodd" clip-rule="evenodd" d="M320.84 185.172C301.82 166.326 313.158 139.904 300.994 127.118C298.693 124.638 295.587 123.056 292.229 122.653C288.87 122.25 285.478 123.053 282.656 124.918C273.286 109.68 254.174 105.992 237.902 111.062C220.168 116.588 213.814 138.238 228.05 145.206C235.51 148.858 261.7 149.168 269.888 147.582C270.543 154.362 273.079 160.824 277.21 166.24C277.634 166.75 278.226 167.456 278.93 166.84C279.691 166.154 280.587 165.634 281.56 165.312C282.532 164.99 283.562 164.873 284.582 164.97C285.602 165.067 286.591 165.374 287.486 165.873C288.381 166.372 289.163 167.051 289.782 167.868C290.351 168.709 290.748 169.654 290.951 170.649C291.154 171.644 291.158 172.669 290.964 173.666C290.769 174.663 290.379 175.611 289.817 176.457C289.255 177.302 288.532 178.029 287.688 178.594C285.242 180.212 283.498 179.976 280.758 179.838C279.9 179.796 279.74 180.514 279.682 181.17C278.836 190.698 277.898 201.57 279.352 211.046C279.389 211.309 279.528 211.547 279.738 211.71C279.949 211.872 280.214 211.946 280.478 211.916C280.742 211.885 280.984 211.753 281.152 211.548C281.32 211.342 281.401 211.079 281.378 210.814C281.398 208.246 281.302 205.678 281.218 203.108C294.608 204.606 311.562 196.774 320.88 187.82C322.356 186.418 321.3 185.628 320.84 185.172ZM248.8 119.98C245.535 119.921 242.305 120.655 239.386 122.118C236.144 123.674 230.64 127.542 231.01 131.598C231.12 132.814 229.372 133.558 228.918 132.304C226.728 126.26 232.824 121.538 236.888 119.32C240.508 117.345 244.564 116.303 248.688 116.29C253.964 116.296 251.786 120.106 248.8 119.98Z" fill="#191919"/>
</svg>
