<svg width="400" height="400" viewBox="0 0 400 400" fill="none" xmlns="http://www.w3.org/2000/svg">
<path d="M142 88C141.84 86.24 144.18 87.08 144.14 89.42C144.14 92.62 141.4 92.6 139.68 91.08C138.96 90.44 139.2 89.56 139.26 88.76C139.26 88.76 139.66 88.52 139.86 88.52C140.06 88.52 140.16 88.74 140.3 88.88C140.454 89.0208 140.648 89.1108 140.854 89.1382C141.061 89.1655 141.272 89.1287 141.457 89.0328C141.642 88.9368 141.794 88.7864 141.891 88.6017C141.988 88.4171 142.026 88.2071 142 88V88Z" fill="#D8E9FF"/>
<path d="M154 101.34C154.54 100.86 154.24 100.8 155.32 101.62C154.561 102.733 153.564 103.662 152.4 104.34C151.96 104.64 151.68 104.34 151.44 104.04C151.2 103.74 151.04 104 154 101.34Z" fill="#D9D9D9"/>
<path d="M152 99.02C152.46 98.62 152.5 98.84 153.06 99.44C152.46 100.589 151.535 101.535 150.4 102.16C149.8 102.5 149.68 101.98 149.44 101.7C149.2 101.42 149 101.66 152 99.02Z" fill="#D9D9D9"/>
<path d="M148.32 142.1C148.632 142.196 148.919 142.36 149.16 142.58C146.385 143.653 143.371 143.951 140.44 143.44C139.52 143.44 139.36 144.26 140.16 144.76C145.94 148.4 140.4 142.86 149.1 157.14C145.1 159.54 145.1 159.78 144.82 159.14C144.82 159.14 141.98 153.92 140.14 150.1C136.9 143.36 133.42 132.44 133.56 130.1C134.58 130.84 142.48 139.7 148.32 142.1Z" fill="#D9D9D9"/>
<path d="M184.7 145.28C184.913 148.618 184.387 151.962 183.16 155.073C181.933 158.184 180.034 160.987 177.6 163.28C176.68 164.18 174.64 166.54 173.6 165.76C171.98 164.64 170.54 165.76 170.74 164.9C171.08 163.26 169.24 163.1 170.44 162.28C174.2 159.74 174.72 159.68 176.8 156.28C178.553 153.06 179.494 149.461 179.543 145.795C179.592 142.129 178.747 138.506 177.08 135.24C171.42 123.4 152.2 106.46 153.48 105.48C158.26 101.74 153.28 100.6 168.82 116.76C177.68 126.24 183.38 133.32 184.7 145.28Z" fill="#D9D9D9"/>
<path d="M150.86 96.82C151.3 97.54 150.86 97.74 148.58 99.74C148.06 100.2 147.82 99.98 146.04 98.38C145.38 97.78 142.04 98.56 139.4 97.92C137.63 97.6321 135.996 96.7942 134.728 95.5253C133.461 94.2564 132.626 92.6208 132.34 90.8504C132.055 89.08 132.334 87.2647 133.138 85.6618C133.942 84.0589 135.23 82.7498 136.82 81.92C137.56 81.54 137.58 81.54 137.84 82.32C138.94 85.68 139.04 85.82 138.46 86.32C134.8 89.84 139.42 96.1401 144.58 93.0801C146.58 91.8401 147.48 85.08 142.78 84.92C141.8 84.92 141.12 84.5801 140.98 83.4401C140.8 81.6801 139.44 80.58 140.98 80.14C145.44 78.96 150.98 82.48 151.38 88.74C150.28 94.12 149.66 94.8 150.86 96.82Z" fill="#D9D9D9"/>
<path d="M230 142C230.9 143.46 252.6 181.9 251.54 181.68C247.26 180.74 246.78 179.68 242.12 176.14C240.36 174.78 237.78 176.92 238.38 180.38C240.12 190.38 253.98 185.24 244.74 197.4C244.48 197.74 243.18 197.4 242.26 197.4C239.8 197.66 240.44 199.9 237.32 202.66C236.577 203.685 236.049 204.849 235.768 206.083C235.486 207.317 235.456 208.595 235.68 209.84C236.46 212.28 243.24 207.84 189.12 238.22C171.74 247.98 173.9 247.8 161.38 254.22C159.92 254.96 160.22 254.22 155.02 245.22C110.78 168.34 110.52 184.36 125.26 174.7C134.72 168.5 142.36 163.6 177.16 144.3C178.96 143.3 177.52 154.3 172.7 158.64C172.08 159.22 172.5 158.64 171.16 156.64C170.6 155.76 169.68 157.08 169.96 157.52C171.64 160.2 167.12 160.8 168.54 163.94C168.96 164.88 168.14 167.66 170.82 167.28C171.263 167.191 171.72 167.204 172.157 167.318C172.593 167.432 172.998 167.645 173.34 167.94C175.34 169.54 185.66 161.22 186.46 146.52C186.74 141.54 184.76 140.14 186.46 139.3C194.1 135.3 213.58 123.74 215.64 122.52C219.58 120.2 218.54 123.66 230 142ZM227.26 171.28C230.12 170.44 229.14 168.84 229.08 168.04C229.054 167.563 228.858 167.112 228.528 166.767C228.198 166.422 227.755 166.207 227.28 166.16C224.66 165.76 220.54 162.62 216.78 163.66C215.38 164.06 217.16 163.3 218.78 153.66C219.22 150.9 214.34 150.3 213.74 153.66C213.346 156.601 212.635 159.492 211.62 162.28L211.2 161.76C207.92 156.08 208.66 156.5 205.92 156.74C205.659 156.751 205.41 156.854 205.217 157.029C205.023 157.204 204.897 157.442 204.86 157.7C204.4 159.32 204.86 160.36 206.86 163.98C213.44 175.82 213.92 179.28 217.52 176.78C218.4 176.18 218.06 175.3 218.12 174.58C218.22 173.36 217.76 173.2 215.64 169.22C215.32 168.62 217.84 168.24 219.24 168.82C223 170.28 225.24 171.88 227.26 171.3V171.28ZM222.82 206C224.34 204.96 224 201.48 221.82 201.62C219.64 201.76 219.38 202.22 213.96 206.24C212.32 207.44 213 208.12 209.4 203.64C209.16 203.34 209.08 203.1 209.58 202.84C210.72 202.26 216.6 198.84 216.96 196.84C216.961 196.523 216.92 196.207 216.84 195.9C216.84 195.65 216.786 195.403 216.682 195.177C216.577 194.95 216.424 194.748 216.234 194.587C216.044 194.425 215.82 194.306 215.58 194.24C215.339 194.173 215.086 194.159 214.84 194.2C211.6 194.2 206.84 200.58 205.64 198.98C203.96 196.58 203.22 195.9 203.64 195.72C205.782 194.734 207.797 193.492 209.64 192.02C213.36 189.9 212.24 190.42 212.22 188.58C212.176 188.305 212.075 188.041 211.923 187.807C211.771 187.573 211.572 187.373 211.339 187.221C211.105 187.068 210.842 186.966 210.567 186.921C210.292 186.876 210.01 186.89 209.74 186.96C207.796 187.492 206.032 188.542 204.64 190C200.84 192.3 199.2 192.74 198.76 195.36C198.36 197.64 199.52 197.86 200.76 199.92C203.138 203.583 205.757 207.084 208.6 210.4C211.02 213.84 215.2 211.2 222.82 206ZM196.82 184.98C202 188 210 183.66 210 179.6C210 173.82 205.32 176.56 205.28 176.96C205.124 177.575 204.835 178.148 204.432 178.639C204.03 179.129 203.524 179.525 202.951 179.798C202.378 180.071 201.753 180.215 201.118 180.219C200.484 180.222 199.856 180.086 199.28 179.82C197.624 179.048 196.282 177.731 195.478 176.09C194.674 174.449 194.456 172.582 194.86 170.8C195.28 169.46 195.64 170.28 196.86 170C199.14 169.52 198.74 166.78 197.76 165.74C191.08 158.74 183.64 177.38 196.76 184.94L196.82 184.98ZM205.22 215.26C205.42 212.48 204.52 212.6 202.38 209.74C194.08 198.6 195.36 199.98 193.78 198.46C193.44 198.256 193.061 198.126 192.667 198.079C192.274 198.033 191.874 198.07 191.496 198.189C191.118 198.308 190.77 198.506 190.474 198.77C190.178 199.034 189.941 199.358 189.78 199.72C189.78 200.2 189.4 200.66 189.26 201.14C187.26 207.72 187.58 207.88 186.96 207.9C177.3 208.4 181.84 207.4 176.32 208.26C174.92 208.48 174.64 210.94 175.62 212.26C183.12 223.26 183.12 227.32 186.24 225.8C189.36 224.28 180.02 212.48 181.84 212.86C183.372 213.08 184.928 213.08 186.46 212.86C192.14 212.5 189.76 212.5 192.78 205.04C195.32 207.46 198.2 213.04 201.74 216.18C202.017 216.378 202.336 216.511 202.671 216.57C203.007 216.628 203.352 216.611 203.68 216.519C204.008 216.427 204.311 216.262 204.567 216.037C204.823 215.813 205.026 215.533 205.16 215.22L205.22 215.26ZM187.42 191.7C187.678 192.185 188.082 192.576 188.574 192.819C189.067 193.061 189.623 193.143 190.165 193.053C190.707 192.962 191.206 192.703 191.593 192.314C191.979 191.924 192.234 191.422 192.32 190.88C190.72 185.5 185.7 179.84 180.84 174.28C179.98 173.3 177.82 173.3 177.28 174.28C176 176.78 177.22 176.5 187.36 191.66L187.42 191.7ZM185.7 195.88C186.6 194.82 185.7 190.9 183.02 191.76C180.34 192.62 180.42 192.88 175.88 195.9C174.96 196.5 175.5 196.28 173.24 192.76C171.221 189.547 168.996 186.467 166.58 183.54C164.58 181.54 162.36 182.66 162.36 184C162.36 186.26 163.38 186.28 165.58 189.72C175.1 204.64 171.08 205.72 183.2 197.96C184.14 197.414 184.968 196.694 185.64 195.84L185.7 195.88ZM168.16 205.4C168.566 204.921 168.839 204.344 168.951 203.726C169.064 203.108 169.011 202.471 168.8 201.88C168.06 199.12 165.96 200.24 165.56 200.28C163.12 200.48 164.24 202.42 160.64 205.2C159.777 205.507 158.861 205.638 157.946 205.585C157.031 205.532 156.136 205.296 155.314 204.891C154.492 204.487 153.759 203.922 153.159 203.229C152.559 202.537 152.104 201.731 151.82 200.86C150.54 197.5 152.8 193.16 153.82 193.9C154.101 194.037 154.408 194.113 154.721 194.124C155.033 194.135 155.345 194.08 155.635 193.963C155.925 193.846 156.188 193.67 156.405 193.445C156.623 193.221 156.792 192.954 156.9 192.66C157.46 189.74 154 186.84 149.84 189.7C145.68 192.56 144.46 202.34 150.06 208.02C151.087 209.102 152.32 209.968 153.687 210.566C155.053 211.163 156.526 211.481 158.018 211.499C159.509 211.518 160.99 211.237 162.371 210.674C163.752 210.111 165.007 209.276 166.06 208.22C166.86 207.32 167.36 206.24 168.1 205.36L168.16 205.4Z" fill="#FFF59E"/>
<path d="M287.88 227.42C286.5 227.66 273.22 225.58 270.86 225.42C255.72 224.46 250.98 225.76 227.66 229.94C218.26 231.64 212.2 232.68 202.28 237.82C195.08 241.56 190.28 244.08 187.02 248.32C185.687 250.016 184.924 252.09 184.842 254.245C184.759 256.401 185.36 258.527 186.56 260.32C192.04 268.5 205.74 267.86 206.28 269.24C208.52 274.8 204.28 275.48 199.36 276.24C198.56 276.36 197.7 273.22 195.12 274.04C191.42 275.24 190.28 274.38 188.98 275C185.82 276.52 183.12 277.6 183.72 281.66C184.08 284.12 186.1 284.08 185.72 285.08C185.367 286.025 185.244 287.041 185.363 288.042C185.481 289.044 185.837 290.003 186.4 290.84C186.66 291.32 187.94 292.06 187.76 292.26C186.82 293.42 187.26 294.7 187.4 295.96C187.72 298.76 189.86 298.62 189.82 299.66C189.7 302.52 191.38 303.42 194 304.8C196.62 306.18 199.72 304.8 201.28 305.42C203.86 306.4 215.68 306.22 218.74 302.26C219.219 301.434 219.908 300.749 220.737 300.275C221.566 299.801 222.505 299.554 223.46 299.56C224.26 299.56 223.9 299.86 224.64 302.5C225.18 304.36 226.08 304.92 232.5 304.5C243.82 303.78 242 308.34 242.12 282C242.103 279.649 241.62 277.324 240.7 275.16C239.84 273.04 237.36 273.84 229.36 273.68C227.2 273.68 224.6 273.38 223.84 275.56C222.84 278.46 222.98 278.5 222.4 278.62C220 279.14 217.1 278.46 216.88 275.98C216.898 273.458 216.137 270.993 214.7 268.92C213.94 267.78 213.32 268.46 228.24 265.24C233.86 264.04 236.24 262.66 241.9 265.02C255.16 270.54 258.82 272.84 269.9 273.94C270.32 273.94 270.46 274.12 270.44 274.54C268.92 295.28 270.02 293.96 268.88 294.54C212.88 325.44 200.36 337.32 193.62 330.68C187.84 324.98 179.9 310.34 179.04 308.8C131.96 226.8 122.32 211.1 102.48 175.36C98 167.48 97.88 168.22 99.44 168C101.66 167.7 102.52 170 106.54 169.8C108.54 169.8 109.58 169.52 117.34 166.48C119.34 165.66 119.72 164.28 122 163.7C125.86 162.7 129.76 158.56 128 154.98C127.42 153.74 129.68 153.34 128.4 149.62C128.319 149.139 128.14 148.68 127.876 148.271C127.611 147.862 127.265 147.511 126.86 147.24C126.24 146.92 129.46 144.08 125.62 139.78C124.96 139.04 127.86 135.98 124.2 133.08C122.982 132.415 121.628 132.037 120.242 131.975C118.855 131.913 117.473 132.167 116.2 132.72C113.34 133.94 110.58 132.86 109.96 136.72C109.96 137.04 109.96 137.26 109.54 137.36C95.26 141.36 104.58 132.26 96.58 125.76C95.9725 125.239 95.2444 124.879 94.4619 124.711C93.6795 124.543 92.8676 124.574 92.1 124.8C89.22 125.66 91.38 128.54 92.5 133.48C93.28 136.94 91.52 138.58 93.26 143.28C94.62 146.92 92.5 147.84 88.88 149.28C88.14 149.6 87.96 149.5 87.58 148.82C73.22 123.14 75.76 128.7 74.84 126.6C73.02 122.44 64.46 113.74 78.46 103.42C84.46 99.02 132.36 74.76 134.46 73.74C135.36 73.28 135.14 72.76 136.9 78.72C137.36 80.32 131.88 81.08 130.64 87.38C129.24 94.52 135.36 101.04 143.7 99.74C145.56 99.44 143.7 101.3 146.64 101.74C149 102.16 147.42 103.74 148.88 103.96C150.68 104.12 149.54 106.3 151.04 106.28C151.38 106.28 151.04 106.28 165.04 121.68C172.58 129.92 172.76 129.68 177.04 139.2C177.281 139.786 177.422 140.408 177.46 141.04C177.46 141.24 151.16 156.82 150.46 155.58C149.76 154.34 148.46 152.62 147.7 151.08C146.94 149.54 145.86 147.48 144.9 145.7C144.38 144.7 145.58 145.7 149.38 144.2C150.98 143.58 152.38 142.68 151.1 141.52C149.24 139.84 147.6 140.58 141.96 135.4C135.96 129.92 132.28 125.8 132.12 128.74C131.48 139.22 143.48 160 143.5 160C144.08 161.14 115.12 176.48 113.1 179.42C112.4 180.44 120.72 193.42 129.1 206.7C137.1 219.2 143.1 230.7 158.62 256.1C160.74 259.56 158.18 257.92 231.64 216.92C238.52 213.08 238 212.92 239.14 213.04C239.76 213.04 240.52 212.78 241.02 213.04C241.52 213.3 241.52 214.14 241.92 214.58C245.56 218.58 247.62 216.2 247.8 217.14C248.06 218.66 249.36 219.26 250.42 220.08C250.903 220.402 251.449 220.616 252.023 220.706C252.596 220.795 253.182 220.759 253.74 220.6C254.96 220.4 255.44 222.98 258.86 222.08C262.28 221.18 262.3 221.38 265.04 218.08C267.04 215.74 267.46 217.04 270.22 213.72C272.231 211.64 274.051 209.384 275.66 206.98C276 206.44 276.14 206.4 277.32 208.86C280 214.28 287.86 227.38 287.88 227.42ZM104.12 103.22C107.18 107.22 106.84 103.6 106.64 95.6C106.64 94.38 105.48 94.28 104.64 95.6C103.06 98.1 102.5 99.2 100.64 101.94C100.34 102.38 100.42 103.22 101.54 103.04C102.36 102.96 103.4 102.26 104.12 103.22ZM96.9 107.72C98.12 107.9 98.42 106.82 98.38 105.92C98.34 105.02 96.24 101.04 94 102.18C93.44 102.46 93.26 103.6 93.38 104.06C93.5378 104.95 93.9566 105.774 94.5834 106.425C95.2102 107.077 96.0165 107.528 96.9 107.72V107.72ZM92.54 110.22C93.76 110.38 94.06 109.3 94.02 108.42C93.98 107.54 91.88 103.54 89.6 104.66C89.02 104.94 88.88 106.08 88.98 106.66C89.1632 107.535 89.5975 108.338 90.2297 108.97C90.862 109.603 91.6648 110.037 92.54 110.22V110.22ZM89.4 112C89.4477 111.679 89.366 111.352 89.1729 111.092C88.9797 110.831 88.6909 110.658 88.37 110.61C88.0491 110.562 87.7224 110.644 87.4617 110.837C87.201 111.03 87.0277 111.319 86.98 111.64C86.68 113.46 89.24 114.28 89.4 112ZM88 108.2C88 106.88 85.34 106.2 85.3 108.1C85.2 109.62 87.86 110.2 88 108.2ZM83.56 115.12C83.44 115.84 85.56 117.12 85.56 113.5C85.56 111.22 83.76 112.38 83.56 111.32C83.4931 110.819 83.3444 110.333 83.12 109.88C82.9715 109.655 82.7789 109.462 82.5539 109.313C82.329 109.165 82.0762 109.063 81.8109 109.014C81.5456 108.966 81.2732 108.971 81.0101 109.031C80.747 109.09 80.4987 109.202 80.28 109.36C80.0039 109.734 79.8187 110.168 79.7388 110.626C79.659 111.084 79.6868 111.554 79.82 112C79.94 112.14 80.28 112.44 80.46 112.16C80.64 111.88 80.96 110.98 81.28 111.1C81.5203 111.198 81.7172 111.379 81.8347 111.611C81.9522 111.842 81.9825 112.108 81.92 112.36C81.92 112.88 81.52 113.1 81.8 113.44C82.08 113.78 82.88 113 83.32 113.56C83.76 114.12 83.62 114.4 83.5 115.12H83.56ZM79.14 117.88C80.36 118.06 80.66 116.98 80.62 116.08C80.58 115.18 78.48 111.22 76.2 112.34C75.62 112.62 75.46 113.76 75.58 114.24C75.7424 115.123 76.1608 115.939 76.783 116.586C77.4053 117.233 78.2041 117.683 79.08 117.88H79.14Z" fill="#D8E9FF"/>
<path d="M269.34 298C269.34 301.32 270.04 301.52 268.98 302.1C267.38 302.94 226.42 326.48 217.48 331.36C186.3 348.4 195.08 350.26 161.74 294.08C158.92 289.36 123.02 224.08 113.98 209.88C93.36 177.26 81.28 152 73.78 140.34C73.64 140.34 67.78 130.94 67.78 128.82C67.7997 128.735 67.7997 128.646 67.78 128.56C65.94 125.6 68.34 119.12 68.86 120.32C71.96 127.42 71.88 127.04 85.18 149.6C86.68 152.14 96.58 170.44 103.18 181.88C113.3 199.46 115.04 199.26 140.82 245.68C142.84 249.56 154 268 165.2 288C171.8 299.7 178.1 312.84 183.6 321.44C185.8 324.86 187.6 327.24 189.28 329.44C194.42 336.3 197.76 335.44 200.98 334.5C206.98 332.68 220.98 324.62 268.74 297.56C269.18 297.32 269.32 297.38 269.34 298Z" fill="#D9D9D9"/>
<path d="M217.4 105.1C217.4 105.1 263.4 181.68 262.74 182.66C261.2 185.1 258.18 186.66 256.74 184.66C252.38 178.66 255.9 182.04 233.74 143.92C217.88 116.64 219.14 118.82 217.3 119.64C215.46 120.46 185.78 137.02 185.74 137.04C184.26 137.92 185.74 135.04 176.7 123.32C173.16 118.72 166.4 111.94 160.7 105.62C158.88 103.62 157.7 101.84 156.18 100.28C154.66 98.72 155.56 98.56 154.64 98.28C153.38 97.88 153.62 97.36 153.5 96.28C153.38 95.2 152.14 96.08 151.96 95.52C151.78 94.96 151.48 94.76 151.68 94.18C152.184 92.8264 152.552 91.4263 152.78 90C153.136 87.5285 152.581 85.0119 151.22 82.9186C149.859 80.8252 147.783 79.2976 145.38 78.62C140.84 77.5 140 79.68 139.38 77.52C139.1 76.68 138.3 73.92 138.3 73.82C138.3 71.98 134.3 73.82 150.68 65.44C187.8 46.4 183.62 46.16 206.22 84.7C206.5 85.18 206.5 85.44 205.96 85.82C198.88 90.74 200.58 84.58 194.82 81.82C191.54 80.32 190.3 78.12 187.48 74.5C184.66 70.88 179.36 78.82 185.7 84.84C187.98 87.02 189.3 87.44 189.54 89.8C189.78 92.16 186.58 94.36 184.88 95.8C184.56 96.04 183.56 95.44 182.76 95.28C180.12 94.76 180.38 96.96 176.34 99.28C175.112 100.497 174.116 101.927 173.4 103.5C173.129 104.167 173.012 104.887 173.06 105.605C173.107 106.324 173.316 107.022 173.673 107.648C174.029 108.274 174.522 108.81 175.116 109.218C175.71 109.625 176.388 109.893 177.1 110C178.48 110.14 176.56 112.24 181.22 115.08C181.74 115.4 183.22 115.28 183.22 115.74C183.394 116.999 183.992 118.161 184.915 119.034C185.839 119.907 187.033 120.438 188.3 120.54C189.18 120.54 189.26 123.22 193.02 123.2C194.215 123.33 195.425 123.195 196.562 122.804C197.7 122.414 198.737 121.777 199.6 120.94C202 119.08 202.48 120.22 204.64 118.68C212.98 112.68 213.78 113.26 215.38 105.9C215.436 105.685 215.516 105.477 215.62 105.28C216.26 103.86 216.64 103.82 217.4 105.1ZM184.18 62.28C185.88 61.38 184.66 60.6 182.94 58.18C182.34 57.32 182.94 57.2 177.28 60.18C174.9 61.42 173.98 61.72 174.38 62.52C175.028 63.8639 176.076 64.9745 177.38 65.7C178.7 65.12 184.14 62.3 184.18 62.28ZM170.98 70C172.86 70 172.98 68.74 171.88 67.26C169.36 63.64 169.34 63.26 168.08 63.4C166.82 63.54 167.06 65.68 167.74 66.66C170 69.8 170.34 70 170.98 70ZM168 71.7C169.2 70.94 166.5 66.42 164.78 67.3C163.06 68.18 165.14 70.66 166.46 71.8C166.697 71.9414 166.971 72.0075 167.246 71.9896C167.521 71.9718 167.784 71.8708 168 71.7V71.7ZM167.56 72.18C167.4 72.06 167.56 72.06 167.3 72.18C167.36 72.3 167.3 72.28 167.46 72.18H167.56ZM162.34 72.42C162.34 74.18 165 74.86 164.98 72.84C164.96 70.82 162.18 70.58 162.24 72.42H162.34Z" fill="#D8E9FF"/>
<path d="M140.84 261.3C141.64 262.34 157.54 291.96 157.5 291.92C138.4 282.24 130.26 284.1 119.34 268.88C115.34 263.18 119.86 255.24 128.66 256.4C142 258.16 138.16 257.78 140.84 261.3Z" fill="#FFC6A6"/>
<path d="M112.2 212C134.02 247.62 129.54 241.52 126.32 239.48C111.48 230.06 113.82 234.8 97.8 221.3C93.24 217.44 89.8 213.48 89.68 207C89.68 204.56 90.9 203.28 92.72 201.62C93.66 200.78 97.5 200.86 98.72 200.9C101.132 201.292 103.502 201.908 105.8 202.74C107.34 203.14 107.08 203.66 112.2 212Z" fill="#FFC6A6"/>
<path d="M186.82 256.6C185.88 250.84 186.46 247.5 196.82 242.6C210.7 236 216.96 232.08 220.82 231.9C224.68 231.72 242.72 227.7 245.16 227.7C247.6 227.7 271.62 226.64 276.36 227.36C281.1 228.08 290.02 228.76 290.02 228.76L251.66 160.96C251.66 160.96 271.8 175.32 275.48 178.96C279.16 182.6 290.54 192.62 293.34 195.6C296.14 198.58 309.12 211.2 313.84 224.68C317.7 231.52 326.1 241.86 329.08 247.64C332.234 254.97 334.413 262.683 335.56 270.58C335.56 270.58 341.34 300.18 343.1 306.58C344.86 312.98 349.58 338.82 350.28 346.16C350.98 353.5 352.28 361.94 354.48 367.2C356.68 372.46 365.52 386.64 365.52 386.64C354.1 387.1 265.76 388.06 263.22 387.86C263.22 387.86 257.6 374.02 256.2 372.28C254.8 370.54 242.72 368.6 240.08 367.2C237.44 365.8 225.38 353 223.62 351.08C221.86 349.16 209.78 337.08 209.78 337.08L270.92 302.4C270.92 302.4 270.92 276.64 270.74 272.78C265.655 271.706 260.628 270.37 255.68 268.78C251.12 267.02 237.46 261.6 234.48 262.12C231.5 262.64 215.38 265.98 211.36 266.32C207.34 266.66 188.56 267.46 186.82 256.6Z" fill="#FFC6A6"/>
<path d="M225.04 276.28C225.04 276.28 223.88 273.54 228.8 274.4C228.8 274.4 234.7 274.52 236.28 274.52C237.86 274.52 240.74 275.22 240.92 277.28C241.24 280.68 240.92 288.3 240.92 300.52C240.92 301.6 241.04 303.16 237.6 303.28C234.16 303.4 227.6 303.54 227.6 303.54C227.6 303.54 225.4 304.92 226.04 300.46C227 293.68 225.64 282 225.04 276.28Z" fill="#BED4FC"/>
<path d="M363.52 78.4001C354.06 83.8001 355.9 91.2601 342.82 88.4001C336.96 87.1401 335.6 86.9401 332.82 88.7401C330.764 90.0306 328.859 91.5466 327.14 93.2601C323.62 97.4401 323.64 98.4601 321.98 98.9801C320.32 99.5001 317.76 98.3801 315.74 98.1601C287.62 94.9801 295.74 115.8 282.76 114.68C280.787 114.265 278.776 114.058 276.76 114.06C271.06 115.26 267.84 117.74 266.58 123.6C266.4 124.44 266.82 124.74 267.64 124.7C269.64 124.7 268.54 119.52 274.78 117.42C276.793 116.676 279.007 116.676 281.02 117.42C283.634 118.01 286.372 117.658 288.751 116.424C291.13 115.191 292.996 113.156 294.02 110.68C301.72 95.0801 317.46 103.1 322.02 102.2C322.867 102.11 323.68 101.82 324.393 101.354C325.105 100.888 325.697 100.259 326.12 99.5201C328.105 96.5406 330.661 93.9846 333.64 92.0001C336.26 90.2801 337.1 90.3801 340.48 91.1001C355.24 94.2801 353.52 90.4801 364.16 81.7601C364.84 81.2001 366.54 82.2601 366.72 80.1201C366.86 78.3201 364.8 77.6801 363.52 78.4001Z" fill="#000001"/>
<path d="M165.5 200.24C163.06 200.46 164.18 202.38 160.58 205.16C159.717 205.467 158.801 205.598 157.886 205.545C156.971 205.492 156.076 205.256 155.254 204.851C154.432 204.447 153.699 203.882 153.099 203.189C152.499 202.497 152.044 201.691 151.76 200.82C150.48 197.46 152.74 193.12 153.76 193.86C154.041 193.997 154.348 194.073 154.661 194.084C154.973 194.094 155.285 194.04 155.575 193.923C155.865 193.806 156.128 193.63 156.345 193.405C156.563 193.181 156.732 192.914 156.84 192.62C157.4 189.7 153.94 186.8 149.78 189.66C145.62 192.52 144.4 202.3 150 207.98C151.027 209.062 152.26 209.928 153.627 210.526C154.993 211.123 156.466 211.441 157.958 211.459C159.449 211.478 160.93 211.197 162.311 210.634C163.692 210.071 164.947 209.236 166 208.18C166.76 207.32 167.26 206.18 168 205.36C168.406 204.881 168.679 204.304 168.791 203.686C168.904 203.068 168.851 202.431 168.64 201.84C168 199.08 166 200.2 165.5 200.24Z" fill="#000001"/>
<path d="M185.64 195.84C186.54 194.78 185.64 190.86 182.96 191.72C180.28 192.58 180.36 192.84 175.82 195.86C174.9 196.46 175.44 196.24 173.18 192.72C171.161 189.506 168.936 186.427 166.52 183.5C164.52 181.5 162.3 182.64 162.3 183.96C162.3 186.22 163.32 186.24 165.52 189.68C175.04 204.6 171.02 205.68 183.14 197.92C184.098 197.392 184.946 196.686 185.64 195.84V195.84Z" fill="#000001"/>
<path d="M365.46 171.36C363.46 170.52 360.56 170.68 357.46 169.76C351.72 168.12 349.12 164.68 343.46 165.26C340.396 165.884 337.285 166.252 334.16 166.36C329.76 166.02 329.4 165.8 322.76 160.36C308.16 148.36 309 159.62 289.68 161.76C284.02 162.38 282.82 160.62 279.04 157.96C277.58 156.94 276.68 158.76 277.74 159.74C281.12 162.88 284.14 164.94 289.22 164.42C292.487 164.188 295.735 163.734 298.94 163.06C308.94 160.44 308.94 153.06 320.84 162.68C328.64 168.88 329.98 170.88 342.5 168.54C350 167.14 348.18 172.2 364.5 174.14C364.5 174.14 364.5 174.14 364.8 174.14C366.38 174 367.2 172 365.46 171.36Z" fill="#000001"/>
<path d="M193.72 198.42C193.38 198.216 193.001 198.086 192.607 198.039C192.213 197.993 191.814 198.03 191.436 198.149C191.058 198.268 190.71 198.466 190.414 198.73C190.118 198.994 189.881 199.318 189.72 199.68C189.72 200.16 189.34 200.62 189.2 201.1C187.2 207.68 187.52 207.84 186.9 207.86C177.24 208.36 181.78 207.36 176.26 208.22C174.86 208.44 174.58 210.9 175.56 212.22C183.06 223.22 183.06 227.28 186.18 225.76C189.3 224.24 179.96 212.44 181.78 212.82C183.312 213.04 184.868 213.04 186.4 212.82C192.08 212.46 189.7 212.46 192.72 205C195.26 207.42 198.14 213 201.68 216.14C201.96 216.353 202.286 216.498 202.632 216.564C202.978 216.63 203.334 216.615 203.673 216.52C204.013 216.425 204.325 216.253 204.586 216.017C204.848 215.781 205.051 215.488 205.18 215.16C205.38 212.38 204.48 212.5 202.34 209.64C194 198.56 195.3 200 193.72 198.42Z" fill="#000001"/>
<path d="M221.82 201.58C219.62 201.74 219.38 202.18 213.96 206.2C212.32 207.4 213 208.08 209.4 203.6C209.16 203.3 209.08 203.06 209.58 202.8C210.72 202.22 216.6 198.8 216.96 196.8C216.961 196.483 216.92 196.167 216.84 195.86C216.84 195.61 216.786 195.363 216.682 195.136C216.577 194.91 216.424 194.708 216.234 194.547C216.044 194.385 215.82 194.266 215.58 194.2C215.339 194.133 215.086 194.119 214.84 194.16C211.6 194.16 206.84 200.54 205.64 198.94C203.96 196.54 203.22 195.86 203.64 195.68C205.782 194.694 207.797 193.452 209.64 191.98C213.36 189.86 212.24 190.38 212.22 188.54C212.176 188.265 212.075 188.001 211.923 187.767C211.771 187.533 211.572 187.333 211.339 187.181C211.105 187.028 210.842 186.926 210.567 186.881C210.292 186.836 210.01 186.85 209.74 186.92C207.791 187.463 206.028 188.528 204.64 190C200.84 192.3 199.2 192.74 198.76 195.36C198.36 197.64 199.52 197.86 200.76 199.92C203.138 203.583 205.757 207.084 208.6 210.4C211 213.92 215.18 211.28 222.8 206.04C224.34 204.92 224 201.44 221.82 201.58Z" fill="#000001"/>
<path d="M196.76 184.94C202 188 210 183.66 210 179.6C210 173.82 205.32 176.56 205.28 176.96C205.124 177.575 204.835 178.148 204.432 178.639C204.03 179.129 203.524 179.525 202.951 179.798C202.378 180.071 201.753 180.215 201.118 180.219C200.484 180.222 199.856 180.086 199.28 179.82C197.624 179.048 196.282 177.731 195.478 176.09C194.674 174.449 194.456 172.582 194.86 170.8C195.28 169.46 195.64 170.28 196.86 170C199.14 169.52 198.74 166.78 197.76 165.74C191.08 158.74 183.64 177.38 196.76 184.94Z" fill="#000001"/>
<path d="M217.54 176.66C218.42 176.06 218.08 175.18 218.14 174.46C218.24 173.24 217.78 173.08 215.66 169.1C215.34 168.5 217.86 168.12 219.26 168.7C223 170.28 225.26 171.88 227.26 171.3C230.12 170.46 229.14 168.86 229.08 168.06C229.054 167.583 228.858 167.132 228.528 166.787C228.198 166.442 227.755 166.227 227.28 166.18C224.66 165.78 220.54 162.64 216.78 163.68C215.38 164.08 217.16 163.32 218.78 153.68C219.22 150.92 214.34 150.32 213.74 153.68C213.346 156.621 212.635 159.511 211.62 162.3L211.2 161.78C207.92 156.1 208.66 156.52 205.92 156.76C205.66 156.775 205.414 156.879 205.221 157.053C205.028 157.228 204.901 157.463 204.86 157.72C204.4 159.34 204.86 160.38 206.86 164C213.46 175.7 214 179.16 217.54 176.66Z" fill="#000001"/>
<path d="M130.96 300C123.5 311.48 127.52 307.56 122.42 326.74C116.74 348.12 111.14 348.3 111.78 351.66C112.12 353.34 113.78 353.46 114.12 351.52C114.739 350.049 115.545 348.664 116.52 347.4C124.8 335.88 127.86 311.4 128.24 309.84C129.382 306.607 130.949 303.54 132.9 300.72C133.46 299.66 132 298.56 130.96 300Z" fill="#000001"/>
<path d="M59.04 175.52C76.84 173.16 72.86 175.52 76.5 177.36C77.44 177.82 78.3 176.8 77.52 175.68C72.5 168.58 59.52 174.62 51.8 173.12C43.32 171.48 43.44 167.88 35 167.12C34.6134 167.076 34.2241 167.176 33.9067 167.401C33.5893 167.626 33.3662 167.961 33.28 168.34C33.14 169.34 36.12 169.88 37.5 170.12C43.36 171.28 46.28 177.2 59.04 175.52Z" fill="#000001"/>
<path d="M211.84 50.22C210.86 53.52 208.56 57.82 208.7 59.32C208.84 60.82 210.7 61.18 210.98 59.44C211.26 57.7 216.98 48.38 213.9 44.82C211.38 41.88 210.1 41.28 210.14 39.42C210.26 34.26 210.48 34.94 214.7 23.58C215.78 20.7 213 20.46 212.12 22.54C200.66 49.84 214.46 41.42 211.84 50.22Z" fill="#000001"/>
<path d="M231.62 295.76C229.62 295.44 228.86 299.46 231.48 299.52C231.727 299.529 231.973 299.49 232.205 299.404C232.436 299.318 232.649 299.187 232.83 299.019C233.011 298.851 233.157 298.649 233.26 298.424C233.363 298.2 233.421 297.957 233.43 297.71C233.439 297.463 233.4 297.217 233.314 296.985C233.228 296.754 233.097 296.541 232.929 296.36C232.761 296.179 232.559 296.033 232.334 295.93C232.11 295.827 231.867 295.769 231.62 295.76Z" fill="#000001"/>
<path d="M239.76 95.34C239.164 93.8481 239.018 92.2141 239.34 90.64C239.72 87.4 241.68 86.5 245 84.46C245.64 84.06 260.7 79.14 259.24 71.84C257.36 62.36 251.8 55.3 270.12 50.6C273.2 49.82 277.02 47.98 277.56 45.98C278.52 42.4 280.8 35.48 284.36 33.64C286.5 32.54 283 27.42 278.08 36.3C272.8 45.8 278.46 44.52 267.26 48.18C262.48 49.74 260.58 50.34 258.64 52.18C253.78 56.76 252.22 57.72 256.42 72.42C256.72 73.46 255.84 74.56 255.02 75.38C248.2 82.26 234.5 81.38 237.02 94.52C237.82 98.68 240.38 96.62 239.76 95.34Z" fill="#000001"/>
<path d="M188.44 52.36C188.44 52.36 188.44 52.36 188.44 52.48C188.44 52.6 188.5 52.44 188.44 52.36Z" fill="#000001"/>
<path d="M303.1 363C299.86 360.38 299.3 362.64 300.46 363.86C302.193 365.436 304.122 366.78 306.2 367.86C312.2 370.4 313.96 371.36 313.94 369.22C314.48 367.28 308.2 367.16 303.1 363Z" fill="#000001"/>
<path d="M89.6 104.66C89.02 104.94 88.88 106.08 88.98 106.66C89.1456 107.553 89.572 108.378 90.2056 109.029C90.8392 109.681 91.6515 110.13 92.54 110.32C93.76 110.48 94.06 109.4 94.02 108.52C93.98 107.64 91.88 103.54 89.6 104.66ZM91.78 108.38C91.1917 108.041 90.7553 107.49 90.56 106.84C90.56 106.66 90.38 106.32 90.56 106.2C91.14 105.94 92.24 107.42 92.26 107.84C92.28 108.26 92.22 108.6 91.78 108.38Z" fill="#000001"/>
<path d="M198.32 115.08C197.18 113.52 195.92 113.98 195.2 112.2C194.66 110.92 194.34 109.16 192.9 108.44C190.42 107.16 191.18 104.94 189.3 102.84C188.383 101.887 187.534 100.872 186.76 99.8C186.701 99.6744 186.603 99.5714 186.48 99.5064C186.357 99.4415 186.217 99.4182 186.08 99.44C185.939 99.4602 185.808 99.5257 185.707 99.6267C185.606 99.7277 185.54 99.8587 185.52 100C185.1 102.46 188.32 103.12 189.04 105.66C190.8 111.9 191.7 107.1 193.84 113.32C194.52 115.32 196.16 115.1 197.4 116.7C197.84 117.28 199.4 118.16 199.94 117.18C200.48 116.2 198.8 115.74 198.32 115.08Z" fill="#000001"/>
<path d="M177.22 174.3C175.98 176.78 177.22 176.52 187.36 191.66C187.618 192.145 188.022 192.536 188.515 192.779C189.007 193.021 189.563 193.103 190.105 193.013C190.647 192.922 191.146 192.663 191.533 192.274C191.919 191.884 192.174 191.382 192.26 190.84C190.66 185.46 185.64 179.8 180.78 174.24C180 173.26 177.76 173.26 177.22 174.3Z" fill="#000001"/>
<path d="M98.9 241.06C96.9 240.32 85.38 242.86 79.66 245.5C76.5318 247.002 74.1033 249.653 72.88 252.9C68.42 260.22 60 255.54 49.64 260.46C49.1279 260.714 48.7146 261.13 48.4648 261.644C48.215 262.158 48.143 262.741 48.26 263.3C48.4 264 50.16 264.64 50.42 263.14C50.54 262.56 50.6 262.26 54.52 261.4C66.68 258.68 71.04 261.26 75.24 253.14C75.7291 251.756 76.5218 250.498 77.56 249.46C78.5982 248.422 79.8556 247.629 81.24 247.14C85.68 245.32 94.92 242.84 98.48 243.14C100.2 243.24 100.46 241.6 98.9 241.06Z" fill="#000001"/>
<path d="M94 102.18C93.44 102.46 93.26 103.6 93.38 104.06C93.5405 104.956 93.9653 105.783 94.5997 106.435C95.2341 107.087 96.0492 107.535 96.94 107.72C98.16 107.9 98.46 106.82 98.42 105.92C98.38 105.02 96.24 101.04 94 102.18ZM96.18 105.88C95.8852 105.716 95.6257 105.496 95.4164 105.232C95.207 104.967 95.0519 104.664 94.96 104.34C94.96 104.16 94.76 103.82 94.96 103.72C95.54 103.44 96.64 104.94 96.66 105.36C96.68 105.78 96.56 106.12 96.14 105.88H96.18Z" fill="#000001"/>
<path d="M177.38 65.6801C178.7 65.1201 184.14 62.3001 184.18 62.2801C185.88 61.3801 184.66 60.6001 182.94 58.1801C182.34 57.3201 182.94 57.2001 177.28 60.1801C174.92 61.4201 173.98 61.7201 174.38 62.5201C175.032 63.8565 176.079 64.9598 177.38 65.6801Z" fill="#000001"/>
<path d="M76.14 112.34C75.56 112.62 75.4 113.76 75.52 114.24C75.6866 115.131 76.1139 115.952 76.7476 116.6C77.3813 117.248 78.193 117.694 79.08 117.88C80.3 118.06 80.6 116.98 80.56 116.08C80.52 115.18 78.4 111.2 76.14 112.34ZM77.1 114.52C77.1 114.32 76.9 113.98 77.1 113.88C77.68 113.6 78.76 115.1 78.78 115.52C78.9 116.84 77.44 115.66 77.1 114.52V114.52Z" fill="#000001"/>
<path d="M199.76 295.18C200.94 290.78 198.4 290.78 199.12 288.4C200.56 283.76 198.18 283.12 198.98 280.4C199.1 280.02 198.78 279.1 198.2 279.58H198.38C198.38 279.74 196.38 280.18 197.68 284.36C198.66 287.68 195.88 288.64 198.1 292.14C198.42 293.087 198.42 294.113 198.1 295.06C197.48 297.54 198.52 298.24 199.18 300.14C199.52 301.08 199.96 303.1 201.18 302.4C202.4 301.7 200.92 300.4 200.88 299.78C200.72 297.66 199.12 297.52 199.76 295.18Z" fill="#000001"/>
<path d="M162.24 72.4201C162.24 74.1801 164.9 74.8601 164.88 72.8401C164.86 70.8201 162.18 70.5801 162.24 72.4201Z" fill="#000001"/>
<path d="M252.84 205.48C251.36 202.48 248.84 203.02 247.42 200.56C247.16 200.14 246.8 200.26 246.44 200.56C246.08 200.86 246.26 201.2 246.44 201.54C247.42 204.26 250.2 203.82 251.44 206.38C253.58 210.72 254.94 207.96 257 211.22C258.32 213.22 258.08 213.08 263.74 215.44C264.04 215.16 264.48 214.94 264.58 214.62C264.61 214.512 264.619 214.4 264.605 214.289C264.591 214.178 264.555 214.071 264.499 213.974C264.443 213.877 264.368 213.792 264.279 213.725C264.19 213.657 264.088 213.608 263.98 213.58C261.84 212.82 262.24 212.44 260.48 212.04C259.36 211.8 258.86 211.02 258.24 210.04C256 206.46 254.48 208.84 252.84 205.48Z" fill="#000001"/>
<path d="M86.98 111.74C86.82 113.48 89.24 114.22 89.4 111.92C89.446 111.602 89.3646 111.279 89.1736 111.02C88.9827 110.762 88.6975 110.589 88.38 110.54C88.2065 110.511 88.0287 110.52 87.8592 110.567C87.6896 110.614 87.5325 110.698 87.3989 110.812C87.2654 110.927 87.1586 111.069 87.0862 111.229C87.0138 111.39 86.9775 111.564 86.98 111.74V111.74Z" fill="#000001"/>
<path d="M83.42 111.32C83.3531 110.819 83.2044 110.333 82.98 109.88C82.8315 109.655 82.6389 109.462 82.4139 109.313C82.189 109.165 81.9362 109.063 81.6709 109.014C81.4056 108.966 81.1332 108.971 80.8701 109.031C80.607 109.09 80.3587 109.202 80.14 109.36C79.8873 109.746 79.727 110.185 79.6715 110.643C79.616 111.1 79.6668 111.565 79.82 112C79.94 112.14 80.28 112.44 80.46 112.16C80.64 111.88 80.96 110.98 81.28 111.1C81.5203 111.198 81.7172 111.379 81.8347 111.611C81.9522 111.842 81.9825 112.108 81.92 112.36C81.92 112.88 81.52 113.1 81.8 113.44C82.08 113.78 82.88 113 83.32 113.56C83.76 114.12 83.62 114.38 83.5 115.1C83.38 115.82 85.5 117.1 85.5 113.48C85.4 111.22 83.64 112.38 83.42 111.32Z" fill="#000001"/>
<path d="M352.88 358.38C353.02 358.3 353.02 358.32 352.88 358.38V358.38Z" fill="#000001"/>
<path d="M88 108.2C88 106.88 85.34 106.2 85.3 108.1C85.2 109.62 87.86 110.2 88 108.2Z" fill="#000001"/>
<path d="M360.94 376.56C349.54 356.4 354.94 365.94 349.78 331.8C347.52 316.72 339.18 284.64 336.36 268.8C334.2 256.62 332.5 249.7 328.2 243.34C308.2 213.78 315.38 224.3 308.54 211.46C304.009 203.749 298.017 196.996 290.9 191.58C276.24 179.58 282.9 182.12 264.9 167.74C261.7 165.18 253.08 160.7 252.14 159.24C250.78 157.12 243.3 142.42 234.02 127.78C191.36 60.38 196.02 41.58 168.02 54.18C142.9 65.5 137.34 70.86 136.7 68.96C135.6 65.86 134 61.36 132.48 56C125.32 31.2 126.58 38.78 124.16 30.3C119.46 13.74 125.12 28.08 118.34 10.46C118.02 9.90004 115.4 9.72004 115.98 11.86C117.909 16.4185 119.39 21.1542 120.4 26C123.04 37.86 121.64 29.2 128.8 52.56C131.34 60.84 131.66 62.92 134.18 70.14C135.04 72.54 89.22 91.76 73.4 104.44C69.3 107.72 63.12 122.14 64.94 128.6C66.68 134.74 104.42 199.34 104.58 199.72C103.34 199.72 94.46 195.72 89.62 200.8C87.2 203.34 85.88 206.3 87.8 212.04C89.72 217.78 93.42 220.92 96.92 224.04C111.46 236.6 116.38 235.86 122.34 240.04C125.123 241.992 128.099 243.654 131.22 245C132.42 245.32 133.54 249 136.74 254.04C136.9 254.33 137.04 254.631 137.16 254.94L128.94 253.84C123.54 253.1 117.28 255.42 115.7 260.56C115.092 262.33 114.927 264.221 115.22 266.069C115.513 267.917 116.254 269.665 117.38 271.16C119.292 273.863 121.506 276.339 123.98 278.54C140.1 290.16 157.44 291.46 161.16 298.04C171.16 315.64 175.32 322.62 177.48 326.6C180.325 331.956 183.774 336.969 187.76 341.54C189.364 342.981 191.351 343.926 193.481 344.259C195.611 344.593 197.792 344.302 199.76 343.42C210.6 339.06 207.76 337.16 210.56 339.58C220.04 347.58 225.88 358.32 234.34 364.92C244.34 372.76 253.56 372 255.06 373.44C257.28 375.44 257.22 376.3 262.08 388.58C262.7 390.18 262.88 390.26 264.4 389.44C265.16 389.02 266 389.8 260.4 377C258.4 372.28 257.9 373.72 262.92 374.2C264.02 374.2 265.36 373.64 264.92 372.6C264.48 371.56 264.06 371.36 258.52 370.6C233.12 366.6 235.54 360.98 218.52 343.32C216.675 341.344 214.733 339.462 212.7 337.68C212.04 337.1 212.22 337.06 213.04 336.6C274.46 301.8 270 304.2 270 305.16C270.48 329.68 275.82 336.16 291.68 352.18C295.92 356.48 308.66 361.86 309.92 361.76C310.66 361.76 311.16 361.4 311.28 360.8C311.6 359.06 310.96 359.36 306.5 357.38C299.84 354.42 294.14 352.38 284.32 340.44C276.7 331.18 276.8 328.94 274.32 321.48C272.5 315.82 273.08 310.68 272.62 304.4C270.74 278.84 274.62 272.14 270.84 271.22C263.12 269.22 268.32 273.22 239.98 261.36C234.48 259.06 225.28 263.86 211.62 265.56C205.38 266.34 192.6 264.28 189.18 259.16C184.88 252.78 191.56 245.98 191.18 248.78C189.84 259.1 214.3 260.36 212.38 240.58C212.24 239.16 210.12 238.9 210.26 240.74C210.96 250.6 205.04 254.9 196.58 253.18C191.82 252.22 193.06 246.22 193.94 245.7C213.36 233.96 216.62 235 231.8 232.04C240.4 230.38 239.8 229.92 238.8 232.04C237.917 233.843 237.439 235.817 237.397 237.824C237.356 239.83 237.752 241.822 238.56 243.66C238.9 244.36 240.2 244.42 240.3 243.44C240.48 241.78 237.92 238.52 240.96 231.88C242.04 229.48 241.62 230.02 243.94 229.52C245.06 229.3 244.68 229.2 244.76 233.52C244.76 235.16 246.48 235.68 246.48 233.24C246.48 229.82 246.16 229.02 247.36 228.88C263.96 226.88 272.64 228.36 291.56 230.56C300.16 231.56 302.32 232.78 309.66 235.56C309.949 235.698 310.281 235.715 310.583 235.608C310.885 235.502 311.132 235.279 311.27 234.99C311.408 234.701 311.425 234.369 311.318 234.067C311.212 233.765 310.989 233.518 310.7 233.38C306.555 231.432 302.236 229.879 297.8 228.74C286.16 226.34 294.88 231.86 281.8 211.94C280.76 210.38 255.48 164.68 255.44 164.68C255.4 164.68 260.6 167.94 263.44 170.18C273.74 178.18 275.92 181.74 280.32 186.18C288.46 194.32 297.06 199.68 302.18 207.18C312.6 222.42 306.66 217.18 318.3 233.84C335.1 257.98 328.6 251.7 337.56 287.58C353.9 352.98 346.26 354.5 353.7 369.22C356.825 375.369 360.345 381.308 364.24 387C364.88 387.9 366.76 387.28 366.42 386.1C365.48 383.14 366.92 387.14 360.94 376.56ZM210 92C212.26 96.16 215 100.82 215.38 101.52C216.24 103.06 213.76 102.38 213.12 106.34C213.045 107.562 212.7 108.753 212.108 109.825C211.517 110.897 210.694 111.825 209.7 112.54C203.06 117.4 203 117.48 201.4 117.84C197.72 118.64 197.2 121.56 193.2 121.46C190.42 120.58 191.2 120.88 190.62 120.28C192.36 119.22 194.78 118.84 193.98 117.58C193.44 116.7 192.5 117.58 190.68 118.28C188.16 119.2 186.08 118.62 185.18 116.14C184.64 114.68 187.18 114.04 188.48 113.06C189.02 112.66 189.34 112.2 189.1 111.58C188.86 110.96 188.32 111.26 187.48 111.58C185.48 112.48 182.18 114.66 180.48 111.84C178.78 109.02 179.18 110.36 185.52 105.84C186.2 105.36 185.96 103.66 182.72 105.56C181.399 106.523 179.934 107.272 178.38 107.78C177.849 107.951 177.278 107.958 176.743 107.801C176.208 107.643 175.732 107.328 175.378 106.897C175.025 106.465 174.809 105.937 174.759 105.381C174.71 104.825 174.828 104.267 175.1 103.78C176.56 101.52 176.6 101.12 177.1 100.78C181.1 98.44 181.1 96.78 182.42 97.02C181.57 98.5209 180.394 99.8125 178.98 100.8C178.787 100.872 178.63 101.018 178.544 101.205C178.457 101.392 178.449 101.606 178.52 101.8C178.94 103.08 181.32 101.6 182.3 100.22C184.3 97.3 187.82 96.76 190.3 92.76C192.94 88.4 189.12 85.9 186.56 83.42C184.56 81.54 183.64 77.9 185.38 75.8C185.74 75.34 185.96 75.26 188.84 79.28C191.72 83.3 194.84 83.54 196.2 85.02C196.952 85.8604 197.622 86.7712 198.2 87.74C200.2 90.64 204.62 89.26 206.42 87.42C207.62 86.36 207.44 87.28 210 92ZM137.84 82.4C138.94 85.76 139.04 85.9 138.46 86.4C134.8 89.92 139.42 96.22 144.58 93.16C146.58 91.92 147.48 85.16 142.78 85C141.8 85 141.12 84.66 140.98 83.52C140.8 81.76 139.44 80.66 140.98 80.22C145.44 79.04 150.98 82.56 151.38 88.82C150.22 94.06 149.6 94.82 150.8 96.82C151.24 97.54 150.8 97.74 148.52 99.74C148 100.2 147.76 99.98 145.98 98.38C145.32 97.78 141.98 98.56 139.34 97.92C137.57 97.6321 135.936 96.7942 134.668 95.5253C133.401 94.2564 132.566 92.6208 132.28 90.8504C131.995 89.08 132.274 87.2647 133.078 85.6618C133.882 84.0589 135.17 82.7498 136.76 81.92C137.56 81.62 137.58 81.62 137.84 82.4ZM142 88C141.84 86.24 144.18 87.08 144.14 89.42C144.14 92.62 141.4 92.6 139.68 91.08C138.96 90.44 139.2 89.56 139.26 88.76C139.26 88.76 139.66 88.52 139.86 88.52C140.06 88.52 140.16 88.74 140.3 88.88C140.454 89.0208 140.648 89.1109 140.854 89.1382C141.061 89.1655 141.272 89.1287 141.457 89.0328C141.642 88.9368 141.794 88.7864 141.891 88.6017C141.988 88.4171 142.026 88.2071 142 88V88ZM186.36 139.34C194 135.34 213.48 123.78 215.54 122.56C219.54 120.2 218.54 123.68 230 142.02C230.9 143.48 252.6 181.92 251.54 181.7C247.26 180.76 246.78 179.7 242.12 176.16C240.36 174.8 237.78 176.94 238.38 180.4C240.12 190.4 254 185.26 244.74 197.42C244.48 197.76 243.18 197.42 242.26 197.42C239.8 197.68 240.44 199.92 237.32 202.68C236.577 203.705 236.049 204.869 235.768 206.103C235.486 207.336 235.456 208.614 235.68 209.86C236.46 212.3 243.24 207.86 189.12 238.24C171.74 248 173.9 247.82 161.38 254.24C159.92 254.98 160.22 254.24 155.02 245.24C110.78 168.34 110.52 184.36 125.26 174.7C134.72 168.5 142.36 163.6 177.16 144.3C178.96 143.3 177.52 154.3 172.7 158.64C172.08 159.22 172.52 158.64 171.16 156.64C170.6 155.76 169.68 157.08 169.96 157.52C171.64 160.2 167.12 160.8 168.54 163.94C168.96 164.88 168.14 167.66 170.82 167.28C171.263 167.191 171.72 167.204 172.157 167.318C172.593 167.432 172.998 167.645 173.34 167.94C175.34 169.54 185.66 161.22 186.46 146.52C186.74 141.58 184.76 140.18 186.36 139.34ZM140.16 144.76C145.94 148.4 140.4 142.86 149.1 157.14C145.1 159.54 145.1 159.78 144.82 159.14C144.82 159.14 141.98 153.92 140.14 150.1C136.9 143.36 133.42 132.44 133.56 130.1C134.58 130.72 142.48 139.58 148.32 141.98C148.632 142.076 148.919 142.24 149.16 142.46C146.385 143.533 143.371 143.831 140.44 143.32C139.52 143.38 139.36 144.26 140.16 144.76V144.76ZM177.6 163.36C176.68 164.26 174.64 166.62 173.6 165.84C171.98 164.72 170.54 165.84 170.74 164.98C171.08 163.34 169.24 163.18 170.44 162.36C174.2 159.82 174.72 159.76 176.8 156.36C178.553 153.14 179.494 149.541 179.543 145.875C179.592 142.209 178.747 138.586 177.08 135.32C171.42 123.48 152.2 106.54 153.48 105.56C158.26 101.82 153.28 100.68 168.82 116.84C177.76 126.14 183.44 133.22 184.82 145.18C185.045 148.557 184.514 151.941 183.265 155.086C182.016 158.231 180.08 161.058 177.6 163.36V163.36ZM152.36 104.34C151.9 104.62 151.64 104.34 151.4 104.04C151.16 103.74 151.04 104 154 101.34C154.54 100.86 154.24 100.8 155.32 101.62C154.544 102.733 153.534 103.661 152.36 104.34V104.34ZM150.36 102.16C149.76 102.48 149.64 101.98 149.4 101.7C149.16 101.42 148.96 101.7 151.96 99.02C152.42 98.62 152.46 98.84 153.02 99.44C152.42 100.575 151.512 101.518 150.4 102.16H150.36ZM126.36 239.48C111.52 230.06 113.86 234.8 97.84 221.3C93.28 217.44 89.84 213.48 89.72 207C89.72 204.56 90.94 203.28 92.76 201.62C93.7 200.78 97.54 200.86 98.76 200.9C101.172 201.292 103.542 201.908 105.84 202.74C107.36 203.14 107.1 203.66 112.22 212C134 247.6 129.54 241.52 126.32 239.48H126.36ZM119.38 268.88C115.38 263.18 119.9 255.24 128.7 256.4C142.04 258.16 138.18 257.78 140.88 261.3C141.68 262.34 157.58 291.96 157.54 291.92C138.4 282.24 130.26 284.1 119.34 268.88H119.38ZM268.98 302C267.4 302.84 226.42 326.38 217.48 331.26C186.3 348.3 195.08 350.16 161.74 293.98C158.92 289.26 123.02 223.98 113.98 209.78C93.36 177.26 81.28 152 73.78 140.34C73.64 140.34 67.78 130.94 67.78 128.82C67.7997 128.734 67.7997 128.646 67.78 128.56C65.94 125.6 68.34 119.12 68.86 120.32C71.96 127.42 71.88 127.04 85.18 149.6C86.68 152.14 96.58 170.44 103.18 181.88C113.3 199.46 115.04 199.26 140.82 245.68C142.92 249.46 153.06 267.16 163.98 286.6C176.62 309.08 180.26 317.3 189.4 329.46C194.54 336.32 197.88 335.46 201.1 334.52C207.1 332.7 221.1 324.64 268.86 297.58C269.3 297.32 269.44 297.38 269.46 297.94C269.4 301.26 270 301.48 268.98 302ZM90.84 150.6C91.14 150.6 97.82 147.5 95.2 143.1C93.1 139.56 95.68 137.46 94.06 131.96C92.44 126.46 92.06 126.62 93.26 126.54C95.26 126.42 98.44 128.54 98.78 133.68C99.46 144 109.28 139.2 112 138.34C113.22 137.96 119.5 137.64 118.2 135.76C117.66 134.98 117.1 135.56 116.5 135.76C115.061 136.148 113.564 136.277 112.08 136.14C112.08 135.56 112.9 135.32 113.16 135.3C114.902 135.158 116.607 134.718 118.2 134C125.8 133.04 124.98 137.66 123.32 138.96C120.96 140.96 115.94 142.34 116.74 143.48C117.06 143.96 117.34 144.12 120.74 142.7C123.14 141.7 124.08 140.3 124.9 141.86C125.72 143.42 126.26 145.46 124.32 146.76C121.64 148.56 119.82 149.08 120.32 150.04C121.3 152.04 125.54 146.9 126.66 149.82C128.66 155.34 121.54 155.66 122.52 157.48C123.5 159.3 126.68 154.8 126.76 156.74C126.57 157.955 126.012 159.082 125.161 159.969C124.309 160.856 123.206 161.461 122 161.7C118.18 162.64 119.04 163.98 116.26 164.92C114.44 165.56 109.4 167.92 106.36 167.92C102.54 167.92 101.64 165.12 97.84 166.44C97 166.72 97.7 167 89.42 152.24C88.84 151.22 89.04 151.56 90.78 150.6C90.9 150.64 90.88 150.66 90.84 150.6ZM208.46 271.08C208.16 268.96 207.64 268.58 208.46 268.52C212 268.3 212.16 268.14 212.46 268.7C213.9 271.64 214.92 272.22 214.88 275.12C214.88 279.84 218.68 281.12 223.26 280.24C224.86 279.92 224.82 279.92 224.92 281.58C224.92 281.58 225.68 291.58 225.12 291.58C225.12 297.44 225.32 297.44 224.66 297.58C223.906 297.719 223.145 297.819 222.38 297.88C217.46 297.88 218.24 302.58 212.38 303.46C200.52 305.24 202.38 302.62 198.18 303.46C195.54 303.98 192.06 302.86 191.48 300.18C194.26 300.52 195.74 300.96 195.8 299.74C195.8 297.94 188.7 299.86 188.88 294.42C188.98 291.68 192.54 293.7 194.36 292.78C194.92 292.52 195.44 291.42 192.98 291.22C190.1 291 187.4 290.8 187.22 287.92C186.96 284.2 187.54 285.92 194.68 285.28C194.815 285.297 194.952 285.268 195.068 285.197C195.184 285.126 195.273 285.018 195.32 284.89C195.366 284.762 195.368 284.622 195.324 284.493C195.281 284.364 195.195 284.254 195.08 284.18C193.08 282.86 189.08 284.46 186.58 282.82C186.2 282.568 185.889 282.226 185.674 281.825C185.458 281.424 185.346 280.975 185.346 280.52C185.346 280.065 185.458 279.616 185.674 279.215C185.889 278.814 186.2 278.472 186.58 278.22C189.36 276.56 189.9 276.52 190.7 276.54C194.38 276.54 194.42 275.46 196.42 275.9C197.7 276.18 193.1 277.68 191.72 277.58C190.72 277.58 190.3 278.8 191.46 279.1C192.917 279.325 194.407 279.109 195.74 278.48C197.62 277.64 209.58 278.94 208.46 271.08ZM277.4 208.94C279.96 214.28 287.86 227.38 287.88 227.42C286.5 227.66 273.22 225.58 270.86 225.42C255.72 224.46 250.98 225.76 227.66 229.94C218.26 231.64 212.2 232.68 202.28 237.82C195.08 241.56 190.28 244.08 187.02 248.32C185.687 250.016 184.924 252.09 184.842 254.245C184.759 256.401 185.36 258.527 186.56 260.32C192.04 268.5 205.74 267.86 206.28 269.24C208.52 274.8 204.28 275.48 199.36 276.24C198.56 276.36 197.7 273.22 195.12 274.04C191.42 275.24 190.28 274.38 188.98 275C185.82 276.52 183.12 277.6 183.72 281.66C184.08 284.12 186.1 284.08 185.72 285.08C185.367 286.025 185.244 287.041 185.363 288.042C185.481 289.044 185.837 290.003 186.4 290.84C186.66 291.32 187.94 292.06 187.76 292.26C186.82 293.42 187.26 294.7 187.4 295.96C187.72 298.76 189.86 298.62 189.82 299.66C189.7 302.52 191.38 303.42 194 304.8C196.62 306.18 199.72 304.8 201.28 305.42C203.86 306.4 215.68 306.22 218.74 302.26C219.219 301.434 219.908 300.749 220.737 300.275C221.566 299.801 222.505 299.554 223.46 299.56C224.26 299.56 223.9 299.86 224.64 302.5C225.18 304.36 226.08 304.92 232.5 304.5C243.82 303.78 242 308.34 242.12 282C242.103 279.649 241.62 277.324 240.7 275.16C239.84 273.04 237.36 273.84 229.36 273.68C227.2 273.68 224.6 273.38 223.84 275.56C222.84 278.46 222.98 278.5 222.4 278.62C220 279.14 217.1 278.46 216.88 275.98C216.898 273.458 216.137 270.993 214.7 268.92C213.94 267.78 213.32 268.46 228.24 265.24C233.86 264.04 236.24 262.66 241.9 265.02C255.16 270.54 258.82 272.84 269.9 273.94C270.32 273.94 270.46 274.12 270.44 274.54C268.92 295.28 270.02 293.96 268.88 294.54C212.88 325.44 200.36 337.32 193.62 330.68C187.84 324.98 179.9 310.34 179.04 308.8C162.02 277.18 149.44 255.36 139.04 237.3C134.1 228.74 129.42 220.18 125.36 213.3C116.88 199.14 109.98 188.34 102.54 175.3C98 167.48 97.88 168.22 99.44 168C101.66 167.7 102.52 170 106.54 169.8C108.54 169.8 109.58 169.52 117.34 166.48C119.34 165.66 119.72 164.28 122 163.7C125.86 162.7 129.76 158.56 128 154.98C127.42 153.74 129.68 153.34 128.4 149.62C128.319 149.139 128.14 148.68 127.876 148.271C127.611 147.862 127.265 147.511 126.86 147.24C126.24 146.92 129.46 144.08 125.62 139.78C124.96 139.04 127.86 135.98 124.2 133.08C122.982 132.415 121.628 132.037 120.242 131.975C118.855 131.913 117.473 132.167 116.2 132.72C113.34 133.94 110.58 132.86 109.96 136.72C109.96 137.04 109.96 137.26 109.54 137.36C95.26 141.36 104.58 132.26 96.58 125.76C95.9725 125.239 95.2444 124.879 94.4619 124.711C93.6795 124.543 92.8676 124.574 92.1 124.8C89.22 125.66 91.38 128.54 92.5 133.48C93.28 136.94 91.52 138.58 93.26 143.28C94.62 146.92 92.5 147.84 88.88 149.28C88.14 149.6 87.96 149.5 87.58 148.82C73.22 123.14 75.76 128.7 74.84 126.6C73.02 122.44 64.46 113.74 78.46 103.42C84.46 99.02 132.36 74.76 134.46 73.74C135.36 73.28 135.14 72.76 136.9 78.72C137.36 80.32 131.88 81.08 130.64 87.38C129.24 94.52 135.36 101.04 143.7 99.74C145.56 99.44 143.7 101.3 146.64 101.74C149 102.16 147.42 103.74 148.88 103.96C150.68 104.12 149.54 106.3 151.04 106.28C151.38 106.28 151.04 106.28 165.04 121.68C172.58 129.92 172.76 129.68 177.04 139.2C177.281 139.786 177.422 140.408 177.46 141.04C177.46 141.24 151.16 156.82 150.46 155.58C149.76 154.34 148.46 152.62 147.7 151.08C146.94 149.54 145.86 147.48 144.9 145.7C144.38 144.7 145.58 145.7 149.38 144.2C150.98 143.58 152.38 142.68 151.1 141.52C149.24 139.84 147.6 140.58 141.96 135.4C135.96 129.92 132.28 125.8 132.12 128.74C131.48 139.22 143.48 160 143.5 160C144.08 161.14 115.12 176.48 113.1 179.42C112.4 180.44 120.72 193.42 129.1 206.7C137.1 219.2 143.1 230.7 158.62 256.1C160.74 259.56 158.18 257.92 231.64 216.92C238.52 213.08 238 212.92 239.14 213.04C239.76 213.04 240.52 212.78 241.02 213.04C241.52 213.3 241.52 214.14 241.92 214.58C245.56 218.58 247.62 216.2 247.8 217.14C248.06 218.66 249.36 219.26 250.42 220.08C250.903 220.402 251.449 220.616 252.023 220.706C252.596 220.795 253.182 220.759 253.74 220.6C254.96 220.4 255.44 222.98 258.86 222.08C262.28 221.18 262.3 221.38 265.04 218.08C267.04 215.74 267.46 217.04 270.22 213.72C272.231 211.64 274.051 209.384 275.66 206.98C276 206.52 276.22 206.48 277.4 208.94ZM240.22 300.46C240.62 303.06 235.66 302.3 235.64 302.24C234 302.38 226.6 303.24 226.82 302.24C227.58 298.4 226.98 285.74 226.6 280.1C226.24 275.02 225.76 275.38 226.82 275.36C227.913 275.336 229.005 275.423 230.08 275.62C235.24 276.52 238.9 274.08 239.56 277.1C239.972 278.511 240.194 279.97 240.22 281.44C240 288.66 240.22 300.44 240.22 300.46V300.46ZM272.42 200.32C275.16 205.14 276.8 203.8 267.84 213.82C266.56 215.26 265.04 214.8 263.26 217.44C262.588 218.557 261.571 219.424 260.362 219.911C259.153 220.398 257.818 220.479 256.56 220.14C255.14 219.7 260.26 218.02 258.96 216.52C258 215.42 257.2 217.86 253.54 218.94C252.806 219.005 252.069 218.849 251.424 218.493C250.78 218.137 250.256 217.596 249.92 216.94C249.48 215.96 250.12 215.76 252.28 213.52C253.66 212.1 252.76 210.9 251.26 212.06C247.54 214.94 246.2 216.74 243.26 212.54C242.72 211.8 243.88 211.86 247.94 207.06C248.48 206.4 247.94 205.54 247.2 206.02C243.84 208.16 244.22 208.92 241.78 210.44C241.35 210.787 240.826 211 240.276 211.053C239.725 211.105 239.172 210.994 238.683 210.734C238.195 210.474 237.794 210.076 237.531 209.59C237.267 209.104 237.152 208.551 237.2 208C238.12 205 238.12 204.62 239.04 203.72C241.4 201.44 241.54 199.38 242.78 199.3C242.383 200.999 241.549 202.564 240.36 203.84C239.66 204.42 240.36 206.38 242.24 204.32C244.12 202.26 243.52 201.5 245.08 199.88C249.3 195.44 249.28 193.66 249.86 191.74C248.64 184.46 241.62 187.44 240.36 180.56C240.255 179.838 240.303 179.102 240.5 178.4C240.68 177.58 240.92 177.58 241.54 178.08C252.9 187.12 248.52 180.54 256.04 186.62C258.76 188.82 261.26 186.88 263.52 184.92C264.56 184 268.78 193.88 272.42 200.32V200.32ZM262.74 182.66C261.2 185.1 258.18 186.66 256.74 184.66C252.38 178.66 255.9 182.04 233.74 143.92C217.88 116.64 219.14 118.82 217.3 119.64C215.46 120.46 185.78 137.02 185.74 137.04C184.26 137.92 185.74 135.04 176.7 123.32C173.16 118.72 166.4 111.94 160.7 105.62C158.88 103.62 157.7 101.84 156.18 100.28C154.66 98.72 155.56 98.56 154.64 98.28C153.38 97.88 153.62 97.36 153.5 96.28C153.38 95.2 152.14 96.08 151.96 95.52C151.78 94.96 151.48 94.76 151.68 94.18C152.184 92.8264 152.552 91.4263 152.78 90C153.136 87.5285 152.581 85.0119 151.22 82.9186C149.859 80.8252 147.783 79.2976 145.38 78.62C140.84 77.5 140 79.68 139.38 77.52C139.1 76.68 138.3 73.92 138.3 73.82C138.3 71.98 134.3 73.82 150.68 65.44C187.8 46.4 183.62 46.16 206.22 84.7C206.5 85.18 206.5 85.44 205.96 85.82C198.88 90.74 200.58 84.58 194.82 81.82C191.54 80.32 190.3 78.12 187.48 74.5C184.66 70.88 179.36 78.82 185.7 84.84C187.98 87.02 189.3 87.44 189.54 89.8C189.78 92.16 186.58 94.36 184.88 95.8C184.56 96.04 183.56 95.44 182.76 95.28C180.12 94.76 180.38 96.96 176.34 99.28C175.112 100.497 174.116 101.927 173.4 103.5C173.129 104.167 173.012 104.887 173.06 105.605C173.107 106.324 173.316 107.022 173.673 107.648C174.029 108.274 174.522 108.81 175.116 109.218C175.71 109.625 176.388 109.893 177.1 110C178.48 110.14 176.56 112.24 181.22 115.08C181.74 115.4 183.22 115.28 183.22 115.74C183.394 116.999 183.992 118.161 184.915 119.034C185.839 119.907 187.033 120.438 188.3 120.54C189.18 120.54 189.26 123.22 193.02 123.2C194.215 123.33 195.425 123.195 196.562 122.804C197.7 122.414 198.737 121.777 199.6 120.94C202 119.08 202.48 120.22 204.64 118.68C212.98 112.68 213.78 113.26 215.38 105.9C215.436 105.685 215.516 105.477 215.62 105.28C216.36 103.96 216.76 103.92 217.5 105.28C217.42 105.14 263.36 181.68 262.74 182.66V182.66Z" fill="#000001"/>
<path d="M104.6 95.66C103 98.16 102.46 99.26 100.6 102C100.3 102.44 100.38 103.28 101.5 103.1C102.3 102.96 103.34 102.26 104.06 103.22C107.12 107.22 106.78 103.6 106.58 95.6C106.6 94.38 105.48 94.28 104.6 95.66Z" fill="#000001"/>
<path d="M251.82 248C252.8 248.32 253.2 247.68 253.46 246.64C254.8 241.42 256.68 235.56 254.38 231.66C254.22 231.464 253.997 231.329 253.75 231.278C253.502 231.227 253.244 231.263 253.02 231.38C252.834 231.547 252.709 231.772 252.665 232.019C252.622 232.265 252.662 232.519 252.78 232.74C255.26 236.68 250.32 247.56 251.82 248Z" fill="#000001"/>
<path d="M164.68 67.3001C163.12 68.1001 165.04 70.6601 166.36 71.8001C166.586 71.9584 166.854 72.0434 167.13 72.0434C167.406 72.0434 167.674 71.9584 167.9 71.8001C169.1 70.9401 166.4 66.4201 164.68 67.3001Z" fill="#000001"/>
<path d="M168 63.44C166.82 63.66 166.98 65.72 167.66 66.7C170 69.8 170.34 70 170.98 70C172.86 70 172.98 68.74 171.88 67.26C169.36 63.68 169.34 63.2 168 63.44Z" fill="#000001"/>
<path d="M167.2 72.18C167.36 72.3 167.3 72.18 167.46 72.18C167.3 72 167.36 72 167.2 72.18Z" fill="#000001"/>
<path d="M114.62 148.12C116.38 149.86 114.74 151.52 116.12 153.44C117.5 155.36 117.96 155.44 117.96 160.84C117.96 162.32 119.62 162.34 119.74 160.96C119.86 159.58 119.54 158.26 119.6 157.44C119.7 156.16 119.6 155.44 117.84 153.02C116.56 151.28 118.24 149.56 116.46 147.78C113.52 144.82 115.3 142.68 112.92 140.28C112.24 139.58 110.92 140.14 111.8 141.18C113.38 143.28 112 145.54 114.62 148.12Z" fill="#000001"/>
</svg>
