<svg width="400" height="400" viewBox="0 0 400 400" fill="none" xmlns="http://www.w3.org/2000/svg">
<g clip-path="url(#clip0_902_8722)">
<path d="M138.856 294.482C142.518 296.8 148.856 292.408 152.646 289.6C154.964 287.892 165.824 277.276 163.628 273.736C162.649 272.26 161.715 270.755 160.828 269.222C165.828 266.538 167.174 258.24 165.098 252.992C163.022 247.744 158.632 243.84 154.36 240.178C146.306 233.346 138.374 226.512 130.32 219.678C124.828 214.918 119.094 210.16 112.138 207.962C105.182 205.888 96.64 207.108 92.368 212.962C88.22 218.576 89.074 226.264 91.27 232.854C96.518 248.594 107.988 261.774 112.016 277.76C113.236 282.276 113.968 287.4 117.508 290.33C123.364 295.33 130.198 295.576 136.666 291.062C137.002 292.411 137.771 293.612 138.856 294.482Z" fill="#FDB849"/>
<path d="M147.276 293.262C152.663 290.451 157.402 286.543 161.188 281.79C162.634 280.158 163.642 278.185 164.116 276.056C164.2 275.831 164.222 275.588 164.179 275.351C164.136 275.115 164.03 274.895 163.872 274.714C163.384 274.226 162.53 274.47 161.798 274.714C157.118 276.911 152.765 279.744 148.862 283.134C145.568 285.934 139.588 290.578 140.32 295.458C142.765 295.213 145.133 294.465 147.276 293.262Z" fill="black"/>
<path d="M53.5579 196.736C46.9661 205.466 38.8658 212.946 29.6399 218.824C24.3919 222.24 18.6559 225.048 14.3859 229.806C8.16194 236.64 6.08794 246.406 7.18594 255.554C8.16194 264.706 12.0679 273.248 16.3379 281.424C26.2533 300.007 39.1591 316.832 54.5379 331.224C85.2899 330.246 112.99 333.542 143.62 330.734C140.639 319.521 139.77 307.852 141.056 296.322C142.4 284.974 149.598 268.988 146.548 257.884C143.864 248.364 136.908 240.92 130.562 233.356C121.951 223.151 114.196 212.253 107.376 200.774C104.74 205.239 101.157 209.071 96.8779 212C93.0107 214.892 88.2814 216.397 83.4539 216.27C79.8469 215.746 76.3937 214.456 73.3259 212.488C66.01 208.22 59.3514 202.914 53.5579 196.736Z" fill="#FFD340"/>
<path d="M11.824 366.6C50.872 356.838 91.386 369.284 131.168 375.02C197.288 384.361 264.702 375.195 325.928 348.54C356.558 335.116 386.328 314.126 400 283.62C337.276 284.84 272.356 267.02 212.318 285.45C144.718 306.194 77.154 326.939 9.62598 347.684C9.80758 354.041 10.543 360.371 11.824 366.6Z" fill="#008C6E"/>
<path d="M189.742 289.478C185.838 288.38 181.932 286.794 177.906 287.038C175.889 287.383 173.833 287.424 171.804 287.16C169.528 286.43 167.528 285.026 166.068 283.134L160.578 277.642C156.941 279.604 153.542 281.979 150.45 284.72C147.365 287.389 144.871 290.672 143.128 294.36C147.154 298.76 154.476 305.83 155.94 306.93C159.48 309.73 163.872 308.272 168.022 308.15L214.88 307.052C214.759 302.588 215.378 298.134 216.712 293.872C207.603 293.263 198.573 291.792 189.742 289.478Z" fill="#DD4040"/>
<path d="M195.356 338.778L268.452 315.594L227.694 310.834L156.794 329.748L195.356 338.778Z" fill="#643CFF"/>
<path d="M195.356 334.874L268.452 311.688L227.694 306.93L156.794 325.844L195.356 334.874ZM169.73 331.336C174.162 331.906 178.336 333.739 181.755 336.617C185.173 339.494 187.692 343.294 189.01 347.564C183.886 353.422 175.344 354.398 167.534 354.52C158.995 354.989 150.43 354.416 142.03 352.812C139.982 352.501 138.025 351.75 136.294 350.612C135.441 350.055 134.739 349.295 134.25 348.401C133.762 347.506 133.502 346.505 133.494 345.486C133.771 343.463 134.821 341.627 136.424 340.362C145.324 331.702 157.16 330 169.73 331.336Z" fill="#9778FF"/>
<path d="M63.7999 299.974C66.3619 291.066 61.9699 281.174 58.6739 273.004C55.8272 265.457 52.1436 258.254 47.6919 251.528C45.5252 251.181 43.3683 250.774 41.2239 250.308C40.0696 256.593 38.4797 262.791 36.4659 268.856C34.6624 275.95 33.3974 283.171 32.6819 290.456C32.0819 295.214 31.5839 299.856 31.2179 304.61C37.4211 313.026 44.2762 320.942 51.7199 328.284C52.0421 325.513 52.6137 322.776 53.4279 320.108C54.6532 316.296 56.4199 312.68 58.6739 309.37C60.827 306.502 62.5536 303.337 63.7999 299.974Z" fill="black"/>
<path d="M117.38 343.172C122.26 349.03 130.802 350.86 138.246 349.152C139.928 348.67 141.64 348.303 143.372 348.054C147.032 347.81 150.572 349.518 154.11 350.738C157.648 351.958 163.384 353.3 165.824 350.128C168.998 350.86 171.072 350.494 173.024 347.928C174.263 348.119 175.531 347.915 176.648 347.345C177.765 346.776 178.675 345.869 179.248 344.754C172.414 339.63 164.482 334.504 156.062 333.154C157.77 330.834 162.286 331.324 165.092 332.056C167.656 332.666 171.194 334.256 173.878 334.13C175.039 334.064 176.166 333.718 177.164 333.123C178.163 332.528 179.003 331.701 179.614 330.712C175.832 329.004 172.17 327.296 168.388 325.712C164.523 323.833 160.474 322.358 156.306 321.312C143.006 318.628 129.706 325.218 117.624 331.564C116.036 334.752 115.06 340.366 117.38 343.172Z" fill="#F7846C"/>
<path d="M148.13 341.342C151.548 342.806 153.622 343.294 156.55 344.88C159.602 346.588 165.824 350.128 165.824 350.128C166.576 350.359 167.357 350.482 168.144 350.494C163.018 345.246 148.374 341.098 148.13 341.342ZM153.256 337.558C156.945 338.437 160.542 339.663 164 341.22C167.285 343.012 170.321 345.228 173.03 347.81C173.7 348.054 174.436 348.054 175.106 347.81C172.325 345.225 169.253 342.973 165.952 341.098C161.978 339.137 157.672 337.936 153.256 337.558Z" fill="#DD4040"/>
<path d="M15.3619 234.322C21.5859 231.636 29.1619 234.688 33.5439 239.934C37.8159 245.182 39.1579 252.26 40.6219 258.85C46.4799 285.086 44.7719 301.316 48.9199 323.77C61.9815 324.749 74.9779 326.46 87.8479 328.894C102.492 331.824 116.158 331.094 133.248 327.43C132.028 333.166 126.66 340.854 123.608 345.978C100.544 343.05 77.6079 347.076 54.4179 349.152C47.2179 349.762 32.8179 350.982 29.7679 347.076C28.3039 345.246 27.3279 338.046 26.8379 335.728C26.3499 333.166 25.3739 330.602 24.6379 328.04C22.5639 320.84 20.4899 313.762 18.5359 306.564C13.8999 289.722 9.38391 272.638 8.65191 255.188C8.03991 246.89 7.91791 237.494 15.3619 234.322Z" fill="#F7846C"/>
<path d="M35.742 347.81C36.84 342.81 34.52 337.314 28.42 340.732C28.1496 340.851 27.9019 341.016 27.688 341.22C27.9384 343.283 28.6023 345.275 29.64 347.076C31.2162 348.505 33.2493 349.328 35.376 349.396C35.498 348.786 35.62 348.298 35.742 347.81Z" fill="#DD4040"/>
<path d="M19.024 322.548C23.5518 323.129 28.149 322.84 32.568 321.694C35.368 321.206 46.114 317.912 50.384 313.396C51.116 311.444 49.042 308.882 48.92 307.052C54.534 306.93 59.536 300.096 60.026 294.482C60.516 288.868 58.316 283.378 56.12 278.252C51.972 268.49 47.944 258.852 43.796 249.088C40.996 242.376 38.06 235.542 32.812 230.538C27.564 225.534 19.39 222.85 12.922 226.138C6.81996 229.31 4.01396 236.632 3.03796 243.466C0.717956 259.818 4.98996 276.78 1.57196 293.01C0.595956 297.524 -0.990044 302.41 0.839956 306.81C3.89196 314.01 9.86996 317.182 17.68 316.084C17.436 317.8 17.924 322.426 19.024 322.548Z" fill="#FFD340"/>
<path d="M128.85 97.038C120.674 94.838 111.65 99.478 107.128 107.41C105.304 110.691 104.143 114.299 103.712 118.028C103.346 120.904 103.346 123.816 103.712 126.692C104.311 130.474 105.839 134.049 108.161 137.095C110.482 140.141 113.524 142.562 117.012 144.142C120.417 145.414 124.118 145.676 127.668 144.895C131.219 144.115 134.468 142.325 137.026 139.742C148.496 128.4 144.714 101.308 128.85 97.038Z" fill="#643CFF"/>
<path d="M122.138 155.49C120.064 164.398 122.504 173.794 125.556 182.458C128.608 191.122 132.388 199.786 133.12 208.94C133.852 218.094 130.8 228.22 123 233.102C125.414 230.503 126.975 227.228 127.476 223.716C127.976 220.205 127.392 216.624 125.8 213.454C126.479 218.463 125.977 223.562 124.334 228.342C123.315 231.055 121.666 233.488 119.524 235.439C117.381 237.391 114.806 238.806 112.01 239.568C113.253 238.211 114.199 236.609 114.788 234.865C115.376 233.121 115.593 231.273 115.426 229.44C115.37 227.551 114.918 225.695 114.098 223.992C113.278 222.289 112.11 220.778 110.668 219.556C111.981 222.585 112.469 225.908 112.082 229.187C111.696 232.466 110.449 235.585 108.468 238.226C111.398 231.758 108.712 224.192 105.418 217.97C102.124 211.624 97.4859 206.132 94.1919 199.786C88.5808 189 87.23 176.499 90.4079 164.764C92.6779 165.253 95.0371 165.126 97.2419 164.398C105.664 161.6 114.572 160 122.138 155.49Z" fill="#C54016"/>
<path d="M61.612 206.986C66.3798 184.954 65.752 162.095 59.782 140.358C61.49 143.776 65.516 144.63 69.056 146.216C76.8314 149.533 84.8734 152.186 93.096 154.148C93.2144 172.723 95.176 191.24 98.952 209.428C93.5336 213.247 87.0269 215.216 80.4 215.04C73.448 214.8 67.102 211.136 61.612 206.986Z" fill="black"/>
<path d="M82.1119 182.824C77.9702 181.069 74.1994 178.544 70.9999 175.382C68.6264 173.414 66.422 171.25 64.4099 168.914C65.184 181.673 64.2423 194.478 61.6099 206.986C66.9779 211.136 73.4459 214.918 80.2799 215.04C86.9079 215.232 93.4184 213.263 98.8279 209.428C96.8985 199.703 95.4302 189.892 94.4279 180.028C92.8093 181.547 90.8147 182.607 88.6497 183.099C86.4848 183.59 84.228 183.496 82.1119 182.824ZM133.242 142.922C132.641 148.011 130.985 152.918 128.38 157.331C125.775 161.744 122.278 165.564 118.112 168.548C108.96 174.77 96.2679 175.136 85.7739 173.184C76.2098 171.511 67.6978 166.117 62.0999 158.184C59.4885 153.795 57.4772 149.076 56.1199 144.152C53.62 135.125 51.6638 125.956 50.2619 116.694C48.6759 107.542 45.9919 97.17 49.1639 87.894C52.7039 77.4 64.2959 71.054 73.9359 67.026C85.4079 62.268 100.784 59.338 111.644 67.148C112.867 68.0223 114.01 69.0028 115.06 70.078C125.434 81.182 131.046 99.242 132.632 113.878C133.61 123.518 134.586 133.646 133.242 142.922Z" fill="#F7846C"/>
<path d="M48.9199 135.234C51.5069 137.953 53.392 141.262 54.4119 144.874C52.8576 143.335 50.92 142.239 48.7999 141.7C46.7259 141.212 44.8959 141.822 42.3319 140.968C44.6519 140.724 46.2379 140.48 47.0919 139.504C47.9459 138.65 46.6039 134.746 42.6919 131.084C44.9474 132.177 47.0428 133.573 48.9199 135.234ZM107.494 134.746C110.834 133.718 114.097 132.454 117.258 130.962C115.45 130.374 113.776 129.435 112.331 128.2C110.886 126.964 109.698 125.456 108.836 123.762C107.018 119.771 105.627 115.599 104.688 111.316C104.688 120.468 104.2 126.2 107.494 134.746Z" fill="#DD4040"/>
<path d="M130.314 100.942C129.169 100.058 127.823 99.4725 126.395 99.2382C124.968 99.0039 123.505 99.1283 122.138 99.6C119.555 100.479 116.901 101.133 114.206 101.554C112.605 101.569 111.031 101.144 109.654 100.326C108.278 99.5087 107.152 98.3291 106.4 96.916C110.147 95.0594 114.073 93.5853 118.116 92.516C119.369 92.0499 120.74 92.007 122.02 92.394C123.454 92.9611 124.745 93.8387 125.8 94.964C127.874 96.672 128.484 98.624 130.314 100.942ZM66.8579 113.878C69.0647 111.134 72.1819 109.272 75.6439 108.63C78.9921 108.103 82.2965 107.328 85.5299 106.312C87.2378 105.655 88.7674 104.606 89.9954 103.249C91.2235 101.893 92.1156 100.267 92.5999 98.502C87.5184 98.885 82.465 99.5776 77.4679 100.576C75.8222 100.896 74.2498 101.517 72.8299 102.408C71.4828 103.525 70.3643 104.892 69.5359 106.434C67.9579 109 68.0799 110.95 66.8579 113.878Z" fill="black"/>
<path d="M98.0979 188.438C96.1459 196.37 93.3399 203.57 90.8979 211.258C80.0507 204.048 70.6202 194.907 63.0759 184.29C59.3296 190.56 56.3006 197.232 54.0459 204.18C58.5599 208.696 62.3439 214.064 66.8579 218.458C74.4239 226.024 82.1119 233.834 86.8719 243.596C88.7019 234.81 91.0199 226.512 92.8519 217.726C97.2519 225.17 101.394 232.002 105.786 239.326C100.416 222.85 104.688 204.546 98.0979 188.438Z" fill="white"/>
<path d="M96.146 119.126C94.6458 116.505 92.4494 114.351 89.8 112.902C87.8863 112.145 85.8074 111.905 83.7716 112.205C81.7357 112.505 79.8144 113.334 78.2 114.61C75.1166 116.9 72.9871 120.247 72.22 124.01C78.195 124.051 84.1356 123.102 89.8 121.2C91.874 120.6 94.072 119.736 96.146 119.126ZM131.9 111.926C130.459 109.321 128.242 107.23 125.556 105.946C123.642 105.19 121.563 104.95 119.528 105.249C117.492 105.549 115.571 106.378 113.956 107.654C110.894 109.874 108.73 113.119 107.86 116.8C113.869 116.935 119.857 116.027 125.556 114.116C127.63 113.634 129.826 112.536 131.9 111.926Z" fill="#DD4040"/>
<path d="M72.106 124C73.074 121.8 74.5562 119.864 76.4279 118.356C78.2996 116.848 80.5061 115.811 82.8618 115.332C85.2175 114.854 87.6537 114.949 89.9653 115.608C92.277 116.267 94.3966 117.471 96.146 119.12C96.146 119.12 93.584 122.78 85.652 124.61C81.1744 125.739 76.4639 125.526 72.106 124ZM107.982 116.8C108.95 114.6 110.432 112.664 112.304 111.156C114.176 109.648 116.382 108.611 118.738 108.132C121.094 107.654 123.53 107.749 125.841 108.408C128.153 109.067 130.273 110.271 132.022 111.92C132.022 111.92 129.46 115.58 121.528 117.41C117.052 118.551 112.338 118.339 107.982 116.8Z" fill="white"/>
<path d="M86.1399 115.098C85.5638 117.316 84.6171 119.42 83.3399 121.322C82.4763 122.672 81.5417 123.975 80.5399 125.226C82.264 125.193 83.9808 124.992 85.6659 124.626C93.5979 122.796 96.1599 119.136 96.1599 119.136C93.425 116.612 89.8609 115.175 86.1399 115.098ZM120.918 107.898C119.442 111.504 117.515 114.908 115.182 118.028C117.313 118.044 119.439 117.839 121.528 117.416C129.46 115.586 132.022 111.926 132.022 111.926C128.959 109.234 124.994 107.795 120.918 107.898Z" fill="black"/>
<path d="M117.746 68.238C115.692 65.7148 113.214 63.5681 110.424 61.894C102.858 57.378 93.34 57.866 84.798 59.574C67.958 62.992 41.354 72.388 34.032 88.374C24.514 108.874 41.476 132.914 36.6 154.4C36.356 155.62 36 156.718 35.746 157.938C31.718 172.094 23.176 182.832 16.346 194.914C13.296 200.528 10.366 206.872 10.366 213.714C10.366 219.694 13.296 226.04 17.566 227.626C18.788 231.774 21.228 235.558 24.522 236.29C23.7316 233.535 23.6763 230.621 24.3616 227.838C25.0468 225.055 26.4488 222.499 28.428 220.426C27.5685 224.474 27.8683 228.683 29.293 232.568C30.7176 236.454 33.2094 239.859 36.482 242.392C39.3882 244.29 42.7656 245.341 46.2356 245.427C49.7057 245.513 53.1311 244.631 56.128 242.88C58.202 245.68 61.128 247.28 63.816 246.052C61.498 244.954 60.644 241.294 60.522 237.998C60.4383 234.701 60.8496 231.411 61.742 228.236C61.01 230.92 61.986 233.484 62.596 236.168C62.9305 238.849 64.0803 241.362 65.89 243.368C68.09 245.198 70.89 244.71 73.456 244.1C68.82 238.608 67.72 229.7 68.21 221.402C68.576 213.226 70.65 205.294 71.992 197.24C74.92 178.692 67.354 168.808 60.278 151.84C57.7157 145.448 55.4756 138.931 53.566 132.314C53.932 132.68 68.698 112.914 63.694 87.286C72.6148 90.9115 82.4875 91.4694 91.76 88.872C92.7046 89.2298 93.688 89.4755 94.69 89.604C98.9441 90.6534 103.438 90.0427 107.258 87.896C108.093 88.2353 108.95 88.5206 109.822 88.75C115.678 89.97 121.78 87.53 126.906 84.35C124.802 78.4924 121.704 73.0417 117.746 68.238ZM14.746 214.308C14.8187 212.949 15.1703 211.619 15.779 210.401C16.3877 209.183 17.2403 208.104 18.284 207.23C16.6028 213.013 16.1867 219.09 17.064 225.048C17.0558 225.114 17.0624 225.182 17.0836 225.245C17.1047 225.308 17.1397 225.366 17.186 225.414C15.0364 222.137 14.1698 218.183 14.752 214.308H14.746ZM56 242.62C54.4258 242.102 53.0187 241.173 51.9244 239.928C50.8301 238.684 50.0883 237.169 49.776 235.542C49.4577 233.78 49.557 231.968 50.0659 230.252C50.5747 228.535 51.479 226.962 52.706 225.658C52.828 230.538 52.828 235.908 54.658 240.178C55.0314 241.031 55.4805 241.848 56 242.62ZM82.6 86.91C80.8105 86.2758 79.1885 85.2432 77.8567 83.8902C76.5248 82.5373 75.5179 80.8993 74.912 79.1C76.5 81.9 79.184 83.126 81.99 84.59C84.554 85.934 87.238 87.276 89.922 88.374C87.4207 88.2641 84.9512 87.7704 82.6 86.91ZM97.488 83.98C95.0489 81.2238 93.553 77.7612 93.218 74.096C95.179 77.2939 97.4687 80.2781 100.05 83C102.003 85.0396 104.321 86.6954 106.884 87.882C105.124 87.9867 103.364 87.6898 101.736 87.0138C100.108 86.3378 98.6557 85.3004 97.488 83.98Z" fill="#C54016"/>
<path d="M240.14 76.048C238.432 70.192 232.698 62.504 228.182 58.476C215.368 47.372 195.844 44.2 179.614 48.348C162.774 52.748 146.544 67.148 147.886 85.812C148.618 96.062 158.87 106.312 168.144 111.682C165.702 119.858 164 121.444 155.33 126.2C158.748 128.03 175.222 127.908 182.664 117.9C197.674 123.514 215.864 121.928 224.888 116.436C241.118 106.556 244.534 91.668 240.14 76.048ZM179 85.324C178.654 86.4679 178.058 87.5207 177.256 88.4068C176.454 89.2928 175.466 89.99 174.362 90.448C173.237 90.8642 172.02 90.9706 170.84 90.756C169.66 90.5414 168.559 90.0137 167.652 89.228C166.769 88.4066 166.165 87.3299 165.924 86.1483C165.683 84.9668 165.817 83.7395 166.308 82.638C167.287 80.9292 168.849 79.63 170.708 78.978C175.1 77.27 180.712 79.588 179 85.324ZM203.04 85.324C202.694 86.4681 202.098 87.5211 201.295 88.4071C200.493 89.2932 199.504 89.9902 198.4 90.448C197.275 90.8642 196.058 90.9706 194.878 90.756C193.698 90.5414 192.597 90.0137 191.69 89.228C190.807 88.4066 190.203 87.3299 189.962 86.1483C189.721 84.9668 189.855 83.7395 190.346 82.638C191.325 80.9292 192.887 79.63 194.746 78.978C199.262 77.27 204.874 79.588 203.044 85.324H203.04ZM225.494 85.324C225.148 86.4678 224.552 87.5205 223.75 88.4065C222.948 89.2925 221.96 89.9897 220.856 90.448C219.73 90.8642 218.514 90.9705 217.333 90.7559C216.152 90.5413 215.051 90.0136 214.144 89.228C213.263 88.4052 212.661 87.3284 212.42 86.1474C212.18 84.9663 212.313 83.7397 212.802 82.638C213.78 80.9279 215.342 79.6282 217.202 78.978C221.6 77.27 227.2 79.588 225.498 85.324H225.494Z" fill="#FDB849"/>
<path d="M55.5099 111.56C47.3339 109.36 38.3099 114 33.7879 121.932C31.9632 125.212 30.8025 128.819 30.3719 132.548C30.0059 135.424 30.0059 138.336 30.3719 141.212C30.9704 144.995 32.4992 148.57 34.821 151.616C37.1428 154.661 40.1848 157.083 43.6739 158.662C47.0789 159.935 50.7791 160.197 54.3294 159.416C57.8797 158.635 61.1288 156.846 63.6859 154.262C75.1559 142.922 71.3739 115.83 55.5099 111.56Z" fill="#9778FF"/>
<path d="M80.6479 155.49C79.8433 156.291 79.324 157.333 79.1697 158.458C79.0154 159.582 79.2347 160.726 79.7939 161.714C80.3922 162.688 81.2742 163.455 82.3213 163.913C83.3685 164.371 84.5307 164.498 85.6519 164.276C86.6294 164.101 87.5375 163.652 88.2713 162.983C89.0052 162.314 89.5351 161.451 89.7999 160.494C91.0199 155.612 84.1859 152.2 80.6479 155.49Z" fill="black"/>
<path d="M84.1859 158.54C83.9419 159.152 83.4539 159.396 83.3319 160.006C74.4349 159.753 65.7737 157.088 58.2729 152.297C50.7722 147.505 44.7135 140.766 40.7439 132.8C41.8086 132.284 42.6683 131.425 43.1839 130.36C50.9999 145.484 67.1019 157.076 84.1859 158.54Z" fill="black"/>
<path d="M48.0659 121.2C45.8736 120.688 43.5771 120.857 41.4837 121.686C39.3903 122.514 37.5998 123.962 36.3519 125.836C35.35 127.344 34.6837 129.049 34.3979 130.836C34.1137 132.201 34.0725 133.606 34.2759 134.986C34.5884 136.876 35.3809 138.654 36.5775 140.149C37.7741 141.645 39.3347 142.808 41.1099 143.528C42.9057 144.177 44.8392 144.35 46.7216 144.029C48.604 143.708 50.3709 142.904 51.8499 141.696C58.0719 136.454 56.4859 123.4 48.0659 121.2Z" fill="black"/>
<path d="M49.2859 133.036C46.2315 123.295 44.9101 113.094 45.3819 102.896C45.9084 92.6495 49.813 82.8656 56.4859 75.072C63.1979 67.628 71.3739 63.472 81.8679 60.306C73.421 59.5011 64.9332 61.3485 57.585 65.5915C50.2368 69.8344 44.3935 76.2619 40.8679 83.98C39.2338 87.8505 38.0864 91.9089 37.4519 96.062C35.1362 109.272 36.0977 122.848 40.2519 135.6C43.409 135.384 46.486 134.511 49.2859 133.036Z" fill="black"/>
<path d="M115.304 147.558C115.06 150.12 114.704 153.05 112.742 154.758C111.778 155.482 110.662 155.979 109.479 156.212C108.295 156.444 107.074 156.406 105.908 156.1C104.14 155.725 102.464 155.004 100.977 153.977C99.4901 152.951 98.2212 151.64 97.2439 150.12C103.102 149.266 109.326 148.656 115.304 147.558Z" fill="white"/>
<path d="M94.0719 150.976C97.0551 154.09 100.567 156.651 104.444 158.54C106.07 159.221 107.808 159.594 109.57 159.64C110.438 159.669 111.302 159.51 112.103 159.172C112.903 158.835 113.621 158.328 114.206 157.686C114.886 156.773 115.383 155.737 115.67 154.636C116.177 152.644 116.379 150.587 116.27 148.534C115.67 148.534 114.44 147.802 114.318 148.412C112.976 160.612 105.898 153.05 97.5999 149.998C96.3999 149.51 95.1699 150.6 94.0719 150.976Z" fill="#DD4040"/>
<path d="M110.424 142.432C113.474 141.456 117.136 140.968 119.21 142.432C119.502 142.767 119.724 143.157 119.864 143.579C120.003 144 120.058 144.446 120.024 144.889C119.989 145.332 119.868 145.763 119.665 146.159C119.463 146.554 119.183 146.905 118.844 147.192C118.191 147.702 117.443 148.075 116.644 148.29C112.01 150 106.762 150 102 150.6C99.5579 150.968 93.8239 151.578 92.3579 150.722C97.9759 149.51 104.566 144.264 110.424 142.432Z" fill="black"/>
<path d="M339.352 22.478C332.592 21.0958 325.626 21.0543 318.85 22.356C311.122 23.79 303.794 26.8777 297.371 31.4074C290.947 35.9371 285.578 41.8019 281.632 48.6C274.066 62.268 273.7 80.084 281.754 93.508C289.808 106.932 306.892 116.082 322.268 113.154C324.225 121.412 323.365 130.087 319.826 137.8C323.974 135.037 327.533 131.478 330.298 127.331C333.063 123.184 334.978 118.53 335.934 113.638C355.704 109.978 373.276 86.06 373.642 65.924C374.13 46.03 359 26.748 339.352 22.478ZM329.71 94.11C329.094 95.7315 327.869 97.0478 326.295 97.7774C324.722 98.5069 322.925 98.5919 321.29 98.014C320.224 97.7063 319.273 97.0902 318.557 96.2432C317.84 95.3962 317.391 94.3561 317.264 93.254C317.161 92.1459 317.356 91.0305 317.827 90.0226C318.299 89.0147 319.031 88.1508 319.948 87.52C320.896 86.7462 322.054 86.2753 323.273 86.1683C324.491 86.0613 325.714 86.3232 326.782 86.92C327.996 87.626 328.942 88.7147 329.472 90.0156C330.002 91.3166 330.086 92.7565 329.71 94.11ZM343.622 57.51C342.806 61.9306 340.314 65.8652 336.666 68.492C335.08 69.592 333.128 70.324 331.666 71.544C329.954 73.2355 328.913 75.49 328.736 77.89C328.585 78.8908 328.147 79.8265 327.476 80.5842C326.805 81.3419 325.929 81.8892 324.954 82.16C324.015 82.2888 323.06 82.1897 322.167 81.8712C321.275 81.5527 320.473 81.024 319.828 80.33C318.486 78.5 318.852 75.692 319.096 73.618C319.37 71.3641 320.304 69.2414 321.78 67.516C323.98 65.076 327.516 64.1 329.59 61.416C330.172 60.7197 330.606 59.9125 330.866 59.0434C331.127 58.1743 331.208 57.2614 331.106 56.3599C331.003 55.4584 330.718 54.5872 330.269 53.7989C329.82 53.0106 329.215 52.3218 328.492 51.774C325.564 49.822 321.892 51.042 319.34 52.874C316.54 54.826 312.74 59.218 308.968 57.144C308.003 56.5505 307.263 55.6526 306.864 54.5919C306.466 53.5312 306.432 52.3681 306.768 51.286C307.763 47.6583 309.903 44.4486 312.868 42.134C316.407 38.9008 321.007 37.0746 325.8 37C332.878 37.244 339.224 40.538 342.152 47.128C343.547 50.3954 344.055 53.9735 343.622 57.5V57.51Z" fill="#14D29B"/>
<path d="M169.242 332.068L165.336 328.894C176.32 278.007 189.215 227.487 204.02 177.334C255.882 163.422 308.6 151.22 361.072 139.748L364.978 142.922L169.242 332.068ZM253.564 352.934C245.632 354.032 211.098 346.466 206.948 345.612C202.798 344.758 196.332 341.952 222.934 333.532C249.536 325.112 249.534 320.596 291.394 329.382L253.564 352.934Z" fill="black"/>
<path d="M323.488 279.35C335.017 233.246 348.864 187.753 364.978 143.044C312.378 154.514 259.788 166.716 207.926 180.628C193.16 230.66 180.346 281.302 169.242 332.2C220 316.448 273.944 297.898 323.488 279.35Z" fill="#643CFF"/>
<path d="M277.848 276.3C282.12 274.714 288.098 280.326 289.686 288.746C291.15 296.8 290.54 306.93 284.438 309.248C278.336 311.566 289.93 312.786 294.078 307.54C298.35 302.292 298.35 294.238 297.006 286.794C295.786 279.35 286.146 271.54 279.922 273.248C273.822 274.836 277.848 276.3 277.848 276.3Z" fill="black"/>
<path d="M307.502 314.372C306.282 306.685 304.939 298.998 303.474 291.31C300.674 276.178 297.372 261.046 293.712 246.036C280.653 250.162 267.196 252.902 253.564 254.212C254.54 282.768 255.516 311.2 256.494 339.756C256.616 342.806 256.004 351.226 253.564 352.812C256.982 353.422 304.328 334.874 306.526 331.946C310.43 326.82 308.478 320.23 307.502 314.372ZM289.686 305.098C288.383 306.967 286.557 308.411 284.438 309.248C282.746 309.686 280.971 309.681 279.282 309.232C277.593 308.783 276.049 307.906 274.798 306.686C272.338 304.206 270.644 301.07 269.916 297.654C268.819 293.88 268.694 289.89 269.55 286.054C270.011 284.145 270.854 282.35 272.029 280.777C273.203 279.204 274.685 277.886 276.384 276.902C278.096 275.951 280.051 275.526 282.003 275.677C283.956 275.829 285.821 276.552 287.366 277.756C294.444 283.5 294.81 298.264 289.686 305.098Z" fill="#9778FF"/>
<path d="M253.564 254.212L251.734 258.612C251.734 258.612 254.296 324.874 253.564 334.88C253.13 341.106 251.642 347.212 249.164 352.94C250.627 353.08 252.101 353.08 253.564 352.94C255.638 352.696 258.08 350.74 257.592 337.686C257.226 324.38 253.564 254.212 253.564 254.212ZM101.638 296.434L100.784 294.97C106.364 291.484 112.589 289.16 119.088 288.136L119.332 289.844C113.045 290.807 107.023 293.05 101.638 296.434Z" fill="black"/>
</g>
<defs>
<clipPath id="clip0_902_8722">
<rect width="400" height="400" fill="white"/>
</clipPath>
</defs>
</svg>
