<svg width="400" height="400" viewBox="0 0 400 400" fill="none" xmlns="http://www.w3.org/2000/svg">
<path d="M31.25 87.5H231.25C238.125 87.5 243.75 93.125 243.75 100V200C243.75 206.875 238.125 212.5 231.25 212.5H31.25C24.375 212.5 18.75 206.875 18.75 200V100C18.75 93.125 24.375 87.5 31.25 87.5Z" fill="#D6DCDC"/>
<path d="M43.75 187.5H218.75M43.75 112.5H218.75H43.75ZM43.75 137.5H218.75H43.75ZM43.75 162.5H218.75H43.75Z" stroke="white" stroke-width="6.25" stroke-linecap="round" stroke-linejoin="round"/>
<path d="M325 137.5H256.25L229.375 164.375C226.875 166.875 223.125 166.875 220.625 164.375C219.375 163.125 218.75 161.875 218.75 160V137.5H200C186.25 137.5 175 126.25 175 112.5V31.25C175 17.5 186.25 6.25 200 6.25H325C338.75 6.25 350 17.5 350 31.25V112.5C350 126.25 338.75 137.5 325 137.5Z" fill="white" stroke="#231F20" stroke-width="6.25" stroke-linecap="round" stroke-linejoin="round"/>
<path d="M262.5 51.25C257.5 44.375 249.375 40.625 240.625 40.625C228.125 41.25 218.125 51.25 218.75 63.75V64.375C218.75 77.5 228.75 93.125 253.125 106.875C258.75 110 266.25 110 271.875 106.875C296.25 93.125 306.25 77.5 306.25 64.375C306.875 51.875 297.5 41.25 285 40.625H284.375C275.625 40.625 267.5 44.375 262.5 51.25Z" fill="#FF3446"/>
<path d="M62.5 243.75H125C145.625 243.75 162.5 260.625 162.5 281.25V356.25H25V281.25C25 260.625 41.875 243.75 62.5 243.75Z" fill="#231F20" stroke="#231F20" stroke-width="6.25" stroke-linecap="round" stroke-linejoin="round"/>
<path d="M225 325H193.75V312.5C193.75 285 171.25 262.5 143.75 262.5H93.75C66.25 262.5 43.75 285 43.75 312.5V331.25C43.75 345 55 356.25 68.75 356.25H231.25C238.125 356.25 243.75 350.625 243.75 343.75C243.75 333.125 235.625 325 225 325Z" fill="#FFC800" stroke="#231F20" stroke-width="6.25" stroke-linecap="round" stroke-linejoin="round"/>
<path d="M93.75 262.5H143.75V356.25H93.75V262.5Z" fill="white" stroke="#231F20" stroke-width="6.25" stroke-linecap="round" stroke-linejoin="round"/>
<path d="M175 193.75C175 162.5 150 137.5 118.75 137.5M93.75 262.5H143.75V281.25C143.75 295 132.5 306.25 118.75 306.25C105 306.25 93.75 295 93.75 281.25V262.5ZM168.75 318.75V356.25H193.75L168.75 318.75Z" stroke="#231F20" stroke-width="6.25" stroke-linecap="round" stroke-linejoin="round"/>
<path d="M100 262.5C100 273.125 108.125 281.25 118.75 281.25C129.375 281.25 137.5 273.125 137.5 262.5H100Z" fill="#FCE9C3" stroke="#231F20" stroke-width="6.25" stroke-linecap="round" stroke-linejoin="round"/>
<path d="M175 231.25C181.904 231.25 187.5 222.855 187.5 212.5C187.5 202.145 181.904 193.75 175 193.75C168.096 193.75 162.5 202.145 162.5 212.5C162.5 222.855 168.096 231.25 175 231.25Z" fill="#33DEFF" stroke="#231F20" stroke-width="6.25" stroke-linecap="round" stroke-linejoin="round"/>
<path d="M118.75 262.5C149.816 262.5 175 237.316 175 206.25C175 175.184 149.816 150 118.75 150C87.684 150 62.5 175.184 62.5 206.25C62.5 237.316 87.684 262.5 118.75 262.5Z" fill="#FCE9C3" stroke="#231F20" stroke-width="6.25" stroke-linecap="round" stroke-linejoin="round"/>
<path d="M93.75 237.5C97.2018 237.5 100 234.702 100 231.25C100 227.798 97.2018 225 93.75 225C90.2982 225 87.5 227.798 87.5 231.25C87.5 234.702 90.2982 237.5 93.75 237.5Z" fill="#FCC7A5"/>
<path d="M78.125 112.5C90 112.5 100 122.5 100 134.375V156.25H78.125C66.25 156.25 56.25 146.25 56.25 134.375C56.25 122.5 66.25 112.5 78.125 112.5Z" fill="#FF5500" stroke="#231F20" stroke-width="6.25" stroke-linecap="round" stroke-linejoin="round"/>
<path d="M156.25 237.5C159.702 237.5 162.5 234.702 162.5 231.25C162.5 227.798 159.702 225 156.25 225C152.798 225 150 227.798 150 231.25C150 234.702 152.798 237.5 156.25 237.5Z" fill="#FCC7A5"/>
<path d="M175 205C173.75 173.75 148.125 149.375 116.875 150.625C88.75 151.875 66.25 173.125 63.125 200.625V206.25C91.25 206.25 118.125 195 138.125 175.625C145 190 158.75 201.25 175 205Z" fill="#FF5500" stroke="#231F20" stroke-width="6.25" stroke-linecap="round" stroke-linejoin="round"/>
<path d="M143.75 212.5V218.75M112.5 234.375C112.5 241.25 118.125 246.875 125 246.875C131.875 246.875 137.5 241.25 137.5 234.375H112.5ZM106.25 212.5V218.75V212.5Z" stroke="#231F20" stroke-width="6.25" stroke-linecap="round" stroke-linejoin="round"/>
<path d="M131.25 343.75C131.25 333.125 123.125 325 112.5 325H100V356.25H118.75C125.625 356.25 131.25 350.625 131.25 343.75Z" fill="#FCE9C3" stroke="#231F20" stroke-width="6.25" stroke-linecap="round" stroke-linejoin="round"/>
<path d="M75 325H100V356.25H68.75" fill="#FFC800"/>
<path d="M75 325H100V356.25H68.75" stroke="#231F20" stroke-width="6.25" stroke-linecap="round" stroke-linejoin="round"/>
<path d="M243.75 343.75C243.75 333.125 235.625 325 225 325H212.5V356.25H231.25C238.125 356.25 243.75 350.625 243.75 343.75Z" fill="#FCE9C3" stroke="#231F20" stroke-width="6.25" stroke-linecap="round" stroke-linejoin="round"/>
<path d="M212.5 193.75H375C381.875 193.75 387.5 199.375 387.5 206.25V318.75C387.5 325.625 381.875 331.25 375 331.25H212.5C205.625 331.25 200 325.625 200 318.75V206.25C200 199.375 205.625 193.75 212.5 193.75Z" fill="white" stroke="#231F20" stroke-width="6.25" stroke-linecap="round" stroke-linejoin="round"/>
<path d="M206.25 193.75H381.25C388.125 193.75 393.75 199.375 393.75 206.25V318.75C393.75 325.625 388.125 331.25 381.25 331.25H206.25C199.375 331.25 193.75 325.625 193.75 318.75V206.25C193.75 199.375 199.375 193.75 206.25 193.75Z" fill="#CCCCCC" stroke="#231F20" stroke-width="6.25" stroke-linecap="round" stroke-linejoin="round"/>
<path d="M218.75 193.75H381.25C388.125 193.75 393.75 199.375 393.75 206.25V318.75C393.75 325.625 388.125 331.25 381.25 331.25H218.75C211.875 331.25 206.25 325.625 206.25 318.75V206.25C206.25 199.375 211.875 193.75 218.75 193.75Z" fill="#E6E6E6" stroke="#231F20" stroke-width="6.25" stroke-linecap="round" stroke-linejoin="round"/>
<path d="M318.75 343.75C318.75 350.625 313.125 356.25 306.25 356.25H268.75C275.625 356.25 281.25 350.625 281.25 343.75V312.5C281.25 305.625 286.875 300 293.75 300H306.25C313.125 300 318.75 305.625 318.75 312.5V343.75Z" fill="#B3B3B3" stroke="#231F20" stroke-width="6.25" stroke-linecap="round" stroke-linejoin="round"/>
<path d="M300 268.75C310.355 268.75 318.75 260.355 318.75 250C318.75 239.645 310.355 231.25 300 231.25C289.645 231.25 281.25 239.645 281.25 250C281.25 260.355 289.645 268.75 300 268.75Z" fill="white"/>
<path d="M18.75 356.25H381.25C388.125 356.25 393.75 361.875 393.75 368.75V381.25C393.75 388.125 388.125 393.75 381.25 393.75H18.75C11.875 393.75 6.25 388.125 6.25 381.25V368.75C6.25 361.875 11.875 356.25 18.75 356.25Z" fill="#E4AC4D" stroke="#231F20" stroke-width="6.25" stroke-linecap="round" stroke-linejoin="round"/>
<path d="M68.75 356.25H381.25C388.125 356.25 393.75 361.875 393.75 368.75V381.25C393.75 388.125 388.125 393.75 381.25 393.75H68.75C61.875 393.75 56.25 388.125 56.25 381.25V368.75C56.25 361.875 61.875 356.25 68.75 356.25Z" fill="#EECA8D" stroke="#231F20" stroke-width="6.25" stroke-linecap="round" stroke-linejoin="round"/>
<path d="M43.75 306.25C43.75 306.25 43.75 275.625 62.5 262.5M43.75 306.25C43.75 306.25 43.75 262.5 25 243.75L43.75 306.25Z" stroke="#21CE62" stroke-width="6.25" stroke-linecap="round" stroke-linejoin="round"/>
<path d="M43.75 306.25C43.75 293.125 36.25 281.25 25 275" stroke="#21CE62" stroke-width="6.25" stroke-linecap="round" stroke-linejoin="round"/>
<path d="M56.25 356.25H31.25L18.75 306.25H68.75L56.25 356.25Z" fill="#FF5500" stroke="#231F20" stroke-width="6.25" stroke-linecap="round" stroke-linejoin="round"/>
<path d="M62.5 212.5C62.5 230.625 81.25 245.625 106.25 249.375M118.75 137.5C87.5 137.5 62.5 162.5 62.5 193.75L118.75 137.5Z" stroke="#231F20" stroke-width="6.25" stroke-linecap="round" stroke-linejoin="round"/>
<path d="M62.5 231.25C69.4036 231.25 75 222.855 75 212.5C75 202.145 69.4036 193.75 62.5 193.75C55.5964 193.75 50 202.145 50 212.5C50 222.855 55.5964 231.25 62.5 231.25Z" fill="#33DEFF" stroke="#231F20" stroke-width="6.25" stroke-linecap="round" stroke-linejoin="round"/>
<path d="M193.75 325H187.5" stroke="#231F20" stroke-width="6.25" stroke-linecap="round" stroke-linejoin="round"/>
</svg>
