<svg width="400" height="400" viewBox="0 0 400 400" fill="none" xmlns="http://www.w3.org/2000/svg">
<path d="M248.6 137.832C245.674 141.138 235.6 152.232 232.45 156.452C212.184 126.98 208.194 123.852 192.17 123.852C164 124 134.682 134.214 110.966 148.966C95.234 158.766 93.942 163.672 92.118 178.872C90.76 189.447 90.0254 200.092 89.918 210.754C90.622 205.69 122.408 206.74 122.408 212.578C122.484 202.964 123.358 180.544 123.89 175.452C125.98 174.692 128.792 173.666 131.87 172.602C137.505 167.632 142.822 162.315 147.792 156.68C149.713 165.957 150.883 175.373 151.288 184.838C164.326 178.584 180.536 177.808 194.874 180.734C195.064 180.202 195.292 179.632 195.474 179.1C195.558 171.758 195.126 164.418 194.182 157.136C198.402 163.832 214.16 185.578 220.182 191.488C229.982 201.14 238.382 200.266 247.846 189.208C256.02 179.748 263.644 169.827 270.68 159.492C271.976 145.23 257.68 135.46 248.6 137.832Z" fill="#B8FFD4"/>
<path d="M245.486 332.126C243.822 329.912 243.012 327.174 243.206 324.412C236.09 322.91 228.812 322.31 221.546 322.626C220.21 331.026 219.402 338.968 218.772 343.226C220.52 337.602 273.112 353.182 274.252 360.098C274.536 350.122 253.088 342.112 245.486 332.126Z" fill="#B8FFD4"/>
<path d="M339.84 49.216C330.91 40.704 339.46 32.192 336.002 23.3C346.224 27.366 353.14 37.816 348.542 47.658L339.84 49.216Z" fill="#B8FFD4"/>
<path d="M74.98 312.556C65.354 314.574 59.58 316.306 55.448 317.23C62.098 317.23 65.594 371.57 58.982 376.358C68.756 372.246 68.054 350.252 71.982 341.094C72.5562 339.47 73.5402 338.022 74.8384 336.89C76.1366 335.758 77.7052 334.982 79.392 334.634C79.1364 327.084 77.646 319.626 74.98 312.556Z" fill="#B8FFD4"/>
<path d="M293.518 98.882C283.98 91.168 270.528 99.566 271.174 109.864C273.238 109.91 275.274 110.348 277.174 111.156C278.3 113.006 278.94 115.11 279.036 117.274C280.328 119.63 281.354 121.568 282.19 123.24C294.848 127.078 306.058 109 293.518 98.882Z" fill="#B8FFD4"/>
<path d="M254.34 114.348L251.34 111.08L248.756 103.1C238.914 98.882 222.356 107.28 223.03 123.924C223.63 138.402 237.736 144.292 245.03 141.936C246.588 140.188 247.88 138.736 248.678 137.832C249.532 137.598 250.416 137.495 251.3 137.528C251.68 130.422 250.616 126.584 250.616 122.974C250.616 121.53 252.326 118.87 254.34 114.348Z" fill="#B8FFD4"/>
<path d="M324.944 85.772L224.092 61.8C217.48 60.584 213.642 63.358 211.742 68.298L204.33 87.384C206.468 104.484 206.264 112.334 204.674 114.278C203.306 115.95 200.152 116.748 196.352 116.178C196.739 118.824 197.259 121.45 197.91 124.044C199.316 124.163 200.714 124.379 202.09 124.69L222.8 70.724L319.738 94.246L289.186 181.57L260.952 173.058C258.786 175.87 256.43 178.872 253.846 182.026L289.376 192.704C294.81 194.338 300.054 192.59 302.448 186.016L332.506 99.566C334.558 93.638 333.95 87.976 324.944 85.772ZM313.848 141.936C313.724 142.385 313.51 142.804 313.218 143.166C312.926 143.529 312.562 143.829 312.152 144.047C311.74 144.264 311.288 144.395 310.824 144.432C310.36 144.469 309.892 144.411 309.452 144.26C309.01 144.11 308.606 143.872 308.26 143.559C307.914 143.247 307.638 142.867 307.444 142.443C307.25 142.02 307.146 141.561 307.136 141.095C307.126 140.63 307.212 140.167 307.388 139.736C307.512 139.287 307.726 138.868 308.018 138.506C308.31 138.143 308.672 137.843 309.084 137.625C309.496 137.408 309.948 137.277 310.412 137.24C310.876 137.203 311.344 137.261 311.784 137.412C312.224 137.562 312.63 137.8 312.976 138.113C313.32 138.425 313.598 138.805 313.792 139.229C313.986 139.652 314.09 140.111 314.1 140.577C314.11 141.042 314.024 141.505 313.848 141.936Z" fill="#E9E9E9"/>
<path d="M258.748 119.136L267.184 128.37C262.814 130.27 258.026 126.4 258.748 119.136Z" fill="#E9E9E9"/>
<path d="M270.756 116.248C269.692 115.982 267.336 115.564 264.556 115.146L270.756 121.91C270.908 120.026 270.908 118.132 270.756 116.248Z" fill="#E9E9E9"/>
<path d="M243.244 324.374C249.78 325.894 251.528 327.946 251.528 329.466C251.528 331.404 248.328 332.088 245.528 332.088C243.874 329.87 243.064 327.136 243.244 324.374Z" fill="#E9E9E9"/>
<path d="M221.546 322.626C221.052 325.97 220.634 328.744 220.33 331.138C215.846 330.264 212.982 328.362 213.148 326.274C213.288 324.524 215.656 323.044 221.546 322.626Z" fill="#E9E9E9"/>
<path d="M68.5579 306.134C70.3099 305.69 72.7379 307.236 74.9799 312.594C70.9799 313.468 67.9499 314.194 65.4799 314.794C64.8719 310.124 66.5479 306.642 68.5579 306.134Z" fill="#E9E9E9"/>
<path d="M79.388 334.634C77.709 335 76.1496 335.784 74.8544 336.914C73.559 338.042 72.5698 339.48 71.978 341.094C72.778 343.596 74.916 346.242 76.872 344.846C78.298 343.83 79.524 340.668 79.388 334.634Z" fill="#E9E9E9"/>
<path d="M185.294 211.058C184.61 220.748 185.104 243.814 185.294 251.946C181.494 250.73 178.15 249.704 175.642 249.02C179.366 233.706 182.33 221.66 185.294 211.058Z" fill="#E9E9E9"/>
<path d="M89.9519 210.678C89.7239 212.35 92.8399 214.098 97.3519 214.326C97.7585 214.016 98.0845 213.612 98.3019 213.148C98.6513 211.32 98.7789 209.458 98.6819 207.6C92.6499 208.018 90.1419 209.348 89.9519 210.678Z" fill="#E9E9E9"/>
<path d="M122.4 212.152C122.066 210.886 120.07 209.526 115.764 208.664C115.878 210.336 115.954 212.768 116.068 215.464C118.584 215.386 123 214.428 122.4 212.152Z" fill="#E9E9E9"/>
<path d="M147.826 156.642C148.51 159.91 149.156 163.52 149.688 167.242C143.687 168.717 137.765 170.493 131.942 172.562C137.546 167.573 142.85 162.257 147.826 156.642Z" fill="#E9E9E9"/>
<path d="M200.456 166.294C198.67 170.778 197.036 174.996 195.516 179.094C195.599 171.751 195.167 164.412 194.224 157.13C195.288 158.846 197.6 162.266 200.456 166.294Z" fill="#E9E9E9"/>
<path d="M250.248 348.042C235.694 343.37 219.742 340.168 218.772 343.222C217.488 347.31 232.066 353.238 246.598 357.276C259.198 360.78 271.774 362.864 273.928 361.096C278.074 357.696 255.4 349.696 250.248 348.042Z" fill="#E9E9E9"/>
<path d="M62.164 344.2C61.232 330.328 58.71 317.272 55.41 317.272C51.396 317.254 50.01 330.594 50.492 344.638C51.03 360.238 53.874 376.704 57.994 376.704C63.8 375.41 62.56 350.084 62.164 344.2Z" fill="#E9E9E9"/>
<path d="M347.022 219.076C337.002 217.114 326.63 218.078 317.146 221.856C307.66 225.636 299.464 232.066 293.54 240.38C287.614 248.696 284.21 258.542 283.734 268.74C283.26 278.938 285.732 289.058 290.858 297.888C319.168 280.18 338.7 251.756 347.022 219.076Z" fill="#E9E9E9"/>
<path d="M196.048 110.966C200 113.816 203.648 115.678 204.864 113.892C203.686 116.248 201.216 116.932 196.428 116.172C196.238 114.424 196.124 112.676 196.048 110.966Z" fill="#E9E9E9"/>
<path d="M209.348 70.914C207.22 68.216 203.534 66.582 197.872 67.19C200.38 46.48 170.854 43.516 169.714 60.844C154.628 49.102 130.384 67.304 147.446 79.844C138.174 80.414 135.096 92.688 145.014 92.688C122.138 108.306 140.15 143.076 189.626 110.088C192.293 107.796 194.689 105.208 196.77 102.374C192.552 96.636 197.264 93.026 199.012 97.13C200 99.486 201.102 95.876 201.102 92.95C202.494 93.0324 203.854 93.3944 205.102 94.014C210.8 90.712 214.6 77.526 209.348 70.914Z" fill="#E9E9E9"/>
<path d="M339.84 49.216C330.91 40.704 339.46 32.192 336.002 23.3C346.224 27.366 353.14 37.816 348.542 47.658L339.84 49.216Z" stroke="black" stroke-width="1.5" stroke-linecap="round" stroke-linejoin="round"/>
<path d="M197.91 124.044C199.316 124.163 200.712 124.379 202.09 124.69L222.8 70.724L319.738 94.246L289.186 181.57L260.952 173.058C258.786 175.87 256.43 178.872 253.846 182.026L289.376 192.704C294.81 194.338 300.054 192.59 302.448 186.016L332.506 99.566C334.558 93.638 333.95 87.976 324.944 85.772L224.092 61.8C217.48 60.584 213.642 63.358 211.742 68.298L210.206 72.2508L197.91 124.044ZM313.848 141.936C313.724 142.385 313.51 142.804 313.218 143.166C312.926 143.529 312.562 143.829 312.152 144.047C311.74 144.264 311.288 144.395 310.824 144.432C310.36 144.469 309.892 144.411 309.452 144.26C309.01 144.11 308.606 143.872 308.26 143.559C307.914 143.247 307.638 142.867 307.444 142.443C307.25 142.02 307.146 141.561 307.136 141.095C307.126 140.63 307.212 140.167 307.388 139.736C307.512 139.287 307.726 138.868 308.018 138.506C308.31 138.143 308.672 137.843 309.084 137.625C309.496 137.408 309.948 137.277 310.412 137.24C310.876 137.203 311.344 137.261 311.784 137.412C312.224 137.562 312.63 137.8 312.976 138.113C313.32 138.425 313.598 138.805 313.792 139.229C313.986 139.652 314.09 140.111 314.1 140.577C314.11 141.042 314.024 141.505 313.848 141.936Z" stroke="black" stroke-width="1.5" stroke-linejoin="round"/>
<path d="M15.396 302.676L40.628 266.652" stroke="black" stroke-width="1.5" stroke-linecap="round" stroke-linejoin="round"/>
<path d="M10 272.048L46.024 297.28" stroke="black" stroke-width="1.5" stroke-linecap="round" stroke-linejoin="round"/>
<path d="M255.442 220.026L279.762 215.732" stroke="black" stroke-width="1.5" stroke-linecap="round" stroke-linejoin="round"/>
<path d="M265.474 205.738L269.73 230.058" stroke="black" stroke-width="1.5" stroke-linecap="round" stroke-linejoin="round"/>
<path d="M336.838 324.412C366.198 324.412 390 300.61 390 271.25C390 241.89 366.198 218.088 336.838 218.088C307.478 218.088 283.676 241.89 283.676 271.25C283.676 300.61 307.478 324.412 336.838 324.412Z" stroke="black" stroke-width="1.5" stroke-linecap="round" stroke-linejoin="round"/>
<path d="M65.67 158.998C77.6744 158.998 87.406 149.266 87.406 137.262C87.406 125.258 77.6744 115.526 65.67 115.526C53.6654 115.526 43.934 125.258 43.934 137.262C43.934 149.266 53.6654 158.998 65.67 158.998Z" stroke="black" stroke-width="1.5" stroke-linecap="round" stroke-linejoin="round"/>
<path d="M159.72 313.2C177.313 316.736 195.247 318.29 213.186 317.836" stroke="black" stroke-width="1.5" stroke-linecap="round" stroke-linejoin="round"/>
<path d="M110.966 296.668C69.9668 276.476 38.4804 241.062 23.224 197.982C-8.92403 109.822 45.914 70.77 97.514 86.11C124.378 94.096 137.414 87.098 139.086 63.31C140.644 41.156 156.376 24.54 203.344 27.4C244.044 29.881 290.634 53.7804 316.276 83.6556M251.528 313.962C339.376 294.472 379.062 190.994 330.72 104.798L251.528 313.962Z" stroke="black" stroke-width="1.5" stroke-linecap="round" stroke-linejoin="round"/>
<path d="M76.69 40.096L26.49 48.95C24.5502 49.3246 22.8354 50.447 21.716 52.0748C20.5964 53.7026 20.1618 55.7054 20.506 57.6508C20.8502 59.5962 21.9456 61.3282 23.5556 62.473C25.1658 63.618 27.1614 64.0838 29.112 63.77L79.312 54.916L93.6 44.732L76.69 40.096Z" stroke="black" stroke-width="1.5" stroke-linecap="round" stroke-linejoin="round"/>
<path d="M28.848 48.5322L31.47 63.3522" stroke="black" stroke-width="1.5" stroke-linecap="round" stroke-linejoin="round"/>
<path d="M37.36 47.05L39.944 61.87" stroke="black" stroke-width="1.5" stroke-linecap="round" stroke-linejoin="round"/>
<path d="M76.6899 40.096L79.3119 54.916" stroke="black" stroke-width="1.5" stroke-linecap="round" stroke-linejoin="round"/>
<path d="M339.84 49.216C339.992 55.9392 340.614 62.6436 341.702 69.28C345.154 88.896 351.544 109.56 354.85 108.99C358.156 108.42 357.112 86.79 353.634 67.19C352.402 60.5792 350.7 54.0648 348.542 47.696L339.84 49.216Z" stroke="black" stroke-width="1.5" stroke-linecap="round" stroke-linejoin="round"/>
<path d="M341.284 66.848L353.216 64.758" stroke="black" stroke-width="1.5" stroke-linecap="round" stroke-linejoin="round"/>
<path d="M97.362 214.364C92.84 214.136 89.732 212.388 89.962 210.716C90.198 208.93 94.484 207.186 105.504 207.516C117.968 207.9 122.582 210.48 122.49 212.57C122.426 214.052 119.754 215.306 116.106 215.42" stroke="black" stroke-width="1.5" stroke-linecap="round" stroke-linejoin="round"/>
<path d="M232.49 156.414C235.644 152.196 245.714 141.138 248.64 137.794C255.746 135.856 271.934 143.152 270.68 159.492C263.632 169.816 256.006 179.734 247.842 189.2C238.356 200.236 230.026 201.164 220.178 191.48C213.836 185.244 197.644 162.68 194.224 157.128C195.168 164.41 195.6 171.749 195.516 179.092" stroke="black" stroke-width="1.5" stroke-linecap="round" stroke-linejoin="round"/>
<path d="M236.366 162.114C212.236 126.622 208.702 123.81 192.21 123.81C166.484 123.81 136.536 132.962 111.01 148.928C95.276 158.766 94.054 163.68 92.162 178.834C90.8254 189.411 90.091 200.056 89.962 210.716" stroke="black" stroke-width="1.5" stroke-linecap="round" stroke-linejoin="round"/>
<path d="M200.456 166.256C185.902 202.546 182.078 222.424 162.836 302.856C159.2 318.104 155.2 325.65 137.376 330.8C118.752 336.18 81.592 343.682 76.196 345.126" stroke="black" stroke-width="1.5" stroke-linecap="round" stroke-linejoin="round"/>
<path d="M65.48 314.76C64.88 310.16 66.544 306.662 68.558 306.134C71.178 305.446 75.326 309.288 78.058 323.462C80.95 338.462 78.658 344.574 76.196 345.16C74.636 345.53 72.852 343.83 71.978 341.094" stroke="black" stroke-width="1.5" stroke-linecap="round" stroke-linejoin="round"/>
<path d="M68.558 306.134C81.858 303.17 130.384 292.334 133.69 291.58" stroke="black" stroke-width="1.5" stroke-linecap="round" stroke-linejoin="round"/>
<path d="M194.908 180.734C168.764 175.414 139.4 182.6 130 207.448C121.758 229.262 124.3 256.772 126.4 293.176" stroke="black" stroke-width="1.5" stroke-linecap="round" stroke-linejoin="round"/>
<path d="M145.47 147.56C148.861 159.717 150.825 172.227 151.322 184.838" stroke="black" stroke-width="1.5" stroke-linecap="round" stroke-linejoin="round"/>
<path d="M122.442 212.578C122.518 203.002 123.392 180.506 123.924 175.414C132.344 172.223 140.932 169.495 149.65 167.244" stroke="black" stroke-width="1.5" stroke-linecap="round" stroke-linejoin="round"/>
<path d="M55.448 317.268C62.402 317.284 65.936 376.738 58.032 376.7C50.128 376.662 46.974 317.248 55.448 317.268Z" stroke="black" stroke-width="1.5" stroke-linecap="round" stroke-linejoin="round"/>
<path d="M55.448 317.268C59.848 316.28 63.58 315.068 74.98 312.556" stroke="black" stroke-width="1.5" stroke-linecap="round" stroke-linejoin="round"/>
<path d="M79.426 334.634C73.954 336.234 71.288 338.856 69.166 353.102C67.706 362.902 64.986 374.914 58.032 376.702" stroke="black" stroke-width="1.5" stroke-linecap="round" stroke-linejoin="round"/>
<path d="M220.33 331.138C215.846 330.264 213.016 328.362 213.148 326.312C213.316 323.688 218.28 321.686 232.338 322.816C247.996 324.076 251.49 327.3 251.49 329.466C251.49 331.404 248.29 332.088 245.49 332.088" stroke="black" stroke-width="1.5" stroke-linecap="round" stroke-linejoin="round"/>
<path d="M218.772 343.222C220.596 337.408 276.372 354.166 274.214 360.702C272.54 365.756 216.304 351.088 218.772 343.222Z" stroke="black" stroke-width="1.5" stroke-linecap="round" stroke-linejoin="round"/>
<path d="M218.772 343.222C219.418 338.852 219.874 333.874 221.546 322.622" stroke="black" stroke-width="1.5" stroke-linecap="round" stroke-linejoin="round"/>
<path d="M243.244 324.374C243.206 329.998 244.844 333.422 256.582 341.774C265.782 348.314 275.012 353.744 274.214 360.698" stroke="black" stroke-width="1.5" stroke-linecap="round" stroke-linejoin="round"/>
<path d="M189.056 198.176C204.852 208.24 220.074 219.176 234.656 230.932C249.962 243.672 251.528 248.412 251.528 270.49V329.466" stroke="black" stroke-width="1.5" stroke-linecap="round" stroke-linejoin="round"/>
<path d="M213.148 326.312C213.414 311.074 213.528 266.912 213.148 261.256C201.672 257.304 183.888 251.338 175.642 249.056" stroke="black" stroke-width="1.5" stroke-linecap="round" stroke-linejoin="round"/>
<path d="M183.014 179.214C167.7 198.176 158.048 242.028 149.65 304.234C126.204 311.606 90.712 319.852 77.868 322.512" stroke="black" stroke-width="1.5" stroke-linecap="round" stroke-linejoin="round"/>
<path d="M115.8 208.588C116.104 214.554 116.712 229.988 115.914 232.87C115.116 235.752 106.57 249.82 101.474 255.822C98.246 259.622 94.274 260.488 98.358 252.592C100.761 247.876 102.833 242.996 104.558 237.992C109.402 224.202 99.158 221.238 95.058 226.174C88.794 233.702 84.102 235.594 86.584 229.67C88.098 226.058 88.902 223.894 89.966 221.158C91.03 218.422 97.87 214.85 98.326 213.254C98.6916 211.428 98.8192 209.564 98.706 207.706" stroke="black" stroke-width="1.5" stroke-linecap="round" stroke-linejoin="round"/>
<path d="M102.074 244.46C98.9283 247.67 95.377 250.454 91.51 252.744C86.796 255.506 85.1639 252.934 90.7099 247.766C94.5875 244.164 98.0839 240.172 101.144 235.854" stroke="black" stroke-width="1.5" stroke-linecap="round" stroke-linejoin="round"/>
<path d="M97.894 233.098C99.8572 235.046 102.106 236.682 104.562 237.952" stroke="black" stroke-width="1.5" stroke-linecap="round" stroke-linejoin="round"/>
<path d="M96.64 241.572C93.0352 243.364 89.2174 244.692 85.278 245.524C80.15 246.598 80.836 243.596 86.266 241.306C90.6288 239.242 94.7674 236.732 98.616 233.82" stroke="black" stroke-width="1.5" stroke-linecap="round" stroke-linejoin="round"/>
<path d="M91.586 238.532C88.8242 238.988 86.021 239.14 83.226 238.988C79.502 238.532 78.436 236.356 84.1 235.492C88.5556 234.85 92.887 233.53 96.944 231.578C97.3834 228.822 98.4062 226.192 99.944 223.864" stroke="black" stroke-width="1.5" stroke-linecap="round" stroke-linejoin="round"/>
<path d="M185.332 251.946C185.142 243.7 184.648 220.178 185.332 210.716" stroke="black" stroke-width="1.5" stroke-linecap="round" stroke-linejoin="round"/>
<path d="M131.904 172.564C137.539 167.595 142.856 162.277 147.826 156.642" stroke="black" stroke-width="1.5" stroke-linecap="round" stroke-linejoin="round"/>
<path d="M254.34 114.31L251.34 111.042L248.756 103.1L256.47 106.33L292.6 145.584C293.224 146.259 293.556 147.155 293.52 148.074C293.484 148.994 293.086 149.861 292.41 150.486C291.734 151.111 290.838 151.442 289.92 151.406C289 151.371 288.132 150.971 287.508 150.296L258.818 119.096" stroke="black" stroke-width="1.5" stroke-linecap="round" stroke-linejoin="round"/>
<path d="M287.134 139.656C285.922 139.879 284.796 140.439 283.888 141.273C282.98 142.106 282.326 143.179 282 144.368" stroke="black" stroke-width="1.5" stroke-linecap="round" stroke-linejoin="round"/>
<path d="M289.186 141.898C287.974 142.121 286.85 142.682 285.942 143.516C285.036 144.349 284.382 145.422 284.056 146.61" stroke="black" stroke-width="1.5" stroke-linecap="round" stroke-linejoin="round"/>
<path d="M251.262 137.49C251.642 130.384 250.578 126.546 250.578 122.936C250.578 121.264 252.898 117.882 255.366 111.802C257.002 107.774 260.226 110.358 258.9 117.768C257.452 125.862 262.548 130.384 267.222 128.294" stroke="black" stroke-width="1.5" stroke-linecap="round" stroke-linejoin="round"/>
<path d="M264.562 115.108C267.336 115.526 269.692 115.944 270.762 116.21C270.914 118.094 270.914 119.988 270.762 121.872" stroke="black" stroke-width="1.5" stroke-linecap="round" stroke-linejoin="round"/>
<path d="M258.9 109C264.068 109.228 275.924 109.912 277.178 111.166C279.078 113.066 279.534 122.338 279.762 125.606" stroke="black" stroke-width="1.5" stroke-linecap="round" stroke-linejoin="round"/>
<path d="M279.04 117.274C285.69 129.32 285.766 130.954 282.878 135.02" stroke="black" stroke-width="1.5" stroke-linecap="round" stroke-linejoin="round"/>
<path d="M278.66 140.8C275.05 145.436 270.86 149.692 269.958 152.01" stroke="black" stroke-width="1.5" stroke-linecap="round" stroke-linejoin="round"/>
<path d="M189.676 110.058C192.336 107.776 194.729 105.2 196.808 102.378C192.628 96.64 197.286 93.038 199.05 97.134C200.066 99.494 201.14 95.88 201.14 92.954C202.53 93.0414 203.89 93.403 205.14 94.018C213.158 89.344 217.452 65.138 197.882 67.152C200.38 46.442 170.816 43.516 169.714 60.8C154.628 49.096 130.384 67.336 147.446 79.838C138.174 80.408 135.096 92.682 145.014 92.682C122.092 108.312 140.162 143.138 189.676 110.058Z" stroke="black" stroke-width="1.5" stroke-linecap="round" stroke-linejoin="round"/>
<path d="M167.51 126.318C179.328 119.554 193.198 107.918 196.808 102.378" stroke="black" stroke-width="1.5" stroke-linecap="round" stroke-linejoin="round"/>
<path d="M197.53 123.962C197.024 121.362 196.644 118.762 196.382 116.14C207.678 117.94 206.042 111.882 205.092 94.018" stroke="black" stroke-width="1.5" stroke-linecap="round" stroke-linejoin="round"/>
<path d="M196.382 116.14C196.208 114.418 196.086 112.7 196.01 110.966C199.962 113.854 203.61 115.678 204.826 113.854" stroke="black" stroke-width="1.5" stroke-linecap="round" stroke-linejoin="round"/>
</svg>
