<svg xmlns="http://www.w3.org/2000/svg" viewBox="0 0 48 48"><title>21-Folder</title><g id="_25-Folder" data-name="25-Folder"><path d="M45,10H44V9a2.9,2.9,0,0,0-3-3H24V5a3,3,0,0,0-3-3H3A3,3,0,0,0,0,5V45a3,3,0,0,0,3,3H45a3,3,0,0,0,3-3V13A3,3,0,0,0,45,10ZM24,8H41a.9.9,0,0,1,1,1v1H24ZM46,45a1,1,0,0,1-1,1H3a1,1,0,0,1-1-1V5A1,1,0,0,1,3,4H21a1,1,0,0,1,1,1v5H12v2H45a1,1,0,0,1,1,1Z"/><path d="M33,20H19a1,1,0,0,0-1,1V32.56A4,4,0,0,0,16,32a4,4,0,1,0,4,4V22H32v6.56A4,4,0,0,0,30,28a4,4,0,1,0,4,4V21A1,1,0,0,0,33,20ZM16,38a2,2,0,1,1,2-2A2,2,0,0,1,16,38Zm14-4a2,2,0,1,1,2-2A2,2,0,0,1,30,34Z"/></g></svg>