<svg xmlns="http://www.w3.org/2000/svg" viewBox="0 0 48 48"><title>28-Report</title><g id="_28-Report" data-name="28-Report"><path d="M45,4H30V1a1,1,0,0,0-1-1H19a1,1,0,0,0-1,1V4H3A3,3,0,0,0,0,7V37a1,1,0,0,0,1,1H23v2H22a1,1,0,0,0-1,1v6a1,1,0,0,0,1,1h4a1,1,0,0,0,1-1V41a1,1,0,0,0-1-1H25V38H47a1,1,0,0,0,1-1V7A3,3,0,0,0,45,4ZM25,46H23V42h2ZM46,36H2V34H46Zm0-4H2V7A1,1,0,0,1,3,6H25V4H20V2h8V5a1,1,0,0,0,1,1H45a1,1,0,0,1,1,1Z"/><path d="M30.59,18H16a1,1,0,0,0-.71.29L9,24.59V22H7v5a1,1,0,0,0,1,1h6V26H10.41l6-6H31a1,1,0,0,0,.71-.29l8-8-1.41-1.41Z"/></g></svg>