<svg width="150" height="285" viewBox="0 0 150 285" fill="none" xmlns="http://www.w3.org/2000/svg">
<g clip-path="url(#clip0_601_531)">
<path d="M65.4463 258.355C65.4463 258.355 74.2131 268.726 71.077 271.49C64.5559 277.258 69.0799 283.79 69.0799 283.79L90.5211 272.255L79.5229 251.805L65.4463 258.355Z" fill="#828181"/>
<path d="M69.0801 283.786L90.5213 272.255L79.5231 251.805" stroke="#2B4257" stroke-miterlimit="10" stroke-linecap="round"/>
<path d="M71.4268 268.004C71.4268 268.004 73.1823 266.296 74.9306 266.123" stroke="#2B4257" stroke-miterlimit="10" stroke-linecap="round"/>
<path d="M75.4389 266.407C75.7535 266.407 76.0085 266.152 76.0085 265.838C76.0085 265.523 75.7535 265.268 75.4389 265.268C75.1244 265.268 74.8694 265.523 74.8694 265.838C74.8694 266.152 75.1244 266.407 75.4389 266.407Z" stroke="#2B4257" stroke-miterlimit="10" stroke-linecap="round"/>
<path d="M71.5242 270.571C71.5242 270.571 73.2797 268.859 75.028 268.686" stroke="#2B4257" stroke-miterlimit="10" stroke-linecap="round"/>
<path d="M75.5217 268.97C75.8363 268.97 76.0913 268.715 76.0913 268.401C76.0913 268.086 75.8363 267.831 75.5217 267.831C75.2071 267.831 74.9521 268.086 74.9521 268.401C74.9521 268.715 75.2071 268.97 75.5217 268.97Z" stroke="#2B4257" stroke-miterlimit="10" stroke-linecap="round"/>
<path d="M58.8893 263.563C40.7213 230.007 40.2022 191.316 57.3825 151.678C69.9452 122.696 87.623 103.327 88.3836 102.516L109.594 122.051L98.9889 112.285L109.616 122.018C109.461 122.184 94.09 139.159 83.5388 163.873C70.1363 195.256 70.3814 224.174 84.2598 249.818L58.8893 263.563Z" fill="#BF866A"/>
<path d="M69.9019 162.666V149.991H58.1251C57.8848 150.549 57.6372 151.111 57.3825 151.678C51.5139 165.214 47.7145 178.638 45.9734 191.785C52.7158 190.451 58.7865 186.819 63.1501 181.509C67.5137 176.198 69.9 169.539 69.9019 162.666Z" fill="#2B4257"/>
<path d="M91.6134 124.397C91.6134 124.397 80.1105 140.529 85.0419 160.445C89.1821 151.471 94.1036 142.879 99.7493 134.768L91.6134 124.397Z" fill="#2B4257"/>
<path d="M109.601 122.032C109.446 122.198 94.0756 139.173 83.5245 163.888C70.1219 195.271 70.367 224.188 84.2454 249.833" stroke="#2B4257" stroke-miterlimit="10" stroke-linecap="round"/>
<path d="M49.4484 65.3979L43.5618 45.8528L33.0359 47.0784L39.2217 68.1231H45.4904" fill="#5BA4C1"/>
<path d="M43.5618 45.8528L33.0359 47.0784L39.2217 68.1231" stroke="#2B4257" stroke-miterlimit="10" stroke-linecap="round"/>
<path d="M97.4388 259.757C97.4388 259.757 100.247 273.04 96.1771 273.996C87.7059 275.978 88.6071 283.876 88.6071 283.876H112.954V260.658L97.4388 259.757Z" fill="#828181"/>
<path d="M88.5928 283.876H112.939V260.658" stroke="#2B4257" stroke-miterlimit="10" stroke-linecap="round"/>
<path d="M98.1453 271.097C98.1453 271.097 100.503 270.42 102.111 271.097" stroke="#2B4257" stroke-miterlimit="10" stroke-linecap="round"/>
<path d="M102.695 271.649C103.009 271.649 103.264 271.394 103.264 271.079C103.264 270.765 103.009 270.51 102.695 270.51C102.38 270.51 102.125 270.765 102.125 271.079C102.125 271.394 102.38 271.649 102.695 271.649Z" stroke="#2B4257" stroke-miterlimit="10" stroke-linecap="round"/>
<path d="M97.0208 273.394C97.0208 273.394 99.3747 272.719 100.986 273.394" stroke="#2B4257" stroke-miterlimit="10" stroke-linecap="round"/>
<path d="M101.555 273.949C101.87 273.949 102.125 273.694 102.125 273.379C102.125 273.065 101.87 272.81 101.555 272.81C101.241 272.81 100.986 273.065 100.986 273.379C100.986 273.694 101.241 273.949 101.555 273.949Z" stroke="#2B4257" stroke-miterlimit="10" stroke-linecap="round"/>
<path d="M37.0588 116.467C37.0588 116.467 28.2271 123.496 27.8666 129.804C27.5062 136.113 31.6517 141.34 32.4627 140.799C33.2738 140.258 35.7972 133.409 35.7972 133.409C35.7972 133.409 44.0881 137.014 46.7917 124.397" fill="#FBC2A5"/>
<path d="M32.4626 140.799C33.2737 140.258 35.7971 133.409 35.7971 133.409C35.7971 133.409 44.0881 137.014 46.7916 124.397" stroke="#2B4257" stroke-miterlimit="10" stroke-linecap="round"/>
<path d="M49.4376 79.4564C49.4376 79.4564 40.5338 73.6888 41.6153 65.3978C42.6967 57.1068 47.1414 59.8717 48.1039 63.3539C48.1039 63.3539 49.7837 61.6741 50.9877 63.2349C52.1917 64.7958 55.5513 67.2903 54.5925 73.0111" fill="#FBC2A5"/>
<path d="M50.9985 63.2351C52.1989 64.796 55.5622 67.2905 54.6033 73.0113" stroke="#FFF1D7" stroke-miterlimit="10" stroke-linecap="round"/>
<path d="M49.4376 79.4566C49.4376 79.4566 40.5338 73.6889 41.6153 65.3979" stroke="#2B4257" stroke-miterlimit="10" stroke-linecap="round"/>
<path d="M46.1284 128.067L33.0359 115.677C33.4576 115.234 75.2118 71.0501 87.9294 51.5735L103.015 61.4362C89.4038 82.2574 47.8876 126.207 46.1284 128.067Z" fill="#5BA4C1"/>
<path d="M63.7631 90.1195C62.2679 89.0319 60.7024 88.0445 59.0769 87.1636C55.7532 90.927 52.4837 94.5642 49.4485 97.9166C51.0785 99.6008 52.8541 101.138 54.7547 102.509C57.8173 104.793 61.2246 106.573 64.8481 107.783C67.3318 105.029 69.938 102.116 72.5876 99.1314C70.7059 96.1467 67.6562 92.9312 63.7631 90.1195Z" fill="#2B4257"/>
<path d="M105.874 11.5676C105.874 11.5676 109.573 -0.328132 118.639 0.392823" stroke="#586977" stroke-miterlimit="10" stroke-linecap="round"/>
<path d="M101.837 123.856C96.9082 123.856 92.1816 121.899 88.6967 118.414C85.2118 114.929 83.254 110.202 83.254 105.274V100.707H120.423V105.274C120.423 110.202 118.465 114.929 114.98 118.414C111.495 121.899 106.769 123.856 101.84 123.856H101.837Z" fill="#DD9872"/>
<path d="M120.423 100.71H83.254V63.9018C83.254 58.9734 85.2118 54.2468 88.6967 50.7619C92.1816 47.277 96.9082 45.3192 101.837 45.3192C106.765 45.3192 111.492 47.277 114.977 50.7619C118.461 54.2468 120.419 58.9734 120.419 63.9018V100.71H120.423Z" fill="#5BC0C3"/>
<path d="M83.2539 100.71V63.8982" stroke="#FFF1D7" stroke-miterlimit="10" stroke-linecap="round"/>
<path d="M148.717 283.876H39.593" stroke="#2B4257" stroke-miterlimit="10" stroke-linecap="round"/>
<path d="M32.4771 283.876H28.4434" stroke="#2B4257" stroke-miterlimit="10" stroke-linecap="round"/>
<path d="M101.84 45.3157C104.313 45.3127 106.76 45.805 109.039 46.7634C111.318 47.7218 113.382 49.1269 115.109 50.8959C113.084 55.9786 106.988 59.6699 99.782 59.6699C94.0684 59.6699 89.0541 57.3448 86.21 53.8482C87.8915 51.23 90.2041 49.0765 92.9353 47.5855C95.6665 46.0946 98.7286 45.3141 101.84 45.3157Z" fill="#FBC2A5"/>
<path d="M115.109 50.8958C113.084 55.9785 106.988 59.6698 99.782 59.6698C94.0684 59.6698 89.0541 57.3447 86.21 53.8481" stroke="#2B4257" stroke-miterlimit="10" stroke-linecap="round"/>
<path d="M118.649 0.392823C127.719 1.11378 144.661 13.8495 144.661 13.8495C144.661 13.8495 118.501 25.8642 109.111 12.0471L105.885 11.5676C105.885 11.5676 109.572 -0.328133 118.649 0.392823Z" fill="#2B4257"/>
<path d="M108.098 16.8272C110.404 16.8272 112.272 14.9583 112.272 12.6528C112.272 10.3474 110.404 8.47852 108.098 8.47852C105.793 8.47852 103.924 10.3474 103.924 12.6528C103.924 14.9583 105.793 16.8272 108.098 16.8272Z" fill="#5BC0C3"/>
<path d="M106.717 46.7071L95.2615 46.8513V35.0636L106.717 33.7839V46.7071Z" fill="#FBC2A5"/>
<path d="M106.718 33.7839V46.7071" stroke="#2B4257" stroke-miterlimit="10" stroke-linecap="round"/>
<path d="M95.2615 41.2459C98.5635 40.6799 100.989 38.8054 100.989 36.5597C100.984 36.0069 100.838 35.4647 100.564 34.9844L95.2615 35.0493V41.2459Z" fill="#2B4257"/>
<path d="M86.1559 13.1646L88.2466 29.6384H83.7371L86.1559 13.1646Z" fill="#F39B92"/>
<path d="M88.2466 29.6384H83.7371" stroke="#2B4257" stroke-miterlimit="10" stroke-linecap="round"/>
<path d="M95.2615 46.8477V35.0637" stroke="#FFF1D7" stroke-miterlimit="10" stroke-linecap="round"/>
<path d="M94.6343 39.2705H93.6034C91.6291 39.2705 89.7357 38.4862 88.3398 37.0903C86.9438 35.6943 86.1595 33.8009 86.1595 31.8266V13.1647L103.462 13.1647C103.881 13.1647 104.295 13.2471 104.682 13.4073C105.069 13.5674 105.42 13.8021 105.716 14.098C106.012 14.3939 106.246 14.7452 106.406 15.1319C106.567 15.5185 106.649 15.9329 106.649 16.3513V27.2486C106.649 30.437 105.382 33.4948 103.128 35.7494C100.873 38.0039 97.8155 39.2705 94.6271 39.2705H94.6343Z" fill="#FBC2A5"/>
<path d="M91.3035 9.73297C92.7583 8.98767 94.2913 8.40615 95.8744 7.99907H95.914C99.3149 7.07105 102.928 7.30059 106.184 8.65154C116.587 13.0674 119.615 26.3907 106.927 36.9418L100.546 25.3885C100.546 25.3885 95.6112 21.7837 94.6848 18.4133C94.3713 17.5598 93.9181 16.7643 93.3438 16.0594C91.3071 18.8314 87.4176 22.602 80.5757 24.3936C80.5757 24.4044 79.2455 15.3312 91.3035 9.73297Z" fill="#2B4257"/>
<path d="M80.5757 24.4044C80.5757 24.4044 79.2455 15.3311 91.3035 9.73291" stroke="#586977" stroke-miterlimit="10" stroke-linecap="round"/>
<path d="M100.546 25.3992C100.546 25.3992 95.6112 21.7945 94.6847 18.424C94.3712 17.5705 93.918 16.775 93.3438 16.0701" stroke="#586977" stroke-miterlimit="10" stroke-linecap="round"/>
<path d="M86.1558 30.1899V31.8265C86.1567 33.8005 86.9413 35.6933 88.3371 37.0891C89.7329 38.4849 91.6257 39.2694 93.5996 39.2704" stroke="#FFF1D7" stroke-miterlimit="10" stroke-linecap="round"/>
<path d="M92.6048 25.6157C92.5319 25.5566 92.4666 25.4888 92.4102 25.4138C92.3222 25.3096 92.2114 25.2271 92.0864 25.1727C91.9613 25.1183 91.8254 25.0935 91.6892 25.1002H88.1602V27.5983C88.1601 27.9559 88.231 28.31 88.3686 28.6402C88.5062 28.9703 88.7079 29.2698 88.962 29.5215C89.216 29.7733 89.5175 29.9721 89.8488 30.1067C90.1802 30.2413 90.5349 30.3088 90.8926 30.3055C91.6106 30.3055 92.2992 30.0203 92.8068 29.5126C93.3145 29.0049 93.5998 28.3163 93.5998 27.5983C93.5978 27.2135 93.507 26.8344 93.3344 26.4905C93.1619 26.1466 92.9122 25.8472 92.6048 25.6157Z" fill="#F4AB9D"/>
<path d="M88.1672 24.6385C88.3222 25.6479 89.2883 26.2967 90.5392 26.1381C91.3374 26.0248 92.0734 25.6435 92.6263 25.0567C92.4713 24.0438 91.5017 23.3985 90.2508 23.5571C89.4529 23.6681 88.7173 24.0499 88.1672 24.6385Z" fill="#F7F7F7"/>
<path d="M88.1672 24.6387C88.3222 25.648 89.2883 26.2969 90.5392 26.1383C91.3374 26.0249 92.0734 25.6436 92.6263 25.0568" stroke="#2B4257" stroke-miterlimit="10" stroke-linecap="round"/>
<path d="M90.1156 25.2073C90.1518 25.0399 90.0739 24.8811 89.9416 24.8524C89.8093 24.8238 89.6727 24.9362 89.6364 25.1035C89.6002 25.2708 89.6781 25.4297 89.8104 25.4584C89.9427 25.487 90.0793 25.3746 90.1156 25.2073Z" fill="#2B4257"/>
<path d="M94.6848 28.8491C95.72 28.8491 96.5593 28.0098 96.5593 26.9746C96.5593 25.9393 95.72 25.1001 94.6848 25.1001C93.6495 25.1001 92.8103 25.9393 92.8103 26.9746C92.8103 28.0098 93.6495 28.8491 94.6848 28.8491Z" fill="#E57873"/>
<path d="M88.6431 22.0072C89.1561 21.8194 89.7094 21.7695 90.2477 21.8625C90.786 21.9554 91.2905 22.1881 91.7107 22.5371" stroke="#2B4257" stroke-miterlimit="10" stroke-linecap="round"/>
<path d="M92.2408 29.9197C91.7568 30.5123 91.125 30.9668 90.4091 31.237C89.6933 31.5073 88.9187 31.5838 88.1638 31.4589" stroke="#2B4257" stroke-miterlimit="10" stroke-linecap="round"/>
<path d="M101.84 30.5973C103.55 30.5973 104.937 29.211 104.937 27.5008C104.937 25.7907 103.55 24.4043 101.84 24.4043C100.13 24.4043 98.7437 25.7907 98.7437 27.5008C98.7437 29.211 100.13 30.5973 101.84 30.5973Z" fill="#FBC2A5"/>
<path d="M101.84 29.087C102.716 29.087 103.426 28.3769 103.426 27.5009C103.426 26.6249 102.716 25.9148 101.84 25.9148C100.964 25.9148 100.254 26.6249 100.254 27.5009C100.254 28.3769 100.964 29.087 101.84 29.087Z" fill="#F4AB9D"/>
<path d="M42.0335 184.597H31.9689C26.8407 184.598 21.8464 182.96 17.7144 179.923C13.5824 176.885 10.5289 172.607 8.99928 167.712L3.45874 149.991H70.5437L65.0031 167.712C63.4735 172.607 60.42 176.885 56.288 179.923C52.156 182.96 47.1617 184.598 42.0335 184.597Z" fill="#E57873"/>
<path d="M65.0031 167.712C63.4735 172.607 60.42 176.885 56.288 179.923C52.156 182.96 47.1617 184.598 42.0335 184.597H31.9689C26.8407 184.598 21.8463 182.96 17.7144 179.923C13.5824 176.885 10.5289 172.607 8.99927 167.712" stroke="#2B4257" stroke-miterlimit="10" stroke-linecap="round"/>
<path d="M71.1565 145.846H2.84594C1.70119 145.846 0.773193 146.774 0.773193 147.918C0.773193 149.063 1.70119 149.991 2.84594 149.991H71.1565C72.3012 149.991 73.2292 149.063 73.2292 147.918C73.2292 146.774 72.3012 145.846 71.1565 145.846Z" fill="#E57873"/>
<path d="M71.1564 145.846C71.4287 145.845 71.6984 145.899 71.9501 146.003C72.2018 146.107 72.4305 146.259 72.6231 146.452C72.8156 146.644 72.9683 146.873 73.0723 147.125C73.1763 147.376 73.2296 147.646 73.2291 147.918V147.918C73.2291 148.468 73.0107 148.995 72.622 149.384C72.2333 149.773 71.7061 149.991 71.1564 149.991H12.8311" stroke="#2B4257" stroke-miterlimit="10" stroke-linecap="round"/>
<path d="M0.773197 147.918C0.772722 147.646 0.826011 147.376 0.930008 147.125C1.034 146.873 1.18666 146.644 1.37923 146.452C1.5718 146.259 1.80048 146.107 2.05218 146.003C2.30387 145.899 2.57361 145.845 2.84594 145.846H71.1565" stroke="#FFF1D7" stroke-miterlimit="10" stroke-linecap="round"/>
<path d="M24.5359 157.922L27.1674 169.817" stroke="#2B4257" stroke-miterlimit="10" stroke-linecap="round"/>
<path d="M31.9688 157.922L34.6002 169.817" stroke="#2B4257" stroke-miterlimit="10" stroke-linecap="round"/>
<path d="M39.4019 157.922L42.0333 169.817" stroke="#2B4257" stroke-miterlimit="10" stroke-linecap="round"/>
<path d="M46.835 157.922L49.4665 169.817" stroke="#2B4257" stroke-miterlimit="10" stroke-linecap="round"/>
<path d="M89.6054 112.2L88.5938 264.726L117.431 264.917L118.443 112.392L89.6054 112.2Z" fill="#DD9872"/>
<path d="M118.429 112.379L117.431 264.904" stroke="#2B4257" stroke-miterlimit="10" stroke-linecap="round"/>
<path d="M88.5928 264.713L89.5192 123.132" stroke="#FFF1D7" stroke-miterlimit="10" stroke-linecap="round"/>
<path d="M86.0765 109.812C80.6694 109.812 74.999 108.096 69.1809 104.672C61.1098 99.9281 52.7287 91.9723 43.5618 80.3505L57.7105 69.1757C70.1686 84.9646 81.4696 93.3277 87.9402 91.5253C91.9054 90.4439 95.8995 85.0007 98.9348 76.6268C100.664 71.7497 101.923 66.7186 102.695 61.6021L120.574 63.8839C119.643 70.3189 118.073 76.6452 115.888 82.7693C110.614 97.3146 102.832 106.103 92.767 108.893C90.5889 109.502 88.3381 109.811 86.0765 109.812Z" fill="#5BC0C3"/>
<path d="M57.7285 69.1902C70.1866 84.9791 81.4876 93.3422 87.9582 91.5398C91.9234 90.4584 95.9175 85.0152 98.9528 76.6413" stroke="#FFF1D7" stroke-miterlimit="10" stroke-linecap="round"/>
<path d="M115.881 82.78C110.607 97.3253 102.824 106.114 92.7598 108.904C90.5835 109.508 88.3351 109.814 86.0765 109.812C80.6693 109.812 74.999 108.096 69.1809 104.672" stroke="#2B4257" stroke-miterlimit="10" stroke-linecap="round"/>
<path d="M26.4896 130.886C23.2218 130.886 20.0879 132.184 17.7772 134.495C15.4666 136.805 14.1685 139.939 14.1685 143.207V145.846" stroke="#2B4257" stroke-miterlimit="10" stroke-linecap="round"/>
<path d="M59.9492 145.846V143.207C59.9492 139.941 58.652 136.808 56.3429 134.497C54.0338 132.187 50.9018 130.888 47.6353 130.886" stroke="#2B4257" stroke-miterlimit="10" stroke-linecap="round"/>
</g>
<defs>
<clipPath id="clip0_601_531">
<rect x="0.412598" width="148.665" height="284.237" fill="white"/>
</clipPath>
</defs>
</svg>
