<svg width="894" height="963" viewBox="0 0 894 963" fill="none" xmlns="http://www.w3.org/2000/svg">
<g clip-path="url(#clip0_16_68)">
<rect width="894" height="963" fill="white"/>
<path d="M848.18 758.43H563.51C538.78 758.43 518.55 738.2 518.55 713.47V45.1499C518.55 20.4199 538.78 0.189941 563.51 0.189941H848.18C872.91 0.189941 893.14 20.4199 893.14 45.1499V713.47C893.14 738.19 872.91 758.43 848.18 758.43Z" fill="#A7ADFF"/>
<path d="M824.41 687.69H587.28C562.55 687.69 542.32 667.46 542.32 642.73V70.6299C542.32 45.8999 562.55 25.6699 587.28 25.6699H824.41C849.14 25.6699 869.37 45.8999 869.37 70.6299V642.73C869.37 667.45 849.14 687.69 824.41 687.69Z" fill="#E3E5FC"/>
<path d="M741.13 17.52H670.56C668.84 17.52 667.44 16.11 667.44 14.4C667.44 12.68 668.85 11.28 670.56 11.28H741.13C742.85 11.28 744.25 12.69 744.25 14.4C744.25 16.12 742.84 17.52 741.13 17.52Z" fill="#E3E5FC"/>
<path d="M705.84 740.15C716.571 740.15 725.27 731.451 725.27 720.72C725.27 709.989 716.571 701.29 705.84 701.29C695.109 701.29 686.41 709.989 686.41 720.72C686.41 731.451 695.109 740.15 705.84 740.15Z" fill="#E3E5FC"/>
<path d="M795.02 608.69H616.66C600.77 608.69 587.77 595.69 587.77 579.8V568.58C587.77 552.69 600.77 539.69 616.66 539.69H795.02C810.91 539.69 823.91 552.69 823.91 568.58V579.8C823.92 595.69 810.91 608.69 795.02 608.69Z" fill="#F44E4E"/>
<path d="M707.82 208C692.83 204.25 689.08 159.29 674.1 159.29C641.18 162.28 629.76 205.9 611.23 238.62C613.65 252.1 625.49 262.43 639.64 262.43H771.56C787.45 262.43 800.45 249.43 800.45 233.54V138.95C795.87 139.31 791.19 140.96 786.5 144.31C760.28 166.78 741.55 215.49 707.82 208Z" fill="#A7ADFF"/>
<path d="M771.8 100.03H639.88C623.99 100.03 610.99 113.03 610.99 128.92V233.53C610.99 235.27 611.17 236.96 611.47 238.62C630 205.9 641.42 162.28 674.34 159.29C689.33 159.29 693.08 204.25 708.06 208C741.78 215.49 760.52 166.78 786.75 144.3C791.43 140.95 796.12 139.31 800.7 138.94V128.92C800.7 113.03 787.69 100.03 771.8 100.03Z" fill="white"/>
<path d="M791.4 323.4H620.29C615.7 323.4 611.94 319.64 611.94 315.05C611.94 310.46 615.7 306.7 620.29 306.7H791.4C795.99 306.7 799.75 310.46 799.75 315.05C799.75 319.64 795.99 323.4 791.4 323.4Z" fill="#A7ADFF"/>
<path d="M791.4 361.63H620.29C615.7 361.63 611.94 357.87 611.94 353.28C611.94 348.69 615.7 344.93 620.29 344.93H791.4C795.99 344.93 799.75 348.69 799.75 353.28C799.75 357.87 795.99 361.63 791.4 361.63Z" fill="white"/>
<path d="M791.4 399.85H620.29C615.7 399.85 611.94 396.09 611.94 391.5C611.94 386.91 615.7 383.15 620.29 383.15H791.4C795.99 383.15 799.75 386.91 799.75 391.5C799.75 396.1 795.99 399.85 791.4 399.85Z" fill="white"/>
<path d="M724.58 167.25C733.764 167.25 741.21 159.804 741.21 150.62C741.21 141.435 733.764 133.99 724.58 133.99C715.395 133.99 707.95 141.435 707.95 150.62C707.95 159.804 715.395 167.25 724.58 167.25Z" fill="#A7ADFF"/>
<path d="M704.41 507.17C703.34 506.3 703.18 504.72 704.05 503.66L726.94 475.55C727.81 474.48 729.39 474.32 730.45 475.19C731.52 476.06 731.68 477.64 730.81 478.7L707.92 506.81C707.05 507.88 705.47 508.04 704.41 507.17Z" fill="white"/>
<path d="M707.28 507.17C708.35 506.3 708.51 504.72 707.64 503.66L684.75 475.55C683.88 474.48 682.3 474.32 681.24 475.19C680.17 476.06 680.01 477.64 680.88 478.7L703.77 506.81C704.63 507.88 706.21 508.04 707.28 507.17Z" fill="white"/>
<path d="M705.84 944.77C801.435 944.77 878.93 933.34 878.93 919.24C878.93 905.14 801.435 893.71 705.84 893.71C610.245 893.71 532.75 905.14 532.75 919.24C532.75 933.34 610.245 944.77 705.84 944.77Z" fill="#E3E5FC"/>
<path d="M220.18 311.6H30.06C13.78 311.6 0.459961 298.28 0.459961 282C0.459961 265.72 13.78 252.4 30.06 252.4H220.19C236.47 252.4 249.79 265.72 249.79 282C249.78 298.28 236.46 311.6 220.18 311.6Z" fill="#E3E5FC"/>
<path d="M220.94 283.94C220.42 284.58 219.46 284.68 218.82 284.16L201.89 270.37C201.25 269.85 201.15 268.89 201.67 268.25C202.19 267.61 203.15 267.51 203.79 268.03L220.72 281.82C221.36 282.34 221.46 283.3 220.94 283.94Z" fill="white"/>
<path d="M220.94 282.21C220.42 281.57 219.46 281.47 218.82 281.99L201.89 295.78C201.25 296.3 201.15 297.26 201.67 297.9C202.19 298.54 203.15 298.64 203.79 298.12L220.72 284.33C221.36 283.8 221.46 282.85 220.94 282.21Z" fill="white"/>
<path d="M147.39 377.47H20.25C9.35996 377.47 0.459961 368.56 0.459961 357.68C0.459961 346.79 9.36996 337.89 20.25 337.89H147.39C158.28 337.89 167.18 346.8 167.18 357.68C167.19 368.56 158.28 377.47 147.39 377.47Z" fill="#A7ADFF"/>
<path d="M147.9 358.97C147.55 359.4 146.91 359.46 146.48 359.11L135.16 349.89C134.73 349.54 134.67 348.9 135.02 348.47C135.37 348.04 136.01 347.98 136.44 348.33L147.76 357.55C148.18 357.9 148.25 358.54 147.9 358.97Z" fill="white"/>
<path d="M147.9 357.81C147.55 357.38 146.91 357.32 146.48 357.67L135.16 366.89C134.73 367.24 134.67 367.88 135.02 368.31C135.37 368.74 136.01 368.8 136.44 368.45L147.76 359.23C148.18 358.88 148.25 358.24 147.9 357.81Z" fill="white"/>
<path d="M317.85 367.29C317.85 367.29 295.09 397.37 293.72 419.22C292.35 441.07 350.07 449.79 350.07 449.79L317.85 367.29Z" fill="#D4A79A"/>
<path d="M382.19 283.6L379.75 329.02L344.2 342.73C344.2 342.73 365.58 311.45 361.95 283.6C358.34 255.75 382.19 283.6 382.19 283.6Z" fill="#D4A79A"/>
<path d="M413.96 190.67C413.96 190.67 421.7 200.93 414.15 232.38C406.6 263.84 394.34 290.7 384.86 288.8C358.65 283.56 349.45 265.04 340.36 249.14C329.22 229.64 351.34 182.08 351.34 182.08L372.24 170.8L413.96 190.67Z" fill="#EAC2AB"/>
<path d="M441.87 182.19C444.16 174.81 440.14 165.37 434.77 160.81C432.7 159.05 430.09 157.93 427.48 158.19C425.52 158.38 423.6 159.33 421.65 159.01C415.81 158.04 415.11 149.43 409.69 147.68C405.65 146.38 401.77 150.04 397.65 151.01C394.54 151.74 391.32 150.9 388.19 150.25C379.38 148.4 371.21 144.17 362.18 143.08C354.56 142.16 346.61 143.02 339.72 146.72C332.52 150.58 327.36 157.68 324.61 165.88C322.97 170.78 322.44 176.24 323.76 181.26C322.68 177.13 315.25 181.57 314.04 183.19C309.31 189.57 308.51 203.4 311.02 210.82C313.01 216.7 316.28 221.9 318.1 227.86C320.26 234.97 321.16 242.86 325.1 249.16C329.61 256.39 338.57 260.07 346.28 258.07C343.9 251.53 341.54 244.84 341.1 237.82C340.66 230.8 331.37 199.07 365.95 192.22C379.7 189.5 396.26 200.96 410.03 201.51C416.57 201.77 423.12 200.5 429.25 198.01C433.99 196.09 438.6 189.02 441.21 183.85C441.48 183.32 441.7 182.77 441.87 182.19Z" fill="#4B369D"/>
<path d="M341.15 214.94C341.15 214.94 331.49 204.03 332.55 220.68C333.61 237.33 342.33 240.77 342.33 240.77L341.15 214.94Z" fill="#EAC2AB"/>
<path d="M258.75 852.87L237.81 907.85L218.71 902.74L243.97 846.67C243.96 846.67 254.79 847.96 258.75 852.87Z" fill="#D4A79A"/>
<path d="M286.74 959.12C286.06 960.26 279.3 959.8 278.29 959.81C267.86 959.96 251.83 960.72 242.86 954.69C234.12 948.81 228.5 938.71 220.78 931.63C215.35 926.65 208.42 923.63 202 920.1C194.91 916.2 209.33 883.86 217.93 889.09C224.89 893.33 221.47 905.05 239.22 903.53C254.43 902.22 244.77 923.94 262.46 936.88C278.1 948.32 294.2 946.62 286.74 959.12Z" fill="#F3AA02"/>
<path d="M297.39 656.57C288.89 702.82 271.15 744.91 244.81 783.73C231.96 802.66 218.21 820.91 204.9 839.52C185.92 866.06 250.25 872.27 266.09 877.06C276.45 880.19 291.86 880.99 291.17 873C290.97 870.65 289.16 868.34 287.67 866.08C274.1 845.35 285.96 824.47 295.35 805.89C323.48 750.18 342.47 685.95 364.54 627.9C372.94 605.8 369.16 584.03 370.38 559.79C371.13 544.95 345.4 479.58 317.29 495.69C299.8 505.72 309.49 543.84 311.36 559.16C312.66 569.75 314.94 581.3 313.2 591.97C309.64 613.83 301.41 634.72 297.39 656.57Z" fill="#4B369D"/>
<path d="M365.9 871.37L378.91 930.56L359.57 936.94L349.66 874.37C349.67 874.38 359.73 869.38 365.9 871.37Z" fill="#EAC2AB"/>
<path d="M458.12 953.89C458.12 953.89 443.65 958.83 415.91 960.89C388.17 962.95 357.21 963.98 351.59 959.86C345.96 955.74 342.34 920.75 351.59 920.75C360.84 920.75 364.43 934.13 380.74 922.19C394.71 911.96 405.87 931.25 430.19 936.39C454.5 941.54 464.35 943.6 458.12 953.89Z" fill="#FDC510"/>
<path d="M416.27 887.95C415.34 885.78 412.9 884.16 410.78 882.47C391.41 867.03 396.14 843.48 399.24 822.9C406.59 774.08 398.72 724.87 395.78 676.04C392.92 628.38 397.69 580.55 408.58 534.09C412.54 517.21 418 491.11 391.89 496.05C379.52 498.39 367.31 497.93 354.98 495.77C348.49 494.63 355.11 492.52 348.49 494.63C325.94 501.83 317.51 544.45 322.14 559.3C331.36 588.87 334.36 617.25 335.86 648.56C337.98 692.96 345.37 737.41 340.1 781.47C337.52 803.06 334.52 824.59 331.64 846.14C329.96 858.71 319.45 886.25 326.5 897.63C336.18 913.25 379.31 900.01 393.72 899.66C404.54 899.38 419.42 895.32 416.27 887.95Z" fill="#5A54FF"/>
<path d="M397.07 413.53C390.53 386.99 397.63 342.35 378.92 322.66C377 320.64 374.97 318.65 372.43 317.5C348.92 306.91 334.74 326.21 324.63 342.94C314.51 359.69 314.74 377.81 309.8 396.59C304.18 417.94 305.31 440.14 304.91 462.18C304.66 475.6 306.3 488.93 305.54 502.37C305.01 511.75 303.68 521.07 301.54 530.21C300.12 536.29 292.17 548.36 294.49 554.55C296.33 559.45 304.75 557.6 308.89 557.74C324.9 558.27 340.59 553.52 354.83 546.48C367.84 540.05 379.24 530.08 394.24 528.84C401.69 528.22 425.15 531.28 421.78 517.73C413.79 485.64 404.68 458.28 401.37 435.62C400.3 428.29 398.88 420.89 397.07 413.53Z" fill="#D7384E"/>
<path d="M429.75 435.74C429.75 435.74 457.2 466.11 461.67 461.8C466.14 457.49 548.23 369.78 552.34 360.23C556.45 350.68 566.28 323.06 565.25 317.49C564.22 311.92 561.61 312.52 572.49 310.55C583.37 308.58 604.05 308.11 602.37 312.33C600.69 316.55 592.09 316.91 592.09 316.91C592.09 316.91 603.23 319.64 599.02 321.9C594.81 324.16 580.8 326.05 582.16 330.1C583.52 334.15 585.55 343.43 584.81 351.28C584.07 359.13 581.04 362.68 571.94 368.28C562.84 373.87 561.24 369.98 555.94 381.05C550.64 392.12 470.11 488.3 464.97 492.28C459.83 496.26 458.49 500.65 447.07 490.13C435.65 479.61 415.54 453.57 399.45 436.73C384.69 421.29 378.62 399.55 378.62 399.55L402.5 396.03C402.5 396.03 405.3 412.59 429.75 435.74Z" fill="#EAC2AB"/>
<path d="M412.1 396.69C412.1 396.69 393.16 335.36 368.71 347.07C344.26 358.78 378.63 424.28 378.63 424.28L418.37 404.53L412.1 396.69Z" fill="#F44E4E"/>
</g>
<defs>
<clipPath id="clip0_16_68">
<rect width="894" height="963" fill="white"/>
</clipPath>
</defs>
</svg>
