<svg width="400" height="400" viewBox="0 0 400 400" fill="none" xmlns="http://www.w3.org/2000/svg">
<path d="M377.418 220.902C374.457 224.877 371.132 228.568 367.488 231.928L372.194 170.328L91.884 104.576L80.372 107.2L367.456 174.512L360.724 236.556C355.52 240.333 349.813 243.363 343.768 245.556C322.226 253.29 54.184 183.736 53.984 183.696V184.064C55.014 251.29 31.7 295.154 31.7 295.154L324.822 366.488C346.558 362.584 363.822 338.626 363.822 338.626C372.822 306.298 377.306 228.588 377.718 221.076C377.718 221.041 377.709 221.006 377.691 220.976C377.674 220.945 377.649 220.92 377.618 220.902C377.588 220.884 377.553 220.875 377.518 220.875C377.483 220.875 377.448 220.884 377.418 220.902ZM116.766 287.076C113.879 290.35 110.293 292.934 106.274 294.638C102.255 296.342 97.9047 297.122 93.544 296.92C79.028 296.42 65.744 285.45 61.574 271.52C53.014 242.966 81.536 213.32 100.254 225.186L106.454 226.486C116.454 228.708 122.564 239.16 124.472 249.242C127.438 264.734 122.902 279.734 116.766 287.076ZM207.776 266.424C193.75 262.476 179.577 259.065 165.29 256.2C165.594 253.046 165.89 249.88 166.19 246.726C166.39 246.792 207.39 254.326 208.654 255.388C208.944 255.64 208.904 255.152 207.776 266.424ZM304 326.646C301.113 329.92 297.527 332.504 293.508 334.208C289.489 335.912 285.139 336.692 280.778 336.49C266.262 335.99 252.978 325.02 248.808 311.1C240.248 282.546 268.766 252.89 287.49 264.764L293.69 266.066C303.69 268.288 309.8 278.74 311.708 288.822C314.676 304.318 310.13 319.318 304 326.646Z" fill="#D1A9FF"/>
<path d="M328.558 214.918C326.358 214.718 314.02 212.53 315.758 210.582C316.4 209.858 317.654 209.812 318.576 209.67C325.36 208.694 332.271 210.113 338.122 213.682C336.186 215.6 331.27 215.164 328.558 214.918Z" fill="#AC47F5"/>
<path d="M362.154 98.452C361.178 170.708 318.29 192.488 307.666 196.78C298.158 170.448 278.906 92.75 352.678 29.904C352.678 29.904 312.556 24.33 264.078 56.104C264.078 56.104 264.632 29.358 285.814 10.96C285.814 10.96 235.176 19.36 195.574 58.802L201.736 60.662C201.948 60.7229 202.127 60.8649 202.235 61.0572C202.343 61.2496 202.371 61.4767 202.313 61.6894C202.254 61.9021 202.114 62.0831 201.923 62.1933C201.732 62.3035 201.505 62.3339 201.292 62.278C198.94 61.572 196.582 60.852 194.23 60.146C193.698 60.69 193.166 61.252 192.63 61.806C192.707 61.9574 192.736 62.1293 192.71 62.2975C192.685 62.4657 192.608 62.6218 192.489 62.7438C192.371 62.8658 192.217 62.9477 192.05 62.9778C191.882 63.008 191.71 62.985 191.556 62.912C169.096 87 151.034 121.8 149.4 171.694C195.756 180.876 261.486 194.07 310.844 204.704C309.791 202.324 308.818 199.909 307.928 197.464C322.839 196.535 337.352 192.276 350.4 185C408.332 151.538 362.15 98.652 362.154 98.452ZM248.17 74.958C248.109 75.1711 247.967 75.3518 247.775 75.4614C247.582 75.571 247.354 75.6006 247.14 75.544C244.818 74.6955 242.43 74.0393 240 73.582C239.787 73.5208 239.607 73.3788 239.497 73.1863C239.388 72.9938 239.358 72.7662 239.414 72.552C239.479 72.3414 239.621 72.1635 239.813 72.0546C240.004 71.9456 240.23 71.9139 240.444 71.966C242.871 72.4247 245.257 73.0809 247.578 73.928C247.791 73.9897 247.971 74.1315 248.082 74.3235C248.192 74.5156 248.224 74.743 248.17 74.958ZM263.97 77.408C256.366 74.7881 248.632 72.5592 240.8 70.73C239.75 70.492 240.2 68.876 241.246 69.116C249.083 70.9366 256.819 73.1677 264.422 75.8C265.43 76.152 265 77.758 263.976 77.4L263.97 77.408Z" fill="#FEE253"/>
<path d="M92.72 160.582L54.12 183.738C60.484 185.386 322.296 253.274 343.774 245.566C367.244 237.142 375.374 223.112 377.374 220.924C383.528 217.768 99.814 162 92.72 160.582ZM100.45 176.486C94.772 178.578 88.156 174.886 88.276 173.96L88.958 168.41C100.232 172.842 102.488 169.124 102.488 169.124C101.476 176.452 102 175.92 100.45 176.486ZM120.506 180.942C114.522 183.142 108.23 179.214 108.332 178.416L109.014 172.866C120.288 177.298 122.544 173.582 122.544 173.582C121.53 180.92 122.052 180.374 120.506 180.942ZM141.678 185.4C136.078 187.468 129.382 183.836 129.504 182.874L130.186 177.324C141.462 181.758 143.716 178.038 143.716 178.038C142.708 185.348 143.23 184.842 141.678 185.4ZM338.078 224.6C337.742 225.988 337.278 226.032 335.856 226.552C325.346 230.392 313.184 223.61 313.404 221.88L314.672 211.658C335.444 219.82 339.596 212.968 339.596 212.968C337.884 226.04 338.2 224.098 338.076 224.6H338.078ZM53.714 183.988L53.99 184.074V183.814L53.714 183.988Z" fill="#FCAFB7"/>
<path d="M79.874 107.308C79.554 107.378 79.546 107.342 79.862 107.428L79.874 107.308Z" fill="#D1A9FF"/>
<path d="M79.906 107.092C79.08 112.606 82.506 88.08 70.706 174.242L79.906 168.94L84.906 118.236L358.218 180.65L352.69 243.344L360.604 237.652L367.456 174.512L79.906 107.092Z" fill="#AC47F5"/>
<path d="M131.812 175.856C126.59 176.77 133.774 179.786 140.378 179.63C140.981 179.695 141.59 179.607 142.149 179.374C142.709 179.14 143.2 178.77 143.578 178.296C140.101 176.034 135.901 175.163 131.812 175.856ZM119.2 175.174C119.804 175.241 120.415 175.153 120.977 174.92C121.538 174.687 122.031 174.315 122.41 173.84C118.93 171.58 114.726 170.714 110.636 171.412C105.362 172.338 112.704 175.328 119.2 175.174ZM99.138 170.718C99.7404 170.783 100.349 170.695 100.909 170.462C101.468 170.23 101.96 169.859 102.338 169.386C98.859 167.125 94.6559 166.257 90.566 166.956C85.318 167.878 92.614 170.872 99.138 170.718ZM38.656 159.53C31.566 163.73 28.41 171.954 28.042 179.868C27.9446 182.496 28.0536 185.127 28.368 187.738C28.486 188.79 30.168 188.812 30.038 187.738C29.2146 182.302 29.6331 176.749 31.262 171.498C32.6957 167.138 35.6111 163.417 39.502 160.982C39.6945 160.87 39.8346 160.686 39.8915 160.47C39.9483 160.255 39.9172 160.025 39.805 159.833C39.6928 159.64 39.5087 159.5 39.2932 159.443C39.0778 159.387 38.8485 159.418 38.656 159.53Z" fill="#AC47F5"/>
<path d="M40.326 146.554C32.766 146.922 25.066 155.108 21.158 161.72C17.9836 167.049 16.0256 173.013 15.4241 179.186C14.8225 185.359 15.5921 191.589 17.678 197.43C18.058 198.43 19.678 197.994 19.294 196.986C16.7523 189.873 16.2437 182.192 17.8254 174.806C19.4071 167.42 23.0163 160.621 28.248 155.172C31.436 151.93 35.588 148.45 40.326 148.224C41.4 148.168 41.41 146.5 40.326 146.554ZM374.904 339.958C377.497 337.232 379.234 333.804 379.898 330.101C380.562 326.397 380.126 322.58 378.642 319.122C378.21 318.136 376.768 318.992 377.202 319.968C378.507 323.103 378.873 326.55 378.255 329.89C377.637 333.229 376.062 336.317 373.722 338.778C372.974 339.546 374.154 340.728 374.904 339.958Z" fill="#AC47F5"/>
<path d="M382.546 302.166C382.388 302.015 382.177 301.932 381.959 301.934C381.74 301.936 381.531 302.024 381.377 302.179C381.222 302.333 381.134 302.542 381.132 302.761C381.13 302.979 381.213 303.19 381.364 303.348C384.143 306.956 386.157 311.093 387.285 315.505C388.413 319.918 388.63 324.513 387.923 329.012C387.215 333.511 385.599 337.819 383.173 341.673C380.746 345.527 377.56 348.846 373.808 351.428C372.93 352.028 373.764 353.488 374.652 352.87C378.623 350.158 381.997 346.661 384.564 342.595C387.131 338.528 388.837 333.979 389.577 329.227C390.316 324.475 390.074 319.623 388.865 314.968C387.656 310.314 385.505 305.957 382.546 302.166ZM22.232 281.938C22.86 281.07 21.418 280.224 20.79 281.092C18.839 283.991 18.0752 287.528 18.6562 290.973C19.2371 294.418 21.1184 297.509 23.912 299.608C24.79 300.238 25.624 298.784 24.758 298.166C22.3444 296.295 20.7381 293.572 20.2684 290.554C19.7987 287.537 20.5013 284.454 22.232 281.938Z" fill="#AC47F5"/>
<path d="M13.558 279.726C14.024 278.726 14.588 277.406 15.782 277.126C16.832 276.888 16.382 275.272 15.336 275.51C13.016 276.032 11.998 278.882 11.304 280.878C9.7566 285.443 9.58849 290.362 10.8206 295.022C12.0528 299.681 14.6306 303.875 18.232 307.078C19.044 307.772 20.232 306.59 19.412 305.896C15.7987 302.71 13.2864 298.463 12.2349 293.762C11.1833 289.061 11.6465 284.148 13.558 279.726ZM290.288 251.702C266.384 243.33 246.474 257.642 239.464 281.114C232.246 305.408 240.972 333.692 267.152 341.514C277.778 344.678 289.268 346.652 299.904 342.488C317.174 335.724 326.724 315.636 326.464 297.834C326.162 277 309.312 258.364 290.288 251.702ZM304 326.646C301.113 329.92 297.527 332.504 293.508 334.208C289.489 335.912 285.139 336.692 280.778 336.49C266.264 335.99 252.978 325.02 248.808 311.1C240.248 282.546 268.766 252.89 287.49 264.764L293.69 266.066C303.69 268.288 309.8 278.738 311.708 288.822C314.676 304.318 310.13 319.318 304 326.646Z" fill="#AC47F5"/>
<path d="M23.088 262.78C25.59 260.074 18.454 249.654 16.312 246.648C20.9787 243.507 25.6547 240.363 30.34 237.218C32.712 240.428 36.766 246.108 37.648 249.968C36.5825 249.541 35.3967 249.524 34.3194 249.92C33.2421 250.316 32.3496 251.097 31.814 252.112C31.4849 252.674 31.322 253.318 31.3442 253.969C31.3664 254.62 31.5729 255.251 31.9397 255.789C32.3064 256.328 32.8183 256.751 33.416 257.01C34.0136 257.269 34.6725 257.353 35.316 257.252C42.438 256.412 39.078 247.384 35.208 241.338C32.9908 237.881 30.5426 234.577 27.88 231.45C27.7502 231.322 27.5823 231.241 27.4018 231.217C27.2213 231.194 27.0381 231.23 26.88 231.32C24.292 232.92 11.308 241.822 11.42 242.638C10.654 243.924 14.664 244.462 20.538 256.904C19.7624 256.766 18.9629 256.893 18.2684 257.265C17.5739 257.637 17.025 258.232 16.71 258.954C16.5028 259.48 16.4226 260.048 16.4757 260.611C16.5288 261.174 16.7138 261.716 17.0157 262.195C17.3176 262.673 17.7279 263.073 18.2134 263.363C18.6989 263.653 19.2458 263.825 19.81 263.864C20.4029 263.946 21.0066 263.89 21.5748 263.703C22.1431 263.515 22.6607 263.199 23.088 262.78ZM33.072 254.098C32.872 252.074 34.996 250.482 37.82 251.788C37.758 256.292 33.318 256.47 33.072 254.098ZM29.342 235.874L15.342 245.294C14.768 244.494 14.182 243.694 13.596 242.91C17.8921 239.361 22.4113 236.091 27.126 233.12C27.868 234.03 28.628 234.942 29.342 235.874ZM18.274 261.122C18.0803 260.717 18.036 260.257 18.1491 259.822C18.2622 259.388 18.5254 259.007 18.892 258.748C19.982 257.99 21.846 258.658 22.046 260.874C22.2 262.836 18.944 262.37 18.274 261.122ZM153.722 266.6C174.013 271.25 194.566 274.679 215.268 276.866C215.451 276.866 215.629 276.806 215.774 276.694C215.918 276.582 216.022 276.425 216.068 276.248C217.789 268.368 218.969 260.381 219.6 252.34C219.708 251.669 219.718 250.986 219.632 250.312C219.328 248.926 218.048 248.656 216.846 248.406C162.946 237.078 157.128 235.146 156.7 237.806L153.252 263.574C153.262 263.788 153.355 263.991 153.51 264.139C153.666 264.287 153.872 264.369 154.087 264.369C154.302 264.369 154.508 264.287 154.664 264.139C154.819 263.991 154.911 263.788 154.922 263.574L158.272 238.554C160.884 238.417 163.501 238.702 166.022 239.398C220.306 250.926 217.846 249.998 217.994 250.738C217.489 258.934 216.347 267.079 214.58 275.098C194.253 272.929 174.074 269.544 154.152 264.962C153.126 264.744 152.672 266.358 153.722 266.6ZM342.89 247.4C343.856 259.506 341.94 264.894 324.426 363.67C324.242 364.722 325.848 365.178 326.042 364.116C344.494 260.19 345.478 258.934 344.57 247.4C344.472 246.346 342.8 246.334 342.89 247.4ZM149.788 207.708C119 199.908 86.352 193.652 59.742 183.456C58.742 183.068 58.3 184.682 59.296 185.072C86.558 195.544 121.672 202.22 149.332 209.334C150.384 209.584 150.828 207.972 149.788 207.708Z" fill="#1D1D1B"/>
<path d="M339.658 247.754C340.722 247.886 340.722 246.206 339.658 246.086C315.386 243.228 291.558 238.942 267.706 234.064C255.824 231.634 157.746 210.83 156.228 210.548C155.176 210.348 154.72 211.97 155.782 212.164C167.762 214.386 229.72 227.646 230.814 227.894C229.252 240.774 224.276 285.06 223.302 294.328C202.557 289.72 181.901 284.607 161.334 278.988C144.02 274.244 144.054 274.044 143.652 274.044C146.504 255.88 148.84 235.068 150.156 214.104C150.222 213.03 148.556 213.03 148.486 214.104C146.569 244.716 142.531 275.159 136.4 305.212C136.184 306.264 137.8 306.708 138.016 305.658C140.044 295.706 141.84 285.71 143.404 275.67C169.765 283.272 196.357 290.051 223.14 295.998C222.064 306.4 221.008 316.804 219.974 327.21C219.866 328.284 221.546 328.272 221.644 327.21C222.902 314.254 231.586 235.364 232.454 228.252C265.762 235.54 304.308 243.74 339.658 247.754ZM227.832 213.866C228.009 213.91 228.196 213.897 228.365 213.828C228.535 213.76 228.678 213.64 228.776 213.486C231.257 208.849 234.843 204.895 239.216 201.974C240.082 201.398 239.314 200.022 238.436 200.498C238.236 200.386 181.192 187.416 167.35 184.108C166.31 183.858 165.854 185.462 166.906 185.722C162.135 187.847 157.469 190.181 152.906 192.722C152.528 192.936 152.156 195.416 153.058 195.722C177.338 204.173 202.379 210.249 227.832 213.866ZM153.702 194.168C154.868 193.584 160.776 190.146 169.584 186.352C177.866 188.336 231.822 200.694 236.646 201.752C232.952 204.56 229.877 208.1 227.616 212.152C202.459 208.537 177.707 202.515 153.702 194.168ZM106.694 225.694C105.642 225.454 105.198 227.07 106.25 227.308C124.94 231.56 129.43 263.094 119.25 281.894C117.578 284.983 115.314 287.712 112.588 289.925C109.861 292.139 106.724 293.793 103.358 294.794C78.89 302.232 52.282 276.55 63.558 246.594C68.484 233.494 81.658 220.794 95.052 223.926C96.7459 224.322 98.3638 224.993 99.842 225.91C100.754 226.484 101.6 225.032 100.688 224.468C90.608 218.19 73.888 222.936 64.316 240.904C57.79 253.166 57.238 268.548 64.772 280.504C71.96 291.904 85.348 299.344 98.954 297.458C115.828 295.14 123.976 282.146 125.904 265.152C126.9 257.369 126.009 249.46 123.304 242.094C120.304 234.414 114.8 227.488 106.694 225.694Z" fill="#1D1D1B"/>
<path d="M304.6 327.23C313.232 316.916 316.34 296.488 310.542 281.666C307.542 273.964 302.036 267.056 293.932 265.266C292.88 265.026 292.436 266.642 293.488 266.88C311.926 271.08 316.826 302.376 306.488 321.466C299.768 333.902 284.72 338.592 271.45 333.836C265.454 331.636 260.159 327.865 256.12 322.918C252.081 317.971 249.445 312.029 248.488 305.714C244.668 279.114 270.27 255.042 287.088 265.482C288 266.056 288.846 264.604 287.934 264.04C281.268 259.888 272.812 260.972 266.264 264.756C248.524 275.008 240.23 301.376 252.018 320.068C265.02 340.712 291.92 342.382 304.6 327.23ZM252.28 212.174C252.48 212.226 288.124 221.302 288.88 221.346C290.48 221.444 291.494 220.164 292.524 219.156L296.416 215.356C297.186 214.608 296.004 213.426 295.234 214.176C294.16 215.216 290.984 218.316 290.464 218.826C289.172 220.088 289 219.716 286.832 219.182C286.116 218.998 256.032 211.398 252.714 210.566C252.501 210.508 252.273 210.538 252.082 210.648C251.89 210.758 251.751 210.94 251.693 211.153C251.635 211.366 251.665 211.594 251.775 211.785C251.885 211.977 252.067 212.116 252.28 212.174ZM290.386 211.882C290.462 212.054 290.587 212.2 290.744 212.304C290.901 212.407 291.085 212.464 291.273 212.466C291.461 212.468 291.646 212.417 291.806 212.317C291.965 212.217 292.093 212.074 292.174 211.904C292.706 210.704 291.134 210.354 290.33 210.136L260.258 202.136C260.048 202.089 259.828 202.125 259.644 202.236C259.46 202.347 259.325 202.524 259.268 202.732C259.211 202.939 259.236 203.16 259.337 203.35C259.439 203.54 259.61 203.683 259.814 203.75C272.846 207.242 289.078 211.526 290.386 211.882ZM217.642 329.942C193.471 325.451 169.568 319.624 146.042 312.488C145.012 312.172 144.566 313.79 145.596 314.104C169.117 321.242 193.015 327.072 217.18 331.568C218.25 331.74 218.704 330.138 217.642 329.942ZM225.134 91.46C222.948 97.57 227.574 103.648 232.134 103.352C235.204 103.166 238.246 100.284 237.956 94.528C237.945 94.3136 237.853 94.1114 237.697 93.9634C237.542 93.8154 237.336 93.7328 237.121 93.7328C236.906 93.7328 236.7 93.8154 236.544 93.9634C236.389 94.1114 236.296 94.3136 236.286 94.528C236.286 97.676 235.602 100.998 232.502 101.628C228.902 102.348 224.886 97.134 226.768 91.904C227.106 90.896 225.494 90.452 225.134 91.46ZM200.21 52.908C200.242 53.982 201.912 53.982 201.88 52.908C201.652 45.418 195.84 40.126 190.258 35.952C189.39 35.314 188.566 36.752 189.412 37.394C194.496 41.2 200 46.078 200.21 52.908ZM198.962 55.444C199.462 56.4 200.962 55.672 200.47 54.718C196.99 48.074 189.454 45.85 182.614 44.538C181.562 44.338 181.444 46.002 182.484 46.208C188.696 47.4 195.8 49.386 198.962 55.444ZM305.662 82.516C307.815 81.3152 310.19 80.5666 312.642 80.316C320.144 78.76 328.1 77.702 334.964 81.15C335.918 81.628 336.776 80.186 335.81 79.708C328.41 75.98 320.2 77.048 312.198 78.708C309.602 78.9766 307.089 79.7773 304.816 81.06C303.948 81.692 304.782 83.144 305.662 82.516ZM304.122 88.358C311.316 88.4426 318.364 90.3929 324.578 94.018C324.769 94.1266 324.995 94.1557 325.207 94.0989C325.42 94.042 325.601 93.9039 325.712 93.7143C325.824 93.5248 325.856 93.299 325.802 93.086C325.748 92.8729 325.612 92.6897 325.424 92.576C318.95 88.8086 311.612 86.7802 304.122 86.688C303.908 86.6985 303.705 86.791 303.557 86.9465C303.409 87.1019 303.327 87.3083 303.327 87.523C303.327 87.7376 303.409 87.944 303.557 88.0995C303.705 88.2549 303.908 88.3475 304.122 88.358ZM300.23 93.984C305.636 97.3787 310.125 102.049 313.304 107.584C313.418 107.772 313.601 107.908 313.814 107.962C314.027 108.016 314.253 107.984 314.442 107.872C314.632 107.761 314.77 107.58 314.827 107.367C314.884 107.155 314.855 106.929 314.746 106.738C311.408 100.962 306.712 96.0883 301.064 92.538C300.164 91.968 299.32 93.418 300.23 93.984ZM203.972 49.786C203.852 50.848 205.522 50.848 205.642 49.786C206.004 46.392 205.659 42.9598 204.629 39.7057C203.599 36.4515 201.907 33.4459 199.658 30.878C198.94 30.066 197.77 31.258 198.476 32.06C200.565 34.4756 202.132 37.2975 203.078 40.3481C204.024 43.3987 204.328 46.612 203.972 49.786ZM305.704 144.168C305.812 145.232 307.482 145.242 307.374 144.168C305.562 125.648 288.058 109.934 263.262 110.876C257.423 111.174 251.624 112.008 245.938 113.368C230.566 116.896 215.836 124.612 209.588 139.018C208.304 141.382 207.721 144.064 207.908 146.748C208.047 147.883 208.594 148.928 209.448 149.688C210.302 150.449 211.403 150.872 212.546 150.88C214.616 150.553 216.537 149.603 218.054 148.158C216.437 150.828 215.434 153.823 215.116 156.928C214.868 161.21 219.898 162.328 223.226 161.622C227.001 160.459 230.445 158.416 233.274 155.66C238.874 150.966 234.806 153.004 234.836 158.36C234.86 163.12 238.764 166.032 243.542 165.76C248.616 165.466 252.43 161.606 255.89 158.312L262.524 152C268.724 146.11 272.248 143.176 285.79 144.584C286.862 144.692 286.85 143.024 285.79 142.914C268.102 141.056 266.112 146.618 252.79 158.938C251.075 160.657 249.099 162.094 246.936 163.198C243.5 164.798 238.068 164.434 236.756 160.198C235.102 154.798 240.724 149.932 243.174 145.552C243.618 144.752 242.48 143.774 241.862 144.552C239.508 147.465 236.931 150.19 234.154 152.704C230.554 155.934 225.098 160.726 220.298 160.174C218.76 160 216.884 159.198 216.786 157.43C216.837 155.714 217.22 154.024 217.914 152.454C219.206 149.25 220.976 146.261 223.162 143.586C224.765 141.933 226.236 140.157 227.562 138.274C228.114 137.504 226.868 136.55 226.252 137.274C224.72 139.013 223.237 140.795 221.806 142.618C219.859 144.66 217.696 146.485 215.356 148.06C214.373 148.891 213.106 149.307 211.822 149.22C211.348 149.093 210.912 148.852 210.553 148.518C210.194 148.183 209.922 147.766 209.762 147.302C208.852 145.014 210.032 142.228 210.932 140.114C216.606 126.636 230.198 119.076 244.42 115.504C260.008 111.6 275.884 110.586 289.53 119.17C293.931 121.854 297.67 125.495 300.47 129.823C303.27 134.151 305.059 139.054 305.704 144.168ZM163.578 154.544C165.752 155.97 170.456 157.994 172.066 156.008C172.612 155.103 172.894 154.064 172.88 153.008C173.097 150.1 172.702 147.179 171.72 144.434C174.122 147.802 177.115 150.707 180.554 153.008C182.81 154.44 186.518 156.272 188.924 154.126C189.475 153.437 189.865 152.633 190.064 151.774C190.263 150.914 190.266 150.021 190.074 149.16C189.965 147.273 189.693 145.4 189.26 143.56C188.226 139.136 187.37 139.078 188.718 140.242C191.03 142.472 193.842 144.117 196.918 145.042C198.305 145.23 199.712 144.904 200.875 144.125C202.037 143.346 202.875 142.168 203.228 140.814C204.29 137.562 202.828 134.2 201.418 131.294C192.834 113.758 179.688 98.8564 163.36 88.152C162.46 87.552 161.616 89.01 162.516 89.594C177.187 99.2378 189.263 112.338 197.684 127.744C199.283 130.36 200.578 133.15 201.544 136.06C202.216 138.488 201.988 141.784 199.462 143.096C198.662 143.391 197.803 143.486 196.958 143.372C196.113 143.259 195.309 142.94 194.616 142.444C190.84 140.245 187.576 137.266 185.042 133.706C184.686 133.153 184.314 132.611 183.926 132.08C183.298 131.236 181.898 131.994 182.484 132.926C188.43 140.948 188.884 150.654 188.23 152.234C187.754 153.384 186.408 153.492 185.324 153.318C183.904 153.003 182.562 152.406 181.378 151.562C175.73 147.98 171.758 141.896 168.164 136.254C168.05 136.066 167.867 135.93 167.654 135.876C167.441 135.822 167.215 135.854 167.026 135.966C166.836 136.077 166.698 136.258 166.641 136.47C166.584 136.683 166.613 136.909 166.722 137.1C169.16 142.02 171.634 147.116 171.232 152.624C171.178 153.34 171.22 155.024 170.288 155.15C168.366 155.071 166.502 154.466 164.9 153.4C161.594 151.013 158.542 148.292 155.794 145.28C136.914 125.548 118.794 89.784 145.506 85.968C150.441 85.2675 155.469 86.2084 159.816 88.646C160.007 88.7546 160.233 88.7837 160.445 88.7269C160.658 88.67 160.839 88.5319 160.95 88.3423C161.062 88.1528 161.094 87.927 161.04 87.714C160.986 87.5009 160.85 87.3177 160.662 87.204C156.941 85.0819 152.717 84.0014 148.434 84.076C144.151 84.1506 139.967 85.3776 136.322 87.628C128.746 92.886 129.774 103.64 132.246 111.348C137.316 127.17 154.042 148.3 163.578 154.544ZM374.286 223.47C367.67 232.888 357.486 239.092 347.4 244.742C346.456 245.262 347.302 246.714 348.244 246.184C358.696 240.33 368.862 234.14 375.726 224.316C376.356 223.428 374.902 222.6 374.286 223.47ZM319.862 207.838C317.988 208.018 315.408 208.142 314.204 209.838C310.854 214.534 329.13 216.638 329.338 216.638C332.754 216.888 338.054 217.364 340.092 213.862C340.2 213.67 340.228 213.444 340.171 213.231C340.115 213.019 339.977 212.837 339.788 212.724C333.873 208.927 326.862 207.208 319.862 207.838ZM328.558 214.918C326.358 214.718 314.02 212.53 315.758 210.582C316.4 209.858 317.654 209.812 318.576 209.67C325.36 208.695 332.271 210.113 338.122 213.682C336.186 215.6 331.27 215.164 328.558 214.918ZM138.2 180.422C140.25 180.562 143.078 180.746 144.304 178.72C144.412 178.528 144.44 178.302 144.383 178.089C144.327 177.877 144.189 177.695 144 177.582C141.064 175.687 137.626 174.718 134.132 174.8C132.766 174.832 130.732 174.832 129.754 175.938C127.336 178.682 134.672 180.164 138.2 180.422ZM133.148 176.518C136.284 176.223 139.436 176.897 142.178 178.448C140.646 178.85 139.047 178.928 137.484 178.676C135.278 178.45 133.119 177.886 131.084 177.006C131.721 176.678 132.429 176.51 133.146 176.518H133.148ZM117.026 175.954C119.074 176.096 121.904 176.28 123.13 174.252C123.238 174.06 123.266 173.834 123.209 173.621C123.153 173.409 123.015 173.227 122.826 173.114C119.889 171.224 116.452 170.257 112.96 170.338C111.594 170.372 109.56 170.372 108.58 171.478C106.168 174.212 113.48 175.694 117.026 175.954ZM111.962 172.062C115.102 171.769 118.256 172.445 121 174C119.468 174.402 117.869 174.48 116.306 174.228C114.1 174.002 111.941 173.438 109.906 172.558C110.539 172.222 111.246 172.051 111.962 172.062ZM96.958 171.498C99.008 171.64 101.838 171.824 103.062 169.796C103.17 169.604 103.198 169.378 103.141 169.165C103.085 168.953 102.947 168.771 102.758 168.658C99.8215 166.767 96.3854 165.801 92.894 165.884C91.528 165.916 89.494 165.916 88.514 167.022C86.1 169.756 93.41 171.238 96.958 171.498ZM91.906 167.6C95.0433 167.303 98.196 167.977 100.938 169.53C99.4063 169.932 97.8074 170.01 96.244 169.758C94.0378 169.532 91.8794 168.968 89.844 168.088C90.4791 167.754 91.1885 167.586 91.906 167.6ZM103.452 255.388C98.054 252.875 92.4951 250.723 86.812 248.946C86.756 248.844 86.6803 248.755 86.5893 248.683C86.4983 248.611 86.3939 248.558 86.2821 248.527C86.1704 248.496 86.0536 248.487 85.9385 248.502C85.8234 248.517 85.7124 248.554 85.612 248.612C85.4646 248.613 85.3202 248.654 85.1936 248.729C85.0669 248.805 84.9625 248.912 84.891 249.041C84.8194 249.17 84.7833 249.315 84.7863 249.463C84.7893 249.61 84.8313 249.754 84.908 249.88C83.2627 254.796 81.1231 259.533 78.522 264.018C78.2094 263.281 77.6538 262.674 76.9479 262.297C76.2419 261.92 75.4281 261.796 74.642 261.946C73.7975 262.204 73.0684 262.747 72.5782 263.482C72.088 264.216 71.8669 265.098 71.9523 265.977C72.0378 266.856 72.4245 267.678 73.047 268.305C73.6696 268.931 74.4895 269.323 75.368 269.414C76.788 269.414 77.71 268.18 78.458 267.14C81.0626 263.329 83.1854 259.21 84.778 254.878C89.978 257.078 95.1673 259.278 100.346 261.478C99.034 265.106 96.364 271.774 93.658 274.552C93.4433 273.521 92.8906 272.591 92.0873 271.909C91.2841 271.228 90.2764 270.834 89.224 270.79C88.5712 270.752 87.9206 270.895 87.344 271.203C86.7673 271.512 86.287 271.973 85.956 272.537C85.6251 273.101 85.4563 273.745 85.4682 274.399C85.4802 275.053 85.6725 275.691 86.024 276.242C86.8123 277.26 87.9651 277.932 89.2393 278.116C90.5135 278.301 91.8095 277.983 92.854 277.23C92.9726 277.275 93.1003 277.291 93.2264 277.277C93.3526 277.264 93.4736 277.22 93.5795 277.15C93.6854 277.08 93.7732 276.986 93.8355 276.875C93.8978 276.765 93.933 276.641 93.938 276.514C96.4184 274.166 98.3096 271.265 99.458 268.048C100.417 265.945 101.292 263.803 102.08 261.63C102.169 261.551 102.236 261.451 102.274 261.339C102.312 261.227 102.32 261.106 102.298 260.99C102.85 259.44 103.37 257.888 103.836 256.306C103.878 256.132 103.864 255.949 103.795 255.784C103.726 255.619 103.606 255.48 103.452 255.388ZM73.694 264.526C73.912 264.131 74.2648 263.827 74.688 263.67C75.1112 263.513 75.5768 263.513 76 263.67C76.4466 263.867 76.8016 264.226 76.9929 264.675C77.1842 265.124 77.1974 265.63 77.03 266.088C77.0036 266.18 76.9928 266.275 76.998 266.37C76.735 266.747 76.4297 267.093 76.088 267.4C74.55 268.742 73.06 265.85 73.694 264.526ZM87.212 275.008C86.086 272.49 91.296 270.594 92.2 275.758C89.886 277.176 87.87 276.476 87.212 275V275.008ZM85.38 253.35C85.7386 252.426 86.086 251.504 86.422 250.584C91.7414 252.242 96.9482 254.241 102.01 256.57C101.67 257.7 101.309 258.824 100.926 259.94C95.7433 257.74 90.5613 255.543 85.38 253.35ZM50.504 319.48C47.384 318.054 33.422 312.28 32.66 312.704C32.006 312.662 29.92 321.202 25.57 328.104C25.2574 327.367 24.7018 326.76 23.9959 326.383C23.2899 326.006 22.4761 325.882 21.69 326.032C20.8462 326.291 20.1179 326.834 19.6283 327.569C19.1388 328.304 18.918 329.185 19.0034 330.063C19.0888 330.942 19.4751 331.764 20.097 332.391C20.7188 333.017 21.538 333.41 22.416 333.502C23.836 333.502 24.758 332.266 25.506 331.226C28.1139 327.416 30.2401 323.297 31.836 318.964C37.036 321.164 42.2253 323.364 47.404 325.564C46.092 329.188 43.424 335.858 40.716 338.636C40.5012 337.605 39.9484 336.675 39.1452 335.994C38.3419 335.313 37.3343 334.919 36.282 334.876C35.629 334.837 34.9779 334.98 34.4009 335.288C33.8238 335.596 33.3431 336.058 33.012 336.622C32.6808 337.186 32.5121 337.831 32.5245 338.485C32.5368 339.139 32.7298 339.777 33.082 340.328C36.464 345.258 42.304 341.292 46.514 332.128C48.2439 328.321 49.7074 324.398 50.894 320.388C50.9379 320.215 50.9235 320.032 50.853 319.868C50.7825 319.704 50.6598 319.567 50.504 319.48ZM20.746 328.6C20.9641 328.204 21.3176 327.899 21.7417 327.742C22.1658 327.585 22.6323 327.586 23.056 327.744C24.272 328.208 24.814 330.016 23.142 331.472C21.614 332.824 20.118 329.93 20.746 328.6ZM34.276 339.084C33.152 336.562 38.36 334.668 39.262 339.832C36.952 341.26 34.93 340.56 34.276 339.092V339.084ZM32.432 317.422C32.7893 316.502 33.1366 315.581 33.474 314.658C38.7934 316.316 44.0002 318.315 49.062 320.644C48.716 321.77 48.37 322.898 47.978 324.014C42.7926 321.831 37.6106 319.637 32.432 317.43V317.422Z" fill="#1D1D1B"/>
<path d="M303.774 300.562C302.893 296.474 301.727 292.453 300.284 288.528C300.219 288.317 300.077 288.14 299.885 288.031C299.694 287.923 299.468 287.891 299.254 287.944C297.254 288.344 281.182 292.312 280.944 293.212C280.514 293.652 283.864 301.384 284.532 309.744C283.877 309.338 283.104 309.165 282.338 309.254C281.572 309.342 280.859 309.687 280.314 310.232C279.908 310.658 279.612 311.177 279.451 311.743C279.291 312.31 279.271 312.907 279.394 313.483C279.517 314.059 279.778 314.596 280.156 315.048C280.533 315.5 281.015 315.853 281.56 316.076C282.115 316.367 282.734 316.511 283.36 316.496C283.986 316.48 284.598 316.306 285.138 315.988C285.573 315.617 285.911 315.146 286.123 314.615C286.334 314.085 286.413 313.51 286.352 312.942C286.239 308.106 285.489 303.306 284.12 298.666L300.532 294.666C301.644 298.496 303.532 305.214 302.962 309.16C302.142 308.416 301.085 307.987 299.979 307.951C298.872 307.914 297.789 308.272 296.922 308.96C296.394 309.348 295.987 309.876 295.745 310.485C295.504 311.094 295.44 311.758 295.559 312.402C295.678 313.046 295.975 313.643 296.418 314.126C296.861 314.608 297.431 314.956 298.062 315.13C304.416 317.074 305.558 308.966 303.774 300.562ZM280.974 313.084C280.89 312.641 280.967 312.183 281.192 311.793C281.417 311.403 281.775 311.107 282.2 310.958C283.458 310.502 285.068 311.62 284.586 313.876C284.164 315.828 281.312 314.482 280.974 313.084ZM283.676 297.06L282.862 294.22C288.12 292.384 293.491 290.885 298.94 289.732C299.34 290.838 299.74 291.954 300.078 293.082C294.614 294.394 289.147 295.72 283.676 297.06ZM298.43 313.506C295.246 312.376 298.79 307.206 302.528 310.948C301.622 313.268 299.848 314.01 298.43 313.506ZM259.186 373C258.305 368.911 257.138 364.889 255.694 360.964C255.629 360.754 255.486 360.576 255.295 360.468C255.103 360.359 254.878 360.328 254.664 360.38C252.618 360.8 236.592 364.75 236.352 365.648C235.952 366.066 239.264 373.848 239.952 382.18C239.297 381.774 238.524 381.602 237.759 381.69C236.994 381.779 236.281 382.123 235.736 382.668C235.329 383.094 235.033 383.613 234.872 384.179C234.712 384.746 234.692 385.343 234.815 385.919C234.937 386.495 235.199 387.032 235.577 387.484C235.955 387.936 236.437 388.289 236.982 388.512C237.536 388.803 238.155 388.948 238.781 388.933C239.407 388.918 240.018 388.743 240.558 388.426C240.993 388.055 241.331 387.583 241.543 387.052C241.754 386.521 241.834 385.947 241.774 385.378C241.66 380.542 240.909 375.742 239.54 371.102L255.954 367.102C257.07 370.962 258.954 377.648 258.382 381.596C252.464 377.196 247.84 385.836 253.48 387.57C259.816 389.51 260.964 381.342 259.186 373ZM236.4 385.534C236.315 385.092 236.393 384.634 236.618 384.244C236.843 383.854 237.201 383.558 237.626 383.41C238.894 382.948 240.496 384.084 240.01 386.328C239.584 388.266 236.732 386.922 236.4 385.534ZM239.1 369.5L238.288 366.66C243.547 364.824 248.917 363.325 254.366 362.172C254.766 363.278 255.156 364.394 255.504 365.522C250.025 366.845 244.556 368.171 239.096 369.5H239.1ZM253.856 385.946C250.704 384.822 254.214 379.648 257.954 383.388C257.038 385.718 255.262 386.45 253.852 385.946H253.856ZM299.6 359.094C299 358.95 295.258 366.46 289.224 372.494C289.084 371.696 288.671 370.972 288.056 370.446C287.441 369.92 286.661 369.624 285.852 369.61C284.98 369.685 284.161 370.057 283.529 370.663C282.898 371.268 282.493 372.072 282.382 372.94C282.27 373.807 282.459 374.687 282.917 375.433C283.375 376.178 284.074 376.745 284.898 377.038C286.362 377.406 287.62 376.278 288.618 375.388C291.944 372.296 294.888 368.817 297.388 365.026C301.94 368.342 306.497 371.659 311.058 374.976C308.802 378.376 304.994 383.996 301.584 386.21C301.142 379 292.026 380.922 293.7 385.95C295.336 390.856 301.602 390.398 308.672 381.234C311.228 377.907 313.55 374.408 315.622 370.76C315.713 370.602 315.75 370.419 315.727 370.238C315.703 370.057 315.621 369.889 315.492 369.76C312.732 367.6 300.45 358.816 299.6 359.094ZM284.348 372C284.633 371.629 285.048 371.378 285.509 371.298C285.971 371.217 286.446 371.313 286.84 371.566C287.876 372.24 288.15 373.986 286.24 375.176C284.444 376.244 283.468 373.26 284.348 372ZM296.548 383.2C298.948 382.58 300.038 385.02 299.91 387.038C295.548 388.488 293.708 383.92 296.554 383.2H296.548ZM298.326 363.664C298.88 362.85 299.422 362.026 299.964 361.202C304.765 364.021 309.382 367.143 313.786 370.548C313.201 371.567 312.593 372.582 311.964 373.594C307.436 370.282 302.892 366.97 298.332 363.658L298.326 363.664ZM184.946 52.7679C184.946 52.7679 173.8 69.4839 182.712 79.5119C191.624 89.5399 222.834 90.6559 232.862 76.1719C233.865 82.3136 236.772 87.9851 241.172 92.3854C245.573 96.7858 251.244 99.6928 257.386 100.696C279.674 105.152 296.386 90.6679 300.848 83.4259C284.636 79.0879 195.576 55.5999 184.946 52.7679ZM192.62 62.5999C191.892 63.8479 190.81 61.8519 185.368 61.1259C185.156 61.065 184.977 60.923 184.869 60.7307C184.761 60.5383 184.733 60.3112 184.791 60.0985C184.85 59.8858 184.99 59.7048 185.181 59.5946C185.372 59.4844 185.599 59.454 185.812 59.5099C188.069 59.8308 190.266 60.4888 192.328 61.4619C192.517 61.5747 192.654 61.7576 192.708 61.9708C192.763 62.184 192.731 62.4101 192.62 62.5999ZM201.288 62.2699C196.088 60.6953 190.888 59.1319 185.688 57.5799C185.484 57.5127 185.313 57.3695 185.211 57.18C185.11 56.9904 185.085 56.769 185.142 56.5616C185.199 56.3543 185.334 56.1767 185.518 56.0659C185.702 55.955 185.922 55.9192 186.132 55.9659C191.332 57.5259 196.532 59.0886 201.732 60.6539C202.762 60.9679 202.318 62.5819 201.288 62.2699ZM248.17 74.9579C248.109 75.1711 247.967 75.3518 247.775 75.4614C247.582 75.571 247.354 75.6006 247.14 75.5439C244.818 74.6955 242.43 74.0393 240 73.5819C239.787 73.5208 239.607 73.3788 239.497 73.1863C239.388 72.9938 239.358 72.7661 239.414 72.5519C239.479 72.3414 239.621 72.1635 239.813 72.0545C240.004 71.9456 240.23 71.9139 240.444 71.9659C242.871 72.4247 245.257 73.0809 247.578 73.9279C247.791 73.9896 247.971 74.1314 248.082 74.3235C248.192 74.5156 248.224 74.743 248.17 74.9579ZM263.97 77.4079C256.366 74.7881 248.632 72.5592 240.8 70.7299C239.75 70.4919 240.2 68.8759 241.246 69.1159C249.083 70.9366 256.819 73.1677 264.422 75.7999C265.43 76.1519 265 77.7579 263.976 77.3999L263.97 77.4079ZM172.4 251.918C171.916 253.125 171.916 254.473 172.4 255.68C172.43 255.801 172.487 255.913 172.568 256.008C172.649 256.103 172.751 256.177 172.866 256.225C172.981 256.274 173.105 256.295 173.23 256.286C173.354 256.278 173.475 256.241 173.582 256.178C174.078 256.534 174.66 256.753 175.268 256.811C175.877 256.869 176.489 256.766 177.044 256.51C177.599 256.255 178.077 255.857 178.428 255.357C178.779 254.857 178.992 254.273 179.044 253.664C179.101 252.852 178.872 252.045 178.397 251.384C177.923 250.722 177.232 250.247 176.445 250.04C175.658 249.833 174.823 249.907 174.084 250.25C173.346 250.593 172.75 251.183 172.4 251.918ZM177.366 253.468C177.354 253.722 177.289 253.971 177.176 254.198C177.062 254.425 176.902 254.627 176.706 254.789C176.511 254.951 176.283 255.07 176.039 255.139C175.794 255.209 175.538 255.226 175.286 255.19C175.034 255.155 174.793 255.067 174.577 254.932C174.361 254.798 174.176 254.62 174.033 254.41C173.89 254.2 173.792 253.962 173.746 253.712C173.7 253.462 173.707 253.205 173.766 252.958C173.869 252.513 174.136 252.123 174.512 251.865C174.889 251.607 175.348 251.5 175.8 251.564C176.253 251.628 176.664 251.859 176.954 252.211C177.244 252.564 177.392 253.012 177.368 253.468H177.366ZM195.136 259.4C195.408 259.893 195.787 260.318 196.246 260.645C196.704 260.971 197.23 261.191 197.785 261.287C198.34 261.383 198.909 261.353 199.45 261.199C199.992 261.046 200.492 260.773 200.914 260.4C201.554 259.896 201.977 259.166 202.098 258.361C202.219 257.555 202.028 256.734 201.564 256.064C201.219 255.599 200.779 255.213 200.273 254.932C199.766 254.651 199.206 254.482 198.629 254.435C198.052 254.389 197.471 254.467 196.927 254.664C196.382 254.861 195.886 255.172 195.472 255.576C195.349 255.54 195.218 255.533 195.092 255.556C194.965 255.579 194.846 255.632 194.743 255.71C194.641 255.788 194.558 255.888 194.502 256.004C194.446 256.12 194.418 256.247 194.42 256.376C194.402 256.556 194.395 256.737 194.398 256.918C194.061 257.477 193.808 258.084 193.65 258.718C193.608 258.905 193.632 259.1 193.717 259.272C193.802 259.443 193.943 259.58 194.117 259.66C194.291 259.74 194.487 259.757 194.673 259.71C194.858 259.663 195.022 259.553 195.136 259.4ZM197.954 256.124C197.969 256.123 197.984 256.12 197.998 256.114C199.746 255.896 201.278 257.604 200.058 258.914C198.586 260.514 196.472 259.442 196.112 257.352C196.547 256.723 197.206 256.283 197.954 256.124Z" fill="#1D1D1B"/>
<path d="M217.988 250.736C217.84 249.998 220.3 250.924 166.016 239.396C163.495 238.7 160.878 238.415 158.266 238.552C154.434 267.2 154.96 263 154.8 265.11C174.511 269.616 194.472 272.951 214.578 275.096C216.344 267.077 217.484 258.932 217.988 250.736ZM207.776 266.424C193.75 262.476 179.577 259.065 165.29 256.2C165.594 253.046 165.89 249.88 166.19 246.726C166.39 246.792 207.39 254.326 208.654 255.388C208.944 255.64 208.904 255.152 207.776 266.424Z" fill="#AC47F5"/>
<path d="M163.556 256.84C163.557 257.023 163.618 257.2 163.73 257.344C163.842 257.489 163.998 257.593 164.174 257.64C179.49 260.696 194.834 264.44 208.286 268.266C208.41 268.297 208.539 268.3 208.664 268.275C208.789 268.25 208.907 268.197 209.009 268.12C209.111 268.043 209.194 267.945 209.253 267.832C209.313 267.718 209.345 267.593 209.35 267.466C209.55 265.406 210.486 256.118 210.486 255.834C210.498 253.894 208.708 253.6 207.192 253.254C193.318 250.041 179.364 247.185 165.344 244.69C165.162 244.651 164.973 244.673 164.805 244.752C164.637 244.831 164.499 244.963 164.413 245.128C164.327 245.293 164.298 245.481 164.329 245.664C164.36 245.847 164.45 246.015 164.586 246.142C164.238 249.696 163.902 253.274 163.556 256.84ZM208.654 255.388C208.942 255.64 208.904 255.152 207.776 266.424C193.749 262.476 179.577 259.065 165.29 256.2C165.594 253.046 165.89 249.88 166.19 246.726C166.4 246.8 207.384 254.322 208.654 255.388Z" fill="#1D1D1B"/>
<path d="M139.228 258.26C138.924 237.434 122.066 218.792 103.052 212.132C79.168 203.764 59.24 218.054 52.228 241.544C45.008 265.838 53.736 294.122 79.918 301.944C90.542 305.108 102.032 307.082 112.668 302.918C129.938 296.15 139.488 276.062 139.228 258.26ZM125.904 265.144C123.976 282.144 115.828 295.132 98.954 297.45C85.354 299.336 71.954 291.9 64.772 280.496C57.238 268.548 57.79 253.166 64.316 240.896C73.898 222.928 90.608 218.182 100.688 224.46C100.839 224.547 100.957 224.683 101.023 224.845C101.089 225.006 101.099 225.186 101.052 225.354L105.68 226.326C105.703 226.217 105.748 226.113 105.812 226.021C105.876 225.929 105.957 225.851 106.052 225.792C106.146 225.732 106.252 225.692 106.362 225.674C106.472 225.656 106.585 225.66 106.694 225.686C114.8 227.486 120.304 234.406 123.294 242.086C126.002 249.451 126.897 257.36 125.904 265.144Z" fill="#AC47F5"/>
</svg>
