<svg width="400" height="400" viewBox="0 0 400 400" fill="none" xmlns="http://www.w3.org/2000/svg">
<path fill-rule="evenodd" clip-rule="evenodd" d="M143.764 86.382C143.982 91.042 145.164 92.346 144.726 93.582C144.288 94.818 137.97 116.28 137.364 119.8C138.048 129.228 139.104 141.544 140.472 144.526C142.024 139.432 146.032 127.068 148.78 123.434C147.228 111.754 146.544 94.888 147.134 93.52C148.723 91.346 150.776 89.5533 153.144 88.272C152.18 85.6745 151.081 83.129 149.852 80.646C147.18 82.78 144.494 84.83 143.764 86.382Z" fill="#38A1FF"/>
<path fill-rule="evenodd" clip-rule="evenodd" d="M147.74 47.476C146.764 48.304 143.406 49.044 142.926 46.436C142.77 45.612 141.87 45.596 141.76 46.436C141.342 50.288 147.398 50.862 148.92 48.532C149.37 47.848 148.6 46.75 147.74 47.476ZM145.52 33.296C144.538 32.9081 143.472 32.7847 142.428 32.938C140.75 33.264 140.642 35.066 142.628 35.082C143.378 35.1147 144.122 35.2239 144.85 35.408C146.4 35.718 146.258 33.576 145.52 33.296ZM156.282 35.718C154.978 34.9023 153.417 34.5981 151.902 34.864C150.702 35.144 150.722 36.744 152.152 36.9C153.302 36.9793 154.428 37.2688 155.474 37.754C156.904 38.328 157.416 36.636 156.282 35.718ZM152.282 40.052C151.04 39.852 150.528 43.158 151.708 43.314C152.888 43.47 153.268 40.21 152.29 40.052H152.282ZM142.87 38.5C141.738 38.414 141.318 41.746 142.452 41.87C143.586 41.994 144.014 38.584 142.878 38.5H142.87ZM154.014 52C155.242 50.898 156.05 52.558 155.568 53.134C154.663 54.2219 153.454 55.0155 152.096 55.4138C150.737 55.812 149.292 55.7967 147.942 55.37C146.514 55.012 146.388 53.662 147.942 53.816C149.028 54.0178 150.147 53.9552 151.204 53.6335C152.261 53.3119 153.224 52.7406 154.014 51.968V52Z" fill="#191919"/>
<path fill-rule="evenodd" clip-rule="evenodd" d="M169.4 72.1099C168.8 71.3459 168.158 71.3319 167.226 71.9379C161.958 75.3784 156.198 77.9971 150.142 79.7039C148.156 78.0766 146.437 76.1478 145.048 73.9879C144.348 72.7459 142.936 73.9879 143.494 74.9359C144.767 77.0538 146.336 78.9787 148.154 80.6519C146.678 82.5116 144.942 84.1485 142.998 85.5119C142.243 82.795 141.959 79.9688 142.158 77.1559C142.018 76.3559 140.792 75.2619 140.482 79.7359C140.215 82.4457 140.565 85.1808 141.506 87.7359C142.47 89.8639 146.834 84.6299 149.272 82.4399C149.872 83.8059 152.378 90.7339 154.258 90.4079C158.032 89.7699 165.13 86.2439 166.916 83.1859C167 83.0322 167.033 82.8557 167.01 82.6821C166.987 82.5084 166.909 82.3466 166.788 82.2202C166.666 82.0938 166.508 82.0093 166.335 81.9791C166.163 81.9488 165.985 81.9743 165.828 82.0519C163.296 83.4179 162.722 85.5459 154.398 88.3719C153.064 86.173 151.926 83.8607 150.998 81.4619C157.069 79.5278 162.905 76.9231 168.398 73.6959C169.344 74.9839 171.146 78.0279 172.342 77.6959C173.662 77.3739 169.89 72.7439 169.4 72.1099Z" fill="#191919"/>
<path fill-rule="evenodd" clip-rule="evenodd" d="M156.8 60.988C151.986 64.094 146.922 65.4 141.642 62.712C139.078 61.424 138.924 60.662 138.924 57.804C139.046 48.3865 139.9 38.9928 141.48 29.708C141.68 28.466 139.772 28 139.57 29.242C138.918 33.482 135.812 57.028 137.24 61.222C138.608 65.166 144.12 66.44 147.84 66.44C147.406 68.46 146.97 70.478 146.552 72.512C146.442 73.01 147.81 75.154 148.834 71.286C149.27 69.64 149.58 67.962 149.968 66.3C152.999 66.0018 155.83 64.65 157.968 62.48C158.65 61.702 157.734 60.398 156.802 60.926L156.8 60.988ZM176.432 32.162C179.678 34.398 177.612 40.114 175.19 40.762C177.13 43.418 173.124 52.862 167.952 52.628C167.844 54.866 167.114 62.91 166.85 70.862C166.85 71.764 165.296 71.562 165.14 70.738C164.612 68.47 165.87 52.318 166.228 50.89C166.772 48.762 168.464 49.69 170.172 47.394C174.304 41.794 168.448 38.394 166.072 42.844C164.986 44.878 160.558 39.318 159.86 30.844C153.384 30.176 141.952 28.748 138.442 26.184C137.56 25.5224 136.931 24.58 136.657 23.5123C136.383 22.4447 136.481 21.3155 136.935 20.3112C137.389 19.3068 138.172 18.4873 139.155 17.9879C140.137 17.4884 141.261 17.3389 142.34 17.564C141.8 10.542 151 11.49 152.896 14.58C153.144 9.43996 167.558 9.36196 167.184 17.082C172.784 13.696 178.958 21.942 174.702 24.956C179 24.738 180.698 30.842 176.426 32.162H176.432Z" fill="#191919"/>
<path fill-rule="evenodd" clip-rule="evenodd" d="M386.27 385.6C263.67 385.654 138.762 386.2 16.624 386.144C16.3232 386.144 16.0348 386.263 15.8221 386.476C15.6095 386.689 15.49 386.977 15.49 387.278C15.49 387.579 15.6095 387.867 15.8221 388.08C16.0348 388.293 16.3232 388.412 16.624 388.412C138.778 389.732 263.73 388.566 386.27 388.552C388.026 388.546 388.166 385.6 386.27 385.6Z" fill="#191919"/>
<path fill-rule="evenodd" clip-rule="evenodd" d="M92.168 365.342C80.94 374.542 61.106 376.618 60.284 382.426C60.128 383.606 112.344 382.69 112.716 381.992C114.782 378.124 111.584 367.718 111.49 366.46C105.027 367.012 98.518 366.62 92.168 365.296V365.342ZM226.064 358.274C224.792 363.182 221.652 371.674 220.464 372.474C219.276 373.274 207.914 377.01 206.052 383.688C205.786 384.636 225.374 384.262 230.576 380.148C235.778 376.034 251.262 361.616 251.464 359.948C251.666 358.28 244.882 349.65 242.146 348.192C240.634 351.1 232.542 358.274 226.064 358.274Z" fill="#191919"/>
<path fill-rule="evenodd" clip-rule="evenodd" d="M249.2 195.258C248.172 194.124 246.854 195.058 247.646 196.458C248.95 198.82 251.356 202.018 252.846 201.658C257.84 200.105 262.515 197.666 266.646 194.458C268.2 193.434 266.336 190.824 265.2 188.556C263.788 185.668 262.764 187.284 262.686 187.656C262.468 188.588 264.628 192.316 265.156 193.108C261.218 195.621 257.089 197.822 252.808 199.692C251.486 198.315 250.28 196.832 249.2 195.258ZM278.272 202.79C279.037 204.744 279.228 206.876 278.821 208.934C278.414 210.993 277.427 212.892 275.976 214.408C275.176 215.262 273.552 214.408 274.176 213.274C275.2 211.74 276.007 210.072 276.576 208.318C278.3 201.158 270.656 199 267.956 197.012C267.809 196.888 267.706 196.719 267.664 196.532C267.621 196.344 267.64 196.147 267.719 195.972C267.798 195.796 267.932 195.651 268.101 195.558C268.269 195.466 268.464 195.43 268.654 195.458C272.695 196.554 276.145 199.19 278.264 202.8L278.272 202.79ZM265.472 216.116C263.672 215.37 258.638 216.038 256.648 212.746C255.096 210.198 256.322 206.812 255.748 203.876C255.548 202.836 253.916 203.116 253.902 204.188C253.792 210.634 251.502 217.28 263.872 218.166C266.088 218.29 266.664 216.612 265.468 216.116H265.472Z" fill="#191919"/>
<path fill-rule="evenodd" clip-rule="evenodd" d="M336.228 244.786C327.578 241.4 304.326 253.586 296.686 258.472C290.022 245.658 277.612 223.2 270.286 211.518C273.16 206.998 265.828 203.38 263.36 207.822C262.963 208.533 262.803 209.352 262.902 210.16C263 210.968 263.353 211.724 263.91 212.319C264.466 212.913 265.197 213.316 265.997 213.468C266.797 213.62 267.624 213.515 268.36 213.166C293.444 259.868 318.96 306.742 342.444 354.236C342.537 354.437 342.671 354.615 342.838 354.76C343.005 354.905 343.2 355.012 343.412 355.076C343.624 355.139 343.847 355.156 344.066 355.127C344.285 355.097 344.495 355.021 344.682 354.904C352.804 350.504 361.58 355.572 364.452 360.868C367.824 359.868 385.126 353.366 389.396 344.684C393.666 336.002 374.238 306.43 367.916 293.042C367.712 293.042 347.694 249.27 336.228 244.786ZM357.212 358.974C367.476 364.15 368.254 381.54 350.378 383.186C341.742 383.986 331.958 370.342 340.778 361.554C342.907 359.466 345.636 358.095 348.582 357.632C351.528 357.169 354.545 357.639 357.212 358.974ZM361.412 371.632C360.854 376.29 356.94 379.32 352.31 380.174C343.722 381.726 337.168 370.73 341.874 364.44C348.016 356.224 362.698 360.962 361.42 371.632H361.412ZM375 348.52C359.094 315.92 342.384 283.134 325.534 250.892C324.958 249.818 326.822 248.826 327.412 249.866C345.756 282.294 361.582 313.794 377.858 347.434C378.706 349.2 375.854 350.282 375 348.52Z" fill="#38A1FF"/>
<path fill-rule="evenodd" clip-rule="evenodd" d="M85.894 205.586C84.154 203.892 78.128 206.472 76.746 202.93C75.83 200.6 81.946 198.38 82.958 196.594C83.0479 196.438 83.0903 196.26 83.0797 196.081C83.0692 195.901 83.0063 195.729 82.8988 195.585C82.7912 195.441 82.6438 195.332 82.4748 195.271C82.3058 195.21 82.1226 195.2 81.948 195.242C80.3072 195.941 78.7872 196.895 77.444 198.068C71.496 202.216 74.99 206.75 79.992 207.388C81.296 207.542 85.04 207.916 85.956 207.124C86.0601 207.023 86.1428 206.902 86.1994 206.769C86.2559 206.635 86.285 206.492 86.285 206.347C86.285 206.202 86.2559 206.059 86.1994 205.925C86.1428 205.792 86.0601 205.671 85.956 205.57L85.894 205.586ZM101.938 197.82C102.28 198.658 99.5 202.76 98.35 202.262C95.43 201.05 81.452 194.232 81.964 191.888C82.6828 190.145 83.7382 188.562 85.07 187.228C85.63 186.606 86.624 187.368 86.376 188.082C86.064 189.122 83.86 191.67 83.952 191.996C84.17 192.756 97.588 199.948 98.536 200.368C99.048 199.568 99.514 198.332 100.09 197.568C100.184 197.461 100.299 197.374 100.427 197.311C100.556 197.248 100.695 197.212 100.837 197.203C100.98 197.194 101.123 197.214 101.258 197.26C101.393 197.307 101.517 197.379 101.624 197.474C101.978 197.8 101.898 198.064 101.938 197.82ZM96.2 203.66C94.648 203.504 94.648 206.564 94.228 208.21C93.886 209.376 93.484 210.54 93.08 211.706C92.676 212.872 94.71 214.626 96.512 208.8C96.828 207.744 98.18 203.86 96.2 203.66ZM87.38 217.17C88.6277 216.622 89.7288 215.787 90.594 214.734C91.884 213.056 94.12 214.452 91.76 216.924C87.836 221 84.874 218.3 87.37 217.17H87.38ZM84.024 214.78C83.542 214.98 82.938 215.38 83.046 216.006C83.48 218.664 90.952 214.128 88.646 212.436C87.608 211.664 86.926 213.382 83.988 214.78H84.024ZM84.258 210.524C83.17 209.546 81.882 211.752 79.878 212.622C79.21 212.9 77.842 213.212 78.06 214.174C78.66 216.878 86.214 212.248 84.272 210.494L84.258 210.524ZM77.486 209.826C78.496 208.972 79.302 208.77 79.63 209.546C80.56 211.658 75.902 213.546 73.774 211.596C72.112 210.044 72.438 206.254 74.24 206.936C75.016 207.232 74.706 208.692 75.062 209.454C75.1748 209.663 75.3338 209.843 75.5269 209.98C75.72 210.118 75.942 210.209 76.1759 210.248C76.4099 210.287 76.6496 210.271 76.8767 210.203C77.1037 210.135 77.3122 210.015 77.486 209.854V209.826Z" fill="#191919"/>
<path fill-rule="evenodd" clip-rule="evenodd" d="M139.338 148.322C132.162 128.122 134.398 91.1659 137.768 79.6419C138.142 78.3219 122.454 86.3199 119.13 93.8219C115.806 101.324 109.2 138.32 106.83 143.848C104.46 149.376 86.188 183.36 85.6 183.966C85.012 184.572 103.556 198.286 104.828 197.4C105.682 196.8 110.916 190.178 114.536 185.4C118.908 139.134 116.912 138.134 120.282 115.308C120.279 115.213 120.296 115.119 120.333 115.032C120.369 114.944 120.424 114.866 120.493 114.801C120.562 114.736 120.644 114.687 120.733 114.656C120.823 114.625 120.918 114.614 121.012 114.623C121.106 114.632 121.198 114.66 121.28 114.707C121.362 114.754 121.434 114.818 121.489 114.894C121.545 114.971 121.584 115.058 121.604 115.151C121.623 115.244 121.622 115.339 121.602 115.432C120.802 124.312 118.26 177.208 118.046 180.71C117.72 186.022 113.992 212.16 114.94 213.574C115.686 214.614 125.812 215.486 128.328 213.574C130.844 211.662 138.11 192.554 139 191.22C136.572 184.898 137.162 159.302 139.338 148.322ZM242.538 140.416C246.466 146.628 262.884 181.544 263.086 183.516C263.288 185.488 246.202 194.884 244.836 194.116C243.47 193.348 219.836 157.152 216.694 153.222C211.822 147.126 186.304 130.304 177.6 126.2C176.76 125.8 175.938 127.054 176.73 127.612C181.576 131.03 186.56 133.826 191.67 137.444C194.902 178.644 205.308 211.778 203.598 213.3C202.294 214.464 158.356 215.862 154.398 214.682C150.44 213.502 141.46 196.634 140.418 187.998C139.376 179.362 138.99 156.764 141.754 147.616C149.428 122.114 169.712 79.7759 173.858 79.1699C178.004 78.5639 195.12 88.4899 199.36 91.7039C210.892 100.32 244.412 141.35 242.544 140.416H242.538ZM145.332 164.722C145.366 165.262 145.595 165.771 145.977 166.154C146.36 166.537 146.869 166.767 147.409 166.801C147.949 166.836 148.482 166.672 148.91 166.341C149.338 166.009 149.63 165.533 149.732 165.002C150.38 158.976 144.308 159.752 145.332 164.722ZM150.318 181.9C151.394 178.5 147.04 174.942 146.234 179.772C145.55 183.8 149.316 185.062 150.318 181.9ZM180.386 97.3319C182.624 96.2439 178.538 85.8379 177.7 84.0519C177.264 83.1359 176.146 83.4779 176.52 84.4879C177.919 88.0588 178.751 91.8261 178.988 95.6539C177.087 96.3689 175.249 97.2385 173.49 98.2539C165.554 102.604 167.434 102.054 170.99 110.68C171.658 112.232 172.342 113.28 171.13 114.64C162.216 124.688 151.67 137.456 146.436 149.616C146.036 150.532 147.104 150.922 147.568 150.082C155.924 135.032 161.92 128.338 172.42 116.332C174.82 113.568 174.08 113.226 171.752 107.262C169.552 101.686 167.992 103.318 180.418 97.3379L180.386 97.3319ZM133.124 141.658C122.956 112.956 123.124 116.766 125.888 111.046C126.478 109.804 128.17 107.8 127.674 107.024C124.566 102.068 122.564 101.54 124.566 97.5019C126.37 93.7912 128.579 90.2912 131.152 87.0659C131.774 86.2659 132.706 86.9099 132.178 87.7179C129.654 91.3496 127.416 95.1717 125.484 99.1499C124.598 102.116 130.438 106.06 129.684 107.66C125.026 117.29 125.284 113.734 128.768 124.388C130.648 130.072 132.636 135.726 134.314 141.472C134.632 142.31 133.462 142.6 133.124 141.658Z" fill="#191919"/>
<path fill-rule="evenodd" clip-rule="evenodd" d="M243.382 343.07C242.042 341.534 215.908 278.956 214.542 275.228C213.176 271.5 197.542 223.586 196.384 217.266C191.444 217.866 158.052 219.332 153.408 217.266C149.79 215.712 141.418 202.356 140.128 195.802C137.299 202.63 133.918 209.216 130.018 215.494C128.618 217.344 120.31 217.856 117.064 216.894C116.692 218.106 101.13 280.714 100.152 287.376C99.174 294.038 89.9 355.076 89.28 360.376C89.062 361.928 113.306 364.646 113.462 362.576C113.618 360.506 130.034 296.21 131.012 293.66C131.99 291.11 149.4 254 157.12 241.012C153.564 232.86 153.812 230.312 145.564 227.128C144.416 226.678 145.006 225.574 146.164 225.87C152.468 227.424 154.582 229.582 156.896 234.506C164.32 250.238 171.896 275.446 180.27 287.98C182.91 291.956 220.27 353.896 222.642 356.1C225.014 358.304 244.684 344.562 243.382 343.07Z" fill="#191919"/>
<path fill-rule="evenodd" clip-rule="evenodd" d="M102.124 236.694C101.236 234.926 50.87 204.08 47.982 204.468C44.182 204.902 9.432 248.174 10.008 250.812C10.584 253.45 79.464 293.478 81.824 293.042C84.184 292.606 103 238.452 102.124 236.694ZM93.286 223.152C91.874 229.132 89.808 227.19 90.056 225.87C90.456 223.602 91.066 221.35 91.61 219.128C92.028 217.576 93.27 217.296 93.846 218.244C94.422 219.192 93.488 221.986 93.224 223.152H93.286ZM72.304 204.188C72.826 205.188 71.792 204.988 70.316 205.508C66.696 206.828 66.184 212.28 64.228 211.162C62.518 210.162 67.892 203.94 69.322 203.224C69.8457 202.959 70.4529 202.912 71.0114 203.092C71.5699 203.273 72.0344 203.667 72.304 204.188ZM87.446 262.058L80.022 258C79.5129 259.241 78.8446 260.411 78.034 261.48C76.2079 261.013 74.4922 260.189 72.986 259.056C72.986 258.932 73.654 257.084 74.54 254.972L47.686 240.36C46.8713 241.85 45.8809 243.237 44.736 244.492C42.6364 243.756 40.6925 242.635 39.004 241.186C39.751 239.716 40.597 238.299 41.536 236.944C38.336 235.144 35.136 233.324 32 231.446C30.834 230.762 32 229.162 33.086 229.722C36.41 231.352 39.672 233.06 42.934 234.784C43.7058 233.472 44.6055 232.239 45.62 231.104C47.6079 231.806 49.4543 232.858 51.072 234.21C50.5436 235.542 49.8773 236.816 49.084 238.01L75.484 252.378C75.9422 250.964 76.6125 249.628 77.472 248.416C79.4596 249.104 81.3294 250.093 83.016 251.35C82.5165 252.77 81.9149 254.151 81.216 255.484L88.982 259.684C90.476 260.582 89 262.896 87.446 262.058Z" fill="#38A1FF"/>
</svg>
