<svg width="400" height="400" viewBox="0 0 400 400" fill="none" xmlns="http://www.w3.org/2000/svg">
<path d="M260 351.44C248 364.08 207.08 364 198.36 363.84C172.123 366.142 145.752 361.306 122.04 349.84C115.9 353.08 85.12 370.14 78.04 374.92C90.04 387.36 221.86 390.46 281.62 381.52C288.52 380.48 297.88 379.52 303.88 375.7C302.162 374.756 300.53 373.666 299 372.44C289.34 366.58 269.02 356.1 260 351.44Z" fill="white"/>
<path d="M364.26 214.62C350.26 205.86 334.08 207.96 320.96 217.26C318.64 218.918 316.422 220.714 314.32 222.64C315.076 227.49 315.582 232.378 315.84 237.28C325.5 225.02 340.62 214.76 355.06 220.84C358.194 221.992 361.018 223.856 363.308 226.286C365.6 228.716 367.294 231.644 368.26 234.84C371.64 247.24 366.06 261.3 359.52 271.7C346.14 292.96 322.74 307.02 297.76 306.3C295.582 309.584 293.24 312.754 290.74 315.8C302.202 317.326 313.858 316.278 324.864 312.732C335.87 309.186 345.946 303.23 354.36 295.3C366.54 284.1 376.26 269 379.22 252.56C382 237.52 377.56 222.92 364.26 214.62Z" fill="white"/>
<path d="M122.8 346.2C182.66 375.82 252.3 359.2 289.26 314.06C306.96 292.48 314.52 267.82 313.26 239.1C312.92 232.4 312.26 227.96 311.64 223.54C306.22 230.52 289.08 234.64 280.6 236.46C239.36 245.28 180.04 245.88 138.28 242.26C119.58 240.64 100.28 238.46 82.44 232.62C77.38 230.96 66.14 227.4 65.12 220.76C63.3384 231.45 62.635 242.29 63.02 253.12C65.14 294.7 84.92 327.44 122.8 346.2Z" fill="white"/>
<path d="M371.88 215.72C359 204.08 341.14 202.72 326.16 210.92C321.73 213.38 317.596 216.34 313.84 219.74C312.16 209.86 301.84 206.92 291.1 203.94C223.52 185.18 68.98 193.7 63.1 218.1C60.814 228.422 59.8462 238.994 60.22 249.56C60.6 271.56 66 293.56 78.06 312.18C88.3838 327.554 102.545 339.964 119.14 348.18C109.52 353.48 90.34 364.06 81.14 369.76C78.82 371.2 73.14 373.76 75.6 377.34C80 384 118.6 387.04 126.52 387.66C160.42 390.19 194.44 390.69 228.4 389.16C245.46 388.46 282.4 386.36 298.68 380.96C301.12 380.14 308.84 377.2 306.56 373.2C304.68 369.92 259.42 347.04 256.06 345.34C268.06 338.294 278.862 329.382 288.06 318.94C292.104 319.566 296.188 319.894 300.28 319.92C336.64 319.68 370.48 292.88 380.28 257.92C384.44 243.56 383.7 226.38 371.88 215.72ZM316 240.84C323.88 230.54 336.16 220.34 348.84 222.68C355.46 223.92 362.42 228.38 365 234.8C369.46 245.94 364.26 259.5 358.48 269.16C346.48 289.44 324.48 303.34 299.92 302.94C311.24 284.26 316.832 262.668 316 240.84ZM260 351.44C269.18 356.14 289.38 366.56 299.04 372.34C300.57 373.566 302.202 374.656 303.92 375.6C297.92 379.48 288.5 380.4 281.66 381.42C220.52 390.58 89.76 386.96 78.08 374.82C85.56 369.74 119.04 351.32 122.08 349.74C145.792 361.206 172.163 366.042 198.4 363.74C207 364 248 364 260 351.44ZM287.7 316C276.928 328.38 263.87 338.566 249.24 346C188.28 377.36 114.8 356.28 83.68 314.36C70.56 296.66 64.1 274.96 62.94 253.12C62.555 242.29 63.2584 231.45 65.04 220.76C66.06 227.4 77.3 230.96 82.36 232.62C141.02 251.74 293.76 246.5 311.56 223.54C311.56 223.54 311.56 223.54 311.56 223.68C317.04 258.28 310.22 289.6 287.7 316ZM290.74 315.88C293.24 312.834 295.582 309.664 297.76 306.38C322.74 307.1 346.14 293.04 359.52 271.78C366.06 261.38 371.64 247.32 368.26 234.92C367.294 231.724 365.6 228.796 363.308 226.366C361.018 223.936 358.194 222.072 355.06 220.92C340.62 214.92 325.5 225.12 315.84 237.36C315.592 232.456 315.084 227.57 314.32 222.72C331.9 206.72 350.32 205.98 364.32 214.72C405.48 240.32 359.52 325.1 290.74 315.78V315.88Z" fill="#0D128A"/>
<path d="M360.26 374.3C360.26 374.3 360.32 374.32 360.26 374.3V374.3Z" fill="#6CECC4"/>
<path d="M258.92 184.52C259.584 181.627 260.55 178.812 261.8 176.12C257.44 178.3 251 185.24 247.66 189.26C246.24 190.98 245 192.98 243.5 194.6C241.5 196.84 236.56 196.84 233.66 197.02C223.75 197.411 213.914 195.139 205.18 190.44C204.06 192.14 185.4 220.44 177.18 232.96C178.325 235.296 179.268 237.724 180 240.22C187.34 241.28 191.44 241.12 209.72 240.94C219.1 240.908 228.462 240.138 237.72 238.64L259.48 202.94C256.98 197.38 257.44 190.7 258.92 184.52Z" fill="#FF3E74"/>
<path d="M110.58 276C111.147 278.492 112.113 280.876 113.44 283.06C113.92 283.78 113.24 285.26 112.66 285.72C109.927 287.9 107.385 290.308 105.06 292.92C103.86 294.3 97.8599 301.78 103.06 301.64C107.42 301.54 112.46 297.14 115.72 294.66C119.122 292.166 122.325 289.41 125.3 286.42C123.604 282.33 122.22 278.118 121.16 273.82L110.58 276Z" fill="#FF3E74"/>
<path d="M32.16 262C32.4744 264.464 33.1834 266.862 34.26 269.1C34.72 270 33.72 271.62 33.14 272.02C30.2006 273.932 27.4304 276.094 24.86 278.48C23.46 279.78 16.96 286.48 22.44 286.64C26.94 286.64 32.1 283.06 35.76 280.8C39.346 278.7 42.769 276.334 46 273.72C44.7414 269.524 43.7988 265.238 43.18 260.9L32.16 262Z" fill="#FF3E74"/>
<path d="M284 252.4L297.46 259.94L304.12 251.08L291.38 242.92C288.7 246 286.18 249.1 284 252.4Z" fill="#FF3E74"/>
<path d="M195.54 200.68C200.9 193 198.9 195.96 203.98 188.26C204.08 187.24 204.2 186.26 204.3 185.22C201.72 184.9 199.16 184.42 196.62 183.9C161.82 176.6 137.48 156 134 120.72C129.36 124.54 122.86 127.56 116.66 126.72C117.782 138.838 121.602 150.551 127.84 161C149.36 196.2 194.28 199.6 195.54 200.68Z" fill="#FF3E74"/>
<path d="M133.8 117.82C133.5 113.585 133.5 109.335 133.8 105.1C128.86 109.24 120.82 112.62 117.36 107.1C117.143 106.604 116.975 106.089 116.86 105.56C116.133 111.317 115.952 117.129 116.32 122.92C125.34 125.3 133.24 118.12 133.8 117.82Z" fill="#FF3E74"/>
<path d="M322 196.52C312.16 175.98 287.46 171.76 265.04 174.52C262.82 178.333 261.394 182.557 260.852 186.936C260.308 191.316 260.658 195.76 261.88 200C269.98 191.86 281.88 187.1 292.62 191.86C300.24 195.26 307.46 202.68 308.04 211.34C308.72 221.64 300.52 231.92 293.64 240.16L306.26 248.16C309.26 244.16 312.26 240.26 315.3 236.34C319.82 230.5 323.98 225.7 325.18 218.22C326.328 210.832 325.22 203.268 322 196.52Z" fill="#FF3E74"/>
<path d="M204 188.68C204 188.54 204 188.4 204 188.26C198.66 196.34 198.6 196.3 204 188.68Z" fill="#FFDE26"/>
<path d="M151.22 65.82C150.851 65.5114 150.406 65.3062 149.932 65.2254C149.458 65.1446 148.971 65.191 148.52 65.36C147.379 65.833 146.473 66.7392 146 67.88L145.4 67.7C145.636 67.2406 145.824 66.758 145.96 66.26C146.165 65.6974 146.234 65.0942 146.16 64.5C145.92 63.02 144.16 62.78 142.9 63.36C141.3 64.18 142 66.28 142.36 67.62C141.588 67.844 140.895 68.2806 140.36 68.88C142.555 68.9894 144.737 69.2904 146.88 69.78C146.88 69.78 147.02 69.78 147.1 69.78C147.655 69.8382 148.204 69.9454 148.74 70.1C151.46 69.68 152.74 67.18 151.22 65.82Z" fill="#FFDE26"/>
<path d="M147.34 70.66C146 74 142.74 73.42 142 70.8C141.814 71.274 141.503 71.6886 141.1 72C139.852 71.4198 138.459 71.2248 137.1 71.44C137.1 71.7 137.1 71.88 137.1 71.88L136.5 72.1C136.423 72.0612 136.355 72.0068 136.3 71.94C134.9 73.5 137.4 75.22 140.3 75.02L140.14 76.56C141.749 77.4692 143.638 77.7472 145.44 77.34C146.255 76.146 147.32 75.143 148.56 74.4C148.837 73.192 148.768 71.9304 148.36 70.76L147.34 70.66ZM144.56 73.88L144.24 74.24C144.5 74.86 144.8 76.24 143.78 76.24C143.203 76.1984 142.664 75.9328 142.28 75.5C141.957 75.6002 141.618 75.6408 141.28 75.62C140.88 75.62 141.28 74.74 141.6 74.78C142.114 74.7572 142.615 74.6196 143.069 74.3774C143.522 74.1352 143.916 73.7944 144.22 73.38C144.62 72.96 144.88 73.54 144.56 73.88Z" fill="#FFDE26"/>
<path d="M132.84 214.86C109.96 221.06 106.04 246.98 108.84 267.32L119.44 265.12C118.06 255.56 118.1 245.12 122.78 236.48C125.613 231.112 130.387 227.026 136.129 225.056C141.871 223.086 148.148 223.38 153.68 225.88C158.49 228.256 162.512 231.972 165.26 236.58C165.62 237.16 167.04 240.36 167.04 240.36C167.46 240.62 166.44 240.36 177.04 240.84C170.16 221.74 153.88 209.62 132.84 214.86Z" fill="#FFDE26"/>
<path d="M60.56 203.46C37.06 207.46 30.56 232.54 31.3 253.2L42.2 252C41.74 242 42.92 231.28 48.86 223.08C58.46 209.76 78.86 209.08 88.86 225.36C90.0712 227.082 91.0026 228.986 91.62 231C91.86 232.24 91.42 231.9 92.74 232.22C96.38 233.12 100.14 233.68 103.88 234.22C97.16 213.68 82.24 200.26 60.56 203.46Z" fill="#FFDE26"/>
<path d="M284.34 255.5C284.152 255.868 283.878 256.184 283.54 256.42C281.854 257.806 280.306 259.354 278.92 261.04C275.942 264.656 274.316 269.196 274.32 273.88C274.126 275.184 274.214 276.514 274.58 277.78C275.406 275.638 276.074 273.44 276.58 271.2C276.82 270.24 279.2 267.9 279.2 270.14C279.2 271.48 279.2 272.84 279.2 274.14C279.12 275.744 279.296 277.35 279.72 278.9C280.28 277.78 281.62 273.6 282.12 271.92C282.42 270.94 284.62 269.38 284.62 271.3C284.544 273.574 284.814 275.846 285.42 278.04C285.8 279.14 286.24 280.54 287.22 279.68C288.2 278.82 288.14 276.26 288.3 275.24C288.306 273.372 288.68 271.524 289.4 269.8C290.78 267.54 293.4 265.34 293.66 262.54C293.704 262.216 293.828 261.906 294.02 261.64L284.34 255.5Z" fill="#FFDE26"/>
<path d="M221.48 126.24C216.968 127.208 212.814 129.41 209.48 132.6C226.326 133.587 243.056 136.029 259.48 139.9C259.886 139.993 260.244 140.236 260.48 140.58C260.63 140.415 260.812 140.284 261.014 140.194C261.218 140.105 261.438 140.059 261.66 140.06C266.104 140.289 270.548 139.608 274.72 138.06C283.62 134.76 292.84 124.86 285.8 115.36C278.76 105.86 265.8 108.62 257.8 114.84C253.756 117.858 250.616 121.925 248.72 126.6C248.52 127.14 247.7 128.4 246.92 128.18L242.62 126.96C240.62 126.38 242.74 124.74 243.06 123.44C244.998 118.878 246.454 114.126 247.4 109.26C248.48 100.96 243.96 94.96 235.58 94.32C228.68 93.78 221.02 96.74 220 104.32C219.14 110.76 221.4 117.4 223.06 123.54C223.144 124.103 223.032 124.677 222.744 125.168C222.458 125.659 222.012 126.037 221.48 126.24Z" fill="#FFDE26"/>
<path d="M260.2 144.84C257.68 152.58 252.42 161.02 244.8 163.78C233.86 167.78 223.76 160.62 219.52 150.88C218.642 152.36 217.618 153.747 216.46 155.02L218.1 155.8C219.44 156.44 217.66 159.64 216.26 158.98C207.98 154.98 193.64 150.38 184.44 152.98C181.1 153.92 177.5 156.3 176.84 159.98C175.4 167.88 190.1 177.62 209.84 175.02C211.72 174.78 210.58 178.16 209.2 178.32L207.5 178.52C207.5 178.52 206.66 186.7 206.62 187C215.272 191.751 225.058 194.041 234.92 193.62C237.288 193.579 239.644 193.263 241.94 192.68C242.762 191.874 243.486 190.974 244.1 190C249.04 183.66 256.46 175.4 263.74 171.88C263.74 171.46 263.92 171.02 264 170.6C265.316 161.873 264.172 152.953 260.7 144.84H260.2ZM236.72 185.48C232.06 190.44 222.56 185.2 219.2 179.86C217.912 180.02 216.608 180.02 215.32 179.86C213.7 179.68 215.18 176.34 216.6 176.48C223.92 177.26 231.28 171.72 236.14 166.18C237.76 164.32 238.74 166.66 237.5 168.18L236.58 169.2C238.48 172.42 240.36 181.6 236.72 185.48Z" fill="#FFDE26"/>
<path d="M119.8 104.52C120.025 104.872 120.301 105.189 120.62 105.46C124.22 108.66 131.98 104.28 134.78 100.94C135.62 99.92 135.58 99.8 134.2 99.7C133.04 99.7178 131.891 99.9274 130.8 100.32C129.28 100.749 127.791 101.276 126.34 101.9C124.34 102.68 125.32 99.5 126.34 98.84C128.752 97.5232 130.895 95.7662 132.66 93.66C134.14 91.52 131.08 91.66 129.64 92.16C128.462 92.6232 127.341 93.2204 126.3 93.94C124.84 94.86 125.18 92.58 125.74 91.5C125.808 91.3552 125.895 91.2206 126 91.1C127.103 89.9844 128.145 88.8092 129.12 87.58C129.688 86.891 130.196 86.155 130.64 85.38C130.28 84.86 122.12 88.28 119.56 92.92C118 95.62 118.88 101.62 119.8 104.52Z" fill="#FFDE26"/>
<path d="M205.46 135.8L215.18 153.14C215.722 152.563 216.224 151.948 216.68 151.3L208 136L205.46 135.8Z" fill="#FF3E74"/>
<path d="M200 135.54C194 135.32 195.38 135.4 194.2 135.3L202.52 150.14C204.82 150.68 207.08 151.36 209.3 152.14C202.9 140.72 199.84 135.28 200 135.54Z" fill="#FF3E74"/>
<path d="M246.36 140.7L243.54 140.18L252.1 155.44C252.634 154.809 253.122 154.141 253.56 153.44L246.36 140.7Z" fill="#FF3E74"/>
<path d="M231.46 138.26L244.12 160.84C245.714 160.355 247.218 159.619 248.58 158.66L237.66 139.18C235.6 138.86 233.54 138.54 231.46 138.26Z" fill="#FF3E74"/>
<path d="M140.14 68.88H139.76L141.36 71.72C141.431 71.6372 141.498 71.5504 141.56 71.46L140.14 68.88Z" fill="#FF3E74"/>
<path d="M138.98 68.84H138.18L139.72 71.62C140.053 71.6994 140.38 71.7996 140.7 71.92L138.98 68.84Z" fill="#FF3E74"/>
<path d="M145.54 69.54H145.14L146.58 72L146.78 71.74L145.54 69.54Z" fill="#FF3E74"/>
<path d="M143.44 69.2L145.44 72.84C145.655 72.7552 145.857 72.6406 146.04 72.5L144.26 69.32L143.44 69.2Z" fill="#FF3E74"/>
<path d="M199.56 68.46L177.88 55.6C177.775 55.5342 177.686 55.4456 177.62 55.3406C177.554 55.2356 177.513 55.1172 177.5 54.994C177.486 54.8708 177.501 54.746 177.542 54.6294C177.584 54.5126 177.652 54.4068 177.74 54.32L198.1 34.62C198.223 34.491 198.301 34.3252 198.322 34.148C198.342 33.9706 198.305 33.7914 198.214 33.6376C198.124 33.4838 197.985 33.3636 197.82 33.2954C197.655 33.2274 197.473 33.2148 197.3 33.26L175.88 39.76C175.747 39.799 175.606 39.8038 175.471 39.7736C175.335 39.7434 175.21 39.6792 175.106 39.5874C175.002 39.4954 174.923 39.3786 174.877 39.248C174.83 39.1172 174.818 38.9768 174.84 38.84L179.6 10.96C179.63 10.782 179.601 10.5991 179.516 10.4396C179.432 10.2801 179.297 10.1528 179.133 10.0776C178.969 10.0024 178.785 9.98346 178.609 10.0237C178.433 10.0639 178.275 10.161 178.16 10.3L158.68 34C158.519 34.1564 158.304 34.2438 158.08 34.2438C157.856 34.2438 157.641 34.1564 157.48 34L138 16C137.877 15.8805 137.719 15.8037 137.549 15.7809C137.379 15.7581 137.206 15.7906 137.056 15.8735C136.906 15.9564 136.786 16.0854 136.715 16.2414C136.644 16.3974 136.624 16.5722 136.66 16.74L141.62 43.68L160.84 41.44C161.64 41.34 162 42.04 161.82 42.76C161.22 44.78 156 66.4 154 75.1L170.86 88C171.002 88.1056 171.174 88.1628 171.35 88.1628C171.527 88.1628 171.699 88.1056 171.841 88C171.982 87.8944 172.086 87.7458 172.136 87.5764C172.187 87.407 172.181 87.2258 172.12 87.06L166.36 71.06C166.319 70.9354 166.309 70.803 166.328 70.6734C166.348 70.544 166.398 70.4208 166.473 70.314C166.549 70.207 166.649 70.1194 166.765 70.0578C166.881 69.9964 167.009 69.963 167.14 69.96H199.14C199.312 69.9522 199.478 69.8902 199.613 69.7828C199.748 69.6754 199.846 69.5282 199.893 69.362C199.939 69.1958 199.932 69.019 199.872 68.8572C199.813 68.6952 199.703 68.5562 199.56 68.46Z" fill="#FF3E74"/>
<path d="M147.5 48.6C146.84 48.4 146.08 49.02 145.78 50C145.48 50.98 145.78 52 146.42 52.12C147.06 52.24 147.84 51.68 148.12 50.72C148.4 49.76 148.14 48.8 147.5 48.6Z" fill="#FF3E74"/>
<path d="M107.44 235.42C104.34 221.68 94.94 207.42 81.54 202.06C75.0478 199.612 68.0244 198.922 61.18 200.06C35.34 204.38 27.6 232.96 28.68 255.62C28.8272 260.582 29.6826 265.5 31.22 270.22C28.0818 272.37 25.1554 274.816 22.48 277.52C20.34 279.74 14.58 286.7 19.06 289.52C22.84 291.9 30.02 287.2 33.06 285.52C38.3598 282.622 43.3232 279.148 47.86 275.16C48.2066 274.878 48.4736 274.508 48.6348 274.092C48.7962 273.674 48.8462 273.222 48.78 272.78C47.2844 267.954 46.2072 263.01 45.56 258C43.2 240.94 45.7 220.56 62.46 216.84C75.2 214.04 85.76 223.36 89.72 234.84C89.7566 234.992 89.8368 235.128 89.9504 235.236C90.0642 235.342 90.2064 235.414 90.36 235.44L105.54 238.2C106.76 238.42 107.66 236.38 107.44 235.42ZM46 273.72C42.7966 276.35 39.4004 278.738 35.84 280.86C32.18 283.12 27.02 286.86 22.52 286.7C17.04 286.7 23.54 279.84 24.94 278.54C27.4818 276.13 30.2252 273.942 33.14 272C33.76 271.6 34.72 270 34.26 269.08C33.1856 266.848 32.4764 264.458 32.16 262L43.1 260.84C43.742 265.2 44.7114 269.506 46 273.72ZM31.58 256.42L42.5 255.28C42.5 256.08 42.66 256.9 42.76 257.7L31.82 258.86C31.66 258 31.56 257.24 31.5 256.42H31.58ZM92.9 232.28C91.58 231.96 92.02 232.28 91.78 231.06C91.1626 229.046 90.2312 227.142 89.02 225.42C79.14 209.24 58.64 209.68 49.02 223.14C43.02 231.34 41.9 242.14 42.36 252.06L31.46 253.2C30.7 232.54 37.22 207.38 60.72 203.46C82.4 200.26 97.32 213.68 104.12 234.34C100.24 233.74 96.46 233.18 92.82 232.28H92.9Z" fill="#0D128A"/>
<path d="M225.78 200.32C225.292 200.316 224.816 200.456 224.408 200.724C224 200.992 223.682 201.376 223.494 201.824C223.304 202.274 223.252 202.77 223.344 203.248C223.438 203.726 223.67 204.166 224.014 204.512C224.356 204.858 224.794 205.094 225.272 205.192C225.75 205.288 226.246 205.24 226.696 205.054C227.148 204.87 227.532 204.554 227.804 204.148C228.076 203.744 228.22 203.268 228.22 202.78C228.22 202.132 227.964 201.508 227.506 201.048C227.05 200.586 226.43 200.326 225.78 200.32Z" fill="#0D128A"/>
<path d="M220.56 212.3C220.072 212.3 219.596 212.444 219.192 212.716C218.786 212.988 218.472 213.372 218.286 213.824C218.1 214.274 218.052 214.77 218.148 215.248C218.246 215.726 218.482 216.164 218.828 216.506C219.174 216.85 219.614 217.082 220.092 217.176C220.57 217.268 221.066 217.216 221.516 217.026C221.964 216.838 222.348 216.52 222.616 216.112C222.884 215.704 223.024 215.228 223.02 214.74C223.02 214.418 222.956 214.098 222.832 213.802C222.708 213.504 222.526 213.234 222.298 213.008C222.07 212.78 221.798 212.602 221.5 212.48C221.202 212.358 220.882 212.298 220.56 212.3Z" fill="#0D128A"/>
<path d="M317.7 184.26C308.26 174.42 294.56 170.72 281.3 170.38C276.414 170.2 271.52 170.461 266.68 171.16C267.87 162.628 267.076 153.935 264.36 145.76L266.36 146.28C269.88 147.24 280.1 151.18 274.18 155.26C273.06 156.04 272.48 159.5 274.18 158.3C275.268 157.612 276.208 156.715 276.946 155.661C277.684 154.607 278.206 153.417 278.48 152.16C279.34 146.82 273.26 144.48 268.08 142.98C277.28 141.32 286.34 135.86 289.74 127.18C296 111.18 275.14 96.4 255.74 113.18C252.088 116.275 249.118 120.096 247.02 124.4L245.18 123.86C248.88 114.52 253.64 101.6 246.26 94.68C241.92 90.68 235.14 90.04 229.58 91.46C226.606 92.1624 223.896 93.7016 221.77 95.8954C219.644 98.0892 218.19 100.846 217.58 103.84C216.28 110.36 218.14 117.12 219.9 123.46C214.668 125.117 210 128.199 206.42 132.36C203.86 132.24 201.3 132.12 198.74 132.04C195.4 131.92 191.96 131.16 190.4 134.84C188.747 139.353 188.292 144.218 189.08 148.96C186.724 149.16 184.421 149.776 182.28 150.78C182.46 147.1 182.08 139.72 176.08 140.18C168.34 140.78 174.46 152.34 177.64 154.18C167.2 165.44 181.44 180 204.96 178.76L204.66 181.76C197.056 180.738 189.602 178.804 182.46 176C166 169.8 151.06 158.9 143 142.86C133.6 124.12 136.7 104.12 136.6 102.36C137.158 101.794 137.576 101.104 137.819 100.347C138.062 99.5894 138.124 98.7856 138 98L147.88 95.52C148.3 95.3558 148.671 95.0852 148.955 94.7344C149.239 94.3838 149.427 93.9652 149.5 93.52C150.98 87.36 161.24 44.72 161.76 42.6C161.94 41.88 161.58 41.18 160.78 41.28L134.38 44.4C133.54 44.5 132.96 45.7 132.78 46.4L123.18 86C121.31 87.4602 119.643 89.1616 118.22 91.06C116.22 93.94 115.82 98.46 116.22 102.46C115.79 102.612 115.41 102.879 115.121 103.231C114.832 103.584 114.645 104.009 114.58 104.46C112.957 114.246 113.032 124.239 114.8 134C116.295 144.176 119.787 153.957 125.076 162.778C130.366 171.6 137.348 179.288 145.62 185.4C159.62 195.64 176.7 201.06 193.62 203.88C187.727 212.866 181.82 221.834 175.9 230.78C170.98 221.96 163.26 214.44 153.74 211.56C147.073 209.71 140.027 209.71 133.36 211.56C107.86 218.46 102.96 247.56 106.3 270.24C106.939 275.13 108.287 279.9 110.3 284.4C107.267 286.918 104.506 289.748 102.06 292.84C100.22 295.22 95.34 302.68 100.22 304.7C104.4 306.44 110.88 301.14 113.92 298.98C118.914 295.556 123.515 291.592 127.64 287.16C127.885 286.894 128.067 286.576 128.171 286.23C128.275 285.882 128.299 285.516 128.24 285.16C125.496 278.802 123.483 272.152 122.24 265.34C119.92 251.76 120.6 232.74 136.4 227.96C148.64 224.26 159.84 232.36 164.84 243.2C164.96 243.48 165.12 243.76 165.48 243.78C185.88 244.74 197.36 244.4 201.02 244.4C211.64 244.4 225.02 244.4 236.54 242.08C239.08 241.58 239.72 239.36 241.02 237.24C265.18 197.62 261.7 203.78 261.96 203.06C268.4 195.92 278.96 191.18 288.42 194.18C296.06 196.6 304.18 203.76 305.16 212.18C306.74 225.46 290.38 238.3 280.78 253C280.44 253.52 280.12 254.74 280.78 255.14L281.1 255.32C277.654 258.224 274.982 261.934 273.32 266.122C271.66 270.31 271.062 274.844 271.58 279.32C272.02 282.58 274.14 283.32 275.84 280.32C276.06 279.9 276.26 279.48 276.46 279.06C276.7 281.54 277.26 283.68 278.62 283.7C280.62 283.7 281.66 280.14 282.32 278.48C282.86 281.62 284.04 284.58 286.76 283.44C290.52 281.86 291.02 275.12 291.26 271.18C293.274 268.948 294.85 266.356 295.9 263.54L296.12 263.66C296.66 263.98 297.4 263.46 297.72 263.04C304.82 253.54 311.92 244.06 319.26 234.74C322.034 231.56 324.276 227.954 325.9 224.06C328.288 217.308 328.786 210.032 327.34 203.018C325.894 196.004 322.562 189.518 317.7 184.26ZM221.48 126.26C222.022 126.055 222.478 125.667 222.766 125.164C223.054 124.66 223.158 124.072 223.06 123.5C221.4 117.36 219.06 110.72 220 104.28C221.02 96.68 228.68 93.72 235.58 94.28C243.96 94.92 248.48 100.92 247.4 109.22C246.468 114.089 245.012 118.843 243.06 123.4C242.86 124.18 240.82 126.4 242.62 126.92L246.92 128.14C247.7 128.36 248.52 127.12 248.72 126.56C250.624 121.889 253.762 117.824 257.8 114.8C265.8 108.58 278.88 106 285.8 115.32C292.72 124.64 283.62 134.72 274.72 138.02C270.548 139.568 266.104 140.249 261.66 140.02C261.438 140.019 261.218 140.065 261.014 140.154C260.812 140.244 260.63 140.375 260.48 140.54C260.244 140.196 259.888 139.953 259.48 139.86C243.056 135.989 226.326 133.547 209.48 132.56C212.818 129.384 216.972 127.197 221.48 126.24V126.26ZM243.48 140.26L246.3 140.78L253.5 153.62C253.05 154.313 252.562 154.98 252.04 155.62L243.48 140.26ZM248.52 158.74C247.158 159.699 245.654 160.435 244.06 160.92L231.4 138.34C233.4 138.62 235.54 138.92 237.6 139.26L248.52 158.74ZM208 136L216.62 151.36C216.164 152.008 215.662 152.623 215.12 153.2L205.4 135.86L208 136ZM200 135.6L209.3 152.18C207.08 151.42 204.82 150.74 202.52 150.18L194.2 135.34C195.36 135.4 194 135.32 200 135.54V135.6ZM176.84 160C177.5 156.32 181.1 154 184.44 153C193.64 150.36 207.86 155 216.26 159C217.66 159.66 219.44 156.46 218.1 155.82L216.46 155.04C217.618 153.767 218.642 152.38 219.52 150.9C223.76 160.64 233.86 167.76 244.8 163.8C252.38 161.06 257.66 152.66 260.2 144.86H260.7C264.174 152.994 265.316 161.934 264 170.68C264 171.1 263.82 171.54 263.74 171.96C258.346 174.913 253.55 178.847 249.6 183.56C243.4 190.34 242.76 192.38 241.94 192.72C239.644 193.303 237.288 193.618 234.92 193.66C225.058 194.081 215.272 191.791 206.62 187.04C206.62 186.74 207.5 178.56 207.5 178.56L209.2 178.36C210.58 178.2 211.72 174.82 209.84 175.06C190.2 177.64 175.4 168 176.84 160ZM134.84 47.56L158.8 44.8C156.64 53.8 147.68 91 147.3 92.56L134 95.88C134.9 94.834 135.531 93.5846 135.84 92.24C136.6 88.52 133.84 88.24 131.06 88.86C131.573 88.1708 132.04 87.4492 132.46 86.7C133.8 84.26 133.38 82.24 131.26 82.14L139.38 49.72C139.96 47.4 137.16 48.88 136.8 50.38C134.133 61.1532 131.467 71.9266 128.8 82.7C127.828 83.0458 126.891 83.481 126 84C129 71.8532 131.973 59.7132 134.92 47.58L134.84 47.56ZM119.6 92.92C122.22 88.22 130.32 84.92 130.68 85.38C130.236 86.1548 129.728 86.8908 129.16 87.58C128.172 88.8102 127.117 89.9854 126 91.1C125.26 91.84 124.66 94.98 126.3 93.94C127.332 93.206 128.455 92.6078 129.64 92.16C131.08 91.64 134.14 91.52 132.66 93.66C130.893 95.7634 128.75 97.52 126.34 98.84C125.691 99.396 125.271 100.172 125.16 101.02C125.06 101.86 125.46 102.22 126.3 101.9C127.751 101.278 129.241 100.75 130.76 100.32C131.851 99.9272 133 99.7178 134.16 99.7C135.54 99.7 135.58 99.92 134.74 100.94C131.96 104.26 124.2 108.68 120.58 105.46C120.261 105.189 119.985 104.872 119.76 104.52C118.9 101.62 118 95.62 119.6 92.92ZM116.94 105.64C117.065 106.166 117.232 106.681 117.44 107.18C120.9 112.62 128.94 109.18 133.88 105.18C133.58 109.415 133.58 113.665 133.88 117.9C133.44 118.14 125.48 125.38 116.48 123.08C116.081 117.265 116.235 111.426 116.94 105.64ZM116.7 126.68C122.9 127.56 129.4 124.54 134.04 120.68C135.64 137.04 142.04 152.36 154.82 163.9C166.44 174.38 181.44 180.68 196.62 183.9C199.16 184.42 201.72 184.9 204.3 185.22C204.2 186.22 203.96 188.54 203.94 188.68C201.242 192.788 198.296 196.729 195.12 200.48C152 193.36 121.04 169.8 116.7 126.68ZM109.86 272.9C109.68 272.06 109.52 271.22 109.36 270.38L120 268.2C120.16 269.04 120.32 269.88 120.5 270.7L109.86 272.9ZM125.34 286.34C122.365 289.33 119.162 292.086 115.76 294.58C112.5 297.06 107.46 301.46 103.1 301.56C97.86 301.7 103.86 294.22 105.1 292.84C107.425 290.228 109.967 287.82 112.7 285.64C113.26 285.2 113.98 283.64 113.48 282.98C112.146 280.824 111.167 278.466 110.58 276L121.2 273.82C122.263 278.092 123.647 282.276 125.34 286.34ZM167.06 240.34C167.06 240.34 165.64 237.14 165.28 236.56C154.2 218.56 131.54 220.34 122.8 236.46C118.12 245.12 118.08 255.54 119.46 265.1L108.86 267.3C106.04 246.96 109.96 221.04 132.86 214.84C153.86 209.6 170.24 221.7 176.98 240.84C166.68 240.34 167.42 240.58 167.06 240.36V240.34ZM237.7 238.62C228.442 240.118 219.08 240.888 209.7 240.92C190.1 241.1 186.82 241.18 179.98 240.2C179.229 237.702 178.266 235.274 177.1 232.94C185.34 220.46 204 192.12 205.1 190.42C209.356 192.679 213.878 194.399 218.56 195.54C214.68 202.46 210.814 209.386 206.96 216.32C205.86 218.32 207.76 219.4 208.96 217.42L220.96 196.04C225.158 196.928 229.456 197.251 233.74 197C236.64 196.82 241.48 196.82 243.58 194.58C245.08 192.96 246.32 190.94 247.74 189.24C250.27 186.105 253.032 183.164 256 180.44C257.762 178.791 259.7 177.342 261.78 176.12C260.51 178.803 259.544 181.621 258.9 184.52C257.32 190.68 256.9 197.38 259.44 202.94L237.7 238.62ZM293.8 262.62C293.54 265.42 290.92 267.62 289.54 269.88C288.822 271.604 288.448 273.452 288.44 275.32C288.28 276.34 288.18 279.04 287.36 279.76C286.54 280.48 285.94 279.22 285.56 278.12C284.954 275.926 284.684 273.654 284.76 271.38C284.76 269.38 282.56 271.02 282.26 272C281.84 273.46 280.38 278 279.86 278.98C279.424 277.434 279.248 275.824 279.34 274.22C279.34 272.86 279.34 271.5 279.34 270.22C279.34 267.98 276.96 270.32 276.72 271.28C276.214 273.518 275.546 275.718 274.72 277.86C274.354 276.594 274.264 275.264 274.46 273.96C274.462 269.276 276.088 264.738 279.06 261.12C280.446 259.434 281.994 257.886 283.68 256.5C284.014 256.258 284.286 255.944 284.48 255.58L294.3 261.78C294.07 262.008 293.898 262.29 293.8 262.6V262.62ZM297.36 259.96L284 252.4C286.28 249.1 288.8 246 291.38 242.92L304.12 251.08L297.36 259.96ZM325.18 218.22C323.98 225.7 319.82 230.5 315.3 236.34C312.26 240.34 309.3 244.2 306.26 248.16L293.64 240.16C300.52 231.9 308.72 221.58 308.04 211.34C307.46 202.68 300.24 195.34 292.62 191.86C282 187 270 191.76 261.88 200C260.69 195.789 260.358 191.382 260.9 187.04C261.442 182.698 262.85 178.509 265.04 174.72C287.6 172 312.1 175.96 322 196.72C325.176 203.404 326.284 210.884 325.18 218.2V218.22Z" fill="#0D128A"/>
<path d="M215.32 180C216.608 180.16 217.912 180.16 219.2 180C222.66 185.46 232.1 190.54 236.72 185.62C240.42 181.62 238.4 172.4 236.58 169.32L237.5 168.3C238.74 166.88 237.76 164.54 236.14 166.3C231.28 171.84 223.94 177.38 216.6 176.6C215.18 176.42 213.7 179.76 215.32 180ZM234.12 171.72C235.66 174.32 237.52 180.84 235.7 183.22L229.86 175.22C231.35 174.12 232.774 172.931 234.12 171.66V171.72ZM227.68 176.7L233.06 184C229.16 183.639 225.538 181.835 222.9 178.94C224.566 178.333 226.166 177.562 227.68 176.64V176.7Z" fill="#0D128A"/>
<path d="M139.76 68.86H138.98L140.7 71.9L141.02 72.02C141.143 71.9316 141.257 71.831 141.36 71.72L139.76 68.86Z" fill="#0D128A"/>
<path d="M138.18 68.8C138.119 68.8124 138.062 68.8412 138.016 68.8836C137.97 68.9258 137.937 68.98 137.92 69.04C137.68 69.7742 137.68 70.5658 137.92 71.3C138.55 71.3036 139.177 71.3978 139.78 71.58L138.18 68.8Z" fill="#0D128A"/>
<path d="M140.14 68.88L141.56 71.44C141.733 71.2464 141.881 71.0312 142 70.8C142.092 71.1716 142.258 71.5204 142.49 71.8248C142.722 72.1294 143.014 72.3832 143.347 72.5706C143.681 72.758 144.049 72.875 144.43 72.9146C144.81 72.954 145.195 72.915 145.56 72.8L143.56 69.16C141.68 68.96 140.34 68.9 140.14 68.88Z" fill="#0D128A"/>
<path d="M144.3 69.32L146 72.5C146.181 72.3556 146.349 72.195 146.5 72.02L145.06 69.46L144.3 69.32Z" fill="#0D128A"/>
<path d="M149.48 70.36C148.659 70.0098 147.789 69.7872 146.9 69.7C146.9 69.7 146.76 69.7 146.68 69.7C146.3 69.7 145.92 69.52 145.54 69.46L146.78 71.68C147.014 71.3392 147.202 70.9694 147.34 70.58L148.14 70.76C148.58 70.9 149.9 71.36 149.4 71.72C149.24 71.84 149.04 72.06 149.08 72.28C149.2 73.28 151.12 71.18 149.48 70.36Z" fill="#0D128A"/>
<path d="M136 70.1C134.9 70.1 135.82 71.92 136.26 72.1L136.86 71.88C137.02 71.26 136.98 70 136 70.1Z" fill="#0D128A"/>
<path d="M144.22 73.4C143.915 73.8132 143.521 74.1532 143.068 74.3954C142.615 74.6376 142.113 74.7758 141.6 74.8C141.24 74.8 140.88 75.6 141.28 75.64C141.924 75.6126 142.553 75.44 143.121 75.1352C143.689 74.8304 144.181 74.4014 144.56 73.88C144.88 73.54 144.62 72.96 144.22 73.4Z" fill="#0D128A"/>
</svg>
