<svg width="400" height="400" viewBox="0 0 400 400" fill="none" xmlns="http://www.w3.org/2000/svg">
<path d="M376.83 108.056L360.74 192.234C358.49 190.92 356.152 189.765 353.74 188.778C354.714 181.632 354.362 177.664 352.848 175.412C353.068 175.038 353.222 174.629 353.3 174.202C353.49 173.199 353.276 172.161 352.702 171.316C352.126 170.472 351.24 169.89 350.238 169.699C349.234 169.508 348.196 169.723 347.352 170.298C346.506 170.872 345.924 171.759 345.734 172.762C345.714 172.878 345.694 173 345.68 173.114C342.7 174.452 340.746 179.016 338.778 184.492L338.738 184.892C326.608 183.446 314.334 185.928 303.718 191.972C302.9 177.51 307.95 158.526 303.494 152.172C303.722 151.799 303.878 151.386 303.954 150.956C304.06 150.405 304.044 149.837 303.906 149.293C303.77 148.749 303.516 148.241 303.162 147.805C302.808 147.37 302.364 147.016 301.86 146.771C301.354 146.525 300.802 146.392 300.242 146.382C299.68 146.372 299.124 146.485 298.612 146.712C298.098 146.94 297.642 147.277 297.272 147.7C296.904 148.122 296.632 148.621 296.474 149.16C296.318 149.699 296.282 150.265 296.368 150.82C286.268 156.878 284.62 194.642 271.47 192.52C258.232 190.376 277.852 136.596 268.028 124.448C268.33 124.014 268.534 123.52 268.628 123C268.722 122.503 268.72 121.993 268.616 121.498C268.514 121.002 268.316 120.532 268.032 120.114C267.748 119.696 267.384 119.337 266.962 119.06C266.538 118.782 266.066 118.59 265.57 118.495C265.072 118.4 264.562 118.404 264.066 118.506C263.572 118.608 263.102 118.807 262.682 119.091C262.264 119.375 261.906 119.739 261.628 120.162C261.35 120.584 261.158 121.057 261.064 121.554C260.996 121.906 260.978 122.265 261.01 122.622C246.44 129.99 245.636 208.678 224.638 205.156C204.018 201.7 226.848 139.436 216.748 127.084C216.822 126.889 216.878 126.688 216.918 126.484C217.012 125.987 217.01 125.476 216.906 124.98C216.804 124.484 216.604 124.014 216.32 123.595C216.036 123.176 215.672 122.818 215.248 122.54C214.826 122.262 214.352 122.07 213.856 121.975C213.358 121.88 212.846 121.884 212.352 121.986C211.856 122.089 211.384 122.288 210.966 122.573C210.548 122.857 210.188 123.221 209.91 123.644C209.632 124.067 209.44 124.541 209.346 125.038C209.312 125.221 209.292 125.406 209.284 125.592C195 131.868 187.088 183.282 178.752 182.174L199.4 74.138L376.83 108.056ZM246.452 92.63C246.606 91.8248 246.518 90.9922 246.198 90.2374C245.88 89.4824 245.344 88.8392 244.658 88.389C243.974 87.9386 243.17 87.7016 242.35 87.7076C241.532 87.7138 240.732 87.9628 240.054 88.4232C239.376 88.8838 238.85 89.5348 238.542 90.2944C238.234 91.054 238.158 91.8878 238.324 92.6906C238.49 93.4932 238.89 94.2286 239.474 94.8038C240.058 95.379 240.798 95.7682 241.604 95.922C242.684 96.1244 243.798 95.8918 244.706 95.2752C245.614 94.6584 246.242 93.7076 246.452 92.63ZM229.112 89.31C229.266 88.5048 229.178 87.6722 228.858 86.9174C228.54 86.1624 228.004 85.5192 227.318 85.069C226.634 84.6186 225.83 84.3816 225.01 84.3876C224.192 84.3938 223.392 84.6428 222.714 85.1032C222.036 85.5638 221.51 86.2148 221.202 86.9744C220.894 87.734 220.818 88.5678 220.984 89.3706C221.15 90.1732 221.55 90.9086 222.134 91.4838C222.718 92.059 223.458 92.4482 224.264 92.602C225.344 92.8082 226.46 92.5772 227.37 91.9598C228.278 91.3426 228.906 90.3894 229.112 89.31ZM211.776 86C211.93 85.1952 211.84 84.3632 211.52 83.6092C211.202 82.855 210.664 82.2126 209.98 81.763C209.296 81.3134 208.492 81.077 207.674 81.0836C206.854 81.0902 206.056 81.3394 205.378 81.8C204.702 82.2604 204.176 82.9114 203.868 83.6706C203.56 84.4298 203.486 85.263 203.652 86.0652C203.818 86.8672 204.218 87.602 204.8 88.1768C205.384 88.7516 206.126 89.1402 206.93 89.294C208.01 89.498 209.126 89.2658 210.034 88.6482C210.942 88.0308 211.568 87.0786 211.776 86Z" fill="white"/>
<path d="M372.4 201.224C383.114 211.938 389.134 226.472 389.134 241.624C389.134 256.776 383.114 271.31 372.4 282.024C361.686 292.738 347.152 298.758 332 298.758C316.848 298.758 302.314 292.738 291.6 282.024L332 241.624L372.4 201.224Z" fill="#FFE8BB"/>
<path d="M372.4 201.224L332 241.62L291.6 201.22C299.578 193.251 309.734 187.818 320.79 185.603C331.848 183.389 343.312 184.492 353.744 188.774C356.156 189.761 358.494 190.916 360.744 192.23C365.002 194.711 368.92 197.735 372.4 201.224Z" fill="#313553"/>
<path d="M352.858 175.412C354.372 177.664 354.724 181.632 353.75 188.778C348.95 186.804 343.904 185.496 338.75 184.89L338.79 184.49C340.758 179.014 342.712 174.45 345.692 173.112C345.608 173.987 345.826 174.865 346.31 175.599C346.794 176.333 347.514 176.88 348.35 177.148C349.188 177.417 350.092 177.391 350.912 177.074C351.732 176.758 352.42 176.171 352.86 175.41L352.858 175.412Z" fill="white"/>
<path d="M350.248 169.7C351.252 169.891 352.138 170.473 352.712 171.317C353.286 172.161 353.5 173.199 353.31 174.202C353.232 174.629 353.078 175.038 352.858 175.412C351.908 174.092 350.486 173.187 348.888 172.884C347.828 172.585 346.696 172.666 345.688 173.114C345.702 173 345.722 172.878 345.744 172.762C345.838 172.265 346.028 171.791 346.306 171.368C346.584 170.944 346.942 170.58 347.36 170.296C347.778 170.011 348.25 169.812 348.744 169.71C349.24 169.608 349.752 169.604 350.248 169.7Z" fill="#313553"/>
<path d="M352.858 175.412C352.418 176.173 351.73 176.76 350.91 177.076C350.09 177.392 349.186 177.418 348.348 177.15C347.512 176.882 346.792 176.335 346.308 175.601C345.824 174.867 345.606 173.989 345.69 173.114C346.698 172.666 347.83 172.585 348.89 172.884C350.488 173.188 351.908 174.092 352.858 175.412Z" fill="#313553"/>
<path d="M332 241.62L291.6 282.02C286.292 276.716 282.082 270.418 279.208 263.486C276.336 256.554 274.856 249.124 274.856 241.62C274.856 234.116 276.336 226.686 279.208 219.754C282.082 212.822 286.292 206.524 291.6 201.22L332 241.62Z" fill="#55DEFF"/>
<path d="M300.902 146.456C301.4 146.55 301.872 146.741 302.296 147.019C302.718 147.296 303.084 147.654 303.368 148.073C303.652 148.491 303.852 148.961 303.954 149.457C304.056 149.952 304.06 150.463 303.964 150.96C303.888 151.39 303.732 151.803 303.504 152.176C302.814 151.145 301.75 150.423 300.536 150.162C299.834 149.989 299.104 149.959 298.39 150.072C297.678 150.186 296.994 150.442 296.38 150.824C296.284 150.215 296.338 149.592 296.534 149.008C296.73 148.423 297.064 147.895 297.508 147.466C297.95 147.038 298.49 146.723 299.082 146.547C299.672 146.371 300.296 146.34 300.902 146.456Z" fill="#313553"/>
<path d="M303.504 152.176C307.96 158.524 302.904 177.508 303.728 191.976C296.34 196.19 289.984 201.998 285.124 208.978C280.264 215.956 277.02 223.932 275.63 232.322L240.05 225.522L172.916 212.69L178.082 185.654L178.752 182.18C187.088 183.288 194.998 131.874 209.302 125.6C209.262 126.518 209.552 127.42 210.12 128.143C210.686 128.866 211.494 129.362 212.394 129.542C213.296 129.723 214.232 129.575 215.032 129.126C215.834 128.677 216.45 127.956 216.766 127.094C226.866 139.446 204.036 201.71 224.656 205.166C245.656 208.688 246.456 130 261.028 122.632C261.1 123.42 261.414 124.166 261.926 124.769C262.436 125.372 263.122 125.802 263.888 126.002C264.652 126.202 265.46 126.16 266.202 125.884C266.942 125.608 267.58 125.11 268.028 124.458C277.852 136.606 258.228 190.386 271.47 192.53C284.62 194.652 286.27 156.888 296.37 150.83C296.49 151.617 296.85 152.347 297.404 152.919C297.956 153.492 298.672 153.879 299.454 154.028C300.236 154.176 301.044 154.078 301.768 153.748C302.492 153.417 303.094 152.87 303.494 152.182L303.504 152.176Z" fill="white"/>
<path d="M300.536 150.162C301.75 150.423 302.814 151.145 303.504 152.176C303.104 152.864 302.502 153.411 301.778 153.742C301.054 154.072 300.246 154.17 299.464 154.022C298.682 153.873 297.966 153.486 297.414 152.913C296.86 152.341 296.5 151.611 296.38 150.824C296.994 150.442 297.678 150.186 298.392 150.073C299.104 149.959 299.834 149.989 300.536 150.162Z" fill="#313553"/>
<path d="M265.584 118.496C266.588 118.689 267.474 119.272 268.048 120.117C268.622 120.962 268.838 122 268.648 123.004C268.55 123.525 268.342 124.019 268.038 124.452C267.094 123.25 265.742 122.437 264.238 122.166C263.144 121.95 262.01 122.112 261.02 122.626C260.988 122.269 261.006 121.91 261.074 121.558C261.168 121.06 261.36 120.586 261.638 120.163C261.916 119.74 262.274 119.375 262.694 119.091C263.112 118.806 263.584 118.607 264.08 118.505C264.576 118.403 265.086 118.4 265.584 118.496Z" fill="#313553"/>
<path d="M268.038 124.452C267.59 125.104 266.952 125.602 266.212 125.878C265.47 126.154 264.662 126.195 263.898 125.996C263.132 125.796 262.446 125.366 261.936 124.763C261.424 124.16 261.11 123.414 261.038 122.626C262.028 122.112 263.162 121.95 264.256 122.166C265.754 122.441 267.098 123.254 268.038 124.452Z" fill="#313553"/>
<path d="M243.16 87.7742C243.966 87.9272 244.708 88.3162 245.294 88.8916C245.88 89.467 246.28 90.2032 246.448 91.0068C246.614 91.8104 246.538 92.6454 246.23 93.406C245.922 94.1668 245.396 94.819 244.716 95.2802C244.038 95.7414 243.238 95.991 242.418 95.9972C241.596 96.0032 240.792 95.766 240.106 95.315C239.42 94.864 238.884 94.2198 238.564 93.4638C238.246 92.7078 238.158 91.8742 238.312 91.0682C238.522 89.9902 239.148 89.0388 240.056 88.4216C240.966 87.8046 242.08 87.5718 243.16 87.7742Z" fill="#FFE8BB"/>
<path d="M225.818 84.462C226.624 84.6154 227.364 85.0042 227.95 85.5792C228.534 86.1544 228.934 86.8896 229.1 87.6924C229.266 88.495 229.19 89.329 228.882 90.0888C228.576 90.8486 228.048 91.5 227.37 91.9606C226.692 92.4212 225.894 92.6704 225.074 92.6766C224.254 92.6828 223.45 92.4458 222.766 91.9954C222.08 91.5452 221.544 90.9018 221.226 90.1468C220.906 89.3918 220.818 88.559 220.972 87.754C221.178 86.675 221.804 85.7222 222.714 85.1048C223.622 84.4876 224.738 84.2562 225.818 84.462Z" fill="#FFE8BB"/>
<path d="M212.372 263.374L224.696 328.702L214.908 330.548L202.59 265.22L212.372 263.374Z" fill="#55DEFF"/>
<path d="M213.872 121.976C214.876 122.169 215.762 122.752 216.336 123.597C216.91 124.443 217.126 125.482 216.936 126.486C216.896 126.691 216.84 126.891 216.766 127.086C215.894 125.984 214.634 125.256 213.244 125.05C211.906 124.842 210.534 125.03 209.302 125.592C209.31 125.406 209.33 125.221 209.364 125.038C209.556 124.034 210.14 123.148 210.984 122.574C211.83 122 212.868 121.785 213.872 121.976Z" fill="#313553"/>
<path d="M213.244 125.052C214.634 125.258 215.894 125.986 216.766 127.088C216.45 127.95 215.834 128.671 215.032 129.12C214.232 129.569 213.296 129.717 212.394 129.536C211.494 129.356 210.686 128.86 210.12 128.137C209.552 127.414 209.262 126.512 209.302 125.594C210.534 125.032 211.906 124.844 213.244 125.052Z" fill="#313553"/>
<path d="M205.692 227.96L195.907 229.806L202.592 265.238L212.376 263.392L205.692 227.96Z" fill="#FFE8BB"/>
<path d="M208.484 81.15C209.29 81.3034 210.03 81.6922 210.616 82.2672C211.2 82.8422 211.6 83.5776 211.766 84.3804C211.932 85.183 211.856 86.017 211.548 86.7768C211.242 87.5364 210.714 88.1878 210.036 88.6486C209.358 89.1092 208.56 89.3584 207.74 89.3646C206.92 89.3708 206.116 89.1336 205.432 88.6834C204.746 88.233 204.21 87.5898 203.892 86.8348C203.572 86.0798 203.484 85.247 203.638 84.442C203.846 83.3638 204.472 82.4118 205.38 81.7948C206.29 81.1778 207.406 80.9458 208.484 81.15Z" fill="#FFE8BB"/>
<path d="M191.834 306.522L197.004 333.922V333.928L187.222 335.768L182.05 308.366L191.834 306.522Z" fill="#55DEFF"/>
<path d="M178.007 233.178L168.222 235.024L182.061 308.376L191.846 306.53L178.007 233.178Z" fill="#FFE8BB"/>
<path d="M160.018 289.85L169.314 339.148L159.53 340.994L150.228 291.696L160.01 289.85H160.018Z" fill="#55DEFF"/>
<path d="M150.31 238.388L160.018 289.85H160.01L150.228 291.696L140.52 240.234L150.31 238.388Z" fill="#FFE8BB"/>
<path d="M147.152 79.9739C150.119 91.2187 149.275 103.13 144.752 113.844C136.964 131.947 134.905 152 138.85 171.308L139.06 172.324C139.591 174.838 139.141 177.46 137.803 179.653C136.464 181.847 134.338 183.446 131.86 184.124L130.202 184.556L130.182 184.482L110.28 108.524C108.834 116.284 104.452 116.244 100.74 113.512C103.162 108.036 102.668 99.1799 97.63 100.498C92.256 101.898 95.928 109.97 100.74 113.512C98.854 117.786 95.19 120.002 90.54 113.696L110.438 189.664L110.458 189.732L109.174 190.07C108.371 190.269 107.547 190.371 106.72 190.374C104.577 190.369 102.491 189.682 100.765 188.412C99.0388 187.141 97.7622 185.355 97.12 183.31C91.1052 164.205 79.3826 147.402 63.53 135.16C56.8888 130.004 51.572 123.34 48.0204 115.719C44.4688 108.098 42.7846 99.7411 43.1074 91.3397C43.4302 82.9383 45.7508 74.7346 49.8766 67.409C54.0026 60.0835 59.815 53.8467 66.8322 49.2157C73.8496 44.5847 81.8694 41.6927 90.2274 40.7797C98.5852 39.8667 107.04 40.9589 114.892 43.9657C122.744 46.9725 129.766 51.8073 135.376 58.0693C140.986 64.3313 145.023 71.8403 147.152 79.9739Z" fill="#FFE8BB"/>
<path d="M142.048 197.27C142.219 197.914 142.262 198.585 142.172 199.245C142.083 199.905 141.864 200.54 141.528 201.116C141.192 201.69 140.745 202.194 140.214 202.596C139.682 202.996 139.077 203.29 138.432 203.456L113.288 210.04C112.644 210.208 111.973 210.248 111.313 210.158C110.654 210.066 110.019 209.846 109.444 209.51C108.87 209.174 108.367 208.726 107.965 208.196C107.563 207.666 107.27 207.06 107.102 206.416C106.991 205.998 106.934 205.566 106.934 205.132C106.936 204.012 107.308 202.924 107.993 202.036C108.678 201.15 109.636 200.514 110.72 200.23L135.862 193.646C136.961 193.359 138.125 193.447 139.168 193.896C139.873 194.202 140.499 194.665 140.998 195.25C141.497 195.835 141.856 196.526 142.048 197.27Z" fill="#55DEFF"/>
<path d="M139.55 333.376L129.764 335.22L131.84 346.228L141.625 344.384L139.55 333.376Z" fill="#55DEFF"/>
<path d="M139.554 203.246C139.772 204.088 139.883 204.952 139.884 205.822C139.881 208.062 139.136 210.238 137.767 212.012C136.397 213.784 134.479 215.054 132.312 215.622L123.828 217.84C122.54 218.178 121.198 218.26 119.878 218.08C118.558 217.898 117.287 217.46 116.138 216.788C114.988 216.114 113.982 215.222 113.178 214.16C112.373 213.098 111.786 211.888 111.45 210.6L139.554 203.246Z" fill="#55DEFF"/>
<path d="M122.618 243.614L139.546 333.368L129.764 335.214L112.828 245.46L122.618 243.614Z" fill="#FFE8BB"/>
<path d="M139.466 187.378C139.573 187.798 139.627 188.23 139.628 188.664C139.628 189.786 139.257 190.876 138.572 191.764C137.887 192.652 136.927 193.288 135.842 193.572L110.7 200.156C109.934 200.358 109.131 200.378 108.357 200.21C107.582 200.044 106.858 199.696 106.244 199.196C105.655 198.719 105.179 198.116 104.851 197.432C104.524 196.749 104.353 196 104.35 195.242C104.352 194.122 104.724 193.033 105.409 192.147C106.093 191.26 107.052 190.625 108.136 190.34L109.178 190.07L110.462 189.732L130.202 184.566L131.86 184.134L133.278 183.762C134.578 183.423 135.96 183.613 137.12 184.291C138.28 184.968 139.123 186.079 139.466 187.378Z" fill="#55DEFF"/>
<path d="M130.176 184.492L130.196 184.566L110.456 189.732L110.436 189.664L90.538 113.696C95.19 120.002 98.854 117.786 100.738 113.512C104.45 116.244 108.832 116.284 110.278 108.524L130.176 184.492Z" fill="#FFE8BB"/>
<path d="M97.63 100.498C102.668 99.18 103.162 108.036 100.74 113.512C95.928 109.97 92.256 101.904 97.63 100.498Z" fill="#FFE8BB"/>
<path d="M87.97 275.354C89.186 281.808 87.7888 288.482 84.0856 293.908C80.3824 299.332 74.6764 303.064 68.222 304.284L66.938 297.462C70.261 296.836 73.3376 295.278 75.8084 292.968C78.279 290.66 80.0422 287.696 80.892 284.422C81.742 281.15 81.6434 277.702 80.6078 274.484C79.5724 271.264 77.6426 268.406 75.044 266.242L79.708 261.11C84.0144 264.77 86.9314 269.798 87.97 275.354Z" fill="#55DEFF"/>
<path d="M79.708 261.11L75.044 266.242C72.0924 263.776 68.4222 262.332 64.5816 262.124C60.741 261.916 56.9364 262.956 53.736 265.09C50.5356 267.222 48.1112 270.334 46.825 273.958C45.5388 277.584 45.4598 281.526 46.6 285.2L46.49 285.234L39.758 286.506C39.574 285.856 39.426 285.2 39.298 284.532C38.3462 279.496 38.981 274.288 41.115 269.626C43.2488 264.966 46.7766 261.082 51.2114 258.512C55.6464 255.94 60.7696 254.81 65.8746 255.274C70.9794 255.74 75.8142 257.776 79.712 261.106L79.708 261.11Z" fill="#FFE8BB"/>
<path d="M73.59 345.814L75.666 356.814L57.122 360.316L55.046 349.308L73.59 345.814Z" fill="#313553"/>
<path d="M70.5 329.412L72.576 340.412L54.024 343.914L51.95 332.908L70.5 329.412Z" fill="#313553"/>
<path d="M69.656 217.464C69.836 218.428 69.7266 219.424 69.3412 220.324C68.9558 221.226 68.3118 221.994 67.4908 222.53C66.6696 223.064 65.7082 223.346 64.7278 223.334C63.7474 223.324 62.7922 223.024 61.9826 222.47C61.173 221.918 60.5456 221.138 60.1794 220.228C59.8132 219.318 59.7246 218.32 59.9252 217.36C60.1256 216.402 60.606 215.522 61.3056 214.836C62.0052 214.148 62.8928 213.684 63.856 213.502C64.497 213.38 65.1556 213.388 65.794 213.522C66.4326 213.654 67.0386 213.912 67.5772 214.28C68.1158 214.648 68.5766 215.12 68.9334 215.666C69.29 216.212 69.5356 216.822 69.656 217.464Z" fill="#FFE8BB"/>
<path d="M67.404 313.012L69.48 324.01L50.928 327.512L48.854 316.506L67.404 313.012Z" fill="#313553"/>
<path d="M66.938 297.462L68.222 304.284C62.112 305.436 55.7924 304.248 50.5184 300.954C45.2442 297.662 41.4018 292.506 39.754 286.51L46.486 285.238L46.596 285.204C47.8896 289.388 50.6782 292.95 54.4298 295.212C58.1814 297.472 62.6338 298.274 66.938 297.462Z" fill="#313553"/>
<path d="M48.886 221.378C49.0676 222.342 48.9596 223.338 48.5754 224.24C48.1912 225.142 47.5482 225.91 46.7274 226.448C45.9068 226.984 44.9454 227.266 43.9648 227.256C42.9842 227.248 42.0282 226.948 41.218 226.396C40.4076 225.842 39.7792 225.062 39.4122 224.154C39.0452 223.244 38.956 222.246 39.156 221.286C39.356 220.326 39.836 219.446 40.5354 218.758C41.235 218.072 42.1226 217.608 43.086 217.424C43.7264 217.302 44.3846 217.308 45.0228 217.442C45.661 217.574 46.2666 217.832 46.8052 218.2C47.3438 218.566 47.8048 219.036 48.162 219.582C48.519 220.128 48.765 220.738 48.886 221.378Z" fill="#FFE8BB"/>
<path d="M28.118 225.3C28.2982 226.264 28.1886 227.26 27.8032 228.16C27.4178 229.062 26.7738 229.83 25.9528 230.366C25.1318 230.9 24.1702 231.182 23.1898 231.17C22.2096 231.16 21.2542 230.86 20.4446 230.306C19.6351 229.754 19.0076 228.974 18.6414 228.064C18.2752 227.154 18.1867 226.156 18.3872 225.196C18.5877 224.238 19.068 223.358 19.7677 222.672C20.4672 221.984 21.3548 221.52 22.318 221.338C22.959 221.216 23.6178 221.222 24.2566 221.356C24.8952 221.49 25.5014 221.748 26.0402 222.116C26.579 222.484 27.0398 222.954 27.3964 223.5C27.753 224.048 27.9982 224.658 28.118 225.3Z" fill="#FFE8BB"/>
<path d="M131.854 184.134C134.332 183.456 136.458 181.857 137.796 179.663C139.135 177.47 139.585 174.848 139.054 172.334L138.844 171.318C134.899 152.01 136.958 131.957 144.746 113.854C148.568 104.752 149.767 94.7616 148.208 85.0132C146.648 75.265 142.391 66.1476 135.92 58.6926C129.448 51.2374 121.019 45.7418 111.587 42.8274C102.155 39.913 92.0952 39.6962 82.546 42.2012C72.997 44.7064 64.3392 49.8334 57.5522 57.0028C50.7654 64.172 46.1198 73.0974 44.1414 82.7694C42.1628 92.4414 42.93 102.474 46.3566 111.733C49.783 120.991 55.7316 129.106 63.53 135.16C79.379 147.403 91.0978 164.207 97.11 183.31C97.752 185.355 99.0288 187.142 100.755 188.412C102.481 189.682 104.567 190.369 106.71 190.374C107.537 190.372 108.361 190.27 109.164 190.07" stroke="#313553" stroke-width="0.676" stroke-linecap="round" stroke-linejoin="round"/>
<path d="M106.238 199.2C105.649 198.723 105.173 198.12 104.845 197.436C104.518 196.753 104.347 196.004 104.344 195.246C104.346 194.126 104.718 193.037 105.403 192.151C106.087 191.264 107.046 190.629 108.13 190.344L109.172 190.074L110.456 189.736L130.196 184.57L131.854 184.138L133.272 183.766C133.917 183.596 134.588 183.555 135.249 183.645C135.909 183.735 136.545 183.954 137.121 184.289C137.697 184.625 138.201 185.071 138.604 185.602C139.008 186.132 139.302 186.737 139.472 187.382C139.579 187.802 139.633 188.234 139.634 188.668C139.634 189.79 139.263 190.88 138.578 191.768C137.893 192.656 136.933 193.292 135.848 193.576L110.7 200.156C109.934 200.358 109.131 200.378 108.357 200.21C107.582 200.044 106.858 199.696 106.244 199.196" stroke="#313553" stroke-width="0.676" stroke-linecap="round" stroke-linejoin="round"/>
<path d="M110.28 108.524L130.176 184.492" stroke="#313553" stroke-width="0.676" stroke-linecap="round" stroke-linejoin="round"/>
<path d="M100.74 113.512C104.452 116.244 108.834 116.284 110.28 108.524" stroke="#313553" stroke-width="0.676" stroke-linecap="round" stroke-linejoin="round"/>
<path d="M100.74 113.512C103.162 108.036 102.668 99.18 97.63 100.498C92.256 101.904 95.928 109.97 100.74 113.512Z" stroke="#313553" stroke-width="0.676" stroke-linecap="round" stroke-linejoin="round"/>
<path d="M110.436 189.664L90.538 113.696C95.19 120.002 98.854 117.786 100.738 113.512" stroke="#313553" stroke-width="0.676" stroke-linecap="round" stroke-linejoin="round"/>
<path d="M139.168 193.896C140.135 194.317 140.947 195.029 141.491 195.932C142.034 196.836 142.283 197.886 142.202 198.938C142.121 199.989 141.715 200.99 141.039 201.8C140.363 202.61 139.452 203.188 138.432 203.456L113.288 210.04C112.644 210.208 111.973 210.248 111.313 210.158C110.654 210.066 110.019 209.846 109.444 209.51C108.87 209.174 108.367 208.726 107.965 208.196C107.563 207.666 107.27 207.06 107.102 206.416C106.991 205.998 106.934 205.566 106.934 205.132C106.936 204.012 107.308 202.924 107.993 202.036C108.678 201.15 109.636 200.514 110.72 200.23L135.862 193.646C136.961 193.359 138.125 193.447 139.168 193.896Z" stroke="#313553" stroke-width="0.676" stroke-linecap="round" stroke-linejoin="round"/>
<path d="M132.312 215.624L123.828 217.842C122.54 218.18 121.198 218.262 119.878 218.082C118.558 217.9 117.287 217.462 116.138 216.79C114.988 216.116 113.982 215.224 113.178 214.162C112.373 213.1 111.786 211.89 111.45 210.602L139.554 203.246C139.772 204.088 139.883 204.952 139.884 205.822C139.881 208.062 139.137 210.24 137.767 212.012C136.398 213.786 134.479 215.056 132.312 215.624Z" stroke="#313553" stroke-width="0.676" stroke-linecap="round" stroke-linejoin="round"/>
<path d="M360.74 192.24C373.406 199.633 382.704 211.656 386.676 225.772C390.648 239.89 388.984 254.996 382.032 267.91C375.082 280.822 363.386 290.532 349.416 294.988C335.444 299.446 320.288 298.304 307.142 291.802C293.998 285.302 283.89 273.95 278.954 260.14C274.016 246.332 274.634 231.144 280.678 217.782C286.722 204.422 297.718 193.928 311.348 188.517C324.978 183.106 340.178 183.2 353.74 188.778C356.152 189.765 358.49 190.92 360.74 192.234" stroke="#313553" stroke-width="0.676" stroke-linecap="round" stroke-linejoin="round"/>
<path d="M138.878 193.044L139.006 193.018L178.082 185.648" stroke="#313553" stroke-width="0.676" stroke-linecap="round" stroke-linejoin="round"/>
<path d="M240.05 225.516L261.96 341.69L40.43 383.484L9.12799 217.518L106.238 199.196H106.244" stroke="#313553" stroke-width="0.676" stroke-linecap="round" stroke-linejoin="round"/>
<path d="M36.982 237.874L168.738 213.016" stroke="#313553" stroke-width="0.676" stroke-linecap="round" stroke-linejoin="round"/>
<path d="M28.118 225.3C28.2982 226.264 28.1886 227.26 27.8032 228.16C27.4178 229.062 26.7738 229.83 25.9528 230.366C25.1318 230.9 24.1702 231.182 23.1898 231.17C22.2096 231.16 21.2542 230.86 20.4446 230.306C19.6351 229.754 19.0076 228.974 18.6414 228.064C18.2752 227.154 18.1867 226.156 18.3872 225.196C18.5877 224.238 19.068 223.358 19.7677 222.672C20.4672 221.984 21.3548 221.52 22.318 221.338C22.959 221.216 23.6178 221.222 24.2566 221.356C24.8952 221.49 25.5014 221.748 26.0402 222.116C26.579 222.484 27.0398 222.954 27.3964 223.5C27.753 224.048 27.9982 224.658 28.118 225.3Z" stroke="#313553" stroke-width="0.676" stroke-linecap="round" stroke-linejoin="round"/>
<path d="M48.886 221.378C49.0676 222.342 48.9596 223.338 48.5754 224.24C48.1912 225.142 47.5482 225.91 46.7274 226.448C45.9068 226.984 44.9454 227.266 43.9648 227.256C42.9842 227.248 42.0282 226.948 41.218 226.396C40.4076 225.842 39.7792 225.062 39.4122 224.154C39.0452 223.244 38.956 222.246 39.156 221.286C39.356 220.326 39.836 219.446 40.5354 218.758C41.235 218.072 42.1226 217.608 43.086 217.424C43.7264 217.302 44.3846 217.308 45.0228 217.442C45.661 217.574 46.2666 217.832 46.8052 218.2C47.3438 218.566 47.8048 219.036 48.162 219.582C48.519 220.128 48.765 220.738 48.886 221.378Z" stroke="#313553" stroke-width="0.676" stroke-linecap="round" stroke-linejoin="round"/>
<path d="M69.656 217.464C69.836 218.428 69.7266 219.424 69.3412 220.324C68.9558 221.226 68.3118 221.994 67.4908 222.53C66.6696 223.064 65.7082 223.346 64.7278 223.334C63.7474 223.324 62.7922 223.024 61.9826 222.47C61.173 221.918 60.5456 221.138 60.1794 220.228C59.8132 219.318 59.7246 218.32 59.9252 217.36C60.1256 216.402 60.606 215.522 61.3056 214.836C62.0052 214.148 62.8928 213.684 63.856 213.502C64.497 213.38 65.1556 213.388 65.794 213.522C66.4326 213.654 67.0386 213.912 67.5772 214.28C68.1158 214.648 68.5766 215.12 68.9334 215.666C69.29 216.212 69.5356 216.822 69.656 217.464Z" stroke="#313553" stroke-width="0.676" stroke-linecap="round" stroke-linejoin="round"/>
<path d="M275.63 232.316L240.05 225.516L172.916 212.684L178.082 185.648L178.752 182.174L199.398 74.138L376.83 108.056L360.74 192.234V192.24" stroke="#313553" stroke-width="0.676" stroke-linecap="round" stroke-linejoin="round"/>
<path d="M215.428 96.908L356.596 123.89" stroke="#313553" stroke-width="0.676" stroke-linecap="round" stroke-linejoin="round"/>
<path d="M211.776 86C211.622 86.8046 211.234 87.5456 210.658 88.1292C210.084 88.7128 209.348 89.1128 208.546 89.2788C207.744 89.4446 206.91 89.369 206.152 89.0612C205.392 88.7536 204.742 88.2276 204.282 87.55C203.822 86.8724 203.572 86.0736 203.566 85.2544C203.56 84.4354 203.796 83.6326 204.246 82.948C204.696 82.2634 205.338 81.7276 206.092 81.4082C206.848 81.089 207.68 81.0004 208.484 81.154C209.018 81.256 209.528 81.4622 209.982 81.761C210.436 82.0596 210.828 82.445 211.134 82.895C211.44 83.345 211.654 83.8508 211.764 84.3836C211.874 84.9164 211.878 85.4656 211.776 86Z" stroke="#313553" stroke-width="0.676" stroke-linecap="round" stroke-linejoin="round"/>
<path d="M229.112 89.31C228.958 90.115 228.57 90.8564 227.994 91.4404C227.42 92.0244 226.684 92.4246 225.882 92.5908C225.078 92.7568 224.244 92.6812 223.486 92.3734C222.726 92.0656 222.074 91.5396 221.614 90.8616C221.154 90.1838 220.904 89.3844 220.898 88.565C220.892 87.7454 221.128 86.9424 221.578 86.2574C222.028 85.5724 222.672 85.0362 223.426 84.7166C224.18 84.3972 225.012 84.3086 225.818 84.462C226.354 84.5634 226.862 84.7692 227.318 85.0678C227.774 85.3664 228.166 85.752 228.472 86.2024C228.778 86.6528 228.992 87.159 229.102 87.6924C229.212 88.2256 229.214 88.7754 229.112 89.31Z" stroke="#313553" stroke-width="0.676" stroke-linecap="round" stroke-linejoin="round"/>
<path d="M246.452 92.63C246.296 93.4342 245.906 94.1746 245.33 94.7574C244.754 95.34 244.02 95.739 243.216 95.9038C242.414 96.0686 241.58 95.9918 240.822 95.6832C240.064 95.3746 239.412 94.8478 238.954 94.1698C238.494 93.4916 238.244 92.6926 238.24 91.8734C238.234 91.0542 238.47 90.2516 238.92 89.5672C239.372 88.8828 240.014 88.347 240.768 88.0278C241.524 87.7088 242.356 87.6204 243.16 87.774C244.24 87.9822 245.194 88.6106 245.81 89.521C246.428 90.4314 246.658 91.5496 246.452 92.63Z" stroke="#313553" stroke-width="0.676" stroke-linecap="round" stroke-linejoin="round"/>
<path d="M352.858 175.412C354.372 177.664 354.724 181.632 353.75 188.778" stroke="#313553" stroke-width="0.676" stroke-linecap="round" stroke-linejoin="round"/>
<path d="M338.788 184.492C340.756 179.016 342.71 174.452 345.69 173.114" stroke="#313553" stroke-width="0.676" stroke-linecap="round" stroke-linejoin="round"/>
<path d="M303.504 152.176C307.96 158.524 302.904 177.508 303.728 191.976" stroke="#313553" stroke-width="0.676" stroke-linecap="round" stroke-linejoin="round"/>
<path d="M268.038 124.452C277.862 136.6 258.238 190.38 271.48 192.524C284.63 194.646 286.28 156.882 296.38 150.824" stroke="#313553" stroke-width="0.676" stroke-linecap="round" stroke-linejoin="round"/>
<path d="M216.766 127.088C226.866 139.44 204.036 201.704 224.656 205.16C245.656 208.682 246.456 129.994 261.028 122.626" stroke="#313553" stroke-width="0.676" stroke-linecap="round" stroke-linejoin="round"/>
<path d="M178.752 182.174C187.088 183.282 194.998 131.868 209.302 125.594" stroke="#313553" stroke-width="0.676" stroke-linecap="round" stroke-linejoin="round"/>
<path d="M79.708 261.11C82.655 263.626 84.9708 266.796 86.4694 270.37C87.9678 273.942 88.607 277.816 88.3358 281.682C88.0644 285.546 86.89 289.294 84.907 292.622C82.924 295.95 80.1878 298.766 76.9182 300.846C73.6488 302.924 69.937 304.206 66.0818 304.59C62.2264 304.972 58.335 304.446 54.7202 303.052C51.1056 301.658 47.8684 299.434 45.269 296.562C42.6698 293.688 40.7808 290.246 39.754 286.51C39.57 285.86 39.422 285.204 39.294 284.536C38.3422 279.5 38.977 274.292 41.111 269.63C43.2448 264.97 46.7726 261.086 51.2074 258.516C55.6424 255.944 60.7656 254.814 65.8706 255.278C70.9754 255.744 75.8104 257.78 79.708 261.11Z" stroke="#313553" stroke-width="0.676" stroke-linecap="round" stroke-linejoin="round"/>
<path d="M75.044 266.242C78.1586 268.836 80.2968 272.412 81.1066 276.384C81.9164 280.354 81.3494 284.484 79.4988 288.09C77.6484 291.696 74.6248 294.564 70.9262 296.222C67.2278 297.878 63.075 298.228 59.152 297.208C55.229 296.19 51.7698 293.866 49.3442 290.62C46.9188 287.372 45.6716 283.396 45.8084 279.346C45.945 275.294 47.4574 271.412 50.0964 268.336C52.7352 265.258 56.3432 263.174 60.326 262.422C62.909 261.928 65.5698 262.014 68.1154 262.674C70.661 263.334 73.0276 264.554 75.044 266.242Z" stroke="#313553" stroke-width="0.676" stroke-linecap="round" stroke-linejoin="round"/>
<path d="M66.938 297.462L68.222 304.284" stroke="#313553" stroke-width="0.676" stroke-linecap="round" stroke-linejoin="round"/>
<path d="M75.044 266.242L79.708 261.11" stroke="#313553" stroke-width="0.676" stroke-linecap="round" stroke-linejoin="round"/>
<path d="M46.486 285.238L39.754 286.51L39.672 286.524" stroke="#313553" stroke-width="0.676" stroke-linecap="round" stroke-linejoin="round"/>
<path d="M224.696 328.702L245.106 324.85L226.508 226.252" stroke="#313553" stroke-width="0.676" stroke-linecap="round" stroke-linejoin="round"/>
<path d="M197.004 333.922L214.908 330.548" stroke="#313553" stroke-width="0.676" stroke-linecap="round" stroke-linejoin="round"/>
<path d="M187.222 335.768L197.004 333.928" stroke="#313553" stroke-width="0.676" stroke-linecap="round" stroke-linejoin="round"/>
<path d="M169.314 339.148L187.222 335.774" stroke="#313553" stroke-width="0.676" stroke-linecap="round" stroke-linejoin="round"/>
<path d="M141.622 344.374L159.53 340.994" stroke="#313553" stroke-width="0.676" stroke-linecap="round" stroke-linejoin="round"/>
<path d="M113.316 349.714L131.84 346.22" stroke="#313553" stroke-width="0.676" stroke-linecap="round" stroke-linejoin="round"/>
<path d="M69.48 324.01L50.928 327.512L48.854 316.506L67.404 313.012L69.48 324.01Z" stroke="#313553" stroke-width="0.676" stroke-linecap="round" stroke-linejoin="round"/>
<path d="M72.576 340.412L54.024 343.914L51.95 332.908L70.5 329.412L72.576 340.412Z" stroke="#313553" stroke-width="0.676" stroke-linecap="round" stroke-linejoin="round"/>
<path d="M75.666 356.814L57.122 360.316L55.046 349.308L73.59 345.814L75.666 356.814Z" stroke="#313553" stroke-width="0.676" stroke-linecap="round" stroke-linejoin="round"/>
<path d="M141.622 344.374L131.84 346.22L129.764 335.214L112.828 245.46L122.618 243.614L139.546 333.368L141.622 344.374Z" stroke="#313553" stroke-width="0.676" stroke-linecap="round" stroke-linejoin="round"/>
<path d="M169.314 339.148L159.53 340.994L150.228 291.696L140.52 240.234L150.31 238.388L160.018 289.85L169.314 339.148Z" stroke="#313553" stroke-width="0.676" stroke-linecap="round" stroke-linejoin="round"/>
<path d="M197.004 333.928L187.222 335.774V335.768L182.05 308.366L168.212 235.014L177.994 233.168L191.834 306.522L197.004 333.922V333.928Z" stroke="#313553" stroke-width="0.676" stroke-linecap="round" stroke-linejoin="round"/>
<path d="M224.696 328.702L214.908 330.548L202.59 265.22L195.902 229.788L205.686 227.942L212.372 263.374L224.696 328.702Z" stroke="#313553" stroke-width="0.676" stroke-linecap="round" stroke-linejoin="round"/>
<path d="M129.764 335.214L139.546 333.368" stroke="#313553" stroke-width="0.676" stroke-linecap="round" stroke-linejoin="round"/>
<path d="M150.228 291.696L160.01 289.85" stroke="#313553" stroke-width="0.676" stroke-linecap="round" stroke-linejoin="round"/>
<path d="M182.05 308.366L191.834 306.522" stroke="#313553" stroke-width="0.676" stroke-linecap="round" stroke-linejoin="round"/>
<path d="M202.59 265.22L212.372 263.374" stroke="#313553" stroke-width="0.676" stroke-linecap="round" stroke-linejoin="round"/>
<path d="M372.396 201.224L332 241.62L291.606 282.014" stroke="#313553" stroke-width="0.676" stroke-linecap="round" stroke-linejoin="round"/>
<path d="M291.606 201.224L332 241.62" stroke="#313553" stroke-width="0.676" stroke-linecap="round" stroke-linejoin="round"/>
<path d="M79.248 33.38L74.36 15.26" stroke="#313553" stroke-width="0.676" stroke-linecap="round" stroke-linejoin="round"/>
<path d="M100.43 33.38L102.404 17.134" stroke="#313553" stroke-width="0.676" stroke-linecap="round" stroke-linejoin="round"/>
<path d="M60.548 45.8458L49.786 33.3798" stroke="#313553" stroke-width="0.676" stroke-linecap="round" stroke-linejoin="round"/>
</svg>
