<svg width="400" height="400" viewBox="0 0 400 400" fill="none" xmlns="http://www.w3.org/2000/svg">
<path d="M286.44 40H80.524C71.7428 40 64.624 47.1188 64.624 55.9V344.1C64.624 352.881 71.7428 360 80.524 360H286.44C295.221 360 302.34 352.881 302.34 344.1V55.9C302.34 47.1188 295.221 40 286.44 40Z" stroke="#020064" stroke-width="4" stroke-linecap="round" stroke-linejoin="round"/>
<path d="M335.376 293.28C335.376 295.037 334.678 296.722 333.436 297.965C332.194 299.208 330.509 299.907 328.752 299.908H302.352V255.24H335.388L335.376 293.28Z" stroke="#020064" stroke-width="4" stroke-linecap="round" stroke-linejoin="round"/>
<path d="M335.376 121.276H302.34V165.944H335.376V121.276Z" stroke="#020064" stroke-width="4" stroke-linecap="round" stroke-linejoin="round"/>
<path d="M335.376 165.932H302.34V210.6H335.376V165.932Z" stroke="#020064" stroke-width="4" stroke-linecap="round" stroke-linejoin="round"/>
<path d="M335.376 210.584H302.34V255.252H335.376V210.584Z" stroke="#020064" stroke-width="4" stroke-linecap="round" stroke-linejoin="round"/>
<path d="M335.376 121.292H302.34V76.624H328.74C330.496 76.6252 332.181 77.3232 333.423 78.5652C334.665 79.8072 335.363 81.4916 335.364 83.248L335.376 121.292Z" stroke="#020064" stroke-width="4" stroke-linecap="round" stroke-linejoin="round"/>
<path d="M254.44 204.572H158.24C149.459 204.572 142.34 211.691 142.34 220.472V289.244C142.34 298.025 149.459 305.144 158.24 305.144H254.44C263.222 305.144 270.34 298.025 270.34 289.244V220.472C270.34 211.691 263.222 204.572 254.44 204.572Z" stroke="#020064" stroke-width="4" stroke-linecap="round" stroke-linejoin="round"/>
<path d="M165.196 232H247.48" stroke="#020064" stroke-width="4" stroke-linecap="round" stroke-linejoin="round"/>
<path d="M165.196 254.856H247.48" stroke="#020064" stroke-width="4" stroke-linecap="round" stroke-linejoin="round"/>
<path d="M165.196 277.716H247.48" stroke="#020064" stroke-width="4" stroke-linecap="round" stroke-linejoin="round"/>
<path d="M110.34 360H80.524C76.3072 360 72.2628 358.325 69.2812 355.343C66.2992 352.361 64.624 348.317 64.624 344.1V55.9C64.624 53.812 65.0352 51.7444 65.8344 49.8152C66.6332 47.8864 67.8044 46.1336 69.2812 44.6572C70.7576 43.1804 72.5104 42.0092 74.4392 41.2104C76.3684 40.4112 78.436 40 80.524 40H110.34V360Z" stroke="#020064" stroke-width="4" stroke-linecap="round" stroke-linejoin="round"/>
<path d="M224.712 118.014L219.278 139.53C214.566 152.847 224.183 155.134 229.784 149.803C250.752 129.85 238.245 106.874 219.283 100.536C200.321 94.1988 179.947 104.026 173.778 122.486C167.608 140.945 177.979 161.047 196.941 167.385C210.776 172.008 225.362 168.028 234.634 158.368" stroke="#020064" stroke-width="4" stroke-linecap="round"/>
<path d="M199.12 152.212C206.948 154.828 216.025 148.777 219.393 138.697C222.762 128.617 219.148 118.324 211.32 115.708C203.492 113.092 194.415 119.143 191.047 129.223C187.678 139.303 191.292 149.596 199.12 152.212Z" stroke="#020064" stroke-width="4"/>
</svg>
