<svg width="400" height="400" viewBox="0 0 400 400" fill="none" xmlns="http://www.w3.org/2000/svg">
<path d="M40 200C40 242.435 56.8571 283.131 86.8629 313.137C116.869 343.143 157.565 360 200 360C242.435 360 283.131 343.143 313.137 313.137C343.143 283.131 360 242.435 360 200C360 157.565 343.143 116.869 313.137 86.8629C283.131 56.8571 242.435 40 200 40C157.565 40 116.869 56.8571 86.8629 86.8629C56.8571 116.869 40 157.565 40 200Z" fill="#E8F4FA" stroke="#DAEDF7" stroke-width="4"/>
<path d="M120.028 95.052H278.26V308.056H120.028V95.052Z" fill="#F7E5C6"/>
<path d="M266.084 95.052H132.2C130.602 95.0515 129.019 95.3658 127.542 95.9771C126.066 96.5884 124.724 97.4846 123.593 98.6145C122.463 99.7445 121.566 101.086 120.955 102.563C120.343 104.039 120.028 105.622 120.028 107.22V125.48C120.027 123.881 120.342 122.298 120.953 120.821C121.565 119.344 122.462 118.002 123.592 116.872C124.722 115.742 126.064 114.845 127.541 114.233C129.018 113.622 130.601 113.307 132.2 113.308H266.084C267.683 113.307 269.266 113.622 270.743 114.233C272.22 114.845 273.562 115.742 274.692 116.872C275.822 118.002 276.719 119.344 277.331 120.821C277.942 122.298 278.257 123.881 278.256 125.48V107.22C278.256 105.622 277.941 104.039 277.329 102.563C276.718 101.086 275.821 99.7445 274.691 98.6145C273.56 97.4846 272.218 96.5884 270.742 95.9771C269.265 95.3658 267.682 95.0515 266.084 95.052Z" fill="#FFF5E3"/>
<path d="M150.456 95.052H132.2C130.602 95.0515 129.019 95.3658 127.542 95.9771C126.066 96.5884 124.724 97.4846 123.593 98.6145C122.463 99.7445 121.566 101.086 120.955 102.563C120.343 104.039 120.028 105.622 120.028 107.22V295.88C120.027 297.479 120.342 299.062 120.953 300.539C121.565 302.016 122.462 303.358 123.592 304.488C124.722 305.618 126.064 306.515 127.541 307.127C129.018 307.738 130.601 308.053 132.2 308.052H150.456V95.052Z" fill="#915E3A"/>
<path d="M132.2 113.308H150.456V95.052H132.2C130.602 95.0515 129.019 95.3658 127.542 95.9771C126.066 96.5884 124.724 97.4846 123.593 98.6145C122.463 99.7445 121.566 101.086 120.955 102.563C120.343 104.039 120.028 105.622 120.028 107.22V125.48C120.027 123.881 120.342 122.298 120.953 120.821C121.565 119.344 122.462 118.002 123.592 116.872C124.722 115.742 126.064 114.845 127.541 114.233C129.018 113.622 130.601 113.307 132.2 113.308Z" fill="#BF8256"/>
<path d="M120.028 95.052H278.26V308.056H120.028V95.052Z" stroke="#45413C" stroke-width="4"/>
<path opacity="0.15" d="M276.904 313.332C276.904 317.532 242.104 320.932 199.144 320.932C156.184 320.932 121.38 317.524 121.38 313.332C121.38 309.14 156.18 305.732 199.144 305.732C242.108 305.732 276.904 309.128 276.904 313.332Z" fill="#45413C"/>
<path d="M150.456 95.052H132.2C130.602 95.0515 129.019 95.3658 127.542 95.9771C126.066 96.5884 124.724 97.4846 123.593 98.6145C122.463 99.7445 121.566 101.086 120.955 102.563C120.343 104.039 120.028 105.622 120.028 107.22V295.88C120.027 297.479 120.342 299.062 120.953 300.539C121.565 302.016 122.462 303.358 123.592 304.488C124.722 305.618 126.064 306.515 127.541 307.127C129.018 307.738 130.601 308.053 132.2 308.052H150.456V95.052Z" stroke="#45413C" stroke-width="4"/>
<path d="M296.248 268.052H278.248V238.32H296.248C297.309 238.32 298.326 238.741 299.076 239.492C299.827 240.242 300.248 241.259 300.248 242.32V264.052C300.248 265.113 299.827 266.13 299.076 266.88C298.326 267.631 297.309 268.052 296.248 268.052Z" fill="#00DFEB" stroke="#45413C" stroke-width="4" stroke-linejoin="round"/>
<path d="M296.248 238.332H278.248V208.596H296.248C297.309 208.596 298.326 209.017 299.076 209.768C299.827 210.518 300.248 211.535 300.248 212.596V234.332C300.248 235.393 299.827 236.41 299.076 237.16C298.326 237.911 297.309 238.332 296.248 238.332Z" fill="#6DD627" stroke="#45413C" stroke-width="4" stroke-linejoin="round"/>
<path d="M296.248 208.608H278.248V178.872H296.248C297.309 178.872 298.326 179.293 299.076 180.044C299.827 180.794 300.248 181.811 300.248 182.872V204.608C300.248 205.669 299.827 206.686 299.076 207.436C298.326 208.187 297.309 208.608 296.248 208.608Z" fill="#FFE500" stroke="#45413C" stroke-width="4" stroke-linejoin="round"/>
<path d="M296.248 178.884H278.248V149.152H296.248C297.309 149.152 298.326 149.573 299.076 150.324C299.827 151.074 300.248 152.091 300.248 153.152V174.884C300.248 175.945 299.827 176.962 299.076 177.712C298.326 178.463 297.309 178.884 296.248 178.884Z" fill="#FF8A14" stroke="#45413C" stroke-width="4" stroke-linejoin="round"/>
<path d="M296.248 149.164H278.248V119.428H296.248C297.309 119.428 298.326 119.849 299.076 120.6C299.827 121.35 300.248 122.367 300.248 123.428V145.164C300.248 146.225 299.827 147.242 299.076 147.992C298.326 148.743 297.309 149.164 296.248 149.164Z" fill="#FF6242" stroke="#45413C" stroke-width="4" stroke-linejoin="round"/>
<path d="M171.756 204.596H256.956V271.54H171.756V204.596Z" fill="white" stroke="#45413C" stroke-width="4"/>
<path d="M186.972 222.852H241.744" stroke="#45413C" stroke-width="4" stroke-linecap="round" stroke-linejoin="round"/>
<path d="M186.972 238.068H241.744" stroke="#45413C" stroke-width="4" stroke-linecap="round" stroke-linejoin="round"/>
<path d="M186.972 253.28H241.744" stroke="#45413C" stroke-width="4" stroke-linecap="round" stroke-linejoin="round"/>
<path d="M222.892 162.36C222.611 163.19 222.442 164.053 222.392 164.928C222.356 165.17 222.376 165.417 222.451 165.651C222.526 165.884 222.653 166.097 222.823 166.273C222.993 166.449 223.202 166.584 223.432 166.667C223.662 166.75 223.909 166.779 224.152 166.752C228.152 166.752 232.432 160.788 232.432 154.324C232.432 144.6 224.212 139.012 215.232 139.012C212.735 138.961 210.253 139.413 207.935 140.342C205.617 141.271 203.51 142.657 201.739 144.418C199.968 146.18 198.57 148.279 197.629 150.593C196.688 152.906 196.222 155.385 196.26 157.882C196.298 160.379 196.839 162.843 197.85 165.127C198.861 167.411 200.322 169.467 202.145 171.174C203.968 172.88 206.117 174.202 208.462 175.06C210.808 175.918 213.302 176.295 215.796 176.168C226.404 176.168 228.916 169.264 232.428 169.264C232.627 169.248 232.828 169.273 233.016 169.338C233.205 169.403 233.379 169.507 233.526 169.642C233.673 169.777 233.791 169.941 233.872 170.124C233.953 170.307 233.995 170.504 233.996 170.704C233.996 174.156 223.64 180.304 215.36 180.304C212.286 180.46 209.212 179.989 206.325 178.922C203.438 177.855 200.797 176.213 198.563 174.095C196.329 171.977 194.548 169.428 193.329 166.602C192.109 163.776 191.475 160.731 191.467 157.653C191.458 154.575 192.074 151.527 193.278 148.694C194.482 145.861 196.248 143.302 198.47 141.172C200.692 139.041 203.323 137.384 206.205 136.301C209.086 135.217 212.157 134.73 215.232 134.868C227.092 134.868 237.196 142.468 237.196 153.568C237.369 157.926 235.843 162.18 232.94 165.435C230.038 168.69 225.985 170.691 221.636 171.016C221.109 171.08 220.574 171.037 220.064 170.889C219.554 170.741 219.079 170.492 218.668 170.155C218.256 169.819 217.918 169.403 217.672 168.932C217.426 168.461 217.277 167.946 217.236 167.416H217.104C216.203 168.464 215.103 169.323 213.866 169.941C212.63 170.559 211.283 170.924 209.904 171.016C208.632 170.999 207.377 170.73 206.21 170.225C205.043 169.719 203.988 168.986 203.107 168.069C202.226 167.152 201.535 166.069 201.076 164.883C200.617 163.697 200.398 162.431 200.432 161.16C200.432 153.192 206.14 144.908 214.612 144.908C216.168 144.85 217.704 145.268 219.016 146.106C220.327 146.945 221.352 148.164 221.952 149.6L222.752 147.096C222.86 146.53 223.18 146.026 223.647 145.687C224.114 145.348 224.692 145.2 225.264 145.272C226.264 145.272 227.264 145.648 227.264 146.652C227.194 147.423 227.026 148.183 226.764 148.912L222.892 162.36ZM211.096 166.252C217.308 166.252 219.628 157.712 219.628 154.204C219.628 151.128 218.06 149.68 214.924 149.68C208.896 149.68 205.948 155.896 205.948 160.6C205.901 161.312 205.998 162.027 206.234 162.701C206.469 163.374 206.838 163.994 207.319 164.522C207.8 165.049 208.382 165.475 209.031 165.772C209.68 166.069 210.382 166.233 211.096 166.252Z" fill="#45413C"/>
</svg>
