<svg width="400" height="400" viewBox="0 0 400 400" fill="none" xmlns="http://www.w3.org/2000/svg">
<path d="M364.6 338C351.56 309.1 317.92 308.26 297.16 311.74C259.56 318.06 253.64 341.18 253.74 349.16C253.74 355.62 259.74 366.04 274.4 368.04C275.952 369.29 277.78 370.15 279.732 370.55C281.682 370.95 283.702 370.878 285.62 370.34C289.62 373.48 296.2 374.18 298.34 371.18C309 376.4 309.52 368.42 309.52 368.42C311.988 368.554 314.462 368.502 316.92 368.26C313.42 371.92 313.34 377.16 321.88 378.16C346 380.96 377.34 366.24 364.6 338Z" fill="#3D9CFB"/>
<path d="M146.76 88.76C128.14 93.38 124.76 103.86 128.22 111.34C132.34 120 160 123.02 177.38 114.96C210 100 179.08 80.78 146.76 88.76Z" fill="#3D9CFB"/>
<path d="M316 228.98C316.614 228.982 317.206 228.752 317.66 228.34C330.64 215.84 335.02 210.82 327 204.78C321.58 201.26 325 196.78 333.76 185.4C335.76 183 331.98 179.78 330 182.28C310.82 205.36 323.28 206.28 326 210.62C326 211.8 324.82 215.4 314.3 224.74C313.944 225.08 313.698 225.518 313.594 225.998C313.49 226.478 313.532 226.98 313.714 227.436C313.898 227.892 314.214 228.282 314.62 228.558C315.028 228.834 315.508 228.98 316 228.98Z" fill="#001434"/>
<path d="M296.68 183.48C296.2 185.22 283.52 197.84 289.14 200.82C289.44 200.936 289.762 200.99 290.084 200.982C290.404 200.972 290.722 200.9 291.016 200.768C291.31 200.636 291.574 200.448 291.794 200.212C292.016 199.978 292.186 199.702 292.3 199.4C293.746 195.662 295.86 192.219 298.54 189.24C304.54 182.3 301.16 179.24 291.42 175.02C296.52 171.72 304.14 169.4 305.12 162.56C305.196 161.916 305.014 161.267 304.614 160.757C304.212 160.247 303.624 159.917 302.98 159.84C302.336 159.763 301.686 159.945 301.176 160.347C300.666 160.748 300.336 161.336 300.26 161.98C300.06 167.86 279.66 171.34 286.68 178.28C292.9 181 296.28 182.82 296.68 183.48Z" fill="#001434"/>
<path d="M258.88 127.54C267.38 125.12 271.22 120.16 267.9 112.76C285.62 107.18 267.14 95.66 280.14 93.22C280.45 93.1386 280.74 92.997 280.996 92.803C281.252 92.6092 281.466 92.367 281.628 92.0904C281.788 91.8136 281.894 91.5078 281.938 91.1904C281.982 90.8728 281.962 90.55 281.88 90.24C281.798 89.93 281.656 89.6392 281.464 89.384C281.27 89.1288 281.028 88.9144 280.75 88.7528C280.474 88.5912 280.168 88.4858 279.85 88.4424C279.532 88.399 279.21 88.4186 278.9 88.5C268.42 91.26 269.9 97.46 270.78 101.18C271.28 103.18 271.54 104.64 270.92 105.62C270.3 106.6 268.74 107.62 264.12 108.66C263.772 108.732 263.444 108.879 263.158 109.09C262.872 109.302 262.636 109.574 262.468 109.886C262.298 110.199 262.198 110.544 262.176 110.899C262.154 111.254 262.21 111.609 262.34 111.94C263.3 114.38 264.72 117.64 264.04 118.88C263.36 120.12 261.46 121.44 258.04 122.88C257.558 123.115 257.166 123.5 256.924 123.978C256.682 124.456 256.602 125 256.696 125.528C256.792 126.055 257.056 126.537 257.45 126.901C257.844 127.264 258.346 127.488 258.88 127.54Z" fill="#001434"/>
<path d="M346.5 220C347.124 220.002 347.724 219.766 348.18 219.34C356.18 211.66 359.92 206.06 353.68 199.86C348.62 195.86 358.04 193.86 354.72 189.86C354.244 189.42 353.614 189.186 352.966 189.208C352.318 189.231 351.704 189.508 351.26 189.98C344.92 196.82 347.26 200.32 350.16 203.34C353.82 206.92 351.44 208.96 344.82 215.86C344.498 216.202 344.282 216.63 344.196 217.092C344.11 217.554 344.158 218.032 344.336 218.468C344.512 218.904 344.81 219.278 345.194 219.55C345.578 219.822 346.03 219.978 346.5 220Z" fill="#001434"/>
<path d="M197.5 366.3C188.786 361.228 181.089 354.582 174.8 346.7C174.397 346.19 173.808 345.862 173.163 345.788C172.518 345.712 171.869 345.896 171.36 346.3C170.851 346.704 170.523 347.292 170.448 347.938C170.373 348.582 170.557 349.23 170.96 349.74C182.14 363.64 190.1 367 199.16 373.28C194.22 377.6 165.16 387.28 153.64 384.76C139.74 373.72 126.74 355.88 126.74 349.94C126.74 344.62 146.36 342.44 152.74 341.74C153.356 341.632 153.907 341.292 154.281 340.792C154.656 340.292 154.826 339.668 154.758 339.046C154.689 338.426 154.386 337.854 153.911 337.448C153.436 337.042 152.824 336.832 152.2 336.86C133.42 338.86 121.78 341.86 121.78 349.94C121.78 358.02 136.22 377.4 150.96 388.94C153.093 389.816 155.401 390.178 157.7 390C172.64 389.8 222.28 378 197.5 366.3Z" fill="#001434"/>
<path d="M22.46 117.42C23.1416 117.34 23.832 117.444 24.46 117.72C24.5406 118.87 24.398 120.024 24.04 121.12C21.04 132.68 30.84 128.88 34.66 130.94C34.52 134.04 34.5 136.94 39.88 140.58C40.4062 140.811 40.9964 140.85 41.5484 140.691C42.1006 140.533 42.5796 140.186 42.9026 139.711C43.2256 139.235 43.3722 138.662 43.317 138.091C43.2618 137.519 43.008 136.984 42.6 136.58C39.4 134.44 39.46 133.22 39.52 131.82C39.78 126.94 36.78 125.66 28.32 124.98C29.64 119.26 31.06 112.4 22.32 112.6C21.7672 112.729 21.276 113.045 20.9296 113.495C20.5832 113.944 20.4028 114.5 20.4194 115.067C20.4358 115.635 20.648 116.179 21.02 116.608C21.392 117.036 21.9008 117.323 22.46 117.42Z" fill="#001434"/>
<path d="M131.86 46.7C134.86 49.12 136.1 50.12 132.82 54.7C132.631 54.9626 132.495 55.26 132.421 55.575C132.347 55.89 132.336 56.2166 132.388 56.536C132.44 56.8554 132.554 57.1614 132.724 57.4366C132.895 57.7118 133.117 57.9508 133.38 58.14C133.643 58.329 133.94 58.4646 134.255 58.5388C134.57 58.613 134.897 58.6244 135.216 58.5724C135.535 58.5204 135.842 58.406 136.117 58.2358C136.392 58.0654 136.631 57.8426 136.82 57.58C146.98 42.96 126.98 44.42 133.26 35.44C133.431 35.1676 133.546 34.864 133.599 34.5468C133.651 34.2294 133.64 33.905 133.565 33.5922C133.491 33.2792 133.355 32.9844 133.165 32.7248C132.975 32.4652 132.736 32.246 132.46 32.08C131.907 31.7452 131.245 31.6414 130.616 31.7912C129.987 31.9408 129.443 32.332 129.1 32.88C124.28 40.6 129.02 44.42 131.86 46.7Z" fill="#001434"/>
<path d="M63.16 98.68C64.5738 99.487 65.861 100.498 66.98 101.68C65.38 106.14 61.12 110.48 68.86 116.06C69.123 116.246 69.4202 116.377 69.7344 116.446C70.0488 116.516 70.3736 116.522 70.6902 116.464C71.007 116.406 71.3088 116.286 71.5784 116.11C71.8478 115.934 72.0796 115.707 72.26 115.44C74.5 110.84 66.54 112.02 70.44 106.04C71.3442 104.489 71.878 102.751 72 100.96C71.44 97.82 67.22 95.62 65.8 94.54C63.14 92.86 62.34 92.36 64.56 85.36C64.6314 84.7964 64.504 84.2256 64.1996 83.746C63.8952 83.2664 63.433 82.908 62.8926 82.7326C62.3524 82.5572 61.7678 82.5758 61.2398 82.7854C60.7116 82.9948 60.2732 83.382 60 83.88C57 93 58.48 95.7 63.16 98.68Z" fill="#001434"/>
<path d="M156.82 42C155.784 43.0644 154.979 44.3314 154.455 45.7218C153.932 47.112 153.701 48.5956 153.778 50.0792C153.855 51.5628 154.238 53.0144 154.902 54.343C155.567 55.6716 156.499 56.8486 157.64 57.8C160 60.5 161.2 62 160 64.82C159.735 65.414 159.717 66.0892 159.949 66.6968C160.182 67.3044 160.646 67.7948 161.24 68.06C161.834 68.3252 162.509 68.3436 163.117 68.111C163.725 67.8784 164.215 67.414 164.48 66.82C169.4 55.8 153.02 53.72 160.8 44.92C171.18 33.24 146.8 26.56 160.94 14.38C161.433 13.9583 161.739 13.3579 161.79 12.7109C161.84 12.0639 161.632 11.4233 161.21 10.93C160.788 10.4367 160.188 10.1311 159.541 10.0805C158.894 10.0298 158.253 10.2383 157.76 10.66C149.76 17.48 149.6 25.92 157.38 35.76C159.46 38.4 158.74 39.38 156.82 42Z" fill="#001434"/>
<path d="M221 97.02C221.02 97.669 221.298 98.2834 221.77 98.7292C222.242 99.175 222.87 99.4162 223.52 99.4C228.28 98.86 224.7 89.6 224.46 88.4C234.46 85.72 237.66 87.14 230.96 75.64C232.284 74.785 233.766 74.2068 235.32 73.94C235.946 73.7756 236.48 73.3692 236.808 72.8104C237.134 72.2514 237.224 71.5858 237.06 70.96C236.896 70.334 236.49 69.7992 235.93 69.4728C235.372 69.1464 234.706 69.0556 234.08 69.22C224.58 71.64 224.68 75.88 228.92 82.22C223.58 84.4 216.22 82.74 219.04 88.54C219.58 89.38 220.86 91.36 221 97.02Z" fill="#001434"/>
<path d="M183.26 56.34C182.98 56.8694 182.904 57.4836 183.048 58.0654C183.191 58.6472 183.543 59.1558 184.038 59.4944C184.532 59.833 185.134 59.978 185.728 59.9016C186.322 59.825 186.868 59.5326 187.26 59.08C197.06 44.86 179.96 43.2 190.64 34.28C193.04 32.28 189.68 28.48 187.36 30.66C173.62 43.1 191.08 45.02 183.26 56.34Z" fill="#001434"/>
<path d="M157.54 346.6C148.34 347.44 136.66 348.18 135.04 351.9C130.76 357.56 151.84 376.88 157.54 377.6C160.14 378.92 186.04 376.08 183.12 369.02C182.954 368.744 182.735 368.506 182.475 368.316C182.216 368.126 181.921 367.99 181.608 367.916C181.295 367.84 180.971 367.83 180.653 367.882C180.336 367.934 180.032 368.048 179.76 368.22C173.262 371.99 165.726 373.574 158.26 372.74C154.26 372.18 141.34 359 139.34 354.36C141.98 352.36 152.9 351.94 157.94 351.46C158.566 351.384 159.139 351.068 159.538 350.58C159.937 350.09 160.131 349.466 160.079 348.838C160.027 348.208 159.734 347.624 159.26 347.208C158.787 346.79 158.17 346.572 157.54 346.6Z" fill="#001434"/>
<path d="M320.56 333.38C327.28 334.96 333.68 331.8 334.94 324.52C334.998 324.2 334.992 323.874 334.922 323.556C334.852 323.24 334.72 322.94 334.536 322.674C334.35 322.408 334.112 322.182 333.838 322.008C333.566 321.834 333.26 321.716 332.94 321.66C329.26 321.06 330.16 326.96 327.66 327.9C325.746 328.902 323.526 329.144 321.44 328.58C320.804 328.464 320.146 328.604 319.614 328.972C319.082 329.34 318.716 329.904 318.6 330.54C318.484 331.176 318.624 331.834 318.992 332.366C319.36 332.898 319.924 333.264 320.56 333.38Z" fill="#001434"/>
<path d="M196.8 311.06C200.62 310.26 204.58 308.64 208.58 307.4C208.94 307.4 217.92 311.4 217.98 311.06C218.536 311.044 219.07 310.838 219.494 310.48C219.918 310.12 220.208 309.628 220.318 309.084C220.426 308.538 220.348 307.972 220.094 307.478C219.84 306.984 219.426 306.59 218.92 306.36L215.8 305.08C219.02 303.3 227.54 304.2 227 300.08C226.95 299.766 226.836 299.466 226.67 299.194C226.502 298.924 226.282 298.69 226.024 298.504C225.766 298.318 225.474 298.184 225.164 298.112C224.854 298.04 224.534 298.028 224.22 298.08C218.964 299.048 213.792 300.44 208.76 302.24L200.18 298.7C199.581 298.454 198.908 298.454 198.31 298.704C197.711 298.954 197.237 299.43 196.99 300.03C196.743 300.63 196.745 301.302 196.994 301.9C197.244 302.498 197.721 302.974 198.32 303.22L201.64 304.6C199.76 305.22 197.9 305.82 196.12 306.34C195.598 306.534 195.158 306.902 194.874 307.382C194.59 307.86 194.478 308.422 194.558 308.974C194.637 309.526 194.903 310.034 195.311 310.412C195.719 310.792 196.244 311.02 196.8 311.06Z" fill="#001434"/>
<path d="M107.86 299.8C97.4 308.28 85.86 301.7 85.42 301.42C84.8632 301.088 84.1972 300.992 83.569 301.152C82.9408 301.31 82.4016 301.712 82.07 302.27C81.7386 302.826 81.6418 303.492 81.8012 304.12C81.9606 304.75 82.3632 305.288 82.92 305.62C86.9456 307.776 91.434 308.922 96 308.96C98.36 309.46 114.4 305.84 111.26 300.16C110.851 299.67 110.267 299.36 109.633 299.292C108.999 299.226 108.363 299.408 107.86 299.8Z" fill="#001434"/>
<path d="M313.44 348C315.812 348.018 318.178 347.784 320.5 347.3C323.02 351.62 320.2 352.28 316.12 352.06C315.8 352.016 315.476 352.034 315.164 352.116C314.852 352.196 314.558 352.34 314.302 352.534C314.046 352.73 313.83 352.974 313.668 353.252C313.506 353.532 313.402 353.84 313.36 354.16C313.36 359.6 324.02 356.62 325.36 353.42C326.914 353.734 328.524 353.63 330.026 353.116C331.526 352.604 332.864 351.7 333.9 350.5C335.9 348.06 332.08 344.9 330.12 347.4C329.44 348.2 327.3 349.4 326.12 348.46C325.904 347.47 325.554 346.516 325.08 345.62C327.72 344.22 331.24 339.72 327.44 337.94C327.136 337.84 326.814 337.802 326.494 337.826C326.174 337.85 325.862 337.936 325.576 338.082C325.29 338.226 325.036 338.426 324.828 338.67C324.618 338.914 324.46 339.196 324.36 339.5C323.58 341.78 319.6 343.1 313.4 343.1C312.788 343.16 312.222 343.446 311.812 343.904C311.4 344.36 311.176 344.954 311.18 345.568C311.186 346.182 311.42 346.772 311.838 347.222C312.256 347.672 312.828 347.95 313.44 348Z" fill="#001434"/>
<path d="M288.68 340.36C294.28 343.88 304.98 343.78 308.68 337.42C308.966 336.86 309.026 336.212 308.85 335.61C308.674 335.008 308.274 334.494 307.732 334.178C307.19 333.86 306.546 333.762 305.934 333.904C305.322 334.046 304.788 334.416 304.44 334.94C302.32 338.58 294.88 338.44 291.38 336.22C290.832 335.862 290.162 335.736 289.522 335.872C288.88 336.006 288.318 336.39 287.96 336.94C287.602 337.488 287.476 338.158 287.612 338.8C287.746 339.44 288.132 340.002 288.68 340.36Z" fill="#001434"/>
<path d="M357.08 297.46C384.66 228.88 377.08 230.52 304.72 246.78C298.116 227.774 284.966 211.738 267.62 201.54C288.46 162.24 244.52 118.2 202.18 106.76C204 97.78 198 90 188 88.62C184.2 79.9 172.38 76.36 164.24 81.04C153.56 68.36 139.84 67.86 130 74.74L104.58 45.56C104.378 45.2874 104.122 45.0596 103.828 44.891C103.533 44.7222 103.207 44.616 102.87 44.5794C102.533 44.5426 102.191 44.5762 101.868 44.6776C101.544 44.7792 101.245 44.9466 100.989 45.1692C100.733 45.392 100.526 45.6652 100.381 45.9718C100.235 46.2784 100.155 46.6118 100.145 46.9508C100.135 47.29 100.195 47.6276 100.321 47.9424C100.448 48.2572 100.638 48.5424 100.88 48.78L126.42 78.12C125.257 79.5526 124.313 81.15 123.62 82.86L80.6 59.72C80.3172 59.5086 79.9922 59.3606 79.647 59.2862C79.302 59.2116 78.9448 59.2122 78.5998 59.2878C78.255 59.3636 77.9304 59.5126 77.6484 59.725C77.3662 59.9374 77.133 60.2078 76.9648 60.5184C76.7966 60.8288 76.697 61.1718 76.6732 61.524C76.6492 61.8764 76.7014 62.2296 76.8262 62.56C76.951 62.8902 77.1454 63.1898 77.3962 63.4384C77.6472 63.6868 77.9486 63.8784 78.28 64L122.28 87.72C122.094 89.4926 122.148 91.282 122.44 93.04C109.6 97.64 108.44 104.62 108.74 108.2C61.16 116.62 22.74 174.2 57.76 208.76C36.48 222.06 16.1401 246.2 19.7601 276.42C20.6748 285.66 24.2432 294.438 30.0346 301.694C35.8262 308.952 43.5936 314.378 52.4 317.32C52.4232 320.916 53.3696 324.444 55.1488 327.568C56.928 330.692 59.48 333.306 62.56 335.16C48.9484 339.492 35.5936 344.594 22.56 350.44C22.2296 350.544 21.925 350.718 21.6662 350.95C21.4076 351.18 21.2006 351.464 21.0588 351.78C20.9172 352.096 20.844 352.438 20.844 352.786C20.8442 353.132 20.9176 353.476 21.0594 353.792C21.2014 354.108 21.4084 354.39 21.6672 354.622C21.9262 354.852 22.2308 355.026 22.5614 355.13C22.892 355.234 23.2408 355.268 23.5852 355.228C23.9298 355.19 24.262 355.078 24.56 354.9C42.96 346.5 55.34 342.9 69.96 337.8C72.5028 338.254 75.1008 338.308 77.66 337.96C78.46 339.68 78.4 342.28 80.18 343.38C85.5692 346.44 91.6252 348.136 97.82 348.32C113.66 348.06 120 335.88 122.44 321.68C131.3 318.68 137.1 316 144.88 312.88C144.88 314.14 145.14 315.7 146.42 316.28C152.68 319.26 161.2 324.66 170.42 329.98C198 345.72 223.08 366.64 246 351.34C249.7 360.76 258.4 367.44 271.02 370.18C273.36 372.18 279.9 373.4 284.66 372.68C286.588 374.042 288.848 374.862 291.2 375.054C293.552 375.248 295.914 374.808 298.04 373.78C302.96 376.92 311.06 375.6 313.24 369.78C314.12 369.78 314.98 369.78 315.86 369.66C310.3 396.14 379.58 379.04 380.3 347.66C381.156 337.992 379.464 328.27 375.39 319.462C371.314 310.652 365.002 303.066 357.08 297.46ZM264.74 205.46C281.138 214.978 293.632 230.002 300 247.86C291.78 249.86 281.04 251.58 272.5 254.66C276.72 239.3 256.9 223.5 246.94 219.02C253.782 215.862 259.854 211.256 264.74 205.52V205.46ZM268.12 248.98C268.316 250.848 268.02 252.736 267.264 254.454C266.506 256.174 265.312 257.664 263.8 258.78C258.884 261.418 253.506 263.088 247.96 263.7C250.5 258.68 250.34 251.52 247.06 244.76C246.776 244.176 246.272 243.73 245.66 243.518C245.046 243.306 244.374 243.346 243.79 243.63C243.206 243.914 242.76 244.418 242.548 245.032C242.336 245.644 242.376 246.316 242.66 246.9C245.86 253.52 245.34 260.9 241.62 263.9C236.764 263.68 231.956 262.826 227.32 261.36C227.62 259.66 228.84 235.36 223.08 236.7C222.758 236.752 222.448 236.87 222.172 237.044C221.896 237.22 221.656 237.448 221.47 237.716C221.284 237.984 221.152 238.288 221.086 238.608C221.018 238.928 221.016 239.26 221.08 239.58C222.838 247.144 223.184 254.97 222.1 262.66C218.96 279.22 210.48 269.96 203.6 247.76C203.51 247.45 203.36 247.162 203.16 246.912C202.958 246.66 202.708 246.452 202.426 246.298C202.144 246.142 201.832 246.046 201.512 246.012C201.192 245.978 200.868 246.008 200.56 246.1C196.7 247.74 200.56 252.94 200.98 255.48C164.98 242.06 215.68 206.66 245.94 223.92C254.38 228 267.04 239.32 268.12 249.04V248.98ZM164.9 86.42C171.92 80.42 185.2 85.72 184.44 95.38C183.44 95.68 182.44 95.88 181.56 96.16C177.7 84.16 164.32 88.58 161.56 100.16C160.2 100.3 158.82 100.48 157.56 100.56C158.8 94 161.3 89.18 164.9 86.42ZM176.9 97.4C173.42 98.24 170.16 98.84 167.04 99.4C169.32 94 175.24 91.6 176.82 97.4H176.9ZM160.28 84C159.457 84.7806 158.695 85.623 158 86.52C155.247 84.1188 151.859 82.564 148.244 82.0424C144.628 81.5208 140.939 82.0548 137.62 83.58L133.16 78.46C140.64 73.16 152.2 74.16 160.28 84ZM138.12 99.02C136.757 98.6828 135.421 98.2484 134.12 97.72C134.86 84.56 148.26 84.28 155.44 90.84C155.08 91.64 154.72 92.5 154.4 93.4C147.22 89.06 139.04 91.08 138.12 99.02ZM153.06 98.32C152.9 99.08 152.74 99.86 152.6 100.68C149.367 100.708 146.137 100.481 142.94 100C143.24 94.86 148.62 95.1 153.06 98.32ZM129.72 81.88L133.72 86.44C133.315 86.8224 132.934 87.2298 132.58 87.66L128 85.18C128.422 84.0074 129 82.8972 129.72 81.88ZM130.2 91.88C129.857 92.9086 129.61 93.9664 129.46 95.04C128.801 94.5468 128.179 94.0054 127.6 93.42C127.346 92.377 127.192 91.3122 127.14 90.24L130.2 91.88ZM124.76 97.42C138.42 110.42 169.32 104.98 187.34 99.54C189.68 98.84 189.34 95.74 189.34 93.84C209.22 101.28 191.82 124.76 162.84 125.3C129.6 128 95.52 108.7 124.76 97.5V97.42ZM62 212C69.26 216.9 78 218.7 84.66 216.76C85.68 223.52 89.26 233.98 94.66 239C87.114 244.158 80.374 250.406 74.66 257.54C63.66 247.76 42.36 245.72 25.98 256.32C31.02 236.8 46.42 221.3 62 212ZM59.84 326C53.44 316 59.3 302.64 72.22 304.98C72.092 305.982 72.0186 306.99 72 308C57.06 307.54 58.76 330.72 74.88 328.18C75.32 329.84 75.8 331.52 76.32 333.26C69.1 333.76 63.2 331.2 59.86 326H59.84ZM73.64 323.32C65.38 324.94 63.64 312.14 72.02 312.88C72.3056 316.382 72.8538 319.86 73.66 323.28L73.64 323.32ZM117.82 319.54C115.96 338.52 103.02 350 83.32 339.54C70.42 298 74.14 289.32 115.7 296C118.016 303.604 118.745 311.602 117.84 319.5L117.82 319.54ZM148.24 306.4C138.92 309.84 132.98 312.82 123.02 316.4C123.14 310.4 122.8 294.4 118 291.64C92.14 287.48 80.14 287.14 73.48 300.32C63.48 298.68 55.16 303.36 53 312.46C33.44 305.88 21.8 284 24.72 263.34C39.46 250.82 61.46 252.04 71.66 261.34C70.34 263.76 65.5 267.12 68.58 269.82C68.8438 270.004 69.1412 270.132 69.455 270.2C69.7688 270.268 70.0928 270.274 70.4088 270.216C70.7246 270.158 71.026 270.038 71.2956 269.864C71.5652 269.69 71.7978 269.464 71.98 269.2C91.46 240.58 117.98 225.2 151.86 237.2C174.82 243.04 195.86 284.18 161.86 266.5C161.249 259.44 157.966 252.88 152.68 248.16C152.216 247.706 151.591 247.456 150.942 247.464C150.293 247.47 149.674 247.736 149.22 248.2C148.767 248.664 148.516 249.29 148.523 249.938C148.531 250.588 148.796 251.206 149.26 251.66C158.22 260.18 160.42 272.7 150.7 280.28C150.7 277.44 147.06 261.4 141.7 264.1C141.167 264.468 140.801 265.032 140.681 265.668C140.562 266.306 140.698 266.964 141.06 267.5C144.391 271.948 146.036 277.434 145.7 282.98C138.98 285.4 129.7 284.76 119.02 278.54C118.46 278.214 117.794 278.124 117.168 278.288C116.541 278.454 116.006 278.86 115.68 279.42C115.354 279.98 115.263 280.646 115.428 281.272C115.593 281.898 116 282.434 116.56 282.76C133.12 292.66 156.56 291.82 161.48 271.82C172.22 277.82 185.8 278.34 184.28 264.38C183.1 253.46 170.94 238.64 153.4 232.58C133.68 225.76 115.52 227.06 99.12 236.3C94.08 233.24 89.84 221.14 89.28 214.64C90.866 213.522 92.1986 212.082 93.191 210.414C94.1834 208.746 94.8134 206.888 95.04 204.96C97.88 184.76 110.1 158.16 121.66 154C123.344 153.409 125.167 153.337 126.893 153.794C128.619 154.25 130.168 155.214 131.34 156.56C146.6 170.18 146.74 148.56 161.82 157.7C172.02 163.7 179.82 160.44 192.62 151.44C206.92 141.32 241.6 169.08 228.82 214.52C216.516 213.762 204.354 217.5 194.6 225.04C178.38 238.34 178.98 254.56 203.34 261.26C211.18 279.26 221.72 281.08 226.4 266.16C232.2 268.3 245.52 270.06 253.98 267.62C251.662 270.442 249.594 273.46 247.8 276.64C219.58 284.32 156 297.02 148.26 306.36L148.24 306.4ZM244.5 346.22C240.02 350.052 234.272 352.078 228.38 351.9C210.1 351.34 170.9 323.08 149.8 312.5C157.98 299.58 217.16 290.92 244.68 282.62C240.46 291.14 235.96 303.04 231.82 313.36C230.04 312.46 229.82 313.56 215.12 318.98C214.51 319.202 214.014 319.658 213.74 320.248C213.466 320.836 213.438 321.51 213.66 322.12C213.882 322.73 214.338 323.226 214.928 323.5C215.516 323.774 216.19 323.802 216.8 323.58C222.34 321.58 224.18 320.72 229.72 318.56C227.44 324.16 224.94 330.12 222.06 336.56C221.794 337.152 221.776 337.824 222.006 338.43C222.236 339.036 222.698 339.524 223.29 339.79C223.882 340.056 224.554 340.074 225.16 339.844C225.766 339.614 226.254 339.152 226.52 338.56C241.38 307.08 248.06 263.5 281.48 257.16C306.46 252.42 363.22 236.66 365.48 244.98C369.98 250.22 364 266.6 352.84 294.88C323 274.58 238.46 289.24 244.52 346.18L244.5 346.22ZM375.4 347.34C374.06 375.58 311.72 387.54 321.4 369.18C339.22 366.58 355.94 356.98 356.46 339.46C356.84 326.98 346.92 312.78 324.3 310.62C312.48 296.86 302.3 299.78 298.14 317.34C293.18 318.02 289.74 319.8 285.68 316.88C272.56 308.7 267.68 319.98 262.26 338.7C262.09 339.326 262.176 339.994 262.498 340.556C262.822 341.118 263.354 341.53 263.98 341.7C264.606 341.87 265.274 341.784 265.836 341.462C266.398 341.138 266.81 340.606 266.98 339.98C271.18 324.48 274.82 320.14 277.16 319.22C280.5 317.88 285.16 323.62 289 323.36C296.752 323.036 304.38 321.314 311.52 318.28C311.816 318.16 312.086 317.982 312.314 317.756C312.542 317.53 312.722 317.262 312.844 316.966C312.968 316.67 313.03 316.352 313.03 316.032C313.028 315.712 312.964 315.396 312.84 315.1C310.84 311.54 306.56 315.62 303.62 315.9C307.52 303.58 312.64 304.64 321.22 314.54C321.648 315.036 322.248 315.35 322.9 315.42C367.04 319.8 357.96 364.54 313.34 365C312.82 363.18 310.5 357.12 307.34 359.48C307.08 359.672 306.862 359.912 306.698 360.19C306.534 360.466 306.428 360.774 306.384 361.092C306.342 361.412 306.364 361.736 306.448 362.046C306.534 362.358 306.68 362.648 306.88 362.9C308 364.36 309.66 367.08 308.26 368.9C307.34 369.754 306.192 370.32 304.956 370.528C303.72 370.738 302.45 370.582 301.3 370.08C300.34 369.672 299.562 368.924 299.116 367.98C298.67 367.036 298.586 365.962 298.88 364.96C298.934 364.644 298.926 364.322 298.854 364.01C298.782 363.698 298.65 363.404 298.464 363.142C298.278 362.882 298.042 362.662 297.77 362.492C297.498 362.324 297.196 362.21 296.88 362.16C292.88 361.8 293.74 367.7 294.66 369.86C289.34 371.12 285.54 368.68 285.06 364.66C285.084 364.338 285.044 364.016 284.94 363.71C284.838 363.404 284.674 363.122 284.458 362.882C284.244 362.64 283.982 362.446 283.69 362.308C283.4 362.17 283.082 362.092 282.76 362.08C279.58 361.96 279.86 365.92 280.76 368.08C266 368.84 270.02 350.74 282.4 351.44C283.048 351.486 283.686 351.272 284.176 350.846C284.664 350.42 284.964 349.818 285.01 349.17C285.056 348.522 284.842 347.884 284.416 347.394C283.99 346.906 283.388 346.606 282.74 346.56C273.64 345.5 264.44 355 266.56 363.98C229.78 350.22 257.2 303.68 284.04 296.92C341.16 279.1 376.74 304.64 375.42 347.3L375.4 347.34Z" fill="#001434"/>
<path d="M212.64 328.48C200.98 325.64 183.32 312.94 171.8 308.48C171.205 308.314 170.569 308.376 170.018 308.658C169.467 308.938 169.042 309.416 168.828 309.996C168.614 310.576 168.626 311.214 168.861 311.786C169.097 312.358 169.539 312.82 170.1 313.08C176.96 314.4 211.5 339.08 214.42 331.42C214.498 331.11 214.514 330.788 214.466 330.472C214.418 330.156 214.308 329.852 214.142 329.58C213.978 329.306 213.76 329.068 213.502 328.88C213.244 328.69 212.95 328.554 212.64 328.48Z" fill="#001434"/>
<path d="M175.78 181.6C178.32 181.6 193.38 169.28 187.78 165.6C187.191 165.326 186.518 165.297 185.907 165.518C185.296 165.739 184.798 166.193 184.52 166.78C182.273 171.138 178.796 174.74 174.52 177.14C174.106 177.434 173.793 177.849 173.625 178.328C173.456 178.806 173.439 179.326 173.577 179.814C173.715 180.303 174.001 180.737 174.395 181.056C174.79 181.376 175.273 181.566 175.78 181.6Z" fill="#001434"/>
<path d="M189.5 202C195.26 209.48 205.76 210.8 207.98 211C208.628 211.032 209.26 210.806 209.74 210.37C210.22 209.936 210.508 209.328 210.54 208.68C210.572 208.032 210.346 207.4 209.91 206.92C209.476 206.44 208.868 206.152 208.22 206.12C206.74 205.952 205.274 205.664 203.84 205.26C216.76 204.24 227.54 185.72 221.66 178.08C213.78 167.5 189.22 175.54 186.52 188.68C185.22 194.36 186.3 199 189.5 202ZM206.46 178.5C224.46 174.9 219.52 193.02 207.9 198.9C207.548 195.496 206.486 192.204 204.78 189.238C203.074 186.271 200.764 183.696 198 181.68C200.614 180.141 203.478 179.072 206.46 178.52V178.5Z" fill="#001434"/>
<path d="M179.68 211.06C173.998 210.638 168.285 210.994 162.7 212.12C162.113 212.298 161.614 212.688 161.3 213.214C160.986 213.74 160.879 214.366 161.002 214.966C161.125 215.568 161.467 216.1 161.963 216.462C162.458 216.824 163.071 216.986 163.68 216.92C168.857 215.876 174.153 215.546 179.42 215.94C180.067 215.974 180.701 215.75 181.183 215.318C181.665 214.884 181.956 214.278 181.99 213.63C182.025 212.982 181.801 212.348 181.367 211.866C180.934 211.384 180.327 211.094 179.68 211.06Z" fill="#001434"/>
<path d="M128.48 180.58C94.58 177.98 105.88 212.94 134.28 212.58C131.19 214.162 127.89 215.294 124.48 215.94C123.884 216.044 123.348 216.364 122.973 216.84C122.598 217.314 122.412 217.91 122.449 218.514C122.486 219.118 122.744 219.686 123.174 220.112C123.604 220.538 124.176 220.79 124.78 220.82C130.78 220.2 143.32 214.82 148.54 207.98C158.6 194.62 143.04 181.68 128.48 180.58ZM127.5 206.84C119.24 206.36 110.06 194.6 112.84 189.68C114.84 184.78 127.92 184.26 134.5 186.84C128.16 192.64 124.98 201.64 127.5 206.84Z" fill="#001434"/>
<path d="M155.44 178C150.656 176.478 146.463 173.508 143.44 169.5C143.259 169.234 143.028 169.006 142.759 168.83C142.49 168.654 142.189 168.533 141.873 168.473C141.557 168.414 141.232 168.417 140.918 168.484C140.603 168.55 140.305 168.678 140.04 168.86C136.04 171.14 144.98 180.3 154.86 182.86C155.469 182.87 156.06 182.654 156.519 182.254C156.978 181.853 157.272 181.297 157.344 180.692C157.416 180.087 157.262 179.477 156.91 178.98C156.558 178.482 156.034 178.133 155.44 178Z" fill="#001434"/>
<path d="M162.52 202.72C161.4 196.4 168.28 194.3 172.52 196.44C173.402 196.906 174.114 197.638 174.556 198.532C174.998 199.426 175.146 200.436 174.98 201.42C174.942 202.07 175.162 202.708 175.593 203.194C176.024 203.682 176.631 203.978 177.28 204.02C183.12 203.24 178.36 193.22 174.86 192.02C167.18 187.66 155.46 194.02 157.76 203.56C157.963 204.096 158.347 204.544 158.845 204.826C159.343 205.11 159.924 205.21 160.488 205.11C161.052 205.01 161.563 204.718 161.934 204.282C162.305 203.844 162.513 203.292 162.52 202.72Z" fill="#001434"/>
</svg>
