<svg width="400" height="400" viewBox="0 0 400 400" fill="none" xmlns="http://www.w3.org/2000/svg">
<path d="M40 200C40 242.435 56.8571 283.131 86.8629 313.137C116.869 343.143 157.565 360 200 360C242.435 360 283.131 343.143 313.137 313.137C343.143 283.131 360 242.435 360 200C360 157.565 343.143 116.869 313.137 86.8629C283.131 56.8571 242.435 40 200 40C157.565 40 116.869 56.8571 86.8629 86.8629C56.8571 116.869 40 157.565 40 200Z" fill="#D9EDFF"/>
<path d="M277.336 323.94C277.336 328.156 242.408 331.572 199.336 331.572C156.264 331.572 121.336 328.156 121.336 323.94C121.336 319.724 156.264 316.308 199.336 316.308C242.408 316.308 277.336 319.724 277.336 323.94Z" fill="#B0D9FF"/>
<path d="M119.948 78.612H278.696V292.312H119.948V78.612Z" fill="white"/>
<path d="M119.948 78.612H278.696V292.312H119.948V78.612Z" stroke="#020064" stroke-width="4"/>
<path d="M300.756 247.752C300.756 248.926 300.29 250.051 299.461 250.882C298.631 251.712 297.506 252.179 296.332 252.18H278.696V222.348H300.756V247.752Z" fill="#B0D9FF" stroke="#020064" stroke-width="4" stroke-linejoin="round"/>
<path d="M278.696 132.888H300.76V162.72H278.696V132.888Z" fill="white" stroke="#020064" stroke-width="4" stroke-linejoin="round"/>
<path d="M278.696 162.708H300.76V192.54H278.696V162.708Z" fill="#B0D9FF" stroke="#020064" stroke-width="4" stroke-linejoin="round"/>
<path d="M278.696 192.528H300.76V222.36H278.696V192.528Z" fill="white" stroke="#020064" stroke-width="4" stroke-linejoin="round"/>
<path d="M300.756 132.9H278.696V103.068H296.332C297.505 103.068 298.631 103.534 299.46 104.364C300.29 105.193 300.756 106.319 300.756 107.492V132.9Z" fill="#B0D9FF" stroke="#020064" stroke-width="4" stroke-linejoin="round"/>
<path d="M171.844 188.512H257.324V255.676H171.844V188.512Z" fill="#B0D9FF" stroke="#020064" stroke-width="4"/>
<path d="M187.108 206.828H242.06" stroke="#020064" stroke-width="4" stroke-linecap="round" stroke-linejoin="round"/>
<path d="M187.108 222.092H242.06" stroke="#020064" stroke-width="4" stroke-linecap="round" stroke-linejoin="round"/>
<path d="M187.108 237.356H242.06" stroke="#020064" stroke-width="4" stroke-linecap="round" stroke-linejoin="round"/>
<path d="M215.468 118.564C212.474 118.572 209.511 119.17 206.748 120.324C203.985 121.478 201.476 123.164 199.365 125.287C197.254 127.41 195.581 129.929 194.443 132.698C193.305 135.467 192.724 138.434 192.732 141.428C192.74 144.422 193.338 147.385 194.492 150.148C195.646 152.911 197.332 155.42 199.455 157.531C201.578 159.643 204.097 161.315 206.866 162.453C209.635 163.591 212.602 164.172 215.596 164.164C223.904 164.164 234.292 157.992 234.292 154.528C234.292 154.327 234.25 154.129 234.169 153.946C234.088 153.762 233.97 153.597 233.822 153.462C233.675 153.326 233.5 153.222 233.311 153.157C233.121 153.092 232.92 153.067 232.72 153.084C229.2 153.068 226.676 160 216.036 160C213.534 160.127 211.032 159.749 208.679 158.889C206.326 158.028 204.171 156.702 202.342 154.99C200.513 153.278 199.047 151.215 198.033 148.924C197.019 146.633 196.476 144.161 196.438 141.656C196.4 139.151 196.867 136.664 197.811 134.344C198.755 132.023 200.157 129.916 201.933 128.149C203.709 126.382 205.823 124.991 208.148 124.059C210.474 123.127 212.963 122.673 215.468 122.724C224.472 122.724 232.72 128.324 232.72 138.088C232.72 144.572 228.44 150.556 224.412 150.556C224.168 150.584 223.921 150.555 223.69 150.472C223.458 150.389 223.249 150.254 223.079 150.077C222.908 149.901 222.781 149.687 222.706 149.453C222.631 149.219 222.611 148.971 222.648 148.728C222.698 147.849 222.867 146.982 223.148 146.148L227.056 132.672C227.317 131.941 227.485 131.181 227.556 130.408C227.556 129.396 226.548 129.02 225.556 129.02C224.982 128.948 224.403 129.096 223.935 129.436C223.467 129.775 223.145 130.28 223.036 130.848L222.236 133.36C221.635 131.916 220.607 130.691 219.291 129.848C217.974 129.005 216.43 128.585 214.868 128.644C206.372 128.644 200.64 136.956 200.64 144.948C200.605 146.224 200.824 147.495 201.285 148.686C201.745 149.877 202.438 150.964 203.323 151.885C204.208 152.805 205.267 153.541 206.439 154.048C207.61 154.555 208.871 154.825 210.148 154.84C211.533 154.75 212.887 154.386 214.13 153.768C215.373 153.149 216.48 152.29 217.388 151.24H217.516C217.56 151.769 217.709 152.283 217.956 152.753C218.203 153.223 218.541 153.638 218.952 153.974C219.363 154.31 219.837 154.559 220.346 154.708C220.855 154.857 221.389 154.902 221.916 154.84C226.277 154.509 230.34 152.499 233.249 149.234C236.158 145.969 237.688 141.702 237.516 137.332C237.516 126.188 227.38 118.572 215.48 118.572L215.468 118.564ZM211.312 150.044C210.597 150.025 209.892 149.861 209.242 149.563C208.591 149.264 208.007 148.838 207.525 148.309C207.043 147.779 206.673 147.158 206.437 146.482C206.201 145.807 206.104 145.09 206.152 144.376C206.152 139.656 209.108 133.42 215.156 133.42C218.3 133.42 219.876 134.872 219.876 137.956C219.876 141.48 217.544 150.044 211.312 150.044Z" fill="#020064"/>
<path d="M150.476 292.308H130.568C129.173 292.309 127.792 292.034 126.503 291.501C125.215 290.967 124.044 290.185 123.057 289.199C122.071 288.212 121.289 287.041 120.755 285.753C120.222 284.464 119.947 283.083 119.948 281.688V89.228C119.948 86.4125 121.066 83.7122 123.057 81.7214C125.048 79.7305 127.748 78.612 130.564 78.612H150.476V292.308Z" fill="#B0D9FF"/>
<path d="M150.476 292.308H130.568C129.173 292.309 127.792 292.034 126.503 291.501C125.215 290.967 124.044 290.185 123.057 289.199C122.071 288.212 121.289 287.041 120.755 285.753C120.222 284.464 119.947 283.083 119.948 281.688V89.228C119.948 86.4125 121.066 83.7122 123.057 81.7214C125.048 79.7305 127.748 78.612 130.564 78.612H150.476V292.308Z" stroke="#020064" stroke-width="4"/>
</svg>
