<svg width="400" height="400" viewBox="0 0 400 400" fill="none" xmlns="http://www.w3.org/2000/svg">
<path d="M43.1001 222.3C31.3201 189.68 38.2401 157.14 58.5401 149.84C60.5885 149.1 62.7282 148.643 64.9001 148.48C64.334 148.194 63.7146 148.028 63.0811 147.994C62.4476 147.959 61.8139 148.057 61.2201 148.28C45.3201 152.14 29.2201 158.84 22.9001 175.12C11.1201 205.62 28.0001 253.24 55.8001 270.48C71.4401 280.14 84.4201 274.74 100.1 268.72C80.0001 274.82 54.6801 254.4 43.1001 222.3Z" fill="#FFE7AB"/>
<path d="M91.56 156.84C78 146 63.26 146.24 60.94 147.06C46.3 150.62 28.6 157.06 21.74 174.66C9.74001 205.44 26.56 253.86 55.14 271.54C70.42 280.98 82.96 276.64 99.4 270.32C109.72 266.32 118.34 259.72 122.14 241.86C128.28 213.08 114.62 175.12 91.56 156.84ZM51.08 152.52C45.0844 157.465 40.7783 164.155 38.76 171.66L23 178.64C26.56 167.36 34.1 158.46 51.08 152.52ZM22.12 181.72L38 174.8C36.2009 182.666 35.7211 190.777 36.58 198.8C31.0369 200.391 25.7401 202.739 20.84 205.78C19.8401 197.747 20.2735 189.601 22.12 181.72ZM21.1 208.58C25.9363 205.424 31.2043 202.985 36.74 201.34C37.8179 209.721 39.9481 217.932 43.08 225.78L27.58 232.36C24.4703 224.723 22.2945 216.739 21.1 208.58ZM28.52 234.58L44 228.1C47.1528 235.626 51.2671 242.711 56.24 249.18C50.9211 251.292 45.4174 252.906 39.8 254C35.2549 248.03 31.4661 241.521 28.52 234.62V234.58ZM41.56 256.18C47.1929 255.103 52.7014 253.454 58 251.26C62.587 256.716 67.9829 261.438 74 265.26C68.842 267.339 63.4789 268.867 58 269.82C57.24 269.94 57.88 270.3 56.48 269.42C50.829 265.851 45.7909 261.394 41.56 256.22V256.18ZM60.88 271.74C66.2707 270.634 71.5322 268.972 76.58 266.78C80.919 269.095 85.6808 270.51 90.58 270.94C80.28 274.58 71.12 276.4 60.88 271.78V271.74ZM119.72 241.3C116.9 254.56 110.16 263.7 100.78 267.08C81.68 273.96 61.42 254.78 51.24 237.08C40 217.16 34.58 190 42 169.66C50.36 147.16 70.96 143.66 90 158.78C112.32 176.48 125.64 213.48 119.72 241.34V241.3Z" fill="#EFAC54"/>
<path d="M91.76 201.46C87.46 207.66 78.12 205.24 76.08 198.68C75.9951 198.351 75.7831 198.069 75.4905 197.897C75.1979 197.724 74.8488 197.675 74.52 197.76C74.1911 197.845 73.9094 198.057 73.7369 198.349C73.5643 198.642 73.5151 198.991 73.6 199.32C74.4554 201.87 76.1429 204.059 78.3916 205.535C80.6404 207.011 83.3198 207.689 86 207.46C95.52 206.22 98.46 194.46 92.58 188.14C91.42 187.02 89.64 188.78 90.82 189.9C90.94 190.12 95.64 195.48 91.76 201.46Z" fill="#5E503B"/>
<path d="M104.54 236.88L99.76 239.32C99.16 237.32 98.6 235.32 98.06 233.18L105.32 229.62C106.76 228.92 105.52 226.76 104.08 227.48L97.42 230.72L96.58 227.36C98.4592 221.397 100.883 215.619 103.82 210.1C104.6 208.68 102.44 207.44 101.68 208.84C98.8735 214.185 96.5251 219.758 94.66 225.5C89.4439 223.067 84.1031 220.911 78.66 219.04C77.14 218.52 76.48 220.9 78 221.52V221.4C83.4467 223.314 88.7876 225.518 94 228L94.96 231.88L86 236.34C84.56 237.04 85.82 239.18 87.28 238.48L95.76 234.32C96.32 236.32 96.9 238.46 97.52 240.5L91.28 243.66C89.84 244.42 91.1 246.54 92.52 245.82L98.24 242.92C98.9 245.06 99.56 247.18 100.24 249.32C100.72 250.84 103.18 250.18 102.72 248.66C102.02 246.36 101.22 244.06 100.52 241.74L105.84 239.06C107.24 238.34 106 236.16 104.54 236.88Z" fill="#EFAC54"/>
<path d="M277.12 25.16C259.88 10.54 239.76 10.22 218.26 10.72H217.24C255 10.72 281.06 41.42 281.06 76.08C281.06 112.18 253.22 141.4 218.8 141.4H216.46C216.937 141.672 217.471 141.83 218.02 141.86C239.18 142.38 261.08 140.98 277.76 126.52C284.915 120.142 290.63 112.312 294.524 103.553C298.418 94.7936 300.402 85.3055 300.343 75.7199C300.285 66.1343 298.185 56.6712 294.184 47.9603C290.183 39.2493 284.373 31.4905 277.14 25.2L277.12 25.16Z" fill="#FFE7AB"/>
<path d="M218.8 10.72C253.14 10.72 280.98 40 280.98 76C280.98 112 253.14 141.42 218.8 141.42C184.46 141.42 156.64 112.16 156.64 76C156.64 39.84 184.48 10.72 218.8 10.72Z" fill="white"/>
<path d="M218.06 135.46C249.352 135.46 274.72 108.785 274.72 75.88C274.72 42.9749 249.352 16.3 218.06 16.3C186.768 16.3 161.4 42.9749 161.4 75.88C161.4 108.785 186.768 135.46 218.06 135.46Z" fill="#FFFDA9"/>
<path d="M218 136.7C186 136.7 160 109.42 160 75.88C160 42.34 186 15.04 218 15.04C250 15.04 276 42.34 276 75.88C276 109.42 250 136.7 218 136.7ZM218 17.54C187.44 17.54 162.58 43.7 162.58 75.88C162.58 108.06 187.5 134.22 218 134.22C248.5 134.22 273.48 108 273.48 75.88C273.48 43.76 248.62 17.54 218 17.54Z" fill="#5E503B"/>
<path d="M225.54 77.86C224.373 76.3344 222.912 75.0593 221.242 74.1109C219.572 73.1625 217.728 72.5603 215.82 72.34L216.1 68C216.085 67.6725 215.947 67.3628 215.713 67.1329C215.48 66.9029 215.168 66.7698 214.84 66.76C214.511 66.76 214.196 66.8906 213.963 67.1232C213.731 67.3557 213.6 67.6711 213.6 68L213.34 72.32C206.48 73 200.6 79.66 203.12 86.68C203.743 88.3358 204.693 89.8495 205.912 91.131C207.132 92.4125 208.597 93.4358 210.22 94.14C213.86 95.82 217.68 96.14 220.62 99.28C221.873 100.687 222.77 102.374 223.235 104.199C223.7 106.025 223.72 107.935 223.293 109.77C222.865 111.605 222.003 113.31 220.78 114.742C219.556 116.175 218.006 117.292 216.26 118C210.42 120.2 201.84 116.94 201.72 110C201.72 109.671 201.589 109.356 201.357 109.123C201.124 108.891 200.809 108.76 200.48 108.76C200.151 108.76 199.836 108.891 199.603 109.123C199.371 109.356 199.24 109.671 199.24 110C199.474 112.793 200.677 115.416 202.643 117.415C204.608 119.413 207.211 120.66 210 120.94L209.68 125.18C209.68 125.511 209.81 125.828 210.042 126.064C210.274 126.3 210.589 126.435 210.92 126.44C211.251 126.435 211.566 126.3 211.798 126.064C212.03 125.828 212.16 125.511 212.16 125.18L212.48 121.18C215.195 121.119 217.833 120.27 220.074 118.736C222.315 117.202 224.061 115.049 225.1 112.54C226.387 109.351 226.476 105.804 225.351 102.554C224.226 99.3041 221.963 96.5712 218.98 94.86C215.34 92.86 211.12 92.6 207.92 89.7C206.535 88.4822 205.598 86.8361 205.257 85.0239C204.917 83.2116 205.192 81.3375 206.04 79.7C207.216 77.7437 209.025 76.2485 211.168 75.4626C213.311 74.6768 215.658 74.6476 217.82 75.38C221.82 76.6 225.82 80.36 224.44 84.86C223.96 86.4 226.44 87.04 226.92 85.52C227.262 84.2198 227.316 82.8605 227.078 81.5372C226.84 80.214 226.315 78.959 225.54 77.86Z" fill="#EFAC54"/>
<path d="M225.32 42.4C225.52 45.8161 224.362 49.1728 222.1 51.74C216.3 57.74 207.52 52.04 208.58 43.38C209.633 44.6187 210.959 45.596 212.454 46.235C213.949 46.8739 215.571 47.157 217.194 47.062C218.817 46.967 220.396 46.4965 221.806 45.6875C223.216 44.8785 224.419 43.7531 225.32 42.4Z" fill="white"/>
<path d="M216.4 55.44C209.86 55.44 206.7 48.48 207.34 43.24C207.372 43.005 207.47 42.7837 207.622 42.6017C207.774 42.4198 207.974 42.2844 208.2 42.2113C208.426 42.1382 208.667 42.1302 208.897 42.1884C209.127 42.2465 209.336 42.3684 209.5 42.54C210.427 43.6381 211.596 44.506 212.916 45.0751C214.236 45.6442 215.67 45.899 217.104 45.8195C218.539 45.74 219.936 45.3283 221.185 44.6169C222.434 43.9055 223.5 42.9138 224.3 41.72C224.443 41.4992 224.652 41.3295 224.898 41.2354C225.144 41.1414 225.413 41.1279 225.667 41.197C225.92 41.266 226.146 41.4139 226.31 41.6194C226.474 41.8249 226.569 42.0772 226.58 42.34C226.94 48.6 223 55.44 216.4 55.44ZM223.8 45.86C221.819 47.4352 219.375 48.3142 216.844 48.3612C214.314 48.4082 211.838 47.6206 209.8 46.12C211.26 55.34 221.6 55.26 223.8 45.86Z" fill="#5E503B"/>
<path d="M284.16 30.38C266.16 10.16 245.02 9.06 218.16 9.48C184 10 155.38 39.14 155.38 76C155.38 111.02 181.38 141.24 217.98 143.02C240.08 143.58 261.98 141.82 278.6 127.36C292.162 115.215 300.361 98.1929 301.403 80.0179C302.445 61.8429 296.245 43.9952 284.16 30.38ZM299 73.18C293.4 72.7667 287.793 72.4267 282.18 72.16C281.997 68.7449 281.555 65.3486 280.86 62L298 64C298.549 67.0326 298.883 70.1003 299 73.18ZM294.26 51.18C295.59 54.476 296.654 57.8736 297.44 61.34L280.3 59.34C279.463 55.9279 278.367 52.5848 277.02 49.34C282.699 49.5393 288.359 50.1206 293.96 51.08C294.045 51.1625 294.147 51.2241 294.26 51.26V51.18ZM288.12 39.52C289.998 42.3524 291.649 45.3283 293.06 48.42C287.374 47.5167 281.635 46.9823 275.88 46.82C274.276 43.3999 272.396 40.1158 270.26 37C283.28 38.12 287.08 39.82 288.12 39.6V39.52ZM277.9 27.52C280.875 30.3117 283.586 33.3713 286 36.66C280.122 35.514 274.176 34.7458 268.2 34.36C266.048 31.5658 263.681 28.9445 261.12 26.52C278.66 27.84 277.44 27.84 278 27.56L277.9 27.52ZM266.62 19.52C269.6 21.1399 272.431 23.0205 275.08 25.14C257.32 23.82 258.5 23.88 258.22 23.94C255.476 21.7035 252.553 19.6967 249.48 17.94C266.18 19.48 265.86 19.86 266.62 19.46V19.52ZM259.72 16.42C251.08 15.5 245.12 14.64 244.2 15.1C241.661 13.8886 239.041 12.8528 236.36 12C244.322 12.2681 252.197 13.7381 259.72 16.36V16.42ZM157.88 76C157.88 40.72 185.22 12 218.8 12C252.38 12 279.74 40.72 279.74 76C279.74 111.28 252.4 140.18 218.8 140.18C185.2 140.18 157.88 111.42 157.88 76ZM235.38 140.28C238.245 139.467 241.045 138.444 243.76 137.22C247.085 137.513 250.426 137.58 253.76 137.42C247.745 139.004 241.589 139.989 235.38 140.36V140.28ZM263.04 134.28C262.895 134.164 262.728 134.079 262.549 134.031C262.37 133.983 262.183 133.972 262 134C257.488 134.759 252.914 135.08 248.34 134.96C253.02 132.36 255.56 130.18 254.9 130.96C261.1 130.387 267.267 129.553 273.4 128.46C270.168 130.776 266.694 132.734 263.04 134.3V134.28ZM277.6 124.96C277.1 124.96 269.88 126.64 258.6 127.9C261.253 125.692 263.727 123.277 266 120.68C272.205 120.161 278.366 119.212 284.44 117.84C282.346 120.391 280.059 122.778 277.6 124.98V124.96ZM286.6 114.86C286.384 114.799 286.156 114.799 285.94 114.86C280.057 116.206 274.109 117.254 268.12 118C270.264 115.227 272.19 112.291 273.88 109.22C274.44 109.6 273.28 109.62 291.4 107.22C289.97 109.876 288.366 112.435 286.6 114.88V114.86ZM292.72 104.48L275.08 106.84C276.575 103.852 277.846 100.757 278.88 97.58H279.04C284.466 98.3797 289.973 98.4604 295.42 97.82C294.64 100.093 293.739 102.323 292.72 104.5V104.48ZM296.28 95.18C290.763 95.9883 285.157 95.9883 279.64 95.18C280.514 92.1214 281.182 89.0078 281.64 85.86C287.18 86.18 292.78 86.26 298.34 86.08C297.871 89.1652 297.183 92.213 296.28 95.2V95.18ZM282 83.36C282.298 80.4701 282.418 77.5646 282.36 74.66C287.96 74.9 293.553 75.24 299.14 75.68C299.156 78.3121 299.023 80.9431 298.74 83.56C293.08 83.76 287.48 83.68 282 83.36Z" fill="#5E503B"/>
<path d="M315.62 210.88C335.789 232.185 357.625 251.847 380.92 269.68C356.998 280.643 336.092 297.245 319.996 318.062C303.899 338.879 293.091 363.289 288.5 389.2C263.16 376.56 233 356.36 207.62 343.72C208.94 342.86 226.84 258.98 315.62 210.88Z" fill="#DCE28F"/>
<path d="M359.84 263.24C355.973 260.302 352.366 257.037 349.06 253.48C338.06 242.06 327.06 235.82 318.58 224.92C318.465 224.804 318.328 224.712 318.177 224.649C318.026 224.586 317.864 224.554 317.7 224.554C317.536 224.554 317.374 224.586 317.223 224.649C317.072 224.712 316.935 224.804 316.82 224.92C313.82 227.9 309.08 228.6 306.32 224.92C306.146 224.639 305.871 224.435 305.551 224.349C305.232 224.264 304.891 224.303 304.6 224.46C262.2 247.2 237.46 285.86 218.6 330.46C218.509 330.626 218.456 330.811 218.446 331C218.435 331.189 218.468 331.378 218.541 331.553C218.614 331.728 218.726 331.884 218.867 332.01C219.009 332.136 219.178 332.228 219.36 332.28C224.3 333.4 225.24 338.94 224.34 343.16C224.279 343.423 224.3 343.698 224.4 343.948C224.501 344.198 224.675 344.412 224.9 344.56C233.54 349.78 268.2 369.6 276.6 374.8C276.776 374.88 276.967 374.922 277.16 374.924C277.354 374.925 277.545 374.886 277.723 374.809C277.9 374.731 278.059 374.617 278.189 374.475C278.32 374.332 278.419 374.163 278.48 373.98C279.009 372.494 279.866 371.147 280.988 370.039C282.11 368.931 283.468 368.09 284.96 367.58C285.98 367.14 286.06 366.54 286.4 365.58C295.51 337.272 312.383 312.09 335.1 292.9C342.487 286.796 350.36 281.305 358.64 276.48C358.92 276.31 359.123 276.037 359.205 275.719C359.287 275.402 359.242 275.065 359.08 274.78C358.091 273.335 357.621 271.598 357.744 269.852C357.868 268.105 358.578 266.452 359.76 265.16C359.904 265.048 360.022 264.905 360.106 264.743C360.19 264.58 360.237 264.401 360.245 264.219C360.252 264.036 360.22 263.854 360.15 263.685C360.08 263.516 359.974 263.364 359.84 263.24ZM283.84 365.24C280.755 366.439 278.225 368.741 276.74 371.7C276.14 371.32 227.2 342.76 227 342.64C227.62 337.72 226.36 331.9 221.4 330.08C228.065 314.01 236.095 298.54 245.4 283.84C260.3 260.32 280.48 240.12 304.8 227C305.587 227.863 306.537 228.562 307.595 229.057C308.652 229.552 309.797 229.833 310.964 229.885C312.131 229.937 313.296 229.759 314.394 229.36C315.491 228.961 316.499 228.349 317.36 227.56C325.66 237.74 334.54 242.56 347.5 255.56C350.463 258.697 353.659 261.605 357.06 264.26C356.008 265.77 355.378 267.534 355.234 269.369C355.09 271.204 355.437 273.044 356.24 274.7C321.706 294.867 295.902 327.151 283.84 365.28V365.24Z" fill="#5E503B"/>
<path d="M305.2 289.42C298.78 279.28 285.2 275.2 275.44 282.4L270.44 278.16C270.2 277.939 269.886 277.817 269.56 277.817C269.234 277.817 268.92 277.939 268.68 278.16C268.444 278.396 268.312 278.716 268.312 279.05C268.312 279.384 268.444 279.704 268.68 279.94L273.52 283.94C272.163 285.295 271.047 286.871 270.22 288.6L265.4 285.04C265.258 284.958 265.102 284.905 264.939 284.883C264.777 284.862 264.612 284.873 264.454 284.916C264.296 284.959 264.148 285.032 264.019 285.132C263.889 285.233 263.781 285.358 263.7 285.5C263.618 285.64 263.565 285.795 263.544 285.956C263.523 286.117 263.534 286.28 263.577 286.437C263.62 286.593 263.694 286.739 263.794 286.867C263.894 286.995 264.018 287.101 264.16 287.18L269.28 290.98C265.5 303.3 276.32 314.24 289.12 315.82C290.7 316.02 291.36 313.66 289.8 313.32C276.88 311.9 269.3 301.66 271.38 292.52L276 296.2C276.279 296.363 276.611 296.41 276.925 296.332C277.239 296.253 277.51 296.055 277.68 295.78C277.766 295.639 277.823 295.482 277.847 295.318C277.872 295.154 277.863 294.988 277.822 294.827C277.781 294.667 277.709 294.517 277.609 294.385C277.509 294.253 277.383 294.143 277.24 294.06L272.12 290.28C272.901 288.575 274.009 287.039 275.38 285.76L279.84 289.52C279.954 289.639 280.09 289.733 280.242 289.797C280.393 289.862 280.556 289.895 280.72 289.895C280.884 289.895 281.047 289.862 281.198 289.797C281.349 289.733 281.486 289.639 281.6 289.52C281.83 289.285 281.958 288.969 281.958 288.64C281.958 288.311 281.83 287.995 281.6 287.76L277.36 284.18C286.42 278.02 297.7 282.18 303.04 290.68C303.88 292 306 290.68 305.2 289.42Z" fill="#5E503B"/>
<path d="M312.64 259.74C310.786 258.793 309.221 257.366 308.109 255.606C306.997 253.847 306.379 251.821 306.32 249.74C305.373 252.112 304.585 254.544 303.96 257.02C300.92 266.12 308.58 272.26 315.74 269.02C319.143 267.424 322.185 265.151 324.68 262.34C320.516 262.455 316.386 261.563 312.64 259.74Z" fill="white"/>
<path d="M312 271.18C303.82 271.18 300.62 263.42 302.88 256.66C303.427 254.325 304.197 252.048 305.18 249.86C305.18 249.66 305.18 248.58 306.38 248.54C306.707 248.534 307.024 248.657 307.263 248.881C307.502 249.105 307.644 249.413 307.66 249.74C307.726 251.593 308.286 253.395 309.281 254.959C310.276 256.524 311.67 257.794 313.32 258.64C316.883 260.369 320.8 261.245 324.76 261.2C324.989 261.207 325.211 261.278 325.402 261.403C325.593 261.529 325.746 261.705 325.843 261.912C325.94 262.119 325.978 262.349 325.953 262.576C325.928 262.803 325.84 263.019 325.7 263.2C323.108 266.153 319.926 268.531 316.36 270.18C314.991 270.811 313.507 271.152 312 271.18ZM315.32 267.98C317.733 266.861 319.959 265.377 321.92 263.58C318.539 263.284 315.243 262.362 312.2 260.86C309.476 259.457 307.346 257.122 306.2 254.28C305.862 255.285 305.575 256.306 305.34 257.34C302.44 265.58 309.08 270.7 315.22 268L315.32 267.98Z" fill="#5E503B"/>
<path d="M132.94 55.82C127.993 52.2949 122.298 49.9609 116.3 49C115.79 48.8319 115.253 48.7658 114.718 48.8055C114.183 48.8452 113.661 48.9899 113.182 49.2313C112.702 49.4728 112.275 49.8062 111.925 50.2126C111.575 50.619 111.308 51.0905 111.14 51.6C110.972 52.1095 110.906 52.6472 110.945 53.1823C110.985 53.7173 111.13 54.2393 111.371 54.7185C111.613 55.1976 111.946 55.6245 112.353 55.9748C112.759 56.3251 113.23 56.5919 113.74 56.76C87.24 62.52 63.22 83.26 55.74 110.88C55.5245 111.914 55.7104 112.992 56.2602 113.894C56.8099 114.796 57.6822 115.455 58.7001 115.737C59.718 116.02 60.8053 115.904 61.7412 115.415C62.6772 114.925 63.3918 114.097 63.74 113.1C67.4077 100.759 74.4171 89.6728 83.9931 81.0674C93.5691 72.4621 105.339 66.6729 118 64.34C116.48 65.36 114.92 66.34 113.34 67.3C112.385 67.8543 111.69 68.7652 111.407 69.8323C111.123 70.8994 111.276 72.0352 111.83 72.99C112.384 73.9448 113.295 74.6403 114.362 74.9234C115.429 75.2066 116.565 75.0543 117.52 74.5C123.368 71.06 128.82 66.989 133.78 62.36C134.22 61.9049 134.553 61.3565 134.752 60.7554C134.952 60.1544 135.014 59.5161 134.933 58.888C134.852 58.2598 134.631 57.6579 134.286 57.1268C133.941 56.5957 133.481 56.1491 132.94 55.82Z" fill="#FFAAD7"/>
<path d="M365.58 180.6C364.743 180.123 363.768 179.948 362.818 180.105C361.867 180.261 361 180.74 360.36 181.46C363.415 167.824 362.712 153.615 358.327 140.347C353.942 127.079 346.039 115.25 335.46 106.12C334.672 105.382 333.628 104.979 332.548 104.996C331.468 105.014 330.438 105.451 329.674 106.214C328.911 106.978 328.474 108.008 328.456 109.088C328.439 110.168 328.842 111.212 329.58 112V112.14C339.439 120.551 346.759 131.544 350.719 143.883C354.679 156.223 355.123 169.422 352 182C351.7 180.3 351.4 177.26 351.32 177.06C351.32 175.957 350.882 174.899 350.102 174.118C349.321 173.338 348.263 172.9 347.16 172.9C346.057 172.9 344.999 173.338 344.218 174.118C343.438 174.899 343 175.957 343 177.06C343.758 183.852 345.192 190.552 347.28 197.06C347.457 197.668 347.77 198.228 348.194 198.698C348.618 199.168 349.144 199.537 349.73 199.775C350.317 200.014 350.95 200.116 351.582 200.076C352.214 200.035 352.829 199.852 353.38 199.54C358.937 196.323 363.658 191.842 367.16 186.46C367.456 185.976 367.651 185.436 367.732 184.874C367.813 184.311 367.778 183.739 367.63 183.19C367.483 182.642 367.224 182.129 366.872 181.684C366.519 181.239 366.08 180.87 365.58 180.6Z" fill="#FFA02E"/>
<path d="M174 353.36C172 346.82 163.1 353.86 143.46 348.54C126.913 344.312 112.494 334.156 102.94 320C104.64 321.06 106.3 322.16 107.94 323.32C108.891 323.869 110.021 324.022 111.084 323.745C112.146 323.468 113.058 322.784 113.62 321.84C114.154 320.885 114.298 319.761 114.022 318.703C113.746 317.644 113.072 316.733 112.14 316.16C106.901 312.422 101.291 309.232 95.4 306.64C94.8422 306.333 94.2227 306.153 93.5868 306.116C92.951 306.078 92.3147 306.183 91.7245 306.422C91.1342 306.662 90.6049 307.03 90.1751 307.5C89.7453 307.971 89.4258 308.531 89.24 309.14C87.868 315.45 88.0119 321.996 89.6601 328.24C89.8122 329.317 90.3797 330.291 91.2412 330.954C92.1027 331.617 93.1896 331.917 94.2692 331.789C95.3489 331.661 96.3355 331.115 97.0179 330.269C97.7002 329.422 98.024 328.342 97.92 327.26C106.194 338.539 117.356 347.379 130.231 352.848C143.106 358.318 157.218 360.215 171.08 358.34C172.114 358.045 172.994 357.362 173.538 356.435C174.082 355.508 174.247 354.406 174 353.36Z" fill="#51BDBF"/>
<path d="M60.78 203.04C64.9442 203.04 68.32 199.664 68.32 195.5C68.32 191.336 64.9442 187.96 60.78 187.96C56.6158 187.96 53.24 191.336 53.24 195.5C53.24 199.664 56.6158 203.04 60.78 203.04Z" fill="#FFCECC"/>
<path d="M98.08 186.86C102.244 186.86 105.62 183.484 105.62 179.32C105.62 175.156 102.244 171.78 98.08 171.78C93.9158 171.78 90.54 175.156 90.54 179.32C90.54 183.484 93.9158 186.86 98.08 186.86Z" fill="#FFCECC"/>
<path d="M64.36 191.9C66.5139 191.9 68.26 190.154 68.26 188C68.26 185.846 66.5139 184.1 64.36 184.1C62.2061 184.1 60.46 185.846 60.46 188C60.46 190.154 62.2061 191.9 64.36 191.9Z" fill="#5E503B"/>
<path d="M90.38 180.06C92.5339 180.06 94.28 178.314 94.28 176.16C94.28 174.006 92.5339 172.26 90.38 172.26C88.2261 172.26 86.48 174.006 86.48 176.16C86.48 178.314 88.2261 180.06 90.38 180.06Z" fill="#5E503B"/>
<path d="M190.58 50.76C195.573 50.76 199.62 46.7127 199.62 41.72C199.62 36.7274 195.573 32.68 190.58 32.68C185.587 32.68 181.54 36.7274 181.54 41.72C181.54 46.7127 185.587 50.76 190.58 50.76Z" fill="#EFAC54"/>
<path d="M243.7 52.58C248.693 52.58 252.74 48.5327 252.74 43.54C252.74 38.5473 248.693 34.5 243.7 34.5C238.707 34.5 234.66 38.5473 234.66 43.54C234.66 48.5327 238.707 52.58 243.7 52.58Z" fill="#EFAC54"/>
<path d="M198 39.68C200.585 39.68 202.68 37.5847 202.68 35C202.68 32.4153 200.585 30.32 198 30.32C195.415 30.32 193.32 32.4153 193.32 35C193.32 37.5847 195.415 39.68 198 39.68Z" fill="#5E503B"/>
<path d="M236.6 41.22C239.185 41.22 241.28 39.1247 241.28 36.54C241.28 33.9553 239.185 31.86 236.6 31.86C234.015 31.86 231.92 33.9553 231.92 36.54C231.92 39.1247 234.015 41.22 236.6 41.22Z" fill="#5E503B"/>
<path d="M300.88 248.2C305.188 248.2 308.68 244.708 308.68 240.4C308.68 236.092 305.188 232.6 300.88 232.6C296.572 232.6 293.08 236.092 293.08 240.4C293.08 244.708 296.572 248.2 300.88 248.2Z" fill="#C1C69B"/>
<path d="M334.7 261.48C336.244 261.476 337.754 261.93 339.039 262.785C340.324 263.639 341.327 264.856 341.921 266.281C342.514 267.706 342.671 269.275 342.373 270.789C342.074 272.304 341.333 273.695 340.243 274.788C339.153 275.881 337.763 276.626 336.249 276.929C334.736 277.231 333.166 277.078 331.74 276.488C330.313 275.898 329.094 274.899 328.236 273.616C327.378 272.332 326.92 270.824 326.92 269.28C326.92 267.215 327.739 265.234 329.198 263.772C330.656 262.309 332.635 261.485 334.7 261.48Z" fill="#C1C69B"/>
<path d="M309.46 235.6C308.669 235.6 307.895 235.835 307.238 236.274C306.58 236.714 306.067 237.338 305.764 238.069C305.462 238.8 305.382 239.604 305.537 240.38C305.691 241.156 306.072 241.869 306.632 242.428C307.191 242.988 307.904 243.369 308.68 243.523C309.456 243.677 310.26 243.598 310.991 243.296C311.722 242.993 312.346 242.48 312.786 241.822C313.225 241.164 313.46 240.391 313.46 239.6C313.46 238.539 313.039 237.522 312.288 236.772C311.538 236.021 310.521 235.6 309.46 235.6Z" fill="#5E503B"/>
<path d="M333.46 256.74C332.669 256.74 331.895 256.975 331.238 257.414C330.58 257.854 330.067 258.478 329.764 259.209C329.462 259.94 329.382 260.744 329.537 261.52C329.691 262.296 330.072 263.009 330.632 263.568C331.191 264.128 331.904 264.509 332.68 264.663C333.456 264.817 334.26 264.738 334.991 264.436C335.722 264.133 336.346 263.62 336.786 262.962C337.225 262.304 337.46 261.531 337.46 260.74C337.46 259.679 337.039 258.662 336.288 257.912C335.538 257.161 334.521 256.74 333.46 256.74Z" fill="#5E503B"/>
</svg>
