<svg width="400" height="400" viewBox="0 0 400 400" fill="none" xmlns="http://www.w3.org/2000/svg">
<path d="M166.142 149.612C160.328 154.476 142.316 157.896 125.406 200.57L100.516 178.188C89.0272 184.018 80.1254 193.923 75.55 205.966L112.98 239.6C117.316 243.482 123.014 245.486 128.826 245.172C134.637 244.86 140.087 242.254 143.98 237.928L159.49 220.662L153.328 261.526L128.096 289.646C134.427 300.762 144.185 309.532 155.912 314.646L182.626 284.93C186.581 280.532 189.376 275.216 190.758 269.464C196.572 245.064 194.596 202.014 198.358 164.926C183.28 162.114 177.694 158.694 166.142 149.612Z" fill="#B8FFD4"/>
<path d="M372.072 151.322L328.752 197.036L345.928 121.416L389.248 75.702L372.072 151.322Z" fill="#E9E9E9"/>
<path d="M234.732 134.564C234.162 134.184 233.174 134.526 231.882 135.438L234.882 137.908C235.378 136.16 235.378 134.944 234.732 134.564Z" fill="#E9E9E9"/>
<path d="M207.904 157.934C207.104 159.986 207.21 161.71 207.828 162.114C208.446 162.518 210.228 162.114 211.428 160.556L207.904 157.934Z" fill="#E9E9E9"/>
<path d="M225.2 136.236C224.63 135.856 223.642 136.198 222.35 137.11L225.35 139.58C225.84 137.87 225.8 136.654 225.2 136.236Z" fill="#E9E9E9"/>
<path d="M136.312 280.294L127.912 289.642C134.243 300.758 144.001 309.528 155.728 314.642L164.506 304.876C152.964 299.526 143.184 291 136.312 280.294Z" fill="#E9E9E9"/>
<path d="M184.648 142.468L198.708 164.318L202.432 157.554L184.648 142.468Z" fill="#E9E9E9"/>
<path d="M199.05 87.368L200.988 91.548L202.052 88.698L199.05 87.368Z" fill="#E9E9E9"/>
<path d="M188.98 187.84L159.454 220.672L156.452 240.812L188.98 187.84Z" fill="#E9E9E9"/>
<path d="M117.236 314.114C114.766 316.774 112.22 319.434 109.598 322.17C107.508 334.52 108.496 362.868 112.486 376.054C123.086 358.422 126.926 347.254 132.286 329.086C126.512 324.92 121.432 319.866 117.236 314.114Z" fill="#E9E9E9"/>
<path d="M75.4 168.384C73.576 166.56 71.486 164.318 68.712 161.316C47.2 164.356 23.528 171.538 13.496 176.288C28.7972 182.074 45.1876 184.41 61.496 183.128L62.332 183.888C65.9188 178.118 70.3202 172.896 75.4 168.384Z" fill="#E9E9E9"/>
<path d="M108.724 185.37L100.524 177.97C89.0438 183.811 80.1454 193.712 75.558 205.748L83.88 213.234C89.6374 201.97 98.1922 192.376 108.724 185.37Z" fill="#E9E9E9"/>
<path d="M215.77 62.63C215.932 61.7094 215.76 60.7612 215.286 59.9552C214.814 59.1492 214.068 58.5378 213.186 58.23C213.754 57.705 214.156 57.0254 214.344 56.2746C214.532 55.524 214.496 54.735 214.24 54.0044C213.986 53.274 213.522 52.6338 212.91 52.1626C212.296 51.6914 211.558 51.4096 210.786 51.352C211.1 50.6822 211.224 49.9382 211.14 49.2028C211.058 48.4674 210.772 47.7694 210.316 47.1866C209.86 46.6038 209.252 46.1588 208.558 45.9014C207.864 45.6438 207.112 45.5838 206.386 45.728C206.48 44.9906 206.364 44.2416 206.052 43.5666C205.74 42.8916 205.246 42.3176 204.624 41.9098C204.002 41.502 203.278 41.277 202.536 41.26C201.792 41.243 201.06 41.435 200.42 41.814C200.284 41.0566 199.934 40.3542 199.409 39.7912C198.884 39.2282 198.208 38.8286 197.462 38.64C196.716 38.4514 195.932 38.4822 195.203 38.7284C194.474 38.9746 193.831 39.4258 193.352 40.028C192.99 39.3026 192.424 38.6984 191.723 38.2892C191.023 37.88 190.219 37.6836 189.409 37.7238C188.599 37.7642 187.818 38.0394 187.162 38.5162C186.506 38.9928 186.003 39.6502 185.714 40.408C185.255 39.924 184.681 39.5632 184.046 39.359C183.411 39.155 182.734 39.1138 182.079 39.2398C181.424 39.3658 180.811 39.6544 180.297 40.0796C179.782 40.5046 179.383 41.0522 179.136 41.672C179.201 40.7218 178.994 39.7728 178.538 38.9366C178.082 38.1002 177.397 37.4116 176.563 36.9514C175.729 36.4914 174.782 36.279 173.831 36.3392C172.881 36.3996 171.967 36.7302 171.198 37.292C170.777 36.3202 170.069 35.5 169.169 34.9412C168.27 34.3826 167.221 34.112 166.163 34.1656C165.105 34.2194 164.089 34.5948 163.25 35.2418C162.411 35.8888 161.79 36.7764 161.47 37.786C160.6 37.26 159.59 37.013 158.576 37.0784C157.561 37.1438 156.591 37.5184 155.796 38.1516C155.001 38.785 154.419 39.6468 154.129 40.621C153.839 41.595 153.854 42.6348 154.172 43.6C153.155 43.7152 152.197 44.1412 151.431 44.8202C150.664 45.499 150.125 46.3976 149.888 47.3938C149.65 48.3898 149.726 49.4348 150.104 50.3866C150.482 51.3382 151.144 52.1502 152 52.712C151.198 53.3612 150.618 54.243 150.339 55.236C150.06 56.229 150.096 57.2842 150.442 58.2558C150.788 59.2276 151.427 60.0678 152.271 60.6608C153.115 61.2538 154.123 61.57 155.154 61.566C154.947 62.5568 155.047 63.5872 155.442 64.5192C155.836 65.4514 156.506 66.2408 157.361 66.782C158.216 67.3234 159.217 67.5906 160.228 67.548C161.239 67.5054 162.213 67.1552 163.02 66.544C163.34 67.3638 163.877 68.0804 164.574 68.617C165.271 69.1534 166.102 69.4892 166.976 69.588C166.815 70.1554 166.783 70.7516 166.881 71.333C166.979 71.9146 167.205 72.467 167.543 72.9502C167.881 73.4336 168.322 73.8358 168.835 74.1278C169.347 74.4196 169.918 74.594 170.506 74.638C170.188 75.31 170.065 76.0574 170.151 76.7958C170.237 77.534 170.527 78.2336 170.99 78.815C171.453 79.3966 172.069 79.8368 172.77 80.0858C173.47 80.3348 174.226 80.3828 174.952 80.224C174.865 80.9628 174.986 81.7114 175.303 82.3844C175.62 83.0576 176.119 83.6284 176.744 84.032C177.369 84.4358 178.094 84.656 178.838 84.6682C179.582 84.6802 180.314 84.4834 180.952 84.1C181.088 84.8582 181.44 85.5608 181.967 86.123C182.493 86.6852 183.171 87.0828 183.919 87.2676C184.666 87.4526 185.452 87.4168 186.18 87.165C186.907 86.913 187.547 86.4556 188.02 85.848C188.499 86.5352 189.12 87.1112 189.842 87.5374C190.563 87.9634 191.367 88.2298 192.2 88.318C193.473 86.0184 194.335 83.5142 194.746 80.918C195.169 78.2746 194.675 75.566 193.346 73.242C187.684 71.38 190.23 64.73 194.068 67.314C195.892 68.568 196.584 68.488 196.728 67.276C196.739 66.9258 196.844 66.5852 197.033 66.29C197.221 65.9948 197.487 65.7564 197.8 65.6C198.138 66.3128 198.679 66.9096 199.355 67.3156C200.03 67.7218 200.812 67.9188 201.6 67.8824C202.388 67.8458 203.148 67.5772 203.782 67.1102C204.418 66.6434 204.902 65.999 205.172 65.258C205.54 65.6468 205.982 65.9578 206.472 66.1726C206.962 66.3876 207.49 66.5018 208.024 66.509C208.56 66.516 209.09 66.4158 209.586 66.2138C210.082 66.012 210.532 65.713 210.91 65.334C211.85 67.5488 212.564 69.8534 213.038 72.212C213.608 71.8906 214.092 71.434 214.444 70.8822C214.798 70.3304 215.01 69.7004 215.062 69.0476C215.114 68.3946 215.006 67.7388 214.746 67.1378C214.486 66.5366 214.082 66.0086 213.57 65.6C214.142 65.3098 214.638 64.8904 215.02 64.3748C215.402 63.8594 215.66 63.262 215.77 62.63Z" fill="#E9E9E9"/>
<path d="M298.762 51.7622C298.506 50.2216 297.8 48.7914 296.732 47.6524C295.662 46.5134 294.28 45.7168 292.76 45.3634C291.238 45.01 289.646 45.1154 288.186 45.6666C286.724 46.2178 285.46 47.1898 284.55 48.46C283.642 49.73 283.13 51.241 283.08 52.8018C283.03 54.3626 283.444 55.9032 284.27 57.2288C285.096 58.5544 286.296 59.6054 287.718 60.2488C289.142 60.8924 290.724 61.0996 292.264 60.8442C294.328 60.499 296.172 59.3492 297.39 57.6466C298.608 55.944 299.102 53.8278 298.762 51.7622Z" fill="#E9E9E9"/>
<path d="M62.858 228.92L45.036 234.656L52.4 278.13L62.858 228.92Z" fill="#E9E9E9"/>
<path d="M294.24 172.8L294.228 172.766L294.24 172.8Z" fill="#E9E9E9"/>
<path d="M310.352 153.754L300.13 163.14C303.716 163.899 307.2 165.085 310.504 166.674C311.904 167.27 313.19 168.106 314.304 169.144C315.862 170.93 307.504 168.384 303.398 167.928H303.36C304.19 168.365 304.946 168.929 305.602 169.6C306.95 171.142 296.64 167.652 295.722 168.308C299.674 170.094 305.792 173.476 307.274 176.108C309.022 179.262 300.054 172.99 294.24 172.8C297.926 174.51 301.954 176.906 303.398 179.566C305.374 183.166 298.23 176.566 289.718 176.298H289.68C297.812 181.238 301.612 185.298 290.06 180.288C287.942 179.341 285.682 178.75 283.372 178.54L260.154 199.772L328.706 197.112L338.776 152.728L310.352 153.754Z" fill="#E9E9E9"/>
<path d="M372.072 151.322L328.752 197.036L345.928 121.416L389.248 75.702L372.072 151.322Z" stroke="black" stroke-width="1.5" stroke-linejoin="round"/>
<path d="M310.352 153.754L300.13 163.14C303.716 163.899 307.2 165.085 310.504 166.674C311.904 167.27 313.19 168.106 314.304 169.144C315.862 170.93 307.504 168.384 303.398 167.928H303.36C304.19 168.365 304.946 168.929 305.602 169.6C306.95 171.142 296.64 167.652 295.722 168.308C299.674 170.094 305.792 173.476 307.274 176.108C309.022 179.262 300.054 172.99 294.24 172.8C297.926 174.51 301.954 176.906 303.398 179.566C305.374 183.166 298.23 176.566 289.718 176.298H289.68C297.812 181.238 301.612 185.298 290.06 180.288C287.942 179.341 285.682 178.75 283.372 178.54L260.154 199.772L328.706 197.112L338.776 152.728L310.352 153.754Z" stroke="black" stroke-width="1.5" stroke-linejoin="round"/>
<path d="M215.77 62.63C215.932 61.7094 215.76 60.7612 215.286 59.9552C214.814 59.1492 214.068 58.5378 213.186 58.23C213.754 57.705 214.156 57.0254 214.344 56.2746C214.532 55.524 214.496 54.735 214.24 54.0044C213.986 53.274 213.522 52.6338 212.91 52.1626C212.296 51.6914 211.558 51.4096 210.786 51.352C211.1 50.6822 211.224 49.9382 211.14 49.2028C211.058 48.4674 210.772 47.7694 210.316 47.1866C209.86 46.6038 209.252 46.1588 208.558 45.9014C207.864 45.6438 207.112 45.5838 206.386 45.728C206.48 44.9906 206.364 44.2416 206.052 43.5666C205.74 42.8916 205.246 42.3176 204.624 41.9098C204.002 41.502 203.278 41.277 202.536 41.26C201.792 41.243 201.06 41.435 200.42 41.814C200.284 41.0566 199.934 40.3542 199.409 39.7912C198.884 39.2282 198.208 38.8286 197.462 38.64C196.716 38.4514 195.932 38.4822 195.203 38.7284C194.474 38.9746 193.831 39.4258 193.352 40.028C192.99 39.3026 192.424 38.6984 191.723 38.2892C191.023 37.88 190.219 37.6836 189.409 37.7238C188.599 37.7642 187.818 38.0394 187.162 38.5162C186.506 38.9928 186.003 39.6502 185.714 40.408C185.255 39.924 184.681 39.5632 184.046 39.359C183.411 39.155 182.734 39.1138 182.079 39.2398C181.424 39.3658 180.811 39.6544 180.297 40.0796C179.782 40.5046 179.383 41.0522 179.136 41.672C179.201 40.7218 178.994 39.7728 178.538 38.9366C178.082 38.1002 177.397 37.4116 176.563 36.9514C175.729 36.4914 174.782 36.279 173.831 36.3392C172.881 36.3996 171.967 36.7302 171.198 37.292C170.777 36.3202 170.069 35.5 169.169 34.9412C168.27 34.3826 167.221 34.112 166.163 34.1656C165.105 34.2194 164.089 34.5948 163.25 35.2418C162.411 35.8888 161.79 36.7764 161.47 37.786C160.6 37.26 159.59 37.013 158.576 37.0784C157.561 37.1438 156.591 37.5184 155.796 38.1516C155.001 38.785 154.419 39.6468 154.129 40.621C153.839 41.595 153.854 42.6348 154.172 43.6C153.155 43.7152 152.197 44.1412 151.431 44.8202C150.664 45.499 150.125 46.3976 149.888 47.3938C149.65 48.3898 149.726 49.4348 150.104 50.3866C150.482 51.3382 151.144 52.1502 152 52.712C151.198 53.3612 150.618 54.243 150.339 55.236C150.06 56.229 150.096 57.2842 150.442 58.2558C150.788 59.2276 151.427 60.0678 152.271 60.6608C153.115 61.2538 154.123 61.57 155.154 61.566C154.947 62.5568 155.047 63.5872 155.442 64.5192C155.836 65.4514 156.506 66.2408 157.361 66.782C158.216 67.3234 159.217 67.5906 160.228 67.548C161.239 67.5054 162.213 67.1552 163.02 66.544C163.34 67.3638 163.877 68.0804 164.574 68.617C165.271 69.1534 166.102 69.4892 166.976 69.588C166.815 70.1554 166.783 70.7516 166.881 71.333C166.979 71.9146 167.205 72.467 167.543 72.9502C167.881 73.4336 168.322 73.8358 168.835 74.1278C169.347 74.4196 169.918 74.594 170.506 74.638C170.188 75.31 170.065 76.0574 170.151 76.7958C170.237 77.534 170.527 78.2336 170.99 78.815C171.453 79.3966 172.069 79.8368 172.77 80.0858C173.47 80.3348 174.226 80.3828 174.952 80.224C174.865 80.9628 174.986 81.7114 175.303 82.3844C175.62 83.0576 176.119 83.6284 176.744 84.032C177.369 84.4358 178.094 84.656 178.838 84.6682C179.582 84.6802 180.314 84.4834 180.952 84.1C181.088 84.8582 181.44 85.5608 181.967 86.123C182.493 86.6852 183.171 87.0828 183.919 87.2676C184.666 87.4526 185.452 87.4168 186.18 87.165C186.907 86.913 187.547 86.4556 188.02 85.848C188.499 86.5352 189.12 87.1112 189.842 87.5374C190.563 87.9634 191.367 88.2298 192.2 88.318C193.473 86.0184 194.335 83.5142 194.746 80.918C195.169 78.2746 194.675 75.566 193.346 73.242C187.684 71.38 190.23 64.73 194.068 67.314C195.892 68.568 196.584 68.488 196.728 67.276C196.739 66.9258 196.844 66.5852 197.033 66.29C197.221 65.9948 197.487 65.7564 197.8 65.6C198.138 66.3128 198.679 66.9096 199.355 67.3156C200.03 67.7218 200.812 67.9188 201.6 67.8824C202.388 67.8458 203.148 67.5772 203.782 67.1102C204.418 66.6434 204.902 65.999 205.172 65.258C205.54 65.6468 205.982 65.9578 206.472 66.1726C206.962 66.3876 207.49 66.5018 208.024 66.509C208.56 66.516 209.09 66.4158 209.586 66.2138C210.082 66.012 210.532 65.713 210.91 65.334C211.85 67.5488 212.564 69.8534 213.038 72.212C213.608 71.8906 214.092 71.434 214.444 70.8822C214.798 70.3304 215.01 69.7004 215.062 69.0476C215.114 68.3946 215.006 67.7388 214.746 67.1378C214.486 66.5366 214.082 66.0086 213.57 65.6C214.142 65.3098 214.638 64.8904 215.02 64.3748C215.402 63.8594 215.66 63.262 215.77 62.63Z" stroke="black" stroke-width="1.5" stroke-linejoin="round"/>
<path d="M212.312 86.152L325.742 67.076" stroke="black" stroke-width="1.5" stroke-linecap="round" stroke-linejoin="round"/>
<path d="M26.188 117.388L191.488 89.648" stroke="black" stroke-width="1.5" stroke-linecap="round" stroke-linejoin="round"/>
<path d="M200.76 104.012L234.77 134.564" stroke="black" stroke-width="1.5" stroke-linecap="round" stroke-linejoin="round"/>
<path d="M234.922 137.908C235.378 136.198 235.38 134.978 234.77 134.564C234.202 134.18 233.17 134.52 231.882 135.438C229.952 136.962 228.206 138.707 226.682 140.638" stroke="black" stroke-width="1.5" stroke-linecap="round" stroke-linejoin="round"/>
<path d="M92.8 182.938C79.956 172.716 78.892 172.412 68.708 161.278C47.2 164.318 23.528 171.5 13.496 176.25C28.8086 182.036 45.209 184.371 61.528 183.09L78.97 198.784" stroke="black" stroke-width="1.5" stroke-linecap="round" stroke-linejoin="round"/>
<path d="M189.398 104.088L225.232 136.236" stroke="black" stroke-width="1.5" stroke-linecap="round" stroke-linejoin="round"/>
<path d="M207.828 162.114L184.648 142.468L198.686 164.312" stroke="black" stroke-width="1.5" stroke-linecap="round" stroke-linejoin="round"/>
<path d="M290.554 166.4C291.954 166.704 304.774 171.184 307.464 175.976C309.264 179.166 300.168 172.822 294.278 172.632" stroke="black" stroke-width="1.5" stroke-linecap="round" stroke-linejoin="round"/>
<path d="M289.3 170.588C292.872 171.88 301.338 175.456 303.55 179.48C305.55 183.132 298.35 176.44 289.718 176.174" stroke="black" stroke-width="1.5" stroke-linecap="round" stroke-linejoin="round"/>
<path d="M288.312 175.376C297.356 180.658 302.34 185.548 290.06 180.24C283.716 177.498 237.46 176.098 237.46 176.098C233.4 175.678 229.524 174.196 226.22 171.8L207.904 157.892" stroke="black" stroke-width="1.5" stroke-linecap="round" stroke-linejoin="round"/>
<path d="M222.344 137.11L240.964 153.64C240.964 153.64 287.628 162.38 291.2 163.4C294.772 164.42 303.326 166.588 305.83 169.442C307.162 170.96 299.83 168.34 295.38 168.112" stroke="black" stroke-width="1.5" stroke-linecap="round" stroke-linejoin="round"/>
<path d="M225.384 139.58C225.84 137.87 225.842 136.65 225.232 136.236C224.664 135.852 223.632 136.194 222.344 137.11C217.086 140.852 209.272 152.452 207.638 158.808C207.238 160.368 207.31 161.774 207.828 162.114C208.428 162.514 210.146 162.038 211.428 160.594" stroke="black" stroke-width="1.5" stroke-linecap="round" stroke-linejoin="round"/>
<path d="M149.764 174.502C158.938 174.888 167.963 172.082 175.3 166.56" stroke="black" stroke-width="1.5" stroke-linecap="round" stroke-linejoin="round"/>
<path d="M198.366 164.888L202.432 157.554" stroke="black" stroke-width="1.5" stroke-linecap="round" stroke-linejoin="round"/>
<path d="M200.152 100.4C197.644 104.048 193.046 102.452 186.7 96.334" stroke="black" stroke-width="1.5" stroke-linecap="round" stroke-linejoin="round"/>
<path d="M159.448 220.714L188.98 187.84L156.452 240.812" stroke="black" stroke-width="1.5" stroke-linecap="round" stroke-linejoin="round"/>
<path d="M112.98 239.558C115.125 241.484 117.628 242.97 120.347 243.928C123.066 244.886 125.948 245.3 128.826 245.144C131.705 244.99 134.525 244.268 137.125 243.024C139.726 241.778 142.055 240.032 143.98 237.886L159.44 220.714L153.328 261.514L128.096 289.634C134.427 300.75 144.185 309.52 155.912 314.634L182.626 284.88C186.581 280.482 189.376 275.166 190.758 269.414C196.574 245.014 194.596 201.926 198.358 164.876C183.234 162.064 177.648 158.644 166.134 149.562C158.694 155 142.088 159.036 125.4 200.532L100.516 178.15C89.036 183.991 80.1374 193.892 75.55 205.928L112.98 239.558Z" stroke="black" stroke-width="1.5" stroke-linecap="round" stroke-linejoin="round"/>
<path d="M202 88.638C200.994 88.2628 200.012 87.826 199.06 87.33L200.99 91.53" stroke="black" stroke-width="1.5" stroke-linecap="round" stroke-linejoin="round"/>
<path d="M166.132 149.536C167.749 144.455 168.844 139.222 169.4 133.918C170.368 125.758 172.736 117.827 176.4 110.472C179.98 102.95 188.2 96.014 192.4 88.014C193.659 85.8162 194.458 83.3858 194.75 80.87C195.174 78.2266 194.68 75.5178 193.35 73.194C187.688 71.332 190.246 64.666 194.072 67.266C195.902 68.512 196.618 68.444 196.732 67.228C196.835 66.5886 196.963 65.9802 197.114 65.404M203.572 116.818C200.772 108.738 198.448 96.384 201.99 88.638C216.378 93.916 215.16 75.262 210.944 65.404L203.572 116.818Z" stroke="black" stroke-width="1.5" stroke-linecap="round" stroke-linejoin="round"/>
<path d="M136.502 280.294C143.375 291.002 153.157 299.53 164.702 304.88" stroke="black" stroke-width="1.5" stroke-linecap="round" stroke-linejoin="round"/>
<path d="M83.834 213.262C90.218 201.662 98.198 192.134 108.686 185.522" stroke="black" stroke-width="1.5" stroke-linecap="round" stroke-linejoin="round"/>
<path d="M132.626 296.52C124.598 306.32 117.416 314.012 109.598 322.17C107.508 334.52 108.496 362.868 112.486 376.054C123.086 358.422 126.926 347.212 132.286 329.054L148.55 310.966" stroke="black" stroke-width="1.5" stroke-linecap="round" stroke-linejoin="round"/>
<path d="M62.364 183.85C65.9512 178.09 70.3542 172.881 75.436 168.384" stroke="black" stroke-width="1.5" stroke-linecap="round" stroke-linejoin="round"/>
<path d="M303.55 167.776C307.692 168.194 316.12 170.776 314.57 168.992C313.444 167.943 312.146 167.094 310.732 166.484C305.372 163.864 300.244 163.026 294.544 161.468L250.344 150.752L231.9 135.42" stroke="black" stroke-width="1.5" stroke-linecap="round" stroke-linejoin="round"/>
<path d="M162.19 173.02L128.104 223.104L95.158 196.998" stroke="black" stroke-width="1.5" stroke-linecap="round" stroke-linejoin="round"/>
<path d="M255.366 58.982C255.622 60.5226 255.414 62.1044 254.77 63.5274C254.128 64.9502 253.076 66.1504 251.75 66.976C250.426 67.8016 248.884 68.2156 247.324 68.1656C245.762 68.1156 244.252 67.604 242.982 66.6952C241.712 65.7866 240.74 64.5216 240.188 63.0604C239.638 61.5994 239.532 60.0076 239.886 58.4864C240.238 56.9654 241.036 55.5832 242.174 54.5148C243.314 53.4464 244.744 52.7396 246.284 52.484C248.35 52.1424 250.468 52.635 252.17 53.8534C253.872 55.0718 255.022 56.9164 255.366 58.982Z" stroke="black" stroke-width="1.5" stroke-linecap="round" stroke-linejoin="round"/>
<path d="M276.874 55.41C277.13 56.9506 276.922 58.5324 276.278 59.9554C275.636 61.3782 274.584 62.5784 273.258 63.404C271.934 64.2296 270.392 64.6436 268.832 64.5936C267.27 64.5436 265.76 64.0318 264.49 63.1232C263.22 62.2146 262.248 60.9496 261.696 59.4884C261.146 58.0274 261.04 56.4356 261.394 54.9144C261.746 53.3934 262.544 52.0112 263.682 50.9428C264.822 49.8744 266.252 49.1676 267.792 48.912C269.858 48.5704 271.974 49.0628 273.678 50.2814C275.38 51.4998 276.53 53.3444 276.874 55.41Z" stroke="black" stroke-width="1.5" stroke-linecap="round" stroke-linejoin="round"/>
<path d="M298.762 51.762C299.018 53.3026 298.81 54.8844 298.166 56.3074C297.524 57.7302 296.472 58.9304 295.146 59.756C293.822 60.5816 292.28 60.9954 290.72 60.9456C289.158 60.8956 287.648 60.3838 286.378 59.4752C285.108 58.5664 284.136 57.3016 283.584 55.8404C283.034 54.3794 282.928 52.7876 283.282 51.2664C283.634 49.7452 284.432 48.3632 285.57 47.2948C286.71 46.2264 288.14 45.5196 289.68 45.264C291.746 44.9218 293.864 45.4142 295.566 46.6326C297.27 47.8512 298.42 49.6962 298.762 51.762Z" stroke="black" stroke-width="1.5" stroke-linecap="round" stroke-linejoin="round"/>
<path d="M72.5859 23.946L58.0699 44.39" stroke="black" stroke-width="1.5" stroke-linecap="round" stroke-linejoin="round"/>
<path d="M75.55 41.426L55.144 26.91" stroke="black" stroke-width="1.5" stroke-linecap="round" stroke-linejoin="round"/>
<path d="M14.94 244.308L14.484 244.46L28.506 256.886L10 277.216L19.918 286.07L38.424 265.702L52.406 278.13L62.858 228.92L14.94 244.308Z" stroke="black" stroke-width="1.5" stroke-linecap="round" stroke-linejoin="round"/>
<path d="M259.66 272.352L230.248 263.232L254.986 246.056" stroke="black" stroke-width="1.5" stroke-linecap="round" stroke-linejoin="round"/>
<path d="M283.828 268.476L308.376 250.312L279.154 242.142" stroke="black" stroke-width="1.5" stroke-linecap="round" stroke-linejoin="round"/>
<path d="M274.632 231.312L263.878 283.676" stroke="black" stroke-width="1.5" stroke-linecap="round" stroke-linejoin="round"/>
<path d="M36.723 182.234L56.436 303.778C57.1404 307.924 58.6548 311.89 60.8926 315.448C63.1306 319.008 66.048 322.092 69.4782 324.524C72.9084 326.954 76.7842 328.686 80.884 329.62C84.984 330.552 89.2274 330.668 93.372 329.96L109.177 327.302" stroke="black" stroke-width="1.5" stroke-linecap="round" stroke-linejoin="round"/>
<path d="M344.174 180.909L355.914 253.276C356.622 257.42 356.506 261.664 355.574 265.764C354.64 269.864 352.908 273.74 350.478 277.17C348.046 280.6 344.962 283.518 341.402 285.756C337.842 287.994 333.878 289.508 329.732 290.212L138.354 322.396" stroke="black" stroke-width="1.5" stroke-linecap="round" stroke-linejoin="round"/>
<path d="M150.49 54.9532L50.964 71.674C46.8188 72.3786 42.853 73.893 39.2934 76.1308C35.7338 78.3686 32.6502 81.286 30.2186 84.7164C27.7872 88.1466 26.0554 92.0224 25.1226 96.1222C24.1898 100.222 24.074 104.466 24.782 108.61L34.5308 168.718" stroke="black" stroke-width="1.5" stroke-linecap="round" stroke-linejoin="round"/>
<path d="M206.422 45.5562L287.324 31.964C291.468 31.256 295.712 31.3718 299.812 32.3046C303.912 33.2374 307.788 34.9692 311.218 37.4006C314.648 39.8322 317.566 42.9158 319.804 46.4754C322.042 50.035 323.556 54.0008 324.26 58.146L339.262 150.631" stroke="black" stroke-width="1.5" stroke-linecap="round" stroke-linejoin="round"/>
<path d="M117.236 314.114C121.422 319.864 126.502 324.906 132.284 329.048" stroke="black" stroke-width="1.5" stroke-linecap="round" stroke-linejoin="round"/>
</svg>
