<svg width="400" height="400" viewBox="0 0 400 400" fill="none" xmlns="http://www.w3.org/2000/svg">
<path d="M58.58 37.698V39.652C58.6368 42.6115 59.4153 45.5124 60.8478 48.1027C62.2803 50.6931 64.3235 52.8946 66.8 54.516C81 41.868 100.038 36.784 118.42 31.83C118.924 27.2254 118.243 22.5683 116.441 18.3011C114.638 14.034 111.775 10.2987 108.122 7.45C104.436 4.63462 100.075 2.83664 95.476 2.236C92.5326 0.993877 89.4047 0.245184 86.218 0.0199993C83.2731 -0.0679549 80.34 0.428289 77.588 1.48008C74.836 2.53187 72.3195 4.11838 70.184 6.148C66.9224 9.14686 64.4577 12.9098 63.012 17.098C61.4977 14.3969 59.0357 12.3532 56.102 11.362C54.4759 10.8128 52.731 10.7168 51.0545 11.0843C49.378 11.4518 47.8332 12.2689 46.586 13.448C45.6584 14.2797 45.0195 15.3849 44.7617 16.6038C44.5039 17.8227 44.6406 19.092 45.152 20.228C45.1396 21.4514 45.4762 22.653 46.1223 23.6919C46.7684 24.7308 47.6972 25.5641 48.8 26.094C50.1716 26.6473 51.6646 26.8301 53.1291 26.624C54.5937 26.4179 55.9783 25.8303 57.144 24.92C57.9996 24.1528 58.9152 23.4553 59.882 22.834C59.2396 24.7037 57.9434 26.2783 56.232 27.268C54.4806 28.2794 52.5139 28.86 50.494 28.962C51.2926 29.4398 52.1916 29.7247 53.1197 29.7942C54.0477 29.8636 54.9792 29.7156 55.84 29.362C56.7527 28.9977 57.5817 28.4514 58.2765 27.7565C58.9714 27.0617 59.5176 26.2327 59.882 25.32C59.7183 27.2231 58.9937 29.0348 57.8 30.526C56.6699 32.0701 55.3563 33.4711 53.888 34.698C56.356 33.8529 58.4985 32.258 60.016 30.136C60.0149 30.1185 60.0174 30.101 60.0233 30.0846C60.0293 30.0681 60.0385 30.053 60.0505 30.0403C60.0625 30.0275 60.077 30.0174 60.0931 30.0104C60.1091 30.0035 60.1265 30 60.144 30C59.9968 30.3294 59.9087 30.6821 59.884 31.042C58.5718 34.0622 57.5668 37.2067 56.884 40.428C55.97 43.828 55.188 47.6 56.622 50.858C57.4249 52.5231 58.6358 53.9583 60.142 55.03C62.4049 56.773 65.0357 57.9769 67.834 58.55C66.01 56.986 63.924 55.95 62.098 54.51C60.1188 53.2491 58.6087 51.3729 57.8 49.17C57.3221 47.1057 57.3667 44.9547 57.93 42.912C57.9196 41.1532 58.1381 39.4005 58.58 37.698ZM76.58 3.54C80.0042 2.1357 83.7103 1.55478 87.4 1.844C84.1746 2.11675 81.0071 2.86414 78 4.062C73.9158 5.63977 70.2233 8.08621 67.178 11.232C69.5767 7.8849 72.8175 5.23128 76.572 3.54H76.58ZM49.846 14.1C48.4678 14.6482 47.2551 15.5439 46.326 16.7C46.3367 16.2368 46.4751 15.7855 46.726 15.396C47.3126 14.3003 48.2026 13.3968 49.2894 12.7938C50.3762 12.1908 51.6138 11.9138 52.854 11.996C54.6798 12.04 56.4506 12.6301 57.938 13.69C57.678 13.56 57.538 13.56 57.286 13.43C54.7973 12.8637 52.1934 13.0982 49.846 14.1Z" fill="black"/>
<path d="M296.118 359.976C288.816 370.014 255.702 382.53 255.702 382.53C243.702 376.53 231.844 370.406 219.588 365.19C232.236 361.41 244.882 356.456 254.788 347.72C269.26 353.458 280.6 358.282 296.118 359.976Z" fill="#9778FF"/>
<path d="M244.75 364.278C240.97 365.06 237.58 365.712 233.8 366.494C236.05 364.811 238.067 362.839 239.8 360.628C241.576 361.663 243.236 362.887 244.75 364.278ZM264.306 367.538C257.811 367.863 251.398 369.137 245.272 371.318C248.792 368.058 252.574 364.8 254.79 360.498C255.19 361.802 255.442 362.974 255.832 364.278C255.442 364.8 254.528 365.582 254.138 366.234C255.18 365.834 256.224 365.582 257.266 365.19C259.706 365.66 262.073 366.449 264.306 367.538ZM280.342 358.282C274.084 360.758 267.696 362.844 261.308 364.8C262.82 360.476 264.606 356.252 266.654 352.154C266.998 352.446 267.396 352.668 267.826 352.806C266.654 355.934 265.226 359.064 263.916 362.062C268.067 360.379 272.079 358.373 275.916 356.062" fill="white"/>
<path d="M354.524 339.898C345.524 275.886 335.62 216.568 323.234 153.468L331.056 151.902C343.442 215.132 353.48 274.582 362.476 338.726L354.524 339.898ZM279.952 321C275.91 299.62 272.26 277.066 268.74 255.294C262.612 217.494 256.094 178.374 247.488 140.566L255.31 138.742C264.046 176.81 270.434 216.052 276.692 253.99C280.472 276.674 283.862 298.19 287.904 319.566L279.952 321Z" fill="#008C6E"/>
<path d="M208.116 291.01C192.402 298.38 177.79 307.901 164.702 319.3C161.716 321.672 159.158 324.538 157.14 327.774C156.165 329.41 155.576 331.247 155.418 333.145C155.26 335.042 155.537 336.951 156.228 338.726C158.184 342.898 162.878 345.114 167.31 346.286C183.476 350.85 200.554 347.982 217.372 347.982C228.905 347.994 240.402 349.261 251.66 351.762C265.61 355.022 279.038 360.106 292.988 363.104C306.938 366.102 322.062 366.756 335.228 361.28C341.194 358.6 346.8 355.184 351.916 351.11C358.956 345.896 365.736 340.16 370.168 332.598C374.6 325.036 376.168 315.388 372.254 307.566C368.734 300.526 361.304 296.094 353.612 294.268C345.92 292.442 337.966 292.834 330.144 293.356C318.28 294.008 306.286 294.138 294.422 294.66C279.3 295.312 263.916 295.964 249.184 292.704C241.622 291.01 234.452 288.272 226.76 287.228C219.2 286.186 215.026 287.75 208.116 291.01Z" fill="#FF465A"/>
<path d="M311.11 303.4C317.123 301.988 323.392 302.078 329.362 303.662C335.313 305.24 341.115 307.334 346.702 309.92C351.656 312.006 356.74 314.222 361.702 316.308C353.617 316.056 345.722 318.794 339.53 324C346.401 322.971 353.419 323.596 360 325.824C353.082 326.529 346.45 328.948 340.704 332.864C335.007 336.762 329.038 340.247 322.844 343.294C314.108 347.076 304.33 347.076 294.944 345.64C285.558 344.204 275.648 342.382 266.784 345.772C271.664 342.325 277.295 340.09 283.21 339.252C280.342 335.212 274.736 334.298 269.912 335.08C265.088 335.862 260.396 337.818 255.572 338.34C244.49 339.384 234.452 332.212 223.5 329.74C216.72 328.176 209.55 328.306 202.772 326.74C200.721 326.032 198.543 325.765 196.382 325.956C194.948 326.218 193.646 326.74 192.342 327C189.342 327.522 186.342 326.478 183.342 326.088C178.474 325.29 173.477 325.97 169 328.042C175.258 319.698 189.2 322.442 197.03 315.528C199.415 312.965 201.595 310.218 203.55 307.314C209.024 300.796 217.63 297.536 225.974 295.972C237.574 293.754 249.574 294.146 261.434 294.668C273.69 295.32 286.204 296.362 297.678 300.668C301.724 302.352 306.416 304.698 311.11 303.4Z" fill="#D70A32"/>
<path d="M213.332 272.758C207.828 273.778 202.619 276.004 198.078 279.276C195.827 280.961 193.948 283.091 192.557 285.534C191.166 287.977 190.294 290.681 189.994 293.476C189.604 298.43 191.56 303.384 191.56 308.338C191.327 312.267 190.491 316.137 189.082 319.812C187.604 323.479 186.681 327.345 186.344 331.284C186.188 333.251 186.444 335.23 187.095 337.093C187.746 338.955 188.778 340.662 190.126 342.104C193.035 340.912 195.643 339.089 197.762 336.767C199.881 334.445 201.458 331.681 202.38 328.676C205.64 318.378 201.206 307.296 201.98 296.606C202.51 287.62 206.03 278.494 213.332 272.758Z" fill="#FDB849"/>
<path d="M329.754 322.82C327.798 317.996 328.71 312.652 329.102 307.566C329.494 302.48 329.232 296.616 325.45 293.096C322.714 290.496 318.932 289.706 315.282 288.662C303.282 285.534 291.946 280.188 280.212 276.016C273.426 273.675 266.554 271.587 259.612 269.758C254.545 268.223 249.353 267.133 244.096 266.5C232.448 265.24 220.704 267.754 210.592 273.67C205.269 276.63 200.783 280.891 197.554 286.056C195.973 288.676 195 291.617 194.707 294.663C194.413 297.709 194.808 300.783 195.86 303.656C196.938 306.894 198.289 310.034 199.9 313.042C198.185 313.668 196.596 314.595 195.208 315.78C194.517 316.327 193.992 317.056 193.692 317.886C193.393 318.715 193.33 319.611 193.512 320.474C193.864 321.609 194.491 322.64 195.338 323.474C198.926 327.519 201.713 332.209 203.552 337.294C205.376 342.438 205.376 348.053 203.552 353.198C202.118 356.85 205.376 360.63 208.376 363.238C208.796 363.69 209.34 364.007 209.94 364.15C211.504 364.41 212.54 362.586 213.068 361.15C214.782 355.212 215.006 348.943 213.72 342.898C212.405 336.886 210.346 331.061 207.592 325.558C211.732 324.927 215.93 324.752 220.108 325.036C223.696 325.06 227.275 325.41 230.8 326.08C234.84 327.122 238.36 329.48 242.142 330.904C247.486 332.858 258.828 332.598 260.914 333.38C264.304 334.684 264.696 338.204 266.782 338.98C271.89 340.672 277.189 341.724 282.556 342.11C287.12 342.63 291.944 343.282 295.332 346.412C297.55 348.498 298.722 351.366 300.932 353.582C303.018 355.798 306.8 356.972 309.016 354.756C309.585 354.051 309.995 353.232 310.22 352.354C310.445 351.477 310.479 350.562 310.32 349.67C310.074 345.483 308.367 341.516 305.496 338.458C304.192 337.154 302.758 335.982 301.584 334.548C300.975 333.867 300.539 333.049 300.313 332.164C300.086 331.279 300.076 330.352 300.282 329.462C301.194 326.594 304.844 325.812 307.842 325.422C314.89 324.514 322.714 323.472 329.754 322.82Z" fill="#FFD340"/>
<path d="M335.228 308.61C336.64 311.204 337.317 314.134 337.184 317.084C337.056 320.372 337.587 323.653 338.748 326.732C339.097 327.363 339.312 328.059 339.381 328.776C339.45 329.494 339.37 330.218 339.148 330.904C338.766 331.412 338.274 331.828 337.71 332.121C337.146 332.414 336.523 332.577 335.888 332.598C333.255 332.673 330.691 331.744 328.718 329.998C326.811 328.376 325.258 326.379 324.156 324.132C322.46 321.132 318.418 306.27 318.68 303.012C318.932 297.268 328.71 297.528 335.228 308.61ZM219.85 324.384C231.448 323.315 243.142 324.018 254.528 326.47C255.917 326.672 257.25 327.16 258.44 327.904C259.049 328.264 259.552 328.78 259.896 329.399C260.239 330.017 260.412 330.716 260.396 331.424C260.276 332.315 259.863 333.141 259.222 333.772C256.744 336.51 252.574 336.772 249.054 336.372C245.678 335.871 242.359 335.041 239.144 333.896C235.494 332.722 231.844 331.68 228.324 330.506C226.498 329.984 224.674 329.332 222.848 328.812C221.156 328.428 219.499 327.904 217.894 327.246C217.242 326.986 217.242 326.464 217.494 325.812C217.721 325.383 218.06 325.024 218.475 324.773C218.89 324.521 219.365 324.387 219.85 324.384Z" fill="#FDB849"/>
<path d="M247.75 331.034C247.607 331.413 247.545 331.817 247.567 332.221C247.59 332.625 247.696 333.02 247.88 333.38C248.171 333.749 248.55 334.039 248.983 334.222C249.416 334.404 249.889 334.474 250.356 334.424C250.694 334.372 251.018 334.253 251.31 334.074C251.601 333.894 251.853 333.658 252.052 333.38C252.441 332.884 252.709 332.304 252.834 331.686C253.094 330.642 253.224 328.296 251.138 328.166C250.392 328.354 249.698 328.71 249.111 329.207C248.524 329.704 248.058 330.329 247.75 331.034ZM256.614 328.034C256.71 328.191 256.761 328.372 256.761 328.556C256.761 328.74 256.71 328.921 256.614 329.078C256.484 329.208 256.484 329.338 256.354 329.478C255.925 329.747 255.427 329.886 254.92 329.878C254.653 329.899 254.384 329.854 254.138 329.748C253.876 329.618 253.616 329.486 253.616 329.226C253.486 328.826 253.876 328.314 254.268 328.052C254.775 327.74 255.37 327.603 255.962 327.662C256.214 327.712 256.443 327.843 256.614 328.034ZM255.05 331.034C254.528 331.164 253.876 331.554 254.008 332.206C254.008 332.606 254.398 332.858 254.658 332.988C255.42 333.383 256.288 333.523 257.136 333.388C257.918 333.258 258.83 332.988 258.962 332.214C259.092 331.694 258.562 331.172 258.178 331.042C257.664 330.934 257.139 330.891 256.614 330.912C256.358 330.828 256.088 330.796 255.82 330.816C255.551 330.837 255.29 330.911 255.05 331.034ZM255.442 335.466C255.314 335.648 255.131 335.785 254.92 335.857C254.709 335.929 254.481 335.932 254.268 335.866C253.851 335.698 253.457 335.479 253.094 335.214C252.894 335.111 252.739 334.937 252.659 334.727C252.579 334.517 252.579 334.284 252.66 334.074C252.741 333.864 252.896 333.691 253.097 333.588C253.297 333.486 253.528 333.461 253.746 333.518C254.275 333.599 254.771 333.824 255.18 334.17C255.285 334.235 255.376 334.322 255.447 334.423C255.517 334.525 255.566 334.64 255.591 334.761C255.615 334.883 255.615 335.008 255.589 335.129C255.564 335.25 255.514 335.365 255.442 335.466ZM203.162 353.718C202.949 354.832 203.134 355.986 203.684 356.978C203.925 357.378 204.247 357.723 204.628 357.992C205.009 358.261 205.443 358.449 205.9 358.542C206.351 358.622 206.815 358.565 207.233 358.379C207.651 358.193 208.004 357.886 208.246 357.498C208.596 356.861 208.689 356.115 208.508 355.412C208.303 354.74 208.042 354.086 207.726 353.458C207.204 352.544 206.16 350.59 204.988 350.72C203.684 350.72 203.292 352.8 203.162 353.718ZM208.378 363.366C208.507 363.51 208.683 363.602 208.875 363.626C209.066 363.65 209.26 363.604 209.42 363.496C209.55 363.366 209.55 363.236 209.68 363.096C209.765 362.609 209.713 362.107 209.529 361.648C209.345 361.188 209.036 360.79 208.638 360.496C208.116 360.096 206.16 359.582 206.038 360.756C205.9 361.67 207.856 362.974 208.378 363.366ZM208.768 358.282V358.542C209.046 359.286 209.492 359.955 210.072 360.498C210.594 360.888 211.766 361.41 212.028 360.498V359.976C211.755 359.347 211.323 358.799 210.774 358.388C210.225 357.977 209.579 357.715 208.898 357.63C208.768 357.63 208.638 357.89 208.768 358.282Z" fill="black"/>
<path d="M222.066 304.046C218.776 303.224 215.312 303.452 212.158 304.698C209.402 305.567 206.772 306.794 204.336 308.348C203.089 308.992 201.981 309.875 201.076 310.948C200.294 312.642 201.728 311.992 202.772 311.6C209.028 308.87 215.548 306.4 222.066 304.046Z" fill="#FDB849"/>
<path d="M234.32 323.862C241.465 323.603 248.516 322.149 255.18 319.56C256.88 319.08 258.385 318.076 259.482 316.692C260.656 314.736 260.004 312.26 259.222 310.044C255.659 299.883 250.318 290.436 243.448 282.144C248.141 286.162 252.303 290.763 255.832 295.834C259.434 300.983 261.88 306.851 263.002 313.034C263.402 315.634 263.264 318.248 260.916 319.814C257.26 322.119 253.1 323.505 248.792 323.854C243.838 324.514 239.144 323.732 234.32 323.862ZM281.124 341.464C278.778 341.064 276.822 340.68 274.606 340.29C272.661 340.108 270.764 339.578 269.006 338.726C268.299 338.227 267.703 337.588 267.255 336.847C266.808 336.107 266.519 335.282 266.406 334.424C266.214 332.676 266.35 330.907 266.806 329.208C267.885 324.277 269.875 319.59 272.672 315.388C268.084 320.077 264.881 325.943 263.416 332.338C263.09 333.259 262.979 334.243 263.092 335.214C263.205 336.184 263.539 337.116 264.068 337.938C265.058 338.922 266.337 339.561 267.718 339.762C272.116 340.791 276.609 341.362 281.124 341.464ZM323.886 303.916C324.538 304.828 326.234 305.48 327.146 306.132L330.666 308.48C332.246 309.473 333.583 310.81 334.576 312.39C335.09 313.306 335.36 314.339 335.36 315.39C335.36 316.441 335.09 317.474 334.576 318.39C333.634 320.682 333.02 323.096 332.752 325.56C331.765 317.688 328.706 310.218 323.886 303.916Z" fill="black"/>
<path d="M319.2 299.484C322.67 300.46 325.791 302.402 328.2 305.084C331.068 308.212 332.242 313.296 332.894 317.338C333.394 320.314 333.438 323.349 333.024 326.338C332.634 329.338 331.33 331.938 330.678 334.938C330.156 337.676 331.72 340.024 332.764 342.37C333.734 344.081 334.27 346.004 334.328 347.97C334.354 349.126 334.148 350.275 333.723 351.349C333.298 352.424 332.662 353.403 331.852 354.228C329.945 355.551 327.649 356.194 325.332 356.052C322.732 356.184 319.988 357.096 317.38 356.704C313.86 356.052 312.164 353.314 310.34 350.578C309.296 349.012 307.862 347.578 306.95 346.014C304.35 341.842 299.78 339.496 295.738 336.888C290.914 333.76 288.958 330.37 288.176 324.372C287.853 321.438 288.119 318.468 288.958 315.638C290.784 308.598 294.696 304.946 301.214 301.818C306.683 298.746 313.128 297.909 319.2 299.484Z" fill="#FFD340"/>
<path d="M330.014 351.892C330.679 351.262 331.19 350.488 331.507 349.629C331.823 348.769 331.937 347.849 331.84 346.938C331.318 345.114 329.102 345.244 327.668 345.244C326.364 345.244 321.54 344.722 320.758 345.644C317.498 348.902 322.062 353.856 325.582 354.378C326.45 354.284 327.291 354.016 328.052 353.589C328.814 353.161 329.481 352.584 330.014 351.892Z" fill="black"/>
<path d="M307.46 308.74C306.776 308.345 306.025 308.08 305.244 307.958C300.55 307.044 295.856 306.132 291.032 305.358C289.577 304.943 288.028 304.988 286.6 305.488C285.269 306.415 284.34 307.814 284 309.4C281.729 315.854 279.986 322.481 278.786 329.216C278.551 329.869 278.488 330.572 278.602 331.257C278.717 331.942 279.004 332.586 279.438 333.128C280.742 334.17 282.696 333.258 284.13 332.346C290.91 327.39 296.13 320.612 301.33 314.094C302.032 312.934 303.082 312.024 304.33 311.494C305.634 310.972 307.198 312.406 308.112 311.884C309.416 311.086 308.372 309.262 307.46 308.74Z" fill="#FDB849"/>
<path d="M315.152 334.292C315.15 333.837 315.042 333.389 314.839 332.982C314.635 332.575 314.341 332.221 313.978 331.946C313.304 331.34 312.502 330.894 311.632 330.642C309.099 329.96 306.65 328.998 304.33 327.774C304.73 328.426 304.592 329.208 304.982 329.86C305.318 330.749 305.908 331.519 306.678 332.076C307.178 332.309 307.702 332.484 308.242 332.598C309.546 332.988 314.238 333.38 315.152 334.292ZM326.102 333.902C326.364 332.988 326.364 332.206 327.146 331.554C327.928 330.902 328.97 330.382 329.746 329.73C330.554 329.182 331.187 328.412 331.57 327.514C331.656 328.211 331.612 328.919 331.44 329.6C331.363 330.29 331.141 330.956 330.788 331.554C330.328 332.049 329.743 332.41 329.094 332.598C328.013 332.808 326.992 333.254 326.102 333.902Z" fill="black"/>
<path d="M330.144 347.46C328.58 347.46 326.884 347.59 325.32 347.72C324.857 347.731 324.406 347.87 324.016 348.12C323.694 348.348 323.455 348.676 323.337 349.053C323.219 349.43 323.229 349.835 323.364 350.206C323.594 350.973 324.048 351.655 324.668 352.162C324.444 351.744 324.362 351.264 324.434 350.795C324.506 350.326 324.728 349.893 325.068 349.562C325.748 348.994 326.552 348.592 327.414 348.388C328.318 348.112 329.232 347.72 330.144 347.46Z" fill="white"/>
<path d="M310.2 350.068C308.73 346.908 306.432 344.205 303.55 342.246C301.074 340.42 298.074 339.378 295.468 337.812C292.708 336.384 290.539 334.031 289.34 331.164C289.369 333.6 290.044 335.984 291.296 338.074C292.286 339.235 293.479 340.207 294.816 340.942C300.028 344.07 306.678 345.374 310.2 350.068Z" fill="#FDB849"/>
<path d="M28.6 360.368H28.34C27.688 360.368 26.644 359.968 26.124 358.02C25.3601 354.81 25.3158 351.471 25.994 348.242C30.2039 318.843 37.0099 289.874 46.332 261.676L48.286 262.328C38.9197 290.425 32.1126 319.311 27.948 348.634C27.2952 351.598 27.2952 354.67 27.948 357.634C28.078 358.286 28.348 358.546 28.47 358.546C28.592 358.546 28.6 358.546 28.992 358.286C31.7219 355.976 33.7534 352.951 34.858 349.55C46.722 322.042 56.24 293.1 65.496 265.07L67.452 265.722C58.194 293.752 48.808 322.694 36.814 350.322C35.12 354.104 33.414 357.754 30.164 359.97C29.768 359.976 29.246 360.368 28.6 360.368ZM77.224 352.024H76.962C75.92 351.762 75.658 350.59 75.398 349.546C75.0064 346.342 75.0064 343.102 75.398 339.898C77.484 310.566 81.134 281.498 85.958 253.332L87.914 253.732C83.09 281.76 79.57 310.834 77.484 340.038C77.1571 343.071 77.1571 346.131 77.484 349.164C78.7739 346.578 79.6512 343.807 80.084 340.95C86.21 313.442 91.164 284.498 95.858 256.468L97.814 256.868C93.12 284.898 88.166 313.84 82.038 341.48C81.5535 344.887 80.4022 348.165 78.65 351.126C78.4 351.372 77.874 352.024 77.224 352.024ZM140.974 363.888C140.674 363.87 140.381 363.791 140.112 363.656C139.843 363.521 139.604 363.334 139.41 363.104C136.934 360.888 135.63 357.238 134.456 353.458C125.456 325.948 118.29 296.876 111.38 268.846L113.336 268.324C120.246 296.354 127.416 325.298 136.282 352.806C137.454 356.326 138.628 359.716 140.714 361.54L140.844 361.67C140.974 361.54 140.974 361.27 141.106 361.018C141.629 358.041 141.629 354.995 141.106 352.018C138.024 322.931 132.927 294.093 125.852 265.712L127.808 265.19C134.883 293.659 139.98 322.583 143.06 351.756C143.583 354.951 143.583 358.209 143.06 361.404C142.66 363.23 141.758 363.62 141.236 363.75C141.236 363.888 141.106 363.888 140.974 363.888Z" fill="black"/>
<path d="M160.14 262.2C158.836 268.326 133.674 281.364 129.894 283.84C126.232 285.973 122.123 287.223 117.894 287.492C98.2059 290.092 72.3939 287.752 52.8379 284.754C38.1059 282.538 33.8039 277.452 32.6379 269.5C30.8119 257.766 36.4179 245.772 43.4579 240.818C50.4979 235.864 58.5819 236.256 66.2739 236.776C85.5679 238.08 104.994 239.254 124.29 240.558C127.548 240.818 148.668 232.474 151.668 234.3C158.444 238.73 162.226 252.288 160.14 262.2Z" fill="#008C6E"/>
<path d="M159.358 246.422C154.142 250.202 148.928 254.114 143.452 257.764C140.714 259.59 137.852 261.284 135.108 262.98C132.381 264.435 130.29 266.85 129.242 269.758C128.98 270.672 127.938 270.54 127.416 270.02C122.883 271.965 118.166 273.449 113.336 274.452C113.336 275.234 112.684 275.886 111.902 275.364C106.036 271.192 99.902 266.63 92.476 265.978C89.1987 265.91 85.9228 266.172 82.698 266.76C81.0133 267.02 79.2987 267.02 77.614 266.76C75.922 266.377 74.265 265.854 72.66 265.196C66.7336 262.697 60.4332 261.199 54.016 260.764C47.498 260.502 39.154 261.284 32.766 258.546C32.0917 262.115 32.0038 265.771 32.506 269.368C33.81 277.32 38.106 282.404 52.706 284.622C72.26 287.622 98.074 289.966 117.76 287.358C121.99 287.092 126.099 285.842 129.76 283.708C133.542 281.232 158.704 268.194 160.008 262.066C161.088 256.878 160.865 251.503 159.358 246.422Z" fill="#14D29B"/>
<path d="M204.2 137.822C198.332 140.822 190.12 139.778 183.6 138.736C170.954 136.518 162.09 131.044 150.616 131.434C146.836 131.564 142.402 131.834 139.666 129.088C138.447 127.771 137.435 126.276 136.666 124.654C134.836 121.476 132.452 118.65 129.626 116.312C122.586 120.484 114.626 125.438 110.722 132.608C116.198 140.43 120.762 144.342 127.802 150.73C129.098 152.036 130.652 153.057 132.364 153.73C133.982 154.145 135.666 154.234 137.318 153.99C148.008 153.078 158.7 152.166 169.518 151.39C175.254 150.99 180.86 150.738 186.596 150.476C192.724 150.216 198.46 149.824 204.458 151.52C205.605 151.862 206.785 152.081 207.978 152.172C208.865 152.123 209.741 151.947 210.578 151.65L221.528 148.522C222.18 148.39 222.962 147.87 222.702 147.218C222.572 146.956 222.302 146.818 222.18 146.696C218.79 145.132 214.488 146.956 211.098 145.522C213.184 144.35 215.532 143.436 217.748 142.264C219.414 141.23 221.281 140.564 223.224 140.308C226.614 140.178 229.872 142.784 233.002 141.612C231.958 140.698 231.176 139.396 230.134 138.612C229.649 138.121 229.05 137.757 228.39 137.552C227.73 137.348 227.03 137.309 226.352 137.44C227.791 137.24 229.255 137.515 230.524 138.222C231.164 138.552 231.865 138.745 232.583 138.79C233.301 138.834 234.02 138.73 234.696 138.482C233.36 136.38 231.331 134.812 228.96 134.05C227.882 133.877 226.788 133.833 225.7 133.92C223.876 134.05 222.05 134.18 220.356 134.31C221.243 133.823 222.157 133.388 223.094 133.006C223.598 132.815 224.123 132.684 224.658 132.616C225.666 132.721 226.642 133.031 227.526 133.528C228.394 134.106 229.369 134.506 230.394 134.702C230.909 134.776 231.434 134.691 231.899 134.458C232.363 134.225 232.746 133.855 232.994 133.398C231.82 132.616 230.776 131.572 229.594 130.798C229.994 130.798 230.246 130.398 230.376 130.016C228.29 129.886 226.464 128.322 224.376 128.322C222.946 128.436 221.563 128.883 220.336 129.626C214.766 132.6 209.55 135.084 204.2 137.822Z" fill="#DD4040"/>
<path d="M103.036 98.712C99.5159 95.842 95.7359 92.062 94.5619 87.63C93.3879 83.198 94.5619 76.418 94.6919 71.854C89.7379 72.636 82.9599 73.418 79.1779 70.16C76.5719 82.8 65.2279 91.8 59.4919 103.4C64.3159 103.662 69.1399 106.138 73.4419 108.224C77.7439 110.44 82.6979 112.266 87.3919 111.224C90.7919 110.442 95.4759 109.008 97.6919 106.27C99.7762 103.979 101.571 101.441 103.036 98.712Z" fill="#F7846C"/>
<path d="M82.046 81.372C83.7592 83.1353 85.7964 84.5519 88.046 85.544C89.117 85.933 90.2826 85.9787 91.3808 85.6748C92.4791 85.3708 93.4553 84.7323 94.174 83.848C94.044 79.938 94.694 75.248 94.826 71.848C89.872 72.63 83.092 73.412 79.312 70.154C78.8575 72.2131 78.2024 74.2227 77.356 76.154C78.6659 78.1054 80.2448 79.8621 82.046 81.372Z" fill="black"/>
<path d="M157.662 213.698C160.792 213.83 168.614 218.132 171.352 219.566C175.132 221.652 178.914 224.39 180.608 228.43C183.346 234.82 179.956 241.86 178.262 248.63C175.784 258.93 177.61 269.62 176.044 280.05C174.35 291.002 171.222 301.692 169.396 312.512C168.614 317.206 167.702 322.42 170.048 326.724C172.41 330.779 175.403 334.431 178.914 337.544C183.084 341.456 186.996 342.758 192.472 344.454C194.667 344.921 196.64 346.115 198.072 347.844C199.114 349.538 197.42 351.494 195.334 352.146C189.076 354.492 182.166 353.318 175.778 351.364C169.39 349.41 163.262 346.67 156.744 345.888C155.172 345.818 153.626 345.465 152.18 344.844C148.66 343.02 148.14 338.066 149.312 334.414C150.616 330.374 152.964 326.854 153.876 322.682C154.612 318.949 154.831 315.133 154.528 311.34C153.737 303.767 152.562 296.238 151.008 288.784C149.964 282.396 148.792 275.356 151.398 269.49C152.904 265.91 154.082 262.201 154.918 258.408C155.557 256.62 155.463 254.652 154.658 252.932C152.702 249.932 148.14 251.108 145.01 249.412C144.886 240.034 152.838 213.568 157.662 213.698Z" fill="#DD4040"/>
<path d="M200.164 348.634C198.757 346.711 196.732 345.33 194.428 344.722C188.69 342.898 184.258 341.984 179.956 337.944C176.27 334.711 173.104 330.929 170.57 326.732C168.092 322.298 169.004 316.954 169.788 312C170.437 308.217 171.219 304.436 172.134 300.656C169.722 302.103 167.137 303.241 164.442 304.046C161.516 304.916 158.414 305.006 155.442 304.308C154.673 304.083 153.93 303.776 153.226 303.394C153.615 305.813 153.876 308.25 154.008 310.696C154.315 314.618 154.095 318.564 153.356 322.428C152.444 326.732 149.836 330.382 148.532 334.554C147.228 338.464 147.88 343.554 151.532 345.374C153.053 346.042 154.693 346.397 156.354 346.418C163.264 347.33 169.914 350.068 176.554 352.154C183.194 354.24 190.634 355.412 197.284 352.936C199.382 352.414 201.2 350.458 200.164 348.634Z" fill="#643CFF"/>
<path d="M154.012 313.824C156.49 316.562 160.4 316.04 163.66 314.606C165.814 313.639 167.867 312.46 169.788 311.086C170.438 307.566 171.222 304.176 172.004 300.656C169.591 302.103 167.007 303.241 164.312 304.046C161.386 304.916 158.284 305.006 155.312 304.308C154.543 304.083 153.8 303.776 153.096 303.394C153.485 305.813 153.746 308.25 153.878 310.696C153.987 311.735 154.032 312.78 154.012 313.824ZM200.164 348.634C199.038 347.022 197.445 345.793 195.6 345.114C195.194 346.179 194.521 347.122 193.646 347.852C191.726 349.279 189.56 350.339 187.256 350.98C185.398 351.581 183.64 352.458 182.042 353.58C187.037 354.781 192.265 354.601 197.166 353.058C199.382 352.414 201.2 350.458 200.164 348.634ZM157.4 339.768C155.875 336.204 153.09 333.327 149.578 331.686C149.178 332.598 148.796 333.64 148.404 334.554C147.1 338.464 147.752 343.554 151.404 345.374C152.926 346.042 154.566 346.397 156.228 346.418C157.14 346.548 157.924 346.678 158.828 346.808C158.781 344.394 158.298 342.009 157.4 339.768Z" fill="black"/>
<path d="M105.254 202.618C124.694 205.045 143.946 208.791 162.878 213.83C156.135 227.138 151.976 241.603 150.622 256.46C131.588 255.418 112.422 252.94 93.52 251.898C88.696 251.638 83.35 251.116 79.83 247.726C77.6758 245.443 76.3455 242.507 76.05 239.382C74.876 230.908 78.788 222.434 84.524 216.046C90.13 209.658 97.952 207.18 105.254 202.618Z" fill="#FDB849"/>
<path d="M140.844 121.4C128.46 118 119.6 107.706 110.338 98.842C108.216 96.6558 105.803 94.7715 103.168 93.242C102.124 92.72 96.778 91.546 96.258 90.764C100.168 98.326 102.258 100.672 96.258 102.106C95.3623 102.323 94.4404 102.411 93.52 102.368C88.4671 102.235 83.5507 100.7 79.32 97.934C75.538 95.458 71.496 90.242 66.542 90.242C55.722 98.978 45.684 108.364 39.034 120.62C36.2363 125.811 34.0907 131.328 32.646 137.046C24.954 165.076 28.344 196.246 32.386 225.308C32.646 226.872 37.86 231.826 40.338 229.61C62.882 209.266 88.044 189.058 119.2 191.536C120.244 172.632 122.46 165.07 121.678 146.166C130.154 139.518 133.152 128.696 140.844 121.4Z" fill="#643CFF"/>
<path d="M117.9 132.086C116.863 127.92 115.689 123.789 114.38 119.7C113.399 116.545 112.224 113.453 110.86 110.444C110.076 110.444 109.294 110.314 108.512 110.314C110.053 114.111 111.402 117.982 112.554 121.914C116.074 134.69 119.202 147.466 121.81 160.372C121.94 157.114 122.072 153.724 121.94 149.682C120.636 143.82 119.334 137.952 117.9 132.086Z" fill="black"/>
<path d="M117.248 26.224C119.37 33.6566 120.595 41.3164 120.898 49.04C121.158 55.95 121.298 64.814 117.638 70.942C115.107 74.7827 111.259 77.5649 106.818 78.764C100.806 80.3302 94.5106 80.4672 88.436 79.164C84.0682 78.4997 80.0146 76.4946 76.836 73.426C73.708 70.168 72.274 65.734 70.708 61.564C68.6479 56.231 67.0343 50.7361 65.884 45.136C64.45 37.444 63.538 27.014 67.45 19.974C69.2922 16.7686 71.7871 13.9859 74.7732 11.8061C77.7592 9.62628 81.1698 8.09792 84.784 7.32C89.1864 6.52984 93.7118 6.76571 98.0082 8.00926C102.305 9.25281 106.256 11.4705 109.556 14.49C113.308 17.4789 116.004 21.5912 117.248 26.224Z" fill="#F7846C"/>
<path d="M99.1261 20.488C96.7176 20.5951 94.3057 20.3758 91.9561 19.836C88.2037 18.8375 84.359 18.2256 80.4821 18.01C69.7921 18.272 70.8341 35.872 70.7041 37.698C70.1841 42.912 71.2261 48.126 71.6181 53.342C69.8263 52.1314 67.9555 51.0423 66.0181 50.082C64.3221 44.082 62.8881 26.882 66.8001 19.706C69.1014 15.7314 72.3522 12.3893 76.2616 9.9788C80.171 7.56832 84.617 6.16464 89.2018 5.89337C93.7866 5.6221 98.3671 6.49171 102.533 8.42438C106.7 10.357 110.322 13.2925 113.076 16.968C110.192 18.5085 107.057 19.5243 103.818 19.968C102.271 20.2704 100.702 20.4444 99.1261 20.488Z" fill="black"/>
<path d="M64.708 47.344C63.8782 46.9135 62.9529 46.6997 62.0183 46.7224C61.0837 46.7451 60.17 47.0037 59.362 47.474C58.7047 48.1105 58.2509 48.9276 58.058 49.822C57.8507 51.2196 57.9287 52.6448 58.2872 54.0115C58.6457 55.3782 59.2774 56.6581 60.144 57.774C63.0055 61.8611 67.2813 64.7416 72.144 65.858C72.7501 66.0693 73.3981 66.1322 74.0336 66.0414C74.669 65.9506 75.2734 65.7087 75.796 65.336C76.3177 64.7686 76.5981 64.0205 76.578 63.25C76.6833 61.0377 76.09 58.8484 74.882 56.992C72.8566 52.588 69.2132 49.133 64.708 47.344Z" fill="#F7846C"/>
<path d="M72.8 61.424C70.454 53.732 66.152 51.908 61.85 49.824C64.5921 51.9958 66.9689 54.5927 68.89 57.516C67.31 57.038 65.6179 57.0836 64.066 57.646C67.1147 58.5612 70.046 59.8298 72.8 61.426" fill="#DD4040"/>
<path d="M99.256 67.682C96.6325 67.7391 94.0221 67.2966 91.564 66.378L92.086 64.944C97.2805 66.7585 102.971 66.5254 108 64.292L108.652 65.728C105.706 67.0757 102.495 67.7435 99.256 67.682Z" fill="black"/>
<path d="M100.82 57.384C100.578 51.9226 100.013 46.4804 99.126 41.086C102.526 46.686 103.688 51.516 107.99 54.516C105.539 55.3132 103.144 56.2713 100.82 57.384Z" fill="#DD4040"/>
<path d="M80.222 45.52C82.308 41.086 85.306 38.48 88.566 38.218C90.3084 38.1333 92.0304 38.6233 93.4671 39.6127C94.9038 40.6021 95.9757 42.036 96.518 43.694C94.4825 45.6914 91.8011 46.897 88.956 47.094C85.9502 47.6169 82.8563 47.0593 80.222 45.52ZM103.558 43.954C105.644 39.522 108.642 36.914 111.902 36.654C115.03 36.254 118.16 38.218 119.854 42.13C117.819 44.1271 115.138 45.3327 112.294 45.53C109.288 45.9763 106.219 45.4226 103.558 43.954Z" fill="white"/>
<path d="M89.6 38.61C89.7337 41.4827 89.3364 44.3554 88.428 47.084H88.948C91.7815 46.8418 94.4483 45.6428 96.51 43.684C95.9622 42.2672 95.0205 41.0367 93.7962 40.1376C92.5718 39.2386 91.1158 38.7085 89.6 38.61ZM113.076 37.046C113.164 39.9267 112.722 42.799 111.772 45.52H112.294C115.127 45.2775 117.793 44.0785 119.854 42.12C119.372 40.687 118.465 39.4344 117.255 38.5283C116.044 37.6221 114.587 37.1052 113.076 37.046Z" fill="black"/>
<path d="M88.8259 40.566C89.6539 40.3431 90.5178 40.2859 91.368 40.3978C92.2181 40.5097 93.0378 40.7884 93.7799 41.218C94.574 41.708 95.3176 42.2755 95.9999 42.912C95.4332 41.4059 94.3847 40.1292 93.0176 39.2803C91.6505 38.4315 90.0412 38.058 88.4399 38.218C85.3099 38.618 82.1819 41.086 80.0959 45.52C82.5787 43.209 85.5687 41.5123 88.8259 40.566ZM111.51 39.652C113.115 39.3481 114.771 39.438 116.334 39.914C117.507 40.2938 118.609 40.8663 119.594 41.608C119.006 40.0257 117.933 38.6699 116.528 37.7345C115.123 36.799 113.458 36.3319 111.772 36.4C109.884 36.8717 108.139 37.7941 106.686 39.0882C105.232 40.3822 104.115 42.0093 103.428 43.83C105.664 41.6892 108.47 40.2386 111.51 39.652Z" fill="#DD4040"/>
<path d="M98.6 33.656C95.0512 32.742 91.3287 32.742 87.78 33.656C84.3825 34.5693 81.3112 36.4214 78.918 39C82.9067 38.5214 86.9408 38.5657 90.918 39.132C92.2264 39.3054 93.5563 39.2163 94.83 38.87C95.9937 38.6244 97.0244 37.9545 97.7213 36.9906C98.4182 36.0268 98.7314 34.8381 98.6 33.656ZM118.42 33.656C117.673 32.2716 116.407 31.2401 114.9 30.788C113.429 30.3074 111.885 30.0868 110.338 30.136C108.637 30.0338 106.937 30.3468 105.384 31.048C105.384 31.7 104.862 32.612 104.862 33.134C104.811 33.7545 104.9 34.3785 105.122 34.96C105.424 35.3253 105.802 35.6197 106.23 35.8223C106.659 36.0248 107.126 36.1306 107.6 36.132C109.721 35.8269 111.785 35.2123 113.728 34.308C115.227 33.7554 116.827 33.533 118.42 33.656Z" fill="black"/>
<path d="M151.4 286.186C151.144 285.603 150.679 285.137 150.096 284.882L145.8 281.752C141.503 278.217 137.728 274.091 134.588 269.498C132.112 265.718 128.07 259.98 127.81 255.418C127.41 249.16 129.504 242.12 130.81 236.122C132.244 229.734 133.938 223.346 135.112 216.958C136.087 211.057 136.48 205.075 136.286 199.098C135.98 192.459 136.461 185.806 137.72 179.28C139.414 172.632 142.674 165.462 140.066 159.08C138.372 155.038 134.59 152.43 130.81 150.214C128.142 148.487 125.105 147.415 121.944 147.084C117.12 146.954 112.818 149.822 109.038 152.822C100.239 159.485 91.9577 166.805 84.2639 174.718C84.089 177.017 84.0449 179.324 84.1319 181.628C84.9974 197.231 91.0512 212.098 101.332 223.868C104.852 216.176 107.98 208.092 110.85 200.14C108.25 206.006 109.414 213.048 110.45 219.436C111.624 226.344 113.188 233.254 113.85 240.294C114.263 243.849 114.219 247.442 113.72 250.986C113.198 254.896 110.46 258.678 108.766 262.328C107.952 263.791 107.379 265.375 107.07 267.02C106.747 268.826 107.049 270.688 107.926 272.3C108.803 273.911 110.202 275.176 111.894 275.886C114.11 276.93 116.718 276.798 119.064 277.712C121.881 279.025 124.407 280.887 126.496 283.188C131.188 287.49 137.838 292.444 144.486 292.574H144.618C145.946 292.602 147.253 292.249 148.386 291.555C149.518 290.862 150.428 289.857 151.006 288.662C151.434 287.912 151.574 287.032 151.4 286.186Z" fill="#F7846C"/>
<path d="M152.448 286.838C152.109 286.239 151.613 285.743 151.014 285.404C149.483 284.391 148.003 283.303 146.58 282.144C142.153 278.479 138.25 274.224 134.98 269.498C132.38 265.586 128.2 259.72 127.94 255.026C127.54 248.638 129.634 241.338 131.068 235.21L131.468 233.646C130.586 234.299 129.673 234.908 128.73 235.47C127.144 236.649 125.297 237.43 123.346 237.748C121.395 238.066 119.397 237.911 117.518 237.296C115.843 236.669 114.296 235.741 112.954 234.558C113.216 236.254 113.354 237.818 113.606 239.512C114.02 243.154 113.976 246.833 113.476 250.464C112.824 254.506 110.076 258.416 108.262 262.064C107.408 263.568 106.792 265.195 106.436 266.888C106.136 268.743 106.459 270.645 107.356 272.296C108.252 273.948 109.671 275.255 111.39 276.014C113.738 277.058 116.474 276.928 118.822 277.84C121.742 279.161 124.36 281.067 126.514 283.44C131.468 287.872 138.248 292.956 145.156 293.218H145.288C146.667 293.252 148.026 292.889 149.205 292.172C150.384 291.456 151.332 290.416 151.936 289.176C152.198 288.853 152.381 288.474 152.47 288.068C152.559 287.662 152.551 287.241 152.448 286.838Z" fill="#9778FF"/>
<path d="M113.728 243.162C118.03 246.814 123.896 246.032 129.112 243.424C129.761 240.556 130.413 237.818 131.066 235.21L131.466 233.646C130.584 234.299 129.671 234.908 128.728 235.47C127.142 236.649 125.295 237.43 123.344 237.748C121.393 238.066 119.395 237.911 117.516 237.296C115.841 236.669 114.294 235.741 112.952 234.558C113.214 236.254 113.352 237.818 113.604 239.512C113.6 240.686 113.728 242 113.728 243.162ZM115.162 267.934C113.588 265.166 111.347 262.835 108.642 261.154L108.242 261.936C107.388 263.44 106.772 265.067 106.416 266.76C106.116 268.615 106.439 270.517 107.336 272.168C108.232 273.82 109.651 275.127 111.37 275.886C113.142 276.519 114.979 276.956 116.846 277.19C117.242 275.616 117.297 273.976 117.007 272.38C116.716 270.783 116.087 269.267 115.162 267.934ZM151.014 285.4C150.614 285.138 150.362 284.878 149.97 284.618C147.847 285.885 145.624 286.975 143.322 287.876C141.819 288.417 140.444 289.26 139.28 290.354C138.939 290.668 138.634 291.017 138.368 291.396C140.561 292.341 142.897 292.914 145.278 293.092H145.4C146.779 293.126 148.138 292.763 149.317 292.046C150.496 291.33 151.443 290.29 152.048 289.05C152.273 288.708 152.425 288.322 152.494 287.918C152.563 287.514 152.547 287.1 152.448 286.702C152.066 286.173 151.578 285.729 151.014 285.4Z" fill="#643CFF"/>
<path d="M111.51 197.012C112.249 194.696 112.428 192.238 112.032 189.84C111.902 187.754 111.38 185.8 111.38 183.714C111.25 176.152 118.812 171.198 124.156 167.286C127.672 165.093 131.747 163.962 135.89 164.028C137.601 163.942 139.316 164.117 140.974 164.548C141.019 162.629 140.664 160.722 139.932 158.948C138.238 154.908 134.456 152.3 130.676 150.084C128.009 148.356 124.971 147.284 121.81 146.954C116.986 146.824 112.684 149.692 108.904 152.69C100.106 159.354 91.8252 166.674 84.1321 174.588C83.9581 176.887 83.914 179.194 84.0001 181.498C84.8674 197.103 90.9249 211.97 101.21 223.738C104.468 216.698 107.336 209.396 109.944 202.226C110.468 200.8 111.12 198.446 111.51 197.012Z" fill="#DD4040"/>
<path d="M109.556 215.524C98.604 203.138 93.65 183.324 96.258 167.026C96.6256 163.449 97.9294 160.031 100.038 157.118C75.6741 177.096 54.4864 200.658 37.2 227C35.374 229.868 40.72 238.864 42.284 241.08C45.3657 245.406 49.4324 248.936 54.148 251.38C60.7343 254.466 68.0282 255.726 75.268 255.03C81.268 254.63 89.868 254.378 94.692 250.468C96.7001 248.521 98.3351 246.223 99.516 243.688C104.34 234.298 108 225.954 109.556 215.524Z" fill="#FFD340"/>
<path d="M99.1261 90.628C97.7315 89.63 96.5713 88.3401 95.7261 86.848C95.0741 90.628 97.6821 94.148 98.3261 98.06C98.4568 98.4397 98.4568 98.8523 98.3261 99.232C98.0715 99.9417 97.5865 100.546 96.9484 100.947C96.3104 101.349 95.5561 101.525 94.8061 101.448C92.6324 101.318 90.5259 100.646 88.6781 99.494C84.7797 97.437 80.9937 95.1738 77.3361 92.714C73.9868 89.9875 70.1325 87.9486 65.9941 86.714C65.4721 88.41 64.9501 89.974 64.5601 91.668C68.6585 92.8724 72.4414 94.9646 75.6401 97.796C78.7641 100.566 82.2247 102.931 85.9401 104.836C87.7925 105.789 89.8416 106.297 91.9247 106.319C94.0078 106.342 96.0674 105.879 97.9401 104.966C99.3944 104.235 100.514 102.976 101.07 101.446C101.613 99.6114 101.566 97.653 100.938 95.846C100.43 94.018 99.6481 92.454 99.1261 90.628ZM72.0001 175.108C74.1279 174.417 76.0985 173.313 77.7987 171.859C79.4989 170.404 80.8954 168.629 81.9081 166.634C85.5581 159.724 91.1641 140.822 93.1201 137.034C95.0761 133.384 85.6901 142.38 78.2581 152.034C70.5741 161.81 68.8801 169.764 72.0001 175.108Z" fill="black"/>
<path d="M86.35 152.034C87.784 149.434 89.086 146.818 90.522 144.342C92.0475 141.475 93.1452 138.401 93.78 135.216C91.9951 132.194 89.7014 129.503 87 127.262C79.96 131.434 72 136.388 68.098 143.558C72.53 149.816 76.572 156.596 81.526 161.158C82.0093 159.947 82.5753 158.771 83.22 157.638C83.8652 156.35 84.5611 155.089 85.306 153.856C85.5745 153.206 85.9254 152.594 86.35 152.034ZM108.512 17.098C107.6 17.228 98.474 17.36 98.474 17.36C93.52 16.838 88.566 15.534 83.742 15.012C80.8671 14.3967 77.8674 14.8123 75.268 16.186C73.9795 17.1849 72.9428 18.4716 72.2409 19.9431C71.539 21.4146 71.1915 23.03 71.226 24.66C70.826 31.57 73.826 38.088 75.79 44.86L75.39 47.206C74.4787 49.7861 73.8235 52.4496 73.434 55.158C73.3338 57.0281 73.6451 58.8974 74.346 60.634C74.216 60.764 74.216 61.034 74.086 61.156C72.26 65.85 72.522 71.716 76.172 75.106C74.216 71.846 74.868 67.936 76.302 64.416C77.606 66.24 79.04 67.936 80.474 69.63C79.0512 67.757 77.7454 65.7979 76.564 63.764C77.866 60.504 79.692 57.244 79.952 53.724C80.0756 50.1494 79.4091 46.5915 78 43.304C78.782 37.958 76.696 32.352 77.348 27.006C77.4075 26.0475 77.6743 25.1133 78.13 24.268C79.0901 22.7753 80.5813 21.7029 82.302 21.268C86.3484 20.2646 90.5289 19.9128 94.686 20.226C96.7408 20.2515 98.7932 20.0767 100.814 19.704C103.612 19.8031 106.35 18.8763 108.512 17.098ZM76.572 54.516C76.0997 56.1717 75.4888 57.7847 74.746 59.338C74.4776 58.096 74.3435 56.8287 74.346 55.558C74.6598 53.0731 75.3638 50.6534 76.432 48.388C76.8678 50.4032 76.9154 52.483 76.572 54.516ZM76.05 24C74.486 27.52 75.006 31.562 75.528 35.342C75.0119 33.3685 74.6198 31.3645 74.354 29.342C73.8754 26.9266 73.9204 24.4366 74.486 22.04C74.7582 20.847 75.3153 19.7377 76.1098 18.807C76.9043 17.8763 77.9125 17.152 79.048 16.696C81.0253 16.2165 83.0934 16.2613 85.048 16.826C85.96 16.956 87.002 17.226 87.916 17.348C83.09 17.49 78 19.706 76.05 24Z" fill="black"/>
<path d="M66.012 384.094L58.058 383.052C66.924 319.43 77.744 255.418 90 192.71L97.822 194.274C85.5072 257.249 74.9 320.545 66.012 384.094ZM151.8 400L143.978 398.566C148.54 374.186 151.93 349.024 155.578 322.298C160.402 286.446 165.356 249.298 173.44 214.35L181.262 216.176C173.31 250.854 168.354 287.75 163.532 323.472C159.748 350.068 156.358 375.49 151.8 400Z" fill="#008C6E"/>
<path d="M359.086 163.896L188.43 222.564L67.7061 189.84V177.456L359.086 151.512V163.896Z" fill="#14D29B"/>
<path d="M246.836 133.39L67.7061 177.456L188.43 210.178L359.086 151.512L246.836 133.39Z" fill="#008C6E"/>
<path d="M147.884 164.94L180.478 171.72L228.846 158.812V154.25H198.468L147.884 162.984V164.94Z" fill="#FFD340"/>
<path d="M147.884 162.984L180.216 168.46L180.478 171.72L147.884 164.94V162.984Z" fill="black"/>
<path d="M203.422 187.754C203.578 186.173 203.311 184.578 202.646 183.135C201.982 181.692 200.945 180.452 199.642 179.542C197.04 177.704 193.96 176.662 190.776 176.542C188.112 176.28 185.424 176.684 182.954 177.716C181.742 178.273 180.689 179.127 179.893 180.198C179.097 181.268 178.584 182.522 178.4 183.844C178 187.494 183.614 189.58 186.352 190.362C191.95 192.058 198.86 192.058 203.422 187.754Z" fill="#FDB849"/>
<path d="M201.858 185.018C202.254 184.085 202.366 183.057 202.181 182.061C201.996 181.065 201.521 180.146 200.816 179.418C200.218 178.948 199.489 178.674 198.73 178.634C197.017 178.855 195.442 179.689 194.296 180.982C197.034 181.888 200.294 182.932 201.858 185.018Z" fill="black"/>
<path d="M190.646 148.774C189.563 148.173 188.362 147.816 187.126 147.73C187.054 147.74 186.98 147.734 186.911 147.711C186.842 147.689 186.778 147.651 186.726 147.6C185.663 146.425 184.433 145.414 183.074 144.6C182.539 144.168 181.917 143.857 181.25 143.688C180.517 143.578 179.775 143.534 179.034 143.556C176.85 143.646 174.673 143.863 172.514 144.208C171.825 144.078 171.117 144.078 170.428 144.208C167.04 144.608 164.428 147.076 161.564 148.642C155.696 151.642 147.484 150.596 140.964 149.554C128.328 147.34 119.464 141.864 108 142.256C104.22 142.386 99.788 142.646 97.05 139.908C95.8303 138.592 94.8187 137.097 94.05 135.476C92.2172 132.296 89.8295 129.47 87 127.132C79.96 131.304 72 136.258 68.098 143.428C73.572 151.25 81.526 156.856 88.566 163.246C89.862 164.552 91.4157 165.573 93.128 166.246C94.7458 166.66 96.4298 166.748 98.082 166.506C118.55 164.812 129.502 161.162 154.664 160.378C158.706 160.248 163.664 161.292 166.918 158.292C168.194 156.831 169.745 155.635 171.482 154.772C173.3 154.21 175.239 154.165 177.082 154.642C179.348 155.184 181.699 155.273 184 154.902C184.912 154.64 185.694 154.502 186.086 153.728C186.183 153.532 186.315 153.355 186.476 153.206C186.529 153.156 186.592 153.118 186.661 153.095C186.73 153.073 186.804 153.066 186.876 153.076H187C188.304 152.424 189.216 151.382 188.564 150.73C189.474 150.6 191.69 149.556 190.646 148.774Z" fill="#F7846C"/>
<path d="M50.3659 111.226C51.1588 109.054 52.3733 107.061 53.9395 105.361C55.5057 103.66 57.3927 102.286 59.4919 101.318C66.6639 98.318 73.1819 101.318 78.0059 107.054C81.5259 111.226 84.3939 116.054 87.7839 120.352C88.5659 121.266 97.692 130.912 97.952 130.522C93.491 138.974 88.2075 146.965 82.178 154.38C77.224 160.116 70.7039 167.026 72.1379 175.38C69.6619 172.25 67.3139 169.38 65.8799 167.558C63.5339 164.558 61.3179 161.558 59.3619 158.558C53.6259 149.958 48.932 139.914 48.15 129.484C47.3186 123.309 48.0814 117.023 50.3659 111.226Z" fill="#9778FF"/>
<path d="M290.38 160.638C296.508 156.988 304.722 151.902 310.458 147.992C297.361 141.876 283.959 136.437 270.304 131.696C262.714 135.851 255.358 140.421 248.27 145.384C263.654 149.948 275.648 155.554 290.38 160.638Z" fill="white"/>
<path d="M280.734 153.468C283.734 154.77 286.734 156.068 289.598 157.508C291.814 155.814 294.032 154.25 296.248 152.684C298.204 151.382 300.158 150.084 302.248 148.904C299.902 147.73 297.424 146.558 294.948 145.384C294.565 145.291 294.208 145.113 293.904 144.862C289.494 147.7 285.104 150.569 280.734 153.468Z" fill="#008C6E"/>
<path d="M279.69 141.864C277.734 143.168 275.648 144.342 273.824 145.644C272.25 146.701 270.727 147.832 269.26 149.034C270.564 149.556 271.998 150.078 273.302 150.598C274.866 151.25 276.432 151.772 277.866 152.424C282.185 149.319 286.667 146.448 291.294 143.824C288.426 142.52 285.426 141.346 282.428 140.174C281.487 140.689 280.573 141.253 279.69 141.864Z" fill="#14D29B"/>
<path d="M279.82 139L273.562 136.654C272.584 136.247 271.582 135.898 270.562 135.61C270.2 135.877 269.806 136.096 269.388 136.262C265.079 138.831 260.902 141.616 256.874 144.606C260.031 145.657 263.16 146.787 266.26 147.996C270.694 144.862 275.258 142 279.82 139Z" fill="#FFD340"/>
<path d="M294.684 162.724C298.594 158.552 303.418 152.816 306.808 148.524C288.652 146.402 270.434 144.837 252.182 143.83C247.239 148.53 242.743 153.681 238.754 159.214C258.44 159.724 275.258 161.68 294.684 162.724Z" fill="white"/>
<path d="M279.168 159.074C283.34 159.464 287.382 159.856 291.424 160.376C292.598 158.682 293.64 156.856 294.944 155.162C296.047 153.633 297.269 152.195 298.6 150.86C295.21 150.46 291.82 149.948 288.3 149.556C287.78 149.556 287.258 149.426 286.736 149.426C284.254 152.684 281.646 155.814 279.168 159.074Z" fill="#643CFF"/>
<path d="M269.652 149.948C268.478 151.382 267.174 152.684 266.132 154.12C265.258 155.275 264.474 156.495 263.786 157.77L269.26 158.16C271.346 158.29 273.432 158.56 275.518 158.682C277.892 155.247 280.553 152.02 283.472 149.034L271.346 147.862C270.735 148.519 270.169 149.215 269.652 149.948Z" fill="#9778FF"/>
<path d="M267.566 147.6C264.828 147.34 261.966 147.21 259.222 146.948C257.918 146.818 256.622 146.818 255.31 146.688L254.528 147.47C251.827 150.334 249.384 153.432 247.228 156.726C251.4 156.988 255.572 157.126 259.744 157.508C262.35 154.25 264.958 151 267.566 147.6Z" fill="#FF465A"/>
<path d="M298.239 155.549C299.22 155.315 299.934 154.785 299.834 154.365C299.734 153.945 298.857 153.794 297.876 154.028C296.895 154.262 296.181 154.792 296.282 155.212C296.382 155.632 297.258 155.783 298.239 155.549Z" fill="black"/>
<path d="M304.07 158.552C303.175 158.58 302.285 158.401 301.47 158.03L302.122 156.336C303.753 156.828 305.505 156.735 307.076 156.074C308.423 155.546 309.643 154.738 310.654 153.704C311.666 152.67 312.446 151.432 312.944 150.074C313.221 149.144 313.271 148.162 313.09 147.209C312.908 146.256 312.5 145.36 311.9 144.598C311.061 143.591 309.957 142.839 308.714 142.424C307.47 142.01 306.136 141.95 304.86 142.252C303.312 142.5 301.862 143.167 300.665 144.18C299.469 145.193 298.572 146.514 298.072 148C297.797 149.03 297.736 150.105 297.893 151.159C298.051 152.213 298.422 153.223 298.986 154.128L297.552 155.04C296.853 153.925 296.388 152.68 296.186 151.38C295.984 150.08 296.05 148.752 296.378 147.478C296.998 145.691 298.09 144.105 299.537 142.888C300.984 141.67 302.734 140.866 304.6 140.56C306.19 140.176 307.857 140.254 309.405 140.785C310.952 141.317 312.315 142.28 313.334 143.56C314.116 144.535 314.644 145.688 314.871 146.916C315.099 148.144 315.019 149.41 314.638 150.6C314.103 152.24 313.203 153.737 312.006 154.979C310.81 156.221 309.347 157.176 307.728 157.772C306.593 158.333 305.335 158.601 304.07 158.552ZM178 165.33L172.656 162.462C175.913 125.177 180.215 88.412 185.562 52.168C209.812 50.604 238.232 49.952 267.826 48.126L272.52 50.726L178 165.33ZM233.538 185.148C229.236 185.018 209.028 176.148 206.552 175.108C204.076 174.068 200.034 171.198 213.984 168.068C227.802 164.94 227.28 161.55 252.052 172.632L233.538 185.148Z" fill="black"/>
<path d="M257.266 143.95C261.178 110.836 266 82.284 272.52 50.6C245.142 52.946 212.94 53.338 190.908 55.032C185.563 91.2773 181.26 128.043 178 165.33C204.074 159.6 231.844 152.034 257.266 143.95Z" fill="#FDB849"/>
<path d="M237.71 132.346C239.926 131.696 244.098 136.388 246.054 142.776C248.01 148.904 249.054 156.204 245.924 157.118C242.796 158.16 249.444 160.376 251.138 156.988C252.832 153.6 251.66 147.73 249.966 142.124C248.272 136.518 241.752 129.74 238.492 130.26C235.232 130.78 237.71 132.346 237.71 132.346Z" fill="black"/>
<path d="M260.916 163.506C259.092 157.77 257.396 151.906 255.442 146.166C251.79 134.824 247.75 122.178 243.578 110.836C236.928 112.27 229.498 114.094 222.196 113.436C226.63 134.424 231.062 155.414 235.624 176.274C236.146 178.49 236.928 184.618 235.756 185.53C237.842 186.312 261.956 178.1 262.742 176.144C264.306 172.892 262.35 167.8 260.916 163.506ZM249.704 154.64C249.513 155.218 249.19 155.743 248.76 156.173C248.33 156.603 247.806 156.927 247.228 157.118C246.096 157.145 244.976 156.884 243.972 156.359C242.969 155.835 242.115 155.063 241.492 154.118C239.792 151.944 238.43 149.526 237.45 146.946C236.373 144.243 235.756 141.379 235.624 138.472C235.514 137.353 235.695 136.224 236.151 135.196C236.606 134.168 237.321 133.276 238.224 132.606C239.347 132.211 240.564 132.174 241.709 132.5C242.853 132.827 243.868 133.501 244.612 134.43C249.444 139.386 251.66 150.2 249.704 154.64Z" fill="#FFD340"/>
<path d="M222.326 113.444L220.632 119.832C220.632 119.832 230.41 165.07 231.322 172.372C231.965 176.475 231.965 180.653 231.322 184.756C232.734 185.124 234.172 185.385 235.624 185.538C236.798 185.538 237.58 184.886 235.494 175.24C233.408 165.594 222.326 113.444 222.326 113.444Z" fill="black"/>
<path d="M176.044 180.976L136.412 191.926L113.076 175.892V174.066L176.044 179.28V180.976Z" fill="#643CFF"/>
<path d="M113.076 174.066L136.412 190.232L176.044 179.28L150.362 167.156L113.076 174.066Z" fill="#9778FF"/>
<path d="M121.028 175.5L150.232 169.764L167.57 178.628L166.788 178.76L150.232 170.024L121.68 175.892L121.028 175.5Z" fill="#643CFF"/>
<path d="M135.89 234.428C135.344 234.42 134.808 234.283 134.326 234.028C133.332 233.492 132.516 232.676 131.98 231.682C130.069 228.489 128.66 225.021 127.8 221.4C126.519 216.691 125.561 211.9 124.932 207.06C124.257 203.524 124.301 199.888 125.062 196.37C125.453 194.508 126.285 192.768 127.487 191.293C128.689 189.819 130.227 188.654 131.972 187.896L132.624 189.72C131.164 190.369 129.88 191.358 128.882 192.606C127.883 193.854 127.199 195.323 126.886 196.89C126.256 200.203 126.212 203.601 126.756 206.93C127.404 211.671 128.319 216.372 129.494 221.01C130.296 224.449 131.615 227.745 133.406 230.788C133.75 231.461 134.297 232.008 134.97 232.352C136.404 233.004 138.23 231.57 139.532 230.006C144.226 224.006 146.704 216.446 148.532 209.928L148.662 209.668C149.181 207.001 150.246 204.47 151.792 202.236C154.53 198.846 159.614 197.152 165.48 197.934C167.867 198.254 170.222 198.777 172.52 199.498C174.708 200.101 176.928 200.579 179.17 200.932C186.47 201.976 193.77 199.89 200.55 197.674C204.733 196.516 208.637 194.52 212.024 191.806C213.98 189.982 215.544 187.244 214.5 185.028C213.765 183.75 212.679 182.709 211.372 182.028C210.276 181.434 209.303 180.638 208.504 179.682C206.548 177.597 205.765 174.337 206.156 169.904C206.179 169.245 206.267 168.59 206.418 167.948C206.808 165.574 206.808 163.152 206.418 160.778C206.083 159.337 205.358 158.015 204.323 156.957C203.289 155.899 201.983 155.145 200.55 154.778L200.95 152.824C202.765 153.233 204.426 154.148 205.742 155.463C207.057 156.778 207.973 158.439 208.382 160.254C208.88 162.878 208.924 165.569 208.512 168.208C208.404 168.81 208.361 169.421 208.382 170.032C207.982 173.814 208.642 176.55 210.206 178.246C210.947 178.999 211.779 179.656 212.684 180.202C214.249 181.115 215.551 182.417 216.464 183.982C218.028 187.382 215.812 191.022 213.464 193.108C209.85 196.041 205.682 198.214 201.208 199.496C194.168 201.844 186.608 203.928 178.916 202.886C176.569 202.564 174.255 202.038 172 201.314C169.784 200.649 167.516 200.17 165.22 199.88C160.136 199.228 155.572 200.532 153.356 203.4C152.025 205.42 151.096 207.677 150.618 210.048L150.488 210.31C148.662 217.088 146.186 224.91 141.102 231.168C140.544 232.077 139.783 232.845 138.879 233.41C137.975 233.976 136.952 234.324 135.89 234.428Z" fill="#643CFF"/>
<path d="M198.73 155.814C198.86 154.25 199.13 152.684 199.382 151.12C199.809 151.035 200.248 151.037 200.674 151.127C201.099 151.217 201.502 151.392 201.858 151.642C202.214 151.914 202.497 152.272 202.679 152.682C202.862 153.092 202.938 153.541 202.902 153.988C202.815 154.434 202.612 154.849 202.315 155.192C202.017 155.535 201.635 155.795 201.206 155.944C200.811 156.115 200.382 156.192 199.953 156.17C199.523 156.147 199.105 156.025 198.73 155.814Z" fill="#643CFF"/>
<path d="M194.328 156.164L194.928 151.246L196.868 151.484L196.268 156.4L194.328 156.164ZM189.732 157.656L190.568 151.85L192.504 152.13L191.668 157.934L189.732 157.656ZM181.894 156.496L185.98 155.656L186.374 157.57L182.288 158.41L181.894 156.496ZM206.292 154.38L205.77 152.424L208.116 152.024L208.246 153.978L206.292 154.38Z" fill="black"/>
<path d="M140.974 365.712C131.99 363.076 124.028 357.753 118.16 350.458C112.283 343.266 108.777 334.431 108.122 325.166C95.3748 328.117 82.4354 330.165 69.4 331.294C67.9717 343.198 69.7733 355.266 74.616 366.234C79.83 376.924 89.086 386.05 100.56 389.31C115.731 384.804 129.594 376.71 140.974 365.712Z" fill="#9778FF"/>
<path d="M121.81 363.626C110.598 358.802 97.4301 350.068 92.0861 338.986C90.1838 351.462 91.1197 364.207 94.8241 376.272C105 372.23 113.6 367.4 121.81 363.626Z" fill="white"/>
<path d="M112.554 373.8C101.994 367.932 94.554 360.11 84.394 358.286C91.0652 357.74 97.7628 358.954 103.818 361.806C104.942 356.504 107.674 351.678 111.642 347.986C106.818 356.064 106.426 368.058 112.554 373.8Z" fill="black"/>
<path d="M270.042 360.498C268.31 359.443 266.654 358.266 265.088 356.978C264.958 357.368 264.828 357.498 264.688 357.89C266.134 358.903 267.527 359.992 268.86 361.15C269.224 360.882 269.621 360.663 270.042 360.498ZM260.264 357.498L253.616 355.934V355.544L260.396 356.978L260.264 357.498ZM268.088 370.8L267.826 370.41C269.19 369.771 270.36 368.781 271.216 367.542C271.639 366.968 271.909 366.296 272 365.589C272.091 364.881 272.001 364.163 271.738 363.5L272.128 363.24C272.425 363.984 272.534 364.79 272.443 365.587C272.352 366.383 272.065 367.144 271.608 367.802C270.64 369.02 269.444 370.038 268.088 370.8Z" fill="white"/>
<path d="M266.132 371.84L268.218 368.32L268.608 368.58L267.044 371.188L269.39 370.928L269.522 371.318L266.132 371.84ZM259.874 378.488C258.322 376.699 256.668 375.001 254.92 373.404L255.32 373.014C257.143 374.576 258.844 376.275 260.406 378.098L259.874 378.488ZM259.482 375.75C258.451 375.065 257.528 374.231 256.744 373.274L257.144 372.874C257.913 373.758 258.786 374.547 259.744 375.222L259.482 375.75ZM257.414 372.156L257.792 371.796L260.038 374.158L259.66 374.518L257.414 372.156ZM263.916 375.36C262.612 373.664 261.316 372.1 259.874 370.536L260.264 370.136C261.681 371.684 263.03 373.294 264.306 374.96L263.916 375.36ZM246.836 363.496L246.316 363.366C246.732 361.349 246.951 359.297 246.968 357.238H247.488C247.465 359.34 247.247 361.435 246.836 363.496ZM248.27 362.584L247.75 362.452C248.008 361.252 248.139 360.029 248.14 358.802H248.662C248.532 360.106 248.4 361.28 248.27 362.584ZM248.48 364.17L248.86 361.328L249.38 361.398L249 364.238L248.48 364.17ZM259.222 359.716L258.822 359.454C259.464 358.699 260.211 358.041 261.04 357.498L258.954 355.674L259.344 355.274L261.822 357.49L261.56 357.622C260.693 358.216 259.907 358.92 259.222 359.716ZM281.776 364.018C280.196 364.038 278.619 363.863 277.082 363.496L277.214 362.974C279.082 363.476 281.022 363.653 282.95 363.496V364.018C282.561 363.953 282.165 363.953 281.776 364.018ZM281.124 364.93C280.282 364.936 279.445 364.8 278.648 364.53L278.778 364.01C279.668 364.27 280.589 364.405 281.516 364.41V364.932L281.124 364.93ZM237.32 368.58C236.838 368.599 236.357 368.516 235.909 368.337C235.461 368.157 235.056 367.885 234.72 367.538C234.225 366.911 233.946 366.141 233.922 365.342C233.899 364.544 234.133 363.759 234.59 363.104C235.308 361.826 236.467 360.853 237.85 360.368L237.98 360.888C236.71 361.382 235.65 362.301 234.98 363.488C234.597 364.069 234.393 364.749 234.393 365.444C234.393 366.139 234.597 366.819 234.98 367.4C235.57 367.984 236.367 368.312 237.198 368.312C238.158 368.242 239.093 367.975 239.946 367.528C240.798 367.08 241.549 366.462 242.152 365.712C242.494 365.299 242.741 364.817 242.876 364.299C243.011 363.78 243.031 363.239 242.934 362.712C242.732 361.883 242.291 361.132 241.665 360.552C241.039 359.972 240.256 359.59 239.414 359.452L239.544 358.93C240.507 359.079 241.4 359.523 242.1 360.2C242.801 360.877 243.274 361.755 243.456 362.712C243.605 363.918 243.277 365.134 242.542 366.102C241.837 367.039 240.889 367.765 239.8 368.2C239 368.463 238.162 368.592 237.32 368.58ZM226.76 364.278H231.192V364.8H226.76V364.278Z" fill="white"/>
<path d="M230.932 365.842L230.54 365.582L231.584 364.278L230.28 363.756L230.54 363.366L232.366 364.148L230.932 365.842ZM108.512 344.852C106.948 342.636 105.384 340.29 103.818 338.074L104.218 337.812C105.782 340.03 107.346 342.376 108.912 344.592L108.512 344.852Z" fill="white"/>
<path d="M109.686 346.286L109.286 346.156C107.974 345.771 106.707 345.247 105.506 344.592L105.766 344.192C106.811 344.857 107.961 345.342 109.166 345.628L109.036 342.368H109.558L109.686 346.286ZM74.6161 346.418L74.2161 346.156C77.3266 341.851 80.7705 337.797 84.5161 334.032L84.9161 334.432C81.1039 338.086 77.6545 342.1 74.6161 346.418ZM77.8741 344.722L77.4741 344.462C78.0972 343.54 78.7949 342.67 79.5601 341.862L79.9601 342.262C79.1781 343.028 78.5261 343.94 77.8741 344.722ZM75.7501 349.13L81.8341 341.476L82.2421 341.8L76.1601 349.456L75.7501 349.13ZM81.0001 346.8L80.6001 346.54C82.1366 344.613 83.7458 342.745 85.4241 340.94L85.8241 341.33C84.0452 342.995 82.4298 344.827 81.0001 346.8ZM116.334 369.624V369.102C120.031 368.725 123.595 367.522 126.764 365.582L127.026 365.972C123.771 367.955 120.122 369.201 116.334 369.624ZM120.506 370.144L120.376 369.624C122.016 369.231 123.596 368.617 125.07 367.798L125.33 368.198C123.87 369.165 122.229 369.827 120.506 370.144Z" fill="white"/>
</svg>
