<svg xmlns="http://www.w3.org/2000/svg" viewBox="0 0 48 48"><title>32-Smartphone</title><g id="_32-Smartphone" data-name="32-Smartphone"><path d="M35,0H13A5,5,0,0,0,8,5V43a5,5,0,0,0,5,5H35a5,5,0,0,0,5-5V5A5,5,0,0,0,35,0Zm3,43a3,3,0,0,1-3,3H13a3,3,0,0,1-3-3V40H38Zm0-5H10V9H38ZM38,7H10V5a3,3,0,0,1,3-3H35a3,3,0,0,1,3,3Z"/><rect x="23" y="42" width="2" height="2"/><path d="M24,16a9,9,0,0,1,9,9h2a11,11,0,0,0-22,0h2A9,9,0,0,1,24,16Z"/><path d="M24,20a5,5,0,0,0-5,5h2a3,3,0,0,1,6,0h2A5,5,0,0,0,24,20Z"/><path d="M24,26a3,3,0,1,0,3,3A3,3,0,0,0,24,26Zm0,4a1,1,0,1,1,1-1A1,1,0,0,1,24,30Z"/></g></svg>