<svg xmlns="http://www.w3.org/2000/svg" viewBox="0 0 48 48"><title>36-Connect</title><g id="_36-Connect" data-name="36-Connect"><path d="M42.71,8.29l-8-8A1,1,0,0,0,34,0H8A3,3,0,0,0,5,3V45a3,3,0,0,0,3,3H40a3,3,0,0,0,3-3V9A1,1,0,0,0,42.71,8.29ZM35,3.41,39.59,8H36a1,1,0,0,1-1-1ZM41,45a1,1,0,0,1-1,1H8a1,1,0,0,1-1-1V3A1,1,0,0,1,8,2H33V7a3,3,0,0,0,3,3h5Z"/><path d="M24,16A11,11,0,0,0,13,27h2a9,9,0,0,1,18,0h2A11,11,0,0,0,24,16Z"/><path d="M24,22a5,5,0,0,0-5,5h2a3,3,0,0,1,6,0h2A5,5,0,0,0,24,22Z"/><path d="M24,28a3,3,0,1,0,3,3A3,3,0,0,0,24,28Zm0,4a1,1,0,1,1,1-1A1,1,0,0,1,24,32Z"/></g></svg>