<svg width="1455" height="995" viewBox="0 0 1455 995" fill="none" xmlns="http://www.w3.org/2000/svg">
<g clip-path="url(#clip0_16_117)">
<rect width="1455" height="995" fill="white"/>
<path d="M1410 758.29H493.72C468.99 758.29 448.76 738.06 448.76 713.33V45.01C448.76 20.28 468.99 0.0500488 493.72 0.0500488H1410C1434.73 0.0500488 1454.96 20.28 1454.96 45.01V713.33C1454.97 738.05 1434.73 758.29 1410 758.29Z" fill="#A7ADFF"/>
<path d="M1381.9 695.04H517.49C492.76 695.04 472.53 674.81 472.53 650.08V77.98C472.53 53.25 492.76 33.02 517.49 33.02H1381.9C1406.63 33.02 1426.86 53.25 1426.86 77.98V650.08C1426.86 674.81 1406.63 695.04 1381.9 695.04Z" fill="#E3E5FC"/>
<path d="M1005.01 723.7H934.44C932.72 723.7 931.32 722.29 931.32 720.58C931.32 718.86 932.73 717.46 934.44 717.46H1005.01C1006.73 717.46 1008.13 718.87 1008.13 720.58C1008.13 722.3 1006.73 723.7 1005.01 723.7Z" fill="#E3E5FC"/>
<path d="M502.45 25.52C506.327 25.52 509.47 22.377 509.47 18.5C509.47 14.6229 506.327 11.48 502.45 11.48C498.573 11.48 495.43 14.6229 495.43 18.5C495.43 22.377 498.573 25.52 502.45 25.52Z" fill="#E3E5FC"/>
<path d="M532.67 25.52C536.547 25.52 539.69 22.377 539.69 18.5C539.69 14.6229 536.547 11.48 532.67 11.48C528.793 11.48 525.65 14.6229 525.65 18.5C525.65 22.377 528.793 25.52 532.67 25.52Z" fill="white"/>
<path d="M563.17 25.52C567.047 25.52 570.19 22.377 570.19 18.5C570.19 14.6229 567.047 11.48 563.17 11.48C559.293 11.48 556.15 14.6229 556.15 18.5C556.15 22.377 559.293 25.52 563.17 25.52Z" fill="#4B369D"/>
<path d="M735.61 408.06H564.5C559.91 408.06 556.15 404.3 556.15 399.71C556.15 395.12 559.91 391.36 564.5 391.36H735.61C740.2 391.36 743.96 395.12 743.96 399.71C743.96 404.3 740.2 408.06 735.61 408.06Z" fill="white"/>
<path d="M735.61 446.29H564.5C559.91 446.29 556.15 442.53 556.15 437.94C556.15 433.35 559.91 429.59 564.5 429.59H735.61C740.2 429.59 743.96 433.35 743.96 437.94C743.96 442.53 740.2 446.29 735.61 446.29Z" fill="white"/>
<path d="M735.61 484.51H564.5C559.91 484.51 556.15 480.75 556.15 476.16C556.15 471.57 559.91 467.81 564.5 467.81H735.61C740.2 467.81 743.96 471.57 743.96 476.16C743.96 480.76 740.2 484.51 735.61 484.51Z" fill="white"/>
<path d="M735.61 527.61H564.5C559.91 527.61 556.15 523.85 556.15 519.26C556.15 514.67 559.91 510.91 564.5 510.91H735.61C740.2 510.91 743.96 514.67 743.96 519.26C743.96 523.85 740.2 527.61 735.61 527.61Z" fill="white"/>
<path d="M735.61 565.83H564.5C559.91 565.83 556.15 562.07 556.15 557.48C556.15 552.89 559.91 549.13 564.5 549.13H735.61C740.2 549.13 743.96 552.89 743.96 557.48C743.96 562.08 740.2 565.83 735.61 565.83Z" fill="white"/>
<path d="M735.61 604.06H564.5C559.91 604.06 556.15 600.3 556.15 595.71C556.15 591.12 559.91 587.36 564.5 587.36H735.61C740.2 587.36 743.96 591.12 743.96 595.71C743.96 600.3 740.2 604.06 735.61 604.06Z" fill="white"/>
<path d="M991.66 408.06H820.55C815.96 408.06 812.2 404.3 812.2 399.71C812.2 395.12 815.96 391.36 820.55 391.36H991.66C996.25 391.36 1000.01 395.12 1000.01 399.71C1000.01 404.3 996.25 408.06 991.66 408.06Z" fill="white"/>
<path d="M991.66 446.29H820.55C815.96 446.29 812.2 442.53 812.2 437.94C812.2 433.35 815.96 429.59 820.55 429.59H991.66C996.25 429.59 1000.01 433.35 1000.01 437.94C1000.01 442.53 996.25 446.29 991.66 446.29Z" fill="white"/>
<path d="M991.66 484.51H820.55C815.96 484.51 812.2 480.75 812.2 476.16C812.2 471.57 815.96 467.81 820.55 467.81H991.66C996.25 467.81 1000.01 471.57 1000.01 476.16C1000.01 480.76 996.25 484.51 991.66 484.51Z" fill="white"/>
<path d="M991.66 527.61H820.55C815.96 527.61 812.2 523.85 812.2 519.26C812.2 514.67 815.96 510.91 820.55 510.91H991.66C996.25 510.91 1000.01 514.67 1000.01 519.26C1000.01 523.85 996.25 527.61 991.66 527.61Z" fill="white"/>
<path d="M991.66 565.83H820.55C815.96 565.83 812.2 562.07 812.2 557.48C812.2 552.89 815.96 549.13 820.55 549.13H991.66C996.25 549.13 1000.01 552.89 1000.01 557.48C1000.01 562.08 996.25 565.83 991.66 565.83Z" fill="white"/>
<path d="M991.66 604.06H820.55C815.96 604.06 812.2 600.3 812.2 595.71C812.2 591.12 815.96 587.36 820.55 587.36H991.66C996.25 587.36 1000.01 591.12 1000.01 595.71C1000.01 600.3 996.25 604.06 991.66 604.06Z" fill="white"/>
<path d="M1221.18 241.82C1201.48 236.89 1196.55 177.79 1176.85 177.79C1133.57 181.72 1118.57 239.07 1094.2 282.07C1097.39 299.79 1112.94 313.36 1131.55 313.36H1304.97C1325.86 313.36 1342.95 296.27 1342.95 275.38V151.04C1336.93 151.52 1330.78 153.68 1324.62 158.08C1290.14 187.64 1265.51 251.67 1221.18 241.82Z" fill="#A7ADFF"/>
<path d="M1305.28 99.8901H1131.86C1110.97 99.8901 1093.88 116.98 1093.88 137.87V275.38C1093.88 277.66 1094.12 279.89 1094.51 282.07C1118.87 239.06 1133.88 181.72 1177.16 177.79C1196.86 177.79 1201.79 236.9 1221.49 241.82C1265.82 251.67 1290.45 187.64 1324.93 158.08C1331.09 153.68 1337.24 151.51 1343.26 151.04V137.87C1343.26 116.98 1326.17 99.8901 1305.28 99.8901Z" fill="white"/>
<path d="M1243.2 188.26C1255.27 188.26 1265.06 178.473 1265.06 166.4C1265.06 154.327 1255.27 144.54 1243.2 144.54C1231.13 144.54 1221.34 154.327 1221.34 166.4C1221.34 178.473 1231.13 188.26 1243.2 188.26Z" fill="#A7ADFF"/>
<path d="M601.12 317.73H955.04C979.77 317.73 1000 297.5 1000 272.77V144.87C1000 120.14 979.77 99.9102 955.04 99.9102H601.12C576.39 99.9102 556.16 120.14 556.16 144.87V272.77C556.15 297.49 576.39 317.73 601.12 317.73Z" fill="white"/>
<path d="M1138.85 481.3H1297.98C1322.71 481.3 1342.94 461.07 1342.94 436.34C1342.94 411.61 1322.71 391.38 1297.98 391.38H1138.85C1114.12 391.38 1093.89 411.61 1093.89 436.34C1093.89 461.06 1114.12 481.3 1138.85 481.3Z" fill="white"/>
<path d="M1138.85 594.1H1297.98C1322.71 594.1 1342.94 573.87 1342.94 549.14C1342.94 524.41 1322.71 504.18 1297.98 504.18H1138.85C1114.12 504.18 1093.89 524.41 1093.89 549.14C1093.89 573.87 1114.12 594.1 1138.85 594.1Z" fill="white"/>
<path d="M969.73 987.16C1152.51 987.16 1300.68 977.055 1300.68 964.59C1300.68 952.125 1152.51 942.02 969.73 942.02C786.951 942.02 638.78 952.125 638.78 964.59C638.78 977.055 786.951 987.16 969.73 987.16Z" fill="#E3E5FC"/>
<path d="M584.18 902.67H415.56C406.11 902.67 398.39 894.94 398.39 885.5V879.03C398.39 869.58 406.12 861.86 415.56 861.86H584.18C593.63 861.86 601.35 869.59 601.35 879.03V885.5C601.35 894.94 593.62 902.67 584.18 902.67Z" fill="#A7ADFF"/>
<path d="M584.18 947.04H415.56C406.11 947.04 398.39 939.31 398.39 929.87V923.4C398.39 913.95 406.12 906.23 415.56 906.23H584.18C593.63 906.23 601.35 913.96 601.35 923.4V929.87C601.35 939.32 593.62 947.04 584.18 947.04Z" fill="#A7ADFF"/>
<path d="M584.18 991.86H415.56C406.11 991.86 398.39 984.13 398.39 974.69V968.22C398.39 958.77 406.12 951.05 415.56 951.05H584.18C593.63 951.05 601.35 958.78 601.35 968.22V974.69C601.35 984.13 593.62 991.86 584.18 991.86Z" fill="#A7ADFF"/>
<path d="M414.94 886.62C417.525 886.62 419.62 884.525 419.62 881.94C419.62 879.355 417.525 877.26 414.94 877.26C412.355 877.26 410.26 879.355 410.26 881.94C410.26 884.525 412.355 886.62 414.94 886.62Z" fill="white"/>
<path d="M583.55 886.62C586.135 886.62 588.23 884.525 588.23 881.94C588.23 879.355 586.135 877.26 583.55 877.26C580.965 877.26 578.87 879.355 578.87 881.94C578.87 884.525 580.965 886.62 583.55 886.62Z" fill="white"/>
<path d="M415.88 929.4C418.465 929.4 420.56 927.305 420.56 924.72C420.56 922.135 418.465 920.04 415.88 920.04C413.295 920.04 411.2 922.135 411.2 924.72C411.2 927.305 413.295 929.4 415.88 929.4Z" fill="white"/>
<path d="M584.49 929.4C587.075 929.4 589.17 927.305 589.17 924.72C589.17 922.135 587.075 920.04 584.49 920.04C581.905 920.04 579.81 922.135 579.81 924.72C579.81 927.305 581.905 929.4 584.49 929.4Z" fill="white"/>
<path d="M415.88 975.88C418.465 975.88 420.56 973.785 420.56 971.2C420.56 968.615 418.465 966.52 415.88 966.52C413.295 966.52 411.2 968.615 411.2 971.2C411.2 973.785 413.295 975.88 415.88 975.88Z" fill="white"/>
<path d="M584.49 975.88C587.075 975.88 589.17 973.785 589.17 971.2C589.17 968.615 587.075 966.52 584.49 966.52C581.905 966.52 579.81 968.615 579.81 971.2C579.81 973.785 581.905 975.88 584.49 975.88Z" fill="white"/>
<path d="M704.91 148.98C705.49 148.58 706.06 148.18 706.64 147.79C724.84 135.42 746.62 125.17 768.21 129.4C806.27 136.85 823.76 178.9 848.04 204.24C865.46 222.42 892.43 236.04 918.53 233.34C940.4 231.08 944.24 207.4 939 189.57C937.06 182.99 934.06 176.69 928.62 172.31C923.61 168.27 911.24 162.7 904.73 166.24C915.95 160.15 930.54 163.18 940.55 171.1C974.4 197.89 965.86 255.19 929.58 275.33C901.48 290.92 867.17 277.2 845.01 257.46C819.97 235.15 812.2 200.54 788.89 176.87C782.65 170.54 775.64 164.98 766.19 165.77C747.48 167.34 744.41 187.17 731.85 197.06C728.61 199.61 724.34 201.18 720.33 200.23C717.38 199.53 714.91 197.59 712.31 196.02C700.5 188.85 666.88 190.11 683.95 167.85C689.71 160.35 697.15 154.37 704.91 148.98Z" fill="#FDC510"/>
<path d="M502.8 357.39C494.01 367.18 482.64 378.9 477.52 391.43C477.11 392.44 476.76 393.63 477.26 394.6C483.86 407.3 582.25 315.15 592.7 305.58C614.69 285.43 635.17 269.97 654.23 246.85C657.89 242.41 661.64 237.62 662.56 231.82C663.1 228.22 646.3 235.7 643.04 237.36C618.09 250.04 588.8 272.29 568.42 291.14C545.67 312.19 523.59 334.24 502.8 357.39Z" fill="#4B369D"/>
<path d="M695.37 194.19C694.8 189.48 693.66 184.89 691.86 180.57C687.59 170.3 679.81 160.51 668.37 158.28C686.93 169.97 669.15 192.75 655.79 201.98C652.49 204.26 648.89 206.22 644.94 207.82C634.93 211.87 621.65 215 619.1 227.22C651.87 228.09 676.3 214.62 695.37 194.19Z" fill="#F44E4E"/>
<path d="M619.1 227.21C619.08 227.32 619.04 227.42 619.02 227.53C615.3 247.11 627.94 266.8 649.52 263.21C679.57 258.2 698.96 223.7 695.37 194.18C676.3 214.62 651.87 228.09 619.1 227.21Z" fill="#A7ADFF"/>
<path d="M109.4 923.67C103.47 917.07 97.65 910.44 95.85 901.81C94.92 897.34 96.47 891.22 101.02 890.96C103.31 890.83 105.32 892.34 107.35 893.41C115.16 897.55 115.21 888.24 113.06 883.31C109.28 874.62 103.5 865.95 104.78 856.56C104.86 855.97 104.99 855.35 105.4 854.91C106.01 854.26 107.03 854.26 107.91 854.37C113.92 855.16 120.11 862.97 126.3 860.42C141.42 854.2 128.34 819.47 127.31 808.75C127.11 806.7 126.94 804.51 127.93 802.71C129.85 799.21 135.1 799.14 138.54 801.15C143.82 804.24 146.82 810.24 152.58 812.68C157.12 814.6 162.29 812.4 165.63 809.16C175.68 799.42 178.02 783.51 185.94 772.21C192.42 762.96 210.44 748.89 220.53 761.41C225.15 767.14 222.39 775.5 220.5 782.61C218.74 789.2 217.3 796.95 217.97 803.76C218.47 808.75 220.6 813.81 224.69 816.71C232.64 822.34 247.58 822.52 239.36 835.92C236.84 840.02 232.93 843.06 229.92 846.82C226.91 850.58 224.81 855.77 226.76 860.17C230.31 868.2 254.12 871.16 245 883.77C242.72 886.93 239.09 888.77 235.72 890.72C219.42 900.14 234.05 908.41 230.9 921.36C229.77 926.02 226.24 929.81 222.16 932.31C215.6 936.33 207.64 937.86 200.62 940.92C186.36 947.15 173.61 956.42 161.69 966.32C152.95 973.58 139.24 989.79 126.35 981.96C118.4 977.13 123.36 963.57 124.09 956.51C125.52 942.78 118.14 933.39 109.4 923.67Z" fill="#FDC510"/>
<path d="M132.03 992.05C131.81 992.05 131.59 992.01 131.37 991.93C130.4 991.57 129.91 990.49 130.28 989.52L190.13 830.38C190.49 829.41 191.58 828.92 192.54 829.29C193.51 829.65 194 830.73 193.63 831.7L133.78 990.84C133.5 991.58 132.78 992.05 132.03 992.05Z" fill="white"/>
<path d="M174.41 882.03C173.8 882.03 173.21 881.74 172.85 881.2C172.28 880.34 172.51 879.18 173.37 878.6L202.49 859.19C203.35 858.61 204.52 858.85 205.09 859.71C205.66 860.57 205.43 861.73 204.57 862.31L175.45 881.72C175.12 881.92 174.76 882.03 174.41 882.03Z" fill="white"/>
<path d="M153.3 939.95C152.69 939.95 152.1 939.66 151.74 939.12C151.17 938.26 151.4 937.1 152.26 936.52L181.38 917.11C182.24 916.53 183.4 916.77 183.98 917.63C184.56 918.49 184.32 919.65 183.46 920.23L154.34 939.64C154.02 939.85 153.66 939.95 153.3 939.95Z" fill="white"/>
<path d="M160.27 911.49C159.65 911.49 159.05 911.19 158.69 910.63L140.16 881.71C139.6 880.84 139.85 879.68 140.73 879.12C141.6 878.56 142.76 878.82 143.32 879.69L161.85 908.61C162.41 909.48 162.16 910.64 161.28 911.2C160.96 911.39 160.62 911.49 160.27 911.49Z" fill="white"/>
<path d="M93.91 984.14C68.78 986.99 44.47 984.18 34.43 958.21C30.82 948.86 25.53 945.18 16.13 942.53C11.56 941.24 6.77002 939.76 3.52002 936.29C0.280024 932.82 -0.629976 926.7 2.89002 923.51C5.70002 920.96 9.97002 921.21 13.74 921.6C19.99 922.26 26.25 922.91 32.5 923.57C33.39 923.66 34.33 923.75 35.13 923.36C37.79 922.07 36.12 918.03 34.15 915.83C26.79 907.6 19.21 899.56 11.43 891.74C8.55002 888.85 5.54002 885.81 4.36002 881.9C3.18002 877.99 4.57002 872.97 8.40002 871.55C13.71 869.57 19.93 875.33 24.94 872.69C28.53 870.8 28.97 865.79 28.03 861.85C27.09 857.91 25.24 853.97 25.95 849.98C26.63 846.17 29.84 842.95 33.65 842.27C37.45 841.58 41.59 843.48 43.55 846.81C45.71 850.47 45.57 855.7 49.12 858.04C52.1 860 56.17 858.76 59.13 856.78C62.1 854.8 64.68 852.1 68.06 850.95C73.79 848.99 80.78 852.8 82.25 858.67C83.71 864.52 80.34 871.26 83.37 876.48C86.19 881.34 93.01 882 98.52 880.89C104.03 879.78 109.57 877.49 115.09 878.58C116.99 878.95 118.98 879.89 119.75 881.66C120.59 883.6 119.72 885.84 118.68 887.68C115.53 893.21 110.75 897.69 107.75 903.3C104.75 908.91 104.04 916.64 108.65 921.02C111.07 923.33 114.45 924.23 117.51 925.6C120.56 926.97 123.65 929.27 124.08 932.59C124.81 938.2 118.1 941.44 114.64 945.91C110.14 951.71 111.25 959.86 111.08 967.2C110.59 988.09 90.16 987.64 74.63 983.82" fill="#978CFF"/>
<path d="M97.42 988.38C96.66 988.38 95.95 987.92 95.67 987.17L61 895.01C60.63 894.04 61.12 892.96 62.09 892.6C63.05 892.24 64.14 892.73 64.5 893.69L99.16 985.84C99.53 986.81 99.04 987.89 98.07 988.25C97.86 988.34 97.63 988.38 97.42 988.38Z" fill="white"/>
<path d="M72.87 924.66C72.51 924.66 72.15 924.56 71.83 924.35L54.97 913.11C54.11 912.54 53.88 911.37 54.45 910.51C55.02 909.65 56.18 909.41 57.05 909.99L73.91 921.23C74.77 921.8 75 922.97 74.43 923.83C74.07 924.37 73.48 924.66 72.87 924.66Z" fill="white"/>
<path d="M85.09 958.21C84.73 958.21 84.37 958.11 84.05 957.9L67.19 946.66C66.33 946.09 66.1 944.92 66.67 944.06C67.24 943.2 68.4 942.96 69.27 943.54L86.13 954.78C86.99 955.35 87.22 956.52 86.65 957.38C86.29 957.91 85.7 958.21 85.09 958.21Z" fill="white"/>
<path d="M81.06 941.73C80.71 941.73 80.36 941.63 80.05 941.43C79.18 940.87 78.92 939.71 79.48 938.84L90.21 922.09C90.76 921.22 91.92 920.96 92.8 921.52C93.67 922.08 93.93 923.24 93.37 924.11L82.64 940.86C82.28 941.42 81.68 941.73 81.06 941.73Z" fill="white"/>
<path d="M327.64 900.12L334.01 960.39L314.08 964.59L311.17 901.31C311.17 901.31 321.72 897.46 327.64 900.12Z" fill="#EAC2AB"/>
<path d="M410.14 992.35C410.14 992.35 395.21 995.66 367.41 994.63C339.61 993.6 308.73 991.19 303.6 986.48C298.46 981.76 298.75 946.58 307.94 947.61C317.13 948.63 319.22 962.33 336.75 952.27C351.77 943.65 360.72 964.06 384.32 971.87C407.91 979.68 417.47 982.81 410.14 992.35Z" fill="#FDC510"/>
<path d="M380.23 916.78C379.3 914.61 376.86 912.99 374.74 911.3C355.37 895.86 360.1 872.31 363.2 851.73C370.55 802.91 362.68 753.7 359.74 704.87C356.88 657.21 361.65 609.38 372.54 562.92C376.5 546.04 381.96 519.94 355.85 524.88C343.48 527.22 331.27 526.76 318.94 524.6C312.45 523.46 319.07 521.35 312.45 523.46C289.9 530.66 281.47 573.28 286.1 588.13C295.32 617.7 298.32 646.08 299.82 677.39C301.94 721.79 309.33 766.24 304.06 810.3C301.48 831.89 298.48 853.42 295.6 874.97C293.92 887.54 283.41 915.08 290.46 926.46C300.14 942.08 343.27 928.84 357.68 928.49C368.51 928.21 383.39 924.15 380.23 916.78Z" fill="#4B369D"/>
<path d="M450.93 769.96L437.65 829.92L417.15 827.54L434.72 765.8C434.72 765.81 446.1 765.49 450.93 769.96Z" fill="#EAC2AB"/>
<path d="M517.46 859.02C517.46 859.02 502.36 862.51 474.19 861.73C446.01 860.95 414.7 858.8 409.45 854.07C404.2 849.34 404.16 813.69 413.48 814.64C422.8 815.59 425.05 829.45 442.71 819.09C457.84 810.22 467.11 830.81 491.1 838.5C515.09 846.19 524.8 849.29 517.46 859.02Z" fill="#FDC510"/>
<path d="M525.34 580.7C512.11 560.7 466.89 560.92 425.4 566.03L373.91 562.99L366.9 543.47C366.9 543.47 284.98 568.49 284.89 568.52C287.48 568.1 287.07 601.11 288.57 603.98C300.3 626.45 333.65 645.03 360.4 645.38C392.18 645.8 422.16 636.64 451.86 626.83C505.79 609.03 430.16 721.44 413 757.04C395.84 792.64 414.7 790.76 457.52 788.89C500.35 787.02 480.12 789.83 487.42 760.09C494.73 730.34 551.51 620.27 525.34 580.7Z" fill="#5A54FF"/>
<path d="M363.46 313.18C363.46 313.18 357.31 358.24 357.3 358.24C346.42 361.44 335.02 367.55 323.56 367.53C324.08 359.17 332.26 349.61 336.02 341.72C340.58 332.15 343.79 322.24 343.29 311.51C341.97 283.47 363.46 313.18 363.46 313.18Z" fill="#D4A79A"/>
<path d="M417.73 219.01C419.6 219.63 425.22 240.87 415.23 254.61C405.24 268.35 411.04 266.48 401.27 275.84C391.5 285.21 384.63 287.24 384.63 287.24L373.39 291.45L374.64 268.34L385.8 231.49L421 219.01" fill="#27197A"/>
<path d="M391.21 223.96C391.19 224.01 408.9 236.02 399.51 264.75C389.47 295.5 374.98 321.25 365.69 318.58C339.99 311.21 332.35 292 324.59 275.41C315.08 255.07 341.03 209.48 341.03 209.48L362.79 199.96L391.21 223.96Z" fill="#EAC2AB"/>
<path d="M431.25 217C434.14 209.83 430.91 196.35 425.93 191.37C424.01 189.45 421.5 188.12 418.88 188.16C416.91 188.19 414.91 188.98 413 188.5C407.26 187.05 407.27 182.16 402.01 179.97C398.09 178.34 393.92 181.67 389.73 182.3C386.57 182.77 383.43 181.67 380.36 180.76C371.73 178.19 363.94 173.31 355.02 171.48C347.5 169.94 339.51 170.14 332.33 173.26C324.84 176.52 319.12 183.17 315.7 191.12C313.66 195.87 312.69 201.27 313.59 206.38C312.85 202.18 305.08 205.99 303.75 207.51C298.52 213.48 285.34 230.95 287.23 238.55C288.73 244.57 284.08 250.02 285.4 256.12C286.97 263.38 305.96 267.57 309.36 274.17C313.26 281.74 321.89 286.14 329.74 284.78C327.91 278.07 326.1 271.21 326.24 264.17C326.38 257.13 319.72 224.75 354.74 220.76C368.66 219.17 384.23 231.96 397.91 233.64C404.41 234.44 411.04 233.71 417.36 231.73C422.24 230.2 427.42 223.54 430.44 218.6C430.76 218.09 431.03 217.56 431.25 217Z" fill="#4B369D"/>
<path d="M579.7 315.21C578.85 314.85 577.96 315.6 577.34 316.29C571.7 322.53 566.05 328.76 560.41 335C559.31 336.22 558.16 337.47 556.68 338.18C555.2 338.89 553.28 338.92 552.05 337.83C550.57 336.52 550.62 334.23 550.79 332.25C551.04 329.26 556 323.33 551.26 322.02C544.53 325.29 538.09 339.17 536.1 346.15C533.45 353.57 539.45 358.84 535.4 365.24C527.88 377.13 520.56 389.11 512.44 400.6C508.18 406.62 503.8 412.55 499.4 418.45C497.41 421.12 489.11 435.81 486.21 436.11C476.57 449.13 467.25 462.65 456.87 475.1C452.91 479.85 422.65 452.46 422.65 452.46C396.12 431.95 391.63 415.77 391.63 415.77L368.42 421.73C368.42 421.73 376.66 442.73 392.83 456.57C410.47 471.66 433.02 495.49 445.38 504.78C457.75 514.07 458.61 509.56 463.28 505.08C473.11 495.61 480.33 481.12 487.9 469.87C500.96 450.45 513.88 430.92 526.37 411.12C532.42 401.53 538.81 391.29 544.34 381.07C549.64 371.28 554.06 365.89 563.77 360.2C571.94 355.41 576.51 347.91 577.97 338.46C579.01 331.72 578.43 324.77 580.29 318.15C580.59 317.1 580.71 315.63 579.7 315.21Z" fill="#EAC2AB"/>
<path d="M372.83 445.71C369.99 418.53 383.12 375.27 367.28 353.21C365.66 350.95 363.91 348.69 361.55 347.21C331.75 328.51 311.13 357.57 301.61 383.14C293.35 405.31 294.37 425.71 293.76 448.84C292.73 487.82 283.66 525.74 272.08 562.79C267.95 576.01 266.85 591.4 278.54 593.41C294.33 596.12 297.73 576.67 312.79 571.65C326.55 567.06 337.67 569.88 352.71 570.7C360.17 571.11 384.53 566.2 383.04 552.33C379.52 519.45 374.23 491.1 374.06 468.2C374.01 460.77 373.62 453.24 372.83 445.71Z" fill="#D7384E"/>
<path d="M397.23 412.17C397.23 412.17 364.98 345.99 344.41 366.43C323.85 386.87 371.76 453.61 371.76 453.61L405.01 419.56L397.23 412.17Z" fill="#F44E4E"/>
<path d="M395.62 220.99C403.31 216.59 405.54 206.65 406.32 197.82C407.17 188.23 407.01 175.27 398.93 168.51C395.81 165.9 391.99 164.28 388.09 163.11C368.98 157.36 345.87 158.96 327.29 166.01C308.34 173.2 294.29 189.61 287.57 208.45C284.19 217.92 282.52 228.01 282.59 238.06C282.66 248.68 287.39 259.73 279.15 268.51C282.11 268.52 285.07 268.15 287.94 267.41C277.45 270.11 260.55 270.69 260.12 285.71C259.95 291.69 263.84 296.9 267.12 301.91C270.4 306.92 273.3 313.15 271.02 318.69C268.15 325.68 258.18 328.43 256.89 335.89C255.36 344.75 263.73 348.81 267.1 355.71C271.35 364.41 267.28 374.53 266.3 383.55C265.43 391.55 272.81 395.23 277.63 400.01C291.6 413.85 291.41 429.59 276.14 444.88C275.83 445.19 275.95 445.79 276.17 446.17C276.4 446.57 276.9 446.74 277.35 446.86C297.1 452.02 322.74 432.95 327.29 413.92C329.34 405.35 324.11 397.33 326.4 389.1C328.23 382.52 334.93 378.8 340.71 375.18C354.13 366.78 351.47 345.38 349.76 329.64C348.27 315.91 351.83 313.29 344.01 301.91C339.94 295.99 336.75 289.51 334.05 282.85C330.46 273.99 326.28 279.92 326.59 270.37C326.93 259.89 332.12 250.17 340.61 244.03C345.01 240.85 350.21 238.62 355.56 237.66C361.23 236.64 367.01 235.68 371.42 231.69C375.54 227.96 381.23 219.51 387.61 220.08C395.57 220.79 404.7 218.8 408.83 211.97" fill="#4B369D"/>
</g>
<defs>
<clipPath id="clip0_16_117">
<rect width="1455" height="995" fill="white"/>
</clipPath>
</defs>
</svg>
