<svg width="400" height="400" viewBox="0 0 400 400" fill="none" xmlns="http://www.w3.org/2000/svg">
<path d="M200.44 374.68C305.131 374.68 390 370.514 390 365.376C390 360.238 305.131 356.072 200.44 356.072C95.7489 356.072 10.88 360.238 10.88 365.376C10.88 370.514 95.7489 374.68 200.44 374.68Z" fill="#86F2AA"/>
<path d="M85.304 364.712C85.9976 364.712 86.56 364.15 86.56 363.456C86.56 362.762 85.9976 362.2 85.304 362.2C84.6103 362.2 84.048 362.762 84.048 363.456C84.048 364.15 84.6103 364.712 85.304 364.712Z" fill="#1D1D1B"/>
<path d="M56.782 363.538C57.0309 363.538 57.2743 363.611 57.4815 363.749C57.6886 363.887 57.8501 364.083 57.9457 364.313C58.0412 364.543 58.0664 364.796 58.0181 365.04C57.9698 365.284 57.8501 365.509 57.6742 365.685C57.4984 365.861 57.2742 365.981 57.0302 366.03C56.7861 366.078 56.533 366.054 56.303 365.958C56.0731 365.863 55.8765 365.702 55.7382 365.495C55.5998 365.288 55.526 365.045 55.526 364.796C55.5257 364.631 55.558 364.467 55.621 364.315C55.684 364.162 55.7765 364.023 55.8932 363.907C56.0098 363.79 56.1484 363.697 56.3009 363.634C56.4534 363.571 56.6169 363.538 56.782 363.538Z" fill="#1D1D1B"/>
<path d="M76.406 370.164C77.0997 370.164 77.662 369.602 77.662 368.908C77.662 368.214 77.0997 367.652 76.406 367.652C75.7124 367.652 75.15 368.214 75.15 368.908C75.15 369.602 75.7124 370.164 76.406 370.164Z" fill="#1D1D1B"/>
<path d="M143.832 364.712C144.526 364.712 145.088 364.15 145.088 363.456C145.088 362.762 144.526 362.2 143.832 362.2C143.138 362.2 142.576 362.762 142.576 363.456C142.576 364.15 143.138 364.712 143.832 364.712Z" fill="#1D1D1B"/>
<path d="M105.352 364.712C106.046 364.712 106.608 364.15 106.608 363.456C106.608 362.762 106.046 362.2 105.352 362.2C104.658 362.2 104.096 362.762 104.096 363.456C104.096 364.15 104.658 364.712 105.352 364.712Z" fill="#1D1D1B"/>
<path d="M127.926 369.966C128.62 369.966 129.182 369.404 129.182 368.71C129.182 368.016 128.62 367.454 127.926 367.454C127.232 367.454 126.67 368.016 126.67 368.71C126.67 369.404 127.232 369.966 127.926 369.966Z" fill="#1D1D1B"/>
<path d="M220.406 363.31C221.1 363.31 221.662 362.748 221.662 362.054C221.662 361.36 221.1 360.798 220.406 360.798C219.712 360.798 219.15 361.36 219.15 362.054C219.15 362.748 219.712 363.31 220.406 363.31Z" fill="#1D1D1B"/>
<path d="M202.818 366.4C203.067 366.4 203.31 366.474 203.517 366.612C203.724 366.75 203.885 366.947 203.98 367.177C204.076 367.407 204.1 367.66 204.052 367.904C204.003 368.148 203.883 368.372 203.707 368.548C203.531 368.724 203.306 368.844 203.062 368.892C202.818 368.94 202.565 368.915 202.335 368.82C202.105 368.724 201.909 368.563 201.771 368.355C201.633 368.148 201.56 367.905 201.56 367.656C201.56 367.491 201.593 367.327 201.656 367.175C201.719 367.022 201.812 366.884 201.929 366.767C202.045 366.65 202.184 366.558 202.337 366.495C202.489 366.432 202.653 366.4 202.818 366.4ZM237.776 31.7C234.33 30.214 235.91 30.632 177.202 30.632L177.68 27.154C177.711 26.9055 177.685 26.6531 177.604 26.4162C177.523 26.1794 177.388 25.9642 177.211 25.7872C177.034 25.6102 176.819 25.4761 176.582 25.3951C176.345 25.3141 176.092 25.2884 175.844 25.32H79.76C79.4763 25.3512 79.2022 25.4409 78.9549 25.5835C78.7077 25.7261 78.4927 25.9184 78.3236 26.1482C78.1544 26.3781 78.0348 26.6405 77.9722 26.919C77.9096 27.1974 77.9054 27.4858 77.96 27.766L78.508 30.632C58.886 30.61 39.24 30.432 19.616 30.632C18.2878 30.5813 16.9642 30.8169 15.735 31.3227C14.5059 31.8286 13.3998 32.5928 12.492 33.5636C11.5841 34.5345 10.8957 35.6892 10.4733 36.9495C10.0509 38.2098 9.9045 39.5461 10.044 40.868C10.07 41.154 28.284 180.73 28.37 181.11C28.9526 184.955 30.9056 188.461 33.8692 190.979C36.8327 193.498 40.6069 194.861 44.496 194.816C46.896 194.838 71.126 194.816 71.126 194.816C67.222 219.016 60.452 242.63 54.16 266.292C48.408 287.962 30.944 354.06 27.912 365.428C27.8721 365.626 27.9087 365.832 28.0146 366.005C28.1205 366.177 28.2878 366.303 28.4827 366.357C28.6776 366.411 28.8858 366.389 29.0653 366.296C29.2447 366.202 29.3822 366.045 29.45 365.854C62.554 242 68.8 219.452 72.74 194.816H78.71L79.384 198.368C79.4635 198.787 79.6867 199.166 80.0152 199.439C80.3438 199.711 80.757 199.861 81.184 199.862H174.764C175.209 199.862 175.638 199.701 175.974 199.409C176.309 199.118 176.528 198.714 176.59 198.274L177.056 194.816H196.8C202.88 232.866 220.652 288.704 239.91 360.538C239.98 360.725 240.118 360.88 240.296 360.971C240.474 361.062 240.68 361.083 240.873 361.029C241.066 360.976 241.232 360.852 241.338 360.682C241.444 360.512 241.483 360.309 241.446 360.112C224.62 297.23 204.726 233.978 198.41 194.806C224.788 194.806 223.2 194.874 224.844 194.65C228.583 194.088 232.006 192.232 234.516 189.405C237.026 186.578 238.465 182.959 238.58 179.18C240.106 153.192 245.37 49.538 245.568 45.718C245.886 39.82 243.55 34.2 237.776 31.7ZM244.048 44.326C244.048 44.642 237.048 178.326 237.028 178.65C236.614 186.634 231.006 193.04 222.71 193.218C217.49 193.328 222.51 193.218 177.286 193.218L177.686 190.268C177.717 190.019 177.691 189.767 177.609 189.53C177.528 189.294 177.393 189.078 177.216 188.902C177.038 188.725 176.823 188.591 176.586 188.51C176.349 188.43 176.096 188.404 175.848 188.436H79.76C79.4763 188.467 79.2022 188.557 78.9549 188.7C78.7077 188.842 78.4927 189.034 78.3236 189.264C78.1544 189.494 78.0348 189.757 77.9722 190.035C77.9096 190.313 77.9054 190.602 77.96 190.882L78.404 193.248C52.332 193.57 45.244 193.218 44.994 193.218C41.3758 193.359 37.8332 192.158 35.0477 189.844C32.2623 187.531 30.4309 184.269 29.906 180.686C27 158.372 14.482 65.4 11.668 41.17C11.4938 40.018 11.5799 38.8417 11.92 37.7273C12.26 36.613 12.8454 35.589 13.633 34.7306C14.4207 33.8721 15.3907 33.201 16.4717 32.7666C17.5527 32.3321 18.7173 32.1453 19.88 32.22C22.33 32.2 78.804 32.22 78.804 32.22L79.374 35.242C79.4539 35.6613 79.6772 36.0397 80.0056 36.3123C80.3341 36.5849 80.7471 36.7347 81.174 36.736H174.752C175.197 36.736 175.627 36.5753 175.963 36.2836C176.299 35.9918 176.518 35.5885 176.58 35.148L176.98 32.22C176.98 32.22 231.262 32.178 232.59 32.22C234.142 32.2455 235.674 32.5808 237.095 33.2063C238.516 33.8319 239.798 34.735 240.866 35.8627C241.933 36.9904 242.764 38.3199 243.311 39.7732C243.857 41.2266 244.108 42.7744 244.048 44.326Z" fill="#1D1D1B"/>
<path d="M136.014 69.9519H174.368C174.58 69.9519 174.784 69.8676 174.934 69.7176C175.084 69.5676 175.168 69.3641 175.168 69.1519C175.168 68.9398 175.084 68.7363 174.934 68.5862C174.784 68.4362 174.58 68.3519 174.368 68.3519H136.014C135.802 68.3519 135.598 68.4362 135.448 68.5862C135.298 68.7363 135.214 68.9398 135.214 69.1519C135.214 69.3641 135.298 69.5676 135.448 69.7176C135.598 69.8676 135.802 69.9519 136.014 69.9519ZM137.4 76.5559C137.188 76.5559 136.984 76.6402 136.834 76.7902C136.684 76.9403 136.6 77.1438 136.6 77.3559C136.6 77.5681 136.684 77.7716 136.834 77.9216C136.984 78.0716 137.188 78.1559 137.4 78.1559C149.9 78.1239 162.442 78.3419 174.922 77.5019C175.94 77.4299 175.95 75.8399 174.922 75.9019C162.448 76.7419 149.906 76.5399 137.4 76.5559ZM175.074 82.7999C162.618 83.4979 149.674 85.1259 137.26 83.5479C136.242 83.4219 136.26 85.0119 137.26 85.1479C149.688 86.7159 162.624 85.0339 175.074 84.3999C176.092 84.3419 176.102 82.7479 175.074 82.7999ZM136.014 105.024H174.368C174.58 105.024 174.784 104.94 174.934 104.79C175.084 104.64 175.168 104.436 175.168 104.224C175.168 104.012 175.084 103.808 174.934 103.658C174.784 103.508 174.58 103.424 174.368 103.424H136.014C135.802 103.424 135.598 103.508 135.448 103.658C135.298 103.808 135.214 104.012 135.214 104.224C135.214 104.436 135.298 104.64 135.448 104.79C135.598 104.94 135.802 105.024 136.014 105.024ZM137.4 113.218C149.9 113.202 162.442 113.404 174.922 112.564C175.94 112.49 175.95 110.902 174.922 110.964C162.442 111.806 149.9 111.588 137.4 111.618C137.188 111.618 136.984 111.702 136.834 111.852C136.684 112.002 136.6 112.206 136.6 112.418C136.6 112.63 136.684 112.834 136.834 112.984C136.984 113.134 137.188 113.218 137.4 113.218ZM175.074 117.868C162.614 118.506 149.674 120.194 137.26 118.616C136.242 118.492 136.26 120.08 137.26 120.216C149.688 121.784 162.624 120.102 175.074 119.468C176.092 119.416 176.102 117.816 175.074 117.868ZM197.388 166.492C99.614 169.35 74.448 170.356 44.8 168.164C43.772 168.09 43.782 169.68 44.8 169.764C83.62 172.628 114.4 170.448 197.388 168.092C198.416 168.05 198.416 166.462 197.388 166.492ZM197.388 172.866C99.614 175.724 74.448 176.73 44.8 174.538C43.772 174.466 43.782 176.054 44.8 176.138C83.62 179.002 114.4 176.822 197.388 174.466C198.416 174.434 198.416 172.836 197.388 172.866ZM136.014 139.558H174.368C174.58 139.558 174.784 139.474 174.934 139.324C175.084 139.174 175.168 138.97 175.168 138.758C175.168 138.546 175.084 138.342 174.934 138.192C174.784 138.042 174.58 137.958 174.368 137.958H136.014C135.802 137.958 135.598 138.042 135.448 138.192C135.298 138.342 135.214 138.546 135.214 138.758C135.214 138.97 135.298 139.174 135.448 139.324C135.598 139.474 135.802 139.558 136.014 139.558ZM137.4 147.762C149.9 147.746 162.442 147.948 174.922 147.108C175.94 147.034 175.95 145.446 174.922 145.508C162.442 146.35 149.9 146.132 137.4 146.162C137.188 146.162 136.984 146.246 136.834 146.396C136.684 146.546 136.6 146.75 136.6 146.962C136.6 147.174 136.684 147.378 136.834 147.528C136.984 147.678 137.188 147.762 137.4 147.762ZM137.25 154.748C149.68 156.302 162.614 154.634 175.064 154.002C176.082 153.95 176.092 152.35 175.064 152.402C162.604 153.046 149.664 154.728 137.25 153.15C136.242 153.026 136.242 154.624 137.25 154.748Z" fill="#1D1D1B"/>
<path d="M182.362 118.74C182.762 121.316 183.152 123.88 183.546 126.456C190.762 124.181 197.975 121.904 205.184 119.624C204.696 117.672 204.218 115.73 203.73 113.778C196.609 115.427 189.486 117.081 182.362 118.74ZM279 118.066C278.06 117.768 277.116 117.484 276.168 117.214C272.289 118.188 268.559 119.679 265.078 121.648C268.906 125.507 273.223 128.848 277.92 131.584C279.103 129.329 280.576 127.238 282.302 125.366C280.463 123.339 279.307 120.785 279 118.066ZM342.436 220.452C348.861 218.775 354.756 215.495 359.568 210.92C358.436 208.398 357.294 205.884 356.168 203.362L334.79 218.696C335.768 219.681 337.006 220.369 338.359 220.679C339.712 220.99 341.126 220.911 342.436 220.452Z" fill="#FF8684"/>
<path d="M333.164 217.908C359.98 198.708 355.68 201.65 356.142 201.442C321.682 131.842 324.404 136.864 322.076 133.724C318.351 128.721 313.609 124.563 308.162 121.524C308.177 121.644 308.165 121.765 308.127 121.88C308.089 121.995 308.027 122.1 307.944 122.188C303.685 126.584 298.817 130.346 293.49 133.36C293.307 133.465 293.089 133.494 292.885 133.439C292.68 133.384 292.506 133.251 292.4 133.068C291.182 130.662 289.665 128.419 287.886 126.392C287.79 126.494 287.689 126.591 287.584 126.684C290.522 130.152 290.262 136.884 290.876 142.33C291.632 149.028 292.224 155.828 293.626 162.432C294.312 165.682 296.086 169.482 295.816 172.846C295.246 175.663 294.227 178.37 292.796 180.862C291.956 182.752 287.262 194.016 284.936 193.706C282.786 193.414 279.516 185.824 278.664 184.318C275.026 177.89 273.686 177.796 275.362 166.056C276.503 158.386 278.095 150.789 280.128 143.306C281.51 138.136 282.236 132.04 284.002 126.828C283.806 126.698 283.615 126.56 283.43 126.414C281.655 128.432 280.145 130.668 278.936 133.068C278.827 133.248 278.652 133.379 278.449 133.433C278.245 133.487 278.029 133.461 277.844 133.36C272.632 130.413 267.861 126.746 263.672 122.468C259.31 125.146 255.442 128.557 252.24 132.55C243.694 143.272 229.476 144.22 220.79 137.772C214.618 133.481 209.675 127.65 206.452 120.858C206.34 120.898 183.01 128.258 183.08 128.258C185.114 138.194 189.516 153.058 198.48 161.69C210.212 172.986 232.94 175.396 243.75 172.998C244.506 181.262 245.784 189.558 246.95 197.698C247.74 203.154 249.248 220.912 249.898 225.192C250.098 225.142 321.722 225.182 321.52 225.182C321.592 223.022 322.818 184.418 323.358 167.266C323.39 166.238 324.988 166.238 324.958 167.266C324.886 169.686 324.066 195.548 323.734 206.066C325.996 210.718 329.072 214.927 332.818 218.494C332.82 218.375 332.853 218.258 332.914 218.155C332.974 218.053 333.061 217.967 333.164 217.908Z" fill="#FF8684"/>
<path d="M288.828 125.146C290.639 127.063 292.174 129.223 293.388 131.564C298.138 128.801 302.499 125.417 306.356 121.502C306.075 121.042 305.785 120.589 305.484 120.142C302.484 118.723 299.335 117.644 296.096 116.924C294.676 117.324 293.265 117.743 291.862 118.18C291.053 120.585 290.038 122.916 288.828 125.146Z" fill="#FF8684"/>
<path d="M265.6 85.464C265.6 85.464 258 66.296 262.514 55.354C262.824 54.6126 263.356 53.9847 264.035 53.5556C264.715 53.1264 265.51 52.9168 266.313 52.9553C267.116 52.9937 267.888 53.2783 268.523 53.7704C269.159 54.2625 269.628 54.9383 269.866 55.706L272.066 62.798C272.066 62.798 276.23 53.546 279.002 54.938C281.774 56.33 281.318 61.874 281.318 61.874C281.318 61.874 298.428 54.938 303.984 62.34C309.54 69.742 302.136 86.388 302.136 86.388C302.136 86.388 300.06 72.278 286.178 71.354C272.296 70.43 265.6 85.464 265.6 85.464Z" fill="#C17E48"/>
<path d="M303.23 81.902C301.505 78.2446 298.769 75.1569 295.347 73.0033C291.924 70.8497 287.957 69.7199 283.913 69.7472C279.869 69.7745 275.918 70.9578 272.524 73.1576C269.131 75.3573 266.438 78.4816 264.762 82.162C264.015 81.8429 263.202 81.7075 262.392 81.767C261.581 81.8265 260.797 82.0792 260.104 82.504C259.412 82.9287 258.831 83.5132 258.41 84.2085C257.99 84.9037 257.742 85.6896 257.688 86.5002C257.633 87.3109 257.774 88.1228 258.097 88.8681C258.421 89.6134 258.918 90.2703 259.548 90.7839C260.178 91.2975 260.921 91.6528 261.716 91.8202C262.511 91.9876 263.335 91.9621 264.118 91.746C265.092 95.3585 267.089 98.6127 269.869 101.118C272.648 103.622 276.092 105.271 279.786 105.866V118.294H290.884V105.212C294.012 104.292 296.853 102.587 299.136 100.259C301.419 97.9312 303.068 95.0576 303.926 91.912C304.66 91.9804 305.4 91.8884 306.095 91.6424C306.79 91.3963 307.423 91.0021 307.95 90.487C308.478 89.9719 308.887 89.3483 309.149 88.6594C309.412 87.9705 309.521 87.2327 309.47 86.4973C309.419 85.7619 309.208 85.0464 308.853 84.4004C308.498 83.7544 308.007 83.1934 307.413 82.7562C306.819 82.3191 306.138 82.0163 305.415 81.8688C304.693 81.7212 303.947 81.7326 303.23 81.902Z" fill="#FFCEB6"/>
<path d="M296.4 96.334C288.854 96.334 289.474 91.246 283.432 91.246C277.356 91.246 278.068 96.334 270.464 96.334C268.666 96.337 266.885 95.9878 265.222 95.306C272.406 110.116 296.074 109.872 302.786 94.756C300.82 95.8013 298.626 96.3435 296.4 96.334Z" fill="#C17E48"/>
<path d="M273.764 84.54C274.041 84.54 274.312 84.6221 274.542 84.7759C274.772 84.9297 274.951 85.1484 275.057 85.4042C275.163 85.66 275.191 85.9415 275.137 86.2131C275.083 86.4847 274.95 86.7341 274.754 86.9299C274.558 87.1257 274.309 87.259 274.037 87.3131C273.766 87.3671 273.484 87.3394 273.228 87.2334C272.972 87.1274 272.754 86.948 272.6 86.7178C272.446 86.4875 272.364 86.2169 272.364 85.94C272.363 85.7557 272.398 85.5731 272.468 85.4026C272.538 85.2322 272.641 85.0773 272.771 84.947C272.901 84.8168 273.056 84.7137 273.227 84.6438C273.397 84.5739 273.58 84.5386 273.764 84.54ZM294.582 84.54C294.859 84.54 295.13 84.6221 295.36 84.7759C295.59 84.9297 295.769 85.1484 295.875 85.4042C295.981 85.66 296.009 85.9415 295.955 86.2131C295.901 86.4847 295.768 86.7341 295.572 86.9299C295.376 87.1257 295.127 87.259 294.855 87.3131C294.583 87.3671 294.302 87.3394 294.046 87.2334C293.79 87.1274 293.572 86.948 293.418 86.7178C293.264 86.4875 293.182 86.2169 293.182 85.94C293.182 85.5687 293.329 85.2126 293.592 84.95C293.855 84.6875 294.211 84.54 294.582 84.54ZM278.144 78.684C276.372 78.2715 274.514 78.4452 272.85 79.1792C271.185 79.9132 269.804 81.1676 268.914 82.754C268.823 82.9361 268.805 83.146 268.864 83.3409C268.923 83.5357 269.053 83.7009 269.229 83.8029C269.405 83.9048 269.614 83.9358 269.812 83.8896C270.01 83.8433 270.183 83.7233 270.296 83.554C271.005 82.2691 272.113 81.2495 273.452 80.6485C274.791 80.0476 276.289 79.8979 277.72 80.222C278.716 80.458 279.142 78.922 278.144 78.684ZM290.626 80.22C292.057 79.8949 293.556 80.0441 294.895 80.6452C296.234 81.2462 297.341 82.2664 298.05 83.552C298.164 83.7178 298.337 83.8344 298.533 83.8785C298.73 83.9226 298.936 83.891 299.11 83.79C299.284 83.6891 299.414 83.5261 299.473 83.3337C299.532 83.1412 299.517 82.9335 299.43 82.752C298.54 81.1656 297.158 79.9112 295.494 79.1772C293.829 78.4432 291.972 78.2695 290.2 78.682C289.214 78.922 289.628 80.458 290.626 80.22ZM279.214 81.538C279.24 84.58 280.46 90.022 284.458 89.804C287.79 89.616 288.518 84.55 288.674 82.004C288.736 80.976 287.148 80.986 287.074 82.004C286.97 83.634 286.556 87.922 284.458 88.204C281.55 88.604 280.824 83.49 280.814 81.528C280.813 81.4229 280.792 81.319 280.751 81.2222C280.71 81.1254 280.651 81.0376 280.576 80.9637C280.501 80.8899 280.413 80.8315 280.315 80.7919C280.218 80.7524 280.114 80.7323 280.009 80.733C279.904 80.7336 279.8 80.755 279.703 80.7958C279.606 80.8366 279.519 80.8961 279.445 80.9708C279.371 81.0456 279.313 81.1341 279.273 81.2314C279.233 81.3288 279.213 81.4329 279.214 81.538ZM279.776 95.368L288.756 95.514C288.756 95.514 288.382 99.222 283.668 99.096C278.954 98.97 279.776 95.368 279.776 95.368Z" fill="#1D1D1B"/>
<path d="M322.252 226.172H249.986C250.938 248.302 253.508 285.962 255.75 306.08C257.678 323.392 257.464 347.798 268.074 349.24C277.578 350.538 278.742 330.152 280.71 321.01C284.734 302.2 288.224 279.498 290.822 260.436C291.156 257.964 292.432 254.164 291.964 251.674C291.964 251.674 309.502 346.78 326.498 346.78C343.494 346.78 322.252 226.172 322.252 226.172Z" fill="#6C458F"/>
<path d="M264.752 352.138C267.079 352.478 269.451 352.329 271.718 351.702C272.201 351.551 272.71 351.502 273.212 351.559C273.715 351.616 274.201 351.777 274.637 352.032C275.074 352.287 275.453 352.63 275.75 353.04C276.046 353.45 276.254 353.917 276.36 354.412C277.024 357.578 277.492 361.514 276.1 362.718C273.826 364.718 255.812 370.132 245.636 368.46C245.082 368.372 244.58 368.084 244.225 367.65C243.869 367.217 243.685 366.668 243.706 366.108C243.728 365.548 243.954 365.015 244.342 364.61C244.73 364.206 245.253 363.957 245.812 363.912C249.738 363.622 258.366 362.112 260.764 354.578C261.039 353.77 261.589 353.083 262.317 352.637C263.045 352.192 263.907 352.015 264.752 352.138ZM333.528 350.674C331.269 351.336 328.896 351.52 326.562 351.214C326.063 351.13 325.553 351.152 325.063 351.278C324.573 351.403 324.115 351.629 323.718 351.942C323.321 352.255 322.994 352.647 322.757 353.094C322.52 353.54 322.38 354.032 322.344 354.536C322.128 357.766 322.22 361.722 323.758 362.736C326.29 364.388 344.876 367.254 354.718 364.18C355.265 364.013 355.729 363.647 356.021 363.156C356.313 362.665 356.412 362.082 356.298 361.522C356.185 360.986 355.882 360.508 355.445 360.178C355.008 359.847 354.467 359.685 353.92 359.722C349.994 359.98 341.232 359.69 337.806 352.556C337.425 351.792 336.789 351.185 336.007 350.841C335.226 350.497 334.349 350.438 333.528 350.674Z" fill="#1D1D1B"/>
<path d="M196.94 110.31C198.436 108.492 198.364 105.346 198.436 103.146C198.443 100.526 198.065 97.9199 197.314 95.41C196.479 91.558 194.967 87.8846 192.85 84.56C192.092 83.502 188.65 78.278 187.004 80.074C186.028 81.144 187.576 84.208 187.886 85.35C188.25 86.7 188.842 88.07 189.086 89.398C188.472 87.582 184.61 86.616 183.052 87.478C181.439 88.3415 180.168 89.7301 179.452 91.414C176.358 90.604 176.918 98.224 177.376 99.71C178.122 102.11 180.314 104.672 183.086 103.146C182.36 103.546 183.926 108.856 184.352 109.636C186.438 113.92 194.478 113.304 196.94 110.31ZM359.464 220.4C355.696 218.674 351.676 218.572 349.134 222.6C347.244 225.59 347.296 230.024 347.334 233.44C347.368 235.766 347.134 239.866 348.374 241.942C350.128 244.872 351.174 240.584 351.574 238.964C351.884 237.728 352.352 234.032 354.014 233.98C356.63 233.908 357.492 243.532 357.856 245.422C358.094 246.656 358.344 252.822 360.598 250.914C362.852 249.006 360.586 244.228 361.418 241.902C362.912 237.702 365.102 246.066 366.494 246.886C370.232 249.108 367.388 240.2 367.606 238.362C370.48 237.614 370.688 244.478 374.24 243.512C374.966 241.062 373.24 238.154 372.412 235.838C371.334 232.887 369.86 230.096 368.03 227.542C365.804 224.495 362.862 222.042 359.464 220.4Z" fill="#FFCEB6"/>
<path d="M114.406 155.704C120.324 155.704 125.122 150.906 125.122 144.988C125.122 139.07 120.324 134.272 114.406 134.272C108.488 134.272 103.69 139.07 103.69 144.988C103.69 150.906 108.488 155.704 114.406 155.704Z" fill="#86F2AA"/>
<path d="M76.1999 80.9779C78.2559 77.7179 81.5479 75.36 83.2299 71.83C84.025 69.9161 84.3421 67.8374 84.154 65.7735C83.9658 63.7096 83.278 61.7225 82.1499 59.984C80.5155 57.0012 78.173 54.4658 75.3286 52.6011C72.4842 50.7363 69.225 49.5992 65.8379 49.29C50.2379 47.836 38.8919 57.6159 45.4139 72.4639C47.3979 76.9799 51.2599 80.688 54.3639 84.644C56.0321 87.3974 57.4498 90.295 58.5999 93.302H71.7559C71.7539 93.6 73.5279 85.2259 76.1999 80.9779Z" fill="#FFD35C"/>
<path d="M73.726 75.32C73.613 74.9203 73.3957 74.5579 73.0963 74.2701C72.797 73.9822 72.4264 73.7792 72.0227 73.6818C71.6189 73.5845 71.1965 73.5964 70.7989 73.7163C70.4013 73.8361 70.0427 74.0597 69.76 74.3639C69.1637 74.9868 68.729 75.7463 68.494 76.5759C68.162 77.5419 67.87 78.518 67.632 79.514C66.8524 79.4757 66.0953 79.2396 65.432 78.828C65.9688 78.2258 66.3712 77.5163 66.6126 76.7467C66.854 75.977 66.9288 75.1648 66.832 74.3639C66.8382 73.8378 66.6586 73.3263 66.3249 72.9195C65.9911 72.5126 65.5246 72.2366 65.0073 72.1398C64.4901 72.043 63.9553 72.1318 63.497 72.3905C63.0388 72.6491 62.6865 73.0611 62.502 73.554C62.2634 74.4126 62.2012 75.3108 62.3191 76.1941C62.437 77.0775 62.7326 77.9279 63.188 78.694C62.35 79.2663 61.3219 79.4894 60.322 79.316C59.66 76.904 59.122 74.334 57.166 73.222C56.8337 73.0155 56.444 72.9209 56.054 72.952C53.454 73.224 54.542 79.0299 59.024 80.6139C60.0018 84.321 60.7948 88.0742 61.4 91.86C61.4542 92.0486 61.5757 92.2108 61.7417 92.3156C61.9076 92.4204 62.1062 92.4606 62.2999 92.4285C62.4935 92.3964 62.6685 92.2943 62.7917 92.1415C62.9149 91.9887 62.9777 91.796 62.968 91.5999C62.384 88.0209 61.6393 84.47 60.736 80.958C61.9836 81.0099 63.2124 80.64 64.224 79.9079C65.1194 80.5748 66.185 80.9748 67.298 81.0619C66.6612 84.5363 66.6368 88.0952 67.226 91.578C67.2618 91.7872 67.3793 91.9737 67.5526 92.0963C67.7259 92.219 67.9408 92.2678 68.15 92.232C68.3593 92.1961 68.5457 92.0787 68.6684 91.9054C68.791 91.7321 68.8398 91.5172 68.804 91.3079C68.2337 87.9196 68.2723 84.4567 68.918 81.082C72.674 80.76 74.546 77.7999 73.726 75.32ZM56.274 74.582C57.542 75.216 58.074 77.1819 58.432 78.57C57.7538 78.1533 57.1972 77.5653 56.8184 76.8652C56.4396 76.1652 56.2518 75.3777 56.274 74.582ZM64.382 77.582C63.8648 76.5489 63.7078 75.3725 63.936 74.2399C64.0056 74.0954 64.1107 73.971 64.2415 73.8783C64.3724 73.7856 64.5246 73.7277 64.684 73.7099C65.04 73.7099 65.192 74.2479 65.244 74.6019C65.3036 75.131 65.2581 75.6665 65.1101 76.1779C64.9622 76.6893 64.7148 77.1664 64.382 77.582ZM69.282 79.4619C69.482 78.6619 69.718 77.884 69.988 77.106C70.28 76.292 70.694 75.2259 71.568 75.2259C72.694 75.2259 72.944 78.8259 69.282 79.4619ZM59.056 96.542H70.8C70.9592 96.542 71.1118 96.4787 71.2243 96.3662C71.3368 96.2537 71.4 96.1011 71.4 95.942C71.4 95.7828 71.3368 95.6302 71.2243 95.5177C71.1118 95.4052 70.9592 95.342 70.8 95.342H59.056C58.8969 95.342 58.7443 95.4052 58.6318 95.5177C58.5192 95.6302 58.456 95.7828 58.456 95.942C58.456 96.1011 58.5192 96.2537 58.6318 96.3662C58.7443 96.4787 58.8969 96.542 59.056 96.542ZM59.056 99.73H70.8C70.9592 99.73 71.1118 99.6667 71.2243 99.5542C71.3368 99.4417 71.4 99.2891 71.4 99.1299C71.4 98.9708 71.3368 98.8182 71.2243 98.7057C71.1118 98.5932 70.9592 98.5299 70.8 98.5299H59.056C58.8969 98.5299 58.7443 98.5932 58.6318 98.7057C58.5192 98.8182 58.456 98.9708 58.456 99.1299C58.456 99.2891 58.5192 99.4417 58.6318 99.5542C58.7443 99.6667 58.8969 99.73 59.056 99.73ZM208.28 43.256C208.301 43.6515 208.225 44.0463 208.057 44.405C207.888 44.7637 207.634 45.0752 207.316 45.3116C206.998 45.5481 206.627 45.7022 206.235 45.7602C205.843 45.8182 205.443 45.7782 205.07 45.644C204.713 45.4907 204.394 45.2609 204.135 44.9706C203.877 44.6804 203.685 44.3369 203.574 43.9645C203.463 43.592 203.435 43.1997 203.493 42.8153C203.55 42.4309 203.691 42.0638 203.906 41.74C204.226 41.3493 204.658 41.0662 205.143 40.9288C205.629 40.7914 206.145 40.8064 206.622 40.9717C207.099 41.137 207.514 41.4447 207.81 41.8531C208.107 42.2616 208.271 42.7513 208.28 43.256C208.32 44.274 209.918 44.29 209.88 43.256C209.883 42.3209 209.559 41.4141 208.965 40.6923C208.37 39.9704 207.543 39.4788 206.624 39.3021C205.706 39.1255 204.755 39.275 203.935 39.7248C203.115 40.1746 202.478 40.8966 202.134 41.7659C201.923 42.3388 201.841 42.9509 201.892 43.559C201.944 44.1672 202.128 44.7567 202.431 45.2861C202.735 45.8155 203.151 46.272 203.65 46.6233C204.149 46.9747 204.719 47.2125 205.32 47.32C205.896 47.4048 206.484 47.3622 207.042 47.1951C207.6 47.0281 208.115 46.7407 208.549 46.3531C208.984 45.9656 209.329 45.4874 209.559 44.9523C209.788 44.4172 209.898 43.8381 209.88 43.256C209.88 43.0438 209.796 42.8403 209.646 42.6903C209.496 42.5402 209.292 42.456 209.08 42.456C208.868 42.456 208.664 42.5402 208.514 42.6903C208.364 42.8403 208.28 43.0438 208.28 43.256Z" fill="#1D1D1B"/>
<path d="M224.486 43.2559C224.517 43.6892 224.456 44.1241 224.307 44.5322C224.159 44.9404 223.926 45.3128 223.624 45.6252C223.322 45.9375 222.958 46.1829 222.555 46.3453C222.153 46.5078 221.72 46.5836 221.286 46.5679C220.816 46.562 220.352 46.4543 219.927 46.2524C219.502 46.0505 219.126 45.7591 218.824 45.3981C218.523 45.0371 218.303 44.6152 218.179 44.1612C218.056 43.7072 218.032 43.2319 218.11 42.7679C218.207 41.9476 218.617 41.1964 219.255 40.6715C219.893 40.1466 220.709 39.8887 221.532 39.9517C222.356 40.0148 223.123 40.3939 223.674 41.0097C224.224 41.6255 224.515 42.4304 224.486 43.2559Z" fill="#FCAFB7"/>
<path d="M221.912 39.28C221.006 39.1118 220.07 39.2698 219.27 39.726C218.47 40.1821 217.857 40.907 217.54 41.772C217.329 42.345 217.247 42.9572 217.299 43.5655C217.35 44.1738 217.534 44.7634 217.838 45.2928C218.142 45.8223 218.558 46.2787 219.058 46.63C219.557 46.9812 220.127 47.2188 220.728 47.326C221.291 47.4046 221.865 47.362 222.411 47.2011C222.957 47.0403 223.462 46.7649 223.893 46.3933C224.323 46.0218 224.67 45.5626 224.909 45.0464C225.149 44.5302 225.275 43.9689 225.28 43.4C225.305 42.4239 224.978 41.4713 224.36 40.7154C223.742 39.9594 222.874 39.4501 221.912 39.28ZM220.478 45.644C220.121 45.4909 219.802 45.261 219.543 44.9707C219.285 44.6805 219.093 44.3369 218.982 43.9643C218.871 43.5918 218.844 43.1994 218.901 42.815C218.959 42.4306 219.101 42.0636 219.316 41.74C219.635 41.349 220.067 41.0656 220.553 40.928C221.038 40.7904 221.555 40.8053 222.032 40.9707C222.509 41.136 222.923 41.4439 223.219 41.8527C223.516 42.2614 223.679 42.7513 223.688 43.256C223.709 43.6516 223.633 44.0464 223.464 44.4051C223.296 44.7638 223.042 45.0752 222.724 45.3117C222.406 45.5482 222.035 45.7023 221.643 45.7603C221.251 45.8182 220.851 45.7783 220.478 45.644ZM72.876 108.462C70.3727 107.234 67.6083 106.633 64.821 106.71C62.0337 106.788 59.3071 107.542 56.876 108.908C53.8889 110.912 51.6198 113.817 50.3991 117.201C49.1784 120.585 49.0699 124.27 50.0895 127.719C51.109 131.169 53.2034 134.202 56.0674 136.379C58.9314 138.555 62.4154 139.76 66.012 139.818C83.518 139.47 87.308 115.474 72.876 108.462ZM68.514 138C64.6695 138.706 60.7019 137.861 57.4787 135.65C54.2556 133.438 52.0391 130.041 51.314 126.2C50.6487 123.288 50.8618 120.245 51.9262 117.454C52.9906 114.663 54.8586 112.251 57.294 110.522C59.5473 109.097 62.1414 108.303 64.806 108.221C67.4707 108.139 70.1086 108.773 72.4452 110.056C74.7817 111.34 76.7315 113.227 78.0915 115.52C79.4515 117.813 80.172 120.428 80.178 123.094C80.132 130.286 75.906 136.742 68.514 138Z" fill="#1D1D1B"/>
<path d="M56.584 121.762C57.6101 121.762 58.442 120.93 58.442 119.904C58.442 118.878 57.6101 118.046 56.584 118.046C55.5578 118.046 54.726 118.878 54.726 119.904C54.726 120.93 55.5578 121.762 56.584 121.762Z" fill="#1D1D1B"/>
<path d="M74.38 122.022C75.4061 122.022 76.238 121.19 76.238 120.164C76.238 119.138 75.4061 118.306 74.38 118.306C73.3538 118.306 72.522 119.138 72.522 120.164C72.522 121.19 73.3538 122.022 74.38 122.022Z" fill="#1D1D1B"/>
<path d="M71.2 126.278C71.1525 127.726 70.5437 129.1 69.5022 130.108C68.4608 131.115 67.0683 131.679 65.619 131.679C64.1697 131.679 62.7772 131.115 61.7358 130.108C60.6943 129.1 60.0855 127.726 60.038 126.278C59.986 125.26 58.386 125.25 58.438 126.278C58.4221 127.23 58.5959 128.176 58.9494 129.061C59.3028 129.945 59.8288 130.75 60.4966 131.429C61.1645 132.108 61.9608 132.648 62.8392 133.016C63.7176 133.384 64.6606 133.574 65.613 133.574C66.5655 133.574 67.5084 133.384 68.3868 133.016C69.2652 132.648 70.0616 132.108 70.7294 131.429C71.3972 130.75 71.9232 129.945 72.2766 129.061C72.6301 128.176 72.8039 127.23 72.788 126.278C72.844 125.25 71.246 125.25 71.2 126.278Z" fill="#1D1D1B"/>
<path d="M103.868 84.3L116.618 57.73C119.652 61.485 121.949 65.7798 123.388 70.388C123.814 71.52 126.846 81.746 127.77 81.642L103.868 84.3Z" fill="#FFD35C"/>
<path d="M101.28 108.216L115.56 93.936L129.838 108.216L115.558 122.496L101.28 108.216Z" fill="#FCAFB7"/>
<path d="M212.1 79.41C212.356 79.6353 212.679 79.7696 213.019 79.792C213.359 79.8144 213.697 79.7237 213.98 79.534C219.512 75.8 228.78 71.866 229.004 63.66C229.073 61.7081 228.507 59.7865 227.391 58.1838C226.275 56.5811 224.669 55.3839 222.814 54.772C221.418 54.4201 219.954 54.438 218.567 54.8237C217.18 55.2095 215.918 55.9499 214.904 56.972C214.757 57.1443 214.573 57.2816 214.366 57.3742C214.159 57.4667 213.934 57.5122 213.708 57.5072C213.481 57.5022 213.258 57.4469 213.056 57.3454C212.853 57.2439 212.676 57.0986 212.536 56.92C211.507 55.3803 209.995 54.2262 208.239 53.6389C206.482 53.0516 204.581 53.0645 202.832 53.6755C201.084 54.2865 199.588 55.461 198.58 57.0145C197.572 58.568 197.108 60.4124 197.262 62.258C197.316 64.246 197.81 66.1973 198.709 67.9712C199.609 69.7451 200.89 71.2973 202.462 72.516C205.216 74.78 209.302 76.986 212.1 79.41Z" fill="#FFD35C"/>
<path d="M277.8 133.454C277.983 133.559 278.201 133.588 278.405 133.533C278.609 133.478 278.784 133.345 278.89 133.162C280.102 130.763 281.612 128.526 283.386 126.506C283.566 126.658 283.756 126.797 283.956 126.922C282.192 132.134 281.464 138.23 280.082 143.4C278.222 150.352 273.812 168.974 274.756 176.116C275.172 179.284 277.072 181.66 278.618 184.412C279.47 185.918 282.742 193.508 284.89 193.798C287.226 194.11 291.91 182.844 292.75 180.954C294.175 178.459 295.195 175.754 295.772 172.94C296.032 169.576 294.266 165.776 293.572 162.526C292.172 155.926 291.572 149.126 290.822 142.424C290.196 136.878 290.482 130.254 287.53 126.776C287.635 126.684 287.736 126.588 287.832 126.486C289.617 128.509 291.134 130.753 292.348 133.162C292.457 133.342 292.631 133.472 292.834 133.527C293.037 133.581 293.254 133.555 293.438 133.454C298.767 130.443 303.634 126.681 307.89 122.282C308.012 122.156 308.09 121.994 308.112 121.82C308.135 121.645 308.1 121.469 308.014 121.316C306.414 118.73 303.736 114.14 300.166 114.4C297.026 114.765 293.949 115.55 291.018 116.736C287.43 116.317 283.806 116.317 280.218 116.736C277.294 115.541 274.219 114.755 271.08 114.4C267.498 114.14 264.842 118.72 263.232 121.316C263.146 121.469 263.111 121.645 263.134 121.82C263.156 121.994 263.234 122.156 263.356 122.282C267.61 126.679 272.474 130.442 277.8 133.454ZM306.32 121.596C302.457 125.503 298.097 128.885 293.352 131.656C292.131 129.322 290.6 127.163 288.8 125.24C290.013 123.017 291.031 120.693 291.842 118.294C293.397 117.795 294.962 117.328 296.536 116.894C301.714 115.464 303.41 116.906 306.324 121.6L306.32 121.596ZM278.96 118.148C279.256 120.87 280.417 123.425 282.274 125.438C280.548 127.31 279.075 129.401 277.892 131.656C273.144 128.894 268.783 125.514 264.924 121.606C269.2 114.766 271.2 115.692 278.964 118.148H278.96ZM205.05 112.688C205.024 112.586 204.978 112.491 204.914 112.407C204.85 112.323 204.77 112.253 204.679 112.201C204.588 112.149 204.488 112.115 204.383 112.102C204.279 112.089 204.173 112.097 204.072 112.126C196.452 113.909 188.835 115.681 181.222 117.442C181.021 117.501 180.85 117.636 180.746 117.817C180.641 117.999 180.61 118.214 180.66 118.418C181.139 121.534 181.62 124.653 182.104 127.774C182.16 127.977 182.294 128.15 182.477 128.255C182.66 128.359 182.876 128.388 183.08 128.334C190.825 125.883 198.567 123.437 206.306 120.994C206.506 120.933 206.676 120.799 206.78 120.617C206.884 120.436 206.915 120.221 206.866 120.018C206.264 117.578 205.64 115.14 205.05 112.688ZM203.7 113.85C204.188 115.802 204.666 117.744 205.152 119.696C197.936 121.971 190.724 124.248 183.516 126.528C183.116 123.952 182.726 121.388 182.332 118.814C189.455 117.173 196.577 115.518 203.7 113.85ZM361.178 210.8C356.842 201.342 357.202 201.522 356.65 201.434C356.182 201.268 357.63 200.434 333.122 217.984C333.019 218.048 332.932 218.134 332.867 218.236C332.801 218.338 332.759 218.453 332.743 218.573C332.728 218.693 332.738 218.815 332.775 218.93C332.812 219.045 332.874 219.151 332.956 219.24C333.739 220.235 334.728 221.048 335.855 221.623C336.983 222.199 338.221 222.523 339.486 222.574C346.798 222.174 355.754 217.004 361.042 211.774C361.17 211.65 361.253 211.487 361.277 211.31C361.302 211.134 361.267 210.954 361.178 210.8ZM342.406 220.538C341.095 220.997 339.681 221.075 338.327 220.765C336.973 220.455 335.734 219.768 334.754 218.784L356.132 203.448C357.264 205.972 358.406 208.484 359.532 211.008C354.72 215.582 348.825 218.86 342.4 220.534L342.406 220.538ZM323.3 167.364C322.77 184.516 321.536 223.13 321.462 225.28H249.966C249.754 225.28 249.55 225.364 249.4 225.514C249.25 225.664 249.166 225.868 249.166 226.08C249.166 226.292 249.25 226.496 249.4 226.646C249.55 226.796 249.754 226.88 249.966 226.88H322.232C322.443 226.875 322.644 226.79 322.793 226.641C322.942 226.492 323.027 226.291 323.032 226.08C323.572 208.926 324.818 169.784 324.89 167.364C324.93 166.336 323.332 166.336 323.3 167.364ZM192.538 90.7579C191.622 91.4992 191.006 92.5472 190.804 93.7079C190.618 92.6699 190.368 91.7079 190.192 90.9979C189.952 89.9979 188.416 90.4259 188.654 91.4239C188.936 92.6059 190.212 98.7839 187.97 98.7219C185.394 96.1479 184.958 91.7659 185.17 88.2879C185.232 87.2599 183.634 87.2699 183.57 88.2879C183.148 92.0078 184.013 95.7599 186.02 98.9199C185.986 99.0025 185.969 99.0908 185.968 99.1799C185.884 100.954 184.93 102.336 183.05 102.096C182.032 101.972 182.05 103.572 183.05 103.696C183.567 103.76 184.091 103.72 184.592 103.579C185.094 103.438 185.562 103.199 185.97 102.875C186.377 102.551 186.717 102.15 186.968 101.693C187.219 101.237 187.377 100.736 187.432 100.218C188.832 100.218 189.042 100.176 189.582 99.8019C190.602 99.1039 189.782 98.3279 189.966 104.744C189.996 105.772 191.596 105.772 191.566 104.744C191.372 101.318 191.644 97.8809 192.376 94.5279C192.616 93.5619 193.29 90.6959 194.91 92.8359C195.171 93.5442 195.312 94.2912 195.326 95.0459C195.792 97.9019 196.084 100.788 196.352 103.674C196.446 104.692 198.046 104.692 197.952 103.674C197.74 101.774 197.666 87.3779 192.538 90.7579ZM295.878 364.94C296.127 364.94 296.37 365.013 296.578 365.151C296.785 365.289 296.946 365.486 297.042 365.716C297.137 365.946 297.162 366.199 297.114 366.443C297.065 366.687 296.946 366.911 296.769 367.087C296.593 367.264 296.369 367.383 296.125 367.432C295.881 367.48 295.628 367.455 295.398 367.36C295.168 367.264 294.971 367.103 294.833 366.896C294.695 366.688 294.622 366.445 294.622 366.196C294.622 365.863 294.755 365.544 294.99 365.308C295.226 365.073 295.545 364.94 295.878 364.94Z" fill="#1D1D1B"/>
<path d="M299.15 146.296C299.051 146.307 298.957 146.341 298.874 146.395C298.79 146.449 298.721 146.522 298.672 146.608C297.846 147.008 298.114 147.408 299.182 162.464C299.184 162.637 299.242 162.805 299.346 162.943C299.451 163.081 299.596 163.182 299.762 163.232C307.842 164.976 307.312 165.204 308.868 165.214C309.82 165.214 309.752 165.04 315.97 161.954C316.091 161.886 316.192 161.786 316.262 161.666C316.333 161.546 316.37 161.409 316.37 161.27C316.412 157.926 316.464 154.592 316.506 151.25C316.72 150.202 316.635 149.115 316.258 148.113C315.882 147.112 315.23 146.237 314.378 145.59C312.53 144.77 309.55 145.342 307.578 145.424C304.753 145.531 301.937 145.823 299.15 146.296ZM309.096 163.658C308.462 163.592 311.134 164.11 300.728 161.83L300.128 153.212C302.67 154.828 306.704 152.592 311.728 152.974C312.779 153.154 313.852 153.157 314.904 152.984C314.884 154.416 314.864 155.85 314.852 157.272C314.662 158.436 314.627 159.619 314.748 160.792C314.26 161.01 313.786 161.256 313.326 161.528C311.862 162.125 310.447 162.837 309.096 163.658ZM314.246 147.532C314.91 148.23 315.326 150.856 314.35 151.446C313.644 151.882 312.014 151.364 311.236 151.322C304.4 151 299.412 155 299.8 147.8C302.987 147.286 306.208 147.006 309.436 146.96C310.644 146.94 313.28 146.516 314.246 147.532Z" fill="#1D1D1B"/>
</svg>
