<svg width="400" height="400" viewBox="0 0 400 400" fill="none" xmlns="http://www.w3.org/2000/svg">
<path d="M103.704 167.316C93.416 175.402 93.742 155.668 98.56 157.396C99.654 157.796 103.65 161.796 104.44 159.232C104.784 158.122 101.868 145.632 100.766 143.064C108.674 136.983 114.564 128.658 117.668 119.178C117.668 118.076 114.73 119.546 114.73 119.546C115.33 118.029 115.581 116.396 115.464 114.768C115.4 114.683 115.316 114.613 115.221 114.566C115.125 114.518 115.02 114.493 114.913 114.493C114.806 114.493 114.701 114.518 114.605 114.566C114.51 114.613 114.426 114.683 114.362 114.768C112.524 118.444 108.116 119.168 104.44 119.546C100.04 119.546 84.596 117.346 79.084 119.914C76.512 121.016 73.572 124.69 74.684 131.314C74.684 132.05 75.786 136.46 76.52 136.826C79.364 136.815 82.1577 137.575 84.604 139.026C84.972 139.392 84.604 139.76 84.238 139.76C82.768 139.76 81.664 139.392 80.562 139.392C75.418 139.026 68.068 139.026 67.334 145.64C66.598 150.784 68.436 155.93 70.274 160.34C72.474 165.85 84.604 183.858 86.074 184.592C86.5887 184.602 87.1018 184.531 87.594 184.38C87.976 188.248 88.678 192.1 89.382 195.616C89.748 197.816 91.954 198.188 91.582 195.616C90.536 191.78 89.82 187.944 88.808 184.108C94.042 182.884 105.132 179.752 107.384 178.346C108.116 177.974 104.8 166.214 103.704 167.316ZM107.748 125.058C107.938 125.073 108.116 125.155 108.25 125.29C108.385 125.424 108.467 125.602 108.482 125.792C108.482 128.058 101.414 129.392 101.132 129.468C100.766 129.468 100.398 128.732 100.766 128.732C101.174 128.322 106.74 124.722 107.748 125.058ZM89 170.624C89.0011 170.673 88.9923 170.721 88.9742 170.766C88.9561 170.811 88.9291 170.852 88.8947 170.887C88.8603 170.921 88.8193 170.948 88.7741 170.966C88.729 170.984 88.6807 170.993 88.632 170.992C87.53 171.36 86.432 170.256 86.06 169.522C85.2729 168.583 84.5384 167.602 83.86 166.582C84.0253 169.517 84.7732 172.39 86.06 175.034C86.1619 175.279 86.1814 175.551 86.1156 175.808C86.0497 176.065 85.9021 176.294 85.6949 176.459C85.4877 176.625 85.2322 176.719 84.9669 176.727C84.7016 176.735 84.4409 176.657 84.224 176.504C81.7266 173.881 79.6221 170.91 77.976 167.684C76.212 164.338 74.302 161.07 74.67 157.028C74.67 156.66 75.404 156.292 75.404 157.028C76.2633 160.459 77.7555 163.699 79.804 166.582C80.5359 168.011 81.4053 169.364 82.4 170.624C81.7186 168.234 81.5927 165.72 82.032 163.274C82.0408 163.058 82.122 162.851 82.2625 162.687C82.4031 162.522 82.5948 162.41 82.807 162.368C83.0191 162.325 83.2393 162.356 83.4321 162.454C83.6249 162.552 83.7792 162.712 83.87 162.908C85.534 166.254 89.486 168.704 89 170.624ZM81.29 124.322C80.91 124.502 80.594 124.268 80.922 123.956C82.2857 122.825 83.8816 122.009 85.5964 121.564C87.3112 121.12 89.1028 121.058 90.844 121.384C93.7622 121.838 96.709 122.083 99.662 122.118C99.862 122.118 105.094 121.464 102.97 123.588C100.478 125.456 94.896 124.546 91.946 123.956C88.4463 122.935 84.7115 123.064 81.29 124.322Z" fill="#191919"/>
<path d="M123.182 159.232C124.115 158.484 124.865 157.532 125.374 156.449C125.883 155.367 126.139 154.182 126.12 152.986C126.12 148.046 122.12 144.96 118.772 140.858C116.956 138.636 114.73 136.816 112.524 134.612C112.156 134.244 111.422 134.612 111.79 135.346C113.26 137.184 114.73 139.39 116.19 141.226C120.514 146.626 122.99 149.226 123.538 152.25C123.56 154.187 123.052 156.093 122.068 157.762C121.976 157.209 121.721 156.697 121.334 156.292C120.966 155.926 120.476 155.952 120.598 156.66C121.56 162.198 122.798 168.42 120.966 174.298C120.43 176.34 119.423 178.228 118.026 179.81C116.556 181.648 114.352 182.384 112.514 183.854C112.146 184.22 112.146 184.956 112.882 184.956C115.454 185.322 117.658 183.486 119.496 182.016C121.315 180.134 122.698 177.875 123.548 175.4C125.085 170.1 124.957 164.457 123.182 159.232Z" fill="#191919"/>
<path d="M184.182 197.45C190.336 195.69 194.13 193.21 206.23 187.16C210.85 185.62 213.048 184.706 215.048 180.546C232 145.268 234.136 122.182 236 116.6C236.424 114.424 236.668 112.216 236.73 110C236.73 108.896 235.26 108.896 234.892 109.632C233.948 113.51 233.213 117.435 232.692 121.392C229.223 138.523 224.052 155.264 217.258 171.368C215.458 175.428 214.318 181.288 210.276 183.494C206.24 185.716 202.067 187.68 197.782 189.374C193.332 191.496 188.962 194.15 184.182 196.356C183.078 196.714 183.446 197.45 184.182 197.45Z" fill="#191919"/>
<path d="M234.158 104.112C231.958 102.274 229.726 100.834 227.176 98.968C225.705 98.1737 224.444 97.0396 223.5 95.66C223.047 94.812 222.81 93.8654 222.81 92.9039C222.81 91.9425 223.047 90.9959 223.5 90.148C224.202 88.1238 225.062 86.1577 226.072 84.2679C226.808 82.4319 227.91 80.5939 228.646 78.7559C229.012 78.0219 227.91 77.286 227.176 78.022C225.861 79.723 224.75 81.5731 223.868 83.5339C222.398 86.8399 220.116 90.8919 220.56 94.5579C220.828 95.7966 221.36 96.9629 222.119 97.9776C222.878 98.9922 223.847 99.8314 224.96 100.438C227.56 102.238 230.472 104.112 233.044 105.582C234.158 105.582 234.892 104.846 234.158 104.112Z" fill="#191919"/>
<path d="M230.85 85.738C232.06 79.084 232.358 71.55 233.05 67.364C233.418 65.164 233.418 62.964 233.786 60.75C234.154 59.28 234.52 61.118 234.888 61.486C235.256 62.956 235.978 64.428 236.358 66.262C237.426 71.414 237.828 76.92 238.558 82.062C238.582 82.2892 238.689 82.4996 238.858 82.6525C239.028 82.8054 239.249 82.8901 239.477 82.8901C239.705 82.8901 239.926 82.8054 240.095 82.6525C240.265 82.4996 240.372 82.2892 240.396 82.062C240.655 74.4213 239.406 66.8045 236.722 59.646C236.6 59.0452 236.28 58.5025 235.814 58.1039C235.348 57.7054 234.762 57.4738 234.15 57.446C231.578 57.446 231.95 61.846 231.578 63.324C230.834 70.5273 230.465 77.7644 230.474 85.006C229.748 86.106 230.482 86.106 230.85 85.738Z" fill="#191919"/>
<path d="M250.326 74.346C251.766 75.6053 252.791 77.271 253.266 79.124C253.634 80.9429 253.634 82.8171 253.266 84.636C253.082 84.9073 252.984 85.2274 252.984 85.555C252.984 85.8826 253.082 86.2027 253.266 86.474C253.634 86.84 254 86.474 254.368 86.106C255.808 84.666 255.608 80.78 255.104 78.756C254.802 77.5768 254.253 76.4755 253.493 75.5251C252.732 74.5747 251.778 73.7971 250.694 73.244C250.17 73.058 249.958 73.98 250.326 74.346Z" fill="#191919"/>
<path d="M258.778 102.274C259.999 99.7088 260.864 96.9891 261.35 94.19C262.018 89.404 262.086 83.166 258.778 79.124C258.41 78.388 257.308 79.124 257.676 79.858C259.508 84.2796 259.894 89.1677 258.778 93.822C258.042 98.222 255.378 101.866 253.634 105.95C252.856 107.77 255.484 127.996 256.206 138.286C256.954 148.942 256.94 159.6 256.94 170.256C256.94 180.546 256.218 190.836 255.47 201.492C255.177 206.594 254.314 211.648 252.898 216.558C251.656 220.219 249.507 223.506 246.652 226.112C243.042 229.811 238.965 233.022 234.524 235.666C231.96 237.148 229.748 238.606 227.176 240.066C224.592 241.442 222.133 243.041 219.826 244.844C219.09 245.21 219.826 246.314 220.56 245.946C225.509 244.261 230.207 241.913 234.524 238.964C238.558 236.477 242.372 233.649 245.924 230.512C248.962 227.873 251.566 224.773 253.642 221.326C255.759 216.953 257.007 212.211 257.316 207.362C261.334 178.226 259.65 136.83 255.116 107.776C256.94 107.052 258.41 103.376 258.778 102.274Z" fill="#191919"/>
<path d="M18.452 303.282C17.932 311.082 13.688 330.564 11.838 338.19C10.186 345 10 344.6 10 346.276C10 347.01 10.734 347.378 11.47 346.642C12.812 344.658 13.691 342.397 14.042 340.028C15.112 335.156 19.922 310.964 19.922 303.282C19.554 302.178 18.452 302.178 18.452 303.282Z" fill="#191919"/>
<path d="M241.14 71.7739C241.874 72.8759 242.976 73.6119 243.34 74.7139C244.389 77.0183 244.892 79.5335 244.81 82.0639C244.81 84.6179 247.684 82.2639 246.648 77.6639C246.279 75.8155 245.53 74.0638 244.448 72.5199C243.633 71.5884 242.632 70.8388 241.508 70.3199C241.14 70.6719 240.772 71.3999 241.14 71.7739Z" fill="#191919"/>
<path d="M144.862 280.498C144.126 280.866 143.754 279.754 144.494 279.396C149.972 276.748 218.356 251.836 219.094 251.468C216.156 243.75 194.106 186.426 193.372 183.486C193.306 183.312 193.205 183.153 193.074 183.021C192.944 182.888 192.788 182.783 192.615 182.714C192.442 182.645 192.257 182.612 192.071 182.619C191.885 182.625 191.702 182.67 191.534 182.75C183.45 188.262 134.576 205.534 133.474 205.902C121.344 193.04 84.6001 191.2 69.1621 198.184C68.9253 198.255 68.7176 198.4 68.5699 198.598C68.4223 198.796 68.3425 199.037 68.3425 199.284C68.3425 199.531 68.4223 199.772 68.5699 199.97C68.7176 200.168 68.9253 200.313 69.1621 200.384C72.8101 201.512 75.2821 206.502 75.778 206.998C62.548 211.398 50.3041 218.668 41.9781 229.78C31.2541 244.084 30.1781 253.328 13.3161 307.684C13.2913 307.884 13.3114 308.086 13.3747 308.277C13.438 308.468 13.543 308.643 13.6821 308.788C21.7681 310.258 30.2181 310.624 38.3041 312.094C37.6641 294.204 37.9841 273.948 42.7041 256.606C44.6138 248.652 47.5802 240.99 51.524 233.824C51.892 233.456 52.626 233.824 52.26 234.19C50.1242 238.514 48.5198 243.08 47.482 247.79C38.672 274.218 41.7561 311.778 42.3381 339.656C42.4221 343.698 42.7041 347.742 43.0721 351.784C47.1154 353.044 51.3311 353.664 55.5661 353.62C59.2421 353.62 83.1181 352.048 91.5781 351.42C109.202 350.104 161.398 347.746 170.218 348.48C170.504 348.462 170.774 348.34 170.977 348.137C171.18 347.934 171.302 347.664 171.32 347.378C171.504 337.818 175.362 276.824 175.362 272.778C165.042 274.702 154.855 277.28 144.862 280.498ZM118.4 244.118C119.778 251.771 122.517 259.114 126.488 265.8C126.632 265.925 126.74 266.085 126.802 266.265C126.864 266.445 126.877 266.639 126.839 266.825C126.802 267.012 126.715 267.185 126.589 267.328C126.463 267.47 126.301 267.577 126.12 267.636C125.386 267.636 124.65 266.166 124.284 265.8C122.814 263.6 121.344 261.022 119.874 258.45C117.662 253.164 116.182 247.601 115.474 241.914C114.122 231.132 117.874 220.418 122.088 215.456C122.424 215.056 127.234 210.678 126.866 212.148C126.498 213.25 124.994 214.32 124.294 215.088C122.521 217.278 121.152 219.767 120.252 222.438C117.744 229.377 117.106 236.854 118.4 244.118ZM107 205.534C109.366 205.739 111.582 206.782 113.248 208.474C113.317 208.565 113.363 208.672 113.382 208.785C113.4 208.898 113.391 209.014 113.355 209.122C113.318 209.231 113.256 209.329 113.174 209.408C113.091 209.487 112.99 209.545 112.88 209.576C107.298 209.576 107.91 206.636 84.5841 206.636C83.8501 206.636 84.2181 205.902 84.5841 205.902C89.7081 205.508 101.744 204.656 107.012 205.534H107Z" fill="#38A1FF"/>
<path d="M266.494 46.786C258.312 46.786 213.388 46.014 206.23 46.786C202.194 47.222 197.778 47.888 194.83 51.186C193.202 52.8974 192.171 55.0889 191.89 57.434C191.506 62.2029 191.506 66.995 191.89 71.764C192.23 75.81 192.21 79.896 195.564 83.164C202.09 89.504 213.198 86.288 221.288 86.472C221.434 86.472 221.575 86.4138 221.678 86.3103C221.782 86.2068 221.84 86.0664 221.84 85.92C221.84 85.7736 221.782 85.6332 221.678 85.5297C221.575 85.4261 221.434 85.368 221.288 85.368C217.98 85.368 214.306 85.002 210.998 85.002C204.514 85.002 198.422 84.836 195.564 79.122C193.728 75.448 194.094 70.67 194.094 66.628C194.094 62.954 193.728 57.808 195.564 54.502C197.4 51.196 201.452 49.802 205.12 49.356C210.123 48.8084 215.154 48.5633 220.186 48.622C275.9 48.622 279.37 48.46 280.818 48.622C282.662 48.9448 284.424 49.6308 286.001 50.6402C287.578 51.6496 288.939 52.9623 290.004 54.502C292.148 58.1568 292.927 62.453 292.204 66.628C292.114 67.172 291.696 75.656 289.632 79.122C286.442 84.476 274.464 84.646 271.632 85.002H265.016C264.65 85.002 263.18 85.002 263.546 85.736H263.914C269.414 86.241 274.95 86.241 280.45 85.736C284.126 85.368 287.8 84.634 290.004 81.694C292.204 79.122 292.526 75.808 292.944 72.508C293.351 69.9533 293.597 67.3756 293.68 64.79C293.864 62.4663 293.864 60.1317 293.68 57.808C293.203 55.7853 292.3 53.8873 291.033 52.2401C289.766 50.5929 288.163 49.2341 286.33 48.254C284.574 47.374 278.76 46.786 266.494 46.786Z" fill="#191919"/>
<path d="M328.964 162.908C337.026 163.673 345.136 163.795 353.218 163.274C356.22 163.291 359.203 162.794 362.038 161.804C363.523 161.194 364.873 160.295 366.008 159.16C367.143 158.025 368.042 156.675 368.652 155.19C369.246 153.29 369.495 151.298 369.386 149.31C369.386 144.888 369.49 144.11 369.02 142.696C369.02 142.328 368.284 142.328 368.284 142.696C367.784 144.363 367.658 146.119 367.916 147.84C367.874 149.699 367.628 151.547 367.182 153.352C366.828 154.802 366.147 156.151 365.192 157.298C364.236 158.444 363.032 159.358 361.67 159.968C358.926 160.812 356.086 161.306 353.218 161.438C350.278 161.438 346.97 161.804 344.032 161.804C339.254 161.804 334.11 161.804 329.332 162.172C328.6 162.54 328.6 162.908 328.964 162.908Z" fill="#191919"/>
<path d="M243.344 240.076C257.016 240.374 295.458 241.304 303.976 240.444C308.016 240.044 312.106 239.776 315.376 237.504C319.478 234.648 320.154 230.154 320.154 225.744C321.044 211.49 321.22 201.396 306.924 200.39C299.584 199.872 292.226 200.39 284.508 200.39C265.056 200.39 266.308 200.756 262.828 200.756C262.682 200.756 262.541 200.814 262.438 200.918C262.334 201.021 262.276 201.162 262.276 201.308C262.276 201.454 262.334 201.595 262.438 201.698C262.541 201.802 262.682 201.86 262.828 201.86C264.298 201.86 266.87 202.196 268.708 202.226C279.736 202.41 290.754 201.514 301.78 202.226C307.658 202.606 315.446 202.572 317.58 209.576C319.478 215.804 319.042 224.274 317.946 230.522C316.466 238.972 303.614 238.538 297 238.606C279 238.79 261.356 238.238 243.35 238.974C242.976 239.342 242.976 240.068 243.344 240.076Z" fill="#191919"/>
<path d="M377.47 210.31C369.312 209.496 324.47 210.164 323.452 210.678C322.718 211.046 323.82 232.726 324.556 232.726C333.756 232.068 377.956 231.69 381.514 230.89C385.948 229.89 388.494 225.01 388.494 220.6C388.862 214.72 382.984 211.046 377.47 210.31Z" fill="#38A1FF"/>
<path d="M224.97 133.878C214.716 132.835 204.404 132.466 194.102 132.774C188.958 132.774 183.814 132.774 178.67 133.142C176.092 133.081 173.513 133.204 170.952 133.51C168.496 133.433 166.038 133.555 163.602 133.876C161.558 134.344 159.67 135.336 158.124 136.753C156.578 138.171 155.427 139.966 154.784 141.962C153.314 145.636 155.162 149.666 158.09 152.25C161.403 154.92 165.606 156.234 169.85 155.926C188.554 155.926 200.776 156.052 219.826 154.822C220.56 154.822 220.56 153.352 219.826 153.72C205.265 154.583 190.67 154.705 176.096 154.088C172.054 154.088 167.296 154.4 163.236 152.986C159.944 151.838 156.254 148.586 156.254 144.534C156.424 142.63 157.195 140.829 158.454 139.39C159.62 137.536 161.469 136.216 163.6 135.714C168.072 134.97 172.7 135.726 177.932 134.98C186.982 134.98 171.108 134.612 225.332 134.612C225.338 134.412 225.338 134.244 224.97 133.878Z" fill="#191919"/>
<path d="M384.086 57.444C380.43 55.2 376 55.6 371.6 55.6C300.168 55.6 296.636 55.878 296.636 57.438C296.635 63.8233 296.266 70.2031 295.532 76.546C295.391 76.6365 295.283 76.7689 295.221 76.9244C295.16 77.0799 295.148 77.2507 295.189 77.4129C295.23 77.5752 295.32 77.7206 295.448 77.8288C295.575 77.9369 295.733 78.0024 295.9 78.016C316.518 79.194 342.466 78.094 374.54 77.648C377.846 77.602 381.522 77.648 384.46 75.448C391.706 71.42 392.108 62.356 384.086 57.444Z" fill="#38A1FF"/>
<path d="M386.29 137.184C382.984 133.878 370.856 133.142 370.856 134.612C370.856 140.492 370.856 154.088 371.592 154.822C372.572 155.45 373.744 155.711 374.898 155.558C377.249 155.661 379.602 155.413 381.88 154.822C383.725 154.315 385.406 153.337 386.759 151.984C388.112 150.632 389.09 148.951 389.598 147.106C389.815 145.31 389.632 143.489 389.06 141.773C388.487 140.057 387.542 138.49 386.29 137.184Z" fill="#38A1FF"/>
<path d="M367.916 130.938C361.916 121.938 349.44 123.956 341.092 123.956C336.314 123.956 331.17 123.956 326.392 123.588C295.852 123.588 281.392 122.016 275.314 125.058C274.044 125.487 272.871 126.162 271.862 127.045C270.853 127.927 270.028 129 269.434 130.202C268.883 131.229 268.499 132.337 268.294 133.484C263.262 133.474 260.762 133.362 260.248 133.884V134.986C260.752 135.445 261.405 135.706 262.086 135.72C265.674 135.72 267.204 135.828 268.002 135.84C267.878 137.728 267.964 139.612 267.964 141.24C267.674 145.8 268.029 150.379 269.02 154.84C262.802 154.84 262.3 154.732 261.35 155.208L261.4 156.678C261.6 156.878 260.476 156.678 269.702 156.678C270.228 157.921 270.994 159.048 271.958 159.994C272.921 160.94 274.061 161.687 275.314 162.19C279.282 163.512 281.82 163.292 298.832 163.292C313.32 163.292 322.832 162.892 324.922 162.926C325.068 162.926 325.209 162.868 325.312 162.764C325.416 162.661 325.474 162.52 325.474 162.374C325.474 162.228 325.416 162.087 325.312 161.984C325.209 161.88 325.068 161.822 324.922 161.822C322.722 161.822 320.146 161.456 317.94 161.456H295.158C288.91 161.456 280.458 162.926 274.946 159.986C273.4 159.023 272.14 157.662 271.3 156.046C270.46 154.43 270.069 152.617 270.17 150.798C269.802 145.286 269.068 137.938 270.536 132.424C271.045 130.989 271.935 129.719 273.11 128.75C278.064 123.796 288.778 125.076 349.91 125.076C354.688 125.076 359.464 125.076 363.14 127.648C364.896 128.846 366.277 130.518 367.122 132.469C367.968 134.42 368.243 136.571 367.916 138.672C368.284 139.04 368.284 139.04 368.652 138.672C369.178 137.422 369.387 136.062 369.258 134.712C369.13 133.363 368.669 132.066 367.916 130.938Z" fill="#191919"/>
<path d="M288.544 136.45C285.544 145.424 289.278 154.16 289.278 150.78C289.728 149.43 290.166 133.2 288.544 136.45Z" fill="#191919"/>
<path d="M302.506 135.346C301.808 137.792 302.14 139.41 302.14 147.474C302.14 149.734 302.308 150.78 303.976 150.78C305.006 150.094 304.712 149.534 304.712 143.432C304.712 131.57 302.066 135.346 302.506 135.346Z" fill="#191919"/>
<path d="M319.41 150.78C320.058 149.81 319.24 130.544 316.838 135.346C317.038 135.346 316.2 154 319.41 150.78Z" fill="#191919"/>
<path d="M331.17 135.714C330.766 139.743 330.643 143.794 330.802 147.84C330.802 148.944 330.802 150.78 331.538 151.516C331.904 151.884 332.538 151.868 332.64 151.516C332.961 150.194 333.084 148.832 333.006 147.474C333.16 143.417 332.914 139.355 332.272 135.346C332.272 134.98 331.17 134.98 331.17 135.714Z" fill="#191919"/>
<path d="M346.97 136.082C346.97 136.282 345.804 149.282 348.074 151.148C350.746 153.338 349.452 141.2 349.208 139.698C348.166 133.274 347 135.282 346.97 136.082Z" fill="#191919"/>
<path d="M211.374 59.648C210.028 63.688 211.118 63.614 210.272 66.998C210.272 69.198 209.904 72.142 211.006 73.98C211.374 74.714 212.11 74.346 212.11 73.98C212.572 72.592 212.476 71.98 212.476 63.322C212.476 62.22 212.11 61.122 212.11 59.648C212.476 59.28 211.742 58.912 211.374 59.648Z" fill="#191919"/>
<path d="M225.338 58.546C224.574 62.5398 224.327 66.6153 224.604 70.672C224.604 71.774 224.604 73.612 225.706 73.98H226.44C227.542 73.244 227.176 71.78 227.176 70.672C227.445 66.6152 227.198 62.5405 226.44 58.546C226.072 58.178 225.338 57.81 225.338 58.546Z" fill="#191919"/>
<path d="M254 58.9119C253.597 62.9412 253.475 66.9937 253.634 71.0399C253.634 72.1419 253.634 73.9799 254.368 74.7139C254.736 75.0819 255.444 75.1139 255.552 74.7559C255.845 73.4157 255.941 72.0399 255.838 70.6719C255.992 66.6156 255.746 62.554 255.104 58.5459C255.104 58.1779 254 58.1779 254 58.9119Z" fill="#191919"/>
<path d="M269.8 59.28C269.8 59.48 268.516 77.836 272 74.346C273.232 72.502 271.532 61.364 270.898 58.912C270.73 58.24 269.8 58.546 269.8 59.28Z" fill="#191919"/>
<path d="M271.64 212.884C271.352 214.9 271.518 227.256 273.11 228.318C273.174 228.403 273.258 228.473 273.353 228.52C273.449 228.568 273.554 228.593 273.661 228.593C273.768 228.593 273.873 228.568 273.969 228.52C274.064 228.473 274.148 228.403 274.212 228.318C275.378 226.568 273.468 214.14 273.11 212.884C273.11 212.148 272 212.148 271.64 212.884Z" fill="#191919"/>
<path d="M285.97 213.618C285.567 217.647 285.444 221.698 285.604 225.744C285.604 226.848 285.604 228.684 286.338 229.42C286.706 229.786 287.44 229.786 287.44 229.42C288.176 228.318 287.808 226.848 287.808 225.378C287.962 221.321 287.716 217.259 287.074 213.25C287.074 212.516 285.97 212.884 285.97 213.618Z" fill="#191919"/>
<path d="M304.344 224.642C304.238 220.802 303.745 216.983 302.874 213.242C302.642 212.49 301.96 212.81 301.772 213.61C301.48 214.937 301.357 216.295 301.404 217.652C301.404 221.562 301.156 223.782 301.404 225.252C301.414 225.891 301.55 226.522 301.804 227.109C302.058 227.696 302.425 228.227 302.884 228.672C302.948 228.758 303.031 228.827 303.127 228.875C303.222 228.923 303.328 228.948 303.435 228.948C303.542 228.948 303.647 228.923 303.743 228.875C303.839 228.827 303.922 228.758 303.986 228.672C304.712 227.582 304.344 226.112 304.344 224.642Z" fill="#191919"/>
<path d="M258.41 218.028C258.41 219.866 258.042 221.702 258.042 223.54V227.582C258.042 228.318 258.778 228.684 259.512 228.684C262.15 228.684 260.124 222.162 259.512 218.396C259.326 217.248 258.41 217.66 258.41 218.028Z" fill="#191919"/>
<path d="M190.8 56.708C189.232 56.3664 187.624 56.2426 186.022 56.34C178.3 56.524 170.222 55.606 162.504 56.708C159.959 57.1835 157.638 58.4729 155.89 60.382C154.385 62.3291 153.568 64.7208 153.568 67.182C153.568 69.6432 154.385 72.0348 155.89 73.982C160.434 79.848 170.39 77.656 180.878 77.656C183.815 77.472 186.761 77.472 189.698 77.656C189.925 77.6322 190.136 77.5252 190.288 77.3555C190.441 77.1857 190.526 76.9654 190.526 76.737C190.526 76.5085 190.441 76.2882 190.288 76.1185C190.136 75.9487 189.925 75.8417 189.698 75.818C187.496 75.647 185.284 75.647 183.082 75.818C180.514 76.218 177.57 76.186 174.998 76.554C167.24 76.554 163.182 76.944 159.932 75.084C157.97 73.8345 156.568 71.8738 156.02 69.6131C155.471 67.3524 155.82 64.9673 156.992 62.958C159.192 59.282 163.606 58.548 167.65 58.548C173.896 58.18 180.144 58.914 186.39 58.548C187.991 58.6086 189.595 58.4851 191.168 58.18C191.164 57.444 191.164 57.076 190.8 56.708Z" fill="#191919"/>
<path d="M240.562 58.824C240.478 59.3396 240.425 59.8599 240.404 60.382C240.404 63.75 240.288 64.308 240.772 64.792C241.448 65.468 242.242 63.792 242.242 63.322C242.372 61.8301 242.291 60.3274 242.002 58.858C241.87 58.416 240.66 58.276 240.562 58.824Z" fill="#191919"/>
<path d="M114.73 164.378C115.1 164.92 115.592 165.368 116.166 165.687C116.74 166.006 117.38 166.186 118.036 166.214C119.874 166.214 120.236 167.316 119.138 168.052C118.306 168.47 117.345 168.55 116.455 168.276C115.565 168.002 114.815 167.395 114.362 166.582C113.094 164.6 113.26 162.908 114.73 164.378Z" fill="#191919"/>
<path d="M110.32 141.6C109.739 141.524 109.149 141.623 108.625 141.885C108.101 142.147 107.667 142.559 107.38 143.07C106.278 144.54 105.358 144.206 105.542 142.702C105.594 141.777 106.009 140.91 106.698 140.291C107.387 139.671 108.293 139.35 109.218 139.396C111.8 139.39 112.156 141.226 110.32 141.6Z" fill="#191919"/>
<path d="M111.79 148.944C113.414 148.944 114.73 148.121 114.73 147.106C114.73 146.091 113.414 145.268 111.79 145.268C110.166 145.268 108.85 146.091 108.85 147.106C108.85 148.121 110.166 148.944 111.79 148.944Z" fill="#191919"/>
</svg>
