<svg width="400" height="400" viewBox="0 0 400 400" fill="none" xmlns="http://www.w3.org/2000/svg">
<path d="M308.6 136.354H113.49V128.646C113.491 126.389 114.387 124.225 115.983 122.629C117.579 121.033 119.743 120.137 122 120.136H306C305.686 121.665 305.528 123.221 305.528 124.782C305.528 124.848 305.528 124.906 305.528 124.97H144V131.454H306.352L306.508 131.41C307.022 133.13 307.724 134.788 308.6 136.354Z" fill="#55DEFF"/>
<path d="M219.638 262.732C220.884 262.732 222.104 263.1 223.142 263.794C224.178 264.486 224.986 265.47 225.464 266.622C225.942 267.774 226.066 269.042 225.822 270.266C225.58 271.488 224.98 272.612 224.098 273.494C223.216 274.376 222.092 274.976 220.87 275.218C219.646 275.462 218.378 275.338 217.226 274.86C216.074 274.382 215.09 273.574 214.398 272.538C213.704 271.5 213.336 270.28 213.336 269.034C213.336 267.362 214.002 265.76 215.182 264.578C216.364 263.398 217.966 262.732 219.638 262.732Z" fill="#FFE8BB"/>
<path d="M333.352 167.978V240.578C331.856 241.222 330.402 241.956 328.996 242.778L325.71 241.666L325.794 241.412V154.182L333.352 167.978Z" fill="#FFE8BB"/>
<path d="M333.352 153.056V167.978L325.794 154.178V150.758C328.238 151.753 330.768 152.522 333.352 153.056Z" fill="#313553"/>
<path d="M318.74 280.528H304.956L311.394 257.542H315.628C314.518 260.298 313.946 263.24 313.944 266.212C313.984 271.372 315.662 276.386 318.74 280.528Z" fill="#313553"/>
<path d="M311.4 257.542L304.962 280.528H117.412C114.367 280.528 111.447 279.318 109.294 277.166C107.142 275.012 105.932 272.092 105.932 269.048V214.222L113.49 204.568V249.032C113.491 251.288 114.387 253.454 115.983 255.048C117.579 256.644 119.743 257.542 122 257.542H311.4ZM225.954 269.034C225.954 267.786 225.586 266.568 224.892 265.53C224.2 264.494 223.216 263.684 222.064 263.206C220.912 262.73 219.644 262.604 218.42 262.846C217.198 263.09 216.074 263.69 215.192 264.57C214.308 265.452 213.708 266.576 213.464 267.798C213.22 269.022 213.344 270.29 213.82 271.442C214.298 272.594 215.104 273.58 216.142 274.274C217.178 274.966 218.396 275.338 219.644 275.338C221.316 275.338 222.918 274.674 224.102 273.492C225.284 272.308 225.948 270.706 225.948 269.034H225.954Z" fill="#FFE8BB"/>
<path d="M308.684 157.696C309.128 157.685 309.57 157.763 309.984 157.926C310.396 158.088 310.774 158.332 311.092 158.642C311.41 158.952 311.662 159.323 311.834 159.732C312.006 160.141 312.096 160.581 312.096 161.025C312.096 161.469 312.006 161.909 311.834 162.318C311.662 162.728 311.41 163.098 311.092 163.408C310.774 163.719 310.396 163.962 309.984 164.124C309.57 164.287 309.128 164.365 308.684 164.354H231.94C231.282 164.355 230.636 164.161 230.088 163.795C229.54 163.43 229.114 162.91 228.86 162.301C228.608 161.692 228.544 161.023 228.672 160.376C228.802 159.73 229.12 159.137 229.586 158.672C229.894 158.361 230.26 158.115 230.664 157.947C231.068 157.78 231.502 157.694 231.94 157.696H308.684Z" fill="#55DEFF"/>
<path d="M308.684 171.932C309.568 171.932 310.414 172.283 311.038 172.907C311.664 173.532 312.014 174.379 312.014 175.262C312.014 176.145 311.664 176.992 311.038 177.617C310.414 178.241 309.568 178.592 308.684 178.592H193.112C192.228 178.591 191.382 178.239 190.757 177.614C190.132 176.989 189.781 176.142 189.78 175.258C189.784 174.376 190.136 173.531 190.76 172.908C191.385 172.285 192.23 171.934 193.112 171.932H308.684Z" fill="#313553"/>
<path d="M308.684 186.17C309.128 186.159 309.57 186.237 309.984 186.4C310.396 186.562 310.774 186.805 311.092 187.116C311.41 187.426 311.662 187.796 311.834 188.206C312.006 188.615 312.096 189.055 312.096 189.499C312.096 189.943 312.006 190.383 311.834 190.792C311.662 191.201 311.41 191.572 311.092 191.882C310.774 192.192 310.396 192.436 309.984 192.598C309.57 192.761 309.128 192.839 308.684 192.828H270.768C269.884 192.827 269.038 192.476 268.412 191.851C267.788 191.227 267.436 190.379 267.436 189.496C267.438 188.613 267.79 187.767 268.414 187.144C269.038 186.52 269.886 186.17 270.768 186.17H308.684Z" fill="#55DEFF"/>
<path d="M308.684 200.4C309.568 200.4 310.414 200.75 311.038 201.376C311.664 202 312.014 202.846 312.014 203.73C312.014 204.614 311.664 205.46 311.038 206.084C310.414 206.71 309.568 207.06 308.684 207.06H186.642C185.758 207.058 184.911 206.708 184.286 206.082C183.661 205.458 183.309 204.61 183.308 203.726C183.312 202.844 183.664 201.998 184.289 201.376C184.914 200.752 185.76 200.402 186.642 200.4H308.684Z" fill="#313553"/>
<path d="M308.684 214.644C309.552 214.666 310.378 215.026 310.986 215.648C311.592 216.27 311.932 217.104 311.932 217.974C311.932 218.842 311.592 219.676 310.986 220.298C310.378 220.92 309.552 221.28 308.684 221.302H244.884C244 221.302 243.152 220.95 242.528 220.326C241.902 219.7 241.552 218.854 241.55 217.97C241.552 217.088 241.906 216.242 242.53 215.618C243.154 214.994 244.002 214.644 244.884 214.644H308.684Z" fill="#55DEFF"/>
<path d="M308.684 228.88C309.128 228.87 309.57 228.948 309.984 229.11C310.396 229.272 310.774 229.516 311.092 229.826C311.41 230.136 311.662 230.506 311.834 230.916C312.006 231.326 312.096 231.764 312.096 232.21C312.096 232.654 312.006 233.092 311.834 233.502C311.662 233.912 311.41 234.282 311.092 234.592C310.774 234.902 310.396 235.146 309.984 235.308C309.57 235.47 309.128 235.548 308.684 235.538H290.182C289.298 235.538 288.452 235.186 287.826 234.562C287.202 233.936 286.85 233.09 286.85 232.206C286.852 231.324 287.204 230.478 287.83 229.854C288.454 229.232 289.3 228.882 290.182 228.88H308.684Z" fill="#313553"/>
<path d="M308.684 243.116C309.568 243.116 310.414 243.466 311.038 244.092C311.664 244.716 312.014 245.562 312.014 246.446C312.014 247.33 311.664 248.176 311.038 248.8C310.414 249.426 309.568 249.776 308.684 249.776H206.056C205.172 249.774 204.324 249.424 203.7 248.798C203.074 248.174 202.724 247.326 202.722 246.442C202.726 245.56 203.078 244.714 203.704 244.092C204.328 243.468 205.174 243.118 206.056 243.116H308.684Z" fill="#55DEFF"/>
<path d="M308.942 143.484L305.714 150.118H206.056C205.172 150.118 204.326 149.767 203.702 149.143C203.076 148.518 202.726 147.671 202.726 146.788C202.726 145.905 203.076 145.058 203.702 144.433C204.326 143.809 205.172 143.458 206.056 143.458H308.684C308.774 143.458 308.852 143.478 308.942 143.484Z" fill="#313553"/>
<path d="M117.412 114.622H307.856C307.016 116.378 306.394 118.23 306 120.136H122C119.743 120.137 117.579 121.033 115.983 122.629C114.387 124.225 113.491 126.389 113.49 128.646V155.812C111.145 154.075 108.609 152.611 105.932 151.45V126.102C105.932 124.594 106.229 123.102 106.806 121.709C107.383 120.316 108.228 119.05 109.294 117.984C110.36 116.918 111.626 116.073 113.019 115.496C114.412 114.919 115.904 114.622 117.412 114.622Z" fill="#FFE8BB"/>
<path d="M306.51 131.41L306.354 131.454H144V124.97H305.536C305.548 127.152 305.876 129.322 306.51 131.41Z" fill="#313553"/>
<path d="M271.8 228.88C272.668 228.902 273.494 229.262 274.102 229.884C274.708 230.506 275.048 231.34 275.048 232.208C275.048 233.078 274.708 233.912 274.102 234.534C273.494 235.156 272.668 235.516 271.8 235.538H143.284C142.4 235.538 141.553 235.186 140.929 234.562C140.304 233.936 139.953 233.09 139.952 232.206C139.955 231.324 140.307 230.478 140.931 229.854C141.556 229.232 142.402 228.882 143.284 228.88H271.8Z" fill="#55DEFF"/>
<path d="M252.384 186.17C253.252 186.191 254.078 186.551 254.686 187.173C255.292 187.795 255.632 188.63 255.632 189.499C255.632 190.368 255.292 191.203 254.686 191.825C254.078 192.447 253.252 192.807 252.384 192.828H143.284C142.4 192.828 141.553 192.476 140.929 191.852C140.304 191.227 139.953 190.38 139.952 189.496C139.954 188.613 140.305 187.767 140.93 187.144C141.555 186.52 142.401 186.17 143.284 186.17H252.384Z" fill="#313553"/>
<path d="M244.43 297.036L247.162 309.078H243.304H197.63H192.122L198.594 280.528L244.43 297.036Z" fill="#FFE8BB"/>
<path d="M240.69 280.528L244.43 297.036L198.594 280.528H240.69Z" fill="#313553"/>
<path d="M226.498 214.644C227.366 214.666 228.192 215.026 228.8 215.648C229.406 216.27 229.746 217.104 229.746 217.974C229.746 218.842 229.406 219.676 228.8 220.298C228.192 220.92 227.366 221.28 226.498 221.302H143.284C142.4 221.302 141.553 220.95 140.929 220.326C140.304 219.7 139.953 218.854 139.952 217.97C139.954 217.088 140.305 216.242 140.93 215.618C141.555 214.994 142.401 214.644 143.284 214.644H226.498Z" fill="#313553"/>
<path d="M213.556 157.696C214 157.685 214.442 157.763 214.856 157.926C215.268 158.088 215.646 158.332 215.964 158.642C216.282 158.952 216.534 159.323 216.706 159.732C216.878 160.141 216.968 160.581 216.968 161.025C216.968 161.469 216.878 161.909 216.706 162.318C216.534 162.728 216.282 163.098 215.964 163.408C215.646 163.719 215.268 163.962 214.856 164.124C214.442 164.287 214 164.365 213.556 164.354H143.284C142.84 164.365 142.398 164.287 141.985 164.124C141.571 163.962 141.195 163.719 140.877 163.408C140.559 163.098 140.306 162.728 140.134 162.318C139.961 161.909 139.872 161.469 139.872 161.025C139.872 160.581 139.961 160.141 140.134 159.732C140.306 159.323 140.559 158.952 140.877 158.642C141.195 158.332 141.571 158.088 141.985 157.926C142.398 157.763 142.84 157.685 143.284 157.696H213.556Z" fill="#313553"/>
<path d="M187.67 143.458C188.553 143.458 189.4 143.809 190.025 144.433C190.649 145.058 191 145.905 191 146.788C191 147.671 190.649 148.518 190.025 149.143C189.4 149.767 188.553 150.118 187.67 150.118H143.284C142.4 150.117 141.553 149.766 140.929 149.142C140.304 148.517 139.953 147.67 139.952 146.786C139.954 145.903 140.306 145.057 140.931 144.434C141.555 143.81 142.401 143.459 143.284 143.458H187.67Z" fill="#55DEFF"/>
<path d="M187.67 243.116C188.553 243.116 189.4 243.466 190.025 244.092C190.649 244.716 191 245.562 191 246.446C191 247.33 190.649 248.176 190.025 248.8C189.4 249.426 188.553 249.776 187.67 249.776H143.284C142.4 249.774 141.553 249.424 140.928 248.798C140.304 248.174 139.953 247.326 139.952 246.442C139.955 245.56 140.307 244.714 140.931 244.09C141.556 243.468 142.402 243.118 143.284 243.116H187.67Z" fill="#313553"/>
<path d="M174.728 171.932C175.611 171.932 176.458 172.283 177.083 172.907C177.707 173.532 178.058 174.379 178.058 175.262C178.058 176.145 177.707 176.992 177.083 177.617C176.458 178.241 175.611 178.592 174.728 178.592H143.284C142.4 178.591 141.553 178.239 140.928 177.614C140.304 176.989 139.953 176.142 139.952 175.258C139.955 174.376 140.307 173.53 140.931 172.907C141.556 172.284 142.402 171.933 143.284 171.932H174.728Z" fill="#55DEFF"/>
<path d="M168.256 200.4C169.139 200.4 169.986 200.75 170.611 201.376C171.235 202 171.586 202.846 171.586 203.73C171.586 204.614 171.235 205.46 170.611 206.084C169.986 206.71 169.139 207.06 168.256 207.06H143.284C142.4 207.058 141.553 206.708 140.928 206.082C140.304 205.458 139.953 204.61 139.952 203.726C139.955 202.844 140.307 201.998 140.931 201.376C141.556 200.752 142.402 200.402 143.284 200.4H168.256Z" fill="#55DEFF"/>
<path d="M124.764 172.956C125.203 173.12 125.586 173.405 125.868 173.779C126.15 174.153 126.319 174.6 126.355 175.067C126.392 175.534 126.294 176.002 126.074 176.415C125.854 176.828 125.52 177.17 125.112 177.4C125.112 177.264 125.112 177.122 125.112 176.98C125.112 176.65 125.112 176.32 125.086 175.99V175.912C125.043 174.921 124.936 173.933 124.764 172.956Z" fill="#313553"/>
<path d="M123.884 144.306C124.375 144.304 124.855 144.448 125.264 144.72C125.673 144.992 125.992 145.378 126.181 145.831C126.37 146.284 126.42 146.783 126.325 147.265C126.231 147.746 125.995 148.189 125.648 148.537C125.302 148.884 124.86 149.121 124.379 149.218C123.897 149.314 123.398 149.265 122.945 149.078C122.491 148.89 122.103 148.573 121.831 148.165C121.558 147.757 121.412 147.277 121.412 146.786C121.412 146.13 121.672 145.5 122.136 145.035C122.599 144.57 123.228 144.308 123.884 144.306Z" fill="#313553"/>
<path d="M123.884 158.544C124.374 158.543 124.854 158.687 125.262 158.959C125.671 159.23 125.989 159.617 126.178 160.069C126.366 160.522 126.416 161.021 126.321 161.502C126.226 161.983 125.991 162.425 125.644 162.772C125.298 163.119 124.856 163.356 124.376 163.452C123.895 163.548 123.396 163.499 122.943 163.312C122.49 163.125 122.103 162.807 121.83 162.399C121.557 161.992 121.412 161.512 121.412 161.022C121.412 160.366 121.672 159.736 122.136 159.272C122.599 158.807 123.228 158.546 123.884 158.544Z" fill="#313553"/>
<path d="M123.884 187.018C124.541 187.018 125.171 187.279 125.636 187.744C126.101 188.208 126.362 188.839 126.362 189.496C126.362 190.153 126.101 190.783 125.636 191.248C125.171 191.713 124.541 191.974 123.884 191.974C123.356 191.962 122.845 191.783 122.424 191.463C122.003 191.144 121.694 190.7 121.54 190.194L121.2 189.98C121.784 189.073 122.309 188.129 122.772 187.154L122.882 187.204C123.088 187 123.714 187.018 123.884 187.018Z" fill="#313553"/>
<path d="M123.884 215.49C124.375 215.488 124.855 215.632 125.264 215.904C125.673 216.176 125.992 216.562 126.181 217.016C126.37 217.468 126.42 217.968 126.325 218.448C126.231 218.93 125.995 219.374 125.648 219.72C125.302 220.068 124.86 220.306 124.379 220.402C123.897 220.498 123.398 220.45 122.945 220.262C122.491 220.074 122.103 219.756 121.831 219.348C121.558 218.94 121.412 218.46 121.412 217.97C121.412 217.314 121.672 216.684 122.136 216.22C122.599 215.754 123.228 215.492 123.884 215.49Z" fill="#313553"/>
<path d="M123.884 229.728C124.374 229.726 124.854 229.872 125.262 230.142C125.671 230.414 125.989 230.8 126.178 231.254C126.366 231.706 126.416 232.204 126.321 232.686C126.226 233.166 125.991 233.608 125.644 233.956C125.298 234.304 124.856 234.54 124.376 234.636C123.895 234.732 123.396 234.684 122.943 234.496C122.49 234.308 122.103 233.99 121.83 233.584C121.557 233.176 121.412 232.696 121.412 232.206C121.412 231.55 121.672 230.92 122.136 230.456C122.599 229.992 123.228 229.73 123.884 229.728Z" fill="#313553"/>
<path d="M123.884 243.964C124.375 243.962 124.855 244.106 125.264 244.378C125.673 244.65 125.992 245.036 126.181 245.49C126.37 245.942 126.42 246.442 126.325 246.924C126.23 247.406 125.994 247.848 125.648 248.196C125.301 248.544 124.859 248.78 124.378 248.876C123.896 248.972 123.397 248.924 122.943 248.736C122.49 248.548 122.102 248.23 121.83 247.822C121.557 247.412 121.412 246.932 121.412 246.442C121.412 245.786 121.672 245.156 122.136 244.692C122.599 244.228 123.228 243.966 123.884 243.964Z" fill="#313553"/>
<path d="M110.066 200.412L113.666 202.114L113.484 202.502V204.568L105.926 214.222V202.502C107.348 201.89 108.73 201.192 110.066 200.412Z" fill="#313553"/>
<path d="M97.746 205.162L97.816 205.48C94.472 213.064 90.216 220.59 85.23 224.778C83.6112 226.136 82.054 227.512 80.558 228.906C79.994 220.636 79.386 212.268 78.804 205.48C81.6718 206.002 84.581 206.264 87.496 206.262C90.9424 206.268 94.3792 205.898 97.746 205.162Z" fill="#313553"/>
<path d="M74.2999 243.072C75.5301 240.19 77.4269 237.642 79.8339 235.636C80.2019 235.352 80.5699 235.066 80.9459 234.794C86.8843 230.618 93.3551 227.254 100.186 224.794C100.004 225.182 93.0539 239.904 86.3859 245.528C84.8399 246.828 83.2919 247.994 81.8299 249.128C80.3461 250.256 78.9427 251.486 77.6299 252.81C76.1805 254.236 75.0341 255.942 74.2593 257.822C73.4843 259.702 73.0967 261.72 73.1199 263.754V264.084H70.2679V263.754C70.3041 260.266 70.6293 256.788 71.2399 253.354C71.8217 249.812 72.8499 246.356 74.2999 243.072Z" fill="#55DEFF"/>
<path d="M82.538 263.754V264.084H79.07C78.9014 260.292 78.4162 256.522 77.62 252.81C78.933 251.486 80.3364 250.256 81.82 249.128C82.266 256.636 82.538 262.252 82.538 263.754Z" fill="#313553"/>
<path d="M80.946 234.788C80.57 235.066 80.202 235.352 79.834 235.636C77.427 237.642 75.5304 240.19 74.3 243.072C73.53 241.872 72.578 240.542 71.478 239.06C68.922 235.604 65.61 231.398 62.212 226.724C58.1202 221.244 54.4676 215.45 51.288 209.394C51.288 209.394 51.268 209.362 51.236 209.304C50.758 208.352 50.304 207.408 49.872 206.45C35.718 175.232 44.888 144.106 44.888 144.106C49.7404 148.532 54.293 153.276 58.516 158.306C55.8632 160.653 53.7254 163.524 52.2378 166.739C50.75 169.953 49.9444 173.441 49.872 176.982C49.872 190.824 62.212 202.428 78.804 205.482C79.386 212.27 79.994 220.638 80.558 228.908C80.688 230.88 80.824 232.846 80.946 234.788Z" fill="#55DEFF"/>
<path d="M69.848 241.518C69.848 241.518 70.91 247.84 71.248 253.348C70.6374 256.782 70.3122 260.26 70.276 263.748V264.078H67.434V263.748C68.434 257.056 67.408 249.524 67.434 245.964C68.1546 244.438 68.9606 242.954 69.848 241.518Z" fill="#313553"/>
<path d="M71.478 239.06C70.91 239.86 70.366 240.684 69.848 241.518C68.9606 242.954 68.1548 244.438 67.434 245.964C64.811 251.634 63.432 257.8 63.39 264.046V264.078H62.25C62.181 257.134 61.464 250.212 60.108 243.4C60.762 239.976 61.108 236.094 61.526 232.132C61.714 230.346 61.914 228.542 62.16 226.762L62.212 226.722C65.61 231.4 68.922 235.6 71.478 239.06Z" fill="#55DEFF"/>
<path d="M62.25 264.084H57.21C56.88 246.934 45.284 241.518 33.674 231.734C21.674 221.632 9.18604 194.964 9.18604 194.964C21.6686 199.46 33.4646 205.672 44.234 213.42C44.5696 213.704 44.9194 213.972 45.282 214.22C53.682 220.808 57.96 232.716 60.108 243.4C61.4644 250.212 62.1814 257.138 62.25 264.084Z" fill="#55DEFF"/>
<path d="M62.212 226.724L62.16 226.764C61.914 228.544 61.714 230.348 61.526 232.134C60.374 224.492 54.252 220.428 45.284 214.222C44.934 213.95 44.59 213.678 44.234 213.422C36.1 206.602 33.558 189.964 33.558 189.964C42.87 195.438 50.538 208.128 51.236 209.306C51.268 209.364 51.288 209.396 51.288 209.396C54.4676 215.45 58.1202 221.244 62.212 226.724Z" fill="#313553"/>
<path d="M105.932 202.502C107.352 201.89 108.732 201.192 110.066 200.412L113.666 202.114L131.266 210.398L119.866 191.91C120.344 191.282 120.798 190.642 121.212 189.98C121.797 189.072 122.322 188.128 122.784 187.152C124.256 184.108 125.05 180.781 125.112 177.4C125.112 177.264 125.112 177.122 125.112 176.98C125.112 176.65 125.112 176.32 125.086 175.99" stroke="#313553" stroke-width="0.647" stroke-linecap="round" stroke-linejoin="round"/>
<path d="M125.094 175.912C125.049 174.921 124.938 173.933 124.764 172.956C123.34 166.009 119.305 159.872 113.49 155.812C111.145 154.075 108.609 152.611 105.932 151.45C100.112 148.939 93.8345 147.661 87.4959 147.698C76.8483 147.471 66.5043 151.255 58.5159 158.298C55.8631 160.645 53.7253 163.516 52.2375 166.731C50.7499 169.945 49.9443 173.433 49.8719 176.974C49.8719 190.816 62.2119 202.42 78.8039 205.474C81.6717 205.996 84.5809 206.258 87.4959 206.256C90.9423 206.262 94.3791 205.892 97.7459 205.156C100.555 204.542 103.296 203.654 105.932 202.504" stroke="#313553" stroke-width="0.647" stroke-linecap="round" stroke-linejoin="round"/>
<path d="M308.948 143.484L310.786 139.706C309.972 138.644 309.236 137.524 308.586 136.354C307.712 134.787 307.014 133.129 306.504 131.41C305.872 129.321 305.544 127.152 305.532 124.97C305.532 124.906 305.532 124.848 305.532 124.782C305.532 123.221 305.688 121.665 306 120.136C306.392 118.23 307.014 116.378 307.852 114.622C313.158 103.454 326.96 95.4938 343.152 95.4938C363.924 95.4938 380.77 108.604 380.77 124.782C380.77 140.96 363.924 154.066 343.152 154.066C339.858 154.071 336.574 153.731 333.352 153.05C330.768 152.52 328.238 151.753 325.794 150.758C324 150.036 322.262 149.183 320.594 148.208L302.994 155.716L305.726 150.116L308.96 143.482" stroke="#313553" stroke-width="0.647" stroke-linecap="round" stroke-linejoin="round"/>
<path d="M325.71 241.668L314.456 237.856L319.2 251.284C317.728 253.196 316.526 255.302 315.628 257.542C314.518 260.298 313.946 263.242 313.944 266.212C313.984 271.372 315.666 276.386 318.744 280.528C325.182 289.458 337.472 295.496 351.572 295.496C372.346 295.496 389.19 282.384 389.19 266.212C389.19 250.04 372.346 236.93 351.572 236.93C345.314 236.898 339.116 238.142 333.356 240.586C331.86 241.23 330.406 241.964 329 242.786L325.71 241.668Z" stroke="#313553" stroke-width="0.647" stroke-linecap="round" stroke-linejoin="round"/>
<path d="M105.932 151.45V126.102C105.932 123.057 107.142 120.137 109.294 117.984C111.447 115.832 114.367 114.622 117.412 114.622H307.856" stroke="#313553" stroke-width="0.647" stroke-linecap="round" stroke-linejoin="round"/>
<path d="M198.6 280.528H117.412C114.367 280.528 111.447 279.318 109.294 277.166C107.142 275.012 105.932 272.092 105.932 269.048V202.502" stroke="#313553" stroke-width="0.647" stroke-linecap="round" stroke-linejoin="round"/>
<path d="M318.74 280.528H304.956H240.69" stroke="#313553" stroke-width="0.647" stroke-linecap="round" stroke-linejoin="round"/>
<path d="M333.352 153.056V167.978V240.586" stroke="#313553" stroke-width="0.647" stroke-linecap="round" stroke-linejoin="round"/>
<path d="M113.49 155.82V128.646C113.491 126.389 114.387 124.225 115.983 122.629C117.579 121.033 119.743 120.137 122 120.136H306" stroke="#313553" stroke-width="0.647" stroke-linecap="round" stroke-linejoin="round"/>
<path d="M315.628 257.542H122C119.743 257.542 117.579 256.644 115.983 255.048C114.387 253.454 113.491 251.288 113.49 249.032V202.502" stroke="#313553" stroke-width="0.647" stroke-linecap="round" stroke-linejoin="round"/>
<path d="M325.794 150.766V154.182V241.414" stroke="#313553" stroke-width="0.647" stroke-linecap="round" stroke-linejoin="round"/>
<path d="M113.49 136.354H308.592" stroke="#313553" stroke-width="0.647" stroke-linecap="round" stroke-linejoin="round"/>
<path d="M306.354 131.454H144.002V124.97H305.48" stroke="#313553" stroke-width="0.647" stroke-linecap="round" stroke-linejoin="round"/>
<path d="M225.948 269.034C225.948 270.282 225.58 271.5 224.888 272.538C224.196 273.576 223.21 274.384 222.058 274.862C220.906 275.34 219.64 275.466 218.416 275.224C217.192 274.98 216.068 274.382 215.186 273.5C214.304 272.618 213.702 271.496 213.458 270.272C213.214 269.05 213.338 267.78 213.814 266.628C214.29 265.476 215.098 264.49 216.136 263.796C217.172 263.104 218.39 262.732 219.638 262.732C221.31 262.732 222.914 263.394 224.098 264.576C225.28 265.758 225.946 267.362 225.948 269.034Z" stroke="#313553" stroke-width="0.647" stroke-linecap="round" stroke-linejoin="round"/>
<path d="M192.122 309.078L198.594 280.528H240.69L244.43 297.036L247.162 309.078" stroke="#313553" stroke-width="0.647" stroke-linecap="round" stroke-linejoin="round"/>
<path d="M243.304 309.078H197.63" stroke="#313553" stroke-width="0.647" stroke-linecap="round" stroke-linejoin="round"/>
<path d="M198.594 280.528L244.43 297.036" stroke="#313553" stroke-width="0.647" stroke-linecap="round" stroke-linejoin="round"/>
<path d="M174.708 309.078H184.688" stroke="#313553" stroke-width="0.647" stroke-linecap="round" stroke-linejoin="round"/>
<path d="M187.652 309.078H192.122H197.63" stroke="#313553" stroke-width="0.647" stroke-linecap="round" stroke-linejoin="round"/>
<path d="M32.34 309.078H42.32" stroke="#313553" stroke-width="0.647" stroke-linecap="round" stroke-linejoin="round"/>
<path d="M81.302 309.078H107.032" stroke="#313553" stroke-width="0.647" stroke-linecap="round" stroke-linejoin="round"/>
<path d="M45.2839 309.078H58.7819" stroke="#313553" stroke-width="0.647" stroke-linecap="round" stroke-linejoin="round"/>
<path d="M243.304 309.078H247.162H253.282" stroke="#313553" stroke-width="0.647" stroke-linecap="round" stroke-linejoin="round"/>
<path d="M256.246 309.078H266.226" stroke="#313553" stroke-width="0.647" stroke-linecap="round" stroke-linejoin="round"/>
<path d="M131.506 132.206L138.126 128.388L131.506 124.562" stroke="#313553" stroke-width="0.647" stroke-linecap="round" stroke-linejoin="round"/>
<path d="M127.228 124.562L120.602 128.388L127.228 132.206" stroke="#313553" stroke-width="0.647" stroke-linecap="round" stroke-linejoin="round"/>
<path d="M325.794 154.182L333.352 167.978" stroke="#313553" stroke-width="0.647" stroke-linecap="round" stroke-linejoin="round"/>
<path d="M311.394 257.542L304.956 280.528" stroke="#313553" stroke-width="0.647" stroke-linecap="round" stroke-linejoin="round"/>
<path d="M113.49 204.568L105.932 214.222" stroke="#313553" stroke-width="0.647" stroke-linecap="round" stroke-linejoin="round"/>
<path d="M81.3019 309.078H58.7819C55.2021 309.078 51.7687 307.656 49.2375 305.124C46.7061 302.594 45.2839 299.16 45.2839 295.58V264.084H94.7999V295.58C94.7995 299.16 93.3771 302.592 90.8459 305.124C88.3147 307.656 84.8817 309.078 81.3019 309.078Z" stroke="#313553" stroke-width="0.647" stroke-linecap="round" stroke-linejoin="round"/>
<path d="M62.25 264.084C62.1814 257.138 61.4644 250.212 60.108 243.4C57.96 232.716 53.682 220.8 45.284 214.22C44.934 213.948 44.59 213.676 44.234 213.42C33.4646 205.672 21.6686 199.46 9.18604 194.964C9.18604 194.964 21.676 221.632 33.674 231.734C45.284 241.518 56.874 246.934 57.21 264.084" stroke="#313553" stroke-width="0.647" stroke-linecap="round" stroke-linejoin="round"/>
<path d="M67.434 245.97C64.811 251.64 63.432 257.806 63.39 264.052" stroke="#313553" stroke-width="0.647" stroke-linecap="round" stroke-linejoin="round"/>
<path d="M71.478 239.06C70.91 239.86 70.366 240.684 69.848 241.518C68.9606 242.954 68.1546 244.438 67.434 245.964" stroke="#313553" stroke-width="0.647" stroke-linecap="round" stroke-linejoin="round"/>
<path d="M97.816 205.48C94.472 213.064 90.216 220.59 85.23 224.778C83.6114 226.136 82.054 227.512 80.558 228.906" stroke="#313553" stroke-width="0.647" stroke-linecap="round" stroke-linejoin="round"/>
<path d="M60.108 243.4C60.762 239.976 61.108 236.094 61.526 232.132C61.714 230.346 61.914 228.542 62.16 226.762" stroke="#313553" stroke-width="0.647" stroke-linecap="round" stroke-linejoin="round"/>
<path d="M100.2 224.778C100.012 225.178 93.062 239.894 86.4 245.518C84.854 246.818 83.306 247.984 81.844 249.118C80.3604 250.246 78.957 251.476 77.644 252.8C76.1948 254.226 75.0484 255.932 74.2734 257.812C73.4984 259.692 73.111 261.71 73.134 263.744" stroke="#313553" stroke-width="0.647" stroke-linecap="round" stroke-linejoin="round"/>
<path d="M80.946 234.788C86.8844 230.612 93.3552 227.248 100.186 224.788" stroke="#313553" stroke-width="0.647" stroke-linecap="round" stroke-linejoin="round"/>
<path d="M70.2679 263.754C70.3041 260.266 70.6293 256.788 71.2399 253.354C71.8221 249.814 72.8503 246.36 74.2999 243.078C75.5301 240.196 77.4269 237.648 79.8339 235.642C80.2019 235.358 80.5699 235.072 80.9459 234.8" stroke="#313553" stroke-width="0.647" stroke-linecap="round" stroke-linejoin="round"/>
<path d="M77.62 252.81C78.4162 256.522 78.9014 260.292 79.07 264.084" stroke="#313553" stroke-width="0.647" stroke-linecap="round" stroke-linejoin="round"/>
<path d="M51.288 209.4C54.4676 215.456 58.1202 221.25 62.212 226.73C65.612 231.404 68.922 235.61 71.478 239.066C72.578 240.548 73.53 241.886 74.3 243.078" stroke="#313553" stroke-width="0.647" stroke-linecap="round" stroke-linejoin="round"/>
<path d="M58.516 158.304C54.293 153.274 49.7404 148.53 44.888 144.104C44.888 144.104 35.718 175.23 49.872 206.448C50.304 207.406 50.758 208.35 51.236 209.302" stroke="#313553" stroke-width="0.647" stroke-linecap="round" stroke-linejoin="round"/>
<path d="M80.946 234.8C80.824 232.852 80.688 230.886 80.558 228.912C79.994 220.642 79.386 212.274 78.804 205.486" stroke="#313553" stroke-width="0.647" stroke-linecap="round" stroke-linejoin="round"/>
<path d="M82.5379 263.754C82.5379 262.252 82.2659 256.636 81.8259 249.128" stroke="#313553" stroke-width="0.647" stroke-linecap="round" stroke-linejoin="round"/>
<path d="M51.288 209.4C51.288 209.4 51.268 209.368 51.236 209.31C50.538 208.132 42.87 195.442 33.558 189.968C33.558 189.968 36.1 206.606 44.234 213.426C44.5698 213.71 44.9204 213.978 45.284 214.226C54.252 220.426 60.374 224.496 61.526 232.138" stroke="#313553" stroke-width="0.647" stroke-linecap="round" stroke-linejoin="round"/>
<path d="M67.434 245.964C67.408 249.524 68.434 257.056 67.434 263.748" stroke="#313553" stroke-width="0.647" stroke-linecap="round" stroke-linejoin="round"/>
<path d="M69.848 241.518C69.848 241.518 70.91 247.84 71.248 253.348" stroke="#313553" stroke-width="0.647" stroke-linecap="round" stroke-linejoin="round"/>
<path d="M134.814 140.98V250.422" stroke="#313553" stroke-width="0.647" stroke-linecap="round" stroke-linejoin="round"/>
<path d="M187.67 150.118H143.284C142.4 150.117 141.553 149.766 140.929 149.142C140.304 148.517 139.953 147.67 139.952 146.786C139.954 145.903 140.306 145.057 140.931 144.434C141.555 143.81 142.401 143.459 143.284 143.458H187.67C188.553 143.458 189.4 143.809 190.025 144.433C190.649 145.058 191 145.905 191 146.788C191 147.671 190.649 148.518 190.025 149.143C189.4 149.767 188.553 150.118 187.67 150.118Z" stroke="#313553" stroke-width="0.647" stroke-linecap="round" stroke-linejoin="round"/>
<path d="M308.948 143.484C308.852 143.484 308.774 143.458 308.684 143.458H206.056C205.172 143.458 204.326 143.809 203.702 144.433C203.076 145.058 202.726 145.905 202.726 146.788C202.726 147.671 203.076 148.518 203.702 149.143C204.326 149.767 205.172 150.118 206.056 150.118H305.714L308.948 143.484Z" stroke="#313553" stroke-width="0.647" stroke-linecap="round" stroke-linejoin="round"/>
<path d="M126.362 146.786C126.361 147.275 126.215 147.754 125.943 148.16C125.67 148.567 125.284 148.884 124.831 149.07C124.379 149.257 123.881 149.306 123.401 149.21C122.921 149.114 122.48 148.878 122.135 148.532C121.789 148.186 121.553 147.745 121.458 147.265C121.362 146.785 121.411 146.287 121.598 145.835C121.786 145.383 122.103 144.996 122.509 144.724C122.916 144.452 123.395 144.306 123.884 144.306C124.21 144.305 124.532 144.369 124.833 144.494C125.134 144.618 125.408 144.801 125.638 145.031C125.868 145.262 126.051 145.535 126.175 145.836C126.299 146.137 126.363 146.46 126.362 146.786Z" stroke="#313553" stroke-width="0.647" stroke-linecap="round" stroke-linejoin="round"/>
<path d="M213.556 164.354H143.284C142.84 164.365 142.398 164.287 141.985 164.124C141.571 163.962 141.195 163.719 140.877 163.408C140.559 163.098 140.306 162.728 140.134 162.318C139.961 161.909 139.872 161.469 139.872 161.025C139.872 160.581 139.961 160.141 140.134 159.732C140.306 159.323 140.559 158.952 140.877 158.642C141.195 158.332 141.571 158.088 141.985 157.926C142.398 157.763 142.84 157.685 143.284 157.696H213.556C214 157.685 214.442 157.763 214.856 157.926C215.268 158.088 215.646 158.332 215.964 158.642C216.282 158.952 216.534 159.323 216.706 159.732C216.878 160.141 216.968 160.581 216.968 161.025C216.968 161.469 216.878 161.909 216.706 162.318C216.534 162.728 216.282 163.098 215.964 163.408C215.646 163.719 215.268 163.962 214.856 164.124C214.442 164.287 214 164.365 213.556 164.354Z" stroke="#313553" stroke-width="0.647" stroke-linecap="round" stroke-linejoin="round"/>
<path d="M308.684 164.354H231.94C231.282 164.355 230.636 164.161 230.088 163.795C229.54 163.43 229.114 162.91 228.86 162.301C228.608 161.692 228.544 161.023 228.672 160.376C228.802 159.73 229.12 159.137 229.586 158.672C229.894 158.361 230.26 158.115 230.664 157.947C231.068 157.78 231.502 157.694 231.94 157.696H308.684C309.128 157.685 309.57 157.763 309.984 157.926C310.396 158.088 310.774 158.332 311.092 158.642C311.41 158.952 311.662 159.323 311.834 159.732C312.006 160.141 312.096 160.581 312.096 161.025C312.096 161.469 312.006 161.909 311.834 162.318C311.662 162.728 311.41 163.098 311.092 163.408C310.774 163.719 310.396 163.962 309.984 164.124C309.57 164.287 309.128 164.365 308.684 164.354Z" stroke="#313553" stroke-width="0.647" stroke-linecap="round" stroke-linejoin="round"/>
<path d="M126.362 161.022C126.362 161.511 126.216 161.99 125.944 162.397C125.672 162.804 125.285 163.121 124.833 163.308C124.38 163.495 123.883 163.544 123.403 163.448C122.922 163.353 122.481 163.117 122.135 162.771C121.789 162.425 121.553 161.984 121.458 161.503C121.362 161.023 121.411 160.526 121.598 160.073C121.785 159.621 122.102 159.234 122.509 158.962C122.916 158.69 123.395 158.544 123.884 158.544C124.21 158.543 124.532 158.607 124.833 158.731C125.134 158.856 125.407 159.038 125.637 159.269C125.868 159.499 126.05 159.772 126.174 160.073C126.299 160.374 126.363 160.696 126.362 161.022Z" stroke="#313553" stroke-width="0.647" stroke-linecap="round" stroke-linejoin="round"/>
<path d="M174.728 178.6H143.284C142.4 178.599 141.553 178.247 140.928 177.622C140.304 176.997 139.953 176.15 139.952 175.266C139.955 174.384 140.307 173.538 140.931 172.915C141.556 172.292 142.402 171.941 143.284 171.94H174.728C175.611 171.94 176.458 172.291 177.083 172.915C177.707 173.54 178.058 174.387 178.058 175.27C178.058 176.153 177.707 177 177.083 177.625C176.458 178.249 175.611 178.6 174.728 178.6Z" stroke="#313553" stroke-width="0.647" stroke-linecap="round" stroke-linejoin="round"/>
<path d="M308.684 178.6H193.112C192.228 178.598 191.382 178.247 190.757 177.622C190.132 176.997 189.781 176.15 189.78 175.266C189.784 174.384 190.136 173.539 190.76 172.916C191.385 172.293 192.23 171.942 193.112 171.94H308.684C309.568 171.94 310.414 172.291 311.038 172.915C311.664 173.54 312.014 174.387 312.014 175.27C312.014 176.153 311.664 177 311.038 177.625C310.414 178.249 309.568 178.6 308.684 178.6Z" stroke="#313553" stroke-width="0.647" stroke-linecap="round" stroke-linejoin="round"/>
<path d="M125.12 176.98C125.12 177.122 125.12 177.264 125.106 177.4C125.514 177.17 125.848 176.828 126.068 176.415C126.288 176.002 126.386 175.534 126.349 175.067C126.313 174.6 126.143 174.153 125.862 173.779C125.58 173.405 125.197 173.12 124.758 172.956H124.744C124.921 173.936 125.036 174.926 125.088 175.92V176C125.112 176.32 125.12 176.65 125.12 176.98Z" stroke="#313553" stroke-width="0.647" stroke-linecap="round" stroke-linejoin="round"/>
<path d="M252.384 192.828H143.284C142.4 192.828 141.553 192.476 140.929 191.852C140.304 191.227 139.953 190.38 139.952 189.496C139.954 188.613 140.305 187.767 140.93 187.144C141.555 186.52 142.401 186.17 143.284 186.17H252.384C253.252 186.191 254.078 186.551 254.686 187.173C255.292 187.795 255.632 188.63 255.632 189.499C255.632 190.368 255.292 191.203 254.686 191.825C254.078 192.447 253.252 192.807 252.384 192.828Z" stroke="#313553" stroke-width="0.647" stroke-linecap="round" stroke-linejoin="round"/>
<path d="M308.684 192.828H270.768C269.884 192.827 269.038 192.476 268.412 191.851C267.788 191.227 267.436 190.379 267.436 189.496C267.438 188.613 267.79 187.767 268.414 187.144C269.038 186.52 269.886 186.17 270.768 186.17H308.684C309.128 186.159 309.57 186.237 309.984 186.4C310.396 186.562 310.774 186.805 311.092 187.116C311.41 187.426 311.662 187.796 311.834 188.206C312.006 188.615 312.096 189.055 312.096 189.499C312.096 189.943 312.006 190.383 311.834 190.792C311.662 191.201 311.41 191.572 311.092 191.882C310.774 192.192 310.396 192.436 309.984 192.598C309.57 192.761 309.128 192.839 308.684 192.828Z" stroke="#313553" stroke-width="0.647" stroke-linecap="round" stroke-linejoin="round"/>
<path d="M122.886 187.2C123.086 187 123.714 187.014 123.886 187.014C124.543 187.014 125.173 187.275 125.638 187.74C126.103 188.205 126.364 188.835 126.364 189.492C126.364 190.149 126.103 190.779 125.638 191.244C125.173 191.709 124.543 191.97 123.886 191.97C123.358 191.958 122.847 191.779 122.426 191.459C122.005 191.14 121.696 190.696 121.542 190.19" stroke="#313553" stroke-width="0.647" stroke-linecap="round" stroke-linejoin="round"/>
<path d="M168.256 207.066H143.284C142.4 207.064 141.553 206.714 140.928 206.088C140.304 205.464 139.953 204.616 139.952 203.732C139.955 202.85 140.307 202.004 140.931 201.38C141.556 200.758 142.402 200.408 143.284 200.406H168.256C169.139 200.406 169.986 200.756 170.611 201.382C171.235 202.006 171.586 202.852 171.586 203.736C171.586 204.62 171.235 205.466 170.611 206.09C169.986 206.716 169.139 207.066 168.256 207.066Z" stroke="#313553" stroke-width="0.647" stroke-linecap="round" stroke-linejoin="round"/>
<path d="M308.684 207.066H186.642C185.758 207.064 184.911 206.714 184.286 206.088C183.661 205.464 183.309 204.616 183.308 203.732C183.312 202.85 183.664 202.004 184.289 201.382C184.914 200.758 185.76 200.408 186.642 200.406H308.684C309.568 200.406 310.414 200.756 311.038 201.382C311.664 202.006 312.014 202.852 312.014 203.736C312.014 204.62 311.664 205.466 311.038 206.09C310.414 206.716 309.568 207.066 308.684 207.066Z" stroke="#313553" stroke-width="0.647" stroke-linecap="round" stroke-linejoin="round"/>
<path d="M226.498 221.302H143.284C142.4 221.302 141.553 220.95 140.929 220.326C140.304 219.7 139.953 218.854 139.952 217.97C139.954 217.088 140.305 216.242 140.93 215.618C141.555 214.994 142.401 214.644 143.284 214.644H226.498C227.366 214.666 228.192 215.026 228.8 215.648C229.406 216.27 229.746 217.104 229.746 217.974C229.746 218.842 229.406 219.676 228.8 220.298C228.192 220.92 227.366 221.28 226.498 221.302Z" stroke="#313553" stroke-width="0.647" stroke-linecap="round" stroke-linejoin="round"/>
<path d="M308.684 221.302H244.884C244 221.302 243.152 220.95 242.528 220.326C241.902 219.7 241.552 218.854 241.55 217.97C241.552 217.088 241.906 216.242 242.53 215.618C243.154 214.994 244.002 214.644 244.884 214.644H308.684C309.552 214.666 310.378 215.026 310.986 215.648C311.592 216.27 311.932 217.104 311.932 217.974C311.932 218.842 311.592 219.676 310.986 220.298C310.378 220.92 309.552 221.28 308.684 221.302Z" stroke="#313553" stroke-width="0.647" stroke-linecap="round" stroke-linejoin="round"/>
<path d="M126.362 217.97C126.361 218.46 126.215 218.938 125.943 219.344C125.67 219.75 125.284 220.068 124.831 220.254C124.379 220.442 123.881 220.49 123.401 220.394C122.921 220.298 122.48 220.062 122.135 219.716C121.789 219.37 121.553 218.928 121.458 218.448C121.362 217.968 121.411 217.472 121.598 217.018C121.786 216.566 122.103 216.18 122.509 215.908C122.916 215.636 123.395 215.49 123.884 215.49C124.21 215.49 124.532 215.554 124.833 215.678C125.134 215.802 125.408 215.984 125.638 216.216C125.868 216.446 126.051 216.72 126.175 217.02C126.299 217.322 126.363 217.644 126.362 217.97Z" stroke="#313553" stroke-width="0.647" stroke-linecap="round" stroke-linejoin="round"/>
<path d="M271.8 235.538H143.284C142.4 235.538 141.553 235.186 140.929 234.562C140.304 233.936 139.953 233.09 139.952 232.206C139.955 231.324 140.307 230.478 140.931 229.854C141.556 229.232 142.402 228.882 143.284 228.88H271.8C272.668 228.902 273.494 229.262 274.102 229.884C274.708 230.506 275.048 231.34 275.048 232.208C275.048 233.078 274.708 233.912 274.102 234.534C273.494 235.156 272.668 235.516 271.8 235.538Z" stroke="#313553" stroke-width="0.647" stroke-linecap="round" stroke-linejoin="round"/>
<path d="M308.684 235.538H290.182C289.298 235.538 288.452 235.186 287.826 234.562C287.202 233.936 286.85 233.09 286.85 232.206C286.852 231.324 287.204 230.478 287.83 229.854C288.454 229.232 289.3 228.882 290.182 228.88H308.684C309.128 228.87 309.57 228.948 309.984 229.11C310.396 229.272 310.774 229.516 311.092 229.826C311.41 230.136 311.662 230.506 311.834 230.916C312.006 231.326 312.096 231.764 312.096 232.21C312.096 232.654 312.006 233.092 311.834 233.502C311.662 233.912 311.41 234.282 311.092 234.592C310.774 234.902 310.396 235.146 309.984 235.308C309.57 235.47 309.128 235.548 308.684 235.538Z" stroke="#313553" stroke-width="0.647" stroke-linecap="round" stroke-linejoin="round"/>
<path d="M126.362 232.2C126.362 232.69 126.216 233.168 125.944 233.574C125.672 233.982 125.285 234.298 124.833 234.486C124.38 234.674 123.883 234.722 123.403 234.626C122.922 234.53 122.481 234.294 122.135 233.948C121.789 233.602 121.553 233.162 121.458 232.682C121.362 232.202 121.411 231.704 121.598 231.252C121.785 230.8 122.102 230.412 122.509 230.14C122.916 229.868 123.395 229.722 123.884 229.722C124.21 229.722 124.532 229.786 124.833 229.91C125.134 230.034 125.407 230.216 125.637 230.446C125.868 230.676 126.05 230.95 126.174 231.252C126.299 231.552 126.363 231.874 126.362 232.2Z" stroke="#313553" stroke-width="0.647" stroke-linecap="round" stroke-linejoin="round"/>
<path d="M187.67 249.776H143.284C142.4 249.774 141.553 249.424 140.928 248.798C140.304 248.174 139.953 247.326 139.952 246.442C139.955 245.56 140.307 244.714 140.931 244.09C141.556 243.468 142.402 243.118 143.284 243.116H187.67C188.553 243.116 189.4 243.466 190.025 244.092C190.649 244.716 191 245.562 191 246.446C191 247.33 190.649 248.176 190.025 248.8C189.4 249.426 188.553 249.776 187.67 249.776Z" stroke="#313553" stroke-width="0.647" stroke-linecap="round" stroke-linejoin="round"/>
<path d="M308.684 249.776H206.056C205.172 249.774 204.324 249.424 203.7 248.798C203.074 248.174 202.724 247.326 202.722 246.442C202.726 245.56 203.078 244.714 203.704 244.092C204.328 243.468 205.174 243.118 206.056 243.116H308.684C309.568 243.116 310.414 243.466 311.038 244.092C311.664 244.716 312.014 245.562 312.014 246.446C312.014 247.33 311.664 248.176 311.038 248.8C310.414 249.426 309.568 249.776 308.684 249.776Z" stroke="#313553" stroke-width="0.647" stroke-linecap="round" stroke-linejoin="round"/>
<path d="M126.362 246.442C126.362 246.932 126.216 247.41 125.944 247.816C125.672 248.224 125.285 248.54 124.833 248.728C124.38 248.916 123.883 248.964 123.403 248.868C122.922 248.772 122.481 248.536 122.135 248.19C121.789 247.844 121.553 247.404 121.458 246.924C121.362 246.444 121.411 245.946 121.598 245.494C121.785 245.042 122.102 244.654 122.509 244.382C122.916 244.11 123.395 243.964 123.884 243.964C124.21 243.964 124.532 244.028 124.833 244.152C125.133 244.276 125.407 244.46 125.637 244.69C125.867 244.92 126.05 245.192 126.174 245.494C126.298 245.794 126.362 246.116 126.362 246.442Z" stroke="#313553" stroke-width="0.647" stroke-linecap="round" stroke-linejoin="round"/>
<path d="M79.412 176.824C79.334 176.824 79.258 176.824 79.18 176.824C79.102 176.824 79.018 176.824 78.94 176.824C76.5374 176.701 74.2778 175.645 72.643 173.88C71.0084 172.115 70.1278 169.781 70.1894 167.376C70.251 164.971 71.2498 162.685 72.9726 161.006C74.6956 159.327 77.0062 158.388 79.412 158.388" stroke="#313553" stroke-width="0.971" stroke-linecap="round" stroke-linejoin="round"/>
<path d="M66.314 176.812H79.412C79.334 176.812 79.258 176.812 79.18 176.812C76.7612 176.883 74.467 177.901 72.792 179.647C71.117 181.394 70.1954 183.728 70.2258 186.148C70.2562 188.568 71.2362 190.879 72.9546 192.582C74.673 194.286 76.9922 195.246 79.412 195.256" stroke="#313553" stroke-width="0.971" stroke-linecap="round" stroke-linejoin="round"/>
<path d="M95.972 176.824C96.05 176.824 96.134 176.824 96.212 176.824C96.29 176.824 96.368 176.824 96.444 176.824C98.8466 176.701 101.106 175.645 102.741 173.88C104.376 172.115 105.256 169.781 105.195 167.376C105.133 164.971 104.134 162.685 102.411 161.006C100.689 159.327 98.3778 158.388 95.972 158.388" stroke="#313553" stroke-width="0.971" stroke-linecap="round" stroke-linejoin="round"/>
<path d="M109.07 176.812H95.972C96.05 176.812 96.134 176.812 96.212 176.812C98.6314 176.883 100.926 177.902 102.601 179.649C104.276 181.396 105.197 183.732 105.165 186.152C105.134 188.572 104.152 190.883 102.433 192.586C100.713 194.289 98.3924 195.248 95.972 195.256" stroke="#313553" stroke-width="0.971" stroke-linecap="round" stroke-linejoin="round"/>
<path d="M351.096 135.57L368.678 125.424L351.096 115.27" stroke="#313553" stroke-width="0.971" stroke-linecap="round" stroke-linejoin="round"/>
<path d="M333.048 115.27L315.466 125.424L333.048 135.57" stroke="#313553" stroke-width="0.971" stroke-linecap="round" stroke-linejoin="round"/>
<path d="M347.078 110.682L336.568 140.016" stroke="#313553" stroke-width="0.647" stroke-linecap="round" stroke-linejoin="round"/>
<path d="M331.514 278.288L334.362 269.642L341.118 249.128L347.88 269.642L350.728 278.288" stroke="#313553" stroke-width="0.971" stroke-linecap="round" stroke-linejoin="round"/>
<path d="M334.362 269.642H347.88" stroke="#313553" stroke-width="0.971" stroke-linecap="round" stroke-linejoin="round"/>
<path d="M365.358 273.254C363.502 277.234 360.026 279.544 357.606 278.418C355.186 277.292 354.734 273.144 356.59 269.158C358.446 265.172 361.916 262.868 364.342 263.994C365.088 264.452 365.688 265.114 366.07 265.902C366.454 266.688 366.604 267.568 366.504 268.438C366.474 270.108 366.082 271.75 365.358 273.254Z" stroke="#313553" stroke-width="0.647" stroke-linecap="round" stroke-linejoin="round"/>
<path d="M366.498 268.38C366.498 268.4 366.498 268.42 366.498 268.438C366.854 271.94 364.712 281.162 370.298 277.408" stroke="#313553" stroke-width="0.647" stroke-linecap="round" stroke-linejoin="round"/>
</svg>
