<svg width="400" height="400" viewBox="0 0 400 400" fill="none" xmlns="http://www.w3.org/2000/svg">
<path d="M40 200C40 242.435 56.8571 283.131 86.8629 313.137C116.869 343.143 157.565 360 200 360C242.435 360 283.131 343.143 313.137 313.137C343.143 283.131 360 242.435 360 200C360 157.565 343.143 116.869 313.137 86.8629C283.131 56.8571 242.435 40 200 40C157.565 40 116.869 56.8571 86.8629 86.8629C56.8571 116.869 40 157.565 40 200Z" fill="#D9EDFF"/>
<path d="M244 322.6C244 319.288 224.3 316.6 200 316.6C175.7 316.6 156 319.288 156 322.6C156 325.912 175.7 328.6 200 328.6C224.3 328.6 244 325.912 244 322.6Z" fill="#B0D9FF"/>
<path d="M246.296 197.38L203.764 112.316C203.415 111.617 202.877 111.029 202.213 110.618C201.548 110.207 200.782 109.989 200 109.989C199.218 109.989 198.452 110.207 197.787 110.618C197.123 111.029 196.585 111.617 196.236 112.316L153.704 197.38L99.776 150.64C99.1135 150.064 98.2872 149.709 97.413 149.626C96.5388 149.543 95.6605 149.735 94.9011 150.176C94.1418 150.617 93.5394 151.285 93.1784 152.085C92.8174 152.886 92.7158 153.779 92.888 154.64L115.824 273.156C115.824 273.156 115.824 294.2 200 294.2C284.176 294.2 284.172 273.156 284.172 273.156L307.112 154.64C307.284 153.779 307.183 152.886 306.822 152.085C306.461 151.285 305.858 150.617 305.099 150.176C304.339 149.735 303.461 149.543 302.587 149.626C301.713 149.709 300.887 150.064 300.224 150.64L246.296 197.38Z" fill="white"/>
<path d="M112.216 254.484L115.816 273.136C115.816 273.136 115.816 294.18 199.992 294.18C284.168 294.18 284.164 273.136 284.164 273.136L287.764 254.484C279.684 260.656 258.028 268.928 199.98 268.928C141.932 268.928 120.292 260.656 112.216 254.484Z" fill="#B0D9FF"/>
<path d="M112.216 254.484C120.292 260.656 141.948 268.928 200 268.928C258.052 268.928 279.704 260.656 287.784 254.484" stroke="#020064" stroke-width="4" stroke-linejoin="round"/>
<path d="M246.296 197.38L203.764 112.316C203.415 111.617 202.877 111.029 202.213 110.618C201.548 110.207 200.782 109.989 200 109.989C199.218 109.989 198.452 110.207 197.787 110.618C197.123 111.029 196.585 111.617 196.236 112.316L153.704 197.38L99.776 150.64C99.1135 150.064 98.2872 149.709 97.413 149.626C96.5388 149.543 95.6605 149.735 94.9011 150.176C94.1418 150.617 93.5394 151.285 93.1784 152.085C92.8174 152.886 92.7158 153.779 92.888 154.64L115.824 273.156C115.824 273.156 115.824 294.2 200 294.2C284.176 294.2 284.172 273.156 284.172 273.156L307.112 154.64C307.284 153.779 307.183 152.886 306.822 152.085C306.461 151.285 305.858 150.617 305.099 150.176C304.339 149.735 303.461 149.543 302.587 149.626C301.713 149.709 300.887 150.064 300.224 150.64L246.296 197.38Z" stroke="#020064" stroke-width="4" stroke-linejoin="round"/>
<path d="M279.512 95.472C280.053 93.1413 281.237 91.009 282.929 89.3171C284.621 87.6252 286.753 86.4414 289.084 85.9L308.284 81.468C308.634 81.3843 308.945 81.1852 309.168 80.9029C309.39 80.6206 309.511 80.2715 309.511 79.912C309.511 79.5525 309.39 79.2034 309.168 78.9211C308.945 78.6388 308.634 78.4397 308.284 78.356L289.084 73.928C286.752 73.3892 284.618 72.2063 282.926 70.5139C281.234 68.8216 280.051 66.6879 279.512 64.356L275.08 45.156C274.996 44.8063 274.797 44.4951 274.515 44.2724C274.233 44.0497 273.884 43.9286 273.524 43.9286C273.164 43.9286 272.815 44.0497 272.533 44.2724C272.251 44.4951 272.052 44.8063 271.968 45.156L267.54 64.356C266.999 66.6867 265.815 68.819 264.123 70.5109C262.431 72.2028 260.299 73.3866 257.968 73.928L238.768 78.356C238.418 78.4397 238.107 78.6388 237.884 78.9211C237.662 79.2034 237.541 79.5525 237.541 79.912C237.541 80.2715 237.662 80.6206 237.884 80.9029C238.107 81.1852 238.418 81.3843 238.768 81.468L257.968 85.9C260.299 86.439 262.432 87.6221 264.124 89.3145C265.816 91.0068 266.998 93.1404 267.536 95.472L271.968 114.672C272.052 115.022 272.251 115.333 272.533 115.556C272.815 115.778 273.164 115.899 273.524 115.899C273.884 115.899 274.233 115.778 274.515 115.556C274.797 115.333 274.996 115.022 275.08 114.672L279.512 95.472Z" fill="white" stroke="#020064" stroke-width="4" stroke-linecap="round" stroke-linejoin="round"/>
<path d="M375.868 207.328C376.215 205.836 376.974 204.471 378.058 203.387C379.142 202.304 380.507 201.547 382 201.2L394.34 198.352C394.565 198.298 394.765 198.171 394.908 197.989C395.052 197.808 395.13 197.583 395.13 197.352C395.13 197.121 395.052 196.896 394.908 196.715C394.765 196.533 394.565 196.406 394.34 196.352L382 193.488C380.502 193.142 379.131 192.382 378.044 191.295C376.956 190.208 376.195 188.838 375.848 187.34L373.004 175.004C372.95 174.779 372.823 174.579 372.641 174.436C372.46 174.292 372.235 174.214 372.004 174.214C371.773 174.214 371.548 174.292 371.367 174.436C371.185 174.579 371.058 174.779 371.004 175.004L368.16 187.34C367.813 188.838 367.052 190.208 365.965 191.295C364.877 192.382 363.506 193.142 362.008 193.488L349.676 196.332C349.451 196.386 349.251 196.513 349.108 196.695C348.964 196.876 348.886 197.101 348.886 197.332C348.886 197.563 348.964 197.788 349.108 197.969C349.251 198.151 349.451 198.278 349.676 198.332L362.008 201.18C363.506 201.525 364.877 202.285 365.964 203.372C367.051 204.459 367.811 205.83 368.156 207.328L371.004 219.668C371.058 219.893 371.185 220.093 371.367 220.236C371.548 220.38 371.773 220.458 372.004 220.458C372.235 220.458 372.46 220.38 372.641 220.236C372.823 220.093 372.95 219.893 373.004 219.668L375.868 207.328Z" fill="white" stroke="#020064" stroke-width="4" stroke-linecap="round" stroke-linejoin="round"/>
<path d="M129.008 113.92C129.435 112.068 130.374 110.374 131.718 109.03C133.062 107.686 134.756 106.747 136.608 106.32L151.848 102.804C152.126 102.738 152.374 102.581 152.551 102.357C152.728 102.133 152.824 101.856 152.824 101.57C152.824 101.284 152.728 101.007 152.551 100.783C152.374 100.559 152.126 100.402 151.848 100.336L136.608 96.82C134.756 96.394 133.061 95.4553 131.717 94.1113C130.373 92.7673 129.434 91.0723 129.008 89.22L125.492 74C125.43 73.7192 125.273 73.468 125.049 73.2879C124.825 73.1079 124.546 73.0098 124.258 73.0098C123.97 73.0098 123.691 73.1079 123.467 73.2879C123.243 73.468 123.086 73.7192 123.024 74L119.508 89.228C119.082 91.0801 118.143 92.7749 116.799 94.1188C115.455 95.4627 113.76 96.4015 111.908 96.828L96.676 100.34C96.3981 100.406 96.1504 100.563 95.9733 100.787C95.7961 101.011 95.6996 101.288 95.6996 101.574C95.6996 101.86 95.7961 102.137 95.9733 102.361C96.1504 102.585 96.3981 102.742 96.676 102.808L111.908 106.324C113.76 106.751 115.454 107.69 116.798 109.034C118.142 110.378 119.081 112.072 119.508 113.924L123.024 129.164C123.09 129.442 123.247 129.69 123.471 129.867C123.695 130.044 123.972 130.14 124.258 130.14C124.544 130.14 124.821 130.044 125.045 129.867C125.269 129.69 125.426 129.442 125.492 129.164L129.008 113.92Z" fill="white" stroke="#020064" stroke-width="4" stroke-linecap="round" stroke-linejoin="round"/>
</svg>
