<svg width="400" height="400" viewBox="0 0 400 400" fill="none" xmlns="http://www.w3.org/2000/svg">
<path d="M62.824 300.488C72.328 307.748 97.8 317.476 166.076 317.476C234.352 317.476 259.828 307.748 269.328 300.488" stroke="#020064" stroke-width="4" stroke-linecap="round" stroke-linejoin="round"/>
<path d="M220.532 233.32L170.504 133.268C170.092 132.446 169.46 131.755 168.678 131.272C167.896 130.789 166.995 130.533 166.076 130.533C165.157 130.533 164.256 130.789 163.474 131.272C162.692 131.755 162.06 132.446 161.648 133.268L111.624 233.32L48.192 178.348C47.4144 177.674 46.4456 177.258 45.4204 177.16C44.3956 177.062 43.3656 177.286 42.474 177.801C41.5824 178.316 40.874 179.097 40.4468 180.034C40.02 180.971 39.8959 182.018 40.092 183.028L67.072 322.428C67.072 322.428 67.072 347.18 166.076 347.18C265.08 347.18 265.084 322.428 265.084 322.428L292.064 183.028C292.259 182.017 292.133 180.971 291.706 180.035C291.278 179.098 290.569 178.318 289.678 177.804C288.786 177.289 287.757 177.065 286.732 177.162C285.707 177.26 284.738 177.674 283.96 178.348L220.532 233.32Z" stroke="#020064" stroke-width="4" stroke-linecap="round" stroke-linejoin="round"/>
<path d="M259.6 113.46C260.232 110.717 261.622 108.207 263.613 106.216C265.603 104.225 268.113 102.834 270.856 102.2L293.448 97.0004C293.86 96.9032 294.228 96.67 294.491 96.3376C294.754 96.0056 294.897 95.594 294.897 95.1704C294.897 94.7468 294.754 94.3356 294.491 94.0032C294.228 93.6712 293.86 93.4376 293.448 93.3404L270.856 88.1404C268.111 87.5048 265.6 86.1104 263.609 84.1156C261.619 82.1212 260.23 79.6072 259.6 76.8604L254.4 54.2764C254.303 53.864 254.069 53.4964 253.737 53.2332C253.405 52.9704 252.994 52.8272 252.57 52.8272C252.146 52.8272 251.735 52.9704 251.403 53.2332C251.071 53.4964 250.837 53.864 250.74 54.2764L245.54 76.8604C244.908 79.6032 243.517 82.1128 241.527 84.1032C239.536 86.0936 237.027 87.484 234.284 88.1164L211.7 93.3164C211.288 93.4136 210.92 93.6472 210.657 93.9792C210.394 94.3116 210.251 94.7228 210.251 95.1464C210.251 95.57 210.394 95.9816 210.657 96.3136C210.92 96.646 211.288 96.8792 211.7 96.9764L234.284 102.176C237.027 102.81 239.536 104.202 241.526 106.193C243.516 108.184 244.907 110.694 245.54 113.436L250.74 136.028C250.837 136.441 251.071 136.808 251.403 137.072C251.735 137.335 252.146 137.478 252.57 137.478C252.994 137.478 253.405 137.335 253.737 137.072C254.069 136.808 254.303 136.441 254.4 136.028L259.6 113.46Z" stroke="#020064" stroke-width="4" stroke-linecap="round" stroke-linejoin="round"/>
<path d="M337.32 264.44C337.724 262.676 338.617 261.062 339.896 259.782C341.175 258.501 342.788 257.607 344.552 257.2L359.064 253.848C359.335 253.793 359.579 253.646 359.754 253.432C359.93 253.218 360.025 252.949 360.025 252.672C360.025 252.396 359.93 252.127 359.754 251.913C359.579 251.699 359.335 251.552 359.064 251.496L344.552 248.148C342.789 247.742 341.176 246.849 339.897 245.57C338.618 244.291 337.723 242.679 337.316 240.916L333.968 226.412C333.913 226.141 333.766 225.897 333.552 225.722C333.337 225.547 333.069 225.451 332.792 225.451C332.515 225.451 332.247 225.547 332.032 225.722C331.818 225.897 331.671 226.141 331.616 226.412L328.272 240.916C327.864 242.679 326.97 244.292 325.69 245.571C324.411 246.85 322.798 247.744 321.036 248.152L306.532 251.496C306.261 251.552 306.017 251.699 305.842 251.913C305.666 252.127 305.571 252.396 305.571 252.672C305.571 252.949 305.666 253.218 305.842 253.432C306.017 253.646 306.261 253.793 306.532 253.848L321.036 257.196C322.798 257.604 324.411 258.498 325.69 259.778C326.968 261.057 327.862 262.67 328.268 264.432L331.616 278.944C331.671 279.216 331.818 279.46 332.032 279.635C332.247 279.81 332.515 279.906 332.792 279.906C333.069 279.906 333.337 279.81 333.552 279.635C333.766 279.46 333.913 279.216 333.968 278.944L337.32 264.44Z" stroke="#020064" stroke-width="4" stroke-linecap="round" stroke-linejoin="round"/>
<path d="M82.576 135.156C83.0784 132.98 84.1824 130.988 85.7616 129.409C87.3408 127.83 89.332 126.726 91.508 126.224L109.432 122.088C109.762 122.014 110.057 121.83 110.268 121.566C110.48 121.302 110.595 120.974 110.595 120.636C110.595 120.298 110.48 119.969 110.268 119.706C110.057 119.442 109.762 119.258 109.432 119.184L91.508 115.048C89.332 114.546 87.3408 113.443 85.7616 111.865C84.182 110.286 83.0784 108.295 82.576 106.12L78.44 88.2036C78.3628 87.8764 78.1772 87.5852 77.9136 87.3768C77.6504 87.168 77.324 87.0548 76.988 87.0548C76.652 87.0548 76.3256 87.168 76.0624 87.3768C75.7988 87.5852 75.6132 87.8764 75.536 88.2036L71.404 106.12C70.9016 108.296 69.7976 110.287 68.2184 111.866C66.6392 113.445 64.648 114.549 62.472 115.052L44.556 119.2C44.2288 119.277 43.9376 119.462 43.7292 119.726C43.5208 119.989 43.4072 120.316 43.4072 120.652C43.4072 120.988 43.5208 121.314 43.7292 121.577C43.9376 121.841 44.2288 122.026 44.556 122.104L62.472 126.24C64.6484 126.742 66.6396 127.845 68.2188 129.424C69.7984 131.004 70.902 132.995 71.404 135.172L75.536 153.096C75.6132 153.422 75.7988 153.714 76.0624 153.922C76.3256 154.131 76.652 154.244 76.988 154.244C77.324 154.244 77.6504 154.131 77.9136 153.922C78.1772 153.714 78.3628 153.422 78.44 153.096L82.576 135.156Z" stroke="#020064" stroke-width="4" stroke-linecap="round" stroke-linejoin="round"/>
</svg>
