<svg width="400" height="400" viewBox="0 0 400 400" fill="none" xmlns="http://www.w3.org/2000/svg">
<path d="M190.9 81.08L148.54 80.14C148.453 80.1402 148.368 80.1178 148.292 80.075C148.216 80.032 148.153 79.9702 148.109 79.8956C148.064 79.8208 148.04 79.7358 148.039 79.649C148.037 79.562 148.058 79.4762 148.1 79.4L171.44 36.54C171.497 36.4414 171.519 36.3262 171.502 36.2136C171.484 36.101 171.429 35.9974 171.345 35.9204C171.261 35.8434 171.153 35.7974 171.04 35.79C170.926 35.7828 170.813 35.8144 170.72 35.88L136.18 59.08C136.113 59.12 136.038 59.1444 135.961 59.1516C135.884 59.159 135.806 59.1488 135.733 59.1218C135.66 59.095 135.594 59.0522 135.54 58.9964C135.486 58.9408 135.445 58.8736 135.42 58.8L121.02 10.36C120.99 10.2561 120.926 10.1649 120.84 10.1C120.753 10.0351 120.648 10 120.54 10C120.432 10 120.326 10.0351 120.24 10.1C120.153 10.1649 120.09 10.2561 120.06 10.36L109.04 58.24C109.025 58.3206 108.991 58.3962 108.939 58.4596C108.887 58.523 108.82 58.572 108.744 58.602C108.667 58.6322 108.585 58.6422 108.504 58.6314C108.423 58.6204 108.345 58.589 108.28 58.54L67.9998 31.7C67.9098 31.637 67.8014 31.6056 67.6916 31.6104C67.5818 31.6152 67.4768 31.6562 67.3926 31.7266C67.3082 31.7972 67.2496 31.8936 67.2256 32.0008C67.2016 32.1082 67.2138 32.2202 67.2598 32.32L87.8798 77.36C87.9186 77.4386 87.936 77.526 87.9304 77.6136C87.9246 77.701 87.896 77.7854 87.8474 77.8584C87.7988 77.9312 87.7318 77.9902 87.6534 78.029C87.5748 78.068 87.4874 78.0856 87.3998 78.08L42.6398 76.18C42.5204 76.168 42.4006 76.1994 42.3022 76.2684C42.204 76.3376 42.134 76.4396 42.1048 76.5562C42.0756 76.6728 42.0894 76.7958 42.1436 76.903C42.1978 77.0102 42.2888 77.0944 42.3998 77.14C104.86 108.58 105.2 108.82 105.4 108.88C122.74 114.26 121.4 113.94 121.66 113.82L191.1 82C191.187 81.9454 191.256 81.8652 191.296 81.7702C191.336 81.6754 191.346 81.5702 191.324 81.4696C191.302 81.3688 191.249 81.2774 191.174 81.2076C191.098 81.138 191.002 81.0934 190.9 81.08Z" fill="white"/>
<path d="M141.1 151.16C137.691 149.363 133.841 148.572 130 148.88C113.861 149.269 97.7922 151.15 81.9998 154.5C80.1798 154.7 83.5998 155.5 84.8998 155.78C89.0652 156.503 93.3028 156.718 97.5198 156.42C98.7998 156.42 97.6998 159.12 96.7198 159.24C91.8614 159.788 87.0348 160.589 82.2598 161.64C81.1088 161.806 79.9722 162.06 78.8598 162.4C80.3798 164.84 85.2798 165.42 87.5798 165.48C91.4428 165.24 95.317 165.24 99.1798 165.48C100.54 165.7 99.3398 168.2 98.3798 168.3C93.1014 168.88 87.869 169.822 82.7198 171.12C82.1798 171.28 81.3998 171.24 81.5198 171.82C81.6398 172.4 82.4598 172.54 82.8798 172.7C85.1998 173.48 88.5998 172.88 93.6398 172.58C99.1598 172.24 104.74 171.96 110.28 172.04C113.06 172.04 116.28 172.64 117.26 175.7C122.6 175.12 145.6 172.84 145.6 172.84C146 162.68 147.3 155.02 141.1 151.16ZM134 166.66C131.8 162.66 127.12 162.34 122.96 162.66C118.164 163.037 113.395 163.705 108.68 164.66C107.1 164.96 108.06 162.06 109.2 161.86C114.413 160.825 119.693 160.157 125 159.86C129.2 159.66 133.78 160.44 135.92 164.48C136.54 165.4 134.64 167.82 134 166.66Z" fill="#FFDE26"/>
<path d="M355.02 283.32C353.782 281.974 352.446 280.724 351.02 279.58C347.16 276.228 343.092 273.122 338.84 270.28C336.84 276.84 328.84 286.42 325.84 290.28C326.74 290.92 332.06 298.48 336.82 298.82C334.98 296.04 333.08 293.3 331.08 290.62C330.46 289.78 331.74 287.5 332.84 288.1L340.84 292.54C342.63 293.728 344.532 294.74 346.52 295.56C344.048 292.418 341.296 289.506 338.3 286.86C337.36 286.04 338.82 283.42 339.86 284.18C343.25 286.91 347.174 288.9 351.38 290.02C348.774 286.568 345.62 283.568 342.04 281.14C340.98 280.42 342.52 277.78 343.6 278.44C346.562 280.258 349.642 281.874 352.82 283.28C355.06 284.38 356.54 284.88 355.02 283.32Z" fill="#FFDE26"/>
<path d="M228.4 160.22L232.66 160.7C237.6 150.56 250.08 151.24 252.36 161.9C252.584 161.775 252.828 161.688 253.08 161.64C253.762 158.864 255.252 156.351 257.36 154.42C256.822 153.943 256.376 153.374 256.04 152.74C255.46 151.492 255.278 150.095 255.52 148.74C252.55 148.268 249.842 146.759 247.88 144.48C242.6 147.56 235.14 147.38 231.3 145.06C228.534 146.366 225.452 146.852 222.42 146.46C222.3 146.98 222.18 147.5 222.04 148.02C226.78 149.86 228.88 155.26 228.4 160.22Z" fill="#FFDE26"/>
<path d="M278.46 168C274.46 167.32 272.3 170.98 269.66 173.26C267.676 174.997 265.1 175.902 262.466 175.786C259.832 175.671 257.344 174.544 255.52 172.64C253.774 170.754 252.76 168.307 252.66 165.74C251.9 172.44 246.66 178.66 239.96 177.84C233.26 177.02 230.08 169.84 231.62 163.52L227.62 163.1C223.24 174.96 209.88 174.44 207.32 163.68C202.68 165.16 200.36 164.4 197.32 165.38C192.34 167 197.08 171.26 199.62 172.22C202.176 172.842 204.668 173.706 207.06 174.8C211.06 177.34 210.7 182 210.68 186.2C210.344 191.814 211.346 197.428 213.6 202.58C222.9 220.76 252 223.58 267.18 213.2C270.264 210.92 272.852 208.036 274.78 204.72C274.6 199.2 276.78 193.58 276.3 187.88C276.294 187.404 276.456 186.94 276.76 186.574C277.066 186.207 277.49 185.961 277.96 185.88C279.074 185.852 280.17 185.591 281.178 185.114C282.186 184.638 283.084 183.956 283.812 183.112C284.54 182.269 285.086 181.282 285.41 180.216C285.736 179.149 285.834 178.027 285.7 176.92C285.614 174.852 284.862 172.867 283.558 171.261C282.254 169.654 280.466 168.51 278.46 168ZM243.12 209.42C240.344 209.966 237.482 209.874 234.748 209.15C232.014 208.426 229.48 207.088 227.34 205.24C222.76 200.76 226.04 194.28 231.68 192.96C234.72 192.24 238.52 192.1 240.46 189.24C241.202 187.703 242.142 186.27 243.26 184.98C245.192 183.487 247.624 182.791 250.054 183.037C252.482 183.282 254.726 184.45 256.32 186.3C261 192 254.66 206.92 243.12 209.44V209.42ZM278.42 173.68C277.886 173.689 277.37 173.866 276.942 174.186C276.516 174.505 276.2 174.951 276.04 175.46C275.9 176.1 275.4 177.02 274.68 177.14C273.96 177.26 273.72 176.6 273.84 176.02C274.09 174.661 274.776 173.421 275.792 172.486C276.81 171.551 278.104 170.974 279.48 170.84C280.62 170.78 280 173.6 278.42 173.7V173.68Z" fill="#FFDE26"/>
<path d="M223.08 226.64C224.414 223.974 225.746 221.306 227.08 218.64C226.12 218.22 225.08 217.78 224.28 217.28C224.11 217.43 223.914 217.546 223.7 217.62C222.42 219.84 221.2 222.08 220.02 224.34C220.754 225.428 221.832 226.238 223.08 226.64Z" fill="#6CECC4"/>
<path d="M229.36 231.52C226.16 230.76 220.7 230.16 218.56 227.24C208.144 248.096 201.566 270.654 199.14 293.84C201.464 293.392 203.838 293.252 206.2 293.42C213.554 293.302 220.908 293.73 228.2 294.7C229.14 287.96 228.78 262.56 243.14 232.7C238.512 233.122 233.848 232.722 229.36 231.52Z" fill="#6CECC4"/>
<path d="M236.9 221.42C234.9 227.2 234.76 228.62 234.38 229.42C237.758 230.054 241.214 230.148 244.62 229.7C246.05 226.932 247.66 224.258 249.44 221.7C245.266 222.154 241.05 222.06 236.9 221.42Z" fill="#6CECC4"/>
<path d="M232.48 229.14C233.12 226.76 234.48 222.14 234.98 221.14C232.942 220.736 230.936 220.18 228.98 219.48C228.824 219.784 228.622 220.06 228.38 220.3C227.18 222.6 226.02 224.92 224.88 227.26C226.64 227.64 229.18 228.44 232.48 229.14Z" fill="#6CECC4"/>
<path d="M135 46C133.931 45.7984 132.831 45.8288 131.775 46.089C130.718 46.349 129.73 46.833 128.877 47.508C128.023 48.183 127.325 49.0334 126.829 50.0016C126.333 50.9698 126.05 52.0332 126 53.12C126 63.12 142 64.88 142.4 54.36C142.335 52.3222 141.56 50.371 140.209 48.8444C138.857 47.3178 137.015 46.3116 135 46ZM139.76 55.64C139.34 55.98 138.54 56.2 138.36 55.48C138.106 53.993 137.351 52.6378 136.22 51.64C135.824 51.321 135.368 51.0832 134.88 50.94C133.48 50.7 134.88 47.88 135.96 48.08C138.54 48.54 139.96 51.34 140.54 53.62C140.583 53.9858 140.534 54.3564 140.398 54.6986C140.262 55.0406 140.042 55.3436 139.76 55.58V55.64Z" fill="#FF3E74"/>
<path d="M109.5 40.54C108.954 40.4008 108.385 40.3834 107.832 40.4888C107.279 40.5944 106.756 40.8202 106.299 41.1502C105.843 41.4804 105.465 41.9068 105.193 42.3994C104.92 42.8918 104.758 43.4382 104.72 44C104.6 49.02 113.26 50.82 113.56 45.24C113.53 44.1082 113.11 43.0214 112.37 42.1646C111.63 41.3078 110.616 40.7336 109.5 40.54Z" fill="#FF3E74"/>
<path d="M130.7 19.12C130.065 19.7349 129.564 20.4738 129.227 21.2908C128.89 22.108 128.725 22.9856 128.741 23.8692C128.758 24.7528 128.957 25.6236 129.325 26.427C129.693 27.2306 130.222 27.9498 130.88 28.54C132.13 29.758 133.78 30.4818 135.522 30.5774C137.265 30.673 138.984 30.134 140.36 29.06C143.38 26.52 142.6 22.28 140.18 19.66C138.932 18.4391 137.284 17.7117 135.541 17.6124C133.798 17.5131 132.078 18.0487 130.7 19.12Z" fill="#FF3E74"/>
<path d="M245 206.18C247.614 205.294 249.952 203.74 251.782 201.674C253.612 199.609 254.874 197.102 255.44 194.4C253.876 194.072 252.252 194.163 250.734 194.665C249.216 195.167 247.858 196.061 246.798 197.258C245.738 198.454 245.014 199.91 244.698 201.476C244.382 203.044 244.486 204.666 245 206.18Z" fill="#FF3E74"/>
<path d="M295.74 209.5C295.4 209.94 296.26 211.28 296.48 211.64C296.88 212.27 297.372 212.836 297.94 213.32C299.14 210.12 296.58 208.32 295.74 209.5Z" fill="#FF3E74"/>
<path d="M314.2 190.44C307.46 194.44 301.3 191.08 302.5 186.74C304.28 180.28 311.44 183.58 315.16 187.14C322.88 181.14 319.38 166.5 311.92 160.7C309.906 159.336 307.808 158.101 305.64 157C301.86 154.74 298.56 151 299.8 146.32C299.922 145.989 300.112 145.687 300.356 145.433C300.6 145.178 300.894 144.977 301.22 144.84L301.4 144.24C300.84 144.44 300.4 144.24 300.64 143.3C301.96 138 302.86 132.44 300.1 127.42C297.404 122.83 293.22 119.301 288.24 117.42C275.46 112.34 266.04 121.1 255.88 116.96C251.22 114.96 247.44 112.4 242.28 112.02C237.496 111.712 232.714 112.649 228.4 114.74C220.2 118.74 209.92 128.58 215.44 138.44C218.06 143.14 223.84 144.44 229.08 143.12C228.196 142.115 227.734 140.807 227.79 139.47C227.846 138.133 228.416 136.868 229.38 135.94C233.52 130.98 239.38 137.48 234 143.04C238.128 144.401 242.614 144.194 246.6 142.46C244.02 137.06 249.24 130.9 252.42 134.12C254.28 136 253.22 139.02 251.88 140.88C251.384 141.555 250.822 142.178 250.2 142.74C251.934 144.401 254.106 145.532 256.46 146C257.54 144 260.12 141.06 262.34 141.72C265.5 142.68 264.34 148.64 257.7 148.96C257.748 149.717 257.964 150.454 258.33 151.118C258.696 151.781 259.206 152.356 259.82 152.8C262.5 151.5 266.58 151.24 266.34 154.2C266.02 158.2 262.08 157.58 259.1 155.8C257.224 157.03 255.87 158.911 255.3 161.08C254.618 162.973 254.6 165.041 255.248 166.946C255.896 168.851 257.172 170.479 258.866 171.564C260.56 172.649 262.572 173.127 264.572 172.919C266.574 172.711 268.446 171.83 269.88 170.42C272.5 167.88 275.1 164.72 279.18 165.18C281.006 165.515 282.71 166.331 284.118 167.543C285.524 168.756 286.58 170.322 287.18 172.08C289.74 179 285.76 187.16 278.6 188.58C278.46 193.52 276.6 198.58 276.86 203.36C277.058 206.608 278.324 209.7 280.462 212.152C282.6 214.606 285.49 216.282 288.68 216.92C291.184 217.49 293.812 217.076 296.02 215.76C291.02 211.62 294.18 205.32 297.7 206.18C300.66 206.9 300.96 211.42 299.54 214.4C303.28 215.94 308.22 213.84 311.12 211.2C313.258 209.39 314.896 207.064 315.88 204.442C316.864 201.82 317.16 198.989 316.74 196.22C316.3 194.139 315.436 192.171 314.2 190.44Z" fill="#FF3E74"/>
<path d="M305.1 187.84C305.468 188.267 305.926 188.609 306.44 188.84C307.434 189.221 308.496 189.4 309.56 189.365C310.624 189.331 311.672 189.084 312.64 188.64C311.922 187.843 311.05 187.198 310.078 186.745C309.106 186.291 308.052 186.038 306.98 186C305.7 186 304.2 186.32 305.1 187.84Z" fill="#FF3E74"/>
<path d="M261.26 144.54C260.9 143.62 259.1 145.46 258.6 146.08C258.904 146.074 259.206 146.034 259.5 145.96C259.76 145.88 261.54 145.2 261.26 144.54Z" fill="#FF3E74"/>
<path d="M250.34 138C250.56 135.54 249.84 135.68 248.2 138.38C248.206 139.35 248.446 140.304 248.9 141.16C250.7 139.78 250.5 139.78 250.34 138Z" fill="#FF3E74"/>
<path d="M230.14 138.9C230.15 139.535 230.326 140.156 230.652 140.7C230.98 141.245 231.444 141.693 232 142C233.44 141.16 234.42 140 233.52 138.3C232.62 136.6 230.36 136.8 230.14 138.9Z" fill="#FF3E74"/>
<path d="M209.5 161.64C209.766 163.175 210.42 164.617 211.4 165.828C212.38 167.039 213.654 167.979 215.1 168.56C220.14 170.4 224.94 166.72 226.08 161.84C228.76 146.3 206.58 147.1 209.5 161.64ZM215.5 153.1C217.06 152.36 216.96 155.1 215.5 155.68C215.058 155.858 214.68 156.169 214.422 156.57C214.164 156.972 214.038 157.443 214.06 157.92C214.058 158.318 213.954 158.71 213.762 159.059C213.57 159.408 213.294 159.704 212.96 159.92C212.846 160 212.71 160.045 212.572 160.051C212.432 160.057 212.294 160.024 212.172 159.955C212.05 159.886 211.952 159.784 211.886 159.661C211.82 159.538 211.79 159.399 211.8 159.26C211.784 157.986 212.126 156.733 212.786 155.644C213.448 154.555 214.402 153.673 215.54 153.1H215.5Z" fill="white"/>
<path d="M250.28 168C251.08 163.36 248.98 158.14 244.14 156.76C243.002 156.483 241.818 156.442 240.664 156.642C239.508 156.842 238.408 157.277 237.428 157.92C236.45 158.564 235.612 159.402 234.972 160.382C234.33 161.363 233.898 162.465 233.7 163.62C233.186 165.83 233.466 168.151 234.49 170.176C235.514 172.201 237.216 173.802 239.3 174.7C244.34 176.44 249.14 172.76 250.28 168ZM240.76 161.4C240.392 161.667 240.086 162.011 239.866 162.408C239.644 162.806 239.512 163.247 239.48 163.7C239.478 164.099 239.378 164.491 239.186 164.84C238.994 165.19 238.716 165.485 238.38 165.7C237.84 165.98 237.18 165.7 237.22 165.04C237.286 163.937 237.578 162.859 238.08 161.874C238.584 160.89 239.284 160.02 240.14 159.32C240.6 158.96 241.3 158.78 241.52 159.48C241.562 159.823 241.514 160.171 241.38 160.49C241.246 160.809 241.034 161.088 240.76 161.3V161.4Z" fill="white"/>
<path d="M228.68 321.52C228.5 320.18 228 297.86 228 297.66C226.26 297.42 223.26 297.06 220.46 296.82L222.64 300.82C223.24 301.88 221.34 304.32 220.64 303.16C217.12 296.72 217.22 297.16 217.26 296.58C213.034 296.3 208.794 296.2 204.54 296.28C202.82 296.28 199.86 295.92 198.72 297.34C197.95 299.128 197.542 301.052 197.52 303C196.97 307.124 196.869 311.294 197.22 315.44C197.236 315.888 197.101 316.33 196.837 316.694C196.572 317.056 196.192 317.32 195.76 317.44C195.381 317.472 194.999 317.472 194.62 317.44C194.12 325.92 194.02 334.76 194.36 343.44L227.64 345.26C229.64 329.56 229.78 329.5 229.64 327.52C229.5 325.54 228.98 323.58 228.68 321.52Z" fill="white"/>
<path d="M281.42 322.26C275.606 324.562 269.512 326.088 263.3 326.8C257.6 327.56 251.94 329.28 246.2 329.6C249.24 336.18 252.2 342.14 255.76 348.3C256.16 349.02 257.02 351.36 257.76 351.74C257.982 351.858 258.228 351.92 258.48 351.92L287.66 338.36C283.12 326.38 282.36 324.2 281.42 322.26Z" fill="white"/>
<path d="M357.62 282.1C356.83 280.686 355.728 279.468 354.4 278.54C349.86 274.364 344.984 270.572 339.82 267.2C339.666 267.14 339.494 267.14 339.34 267.2C339.368 265.824 339.084 264.458 338.51 263.208C337.934 261.958 337.084 260.854 336.02 259.98C331.82 256.16 326.6 253.3 322.02 249.98C306.86 238.74 291.5 225.14 273.26 211.84C273.02 211.66 272.38 211.7 272.34 211.62C273.406 210.492 274.362 209.266 275.2 207.96C277.48 218.48 291.08 223.96 297.84 216.98C304.48 220.16 311.98 214.7 315.84 208.54C320.34 201.5 319.98 193.6 316.42 188.82C325.24 180.66 322.08 163.4 311.6 156.96C307.6 154.56 300.3 151.88 301.86 145.94C302.38 143.94 300 145.22 299.68 146.48C298.44 151.18 301.68 154.9 305.52 157.16C307.752 158.201 309.918 159.384 312 160.7C319.4 166.46 323 181 315.24 187.14C311.52 183.58 304.36 180.28 302.58 186.74C301.38 191.06 307.52 194.54 314.28 190.44C315.534 192.141 316.426 194.081 316.9 196.14C317.32 198.909 317.024 201.74 316.04 204.362C315.056 206.984 313.418 209.31 311.28 211.12C308.38 213.76 303.44 215.86 299.7 214.32C299.956 213.782 300.158 213.218 300.3 212.64C300.84 210.46 300.54 206.76 297.86 206.1C295.18 205.44 293.86 208.1 293.6 210.1C293.548 211.158 293.756 212.212 294.206 213.172C294.656 214.13 295.334 214.964 296.18 215.6C293.974 216.916 291.344 217.33 288.84 216.76C285.912 216.172 283.23 214.71 281.148 212.568C279.066 210.426 277.684 207.704 277.18 204.76C276.36 199.4 278.6 193.88 278.76 188.44C285.92 187.02 289.9 178.86 287.34 171.94C286.74 170.182 285.684 168.616 284.278 167.403C282.87 166.19 281.166 165.375 279.34 165.04C275.34 164.58 272.66 167.74 270.04 170.28C268.79 171.53 267.19 172.374 265.454 172.7C263.716 173.027 261.92 172.821 260.302 172.11C258.682 171.399 257.316 170.215 256.38 168.715C255.446 167.214 254.986 165.466 255.06 163.7C255.052 162.125 255.43 160.571 256.162 159.176C256.894 157.781 257.958 156.588 259.26 155.7C262.24 157.48 266.18 158.1 266.5 154.1C266.74 151.14 262.66 151.38 259.98 152.7C259.366 152.256 258.856 151.681 258.49 151.017C258.124 150.354 257.908 149.617 257.86 148.86C264.32 148.56 265.72 142.6 262.5 141.62C260.28 140.96 257.7 143.84 256.62 145.9C254.28 145.486 252.108 144.41 250.36 142.8C250.982 142.238 251.544 141.615 252.04 140.94C253.38 139.08 254.44 136.06 252.58 134.18C249.4 130.96 244.16 137.12 246.76 142.52C242.774 144.254 238.288 144.46 234.16 143.1C236.98 140.18 236.72 136.62 234.94 135.1C234.534 134.782 234.066 134.552 233.566 134.425C233.066 134.299 232.544 134.278 232.036 134.365C231.528 134.451 231.042 134.643 230.614 134.928C230.184 135.214 229.818 135.585 229.54 136.02C228.576 136.948 228.006 138.212 227.95 139.55C227.894 140.887 228.356 142.195 229.24 143.2C223.96 144.6 218.22 143.2 215.6 138.52C210.08 128.66 220.36 118.72 228.56 114.82C232.874 112.729 237.656 111.792 242.44 112.1C247.6 112.48 251.38 115.14 256.04 117.04C266.22 121.18 275.58 112.4 288.4 117.5C293.38 119.381 297.564 122.91 300.26 127.5C303.02 132.52 302.14 138.08 300.8 143.38C300.3 145.38 302.66 144.1 302.98 142.82C304.54 136.62 305.3 130.16 301.78 124.48C299.934 121.67 297.548 119.255 294.76 117.377C291.972 115.498 288.838 114.194 285.54 113.54C275.94 111.54 269.82 115.9 262.2 115.54C255.2 115.12 251.86 109.18 241.2 109.36C229.02 109.54 214.34 118.56 212.14 131.36C211 137.9 214.14 144.72 220.78 146.4L220.42 147.8C213.14 146.62 206.94 154.02 207.22 161.34C203.54 162.12 199.4 161.74 196.18 163.66C195.395 164.11 194.723 164.732 194.212 165.478C193.702 166.225 193.366 167.077 193.232 167.972C193.097 168.866 193.166 169.779 193.435 170.643C193.703 171.507 194.163 172.299 194.78 172.96C198.36 176.96 206.32 175.2 208.28 180.78C209.2 183.46 208.66 186.78 208.7 189.56C208.706 192.56 208.994 195.553 209.56 198.5C211.066 205.216 215.014 211.132 220.64 215.1C203.88 216.3 186.34 227.64 170.06 220.04C161.7 216.04 157.72 207.5 156.06 198.86C154.72 191.74 154.82 184.08 153.58 176.3C153.16 173.52 153.42 172.54 147.86 173C147.948 172.818 148.002 172.621 148.02 172.42C148.32 162.84 149.26 156.14 146.02 151.62C141.7 145.62 133.36 146.14 126.88 146.42C114.079 146.934 101.332 148.378 88.7398 150.74C86.1798 151.22 81.9598 151.22 80.1598 153.4C77.6598 156.46 80.3798 158 84.2798 158.78C80.9198 159.52 76.1398 160.14 76.5198 163.54C76.8798 166.56 81.7198 167.96 84.2198 168.36C83.4096 168.551 82.6194 168.819 81.8598 169.16C78.4198 170.7 77.8598 174.62 81.8598 175.86C84.8598 176.82 85.8598 175.86 99.2998 175.42C102.64 175.3 106.02 175.16 109.3 175.22C111.105 175.045 112.914 175.521 114.4 176.56C113.747 177.524 113.305 178.614 113.1 179.76C113.32 199.2 113.54 219.54 121.36 237.76C124.518 245.386 130.251 251.664 137.56 255.5C152.46 263.38 187.56 263.7 188.84 263.26C182.055 277.006 178.064 291.962 177.1 307.26C176.92 310.9 175.96 315.88 180.38 317.12C182.2 317.64 182.74 317.48 192.56 317.88C192 326.8 191.9 335.74 192.2 344.66C188.48 346.78 184.84 349.08 181.3 351.52C176.04 355.14 169.74 359.34 166.58 365.1C163.42 370.86 166.78 374.12 172.76 374.3C180.76 374.54 188.76 370.16 195.48 366.44C200.314 363.78 204.988 360.842 209.48 357.64C209.64 361.64 209.78 365.64 209.94 369.8C209.94 370.14 210.1 370.58 210.52 370.6C214.3 370.78 218.12 370.94 221.9 370.78C224.84 370.64 226.3 370.62 227.64 366.1C229.204 359.77 229.922 353.26 229.78 346.74C231.56 332.96 231.78 331.6 231.9 329.02C235.6 329.14 239.28 329.02 242.96 329.02C242.93 329.178 242.93 329.342 242.96 329.5C246.834 338.07 251.146 346.434 255.88 354.56C253.58 358.18 251.46 361.94 249.48 365.74C246.52 371.42 242.76 378.26 242.76 384.84C242.76 390.94 248.44 391.38 252.92 389C259.82 385.32 264.8 377.96 268.92 371.58C271.852 367.07 274.524 362.396 276.92 357.58C278.934 361.06 280.934 364.54 282.92 368.02C283.12 368.4 283.6 368.28 283.9 368.14C287.32 366.52 290.76 364.86 294.02 362.94C296.86 361.26 298.02 359.62 297.32 356.28C296.18 350.02 292.98 343.86 290.12 338.28C288.32 333.54 283.92 321.92 283.44 320.9C291.04 317.64 292.58 311.7 293.82 303.54C295.06 295.38 296.02 287.04 296.68 278.74C301.32 283.6 306.26 288.42 311.38 293.36C312.724 295.108 314.656 296.31 316.82 296.74C318.166 296.66 319.478 296.286 320.664 295.644C321.85 295 322.878 294.104 323.68 293.02C323.7 293.096 323.742 293.166 323.8 293.22C327.2 296.96 333.1 304.4 338.86 301.42C339.62 301.04 340.32 299.76 339.82 298.96C338.86 297.46 337.82 295.98 336.86 294.5L340.76 296.64C343.32 298.06 346 299.96 349.04 298.98C349.88 298.72 350.88 297.26 350.26 296.4C349.36 295.12 348.38 293.86 347.4 292.66C349.378 293.376 351.478 293.702 353.58 293.62C354.62 293.62 355.68 291.98 355.08 291.02C354.254 289.702 353.352 288.434 352.38 287.22C353.016 287.484 353.692 287.632 354.38 287.66C355.03 287.656 355.666 287.482 356.228 287.156C356.79 286.83 357.258 286.364 357.584 285.804C357.91 285.242 358.086 284.606 358.092 283.956C358.098 283.306 357.936 282.668 357.62 282.1ZM342.02 281.22C345.604 283.642 348.76 286.644 351.36 290.1C347.154 288.98 343.23 286.99 339.84 284.26C338.8 283.5 337.34 286.12 338.28 286.94C341.276 289.586 344.028 292.498 346.5 295.64C344.514 294.816 342.614 293.804 340.82 292.62L332.82 288.18C331.72 287.58 330.44 289.86 331.06 290.7C333.06 293.38 334.96 296.12 336.8 298.9C332.16 298.56 326.56 290.9 325.82 290.36C329.14 286.14 336.78 276.8 338.82 270.36C343.072 273.202 347.14 276.308 351 279.66C352.428 280.802 353.766 282.052 355 283.4C356.58 284.96 355 284.42 352.78 283.4C349.602 281.994 346.522 280.378 343.56 278.56C342.5 277.86 340.96 280.5 342 281.22H342.02ZM253.2 255.5C254.472 256.616 255.504 257.976 256.24 259.5C256.72 261.542 256.544 263.682 255.74 265.62C253.34 273.26 250.3 280.74 247.56 288.24C242.76 301.5 238.54 313.78 234.14 323.18C233.72 324.06 233.44 326.18 232.3 324.84C231.9 324.38 231.88 322.94 231.78 322.34C230.834 315.226 230.354 308.056 230.34 300.88C230.132 282.2 233.296 263.636 239.68 246.08C247.4 225.1 251.44 223.7 251.68 221.64C258.53 220.806 264.998 218.03 270.32 213.64L272.32 219.02C273.18 221.28 274.88 224.26 272.96 226.58C271.666 227.804 270.26 228.902 268.76 229.86C264.298 233.398 260.05 237.198 256.04 241.24C253.976 243.164 252.458 245.6 251.64 248.3C251.286 249.536 251.244 250.84 251.516 252.096C251.788 253.352 252.366 254.522 253.2 255.5ZM207.2 174.82C204.808 173.726 202.316 172.862 199.76 172.24C197.22 171.28 192.48 167.02 197.46 165.4C200.64 164.38 202.72 165.2 207.46 163.7C210.04 174.52 223.46 174.9 227.76 163.12L231.76 163.54C230.22 169.78 233.5 177.06 240.1 177.86C246.7 178.66 251.26 173.02 252.6 167.34C252.7 166.818 252.766 166.29 252.8 165.76C252.84 167.711 253.436 169.61 254.518 171.234C255.6 172.858 257.122 174.14 258.908 174.929C260.692 175.719 262.664 175.983 264.594 175.691C266.522 175.399 268.328 174.562 269.8 173.28C272.44 171 274.6 167.28 278.6 168.02C280.618 168.51 282.424 169.639 283.746 171.24C285.07 172.84 285.838 174.826 285.94 176.9C286.076 178.023 285.972 179.162 285.634 180.243C285.298 181.323 284.736 182.319 283.986 183.166C283.234 184.013 282.314 184.691 281.282 185.155C280.25 185.619 279.132 185.86 278 185.86C277.53 185.941 277.106 186.187 276.8 186.554C276.496 186.92 276.332 187.383 276.34 187.86C276.74 193.56 274.64 199.18 274.82 204.7C272.89 208.016 270.304 210.9 267.22 213.18C252.1 223.52 222.98 220.82 213.64 202.56C211.384 197.408 210.384 191.794 210.72 186.18C210.8 182 211.22 177.36 207.16 174.82H207.2ZM222.46 146.48C225.492 146.872 228.574 146.386 231.34 145.08C235.18 147.4 242.66 147.56 247.92 144.5C249.884 146.777 252.59 148.286 255.56 148.76C255.318 150.115 255.5 151.512 256.08 152.76C256.416 153.394 256.862 153.963 257.4 154.44C255.288 156.368 253.798 158.882 253.12 161.66C252.868 161.708 252.624 161.795 252.4 161.92C250.12 151.26 237.64 150.58 232.7 160.72L228.44 160.24C228.92 155.28 226.82 149.88 222.08 148.06C222.18 147.52 222.3 147 222.42 146.48H222.46ZM230.18 138.9C230.4 136.9 232.66 136.62 233.58 138.36C234.5 140.1 233.58 141.22 232.06 142.06C231.484 141.756 231.002 141.302 230.664 140.745C230.326 140.189 230.144 139.551 230.14 138.9H230.18ZM248.18 138.4C249.82 135.7 250.54 135.56 250.32 138.02C250.48 139.8 250.68 139.78 248.88 141.18C248.432 140.322 248.198 139.368 248.2 138.4H248.18ZM233.68 163.52C233.88 162.366 234.314 161.266 234.956 160.287C235.598 159.308 236.434 158.471 237.414 157.828C238.392 157.185 239.492 156.749 240.646 156.549C241.8 156.348 242.982 156.386 244.12 156.66C248.96 158.04 251.06 163.26 250.26 167.9C249.12 172.76 244.26 176.44 239.28 174.6C237.2 173.699 235.502 172.096 234.482 170.071C233.462 168.046 233.186 165.728 233.7 163.52H233.68ZM226 161.84C224.86 166.72 220 170.4 215.02 168.56C213.384 167.889 211.972 166.764 210.952 165.319C209.932 163.873 209.344 162.167 209.26 160.4C208.2 146.64 228.62 147.14 226 161.84ZM234.3 229.5C234.64 228.7 234.94 226.74 236.82 221.5C240.978 222.184 245.208 222.318 249.4 221.9C247.62 224.458 246.01 227.13 244.58 229.9C241.18 230.322 237.736 230.186 234.38 229.5H234.3ZM224.3 217.28C225.2 217.78 226.14 218.22 227.1 218.64C225.766 221.306 224.434 223.974 223.1 226.64C221.864 226.224 220.796 225.416 220.06 224.34C221.24 222.08 222.46 219.84 223.74 217.62C223.948 217.546 224.14 217.432 224.3 217.28ZM228.3 220.22C228.542 219.98 228.744 219.704 228.9 219.4C230.854 220.106 232.86 220.662 234.9 221.06C234.36 222.3 232.9 226.94 232.4 229.06C228.88 228.3 226.66 227.6 224.82 227.06C226 224.84 227.2 222.52 228.4 220.22H228.3ZM218.46 227.24C220.6 230.16 226.06 230.76 229.26 231.52C233.766 232.73 238.454 233.128 243.1 232.7C233.864 252.104 228.776 273.22 228.16 294.7C220.868 293.724 213.514 293.296 206.16 293.42C203.798 293.25 201.424 293.392 199.1 293.84C201.538 270.652 208.13 248.092 218.56 227.24H218.46ZM227.62 345.44L194.34 343.62C194 334.7 194.12 325.62 194.6 317.62C194.979 317.654 195.361 317.654 195.74 317.62C196.172 317.498 196.552 317.236 196.817 316.874C197.081 316.51 197.216 316.068 197.2 315.62C196.85 311.474 196.95 307.304 197.5 303.18C197.522 301.232 197.93 299.308 198.7 297.52C199.84 296.1 202.7 296.5 204.52 296.46C208.774 296.38 213.014 296.48 217.24 296.76C217.24 297.3 217.08 296.88 220.62 303.34C221.24 304.5 223.14 302.06 222.62 301L220.44 297C222.88 297.22 225.32 297.48 227.98 297.84C227.98 298.04 228.48 320.34 228.66 321.7C228.96 323.7 229.66 325.7 229.76 327.88C229.86 330.06 229.82 329.22 227.72 345.44H227.62ZM295.62 209.44C296.48 208.24 299.02 210.08 297.82 213.26C297.252 212.776 296.76 212.21 296.36 211.58C296.26 211.28 295.4 210 295.74 209.5L295.62 209.44ZM306.32 188.78C305.806 188.549 305.348 188.207 304.98 187.78C304.06 186.26 305.58 185.98 306.86 185.96C307.93 185.995 308.984 186.246 309.956 186.696C310.928 187.146 311.8 187.786 312.52 188.58C310.606 189.464 308.422 189.558 306.44 188.84L306.32 188.78ZM261.26 144.54C261.54 145.2 259.76 145.88 259.5 145.96C259.206 146.034 258.904 146.074 258.6 146.08C259.1 145.46 260.9 143.62 261.26 144.54ZM150.96 176C151.64 176.78 151.52 179.56 151.64 180.52C152.1 184.3 152.32 188.32 152.72 192.68C141.713 199.426 129.142 203.196 116.24 203.62C115.52 195.36 115.4 187.06 115.32 178.76C125.987 177.56 136.693 176.56 147.44 175.76C148.32 175.68 150.24 175.18 150.96 176ZM117.32 175.8C116.44 172.74 113.12 172.18 110.34 172.14C93.8798 171.88 86.5598 174.14 82.9398 172.8C82.5198 172.64 81.6798 172.46 81.5798 171.92C81.4798 171.38 82.2398 171.38 82.7798 171.22C87.929 169.922 93.1614 168.98 98.4398 168.4C99.3998 168.4 100.6 165.8 99.2398 165.58C95.377 165.34 91.5028 165.34 87.6398 165.58C85.3398 165.58 80.4398 164.94 78.9198 162.5C80.0322 162.16 81.1688 161.906 82.3198 161.74C87.0946 160.687 91.9212 159.886 96.7798 159.34C97.7598 159.22 98.7798 156.48 97.5798 156.52C93.3628 156.818 89.1252 156.603 84.9598 155.88C83.5798 155.58 80.1998 154.8 82.0598 154.6C97.8552 151.268 113.922 149.387 130.06 148.98C139.68 148.98 145.78 151.68 146.06 161.32C146.06 165.14 145.74 173.32 145.74 173.08C139.76 173.7 127.66 174.66 117.32 175.8ZM190.44 260C188.96 260.42 153.14 260.74 137.68 251.74C122.22 242.74 118.26 224 116.5 206.42C129.411 205.784 141.952 201.896 152.96 195.12C155.6 218.48 167.68 228.3 190.48 224.1C200.7 222.1 210.48 217.92 220.9 217.62C205.12 234.32 194.1 251.48 190.44 260ZM183.54 314.38C181.54 314.2 179.54 313.74 179.2 311.4C179.042 309.4 179.089 307.39 179.34 305.4C181.16 274.4 197.6 245.9 218.7 222.96C201.56 255.5 199.44 278.96 195.62 302.22C194.944 306.398 194.716 310.634 194.94 314.86C192.94 314.86 185.54 314.5 183.54 314.34V314.38ZM287.64 338.38L258.46 352C258.208 352 257.962 351.938 257.74 351.82C257.02 351.44 256.16 349.1 255.74 348.38C252.3 342.28 249.22 336.28 246.18 329.68C251.92 329.36 257.58 327.68 263.28 326.88C269.492 326.168 275.586 324.642 281.4 322.34C282.24 324 282.24 324 287.64 338.36V338.38ZM292.14 301.72C291.866 305.406 291.12 309.044 289.92 312.54C288.26 316.34 284.28 317.8 280.62 319.02C265.86 323.926 250.37 326.274 234.82 325.96C239.08 318.16 247.02 295.3 254.24 275.44C255.782 271.628 257.116 267.736 258.24 263.78C258.754 262.264 258.878 260.644 258.602 259.068C258.326 257.492 257.658 256.01 256.66 254.76C255.06 252.98 253.4 251.68 253.56 249C253.72 246.32 256 244 258 242C261.412 238.648 264.988 235.472 268.72 232.48C271.52 230.22 275.6 228.14 276.2 224.26C276.58 221.82 275.5 219.42 274.2 216.26C290.9 228.66 306.52 242.5 323.38 254.7C319.05 261.242 314.174 267.404 308.8 273.12C306.9 275.12 304.64 278.2 301.84 278.86H301.62C294.476 271.736 287.916 264.052 282 255.88C281.22 254.76 279.38 257.24 280 258.24C284.536 264.572 289.502 270.586 294.86 276.24C294.28 284.76 293.38 293.26 292.14 301.7V301.72ZM319.24 293.36C316.42 294.16 314.3 291.36 312.5 289.66L303.42 280.74C304.9 279.768 306.246 278.606 307.42 277.28C313.93 270.686 319.772 263.464 324.86 255.72C328.56 258.28 333.5 260.7 336.04 264.4C339.62 269.64 333.32 277.28 330.24 281.52C328.78 283.52 327.22 285.52 325.64 287.38C324.06 289.24 322 292.56 319.24 293.34V293.36Z" fill="#0D128A"/>
<path d="M134.58 64.44C137.297 64.096 139.801 62.7886 141.636 60.7554C143.471 58.7222 144.515 56.0982 144.58 53.36C144.631 51.9446 144.38 50.5344 143.845 49.2232C143.309 47.9118 142.502 46.7292 141.475 45.7534C140.448 44.7778 139.226 44.0314 137.889 43.5636C136.552 43.0958 135.131 42.9174 133.72 43.04C130.961 43.3858 128.422 44.7266 126.581 46.8106C124.74 48.8948 123.723 51.5792 123.72 54.36C123.722 55.7502 124.01 57.1252 124.567 58.3992C125.123 59.6732 125.936 60.8186 126.955 61.7644C127.974 62.7102 129.177 63.436 130.489 63.8962C131.801 64.3566 133.193 64.5418 134.58 64.44ZM135 46C137.017 46.322 138.858 47.3406 140.203 48.8788C141.547 50.417 142.311 52.3776 142.36 54.42C142 64.88 126 63.02 126 53.12C126.05 52.0332 126.332 50.9698 126.829 50.0016C127.325 49.0334 128.023 48.1832 128.877 47.5082C129.73 46.8332 130.718 46.3492 131.775 46.089C132.831 45.8288 133.931 45.7984 135 46Z" fill="#0D128A"/>
<path d="M109.34 51.5C111.09 51.2268 112.69 50.3526 113.865 49.0278C115.04 47.7028 115.717 46.01 115.78 44.24C115.826 43.329 115.673 42.4188 115.333 41.5726C114.993 40.7262 114.473 39.9638 113.809 39.3382C113.146 38.7124 112.354 38.2384 111.489 37.9486C110.624 37.6588 109.706 37.5604 108.8 37.66C107.027 37.9742 105.42 38.9014 104.262 40.2796C103.103 41.6578 102.465 43.3994 102.46 45.2C102.456 46.0784 102.636 46.948 102.988 47.7528C103.341 48.5576 103.857 49.2798 104.505 49.873C105.153 50.4664 105.918 50.9176 106.75 51.1978C107.583 51.478 108.465 51.5808 109.34 51.5ZM109.5 40.54C110.598 40.7446 111.593 41.3182 112.32 42.1656C113.048 43.013 113.464 44.0836 113.5 45.2C113.2 50.78 104.54 48.98 104.66 43.96C104.702 43.3952 104.868 42.8466 105.147 42.3536C105.426 41.8606 105.811 41.4354 106.273 41.1086C106.736 40.7816 107.265 40.5612 107.823 40.463C108.381 40.3646 108.953 40.391 109.5 40.54Z" fill="#0D128A"/>
<path d="M141.72 30.52C143.46 28.783 144.47 26.4468 144.545 23.9894C144.619 21.532 143.752 19.139 142.12 17.3C141.262 16.4746 140.249 15.8284 139.139 15.399C138.029 14.9697 136.844 14.7658 135.655 14.7993C134.465 14.8328 133.294 15.1031 132.209 15.5942C131.125 16.0854 130.15 16.7876 129.34 17.66C127.603 19.3996 126.596 21.7372 126.525 24.1946C126.455 26.652 127.326 29.0434 128.96 30.88C129.813 31.7098 130.824 32.36 131.933 32.7922C133.042 33.2244 134.226 33.4298 135.416 33.3962C136.606 33.3626 137.777 33.0908 138.859 32.5968C139.942 32.1028 140.915 31.3966 141.72 30.52ZM130.7 19.12C132.078 18.0486 133.798 17.513 135.541 17.6123C137.284 17.7116 138.932 18.439 140.18 19.66C142.6 22.28 143.38 26.52 140.36 29.06C138.984 30.1338 137.265 30.673 135.523 30.5774C133.78 30.4818 132.13 29.758 130.88 28.54C130.222 27.9498 129.693 27.2306 129.325 26.427C128.957 25.6234 128.758 24.7528 128.741 23.8692C128.725 22.9854 128.89 22.1078 129.227 21.2908C129.564 20.4738 130.065 19.7348 130.7 19.12Z" fill="#0D128A"/>
<path d="M275.16 280.22C269.16 280.42 263.06 280.84 257.02 281.44C256.16 281.44 255.38 283.16 255.74 283.9C255.662 284.006 255.596 284.12 255.54 284.24C253.36 289.6 252.76 291.82 258.54 292C258.22 296.28 257.76 302 259.56 306C261.36 310 267.56 309.3 271.06 309.02C274.56 308.74 277.88 307.26 279.06 303.54C279.76 301.26 279.58 299.26 279.56 290.34L281.74 289.96C282.6 289.82 283.08 288.68 283.14 287.96C283.26 285.96 283.44 282.4 281.98 280.86C280.52 279.32 277.04 280.16 275.16 280.22ZM277.3 300.7C277.12 306.1 274 306.36 268.44 306.2C266.684 306.316 264.92 306.106 263.24 305.58C261.64 304.82 261.24 303.08 261.08 301.58C260.64 298.434 260.52 295.25 260.72 292.08C266.264 292.206 271.808 291.756 277.26 290.74C277.3 294 277.4 297.36 277.3 300.7ZM280.62 284.8C280.86 285.624 280.968 286.482 280.94 287.34C273.986 288.796 266.874 289.348 259.78 288.98C259 288.98 256.86 288.98 256.34 288.36C255.82 287.74 257.44 284.78 257.62 284.14C262.1 283.72 266.6 283.38 271.1 283.18C273.416 282.908 275.752 282.834 278.08 282.96C279.46 283.16 280.12 283.3 280.62 284.8Z" fill="#0D128A"/>
<path d="M316.48 278C313.98 277.24 312.12 280 311.16 281.82C310.886 282.234 310.708 282.702 310.636 283.194C310.566 283.684 310.604 284.184 310.75 284.658C310.894 285.132 311.144 285.568 311.478 285.936C311.81 286.302 312.222 286.59 312.68 286.78C313.838 287.01 315.04 286.792 316.046 286.174C317.05 285.554 317.784 284.578 318.1 283.44C318.76 281.68 318.72 278.7 316.48 278ZM316.24 282.66C316.08 284.9 312.4 284.32 313.14 282.04C313.264 281.728 313.458 281.452 313.708 281.228C313.958 281.006 314.256 280.846 314.58 280.76C315.66 280.62 316.3 281.72 316.24 282.68V282.66Z" fill="#0D128A"/>
<path d="M143.46 182.8C142.395 183.033 141.423 183.578 140.668 184.365C139.913 185.152 139.409 186.146 139.22 187.22C139.183 187.723 139.253 188.228 139.423 188.702C139.594 189.176 139.863 189.609 140.212 189.973C140.56 190.337 140.982 190.623 141.448 190.814C141.915 191.005 142.416 191.095 142.92 191.08C144.015 190.913 145.02 190.374 145.766 189.555C146.512 188.736 146.955 187.686 147.02 186.58C147.059 186.092 146.996 185.602 146.834 185.14C146.672 184.678 146.415 184.256 146.079 183.9C145.744 183.544 145.337 183.262 144.886 183.072C144.435 182.883 143.949 182.79 143.46 182.8ZM144.78 187.7C144.52 188.44 143.26 188.3 142.78 188.06C142.423 187.925 142.121 187.674 141.922 187.348C141.722 187.023 141.637 186.64 141.68 186.26C141.74 184.8 145.38 186.1 144.78 187.7Z" fill="#0D128A"/>
<path d="M125.04 159.7C119.733 159.997 114.453 160.665 109.24 161.7C108.1 161.9 107.24 164.8 108.72 164.5C113.435 163.545 118.204 162.877 123 162.5C127.16 162.22 131.84 162.5 134.04 166.5C134.64 167.66 136.54 165.24 136.04 164.16C133.82 160.28 129.24 159.5 125.04 159.7Z" fill="#0D128A"/>
<path d="M274.68 177.16C275.4 177.04 275.9 176.12 276.04 175.48C276.2 174.971 276.516 174.525 276.942 174.206C277.37 173.886 277.886 173.709 278.42 173.7C280.04 173.7 280.6 170.78 279.48 170.86C278.11 170.991 276.82 171.563 275.804 172.49C274.786 173.417 274.098 174.648 273.84 176C273.72 176.62 274 177.28 274.68 177.16Z" fill="#0D128A"/>
<path d="M256.46 186.52C254.898 184.587 252.64 183.345 250.17 183.06C247.702 182.776 245.22 183.473 243.26 185C242.142 186.29 241.202 187.723 240.46 189.26C238.46 192.12 234.72 192.26 231.68 192.98C226.04 194.3 222.76 200.78 227.34 205.26C229.48 207.108 232.014 208.446 234.748 209.17C237.482 209.894 240.344 209.986 243.12 209.44C254.52 206.94 260.9 192.34 256.46 186.52ZM233.78 198.28C233.428 198.691 232.966 198.993 232.45 199.153C231.934 199.312 231.382 199.321 230.86 199.18C230.298 199.014 229.786 198.709 229.374 198.293C228.962 197.877 228.66 197.363 228.5 196.8C230.144 195.866 231.99 195.338 233.88 195.26C234.242 196.241 234.206 197.325 233.78 198.28ZM239.36 196.88C238 197.68 235.5 196.26 234.16 195.2C236.878 194.81 239.368 193.463 241.18 191.4C241.536 192.385 241.552 193.462 241.22 194.456C240.89 195.45 240.236 196.304 239.36 196.88ZM241.54 191.06C243.84 188.3 242.94 186.46 247.28 185.98C251.36 189.8 245.34 196.34 241.54 191.06ZM245 206.18C244.486 204.666 244.382 203.044 244.698 201.476C245.014 199.91 245.738 198.454 246.798 197.258C247.858 196.061 249.216 195.167 250.734 194.665C252.252 194.163 253.876 194.072 255.44 194.4C254.874 197.102 253.612 199.609 251.782 201.674C249.952 203.74 247.614 205.294 245 206.18Z" fill="#0D128A"/>
<path d="M134.96 135.84C123.488 141.099 111.207 144.372 98.64 145.52C98.16 147.565 97.7928 149.635 97.54 151.72C97.54 152.38 97.34 151.98 97.78 152.24C99.5916 152.977 101.524 153.37 103.48 153.4C110.8 154.24 125.14 154.64 134.14 152.92C135.71 152.743 137.235 152.282 138.64 151.56C137.746 146.248 136.517 140.997 134.96 135.84Z" fill="#6CECC4"/>
<path d="M126.12 101.62C125.623 100.777 124.928 100.069 124.095 99.5568C123.262 99.0444 122.316 98.7434 121.34 98.68C121.798 97.9584 121.998 97.1026 121.907 96.2526C121.816 95.4028 121.44 94.6086 120.84 94C119.92 94 116.32 94 115.42 94C114.983 94.4568 114.667 95.016 114.502 95.6264C114.337 96.2366 114.328 96.8786 114.475 97.4934C114.622 98.1084 114.922 98.6764 115.345 99.1458C115.769 99.6152 116.303 99.9708 116.9 100.18C116.451 100.583 116.06 101.048 115.74 101.56C115.387 101.038 114.909 100.613 114.35 100.322C113.79 100.032 113.167 99.8866 112.537 99.8984C111.907 99.9104 111.29 100.08 110.742 100.391C110.194 100.702 109.733 101.145 109.4 101.68C109.615 102.199 109.664 102.772 109.54 103.32C108.02 108.88 104.82 120.68 104.72 121.08C111.266 120.108 117.716 118.575 124 116.5L123.7 115.5C123.36 114.36 125.42 112.12 125.88 113.64C126.08 114.3 126.26 114.96 126.46 115.64L128.86 114.74C128.2 112.52 127.54 110.3 126.86 108.1C126 105.18 125.02 104.42 126.12 101.62Z" fill="#FF3E74"/>
<path d="M102 131.54C101.46 133.54 100.96 135.7 100.44 137.78C109.944 136.743 119.279 134.505 128.22 131.12C127.72 129.3 127.22 127.46 126.7 125.64C118.715 128.53 110.429 130.509 102 131.54Z" fill="#FF3E74"/>
<path d="M129.12 124.72C129.64 126.54 130.12 128.36 130.62 130.18L133.1 129.12C132.6 127.32 132.08 125.52 131.56 123.74L129.12 124.72Z" fill="#FF3E74"/>
<path d="M130.62 130.18L131.82 134.74C132.12 135.86 130.04 138.1 129.66 136.6L128.22 131.12C119.279 134.505 109.944 136.743 100.44 137.78C100.16 138.94 98.9398 144.1 98.6398 145.52C111.207 144.372 123.488 141.099 134.96 135.84C134.36 133.6 133.74 131.36 133.1 129.12L130.62 130.18Z" fill="#FF3E74"/>
<path d="M104.72 121.1C103.8 124.58 102.88 128 102 131.54C110.429 130.509 118.715 128.53 126.7 125.64C125.84 122.58 124.94 119.64 124.02 116.5C117.73 118.583 111.273 120.122 104.72 121.1Z" fill="white"/>
<path d="M128.88 114.74L126.48 115.64C127.4 118.66 128.28 121.64 129.12 124.72L131.56 123.74C130.94 121.64 129.16 115.64 128.88 114.74Z" fill="white"/>
<path d="M140.96 150.46C140.565 146.905 139.807 143.401 138.7 140C135.08 125.62 128 103.02 128 102.8C128.54 101.64 127.08 105.16 133.32 90.38C134.24 88.18 130.76 87.66 128.56 87.3C124.162 86.6842 119.716 86.4766 115.28 86.68C109.46 86.88 99.2798 86.94 102.1 92.68C107.6 104.16 106.76 103.02 107.42 103.82C104.8 113.1 97.4198 140.36 95.7198 149.82C95.5198 150.96 94.8798 153.1 95.5798 154.2C96.2798 155.3 98.6598 155.54 99.8598 155.74C110.159 157.058 120.579 157.146 130.9 156C134 155.74 141.08 155.06 140.96 150.46ZM129.18 90.46C121.61 91.5696 113.915 91.5224 106.36 90.32C113.93 89.2478 121.615 89.268 129.18 90.38V90.46ZM113.08 154C110.66 154 100.14 153.56 97.7798 152.22C97.3398 151.96 97.5598 152.36 97.5398 151.7C97.5398 146.6 109.4 104.04 109.54 103.32C109.644 102.771 109.595 102.204 109.4 101.68C109.12 100.82 109.52 101.94 105.28 93.1C108.626 93.702 112.02 94.0032 115.42 94C120.363 94.2238 125.315 93.8274 130.16 92.82L128.16 97.36C127.66 98.5 126.68 100.08 126.16 101.6C125.06 104.42 126.02 105.18 126.92 108.08C126.92 108.3 134.42 133.14 136.92 142.92C137.716 145.751 138.33 148.63 138.76 151.54C131 154.34 121.28 154.26 113.08 154Z" fill="#0D128A"/>
</svg>
