<svg width="400" height="400" viewBox="0 0 400 400" fill="none" xmlns="http://www.w3.org/2000/svg">
<path d="M40 200C40 242.435 56.8571 283.131 86.8629 313.137C116.869 343.143 157.565 360 200 360C242.435 360 283.131 343.143 313.137 313.137C343.143 283.131 360 242.435 360 200C360 157.565 343.143 116.869 313.137 86.8629C283.131 56.8571 242.435 40 200 40C157.565 40 116.869 56.8571 86.8629 86.8629C56.8571 116.869 40 157.565 40 200Z" fill="#E8F4FA" stroke="#DAEDF7" stroke-width="4"/>
<path opacity="0.15" d="M244 322.612C244 319.3 224.3 316.612 200 316.612C175.7 316.612 156 319.3 156 322.612C156 325.924 175.7 328.612 200 328.612C224.3 328.612 244 325.924 244 322.612Z" fill="#45413C"/>
<path d="M246.296 197.392L203.764 112.328C203.415 111.629 202.877 111.041 202.212 110.63C201.548 110.219 200.782 110.001 200 110.001C199.218 110.001 198.452 110.219 197.787 110.63C197.123 111.041 196.585 111.629 196.236 112.328L153.704 197.392L99.7759 150.652C99.1134 150.076 98.2871 149.721 97.413 149.638C96.5388 149.555 95.6605 149.747 94.9011 150.188C94.1417 150.629 93.5393 151.297 93.1783 152.097C92.8173 152.897 92.7158 153.791 92.8879 154.652L115.824 273.168C115.824 273.168 115.824 294.212 200 294.212C284.176 294.212 284.176 273.168 284.176 273.168L307.112 154.652C307.284 153.791 307.183 152.897 306.822 152.097C306.461 151.297 305.858 150.629 305.099 150.188C304.339 149.747 303.461 149.555 302.587 149.638C301.713 149.721 300.887 150.076 300.224 150.652L246.296 197.392Z" fill="#FFE500"/>
<path d="M246.296 197.392L203.764 112.328C203.415 111.629 202.877 111.041 202.212 110.63C201.548 110.219 200.782 110.001 200 110.001C199.218 110.001 198.452 110.219 197.787 110.63C197.123 111.041 196.585 111.629 196.236 112.328L153.704 197.392L99.7759 150.652C99.1134 150.076 98.2871 149.721 97.413 149.638C96.5388 149.555 95.6605 149.747 94.9011 150.188C94.1417 150.629 93.5393 151.297 93.1783 152.097C92.8173 152.897 92.7158 153.791 92.8879 154.652L115.824 273.168C115.824 273.168 115.824 294.212 200 294.212C284.176 294.212 284.176 273.168 284.176 273.168L307.112 154.652C307.284 153.791 307.183 152.897 306.822 152.097C306.461 151.297 305.858 150.629 305.099 150.188C304.339 149.747 303.461 149.555 302.587 149.638C301.713 149.721 300.887 150.076 300.224 150.652L246.296 197.392Z" fill="#FFE500"/>
<path d="M305.088 150.188C304.33 149.75 303.454 149.559 302.582 149.643C301.71 149.726 300.886 150.079 300.224 150.652L246.296 197.392L203.764 112.328C203.415 111.629 202.877 111.041 202.212 110.63C201.548 110.219 200.782 110.001 200 110.001C199.218 110.001 198.452 110.219 197.787 110.63C197.123 111.041 196.585 111.629 196.236 112.328L153.704 197.392L99.7759 150.652C99.1134 150.076 98.2871 149.721 97.413 149.638C96.5388 149.555 95.6605 149.747 94.9011 150.188C94.1417 150.629 93.5393 151.297 93.1783 152.097C92.8173 152.897 92.7158 153.791 92.8879 154.652L115.824 273.168C115.824 273.168 115.824 294.212 200 294.212C284.176 294.212 284.172 273.168 284.172 273.168L307.112 154.652C307.283 153.79 307.18 152.895 306.817 152.095C306.454 151.294 305.849 150.627 305.088 150.188ZM271.424 269.536C268.876 271.74 254.916 280.984 200 280.984C145.084 280.984 131.12 271.74 128.576 269.536L112.612 187.056C112.482 186.382 112.566 185.684 112.851 185.06C113.136 184.436 113.609 183.916 114.203 183.572C114.797 183.229 115.484 183.079 116.167 183.143C116.85 183.208 117.496 183.483 118.016 183.932L154.692 215.72C155.072 216.05 155.523 216.289 156.01 216.417C156.496 216.546 157.006 216.562 157.5 216.464C157.994 216.365 158.458 216.155 158.858 215.849C159.258 215.544 159.583 215.151 159.808 214.7L197.048 140.232C197.322 139.684 197.743 139.222 198.265 138.9C198.786 138.578 199.387 138.407 200 138.407C200.613 138.407 201.214 138.578 201.735 138.9C202.257 139.222 202.678 139.684 202.952 140.232L240.188 214.704C240.414 215.154 240.739 215.546 241.139 215.851C241.539 216.156 242.004 216.365 242.498 216.463C242.991 216.561 243.5 216.545 243.987 216.416C244.473 216.287 244.924 216.049 245.304 215.72L281.984 183.936C282.503 183.486 283.149 183.21 283.833 183.145C284.516 183.08 285.203 183.23 285.797 183.574C286.391 183.918 286.864 184.438 287.148 185.063C287.432 185.688 287.515 186.386 287.384 187.06L271.424 269.536Z" fill="#FFF48C"/>
<path d="M112.216 254.496L115.816 273.148C115.816 273.148 115.816 294.192 199.992 294.192C284.168 294.192 284.168 273.148 284.168 273.148L287.768 254.496C279.688 260.668 258.032 268.936 199.984 268.936C141.936 268.936 120.296 260.668 112.216 254.496Z" fill="#EBCB00"/>
<path d="M127.004 261.408C121.707 259.981 116.699 257.642 112.204 254.496L115.804 273.148C115.804 273.148 115.804 280.488 133.14 286.496L127.004 261.408Z" fill="#FFE500"/>
<path d="M269.476 285.52C284.176 279.72 284.176 273.148 284.176 273.148L287.776 254.496C283.651 257.408 279.07 259.613 274.22 261.02L269.476 285.52Z" fill="#FFE500"/>
<path d="M112.216 254.496C120.296 260.668 141.952 268.94 200 268.94C258.048 268.94 279.704 260.668 287.784 254.496" stroke="#45413C" stroke-width="4" stroke-linecap="round" stroke-linejoin="round"/>
<path d="M246.296 197.392L203.764 112.328C203.415 111.629 202.877 111.041 202.212 110.63C201.548 110.219 200.782 110.001 200 110.001C199.218 110.001 198.452 110.219 197.787 110.63C197.123 111.041 196.585 111.629 196.236 112.328L153.704 197.392L99.7759 150.652C99.1134 150.076 98.2871 149.721 97.413 149.638C96.5388 149.555 95.6605 149.747 94.9011 150.188C94.1417 150.629 93.5393 151.297 93.1783 152.097C92.8173 152.897 92.7158 153.791 92.8879 154.652L115.824 273.168C115.824 273.168 115.824 294.212 200 294.212C284.176 294.212 284.176 273.168 284.176 273.168L307.112 154.652C307.284 153.791 307.183 152.897 306.822 152.097C306.461 151.297 305.858 150.629 305.099 150.188C304.339 149.747 303.461 149.555 302.587 149.638C301.713 149.721 300.887 150.076 300.224 150.652L246.296 197.392Z" stroke="#45413C" stroke-width="4" stroke-linecap="round" stroke-linejoin="round"/>
<path d="M279.516 95.484C280.054 93.1522 281.236 91.0184 282.927 89.326C284.619 87.6336 286.752 86.4506 289.084 85.912L308.284 81.48C308.634 81.3963 308.945 81.1972 309.168 80.9149C309.39 80.6326 309.511 80.2836 309.511 79.924C309.511 79.5645 309.39 79.2154 309.168 78.9331C308.945 78.6508 308.634 78.4518 308.284 78.368L289.084 73.936C286.752 73.398 284.619 72.2158 282.926 70.5241C281.234 68.8325 280.051 66.6994 279.512 64.368L275.08 45.168C274.996 44.8184 274.797 44.5071 274.515 44.2844C274.233 44.0618 273.884 43.9407 273.524 43.9407C273.164 43.9407 272.815 44.0618 272.533 44.2844C272.251 44.5071 272.052 44.8184 271.968 45.168L267.54 64.368C267.002 66.7001 265.819 68.8341 264.126 70.5265C262.434 72.2189 260.3 73.4017 257.968 73.94L238.768 78.368C238.418 78.4518 238.107 78.6508 237.884 78.9331C237.662 79.2154 237.541 79.5645 237.541 79.924C237.541 80.2836 237.662 80.6326 237.884 80.9149C238.107 81.1972 238.418 81.3963 238.768 81.48L257.968 85.912C260.3 86.4504 262.434 87.6332 264.126 89.3256C265.819 91.018 267.002 93.1519 267.54 95.484L271.968 114.684C272.052 115.034 272.251 115.345 272.533 115.568C272.815 115.79 273.164 115.911 273.524 115.911C273.884 115.911 274.233 115.79 274.515 115.568C274.797 115.345 274.996 115.034 275.08 114.684L279.516 95.484Z" fill="#FFF48C" stroke="#B58B00" stroke-width="4" stroke-linecap="round" stroke-linejoin="round"/>
<path d="M129.008 113.928C129.435 112.076 130.374 110.382 131.718 109.038C133.062 107.694 134.756 106.755 136.608 106.328L151.844 102.812C152.125 102.75 152.376 102.593 152.556 102.369C152.736 102.145 152.834 101.866 152.834 101.578C152.834 101.29 152.736 101.011 152.556 100.787C152.376 100.563 152.125 100.406 151.844 100.344L136.604 96.828C134.752 96.4015 133.057 95.4627 131.713 94.1188C130.369 92.7749 129.431 91.0801 129.004 89.228L125.492 74C125.426 73.7221 125.269 73.4745 125.045 73.2973C124.821 73.1201 124.544 73.0237 124.258 73.0237C123.972 73.0237 123.695 73.1201 123.471 73.2973C123.247 73.4745 123.09 73.7221 123.024 74L119.508 89.232C119.083 91.0849 118.145 92.7807 116.801 94.1248C115.457 95.469 113.761 96.4073 111.908 96.832L96.676 100.348C96.3981 100.414 96.1505 100.571 95.9733 100.795C95.7961 101.019 95.6997 101.296 95.6997 101.582C95.6997 101.868 95.7961 102.145 95.9733 102.369C96.1505 102.593 96.3981 102.75 96.676 102.816L111.908 106.332C113.76 106.758 115.455 107.697 116.799 109.041C118.143 110.385 119.082 112.08 119.508 113.932L123.024 129.172C123.086 129.453 123.243 129.704 123.467 129.884C123.691 130.064 123.97 130.162 124.258 130.162C124.546 130.162 124.825 130.064 125.049 129.884C125.274 129.704 125.43 129.453 125.492 129.172L129.008 113.928Z" fill="#FFF48C" stroke="#B58B00" stroke-width="4" stroke-linecap="round" stroke-linejoin="round"/>
<path d="M375.868 207.328C376.215 205.836 376.974 204.471 378.058 203.387C379.142 202.304 380.507 201.547 382 201.2L394.34 198.352C394.565 198.298 394.765 198.171 394.908 197.989C395.052 197.808 395.13 197.583 395.13 197.352C395.13 197.121 395.052 196.896 394.908 196.715C394.765 196.533 394.565 196.406 394.34 196.352L382 193.488C380.502 193.142 379.131 192.382 378.044 191.295C376.956 190.208 376.195 188.838 375.848 187.34L373.004 175.004C372.95 174.779 372.823 174.579 372.641 174.436C372.46 174.292 372.235 174.214 372.004 174.214C371.773 174.214 371.548 174.292 371.367 174.436C371.185 174.579 371.058 174.779 371.004 175.004L368.16 187.34C367.813 188.838 367.052 190.208 365.965 191.295C364.877 192.382 363.506 193.142 362.008 193.488L349.676 196.332C349.451 196.386 349.251 196.513 349.107 196.695C348.964 196.876 348.886 197.101 348.886 197.332C348.886 197.563 348.964 197.788 349.107 197.969C349.251 198.151 349.451 198.278 349.676 198.332L362.008 201.18C363.506 201.525 364.877 202.285 365.964 203.372C367.051 204.459 367.811 205.83 368.156 207.328L371.004 219.668C371.058 219.893 371.185 220.093 371.367 220.236C371.548 220.38 371.773 220.458 372.004 220.458C372.235 220.458 372.46 220.38 372.641 220.236C372.823 220.093 372.95 219.893 373.004 219.668L375.868 207.328Z" fill="#FFF48C" stroke="#B58B00" stroke-width="4" stroke-linecap="round" stroke-linejoin="round"/>
</svg>
