<svg width="400" height="400" viewBox="0 0 400 400" fill="none" xmlns="http://www.w3.org/2000/svg">
<path d="M328.4 98.24C333.4 92.52 342.12 90.86 345.14 100.24C348.16 109.62 346.08 120.82 348.88 123.74C351.68 126.66 371.42 129.42 382.66 139.44C393.9 149.46 392.92 162.08 374.5 168.46C356.08 174.84 329.84 172.3 329.84 172.3L328.4 98.24Z" fill="#FEF0BB"/>
<path d="M25.8 155.12C23.34 155.12 16.1 148.34 13.06 151.12C10.02 153.9 16.32 162.46 15.28 165.28C14.24 168.1 9.08 172 10.94 176.4C12.8 180.8 20.08 175.94 21.36 176.76C22.64 177.58 23.04 188.26 25.86 188.52C28.68 188.78 29.4 174.52 30.58 173.36C31.76 172.2 43.92 173.54 44.38 171C44.84 168.46 34.22 163.54 33.76 162.36C33.3 161.18 39.76 152.36 37.66 150.02C35.56 147.68 28 155.14 25.8 155.12Z" fill="#FEF0BB"/>
<path d="M135.8 127.88C135.1 121.64 134.92 108.74 137.06 107.14C139.2 105.54 160.8 104 172 103.46C183.2 102.92 221.48 106.58 228.6 105.7C235.72 104.82 248.76 101.2 254.14 103.96C259.52 106.72 259.88 111.7 259.14 116.82C258.065 128.22 257.811 139.683 258.38 151.12C259.2 158.12 259.74 165.86 257.3 168.68C254.86 171.5 248.92 170.68 245.44 171.92C241.96 173.16 240 176 238 174.5C236 173 234.76 165.7 236.7 163.44C236.7 163.44 243 165.44 243.96 163.76C244.92 162.08 243.58 115.36 242.4 114.66C241.22 113.96 203.48 113.58 196.72 113.7C189.96 113.82 143.22 113.7 141.68 114.76C140.14 115.82 141.68 127.94 141.68 127.94L135.8 127.88Z" fill="#FEF0BB"/>
<path d="M272 236.86C274.84 233.52 279.38 234.72 281.46 238.6C283.54 242.48 286.28 246.98 284.62 253.54C282.96 260.1 278.9 261.38 275.24 261.32C273.097 261.329 271.002 260.68 269.24 259.46C268.52 255.14 268.78 255.14 268.52 253.46C267.507 250.073 267.466 246.47 268.4 243.06C270 238.18 272 236.86 272 236.86Z" fill="#FEF0BB"/>
<path d="M221.36 147.22V146C221.36 146 219.36 146 216.04 146C216.04 144.92 215.92 144 216.04 143.18C216.037 141.781 216.137 140.384 216.34 139L215.18 139.26C215.18 139.26 215.18 143.44 215.18 146.02C212.6 146.02 209.4 146.02 205.92 146.02C205.92 143.16 206.1 138.8 206.1 138.8L204.66 139.18C204.66 139.76 204.66 142.48 204.8 146C203 146 201.12 146 199.24 145.86L193.42 145.66C193.42 142.26 193.28 139.12 193.22 138.92C193.16 138.72 192.38 138.92 192.38 138.92C192.38 138.92 192.38 141.92 192.56 145.58L182.56 145.26C182.56 144.8 182.56 144.42 182.56 144.14C182.56 141.66 182.56 139.34 182.56 139.34L181.58 139.56C181.58 139.56 181.58 142.42 181.58 145.22L171.14 144.9C171.14 141.32 171.32 138.78 171.32 138.78L170.3 139.06C170.3 139.06 170.3 141.8 170.3 144.88L160.14 144.54C160.14 142.1 160.28 139.16 160.28 139.16H159.24C159.179 139.872 159.179 140.588 159.24 141.3C159.24 141.86 159.24 143.16 159.24 144.5L146.74 144.06C146.74 142.94 146.6 141.76 146.58 141.06C146.58 139.58 145.78 139.7 145.86 141.06C145.86 141.7 145.86 142.88 145.98 144.02L142.14 144C139.58 144 136.88 143.82 134.14 143.76C134.13 143.674 134.13 143.586 134.14 143.5C134.14 141.5 134.14 138.32 134.14 138.32L133.36 138.44C133.36 138.44 133.36 141.16 133.36 143.76C130.54 143.76 127.74 143.76 125.08 143.76C125.02 141.848 125.121 139.935 125.38 138.04C125.8 136.96 124.14 137.6 124.14 137.6C124.14 137.6 124.14 140.2 124.14 143.76H115V143.24C115 139.66 114.76 137.38 114.76 137.38L113.82 137.62C113.82 137.62 113.82 140.06 114.04 143.76H108.32L108.14 144.96C108.14 144.96 110.5 144.96 114.14 144.76C114.14 146.76 114.3 149.08 114.38 151.56H108.74L108.88 152.54C110.708 152.284 112.556 152.197 114.4 152.28C114.52 155.4 114.64 158.72 114.74 161.92C112.798 161.893 110.858 162.033 108.94 162.34L108.78 163.08C109.9 162.96 112.14 162.86 114.78 162.8C114.9 166.48 115.02 169.96 115.12 172.8C111.48 172.92 108.3 173.02 107.92 173.1C107.06 173.28 106.66 174.02 107.92 173.92L115.18 173.8C115.28 176.5 115.34 178.5 115.34 179.32C115.34 180.14 115.34 181.78 115.48 183.78C111.72 183.78 108.6 183.78 107.64 183.78C105.92 183.78 106.62 185.02 107.64 184.82C108 184.82 111.32 184.7 115.5 184.66C115.5 187.42 115.72 190.78 115.84 194.06H109.52C108.66 194.06 108.18 195.08 109.64 195.14C109.98 195.14 112.34 195.14 115.88 195.14C116.02 198.92 116.16 202.46 116.24 204.68C113.3 204.68 111.24 204.68 110.82 204.68C109.28 204.68 109.64 205.52 110.66 205.5C111.68 205.48 114.12 205.5 116.28 205.5C116.28 206.36 116.28 206.9 116.28 207.02C116.28 207.88 117.04 208.5 117.06 207.02C117.06 206.82 117.06 206.28 117.06 205.5H125.16C125.16 206.26 125.16 206.84 125.16 207.08C125.32 208.36 126.22 208.24 126.22 206.88C126.22 206.66 126.22 206.18 126.22 205.5H134.64C134.64 206.32 134.64 206.86 134.64 207C134.8 207.92 135.56 208.14 135.56 207.1C135.56 206.94 135.56 206.36 135.56 205.5H137.1C138.78 205.5 142.86 205.5 146.64 205.62C146.64 207.28 146.64 208.94 146.64 208.94L147.74 209.06C147.74 209.06 147.74 207.7 147.74 205.64C150.56 205.64 153.08 205.64 154.12 205.64H158.92C158.92 207.5 159.08 208.82 159.08 208.82L160.32 208.96C160.32 208.96 160.32 207.58 160.12 205.64C163.86 205.64 168.12 205.64 170.32 205.64H171.08C171.08 207.4 171.2 208.62 171.2 208.62L172.18 208.92C172.18 208.92 172.18 207.56 172.04 205.62C174.88 205.62 179.54 205.48 183.62 205.44C183.62 207.44 183.62 208.66 183.62 208.66L184.5 209.02C184.5 209.02 184.5 207.56 184.5 205.42C187.4 205.42 189.88 205.42 190.96 205.42C192.04 205.42 192.96 205.42 194.18 205.3C194.18 207.3 194.18 208.82 194.18 208.82L195.18 209.18C195.18 209.18 195.18 207.56 195.06 205.18C198.32 204.98 202.24 204.66 204.56 204.78H205V209.64H206C206 209.64 206 207.64 206 204.88C208.98 204.88 211.88 204.88 213.38 204.76L216.48 204.62C216.48 205.24 216.48 205.76 216.48 206.04C216.48 207.34 217.66 207.38 217.62 206.04C217.62 205.86 217.62 205.32 217.62 204.52H218.56C220.06 204.52 219.8 203.6 218.7 203.54H217.58C217.58 201.54 217.58 198.74 217.4 195.7H218.86C220 195.7 220.52 194.92 218.6 194.76H217.38C217.38 191 217.22 187.08 217.16 184.32H218.54C220.02 184.32 219.76 183.92 218.84 183.7C218.283 183.619 217.717 183.619 217.16 183.7C217.16 182.84 217.16 182.12 217.16 181.58C217.16 180.18 217.16 177.4 217.16 174.18H219.28C220.4 174.18 220.1 173.34 219.14 173.34H217.14C217.14 170.32 217.14 166.98 217.02 164.04H219.34C220.3 164.04 219.8 163.42 219.34 163.32L217.1 163.16C217.1 159.86 217 157.16 216.96 156.2C216.969 156.02 216.969 155.84 216.96 155.66C217.34 155.66 217.62 155.66 217.76 155.66C218.94 155.66 219.32 154.66 218.06 154.66C217.84 154.66 217.42 154.66 216.88 154.66C216.72 152.66 216.36 149.72 216.16 147.2L221.36 147.22ZM196 146.68L204.84 146.92C204.84 149.04 204.84 151.38 204.84 153.7C201.34 153.5 195.94 153.48 193.56 153.42V152.98C193.56 151.46 193.56 148.98 193.4 146.58L196 146.68ZM193.76 162.68C196.36 162.82 202.86 163.36 204.66 163.42H204.98V166C204.98 167.88 204.98 170.52 205.16 173.12H194.66C194.26 173.12 193.82 172.42 193.82 171.76C193.82 171.1 193.7 167.24 193.66 162.78L193.76 162.68ZM193.76 161.62C193.76 158.82 193.76 156.04 193.76 154.16L205.02 154.82C205.02 157.58 205.02 160.24 205.02 162.36L193.76 161.62ZM192.62 146.46C192.62 148.74 192.74 151.2 192.8 153.3C190.42 153.3 184.8 152.64 182.94 152.6H182.64C182.64 150.42 182.64 147.96 182.64 146.12L192.62 146.46ZM181.86 146.1C181.86 147.92 181.86 149.56 181.86 150.22C181.86 150.88 181.86 151.74 181.86 152.56C179.2 152.56 174.04 152.2 171.66 152.14C171.66 150.56 171.66 149.08 171.66 147.72C171.66 147.06 171.66 146.4 171.66 145.72L181.86 146.1ZM170.64 145.76C170.64 147.76 170.64 150 170.64 151.42C170.64 151.62 170.64 151.86 170.64 152.12C167.8 152.12 162.64 152.12 160.2 152.12C160.2 151.5 160.2 150.9 160.2 150.62C160.2 150.02 160.6 148.62 160.58 147.52C160.58 147.2 160.58 146.46 160.58 145.52L170.64 145.76ZM146.38 145C146.406 145.614 146.493 146.223 146.64 146.82C146.96 147.88 147.68 147.58 147.42 146.82C147.282 146.222 147.195 145.613 147.16 145C151.7 145.22 155.94 145.44 159.38 145.52H159.58C159.58 146.6 159.58 147.52 159.58 147.96C159.58 148.4 159.58 150.64 159.46 152.12H159.04C157.62 151.96 157.62 152.88 158.44 152.9H159.44V153.64C159.44 154.52 160.12 154.2 160.12 153.76C160.12 153.32 160.12 153.3 160.12 152.92H162.12H170.6C170.6 155.04 170.6 157.88 170.6 160.28C169.44 160.28 168.44 160.12 167.8 160.02C167.16 159.92 166.48 160.54 167.32 160.78C167.62 160.78 168.96 160.94 170.6 161.02C170.6 163.3 170.6 165.02 170.6 165.02C170.994 165.293 171.316 165.656 171.54 166.08C171.54 164.44 171.54 162.76 171.54 161.08C174.38 161.2 177.54 161.3 178.04 161.28C178.54 161.26 178.72 160.5 177.86 160.5C177 160.5 174.26 160.5 171.54 160.34C171.54 157.8 171.54 155.3 171.4 152.96L175.54 153.06L181.66 153.36C181.66 154.34 181.66 155.16 181.66 155.36C181.744 156.312 181.96 157.247 182.3 158.14C182.46 158.38 182.5 158.36 182.54 157.04C182.54 156.58 182.54 155.04 182.54 153.34L191.2 153.84H192.72C192.72 155.34 192.72 156.62 192.72 157.44C192.72 158.26 192.72 159.8 192.84 161.3H192.54C192.462 161.285 192.381 161.287 192.304 161.307C192.227 161.326 192.155 161.363 192.093 161.413C192.032 161.464 191.982 161.528 191.948 161.6C191.914 161.672 191.897 161.75 191.897 161.83C191.897 161.91 191.914 161.988 191.948 162.06C191.982 162.133 192.032 162.196 192.093 162.247C192.155 162.297 192.227 162.334 192.304 162.353C192.381 162.373 192.462 162.375 192.54 162.36C192.646 162.349 192.754 162.349 192.86 162.36C193.079 165.743 193.079 169.137 192.86 172.52C192.714 172.686 192.517 172.798 192.3 172.84C190.5 169 186.44 158.32 185.66 158.98C183.269 161.375 181.056 163.942 179.04 166.66C176.86 169.6 177.86 169.42 178.04 171.5C178.2 173.2 178.48 187.24 179.36 187.12C180.24 187 192.86 187.24 195.5 187.24C198.14 187.24 198.42 186.48 197.5 184.72C196.78 183.38 195.24 179.22 193.86 176.08C193.86 175.32 193.86 174.34 193.86 174.08C193.86 173.82 194.28 173.72 194.82 173.76H205.08C205.08 176.68 205.28 179.44 205.24 180.9C205.24 181.46 205.24 182.16 205.24 182.9C204.22 182.9 203.44 182.9 203.08 182.9C201.913 182.851 200.75 182.724 199.6 182.52C197.86 182.38 198.52 183.66 199.92 183.7C201.32 183.74 203.26 183.88 205.22 184.02C205.22 186.98 205.22 190.58 205.22 192.38C205.22 192.72 205.22 193.24 205.22 193.9L194.86 194C194.86 192 194.76 190.68 194.76 190.3C194.76 188.8 193.88 188.48 193.92 189.84C193.92 190.2 193.92 191.84 194.02 193.98H193.76C191.76 193.98 188.36 193.98 184.34 193.98C184.34 191.84 184.34 190.22 184.18 189.98C183.98 188.68 183.6 188.46 183.46 189.82C183.46 190.2 183.46 191.82 183.46 194.08H171.6C171.6 193.62 171.6 193.28 171.6 193.14C171.6 191.78 170.78 191 170.66 192.3C170.66 192.52 170.66 193.18 170.66 194.08C166.14 194.08 162.02 194.08 159.36 194.08C159.36 193.82 159.36 193.62 159.36 193.54C159.2 192.4 158.58 192.76 158.52 193.54C158.52 193.54 158.52 193.78 158.52 194.02H157.4C155.58 194.02 151.94 194.02 147.64 194.02C147.64 190.7 147.64 188.02 147.64 187.78C147.64 186.92 147.42 186.62 148.32 186.5C149.703 186.494 151.084 186.56 152.46 186.7L151.7 185.86L147.82 185.64C147.58 185.64 147.62 185.44 147.64 185C147.66 184.56 147.02 184.24 146.92 185C146.92 185.38 146.92 189.72 146.92 194.06L135.26 194C135.14 189.7 135.04 185.88 135.1 185.32C135.26 184.02 135.32 184.02 133.7 183.98C133.1 183.98 129.8 183.98 125.7 183.84C125.7 180.48 125.52 176.36 125.46 173.56H126.82C127.04 173.56 127.86 172.34 126.48 172.42H125.42C125.42 171.48 125.42 170.82 125.42 170.42C125.42 169.66 125.42 166.3 125.42 162.42C127.42 162.42 128.94 162.42 129.74 162.42C132.76 162.58 130.96 161.52 129.38 161.52H125.38C125.38 158.16 125.38 154.6 125.38 152.28C128.2 152.4 131.12 152.54 133.9 152.72C133.9 156.72 134.06 161.5 134.06 161.5L135.08 161.04C135.08 161.04 134.9 156.24 134.84 152.76L140.16 153.1L140.38 152.22L134.7 152C134.7 151.4 134.7 150.88 134.7 150.44C134.7 148.02 134.3 146.1 134.2 144.44C138.24 144.6 142.42 144.8 146.38 145ZM126 188.98C126 188.2 125.88 186.54 125.82 184.52C130.46 184.52 134.2 184.52 134.38 184.68C134.64 187.779 134.72 190.891 134.62 194C131.3 194 128.3 194 126.1 194C126 191.72 126 189.82 126 188.98ZM129.32 144.44H133.6C133.6 145.9 133.6 147.22 133.6 147.86C133.6 148.5 133.6 150.08 133.74 151.98L125.24 151.66V150.88C125.24 149.18 125.24 146.72 125.24 144.4L129.32 144.44ZM115.22 144.66C117.84 144.66 120.98 144.52 124.28 144.48C124.28 146.66 124.28 149.16 124.28 151.7C121.74 151.7 119 151.54 116.04 151.5C115.68 148.66 115.32 146.88 115.14 144.66H115.22ZM116 153.44C116 152.98 116 152.54 116 152.14C118.4 152.14 121.22 152.26 124.18 152.38C124.18 155.64 124.18 158.94 124.18 161.68C121.78 161.68 118.9 161.68 116.18 161.68C116.1 158.24 116 155.14 116 153.44ZM116.2 162.62C118.8 162.62 121.66 162.62 124.1 162.62C124.1 164.12 124.1 165.44 124.1 166.42C124.1 168 124.24 170.1 124.3 172.42L116.3 172.66C116.28 169.56 116.24 166 116.18 162.62H116.2ZM116.38 178.8C116.38 177.68 116.38 175.84 116.38 173.64L124.38 173.48C124.38 176.78 124.56 180.44 124.66 183.74L116.48 183.64C116.4 181.48 116.36 179.74 116.36 178.8H116.38ZM124.66 184.52C124.78 188.52 124.86 191.92 124.92 193.08C124.92 193.32 124.92 193.64 124.92 193.98H123.8H116.74C116.74 190.72 116.54 187.36 116.48 184.58C119.1 184.52 122 184.5 124.64 184.52H124.66ZM117.08 204.52C117.08 202.3 116.92 198.76 116.8 194.98H124.98C124.98 197.72 125.1 201.92 125.18 204.6L117.08 204.52ZM126.32 204.52C126.32 202.12 126.32 198.24 126.14 194.9H134.66C134.66 198.52 134.66 202.28 134.66 204.6L126.32 204.52ZM144.76 204.52C142.52 204.52 139.28 204.52 135.66 204.52C135.66 202.16 135.44 198.4 135.32 194.8H146.86C146.86 198.52 146.86 202 146.86 202.8C146.86 203.6 146.86 203.98 146.86 204.8L144.76 204.52ZM147.76 204.52C147.76 201.7 147.76 197.92 147.76 194.52H158.14H158.6C158.6 196.8 158.86 201.32 159.02 204.52H147.76ZM166.14 204.52C164.74 204.52 162.64 204.52 160.14 204.52C159.94 201.22 159.66 196.74 159.48 194.52L170.74 194.68C170.74 197.38 170.98 201.38 171.12 204.36C168.92 204.68 167.16 204.74 166.12 204.8L166.14 204.52ZM172.14 204.3C172.02 201.2 171.84 197.12 171.76 194.68L183.58 194.92C183.58 197.84 183.58 201.36 183.74 204.04C179.88 204.38 175.56 204.48 172 204.58L172.14 204.3ZM189.78 203.98H184.66C184.66 201.26 184.66 197.78 184.5 194.9L194 195.4C194 198.2 194.12 201.4 194.16 204.12C192.76 204.2 191.26 204.26 189.66 204.26L189.78 203.98ZM195.26 203.78C195.26 201.12 195.1 197.78 195.02 195.14C198.18 195.14 200.76 195.14 202.28 195.14H205.28C205.28 197.36 205.28 200.4 205.28 203.14C201.58 203.52 198.48 203.86 195.14 204L195.26 203.78ZM216.6 197.18C216.6 198.34 216.6 201.18 216.76 203.4C216.08 203.4 215.32 203.58 214.46 203.6C212.62 203.6 210.96 203.18 206.32 203.18C206.32 200.72 206.32 197.84 206.42 195.18C210.26 195.18 214.1 195.18 216.58 195.3C216.46 196.52 216.48 197.16 216.48 197.46L216.6 197.18ZM216.6 194.4L206.44 194C206.44 192.14 206.44 190.5 206.44 189.34C206.44 188.18 206.44 186.22 206.44 184.14C207.44 184.14 208.44 184.24 209.04 184.24C210.6 184.24 214.06 184.12 216.52 184.06C216.38 187.7 216.42 192 216.46 194.68L216.6 194.4ZM216.4 179.56C216.4 180.4 216.4 181.76 216.4 183.36H216C214.72 183.36 209.78 183.12 206.36 183.04C206.36 180.06 206.36 176.72 206.48 173.84H216.24C216.2 176.62 216.24 178.76 216.26 179.84L216.4 179.56ZM216.28 172.98H206.4C206.4 170.42 206.4 168.32 206.4 167.34C206.4 166.36 206.4 165.14 206.28 163.34L216 164C216 166.76 216 170.24 216.14 173.26L216.28 172.98ZM216.08 158.48C216.08 159.28 216.08 160.84 216.08 162.78L207.84 162.34H206.38C206.38 160.04 206.24 157.34 206.18 154.78C208.32 154.92 213.16 155.24 215.94 155.38C216 156.78 216 157.88 216 158.76L216.08 158.48ZM215.88 154.26C213.14 154.08 208.82 153.76 206.32 153.52H206C206 150.5 205.86 147.86 205.84 146.66L215.1 146.84V147.44C215.14 148.7 215.5 151.7 215.74 154.54L215.88 154.26Z" fill="#FEF0BB"/>
<path d="M152.78 45.88C148.94 46.42 148.6 46 148.78 50.06C148.96 54.12 149.14 57.92 149.88 66.06C150.62 74.2 149.3 83.58 146.94 87.52C144.58 91.46 143.52 92.12 149.76 92.7C156 93.28 178.98 94.14 190.62 96.12C196.06 97.04 196.82 95.96 198.32 90.68C199.82 85.4 200.86 79.5 198.92 68.68C196.98 57.86 195.56 50.2 195.68 47.6C195.8 45 192.86 43.22 187.56 43.4C172.86 44 155.74 45.48 152.78 45.88Z" fill="#FFC7D6"/>
<path d="M332.64 178.92C332.18 173.14 329.26 159.92 329.26 154.44C329.26 148.96 326.86 107.14 328.3 98.12C329.74 89.1 331.68 84.76 331.84 76.4C332 68.04 332.32 57.4 331.52 55.48C330.72 53.56 322.4 56.06 313.92 56.48C305.44 56.9 279.92 56.98 277.92 58.22C276.36 59.22 278.26 100.02 277.44 114.54C276.62 129.06 277.18 143.02 276.7 148.96C276.22 154.9 277.8 161.98 277.8 167.48C277.904 173.333 278.662 179.156 280.06 184.84C280.8 186.34 282.68 185.84 284.56 185.84C286.44 185.84 296.24 186.94 304.22 186.72C312.2 186.5 322.96 185.72 326.68 186.28C330.4 186.84 333.1 184.72 332.64 178.92ZM320.78 171.84C318.48 173.5 284.46 172.56 282.88 171.42C281.3 170.28 281.28 157.88 281.56 154.18C281.84 150.48 281.56 118.6 282.1 115.78C282.64 112.96 282 91.36 282 88.22C282 85.08 280.72 65.48 282.84 63.14C284.96 60.8 317.36 62.16 318.84 63.6C320.32 65.04 320.64 89.22 320.84 92.1C321.04 94.98 321.56 134.32 321.56 136.62C321.56 138.92 323.1 170.16 320.78 171.84Z" fill="#FFC7D6"/>
<path d="M344.82 53.34C344.22 49.98 351.42 48.7 352.82 47.34C354.22 45.98 353.84 30.36 357.64 29.86C361.44 29.36 365.84 40.92 367.26 41.86C368.68 42.8 376.98 39.86 378.08 42.78C379.18 45.7 371.4 50.46 371.06 52.66C370.72 54.86 379.42 62.12 377.82 64.14C376.22 66.16 365.24 61.86 363.12 61.86C361 61.86 356.8 70.4 354 69.56C351.2 68.72 353.5 57.82 353.08 56.88C352.66 55.94 345.42 56.64 344.82 53.34Z" fill="#FFC7D6"/>
<path d="M252.64 199C249.66 199.76 249.44 202.64 249.38 204.66C249.32 206.68 249.38 216.98 249.52 219.22C249.66 221.46 253.24 223.38 258 224.56C262.76 225.74 266.84 225.16 268.92 221.96C271 218.76 274.92 210.22 274.12 204.44C273.32 198.66 273.22 198.78 270.26 198.86C267.3 198.94 252.64 199 252.64 199Z" fill="#FFC7D6"/>
<path d="M109 228C108.14 225.76 110.06 224.68 112.46 226C116.068 228.608 119.223 231.79 121.8 235.42C124.54 239.2 130 247.8 131.8 250.06C133.6 252.32 133.64 257.78 128.82 254.64C124 251.5 113.36 235.52 111.7 233.16C110.523 231.6 109.611 229.856 109 228Z" fill="#FFC7D6"/>
<path d="M101.88 223.02C98.08 218.7 73.88 220.48 70.5 221.94C65.78 223.94 65.24 232.42 64.5 236.88C63.76 241.34 60.5 248.08 60.5 252.12C60.5 256.16 60.5 256.5 62.68 257C64.86 257.5 91.98 258.3 95.78 257.54C99.58 256.78 102.16 255.12 102.84 250.64C103.52 246.16 105.66 227.34 101.88 223.02ZM77.68 242.58C75.4428 243.213 73.0933 243.342 70.8 242.96C68.42 242.52 68.92 239.34 71.5 239.08C73.63 238.912 75.77 238.912 77.9 239.08C80.26 239.3 79.72 242 77.68 242.58ZM79.26 232.76C76.7419 233.169 74.1854 233.29 71.64 233.12C69.06 232.7 70.4 229.36 73.08 229.64C74.8473 229.6 76.6145 229.721 78.36 230C80.4 230.54 81.06 232.64 79.26 232.76ZM85.6 235.38C87.6216 235.524 89.6282 235.832 91.6 236.3C93.32 236.84 93.18 239.44 91.3 239.16C89.42 238.88 87.52 239.48 85 239.16C82.48 238.84 83.52 235.12 85.6 235.38ZM92.54 248C91.1398 248.296 89.7002 248.356 88.28 248.18C86.66 247.98 87.26 247.5 85.8 246.78C84.34 246.06 85.32 244.36 87.32 244.78C88.48 245.04 90.74 245.28 92.34 245.6C92.6583 245.573 92.974 245.674 93.2178 245.881C93.4616 246.087 93.6135 246.382 93.64 246.7C93.6665 247.018 93.5655 247.334 93.3592 247.578C93.1529 247.822 92.8583 247.973 92.54 248ZM93.06 232C90.52 231.6 90.16 231.3 88.8 231.16C86.8 230.94 86.8 228.96 88.8 228.7C90.3938 228.513 92.0083 228.776 93.46 229.46C94.86 230.12 95.62 232.52 93.06 232.12V232Z" fill="#FFC7D6"/>
<path d="M160.52 164.78C161.613 163.608 162.492 162.254 163.12 160.78C163.36 159.44 151.12 149.04 149.36 149.54C147.6 150.04 141.82 158.68 139.04 162.34C136.054 166.362 133.449 170.654 131.26 175.16C130.62 177.16 130 178.84 132.66 180.88C135.32 182.92 140.06 185.56 141.64 186.88C143.22 188.2 144.06 188.52 144.44 187.12C145.933 183.925 147.714 180.872 149.76 178C149.722 174.218 151.099 170.559 153.62 167.74C157.8 163.2 160.52 164.78 160.52 164.78Z" fill="#FFC7D6"/>
<path d="M22.48 53.1C27.2 57.82 31.22 63.46 33.24 62.14C35.26 60.82 33.84 47.58 30.02 43.26C19.32 31.16 10.86 41.48 22.48 53.1Z" fill="#A6EEF8"/>
<path d="M18.78 78.16C23.86 81.32 32.78 86.78 34.12 85.26C35.46 83.74 29.8 74.1 24.86 69.26C10.1 54.9 3.44002 68.56 18.78 78.16Z" fill="#A6EEF8"/>
<path d="M60.26 41.04C56.44 41.58 55.06 43.18 54.94 46.78C54.82 50.38 55.1 71.26 54.82 76.78C54.54 82.3 54.82 101.12 53.32 108.38C51.82 115.64 52.86 130.24 53.22 132.38C53.58 134.52 95.1 137.14 95.1 137.14C94.3462 134.454 94.6841 131.578 96.04 129.14L61.66 124.94C61.1913 117.861 60.3501 110.811 59.14 103.82C57.64 97.38 56.6 93.82 56.88 87.48C57.16 81.14 57.64 71.48 57.44 65.48C57.24 59.48 58.48 52.4 57.82 50.44C57.16 48.48 55.2 46.7 59.5 46.8C63.8 46.9 88.16 49.8 94.32 50C98.4818 50.1145 102.631 50.5087 106.74 51.18C108.179 57.855 108.85 64.6726 108.74 71.5C108.42 82.1 107.98 98.4 107.34 105.76C106.7 113.12 106.06 125.64 107.18 125.64C108.3 125.64 109.66 125.02 111.54 125.02C113.245 125.169 114.925 125.532 116.54 126.1C121.48 119.6 119.94 93.2 119.84 87.66C119.74 82.12 118.64 50.5 117.26 46.6C115.88 42.7 116.08 39.52 111.7 39.76C107.32 40 97.48 40.7 94.94 40.78C92.4 40.86 60.26 41.04 60.26 41.04Z" fill="#A6EEF8"/>
<path d="M97.66 150C88.5 149.64 74.72 153.06 68 164C61.28 174.94 55.68 180.94 45.44 185.82C35.2 190.7 33.12 195.82 35.44 200.34C37.76 204.86 52.76 206.08 63.62 202.54C74.48 199 98.38 202.3 98.38 202.3C98.38 202.3 97.04 160.58 97.04 155.7C97.04 150.82 97.66 150 97.66 150Z" fill="#A6EEF8"/>
<path d="M222.66 128.5C212.54 128.94 134.4 130.02 126.94 130.24C119.48 130.46 111.16 128.9 106.72 132.46C101.68 136.46 101.1 144.94 101.62 152.46C102.14 159.98 101.52 188.08 103.02 197.7C104.52 207.32 105.02 210.96 105.2 213.5C105.38 216.04 145.84 217.5 164.72 217.64C183.6 217.78 209.12 220.12 219.7 218.36C231.56 216.36 235.86 210.12 233.7 194.06C232.004 183.339 232.494 172.386 235.14 161.86C236.96 154 232.78 128 222.66 128.5ZM220.98 208.98C218.18 211.58 209.44 209.54 194 209.54C178.56 209.54 160.12 209.66 145.78 209.66C131.44 209.66 110.14 209.66 108.3 207.88C106.46 206.1 105.82 194.78 106.4 185.44C106.98 176.1 108.3 161.44 108.1 152C107.9 142.56 107.8 137.64 107.8 137.64C108.788 137.402 109.805 137.308 110.82 137.36C113.04 137.36 139.92 138.2 156.82 138.68C173.72 139.16 211.5 137.94 214.82 138.2C218.14 138.46 220.96 135.32 222.82 152.62C224.68 169.92 223.76 206.38 220.98 208.98Z" fill="#A6EEF8"/>
<path d="M169.26 166.82C159.74 164.04 154.2 169.5 153.26 175.94C152.32 182.38 154 188.22 158 190C162 191.78 173.62 194 176.84 183.16C178.48 177.42 174 168.2 169.26 166.82Z" fill="#A6EEF8"/>
<path d="M213.84 50.4C213.84 48.26 214.22 48.4 215.84 48.26C217.46 48.12 247.02 45.86 252.34 46.12C257.66 46.38 259.02 46.24 258.78 51.68C258.54 57.12 258.64 67.68 260.54 73.4C262.44 79.12 264.08 90.96 262.18 93.22C260.28 95.48 250.44 92.84 241.98 93.48C233.52 94.12 225.18 93.36 219.74 95C214.3 96.64 210.66 97.52 211.54 91.2C212.42 84.88 213.84 53.32 213.84 50.4Z" fill="#A6EEF8"/>
<path d="M272.54 42.8C269.02 42.16 271 31.16 272.8 25.54C275.42 17.32 282.32 14.52 287.1 17.54C291.88 20.56 287.36 27.14 282.88 31.28C278.4 35.42 275.86 43.38 272.54 42.8Z" fill="#A6EEF8"/>
<path d="M311.1 139.62C310.12 132.22 305.72 119.62 305.9 118.12C306.08 116.62 306.32 116.3 309.9 114.92C313.48 113.54 312.4 108.92 311.24 107.78C310.08 106.64 308.76 106.52 309.12 105.96C309.452 104.548 309.705 103.12 309.88 101.68C310.32 99.68 309.98 98.54 308.52 98.14C307.06 97.74 305.92 99.4 305.38 101.34C305.324 101.756 305.185 102.156 304.971 102.516C304.758 102.877 304.473 103.191 304.135 103.439C303.797 103.687 303.413 103.865 303.005 103.961C302.597 104.058 302.173 104.071 301.76 104C300.832 103.985 299.916 103.786 299.064 103.415C298.213 103.045 297.444 102.509 296.8 101.84C295.54 100.36 294.7 96.52 292.68 96.82C290.66 97.12 290.68 99.88 291.64 104.36C291.64 104.36 289.94 105 289.48 108C289.192 109.358 289.29 110.769 289.764 112.074C290.238 113.378 291.068 114.524 292.16 115.38C293.851 116.358 295.75 116.92 297.7 117.02C298.82 117.44 297.14 119.42 295.52 124.38C294.218 129.746 293.223 135.181 292.54 140.66C291.843 139.822 291.364 138.825 291.148 137.756C290.931 136.688 290.984 135.583 291.3 134.54C292.286 130.135 292.183 125.556 291 121.2C290.3 118.6 287.38 118.3 288.76 121.82C290.14 125.34 289.62 133.4 288.76 137.16C287.9 140.92 287.58 144.38 291.44 147.7C291.04 150.66 290.7 153.16 290.48 154.66C289.68 160.32 295.14 163.9 297.56 162.66C299.98 161.42 302.44 162.38 304.86 162.66C307.28 162.94 307.8 163.74 310.86 159.16C313.92 154.58 312 147.02 311.1 139.62Z" fill="#A6EEF8"/>
<path d="M306.6 235.18C304.6 235.18 304.26 234.16 304.4 232.84C304.54 231.52 305.56 230.54 307.06 231.36C308.56 232.18 308.52 231.62 309.18 231.24C309.84 230.86 310.44 230.64 311.88 231.68C312.26 232.033 312.714 232.295 313.209 232.447C313.705 232.6 314.228 232.638 314.74 232.56C314.92 232.537 315.103 232.553 315.277 232.607C315.45 232.66 315.61 232.75 315.746 232.87C315.883 232.99 315.992 233.138 316.066 233.303C316.141 233.469 316.18 233.648 316.18 233.83C316.18 234.012 316.141 234.191 316.066 234.357C315.992 234.522 315.883 234.67 315.746 234.79C315.61 234.91 315.45 235 315.277 235.053C315.103 235.107 314.92 235.123 314.74 235.1C312.78 235.18 308.18 235.26 306.6 235.18Z" fill="#A6EEF8"/>
<path d="M329.1 231.34C326.8 230.68 326.04 232.12 324.72 232.06C323.4 232 322.24 232.52 322.22 233.78C322.2 235.04 323.62 234.54 324.52 234.66C325.42 234.78 324.52 235.24 325.86 235.5C327.134 235.611 328.417 235.564 329.68 235.36L329.1 231.34Z" fill="#A6EEF8"/>
<path d="M313.74 240.9C309.36 241.02 310.08 238.9 316.48 238.48C318.759 238.321 321.037 238.799 323.06 239.86C324.86 240.84 322.54 242.24 319.98 241.86C317.937 241.333 315.847 241.012 313.74 240.9Z" fill="#A6EEF8"/>
<path d="M302 246C303.713 245.351 305.529 245.019 307.36 245.02C309.33 245.033 311.286 245.35 313.16 245.96C315.16 246.72 315.02 248.12 312.34 248.16C309.485 248.374 306.62 248.414 303.76 248.28C303.086 248.154 302.418 247.994 301.76 247.8L302 246Z" fill="#A6EEF8"/>
<path d="M330.24 246.94C326.64 246.08 325.96 245.54 324.64 245.82C323.32 246.1 322.64 247.82 324.88 248.52C326.747 248.961 328.677 249.062 330.58 248.82L330.24 246.94Z" fill="#A6EEF8"/>
<path d="M302.54 253.16C302.54 253.16 310.42 253.42 318.24 253.16C326.06 252.9 331.6 253.52 333.26 253.16C334.92 252.8 334.76 254.22 333.92 255.34C333.08 256.46 334.9 258.42 331.92 258.04C327.393 257.37 322.833 256.949 318.26 256.78C315.4 256.92 302.26 256.18 302.26 256.18L302.54 253.16Z" fill="#A6EEF8"/>
<path d="M201.84 238.64C201.84 236.46 202.36 235.42 206.38 235.48C210.4 235.54 221.3 237 230.38 236.54C239.46 236.08 251.36 235.28 253.1 235.72C254.84 236.16 254.9 244.74 253.7 250.52C252.5 256.3 252.7 259.3 243.12 258.9C233.54 258.5 220.18 260.7 215.5 260.3C210.82 259.9 203.12 260.3 201.92 254.92C200.72 249.54 201.82 240.82 201.84 238.64Z" fill="#A6EEF8"/>
<path d="M153 221.66C153.9 220.94 159.42 221.66 163.8 221.38C168.18 221.1 171.28 220.08 173.04 220.58C174.8 221.08 175.84 221.04 175.38 222.92C174.92 224.8 175.38 225.78 176.02 225.9C177.544 225.568 179.031 225.086 180.46 224.46C182.7 223.78 184.3 225.66 184.46 228C184.62 230.34 182.06 237.26 178.02 238.86C173.98 240.46 158.32 241.98 153.44 239.1C148.56 236.22 148.62 234.28 148.76 231.76C148.9 229.24 149.28 226.72 150.76 225.42C151.849 224.405 152.626 223.101 153 221.66Z" fill="#A6EEF8"/>
<path d="M78 58.72C79.5543 59.2761 81.2384 59.3596 82.84 58.96C84.64 58.82 84.84 60.02 88.98 59.68C93.12 59.34 88.66 56.1 84.98 56.32C82.5783 56.5992 80.1474 56.4911 77.78 56C75.08 55.44 75.24 57.42 78 58.72Z" fill="#471280"/>
<path d="M74.42 68.9C74.9668 69.2278 75.5924 69.401 76.23 69.401C76.8676 69.401 77.4932 69.2278 78.04 68.9C80.7 67.24 80.04 69.38 82.76 68.9C85.48 68.42 85.32 67.38 86.76 67.96C88.2 68.54 92.92 68.92 94.12 68.14C95.32 67.36 95.02 67.92 95.96 68.38C96.9 68.84 97.1 65.92 95.5 65.66C93.9 65.4 93.5 65.98 91.82 66.3C89.1 66.82 88.66 65.76 87.3 65.68C85.94 65.6 84.6 66.48 82.48 66.34C80.36 66.2 79.76 64.66 77.96 65.78C74.6 67.78 75.26 64.08 71.6 65.58C69.46 66.46 69.12 69.04 71.6 67.92C74.08 66.8 73.3 68.3 74.42 68.9Z" fill="#471280"/>
<path d="M86.2 77.02C84.7 77.02 84.2 77.54 82.54 77.4C80.88 77.26 82 74.52 78 75.84C76.86 76.22 75.8 76.92 74.66 77.36C73.16 77.96 72.66 79.36 74.66 79.36C76.0364 79.3791 77.3895 79.0044 78.56 78.28C79.68 77.78 79.94 77.94 80.74 78.86C81.54 79.78 82.12 79.66 84.04 79.64C85.5452 79.3739 87.088 79.4079 88.58 79.74C90.4203 80.417 92.3848 80.6899 94.34 80.54C96.34 80.28 96.6 79 93.94 78.54C90.32 78.1 89.6 77.12 86.2 77.02Z" fill="#471280"/>
<path d="M77.1 92C77.659 92.4366 78.324 92.7166 79.0269 92.8115C79.7298 92.9064 80.4453 92.8127 81.1 92.54C82.7 91.96 83.8 91.2 84.66 91.54C85.5776 92.0113 86.6189 92.186 87.64 92.04C88.8166 91.6995 90.0775 91.8063 91.18 92.34C93.18 93 94 91.84 93.18 91.32C92.36 90.8 90.82 89.32 89.42 89.98C88.7895 90.2565 88.1085 90.3993 87.42 90.3993C86.7315 90.3993 86.0505 90.2565 85.42 89.98C84.7762 89.7389 84.0908 89.6288 83.4039 89.6563C82.717 89.6838 82.0425 89.8482 81.42 90.14C79.92 90.8 79.28 91.06 78.76 90.66C78.24 90.26 78 88.98 76 89.62C74 90.26 72 91.06 72.58 91.62C73.48 92.52 76.2 91.14 77.1 92Z" fill="#471280"/>
<path d="M96.8 104.92C95.46 104.3 94.56 104.62 94.02 104.14C93.6724 103.836 93.2485 103.633 92.7939 103.552C92.3393 103.471 91.8712 103.515 91.44 103.68C90.48 104.08 90.16 104.72 88.9 104.18C88.2728 103.891 87.5905 103.741 86.9 103.741C86.2095 103.741 85.5272 103.891 84.9 104.18C84.467 104.518 83.9385 104.712 83.3894 104.734C82.8402 104.755 82.2982 104.603 81.84 104.3C81.1464 103.914 80.3758 103.687 79.5837 103.635C78.7917 103.583 77.998 103.708 77.26 104C75.56 104.64 75.14 104 73.62 104.38C72.1 104.76 72.68 106.38 73.38 106.04C74.08 105.7 74.72 106.04 75.68 106.36C76.64 106.68 77.14 105.66 78.74 105.66C79.4588 105.648 80.1615 105.873 80.74 106.3C81.3121 106.724 81.996 106.971 82.707 107.01C83.418 107.049 84.1248 106.879 84.74 106.52C86.5434 106.131 88.4193 106.249 90.16 106.86C91.48 107.08 92.54 105.86 93.7 106.42C95.0107 106.987 96.4683 107.12 97.86 106.8C98.82 106.46 98.14 105.54 96.8 104.92Z" fill="#471280"/>
<path d="M86.84 116C85.16 116 78.48 116 76.84 116.14C75.2 116.28 75.06 118.62 76.62 118.54C78.18 118.46 84.74 118.54 86.62 118.54C88.5 118.54 88.5 116 86.84 116Z" fill="#471280"/>
<path d="M149.76 87.64C153.44 88.22 158.18 89.3 163.2 90.3C177.2 93.1 194.4 92.58 195.64 92.62C198.64 92.62 197.78 74.94 196.76 68.82C195.59 61.073 194.842 53.2682 194.52 45.44C194.4 40.94 195.36 40.68 188.52 41.1C187.24 41.1 185.1 41.26 182.52 41.36C182.264 40.4475 181.95 39.5523 181.58 38.68C180.66 36.5 178.48 35.86 178.38 38.96C178.38 39.7 178.38 40.58 178.38 41.48C171.86 41.68 163.7 41.86 157 41.98C156.6 40.84 156.16 39.76 155.94 39C155.22 36.66 152.66 35.54 152.84 38.84C152.84 39.86 152.94 40.96 153.04 42.04C149.28 42.04 146.36 42.04 145.04 42.04C140 42 141.7 44.24 142.1 45.82C143.94 52.96 143.88 71.34 141.28 80.26C138.58 89.56 141.04 86.28 149.76 87.64ZM153.76 45.74C153.935 46.2041 154.261 46.5962 154.685 46.8535C155.109 47.1109 155.607 47.2188 156.1 47.16C156.451 47.1531 156.788 47.0198 157.049 46.7847C157.309 46.5497 157.477 46.2285 157.52 45.88C165.38 46.1 172.58 45.88 178.98 45.64C179.48 46.88 180.24 47.64 181.38 47.44C182.52 47.24 182.74 46.5 182.86 45.44C185.66 45.32 188.28 45.24 190.72 45.2C190.72 45.2 191.82 46.94 191.18 53.44C190.54 59.94 194.08 76.84 192.66 88.94C192.66 88.94 184.4 88 177.44 87.3C170.48 86.6 171.44 86.4 146.14 81.92C147.6 75.92 149.88 52.9 146.14 45.2C148.76 45.46 151.32 45.62 153.84 45.74H153.76Z" fill="#471280"/>
<path d="M157.64 57.68C159.18 57.6601 160.719 57.7739 162.24 58.02C164.819 57.7406 167.42 57.7339 170 58C172.408 58.3264 174.856 58.2043 177.22 57.64C179.44 57.42 178.94 55.16 177.56 54.98C176.18 54.8 175.8 55.66 172.68 54.98C167.875 54.5017 163.038 54.4281 158.22 54.76C155.84 55.14 154.94 57.8 157.64 57.68Z" fill="#471280"/>
<path d="M177.58 61.78C175.312 61.8741 173.041 61.8207 170.78 61.62C167.48 61.62 161.16 61.62 158.78 61.76C156.4 61.9 156.48 63.76 158.78 63.9C161.08 64.04 170.94 63.42 172.62 63.7C174.358 64.2582 176.21 64.3615 178 64C179.62 63.3 179.54 61.42 177.58 61.78Z" fill="#471280"/>
<path d="M161.8 68C158.78 68.18 158.46 70.48 161.8 70.92C168.007 71.532 174.246 71.7392 180.48 71.54C183.56 71.18 183.02 68.84 178.78 68.6C174.54 68.36 165 67.88 161.8 68Z" fill="#471280"/>
<path d="M219.64 91.54C227.372 91.9805 235.129 91.5376 242.76 90.22C249.98 88.86 255.76 91.86 258.9 90.22C262.04 88.58 260.9 83.38 259.18 75.16C257.46 66.94 256.26 54.76 255.36 48.38C254.46 42 253.62 42.38 248.72 41.78C246.92 41.56 244.86 41.4 242.72 41.32C242.4 40.36 242.06 39.56 241.9 39.12C241.24 37.44 239.26 36.1 238.92 38.8C238.851 39.5985 238.851 40.4015 238.92 41.2C233.3 41.1 227.28 41.2 222.62 41.52L222.06 40.14C221.14 37.72 219.4 37.52 219.4 40.14C219.4 40.58 219.4 41.1 219.4 41.7L216.8 41.9C210.58 42.44 208.6 40.76 208.1 48.8C207.836 60.2203 208.237 71.6462 209.3 83.02C210.12 90.42 212.7 90.9 219.64 91.54ZM212.12 45.82C212.28 45.18 215.64 44.88 219.82 44.8C220.32 47.46 221.32 49.98 223.2 49.82C225.08 49.66 224.62 47.24 223.82 44.78C226.7 44.78 229.6 44.88 231.82 45C234.04 45.12 236.94 45.12 239.6 45.12C240.12 46.72 240.86 47.92 241.76 47.84C243.16 47.7 243.54 46.56 243.46 45.1C247.08 45.1 249.9 45.22 250.28 45.82C251.08 46.98 251.28 55.12 252.6 64.26C253.92 73.4 254.6 81.28 255.82 84.12C256.48 85.68 255.08 87.9 251.98 87.06C248.88 86.22 233.7 86.86 224.82 87.32C215.94 87.78 212.6 88.58 212.58 84.86C212.56 81.14 209.84 54.66 212.12 45.82Z" fill="#471280"/>
<path d="M221.54 60.76C224.34 60.76 242.06 59.74 245.36 59.36C248.66 58.98 248.9 55.48 245.16 55.86C241.42 56.24 224.14 57.62 221.16 58.44C218.18 59.26 218.74 60.72 221.54 60.76Z" fill="#471280"/>
<path d="M240.94 64.56C234.706 64.534 228.476 64.8679 222.28 65.56C220.58 65.88 219.3 67.56 222.52 67.56C225.74 67.56 239.96 67.56 242.66 67.02C245.36 66.48 243.86 64.78 240.94 64.56Z" fill="#471280"/>
<path d="M240.94 72.66C236.94 72.92 225.88 73.56 223.8 73.92C220.72 74.46 222.14 75.62 224.14 75.8C226.14 75.98 239.52 75.5 242 75.62C244.48 75.74 245 72.42 240.94 72.66Z" fill="#471280"/>
<path d="M275.1 182.22C281.721 181.837 288.363 182.072 294.94 182.92C300.74 183.86 314.94 183.02 320.42 183.6C325.9 184.18 328.94 184.52 330.72 182.7C332.5 180.88 331.6 168.7 331.26 163.52C330.92 158.34 330.86 141.14 330.42 135.94C329.98 130.74 330 104.2 330 100C330 95.8 328.9 67.62 328.62 64.42C328.34 61.22 329.12 55.84 327.66 54.52C326.2 53.2 320.04 53.36 315.86 52.96C311.68 52.56 303.86 52.8 298.18 52.5C290.391 52.4497 282.607 52.9174 274.88 53.9C272.88 54.3 273.44 56.56 273.44 60.24C273.44 63.92 273 84.94 272.68 91.7C272.36 98.46 271.36 123.98 271.36 130.82C271.36 137.66 271.92 154.3 271.62 160.4C271.32 166.5 271.62 174.14 271.34 177.3C271.06 180.46 272.22 182.58 275.1 182.22ZM275.52 120.46C275.52 114.62 276.36 80.32 276.36 72.32C276.36 64.32 276 56.56 277 56.42C289 54.56 315.82 55.52 325.34 56.42C327.34 63.26 326.66 94 326.36 102.42C326.06 110.84 327.06 134.24 327.04 138.88C327.02 143.52 327.48 171.76 328.28 175.44C329.08 179.12 328.76 179.78 327.14 180.14C322.222 180.42 317.29 180.359 312.38 179.96C303.86 179.64 281.2 178.68 275.1 178.84C275.1 178.84 275.98 158.24 276.06 152.7C276.14 147.16 275.52 126.28 275.52 120.46Z" fill="#471280"/>
<path d="M281.1 106.22C281.1 116.96 280.22 140.92 280.18 146C280.14 151.08 279.84 170.8 281.62 172.82C283.4 174.84 319.86 174.18 322 172.82C324.14 171.46 322.82 152.4 322.84 147.62C322.86 142.84 322 100.7 322 95.82C322 90.94 321.72 74.76 321.6 69.4C321.48 64.04 320.72 61.82 318.1 61.4C315.48 60.98 285.2 59.76 282.1 62.08C279.94 63.68 280.1 74.28 280.1 79.94C280.1 85.6 281.08 95.5 281.1 106.22ZM283.1 64.66C283.108 64.3873 283.223 64.1287 283.42 63.94C283.516 63.8434 283.632 63.7685 283.76 63.7202C283.887 63.6719 284.024 63.6514 284.16 63.66C287.84 63.78 316.32 64.3 317.6 63.98C318.4 65.16 319.44 91.02 319.82 98.44C320.2 105.86 320.1 130.08 319.82 137.82C319.54 145.56 320.94 169.82 318.98 170.96C317.02 172.1 284.28 171.62 283.48 170.34C282.68 169.06 282.98 130.34 283.28 123.38C283.58 116.42 283.5 98.88 283.04 94.46C282.58 90.04 283 73.84 283.16 64.66H283.1Z" fill="#471280"/>
<path d="M108.34 209.32C110.2 210.54 121.84 211.18 129.28 210.72C136.72 210.26 157.76 211 165.96 211C174.16 211 201.06 211 207.3 211.46C213.54 211.92 220.24 212.12 222.76 209.88C225.28 207.64 224.76 186.32 224.76 180.84C224.76 175.36 224.38 156.34 223.46 150.2C222.54 144.06 223.74 140.52 221.46 138.48C219.18 136.44 202.26 136.68 190.02 136.9C177.78 137.12 163.42 137.7 153.3 137.36C143.18 137.02 128.94 136.12 121.54 136C114.14 135.88 108.68 135.44 107.08 136.68C105.48 137.92 105.94 145.76 106.64 150.2C107.34 154.64 105.82 182.2 105.08 192.2C104.34 202.2 106.48 208.12 108.34 209.32ZM109.34 163.74C109.897 155.3 109.615 146.825 108.5 138.44C117.24 138.44 150.62 139.82 159.04 139.82C167.46 139.82 192.78 139.96 200.52 140.06C208.26 140.16 216.96 140.06 218.52 140.46C220.68 143.74 222 174 221.82 178C221.42 185.62 221.52 207.42 219.54 208.42C217.56 209.42 188.52 207.92 180 207.92C171.48 207.92 142 207.92 135.02 208.32C128.04 208.72 112.42 208.82 110.04 207.62C107.66 206.42 108.16 203.62 107.66 196.82C107.16 190.02 108.46 171.88 109.34 163.74Z" fill="#471280"/>
<path d="M127.34 175.12C130.395 176.578 133.219 178.479 135.72 180.76C137.2 182.48 140.44 185.82 142.46 185.86C144.48 185.9 145.4 183.34 146.46 182.42C147.52 181.5 147.7 179.14 146.12 179.8C144.54 180.46 143.5 182.94 142.78 182.86C140.315 181.15 137.976 179.265 135.78 177.22C133.577 175.571 131.287 174.042 128.92 172.64C128.48 172.32 128.92 171.56 129.38 171.02C129.84 170.48 135.2 163.26 137.2 160.16C139.2 157.06 143.2 151.66 143.6 150.86C144 150.06 144.7 149.76 145.88 150.86C149.238 153.156 152.784 155.163 156.48 156.86C157.9 157.34 157.86 157.94 157.2 158.56C156.619 159.301 156.209 160.162 156 161.08C155.82 161.56 158 161.82 158.22 161.08C158.976 159.957 159.581 158.74 160.02 157.46C160.32 155.96 155.08 152.9 151.7 151.08C149.142 149.736 146.519 148.521 143.84 147.44C143.28 147.2 143.34 148.02 142.46 149.04C141.58 150.06 138 154.66 135.02 158.72C132.04 162.78 126.8 170.22 125.8 172C124.8 173.78 125.76 174.56 127.34 175.12Z" fill="#471280"/>
<path d="M148.96 179.42C150.04 187.02 154.62 192.26 163.82 191.62C173.02 190.98 176.4 182.68 174.64 174.64C172.88 166.6 168 163.42 160.92 163.12C152.78 162.74 148 171.8 148.96 179.42ZM160.96 165.82C167.9 165.82 170.64 170.98 172.28 176.28C172.716 177.681 172.838 179.16 172.638 180.613C172.438 182.067 171.921 183.458 171.123 184.689C170.326 185.92 169.267 186.961 168.022 187.737C166.777 188.513 165.377 189.006 163.92 189.18C157.24 189.8 151.92 185.96 151.46 177.52C151.305 176.129 151.427 174.722 151.82 173.378C152.213 172.035 152.868 170.783 153.748 169.695C154.627 168.607 155.714 167.704 156.946 167.039C158.177 166.374 159.528 165.96 160.92 165.82H160.96Z" fill="#471280"/>
<path d="M178 167.82C179.42 166.06 184.32 161.82 184.64 161.54C184.96 161.26 185.62 161.54 185.68 161.94C185.74 162.34 187.68 170.92 188.48 173.64C189.28 176.36 191.04 183.5 191.32 184C191.6 184.5 191.08 184.76 190.52 184.74C185.835 184.756 181.156 185.103 176.52 185.78C174.24 186.52 173.18 188.54 175.8 188.66C178.42 188.78 190.56 187.56 192.92 187.4C195.28 187.24 194.74 184.42 193.96 182.12C193.18 179.82 188.64 165.16 187.96 162.34C187.28 159.52 187.44 157.7 186.14 157.6C184.84 157.5 183.94 157.96 182.7 159.6C181.46 161.24 177.4 164.96 176.18 166.36C174.96 167.76 176.56 169.58 178 167.82Z" fill="#471280"/>
<path d="M119 235.24C116.88 233.12 112.18 227.98 110.84 227.08C110.444 226.725 109.952 226.495 109.426 226.416C108.9 226.338 108.362 226.416 107.88 226.64C107.669 226.75 107.488 226.91 107.356 227.108C107.223 227.305 107.142 227.533 107.12 227.77C107.098 228.007 107.136 228.246 107.23 228.464C107.325 228.682 107.472 228.874 107.66 229.02C108.62 230.06 109.16 231.14 110.12 232.3C111.08 233.46 116.54 241.78 117.62 243.44C119.957 246.933 122.516 250.274 125.28 253.44C126.72 254.72 129.28 256.08 130.5 255.08C130.823 254.844 131.092 254.542 131.287 254.193C131.483 253.844 131.601 253.457 131.633 253.058C131.665 252.659 131.611 252.258 131.474 251.882C131.337 251.507 131.121 251.165 130.84 250.88C129.62 249.44 121.1 237.34 119 235.24ZM127.44 252.86C123.547 248.613 119.901 244.146 116.52 239.48C114.26 236.2 109.92 230.2 109.38 229.3C108.84 228.4 109.52 228.26 110.22 228.86C114.396 232.967 118.33 237.315 122 241.88C125.1 246.08 128.44 250.34 129.36 252.04C130.28 253.74 129.08 254.34 127.44 252.86Z" fill="#471280"/>
<path d="M356.12 261.04C352.233 253.018 348.957 244.715 346.32 236.2C344.78 230.2 342.54 222.2 338.32 219.1C334.1 216 320.8 215.1 312.46 214.78C304.84 214.44 273.64 214.34 268.18 214.32C269.647 210.96 270.825 207.481 271.7 203.92C272.64 199.92 273.1 198.5 272.54 196.86C271.592 194.344 269.814 192.228 267.5 190.86C267.5 189.94 267.5 189.18 267.5 188.68C267.64 186.68 266.54 182.68 264.92 186.54C264.562 187.409 264.274 188.305 264.06 189.22C263.407 188.977 262.739 188.776 262.06 188.62C262.024 186.608 261.83 184.602 261.48 182.62C260.68 178.62 258.72 177.78 258.42 182.14C258.32 183.76 258.3 185.82 258.42 188H256.42C255.86 185.24 255.34 182.78 255.1 182C254.44 179.7 252.1 180 252.3 182C252.3 182.94 252.46 185.64 252.56 188.66C250.524 189.162 248.71 190.322 247.401 191.96C246.092 193.599 245.36 195.623 245.32 197.72C245.18 200.84 244.82 206.74 245.08 211.72L228.72 211.22C229.924 208.38 230.861 205.434 231.52 202.42C233.18 195.54 233.52 183.24 233.18 171.94C236.7 172.1 247.9 172.5 251.04 172.7C254.74 172.96 255.5 172.8 255.76 170.1C256.02 167.4 256.46 151.74 256.66 145.5C256.86 139.26 257.08 113.12 257.14 109.76C257.2 106.4 257.5 104.52 254.34 104.42C251.18 104.32 239.74 104.42 226.68 103.68C213.62 102.94 188 101.62 173.52 102C159.04 102.38 132.96 102.56 131.66 104.6C130.36 106.64 128.98 120.6 129.44 126.74H118.42C118.54 120.96 119.24 80.38 119.04 72.74C118.82 65.62 119.44 54.44 119.34 46.54C119.34 45.5609 119.011 44.6102 118.405 43.841C117.799 43.0719 116.952 42.5291 116 42.3C102.6 39.28 81.3 37.62 53.4 39.86C52.623 39.9099 51.864 40.1157 51.1683 40.4652C50.4726 40.8147 49.8543 41.3006 49.3504 41.8941C48.8465 42.4876 48.4672 43.1765 48.2352 43.9197C48.0032 44.6629 47.9232 45.4452 48 46.22C49.4 59.8 48.18 82.68 48.88 91.32C49.58 99.96 50.26 122.52 50.22 131.82C50.22 132.315 50.318 132.804 50.5085 133.261C50.6989 133.717 50.978 134.131 51.3295 134.479C51.6811 134.827 52.0981 135.101 52.5565 135.287C53.0149 135.472 53.5055 135.565 54 135.56C71.58 135.84 92.12 137.96 96.52 138.44C95.9827 142.892 95.7688 147.377 95.88 151.86C95.88 170.3 94.72 186.24 96.1 197.86C96.3667 202.536 97.4427 207.131 99.28 211.44C92.6 211.66 72.34 212.32 66.4 212.48C59.26 212.66 57.44 213.34 51.94 221.34C46.44 229.34 32.38 251.22 31.14 255.22C29.9 259.22 30.92 265.88 31.14 268.02C31.36 270.16 33.14 271.26 36.14 271.66C46.2791 272.849 56.4725 273.516 66.68 273.66C57.48 296.38 32.4 361.46 30.96 364.32C29.52 367.18 30.54 368.54 34.06 370.52C37.58 372.5 40.26 369.56 41.54 367.68C42.82 365.8 58.12 342.56 62.74 331.9C66.74 322.5 86.42 282.08 90.94 272.74L97.58 272.58L82.52 301.7C77.18 312.02 74.68 318.2 74.08 321.16C73.48 324.12 74.56 324.48 76.7 325.16C78.84 325.84 81.56 326 82.98 324.56C84.4 323.12 112.98 286.24 116.7 282.44C119.44 279.6 123.44 274.72 125.28 272.44L130.94 272.54C144.26 272.8 166.78 271.92 181.18 273.12C194.28 274.2 234.02 273.76 261.58 273.84C270.44 289.98 294.68 325.34 296.78 327.22C298.88 329.1 301.1 330.76 303.64 329.76C306.18 328.76 308.48 328.1 310.26 327.34C312.04 326.58 312.12 322.92 310.04 318.94C308.24 315.56 291.04 283.04 286.04 273.68C291.04 273.52 296.04 273.3 300.98 273.06C306.62 293.48 319.8 329.48 322.98 340.48C326.26 351.86 333.18 377.38 334.26 380.48C335.34 383.58 336.38 383.84 338.66 383.22C341.079 382.417 343.449 381.475 345.76 380.4C347.5 379.72 347.76 379.04 347.12 375.6C346.48 372.16 333.12 291.6 330.68 271.6C336.06 271.38 340.54 271.3 343.66 271.48C356.2 272.22 355.24 272.04 356.88 269.72C358.52 267.4 358.2 265 356.12 261.04ZM269.28 196C269.46 196.22 269.52 196.4 269.28 196.6C268.778 196.862 268.238 197.044 267.68 197.14C267.68 196.34 267.58 195.14 267.54 194.04C268.156 194.661 268.737 195.315 269.28 196ZM265.28 188.88C265.42 187.94 266.08 187.64 266.08 188.5C266.08 189.36 266.22 194.88 266.28 197.4L264.5 197.68C264.458 194.712 264.74 191.747 265.34 188.84L265.28 188.88ZM259.42 185.66C259.262 184.068 259.357 182.462 259.7 180.9C260.51 182.352 260.905 183.999 260.84 185.66C260.84 187.66 260.84 194.1 260.84 195.66C260.84 197.22 261.86 197.66 262.04 196.48C262.193 194.524 262.239 192.561 262.18 190.6C262.679 190.76 263.167 190.954 263.64 191.18C263.291 193.383 263.111 195.61 263.1 197.84C262.26 197.84 261.36 197.84 260.42 197.96C259.833 193.872 259.519 189.75 259.48 185.62L259.42 185.66ZM258.5 190C258.6 192.8 258.82 195.62 259.06 197.8H258.3C258.04 196.32 257.46 193.24 256.84 190.16C257.38 190.14 258 190.1 258.5 190ZM254.64 184.62C255.655 188.911 256.41 193.258 256.9 197.64C256.16 197.64 255.42 197.48 254.7 197.36C254.52 194.36 253.98 186.04 253.94 185.12C253.9 184.2 254 183.3 254.64 184.7V184.62ZM252.64 191.3C252.64 193.3 252.82 195.44 252.94 197.04C251.211 196.852 249.545 196.285 248.06 195.38C248 195.12 249.44 192.88 252.64 191.38V191.3ZM247.54 198.32C252.66 201.66 261.66 202.78 269.88 200.12C267.88 210.46 263.36 219.32 262.24 220.12C261.12 220.92 256.48 220.12 254.12 219.74C252.924 219.468 251.813 218.906 250.886 218.104C249.958 217.302 249.242 216.284 248.8 215.14C247.476 209.665 247.051 204.011 247.54 198.4V198.32ZM143.08 126.62C142.999 122.922 142.664 119.233 142.08 115.58C142.08 115.58 160.08 115.7 168.4 115.58C176.72 115.46 205.14 115.58 216.06 115.7C226.98 115.82 240.52 115.82 241.38 116.68C241.24 118.86 241.64 127 241.5 135.3C241.36 143.6 243.86 160.64 242 162.12C240.56 163.28 235.12 162.12 232.78 161.54C232.44 154.6 232 149.12 231.76 147.18C231.02 141.48 232.14 126.12 209.44 126.28L143.08 126.62ZM133.8 106.36C134.52 105.54 142.98 106.36 148.82 106.36C154.66 106.36 172.4 104.86 177.54 104.86C182.68 104.86 215.32 107.16 221.1 106.86C226.88 106.56 247.56 106.62 250.78 106.74C254 106.86 254.12 107.24 254.24 110.2C254.36 113.16 253.32 137.32 253.14 143.04C252.96 148.76 253.14 168.48 252.3 169.74C251.46 171 242.1 170.54 233.1 169.62C233.1 167.92 233.1 166.24 232.92 164.64C235.921 164.789 238.912 165.096 241.88 165.56C244.98 166.18 245.48 164.8 245.36 160.84C245.24 156.88 245.6 141.48 245.36 136.64C245.12 131.8 244.98 116.44 243.48 114.4C241.98 112.36 219.34 112 211.3 111.86C203.26 111.72 169.86 113.5 163.46 113.5C157.06 113.5 141.46 112.86 140.08 113.5C138.7 114.14 139.14 121.76 139.3 126.58H132.58C132.96 124.58 133.58 121.24 133.88 118.42C134.34 114.28 133.08 107.16 133.8 106.36ZM56 132.3C55.5384 132.279 55.103 132.08 54.7858 131.744C54.4685 131.408 54.2943 130.962 54.3 130.5C54.56 112.2 52.3 101.54 52.18 91.32C52.08 80.76 53.12 64.9 53.04 57.16C52.9918 53.3181 52.4746 49.4965 51.5 45.78C51.4325 45.526 51.4207 45.2604 51.4656 45.0015C51.5105 44.7426 51.6109 44.4964 51.76 44.28C52.0705 43.852 52.5379 43.5643 53.06 43.48C79.06 40.34 107.76 44.9 114.24 46.04C114.618 46.107 114.959 46.3074 115.201 46.6047C115.443 46.9021 115.571 47.2766 115.56 47.66C114.02 88.24 116.66 88.38 115 101.18C114.042 109.652 113.861 118.195 114.46 126.7H111.26C110.24 126.7 109.26 126.7 108.38 126.7C107.635 115.505 107.909 104.265 109.2 93.12C110.88 80.68 109.44 60.24 109.2 55.52C108.96 50.8 108.9 48.06 100.16 48.34C91.42 48.62 69.58 47.38 65.14 47C60.7 46.62 56.32 46.22 57.62 49C58.92 51.78 58 60 58 69.34C58 78.68 58.42 110.72 58.46 118.24C58.5 125.76 59.5 126.74 63.94 126.72C72.68 126.72 90.34 129.6 99.28 130.72C98.1605 132.123 97.3618 133.755 96.94 135.5C80.24 133.44 61.56 132.52 56 132.3ZM102 128.54C93.04 126 80.18 125.02 62 123.24C62 123.24 61.58 118.24 61.48 112.42C61.38 106.6 60.36 89.34 60.62 80.62C60.88 71.9 61.02 55.48 59.8 50.04C59.8 50.04 96.92 52.94 105.06 52.14C107.06 55.78 107.9 75.62 107.38 86.14C106.86 96.14 104.68 117.32 105.74 127.22C104.433 127.467 103.172 127.912 102 128.54ZM98.48 147.26C99.02 135.64 100.08 129.26 111.74 129.68C123.4 130.1 154.32 129.06 170.6 129.68C186.88 130.3 199.94 130.48 210.02 130.42C220.1 130.36 227.02 135.76 227.74 147.6C228.46 159.44 228.96 192.8 228.76 200.34C228.56 207.88 227.3 215.9 212.52 215.88C197.74 215.86 122.18 215.54 112.34 214.16C102.5 212.78 101.24 207.78 100.34 196.58C99.44 185.38 98 159.02 98.5 147.26H98.48ZM172.14 229.42C172.212 229.738 172.386 230.024 172.635 230.234C172.884 230.444 173.194 230.568 173.52 230.586C173.845 230.604 174.168 230.516 174.438 230.334C174.709 230.153 174.913 229.888 175.02 229.58C175.082 229.075 175.082 228.565 175.02 228.06C175.782 228.054 176.544 228.1 177.3 228.2C178.24 228.34 178.82 228.2 179.3 229.52C179.477 230.893 179.38 232.286 179.017 233.622C178.653 234.957 178.029 236.207 177.18 237.3C175.42 238.86 171.5 239.2 164.52 239.3C159.327 239.221 154.161 238.55 149.12 237.3C147.86 237.04 147.58 236.62 147.12 235.3C146.66 233.98 145.52 227.58 145.98 226.84C146.44 226.1 149.24 226.36 151.26 226.5C151.239 227.548 151.408 228.592 151.76 229.58C152.5 230.62 154.5 231.32 154.78 229.58C154.98 228.22 154.16 222.24 153.92 219.58L171.28 219.82C171.66 222.46 172 228.3 172.16 229.42H172.14ZM176.96 240.18C176.96 241.34 176.76 242.7 175.24 242.78C173.72 242.86 166.18 243.02 163.88 243.18C159.604 243.352 155.321 243.084 151.1 242.38C148.12 241.62 147.92 240.74 147.96 239.62C153.492 240.509 159.078 241.023 164.68 241.16C168 241 176.98 240.18 176.98 240.18H176.96ZM56.36 335.52C48.62 350.98 38.56 366.2 37.38 366.88C36.2 367.56 34.44 365.98 34.94 364.66C35.44 363.34 46.18 335.36 50.66 323.64C54.82 312.82 67.9 281.88 70.06 273.82C72.06 273.82 74.06 273.82 75.96 273.58C78.92 273.38 82.34 273.22 85.96 273.08C76.44 293.8 63.88 320.5 56.36 335.52ZM99.1 299.38C93.1 306.4 82.26 320.86 80.6 321.7C78.94 322.54 77.4 322.66 78.82 319.56C80.24 316.46 97.44 280.04 99.82 275.3L101.12 272.7C107.12 272.7 113.34 272.58 118.84 272.7C113.2 280.8 104.56 293.08 99.1 299.38ZM302.72 314C304.72 317.52 308.14 322.6 307.04 324.14C306.127 324.929 305.009 325.442 303.815 325.619C302.622 325.796 301.403 325.63 300.3 325.14C298.98 324.04 279.22 295.14 275.14 288.72C272.32 284.3 268.14 277.68 265.82 274H269.48C273.48 274 277.48 274 281.62 273.9C285.64 281.72 300.9 311 302.72 314ZM330.12 296.2C332.26 309.94 339.22 359.6 340.88 365.9C342.54 372.2 344.12 376.2 343.1 377.22C342.446 377.797 341.675 378.225 340.839 378.474C340.003 378.723 339.123 378.786 338.26 378.66C337.24 378.14 329.9 349.1 326.26 338.28C322.98 328.8 307.58 284.06 303.8 273.04C312.48 272.6 320.72 272.1 327.8 271.76C327.86 276.22 328.52 286 330.12 296.28V296.2ZM353.14 266.64C351.14 268.96 338.74 268 335.14 268.32C331.54 268.64 286.08 268.94 271.24 268.94C256.4 268.94 226.08 270.44 211.9 270.6C197.72 270.76 150 268.68 135.4 268C120.8 267.32 91.58 268.66 73.08 269.5C60.587 269.866 48.0836 269.365 35.66 268C35.2328 267.945 34.8346 267.754 34.5247 267.455C34.2148 267.156 34.0097 266.765 33.94 266.34C33.56 263.58 33.14 259.7 33.94 257.7C34.98 255.32 54.18 223.58 57.94 219.4C61.7 215.22 66.44 215.4 70.9 215.22C75.36 215.04 91.66 216.7 97.34 214.94C98.82 214.48 99.9 214.12 100.68 213.84C102.014 215.263 103.62 216.403 105.403 217.193C107.186 217.984 109.11 218.408 111.06 218.44C116.28 218.96 133.06 219.34 151.36 219.62C151.22 220.92 151.14 222.5 151.12 224C149.84 224 147.5 223.84 146.24 223.86C144.44 223.86 142.42 224.38 142.48 226.62C142.762 230.238 143.25 233.837 143.94 237.4C144.3 238.94 145.46 238.76 145.78 239.2C146.073 240.567 146.668 241.852 147.52 242.96C148.96 244.46 158.66 244.84 163 244.76C167.34 244.68 176.48 244.42 177.56 243.84C178.64 243.26 178.56 239.84 179.4 239.48C180.24 239.12 181 238.16 182.02 235.02C182.557 233.551 182.78 231.985 182.673 230.424C182.566 228.863 182.133 227.342 181.4 225.96C180.18 224.34 176.58 224.96 174.58 225.18C174.24 223.18 173.8 221.18 173.44 219.92C190.18 220.12 205.08 220.24 210.52 220.3C218.94 220.42 223.66 218.9 226.82 214.48L245.4 215.48C245.533 216.805 245.979 218.08 246.7 219.2C249.26 222.46 259 224.2 262.38 222.76C264.103 221.569 265.449 219.911 266.26 217.98C285.78 217.88 304.72 218.2 312.52 218.3C320.32 218.4 332.74 219.36 336.52 221.58C340.3 223.8 346.14 240.84 347.52 245.4C348.9 249.96 355.04 264.38 353.14 266.72V266.64Z" fill="#471280"/>
<path d="M264 213.74C265.48 212.46 266.3 208.26 266.16 205.74C266.02 203.22 264 204.56 264.16 206.46C264.097 208.545 263.586 210.591 262.66 212.46C262.1 214 262.58 215.04 264 213.74Z" fill="#471280"/>
<path d="M301.08 256.1C301.08 257.54 302.52 257.6 304.36 257.28C306.2 256.96 328.98 257.4 330.36 257.5C331.74 257.6 332.02 256.96 332.02 254.74C332.02 252.52 332.02 239.42 331.34 233.72C330.66 228.02 329.68 225.26 328.9 224.52C328.304 224.337 327.684 224.243 327.06 224.24C327.019 223.91 326.959 223.583 326.88 223.26C326.54 221.68 325.88 221.92 325.62 223.46C325.62 223.72 325.62 223.96 325.52 224.16H323.96C323.896 223.762 323.809 223.368 323.7 222.98C323.28 221.36 321.94 221.7 321.86 223.44C321.86 223.68 321.86 223.9 321.86 224.12H319.64C319.559 223.768 319.458 223.421 319.34 223.08C318.84 221.66 317.76 221.82 317.6 223.2C317.581 223.493 317.581 223.787 317.6 224.08H316C315.925 223.644 315.811 223.216 315.66 222.8C315.16 221.5 314.08 221.46 313.88 223.2C313.88 223.52 313.88 223.8 313.88 224.06H311.52C311.52 223.66 311.42 223.26 311.38 222.92C311.26 221.7 310.16 221.5 310.04 222.92V223.98H308.56C308.38 223.32 308.22 222.7 308.16 222.38C308.02 221.32 306.74 221.18 306.8 222.38C306.8 222.76 306.8 223.38 306.8 224.04H306C305.979 223.53 305.926 223.023 305.84 222.52C305.68 221.56 304.16 221.32 304.14 222.52C304.14 222.96 304.14 223.44 304.14 223.96H301.82C300.94 223.96 300.52 223.54 300.24 225.34C299.665 231.195 299.518 237.084 299.8 242.96C300.1 250.56 301.04 254.68 301.08 256.1ZM329.26 255.04C326.057 255.445 322.824 255.559 319.6 255.38C315.44 255.26 303.6 255.7 303.36 255.38C303.114 254.49 303.156 253.545 303.48 252.68C304.04 252.28 317.48 253.46 320.34 253.32C323.394 253.08 326.46 253.026 329.52 253.16C330.1 253.42 329.6 254.78 329.26 255.04ZM302.92 226.12C303.348 226.031 303.783 225.984 304.22 225.98V226.58C304.38 228.14 305.92 227.72 305.94 226.58V226H306.82C307.02 226.8 307.42 227.38 308.18 227.28C308.94 227.18 308.76 226.7 308.72 226H309.78C309.78 226.28 309.78 226.54 309.78 226.82C309.9 228.2 311.68 228.16 311.62 227.04C311.62 226.72 311.62 226.36 311.62 225.98H313.84C313.904 226.419 313.998 226.853 314.12 227.28C314.44 228.52 315.84 228.86 316.12 227.56C316.163 227.028 316.163 226.492 316.12 225.96H317.62C317.671 226.282 317.758 226.598 317.88 226.9C318.2 227.78 319.12 228.48 319.56 227.18C319.697 226.794 319.778 226.389 319.8 225.98H321.94C321.94 226.34 322.08 226.72 322.18 227.14C322.192 227.261 322.227 227.378 322.285 227.485C322.342 227.592 322.419 227.687 322.513 227.764C322.607 227.841 322.715 227.899 322.831 227.934C322.947 227.97 323.069 227.982 323.19 227.97C323.311 227.958 323.428 227.923 323.535 227.866C323.642 227.808 323.737 227.731 323.814 227.637C323.891 227.543 323.949 227.435 323.984 227.319C324.02 227.203 324.032 227.081 324.02 226.96C324.02 226.68 324.02 226.38 324.02 226.04H325.42C325.42 226.3 325.42 226.6 325.54 226.92C325.553 227.118 325.636 227.304 325.776 227.445C325.915 227.585 326.1 227.671 326.298 227.685C326.495 227.7 326.691 227.643 326.85 227.524C327.008 227.405 327.118 227.234 327.16 227.04C327.16 226.82 327.16 226.56 327.16 226.22C327.42 226.22 327.58 226.32 327.58 226.4C327.58 226.94 328.56 237.16 328.76 240.1C328.96 243.04 329.98 250.66 329.38 251.18C328.78 251.7 319.24 251.18 315.74 251.18C312.24 251.18 303.74 251.18 303.4 250.46C302.822 246.938 302.601 243.366 302.74 239.8C302.9 235.7 302 226.5 302.92 226.12Z" fill="#471280"/>
<path d="M346.76 263.3C343.98 263.3 313.76 263.3 305.28 263.54C296.8 263.78 280.74 264.42 278.4 264.56C276.56 264.68 276.12 266.38 278.5 266.28C280.88 266.18 308.24 265.64 318.02 265.64C327.8 265.64 343.72 265.38 347.28 265.64C350.84 265.9 349.52 263.22 346.76 263.3Z" fill="#471280"/>
<path d="M284.18 249.52C283.26 243.14 278.18 235.08 273.98 235.14C269.78 235.2 265.02 245.58 265.32 252.34C265.62 259.1 269.2 262.34 275.88 261.92C282.56 261.5 285.1 256 284.18 249.52ZM273.98 237.74C277.12 237.74 281.1 245.74 281.06 249C281.02 252.26 278.9 256.02 274.88 256.06C274.006 256.057 273.14 255.882 272.334 255.543C271.528 255.204 270.797 254.709 270.183 254.086C269.57 253.463 269.086 252.724 268.759 251.913C268.432 251.102 268.269 250.234 268.28 249.36C268.12 246 271.1 237.74 274 237.74H273.98ZM267.98 257.74C266.64 256.56 268.12 256.34 269.1 257.24C270.784 258.559 272.902 259.194 275.034 259.02C277.165 258.846 279.153 257.875 280.6 256.3C282.26 254.3 282.84 255.82 282.04 256.88C281.229 257.938 280.202 258.81 279.026 259.437C277.851 260.065 276.554 260.434 275.224 260.519C273.895 260.604 272.562 260.404 271.316 259.932C270.07 259.459 268.939 258.726 268 257.78L267.98 257.74Z" fill="#471280"/>
<path d="M274.66 243.24C274.71 242.514 274.71 241.786 274.66 241.06C274.66 240.06 272.66 239.46 272.66 241.34C272.745 242.009 272.697 242.689 272.52 243.34C272.32 244.52 274.64 244.2 274.66 243.24Z" fill="#471280"/>
<path d="M271.38 250.32C273.7 249.94 274.6 249.26 276.92 250.54C277.88 251.06 278.48 250.24 277.76 249.18C276.806 248.34 275.598 247.844 274.329 247.771C273.06 247.699 271.803 248.054 270.76 248.78C270.623 248.9 270.527 249.06 270.485 249.237C270.443 249.415 270.457 249.601 270.525 249.77C270.593 249.939 270.712 250.082 270.865 250.181C271.018 250.279 271.198 250.328 271.38 250.32Z" fill="#471280"/>
<path d="M203.16 258C207.16 258.46 221.98 259.26 228.16 259.36C234.34 259.46 246.8 259.64 249.78 257.36C252.76 255.08 254.88 236.42 253.16 233.68C252.1 231.98 202.02 231.2 198.2 233.68C196.74 234.6 196.2 243.84 197.24 249.68C198.28 255.52 199.16 257.48 203.16 258ZM200.94 251.58C200.307 250.494 199.982 249.257 200 248H204.24C204.34 248.94 204.4 249.7 204.42 250C204.42 251.64 205.86 252.4 205.9 251.12C205.9 250.74 205.9 249.52 205.78 247.96H210.02C210.16 249.36 210.28 250.46 210.32 250.8C210.46 252.02 211.7 252.02 211.52 250.68C211.52 250.34 211.38 249.3 211.28 247.98H215.28C215.28 249.98 215.28 251.98 215.28 253.1C208.7 253.38 202.1 252.88 200.94 251.52V251.58ZM205.34 242.16C205.34 241 205.22 239.98 205.18 239.28H209C209 239.94 209.18 240.96 209.3 242.12L205.34 242.16ZM209.46 243.9C209.58 244.94 209.68 245.9 209.78 246.98H205.62C205.62 246 205.5 244.98 205.44 243.92L209.46 243.9ZM210.72 242.24C210.72 241.06 210.56 240.06 210.52 239.42L215.14 239.54C215.14 240.18 215.14 241.14 215.14 242.3L210.72 242.24ZM215.2 244.02C215.2 245 215.2 246.02 215.2 247.04H211.02C211.02 246.06 210.88 245.04 210.8 243.98L215.2 244.02ZM248.32 256.26C246.56 257.06 240.14 258 227.92 258C219.228 257.995 210.544 257.447 201.92 256.36C201.04 256.08 201.04 254.68 201.04 254.68C201.04 254.68 211.18 255.88 219.56 255.98C227.94 256.08 246 255.68 247.92 255.26C249.84 254.84 250 255.4 248.32 256.2V256.26ZM217.02 247.04L216.76 244.06L222.56 244.18L222.74 246.98L217.02 247.04ZM222.84 248.58L223.16 253.54C221.44 253.54 219.54 253.54 217.58 253.54L217.14 248.44L222.84 248.58ZM216.6 242.3L216.36 239.58L222.36 239.74L222.52 242.34L216.6 242.3ZM225.4 246.9H224.34L224.04 244.18C225.92 244.18 227.92 244.18 230.04 244.18C230.04 244.96 230.04 245.76 230.2 246.5V246.7L225.4 246.9ZM230.4 248.64C230.64 250.36 230.94 252.14 231.14 253.3C229.62 253.3 228.2 253.3 226.94 253.42H224.94L224.44 248.56C226.36 248.58 228.36 248.6 230.4 248.58V248.64ZM229.94 242.32H223.94L223.66 239.74L230.02 239.88C230 240.4 230 241.28 230 242.26L229.94 242.32ZM237.24 244.04C237.24 244.84 237.36 245.68 237.4 246.52L231.8 246.7C231.7 246.105 231.654 245.503 231.66 244.9V244.2C233.54 244.12 235.42 244 237.24 244V244.04ZM231.7 242.3C231.7 241.36 231.7 240.52 231.7 239.92H236.76C236.76 240.54 236.94 241.34 237.02 242.24L231.7 242.3ZM237.48 248.58C237.565 250.119 237.565 251.661 237.48 253.2C236.06 253.2 234.6 253.2 233.2 253.2C232.92 252.16 232.48 250.34 232.14 248.58H237.48ZM238.78 246.48C238.66 245.64 238.56 244.8 238.48 244L245.34 243.66C245.48 244.52 245.58 245.42 245.64 246.28L238.78 246.48ZM245.7 248.48C245.7 250.24 245.7 251.8 245.8 252.76C244.26 252.98 242.3 253.12 240.18 253.2C239.687 251.708 239.325 250.175 239.1 248.62L245.7 248.48ZM238.3 242.26C238.3 241.34 238.2 240.54 238.3 239.94C240.42 239.94 242.66 239.94 244.78 239.94C244.88 240.44 245.02 241.18 245.16 241.94L238.3 242.26ZM248.94 251.68C248.521 252.054 248.01 252.309 247.46 252.42C247.46 251.48 247.46 249.98 247.46 248.42H250.04C249.902 249.533 249.527 250.604 248.94 251.56V251.68ZM250.3 246.2H247.32C247.32 245.74 247.32 245.3 247.32 244.9C247.32 244.5 247.2 243.98 247.12 243.54L250.68 243.3C250.5 244.2 250.42 245.16 250.3 246V246.2ZM250.7 241.78C249.78 241.78 248.44 241.92 246.7 241.98C246.52 241.22 246.34 240.54 246.18 239.98C247.94 239.98 249.54 240.12 250.8 240.26C250.76 240.66 250.72 241.16 250.7 241.66V241.78ZM199.8 235.4C199.8 235.4 205.8 234.9 211.8 234.88C218.42 234.88 233.4 235.14 250.9 236.12C250.9 236.12 250.9 236.74 250.9 237.74H199.78C199.78 236.84 199.8 236 199.8 235.4ZM199.8 239.06H203.34C203.34 239.7 203.5 240.74 203.64 241.96H199.64C199.68 240.96 199.7 240 199.72 239.06H199.8ZM203.8 243.74C203.8 244.76 204 245.74 204.1 246.78L199.84 246.6C199.84 245.66 199.84 244.6 199.84 243.66L203.8 243.74Z" fill="#471280"/>
<path d="M260 265.34C255.66 265.22 213.78 263.22 200.46 262.68C189.06 262.22 151.28 260.68 140.08 262.14C136.42 262.62 137.78 264.7 140.76 264.6C143.74 264.5 157.78 264.6 173.86 264.6C189.94 264.6 229.7 266.32 241.74 267.46C248.14 267.86 254.563 267.72 260.94 267.04C263.32 266.8 264.24 265.44 260 265.34Z" fill="#471280"/>
<path d="M128.22 262.44C125.38 261.94 107.36 262.04 96.84 261.94C86.32 261.84 68.5 261.74 62.66 261.06C55.8314 260.45 48.9721 260.257 42.12 260.48C38.62 260.64 39.38 262.62 41.62 263.02C43.86 263.42 48.84 262.62 54.68 262.44C60.52 262.26 73.76 264.44 84.38 264.18C95 263.92 119.26 264.18 124.8 264.96C130.34 265.74 131.04 262.92 128.22 262.44Z" fill="#471280"/>
<path d="M78.22 250.76C77.9972 250.76 77.7836 250.849 77.626 251.006C77.4685 251.164 77.38 251.377 77.38 251.6C77.38 251.823 77.4685 252.036 77.626 252.194C77.7836 252.352 77.9972 252.44 78.22 252.44C78.4428 252.44 78.6564 252.352 78.814 252.194C78.9715 252.036 79.06 251.823 79.06 251.6C79.06 251.377 78.9715 251.164 78.814 251.006C78.6564 250.849 78.4428 250.76 78.22 250.76Z" fill="#471280"/>
<path d="M59.74 256.98C65.1402 257.771 70.5837 258.232 76.04 258.36C81.12 258.36 90.9 258.56 94.66 258.36C95.9629 258.513 97.2739 258.149 98.3103 257.344C99.3466 256.54 100.025 255.36 100.2 254.06C100.8 251.66 101.58 243.04 101.96 239.46C102.34 235.88 103.08 228.26 102.3 225.58C101.867 223.98 100.915 222.568 99.5946 221.565C98.2738 220.563 96.658 220.027 95 220.04C90.62 219.86 75.8 219.14 72.76 219.26C69.72 219.38 66.66 219.48 65.74 221.84C64.82 224.2 58.38 241.84 57.38 245.36C56.38 248.88 56.54 250.66 57.64 251.94C57 254.2 58.5 256.8 59.74 256.98ZM96.8 256C94.4 257.04 89.18 256.86 82.8 256.76C76.42 256.66 61.94 256.16 60.54 255.38C59.14 254.6 59.28 253.66 61.22 254.08C65.3625 254.736 69.5464 255.097 73.74 255.16C77.52 255.16 94.22 254.88 96.24 254.62C98.26 254.36 98.24 252.62 98.64 252.82C99.04 253.02 99.2 255 96.8 256ZM59.66 248C60.82 244.44 66.36 225.58 66.72 224.12C67.08 222.66 67.2 221.94 68.72 221.94C71.86 221.94 73.3 221.24 95.06 222.3C98.06 222.44 98.64 224.78 99.5 228.12C100.36 231.46 99.08 241.6 98.48 245.24C97.88 248.88 99.08 252.74 94.34 253.24C89.6 253.74 68.06 253.24 65.22 252.38C62.38 251.52 58.48 251.66 59.66 248.1V248Z" fill="#471280"/>
<path d="M62.52 249.32C63.84 250.44 72.8 250.46 75.12 250.3C77.44 250.14 90.54 250.64 92.88 250.58C95.22 250.52 96.52 249.38 96.34 247.3C96.12 244.58 99.24 226.38 96.34 225C94.9 224.32 88.52 224.64 85.06 224.32C81.6 224 71.06 223.76 69.88 223.9C68.7 224.04 69.1 224.06 68.6 226.04C68.1 228.02 64.42 237.54 63.4 240.66C62.38 243.78 61.22 248.2 62.52 249.32ZM66.22 235.32C66.88 233 68.62 228.72 69.4 226.5C69.4636 226.307 69.587 226.139 69.7524 226.02C69.9177 225.901 70.1165 225.838 70.32 225.84C74.32 225.84 93.6 226.02 94.56 226.42C95.52 226.82 95.92 229.44 95.88 232.06C95.6054 237.559 95.0446 243.04 94.2 248.48C93.76 249.62 92.86 248.76 89.96 248.86C87.06 248.96 74.26 249.12 71.28 249.04C68.3 248.96 64.06 248.54 63.28 247.76C62.5 246.98 65.5 237.86 66.22 235.3V235.32Z" fill="#471280"/>
</svg>
