<svg width="400" height="400" viewBox="0 0 400 400" fill="none" xmlns="http://www.w3.org/2000/svg">
<path d="M264 223.66H263.88H264ZM96.9999 282C97.7599 282.12 101.92 282.32 101.92 281.6C101.92 281.18 101.16 281.2 101.16 281.2C101.26 278 105.32 277.2 108.22 278.88C109.019 279.34 109.758 279.897 110.42 280.54C106.32 280.76 100.88 283.56 101.24 287.62C101.447 288.679 101.891 289.677 102.538 290.539C103.186 291.402 104.021 292.106 104.98 292.6C106.179 293.497 107.544 294.147 108.997 294.511C110.449 294.875 111.96 294.946 113.44 294.72C116.076 294.048 118.396 292.478 120 290.28C123.625 290.395 127.172 289.211 130 286.94C130.119 286.845 130.218 286.727 130.29 286.593C130.363 286.459 130.407 286.312 130.42 286.16C130.42 285.46 130.42 285.5 126.42 281.06C126.307 280.934 126.165 280.836 126.006 280.776C125.847 280.716 125.677 280.695 125.508 280.714C125.34 280.734 125.178 280.794 125.038 280.889C124.897 280.984 124.781 281.111 124.7 281.26C124.631 281.347 124.571 281.441 124.52 281.54C124.202 282.136 123.689 282.605 123.066 282.868C122.443 283.13 121.749 283.17 121.1 282.98C119.1 282.4 116.52 277.1 111.82 273.94C107.72 271.18 102.22 270.36 98.3399 273.64C96.67 275.073 95.4827 276.987 94.9399 279.12C94.724 279.778 94.7669 280.493 95.0599 281.12C95.5852 281.629 96.2709 281.94 96.9999 282ZM104.52 289.42C103.972 289.028 103.591 288.444 103.454 287.785C103.317 287.125 103.433 286.438 103.78 285.86C104.667 284.634 105.899 283.701 107.32 283.18C106.174 285.123 105.235 287.181 104.52 289.32V289.42ZM123.36 286.26C123.84 284.82 123.36 285.32 124.16 284.96C124.766 284.658 125.314 284.252 125.78 283.76L127.6 285.92C126.093 286.875 124.426 287.553 122.68 287.92C122.88 287.4 123.2 286.6 123.36 286.16V286.26ZM116.12 281.16C118.02 283.54 119.6 285.66 122.5 285.42C122.086 286.281 121.751 287.178 121.5 288.1C120.04 288.2 119.84 287.86 119.26 288.1C118.12 288.54 116.24 292.64 111.68 292.62C111.964 291.986 112.146 291.311 112.22 290.62C113.51 290.359 114.718 289.79 115.74 288.96C116.178 288.58 116.462 288.054 116.54 287.48C116.54 286.78 116.3 285.88 114.82 284.7C115.371 283.532 115.807 282.313 116.12 281.06V281.16ZM109.4 288.72C107.64 287.78 110.64 286.12 112.58 286.18C113.026 286.183 113.461 286.313 113.837 286.553C114.212 286.794 114.511 287.136 114.7 287.54C114.433 287.97 114.081 288.341 113.665 288.63C113.249 288.92 112.779 289.121 112.283 289.222C111.786 289.323 111.275 289.322 110.779 289.218C110.283 289.115 109.814 288.911 109.4 288.62V288.72ZM111.76 276.48C113.118 277.635 114.351 278.928 115.44 280.34C114.807 281.494 114.323 282.724 114 284C113.159 283.759 112.278 283.693 111.411 283.806C110.544 283.92 109.71 284.21 108.96 284.66C105.3 286.66 106.16 291.04 111.24 290.54C110.941 291.115 110.719 291.727 110.58 292.36C108.552 291.956 106.655 291.056 105.06 289.74C106.478 287.537 107.582 285.147 108.34 282.64C109.117 282.283 109.959 282.085 110.814 282.057C111.669 282.03 112.521 282.173 113.32 282.48L113.74 280.9L113.3 280.7C112.36 280.06 111.94 279.56 110.86 278.7C111.261 277.97 111.563 277.19 111.76 276.38V276.48ZM104 273.28C106.503 273.326 108.926 274.166 110.92 275.68C110.562 276.495 110.294 277.347 110.12 278.22C109.161 277.468 108.03 276.966 106.829 276.76C105.628 276.554 104.395 276.65 103.24 277.04C103.662 275.827 103.918 274.562 104 273.28ZM99.4199 274.84C100.529 273.977 101.861 273.45 103.26 273.32C102.639 274.664 102.254 276.105 102.12 277.58C101.524 277.937 101.036 278.45 100.709 279.063C100.381 279.676 100.226 280.366 100.26 281.06C98.8586 281.137 97.4564 280.926 96.1399 280.44C96.4374 278.218 97.6023 276.205 99.3799 274.84H99.4199ZM69.5399 271.5C65.9399 269.94 57.9399 274.56 56.4799 277.04C56.2687 277.587 56.2687 278.193 56.4799 278.74C57.7399 283.52 69.4999 300.4 71.6799 303.02C72.0599 303.5 72.5799 302.84 72.2399 302.28C71.1999 300.56 71.3199 304.02 76.6399 286.8C77.1327 286.607 77.5918 286.337 77.9999 286C78.1854 285.794 78.2881 285.527 78.2881 285.25C78.2881 284.973 78.1854 284.706 77.9999 284.5C77.8183 284.276 77.6101 284.074 77.3799 283.9L78.6399 279.24L83.6399 282C82.6288 284.527 81.8912 287.156 81.4399 289.84C79.4234 290.567 77.5337 291.606 75.8399 292.92C74.6599 294.22 76.5199 296.62 77.6799 298.06C78.8399 299.5 79.8199 300.48 80.0399 300.7C80.2599 300.92 80.9599 300.7 80.8999 300.34C80.7729 300.05 80.6045 299.781 80.3999 299.54C79.3162 297.853 78.3858 296.073 77.6199 294.22C79.1744 293.29 80.8154 292.513 82.5199 291.9C83.1399 291.68 85.0599 291.08 85.5799 291.4C88.1458 292.752 90.8221 293.882 93.5799 294.78C93.6913 294.833 93.8192 294.84 93.9355 294.798C94.0518 294.757 94.1469 294.671 94.1999 294.56C94.253 294.449 94.2596 294.321 94.2183 294.204C94.1771 294.088 94.0913 293.993 93.9799 293.94L90.5199 291.84C91.2565 290.17 91.7288 288.395 91.9199 286.58L100.46 291.2C100.98 291.5 101.38 290.68 101 290.46C100.62 290.24 74.6999 273.76 69.5399 271.5ZM66.4999 273.62C67.1979 273.41 67.942 273.41 68.6399 273.62C69.0999 273.82 70.2199 274.42 71.7399 275.26C71.2272 276.675 70.8783 278.145 70.6999 279.64C69.3599 278.88 68.5599 278.3 67.4999 278.48C66.9222 278.609 66.3817 278.869 65.9199 279.24C66.1199 277.68 66.2999 276.48 66.4999 273.62ZM58.4999 278.02C60.5742 276.042 63.0906 274.589 65.8399 273.78C64.7725 278.498 64.0242 283.282 63.5999 288.1C61.5832 284.906 59.8818 281.523 58.5199 278L58.4999 278.02ZM67.5799 294.84C66.4799 293.02 65.2799 291 64.1399 289.02C64.8199 286.16 65.0399 284.84 65.4599 282.14C66.5542 284.038 67.8194 285.832 69.2399 287.5C68.4336 289.881 67.8838 292.342 67.5999 294.84H67.5799ZM71.0799 300.6C70.3599 299.46 69.4399 297.92 68.2399 295.94C68.9992 293.431 69.5017 290.851 69.7399 288.24C70.1799 289.3 74.0999 287.78 75.1599 287.38C74.3799 289.84 71.6599 298.4 71.0999 300.6H71.0799ZM70.4799 287.62C69.2405 285.475 68.1447 283.25 67.1999 280.96L67.8199 280.62C68.0999 280.78 74.9399 284.82 75.4399 285.14C73.8812 286.131 72.2261 286.962 70.4999 287.62H70.4799ZM76.4799 283.22C74.9799 282.22 72.9399 281 71.3799 280.1C71.9137 278.684 72.2632 277.205 72.4199 275.7L78.0999 278.9C77.9999 279.66 77.3199 281.22 76.5999 283.22H76.4799ZM89.7199 291.22L86.6399 289.36C85.2713 288.82 83.7485 288.82 82.3799 289.36C83.1551 287.022 83.7174 284.619 84.0599 282.18L91.2999 286.18C90.5602 287.811 90.0682 289.543 89.8399 291.32L89.7199 291.22Z" fill="black"/>
<path d="M388.7 298.34C385.46 268.18 357.54 221.8 340.86 196.46C350.173 197.205 359.521 197.439 368.86 197.16C371.52 197.16 378.48 196.68 379.82 196.42C380.6 196.26 380.72 195.52 379.54 195.48C378.36 195.44 369.96 195.04 368.82 195.02H348.48C345.36 195.14 340.48 195.42 340.2 195.42C334.2 186.28 330.02 180.56 329.98 180.54C329.934 180.493 329.879 180.457 329.817 180.434C329.756 180.41 329.691 180.4 329.625 180.404C329.56 180.408 329.496 180.426 329.438 180.456C329.38 180.487 329.33 180.529 329.289 180.581C329.249 180.632 329.221 180.692 329.205 180.756C329.19 180.819 329.188 180.886 329.201 180.95C329.213 181.014 329.239 181.075 329.277 181.129C329.315 181.182 329.363 181.227 329.42 181.26C330.34 182 370.76 241.06 383.12 281.74C388.02 297.88 390.92 318.14 375.12 323.74C337.6 337.14 43.7399 341.5 15.9599 325.74C12.0999 323.56 11.1999 319.02 11.9599 312.9C13.1399 304.4 17.7199 292.9 23.2399 280.02C29.4599 286.02 81.0599 333.4 89.4199 331.62C97.7799 329.84 144.8 308 146.74 303.82C147.867 300.917 148.463 297.834 148.5 294.72C148.737 294.394 148.847 293.993 148.81 293.592C148.773 293.191 148.592 292.817 148.3 292.54C145.2 289.46 83.6999 240.7 79.7399 240.84C76.9799 240.96 71.9799 243.8 69.5999 245.2C68.8283 243.937 67.6794 242.949 66.3157 242.375C64.952 241.801 63.4423 241.67 61.9999 242C60.64 242.549 59.4223 243.4 58.4385 244.487C57.4547 245.575 56.7303 246.872 56.3199 248.28C56.3424 248.388 56.4013 248.485 56.4869 248.555C56.5726 248.624 56.6796 248.662 56.7899 248.662C56.9003 248.662 57.0073 248.624 57.0929 248.555C57.1786 248.485 57.2375 248.388 57.2599 248.28C58.4629 246.246 60.3699 244.723 62.6199 244C63.5555 243.856 64.5126 243.981 65.38 244.36C66.2474 244.739 66.9895 245.356 67.5199 246.14L45.2799 255.64C44.0991 254.426 42.6249 253.537 40.9999 253.06C37.1999 252.06 34.6399 254.56 33.1199 258.22C33.0865 258.325 33.0903 258.439 33.1309 258.542C33.1714 258.644 33.2462 258.73 33.3425 258.784C33.4389 258.838 33.5509 258.857 33.6598 258.838C33.7686 258.819 33.8675 258.763 33.9399 258.68C36.4999 254.98 39.4599 253.72 42.9999 256.68C38.7199 258.58 32.7399 261.28 28.5399 263.36C28.8399 262.88 71.9999 184.72 71.9999 184.52C73.8999 181 77.7199 174.7 81.66 173.88C83.4408 173.492 85.2573 173.291 87.0799 173.28C84.2999 177.88 61.7399 215.28 61.6999 220.56C61.6999 226.56 62.7399 225.62 65.9399 226.56C69.1399 227.5 248.2 226.4 248.52 226.4C251.62 226.4 263.74 226 264.86 225.18C268.34 222.62 267.56 218.8 266.04 214.78C265.68 213.82 263.86 209.84 261.42 204.52C271.92 201.36 279.82 205.38 280.54 222.52C281.26 237.34 275.42 241.86 264.24 241.22C255.26 240.7 249.06 238.06 247.1 241.56C244.9 245.46 250.98 254.22 253.62 257.86C253.24 257.86 236.5 257.52 232.28 257.34C226.333 257.11 220.379 257.183 214.44 257.56C210.35 257.65 206.284 258.207 202.32 259.22C200.82 259.96 198.88 263.82 198.06 265.44C196.44 268.62 189.06 288.58 187.02 294.34C185.82 297.66 181.76 308.66 184.48 310.6C184.38 312.74 184.72 315.6 186.6 316.6C188.48 317.6 214.32 318.32 216.3 318.36C219.8 318.46 255.18 318.92 277.76 317.92C300.34 316.92 310.2 314.76 309.62 314.82C310.193 314.651 310.709 314.326 311.108 313.881C311.507 313.436 311.774 312.888 311.88 312.3C312.188 310.822 312.092 309.288 311.6 307.86C314.12 302.96 295.06 262.28 289.78 259.42C289.468 259.244 289.118 259.148 288.76 259.14C287.7 259.14 263.98 258.14 254.76 257.84C252.76 255.02 246.26 244.4 248.76 242.14C252.56 238.82 284.3 255.46 282.6 222.34C281.72 207.36 274.82 198.58 260.82 203.66C259.6 201.02 249.36 179.14 246.62 173.32C257.235 173.955 267.883 173.721 278.46 172.62C278.612 174.487 279.149 176.301 280.037 177.95C280.925 179.599 282.145 181.046 283.62 182.2C291.62 188.2 323.46 187.3 329.24 179.96C330.86 177.745 331.979 175.205 332.521 172.515C333.063 169.825 333.015 167.049 332.38 164.38C332.912 164.041 333.324 163.545 333.56 162.96C333.88 162.34 333.56 161.56 332.18 161.28C330.4 161.013 328.599 160.906 326.8 160.96C326.8 159.32 326.9 156.26 326.8 152.78C326.98 152.66 328.28 151.1 328.42 150.92C330.014 149.057 331.272 146.933 332.14 144.64C332.8 142.78 333.06 140.64 331.32 139.6C328.64 138.14 326.76 140.82 325.86 143.82C325.02 139.2 323.08 132.42 318.44 133.1C310.56 134.3 316 153.4 318.56 160.96C316.311 160.643 314.029 160.643 311.78 160.96C314.28 154.68 315.56 146.56 309.14 145.34C308.167 145.125 307.152 145.2 306.22 145.555C305.289 145.91 304.482 146.531 303.9 147.34C303.771 146.887 303.53 146.475 303.199 146.141C302.867 145.807 302.457 145.562 302.005 145.43C301.553 145.298 301.075 145.283 300.616 145.386C300.157 145.49 299.732 145.708 299.38 146.02C296.44 148.14 298.12 153 301.54 154.6C301.36 156.656 301.36 158.724 301.54 160.78C299.411 160.523 297.256 160.57 295.14 160.92C295.021 156.037 294.486 151.172 293.54 146.38C294.755 145.515 295.778 144.407 296.542 143.127C297.306 141.846 297.796 140.42 297.98 138.94C298.26 136.28 297.32 134.06 295.1 133.48C292.32 132.76 290.68 134.7 290.2 137.48C287.74 134.08 282.92 132.86 280.58 136.76C273.08 128.96 269.46 133.32 271.36 136.76C272.78 139.4 276.48 140.88 279.36 141.7C279.36 146.18 281.36 149.96 283.84 153.82C285.5 156.42 287.36 158.92 288.8 160.76C285.688 160.66 282.573 160.861 279.5 161.36C277.62 161.86 277.32 163.22 279.06 164.2C278.51 166.544 278.308 168.957 278.46 171.36C267.716 170.788 256.945 171.042 246.24 172.12C245.56 170.66 243.54 166.4 243.3 165.9C243.06 165.4 244.98 159.6 247.68 105.68C260.08 104.64 315.84 105.88 320.96 103.9C321.253 103.795 321.514 103.613 321.714 103.374C321.914 103.135 322.047 102.847 322.1 102.54C323.8 96.9599 324.96 48.9999 322.1 44.5399C321.4 43.4399 318.9 43.0999 317.52 42.8999C299.7 40.2999 225.34 41.4199 221.52 43.4399C217.7 45.4599 219.32 65.1799 220.04 69.0999C181.42 67.8599 92.2399 70.2799 83.8399 73.4199C81.8399 74.1399 81.0999 76.8799 80.6999 78.9399C77.3799 96.0799 86.6999 151.24 89.8199 168.28C89.6199 168.28 89.8199 168.28 87.3799 172.08C85.3147 171.927 83.2384 172.034 81.1999 172.4C76.6399 173.1 72.4399 179.4 70.1199 183.32C70.02 183.52 64.1199 193.32 63.2399 194.92C58.2199 194.14 34.8799 194.44 31.9199 194.6C28.9599 194.76 25.9199 194.98 23.2399 195.18C22.7599 195.18 22.7199 196.1 23.2399 196.12C28.8399 196.46 30.8999 196.58 35.2399 196.64C45.8599 196.8 61.5199 197.24 62.0199 197.18C60.9799 199 45.5799 226.4 43.5199 230.28C34.5599 247.08 27.5199 262.46 27.0999 263.76C24.775 264.817 22.5914 266.161 20.5999 267.76C19.9576 269.522 19.5736 271.368 19.4599 273.24C19.3599 276.46 20.5199 277.24 22.2999 279.04C17.5237 289.274 13.5972 299.883 10.5599 310.76C9.5684 315.161 9.52749 319.722 10.4399 324.14C11.2566 328.556 12.783 332.811 14.9599 336.74C15.9378 337.733 17.205 338.391 18.5799 338.62C23.8399 340.1 40.1399 342 45.5999 342.62C45.1883 345.064 45.0742 347.549 45.2599 350.02C45.2653 352.566 45.6358 355.099 46.3599 357.54C46.3665 357.6 46.3849 357.659 46.4141 357.712C46.4433 357.765 46.4827 357.812 46.53 357.851C46.5774 357.889 46.6318 357.917 46.6901 357.934C46.7484 357.951 46.8095 357.957 46.8699 357.95C46.9304 357.943 46.9889 357.925 47.0422 357.896C47.0955 357.867 47.1425 357.827 47.1806 357.78C47.2186 357.732 47.247 357.678 47.2641 357.62C47.2811 357.561 47.2865 357.5 47.2799 357.44C47.5999 354.947 47.6869 352.429 47.5399 349.92C47.5268 347.504 47.2518 345.097 46.7199 342.74C49.4799 342.98 52.1399 343.18 54.4599 343.26C54.091 345.594 53.9903 347.963 54.1599 350.32C54.1667 352.866 54.5371 355.398 55.2599 357.84C55.2599 357.962 55.3084 358.079 55.3947 358.165C55.4809 358.251 55.5979 358.3 55.7199 358.3C55.8419 358.3 55.959 358.251 56.0452 358.165C56.1315 358.079 56.1799 357.962 56.1799 357.84C56.5107 355.348 56.6045 352.83 56.4599 350.32C56.4462 347.984 56.178 345.657 55.6599 343.38C60.1199 343.48 125.76 349.38 239.12 347.14C269.5 346.54 306.02 345.14 336.1 341.84C335.703 344.252 335.589 346.702 335.76 349.14C335.77 351.681 336.147 354.207 336.88 356.64C336.866 356.707 336.867 356.776 336.883 356.843C336.899 356.91 336.929 356.972 336.973 357.025C337.016 357.078 337.07 357.121 337.132 357.151C337.194 357.18 337.261 357.195 337.33 357.195C337.398 357.195 337.466 357.18 337.528 357.151C337.59 357.121 337.644 357.078 337.687 357.025C337.73 356.972 337.761 356.91 337.777 356.843C337.793 356.776 337.794 356.707 337.78 356.64C338.129 354.149 338.223 351.63 338.06 349.12C338.038 346.649 337.75 344.189 337.2 341.78C339.42 341.54 344.56 340.9 345 340.84C344.606 343.239 344.499 345.676 344.68 348.1C344.681 350.647 345.052 353.18 345.78 355.62C345.793 355.742 345.854 355.854 345.95 355.931C346.046 356.007 346.168 356.043 346.29 356.03C346.412 356.017 346.524 355.956 346.601 355.86C346.677 355.764 346.713 355.642 346.7 355.52C347.029 353.034 347.116 350.522 346.96 348.02C346.947 345.555 346.659 343.1 346.1 340.7C355.12 339.48 382.7 335.76 386.46 328.06C390.9 319.28 390.54 307.86 388.7 298.34ZM206.7 266.14C206.92 265.6 213.62 264.14 220.94 266.14C221.007 266.126 221.076 266.127 221.143 266.143C221.21 266.159 221.272 266.189 221.325 266.233C221.378 266.276 221.421 266.33 221.451 266.392C221.48 266.454 221.495 266.521 221.495 266.59C221.495 266.658 221.48 266.726 221.451 266.788C221.421 266.85 221.378 266.904 221.325 266.947C221.272 266.99 221.21 267.021 221.143 267.037C221.076 267.053 221.007 267.054 220.94 267.04C217.295 267.687 213.573 267.782 209.9 267.32C208.18 267.04 206 267.02 206.64 266.14H206.7ZM309.52 313.7C291.02 317.22 188.82 316.42 187.28 315.7C185.74 314.98 185.6 312.66 185.56 311.14C196.64 314.74 304.9 311.96 310.92 308.78C311.24 310.54 311.32 313.36 309.46 313.7H309.52ZM270.7 266.36C270.7 265.68 275.1 265.3 275.3 265.28C277.916 265.079 280.544 265.079 283.16 265.28C284.62 265.44 286.64 265.64 286.48 266.26C286.32 266.88 283.3 267.14 282.78 267.22C280.825 267.4 278.863 267.48 276.9 267.46C275.58 267.42 270.56 267.18 270.64 266.36H270.7ZM296.4 273.02C301.404 282.554 305.605 292.489 308.96 302.72C309.386 304.012 309.622 305.36 309.66 306.72C300.64 309.52 196.68 312.4 186.16 309.38C185.66 309.24 185.52 309.38 185.4 308.54C184.64 303.1 193.54 281.48 195.6 276.44C233.44 275.18 296 273.24 296.34 273.02H296.4ZM279.56 140.8C277.372 139.598 275.388 138.06 273.68 136.24C272.9 135.06 273.08 134.24 275.38 135.36C276.82 136.02 278.84 137.2 280.2 138.02C279.85 138.91 279.635 139.847 279.56 140.8ZM327.56 144.38C329.16 141.5 330.74 140.68 330.58 142.38C329.72 145.422 328.498 148.35 326.94 151.1C326.82 149.1 326.68 147.76 326.52 146.44C326.6 146.16 327 145.32 327.5 144.38H327.56ZM319.06 161.78C319.46 162.92 319.72 163.6 319.74 163.64C319.762 163.697 319.795 163.748 319.837 163.792C319.879 163.836 319.93 163.871 319.986 163.895C320.041 163.919 320.102 163.932 320.162 163.933C320.223 163.934 320.284 163.923 320.34 163.9C321.22 163.56 319.92 162.74 317.84 150.68C317.22 147.08 315.38 135.98 319.02 135.46C321.98 135.02 323.58 142.36 324.14 145.26C325.178 150.85 325.846 156.502 326.14 162.18C326.139 162.291 326.177 162.398 326.249 162.483C326.32 162.567 326.42 162.623 326.529 162.64C326.639 162.657 326.751 162.634 326.844 162.576C326.938 162.517 327.008 162.426 327.04 162.32C327.046 162.207 327.046 162.093 327.04 161.98C328.848 162.033 330.645 162.281 332.4 162.72C332.177 162.981 331.896 163.186 331.58 163.32C327.38 165.48 314.68 165.06 310.3 164.98C310.9 163.78 311.32 162.86 311.78 161.76C314.17 162.153 316.608 162.16 319 161.78H319.06ZM303.46 157.4C303.92 153.4 304.94 147.02 308.98 147.78C313.02 148.54 312 154.4 311.12 158.32C310.577 160.569 309.91 162.786 309.12 164.96H303.12C303.072 162.437 303.165 159.913 303.4 157.4H303.46ZM300.92 148C301.013 147.911 301.123 147.843 301.244 147.8C301.365 147.757 301.494 147.739 301.622 147.748C301.75 147.758 301.875 147.794 301.988 147.855C302.102 147.915 302.201 147.999 302.28 148.1C302.599 148.419 302.886 148.767 303.14 149.14C302.572 150.415 302.175 151.76 301.96 153.14C300.92 151.7 299.58 149.08 300.92 148ZM294.62 135.84C297.22 136.66 295.18 143.5 293.44 145.58C292.959 143.427 292.241 141.335 291.3 139.34C291.88 137.58 292.86 135.28 294.62 135.82V135.84ZM289.7 162C290.68 163.24 291.32 164 291.32 164C291.399 164.078 291.505 164.125 291.616 164.132C291.727 164.138 291.837 164.104 291.926 164.036C292.014 163.967 292.074 163.869 292.095 163.759C292.116 163.65 292.096 163.536 292.04 163.44C292.04 163.44 288.5 158.4 285.58 153.18C283.38 149.18 281.28 145.18 281.86 140.76C282.32 137.28 284.16 135.8 287.26 137.82C291.74 140.7 293.78 158.46 294.42 163.82C294.426 163.96 294.476 164.095 294.562 164.206C294.648 164.317 294.766 164.399 294.9 164.44C295.44 164.44 295.36 163.86 295.34 163.58C295.32 163.3 295.34 161.9 295.34 161.76C297.465 162.029 299.615 162.029 301.74 161.76C301.86 163.22 302 164.36 302.1 164.96C295 164.96 286.42 165.44 280.54 163.14C283.562 162.542 286.623 162.161 289.7 162ZM280.12 164.94C283.045 166.074 286.128 166.748 289.26 166.94C292.8 167.26 316.9 167.3 319.64 167.16C323.772 167.092 327.862 166.328 331.74 164.9C332.112 167.356 331.972 169.862 331.328 172.261C330.685 174.66 329.551 176.9 328 178.84C323.14 184.54 292.4 185.84 285.02 180.64C280.16 177.3 279.28 170.62 280.12 164.92V164.94ZM264 223.66C264.42 225 73.7199 225.06 73.5199 225.04C65.5199 225.04 67.5199 225.04 64.8399 224.38C64.1199 224.22 63.9799 224.22 63.8399 223.52C63.6703 222.422 63.6233 221.308 63.6999 220.2C63.7419 220.282 63.8096 220.348 63.8927 220.388C63.9759 220.427 64.0698 220.439 64.16 220.42C64.16 220.42 263.94 217.7 265.24 217.66C265.78 220 265.86 222.18 264 223.66ZM320.26 102.28C320.26 102.28 320.38 102.08 320.42 102.14C320.46 102.2 320.26 102.26 320.16 102.28H320.26ZM220.8 51.8399C220.8 50.5399 221.32 45.6199 222.48 45.0199C225.12 43.6999 309.02 42.5799 320.48 46.1599C322.48 50.3599 321.84 97.5399 320.16 102.28C310.32 103.82 260.8 103.7 247.92 105.02C248.7 89.2799 249.04 76.02 248.4 73.4399C248.277 73.1035 248.077 72.8002 247.817 72.5538C247.556 72.3074 247.243 72.1247 246.9 72.0199C242.52 70.1199 226.04 69.5799 221.24 69.4199C220.617 63.5816 220.47 57.7022 220.8 51.8399ZM82.4999 102.2C82.1999 97.9999 80.7199 76.7999 84.7199 75.3199C86.7199 74.6199 93.7599 73.9199 103.98 73.3199C123.56 72.0999 154.42 71.1199 182.5 70.9199C188.74 70.9199 241.46 70.4599 246.62 73.9999C248.14 80.9199 243.28 157.8 242.2 165.22C194.94 166.76 138.94 169.08 91.2799 167.92C90.4799 163.34 84.3599 128 82.4999 102.2ZM90.66 169.26C90.6638 169.213 90.6638 169.167 90.66 169.12C124.36 170.16 229.82 166.7 242.66 166.62C244.08 169.92 264.02 214.16 264.86 216.62C264.64 216.62 63.9999 219.34 63.7399 219.54C66.2599 211.1 87.1 175.42 90.66 169.26ZM145.64 303.26C144.16 306.14 99.3199 326.18 90.0999 328.96C90.2787 328.038 90.3459 327.098 90.2999 326.16C103.92 321.44 133.48 308.98 146.74 300.16C146.487 301.237 146.118 302.283 145.64 303.28V303.26ZM147.02 298.84C143.02 301.2 139.2 302.84 90.2799 325.08C90.2818 324.174 90.1607 323.273 89.9199 322.4C96.3199 319.4 139.72 302.58 147.46 295.88C147.36 296.74 147.22 297.78 147.02 298.86V298.84ZM43.9999 257.8C44.9617 258.933 45.5569 260.331 45.7069 261.809C45.8569 263.288 45.5546 264.777 44.8399 266.08C44.5199 266.58 45.2799 267.1 45.5999 266.58C46.8074 265.264 47.5211 263.57 47.6196 261.787C47.7181 260.003 47.1951 258.241 46.1399 256.8C55.8599 252.34 65.4199 248.14 68.0399 247C68.6954 248.332 69.0463 249.792 69.067 251.276C69.0878 252.76 68.7779 254.231 68.16 255.58C67.9199 256.22 68.6399 256.46 68.9799 256.04C70.0799 254.642 70.7645 252.963 70.9555 251.195C71.1465 249.427 70.8361 247.64 70.0599 246.04C72.2199 244.82 77.2599 242.04 79.7199 242.04C82.7999 242.04 145.3 292.88 146.46 294.04C141.24 299.42 92.7799 318.6 88.6999 320.56C80.0999 318.56 27.6199 273.42 22.6999 268.78C25.7599 266.24 40.5599 259.4 43.9999 257.8ZM21.1799 269.7C27.4199 275.8 79.4799 321.24 88.1999 322.68C88.025 323.434 87.9444 324.206 87.9599 324.98C73.9599 318.14 33.9599 283.5 20.7199 272.36C20.7799 272.36 21.0799 270.4 21.2399 269.7H21.1799ZM21.4799 276.56C20.9158 275.701 20.6359 274.687 20.6799 273.66C33.7599 286.86 70.6799 319.32 87.9399 326.08C87.9044 327.149 88.012 328.219 88.2599 329.26C77.9999 326.96 22.8399 278.2 21.5399 276.56H21.4799ZM385.48 327.4C372.56 353.04 21.9599 346.34 16.2799 336.34C13.8723 332.155 12.2459 327.567 11.4799 322.8C12.2515 324.49 13.5402 325.891 15.1599 326.8C44.5999 343.94 337.5 339.46 375.74 325.72C383.84 322.8 387.92 316.5 388.84 307.72C389.383 314.462 388.213 321.231 385.44 327.4H385.48Z" fill="black"/>
<path d="M86 191.38C227.42 193.38 240.92 192.16 244.88 191.54C245.82 191.4 246.42 191.08 246.38 189.98C246.38 187.08 239.58 173.78 237.78 172.86C236.98 172.44 93.78 174.46 93.28 174.62C93.1868 174.642 93.0995 174.684 93.0236 174.743C92.9478 174.802 92.8852 174.875 92.84 174.96C91.48 177.18 84.84 188.14 85.14 190.62C85.1725 190.827 85.2761 191.016 85.4331 191.155C85.5901 191.294 85.7906 191.373 86 191.38ZM93.86 176C95.3 175.82 236.18 174.42 237.04 174.5C238.533 176.648 239.87 178.9 241.04 181.24C237.76 181.24 91.16 182.02 90.4 182.04C91.28 180.28 92.44 178.28 93.86 176ZM89.86 183C90.64 183 238.98 182.24 241.52 182.18C242.836 184.63 243.876 187.22 244.62 189.9C237.5 191.04 172.62 190.48 86.72 189.9C87.5226 187.477 88.5609 185.14 89.82 182.92L89.86 183ZM196.38 198.18C195.981 197.297 195.329 196.552 194.507 196.039C193.684 195.527 192.729 195.269 191.76 195.3C186.68 195.3 144.02 194.12 140.18 195.68C137.729 198.65 135.832 202.038 134.58 205.68C134.46 206.56 134.9 206.96 135.44 207.02C147.44 208.32 187.22 209.56 197.54 207.66C198.82 207.42 198.98 206.06 198.72 204.76C198.101 202.513 197.319 200.314 196.38 198.18ZM136 205.68C137.149 202.435 138.708 199.35 140.64 196.5C143.68 195.5 183.22 197.58 191.82 197.56C192.332 197.542 192.838 197.672 193.278 197.934C193.718 198.197 194.073 198.581 194.3 199.04C195.272 201.117 196.029 203.289 196.56 205.52C186.42 207.1 143.36 206.2 136 205.68ZM335.28 200.74C332.46 196.86 318.32 197.04 313.58 197.18C309.58 197.18 295.04 197.84 295.04 201.76C295.057 202.077 295.149 202.386 295.309 202.661C295.469 202.936 295.692 203.169 295.96 203.34C296.34 203.64 293.72 230 297.32 244.14C298.5 248.82 300.02 251.14 304.48 253.08C313.04 256.8 327.24 255.98 332.94 248.04C334.08 245.72 333.84 238.96 333.94 236.9C342.8 238.66 350.06 235.06 351.94 225.52C353.12 219.38 351.6 215.36 348.98 212.92C347.229 211.495 345.16 210.514 342.949 210.061C340.738 209.609 338.45 209.697 336.28 210.32C336.204 210.346 336.123 210.353 336.044 210.341C335.965 210.328 335.89 210.298 335.826 210.251C335.761 210.204 335.709 210.142 335.673 210.07C335.637 209.999 335.619 209.92 335.62 209.84C335.62 208.78 336 201.6 335.28 200.74ZM297.28 201.16C302.68 198 324.68 197.76 331.78 200.98C332.02 201.1 332.92 201.56 332.92 201.76C332.92 201.96 332 202.44 331.78 202.54C326.42 204.96 307.28 206.06 297.22 202.38C296.52 202 297.22 201.24 297.22 201.16H297.28ZM336.84 212.36C338.658 211.836 340.575 211.761 342.428 212.141C344.281 212.52 346.015 213.344 347.48 214.54C349.64 216.54 350.72 219.98 349.72 225.08C349.521 226.853 348.907 228.554 347.927 230.045C346.947 231.536 345.629 232.774 344.08 233.66C340.8 235.136 337.107 235.419 333.64 234.46C333.47 234.398 333.288 234.372 333.107 234.383C332.926 234.395 332.75 234.443 332.588 234.526C332.427 234.608 332.284 234.723 332.169 234.863C332.054 235.003 331.97 235.166 331.92 235.34C331.38 236.86 332.14 243 331.04 246.88C325.98 253.74 313.04 254.36 305.38 251.14C301.5 249.48 300.42 247.76 299.38 243.62C296.7 233.8 296.54 213.8 297.14 203.96C303.44 206.94 325.26 207.8 333.84 203.4C333.84 209.6 333.08 210.64 334.64 211.9C334.942 212.128 335.29 212.287 335.659 212.366C336.029 212.446 336.411 212.443 336.78 212.36H336.84ZM142.56 254.74C137.307 250.285 131.657 246.322 125.68 242.9C123.377 241.541 120.928 240.448 118.38 239.64C116.24 239.08 115.34 240.18 115.78 241.64C116.682 243.736 117.873 245.695 119.32 247.46C123.922 253.285 129.214 258.53 135.08 263.08C144 270.54 155.56 279.58 164 286C164.43 286.314 164.918 286.539 165.437 286.662C165.955 286.785 166.492 286.804 167.018 286.716C167.543 286.628 168.046 286.437 168.496 286.152C168.946 285.868 169.335 285.497 169.64 285.06C171.12 283.44 172.04 280.6 170.38 279.06C168.46 277.34 156.72 266.28 142.56 254.74ZM123.4 250.3L120.66 245.88C121.635 245.475 122.46 244.776 123.02 243.88L127.36 245.64C126.271 245.856 125.287 246.434 124.568 247.28C123.849 248.126 123.437 249.19 123.4 250.3ZM129.54 255.4C128.095 254.184 126.756 252.845 125.54 251.4C125.68 248.98 126.44 247.9 128.86 247.82C130.472 248.59 131.995 249.536 133.4 250.64C132.324 250.902 131.365 251.509 130.667 252.369C129.97 253.229 129.574 254.294 129.54 255.4ZM163.74 284.5C161.52 282.64 132 257.6 130.18 256C130.333 254.88 130.822 253.833 131.582 252.998C132.343 252.162 133.34 251.577 134.44 251.32C141.34 256.44 151.26 264.92 168.56 279.32C167.887 279.286 167.214 279.399 166.589 279.653C165.964 279.906 165.402 280.293 164.943 280.787C164.484 281.28 164.138 281.869 163.93 282.51C163.722 283.152 163.657 283.831 163.74 284.5ZM322.22 306.66C324.72 308.36 326.46 307.58 328.08 305.22C332.08 299.54 346.08 274.4 346.08 274.2C346.08 274 346.24 274.38 345.58 266.3C345.551 265.996 345.442 265.706 345.262 265.459C345.083 265.212 344.84 265.018 344.56 264.898C344.28 264.777 343.972 264.734 343.669 264.773C343.367 264.812 343.08 264.932 342.84 265.12L336 270.1C336 270.1 320.82 301.48 320.66 301.76C320.385 302.638 320.388 303.579 320.667 304.456C320.946 305.333 321.488 306.102 322.22 306.66ZM343.4 267.56C343.52 269.02 343.68 270.96 343.8 272.3C342.314 271.589 340.76 271.033 339.16 270.64L343.4 267.56ZM337.68 272C339.413 273.229 341.416 274.024 343.52 274.32C343.22 274.84 327.94 302.72 327.78 303C327.316 302.055 326.552 301.29 325.608 300.823C324.664 300.357 323.593 300.215 322.56 300.42C324.12 297.52 337.12 273 337.68 272Z" fill="black"/>
<path d="M328.48 232.34C328.264 232.037 327.99 231.781 327.675 231.585C327.359 231.389 327.007 231.258 326.64 231.2C325.456 230.884 324.254 230.643 323.04 230.48C323.72 235.24 324.12 240.48 324.1 240.94C324.07 241.244 323.92 241.525 323.684 241.719C323.448 241.914 323.145 242.008 322.84 241.98C322.534 241.945 322.254 241.791 322.059 241.552C321.865 241.313 321.772 241.007 321.8 240.7C321.8 240.36 321.68 238.98 321.58 230.28C317.58 229.78 298.32 228.28 299.08 232.12C299.08 232.32 297.5 242.12 303.62 246.82C309.74 251.52 321.98 250.6 326.26 245.82C327.474 244.365 328.275 242.61 328.58 240.74C329.052 237.957 329.018 235.111 328.48 232.34ZM333.28 214.24C333.28 215.14 332.08 222.02 331.28 231.26L332.24 231.46C335.759 232.207 339.425 231.807 342.7 230.32C343.842 229.686 344.788 228.749 345.433 227.613C346.079 226.477 346.399 225.186 346.36 223.88C346.496 222.256 346.213 220.625 345.54 219.142C344.866 217.659 343.824 216.372 342.513 215.406C341.202 214.439 339.665 213.825 338.048 213.621C336.432 213.417 334.79 213.63 333.28 214.24ZM334.18 214.92C335.456 214.718 336.761 214.792 338.007 215.137C339.252 215.482 340.409 216.09 341.4 216.92C342.351 217.792 343.087 218.872 343.552 220.076C344.017 221.28 344.198 222.575 344.08 223.86C343.9 229 338.62 229.98 333.56 229.46C333.8 225.82 334 221.64 334.18 214.92ZM140.6 196.5C140.6 196.5 140.62 196.52 140.6 196.5V196.5ZM312.76 97.5199C312.755 97.8761 312.82 98.2299 312.952 98.5608C313.084 98.8917 313.28 99.1932 313.529 99.4479C313.779 99.7026 314.076 99.9055 314.404 100.045C314.731 100.184 315.084 100.257 315.44 100.26C315.984 100.272 316.52 100.121 316.978 99.8276C317.437 99.5338 317.797 99.1102 318.014 98.6107C318.23 98.1112 318.293 97.5585 318.194 97.0231C318.096 96.4877 317.839 95.9939 317.459 95.6046C317.078 95.2154 316.59 94.9484 316.057 94.8378C315.524 94.7271 314.97 94.7777 314.466 94.9832C313.962 95.1887 313.53 95.5398 313.226 95.9916C312.922 96.4434 312.76 96.9754 312.76 97.5199ZM93.8599 163.5C94.3199 164.4 94.9199 164.5 95.2999 164.22C95.6799 163.94 222.34 162.84 231.76 162.34C233.786 162.371 235.806 162.115 237.76 161.58C242.26 157.58 244.02 82.7999 242.26 79.3399C237.76 70.3599 96.9199 76.1399 88.2599 78.7599C81.3599 80.8399 90.6799 157.12 93.8599 163.5ZM87.8799 81.9999C87.8799 81.6399 88.3199 80.2399 88.6599 80.1399C98.2399 77.2599 237.34 72.5199 241.12 80.0399C241.442 81.5446 241.59 83.0814 241.56 84.6199C241.9 93.3399 241.56 112.02 240.66 128.76C240.48 131.96 239.06 158.18 236.98 160.56C228.68 162.32 100.78 162.72 95.0999 162.94C91.8599 155.42 84.8599 95.1999 87.8799 81.9999ZM315.7 53.4199C316.243 53.4318 316.778 53.2818 317.236 52.9889C317.694 52.696 318.054 52.2735 318.272 51.7752C318.489 51.2769 318.553 50.7252 318.456 50.1904C318.358 49.6556 318.104 49.1618 317.726 48.7718C317.347 48.3818 316.861 48.1133 316.329 48.0003C315.797 47.8874 315.244 47.9352 314.74 48.1376C314.235 48.34 313.802 48.688 313.496 49.1371C313.19 49.5862 313.024 50.1163 313.02 50.6599C313.012 51.0178 313.075 51.3737 313.206 51.7069C313.337 52.0402 313.533 52.344 313.782 52.6009C314.032 52.8577 314.33 53.0624 314.659 53.203C314.988 53.3436 315.342 53.4173 315.7 53.4199Z" fill="black"/>
<path d="M127.02 132.4H150.78C153.529 132.389 156.162 131.288 158.101 129.339C160.04 127.389 161.125 124.749 161.12 122V102.72C161.12 99.9646 160.035 97.32 158.1 95.3586C156.165 93.3972 153.535 92.2768 150.78 92.24H127.02C125.642 92.2347 124.277 92.5022 123.003 93.027C121.729 93.5518 120.572 94.3235 119.598 95.2977C118.624 96.2719 117.852 97.4293 117.327 98.7032C116.802 99.9771 116.535 101.342 116.54 102.72V122C116.545 123.371 116.82 124.728 117.35 125.992C117.879 127.257 118.653 128.405 119.626 129.37C120.599 130.336 121.753 131.101 123.022 131.621C124.29 132.14 125.649 132.405 127.02 132.4ZM118.24 102.72C118.276 100.408 119.215 98.2024 120.855 96.5732C122.496 94.944 124.708 94.0206 127.02 94H150.78C151.948 93.9868 153.106 94.205 154.189 94.6421C155.272 95.0792 156.257 95.7264 157.088 96.5465C157.92 97.3666 158.58 98.3432 159.032 99.42C159.484 100.497 159.717 101.652 159.72 102.82V122C159.715 123.169 159.479 124.325 159.027 125.403C158.575 126.481 157.915 127.459 157.085 128.282C156.255 129.104 155.271 129.755 154.189 130.198C153.107 130.64 151.949 130.865 150.78 130.86H127.02C125.862 130.855 124.716 130.621 123.648 130.173C122.58 129.725 121.61 129.071 120.795 128.248C119.98 127.426 119.334 126.45 118.896 125.378C118.458 124.306 118.235 123.158 118.24 122V102.72ZM191.26 146.68C191.66 147.86 192.66 147.6 192.94 146.86C193.32 145.8 195.54 138.18 195.82 136.86C197.36 136.38 193.02 137.88 206.44 133C206.579 132.946 206.699 132.851 206.783 132.728C206.867 132.605 206.913 132.459 206.913 132.31C206.913 132.161 206.867 132.015 206.783 131.892C206.699 131.769 206.579 131.674 206.44 131.62L185.88 123.4C185.754 123.34 185.614 123.315 185.475 123.326C185.335 123.337 185.202 123.384 185.086 123.463C184.971 123.542 184.878 123.65 184.818 123.775C184.757 123.901 184.73 124.041 184.74 124.18C184.74 124.18 190.16 143.5 191.26 146.68ZM186.8 125.54L204.12 132.36C201.8 133.22 197.88 134.7 196 135.46C195.16 135.78 194.82 135.92 194.62 136.18C194.42 136.44 195.12 134.88 192.18 143.94L186.8 125.54ZM234 66.9C234.023 67.0199 234.088 67.1278 234.184 67.2046C234.279 67.2814 234.398 67.3223 234.52 67.32C234.94 67.32 247.88 68.56 250.52 67.86C252.22 67.4 252.52 64.4 252.68 62.64C252.88 59.98 252.68 53.46 251.56 51.24C250.04 48.24 238.82 49.24 235.56 49.82C234.695 49.9417 233.868 50.2561 233.14 50.74C232.716 51.2318 232.47 51.8515 232.44 52.5C232.42 57.3432 232.943 62.1734 234 66.9ZM234.58 52.28C237.74 51.3 246.74 50.92 249.6 52.28C250.58 54.88 251.1 63.82 249.92 65.9C248.06 66.38 236.7 66.38 234.8 66.4C234.74 64.84 233.82 56.42 234.58 52.28ZM260.84 66.82C260.867 66.9382 260.933 67.0439 261.027 67.1201C261.122 67.1963 261.239 67.2385 261.36 67.24C261.78 67.24 274.72 68.48 277.36 67.78C279.06 67.32 279.36 64.32 279.54 62.56C279.72 59.9 279.54 53.38 278.4 51.16C276.88 48.14 265.66 49.16 262.4 49.74C261.537 49.87 260.712 50.1837 259.98 50.66C259.565 51.1571 259.32 51.7737 259.28 52.42C259.261 57.2631 259.785 62.0932 260.84 66.82ZM261.42 52.2C264.58 51.2 273.58 50.84 276.44 52.2C277.42 54.8 277.94 63.74 276.76 65.8C274.9 66.3 263.54 66.3 261.64 66.32C261.58 64.76 260.66 56.34 261.42 52.2ZM288.92 67.7C288.943 67.8199 289.008 67.9278 289.104 68.0046C289.199 68.0814 289.318 68.1223 289.44 68.12C289.86 68.12 302.8 69.36 305.44 68.66C307.14 68.2 307.44 65.2 307.6 63.44C307.8 60.78 307.6 54.26 306.48 52.04C304.96 49.04 293.74 50.04 290.48 50.62C289.616 50.7469 288.79 51.0609 288.06 51.54C287.636 52.0318 287.39 52.6515 287.36 53.3C287.34 58.1432 287.864 62.9734 288.92 67.7ZM289.5 53.08C292.66 52.1 301.66 51.72 304.52 53.08C305.5 55.68 306.02 64.62 304.84 66.7C302.98 67.18 291.62 67.18 289.72 67.2C289.66 65.64 288.74 57.22 289.5 53.08ZM261.02 97.58C261.16 97.98 261.48 98.02 261.54 98C261.98 98 274.9 99.24 277.54 98.54C279.24 98.08 279.54 95.08 279.72 93.32C279.9 90.66 279.72 84.14 278.6 81.94C277.06 78.92 265.84 79.94 262.6 80.5C261.729 80.6241 260.896 80.9381 260.16 81.42C259.741 81.9225 259.496 82.5468 259.46 83.2C259.441 88.0365 259.964 92.86 261.02 97.58ZM261.62 82.96C264.78 81.98 273.76 81.6 276.62 82.96C277.6 85.56 278.12 94.5 276.94 96.58C275.08 97.06 263.74 97.06 261.84 97.08C261.76 95.52 260.84 87.1 261.62 82.96ZM307.78 81.12C310.98 76.4 313.78 72.14 313.88 71.94C313.98 71.74 312.52 69.94 311.66 71.22C305.54 80.64 306.38 79.74 305.94 79.58C302.42 78.3 291.06 78.74 289.28 80.4C288.08 81.52 288.54 85.58 288.68 87.32C287.4 86.6 286.42 86.08 286.06 85.94C285.14 85.58 285.2 86.48 285.7 86.8L288.82 88.8C289.073 91.4284 289.48 94.0396 290.04 96.62C290.06 96.7418 290.124 96.8521 290.22 96.9296C290.316 97.0072 290.437 97.0465 290.56 97.04C290.98 97.04 303.92 98.28 306.56 97.58C310 96.62 308.94 84 307.78 81.12ZM290.62 81.94C295.325 80.8695 300.2 80.7809 304.94 81.68L298 92.62C297.3 92.22 293.56 90.02 290.44 88.26C290.308 86.1722 290.369 84.0767 290.62 82V81.94ZM305.96 95.54C304.08 96.04 292.74 96.04 290.84 96.06C290.84 95.26 290.54 92.64 290.4 89.74L298 94.46C298.192 94.481 298.386 94.447 298.56 94.3621C298.733 94.2771 298.879 94.1446 298.98 93.98C299.62 93.16 302.84 88.48 306.12 83.66C306.74 87.26 306.94 93.82 306 95.54H305.96ZM226.44 52.76C226.983 52.7679 227.516 52.6144 227.971 52.3191C228.426 52.0238 228.784 51.5998 228.998 51.1011C229.212 50.6023 229.273 50.0513 229.173 49.5177C229.074 48.9842 228.818 48.4922 228.439 48.1042C228.059 47.7162 227.573 47.4497 227.042 47.3385C226.51 47.2272 225.958 47.2762 225.455 47.4793C224.951 47.6824 224.52 48.0304 224.214 48.4792C223.909 48.9279 223.744 49.4572 223.74 50C223.74 50.7217 224.022 51.4148 224.527 51.9307C225.032 52.4466 225.718 52.7443 226.44 52.76Z" fill="black"/>
</svg>
