<svg width="400" height="400" viewBox="0 0 400 400" fill="none" xmlns="http://www.w3.org/2000/svg">
<path d="M154.1 329.9C176.777 329.9 195.16 311.517 195.16 288.84C195.16 266.163 176.777 247.78 154.1 247.78C131.423 247.78 113.04 266.163 113.04 288.84C113.04 311.517 131.423 329.9 154.1 329.9Z" fill="#FFFDA9"/>
<path d="M154.1 246.66C145.757 246.656 137.6 249.126 130.661 253.759C123.721 258.391 118.312 264.978 115.116 272.685C111.921 280.392 111.083 288.873 112.708 297.057C114.333 305.24 118.349 312.758 124.247 318.659C130.145 324.56 137.661 328.579 145.844 330.208C154.026 331.837 162.508 331.003 170.217 327.811C177.925 324.619 184.514 319.213 189.15 312.276C193.786 305.339 196.26 297.183 196.26 288.84C196.249 277.66 191.805 266.94 183.901 259.033C175.997 251.126 165.28 246.676 154.1 246.66ZM154.1 328.76C146.189 328.76 138.455 326.414 131.877 322.019C125.299 317.624 120.172 311.376 117.145 304.067C114.117 296.758 113.325 288.716 114.869 280.956C116.412 273.197 120.222 266.07 125.816 260.476C131.41 254.882 138.537 251.072 146.296 249.529C154.056 247.985 162.098 248.777 169.407 251.805C176.716 254.832 182.964 259.959 187.359 266.537C191.754 273.115 194.1 280.849 194.1 288.76C194.1 299.369 189.886 309.543 182.384 317.044C174.883 324.546 164.709 328.76 154.1 328.76Z" fill="#EFAC54"/>
<path d="M133.04 291.28C127.894 285.024 121.008 280.434 113.254 278.091C105.499 275.748 97.2242 275.757 89.4748 278.117C81.7255 280.477 74.8499 285.082 69.7174 291.349C64.5849 297.616 61.426 305.265 60.6402 313.327C59.8543 321.39 61.4768 329.504 65.3025 336.645C69.1282 343.785 74.9852 349.631 82.133 353.443C89.2808 357.254 97.3984 358.861 105.459 358.06C113.52 357.258 121.163 354.085 127.42 348.94C131.576 345.523 135.017 341.322 137.549 336.575C140.08 331.828 141.652 326.629 142.174 321.274C142.696 315.92 142.158 310.515 140.59 305.368C139.023 300.222 136.458 295.435 133.04 291.28Z" fill="#ABFFE1"/>
<path d="M139.48 299.4C136.26 292.611 131.277 286.81 125.052 282.603C118.826 278.395 111.586 275.935 104.086 275.478C96.5858 275.021 89.1005 276.585 82.4104 280.006C75.7204 283.427 70.0706 288.58 66.0503 294.928C62.0299 301.276 59.7861 308.586 59.5529 316.096C59.3197 323.607 61.1056 331.042 64.7244 337.627C68.3432 344.213 73.6623 349.706 80.1272 353.536C86.5921 357.366 93.966 359.391 101.48 359.4C108.57 359.409 115.547 357.623 121.76 354.208C127.974 350.794 133.222 345.862 137.015 339.872C140.809 333.883 143.024 327.03 143.455 319.953C143.886 312.876 142.519 305.806 139.48 299.4ZM126.72 348C120.635 353.023 113.197 356.126 105.347 356.918C97.4968 357.71 89.5883 356.155 82.623 352.449C75.6576 348.743 69.9487 343.053 66.2194 336.101C62.4901 329.148 60.908 321.244 61.6737 313.392C62.4393 305.539 65.5182 298.09 70.5203 291.989C75.5224 285.887 82.2228 281.407 89.7728 279.117C97.3229 276.826 105.383 276.828 112.932 279.121C120.481 281.414 127.18 285.897 132.18 292C138.853 300.162 142.024 310.633 141.001 321.126C139.978 331.619 134.844 341.281 126.72 348Z" fill="#51BDBF"/>
<path d="M150.391 260.032C151.645 237.39 134.307 218.018 111.665 216.764C89.0226 215.51 69.651 232.848 68.397 255.491C67.143 278.133 84.4815 297.504 107.124 298.758C129.766 300.012 149.137 282.674 150.391 260.032Z" fill="#FFAF9C"/>
<path d="M109.38 215.6C101.042 215.604 92.8932 218.08 85.9626 222.715C79.0321 227.35 73.6314 233.936 70.4435 241.64C67.2556 249.344 66.4235 257.82 68.0525 265.997C69.6816 274.174 73.6985 281.684 79.5955 287.579C85.4924 293.473 93.0047 297.486 101.182 299.111C109.36 300.736 117.836 299.9 125.539 296.709C133.241 293.517 139.824 288.113 144.456 281.181C149.088 274.248 151.56 266.098 151.56 257.76C151.549 246.578 147.101 235.858 139.193 227.953C131.284 220.048 120.562 215.605 109.38 215.6ZM109.38 297.7C101.469 297.7 93.7352 295.354 87.1572 290.959C80.5792 286.564 75.4523 280.316 72.4248 273.007C69.3973 265.698 68.6052 257.656 70.1486 249.896C71.692 242.137 75.5016 235.01 81.0957 229.416C86.6898 223.822 93.8172 220.012 101.576 218.469C109.336 216.925 117.378 217.717 124.687 220.745C131.996 223.772 138.244 228.899 142.639 235.477C147.034 242.055 149.38 249.789 149.38 257.7C149.38 268.309 145.166 278.483 137.664 285.984C130.163 293.486 119.989 297.7 109.38 297.7Z" fill="#E27761"/>
<path d="M77.62 283.7C84.1391 291.807 93.5148 297.109 103.822 298.519C114.128 299.929 124.584 297.338 133.04 291.28C126.478 283.235 117.109 277.978 106.823 276.571C96.5375 275.165 86.1009 277.712 77.62 283.7Z" fill="#FF9FFF"/>
<path d="M134 290.58C127.276 282.296 117.65 276.881 107.078 275.436C96.5064 273.991 85.781 276.624 77.08 282.8L76.12 283.48L76.86 284.4C83.5595 292.727 93.1928 298.173 103.782 299.62C114.371 301.067 125.112 298.405 133.8 292.18L134.76 291.5L134 290.58ZM79.26 284C87.334 278.655 97.077 276.429 106.671 277.739C116.265 279.049 125.055 283.806 131.4 291.12C123.345 296.525 113.587 298.786 103.976 297.473C94.3654 296.161 85.5705 291.367 79.26 284Z" fill="#F42CFF"/>
<path d="M313.42 210L348 172.74C343.18 168.06 314.22 141.54 310.8 139.06L278 175.66C283.2 180.36 311.24 208 313.42 210Z" fill="#FFAF9C"/>
<path d="M284.14 242.76L314.62 208.38C308.72 202.84 285.66 182.38 278.08 175.34L246.88 210C259.4 220.64 270.7 231.02 284.14 242.76Z" fill="#FF9783"/>
<path d="M247.6 209.86L217.6 243.14C217.054 243.729 216.632 244.422 216.359 245.177C216.086 245.933 215.968 246.735 216.011 247.537C216.054 248.339 216.257 249.125 216.609 249.846C216.961 250.568 217.455 251.212 218.06 251.74L245.8 276.56C247.008 277.636 248.594 278.189 250.209 278.099C251.824 278.009 253.338 277.283 254.42 276.08L283.94 242.9C270.7 230.38 260.74 221.74 247.6 209.86Z" fill="#FF725F"/>
<path d="M371.48 136L343.86 111.18C342.643 110.111 341.054 109.564 339.437 109.657C337.82 109.751 336.305 110.477 335.22 111.68L309.5 140.32C312.84 142.82 340.68 169.28 345.5 174.12L372 144.62C373.071 143.406 373.617 141.818 373.52 140.203C373.422 138.587 372.689 137.076 371.48 136Z" fill="#FFE2DC"/>
<path d="M372.24 135.18L344.52 110.36C343.089 109.088 341.212 108.435 339.3 108.544C337.389 108.653 335.598 109.514 334.32 110.94L216.7 242.4C215.429 243.828 214.777 245.702 214.886 247.61C214.994 249.518 215.855 251.306 217.28 252.58L245 277.38C245.705 278.013 246.527 278.5 247.421 278.815C248.314 279.129 249.261 279.264 250.206 279.212C251.152 279.16 252.078 278.922 252.931 278.512C253.785 278.101 254.549 277.526 255.18 276.82L372.8 145.36C374.073 143.935 374.729 142.063 374.624 140.154C374.519 138.246 373.662 136.457 372.24 135.18ZM279.72 175.32L309.58 142L344.2 174L314.8 206.88L279.72 175.32ZM313.32 208.52L284 241.2L248.8 209.8L278.16 176.98L313.32 208.52ZM253.52 275.34C252.635 276.32 251.397 276.911 250.078 276.982C248.759 277.053 247.466 276.599 246.48 275.72L218.76 250.92C218.271 250.484 217.872 249.957 217.587 249.367C217.302 248.777 217.137 248.137 217.099 247.483C217.062 246.829 217.154 246.174 217.371 245.556C217.587 244.938 217.923 244.368 218.36 243.88L247.36 211.46L282.58 242.86L253.52 275.34ZM371.14 143.88L345.7 172.32L311.08 140.32L336 112.42C336.882 111.437 338.118 110.843 339.437 110.768C340.757 110.693 342.052 111.143 343.04 112.02L370.78 136.84C371.758 137.728 372.344 138.967 372.412 140.286C372.479 141.605 372.022 142.897 371.14 143.88Z" fill="#E27761"/>
<path d="M114.42 278.36C111.761 288.422 113.028 299.118 117.964 308.28C122.899 317.443 131.135 324.385 141 327.7C143.654 317.638 142.385 306.944 137.45 297.783C132.515 288.622 124.282 281.679 114.42 278.36Z" fill="#CAFFAB"/>
<path d="M114.78 277.3L113.64 276.92L113.34 278.08C110.64 288.414 111.955 299.387 117.02 308.79C122.085 318.194 130.525 325.329 140.64 328.76L141.76 329.14L142 328C144.705 317.674 143.402 306.706 138.353 297.301C133.303 287.896 124.882 280.751 114.78 277.3ZM140.2 326.24C131.113 322.849 123.568 316.271 118.97 307.732C114.371 299.193 113.031 289.273 115.2 279.82C124.287 283.211 131.831 289.789 136.43 298.328C141.029 306.867 142.369 316.787 140.2 326.24Z" fill="#72C63C"/>
<path d="M114.2 298.52C119.98 297.852 125.551 295.96 130.543 292.971C135.536 289.982 139.834 285.964 143.153 281.185C146.471 276.405 148.734 270.974 149.791 265.252C150.847 259.531 150.673 253.649 149.28 248C143.501 248.672 137.932 250.565 132.941 253.555C127.951 256.545 123.654 260.563 120.336 265.341C117.018 270.12 114.755 275.55 113.697 281.27C112.639 286.991 112.81 292.871 114.2 298.52Z" fill="#FFD89F"/>
<path d="M151.3 253C151.048 250.922 150.654 248.864 150.12 246.84C123.2 250 107.1 274.22 113.34 299.74C118.925 299.223 124.35 297.595 129.297 294.953C134.244 292.311 138.614 288.707 142.15 284.353C145.686 280 148.316 274.984 149.888 269.6C151.459 264.216 151.939 258.572 151.3 253ZM115.06 297.28C113.885 291.92 113.83 286.375 114.898 280.992C115.966 275.61 118.133 270.506 121.265 266C124.397 261.494 128.425 257.683 133.098 254.806C137.77 251.929 142.987 250.048 148.42 249.28C149.601 254.641 149.66 260.187 148.595 265.572C147.53 270.957 145.363 276.064 142.231 280.571C139.098 285.078 135.067 288.889 130.391 291.765C125.716 294.64 120.496 296.518 115.06 297.28Z" fill="#F79928"/>
<path d="M366.88 191.16L379.64 155.16C379.932 154.408 380.068 153.604 380.042 152.797C380.016 151.991 379.827 151.198 379.487 150.466C379.147 149.734 378.663 149.078 378.064 148.538C377.465 147.997 376.763 147.583 376 147.32L340.92 134.86C340.168 134.582 339.369 134.458 338.568 134.495C337.768 134.531 336.983 134.728 336.259 135.073C335.536 135.418 334.889 135.904 334.357 136.503C333.825 137.102 333.418 137.801 333.16 138.56L320.26 174.96C334.52 179.86 349.1 185.32 366.88 191.16Z" fill="#D2FFEE"/>
<path d="M317.62 222.36C328.98 226.36 340.6 229.42 352.16 232.78L366.92 191.08C346.38 184.04 337.96 181.08 320.14 174.9L304.84 218.1C309.22 219.38 313.4 220.88 317.62 222.36Z" fill="#ABFFE1"/>
<path d="M335.8 278.82L352 233.12C340.86 229.76 313.16 220.6 305 218.2L289.22 262.6C305.18 268 317.68 272 335.8 278.82Z" fill="#82F4D6"/>
<path d="M289.3 262.46L274.22 304.92C273.942 305.672 273.818 306.471 273.855 307.272C273.891 308.072 274.088 308.857 274.433 309.581C274.777 310.304 275.264 310.951 275.863 311.483C276.462 312.015 277.161 312.422 277.92 312.68L313 325.12C314.528 325.653 316.205 325.561 317.665 324.865C319.126 324.168 320.252 322.923 320.8 321.4L335.8 278.68C322.98 273.86 296.18 264.7 289.3 262.46Z" fill="#57E5CA"/>
<path d="M289.3 156.94L315.3 114.62C301.688 105.447 287.377 97.3556 272.5 90.42L246.96 131.58C261.22 140 272.4 146.44 289.3 156.94Z" fill="#FFFDA9"/>
<path d="M264.28 196.7L289.72 156.3C274.8 147.1 261.72 139.32 247.6 131.06L222 171.38C235.536 180.717 249.659 189.175 264.28 196.7Z" fill="#F4D862"/>
<path d="M222 170.5L199.66 208.38C199.232 209.057 198.944 209.813 198.813 210.604C198.681 211.394 198.71 212.203 198.896 212.982C199.083 213.761 199.423 214.495 199.898 215.141C200.373 215.786 200.972 216.33 201.66 216.74L233.32 236.3C234.7 237.145 236.359 237.409 237.933 237.034C239.507 236.659 240.869 235.676 241.72 234.3L264.92 195.86C248.24 185.48 236.94 179.18 222 170.5Z" fill="#E5B642"/>
<path d="M332.4 75.7L300.74 56.14C300.062 55.7087 299.304 55.418 298.512 55.2851C297.719 55.1522 296.908 55.1799 296.127 55.3664C295.345 55.5529 294.609 55.8946 293.962 56.371C293.315 56.8475 292.77 57.449 292.36 58.14L270.88 92.9C287.58 102.9 293.16 106.26 313.2 118.38L334.38 84C334.799 83.3263 335.081 82.5761 335.209 81.7927C335.336 81.0094 335.307 80.2086 335.123 79.4367C334.939 78.6647 334.603 77.937 334.136 77.2956C333.668 76.6542 333.078 76.1118 332.4 75.7Z" fill="#FFFDDC"/>
<path d="M332.96 74.76L301.32 55.22C300.512 54.7088 299.611 54.3636 298.668 54.2045C297.725 54.0454 296.76 54.0757 295.829 54.2935C294.899 54.5113 294.02 54.9124 293.246 55.4732C292.472 56.034 291.817 56.7434 291.32 57.56L198.64 207.56C198.131 208.369 197.788 209.27 197.631 210.212C197.473 211.154 197.504 212.119 197.722 213.049C197.939 213.979 198.339 214.856 198.899 215.631C199.458 216.405 200.165 217.061 200.98 217.56L232.62 237.1C233.43 237.608 234.332 237.949 235.275 238.106C236.218 238.262 237.183 238.229 238.113 238.01C239.043 237.79 239.921 237.388 240.694 236.827C241.468 236.265 242.123 235.556 242.62 234.74L335.32 84.74C335.822 83.9302 336.159 83.0293 336.312 82.0889C336.465 81.1486 336.431 80.1873 336.212 79.2601C335.992 78.333 335.592 77.4582 335.034 76.686C334.476 75.9138 333.771 75.2593 332.96 74.76ZM248.76 130.76L271.12 94.58L311.64 118.72L289.36 154.72L248.76 130.76ZM288.2 156.76L264.84 194.56L224.1 170.72L247.6 132.72L288.2 156.76ZM240.72 233.6C240.022 234.721 238.909 235.521 237.624 235.824C236.339 236.128 234.986 235.911 233.86 235.22L202.22 215.68C201.66 215.336 201.174 214.885 200.789 214.353C200.404 213.821 200.127 213.219 199.975 212.58C199.822 211.941 199.797 211.278 199.901 210.63C200.005 209.981 200.236 209.359 200.58 208.8L222.94 172.62L263.68 196.44L240.72 233.6ZM333.42 83.6L312.82 116.96L272.28 92.72L293.28 58.72C293.622 58.1611 294.071 57.6753 294.601 57.2902C295.131 56.9052 295.732 56.6286 296.37 56.4762C297.007 56.3239 297.668 56.2988 298.315 56.4024C298.962 56.506 299.582 56.7363 300.14 57.08L331.8 76.64C332.927 77.3379 333.73 78.4546 334.034 79.7447C334.338 81.0348 334.117 82.3927 333.42 83.52V83.6Z" fill="#B39144"/>
<path d="M149.628 41.8191L108.093 47.4866C102.949 48.1885 99.3485 52.9273 100.05 58.0711L103.406 82.6633C104.108 87.8071 108.847 91.408 113.99 90.7061L155.526 85.0387C160.669 84.3368 164.27 79.5979 163.568 74.4541L160.213 49.862C159.511 44.7182 154.772 41.1173 149.628 41.8191Z" fill="#FEDAF6"/>
<path d="M164.68 74.3L161.32 49.72C160.937 46.9592 159.477 44.4623 157.258 42.7756C155.039 41.089 152.243 40.3499 149.48 40.72L108 46.38C105.239 46.7626 102.742 48.2231 101.056 50.442C99.369 52.6609 98.6299 55.4575 99 58.22L102.36 82.82C102.738 85.5831 104.197 88.0833 106.417 89.7709C108.637 91.4586 111.437 92.1956 114.2 91.82L155.74 86.14C158.49 85.7432 160.972 84.2766 162.646 82.0593C164.32 79.8421 165.051 77.0534 164.68 74.3ZM155.38 84L113.84 89.6C111.663 89.8963 109.458 89.3174 107.707 87.9902C105.956 86.6631 104.803 84.696 104.5 82.52L101.16 58C100.864 55.8254 101.443 53.6223 102.771 51.8747C104.099 50.1271 106.066 48.978 108.24 48.68L149.78 43C151.943 42.7027 154.135 43.2713 155.88 44.5823C157.626 45.8932 158.783 47.8403 159.1 50L162.46 74.6C162.615 75.6825 162.555 76.785 162.283 77.8441C162.011 78.9032 161.532 79.8981 160.874 80.7716C160.216 81.6451 159.392 82.38 158.449 82.9341C157.506 83.4881 156.463 83.8503 155.38 84Z" fill="#FFAAD7"/>
<path d="M133.68 61.56C133.387 62.3859 132.874 63.1158 132.196 63.6708C131.518 64.2257 130.701 64.5844 129.833 64.7081C128.966 64.8317 128.081 64.7155 127.275 64.3721C126.469 64.0287 125.772 63.4712 125.26 62.76C125.097 62.5216 124.854 62.35 124.575 62.2765C124.295 62.2031 123.999 62.2327 123.74 62.36C123.614 62.436 123.504 62.5362 123.416 62.6548C123.329 62.7734 123.266 62.9081 123.23 63.0511C123.195 63.1942 123.188 63.3428 123.211 63.4885C123.233 63.6342 123.284 63.774 123.36 63.9C124.102 64.9738 125.127 65.8204 126.322 66.3452C127.517 66.8699 128.834 67.0522 130.126 66.8717C131.419 66.6913 132.636 66.1551 133.641 65.323C134.647 64.491 135.401 63.3959 135.82 62.16C135.901 61.8763 135.866 61.5722 135.724 61.3138C135.581 61.0554 135.343 60.8636 135.06 60.78C134.774 60.72 134.477 60.7661 134.223 60.9097C133.969 61.0533 133.776 61.2845 133.68 61.56Z" fill="#5E503B"/>
<path d="M55.2992 94.2278L45.9653 117.226C44.013 122.036 46.33 127.519 51.1403 129.471L89.9832 145.235C94.7936 147.188 100.276 144.871 102.228 140.06L111.562 117.062C113.514 112.252 111.197 106.77 106.387 104.817L67.5442 89.0528C62.7338 87.1005 57.2515 89.4175 55.2992 94.2278Z" fill="#FFFDA9"/>
<path d="M106.8 103.8L68 88C65.4132 86.9634 62.5215 86.9914 59.9552 88.0779C57.389 89.1643 55.3562 91.2211 54.3 93.8L44.94 116.8C43.8968 119.384 43.9193 122.276 45.0024 124.843C46.0856 127.41 48.1413 129.444 50.72 130.5L89.56 146.26C90.8389 146.782 92.2081 147.046 93.5894 147.038C94.9706 147.03 96.3367 146.75 97.6094 146.213C98.882 145.676 100.036 144.893 101.006 143.909C101.975 142.926 102.742 141.76 103.26 140.48L112.6 117.48C113.121 116.201 113.384 114.832 113.375 113.452C113.365 112.071 113.082 110.706 112.543 109.434C112.004 108.163 111.22 107.011 110.234 106.044C109.248 105.077 108.081 104.315 106.8 103.8ZM110.52 116.66L101.2 139.64C100.791 140.649 100.188 141.568 99.4232 142.344C98.6589 143.12 97.7491 143.737 96.7459 144.16C95.7427 144.584 94.6658 144.806 93.5769 144.812C92.488 144.819 91.4084 144.611 90.4 144.2L51.56 128.44C49.525 127.61 47.9021 126.007 47.0472 123.983C46.1924 121.958 46.1754 119.677 47 117.64L56.32 94.66C57.1497 92.625 58.7527 91.0021 60.7773 90.1472C62.8019 89.2924 65.0829 89.2754 67.12 90.1L106 105.86C107.007 106.27 107.924 106.876 108.697 107.641C109.47 108.407 110.084 109.317 110.504 110.321C110.924 111.324 111.142 112.401 111.144 113.489C111.147 114.577 110.935 115.654 110.52 116.66Z" fill="#B39144"/>
<path d="M82.72 114C82.0576 114.599 81.2413 115.001 80.3629 115.161C79.4845 115.321 78.5789 115.233 77.7477 114.907C76.9166 114.581 76.1929 114.029 75.658 113.314C75.1232 112.599 74.7983 111.749 74.72 110.86C74.7148 110.565 74.5952 110.283 74.3863 110.074C74.1773 109.865 73.8954 109.745 73.6 109.74C73.4529 109.74 73.3073 109.769 73.1714 109.825C73.0355 109.882 72.912 109.964 72.808 110.068C72.704 110.172 72.6215 110.296 72.5652 110.431C72.5089 110.567 72.48 110.713 72.48 110.86C72.5875 112.164 73.0554 113.413 73.8315 114.467C74.6075 115.52 75.6612 116.338 76.8748 116.827C78.0884 117.317 79.4142 117.459 80.7042 117.239C81.9942 117.019 83.1975 116.445 84.18 115.58C84.3888 115.37 84.5061 115.086 84.5061 114.79C84.5061 114.494 84.3888 114.21 84.18 114C83.9751 113.829 83.7167 113.736 83.45 113.736C83.1832 113.736 82.9249 113.829 82.72 114Z" fill="#5E503B"/>
<path d="M20.3924 141.045L20.0112 165.862C19.9315 171.053 24.0749 175.326 29.2657 175.405L71.1808 176.049C76.3716 176.129 80.6443 171.986 80.724 166.795L81.1052 141.978C81.185 136.787 77.0416 132.514 71.8507 132.434L29.9357 131.791C24.7448 131.711 20.4721 135.854 20.3924 141.045Z" fill="#ABFFE1"/>
<path d="M71.86 131.32L29.86 130.68C27.0763 130.648 24.3925 131.716 22.3924 133.652C20.3923 135.589 19.2378 138.237 19.18 141.02L18.88 165.84C18.8425 168.629 19.9118 171.318 21.8536 173.32C23.7955 175.322 26.4515 176.473 29.24 176.52L71.24 177.16C73.9991 177.155 76.6458 176.066 78.6099 174.129C80.5739 172.191 81.698 169.559 81.74 166.8L82.2 142C82.2238 140.619 81.9751 139.248 81.4681 137.963C80.9611 136.679 80.2057 135.507 79.2453 134.515C78.2848 133.523 77.1381 132.73 75.8709 132.182C74.6036 131.634 73.2406 131.341 71.86 131.32ZM80 142L79.6 166.78C79.5897 167.87 79.3628 168.947 78.9325 169.948C78.5023 170.949 77.8772 171.855 77.0937 172.612C76.3101 173.37 75.3838 173.964 74.3686 174.36C73.3533 174.756 72.2695 174.947 71.18 174.92L29.18 174.28C28.0918 174.267 27.017 174.039 26.0172 173.609C25.0174 173.18 24.1123 172.557 23.3541 171.776C22.5958 170.995 21.9992 170.073 21.5987 169.061C21.1981 168.049 21.0015 166.968 21.02 165.88L21.4 141.06C21.4179 139.956 21.6558 138.867 22.0998 137.856C22.5439 136.845 23.1851 135.933 23.9859 135.174C24.7868 134.414 25.7312 133.821 26.7639 133.431C27.7965 133.04 28.8967 132.86 30 132.9L72 133.54C74.1786 133.613 76.2404 134.543 77.7382 136.126C79.2359 137.71 80.0486 139.821 80 142Z" fill="#51BDBF"/>
<path d="M62.66 139.38C61.8324 139.376 61.0223 139.618 60.3323 140.075C59.6422 140.532 59.1034 141.183 58.7839 141.946C58.4645 142.71 58.3788 143.551 58.5379 144.363C58.6969 145.175 59.0934 145.922 59.6772 146.509C60.261 147.095 61.0057 147.495 61.8171 147.658C62.6285 147.821 63.47 147.739 64.2349 147.424C64.9999 147.108 65.6539 146.572 66.1141 145.884C66.5743 145.197 66.82 144.388 66.82 143.56C66.8148 142.456 66.3754 141.399 65.597 140.617C64.8185 139.835 63.7635 139.391 62.66 139.38Z" fill="#5E503B"/>
<path d="M37.52 139.46C36.6981 139.464 35.8958 139.711 35.2143 140.171C34.5328 140.63 34.0028 141.281 33.691 142.042C33.3792 142.802 33.2996 143.638 33.4624 144.444C33.6252 145.249 34.0229 145.989 34.6055 146.569C35.1881 147.148 35.9293 147.543 36.7358 147.701C37.5422 147.86 38.3776 147.777 39.1366 147.461C39.8955 147.146 40.5441 146.613 41.0003 145.929C41.4565 145.245 41.7 144.442 41.7 143.62C41.7 143.072 41.5918 142.529 41.3814 142.023C41.1711 141.517 40.8629 141.058 40.4745 140.671C40.0861 140.285 39.6251 139.979 39.1181 139.771C38.6111 139.563 38.068 139.457 37.52 139.46Z" fill="#5E503B"/>
<path d="M53.14 149.46C52.7394 150.26 52.1241 150.933 51.3629 151.403C50.6017 151.873 49.7247 152.122 48.83 152.122C47.9353 152.122 47.0582 151.873 46.297 151.403C45.5358 150.933 44.9205 150.26 44.52 149.46C43.86 148.16 41.94 149.3 42.52 150.58C43.1185 151.719 44.0172 152.673 45.1188 153.339C46.2203 154.005 47.4829 154.357 48.77 154.357C50.057 154.357 51.3196 154.005 52.4211 153.339C53.5227 152.673 54.4214 151.719 55.02 150.58C55.74 149.32 53.8 148.18 53.14 149.46Z" fill="#5E503B"/>
<path d="M89.7 239.24C88.6066 239.236 87.5366 239.557 86.6257 240.162C85.7149 240.767 85.0043 241.629 84.5841 242.638C84.1638 243.648 84.0528 244.759 84.2651 245.832C84.4775 246.905 85.0036 247.89 85.7768 248.663C86.55 249.436 87.5354 249.963 88.608 250.175C89.6807 250.387 90.7922 250.276 91.8017 249.856C92.8111 249.436 93.673 248.725 94.2781 247.814C94.8831 246.903 95.204 245.833 95.2 244.74C95.1947 243.283 94.6136 241.887 93.5833 240.857C92.553 239.826 91.1571 239.245 89.7 239.24Z" fill="#5E503B"/>
<path d="M119.82 225.12C118.727 225.116 117.657 225.437 116.746 226.042C115.835 226.647 115.124 227.509 114.704 228.518C114.284 229.528 114.173 230.639 114.385 231.712C114.597 232.785 115.124 233.77 115.897 234.543C116.67 235.316 117.655 235.843 118.728 236.055C119.801 236.267 120.912 236.156 121.922 235.736C122.931 235.316 123.793 234.605 124.398 233.694C125.003 232.783 125.324 231.713 125.32 230.62C125.315 229.163 124.734 227.767 123.703 226.737C122.673 225.706 121.277 225.125 119.82 225.12Z" fill="#5E503B"/>
<path d="M117.88 244C115.791 245.798 113.289 247.048 110.597 247.638C107.905 248.228 105.109 248.139 102.46 247.38C102.497 250.631 103.632 253.775 105.68 256.3C106.706 257.522 108.089 258.393 109.634 258.791C111.18 259.189 112.811 259.094 114.3 258.52C115.498 257.879 116.517 256.948 117.265 255.813C118.012 254.678 118.464 253.374 118.58 252.02C118.808 249.326 118.572 246.613 117.88 244Z" fill="white"/>
<path d="M118.94 243.74C118.74 242.74 117.66 242.78 116.8 243.38C114.894 244.995 112.619 246.114 110.176 246.637C107.734 247.16 105.2 247.072 102.8 246.38C102.634 246.334 102.459 246.327 102.289 246.359C102.119 246.392 101.96 246.463 101.822 246.568C101.684 246.672 101.573 246.807 101.496 246.962C101.42 247.117 101.38 247.287 101.38 247.46C101.78 252.44 103.62 257.66 108.66 259.62C109.732 260.058 110.886 260.258 112.043 260.206C113.2 260.154 114.331 259.852 115.36 259.32C116.377 258.698 117.256 257.876 117.944 256.902C118.631 255.929 119.113 254.826 119.36 253.66C120.021 250.368 119.877 246.965 118.94 243.74ZM117.08 253.42C116.785 254.564 116.159 255.596 115.28 256.386C114.402 257.176 113.309 257.689 112.14 257.86C110.952 257.91 109.77 257.667 108.699 257.15C107.628 256.634 106.701 255.861 106 254.9C104.76 253.109 103.953 251.055 103.64 248.9C105.964 249.375 108.362 249.356 110.678 248.842C112.993 248.329 115.175 247.333 117.08 245.92C117.616 248.391 117.616 250.949 117.08 253.42Z" fill="#5E503B"/>
<path d="M295.14 90.32C295.04 91.6651 295.36 93.0079 296.056 94.1636C296.751 95.3193 297.788 96.2309 299.023 96.7727C300.258 97.3146 301.631 97.4601 302.952 97.1892C304.273 96.9182 305.478 96.2442 306.4 95.26C307.4 94.22 305.8 92.64 304.82 93.68C304.21 94.3534 303.402 94.816 302.512 95.0016C301.622 95.1872 300.697 95.0861 299.868 94.7129C299.039 94.3397 298.35 93.7135 297.9 92.9243C297.449 92.135 297.26 91.2233 297.36 90.32C297.381 90.1617 297.368 90.0007 297.322 89.8478C297.276 89.6949 297.198 89.5536 297.093 89.4334C296.988 89.3132 296.858 89.2168 296.713 89.1508C296.568 89.0848 296.41 89.0507 296.25 89.0507C296.09 89.0507 295.932 89.0848 295.787 89.1508C295.642 89.2168 295.512 89.3132 295.407 89.4334C295.302 89.5536 295.224 89.6949 295.178 89.8478C295.131 90.0007 295.119 90.1617 295.14 90.32Z" fill="#5E503B"/>
<path d="M142.24 50C141.412 49.9961 140.601 50.2383 139.91 50.6961C139.22 51.1539 138.681 51.8065 138.362 52.5711C138.043 53.3357 137.959 54.1778 138.119 54.9905C138.28 55.8032 138.679 56.5499 139.264 57.1357C139.85 57.7215 140.597 58.12 141.409 58.2806C142.222 58.4413 143.064 58.3568 143.829 58.038C144.593 57.7191 145.246 57.1802 145.704 56.4898C146.162 55.7993 146.404 54.9884 146.4 54.16C146.4 53.0567 145.962 51.9986 145.182 51.2184C144.401 50.4383 143.343 50 142.24 50Z" fill="#5E503B"/>
<path d="M117.38 53.86C116.556 53.86 115.751 54.1045 115.067 54.5625C114.382 55.0205 113.849 55.6714 113.535 56.4327C113.221 57.194 113.139 58.0315 113.301 58.839C113.464 59.6465 113.862 60.3877 114.446 60.9687C115.029 61.5496 115.772 61.9442 116.581 62.1025C117.389 62.2607 118.226 62.1755 118.986 61.8576C119.746 61.5396 120.394 61.0033 120.849 60.3166C121.303 59.6299 121.544 58.8236 121.54 58C121.535 56.9002 121.094 55.8472 120.314 55.0714C119.535 54.2955 118.48 53.86 117.38 53.86Z" fill="#5E503B"/>
<path d="M93.8 107.7C92.979 107.708 92.1786 107.959 91.4998 108.42C90.821 108.882 90.294 109.535 89.9853 110.296C89.6766 111.056 89.5999 111.892 89.7649 112.696C89.9299 113.5 90.3292 114.238 90.9125 114.815C91.4959 115.393 92.2372 115.785 93.043 115.943C93.8489 116.1 94.6832 116.015 95.4411 115.699C96.1989 115.383 96.8462 114.85 97.3016 114.167C97.757 113.484 98 112.681 98 111.86C97.9974 111.311 97.8867 110.768 97.6742 110.262C97.4617 109.756 97.1516 109.296 96.7616 108.91C96.3716 108.524 95.9093 108.218 95.4011 108.011C94.893 107.803 94.3489 107.697 93.8 107.7Z" fill="#5E503B"/>
<path d="M70.36 106.98C72.6575 106.98 74.52 105.118 74.52 102.82C74.52 100.522 72.6575 98.66 70.36 98.66C68.0625 98.66 66.2 100.522 66.2 102.82C66.2 105.118 68.0625 106.98 70.36 106.98Z" fill="#5E503B"/>
<path d="M294.44 73.04C293.617 73.04 292.813 73.284 292.129 73.7411C291.445 74.1982 290.911 74.8479 290.597 75.608C290.282 76.3682 290.199 77.2046 290.36 78.0116C290.52 78.8185 290.917 79.5598 291.498 80.1416C292.08 80.7234 292.821 81.1196 293.628 81.2801C294.435 81.4406 295.272 81.3582 296.032 81.0434C296.792 80.7285 297.442 80.1953 297.899 79.5112C298.356 78.8271 298.6 78.0228 298.6 77.2C298.6 76.0967 298.162 75.0386 297.382 74.2584C296.601 73.4783 295.543 73.04 294.44 73.04Z" fill="#5E503B"/>
<path d="M316.88 84.34C316.052 84.336 315.242 84.5778 314.552 85.0347C313.862 85.4916 313.323 86.143 313.004 86.9065C312.685 87.6699 312.599 88.511 312.758 89.3232C312.917 90.1353 313.313 90.882 313.897 91.4686C314.481 92.0551 315.226 92.4552 316.037 92.6182C316.849 92.7811 317.69 92.6995 318.455 92.3837C319.22 92.0679 319.874 91.5322 320.334 90.8443C320.794 90.1565 321.04 89.3476 321.04 88.52C321.04 87.4149 320.602 86.3547 319.823 85.5713C319.043 84.788 317.985 84.3453 316.88 84.34Z" fill="#5E503B"/>
<path d="M339.34 151.3C338.513 151.3 337.705 151.545 337.018 152.004C336.33 152.464 335.795 153.117 335.478 153.88C335.162 154.644 335.079 155.485 335.24 156.295C335.402 157.106 335.8 157.851 336.384 158.436C336.969 159.02 337.714 159.418 338.525 159.58C339.335 159.741 340.176 159.658 340.94 159.342C341.703 159.025 342.356 158.49 342.816 157.802C343.275 157.115 343.52 156.307 343.52 155.48C343.52 154.371 343.08 153.308 342.296 152.524C341.512 151.74 340.449 151.3 339.34 151.3Z" fill="#5E503B"/>
<path d="M357.32 162.1C358.874 161.599 360.516 161.431 362.139 161.606C363.762 161.782 365.33 162.298 366.74 163.12C367.001 163.266 367.308 163.303 367.596 163.225C367.884 163.146 368.129 162.958 368.28 162.7C368.425 162.442 368.461 162.138 368.383 161.854C368.304 161.569 368.116 161.327 367.86 161.18C366.192 160.209 364.339 159.597 362.421 159.384C360.503 159.17 358.561 159.36 356.72 159.94C355.36 160.38 355.94 162.56 357.32 162.18V162.1Z" fill="#5E503B"/>
<path d="M342 170.72C345.26 176.48 353.54 175.88 357.48 169.74C358.26 168.54 356.32 167.5 355.58 168.64C352.5 173.26 346.38 173.9 343.92 169.6C343.754 169.383 343.515 169.234 343.247 169.181C342.979 169.128 342.701 169.175 342.465 169.312C342.23 169.45 342.052 169.669 341.966 169.928C341.881 170.187 341.893 170.469 342 170.72Z" fill="#5E503B"/>
<path d="M114.42 278.36C112.76 285 112.719 291.941 114.3 298.6C121.057 297.845 127.508 295.373 133.04 291.42C132.84 291.24 127.86 283.44 114.42 278.36Z" fill="white"/>
<path d="M133.8 290.58C128.857 284.451 122.275 279.853 114.82 277.32C114.663 277.236 114.488 277.192 114.31 277.192C114.132 277.192 113.957 277.236 113.8 277.32C113.654 277.402 113.533 277.521 113.449 277.665C113.364 277.809 113.32 277.973 113.32 278.14C111.62 284.942 111.62 292.058 113.32 298.86C113.386 299.119 113.544 299.345 113.765 299.496C113.986 299.647 114.254 299.713 114.52 299.68C121.455 298.876 128.074 296.33 133.76 292.28C133.885 292.178 133.986 292.05 134.057 291.905C134.128 291.759 134.167 291.601 134.171 291.439C134.175 291.278 134.143 291.117 134.079 290.969C134.015 290.821 133.92 290.688 133.8 290.58ZM115.14 297.38C113.87 291.616 113.87 285.644 115.14 279.88C121.405 282.225 126.982 286.103 131.36 291.16C126.489 294.425 120.945 296.55 115.14 297.38Z" fill="#FF6DBD"/>
<path d="M219.37 54.8422L161.158 220.658C160.046 223.825 161.712 227.293 164.879 228.405L199.847 240.681C203.013 241.793 206.482 240.127 207.594 236.96L265.806 71.1442C266.917 67.9774 265.251 64.509 262.085 63.3972L227.117 51.1212C223.95 50.0095 220.481 51.6754 219.37 54.8422Z" fill="#FFC7F4"/>
<path d="M262 61.36L226.86 49.2C226.107 48.9264 225.307 48.8065 224.506 48.8472C223.706 48.8879 222.922 49.0885 222.201 49.4371C221.479 49.7857 220.835 50.2752 220.306 50.8769C219.777 51.4785 219.374 52.18 219.12 52.94L204.58 94.94C220.18 100.26 235.78 105.52 251.52 110.36L265.88 69.12C266.154 68.3568 266.27 67.5459 266.222 66.7365C266.174 65.927 265.962 65.1358 265.599 64.4105C265.236 63.6852 264.73 63.041 264.112 62.5167C263.493 61.9924 262.775 61.5989 262 61.36Z" fill="#FFEEFC"/>
<path d="M190 137.1C194.46 138.68 234.1 152.04 236.4 152.68L251.62 110.44C236.04 105.62 220.16 100.26 204.72 95L190 137.1Z" fill="#FEDAF6"/>
<path d="M262.4 60.36L227.24 48.18C226.341 47.8641 225.388 47.7289 224.436 47.7823C223.484 47.8356 222.552 48.0763 221.694 48.4907C220.835 48.9051 220.067 49.485 219.433 50.197C218.799 50.9091 218.312 51.7393 218 52.64L160.34 219.34C159.715 221.149 159.834 223.132 160.67 224.853C161.506 226.574 162.992 227.893 164.8 228.52L200 240.68C201.809 241.305 203.792 241.186 205.513 240.35C207.234 239.514 208.553 238.028 209.18 236.22L266.9 69.54C267.209 68.6418 267.337 67.6916 267.278 66.7438C267.218 65.7959 266.973 64.8691 266.555 64.0163C266.137 63.1636 265.555 62.4017 264.842 61.7743C264.129 61.1469 263.299 60.6663 262.4 60.36ZM221.14 194.74C204.66 189.72 191.14 185.44 176.12 180.58L190.68 138.58C198.14 141.16 230.02 151.9 235.4 153.62L221.14 194.74ZM236.14 151.44C229.3 149.22 199.12 139.06 191.42 136.4L205.28 96.4C218.84 101.04 234.46 106.4 250.1 111.16L236.14 151.44ZM264.76 68.82L250.76 109.02C235.4 104.26 219.34 98.82 205.96 94.24L220.1 53.38C220.536 52.1287 221.45 51.1015 222.643 50.524C223.835 49.9465 225.208 49.8659 226.46 50.3L261.6 62.46C262.225 62.6699 262.803 63.001 263.3 63.4343C263.797 63.8676 264.204 64.3946 264.498 64.9852C264.791 65.5759 264.965 66.2185 265.01 66.8765C265.055 67.5345 264.97 68.1949 264.76 68.82Z" fill="#FFAAD7"/>
<path d="M239.88 79.6C238.233 79.858 236.547 79.6586 235.006 79.0238C233.465 78.389 232.127 77.343 231.14 76H230.38L229.44 83.82C229.16 86.16 229.1 88.98 231.02 90.32C231.811 90.7676 232.721 90.9615 233.625 90.8757C234.53 90.7898 235.387 90.4283 236.08 89.84C237.45 88.6613 238.56 87.2106 239.34 85.58C242.1 80.66 242.08 80.84 242.1 80.36C242.12 79.88 240.74 79.46 239.88 79.6Z" fill="white"/>
<path d="M240.6 78.34C239.083 78.6192 237.523 78.544 236.04 78.12C234.447 77.6263 233.049 76.6474 232.04 75.32C231.38 74.26 229.22 75 229.2 76.04C228.591 79.5233 228.23 83.0455 228.12 86.58C228.103 88.0262 228.576 89.4357 229.46 90.58C229.973 91.1527 230.619 91.5907 231.341 91.8557C232.062 92.1207 232.838 92.2046 233.6 92.1C237.1 91.66 238.9 88.52 240.48 85.74C242.8 81.74 242.86 81.74 243.12 80.62C243.113 80.302 243.041 79.9889 242.909 79.6997C242.776 79.4104 242.586 79.1512 242.351 78.9378C242.115 78.7244 241.838 78.5614 241.537 78.4586C241.236 78.3558 240.917 78.3154 240.6 78.34ZM234.6 89.44C234.101 89.7243 233.531 89.8603 232.957 89.832C232.383 89.8036 231.829 89.6121 231.36 89.28C229.74 87.5 230.28 85.42 231.2 77.8C232.657 79.2934 234.546 80.2934 236.6 80.66C238.029 80.822 239.471 80.822 240.9 80.66C237.7 86.46 237.16 88.1 234.7 89.44H234.6Z" fill="#5E503B"/>
<path d="M226.7 61.4C225.873 61.4 225.065 61.6452 224.378 62.1045C223.69 62.5638 223.155 63.2166 222.838 63.9804C222.522 64.7442 222.439 65.5846 222.6 66.3955C222.762 67.2063 223.16 67.9511 223.744 68.5357C224.329 69.1203 225.074 69.5184 225.884 69.6797C226.695 69.841 227.536 69.7582 228.3 69.4418C229.063 69.1255 229.716 68.5897 230.176 67.9023C230.635 67.2149 230.88 66.4067 230.88 65.58C230.88 64.4714 230.44 63.4082 229.656 62.6243C228.872 61.8404 227.809 61.4 226.7 61.4Z" fill="#5E503B"/>
<path d="M250.86 68.44C250.032 68.4361 249.221 68.6783 248.53 69.1361C247.84 69.5939 247.301 70.2465 246.982 71.0111C246.663 71.7757 246.579 72.6178 246.739 73.4305C246.9 74.2432 247.299 74.9899 247.884 75.5757C248.47 76.1615 249.217 76.56 250.029 76.7206C250.842 76.8813 251.684 76.7968 252.449 76.478C253.213 76.1591 253.866 75.6202 254.324 74.9298C254.782 74.2393 255.024 73.4284 255.02 72.6C255.015 71.4983 254.575 70.4433 253.796 69.6643C253.017 68.8852 251.962 68.4453 250.86 68.44Z" fill="#5E503B"/>
<path d="M376.3 146.24L341.24 133.84C340.346 133.519 339.397 133.379 338.448 133.425C337.5 133.472 336.569 133.705 335.711 134.112C334.853 134.519 334.083 135.092 333.446 135.796C332.809 136.501 332.318 137.325 332 138.22L273.16 304.52C272.84 305.411 272.7 306.357 272.747 307.303C272.794 308.249 273.028 309.176 273.435 310.032C273.842 310.887 274.415 311.653 275.119 312.286C275.824 312.919 276.646 313.406 277.54 313.72L312.62 326.14C314.424 326.769 316.403 326.659 318.126 325.835C319.849 325.011 321.177 323.539 321.82 321.74L380.68 155.46C381.316 153.656 381.212 151.674 380.391 149.947C379.571 148.219 378.1 146.887 376.3 146.24ZM306.3 217.56L321.02 176L365.54 191.66L351.4 231.66L306.3 217.56ZM350.64 233.68L335.2 277.34L290.66 261.76L305.56 219.76L350.64 233.68ZM319.74 321C319.522 321.618 319.185 322.186 318.748 322.673C318.31 323.16 317.781 323.557 317.19 323.839C316.6 324.121 315.959 324.284 315.305 324.319C314.651 324.353 313.997 324.259 313.38 324.04L278.32 311.62C277.701 311.405 277.13 311.069 276.642 310.632C276.153 310.195 275.756 309.665 275.474 309.074C275.191 308.483 275.028 307.841 274.995 307.186C274.962 306.532 275.059 305.877 275.28 305.26L289.92 263.86L334.46 279.44L319.74 321ZM378.6 154.72L366.28 189.52L321.78 173.86L334.12 138.98C334.575 137.742 335.501 136.735 336.696 136.176C337.891 135.618 339.258 135.555 340.5 136L375.56 148.4C376.795 148.844 377.805 149.755 378.374 150.938C378.942 152.12 379.024 153.478 378.6 154.72Z" fill="#51BDBF"/>
</svg>
