<svg width="400" height="400" viewBox="0 0 400 400" fill="none" xmlns="http://www.w3.org/2000/svg">
<path d="M208 316.8C205.74 316.44 198.46 317.92 197.42 315.08C193.14 307.64 190.82 306.3 196.24 298.32C199.46 292.56 186.24 282.66 181.64 286.08C174.74 294.08 173.84 293.12 164.54 290.74C161.4 290.74 160.72 283.1 159.68 281.1C158.56 275.1 141.26 278.22 140.9 283.1C141.44 293.1 140.9 293.74 132.46 298.46C129.62 300.92 123.86 296 121.24 295.08C116.16 293.08 106.72 306.28 110.2 310.32C112.32 312.76 118.2 316.96 116.46 320.44C114.96 323.48 116.08 328.44 112.46 329.96C109.34 331.12 101.42 332.26 102.12 336.8C102.84 363.58 114.44 340.34 122.76 359.66C125.1 362.16 120.2 367.92 119.44 370.26C116.92 375.62 130.32 385.24 134.56 381.62C140.36 374.7 142.56 374.4 150.92 377C154.92 377.18 155.5 385 156.68 387.62C158.68 392.22 175.48 389.62 175.18 383.94C174.54 374.22 175.42 374.06 183.42 369.48C188.28 365.74 194.58 376.42 199.18 371.94C215.34 354.14 200.64 360.26 199.52 347.56C201.12 338.76 202.4 337.56 211.14 335.56C216.6 333.4 214 316.98 208 316.8ZM139.26 345.24C124.38 320.54 162 298 176.82 322.62C191.64 347.24 154.12 370 139.26 345.24Z" fill="#3D9CFB"/>
<path d="M288.52 310.78C294.34 309.76 295.08 297.04 289.48 295.32C282.64 293.7 278.28 293.32 275.92 285.92C272.8 280.4 283.28 272.64 276.74 267.92C265.04 257.16 265.56 270.68 256.38 272.76C247.84 273.04 246.74 270.3 241.96 263.94C238.48 259.3 227.18 264.68 227.8 269.94C229.8 277.4 232.32 280.68 226.6 287.2C223.76 292.46 211.9 287.5 210.6 294.5C206.6 314.62 222.84 300.06 227.54 316.1C229.34 318.32 224.82 325.54 224.32 327.76C222.32 332.92 232.32 339.76 236.48 337.04C242.48 330.92 243.6 327.68 252.92 329.18C258.1 329.48 260.22 341.84 266.46 339.34C269.62 337.62 276.04 336.44 275.4 331.88C275.12 329.5 271.4 321 273.4 318.96C277.28 311.54 280.86 311.48 288.52 310.78ZM250.8 313.52C233.98 312.46 235.58 286.88 252.4 287.92C269.22 288.96 267.64 314.56 250.8 313.52Z" fill="#3D9CFB"/>
<path d="M357.62 342.18C357.492 341.374 357.098 340.634 356.5 340.078C355.902 339.524 355.134 339.186 354.32 339.12L349.7 338.76C346.84 337.9 343.98 332.5 344.96 329.62C350.48 323 347.2 320.66 341.18 316.42C334.22 314.42 336.4 324.3 325.88 318.94C321.78 317.7 324.58 309.3 319.06 309.52C304.2 309.24 312.62 313.52 307.36 320.44C295.36 328.94 296.86 310.44 286.34 326.98C284.56 329.18 289.26 332.5 290.18 334.08C292.18 352.48 275.6 335.96 280.46 356.2C280.82 359.08 285.58 358.32 287.52 358.66C291.1 359.28 293.68 364.54 293.1 367.64C287.46 374.2 291.1 377.32 297.1 381.26C299.44 383.12 302.58 378.66 304.26 377.6C322.68 375.14 306.36 392.06 326.4 387.26C329.48 386.88 328.58 381.56 328.98 379.52C340.44 364.84 340.58 388.36 351.34 370.94C353.34 368.32 348.98 365.14 347.68 363.28C346 345.4 361.86 360.86 357.62 342.18ZM315.9 358.18C303.48 353.94 309.46 335.38 322.02 339.18C334.44 343.46 328.46 362 316 358.24L315.9 358.18Z" fill="#3D9CFB"/>
<path d="M232 173.66C232.174 173.36 232.282 173.028 232.32 172.684C232.356 172.34 232.322 171.992 232.216 171.662C232.11 171.332 231.936 171.028 231.706 170.77C231.476 170.511 231.196 170.303 230.88 170.16C225.2 168.16 229.32 176.92 213.22 175.24C212.724 175.249 212.242 175.398 211.826 175.671C211.412 175.944 211.084 176.328 210.88 176.78C208.7 181.68 206.66 184.16 200.34 185.9C199.678 186.083 199.116 186.519 198.775 187.115C198.434 187.711 198.342 188.417 198.52 189.08C202.78 195.2 214.06 183.9 214.9 180.42C221.2 180.42 228.3 180.88 232 173.66Z" fill="#001434"/>
<path d="M223.7 184.14C220.886 187.091 217.084 188.906 213.02 189.24C209.8 189.02 210.46 194 213.66 194.3C218.44 194.74 225.52 192.02 227.44 188.12C228.2 186.58 228.82 184.96 227.28 183.4C226.28 182.4 224.62 183.06 223.7 184.14Z" fill="#001434"/>
<path d="M196.86 158.28C181.26 163.62 189.7 155.06 182.52 155.18C182.18 155.233 181.854 155.357 181.564 155.544C181.275 155.731 181.028 155.976 180.839 156.265C180.65 156.553 180.525 156.878 180.47 157.218C180.415 157.559 180.432 157.907 180.52 158.24C182.24 167.58 191.42 165.56 198.38 163.24C209.42 159.56 215 155.24 209.04 146.46C208.844 146.174 208.592 145.933 208.298 145.751C208.002 145.569 207.674 145.451 207.33 145.403C206.988 145.356 206.64 145.382 206.306 145.477C205.974 145.573 205.666 145.738 205.4 145.96C200.54 151.08 214.1 152.74 196.86 158.28Z" fill="#001434"/>
<path d="M256.2 54.68C268 57.06 284.86 33.08 291.38 25.84C297.88 15.84 284.9 5.83995 275.22 11.84C262.86 18.22 244.28 45.42 256.2 54.68Z" fill="#001434"/>
<path d="M202.48 175.78C203.614 173.699 205.216 171.91 207.16 170.553C209.104 169.196 211.336 168.308 213.68 167.96C218.6 167.08 222.28 168.08 222.88 166.14C224.02 162.42 215.26 161.9 208.42 164.52C203.46 166.4 198.86 170.84 198.14 172.94C197.82 173.514 197.73 174.189 197.888 174.827C198.045 175.465 198.438 176.02 198.988 176.38C199.538 176.74 200.204 176.878 200.852 176.767C201.5 176.655 202.082 176.303 202.48 175.78Z" fill="#001434"/>
<path d="M279.46 95.14C291.2 99.14 310.34 122.2 319.62 102.62C321.86 86.46 298.52 79.08 285.14 78.62C269.04 77.34 263.62 90.16 279.46 95.14Z" fill="#001434"/>
<path d="M204 104.88C231.46 106.76 216.94 35.9 198.76 34.58C172.9 28.7 193.54 100.74 204 104.88Z" fill="#001434"/>
<path d="M260.6 71.72C266.26 83.16 293.02 62.16 325.8 76.82C356.32 90.48 363.08 56.54 328.98 47.72C309.26 41.42 283.16 46.4 265.54 59.82C258.14 65.44 260 70.34 260.6 71.72Z" fill="#001434"/>
<path d="M146.58 178.2C148.626 179.072 150.826 179.521 153.05 179.521C155.274 179.521 157.474 179.072 159.52 178.2C164.98 176.3 181.52 170.52 177 156.2C169.46 132.3 119.06 162.54 146.58 178.2ZM144.1 163.22C147.14 156.62 170.22 145.58 172.36 158.98C162.834 161.112 153.895 165.319 146.18 171.3C144.78 169.32 142.44 166 144.1 163.22Z" fill="#001434"/>
<path d="M144.72 131.06C164.38 129.36 143.14 82.34 144.86 67.36C145.2 51.54 137.1 41.52 126.68 54.06C118.14 66.28 120 126.44 144.72 131.06Z" fill="#001434"/>
<path d="M219.54 277.26C230.8 261.94 207.72 240.3 192.14 245.26C190.068 243.952 187.818 242.948 185.46 242.28C185.938 240.128 186.864 238.1 188.177 236.33C189.489 234.558 191.16 233.084 193.08 232C193.384 231.848 193.655 231.636 193.877 231.378C194.099 231.12 194.267 230.82 194.371 230.496C194.475 230.172 194.514 229.83 194.484 229.49C194.455 229.152 194.358 228.822 194.2 228.52C188.56 223.52 180.9 236.74 180.2 241.84C179.528 241.884 178.86 241.97 178.2 242.1C177.62 238.72 178.5 234.42 180.9 229.26C181.045 228.952 181.127 228.618 181.142 228.278C181.156 227.938 181.104 227.598 180.987 227.278C180.869 226.958 180.69 226.664 180.459 226.414C180.228 226.164 179.95 225.962 179.64 225.82C172.72 225.14 172.38 241.68 173.38 244.34C166.6 249.36 167.86 260.58 176.18 263.26C160.64 267.96 172.94 290.48 174.74 278.02C172.74 272.42 172.98 270.2 178.08 268.02C178.68 269.552 179.481 270.998 180.46 272.32C178 273.06 174.76 281.1 179.84 281.78C180.205 281.78 180.565 281.702 180.898 281.552C181.231 281.404 181.528 281.186 181.772 280.914C182.015 280.644 182.198 280.324 182.31 279.976C182.422 279.63 182.459 279.262 182.42 278.9C182.3 277.78 182.42 277.02 184.1 276.24C187.044 278.91 190.384 281.11 194 282.76C193.88 285.74 190.64 292.76 195.48 293.56C199.6 293.1 197.72 287.24 198.96 284.48C201.89 285.262 204.96 285.36 207.932 284.764C210.904 284.166 213.7 282.892 216.1 281.04C219.68 283.04 217.4 285.68 215.8 288.28C215.622 288.568 215.502 288.89 215.448 289.226C215.392 289.56 215.404 289.904 215.482 290.234C215.56 290.564 215.704 290.876 215.902 291.152C216.1 291.428 216.352 291.662 216.64 291.84C216.928 292.018 217.25 292.138 217.586 292.192C217.92 292.248 218.264 292.236 218.594 292.158C218.924 292.08 219.236 291.936 219.512 291.738C219.788 291.54 220.022 291.288 220.2 291C223.38 287 225.22 280.48 219.54 277.26ZM177.84 258.26C168.96 253.86 177.84 243.2 185.84 247.92C181.987 250.26 179.137 253.944 177.84 258.26ZM182.96 266.26C180 255.44 190.76 248.06 201.28 250.56C197.104 251.268 193.197 253.092 189.972 255.838C186.747 258.584 184.324 262.15 182.96 266.16V266.26ZM205.34 279.96C199.62 280.42 193.34 277.66 187.34 272.1C187.539 268.166 189.059 264.412 191.653 261.448C194.248 258.482 197.766 256.478 201.64 255.76C205.76 259.34 210.64 270.64 205.34 279.86V279.96ZM217.02 269.96C216.74 271.55 216.136 273.064 215.244 274.41C214.354 275.756 213.194 276.902 211.84 277.78C212.794 274.028 212.956 270.116 212.316 266.298C211.676 262.48 210.246 258.836 208.12 255.6C214.76 256.14 218 265.1 217.02 270V269.96Z" fill="#001434"/>
<path d="M375.32 186.7C357.5 145.36 322.52 123.12 272.4 106.7C268.92 98.16 261.04 90.32 252.02 92.7C256.58 78.7 244.28 36.4 225.72 51.84C221.4 59.84 231.18 78.36 231.18 89.16C231.18 100.88 239.58 112.4 249.02 101.16C261.72 87.8 275.6 115.56 267.16 130.84C265.796 134.283 265.45 138.045 266.16 141.68C273.72 197.68 189.5 227.8 144.16 194.06C127.66 177.84 117.68 167.52 118.16 142.06C128.04 138.68 125.58 128.78 121.34 116.44C118.147 107.283 116.59 97.6362 116.74 87.94C116.74 66.9 99.22 78.08 99 95.7C-31.68 112 15 285.14 117.66 249.7C129.46 250.3 135.08 245.18 136.36 239.86C142.98 241.62 163.78 243.12 155.98 232.02C175.16 236.7 157.42 210.16 143.98 205.58C144.977 204.452 145.636 203.066 145.88 201.58C192.18 232.58 279.6 200.06 271.4 141.02C270.64 130.9 277.58 122.52 274.36 113.02C305.72 123.02 331.34 137.98 348.96 156.12C318.46 146.62 267.84 168.12 273.2 203.66C255.2 212.5 250.1 245.02 274.92 242.58C290.84 291.12 407.42 262.38 375.32 186.7ZM98.44 100.7C97.74 115.82 98.56 136.46 112.92 141.92C112.591 155.295 116.246 168.466 123.42 179.76C112.9 175.76 106.14 168.16 99.6 159.62C86.72 137.86 54.72 125.62 31.74 143.78C40.2 126 58.58 105.42 98.44 100.7ZM131.26 238.52C130.46 241.6 126.3 244.94 117.26 244.26C111.46 244.84 97.04 231.64 94.5 235.56C92.5 241.2 105.3 244.58 110.02 247.4C101.06 251.24 89.28 246.64 81.54 239.88C80.977 239.55 80.3106 239.444 79.6728 239.582C79.035 239.72 78.4726 240.094 78.0974 240.628C77.722 241.162 77.5614 241.818 77.647 242.464C77.7328 243.112 78.0586 243.702 78.56 244.12C80.06 245.18 82.2 246.64 84.56 248.12C69.903 246.622 56.1916 240.184 45.68 229.86C23.84 213.38 5.16003 136.28 62 140.34C85.1 141.88 92.42 162 106.78 175.64C114.56 185.64 143.8 187.2 139.64 202.34C131.04 207.2 102.12 187.32 103.4 207C104.56 224.92 133.2 228.18 131.26 238.52ZM158.9 227.42C149.36 218.06 138.72 210.26 123.4 208.84C119.18 208.44 117.4 211.78 119.4 214.84C129.6 231.3 140.8 230.26 152.02 235.16C146.727 235.92 141.335 235.58 136.18 234.16C131.78 222.72 109.54 219.26 108.58 206.38C108.1 200.08 116.2 204.38 121.86 205.44C137.6 208.38 153.76 212.58 158.9 227.42ZM153.72 230.1C143.36 226.1 134 226.72 125.22 214.32C136.383 215.76 146.576 221.404 153.72 230.1ZM368.94 236C362.94 245.7 352.16 252.6 340.06 256.6C339.574 250.436 339.918 244.234 341.08 238.16C341.154 237.826 341.16 237.482 341.098 237.146C341.038 236.81 340.91 236.488 340.724 236.202C340.538 235.916 340.296 235.668 340.014 235.476C339.732 235.284 339.414 235.148 339.08 235.08C332.56 235.94 335.3 250.8 334.94 258.1C326.59 260.258 317.94 261.022 309.34 260.36C309.118 252.426 309.856 244.496 311.54 236.74C311.628 236.412 311.65 236.07 311.604 235.732C311.558 235.396 311.448 235.072 311.276 234.778C311.106 234.484 310.878 234.228 310.608 234.022C310.338 233.816 310.028 233.666 309.7 233.58C302.78 233.78 304.88 255.7 304.16 259.58C284.86 258.68 266.98 233.94 291.12 220.02C291.748 219.74 292.238 219.222 292.486 218.582C292.732 217.942 292.716 217.228 292.44 216.6C284.74 210.28 273.14 231.6 274.44 236.98C254.58 238.58 263.52 212.72 277.34 206.72C290.306 198.52 305.426 194.383 320.76 194.84C321.1 194.851 321.44 194.794 321.758 194.673C322.076 194.551 322.368 194.368 322.616 194.134C322.862 193.9 323.06 193.619 323.198 193.308C323.338 192.996 323.412 192.661 323.42 192.32C318.6 182.9 280.28 197.88 278.12 200.32C274.9 166.32 334.68 147.7 357.66 165.8C373.14 184.72 381.58 216.78 368.94 236Z" fill="#001434"/>
<path d="M170 118.14C190.86 126.88 185.58 88.84 182.6 70.3C177.36 46.3 175.9 33.76 159.26 37.72C140.46 49.28 156 108.86 170 118.14Z" fill="#001434"/>
<path d="M142.5 152C143.96 149.22 152.92 142.42 159.9 141.12C160.563 140.98 161.145 140.585 161.519 140.02C161.893 139.455 162.03 138.765 161.9 138.1C157.64 130.86 138.74 146.68 137.9 149.6C137.635 150.204 137.609 150.886 137.827 151.508C138.046 152.13 138.493 152.646 139.078 152.951C139.662 153.257 140.341 153.328 140.977 153.151C141.612 152.975 142.157 152.563 142.5 152Z" fill="#001434"/>
<path d="M227.3 112.94C220.256 113.131 213.324 114.743 206.92 117.68C206.594 117.813 206.298 118.01 206.05 118.259C205.802 118.509 205.606 118.805 205.474 119.131C205.34 119.457 205.276 119.806 205.28 120.158C205.284 120.51 205.36 120.857 205.5 121.18C205.768 121.788 206.264 122.267 206.88 122.513C207.498 122.76 208.186 122.755 208.8 122.5C214.596 119.813 220.874 118.324 227.26 118.12C227.908 118.068 228.514 117.775 228.956 117.299C229.4 116.823 229.648 116.199 229.654 115.548C229.658 114.898 229.42 114.269 228.984 113.787C228.548 113.304 227.948 113.002 227.3 112.94Z" fill="#001434"/>
<path d="M249 130.3C247 111.34 208.62 121 210.38 137.66C212.22 159.5 253.34 150.84 249 130.3ZM216.88 140.64C208 128.3 244 117.88 244 131.78C234.576 133.394 225.44 136.379 216.88 140.64Z" fill="#001434"/>
</svg>
