<svg width="400" height="400" viewBox="0 0 400 400" fill="none" xmlns="http://www.w3.org/2000/svg">
<path d="M301.32 189.58C300.375 189.566 299.46 189.907 298.756 190.537C298.052 191.167 297.61 192.04 297.52 192.98C297.595 193.867 297.985 194.698 298.62 195.322C299.254 195.945 300.092 196.321 300.98 196.38C305.14 196.36 305.84 189.56 301.32 189.58Z" fill="white"/>
<path d="M264.74 197.76C265.2 196.66 264.52 196.06 261.38 194.62C260.14 194.04 259.94 194.32 255.78 204.08C255.1 205.66 257.64 206.08 259.92 207.04C261.02 206.1 260.76 207.34 264.74 197.76Z" fill="white"/>
<path d="M277.42 226.38C279 229.56 278.8 230.38 280.36 229.32C284.54 226.7 284.36 226.08 284.58 227.8C285.34 232.1 285.4 233.02 286.98 232.56C290.7 231.5 290.76 232.2 290.98 229.46C289.26 217.32 288.72 216.3 287.2 217.46C276.8 225.48 276.74 225.04 277.42 226.38Z" fill="white"/>
<path d="M285.24 189.76C285.21 189.001 284.905 188.279 284.383 187.727C283.861 187.176 283.156 186.832 282.4 186.76C281.604 186.914 280.874 187.307 280.306 187.885C279.738 188.464 279.359 189.201 279.22 190C279.183 190.762 279.435 191.51 279.924 192.095C280.413 192.68 281.104 193.061 281.86 193.16C282.726 193.061 283.532 192.67 284.146 192.052C284.76 191.434 285.146 190.626 285.24 189.76V189.76Z" fill="white"/>
<path d="M313.4 218C313.359 217.141 313.029 216.321 312.462 215.675C311.895 215.028 311.126 214.593 310.28 214.44C309.318 214.45 308.39 214.798 307.659 215.424C306.928 216.049 306.44 216.911 306.28 217.86C306.355 218.742 306.753 219.565 307.399 220.171C308.045 220.776 308.892 221.121 309.777 221.138C310.662 221.155 311.522 220.844 312.191 220.265C312.86 219.685 313.291 218.878 313.4 218Z" fill="white"/>
<path d="M337.34 207.24C336.74 207.24 336.26 207.24 336.12 207.56C335.98 207.88 336.24 208.68 335.68 208.8C335.017 208.895 334.343 208.895 333.68 208.8C333.48 208.8 333.44 208.4 333.3 208.3C333.064 207.713 332.639 207.223 332.091 206.908C331.543 206.592 330.906 206.47 330.28 206.56C329.738 206.564 329.205 206.703 328.73 206.965C328.255 207.227 327.853 207.603 327.56 208.06C327.56 208.18 327.56 208.56 327.2 208.56C326.52 208.56 325.2 208.76 325.04 208.56C324.921 208.123 324.861 207.673 324.86 207.22C324.68 205.44 323.36 205.8 319.36 205.84C316.46 205.84 314.86 205.5 314.56 207.4C314.14 209.92 314.18 211.94 316.02 212.1C324.16 212.86 324.82 213.34 325.08 210.86C325.08 210.54 324.86 209.82 325.3 209.9C326.2 209.9 326.4 209.76 326.98 210.06C327.12 210.06 327.08 210.54 327.14 210.86C327.324 211.549 327.731 212.158 328.297 212.593C328.863 213.027 329.557 213.263 330.27 213.263C330.984 213.263 331.677 213.027 332.243 212.593C332.809 212.158 333.216 211.549 333.4 210.86C333.6 210.36 333.14 210.02 334.7 210.02C335.96 210.02 335.74 210.2 335.8 210.62C335.86 211.04 335.8 212.24 335.92 212.94C336.16 214.12 336.56 213.64 341.92 213.56C342.751 211.477 343.459 209.346 344.04 207.18C342.82 207.32 341.02 207.18 337.34 207.24Z" fill="white"/>
<path d="M326.92 233.46C328.36 231.46 324.32 225.72 320.6 229.46C316.88 233.2 323.74 238 326.92 233.46Z" fill="white"/>
<path d="M266.46 177.3C265.36 177.1 262.46 177.9 262.16 180.36C262.066 181.069 262.211 181.789 262.574 182.405C262.936 183.021 263.495 183.498 264.16 183.76C264.969 184.212 265.909 184.37 266.821 184.206C267.733 184.042 268.56 183.566 269.16 182.86C269.463 182.331 269.632 181.737 269.653 181.128C269.674 180.519 269.546 179.914 269.28 179.366C269.013 178.818 268.618 178.344 268.126 177.984C267.635 177.623 267.063 177.389 266.46 177.3V177.3Z" fill="white"/>
<path d="M240.84 223.84C240.84 223.84 241.68 224.26 243.08 224.9L240.84 223.84Z" fill="white"/>
<path d="M366.16 220.7C366.165 221.276 366.055 221.847 365.835 222.38C365.615 222.912 365.29 223.395 364.88 223.8C363.78 224.88 364.16 223.06 360.02 223.24C359.22 223.24 358.2 221.92 358.16 220.36C358.182 219.835 358.308 219.319 358.53 218.842C358.751 218.365 359.065 217.937 359.452 217.581C359.839 217.226 360.293 216.95 360.786 216.769C361.28 216.589 361.805 216.508 362.33 216.53C362.855 216.552 363.371 216.678 363.848 216.9C364.325 217.121 364.753 217.435 365.109 217.822C365.464 218.209 365.74 218.662 365.921 219.156C366.101 219.65 366.182 220.175 366.16 220.7V220.7Z" fill="#8DCCF3"/>
<path d="M345.34 225.28C346.246 225.32 347.104 225.7 347.742 226.346C348.38 226.991 348.751 227.853 348.78 228.76C348.78 230.52 346.78 232.76 345.4 232.76C344.391 232.766 343.415 232.406 342.65 231.748C341.886 231.09 341.385 230.178 341.24 229.18C341.301 228.131 341.758 227.144 342.52 226.42C343.281 225.696 344.289 225.288 345.34 225.28V225.28Z" fill="#8DCCF3"/>
<path d="M226.86 215.46C233.14 218.24 233 218.04 232.86 218.98C232.72 219.92 231.9 220.84 231.04 220.44C228.073 219.302 225.203 217.924 222.46 216.32C222.226 216.118 222.075 215.838 222.034 215.532C221.994 215.226 222.067 214.916 222.24 214.66C223 213.44 224.5 214.42 226.86 215.46Z" fill="#8DCCF3"/>
<path d="M231.54 208.64C232.84 209.2 236.26 210.44 236.12 211.36C235.98 212.28 235.08 213.26 234.12 212.88C225.76 209.18 224.86 209.16 225.14 208.02C225.42 206.88 225.54 206.32 226.04 206.38C226.54 206.44 229.48 207.74 231.54 208.64Z" fill="#8DCCF3"/>
<path d="M239.54 203.36C239.9 203.58 239.26 206.2 238.28 205.76C235.182 204.596 232.18 203.191 229.3 201.56C229.099 201.371 228.947 201.135 228.86 200.873C228.773 200.611 228.752 200.332 228.8 200.06C228.835 199.775 228.976 199.515 229.194 199.329C229.413 199.144 229.694 199.048 229.98 199.06C230.66 199.18 239.08 203.12 239.54 203.36Z" fill="#8DCCF3"/>
<path d="M232.36 185.38C233.324 185.559 234.188 186.086 234.789 186.86C235.39 187.634 235.685 188.602 235.62 189.58C235.59 190.483 235.218 191.341 234.579 191.979C233.941 192.618 233.083 192.99 232.18 193.02C231.31 192.903 230.494 192.531 229.836 191.951C229.177 191.371 228.705 190.608 228.48 189.76C228.478 188.622 228.812 187.509 229.44 186.56C230.248 185.841 231.28 185.424 232.36 185.38V185.38Z" fill="#8DCCF3"/>
<path d="M242.72 181.72C242.736 180.866 243.09 180.053 243.705 179.461C244.01 179.167 244.369 178.937 244.763 178.782C245.157 178.628 245.577 178.552 246 178.56C246.423 178.568 246.84 178.659 247.228 178.828C247.615 178.997 247.966 179.241 248.259 179.546C248.553 179.85 248.783 180.21 248.938 180.603C249.092 180.997 249.168 181.417 249.16 181.84C249.129 182.762 248.744 183.636 248.084 184.28C247.425 184.925 246.542 185.29 245.62 185.3C245.188 185.271 244.767 185.154 244.383 184.955C243.999 184.756 243.66 184.48 243.388 184.143C243.116 183.807 242.916 183.418 242.801 183.001C242.686 182.584 242.658 182.148 242.72 181.72V181.72Z" fill="#8DCCF3"/>
<path d="M247.4 165.74C247.582 166.555 247.484 167.407 247.121 168.158C246.758 168.91 246.151 169.517 245.4 169.88C243.14 171.1 244.62 165.88 240.44 165.88C239.94 165.88 241.3 162.96 244.44 162.92C246 162.88 247.1 164.48 247.4 165.74Z" fill="#8DCCF3"/>
<path d="M330.2 199.74C344.86 206.28 342.5 204.76 343.5 206.88C341.36 207.62 343.18 207.16 337.34 207.24C336.74 207.24 336.26 207.24 336.12 207.56C335.98 207.88 336.24 208.68 335.68 208.8C335.017 208.895 334.343 208.895 333.68 208.8C333.48 208.8 333.44 208.4 333.3 208.3C333.029 207.785 332.628 207.35 332.137 207.038C331.645 206.727 331.08 206.55 330.499 206.526C329.918 206.502 329.34 206.631 328.824 206.9C328.309 207.169 327.872 207.569 327.56 208.06C327.56 208.2 327.56 208.56 327.2 208.56C326.5 208.56 325.2 208.76 325.04 208.56C324.921 208.123 324.861 207.673 324.86 207.22C324.68 205.44 323.36 205.8 319.36 205.84C316.46 205.84 314.86 205.5 314.56 207.4C314.14 209.92 314.18 211.94 316.02 212.1C324.16 212.86 324.82 213.34 325.08 210.86C325.08 210.54 324.86 209.82 325.3 209.9C326.2 209.9 326.42 209.78 326.98 210.06C327.12 210.06 327.08 210.54 327.14 210.86C327.324 211.549 327.731 212.158 328.297 212.593C328.863 213.027 329.556 213.263 330.27 213.263C330.983 213.263 331.677 213.027 332.243 212.593C332.809 212.158 333.216 211.549 333.4 210.86C333.54 210.52 333.4 210.22 333.76 210.1C334.367 209.98 334.993 209.98 335.6 210.1C335.82 210.1 335.76 210.4 335.8 210.62C335.8 211.2 335.8 212.24 335.92 212.94C336.04 213.64 336.14 213.72 336.94 213.72C343.64 213.72 340.94 210 327.26 241.94C321.38 255.68 320.1 261.48 317.6 260.32C291.3 248.1 325.8 263.56 240.8 223.78C236.8 221.78 238.24 222.26 245.16 206.62C245.96 204.86 251.66 189.82 260.76 171.72C263.04 167.32 257.84 167.52 330.2 199.74ZM326.92 233.46C328.36 231.46 324.32 225.72 320.6 229.46C316.88 233.2 323.74 238 326.92 233.46ZM313.4 218C313.359 217.141 313.029 216.321 312.462 215.675C311.895 215.028 311.126 214.593 310.28 214.44C309.318 214.45 308.39 214.798 307.659 215.424C306.928 216.049 306.439 216.911 306.28 217.86C306.354 218.742 306.753 219.565 307.399 220.171C308.045 220.776 308.892 221.121 309.777 221.138C310.662 221.155 311.522 220.844 312.191 220.265C312.86 219.685 313.291 218.878 313.4 218ZM300.98 196.36C305.14 196.36 305.84 189.54 301.32 189.56C300.373 189.536 299.452 189.875 298.746 190.507C298.04 191.138 297.601 192.016 297.52 192.96C297.34 194.54 299.3 196.38 300.98 196.38V196.36ZM286.98 232.54C290.7 231.48 290.76 232.18 290.98 229.44C289.26 217.3 288.72 216.28 287.2 217.44C276.84 225.44 276.78 225.02 277.46 226.36C279.04 229.54 278.84 230.36 280.4 229.3C284.58 226.68 284.4 226.06 284.62 227.78C285.34 232.1 285.4 233 286.98 232.56V232.54ZM285.24 189.74C285.21 188.981 284.905 188.259 284.383 187.707C283.861 187.156 283.156 186.812 282.4 186.74C281.601 186.895 280.869 187.291 280.301 187.873C279.733 188.456 279.356 189.198 279.22 190C279.183 190.762 279.434 191.51 279.923 192.095C280.413 192.68 281.104 193.061 281.86 193.16C282.727 193.064 283.535 192.675 284.15 192.056C284.765 191.438 285.149 190.627 285.24 189.76V189.74ZM269.24 182.84C269.544 182.304 269.711 181.702 269.727 181.086C269.742 180.471 269.605 179.861 269.328 179.31C269.051 178.76 268.643 178.287 268.139 177.933C267.635 177.579 267.051 177.354 266.44 177.28C265.34 177.08 262.44 177.88 262.14 180.34C262.046 181.049 262.191 181.769 262.554 182.385C262.916 183.001 263.475 183.478 264.14 183.74C264.958 184.227 265.924 184.406 266.862 184.244C267.801 184.083 268.651 183.592 269.26 182.86L269.24 182.84ZM264.72 197.74C265.18 196.64 264.5 196.04 261.36 194.6C260.12 194.02 259.92 194.3 255.76 204.06C255.08 205.64 257.62 206.06 259.9 207.02C261.02 206.1 260.74 207.34 264.74 197.76L264.72 197.74Z" fill="#FFF59E"/>
<path d="M323.82 274C323.82 274.74 323 276.86 322.4 276.58C312.4 272.16 295.68 263.68 278.88 255.76C248.28 241.34 216.28 225.76 216.38 225.62C216.48 225.48 217.08 223.1 218.38 223.44C224.38 225.92 243.74 235.7 262.38 244.66C279.18 252.66 295.28 260.04 300.54 262.8C310.46 268 322.58 272.92 323.82 274Z" fill="#D8E9FF"/>
<path d="M374.64 220.58C376.84 225.9 372.76 234.32 370.24 239.52C358.78 263.16 357.48 265.12 349.08 267.52C347.6 267.94 348.8 266.4 350.52 261.8C351.113 258.823 352.495 256.061 354.52 253.8C373.8 234.3 364.52 228.1 366.28 226.16C373.04 218.78 364.9 211.14 358.86 214.68C358.121 215.072 357.473 215.615 356.956 216.273C356.44 216.931 356.066 217.689 355.86 218.5C355.578 219.391 355.512 220.337 355.669 221.259C355.825 222.181 356.199 223.052 356.76 223.8C356.96 224.38 356.6 224.64 356.46 224.88C353.26 230.3 351.16 234.5 347.44 237.56C340.44 243.34 344.38 243.12 335.44 252.32C320.3 267.82 327.26 273.22 322.92 271.14C213.92 219.3 218.46 220.82 218.48 220.78C221.78 214.28 218.48 217.72 231.06 222.02C234.22 223.08 235.62 218.74 234.26 217.42C233.24 216.42 232.38 216.02 224.14 212.46C222.14 211.62 222.62 213.02 223.28 210.66C223.68 209.22 222.96 209.6 231.28 213.4C235.48 215.4 236.12 215.04 237.46 212.88C238.1 211.86 238.26 211.04 237.6 210.24C236.138 208.948 234.44 207.95 232.6 207.3C230.644 206.377 228.641 205.556 226.6 204.84C225.44 204.48 224.96 204.66 224.96 204.54C224.96 202.4 225.2 193.52 226.74 191.5C227.397 192.709 228.354 193.729 229.52 194.46C234.28 197 243.52 190.34 233.68 183.08C236.837 182.068 239.562 180.026 241.42 177.28C243.9 174.22 243.02 172.34 244.24 172.36C245.343 172.295 246.404 171.919 247.302 171.277C248.201 170.634 248.899 169.751 249.317 168.729C249.735 167.706 249.856 166.587 249.666 165.499C249.475 164.411 248.981 163.399 248.24 162.58C245.64 159.24 238.66 160.88 238.02 166.1C238.02 166.78 238.18 166.58 230.82 169.76H230.6C230.635 169.673 230.682 169.593 230.74 169.52C233.76 164.92 235.3 162.06 236.74 160.26C238.552 157.879 241.207 156.283 244.16 155.8C253.96 154.12 258.16 158.96 318.16 184.36C337.96 192.76 367.56 209.06 367.6 209.08C371.24 210.96 372.28 214.94 374.64 220.58ZM345.52 235.46C348.34 235.46 351.32 232.1 351.3 228.72C351.334 227.867 351.194 227.016 350.889 226.219C350.583 225.422 350.119 224.696 349.523 224.085C348.927 223.473 348.213 222.99 347.424 222.664C346.635 222.338 345.788 222.176 344.935 222.188C344.081 222.2 343.239 222.386 342.46 222.735C341.681 223.084 340.981 223.587 340.403 224.215C339.826 224.844 339.382 225.583 339.099 226.388C338.817 227.194 338.701 228.048 338.76 228.9C338.846 230.646 339.592 232.295 340.846 233.513C342.101 234.731 343.772 235.427 345.52 235.46V235.46ZM345.74 207.02C346.98 203.68 346.16 204.46 328.72 196.54C323.88 194.34 292.5 180.54 288.56 178.7C269.82 170.3 262.04 164.2 259.42 169.58C248.88 191.3 239.8 212.78 236.42 220.1C234.12 225.06 238.2 225 262.42 236.46C298.9 253.64 311.62 260.16 316.14 262.46C318.74 263.74 320.6 263 321.52 261.48C323.52 258.26 326.1 250.22 333.52 234.04C344 211.28 340 222.36 345.74 207.02ZM246.14 187.3C247.561 187.274 248.917 186.7 249.923 185.697C250.93 184.694 251.509 183.341 251.54 181.92C250.86 173.52 240.04 174.92 240.4 181.92C240.457 183.391 241.092 184.781 242.166 185.788C243.24 186.795 244.668 187.338 246.14 187.3ZM238.58 207.3C241.18 207.08 242.58 203.14 240 201.86C230.18 196.98 229.72 196.96 228.6 197.68C227.06 198.68 225.92 201.86 228.6 203.14C237.88 207.34 236.6 206.62 238.58 207.24V207.3Z" fill="#D8E9FF"/>
<path d="M146.48 190.36C147.74 192.62 150.1 194.36 149.96 197.52C149.54 206.68 150.36 207.1 149.04 206.56C129.76 198.56 131.04 200.2 122.38 197.9C116.52 196.34 114.84 194.72 103.46 192.3C84.46 188.3 89.26 188.14 79.46 187.4C78.2388 187.359 77.0313 187.129 75.88 186.72C73.26 182.54 78.22 172.18 79.24 173.02C81.24 174.7 85.86 173.98 89.42 174.08C94.84 174.24 98.84 174.96 106.04 175.8C116.74 177.06 127.06 178.62 138.46 184.94C144.84 188.52 145.62 188.82 146.48 190.36Z" fill="#84D492"/>
<path d="M223.68 45.0001C224.36 49.9201 224.38 49.9801 224.08 50.2801C219.66 54.6201 217.52 55.0801 207.36 60.0401C158.84 83.7801 106.22 96.3401 106.14 95.5001C90.82 97.3001 94.14 98.5401 72.14 98.8601C64.52 98.9801 62.56 99.0401 60.42 98.3601C59.76 98.1601 59.5 97.2201 59.28 96.2401C59.06 95.2601 58.92 93.7601 59.7 94.2401C70.68 96.7001 97.8 92.8401 108.96 90.8601C150.68 81.0001 206.38 57.5801 219.62 47.7801C222.66 45.5001 223.58 44.2401 223.68 45.0001Z" fill="#FFCCCE"/>
<path d="M116 24.5C116.1 27.34 112.36 27.7 109.68 27.48C105.8 27.18 105.9 22.3 109.98 21.88C112.7 21.6 116 22 116 24.5Z" fill="#FFCCCE"/>
<path d="M114.86 80.88C115.405 82.6353 115.859 84.4177 116.22 86.22C114.48 86.66 112.84 87.08 111.28 87.42C110.32 87.64 110.22 83.98 107.84 75.9C104.48 64.46 100.12 61.26 96.3401 60.18C92.5276 59.6141 88.6525 59.6141 84.8401 60.18C78.8401 61.08 75.2401 62.28 72.4001 66.72C70.2001 70.18 66.6401 73.66 69.7601 87.52C70.7601 91.96 71.1401 92.46 70.3601 92.54C69.0001 92.68 67.8401 92.54 66.8401 92.54C65.1389 85.3324 64.8132 77.8684 65.8801 70.54C67.2897 65.8188 70.2939 61.7331 74.3801 58.98C82.3801 54.98 85.9601 55.68 89.4001 55.1C93.2319 54.3575 97.1952 54.704 100.84 56.1C111.28 60.7 112.7 75.6 114.86 80.88Z" fill="#FFCCCE"/>
<path d="M379.08 241.56C379.88 244.34 378.68 246.4 376.72 251.56C375.38 255.14 377 256.48 378.12 264.24C378.3 265.42 376.64 269.32 376.98 273.04C377.079 276.236 376.535 279.419 375.38 282.4C374.354 285.133 372.954 287.711 371.22 290.06C369.48 292.8 367.8 297.86 361.64 302.52C346.82 313.74 355.64 314.52 347.64 309.44C345.847 308.539 343.842 308.143 341.841 308.295C339.84 308.446 337.917 309.139 336.28 310.3C332.02 313.14 336 311.34 320.74 309.52C318.36 309.22 318.02 311.52 322.54 290.04C323.04 287.6 323.4 285.14 323.98 282.72C325.44 276.56 327.06 275.52 327.24 272.46C327.58 266.1 333.24 258.16 337.94 254.18C345.36 247.84 343.18 244.72 348.68 240.68C354.18 236.64 355.2 232.22 358.68 227.16C360.24 224.92 364.1 226.18 364.16 232.3C364.022 235.053 363.197 237.728 361.76 240.08C356.28 250.58 350.26 250.36 347.76 260.54C347.34 262.22 345.1 264.54 346.2 267.4C346.38 267.84 345.74 270.68 349.28 270.26C352.228 269.849 355.03 268.723 357.442 266.979C359.855 265.236 361.804 262.93 363.12 260.26C372.06 242.4 370.14 246.78 371.76 243.38C377.64 230.88 375.6 229.26 379.08 241.56Z" fill="#FFC6A6"/>
<path d="M238.76 169.16C240.5 168.14 240.9 170.54 240.76 171.16C240.08 177.02 233.1 179.82 230.12 181.54C221.94 186.26 222.24 203.18 222.12 203.68C221.16 208.28 219.98 211.46 214.34 222.62C211.04 229.18 205.38 226.74 205.88 229.42C206.04 230.3 206.6 230.42 207.3 230.44C213.56 229.88 213.12 226.86 215 227.76C217.952 228.902 220.825 230.238 223.6 231.76C215.02 235.98 214.28 235.76 208.82 246.24C201.34 260.64 202.28 260.7 201.48 259.54C198.92 255.8 188.18 241.12 184.24 234.62C182.48 231.74 183.64 233.44 190.36 225.98C195.78 219.98 196.36 218.58 199.5 210.68C201.655 205.823 203.278 200.747 204.34 195.54C205.32 192.32 207.26 187.54 208.08 184.26C208.76 181.56 209.6 180.26 221.24 166.86C226.28 161.12 227.6 161.66 230.54 160.68C234.92 159.22 232.54 160.84 228.54 168.24C225.5 174.02 222.54 170.76 219.02 175.84C217.56 177.96 216.9 181.64 212.66 187.72C211.14 189.88 208.34 191.48 208.66 192.84C209.26 196.3 215.42 189.74 218.36 183.82C222.16 176.14 220.02 177.12 230 173.36C232.992 172.115 235.916 170.713 238.76 169.16V169.16Z" fill="#FFC6A6"/>
<path d="M219.56 40.54C220.3 40.54 221.78 41.58 220.7 42.54C216.24 46.54 218.7 45.54 211.48 49.42C200.88 55.02 201.82 54.32 194.96 57.42C186.28 61.42 186.96 61.68 186.42 60.02C184 51.1 183.64 52.72 182 47.26C182.88 46.46 206.34 39.02 219.56 40.54Z" fill="#FFCCCE"/>
<path d="M198 116.5C198.24 118.775 197.739 121.067 196.572 123.035C195.404 125.003 193.632 126.541 191.52 127.42C190.54 127.82 190.02 129.28 190.06 132.16C190.075 141.48 188.961 150.768 186.74 159.82C181.34 184.16 171.02 174.98 148.56 167.82C144.14 166.44 141.24 183.36 139.78 182.5C133.94 178.94 123.48 175.72 116.84 174.16C113.52 173.38 92.4 172.16 92.84 170.7C94.84 163.36 94.84 163.58 95.78 160.54C96.16 159.14 96.68 160.86 101.64 160.54C105.12 160.26 103.52 157.74 105.26 158.24C110.26 159.64 109.64 159.08 114.82 158.08C115.86 157.88 118.82 159.9 120.04 156.88C121.26 153.86 126.86 156.72 129.52 151.56C132.64 145.56 132.56 145.18 132.42 142.74C132.431 142.565 132.401 142.39 132.332 142.228C132.263 142.067 132.157 141.924 132.023 141.812C131.889 141.699 131.73 141.619 131.559 141.579C131.388 141.538 131.211 141.539 131.04 141.58C130.1 141.58 130.04 142.2 129.9 142.96C128.02 152.18 124.34 151.82 122.54 152.4C122.04 152.56 122.68 150.4 122.94 148C123.2 145.6 120.44 145.26 120.46 146.78C120.272 149.307 119.593 151.773 118.46 154.04C117.78 155.68 117.46 156.04 116.04 154.8C108.94 148.34 111.58 146.42 109.04 146.8C107.28 147.08 109.2 150.94 110.28 152.5C112.28 155.34 113.14 155.38 112.12 155.72C107.56 157.22 105.04 154.62 100.7 152.58C96.36 150.54 96.56 146.98 94.86 147.46C93.16 147.94 94.36 152.68 99.62 155.14C100.02 155.34 102.12 156.46 101.94 156.78C101.76 157.1 101.5 157.44 101.26 157.44C100.114 157.5 98.9659 157.42 97.84 157.2C93.16 156.02 92.1 157.56 91.66 156.5C90 152.38 85.04 156.86 79.28 148.86C77.98 147.04 79.28 144.36 77.84 142.06C76.4 139.76 72.76 135.62 71.3 133.18C66.8 125.66 72.36 122.02 68.68 117.18C65 112.34 64.42 111.28 64.36 105.18C64.36 97.68 62.82 104.28 91.56 100.68C130.04 95.84 159.76 81.18 160.66 84.04C161.6 88.5655 161.024 93.2747 159.02 97.44C156.78 101.92 162.3 103.44 159.14 108.4C158.1 110.02 155.82 110.4 156.58 113.08C157.18 115.08 153.6 115.08 154.82 117.08C156.04 119.08 159.74 116.76 159.32 113.5C158.98 110.92 163.44 111.14 162.6 104.22C162.4 102.56 160.6 100.06 161.36 98.8C163.614 94.0044 164.13 88.5743 162.82 83.44C162.42 82.18 162.22 82.82 174.82 77.66C184.18 73.78 183.16 72.5 184.14 80.66C184.32 82.16 184.56 83.8 183.86 83.72C177.34 83.04 172.54 89.48 172.52 94.76C172.52 96.54 174.18 96.52 174.52 95.58C175.22 93.16 175.48 90.06 179.86 87.26C181.218 86.5724 182.77 86.3679 184.26 86.68C185.54 86.68 182.98 100.34 183.58 106.08C183.656 107.557 184.154 108.981 185.015 110.183C185.877 111.385 187.066 112.314 188.44 112.86C192.7 115.2 197.48 112.12 198 116.5ZM186 144.68C186.42 143.6 186.22 142.68 185.24 142.26C176.2 138 180 139.72 171.56 134.38C169.56 133.16 168.58 134.02 168.96 135.82C170.72 143.96 170.32 155.7 174.14 159.34C175.68 160.82 178.14 159.76 179.72 157.48C182.267 153.451 184.372 149.16 186 144.68V144.68ZM179.54 112C179.94 110.66 179.96 108.88 178.66 108.36C176.66 107.62 176.5 109.82 176.08 111.18C176.3 114 179 113.8 179.54 112ZM146 144.52C149.4 143.46 153.18 139.06 152.52 135.58C152.47 135.309 152.326 135.065 152.114 134.889C151.902 134.713 151.635 134.616 151.36 134.616C151.085 134.616 150.818 134.713 150.606 134.889C150.394 135.065 150.25 135.309 150.2 135.58C150.04 138.1 146.5 143.26 141.08 141.8C132.12 139.42 127.38 130.24 128.2 124.9C128.2 119.96 127.82 116.9 130.2 113.84C135.68 106.52 144.2 107.38 147.28 111.4C149.28 114.08 149.28 116.12 150.86 115.66C152.72 115.08 149.64 109.48 146.68 107.66C139.76 103.54 131.92 106.44 127.76 112.7C125.76 115.86 126 118.52 125.76 122.98C124.42 137.34 137.08 147.3 146 144.52ZM143.5 128.52C144.32 126.86 148.22 125 146.78 121.72C140.38 107.3 130 115.96 132.48 123.52C132.62 123.92 133.46 124.22 133.72 124.18C134.46 124.06 134.6 122.18 134.2 122.18C134.376 121.157 134.623 120.148 134.94 119.16C136.06 116.28 140.56 114.88 143.74 121.82C144.36 123.24 144.44 123.42 143.28 124.46C137.4 129.8 142 135.48 145.28 134.94C145.596 134.922 145.895 134.792 146.122 134.572C146.35 134.352 146.491 134.058 146.52 133.743C146.549 133.428 146.464 133.113 146.281 132.856C146.097 132.598 145.827 132.415 145.52 132.34C145.091 132.304 144.678 132.161 144.318 131.924C143.959 131.687 143.664 131.364 143.462 130.985C143.259 130.605 143.154 130.18 143.158 129.75C143.161 129.319 143.272 128.897 143.48 128.52H143.5ZM112.32 141.7C112.32 142.26 114.64 143.48 114.52 141.24C114.34 138.18 115.98 128.92 113.28 129.6C111.86 129.96 112.24 131.6 112.22 132.38C112.043 135.485 112.077 138.599 112.32 141.7V141.7ZM103.24 140.78C104.26 144.14 107.36 145.18 107.38 142.56C104.26 136.36 104.76 135.48 102.58 133.4C102.02 132.86 100.68 132.54 100.46 133.98C100.18 135.72 101.28 134.28 103.24 140.78ZM98.62 145.24C98.98 145.1 99.16 144.52 99.38 144.2C99.22 143.7 99.2 143.3 99 143.1C98.2065 142.283 97.3578 141.521 96.46 140.82C91.28 137.04 94.6 135.62 90.84 131.74C89.62 130.5 88.12 131.44 89.06 133.06C92.74 139.38 88.08 138.14 97.06 145.06C97.289 145.207 97.5486 145.3 97.8191 145.331C98.0895 145.363 98.3635 145.331 98.62 145.24V145.24ZM86.62 147.84C86.7802 147.907 86.9521 147.942 87.1257 147.942C87.2994 147.943 87.4714 147.909 87.6321 147.843C87.7927 147.777 87.9388 147.68 88.062 147.558C88.1852 147.436 88.283 147.29 88.35 147.13C88.417 146.97 88.4517 146.798 88.4523 146.624C88.4529 146.451 88.4192 146.279 88.3533 146.118C88.2874 145.957 88.1905 145.811 88.0681 145.688C87.9457 145.565 87.8002 145.467 87.64 145.4C84.84 144.28 85.78 141.82 84.44 138.64C82.32 133.6 77.48 134.64 78.02 131.26C78.02 131.26 78.3 129.8 77.02 129.72C75.38 129.6 74.4 133.6 77.64 135.72C79.28 136.84 81.98 138.22 82.5 140.94C83.02 143.66 82.76 146.52 86.62 147.84V147.84Z" fill="#FFC6A6"/>
<path d="M180.48 51.66C184.58 62.7 184.48 62.12 183.82 62.4C169.82 68.1 139.82 79.76 118.74 85.54C118.24 82.54 116.46 76.78 115.66 73.54C113.66 65.3 111.26 59.2 103.66 54.28C96.0601 49.36 75.6601 53.76 71.2601 58.28C62.6001 67.32 63.66 70.06 63.14 79.62C63.2061 83.9343 63.6748 88.2329 64.5401 92.46C59.3601 92.98 60.74 90.9 59.8 71.88C59.8258 68.695 60.4149 65.5397 61.5401 62.56C64.3601 53.28 73.2001 46.2 80.8601 40.24C90.18 33.02 100.44 30.24 102.64 29.2C105.98 27.56 105.52 30.76 111.38 30.28C114.6 30 117.7 29.26 118.58 26.28C119.02 24.8 139.04 20.8 153.72 26.28C163.36 29.84 159.24 26.8 168.86 33.7C171.224 34.9951 173.142 36.9751 174.36 39.38C178.38 46.96 178 45.08 180.48 51.66Z" fill="#FF9C9F"/>
<path d="M108.38 87.36C108.52 87.88 107.12 88.14 105.2 88.7C96.82 91.12 73.5 93.26 73.2 92.12C70.5 81.16 70.82 76 71.06 74.28C71.6745 71.7671 72.8892 69.4406 74.6 67.5C77.1 64.08 83.28 62.88 87.26 62.64C92 62.38 96.72 61.3 100.8 66.64C105.26 72.46 106.38 80.16 108.38 87.36ZM90.38 85.98C92.06 85.78 93.76 85.88 93.42 84.2C93.08 82.52 90.2 83.78 88.6 83.06C83.38 80.76 85.54 78 83.28 78C82.28 78 82.24 78.96 81.76 79.5C80.38 80.98 78.12 79.2 78 77.5C77.84 75.5 78.94 72.62 76.98 73.38C76.1 73.72 75.92 75.38 75.86 76.32C75.7207 77.2053 75.8057 78.1114 76.107 78.9554C76.4084 79.7993 76.9165 80.5543 77.585 81.1512C78.2535 81.748 79.061 82.1678 79.9336 82.3719C80.8062 82.5761 81.7161 82.5583 82.58 82.32C83.78 81.18 85.3 86.1 90.42 86L90.38 85.98Z" fill="#FFD152"/>
<path d="M343.58 329.72C343.58 329.72 335.24 378.06 335.06 378.78C334.88 379.5 326.18 382.22 320.94 380.24C315.7 378.26 305.9 379.7 300.48 379.32C295.06 378.94 287.26 379.88 287.98 375.7C288.7 371.52 311.16 338.4 314.6 317.04L333.24 319.2C333.24 319.2 331.8 328 343.58 329.72Z" fill="#FFC6A6"/>
<path d="M342.66 310.88C344.507 310.768 346.346 311.213 347.937 312.158C349.528 313.102 350.799 314.503 351.585 316.179C352.371 317.854 352.636 319.727 352.345 321.555C352.054 323.382 351.222 325.081 349.955 326.429C348.687 327.778 347.045 328.716 345.239 329.12C343.433 329.524 341.547 329.377 339.826 328.697C338.104 328.017 336.627 326.836 335.585 325.307C334.542 323.778 333.983 321.971 333.98 320.12C333.91 317.745 334.784 315.439 336.411 313.707C338.038 311.975 340.285 310.958 342.66 310.88Z" fill="white"/>
<path d="M248.48 370.76L216 307.1C216 307.1 200.14 317.66 198.38 318.66C196.62 319.66 172.2 336.28 163.38 339.56L185.54 378.58C209.54 380.04 217.54 376.14 232.86 378.32C241.68 379.58 251 375.56 248.48 370.76Z" fill="#FFC6A6"/>
<path d="M160.94 81.04C161.42 81.04 163.32 89.3 161.9 92.78C160.48 96.26 158.72 97.54 159.9 99.92C161.08 102.3 162.44 107.08 159.9 109.46C157.36 111.84 157.9 112.46 157.9 113.74C157.9 115.02 154.72 117.74 152.66 117.74C150.6 117.74 150.9 115.52 148.66 111.88C146.42 108.24 138.66 105.52 134.54 108.54C130.42 111.56 126.76 112.36 127.24 120.28C127.72 128.2 127.54 132.66 129.24 134.9C130.94 137.14 132.56 141.08 131.24 144.26C129.92 147.44 126.16 153.14 120.44 154.58C120.44 154.58 119.34 156.8 114.72 156.32C114.72 156.32 108.06 157.74 105.04 156.96C105.04 156.96 101.88 159.5 95.68 158.38C89.48 157.26 89.32 155.2 87.1 155.36C84.88 155.52 76.94 150.44 76.64 147.9C76.34 145.36 76.64 142.2 73.78 139.18C70.92 136.16 67.28 130 67.6 125.64C67.92 121.28 68.24 118.5 66.5 116.28C64.76 114.06 62.84 108.28 63.48 100.4C87.64 100.94 113.48 98 160.94 81.04Z" fill="#FFD152"/>
<path d="M221.08 298.86C218.1 286.46 198.14 258.4 188.44 243.02C171.62 216.4 147.86 203.02 118.84 197.7C113.7 196.76 88.48 189.7 84.84 188.86C78.4931 188.039 72.0669 188.039 65.72 188.86C59.0106 190.384 52.6733 193.233 47.08 197.24C41.96 201.24 33.22 208.94 32.4 211.1C31.58 213.26 20 234.38 19.08 236.78C18.16 239.18 12.5 255.78 11.74 256.24C7.46002 258.9 12.54 283.22 11.74 291.32C10.94 299.42 13.36 311 12.54 335.82C11.72 360.64 13.9 365.82 14.98 374.68C16.06 383.54 35.2 374.68 41.42 376.3C47.64 377.92 178.56 378.64 185.56 378.58L163.4 339.56C163.4 339.56 197.88 318.02 210.28 311.56C222.68 305.1 221.08 298.86 221.08 298.86Z" fill="#D3FFCF"/>
<path d="M170 134.8C170.22 134.8 185.7 143.7 185.7 143.7C185.7 143.7 180.78 159.7 175.02 158.72C171.62 158 170 134.8 170 134.8Z" fill="white"/>
<path d="M387.74 155.08C388.7 155.08 389.92 154.9 390 155.86C389.86 157.34 386 156.66 379.54 160.98C374.974 163.916 371.291 168.035 368.882 172.899C366.473 177.763 365.428 183.189 365.86 188.6C366.84 199.1 372.12 202.16 371.16 203.12C367.46 206.22 354.06 177.12 377.4 160.16C379.4 158.78 381.4 157.78 382.72 156.84C375.242 155.044 368.569 150.825 363.74 144.84C355.878 135.312 351.335 123.481 350.8 111.14C350.06 97.52 353.82 90.66 355.14 86.52C352.26 87.86 342.64 97.36 324.62 101.74C304.88 106.54 285.1 101.74 278.06 80.82C277.958 80.9713 277.871 81.132 277.8 81.3C273.38 97.06 253.04 113.3 235.8 115.98C233.4 116.36 231.16 116.34 228.26 116.6C232.614 121.647 235.651 127.694 237.1 134.2C237.84 137.34 239.1 150.7 236.42 150.32C235.4 150.18 235.54 149.4 235.64 148.78C237.44 137.94 234.48 124.78 224.72 116.66C224.257 116.463 223.869 116.125 223.61 115.694C223.351 115.263 223.236 114.761 223.28 114.26C223.28 113.36 226.4 113.94 228.82 114.14C248.82 115.9 276.82 93.06 276.46 74.44C276.46 73.76 276.6 73.1 277.44 72.92C278.7 72.66 278.76 74.1 279.12 76.02C279.525 79.7718 280.7 83.3996 282.572 86.676C284.444 89.9523 286.973 92.8067 290 95.06C298.28 101.28 309.46 102.2 319.68 100.52C341.18 97 353 85.26 358.86 79.68C361.26 77.38 362.3 76.1 363.12 76.9C365.12 78.9 351.58 85.78 352.66 111.16C353.86 138.7 372.76 155.34 387.74 155.08Z" fill="#000001"/>
<path d="M381 237.7C382.46 243.9 382.54 244.38 381.26 248.1C379.68 252.72 378.64 253.58 379.38 255.82C382.36 264.8 380.66 266.06 380.04 271.02C379.54 274.9 382.5 279.16 370.24 297.98C365.56 305.16 361.08 305.56 355.38 312.72C351.06 318.12 356.94 323.14 347.1 330.36C344.54 332.24 345.4 325.28 339.98 355.94C335.64 380.36 336.36 380.32 334.74 380.36C333.12 380.4 332.98 379.46 333.14 378.36C334.66 367.58 339.14 342.56 341.14 332.52C341.42 331.08 340.84 332.52 335.14 329.5C333.203 327.834 331.81 325.626 331.14 323.16C330.9 322.22 328.92 321.96 316.36 319.78C314.48 319.44 310.08 336.16 295.18 365.78C293.318 369.527 291.234 373.161 288.94 376.66C287.72 377.46 286.2 376.66 286.94 375.02C301.04 346.78 291.98 369.56 311.08 323.14C311.52 322.06 312.96 320.38 312.4 318.24C311.84 316.1 313.82 312.24 314.4 310.44C314.8 309.12 316.4 309.7 316.4 308.78C320.96 277.28 322.7 279.4 321.18 278.78C311.66 274.38 249.3 244.4 227.18 233.76C226 233.2 226.3 233.48 220.34 236.34C217.819 237.424 215.784 239.395 214.62 241.88C210.79 248.16 207.395 254.695 204.46 261.44C204.04 262.34 202.88 261.92 203.94 263.74C223.6 297.6 213.94 282.7 222.54 298.02C223.78 300.24 222.8 301.5 219.58 305.16C218.34 306.58 217.1 306.52 217.58 307.6C228.22 327.26 219.98 314.52 233.22 338.02C237.491 345.354 241.324 352.934 244.7 360.72C248.36 368.28 251.68 372.56 249 373.12C246.32 373.68 238.1 351.12 228.06 334.98C222.06 325.42 223.6 325.78 219.24 317.46C214.88 309.14 215.24 308.98 214.34 309.74C205.7 316.36 205.62 314.38 198.1 321.1C194.88 323.98 192.9 325.3 174.82 335.56C165.54 340.82 165.08 340.06 165.74 341.24C185.12 374.88 186.9 377.76 186.62 378.82C186.18 380.58 184.82 380.62 184.1 379.34C172.96 359.52 176.3 366.46 162.98 342.54C161.98 340.76 158.44 346.02 154.34 340.94C145.38 329.84 150.7 333.22 138.46 310.38C135.34 304 135.58 300.84 132 290C125.06 269.48 116.98 248.14 125.4 228C126.06 226.46 128.4 227.26 127.5 229.12C117.28 250.3 135.04 287.68 137.92 300C139.36 306.24 142.58 310.24 149.06 324.14C152.66 331.86 149.76 329.24 156.08 337.28C159.56 341.74 156.24 342.3 189.48 323.7C196.6 319.7 197.24 316.72 205.06 312.46C212.12 308.64 218.22 303.28 219.58 300.46C221.9 295.56 182.18 232.06 168.16 220.92C161.7 215.78 153.14 209.5 146.32 210.92C140.74 212.06 140.16 212.5 139.66 211.36C138.92 209.74 140.96 209.82 145.4 208.14C138.674 205.131 131.657 202.819 124.46 201.24C120.46 200.44 114.46 197.88 109.68 196.68C101.52 194.68 94.62 193.28 90.82 192.34C89.14 191.92 87.54 191.14 85.84 190.84C71.6 188.22 58.24 190.04 45.36 200.84C36.76 208 36 208 31.64 216.2C26.22 226.52 23.32 228.2 14.16 255.12C12.74 259.3 12.34 261.24 11 260.42C9.65998 259.6 10.5 257.9 11.36 255.12C15.36 242.74 13.54 248.46 17.94 237.34C23.56 223.14 19.74 231.48 22.94 225.72C30.76 211.72 32.12 208.08 36.94 203.9C48.56 193.74 54.94 188.34 72.04 186.86C74.24 186.68 69.9 183.6 74.04 175.42C74.9714 172.773 76.8338 170.555 79.28 169.18C82.6425 167.543 86.2752 166.533 90 166.2C91.68 166.38 91.46 165.4 92.98 160.7C93.5 159.1 90.54 161.5 88.78 158.18C87.7 156.18 81.48 159 75.86 149.74C75.3717 148.742 75.2174 147.613 75.42 146.52C76.24 140.96 63.54 136.38 66.88 122.18C68 117.4 60.72 119.1 61.84 102.18C62.02 99.72 57.12 101.5 56.94 96.18C56.8 92.18 56.7 91.14 58 90.74C58.98 90.46 57.26 88.96 57.58 80.96C57.88 73.84 55.58 72.34 58.98 61.62C62.7 50 74 42.5 76.6 40.14C88.26 29.36 104 26.64 104 25.38C104.16 21.2 107.2 18.12 114.52 19.38C118.52 20.04 116.92 23.28 119.28 22.86C140.6 19 143.74 20.86 161.08 26.04C164.254 27.1998 167.203 28.898 169.8 31.06C173.38 33.62 174.32 33.68 176.66 37.78C180.66 44.94 180.66 45.1 181.28 44.9C190.4 41.2 205.46 37.4 215.28 37.42C220.98 37.42 225.1 38.26 225.84 43.84C226.48 48.72 226.82 48.82 226.32 52.1C225.96 54.48 198.82 67.5 196.6 68.54C184.6 74.08 184.76 73.22 184.96 74.38C186.72 84.24 186.1 83.88 187.22 84.52C192.32 87.44 190.04 90.52 187.84 88.88C187.14 88.34 186.86 87.96 186.72 87.96C186.58 87.96 186.72 88.38 186.56 89.54C185.44 103.9 185.04 105.54 186.3 108.1C187.56 110.66 191.6 111.5 194.42 111.38C199.94 111.16 203.12 116.72 198.7 124.62C197.523 126.684 195.683 128.291 193.48 129.18C190.62 130.22 194.3 133.52 189.14 160.84C188.76 162.84 187.14 167.16 186.58 169.3C184.44 177.46 174.46 180.08 166.36 177.06C146 169.44 148.14 168.7 145.52 175.28C142 184.32 142 184 143.14 184.58C148.66 187.44 147.3 187.38 150.4 191.22C155.18 197.22 151.14 207.74 153.04 208.44C159.597 210.975 165.596 214.766 170.7 219.6C183.52 231.86 180.4 231.48 182.94 229.6C185.85 227.133 188.461 224.334 190.72 221.26C195.48 215.4 194.72 215.7 198.4 205.26C199.699 202.267 200.742 199.169 201.52 196C202.02 192.72 203.52 190.72 205.72 182.9C206.52 180.12 207.72 178.32 217.4 167.32C224.12 159.72 224.88 159.2 228.62 158.36C233.42 157.28 234.2 157.88 236.48 156.5C249.12 148.86 255.98 154.72 291.28 170.14C330.96 187.48 315.38 179.66 337.64 190.76C367.38 205.6 371.98 206.94 374.8 213.38C378.8 222.84 378.3 224.14 377.54 228.3C377.06 230.94 378.98 229.02 381 237.7ZM376.72 251.54C378.72 246.4 379.88 244.34 379.08 241.54C375.58 229.24 377.64 230.86 371.66 243.32C370.04 246.72 371.96 242.34 363.02 260.2C361.704 262.87 359.755 265.176 357.342 266.919C354.93 268.663 352.128 269.789 349.18 270.2C345.64 270.62 346.28 267.78 346.1 267.34C345 264.54 347.24 262.16 347.66 260.48C350.24 250.3 356.26 250.48 361.66 240.02C363.097 237.668 363.922 234.993 364.06 232.24C364.06 226.12 360.06 224.86 358.58 227.1C355.1 232.16 354 236.64 348.58 240.62C343.16 244.6 345.26 247.78 337.84 254.12C333.2 258.12 327.48 266.12 327.14 272.4C326.96 275.46 325.34 276.5 323.88 282.66C323.3 285.08 322.94 287.54 322.44 289.98C317.92 311.46 318.26 309.16 320.64 309.46C335.9 311.28 331.92 313.08 336.18 310.24C337.817 309.079 339.74 308.386 341.741 308.235C343.742 308.083 345.747 308.479 347.54 309.38C355.54 314.46 346.72 313.68 361.54 302.46C367.7 297.8 369.38 292.74 371.12 290C372.854 287.651 374.254 285.073 375.28 282.34C376.435 279.359 376.979 276.176 376.88 272.98C376.54 269.26 378.2 265.36 378.02 264.18C377 256.46 375.38 255.12 376.72 251.54ZM370.24 239.54C372.76 234.34 376.84 225.92 374.64 220.6C372.28 214.96 371.24 210.98 367.68 209.12C367.68 209.12 338.04 192.8 318.24 184.4C258.14 159.02 254.02 154.16 244.24 155.84C241.287 156.323 238.632 157.919 236.82 160.3C235.44 162.1 233.9 164.96 230.82 169.56C230.762 169.633 230.714 169.714 230.68 169.8H230.9C238.26 166.62 238.02 166.82 238.1 166.14C238.74 160.92 245.72 159.28 248.32 162.62C249.061 163.439 249.555 164.451 249.745 165.539C249.936 166.627 249.815 167.746 249.397 168.769C248.979 169.791 248.281 170.674 247.382 171.317C246.484 171.959 245.422 172.335 244.32 172.4C243.1 172.4 243.98 174.26 241.5 177.32C239.642 180.066 236.917 182.108 233.76 183.12C243.6 190.38 234.36 197.12 229.6 194.5C228.434 193.769 227.477 192.749 226.82 191.54C225.28 193.54 225.14 202.44 225.04 204.58C225.04 204.7 225.52 204.58 226.68 204.88C228.721 205.596 230.724 206.417 232.68 207.34C234.52 207.99 236.218 208.988 237.68 210.28C238.34 211.08 238.18 211.9 237.54 212.92C236.2 215.08 235.54 215.36 231.36 213.44C223.08 209.64 223.8 209.24 223.36 210.7C222.7 213.06 222.26 211.66 224.22 212.5C232.46 216.06 233.32 216.5 234.34 217.46C235.7 218.78 234.34 223.12 231.14 222.06C218.54 217.76 221.88 214.32 218.56 220.82C218.56 220.82 214 219.34 323 271.18C327.34 273.18 320.38 267.86 335.52 252.36C344.5 243.16 340.56 243.38 347.52 237.6C351.24 234.54 353.34 230.34 356.54 224.92C356.68 224.68 357.04 224.42 356.84 223.84C356.279 223.092 355.905 222.221 355.749 221.299C355.592 220.377 355.658 219.431 355.94 218.54C356.146 217.729 356.519 216.971 357.036 216.313C357.553 215.655 358.201 215.112 358.94 214.72C364.94 211.18 373.12 218.72 366.36 226.2C364.6 228.2 373.88 234.34 354.6 253.84C352.575 256.101 351.193 258.863 350.6 261.84C348.88 266.44 347.68 267.98 349.16 267.56C357.48 265.12 358.78 263.16 370.24 239.52V239.54ZM364.88 223.82C365.29 223.415 365.615 222.932 365.835 222.4C366.055 221.867 366.165 221.296 366.16 220.72C366.182 220.195 366.101 219.67 365.921 219.176C365.74 218.683 365.464 218.229 365.109 217.842C364.753 217.455 364.325 217.141 363.848 216.92C363.371 216.698 362.855 216.572 362.33 216.55C361.805 216.528 361.28 216.609 360.786 216.789C360.292 216.97 359.839 217.246 359.452 217.601C359.065 217.957 358.751 218.385 358.53 218.862C358.308 219.339 358.182 219.855 358.16 220.38C358.16 221.94 359.22 223.28 360.02 223.26C364.16 223.06 363.78 224.88 364.88 223.8V223.82ZM348.78 319.68C349.42 314.14 342.88 311.92 339.78 313.96C338.141 314.973 336.97 316.594 336.523 318.468C336.077 320.343 336.393 322.318 337.4 323.96C339.88 328.48 348 326.38 348.78 319.66V319.68ZM322.4 276.52C323.02 276.8 323.78 274.68 323.82 273.94C322.58 272.92 310.46 267.94 300.42 262.74C295.16 259.98 279.06 252.74 262.26 244.6C243.68 235.64 224.26 225.86 218.26 223.38C217.02 223.04 216.48 225.38 216.26 225.56C216.04 225.74 248.26 241.28 278.76 255.7C295.68 263.62 312.48 272 322.4 276.52ZM245.46 169.88C246.204 169.508 246.805 168.901 247.167 168.151C247.528 167.402 247.632 166.554 247.46 165.74C247.16 164.48 246 162.88 244.62 162.9C241.42 162.9 240.06 165.86 240.62 165.86C244.68 165.86 243.18 171.06 245.46 169.88ZM240.82 171.26C240.82 170.54 240.5 168.14 238.82 169.26C235.955 170.788 233.011 172.163 230 173.38C220 177.14 222.18 176.16 218.36 183.84C215.42 189.84 209.26 196.32 208.66 192.86C208.42 191.5 211.22 189.9 212.66 187.74C216.9 181.74 217.56 177.98 219.02 175.86C222.52 170.78 225.5 174.04 228.54 168.26C232.42 160.86 234.9 159.24 230.54 160.7C227.6 161.68 226.28 161.14 221.24 166.88C209.6 180.18 208.76 181.58 208.08 184.28C207.26 187.56 205.32 192.28 204.34 195.56C203.278 200.767 201.655 205.843 199.5 210.7C196.4 218.7 195.78 219.96 190.36 226C183.64 233.46 182.48 231.76 184.24 234.64C188.24 241.14 198.92 255.82 201.48 259.56C202.28 260.72 201.34 260.66 208.82 246.26C214.28 235.74 215.02 236 223.6 231.78C220.825 230.258 217.952 228.922 215 227.78C213.12 226.88 213.56 229.9 207.3 230.46C206.6 230.46 206.04 230.32 205.88 229.44C205.38 226.76 211.04 229.2 214.34 222.64C219.98 211.48 221.16 208.3 222.12 203.7C222.22 203.2 221.92 186.28 230.12 181.56C233.16 180 240.14 177.12 240.82 171.26V171.26ZM236.12 211.36C236.26 210.44 232.84 209.2 231.54 208.64C229.54 207.74 226.5 206.42 226.14 206.38C225.78 206.34 225.46 207.16 225.24 208.02C225.02 208.88 225.86 209.18 234.22 212.88C235.08 213.26 236 212.3 236.12 211.36V211.36ZM235.62 189.58C235.685 188.602 235.39 187.634 234.789 186.86C234.188 186.086 233.324 185.559 232.36 185.38C231.28 185.424 230.248 185.841 229.44 186.56C228.812 187.509 228.478 188.622 228.48 189.76C228.705 190.608 229.177 191.371 229.836 191.951C230.494 192.531 231.31 192.903 232.18 193.02C233.083 192.99 233.94 192.618 234.579 191.979C235.218 191.341 235.59 190.483 235.62 189.58V189.58ZM232.92 218.98C232.92 218.04 233.14 218.24 226.92 215.46C224.56 214.42 223.06 213.46 222.36 214.66C222.187 214.916 222.114 215.226 222.154 215.532C222.195 215.838 222.346 216.118 222.58 216.32C225.323 217.924 228.193 219.302 231.16 220.44C232 220.84 232.86 220 232.92 218.98V218.98ZM224 50.28C224.3 49.98 224.28 49.92 223.6 45C223.6 44.24 222.58 45.5 219.6 47.68C206.36 57.48 150.66 80.9 108.94 90.76C97.8 92.76 70.66 96.6 59.68 94.14C58.9 93.76 58.98 95.02 59.26 96.14C59.54 97.26 59.74 98.14 60.4 98.26C62.54 98.94 64.5 98.88 72.12 98.76C93.96 98.44 90.7 97.2 106.12 95.4C106.12 96.24 158.82 83.68 207.34 59.94C217.52 55.08 219.66 54.64 224 50.28ZM220.62 42.56C221.7 41.58 220.22 40.56 219.48 40.56C206.26 39.04 182.8 46.56 182 47.28C183.56 52.74 183.86 51.12 186.34 60.1C186.8 61.76 186.2 61.5 194.88 57.5C201.74 54.36 200.88 55.06 211.4 49.5C218.78 45.56 216.24 46.52 220.7 42.56H220.62ZM191.44 127.42C193.567 126.554 195.356 125.022 196.539 123.053C197.722 121.084 198.234 118.785 198 116.5C197.56 112.12 192.78 115.2 188.18 112.76C184.44 110.76 183.26 108.76 183.22 104.14C183.22 98.02 185.22 86.66 184 86.58C182.51 86.2679 180.958 86.4724 179.6 87.16C175.22 89.96 174.96 93.16 174.26 95.48C173.98 96.42 172.26 96.44 172.26 94.66C172.26 89.38 177.08 82.94 183.6 83.62C184.3 83.62 184.06 82.06 183.88 80.56C182.9 72.4 183.88 73.68 174.56 77.56C162.04 82.72 162.24 82.08 162.56 83.34C163.87 88.4744 163.354 93.9044 161.1 98.7C160.42 99.96 162.14 102.46 162.34 104.12C163.18 111.04 158.72 110.82 159.06 113.4C159.48 116.66 155.6 118.7 154.56 116.98C153.52 115.26 156.92 114.98 156.32 112.98C155.56 110.32 157.84 109.92 158.88 108.3C162.04 103.38 156.52 101.82 158.76 97.34C160.764 93.1747 161.34 88.4656 160.4 83.94C159.5 81.08 129.78 95.74 91.3 100.58C62.56 104.18 64.02 97.58 64.1 105.08C64.1 111.22 64.74 112.26 68.42 117.08C72.1 121.9 66.54 125.6 71.04 133.08C72.5 135.52 76.02 139.56 77.58 141.96C79.14 144.36 77.72 146.94 79.02 148.76C84.78 156.76 89.74 152.28 91.4 156.4C91.84 157.46 92.9 155.92 97.58 157.1C98.7058 157.32 99.8544 157.4 101 157.34C101.24 157.34 101.52 156.96 101.68 156.68C101.84 156.4 99.68 155.24 99.36 155.04C94.1 152.58 92.98 147.8 94.6 147.36C96.22 146.92 95.94 150.38 100.44 152.48C104.94 154.58 107.3 157.12 111.86 155.62C112.88 155.28 112.02 155.24 110.02 152.4C108.94 150.84 107.02 146.98 108.78 146.7C111.32 146.32 108.68 148.24 115.78 154.7C117.2 155.98 117.52 155.58 118.2 153.94C119.333 151.673 120.012 149.207 120.2 146.68C120.2 145.16 122.96 145.54 122.68 147.9C122.4 150.26 121.78 152.46 122.28 152.3C124.08 151.72 127.76 152.08 129.64 142.86C129.78 142.1 129.84 141.56 130.78 141.48C130.95 141.439 131.128 141.439 131.299 141.479C131.47 141.519 131.629 141.599 131.763 141.712C131.897 141.824 132.003 141.967 132.072 142.128C132.141 142.29 132.171 142.465 132.16 142.64C132.3 145.08 132.38 145.38 129.26 151.46C126.6 156.62 121.08 153.62 119.78 156.78C118.48 159.94 115.6 157.78 114.56 157.98C109.38 158.98 110 159.54 105 158.14C103.26 157.64 104.86 160.14 101.38 160.44C96.42 160.84 95.9 159.12 95.52 160.44C94.68 163.48 94.58 163.26 92.58 170.6C92.18 172.1 113.3 173.28 116.58 174.06C123.22 175.62 133.68 178.84 139.52 182.4C140.98 183.26 143.88 166.4 148.3 167.72C170.76 174.78 181.08 183.96 186.48 159.72C188.76 150.709 189.942 141.455 190 132.16C190 129.28 190.46 127.82 191.44 127.42ZM183.82 62.4C184.48 62.12 184.58 62.72 180.48 51.66C178.04 45.08 178.48 46.96 174.32 39.38C173.102 36.9751 171.184 34.9951 168.82 33.7C159.2 26.8 163.32 29.84 153.68 26.28C139 20.84 118.98 24.84 118.54 26.28C117.66 29.32 114.54 30.06 111.34 30.28C105.48 30.76 105.94 27.56 102.6 29.2C100.4 30.28 90.14 33.02 80.82 40.24C73.16 46.24 64.32 53.28 61.5 62.56C60.3608 65.5775 59.7715 68.7747 59.76 72C60.7 91.02 59.32 93.1 64.5 92.58C63.6347 88.3529 63.166 84.0543 63.1 79.74C63.62 70.18 62.56 67.44 71.22 58.4C75.6 53.82 96.16 49.54 103.62 54.4C111.08 59.26 113.62 65.42 115.62 73.66C116.42 76.86 118.2 82.62 118.7 85.66C139.8 79.76 169.86 68.1 183.82 62.4ZM150 197.52C150.14 194.44 147.76 192.62 146.52 190.36C145.66 188.82 144.88 188.52 138.52 184.94C126.98 178.62 116.66 177.06 106 175.8C98.8 174.96 94.8 174.24 89.38 174.08C85.82 173.98 81.24 174.7 79.2 173.02C78.18 172.18 73.2 182.54 75.84 186.72C76.9912 187.129 78.1988 187.359 79.42 187.4C89.3 188.14 84.5 188.26 103.42 192.3C114.8 194.72 116.48 196.3 122.34 197.9C131.06 200.2 129.72 198.66 149 206.56C150.36 207.1 149.54 206.68 150 197.52ZM109.74 27.52C112.42 27.74 116.16 27.38 116.06 24.54C116.06 22 112.74 21.64 110.06 21.92C106 22.3 105.82 27.18 109.7 27.48L109.74 27.52ZM116.26 86.26C115.899 84.4577 115.445 82.6753 114.9 80.92C112 73.88 110.58 51.58 89.4 55.16C85.96 55.74 82.32 55.04 74.38 59.04C70.2938 61.7931 67.2896 65.8788 65.88 70.6C64.8212 77.9289 65.1469 85.3913 66.84 92.6C67.84 92.48 69 92.6 70.36 92.6C71.14 92.6 70.76 92.02 69.76 87.58C66.64 73.72 70.2 70.24 72.4 66.78C75.24 62.34 78.88 61.14 84.84 60.24C88.6524 59.6741 92.5275 59.6741 96.34 60.24C100.12 61.32 104.48 64.52 107.84 75.96C110.22 83.96 110.32 87.7 111.28 87.48C112.84 87.08 114.48 86.66 116.22 86.22L116.26 86.26ZM105.2 88.7C107.2 88.14 108.52 87.88 108.38 87.36C106.38 80.16 105.26 72.46 100.82 66.62C96.82 61.3 92.02 62.38 87.28 62.62C83.28 62.86 77.12 64.06 74.62 67.48C72.9092 69.4206 71.6945 71.7471 71.08 74.26C70.84 75.98 70.52 81.14 73.22 92.1C73.5 93.26 96.82 91.14 105.2 88.7Z" fill="#000001"/>
<path d="M351.3 228.72C351.3 232.08 348.34 235.52 345.52 235.46C343.772 235.427 342.101 234.731 340.846 233.513C339.592 232.295 338.846 230.647 338.76 228.9C338.701 228.049 338.817 227.194 339.099 226.389C339.382 225.583 339.826 224.844 340.403 224.216C340.981 223.587 341.681 223.084 342.46 222.735C343.239 222.386 344.081 222.2 344.935 222.188C345.788 222.176 346.635 222.338 347.424 222.664C348.213 222.99 348.927 223.473 349.523 224.085C350.119 224.696 350.583 225.422 350.889 226.219C351.194 227.016 351.334 227.867 351.3 228.72V228.72ZM348.78 228.72C348.751 227.813 348.38 226.951 347.742 226.306C347.104 225.66 346.246 225.28 345.34 225.24C344.289 225.27 343.289 225.701 342.545 226.445C341.801 227.189 341.37 228.189 341.34 229.24C341.485 230.238 341.986 231.15 342.75 231.808C343.515 232.466 344.491 232.826 345.5 232.82C346.82 232.84 348.7 230.52 348.78 228.76V228.72Z" fill="#000001"/>
<path d="M320.6 229.48C324.32 225.72 328.36 231.48 326.92 233.48C323.74 238 317.16 232.96 320.6 229.48ZM325.64 232.14C325.64 231.26 324.3 229.92 323.32 229.88C320.82 229.88 320.28 233.54 323.82 233.6C324.246 233.608 324.662 233.467 324.995 233.2C325.327 232.933 325.556 232.558 325.64 232.14V232.14Z" fill="#000001"/>
<path d="M328.72 196.54C323.88 194.34 292.5 180.54 288.56 178.7C269.82 170.3 262.04 164.2 259.42 169.58C248.88 191.3 239.8 212.78 236.42 220.1C234.12 225.06 238.2 225 262.42 236.46C298.9 253.64 311.62 260.16 316.14 262.46C318.74 263.74 320.6 263 321.52 261.48C323.52 258.26 326.1 250.22 333.52 234.04C343.88 211.38 339.92 222.46 345.64 207.12C346.98 203.68 346.16 204.46 328.72 196.54ZM342.52 209.36C342.52 209.66 341.66 211.78 341.2 211.92C340.059 212.186 338.891 212.32 337.72 212.32C337.28 212.32 337.56 210.64 337.54 210.18C337.54 208.66 337.54 208.66 338.98 208.68C340.42 208.7 342.64 208.46 342.52 209.36V209.36ZM343.5 206.88C341.36 207.62 343.18 207.16 337.34 207.24C336.74 207.24 336.26 207.24 336.12 207.56C335.98 207.88 336.24 208.68 335.68 208.8C335.017 208.895 334.343 208.895 333.68 208.8C333.48 208.8 333.44 208.4 333.3 208.3C333.064 207.714 332.639 207.223 332.091 206.908C331.543 206.592 330.906 206.47 330.28 206.56C329.738 206.564 329.205 206.703 328.73 206.965C328.255 207.227 327.853 207.603 327.56 208.06C327.56 208.18 327.56 208.56 327.2 208.56C326.52 208.56 325.2 208.76 325.04 208.56C324.921 208.123 324.861 207.673 324.86 207.22C324.68 205.44 323.36 205.8 319.36 205.84C316.46 205.84 314.86 205.5 314.56 207.4C314.14 209.92 314.18 211.94 316.02 212.1C324.16 212.86 324.82 213.34 325.08 210.86C325.08 210.54 324.86 209.82 325.3 209.9C326.12 209.9 326.42 209.76 326.98 210.06C327.12 210.06 327.08 210.54 327.14 210.86C327.324 211.549 327.731 212.158 328.297 212.593C328.863 213.027 329.556 213.263 330.27 213.263C330.983 213.263 331.677 213.027 332.243 212.593C332.809 212.158 333.216 211.549 333.4 210.86C333.54 210.52 333.4 210.22 333.76 210.1C334.367 209.98 334.993 209.98 335.6 210.1C335.82 210.1 335.76 210.4 335.8 210.62C335.8 211.2 335.8 212.24 335.92 212.94C336.04 213.64 336.14 213.72 336.94 213.72C343.64 213.72 340.94 210 327.26 241.94C321.38 255.68 320.1 261.48 317.6 260.32C291.3 248.1 325.8 263.56 240.8 223.78C236.8 221.78 238.24 222.26 245.16 206.62C245.96 204.86 251.66 189.82 260.76 171.72C263 167.26 257.8 167.46 330.16 199.72C344.86 206.28 342.5 204.76 343.5 206.88V206.88ZM330.28 212C330.008 211.988 329.741 211.923 329.495 211.808C329.248 211.693 329.027 211.531 328.843 211.33C328.659 211.13 328.516 210.895 328.423 210.639C328.33 210.383 328.288 210.112 328.3 209.84C328.312 209.568 328.377 209.301 328.492 209.055C328.607 208.808 328.769 208.587 328.97 208.403C329.171 208.219 329.405 208.076 329.661 207.983C329.917 207.89 330.188 207.848 330.46 207.86C332.94 207.78 332.66 212 330.28 212ZM321.9 210.98C316.16 210.56 314.98 211.46 316.12 207.34C316.12 207.14 317.12 207.08 317.66 207.08C323.66 206.94 323.66 206.68 323.66 209.26C323.7 211.22 323.62 211.16 322 211.04L321.9 210.98Z" fill="#000001"/>
<path d="M310.28 214.46C311.123 214.612 311.89 215.044 312.456 215.687C313.022 216.33 313.355 217.145 313.4 218C313.382 218.949 312.987 219.853 312.302 220.511C311.618 221.169 310.7 221.529 309.75 221.51C308.801 221.491 307.897 221.096 307.239 220.412C306.581 219.727 306.221 218.809 306.24 217.86C306.405 216.908 306.901 216.045 307.64 215.423C308.379 214.801 309.314 214.46 310.28 214.46ZM310 220C310.395 219.963 310.77 219.81 311.078 219.559C311.386 219.308 311.612 218.972 311.727 218.592C311.843 218.213 311.843 217.807 311.728 217.428C311.613 217.048 311.387 216.711 311.08 216.46C310.518 216.241 309.898 216.22 309.324 216.402C308.749 216.584 308.253 216.958 307.92 217.46C307.32 218.62 308.4 220 310 220Z" fill="#000001"/>
<path d="M308.76 235.34C306.26 239.9 303.78 243.02 299.14 244.06C298.46 244.06 297.98 243.38 298.46 243.02C299.7 242.14 300.86 243.02 305.04 238.4C306.102 237.326 306.897 236.017 307.36 234.58C308 233.46 309.14 234.62 308.76 235.34Z" fill="#000001"/>
<path d="M303.46 232C303.535 231.904 303.631 231.827 303.74 231.774C303.849 231.721 303.969 231.693 304.09 231.693C304.211 231.693 304.331 231.721 304.44 231.774C304.55 231.827 304.645 231.904 304.72 232V232C304.62 234.24 303.56 235.46 297.6 240.26C297.14 240.56 295.96 241.14 295.46 240.94C295.374 240.908 295.298 240.856 295.237 240.787C295.176 240.719 295.133 240.637 295.112 240.548C295.09 240.46 295.09 240.367 295.113 240.278C295.135 240.19 295.179 240.108 295.24 240.04C296.26 238.94 297.5 239.36 301.36 235C302.17 234.082 302.874 233.075 303.46 232V232Z" fill="#000001"/>
<path d="M301.32 189.58C305.84 189.58 305.14 196.36 300.98 196.38C299.3 196.38 297.34 194.54 297.52 192.98C297.606 192.038 298.046 191.163 298.751 190.532C299.456 189.901 300.374 189.561 301.32 189.58ZM301 194.88C303 194.88 303.98 191.16 301.4 191.04C298.26 190.92 298.18 194.82 301 194.88V194.88Z" fill="#000001"/>
<path d="M298.62 229.8C298.684 229.728 298.765 229.673 298.855 229.64C298.945 229.607 299.043 229.597 299.138 229.611C299.233 229.625 299.323 229.662 299.401 229.719C299.478 229.777 299.539 229.853 299.58 229.94C299.678 230.115 299.739 230.308 299.759 230.508C299.78 230.707 299.76 230.909 299.7 231.1C298.5 235.1 295.04 238.48 291.94 238.86C291.74 238.86 291.66 238.86 291.5 238.66C291.415 238.589 291.358 238.49 291.34 238.38C291.34 238.26 291.34 237.84 291.46 237.78C294.588 236.181 297.021 233.492 298.3 230.22C298.384 230.064 298.492 229.922 298.62 229.8V229.8Z" fill="#000001"/>
<path d="M299.06 196.6C299.2 197.84 299.06 197.92 298.24 198.8C298.176 198.864 298.09 198.899 298 198.899C297.91 198.899 297.824 198.864 297.76 198.8V198.8C297.34 198.32 297.22 198.3 298.46 196.46C298.67 196.445 298.879 196.494 299.06 196.6V196.6Z" fill="#000001"/>
<path d="M296.74 200C296.96 200 297.16 200.3 297.48 200.6C297.527 200.648 297.552 200.713 297.552 200.78C297.552 200.847 297.527 200.912 297.48 200.96L296.42 202.22C296.37 202.273 296.309 202.315 296.242 202.343C296.175 202.372 296.103 202.387 296.03 202.387C295.957 202.387 295.885 202.372 295.818 202.343C295.751 202.315 295.69 202.273 295.64 202.22V202.22C295.514 202.125 295.423 201.992 295.38 201.84C295.3 201.26 296.32 200 296.74 200Z" fill="#000001"/>
<path d="M295.12 203.8C295.332 203.963 295.474 204.201 295.515 204.466C295.556 204.73 295.493 205 295.34 205.22C294.32 206.7 293.94 207.36 293.46 206.98C292.98 206.6 293.04 206.24 294.46 203.94C294.547 203.859 294.655 203.804 294.771 203.779C294.887 203.755 295.008 203.762 295.12 203.8Z" fill="#000001"/>
<path d="M292.56 208.72C292.737 208.838 292.867 209.016 292.926 209.221C292.984 209.426 292.968 209.646 292.88 209.84C292.2 211.06 291.84 211.84 291.18 211.5C290.52 211.16 291.68 208.4 292.56 208.72Z" fill="#000001"/>
<path d="M290.32 213.02C290.474 213.11 290.598 213.242 290.68 213.4C290.753 213.495 290.793 213.611 290.793 213.73C290.793 213.849 290.753 213.965 290.68 214.06C289.66 215.7 289.1 216.72 288.68 216.2C288.26 215.68 288.34 215.28 289.66 213.22C289.747 213.138 289.852 213.078 289.967 213.043C290.081 213.008 290.202 213.001 290.32 213.02Z" fill="#000001"/>
<path d="M290.94 229.46C290.76 232.2 290.7 231.46 286.94 232.56C285.36 233 285.3 232.1 284.54 227.8C284.24 226.08 284.54 226.7 280.32 229.32C278.76 230.3 278.96 229.56 277.38 226.38C276.7 225.04 276.76 225.48 287.12 217.46C288.68 216.3 289.22 217.32 290.94 229.46ZM286.94 230.94C290.58 230.36 289.92 230.78 287.74 219.94C287.46 218.46 287.6 219.08 279.98 224.98C278.74 225.96 278.72 225.9 279.52 227.32C279.78 227.8 279.96 227.8 280.38 227.5C285.8 223.64 285.2 223.84 286.52 230.18C286.52 230.46 286.78 230.96 286.88 230.94H286.94Z" fill="#000001"/>
<path d="M282.4 186.76C283.156 186.832 283.861 187.176 284.383 187.727C284.905 188.279 285.21 189.001 285.24 189.76C285.15 190.63 284.766 191.443 284.152 192.065C283.537 192.686 282.729 193.08 281.86 193.18C281.1 193.08 280.406 192.697 279.917 192.108C279.427 191.518 279.178 190.765 279.22 190C279.359 189.201 279.738 188.464 280.306 187.885C280.874 187.307 281.604 186.914 282.4 186.76ZM283.74 189.7C283.74 189.16 282.98 188.24 282.38 188.26C282.13 188.27 281.884 188.33 281.657 188.437C281.43 188.544 281.227 188.694 281.059 188.881C280.891 189.067 280.762 189.285 280.68 189.522C280.598 189.759 280.564 190.01 280.58 190.26C280.622 190.672 280.791 191.06 281.063 191.372C281.336 191.683 281.698 191.903 282.1 192C282.608 191.885 283.056 191.587 283.359 191.163C283.661 190.739 283.797 190.218 283.74 189.7V189.7Z" fill="#000001"/>
<path d="M280 216.3C281.22 218.6 281.28 219 281.12 219.46C281.066 219.593 280.964 219.7 280.834 219.759C280.703 219.819 280.555 219.826 280.42 219.78C279.82 219.56 279.72 219.04 278.8 217.02C278.42 216.32 279.28 215.24 280 216.3Z" fill="#000001"/>
<path d="M278.84 212.44C278.933 212.67 278.938 212.926 278.853 213.159C278.768 213.391 278.599 213.584 278.38 213.7C278.208 213.697 278.04 213.652 277.89 213.568C277.74 213.485 277.613 213.365 277.52 213.22C276.28 210.58 276.26 210.04 276.78 209.48C277.3 208.92 278.18 210.92 278.84 212.44Z" fill="#000001"/>
<path d="M274.8 203.12C275.289 204.04 275.691 205.005 276 206C276.037 206.177 276.01 206.361 275.924 206.519C275.838 206.678 275.698 206.801 275.53 206.866C275.361 206.931 275.175 206.934 275.005 206.874C274.835 206.814 274.691 206.696 274.6 206.54C274.4 206.12 274.1 205.36 273.4 203.76C273.351 203.664 273.325 203.558 273.325 203.45C273.325 203.342 273.351 203.236 273.4 203.14C273.54 202.94 273.68 202.74 273.82 202.74C274.002 202.713 274.189 202.733 274.36 202.8C274.532 202.867 274.684 202.977 274.8 203.12V203.12Z" fill="#000001"/>
<path d="M273.74 219.74C273.837 219.726 273.936 219.735 274.029 219.767C274.121 219.798 274.205 219.851 274.274 219.921C274.342 219.992 274.393 220.077 274.422 220.171C274.451 220.264 274.457 220.364 274.44 220.46C273.516 221.781 272.839 223.258 272.44 224.82C272 227.12 272.94 228.98 272.02 229.08C271.1 229.18 270.38 226.58 271.14 224.14C272 221.34 272.22 220 273.74 219.74Z" fill="#000001"/>
<path d="M273.58 198.62C273.677 198.835 273.693 199.077 273.623 199.302C273.552 199.527 273.402 199.719 273.2 199.84C273.064 199.872 272.921 199.867 272.787 199.824C272.653 199.782 272.533 199.705 272.44 199.6C271.1 196.74 270.62 195.72 271.34 195.38C272.06 195.04 272.24 195.7 273.58 198.62Z" fill="#000001"/>
<path d="M270.1 189.76C270.66 190.94 271.66 193 270.76 193.12C269.86 193.24 269.82 192.66 269.08 190.9C268.992 190.669 268.977 190.416 269.038 190.176C269.099 189.936 269.232 189.721 269.42 189.56C269.541 189.532 269.667 189.535 269.786 189.571C269.906 189.606 270.014 189.671 270.1 189.76Z" fill="#000001"/>
<path d="M266.46 177.3C267.071 177.374 267.655 177.599 268.159 177.953C268.663 178.307 269.071 178.78 269.348 179.33C269.626 179.881 269.762 180.491 269.747 181.106C269.732 181.722 269.564 182.324 269.26 182.86C268.66 183.566 267.833 184.042 266.921 184.206C266.009 184.37 265.069 184.212 264.26 183.76C263.595 183.498 263.036 183.021 262.674 182.405C262.311 181.789 262.166 181.069 262.26 180.36C262.38 178 265.36 177.1 266.46 177.3ZM268.46 181.06C268.386 180.517 268.158 180.007 267.804 179.589C267.45 179.171 266.983 178.862 266.46 178.7C265.999 178.616 265.524 178.67 265.093 178.855C264.663 179.04 264.296 179.348 264.04 179.74C262.64 181.48 264.2 182.74 265.94 182.98C266.233 183.034 266.535 183.026 266.825 182.957C267.115 182.888 267.388 182.758 267.625 182.578C267.862 182.397 268.059 182.168 268.203 181.907C268.347 181.646 268.434 181.357 268.46 181.06Z" fill="#000001"/>
<path d="M268.32 185.26C268.68 185.76 269.52 187.12 269.04 187.52C268.56 187.92 268.02 187.32 267.32 186.24C267.198 186.061 267.143 185.844 267.165 185.628C267.186 185.412 267.284 185.211 267.44 185.06C267.68 184.84 268 184.76 268.32 185.26Z" fill="#000001"/>
<path d="M266 222.4C266.14 220.14 266.74 217.84 268.48 217.8C268.589 217.794 268.698 217.82 268.794 217.873C268.889 217.926 268.968 218.006 269.02 218.102C269.073 218.199 269.097 218.308 269.089 218.417C269.082 218.526 269.044 218.631 268.98 218.72C268.12 219.53 267.604 220.64 267.54 221.82C267.041 224.017 267.166 226.31 267.9 228.44C267.919 228.549 267.914 228.66 267.887 228.767C267.859 228.874 267.809 228.974 267.74 229.06C267.451 229.049 267.173 228.946 266.946 228.766C266.72 228.586 266.556 228.339 266.48 228.06C266.026 226.21 265.864 224.3 266 222.4Z" fill="#000001"/>
<path d="M261.38 194.62C264.52 196.06 265.2 196.62 264.74 197.76C260.74 207.34 261.02 206.1 259.92 207.04C257.64 206.18 255.1 205.66 255.78 204.08C260 194.32 260.14 194 261.38 194.62ZM260.02 204.76C264.02 196.06 264.02 197.64 261.06 196.1C260.02 197.68 261.3 195.36 257.86 202.64C256.86 204.74 256.96 204.64 258.88 205.08C259.42 205.22 259.76 205.32 260 204.76H260.02Z" fill="#000001"/>
<path d="M251.54 182C251.509 183.421 250.93 184.774 249.923 185.777C248.916 186.78 247.561 187.355 246.14 187.38C244.668 187.418 243.24 186.875 242.166 185.868C241.092 184.861 240.457 183.471 240.4 182C240 174.92 250.84 173.52 251.54 182ZM249.16 182C249.176 181.146 248.852 180.321 248.259 179.706C247.966 179.401 247.615 179.157 247.228 178.988C246.84 178.819 246.423 178.728 246 178.72C245.577 178.712 245.157 178.788 244.763 178.942C244.369 179.097 244.01 179.327 243.706 179.621C243.09 180.213 242.736 181.026 242.72 181.88C242.658 182.308 242.686 182.744 242.801 183.161C242.916 183.578 243.116 183.967 243.388 184.303C243.66 184.64 243.999 184.916 244.383 185.115C244.767 185.314 245.188 185.431 245.62 185.46C246.09 185.455 246.555 185.357 246.987 185.172C247.419 184.988 247.811 184.719 248.14 184.383C248.468 184.047 248.728 183.649 248.903 183.213C249.078 182.777 249.165 182.31 249.16 181.84V182Z" fill="#000001"/>
<path d="M240 201.8C242.6 203.08 241.18 207.02 238.58 207.24C236.58 206.62 237.88 207.24 228.58 203.08C225.82 201.8 226.96 198.62 228.58 197.62C229.72 196.9 230.16 196.92 240 201.8ZM238.28 205.8C239.26 206.24 239.9 203.62 239.54 203.4C239.18 203.18 230.66 199.22 229.98 199.1C229.694 199.088 229.413 199.184 229.195 199.369C228.976 199.555 228.835 199.816 228.8 200.1C228.752 200.372 228.773 200.651 228.86 200.913C228.947 201.175 229.099 201.411 229.3 201.6C232.181 203.218 235.183 204.609 238.28 205.76V205.8Z" fill="#000001"/>
<path d="M185.32 142.26C186.3 142.7 186.5 143.6 186.08 144.68C184.435 149.167 182.302 153.459 179.72 157.48C178.18 159.76 175.72 160.82 174.14 159.34C170.32 155.7 170.72 143.96 168.96 135.82C168.58 134.02 169.62 133.16 171.56 134.38C180 139.72 176.2 138 185.32 142.26ZM183.88 145.58C184.76 143.58 183.52 143.76 182.66 143.38C178.787 141.425 175.034 139.241 171.42 136.84C171.9 140.52 172.48 151.2 174.22 155.96C174.96 157.96 176.36 158.42 177.38 157.18C180.102 153.652 182.292 149.744 183.88 145.58V145.58Z" fill="#000001"/>
<path d="M178.66 108.42C179.96 108.94 179.94 110.72 179.54 112.06C179 113.8 176.3 114.06 176.08 111.24C176.5 109.88 176.76 107.68 178.66 108.42Z" fill="#000001"/>
<path d="M152.5 135.58C153.14 139.06 149.38 143.44 145.98 144.52C137.08 147.3 124.42 137.34 125.54 123.1C125.88 118.64 125.54 115.98 127.54 112.82C131.7 106.56 139.54 103.66 146.46 107.78C149.42 109.56 152.46 115.16 150.64 115.78C149.12 116.24 149.12 114.2 147.06 111.52C144 107.46 135.56 106.6 130 114C127.72 117.06 128 120.12 128 125.06C127.18 130.4 132 139.58 140.88 141.96C146.3 143.42 149.84 138.26 150 135.74C149.99 135.576 150.011 135.411 150.065 135.256C150.118 135.1 150.201 134.956 150.31 134.833C150.418 134.709 150.55 134.608 150.698 134.536C150.845 134.463 151.006 134.421 151.17 134.41C151.334 134.4 151.499 134.421 151.655 134.475C151.81 134.528 151.954 134.611 152.077 134.72C152.201 134.828 152.302 134.96 152.374 135.108C152.447 135.255 152.49 135.416 152.5 135.58Z" fill="#000001"/>
<path d="M146.76 121.72C148.2 125 144.3 126.86 143.48 128.52C143.286 128.892 143.185 129.305 143.186 129.725C143.188 130.144 143.291 130.557 143.488 130.928C143.685 131.298 143.97 131.615 144.317 131.85C144.664 132.086 145.063 132.234 145.48 132.28C145.787 132.355 146.057 132.538 146.241 132.796C146.424 133.054 146.509 133.368 146.48 133.683C146.451 133.998 146.31 134.292 146.082 134.512C145.855 134.732 145.556 134.862 145.24 134.88C142.04 135.42 137.44 129.74 143.24 124.4C144.4 123.36 144.32 123.18 143.7 121.76C140.52 114.82 136.02 116.22 134.9 119.1C134.583 120.088 134.336 121.097 134.16 122.12C134.56 122.12 134.42 124.12 133.68 124.12C133.42 124.12 132.58 123.86 132.44 123.46C130 116 140.36 107.3 146.76 121.72Z" fill="#000001"/>
<path d="M114.52 141.24C114.64 143.48 112.4 142.26 112.32 141.7C112.11 138.597 112.11 135.483 112.32 132.38C112.32 131.54 111.96 129.96 113.38 129.6C116 128.92 114.34 138.18 114.52 141.24Z" fill="#000001"/>
<path d="M107.38 142.56C107.38 145.18 104.26 144.14 103.24 140.78C101.24 134.28 100.18 135.72 100.46 133.98C100.68 132.54 102.02 132.86 102.58 133.4C104.76 135.48 104.26 136.36 107.38 142.56Z" fill="#000001"/>
<path d="M99.3801 144.2C99.1601 144.52 98.9801 145.1 98.6201 145.24C98.3793 145.319 98.1246 145.345 97.8728 145.318C97.621 145.29 97.378 145.209 97.1601 145.08C88.0801 138.14 92.7401 139.38 89.1601 133.08C88.2201 131.46 89.7201 130.52 90.9401 131.76C94.7001 135.64 91.3801 137.06 96.5601 140.84C97.4579 141.541 98.3065 142.303 99.1001 143.12C99.2001 143.3 99.2201 143.7 99.3801 144.2Z" fill="#000001"/>
<path d="M93.46 84.2C93.8 85.88 92.1 85.78 90.42 85.98C85.3 86.1 83.78 81.18 82.58 82.32C81.7161 82.5583 80.8062 82.5762 79.9336 82.372C79.061 82.1678 78.2536 81.7481 77.5851 81.1512C76.9166 80.5543 76.4084 79.7994 76.1071 78.9554C75.8057 78.1114 75.7208 77.2053 75.86 76.32C75.86 75.38 76.1 73.72 76.98 73.38C78.98 72.62 77.84 75.5 78 77.5C78.12 79.14 80.38 80.92 81.76 79.5C82.24 78.96 82.28 78 83.28 78C85.54 78 83.28 80.76 88.64 83.06C90.24 83.78 93.14 82.66 93.46 84.2Z" fill="#000001"/>
<path d="M87.64 145.4C87.8002 145.467 87.9457 145.565 88.0681 145.688C88.1905 145.811 88.2874 145.957 88.3533 146.118C88.4193 146.279 88.4529 146.451 88.4523 146.624C88.4518 146.798 88.417 146.97 88.35 147.13C88.2831 147.29 88.1852 147.436 88.062 147.558C87.9388 147.68 87.7927 147.777 87.6321 147.843C87.4714 147.909 87.2994 147.943 87.1257 147.942C86.9521 147.942 86.7802 147.907 86.62 147.84C82.76 146.52 83.08 144.02 82.5 141.04C81.92 138.06 79.28 137.04 77.64 135.82C74.4 133.6 75.38 129.6 77.02 129.82C78.3 129.82 78.02 131.4 78.02 131.36C77.48 134.8 82.32 133.7 84.44 138.74C85.78 141.82 84.84 144.28 87.64 145.4Z" fill="#000001"/>
</svg>
