<svg width="400" height="400" viewBox="0 0 400 400" fill="none" xmlns="http://www.w3.org/2000/svg">
<g clip-path="url(#clip0_902_8850)">
<path d="M341.022 147.17L337.88 146.214C337.077 145.967 336.255 145.784 335.422 145.668C332.422 145.268 329.412 146.896 326.954 148.126L326.134 146.486C326.816 146.086 327.5 145.804 328.318 145.394C326.992 143.95 325.93 142.286 325.178 140.476C324.674 139.311 324.032 138.21 323.266 137.198C322.703 136.38 321.974 135.691 321.127 135.174C320.279 134.657 319.333 134.324 318.348 134.198C317.913 134.166 317.477 134.236 317.074 134.402C316.671 134.568 316.312 134.825 316.026 135.154L315.89 135.29C316.026 137.473 316.026 139.663 315.89 141.846C315.89 141.846 314.114 141.984 314.114 141.71C314.25 139.071 314.25 136.427 314.114 133.788C313.435 132.504 312.438 131.416 311.218 130.627C309.999 129.838 308.597 129.374 307.148 129.28H305.644C304.686 129.371 303.721 129.325 302.776 129.144C298.268 128.324 296.356 123.27 295.264 119.582C294.172 115.758 292.532 111.796 289.264 110.982C288.406 110.822 287.537 110.731 286.664 110.708C284.616 110.708 282.43 110.572 281.202 108.66C280.673 107.598 280.392 106.43 280.382 105.244C280.467 104.282 280.226 103.32 279.698 102.512C279.288 101.966 278.332 101.83 277.514 101.556C276.343 101.372 275.251 100.85 274.372 100.054C273.59 99.1481 273.197 97.9701 273.278 96.776C272.859 93.7201 272.403 90.6692 271.912 87.624C271.366 84.624 270.956 81.478 270.684 79.424C268.634 82.566 268.224 86.938 267.684 90.624C267.138 94.72 265.908 99.224 262.22 101.278C261.7 101.563 261.151 101.791 260.582 101.96C261.128 104.418 261.812 107.014 262.494 109.472C262.63 109.746 262.63 110.018 262.768 110.156C263.007 110.327 263.292 110.421 263.586 110.428L271.236 112.068L271.372 112.468C272.314 115.171 273.6 117.741 275.198 120.116C275.351 120.408 275.589 120.646 275.88 120.8C276.154 120.936 276.562 120.664 277.11 120.526C277.382 120.39 277.656 120.39 277.928 120.254C280.928 119.434 283.666 121.892 285.168 124.76C285.453 125.281 285.682 125.831 285.852 126.4C286.452 128.246 287.536 129.896 288.992 131.18L288.036 132.684C286.158 131.31 284.808 129.333 284.212 127.084C283.938 126.538 283.812 125.992 283.53 125.582C282.436 123.396 280.53 121.348 278.476 121.894C278.27 121.929 278.079 122.024 277.928 122.168C277.561 122.385 277.152 122.522 276.728 122.569C276.304 122.616 275.875 122.572 275.47 122.44C274.849 122.137 274.328 121.663 273.968 121.074C272.372 118.747 271.086 116.222 270.144 113.562L263.45 112.06C262.869 111.927 262.315 111.696 261.812 111.376C261.426 111.019 261.183 110.533 261.128 110.01C260.446 107.552 259.762 105.094 259.216 102.636C258.101 102.993 257.139 103.714 256.484 104.684C255.827 106.09 255.636 107.669 255.938 109.192C256.21 112.606 256.484 115.884 256.758 119.3C256.87 120.039 256.775 120.795 256.484 121.484C256.011 122.044 255.398 122.468 254.708 122.714C251.93 124.113 249.467 126.065 247.47 128.45C247.665 129.211 248.039 129.914 248.562 130.5C249.331 131.32 250.261 131.971 251.294 132.412C251.671 132.566 252.036 132.748 252.386 132.958C254.63 134.387 256.655 136.136 258.396 138.148C258.796 137.748 259.216 137.192 259.626 136.782C261.221 135.316 263.073 134.158 265.09 133.368C267.035 132.376 269.188 131.861 271.372 131.866C271.236 132.002 271.1 132.266 270.962 132.412H271.1C272.19 136.405 273.84 140.223 276 143.754C276.075 143.828 276.123 143.924 276.138 144.028H276.41C277.856 143.8 279.319 143.709 280.782 143.754C281.342 143.711 281.904 143.805 282.42 144.028C283.056 144.421 283.613 144.931 284.06 145.53C287.072 149.661 290.358 153.586 293.894 157.278L292.664 158.506C289.083 154.769 285.753 150.799 282.694 146.624C282.486 146.211 282.151 145.876 281.738 145.668C281.435 145.545 281.107 145.497 280.782 145.53C279.41 145.485 278.037 145.576 276.684 145.804C276.225 145.889 275.751 145.841 275.318 145.668C274.98 145.468 274.698 145.186 274.498 144.848C272.439 141.573 270.831 138.035 269.718 134.33C264.669 141.97 261.831 150.858 261.518 160.01C249.834 163.79 237.248 163.742 225.594 159.872C214.12 156.048 205.378 147.852 198.276 138.018C201.144 132.418 203.876 126.954 206.744 121.354C207.289 120.08 208.133 118.955 209.204 118.076C209.892 117.727 210.635 117.499 211.4 117.4C215.202 116.762 219.088 116.809 222.874 117.538C224.786 113.44 226.016 110.024 229.704 107.43C231.726 106.202 233.825 105.108 235.988 104.152C237.548 103.311 239.013 102.306 240.358 101.152C235.304 91.318 237.49 76.976 245.958 68.098C250.11 63.8865 255.323 60.8758 261.046 59.3848C266.769 57.8938 272.789 57.9778 278.468 59.628C282.446 60.6508 286.14 62.5659 289.268 65.228C292.314 68.0061 294.721 71.4114 296.325 75.2093C297.928 79.0073 298.69 83.1076 298.556 87.228C298.365 95.2962 295.426 103.058 290.224 109.228C294.048 110.456 295.824 114.692 297.054 118.788C298.01 122.066 299.654 126.438 303.2 127.12C304.014 127.258 304.844 127.258 305.658 127.12H307.434C309.216 127.216 310.943 127.77 312.449 128.727C313.955 129.684 315.19 131.012 316.034 132.584C316.856 132.089 317.808 131.851 318.766 131.902C320.013 132.042 321.217 132.442 322.299 133.077C323.382 133.713 324.318 134.569 325.048 135.59C325.811 136.725 326.496 137.912 327.098 139.14C327.881 140.966 328.992 142.633 330.376 144.058C332.14 143.303 334.07 143.02 335.976 143.238C336.905 143.385 337.819 143.614 338.708 143.922L341.85 144.878C348.613 147.023 355.501 148.757 362.474 150.068C362.451 149.518 362.498 148.968 362.612 148.43C341.712 136.546 303.194 114.554 296.774 110.456L297.73 108.954C303.878 112.916 341.304 134.354 362.474 146.38C361.518 136.682 353.596 128.896 348.406 120.292C346.62 117.313 345.155 114.153 344.034 110.866L301.556 100.076L301.956 98.3L342.934 109.5C340.855 102.839 339.527 95.9675 338.974 89.012L303.596 89.412V87.636L338.7 87.236C338.154 80.544 337.744 73.85 337.198 67.294L302.912 78.358L302.366 76.718L337.06 65.518V64.8C336.596 58.9434 335.262 53.1887 333.1 47.726C321.352 54.146 310.836 60.156 298.816 67.668L297.86 66.166C310.016 58.652 320.534 52.506 332.28 46.086C329.163 38.8924 323.598 33.0363 316.572 29.558C307.83 39.394 299.498 49.228 290.892 59.608L289.528 58.516C298.128 48.272 306.328 38.574 314.928 28.74C306.85 25.7177 298.059 25.1472 289.658 27.1C289.384 27.1 288.974 27.236 288.702 27.236C285.834 36.388 282.964 45.54 280.232 54.692L278.594 54.146C281.194 45.266 283.92 36.524 286.794 27.646C280.1 29.15 273.27 31.062 266.304 33.246C266.714 40.076 266.988 46.906 266.988 53.598H265.212C265.076 47.042 264.938 40.35 264.528 33.656C258.246 35.568 251.962 37.618 245.68 39.53C248.039 45.8742 250.315 52.2487 252.508 58.652L250.87 59.2C248.684 52.78 246.362 46.496 244.04 40.076C237.62 41.988 231.2 43.628 224.64 44.994C230.66 52.2622 236.49 59.6861 242.124 67.258L240.758 68.35C235.022 60.566 228.874 52.916 222.728 45.404C212.975 47.3736 202.971 47.788 193.088 46.632C181.888 45.13 171.37 40.486 160.58 37.208C143.78 32.018 124.656 30.242 109.22 38.71C96.66 45.682 88.6 58.658 77.538 67.946C64.834 78.6 47.624 85.294 40.384 100.32C32.052 117.256 42.844 134.33 52 148.4C63.062 165.61 78.77 179.268 95.436 190.878C106.226 198.392 117.562 205.078 127.808 213.278C132.671 217.116 137.195 221.366 141.33 225.98C145.018 230.216 147.612 237.318 151.848 240.87C159.906 247.562 179.712 242.644 189.956 243.328C206.194 244.402 222.243 247.428 237.756 252.342C239.336 253.083 241.131 253.225 242.808 252.742C244.497 251.846 245.771 250.327 246.36 248.508C251.55 238.264 256.194 224.742 263.98 216.546C273.406 206.712 285.98 200.292 298.402 195.102C314.93 188.272 332.276 183.082 346.754 172.702C353.72 167.648 360.414 160.682 361.916 152.486C354.851 151.133 347.874 149.358 341.022 147.17ZM188.314 45.82L234.618 78.328L233.662 79.83L187.22 47.322L188.314 45.82ZM232.714 87.48V89.256L178.486 90.894V89.118L232.714 87.48ZM156.624 135.422L155.804 133.784C181.48 120.477 207.988 108.843 235.164 98.954L235.71 100.592C208.681 110.625 182.273 122.255 156.624 135.422Z" fill="#14D29B"/>
<path d="M243.222 134.876C240.991 139.814 239.341 144.994 238.306 150.312C239.408 151.044 240.686 151.467 242.007 151.538C243.329 151.608 244.644 151.323 245.818 150.712C248.121 149.363 250.155 147.6 251.818 145.512C253.456 143.738 255.096 141.962 256.598 140.05C255.039 138.053 253.144 136.342 250.998 134.996C250.598 134.858 250.316 134.596 249.906 134.448C248.671 133.897 247.558 133.108 246.628 132.126C246.231 131.68 245.908 131.173 245.672 130.624C244.862 132 244.042 133.374 243.222 134.876ZM273.546 87.752C274.092 91.304 274.776 94.856 274.912 97.04C274.953 97.857 275.187 98.6527 275.594 99.362C276.004 99.91 276.96 100.046 277.78 100.32C278.917 100.48 279.97 101.008 280.78 101.822C281.593 102.924 281.98 104.281 281.872 105.646C281.759 106.549 281.951 107.465 282.418 108.246C283.102 109.338 284.74 109.474 286.516 109.474C287.156 109.456 287.797 109.502 288.428 109.612C293.735 103.659 296.738 96.0038 296.896 88.03C297.003 84.1263 296.278 80.2445 294.772 76.6418C293.265 73.039 291.01 69.7975 288.156 67.132C285.172 64.6548 281.671 62.8779 277.91 61.932C272.497 60.348 266.755 60.261 261.297 61.6803C255.838 63.0995 250.866 65.972 246.91 69.992C239.262 78.192 236.94 91.71 241.446 100.992C243.222 99.49 244.862 97.85 246.646 96.348C254.139 90.0203 262.132 84.3103 270.548 79.274V78.864L272.324 78.728C272.552 81.7576 272.96 84.771 273.546 87.752Z" fill="#14D29B"/>
<path d="M359.188 367.628C358.368 354.242 357.276 340.028 349.08 329.518C343.754 322.69 336.104 318.182 328.182 314.768C303.732 304.25 276.414 303.02 249.916 302.884C197.328 302.61 143.238 306.436 95.158 328.016C82.182 333.89 69.758 340.992 59.508 350.828C49.258 360.664 41.478 373.364 39.292 387.428C65.928 379.096 94.474 382.238 122.202 385.788C149.93 389.338 177.522 394.804 205.386 394.666C218.09 394.53 230.656 393.302 243.36 391.936C283.926 387.57 321.9 384.428 359.188 367.628Z" fill="#FDB849"/>
<path d="M70.434 377.326C80.68 363.526 95.834 354.652 109.09 344.126C115.678 339.247 121.442 333.344 126.164 326.642C128.555 323.116 130.398 319.247 131.628 315.168C119.172 318.546 106.983 322.837 95.158 328.008C82.182 333.882 69.758 340.984 59.508 350.82C49.258 360.656 41.478 373.356 39.292 387.42C48.3853 384.626 57.7908 382.974 67.292 382.502C68.0944 380.639 69.1519 378.897 70.434 377.326ZM349.08 329.382C343.754 322.552 336.104 318.046 328.182 314.63C325.182 313.402 322.182 312.172 319.168 311.216C318.759 313.92 318.072 316.575 317.118 319.138C323.263 321.686 328.941 325.241 333.918 329.656C339.363 334.436 343.817 340.236 347.03 346.73C347.14 346.921 347.184 347.142 347.155 347.36C347.127 347.579 347.027 347.781 346.871 347.937C346.715 348.093 346.513 348.193 346.294 348.221C346.076 348.25 345.855 348.206 345.664 348.096C344.417 347.279 343.089 346.592 341.702 346.046C335.74 343.759 329.368 342.738 322.99 343.046C316.988 342.987 311.069 344.443 305.78 347.28C300.862 350.148 296.492 353.836 291.438 356.704C289.057 358.154 286.481 359.258 283.788 359.982C280.931 360.689 277.978 360.92 275.046 360.666C260.846 359.846 246.646 357.388 232.43 358.344C218.63 359.3 204.018 364.218 194.322 374.188C189.103 379.715 185.018 386.213 182.3 393.312C189.972 394.039 197.678 394.358 205.384 394.268C218.088 394.13 230.654 392.902 243.358 391.536C284.062 387.438 322.034 384.296 359.324 367.358C358.368 354.242 357.276 340.036 349.08 329.382Z" fill="#FFD340"/>
<path d="M198.83 74.776C199.054 80.3836 197.527 85.9219 194.46 90.622C193.478 92.3368 192.003 93.7166 190.226 94.582C189.54 94.8987 188.76 94.9472 188.04 94.718C186.81 94.318 186.128 92.806 185.718 91.578C183.396 84.612 180.254 72.592 184.488 65.624C185.281 64.2815 186.558 63.2932 188.057 62.8615C189.555 62.4298 191.162 62.5874 192.548 63.302C197.054 65.216 198.694 70.268 198.83 74.776Z" fill="#F9BDB4"/>
<path d="M193.366 68.084C191.787 72.1057 190.82 76.3415 190.498 80.65C191.714 79.9334 193.061 79.4688 194.46 79.284C191.063 82.661 188.329 86.6452 186.4 91.03C186.948 89.664 185.308 85.43 185.308 83.792C185.348 82.0664 185.671 80.3591 186.264 78.738C187.626 74.6107 190.08 70.9292 193.366 68.084Z" fill="#EF6767"/>
<path d="M171.512 143.482C162.634 149.082 152.112 148.946 142.692 145.53C146.046 138.618 147.417 130.911 146.652 123.266C150.34 119.442 156.35 118.066 164.82 120.124C167.976 126.883 172.709 132.786 178.62 137.336C176.616 139.773 174.213 141.851 171.512 143.482Z" fill="#F9BDB4"/>
<path d="M161.95 132.692C159.095 133.402 156.091 133.21 153.35 132.144C151.117 131.305 148.931 130.347 146.8 129.276C146.8 127.364 146.8 125.452 146.662 123.266C150.35 119.442 156.36 118.066 164.83 120.124C165.856 122.189 166.996 124.195 168.244 126.134C167.699 127.599 166.859 128.937 165.777 130.065C164.694 131.193 163.392 132.087 161.95 132.692Z" fill="black"/>
<path d="M178.888 42.4C183.46 53.1228 186.717 64.36 188.586 75.866C190.226 86.246 192.274 99.496 187.766 109.33C184.643 115.585 179.351 120.489 172.878 123.13C164.166 126.598 154.769 128.001 145.424 127.228C138.742 127.031 132.291 124.738 126.984 120.672C121.656 116.3 118.652 109.872 115.51 104.006C111.438 96.3655 107.966 88.4195 105.128 80.24C101.442 69.04 98.3 53.6 102.8 42.132C104.951 36.943 108.184 32.2728 112.284 28.4331C116.384 24.5934 121.255 21.6726 126.574 19.866C139.96 15.496 153.756 18.5 165.23 26.014C171.262 30.0573 176.003 35.7503 178.888 42.414" fill="#F9BDB4"/>
<path d="M142 84.748C139.772 85.6193 137.492 86.3494 135.172 86.934C132.917 87.3237 130.631 87.5065 128.342 87.48C127.143 87.5391 125.943 87.4006 124.79 87.07C128.614 90.348 132.44 92.27 136.39 91.578C138.625 91.1564 140.715 90.1693 142.461 88.7108C144.207 87.2522 145.55 85.3708 146.362 83.246C144.878 83.928 143.512 84.064 142 84.748Z" fill="white"/>
<path d="M142 84.748C139.833 85.6181 137.598 86.3046 135.316 86.8C135.034 88.4243 134.623 90.0234 134.086 91.582C134.9 91.718 135.73 91.718 136.544 91.582C138.78 91.1608 140.87 90.1738 142.616 88.7152C144.361 87.2566 145.704 85.375 146.516 83.25C144.878 83.928 143.512 84.064 142 84.748Z" fill="black"/>
<path d="M157.854 99.772C157.99 90.212 157.034 85.972 154.438 75.322C160.586 88.026 164.41 89.938 168.238 93.216C164.641 95.1779 161.172 97.3677 157.854 99.772Z" fill="#EF6767"/>
<path d="M103.9 84.064C101.168 83.382 97.754 83.246 95.84 85.294C94.9308 86.3145 94.4005 87.6167 94.338 88.982C94.2796 91.1113 94.662 93.2297 95.4612 95.2042C96.2603 97.1787 97.459 98.9667 98.982 100.456C104.07 106.036 111.01 109.579 118.514 110.426C119.457 110.645 120.439 110.623 121.371 110.36C122.303 110.097 123.153 109.603 123.842 108.924C124.444 107.991 124.731 106.89 124.662 105.782C124.315 102.446 123.037 99.2757 120.974 96.632C116.33 90.348 111.686 85.976 103.9 84.064Z" fill="#F9BDB4"/>
<path d="M118.652 103.734C113.734 92.67 106.768 90.622 100.076 88.298C104.637 91.114 108.737 94.6157 112.232 98.68C109.777 98.3122 107.268 98.6435 104.992 99.636C109.91 100.456 111.548 101.276 118.652 103.734Z" fill="#EF6767"/>
<path d="M158.4 67.4C162.127 65.1878 166.261 63.7479 170.556 63.166C174.86 62.641 179.199 62.4584 183.532 62.62C181.138 60.3771 178.155 58.8609 174.932 58.248C172.951 57.9081 170.94 57.7741 168.932 57.848C164.626 57.6886 160.326 58.2891 156.228 59.622C157.282 62.111 158.012 64.725 158.4 67.4ZM145.15 69.86C140.848 69.0367 136.417 69.1732 132.174 70.26C127.968 71.2767 123.855 72.6476 119.88 74.358C121.294 71.388 123.52 68.8787 126.3 67.12C128.015 66.0816 129.85 65.2556 131.764 64.66C135.71 62.9854 139.919 62.0173 144.2 61.8C144.306 64.5073 144.624 67.2022 145.15 69.86ZM152.936 112.476C149.319 112.515 145.798 111.309 142.964 109.06L144.468 107.148C151.844 112.886 161.268 109.198 167.278 104.28L168.78 106.056C164.354 109.889 158.782 112.147 152.936 112.476Z" fill="black"/>
<path d="M112.778 58.8C119.062 60.438 125.754 57.844 131.082 54.018C136.41 50.192 140.642 45.14 145.56 41.042C150.614 36.944 156.76 33.53 163.316 34.076C170.42 34.622 176.43 39.95 179.844 46.232C182.951 52.6309 184.938 59.5154 185.718 66.586C191.182 57.986 195.962 50.33 201.426 41.726C203.858 38.5259 205.454 34.77 206.07 30.798C206.246 28.6016 205.802 26.3999 204.788 24.4437C203.774 22.4875 202.231 20.8556 200.334 19.734C194.734 16.592 187.494 19.188 182.03 22.602C181.21 17.958 180.8 12.222 178.478 8.12399C176.156 4.02599 172.332 0.469995 167.552 0.0619953C161 -0.622005 155.532 4.568 150.068 8.12C143.735 12.184 136.417 14.4502 128.896 14.676C121.93 14.95 114.964 13.31 108.134 12.628C101.168 11.944 93.792 12.218 87.782 15.77C81.772 19.322 77.674 26.832 80 33.526C81.0941 36.2239 82.8287 38.6148 85.054 40.492C87.6908 43.0087 90.6818 45.1259 93.932 46.776C89.2426 47.7903 85.1395 50.6067 82.5072 54.618C79.8749 58.6293 78.9242 63.5143 79.86 68.22C80.1181 69.6842 80.6757 71.0793 81.498 72.318C83.82 75.596 88.192 76.416 92.152 77.372C100.622 79.42 109.09 83.928 112.778 91.85C116.74 81.06 115.646 69.722 112.778 58.8Z" fill="#EF6767"/>
<path d="M124.116 87.48C126.574 83.246 132.038 78.602 135.862 78.192C137.884 78.0826 139.902 78.4741 141.737 79.3316C143.572 80.1892 145.167 81.4863 146.38 83.108C139.348 86.1132 131.762 87.6029 124.116 87.48Z" fill="#EF6767"/>
<path d="M120.836 86.8C130.099 87.006 139.318 85.4771 148.018 82.292C144.273 85.3649 139.808 87.4332 135.042 88.302C130.257 89.0627 125.356 88.5445 120.836 86.8Z" fill="black"/>
<path d="M179.298 77.918C177.07 78.7899 174.788 79.5201 172.468 80.104C170.213 80.4947 167.927 80.6775 165.638 80.65C164.44 80.7091 163.241 80.5706 162.088 80.24C165.912 83.518 169.736 85.44 173.698 84.748C175.933 84.327 178.024 83.3401 179.769 81.8814C181.514 80.4228 182.857 78.5411 183.668 76.416C182.166 77.098 180.8 77.236 179.298 77.918Z" fill="white"/>
<path d="M179.298 77.918C177.127 78.7879 174.886 79.473 172.6 79.966C172.318 81.5903 171.907 83.1894 171.37 84.748C172.184 84.884 173.014 84.884 173.828 84.748C176.064 84.3268 178.154 83.3398 179.9 81.8812C181.645 80.4226 182.988 78.541 183.8 76.416C182.166 77.098 180.8 77.236 179.298 77.918Z" fill="black"/>
<path d="M161.4 80.65C163.86 76.416 169.322 71.772 173.148 71.362C175.17 71.253 177.188 71.6446 179.022 72.5021C180.856 73.3597 182.451 74.6566 183.664 76.278C176.632 79.2836 169.046 80.7734 161.4 80.65Z" fill="#EF6767"/>
<path d="M158.126 80.104C167.388 80.3102 176.607 78.7826 185.308 75.6C181.562 78.6682 177.096 80.7329 172.332 81.6C167.546 82.2936 162.663 81.7793 158.126 80.104Z" fill="black"/>
<path d="M173.97 278.024C160.135 274.786 147.026 268.996 135.316 260.95C131.662 258.683 128.541 255.655 126.164 252.072C123.164 246.882 123.164 240.598 123.296 234.588C123.428 228.578 123.568 222.568 123.696 216.558C123.968 202.49 123.558 188.83 125.608 174.898C126.196 169.401 127.577 164.018 129.706 158.916C131.878 153.751 135.727 149.468 140.632 146.76C142.408 150.038 145.832 150.722 149.512 150.994C153.201 150.922 156.852 150.23 160.312 148.946C168.644 146.346 177.796 143.208 182.302 135.56C200.06 145.804 218.364 158.234 226.422 177.084C231.612 189.104 232.158 202.626 234.48 215.466C235.845 222.749 237.764 229.918 240.218 236.91C241.584 240.872 243.218 244.832 243.086 248.93C242.95 256.032 237.886 262.18 232.286 266.688C215.494 280.072 194.732 282.942 173.97 278.024Z" fill="#9778FF"/>
<path d="M144.33 182.274C143.631 182.769 143.154 183.518 143.001 184.361C142.848 185.204 143.032 186.073 143.512 186.782L177.512 235.68L182.292 238.55L182.692 239.096C182.824 239.284 183.023 239.414 183.248 239.458C183.473 239.503 183.707 239.459 183.901 239.336C184.094 239.213 184.233 239.02 184.288 238.797C184.343 238.575 184.31 238.339 184.196 238.14L183.796 237.594L182.84 232.13L148.838 183.23C148.625 182.849 148.333 182.518 147.982 182.259C147.63 182.001 147.228 181.82 146.801 181.729C146.374 181.639 145.933 181.641 145.507 181.735C145.08 181.828 144.679 182.012 144.33 182.274Z" fill="white"/>
<path d="M144.626 188.988L150.57 184.854L152.364 187.434L146.42 191.566L144.626 188.988Z" fill="black"/>
<path d="M146.38 229.534L151.706 214.372C152.719 211.024 154.141 207.813 155.94 204.812C159.082 199.612 164 195.932 168.918 192.244C170.578 190.746 172.603 189.711 174.79 189.244C175.891 189.073 177.016 189.332 177.931 189.968C178.847 190.603 179.483 191.567 179.708 192.658C180.658 192.639 181.591 192.918 182.375 193.456C183.158 193.994 183.754 194.764 184.078 195.658C184.328 196.593 184.375 197.571 184.216 198.526C184.216 199.892 184.078 201.258 184.078 202.624C184.898 202.488 185.444 203.306 185.718 204.126C185.945 204.938 185.897 205.802 185.582 206.584C185.315 207.682 184.901 208.739 184.352 209.726C184.626 213.414 185.172 217.24 185.444 220.926C184.571 220.9 183.717 220.663 182.956 220.234C182.195 219.806 181.549 219.199 181.074 218.466C180.15 216.988 178.823 215.803 177.25 215.052C177.1 214.984 176.937 214.949 176.772 214.949C176.607 214.949 176.444 214.984 176.294 215.052C175.884 215.188 175.746 215.598 175.474 216.008C173.014 222.008 171.24 228.71 166.322 233.082C163.719 235.367 160.477 236.797 157.034 237.18C154.458 237.539 151.839 236.957 149.658 235.54C147.472 234.042 145.56 232 146.38 229.534Z" fill="#F9BDB4"/>
<path d="M112.504 328.29C110.456 333.48 105.266 336.622 100.348 339.354C93.108 343.314 85.596 346.73 78.904 351.646C72.0251 356.248 66.6937 362.817 63.606 370.496C62.4068 373.485 62.0755 376.753 62.65 379.922C62.8885 381.503 63.4946 383.007 64.4196 384.311C65.3446 385.616 66.5626 386.686 67.976 387.434C72.074 389.482 76.992 387.98 81.088 386.204C97.488 379.102 111.958 367.902 128.888 362.3C131.074 358.612 130.936 354.652 131.756 350.418C132.847 346.044 133.125 341.507 132.576 337.032C132.293 334.791 131.523 332.639 130.319 330.728C129.116 328.816 127.508 327.192 125.61 325.968C121.8 323.646 114.144 324.2 112.504 328.29Z" fill="#643CFF"/>
<path d="M296.494 296.874C302.416 297.557 308.238 298.932 313.84 300.972C319.85 303.156 325.86 306.572 328.456 312.446C331.188 318.864 328.728 326.514 323.948 331.568C319.168 336.622 312.474 339.216 305.782 340.992C293.898 344.134 281.468 344.818 269.312 345.91C261.526 346.592 253.74 347.686 245.954 348.642C220.822 351.921 195.735 355.521 170.692 359.442C168.092 359.842 164.41 359.58 163.864 356.984C163.751 356.289 163.846 355.576 164.136 354.934C168.918 338.134 183.396 325.842 198.694 317.508C226.694 302.074 259.34 296.2 291.44 296.61C292.4 296.6 295.4 296.738 296.494 296.874Z" fill="#FF465A"/>
<path d="M291.166 294.142C274.638 289.362 258.248 289.362 241.31 291.41C232.432 292.502 218.772 290.454 218.91 278.708C218.91 271.74 219.592 265.048 222.46 259.584C205.25 262.184 192.548 270.784 175.2 271.74C167.414 272.14 159.766 269.282 152.4 266.414C148.576 264.912 145.296 264.092 141.472 262.726C129.306 302.2 95.568 333.616 89.558 374.6C88.6506 381.344 88.4215 388.162 88.874 394.952C93.2607 394.266 97.686 393.856 102.124 393.722C120.428 393.176 138.458 396.592 156.488 399.05C159.088 399.46 161.678 399.732 164.41 400.006C164.016 390.947 164.657 381.873 166.322 372.96C170.01 354.112 179.844 335.808 195.826 325.018C229.29 302.344 276.004 297.29 309.606 299.748C303.732 296.464 296.766 295.644 291.166 294.142Z" fill="#D70A32"/>
<path d="M90.24 253.984C89.012 265.322 88.056 277.478 93.24 287.722C93.659 288.83 94.3166 289.833 95.1661 290.659C96.0156 291.485 97.0363 292.114 98.156 292.502C101.708 293.322 104.576 289.902 106.626 286.902C118.285 268.873 125.019 248.106 126.158 226.666C126.278 225.746 126.184 224.812 125.884 223.934C125.066 222.022 122.744 221.476 120.694 221.066C114.548 220.11 99.25 215.066 95.426 221.886C93.24 225.846 92.966 232.13 92.284 236.5C91.6 242.374 90.924 248.248 90.24 253.984Z" fill="#EF6767"/>
<path d="M111.548 247.838C107.09 250.684 103.045 254.131 99.528 258.082C94.0049 264.826 91.2688 273.426 91.88 282.122C91.9278 284.714 92.6325 287.252 93.928 289.498C94.5636 290.628 95.4711 291.583 96.5683 292.274C97.6656 292.965 98.9179 293.372 100.212 293.458C103.08 293.596 105.538 291.82 107.86 290.18C116.06 284.308 161.678 235.954 158.672 222.158C156.488 212.324 151.16 219.158 146.38 223.524C135.862 233.222 123.16 239.916 111.548 247.838Z" fill="#F9BDB4"/>
<path d="M177.658 132.554C192 130.506 215.494 132.828 226.286 142.662C239.124 154.262 247.048 172.166 261.8 180.908C256.336 185.688 250.736 190.196 245 194.708C238.617 199.958 231.155 203.735 223.146 205.772C216.708 189.367 208.942 173.514 199.926 158.372C195.144 150.45 189.126 141.572 179.846 140.616C178.226 143.633 176.011 146.291 173.334 148.427C170.657 150.564 167.575 152.135 164.274 153.046C156.325 154.795 148.022 153.881 140.644 150.446C132.72 163.834 127.53 177.22 128.896 192.8C129.578 201.132 129.988 209.6 130.126 218.068C130.201 222.257 129.507 226.424 128.076 230.362C112.923 228.11 97.636 226.878 82.318 226.674C85.46 215.61 88.738 204.674 91.88 193.618C94.202 185.834 96.388 177.91 100.622 170.944C108.822 157.144 123.842 149.364 140.37 142.544C141.816 144.113 143.568 145.371 145.517 146.24C147.466 147.109 149.572 147.571 151.706 147.598C155.914 147.757 160.108 147.008 164 145.4C167.073 144.379 169.886 142.7 172.245 140.482C174.603 138.264 176.45 135.558 177.658 132.554Z" fill="#643CFF"/>
<path d="M156.898 308.21L167.552 185.416H273.682L277.234 190.878L160.448 313.674L156.898 308.21Z" fill="#14D29B"/>
<path d="M160.448 313.674L246.638 309.03L277.234 190.878H171.24L160.448 313.674Z" fill="#008C6E"/>
<path d="M221.504 237.6C220.996 237.947 220.389 238.12 219.774 238.095C219.159 238.071 218.569 237.848 218.09 237.462C217.335 236.606 216.375 235.956 215.3 235.574C214.225 235.192 213.07 235.09 211.944 235.278C210.451 235.718 209.076 236.487 207.918 237.526C206.76 238.566 205.848 239.851 205.25 241.288C204.496 243.214 204.143 245.273 204.212 247.339C204.281 249.406 204.77 251.437 205.65 253.308C206.298 255.014 207.439 256.488 208.928 257.542C211.386 258.908 212.752 257.404 215.348 257.404C216.247 257.485 217.126 257.716 217.948 258.088C219.496 258.379 221.091 258.282 222.592 257.805C224.093 257.328 225.452 256.487 226.548 255.356C228.803 253.031 230.733 250.412 232.286 247.57C231.271 247.49 230.314 247.068 229.569 246.374C228.825 245.679 228.338 244.753 228.188 243.746C228.052 242.59 228.235 241.419 228.716 240.36C229.198 239.301 229.96 238.393 230.92 237.736C230.209 236.837 229.226 236.192 228.118 235.896C227.01 235.601 225.837 235.671 224.772 236.096C223.826 236.364 222.734 237.184 221.504 237.6Z" fill="white"/>
<path d="M229.564 227.486C227.124 227.344 224.727 228.166 222.887 229.774C221.048 231.383 219.913 233.649 219.728 236.086C219.866 235.954 228.334 236.228 229.564 227.486Z" fill="white"/>
<path d="M187.171 204.921C187.538 202.002 185.832 199.384 183.362 199.073C180.892 198.763 178.592 200.878 178.225 203.798C177.858 206.718 179.564 209.336 182.034 209.646C184.504 209.956 186.804 207.841 187.171 204.921Z" fill="black"/>
<path d="M198.558 297.556L197.738 302.748L222.734 302.338L223.69 296.6L198.558 297.556Z" fill="white"/>
<path d="M266.034 254.668C265.439 255.443 264.696 256.093 263.848 256.58C261.39 258.218 258.93 259.858 256.336 261.496C256.062 261.634 255.79 261.77 255.652 261.634C255.514 261.498 255.516 261.36 255.38 261.36C255.106 260.54 255.652 259.858 256.062 259.174C256.882 257.946 257.838 256.716 258.662 255.624C259.717 254.271 260.958 253.075 262.35 252.072C263.168 251.526 265.764 250.16 266.856 250.842C267.81 251.252 266.58 253.984 266.034 254.668Z" fill="#F9BDB4"/>
<path d="M264.668 256.032C265.154 255.658 265.61 255.247 266.034 254.804C266.58 254.12 267.81 251.388 266.99 250.842C265.896 250.16 263.302 251.526 262.482 252.072C261.06 253.039 259.813 254.24 258.794 255.624C258.43 256.046 258.11 256.504 257.838 256.99C260.053 256.328 262.356 256.005 264.668 256.032Z" fill="#EF6767"/>
<path d="M270.268 244.15C270.243 246.216 270.014 248.275 269.584 250.296C269.516 251.003 269.23 251.671 268.766 252.208C267.948 252.969 266.882 253.406 265.766 253.438C261.667 253.849 257.569 254.122 253.472 254.258C252.378 254.349 251.277 254.303 250.194 254.12C250.089 254.118 249.985 254.092 249.89 254.045C249.796 253.998 249.713 253.931 249.648 253.848C249.376 253.574 249.512 253.028 249.786 252.618C250.228 251.857 250.834 251.204 251.56 250.706C253.656 249.349 256.043 248.506 258.526 248.248C261.396 247.7 264.4 247.154 267.268 246.608C268.384 245.941 269.395 245.113 270.268 244.15Z" fill="#F9BDB4"/>
<path d="M261.4 249.886C264.132 249.886 266.862 249.886 269.732 249.75C270.123 247.91 270.306 246.031 270.278 244.15C269.458 244.832 268.502 246.198 267.41 246.334C264.54 246.882 261.536 247.428 258.668 247.974C256.408 248.287 254.229 249.029 252.248 250.16C255.242 250.022 258.384 249.886 261.4 249.886Z" fill="#EF6767"/>
<path d="M270.95 233.086C271.551 235.423 272.007 237.795 272.316 240.188C272.763 241.927 272.569 243.77 271.77 245.378C271.017 246.239 270.097 246.937 269.065 247.43C268.034 247.924 266.912 248.202 265.77 248.248C260.306 249.204 254.842 250.022 249.516 250.98C249.292 251.059 249.054 251.087 248.818 251.063C248.581 251.039 248.354 250.964 248.15 250.842C247.958 250.617 247.841 250.339 247.814 250.045C247.787 249.751 247.852 249.456 248 249.2C249.266 246.961 251.305 245.26 253.736 244.418C257.144 242.926 260.66 241.693 264.254 240.73L265.484 235.814L270.95 233.086Z" fill="#F9BDB4"/>
<path d="M259.068 243.056C263.465 241.974 267.941 241.244 272.454 240.872C272.475 240.635 272.427 240.398 272.316 240.188C271.916 237.866 271.498 235.408 270.95 233.086L265.488 235.954L264.258 240.872C260.657 241.812 257.14 243.046 253.74 244.56C252.913 244.86 252.132 245.273 251.418 245.788C253.825 244.519 256.401 243.599 259.068 243.056Z" fill="#EF6767"/>
<path d="M267.4 228.852C262.553 231.769 257.939 235.056 253.6 238.686C252.78 239.273 252.083 240.016 251.55 240.872C251.278 241.418 250.732 242.784 251.414 243.33C251.96 243.73 252.916 243.194 253.462 243.056C254.533 242.82 255.583 242.501 256.604 242.1L263.98 239.642C266.166 238.822 268.488 238.14 270.674 237.184C271.568 236.816 272.397 236.308 273.132 235.68C273.63 235.027 274 234.286 274.224 233.496C275.173 231.096 275.726 228.559 275.864 225.982C275.728 223.382 272.586 220.246 270.128 219.29" fill="#F9BDB4"/>
<path d="M147.472 101.138C147.2 101.002 146.926 101.002 146.79 101.276C146.652 101.412 146.926 101.822 147.062 101.822C147.149 101.844 147.24 101.838 147.323 101.804C147.406 101.77 147.476 101.71 147.522 101.633C147.568 101.556 147.588 101.466 147.579 101.377C147.57 101.288 147.532 101.204 147.472 101.138ZM140.096 94.31C140.163 94.2084 140.198 94.0895 140.198 93.968C140.198 93.8465 140.163 93.7276 140.096 93.626C139.55 92.944 138.73 93.626 138.458 94.172C138.32 94.718 139.004 94.992 139.414 94.856C139.564 94.8295 139.706 94.7656 139.825 94.6702C139.944 94.5748 140.037 94.4509 140.096 94.31ZM133.814 101.684C133.676 101.548 133.54 101.412 133.414 101.412C133.814 101.138 132.184 100.866 132.594 101.548C132.599 101.619 132.629 101.686 132.679 101.736C132.729 101.786 132.795 101.817 132.866 101.822C132.8 101.898 132.764 101.995 132.764 102.095C132.764 102.195 132.8 102.292 132.866 102.368C133.004 102.642 133.266 102.642 133.55 102.504C133.759 102.33 133.9 102.089 133.95 101.822C133.95 101.804 133.947 101.786 133.941 101.769C133.934 101.752 133.924 101.737 133.911 101.724C133.899 101.711 133.884 101.701 133.867 101.694C133.85 101.687 133.832 101.684 133.814 101.684ZM145.286 93.762C145.286 93.49 145.15 93.362 144.886 93.49C144.748 93.626 144.612 93.626 144.486 93.9C144.478 93.9725 144.487 94.0458 144.51 94.1149C144.534 94.1839 144.572 94.2471 144.622 94.3C144.758 94.436 145.022 94.3 145.168 94.162C145.215 94.1077 145.25 94.0438 145.27 93.9748C145.291 93.9058 145.296 93.8332 145.286 93.762ZM148.292 96.768C148.239 96.7177 148.176 96.6795 148.107 96.6561C148.038 96.6326 147.964 96.6244 147.892 96.632C147.786 96.6338 147.683 96.6591 147.588 96.7062C147.494 96.7532 147.411 96.8208 147.346 96.904C147.21 97.04 147.346 97.178 147.482 97.304C147.756 97.304 147.882 97.168 148.028 97.168C148.292 97.178 148.428 96.904 148.292 96.768ZM142 98.4C141.947 98.3496 141.884 98.3114 141.815 98.2879C141.746 98.2644 141.673 98.2562 141.6 98.264C141.497 98.2782 141.401 98.326 141.328 98.4C141.192 98.538 141.192 98.538 141.192 98.674V98.948C141.328 99.084 141.592 99.22 141.738 99.084C142.01 99.084 142.138 98.684 142.01 98.4H142ZM136.544 95.128C136.408 95.128 136.408 95.128 136.408 95.266C136.272 95.402 136.408 95.666 136.682 95.538C136.721 95.5256 136.757 95.5042 136.786 95.4754C136.816 95.4467 136.838 95.4114 136.851 95.3724C136.865 95.3335 136.868 95.292 136.863 95.2512C136.857 95.2105 136.842 95.1717 136.818 95.138L136.544 95.128ZM147.6 93.9C147.738 93.9 147.738 93.626 147.6 93.49C147.464 93.49 147.328 93.626 147.464 93.762C147.463 93.7801 147.467 93.7981 147.473 93.815C147.48 93.8318 147.49 93.8472 147.502 93.8601C147.515 93.873 147.53 93.8832 147.547 93.89C147.564 93.8969 147.582 93.9003 147.6 93.9ZM134.086 98.4C134.086 98.538 134.086 98.674 134.222 98.674C134.358 98.674 134.36 98.674 134.36 98.538C134.496 98.4 134.222 98.27 134.086 98.4ZM132.038 97.724C132.129 97.7292 132.22 97.7151 132.306 97.6826C132.391 97.6501 132.468 97.5998 132.533 97.5352C132.597 97.4706 132.647 97.393 132.679 97.3077C132.712 97.2223 132.725 97.1311 132.72 97.04C132.718 96.9256 132.69 96.8132 132.637 96.7119C132.584 96.6105 132.508 96.5231 132.415 96.4567C132.322 96.3903 132.214 96.3467 132.101 96.3296C131.988 96.3124 131.873 96.3222 131.764 96.358C131.082 96.632 131.082 97.45 131.9 97.724H132.038ZM127.8 94.856C127.526 94.456 126.706 94.718 126.57 95.266C126.434 95.538 126.706 95.948 126.842 96.084C127.092 96.1031 127.341 96.0307 127.542 95.8803C127.744 95.7299 127.883 95.5116 127.936 95.266C127.94 95.128 127.8 95 127.8 94.856ZM127.53 100.728C127.256 100.182 126.438 101.002 127.13 101.276C127.53 101.412 127.666 101 127.53 100.728ZM126.846 100.32C126.841 100.067 126.744 99.8235 126.574 99.636C126.174 99.5 125.754 99.772 125.89 100.182C125.9 100.324 125.961 100.457 126.062 100.558C126.162 100.658 126.296 100.719 126.438 100.728C126.544 100.722 126.644 100.677 126.72 100.602C126.795 100.526 126.84 100.426 126.846 100.32ZM124.252 98.954C124.225 98.8552 124.179 98.7625 124.117 98.6815C124.054 98.6004 123.977 98.5325 123.888 98.4816C123.799 98.4307 123.701 98.3978 123.599 98.3848C123.498 98.3718 123.395 98.379 123.296 98.406C123.075 98.4373 122.868 98.5311 122.698 98.6764C122.529 98.8217 122.405 99.0124 122.34 99.226C122.278 99.4155 122.271 99.6186 122.319 99.812C122.367 100.005 122.469 100.181 122.612 100.32C122.886 100.592 123.296 101.002 123.706 101.002C124.524 101.002 124.524 99.5 124.252 98.954ZM138.458 101.138C138.32 101.138 138.32 101.138 138.184 101.276C138.048 101.548 138.584 101.676 138.584 101.412C138.73 101.276 138.6 101.138 138.458 101.138ZM137.092 101.276C136.954 101.138 136.818 101.002 136.544 101.138C136.27 101.274 136.144 101.412 136.144 101.684C136.109 101.764 136.092 101.85 136.094 101.936C136.096 102.023 136.117 102.108 136.155 102.186C136.193 102.264 136.247 102.333 136.315 102.388C136.382 102.443 136.46 102.482 136.544 102.504C137.364 102.778 137.502 101.684 137.092 101.276ZM188.722 91.578C188.586 91.44 188.45 91.304 188.322 91.304C188.722 91.03 187.092 90.758 187.502 91.44C187.506 91.5109 187.536 91.5779 187.586 91.6284C187.636 91.6788 187.703 91.7092 187.774 91.714C187.708 91.7897 187.672 91.8867 187.672 91.987C187.672 92.0873 187.708 92.1843 187.774 92.26C187.912 92.534 188.174 92.534 188.458 92.396C188.67 92.2239 188.816 91.9824 188.868 91.714L188.722 91.578ZM189 88.436C189 88.572 189 88.708 189.136 88.708C189.272 88.708 189.274 88.708 189.274 88.572C189.4 88.298 189 88.162 189 88.436ZM187.22 83.246C187.084 82.972 186.82 82.846 186.4 83.108C186 83.508 186.264 83.928 186.8 83.792C187.22 83.654 187.356 83.382 187.22 83.246ZM186.81 87.616C186.901 87.6215 186.992 87.6077 187.078 87.5754C187.163 87.5431 187.241 87.4931 187.305 87.4286C187.37 87.3642 187.42 87.2868 187.453 87.2015C187.485 87.1163 187.499 87.0251 187.494 86.934C187.493 86.8195 187.465 86.7068 187.412 86.6052C187.359 86.5036 187.283 86.4159 187.19 86.3493C187.096 86.2826 186.989 86.2389 186.876 86.2217C186.762 86.2044 186.647 86.2141 186.538 86.25C185.854 86.524 185.854 87.342 186.674 87.616H186.81ZM182.712 84.748C182.44 84.338 181.62 84.612 181.484 85.148C181.346 85.42 181.62 85.83 181.756 85.966C182.006 85.9851 182.255 85.9127 182.456 85.7623C182.658 85.6119 182.797 85.3936 182.85 85.148C182.799 85.0955 182.76 85.0324 182.737 84.9633C182.713 84.8942 182.704 84.8207 182.712 84.748ZM182.44 90.622C182.166 90.074 181.346 90.894 182.04 91.168C182.302 91.304 182.44 90.894 182.44 90.622ZM181.756 90.212C181.751 89.9586 181.654 89.7155 181.484 89.528C181.084 89.392 180.664 89.664 180.8 90.074C180.812 90.2151 180.873 90.3474 180.973 90.4477C181.073 90.548 181.205 90.6097 181.346 90.622C181.402 90.63 181.458 90.625 181.512 90.6072C181.565 90.5894 181.614 90.5595 181.654 90.5197C181.693 90.4799 181.723 90.4313 181.741 90.3779C181.759 90.3245 181.764 90.2677 181.756 90.212ZM179.162 88.846C179.135 88.7472 179.089 88.6546 179.027 88.5735C178.964 88.4924 178.887 88.4245 178.798 88.3736C178.709 88.3227 178.611 88.2898 178.509 88.2768C178.408 88.2638 178.305 88.271 178.206 88.298C177.985 88.3293 177.778 88.4231 177.608 88.5684C177.439 88.7137 177.315 88.9044 177.25 89.118C177.188 89.3075 177.181 89.5106 177.229 89.704C177.277 89.8974 177.379 90.0734 177.522 90.212C177.796 90.484 178.206 90.894 178.616 90.894C179.434 90.894 179.434 89.392 179.162 88.846ZM186 84.612C185.728 84.212 184.908 84.474 184.772 85.012C184.636 85.286 184.908 85.696 185.044 85.832C185.295 85.8506 185.544 85.7778 185.745 85.627C185.946 85.4763 186.085 85.2578 186.138 85.012C186.142 84.8663 186.093 84.7241 186 84.612ZM185.718 90.484C185.444 89.938 184.626 90.758 185.318 91.03C185.718 91.03 185.854 90.758 185.718 90.484ZM185.034 90.074C185.029 89.8212 184.932 89.5789 184.762 89.392C184.362 89.256 183.942 89.528 184.078 89.938C184.088 90.0799 184.149 90.2134 184.25 90.3138C184.35 90.4142 184.484 90.4747 184.626 90.484C184.898 90.348 185.034 90.212 185.034 90.074ZM133 107.558C132.726 107.422 132.454 107.422 132.316 107.694C132.18 107.832 132.454 108.242 132.59 108.242C132.677 108.264 132.768 108.258 132.851 108.224C132.934 108.19 133.004 108.13 133.05 108.053C133.096 107.976 133.116 107.886 133.107 107.797C133.098 107.708 133.06 107.624 133 107.558Z" fill="#EF6767"/>
<path d="M142.828 98C142.894 97.8987 142.93 97.7801 142.93 97.659C142.93 97.5378 142.894 97.4193 142.828 97.318C142.282 96.636 141.462 97.318 141.19 97.864C141.052 98.41 141.736 98.684 142.146 98.548C142.297 98.5215 142.438 98.4574 142.557 98.3616C142.677 98.2658 142.77 98.1414 142.828 98ZM136.544 105.372C136.408 105.236 136.272 105.1 136.144 105.1C136.544 104.826 134.914 104.554 135.324 105.236C135.329 105.307 135.359 105.374 135.409 105.424C135.459 105.474 135.525 105.505 135.596 105.51C135.53 105.586 135.494 105.683 135.494 105.783C135.494 105.883 135.53 105.98 135.596 106.056C135.734 106.33 135.996 106.33 136.28 106.192C136.489 106.018 136.63 105.777 136.68 105.51C136.68 105.492 136.677 105.474 136.67 105.457C136.663 105.441 136.654 105.425 136.641 105.413C136.628 105.4 136.613 105.389 136.596 105.383C136.58 105.376 136.562 105.372 136.544 105.372ZM148.018 97.45C148.018 97.178 147.882 97.05 147.618 97.178C147.482 97.314 147.346 97.314 147.218 97.578C147.21 97.6506 147.218 97.724 147.242 97.7931C147.265 97.8622 147.303 97.9253 147.354 97.978C147.49 98.116 147.754 97.978 147.9 97.842C147.946 97.7886 147.98 97.7261 148.001 97.6586C148.021 97.591 148.027 97.52 148.018 97.45ZM139.276 98.954C139.14 98.954 139.14 98.954 139.14 99.09C139.004 99.226 139.14 99.49 139.414 99.362C139.453 99.35 139.49 99.3288 139.519 99.3001C139.549 99.2714 139.571 99.236 139.585 99.1969C139.598 99.1578 139.602 99.1161 139.596 99.0753C139.59 99.0344 139.574 98.9956 139.55 98.962L139.276 98.954ZM136.818 102.232C136.818 102.368 136.818 102.504 136.954 102.504C137.09 102.504 137.092 102.504 137.092 102.368C137.228 102.094 136.954 101.958 136.818 102.232ZM137.91 98.134C137.774 97.996 137.638 98.27 137.774 98.27C137.774 98.4 137.91 98.27 137.91 98.134ZM135.042 97.04C134.906 96.768 134.642 96.64 134.222 96.904C133.822 97.304 134.086 97.724 134.622 97.588C135.158 97.452 135.18 97.314 135.042 97.04ZM134.77 101.412C134.861 101.417 134.952 101.403 135.038 101.371C135.123 101.338 135.2 101.288 135.265 101.223C135.329 101.159 135.379 101.081 135.411 100.996C135.444 100.91 135.457 100.819 135.452 100.728C135.45 100.614 135.422 100.501 135.369 100.4C135.316 100.299 135.24 100.211 135.147 100.145C135.054 100.078 134.946 100.035 134.833 100.018C134.72 100 134.605 100.01 134.496 100.046C133.814 100.32 133.814 101.138 134.632 101.412H134.77ZM130.534 98.68C130.262 98.27 129.442 98.544 129.306 99.08C129.17 99.352 129.442 99.762 129.578 99.9C129.829 99.9186 130.078 99.8458 130.279 99.695C130.48 99.5443 130.619 99.3258 130.672 99.08C130.676 98.9343 130.627 98.7921 130.534 98.68ZM129.578 104C129.573 103.747 129.476 103.505 129.306 103.318C128.896 103.182 128.486 103.454 128.622 103.864C128.632 104.006 128.693 104.139 128.794 104.24C128.894 104.34 129.028 104.401 129.17 104.41C129.226 104.418 129.282 104.412 129.335 104.394C129.388 104.377 129.437 104.347 129.476 104.307C129.516 104.267 129.546 104.219 129.563 104.165C129.581 104.112 129.586 104.056 129.578 104ZM126.984 102.642C126.957 102.543 126.911 102.451 126.849 102.369C126.786 102.288 126.709 102.22 126.62 102.17C126.531 102.119 126.433 102.086 126.331 102.073C126.23 102.06 126.127 102.067 126.028 102.094C125.807 102.125 125.6 102.219 125.43 102.364C125.261 102.51 125.137 102.7 125.072 102.914C125.01 103.103 125.003 103.306 125.051 103.499C125.099 103.692 125.201 103.868 125.344 104.006C125.618 104.28 126.028 104.69 126.438 104.69C127.256 104.69 127.256 103.188 126.984 102.642Z" fill="#EF6767"/>
</g>
<defs>
<clipPath id="clip0_902_8850">
<rect width="400" height="400" fill="white"/>
</clipPath>
</defs>
</svg>
