<svg width="400" height="400" viewBox="0 0 400 400" fill="none" xmlns="http://www.w3.org/2000/svg">
<path d="M286.374 273.758C271.534 272.958 245.848 272.404 240.774 271.934C238.164 259.97 233.96 241.024 232.294 232.134C232.322 232.116 232.35 232.098 232.376 232.078C242.674 225.428 251.908 207.226 237.126 181.576C217.428 181.742 199.358 186.162 182.71 196.396C183.128 200.158 183.47 203.35 183.66 205.44C136.35 226.84 127.23 233.142 125.482 243.744C123.452 256.126 134.242 273.804 165.8 325.9C177.8 328.7 196.078 321.84 200.304 310.928C195.476 301.174 178.724 267.42 173.438 257.994C187.684 252.794 204.238 246.344 217.894 239.772C212.31 245.144 201.212 256.448 197.188 261.224C203.04 279.084 209.88 299.824 217.29 303.252C225.944 307.252 229.932 308.42 286.336 308.42C292.81 302.614 291.36 282.168 286.374 273.758Z" fill="#B8FFD4"/>
<path d="M108.154 55.638C106.596 58.488 105.19 61.262 103.898 63.884C93.676 84.974 91.662 98.92 91.698 109.332C91.736 114.462 92.23 118.718 92.498 122.594V122.632C93.22 123.05 93.898 123.468 94.74 123.962C96.26 121.562 97.514 122.024 101.238 123.848C106.368 126.356 106.862 126.584 107.238 130.194C107.276 130.65 107.314 131.068 107.39 131.486C110.962 129.472 115.028 127.458 119.664 124.486C128.442 118.824 139.006 109.552 151.052 89.45C152.572 86.904 154.13 84.25 155.688 81.356L108.154 55.638ZM123.506 97.248L121.074 108.8L115.8 98.236L104.096 99.566L112.496 91.244L107.632 80.49L118.12 85.89L126.822 77.986L124.922 89.652L135.182 95.466L123.506 97.248Z" fill="#B8FFD4"/>
<path d="M304.614 39.982C304.576 41.882 304.576 43.706 304.614 45.302C307.16 44.542 308.338 43.63 308.528 42.718C308.876 41.078 305.686 39.768 304.614 39.982Z" fill="#E9E9E9"/>
<path d="M291.58 276.874C290.376 276.844 289.174 276.906 287.98 277.064C291.324 285.348 291.514 298.192 288.78 304.88C293.18 310.77 306.18 319.662 316.292 322.36C315.558 306.476 298.572 283.334 291.58 276.874Z" fill="#E9E9E9"/>
<path d="M282.27 40.8178C281.62 40.7998 279.07 41.3058 279.07 43.0598C279.07 44.0098 280.248 45.0738 283.136 45.7958C283.448 44.0864 283.14 42.3218 282.27 40.8178Z" fill="#E9E9E9"/>
<path d="M238.912 146.8C239.444 154.666 240.28 164.052 240.28 170.55C243.168 160.404 246.702 148.13 248.754 141.328L238.912 146.8Z" fill="#E9E9E9"/>
<path d="M223.826 70.8C223.826 68.216 220.482 67.342 218.696 70.154C218.544 67.722 214.592 67.154 212.654 70.458C212.236 67.836 207.79 68.406 206.232 71.37C205.776 69.052 201.976 70.344 201.33 73.802C200.646 77.45 200.038 80.756 199.62 83.72C204.53 82.2764 209.626 81.5594 214.744 81.592C213.68 85.62 214.144 91.054 215.884 87.368C217.594 83.682 221.964 86.456 218.884 91.282C218.388 92.281 218.184 93.4006 218.298 94.5106C218.414 95.6204 218.84 96.675 219.53 97.552C219.986 89.61 226.142 79.312 228.042 75.132C230.628 69.47 226.714 67.95 223.826 70.8Z" fill="#E9E9E9"/>
<path d="M193.578 250.312C194.718 253.694 195.934 257.38 197.178 261.218C201.662 255.898 214.62 243.32 219.294 239.102C211.134 243.092 202.2 246.93 193.578 250.312Z" fill="#E9E9E9"/>
<path d="M207.8 104.772C207.77 106.505 207.604 108.233 207.306 109.94C209.936 108.087 211.98 105.519 213.196 102.54C211.458 103.423 209.654 104.169 207.8 104.772Z" fill="#E9E9E9"/>
<path d="M198.518 314.304C200.328 315.708 201.984 317.3 203.458 319.054C194.642 339.954 175.756 357.548 168.308 362.222C169.052 349.95 171.587 337.852 175.832 326.312C184.382 325.172 194 320.84 198.518 314.304Z" fill="#E9E9E9"/>
<path d="M178.416 159.8C174.502 164.512 163.634 176.178 153.45 182.904C162.478 179.987 171.302 176.469 179.86 172.374C179.328 167.89 178.834 163.558 178.416 159.8Z" fill="#E9E9E9"/>
<path d="M112.562 135.628C111.726 135.134 110.282 135.742 109.218 137.3C110.093 138.871 111.508 140.073 113.2 140.682C113.816 137.718 113.4 136.122 112.562 135.628Z" fill="#E9E9E9"/>
<path d="M103.328 159.91C101.58 161.886 100.248 162.46 99.376 162.19C98.158 161.814 98.008 159.53 98.73 157.136C100.288 158.048 101.846 158.96 103.328 159.91Z" fill="#E9E9E9"/>
<path d="M74.562 301.194C80.879 301.194 86 296.072 86 289.756C86 283.438 80.879 278.318 74.562 278.318C68.245 278.318 63.124 283.438 63.124 289.756C63.124 296.072 68.245 301.194 74.562 301.194Z" fill="#E9E9E9"/>
<path d="M92.498 153.526C92.574 150.068 94.208 146.382 96.898 141.366C96.3386 139.511 96.1968 137.556 96.4828 135.64C96.7688 133.725 97.4754 131.896 98.552 130.286C97.8702 131.34 97.0762 132.317 96.184 133.2C97.324 135.518 95.462 139.052 92.156 137.38L92.612 138.102C96.64 140.382 93.98 145.55 89.686 143.502L90.486 144.224C94.438 146.314 91.968 151.368 87.712 149.506C85.85 148.67 84.33 148.062 83.076 147.53C79.808 150.152 75.742 150.76 68.978 149.81L98.314 165.694C94.132 160.936 92.384 157.364 92.498 153.526Z" fill="#E9E9E9"/>
<path d="M67.996 149.291L60.852 158.639L95.394 177.373L99.346 166.277L67.996 149.291Z" fill="#E9E9E9"/>
<path d="M103.328 159.91C99.728 157.554 95.576 155.464 92.46 153.45" stroke="black" stroke-width="1.5" stroke-linecap="round" stroke-linejoin="round"/>
<path d="M199.468 84.936L192.324 10L137.072 148.548" stroke="black" stroke-width="1.5" stroke-linecap="round" stroke-linejoin="round"/>
<path d="M202.85 120.732L201.33 104.43" stroke="black" stroke-width="1.5" stroke-linecap="round" stroke-linejoin="round"/>
<path d="M282.764 273.568L334.71 143.304L243.472 159.416" stroke="black" stroke-width="1.5" stroke-linecap="round" stroke-linejoin="round"/>
<path d="M228.424 306.704L236.366 390L268.932 308.338" stroke="black" stroke-width="1.5" stroke-linecap="round" stroke-linejoin="round"/>
<path d="M125.52 177.504L93.942 256.696L125.558 251.11" stroke="black" stroke-width="1.5" stroke-linecap="round" stroke-linejoin="round"/>
<path d="M103.936 63.96L84.176 53.282C68.376 82.466 82.808 104.582 91.738 109.408" stroke="black" stroke-width="1.5" stroke-linecap="round" stroke-linejoin="round"/>
<path d="M115.83 98.274L104.126 99.566L112.486 91.282L107.622 80.528L118.11 85.924L126.812 77.982L124.912 89.61L135.172 95.462L123.506 97.248L121.15 108.8L115.83 98.274Z" stroke="black" stroke-width="1.5" stroke-linecap="round" stroke-linejoin="round"/>
<path d="M151.188 89.5L170.816 100.174C155 129.358 128.6 129.358 119.706 124.532" stroke="black" stroke-width="1.5" stroke-linecap="round" stroke-linejoin="round"/>
<path d="M90.268 333.272C102.649 333.272 112.686 323.236 112.686 310.854C112.686 298.472 102.649 288.436 90.268 288.436C77.8868 288.436 67.85 298.472 67.85 310.854C67.85 323.236 77.8868 333.272 90.268 333.272Z" stroke="black" stroke-width="1.5" stroke-linecap="round" stroke-linejoin="round"/>
<path d="M334.786 88.242C338.606 88.242 341.702 85.1456 341.702 81.326C341.702 77.5064 338.606 74.41 334.786 74.41C330.966 74.41 327.87 77.5064 327.87 81.326C327.87 85.1456 330.966 88.242 334.786 88.242Z" stroke="black" stroke-width="1.5" stroke-linecap="round" stroke-linejoin="round"/>
<path d="M66.202 203.42C68.1538 203.42 69.736 201.838 69.736 199.886C69.736 197.934 68.1538 196.352 66.202 196.352C64.2502 196.352 62.668 197.934 62.668 199.886C62.668 201.838 64.2502 203.42 66.202 203.42Z" stroke="black" stroke-width="1.5" stroke-linecap="round" stroke-linejoin="round"/>
<path d="M246.93 29.836L243.396 43.972L254.112 42.072L250.578 56.208" stroke="black" stroke-width="1.5" stroke-linecap="round" stroke-linejoin="round"/>
<path d="M89.648 143.456C93.948 145.496 96.598 140.346 92.574 138.056C89.574 136.35 87.406 135.28 84.974 134.028C84.2494 133.61 83.3914 133.487 82.5786 133.685C81.7658 133.884 81.0606 134.388 80.6102 135.093C80.1598 135.798 79.9986 136.649 80.1602 137.47C80.3218 138.291 80.7938 139.018 81.478 139.5C83.414 140.722 85.702 141.584 89.648 143.456Z" stroke="black" stroke-width="1.5" stroke-linecap="round" stroke-linejoin="round"/>
<path d="M94.778 124C93.258 123.088 92.16 122.472 90.674 121.6C89.9728 121.142 89.121 120.975 88.2988 121.134C87.4768 121.294 86.749 121.767 86.2698 122.454C85.7906 123.14 85.5974 123.987 85.7316 124.813C85.8656 125.64 86.3162 126.382 86.988 126.882C88.6132 127.967 90.315 128.932 92.08 129.77" stroke="black" stroke-width="1.5" stroke-linecap="round" stroke-linejoin="round"/>
<path d="M87.748 149.498C91.966 151.36 94.434 146.312 90.484 144.216C87.556 142.662 85.386 141.682 83.036 140.568C82.327 140.17 81.491 140.062 80.704 140.268C79.917 140.473 79.2406 140.976 78.8172 141.67C78.3936 142.365 78.256 143.196 78.4334 143.99C78.6108 144.784 79.0892 145.478 79.768 145.926C81.668 147.026 83.872 147.788 87.748 149.498Z" stroke="black" stroke-width="1.5" stroke-linecap="round" stroke-linejoin="round"/>
<path d="M92 129.928C90.442 129.092 89.066 128.462 87.554 127.648C86.8284 127.198 85.956 127.047 85.1214 127.228C84.2868 127.409 83.5552 127.908 83.0814 128.618C82.6078 129.329 82.429 130.196 82.5828 131.036C82.7366 131.876 83.2112 132.623 83.906 133.12C85.88 134.416 88.132 135.346 92.106 137.338C95.418 138.996 97.274 135.476 96.134 133.158" stroke="black" stroke-width="1.5" stroke-linecap="round" stroke-linejoin="round"/>
<path d="M109.18 137.3C110.282 135.742 111.718 135.148 112.562 135.628C114.068 136.488 114.194 140.872 109.522 150.106C104.542 159.948 101.046 162.73 99.338 162.19C98.158 161.816 97.97 159.492 98.692 157.136" stroke="black" stroke-width="1.5" stroke-linecap="round" stroke-linejoin="round"/>
<path d="M113.2 140.682C110.616 139.618 108 137.72 107.272 130.194C106.918 126.594 106.4 126.352 101.272 123.848C95.272 120.918 95.61 121.448 91.088 132.094C89.976 134.712 94.052 137.414 98.764 129.814C95.078 135.628 95.764 141.414 99.144 145.09" stroke="black" stroke-width="1.5" stroke-linecap="round" stroke-linejoin="round"/>
<path d="M297.2 25.466C296.824 30.216 291.062 30.368 291.082 25.77C291.096 22.35 291.242 19.9179 291.386 17.1819C291.626 12.6219 297.708 12.6599 297.846 16.4219C297.934 18.7019 297.55 21.096 297.2 25.466Z" stroke="black" stroke-width="1.5" stroke-linecap="round" stroke-linejoin="round"/>
<path d="M277.862 21.974C277.824 20.302 277.85 19.0819 277.824 17.4859C277.754 13.1539 283.926 12.9579 284.208 16.5739C284.338 18.421 284.338 20.2748 284.208 22.122" stroke="black" stroke-width="1.5" stroke-linecap="round" stroke-linejoin="round"/>
<path d="M303.74 26.568C303.264 31.206 297.678 31.204 297.85 26.72C297.978 23.414 298.186 21.058 298.382 18.436C298.712 14.036 304.614 14.218 304.614 17.836C304.614 20.032 304.174 22.352 303.74 26.568Z" stroke="black" stroke-width="1.5" stroke-linecap="round" stroke-linejoin="round"/>
<path d="M284.36 22.0842C284.398 20.2982 284.548 18.7781 284.588 17.0681C284.696 12.4321 290.886 12.3561 291.124 16.1561C291.27 18.4741 290.934 20.9062 290.706 25.3562C290.72 26.0198 290.522 26.6706 290.138 27.212C289.752 27.7534 289.204 28.1564 288.572 28.3612C287.942 28.566 287.26 28.5616 286.632 28.349C286.002 28.1362 285.46 27.7262 285.082 27.1802" stroke="black" stroke-width="1.5" stroke-linecap="round" stroke-linejoin="round"/>
<path d="M282.232 40.818C280.332 41.122 279.116 42.034 279.116 42.984C279.116 44.694 282.802 46.74 293.1 46.556C304.044 46.356 308.19 44.428 308.566 42.68C308.836 41.426 307.236 40.28 304.842 39.906" stroke="black" stroke-width="1.5" stroke-linecap="round" stroke-linejoin="round"/>
<path d="M283.182 45.758C283.524 42.984 283.168 39.85 277.064 35.916C274.132 34.026 274.174 33.446 274.556 27.784C275.008 21.096 275.28 21.66 286.716 22.236C289.528 22.378 289.832 27.214 280.94 28.126C287.78 27.366 292.454 30.482 293.94 35.08" stroke="black" stroke-width="1.5" stroke-linecap="round" stroke-linejoin="round"/>
<path d="M304.652 45.264C304.424 37.436 305.252 24.82 304.652 18.74" stroke="black" stroke-width="1.5" stroke-linecap="round" stroke-linejoin="round"/>
<path d="M279.116 43.022C279.192 52.522 279.116 76.842 278.47 88.204C275.47 90.18 251.796 102.004 241.648 106.71C232.462 110.972 224.696 110.09 221.078 104.298C216.078 96.298 224.616 82.844 228.078 75.132C230.624 69.47 226.748 67.95 223.86 70.8C223.86 68.254 220.516 67.342 218.73 70.154C218.54 67.722 214.588 67.154 212.688 70.458C212.232 67.874 207.824 68.444 206.266 71.37C205.81 69.09 202.036 70.37 201.364 73.802C195.33 104.524 198.964 109.602 213.258 102.53C212.042 105.509 209.998 108.077 207.368 109.93" stroke="black" stroke-width="1.5" stroke-linecap="round" stroke-linejoin="round"/>
<path d="M308.566 42.718C308.566 96.26 309.148 98.888 306.324 104.164C302.578 111.164 295.19 115.526 238.912 146.8C239.482 154.666 240.28 164.052 240.28 170.55" stroke="black" stroke-width="1.5" stroke-linecap="round" stroke-linejoin="round"/>
<path d="M112.562 135.628C125.102 143.152 142.126 150.904 144.254 151.892C153.754 148.016 185.176 133.836 198.054 125.368C205.576 120.424 207.744 110.206 207.782 104.734" stroke="black" stroke-width="1.5" stroke-linecap="round" stroke-linejoin="round"/>
<path d="M198.062 125.4C203.04 130.644 222.306 127 227.284 108.946" stroke="black" stroke-width="1.5" stroke-linecap="round" stroke-linejoin="round"/>
<path d="M199.62 83.72C204.532 82.2838 209.626 81.567 214.744 81.592C213.68 85.658 214.144 91.13 215.884 87.368C217.624 83.606 221.982 86.506 218.884 91.282C218.38 92.2792 218.172 93.4002 218.288 94.5116C218.402 95.6232 218.834 96.6784 219.53 97.552" stroke="black" stroke-width="1.5" stroke-linecap="round" stroke-linejoin="round"/>
<path d="M167.624 260.078C184.8 253.922 212.928 243.522 231.578 232.604C242.146 226.418 252.326 207.904 237.164 181.57C240.014 171.57 245.866 150.942 248.764 141.328" stroke="black" stroke-width="1.5" stroke-linecap="round" stroke-linejoin="round"/>
<path d="M202.318 197.036C138.63 225.384 127.472 231.846 125.482 243.738C123.784 253.886 128.104 264.068 165.8 325.938C176.288 328.788 195.972 322.442 200.304 310.938C188.98 287.938 177.2 264.738 173.438 258.004" stroke="black" stroke-width="1.5" stroke-linecap="round" stroke-linejoin="round"/>
<path d="M193.616 250.312C200.152 269.388 208.322 299.066 217.328 303.246C226.334 307.426 229.83 308.262 286.328 308.414C291.99 304.082 292.18 283.068 286.328 273.72C271.328 272.884 246.162 272.39 240.804 271.896C238.182 259.736 234.004 240.696 232.404 232.034" stroke="black" stroke-width="1.5" stroke-linecap="round" stroke-linejoin="round"/>
<path d="M198.518 314.304C201.208 316.534 203.654 319.044 205.814 321.79C201.254 334.52 183.214 358.612 168.384 367.77C167.51 357.928 171.158 338.016 175.794 326.312" stroke="black" stroke-width="1.5" stroke-linecap="round" stroke-linejoin="round"/>
<path d="M274.556 273.226C279.572 278.85 282.042 298.04 273.796 308.376" stroke="black" stroke-width="1.5" stroke-linecap="round" stroke-linejoin="round"/>
<path d="M158.96 314.684C170.512 317.23 188.76 312.594 194.604 299.408" stroke="black" stroke-width="1.5" stroke-linecap="round" stroke-linejoin="round"/>
<path d="M168.232 362.222C175.604 357.586 194.604 339.954 203.42 319.022" stroke="black" stroke-width="1.5" stroke-linecap="round" stroke-linejoin="round"/>
<path d="M287.97 277.026C290.254 276.76 292.564 276.76 294.848 277.026C301.27 282.226 319.206 303.74 319.434 323.006C309.098 321.606 293.708 311.416 288.768 304.842" stroke="black" stroke-width="1.5" stroke-linecap="round" stroke-linejoin="round"/>
<path d="M291.58 276.874C298.58 283.334 315.52 306.474 316.28 322.36" stroke="black" stroke-width="1.5" stroke-linecap="round" stroke-linejoin="round"/>
<path d="M177.618 151.892C178.606 163.71 182.818 195.744 183.618 205.396" stroke="black" stroke-width="1.5" stroke-linecap="round" stroke-linejoin="round"/>
<path d="M237.164 181.57C215.656 181.722 197.948 187.042 182.71 196.39" stroke="black" stroke-width="1.5" stroke-linecap="round" stroke-linejoin="round"/>
<path d="M181.912 311.682C173.628 295.608 156.452 258.938 152.766 251.262C169.942 242.598 213.604 224.434 221.128 219.76C228.652 215.086 231.616 209.082 223.636 182.406" stroke="black" stroke-width="1.5" stroke-linecap="round" stroke-linejoin="round"/>
<path d="M99.376 162.2C135.362 183.964 141.14 186.324 150.144 183.85C160.338 180.82 170.275 176.982 179.86 172.374" stroke="black" stroke-width="1.5" stroke-linecap="round" stroke-linejoin="round"/>
<path d="M153.45 182.9C163.6 176.174 174.502 164.47 178.416 159.8" stroke="black" stroke-width="1.5" stroke-linecap="round" stroke-linejoin="round"/>
<path d="M197.226 261.218C201.71 255.898 214.668 243.358 219.342 239.102" stroke="black" stroke-width="1.5" stroke-linecap="round" stroke-linejoin="round"/>
<path d="M52.674 94.284L53.992 101.734" stroke="black" stroke-width="1.5" stroke-linecap="round" stroke-linejoin="round"/>
<path d="M69.734 106.218L62.284 107.536" stroke="black" stroke-width="1.5" stroke-linecap="round" stroke-linejoin="round"/>
<path d="M57.8 123.278L56.482 115.828" stroke="black" stroke-width="1.5" stroke-linecap="round" stroke-linejoin="round"/>
<path d="M40.74 111.344L48.194 110.026" stroke="black" stroke-width="1.5" stroke-linecap="round" stroke-linejoin="round"/>
<path d="M62.284 107.536C61.359 107.7 60.4108 107.679 59.4936 107.476C58.5766 107.273 57.7084 106.891 56.939 106.352C56.1696 105.814 55.514 105.128 55.0098 104.336C54.5054 103.543 54.1622 102.659 54 101.734C54.1652 102.659 54.146 103.608 53.9438 104.526C53.7414 105.444 53.36 106.313 52.8212 107.084C52.2824 107.854 51.5968 108.511 50.8038 109.015C50.0108 109.52 49.126 109.864 48.2 110.026C49.1252 109.861 50.0738 109.88 50.9914 110.083C51.9092 110.285 52.7778 110.667 53.5478 111.206C54.3178 111.744 54.9738 112.43 55.4784 113.223C55.9828 114.016 56.326 114.9 56.488 115.826C56.3234 114.901 56.3428 113.953 56.545 113.035C56.7472 112.118 57.1284 111.249 57.6668 110.479C58.2052 109.709 58.89 109.053 59.6824 108.548C60.4746 108.043 61.3586 107.699 62.284 107.536Z" stroke="black" stroke-width="1.5" stroke-linecap="round" stroke-linejoin="round"/>
<path d="M334.748 207.068L336.636 217.752" stroke="black" stroke-width="1.5" stroke-linecap="round" stroke-linejoin="round"/>
<path d="M359.21 224.182L348.526 226.07" stroke="black" stroke-width="1.5" stroke-linecap="round" stroke-linejoin="round"/>
<path d="M342.098 248.644L340.208 237.96" stroke="black" stroke-width="1.5" stroke-linecap="round" stroke-linejoin="round"/>
<path d="M317.634 231.53L328.324 229.642" stroke="black" stroke-width="1.5" stroke-linecap="round" stroke-linejoin="round"/>
<path d="M348.526 226.07C347.198 226.306 345.838 226.278 344.522 225.988C343.206 225.698 341.96 225.15 340.856 224.378C339.75 223.606 338.81 222.622 338.086 221.486C337.362 220.348 336.868 219.08 336.636 217.752C336.872 219.078 336.846 220.438 336.556 221.756C336.266 223.072 335.72 224.318 334.948 225.422C334.176 226.526 333.192 227.468 332.056 228.192C330.92 228.916 329.652 229.408 328.324 229.642C329.65 229.406 331.012 229.434 332.326 229.724C333.642 230.014 334.888 230.562 335.992 231.334C337.096 232.106 338.038 233.09 338.76 234.226C339.484 235.364 339.976 236.632 340.208 237.96C339.972 236.632 340 235.272 340.29 233.956C340.58 232.64 341.128 231.394 341.9 230.29C342.672 229.184 343.656 228.244 344.792 227.52C345.93 226.796 347.198 226.302 348.526 226.07Z" stroke="black" stroke-width="1.5" stroke-linecap="round" stroke-linejoin="round"/>
<path d="M108.154 55.638C106.596 58.488 105.19 61.262 103.898 63.884C93.676 84.974 91.662 98.92 91.698 109.332C91.736 114.462 92.23 118.718 92.498 122.594V122.632C93.22 123.05 93.898 123.468 94.74 123.962C96.26 121.562 97.514 122.024 101.238 123.848C106.368 126.356 106.862 126.584 107.238 130.194C107.276 130.65 107.314 131.068 107.39 131.486C110.962 129.472 115.028 127.458 119.664 124.486C128.442 118.824 139.006 109.552 151.052 89.45C152.572 86.904 154.13 84.25 155.688 81.356L108.154 55.638ZM123.506 97.248L121.074 108.8L115.8 98.236L104.096 99.566L112.496 91.244L107.632 80.49L118.12 85.89L126.822 77.986L124.922 89.652L135.182 95.466L123.506 97.248Z" stroke="black" stroke-width="1.5" stroke-linejoin="round"/>
<path d="M92.498 153.526C92.574 150.068 94.208 146.382 96.898 141.366C96.3386 139.511 96.1968 137.556 96.4828 135.64C96.7688 133.725 97.4754 131.896 98.552 130.286C97.8702 131.34 97.0762 132.317 96.184 133.2C97.324 135.518 95.462 139.052 92.156 137.38L92.612 138.102C96.64 140.382 93.98 145.55 89.686 143.502L90.486 144.224C94.438 146.314 91.968 151.368 87.712 149.506C85.85 148.67 84.33 148.062 83.076 147.53C79.808 150.152 75.742 150.76 68.978 149.81L98.314 165.694C94.132 160.936 92.384 157.364 92.498 153.526Z" stroke="black" stroke-width="1.5" stroke-linejoin="round"/>
<path d="M68.026 149.291L60.882 158.639L95.424 177.373L99.376 166.277L68.026 149.291Z" stroke="black" stroke-width="1.5" stroke-linejoin="round"/>
</svg>
