<svg width="400" height="400" viewBox="0 0 400 400" fill="none" xmlns="http://www.w3.org/2000/svg">
<path d="M56.25 262.5H393.75V275C393.75 276.658 393.092 278.247 391.919 279.419C390.747 280.592 389.158 281.25 387.5 281.25H62.5C60.8424 281.25 59.2527 280.592 58.0806 279.419C56.9085 278.247 56.25 276.658 56.25 275V262.5Z" fill="#3380FF" stroke="#231F20" stroke-width="6.25" stroke-linecap="round" stroke-linejoin="round"/>
<path d="M56.25 262.5H181.25V275C181.25 276.658 180.592 278.247 179.419 279.419C178.247 280.592 176.658 281.25 175 281.25H62.5C60.8424 281.25 59.2527 280.592 58.0806 279.419C56.9085 278.247 56.25 276.658 56.25 275V262.5Z" fill="#1E4BDE" stroke="#231F20" stroke-width="6.25" stroke-linecap="round" stroke-linejoin="round"/>
<path d="M118.75 68.75H331.25C347.826 68.75 363.723 75.3348 375.444 87.0558C387.165 98.7768 393.75 114.674 393.75 131.25V262.5H56.25V131.25C56.25 114.674 62.8348 98.7768 74.5558 87.0558C86.2768 75.3348 102.174 68.75 118.75 68.75Z" fill="#4EF7FF" stroke="#231F20" stroke-width="6.25" stroke-linecap="round" stroke-linejoin="round"/>
<path d="M331.25 68.75H306.25C322.826 68.75 338.723 75.3348 350.444 87.0558C362.165 98.7768 368.75 114.674 368.75 131.25V262.5H393.75V131.25C393.75 114.674 387.165 98.7768 375.444 87.0558C363.723 75.3348 347.826 68.75 331.25 68.75Z" fill="#33DDFF" stroke="#231F20" stroke-width="6.25" stroke-linecap="round" stroke-linejoin="round"/>
<path d="M118.75 68.75H143.75C160.326 68.75 176.223 75.3348 187.944 87.0558C199.665 98.7768 206.25 114.674 206.25 131.25V262.5H56.25V131.25C56.25 114.674 62.8348 98.7768 74.5558 87.0558C86.2768 75.3348 102.174 68.75 118.75 68.75Z" fill="#33DDFF" stroke="#231F20" stroke-width="6.25" stroke-linecap="round" stroke-linejoin="round"/>
<path d="M118.75 68.75C126.958 68.75 135.085 70.3666 142.668 73.5075C150.251 76.6484 157.141 81.2522 162.944 87.0558C168.748 92.8595 173.352 99.7494 176.492 107.332C179.633 114.915 181.25 123.042 181.25 131.25V262.5H56.25V131.25C56.25 114.674 62.8348 98.7768 74.5558 87.0558C86.2768 75.3348 102.174 68.75 118.75 68.75Z" fill="#3380FF" stroke="#231F20" stroke-width="6.25" stroke-linecap="round" stroke-linejoin="round"/>
<path d="M262.5 281.25H193.75V393.75H262.5V281.25Z" fill="#E4AC4D" stroke="#231F20" stroke-width="6.25" stroke-linecap="round" stroke-linejoin="round"/>
<path d="M268.75 281.25H225V393.75H268.75V281.25Z" fill="#FFF7AE" stroke="#231F20" stroke-width="6.25" stroke-linecap="round" stroke-linejoin="round"/>
<path d="M268.75 281.25H225V293.75H268.75V281.25Z" fill="#FFC800" stroke="#231F20" stroke-width="6.25" stroke-linecap="round" stroke-linejoin="round"/>
<path d="M225 281.25H193.75V293.75H225V281.25Z" fill="#FF8B00" stroke="#231F20" stroke-width="6.25" stroke-linecap="round" stroke-linejoin="round"/>
<path d="M287.5 18.75C287.5 15.4348 286.183 12.2554 283.839 9.91117C281.495 7.56696 278.315 6.25 275 6.25H243.75C242.092 6.25 240.503 6.90848 239.331 8.08058C238.158 9.25268 237.5 10.8424 237.5 12.5V225H250V43.75H275C278.315 43.75 281.495 42.433 283.839 40.0888C286.183 37.7446 287.5 34.5652 287.5 31.25V18.75Z" fill="#FF3446" stroke="#231F20" stroke-width="6.25" stroke-linecap="round" stroke-linejoin="round"/>
<path d="M243.75 243.75C254.105 243.75 262.5 235.355 262.5 225C262.5 214.645 254.105 206.25 243.75 206.25C233.395 206.25 225 214.645 225 225C225 235.355 233.395 243.75 243.75 243.75Z" fill="#FFC800" stroke="#231F20" stroke-width="6.25" stroke-linecap="round" stroke-linejoin="round"/>
<path d="M142.624 262.5H25.2125C23.1062 262.5 21.0707 261.74 19.4795 260.36C17.8883 258.98 16.8483 257.073 16.5504 254.988L6.55041 184.987C6.37311 183.746 6.46456 182.482 6.81856 181.279C7.17256 180.077 7.78084 178.964 8.60223 178.017C9.42361 177.07 10.4389 176.31 11.5794 175.79C12.7198 175.269 13.9588 175 15.2125 175H130.124L142.624 262.5Z" fill="#21CE62" stroke="#231F20" stroke-width="6.25" stroke-linecap="round" stroke-linejoin="round"/>
<path d="M26.9987 237.5H53.125" stroke="#ECF8FF" stroke-width="6.25" stroke-linecap="round" stroke-linejoin="round"/>
<path d="M56.25 250H30.1237" stroke="#ECF8FF" stroke-width="6.25" stroke-linecap="round" stroke-linejoin="round"/>
<path d="M111.374 193.75L109.03 175H15.4529C14.1821 175 12.9266 175.277 11.7736 175.811C10.6206 176.346 9.59782 177.125 8.77642 178.094C7.95501 179.064 7.35468 180.201 7.01715 181.426C6.67963 182.651 6.61302 183.935 6.82196 185.189L6.82527 185.208C7.08726 186.78 7.77364 188.251 8.81032 189.462C9.84701 190.672 11.1946 191.576 12.7077 192.077L74.4366 212.5L111.374 193.75Z" stroke="#231F20" stroke-width="6.25" stroke-linecap="round" stroke-linejoin="round"/>
<path d="M180.934 125H43.8396C42.1027 125 40.3848 125.362 38.7956 126.063C37.2064 126.764 35.7806 127.788 34.6093 129.071C33.4381 130.353 32.5469 131.866 31.9927 133.512C31.4386 135.158 31.2335 136.901 31.3907 138.631L41.6183 251.131C41.9006 254.238 43.3342 257.127 45.6376 259.23C47.9409 261.334 50.9475 262.5 54.0668 262.5H181.25V131.25C181.25 129.14 181.139 127.056 180.934 125Z" fill="#FFC800" stroke="#231F20" stroke-width="6.25" stroke-linecap="round" stroke-linejoin="round"/>
<path d="M181.25 131.25C181.25 129.14 181.139 127.056 180.934 125H44.1174C42.3594 125 40.6213 125.371 39.0164 126.088C37.4115 126.806 35.9759 127.853 34.8035 129.163C33.631 130.473 32.7481 132.016 32.2122 133.69C31.6764 135.364 31.4997 137.133 31.6938 138.88C31.9488 141.175 32.8784 143.344 34.3652 145.112C35.8519 146.88 37.8292 148.167 40.0472 148.812L130.152 175H181.25V131.25Z" fill="#FFC800" stroke="#231F20" stroke-width="6.25" stroke-linecap="round" stroke-linejoin="round"/>
<path d="M88.9 243.75H57.65L55.15 218.75H86.4L88.9 243.75Z" fill="#FF8B00" stroke="#FF8B00" stroke-width="6.25" stroke-linecap="round" stroke-linejoin="round"/>
<path d="M181.25 262.5H87.5573C85.8501 262.5 84.161 262.15 82.5942 261.472C81.0273 260.795 79.6159 259.803 78.447 258.559C77.2781 257.314 76.3764 255.844 75.7976 254.238C75.2188 252.632 74.9752 250.924 75.0817 249.22L79.7692 174.22C79.9675 171.046 81.3683 168.067 83.6861 165.89C86.004 163.712 89.0646 162.5 92.2448 162.5H181.25V262.5Z" fill="#FFFCDF" stroke="#231F20" stroke-width="6.25" stroke-linecap="round" stroke-linejoin="round"/>
<path d="M91.4391 237.5H112.5" stroke="#231F20" stroke-width="6.25" stroke-linecap="round" stroke-linejoin="round"/>
<path d="M110.937 250H89.8766" stroke="#231F20" stroke-width="6.25" stroke-linecap="round" stroke-linejoin="round"/>
<path d="M118 196.875H93L94.5625 178.125H119.562L118 196.875Z" fill="#FF3446" stroke="#FF3446" stroke-width="6.25" stroke-linecap="round" stroke-linejoin="round"/>
<path d="M346.875 209.375H303.125V240.625H346.875V209.375Z" fill="#5796FF" stroke="#5796FF" stroke-width="6.25" stroke-linecap="round" stroke-linejoin="round"/>
<path d="M312.5 218.75H337.5" stroke="white" stroke-width="6.25" stroke-linecap="round" stroke-linejoin="round"/>
<path d="M337.5 231.25H312.5" stroke="white" stroke-width="6.25" stroke-linecap="round" stroke-linejoin="round"/>
<path d="M181.25 262.5H137.929C136.2 262.5 134.49 262.141 132.907 261.447C131.324 260.752 129.902 259.736 128.731 258.464C127.56 257.192 126.666 255.69 126.105 254.055C125.544 252.419 125.329 250.685 125.473 248.962L129.639 198.962C129.9 195.837 131.325 192.925 133.632 190.801C135.94 188.678 138.961 187.5 142.096 187.5H181.25V262.5Z" fill="#FF366A" stroke="#231F20" stroke-width="6.25" stroke-linecap="round" stroke-linejoin="round"/>
<path d="M158.719 250H139.969L141.531 237.5H160.281L158.719 250Z" fill="#FFB9C9" stroke="#FFB9C9" stroke-width="6.25" stroke-linecap="round" stroke-linejoin="round"/>
<path d="M143.094 200H161.844" stroke="#231F20" stroke-width="6.25" stroke-linecap="round" stroke-linejoin="round"/>
<path d="M143.094 212.5H152.469" stroke="#231F20" stroke-width="6.25" stroke-linecap="round" stroke-linejoin="round"/>
</svg>
