<svg width="890" height="593" viewBox="0 0 890 593" fill="none" xmlns="http://www.w3.org/2000/svg">
<path d="M438.8 466.2C520.649 466.2 587 457.246 587 446.2C587 435.154 520.649 426.2 438.8 426.2C356.951 426.2 290.6 435.154 290.6 446.2C290.6 457.246 356.951 466.2 438.8 466.2Z" fill="#E3E5FC"/>
<path d="M726.3 564C808.149 564 874.5 555.046 874.5 544C874.5 532.954 808.149 524 726.3 524C644.451 524 578.1 532.954 578.1 544C578.1 555.046 644.451 564 726.3 564Z" fill="#E3E5FC"/>
<path fill-rule="evenodd" clip-rule="evenodd" d="M591.6 273.8C595.1 253.1 596.9 228.4 596.9 199.7C596.9 146.9 590.3 106 576.8 77.0001C569.1 60.4001 559.7 46.4001 548.6 35.1001C537.4 23.9001 524.5 15.3001 509.8 9.4001C495.1 3.5001 478.7 0.600098 460.7 0.600098C433.4 0.600098 409.9 7.2001 390.2 20.4001C370.5 33.7001 355.4 52.9001 345.1 78.1001C339.2 93.3001 334.8 111.5 332 132.7C329.2 153.9 327.8 177.8 327.8 204.2C327.8 224.6 329.1 243.7 331.6 261.3C334.2 278.9 338.2 295 343.6 309.5C354.3 336.1 370.2 356.9 391.3 372C412.4 387.1 436.3 394.6 462.9 394.6C486.1 394.6 507.1 389 526 377.8C544.9 366.6 560.3 350.7 572.2 330C581.6 313.2 588.1 294.5 591.6 273.8ZM519.1 115.8C523 136.2 524.9 162.5 524.9 194.5C524.9 228.3 523.1 255.6 519.4 276.5C515.7 297.4 509.3 313.4 500.2 324.6C491.1 335.8 478.5 341.4 462.4 341.4C446.9 341.4 434.5 336 425.4 325.2C416.3 314.4 409.9 298.5 406 277.5C402.1 256.5 400.2 229.5 400.2 196.6C400.2 148.1 404.7 112.2 413.7 88.9001C422.7 65.6001 438.8 54.0001 461.9 54.0001C478 54.0001 490.6 59.2001 499.7 69.6001C508.8 80.0001 515.2 95.4001 519.1 115.8Z" fill="#978CFF"/>
<path fill-rule="evenodd" clip-rule="evenodd" d="M768.5 421V469.9C768.5 483 771.5 493 777.3 499.7C783.4 506.4 791.3 509.8 801.1 509.8C811.1 509.8 819 506.5 825 499.9C830.9 493.3 833.9 483.3 833.9 469.8V420.9H849.9C863.3 420.9 873.2 418.5 879.9 413.9C886.6 409.3 889.9 401.9 889.9 391.7C889.9 379.2 885.8 371.2 877.7 367.5C869.6 363.8 858.8 362 845.3 362H834V158.7C834 128.2 820.7 113 794.1 113C785.9 113 778.9 115.8 773 121.3C767.1 126.9 759.6 135.7 750.5 148L611.3 334.3C609.311 336.969 607.46 339.419 605.773 341.65C604.238 343.682 602.839 345.532 601.6 347.2C599 350.7 596.5 354.3 594 358.1C591.6 361.9 589.7 365.5 588.5 368.9C587.3 372.3 586.7 375.7 586.7 379C586.7 391.9 590.9 402.2 599.2 409.7C607.5 417.2 620 421 636.6 421H768.5ZM768.5 362.2H655.5L768.5 209.6V362.2Z" fill="#978CFF"/>
<path d="M148.4 593C230.249 593 296.6 584.046 296.6 573C296.6 561.954 230.249 553 148.4 553C66.5516 553 0.200195 561.954 0.200195 573C0.200195 584.046 66.5516 593 148.4 593Z" fill="#E3E5FC"/>
<path fill-rule="evenodd" clip-rule="evenodd" d="M192.5 452.8V501.7C192.5 514.9 195.6 524.8 201.3 531.7C207.4 538.4 215.3 541.8 225.1 541.8C235.1 541.8 243 538.5 249 531.9C254.9 525.3 257.9 515.3 257.9 501.8V452.9H273.9C287.3 452.9 297.2 450.5 303.9 445.9C310.6 441.3 313.9 433.9 313.9 423.7C313.9 411.2 309.8 403.2 301.7 399.5C293.6 395.8 282.8 394 269.3 394H258V190.5C258 160 244.7 144.8 218.1 144.8C209.9 144.8 202.9 147.6 197 153.1C191.1 158.7 183.6 167.5 174.5 179.8L35.3002 366.1C33.3114 368.769 31.4595 371.219 29.7733 373.45C28.2377 375.482 26.8394 377.332 25.6002 379C23.0002 382.5 20.5002 386.1 18.0002 389.9C15.6002 393.7 13.7002 397.3 12.5002 400.7C11.3002 404.1 10.7002 407.5 10.7002 410.8C10.7002 423.7 14.9002 434 23.2002 441.5C31.5002 449 44.0002 452.8 60.6002 452.8H192.5ZM192.6 394H79.6002L192.6 241.4V394Z" fill="#978CFF"/>
</svg>
