<svg xmlns="http://www.w3.org/2000/svg" viewBox="0 0 48 48"><title>43-Inbox</title><g id="_43-Inbox" data-name="43-Inbox"><path d="M45,0H3A3,3,0,0,0,0,3V45a3,3,0,0,0,3,3H45a3,3,0,0,0,3-3V3A3,3,0,0,0,45,0Zm1,45a1,1,0,0,1-1,1H3a1,1,0,0,1-1-1V33a1,1,0,0,1,1-1H14v4H10v2H38V36H34V32H45a1,1,0,0,1,1,1Zm0-14.82A3,3,0,0,0,45,30H33a1,1,0,0,0-1,1v5H16V31a1,1,0,0,0-1-1H3a3,3,0,0,0-1,.18V3A1,1,0,0,1,3,2H45a1,1,0,0,1,1,1Z"/><path d="M38,13a1,1,0,0,0-.29-.71l-7-7A1,1,0,0,0,30,5H13a3,3,0,0,0-3,3V25H8v2H40V25H38ZM31,8.41,34.59,12H32a1,1,0,0,1-1-1ZM36,25H12V8a1,1,0,0,1,1-1H29v4a3,3,0,0,0,3,3h4Z"/><rect x="17" y="16" width="14" height="2"/><rect x="17" y="20" width="9" height="2"/></g></svg>