<svg xmlns="http://www.w3.org/2000/svg" viewBox="0 0 48 48"><title>44-Photo</title><g id="_44-Photo" data-name="44-Photo"><path d="M46,10H34.41L28,3.59V1a1,1,0,0,0-1-1H21a1,1,0,0,0-1,1V3.64L13.59,10H2a2,2,0,0,0-2,2V46a2,2,0,0,0,2,2H46a2,2,0,0,0,2-2V12A2,2,0,0,0,46,10ZM22,2h4V3H22Zm-.53,3h5.11l5,5H16.43ZM46,46H2V12H46Z"/><path d="M5,44H43a1,1,0,0,0,1-1V15a1,1,0,0,0-1-1H5a1,1,0,0,0-1,1V43A1,1,0,0,0,5,44Zm2.41-2L20,29.41,32.59,42ZM42,42H35.41l-7-7L33,30.41l9,9ZM6,16H42V36.59l-8.29-8.29a1,1,0,0,0-1.41,0L27,33.59l-6.29-6.29a1,1,0,0,0-1.41,0L6,40.59Z"/><path d="M27,27a4,4,0,1,0-4-4A4,4,0,0,0,27,27Zm0-6a2,2,0,1,1-2,2A2,2,0,0,1,27,21Z"/></g></svg>