<svg xmlns="http://www.w3.org/2000/svg" viewBox="0 0 48 48"><title>48-Bank safe</title><g id="_48-Bank_safe" data-name="48-Bank safe"><path d="M43,0H5A5,5,0,0,0,0,5V39a5,5,0,0,0,4,4.9V47a1,1,0,0,0,1,1H15a1,1,0,0,0,1-1V44H32v3a1,1,0,0,0,1,1H43a1,1,0,0,0,1-1V43.9A5,5,0,0,0,48,39V5A5,5,0,0,0,43,0Zm3,39a3,3,0,0,1-3,3H36v2h6v2H34V43a1,1,0,0,0-1-1H15a1,1,0,0,0-1,1v3H6V44h6V42H5a3,3,0,0,1-3-3V5A3,3,0,0,1,5,2H43a3,3,0,0,1,3,3Z"/><path d="M41,6H7A1,1,0,0,0,6,7V37a1,1,0,0,0,1,1H41a1,1,0,0,0,1-1V7A1,1,0,0,0,41,6ZM40,36H8V8H40Z"/><path d="M21,19H35a1,1,0,0,0,1-1V14a1,1,0,0,0-1-1H21a1,1,0,0,0-1,1v4A1,1,0,0,0,21,19Zm1-4H34v2H22Z"/><rect x="21" y="21" width="2" height="2"/><rect x="25" y="21" width="2" height="2"/><rect x="29" y="21" width="2" height="2"/><rect x="33" y="21" width="2" height="2"/><rect x="21" y="25" width="2" height="2"/><rect x="25" y="25" width="2" height="2"/><rect x="29" y="25" width="2" height="2"/><rect x="33" y="25" width="2" height="2"/><rect x="21" y="29" width="2" height="2"/><rect x="25" y="29" width="2" height="2"/><rect x="29" y="29" width="2" height="2"/><rect x="33" y="29" width="2" height="2"/></g></svg>