<svg width="400" height="400" viewBox="0 0 400 400" fill="none" xmlns="http://www.w3.org/2000/svg">
<path d="M258.922 114.522C258.826 114.53 258.73 114.53 258.634 114.522C258.73 114.53 258.826 114.53 258.922 114.522Z" fill="#313553"/>
<path d="M259.27 114.486C259.33 114.478 259.388 114.464 259.446 114.444C259.388 114.464 259.33 114.478 259.27 114.486Z" fill="#313553"/>
<path d="M258.4 114.444C258.456 114.464 258.514 114.478 258.574 114.486C258.514 114.478 258.456 114.464 258.4 114.444Z" fill="#313553"/>
<path d="M259.2 61.072C269.392 61.0708 279.358 64.0924 287.834 69.7546C296.308 75.4168 302.914 83.4652 306.816 92.882C310.718 102.299 311.738 112.661 309.75 122.658C307.762 132.656 302.854 141.839 295.646 149.046C288.438 156.254 279.256 161.162 269.258 163.15C259.262 165.138 248.898 164.117 239.482 160.216C230.066 156.315 222.016 149.709 216.354 141.233C210.692 132.757 207.67 122.793 207.672 112.6C207.674 98.9342 213.102 85.8286 222.766 76.1654C232.428 66.5022 245.534 61.073 259.2 61.072ZM302.4 112.606C302.402 104.059 299.87 95.7026 295.124 88.5944C290.378 81.4862 283.63 75.9452 275.734 72.672C267.838 69.399 259.15 68.5408 250.766 70.2062C242.382 71.8716 234.682 75.9856 228.636 82.028C222.59 88.0704 218.474 95.7698 216.804 104.153C215.134 112.535 215.988 121.225 219.258 129.122C222.528 137.019 228.066 143.77 235.172 148.519C242.278 153.269 250.632 155.805 259.18 155.806H259.192C264.868 155.809 270.488 154.693 275.732 152.523C280.976 150.353 285.74 147.17 289.754 143.158C293.768 139.146 296.952 134.382 299.124 129.138C301.296 123.895 302.412 118.275 302.412 112.6L302.4 112.606Z" fill="#FFE8BB"/>
<path d="M258.922 114.522C259.014 114.53 259.106 114.53 259.198 114.522C259.106 114.53 259.014 114.53 258.922 114.522Z" fill="#313553"/>
<path d="M260.07 114.124L259.806 114.3C259.898 114.247 259.986 114.188 260.07 114.124Z" fill="#313553"/>
<path d="M257.114 113.026C257.122 113.085 257.136 113.144 257.156 113.2C257.136 113.143 257.122 113.085 257.114 113.026Z" fill="#313553"/>
<path d="M259.446 114.444C259.558 114.41 259.67 114.368 259.776 114.318C259.67 114.37 259.56 114.412 259.446 114.444Z" fill="#313553"/>
<path d="M257.078 112.678C257.068 112.77 257.068 112.862 257.078 112.954C257.07 112.862 257.07 112.77 257.078 112.678Z" fill="#313553"/>
<path d="M260.226 113.98L260.07 114.126C259.986 114.189 259.898 114.247 259.806 114.3H259.776C259.67 114.35 259.558 114.392 259.446 114.426C259.388 114.446 259.33 114.46 259.27 114.468H259.2C259.108 114.476 259.016 114.476 258.924 114.468C258.828 114.476 258.732 114.476 258.636 114.468H258.576C258.516 114.46 258.458 114.446 258.402 114.426C258.106 114.341 257.836 114.181 257.62 113.962C257.486 113.829 257.374 113.677 257.284 113.512C257.234 113.405 257.192 113.295 257.158 113.182C257.138 113.126 257.124 113.067 257.116 113.008C257.114 112.984 257.114 112.96 257.116 112.936C257.106 112.844 257.106 112.752 257.116 112.66C257.116 112.418 257.164 112.178 257.256 111.954C257.348 111.73 257.484 111.527 257.656 111.356L260.8 108.2V112.66C260.8 112.908 260.75 113.153 260.65 113.38C260.552 113.607 260.408 113.811 260.226 113.98Z" fill="#313553"/>
<path d="M260.766 79.888V107.474C259.548 107.112 258.24 107.195 257.078 107.708V79.888C257.078 79.3988 257.272 78.9298 257.618 78.584C257.964 78.2382 258.432 78.044 258.922 78.044C259.164 78.0436 259.404 78.0912 259.628 78.1838C259.852 78.2764 260.056 78.4122 260.226 78.5834C260.398 78.7548 260.534 78.9582 260.626 79.182C260.718 79.4058 260.766 79.6458 260.766 79.888Z" fill="#313553"/>
<path d="M260.766 107.474V108.226L257.618 111.374C257.446 111.545 257.31 111.748 257.218 111.972C257.126 112.196 257.078 112.436 257.078 112.678V107.708C258.24 107.195 259.548 107.112 260.766 107.474Z" fill="#313553"/>
<path d="M257.156 113.2C257.19 113.313 257.232 113.423 257.282 113.53C257.232 113.423 257.19 113.313 257.156 113.2Z" fill="#313553"/>
<path d="M274.578 99.634L264.022 110.2C263.448 109.069 262.494 108.177 261.326 107.682L271.964 97.038C272.132 96.8514 272.334 96.7006 272.562 96.595C272.79 96.4894 273.036 96.4312 273.286 96.4238C273.536 96.4166 273.786 96.4604 274.018 96.5526C274.252 96.6448 274.464 96.7836 274.642 96.9602C274.82 97.137 274.958 97.348 275.052 97.5806C275.146 97.8132 275.19 98.0622 275.186 98.3128C275.18 98.5634 275.122 98.81 275.018 99.038C274.914 99.2658 274.764 99.47 274.578 99.638V99.634Z" fill="#313553"/>
<path d="M261.326 107.672C262.494 108.166 263.448 109.058 264.022 110.19L260.222 113.99C260.394 113.82 260.532 113.618 260.624 113.394C260.718 113.17 260.764 112.93 260.762 112.688V108.226L261.316 107.672H261.326Z" fill="#313553"/>
<path d="M264.6 112.6C264.602 113.566 264.342 114.514 263.848 115.344C263.354 116.175 262.646 116.856 261.798 117.317C260.948 117.778 259.992 118.001 259.026 117.962C258.062 117.924 257.124 117.625 256.316 117.098C255.506 116.571 254.854 115.835 254.428 114.968C254.002 114.101 253.82 113.135 253.898 112.173C253.976 111.21 254.312 110.287 254.872 109.5C255.432 108.713 256.194 108.091 257.078 107.702V112.672C257.07 112.764 257.07 112.856 257.078 112.948C257.076 112.972 257.076 112.996 257.078 113.02C257.086 113.079 257.1 113.137 257.12 113.194C257.154 113.307 257.196 113.417 257.246 113.524C257.336 113.689 257.448 113.841 257.582 113.974C257.798 114.193 258.068 114.353 258.364 114.438C258.42 114.458 258.478 114.472 258.538 114.48H258.598C258.694 114.488 258.79 114.488 258.886 114.48C258.978 114.488 259.07 114.488 259.162 114.48H259.234C259.294 114.472 259.352 114.458 259.41 114.438C259.524 114.406 259.634 114.364 259.74 114.312H259.77L260.034 114.138L260.2 114L264 110.2C264.386 110.942 264.59 111.764 264.6 112.6Z" fill="#55DEFF"/>
<path d="M118 205.652C118.873 204.776 119.91 204.082 121.052 203.608C122.195 203.134 123.419 202.892 124.656 202.894C127.004 202.94 129.26 203.816 131.024 205.368L131.318 205.652C132.194 206.526 132.888 207.564 133.361 208.708C133.834 209.852 134.077 211.076 134.076 212.314C134.075 213.402 133.889 214.48 133.524 215.504C132.436 214.518 131.29 213.598 130.094 212.746C129.644 212.43 129.116 212.244 128.567 212.208C128.019 212.174 127.471 212.288 126.984 212.542C126.497 212.798 126.089 213.18 125.805 213.65C125.52 214.122 125.371 214.66 125.372 215.21H124.28C124.284 214.514 124.046 213.838 123.607 213.298C123.167 212.758 122.553 212.388 121.871 212.252C121.188 212.114 120.479 212.218 119.866 212.546C119.252 212.874 118.771 213.406 118.506 214.05C118.464 214.146 118.26 214.65 117.96 215.426L117.498 215.21V208.438H116.074C116.541 207.4 117.193 206.456 118 205.652Z" fill="#313553"/>
<path d="M133.544 215.504C132.842 217.45 131.517 219.11 129.776 220.226C128.799 219.308 127.764 218.456 126.676 217.672C126.013 217.23 125.553 216.542 125.397 215.76C125.241 214.978 125.402 214.168 125.844 213.504C126.286 212.84 126.974 212.38 127.756 212.224C128.537 212.068 129.349 212.23 130.012 212.672L130.114 212.742C131.31 213.594 132.456 214.518 133.544 215.504Z" fill="#313553"/>
<path d="M141.876 234.842C142.485 235.694 142.886 236.676 143.046 237.712C143.206 238.746 143.122 239.804 142.8 240.8C142.477 241.786 141.89 242.664 141.104 243.34C140.315 244.016 139.352 244.458 138.324 244.614L138.03 244.662C137.374 244.776 136.744 244.956 135.944 245.168L136.274 244.644C138.492 241.482 140.264 238.03 141.538 234.384L141.876 234.842Z" fill="#55DEFF"/>
<path d="M133.964 223.83L141.546 234.386C140.272 238.032 138.5 241.484 136.282 244.646L135.952 245.17C133.937 245.702 131.89 246.102 129.824 246.37C129.293 246.448 128.755 246.448 128.224 246.37C129.138 244.706 130.178 243.054 131.224 241.426C133.58 237.702 136.024 233.856 136.102 230.848C135.96 228.412 135.021 226.09 133.43 224.238L133.964 223.83Z" fill="#313553"/>
<path d="M221.562 256.8C221.598 265.884 206.674 275.424 206.674 275.424L206.206 275.49C205.966 273.82 205.67 272.132 205.334 270.474C209.51 267.602 216.96 262.188 217.572 256.656C217.986 252.938 217.608 250.414 214.622 249.326C217.764 248.954 221.536 249.892 221.562 256.8Z" fill="#55DEFF"/>
<path d="M372.832 257.376C374.256 263.792 373.584 267.08 371.162 268.43C370.14 268.682 369.09 268.792 368.038 268.756V268.4C371.602 254.716 362.092 256.236 359.628 253.382C357.164 250.528 358.318 244.7 357.228 241.726C356.138 238.752 352.884 238.398 351.166 237.45C348.396 235.918 347.056 232.084 347.002 226.96C347.002 224.594 346.45 222.16 344.918 221.282C340.886 218.982 338.868 226.258 338.79 226.54C337.934 224.776 336.898 223.104 335.696 221.554C335.596 221.08 335.47 220.614 335.318 220.154L335.696 220.028C336.464 217.534 338.496 213.732 341.578 212.542C341.964 212.4 342.368 212.314 342.778 212.29C345.938 212.09 350.378 215.024 351.19 221.548C352.138 228.948 353.59 231.202 355.352 232.036C357.114 232.87 360.352 233.346 361.414 236.314C362.476 239.282 361.294 245.114 363.814 247.968C366.334 250.822 371.4 250.954 372.832 257.376Z" fill="#FFE8BB"/>
<path d="M133.964 223.83L133.406 224.23C132.308 222.792 131.085 221.454 129.752 220.23C131.493 219.114 132.818 217.454 133.52 215.508C137.172 218.788 142.296 224.58 142.086 231.056C142.041 232.186 141.86 233.304 141.546 234.39L133.964 223.83Z" fill="#313553"/>
<path d="M199.91 251.05C199.599 250.106 199.086 249.24 198.406 248.516C197.726 247.79 196.896 247.222 195.974 246.85C199.128 244.872 202.6 243.45 206.236 242.65C211.9 241.694 223.274 241.364 225.46 250.922C221.916 242.686 213.012 244.752 210.44 245.642C206.828 247.296 203.388 249.306 200.174 251.642H200.024C200 251.442 199.962 251.244 199.91 251.05Z" fill="white"/>
<path d="M342.746 212.308C342.336 212.332 341.932 212.418 341.546 212.56C338.458 213.76 336.432 217.56 335.664 220.046L335.286 220.172C334.854 218.846 334.082 217.654 333.048 216.72C332.012 215.784 330.75 215.136 329.386 214.842C328.602 214.62 327.798 214.474 326.986 214.404C327.288 213.26 327.942 212.24 328.854 211.488C329.766 210.734 330.89 210.286 332.07 210.204C335.73 210.216 339.354 210.93 342.746 212.308Z" fill="#55DEFF"/>
<path d="M102.076 180.2C103.304 180.2 104.521 180.442 105.655 180.913C106.79 181.383 107.821 182.072 108.69 182.941C109.558 183.81 110.247 184.841 110.717 185.976C111.187 187.111 111.428 188.328 111.428 189.556C111.428 189.71 111.428 189.864 111.428 190.018C111.126 196.096 110.766 203.642 110.562 208.448H66.762V203L56.652 188.948C56.0616 188.122 55.7102 187.149 55.636 186.136C55.5616 185.124 55.7676 184.11 56.231 183.207C56.6946 182.303 57.3978 181.545 58.2636 181.015C59.1294 180.484 60.1246 180.202 61.14 180.2H102.076Z" fill="#55DEFF"/>
<path d="M131.02 205.368C129.257 203.816 127.001 202.94 124.652 202.894C124.914 196.427 126.033 190.023 127.98 183.85C128.409 182.769 129.154 181.841 130.117 181.189C131.08 180.536 132.217 180.188 133.38 180.19H137.74C138.758 180.19 139.755 180.471 140.624 181.002C141.492 181.533 142.197 182.293 142.661 183.198C143.126 184.103 143.332 185.119 143.256 186.134C143.181 187.149 142.827 188.123 142.234 188.95L131.02 205.368Z" fill="#55DEFF"/>
<path d="M301.648 201.638H319.378C318.684 203.696 317.386 205.496 315.65 206.802C313.916 208.108 311.826 208.86 309.656 208.956H293.838C291.668 208.86 289.58 208.108 287.844 206.802C286.11 205.496 284.81 203.696 284.118 201.638H301.648Z" fill="#313553"/>
<path d="M129.824 246.388C131.89 246.12 133.937 245.72 135.952 245.188C133.472 249.122 131.026 253.142 131.352 256.242C131.394 256.634 131.359 257.03 131.247 257.408C131.136 257.788 130.952 258.14 130.704 258.446C130.456 258.754 130.151 259.008 129.804 259.198C129.458 259.386 129.078 259.504 128.686 259.546C128.577 259.552 128.469 259.552 128.36 259.546C127.616 259.55 126.897 259.278 126.342 258.782C125.788 258.284 125.438 257.6 125.36 256.86C125.209 253.16 126.198 249.502 128.194 246.382C128.734 246.466 129.283 246.468 129.824 246.388Z" fill="#313553"/>
<path d="M44.582 292.106C44.582 295.368 69.214 298.006 99.654 298.006C113.136 298.006 125.488 297.49 135.054 296.63H135.126C134.716 304.85 135.321 313.088 136.926 321.16L136.506 321.268C131.56 323.068 120.074 325.786 99.426 325.786C86.927 325.818 74.487 324.072 62.48 320.6C59.6598 319.752 57.0676 318.278 54.898 316.288C46.324 310.418 44.132 301.208 44.132 292.57V292.1L44.582 292.106Z" fill="#313553"/>
<path d="M66.756 215.21C65.8864 215.168 65.0664 214.792 64.466 214.162C63.8656 213.532 63.5306 212.694 63.5306 211.824C63.5306 210.954 63.8656 210.116 64.466 209.486C65.0664 208.856 65.8864 208.48 66.756 208.438V215.21Z" fill="#313553"/>
<path d="M195.974 246.864C196.897 247.234 197.728 247.802 198.408 248.528C199.088 249.252 199.601 250.118 199.91 251.064C199.962 251.262 200 251.462 200.024 251.664C200.894 258.578 187.156 267.8 168.64 272.576C150.124 277.352 133.682 275.922 131.068 269.476C130.981 269.282 130.911 269.082 130.858 268.876C129.658 264.276 135.382 258.494 144.898 253.688C150.401 250.97 156.177 248.844 162.128 247.344C176.462 243.638 189.576 243.662 195.974 246.864Z" fill="#55DEFF"/>
<path d="M359.586 253.4C362.08 256.248 371.602 254.728 367.986 268.418V268.768C364.22 268.864 358.152 268.568 355.636 267.476C351.836 265.824 355.942 260.266 355.786 256.062C355.63 251.858 351.532 253.496 348.648 249.602C345.248 245.026 349.098 241.642 346.3 240.358C344.414 239.356 342.814 237.886 341.656 236.092C341.226 232.77 340.234 229.544 338.724 226.552C338.802 226.27 340.82 218.994 344.852 221.294C346.384 222.166 346.912 224.606 346.936 226.972C346.99 232.096 348.336 235.93 351.1 237.462C352.818 238.41 356.1 238.772 357.162 241.738C358.224 244.704 357.086 250.54 359.586 253.4Z" fill="#313553"/>
<path d="M200.756 331.83C200.756 331.83 236.976 335.008 219.512 342.522C198.45 351.594 165.618 348.398 158.09 345.766C149.09 342.606 148.85 338.954 148.844 338.766C154.018 341.932 161.016 343.26 171.2 343.104H171.302C187.072 343.358 195.2 340.054 200.756 331.83Z" fill="#313553"/>
<path d="M135.436 290.328C135.34 291.644 135.208 293.866 135.124 296.63H135.052C125.482 297.49 113.118 298 99.652 298C69.236 298 44.58 295.362 44.58 292.1C44.58 288.838 69.214 286.2 99.654 286.2C113.364 286.2 125.3 286.734 134.938 287.624L135.28 287.514C135.832 289.314 136.446 291.114 137.118 292.88C136.677 292.604 136.305 292.23 136.031 291.786C135.757 291.344 135.588 290.844 135.538 290.326L135.436 290.328Z" fill="#FFE8BB"/>
<path d="M308.702 213.094V213.694H294.8V208.954H308.708L308.702 213.094Z" fill="#FFE8BB"/>
<path d="M141.354 331.234C143.238 334.288 145.801 336.866 148.844 338.768C133.062 344.036 82.816 342.522 63.5 336.594C59.6104 335.506 56.1996 333.142 53.816 329.882C56.88 331.15 72.086 337.194 99.444 337.194C113.639 337.406 127.78 335.394 141.354 331.234Z" fill="#313553"/>
<path d="M335.676 221.566H267.826C268.06 219.94 268.786 218.422 269.908 217.222C271.03 216.02 272.492 215.188 274.098 214.842C276.716 213.972 287.53 213.744 294.794 213.696H308.702C314.596 213.738 322.682 213.896 326.988 214.404C327.8 214.474 328.604 214.62 329.388 214.842C330.752 215.136 332.014 215.784 333.05 216.72C334.084 217.654 334.856 218.846 335.288 220.172C335.444 220.63 335.572 221.094 335.676 221.566Z" fill="white"/>
<path d="M110.552 208.438H116.074C115.52 209.654 115.234 210.976 115.238 212.314C115.236 213.296 115.388 214.274 115.688 215.21H110.36C110.36 213.954 110.36 212.956 110.402 212.314C110.426 211.49 110.48 210.126 110.552 208.438Z" fill="#313553"/>
<path d="M124.28 215.21C124.278 215.608 124.198 216 124.046 216.368C124.046 216.416 123.174 218.478 122.208 221.404C120.14 220.848 118.323 219.604 117.058 217.876C117.4 216.898 117.714 216.076 117.96 215.426C118.26 214.638 118.464 214.146 118.506 214.05C118.771 213.406 119.252 212.874 119.866 212.546C120.479 212.218 121.188 212.114 121.871 212.25C122.553 212.388 123.167 212.758 123.607 213.298C124.046 213.838 124.284 214.514 124.28 215.21Z" fill="#313553"/>
<path d="M117.498 215.21L117.96 215.426C117.714 216.068 117.4 216.898 117.058 217.876C116.464 217.066 116.001 216.166 115.688 215.21H117.498Z" fill="#313553"/>
<path d="M110.36 238C110.371 240.574 109.369 243.048 107.571 244.89C105.772 246.73 103.321 247.79 100.748 247.84C99.6599 247.84 98.6339 247.876 97.7799 247.876C85.3981 247.72 73.0449 246.644 60.8219 244.662L60.5559 244.62C59.5263 244.462 58.5611 244.022 57.7687 243.346C56.9761 242.67 56.3879 241.786 56.0699 240.794C55.7471 239.8 55.6631 238.742 55.8247 237.708C55.9863 236.676 56.3889 235.694 56.9999 234.846L66.7499 221.262V215.214H110.35C110.318 220.544 110.336 230.534 110.36 238Z" fill="#55DEFF"/>
<path d="M357.958 312.706C357.958 312.706 387.936 320.222 339.382 328.404C291.862 336.404 253.612 324.71 245.544 312.706C245.544 312.706 258.088 324.722 301.744 324.722C350.912 324.71 357.958 312.706 357.958 312.706Z" fill="#313553"/>
<path d="M202.878 219.102C205.984 218.454 210.266 217.6 212.278 217.396C212.792 217.338 213.31 217.338 213.822 217.396C216.458 217.72 217.084 219.714 215.294 220.778C213.858 221.62 207.2 220.94 202.93 220.394C202.774 220.376 202.63 220.304 202.524 220.19C202.416 220.076 202.354 219.928 202.348 219.772C202.342 219.614 202.392 219.462 202.488 219.338C202.584 219.216 202.722 219.132 202.876 219.102H202.878Z" fill="#FFE8BB"/>
<path d="M205.52 292.69C205.882 291.422 206.194 290.076 206.458 288.664C206.452 288.578 206.466 288.492 206.5 288.412L206.866 288.478C206.866 288.478 209.3 314.6 203.8 326.4C202.934 328.278 201.92 330.084 200.766 331.8C195.21 340 187.082 343.328 171.33 343.082H171.228C161.044 343.238 154.046 341.882 148.872 338.744C145.819 336.85 143.246 334.276 141.352 331.222C140.364 329.67 139.482 328.052 138.714 326.38C137.956 324.698 137.362 322.946 136.942 321.148C135.324 313.078 134.72 304.838 135.142 296.618C135.226 293.854 135.358 291.632 135.454 290.316H135.556C135.606 290.834 135.775 291.334 136.049 291.776C136.323 292.22 136.695 292.594 137.136 292.87C141.624 296.402 155.188 298.968 171.218 298.968C187.528 298.986 201.298 296.318 205.52 292.69Z" fill="#FFE8BB"/>
<path d="M133.4 224.232C134.985 226.086 135.923 228.406 136.072 230.842C135.976 233.842 133.55 237.696 131.194 241.42C130.168 243.048 129.128 244.7 128.194 246.364C126.84 246.172 125.599 245.504 124.692 244.482C123.785 243.458 123.272 242.146 123.244 240.778C123.118 234.458 123.004 225.158 123.346 221.62C123.77 221.68 124.198 221.71 124.626 221.71C126.435 221.712 128.207 221.19 129.726 220.208C131.067 221.438 132.297 222.784 133.4 224.232Z" fill="#55DEFF"/>
<path d="M117.498 208.438V215.21H115.698C115.398 214.274 115.246 213.296 115.248 212.314C115.244 210.976 115.53 209.654 116.084 208.438H117.498Z" fill="#313553"/>
<path d="M168.64 272.582C187.156 267.806 200.894 258.582 200.024 251.67H200.174C200.174 251.67 200.774 253.316 201.592 255.982C203.084 260.744 204.332 265.58 205.334 270.468C205.67 272.126 205.966 273.814 206.206 275.484C206.488 277.424 206.692 279.346 206.806 281.196C206.968 283.6 206.866 286.014 206.5 288.396C206.506 288.482 206.492 288.568 206.458 288.648C206.194 290.06 205.858 291.406 205.52 292.674C201.32 296.274 187.52 298.97 171.2 298.97C155.17 298.97 141.6 296.404 137.118 292.872C136.446 291.1 135.832 289.272 135.28 287.506C133.469 281.598 132.045 275.578 131.02 269.484H131.068C133.682 275.928 150.148 277.352 168.64 272.582Z" fill="white"/>
<path d="M226.692 255.586C228.464 268.43 206.836 281.186 206.836 281.186H206.776C206.674 279.336 206.47 277.414 206.176 275.474L206.644 275.408C206.644 275.408 221.568 265.88 221.53 256.784C221.53 249.876 217.73 248.938 214.592 249.298C213.306 249.474 212.046 249.794 210.832 250.254C207.754 251.85 204.818 253.704 202.054 255.798L201.562 255.96C200.732 253.294 200.144 251.648 200.144 251.648C203.38 249.336 206.826 247.336 210.44 245.676C213.012 244.786 221.916 242.72 225.46 250.956C226.08 252.436 226.494 253.994 226.692 255.586Z" fill="white"/>
<path d="M213.83 217.36C218.906 217.78 231.81 224.22 235.132 235.16C239.788 250.498 238.034 271.476 247.07 284.892C248.228 286.636 249.554 288.264 251.028 289.752L251.112 289.668C249.004 272.504 257.3 264.226 257.3 264.226C256.514 260.448 256.51 256.55 257.286 252.77C258.064 248.992 259.606 245.412 261.818 242.25C261.15 234.844 263.292 227.458 267.818 221.56H335.668C336.87 223.11 337.906 224.78 338.762 226.546C340.274 229.546 341.266 232.782 341.694 236.116C341.954 238.16 341.954 240.23 341.694 242.274C343.902 245.432 345.44 249.01 346.216 252.784C346.992 256.558 346.988 260.452 346.206 264.226C346.206 264.226 354.484 272.504 352.38 289.668C352.38 289.668 360.058 300.482 357.95 312.7C357.95 312.7 350.904 324.716 301.75 324.716C258.088 324.716 245.55 312.7 245.55 312.7C244.904 308.64 245.144 304.488 246.252 300.53C243.414 297.8 240.87 294.78 238.664 291.518C229.664 278.104 233.186 255.918 228.53 240.586C223.874 225.254 202.93 220.406 202.93 220.406C207.2 220.952 213.858 221.606 215.294 220.79C217.094 219.726 216.458 217.732 213.822 217.408L213.83 217.36Z" fill="#55DEFF"/>
<path d="M123.372 221.638C122.98 221.584 122.591 221.506 122.208 221.404C123.174 218.478 124.008 216.416 124.046 216.368C124.198 216 124.278 215.608 124.28 215.21H125.368C125.368 215.694 125.484 216.17 125.708 216.598C125.932 217.028 126.255 217.396 126.652 217.672C127.74 218.454 128.775 219.308 129.752 220.226C128.233 221.208 126.461 221.73 124.652 221.728C124.224 221.728 123.796 221.698 123.372 221.638Z" fill="#313553"/>
<path d="M319.378 201.638H284.118C287.118 197.378 301.648 197.222 301.648 197.222C301.648 197.222 316.4 197.378 319.378 201.638Z" fill="white"/>
<path d="M66.8 208.438H110.552C110.48 210.126 110.426 211.478 110.402 212.314C110.402 212.956 110.366 213.954 110.36 215.21H66.76V208.438H66.8Z" fill="#313553"/>
<path d="M121.216 246.298C122.682 251.62 123.321 257.136 123.108 262.652C122.02 272.828 110.33 275.376 109.838 275.478C109.64 275.518 109.44 275.54 109.238 275.544C108.487 275.556 107.758 275.284 107.197 274.784C106.636 274.286 106.283 273.594 106.207 272.846C106.132 272.098 106.34 271.35 106.79 270.748C107.24 270.146 107.9 269.734 108.638 269.596C108.704 269.596 116.538 267.796 117.162 262.014C117.274 257.146 116.668 252.288 115.362 247.596C114.374 243.67 113.737 239.664 113.458 235.624C113.272 229.824 115.512 222.352 117.058 217.9C118.323 219.628 120.14 220.872 122.208 221.428C120.558 225.92 119.626 230.646 119.444 235.428C119.725 239.096 120.317 242.732 121.216 246.298Z" fill="#313553"/>
<path d="M259.204 164.14C287.666 164.14 310.738 141.067 310.738 112.606C310.738 84.1446 287.666 61.072 259.204 61.072C230.742 61.072 207.67 84.1446 207.67 112.606C207.67 141.067 230.742 164.14 259.204 164.14Z" stroke="#313553" stroke-width="0.601" stroke-linecap="round" stroke-linejoin="round"/>
<path d="M302.412 112.6C302.414 121.148 299.882 129.504 295.136 136.612C290.39 143.721 283.64 149.262 275.744 152.535C267.848 155.807 259.158 156.665 250.776 154.999C242.392 153.333 234.69 149.218 228.646 143.175C222.6 137.132 218.484 129.432 216.816 121.048C215.146 112.665 216.002 103.976 219.272 96.0784C222.544 88.1814 228.082 81.4316 235.19 76.6828C242.296 71.934 250.652 69.3996 259.2 69.4H259.212C270.67 69.4 281.658 73.9514 289.76 82.0528C297.86 90.1544 302.412 101.143 302.412 112.6Z" stroke="#313553" stroke-width="0.601" stroke-linecap="round" stroke-linejoin="round"/>
<path d="M294.794 208.956V213.094" stroke="#313553" stroke-width="0.601" stroke-linecap="round" stroke-linejoin="round"/>
<path d="M301.648 208.956H309.648C311.818 208.86 313.908 208.108 315.642 206.802C317.378 205.496 318.676 203.696 319.37 201.638H284.11C284.802 203.696 286.102 205.496 287.836 206.802C289.572 208.108 291.66 208.86 293.83 208.956H301.64" stroke="#313553" stroke-width="0.601" stroke-linecap="round" stroke-linejoin="round"/>
<path d="M308.702 208.956V213.094" stroke="#313553" stroke-width="0.601" stroke-linecap="round" stroke-linejoin="round"/>
<path d="M319.378 201.638C316.378 197.378 301.648 197.222 301.648 197.222C301.648 197.222 287.104 197.378 284.118 201.638" stroke="#313553" stroke-width="0.601" stroke-linecap="round" stroke-linejoin="round"/>
<path d="M335.676 221.566C335.576 221.092 335.45 220.626 335.298 220.166C334.866 218.84 334.094 217.648 333.06 216.714C332.024 215.778 330.762 215.13 329.398 214.836C328.614 214.614 327.81 214.468 326.998 214.398C322.692 213.888 314.598 213.732 308.712 213.69H294.8C287.536 213.738 276.724 213.966 274.104 214.836C272.498 215.182 271.036 216.012 269.914 217.214C268.794 218.416 268.066 219.934 267.832 221.56L335.676 221.566Z" stroke="#313553" stroke-width="0.601" stroke-linecap="round" stroke-linejoin="round"/>
<path d="M251.112 289.674C249.004 272.51 257.3 264.232 257.3 264.232C256.514 260.454 256.51 256.556 257.286 252.776C258.064 248.998 259.606 245.418 261.818 242.256C261.15 234.85 263.292 227.466 267.818 221.566" stroke="#313553" stroke-width="0.601" stroke-linecap="round" stroke-linejoin="round"/>
<path d="M338.77 226.558C340.282 229.556 341.274 232.79 341.702 236.122C341.962 238.166 341.962 240.236 341.702 242.28C343.91 245.438 345.448 249.016 346.224 252.79C347 256.564 346.996 260.458 346.214 264.232C346.214 264.232 354.492 272.51 352.388 289.674C352.388 289.674 360.066 300.488 357.958 312.706C357.958 312.706 350.912 324.722 301.758 324.722C258.096 324.722 245.558 312.706 245.558 312.706C244.912 308.646 245.152 304.494 246.26 300.536" stroke="#313553" stroke-width="0.601" stroke-linecap="round" stroke-linejoin="round"/>
<path d="M335.676 221.566C336.878 223.116 337.914 224.788 338.77 226.552" stroke="#313553" stroke-width="0.601" stroke-linecap="round" stroke-linejoin="round"/>
<path d="M263.476 265.662C263.476 265.662 275.822 270.112 298.164 270.136C327.364 270.166 339.382 265.662 339.382 265.662" stroke="#313553" stroke-width="0.601" stroke-linecap="round" stroke-linejoin="round"/>
<path d="M269.706 242.73C279.334 244.368 289.09 245.146 298.856 245.056C321.87 245.056 332.546 242.73 332.546 242.73" stroke="#313553" stroke-width="0.601" stroke-linecap="round" stroke-linejoin="round"/>
<path d="M261.074 290.292C273.036 294.23 285.572 296.148 298.164 295.97C327.364 295.97 341.184 290.292 341.184 290.292" stroke="#313553" stroke-width="0.601" stroke-linecap="round" stroke-linejoin="round"/>
<path d="M202.932 220.4C202.932 220.4 223.868 225.248 228.532 240.58C233.196 255.912 229.632 278.096 238.666 291.512C240.872 294.774 243.416 297.794 246.254 300.524C250.196 304.428 254.758 307.65 259.754 310.058" stroke="#313553" stroke-width="0.601" stroke-linecap="round" stroke-linejoin="round"/>
<path d="M213.83 217.36C218.906 217.78 231.81 224.22 235.132 235.16C239.788 250.498 238.034 271.476 247.07 284.892C248.228 286.636 249.554 288.264 251.028 289.752C253.956 292.914 257.854 295.014 262.106 295.718" stroke="#313553" stroke-width="0.601" stroke-linecap="round" stroke-linejoin="round"/>
<path d="M326.988 214.4C327.29 213.256 327.944 212.236 328.856 211.484C329.768 210.73 330.892 210.282 332.072 210.2C335.732 210.202 339.356 210.912 342.746 212.292" stroke="#313553" stroke-width="0.601" stroke-linecap="round" stroke-linejoin="round"/>
<path d="M338.77 226.558C338.848 226.276 340.866 219 344.898 221.3C346.43 222.172 346.958 224.612 346.982 226.978C347.036 232.102 348.382 235.936 351.146 237.468C352.864 238.416 356.146 238.778 357.208 241.744C358.27 244.71 357.086 250.544 359.608 253.4C362.13 256.256 371.624 254.728 368.008 268.418" stroke="#313553" stroke-width="0.601" stroke-linecap="round" stroke-linejoin="round"/>
<path d="M341.708 236.122C342.86 237.922 344.46 239.394 346.352 240.388C349.152 241.648 345.306 245.056 348.7 249.632C351.584 253.526 355.682 251.892 355.838 256.092C355.994 260.292 351.89 265.836 355.688 267.506C358.204 268.598 364.272 268.894 368.038 268.798C369.09 268.834 370.14 268.724 371.162 268.472C373.562 267.122 374.256 263.834 372.832 257.418C371.408 251.002 366.284 250.876 363.832 248.018C361.38 245.16 362.522 239.338 361.432 236.364C360.342 233.39 357.156 232.922 355.37 232.086C353.584 231.25 352.156 228.998 351.208 221.598C350.372 215.074 345.926 212.13 342.796 212.34C342.386 212.364 341.982 212.45 341.596 212.592C338.508 213.792 336.482 217.592 335.714 220.078" stroke="#313553" stroke-width="0.601" stroke-linecap="round" stroke-linejoin="round"/>
<path d="M213.824 217.4C213.312 217.342 212.794 217.342 212.28 217.4C210.266 217.6 205.984 218.458 202.88 219.106C202.726 219.136 202.588 219.22 202.492 219.342C202.396 219.466 202.346 219.618 202.352 219.776C202.358 219.932 202.42 220.08 202.528 220.194C202.634 220.308 202.778 220.38 202.934 220.398C207.204 220.944 213.862 221.598 215.298 220.782C217.086 219.714 216.448 217.72 213.824 217.4Z" stroke="#313553" stroke-width="0.601" stroke-linecap="round" stroke-linejoin="round"/>
<path d="M245.544 312.706C253.612 324.722 291.862 336.406 339.382 328.404C387.936 320.222 357.958 312.706 357.958 312.706" stroke="#313553" stroke-width="0.601" stroke-linecap="round" stroke-linejoin="round"/>
<path d="M260.766 107.474C260.954 107.528 261.14 107.595 261.32 107.674" stroke="#313553" stroke-width="0.601" stroke-linecap="round" stroke-linejoin="round"/>
<path d="M264.022 110.2C264.5 111.145 264.686 112.21 264.558 113.261C264.43 114.312 263.992 115.301 263.302 116.103C262.612 116.906 261.7 117.486 260.68 117.769C259.66 118.053 258.578 118.028 257.574 117.697C256.568 117.367 255.682 116.745 255.03 115.912C254.378 115.078 253.988 114.07 253.908 113.014C253.828 111.959 254.064 110.903 254.584 109.982C255.106 109.06 255.888 108.313 256.832 107.836C256.912 107.794 256.994 107.756 257.078 107.718" stroke="#313553" stroke-width="0.601" stroke-linecap="round" stroke-linejoin="round"/>
<path d="M259.24 70.1622V74.9682" stroke="#313553" stroke-width="0.601" stroke-linecap="round" stroke-linejoin="round"/>
<path d="M259.24 150.062V154.868" stroke="#313553" stroke-width="0.601" stroke-linecap="round" stroke-linejoin="round"/>
<path d="M216.796 112.606H221.61" stroke="#313553" stroke-width="0.601" stroke-linecap="round" stroke-linejoin="round"/>
<path d="M297.3 112.606H302.112" stroke="#313553" stroke-width="0.601" stroke-linecap="round" stroke-linejoin="round"/>
<path d="M229.352 82.718L232.754 86.118" stroke="#313553" stroke-width="0.601" stroke-linecap="round" stroke-linejoin="round"/>
<path d="M285.854 139.212L289.254 142.614" stroke="#313553" stroke-width="0.601" stroke-linecap="round" stroke-linejoin="round"/>
<path d="M229.352 142.74L232.754 139.338" stroke="#313553" stroke-width="0.601" stroke-linecap="round" stroke-linejoin="round"/>
<path d="M286.276 85.818L289.676 82.416" stroke="#313553" stroke-width="0.601" stroke-linecap="round" stroke-linejoin="round"/>
<path d="M242.028 73.904L243.988 78.296" stroke="#313553" stroke-width="0.601" stroke-linecap="round" stroke-linejoin="round"/>
<path d="M274.584 146.872L276.548 151.264" stroke="#313553" stroke-width="0.601" stroke-linecap="round" stroke-linejoin="round"/>
<path d="M220.564 129.962L224.956 128.002" stroke="#313553" stroke-width="0.601" stroke-linecap="round" stroke-linejoin="round"/>
<path d="M294.08 97.16L298.47 95.194" stroke="#313553" stroke-width="0.601" stroke-linecap="round" stroke-linejoin="round"/>
<path d="M278.146 74.504L276.002 78.812" stroke="#313553" stroke-width="0.601" stroke-linecap="round" stroke-linejoin="round"/>
<path d="M242.528 146.032L240.382 150.338" stroke="#313553" stroke-width="0.601" stroke-linecap="round" stroke-linejoin="round"/>
<path d="M221.23 93.5782L225.538 95.7242" stroke="#313553" stroke-width="0.601" stroke-linecap="round" stroke-linejoin="round"/>
<path d="M293.292 129.462L297.6 131.608" stroke="#313553" stroke-width="0.601" stroke-linecap="round" stroke-linejoin="round"/>
<path d="M206.674 291.218C206.408 291.79 206.012 292.294 205.52 292.69C201.32 296.29 187.52 298.986 171.2 298.986C155.17 298.986 141.6 296.42 137.118 292.888C136.677 292.612 136.305 292.238 136.031 291.794C135.757 291.352 135.588 290.852 135.538 290.334" stroke="#313553" stroke-width="0.601" stroke-linecap="round" stroke-linejoin="round"/>
<path d="M202.084 301.268C195.914 303.868 184.392 305.594 171.2 305.594C158.008 305.594 146.478 303.858 140.314 301.268" stroke="#313553" stroke-width="0.601" stroke-linecap="round" stroke-linejoin="round"/>
<path d="M148.838 338.768C145.797 336.866 143.236 334.288 141.354 331.234C140.366 329.682 139.484 328.064 138.716 326.392C137.957 324.71 137.364 322.958 136.944 321.16C135.326 313.09 134.722 304.85 135.144 296.63C135.228 293.866 135.36 291.644 135.456 290.328C135.516 289.482 135.558 289.012 135.558 289.012" stroke="#313553" stroke-width="0.601" stroke-linecap="round" stroke-linejoin="round"/>
<path d="M206.836 288.466C206.836 288.466 209.27 314.594 203.772 326.392C202.906 328.27 201.892 330.076 200.738 331.792C195.182 339.992 187.054 343.32 171.302 343.074H171.2C161.016 343.23 154.018 341.874 148.844 338.736" stroke="#313553" stroke-width="0.601" stroke-linecap="round" stroke-linejoin="round"/>
<path d="M195.974 246.864C196.897 247.234 197.728 247.802 198.408 248.528C199.088 249.252 199.601 250.118 199.91 251.064C199.962 251.262 200 251.462 200.024 251.664C200.894 258.578 187.156 267.8 168.64 272.576C150.124 277.352 133.682 275.922 131.068 269.476C130.981 269.282 130.911 269.082 130.858 268.876C129.658 264.276 135.382 258.494 144.898 253.688C150.401 250.97 156.177 248.844 162.128 247.344C176.462 243.638 189.576 243.662 195.974 246.864Z" stroke="#313553" stroke-width="0.601" stroke-linecap="round" stroke-linejoin="round"/>
<path d="M135.826 269.38C134.288 263.414 146.274 255.16 162.596 250.954C178.918 246.748 193.396 248.166 194.942 254.138" stroke="#313553" stroke-width="0.601" stroke-linecap="round" stroke-linejoin="round"/>
<path d="M198.426 263.888C189.809 270.202 180.043 274.774 169.674 277.346C159.065 280.25 147.963 280.88 137.094 279.19" stroke="#313553" stroke-width="0.601" stroke-linecap="round" stroke-linejoin="round"/>
<path d="M137.148 292.888C136.476 291.116 135.862 289.288 135.31 287.522C133.499 281.614 132.076 275.594 131.05 269.5" stroke="#313553" stroke-width="0.601" stroke-linecap="round" stroke-linejoin="round"/>
<path d="M200.174 251.664C200.174 251.664 200.774 253.31 201.592 255.976C203.084 260.738 204.332 265.574 205.334 270.462C205.67 272.12 205.966 273.808 206.206 275.478C206.488 277.418 206.692 279.34 206.806 281.19C206.968 283.594 206.866 286.008 206.5 288.39C206.506 288.476 206.492 288.562 206.458 288.642C206.194 290.054 205.858 291.4 205.52 292.668" stroke="#313553" stroke-width="0.601" stroke-linecap="round" stroke-linejoin="round"/>
<path d="M200.174 251.664C203.394 249.338 206.832 247.328 210.44 245.664C213.012 244.774 221.916 242.708 225.46 250.944C226.08 252.426 226.494 253.988 226.692 255.582C228.464 268.426 206.836 281.182 206.836 281.182" stroke="#313553" stroke-width="0.601" stroke-linecap="round" stroke-linejoin="round"/>
<path d="M202.084 255.814C204.848 253.72 207.784 251.866 210.862 250.27C212.084 249.818 213.354 249.504 214.646 249.338C217.788 248.978 221.562 249.938 221.586 256.824C221.622 265.908 206.698 275.448 206.698 275.448" stroke="#313553" stroke-width="0.601" stroke-linecap="round" stroke-linejoin="round"/>
<path d="M195.968 246.87C199.122 244.892 202.594 243.47 206.23 242.67C211.894 241.714 223.268 241.384 225.454 250.942" stroke="#313553" stroke-width="0.601" stroke-linecap="round" stroke-linejoin="round"/>
<path d="M214.646 249.338C217.646 250.426 218.01 252.938 217.596 256.668C216.996 262.2 209.534 267.614 205.358 270.486" stroke="#313553" stroke-width="0.601" stroke-linecap="round" stroke-linejoin="round"/>
<path d="M148.844 338.768C148.844 338.948 149.056 342.6 158.09 345.768C165.618 348.4 198.45 351.596 219.512 342.524C236.976 335.01 200.756 331.832 200.756 331.832" stroke="#313553" stroke-width="0.601" stroke-linecap="round" stroke-linejoin="round"/>
<path d="M135.184 180.2L156.12 141.4C156.376 140.915 156.502 140.372 156.486 139.823C156.47 139.275 156.312 138.74 156.029 138.271C155.745 137.801 155.345 137.413 154.868 137.143C154.39 136.873 153.851 136.732 153.302 136.732H148.562C147.459 136.732 146.388 137.104 145.522 137.788L142.886 139.862C141.398 141.036 139.567 141.692 137.672 141.728C135.777 141.764 133.922 141.179 132.39 140.062L129.092 137.662C128.253 137.054 127.244 136.726 126.208 136.726H45.574C45.0254 136.727 44.4862 136.87 44.0088 137.14C43.5314 137.41 43.132 137.799 42.8492 138.27C42.5664 138.74 42.4096 139.275 42.3944 139.823C42.3792 140.372 42.5058 140.915 42.762 141.4L63.698 180.184" stroke="#313553" stroke-width="0.601" stroke-linecap="round" stroke-linejoin="round"/>
<path d="M66.756 208.438V203L56.646 188.948C56.0554 188.121 55.7038 187.148 55.6298 186.135C55.5558 185.122 55.7622 184.108 56.2264 183.204C56.6906 182.3 57.3948 181.542 58.2614 181.012C59.1282 180.482 60.124 180.201 61.14 180.2H102.058C103.286 180.2 104.503 180.442 105.637 180.913C106.772 181.383 107.803 182.072 108.672 182.941C109.54 183.81 110.229 184.841 110.699 185.976C111.169 187.111 111.41 188.328 111.41 189.556C111.41 189.71 111.41 189.864 111.41 190.018C111.108 196.096 110.748 203.642 110.544 208.448" stroke="#313553" stroke-width="0.601" stroke-linecap="round" stroke-linejoin="round"/>
<path d="M110.36 215.21C110.318 220.544 110.36 230.534 110.36 237.996C110.371 240.57 109.369 243.044 107.571 244.886C105.772 246.726 103.321 247.786 100.748 247.836C99.6599 247.836 98.6339 247.872 97.7799 247.872C85.3981 247.716 73.0449 246.64 60.8219 244.658L60.5559 244.616C59.5263 244.458 58.5611 244.018 57.7687 243.342C56.9761 242.666 56.3879 241.782 56.0699 240.79C55.7471 239.796 55.6631 238.738 55.8247 237.704C55.9863 236.672 56.3889 235.69 56.9999 234.842L66.7499 221.258V215.21" stroke="#313553" stroke-width="0.601" stroke-linecap="round" stroke-linejoin="round"/>
<path d="M131.02 205.368L142.22 188.95C142.812 188.125 143.167 187.154 143.244 186.141C143.321 185.129 143.117 184.115 142.656 183.21C142.195 182.306 141.494 181.545 140.63 181.012C139.766 180.48 138.771 180.195 137.756 180.19H133.412C132.249 180.188 131.112 180.536 130.149 181.189C129.186 181.841 128.441 182.769 128.012 183.85C126.065 190.023 124.946 196.427 124.684 202.894" stroke="#313553" stroke-width="0.601" stroke-linecap="round" stroke-linejoin="round"/>
<path d="M128.22 246.382C126.866 246.19 125.625 245.522 124.718 244.5C123.811 243.476 123.298 242.164 123.27 240.796C123.144 234.476 123.03 225.176 123.372 221.638" stroke="#313553" stroke-width="0.601" stroke-linecap="round" stroke-linejoin="round"/>
<path d="M141.546 234.386L141.876 234.842C142.485 235.694 142.886 236.676 143.046 237.712C143.206 238.746 143.122 239.804 142.8 240.8C142.477 241.786 141.89 242.664 141.104 243.34C140.315 244.016 139.352 244.458 138.324 244.614L138.03 244.662C137.374 244.776 136.744 244.956 135.944 245.168" stroke="#313553" stroke-width="0.601" stroke-linecap="round" stroke-linejoin="round"/>
<path d="M141.354 331.234C127.781 335.398 113.64 337.41 99.444 337.194C72.086 337.194 56.88 331.15 53.816 329.882C52.9732 329.536 52.3014 328.87 51.947 328.03C51.5926 327.192 51.5844 326.246 51.924 325.4L53.124 322.35L49.708 319.2C38.708 311.678 37.092 299.212 37.842 288.458C39.122 269.492 60.738 245.144 60.738 245.144" stroke="#313553" stroke-width="0.601" stroke-linecap="round" stroke-linejoin="round"/>
<path d="M138.122 245.134C138.122 245.134 141.094 248.48 144.898 253.658" stroke="#313553" stroke-width="0.601" stroke-linecap="round" stroke-linejoin="round"/>
<path d="M45.49 282.2C49.966 266.64 64.792 249.946 64.792 249.946" stroke="#313553" stroke-width="0.601" stroke-linecap="round" stroke-linejoin="round"/>
<path d="M136.548 321.268C131.602 323.068 120.116 325.786 99.468 325.786C86.969 325.818 74.5289 324.072 62.5219 320.6C59.7017 319.754 57.1095 318.278 54.9399 316.288C46.3659 310.418 44.174 301.208 44.174 292.57V292.1C44.174 290.966 44.228 289.848 44.306 288.748" stroke="#313553" stroke-width="0.601" stroke-linecap="round" stroke-linejoin="round"/>
<path d="M59 184.054H99.438" stroke="#313553" stroke-width="0.601" stroke-linecap="round" stroke-linejoin="round"/>
<path d="M59 240.038C62.288 240.774 65.6194 241.302 68.974 241.618C73.414 241.938 99.438 243.418 99.438 243.418" stroke="#313553" stroke-width="0.601" stroke-linecap="round" stroke-linejoin="round"/>
<path d="M71.882 202.894H95.906" stroke="#313553" stroke-width="0.601" stroke-linecap="round" stroke-linejoin="round"/>
<path d="M79.2159 220.844H97.7799" stroke="#313553" stroke-width="0.601" stroke-linecap="round" stroke-linejoin="round"/>
<path d="M130.156 202.894H131.952" stroke="#313553" stroke-width="0.601" stroke-linecap="round" stroke-linejoin="round"/>
<path d="M135.052 296.63C125.482 297.49 113.118 298 99.652 298C69.236 298 44.58 295.362 44.58 292.1C44.58 288.838 69.214 286.2 99.654 286.2C113.364 286.2 125.3 286.734 134.938 287.624" stroke="#313553" stroke-width="0.601" stroke-linecap="round" stroke-linejoin="round"/>
<path d="M53.8099 329.882C56.1935 333.142 59.6043 335.506 63.4939 336.594C82.8099 342.522 133.056 344.036 148.838 338.768" stroke="#313553" stroke-width="0.601" stroke-linecap="round" stroke-linejoin="round"/>
<path d="M356.432 280.152H388.674" stroke="#313553" stroke-width="0.601" stroke-linecap="round" stroke-linejoin="round"/>
<path d="M216.31 280.152H228.842" stroke="#313553" stroke-width="0.601" stroke-linecap="round" stroke-linejoin="round"/>
<path d="M8.67395 280.152H36.07" stroke="#313553" stroke-width="0.601" stroke-linecap="round" stroke-linejoin="round"/>
<path d="M79.258 134.2C78.3638 132.603 77.8922 130.804 77.888 128.974C77.216 106.574 126.604 130.974 127.068 112.598C127.532 94.222 86.816 119.374 85.224 100.618C83.632 81.862 123.6 100.408 123.504 86.11C123.408 71.812 90.692 87.696 89.904 76.088C89.116 64.48 119.304 73.638 119.304 64.032C119.304 54.426 103.816 60.812 101.93 52.616C99.862 43.66 110.412 41.094 114.25 43.51" stroke="#313553" stroke-width="0.601" stroke-linecap="round" stroke-linejoin="round"/>
<path d="M92.902 172.826C88.502 151.582 127.068 170.32 127.068 150.338C127.068 135.782 101.33 142.986 87.092 139.314" stroke="#313553" stroke-width="0.601" stroke-linecap="round" stroke-linejoin="round"/>
</svg>
