<svg width="400" height="400" viewBox="0 0 400 400" fill="none" xmlns="http://www.w3.org/2000/svg">
<path d="M21.06 216.38L104.76 138.42H318.26L378.94 220.98L21.06 216.38Z" fill="#FFFDA9"/>
<path d="M21.06 216.38L34.1 328.5H44.1L40.26 237.88H358.2L348.98 326.98H359.74L378.94 220.98L21.06 216.38Z" fill="white"/>
<path d="M379.52 220C315.52 131.36 319.02 137.34 318.26 137.34C95.1 137.34 104.52 137.2 104.08 137.6L20.5 215.54C19.74 216.24 19.06 207.78 33.1 328.62C33.1335 328.862 33.253 329.084 33.4365 329.246C33.62 329.407 33.8555 329.498 34.1 329.5H44.1C45.72 329.5 45.34 334.2 41.3 238.88H357.1L347.98 326.88C347.966 327.019 347.981 327.16 348.025 327.293C348.069 327.427 348.141 327.549 348.235 327.653C348.329 327.756 348.444 327.839 348.573 327.896C348.701 327.952 348.84 327.981 348.98 327.98H359.74C359.974 327.983 360.202 327.902 360.382 327.752C360.562 327.601 360.682 327.391 360.72 327.16C381.32 213.24 380.28 221.12 379.52 220ZM105.16 139.42H317.76L377.06 220.1C366.38 219.78 311.56 219.36 23.56 215.42L105.16 139.42ZM358.9 326H350L359.12 238C359.131 237.861 359.113 237.722 359.068 237.59C359.023 237.458 358.952 237.337 358.858 237.234C358.764 237.131 358.65 237.048 358.523 236.99C358.397 236.933 358.259 236.902 358.12 236.9C77.48 236.9 43.88 236.78 39.96 237.02C38.7 237.02 38.9 231.3 42.98 327.52H34.98L22.16 217.52L377.74 222L358.9 326Z" fill="#5E503B"/>
<path d="M270.5 158.74H159.66C159.202 158.726 158.756 158.588 158.369 158.341C157.983 158.094 157.671 157.747 157.466 157.337C157.261 156.927 157.17 156.469 157.205 156.012C157.239 155.555 157.396 155.115 157.66 154.74L168.2 140.28C168.429 139.961 168.728 139.699 169.075 139.515C169.422 139.331 169.807 139.23 170.2 139.22H261.4C261.832 139.221 262.257 139.332 262.634 139.542C263.012 139.752 263.33 140.054 263.56 140.42L272.66 154.88C272.894 155.264 273.021 155.704 273.029 156.154C273.038 156.604 272.926 157.048 272.706 157.44C272.487 157.833 272.167 158.16 271.779 158.389C271.391 158.617 270.95 158.738 270.5 158.74Z" fill="#DFEDED"/>
<path d="M264.26 151.8C259.7 143.5 259.82 143.3 258.98 143.3C165.52 143.3 171.4 143.06 170.98 143.76L165.96 151.76C165.863 151.911 165.809 152.085 165.802 152.264C165.796 152.444 165.838 152.621 165.924 152.779C166.01 152.936 166.136 153.068 166.29 153.159C166.445 153.251 166.621 153.3 166.8 153.3H263.4C263.575 153.299 263.747 153.252 263.898 153.164C264.049 153.076 264.174 152.949 264.261 152.797C264.349 152.646 264.394 152.474 264.394 152.298C264.394 152.123 264.348 151.952 264.26 151.8ZM172.36 145.3H258.36L259.46 147.3H171.12L172.36 145.3ZM168.6 151.3L169.92 149.3H260.58L261.68 151.3H168.6Z" fill="#7F7F7F"/>
<path d="M259.82 67H171.68C169.206 67 167.2 69.0058 167.2 71.48V135.18C167.2 137.654 169.206 139.66 171.68 139.66H259.82C262.294 139.66 264.3 137.654 264.3 135.18V71.48C264.3 69.0058 262.294 67 259.82 67Z" fill="#DFEDED"/>
<path d="M273.5 154.34C263.7 138.52 264.28 139.56 263.68 139.06C264.193 138.552 264.6 137.948 264.878 137.282C265.157 136.616 265.3 135.902 265.3 135.18V71.48C265.3 70.7604 265.158 70.0478 264.883 69.3829C264.607 68.718 264.204 68.1139 263.695 67.6051C263.186 67.0962 262.582 66.6925 261.917 66.4171C261.252 66.1417 260.54 66 259.82 66H171.68C170.227 66 168.833 66.5774 167.805 67.6051C166.777 68.6328 166.2 70.0266 166.2 71.48V135.18C166.191 135.928 166.337 136.67 166.63 137.359C166.922 138.047 167.355 138.667 167.9 139.18C167.48 139.56 168.2 138.34 156.84 154.2C156.227 155.181 155.864 156.298 155.784 157.453C155.704 158.607 155.908 159.763 156.38 160.82C156.718 161.39 157.198 161.862 157.773 162.192C158.347 162.521 158.998 162.696 159.66 162.7H271.34C274.48 162.68 275.36 157.32 273.5 154.34ZM168.2 71.48C168.2 71.023 168.29 70.5705 168.465 70.1483C168.64 69.726 168.896 69.3424 169.219 69.0193C169.542 68.6961 169.926 68.4398 170.348 68.2649C170.77 68.09 171.223 68 171.68 68H259.82C260.743 68 261.628 68.3666 262.281 69.0193C262.933 69.6719 263.3 70.557 263.3 71.48V135.18C263.3 136.103 262.933 136.988 262.281 137.641C261.628 138.293 260.743 138.66 259.82 138.66H171.68C170.757 138.66 169.872 138.293 169.219 137.641C168.567 136.988 168.2 136.103 168.2 135.18V71.48ZM271.3 157.48C270.72 157.82 278.64 159.48 159.7 157.7C159.423 157.689 159.155 157.605 158.921 157.456C158.688 157.307 158.499 157.099 158.372 156.853C158.246 156.606 158.188 156.331 158.203 156.054C158.219 155.778 158.307 155.511 158.46 155.28C169.76 139.46 169.1 140.5 169.74 140.26C170.377 140.51 171.056 140.632 171.74 140.62C265.86 140.62 260.46 140.8 261.88 140.24C262.7 140.48 262.1 139.64 271.88 155.36C271.989 155.538 272.061 155.737 272.091 155.944C272.121 156.152 272.109 156.363 272.055 156.565C272 156.767 271.906 156.956 271.776 157.12C271.646 157.284 271.484 157.42 271.3 157.52V157.48Z" fill="#7F7F7F"/>
<path d="M258.44 75.1H172.98C172.56 75.1 172.22 75.4403 172.22 75.86V133.86C172.22 134.28 172.56 134.62 172.98 134.62H258.44C258.86 134.62 259.2 134.28 259.2 133.86V75.86C259.2 75.4403 258.86 75.1 258.44 75.1Z" fill="white"/>
<path d="M258.44 74.1H172.98C172.513 74.1 172.066 74.2854 171.735 74.6155C171.405 74.9456 171.22 75.3932 171.22 75.86V133.86C171.22 134.327 171.405 134.774 171.735 135.105C172.066 135.435 172.513 135.62 172.98 135.62H258.44C258.672 135.623 258.902 135.579 259.117 135.491C259.331 135.404 259.527 135.274 259.69 135.11C259.854 134.947 259.984 134.751 260.071 134.537C260.159 134.322 260.203 134.092 260.2 133.86V75.86C260.203 75.6281 260.159 75.3981 260.071 75.1833C259.984 74.9686 259.854 74.7735 259.69 74.6095C259.527 74.4456 259.331 74.316 259.117 74.2285C258.902 74.141 258.672 74.0973 258.44 74.1ZM258.2 133.62H173.22V76.1H258.2V133.62Z" fill="#7F7F7F"/>
<path d="M314.28 182.12C312.46 176.58 310.84 170.96 309.46 165.28L312.82 159.46C313.068 159.028 313.2 158.538 313.204 158.04C313.208 157.542 313.083 157.051 312.842 156.614C312.601 156.178 312.251 155.811 311.827 155.55C311.403 155.288 310.918 155.14 310.42 155.12L206 150.6C205.502 150.573 205.005 150.677 204.56 150.902C204.114 151.126 203.735 151.464 203.46 151.88C168.7 204.48 170.52 201.4 170.42 202.5C170.359 203.266 170.605 204.026 171.104 204.611C171.603 205.196 172.314 205.559 173.08 205.62L279.56 214C280.11 214.05 280.662 213.94 281.151 213.685C281.641 213.43 282.046 213.039 282.32 212.56L304 174.96C304.521 176.733 305.19 178.459 306 180.12C308.7 181.013 311.47 181.682 314.28 182.12Z" fill="#7F7F7F"/>
<path d="M276.82 208.54L188.54 201.58C188.221 201.55 187.911 201.457 187.627 201.307C187.344 201.157 187.093 200.953 186.889 200.706C186.685 200.459 186.531 200.174 186.437 199.868C186.343 199.561 186.31 199.239 186.34 198.92C186.34 198.06 184.1 201.14 213.38 156.74C213.61 156.393 213.927 156.111 214.298 155.921C214.67 155.732 215.084 155.642 215.5 155.66L302.58 159.44C302.995 159.457 303.399 159.581 303.752 159.8C304.106 160.018 304.397 160.324 304.598 160.688C304.799 161.051 304.903 161.461 304.9 161.876C304.896 162.292 304.786 162.699 304.58 163.06L279.14 207.34C278.912 207.744 278.572 208.073 278.159 208.287C277.747 208.5 277.282 208.588 276.82 208.54Z" fill="white"/>
<path d="M315.14 182C313.367 176.667 311.8 171.233 310.44 165.7L313.68 160C313.986 159.415 314.142 158.763 314.135 158.102C314.128 157.442 313.957 156.794 313.638 156.215C313.319 155.637 312.862 155.147 312.307 154.788C311.753 154.429 311.118 154.214 310.46 154.16L206.1 149.6C205.427 149.563 204.755 149.702 204.152 150.004C203.549 150.305 203.034 150.759 202.66 151.32L170.1 200.56C169.763 201.131 169.574 201.776 169.548 202.438C169.523 203.099 169.662 203.757 169.953 204.352C170.245 204.947 170.679 205.46 171.218 205.845C171.757 206.231 172.383 206.476 173.04 206.56L279.48 214.86C280.224 214.918 280.968 214.76 281.624 214.405C282.281 214.05 282.821 213.514 283.18 212.86L303.66 177.4C304.4 179.4 304.68 180.82 305.9 181.4C308.506 182.253 311.183 182.869 313.9 183.24C314.071 183.278 314.248 183.272 314.416 183.223C314.584 183.174 314.736 183.083 314.86 182.96C314.983 182.836 315.074 182.684 315.123 182.516C315.172 182.348 315.178 182.171 315.14 182ZM196.64 164C200.32 164.14 204.02 164.12 207.68 164L201.68 173.24L191.12 172.42L196.64 164ZM214 157.2C214.158 156.976 214.368 156.794 214.612 156.668C214.855 156.543 215.126 156.478 215.4 156.48L302.48 160.26C302.752 160.273 303.017 160.355 303.248 160.499C303.48 160.643 303.671 160.844 303.803 161.082C303.935 161.321 304.005 161.589 304.004 161.861C304.003 162.134 303.933 162.402 303.8 162.64L278.36 206.92C278.211 207.186 277.988 207.403 277.718 207.545C277.448 207.687 277.144 207.747 276.84 207.72L188.56 200.76C188.285 200.731 188.023 200.633 187.797 200.475C187.571 200.316 187.389 200.103 187.269 199.854C187.149 199.606 187.094 199.331 187.11 199.055C187.126 198.78 187.212 198.513 187.36 198.28L214 157.2ZM281.46 212C281.27 212.306 281 212.555 280.679 212.721C280.359 212.886 280 212.962 279.64 212.94L173.2 204.62C172.869 204.597 172.55 204.487 172.276 204.301C172.001 204.116 171.781 203.861 171.637 203.562C171.493 203.264 171.43 202.932 171.455 202.602C171.48 202.271 171.592 201.953 171.78 201.68L189.78 174.3L200.36 175.1L186 197.36C185.695 197.834 185.518 198.379 185.485 198.941C185.452 199.504 185.564 200.066 185.811 200.572C186.059 201.079 186.432 201.513 186.896 201.833C187.36 202.153 187.899 202.349 188.46 202.4L276.72 209.36C277.338 209.418 277.961 209.299 278.513 209.015C279.066 208.732 279.526 208.296 279.84 207.76L305.28 163.48C305.554 162.996 305.699 162.449 305.702 161.893C305.705 161.337 305.565 160.789 305.297 160.302C305.028 159.815 304.639 159.405 304.167 159.11C303.695 158.816 303.156 158.647 302.6 158.62L215.52 154.84C214.959 154.808 214.399 154.924 213.897 155.177C213.395 155.429 212.968 155.81 212.66 156.28L209.02 162C205.48 162.22 201.54 162.26 197.94 162.16L204.34 152.5C204.517 152.225 204.764 152.002 205.056 151.855C205.348 151.707 205.674 151.64 206 151.66L310.38 156.18C310.696 156.216 310.998 156.327 311.262 156.504C311.526 156.68 311.744 156.917 311.899 157.195C312.053 157.472 312.139 157.782 312.15 158.1C312.161 158.417 312.095 158.733 311.96 159.02L281.46 212ZM306.56 179.36C306.16 178.54 305.26 176.02 304.96 175.16L309.1 168C310.22 172.34 311.44 176.64 312.82 180.92C310.698 180.543 308.606 180.015 306.56 179.34V179.36Z" fill="#5E503B"/>
<path d="M326.52 209.28L349.86 196.02L356.48 199.48L334.58 213.3L326.52 209.28Z" fill="#C1C69B"/>
<path d="M356.94 198.6L350.32 195.14C349.64 194.78 351.48 193.92 326.02 208.42C325.861 208.506 325.729 208.633 325.636 208.788C325.544 208.943 325.495 209.12 325.495 209.3C325.495 209.48 325.544 209.657 325.636 209.812C325.729 209.967 325.861 210.094 326.02 210.18C334.5 214.4 334.38 214.58 335.06 214.18L356.96 200.36C357.118 200.273 357.249 200.144 357.34 199.988C357.43 199.832 357.477 199.654 357.475 199.474C357.473 199.294 357.422 199.117 357.328 198.963C357.234 198.809 357.1 198.684 356.94 198.6ZM334.52 212.16L328.64 209.22L349.88 197.22L354.48 199.62L334.52 212.16Z" fill="#7F7F7F"/>
<path d="M320.18 206.96L339.48 189.12L347.84 191.12L329.7 209.56L320.18 206.96Z" fill="#FEDAF6"/>
<path d="M348 190.14C338.88 187.98 339.26 187.9 338.72 188.38L319.42 206.22C319.289 206.341 319.192 206.496 319.141 206.667C319.09 206.838 319.085 207.02 319.128 207.194C319.171 207.368 319.26 207.527 319.385 207.654C319.51 207.782 319.667 207.874 319.84 207.92C329.84 210.66 329.74 210.86 330.34 210.26L348.48 191.82C348.6 191.691 348.684 191.534 348.726 191.363C348.767 191.192 348.763 191.013 348.715 190.844C348.666 190.675 348.575 190.522 348.45 190.398C348.325 190.275 348.17 190.186 348 190.14ZM329.32 208.44L322.1 206.44L339.68 190.18L345.8 191.64L329.32 208.44Z" fill="#7F7F7F"/>
<path d="M313.28 206.1L322.5 187.1L330.56 187.96L323.36 206.96L313.28 206.1Z" fill="#ABFFE1"/>
<path d="M330.66 186.96L322.66 186.1C322.456 186.08 322.251 186.122 322.072 186.223C321.893 186.323 321.749 186.475 321.66 186.66L312.44 205.66C312.368 205.807 312.332 205.969 312.337 206.132C312.342 206.296 312.387 206.456 312.468 206.598C312.549 206.74 312.663 206.86 312.801 206.948C312.939 207.035 313.097 207.087 313.26 207.1L323.42 207.96C323.623 207.959 323.82 207.897 323.987 207.783C324.155 207.669 324.285 207.508 324.36 207.32L331.56 188.32C331.613 188.171 331.631 188.012 331.611 187.855C331.592 187.698 331.537 187.547 331.45 187.415C331.362 187.283 331.246 187.174 331.108 187.095C330.971 187.016 330.818 186.969 330.66 186.96ZM322.66 205.9L314.78 205.22L323.06 188.16L329.06 188.82L322.66 205.9Z" fill="#7F7F7F"/>
<path d="M306.56 207.74L306.36 190.26L314.24 189.88L315.78 207.54L306.56 207.74Z" fill="#51BDBF"/>
<path d="M316.78 207.46L315.24 189.8C315.22 189.542 315.1 189.302 314.906 189.13C314.712 188.958 314.459 188.869 314.2 188.88L306.32 189.26C306.06 189.275 305.816 189.39 305.637 189.579C305.459 189.769 305.36 190.02 305.36 190.28L305.56 207.76C305.565 208.022 305.673 208.271 305.86 208.454C306.047 208.637 306.298 208.74 306.56 208.74L315.8 208.54C315.936 208.535 316.069 208.503 316.192 208.445C316.315 208.388 316.426 208.307 316.517 208.206C316.608 208.106 316.679 207.988 316.724 207.86C316.769 207.731 316.788 207.596 316.78 207.46ZM307.54 206.72L307.38 191.22L313.38 190.92L314.76 206.56L307.54 206.72Z" fill="#7F7F7F"/>
<path d="M260.52 182.82C257.693 180.021 253.966 178.314 250 178C249.628 178.04 249.252 178.04 248.88 178C248.42 177.74 248.52 177.86 248.52 170.88C248.52 169.7 248.52 168.24 247.02 167.9C245.52 167.56 244.22 168.8 243.2 169.48C240.454 171.314 237.965 173.507 235.8 176L228.58 175.1C226.86 174.88 224.08 174.04 223.2 176.14C223.011 176.912 223.03 177.72 223.255 178.483C223.48 179.245 223.902 179.934 224.48 180.48C225.624 181.869 226.973 183.076 228.48 184.06L225.24 187.38C224.03 188.338 223.058 189.563 222.4 190.96C222.214 191.506 222.213 192.097 222.398 192.643C222.582 193.189 222.942 193.659 223.42 193.98C224.74 194.72 226.74 193.98 228.08 193.66C230.577 192.99 232.986 192.03 235.26 190.8C238.32 189.1 236.12 188.66 240.58 193.42C241.63 194.718 242.863 195.856 244.24 196.8C247.64 198.8 248.94 190.8 248.96 187.24L260 184.5C260.173 184.459 260.332 184.374 260.462 184.253C260.592 184.132 260.688 183.979 260.741 183.809C260.793 183.639 260.8 183.458 260.762 183.285C260.723 183.112 260.64 182.951 260.52 182.82ZM247.36 185.2C246.08 185.56 247.06 186.54 246.26 190.72C245.26 195.38 245.06 195.86 242 192.06C240.928 190.925 239.913 189.737 238.96 188.5C238.71 188.08 238.323 187.758 237.864 187.591C237.405 187.423 236.902 187.419 236.44 187.58C235.143 188.175 233.881 188.843 232.66 189.58C231.72 190.04 224.36 193.14 224.04 191.58C223.92 191 223.82 190.98 230.54 184.24C230.722 184.056 230.824 183.808 230.824 183.55C230.824 183.292 230.722 183.044 230.54 182.86C228.879 181.878 227.375 180.651 226.08 179.22C225.495 178.676 225.067 177.986 224.84 177.22C224.7 176 226.4 176.56 227.18 176.66L233.38 177.44C234.282 177.667 235.21 177.774 236.14 177.76C237.3 177.54 237.2 176.14 241.96 172.32C243.035 171.474 244.164 170.699 245.34 170C245.7 169.8 246.12 169.38 246.24 170C246.3 170.952 246.3 171.908 246.24 172.86V176.2C246.24 182.44 250.24 177.04 257.52 182.76L247.36 185.2Z" fill="#FFAAD7"/>
<path d="M232.9 102.32C229.648 100.681 226.11 99.6895 222.48 99.4C221.74 99.12 222.16 99.78 217.18 87.88C216.88 87.16 215.8 87.3 215.46 87.88C213.156 91.6282 211.354 95.6627 210.1 99.88C203.6 99.88 203.66 99.6 201.36 100.06C198.62 101.04 200.3 103.96 201.84 105.12C203.162 105.978 204.437 106.906 205.66 107.9C206.3 108.8 203.66 111.2 203.08 116.86C203.08 122.34 208.46 117.3 214.42 114.06C217.64 115.9 218.22 117.18 222.42 119.8C222.664 119.995 222.968 120.101 223.28 120.101C223.592 120.101 223.896 119.995 224.14 119.8C224.358 119.52 224.516 119.197 224.602 118.853C224.688 118.509 224.701 118.15 224.64 117.8C224.64 117.04 224.64 117.8 224.12 111.52C223.6 108.74 224.12 108.76 225.42 108.08L232.84 104.08C232.997 103.995 233.129 103.871 233.222 103.72C233.316 103.568 233.369 103.395 233.375 103.217C233.381 103.039 233.34 102.863 233.257 102.705C233.174 102.548 233.051 102.415 232.9 102.32ZM223.16 106.98C222.684 107.353 222.322 107.854 222.117 108.423C221.912 108.993 221.871 109.608 222 110.2C222 110.74 222.38 115.54 222.52 117.32C218.8 115.08 215.72 111.48 213.96 111.86C213.076 112.203 212.247 112.675 211.5 113.26C209.399 114.674 207.169 115.886 204.84 116.88C205.032 114.652 205.643 112.481 206.64 110.48C207.101 109.672 207.4 108.782 207.52 107.86C207.52 106.58 206.56 106.18 203.7 104.04C203.06 103.662 202.486 103.183 202 102.62C201.34 101.62 202.44 101.7 203.14 101.72H210.6C212.3 101.72 211.12 99.06 216.04 90.44L219.36 98.44C220.48 102.22 223.36 101.26 225.86 101.84C227.302 102.161 228.709 102.623 230.06 103.22C225.38 105.72 225.2 105.64 223.16 106.98Z" fill="#FFAAD7"/>
<path d="M160.62 191.4C168.877 188.568 177.308 186.27 185.86 184.52C188.38 184.02 191.28 183.64 193.26 185.26C196.08 187.6 194.94 192.3 192.54 195.06C188.34 199.36 187.88 199.06 159.98 213.92L160.62 191.4Z" fill="#ABFFE1"/>
<path d="M193.26 185.26C191.26 183.62 188.38 184 185.86 184.52C181.62 185.38 177.44 186.4 173.3 187.52C172.611 190.515 172.864 193.65 174.024 196.496C175.183 199.341 177.194 201.76 179.78 203.42C184.72 200.82 188.24 199.42 192.54 195.06C194.94 192.3 196.1 187.58 193.26 185.26Z" fill="#FFD6AE"/>
<path d="M194.76 185.48C194.029 184.627 193.099 183.968 192.053 183.56C191.006 183.152 189.875 183.007 188.76 183.14C181.48 183.98 166.5 188.4 160.34 190.48C159.14 190.88 159.66 192.82 160.88 192.48V192.36C164.6 191.1 168.32 189.94 172.1 188.9C171.781 191.612 172.155 194.361 173.187 196.89C174.219 199.419 175.875 201.645 178 203.36L159.5 213.1C158.36 213.7 159.38 215.42 160.52 214.82C186.8 200.96 188.38 200.58 192.14 197C194.94 194.28 197.48 189.18 194.76 185.48ZM193.62 190.88C192 196.12 186.44 198.88 179.9 202.3C177.703 200.762 175.993 198.624 174.976 196.142C173.958 193.66 173.675 190.938 174.16 188.3C177.6 187.38 181.08 186.52 184.7 185.76C186.94 185.28 189.74 184.46 191.92 185.58C192.777 186.127 193.415 186.956 193.726 187.923C194.036 188.891 193.999 189.937 193.62 190.88Z" fill="#5E503B"/>
<path d="M145.68 304.38C142.118 303.847 138.522 303.573 134.92 303.56C134.92 317.14 135.86 318.12 134.64 319.94C133.96 320.514 133.109 320.844 132.22 320.88C125.953 321.926 120.101 324.696 115.32 328.88C113.32 330.6 111.54 333.54 113.18 335.56C113.681 336.061 114.294 336.435 114.969 336.651C115.644 336.867 116.361 336.918 117.06 336.8C124.42 336.34 129.86 329.22 137.06 328.04C142.46 337.7 137.62 348.58 143.2 350.52C147.2 351.58 149.6 347.38 149.64 343.3C149.831 340.502 149.649 337.691 149.1 334.94C148.66 332.74 148.24 329.18 146.8 327.44C157.44 327.6 159.6 332.56 165.1 333.76C165.872 334.005 166.7 334.01 167.475 333.775C168.25 333.539 168.935 333.074 169.44 332.44C172.96 325.68 153.66 321 146.78 319.08C146.61 319.061 146.452 318.982 146.335 318.858C146.218 318.733 146.148 318.571 146.14 318.4C145.467 313.758 145.313 309.056 145.68 304.38Z" fill="#DFEDED"/>
<path d="M164.12 323.86C158.789 321.472 153.235 319.617 147.54 318.32C147.06 318.18 147.28 318.32 147.14 318C146.3 314.7 146.64 308.4 146.64 304.52C146.684 304.402 146.699 304.275 146.686 304.149C146.672 304.024 146.63 303.903 146.562 303.797C146.494 303.69 146.403 303.601 146.295 303.536C146.187 303.47 146.066 303.431 145.94 303.42C142.29 302.884 138.609 302.596 134.92 302.56C134.658 302.57 134.409 302.678 134.224 302.864C134.038 303.049 133.93 303.298 133.92 303.56C133.92 319.88 135.42 319.32 132.24 319.88C127.162 320.693 122.323 322.604 118.06 325.48C115.2 327.48 109.38 331.9 112.4 335.96C115.02 339.46 120.94 337.2 124 335.62C128.24 333.44 132 330.18 136.68 329.08C141.14 339.08 137.36 345.72 140.86 349.92C141.359 350.495 141.982 350.948 142.683 351.246C143.383 351.543 144.143 351.677 144.903 351.636C145.663 351.596 146.403 351.382 147.068 351.012C147.733 350.642 148.305 350.125 148.74 349.5C152.08 345.5 150.86 337.1 149.74 331.94C149.555 330.77 149.205 329.632 148.7 328.56C152.755 328.952 156.644 330.37 160 332.68C162.7 334.36 168 336.8 170.36 333.04C172.96 328.76 167.16 325.4 164.12 323.86ZM168.64 332C168.311 332.327 167.909 332.57 167.467 332.709C167.025 332.848 166.556 332.879 166.1 332.8C163.984 332.395 161.983 331.528 160.24 330.26C156.238 327.678 151.583 326.29 146.82 326.26C146.645 326.261 146.473 326.308 146.322 326.396C146.171 326.484 146.046 326.611 145.958 326.763C145.871 326.914 145.826 327.086 145.826 327.262C145.826 327.437 145.872 327.608 145.96 327.76C146.922 329.301 147.53 331.036 147.74 332.84C148.896 337.122 149.04 341.613 148.16 345.96C147.64 347.78 145.98 349.96 143.82 349.4C140.3 348.6 141.1 342.16 141 339.64C140.882 335.374 139.86 331.181 138 327.34C137.889 327.151 137.72 327.004 137.518 326.921C137.315 326.838 137.091 326.824 136.88 326.88C132.921 327.967 129.185 329.74 125.84 332.12C123.06 334.12 116.48 337.22 114.12 334.98C112.68 333.62 114.76 330.6 116.12 329.46C120.79 325.432 126.49 322.787 132.58 321.82C133.638 321.74 134.642 321.319 135.44 320.62C136.84 318.86 136.3 317.74 136.12 304.62C138.99 304.663 141.855 304.876 144.7 305.26C144.37 309.787 144.565 314.337 145.28 318.82C145.76 320.56 148.3 320.64 149.78 321.04C155.94 322.74 164.22 324.84 168.3 329.04C168.656 329.438 168.88 329.936 168.94 330.466C169.001 330.996 168.896 331.532 168.64 332Z" fill="#5E503B"/>
<path d="M196.74 269.18C192.262 266.579 187.371 264.766 182.28 263.82C176.19 263.136 170.038 264.353 164.667 267.304C159.296 270.254 154.969 274.794 152.28 280.3C150.909 282.904 150.532 285.918 151.22 288.78C157.46 307.8 223.4 284.38 196.74 269.18Z" fill="#DFEDED"/>
<path d="M198.82 269.24C196.14 267.599 193.323 266.193 190.4 265.04C161.66 253.32 137.04 288.74 157.28 295.5C160.708 296.617 164.333 297.005 167.92 296.64C203.76 293.34 209.74 275.02 198.82 269.24ZM171.24 294.28C168.685 294.663 166.102 294.817 163.52 294.74C159.36 294.56 153.84 293.08 152.14 288.74C151.744 287.292 151.643 285.78 151.842 284.292C152.042 282.805 152.537 281.373 153.3 280.08C156.215 274.202 161.102 269.533 167.108 266.891C173.113 264.248 179.856 263.798 186.16 265.62C189.464 266.619 192.654 267.96 195.68 269.62C211.48 278.24 194.56 291.1 171.24 294.28Z" fill="#5E503B"/>
<path d="M184.44 246C185.037 244.978 185.849 244.097 186.82 243.42C189.32 242.14 192.16 244.56 193.5 247.02C206.12 270.32 171.5 291.82 153.32 296.84C137.94 301.1 118.78 301.08 103.9 294.84C91.64 289.7 89.9 273.3 90.4 261.36C90.3374 260.092 90.6655 258.835 91.34 257.76C92.6 256.16 94.96 256.14 97 256.26C122.14 257.76 137.32 260.04 161.26 255.1C169.82 253.26 179.22 253.08 184.44 246Z" fill="#51BDBF"/>
<path d="M194.94 247.5C193.22 243.98 188.64 239.68 185.06 243.5C183.42 245.24 181.78 249.82 171.9 252.06C170.2 252.44 152.52 255.46 147.38 256.06C132.42 257.84 125.02 256.74 101.06 255.28C98.5074 254.9 95.9126 254.9 93.36 255.28C88.74 256.42 89.36 261.98 89.36 265.7C89.36 277.82 92.56 290.92 103.68 295.7C117.18 301.38 134.92 302.2 149.68 298.84C173.74 293.34 206.18 270.48 194.94 247.5ZM153.36 295.5C139.021 299.599 123.819 299.599 109.48 295.5C105.522 294.589 101.856 292.697 98.82 290C92.46 283.46 91.28 272.7 91.38 263.58C91.38 261.78 91.04 258.88 92.7 257.72C94.36 256.56 97.52 257.12 99.54 257.26C128.18 259.12 137.42 260.38 160.14 256.18C164.34 255.4 168.14 254.94 171.66 254.18C186.08 250.96 185 243.9 188.38 243.9C188.972 243.961 189.545 244.139 190.067 244.424C190.589 244.709 191.049 245.095 191.42 245.56C193.709 248.41 195.039 251.909 195.22 255.56C196.26 274.12 170.8 290.5 153.36 295.52V295.5Z" fill="#5E503B"/>
<path d="M93.72 205.78C89.14 219.12 84.48 232.84 85.16 246.92C85.84 261 93.16 275.88 106.24 280.92C121 286.56 141.46 281.48 155.32 273.96C160.599 271.241 165.075 267.186 168.3 262.2C179.6 243.82 160.56 225.28 165.56 183.98L93.72 205.78Z" fill="#ABFFE1"/>
<path d="M92.82 205.52C87.58 220.74 81.98 237.12 85 253.4C87.34 265.94 95 278.22 107.54 282.46C121.36 287.12 141.14 282.8 154.32 275.7C170.04 267.24 174.76 257.18 172.1 239.8C170.1 226.38 163.34 210.62 166.64 184C166.8 182.74 164.8 182.74 164.64 184C160.3 219.12 173.5 236.18 170.46 253.48C169.809 256.948 168.459 260.247 166.493 263.177C164.526 266.106 161.983 268.605 159.02 270.52C146.034 279.324 130.408 283.379 114.78 282C100.78 280.58 91.5 270.24 87.88 257.12C83.34 240.6 88.88 222.6 94.72 206.08C95.14 204.86 93.22 204.34 92.72 205.56L92.82 205.52Z" fill="#5E503B"/>
<path d="M196.66 289.14C168.82 313.02 132.1 315.62 100.82 301.6C75.12 290.08 75.04 259.02 72.82 235C71.88 225.26 71.3 214.26 77.8 207C82.88 208.2 85.5 213.64 89.16 217.38C94.58 222.9 102.6 224.84 110.22 226.22C125.04 228.9 141.22 230.22 154.34 222.78C159.26 219.4 162 223.78 161.86 229.58C161.62 240.3 161.86 251.04 162.4 261.74C162.72 267.58 161.18 285.04 165.96 288.94C175.16 296.44 194.58 282.02 201.32 276.34C201.82 275.92 202.46 275.44 203.1 275.62C203.74 275.8 204.12 277.02 204.02 277.92C203.4 282.42 200.18 286.12 196.66 289.14Z" fill="#FFFDA9"/>
<path d="M204.62 275.58C203.6 273.9 201.74 274.66 200.62 275.58C193.34 281.58 179.24 291.84 170.04 289.76C161.54 288.38 164.04 274.82 163.36 261.22C161.82 230.3 164.42 225.54 160.52 221.7C157.52 218.76 153.76 221.98 150.82 223.32C142.728 226.642 133.943 227.919 125.24 227.04C116.71 226.403 108.26 224.963 100 222.74C86.38 218.52 86.94 208.6 78 206.06C77.8289 206.005 77.6456 206 77.4719 206.047C77.2983 206.093 77.1414 206.188 77.02 206.32C68.4 215.88 71.46 231.78 72.74 246.04C75.38 275.48 80 296.2 107.6 305.52C139.44 316.3 170.92 311.84 197.42 289.86C200.528 287.347 202.955 284.094 204.48 280.4C204.835 279.65 205.031 278.834 205.056 278.005C205.08 277.175 204.931 276.349 204.62 275.58ZM202.86 278.76C201.668 282.541 199.343 285.864 196.2 288.28C194.92 288.9 164.98 319.32 114.2 305.4C96.52 300.56 88.9 293.6 83.9 284.5C76.26 270.62 75.48 253.46 73.7 233.1C72.92 224.16 72.64 215.1 78.22 208.06C81.38 209.16 83.52 212.06 85.62 214.48C93.34 224.92 104 226.22 116.84 228.18C129.18 230.06 142.68 229.82 153.7 224.18C155.2 223.42 157.3 221.64 159 222.82C161.54 225.26 161 227.92 161 240.24C161 252.24 161.72 261.28 161.7 265.1C161.429 270.956 161.669 276.825 162.42 282.64C164.42 298.34 182.7 291.74 195.12 282.52C197.12 281.04 199.24 279.46 201.12 277.88C202.4 276.8 203.12 276.04 203.12 277.26C203.114 277.771 203.027 278.277 202.86 278.76Z" fill="#5E503B"/>
<path d="M118.7 222C121.174 233.261 127.692 243.224 137.02 250C139.399 251.981 142.334 253.175 145.42 253.42C146.962 253.519 148.49 253.075 149.739 252.165C150.989 251.256 151.88 249.938 152.26 248.44C152.343 246.203 151.697 243.999 150.42 242.16C146.42 234.68 142.92 226.52 143.26 218.04L118.7 222Z" fill="#ABFFE1"/>
<path d="M144.7 228.74C137.4 228.54 129.3 233.08 127.58 240.74C130.278 244.212 133.457 247.283 137.02 249.86C139.399 251.841 142.334 253.035 145.42 253.28C146.962 253.379 148.49 252.935 149.739 252.025C150.989 251.116 151.88 249.798 152.26 248.3C152.44 242.76 148.82 242 144.7 228.74Z" fill="#FFD6AE"/>
<path d="M62.5 180.16C57.5992 183.714 53.5483 188.311 50.6396 193.62C47.7309 198.929 46.0369 204.817 45.68 210.86C48.1254 207.341 51.3225 204.411 55.04 202.28C53.8951 208.032 53.4651 213.903 53.76 219.76C64.0524 211.177 70.7475 199.044 72.52 185.76C69.2373 184.602 66.1285 183.001 63.28 181L62.5 180.16Z" fill="#FFAAD7"/>
<path d="M72.8 184.84C69.493 183.603 66.3443 181.978 63.42 180C63.32 179.34 62.66 178.78 62 179.26C56.9843 182.937 52.8346 187.668 49.8424 193.121C46.8502 198.573 45.0882 204.614 44.68 210.82C44.6899 211.037 44.7687 211.244 44.9047 211.413C45.0408 211.582 45.2272 211.703 45.4368 211.759C45.6463 211.815 45.8682 211.802 46.0702 211.723C46.2722 211.644 46.4437 211.503 46.56 211.32C48.4992 208.591 50.8942 206.216 53.64 204.3C52.8672 209.401 52.5726 214.564 52.76 219.72C52.7627 219.916 52.8229 220.106 52.9329 220.268C53.043 220.43 53.1981 220.556 53.3791 220.631C53.5601 220.705 53.759 220.725 53.9512 220.687C54.1433 220.65 54.3202 220.557 54.46 220.42C64.8626 211.711 71.6501 199.44 73.5 186C73.5371 185.755 73.4874 185.505 73.3595 185.294C73.2317 185.082 73.0337 184.921 72.8 184.84ZM54.68 217.6C54.5078 212.538 54.951 207.475 56 202.52C56.0477 202.328 56.0383 202.126 55.973 201.939C55.9077 201.751 55.7894 201.587 55.6324 201.467C55.4754 201.346 55.2866 201.273 55.0891 201.258C54.8915 201.242 54.6938 201.285 54.52 201.38C51.6915 202.989 49.1557 205.065 47.02 207.52C48.5169 197.159 54.0534 187.812 62.42 181.52C62.4904 181.706 62.616 181.867 62.78 181.98C65.4576 183.845 68.3607 185.364 71.42 186.5C69.563 198.477 63.6542 209.454 54.68 217.6Z" fill="#5E503B"/>
<path d="M158 80.54C103.6 56.4 30.56 107.7 56.8 174.54C63.96 192.76 81.8 205.56 100.96 209.5C120.12 213.44 140.34 209.36 158.08 201.08C189.28 186.5 207.14 147.08 192.3 114.16C185.38 99.1238 173.172 87.1577 158 80.54Z" fill="#FFD6AE"/>
<path d="M158.52 79.66C127.68 66.18 92.52 75.66 70.02 98.74C60.0844 108.983 53.5167 122.018 51.1968 136.098C48.8769 150.178 50.9157 164.631 57.04 177.52C68.62 202.2 98.58 217.84 135.04 210.08C149.7 206.96 164.3 200.94 175.46 190.72C210.58 158.5 206.24 101.16 158.5 79.66C157.34 79.14 156.32 80.86 157.5 81.4C183.68 93.12 200.18 118.84 196 147.86C194.658 157.307 191.372 166.374 186.35 174.488C181.327 182.601 174.677 189.586 166.82 195C160.684 199.04 154.04 202.248 147.06 204.54C109.18 217.38 79.22 206 64 185.4C59.9183 179.659 56.9222 173.22 55.16 166.4C37.54 101.68 109.12 58.92 157.42 81.3C158.7 82 159.7 80.18 158.52 79.66Z" fill="#5E503B"/>
<path d="M58.68 94.92C62.08 91.16 63 87.06 64.98 82.48C71.36 67.64 85.5 57.54 100.16 51.78C115.38 45.78 134.88 51.78 148.56 59.5C154 62.58 159.32 66.2 165.32 68C171.32 69.8 178.04 69.68 183.02 65.76C181.36 67.3 178.14 77.16 176.4 77.16L183.28 76.8C177.02 90 161.72 96 147.58 99.34C129.268 103.643 110.564 106.062 91.76 106.56C85.8553 106.816 79.9418 106.325 74.16 105.1C74.76 110.12 79.14 162.32 79.88 162.14L71.32 164.14C70.68 161.02 67.32 142.76 61.6 144.74C57.94 146 60.52 154.74 57.42 157.14C56.82 157.58 51.28 156.64 49.74 157.36C44.36 150.3 41.1 139.52 40.34 130.7C38.84 113.42 48.34 106.34 58.68 94.92Z" fill="#FFAAD7"/>
<path d="M183.28 76H179.08C179.96 74.66 182.06 69.82 182.24 69.44C182.601 68.4511 183.129 67.5312 183.8 66.72C184.58 65.94 183.52 64.44 182.58 65.14C173.66 71.96 162.44 66.6 154.08 61.7C145.654 56.4111 136.458 52.464 126.82 50C117.328 47.5065 107.291 48.0734 98.14 51.62C89.5849 55.0475 81.7594 60.07 75.08 66.42C62.16 78.94 64.22 87.36 57.96 94.42C46.5 107.18 33.7 115.68 41.56 142.7C43.0541 148.19 45.5123 153.371 48.82 158C49.54 159.16 50.54 157.6 54.6 158.32C55.74 158.32 57.2 158.66 58.16 157.88C61.02 154.7 59.24 152.54 60.88 146.94C62.18 143.88 64.66 146.94 65.5 148.54C68 153.4 68.88 157.6 70.32 164.54C70.3902 164.794 70.5577 165.01 70.7861 165.141C71.0145 165.272 71.2854 165.307 71.54 165.24L80.1 163.24C80.2932 163.212 80.4742 163.128 80.6215 163C80.7688 162.872 80.8763 162.704 80.931 162.517C80.9858 162.329 80.9856 162.13 80.9304 161.943C80.8753 161.755 80.7676 161.588 80.62 161.46C79.5 154.18 76.12 114.42 75.26 106.5C93.12 110.18 146.18 105.22 169.36 92.5C175.641 89.0537 180.778 83.8469 184.14 77.52C184.233 77.3679 184.283 77.194 184.286 77.016C184.289 76.838 184.244 76.6625 184.156 76.5075C184.069 76.3526 183.941 76.2239 183.787 76.1347C183.633 76.0454 183.458 75.999 183.28 76ZM152 97.14C131.422 102.752 110.19 105.611 88.86 105.64C83.9918 105.745 79.1291 105.255 74.38 104.18C73.82 104.04 73.04 104.48 73.12 105.14C74.06 113.14 76.88 149.98 78.56 161.3L72 162.84C71.1917 157.578 69.6149 152.464 67.32 147.66C66.32 145.66 64.62 143.36 62.14 143.5C56.4 143.82 59.22 154.46 56.8 156.14C54.636 156.036 52.4674 156.191 50.34 156.6C44.8629 148.573 41.6818 139.203 41.14 129.5C39.96 113.72 49.7 106.16 59.32 95.5C64.58 89.88 64.26 80.98 73.8 70.38C82.66 60.8 97.46 51.62 110.36 50.38C115.335 50.0309 120.334 50.4082 125.2 51.5C149.8 57.34 152.36 66.22 168.56 69.74C172.456 70.5302 176.5 70.0971 180.14 68.5C179.111 71.1758 177.768 73.7203 176.14 76.08C174.8 77.9 175.62 78.08 176.14 78.08L181.6 78C175.62 88.64 163.4 94 152 97.14Z" fill="#5E503B"/>
<path d="M62.82 158.6C57.02 151.68 46.82 156.82 45.84 165.96C45.4459 169.921 46.1955 173.912 48 177.46C48.9692 179.906 50.4114 182.136 52.2441 184.024C54.0767 185.912 56.2638 187.419 58.68 188.46C61.1094 189.486 63.814 189.66 66.3552 188.956C68.8963 188.252 71.1251 186.71 72.68 184.58L62.82 158.6Z" fill="#FFD6AE"/>
<path d="M63.46 157.88C56.72 150.06 44.98 156.46 44.66 166.86C44.5087 172.424 46.2504 177.875 49.6 182.32C55.28 191.1 67.72 193.54 73.48 185.08C74.2 184.02 72.44 183.08 71.74 184.08C67.16 190.5 57.74 189.24 52.4 182.62C47.28 176.3 43.52 164.88 50.64 158.62C51.4333 157.904 52.362 157.354 53.3712 157.003C54.3805 156.652 55.4498 156.507 56.5162 156.576C57.5825 156.645 58.6242 156.927 59.5798 157.405C60.5354 157.883 61.3855 158.548 62.08 159.36C62.8 160.3 64.28 159.12 63.46 157.88Z" fill="#5E503B"/>
<path d="M174.46 137.6C181.319 137.6 186.88 132.039 186.88 125.18C186.88 118.321 181.319 112.76 174.46 112.76C167.601 112.76 162.04 118.321 162.04 125.18C162.04 132.039 167.601 137.6 174.46 137.6Z" fill="#FFAF9C"/>
<path d="M164.32 111.6C162.932 111.6 161.574 112.012 160.42 112.783C159.265 113.554 158.366 114.651 157.834 115.934C157.303 117.216 157.164 118.628 157.435 119.99C157.706 121.351 158.374 122.602 159.356 123.584C160.338 124.566 161.589 125.234 162.95 125.505C164.312 125.776 165.724 125.637 167.006 125.106C168.289 124.574 169.386 123.675 170.157 122.52C170.928 121.366 171.34 120.008 171.34 118.62C171.34 116.758 170.6 114.973 169.284 113.656C167.967 112.34 166.182 111.6 164.32 111.6Z" fill="#5E503B"/>
<path d="M106.72 161.46C113.579 161.46 119.14 155.899 119.14 149.04C119.14 142.181 113.579 136.62 106.72 136.62C99.8606 136.62 94.3 142.181 94.3 149.04C94.3 155.899 99.8606 161.46 106.72 161.46Z" fill="#FFAF9C"/>
<path d="M110.7 129.3C109.312 129.3 107.954 129.712 106.8 130.483C105.645 131.254 104.746 132.351 104.214 133.634C103.683 134.916 103.544 136.328 103.815 137.69C104.086 139.051 104.754 140.302 105.736 141.284C106.718 142.266 107.969 142.934 109.33 143.205C110.692 143.476 112.104 143.337 113.386 142.806C114.669 142.274 115.766 141.375 116.537 140.22C117.308 139.066 117.72 137.708 117.72 136.32C117.72 134.458 116.98 132.673 115.664 131.356C114.347 130.04 112.562 129.3 110.7 129.3Z" fill="#5E503B"/>
<path d="M154.1 145.14C152.13 147.547 149.365 149.171 146.304 149.721C143.242 150.271 140.085 149.711 137.4 148.14C137.169 148.005 136.894 147.967 136.635 148.034C136.377 148.102 136.155 148.269 136.02 148.5C135.885 148.731 135.847 149.006 135.914 149.265C135.982 149.523 136.149 149.745 136.38 149.88C139.443 151.685 143.048 152.343 146.55 151.735C150.053 151.126 153.225 149.292 155.5 146.56C156.32 145.58 154.9 144.14 154.1 145.14Z" fill="#5E503B"/>
<path d="M162.22 171.54C156.056 175.265 149.055 177.383 141.86 177.7C142.669 181.476 144.859 184.814 148 187.06C148.103 187.168 148.235 187.244 148.38 187.279C148.524 187.314 148.676 187.307 148.817 187.259C148.958 187.211 149.082 187.123 149.175 187.006C149.268 186.889 149.325 186.748 149.34 186.6C149.893 185.134 150.072 183.553 149.86 182C150.499 184.232 151.356 186.396 152.42 188.46C153.36 190.34 154.64 190.2 155.26 188.88C156.706 186.369 157.638 183.595 158 180.72C158.218 181.242 158.628 181.659 159.146 181.886C159.663 182.114 160.249 182.133 160.78 181.94C161.416 181.526 161.949 180.972 162.337 180.32C162.725 179.669 162.959 178.936 163.02 178.18C163.345 177.077 163.442 175.919 163.304 174.778C163.166 173.636 162.798 172.534 162.22 171.54Z" fill="#FFAAD7"/>
<path d="M163.08 171.08C162.946 170.853 162.729 170.688 162.474 170.62C162.219 170.553 161.948 170.589 161.72 170.72C155.707 174.334 148.889 176.396 141.88 176.72C141.68 176.72 140.94 177.22 141.04 177.8C141.238 179.631 141.811 181.401 142.723 183.001C143.634 184.601 144.866 185.996 146.34 187.1C148.9 189.1 149.72 188.38 150.34 186.52C151.28 188.72 152.68 191.7 154.82 190.52C155.536 190.037 156.076 189.335 156.36 188.52C157.336 186.668 158.049 184.689 158.48 182.64C159.177 182.948 159.96 183 160.691 182.788C161.423 182.576 162.056 182.113 162.48 181.48C163.488 179.953 164.074 178.187 164.179 176.361C164.284 174.534 163.905 172.713 163.08 171.08ZM162 178.46C161.82 179.7 160.76 181.58 159.6 180.86C159.1 180.86 158.98 180.24 159.02 179.68C159.02 179.55 158.994 179.421 158.944 179.3C158.893 179.18 158.819 179.071 158.726 178.98C158.633 178.889 158.522 178.817 158.401 178.769C158.28 178.721 158.15 178.697 158.02 178.7C156.98 178.7 156.74 180.06 157 181C156.752 183.459 156.075 185.855 155 188.08C154.72 188.6 154.24 189.2 153.56 188.08C152.494 186.035 151.591 183.908 150.86 181.72C150.793 181.486 150.643 181.283 150.439 181.149C150.235 181.015 149.99 180.959 149.748 180.991C149.506 181.022 149.284 181.139 149.121 181.321C148.958 181.502 148.865 181.736 148.86 181.98C148.96 182.837 148.96 183.703 148.86 184.56C148.64 186.04 148.86 186.88 146.4 184.56C144.827 182.979 143.726 180.992 143.22 178.82C149.855 178.486 156.305 176.521 162 173.1C162.616 174.834 162.616 176.726 162 178.46Z" fill="#5E503B"/>
<path d="M149.84 238.76C146.359 232.381 144.447 225.265 144.26 218C144.26 217.735 144.155 217.48 143.967 217.293C143.78 217.105 143.525 217 143.26 217C142.995 217 142.74 217.105 142.553 217.293C142.365 217.48 142.26 217.735 142.26 218C142.238 221.308 142.621 224.605 143.4 227.82C136.66 228.1 129.58 232.22 127.18 238.66C123.581 233.623 121.024 227.918 119.66 221.88C119.38 220.62 117.46 221.16 117.66 222.4C120.12 233.274 126.277 242.958 135.08 249.8C139.08 252.96 144.74 256.16 149.82 253.2C150.873 252.626 151.749 251.775 152.352 250.738C152.955 249.701 153.262 248.519 153.24 247.32C153.24 244.18 151.24 241.38 149.84 238.76ZM150.52 249.98C145.4 256.84 134.12 247.44 128.66 240.56C130.38 233.9 137.5 229.84 143.94 229.74C147.5 241.64 153.56 245.84 150.52 250V249.98Z" fill="#5E503B"/>
</svg>
