<svg width="400" height="400" viewBox="0 0 400 400" fill="none" xmlns="http://www.w3.org/2000/svg">
<path d="M32.54 200C32.54 242.435 49.3971 283.131 79.4029 313.137C109.409 343.143 150.105 360 192.54 360C234.975 360 275.671 343.143 305.677 313.137C335.683 283.131 352.54 242.435 352.54 200C352.54 157.565 335.683 116.869 305.677 86.8629C275.671 56.8571 234.975 40 192.54 40C150.105 40 109.409 56.8571 79.4029 86.8629C49.3971 116.869 32.54 157.565 32.54 200Z" fill="#D9EDFF"/>
<path d="M268 301.224H118.8C116.129 301.224 113.567 300.163 111.678 298.274C109.789 296.385 108.728 293.823 108.728 291.152V98C108.728 95.2152 109.834 92.5445 111.803 90.5754C113.773 88.6062 116.443 87.5 119.228 87.5H267.548C270.333 87.5 273.003 88.6062 274.973 90.5754C276.942 92.5445 278.048 95.2152 278.048 98V291.152C278.049 293.819 276.992 296.378 275.108 298.267C273.224 300.155 270.667 301.219 268 301.224Z" fill="#B0D9FF"/>
<path d="M268 301.224H118.8C116.129 301.224 113.567 300.163 111.678 298.274C109.789 296.385 108.728 293.823 108.728 291.152V98C108.728 95.2152 109.834 92.5445 111.803 90.5754C113.773 88.6062 116.443 87.5 119.228 87.5H267.548C270.333 87.5 273.003 88.6062 274.973 90.5754C276.942 92.5445 278.048 95.2152 278.048 98V291.152C278.049 293.819 276.992 296.378 275.108 298.267C273.224 300.155 270.667 301.219 268 301.224V301.224Z" stroke="#020064" stroke-width="4" stroke-linecap="round" stroke-linejoin="round"/>
<path d="M125.388 104.148H261.396V284.568H125.388V104.148Z" fill="white"/>
<path d="M261.396 165.956L221.9 208.756C219.409 211.462 218.095 215.047 218.245 218.722C218.395 222.396 219.997 225.862 222.7 228.356C224.396 229.919 226.46 231.029 228.7 231.58L215.86 244.424L217.824 246.388L200.48 263.728C199.703 264.501 199.173 265.486 198.954 266.56C198.736 267.634 198.84 268.748 199.252 269.763C199.665 270.778 200.369 271.648 201.275 272.265C202.181 272.881 203.248 273.216 204.344 273.228C204.747 273.227 205.149 273.186 205.544 273.104C220.744 269.872 228.476 265.204 228.564 259.212L229.612 258.16L233.54 262.088L243.2 252.4C243.885 252.948 244.618 253.431 245.392 253.844C247.946 255.204 250.862 255.731 253.731 255.352C256.599 254.974 259.278 253.708 261.392 251.732L261.396 165.956Z" fill="#B0D9FF"/>
<path d="M125.388 104.148H261.396V284.568H125.388V104.148Z" stroke="#020064" stroke-width="4" stroke-linecap="round" stroke-linejoin="round"/>
<path d="M144.776 148.56H229.588" stroke="#020064" stroke-width="4" stroke-linecap="round" stroke-linejoin="round"/>
<path d="M144.776 173.54H229.588" stroke="#020064" stroke-width="4" stroke-linecap="round" stroke-linejoin="round"/>
<path d="M144.776 201.3H203.888" stroke="#020064" stroke-width="4" stroke-linecap="round" stroke-linejoin="round"/>
<path d="M155.404 79.168H231.38C232.713 79.1722 233.99 79.7047 234.931 80.6487C235.872 81.5926 236.4 82.8711 236.4 84.204V110.204C236.4 111.541 235.869 112.823 234.924 113.768C233.979 114.713 232.697 115.244 231.36 115.244H155.408C154.071 115.244 152.789 114.713 151.844 113.768C150.899 112.823 150.368 111.541 150.368 110.204V84.204C150.368 82.8684 150.899 81.5874 151.843 80.643C152.787 79.6986 154.068 79.168 155.404 79.168Z" fill="white"/>
<path d="M155.404 79.168H231.38C232.713 79.1722 233.99 79.7047 234.931 80.6487C235.872 81.5926 236.4 82.8711 236.4 84.204V110.204C236.4 111.541 235.869 112.823 234.924 113.768C233.979 114.713 232.697 115.244 231.36 115.244H155.408C154.071 115.244 152.789 114.713 151.844 113.768C150.899 112.823 150.368 111.541 150.368 110.204V84.204C150.368 82.8684 150.899 81.5874 151.843 80.643C152.787 79.6986 154.068 79.168 155.404 79.168V79.168Z" stroke="#020064" stroke-width="4" stroke-linecap="round" stroke-linejoin="round"/>
<path d="M169.796 104.148H216.984" stroke="#020064" stroke-width="4" stroke-linecap="round" stroke-linejoin="round"/>
<path d="M180.9 76.392C180.9 78.2147 181.259 80.0196 181.957 81.7036C182.654 83.3876 183.676 84.9178 184.965 86.2066C186.254 87.4955 187.784 88.5179 189.468 89.2154C191.152 89.913 192.957 90.272 194.78 90.272C196.603 90.272 198.408 89.913 200.092 89.2154C201.776 88.5179 203.306 87.4955 204.595 86.2066C205.884 84.9178 206.906 83.3876 207.603 81.7036C208.301 80.0196 208.66 78.2147 208.66 76.392C208.66 74.5692 208.301 72.7643 207.603 71.0803C206.906 69.3963 205.884 67.8662 204.595 66.5773C203.306 65.2885 201.776 64.2661 200.092 63.5685C198.408 62.871 196.603 62.512 194.78 62.512C192.957 62.512 191.152 62.871 189.468 63.5685C187.784 64.2661 186.254 65.2885 184.965 66.5773C183.676 67.8662 182.654 69.3963 181.957 71.0803C181.259 72.7643 180.9 74.5692 180.9 76.392Z" fill="white"/>
<path d="M180.9 76.392C180.9 78.2147 181.259 80.0196 181.957 81.7036C182.654 83.3876 183.676 84.9178 184.965 86.2066C186.254 87.4955 187.784 88.5179 189.468 89.2154C191.152 89.913 192.957 90.272 194.78 90.272C196.603 90.272 198.408 89.913 200.092 89.2154C201.776 88.5179 203.306 87.4955 204.595 86.2066C205.884 84.9178 206.906 83.3876 207.603 81.7036C208.301 80.0196 208.66 78.2147 208.66 76.392C208.66 74.5692 208.301 72.7643 207.603 71.0803C206.906 69.3963 205.884 67.8662 204.595 66.5773C203.306 65.2885 201.776 64.2661 200.092 63.5685C198.408 62.871 196.603 62.512 194.78 62.512C192.957 62.512 191.152 62.871 189.468 63.5685C187.784 64.2661 186.254 65.2885 184.965 66.5773C183.676 67.8662 182.654 69.3963 181.957 71.0803C181.259 72.7643 180.9 74.5692 180.9 76.392V76.392Z" stroke="#020064" stroke-width="4" stroke-linecap="round" stroke-linejoin="round"/>
<path d="M251.828 199.572L300.448 217.708L320.9 184.908L268.036 170.632L251.828 199.572Z" fill="#D9EDFF"/>
<path d="M329.34 254.916L366.996 217.26C367.143 217.118 367.298 216.985 367.46 216.86C354.856 205.924 351.748 182.756 327.508 170.1C295.6 153.436 256.136 157.412 221.472 200.7C220.678 201.642 220.081 202.733 219.714 203.909C219.347 205.085 219.219 206.322 219.336 207.549C219.454 208.775 219.815 209.965 220.398 211.05C220.981 212.135 221.775 213.093 222.733 213.867C223.691 214.642 224.794 215.217 225.977 215.56C227.16 215.903 228.4 216.006 229.623 215.864C230.847 215.722 232.03 215.337 233.103 214.732C234.176 214.127 235.117 213.313 235.872 212.34C238.171 209.497 240.48 206.851 242.8 204.4C243.615 205.271 244.592 205.974 245.676 206.472C281.944 233.932 289.276 237.42 298.148 240.872C311.868 246.204 317.924 248.78 328.012 257.912C328.073 256.784 328.545 255.718 329.34 254.916ZM304.492 196.304C301.436 200.001 297.184 202.515 292.471 203.409C287.759 204.303 282.882 203.521 278.684 201.2L257.236 191.392C269.752 182.232 282.38 178.408 294.956 180.048C305.656 181.424 308.132 190.888 304.492 196.304Z" fill="white"/>
<path d="M132.304 333.36C132.304 335.202 138.646 336.968 149.935 338.27C161.224 339.572 176.535 340.304 192.5 340.304C208.465 340.304 223.776 339.572 235.065 338.27C246.354 336.968 252.696 335.202 252.696 333.36C252.696 331.518 246.354 329.752 235.065 328.45C223.776 327.148 208.465 326.416 192.5 326.416C176.535 326.416 161.224 327.148 149.935 328.45C138.646 329.752 132.304 331.518 132.304 333.36Z" fill="#B0D9FF"/>
<path d="M153.248 230.144C151.813 231.578 150.754 233.344 150.164 235.286C149.575 237.227 149.473 239.284 149.869 241.274C150.264 243.264 151.144 245.126 152.431 246.694C153.718 248.263 155.372 249.49 157.246 250.266C159.121 251.043 161.158 251.345 163.177 251.146C165.196 250.948 167.135 250.254 168.822 249.127C170.509 247.999 171.892 246.473 172.848 244.684C173.804 242.895 174.304 240.897 174.304 238.868V241.332C174.278 242.645 174.513 243.95 174.997 245.17C175.482 246.391 176.204 247.503 177.124 248.441C178.043 249.378 179.14 250.123 180.35 250.632C181.561 251.141 182.861 251.403 184.174 251.403C185.487 251.403 186.787 251.141 187.998 250.632C189.208 250.123 190.305 249.378 191.224 248.441C192.144 247.503 192.866 246.391 193.351 245.17C193.835 243.95 194.07 242.645 194.044 241.332C194.044 243.949 195.084 246.459 196.934 248.31C198.785 250.16 201.295 251.2 203.912 251.2H211.312" stroke="#020064" stroke-width="4" stroke-linecap="round" stroke-linejoin="round"/>
<path d="M275.644 203.356C276.859 203.421 278.049 203.725 279.147 204.25C280.245 204.775 281.228 205.511 282.041 206.416C282.854 207.321 283.481 208.378 283.886 209.525C284.291 210.673 284.465 211.889 284.4 213.104L282.772 243.16C282.706 244.374 282.402 245.564 281.876 246.661C281.35 247.758 280.614 248.74 279.708 249.552C278.803 250.364 277.747 250.99 276.599 251.394C275.452 251.798 274.236 251.972 273.022 251.906C271.808 251.84 270.618 251.536 269.521 251.01C268.424 250.484 267.442 249.748 266.63 248.842C265.818 247.937 265.192 246.881 264.788 245.733C264.384 244.586 264.21 243.37 264.276 242.156L265.904 212.104C266.036 209.653 267.137 207.354 268.963 205.714C270.789 204.073 273.193 203.225 275.644 203.356Z" fill="#D9EDFF" stroke="#020064" stroke-width="4" stroke-linecap="round" stroke-linejoin="round"/>
<path d="M266.076 200.468C268.243 201.623 269.863 203.592 270.58 205.941C271.296 208.29 271.05 210.828 269.896 212.996L258.844 234.508C257.689 236.676 255.721 238.296 253.371 239.013C251.022 239.729 248.484 239.483 246.316 238.328C244.148 237.173 242.528 235.205 241.811 232.855C241.095 230.506 241.341 227.968 242.496 225.8L253.548 204.288C254.703 202.121 256.672 200.501 259.021 199.784C261.37 199.068 263.908 199.314 266.076 200.468Z" fill="#D9EDFF" stroke="#020064" stroke-width="4" stroke-linecap="round" stroke-linejoin="round"/>
<path d="M366.996 217.26C367.143 217.118 367.298 216.985 367.46 216.86C354.856 205.924 351.748 182.756 327.508 170.1C295.6 153.436 256.136 157.412 221.472 200.7C220.678 201.642 220.081 202.733 219.714 203.909C219.347 205.085 219.219 206.322 219.336 207.549C219.454 208.775 219.815 209.965 220.398 211.05C220.981 212.135 221.775 213.093 222.733 213.867C223.691 214.642 224.794 215.217 225.977 215.56C227.16 215.903 228.4 216.006 229.623 215.864C230.847 215.722 232.03 215.337 233.103 214.732C234.176 214.127 235.117 213.313 235.872 212.34C238.171 209.497 240.48 206.851 242.8 204.4C243.615 205.271 244.592 205.974 245.676 206.472C281.944 233.932 289.276 237.42 298.148 240.872C311.868 246.204 317.924 248.78 328.012 257.912L366.996 217.26ZM304.508 196.312C301.45 200.012 297.195 202.526 292.479 203.419C287.762 204.311 282.882 203.527 278.684 201.2L257.236 191.392C269.752 182.232 282.38 178.408 294.956 180.048C305.656 181.424 308.132 190.888 304.492 196.304L304.508 196.312Z" stroke="#020064" stroke-width="4" stroke-linecap="round" stroke-linejoin="round"/>
<path d="M296.472 198.144L284.4 181.156L322 154.448C323.012 153.729 324.155 153.217 325.365 152.94C326.574 152.663 327.827 152.627 329.05 152.835C330.274 153.042 331.445 153.488 332.496 154.148C333.547 154.808 334.458 155.668 335.176 156.68L336.3 158.26C337.019 159.272 337.531 160.415 337.808 161.625C338.085 162.834 338.121 164.087 337.913 165.31C337.706 166.534 337.26 167.705 336.6 168.756C335.94 169.807 335.08 170.718 334.068 171.436L296.472 198.144Z" fill="#B0D9FF"/>
<path d="M296.472 198.144L284.4 181.156L322 154.448C323.012 153.729 324.155 153.217 325.365 152.94C326.574 152.663 327.827 152.627 329.05 152.835C330.274 153.042 331.445 153.488 332.496 154.148C333.547 154.808 334.458 155.668 335.176 156.68L336.3 158.26C337.019 159.272 337.531 160.415 337.808 161.625C338.085 162.834 338.121 164.087 337.913 165.31C337.706 166.534 337.26 167.705 336.6 168.756C335.94 169.807 335.08 170.718 334.068 171.436L296.472 198.144Z" stroke="#020064" stroke-width="4" stroke-linecap="round" stroke-linejoin="round"/>
<path d="M286.044 171.472L312.472 152.7C313.208 152.153 314.048 151.76 314.94 151.546C315.833 151.331 316.759 151.3 317.664 151.453C318.569 151.606 319.433 151.941 320.205 152.437C320.977 152.933 321.641 153.581 322.156 154.34" stroke="#020064" stroke-width="4" stroke-linecap="round" stroke-linejoin="round"/>
<path d="M225.284 228.832L206.72 242.032C206.31 242.317 206.003 242.728 205.846 243.202C205.689 243.677 205.69 244.189 205.848 244.663C206.007 245.137 206.315 245.547 206.726 245.831C207.137 246.115 207.629 246.259 208.128 246.24C215.912 245.92 227.036 244.508 226.872 239.076L230.648 236.396L225.284 228.832Z" fill="#B0D9FF" stroke="#020064" stroke-width="4" stroke-linecap="round" stroke-linejoin="round"/>
<path d="M232 238.272L225.296 228.832C224.941 228.331 224.799 227.71 224.902 227.105C225.005 226.499 225.343 225.96 225.844 225.604L235.28 218.9L244.668 232.1L235.2 238.8C234.704 239.148 234.091 239.288 233.492 239.19C232.894 239.091 232.358 238.761 232 238.272Z" fill="white"/>
<path d="M232 238.272L225.296 228.832C224.941 228.331 224.799 227.71 224.902 227.105C225.005 226.499 225.343 225.96 225.844 225.604L235.28 218.9L244.668 232.1L235.2 238.8C234.704 239.148 234.091 239.288 233.492 239.19C232.894 239.091 232.358 238.761 232 238.272V238.272Z" stroke="#020064" stroke-width="4" stroke-linecap="round" stroke-linejoin="round"/>
<path d="M243.316 230.224L236.612 220.8C236.26 220.304 236.008 219.744 235.872 219.152C235.736 218.559 235.719 217.945 235.82 217.346C235.922 216.746 236.14 216.172 236.463 215.657C236.787 215.142 237.208 214.696 237.704 214.344L284.4 181.156L296.468 198.144L249.772 231.32C249.276 231.672 248.716 231.923 248.123 232.059C247.53 232.194 246.916 232.212 246.317 232.11C245.717 232.008 245.144 231.789 244.629 231.466C244.114 231.142 243.668 230.72 243.316 230.224Z" fill="#B0D9FF"/>
<path d="M243.316 230.224L236.612 220.8C236.26 220.304 236.008 219.744 235.872 219.152C235.736 218.559 235.719 217.945 235.82 217.346C235.922 216.746 236.14 216.172 236.463 215.657C236.787 215.142 237.208 214.696 237.704 214.344L284.4 181.156L296.468 198.144L249.772 231.32C249.276 231.672 248.716 231.923 248.123 232.059C247.53 232.194 246.916 232.212 246.317 232.11C245.717 232.008 245.144 231.789 244.629 231.466C244.114 231.142 243.668 230.72 243.316 230.224Z" stroke="#020064" stroke-width="4" stroke-linecap="round" stroke-linejoin="round"/>
<path d="M304.492 196.304C301.436 200.001 297.184 202.515 292.471 203.409C287.759 204.303 282.882 203.521 278.684 201.2L253.364 189.6C252.255 189.072 251.052 188.77 249.824 188.712C248.597 188.653 247.371 188.839 246.216 189.259C245.062 189.679 244.003 190.325 243.1 191.158C242.197 191.991 241.469 192.995 240.958 194.113C240.448 195.23 240.164 196.438 240.124 197.665C240.084 198.893 240.289 200.117 240.727 201.265C241.164 202.413 241.826 203.462 242.673 204.352C243.52 205.242 244.535 205.954 245.66 206.448C281.928 233.912 289.26 237.396 298.132 240.848" fill="white"/>
<path d="M304.492 196.304C301.436 200.001 297.184 202.515 292.471 203.409C287.759 204.303 282.882 203.521 278.684 201.2L253.364 189.6C252.255 189.072 251.052 188.77 249.824 188.712C248.597 188.653 247.371 188.839 246.216 189.259C245.062 189.679 244.003 190.325 243.1 191.158C242.197 191.991 241.469 192.995 240.958 194.113C240.448 195.23 240.164 196.438 240.124 197.665C240.084 198.893 240.289 200.117 240.727 201.265C241.164 202.413 241.826 203.462 242.673 204.352C243.52 205.242 244.535 205.954 245.66 206.448C281.928 233.912 289.26 237.396 298.132 240.848" stroke="#020064" stroke-width="4" stroke-linecap="round" stroke-linejoin="round"/>
<path d="M304.492 196.304C301.436 200.001 297.184 202.515 292.471 203.409C287.759 204.303 282.882 203.521 278.684 201.2L253.364 189.6C252.255 189.072 251.052 188.77 249.824 188.712C248.597 188.653 247.371 188.839 246.216 189.259C245.062 189.679 244.003 190.325 243.1 191.158C242.197 191.991 241.469 192.995 240.958 194.113C240.448 195.23 240.164 196.438 240.124 197.665C240.084 198.893 240.289 200.117 240.727 201.265C241.164 202.413 241.826 203.462 242.673 204.352C243.52 205.242 244.535 205.954 245.66 206.448C281.928 233.912 289.26 237.396 298.132 240.848" fill="white"/>
<path d="M304.492 196.304C301.436 200.001 297.184 202.515 292.471 203.409C287.759 204.303 282.882 203.521 278.684 201.2L253.364 189.6C252.255 189.072 251.052 188.77 249.824 188.712C248.597 188.653 247.371 188.839 246.216 189.259C245.062 189.679 244.003 190.325 243.1 191.158C242.197 191.991 241.469 192.995 240.958 194.113C240.448 195.23 240.164 196.438 240.124 197.665C240.084 198.893 240.289 200.117 240.727 201.265C241.164 202.413 241.826 203.462 242.673 204.352C243.52 205.242 244.535 205.954 245.66 206.448C281.928 233.912 289.26 237.396 298.132 240.848" stroke="#020064" stroke-width="4" stroke-linecap="round" stroke-linejoin="round"/>
</svg>
