<svg width="400" height="400" viewBox="0 0 400 400" fill="none" xmlns="http://www.w3.org/2000/svg">
<path d="M33.432 200C33.432 242.435 50.2891 283.131 80.2949 313.137C110.301 343.143 150.997 360 193.432 360C235.867 360 276.563 343.143 306.569 313.137C336.575 283.131 353.432 242.435 353.432 200C353.432 157.565 336.575 116.869 306.569 86.8629C276.563 56.8571 235.867 40 193.432 40C150.997 40 110.301 56.8571 80.2949 86.8629C50.2891 116.869 33.432 157.565 33.432 200Z" fill="#E8F4FA" stroke="#DAEDF7" stroke-width="4" stroke-linecap="round" stroke-linejoin="round"/>
<path d="M267.336 300.976H118.536C115.871 300.976 113.315 299.917 111.431 298.033C109.547 296.149 108.488 293.593 108.488 290.928V98.252C108.489 95.4743 109.593 92.8107 111.558 90.847C113.522 88.8832 116.186 87.78 118.964 87.78H266.904C268.28 87.7795 269.642 88.05 270.913 88.576C272.184 89.1021 273.339 89.8733 274.311 90.8458C275.284 91.8183 276.056 92.9729 276.583 94.2436C277.109 95.5144 277.38 96.8765 277.38 98.252V290.928C277.38 293.592 276.322 296.147 274.438 298.032C272.555 299.916 270 300.975 267.336 300.976Z" fill="#DEBB7E"/>
<path d="M266.904 87.78H118.96C116.182 87.78 113.518 88.8832 111.554 90.847C109.589 92.8107 108.485 95.4743 108.484 98.252V112.7C108.484 109.762 109.651 106.945 111.728 104.868C113.805 102.791 116.622 101.624 119.56 101.624H266.304C269.242 101.624 272.059 102.791 274.136 104.868C276.213 106.945 277.38 109.762 277.38 112.7V98.252C277.38 96.8765 277.109 95.5144 276.582 94.2436C276.056 92.9729 275.284 91.8183 274.311 90.8458C273.339 89.8733 272.184 89.1021 270.913 88.576C269.642 88.05 268.28 87.7795 266.904 87.78Z" fill="#F0D5A8"/>
<path d="M267.336 300.976H118.536C115.871 300.976 113.315 299.917 111.431 298.033C109.547 296.149 108.488 293.593 108.488 290.928V98.252C108.489 95.4743 109.593 92.8107 111.558 90.847C113.522 88.8832 116.186 87.78 118.964 87.78H266.904C268.28 87.7795 269.642 88.05 270.913 88.576C272.184 89.1021 273.339 89.8733 274.311 90.8458C275.284 91.8183 276.056 92.9729 276.583 94.2436C277.109 95.5144 277.38 96.8765 277.38 98.252V290.928C277.38 293.592 276.322 296.147 274.438 298.032C272.555 299.916 270 300.975 267.336 300.976Z" stroke="#45413C" stroke-width="4" stroke-linecap="round" stroke-linejoin="round"/>
<path d="M125.096 104.392H260.764V284.36H125.096V104.392Z" fill="white" stroke="#45413C" stroke-width="4" stroke-linecap="round" stroke-linejoin="round"/>
<path d="M144.44 148.692H229.036" stroke="#45413C" stroke-width="4" stroke-linecap="round" stroke-linejoin="round"/>
<path d="M144.44 173.612H229.036" stroke="#45413C" stroke-width="4" stroke-linecap="round" stroke-linejoin="round"/>
<path d="M144.44 201.3H203.4" stroke="#45413C" stroke-width="4" stroke-linecap="round" stroke-linejoin="round"/>
<path d="M155.04 79.4719H230.824C232.156 79.4719 233.434 80.0013 234.377 80.9434C235.319 81.8856 235.848 83.1635 235.848 84.496V110.44C235.848 111.773 235.318 113.052 234.375 113.995C233.432 114.938 232.154 115.468 230.82 115.468H155.044C154.382 115.47 153.727 115.342 153.115 115.09C152.503 114.838 151.947 114.468 151.478 114.001C151.01 113.534 150.638 112.979 150.384 112.368C150.131 111.757 150 111.102 150 110.44V84.496C150 83.8348 150.13 83.1802 150.384 82.5696C150.637 81.9591 151.009 81.4045 151.477 80.9378C151.945 80.471 152.501 80.1013 153.112 79.8498C153.724 79.5982 154.379 79.4698 155.04 79.4719Z" fill="#E8F4FA"/>
<path d="M230.82 79.4719H155.044C154.382 79.4698 153.727 79.5983 153.115 79.8501C152.503 80.1018 151.947 80.4718 151.478 80.9389C151.01 81.406 150.638 81.961 150.384 82.5721C150.131 83.1832 150 83.8383 150 84.4999V96.0999C150 95.3724 150.143 94.652 150.422 93.9799C150.7 93.3077 151.108 92.697 151.623 92.1826C152.137 91.6681 152.748 91.2601 153.42 90.9817C154.092 90.7032 154.812 90.5599 155.54 90.5599H230.312C231.781 90.561 233.189 91.1452 234.227 92.184C235.265 93.2228 235.848 94.6313 235.848 96.0999V84.4999C235.848 83.8397 235.718 83.1858 235.465 82.5758C235.213 81.9658 234.842 81.4115 234.375 80.9446C233.908 80.4777 233.354 80.1074 232.744 79.8547C232.134 79.602 231.48 79.4719 230.82 79.4719Z" fill="white"/>
<path d="M155.04 79.4719H230.824C232.156 79.4719 233.434 80.0013 234.377 80.9434C235.319 81.8856 235.848 83.1635 235.848 84.496V110.44C235.848 111.773 235.318 113.052 234.375 113.995C233.432 114.938 232.154 115.468 230.82 115.468H155.044C154.382 115.47 153.727 115.342 153.115 115.09C152.503 114.838 151.947 114.468 151.478 114.001C151.01 113.534 150.638 112.979 150.384 112.368C150.131 111.757 150 111.102 150 110.44V84.496C150 83.8348 150.13 83.1802 150.384 82.5696C150.637 81.9591 151.009 81.4045 151.477 80.9378C151.945 80.471 152.501 80.1013 153.112 79.8498C153.724 79.5982 154.379 79.4698 155.04 79.4719Z" stroke="#45413C" stroke-width="4" stroke-linecap="round" stroke-linejoin="round"/>
<path d="M169.396 104.392H216.468" stroke="#45413C" stroke-width="4" stroke-linecap="round" stroke-linejoin="round"/>
<path d="M180.472 76.704C180.472 78.522 180.83 80.3222 181.526 82.0019C182.222 83.6815 183.241 85.2076 184.527 86.4932C185.812 87.7787 187.339 88.7984 189.018 89.4942C190.698 90.1899 192.498 90.548 194.316 90.548C196.134 90.548 197.934 90.1899 199.614 89.4942C201.294 88.7984 202.82 87.7787 204.105 86.4932C205.391 85.2076 206.411 83.6815 207.106 82.0019C207.802 80.3222 208.16 78.522 208.16 76.704C208.16 74.886 207.802 73.0857 207.106 71.4061C206.411 69.7265 205.391 68.2003 204.105 66.9148C202.82 65.6293 201.294 64.6095 199.614 63.9138C197.934 63.2181 196.134 62.86 194.316 62.86C192.498 62.86 190.698 63.2181 189.018 63.9138C187.339 64.6095 185.812 65.6293 184.527 66.9148C183.241 68.2003 182.222 69.7265 181.526 71.4061C180.83 73.0857 180.472 74.886 180.472 76.704Z" fill="#E8F4FA"/>
<path d="M194.316 73.936C197.008 73.9375 199.641 74.7243 201.893 76.2C204.144 77.6757 205.916 79.7762 206.992 82.244C207.917 80.1369 208.303 77.8324 208.113 75.5389C207.924 73.2454 207.165 71.0353 205.907 69.1086C204.649 67.1818 202.93 65.5991 200.906 64.5036C198.882 63.4081 196.617 62.8345 194.316 62.8345C192.015 62.8345 189.75 63.4081 187.726 64.5036C185.702 65.5991 183.983 67.1818 182.725 69.1086C181.467 71.0353 180.708 73.2454 180.519 75.5389C180.33 77.8324 180.715 80.1369 181.64 82.244C182.716 79.7762 184.488 77.6757 186.739 76.2C188.991 74.7243 191.624 73.9375 194.316 73.936Z" fill="white"/>
<path d="M180.472 76.704C180.472 78.522 180.83 80.3222 181.526 82.0019C182.222 83.6815 183.241 85.2076 184.527 86.4932C185.812 87.7787 187.339 88.7984 189.018 89.4942C190.698 90.1899 192.498 90.548 194.316 90.548C196.134 90.548 197.934 90.1899 199.614 89.4942C201.294 88.7984 202.82 87.7787 204.105 86.4932C205.391 85.2076 206.411 83.6815 207.106 82.0019C207.802 80.3222 208.16 78.522 208.16 76.704C208.16 74.886 207.802 73.0857 207.106 71.4061C206.411 69.7265 205.391 68.2003 204.105 66.9148C202.82 65.6293 201.294 64.6095 199.614 63.9138C197.934 63.2181 196.134 62.86 194.316 62.86C192.498 62.86 190.698 63.2181 189.018 63.9138C187.339 64.6095 185.812 65.6293 184.527 66.9148C183.241 68.2003 182.222 69.7265 181.526 71.4061C180.83 73.0857 180.472 74.886 180.472 76.704V76.704Z" stroke="#45413C" stroke-width="4" stroke-linecap="round" stroke-linejoin="round"/>
<path opacity="0.15" d="M260.768 166.048L221.368 208.728C218.883 211.429 217.571 215.006 217.721 218.673C217.871 222.341 219.47 225.799 222.168 228.288C223.857 229.841 225.911 230.942 228.14 231.488L215.34 244.288L217.3 246.248L200 263.544C199.226 264.316 198.698 265.298 198.481 266.369C198.263 267.44 198.367 268.551 198.779 269.563C199.191 270.576 199.892 271.443 200.796 272.058C201.699 272.673 202.763 273.008 203.856 273.02C204.259 273.019 204.661 272.978 205.056 272.896C220.216 269.672 227.928 265.016 228.016 259.04L229.064 257.992L232.98 261.908L242.664 252.228C243.347 252.777 244.079 253.26 244.852 253.672C247.401 255.026 250.308 255.551 253.169 255.173C256.031 254.795 258.702 253.533 260.812 251.564L260.768 166.048Z" fill="#45413C"/>
<path d="M251.224 199.576L299.724 217.668L320.124 184.948L267.388 170.708L251.224 199.576Z" fill="#FFBE3D"/>
<path d="M328.544 254.8L366.104 217.24C366.249 217.096 366.404 216.962 366.568 216.84C353.996 205.928 350.892 182.84 326.716 170.192C294.884 153.572 255.516 157.536 220.94 200.716C219.499 202.631 218.859 205.03 219.154 207.408C219.449 209.786 220.656 211.956 222.52 213.461C224.385 214.966 226.761 215.688 229.148 215.474C231.534 215.261 233.744 214.128 235.312 212.316C237.6 209.48 239.9 206.848 242.204 204.38C243.016 205.248 243.989 205.95 245.068 206.448C281.248 233.84 288.54 237.32 297.412 240.768C311.096 246.088 317.14 248.656 327.2 257.764C327.272 256.645 327.75 255.591 328.544 254.8ZM303.744 196.332C300.694 200.018 296.451 202.522 291.75 203.411C287.049 204.3 282.185 203.518 278 201.2L256.616 191.4C269.1 182.26 281.696 178.448 294.244 180.084C304.916 181.472 307.388 190.912 303.756 196.316L303.744 196.332Z" fill="#FFDA8F"/>
<path d="M359.244 224.08L366.104 217.224C366.249 217.08 366.404 216.946 366.568 216.824C353.996 205.912 350.892 182.824 326.716 170.176C294.884 153.556 255.516 157.52 220.94 200.7C219.614 202.352 218.893 204.408 218.898 206.527C218.903 208.645 219.634 210.698 220.968 212.344C221.235 211.836 221.548 211.354 221.904 210.904C256.484 167.704 292.556 164.964 324.672 181.024C335.348 186.356 349.672 211.508 359.244 224.08Z" fill="#FFE9BD"/>
<path opacity="0.15" d="M131.996 333.028C131.996 333.938 133.549 334.839 136.567 335.679C139.585 336.52 144.008 337.283 149.584 337.927C155.16 338.57 161.779 339.08 169.065 339.429C176.35 339.777 184.158 339.956 192.044 339.956C199.93 339.956 207.738 339.777 215.023 339.429C222.309 339.08 228.928 338.57 234.504 337.927C240.08 337.283 244.503 336.52 247.521 335.679C250.539 334.839 252.092 333.938 252.092 333.028C252.092 332.118 250.539 331.217 247.521 330.377C244.503 329.536 240.08 328.772 234.504 328.129C228.928 327.486 222.309 326.975 215.023 326.627C207.738 326.279 199.93 326.1 192.044 326.1C184.158 326.1 176.35 326.279 169.065 326.627C161.779 326.975 155.16 327.486 149.584 328.129C144.008 328.772 139.585 329.536 136.567 330.377C133.549 331.217 131.996 332.118 131.996 333.028Z" fill="#45413C"/>
<path d="M152.888 230.072C151.456 231.503 150.399 233.265 149.811 235.202C149.223 237.14 149.122 239.192 149.516 241.178C149.911 243.163 150.789 245.021 152.074 246.586C153.358 248.151 155.008 249.375 156.879 250.15C158.749 250.924 160.782 251.225 162.797 251.027C164.811 250.828 166.746 250.135 168.429 249.01C170.112 247.885 171.491 246.362 172.445 244.576C173.399 242.79 173.897 240.797 173.896 238.772V241.236C173.896 243.847 174.933 246.351 176.779 248.197C178.625 250.043 181.129 251.08 183.74 251.08C186.351 251.08 188.855 250.043 190.701 248.197C192.547 246.351 193.584 243.847 193.584 241.236C193.584 243.847 194.621 246.351 196.467 248.197C198.313 250.043 200.817 251.08 203.428 251.08H210.8" stroke="#FF6242" stroke-width="4" stroke-linecap="round" stroke-linejoin="round"/>
<path d="M274.98 203.352C276.191 203.417 277.378 203.721 278.472 204.245C279.566 204.769 280.546 205.504 281.356 206.407C282.166 207.31 282.791 208.364 283.194 209.508C283.596 210.652 283.77 211.865 283.704 213.076L282.08 243.076C281.947 245.522 280.848 247.816 279.025 249.452C277.201 251.088 274.802 251.933 272.356 251.8C269.91 251.667 267.616 250.568 265.98 248.745C264.344 246.921 263.499 244.522 263.632 242.076L265.256 212.076C265.389 209.63 266.488 207.337 268.312 205.701C270.135 204.065 272.534 203.22 274.98 203.352Z" fill="#FFBE3D" stroke="#45413C" stroke-width="4" stroke-linecap="round" stroke-linejoin="round"/>
<path d="M265.436 200.472C267.598 201.624 269.214 203.587 269.929 205.931C270.644 208.274 270.399 210.805 269.248 212.968L258.22 234.424C257.04 236.534 255.08 238.097 252.76 238.778C250.441 239.459 247.947 239.204 245.813 238.068C243.68 236.932 242.076 235.005 241.347 232.7C240.618 230.396 240.82 227.897 241.912 225.74L252.94 204.284C253.51 203.213 254.285 202.265 255.222 201.494C256.158 200.722 257.238 200.143 258.398 199.789C259.559 199.435 260.777 199.313 261.985 199.43C263.193 199.548 264.365 199.902 265.436 200.472Z" fill="#FFBE3D" stroke="#45413C" stroke-width="4" stroke-linecap="round" stroke-linejoin="round"/>
<path d="M366.104 217.224C366.249 217.08 366.404 216.946 366.568 216.824C353.996 205.912 350.892 182.824 326.716 170.176C294.884 153.556 255.516 157.52 220.94 200.7C219.499 202.615 218.859 205.014 219.154 207.392C219.449 209.77 220.656 211.94 222.52 213.445C224.385 214.95 226.761 215.672 229.148 215.458C231.534 215.245 233.744 214.112 235.312 212.3C237.6 209.464 239.9 206.832 242.204 204.364C243.016 205.232 243.989 205.934 245.068 206.432C281.248 233.824 288.54 237.304 297.412 240.752C311.096 246.072 317.14 248.64 327.2 257.748C327.27 256.626 327.748 255.569 328.544 254.776L366.104 217.224ZM303.744 196.308C300.697 199.998 296.456 202.506 291.755 203.4C287.054 204.293 282.188 203.515 278 201.2L256.616 191.4C269.1 182.26 281.696 178.448 294.244 180.084C304.916 181.472 307.388 190.912 303.756 196.316L303.744 196.308Z" stroke="#45413C" stroke-width="4" stroke-linecap="round" stroke-linejoin="round"/>
<path d="M295.756 198.152L283.72 181.2L321.22 154.56C322.229 153.843 323.369 153.331 324.576 153.055C325.783 152.778 327.032 152.742 328.253 152.949C329.473 153.155 330.641 153.6 331.69 154.258C332.738 154.916 333.647 155.775 334.364 156.784L335.484 158.36C336.201 159.369 336.712 160.51 336.988 161.717C337.265 162.924 337.3 164.173 337.093 165.394C336.886 166.614 336.441 167.782 335.783 168.831C335.124 169.879 334.266 170.787 333.256 171.504L295.756 198.152Z" fill="#FF6242"/>
<path d="M334.992 157.7C334.964 157.66 334.952 157.62 334.924 157.58C334.219 156.368 333.255 155.326 332.103 154.527C330.95 153.729 329.636 153.193 328.253 152.959C326.87 152.725 325.453 152.797 324.102 153.171C322.75 153.545 321.497 154.212 320.432 155.124L283.72 181.2L289.536 189.384L334.992 157.7Z" fill="#FF866E"/>
<path d="M295.756 198.152L283.72 181.2L321.22 154.56C322.229 153.843 323.369 153.331 324.576 153.055C325.783 152.778 327.032 152.742 328.253 152.949C329.473 153.155 330.641 153.6 331.69 154.258C332.738 154.916 333.647 155.775 334.364 156.784L335.484 158.36C336.201 159.369 336.712 160.51 336.988 161.717C337.265 162.924 337.3 164.173 337.093 165.394C336.886 166.614 336.441 167.782 335.783 168.831C335.124 169.879 334.266 170.787 333.256 171.504L295.756 198.152Z" stroke="#45413C" stroke-width="4" stroke-linecap="round" stroke-linejoin="round"/>
<path d="M285.356 171.544L311.712 152.82C312.448 152.276 313.286 151.885 314.176 151.672C315.066 151.46 315.99 151.429 316.892 151.581C317.794 151.734 318.657 152.067 319.427 152.561C320.198 153.055 320.861 153.7 321.376 154.456" stroke="#45413C" stroke-width="4" stroke-linecap="round" stroke-linejoin="round"/>
<path d="M224.748 228.764L206.228 241.92C205.821 242.206 205.517 242.615 205.361 243.088C205.206 243.56 205.207 244.07 205.365 244.542C205.523 245.013 205.829 245.421 206.237 245.705C206.646 245.989 207.135 246.133 207.632 246.116C215.396 245.796 226.492 244.388 226.332 238.972L230.096 236.296L224.748 228.764Z" fill="#FFE500" stroke="#45413C" stroke-width="4" stroke-linecap="round" stroke-linejoin="round"/>
<path d="M231.436 238.176L224.748 228.764C224.399 228.266 224.261 227.651 224.362 227.052C224.464 226.453 224.798 225.918 225.292 225.564L234.708 218.876L244.068 232.076L234.656 238.764C234.406 238.937 234.125 239.059 233.827 239.123C233.53 239.188 233.223 239.193 232.924 239.138C232.625 239.083 232.34 238.97 232.084 238.805C231.829 238.64 231.609 238.426 231.436 238.176Z" fill="#DAEDF7"/>
<path d="M238.868 224.716L234.704 218.856L225.292 225.544C224.798 225.898 224.464 226.433 224.362 227.032C224.261 227.631 224.399 228.246 224.748 228.744L227.504 232.624L238.868 224.716Z" fill="#E8F4FA"/>
<path d="M231.436 238.176L224.748 228.764C224.399 228.266 224.261 227.651 224.362 227.052C224.464 226.453 224.798 225.918 225.292 225.564L234.708 218.876L244.068 232.076L234.656 238.764C234.406 238.937 234.125 239.059 233.827 239.123C233.53 239.188 233.223 239.193 232.924 239.138C232.625 239.083 232.34 238.97 232.084 238.805C231.829 238.64 231.609 238.426 231.436 238.176V238.176Z" stroke="#45413C" stroke-width="4" stroke-linecap="round" stroke-linejoin="round"/>
<path d="M242.732 230.152L236.044 220.74C235.335 219.741 235.052 218.502 235.257 217.294C235.461 216.086 236.137 215.009 237.136 214.3L283.72 181.2L295.756 198.144L249.172 231.244C248.173 231.953 246.934 232.236 245.726 232.031C244.518 231.827 243.441 231.151 242.732 230.152Z" fill="#FF6242"/>
<path d="M238.868 224.716L289.536 189.392L283.72 181.2L237.136 214.3C236.641 214.651 236.22 215.096 235.898 215.61C235.575 216.123 235.357 216.696 235.255 217.294C235.154 217.892 235.171 218.504 235.307 219.095C235.442 219.687 235.693 220.246 236.044 220.74L238.868 224.716Z" fill="#FF866E"/>
<path d="M242.732 230.152L236.044 220.74C235.335 219.741 235.052 218.502 235.257 217.294C235.461 216.086 236.137 215.009 237.136 214.3L283.72 181.2L295.756 198.144L249.172 231.244C248.173 231.953 246.934 232.236 245.726 232.031C244.518 231.827 243.441 231.151 242.732 230.152V230.152Z" stroke="#45413C" stroke-width="4" stroke-linecap="round" stroke-linejoin="round"/>
<path d="M303.756 196.316C300.707 200.007 296.464 202.516 291.76 203.408C287.056 204.3 282.189 203.519 278 201.2L252.744 189.652C251.637 189.115 250.433 188.806 249.204 188.74C247.976 188.675 246.746 188.856 245.588 189.273C244.43 189.689 243.367 190.333 242.462 191.165C241.556 191.998 240.825 193.004 240.313 194.123C239.801 195.241 239.518 196.451 239.48 197.681C239.442 198.911 239.65 200.136 240.091 201.285C240.533 202.433 241.2 203.482 242.052 204.369C242.905 205.257 243.926 205.965 245.056 206.452C281.236 233.844 288.528 237.324 297.4 240.772" fill="#FFCEBF"/>
<path d="M255.64 201.756L280.896 213.304C283.087 214.378 285.5 214.917 287.94 214.879C290.379 214.841 292.774 214.226 294.93 213.084C297.086 211.943 298.942 210.307 300.344 208.311C301.747 206.315 302.657 204.015 303 201.6L303.756 196.308C300.708 200.001 296.465 202.511 291.761 203.405C287.058 204.298 282.189 203.518 278 201.2L252.744 189.652C250.637 188.69 248.246 188.556 246.044 189.276C243.843 189.995 241.992 191.517 240.861 193.537C239.729 195.558 239.398 197.931 239.935 200.184C240.471 202.437 241.835 204.406 243.756 205.7C244.873 203.664 246.719 202.126 248.924 201.394C251.128 200.663 253.527 200.792 255.64 201.756Z" fill="#FFDCD1"/>
<path d="M303.756 196.316C300.707 200.007 296.464 202.516 291.76 203.408C287.056 204.3 282.189 203.519 278 201.2L252.744 189.652C251.637 189.115 250.433 188.806 249.204 188.74C247.976 188.675 246.746 188.856 245.588 189.273C244.43 189.689 243.367 190.333 242.462 191.165C241.556 191.998 240.825 193.004 240.313 194.123C239.801 195.241 239.518 196.451 239.48 197.681C239.442 198.911 239.65 200.136 240.091 201.285C240.533 202.433 241.2 203.482 242.052 204.369C242.905 205.257 243.926 205.965 245.056 206.452C281.236 233.844 288.528 237.324 297.4 240.772" stroke="#45413C" stroke-width="4" stroke-linecap="round" stroke-linejoin="round"/>
<path d="M303.756 196.316C300.707 200.007 296.464 202.516 291.76 203.408C287.056 204.3 282.189 203.519 278 201.2L252.744 189.652C251.637 189.115 250.433 188.806 249.204 188.74C247.976 188.675 246.746 188.856 245.588 189.273C244.43 189.689 243.367 190.333 242.462 191.165C241.556 191.998 240.825 193.004 240.313 194.123C239.801 195.241 239.518 196.451 239.48 197.681C239.442 198.911 239.65 200.136 240.091 201.285C240.533 202.433 241.2 203.482 242.052 204.369C242.905 205.257 243.926 205.965 245.056 206.452C281.236 233.844 288.528 237.324 297.4 240.772" fill="#FFDA8F"/>
<path d="M255.64 201.756L280.896 213.304C283.087 214.378 285.5 214.917 287.94 214.879C290.379 214.841 292.774 214.226 294.93 213.084C297.086 211.943 298.942 210.307 300.344 208.311C301.747 206.315 302.657 204.015 303 201.6L303.756 196.308C300.708 200.001 296.465 202.511 291.761 203.405C287.058 204.298 282.189 203.518 278 201.2L252.744 189.652C250.637 188.69 248.246 188.556 246.044 189.276C243.843 189.995 241.992 191.517 240.861 193.537C239.729 195.558 239.398 197.931 239.935 200.184C240.471 202.437 241.835 204.406 243.756 205.7C244.873 203.664 246.719 202.126 248.924 201.394C251.128 200.663 253.527 200.792 255.64 201.756Z" fill="#FFE9BD"/>
<path d="M303.756 196.316C300.707 200.007 296.464 202.516 291.76 203.408C287.056 204.3 282.189 203.519 278 201.2L252.744 189.652C251.637 189.115 250.433 188.806 249.204 188.74C247.976 188.675 246.746 188.856 245.588 189.273C244.43 189.689 243.367 190.333 242.462 191.165C241.556 191.998 240.825 193.004 240.313 194.123C239.801 195.241 239.518 196.451 239.48 197.681C239.442 198.911 239.65 200.136 240.091 201.285C240.533 202.433 241.2 203.482 242.052 204.369C242.905 205.257 243.926 205.965 245.056 206.452C281.236 233.844 288.528 237.324 297.4 240.772" stroke="#45413C" stroke-width="4" stroke-linecap="round" stroke-linejoin="round"/>
</svg>
