<svg width="400" height="400" viewBox="0 0 400 400" fill="none" xmlns="http://www.w3.org/2000/svg">
<path d="M201.952 279.248V321.868C201.952 323.436 201.644 324.99 201.043 326.439C200.442 327.888 199.561 329.204 198.451 330.312C197.341 331.42 196.023 332.298 194.573 332.896C193.122 333.494 191.568 333.8 190 333.796H31.932C30.3651 333.797 28.8134 333.489 27.3655 332.89C25.9176 332.291 24.602 331.413 23.4939 330.305C22.3857 329.197 21.5068 327.882 20.9073 326.434C20.3078 324.986 19.9995 323.435 20 321.868V106.168C20.0095 103.007 21.2698 99.9776 23.5055 97.7428C25.7413 95.5076 28.7707 94.2484 31.932 94.24H64.732V116.904C64.7404 118.484 65.3712 119.996 66.488 121.113C67.6044 122.231 69.1164 122.862 70.696 122.872H151.232C152.812 122.864 154.325 122.232 155.443 121.115C156.56 119.997 157.192 118.484 157.2 116.904V94.24H190C193.161 94.2484 196.191 95.5076 198.426 97.7428C200.662 99.9776 201.922 103.007 201.932 106.168V141.54" stroke="#020064" stroke-width="4" stroke-linecap="round" stroke-linejoin="round"/>
<path d="M201.936 183.656V193.32L193.228 189.32C196.004 187.244 198.913 185.352 201.936 183.656Z" stroke="#020064" stroke-width="4" stroke-linecap="round" stroke-linejoin="round"/>
<path d="M136.32 110.94H85.616" stroke="#020064" stroke-width="4" stroke-linecap="round" stroke-linejoin="round"/>
<path d="M184.04 213.004C182.84 212.108 181.596 211.156 180.284 210.204C179.628 209.728 178.972 209.248 178.316 208.712C177.719 208.432 177.141 208.114 176.584 207.76L175.868 207.22C175.41 206.89 174.99 206.511 174.616 206.088C171.632 209.248 168.652 212.652 165.728 216.288C163.73 218.717 160.854 220.259 157.726 220.581C154.598 220.902 151.468 219.977 149.018 218.006C146.568 216.035 144.993 213.177 144.637 210.052C144.281 206.927 145.172 203.788 147.116 201.316C157.502 187.957 169.969 176.356 184.04 166.956" stroke="#020064" stroke-width="4" stroke-linecap="round" stroke-linejoin="round"/>
<path d="M157.2 110.94H178.08C179.659 110.949 181.17 111.581 182.287 112.697C183.403 113.814 184.034 115.325 184.044 116.904V149.6" stroke="#020064" stroke-width="4" stroke-linecap="round" stroke-linejoin="round"/>
<path d="M184.04 266.092V298.84C184.03 300.418 183.398 301.928 182.281 303.044C181.165 304.16 179.654 304.79 178.076 304.8H43.86C42.282 304.79 40.7708 304.16 39.6546 303.044C38.5383 301.928 37.9065 300.418 37.896 298.84V116.904C37.9054 115.325 38.5368 113.814 39.6532 112.697C40.7696 111.581 42.2812 110.949 43.86 110.94H64.74" stroke="#020064" stroke-width="4" stroke-linecap="round" stroke-linejoin="round"/>
<path d="M173.2 236.4V236.46L175.288 239.38C176.216 240.666 177.616 241.532 179.181 241.79C180.746 242.047 182.349 241.674 183.64 240.752L184.04 240.456" stroke="#020064" stroke-width="4" stroke-linecap="round" stroke-linejoin="round"/>
<path d="M58.732 158.66H149.86" stroke="#020064" stroke-width="4" stroke-linecap="round" stroke-linejoin="round"/>
<path d="M140.972 185.504H58.712" stroke="#020064" stroke-width="4" stroke-linecap="round" stroke-linejoin="round"/>
<path d="M58.732 215.332H122.244" stroke="#020064" stroke-width="4" stroke-linecap="round" stroke-linejoin="round"/>
<path d="M64.74 104.14V90.064C64.7484 88.4844 65.3792 86.972 66.496 85.8548C67.6124 84.7372 69.1244 84.1056 70.704 84.096H97.844" stroke="#020064" stroke-width="4" stroke-linecap="round" stroke-linejoin="round"/>
<path d="M127.072 84.096H151.232C152.812 84.1044 154.325 84.736 155.443 85.8532C156.56 86.9708 157.192 88.4836 157.2 90.064V104.14" stroke="#020064" stroke-width="4" stroke-linecap="round" stroke-linejoin="round"/>
<path d="M112.46 96.028C120.696 96.028 127.372 89.3516 127.372 81.116C127.372 72.8804 120.696 66.204 112.46 66.204C104.224 66.204 97.548 72.8804 97.548 81.116C97.548 89.3516 104.224 96.028 112.46 96.028Z" stroke="#020064" stroke-width="4" stroke-linecap="round" stroke-linejoin="round"/>
<path d="M67.84 246.348C66.2996 247.888 65.1632 249.784 64.5308 251.868C63.8984 253.952 63.7896 256.16 64.214 258.296C64.6388 260.432 65.5836 262.431 66.9652 264.114C68.3468 265.798 70.122 267.115 72.134 267.949C74.146 268.783 76.3328 269.108 78.5004 268.894C80.6676 268.681 82.7492 267.937 84.5604 266.727C86.3716 265.517 87.8564 263.88 88.8832 261.959C89.91 260.038 90.4476 257.894 90.448 255.716V258.34C90.502 261.12 91.6444 263.769 93.6296 265.716C95.6152 267.663 98.2852 268.754 101.066 268.754C103.847 268.754 106.517 267.663 108.502 265.716C110.488 263.769 111.63 261.12 111.684 258.34C111.686 260.515 112.352 262.637 113.592 264.424" stroke="#020064" stroke-width="4" stroke-linecap="round" stroke-linejoin="round"/>
<path d="M204.024 227.856C213.924 234.956 221.144 239.856 226.752 243.368L226.096 256C226.01 257.563 225.617 259.094 224.939 260.505C224.261 261.916 223.312 263.18 222.146 264.224C220.98 265.268 219.62 266.072 218.143 266.591C216.666 267.11 215.101 267.332 213.538 267.246C211.975 267.16 210.444 266.767 209.033 266.089C207.622 265.411 206.358 264.462 205.314 263.296C204.27 262.13 203.466 260.77 202.947 259.292C202.428 257.816 202.206 256.251 202.292 254.688L203.724 228.5V227.68" stroke="#020064" stroke-width="4" stroke-linecap="round" stroke-linejoin="round"/>
<path d="M204.024 227.856L203.724 228.512L201.936 231.972L195.316 244.856C194.249 246.888 192.616 248.569 190.616 249.694C188.615 250.82 186.331 251.343 184.04 251.2C182.326 251.124 180.652 250.654 179.148 249.828C176.76 248.576 174.883 246.53 173.84 244.044" stroke="#020064" stroke-width="4" stroke-linecap="round" stroke-linejoin="round"/>
<path d="M202.892 227.02C202.592 226.784 202.236 226.544 201.936 226.308C196.864 222.608 191.2 218.372 184.636 213.42" stroke="#020064" stroke-width="4" stroke-linecap="round" stroke-linejoin="round"/>
<path d="M184.04 240.444L183.64 240.74C182.349 241.662 180.746 242.035 179.181 241.778C177.616 241.52 176.216 240.654 175.288 239.368L173.2 236.448" stroke="#020064" stroke-width="4" stroke-linecap="round" stroke-linejoin="round"/>
<path d="M380 251.176L359.916 231.092C358.798 229.974 357.281 229.346 355.7 229.346C354.119 229.346 352.602 229.974 351.484 231.092L294.54 288.036C293.422 289.155 292.794 290.672 292.794 292.254C292.794 293.836 293.422 295.353 294.54 296.472L314.62 316.552" stroke="#020064" stroke-width="4" stroke-linecap="round" stroke-linejoin="round"/>
<path d="M351.48 231.08L294.516 288.044L286.116 279.576C285.421 278.886 284.91 278.032 284.631 277.094C284.352 276.156 284.312 275.162 284.516 274.204C284.588 273.84 284.689 273.481 284.816 273.132C285.117 272.395 285.564 271.726 286.128 271.164L334.6 222.668C334.784 222.474 334.983 222.294 335.196 222.132C336.352 221.254 337.786 220.824 339.234 220.922C340.683 221.021 342.046 221.641 343.072 222.668L351.48 231.08Z" stroke="#020064" stroke-width="4" stroke-linecap="round" stroke-linejoin="round"/>
<path d="M204.044 227.856C204.016 227.802 203.972 227.756 203.919 227.725C203.866 227.694 203.806 227.678 203.744 227.68C203.494 227.428 203.214 227.206 202.912 227.02L204.044 227.856ZM203.248 193.916L201.936 193.32L203.248 193.916ZM220.844 201.908L203.244 193.908L220.844 201.96C221.929 202.483 223.045 202.941 224.184 203.332C223.112 202.924 222 202.448 220.844 201.908Z" stroke="#020064" stroke-width="4" stroke-linecap="round" stroke-linejoin="round"/>
<path d="M260.752 152.996L230.688 174.4C220.512 175.186 210.663 178.354 201.936 183.648C198.913 185.346 196.004 187.239 193.228 189.316L188.216 187.048C186.911 186.416 185.489 186.059 184.04 186C181.645 185.837 179.258 186.402 177.189 187.62C175.121 188.838 173.47 190.652 172.45 192.826C171.432 194.998 171.093 197.429 171.48 199.798C171.866 202.166 172.959 204.363 174.616 206.1C171.632 209.26 168.652 212.664 165.728 216.3C163.73 218.729 160.854 220.271 157.726 220.593C154.598 220.914 151.468 219.989 149.018 218.018C146.568 216.047 144.993 213.189 144.637 210.064C144.281 206.939 145.172 203.8 147.116 201.328C157.503 187.97 169.97 176.368 184.04 166.968C189.697 163.256 195.688 160.081 201.936 157.484C216.621 151.246 232.678 148.943 248.524 150.8C252.644 151.259 256.73 151.993 260.752 152.996Z" stroke="#020064" stroke-width="4" stroke-linecap="round" stroke-linejoin="round"/>
<path d="M204.024 227.856C213.924 234.956 221.144 239.856 226.752 243.368C232.761 247.281 239.182 250.52 245.9 253.028C263.556 259.948 271.368 263.232 284.372 274.98C284.383 274.719 284.423 274.46 284.492 274.208C284.564 273.842 284.664 273.482 284.792 273.132C285.093 272.395 285.54 271.726 286.104 271.164L334.6 222.668C334.785 222.474 334.984 222.296 335.196 222.132C320.044 209.008 315.572 182.164 289.684 165.404L256.04 189.264C256.009 191.535 255.326 193.75 254.072 195.644C251.716 198.736 248.645 201.209 245.122 202.851C241.6 204.494 237.73 205.256 233.848 205.072C232.852 205.07 231.857 205.01 230.868 204.892C228.589 204.624 226.348 204.104 224.184 203.34C223.045 202.949 221.929 202.491 220.844 201.968L203.244 193.916" stroke="#020064" stroke-width="4" stroke-linecap="round" stroke-linejoin="round"/>
<path d="M202.892 227.02C202.592 226.784 202.236 226.544 201.936 226.308C196.864 222.608 191.2 218.372 184.636 213.42C184.413 213.327 184.21 213.191 184.04 213.02C182.84 212.124 181.596 211.172 180.284 210.22C179.628 209.744 178.972 209.264 178.316 208.728C177.719 208.448 177.141 208.13 176.584 207.776L175.868 207.236C175.41 206.906 174.99 206.527 174.616 206.104C172.96 204.367 171.868 202.17 171.481 199.801C171.095 197.432 171.434 195.002 172.452 192.829C173.471 190.656 175.122 188.841 177.19 187.623C179.258 186.404 181.646 185.838 184.04 186C185.491 186.068 186.913 186.434 188.216 187.076L193.228 189.344L201.936 193.344" stroke="#020064" stroke-width="4" stroke-linecap="round" stroke-linejoin="round"/>
<path d="M351.48 231.08L294.516 288.044L286.116 279.576C285.421 278.886 284.91 278.032 284.631 277.094C284.352 276.156 284.312 275.162 284.516 274.204C284.588 273.84 284.689 273.481 284.816 273.132C285.117 272.395 285.564 271.726 286.128 271.164L334.6 222.668C334.784 222.474 334.983 222.294 335.196 222.132C336.352 221.254 337.786 220.824 339.234 220.922C340.683 221.021 342.046 221.641 343.072 222.668L351.48 231.08Z" stroke="#020064" stroke-width="4" stroke-linecap="round" stroke-linejoin="round"/>
<path d="M296.84 153.412C296.839 155.552 296.324 157.661 295.338 159.56C294.352 161.46 292.925 163.095 291.176 164.328L289.684 165.404L256.04 189.264L243.752 198.032L228.24 176.14L230.688 174.408L260.752 152.996L275.604 142.436C277.621 141.024 279.986 140.19 282.442 140.026C284.899 139.862 287.354 140.372 289.541 141.503C291.728 142.633 293.564 144.34 294.851 146.44C296.138 148.539 296.826 150.95 296.84 153.412Z" stroke="#020064" stroke-width="4" stroke-linecap="round" stroke-linejoin="round"/>
<path d="M230.328 163.668L264.368 139.484C265.317 138.779 266.399 138.274 267.548 137.998C268.698 137.722 269.891 137.681 271.056 137.878C272.222 138.076 273.336 138.507 274.33 139.146C275.325 139.785 276.18 140.618 276.844 141.596" stroke="#020064" stroke-width="4" stroke-linecap="round" stroke-linejoin="round"/>
<path d="M158.988 247.304L154.096 250.764C154.336 257.744 139.96 259.532 129.936 259.964C129.299 259.987 128.672 259.803 128.148 259.44C127.625 259.077 127.233 258.554 127.032 257.95C126.83 257.345 126.83 256.692 127.032 256.087C127.233 255.482 127.624 254.959 128.148 254.596L152.068 237.596L158.988 247.304Z" stroke="#020064" stroke-width="4" stroke-linecap="round" stroke-linejoin="round"/>
<path d="M177 241.816L173.84 244.024L164.832 250.4C164.199 250.858 163.41 251.046 162.638 250.922C161.867 250.8 161.176 250.376 160.716 249.744L158.988 247.3L152.068 237.6C151.838 237.28 151.673 236.917 151.585 236.533C151.496 236.149 151.484 235.751 151.551 235.362C151.618 234.973 151.761 234.602 151.973 234.269C152.184 233.936 152.46 233.649 152.784 233.424L164.892 224.776L166.092 226.376C166.229 226.648 166.39 226.908 166.572 227.152C166.588 227.152 166.603 227.158 166.614 227.17C166.626 227.181 166.632 227.196 166.632 227.212L173.192 236.412V236.472L175.28 239.392L177 241.816Z" stroke="#020064" stroke-width="4" stroke-linecap="round" stroke-linejoin="round"/>
<path d="M184.04 240.444L201.936 227.736L202.892 227.02C202.592 226.784 202.236 226.544 201.936 226.308C196.864 222.608 191.2 218.372 184.636 213.42C184.413 213.327 184.21 213.191 184.04 213.02C182.84 212.124 181.596 211.172 180.284 210.22L168.056 218.928C166.889 219.728 166.048 220.922 165.686 222.29C165.324 223.658 165.465 225.111 166.084 226.384C166.221 226.656 166.382 226.916 166.564 227.16C166.58 227.16 166.595 227.166 166.606 227.178C166.618 227.189 166.624 227.204 166.624 227.22L173.184 236.42" stroke="#020064" stroke-width="4" stroke-linecap="round" stroke-linejoin="round"/>
<path d="M243.752 198.032L233.848 205.072C232.852 205.07 231.857 205.01 230.868 204.892C228.589 204.624 226.348 204.104 224.184 203.34C223.045 202.949 221.929 202.491 220.844 201.968L203.244 193.916L228.236 176.14L243.752 198.032Z" stroke="#020064" stroke-width="4" stroke-linecap="round" stroke-linejoin="round"/>
<path d="M203.248 193.916L201.936 193.32" stroke="#020064" stroke-width="4" stroke-linecap="round" stroke-linejoin="round"/>
<path d="M204.024 227.856C203.996 227.802 203.952 227.756 203.899 227.725C203.846 227.694 203.786 227.678 203.724 227.68C203.474 227.428 203.194 227.206 202.892 227.02" stroke="#020064" stroke-width="4" stroke-linecap="round" stroke-linejoin="round"/>
<path d="M203.248 193.916L201.936 193.32" stroke="#020064" stroke-width="4" stroke-linecap="round" stroke-linejoin="round"/>
<path d="M204.024 227.856C203.996 227.802 203.952 227.756 203.899 227.725C203.846 227.694 203.786 227.678 203.724 227.68C203.474 227.428 203.194 227.206 202.892 227.02" stroke="#020064" stroke-width="4" stroke-linecap="round" stroke-linejoin="round"/>
</svg>
