<svg width="400" height="400" viewBox="0 0 400 400" fill="none" xmlns="http://www.w3.org/2000/svg">
<path d="M223.246 75.018C220.973 74.3879 218.56 74.4851 216.346 75.296C214.992 75.742 215.568 74.696 215.038 70.934C214.615 66.8907 213.301 62.9914 211.192 59.516C206.678 52.9 192.362 51.146 187.262 60.636C187.028 61.498 190.438 58.52 190.916 59.956C191.392 61.458 188.266 61.174 187.604 63.156C187.53 63.2814 187.428 63.3878 187.305 63.4668C187.183 63.5458 187.044 63.5952 186.899 63.6111C186.754 63.627 186.608 63.609 186.471 63.5585C186.334 63.5079 186.212 63.4263 186.112 63.32C185.424 65.365 184.883 67.4563 184.492 69.578C182.316 80.354 183.474 89.106 194.134 91.926C201.396 93.854 203.604 92.476 203.514 94.386C203.382 99.0487 204.001 103.702 205.348 108.168C205.564 108.786 206.254 110.498 206.904 110.498C206.916 110.498 206.938 110.51 206.95 110.51C209.116 110.183 211.138 109.227 212.766 107.76C214.51 101.178 218.108 101.708 218.21 100.994C218.38 99.774 217.424 92.344 217.256 90.87C215.768 78.176 215.646 81.982 220.55 81.086C222.129 80.7472 223.552 79.8939 224.594 78.66C225.358 77.58 224.08 75.932 222.882 75.38L223.246 75.018Z" fill="#FFCEB6"/>
<path d="M124.742 96.5479C124.494 95.3619 122.674 95.8659 122.922 97.0519C123.191 98.6979 123.104 100.382 122.67 101.992C122.235 103.602 121.461 105.101 120.4 106.388C116.074 112.088 108.858 113.694 101.822 114.962C108.722 108.266 104.186 97.5619 102.398 99.8479C99.7319 103.248 97.2239 106.648 97.3359 110.968C97.3359 111.168 97.7059 116.054 97.6759 115.736C92.9384 116.429 88.3938 118.088 84.3239 120.61C89.2399 111.8 86.6779 101.526 81.3239 92.8839C80.8659 92.1439 79.4799 92.3779 79.5739 93.3539C80.4139 102.18 73.7899 116.934 80.9739 122.554C81.7099 123.106 81.8939 122.394 80.6339 123.858C78.0865 126.895 76.3242 130.512 75.5019 134.39C74.8962 130.512 73.3506 126.841 70.9999 123.698C68.6779 120.898 65.6199 119.052 58.3879 114.022C57.5759 113.458 56.6599 114.538 57.0959 115.314C62.0539 124.156 59.4179 135.166 74.8039 138.402C73.3699 151.746 78.8639 162.602 75.0499 186.948C74.8639 188.134 76.6839 188.64 76.8719 187.454C78.6711 175.759 78.7223 163.862 77.0239 152.152C77.2128 152.169 77.4017 152.12 77.5583 152.013C77.7148 151.906 77.8293 151.748 77.8819 151.566C87.1239 148.184 91.8819 138.66 93.7699 129.5C93.9459 128.666 92.8419 127.796 92.1959 128.584C87.0499 134.748 78.9699 138.536 76.5539 146.962C74.0699 106.962 109.046 124.624 122.048 107.328C123.234 105.824 124.087 104.085 124.55 102.227C125.014 100.368 125.078 98.4328 124.738 96.5479H124.742ZM64.0519 128.8C62.3019 125.22 61.5859 121.262 60.1759 117.55C69.3519 123.884 71.8619 125.072 73.9759 136.282C69.0319 135.118 66.3759 133.52 64.0539 128.8H64.0519ZM83.2539 139.652C85.7199 137.126 88.5499 134.966 91.0859 132.524C89.0199 139.686 85.0039 146.65 77.9579 149.552C78.5572 145.749 80.4234 142.261 83.2539 139.652ZM99.7539 107.652C100.507 105.708 101.565 103.897 102.888 102.286C103.762 104.399 103.907 106.743 103.301 108.948C102.696 111.153 101.373 113.094 99.5419 114.464C99.0773 112.208 99.1499 109.875 99.7539 107.652ZM65.7299 159.468C63.8815 155.698 61.3671 152.292 58.3079 149.416C58.4481 149.279 58.5323 149.095 58.5439 148.9C58.9719 148.214 58.0139 148.726 59.5999 146.832C63.9479 141.632 60.1999 135.866 55.6659 130.98C55.5492 130.867 55.4054 130.785 55.2482 130.743C55.0911 130.701 54.9258 130.7 54.7681 130.74C54.6105 130.781 54.4657 130.86 54.3477 130.972C54.2297 131.084 54.1423 131.225 54.0939 131.38C52.6485 136.856 53.3849 142.679 56.1479 147.622C53.3744 145.502 50.0796 144.171 46.6119 143.77L46.4479 143.546C45.5831 141.135 44.1783 138.954 42.3411 137.169C40.5039 135.384 38.2829 134.043 35.8479 133.248C35.4734 134.727 35.5457 136.284 36.0559 137.722C36.566 139.161 37.491 140.415 38.7139 141.328C42.1719 144.128 45.0179 143.498 42.8459 143.794C40.3846 143.967 38.0041 144.745 35.9164 146.06C33.8287 147.376 32.0985 149.186 30.8799 151.332C30.6799 152.132 25.3699 155.308 29.6939 168.584C30.8579 172.14 38.6359 161.076 33.3219 151.638C33.2587 151.522 33.1706 151.422 33.0639 151.344C34.6185 149.212 36.7364 147.555 39.18 146.56C41.6235 145.564 44.2961 145.269 46.8979 145.708C44.9646 146.284 43.2296 147.386 41.8874 148.892C40.5451 150.398 39.6485 152.247 39.2979 154.234C39.2651 156.398 38.9935 158.552 38.4879 160.656C38.2179 161.374 39.0039 161.96 39.6499 161.82C42.9656 160.98 45.9263 159.103 48.1001 156.462C50.2739 153.821 51.5471 150.555 51.7339 147.14C56.9658 149.859 61.1615 154.219 63.6779 159.552C65.7679 163.536 62.7399 157.602 56.7959 161.526C54.3299 163.126 52.4739 165.836 49.5959 166.764C49.3836 166.832 49.2019 166.972 49.0825 167.16C48.9632 167.349 48.9139 167.573 48.9432 167.794C48.9725 168.015 49.0786 168.218 49.2429 168.369C49.4072 168.52 49.6193 168.608 49.8419 168.618C53.2819 168.83 56.7359 169.194 60.1759 169.252C64.4139 169.328 64.2419 166.332 65.6019 164.672C65.6622 164.594 65.7095 164.507 65.7419 164.414C67.9847 171.75 68.7081 179.467 67.8679 187.092C67.8679 187.341 67.967 187.58 68.1433 187.757C68.3195 187.933 68.5586 188.032 68.8079 188.032C69.0572 188.032 69.2963 187.933 69.4726 187.757C69.6489 187.58 69.7479 187.341 69.7479 187.092C70.7479 179.408 69.6499 167.292 65.7299 159.458V159.468ZM30.9699 166.364C29.6659 161.948 28.8799 156.816 31.9099 153.036C32.9556 155.14 33.4199 157.485 33.2546 159.828C33.0893 162.171 32.3006 164.428 30.9699 166.364ZM40.7299 159.506C41.2579 156.442 40.4499 153.982 42.6439 150.922C43.4683 149.78 44.5464 148.846 45.7933 148.191C47.0403 147.537 48.4221 147.181 49.8299 147.152C49.6622 149.868 48.7145 152.479 47.1004 154.67C45.4864 156.861 43.2744 158.54 40.7299 159.506ZM55.5299 133.624C58.4139 136.824 61.0199 141.148 58.7299 144.838C58.3879 145.39 57.9539 145.872 57.5779 146.364C55.5028 142.461 54.7805 137.981 55.5239 133.624" fill="#5BBD8F"/>
<path d="M91.014 187.184C60.1 186.824 61.856 187.128 61.856 188.134C61.52 223.99 61.174 222.414 62.478 222.414C85.554 222.752 85.002 223.03 85.178 222.036C92.2 187.2 92.684 187.184 91.014 187.184ZM84.214 217.364C83.98 218.526 83.746 219.688 83.522 220.84C56.27 220.42 66.442 220.606 63.44 220.546C63.514 213.376 63.618 200.556 63.746 189.074H89.876L84.214 217.364ZM125.552 187.864C125.224 186.552 123.61 187.532 115.136 187.196H99.986C94.486 187.434 96.048 184.72 93.938 199.396C90.64 222.796 90.158 223.084 91.66 223.084C122.428 223.402 120.678 223.108 120.784 222.39C125.86 186.318 125.694 188.36 125.552 187.864Z" fill="#E59E70"/>
<path d="M139.374 84.898C138.286 86.315 136.937 87.5111 135.4 88.422C136.48 85.9429 137.42 83.4056 138.218 80.822C138.267 80.6231 138.251 80.4136 138.171 80.2249C138.091 80.0362 137.952 79.8785 137.775 79.7753C137.598 79.6722 137.392 79.6292 137.189 79.6527C136.985 79.6763 136.795 79.7651 136.646 79.906C134.392 81.8643 131.981 83.6349 129.438 85.2L130.46 78.4C130.508 78.2011 130.491 77.9919 130.411 77.8036C130.33 77.6153 130.191 77.458 130.015 77.355C129.838 77.252 129.632 77.209 129.429 77.2322C129.225 77.2555 129.035 77.3438 128.886 77.484C116.6 88.04 108.708 92.502 118.964 101.14C119.892 101.914 121.23 100.588 120.29 99.812C111.852 92.76 117.182 89.872 128.242 80.506C127.042 88.452 125.51 91.006 135.38 83.372C134.573 85.6141 133.66 87.8166 132.644 89.972C132.328 90.63 132.868 91.674 133.714 91.358C135.736 90.5756 137.587 89.4065 139.162 87.916C138.767 91.2263 137.416 94.3497 135.274 96.9046C133.132 99.4594 130.292 101.335 127.102 102.302C126.861 102.369 126.656 102.529 126.532 102.747C126.409 102.965 126.377 103.223 126.444 103.464C126.511 103.705 126.671 103.91 126.889 104.034C127.107 104.157 127.365 104.189 127.606 104.122C142.66 99.894 142.752 80.442 139.374 84.898Z" fill="#FF9F48"/>
<path d="M107.28 173.632C107.182 171.549 106.95 169.474 106.586 167.42C105.586 162.05 102.896 159.734 97.0979 155.712C96.4639 155.264 95.4059 156.016 95.7119 156.78C97.2039 160.432 98.5879 164.154 100.232 167.736C105.09 178.336 106.068 166.372 105.458 186.208C105.458 186.457 105.557 186.696 105.733 186.873C105.91 187.049 106.149 187.148 106.398 187.148C106.647 187.148 106.886 187.049 107.063 186.873C107.239 186.696 107.338 186.457 107.338 186.208C107.434 182.922 107.538 176.91 107.28 173.632ZM158.21 119.06C155.98 123.301 152.711 126.909 148.71 129.546C142.082 134.244 134.546 136.946 127.866 141.56C130.638 131.92 138.13 130.976 135.886 116.36C135.886 113.29 133.652 114.198 133.854 115.478C134.568 119.616 130.564 121.04 124.682 128.572C121.596 132.548 120.822 136.544 125.54 142.688C125.645 142.822 125.783 142.928 125.94 142.994C120.899 146.652 117.196 151.862 115.4 157.826C114.166 152.588 110.068 148.066 105.982 144.59C102.964 142.012 102.85 156.438 111.924 164.636C112.057 164.751 112.219 164.829 112.393 164.86C112.567 164.892 112.746 164.876 112.911 164.815C113.077 164.753 113.223 164.649 113.334 164.512C113.445 164.375 113.518 164.211 113.544 164.036C110.792 194.296 111.874 183.962 111.466 187.3C111.324 188.5 113.204 188.486 113.344 187.3C113.944 182.486 114.528 161.992 117.866 157.542C121.304 159.601 125.39 160.296 129.316 159.49C134.048 158.786 136.678 154.958 139.144 151.27C140.744 149.07 141.97 146.622 142.774 144.024C142.824 143.825 142.808 143.615 142.728 143.425C142.648 143.236 142.509 143.078 142.331 142.975C142.154 142.871 141.947 142.828 141.743 142.852C141.539 142.877 141.349 142.966 141.2 143.108C133.152 151.108 127.422 146.07 120.66 151.108C127.128 141.49 139.394 138.2 148.86 131.766C153.509 128.842 157.318 124.759 159.912 119.918C159.324 119.679 158.754 119.396 158.208 119.072L158.21 119.06ZM113.538 163.85C113.434 164.06 113.738 163.752 113.244 163.286C111.015 161.25 109.234 158.772 108.016 156.01C106.797 153.248 106.166 150.263 106.164 147.244C110.826 151.518 115.242 157.226 113.538 163.844V163.85ZM122.138 152.288C127.404 148.74 131.938 151.96 139.648 146.78C138.554 148.878 135.048 154.542 132.448 156.304C129.2 158.49 121.824 158.304 118.742 155.834C119.604 154.419 120.764 153.209 122.142 152.288" fill="#5BBD8F"/>
<path d="M176.73 108.538C175.94 107.486 175.302 108.548 170.916 109.77C171.637 108.336 172.276 106.862 172.83 105.356C172.873 105.195 172.873 105.026 172.83 104.865C172.787 104.704 172.702 104.557 172.585 104.439C172.467 104.321 172.32 104.236 172.159 104.193C171.998 104.149 171.829 104.149 171.668 104.192C169.883 104.78 168.137 105.483 166.442 106.294L166.69 101.034C166.687 100.869 166.641 100.708 166.557 100.566C166.472 100.424 166.353 100.306 166.209 100.225C166.066 100.143 165.904 100.1 165.739 100.1C165.574 100.1 165.411 100.142 165.268 100.224C144.28 111.024 158.114 125.358 170.142 119.2C175.246 116.6 177.378 109.452 176.73 108.538ZM118.354 134.8C117.115 135.107 115.861 135.346 114.596 135.516C114.76 134.436 114.912 133.344 115.076 132.264C115.17 131.63 114.676 130.842 113.914 131.1C112.764 131.512 111.588 131.864 110.402 132.18C110.544 130.924 110.696 129.668 110.838 128.412C111.282 124.71 99.2099 132.65 102.71 138.946C103.842 140.641 105.485 141.931 107.401 142.628C109.317 143.325 111.405 143.392 113.362 142.82C116.51 141.62 120.962 134.864 118.362 134.8" fill="#FF9F48"/>
<path d="M215.564 317.23C196.128 314.334 205.192 315.692 178.644 311.734L179.782 303.466C179.554 303.408 177.736 302.92 177.982 302.986C176.708 312.324 176.276 313.288 177.36 313.448C181.74 314.095 186.12 314.745 190.5 315.398C218.126 319.504 217.168 319.736 217.346 318.31C217.722 315.256 218.11 312.204 218.486 309.162C217.898 309.232 217.264 309.278 216.582 309.304C216.23 311.922 215.902 314.576 215.572 317.23H215.564ZM259.85 193.642C258.956 192.714 252.168 192.442 245.358 192.398C243.105 198.687 239.579 204.444 235 209.308C240.285 208.972 245.472 207.716 250.326 205.598C257.9 201.558 261.726 195.568 259.85 193.642ZM286.906 292.698C223.316 205.58 230.394 213.934 228.424 215.698C226.842 217.11 228.868 211.238 215.6 261.378C213.61 268.896 213.89 267.916 213.862 268.002C213.795 268.243 213.827 268.501 213.95 268.719C214.074 268.937 214.279 269.097 214.52 269.164C214.761 269.231 215.019 269.199 215.237 269.076C215.455 268.952 215.615 268.747 215.682 268.506C217.452 261.83 228.568 219.576 229.222 217.152C229.332 216.722 228.808 216.214 234.022 223.318C293.28 304.576 285.52 291.592 284.072 296.318C285.294 296.53 289.892 297.47 290.456 297.564C291.73 297.79 291.326 299.68 290.118 299.29C288.006 298.948 285.904 298.562 283.802 298.186C283.708 307.45 297.19 307.24 297.19 298.398C297.164 297.209 296.827 296.048 296.213 295.031C295.598 294.013 294.728 293.174 293.688 292.598C292.649 292.022 291.476 291.728 290.287 291.746C289.099 291.764 287.936 292.094 286.914 292.702L286.906 292.698ZM192.32 283.366C187.068 275.32 193.72 282.458 171.058 262.154C115.73 212.6 127.762 223.464 126.104 221.862C126.018 221.772 126.088 221.706 125.528 223.862C125.792 224.098 158.798 253.692 167.37 261.37C193.044 284.386 189.02 280.84 191.444 282.97L192.32 283.366ZM150.294 236.952C161.24 246.84 177.294 261.352 184.14 267.532C183.74 266.37 183.376 265.182 183.036 263.996C172.454 254.414 128.29 214.572 127.948 214.228C127.772 214.91 127.606 215.592 127.43 216.272C130.51 219.056 128.004 216.786 150.294 236.952ZM93.774 292.968C93.562 293.286 90.862 298.668 90.744 298.898C90.192 299.978 88.572 299.028 89.124 297.948L92.106 292.1C91.1097 291.734 90.0401 291.614 88.9875 291.749C87.9349 291.883 86.9301 292.269 86.058 292.874C84.9063 293.706 84.0455 294.879 83.5974 296.228C83.1494 297.576 83.1368 299.031 83.5615 300.387C83.9862 301.743 84.8266 302.931 85.9638 303.783C87.101 304.635 88.4773 305.108 89.898 305.134C91.321 305.137 92.7079 304.686 93.8576 303.848C95.0073 303.009 95.86 301.826 96.292 300.471C96.7239 299.115 96.7127 297.657 96.26 296.307C95.8072 294.958 94.9364 293.789 93.774 292.968Z" fill="#FFD35C"/>
<path d="M259.556 153.538C262.328 155.37 265.098 157.214 267.858 159.046C267.058 150.904 259.684 151.998 254.142 150.446C255.848 158.808 258.844 161.928 267.412 161.544C267.624 160.96 269.308 162.282 258.592 155.18C257.606 154.51 258.546 152.878 259.556 153.546" fill="#86F2AA"/>
<path d="M264.852 163.414C264.294 164.224 259.744 166.044 254.916 165.306C254.675 165.239 254.47 165.079 254.347 164.861C254.223 164.642 254.192 164.384 254.259 164.143C254.326 163.902 254.486 163.697 254.704 163.574C254.923 163.45 255.181 163.419 255.422 163.486C257.471 163.781 259.56 163.599 261.528 162.956C259.658 162.54 257.941 161.609 256.572 160.268C256.464 160.288 256.353 160.286 256.246 160.262C256.139 160.237 256.038 160.191 255.95 160.126C254.902 159.38 254.056 160.19 246.75 163.526C257.186 171.906 264.67 169.126 267.406 163.398C266.558 163.458 265.707 163.466 264.858 163.42L264.852 163.414ZM264.864 143.252C264.348 142.97 263.336 142.582 262.464 142.088C261.864 144.918 261.464 148.254 263.226 150.488C265.054 151.001 266.674 152.078 267.854 153.566C267.745 151.287 266.929 149.099 265.518 147.306C264.672 146.438 266.01 145.106 266.844 145.98C270.164 149.41 270.126 157.334 269.644 158.134C269.767 159.112 269.83 160.096 269.832 161.082C274.538 158.682 276.318 149.366 264.866 143.244" fill="#86F2AA"/>
<path d="M227.528 51.982C227.856 52.688 228.528 53.25 228.788 53.966C229.422 54.0408 230.06 53.871 230.573 53.4911C231.086 53.1113 231.435 52.5501 231.548 51.922C231.781 50.4347 231.638 48.9126 231.131 47.4951C230.624 46.0775 229.77 44.8098 228.646 43.808C226.526 42.436 221.94 43.142 219.478 43.656C222.946 45.5469 225.755 48.4517 227.528 51.982ZM199.336 136.722C204.786 129.922 207.16 120.286 211.748 111.744C211.882 110.144 211.982 110.458 211.748 110.558C207.598 113.036 204.916 112.998 203.468 108.478C194.868 117.908 189.242 133.478 185.324 145.636C190.743 144.042 195.603 140.953 199.346 136.722H199.336ZM223.152 151.518C224.388 154.374 226.024 157.039 228.012 159.434C228.754 158.952 229.716 158.318 230.856 157.52C230.358 156.72 227.568 151.79 225.992 148.806C225.092 149.758 224.144 150.663 223.152 151.518ZM227.366 147.326C228.959 150.398 230.651 153.417 232.44 156.38C237.442 152.723 241.93 148.41 245.782 143.556C243.067 134.538 239.594 125.766 235.4 117.334C235.828 128.066 234.564 138.934 227.366 147.334" fill="#AC47F5"/>
<path d="M232.628 167.63C224.24 158.142 223.866 156.47 221.752 152.066C210.082 161.218 192.698 165.782 178.022 167.432C178.075 169.091 178.74 170.671 179.888 171.87C190.168 182.756 207.47 183.546 222.364 182.11C229.802 181.665 237.152 180.26 244.23 177.93C239.896 175.062 235.99 171.594 232.63 167.63" fill="#AC47F5"/>
<path d="M200.228 161.148C217.518 155.908 232.298 146.016 234.334 128.066C235.286 119.574 233.224 106.99 225.054 104.628C218.514 102.716 214.528 109.32 211.312 116.172C200.66 139.146 203.14 143.048 173.488 151.144C159.112 155.026 158.958 153.158 159.914 154.656C166.662 165.886 160.092 167.292 165.822 166.974C177.475 166.37 189.019 164.415 200.222 161.148" fill="#AC47F5"/>
<path d="M180.862 211.444C175.988 203.528 179.114 195.09 195.166 198.634C199.48 192.872 204.342 187.728 206.072 182.434C196.932 181.68 184.272 177.182 179.008 170.736C157.896 179.224 151.034 197.6 154.536 212.118C165.598 211.848 162.784 211.496 180.57 211.07L180.862 211.444ZM181.838 212.924C147.698 213.74 156.332 213.538 154.888 213.57C158.488 225.268 168.662 235.014 180.064 241.684C180.076 241.39 180.064 241.084 180.076 240.792C180.352 232.482 182.003 224.276 184.962 216.506C183.841 215.384 182.797 214.187 181.838 212.924Z" fill="#FF8684"/>
<path d="M244.694 177.704C237.463 180.112 229.956 181.591 222.352 182.104C197.276 184.44 213.752 176.816 199.466 196.02C193.544 204.02 189.356 208.512 185.866 217.82C173.444 251.174 190.414 287.308 202.756 291.962C207.214 293.64 211.214 292.032 212.344 287.016C214.804 276.062 205.692 266.632 206.006 249.116C206.634 216.116 246.764 216.392 245.794 178.41L244.694 177.704Z" fill="#FF8684"/>
<path d="M360.584 337.3C355.902 342.668 352.444 348.991 350.45 355.83C350.398 356.066 350.439 356.313 350.564 356.52C350.689 356.727 350.888 356.879 351.121 356.943C351.354 357.008 351.602 356.981 351.816 356.868C352.03 356.755 352.192 356.565 352.27 356.336C354.169 349.807 357.463 343.769 361.924 338.638C362.71 337.722 361.382 336.384 360.584 337.3ZM374.2 336.676C367.055 341.618 361.431 348.455 357.96 356.418C357.478 357.522 359.11 358.484 359.58 357.368C362.892 349.687 368.28 343.083 375.14 338.298C376.14 337.616 375.198 335.984 374.2 336.676ZM388.58 337.6C380.905 341.837 374.226 347.668 368.992 354.7C368.264 355.674 369.896 356.614 370.614 355.65C375.677 348.888 382.127 343.287 389.532 339.222C390.6 338.646 389.65 337.022 388.58 337.6ZM11.382 342.044C10.382 341.374 9.42197 343.006 10.43 343.664C13.1232 345.468 15.3482 347.887 16.9209 350.722C18.4936 353.556 19.3687 356.724 19.474 359.964C19.4851 360.205 19.5889 360.433 19.7638 360.6C19.9387 360.767 20.1712 360.861 20.413 360.861C20.6548 360.861 20.8873 360.767 21.0621 360.6C21.237 360.433 21.3408 360.205 21.352 359.964C21.2358 356.399 20.2706 352.914 18.5365 349.797C16.8025 346.68 14.3497 344.022 11.382 342.044ZM17.7 335.044C16.866 334.164 15.54 335.492 16.374 336.372C20.8889 341.161 24.0357 347.074 25.486 353.494C25.756 354.68 27.566 354.174 27.306 352.988C25.7611 346.258 22.4469 340.064 17.706 335.044H17.7ZM27.788 337.37L28.388 350.828C28.448 352.028 30.326 352.028 30.268 350.828L29.668 337.37C29.622 336.17 27.732 336.17 27.79 337.37H27.788ZM149.132 335.42C146.631 340.242 144.617 345.301 143.12 350.522C143.087 350.641 143.078 350.766 143.093 350.889C143.108 351.012 143.147 351.131 143.208 351.239C143.269 351.347 143.351 351.442 143.449 351.518C143.547 351.595 143.658 351.651 143.778 351.684C143.897 351.717 144.022 351.726 144.145 351.711C144.268 351.696 144.387 351.657 144.495 351.596C144.603 351.535 144.698 351.453 144.774 351.355C144.851 351.257 144.907 351.145 144.94 351.026C146.39 345.96 148.341 341.051 150.764 336.372C151.316 335.292 149.696 334.34 149.132 335.42ZM156.026 338.4C153.468 342.335 151.409 346.572 149.896 351.014C149.508 352.166 151.316 352.658 151.716 351.52C153.184 347.237 155.18 343.153 157.658 339.364C158.316 338.33 156.694 337.38 156.026 338.4ZM163.072 342.866C162.854 342.746 162.598 342.714 162.358 342.777C162.117 342.841 161.91 342.994 161.78 343.206C160.404 345.186 155.918 353.482 158.246 354.116C158.487 354.181 158.744 354.148 158.962 354.025C159.179 353.902 159.339 353.698 159.408 353.458C161.11 345.374 164.88 343.92 163.072 342.858V342.866ZM209.564 338.872C208.682 338.04 207.344 339.366 208.236 340.2C211.707 343.476 214.324 347.552 215.858 352.072C216.246 353.212 218.058 352.73 217.678 351.568C216.042 346.741 213.257 342.384 209.564 338.872ZM216.47 335.338C215.66 334.432 214.332 335.772 215.142 336.666C218.536 340.465 220.862 345.097 221.882 350.088C222.128 351.274 223.938 350.77 223.702 349.584C222.592 344.28 220.096 339.365 216.47 335.338ZM225.982 334.48C226.265 339.129 226.55 343.78 226.838 348.432C226.91 349.632 228.8 349.632 228.718 348.432C228.437 343.781 228.151 339.131 227.86 334.48C227.79 333.28 225.91 333.28 225.982 334.48ZM237.96 341.328C237.742 341.207 237.486 341.175 237.245 341.238C237.004 341.302 236.796 341.456 236.666 341.668C231.534 348.708 230.806 349.17 231.982 349.868C233.028 350.484 233.148 349.668 238.3 342.612C238.423 342.395 238.457 342.138 238.393 341.897C238.33 341.655 238.174 341.448 237.96 341.32" fill="#5BBD8F"/>
<path d="M186.512 212.82C182.562 221.638 180.376 231.143 180.076 240.8C179.858 248.641 180.865 256.469 183.06 264C186.592 276.302 197.23 297.8 209.236 293.69C214.814 291.774 215.06 284.552 214.284 279.678C212.348 267.654 197.81 246.628 217.268 225.988C226.604 216.06 247.444 203.852 247.668 179.648C247.032 179.384 246.408 179.094 245.798 178.776C246.348 214.662 206.034 216.418 205.462 249.228C205.146 266.828 214.826 276.116 212.368 287.064C211.244 292.064 207.51 293.23 203.03 291.54C191.254 287.098 183.262 262.54 182.162 248.982C179.196 211.696 202.076 197.906 207.282 182.56C204.06 182.322 206.566 181.586 202.96 187.658C197.708 196.502 192.462 200.714 187.436 210.956C185.296 211.012 128.506 212.356 128.46 212.356C129.17 209.556 137.794 175.356 137.96 174.636C138.012 174.4 137.971 174.153 137.846 173.946C137.721 173.739 137.522 173.587 137.289 173.523C137.056 173.458 136.807 173.485 136.594 173.598C136.38 173.711 136.218 173.901 136.14 174.13C117.894 246.73 121.856 234.31 116.612 244.274C105.862 239.085 93.802 237.245 81.9942 238.992C70.1864 240.74 59.1759 245.994 50.39 254.074C5.25396 294.42 40.28 367.508 97.19 362.03C124.86 359.356 148.762 337.698 152.336 309.808C155.288 286.544 144.456 260.646 118.28 245.16C122.962 236.034 121.45 240.804 126.548 220.018L127.992 214.276C178.832 213.116 185.206 212.848 186.522 212.82H186.512ZM136.744 263.034C165.568 299.09 147.756 347.724 106.082 358.52C51.356 372.684 8.24196 306.05 45.482 261.754C62.882 241.036 91.768 234.032 115.706 245.912L111.362 254.414C102.656 250.341 92.9358 248.945 83.4353 250.405C73.9348 251.864 65.082 256.113 58 262.612C21.168 295.478 49.83 354.93 96 350.51C142.696 346.028 161.05 284.048 113.074 255.26C114.519 252.431 115.968 249.601 117.42 246.77C124.894 250.838 131.472 256.369 136.762 263.034H136.744ZM90.762 298.898C91.62 297.212 111.452 258.428 112.206 256.95C119.13 260.711 125.116 265.987 129.717 272.385C134.318 278.782 137.416 286.135 138.78 293.896C147.018 341.456 82.98 370.624 52.466 328.55C22.886 287.67 67.484 235.71 110.514 256.094C109.426 258.188 89.218 297.754 89.114 297.958C88.598 299.028 90.218 299.978 90.77 298.898H90.762ZM353.256 300.272C351.456 251.988 297.798 219.57 255.798 250.072C256.174 250.576 256.538 251.082 256.914 251.598C281.836 233.442 316.098 236.536 337.274 263.024C366.022 298.986 348.274 347.728 306.612 358.51C265.086 369.26 225.488 331.968 233.168 289.284L242.568 290.938C240.576 302.102 242.379 313.611 247.688 323.632C273.166 371.504 343.396 350.484 341.812 300.262C340.298 260.848 296.65 234.638 262.568 259.348C262.944 259.854 263.308 260.348 263.684 260.876C296.236 237.248 338.484 262.242 339.944 300.262C341.42 344.374 281.93 368.482 252.974 328.54C249.118 323.22 246.375 317.177 244.908 310.773C243.441 304.368 243.281 297.734 244.436 291.266C245.698 291.488 281.966 297.866 283.764 298.196C292.42 299.742 289.712 299.16 290.2 299.322C291.386 299.534 291.89 297.722 290.704 297.502C290.142 297.41 285.256 296.54 284.034 296.328C283.938 296.314 246.47 289.708 244.812 289.424C246.456 281.94 249.887 274.966 254.812 269.096C262.212 260.314 263.212 263.364 261.058 260.464C251.86 267.601 245.447 277.728 242.928 289.094L233.528 287.438C235.512 277.978 239.796 269.153 246 261.742C255.314 250.64 256.65 254.356 254.29 251.184C242.718 260.091 234.692 272.825 231.65 287.108C230.688 286.932 221.492 285.326 221.41 285.308C220.222 285.096 219.718 286.908 220.904 287.128C222.514 287.406 231.05 288.908 231.286 288.948C221.338 346.072 289.136 386.368 333.664 345.892C340.058 340.178 345.125 333.135 348.509 325.255C351.893 317.376 353.512 308.851 353.252 300.28L353.256 300.272ZM231.56 51.922C234.014 54.248 244.172 63.538 249.504 63.266C255.598 62.95 252.286 55.576 252.286 55.576C268.962 60.496 275.15 46.708 273.554 41.036C271.958 35.364 268.754 38.582 268.754 38.582C266.42 41.6699 263.057 43.82 259.275 44.6429C255.492 45.4657 251.54 44.9071 248.134 43.068C237.212 37.748 230.024 42.024 228.052 43.48C230.618 44.56 232.208 49.33 231.564 51.922H231.56ZM182.496 60.6C182.496 60.6 180.78 64.686 183.152 66.93C181.578 73.58 180.498 82.068 184.352 87.73C187.966 93.058 195.71 95.044 202.152 94.718C202.088 97.1747 202.158 99.633 202.364 102.082C202.487 104.122 202.817 106.145 203.35 108.118C203.384 108.246 203.432 108.376 203.466 108.504C204.938 113.038 207.606 113.056 211.746 110.584C211.792 110.546 211.843 110.515 211.898 110.49C212.016 109.613 212.189 108.745 212.416 107.89C211.358 108.712 208.216 110.744 206.954 110.322C206.954 110.322 206.754 110.266 206.754 110.262C203.954 108.708 203.954 96.992 204.1 93.752C204.19 91.834 201.474 93.924 194.176 91.99C182.848 88.99 182.332 79.366 184.898 67.928C185.223 66.3881 185.643 64.8699 186.156 63.382C186.255 63.4886 186.378 63.5706 186.514 63.6214C186.651 63.6722 186.797 63.6903 186.942 63.6744C187.087 63.6584 187.226 63.6089 187.348 63.5296C187.47 63.4504 187.572 63.3436 187.646 63.218C188.092 62.4334 188.769 61.805 189.584 61.418C190.004 61.234 191.282 61.03 190.958 60.018C190.482 58.588 188.34 59.802 187.306 60.7C192.338 51.33 206.368 53.252 210.97 59.994C213.318 64.117 214.657 68.7366 214.88 73.476C214.986 74.7 214.68 76.308 216.008 75.876C222.862 73.622 225.342 76.392 223.818 78.706C222.862 79.7526 221.543 80.3962 220.13 80.506C215.256 81.458 215.812 78.086 217.33 90.958C217.785 94.1544 218.068 97.3731 218.176 100.6C218.122 100.974 217.976 100.866 218.834 100.612C220.458 100.07 220.606 102.692 218.564 85.662C227.778 86.36 234.662 69.418 228.838 54.048C220.438 31.74 185.438 38.396 178.812 53.932C173.212 66.896 182.512 60.59 182.512 60.59" fill="#1D1D1B"/>
<path d="M57.24 228.742C59.314 229.814 57.56 229.446 102.136 229.318C108.288 229.294 120.584 229.26 120.29 229.26C120.539 229.26 120.778 229.161 120.955 228.985C121.131 228.808 121.23 228.569 121.23 228.32C121.23 228.071 121.131 227.832 120.955 227.655C120.778 227.479 120.539 227.38 120.29 227.38C55.474 227.58 59.716 227.718 58.602 227.31C55.328 226.11 55.802 223.002 56.02 220.698C57.81 203.842 57.304 206.606 58.074 206.606C69.586 206.676 123.608 206.854 123.486 206.854C123.728 206.843 123.956 206.739 124.122 206.564C124.289 206.389 124.383 206.157 124.383 205.915C124.383 205.673 124.289 205.441 124.122 205.266C123.956 205.091 123.728 204.987 123.486 204.976C115.532 204.976 57.086 204.724 58.074 204.728C57.596 204.728 57.574 205.972 58.474 197.858C63.118 197.886 128.058 198.07 126.674 198.07C126.923 198.07 127.162 197.971 127.339 197.795C127.515 197.618 127.614 197.379 127.614 197.13C127.614 196.881 127.515 196.642 127.339 196.465C127.162 196.289 126.923 196.19 126.674 196.19C107.292 196.19 59.93 195.928 58.674 195.968C59.2353 190.66 59.8027 185.352 60.376 180.044C61.13 173.108 64.84 176.484 132.446 176.484C132.688 176.473 132.916 176.369 133.083 176.194C133.249 176.019 133.343 175.787 133.343 175.545C133.343 175.303 133.249 175.071 133.083 174.896C132.916 174.721 132.688 174.617 132.446 174.606C56.046 173.666 59.508 170.834 58.18 182.792C53.448 226.9 53.958 222.092 53.906 222.672C53.8122 223.898 54.0776 225.125 54.6696 226.203C55.2617 227.281 56.1549 228.163 57.24 228.742ZM221 303.936C217.28 300.662 200.95 291.886 186.24 294.882C175.172 297.134 168.8 300.612 179.768 303.442C187.056 305.314 223.528 313.72 222.902 306.214C222.784 304.85 221.998 304.814 221 303.936ZM78.778 275.482C78.554 275.142 78.332 274.802 78.12 274.46C77.462 273.46 75.83 274.39 76.5 275.412C78.878 279.07 81.566 283.212 81.796 283.574C82.454 284.574 84.086 283.644 83.416 282.622C81.878 280.238 80.328 277.866 78.778 275.482ZM309.336 275.342C307.08 278.698 304.829 282.057 302.582 285.418C301.902 286.418 303.536 287.366 304.204 286.368C306.46 283.008 308.711 279.645 310.958 276.28C311.638 275.28 310.004 274.332 309.336 275.342ZM289.572 317.172C289.344 324.362 286.292 326.106 287.87 327.046C289.972 328.246 291.372 320.026 291.47 317.172C291.506 315.962 289.614 315.962 289.58 317.172H289.572ZM303.64 306.168C303.464 306.221 303.307 306.324 303.189 306.465C303.07 306.605 302.994 306.777 302.971 306.959C302.947 307.141 302.977 307.327 303.056 307.493C303.136 307.658 303.261 307.798 303.418 307.894C307.948 309.862 308.242 312.362 309.372 311.112C309.544 310.934 309.64 310.696 309.64 310.448C309.64 310.2 309.544 309.962 309.372 309.784C307.792 308.114 304.492 305.942 303.64 306.168ZM103 322.48C103.13 322.688 103.337 322.838 103.575 322.897C103.814 322.956 104.066 322.92 104.279 322.796C104.491 322.672 104.647 322.471 104.713 322.234C104.78 321.997 104.751 321.744 104.634 321.528C98.324 312.296 98.17 311.432 97.094 312.052C96.8816 312.181 96.7275 312.388 96.6641 312.628C96.6007 312.869 96.6329 313.125 96.754 313.342C98.8447 316.385 100.927 319.431 103 322.48ZM78.096 310.16C76.03 312.098 73.952 314.036 71.884 315.972C71.7209 316.151 71.6328 316.385 71.6383 316.627C71.6438 316.869 71.7423 317.099 71.9134 317.271C72.0845 317.442 72.3149 317.54 72.5568 317.546C72.7987 317.551 73.0334 317.463 73.212 317.3C79.522 311.388 80.36 311.064 79.424 310.16C79.2444 309.991 79.0069 309.896 78.76 309.896C78.5132 309.896 78.2756 309.991 78.096 310.16Z" fill="#1D1D1B"/>
<path d="M161.038 159.11C160.445 157.794 159.649 156.579 158.68 155.51C154.326 154.684 149.839 154.885 145.576 156.096C134.976 160.108 134.734 171.13 140.724 167.23C141.659 166.613 142.468 165.823 143.108 164.904C143.672 164.046 145.198 164.588 144.834 165.632C142.496 172.242 146.794 171.174 150.166 166.196C150.706 165.396 151.984 165.632 151.88 167.076C151.572 170.764 153.34 170.802 156.402 168.568C159.844 166.064 158.054 166.056 161.002 166.056H161.73C161.838 163.719 161.605 161.379 161.038 159.11Z" fill="#FFCEB6"/>
<path d="M202.318 68.6C201.883 68.6464 201.481 68.852 201.188 69.1773C200.896 69.5026 200.734 69.9246 200.734 70.362C200.734 70.7994 200.896 71.2214 201.188 71.5467C201.481 71.872 201.883 72.0776 202.318 72.124C204.438 72.124 204.42 68.6 202.318 68.6ZM189.918 69.08C189.918 68.8699 189.877 68.6618 189.796 68.4677C189.716 68.2736 189.598 68.0972 189.449 67.9486C189.301 67.8001 189.124 67.6822 188.93 67.6018C188.736 67.5214 188.528 67.48 188.318 67.48C188.108 67.48 187.9 67.5214 187.706 67.6018C187.512 67.6822 187.335 67.8001 187.187 67.9486C187.038 68.0972 186.92 68.2736 186.84 68.4677C186.759 68.6618 186.718 68.8699 186.718 69.08C186.718 69.2901 186.759 69.4982 186.84 69.6923C186.92 69.8864 187.038 70.0628 187.187 70.2114C187.335 70.3599 187.512 70.4778 187.706 70.5582C187.9 70.6386 188.108 70.68 188.318 70.68C188.528 70.68 188.736 70.6386 188.93 70.5582C189.124 70.4778 189.301 70.3599 189.449 70.2114C189.598 70.0628 189.716 69.8864 189.796 69.6923C189.877 69.4982 189.918 69.2901 189.918 69.08ZM209.212 65.358C207.59 61.378 203.438 60.478 203.528 62.292C203.572 63.218 204.26 63.132 205.128 63.466C206.164 63.9616 206.979 64.8239 207.416 65.886C207.486 66.1247 207.648 66.3258 207.866 66.4451C208.085 66.5643 208.341 66.592 208.58 66.522C208.819 66.452 209.02 66.29 209.139 66.0717C209.258 65.8534 209.286 65.5967 209.216 65.358H209.212ZM200.91 76.914C196.676 80.47 192.68 79.864 191.126 78.314C190.222 77.504 188.896 78.832 189.8 79.642C192.116 81.712 196.386 82.356 200.884 79.278C200.996 80.1976 200.82 81.1293 200.381 81.9451C199.942 82.7609 199.261 83.4207 198.432 83.834C197.352 84.374 198.302 86.006 199.382 85.454C204.306 82.982 203.16 75.012 200.91 76.918" fill="#1D1D1B"/>
<path d="M284.312 138.178C276.856 129.836 269.274 133.442 254.6 124.016C237.068 100.204 214.576 91.182 211.9 110.452C211.046 116.734 214.5 100.472 225.558 102.76C224.881 102.441 224.183 102.17 223.468 101.95C234.134 102.834 246.574 116.472 252.992 124.932C252.988 125.868 252.925 126.804 252.802 127.732C248.106 122.7 234.802 108.932 229.816 105.182C231.476 106.823 232.741 108.821 233.514 111.024C240.81 117.824 246.194 123.578 252.416 130.058C251.203 134.97 248.934 139.558 245.768 143.504C241.917 148.358 237.43 152.671 232.428 156.328C226.214 146.128 228.152 146.55 226.004 148.754C227.082 150.794 230.096 156.234 230.868 157.466C229.726 158.266 228.776 158.912 228.026 159.382C226.033 156.99 224.395 154.324 223.162 151.466C222.668 151.888 222.176 152.3 221.66 152.7C222.974 155.769 224.8 158.592 227.06 161.048C232.478 167.598 239.886 176.484 247.66 179.648C268.22 188.368 300.596 156.416 284.312 138.182V138.178ZM269.856 163.136C269.721 163.189 269.576 163.21 269.432 163.196C268.714 165.217 267.436 166.991 265.747 168.314C264.059 169.636 262.03 170.451 259.896 170.664C253.988 171.292 248.882 167.804 244.324 163.994C244.224 163.891 244.149 163.767 244.103 163.631C244.058 163.495 244.043 163.351 244.062 163.209C244.08 163.067 244.129 162.93 244.207 162.81C244.285 162.69 244.389 162.589 244.512 162.514C253.486 158.36 253.624 158.166 254.848 158.04C253.388 155.6 250.532 147.062 253.18 148.128C255.644 148.938 258.18 149.509 260.754 149.832C259.871 146.356 260.071 142.693 261.328 139.334C261.94 138.604 262.996 139.334 262.902 140.134C263.088 140.242 263.28 140.34 263.478 140.426C279.25 148.314 277.078 160.34 269.856 163.126" fill="#86F2AA"/>
<path d="M133.114 171.284C135.354 173.56 141.83 174.942 144.714 172.046C146.766 172.356 148.746 170.68 150.15 169.158C151.292 174.158 156.35 171.546 160.004 167.902H161.93C161.992 168.091 162.114 168.255 162.277 168.369C162.44 168.483 162.635 168.542 162.834 168.536C197.684 167.16 236.342 157.784 235.834 122.9C235.568 101.918 221.528 97.7339 214.634 107.118C214.668 106.98 214.718 106.894 214.61 107.164C205.042 120.564 206.076 136.028 190.21 143.662C179.972 148.624 157.8 152.2 157.728 153.48C150.05 152.636 141.602 154.296 137.108 160.75C134.482 158.852 130.508 161.012 130.99 166.304C131.115 168.156 131.863 169.912 133.114 171.284ZM173.514 151.132C187.142 147.422 196.636 144.976 203.13 134.532C210.53 122.572 213.982 101.416 225.078 104.622C233.278 107.06 234.66 119.712 233.71 128.202C230.354 157.868 193.736 165.36 164.046 166.6C164.147 165.639 164.136 164.669 164.012 163.71C162.464 150.238 152.874 156.724 173.524 151.134L173.514 151.132ZM137.882 163.05C143.744 152.864 158.882 155.482 158.682 155.5C161.136 157.954 161.77 162.562 161.736 166.022H161C158.06 166.022 159.622 166.248 156.4 168.536C155.542 169.158 153.324 170.848 152.314 169.65C151.534 168.73 152 166.1 151.89 166.892C151.942 166.673 151.915 166.443 151.814 166.243C151.712 166.042 151.543 165.884 151.336 165.796C151.129 165.709 150.898 165.697 150.683 165.764C150.468 165.831 150.285 165.972 150.164 166.162C149.665 166.894 149.1 167.579 148.474 168.206C145.274 171.498 143.02 170.908 144.832 165.606C145.196 164.56 143.67 164.02 143.106 164.878C139.916 169.732 134.706 168.582 137.88 163.056L137.882 163.05ZM132.96 164.208C133.436 162.114 135.174 161.54 136.002 162.27C136.224 162.438 136.184 162.174 135.86 162.87C133.226 168.42 137.748 172.044 142.332 168.47C142.246 169.39 142.469 170.312 142.966 171.09C140.204 173.09 131.318 171.356 132.966 164.208" fill="#1D1D1B"/>
</svg>
