<svg width="400" height="400" viewBox="0 0 400 400" fill="none" xmlns="http://www.w3.org/2000/svg">
<path d="M131.3 266.52L137.8 285.88L146.3 281.52L137.48 263.22C137.48 263.22 131.72 266.2 131.3 266.52Z" fill="#79E1CF"/>
<path d="M173.38 211.6C184.291 208.52 194.849 204.304 204.88 199.02L254.52 206.82C254.52 206.82 263.6 212.08 264.7 212.24C267.807 211.987 270.918 212.685 273.62 214.24C277.28 216.78 284.6 216.78 286.5 217.1C289.244 217.987 291.864 219.217 294.3 220.76C296.2 221.88 304.64 224.58 306.08 225.54C307.52 226.5 310.84 227.54 311.64 231.54C312.758 236.456 313.428 241.463 313.64 246.5C313.48 250.16 312.54 260.02 311.1 263.84C309.66 267.66 303.46 287.54 303.1 289.84C302.74 292.14 302 307.66 301.1 310.86C300.2 314.06 295.86 330.86 295.1 333.92C294.34 336.98 288.58 352.22 287.62 354.92C286.66 357.62 285.22 362.56 285.62 364.62C286.198 366.851 286.361 369.17 286.1 371.46C285.78 374.02 287.86 386.58 287.22 387.46C286.58 388.34 264.3 389.36 256.52 386.98C248.74 384.6 217.7 387.94 205.12 387.3C192.54 386.66 159.3 386.34 154.54 385.3C149.78 384.26 143.88 384.04 146.74 380.86C149.6 377.68 149.92 373.22 150.08 368.86C150.499 364.919 151.296 361.028 152.46 357.24L142.46 288.74L157.14 258.74L173.38 211.6Z" fill="#BED4FC"/>
<path d="M311.48 192C313.98 193.76 313.66 193.38 311.48 193.66C309.3 193.94 308.16 194.02 307.9 195.44C307.686 196.596 307.358 197.729 306.92 198.82C306.817 198.744 306.723 198.657 306.64 198.56C302.64 192.68 305.74 194.2 298.4 193.6C296.94 193.6 300.96 192.24 302.14 189.6C302.58 188.62 300.52 184.96 301.68 185.6C305.2 187.46 304.06 186.78 304.5 187.04C305.82 187.86 309.74 184.64 311.24 184.2C311.7 187.44 308 189.44 311.48 192Z" fill="#FFEAB6"/>
<path d="M341.08 130C342.06 130.36 339.08 131.22 337.86 132.14C335.86 133.62 337.74 134.86 337.58 136.94C336.02 136.28 334.26 132.94 331.94 132.94C327.76 134.34 327.5 134.94 326.76 134.94C327 133.44 330.52 130.4 328.52 128.78C327.74 128.18 325.8 125.32 326.78 125.54C330.66 126.44 330.64 126.62 331.38 126.1C335.28 123.42 335.38 119.3 336.1 124.94C336.72 130 335.46 128 341.08 130Z" fill="#FFEAB6"/>
<path d="M336.22 64.1199C336.12 64.2599 336.04 64.4399 335.9 64.4999C330.86 67.0999 330.52 66.7799 330.82 68.4999C331.58 73.2399 331.4 72.4999 331.28 73.3199C325.94 68.4799 328.06 69.0999 327.28 68.9599C325.8 68.7399 323.04 70.3999 320.38 70.9599C319.46 70.9599 319.82 70.7599 322.12 66.9599C324.66 62.8199 312.3 57.9199 323.02 60.9599C325.02 61.5399 324.66 61.2599 328.3 56.3599C329.46 54.7799 328.72 61.9199 331.42 62.1599C332.36 62.1599 333.66 63.2799 335.8 63.7599C335.957 63.8581 336.099 63.9794 336.22 64.1199Z" fill="#FFEAB6"/>
<path d="M129.34 151.2C139.5 148.92 129.34 152.12 131.6 155.92C133.46 159.2 134.22 158.9 130.6 158.1C126.4 157.16 128.3 156.88 123.94 161.3C123.42 161.84 124.04 159.64 124.2 157.56C124.38 155.08 119.58 154.28 118.88 152.98C119.22 152.98 118.62 152.98 121.7 152.68C125.5 152.36 123.7 150.22 125.36 146.82C126.72 148 128.12 151.46 129.34 151.2Z" fill="#FFEAB6"/>
<path d="M149.78 106.24C150.28 107.08 147.78 106.24 144.24 104.92C142.24 104.18 142.7 102.68 137.98 109.28C136.16 111.86 138.82 103.6 135.8 102.48C128.96 99.9199 128.96 100.48 136.48 97.7599C138.12 97.1599 137.34 93.5799 138.48 90.4999C145.62 97.1799 139.6 96.6199 150.04 94.2199C148.5 98.3399 145.3 99.5199 147.14 101.66C148.162 103.101 149.045 104.634 149.78 106.24Z" fill="#FFEAB6"/>
<path d="M204.32 223.62C205.26 228.06 206.18 228.58 205.14 228.42C196.08 227 187.24 218.04 185.42 210.52C185.08 209.1 184.84 209.24 186.36 208.72C190.82 207.14 193.12 205.44 192.56 206.44C191.44 208.44 192.24 211.02 192.1 211.94C191.58 215.4 193.98 218.32 197.44 220.16C197.9 220.4 197.74 220.36 200.8 220.56C202.8 220.08 203.06 219.88 203.3 220.56C203.747 221.541 204.089 222.567 204.32 223.62V223.62Z" fill="#FFC6A6"/>
<path d="M275.6 71.3599C281.08 73.6599 282.62 74.0199 278.92 74.9399C276.6 74.3799 276.32 74.3399 274.92 71.4999C274.78 71.1399 275.22 71.1999 275.6 71.3599Z" fill="#E6FCFF"/>
<path d="M286.56 70.4799C286.9 70.4799 286.88 70.7199 286.74 70.8999C285.92 71.9999 284.98 73.6199 283.44 72.6399C279.44 70.0599 271.64 68.8799 273.78 65.5399C274.66 64.1799 273.94 65.7399 278.5 67.6999C283.44 69.8199 285.22 70.6399 286.56 70.4799Z" fill="#E6FCFF"/>
<path d="M288.2 66.1599C289.42 66.2799 287.92 68.4599 285.98 68.4199C282.76 67.2999 273.06 63.7399 275.74 61.6199C276.06 61.3799 275.9 60.6999 276.36 60.7399C277.16 60.7399 276.1 61.5799 281.4 63.6999C286.7 65.8199 287.16 65.9999 288.2 66.1599Z" fill="#E6FCFF"/>
<path d="M278.18 56.46C288.78 64.46 292.98 60.34 289.78 64.06C289.18 64.76 286.86 63.58 285.98 63.26C281.7 61.68 274.56 59.4 278.18 56.46Z" fill="#E6FCFF"/>
<path d="M306.22 42.24C306.84 42.42 306.38 43.88 305.82 43.58C303.7 42.5 305.48 42 306.22 42.24Z" fill="#FFD152"/>
<path d="M285.08 36.7599C283.98 37.6599 283.48 35.9199 284.2 35.7199C284.44 35.6599 284.86 36.4199 285.08 36.7599Z" fill="#FFD152"/>
<path d="M292.62 20.3999C317.4 20.2599 322.74 52.8599 296.98 55.7999C293.62 56.1999 292.98 55.2399 291.94 56.5799C290.06 59.2399 291.28 60.4399 289.74 60.0399C286.596 59.2366 283.599 57.9406 280.86 56.1999C278.32 54.6599 282.86 54.1999 281.54 51.3399C280.22 48.4799 280.16 50.6599 278.08 47.3399C268.46 31.9999 282.1 19.8199 292.62 20.3999ZM304.98 45.8799C306.24 48.9999 310.16 41.6199 307.14 40.6399C304.12 39.6599 303.32 41.7799 302.84 41.6599C298.2 40.6199 301.08 41.2199 298.4 39.8399C297.16 39.1999 296.18 40.6999 295.18 39.2799C293.6 36.9999 294.74 39.2799 287.32 36.3199C286.8 36.1199 286.52 35.3999 286.12 34.9199C285.72 34.4399 285.1 34.4399 284.36 34.2399C282.2 33.6599 280.96 38.0799 284.36 38.6599C284.72 38.6599 284.98 38.6599 284.86 39.2799C284.1 42.5399 288.52 45.2799 287.64 46.8599C286.444 49.1463 285.601 51.6009 285.14 54.1399C285.04 54.7399 285.58 54.4199 285.8 54.5999C286.64 55.3199 287.04 51.5599 289.2 47.4999C290.66 44.7999 286.42 42.0999 286.52 39.7799C286.64 36.7999 287.8 38.4999 290.52 39.3599C292.04 39.8399 293.2 39.3599 293.62 40.3599C293.891 40.8942 294.345 41.3133 294.9 41.5409C295.454 41.7685 296.072 41.7894 296.64 41.5999C298.48 41.1199 298 42.5399 300.16 42.9999C302.32 43.4599 302.3 43.3599 302.3 44.1599C302.3 44.4399 302.3 44.7399 301.96 44.8199C300.932 45.1707 299.951 45.6477 299.04 46.2399C297.9 46.7799 298.4 45.8599 296.5 47.0999C293.64 48.9599 294.12 47.7799 292.92 48.7199C290.92 50.3399 286.54 54.9599 287.94 56.0599C289.34 57.1599 289.5 54.2799 292.34 51.6799C295.18 49.0799 294.74 50.3399 295.7 49.6799C297.7 48.4399 297.98 48.2599 298.28 48.2399C300 48.0999 301.32 46.6599 302.62 46.5399C304.38 46.3799 303.92 44.8399 304.3 44.9599C304.68 45.0799 304.84 45.5399 304.98 45.8799V45.8799Z" fill="#FFD152"/>
<path d="M133.56 38.8999C133.874 39.9391 133.866 41.0492 133.535 42.0833C133.205 43.1174 132.568 44.0267 131.709 44.691C130.85 45.3553 129.81 45.7432 128.726 45.8033C127.642 45.8634 126.566 45.5929 125.639 45.0277C124.712 44.4624 123.978 43.6291 123.536 42.6378C123.093 41.6466 122.961 40.5443 123.159 39.4768C123.356 38.4092 123.873 37.4268 124.641 36.6595C125.409 35.8922 126.392 35.3763 127.46 35.1799C128.756 34.946 130.092 35.1955 131.217 35.8811C132.341 36.5667 133.175 37.6408 133.56 38.8999Z" fill="#9EDEFF"/>
<path d="M113.74 56.1199C114.62 55.1199 115.74 54.1199 116.28 55.4599C116.28 55.4599 98.0999 75.7799 98.0599 75.8199C96.5799 74.7999 95.9999 76.8799 113.74 56.1199Z" fill="#9EDEFF"/>
<path d="M125.8 73.7999C126.16 74.6599 126 74.3399 113.4 86.8199C112.76 87.4799 113.06 87.4599 112.36 77.4399C112.36 76.4999 120.36 70.2399 122.94 67.1599C125.52 64.0799 124.84 64.5999 125.8 73.7999Z" fill="#9EDEFF"/>
<path d="M103.88 47.9999C105.42 47.7999 101.06 51.3399 97.8799 56.1399C97.1599 57.1799 94.4399 60.8199 93.3799 60.9599C93.3799 60.9599 83.3799 61.2599 83.3799 61.1999C83.0999 60.8199 88.4399 55.7199 93.3799 50.0599C93.9999 49.1199 93.9999 49.2799 103.88 47.9999Z" fill="#9EDEFF"/>
<path d="M152.5 18.98C152.304 21.8099 151.683 24.5942 150.66 27.24C145.84 39 146.26 37.94 144.94 35.58C138.82 24.68 130.34 23.58 131.94 22.6C135.996 19.6132 140.555 17.3778 145.4 16C152.98 14 152.14 16 152.5 18.98Z" fill="#FF8E92"/>
<path d="M273.84 165.42C272.3 160.16 276.1 146.9 277.24 143.96C278.786 138.66 279.236 133.1 278.56 127.62C277.76 121.36 273.36 110.76 271.04 105.62C268.72 100.48 258.64 90.9599 255.44 88.4799C252.24 85.9999 236.9 79.5599 231.44 77.1599C225.98 74.7599 216.16 74.2199 216.16 74.2199C214.694 72.3863 212.65 71.1047 210.36 70.5851C208.071 70.0655 205.674 70.3387 203.56 71.3599C197.56 74.0199 196.56 80.4199 196.04 80.5599C183.64 80.4199 181.9 90.4199 181.9 90.4199C177.3 95.0799 178.58 98.0199 180.5 101.08C182.42 104.14 188.64 104.22 188.64 104.22C188.64 104.22 226.46 95.9999 238 114C249.54 132 245 161.36 245 161.36L245.32 190.52C247.152 192.259 249.442 193.441 251.922 193.926C254.401 194.411 256.967 194.18 259.32 193.26C252.14 187.78 253.52 184.66 253.52 184.66C264.4 191.38 269.2 184.66 269.2 184.66C267.351 184.298 265.619 183.489 264.155 182.304C262.69 181.119 261.539 179.593 260.8 177.86C264.005 178.831 267.316 179.415 270.66 179.6C279.6 180.46 281.6 175.6 281.6 175.6C281.6 175.6 275.36 170.68 273.84 165.42Z" fill="#FFB564"/>
<path d="M197.24 180C196.681 179.376 196.371 178.568 196.371 177.73C196.371 176.892 196.681 176.084 197.24 175.46C184.94 167.88 187.58 161.62 184.94 162.88C182.109 164.129 179.086 164.887 176 165.12C175.2 165.36 178.22 170.52 184.88 172.74C190.52 174.62 178.88 180 177.1 180.14C174.2 180.36 186.44 187.7 193.38 183.02C193.543 182.888 193.744 182.81 193.953 182.798C194.163 182.786 194.371 182.84 194.548 182.953C194.725 183.066 194.862 183.232 194.939 183.427C195.017 183.622 195.031 183.836 194.98 184.04C194.417 186.835 193.411 189.522 192 192C195.46 192.62 199.42 190.34 202.3 188.38C203.06 187.88 202.78 187 203.08 186.38C203.2 186.1 200.68 184.24 197.24 180Z" fill="#FFB564"/>
<path d="M165.74 204.64C169.4 212.24 169.56 211.86 168.66 212.18L128 225.6C127.52 225.6 128.18 226.74 119.14 208.86C118.68 207.96 116.26 209.18 144.8 199.62C149.76 197.96 154.48 196.3 159.78 194.56C161.14 194.12 160 192.76 165.74 204.64ZM160.28 211.14C159.42 209.66 158.74 210.68 157.68 210.72C157.42 210.72 131.52 218.72 129.68 219.6C128.78 219.98 127.96 221.18 129.06 221.46C129.48 221.56 158.74 212.92 160.28 211.14ZM154 202.7C154.64 202.38 155.08 201.26 153.72 200.98C153.48 200.98 151.94 201.44 149.72 202C141.82 204 140.72 205.48 138.68 205.44C136.32 205.44 136.42 206.4 132.9 207.18C124.9 208.96 126.2 209.72 124.06 209.82C123.8 209.82 123.38 210.44 123.3 210.68C123.12 211.4 125.3 211.82 126.34 211.24C128.564 210.045 130.993 209.278 133.5 208.98C136.8 208.4 136.68 207.34 138.62 207.44C142.32 206.94 143.72 205.44 147.08 204.6C150.44 203.76 151.44 204 154 202.7ZM148.74 210C149.075 210.022 149.406 209.923 149.674 209.721C149.942 209.519 150.129 209.228 150.2 208.9C150.2 206.6 142.2 210.26 138.42 210.9C134.98 211.48 127.16 213.76 126.02 215C125.22 215.88 125.66 216.38 126.74 216.44C130.74 215.08 130.2 214.9 131.64 214.44C139.96 212.1 134.24 214.02 143.06 211.48C147.06 210.4 147.32 210 148.74 210Z" fill="#FFF5DB"/>
<path d="M134 258.62C134.6 259.84 132.4 260.52 131.12 260.76C130.36 260.26 132.04 263.04 113.72 226.14C102 202.82 102 203.76 103.2 203.76C109.44 203.78 99.78 190 134 258.62Z" fill="#79E1CF"/>
<path d="M107.64 218.3C129.92 263.5 129.5 261.42 128.54 261.76C116.54 265.88 122.54 273.76 121.3 276.46C120.64 275.52 79.3 190.82 79.02 190.12C79.34 190 78.26 189.46 95.78 199.92C101.4 203.28 98.14 199 107.64 218.3Z" fill="#79E1CF"/>
<path d="M169.2 196.14C162.38 182 162.84 182.84 162.28 183.04C156.28 185.18 124.88 195.6 119.58 197.34C106.52 201.66 107.34 200.82 108.14 202.38C138.74 262.2 134.14 258.82 137.64 257.88C141.74 257.78 139 264.6 139.14 264.96C139.28 265.32 140.28 267.82 140.84 267.62C142.048 267.095 143.283 266.634 144.54 266.24C147.367 265.822 150.121 265.007 152.72 263.82C158.32 260.96 158.4 269.94 151.32 273.4C149.405 274.564 147.348 275.479 145.2 276.12C144.84 276.12 144.76 276.4 144.92 276.72C146.36 279.76 146 279.52 146.92 279.52C157.72 279.52 156.44 277.78 163.92 276.2C166.12 275.72 167.04 278.42 166.18 280.2C165.98 280.6 166.32 280.56 166.74 280.44C166.74 280.44 202.74 269.78 204.3 269.28C205.86 268.78 205.12 270.58 169.2 196.14ZM170 213.76C169.68 213.88 132.48 226.22 128 227.54C126.34 227.36 126.66 228.26 117.4 209C116.16 206.44 114.52 207.64 160.1 192.48C161.9 191.88 161.82 192.48 164.32 197.6C171.08 211.48 172.56 212.88 170 213.76Z" fill="#79E1CF"/>
<path d="M277.84 312.88C279.84 315.86 280.3 311.18 263.68 334.64C261.879 337.078 259.928 339.403 257.84 341.6C255.02 344.86 252.76 348.5 248.3 351.92C237.86 359.92 230.04 357.92 220.94 347.26C219.562 344.917 218.582 342.363 218.04 339.7C216.74 334.44 214.42 332.98 212.8 327.02C208.56 311.44 213.18 236.16 213.6 235.78C215.32 234.2 212.64 234.98 208.78 229.94C205.64 225.94 207.1 221.66 200.78 211.38C200.654 211.102 200.466 210.856 200.23 210.662C199.994 210.468 199.717 210.33 199.42 210.26C198.2 210.06 199.2 211.64 199.76 212.88C200.6 214.7 198.88 213.54 198.56 213.52C197.74 213.42 197.18 214.36 199.98 216C200.32 216.2 201.24 216.22 201.48 216.54C201.715 216.986 201.883 217.465 201.98 217.96C201.98 218.24 201.98 218.32 201.72 218.34C199.52 218.6 198.56 219.06 196.74 217.52C195.7 216.64 193.84 214.64 193.88 213.28C193.98 209.28 193.3 207.28 196.74 205.28C198.08 204.54 198.32 203.28 198.4 201.8C198.54 199.08 201.28 200.56 202.4 197.02C204 191.98 211.32 196.42 210.26 193.6C207.02 185.1 196.86 179.6 198.26 177.16C199.58 175.02 204.4 179 205.64 180.44C209.52 184.82 216.64 190.78 217.28 194.94C217.68 197.44 219.42 198.3 221.16 204.14C224.3 214.62 227.86 219.08 228.28 230.66C228.94 248.66 247.52 317.74 247.54 317.8C248.06 318.88 249.3 318.42 249.24 317.3C248.52 303.88 241.04 289.08 242.88 288.98C245.914 288.77 248.949 289.363 251.68 290.7C253.52 292.08 264.88 302.18 265.88 303.12C270.24 307 274.86 308.32 277.84 312.88Z" fill="#FFC6A6"/>
<path d="M255.2 143.22C263.64 136.08 273.62 141.88 265.2 155.36C263.52 158.02 261.84 160.32 254.5 163.36C244.96 167.36 243.82 142.94 243.64 187.36C243.64 199.96 245 203.74 262.7 212.32C263.4 212.66 257.26 217.24 257.22 217.26C246.56 224.9 252.82 221.26 241.02 226C239.02 226.76 230.76 230.18 230.62 228.92C229.02 215.54 225.82 212.48 223.62 204.64C221.62 197.72 219.38 195.96 219.18 193.64C218.9 190.24 211.18 183.64 210.24 182.44C209.9 182.04 209.94 181.88 210.44 181.7C232.98 174.36 229.56 168.78 227.28 170.12C222.64 172.82 201.86 180.26 192.18 169.16C181.56 156.96 181.32 135.3 185.72 136.66C187.538 137.062 189.432 136.958 191.195 136.358C192.959 135.759 194.524 134.687 195.72 133.26C196.88 132.1 195.72 136.52 201.32 137.54C202.48 137.76 202.92 136.34 202.22 136C200.52 135.14 198.92 134.74 198 131.88C197.28 129.66 204.2 131.44 204 126.24C204 124.86 202.66 124.82 202.36 126.06C201.82 128.2 202.36 127.88 199.16 128.48C198.88 128.48 198.8 128.48 198.9 128.14C200.66 122.6 200.1 121.02 201.9 119.68C202.68 119.224 203.567 118.986 204.47 118.991C205.373 118.996 206.259 119.243 207.033 119.707C207.808 120.171 208.444 120.835 208.874 121.629C209.305 122.423 209.514 123.318 209.48 124.22C209.74 130.76 216.08 140.34 223.48 140.06C233.96 139.64 236.98 128.84 238.88 127.66C240.14 126.86 241.46 127.36 246.78 130.62C248.34 131.56 243.8 141.04 251.2 144.28C251.98 144.62 250.28 145.66 252.18 146.28C252.4 146.52 253.48 144.66 255.2 143.22ZM264.78 149.5C265.057 148.941 265.172 148.316 265.112 147.695C265.052 147.075 264.819 146.483 264.441 145.988C264.062 145.492 263.552 145.113 262.969 144.892C262.385 144.672 261.752 144.619 261.14 144.74C257.9 145.44 254.36 149.56 256.08 152.9C256.66 154.04 256.08 156.4 254.88 156.68C252.5 157.2 252.34 156.08 251.76 157.16C251.18 158.24 252.46 159.16 253.76 159.16C257.88 159.16 259.26 154.44 257.94 151.9C257.771 151.623 257.671 151.309 257.65 150.985C257.629 150.661 257.688 150.336 257.82 150.04C258.66 148.04 262.84 144.26 263.24 149.62C263.34 150.18 264.36 150.38 264.78 149.5ZM201.66 151.76C201.66 151.04 201.22 148.94 199.54 148.9C197.54 148.9 197.24 151.88 198.68 153.34C199.54 154.24 201.18 154.44 201.66 151.76V151.76Z" fill="#FFC6A6"/>
<path d="M169.34 300.82C175.18 304.82 174.28 301 171.46 319.96C170.094 328.14 168.176 336.218 165.72 344.14C165.16 345.78 166 339.44 165.72 332.72C165.44 323.6 156.04 308.36 155.04 308.72C153.04 309.38 157.04 311.72 161.92 325.24C165.26 334.72 163.5 347.76 161.16 351.24C158.12 355.72 155.48 357.62 147.82 356.46C144.384 355.942 141.178 354.417 138.608 352.079C136.038 349.74 134.219 346.692 133.38 343.32C132.3 338.88 130.54 333.76 131.38 328.38C135.38 299.58 132.98 312.92 137.98 319.8H138.88C138.6 317.62 138.4 317.8 135.72 309C134.88 306.2 134.86 305.8 133.98 305.24C130.2 302.88 130.9 302.5 130.16 298.5C129.7 296.08 126.72 296.72 127.1 293.32C127.204 292.361 127.062 291.392 126.688 290.503C126.313 289.614 125.719 288.835 124.96 288.24C123.58 286.94 123.9 283.1 126.3 280.6C130.58 276.16 131.06 274.18 135.22 271.1C135.88 270.6 136.04 270.78 142.2 269.34C143.54 269.02 142.72 268.7 145.54 268.2C153.08 266.84 154.98 264.2 154.9 265.88C154.727 267.233 154.181 268.511 153.323 269.571C152.464 270.63 151.328 271.43 150.04 271.88C148.419 272.824 146.703 273.595 144.92 274.18C132.92 276.9 133.56 284.94 135.52 282.64C138.08 279.64 137.7 279.02 138.66 280.78C139.38 282.1 139.02 281.5 136.66 283.62C134.66 285.42 127.98 290.82 131.22 290.34C131.68 290.34 131.94 290.04 136.18 286.48C139.2 283.92 140.42 281.62 150.18 281.52C155.8 281.52 160.18 278.94 164 278.2C165.46 277.9 165.08 282.58 154.84 285.34C152.606 286.235 150.287 286.905 147.92 287.34C146.048 287.433 144.242 288.065 142.72 289.16C141.32 290.48 140.28 291.16 141 291.9C141.26 292.18 141.5 292.4 141.88 292C144.3 289.48 146.8 289.6 151.88 288.58C153.4 288.28 153.08 287.52 155.5 287.28C157.976 286.855 160.426 286.294 162.84 285.6C164.84 285.6 163.3 289.84 152.84 293.88C147.78 295.88 145.4 296.42 143.62 299.08C143.14 299.8 142.74 300.88 143.62 301.28C145.08 301.94 144.2 298.88 149.42 296.98C150.32 296.66 150.54 296.58 150.86 300.58C151.54 309.26 148.34 313.06 148.08 316.58C148.08 317.06 148.64 317.68 149.24 316.94C150.148 314.982 150.956 312.98 151.66 310.94C156.14 297.54 145.66 293.18 159.66 297.48C166 299.44 166.88 299.14 169.34 300.82Z" fill="#FFC6A6"/>
<path d="M136.96 260.2C139.68 259.58 137.42 265.46 132.44 268.2C128.44 270.46 128.04 270.68 127.48 271.36C126.92 272.04 127.48 272.9 128 272.72C131.28 271.76 136.72 265.9 125.56 278.72C122.92 281.76 123.32 281.98 122.96 279.3C122.984 278.281 123.077 277.266 123.24 276.26C123.74 273.88 121.12 268.26 123.92 266.48C127.543 264.276 131.392 262.466 135.4 261.08C135.882 260.724 136.406 260.428 136.96 260.2V260.2Z" fill="#FFC6A6"/>
<path d="M186.64 112C186.64 111.72 188.24 104 190.2 101.18C192.16 98.36 198.88 91.18 198.88 91.18C198.88 91.18 203.88 93.78 204.34 89.18C204.34 89.18 206.22 90.96 208.34 87.66C210.46 84.36 216 84.7 218 85.58C220 86.46 225.5 87.46 228.54 92.56C231.58 97.66 242 115.44 243.86 118C245.72 120.56 251.62 128 247.24 129.26L239.24 124.7C239.24 124.7 236.46 116.56 229.48 115.4C222.5 114.24 214.2 113.54 210.8 119.4C210.8 119.4 204.1 115.4 199.44 119.66C199.44 119.66 198.38 113.4 192.56 112.42C186.74 111.44 186.64 112 186.64 112Z" fill="#FFC6A6"/>
<path d="M52.7 150.36L51.76 144.7L56.26 148.5L62.06 145.78L60.1 152.24L64.22 158.24L57.34 157.06L54.62 163.14L52.88 155.84L46.9 153L52.7 150.36Z" fill="#FFEAB6"/>
<path d="M340.76 148.66C331.42 156.1 330.42 170.36 325.72 166.94C320.34 162.94 316.9 158.76 316.74 152.76C316.74 151.1 315.84 149.48 314.24 150.08C312.94 150.647 311.603 151.128 310.24 151.52C305.66 152.72 305.84 148.56 303.72 150.5C302.865 151.09 302.069 151.76 301.34 152.5C300.68 153.1 301 152.76 299.48 151.62C297.96 150.48 295.76 152.04 296.06 152.92C296.205 153.134 296.419 153.292 296.666 153.368C296.914 153.445 297.179 153.435 297.42 153.34C298.6 152.82 298.78 153.94 299.98 154.9C301.98 156.52 303.56 151.24 305.28 152.46C308.14 154.46 309.44 153.78 313.8 152.3C316.5 151.4 311.32 157.38 322.14 166.56C328.14 171.7 329.16 170.08 333.86 160.68C335.58 157.24 338.96 151.64 342.02 149.76C343.28 148.98 344.76 148.58 347.84 150.76C355.06 155.88 351.84 157.18 350.9 159.4C350.74 159.8 351.6 160.52 351.98 160C354.36 156.74 353.7 157.76 354.2 156.18C353.34 151.22 345.24 145.1 340.76 148.66Z" fill="#000001"/>
<path d="M337.76 123.16C337.6 122.16 337.28 121.16 337.08 120.18C337.056 119.943 336.961 119.719 336.808 119.537C336.654 119.355 336.45 119.223 336.22 119.16C335.44 118.92 335.34 119.36 332.66 122.54C330.28 125.36 331.7 124.88 325.86 123.44C325.538 123.497 325.232 123.626 324.966 123.816C324.699 124.006 324.479 124.254 324.32 124.54C323.92 125.12 323.96 125.34 325.74 128.22C327.26 130.68 327.74 130.08 327.02 131.14C323.24 136.8 321.54 138.66 328.5 136.12C332.5 134.68 332.34 134.46 332.92 135.04C335.62 137.74 339.34 142.3 339.56 138.48C339.655 136.981 339.423 135.48 338.88 134.08C338.6 132.64 344.1 131.9 344.42 129.84C344.447 129.751 344.455 129.657 344.445 129.564C344.434 129.471 344.404 129.382 344.357 129.301C344.31 129.221 344.247 129.15 344.172 129.095C344.097 129.04 344.011 129.001 343.92 128.98C336.3 126.28 338.66 128.92 337.76 123.16ZM337.86 132.1C335.86 133.58 337.74 134.82 337.58 136.9C336.02 136.24 334.26 132.9 331.94 132.9C327.76 134.3 327.5 134.9 326.76 134.9C327 133.4 330.52 130.36 328.52 128.74C327.74 128.14 325.8 125.28 326.78 125.5C330.66 126.4 330.64 126.58 331.38 126.06C335.28 123.38 335.38 119.26 336.1 124.9C336.72 129.98 335.46 127.9 341.08 129.94C342 130.32 339.12 131.18 337.86 132.1Z" fill="#000001"/>
<path d="M312.8 90.6399C312.96 98.6399 317.98 102.64 309.58 101.56C296.7 99.8799 294.12 96.7799 295.34 106.14C295.5 107.4 295.56 107 289.34 109.52C286.22 110.8 287.64 112.38 289.34 111.72C295.02 109.4 297.52 109.06 297.34 106.58C296.94 102.2 296.38 101.42 298.04 101.7C309.26 103.5 311.16 103.92 313.18 103.7C321.06 102.86 311.02 90.3199 316.4 87.6999C320.18 85.8199 321.44 88.8199 339.58 96.0399C340.58 96.4399 341.58 96.8399 341.9 95.8999C342.22 94.9599 341.3 94.8999 340.8 94.6999C322.8 87.3199 324.64 86.9599 320.8 85.6999C319.955 85.3045 319.025 85.1257 318.094 85.1795C317.162 85.2334 316.259 85.5182 315.465 86.0084C314.672 86.4985 314.012 87.1785 313.547 87.9871C313.082 88.7957 312.825 89.7074 312.8 90.6399V90.6399Z" fill="#000001"/>
<path d="M320.56 66.1399C319.06 68.5999 315.58 73.9599 318.8 73.1599C320 72.8799 322.3 72.4399 322.8 72.2399C325.86 71.1999 325.96 70.7799 326.38 71.2199C330.38 75.2199 333.24 79.5999 333.04 72.2799C332.92 68.8399 332.16 68.2799 333.14 67.8999C334.44 67.3399 337.02 65.8999 337.74 65.7199C340.2 64.9799 340.32 63.3799 339.26 62.8999C338.2 62.4199 335.26 61.8599 333.44 61.0799C330.54 59.7799 331.78 61.5599 329.92 54.1999C329.876 53.9809 329.764 53.7814 329.6 53.6298C329.436 53.4781 329.229 53.3822 329.007 53.3556C328.785 53.329 328.561 53.3731 328.365 53.4816C328.17 53.5901 328.014 53.7575 327.92 53.9599C327.68 54.2799 326.84 55.4799 324.28 59.2399C323.68 60.1399 317.94 57.1199 317 58.2399C314.64 60.9799 321.34 64.8599 320.56 66.1399ZM322.96 61.0599C324.96 61.6399 324.6 61.3599 328.24 56.4599C329.4 54.8799 328.66 62.0199 331.36 62.2599C332.28 62.2599 333.6 63.3799 335.74 63.8599C335.912 63.9222 336.074 64.0099 336.22 64.1199C336.12 64.2599 336.04 64.4399 335.9 64.4999C330.86 67.0999 330.52 66.7799 330.82 68.4999C331.58 73.2399 331.4 72.4999 331.28 73.3199C325.94 68.4799 328.06 69.0999 327.28 68.9599C325.8 68.7399 323.04 70.3999 320.38 70.9599C319.46 70.9599 319.82 70.7599 322.12 66.9599C324.6 62.8599 312.24 57.9999 322.96 61.0599Z" fill="#000001"/>
<path d="M273.28 70.7199C273.191 71.5008 273.266 72.2918 273.5 73.0421C273.734 73.7924 274.123 74.4854 274.641 75.0767C275.158 75.668 275.794 76.1446 276.507 76.4757C277.22 76.8069 277.994 76.9855 278.78 76.9999C281.7 77.2599 282.88 74.7599 283.98 74.9999C286.44 75.4799 288.4 72.7599 288.48 70.8199C288.48 69.7999 289.24 69.1199 289.64 68.1399C290.04 67.1599 289.52 66.5399 290.04 66.3799C290.805 65.8534 291.422 65.1392 291.832 64.3057C292.242 63.4722 292.43 62.5473 292.38 61.6199C292.38 61.3599 293.06 60.4399 292.38 59.6199C292.24 59.4399 292.92 58.3599 293.08 58.1999C293.24 58.0399 312.28 59.5599 315.62 42.7799C320.5 18.2599 281.12 8.33988 273.78 31.8999C269.78 44.5799 280.18 51.2999 279.56 52.5999C277.94 55.9399 276.9 54.5999 276.3 56.0599C274.7 59.7599 276.3 59.2999 275.44 59.7599C272.56 61.2399 274.16 63.0599 273.16 63.7599C272.38 64.3332 271.85 65.1855 271.683 66.1393C271.515 67.0931 271.722 68.0748 272.26 68.8799C273.04 69.7999 273.44 69.9999 273.28 70.7199ZM278.92 74.9399C276.6 74.3799 276.32 74.3399 274.92 71.4999C274.74 71.1399 275.18 71.1999 275.56 71.3599C281.08 73.6399 282.62 73.9999 278.92 74.9399V74.9399ZM278 47.3399C268.38 32.0799 282 19.8199 292.54 20.3999C317.32 20.2599 322.66 52.8599 296.9 55.7999C293.54 56.1999 292.9 55.2399 291.86 56.5799C289.98 59.2399 291.2 60.4399 289.66 60.0399C286.516 59.2366 283.519 57.9406 280.78 56.1999C278.24 54.6599 282.78 54.1999 281.46 51.3399C280.14 48.4799 280.16 50.6599 278 47.3399ZM278.1 56.4599C288.7 64.4599 292.9 60.3399 289.7 64.0599C289.1 64.7599 286.78 63.5799 285.9 63.2599C281.7 61.6799 274.56 59.3999 278.18 56.4599H278.1ZM275.66 61.6199C275.98 61.3799 275.82 60.6999 276.28 60.7399C277.08 60.7399 276.02 61.5799 281.32 63.6999C286.62 65.8199 287.08 66.0599 288.12 66.1599C289.16 66.2599 288 68.4599 286 68.4199C282.76 67.2999 273.08 63.7399 275.74 61.6199H275.66ZM273.66 65.6199C274.54 64.2599 273.82 65.8199 278.38 67.7799C283.32 69.9199 285.1 70.7199 286.38 70.5599C286.72 70.5599 286.7 70.7999 286.56 70.9799C285.74 72.0799 284.8 73.6999 283.26 72.7199C279.36 69.9999 271.64 68.8799 273.78 65.5399L273.66 65.6199Z" fill="#000001"/>
<path d="M312.82 190.72C311.26 189.72 311.86 189.6 312.2 188.12C313.58 182.12 313.52 182.54 313.44 182.12C313.43 181.951 313.374 181.787 313.277 181.648C313.18 181.509 313.047 181.399 312.892 181.331C312.737 181.262 312.566 181.238 312.398 181.261C312.23 181.284 312.071 181.353 311.94 181.46C309.94 183.04 307.66 183.98 305.62 185.46C304.68 186.1 301.52 182.9 300.8 183.18C299.74 183.62 298.96 184.14 299.3 185.44C300.72 190.58 300.28 190.04 299.54 190.52C297.36 191.92 295.54 192.52 295.68 194.3C295.68 195.74 300.04 195.64 301.68 195.66C303.32 195.68 302.98 196.38 303.54 197.3C306.04 201.42 307.54 203.8 308.78 199.12C309.86 195.24 308.52 195.66 315.16 195.44C318 195.22 315.86 192.66 312.82 190.72ZM311.4 193.62C309.06 193.92 308.08 193.98 307.82 195.4C307.606 196.556 307.278 197.689 306.84 198.78C306.737 198.704 306.643 198.617 306.56 198.52C302.56 192.64 305.66 194.16 298.32 193.56C296.86 193.56 300.88 192.2 302.06 189.56C302.5 188.58 300.44 184.92 301.6 185.56C305.12 187.42 303.98 186.74 304.42 187C305.74 187.82 309.66 184.6 311.16 184.16C311.7 187.46 307.9 189.46 311.48 191.98C314 193.72 313.66 193.34 311.4 193.62Z" fill="#000001"/>
<path d="M290.52 217.78C284.84 214.78 280.26 217.02 273.26 213.06C271.249 211.651 268.805 211 266.36 211.22C264.66 211.66 249.9 205.22 246.72 198.22C246.047 196.394 245.695 194.466 245.68 192.52C245.54 191 253.02 197.52 260.26 193.96C260.448 193.894 260.612 193.776 260.735 193.62C260.857 193.463 260.933 193.275 260.951 193.078C260.97 192.88 260.932 192.681 260.842 192.504C260.751 192.327 260.612 192.18 260.44 192.08C257.818 190.98 255.607 189.084 254.12 186.66C253.88 186.26 253.6 185.46 254.52 186.08C262.66 191.62 273.34 185.7 270.08 184.08C267.181 183.345 264.607 181.671 262.76 179.32C262.36 178.82 262.76 178.9 263 179.04C269 181.72 277.44 181.34 282.2 176.76C284.68 174.36 276.72 173.34 274.98 163.98C273.24 154.62 278.98 148.48 279.98 132.5C280.5 124.18 274.3 108.76 270.38 103C259.72 87.3599 244.38 79.7199 225.24 74.2799C220.709 73.237 215.986 73.3678 211.52 74.6599C210.72 74.9799 210.9 76.2999 211.86 76.1599C218.767 74.6348 225.989 75.5242 232.32 78.6799C240.12 82.3599 255.54 85.8399 267.24 102.3C292.92 138.3 261.24 156.3 277.1 172.74C280.44 176.2 280.92 175.64 279.34 176.58C276.507 178.165 273.286 178.922 270.044 178.767C266.802 178.611 263.668 177.548 261 175.7C259.76 174.9 258.48 175.7 259.14 177.2C261.92 183.92 268.68 184.8 266.94 185.4C257.74 188.5 254.02 182.86 252.72 182.14C249.96 180.66 249.46 186.66 257.06 192.44C258.64 193.64 245.36 192.62 245.48 188.28C246.58 151.72 243.06 167.76 253.68 166.28C262.5 165.02 272.68 152.52 270.24 143.7C268.6 137.84 263.18 138.52 261.82 137.54C248.64 128.08 241.64 125.16 237.82 119.16C233.3 112.08 216.44 109.64 210.5 117.98C210.28 118.3 210.1 118.38 209.8 117.98C209.251 117.321 208.572 116.782 207.806 116.395C207.04 116.008 206.203 115.783 205.347 115.732C204.49 115.682 203.633 115.807 202.827 116.101C202.021 116.394 201.283 116.85 200.66 117.44C200.4 117.72 200.28 117.72 200.18 117.32C199.14 113.04 193.32 111.02 188.54 110.76C187.8 110.76 187.66 111.02 189.58 106.04C189.94 105.12 192.02 104.92 195.1 107.12C197.88 108.84 195.94 102.4 191.52 102.5C189.52 102.5 197.36 93.9199 198.58 92.4999C199.22 91.7799 199.4 93.0199 200.98 93.1599C201.64 93.1599 202.06 92.1199 201.26 91.4999C191 83.4999 201.88 67.0599 211.56 72.3599C213.56 73.4999 214.54 71.3799 212.6 70.3599C205.76 67.0199 198.02 71.5799 195.86 79.0599C195.58 79.9799 195.52 78.9199 190.86 79.9999C188.773 80.4927 186.853 81.5296 185.297 83.0051C183.741 84.4806 182.603 86.342 182 88.3999C181.729 89.3441 181.203 90.1953 180.48 90.8599C175.88 95.8199 178.08 102.14 183.32 103.72C183.7 103.84 185.2 104.02 185.32 103.32C185.64 102.16 184.7 102.14 183.96 101.92C176.96 99.8199 181.06 90.3999 181.84 93.7399C182.62 97.0799 187.14 101.28 188.12 99.5599C189.1 97.8399 181 95.7599 184 88.2599C186.36 82.2599 195.3 80.2599 195.28 82.5999C195.16 89.9999 198.44 90.5999 197.64 91.4399C193.64 95.6199 191.64 97.0999 189.18 102.3C189.002 102.749 188.669 103.118 188.24 103.34C185.22 104.74 184.1 109.34 185.26 108.66C187.74 107 186.94 107.1 186.32 110.2C186.02 111.66 184.02 110.32 178.98 113.04C170 118 174.36 129.78 182 135C184.9 137 176.28 139.78 184.84 160.32C184.88 160.386 184.904 160.461 184.908 160.538C184.913 160.615 184.899 160.693 184.868 160.763C184.837 160.834 184.789 160.896 184.728 160.944C184.667 160.993 184.596 161.025 184.52 161.04C181.374 162.456 177.969 163.205 174.52 163.24C173.32 163.12 173.36 164.44 173.72 165.4C176.7 173.4 184.96 174.14 183.4 175.06C177.1 178.82 177.24 178.12 175.56 178.52C175.25 178.55 174.965 178.702 174.766 178.942C174.568 179.181 174.472 179.49 174.5 179.8C174.36 181.42 175.62 182.34 177.38 183.6C184.9 188.96 192.3 185.6 192.68 185.96C192.088 187.976 191.132 189.867 189.86 191.54C187.1 195.04 194.96 195.54 201.5 191.42C201.618 191.39 201.742 191.39 201.86 191.42C201.636 192.873 201.315 194.309 200.9 195.72C199.94 198.9 197.52 197.72 196.6 201.02C195.78 204.08 180.26 208.36 178.24 209.64C177.58 210.04 178.06 210.34 172.02 198C163.46 180.58 164.02 180.6 161.82 181.34C156.7 182.98 158.48 183.84 155.28 177.34C153.64 174 116.22 183.76 104.74 197.42C102.32 200.42 103.78 201.16 104.6 200.42C105.06 200.02 108.26 193.7 126.26 185.92C134.799 182.219 143.812 179.728 153.04 178.52C154.08 178.4 153.66 178.1 155.72 182.66C156.24 183.82 106.24 199.24 105 200.82C103.76 202.4 101 201.9 101.84 201.26C102.026 201.134 102.156 200.941 102.205 200.722C102.253 200.502 102.215 200.273 102.1 200.08C98.1 190.82 93.54 190.08 94.1 188.08C94.1 187.7 92.34 183.56 92.66 182.96C92.98 182.36 102.42 190.76 102.1 196.3C102.1 197.7 104.34 198.3 103.98 195.74C102.96 188.24 92.98 178.04 90.34 181.28C89.88 181.82 91.82 185.76 91.86 186.94C90.58 186.56 83.56 180.94 81.34 183.72C80.84 184.32 81.08 184.4 84.2 190.16C84.98 191.62 82.74 189.98 80.52 188.66C73.86 184.66 76.52 188.52 80.06 196.02C119.48 277.2 122.62 282.02 122.22 284.26C122.017 285.456 122.125 286.685 122.535 287.827C122.945 288.969 123.643 289.986 124.56 290.78C124.87 291.1 125.094 291.494 125.209 291.924C125.325 292.355 125.328 292.808 125.22 293.24C125 298.18 128.54 297.38 128.5 300.14C128.521 302.015 129.233 303.817 130.5 305.2C133.54 307.42 132.24 303.08 129.54 327.88C128.78 334.82 130.94 340.48 132.12 344.78C134.62 353.74 144.12 358.66 150.72 358.78C151.4 358.78 151.68 358.54 150.72 361.52C147.66 371.1 151.54 373.08 146.94 378.96C146.126 380.142 145.656 381.527 145.58 382.96C145.606 383.151 145.696 383.328 145.837 383.46C145.977 383.592 146.159 383.672 146.351 383.686C146.544 383.7 146.735 383.648 146.893 383.537C147.051 383.427 147.167 383.265 147.22 383.08C148.18 379.5 151.22 377.94 151.34 372.94C151.34 372.06 151.46 366.54 151.66 365.7C153.44 358 153.06 358.8 154.08 358.64C160.58 357.6 161.96 353.96 165.62 349C168.18 345.52 173.62 322.32 175.32 305.98C175.32 305.34 175.32 304.68 175.9 304.24C176.48 303.8 179.36 285.94 179.3 284.24C179.3 283.58 178.14 283.32 177.9 283.92C177.24 285.5 176.24 295.3 174.98 301.8C174.84 302.6 174.52 302.1 171.52 299.98C167.52 297.14 166.94 297.82 161.96 296.4C153.96 294.06 155.96 295.24 160.42 292.4C166.42 288.52 166.02 284.9 165.34 284.04C164.66 283.18 162.5 283.68 165.34 282.86C191.8 275.2 201.94 272.32 205.56 270.86C208.06 269.9 207.56 269.62 206.96 268.98C206.96 268.98 203.16 261.26 178.96 212C178.6 211.24 178.38 211.52 183.18 210C183.5 210 183.6 210 183.66 210.34C184.853 215.57 187.65 220.297 191.66 223.86C202.4 232.88 206.34 229.74 207.16 231.12C213.98 242.74 210.5 215.5 209.16 299.4C209.16 331.3 211.98 329.4 215.78 338.74C216.08 339.44 217.78 346.74 218.96 348.04C230.66 361.9 240.02 361.66 250.3 353.28C258.92 346.26 273.38 323.56 274.5 324.42C275.62 325.28 277.46 325.36 279.22 326.56C281.6 328.18 285.32 329.76 288.06 328.96C290.32 328.3 289.72 329.86 301.46 295.36C302.08 293.52 300.92 310.36 297 325.7C291.6 346.78 283 358.82 285 366.86C285.8 369.98 284.42 371.1 285 376.22C287 391.02 286.02 390.08 287.62 390.22C289.22 390.36 287.44 378.72 287.3 378.04C286.08 371.82 287.66 370.04 286.84 366.6C284.72 357.82 296.38 343.7 301.56 312.86C303.84 299.36 302.1 294.1 306.72 281.04C312.48 264.88 316.2 253.5 313.5 236.46C311.5 224 307.64 226.82 290.52 217.78ZM103.2 203.78C109.44 203.78 99.74 189.98 133.94 258.64C134.54 259.86 132.34 260.54 131.06 260.78C130.3 260.28 131.98 263.06 113.66 226.16C102 202.82 102 203.76 103.2 203.76V203.78ZM83.44 185.2C86.1 184.88 97.44 192.62 100.18 200.34C95.5203 198.022 91.047 195.348 86.8 192.34C86.42 190.72 83.78 186.36 83.44 185.18V185.2ZM121.3 276.48C120.64 275.52 79.3 190.84 79.02 190.14C79.34 190.02 78.26 189.48 95.78 199.94C101.4 203.3 98.14 199.04 107.64 218.32C129.92 263.52 129.5 261.44 128.54 261.78C116.56 265.88 122.52 273.74 121.3 276.46V276.48ZM122.96 279.36C122.984 278.341 123.077 277.326 123.24 276.32C123.74 273.94 121.12 268.32 123.92 266.54C127.543 264.336 131.392 262.526 135.4 261.14C135.88 260.77 136.404 260.461 136.96 260.22C139.68 259.62 137.42 265.48 132.44 268.22C128.44 270.48 128.04 270.7 127.48 271.38C126.92 272.06 127.48 272.92 128 272.74C131.28 271.78 136.72 265.92 125.56 278.74C122.92 281.8 123.32 282 122.96 279.34V279.36ZM138.28 267.36C138.62 268.2 138.5 268.06 135.38 268.68C135.38 268.68 135.38 268.68 135.38 268.52C137.12 267.46 137.38 266.26 137.72 266.34C138.06 266.42 138 266.74 138.28 267.42V267.36ZM154.76 285.24C152.526 286.135 150.207 286.805 147.84 287.24C145.968 287.334 144.162 287.965 142.64 289.06C141.24 290.38 140.2 291.06 140.92 291.8C141.18 292.08 141.42 292.3 141.8 291.9C144.22 289.38 146.72 289.5 151.8 288.48C153.32 288.18 153 287.42 155.42 287.18C157.896 286.755 160.346 286.194 162.76 285.5C164.76 285.5 163.22 289.74 152.76 293.78C147.68 295.78 145.32 296.32 143.54 298.98C143.06 299.7 142.66 300.78 143.54 301.18C145 301.84 144.12 298.78 149.34 296.88C150.24 296.56 150.46 296.48 150.78 300.48C151.46 309.16 148.26 312.96 148 316.48C148 316.96 148.56 317.58 149.16 316.84C149.76 316.1 151.38 311.36 151.58 310.84C156.06 297.44 145.58 293.08 159.58 297.38C166 299.38 166.8 299.04 169.26 300.72C175.1 304.72 174.2 300.9 171.38 319.86C170.014 328.04 168.096 336.118 165.64 344.04C165.08 345.68 165.92 339.34 165.64 332.62C165.36 323.5 155.96 308.26 154.96 308.62C152.96 309.28 156.96 311.62 161.84 325.14C165.18 334.62 163.42 347.66 161.08 351.14C158.04 355.62 155.4 357.52 147.74 356.36C144.304 355.842 141.098 354.317 138.528 351.979C135.958 349.64 134.139 346.592 133.3 343.22C132.22 338.78 130.46 333.66 131.3 328.28C135.3 299.48 132.9 312.82 137.9 319.7H138.8C138.52 317.52 138.32 317.7 135.64 308.9C134.8 306.1 134.78 305.7 133.9 305.14C130.12 302.78 130.82 302.4 130.08 298.4C129.62 295.98 126.64 296.62 127.02 293.22C127.124 292.261 126.982 291.292 126.608 290.403C126.233 289.514 125.639 288.735 124.88 288.14C123.5 286.84 123.82 283 126.22 280.5C130.5 276.06 130.98 274.08 135.14 271C135.8 270.5 135.96 270.68 142.12 269.24C143.46 268.92 142.64 268.6 145.46 268.1C153 266.74 154.9 264.1 154.82 265.78C154.647 267.133 154.101 268.411 153.243 269.471C152.384 270.53 151.248 271.33 149.96 271.78C148.339 272.724 146.623 273.495 144.84 274.08C132.84 276.8 133.48 284.84 135.44 282.54C138 279.54 137.62 278.92 138.58 280.68C139.3 282 138.94 281.4 136.58 283.52C134.58 285.32 127.9 290.72 131.14 290.24C131.6 290.24 131.86 289.94 136.1 286.38C139.12 283.82 140.34 281.52 150.1 281.42C155.72 281.42 160.1 278.84 163.92 278.1C165.38 277.86 165 282.54 154.76 285.3V285.24ZM140.96 280.8C140.7 280.56 140.82 280.94 139.68 278.62C139.42 278.06 139.86 277.9 142.66 277.04C143.02 276.92 143.34 277.58 144.16 279.4C144.34 279.88 144 280 140.96 280.86V280.8ZM204.2 269.28C202.6 269.78 166.7 280.42 166.64 280.44C166.22 280.56 165.88 280.6 166.08 280.2C166.94 278.36 166.08 275.66 163.82 276.2C156.34 277.78 157.62 279.5 146.82 279.52C146 279.52 146.36 279.76 144.82 276.72C144.66 276.4 144.82 276.2 145.1 276.12C147.248 275.479 149.305 274.564 151.22 273.4C158.3 269.94 158.22 260.96 152.62 263.82C150.021 265.007 147.267 265.822 144.44 266.24C143.183 266.634 141.948 267.095 140.74 267.62C140.18 267.82 139.3 265.62 139.04 264.96C138.78 264.3 141.64 257.78 137.54 257.88C134.04 258.82 138.64 262.2 108.04 202.38C107.24 200.82 106.42 201.66 119.48 197.34C124.78 195.6 156.26 185.18 162.18 183.04C162.74 182.84 162.18 182 169.1 196.14C205.12 270.58 205.68 268.88 204.2 269.34V269.28ZM248.66 132.62C248.66 131.82 248.26 131.82 258.06 138.18C259.34 139 256.36 138.66 253.32 142.18C252.74 142.86 252.72 142.82 251.88 142.42C248.24 140.8 248.14 136.84 248.66 132.68V132.62ZM213.36 118C217.36 114.72 230.36 114.8 235.36 120.46C239.72 125.42 228.92 143.56 218.26 136.1C213.14 132.52 208.38 122 213.36 118ZM187.52 127.08C187.52 126.08 186.4 113.64 188.02 113.72C191.062 113.612 194.068 114.405 196.66 116C200.96 118.82 196.08 138.3 185.6 134.44C184.48 134 187.44 131.38 187.52 127.08ZM182 114.7C183.04 114.38 184 114.14 185.16 113.86C185.52 113.86 185.7 113.86 185.66 114.26C184.62 123.28 187.54 125.84 184.08 132.76C183.68 133.6 183.6 133.64 182.92 133.1C174.54 126.26 172.2 117.76 182 114.7ZM185.7 136.7C187.518 137.102 189.412 136.998 191.175 136.398C192.939 135.799 194.504 134.727 195.7 133.3C196.84 132.14 195.7 136.56 201.3 137.58C202.46 137.8 202.9 136.38 202.2 136.04C200.5 135.18 198.9 134.78 197.98 131.92C197.26 129.7 204.18 131.48 203.98 126.28C203.98 124.9 202.64 124.86 202.34 126.1C201.8 128.24 202.34 127.92 199.14 128.52C198.86 128.52 198.78 128.52 198.88 128.18C200.64 122.64 200.08 121.06 201.88 119.72C202.66 119.264 203.547 119.026 204.45 119.031C205.353 119.036 206.239 119.283 207.013 119.747C207.788 120.211 208.424 120.875 208.854 121.669C209.285 122.463 209.494 123.358 209.46 124.26C209.72 130.8 216.06 140.38 223.46 140.1C233.94 139.68 236.96 128.88 238.86 127.7C240.12 126.9 241.44 127.4 246.76 130.66C248.32 131.6 243.78 141.08 251.18 144.32C251.96 144.66 250.26 145.7 252.16 146.32C252.46 146.32 253.54 144.54 255.26 143.1C263.7 135.96 273.68 141.76 265.26 155.24C263.58 157.9 261.9 160.2 254.56 163.24C245.02 167.24 243.88 142.82 243.7 187.24C243.7 199.84 245.06 203.62 262.76 212.2C263.46 212.54 257.32 217.12 257.28 217.14C246.62 224.78 252.88 221.14 241.08 225.88C239.08 226.64 230.82 230.06 230.68 228.8C229.08 215.42 225.88 212.36 223.68 204.52C221.68 197.6 219.44 195.84 219.24 193.52C218.96 190.12 211.24 183.52 210.3 182.32C209.96 181.92 210 181.76 210.5 181.58C233.04 174.24 229.62 168.66 227.34 170C222.7 172.7 201.92 180.14 192.24 169.04C181.5 157.08 181.26 135.42 185.66 136.78L185.7 136.7ZM192 192C193.408 189.509 194.407 186.808 194.96 184C195.011 183.796 194.997 183.582 194.919 183.387C194.842 183.192 194.705 183.026 194.528 182.913C194.351 182.8 194.143 182.746 193.933 182.758C193.723 182.77 193.523 182.848 193.36 182.98C186.42 187.66 174.18 180.32 177.08 180.1C178.82 179.96 190.5 174.58 184.86 172.7C178.2 170.48 175.18 165.32 175.98 165.08C179.104 164.873 182.169 164.129 185.04 162.88C187.68 161.62 185.04 167.88 197.34 175.46C196.781 176.084 196.471 176.892 196.471 177.73C196.471 178.568 196.781 179.376 197.34 180C200.78 184.2 203.34 186 203.16 186.4C202.86 187.04 203.16 187.92 202.38 188.4C199.4 190.42 195.44 192.7 192 192ZM205.16 228.34C196.1 226.92 187.26 217.96 185.44 210.44C185.1 209.02 184.86 209.16 186.38 208.64C190.84 207.06 193.14 205.36 192.58 206.36C191.46 208.36 192.26 210.94 192.12 211.86C191.6 215.32 194 218.24 197.46 220.08C197.92 220.32 197.76 220.28 200.82 220.48C202.82 220 203.08 219.8 203.32 220.48C203.758 221.478 204.1 222.516 204.34 223.58C205.14 228 206.18 228.58 205.14 228.42L205.16 228.34ZM263.7 334.56C261.899 336.998 259.948 339.322 257.86 341.52C255.04 344.78 252.78 348.42 248.32 351.84C237.88 359.84 230.06 357.84 220.96 347.18C219.582 344.837 218.602 342.283 218.06 339.62C216.76 334.36 214.44 332.9 212.82 326.94C208.58 311.36 213.2 236.08 213.62 235.7C215.34 234.12 212.66 234.9 208.8 229.86C205.66 225.86 207.12 221.58 200.8 211.3C200.674 211.022 200.486 210.776 200.25 210.582C200.014 210.388 199.737 210.25 199.44 210.18C198.22 209.98 199.22 211.56 199.78 212.8C200.62 214.62 198.9 213.46 198.58 213.44C197.76 213.34 197.2 214.28 200 215.92C200.34 216.12 201.26 216.14 201.5 216.46C201.735 216.906 201.903 217.385 202 217.88C202 218.16 202 218.24 201.74 218.26C199.54 218.52 198.58 218.98 196.76 217.44C195.72 216.56 193.86 214.56 193.9 213.2C194 209.2 193.32 207.2 196.76 205.2C198.1 204.46 198.34 203.2 198.42 201.72C198.56 199 201.3 200.48 202.42 196.94C204.02 191.9 211.34 196.34 210.28 193.52C207.04 185.02 196.88 179.52 198.28 177.08C199.6 174.94 204.4 178.92 205.66 180.36C209.54 184.74 216.66 190.7 217.3 194.86C217.7 197.34 219.44 198.22 221.18 204.06C224.32 214.54 227.88 219 228.3 230.58C228.96 248.58 247.54 317.66 247.56 317.72C248.08 318.8 249.32 318.36 249.26 317.22C248.54 303.8 241.06 289 242.9 288.9C245.934 288.69 248.969 289.283 251.7 290.62C253.54 292 264.9 302.1 265.9 303.04C270.04 306.84 274.66 308.16 277.64 312.72C279.76 315.86 280.32 311.18 263.68 334.64L263.7 334.56ZM203.7 192.28C204.62 187.56 204.52 187.74 205.08 188.28C206.083 189.381 206.9 190.637 207.5 192C207.92 192.78 206.64 192.5 206.62 192.42C203.76 192.94 203.42 193.18 203.58 192.36L203.7 192.28ZM289.54 323.52C289.456 323.687 289.341 323.837 289.2 323.96C289.089 323.849 288.989 323.729 288.9 323.6C283.46 315.6 280.72 313.6 279.44 311.32C277.82 308.46 273.14 305.5 270.32 303.78C268.46 302.64 264.84 298.92 261.98 296.66C255.52 291.56 255.36 288.34 246.14 287.08C244.74 286.88 242.6 287.5 242.26 287.22C241.92 286.94 242.26 286.46 243.88 283.34C245.238 280.523 246.866 277.843 248.74 275.34C257.02 263.66 255.34 264.26 258.16 259.44C263.12 250.88 264.42 251.92 272.36 243.44C283.24 231.8 283.78 231.54 284.5 229.7C284.82 228.84 284.06 228.44 283.66 228.86C258.78 255.14 261.16 249.86 256.06 259.38C244.76 280.5 251.36 265.8 241.72 283.18C240.7 285 229.72 234.82 230.78 231.46C231.08 230.5 232.2 232.04 240.78 228.4C253.76 222.86 246.92 227.36 257.78 219.36C263.28 215.36 265.78 210.9 271.36 214.24C278.56 218.56 281.16 216.78 287.92 218.78C291.5 219.84 291.14 221.02 306.16 227.08C310.56 228.86 311.18 232.74 311.7 236.56C314.28 256.7 312.48 259.14 289.42 323.6L289.54 323.52Z" fill="#000001"/>
<path d="M284.46 38.66C284.82 38.66 285.08 38.66 284.96 39.28C284.2 42.54 288.62 45.28 287.74 46.86C286.544 49.1464 285.701 51.601 285.24 54.14C285.14 54.74 285.68 54.42 285.9 54.6C286.74 55.32 287.14 51.56 289.3 47.5C290.76 44.8 286.52 42.1 286.62 39.78C286.74 36.8 287.9 38.5 290.62 39.36C292.14 39.84 293.3 39.36 293.72 40.36C293.991 40.8943 294.445 41.3134 295 41.541C295.554 41.7686 296.172 41.7895 296.74 41.6C298.58 41.12 298.1 42.54 300.26 43C302.42 43.46 302.4 43.36 302.4 44.16C302.4 44.44 302.4 44.74 302.06 44.82C301.032 45.1708 300.051 45.6478 299.14 46.24C298 46.78 298.5 45.86 296.6 47.1C293.74 48.96 294.22 47.78 293.02 48.72C291.02 50.34 286.64 54.96 288.04 56.06C289.44 57.16 289.6 54.28 292.44 51.68C295.28 49.08 294.84 50.34 295.8 49.68C297.8 48.44 298.08 48.26 298.38 48.24C300.1 48.1 301.42 46.66 302.72 46.54C304.48 46.38 304.02 44.84 304.4 44.96C304.78 45.08 304.78 45.46 304.92 45.8C306.18 48.94 310.1 41.54 307.08 40.56C304.06 39.58 303.26 41.7 302.78 41.58C298.14 40.54 301.02 41.14 298.34 39.76C297.1 39.12 296.12 40.62 295.12 39.2C293.54 36.92 294.68 39.2 287.26 36.24C286.74 36.04 286.46 35.32 286.06 34.84C285.66 34.36 285.04 34.36 284.3 34.16C282.2 33.66 280.96 38 284.46 38.66ZM306.22 42.24C306.84 42.42 306.38 43.88 305.82 43.58C303.7 42.5 305.48 42 306.22 42.24V42.24ZM284.22 35.72C284.46 35.72 284.88 36.42 285.1 36.76C284 37.66 283.48 36 284.2 35.72H284.22Z" fill="#000001"/>
<path d="M298.42 254.12C291.78 257.52 282.92 263.7 262.42 264.96C261.64 264.96 260.86 265.32 260.96 266.12C261.06 266.92 278.06 267.82 298.96 255.76C301.72 254.14 300.24 253.2 298.42 254.12Z" fill="#000001"/>
<path d="M265.54 259.58C276.24 256.24 290 245.58 289.12 244.42C287.38 242.2 282.98 251.12 264.96 258.16C264.32 258.4 264.6 259.38 265.54 259.58Z" fill="#000001"/>
<path d="M258 123.46C258.34 123.82 266.24 130.98 267.1 128.76C267.42 127.92 266.9 127.68 264.14 125.76C249.76 116 243.66 96.2399 236.82 91.9999C236.36 91.7199 235.98 92.8199 236.16 93.1599C237.731 94.8921 239.156 96.7519 240.42 98.7199C248.8 112.12 246.72 111.24 258 123.46Z" fill="#000001"/>
<path d="M259.02 224.9C254.48 227.6 254.38 228.9 252.02 229.92C250.46 230.6 238.02 235.46 239.08 237.28C239.66 238.22 239.56 237.46 253.08 231.44C255.003 230.243 256.834 228.906 258.56 227.44C265.4 222.5 266.36 222.58 266.02 221.44C265.42 219.62 261.7 223.32 259.02 224.9Z" fill="#000001"/>
<path d="M253.82 159.08C257.94 159.08 259.32 154.36 258 151.82C257.83 151.543 257.731 151.229 257.71 150.905C257.689 150.581 257.747 150.256 257.88 149.96C258.72 147.96 262.9 144.18 263.3 149.54C263.3 150.18 264.34 150.38 264.78 149.54C265.057 148.981 265.172 148.356 265.112 147.735C265.052 147.115 264.819 146.523 264.441 146.028C264.062 145.532 263.552 145.153 262.969 144.932C262.385 144.712 261.752 144.659 261.14 144.78C257.9 145.48 254.36 149.6 256.08 152.94C256.66 154.08 256.08 156.44 254.88 156.72C252.5 157.24 252.34 156.12 251.76 157.2C251.18 158.28 252.46 159.08 253.82 159.08Z" fill="#000001"/>
<path d="M240 68C240.12 66.64 239.72 62.82 243.1 61.9C245.82 61.14 247.32 61.4 248.54 59.28C249.58 57.48 248.54 56.92 249.52 55.06C252.8 49.06 251.12 49.98 255.52 48.06C267.28 42.84 257.52 36.18 256.48 39.54C255.94 41.16 256.98 42.08 257.68 40.52C258.04 39.7 261.86 42.66 257.36 45.12C253.2 47.38 251.18 47.36 250.06 50.22C248.94 53.08 247.14 54.9 247.2 57.54C247.2 59.42 245.46 59.36 243.44 59.76C241.841 60.1977 240.442 61.1721 239.477 62.5196C238.512 63.8671 238.04 65.5056 238.14 67.16C238.18 70.76 239.74 71.12 240 68Z" fill="#000001"/>
<path d="M214.8 84.14C213.506 84.11 212.22 84.3548 211.027 84.8581C209.834 85.3614 208.762 86.1119 207.88 87.06C206.7 88.32 207.88 89.46 209.08 88.44C209.974 87.5166 211.084 86.8316 212.31 86.4474C213.536 86.0631 214.839 85.9918 216.1 86.24C231.06 88.24 232.1 106.7 247.4 124.94C249.22 127.08 250.64 126.3 249.94 125.04C247.116 121.553 244.505 117.9 242.12 114.1C229.5 91.46 228.28 86.14 214.8 84.14Z" fill="#000001"/>
<path d="M216 102.7C215.3 103.44 214.78 105.04 215.82 104.7C217.26 104.12 218.62 102.42 222.24 102.46C227.26 102.46 229.08 109.82 229.42 106.08C229 100.14 221.72 96.56 216 102.7Z" fill="#000001"/>
<path d="M219.46 126.24C220.54 126.24 220.6 125.52 220.88 124.42C220.56 122.3 218.88 122.42 218.48 123.64C218.08 124.86 218.28 126.18 219.46 126.24Z" fill="#000001"/>
<path d="M203.26 86.8C203.26 88.14 203.26 90.58 204.64 90.36C206.46 90.08 203.46 86.68 206.24 82.36C206.549 81.7612 206.988 81.2387 207.524 80.8305C208.06 80.4223 208.68 80.1386 209.34 80C209.571 79.9056 209.774 79.7527 209.928 79.5564C210.082 79.36 210.183 79.1269 210.22 78.88C210.12 76.24 203.18 79.14 203.26 86.8Z" fill="#000001"/>
<path d="M190 12.7199C190.6 12.8799 191.46 12.0199 192.42 11.8599C193.86 11.6199 197.68 11.4999 198.42 12.9599C200.8 17.5399 192.74 23.2599 191.76 29.5799C191.14 33.5799 195.34 34.6199 201.76 36.3999C207.3 37.9199 196.98 44.9799 200.14 49.2399C200.66 49.9199 202.14 51.2399 203.34 52.4999C206.36 55.6599 202.44 59.8799 204.42 60.2999C206.4 60.7199 207.86 54.1199 204.42 50.7799C200.6 46.9399 200.2 48.2799 204.26 41.1799C205.32 39.3199 205.9 36.0599 203.58 35.0599C201.26 34.0599 201.58 34.7999 196.02 32.6399C187.54 29.3799 203.66 19.6999 199.84 12.1599C198.96 9.99994 197.1 10.2399 194.56 9.99994C189.44 9.87994 189.26 12.5199 190 12.7199Z" fill="#000001"/>
<path d="M201.66 151.76C201.66 151.04 201.22 148.94 199.54 148.9C197.54 148.9 197.24 151.88 198.68 153.34C199.54 154.24 201.18 154.44 201.66 151.76Z" fill="#000001"/>
<path d="M194.36 122.86C194.2 120.86 192.62 120.86 192.36 121.62C191.1 123.88 193.72 126 194.36 122.86Z" fill="#000001"/>
<path d="M160 192.48C114.42 207.66 116 206.48 117.3 209C126.56 228.26 126.24 227.36 127.9 227.54C132.46 226.22 169.66 213.88 169.9 213.76C172.46 212.88 170.98 211.48 164.14 197.6C161.74 192.56 161.82 191.88 160 192.48ZM168.64 212.18L128 225.6C127.52 225.6 128.18 226.74 119.14 208.86C118.68 207.96 116.26 209.18 144.8 199.62C149.76 197.96 154.48 196.3 159.78 194.56C161.16 194.12 160.06 192.76 165.78 204.56C169.4 212.24 169.56 211.88 168.66 212.18H168.64Z" fill="#000001"/>
<path d="M157.68 210.72C157.42 210.72 131.52 218.72 129.68 219.6C128.78 219.98 127.96 221.18 129.06 221.46C129.42 221.46 158.68 212.92 160.22 211.14C159.42 209.66 158.74 210.68 157.68 210.72Z" fill="#000001"/>
<path d="M133.54 208.98C136.84 208.4 136.72 207.34 138.66 207.44C142.36 206.94 143.76 205.44 147.12 204.6C150.48 203.76 151.44 204 154.06 202.6C154.7 202.28 155.14 201.16 153.78 200.88C153.54 200.88 152 201.34 149.78 201.9C141.88 203.9 140.78 205.38 138.74 205.34C136.38 205.34 136.48 206.3 132.96 207.08C124.96 208.86 126.26 209.62 124.12 209.72C123.86 209.72 123.44 210.34 123.36 210.58C123.18 211.3 125.36 211.72 126.4 211.14C128.625 209.982 131.046 209.25 133.54 208.98V208.98Z" fill="#000001"/>
<path d="M140.3 109.18C143.22 105.3 141.5 105.86 151.12 109.18C151.32 109.273 151.545 109.299 151.761 109.256C151.977 109.213 152.174 109.102 152.323 108.94C152.473 108.777 152.566 108.571 152.591 108.352C152.615 108.133 152.57 107.911 152.46 107.72C151.407 105.435 150.191 103.229 148.82 101.12C148 100.08 152.22 95.5799 152.3 93.1199C152.42 89.4999 145 95.5199 143.38 93.3999C142.08 91.6999 140.1 89.8199 138.8 87.7599C138.22 86.8199 137.1 86.4799 136.92 87.5999C135.38 97.8199 137.86 95.2999 132.16 97.4999C128.98 98.7399 128.88 98.7199 128.7 99.7399C128.14 102.96 135.58 103.42 135.6 104.88C135.72 111.46 135.46 111.06 135.6 112.44C135.628 112.625 135.706 112.799 135.825 112.944C135.944 113.088 136.099 113.198 136.276 113.262C136.452 113.325 136.642 113.34 136.826 113.305C137.009 113.269 137.18 113.184 137.32 113.06C138.42 111.852 139.417 110.554 140.3 109.18ZM135.8 102.48C128.96 99.9199 128.96 100.48 136.48 97.7599C138.12 97.1599 137.34 93.5799 138.48 90.4999C145.62 97.1799 139.6 96.6199 150.04 94.2199C148.5 98.3399 145.3 99.5199 147.14 101.66C148.169 103.1 149.059 104.633 149.8 106.24C150.3 107.08 147.8 106.24 144.26 104.92C142.26 104.18 142.72 102.68 138 109.28C136.16 111.86 138.82 103.6 135.8 102.48Z" fill="#000001"/>
<path d="M101.8 74.2199C102.76 73.1799 102.78 73.1799 103.66 74.2199C104.556 75.2851 105.235 76.5147 105.66 77.8399C106.02 79.1199 104.66 78.4399 104.24 78.4599C102.24 78.4599 103.06 79.9599 103.56 80.1999C108.48 82.5799 110.6 76.9199 110.74 78.7799C110.96 81.2999 110.94 84.0399 111.06 87.3399C111.06 88.8399 112.28 89.9799 113.3 89.0599C114.32 88.1399 117.04 85.3799 120.9 81.6199C127.22 75.4399 127.48 75.6199 127.4 74.3999C126.48 60.9999 125.4 64.3999 129.8 59.6199C135.12 53.8799 145.8 42.1999 149.26 35.1999C154.6 24.6199 156.72 13.4799 151.74 12.9199C145.08 12.1799 133.5 17.9999 127.74 23.0599C123.609 26.5973 119.752 30.4415 116.2 34.5599C104.2 47.7399 107.6 45.5999 102.2 46.3199C91.34 47.7199 95.14 45.3799 81.64 60.0999C79.98 61.9199 81.16 63.1599 82.24 63.1599C85.4816 62.8213 88.7432 62.7144 92 62.8399C91.4348 63.4248 91.0196 64.1377 90.7897 64.9178C90.5599 65.6979 90.5222 66.5221 90.68 67.3199C91.0972 68.9051 91.9331 70.3488 93.1 71.4999C93.76 71.9199 94.24 71.1799 93.98 70.3999C93.86 69.9999 91.8 66.9599 92.4 66.2199C93 65.4799 94.52 66.2199 98.94 69.5799C100.16 70.4999 97.82 71.3799 95.84 74.2999C94.7 76.0199 96.72 76.8999 97.26 77.2999C97.8 77.6999 98.3 77.7799 98.84 77.3999L101.8 74.2199ZM92 87.6799C78 109.68 74.88 132.72 85.68 161.36C85.88 161.86 86.56 164.12 87.24 163.66C89.4 162.24 77.98 144.24 81.74 117.76C85.2 93.3999 101.28 79.3399 101.74 77.2199C101.98 76.1799 101.6 75.7399 100.36 76.2199C97.2959 79.8297 94.5017 83.66 92 87.6799V87.6799ZM98.24 66.7799C94.34 63.8399 92.8 65.1399 93.54 63.8799C93.9 63.2599 94.26 62.5599 94.84 62.8199C97.62 63.0599 98.58 64.1199 101.94 66.3999C102.52 66.7999 102.06 67.2399 101.14 68.1399C100.6 68.7399 100.72 68.6199 98.32 66.7799H98.24ZM98 75.8199C96.52 74.7999 95.86 76.8799 113.68 56.1199C114.56 55.1199 115.68 54.1199 116.22 55.4599C116.28 55.5199 98.1 75.7799 98 75.8199ZM108.7 77.8199C106.94 79.3199 108.52 77.8199 105.48 73.8199C104.08 71.9799 103.9 71.9799 104.16 71.6799C105.78 69.7799 105.44 68.8799 109.32 76.4599C109.72 76.9999 109.32 77.2999 108.76 77.7799L108.7 77.8199ZM113.34 86.8599C112.7 87.5199 113 87.5 112.3 77.4799C112.3 76.5399 120.3 70.2799 122.88 67.1999C125.46 64.1199 124.88 64.6399 125.74 73.8399C126.16 74.6599 126 74.3399 113.4 86.8199L113.34 86.8599ZM132 22.5999C136.038 19.6195 140.576 17.3844 145.4 15.9999C152.98 13.9999 152.14 15.9999 152.5 18.9799C152.306 21.8102 151.685 24.5948 150.66 27.2399C145.84 38.9999 146.26 37.9399 144.94 35.5799C138.82 24.6799 130.36 23.6199 132 22.5999ZM129.42 24.5999C131.98 22.1799 146.52 37.1199 144.42 39.9199C138.28 48.1599 116.92 72.1599 111.28 75.6199C110.105 73.334 108.769 71.135 107.28 69.0399C106.78 68.2999 106.72 68.7999 113.78 60.9399C117.78 56.3799 118.92 55.8599 117.52 54.1399C116.92 53.3999 115.32 52.3199 114.3 53.3599C113.28 54.3999 112.72 55.0999 107.7 60.8599C103.08 66.1399 104.04 65.5399 102.4 64.2999C95.8 59.3199 94.62 63.2399 98.84 57.8599C108.304 46.1303 118.498 35.0083 129.36 24.5599L129.42 24.5999ZM93.24 49.9999C94.06 49.0399 94.06 49.1999 103.88 47.9999C105.42 47.7999 101.06 51.3399 97.88 56.1399C97.16 57.1799 94.44 60.8199 93.38 60.9599C93.38 60.9599 83.38 61.2599 83.38 61.1999C82.96 60.8399 88.3 55.7399 93.24 49.9999Z" fill="#000001"/>
<path d="M143.06 211.56C147.06 210.4 147.32 210.04 148.74 210.02C149.075 210.042 149.406 209.943 149.674 209.741C149.942 209.539 150.129 209.248 150.2 208.92C150.2 206.62 142.2 210.28 138.42 210.92C134.98 211.5 127.16 213.78 126.02 215.02C125.22 215.9 125.66 216.4 126.74 216.46C130.74 215.1 130.2 214.92 131.64 214.46C140 212.18 134.24 214.1 143.06 211.56Z" fill="#000001"/>
<path d="M136 148C134.76 148.16 130.64 149.06 130 149.24C128.82 149.54 125.12 141.36 124.18 144.4C121.88 151.88 125.04 150.66 119.18 151.16C116.78 151.36 116.74 152 116.8 153.16C116.8 153.94 117.08 154.1 118.52 154.98C125.02 158.98 122.18 156.08 121.64 163.48C121.64 164.5 122.16 164.98 122.98 164.72C124.84 164.1 127.78 158.72 129.14 159.42C131.108 160.101 133.111 160.675 135.14 161.14C136.28 161.46 136.76 160.86 136.62 159.98C136.4 158.58 134.86 157.98 133.32 155.14C132.98 154.48 133.06 154.78 136.88 150.2C137.54 149.36 137.84 147.78 136 148ZM131.6 156C133.46 159.28 134.22 158.98 130.6 158.18C126.4 157.24 128.3 156.96 123.94 161.38C123.42 161.92 124.04 159.72 124.2 157.64C124.38 155.16 119.58 154.36 118.88 153.06C119.22 153.06 118.62 153.06 121.7 152.76C125.5 152.44 123.7 150.3 125.36 146.9C126.72 148.06 128.12 151.54 129.36 151.28C139.5 148.92 129.4 152.12 131.6 156Z" fill="#000001"/>
<path d="M128.52 47.6399C138.18 47.1399 137.5 32.9999 128.22 33.2199C118 34.4599 119.86 47.9999 128.52 47.6399ZM127.46 35.1799C128.239 35.0418 129.038 35.0776 129.802 35.285C130.565 35.4923 131.273 35.866 131.875 36.3793C132.476 36.8925 132.957 37.5325 133.282 38.2535C133.608 38.9744 133.769 39.7584 133.756 40.5492C133.742 41.34 133.554 42.118 133.204 42.8274C132.854 43.5368 132.352 44.16 131.733 44.6524C131.114 45.1447 130.394 45.494 129.624 45.6751C128.854 45.8562 128.054 45.8647 127.28 45.6999C126.064 45.441 124.976 44.7672 124.202 43.7941C123.428 42.821 123.016 41.609 123.037 40.3658C123.059 39.1226 123.511 37.9254 124.318 36.9794C125.125 36.0333 126.236 35.3972 127.46 35.1799Z" fill="#000001"/>
<path d="M106.46 180.68C105.14 180.92 104.88 182.68 106.58 182.68C115.26 182.54 115.7 166.82 107.34 166.94C106.431 166.907 105.524 167.035 104.66 167.32C104.54 166.18 106.66 161.2 104.42 157.32C101.94 153.04 94.7599 153.32 92.4199 159.22C91.5217 161.772 91.1371 164.477 91.2881 167.178C91.4391 169.879 92.1229 172.524 93.2999 174.96C93.7599 175.86 94.9199 175.34 94.6399 174.14C88.6399 157.08 100.38 152.68 103.02 158.84C105.22 163.98 100.46 169.66 102.52 170.84C103.98 171.66 104.72 168.44 107.54 168.84C111.2 169.48 111.86 173.46 111.26 176.12C110.24 180.5 107.48 180.48 106.46 180.68Z" fill="#000001"/>
<path d="M85.7599 165.48C74.5799 147.12 71.7599 115.02 85.5799 88.8599C88.7588 83.2864 92.3207 77.9402 96.2399 72.8599C98.0999 71.0399 96.2399 70.0799 95.2199 71.2399C83.6399 84.9399 74.5599 104.78 74.5599 122.66C74.5599 148.86 81.1199 161.62 84.3999 165.54C85.9999 167.38 86.8199 167.22 85.7599 165.48Z" fill="#000001"/>
<path d="M76.48 181.28C66.48 184.42 67.62 172.82 77.52 176.84C77.6421 176.914 77.7789 176.96 77.9208 176.976C78.0627 176.991 78.2063 176.976 78.3416 176.93C78.4768 176.884 78.6005 176.81 78.7038 176.711C78.8072 176.613 78.8878 176.493 78.94 176.36C79.48 175.14 78.42 174.84 77.4 174.5C71.94 172.68 78.02 162.26 85.58 174.98C86.2 176.02 87.26 175.3 87.02 174.5C85.42 168.8 79.02 164.5 75.02 168C74.1694 168.719 73.6004 169.716 73.4138 170.814C73.2271 171.912 73.4347 173.04 74 174C69.28 174.12 68 176 67.46 178.46C66.38 184.26 75.72 184.94 78.1 182.66C79.02 181.74 78.26 180.72 76.48 181.28Z" fill="#000001"/>
<path d="M62.9 145.74C62.6 145.14 62.4 143.98 61.02 144.82C55.4 148.24 56.54 147.7 55.02 146.08C52.74 143.7 52.16 142.78 51.02 143.06C50.52 143.2 50.64 144.22 50.76 144.76C52.14 151.16 52.58 149.46 49.98 150.42C49.38 150.66 48.86 150.94 46.42 151.96C46.1902 152.065 45.9955 152.234 45.859 152.447C45.7225 152.66 45.6499 152.907 45.6499 153.16C45.6499 153.413 45.7225 153.66 45.859 153.873C45.9955 154.086 46.1902 154.255 46.42 154.36C53.86 157.14 52.18 156.62 52.68 159.76C53.26 163.36 53.36 164.26 54.12 164.34C54.4298 164.382 54.7448 164.32 55.016 164.165C55.2872 164.009 55.4995 163.768 55.62 163.48C58.74 155.9 56.7 157.9 59.62 158.42C64.64 159.32 64.9 159.82 65.62 158.94C66.34 158.06 64.88 156.76 64.16 155.94C59.44 150.5 60.84 154.1 62.9 145.74ZM61.42 156.68C60.3514 156.6 59.3135 156.286 58.38 155.76C55.86 154.94 55.86 159.98 54.86 160.84C54.6179 159.783 54.4839 158.704 54.46 157.62C54.46 155.42 53.26 155.26 49.62 153.26C48.82 152.8 50.64 152.62 52.7 151.58C54.76 150.54 53.12 148.54 53.08 147.14C53.08 146.3 54.48 148.32 55.36 149.42C56.72 151.12 56.88 148.42 60.7 147.28C60.06 150.58 57.84 151.44 59.98 153.72C63.1 157.06 62.26 156.76 61.42 156.68Z" fill="#000001"/>
</svg>
