<svg width="400" height="400" viewBox="0 0 400 400" fill="none" xmlns="http://www.w3.org/2000/svg">
<path d="M191.066 92.768C124.086 115.222 67.508 142.116 1.8 143.512C1.672 144.78 1.546 145.912 1.418 147.19C0.379005 157.516 -0.0883744 167.892 0.0179966 178.27C67.506 181.95 123.322 155.31 190.556 133.11C252.97 112.686 326.04 96.31 383.634 134.886C386.934 124.444 390.917 114.231 395.558 104.312C396.958 101.268 398.476 98.35 399.998 95.432C337.84 52.682 258.682 70.316 191.066 92.768Z" fill="#643CFF"/>
<path d="M190.558 132.982C123.324 155.31 67.508 181.95 0.019989 178.144C0.16549 188.41 0.885282 198.659 2.17599 208.844C2.30199 209.984 2.55599 211.126 2.68399 212.268C70.172 220.388 124.212 194.762 190.052 173.196C249.42 154.04 319.318 138.564 373.36 178.144C374.122 173.958 374.882 169.644 375.76 165.458C377.93 155.102 380.6 144.856 383.76 134.758C326.042 96.2 252.972 112.558 190.558 132.982Z" fill="#9778FF"/>
<path d="M190.052 173.2C124.212 194.766 70.298 220.4 2.68399 212.272C4.56187 223.91 7.2742 235.397 10.8 246.646C75.878 257.43 126.874 233.58 189.416 213.41C247.77 194.888 317.288 179.792 368.284 226.222C368.792 217.342 369.426 208.462 370.314 199.71C371.074 192.478 371.962 185.248 373.232 178.144C319.318 138.564 249.42 154.04 190.052 173.2Z" fill="#14D29B"/>
<path d="M189.544 213.41C127 233.58 76 257.43 10.928 246.646C12.578 252.102 14.354 257.43 16.004 262.884C18.032 269.1 19.936 275.316 21.966 281.532C83.238 293.838 130.682 272.146 189.036 253.624C246.884 235.61 316.654 220.894 364.236 277.092C365.886 263.892 366.9 250.58 367.788 237.26L368.55 226.222C317.416 179.8 247.898 194.762 189.544 213.41Z" fill="#FDB849"/>
<path d="M189.036 253.624C130.556 272.144 83.236 293.838 21.966 281.532C25.5491 292.865 28.5135 304.384 30.846 316.038C89.446 330.626 133.6 310.838 188.656 293.838C243.712 276.966 310.82 263.138 354.332 322.762L357.376 312.866C360.619 301.132 362.994 289.175 364.48 277.092C316.654 220.894 246.884 235.484 189.036 253.624Z" fill="#FF465A"/>
<path d="M188.528 293.71C133.472 310.836 89.328 330.626 30.728 315.91C30.982 316.926 31.11 318.068 31.362 319.082C33.0733 328.75 33.7118 338.578 33.266 348.386C92.382 368.684 134.498 350.162 188.032 333.798C237.632 318.956 298.144 306.524 337.596 359.422C341.765 353.24 345.213 346.601 347.872 339.634C350.156 334.052 352.184 328.342 354.088 322.508C310.692 263.138 243.586 276.966 188.528 293.71Z" fill="#D70A32"/>
<path d="M179.776 231.678C182.694 230.156 186.118 230.79 189.418 231.044C195.33 231.429 201.247 230.385 206.67 228C207.033 229.802 206.867 231.671 206.193 233.382C205.519 235.092 204.365 236.572 202.87 237.642C199.896 239.83 196.394 241.187 192.722 241.574C190.846 241.974 188.916 242.06 187.012 241.828C184.75 241.434 182.715 240.213 181.304 238.402C180.115 236.371 179.581 234.023 179.776 231.678Z" fill="#DD4040"/>
<path d="M142.734 161.652C146.281 162.549 149.578 164.241 152.374 166.6C157.322 171.04 158.084 176.622 159.098 182.964C161.631 198.188 163.407 213.538 164.426 229.014C168.994 229.014 173.94 229.648 179.014 228.506C185.614 235.356 182.948 246.774 179.142 250.832C166.836 258.952 151.614 259.46 137.542 263.9C135.044 264.879 132.332 265.185 129.678 264.788C124.856 263.518 122.7 257.81 121.812 252.988C118.64 234.846 123.334 216.326 128.536 198.566C131.95 185.882 138.674 174.084 142.734 161.652Z" fill="#643CFF"/>
<path d="M207.558 230.8C201.291 233.412 194.658 235.038 187.894 235.62C183.708 235.746 179.014 235.24 175.462 237.522C176.862 239.172 176.478 242.216 176.732 244.374C176.858 246.774 177.112 249.066 177.238 251.478C181.613 250.248 186.142 249.65 190.686 249.702C195.506 249.828 200.326 250.716 204.886 249.828C209.58 248.94 214.272 245.642 214.78 240.828C215.296 236.498 211.744 232.438 207.558 230.8Z" fill="#DD4040"/>
<path d="M144.89 296.882C157.322 311.724 161.508 330.5 165.44 349.402C158.088 352.407 150.366 354.413 142.48 355.364C134.905 356.293 127.255 356.462 119.646 355.87C118.758 351.05 117.488 346.23 116.6 341.536C113.936 346.864 110.892 351.43 108.228 356.758C99.228 359.296 94.148 360.946 84.886 360.818C75.624 360.69 64.716 360.692 56.598 356.252C53.3 338.11 58.88 314.896 69.798 300.052C93.894 304.114 121.04 302.2 144.89 296.882Z" fill="white"/>
<path d="M144.89 296.882C121.04 302.21 93.89 303.986 69.79 300.054C66.0291 305.192 63.0002 310.827 60.79 316.798C63.1387 317.709 65.5564 318.43 68.02 318.956C71.572 319.844 75.124 320.986 78.676 321.874C82.983 322.918 87.3452 323.719 91.742 324.274C100.791 325.392 109.901 325.942 119.018 325.922C119.215 325.936 119.401 326.02 119.541 326.16C119.681 326.301 119.765 326.487 119.778 326.684C119.194 331.691 118.089 336.623 116.48 341.4C117.368 346.22 118.636 351.04 119.524 355.734C127.131 356.391 134.787 356.221 142.358 355.226C150.244 354.276 157.968 352.271 165.32 349.264C161.508 330.626 157.322 311.724 144.89 296.882Z" fill="#643CFF"/>
<path d="M255.256 75.136C252.718 83.762 252.592 94.292 249.674 102.79C247.518 108.88 245.488 115.99 248.914 121.438C250.69 124.238 253.734 126.132 256.27 128.288C264.644 135.646 261.346 158.228 269.844 165.458C275.806 170.532 291.03 161.906 298.514 159.75C305.12 157.565 310.709 153.058 314.244 147.064C317.688 141.077 320.252 134.626 321.856 127.908C325.656 114.208 328.326 99.492 324.394 85.792C321.24 74.9057 314.193 65.5594 304.594 59.532C296.474 54.458 282.394 49.764 272.88 53.444C263.756 56.868 257.666 67.016 255.256 75.136Z" fill="black"/>
<path d="M269.59 161.018C262.36 164.444 257.666 166.346 254.622 172.054C252.593 176.33 251.308 180.92 250.822 185.628C247.909 202.365 244.226 218.958 239.786 235.356C237.231 234.352 234.601 233.549 231.92 232.956C229.101 231.981 226.414 230.661 223.92 229.024C222.08 227.674 220.128 226.486 218.084 225.472C213.395 223.632 208.185 223.632 203.496 225.472C201.465 226.158 199.546 227.138 197.8 228.38C196.882 229.006 196.071 229.776 195.4 230.662C194.512 232.062 195.4 231.932 196.668 232.692C200.854 235.092 204.532 238.4 208.846 240.558C214.201 242.869 219.828 244.489 225.592 245.378C234.592 247.154 243.606 248.804 252.612 250.452C264.658 222.215 270.45 191.705 269.59 161.018Z" fill="#DD4040"/>
<path d="M349.764 188.8C347.862 176.876 336.564 173.07 327.438 166.726C317.021 159.513 309.547 148.794 306.38 136.526C304.858 130.564 304.222 124.222 301.306 118.894C300.974 117.956 300.291 117.183 299.402 116.736C298.127 116.149 296.679 116.059 295.342 116.484C288.366 118.386 285.956 126.504 285.322 133.736C284.688 140.968 285.322 148.832 280.628 154.16C276.188 159.234 268.956 160.76 263.374 163.928C255.128 168.368 266.546 175.472 265.912 183.972C265.065 193.079 264.726 202.227 264.896 211.372C280.374 212.64 282.404 218.856 295.596 226.722C302.446 230.782 308.796 235.476 315.766 239.408C321.077 242.49 326.743 244.918 332.638 246.638C337.883 238.095 342.341 229.093 345.958 219.744C349.13 210.112 351.414 199.2 349.764 188.8Z" fill="#F7846C"/>
<path d="M290.4 148.586C293.62 148.138 296.629 146.722 299.026 144.526C301.825 142.317 304.454 139.9 306.89 137.296C306.746 136.931 306.661 136.546 306.638 136.154C305.114 130.192 304.226 124.23 301.438 118.902C301.106 117.964 300.425 117.191 299.536 116.744C298.261 116.157 296.813 116.067 295.476 116.492C288.498 118.394 286.088 126.512 285.454 133.744C285.074 137.544 284.82 141.482 284.186 145.16C284.888 146.171 285.814 147.007 286.892 147.601C287.97 148.195 289.17 148.532 290.4 148.586Z" fill="black"/>
<path d="M271.114 160.764C273.016 161.652 274.538 162.92 276.442 163.936C278.344 164.824 279.866 165.838 281.516 166.726C281.77 166.98 282.15 166.98 282.404 167.36C282.237 166.504 282.026 165.658 281.77 164.824C281.725 163.945 281.509 163.083 281.134 162.286C278.978 161.018 277.076 160.13 274.792 158.862C273.65 159.496 272.382 160.13 271.114 160.764ZM291.918 168.884C303.393 167.267 314.962 166.419 326.55 166.346C324.608 165.078 322.82 163.588 321.222 161.906C314.244 162.54 307.394 162.794 300.422 163.808C298.418 163.831 296.421 164.044 294.458 164.444C293.788 165.18 293.271 166.042 292.936 166.98C292.552 167.742 292.172 168.376 291.918 168.884Z" fill="#DD4040"/>
<path d="M261.98 121.312C271.114 144.146 295.47 144.272 309.18 129.176C318.314 119.156 321.866 112.176 321.232 100C321.104 96.574 322.374 93.4 322.246 89.978C321.486 75.136 321.866 59.406 306.136 52.428C292.688 46.592 269.094 44.69 260.848 60.166C255.012 71.076 254.504 86.552 256.408 98.35C257.423 106.184 259.291 113.884 261.98 121.312Z" fill="#F7846C"/>
<path d="M306.126 92.262C304.725 90.8828 303.018 89.8538 301.144 89.2585C299.27 88.6632 297.282 88.5184 295.342 88.836C293.414 89.2038 291.598 90.0139 290.036 91.2025C288.475 92.3911 287.21 93.9259 286.342 95.686C286.342 95.686 289.386 97.716 295.856 96.702C299.641 96.2627 303.213 94.7185 306.126 92.262ZM276.06 96.828C275.081 95.1328 273.711 93.6963 272.064 92.638C270.417 91.5798 268.541 90.9306 266.592 90.7445C264.643 90.5583 262.678 90.8408 260.861 91.5681C259.044 92.2955 257.426 93.4468 256.144 94.926C256.144 94.926 258.544 97.716 265.024 98.478C268.785 99.082 272.64 98.5056 276.06 96.828Z" fill="white"/>
<path d="M296.23 94.418C295.886 93.2185 295.674 91.9853 295.596 90.74C295.491 90.0687 295.449 89.3891 295.47 88.71C293.542 89.0777 291.726 89.8877 290.164 91.0763C288.603 92.2649 287.338 93.7998 286.47 95.56C286.47 95.56 289.516 97.59 295.986 96.574C296.377 96.5509 296.762 96.4651 297.126 96.32C296.728 95.7378 296.425 95.0957 296.23 94.418ZM266.674 95.94C266.32 94.9207 266.148 93.847 266.166 92.768C266.188 92.1272 266.273 91.49 266.42 90.866C264.519 90.726 262.612 91.0315 260.85 91.7582C259.088 92.4849 257.52 93.6127 256.27 95.052C256.27 95.052 258.682 97.852 265.15 98.604C266.08 98.708 267.015 98.7507 267.95 98.732C267.448 97.8382 267.021 96.9044 266.674 95.94Z" fill="black"/>
<path d="M279.612 109.768C280.024 103.672 279.468 97.5497 277.964 91.628C278.344 97.844 276.188 104.828 271.494 108.5C274.027 109.677 276.841 110.116 279.612 109.768ZM274.158 118.774C274.215 120.124 274.561 121.446 275.174 122.65C275.787 123.854 276.652 124.912 277.71 125.752C278.761 126.263 279.919 126.518 281.087 126.496C282.256 126.474 283.403 126.175 284.434 125.624C288.234 123.848 290.776 120.296 293.186 116.872C287.116 119.147 280.558 119.802 274.158 118.774Z" fill="#DD4040"/>
<path d="M294.074 116.492C290.378 116.812 286.655 116.555 283.038 115.73C281.516 115.35 280.12 114.968 278.598 114.716C277.075 114.511 275.526 114.776 274.158 115.476C273.508 115.867 272.976 116.427 272.619 117.096C272.261 117.765 272.092 118.518 272.128 119.276C275.687 120.882 279.621 121.471 283.494 120.98C287.367 120.489 291.029 118.935 294.074 116.492ZM310.692 88.2C309.271 89.8328 307.652 91.282 305.872 92.514C304.423 91.2751 302.707 90.3897 300.858 89.9274C299.008 89.4651 297.077 89.4386 295.216 89.85C291.505 90.7149 288.248 92.9309 286.082 96.066C286.746 94.2709 287.812 92.6516 289.199 91.3322C290.586 90.0127 292.256 89.0282 294.082 88.454C295.951 87.9012 297.918 87.7623 299.846 88.0469C301.774 88.3315 303.617 89.0328 305.246 90.102C307.15 89.7571 308.987 89.1153 310.692 88.2ZM276.314 97.2C275.264 95.5407 273.851 94.1417 272.181 93.1089C270.511 92.076 268.628 91.4363 266.674 91.238C264.752 91.0687 262.817 91.3601 261.03 92.0881C259.243 92.8161 257.655 93.9597 256.398 95.424C255.421 95.3737 254.489 94.996 253.752 94.3517C253.016 93.7074 252.518 92.8339 252.338 91.872C252.648 92.5051 253.192 92.9922 253.856 93.2294C254.519 93.4667 255.249 93.4353 255.89 93.142C260.076 90.858 263.502 89.208 267.562 89.716C269.598 89.9569 271.516 90.7967 273.074 92.1291C274.632 93.4614 275.76 95.2262 276.314 97.2ZM307.774 84.524C306.975 83.627 306.082 82.8183 305.11 82.112C302.7 80.21 299.53 80.712 296.738 81.352C294.075 82.063 291.45 82.9095 288.874 83.888C287.901 84.2518 286.867 84.4243 285.828 84.396C285.165 84.1404 284.562 83.7487 284.06 83.2461C283.557 82.7435 283.166 82.1412 282.91 81.478C288.261 78.9593 294.017 77.4132 299.91 76.912C301.255 77.2157 302.514 77.8232 303.588 78.688C305.54 80.1667 306.999 82.2011 307.774 84.524ZM255.256 88.582C255.887 87.2922 256.695 86.0967 257.656 85.03C258.165 84.4106 258.849 83.9586 259.618 83.7325C260.387 83.5063 261.207 83.5166 261.97 83.762L267.298 85.284C268.308 85.6667 269.396 85.7971 270.468 85.664C271.349 85.5057 272.143 85.0336 272.703 84.335C273.263 83.6364 273.551 82.7586 273.514 81.864C269.715 81.0371 265.854 80.5274 261.97 80.34C261.231 80.2852 260.489 80.4062 259.805 80.693C259.121 80.9797 258.515 81.4242 258.036 81.99C256.471 83.8602 255.503 86.1562 255.256 88.582Z" fill="black"/>
<path d="M265.786 183.98C259.822 187.15 253.606 190.448 249.166 195.65C244.726 200.724 242.19 208.208 244.726 214.552C246.64 218.43 249.471 221.782 252.972 224.32C250.816 236.878 251.83 248.042 252.338 260.72C239.78 273.406 225.064 288.628 214.788 303.216C204.265 317.681 196.443 333.929 191.7 351.176C214.154 344.326 238.51 347.376 261.852 350.542C285.194 353.708 308.916 357.52 332 353.2C332.381 349.238 332.509 345.255 332.382 341.276C329.872 316.765 324.376 292.653 316.016 269.476C322.994 260.216 329.464 251.464 336.44 242.202C330.478 236.748 328.83 228.002 327.56 220.002C326.418 212.002 325.15 203.512 319.822 197.548C306.122 181.948 285.822 197.042 275.55 208.458C275.68 199.2 270.226 189.308 265.786 183.98Z" fill="white"/>
<path d="M218.34 246.266C230.518 250.326 236.482 255.266 246.63 261.236C255.73 266.537 265.231 271.118 275.046 274.936C281.134 277.22 291.03 280.136 297.5 278.868C322.618 257.176 333.78 236.624 343.802 210.112C346.365 204.195 347.579 197.781 347.354 191.336C346.846 184.994 343.802 178.524 338.094 175.352C333.654 172.952 328.198 172.816 323.894 170.024C322.372 174.972 321.99 189.308 322.244 192.478C323.514 205.678 315.774 219.5 308.67 229.394C302.594 237.788 297.125 246.606 292.306 255.78C288.754 253.38 284.06 253.244 279.874 252.736C261.197 250.722 242.934 245.889 225.706 238.4C222.408 237 220.252 233.2 217.588 230.79C216.262 229.441 214.718 228.326 213.02 227.492C210.429 226.479 207.577 226.345 204.902 227.11C202.385 227.808 199.925 228.699 197.544 229.774C193.744 231.424 189.806 233.2 186 234.848C185.62 238.908 188.03 241.572 192.09 242.968C194.372 243.728 199.828 243.856 203.252 245.632C206.8 247.662 214.788 248.168 218.34 246.266Z" fill="#F7846C"/>
<path d="M202.738 230.8C204.487 230.711 206.239 230.881 207.938 231.306C207.53 230.668 206.991 230.124 206.357 229.71C205.723 229.297 205.008 229.022 204.26 228.906C202.063 228.855 199.887 229.335 197.916 230.306C195.76 231.194 193.73 232.208 191.7 233.224C189.798 234.112 187.9 235 185.992 236.024V236.658C189.67 235.518 193.096 233.742 196.774 232.346C198.678 231.8 200.708 231.17 202.738 230.8ZM196.648 236.498C199.367 235.516 202.285 235.211 205.148 235.61L205.02 235.484C204.144 235.053 203.193 234.795 202.22 234.722C200.33 234.405 198.4 234.405 196.51 234.722C192.958 235.484 189.788 237.26 186.362 237.894C186.476 238.337 186.647 238.763 186.87 239.162C188.393 238.976 189.886 238.592 191.31 238.02C193.048 237.379 194.833 236.87 196.648 236.498ZM204.64 240.05C204.116 239.806 203.561 239.635 202.99 239.542C201.071 239.099 199.075 239.099 197.156 239.542C194.356 240.05 191.446 241.192 188.656 241.446C189.284 241.941 189.965 242.367 190.686 242.714C193.204 241.609 195.844 240.804 198.55 240.314C200.561 239.974 202.607 239.885 204.64 240.05ZM294.2 274.936C293.368 275.531 292.746 276.375 292.424 277.346C292.296 277.854 292.17 278.36 292.042 278.996C293.865 279.107 295.694 279.022 297.498 278.742C298.512 277.854 299.528 276.966 300.416 276.078C298.642 275.2 296.104 273.92 294.2 274.936Z" fill="#DD4040"/>
<path d="M311.326 138.056C310.732 137.972 310.126 138.016 309.55 138.184C308.854 138.355 308.202 138.668 307.634 139.105C307.066 139.542 306.596 140.092 306.252 140.72C305.891 141.516 305.718 142.384 305.746 143.258C305.361 143.237 304.975 143.28 304.604 143.384C303.908 143.555 303.256 143.869 302.688 144.306C302.12 144.743 301.65 145.293 301.306 145.922C300.959 146.63 300.785 147.411 300.8 148.2C300.47 148.052 300.13 147.924 299.784 147.818C299.19 147.734 298.584 147.778 298.008 147.946C297.312 148.117 296.66 148.43 296.092 148.867C295.524 149.304 295.054 149.854 294.71 150.482C294.451 150.902 294.319 151.388 294.33 151.882C293.808 151.166 293.04 150.667 292.174 150.482C291.58 150.398 290.974 150.441 290.398 150.61C289.337 150.905 288.371 151.474 287.598 152.258C287.448 151.479 287.084 150.758 286.546 150.175C286.008 149.592 285.318 149.171 284.554 148.96H284.046C284.221 147.842 284.001 146.697 283.422 145.724C282.843 144.751 281.943 144.011 280.876 143.632C280.282 143.548 279.676 143.591 279.1 143.76C278.404 143.931 277.751 144.244 277.183 144.681C276.615 145.117 276.144 145.667 275.8 146.296C275.323 147.281 275.201 148.4 275.456 149.464C275.712 150.528 276.328 151.471 277.2 152.132C277.71 152.526 278.332 152.749 278.976 152.766C278.762 153.721 278.874 154.721 279.294 155.606C279.714 156.49 280.418 157.208 281.295 157.646C282.171 158.083 283.168 158.214 284.127 158.019C285.087 157.823 285.953 157.311 286.588 156.566C286.898 157.474 287.472 158.269 288.236 158.85C289.16 159.446 290.266 159.697 291.357 159.558C292.448 159.418 293.455 158.898 294.2 158.088C294.773 157.367 295.086 156.473 295.088 155.552L295.848 156.312C296.772 156.909 297.877 157.159 298.968 157.02C300.059 156.881 301.065 156.361 301.81 155.552C302.575 154.488 302.893 153.168 302.698 151.872C303.595 152.366 304.63 152.547 305.641 152.386C306.653 152.226 307.581 151.732 308.28 150.984C309.044 149.921 309.363 148.601 309.168 147.306C309.898 147.396 310.639 147.304 311.325 147.038C312.011 146.773 312.621 146.342 313.1 145.784C315.514 143.384 314.372 138.692 311.326 138.056Z" fill="white"/>
<path d="M327.692 87.948C327.31 68.158 322.236 57.122 311.454 51.414C297.626 44.056 278.854 42.28 265.532 50.906C257.286 56.234 251.704 65.106 248.532 74.374C245.362 83.762 244.474 93.656 243.838 103.424C242.19 126.512 241.682 149.854 247.01 172.308C247.604 175.471 248.81 178.488 250.562 181.188C253.445 184.781 257.558 187.177 262.106 187.912C267.05 188.737 272.073 188.992 277.076 188.672C271.62 186.272 268.576 180.046 268.196 174.084C267.688 168.122 269.338 162.16 270.596 156.324C271.854 150.488 272.88 144.272 271.104 138.564C263.734 131.229 258.25 122.219 255.12 112.304C251.948 102.79 258.544 104.566 262.096 95.18C264 90.104 261.97 72.092 266.664 69.3C271.23 66.51 276.558 69.428 281.632 69.428C290.004 69.428 295.46 65.748 304.594 64.988C308.78 64.606 312.458 65.876 313.728 70.062C315.128 74.628 316.644 79.062 318.04 83.636C318.666 85.5478 319.174 87.4961 319.562 89.47C319.69 90.358 321.084 95.432 320.45 96.07C321.084 95.562 326.54 97.592 327.3 97.21C327.184 95.56 327.818 89.6 327.692 87.948Z" fill="black"/>
<path d="M322.11 88.456C322.79 87.3345 323.766 86.4217 324.93 85.8175C326.094 85.2132 327.401 84.9408 328.71 85.03C329.421 85.1608 330.09 85.4593 330.662 85.9007C331.234 86.3421 331.693 86.9137 332 87.568C332.547 88.7625 332.849 90.0547 332.888 91.368C332.996 95.079 332.259 98.766 330.732 102.15C329.998 103.736 329.012 105.192 327.814 106.464C326.448 107.786 324.64 108.554 322.74 108.62C322 108.691 321.255 108.56 320.584 108.24C314 104.948 319.446 92.134 322.11 88.456Z" fill="#F7846C"/>
<path d="M328.2 88.582C326.286 89.9642 324.687 91.7365 323.508 93.782C321.591 96.9435 320.704 100.622 320.97 104.31C321.858 103.303 322.951 102.499 324.177 101.952C325.403 101.405 326.732 101.128 328.074 101.14C327.286 100.626 326.634 99.9297 326.172 99.11C325.452 97.794 325.226 96.2638 325.536 94.796C325.963 92.556 326.872 90.4357 328.2 88.582Z" fill="#DD4040"/>
<path d="M317.8 85.03C316.055 87.5017 314.846 90.3102 314.248 93.276C313.783 94.9422 313.828 96.7094 314.376 98.35C314.595 99.1441 315.055 99.8506 315.694 100.372C316.332 100.893 317.116 101.202 317.938 101.258C318.76 101.314 319.579 101.113 320.281 100.683C320.984 100.253 321.536 99.6153 321.86 98.858C322.582 97.4926 322.931 95.9613 322.874 94.418C322.942 92.2778 322.686 90.1395 322.114 88.076C323.497 90.3068 325.256 92.2808 327.314 93.91C329.598 95.94 333.784 97.462 336.314 95.052C336.753 94.6429 337.062 94.1136 337.202 93.53C337.71 91.374 335.426 88.71 334.03 87.188C333.166 86.1544 332.234 85.1795 331.24 84.27C330.411 83.3739 329.421 82.6419 328.322 82.112C331.8 83.1154 335.517 82.8915 338.85 81.478C339.462 81.2286 340.002 80.8316 340.423 80.3224C340.844 79.8132 341.132 79.2077 341.262 78.56C341.248 77.6583 340.884 76.7974 340.246 76.16C338.556 74.5798 336.343 73.6771 334.03 73.624C331.576 73.7374 329.146 74.1635 326.8 74.892C328.659 73.3247 330.097 71.3189 330.986 69.056C331.385 67.9652 331.429 66.7759 331.11 65.659C330.79 64.5421 330.125 63.5551 329.21 62.84C328.722 62.5405 328.178 62.3415 327.612 62.2546C327.046 62.1677 326.468 62.1947 325.912 62.334C324.71 62.7536 323.618 63.4391 322.717 64.3394C321.817 65.2398 321.132 66.3318 320.712 67.534C319.655 70.2448 319.096 73.1245 319.064 76.034C317.922 74.13 314.37 72.736 312.212 72.354C309.802 72.102 308.154 72.102 306.884 74.13C306.487 74.9268 306.302 75.8122 306.347 76.7012C306.391 77.5902 306.664 78.4528 307.138 79.206C308.098 80.6729 309.351 81.9252 310.818 82.884C312.801 84.4367 315.288 85.2011 317.8 85.03Z" fill="white"/>
<path d="M320.2 82.366C319.192 84.1764 318.384 86.091 317.79 88.076C317.477 88.9744 317.347 89.9266 317.41 90.876C317.536 91.51 317.918 92.144 318.424 92.018C318.615 91.9863 318.792 91.8978 318.932 91.764C319.686 91.1733 320.258 90.3816 320.582 89.48C321.499 87.4791 322.057 85.3323 322.23 83.138C323.631 86.0912 325.828 88.5951 328.574 90.368C329.171 90.6544 329.816 90.8267 330.476 90.876C330.659 90.8995 330.845 90.8627 331.005 90.771C331.165 90.6793 331.291 90.5378 331.364 90.368C331.427 90.2512 331.46 90.1207 331.46 89.988C331.46 89.8553 331.427 89.7247 331.364 89.608C330.832 87.4748 329.576 85.592 327.812 84.28C326.559 83.1534 325.246 82.0945 323.88 81.108C326.245 80.8925 328.558 80.2926 330.73 79.332C331.55 79.0507 332.26 78.5181 332.76 77.81C332.863 77.5698 332.906 77.3084 332.886 77.048C332.76 76.668 332.506 76.542 332.126 76.414C331.79 76.351 331.446 76.351 331.11 76.414C328.472 76.7865 325.907 77.5565 323.5 78.698C324.849 76.3216 325.671 73.6824 325.91 70.96C325.91 70.326 325.91 69.69 325.402 69.31C325.201 69.206 324.974 69.1627 324.749 69.1854C324.524 69.2082 324.31 69.2959 324.134 69.438C323.806 69.7005 323.509 69.9983 323.246 70.326C321.749 72.6359 320.915 75.3126 320.836 78.064C318.521 76.5132 315.746 75.7972 312.97 76.034C312.336 76.034 311.448 76.288 311.32 76.922C311.194 77.43 311.574 77.936 311.828 78.444C312.816 79.7109 314.089 80.7264 315.544 81.408C316.999 82.0895 318.594 82.4178 320.2 82.366Z" fill="#FF465A"/>
<path d="M325.028 119.4C324.923 119.058 324.743 118.744 324.5 118.48C324.258 118.217 323.96 118.011 323.628 117.878C323.628 114.708 323.502 111.662 323.374 108.492C323.676 108.413 323.96 108.274 324.208 108.083C324.455 107.892 324.662 107.654 324.816 107.382C324.97 107.11 325.068 106.81 325.103 106.499C325.139 106.188 325.112 105.874 325.024 105.574C324.935 105.205 324.746 104.867 324.477 104.599C324.209 104.33 323.871 104.141 323.502 104.052H322.614C322.268 104.143 321.944 104.302 321.661 104.52C321.378 104.737 321.141 105.009 320.964 105.32C320.732 105.819 320.681 106.384 320.82 106.916C320.959 107.449 321.279 107.916 321.726 108.238C321.9 108.397 322.125 108.487 322.36 108.492C322.486 111.662 322.486 114.834 322.614 117.878C322.009 118.109 321.481 118.504 321.09 119.02C320.858 119.519 320.807 120.083 320.946 120.616C321.085 121.149 321.406 121.616 321.852 121.938L322.614 122.318V124.348C322.024 124.545 321.525 124.951 321.214 125.49C320.981 125.989 320.93 126.553 321.069 127.086C321.208 127.618 321.528 128.086 321.974 128.408C322.369 128.662 322.834 128.785 323.303 128.76C323.771 128.735 324.22 128.562 324.586 128.267C324.951 127.972 325.214 127.57 325.338 127.117C325.461 126.664 325.439 126.184 325.274 125.744C325.189 125.392 325.016 125.068 324.772 124.801C324.527 124.535 324.218 124.336 323.874 124.222V122.318C324.358 122.024 324.733 121.579 324.941 121.053C325.149 120.526 325.18 119.946 325.028 119.4Z" fill="white"/>
<path d="M141.084 120.678C139.327 120.65 137.621 120.087 136.193 119.064C134.765 118.041 133.682 116.607 133.09 114.953C132.497 113.299 132.423 111.504 132.877 109.807C133.331 108.11 134.291 106.591 135.63 105.454L137.786 107.738C136.817 108.556 136.151 109.677 135.897 110.92C135.643 112.163 135.815 113.455 136.386 114.588C136.862 115.538 137.611 116.325 138.538 116.845C139.465 117.365 140.527 117.595 141.586 117.506C142.915 117.382 144.164 116.814 145.13 115.893C146.097 114.973 146.725 113.753 146.914 112.432C147.097 110.664 146.596 108.894 145.514 107.484C144.996 106.916 144.37 106.455 143.673 106.129C142.977 105.802 142.223 105.617 141.454 105.582L141.708 102.536C142.892 102.551 144.059 102.819 145.132 103.323C146.204 103.826 147.156 104.553 147.924 105.454C148.749 106.454 149.365 107.609 149.736 108.851C150.107 110.093 150.224 111.397 150.082 112.686C149.823 114.724 148.878 116.614 147.402 118.043C145.926 119.472 144.007 120.356 141.962 120.55C141.684 120.663 141.383 120.706 141.084 120.678Z" fill="#FDB849"/>
<path d="M77.656 91.246C75.8842 82.5273 75.2443 73.6164 75.752 64.734C75.7274 61.5876 76.514 58.4879 78.036 55.734C79.812 53.07 83.236 51.294 86.156 52.564C87.9496 48.6809 90.7532 45.3509 94.274 42.922C100.744 38.608 109.116 38.482 116.6 40.258C124.084 42.034 131.2 45.458 138.548 47.742C143.114 49.142 148.442 50.026 152.374 47.362C152.431 51.9466 151.139 56.4467 148.658 60.3023C146.176 64.1578 142.616 67.1986 138.42 69.046C135.737 70.1083 132.919 70.7915 130.048 71.076C122.895 72.092 115.635 72.092 108.482 71.076C104.815 70.2966 101.05 70.0828 97.318 70.442C92.4252 71.4668 88.0862 74.2694 85.14 78.308C82.1102 82.2882 79.5956 86.6353 77.656 91.246Z" fill="black"/>
<path d="M51.27 187.15C53.172 175.226 64.47 171.42 73.596 165.204C84.0129 157.991 91.4873 147.272 94.654 135.004C96.176 129.042 96.812 122.7 99.728 117.372C100.06 116.434 100.742 115.66 101.632 115.214C102.907 114.627 104.354 114.536 105.692 114.96C112.668 116.864 115.078 124.982 115.712 132.214C116.346 139.446 115.712 147.31 120.406 152.638C124.846 157.712 132.078 159.238 137.66 162.406C145.778 166.846 134.488 173.95 135.122 182.448C135.969 191.555 136.308 200.703 136.136 209.848C120.788 211.116 118.63 217.332 105.438 225.198C98.588 229.258 92.238 233.95 85.394 237.884C80.0939 240.989 74.4258 243.418 68.522 245.114C63.3036 236.601 58.8463 227.644 55.202 218.348C51.904 208.462 49.62 197.552 51.27 187.15Z" fill="#F7846C"/>
<path d="M99.094 138.184C101.894 141.862 106.58 146.184 111.526 144.908C113.309 144.449 114.96 143.58 116.348 142.37C115.966 139.072 115.84 135.52 115.586 132.094C114.952 124.864 112.414 116.744 105.564 114.842C104.214 114.546 102.807 114.634 101.504 115.096C100.677 115.618 100.017 116.366 99.602 117.252C97.064 121.946 96.304 127.528 95.036 132.852C96.4987 134.543 97.854 136.324 99.094 138.184Z" fill="black"/>
<path d="M129.8 159.116C127.898 160.004 126.374 161.272 124.472 162.286C122.57 163.174 121.046 164.19 119.398 165.086C119.144 165.34 118.764 165.34 118.51 165.72C118.677 164.864 118.888 164.016 119.144 163.182C119.189 162.304 119.404 161.442 119.778 160.646C121.934 159.376 123.838 158.488 126.122 157.22C127.384 157.846 128.526 158.48 129.8 159.116ZM109.116 167.36C97.6413 165.745 86.0716 164.898 74.484 164.824C76.4258 163.555 78.2137 162.065 79.812 160.384C86.79 161.018 93.64 161.272 100.612 162.286C102.616 162.309 104.612 162.521 106.576 162.92C107.246 163.657 107.763 164.52 108.098 165.458C108.482 166.092 108.736 166.726 109.116 167.36Z" fill="#DD4040"/>
<path d="M138.928 119.662C129.794 142.496 105.438 142.624 91.728 127.528C82.596 117.506 79.044 110.528 79.678 98.35C79.804 94.926 78.536 91.75 78.662 88.328C79.424 73.614 79.044 57.756 94.774 50.906C108.094 45.07 131.816 43.168 139.934 58.644C145.77 69.554 146.278 85.03 144.374 96.828C143.524 104.638 141.694 112.309 138.928 119.662Z" fill="#F7846C"/>
<path d="M78.8 98.478C79.688 98.35 80.576 98.224 81.336 98.096C81.1592 95.1942 81.6377 92.2898 82.736 89.598C84.2317 86.7796 86.1575 84.2114 88.444 81.986C90.7431 79.7691 92.7859 77.301 94.534 74.628C96.2998 71.4985 97.581 68.1195 98.334 64.606C98.46 64.1 107.594 66.51 108.356 66.764C114.429 68.1791 120.72 68.3945 126.876 67.398C132.915 66.7838 138.799 65.1088 144.256 62.45C138.674 41.65 108.102 44.182 94.274 50.144C78.036 57.248 78.416 73.614 77.656 88.964C77.528 92.134 78.67 95.306 78.8 98.478Z" fill="black"/>
<path d="M94.908 90.74C96.2894 89.3709 97.9744 88.3471 99.826 87.7518C101.678 87.1565 103.644 87.0065 105.564 87.314C107.492 87.6817 109.308 88.4917 110.87 89.6803C112.431 90.8689 113.696 92.4038 114.564 94.164C114.564 94.164 111.518 96.194 105.048 95.18C101.315 94.6941 97.7971 93.1539 94.908 90.74ZM124.846 95.306C125.825 93.6101 127.195 92.1728 128.842 91.114C130.489 90.0553 132.365 89.4057 134.315 89.2196C136.264 89.0335 138.229 89.3162 140.047 90.0441C141.865 90.7719 143.482 91.924 144.764 93.404C144.764 93.404 142.352 96.204 135.884 96.956C132.123 97.4413 128.301 96.87 124.846 95.306Z" fill="white"/>
<path d="M104.8 92.896C105.144 91.6959 105.356 90.462 105.434 89.216C105.539 88.5454 105.581 87.8664 105.56 87.188C107.479 87.539 109.286 88.3439 110.831 89.5355C112.376 90.7271 113.613 92.2709 114.44 94.038C114.44 94.038 111.396 96.068 104.926 95.052C104.534 95.0289 104.149 94.9431 103.784 94.798C104.223 94.2227 104.566 93.5804 104.8 92.896ZM134.234 94.418C134.587 93.3985 134.759 92.3249 134.742 91.246C134.719 90.6052 134.634 89.9682 134.488 89.344C136.389 89.2037 138.296 89.5091 140.057 90.2358C141.819 90.9625 143.387 92.0905 144.636 93.53C144.636 93.53 142.236 96.32 135.756 97.082C134.83 97.1841 133.898 97.2261 132.966 97.208C133.492 96.3284 133.917 95.3926 134.234 94.418Z" fill="black"/>
<path d="M125.1 117C124.991 118.095 124.609 119.145 123.988 120.054C123.367 120.962 122.528 121.7 121.548 122.2C119.367 122.983 116.974 122.937 114.824 122.072C111.447 120.681 108.479 118.454 106.2 115.6C112.362 117.212 118.767 117.687 125.1 117Z" fill="#DD4040"/>
<path d="M105.184 115.222C108.875 115.458 112.58 115.245 116.22 114.588C117.742 114.334 119.138 113.954 120.66 113.828C122.17 113.654 123.699 113.872 125.1 114.462C125.682 114.666 126.188 115.042 126.551 115.54C126.913 116.039 127.115 116.636 127.13 117.252C123.535 118.477 119.722 118.93 115.94 118.58C112.159 118.23 108.493 117.086 105.184 115.222Z" fill="black"/>
<path d="M78.924 86.934C78.2443 85.8122 77.2689 84.8992 76.1048 84.2949C74.9406 83.6906 73.6326 83.4183 72.324 83.508C71.6117 83.6373 70.9407 83.9352 70.3669 84.3767C69.7932 84.8182 69.3334 85.3906 69.026 86.046C68.4787 87.2405 68.1768 88.5327 68.138 89.846C68.0299 93.557 68.7671 97.244 70.294 100.628C71.0283 102.214 72.0136 103.67 73.212 104.942C74.5781 106.264 76.3861 107.032 78.286 107.098C79.0258 107.169 79.771 107.038 80.442 106.718C87.044 103.424 81.588 90.612 78.924 86.934Z" fill="#F7846C"/>
<path d="M72.836 87.06C74.7499 88.4422 76.3491 90.2145 77.528 92.26C79.4471 95.4249 80.3341 99.1084 80.066 102.8C79.1786 101.793 78.0849 100.989 76.8591 100.442C75.6333 99.8947 74.3042 99.6179 72.962 99.63C73.7499 99.116 74.4023 98.4197 74.864 97.6C75.5838 96.2839 75.8094 94.7538 75.5 93.286C75.0186 91.0593 74.1142 88.9457 72.836 87.06Z" fill="#DD4040"/>
<path d="M113.936 73.868C114.212 75.3083 113.986 76.7998 113.294 78.093C112.602 79.3861 111.487 80.4025 110.136 80.972C108.635 81.5148 107.025 81.6884 105.442 81.478C101.382 81.352 97.196 80.844 93.642 82.748C96.0558 79.7387 99.1628 77.359 102.697 75.8125C106.231 74.266 110.088 73.5988 113.936 73.868ZM144.764 84.65C142.618 83.5111 140.215 82.9429 137.786 83C135.273 83.0042 132.826 82.2046 130.8 80.718C129.945 79.9293 129.326 78.9183 129.012 77.798C128.698 76.6776 128.703 75.4921 129.024 74.374C132.384 74.1432 135.756 74.6201 138.92 75.774C140.487 76.2823 141.859 77.2598 142.852 78.574C143.223 79.26 143.521 79.9834 143.74 80.732C144.128 81.986 144.382 83.254 144.764 84.65Z" fill="black"/>
<path d="M129.286 105.962C126.442 104.644 124.216 102.28 123.07 99.362C122.555 97.9028 122.335 96.356 122.422 94.8111C122.509 93.2662 122.902 91.754 123.578 90.362C120.797 94.9299 119.511 100.252 119.9 105.586C122.892 106.786 126.207 106.919 129.286 105.962Z" fill="#DD4040"/>
<path d="M76.768 120.678C75.0113 120.65 73.3048 120.087 71.8762 119.065C70.4476 118.042 69.3647 116.608 68.7719 114.954C68.1792 113.3 68.1048 111.505 68.5586 109.807C69.0124 108.11 69.9729 106.591 71.312 105.454L73.47 107.738C72.4999 108.556 71.834 109.677 71.58 110.92C71.3259 112.163 71.4986 113.455 72.07 114.588C72.5328 115.549 73.28 116.344 74.2102 116.866C75.1404 117.388 76.2086 117.612 77.27 117.506C78.5994 117.382 79.8484 116.814 80.8154 115.894C81.7824 114.973 82.4111 113.754 82.6 112.432C82.7831 110.664 82.2821 108.894 81.2 107.484C80.6814 106.916 80.0559 106.455 79.3592 106.129C78.6626 105.803 77.9085 105.617 77.14 105.582L77.394 102.536C78.5782 102.551 79.7454 102.82 80.8174 103.323C81.8894 103.826 82.8416 104.553 83.61 105.454C84.4354 106.454 85.0516 107.609 85.4219 108.851C85.7923 110.094 85.9093 111.398 85.766 112.686C85.5078 114.724 84.5631 116.614 83.0875 118.043C81.6119 119.473 79.6934 120.357 77.648 120.55C77.3668 120.654 77.067 120.697 76.768 120.678ZM72.582 87.44C72.6291 86.3882 72.4111 85.3415 71.948 84.396C71.756 83.9934 71.4479 83.6574 71.0632 83.4314C70.6786 83.2054 70.2352 83.0997 69.79 83.128C69.5266 83.1745 69.2767 83.2781 69.0576 83.4315C68.8385 83.5849 68.6557 83.7844 68.522 84.016C68.2863 84.5781 68.242 85.2022 68.396 85.792L66.872 86.3C66.5316 85.3045 66.5773 84.2175 67 83.254C67.2476 82.775 67.6076 82.3631 68.0493 82.0538C68.491 81.7445 69.0012 81.5469 69.536 81.478C70.2793 81.4292 71.021 81.5945 71.6732 81.9542C72.3254 82.314 72.8608 82.8532 73.216 83.508C73.8529 84.67 74.1599 85.9841 74.104 87.308L72.582 87.44ZM72.962 92.896H71.44C71.4493 92.0645 71.2305 91.2464 70.8074 90.5306C70.3842 89.8148 69.773 89.2287 69.04 88.836C68.786 88.71 68.658 88.71 68.406 88.582C68.1208 88.5316 67.827 88.5796 67.5726 88.718C67.3183 88.8564 67.1185 89.0772 67.006 89.344C66.8705 89.5999 66.8343 89.8969 66.9045 90.1778C66.9746 90.4587 67.1461 90.7038 67.386 90.866L66.366 92C65.8732 91.5978 65.5306 91.0411 65.3934 90.42C65.2563 89.7989 65.3327 89.1497 65.6103 88.5774C65.8879 88.0051 66.3504 87.5432 66.9231 87.2664C67.4958 86.9896 68.1451 86.914 68.766 87.052C69.1159 87.1443 69.4556 87.2716 69.78 87.432C70.7772 87.9433 71.6069 88.7298 72.1709 89.6982C72.7348 90.6666 73.0094 91.7764 72.962 92.896Z" fill="#FDB849"/>
<path d="M158.21 303.6C131.316 323.896 85.648 322.756 56.598 310.45C63.702 298.65 71.06 286.094 78.036 274.296C64.716 253.238 51.016 231.672 46.956 207.062C45.556 198.942 45.434 190.316 49.356 183.086C57.222 168.624 77.266 164.056 83.608 148.834C92.608 152.258 100.608 160.378 106.188 168.37C111.493 176.458 116 185.041 119.646 194C119.802 179.934 122.644 166.026 128.018 153.026C131.772 157.457 136.909 160.496 142.6 161.652C140.19 171.701 140.944 182.248 144.758 191.852C146.158 195.15 148.31 198.576 149.45 202C150.85 206.314 150.212 212.784 148.562 218.872C143.996 235.618 142.854 248.684 139.562 265.81C145.904 278.368 151.868 291.054 158.21 303.61" fill="white"/>
<path d="M96.304 176.876C96.812 177.002 96.938 177.51 96.812 178.016C96.176 179.416 95.67 180.816 95.036 182.204C100.616 180.934 105.818 184.74 109.624 188.546C115.707 195.01 119.955 202.98 121.928 211.634C122.056 209.858 122.31 207.956 122.564 206.18C123.331 200.871 124.736 195.674 126.75 190.702C128.15 187.278 130.302 183.344 133.854 181.568C132.478 180.496 131.279 179.213 130.302 177.768C130.241 177.663 130.206 177.544 130.199 177.423C130.192 177.301 130.215 177.179 130.264 177.068C130.313 176.957 130.388 176.859 130.483 176.782C130.578 176.705 130.689 176.652 130.808 176.626C132.332 176.118 133.98 175.864 135.502 175.226C132.648 169.496 131.502 163.067 132.2 156.704C130.932 155.69 129.536 153.406 128.014 151.884C122.6 164.922 119.715 178.87 119.514 192.986C115.978 184.351 111.554 176.107 106.314 168.386C100.732 160.52 92.74 151.64 83.732 148.216C83.1007 149.881 82.3376 151.493 81.45 153.036C86.904 159.126 88.68 168.258 89.06 176.25C91.4927 176.02 93.9468 176.232 96.304 176.876Z" fill="#FFD340"/>
<path d="M124.212 265.676C116.684 266.473 109.09 265.015 102.392 261.488C96.2633 258.055 90.8056 253.542 86.282 248.168C81.104 242.44 76.4744 236.24 72.454 229.648C70.298 225.968 68.396 222.164 65.984 218.612C63.9776 215.993 62.1552 213.237 60.53 210.366C58.374 211.888 57.866 212.522 55.71 214.044C61.798 230.916 76.134 252.862 80.574 258.19C85.648 264.152 96.684 277.6 103.154 278.868C110.766 280.268 136.264 274.808 142.988 272.652C141.846 270.368 140.704 268.212 139.562 265.928C139.816 264.788 139.942 263.646 140.196 262.504C134.935 263.877 129.598 264.936 124.212 265.676Z" fill="#643CFF"/>
<path d="M182.948 254.638C183.199 250.394 182.511 246.146 180.932 242.199C179.353 238.251 176.923 234.7 173.814 231.8C171.015 233.63 167.857 234.841 164.552 235.352C147.3 238.65 129.92 241.952 112.288 241.314C106.372 224.965 98.7612 209.279 89.58 194.514C87.5496 190.783 84.9375 187.4 81.842 184.492C79.1079 182.057 75.8539 180.278 72.328 179.292C69.1904 178.254 65.7954 178.298 62.686 179.418C60.9026 180.268 59.3099 181.471 58.0037 182.954C56.6976 184.436 55.7051 186.168 55.086 188.044C51.152 197.94 54.832 209.23 59.398 218.87C69.2784 239.809 83.5576 258.372 101.262 273.292C102.557 274.337 104.164 274.918 105.828 274.942C132.458 275.2 158.084 264.534 182.948 254.638Z" fill="white"/>
<path d="M95.67 89.216L93.132 84.776L97.446 87.694L95.67 89.216ZM98.714 87.314L97.446 82.24L100.744 86.552L98.714 87.314ZM140.704 89.216L144.382 85.664L142.606 90.232L140.704 89.216ZM143.622 91.246L147.428 87.694L145.144 92.768L143.622 91.246Z" fill="black"/>
<path d="M68.776 179.92C70.5833 179.769 72.4021 180.008 74.109 180.621C75.816 181.234 77.3714 182.206 78.67 183.472C81.2815 186.024 83.466 188.979 85.14 192.224C94.3041 208.369 102.648 224.966 110.14 241.952C110.385 241.165 110.902 240.492 111.598 240.052C112.294 239.612 113.125 239.435 113.94 239.552C115.59 239.934 115.59 241.456 115.59 243.104C116.019 242.817 116.492 242.603 116.99 242.47C117.515 242.282 118.092 242.295 118.608 242.506C119.125 242.716 119.546 243.11 119.79 243.612C119.94 243.897 120.067 244.194 120.17 244.5C124.864 243.866 129.558 243.232 134.252 242.724C130.164 242.301 126.055 242.132 121.946 242.216C121.694 241.202 121.44 240.44 120.298 240.06C119.769 239.825 119.179 239.759 118.611 239.873C118.043 239.986 117.524 240.273 117.126 240.694C117.266 239.905 117.093 239.092 116.643 238.428C116.193 237.765 115.501 237.303 114.716 237.142C114.017 237.054 113.307 237.135 112.645 237.379C111.984 237.622 111.391 238.021 110.916 238.542C103.835 219.75 94.4071 201.929 82.856 185.502C81.4867 183.619 79.7632 182.022 77.782 180.8C76.5309 179.79 75.0112 179.168 73.4108 179.012C71.8103 178.855 70.199 179.171 68.776 179.92Z" fill="#FFD340"/>
</svg>
