<svg width="400" height="400" viewBox="0 0 400 400" fill="none" xmlns="http://www.w3.org/2000/svg">
<path d="M231.25 175H243.75C245.408 175 246.997 175.658 248.169 176.831C249.342 178.003 250 179.592 250 181.25V218.75H225V181.25C225 179.592 225.658 178.003 226.831 176.831C228.003 175.658 229.592 175 231.25 175Z" fill="#333333" stroke="#231F20" stroke-width="6.25" stroke-linecap="round" stroke-linejoin="round"/>
<path d="M243.75 175C245.408 175 246.997 175.658 248.169 176.831C249.342 178.003 250 179.592 250 181.25V218.75H237.5V181.25C237.5 179.592 238.158 178.003 239.331 176.831C240.503 175.658 242.092 175 243.75 175Z" fill="#666666" stroke="#231F20" stroke-width="6.25" stroke-linecap="round" stroke-linejoin="round"/>
<path d="M333.715 187.5H284.489C282.365 187.5 280.276 188.041 278.419 189.073L225 218.75H281.25L300 262.5L350.684 228.711C352.396 227.569 353.8 226.023 354.771 224.208C355.742 222.394 356.25 220.368 356.25 218.31V206.69C356.25 204.632 355.742 202.606 354.771 200.792C353.8 198.977 352.396 197.431 350.684 196.289L340.649 189.599C338.596 188.23 336.183 187.5 333.715 187.5Z" fill="#E4E4E4" stroke="#231F20" stroke-width="6.25" stroke-linecap="round" stroke-linejoin="round"/>
<path d="M231.25 356.25V318.75L187.5 281.25L143.75 318.75V356.25" stroke="#231F20" stroke-width="6.25" stroke-linecap="round" stroke-linejoin="round"/>
<path d="M187.5 281.25L125 250L43.75 318.75V356.25" stroke="#231F20" stroke-width="6.25" stroke-linecap="round" stroke-linejoin="round"/>
<path d="M256.25 318.75H231.25C221.304 318.75 211.766 322.701 204.733 329.734C197.701 336.766 193.75 346.304 193.75 356.25C193.75 366.196 197.701 375.734 204.733 382.767C211.766 389.799 221.304 393.75 231.25 393.75H256.25C266.196 393.75 275.734 389.799 282.767 382.767C289.799 375.734 293.75 366.196 293.75 356.25C293.75 346.304 289.799 336.766 282.767 329.734C275.734 322.701 266.196 318.75 256.25 318.75Z" fill="#1E4BDE" stroke="#231F20" stroke-width="6.25" stroke-linecap="round" stroke-linejoin="round"/>
<path d="M256.25 393.75C276.961 393.75 293.75 376.961 293.75 356.25C293.75 335.539 276.961 318.75 256.25 318.75C235.539 318.75 218.75 335.539 218.75 356.25C218.75 376.961 235.539 393.75 256.25 393.75Z" fill="#C8D4FA" stroke="#231F20" stroke-width="6.25" stroke-linecap="round" stroke-linejoin="round"/>
<path d="M256.25 375C266.605 375 275 366.605 275 356.25C275 345.895 266.605 337.5 256.25 337.5C245.895 337.5 237.5 345.895 237.5 356.25C237.5 366.605 245.895 375 256.25 375Z" fill="white" stroke="#231F20" stroke-width="6.25" stroke-linecap="round" stroke-linejoin="round"/>
<path d="M187.5 293.75C194.404 293.75 200 288.154 200 281.25C200 274.346 194.404 268.75 187.5 268.75C180.596 268.75 175 274.346 175 281.25C175 288.154 180.596 293.75 187.5 293.75Z" fill="#B1B1B1" stroke="#231F20" stroke-width="6.25" stroke-linecap="round" stroke-linejoin="round"/>
<path d="M187.5 282.813C188.363 282.813 189.062 282.113 189.062 281.25C189.062 280.387 188.363 279.688 187.5 279.688C186.637 279.688 185.938 280.387 185.938 281.25C185.938 282.113 186.637 282.813 187.5 282.813Z" fill="#1E4BDE" stroke="#231F20" stroke-width="6.25" stroke-linecap="round" stroke-linejoin="round"/>
<path d="M125 262.5C131.904 262.5 137.5 256.904 137.5 250C137.5 243.096 131.904 237.5 125 237.5C118.096 237.5 112.5 243.096 112.5 250C112.5 256.904 118.096 262.5 125 262.5Z" fill="#B1B1B1" stroke="#231F20" stroke-width="6.25" stroke-linecap="round" stroke-linejoin="round"/>
<path d="M125 251.562C125.863 251.562 126.562 250.863 126.562 250C126.562 249.137 125.863 248.438 125 248.438C124.137 248.438 123.438 249.137 123.438 250C123.438 250.863 124.137 251.562 125 251.562Z" fill="#1E4BDE" stroke="#231F20" stroke-width="6.25" stroke-linecap="round" stroke-linejoin="round"/>
<path d="M256.25 318.75H231.25C221.304 318.75 211.766 322.701 204.733 329.734C197.701 336.766 193.75 346.304 193.75 356.25C193.75 366.196 197.701 375.734 204.733 382.767C211.766 389.799 221.304 393.75 231.25 393.75H256.25C266.196 393.75 275.734 389.799 282.767 382.767C289.799 375.734 293.75 366.196 293.75 356.25C293.75 346.304 289.799 336.766 282.767 329.734C275.734 322.701 266.196 318.75 256.25 318.75Z" fill="#231F20" stroke="#231F20" stroke-width="6.25" stroke-linecap="round" stroke-linejoin="round"/>
<path d="M256.25 393.75C276.961 393.75 293.75 376.961 293.75 356.25C293.75 335.539 276.961 318.75 256.25 318.75C235.539 318.75 218.75 335.539 218.75 356.25C218.75 376.961 235.539 393.75 256.25 393.75Z" fill="#333333" stroke="#231F20" stroke-width="6.25" stroke-linecap="round" stroke-linejoin="round"/>
<path d="M256.25 368.75C263.154 368.75 268.75 363.154 268.75 356.25C268.75 349.346 263.154 343.75 256.25 343.75C249.346 343.75 243.75 349.346 243.75 356.25C243.75 363.154 249.346 368.75 256.25 368.75Z" fill="#666666" stroke="#231F20" stroke-width="6.25" stroke-linecap="round" stroke-linejoin="round"/>
<path d="M168.75 318.75H143.75C133.804 318.75 124.266 322.701 117.233 329.734C110.201 336.766 106.25 346.304 106.25 356.25C106.25 366.196 110.201 375.734 117.233 382.767C124.266 389.799 133.804 393.75 143.75 393.75H168.75C178.696 393.75 188.234 389.799 195.267 382.767C202.299 375.734 206.25 366.196 206.25 356.25C206.25 346.304 202.299 336.766 195.267 329.734C188.234 322.701 178.696 318.75 168.75 318.75Z" fill="#231F20" stroke="#231F20" stroke-width="6.25" stroke-linecap="round" stroke-linejoin="round"/>
<path d="M168.75 393.75C189.461 393.75 206.25 376.961 206.25 356.25C206.25 335.539 189.461 318.75 168.75 318.75C148.039 318.75 131.25 335.539 131.25 356.25C131.25 376.961 148.039 393.75 168.75 393.75Z" fill="#333333" stroke="#231F20" stroke-width="6.25" stroke-linecap="round" stroke-linejoin="round"/>
<path d="M168.75 368.75C175.654 368.75 181.25 363.154 181.25 356.25C181.25 349.346 175.654 343.75 168.75 343.75C161.846 343.75 156.25 349.346 156.25 356.25C156.25 363.154 161.846 368.75 168.75 368.75Z" fill="#666666" stroke="#231F20" stroke-width="6.25" stroke-linecap="round" stroke-linejoin="round"/>
<path d="M68.75 318.75H43.75C33.8044 318.75 24.2661 322.701 17.2335 329.734C10.2009 336.766 6.25 346.304 6.25 356.25C6.25 366.196 10.2009 375.734 17.2335 382.767C24.2661 389.799 33.8044 393.75 43.75 393.75H68.75C78.6956 393.75 88.2339 389.799 95.2665 382.767C102.299 375.734 106.25 366.196 106.25 356.25C106.25 346.304 102.299 336.766 95.2665 329.734C88.2339 322.701 78.6956 318.75 68.75 318.75Z" fill="#231F20" stroke="#231F20" stroke-width="6.25" stroke-linecap="round" stroke-linejoin="round"/>
<path d="M68.75 393.75C89.4607 393.75 106.25 376.961 106.25 356.25C106.25 335.539 89.4607 318.75 68.75 318.75C48.0393 318.75 31.25 335.539 31.25 356.25C31.25 376.961 48.0393 393.75 68.75 393.75Z" fill="#333333" stroke="#231F20" stroke-width="6.25" stroke-linecap="round" stroke-linejoin="round"/>
<path d="M68.75 368.75C75.6536 368.75 81.25 363.154 81.25 356.25C81.25 349.346 75.6536 343.75 68.75 343.75C61.8464 343.75 56.25 349.346 56.25 356.25C56.25 363.154 61.8464 368.75 68.75 368.75Z" fill="#666666" stroke="#231F20" stroke-width="6.25" stroke-linecap="round" stroke-linejoin="round"/>
<path d="M300 262.5L350.684 228.711C352.396 227.569 353.8 226.023 354.771 224.208C355.742 222.394 356.25 220.368 356.25 218.31V206.69C356.25 204.632 355.742 202.606 354.771 200.792C353.8 198.977 352.396 197.431 350.684 196.289L343.842 191.728C341.931 190.454 339.707 189.731 337.413 189.639C335.119 189.546 332.844 190.086 330.837 191.201L281.25 218.75L300 262.5Z" fill="white" stroke="#231F20" stroke-width="6.25" stroke-linecap="round" stroke-linejoin="round"/>
<path d="M297.181 224.194L336.906 202.125L343.75 206.687V218.313L305.569 243.762L297.181 224.194Z" stroke="#FFC700" stroke-width="6.25" stroke-linecap="round" stroke-linejoin="round"/>
<path d="M318.75 218.75H62.5C55.5964 218.75 50 224.346 50 231.25V268.75C50 275.654 55.5964 281.25 62.5 281.25H318.75C325.654 281.25 331.25 275.654 331.25 268.75V231.25C331.25 224.346 325.654 218.75 318.75 218.75Z" fill="white" stroke="#231F20" stroke-width="6.25" stroke-linecap="round" stroke-linejoin="round"/>
<path d="M315.625 243.75H296.875C295.149 243.75 293.75 245.149 293.75 246.875V265.625C293.75 267.351 295.149 268.75 296.875 268.75H315.625C317.351 268.75 318.75 267.351 318.75 265.625V246.875C318.75 245.149 317.351 243.75 315.625 243.75Z" fill="#E4E4E4" stroke="#E4E4E4" stroke-width="6.25" stroke-linecap="round" stroke-linejoin="round"/>
<path d="M331.25 356.25V318.75L287.5 281.25L243.75 318.75V356.25" stroke="#231F20" stroke-width="6.25" stroke-linecap="round" stroke-linejoin="round"/>
<path d="M287.5 281.25L225 250L143.75 318.75V356.25" stroke="#231F20" stroke-width="6.25" stroke-linecap="round" stroke-linejoin="round"/>
<path d="M356.25 318.75H331.25C321.304 318.75 311.766 322.701 304.733 329.734C297.701 336.766 293.75 346.304 293.75 356.25C293.75 366.196 297.701 375.734 304.733 382.767C311.766 389.799 321.304 393.75 331.25 393.75H356.25C366.196 393.75 375.734 389.799 382.767 382.767C389.799 375.734 393.75 366.196 393.75 356.25C393.75 346.304 389.799 336.766 382.767 329.734C375.734 322.701 366.196 318.75 356.25 318.75Z" fill="#1E4BDE" stroke="#231F20" stroke-width="6.25" stroke-linecap="round" stroke-linejoin="round"/>
<path d="M356.25 393.75C376.961 393.75 393.75 376.961 393.75 356.25C393.75 335.539 376.961 318.75 356.25 318.75C335.539 318.75 318.75 335.539 318.75 356.25C318.75 376.961 335.539 393.75 356.25 393.75Z" fill="#C8D4FA" stroke="#231F20" stroke-width="6.25" stroke-linecap="round" stroke-linejoin="round"/>
<path d="M356.25 375C366.605 375 375 366.605 375 356.25C375 345.895 366.605 337.5 356.25 337.5C345.895 337.5 337.5 345.895 337.5 356.25C337.5 366.605 345.895 375 356.25 375Z" fill="white" stroke="#231F20" stroke-width="6.25" stroke-linecap="round" stroke-linejoin="round"/>
<path d="M287.5 293.75C294.404 293.75 300 288.154 300 281.25C300 274.346 294.404 268.75 287.5 268.75C280.596 268.75 275 274.346 275 281.25C275 288.154 280.596 293.75 287.5 293.75Z" fill="white" stroke="#231F20" stroke-width="6.25" stroke-linecap="round" stroke-linejoin="round"/>
<path d="M287.5 282.813C288.363 282.813 289.062 282.113 289.062 281.25C289.062 280.387 288.363 279.688 287.5 279.688C286.637 279.688 285.938 280.387 285.938 281.25C285.938 282.113 286.637 282.813 287.5 282.813Z" fill="#B1B1B1" stroke="#B1B1B1" stroke-width="6.25" stroke-linecap="round" stroke-linejoin="round"/>
<path d="M225 262.5C231.904 262.5 237.5 256.904 237.5 250C237.5 243.096 231.904 237.5 225 237.5C218.096 237.5 212.5 243.096 212.5 250C212.5 256.904 218.096 262.5 225 262.5Z" fill="white" stroke="#231F20" stroke-width="6.25" stroke-linecap="round" stroke-linejoin="round"/>
<path d="M225 251.562C225.863 251.562 226.562 250.863 226.562 250C226.562 249.137 225.863 248.438 225 248.438C224.137 248.438 223.438 249.137 223.438 250C223.438 250.863 224.137 251.562 225 251.562Z" fill="#B1B1B1" stroke="#B1B1B1" stroke-width="6.25" stroke-linecap="round" stroke-linejoin="round"/>
<path d="M356.25 318.75H331.25C321.304 318.75 311.766 322.701 304.733 329.734C297.701 336.766 293.75 346.304 293.75 356.25C293.75 366.196 297.701 375.734 304.733 382.767C311.766 389.799 321.304 393.75 331.25 393.75H356.25C366.196 393.75 375.734 389.799 382.767 382.767C389.799 375.734 393.75 366.196 393.75 356.25C393.75 346.304 389.799 336.766 382.767 329.734C375.734 322.701 366.196 318.75 356.25 318.75Z" fill="#231F20" stroke="#231F20" stroke-width="6.25" stroke-linecap="round" stroke-linejoin="round"/>
<path d="M356.25 393.75C376.961 393.75 393.75 376.961 393.75 356.25C393.75 335.539 376.961 318.75 356.25 318.75C335.539 318.75 318.75 335.539 318.75 356.25C318.75 376.961 335.539 393.75 356.25 393.75Z" fill="#666666" stroke="#231F20" stroke-width="6.25" stroke-linecap="round" stroke-linejoin="round"/>
<path d="M356.25 368.75C363.154 368.75 368.75 363.154 368.75 356.25C368.75 349.346 363.154 343.75 356.25 343.75C349.346 343.75 343.75 349.346 343.75 356.25C343.75 363.154 349.346 368.75 356.25 368.75Z" fill="#999999" stroke="#231F20" stroke-width="6.25" stroke-linecap="round" stroke-linejoin="round"/>
<path d="M268.75 318.75H243.75C233.804 318.75 224.266 322.701 217.233 329.734C210.201 336.766 206.25 346.304 206.25 356.25C206.25 366.196 210.201 375.734 217.233 382.767C224.266 389.799 233.804 393.75 243.75 393.75H268.75C278.696 393.75 288.234 389.799 295.267 382.767C302.299 375.734 306.25 366.196 306.25 356.25C306.25 346.304 302.299 336.766 295.267 329.734C288.234 322.701 278.696 318.75 268.75 318.75Z" fill="#231F20" stroke="#231F20" stroke-width="6.25" stroke-linecap="round" stroke-linejoin="round"/>
<path d="M268.75 393.75C289.461 393.75 306.25 376.961 306.25 356.25C306.25 335.539 289.461 318.75 268.75 318.75C248.039 318.75 231.25 335.539 231.25 356.25C231.25 376.961 248.039 393.75 268.75 393.75Z" fill="#666666" stroke="#231F20" stroke-width="6.25" stroke-linecap="round" stroke-linejoin="round"/>
<path d="M268.75 368.75C275.654 368.75 281.25 363.154 281.25 356.25C281.25 349.346 275.654 343.75 268.75 343.75C261.846 343.75 256.25 349.346 256.25 356.25C256.25 363.154 261.846 368.75 268.75 368.75Z" fill="#999999" stroke="#231F20" stroke-width="6.25" stroke-linecap="round" stroke-linejoin="round"/>
<path d="M168.75 318.75H143.75C133.804 318.75 124.266 322.701 117.233 329.734C110.201 336.766 106.25 346.304 106.25 356.25C106.25 366.196 110.201 375.734 117.233 382.767C124.266 389.799 133.804 393.75 143.75 393.75H168.75C178.696 393.75 188.234 389.799 195.267 382.767C202.299 375.734 206.25 366.196 206.25 356.25C206.25 346.304 202.299 336.766 195.267 329.734C188.234 322.701 178.696 318.75 168.75 318.75Z" fill="#231F20" stroke="#231F20" stroke-width="6.25" stroke-linecap="round" stroke-linejoin="round"/>
<path d="M168.75 393.75C189.461 393.75 206.25 376.961 206.25 356.25C206.25 335.539 189.461 318.75 168.75 318.75C148.039 318.75 131.25 335.539 131.25 356.25C131.25 376.961 148.039 393.75 168.75 393.75Z" fill="#666666" stroke="#231F20" stroke-width="6.25" stroke-linecap="round" stroke-linejoin="round"/>
<path d="M168.75 368.75C175.654 368.75 181.25 363.154 181.25 356.25C181.25 349.346 175.654 343.75 168.75 343.75C161.846 343.75 156.25 349.346 156.25 356.25C156.25 363.154 161.846 368.75 168.75 368.75Z" fill="#999999" stroke="#231F20" stroke-width="6.25" stroke-linecap="round" stroke-linejoin="round"/>
<path d="M162.5 218.75H62.5C55.5964 218.75 50 224.346 50 231.25V268.75C50 275.654 55.5964 281.25 62.5 281.25H162.5C169.404 281.25 175 275.654 175 268.75V231.25C175 224.346 169.404 218.75 162.5 218.75Z" fill="#B1B1B1" stroke="#231F20" stroke-width="6.25" stroke-linecap="round" stroke-linejoin="round"/>
<path d="M337.5 187.5V125" stroke="#231F20" stroke-width="6.25" stroke-linecap="round" stroke-linejoin="round"/>
<path d="M62.5 56.25V100C62.5 106.904 68.0964 112.5 75 112.5L181.25 112.5C188.154 112.5 193.75 106.904 193.75 100V56.25C193.75 49.3464 188.154 43.75 181.25 43.75L75 43.75C68.0964 43.75 62.5 49.3464 62.5 56.25Z" fill="white" stroke="#231F20" stroke-width="6.25" stroke-linecap="round" stroke-linejoin="round"/>
<path d="M62.5 93.75H193.75V100C193.75 103.315 192.433 106.495 190.089 108.839C187.745 111.183 184.565 112.5 181.25 112.5H75C71.6848 112.5 68.5054 111.183 66.1612 108.839C63.817 106.495 62.5 103.315 62.5 100V93.75Z" fill="#666666" stroke="#231F20" stroke-width="6.25" stroke-linecap="round" stroke-linejoin="round"/>
<path d="M62.5 56.25V100C62.5 106.904 68.0964 112.5 75 112.5H143.75C150.654 112.5 156.25 106.904 156.25 100V56.25C156.25 49.3464 150.654 43.75 143.75 43.75H75C68.0964 43.75 62.5 49.3464 62.5 56.25Z" fill="#B1B1B1" stroke="#231F20" stroke-width="6.25" stroke-linecap="round" stroke-linejoin="round"/>
<path d="M62.5 93.75H156.25V100C156.25 103.315 154.933 106.495 152.589 108.839C150.245 111.183 147.065 112.5 143.75 112.5H75C71.6848 112.5 68.5054 111.183 66.1612 108.839C63.817 106.495 62.5 103.315 62.5 100V93.75Z" fill="#333333" stroke="#231F20" stroke-width="6.25" stroke-linecap="round" stroke-linejoin="round"/>
<path d="M137.5 68.75C137.5 65.2982 134.702 62.5 131.25 62.5C127.798 62.5 125 65.2982 125 68.75C125 72.2018 127.798 75 131.25 75C134.702 75 137.5 72.2018 137.5 68.75Z" fill="#33DDFF" stroke="#231F20" stroke-width="6.25" stroke-linecap="round" stroke-linejoin="round"/>
<path d="M112.5 156.25H100L125 112.5H137.5L112.5 156.25Z" fill="white" stroke="#231F20" stroke-width="6.25" stroke-linecap="round" stroke-linejoin="round"/>
<path d="M100 156.25H87.5L112.5 112.5H125L100 156.25Z" fill="#E4E4E4" stroke="#231F20" stroke-width="6.25" stroke-linecap="round" stroke-linejoin="round"/>
<path d="M106.25 206.25H118.75L100 156.25H87.5L106.25 206.25Z" fill="#E4E4E4" stroke="#231F20" stroke-width="6.25" stroke-linecap="round" stroke-linejoin="round"/>
<path d="M118.75 206.25H131.25L112.5 156.25H100L118.75 206.25Z" fill="white" stroke="#231F20" stroke-width="6.25" stroke-linecap="round" stroke-linejoin="round"/>
<path d="M112.5 143.75H93.75C90.4348 143.75 87.2554 145.067 84.9112 147.411C82.567 149.755 81.25 152.935 81.25 156.25C81.25 159.565 82.567 162.745 84.9112 165.089C87.2554 167.433 90.4348 168.75 93.75 168.75H112.5C115.815 168.75 118.995 167.433 121.339 165.089C123.683 162.745 125 159.565 125 156.25C125 152.935 123.683 149.755 121.339 147.411C118.995 145.067 115.815 143.75 112.5 143.75Z" fill="#E4E4E4" stroke="#231F20" stroke-width="6.25" stroke-linecap="round" stroke-linejoin="round"/>
<path d="M112.5 168.75C119.404 168.75 125 163.154 125 156.25C125 149.346 119.404 143.75 112.5 143.75C105.596 143.75 100 149.346 100 156.25C100 163.154 105.596 168.75 112.5 168.75Z" fill="white" stroke="#231F20" stroke-width="6.25" stroke-linecap="round" stroke-linejoin="round"/>
<path d="M125 193.75H106.25C102.935 193.75 99.7554 195.067 97.4112 197.411C95.067 199.755 93.75 202.935 93.75 206.25V218.75H137.5V206.25C137.5 202.935 136.183 199.755 133.839 197.411C131.495 195.067 128.315 193.75 125 193.75Z" fill="#E4E4E4" stroke="#231F20" stroke-width="6.25" stroke-linecap="round" stroke-linejoin="round"/>
<path d="M112.5 218.75V206.25C112.5 202.935 113.817 199.755 116.161 197.411C118.505 195.067 121.685 193.75 125 193.75C128.315 193.75 131.495 195.067 133.839 197.411C136.183 199.755 137.5 202.935 137.5 206.25V218.75H112.5Z" fill="white" stroke="#231F20" stroke-width="6.25" stroke-linecap="round" stroke-linejoin="round"/>
<path d="M181.25 206.25H218.75C220.408 206.25 221.997 206.908 223.169 208.081C224.342 209.253 225 210.842 225 212.5V218.75H175V212.5C175 210.842 175.658 209.253 176.831 208.081C178.003 206.908 179.592 206.25 181.25 206.25Z" fill="white" stroke="#231F20" stroke-width="6.25" stroke-linecap="round" stroke-linejoin="round"/>
<path d="M168.75 206.25H193.75C195.408 206.25 196.997 206.908 198.169 208.081C199.342 209.253 200 210.842 200 212.5V218.75H162.5V212.5C162.5 210.842 163.158 209.253 164.331 208.081C165.503 206.908 167.092 206.25 168.75 206.25Z" fill="#B1B1B1" stroke="#231F20" stroke-width="6.25" stroke-linecap="round" stroke-linejoin="round"/>
<path d="M156.25 237.5H118.75C115.435 237.5 112.255 238.817 109.911 241.161C107.567 243.505 106.25 246.685 106.25 250C106.25 253.315 107.567 256.495 109.911 258.839C112.255 261.183 115.435 262.5 118.75 262.5H156.25V237.5Z" fill="#C8D4FA" stroke="#231F20" stroke-width="6.25" stroke-linecap="round" stroke-linejoin="round"/>
<path d="M137.5 243.75V256.25L93.75 237.5V225L137.5 243.75Z" fill="white" stroke="#231F20" stroke-width="6.25" stroke-linecap="round" stroke-linejoin="round"/>
<path d="M93.75 237.5H68.75L112.5 256.25H137.5L93.75 237.5Z" fill="#B1B1B1" stroke="#231F20" stroke-width="6.25" stroke-linecap="round" stroke-linejoin="round"/>
<path d="M156.25 262.5H137.5C134.185 262.5 131.005 261.183 128.661 258.839C126.317 256.495 125 253.315 125 250C125 246.685 126.317 243.505 128.661 241.161C131.005 238.817 134.185 237.5 137.5 237.5H156.25V262.5Z" fill="white" stroke="#231F20" stroke-width="6.25" stroke-linecap="round" stroke-linejoin="round"/>
<path d="M56.25 293.75H68.75L87.5 231.25H75L56.25 293.75Z" fill="#E4E4E4" stroke="#231F20" stroke-width="6.25" stroke-linecap="round" stroke-linejoin="round"/>
<path d="M68.75 293.75H81.25L100 231.25H87.5L68.75 293.75Z" fill="white" stroke="#231F20" stroke-width="6.25" stroke-linecap="round" stroke-linejoin="round"/>
<path d="M93.75 218.75H75C71.6848 218.75 68.5054 220.067 66.1612 222.411C63.817 224.755 62.5 227.935 62.5 231.25C62.5 234.565 63.817 237.745 66.1612 240.089C68.5054 242.433 71.6848 243.75 75 243.75H93.75C97.0652 243.75 100.245 242.433 102.589 240.089C104.933 237.745 106.25 234.565 106.25 231.25C106.25 227.935 104.933 224.755 102.589 222.411C100.245 220.067 97.0652 218.75 93.75 218.75Z" fill="#E4E4E4" stroke="#231F20" stroke-width="6.25" stroke-linecap="round" stroke-linejoin="round"/>
<path d="M93.75 243.75C100.654 243.75 106.25 238.154 106.25 231.25C106.25 224.346 100.654 218.75 93.75 218.75C86.8464 218.75 81.25 224.346 81.25 231.25C81.25 238.154 86.8464 243.75 93.75 243.75Z" fill="white" stroke="#231F20" stroke-width="6.25" stroke-linecap="round" stroke-linejoin="round"/>
<path d="M112.5 306.25H25C21.5482 306.25 18.75 309.048 18.75 312.5V325C18.75 328.452 21.5482 331.25 25 331.25H112.5C115.952 331.25 118.75 328.452 118.75 325V312.5C118.75 309.048 115.952 306.25 112.5 306.25Z" fill="white" stroke="#231F20" stroke-width="6.25" stroke-linecap="round" stroke-linejoin="round"/>
<path d="M25 331.25H75C78.4518 331.25 81.25 328.452 81.25 325V312.5C81.25 309.048 78.4518 306.25 75 306.25H25C21.5482 306.25 18.75 309.048 18.75 312.5V325C18.75 328.452 21.5482 331.25 25 331.25Z" fill="#E4E4E4" stroke="#231F20" stroke-width="6.25" stroke-linecap="round" stroke-linejoin="round"/>
<path d="M70.3125 318.75H64.0625" stroke="#231F20" stroke-width="6.25" stroke-linecap="round" stroke-linejoin="round"/>
<path d="M29.6875 318.75H35.9375" stroke="#231F20" stroke-width="6.25" stroke-linecap="round" stroke-linejoin="round"/>
<path d="M50 320.313C50.8629 320.313 51.5625 319.613 51.5625 318.75C51.5625 317.887 50.8629 317.188 50 317.188C49.1371 317.188 48.4375 317.887 48.4375 318.75C48.4375 319.613 49.1371 320.313 50 320.313Z" fill="#FF3446" stroke="#231F20" stroke-width="6.25" stroke-linecap="round" stroke-linejoin="round"/>
<path d="M78.125 281.25H59.375C56.0598 281.25 52.8804 282.567 50.5362 284.911C48.192 287.255 46.875 290.435 46.875 293.75V306.25H90.625V293.75C90.625 290.435 89.308 287.255 86.9638 284.911C84.6196 282.567 81.4402 281.25 78.125 281.25Z" fill="#E4E4E4" stroke="#231F20" stroke-width="6.25" stroke-linecap="round" stroke-linejoin="round"/>
<path d="M65.625 306.25V293.75C65.625 290.435 66.942 287.255 69.2862 284.911C71.6304 282.567 74.8098 281.25 78.125 281.25C81.4402 281.25 84.6196 282.567 86.9638 284.911C89.308 287.255 90.625 290.435 90.625 293.75V306.25H65.625Z" fill="white" stroke="#231F20" stroke-width="6.25" stroke-linecap="round" stroke-linejoin="round"/>
<path d="M18.75 143.75C25.6536 143.75 31.25 138.154 31.25 131.25C31.25 124.346 25.6536 118.75 18.75 118.75C11.8464 118.75 6.25 124.346 6.25 131.25C6.25 138.154 11.8464 143.75 18.75 143.75Z" fill="#FFC700" stroke="#FFC700" stroke-width="6.25" stroke-linecap="round" stroke-linejoin="round"/>
<path d="M350 100C356.904 100 362.5 94.4036 362.5 87.5C362.5 80.5964 356.904 75 350 75C343.096 75 337.5 80.5964 337.5 87.5C337.5 94.4036 343.096 100 350 100Z" fill="#FFC700" stroke="#FFC700" stroke-width="6.25" stroke-linecap="round" stroke-linejoin="round"/>
<path d="M238.281 101.563C238.713 101.563 239.062 101.213 239.062 100.782C239.062 100.35 238.713 100 238.281 100C237.85 100 237.5 100.35 237.5 100.782C237.5 101.213 237.85 101.563 238.281 101.563Z" fill="#FFC700" stroke="#FFC700" stroke-width="6.25" stroke-linecap="round" stroke-linejoin="round"/>
<path d="M294.531 144.531C294.963 144.531 295.312 144.181 295.312 143.75C295.312 143.319 294.963 142.969 294.531 142.969C294.1 142.969 293.75 143.319 293.75 143.75C293.75 144.181 294.1 144.531 294.531 144.531Z" fill="#FFC700" stroke="#FFC700" stroke-width="6.25" stroke-linecap="round" stroke-linejoin="round"/>
<path d="M50 181.25C50.4315 181.25 50.7812 180.9 50.7812 180.469C50.7812 180.037 50.4315 179.688 50 179.688C49.5685 179.688 49.2188 180.037 49.2188 180.469C49.2188 180.9 49.5685 181.25 50 181.25Z" fill="#FFC700" stroke="#FFC700" stroke-width="6.25" stroke-linecap="round" stroke-linejoin="round"/>
<path d="M369.531 157.031C369.963 157.031 370.312 156.681 370.312 156.25C370.312 155.819 369.963 155.469 369.531 155.469C369.1 155.469 368.75 155.819 368.75 156.25C368.75 156.681 369.1 157.031 369.531 157.031Z" fill="#FFC700" stroke="#FFC700" stroke-width="6.25" stroke-linecap="round" stroke-linejoin="round"/>
<path d="M149.219 12.8906C149.65 12.8906 150 12.5408 150 12.1094C150 11.6779 149.65 11.3281 149.219 11.3281C148.787 11.3281 148.438 11.6779 148.438 12.1094C148.438 12.5408 148.787 12.8906 149.219 12.8906Z" fill="#FFC700" stroke="#FFC700" stroke-width="6.25" stroke-linecap="round" stroke-linejoin="round"/>
<path d="M350.391 25.3906C350.391 25.4679 350.368 25.5434 350.325 25.6077C350.282 25.6719 350.221 25.722 350.149 25.7515C350.078 25.7811 349.999 25.7888 349.924 25.7737C349.848 25.7587 349.778 25.7214 349.724 25.6668C349.669 25.6122 349.632 25.5425 349.617 25.4668C349.602 25.391 349.609 25.3124 349.639 25.2411C349.669 25.1697 349.719 25.1087 349.783 25.0658C349.847 25.0229 349.923 25 350 25C350.051 25 350.102 25.0101 350.149 25.0297C350.197 25.0494 350.24 25.0781 350.276 25.1144C350.312 25.1507 350.341 25.1938 350.361 25.2411C350.38 25.2885 350.391 25.3393 350.391 25.3906Z" fill="#FFC700" stroke="#FFC700" stroke-width="6.25" stroke-linecap="round" stroke-linejoin="round"/>
<path d="M38.2813 24.6094C38.2813 24.6866 38.2583 24.7622 38.2154 24.8264C38.1725 24.8906 38.1115 24.9407 38.0401 24.9703C37.9687 24.9998 37.8902 25.0076 37.8144 24.9925C37.7386 24.9774 37.669 24.9402 37.6144 24.8855C37.5597 24.8309 37.5225 24.7613 37.5075 24.6855C37.4924 24.6097 37.5002 24.5312 37.5298 24.4598C37.5594 24.3884 37.6094 24.3274 37.6737 24.2845C37.738 24.2416 37.8135 24.2187 37.8908 24.2188C37.942 24.2188 37.9928 24.2289 38.0402 24.2485C38.0876 24.2681 38.1307 24.2969 38.1669 24.3332C38.2032 24.3694 38.2319 24.4125 38.2516 24.4599C38.2712 24.5073 38.2813 24.5581 38.2813 24.6094Z" fill="#FFC700" stroke="#FFC700" stroke-width="6.25" stroke-linecap="round" stroke-linejoin="round"/>
<path d="M171.875 162.5C173.601 162.5 175 161.101 175 159.375C175 157.649 173.601 156.25 171.875 156.25C170.149 156.25 168.75 157.649 168.75 159.375C168.75 161.101 170.149 162.5 171.875 162.5Z" fill="#FFC700" stroke="#FFC700" stroke-width="6.25" stroke-linecap="round" stroke-linejoin="round"/>
<path d="M278.125 75.0004C297.11 75.0004 312.5 59.6102 312.5 40.6254C312.5 21.6406 297.11 6.25038 278.125 6.25038C259.14 6.25038 243.75 21.6406 243.75 40.6254C243.75 59.6102 259.14 75.0004 278.125 75.0004Z" fill="#E4E4E4" stroke="#E4E4E4" stroke-width="6.25" stroke-linecap="round" stroke-linejoin="round"/>
</svg>
