<svg width="400" height="400" viewBox="0 0 400 400" fill="none" xmlns="http://www.w3.org/2000/svg">
<path d="M292.058 218C279.166 204.472 245.306 186.444 228.994 177.484C223.45 186.868 203.04 188.108 191.716 184.666C185.714 189.299 181.207 195.595 178.756 202.77C181.601 206.892 178.756 220.89 177.68 231.12C179.176 239.424 181.446 247.57 184.458 255.452C178.258 248.536 171.766 241.734 166.522 236.566C144.122 223.244 149.198 226.166 141.1 221.442C140.035 221.982 139.007 222.592 138.022 223.266C133.114 226.584 129.112 231.074 126.379 236.33C123.645 241.584 122.266 247.44 122.366 253.362C125.528 255.962 168.242 286.962 186.13 298.544C207.296 312.186 222.116 304.776 224.282 285.434C225.376 275.382 229.022 228.284 229.222 225.584C234.794 231.488 252.252 245.452 260.534 247.472C259.99 253.184 254.446 301.218 254.074 304.32C264.274 312.878 283.226 315.14 291.77 311.198C293.866 298.798 298.828 254.25 299.522 239.264C299.864 231.8 299.688 226 292.058 218Z" fill="#B8FFD4"/>
<path d="M288.388 62.728C284.788 63.448 284.388 73.128 284.36 76.826C288.43 76.3454 292.558 76.8956 296.36 78.426C294.354 68.96 291.162 62.386 288.388 62.728Z" fill="#B8FFD4"/>
<path d="M298.382 94.686C295.076 97.0832 291.228 98.6238 287.182 99.17C288.08 102.674 290.854 112.086 294.44 111.862C297.2 111.52 298.686 104.376 298.382 94.686Z" fill="#B8FFD4"/>
<path d="M270.224 81.842L249.21 84.426C247.234 87.922 247.81 95.066 250.084 98.866C251.684 97.688 255.284 97.346 258.216 97.042C260.648 96.814 261.142 97.574 261.522 98.942C261.598 99.208 261.636 99.474 261.712 99.778C263.496 98.714 267.194 97.464 268.552 98.144L272.152 97.688C269 94.572 267.944 85.832 270.224 81.842Z" fill="#B8FFD4"/>
<path d="M155.236 334.2L143.874 326.22C142.598 325.328 141.729 323.966 141.458 322.434C141.186 320.9 141.535 319.322 142.427 318.046C143.319 316.772 144.681 315.902 146.214 315.63C147.747 315.36 149.324 315.708 150.6 316.6L152.348 317.816L153.564 316.068C154.456 314.794 155.818 313.924 157.35 313.654C158.882 313.384 160.459 313.732 161.734 314.624C163.009 315.516 163.877 316.878 164.148 318.41C164.419 319.942 164.07 321.52 163.178 322.794L155.236 334.2Z" fill="#B8FFD4"/>
<path d="M111.992 112.014C117.029 112.014 121.112 107.931 121.112 102.894C121.112 97.8572 117.029 93.774 111.992 93.774C106.955 93.774 102.872 97.8572 102.872 102.894C102.872 107.931 106.955 112.014 111.992 112.014Z" fill="#E9E9E9"/>
<path d="M279.838 313.034C272.094 312.844 264.52 310.728 257.798 306.878C255.784 313.078 251.984 317.176 250.616 320.254C256.544 332.718 280.066 353.654 293.67 361.854C292.848 339.636 279.064 329.3 279.838 313.034Z" fill="#E9E9E9"/>
<path d="M130.764 216.97C132.702 218.262 134.906 220.808 137.984 223.278C134.049 225.978 130.686 229.428 128.091 233.432C125.495 237.438 123.717 241.916 122.86 246.61C111.726 248.092 99.68 254.742 82.46 252.348C88.28 241.822 117.502 220.656 130.764 216.97Z" fill="#E9E9E9"/>
<path d="M180.924 244.9C181.912 248.244 183.09 251.778 184.458 255.464C178.258 248.586 171.766 241.746 166.522 236.502C172.564 240.074 177.884 243.2 180.924 244.9Z" fill="#E9E9E9"/>
<path d="M229.184 225.6C228.842 229.742 228.5 234.378 228.12 239.2C230.666 239.846 248.678 244.558 257.418 246.762C247.15 240.928 237.664 233.818 229.184 225.6Z" fill="#E9E9E9"/>
<path d="M228.462 164.53C230.248 170.002 232.342 175.368 234.732 180.604C232.87 179.578 230.97 178.552 228.994 177.488C228.918 172.624 228.728 168.33 228.462 164.53Z" fill="#E9E9E9"/>
<path d="M140.568 196.488C138.968 199.262 138.63 201.808 139.768 203.288C140.946 204.77 143.074 205.34 147.406 204.01C144.706 201.92 142.392 199.374 140.568 196.488Z" fill="#E9E9E9"/>
<path d="M167.7 186.038C168.128 186.769 168.276 187.632 168.115 188.464C167.954 189.296 167.496 190.041 166.826 190.56C164.356 188.128 162.076 185.848 160.138 183.76C164.512 183.186 166.374 184.434 167.7 186.038Z" fill="#E9E9E9"/>
<path d="M178.454 152.864C176.679 156.598 174.713 160.238 172.564 163.77C169.6 160.77 166.978 158.26 165.192 156.77C170.474 155.182 175.6 153.662 178.454 152.864Z" fill="#E9E9E9"/>
<path d="M240.622 131.014C236.936 131.774 234.238 133.332 234.352 134.776C234.352 136.898 240.928 137.522 241.192 137.55C241.078 136.182 240.85 133.75 240.622 131.014Z" fill="#E9E9E9"/>
<path d="M269.502 132.572C269.428 133.864 266.842 135.346 262.586 136.41C262.434 135.08 261.902 132.382 261.37 129.684C267.184 130.102 269.58 131.242 269.502 132.572Z" fill="#E9E9E9"/>
<path d="M269.122 116.612C267.644 117.551 265.988 118.172 264.258 118.436C261.37 118.892 259.394 116.46 263.612 113.99C260.534 114.59 258.064 112.052 262.548 109.202C262.186 109.198 261.826 109.133 261.484 109.012C260.572 109.962 258.824 109.24 257.152 102.742C257.86 105.455 257.886 108.301 257.228 111.026C257.384 115.097 258.504 119.073 260.496 122.626C260.574 122.804 260.676 122.97 260.8 123.12C264.104 122.357 267.278 121.115 270.224 119.434C269.768 118.53 269.398 117.585 269.122 116.612Z" fill="#E9E9E9"/>
<path d="M234.2 79.106C240.66 76.75 237.81 68.96 233.212 67.364C237.848 65.046 236.442 57.028 230.628 57.332C233.896 52.962 231.274 46.844 224.548 47.794C225.422 42.246 221.622 38.594 215.618 41.144C215.77 34.912 208.218 32.214 204.864 36.394C203.464 30.238 196.618 27.994 191.45 33.994C190.05 27.724 180.088 27.534 179.176 33.842C174.958 28.442 165.686 31.524 166.332 37.68C160.594 31.79 152.804 38.25 153.332 44.68C147.366 41.336 141.856 49.582 144.332 54.94C136.77 56.042 135.132 63.34 140 67.74C132.894 70.248 133.92 77.164 138.556 80.356C133.122 84.08 134.452 91.49 140.912 92.478C136.276 97.678 141.216 106.158 147.562 104.942C144.028 110.832 148.854 117.33 155.162 114.742C154.622 116.248 154.652 117.899 155.247 119.384C155.842 120.868 156.96 122.084 158.39 122.8C162.912 121.166 173.666 117.1 173.666 117.1C186.054 112.274 189.018 102.888 191.412 93.122C184.534 90.922 187.536 84.04 190.994 86.7C194.3 89.246 193.236 85.826 192.894 82.178C197.311 80.8846 201.864 80.1068 206.46 79.86C212.088 96.806 211.13 105.084 204.282 104.774C200.99 104.304 197.835 103.146 195.022 101.374C195.967 103.745 197.36 105.912 199.126 107.756C199.126 111.702 201.914 116.702 207.828 119.994L209.956 121.172C210.982 121.742 212.122 122.388 213.3 123.11C214.674 122.756 215.862 121.89 216.618 120.689C217.374 119.487 217.642 118.042 217.366 116.65C218.556 117.431 219.96 117.819 221.38 117.759C222.802 117.7 224.168 117.197 225.29 116.32C226.41 115.443 227.226 114.237 227.624 112.872C228.024 111.506 227.984 110.05 227.512 108.708C234.124 108.632 234.998 101.336 231.464 97.84C237.05 96.51 236.822 90.962 232.718 88.72C237.886 87.086 238.152 81.348 234.2 79.106Z" fill="#E9E9E9"/>
<path d="M256.126 286.548L222.724 292.438" stroke="black" stroke-width="1.5" stroke-linecap="round" stroke-linejoin="round"/>
<path d="M292.454 111.102L321.372 275.034L295.798 279.556" stroke="black" stroke-width="1.5" stroke-linecap="round" stroke-linejoin="round"/>
<path d="M230.248 100.196L242.408 98.03" stroke="black" stroke-width="1.5" stroke-linecap="round" stroke-linejoin="round"/>
<path d="M110.928 149.216L106.14 122.084L148.947 114.525" stroke="black" stroke-width="1.5" stroke-linecap="round" stroke-linejoin="round"/>
<path d="M123.392 219.934L115.564 175.474" stroke="black" stroke-width="1.5" stroke-linecap="round" stroke-linejoin="round"/>
<path d="M186.586 298.822L138.782 307.258L130.308 259.302" stroke="black" stroke-width="1.5" stroke-linecap="round" stroke-linejoin="round"/>
<path d="M137.31 61.896L103.898 67.782C100.502 68.3772 97.2558 69.636 94.3462 71.486C91.4364 73.3362 88.9198 75.7416 86.94 78.5648C84.9604 81.388 83.5562 84.5736 82.8082 87.9396C82.06 91.3056 81.9826 94.786 82.58 98.182V98.22L106.03 230.67M357.586 370.8L302.676 59.4C302.08 56.005 300.822 52.7608 298.97 49.8532C297.12 46.9454 294.714 44.4312 291.89 42.4546C289.066 40.478 285.88 39.0778 282.514 38.334C279.15 37.5902 275.67 37.5174 272.276 38.12L224.796 46.4842L357.586 370.8ZM130.84 370.8L109.437 249.912L130.84 370.8Z" stroke="black" stroke-width="1.5" stroke-linecap="round" stroke-linejoin="round"/>
<path d="M351.506 136.562C356.836 136.562 361.158 132.241 361.158 126.91C361.158 121.579 356.836 117.258 351.506 117.258C346.176 117.258 341.854 121.579 341.854 126.91C341.854 132.241 346.176 136.562 351.506 136.562Z" stroke="black" stroke-width="1.5" stroke-linecap="round" stroke-linejoin="round"/>
<path d="M380.348 156.398C385.678 156.398 390 152.077 390 146.746C390 141.415 385.678 137.094 380.348 137.094C375.018 137.094 370.696 141.415 370.696 146.746C370.696 152.077 375.018 156.398 380.348 156.398Z" stroke="black" stroke-width="1.5" stroke-linecap="round" stroke-linejoin="round"/>
<path d="M347.934 162.288L383.844 110.988" stroke="black" stroke-width="1.5" stroke-linecap="round" stroke-linejoin="round"/>
<path d="M384.6 56.914C383.64 56.2244 382.448 55.9414 381.28 56.1264C380.114 56.3114 379.068 56.9494 378.368 57.902L377.418 59.194C377.418 59.194 376.018 58.206 375.974 58.168C374.992 57.5304 373.798 57.3048 372.65 57.5398C371.502 57.7746 370.492 58.4512 369.84 59.4238C369.186 60.3962 368.94 61.5864 369.158 62.7378C369.374 63.889 370.034 64.9092 370.996 65.578L379.622 71.62L385.664 62.994C386.308 62.0396 386.556 60.8732 386.358 59.7396C386.16 58.6058 385.53 57.5932 384.6 56.914Z" stroke="black" stroke-width="1.5" stroke-linecap="round" stroke-linejoin="round"/>
<path d="M194.642 322.648C195.476 320.912 195.741 318.958 195.402 317.062C195.223 314.868 194.384 312.78 192.997 311.072C191.609 309.364 189.736 308.114 187.626 307.49C185.515 306.866 183.265 306.894 181.171 307.572C179.077 308.25 177.237 309.544 175.893 311.288C174.548 313.03 173.763 315.14 173.639 317.338C173.516 319.534 174.06 321.718 175.2 323.6C176.341 325.484 178.024 326.978 180.029 327.886C182.034 328.794 184.267 329.074 186.434 328.69C188.638 328.302 190.683 327.286 192.324 325.764L197.112 326.79L194.642 322.648Z" stroke="black" stroke-width="1.5" stroke-linecap="round" stroke-linejoin="round"/>
<path d="M307.464 309.234L315.748 299.582L326.806 305.814L323.348 286.282L304.006 289.702L307.464 309.234Z" stroke="black" stroke-width="1.5" stroke-linecap="round" stroke-linejoin="round"/>
<path d="M126.28 100.386L139.062 98.1326" stroke="black" stroke-width="1.5" stroke-linecap="round" stroke-linejoin="round"/>
<path d="M42.452 240.53C45.0754 240.53 47.202 238.404 47.202 235.78C47.202 233.156 45.0754 231.03 42.452 231.03C39.8286 231.03 37.702 233.156 37.702 235.78C37.702 238.404 39.8286 240.53 42.452 240.53Z" stroke="black" stroke-width="1.5" stroke-linecap="round" stroke-linejoin="round"/>
<path d="M70.8 235.514C73.4234 235.514 75.55 233.388 75.55 230.764C75.55 228.14 73.4234 226.014 70.8 226.014C68.1766 226.014 66.05 228.14 66.05 230.764C66.05 233.388 68.1766 235.514 70.8 235.514Z" stroke="black" stroke-width="1.5" stroke-linecap="round" stroke-linejoin="round"/>
<path d="M47.088 234.944L66.126 231.6" stroke="black" stroke-width="1.5" stroke-linecap="round" stroke-linejoin="round"/>
<path d="M10 192.46L20.336 190.636L40.362 231.524" stroke="black" stroke-width="1.5" stroke-linecap="round" stroke-linejoin="round"/>
<path d="M36.98 224.646L72.548 214.5L76.538 195.234L26.872 204.012" stroke="black" stroke-width="1.5" stroke-linecap="round" stroke-linejoin="round"/>
<path d="M44.276 111.634L48.38 134.928" stroke="black" stroke-width="1.5" stroke-linecap="round" stroke-linejoin="round"/>
<path d="M57.994 121.248L34.7 125.352" stroke="black" stroke-width="1.5" stroke-linecap="round" stroke-linejoin="round"/>
<path d="M365.452 200.706L372.634 241.594" stroke="black" stroke-width="1.5" stroke-linecap="round" stroke-linejoin="round"/>
<path d="M389.506 217.578L348.58 224.76" stroke="black" stroke-width="1.5" stroke-linecap="round" stroke-linejoin="round"/>
<path d="M262.586 136.372C262.282 133.56 260.154 124.63 260.496 122.572" stroke="black" stroke-width="1.5" stroke-linecap="round" stroke-linejoin="round"/>
<path d="M257.266 111.368C257.596 115.489 258.8 119.492 260.8 123.11C264.11 122.364 267.286 121.121 270.224 119.424C269.762 118.54 269.394 117.61 269.122 116.65" stroke="black" stroke-width="1.5" stroke-linecap="round" stroke-linejoin="round"/>
<path d="M298.42 94.686C298.724 104.376 297.204 111.528 294.468 111.862C290.974 112.29 286.792 101.64 285.12 88.074C283.448 74.508 284.93 63.152 288.426 62.728C291.2 62.39 294.392 68.96 296.406 78.422" stroke="black" stroke-width="1.5" stroke-linecap="round" stroke-linejoin="round"/>
<path d="M272.162 97.688C269.008 94.572 267.944 85.832 270.224 81.842" stroke="black" stroke-width="1.5" stroke-linecap="round" stroke-linejoin="round"/>
<path d="M250.084 98.866C247.804 95.066 247.234 87.922 249.21 84.426" stroke="black" stroke-width="1.5" stroke-linecap="round" stroke-linejoin="round"/>
<path d="M284.4 76.826C294.014 75.876 302.298 79.826 303.02 85.908C303.742 91.99 296.712 97.802 287.136 99.17" stroke="black" stroke-width="1.5" stroke-linecap="round" stroke-linejoin="round"/>
<path d="M268.552 98.144L272.162 97.688L292.796 111.33" stroke="black" stroke-width="1.5" stroke-linecap="round" stroke-linejoin="round"/>
<path d="M286.944 63.64L270.224 81.84L247.538 84.614C237.582 85.83 238.418 100.802 248.488 100.536" stroke="black" stroke-width="1.5" stroke-linecap="round" stroke-linejoin="round"/>
<path d="M240.622 131.014C236.898 131.774 234.238 133.332 234.352 134.738C234.504 136.6 239.292 138.26 252.44 137.702C262.472 137.276 269.4 134.702 269.502 132.534C269.562 131.24 267.146 130.064 261.37 129.646" stroke="black" stroke-width="1.5" stroke-linecap="round" stroke-linejoin="round"/>
<path d="M166.826 190.6C167.498 190.082 167.957 189.337 168.118 188.504C168.279 187.672 168.13 186.809 167.7 186.078C165.95 183.328 159.79 182.038 150.334 187.408C141.588 192.374 137.322 200.196 139.77 203.33C140.92 204.804 143.076 205.382 147.408 204.052" stroke="black" stroke-width="1.5" stroke-linecap="round" stroke-linejoin="round"/>
<path d="M160.1 183.758C164.546 188.546 170.674 194.274 177.238 200.592C178.292 201.69 179.082 203.014 179.549 204.462C180.017 205.91 180.149 207.446 179.936 208.952C179.708 212.296 177.58 231.6 177.238 234.336C176.782 237.754 172.838 239.578 173.096 214.652" stroke="black" stroke-width="1.5" stroke-linecap="round" stroke-linejoin="round"/>
<path d="M140.568 196.45C142.491 199.632 145.065 202.37 148.121 204.488C151.177 206.604 154.646 208.052 158.3 208.734" stroke="black" stroke-width="1.5" stroke-linecap="round" stroke-linejoin="round"/>
<path d="M159 206.938C158.772 207.66 157.556 210.51 157.4 210.938" stroke="black" stroke-width="1.5" stroke-linecap="round" stroke-linejoin="round"/>
<path d="M152.538 207.014C152.272 210.092 152.918 213.928 155.844 215.868C159.454 218.268 161.012 217.122 164.736 209.142" stroke="black" stroke-width="1.5" stroke-linecap="round" stroke-linejoin="round"/>
<path d="M160.29 216.362C164.546 218.87 166.446 218.034 170.056 209.598" stroke="black" stroke-width="1.5" stroke-linecap="round" stroke-linejoin="round"/>
<path d="M165.61 216.97C169.486 219.17 171.766 218.718 175.376 209.864" stroke="black" stroke-width="1.5" stroke-linecap="round" stroke-linejoin="round"/>
<path d="M163.6 203.822C167.687 203.774 171.773 203.974 175.836 204.422" stroke="black" stroke-width="1.5" stroke-linecap="round" stroke-linejoin="round"/>
<path d="M141.556 155.942C147.712 162.4 164.242 181.934 167.7 186" stroke="black" stroke-width="1.5" stroke-linecap="round" stroke-linejoin="round"/>
<path d="M147.37 162.4C151.436 160.956 171.5 154.8 178.454 152.862C176.668 156.586 174.692 160.234 172.564 163.768" stroke="black" stroke-width="1.5" stroke-linecap="round" stroke-linejoin="round"/>
<path d="M177.656 230.954C179.418 240.526 182.142 249.896 185.788 258.922" stroke="black" stroke-width="1.5" stroke-linecap="round" stroke-linejoin="round"/>
<path d="M165.2 156.816C170.672 161.338 183.744 175.36 191.724 184.67C185.723 189.257 181.225 195.527 178.804 202.682" stroke="black" stroke-width="1.5" stroke-linecap="round" stroke-linejoin="round"/>
<path d="M130.84 193.638C130.08 185.658 145.47 171.598 157.972 174.638" stroke="black" stroke-width="1.5" stroke-linecap="round" stroke-linejoin="round"/>
<path d="M241.23 137.55C241.078 135.042 240.356 129.038 240.242 123.984C240.052 115.548 240.656 113.456 242.826 109.384C244.794 105.658 247.192 102.177 249.97 99.01C251.47 97.7 255.252 97.348 258.292 97.072C260.724 96.852 261.196 97.598 261.598 98.972C262.196 101.652 262.44 104.399 262.32 107.142C262.24 109.46 259.66 112.196 257.266 102.742C258.482 108.404 257.912 113.342 253.428 116.342" stroke="black" stroke-width="1.5" stroke-linecap="round" stroke-linejoin="round"/>
<path d="M269.084 106.922C271.098 107.644 271.118 110.408 269.008 111.824C267.374 112.905 265.536 113.642 263.608 113.99C260.524 114.566 258.06 112.052 262.544 109.202" stroke="black" stroke-width="1.5" stroke-linecap="round" stroke-linejoin="round"/>
<path d="M269 111.824C269.446 112.04 269.822 112.375 270.09 112.791C270.356 113.207 270.504 113.689 270.516 114.183C270.528 114.678 270.404 115.166 270.156 115.594C269.908 116.023 269.548 116.375 269.114 116.612C267.638 117.553 265.982 118.174 264.25 118.436C261.36 118.884 259.386 116.46 263.604 113.99" stroke="black" stroke-width="1.5" stroke-linecap="round" stroke-linejoin="round"/>
<path d="M261.864 99.74C263.584 98.7154 265.526 98.1186 267.526 98C270.336 97.834 270.566 101.6 267.868 102.674C266.112 103.467 264.238 103.968 262.32 104.156" stroke="black" stroke-width="1.5" stroke-linecap="round" stroke-linejoin="round"/>
<path d="M268.742 102.134C270.756 102.97 270.756 105.858 268.552 107.302C267.45 108.024 263.992 109.702 261.636 109.012" stroke="black" stroke-width="1.5" stroke-linecap="round" stroke-linejoin="round"/>
<path d="M215.352 130.444C221.66 136.334 228.462 141.502 229.032 177.488C298.724 215.146 300.282 223.392 299.56 239.276C298.876 254.324 293.784 299.848 291.76 311.172C283.248 315.124 264.324 312.844 254.064 304.294C255.356 292.894 260.144 251.74 260.524 247.494C254.102 245.936 231.036 239.894 228.148 239.172" stroke="black" stroke-width="1.5" stroke-linecap="round" stroke-linejoin="round"/>
<path d="M255.632 291.146C262.472 298.708 282.46 302.66 293.632 298.214" stroke="black" stroke-width="1.5" stroke-linecap="round" stroke-linejoin="round"/>
<path d="M230.362 211.232C229.45 221.832 225.714 272.41 224.244 285.446C222.062 304.786 207.244 312.226 186.092 298.556C168.256 287.026 126.66 256.756 122.366 253.374C122.265 246.848 123.959 240.42 127.263 234.79C130.567 229.162 135.353 224.548 141.1 221.454C152.766 228.218 173.552 240.796 180.924 244.854" stroke="black" stroke-width="1.5" stroke-linecap="round" stroke-linejoin="round"/>
<path d="M131.904 260.442C131.79 248.966 140.15 232.284 152.234 228.066" stroke="black" stroke-width="1.5" stroke-linecap="round" stroke-linejoin="round"/>
<path d="M191.716 184.67C203.952 188.546 223.864 186.152 229.032 177.526" stroke="black" stroke-width="1.5" stroke-linecap="round" stroke-linejoin="round"/>
<path d="M197.074 185.886C182.938 207.052 187.422 240.15 194.528 275.3C172.412 261.2 144.216 244.216 138.4 240.112" stroke="black" stroke-width="1.5" stroke-linecap="round" stroke-linejoin="round"/>
<path d="M257.8 306.916C255.824 313.116 251.986 317.214 250.618 320.292C256.546 332.718 280.106 353.656 293.672 361.864C292.798 339.264 278.548 327.892 279.84 313.11" stroke="black" stroke-width="1.5" stroke-linecap="round" stroke-linejoin="round"/>
<path d="M137.984 223.278C134.906 220.846 132.702 218.3 130.764 216.97C117.502 220.656 88.28 241.822 82.466 252.31C99.68 254.71 111.764 248.092 122.866 246.572" stroke="black" stroke-width="1.5" stroke-linecap="round" stroke-linejoin="round"/>
<path d="M269.502 132.572C269.996 189.154 268.97 194.972 264.6 197.742" stroke="black" stroke-width="1.5" stroke-linecap="round" stroke-linejoin="round"/>
<path d="M234.352 134.776C235.91 143.592 239.596 167.684 240.888 173.688" stroke="black" stroke-width="1.5" stroke-linecap="round" stroke-linejoin="round"/>
<path d="M236.708 148.95C245.708 152.674 264.752 151.99 269.616 145.75" stroke="black" stroke-width="1.5" stroke-linecap="round" stroke-linejoin="round"/>
<path d="M229.222 225.6C237.694 233.828 247.182 240.94 257.456 246.766" stroke="black" stroke-width="1.5" stroke-linecap="round" stroke-linejoin="round"/>
<path d="M166.522 236.502C171.722 241.746 178.264 248.548 184.458 255.464" stroke="black" stroke-width="1.5" stroke-linecap="round" stroke-linejoin="round"/>
<path d="M228.462 164.492C230.242 169.966 232.334 175.333 234.732 180.566" stroke="black" stroke-width="1.5" stroke-linecap="round" stroke-linejoin="round"/>
<path d="M199.09 103.4C197.707 102.796 196.361 102.109 195.06 101.344C196.018 103.702 197.403 105.862 199.146 107.716" stroke="black" stroke-width="1.5" stroke-linecap="round" stroke-linejoin="round"/>
<path d="M139.566 203.036C126.086 188.862 119.438 180.25 112.79 172.016C102.15 158.83 108.494 147.996 122.29 139.07C136.69 129.756 157.09 123.592 173.704 117.106C186.088 112.27 189.018 102.894 191.488 93.128C184.61 90.928 187.604 84.058 191.07 86.706C194.368 89.224 193.27 85.794 192.97 82.184C197.392 80.9122 201.942 80.1348 206.536 79.866C213.354 100.49 210.472 108.294 199.09 103.392C198.356 112.992 203.072 117.33 207.866 119.992C214.82 123.868 226.486 130.176 235.948 144.312" stroke="black" stroke-width="1.5" stroke-linecap="round" stroke-linejoin="round"/>
<path d="M171.576 117.942C183.09 121.742 198.776 131.66 206.992 138.196C208.814 132.697 209.824 126.962 209.992 121.172" stroke="black" stroke-width="1.5" stroke-linecap="round" stroke-linejoin="round"/>
<path d="M158.428 122.8C157.002 122.081 155.888 120.867 155.294 119.385C154.7 117.903 154.666 116.255 155.2 114.75C148.892 117.334 144.066 110.874 147.6 104.95C141.254 106.166 136.314 97.692 140.95 92.524C134.49 91.498 133.15 84.088 138.594 80.364C133.958 77.164 132.932 70.256 140.038 67.748C135.174 63.348 136.808 56.044 144.37 54.948C141.9 49.59 147.41 41.348 153.37 44.688C152.838 38.304 160.628 31.806 166.37 37.688C165.724 31.532 174.996 28.454 179.214 33.85C180.126 27.542 190.082 27.732 191.488 34.002C196.656 28.002 203.488 30.24 204.902 36.402C208.246 32.222 215.808 34.92 215.656 41.152C221.656 38.606 225.456 42.254 224.586 47.802C231.312 46.852 233.934 52.97 230.666 57.34C236.518 57.036 237.886 65.054 233.25 67.372C237.85 68.972 240.698 76.758 234.238 79.114C235.174 79.6214 235.93 80.4058 236.404 81.3596C236.878 82.3136 237.044 83.3904 236.882 84.4428C236.72 85.4952 236.236 86.4718 235.498 87.2388C234.76 88.006 233.802 88.526 232.756 88.728C236.86 90.97 237.088 96.528 231.464 97.848C234.998 101.344 234.124 108.648 227.512 108.716C227.984 110.058 228.024 111.514 227.626 112.88C227.226 114.245 226.41 115.451 225.29 116.328C224.168 117.205 222.802 117.708 221.38 117.767C219.96 117.827 218.556 117.439 217.366 116.658C217.642 118.05 217.374 119.495 216.618 120.697C215.862 121.898 214.674 122.764 213.3 123.118" stroke="black" stroke-width="1.5" stroke-linecap="round" stroke-linejoin="round"/>
<path d="M155.236 334.2L143.874 326.22C142.598 325.328 141.729 323.966 141.458 322.434C141.186 320.9 141.535 319.322 142.427 318.046C143.319 316.772 144.681 315.902 146.214 315.63C147.747 315.36 149.324 315.708 150.6 316.6L152.348 317.816L153.564 316.068C154.456 314.794 155.818 313.924 157.35 313.654C158.882 313.384 160.459 313.732 161.734 314.624C163.009 315.516 163.877 316.878 164.148 318.41C164.419 319.942 164.07 321.52 163.178 322.794L155.236 334.2Z" stroke="black" stroke-width="1.5" stroke-linejoin="round"/>
</svg>
