<svg width="400" height="400" viewBox="0 0 400 400" fill="none" xmlns="http://www.w3.org/2000/svg">
<path d="M293.08 296V321.4H304C303.72 312.066 303.446 302.694 303.18 293.28L293.08 296Z" fill="#6CECC4"/>
<path d="M358 167.18C356.16 166.78 353.32 165.84 351.48 166.54C349.64 167.24 348.26 169.9 347.34 171.58C337.52 189.26 326.74 242.78 323.14 262.68C326.674 264.022 329.838 266.182 332.38 268.98C336.9 256.34 367.02 173.84 367.82 172.1C365.72 169.36 361.32 168 358 167.18Z" fill="#6CECC4"/>
<path d="M240.74 279.7L251.04 279.58C250.82 277.58 250.64 275.58 250.44 273.58C246.644 274.548 243.248 276.69 240.74 279.7Z" fill="#6CECC4"/>
<path d="M332.5 275.34C328.82 267.52 319.26 264.42 310.76 263.08C301.08 274.92 284.76 272.06 270.98 271.7V279.34L333.5 278.58C333.31 277.46 332.974 276.372 332.5 275.34Z" fill="#6CECC4"/>
<path d="M271.02 247.32C271.02 253.32 271.02 268.3 271.02 268.3C275.62 268.3 280.22 268.5 284.8 268.72C302.34 269.58 313.86 263.5 314.56 245.74L271.02 247.32Z" fill="#FF3E74"/>
<path d="M248.84 248.5L245.2 249.46C237.48 251.6 228.46 253.7 222.5 259.46C213.02 268.56 212.26 283.8 212.88 296.08C213.624 307.638 215.636 319.08 218.88 330.2C219.5 332.44 219.68 335.2 221.72 336.4C224.198 337.942 227.162 338.508 230.034 337.986C232.906 337.466 235.482 335.894 237.26 333.58C230.16 310.5 227.48 277.98 250.24 270.66C249.88 267.08 249.06 259.2 248.84 248.5Z" fill="#FF3E74"/>
<path d="M321.24 235.24C316.74 210.9 306.14 177.66 281.58 167.1C284.34 186.08 285.58 215.42 285.78 235.1C285.778 235.61 285.624 236.108 285.334 236.53C285.046 236.95 284.636 237.274 284.16 237.46C279.842 238.598 275.452 239.446 271.02 240V244L322.38 242.14C322 239.84 321.66 237.54 321.24 235.24Z" fill="white"/>
<path d="M282.44 210.2C282.05 195.4 280.748 180.639 278.54 166C277.62 160 276.8 152.7 273.16 148.16C268.92 142.86 261.72 141.84 255.16 143.08C255.63 148.168 255.34 153.298 254.3 158.3C255.878 158.608 257.298 159.459 258.312 160.705C259.328 161.951 259.876 163.513 259.86 165.12C260.2 171.12 254.06 178.32 247.7 178.76C248.062 185.111 246.678 191.44 243.7 197.06V209.9C253.66 211.26 271.7 212.74 282.44 210.2Z" fill="white"/>
<path d="M283.12 234.58C283.12 230.42 282.66 216.22 282.56 213.28C271.8 216.04 254.56 214.8 243.66 213.28C243.66 215.02 243.66 234.72 243.66 234.76C244.6 234.12 251.66 238.24 268.42 236.92C273.374 236.532 278.29 235.75 283.12 234.58Z" fill="white"/>
<path d="M271.62 300.74C273.48 301.28 279.14 302.9 278.42 301.1C276.124 299.536 273.646 298.26 271.04 297.3C268.36 296.04 268.34 294.76 268.34 291.94C268.34 289.12 268.34 240.6 268.34 240.26C262.688 240.842 256.986 240.736 251.36 239.94C251.464 255.61 252.526 271.26 254.54 286.8C255.38 294.42 256.54 302.48 261.72 308.48C264.272 311.496 267.82 313.496 271.72 314.12C272.12 314.12 274.52 314.62 274.88 314.32C275.24 314.02 274.5 313.92 274 313.66C272 312.66 270.14 311.66 268.2 310.74C266.96 310.12 268.54 307.2 269.74 307.5C272.064 308.114 274.456 308.444 276.86 308.48C276.14 308.02 274.52 307.14 274 306.78L270 304C269 303.2 270.36 300.36 271.62 300.74Z" fill="#FFDE26"/>
<path d="M257.2 166.5C257.152 165.358 256.738 164.262 256.016 163.376C255.296 162.489 254.308 161.859 253.2 161.58C247.58 160.5 244.28 168.66 242.84 168.24C241.594 168.412 240.326 168.288 239.138 167.878C237.95 167.467 236.874 166.783 236 165.88C234.584 164.144 233.762 161.998 233.66 159.76C233.42 157.12 234.32 154.52 233.52 151.98C232.44 148.46 230.58 146.24 230.72 142.44C230.994 140.694 230.906 138.91 230.46 137.2C229.522 135.482 227.994 134.161 226.16 133.48C224.254 132.478 222.114 132.006 219.964 132.116C217.814 132.225 215.734 132.91 213.94 134.1C210.4 136.48 207.72 140.3 204.6 143.22C201.08 146.54 195.44 151.8 190.08 150.62C185.26 171.02 185.18 199.58 205.44 203.92C215.26 206.02 226.86 206.7 235.94 201.74C238.084 200.692 239.866 199.027 241.06 196.96C244.462 191.13 245.808 184.326 244.88 177.64C244.88 176.78 245.78 175.06 246.88 175.24C251.5 176.1 257.56 171.34 257.2 166.5ZM216.62 143.64C217.814 145.828 219.594 147.64 221.758 148.876C223.924 150.112 226.388 150.723 228.88 150.64C230.42 150.64 229.04 153.9 227.64 153.96C224.944 154.036 222.28 153.37 219.936 152.033C217.594 150.696 215.666 148.74 214.36 146.38C213.68 145.14 215.88 142.28 216.62 143.64ZM199.76 172.96C198.46 176.74 196.1 181.12 192.26 180.1C188.42 179.08 189.12 174.28 190.38 170.46C189.703 168.81 189.201 167.094 188.88 165.34C188.32 163.832 188.264 162.183 188.72 160.64C190.84 156.64 200.72 154.2 205.18 154.16C206.72 154.16 205.38 157.4 203.98 157.48C203.8 159.387 203.518 161.283 203.14 163.16C204.52 161.38 206.06 159.72 207.38 158.2C208.96 156.36 209.94 158.68 208.72 160.2C206.652 162.449 204.774 164.864 203.1 167.42C200.78 171.2 204.12 173.28 207.4 174.36C208.72 174.78 207.02 178 205.58 177.52C204.352 177.193 203.204 176.62 202.202 175.836C201.202 175.052 200.372 174.074 199.76 172.96ZM224.26 193.8C217.96 179.14 204.52 181.8 203.74 193.2C203.74 194.56 200.98 196.76 201.12 194.66C202.18 179.06 219.12 173.72 226.78 191.62C227.32 192.88 225 195.54 224.26 193.8ZM229.16 180.26C224.6 181.22 221.4 178.26 219.16 174.62C216.326 169.345 214.714 163.501 214.44 157.52C213.238 157.384 212.03 157.317 210.82 157.32C209.26 157.32 210.66 153.96 212.08 153.98C217.52 153.98 225.64 155.26 229.66 159.28C230.82 160.46 230.2 162.2 229.9 163.76C229.9 164.06 229.76 164.38 229.7 164.7C233.46 170.9 236.2 178.82 229.16 180.26ZM252.52 166.26L246.72 170.26C246.04 170.74 245.42 170.26 245.38 169.5C245.392 169.05 245.516 168.611 245.74 168.22C245.962 167.829 246.278 167.5 246.66 167.26L252.46 163.26C253.1 162.82 253.76 163.26 253.8 164.04C253.774 164.476 253.644 164.9 253.422 165.275C253.2 165.651 252.89 165.968 252.52 166.2V166.26Z" fill="#FFDE26"/>
<path d="M144.86 82.6398C142.446 82.3996 140.008 82.6606 137.699 83.4062C135.39 84.152 133.26 85.3666 131.443 86.9738C129.625 88.581 128.159 90.5464 127.137 92.7464C126.114 94.9466 125.557 97.3342 125.5 99.7598C125.569 104.439 127.366 108.927 130.545 112.36C133.724 115.794 138.06 117.931 142.72 118.36C145.129 118.585 147.559 118.313 149.858 117.56C152.157 116.806 154.277 115.588 156.085 113.98C157.894 112.373 159.352 110.41 160.369 108.215C161.387 106.02 161.942 103.639 162 101.22C161.915 96.561 160.123 92.0954 156.963 88.6704C153.804 85.2456 149.497 83.0996 144.86 82.6398Z" fill="#FF3E74"/>
<path d="M229.8 164.7C229.346 167.079 228.494 169.364 227.28 171.46C226.8 172.495 226.036 173.372 225.076 173.989C224.116 174.605 223 174.935 221.86 174.94C219.58 174.66 218.26 172.44 217.34 170.36C216.524 168.428 215.906 166.418 215.5 164.36C216.228 167.919 217.496 171.345 219.26 174.52C221.4 178.14 224.6 181.12 229.26 180.16C236.2 178.8 233.46 170.9 229.8 164.7Z" fill="#FFDE26"/>
<path d="M190.38 170.46C189.12 174.28 188.38 179.06 192.26 180.1C196.7 181.28 199.2 175.28 200.4 170.84C197.28 175.84 192.96 176.28 190.38 170.46Z" fill="#FFDE26"/>
<path d="M145.1 101.52C144.9 98.3 144.68 95.06 144.48 91.84C144.34 89.7 141.76 91.84 141.86 93.3C142.06 96.52 142.26 99.76 142.48 102.98C142.62 105.12 145.2 102.92 145.1 101.52Z" fill="#0D128A"/>
<path d="M144.4 108.78C144.018 109.014 143.701 109.339 143.477 109.727C143.254 110.115 143.131 110.552 143.12 111C143.12 111.78 143.44 111.82 144.14 112.18C144.84 112.54 146.44 111 146.36 109.88C146.341 109.659 146.268 109.447 146.148 109.26C146.028 109.074 145.864 108.92 145.671 108.812C145.477 108.704 145.261 108.644 145.039 108.638C144.818 108.633 144.598 108.681 144.4 108.78Z" fill="#0D128A"/>
<path d="M211.5 73.5798C215.62 75.5798 221.08 75.5798 225.5 74.9198C228.666 74.4802 231.732 73.492 234.56 71.9998C235.504 73.2266 236.09 74.692 236.248 76.232C236.408 77.7722 236.134 79.3262 235.46 80.7198C233.306 84.7358 229.88 87.9226 225.72 89.7798C223.72 81.8798 211.3 77.4798 207.72 85.9598C205.3 91.7798 212.86 97.4198 223.3 93.7598C223.192 95.808 222.302 97.7366 220.814 99.1472C219.324 100.558 217.35 101.343 215.3 101.34C213.88 101.34 212.52 104.76 214.04 104.68C217.128 104.434 220.026 103.087 222.208 100.885C224.388 98.6826 225.704 95.7712 225.92 92.6798C232.76 89.2398 240.8 81.2798 238.68 73.2798C238.388 72.1892 237.958 71.1406 237.4 70.1598C244.66 64.7198 248.1 54.6798 243.98 46.7998C241.192 42.2586 237.178 38.5978 232.4 36.2398C230.2 34.8344 227.744 33.8792 225.172 33.4294C222.602 32.9798 219.966 33.0444 217.42 33.6198C209.78 35.8398 203.98 46.7598 211.76 52.4598C212.94 53.2998 214.82 50.1998 213.6 49.2998C212.434 48.446 211.564 47.2472 211.116 45.8728C210.668 44.4982 210.662 43.0176 211.1 41.6398C212.1 38.5598 215.52 36.9798 218.48 36.5198C224.6 35.5598 230.72 38.9998 235.44 42.5198C246.64 51.0198 244.54 62.2998 235.98 67.9998C233.59 65.1512 230.628 62.8368 227.286 61.207C223.944 59.5772 220.296 58.6686 216.58 58.5398C214.624 58.4738 212.694 59.0152 211.058 60.0894C209.422 61.1638 208.158 62.7184 207.44 64.5398C206.864 66.2816 206.962 68.1754 207.714 69.8484C208.466 71.5216 209.816 72.8528 211.5 73.5798ZM210.76 88.8798C208.96 86.6198 211.38 84.8798 213.58 84.8798C215.564 84.83 217.516 85.39 219.172 86.4844C220.828 87.5788 222.108 89.155 222.84 90.9998C218.9 91.9998 213.3 91.9998 210.76 88.8798ZM211.86 62.6998C216.7 60.1198 227.14 63.8798 232.8 69.8198C226.8 72.4198 214.8 73.6998 210.8 68.4398C210.458 68.0062 210.212 67.5044 210.078 66.968C209.946 66.4316 209.928 65.873 210.028 65.3296C210.13 64.7862 210.344 64.2704 210.66 63.8168C210.976 63.3634 211.386 62.9824 211.86 62.6998Z" fill="#0D128A"/>
<path d="M148.42 121.1C153.077 119.784 157.182 116.992 160.118 113.144C163.054 109.296 164.661 104.6 164.7 99.76C164.679 95.3828 163.272 91.1248 160.682 87.5964C158.091 84.068 154.45 81.4508 150.28 80.12C146.077 78.9132 141.605 79.034 137.473 80.466C133.342 81.898 129.754 84.5712 127.2 88.12C124.649 91.5496 123.164 95.6538 122.929 99.9214C122.695 104.189 123.721 108.431 125.88 112.12C128.192 115.821 131.625 118.688 135.679 120.303C139.733 121.918 144.196 122.197 148.42 121.1ZM144.86 82.64C149.497 83.0998 153.804 85.2456 156.963 88.6706C160.122 92.0956 161.915 96.561 162 101.22C161.943 103.646 161.385 106.035 160.363 108.236C159.341 110.437 157.875 112.403 156.058 114.012C154.241 115.621 152.111 116.837 149.802 117.585C147.494 118.334 145.055 118.597 142.64 118.36C137.98 117.931 133.644 115.794 130.465 112.36C127.286 108.927 125.489 104.439 125.42 99.76C125.476 97.327 126.035 94.9318 127.063 92.7258C128.09 90.5198 129.564 88.5504 131.39 86.942C133.216 85.3336 135.356 84.121 137.674 83.3804C139.993 82.64 142.439 82.388 144.86 82.64Z" fill="#0D128A"/>
<path d="M112.72 106.16C112.24 104.38 109.84 107 110.18 108.32L113.48 120.96C113.96 122.74 116.36 120.12 116.02 118.8L112.72 106.16Z" fill="#0D128A"/>
<path d="M163.68 123.6L154.18 132.58C152.18 134.44 153.58 136.36 154.9 135.12L164.4 126.14C164.94 125.62 165.62 124.6 165.3 123.8C164.98 123 164.22 123.1 163.68 123.6Z" fill="#0D128A"/>
<path d="M173 134L166.84 138C166.455 138.235 166.137 138.564 165.913 138.956C165.689 139.347 165.568 139.789 165.56 140.24C165.56 140.98 166.2 141.46 166.9 141.02C168.9 139.7 170.9 138.4 173.06 137.02C173.444 136.789 173.764 136.464 173.987 136.076C174.211 135.687 174.333 135.248 174.34 134.8C174.3 134 173.7 133.52 173 134Z" fill="#0D128A"/>
<path d="M101.04 102.62C100.26 100.9 97.94 103.54 98.5 104.8L101.52 111.44C102.3 113.16 104.62 110.52 104.06 109.26L101.04 102.62Z" fill="#0D128A"/>
<path d="M273.14 231.4C276.12 231 277.64 227.78 277.86 225.08C278.22 223.08 276.4 219.08 273.14 219.66C270.26 220.2 268.56 223.54 268.56 226.26C268.56 228.98 270.26 231.8 273.14 231.4ZM271.14 224.8C271.14 221.84 275.02 222.48 275.14 226.26C275.1 229.52 271.12 228.14 271.2 224.8H271.14Z" fill="#0D128A"/>
<path d="M201.12 194.66C200.98 196.66 203.66 194.66 203.74 193.2C204.52 181.8 217.98 179.2 224.26 193.8C225 195.54 227.32 192.88 226.78 191.62C219.12 173.78 202.2 179 201.12 194.66Z" fill="#0D128A"/>
<path d="M205.58 177.42C207.02 177.9 208.72 174.7 207.4 174.26C204.12 173.18 200.78 171.1 203.1 167.32C204.774 164.764 206.652 162.349 208.72 160.1C209.94 158.68 208.96 156.36 207.38 158.1C206.06 159.62 204.52 161.28 203.14 163.06C203.52 161.183 203.8 159.287 203.98 157.38C205.38 157.38 206.72 154.04 205.18 154.06C200.68 154.06 190.84 156.62 188.72 160.54C188.264 162.083 188.32 163.732 188.88 165.24C189.201 166.994 189.704 168.71 190.38 170.36C192.98 176.22 197.28 175.72 200.38 170.74C200.2 171.42 199.98 172.14 199.74 172.86C200.356 173.975 201.19 174.953 202.194 175.737C203.198 176.52 204.35 177.093 205.58 177.42ZM200 166.3C199.755 168.162 198.846 169.874 197.44 171.12C197.108 171.347 196.722 171.481 196.322 171.509C195.921 171.538 195.52 171.458 195.16 171.28C195.538 167.542 194.778 163.778 192.98 160.48C195.603 159.029 198.471 158.073 201.44 157.66C201.118 160.564 200.636 163.448 200 166.3Z" fill="#0D128A"/>
<path d="M389.32 356.94H343.42C344.414 356.114 345.218 355.084 345.78 353.92C348.92 345.92 342.16 341.52 336.94 344.98C334.618 340.76 331.942 336.746 328.94 332.98C326.156 329.798 322.756 327.216 318.942 325.39C315.128 323.564 310.984 322.532 306.76 322.36C306.48 312.12 306.194 301.88 305.9 291.64H313.32C313.888 291.562 314.408 291.274 314.778 290.834C315.148 290.394 315.34 289.834 315.32 289.26C315 286.9 314.7 284.52 314.38 282.16L334.38 281.92C335.34 281.92 336.16 280.82 336.38 279.92C336.616 276.826 335.774 273.746 334 271.2C338.22 259.62 369.2 174.78 370 172.62C370.3 172.122 370.458 171.551 370.458 170.97C370.458 170.389 370.3 169.818 370 169.32C367.3 165.32 360.8 163.98 356.42 163.32C353.14 162.86 351.2 163.06 348.88 165.52C343.86 170.82 341.38 178.9 339.08 185.64C333.484 203.65 328.812 221.934 325.08 240.42C323.968 232.08 322.196 223.84 319.78 215.78C313.46 194.12 302.16 170.84 281.06 163C280.18 157.18 279.22 149.92 275.52 145.3C270.6 139.16 262.26 138.26 254.8 139.94C253.992 135.63 252.362 131.515 250 127.82C239.72 111.58 241.36 120.2 224.44 114.38C207.52 108.56 192.4 109.46 189.36 118.72C186.32 127.98 194.84 137.1 182.68 141.36C171.12 145.36 166.86 167.36 184.48 174.82C184.506 180.68 185.541 186.491 187.54 192C190.34 199.4 195.9 205.46 203.78 207.2C214.16 209.48 226.36 210.02 235.96 204.76C237.868 203.724 239.586 202.372 241.04 200.76V236.64C241.04 236.9 241.16 237.38 241.44 237.48C243.844 238.392 246.318 239.1 248.84 239.6C248.84 241.6 248.84 243.44 248.84 245.36C242.564 246.962 236.408 249.008 230.42 251.48C205.84 261.72 208.76 295.9 212.76 317.14C214.12 324.28 215.12 327.68 216.76 334.68C208.76 334.22 197.72 332 189.04 335.32C183.04 337.66 179.3 344.38 177.92 350.66C176.78 350.66 175.92 352.04 175.92 353.06V357.92C175.92 358.3 176.12 358.86 176.6 358.86H244.6C245.6 358.86 246.6 357.2 246.6 356.46V351.72C247.32 346.18 248.02 339.06 245.46 333.98C244.36 331.8 241.94 330.08 239.66 331.22C237.72 324.632 236.322 317.896 235.48 311.08C234.36 301.86 234.14 291.38 238.54 283.08L251.4 282.92C251.792 289.248 252.796 295.526 254.4 301.66C256.92 309.66 262.7 316.82 271.48 317.66C274.18 317.92 278.44 317.66 278.58 314.08C278.606 313.664 278.538 313.246 278.382 312.858C278.226 312.472 277.986 312.124 277.68 311.84C278.182 311.692 278.646 311.436 279.04 311.09C279.434 310.744 279.748 310.318 279.96 309.84C280.84 308 279.96 306.8 278.64 305.54C279.23 305.486 279.81 305.344 280.36 305.12C281.17 304.782 281.84 304.178 282.258 303.406C282.678 302.634 282.818 301.744 282.66 300.88C282.04 298.44 278.76 296.88 276.66 295.84C275.036 295.332 273.468 294.662 271.98 293.84C270.22 292.46 270.92 288.96 270.94 287V282.76L283.12 282.6V290.78C283.12 291.16 283.32 291.7 283.8 291.7H290.54C290.456 291.89 290.408 292.092 290.4 292.3V322.62C284.536 323.086 278.898 325.094 274.06 328.44C268.4 332.54 265.16 338.08 262.22 344.14C260.49 343.76 258.684 343.996 257.11 344.806C255.536 345.618 254.294 346.952 253.6 348.58C251.98 351.82 252.34 356.46 255.9 358.28C259.46 360.1 263.5 357.66 265.34 354.42C265.416 354.294 265.476 354.16 265.52 354.02C266.256 352.592 266.518 350.966 266.266 349.38C266.014 347.794 265.262 346.33 264.12 345.2C266.62 339.96 269.28 335.2 274.12 331.52C279.506 327.616 286.03 325.598 292.68 325.78H297.88V342.54C291.76 345.64 289.5 355.58 294.82 358.34C298.82 360.34 302.98 356.66 304.82 353.38C307.52 348.66 306.18 341.58 300.52 341.82V325.82H304.52C308.662 325.818 312.758 326.682 316.548 328.356C320.336 330.028 323.732 332.476 326.52 335.54C329.518 339.352 332.258 343.362 334.72 347.54C333.668 348.93 333.098 350.626 333.098 352.37C333.098 354.114 333.668 355.81 334.72 357.2H316.4C314.98 357.2 313.58 360.54 315.14 360.54H388C389.48 360.28 390.88 356.94 389.32 356.94ZM263.32 353.36C260.5 357.96 253.02 353.88 255.72 349.1C256.31 348.154 257.25 347.476 258.334 347.214C259.418 346.954 260.562 347.128 261.52 347.7C262.474 348.248 263.192 349.128 263.538 350.172C263.886 351.216 263.836 352.35 263.4 353.36H263.32ZM347.32 171.58C348.24 169.9 349.56 167.28 351.46 166.54C353.36 165.8 356.14 166.78 357.98 167.18C361.34 167.9 365.7 169.36 367.8 172.1C367.7 172.3 335.04 261.46 332.36 268.98C329.82 266.182 326.654 264.024 323.12 262.68C326.72 242.84 337.48 189.28 347.32 171.58ZM324 245.24C322.88 250.76 321.8 256.28 320.82 261.82C318.268 260.98 315.652 260.344 313 259.92C315.478 255.548 316.904 250.658 317.16 245.64C324 245.4 323.5 245.48 324 245.24ZM296.3 246.74L296.5 246.4L314.5 245.74C313.8 263.5 302.28 269.58 284.74 268.72C280.16 268.5 275.56 268.3 270.96 268.3C270.96 268.3 270.96 253.42 270.96 247.32L275.26 247.16C275.27 247.3 275.31 247.438 275.38 247.56C280.32 256 291.4 254 296.26 246.74H296.3ZM279.44 247L293.66 246.5C292.808 247.55 291.742 248.406 290.532 249.008C289.32 249.612 287.996 249.948 286.644 249.996C285.292 250.044 283.946 249.8 282.696 249.284C281.448 248.766 280.324 247.988 279.4 247H279.44ZM321.28 235.24C321.7 237.54 322.1 239.86 322.42 242.16L271.06 244.02V240.02C275.492 239.466 279.882 238.618 284.2 237.48C284.676 237.294 285.086 236.97 285.374 236.55C285.664 236.128 285.818 235.63 285.82 235.12C285.66 215.12 284.36 185.96 281.62 167.12C306.14 177.66 316.74 210.9 321.24 235.24H321.28ZM255.12 143C261.72 141.78 268.92 142.78 273.12 148.08C276.04 151.72 277.12 157.14 277.9 162.08C280.514 178.016 282.018 194.115 282.4 210.26C271.66 212.8 253.54 211.3 243.62 209.88V196.98C246.598 191.359 247.982 185.031 247.62 178.68C253.98 178.24 260.12 171.1 259.78 165.04C259.796 163.433 259.248 161.871 258.232 160.625C257.218 159.379 255.798 158.528 254.22 158.22C255.274 153.219 255.578 148.09 255.12 143ZM241.8 195.64C240.586 198.28 238.514 200.43 235.92 201.74C226.84 206.7 215.24 206.02 205.42 203.92C185.08 199.56 185.28 170.84 190 150.62C195.36 151.8 201 146.62 204.52 143.22C207.64 140.3 210.32 136.48 213.86 134.1C215.654 132.91 217.736 132.225 219.886 132.115C222.036 132.006 224.174 132.478 226.08 133.48C227.914 134.161 229.442 135.482 230.38 137.2C230.826 138.91 230.914 140.694 230.64 142.44C230.5 146.24 232.36 148.44 233.44 151.98C234.24 154.52 233.44 157.12 233.58 159.76C233.706 162.007 234.554 164.154 236 165.88C236.882 166.795 237.972 167.486 239.174 167.897C240.378 168.307 241.662 168.425 242.92 168.24C243.7 168.46 244.42 167.06 245.54 165.72C247.54 163.28 250.34 160.86 253.54 161.72C254.596 162.036 255.526 162.675 256.2 163.547C256.874 164.418 257.258 165.479 257.3 166.58C257.66 171.42 251.6 176.18 246.92 175.32C245.86 175.14 244.92 176.86 244.92 177.72C245.704 183.871 244.616 190.116 241.8 195.64ZM244 355.42H178.52V354H244V355.42ZM239.22 334.62C239.78 334.04 240.34 333.88 241.42 334.52C244.52 336.32 244.42 341.74 244.46 344.84C244.46 346.84 244.46 348.66 244.26 350.56H180.36C181.42 345.24 184.36 339.66 189.76 338.06C200.78 334.84 217.76 338.8 218.36 338.42C222.36 343.32 230.22 343.02 235.16 339.08C236.286 338.146 237.292 337.078 238.16 335.9C238.528 335.496 238.87 335.07 239.18 334.62H239.22ZM238 279.74C228.6 293.86 232.26 317.28 237.26 333.52C235.482 335.834 232.906 337.406 230.034 337.926C227.162 338.448 224.198 337.882 221.72 336.34C219.72 335.14 219.5 332.34 218.88 330.14C215.636 319.02 213.624 307.578 212.88 296.02C212.26 283.76 213.02 268.5 222.5 259.4C228.5 253.7 237.48 251.6 245.2 249.4L248.84 248.44C249.04 258.64 249.86 266.66 250.16 270.54C246.648 271.528 243.456 273.418 240.9 276.02C239.82 277.168 238.85 278.414 238 279.74ZM240.82 279.74C243.334 276.73 246.726 274.584 250.52 273.6C250.72 275.6 250.9 277.6 251.12 279.6L240.82 279.74ZM271.12 297.34C273.726 298.3 276.204 299.576 278.5 301.14C279.24 302.98 273.62 301.34 271.7 300.78C270.44 300.4 269.08 303.24 270.16 304.02L274.04 306.82C274.56 307.18 276.18 308.06 276.9 308.52C274.496 308.482 272.106 308.152 269.78 307.54C268.58 307.24 267 310.16 268.24 310.78C270.24 311.76 272.12 312.78 274.04 313.7C274.54 313.96 275.3 314.04 274.92 314.36C274.54 314.68 272.16 314.22 271.76 314.16C267.86 313.536 264.312 311.534 261.76 308.52C256.58 302.52 255.42 294.52 254.58 286.84C252.57 271.306 251.514 255.664 251.42 240C257.046 240.806 262.748 240.914 268.4 240.32C268.4 240.66 268.4 288.92 268.4 292C268.4 295.08 268.36 296 271.04 297.3L271.12 297.34ZM251.46 236.4C246.78 235.62 244.24 234.4 243.72 234.84C243.72 234.64 243.72 213.16 243.72 213.36C254.66 214.84 271.86 216.08 282.62 213.36C282.72 216.3 283.14 230.5 283.18 234.66C272.798 237.33 261.988 237.908 251.38 236.36L251.46 236.4ZM301.7 345.56C304.06 347.02 303.86 350.04 302.94 352.3C301.72 354.3 299.22 356.3 296.74 355.06C294.26 353.82 294.1 350.32 295.3 348.1C296.5 345.88 299.2 344 301.62 345.52L301.7 345.56ZM293.16 321.44V296L303.32 293.22C303.6 302.554 303.874 311.926 304.14 321.34L293.16 321.44ZM271.16 279.44V271.8C284.92 272.16 301.16 275.02 310.94 263.18C318.5 264.36 326.62 266.82 331.18 272.96C332.474 274.63 333.334 276.596 333.68 278.68L271.16 279.44ZM336 349.1C336.594 348.158 337.532 347.484 338.616 347.222C339.698 346.962 340.842 347.132 341.8 347.7C342.74 348.26 343.442 349.144 343.778 350.186C344.112 351.228 344.056 352.356 343.62 353.36C340.8 358 333.32 353.88 336 349.1Z" fill="#0D128A"/>
<path d="M227.64 154C229.04 154 230.42 150.6 228.88 150.68C226.388 150.763 223.924 150.152 221.758 148.916C219.594 147.68 217.814 145.867 216.62 143.68C215.88 142.32 213.68 145.18 214.36 146.42C215.666 148.78 217.594 150.735 219.936 152.072C222.28 153.409 224.944 154.076 227.64 154Z" fill="#0D128A"/>
<path d="M212.18 154C210.76 154 209.36 157.32 210.92 157.34C212.13 157.337 213.338 157.404 214.54 157.54C214.77 161.944 215.716 166.28 217.34 170.38C218.26 172.38 219.6 174.68 221.86 174.96C223 174.955 224.116 174.625 225.076 174.009C226.036 173.393 226.8 172.515 227.28 171.48C228.644 169.091 229.566 166.476 230 163.76C230.3 162.2 230.92 160.46 229.76 159.28C225.74 155.26 217.62 154 212.18 154ZM227.78 162.36C227.24 166.04 225.22 174.68 221.36 170.56C221.924 166.334 221.08 162.039 218.96 158.34C222.128 159.097 225.122 160.455 227.78 162.34V162.36Z" fill="#0D128A"/>
<path d="M246.72 170.22L252.52 166.22C252.898 165.982 253.212 165.656 253.436 165.269C253.658 164.882 253.784 164.446 253.8 164C253.8 163.24 253.1 162.78 252.46 163.22L246.66 167.22C246.28 167.46 245.962 167.789 245.74 168.18C245.516 168.571 245.392 169.01 245.38 169.46C245.42 170.16 246 170.7 246.72 170.22Z" fill="#0D128A"/>
<path d="M44 363.62H51.7V229.78H44V363.62Z" fill="#FFDE26"/>
<path d="M198.28 363.62H206V230H198.28V363.62Z" fill="#FFDE26"/>
<path d="M31.16 207.76V221.42H216.3V209.56L31.16 207.76Z" fill="#FFDE26"/>
<path d="M254.4 363.62H208.6V224.76H217C217.98 224.76 219 223.1 219 222.36V207.18C219 206.78 218.78 206.24 218.32 206.24L190.7 206V200.36C190.7 199.98 190.5 199.42 190.02 199.42C159.82 199.42 137.42 199.42 137.68 199.42L108 128.12C107.74 127.5 107.28 127.46 106.72 127.7L101.24 130.14C100.798 130.395 100.443 130.778 100.222 131.239C100.001 131.699 99.9234 132.215 100 132.72C120.98 184.4 127.44 200.42 129.5 205.38L30.5 204.42C29.36 204.42 28.5 205.8 28.5 206.82V223.82C28.5 224.22 28.7 224.76 29.18 224.76H41.18V363.62H12C10.58 363.62 9.17997 366.96 10.74 366.96H69.02C70.44 366.96 71.84 363.62 70.28 363.62H54.28V224.76H195.64V363.62H181.48C180.06 363.62 178.68 366.96 180.24 366.96H253.16C254.58 366.96 256 363.62 254.4 363.62ZM105.8 131.14C114.56 152.14 134.2 199.3 135.28 201.88L132.32 203.88C123.64 182.6 103.22 132.28 103.22 132.28L105.8 131.14ZM138 202.72H188V206L134.5 205.48C137.52 203.38 137.6 203.32 138 202.72ZM51.62 363.62H44V229.78H51.7L51.62 363.62ZM31.16 221.42V207.76L216.3 209.56V221.42H31.16ZM206 363.62H198.28V230H206V363.62Z" fill="#0D128A"/>
<path d="M168.12 363.62H153.54C152.12 363.62 150.72 366.96 152.28 366.96H166.86C168.28 366.96 169.68 363.62 168.12 363.62Z" fill="#0D128A"/>
</svg>
