<svg width="400" height="400" viewBox="0 0 400 400" fill="none" xmlns="http://www.w3.org/2000/svg">
<path d="M304.22 145.6C274.1 122.42 247.86 105.4 202.86 82.7C191.3 76.86 183.7 77.82 174.5 88.6C161.4 104 147.5 127.64 138.1 142.98C131.7 153.44 133.94 163.52 142.1 170.52C144.68 172.74 218.1 220.06 221.14 221.68C221.14 221.68 216.66 195.06 237.02 187.8C257.38 180.54 286 210.28 286 210.28C301.62 184.64 323.2 160.22 304.22 145.6ZM206 110.76C206.16 114.76 200.74 111.94 200.94 116.6C200.886 117.201 200.608 117.76 200.162 118.167C199.716 118.575 199.134 118.8 198.53 118.8C197.926 118.8 197.344 118.575 196.898 118.167C196.452 117.76 196.175 117.201 196.12 116.6C195.06 111.78 203.66 104.9 206 110.76ZM200.92 101.46C200.988 102.093 200.804 102.727 200.406 103.225C200.01 103.723 199.432 104.045 198.8 104.12C197.454 104.22 196.145 104.606 194.96 105.252C193.775 105.898 192.741 106.789 191.928 107.866C191.114 108.943 190.539 110.181 190.241 111.497C189.943 112.813 189.929 114.178 190.2 115.5C190.274 115.852 190.269 116.216 190.185 116.565C190.101 116.915 189.94 117.242 189.714 117.521C189.488 117.801 189.203 118.027 188.879 118.182C188.554 118.338 188.2 118.419 187.84 118.42C182.78 116.94 185.66 108.56 187.84 105.32C190.02 102.08 198.78 96 200.88 101.46H200.92ZM178.26 98C180 94.36 194.88 85.16 197.32 91.6C197.37 92.2358 197.167 92.8658 196.755 93.3526C196.343 93.8394 195.755 94.144 195.12 94.2C192.599 94.3094 190.132 94.963 187.888 96.1162C185.644 97.2692 183.676 98.8944 182.12 100.88C180.59 103.051 179.528 105.516 179.001 108.118C178.474 110.721 178.494 113.405 179.06 116C179.131 116.35 179.123 116.712 179.038 117.059C178.952 117.406 178.791 117.73 178.565 118.008C178.339 118.285 178.055 118.509 177.733 118.663C177.41 118.817 177.058 118.898 176.7 118.9C170.44 116.64 175.12 101.56 178.26 98ZM164.38 132.26C162.96 128.78 159.32 132.26 158.38 128.7C158.312 128.391 158.306 128.072 158.362 127.761C158.418 127.451 158.535 127.154 158.706 126.888C158.877 126.622 159.099 126.393 159.359 126.213C159.618 126.033 159.911 125.906 160.22 125.84C161.794 125.433 163.459 125.574 164.942 126.239C166.425 126.905 167.637 128.054 168.38 129.5C169.52 131.12 169.6 131.1 170.54 130.82C174 129.76 176.54 129.76 178.4 130.82C181.66 132.64 181.56 136.28 182.8 139.14C183.38 139.94 184.8 139.38 187.24 138.04C189.68 136.7 192.7 141 189.24 142.44C185.78 143.88 185.04 144.18 183 144.18C178.56 144.98 177.64 137.34 176.14 135.04C171.44 134.48 168 138.1 164.38 132.26ZM209.3 189.28C209.104 189.529 208.862 189.737 208.586 189.892C208.31 190.047 208.008 190.146 207.694 190.183C207.38 190.22 207.06 190.195 206.756 190.108C206.452 190.022 206.168 189.877 205.92 189.68C192.98 179.68 187.08 177.4 173.02 167.02C172.506 166.643 172.162 166.078 172.064 165.448C171.967 164.818 172.123 164.175 172.5 163.66C172.877 163.146 173.442 162.802 174.072 162.704C174.702 162.607 175.346 162.763 175.86 163.14C183.16 168.46 188.32 171.78 192.86 174.7C194.82 176.86 212.28 184.9 209.3 189.28ZM223.84 157.08C215.84 161.74 210.86 161.36 208.88 152.92C208.54 152.5 202.88 155.72 201.5 154.32C198.7 153.06 199.22 149.26 197.92 147.28C197.157 147.203 196.388 147.364 195.72 147.74C195.131 147.984 194.47 147.984 193.881 147.74C193.292 147.497 192.824 147.029 192.58 146.44C192.336 145.851 192.336 145.19 192.58 144.601C192.824 144.012 193.291 143.544 193.88 143.3C199.52 140.44 203.26 144.74 203.7 149.58C211.14 145.84 213.1 149.58 215 155.32C215.12 155.32 216.48 155.76 221.42 152.9C221.97 152.627 222.606 152.574 223.194 152.751C223.782 152.928 224.282 153.323 224.59 153.855C224.898 154.388 224.992 155.017 224.852 155.616C224.714 156.215 224.352 156.738 223.84 157.08ZM253.12 182.82C249.12 183.32 250.3 175.76 249.3 174.42C244.76 177.44 239.84 175.68 239.96 169.92C239.96 169 239.68 167.26 239.26 167C233.5 170.66 228.7 172.12 228.76 162.74C228.77 162.103 229.03 161.496 229.482 161.047C229.934 160.599 230.544 160.345 231.18 160.34C233.56 160.34 233.68 163.08 233.66 164.64C240.4 159.4 244.82 163.34 244.96 171.06C246.72 170.4 250.24 168.46 251.82 169.96C252.8 169.24 258 182 253.12 182.82ZM282.72 168C280.08 168 280.92 164.56 280.12 163.4C265.84 169.92 270.3 156.96 265.98 156.4C253.98 160.64 253.98 160.04 251.98 147.86C245.36 150.32 238.98 148.62 238.92 141.6C238.886 141.287 238.916 140.971 239.006 140.669C239.096 140.368 239.244 140.087 239.444 139.844C239.642 139.6 239.888 139.398 240.166 139.25C240.442 139.102 240.746 139.01 241.06 138.98C244.02 138.34 243.74 143.58 244.58 143.96C245.42 144.34 248.34 143.74 250.72 143.2C257.38 141.72 257.1 149.44 257.9 153.98C267.56 150.14 270.82 150.16 273.48 160.26C276.58 160.48 280.58 156.78 283.48 159.9C285.68 162 286.8 168 282.72 168Z" fill="#3D9CFB"/>
<path d="M124 228.42C116 231.86 116.62 251.1 126.88 251.64C135.06 252.1 147.08 250.92 149.82 248.64C154.96 244.3 153.4 227.14 145.5 226.2C138.258 225.662 130.979 226.414 124 228.42ZM147.18 234.42C151.78 249.38 138.8 247.56 126.8 247.24C124.92 246.86 123.2 242.92 123.1 238.84C122.76 228.46 139.1 231.62 145.1 230.98C145.6 231.04 146.54 232.14 147.2 234.42H147.18Z" fill="#001434"/>
<path d="M152 284.54C145.18 284.74 136.86 284.38 131.32 287.5C123.92 291.5 125.64 309.7 134.64 310.32C141.86 310.84 154.04 309.8 157.9 306.9C164.52 302.1 161.08 284.3 152 284.54ZM155.68 293.38C157.14 297.54 156.52 301.92 155.02 303.06C153.78 303.56 133.22 310.56 131.84 301.06C129.08 288.66 140 289.84 149.18 289.48C152.4 288.98 154.64 289.62 155.72 293.38H155.68Z" fill="#001434"/>
<path d="M102.14 169.88C104.809 166.97 108.42 165.097 112.336 164.592C116.252 164.087 120.22 164.982 123.54 167.12C127.54 168.9 128.48 163 124.58 162.22C134.66 128.88 81.2398 138.6 99.9998 165.2C97.1798 168 99.7598 171.88 102.14 169.88ZM110.28 145.38C109.743 150.209 109.885 155.09 110.7 159.88C108.327 160.276 106.052 161.125 104 162.38C98.1198 155.72 101.8 145.54 110.28 145.38Z" fill="#001434"/>
<path d="M79.3398 177.52C79.0788 177.342 78.785 177.218 78.4756 177.153C78.1662 177.089 77.8472 177.087 77.537 177.146C77.2266 177.206 76.931 177.326 76.6674 177.5C76.4036 177.674 76.1768 177.898 75.9998 178.16C73.9998 183.02 81.5798 184.98 85.4798 185.18C95.0398 185.64 101.6 175.54 97.3798 173.4C92.5598 170.96 92.2198 184.64 79.3398 177.52Z" fill="#001434"/>
<path d="M136 133.04C132 128.02 103.42 130.86 90.8 131.48C81.66 132 69.22 134 47.56 136.12C18.22 138.9 27.86 157.24 32.86 189.08C35.64 206.76 52.86 198.5 79.2 195.32C92.78 193.66 124.22 189.9 135.06 188.76C144.38 187.78 147.06 177.04 142.64 176.46C139.3 176 142 182.24 132.24 184C105.52 188.5 76.24 190.76 48.1 194.38C34.34 196.14 36.8 182.38 32.44 158.38C30.08 145.4 35.18 142.62 48.18 140.96C70.88 138.04 82.18 136.78 91.16 136.34C100.14 135.9 126.5 133.34 132.58 136.52C135.36 138 137.88 135.46 136 133.04Z" fill="#001434"/>
<path d="M146 255.1C128 255.34 115.72 262.56 124.74 279.1C128.2 285.42 155.88 279.54 156.74 272.66C158 262.66 155.6 254.98 146 255.1ZM152 272.22C151.46 274.62 130.64 280.38 128.2 275.68C124.84 269.28 124.46 260.5 140.74 259.46C149.24 258.92 154.5 260.56 152 272.22Z" fill="#001434"/>
<path d="M45.7398 177.32C48.7198 179.96 50.1398 173.08 58.7198 171.98C62.8386 171.407 67.0272 172.314 70.5398 174.54C74.5398 176.32 75.4998 170.42 71.5998 169.62C81.5998 136.28 28.2398 146.02 47.0598 172.62C45.5998 173.7 43.9998 175.78 45.7398 177.32ZM48.0998 158.8C49.1798 154.8 53.1198 152.8 57.2798 152.8C56.7536 157.63 56.895 162.509 57.6998 167.3C55.3082 167.685 53.013 168.527 50.9398 169.78C49.648 168.295 48.719 166.53 48.2262 164.625C47.7332 162.719 47.69 160.725 48.0998 158.8Z" fill="#001434"/>
<path d="M87.34 258C95.04 258.32 106.72 256 110.38 254C116.92 249.14 112.6 232 104.9 232C99.46 231.72 83.68 232.92 80.64 237.42C77.6 241.92 78.88 257.66 87.34 258ZM84.54 240.16C85.8 238.48 97.72 236.3 104.66 236.74C109.22 238.02 109.04 249.08 108.06 249.82C105.36 251.3 94.66 253.5 87.54 253.2C83.34 252.18 83.78 240.9 84.54 240.12V240.16Z" fill="#001434"/>
<path d="M90.7798 69.62C80.9598 61.82 79.7998 79.06 68.3798 71.76C68.1014 71.6104 67.7962 71.517 67.4818 71.4852C67.1672 71.4534 66.8496 71.4838 66.5468 71.5748C66.2442 71.6658 65.9624 71.8156 65.7174 72.0156C65.4726 72.2154 65.2696 72.4616 65.1198 72.74C64.9702 73.0184 64.8768 73.3236 64.845 73.638C64.8132 73.9526 64.8436 74.2702 64.9346 74.573C65.0256 74.8758 65.1754 75.1576 65.3754 75.4024C65.5752 75.6472 65.8214 75.8504 66.0998 76C76.7998 81.66 82.5198 73.08 85.3998 72.38C88.2798 71.68 90.3198 76.22 94.3398 76.2C98.3598 76.18 103.62 68.1 100.62 66.34C100.075 66.0136 99.4234 65.9144 98.806 66.0642C98.1886 66.2138 97.6548 66.6002 97.3198 67.14C93.5998 72.24 93.8598 72 90.7798 69.62Z" fill="#001434"/>
<path d="M56.88 54.46C63.06 64.6 70.12 61.7 73.54 53.94C74 52.92 75.54 52.88 76.46 53.5C82.7 57.74 86.92 57.18 93.22 50.7C93.4418 50.4754 93.6174 50.2094 93.7366 49.917C93.8556 49.6246 93.916 49.3116 93.9142 48.9958C93.9122 48.6802 93.8482 48.368 93.7258 48.077C93.6032 47.786 93.4246 47.522 93.2 47.3C92.9754 47.0782 92.7094 46.9026 92.417 46.7834C92.1246 46.6644 91.8116 46.604 91.4958 46.6058C91.18 46.6078 90.8678 46.6718 90.5768 46.7942C90.2858 46.9168 90.0218 47.0954 89.8 47.32C80.98 58.82 77.28 39.32 69.14 52.1C67.38 54.82 65.64 58.9 60.52 51.26C55.4 43.62 50.42 58.24 45.82 58.24C45.52 58.24 43.92 57.68 41.82 52.36C41.7204 52.0546 41.5568 51.7738 41.34 51.5364C41.1232 51.2992 40.8584 51.1108 40.5632 50.984C40.2678 50.8572 39.949 50.7948 39.6276 50.801C39.3064 50.8072 38.9902 50.882 38.7 51.02C35.72 53.02 39.8 62.54 45.06 63.02C50.32 63.5 53.58 57.76 56.88 54.46Z" fill="#001434"/>
<path d="M82.54 93.22C79.68 93.22 77.2398 92.42 71.0598 89.34C70.2508 88.9188 69.3356 88.7454 68.4286 88.8414C67.5214 88.9374 66.6628 89.2986 65.9598 89.88C60.5998 94.62 57.2798 96.38 54.2798 92.56C50.1398 87.3 50 98.56 57.06 99.38C62.62 99.98 67.0598 94.32 68.8398 94.06C70.6198 93.8 76.4 99.02 83.22 98.06C84.896 97.9044 86.5228 97.4094 88.0014 96.6048C89.4798 95.8002 90.7792 94.703 91.82 93.38C93.4 91.38 100.66 97.38 102.4 95.14C105.78 90.88 94.66 88.78 92.82 88.66C89.24 88.48 88.38 93.12 82.54 93.22Z" fill="#001434"/>
<path d="M304 181.6C303.28 182.74 302.52 184.2 301.14 186.34C335.86 204.2 342.98 215.64 359.94 256.56C337.14 305.78 274.24 304.02 260.2 305.86C227.2 253.16 218.84 215.34 229.1 199.18C243.9 175.86 277.7 204.2 290.82 220.62C293.56 224.02 298.92 220.8 296.82 218.48C265.62 182.64 240.52 177.76 226.44 192.48C212.36 207.2 218.7 241.08 241.16 283.08C212.18 281.24 192.7 262.9 188.32 236.6C198.92 241.34 209.46 244.12 209 240.6C208.54 237.08 197.6 237.02 187.4 230.6C184.22 211.88 189.5 206.6 184.9 205.54C178.46 204.06 172.78 287.72 244.48 289.1C247.82 294.98 251.26 300.74 254.7 306.3C234.7 315.6 246.12 339.6 264.9 379.66C265.03 379.958 265.218 380.228 265.454 380.45C265.69 380.674 265.97 380.846 266.274 380.958C266.58 381.07 266.904 381.12 267.23 381.102C267.554 381.086 267.872 381.002 268.164 380.858C268.454 380.714 268.714 380.514 268.926 380.266C269.138 380.02 269.296 379.732 269.392 379.422C269.49 379.112 269.522 378.784 269.49 378.46C269.456 378.138 269.358 377.824 269.2 377.54C246.96 332.36 247.62 319.72 250.68 315.38C254.86 309.38 265.76 312.06 292.98 307.64C320.2 303.22 345.8 292 362.72 262C362.9 260.96 388.88 316.54 390 299.62C354.7 251.46 363.36 207.84 304 181.6Z" fill="#001434"/>
<path d="M96.1398 315.64C103.4 316 115.26 314.84 119.14 312.08C125.58 307.66 123.98 289.56 114.88 289.38C103.68 289.18 84.5598 287.06 87.7198 304.56C88.4798 309.5 91.1398 315.38 96.1398 315.64ZM93.9998 296.26C104.26 293.76 125.18 289.44 116.32 308.26C114.2 309.78 104.16 311.36 96.3198 310.92C92.9998 311.3 90.5998 297.1 93.9998 296.26Z" fill="#001434"/>
<path d="M163.54 194.66C160.02 194.2 162.44 203.6 162.86 210.98C164.22 234.98 191.22 331.2 154.86 329.18C120.44 327.18 53.44 354.46 41.4 330.58C29.36 306.7 30.78 252.2 26 215.72C22.58 190.24 12.5399 139.42 16.1999 123.46C17.9599 115.7 27.36 108.22 35.66 107.72C36.06 110.84 36.34 114.02 36.52 117.26C29.36 117.76 30.4 121.44 31.78 122.3C36.76 125.4 131.06 110.06 131.78 108.78C132.357 108.616 132.848 108.235 133.15 107.716C133.452 107.198 133.542 106.583 133.4 106C132.58 103.84 127.16 104.98 121.96 106C121.5 102.66 120.98 99.28 120.36 95.88C140.98 94 144.3 100 150.8 108.9C152.52 111.24 156.38 108.9 155.26 106.58C148 91.64 136 89.54 119.48 91C115.08 67.96 110.46 45.48 106.68 21.5C106.02 17.26 99.62 26.76 96.12 26.54C94.12 26.4 92.12 24 89.44 20.54C85.14 15.12 81.18 27.74 74.26 28.14C71.04 28.34 64.4 17.34 61.48 22.42C54.18 35 52.9 35.12 45.82 28.04C41.1 23.26 39.34 36.6 33.64 35.9C29.64 35.4 28.96 31.9 26.86 33.22C17.1399 39.22 32.86 79.22 34.86 102.94C21.68 106.52 11.9999 111.4 10.4799 124.4C7.69994 146.94 17.9999 193.56 20.16 217.32C23.64 254.6 27.56 319.7 37.66 335.06C55.2 361.72 119.78 332.74 155.26 333.98C198.28 335.48 171.26 242.52 167.62 210.34C166.4 199.44 168 195.22 163.54 194.66ZM28.48 39.2C34 42.68 40.34 41.7 44.18 34C52.72 41.72 59.2 38 64.18 27.54C73.3 37.96 79.38 33.9 86.56 25.06C92.06 33.06 95.82 35.06 102.56 28.44C105.54 54.56 113.8 81.24 117.28 106.78C95.66 110.78 67.76 114 41.28 116.78C39.36 86 27.26 58.62 28.48 39.2Z" fill="#001434"/>
<path d="M137.6 196.9C117.82 197.2 106.62 202.76 117.08 221.28C126.9 226.6 149.7 221.16 148.38 214.4C149.04 203.84 147.24 196.76 137.6 196.9ZM143.6 214.02C143.38 216.78 135.6 217.84 123.92 218.56C118.18 218.96 118.82 214.2 118.38 208.56C116.22 202.56 129.8 202.4 138.08 201.68C144 202 143.64 204.72 143.58 214L143.6 214.02Z" fill="#001434"/>
<path d="M41.9998 233.34C52.7998 234.84 72.5798 235.82 70.2598 218.94C69.5798 214.06 67.2398 208.14 62.2598 207.64C52.6398 207.64 35.8198 206.48 35.8798 220.72C35.6798 225.58 37.5598 231.58 41.9998 233.34ZM43.2798 214.8C51.0798 213.38 64.2998 206.8 65.4798 219.5C65.9198 223.16 65.0798 226.44 63.5998 226.96C56.6198 229.4 46.3198 229.88 43.7998 228.96C40.3598 228 39.1398 216.18 43.1798 214.8H43.2798Z" fill="#001434"/>
<path d="M85.44 228.86C91.6942 228.656 97.8912 227.598 103.86 225.72C112.64 222.9 110 202.88 101.48 202.52C94.06 202.88 73.48 200.52 73.7 214.3C73.74 221.88 77.46 229.66 85.44 228.86ZM78.5 214.38C78.5 213.46 78.72 210.38 80.5 209.8C86.04 207.8 103.2 201.56 104.5 213.8C104.9 217.4 104 220.72 102.5 221.22C89.5 224 78.5 228.86 78.5 214.38Z" fill="#001434"/>
<path d="M74.74 253.68C74.74 247.68 74.02 241.9 71.08 239.18C67.86 235.6 57.84 237.56 53.08 237.82C35.34 238.8 37.68 251.96 44.4 261.58C53.06 265.68 74.7 260.4 74.74 253.68ZM56.58 242.32C65.56 240.32 71.36 241.44 69.94 253.38C69.8 255.74 66.9 257.64 51.82 258.88C46 259.38 45.14 255.6 44.52 249.06C44 244.18 45.84 243.62 56.58 242.32Z" fill="#001434"/>
<path d="M87.4 286C93.86 287.34 106.22 285.86 111.4 284.46C119.22 282.36 118.72 261.98 109.86 261.6C101 261.22 79.74 259.6 82.4 275.98C82.7 280 84.22 284.98 87.4 286ZM87.14 272.64C88.08 264.38 102.88 266.64 109.38 266.4C113.12 266.9 112.28 279.88 109.96 279.86C104.82 281.4 92.06 282.16 88.92 281.42C87.3504 278.742 86.7238 275.616 87.14 272.54V272.64Z" fill="#001434"/>
<path d="M58.92 321C81.16 320.1 86.4 318.68 81.74 299.94C79.46 290.78 52.26 294.88 49.44 301.36C46.62 307.84 47.66 321.46 58.92 321ZM53.62 303.74C56.74 299.14 69.4 298.72 72.82 298.68C78.52 298.68 79.96 310.08 78.18 312.2C73.3 318 54.48 317.28 53.92 314.64C53.22 311.28 51.76 306.48 53.62 303.74Z" fill="#001434"/>
<path d="M49.74 292.16C54.06 294.6 81.26 291.78 78.34 277.84C77.28 272.76 77.46 266.2 70.58 265.84C63.3 265.48 44.18 264.72 43.96 277.5C43.72 283.08 46.22 290.16 49.74 292.16ZM48.78 277.26C50.16 269.5 65.54 270.84 69.98 270.62C72.64 270.3 75.54 284.04 71.86 285.16C58.16 288.24 48.36 293.4 48.78 277.26Z" fill="#001434"/>
</svg>
