<svg xmlns="http://www.w3.org/2000/svg" viewBox="0 0 48 48"><title>50-Paroduct-Box</title><g id="_50-Paroduct-Box" data-name="50-Paroduct-Box"><path d="M43,0H5A5,5,0,0,0,0,5V43a5,5,0,0,0,5,5H43a5,5,0,0,0,5-5V5A5,5,0,0,0,43,0ZM17,2H31V16H17Zm0,16H31v2H17ZM46,43a3,3,0,0,1-3,3H5a3,3,0,0,1-3-3V5A3,3,0,0,1,5,2H15V21a1,1,0,0,0,1,1H32a1,1,0,0,0,1-1V2H43a3,3,0,0,1,3,3Z"/><path d="M13,34H7a1,1,0,0,0-1,1v6a1,1,0,0,0,1,1h6a1,1,0,0,0,1-1V35A1,1,0,0,0,13,34Zm-1,6H8V36h4Z"/><rect x="17" y="35" width="2" height="2"/><rect x="21" y="35" width="2" height="2"/><rect x="17" y="39" width="11" height="2"/></g></svg>