<svg width="199" height="285" viewBox="0 0 199 285" fill="none" xmlns="http://www.w3.org/2000/svg">
<g clip-path="url(#clip0_601_778)">
<path d="M166.043 177.959C166.043 177.959 179.573 162.158 186.605 166.229C193.636 170.3 198.156 163.349 198.156 163.349L179.935 144.068C176.693 146.795 153.108 166.572 153.108 166.572L166.043 177.959Z" fill="#828181"/>
<path d="M198.156 163.349L179.935 144.068C176.693 146.795 153.108 166.572 153.108 166.572" stroke="#2B4257" stroke-miterlimit="10" stroke-linecap="round"/>
<path d="M169.752 168.463C169.752 168.463 172.819 169.712 172.724 169.613C172.629 169.515 172.885 165.068 172.885 165.068L176.463 166.393L176.828 162.045L180.479 164.236L181.745 160.585" stroke="#2B4257" stroke-miterlimit="10" stroke-linecap="round"/>
<path d="M169.15 174.659C169.544 174.267 169.965 173.859 170.413 173.436L166.277 155.528L159.639 161.085L169.15 174.659Z" fill="#2B4257"/>
<path d="M124.394 204.673C119.081 204.673 113.565 203.406 108.505 199.876C100.301 194.144 95.7668 184.177 95.0294 170.278C94.5803 161.764 95.5113 151.319 97.8004 139.245C101.521 119.589 107.596 101.922 107.851 101.177L135.456 110.721C132.067 120.896 129.263 131.257 127.059 141.753C124.707 153.25 124.047 161.41 124.138 166.944C124.152 168.023 124.439 169.08 124.973 170.017C125.507 170.954 126.271 171.741 127.192 172.302C128.112 172.864 129.161 173.182 130.238 173.228C131.316 173.273 132.388 173.045 133.353 172.563C138.537 170.008 146.237 165.214 157.182 156.287L175.641 178.923C161.538 190.423 149.767 197.86 139.658 201.654C135.302 203.282 129.961 204.673 124.394 204.673ZM135.456 110.706L121.67 105.934L135.474 110.681L135.456 110.706Z" fill="#426C96"/>
<path d="M124.145 166.941C124.058 161.413 124.719 153.254 127.066 141.75C127.256 140.819 127.453 139.891 127.654 138.975C122.437 124.685 113.649 115.182 103.638 114.788C101.722 121.538 99.5091 130.169 97.7969 139.223C95.5077 151.311 94.5768 161.757 95.0258 170.256C95.756 184.166 100.298 194.122 108.501 199.854C113.561 203.384 119.089 204.651 124.39 204.651C124.806 204.651 125.222 204.651 125.635 204.625C129.651 195.944 132.207 184.929 132.612 172.863C131.659 173.195 130.641 173.296 129.642 173.157C128.643 173.019 127.691 172.645 126.864 172.067C126.037 171.489 125.36 170.723 124.887 169.831C124.415 168.94 124.16 167.95 124.145 166.941Z" fill="#2B4257"/>
<path d="M127.07 141.757C124.719 153.254 124.058 161.413 124.149 166.948C124.164 168.025 124.452 169.08 124.986 170.015C125.52 170.951 126.282 171.735 127.201 172.296C128.12 172.857 129.167 173.176 130.243 173.222C131.318 173.269 132.388 173.042 133.353 172.563C138.537 170.008 146.237 165.214 157.182 156.288" stroke="#2B4257" stroke-miterlimit="10" stroke-linecap="round"/>
<path d="M34.7313 25.6915C34.7313 25.6915 29.3462 11.5443 23.3222 12.0919C17.2983 12.6395 17.6634 25.6878 26.1517 29.7988C26.1517 29.7988 21.0404 30.8393 21.3143 33.7855C21.5881 36.7318 30.5328 36.0965 33.0884 33.1758" fill="#E57873"/>
<path d="M21.3142 33.7855C21.588 36.7354 30.5327 36.0965 33.0883 33.1758" stroke="#2B4257" stroke-miterlimit="10" stroke-linecap="round"/>
<path d="M50.4556 16.1955C46.1622 13.7531 35.8265 26.2866 35.8265 26.2866L34.7312 32.6866C35.4614 36.2243 41.9235 39.689 43.3072 37.0312C44.6908 34.3733 41.2736 31.763 41.2736 31.763C49.2691 30.6677 54.7491 18.638 50.4556 16.1955Z" fill="#E57873"/>
<path d="M41.2737 31.763C49.2691 30.6677 54.7491 18.6197 50.4557 16.1919" stroke="#2B4257" stroke-miterlimit="10" stroke-linecap="round"/>
<path d="M34.7312 32.6865C35.4614 36.2242 41.9235 39.6889 43.3072 37.0311" stroke="#2B4257" stroke-miterlimit="10" stroke-linecap="round"/>
<path d="M35.2204 25.4469C35.2204 25.4469 31.2702 27.0387 32.5881 35.7169C32.6014 35.8128 32.6413 35.9032 32.7033 35.9776C32.7653 36.052 32.847 36.1076 32.939 36.138C33.0309 36.1684 33.1296 36.1725 33.2238 36.1496C33.3179 36.1268 33.4038 36.0781 33.4717 36.0089C34.6472 34.8261 36.8232 31.8907 36.7575 26.4217C36.7575 26.4217 39.4482 25.4104 38.2653 24.505C34.7312 21.8143 35.2204 25.4469 35.2204 25.4469Z" fill="#2B4257"/>
<path d="M23.3222 12.0918C17.2983 12.6394 17.6634 25.6877 26.1517 29.7986" stroke="#2B4257" stroke-miterlimit="10" stroke-linecap="round"/>
<path d="M71.8965 42.0389C82.1325 39.7865 88.398 28.7239 85.8908 17.33C83.3836 5.93611 73.0532 -1.47455 62.8171 0.777859C52.5811 3.03027 46.3157 14.0928 48.8229 25.4867C51.3301 36.8806 61.6605 44.2913 71.8965 42.0389Z" fill="#C3D8DD"/>
<path d="M70.9032 37.5247C78.9002 35.765 83.7953 27.1229 81.8367 18.222C79.8781 9.32111 71.8074 3.53205 63.8104 5.29177C55.8134 7.05149 50.9183 15.6936 52.877 24.5945C54.8356 33.4954 62.9062 39.2844 70.9032 37.5247Z" fill="#628ECC"/>
<path d="M61.8719 36.3849C64.6672 37.7756 67.8523 38.1747 70.9043 37.5166C78.8997 35.7569 83.7956 27.1152 81.835 18.2144C81.5148 16.7834 81.0245 15.396 80.3747 14.0815C74.5332 14.9797 68.4874 19.5579 68.4874 19.5579L61.8719 36.3849Z" fill="#E57873"/>
<path d="M56.9615 9.12744C53.3106 12.8733 51.5728 18.6745 52.8762 24.5963C53.565 27.795 55.1241 30.7414 57.3814 33.1102L65.2965 18.4664C65.2965 18.4664 61.558 11.9751 56.9615 9.12744Z" fill="#E57873"/>
<path d="M71.8965 42.0389C82.1325 39.7865 88.398 28.7239 85.8908 17.33C83.3836 5.93611 73.0532 -1.47455 62.8171 0.777859C52.5811 3.03027 46.3157 14.0928 48.8229 25.4867C51.3301 36.8806 61.6605 44.2913 71.8965 42.0389Z" stroke="#2B4257" stroke-miterlimit="10" stroke-linecap="round"/>
<path d="M71.8973 42.033L78.4069 71.6089" stroke="#2B4257" stroke-miterlimit="10" stroke-linecap="round"/>
<path d="M35.0854 81.8531C31.0694 77.8882 47.5569 80.7578 47.5569 80.7578C47.5569 80.7578 50.3681 74.0803 57.4618 80.8893L54.6067 90.4035C54.6067 90.4035 39.116 85.818 35.0854 81.8531Z" fill="#FBC2A5"/>
<path d="M54.6068 90.3927C54.6068 90.3927 39.116 85.8181 35.0854 81.8533" stroke="#2B4257" stroke-miterlimit="10" stroke-linecap="round"/>
<path d="M35.0854 81.8531C31.0694 77.8882 47.5569 80.7578 47.5569 80.7578C47.5569 80.7578 50.3681 74.0803 57.4618 80.8893" stroke="#FFF1D7" stroke-miterlimit="10" stroke-linecap="round"/>
<path d="M46.1221 80.5205C46.1221 80.5205 49.7401 80.9805 50.4812 82.4555" stroke="#FFF1D7" stroke-miterlimit="10" stroke-linecap="round"/>
<path d="M70.9663 69.7761C70.9663 69.7761 59.9224 57.0345 64.1209 49.4406C68.3195 41.8467 70.6925 43.1501 70.9663 45.2822C71.2402 47.4144 74.2522 51.5216 74.2522 51.5216C74.2522 51.5216 79.2721 47.3596 79.1809 49.4406C79.0896 51.5216 78.8158 59.7726 77.8118 61.0797C76.8078 62.3867 83.9599 66.6728 83.9599 66.6728" fill="#FBC2A5"/>
<path d="M70.9664 45.2712C71.2402 47.4034 74.2522 51.5106 74.2522 51.5106C74.2522 51.5106 79.2722 47.3486 79.1809 49.4296" stroke="#FFF1D7" stroke-miterlimit="10" stroke-linecap="round"/>
<path d="M70.9663 69.7759C70.9663 69.7759 59.9224 57.0343 64.1209 49.4404" stroke="#2B4257" stroke-miterlimit="10" stroke-linecap="round"/>
<path d="M87.7897 250.495C87.7897 250.495 89.9802 271.185 82.1929 273.496C74.4055 275.807 76.3515 283.872 76.3515 283.872H102.883C103.123 279.64 104.949 248.915 104.949 248.915L87.7897 250.495Z" fill="#828181"/>
<path d="M87.9978 253.442L104.343 259.137C104.686 253.38 104.949 248.915 104.949 248.915L87.7897 250.495C87.7897 250.495 87.9138 251.649 87.9978 253.442Z" fill="#2B4257"/>
<path d="M76.3514 283.872H102.882C103.123 279.64 104.949 248.915 104.949 248.915" stroke="#2B4257" stroke-miterlimit="10" stroke-linecap="round"/>
<path d="M92.1416 259.714C92.1416 259.714 89.1296 261.083 89.2684 261.083C89.4071 261.083 92.4629 264.325 92.4629 264.325L89.0383 266.012L91.9591 269.254L87.8518 270.393L89.6334 273.817" stroke="#2B4257" stroke-miterlimit="10" stroke-linecap="round"/>
<path d="M104.179 46.0014C103.951 44.0389 103.067 42.2108 101.67 40.8139C100.272 39.4171 98.4442 38.5334 96.4816 38.3064C94.519 38.0793 92.5372 38.5222 90.858 39.5632C89.1788 40.6042 87.9006 42.1821 87.2311 44.0409C86.6884 45.4215 86.0516 46.7634 85.3253 48.0569C83.4998 51.507 83.4487 55.1579 85.5516 57.2608C87.9101 59.6193 92.2145 59.287 96.0042 56.7387C96.9992 56.0939 98.0442 55.5299 99.1293 55.052C100.824 54.2765 102.227 52.9808 103.135 51.3532C104.043 49.7256 104.409 47.8509 104.179 46.0014Z" fill="#2B4257"/>
<path d="M96.3693 38.3344C94.4303 38.1343 92.48 38.5864 90.8269 39.6193C89.1738 40.6521 87.9124 42.2067 87.242 44.0371C86.6993 45.4177 86.0626 46.7595 85.3363 48.0531C83.5108 51.5032 83.4597 55.1541 85.5626 57.257" stroke="#586977" stroke-miterlimit="10" stroke-linecap="round"/>
<path d="M100.688 46.3262C103.197 46.3262 105.23 44.4269 105.23 42.0839C105.23 39.7409 103.197 37.8416 100.688 37.8416C98.18 37.8416 96.1466 39.7409 96.1466 42.0839C96.1466 44.4269 98.18 46.3262 100.688 46.3262Z" fill="#FBC2A5"/>
<path d="M55.5888 94.8539C55.2018 94.8539 54.9426 94.8539 54.8185 94.8539L55.1179 76.5994C64.4765 76.5125 73.7913 75.309 82.8647 73.0143C100.389 68.4543 111.374 60.5209 115.485 49.4441L132.597 55.7967C118.57 93.5433 63.1425 94.8539 55.5888 94.8539Z" fill="#706D6D"/>
<path d="M132.579 55.793C118.57 93.5432 63.1425 94.8575 55.5779 94.8575" stroke="#2B4257" stroke-miterlimit="10" stroke-linecap="round"/>
<path d="M125.631 27.0715C125.633 23.6818 124.348 20.4178 122.035 17.9396C119.722 15.4614 116.555 13.9539 113.173 13.722C109.791 13.4901 106.447 14.5511 103.818 16.6905C101.189 18.8298 99.4697 21.8878 99.0089 25.2461C98.9615 25.6112 98.9286 25.9762 98.9067 26.3121C98.7386 28.5005 98.0162 30.61 96.8075 32.442C95.586 34.2921 95.1113 36.5365 95.4791 38.7228C95.8468 40.909 97.0296 42.8746 98.789 44.2234C100.549 45.5722 102.754 46.2039 104.961 45.9911C107.167 45.7784 109.211 44.7371 110.681 43.077C112.159 41.5437 114.023 40.4365 116.077 39.8716C118.834 39.0493 121.253 37.3599 122.974 35.0541C124.695 32.7483 125.627 29.9489 125.631 27.0715Z" fill="#2B4257"/>
<path d="M111.667 13.7129C108.542 13.8636 105.568 15.0999 103.257 17.2087C100.946 19.3174 99.4439 22.1664 99.0089 25.2643C98.9614 25.6294 98.9285 25.9945 98.9066 26.3304C98.7386 28.5187 98.0161 30.6283 96.8074 32.4602" fill="#2B4257"/>
<path d="M98.9066 26.3303C98.7386 28.5187 98.0161 30.6282 96.8074 32.4602C95.8315 34.0113 95.3679 35.83 95.4821 37.659" stroke="#586977" stroke-miterlimit="10" stroke-linecap="round"/>
<path d="M98.9066 26.3303C98.7386 28.5187 98.0161 30.6282 96.8074 32.4602" stroke="#586977" stroke-miterlimit="10" stroke-linecap="round"/>
<path d="M123.065 121.805C120.592 121.805 118.143 121.318 115.859 120.371C113.575 119.424 111.499 118.037 109.751 116.287C108.004 114.538 106.618 112.462 105.673 110.177C104.728 107.892 104.242 105.443 104.244 102.97V98.3479H141.885V102.97C141.887 105.443 141.402 107.892 140.457 110.177C139.512 112.462 138.126 114.538 136.378 116.287C134.63 118.037 132.555 119.424 130.27 120.371C127.986 121.318 125.537 121.805 123.065 121.805Z" fill="#628ECC"/>
<path d="M141.885 98.3589H104.244V61.076C104.244 56.0845 106.227 51.2975 109.757 47.7679C113.286 44.2384 118.073 42.2556 123.065 42.2556C128.056 42.2556 132.843 44.2384 136.373 47.7679C139.902 51.2975 141.885 56.0845 141.885 61.076V98.3589Z" fill="#828181"/>
<path d="M141.889 67.4941H104.244V74.6134H141.889V67.4941Z" fill="#666666"/>
<path d="M141.889 76.9866H104.244V84.1058H141.889V76.9866Z" fill="#666666"/>
<path d="M141.889 86.4788H104.244V93.598H141.889V86.4788Z" fill="#666666"/>
<path d="M141.885 102.985V98.3589H104.241" stroke="#2B4257" stroke-miterlimit="10" stroke-linecap="round"/>
<path d="M141.885 61.0796V98.3589H104.241" stroke="#2B4257" stroke-miterlimit="10" stroke-linecap="round"/>
<path d="M124.251 72.4995L104.244 85.3762V98.3588C107 98.3681 109.716 97.7038 112.156 96.4235C114.597 95.1432 116.687 93.2859 118.245 91.0132C123.543 83.2112 124.251 72.4995 124.251 72.4995Z" fill="#2B4257"/>
<path d="M104.244 98.3589V61.0796C104.244 58.6078 104.73 56.1601 105.676 53.8763C106.621 51.5925 108.008 49.5173 109.755 47.7693C111.503 46.0212 113.578 44.6346 115.862 43.6886C118.145 42.7425 120.593 42.2556 123.065 42.2556" stroke="#FFF1D7" stroke-miterlimit="10" stroke-linecap="round"/>
<path d="M128.004 43.6649L116.402 43.8109V31.8761L128.004 30.5764V43.6649Z" fill="#FBC2A5"/>
<path d="M128.004 30.5764V43.6649" stroke="#2B4257" stroke-miterlimit="10" stroke-linecap="round"/>
<path d="M116.402 38.1338C119.746 37.5606 122.203 35.6622 122.203 33.3877C122.198 32.8266 122.05 32.2761 121.772 31.7886L116.402 31.8579V38.1338Z" fill="#2B4257"/>
<path d="M107.18 9.69312L109.297 26.3814H104.734L107.18 9.69312Z" fill="#F39B92"/>
<path d="M109.297 26.3816H104.734" stroke="#2B4257" stroke-miterlimit="10" stroke-linecap="round"/>
<path d="M116.402 43.8108V31.876" stroke="#FFF1D7" stroke-miterlimit="10" stroke-linecap="round"/>
<path d="M115.766 36.1367H114.722C112.723 36.1367 110.805 35.3424 109.391 33.9286C107.978 32.5147 107.183 30.5971 107.183 28.5976V9.68599L124.708 9.68599C125.563 9.68599 126.384 10.026 126.99 10.6313C127.595 11.2365 127.935 12.0574 127.935 12.9134V23.9573C127.935 27.1865 126.652 30.2835 124.369 32.5669C122.085 34.8503 118.988 36.1331 115.759 36.1331L115.766 36.1367Z" fill="#FBC2A5"/>
<path d="M127.464 5.13335C124.169 3.75776 120.511 3.51381 117.063 4.43968H117.022C115.415 4.84318 113.861 5.43635 112.393 6.20671C99.9253 12.8185 103.456 20.4963 103.456 20.4963C110.392 18.6709 112.4 15.4398 114.459 12.6359L121.761 22.0808L128.22 33.7819C141.067 23.1031 138.004 9.60569 127.464 5.13335Z" fill="#2B4257"/>
<path d="M112.393 6.20654C99.9253 12.8183 103.456 20.4961 103.456 20.4961" stroke="#586977" stroke-miterlimit="10" stroke-linecap="round"/>
<path d="M117.647 18.4591C119.808 18.4591 121.56 16.7069 121.56 14.5454C121.56 12.3838 119.808 10.6316 117.647 10.6316C115.485 10.6316 113.733 12.3838 113.733 14.5454C113.733 16.7069 115.485 18.4591 117.647 18.4591Z" fill="#2B4257"/>
<path d="M121.458 21.5258C123.62 21.5258 125.372 19.7735 125.372 17.612C125.372 15.4505 123.62 13.6982 121.458 13.6982C119.297 13.6982 117.544 15.4505 117.544 17.612C117.544 19.7735 119.297 21.5258 121.458 21.5258Z" fill="#2B4257"/>
<path d="M107.18 26.9402V28.594C107.178 29.5862 107.373 30.569 107.752 31.4859C108.131 32.4028 108.687 33.2358 109.389 33.9372C110.091 34.6387 110.924 35.1947 111.841 35.5734C112.758 35.9521 113.741 36.146 114.733 36.1441" stroke="#FFF1D7" stroke-miterlimit="10" stroke-linecap="round"/>
<path d="M113.711 22.3035C113.637 22.245 113.571 22.1776 113.514 22.1027C113.425 21.9965 113.313 21.9123 113.186 21.8566C113.06 21.8008 112.922 21.7751 112.784 21.7815H109.209V24.3152C109.209 25.0414 109.498 25.7378 110.011 26.2514C110.525 26.7649 111.221 27.0533 111.948 27.0533C112.308 27.0538 112.664 26.9834 112.997 26.846C113.329 26.7086 113.632 26.507 113.886 26.2526C114.141 25.9983 114.343 25.6963 114.481 25.3639C114.619 25.0314 114.689 24.6751 114.689 24.3152C114.691 23.9273 114.604 23.5442 114.435 23.1953C114.265 22.8465 114.017 22.5414 113.711 22.3035Z" fill="#F4AB9D"/>
<path d="M109.217 21.314C109.374 22.3399 110.352 22.9971 111.623 22.8328C112.43 22.7175 113.174 22.3313 113.733 21.7375C113.576 20.7116 112.598 20.0544 111.327 20.2187C110.519 20.3323 109.775 20.7188 109.217 21.314Z" fill="#F7F7F7"/>
<path d="M109.217 21.314C109.374 22.3399 110.352 22.997 111.623 22.8327C112.43 22.7175 113.174 22.3312 113.733 21.7375" stroke="#2B4257" stroke-miterlimit="10" stroke-linecap="round"/>
<path d="M110.925 21.6771C110.961 21.5077 110.883 21.3468 110.749 21.3177C110.615 21.2887 110.476 21.4026 110.44 21.572C110.403 21.7415 110.482 21.9024 110.616 21.9315C110.75 21.9605 110.888 21.8466 110.925 21.6771Z" fill="#2B4257"/>
<path d="M115.818 25.5782C116.866 25.5782 117.716 24.7282 117.716 23.6797C117.716 22.6312 116.866 21.7812 115.818 21.7812C114.769 21.7812 113.919 22.6312 113.919 23.6797C113.919 24.7282 114.769 25.5782 115.818 25.5782Z" fill="#E57873"/>
<path d="M109.702 18.6526C110.221 18.4608 110.781 18.4094 111.326 18.5037C111.871 18.5979 112.381 18.8344 112.806 19.1893" stroke="#2B4257" stroke-miterlimit="10" stroke-linecap="round"/>
<path d="M111.254 26.5493C110.946 26.9246 110.545 27.2122 110.09 27.3833C109.636 27.5544 109.145 27.603 108.666 27.5241" stroke="#2B4257" stroke-miterlimit="10" stroke-linecap="round"/>
<path d="M123.065 27.3526C124.797 27.3526 126.201 25.9485 126.201 24.2164C126.201 22.4844 124.797 21.0803 123.065 21.0803C121.333 21.0803 119.928 22.4844 119.928 24.2164C119.928 25.9485 121.333 27.3526 123.065 27.3526Z" fill="#FBC2A5"/>
<path d="M123.065 25.8229C123.952 25.8229 124.671 25.1037 124.671 24.2165C124.671 23.3293 123.952 22.6101 123.065 22.6101C122.177 22.6101 121.458 23.3293 121.458 24.2165C121.458 25.1037 122.177 25.8229 123.065 25.8229Z" fill="#F4AB9D"/>
<path d="M127.073 283.872H16.5498" stroke="#2B4257" stroke-miterlimit="10" stroke-linecap="round"/>
<path d="M9.34293 283.872H5.26123" stroke="#2B4257" stroke-miterlimit="10" stroke-linecap="round"/>
<path d="M101.875 94.3503C97.366 94.3503 92.6162 92.8498 87.6912 89.8597C81.1196 85.8766 74.1536 79.2283 66.3517 69.5388L80.5902 58.0896C88.5126 67.947 93.989 72.3281 97.1871 74.2558C100.068 76.0082 101.758 76.198 102.298 76.041C104.175 75.4861 106.815 69.2102 107.34 64.0515L125.5 65.9062C125.259 68.261 122.711 89.0309 107.486 93.5434C105.665 94.082 103.775 94.3538 101.875 94.3503Z" fill="#828181"/>
<path d="M80.5719 58.0896C88.4943 67.947 93.9707 72.3281 97.1689 74.2558C100.049 76.0082 101.74 76.198 102.28 76.041C104.157 75.4861 106.796 69.2102 107.322 64.0515" stroke="#FFF1D7" stroke-miterlimit="10" stroke-linecap="round"/>
<path d="M125.482 65.906C125.241 68.2608 122.692 89.0308 107.468 93.5433C105.652 94.0801 103.768 94.3519 101.875 94.3501C97.366 94.3501 92.6162 92.8496 87.6912 89.8595" stroke="#2B4257" stroke-miterlimit="10" stroke-linecap="round"/>
<path d="M108.676 252.861L79.524 251.036C84.9018 164.509 105.237 107.482 106.099 105.098L133.565 115.036L119.845 110.082L133.579 115.04C133.371 115.587 113.773 170.814 108.676 252.861Z" fill="#628ECC"/>
<path d="M133.568 115.04C133.371 115.587 113.773 170.815 108.677 252.861" stroke="#2B4257" stroke-miterlimit="10" stroke-linecap="round"/>
<path d="M42.4127 73.6533C42.4127 73.6533 40.9523 67.3189 35.3847 67.0159C29.8171 66.7129 29.985 65.9207 29.985 65.9207C29.985 65.9207 29.7295 76.5667 42.4127 73.6533Z" fill="#5BC0C3"/>
<path d="M42.4127 73.6532C42.4127 73.6532 40.9524 67.3189 35.3848 67.0159" stroke="#FFF1D7" stroke-miterlimit="10" stroke-linecap="round"/>
<path d="M29.9851 65.906C29.9851 65.906 29.7296 76.5666 42.3982 73.6532" stroke="#2B4257" stroke-miterlimit="10" stroke-linecap="round"/>
<path d="M51.8759 80.7726C51.8759 80.7726 48.7726 76.6543 44.6398 78.2169C40.507 79.7795 40.3683 79.1552 40.3683 79.1552C40.3683 79.1552 43.6249 86.9791 51.8759 80.7726Z" fill="#5BC0C3"/>
<path d="M51.8758 80.7726C51.8758 80.7726 48.7726 76.6543 44.6398 78.2169" stroke="#FFF1D7" stroke-miterlimit="10" stroke-linecap="round"/>
<path d="M40.3683 79.1697C40.3683 79.1697 43.6249 86.9789 51.8759 80.7724" stroke="#2B4257" stroke-miterlimit="10" stroke-linecap="round"/>
<path d="M35.6951 24.4246C35.6951 24.4246 33.8186 17.247 35.6951 14.5672C37.5717 11.8874 39.7768 15.7866 38.3676 16.6774C36.9583 17.5682 36.4326 16.1152 36.8378 15.4106" stroke="#2B4257" stroke-miterlimit="10" stroke-linecap="round"/>
<path d="M37.5898 24.8043C37.5898 24.8043 38.32 17.4185 40.9925 15.5602C43.6649 13.7019 44.4024 18.1158 42.7741 18.4809C41.1458 18.846 41.1495 17.2834 41.7738 16.765" stroke="#2B4257" stroke-miterlimit="10" stroke-linecap="round"/>
<path d="M57.4143 33.143C59.5271 35.3626 62.2579 36.8965 65.2528 37.5459C67.1476 33.5008 68.67 27.9331 68.5787 20.5437C68.5787 20.5437 75.4059 17.9881 72.4012 15.6771C63.4821 8.84261 64.7344 18.0721 64.7344 18.0721C64.7344 18.0721 58.2504 20.6825 57.4143 33.143Z" fill="#2B4257"/>
<path d="M63.7814 5.55668C64.1648 8.92868 64.7648 12.2725 65.5777 15.5674C65.5984 15.6478 65.6458 15.7186 65.7122 15.7684C65.7785 15.8182 65.8598 15.8439 65.9428 15.8413C65.9731 15.8448 66.0037 15.8448 66.034 15.8413C66.0806 15.8293 66.1243 15.8084 66.1627 15.7795C66.2012 15.7507 66.2335 15.7145 66.2579 15.6731C66.2824 15.6317 66.2984 15.5859 66.305 15.5384C66.3117 15.4908 66.309 15.4424 66.2969 15.3958C65.47 12.0321 64.8674 8.61703 64.4933 5.17334C64.267 5.20985 64.0443 5.25366 63.8179 5.30112H63.7668C63.7632 5.38509 63.7705 5.47636 63.7814 5.55668Z" fill="#2B4257"/>
<path d="M71.1088 16.4729C71.4906 13.0949 72.0894 9.74496 72.9014 6.44386C72.675 6.33433 72.4487 6.22846 72.2187 6.12988C72.2004 6.2175 72.1748 6.29782 72.1529 6.38545C71.3487 9.68341 70.7572 13.0297 70.3823 16.4035C70.3731 16.4998 70.4026 16.5959 70.4642 16.6705C70.5258 16.7451 70.6145 16.7922 70.7108 16.8014H70.7473C70.8375 16.801 70.9244 16.7672 70.9911 16.7065C71.0578 16.6458 71.0998 16.5626 71.1088 16.4729Z" fill="#2B4257"/>
<path d="M68.502 17.1227C69.7199 17.1227 70.7072 16.549 70.7072 15.8413C70.7072 15.1335 69.7199 14.5598 68.502 14.5598C67.2841 14.5598 66.2969 15.1335 66.2969 15.8413C66.2969 16.549 67.2841 17.1227 68.502 17.1227Z" fill="white"/>
<path d="M66.2969 15.8413C66.522 16.2269 66.8442 16.5467 67.2314 16.769C67.6187 16.9913 68.0574 17.1083 68.5038 17.1083C68.9503 17.1083 69.389 16.9913 69.7762 16.769C70.1635 16.5467 70.4857 16.2269 70.7108 15.8413" stroke="#2B4257" stroke-miterlimit="10" stroke-linecap="round"/>
<path d="M69.2469 16.1883C69.3961 16.1883 69.517 15.9791 69.517 15.721C69.517 15.4629 69.3961 15.2537 69.2469 15.2537C69.0976 15.2537 68.9767 15.4629 68.9767 15.721C68.9767 15.9791 69.0976 16.1883 69.2469 16.1883Z" fill="#354B5F"/>
</g>
<defs>
<clipPath id="clip0_601_778">
<rect x="0.0952148" width="198.426" height="284.237" fill="white"/>
</clipPath>
</defs>
</svg>
