<svg width="887" height="821" viewBox="0 0 887 821" fill="none" xmlns="http://www.w3.org/2000/svg">
<g clip-path="url(#clip0_16_329)">
<rect width="887" height="821" fill="white"/>
<path d="M320.02 272.94L292.5 354.46L220.75 361.38C220.75 361.38 275.59 315.25 283.14 262.66C290.69 210.07 320.02 272.94 320.02 272.94Z" fill="#D4A79A"/>
<path d="M425.12 119.74C425.12 119.74 434.02 142.37 404.28 195.85C374.54 249.33 338.55 292.05 322.23 283.78C277.12 260.92 269.78 222.49 261.3 188.9C250.9 147.71 315.38 72.2901 315.38 72.2901L359.2 62.3601L425.12 119.74Z" fill="#EAC2AB"/>
<path d="M483.98 119.54C488.98 105.92 488.18 90.63 478.23 75.91C475.35 71.65 471.16 68.29 466.28 67.43C462.61 66.78 458.62 67.54 455.24 65.95C445.09 61.21 448.19 45.16 439.2 39.22C432.49 34.79 423.57 39.49 415.56 39.16C409.51 38.91 404.08 35.75 398.71 32.96C383.59 25.11 370.86 13.25 354.95 6.67C341.52 1.12 326.61 -1.36 312.17 1.88C297.1 5.26 284.09 15.57 274.9 29.11C269.41 37.21 265.68 46.89 265.53 56.71C265.65 48.64 249.87 52.94 246.84 55.3C234.99 64.52 226.5 89.33 227.3 104.12C227.93 115.83 231.26 126.98 231.54 138.76C232.15 164.53 229.38 207.43 267.54 208.13C266.53 195.01 265.62 181.64 268.39 168.62C273.34 145.43 283.65 114.78 305.07 101.6C350.3 73.79 365.52 146.13 399.73 159.82C431.58 172.59 472.65 150.38 483.98 119.54Z" fill="#4B369D"/>
<path d="M280.11 126.98C280.11 126.98 268.06 102.2 261.52 133.07C254.99 163.95 269.13 174.64 269.13 174.64L280.11 126.98Z" fill="#EAC2AB"/>
<path d="M356.45 563.6C353.18 521.3 347.33 476.56 337.54 434.22C329.97 401.49 322.86 356.67 290.66 338.02C230.35 303.08 191.54 389.34 180.89 434.74C168.75 486.46 170.29 540.95 169.73 593.74C169.23 641.08 162.57 693.25 169.01 739.78C170.15 747.99 173.15 756.41 179.58 761.64C195.93 774.94 212.79 757.31 226.55 749.47C239.42 742.13 253.05 743.34 266.72 738.41C278.73 734.08 284.64 725.1 294.69 718.12C321.05 699.8 349.43 729.27 378 723.75C440.1 711.75 392.69 728.68 367.7 603.92C365.15 591.21 357.61 578.66 356.45 563.6Z" fill="#F44E4E"/>
<path d="M517.89 470.36C541.48 455.15 550.62 421.01 572.44 402.71C581.33 395.26 591.87 390.84 602.32 386.75C617.24 380.9 632.31 375.51 647.49 370.59C646.54 378.35 640.56 384.1 634.35 387.53C628.14 390.96 621.27 392.91 615.49 397.21C612.94 399.1 610.6 401.52 609.28 404.63C606.31 411.62 609.19 420.02 607.94 427.65C605.59 441.96 590.91 447.8 579.66 454.8C556.43 469.25 541.42 497.72 517.21 509.92C517.21 509.92 335.53 660.77 313.13 656.6C290.73 652.43 259.82 446.68 259.82 446.68C259.82 446.68 238.5 340.64 294.51 391.44C350.52 442.24 316.04 610.99 343.72 593.57C371.38 576.14 517.89 470.36 517.89 470.36Z" fill="#EAC2AB"/>
<path d="M334.84 475.44C334.84 475.44 328.41 344.74 274.2 355.53C219.99 366.32 254.8 513.03 254.8 513.03L343.26 494.09L334.84 475.44Z" fill="#D7384E"/>
<path d="M457.09 795.21H91.2099C74.9299 795.21 61.6099 781.89 61.6099 765.61V723.88C61.6099 707.6 74.9299 694.28 91.2099 694.28H457.09C473.37 694.28 486.69 707.6 486.69 723.88V765.61C486.68 781.89 473.36 795.21 457.09 795.21Z" fill="#E3E5FC"/>
<path d="M265.37 820.42H20.6999C9.80991 820.42 0.909912 811.51 0.909912 800.63V772.73C0.909912 761.84 9.81991 752.94 20.6999 752.94H265.37C276.26 752.94 285.16 761.85 285.16 772.73V800.63C285.16 811.52 276.25 820.42 265.37 820.42Z" fill="#F44E4E"/>
<path d="M252.73 788.34L251.83 789.44C251.48 789.87 250.84 789.93 250.41 789.58L230 772.96C229.57 772.61 229.51 771.97 229.86 771.54L230.76 770.44C231.11 770.01 231.75 769.95 232.18 770.3L252.59 786.92C253.01 787.27 253.08 787.91 252.73 788.34Z" fill="white"/>
<path d="M252.73 787.47L251.83 786.37C251.48 785.94 250.84 785.88 250.41 786.23L230 802.85C229.57 803.2 229.51 803.84 229.86 804.27L230.76 805.37C231.11 805.8 231.75 805.86 232.18 805.51L252.59 788.89C253.01 788.53 253.08 787.89 252.73 787.47Z" fill="white"/>
<path d="M224.23 788.34L223.33 789.44C222.98 789.87 222.34 789.93 221.91 789.58L201.5 772.96C201.07 772.61 201.01 771.97 201.36 771.54L202.26 770.44C202.61 770.01 203.25 769.95 203.68 770.3L224.09 786.92C224.52 787.27 224.58 787.91 224.23 788.34Z" fill="white"/>
<path d="M224.23 787.47L223.33 786.37C222.98 785.94 222.34 785.88 221.91 786.23L201.5 802.85C201.07 803.2 201.01 803.84 201.36 804.27L202.26 805.37C202.61 805.8 203.25 805.86 203.68 805.51L224.09 788.89C224.52 788.53 224.58 787.89 224.23 787.47Z" fill="white"/>
<path d="M193.13 788.34L192.23 789.44C191.88 789.87 191.24 789.93 190.81 789.58L170.4 772.96C169.97 772.61 169.91 771.97 170.26 771.54L171.16 770.44C171.51 770.01 172.15 769.95 172.58 770.3L192.99 786.92C193.42 787.27 193.48 787.91 193.13 788.34Z" fill="white"/>
<path d="M193.13 787.47L192.23 786.37C191.88 785.94 191.24 785.88 190.81 786.23L170.4 802.85C169.97 803.2 169.91 803.84 170.26 804.27L171.16 805.37C171.51 805.8 172.15 805.86 172.58 805.51L192.99 788.89C193.42 788.53 193.48 787.89 193.13 787.47Z" fill="white"/>
<path opacity="0.26" d="M844.14 507.55L473.76 635.96C450.26 635.96 431.21 616.91 431.21 593.41V410.53C431.21 387.03 450.26 367.98 473.76 367.98L844.14 239.57C867.64 239.57 886.69 258.62 886.69 282.12V465C886.69 488.5 867.64 507.55 844.14 507.55Z" fill="#A7ADFF"/>
<path opacity="0.13" d="M821.28 496.76L450.9 625.17C427.4 625.17 408.35 606.12 408.35 582.62V399.75C408.35 376.25 427.4 357.2 450.9 357.2L821.28 228.79C844.78 228.79 863.83 247.84 863.83 271.34V454.21C863.83 477.71 844.78 496.76 821.28 496.76Z" fill="#A7ADFF"/>
<path opacity="0.39" d="M598.41 442.09L484.13 481.71C476.88 481.71 471 475.83 471 468.58V412.15C471 404.9 476.88 399.02 484.13 399.02L598.41 359.4C605.66 359.4 611.54 365.28 611.54 372.53V428.96C611.54 436.21 605.66 442.09 598.41 442.09Z" fill="white"/>
<path d="M857.48 178.38L743.2 218C735.95 218 730.07 212.12 730.07 204.87V148.44C730.07 141.19 735.95 135.31 743.2 135.31L857.48 95.6899C864.73 95.6899 870.61 101.57 870.61 108.82V165.25C870.61 172.5 864.73 178.38 857.48 178.38Z" fill="#A7ADFF"/>
<path d="M814.16 163.41L705.96 200.92C699.09 200.92 693.53 195.35 693.53 188.49V135.07C693.53 128.2 699.1 122.64 705.96 122.64L814.16 85.1299C821.03 85.1299 826.59 90.6999 826.59 97.5599V150.98C826.59 157.85 821.02 163.41 814.16 163.41Z" fill="#E3E5FC"/>
<path d="M851.4 598.87L743.2 636.38C736.33 636.38 730.77 630.81 730.77 623.95V570.53C730.77 563.66 736.34 558.1 743.2 558.1L851.4 520.59C858.27 520.59 863.83 526.16 863.83 533.02V586.44C863.83 593.31 858.27 598.87 851.4 598.87Z" fill="#E3E5FC"/>
<path d="M671.85 617.07L557.57 656.69C550.32 656.69 544.44 650.81 544.44 643.56V587.14C544.44 579.89 550.32 574.01 557.57 574.01L671.85 534.39C679.1 534.39 684.98 540.27 684.98 547.52V603.95C684.98 611.19 679.1 617.07 671.85 617.07Z" fill="#A7ADFF"/>
<path opacity="0.51" d="M598.41 545.21L484.13 584.83C476.88 584.83 471 578.95 471 571.7V515.27C471 508.02 476.88 502.14 484.13 502.14L598.41 462.52C605.66 462.52 611.54 468.4 611.54 475.65V532.08C611.54 539.33 605.66 545.21 598.41 545.21Z" fill="white"/>
<path opacity="0.51" d="M653.3 510.2C650.51 510.2 648.22 507.91 648.22 505.12V419.94C648.22 417.15 650.51 414.86 653.3 414.86C656.09 414.86 658.38 417.15 658.38 419.94V505.12C658.38 507.91 656.1 510.2 653.3 510.2Z" fill="white"/>
<path opacity="0.51" d="M680.63 343.6C679.69 340.97 681.08 338.05 683.71 337.11L818.87 288.88C821.5 287.94 824.42 289.33 825.36 291.96C826.3 294.59 824.91 297.51 822.28 298.45L687.12 346.68C684.49 347.62 681.57 346.23 680.63 343.6Z" fill="white"/>
<path opacity="0.51" d="M680.63 362.02C679.69 359.39 681.08 356.47 683.71 355.53L818.87 307.3C821.5 306.36 824.42 307.75 825.36 310.38C826.3 313.01 824.91 315.93 822.28 316.87L687.12 365.1C684.49 366.03 681.57 364.65 680.63 362.02Z" fill="white"/>
<path opacity="0.51" d="M680.63 380.43C679.69 377.8 681.08 374.88 683.71 373.94L818.87 325.71C821.5 324.77 824.42 326.16 825.36 328.79C826.3 331.42 824.91 334.34 822.28 335.28L687.12 383.51C684.49 384.45 681.57 383.06 680.63 380.43Z" fill="white"/>
<path opacity="0.51" d="M680.63 398.85C679.69 396.22 681.08 393.3 683.71 392.36L818.87 344.13C821.5 343.19 824.42 344.58 825.36 347.21C826.3 349.84 824.91 352.76 822.28 353.7L687.12 401.93C684.49 402.86 681.57 401.48 680.63 398.85Z" fill="white"/>
<path opacity="0.51" d="M680.63 417.26C679.69 414.63 681.08 411.71 683.71 410.77L818.87 362.54C821.5 361.6 824.42 362.99 825.36 365.62C826.3 368.25 824.91 371.17 822.28 372.11L687.12 420.34C684.49 421.28 681.57 419.89 680.63 417.26Z" fill="white"/>
<path opacity="0.51" d="M680.63 435.67C679.69 433.04 681.08 430.12 683.71 429.18L818.87 380.95C821.5 380.01 824.42 381.4 825.36 384.03C826.3 386.66 824.91 389.58 822.28 390.52L687.12 438.75C684.49 439.69 681.57 438.3 680.63 435.67Z" fill="white"/>
<path opacity="0.51" d="M680.63 454.09C679.69 451.46 681.08 448.54 683.71 447.6L818.87 399.37C821.5 398.43 824.42 399.82 825.36 402.45C826.3 405.08 824.91 408 822.28 408.94L687.12 457.17C684.49 458.1 681.57 456.72 680.63 454.09Z" fill="white"/>
<path opacity="0.51" d="M680.63 472.5C679.69 469.87 681.08 466.95 683.71 466.01L818.87 417.78C821.5 416.84 824.42 418.23 825.36 420.86C826.3 423.49 824.91 426.41 822.28 427.35L687.12 475.58C684.49 476.52 681.57 475.13 680.63 472.5Z" fill="white"/>
<path opacity="0.51" d="M680.63 490.92C679.69 488.29 681.08 485.37 683.71 484.43L818.87 436.2C821.5 435.26 824.42 436.65 825.36 439.28C826.3 441.91 824.91 444.83 822.28 445.77L687.12 494C684.49 494.93 681.57 493.55 680.63 490.92Z" fill="white"/>
<path opacity="0.51" d="M680.63 509.33C679.69 506.7 681.08 503.78 683.71 502.84L818.87 454.61C821.5 453.67 824.42 455.06 825.36 457.69C826.3 460.32 824.91 463.24 822.28 464.18L687.12 512.41C684.49 513.35 681.57 511.96 680.63 509.33Z" fill="white"/>
<path d="M619.28 196.78C620.54 196 621.86 195.3 623.2 194.68C641.05 186.49 662.23 194.35 670.43 212.2C678.62 230.05 670.76 251.23 652.91 259.42L649.35 251.66C662.92 245.43 668.89 229.33 662.67 215.76C656.44 202.19 640.34 196.22 626.77 202.44C625.75 202.91 624.74 203.45 623.78 204.04L619.28 196.78Z" fill="#E3E5FC"/>
<path d="M640.6 260.37L656.36 261.85L649.76 247.45L640.6 260.37Z" fill="#E3E5FC"/>
<path d="M637.58 266.15C636.32 266.93 635 267.63 633.66 268.25C615.81 276.44 594.62 268.58 586.43 250.73C578.24 232.88 586.1 211.7 603.95 203.51L607.51 211.27C593.94 217.5 587.97 233.6 594.19 247.17C600.42 260.74 616.52 266.71 630.09 260.49C631.11 260.02 632.12 259.48 633.08 258.89L637.58 266.15Z" fill="#E3E5FC"/>
<path d="M616.27 202.56L600.5 201.08L607.1 215.47L616.27 202.56Z" fill="#E3E5FC"/>
<path opacity="0.36" d="M653.3 393.56C667.709 393.56 679.39 381.879 679.39 367.47C679.39 353.061 667.709 341.38 653.3 341.38C638.891 341.38 627.21 353.061 627.21 367.47C627.21 381.879 638.891 393.56 653.3 393.56Z" fill="#F44E4E"/>
<path d="M653.3 380.52C660.507 380.52 666.35 374.677 666.35 367.47C666.35 360.263 660.507 354.42 653.3 354.42C646.093 354.42 640.25 360.263 640.25 367.47C640.25 374.677 646.093 380.52 653.3 380.52Z" fill="#F44E4E"/>
<path opacity="0.36" d="M653.3 385.92C663.49 385.92 671.75 377.659 671.75 367.47C671.75 357.28 663.49 349.02 653.3 349.02C643.11 349.02 634.85 357.28 634.85 367.47C634.85 377.659 643.11 385.92 653.3 385.92Z" fill="#F44E4E"/>
</g>
<defs>
<clipPath id="clip0_16_329">
<rect width="887" height="821" fill="white"/>
</clipPath>
</defs>
</svg>
