<svg width="400" height="400" viewBox="0 0 400 400" fill="none" xmlns="http://www.w3.org/2000/svg">
<path d="M171.282 47.5181C170.541 47.5414 169.812 47.7198 169.144 48.0417C168.475 48.3636 167.882 48.8219 167.401 49.387C166.92 49.9522 166.563 50.6118 166.353 51.3233C166.143 52.0348 166.084 52.7824 166.18 53.5181C166.48 56.8201 166.78 60.4221 166.78 63.7181C166.805 64.2751 166.942 64.8213 167.185 65.3233C167.428 65.8253 167.77 66.2726 168.191 66.6378C168.613 67.0029 169.104 67.2784 169.636 67.4473C170.167 67.6162 170.727 67.675 171.282 67.6201C180.282 67.0201 183.882 63.7181 183.59 56.8201C182.988 49.6181 178.786 47.5181 171.282 47.5181Z" fill="#38A1FF"/>
<path d="M172.484 76.032C171.397 76.1798 170.402 76.7184 169.684 77.547C168.966 78.3756 168.574 79.4375 168.582 80.534C168.882 84.734 169.182 88.334 169.482 92.24C169.544 92.8775 169.749 93.4927 170.082 94.04C174.304 88.3184 179.36 83.2622 185.082 79.04C182.988 76.632 178.786 75.432 172.484 76.032Z" fill="#38A1FF"/>
<path d="M148.17 30.4C132.262 36.4 119.656 46.6 113.952 60.416C110.886 71.845 111.624 83.9615 116.054 94.934C120.138 105.294 127.246 114.185 136.454 120.448C143.809 118.598 151.387 117.79 158.966 118.048C159.995 114.061 161.299 110.149 162.868 106.342L163.768 104.542L152.662 106.042C152.399 106.11 152.124 106.113 151.859 106.051C151.595 105.99 151.349 105.865 151.143 105.689C150.937 105.512 150.777 105.288 150.676 105.037C150.574 104.785 150.535 104.512 150.562 104.242C150.562 103.34 151.162 102.14 152.062 102.14C153.993 101.665 155.702 100.542 156.904 98.9571C158.105 97.3726 158.726 95.4235 158.662 93.436C158.362 87.732 155.96 59.818 155.36 53.814C155.155 51.7636 154.227 49.8532 152.742 48.4242C151.257 46.9952 149.313 46.1409 147.256 46.014C146.056 46.014 145.456 45.114 145.154 43.914C145.125 43.3992 145.296 42.8931 145.632 42.5014C145.967 42.1098 146.441 41.8628 146.954 41.812L162.862 41.512H164.662L164.362 35.808C164.231 35.1146 164.246 34.4015 164.406 33.7142C164.566 33.0269 164.868 32.3805 165.291 31.8161C165.715 31.2516 166.251 30.7816 166.866 30.4359C167.481 30.0901 168.162 29.8763 168.864 29.808C171.564 29.808 173.664 32.51 173.966 35.808L174.266 41.512C184.772 42.112 191.076 47.816 191.666 55.912C191.843 58.2358 191.41 60.5655 190.409 62.6703C189.409 64.7751 187.876 66.582 185.962 67.912C185.615 68.1724 185.345 68.5211 185.179 68.9218C185.013 69.3224 184.958 69.7603 185.019 70.1895C185.081 70.6188 185.256 71.0237 185.528 71.3619C185.799 71.7001 186.156 71.9592 186.562 72.112C188.542 72.7458 190.378 73.7654 191.962 75.112C194.675 73.6321 197.481 72.3288 200.362 71.21C206.498 69.0767 212.833 67.5684 219.272 66.708C218.972 65.206 218.372 63.708 218.072 62.508C208.502 34.31 177.286 19.902 148.17 30.4Z" fill="#38A1FF"/>
<path d="M242.72 157.076C252.32 157.076 257.12 153.774 257.72 147.17C258.32 140.266 254.12 136.37 243.614 135.77C242.461 135.732 241.339 136.153 240.496 136.94C239.652 137.727 239.154 138.817 239.112 139.97C238.81 144.17 238.512 148.37 238.512 152.276C238.411 152.879 238.445 153.496 238.612 154.084C238.779 154.672 239.074 155.215 239.477 155.675C239.88 156.134 240.38 156.498 240.941 156.741C241.502 156.983 242.109 157.098 242.72 157.076Z" fill="#38A1FF"/>
<path d="M243.622 126.76C253.222 127.36 257.422 124.658 257.728 117.454C258.328 109.95 254.428 106.948 246.328 106.054C245.557 105.982 244.78 106.066 244.042 106.301C243.304 106.535 242.621 106.916 242.033 107.42C241.445 107.923 240.964 108.54 240.619 109.233C240.274 109.926 240.072 110.681 240.024 111.454C239.724 115.054 239.424 118.654 239.424 121.958C239.376 122.551 239.448 123.147 239.634 123.712C239.82 124.276 240.118 124.798 240.509 125.245C240.901 125.693 241.378 126.058 241.912 126.318C242.447 126.578 243.028 126.728 243.622 126.76Z" fill="#38A1FF"/>
<path d="M287.444 117.754C277.244 89.84 246.022 75.432 216.908 85.938C209.063 88.7943 201.922 93.3 195.967 99.1511C190.012 105.002 185.382 112.063 182.388 119.856C182.433 120.279 182.327 120.704 182.088 121.056C186.425 122.003 190.649 123.411 194.688 125.256C208.322 131.484 219.21 142.48 225.304 156.174C226.237 154.969 226.762 153.498 226.804 151.974C227.104 145.974 228.906 116.856 229.204 110.552C229.316 108.396 228.651 106.272 227.329 104.565C226.008 102.857 224.119 101.681 222.004 101.248C221.465 101.133 220.985 100.826 220.655 100.385C220.324 99.9438 220.164 99.3979 220.204 98.848C220.213 98.5602 220.287 98.2783 220.42 98.023C220.553 97.7677 220.742 97.5454 220.972 97.3727C221.203 97.2 221.469 97.0811 221.751 97.0249C222.034 96.9687 222.325 96.9766 222.604 97.048L241.204 99.448L241.504 93.746C241.804 90.444 244.206 87.746 246.904 88.346C249.604 88.648 251.704 91.946 251.406 95.25L251.106 100.954C261.906 103.054 267.614 109.954 267.014 118.354C266.891 120.828 266.101 123.222 264.728 125.283C263.354 127.344 261.449 128.996 259.214 130.062C258.806 130.279 258.464 130.604 258.226 131C257.988 131.397 257.862 131.85 257.862 132.313C257.862 132.776 257.988 133.229 258.226 133.626C258.464 134.022 258.806 134.347 259.214 134.564C265.516 137.866 267.918 142.668 267.614 148.364C267.014 155.87 261.014 163.674 246.904 164.574L246.602 170.876C246.302 173.876 244.202 176.58 241.5 176.58C240.811 176.55 240.137 176.371 239.523 176.057C238.909 175.743 238.371 175.3 237.943 174.758C237.516 174.217 237.211 173.59 237.047 172.92C236.884 172.25 236.867 171.553 236.998 170.876L237.298 164.574H228.298C230.143 170.594 230.954 176.883 230.698 183.174C245.761 179.712 260.988 177.007 276.322 175.07C289.846 158.876 294.648 137.264 287.444 117.754Z" fill="#38A1FF"/>
<path d="M171.282 163.68C166.78 157.976 161.978 158.28 155.374 162.778C154.746 163.224 154.219 163.797 153.829 164.461C153.438 165.124 153.192 165.863 153.107 166.628C153.022 167.394 153.1 168.168 153.336 168.901C153.571 169.635 153.959 170.31 154.474 170.882C156.576 173.584 158.976 176.586 161.074 179.282C161.814 180.204 162.877 180.809 164.047 180.977C165.218 181.144 166.408 180.86 167.376 180.182C174.584 174.184 175.786 169.382 171.282 163.68Z" fill="#38A1FF"/>
<path d="M191.094 185.6C186.894 180.2 181.188 179.898 173.094 186.502C172.21 187.278 171.655 188.363 171.543 189.534C171.432 190.705 171.772 191.875 172.494 192.804C173.394 194.004 174.294 194.906 175.194 196.106C181.194 194.606 187.194 192.804 193.504 191.306C193.227 189.222 192.394 187.252 191.094 185.6Z" fill="#38A1FF"/>
<path d="M219 169.382C208.8 141.468 177.586 127.06 148.47 137.566C118.754 148.366 103.146 181.088 113.352 210.204C113.952 211.104 114.252 212.306 114.852 213.204C127.452 209.604 144.568 204.5 163.178 199.404C161.978 198.204 149.378 182.004 145.47 177.192C144.042 175.571 142.108 174.481 139.982 174.1C137.856 173.719 135.664 174.068 133.762 175.092C133.274 175.372 132.701 175.466 132.149 175.355C131.598 175.245 131.105 174.938 130.762 174.492C130.566 174.284 130.418 174.036 130.326 173.766C130.234 173.495 130.201 173.208 130.23 172.924C130.258 172.64 130.347 172.365 130.491 172.118C130.634 171.871 130.829 171.657 131.062 171.492L146.37 160.692L142.77 156.19C140.668 153.488 140.668 149.886 143.07 148.39C144.399 147.711 145.934 147.549 147.375 147.938C148.817 148.326 150.062 149.237 150.87 150.492L154.47 154.994C164.07 149.292 172.78 150.492 177.882 157.394C179.399 159.315 180.39 161.597 180.759 164.016C181.127 166.435 180.86 168.909 179.984 171.194C179.824 171.626 179.786 172.093 179.874 172.545C179.961 172.996 180.171 173.415 180.481 173.756C180.791 174.096 181.188 174.345 181.629 174.475C182.071 174.606 182.539 174.612 182.984 174.494C185.735 173.583 188.697 173.526 191.482 174.33C194.266 175.134 196.742 176.761 198.584 178.998C200.779 181.828 201.944 185.321 201.886 188.902C208.486 187.102 215.086 185.6 221.696 184.102C221.678 179.074 220.765 174.09 219 169.382Z" fill="#38A1FF"/>
<path d="M342.974 317.362L335.174 285.244C337.911 284.23 340.305 282.461 342.078 280.142C342.948 278.886 343.555 277.468 343.864 275.972C344.174 274.476 344.178 272.934 343.878 271.436L332.772 225.812C331.87 221.91 327.372 218.612 319.264 219.51L311.758 188.6C307.558 171.492 305.758 171.2 288.346 173H287.444C292.097 167.691 295.938 161.723 298.844 155.29C305.473 140.274 306.011 123.271 300.346 107.866C297.574 100.257 293.302 93.2808 287.786 87.3517C282.269 81.4226 275.618 76.6607 268.228 73.348C262.963 71.0225 257.411 69.4084 251.72 68.548C244.546 66.8293 237.184 66.0229 229.808 66.148C229.461 60.8166 228.349 55.5627 226.506 50.548C223.811 43.2247 219.692 36.5075 214.387 30.7839C209.083 25.0603 202.698 20.4436 195.6 17.2C190.542 14.8787 185.19 13.2636 179.692 12.4C163.587 8.52627 146.708 9.35928 131.062 14.8C115.02 20.8167 101.978 32.8877 94.742 48.418C91.3144 55.8153 89.4147 63.8282 89.1567 71.9769C88.8986 80.1257 90.2874 88.2427 93.24 95.842C98.04 107.842 107.95 118.354 121.156 125.558C107.299 132.505 96.1933 143.928 89.64 157.976C87.3179 163.033 85.7027 168.386 84.84 173.884C59.924 182.6 53.32 197 55.72 207.8L93.542 365.386C94.6512 369.462 96.5811 373.268 99.2134 376.571C101.846 379.874 105.125 382.605 108.85 384.596C115.882 388.278 123.726 390.136 131.662 390C140.384 389.928 149.024 388.303 157.176 385.2C196.196 371.692 279.64 351.582 319.562 346.178C332.468 344.378 338.762 341.978 341.774 337.474C346.276 332.37 344.776 325.166 342.974 317.362ZM339.374 272.638C339.553 273.525 339.539 274.44 339.332 275.32C339.125 276.201 338.73 277.026 338.174 277.74L337.274 278.64C335.013 280.654 332.18 281.913 329.17 282.24C328.268 282.24 327.37 282.54 326.468 282.54C312.836 284.85 299.392 288.161 286.246 292.446C283.246 293.646 282.646 293.346 282.344 293.346C281.402 292.404 271.544 250.314 271.544 250.124C275.362 246.306 309.426 239.646 314.468 238.724L318.97 237.822C320.147 237.5 321.353 237.299 322.57 237.222C324.221 236.903 325.831 236.4 327.37 235.722C328.482 235.197 329.497 234.486 330.37 233.62L339.374 272.638ZM98.944 50.518C102.145 43.3119 106.775 36.8301 112.554 31.4646C118.332 26.0991 125.139 21.9615 132.562 19.302C138.462 17.1289 144.615 15.7175 150.872 15.102C150.272 15.402 149.972 15.402 149.372 15.702C133.33 21.7194 120.289 33.7902 113.052 49.32C109.624 56.7176 107.724 64.7308 107.466 72.8799C107.208 81.029 108.597 89.1464 111.55 96.746C115.469 106.864 122.12 115.696 130.762 122.258C129.43 122.672 128.126 123.174 126.86 123.76C113.06 116.856 102.546 106.36 97.744 94.644C94.9622 87.5872 93.6346 80.0411 93.8408 72.4586C94.047 64.876 95.7828 57.4133 98.944 50.518ZM280.544 173.584C279.344 173.584 277.842 173.884 276.642 173.884C263.134 175.684 247.526 178.388 231.016 181.988C231.124 175.701 230.316 169.432 228.616 163.378C228.316 162.178 227.714 160.678 227.416 159.478C226.787 158.23 226.284 156.922 225.916 155.574C219.821 141.879 208.931 130.884 195.296 124.658C191.241 122.856 187.021 121.45 182.696 120.458C182.651 120.035 182.757 119.61 182.996 119.258C183.891 115.331 185.2 111.51 186.9 107.858C190.27 100.334 195.114 93.562 201.145 87.9424C207.177 82.3227 214.275 77.9695 222.018 75.14C228.556 72.7602 235.46 71.5418 242.418 71.54C254.162 71.4169 265.658 74.9271 275.33 81.59C285.002 88.2529 292.378 97.7428 296.448 108.76C300.305 119.951 300.857 132.017 298.036 143.513C295.215 155.009 289.141 165.449 280.542 173.584H280.544ZM222.312 184.384C215.712 185.884 209.112 187.384 202.502 189.184C199.502 189.784 196.502 190.686 193.796 191.286C187.494 192.786 181.49 194.588 175.488 196.086C171.586 197.286 167.688 198.188 163.78 199.388C145.18 204.492 128.062 209.588 115.454 213.188C114.854 212.288 114.554 211.086 113.954 210.188L112.154 206.588C109.298 199.236 107.933 191.39 108.139 183.505C108.345 175.621 110.118 167.857 113.354 160.664C116.725 153.143 121.57 146.374 127.601 140.757C133.633 135.14 140.729 130.789 148.47 127.96C155.012 125.579 161.92 124.36 168.882 124.36C180.626 124.237 192.121 127.747 201.793 134.41C211.465 141.073 218.84 150.563 222.91 161.58C225.416 168.609 226.635 176.031 226.51 183.492C225.012 183.8 223.51 184.09 222.31 184.4L222.312 184.384ZM220.2 71.53C211.86 74.5428 204.213 79.2053 197.715 85.239C191.217 91.2727 186.002 98.554 182.38 106.648C180.478 111.007 178.971 115.528 177.878 120.156C173.256 118.995 168.53 118.291 163.77 118.054C164.702 114.565 165.906 111.155 167.37 107.854C170.74 100.33 175.585 93.5582 181.617 87.9385C187.649 82.3189 194.747 77.9656 202.49 75.136C209.046 72.6893 215.913 71.1739 222.89 70.634L220.2 71.53ZM219.9 66.73C213.461 67.5907 207.126 69.099 200.99 71.232C198.109 72.35 195.303 73.6534 192.59 75.134C190.06 76.416 187.65 77.9227 185.39 79.636C179.6 83.7779 174.532 88.8458 170.39 94.636C168.105 97.8604 166.098 101.273 164.39 104.836C164.089 105.436 163.788 106.036 163.488 106.636C161.787 110.393 160.479 114.316 159.586 118.342C152.013 118.233 144.454 119.039 137.074 120.742C127.643 114.724 120.47 105.752 116.674 95.228C112.393 84.2224 111.658 72.1539 114.572 60.71C115.357 57.5055 116.463 54.3883 117.874 51.406C121.075 44.204 125.702 37.7256 131.477 32.3621C137.252 26.9985 144.054 22.8612 151.472 20.2C165.127 15.0091 180.282 15.4435 193.617 21.4082C206.952 27.3728 217.378 38.3811 222.61 52.02C224.324 56.6432 225.335 61.4971 225.61 66.42C223.705 66.2138 221.78 66.3178 219.908 66.728L219.9 66.73ZM149.672 122.858L146.97 123.758C138.63 126.77 130.982 131.432 124.484 137.466C117.986 143.5 112.771 150.782 109.15 158.876C105.574 166.604 103.597 174.975 103.339 183.487C103.081 191.998 104.546 200.474 107.648 208.404C108.526 210.561 109.527 212.665 110.648 214.706C107.048 215.606 104.048 216.506 101.344 217.408C100.744 217.708 100.144 217.708 99.544 218.008C96.7416 214.424 94.4205 210.489 92.64 206.302C89.7842 198.95 88.4195 191.104 88.6255 183.219C88.8316 175.335 90.6041 167.571 93.84 160.378C97.2098 152.854 102.054 146.082 108.086 140.462C114.119 134.842 121.216 130.489 128.96 127.66C135.587 125.038 142.568 123.419 149.672 122.858ZM84.536 178.988C84.236 182.884 84.236 186.798 84.536 190.694C79.674 192.838 75.3636 196.059 71.9314 200.116C68.4992 204.172 66.0351 208.956 64.726 214.106C62.624 212 53.92 188.892 84.536 178.988ZM339.072 334.77C336.972 338.072 330.968 340.17 319.872 341.674C279.95 347.074 195.906 367.488 156.586 380.996C139.186 386.996 123.268 386.996 111.56 380.694C104.658 376.792 99.854 371.094 98.36 364.494L63.226 218.908C63.826 221.01 70.426 222.508 71.93 223.108C76.0386 224.198 80.2803 224.704 84.53 224.61C90.556 224.567 96.5358 223.554 102.24 221.61C105.84 220.71 110.344 219.21 115.146 217.708C154.468 206.308 236.112 182.29 283.546 177.786C288.346 177.186 297.946 174.484 302.456 177.486C304.256 178.686 305.456 181.988 307.256 189.486L317.762 233.308C302.152 236.308 286.544 238.708 271.836 244.708C266.734 246.81 266.134 248.01 267.334 253.708L276.334 290.928C276.46 292.172 276.846 293.375 277.466 294.461C278.086 295.546 278.927 296.489 279.934 297.23C280.797 297.572 281.709 297.774 282.636 297.83C286.538 297.83 290.436 295.73 294.342 294.528C298.542 293.328 302.742 292.128 306.942 291.228C314.446 289.428 322.25 287.628 330.054 286.428H330.954L338.754 318.246C340.574 326.666 341.174 331.77 339.072 334.77Z" fill="#191919"/>
<path d="M311.758 262.132C311.414 260.658 310.753 259.276 309.82 258.084C308.887 256.892 307.706 255.917 306.358 255.228C303.488 253.706 300.158 253.293 297.004 254.067C293.849 254.842 291.089 256.75 289.25 259.428C288.37 260.618 287.777 261.995 287.517 263.452C287.256 264.909 287.335 266.407 287.748 267.828C289.25 274.132 296.454 277.428 302.456 275.934C308.156 274.438 313.258 268.434 311.758 262.132Z" fill="#191919"/>
<path d="M296.45 224.012C296.63 224.555 297.008 225.01 297.508 225.288C298.008 225.566 298.594 225.646 299.15 225.512C299.429 225.438 299.69 225.308 299.917 225.131C300.145 224.954 300.335 224.732 300.475 224.48C300.615 224.228 300.703 223.95 300.733 223.663C300.764 223.376 300.736 223.086 300.652 222.81C299.305 214.817 296.883 207.042 293.452 199.698C291.952 196.996 288.052 199.398 289.55 202.098C292.879 209.038 295.203 216.417 296.45 224.012Z" fill="#191919"/>
<path d="M273.038 192.8C263.132 193.4 253.826 196.4 244.222 198.8C241.52 199.4 242.72 203.902 245.422 203C254.422 200.6 263.732 197.6 273.038 197C273.355 197.005 273.669 196.946 273.962 196.827C274.255 196.708 274.522 196.531 274.745 196.307C274.969 196.084 275.146 195.817 275.265 195.524C275.384 195.231 275.443 194.916 275.438 194.6C275.263 194.095 274.941 193.654 274.514 193.333C274.086 193.012 273.572 192.826 273.038 192.8Z" fill="#191919"/>
<path d="M193.8 218.308C203.4 215.606 212.71 212.908 222.316 210.204C225.018 209.304 223.816 205.102 221.116 206.004C211.81 208.706 202.206 211.404 192.6 214.108C189.892 214.706 191.094 218.908 193.8 218.308Z" fill="#191919"/>
<path d="M139.766 234.516C148.766 231.516 157.776 229.116 166.78 226.412C169.482 225.512 168.282 221.31 165.58 222.212C156.58 224.914 147.57 227.316 138.566 230.316C138.275 230.381 138 230.504 137.758 230.679C137.516 230.854 137.312 231.076 137.16 231.333C137.007 231.589 136.908 231.874 136.87 232.17C136.831 232.466 136.854 232.766 136.936 233.053C137.017 233.34 137.157 233.607 137.346 233.838C137.535 234.069 137.77 234.259 138.035 234.396C138.3 234.533 138.59 234.614 138.888 234.635C139.186 234.656 139.484 234.615 139.766 234.516Z" fill="#191919"/>
<path d="M111.55 237.518C106.725 238.68 101.801 239.384 96.844 239.62C91.5106 239.969 86.1547 239.565 80.934 238.42C78.234 237.82 77.032 242.02 79.734 242.62C86.435 244.073 93.3209 244.478 100.146 243.82C104.39 243.413 108.6 242.71 112.746 241.718C115.754 241.42 114.552 236.918 111.55 237.518Z" fill="#191919"/>
<path d="M317.46 301.452C318.343 304.812 319.044 308.217 319.562 311.652C319.95 317.426 318.29 318.966 317.46 319.756C315.536 320.96 313.395 321.776 311.158 322.156C308.004 322.918 304.794 323.42 301.558 323.656C300.921 323.656 300.311 323.909 299.861 324.359C299.411 324.809 299.158 325.419 299.158 326.056C299.158 326.693 299.411 327.303 299.861 327.753C300.311 328.203 300.921 328.456 301.558 328.456C307.262 327.856 313.264 327.256 318.368 324.856C322.87 322.456 324.368 318.256 324.368 313.456C324.178 308.967 323.371 304.525 321.968 300.256C321.362 297.55 316.86 298.752 317.46 301.452Z" fill="#191919"/>
<path d="M277.54 326.966C268.77 327.926 260.054 329.328 251.426 331.166C250.882 331.346 250.426 331.724 250.148 332.224C249.87 332.725 249.79 333.311 249.924 333.868C249.998 334.147 250.128 334.407 250.306 334.635C250.483 334.862 250.704 335.052 250.957 335.192C251.209 335.332 251.486 335.419 251.773 335.45C252.06 335.48 252.35 335.452 252.626 335.368C260.856 333.63 269.172 332.328 277.54 331.466C277.856 331.471 278.17 331.412 278.464 331.293C278.757 331.174 279.023 330.997 279.247 330.773C279.471 330.55 279.648 330.283 279.767 329.99C279.886 329.697 279.944 329.382 279.94 329.066C279.883 328.476 279.603 327.93 279.157 327.539C278.711 327.149 278.132 326.944 277.54 326.966Z" fill="#191919"/>
<path d="M228.014 336.872C220.214 338.972 212.104 341.374 204.3 343.776C201.6 344.676 202.8 348.878 205.5 347.976C213.3 345.576 221.1 343.176 229.212 341.072C231.916 340.474 230.714 335.972 228.014 336.872Z" fill="#191919"/>
<path d="M180.288 351.28C171.122 354.274 161.804 356.778 152.372 358.784C151.829 358.964 151.374 359.342 151.096 359.842C150.818 360.342 150.738 360.928 150.872 361.484C150.946 361.763 151.076 362.024 151.253 362.251C151.431 362.479 151.652 362.669 151.904 362.809C152.156 362.949 152.434 363.037 152.721 363.067C153.008 363.098 153.298 363.07 153.574 362.986C163.021 361.047 172.342 358.541 181.488 355.482C181.795 355.432 182.087 355.318 182.346 355.147C182.605 354.976 182.826 354.752 182.992 354.49C183.158 354.228 183.267 353.933 183.312 353.626C183.356 353.318 183.335 353.005 183.25 352.706C183.165 352.408 183.017 352.131 182.817 351.893C182.617 351.656 182.369 351.463 182.089 351.328C181.809 351.194 181.504 351.12 181.194 351.111C180.883 351.103 180.575 351.161 180.288 351.28Z" fill="#191919"/>
<path d="M128.06 361.184C123.913 362.098 119.611 362.031 115.494 360.989C111.378 359.948 107.561 357.96 104.348 355.184C103.91 354.746 103.316 354.5 102.697 354.5C102.078 354.5 101.484 354.746 101.046 355.184C100.608 355.622 100.362 356.216 100.362 356.835C100.362 357.454 100.608 358.048 101.046 358.486C104.822 361.823 109.352 364.192 114.246 365.39C119.191 366.439 124.301 366.439 129.246 365.39C129.789 365.209 130.245 364.832 130.523 364.331C130.801 363.831 130.881 363.245 130.748 362.688C130.762 361.484 129.26 360.884 128.06 361.184Z" fill="#191919"/>
</svg>
