<svg width="400" height="400" viewBox="0 0 400 400" fill="none" xmlns="http://www.w3.org/2000/svg">
<path d="M216.16 191.16C212.36 192.94 176.56 192.86 174.38 191.16C172.1 190.32 171.3 189.78 171.28 188.06C171.268 186.277 171.852 184.541 172.939 183.128C174.026 181.715 175.554 180.706 177.28 180.26C189.008 177.46 201.232 177.46 212.96 180.26C214.74 180.666 216.328 181.669 217.46 183.103C218.591 184.536 219.198 186.314 219.18 188.14C219.28 189.74 218 190.46 216.16 191.16Z" fill="#FEDAF6"/>
<path d="M220.18 188.16C220.193 186.111 219.509 184.118 218.241 182.508C216.973 180.898 215.195 179.767 213.2 179.3C201.309 176.5 188.931 176.5 177.04 179.3C175.109 179.796 173.397 180.92 172.173 182.495C170.95 184.069 170.284 186.006 170.28 188C170.28 190.44 171.82 191.22 173.98 192C177.98 194 212.16 193.76 216.52 192C217.88 191.6 220.34 190.7 220.18 188.16ZM215.82 190.16C211.82 191.68 177.82 191.88 174.74 190.16C172.4 189.3 172.28 188.96 172.28 188C172.267 186.441 172.775 184.923 173.725 183.687C174.674 182.451 176.011 181.568 177.52 181.18C189.102 178.46 201.158 178.46 212.74 181.18C214.307 181.542 215.702 182.43 216.692 183.697C217.682 184.964 218.207 186.532 218.18 188.14C218.24 188.98 217.88 189.44 215.82 190.22V190.16Z" fill="#5E503B"/>
<path d="M199.3 163.38H191.24C190.445 163.38 189.8 164.025 189.8 164.82V179.6C189.8 180.395 190.445 181.04 191.24 181.04H199.3C200.095 181.04 200.74 180.395 200.74 179.6V164.82C200.74 164.025 200.095 163.38 199.3 163.38Z" fill="#FEDAF6"/>
<path d="M199.3 162.38H191.3C190.653 162.38 190.032 162.637 189.575 163.095C189.117 163.552 188.86 164.173 188.86 164.82V179.6C188.87 180.23 189.124 180.832 189.567 181.279C190.011 181.726 190.61 181.985 191.24 182H199.24C199.887 182 200.508 181.743 200.965 181.285C201.423 180.828 201.68 180.207 201.68 179.56V164.82C201.68 164.183 201.431 163.571 200.987 163.116C200.542 162.66 199.937 162.396 199.3 162.38ZM199.74 179.6C199.74 179.717 199.694 179.829 199.611 179.911C199.529 179.994 199.417 180.04 199.3 180.04H191.3C191.183 180.04 191.071 179.994 190.989 179.911C190.906 179.829 190.86 179.717 190.86 179.6V164.82C190.86 164.703 190.906 164.591 190.989 164.509C191.071 164.426 191.183 164.38 191.3 164.38H199.3C199.417 164.38 199.529 164.426 199.611 164.509C199.694 164.591 199.74 164.703 199.74 164.82V179.6Z" fill="#5E503B"/>
<path d="M116 73.14H284.48C285.658 73.141 286.809 73.4885 287.791 74.1394C288.772 74.7902 289.541 75.7155 290 76.8C289.86 73.48 284.8 68.1 281.54 68.1H118.36C115.58 68.1 111.62 73.14 110.62 76.62C111.096 75.5908 111.854 74.7176 112.807 74.1017C113.759 73.4858 114.866 73.1523 116 73.14Z" fill="#FEDAF6"/>
<path d="M284.5 73.14H116.02C112.728 73.14 110.06 75.8084 110.06 79.1V163.18C110.06 166.472 112.728 169.14 116.02 169.14H284.5C287.792 169.14 290.46 166.472 290.46 163.18V79.1C290.46 75.8084 287.792 73.14 284.5 73.14Z" fill="#FEDAF6"/>
<path d="M281.54 67.1H118.36C114.36 67.1 109.06 74.96 109.06 79.1V163.1C109.049 164.019 109.221 164.931 109.565 165.783C109.909 166.636 110.418 167.412 111.063 168.066C111.708 168.721 112.477 169.241 113.324 169.597C114.171 169.953 115.081 170.137 116 170.14H284.48C286.326 170.14 288.096 169.407 289.401 168.101C290.707 166.796 291.44 165.026 291.44 163.18V79.18C291.46 72.76 285.2 67.1 281.54 67.1ZM118.36 69.1H281.54C283.636 69.5726 285.49 70.7873 286.76 72.52C285.06 71.94 296.22 72.14 116.02 72.14C115.343 72.149 114.67 72.2499 114.02 72.44C115.42 70.6 117.12 69.1 118.36 69.1ZM289.46 163.1C289.46 164.415 288.937 165.677 288.007 166.607C287.077 167.537 285.815 168.06 284.5 168.06H116C114.686 168.055 113.428 167.53 112.499 166.601C111.57 165.672 111.045 164.414 111.04 163.1V79.1C111.045 77.7861 111.57 76.5276 112.499 75.5986C113.428 74.6695 114.686 74.1453 116 74.14H284.48C285.795 74.14 287.057 74.6626 287.987 75.5928C288.917 76.5229 289.44 77.7845 289.44 79.1L289.46 163.1Z" fill="#5E503B"/>
<path d="M277.86 79.1H122.66C119.733 79.1 117.36 81.4729 117.36 84.4V159.04C117.36 161.967 119.733 164.34 122.66 164.34H277.86C280.787 164.34 283.16 161.967 283.16 159.04V84.4C283.16 81.4729 280.787 79.1 277.86 79.1Z" fill="white"/>
<path d="M277.86 78.1H122.66C120.991 78.1053 119.391 78.7707 118.211 79.951C117.031 81.1314 116.365 82.7308 116.36 84.4V159.04C116.365 160.709 117.031 162.309 118.211 163.489C119.391 164.669 120.991 165.335 122.66 165.34H277.86C279.531 165.34 281.133 164.676 282.315 163.495C283.496 162.313 284.16 160.711 284.16 159.04V84.4C284.16 83.5727 283.997 82.7534 283.68 81.9891C283.364 81.2247 282.9 80.5302 282.315 79.9452C281.73 79.3602 281.035 78.8962 280.271 78.5796C279.507 78.263 278.687 78.1 277.86 78.1ZM282.16 159.04C282.16 160.18 281.707 161.274 280.901 162.081C280.094 162.887 279 163.34 277.86 163.34H122.66C121.52 163.34 120.426 162.887 119.619 162.081C118.813 161.274 118.36 160.18 118.36 159.04V84.4C118.365 83.2612 118.82 82.1705 119.625 81.3652C120.431 80.56 121.521 80.1053 122.66 80.1H277.86C279 80.1 280.094 80.553 280.901 81.3594C281.707 82.1659 282.16 83.2596 282.16 84.4V159.04Z" fill="#5E503B"/>
<path d="M227.52 129.48C233.264 129.48 237.92 124.824 237.92 119.08C237.92 113.336 233.264 108.68 227.52 108.68C221.776 108.68 217.12 113.336 217.12 119.08C217.12 124.824 221.776 129.48 227.52 129.48Z" fill="#FFCECC"/>
<path d="M221.26 116.18C224.066 116.18 226.34 113.906 226.34 111.1C226.34 108.294 224.066 106.02 221.26 106.02C218.454 106.02 216.18 108.294 216.18 111.1C216.18 113.906 218.454 116.18 221.26 116.18Z" fill="#5E503B"/>
<path d="M167.3 129.92C173.044 129.92 177.7 125.264 177.7 119.52C177.7 113.776 173.044 109.12 167.3 109.12C161.556 109.12 156.9 113.776 156.9 119.52C156.9 125.264 161.556 129.92 167.3 129.92Z" fill="#FFCECC"/>
<path d="M174 105.44C172.995 105.44 172.013 105.738 171.178 106.296C170.342 106.854 169.691 107.648 169.307 108.576C168.922 109.504 168.822 110.526 169.018 111.511C169.214 112.496 169.697 113.402 170.408 114.112C171.118 114.823 172.024 115.306 173.009 115.502C173.994 115.698 175.016 115.598 175.944 115.213C176.872 114.829 177.666 114.178 178.224 113.342C178.782 112.507 179.08 111.525 179.08 110.52C179.08 109.173 178.545 107.881 177.592 106.928C176.639 105.975 175.347 105.44 174 105.44Z" fill="#5E503B"/>
<path d="M111.96 240.18V234.9H278.62V240.18H111.96Z" fill="#DFEDED"/>
<path d="M278.62 234H112C111.46 234 111 234.94 111 235.48V240.66C111 241.8 111.8 241.28 112 241.28H278.68C279.22 241.28 279.68 240.46 279.68 239.9V235.04C279.64 233.72 278.82 234 278.62 234ZM277.62 239.28H112.96V236H277.62V239.28Z" fill="#5E503B"/>
<path d="M111.96 234.9L131.56 201.12H265.38L278.62 234.9H111.96Z" fill="#FEDAF6"/>
<path d="M279.56 234.26L266.32 200.84C266.248 200.643 266.122 200.47 265.955 200.343C265.789 200.215 265.589 200.138 265.38 200.12H131.56C131.394 200.102 131.226 200.13 131.074 200.201C130.923 200.271 130.794 200.382 130.7 200.52L111.1 234.88C110.46 236.02 111.46 236 111.92 236C116.08 236.14 140.4 236.2 278.64 236C278.961 235.849 279.224 235.597 279.39 235.283C279.556 234.97 279.616 234.611 279.56 234.26ZM113.7 234L132.14 202.12H264.7L277.16 234H113.7Z" fill="#5E503B"/>
<path d="M350.52 288.18C350.52 288.18 72.7 287.3 42.98 286C42.309 285.973 41.6556 285.778 41.0801 285.432C40.5045 285.086 40.0252 284.601 39.6865 284.021C39.3478 283.441 39.1605 282.785 39.1419 282.114C39.1232 281.443 39.2739 280.778 39.58 280.18L54.1 257.28C56.8 252.44 58.32 250.52 61.78 250.52H333.08C333.945 250.522 334.793 250.759 335.533 251.207C336.273 251.654 336.877 252.295 337.28 253.06L354.72 281.24C355.099 281.963 355.284 282.771 355.259 283.586C355.234 284.401 354.999 285.196 354.577 285.894C354.154 286.592 353.559 287.169 352.848 287.57C352.138 287.97 351.336 288.18 350.52 288.18Z" fill="#ABFFE1"/>
<path d="M355.58 280.76L338.18 252.64C337.691 251.71 336.958 250.932 336.059 250.389C335.16 249.847 334.13 249.56 333.08 249.56H61.78C57.78 249.56 56 251.9 53.26 256.78L38.7 279.76C38.3166 280.507 38.1272 281.338 38.1494 282.177C38.1716 283.016 38.4047 283.835 38.8271 284.561C39.2494 285.286 39.8476 285.893 40.5664 286.326C41.2852 286.76 42.1014 287.005 42.94 287.04C72.34 288.34 350.54 289.18 350.54 289.18C351.526 289.174 352.494 288.914 353.35 288.425C354.207 287.936 354.923 287.234 355.429 286.388C355.936 285.542 356.216 284.58 356.242 283.594C356.268 282.608 356.04 281.632 355.58 280.76ZM350.52 287.18C350.52 287.18 72.4 286.34 43.02 285.04C42.5258 285.018 42.0446 284.875 41.6194 284.622C41.1941 284.369 40.8379 284.015 40.5826 283.592C40.3272 283.168 40.1805 282.688 40.1556 282.194C40.1308 281.7 40.2284 281.207 40.44 280.76L54.98 257.82C57.64 253.04 58.98 251.56 61.78 251.56H333.08C333.769 251.555 334.446 251.739 335.039 252.092C335.631 252.444 336.115 252.952 336.44 253.56L353.84 281.66C354.15 282.232 354.305 282.875 354.29 283.525C354.275 284.175 354.091 284.81 353.756 285.368C353.421 285.925 352.946 286.385 352.378 286.703C351.811 287.021 351.17 287.185 350.52 287.18Z" fill="#5E503B"/>
<path d="M322.66 256.48C326.12 257.039 329.358 258.54 332.02 260.82C337.84 265.7 340.86 279.26 331.78 280.82C318.98 283.04 306.06 270.36 313.5 259.38C315.88 255.88 318.76 255.88 322.66 256.48Z" fill="white"/>
<path d="M337.6 267.86C337.307 266.967 336.946 266.098 336.52 265.26C331.48 255.42 318.86 253.26 314.52 256.74C312.124 258.754 310.609 261.625 310.3 264.74C309.28 273.4 317.76 281.18 327.16 282.02C329.919 282.434 332.738 281.906 335.16 280.52C339.16 277.72 338.96 272 337.6 267.86ZM324.3 260.5C323.553 259.294 322.582 258.242 321.44 257.4C325.178 257.666 328.71 259.213 331.44 261.78C329.189 260.812 326.747 260.374 324.3 260.5ZM317.78 257.78C319.382 258.502 320.834 259.52 322.06 260.78C316.7 261.88 313.66 264.64 312.4 267.84C311.86 264 313.38 259 317.78 257.78ZM335.36 277.64C334.706 278.417 333.883 279.034 332.954 279.443C332.025 279.852 331.014 280.043 330 280C326.722 280.275 323.434 279.603 320.527 278.064C317.62 276.526 315.216 274.185 313.6 271.32C313.74 265.78 320.2 260.86 329.32 263C331.489 263.533 333.434 264.737 334.88 266.44C336.5 269.76 337.58 274.48 335.36 277.64Z" fill="#5E503B"/>
<path d="M224 207.76C223.98 207.509 223.866 207.275 223.68 207.104C223.495 206.933 223.252 206.839 223 206.84H139.24C139.051 206.844 138.867 206.9 138.708 207.002C138.549 207.105 138.422 207.249 138.34 207.42L130.34 224.98C130.27 225.132 130.239 225.299 130.25 225.466C130.261 225.633 130.313 225.794 130.403 225.935C130.492 226.077 130.616 226.193 130.762 226.274C130.908 226.356 131.073 226.399 131.24 226.4C231.04 226.4 224.84 226.58 225.24 226.08C225.336 225.98 225.408 225.86 225.453 225.728C225.498 225.597 225.514 225.458 225.5 225.32L224 207.76ZM152.2 224.4L153.4 220.64H203.24L203.06 224.4H152.2ZM142.96 224.4L144.4 220.64H151.3L150.1 224.4H142.96ZM137.22 214.58C137.42 214.58 136.82 214.58 144.58 214.58L143.02 218.58H135.38L137.22 214.58ZM146.72 214.58H153.26L151.96 218.58H145.2L146.72 214.58ZM155.12 208.82L154 212.6H147.52L148.96 208.84L155.12 208.82ZM163.58 208.82L162.74 212.58H156L157.22 208.82H163.58ZM171.88 208.82L171.36 212.58H164.82L165.66 208.82H171.88ZM180.54 208.82L180.08 212.58H173.42L173.94 208.82H180.54ZM188.08 208.82L187.82 212.58H182.14L182.58 208.82H188.08ZM195.2 208.82L195 212.58H189.86L190.12 208.82H195.2ZM203.84 208.82L203.64 212.58H197.06L197.26 208.82H203.84ZM213.36 208.82V212.58H205.64L205.84 208.82H213.36ZM181.36 218.62L181.84 214.62H187.66L187.4 218.62H181.36ZM154.04 218.62L155.34 214.62H162.26L161.36 218.62H154.04ZM164.32 214.62H171.06L170.5 218.62H163.48L164.32 214.62ZM173.08 214.62H180L179.52 218.62H172.58L173.08 214.62ZM189.68 214.62H194.88L194.66 218.62H189.46L189.68 214.62ZM196.88 214.62H203.52L203.32 218.62H196.74L196.88 214.62ZM205.22 220.62H213.22V224.38H205L205.22 220.62ZM205.22 218.62L205.42 214.62H213.2V218.62H205.22ZM215.22 214.62H222.46L222.78 218.62H215.22V214.62ZM222.3 212.62H215.4V208.86H222.12L222.3 212.62ZM139.74 208.86H146.68L145.24 212.62H138.16L139.74 208.86ZM134.36 220.56C134.66 220.7 134.18 220.56 142.16 220.56L140.72 224.32H132.72L134.36 220.56ZM215.18 224.42V220.66H222.96L223.26 224.42H215.18Z" fill="#5E503B"/>
<path d="M263.46 225.1L257.98 208.1C257.913 207.898 257.785 207.721 257.612 207.596C257.44 207.47 257.233 207.402 257.02 207.4L232.26 207.7C232.117 207.704 231.976 207.739 231.847 207.801C231.718 207.863 231.604 207.952 231.511 208.061C231.419 208.171 231.35 208.298 231.31 208.436C231.271 208.574 231.26 208.718 231.28 208.86L233.86 225.56C233.898 225.793 234.017 226.006 234.196 226.159C234.376 226.313 234.604 226.398 234.84 226.4H262.5C262.658 226.401 262.813 226.365 262.954 226.294C263.095 226.224 263.217 226.121 263.31 225.994C263.404 225.867 263.466 225.72 263.492 225.565C263.518 225.41 263.507 225.25 263.46 225.1ZM244.36 224.4L243.5 220.4H251.12L252.24 224.4H244.36ZM243.06 218.4L242.2 214.4H249.42L250.56 218.4H243.06ZM234.78 218.4L234.14 214.4H240.14L241 218.4H234.78ZM248.08 209.56L248.86 212.34H241.78L241.2 209.64L248.08 209.56ZM251.5 214.34H257.88L259.18 218.34H252.64L251.5 214.34ZM257.24 212.34H250.94L250.14 209.52H256.3L257.24 212.34ZM239.24 209.66L239.82 212.34H233.82L233.42 209.72L239.24 209.66ZM235.24 220.4H241.62L242.48 224.4H235.86L235.24 220.4ZM254.48 224.4L253.36 220.4C259.98 220.4 259.64 220.4 259.96 220.28L261.3 224.44L254.48 224.4Z" fill="#5E503B"/>
<path d="M44.48 89.16C58.94 85.16 74.32 82.66 87.68 79.84C88.3526 79.7445 89.0382 79.8128 89.6787 80.0391C90.3193 80.2653 90.8957 80.6428 91.359 81.1396C91.8224 81.6363 92.159 82.2376 92.3402 82.8923C92.5215 83.5469 92.542 84.2357 92.4 84.9C83.54 147.16 87.46 187.36 89.14 198.42C89.2873 199.313 89.1618 200.23 88.7801 201.05C88.3983 201.871 87.7779 202.557 87 203.02C78.36 208.06 59 217.02 41 227.14C40.4224 227.478 39.7693 227.666 39.1003 227.686C38.4313 227.707 37.7679 227.559 37.1709 227.256C36.5739 226.954 36.0623 226.506 35.683 225.955C35.3037 225.404 35.0689 224.766 35 224.1C28.78 186.82 32 132.3 41.54 92.24C41.7111 91.5112 42.0739 90.8413 42.5908 90.2998C43.1077 89.7583 43.7599 89.3648 44.48 89.16Z" fill="#51BDBF"/>
<path d="M87.48 78.86C83.66 79.68 79.66 80.48 75.48 81.3C50.72 86.28 44 88.26 44.22 88.2C43.3291 88.4505 42.5217 88.9351 41.8815 89.6034C41.2414 90.2716 40.792 91.0992 40.58 92C30.58 133.14 27.88 187.52 34.02 224.2C34.1077 225.029 34.4013 225.823 34.8742 226.51C35.3471 227.197 35.9843 227.754 36.7277 228.132C37.471 228.51 38.2971 228.695 39.1306 228.672C39.9641 228.649 40.7786 228.418 41.5 228C58.76 218.48 79.12 208.62 87.5 203.86C88.4496 203.299 89.2077 202.464 89.6751 201.465C90.1426 200.466 90.2976 199.349 90.12 198.26C89.04 190.78 84.12 150.12 93.36 85.1C93.529 84.2764 93.4974 83.4242 93.2678 82.6153C93.0381 81.8065 92.6172 81.0648 92.0406 80.4529C91.464 79.841 90.7486 79.3768 89.9548 79.0995C89.161 78.8223 88.3122 78.7401 87.48 78.86ZM91.48 84.86C82.18 150.24 87.12 191.14 88.22 198.68C88.3373 199.372 88.2437 200.084 87.9512 200.723C87.6587 201.361 87.181 201.897 86.58 202.26C78.74 206.68 57.76 216.9 40.58 226.38C40.139 226.661 39.6317 226.822 39.1092 226.845C38.5866 226.868 38.0671 226.753 37.603 226.512C37.1388 226.271 36.7463 225.912 36.4649 225.471C36.1835 225.03 36.0232 224.523 36 224C30 187.44 32.58 133.38 42.52 92.48C42.6482 91.9223 42.9237 91.4091 43.3176 90.994C43.7116 90.579 44.2097 90.2771 44.76 90.12C59.14 86.4 74.94 83.56 87.82 80.84C88.3391 80.7643 88.8689 80.8166 89.3632 80.9923C89.8576 81.168 90.3015 81.4619 90.6563 81.8483C91.0112 82.2347 91.2663 82.7019 91.3994 83.2094C91.5324 83.7169 91.5395 84.2492 91.42 84.76L91.48 84.86Z" fill="#5E503B"/>
<path d="M33.6 240.98C32.214 240.979 30.871 240.499 29.7991 239.62C28.7272 238.742 27.9926 237.519 27.72 236.16C20 195.1 23.26 130.16 35.28 85.12C35.5694 84.0876 36.1303 83.1517 36.9041 82.4095C37.6779 81.6673 38.6364 81.1461 39.68 80.9C57.44 76.74 75.84 73.76 93.02 70.48C93.9633 70.3113 94.9332 70.371 95.8487 70.6541C96.7642 70.9371 97.5985 71.4353 98.282 72.107C98.9654 72.7787 99.478 73.6043 99.7769 74.5147C100.076 75.4252 100.152 76.3939 100 77.34C88.5 150 94.68 195.54 96 204C96.1381 205.204 95.9081 206.422 95.3405 207.493C94.7728 208.564 93.8941 209.438 92.82 210C34.74 240.12 37.12 240.98 33.6 240.98ZM40.14 82.84C39.4459 83.0067 38.8091 83.3562 38.2957 83.8521C37.7822 84.3479 37.4108 84.9722 37.22 85.66C25.22 130.44 22.02 194.98 29.68 235.78C29.8089 236.391 30.0792 236.964 30.4691 237.452C30.8591 237.939 31.3578 238.329 31.9255 238.59C32.4932 238.85 33.114 238.974 33.7382 238.952C34.3623 238.929 34.9726 238.761 35.52 238.46C55.88 227.1 77.52 215.76 91.9 208.28C92.6235 207.911 93.2176 207.331 93.6035 206.617C93.9893 205.902 94.1485 205.087 94.06 204.28C92.7 195.8 86.48 150 98 77C98.0994 76.3696 98.0466 75.7246 97.8459 75.1188C97.6453 74.5131 97.3026 73.9641 96.8464 73.5178C96.3903 73.0714 95.834 72.7407 95.224 72.5532C94.6141 72.3657 93.968 72.3269 93.34 72.44C76.26 75.72 57.84 78.7 40.14 82.84Z" fill="#5E503B"/>
<path d="M355.54 88.72C341.02 84.98 325.7 82.22 312.34 79.4C311.662 79.2948 310.969 79.3556 310.32 79.5771C309.671 79.7986 309.086 80.1743 308.614 80.6718C308.142 81.1693 307.797 81.7739 307.61 82.4337C307.423 83.0935 307.399 83.7888 307.54 84.46C316.48 146.7 312.48 186.98 310.82 198.06C310.679 198.95 310.805 199.863 311.183 200.681C311.56 201.5 312.172 202.189 312.94 202.66C321.58 207.72 341.08 216.54 358.94 226.66C359.516 226.998 360.168 227.186 360.835 227.207C361.503 227.229 362.165 227.083 362.762 226.782C363.358 226.482 363.87 226.037 364.251 225.488C364.631 224.939 364.868 224.304 364.94 223.64C371.28 186.36 368.28 131.8 358.56 91.78C358.383 91.0433 358.008 90.3689 357.476 89.8296C356.944 89.2903 356.274 88.9067 355.54 88.72Z" fill="#51BDBF"/>
<path d="M359.54 91.54C359.318 90.6298 358.853 89.7971 358.194 89.1311C357.536 88.4652 356.708 87.9912 355.8 87.76C341.24 83.98 326.14 81.28 312.5 78.42C311.664 78.2764 310.805 78.3387 309.999 78.6015C309.192 78.8644 308.462 79.3199 307.871 79.9285C307.28 80.5372 306.846 81.2806 306.608 82.0946C306.369 82.9086 306.332 83.7685 306.5 84.6C315.42 146.78 311.26 187.06 309.78 197.9C309.594 198.995 309.745 200.12 310.212 201.128C310.68 202.135 311.443 202.976 312.4 203.54C318.68 207.22 340.12 217.54 358.4 227.54C359.115 227.961 359.923 228.197 360.752 228.228C361.582 228.259 362.405 228.083 363.149 227.716C363.893 227.349 364.534 226.802 365.015 226.125C365.495 225.449 365.799 224.663 365.9 223.84C372.16 187.22 369.52 132.84 359.54 91.54ZM363.96 223.54C363.905 224.042 363.725 224.522 363.436 224.935C363.147 225.349 362.758 225.683 362.305 225.906C361.852 226.13 361.351 226.235 360.846 226.213C360.342 226.191 359.851 226.042 359.42 225.78C341.54 215.98 319.42 205.32 313.42 201.78C312.812 201.414 312.329 200.872 312.036 200.225C311.743 199.579 311.654 198.859 311.78 198.16C313.28 187.22 317.46 146.7 308.48 84.16C308.372 83.6507 308.389 83.1228 308.528 82.6212C308.667 82.1196 308.925 81.6589 309.281 81.2783C309.636 80.8976 310.077 80.6081 310.568 80.4344C311.059 80.2606 311.584 80.2076 312.1 80.28C325.66 83.14 340.52 85.78 355.26 89.6C355.836 89.7403 356.361 90.0398 356.774 90.4642C357.188 90.8886 357.474 91.4208 357.6 92C367.52 133.08 370.14 187.12 364 223.54H363.96Z" fill="#5E503B"/>
<path d="M364.74 84.78C364.455 83.7464 363.899 82.808 363.129 82.0623C362.358 81.3166 361.402 80.791 360.36 80.54C343.16 76.42 325.16 73.58 307.04 70.12C306.1 69.9466 305.131 70.0006 304.216 70.2773C303.301 70.554 302.465 71.0456 301.778 71.7109C301.091 72.3763 300.573 73.1962 300.267 74.1023C299.961 75.0084 299.877 75.9745 300.02 76.92C311.54 149.62 305.38 195.16 304.02 203.56C303.841 204.791 304.05 206.046 304.616 207.153C305.182 208.26 306.078 209.164 307.18 209.74C363.74 238.82 362.72 240.64 366.4 240.64C367.785 240.634 369.126 240.148 370.194 239.266C371.262 238.384 371.992 237.159 372.26 235.8C380 194.74 376.76 129.82 364.74 84.78ZM370.3 235.44C370.173 236.05 369.904 236.622 369.517 237.11C369.129 237.598 368.633 237.989 368.068 238.251C367.502 238.513 366.884 238.64 366.261 238.621C365.638 238.601 365.028 238.437 364.48 238.14C339.06 224 313.04 210.5 308 208C307.306 207.608 306.745 207.018 306.389 206.306C306.032 205.593 305.897 204.79 306 204C307.36 195.56 313.56 149.74 302 76.74C301.89 76.1564 301.911 75.5556 302.063 74.9813C302.214 74.407 302.491 73.8735 302.874 73.4197C303.257 72.9658 303.736 72.6029 304.277 72.3574C304.818 72.1118 305.406 71.9897 306 72C306.66 72 305.38 71.86 321.22 74.74C333.98 77.06 347.22 79.44 360 82.46C360.69 82.6299 361.323 82.9807 361.833 83.4764C362.342 83.9721 362.711 84.5946 362.9 85.28C374.76 130 378 194.64 370.3 235.44Z" fill="#5E503B"/>
<path d="M45.34 103.16L49.34 101.94C49.6042 101.869 49.8301 101.698 49.9686 101.462C50.1071 101.226 50.1471 100.945 50.08 100.68C49.9929 100.425 49.8121 100.213 49.5744 100.087C49.3367 99.9608 49.0598 99.9296 48.8 100L44.8 101.2C44.5618 101.292 44.3657 101.468 44.2492 101.696C44.1326 101.923 44.1037 102.185 44.168 102.432C44.2322 102.679 44.3851 102.894 44.5976 103.036C44.81 103.177 45.0672 103.236 45.32 103.2L45.34 103.16Z" fill="white"/>
<path d="M44.84 110.94L61.44 107.54C62.7 107.28 62.16 105.34 60.9 105.54L44.32 108.94C43.06 109.2 43.58 111.14 44.84 110.94Z" fill="white"/>
<path d="M42.92 120C47.0627 118.378 51.3673 117.205 55.76 116.5C56.0138 116.43 56.2297 116.262 56.3607 116.034C56.4918 115.805 56.5275 115.535 56.46 115.28C56.3811 115.027 56.2089 114.815 55.9786 114.685C55.7482 114.554 55.4769 114.517 55.22 114.58C50.8344 115.278 46.5364 116.444 42.4 118.06C42.1475 118.139 41.9345 118.311 41.8045 118.541C41.6744 118.772 41.6371 119.043 41.7 119.3C41.7702 119.554 41.9377 119.77 42.1661 119.901C42.3945 120.032 42.6654 120.067 42.92 120Z" fill="white"/>
<path d="M74.14 119.2C74.2722 119.167 74.3966 119.109 74.5058 119.027C74.615 118.946 74.7068 118.844 74.7758 118.726C74.8448 118.609 74.8895 118.479 74.9074 118.344C74.9253 118.209 74.916 118.071 74.88 117.94C74.8095 117.676 74.6377 117.45 74.4018 117.311C74.166 117.173 73.8851 117.133 73.62 117.2C62.96 120 52.38 123 42 126.38C41.7564 126.47 41.5552 126.648 41.436 126.878C41.3169 127.109 41.2883 127.376 41.356 127.627C41.4237 127.877 41.5827 128.094 41.8018 128.233C42.0209 128.373 42.2842 128.425 42.54 128.38C42.46 128.58 53.28 124.66 74.14 119.2Z" fill="white"/>
<path d="M42.46 136.48L60.24 130.48C61.46 130.08 60.94 128.14 59.7 128.48L41.92 134.48C40.72 134.88 41.24 136.82 42.46 136.48Z" fill="white"/>
<path d="M76.36 136.16C76.6242 136.089 76.8501 135.918 76.9886 135.682C77.1271 135.446 77.1671 135.165 77.1 134.9C77.0251 134.634 76.8494 134.408 76.6103 134.27C76.3713 134.132 76.0877 134.092 75.82 134.16L40.74 143.6C40.5018 143.692 40.3057 143.868 40.1892 144.096C40.0726 144.323 40.0437 144.585 40.108 144.832C40.1722 145.079 40.3251 145.294 40.5376 145.436C40.75 145.577 41.0072 145.636 41.26 145.6C41.26 145.4 39.72 146 76.36 136.16Z" fill="white"/>
<path d="M40.7 154.78L66.7 148.78C67.96 148.5 67.42 146.56 66.18 146.78L40.18 152.78C38.92 153.08 39.44 155 40.7 154.78Z" fill="white"/>
<path d="M40.16 165.88C45.2521 164.209 50.4592 162.913 55.74 162C57 161.78 56.48 159.82 55.22 160C49.9237 160.894 44.712 162.232 39.64 164C38.42 164.4 38.94 166.32 40.16 166V165.88Z" fill="white"/>
<path d="M59.64 155.16V159.76C59.64 160.025 59.7453 160.28 59.9329 160.467C60.1204 160.655 60.3748 160.76 60.64 160.76C60.9052 160.76 61.1596 160.655 61.3471 160.467C61.5346 160.28 61.64 160.025 61.64 159.76V155.16C61.64 154.895 61.5346 154.64 61.3471 154.453C61.1596 154.265 60.9052 154.16 60.64 154.16C60.3764 154.165 60.125 154.272 59.9385 154.459C59.7521 154.645 59.6451 154.896 59.64 155.16Z" fill="white"/>
<path d="M317.86 95C328.802 96.8674 339.592 99.5413 350.14 103C351.36 103.42 351.92 101.46 350.68 101C340.192 97.313 329.376 94.6342 318.38 93C317.12 92.8 316.58 94.76 317.86 95Z" fill="white"/>
<path d="M319.64 105.7L334 109.44C334.265 109.514 334.549 109.48 334.789 109.345C335.029 109.21 335.205 108.985 335.28 108.72C335.348 108.452 335.308 108.169 335.17 107.93C335.032 107.691 334.806 107.515 334.54 107.44L320.22 103.7C319.955 103.633 319.674 103.673 319.438 103.811C319.202 103.95 319.031 104.176 318.96 104.44C318.885 104.697 318.915 104.974 319.042 105.209C319.169 105.445 319.384 105.621 319.64 105.7Z" fill="white"/>
<path d="M351.8 124C352.065 124.074 352.349 124.04 352.589 123.905C352.829 123.77 353.005 123.545 353.08 123.28C353.148 123.012 353.108 122.729 352.97 122.49C352.832 122.251 352.606 122.075 352.34 122C342.06 119.2 331.72 116.54 321.4 113.86C321.135 113.793 320.854 113.833 320.618 113.971C320.382 114.11 320.211 114.336 320.14 114.6C320.104 114.73 320.094 114.866 320.11 115C320.127 115.134 320.17 115.263 320.237 115.38C320.304 115.498 320.393 115.6 320.5 115.683C320.607 115.765 320.73 115.825 320.86 115.86C320.86 116 322.36 116 351.8 124Z" fill="white"/>
<path d="M320.84 125.66C327.76 127.48 334.62 129.36 341.42 131.46C342.64 131.84 343.18 129.92 341.94 129.46C335.14 127.34 328.28 125.46 321.38 123.66C321.115 123.593 320.834 123.633 320.598 123.771C320.362 123.91 320.191 124.136 320.12 124.4C320.084 124.53 320.074 124.666 320.09 124.8C320.107 124.934 320.15 125.063 320.217 125.18C320.284 125.298 320.373 125.4 320.48 125.483C320.587 125.565 320.71 125.625 320.84 125.66Z" fill="white"/>
<path d="M345.36 143.62C346.58 144 347.12 142.06 345.88 141.62L321.88 134.3C320.64 133.92 320.12 135.86 321.34 136.3C321.54 136.3 320.9 136 345.36 143.62Z" fill="white"/>
<path d="M321.32 147.38L334 151.5C335.24 151.9 335.76 149.96 334.54 149.5L321.9 145.38C320.64 144.98 320.1 146.92 321.32 147.38Z" fill="white"/>
<path d="M337.84 148.5L338.54 153.16C338.572 153.287 338.63 153.406 338.709 153.511C338.789 153.615 338.888 153.703 339.002 153.768C339.116 153.833 339.241 153.875 339.372 153.891C339.502 153.907 339.634 153.896 339.76 153.86C340.011 153.785 340.224 153.617 340.354 153.39C340.484 153.163 340.522 152.894 340.46 152.64L339.76 148.04C339.725 147.91 339.665 147.787 339.583 147.68C339.5 147.573 339.398 147.484 339.28 147.417C339.163 147.35 339.034 147.307 338.9 147.29C338.766 147.274 338.63 147.284 338.5 147.32C338.236 147.391 338.01 147.562 337.871 147.798C337.733 148.034 337.693 148.315 337.76 148.58L337.84 148.5Z" fill="white"/>
<path d="M90.28 271.16C111.2 272.22 114.28 281.62 113.74 284.64C113.54 285.94 109.08 300.64 88.74 298.48C84.9699 298.11 81.3303 296.901 78.0877 294.943C74.8452 292.984 72.0818 290.325 70 287.16C65.44 280 73.32 270.3 90.28 271.16Z" fill="white"/>
<path d="M110.34 284.84C110.049 284.339 109.652 283.906 109.177 283.574C108.702 283.241 108.161 283.015 107.59 282.912C107.019 282.81 106.433 282.832 105.872 282.979C105.31 283.125 104.788 283.392 104.34 283.76C103.726 283.058 102.942 282.525 102.063 282.214C101.184 281.902 100.239 281.821 99.32 281.98C98.52 279.56 95.02 278.5 92.1 280.94C91.8606 281.155 91.6459 281.397 91.46 281.66C89.9645 280.883 88.2395 280.67 86.6 281.06C84.84 278.04 80.6 279.06 79.16 282.26C78.7327 282.274 78.3119 282.369 77.92 282.54C76.5502 283.106 75.4323 284.15 74.7739 285.478C74.1155 286.805 73.9613 288.327 74.34 289.76C74.58 291.02 76.5 290.48 76.34 289.22C76.34 289.02 75.74 284.48 79.14 284.22C79.2337 284.214 79.3275 284.231 79.4138 284.268C79.5001 284.305 79.5764 284.362 79.6367 284.434C79.6971 284.506 79.7396 284.591 79.761 284.682C79.7824 284.774 79.7821 284.869 79.76 284.96C79.36 286.5 78.22 288.16 79.42 290.16C79.6778 290.613 80.0709 290.975 80.5443 291.193C81.0177 291.412 81.5477 291.477 82.06 291.38C84.58 290.62 84.06 287.7 85.68 288.2C86.04 288.32 86.7 288.66 86.74 289.08C86.78 289.5 86.44 289.86 86.32 290.16C85.9805 290.621 85.7974 291.178 85.7974 291.75C85.7974 292.322 85.9805 292.879 86.32 293.34C86.8432 293.78 87.4907 294.045 88.1719 294.099C88.8532 294.152 89.5343 293.992 90.12 293.64C90.3852 293.568 90.6111 293.394 90.748 293.156C90.8849 292.918 90.9216 292.635 90.85 292.37C90.7784 292.105 90.6044 291.879 90.3662 291.742C90.128 291.605 89.8452 291.568 89.58 291.64C89.14 291.82 88.4 292.22 87.92 291.98C87.44 291.74 87.78 291.46 87.92 291.16C88.219 290.727 88.425 290.237 88.5248 289.721C88.6247 289.204 88.6162 288.673 88.5 288.16C88.1695 287.517 87.6541 286.987 87.02 286.64C87.2427 286.337 87.562 286.118 87.9254 286.02C88.2888 285.922 88.6748 285.95 89.02 286.1C90.18 286.46 89.02 287.8 90.14 288.38C89.9341 289.072 90.0097 289.818 90.3506 290.454C90.6914 291.091 91.2698 291.567 91.96 291.78C92.4475 292.094 93.0092 292.275 93.5885 292.303C94.1679 292.331 94.7444 292.206 95.26 291.94C95.9875 291.445 96.5568 290.75 96.9 289.94C97.22 289.38 97.78 287.94 98.62 288.48C98.8696 288.667 99.0476 288.933 99.124 289.236C99.2005 289.538 99.1708 289.857 99.04 290.14C98.9 290.48 98.32 291.6 97.76 291.34C96.6 290.84 95.58 292.56 96.76 293.08C97.1737 293.237 97.6161 293.304 98.0577 293.275C98.4992 293.247 98.9296 293.125 99.3199 292.916C99.7102 292.708 100.051 292.418 100.32 292.067C100.59 291.716 100.78 291.311 100.88 290.88C101.196 291.014 101.536 291.083 101.88 291.083C102.224 291.083 102.564 291.014 102.88 290.88C102.973 290.985 103.086 291.07 103.214 291.129C103.341 291.187 103.48 291.218 103.62 291.22C109.54 291.78 111.8 287.74 110.34 284.84ZM82.2 288.84C81.98 289.28 81.7 289.66 81.42 289.6C80.5 289.42 80.84 287.6 81.24 286.8C81.76 285.42 82.28 283.84 81.06 282.94C82.14 281.08 84.12 281.04 84.54 282.06C83.5004 282.798 82.7166 283.842 82.2973 285.046C81.878 286.251 81.8439 287.556 82.2 288.78V288.84ZM91.62 286.6C91.04 283.2 86.38 283 84.82 286.16V286.36C84.5678 286.397 84.3241 286.479 84.1 286.6C84.1762 285.927 84.4059 285.281 84.7715 284.711C85.1371 284.141 85.6288 283.662 86.2086 283.313C86.7884 282.963 87.4409 282.751 88.1156 282.693C88.7903 282.636 89.4692 282.734 90.1 282.98C91.74 283.54 92.82 285.12 91.92 286.34L91.62 286.6ZM103.44 287.48C103.387 287.871 103.235 288.243 103 288.56C103.134 287.883 103.043 287.18 102.74 286.56C102.475 286.126 102.1 285.769 101.654 285.525C101.207 285.281 100.704 285.16 100.195 285.172C99.6867 285.184 99.1902 285.33 98.7557 285.594C98.3212 285.859 97.964 286.234 97.72 286.68C97.3584 286.762 97.0179 286.919 96.72 287.14C94.56 289.24 94.92 290.46 93.72 290.48C93.12 290.48 91.72 289.82 92.04 289.12C92.4219 288.523 92.8716 287.973 93.38 287.48C93.8357 286.849 94.064 286.082 94.0277 285.305C93.9914 284.528 93.6925 283.786 93.18 283.2C93.36 281.98 94.46 281.46 95.74 281.38C97.02 281.3 97.38 282.72 97.38 282.72C96.5576 283.134 95.8239 283.705 95.22 284.4C95.0355 284.59 94.9323 284.845 94.9323 285.11C94.9323 285.375 95.0355 285.63 95.22 285.82C95.4069 286.003 95.6582 286.106 95.92 286.106C96.1817 286.106 96.4331 286.003 96.62 285.82C99.22 282.54 104 284.12 103.44 287.42V287.48ZM104.84 289.36C105.47 288.309 105.671 287.055 105.4 285.86C107.4 283.86 108.88 285.26 109.02 286.9C109.003 287.382 108.863 287.851 108.613 288.264C108.364 288.677 108.014 289.02 107.596 289.26C107.178 289.5 106.705 289.63 106.223 289.637C105.741 289.644 105.265 289.528 104.84 289.3V289.36Z" fill="#EFAC54"/>
<path d="M70.72 317.04C70.6615 318.747 70.9968 320.444 71.7 322C73.0789 323.953 74.9023 325.55 77.02 326.66C82.36 329.4 87.44 329.4 93.44 329.32C95.9787 329.349 98.4878 328.773 100.76 327.64C106.12 324.82 107.6 317.92 108.6 311.96C110.08 303.36 112.12 290.34 113.58 281.76C112.26 295.76 88.4 298 76.74 291.94C74.6467 290.867 72.8626 289.276 71.5569 287.32C70.2513 285.363 69.4675 283.105 69.28 280.76C69.08 280.56 69.06 277.86 70.72 317.04Z" fill="white"/>
<path d="M112.56 278.32C109.9 274.98 103.9 270.86 90.34 270.16C81.28 269.7 73.9 272.16 70.12 276.78C69.148 277.903 68.4592 279.243 68.1113 280.687C67.7633 282.131 67.7663 283.637 68.12 285.08C68.12 285.3 69.56 310.56 69.56 310.56C69.56 313 69.72 315.46 69.88 317.9C69.8416 319.761 70.3567 321.592 71.36 323.16C73.6638 326.056 76.819 328.154 80.38 329.16C84.3412 330.257 88.4581 330.683 92.56 330.42C96.413 330.639 100.219 329.484 103.3 327.16C108.58 322.56 109.3 314.46 110.3 308C114.56 282.4 116.38 283.12 112.56 278.32ZM106.82 316C105.1 318.1 103.16 322.62 94.44 323.86C94.9003 319.595 95.1406 315.31 95.16 311.02C100.032 310.727 104.703 308.971 108.56 305.98C108.54 306 107.14 314.54 106.82 316ZM110.02 297.06C109.339 297.888 108.582 298.651 107.76 299.34C108.356 296.904 108.744 294.422 108.92 291.92C108.93 291.814 108.93 291.706 108.92 291.6C109.8 290.981 110.605 290.263 111.32 289.46L110.02 297.06ZM70.48 287.74C71.5212 289.386 72.8812 290.807 74.48 291.92C74.356 294.772 74.4831 297.63 74.86 300.46C73.0983 299.44 71.6998 297.894 70.86 296.04L70.48 287.74ZM76.84 300.68C76.4934 298.169 76.3463 295.634 76.4 293.1C77.7801 293.794 79.2109 294.382 80.68 294.86L81.16 303.2C79.6474 302.715 78.1648 302.14 76.72 301.48C76.8096 301.35 76.8672 301.201 76.888 301.044C76.9089 300.888 76.8924 300.729 76.84 300.58V300.68ZM83.18 303.78L82.72 295.42C84.3569 295.815 86.0219 296.082 87.7 296.22C87.6069 299.034 87.7541 301.851 88.14 304.64C86.464 304.451 84.8056 304.13 83.18 303.68V303.78ZM90.14 304.76C89.7662 301.976 89.6124 299.168 89.68 296.36C91.4049 296.47 93.1351 296.47 94.86 296.36C94.7467 299.12 94.7934 301.885 95 304.64C93.3827 304.765 91.7583 304.772 90.14 304.66V304.76ZM96.98 304.28C96.68 299.96 96.98 296.52 96.86 296.08C98.4211 295.872 99.9652 295.551 101.48 295.12L100.58 302.58C100.581 302.825 100.674 303.06 100.84 303.24C99.5771 303.644 98.2872 303.958 96.98 304.18V304.28ZM103.54 294.44C104.646 294.02 105.722 293.526 106.76 292.96C106.517 295.465 106.042 297.943 105.34 300.36C105.259 300.586 105.259 300.834 105.34 301.06C104.439 301.619 103.504 302.12 102.54 302.56C103.6 294 103.56 294.54 103.54 294.34V294.44ZM90.24 272.26C98.48 272.68 113.52 276.02 112.24 283.82C108.24 297.46 76.88 298.28 71.26 284.72C67.46 275.58 80.44 271.68 90.24 272.16V272.26ZM96.06 328.26C92.076 328.84 88.0248 328.779 84.06 328.08C80.4148 327.56 76.9977 325.997 74.22 323.58C73.5084 322.972 72.9271 322.226 72.5112 321.387C72.0953 320.549 71.8534 319.635 71.8 318.7C71.8 318.22 71 299.86 70.98 299.66C72.6602 301.633 74.855 303.101 77.32 303.9C89.58 309.16 102.34 306.86 109.46 300.46L109.06 302.88C105.042 306.727 99.722 308.92 94.16 309.02C93.8964 309.025 93.645 309.132 93.4586 309.319C93.2721 309.505 93.1651 309.756 93.16 310.02C93.1605 315.005 92.88 319.986 92.32 324.94C92.32 325.205 92.4254 325.46 92.6129 325.647C92.8004 325.835 93.0548 325.94 93.32 325.94C97.8293 325.65 102.086 323.756 105.32 320.6C105.06 321.22 104.78 321.86 104.46 322.46C103.613 324.025 102.403 325.363 100.93 326.362C99.4578 327.361 97.7669 327.991 96 328.2L96.06 328.26Z" fill="#A6BCBC"/>
<path d="M116.6 308.74C117.6 309.56 119.02 308.14 118.02 307.34C101.36 293.84 82.48 277.56 66.42 263.16C65.46 262.3 64.04 263.72 65 264.58C65 264.24 82 280.34 116.6 308.74Z" fill="#5E503B"/>
<path d="M128.18 300.16C129.26 300.88 130.18 299.1 129.18 298.42C114.98 288.8 103.56 281.9 70.64 261.52C69.54 260.84 68.64 262.58 69.64 263.26C69.64 262.96 123.24 296.88 128.18 300.16Z" fill="#5E503B"/>
<path d="M206 119.52C205.905 119.393 205.781 119.291 205.638 119.221C205.496 119.151 205.339 119.117 205.18 119.12L189.58 119.32C189.313 119.325 189.059 119.435 188.872 119.626C188.685 119.816 188.58 120.073 188.58 120.34C188.58 120.47 188.606 120.599 188.656 120.72C188.707 120.84 188.781 120.949 188.874 121.04C188.967 121.131 189.078 121.203 189.199 121.251C189.32 121.299 189.45 121.323 189.58 121.32C190.295 122.826 191.431 124.092 192.851 124.965C194.271 125.838 195.914 126.281 197.58 126.24H198C199.775 126.219 201.499 125.645 202.933 124.598C204.367 123.552 205.439 122.084 206 120.4C206.064 120.262 206.098 120.112 206.098 119.96C206.098 119.808 206.064 119.658 206 119.52ZM197.68 124.24C196.54 124.266 195.412 124.011 194.393 123.498C193.375 122.986 192.498 122.231 191.84 121.3L203.58 121.14C202.98 122.152 202.11 122.977 201.069 123.525C200.027 124.072 198.854 124.32 197.68 124.24Z" fill="#5E503B"/>
</svg>
