<svg width="400" height="400" viewBox="0 0 400 400" fill="none" xmlns="http://www.w3.org/2000/svg">
<path d="M301.43 390.502H224.052C229.21 381.206 234.712 369.316 236.61 361.024C237.826 356.392 237.168 351.466 234.778 347.316L243.892 333.126C248.162 331.508 236.976 324.364 236.976 324.364L252.456 291.764C255.79 289.044 258.936 286.104 261.876 282.964C263.638 281.138 264.888 278.88 265.496 276.416C265.802 275.26 265.886 274.058 265.744 272.87L265.818 272.854C265.818 272.854 305.062 274.342 320.382 290.328C345.194 316.218 337.136 390.494 337.136 390.494H301.43V390.502Z" fill="#55DEFF"/>
<path d="M334.872 105.64L266.872 153.376L283.472 62.0439L334.872 105.64ZM277.694 136.46L322.41 105.06L288.6 76.3999L277.694 136.46Z" fill="#313553"/>
<path d="M190.162 253.844C192.294 251.844 196.362 250.218 201.518 253.244C207.086 256.518 209.144 264.466 215.416 264.862C221.688 265.258 230.91 260.1 240.118 253.844C244.03 251.192 248.932 247.61 253.65 244.284C255.498 243.032 257.204 241.58 258.734 239.954C260.184 238.14 261.502 236.226 262.682 234.226C264.924 231.06 268.412 230.768 269.408 233.104C269.66 234.068 269.702 235.076 269.534 236.058C269.366 237.042 268.992 237.978 268.434 238.804C266.654 242.182 264.538 245.374 262.118 248.328L262.426 248.584C263.398 249.81 264.034 251.268 264.27 252.816C264.506 254.362 264.336 255.944 263.774 257.404L263.986 257.478C264.9 259.168 265.344 261.074 265.27 262.994C265.196 264.914 264.608 266.778 263.568 268.394C264.668 269.672 265.418 271.216 265.744 272.87C265.886 274.058 265.802 275.26 265.496 276.416C264.888 278.88 263.638 281.138 261.876 282.964C258.936 286.104 255.79 289.044 252.456 291.764L236.976 324.364L233.708 331.25L233.546 331.676C220.5 326.664 201.546 312.676 201.546 312.676L207.164 303.386L213.984 292.12C209.742 288.376 208.424 287.834 206.534 284.156C204.612 280.376 203.256 276.332 202.512 272.156C201.486 267.424 198.05 263.966 193.048 261.19C191.605 260.484 190.338 259.466 189.34 258.208C188.898 257.634 188.688 256.916 188.753 256.194C188.819 255.472 189.154 254.802 189.692 254.318C189.84 254.152 190 254 190.162 253.844Z" fill="#FFE8BB"/>
<path d="M260.8 100.586L257.034 104.638L253.334 101.202L249.642 97.7662L253.408 93.7142L260.8 100.586Z" fill="#313553"/>
<path d="M252.888 230.02C252.866 230.018 252.844 230.012 252.822 230.006C252.844 230.012 252.866 230.018 252.888 230.02ZM252.916 230.02C253.656 230.24 258.646 231.77 258.558 234.042C258.47 236.496 256.77 236.496 256.77 236.496C257.108 236.804 257.368 237.186 257.53 237.612C257.694 238.038 257.754 238.496 257.708 238.95L258.734 239.95C257.204 241.576 255.498 243.028 253.65 244.28C248.932 247.606 244.03 251.188 240.118 253.84C230.918 260.096 221.694 265.262 215.416 264.858C209.138 264.454 207.086 256.514 201.518 253.24C196.354 250.206 192.294 251.84 190.162 253.84C188.5 254.712 187.056 253.328 186.294 251.44C185.931 250.528 185.74 249.558 185.73 248.576C185.73 248.576 182.73 242.92 178.272 236.342C177.005 234.31 175.388 232.518 173.496 231.052C173.474 231.038 173.452 231.016 173.43 231.002C172.758 230.418 171.917 230.068 171.03 230.002C164.522 220.754 161.551 209.476 162.658 198.222C162.658 198.148 162.658 198.104 162.658 198.104C162.88 195.419 163.318 192.756 163.97 190.142C162.526 197.644 172.394 201.672 174.68 203.856C177.068 206.134 173.88 210.728 174.68 217.474C174.98 221.246 176.129 224.902 178.04 228.168C179.952 231.432 182.577 234.224 185.72 236.332C192.974 240.932 199.742 238.082 207.442 238.186C205.954 231.884 207.998 225.73 215.998 221.724C221.874 218.482 228.416 216.634 235.12 216.324C237.67 216.198 240.188 216.926 242.278 218.394C244.366 219.862 245.906 221.984 246.65 224.426C246.65 224.426 248.43 217.504 247.94 215.504C246.782 210.736 245.106 206.108 242.94 201.704C246.426 205.958 249.188 210.754 251.116 215.904C251.116 215.904 254.61 218.454 254.61 220.726C254.616 221.338 254.382 221.928 253.958 222.37C253.534 222.812 252.952 223.068 252.34 223.084C252.34 223.084 255.94 225.164 255.556 227.904C255.56 228.23 255.49 228.554 255.352 228.848C255.212 229.144 255.008 229.404 254.754 229.608C254.498 229.814 254.202 229.958 253.882 230.03C253.564 230.102 253.234 230.102 252.916 230.028V230.02ZM241.444 237.118C245.738 236.664 245.76 231.118 243.488 225.64C238.236 215.288 228.66 220.862 221.122 223.698C213.584 226.534 209.21 229.764 212.822 238.16C214.222 241.36 219.114 246.796 224.162 244.686C229.21 242.576 227.35 237.668 231.762 236.116C236.888 234.306 237.532 237.544 241.444 237.126V237.118Z" fill="#313553"/>
<path d="M253.334 101.202L257.034 104.638L224.924 139.186L224.66 135.384L221.224 135.75L221.136 132.11L217.532 132.314L249.642 97.7662L253.334 101.202Z" fill="#FFE8BB"/>
<path d="M217.4 196.424C219.436 197.772 220.22 194.424 222.88 191.34C225.136 188.609 228.198 186.661 231.626 185.772C230.01 185.349 228.318 185.304 226.682 185.641C225.044 185.978 223.508 186.687 222.19 187.714C217.678 191.244 215.372 195.084 217.4 196.424ZM185.2 206.278C191.712 199.078 189.706 197.252 198.1 195.384C202.078 194.498 204.664 196.848 204.438 194.416C204.212 191.984 199.742 190.746 194.496 193.062C189.334 195.346 185.312 205.948 185.2 206.278ZM247.954 215.516C248.444 217.516 246.664 224.438 246.664 224.438C245.92 221.996 244.38 219.872 242.292 218.406C240.202 216.938 237.684 216.21 235.134 216.336C228.43 216.646 221.888 218.494 216.012 221.736C208.012 225.736 205.968 231.896 207.456 238.198C199.756 238.094 192.988 240.944 185.734 236.344C182.591 234.236 179.966 231.444 178.054 228.18C176.143 224.914 174.994 221.258 174.694 217.486C173.894 210.74 177.082 206.146 174.694 203.868C172.408 201.684 162.54 197.656 163.984 190.154C164.491 188.037 165.187 185.97 166.064 183.978C173.61 167.23 193.844 162.652 204.452 162.66C213.99 162.66 228.328 171.422 233.836 179.692C236.958 184.366 235.506 185.662 236.942 190.072V190.088C237.302 191.175 237.74 192.236 238.254 193.26C238.898 194.572 240.832 197.42 242.934 201.714C245.106 206.118 246.788 210.746 247.95 215.516H247.954ZM230.108 198.628C231.376 198.388 232.144 197.628 231.822 195.904C231.5 194.18 230.21 193.002 228.942 193.238C228.258 193.494 227.698 194.003 227.378 194.66C227.06 195.317 227.006 196.072 227.228 196.768C227.266 197.093 227.374 197.406 227.548 197.684C227.72 197.962 227.952 198.199 228.226 198.377C228.502 198.555 228.812 198.669 229.138 198.713C229.462 198.756 229.792 198.727 230.104 198.628H230.108ZM199.814 210.358C201.184 210.094 202.014 209.258 201.668 207.406C201.322 205.554 199.924 204.262 198.548 204.526C197.807 204.802 197.201 205.352 196.856 206.064C196.51 206.774 196.452 207.592 196.694 208.344C196.734 208.696 196.852 209.036 197.039 209.338C197.226 209.638 197.478 209.896 197.776 210.088C198.074 210.28 198.411 210.404 198.762 210.452C199.114 210.498 199.472 210.466 199.81 210.358H199.814Z" fill="#FFE8BB"/>
<path d="M243.892 333.126L234.778 347.316C237.168 351.466 237.826 356.392 236.61 361.024C234.712 369.316 229.21 381.206 224.052 390.502H149.262C154.822 382.342 177.138 342.102 182.462 335.924C187.326 330.276 191.524 329.25 191.524 329.25L201.554 312.672C201.554 312.672 220.506 326.672 233.554 331.672C235.758 332.596 238.09 333.184 240.47 333.416C241.618 333.538 242.78 333.44 243.892 333.126Z" fill="#55DEFF"/>
<path d="M189.372 212.256C193.002 212.09 196.619 211.714 200.206 211.134C203.378 210.41 203.576 205.976 203.576 205.976C203.576 205.976 202.47 202.776 197.964 204.124C194.478 205.164 189.372 212.256 189.372 212.256Z" fill="white"/>
<path d="M219.4 200.534C223.036 200.458 226.66 200.082 230.234 199.412C234.748 198.116 233.254 192.98 233.254 192.98C233.254 192.98 232.616 191.544 228 192.402C225.612 192.842 219.4 200.534 219.4 200.534Z" fill="white"/>
<path d="M243.488 225.648C245.76 231.126 245.738 236.672 241.444 237.126C237.532 237.544 236.888 234.306 231.752 236.126C227.352 237.678 229.21 242.594 224.152 244.696C219.094 246.798 214.204 241.378 212.812 238.17C209.2 229.77 213.566 226.542 221.112 223.708C228.658 220.874 238.236 215.296 243.488 225.648Z" fill="#FFE8BB"/>
<path d="M222.2 187.714C223.518 186.687 225.054 185.978 226.692 185.641C228.328 185.304 230.02 185.349 231.636 185.772C228.208 186.661 225.146 188.609 222.89 191.34C220.23 194.432 219.446 197.772 217.41 196.424C215.374 195.076 217.678 191.244 222.2 187.714Z" fill="#313553"/>
<path d="M214.616 140.314C216.316 139.89 218.002 141.004 217.158 142.68L213.078 144.52L214.61 140.32L214.616 140.314Z" fill="#313553"/>
<path d="M184.712 278.884L189.532 277.244L184.712 251.866C185.05 251.786 185.386 251.684 185.73 251.574L186.294 251.434C187.056 253.332 188.494 254.716 190.162 253.834C189.994 253.988 189.84 254.142 189.694 254.304C189.156 254.788 188.821 255.458 188.755 256.18C188.69 256.902 188.899 257.62 189.342 258.194C190.339 259.452 191.606 260.472 193.05 261.176C198.05 263.952 201.488 267.41 202.514 272.142C203.258 276.318 204.612 280.362 206.536 284.142C208.426 287.82 209.736 288.362 213.986 292.106L207.166 303.372C184.712 295.278 181.13 277.234 181.13 277.234C181.825 277.08 182.552 277.156 183.199 277.454C183.846 277.752 184.377 278.254 184.712 278.884Z" fill="#FFE8BB"/>
<path d="M207.166 303.382L201.548 312.672L191.518 329.25C191.518 329.25 187.318 330.276 182.456 335.924C177.138 342.1 154.822 382.342 149.256 390.502H102.4C102.4 390.502 99.58 346.576 110.854 319.682C122.128 292.788 181.14 277.244 181.14 277.244C181.14 277.244 184.712 295.288 207.166 303.382Z" fill="#55DEFF"/>
<path d="M204.434 194.416C204.66 196.848 202.074 194.498 198.096 195.384C189.696 197.252 191.708 199.076 185.196 206.278C185.312 205.948 189.334 195.346 194.492 193.062C199.738 190.746 204.214 191.984 204.434 194.416Z" fill="#313553"/>
<path d="M186.294 251.434L185.73 251.574C185.386 251.684 185.05 251.786 184.712 251.866C169.848 255.706 165.312 235.866 167.43 232.108C169.416 228.562 172.902 230.658 173.43 230.996C173.452 231.01 173.474 231.032 173.496 231.046C175.388 232.512 177.005 234.304 178.272 236.336C182.734 242.914 185.73 248.57 185.73 248.57C185.74 249.552 185.931 250.522 186.294 251.434Z" fill="#FFE8BB"/>
<path d="M146.368 161.31C148.382 164.652 138.31 174.432 123.87 183.15C109.43 191.868 96.082 196.226 94.07 192.878C92.058 189.53 102.122 179.758 116.56 171.046C130.998 162.334 144.346 157.97 146.368 161.31Z" fill="#55DEFF"/>
<path d="M119.862 117.4L146.368 161.31C144.346 157.97 131.006 162.328 116.568 171.046C102.13 179.764 92.046 189.538 94.068 192.878L67.562 148.982C69.584 152.322 82.926 147.962 97.362 139.244C111.798 130.526 121.878 120.754 119.862 117.4Z" fill="#55DEFF"/>
<path d="M119.862 117.4C121.878 120.748 111.812 130.52 97.364 139.238C82.916 147.956 69.584 152.316 67.564 148.976C65.544 145.636 75.624 135.854 90.062 127.136C104.5 118.418 117.848 114.066 119.862 117.4Z" fill="#55DEFF"/>
<path d="M213.986 233.618L216.308 233.764C217.612 231.942 219.132 230.286 220.836 228.834C222.056 228.002 223.45 227.454 224.91 227.234" stroke="#313553" stroke-width="0.733" stroke-linecap="round" stroke-linejoin="round"/>
<path d="M227.07 226.38C229.166 225.726 231.314 225.242 233.488 224.936C235.102 225.226 236.69 225.638 238.242 226.168L239.35 224.438" stroke="#313553" stroke-width="0.733" stroke-linecap="round" stroke-linejoin="round"/>
<path d="M223.114 235.582C225.386 235.544 227.642 235.192 229.818 234.534C231.92 233.672 233.942 232.632 235.862 231.42" stroke="#313553" stroke-width="0.733" stroke-linecap="round" stroke-linejoin="round"/>
<path d="M214.72 216.336C214.758 215.724 214.988 215.14 215.378 214.666C215.644 214.322 216.03 214.092 216.458 214.018C216.886 213.944 217.328 214.032 217.694 214.266C219.078 214.948 220.628 215.224 222.162 215.066C223.95 214.866 225.07 213.102 225.762 212.048C225.922 211.818 226.146 211.642 226.408 211.544C226.67 211.446 226.956 211.43 227.226 211.498C227.498 211.566 227.742 211.716 227.924 211.928C228.108 212.138 228.224 212.4 228.254 212.678" stroke="#313553" stroke-width="0.733" stroke-linecap="round" stroke-linejoin="round"/>
<path d="M211.122 213.23C210.096 215.472 210.764 219.148 213.504 218.776" stroke="#313553" stroke-width="0.733" stroke-linecap="round" stroke-linejoin="round"/>
<path d="M228.72 207.67C228.72 207.67 233.942 210.87 230.588 214.05" stroke="#313553" stroke-width="0.733" stroke-linecap="round" stroke-linejoin="round"/>
<path d="M185.2 206.278C185.316 205.948 189.338 195.346 194.496 193.062C199.742 190.746 204.218 191.984 204.438 194.416C204.658 196.848 202.078 194.498 198.1 195.384C189.702 197.252 191.708 199.076 185.2 206.278Z" stroke="#313553" stroke-width="0.733" stroke-linecap="round" stroke-linejoin="round"/>
<path d="M217.4 196.424C219.436 197.772 220.22 194.424 222.88 191.34C225.136 188.609 228.198 186.661 231.626 185.772C230.01 185.349 228.318 185.304 226.682 185.641C225.044 185.978 223.508 186.687 222.19 187.714C217.678 191.244 215.372 195.084 217.4 196.424Z" stroke="#313553" stroke-width="0.733" stroke-linecap="round" stroke-linejoin="round"/>
<path d="M189.372 211.486C189.372 211.486 193.012 205.868 196.112 204.65C198.188 203.922 200.406 203.692 202.588 203.976" stroke="#313553" stroke-width="0.733" stroke-linecap="round" stroke-linejoin="round"/>
<path d="M199.444 207.574C199.252 206.484 198.722 205.482 197.928 204.71C197.1 203.94 196.36 204.87 195.386 205.062C193.438 205.428 192.016 206.402 192.47 208.886C192.566 209.71 192.97 210.468 193.6 211.006C194.23 211.546 195.041 211.826 195.87 211.794C196.182 211.792 196.493 211.762 196.8 211.706C197.269 211.658 197.721 211.504 198.122 211.256C198.523 211.008 198.863 210.674 199.118 210.276C199.372 209.88 199.533 209.43 199.589 208.962C199.646 208.494 199.596 208.02 199.444 207.574Z" fill="#313553"/>
<path d="M220.25 200.314C220.25 200.314 223.158 194.694 226.264 193.486C228.34 192.754 230.56 192.523 232.742 192.812" stroke="#313553" stroke-width="0.733" stroke-linecap="round" stroke-linejoin="round"/>
<path d="M229.012 196.57C228.972 196.133 228.842 195.709 228.628 195.325C228.414 194.941 228.124 194.606 227.774 194.341C227.424 194.077 227.022 193.888 226.594 193.788C226.166 193.687 225.722 193.677 225.292 193.758C224.86 193.839 224.45 194.01 224.088 194.258C223.726 194.507 223.42 194.828 223.19 195.202C222.96 195.576 222.81 195.993 222.75 196.428C222.69 196.863 222.722 197.306 222.844 197.728C222.902 198.14 223.042 198.537 223.258 198.894C223.472 199.25 223.758 199.559 224.096 199.802C224.612 200.144 225.22 200.32 225.84 200.306C226.116 200.304 226.39 200.278 226.66 200.226C227.074 200.18 227.472 200.042 227.826 199.823C228.18 199.604 228.48 199.308 228.706 198.958C228.932 198.608 229.076 198.212 229.128 197.798C229.182 197.385 229.142 196.966 229.012 196.57Z" fill="#313553"/>
<path d="M217.4 196.424C217.718 197.552 218.264 198.604 219.006 199.512C219.746 200.42 220.666 201.168 221.708 201.706" stroke="#313553" stroke-width="0.733" stroke-linecap="round" stroke-linejoin="round"/>
<path d="M173.43 231C172.902 230.662 169.416 228.566 167.43 232.112C165.32 235.864 169.848 255.712 184.712 251.87C185.05 251.79 185.386 251.688 185.73 251.578" stroke="#313553" stroke-width="0.733" stroke-linecap="round" stroke-linejoin="round"/>
<path d="M174.8 236.336C172.068 236.336 171.064 240.79 173.8 244.82C174.6 245.962 175.737 246.826 177.052 247.288C178.367 247.752 179.795 247.794 181.134 247.406" stroke="#313553" stroke-width="0.733" stroke-linecap="round" stroke-linejoin="round"/>
<path d="M190.316 253.764C190.266 253.794 190.215 253.82 190.162 253.844C188.5 254.716 187.056 253.332 186.294 251.444C185.931 250.532 185.74 249.562 185.73 248.58C185.73 248.58 182.73 242.924 178.272 236.346C177.005 234.314 175.388 232.522 173.496 231.056C173.474 231.042 173.452 231.02 173.43 231.004C172.757 230.426 171.915 230.08 171.03 230.016" stroke="#313553" stroke-width="0.733" stroke-linecap="round" stroke-linejoin="round"/>
<path d="M162.66 198.226C161.557 209.478 164.528 220.752 171.034 230" stroke="#313553" stroke-width="0.733" stroke-linecap="round" stroke-linejoin="round"/>
<path d="M236.938 190.064C235.502 185.664 236.954 184.358 233.832 179.684C228.324 171.414 213.986 162.652 204.448 162.652C193.848 162.652 173.606 167.222 166.06 183.97C165.183 185.962 164.487 188.029 163.98 190.146C163.328 192.76 162.89 195.423 162.668 198.108" stroke="#313553" stroke-width="0.733" stroke-linecap="round" stroke-linejoin="round"/>
<path d="M242.938 201.706C240.836 197.412 238.902 194.564 238.258 193.252C237.744 192.228 237.306 191.167 236.946 190.08" stroke="#313553" stroke-width="0.733" stroke-linecap="round" stroke-linejoin="round"/>
<path d="M164.236 189.134C164.128 189.465 164.042 189.803 163.98 190.146C162.536 197.648 172.404 201.676 174.69 203.86C177.078 206.138 173.89 210.732 174.69 217.478C174.99 221.25 176.139 224.906 178.051 228.172C179.962 231.436 182.588 234.228 185.73 236.336C192.984 240.936 199.752 238.086 207.452 238.19C205.964 231.888 208.008 225.734 216.008 221.728C221.884 218.486 228.426 216.638 235.13 216.328C237.68 216.202 240.198 216.93 242.288 218.398C244.376 219.866 245.916 221.988 246.66 224.43C246.66 224.43 248.44 217.508 247.95 215.508C246.792 210.74 245.116 206.112 242.95 201.708" stroke="#313553" stroke-width="0.733" stroke-linecap="round" stroke-linejoin="round"/>
<path d="M252.916 230.028C253.234 230.102 253.564 230.104 253.884 230.032C254.202 229.96 254.5 229.818 254.754 229.614C255.01 229.41 255.216 229.15 255.354 228.854C255.494 228.56 255.566 228.236 255.562 227.91C255.934 225.17 252.346 223.09 252.346 223.09C252.958 223.074 253.54 222.818 253.964 222.376C254.388 221.934 254.624 221.344 254.616 220.732C254.616 218.46 251.122 215.91 251.122 215.91C249.194 210.76 246.432 205.964 242.946 201.71" stroke="#313553" stroke-width="0.733" stroke-linecap="round" stroke-linejoin="round"/>
<path d="M252.888 230.02C252.866 230.018 252.844 230.012 252.822 230.006C252.844 230.012 252.866 230.018 252.888 230.02Z" stroke="#313553" stroke-width="0.733" stroke-linecap="round" stroke-linejoin="round"/>
<path d="M252.888 230.02C252.888 230.02 252.902 230.02 252.916 230.02" stroke="#313553" stroke-width="0.733" stroke-linecap="round" stroke-linejoin="round"/>
<path d="M257.708 238.958C257.754 238.504 257.694 238.046 257.53 237.62C257.368 237.194 257.108 236.812 256.77 236.504C256.77 236.504 258.47 236.504 258.558 234.05C258.646 231.778 253.656 230.25 252.916 230.028" stroke="#313553" stroke-width="0.733" stroke-linecap="round" stroke-linejoin="round"/>
<path d="M250.616 258.144C252.806 256.298 255.202 254.544 258.484 251.976C259.818 250.892 261.036 249.672 262.118 248.336C264.538 245.382 266.654 242.19 268.434 238.812C268.992 237.986 269.366 237.05 269.534 236.066C269.702 235.084 269.66 234.076 269.408 233.112C268.408 230.776 264.924 231.068 262.682 234.234C261.502 236.234 260.182 238.148 258.734 239.962C257.204 241.588 255.498 243.04 253.65 244.292C248.932 247.618 244.03 251.2 240.118 253.852C230.918 260.108 221.694 265.274 215.416 264.87C209.138 264.466 207.086 256.526 201.518 253.252C196.352 250.218 192.294 251.852 190.162 253.852C189.994 254.006 189.84 254.16 189.694 254.322C189.156 254.806 188.821 255.476 188.756 256.198C188.69 256.92 188.9 257.638 189.342 258.212C190.339 259.47 191.606 260.488 193.048 261.194C198.048 263.97 201.488 267.428 202.514 272.16C203.258 276.336 204.614 280.38 206.536 284.16C208.426 287.838 209.736 288.38 213.986 292.124" stroke="#313553" stroke-width="0.733" stroke-linecap="round" stroke-linejoin="round"/>
<path d="M263.986 257.486C264.9 259.176 265.342 261.082 265.27 263.002C265.196 264.922 264.608 266.786 263.568 268.402C262.656 270.018 261.55 271.516 260.272 272.862" stroke="#313553" stroke-width="0.733" stroke-linecap="round" stroke-linejoin="round"/>
<path d="M263.568 268.4C264.668 269.678 265.418 271.222 265.744 272.876C265.886 274.064 265.802 275.266 265.496 276.422C264.888 278.886 263.638 281.144 261.876 282.97C258.936 286.11 255.79 289.05 252.456 291.77C250.878 293.05 249.218 294.228 247.488 295.294" stroke="#313553" stroke-width="0.733" stroke-linecap="round" stroke-linejoin="round"/>
<path d="M252.456 291.764L236.976 324.364L233.708 331.25" stroke="#313553" stroke-width="0.733" stroke-linecap="round" stroke-linejoin="round"/>
<path d="M213.986 292.116L207.166 303.382L201.548 312.672L191.518 329.25C191.518 329.25 187.318 330.276 182.456 335.924C177.138 342.1 154.822 382.342 149.256 390.502" stroke="#313553" stroke-width="0.733" stroke-linecap="round" stroke-linejoin="round"/>
<path d="M201.548 312.672C201.548 312.672 220.5 326.672 233.548 331.672C235.752 332.596 238.084 333.184 240.464 333.416C241.616 333.538 242.78 333.438 243.894 333.122C248.164 331.502 236.978 324.36 236.978 324.36" stroke="#313553" stroke-width="0.733" stroke-linecap="round" stroke-linejoin="round"/>
<path d="M243.892 333.126L234.778 347.316C237.168 351.466 237.826 356.392 236.61 361.024C234.712 369.316 229.21 381.206 224.052 390.502" stroke="#313553" stroke-width="0.733" stroke-linecap="round" stroke-linejoin="round"/>
<path d="M102.4 390.502C102.4 390.502 99.58 346.576 110.854 319.682C122.128 292.788 181.14 277.244 181.14 277.244C181.14 277.244 184.722 295.288 207.176 303.382" stroke="#313553" stroke-width="0.733" stroke-linecap="round" stroke-linejoin="round"/>
<path d="M184.712 251.866L189.532 277.244L190.316 281.368" stroke="#313553" stroke-width="0.733" stroke-linecap="round" stroke-linejoin="round"/>
<path d="M182.2 279.742L184.712 278.884L189.532 277.244H189.54" stroke="#313553" stroke-width="0.733" stroke-linecap="round" stroke-linejoin="round"/>
<path d="M265.818 272.862C265.818 272.862 305.062 274.35 320.382 290.336C345.194 316.226 337.136 390.502 337.136 390.502" stroke="#313553" stroke-width="0.733" stroke-linecap="round" stroke-linejoin="round"/>
<path d="M304.06 379.448C302.616 385.712 301.43 390.502 301.43 390.502" stroke="#313553" stroke-width="0.733" stroke-linecap="round" stroke-linejoin="round"/>
<path d="M309.158 352.584C308.968 357.404 306.228 370.07 304.066 379.44" stroke="#313553" stroke-width="0.733" stroke-linecap="round" stroke-linejoin="round"/>
<path d="M212.822 238.168C214.222 241.368 219.114 246.804 224.162 244.694C229.21 242.584 227.35 237.676 231.762 236.124C236.898 234.306 237.542 237.544 241.454 237.124C245.748 236.67 245.77 231.124 243.498 225.646C238.246 215.294 228.67 220.868 221.132 223.704C213.594 226.54 209.21 229.772 212.822 238.168Z" stroke="#313553" stroke-width="0.733" stroke-linecap="round" stroke-linejoin="round"/>
<path d="M320.952 159.178L320.974 159.2C321.428 159.896 332.19 176.52 316.908 186.248C301.298 196.19 289.73 174.212 289.73 174.212C289.73 174.212 287.474 193.212 269.678 194.612C266.524 194.789 263.378 194.173 260.522 192.822C257.668 191.471 255.196 189.427 253.334 186.876C251.094 184.107 249.304 181.002 248.03 177.676" stroke="#313553" stroke-width="0.733" stroke-linecap="round" stroke-linejoin="round"/>
<path d="M272.4 41.2158C272.6 40.8638 279.344 29.2458 292.744 31.9638C307.504 34.9638 305.396 50.4698 305.396 50.4698C305.396 50.4698 336.56 27.9058 358.552 57.9858C382.172 90.2918 351.614 113.502 351.614 113.502C351.614 113.502 380.062 132.388 361.556 155.516C343.416 178.19 321.828 159.916 320.984 159.2" stroke="#313553" stroke-width="0.733" stroke-linecap="round" stroke-linejoin="round"/>
<path d="M105.738 67.6C105.57 67.2 100.076 53.886 109.9 47.454C120.596 40.454 131.034 53.022 131.034 53.022C131.034 53.022 135.386 19.2461 169.188 11.7301C202.99 4.21409 219.524 33.7 219.524 33.7C219.524 33.7 232.214 12.1001 255.218 18.7481C272.316 23.686 272.39 40.924 272.39 41.21" stroke="#313553" stroke-width="0.733" stroke-linecap="round" stroke-linejoin="round"/>
<path d="M151.122 204.072C151.122 204.072 150.068 213.984 136.976 217.64C123.884 221.296 117.188 209.522 117.188 209.522C117.188 209.522 85.3359 235.148 55.0139 218.8C28.9559 204.742 28.2299 170.866 49.2039 146.64C49.2039 146.64 29.2699 144.516 32.5659 126.392C36.1119 106.912 59.3499 109.46 59.3499 109.46C59.3499 109.46 43.8919 88.308 61.8999 69.018C79.7239 49.926 105.218 67.23 105.732 67.582" stroke="#313553" stroke-width="0.733" stroke-linecap="round" stroke-linejoin="round"/>
<path d="M151.254 243.502C154.2 243.502 156.588 241.114 156.588 238.168C156.588 235.222 154.2 232.834 151.254 232.834C148.308 232.834 145.92 235.222 145.92 238.168C145.92 241.114 148.308 243.502 151.254 243.502Z" stroke="#313553" stroke-width="0.733" stroke-linecap="round" stroke-linejoin="round"/>
<path d="M130.252 249.478C134.444 249.478 137.842 245.424 137.842 240.424C137.842 235.424 134.444 231.37 130.252 231.37C126.06 231.37 122.662 235.424 122.662 240.424C122.662 245.424 126.06 249.478 130.252 249.478Z" stroke="#313553" stroke-width="0.733" stroke-linecap="round" stroke-linejoin="round"/>
<path d="M113.628 237.296C111.84 241.882 106.054 245.756 101.468 243.976C96.882 242.196 95.232 235.42 97.02 230.834C98.808 226.248 104.596 222.372 109.182 224.16C113.768 225.948 115.416 232.71 113.628 237.296Z" stroke="#313553" stroke-width="0.733" stroke-linecap="round" stroke-linejoin="round"/>
<path d="M119.862 117.4C121.878 120.748 111.812 130.52 97.364 139.238C82.916 147.956 69.584 152.316 67.564 148.976C65.544 145.636 75.624 135.854 90.062 127.136C104.5 118.418 117.848 114.066 119.862 117.4Z" stroke="#313553" stroke-width="0.733" stroke-linecap="round" stroke-linejoin="round" stroke-dasharray="4.4 4.4"/>
<path d="M146.368 161.31C148.382 164.652 138.31 174.432 123.87 183.15C109.43 191.868 96.082 196.226 94.07 192.878C92.058 189.53 102.122 179.758 116.56 171.046C130.998 162.334 144.346 157.97 146.368 161.31Z" stroke="#313553" stroke-width="0.733" stroke-linecap="round" stroke-linejoin="round" stroke-dasharray="4.4 4.4"/>
<path d="M67.562 148.982L94.068 192.878" stroke="#313553" stroke-width="0.733" stroke-linecap="round" stroke-linejoin="round" stroke-dasharray="4.4 4.4"/>
<path d="M119.862 117.406L146.368 161.31" stroke="#313553" stroke-width="0.733" stroke-linecap="round" stroke-linejoin="round" stroke-dasharray="4.4 4.4"/>
<path d="M57.6218 132.504L73.5778 122.878" stroke="#313553" stroke-width="0.733" stroke-linecap="round" stroke-linejoin="round"/>
<path d="M93.9658 110.564L109.922 100.938" stroke="#313553" stroke-width="0.733" stroke-linecap="round" stroke-linejoin="round"/>
<path d="M83.2838 120.74C83.6884 120.931 84.134 121.018 84.5806 120.994C85.0272 120.969 85.4606 120.834 85.8418 120.6C86.1516 120.416 86.4218 120.173 86.6372 119.884C86.8524 119.595 87.0084 119.267 87.096 118.917C87.1838 118.568 87.2014 118.204 87.148 117.848C87.0948 117.492 86.9714 117.15 86.7852 116.841C86.599 116.533 86.3536 116.265 86.0632 116.052C85.7728 115.838 85.4432 115.685 85.0932 115.6C84.7432 115.515 84.3798 115.5 84.0238 115.556C83.668 115.612 83.3268 115.738 83.0198 115.926L82.9398 115.794C83.5436 115.412 83.9736 114.809 84.138 114.114C84.3022 113.419 84.1876 112.688 83.8186 112.076C83.4498 111.465 82.8558 111.022 82.1644 110.843C81.4728 110.664 80.739 110.764 80.1198 111.12C79.7346 111.348 79.4122 111.669 79.1818 112.053C78.9514 112.437 78.8202 112.873 78.7998 113.32" stroke="#313553" stroke-width="0.733" stroke-linecap="round" stroke-linejoin="round"/>
<path d="M230.58 85.318C231.91 93.8386 229.864 102.542 224.872 109.575C219.882 116.608 212.344 121.416 203.862 122.974C203.576 123.018 203.29 123.07 203.004 123.114C194.347 124.444 185.516 122.286 178.447 117.114C171.378 111.942 166.649 104.178 165.296 95.5246C163.944 86.871 166.078 78.034 171.231 70.9516C176.384 63.8692 184.136 59.1196 192.786 57.744C193.072 57.7 193.35 57.656 193.636 57.626C202.188 56.5146 210.838 58.7874 217.738 63.9604C224.64 69.1332 229.248 76.797 230.58 85.318Z" stroke="#313553" stroke-width="0.733" stroke-linecap="round" stroke-linejoin="round"/>
<path d="M192.778 52.132L193.636 57.626L198.748 90.3L203.862 122.974L204.72 128.462" stroke="#313553" stroke-width="0.733" stroke-linecap="round" stroke-linejoin="round" stroke-dasharray="4.4 4.4"/>
<path d="M160.588 96.264L165.21 95.538L198.748 90.3L230.58 85.318L236.91 84.33" stroke="#313553" stroke-width="0.733" stroke-linecap="round" stroke-linejoin="round" stroke-dasharray="4.4 4.4"/>
<path d="M134.178 85.898C128.464 100.542 134.404 128.534 156.924 131.464C179.444 134.394 177.064 143.582 184.524 149.428C191.984 155.274 200.924 152.776 207.74 147.34" stroke="#313553" stroke-width="0.733" stroke-linecap="round" stroke-linejoin="round"/>
<path d="M257.034 104.638L224.924 139.186L224.66 135.384L221.224 135.75L221.136 132.11L217.532 132.314L249.642 97.7662" stroke="#313553" stroke-width="0.733" stroke-linecap="round" stroke-linejoin="round"/>
<path d="M214.61 140.314L213.078 144.52L217.158 142.68L224.924 139.186" stroke="#313553" stroke-width="0.733" stroke-linecap="round" stroke-linejoin="round"/>
<path d="M217.532 132.314L214.616 140.314" stroke="#313553" stroke-width="0.733" stroke-linecap="round" stroke-linejoin="round"/>
<path d="M214.61 140.314C216.31 139.89 217.996 141.004 217.152 142.68" stroke="#313553" stroke-width="0.733" stroke-linecap="round" stroke-linejoin="round"/>
<path d="M253.334 101.202L225.158 131.516" stroke="#313553" stroke-width="0.733" stroke-linecap="round" stroke-linejoin="round"/>
<path d="M260.8 100.586L257.034 104.638L253.334 101.202L249.642 97.7662L253.408 93.7142" stroke="#313553" stroke-width="0.733" stroke-linecap="round" stroke-linejoin="round"/>
<path d="M260.8 100.586L262.478 98.7758C262.93 98.29 263.28 97.72 263.512 97.0984C263.742 96.4768 263.848 95.8158 263.824 95.1532C263.8 94.4906 263.644 93.8392 263.368 93.2364C263.092 92.6336 262.7 92.0912 262.214 91.6398C261.728 91.1886 261.158 90.8376 260.536 90.6066C259.914 90.3758 259.254 90.2694 258.592 90.294C257.928 90.3184 257.278 90.4732 256.674 90.7496C256.072 91.0258 255.53 91.418 255.078 91.9038L253.4 93.7138L260.8 100.586Z" stroke="#313553" stroke-width="0.733" stroke-linecap="round" stroke-linejoin="round"/>
<path d="M262.426 248.6C263.398 249.826 264.034 251.284 264.27 252.832C264.506 254.378 264.336 255.96 263.774 257.42C262.682 260.344 260.902 262.962 258.586 265.054" stroke="#313553" stroke-width="0.733" stroke-linecap="round" stroke-linejoin="round"/>
<path d="M189.342 258.2C189.342 258.2 191.664 255.16 194.03 256.382C196.396 257.604 197.46 258.2 197.46 258.2" stroke="#313553" stroke-width="0.733" stroke-linecap="round" stroke-linejoin="round"/>
<path d="M181.13 277.244C181.824 277.088 182.55 277.164 183.197 277.46C183.844 277.756 184.376 278.256 184.712 278.884" stroke="#313553" stroke-width="0.733" stroke-linecap="round" stroke-linejoin="round"/>
<path d="M265.576 237.214C265.576 237.214 265.766 232.666 269.408 233.112" stroke="#313553" stroke-width="0.733" stroke-linecap="round" stroke-linejoin="round"/>
<path d="M145.226 195.948C145.226 195.948 145.386 202.98 151.144 203.962C152.095 204.114 153.065 204.114 154.016 203.962C161.796 202.87 162.58 198.944 162.66 198.218C162.66 198.144 162.66 198.1 162.66 198.1" stroke="#313553" stroke-width="0.733" stroke-linecap="round" stroke-linejoin="round"/>
<path d="M236.938 190.064V190.08C237.796 191.646 239.142 192.889 240.772 193.62C242.4 194.351 244.224 194.53 245.964 194.13C251.364 193.2 253.326 186.878 253.326 186.878" stroke="#313553" stroke-width="0.733" stroke-linecap="round" stroke-linejoin="round"/>
<path d="M334.872 105.64L283.458 62.0439L266.866 153.376L334.872 105.64Z" stroke="#313553" stroke-width="0.733" stroke-linecap="round" stroke-linejoin="round"/>
<path d="M322.41 105.07L277.694 136.46L288.602 76.402L322.41 105.07Z" stroke="#313553" stroke-width="0.733" stroke-linecap="round" stroke-linejoin="round"/>
<path d="M273.458 159.238L341.466 111.502" stroke="#313553" stroke-width="0.733" stroke-linecap="round" stroke-linejoin="round" stroke-dasharray="4.4 4.4"/>
<path d="M314.66 369.528C311.328 373.042 307.788 376.35 304.06 379.44" stroke="#313553" stroke-width="0.733" stroke-linecap="round" stroke-linejoin="round"/>
</svg>
