<svg width="400" height="400" viewBox="0 0 400 400" fill="none" xmlns="http://www.w3.org/2000/svg">
<path d="M43.616 200C43.616 242.435 60.4731 283.131 90.4789 313.137C120.485 343.143 161.181 360 203.616 360C246.051 360 286.747 343.143 316.753 313.137C346.759 283.131 363.616 242.435 363.616 200C363.616 157.565 346.759 116.869 316.753 86.8629C286.747 56.8571 246.051 40 203.616 40C161.181 40 120.485 56.8571 90.4789 86.8629C60.4731 116.869 43.616 157.565 43.616 200Z" fill="#D9EDFF"/>
<path d="M157.892 168.628L131.752 194.768C130.903 195.616 129.823 196.193 128.646 196.426C127.47 196.66 126.251 196.54 125.143 196.081C124.034 195.622 123.087 194.845 122.42 193.848C121.754 192.851 121.397 191.679 121.396 190.48V168.628H94.268C90.3969 168.628 86.6843 167.09 83.9471 164.353C81.2098 161.616 79.672 157.903 79.672 154.032V78.6C79.672 74.7285 81.2097 71.0156 83.9468 68.2777C86.684 65.5397 90.3965 64.0011 94.268 64H204C207.871 64.0011 211.584 65.5397 214.321 68.2777C217.058 71.0156 218.596 74.7285 218.596 78.6V154.032C218.596 155.949 218.218 157.847 217.485 159.618C216.751 161.389 215.676 162.998 214.321 164.353C212.966 165.708 211.357 166.783 209.586 167.517C207.815 168.25 205.917 168.628 204 168.628H157.892Z" fill="white" stroke="#020064" stroke-width="4" stroke-linecap="round" stroke-linejoin="round"/>
<path d="M180.064 138.512C180.974 137.6 181.485 136.364 181.485 135.076C181.485 133.788 180.974 132.552 180.064 131.64L166.32 117.896C165.865 117.44 165.609 116.822 165.609 116.178C165.609 115.534 165.865 114.916 166.32 114.46L180.064 100.716C180.974 99.8041 181.485 98.5684 181.485 97.28C181.485 95.9916 180.974 94.7559 180.064 93.844L171.472 85.252C170.56 84.3419 169.324 83.8307 168.036 83.8307C166.748 83.8307 165.512 84.3419 164.6 85.252L150.856 98.996C150.631 99.2223 150.363 99.4018 150.068 99.5244C149.773 99.6469 149.457 99.71 149.138 99.71C148.819 99.71 148.503 99.6469 148.208 99.5244C147.913 99.4018 147.645 99.2223 147.42 98.996L133.68 85.252C132.768 84.3419 131.532 83.8307 130.244 83.8307C128.956 83.8307 127.72 84.3419 126.808 85.252L118.216 93.844C117.306 94.7559 116.795 95.9916 116.795 97.28C116.795 98.5684 117.306 99.8041 118.216 100.716L131.96 114.46C132.415 114.916 132.671 115.534 132.671 116.178C132.671 116.822 132.415 117.44 131.96 117.896L118.216 131.64C117.306 132.552 116.795 133.788 116.795 135.076C116.795 136.364 117.306 137.6 118.216 138.512L126.8 147.1C127.712 148.01 128.948 148.521 130.236 148.521C131.524 148.521 132.76 148.01 133.672 147.1L147.412 133.356C147.868 132.901 148.486 132.645 149.13 132.645C149.774 132.645 150.392 132.901 150.848 133.356L164.592 147.1C165.504 148.01 166.74 148.521 168.028 148.521C169.316 148.521 170.552 148.01 171.464 147.1L180.064 138.512Z" fill="#B0D9FF" stroke="#020064" stroke-width="4" stroke-linecap="round" stroke-linejoin="round"/>
<path d="M230.7 156.2L256.604 182.108C257.443 182.955 258.514 183.533 259.683 183.769C260.851 184.004 262.063 183.886 263.164 183.43C264.266 182.974 265.206 182.2 265.866 181.207C266.525 180.215 266.874 179.048 266.868 177.856V156.2H312.868C316.705 156.2 320.385 154.676 323.098 151.962C325.812 149.249 327.336 145.569 327.336 141.732V66.976C327.336 63.1388 325.812 59.4589 323.098 56.7456C320.385 54.0323 316.705 52.508 312.868 52.508H204.092C200.255 52.508 196.575 54.0323 193.862 56.7456C191.148 59.4589 189.624 63.1388 189.624 66.976V141.732C189.624 145.569 191.148 149.249 193.862 151.962C196.575 154.676 200.255 156.2 204.092 156.2H230.7Z" fill="white" stroke="#020064" stroke-width="4" stroke-linecap="round" stroke-linejoin="round"/>
<path d="M296.852 91.172C298.058 90.1776 298.819 88.7452 298.969 87.1896C299.119 85.634 298.645 84.0825 297.652 82.876L291.1 74.912C290.106 73.7067 288.675 72.9453 287.12 72.7953C285.565 72.6452 284.014 73.1189 282.808 74.112L245.268 105L236.844 94.76C235.85 93.5547 234.419 92.7933 232.864 92.6433C231.309 92.4932 229.758 92.9669 228.552 93.96L220.588 100.512C219.382 101.506 218.621 102.939 218.471 104.494C218.321 106.05 218.795 107.602 219.788 108.808L228.212 119.048L238.508 131.56C239.502 132.765 240.933 133.527 242.488 133.677C244.043 133.827 245.594 133.353 246.8 132.36L259.316 122.064L296.852 91.172Z" fill="#B0D9FF" stroke="#020064" stroke-width="4" stroke-linecap="round" stroke-linejoin="round"/>
<path d="M36.384 269.852C36.384 287.045 43.2141 303.535 55.3717 315.692C67.5293 327.85 84.0186 334.68 101.212 334.68C118.405 334.68 134.895 327.85 147.052 315.692C159.21 303.535 166.04 287.045 166.04 269.852C166.04 252.659 159.21 236.169 147.052 224.012C134.895 211.854 118.405 205.024 101.212 205.024C84.0186 205.024 67.5293 211.854 55.3717 224.012C43.2141 236.169 36.384 252.659 36.384 269.852Z" fill="#B0D9FF" stroke="#020064" stroke-width="4" stroke-linecap="round" stroke-linejoin="round"/>
<path d="M78.96 257.7C78.96 259.634 79.7283 261.489 81.0958 262.856C82.4633 264.224 84.318 264.992 86.252 264.992C88.186 264.992 90.0407 264.224 91.4082 262.856C92.7757 261.489 93.544 259.634 93.544 257.7C93.544 255.766 92.7757 253.911 91.4082 252.544C90.0407 251.176 88.186 250.408 86.252 250.408C84.318 250.408 82.4633 251.176 81.0958 252.544C79.7283 253.911 78.96 255.766 78.96 257.7Z" fill="#020064"/>
<path d="M128.332 257.7C128.332 259.634 129.1 261.489 130.468 262.856C131.835 264.224 133.69 264.992 135.624 264.992C137.558 264.992 139.413 264.224 140.78 262.856C142.148 261.489 142.916 259.634 142.916 257.7C142.916 255.766 142.148 253.911 140.78 252.544C139.413 251.176 137.558 250.408 135.624 250.408C133.69 250.408 131.835 251.176 130.468 252.544C129.1 253.911 128.332 255.766 128.332 257.7Z" fill="#020064"/>
<path d="M88.116 308.328C88.1954 302.328 90.6349 296.6 94.9062 292.385C99.1775 288.17 104.937 285.806 110.938 285.806C116.939 285.806 122.699 288.17 126.97 292.385C131.241 296.6 133.681 302.328 133.76 308.328H88.116Z" fill="white" stroke="#020064" stroke-width="4" stroke-linecap="round" stroke-linejoin="round"/>
<path d="M227.264 256.276C227.264 273.469 234.094 289.959 246.252 302.116C258.409 314.274 274.899 321.104 292.092 321.104C309.285 321.104 325.775 314.274 337.932 302.116C350.09 289.959 356.92 273.469 356.92 256.276C356.92 239.083 350.09 222.593 337.932 210.436C325.775 198.278 309.285 191.448 292.092 191.448C274.899 191.448 258.409 198.278 246.252 210.436C234.094 222.593 227.264 239.083 227.264 256.276Z" fill="white" stroke="#020064" stroke-width="4" stroke-linecap="round" stroke-linejoin="round"/>
<path d="M299.764 244.124C299.764 246.058 300.532 247.913 301.9 249.28C303.267 250.648 305.122 251.416 307.056 251.416C308.99 251.416 310.845 250.648 312.212 249.28C313.58 247.913 314.348 246.058 314.348 244.124C314.348 242.19 313.58 240.335 312.212 238.968C310.845 237.6 308.99 236.832 307.056 236.832C305.122 236.832 303.267 237.6 301.9 238.968C300.532 240.335 299.764 242.19 299.764 244.124Z" fill="#020064"/>
<path d="M250.392 244.124C250.392 246.058 251.16 247.913 252.528 249.28C253.895 250.648 255.75 251.416 257.684 251.416C259.618 251.416 261.473 250.648 262.84 249.28C264.208 247.913 264.976 246.058 264.976 244.124C264.976 242.19 264.208 240.335 262.84 238.968C261.473 237.6 259.618 236.832 257.684 236.832C255.75 236.832 253.895 237.6 252.528 238.968C251.16 240.335 250.392 242.19 250.392 244.124Z" fill="#020064"/>
<path d="M305.2 271.932C305.24 274.954 304.679 277.955 303.55 280.759C302.421 283.563 300.747 286.114 298.623 288.266C296.5 290.417 293.971 292.126 291.182 293.292C288.393 294.458 285.401 295.058 282.378 295.058C279.355 295.058 276.363 294.458 273.574 293.292C270.785 292.126 268.256 290.417 266.132 288.266C264.009 286.114 262.335 283.563 261.206 280.759C260.077 277.955 259.516 274.954 259.556 271.932H305.2Z" fill="#B0D9FF" stroke="#020064" stroke-width="4" stroke-linecap="round" stroke-linejoin="round"/>
</svg>
