<svg width="400" height="400" viewBox="0 0 400 400" fill="none" xmlns="http://www.w3.org/2000/svg">
<path d="M44.0601 200C44.0601 242.435 60.9171 283.131 90.923 313.137C120.929 343.143 161.625 360 204.06 360C246.495 360 287.191 343.143 317.197 313.137C347.203 283.131 364.06 242.435 364.06 200C364.06 157.565 347.203 116.869 317.197 86.8629C287.191 56.8571 246.495 40 204.06 40C161.625 40 120.929 56.8571 90.923 86.8629C60.9171 116.869 44.0601 157.565 44.0601 200Z" fill="#E8F4FA" stroke="#DAEDF7" stroke-width="4"/>
<path d="M35.936 268.856C35.936 286.049 42.7661 302.539 54.9237 314.696C67.0813 326.854 83.5706 333.684 100.764 333.684C117.957 333.684 134.447 326.854 146.604 314.696C158.762 302.539 165.592 286.049 165.592 268.856C165.592 251.663 158.762 235.173 146.604 223.016C134.447 210.858 117.957 204.028 100.764 204.028C83.5706 204.028 67.0813 210.858 54.9237 223.016C42.7661 235.173 35.936 251.663 35.936 268.856Z" fill="#FF6242"/>
<path d="M100.768 223.064C116.312 223.066 131.339 228.652 143.109 238.805C154.88 248.957 162.612 263 164.896 278.376C166.259 269.161 165.621 259.76 163.024 250.815C160.426 241.869 155.932 233.588 149.846 226.535C143.76 219.483 136.226 213.825 127.757 209.946C119.287 206.068 110.081 204.06 100.766 204.06C91.4507 204.06 82.2449 206.068 73.7754 209.946C65.3059 213.825 57.7717 219.483 51.6858 226.535C45.6 233.588 41.1055 241.869 38.5084 250.815C35.9114 259.76 35.2727 269.161 36.636 278.376C38.9195 262.999 46.6516 248.955 58.4233 238.802C70.1951 228.65 85.2228 223.064 100.768 223.064Z" fill="#FF866E"/>
<path d="M35.936 268.856C35.936 286.049 42.7661 302.539 54.9237 314.696C67.0813 326.854 83.5706 333.684 100.764 333.684C117.957 333.684 134.447 326.854 146.604 314.696C158.762 302.539 165.592 286.049 165.592 268.856C165.592 251.663 158.762 235.173 146.604 223.016C134.447 210.858 117.957 204.028 100.764 204.028C83.5706 204.028 67.0813 210.858 54.9237 223.016C42.7661 235.173 35.936 251.663 35.936 268.856V268.856Z" stroke="#45413C" stroke-width="4" stroke-linecap="round" stroke-linejoin="round"/>
<path d="M78.512 256.708C78.512 258.642 79.2802 260.497 80.6477 261.864C82.0153 263.232 83.87 264 85.804 264C87.7379 264 89.5927 263.232 90.9602 261.864C92.3277 260.497 93.096 258.642 93.096 256.708C93.096 254.774 92.3277 252.919 90.9602 251.552C89.5927 250.184 87.7379 249.416 85.804 249.416C83.87 249.416 82.0153 250.184 80.6477 251.552C79.2802 252.919 78.512 254.774 78.512 256.708Z" fill="#45413C"/>
<path d="M127.884 256.708C127.884 258.642 128.652 260.497 130.02 261.864C131.387 263.232 133.242 264 135.176 264C137.11 264 138.965 263.232 140.332 261.864C141.7 260.497 142.468 258.642 142.468 256.708C142.468 254.774 141.7 252.919 140.332 251.552C138.965 250.184 137.11 249.416 135.176 249.416C133.242 249.416 131.387 250.184 130.02 251.552C128.652 252.919 127.884 254.774 127.884 256.708Z" fill="#45413C"/>
<path d="M87.668 307.336C87.7474 301.336 90.1868 295.608 94.4581 291.393C98.7295 287.178 104.489 284.814 110.49 284.814C116.491 284.814 122.25 287.178 126.522 291.393C130.793 295.608 133.233 301.336 133.312 307.336H87.668Z" fill="#FFA694" stroke="#45413C" stroke-width="4" stroke-linecap="round" stroke-linejoin="round"/>
<path d="M227.608 256.268C227.608 273.461 234.438 289.951 246.596 302.108C258.753 314.266 275.242 321.096 292.436 321.096C309.629 321.096 326.119 314.266 338.276 302.108C350.434 289.951 357.264 273.461 357.264 256.268C357.264 239.075 350.434 222.585 338.276 210.428C326.119 198.27 309.629 191.44 292.436 191.44C275.242 191.44 258.753 198.27 246.596 210.428C234.438 222.585 227.608 239.075 227.608 256.268Z" fill="#FFE500"/>
<path d="M292.436 210.476C307.98 210.478 323.005 216.063 334.776 226.215C346.547 236.367 354.279 250.409 356.564 265.784C357.927 256.569 357.289 247.169 354.692 238.223C352.094 229.277 347.6 220.996 341.514 213.943C335.428 206.891 327.894 201.233 319.425 197.354C310.955 193.476 301.749 191.469 292.434 191.469C283.119 191.469 273.913 193.476 265.443 197.354C256.974 201.233 249.44 206.891 243.354 213.943C237.268 220.996 232.773 229.277 230.176 238.223C227.579 247.169 226.941 256.569 228.304 265.784C230.588 250.408 238.321 236.365 250.092 226.213C261.864 216.061 276.891 210.476 292.436 210.476Z" fill="#FFF48C"/>
<path d="M227.608 256.268C227.608 273.461 234.438 289.951 246.596 302.108C258.753 314.266 275.242 321.096 292.436 321.096C309.629 321.096 326.119 314.266 338.276 302.108C350.434 289.951 357.264 273.461 357.264 256.268C357.264 239.075 350.434 222.585 338.276 210.428C326.119 198.27 309.629 191.44 292.436 191.44C275.242 191.44 258.753 198.27 246.596 210.428C234.438 222.585 227.608 239.075 227.608 256.268V256.268Z" stroke="#45413C" stroke-width="4" stroke-linecap="round" stroke-linejoin="round"/>
<path d="M300.104 244.116C300.104 246.05 300.872 247.905 302.24 249.272C303.607 250.64 305.462 251.408 307.396 251.408C309.33 251.408 311.185 250.64 312.552 249.272C313.92 247.905 314.688 246.05 314.688 244.116C314.688 242.182 313.92 240.327 312.552 238.96C311.185 237.592 309.33 236.824 307.396 236.824C305.462 236.824 303.607 237.592 302.24 238.96C300.872 240.327 300.104 242.182 300.104 244.116Z" fill="#45413C"/>
<path d="M250.732 244.116C250.732 245.074 250.921 246.022 251.287 246.906C251.653 247.791 252.191 248.595 252.868 249.272C253.545 249.949 254.349 250.486 255.233 250.853C256.118 251.219 257.066 251.408 258.024 251.408C258.982 251.408 259.93 251.219 260.814 250.853C261.699 250.486 262.503 249.949 263.18 249.272C263.857 248.595 264.394 247.791 264.761 246.906C265.127 246.022 265.316 245.074 265.316 244.116C265.316 243.158 265.127 242.21 264.761 241.325C264.394 240.441 263.857 239.637 263.18 238.96C262.503 238.283 261.699 237.746 260.814 237.379C259.93 237.013 258.982 236.824 258.024 236.824C257.066 236.824 256.118 237.013 255.233 237.379C254.349 237.746 253.545 238.283 252.868 238.96C252.191 239.637 251.653 240.441 251.287 241.325C250.921 242.21 250.732 243.158 250.732 244.116Z" fill="#45413C"/>
<path d="M305.532 271.924C305.572 274.946 305.011 277.947 303.882 280.751C302.753 283.555 301.079 286.106 298.955 288.258C296.832 290.409 294.303 292.118 291.514 293.284C288.725 294.45 285.733 295.05 282.71 295.05C279.687 295.05 276.695 294.45 273.906 293.284C271.117 292.118 268.588 290.409 266.464 288.258C264.341 286.106 262.667 283.555 261.538 280.751C260.409 277.947 259.848 274.946 259.888 271.924H305.532Z" fill="#FFA694" stroke="#45413C" stroke-width="4" stroke-linecap="round" stroke-linejoin="round"/>
<path d="M158.34 168.628L132.2 194.768C131.352 195.616 130.271 196.193 129.094 196.426C127.918 196.66 126.699 196.54 125.591 196.081C124.483 195.622 123.535 194.845 122.868 193.848C122.202 192.851 121.845 191.679 121.844 190.48V168.628H94.7161C90.845 168.628 87.1325 167.09 84.3952 164.353C81.6579 161.616 80.1201 157.903 80.1201 154.032V78.6C80.1196 76.6829 80.4967 74.7845 81.23 73.0131C81.9633 71.2418 83.0384 69.6323 84.3938 68.2765C85.7492 66.9207 87.3584 65.8452 89.1295 65.1114C90.9007 64.3777 92.799 64 94.7161 64H204.46C208.332 64.0011 212.044 65.5397 214.781 68.2777C217.518 71.0156 219.056 74.7285 219.056 78.6V154.032C219.056 157.903 217.518 161.616 214.781 164.353C212.044 167.09 208.331 168.628 204.46 168.628H158.34Z" fill="white" stroke="#45413C" stroke-width="4" stroke-linecap="round" stroke-linejoin="round"/>
<path d="M180.512 138.512C181.422 137.6 181.933 136.364 181.933 135.076C181.933 133.788 181.422 132.552 180.512 131.64L166.768 117.896C166.542 117.671 166.362 117.403 166.24 117.108C166.117 116.813 166.054 116.497 166.054 116.178C166.054 115.859 166.117 115.543 166.24 115.248C166.362 114.953 166.542 114.685 166.768 114.46L180.512 100.716C181.422 99.8041 181.933 98.5683 181.933 97.28C181.933 95.9916 181.422 94.7559 180.512 93.844L171.92 85.252C171.008 84.3418 169.772 83.8307 168.484 83.8307C167.196 83.8307 165.96 84.3418 165.048 85.252L151.304 98.996C151.079 99.2222 150.811 99.4018 150.516 99.5243C150.221 99.6468 149.905 99.7099 149.586 99.7099C149.267 99.7099 148.951 99.6468 148.656 99.5243C148.361 99.4018 148.093 99.2222 147.868 98.996L134.124 85.252C133.212 84.3418 131.976 83.8307 130.688 83.8307C129.4 83.8307 128.164 84.3418 127.252 85.252L118.664 93.844C117.754 94.7559 117.243 95.9916 117.243 97.28C117.243 98.5683 117.754 99.8041 118.664 100.716L132.4 114.46C132.855 114.916 133.111 115.534 133.111 116.178C133.111 116.822 132.855 117.44 132.4 117.896L118.664 131.64C117.754 132.552 117.243 133.788 117.243 135.076C117.243 136.364 117.754 137.6 118.664 138.512L127.252 147.1C128.164 148.01 129.4 148.521 130.688 148.521C131.976 148.521 133.212 148.01 134.124 147.1L147.868 133.356C148.324 132.901 148.942 132.645 149.586 132.645C150.23 132.645 150.848 132.901 151.304 133.356L165.048 147.1C165.96 148.01 167.196 148.521 168.484 148.521C169.772 148.521 171.008 148.01 171.92 147.1L180.512 138.512Z" fill="#FF6242" stroke="#E04122" stroke-width="4" stroke-linecap="round" stroke-linejoin="round"/>
<path d="M231.144 156.2L257.052 182.108C257.891 182.954 258.962 183.531 260.13 183.765C261.298 184 262.509 183.882 263.609 183.426C264.71 182.97 265.649 182.197 266.309 181.205C266.968 180.213 267.317 179.047 267.312 177.856V156.2H313.312C315.212 156.2 317.093 155.826 318.848 155.099C320.603 154.372 322.198 153.306 323.541 151.962C324.884 150.619 325.95 149.024 326.676 147.268C327.403 145.513 327.777 143.632 327.776 141.732V66.9761C327.777 65.0763 327.403 63.195 326.676 61.4397C325.95 59.6844 324.884 58.0894 323.541 56.7459C322.198 55.4023 320.603 54.3366 318.848 53.6094C317.093 52.8823 315.212 52.5081 313.312 52.5081H204.54C200.703 52.5081 197.023 54.0324 194.31 56.7456C191.596 59.4589 190.072 63.1389 190.072 66.9761V141.732C190.072 145.569 191.596 149.249 194.31 151.962C197.023 154.676 200.703 156.2 204.54 156.2H231.144Z" fill="white" stroke="#45413C" stroke-width="4" stroke-linecap="round" stroke-linejoin="round"/>
<path d="M297.3 91.172C298.506 90.1776 299.267 88.7452 299.417 87.1896C299.567 85.634 299.093 84.0825 298.1 82.876L291.548 74.912C290.553 73.7064 289.121 72.945 287.565 72.7949C286.01 72.6449 284.458 73.1187 283.252 74.112L245.712 105L237.292 94.76C236.298 93.5547 234.866 92.7933 233.312 92.6433C231.757 92.4933 230.206 92.9669 229 93.96L221.036 100.512C219.83 101.506 219.069 102.939 218.919 104.494C218.769 106.05 219.243 107.602 220.236 108.808L228.664 119.048L238.96 131.56C239.954 132.765 241.385 133.527 242.94 133.677C244.495 133.827 246.046 133.353 247.252 132.36L259.768 122.064L297.3 91.172Z" fill="#6DD627" stroke="#46B000" stroke-width="4" stroke-linecap="round" stroke-linejoin="round"/>
</svg>
