<svg width="400" height="400" viewBox="0 0 400 400" fill="none" xmlns="http://www.w3.org/2000/svg">
<path d="M221.848 185.056C218.882 186.938 215.44 187.934 211.928 187.928H158.176C155.121 188.094 152.214 189.297 149.936 191.34L120.144 221.132C119.066 222.21 117.694 222.944 116.199 223.241C114.705 223.538 113.156 223.386 111.748 222.802C110.34 222.219 109.136 221.232 108.29 219.964C107.444 218.698 106.992 217.208 106.992 215.684V192.756C106.989 191.477 106.48 190.252 105.576 189.347C104.672 188.442 103.447 187.932 102.168 187.928H72.532C67.6164 187.926 62.9028 185.972 59.4276 182.495C55.9524 179.018 54 174.304 54 169.388V73.572C54 68.6544 55.9532 63.9384 59.43 60.4608C62.9068 56.9832 67.6224 55.0292 72.54 55.028H179.912" stroke="#020064" stroke-width="4" stroke-linecap="round" stroke-linejoin="round"/>
<path d="M181.508 149.672C182.082 149.099 182.536 148.419 182.847 147.67C183.157 146.921 183.317 146.118 183.317 145.308C183.317 144.497 183.157 143.695 182.847 142.946C182.536 142.197 182.082 141.517 181.508 140.944L164.052 123.484C163.474 122.905 163.149 122.12 163.149 121.302C163.149 120.484 163.474 119.699 164.052 119.12L181.508 101.664C182.082 101.091 182.536 100.411 182.847 99.662C183.157 98.9132 183.317 98.1104 183.317 97.3C183.317 96.4892 183.157 95.6868 182.847 94.938C182.536 94.1892 182.082 93.5088 181.508 92.936L170.6 82.024C170.027 81.4504 169.347 80.9956 168.598 80.6852C167.849 80.3748 167.046 80.2148 166.236 80.2148C165.425 80.2148 164.623 80.3748 163.874 80.6852C163.125 80.9956 162.445 81.4504 161.872 82.024L144.4 99.48C144.114 99.7672 143.774 99.9952 143.399 100.151C143.025 100.306 142.624 100.386 142.218 100.386C141.812 100.386 141.411 100.306 141.037 100.151C140.662 99.9952 140.322 99.7672 140.036 99.48L122.58 82.024C122.007 81.4504 121.327 80.9956 120.578 80.6852C119.829 80.3748 119.026 80.2148 118.216 80.2148C117.405 80.2148 116.603 80.3748 115.854 80.6852C115.105 80.9956 114.425 81.4504 113.852 82.024L102.94 92.936C102.366 93.5088 101.912 94.1892 101.601 94.938C101.291 95.6868 101.131 96.4892 101.131 97.3C101.131 98.1104 101.291 98.9132 101.601 99.662C101.912 100.411 102.366 101.091 102.94 101.664L120.4 119.12C120.687 119.406 120.915 119.746 121.071 120.121C121.226 120.495 121.306 120.896 121.306 121.302C121.306 121.708 121.226 122.109 121.071 122.483C120.915 122.858 120.687 123.198 120.4 123.484L102.944 140.944C102.37 141.517 101.916 142.197 101.605 142.946C101.295 143.695 101.135 144.497 101.135 145.308C101.135 146.118 101.295 146.921 101.605 147.67C101.916 148.419 102.37 149.099 102.944 149.672L113.856 160.584C115.014 161.74 116.584 162.39 118.22 162.39C119.856 162.39 121.426 161.74 122.584 160.584L140.04 143.124C140.619 142.546 141.404 142.221 142.222 142.221C143.04 142.221 143.825 142.546 144.404 143.124L161.864 160.584C163.022 161.74 164.592 162.39 166.228 162.39C167.864 162.39 169.434 161.74 170.592 160.584L181.508 149.672Z" stroke="#020064" stroke-width="4" stroke-linecap="round" stroke-linejoin="round"/>
<path d="M241 172.14C244.056 172.305 246.964 173.51 249.24 175.556L278.732 205.048C279.8 206.116 281.161 206.844 282.642 207.138C284.123 207.433 285.659 207.282 287.054 206.704C288.45 206.126 289.642 205.147 290.482 203.891C291.32 202.635 291.768 201.158 291.768 199.648V176.968C291.771 175.688 292.281 174.462 293.186 173.558C294.09 172.653 295.316 172.143 296.596 172.14H350.196C355.07 172.14 359.744 170.204 363.19 166.758C366.636 163.312 368.572 158.638 368.572 153.764V58.8C368.575 56.3848 368.102 53.9928 367.18 51.7604C366.258 49.5284 364.905 47.4996 363.198 45.7908C361.492 44.0816 359.465 42.726 357.234 41.8012C355.003 40.876 352.611 40.4 350.196 40.4H212.032C209.617 40.4 207.225 40.876 204.994 41.8012C202.763 42.726 200.736 44.0816 199.03 45.7908C197.323 47.4996 195.97 49.5284 195.048 51.7604C194.126 53.9928 193.653 56.3848 193.656 58.8V153.764C193.656 158.638 195.592 163.312 199.038 166.758C202.484 170.204 207.158 172.14 212.032 172.14H241Z" stroke="#020064" stroke-width="4" stroke-linecap="round" stroke-linejoin="round"/>
<path d="M329.856 89.54C331.388 88.2784 332.357 86.4596 332.549 84.484C332.741 82.5084 332.141 80.5372 330.88 79.004L322.556 68.888C321.931 68.1292 321.163 67.5008 320.296 67.0388C319.428 66.5768 318.478 66.2904 317.499 66.1956C316.521 66.1008 315.534 66.2 314.593 66.4868C313.653 66.7736 312.779 67.2432 312.02 67.868L264.336 107.104L253.636 94.1C253.012 93.3408 252.244 92.712 251.376 92.25C250.509 91.7876 249.558 91.5004 248.58 91.4056C247.602 91.3104 246.614 91.4088 245.674 91.6956C244.734 91.9824 243.859 92.4512 243.1 93.076L232.984 101.396C231.452 102.658 230.483 104.476 230.291 106.452C230.099 108.428 230.699 110.399 231.96 111.932L242.664 124.936L255.74 140.832C256.364 141.591 257.132 142.22 258 142.682C258.868 143.145 259.818 143.432 260.796 143.527C261.774 143.622 262.762 143.523 263.702 143.236C264.642 142.95 265.517 142.481 266.276 141.856L282.172 128.776L329.856 89.54Z" stroke="#020064" stroke-width="4" stroke-linecap="round" stroke-linejoin="round"/>
<path d="M84.356 359.568C119.899 359.568 148.712 330.755 148.712 295.212C148.712 259.669 119.899 230.856 84.356 230.856C48.8132 230.856 20 259.669 20 295.212C20 330.755 48.8132 359.568 84.356 359.568Z" stroke="#020064" stroke-width="4" stroke-linecap="round" stroke-linejoin="round"/>
<path d="M74.232 286.846C73.5016 287.781 72.5104 288.479 71.3832 288.851C70.2564 289.223 69.0444 289.253 67.9004 288.936C66.7568 288.62 65.7324 287.971 64.9572 287.072C64.182 286.174 63.6908 285.065 63.5452 283.888C63.4 282.71 63.6068 281.515 64.1404 280.455C64.6736 279.395 65.5092 278.516 66.5416 277.931C67.5744 277.346 68.7572 277.08 69.9408 277.166C71.1244 277.253 72.2556 277.689 73.1916 278.419C74.4456 279.399 75.2596 280.837 75.4548 282.417C75.6496 283.997 75.21 285.59 74.232 286.846Z" stroke="#020064" stroke-width="4" stroke-linecap="round" stroke-linejoin="round"/>
<path d="M123.248 286.846C122.518 287.781 121.526 288.479 120.399 288.851C119.272 289.223 118.06 289.253 116.916 288.936C115.773 288.62 114.748 287.971 113.973 287.072C113.198 286.174 112.707 285.065 112.561 283.888C112.416 282.71 112.623 281.515 113.156 280.455C113.69 279.395 114.525 278.516 115.558 277.931C116.59 277.346 117.773 277.08 118.957 277.166C120.14 277.253 121.272 277.689 122.208 278.419C123.462 279.399 124.276 280.837 124.471 282.417C124.666 283.997 124.226 285.59 123.248 286.846Z" stroke="#020064" stroke-width="4" stroke-linecap="round" stroke-linejoin="round"/>
<path d="M71.356 333.412C71.356 327.403 73.7428 321.64 77.9916 317.392C82.2404 313.143 88.0032 310.756 94.012 310.756C100.021 310.756 105.783 313.143 110.032 317.392C114.281 321.64 116.668 327.403 116.668 333.412H71.356Z" stroke="#020064" stroke-width="4" stroke-linecap="round" stroke-linejoin="round"/>
<path d="M315.644 344.376C351.187 344.376 380 315.563 380 280.02C380 244.477 351.187 215.664 315.644 215.664C280.101 215.664 251.288 244.477 251.288 280.02C251.288 315.563 280.101 344.376 315.644 344.376Z" stroke="#020064" stroke-width="4" stroke-linecap="round" stroke-linejoin="round"/>
<path d="M286.212 271.654C285.482 272.589 284.49 273.287 283.363 273.659C282.236 274.031 281.024 274.061 279.88 273.744C278.737 273.428 277.712 272.779 276.937 271.88C276.162 270.982 275.671 269.873 275.525 268.695C275.38 267.518 275.587 266.323 276.12 265.263C276.654 264.202 277.489 263.324 278.522 262.739C279.554 262.154 280.737 261.888 281.921 261.974C283.104 262.061 284.236 262.497 285.172 263.227C286.426 264.207 287.24 265.645 287.435 267.225C287.63 268.805 287.19 270.398 286.212 271.654Z" stroke="#020064" stroke-width="4" stroke-linecap="round" stroke-linejoin="round"/>
<path d="M335.228 271.654C334.498 272.589 333.506 273.287 332.379 273.659C331.252 274.031 330.04 274.061 328.897 273.744C327.753 273.428 326.728 272.779 325.953 271.88C325.178 270.982 324.687 269.873 324.541 268.695C324.396 267.518 324.603 266.323 325.136 265.263C325.67 264.202 326.506 263.324 327.538 262.739C328.57 262.154 329.753 261.888 330.937 261.974C332.12 262.061 333.252 262.497 334.188 263.227C335.442 264.207 336.256 265.645 336.451 267.225C336.646 268.805 336.206 270.398 335.228 271.654Z" stroke="#020064" stroke-width="4" stroke-linecap="round" stroke-linejoin="round"/>
<path d="M328.644 295.564C328.644 301.573 326.257 307.335 322.008 311.584C317.76 315.833 311.997 318.22 305.988 318.22C299.979 318.22 294.217 315.833 289.968 311.584C285.719 307.335 283.332 301.573 283.332 295.564H328.644Z" stroke="#020064" stroke-width="4" stroke-linecap="round" stroke-linejoin="round"/>
</svg>
