<svg width="400" height="400" viewBox="0 0 400 400" fill="none" xmlns="http://www.w3.org/2000/svg">
<path d="M350.56 184.1C345.184 187.886 339.351 190.977 333.2 193.3C324.6 197 315.5 199.3 306.6 202.08C304.74 202.68 302.84 203.26 300.94 203.76C302.02 211.92 302.94 219.28 304.18 232.06C307.509 231.139 310.749 229.921 313.86 228.42C314.566 228.09 315.236 227.688 315.86 227.22C313.58 225.98 312.6 225.62 312.6 223.22C312.242 222.728 312.083 222.12 312.153 221.516C312.223 220.912 312.519 220.356 312.98 219.96C313.041 219.802 313.153 219.67 313.298 219.583C313.443 219.496 313.612 219.46 313.78 219.48C314.645 219.354 315.528 219.508 316.3 219.92C317.454 220.428 318.564 221.03 319.62 221.72C321.4 222.84 323.12 223.56 325.04 221.92C326.96 220.28 337.44 218.46 356.84 206.62C357.153 206.499 357.418 206.28 357.595 205.995C357.772 205.709 357.851 205.374 357.82 205.04C355.96 197.86 353.82 190.72 351.82 183.58C351.6 183.54 351.14 183.66 350.56 184.1Z" fill="#FEF0BB"/>
<path d="M338.56 242.58C340.1 241.12 341.72 239.78 343.38 238.48C343.663 237.588 344.207 236.801 344.94 236.22C355.18 227.12 358.16 227.16 360.94 224.5C361.54 223.92 362 223.34 361.64 222.5C360.418 219.236 359.664 215.815 359.4 212.34C359.18 210.34 358.6 210.34 357.04 211.12C352.78 213.12 349.04 215.94 344.7 217.74C338.98 220.14 333.66 223.38 327.38 225.14C327.78 225.457 328.154 225.805 328.5 226.18C329.709 226.75 330.765 227.601 331.58 228.66C332.06 229.38 331.58 229.96 331.12 229.66C329.52 228.68 329.8 230.16 329.66 230.84C329.16 233.26 328.96 233.42 326.72 232.42C324.48 231.42 322.12 230.42 319.84 229.3C312.42 233.3 315.46 232.12 304.48 235.44C304.74 238.56 305 241.72 305.2 244.86C305.36 247.08 305.86 249.26 306.18 251.46C306.38 252.74 306.18 253.46 304.56 253.88L302.94 254.16C314.56 253.62 327.44 248.16 337.3 244.42C336.98 243.62 338 243.06 338.56 242.58Z" fill="#FEF0BB"/>
<path d="M286.2 237.54C271.46 237.08 276.54 237.38 267.64 235.94C267.12 235.94 266.46 235.6 266.6 234.88C266.74 234.16 267.34 234.34 267.8 234.34C273.8 234.34 279.8 234.16 285.8 234.48C284.56 224.02 285.06 225.8 282.94 206.34C277.905 206.142 272.892 205.573 267.94 204.64C258.12 203.14 248.36 201.4 238.68 199.18C237.18 203.18 235.74 206.98 234.52 210.98C234.744 211.08 234.958 211.201 235.16 211.34C255.34 223.6 257.26 224.48 261.6 228.14C262.38 228.8 262.94 229.02 263.7 228.24C264.575 227.429 265.511 226.687 266.5 226.02C267.74 224.9 268.28 224.46 268.5 224.02C269.52 222.74 271.08 222.58 272.26 224.42C273.8 226.02 274.06 226.98 272.48 228.3C267.669 232.557 263.165 237.149 259 242.04C258.24 242.92 257.64 242.94 257.26 241.68C255.12 234.62 254.66 236.46 258.74 233.02C258.973 232.82 259.187 232.599 259.38 232.36C260.36 231.24 260.22 230.9 259.1 230.04C252.025 224.713 244.631 219.824 236.96 215.4C235.634 214.809 234.528 213.815 233.8 212.56C232.28 216.4 229.64 217.2 230.02 218.36C232.719 220.522 235.284 222.846 237.7 225.32C242.08 229.32 246.32 233.52 250.64 237.62C250.941 237.901 251.167 238.254 251.296 238.646C251.425 239.037 251.454 239.455 251.38 239.86C251.324 242.803 251.504 245.746 251.92 248.66C252.02 248.992 252.187 249.3 252.411 249.564C252.634 249.829 252.91 250.046 253.22 250.2C255.388 251.104 257.669 251.709 260 252C265.861 253.16 271.784 253.981 277.74 254.46C283.053 255.116 288.427 255.116 293.74 254.46C291.56 252.839 289.501 251.061 287.58 249.14C286.62 247.86 287.38 248.24 286.2 237.54Z" fill="#FEF0BB"/>
<path d="M292.44 205.5C292.949 205.973 293.352 206.548 293.623 207.188C293.895 207.827 294.028 208.517 294.015 209.211C294.002 209.906 293.842 210.59 293.547 211.219C293.251 211.847 292.826 212.407 292.3 212.86C291.682 213.26 290.93 213.398 290.21 213.244C289.491 213.09 288.861 212.657 288.46 212.04C288.16 211.608 287.956 211.117 287.86 210.6C287.392 209.943 287.122 209.166 287.08 208.36C287.03 208.156 287.03 207.944 287.08 207.74C287.58 206.44 286.98 206.2 285.82 206.26C285.234 206.29 284.646 206.29 284.06 206.26C285.06 215.66 286.047 225.067 287.02 234.48C292.444 234.881 297.892 234.152 303.02 232.34C300.64 206.22 300 205.32 300 204C297.465 204.647 294.884 205.102 292.28 205.36L292.44 205.5Z" fill="#FEF0BB"/>
<path d="M296.88 238C297.198 238.89 297.3 239.843 297.18 240.78C297.02 242.32 296.9 243.96 294.98 244.32C293.76 244.56 292.3 242.64 292.12 240.74C292.06 240.369 292.06 239.991 292.12 239.62C292.28 238.26 291.76 237.84 290.36 237.8H287.4C287.766 239.977 287.993 242.174 288.08 244.38C287.9 248.02 290.32 249.78 292.66 251.94C293.743 253.102 295.128 253.94 296.66 254.36H298.28C299.033 254.191 299.746 253.879 300.38 253.44C300.631 253.312 300.901 253.224 301.18 253.18C304.9 252.12 304.86 252.12 304.52 248.36C304.16 244.24 303.787 240.12 303.4 236C302.16 236.38 300.94 236.74 299.7 237.08C298.7 237.156 297.732 237.471 296.88 238Z" fill="#FEF0BB"/>
<path d="M238 85.86C237.58 86.48 236.62 87.04 237.44 88.02C237.44 88.02 237.56 88.36 237.44 88.4C234.16 91.14 234.68 95.34 233.44 98.86C232.45 102.146 231.905 105.549 231.82 108.98C231.712 110.23 231.999 111.482 232.64 112.56C236.424 119.245 241.138 125.359 246.64 130.72C248.38 132.123 250.203 133.419 252.1 134.6C252.86 135.16 254.5 135.46 253.9 136.6C253.3 137.74 252.48 135.94 251.44 136.18C252.866 138.097 254.612 139.755 256.6 141.08C259.82 141.08 263.04 141.58 266.76 141.56C270.036 141.556 273.29 141.029 276.4 140L276.22 138.22C276.096 137.745 276.098 137.245 276.228 136.771C276.358 136.297 276.611 135.866 276.96 135.52C279.22 133.52 281.54 131.64 283.84 129.7C284.12 129.48 284.44 129.34 285.04 129.7C283.308 131.625 281.414 133.398 279.38 135C278.644 135.464 278.075 136.15 277.755 136.959C277.435 137.768 277.381 138.658 277.6 139.5C287.28 136.14 281.4 138.34 290.18 135.82C290.18 135.82 290.18 135.82 290.18 135.7C289.16 128.54 288.36 128.24 289.22 127.46C289.94 127.8 289.86 128.48 290 129.12C290.42 131.24 290.82 133.38 291.18 135.52C300.874 132.515 310.067 128.086 318.46 122.38C317.339 119.407 315.84 116.591 314 114C313.86 113.773 313.699 113.558 313.52 113.36C313.14 113.5 312.38 114.3 311.52 113.88C311.388 114.113 311.219 114.322 311.02 114.5C310.62 114.9 310.18 115.4 309.6 114.94C309.02 114.48 309.6 114.04 309.74 113.64C312.4 109.12 312.42 109.16 314.72 105.44C318.449 98.3161 321.736 90.9688 324.56 83.44C324.968 82.6348 325.119 81.7241 324.994 80.8302C324.869 79.9364 324.473 79.1023 323.86 78.44C322.77 77.1602 321.527 76.0184 320.16 75.04C307.76 66.36 290.3 61.2 275.28 59.9C270.94 59.54 266.54 59.22 262.46 61.68C259.44 63.52 256.46 65.4 253.6 67.44C247.774 73.0208 242.545 79.1942 238 85.86ZM254.86 75.48C262.449 78.6691 269.743 82.5171 276.66 86.98C284.983 92.6477 292.673 99.1918 299.6 106.5C302.32 109.26 302.4 112.86 302.1 116.5C302.1 116.84 301.96 117.22 301.52 117.24C300.74 117.24 301.2 116.64 301.12 116.34C300.74 114.46 301.32 110.34 298.5 107.54C298.916 108.838 299.178 110.181 299.28 111.54C299.28 112.88 299.02 114.12 299.28 114.1C299.74 115.1 299.1 115.9 298.6 116.54C292.34 124.74 284.6 130.54 273.84 130.96C270.35 131.124 266.854 130.883 263.42 130.24C261.125 129.71 258.972 128.691 257.108 127.251C255.244 125.812 253.713 123.986 252.62 121.9C252.3 121.38 251.96 120.88 251.6 120.38L251.38 120.22C249.507 119.143 247.89 117.671 246.643 115.906C245.397 114.141 244.549 112.126 244.16 110C243.84 108.42 243.6 108.84 242.5 106.58C241.602 105.264 241.076 103.73 240.98 102.14C240.409 98.5023 240.409 94.7978 240.98 91.16C240.14 92.84 237.78 95.64 237.12 98.86C237.12 99.34 236.84 99.68 236.32 99.6C236.198 99.5838 236.081 99.5402 235.978 99.4725C235.875 99.4048 235.788 99.3147 235.725 99.209C235.662 99.1033 235.623 98.9847 235.611 98.8619C235.6 98.7392 235.617 98.6155 235.66 98.5C235.778 97.9548 235.938 97.4198 236.14 96.9C239.223 89.8209 243.644 83.4035 249.16 78C249.495 77.6696 249.864 77.3747 250.26 77.12C251.56 75.86 252.46 75.28 253.54 75.36C254 74.84 254.4 75.3 254.82 75.48H254.86Z" fill="#FEF0BB"/>
<path d="M160.86 245.54C161.66 247.14 162.68 247.76 164.32 246.58C165.96 245.4 167.44 245.8 166.84 244.04C164.463 237.048 163.208 229.724 163.12 222.34C162.799 220.355 162.612 218.35 162.56 216.34C162.107 216.31 161.654 216.393 161.24 216.58C157.58 219.34 155.92 219.9 155.24 220.58C155.406 220.595 155.56 220.675 155.668 220.802C155.777 220.929 155.831 221.093 155.82 221.26C155.58 226.96 157.16 232.38 158.18 237.9C158.721 240.557 159.623 243.127 160.86 245.54Z" fill="#FEF0BB"/>
<path d="M136.24 245.7C135.7 243.7 135.3 242.04 133.02 242.82C129.34 242.64 129.3 242.4 130.22 244.82C131.44 248.14 132.72 251.46 133.94 254.82C135.58 259.26 134.24 258.28 139.08 257.76C142 257.46 138.86 256 136.24 245.7Z" fill="#FEF0BB"/>
<path d="M168.3 253.82C167.92 252.84 167.58 252.14 166.18 252.62C160.086 254.628 154.133 257.04 148.36 259.84C147.28 260.38 147.12 260.8 147.7 261.84C149.594 265.335 151.29 268.934 152.78 272.62C153.98 275.74 154.02 275.72 157.34 275.5C158.72 275.5 160.12 275.26 161.5 275.26C163.363 275.464 165.245 275.125 166.92 274.284C168.595 273.443 169.991 272.136 170.94 270.52C171.591 269.717 172.023 268.759 172.195 267.739C172.367 266.719 172.272 265.672 171.92 264.7C170.52 261.18 169.72 257.4 168.3 253.82Z" fill="#FEF0BB"/>
<path d="M182.54 255.74C185.029 262.031 187.035 268.504 188.54 275.1C191.26 285.66 187.54 293.1 184.4 307.1C183.92 309.1 184.64 309.1 186.08 309.1C186.334 309.155 186.596 309.155 186.85 309.102C187.104 309.048 187.344 308.941 187.553 308.788C187.763 308.635 187.938 308.439 188.067 308.214C188.195 307.988 188.275 307.738 188.3 307.48C188.92 305.26 192.58 295.66 193.34 287.28C194.26 276.84 190.3 267.66 185.04 258.94C184.44 258 184.26 256.46 182.54 255.74Z" fill="#FEF0BB"/>
<path d="M162 310.36C168.392 309.387 174.855 308.952 181.32 309.06C181.551 309.116 181.791 309.121 182.023 309.074C182.256 309.027 182.476 308.929 182.666 308.788C182.857 308.647 183.015 308.465 183.128 308.257C183.241 308.048 183.306 307.817 183.32 307.58C184.68 301.58 186.68 295.68 187.72 289.58C188.362 287.084 188.685 284.517 188.68 281.94C188.24 275.62 186.1 269.72 184.52 263.68C182.94 257.64 180.32 252.24 174.72 248.78C173.54 248.04 171.84 244.66 167.54 246.9C163.24 249.14 161.78 250.9 159.66 247C158.74 245.36 157.88 245.46 156.5 246.16C152.277 248.16 147.833 249.657 143.26 250.62C139.7 251.52 139.68 251.42 141.02 254.78C142.06 257.4 141.42 258.6 138.62 259.18C138.139 259.279 137.651 259.339 137.16 259.36C135.86 259.36 135.5 259.8 136 261.14C136.98 263.66 138 266.2 138.86 268.74C147.7 286.3 151.52 289.68 153.34 296.3C154.48 300.4 156 304.3 157.2 308.46C157.284 308.754 157.405 309.036 157.56 309.3C158.56 305.62 159.4 302.3 160.42 299.06C160.867 296.78 161.537 294.549 162.42 292.4C164.44 289.054 167.171 286.193 170.42 284.02C171.34 283.4 171.34 283.42 172.62 283.92C168.42 286.84 165 290.08 163.6 295.36C162.48 299.72 160.78 303.96 159.6 308.3C159.24 309.54 159.2 310.12 159.6 310.3C160.398 310.369 161.2 310.389 162 310.36ZM159.58 277.22C153.12 277.56 153.1 277.64 151.58 273.96C149.88 269.96 148.16 265.96 146.26 261.96C145.54 260.48 145.76 259.68 147.12 258.92C153.529 255.663 160.174 252.895 167 250.64C168.46 250.1 168.88 251.14 169.34 252.04C170.9 255.02 171.64 258.38 174.46 267.28C174.84 268.48 174.46 268.86 173.82 269.76C168.8 276.68 168.68 276.74 159.56 277.22H159.58Z" fill="#FEF0BB"/>
<path d="M281.82 185.68C282.2 188.72 283.5 200.96 283.82 204.06C288.32 203.76 292 202.72 295.82 202.26C297.121 202.094 298.41 201.847 299.68 201.52C298.9 195.64 298.04 189.78 297.18 183.92C292.145 185.097 286.991 185.687 281.82 185.68Z" fill="#FEF0BB"/>
<path d="M271.42 184.8C265.729 183.221 259.892 182.222 254 181.82C251.185 181.869 248.387 181.373 245.76 180.36C244.44 184.04 240.3 195.2 239.56 197.08C246.9 198.7 275.32 204.44 282.78 204.1C282.64 202.82 281.32 190.56 280.78 185.7C277.633 185.864 274.478 185.561 271.42 184.8Z" fill="#FEF0BB"/>
<path d="M334.92 188C339.86 185.52 344.32 182.2 349.42 180C349.605 179.955 349.777 179.868 349.924 179.746C350.07 179.625 350.187 179.472 350.266 179.299C350.345 179.125 350.384 178.937 350.379 178.746C350.375 178.556 350.327 178.369 350.24 178.2C349 174.42 347.78 170.62 346.6 166.84C345.82 164.32 344.92 166.52 335.16 170.48C324.3 174.92 313.16 178.32 302.1 182.48C300.78 182.96 299.48 183.36 298.1 183.72C298.94 189.573 299.76 195.433 300.56 201.3C304.4 200.24 308.12 198.72 312 197.76C320.22 195.7 327.52 191.7 334.92 188Z" fill="#FEF0BB"/>
<path d="M343.46 162C343.668 161.917 343.857 161.793 344.015 161.635C344.173 161.477 344.297 161.288 344.379 161.08C344.462 160.872 344.501 160.65 344.494 160.426C344.487 160.202 344.435 159.983 344.34 159.78C338.52 142.06 338.98 140.58 336.66 142.04C331.76 145.12 326.56 147.68 321.38 150.28C312.902 154.567 303.983 157.92 294.78 160.28C295 162.06 296.96 175.56 297.7 180.54C303.7 178.74 309.52 176.54 315.5 174.68C325.315 171.643 334.709 167.383 343.46 162Z" fill="#FEF0BB"/>
<path d="M256.88 161.38C255.422 161.358 253.977 161.102 252.6 160.62C250.533 166.753 248.413 172.873 246.24 178.98C248.66 178.98 251.08 179.32 253.52 179.46C258.447 179.638 263.351 180.227 268.18 181.22C271.28 181.94 274.32 183.22 276.94 182.8L280.4 182.66C279.4 173.6 279.14 170.66 278.4 162.66C275.24 162.56 274 162.16 256.88 161.38Z" fill="#FEF0BB"/>
<path d="M279.62 162.62C280.4 172.46 280.44 173.62 281.48 182.62C283.34 182.62 285.08 182.46 286.8 182.24C289.488 182.096 292.162 181.755 294.8 181.22C295.42 181.06 296.02 180.86 296.62 180.68C293.4 158.86 294 160.3 293.6 160.4C289.036 161.651 284.347 162.396 279.62 162.62ZM289.88 178.62C289.22 179.76 288.4 180.78 286.92 180.62C286.221 180.519 285.576 180.189 285.084 179.683C284.592 179.176 284.281 178.521 284.2 177.82C283.776 175.959 284.032 174.009 284.92 172.32C285.58 170.48 286.92 170.2 288.46 171.44C289.559 172.26 290.312 173.46 290.575 174.806C290.837 176.152 290.59 177.547 289.88 178.72V178.62Z" fill="#FEF0BB"/>
<path d="M273.72 256.46C254.1 254.9 252.52 251.12 252.66 254.46C252.8 257.02 252.94 259.6 253.06 262.18C252.99 265.045 253.11 267.911 253.42 270.76C253.435 271.166 253.574 271.557 253.816 271.882C254.059 272.207 254.395 272.45 254.78 272.58C264.449 276.176 274.631 278.202 284.94 278.58C291.66 278.86 298.04 277.08 304.5 275.64C319.8 272.22 334.36 267.04 347.26 257.86C348.48 257.02 349.04 256.36 348.26 254.84C347.435 253.073 346.72 251.256 346.12 249.4C345.06 246.4 345.14 246.54 342.12 247.4C336.12 249.26 330.28 251.12 324.28 252.62C316.86 254.46 309.46 256.62 301.68 256.24C294.74 256 294 258.1 273.72 256.46Z" fill="#FEF0BB"/>
<path d="M258 143.08C258.102 143.85 258.013 144.633 257.74 145.36C256.26 149.933 254.753 154.493 253.22 159.04C256.72 159.74 268.68 159.5 275 160.12C276.124 160.22 277.256 160.22 278.38 160.12C278.2 157.78 277.16 146.12 276.8 142.76C269.58 144.4 265.62 143.8 258 143.08Z" fill="#FEF0BB"/>
<path d="M291.6 138C292.64 144.32 293.48 150.68 294.34 157.02C316 152 321.2 144.76 334.54 138.64C335.093 138.446 335.56 138.064 335.86 137.56C331.593 132.657 326.909 128.134 321.86 124.04C321.62 124.18 321.86 124.04 320.98 124.64C321.048 124.819 321.089 125.008 321.1 125.2C321.1 125.92 321.1 126.7 320.2 126.86C319.3 127.02 319.3 126.34 319.26 125.82C309.5 132.46 302.54 137.28 291.6 138Z" fill="#FEF0BB"/>
<path d="M277.86 142.36C278.42 148.2 278.92 154.06 279.4 159.92C281.58 159.64 288.08 158.52 293.28 157.34L290.52 138.2C287.31 138.587 284.195 139.542 281.32 141.02C280.22 141.593 279.059 142.043 277.86 142.36ZM281.56 146.72C281.588 146.367 281.588 146.013 281.56 145.66C281.56 145.32 281.56 144.98 281.56 144.64C281.456 144.057 281.571 143.457 281.883 142.954C282.194 142.451 282.681 142.081 283.249 141.915C283.817 141.749 284.426 141.798 284.96 142.054C285.493 142.31 285.914 142.753 286.14 143.3C286.92 144.412 287.275 145.766 287.139 147.118C287.003 148.469 286.386 149.726 285.4 150.66C284.02 151.7 283.02 151.02 282.22 149.92C281.605 148.974 281.369 147.832 281.56 146.72Z" fill="#FEF0BB"/>
<path d="M300.78 293.88C305.316 293.758 309.824 293.128 314.22 292C318.42 288.8 322.68 285.72 326.92 282.56C334.16 276.22 340.16 272.22 344 268.56C345.323 267.347 346.763 266.268 348.3 265.34C349.1 264.7 349.9 264.04 350.72 263.34C351.54 262.64 351.9 262.5 351.3 261.68C350.7 260.86 350.26 261.68 349.76 261.94C348.8 262.28 335.9 271.94 319.88 275.1C312.18 276.6 304.44 277.98 296.68 279.1C291.071 280.144 285.353 280.48 279.66 280.1C271.26 279.518 262.96 277.926 254.94 275.36C252.24 274.42 254.12 277.36 254.12 283.08C254.09 283.573 254.162 284.067 254.331 284.531C254.499 284.996 254.761 285.421 255.1 285.78C257.487 286.185 259.822 286.856 262.06 287.78C278 294 289.08 293.26 300.78 293.88Z" fill="#FEF0BB"/>
<path d="M319.02 370.58C318.58 371.28 317.98 372.02 318.46 372.9C318.94 373.78 319.96 373.76 320.88 373.72C322.825 373.527 324.739 373.097 326.58 372.44C332.122 370.807 337.547 368.802 342.82 366.44C351.513 362.788 359.994 358.649 368.22 354.04C372.02 352.04 371.76 352.04 371.46 349.68C371.16 348.58 370.68 347.42 370.64 347.22C370.1 344.6 370.3 345.88 366.02 332.42C365.5 330.76 364.94 330.72 363.66 331.86C357.241 337.473 350.409 342.594 343.22 347.18C342.14 347.88 340.74 347.8 339.88 348.8C334.16 355.38 323.8 363.12 319.02 370.58Z" fill="#FEF0BB"/>
<path d="M258.5 372.3C262.72 371.48 266.8 369.94 271.02 369.1C279.016 367.538 286.812 365.083 294.26 361.78C294.406 360.287 294.674 358.809 295.06 357.36C295.28 355.9 294.7 355.68 293.38 355.68C286.431 355.747 279.616 353.772 273.78 350C272.885 349.231 271.754 348.792 270.575 348.755C269.396 348.719 268.24 349.088 267.3 349.8C266.66 350.24 265.96 350.58 265.3 351.02C257.763 356.352 250.519 362.087 243.6 368.2C241.652 369.687 239.968 371.493 238.62 373.54C238.22 374.2 237.44 374.96 237.62 375.68C238.52 375.68 253.04 373.34 258.5 372.3Z" fill="#FEF0BB"/>
<path d="M70.22 76.58C72.44 76.82 74.62 77.24 76.84 77.36C77.3613 77.3152 77.8795 77.4764 78.2833 77.8092C78.6871 78.142 78.9444 78.6197 79 79.14C79.64 81.36 80.44 83.5 81.14 85.7C81.52 86.9 82 88.04 83.38 88.16C84.76 88.28 85 87.02 85.38 86.16C86.64 83.5 87.94 80.88 89.08 78.16C89.2162 77.7227 89.4788 77.3355 89.8348 77.0472C90.1907 76.7589 90.624 76.5824 91.08 76.54C93.88 76.1 96.68 75.48 99.48 74.9C100.48 74.68 101.48 74.24 101.48 73.14C101.48 72.04 100.94 71.52 100.16 71C98.16 69.56 96.16 68.06 94.02 66.64C93.8364 66.5622 93.6715 66.4461 93.5364 66.2995C93.4013 66.1528 93.2991 65.979 93.2366 65.7896C93.1741 65.6003 93.1528 65.3997 93.1741 65.2015C93.1954 65.0032 93.2588 64.8118 93.36 64.64C94.22 62.46 94.84 60.18 95.36 58.4C95.36 56.26 94.48 55.66 92.64 56.26C90.6523 56.9104 88.7026 57.6715 86.8 58.54C86.2112 58.8345 85.5571 58.9744 84.8993 58.9464C84.2415 58.9184 83.6017 58.7235 83.04 58.38C80.32 56.98 77.5 55.72 74.74 54.38C74.3357 54.1 73.8611 53.9386 73.37 53.9138C72.8788 53.8891 72.3904 54.0021 71.96 54.24C70.98 54.98 71.5 56.02 71.84 56.94C72.78 59.54 73.84 62.16 74.74 64.76C74.8925 64.986 74.9971 65.2408 75.0475 65.5088C75.0979 65.7767 75.093 66.0522 75.0331 66.3182C74.9731 66.5841 74.8594 66.835 74.699 67.0555C74.5385 67.2759 74.3347 67.4612 74.1 67.6C72.2123 69.254 70.41 71.0029 68.7 72.84C68.12 73.42 67.46 74 67.92 75.02C68.0991 75.4832 68.4152 75.8807 68.8262 76.1595C69.2372 76.4382 69.7234 76.5849 70.22 76.58Z" fill="#FEF0BB"/>
<path d="M36 58.9C38.0632 58.9413 40.1133 58.5637 42.0264 57.79C43.9395 57.0164 45.6758 55.8627 47.1303 54.3989C48.5848 52.935 49.7273 51.1914 50.4887 49.2734C51.25 47.3554 51.6145 45.3029 51.56 43.24C51.78 35.62 44.42 28 35.4 27.84C26.7 27.7 19.4 36.32 19.78 43.84C19.8522 45.8952 20.3294 47.9158 21.1844 49.7861C22.0394 51.6564 23.2553 53.3394 24.7623 54.7386C26.2693 56.1379 28.0378 57.2257 29.9662 57.9399C31.8947 58.654 33.9451 58.9803 36 58.9ZM26.7 34.9C29.1123 33.0301 32.0778 32.0153 35.13 32.0153C38.1822 32.0153 41.1477 33.0301 43.56 34.9C45.5208 36.3948 46.9523 38.4774 47.6454 40.8436C48.3384 43.2098 48.2568 45.7356 47.4124 48.0521C46.568 50.3686 45.0051 52.3545 42.9519 53.7196C40.8987 55.0847 38.4628 55.7576 36 55.64C34.2999 55.6885 32.6075 55.3934 31.0241 54.7724C29.4408 54.1514 27.999 53.2172 26.7852 52.0259C25.5714 50.8345 24.6105 49.4104 23.9601 47.8389C23.3097 46.2673 22.9832 44.5807 23 42.88C22.984 41.361 23.3143 39.8583 23.9658 38.486C24.6173 37.1137 25.5729 35.9078 26.76 34.96L26.7 34.9Z" fill="#FEF0BB"/>
<path d="M29.32 48.18C30.02 47.72 29.72 47.12 29.44 46.52C29.16 45.92 29.02 45.34 28.78 44.76C28.6117 44.3345 28.5675 43.8701 28.6525 43.4205C28.7374 42.971 28.9481 42.5547 29.26 42.22C29.96 41.4 30.8 42.22 31.54 42.5C31.74 42.5 33.22 43.58 33.82 42.68C34.14 42.16 33.82 41.76 33.4 41.4C31.4 39.04 27.96 38.78 26.62 41.56C26.1871 42.5973 26.0873 43.7435 26.3345 44.84C26.5818 45.9364 27.1638 46.9289 28 47.68C28.32 48 28.68 48.6 29.32 48.18Z" fill="#FEF0BB"/>
<path d="M40.68 44C40.54 46 40.4 47.62 37.64 47.26C37.16 47.26 36.7 47.02 36.22 46.94C34.98 46.74 34.38 48.12 35.66 48.7C36.4821 49.1574 37.398 49.4205 38.3375 49.4691C39.277 49.5176 40.2152 49.3503 41.08 48.98C41.8257 48.6399 42.4391 48.0642 42.8257 47.3415C43.2123 46.6188 43.3509 45.7891 43.22 44.98C43.22 43.38 43.34 41.84 41.78 41.92C40.22 42 40.74 43.02 40.68 44Z" fill="#FEF0BB"/>
<path d="M36 40.32C37.14 39.98 35.88 38.96 35.84 38.32C35.8 37.68 35.6 37.04 36.18 36.6C37.28 35.8 38.18 36.92 39.76 38.06C40.64 38.76 41.16 38.3 41.16 37.28C41.16 35.7 38.92 34.16 36.8 34.22C34.68 34.28 34 35.14 34 37.42C34.1 38.8 34.66 40.68 36 40.32Z" fill="#FEF0BB"/>
<path d="M109.82 98.44C109.82 98 109.82 97.34 109.1 97.42C108.38 97.5 108.62 98.04 108.62 98.44C108.62 99.54 108.26 107.84 108.34 108.44C108.34 109.44 107.56 111.24 108.94 111.26C110.32 111.28 109.7 109.42 109.78 108.44C110.093 105.115 110.107 101.768 109.82 98.44Z" fill="#FFC7D6"/>
<path d="M56.3 163.32C61.9 159.32 67.62 155.78 74.66 155.32C78.0397 155.388 81.3294 156.422 84.14 158.3C85.3 158.92 85.7 158.72 85.9 157.5C87.7582 146.744 91.4952 136.4 96.94 126.94C99.06 123.08 101.44 119.4 103.78 115.68C103.922 115.388 104.124 115.128 104.372 114.918C104.619 114.708 104.908 114.552 105.22 114.46C105.68 115.14 105.22 115.6 104.84 116.08C96.14 129.28 89.24 142.34 86.84 158.5C86.7166 158.988 86.7661 159.504 86.98 159.96C92.324 157.585 97.96 155.93 103.74 155.04C108.16 153.84 112.4 152.7 117.14 155.04C121.76 156.3 122.18 158.32 125.54 157.04C129.926 155.319 134.53 154.216 139.22 153.76C147.1 152.46 151.22 152.1 160.5 156.08C162.82 157.1 164.34 157.14 164.5 158.08C165.213 158.117 165.917 157.912 166.5 157.5C165.84 155.18 165.18 152.86 164.5 150.54C162.413 145.9 159.537 141.657 156 138C152.393 134.203 148.473 130.718 144.28 127.58C138.42 123.73 132.314 120.269 126 117.22C120.052 114.193 113.362 112.93 106.72 113.58C104.087 113.895 101.569 114.842 99.38 116.34C88.8786 122.818 79.2186 130.57 70.62 139.42C64.0439 146.095 58.7554 153.926 55.02 162.52C54.7537 163.023 54.6556 163.597 54.74 164.16C56.4 163.38 55.66 163.76 56.3 163.32ZM117.1 115.64C125.826 119.871 133.944 125.252 141.24 131.64C147.357 137.058 152.857 143.135 157.64 149.76C157.991 150.193 158.306 150.655 158.58 151.14C158.92 151.84 160 152.78 159.18 153.3C158.36 153.82 158 152.5 157.62 151.92C150.362 141.372 141.255 132.225 130.74 124.92C126.74 122.1 122.42 119.56 118.12 117.14C117.163 116.779 116.301 116.204 115.6 115.46C116.28 115.04 116.68 115.44 117.1 115.64Z" fill="#FFC7D6"/>
<path d="M140.48 249.56C145.92 248.296 151.225 246.508 156.32 244.22C157.84 243.48 157.66 242.86 157.34 241.28C151.081 243.707 144.667 245.711 138.14 247.28C138.76 248.88 138.8 250 140.48 249.56Z" fill="#FFC7D6"/>
<path d="M187.88 232C188.04 231.9 188.28 231.82 188.5 231.68C187.62 230.48 186.7 229.3 185.78 228.14C185.101 228.004 184.396 228.103 183.78 228.42C180.38 230.42 171.16 235.28 166.86 237.28C167.16 238.68 167.46 240.08 167.8 241.46C175.6 238.46 180.94 236.62 187.88 232Z" fill="#FFC7D6"/>
<path d="M123.7 250C123.884 251.011 123.836 252.05 123.56 253.04C126.22 252.68 128.8 252.22 131.34 251.72L130.4 248.9C124.18 250.1 124.86 249.72 123.7 250Z" fill="#FFC7D6"/>
<path d="M289.18 351.62C294.84 331.62 303.66 309.62 307.4 297.12C305.52 296.86 305.5 296.88 304.96 298.62C304.06 301.46 303.12 304.3 302.28 307.16C298.64 319.84 293.64 332.06 289.7 344.64C289.114 346.832 288.317 348.962 287.32 351C286.86 351.88 287.88 353.56 289.18 351.62Z" fill="#FFC7D6"/>
<path d="M174 218C172.561 217.733 171.103 217.579 169.64 217.54C167.798 218.342 166.048 219.341 164.42 220.52C164.42 222.38 164.66 224.2 164.84 226.04C166.802 224.931 168.699 223.709 170.52 222.38C172.079 221.287 173.288 219.766 174 218Z" fill="#FFC7D6"/>
<path d="M155.24 230.84C155 229.28 154.82 227.72 154.72 226.14C152.16 227.44 149.58 228.68 146.96 229.82C146.169 230.459 145.211 230.855 144.2 230.96C142.72 231.56 141.18 232.1 139.64 232.58C140.22 233.9 140.84 235.14 141.46 236.38C146.17 234.838 150.773 232.988 155.24 230.84Z" fill="#FFC7D6"/>
<path d="M111.82 58.72C113.04 59.32 113.82 58.72 113.6 57.18C113.409 56.1648 113.369 55.127 113.48 54.1C114.68 46.1 118.58 41.66 116.26 35.84C116.083 35.1991 115.758 34.6086 115.311 34.1164C114.864 33.6242 114.308 33.244 113.687 33.0066C113.066 32.7691 112.398 32.6809 111.737 32.7493C111.075 32.8176 110.439 33.0405 109.88 33.4C107.02 34.94 106.2 37.74 105.52 40.9C104.98 40.42 104.7 40.12 104.38 39.86C102.48 38.38 100.88 36.44 98.22 36.12C93.36 35.54 92.9 40.98 95.54 45.08C99.5892 51.0552 105.228 55.7796 111.82 58.72ZM96.48 38.32C97.42 37.5 98.48 38.02 99.44 38.46C101.668 39.7724 103.591 41.5452 105.08 43.66C105.68 44.38 106.24 45.48 107.4 45C108.56 44.52 107.96 43.46 107.88 42.6C107.678 41.4105 107.765 40.1899 108.134 39.0411C108.503 37.8924 109.143 36.8494 110 36C111.84 34.34 113.68 34.84 114.46 37.22C116.08 42.22 111.1 48.42 111.08 56.58C104.84 52.42 98.68 48.74 95.98 41.48C95.6956 40.9738 95.5903 40.3866 95.6811 39.8131C95.7718 39.2397 96.0533 38.7136 96.48 38.32Z" fill="#FFC7D6"/>
<path d="M59.62 24.98C62.2011 26.8665 65.0184 28.4063 68 29.56C70.46 30.64 73.36 30.64 75.42 32.64C75.88 33.08 76.38 33.62 77.04 33.14C77.7 32.66 77.54 31.3 77.24 30.92C73.38 26.02 73.76 18.92 70.82 13.68C70.6423 13.2139 70.3352 12.8082 69.9349 12.5106C69.5345 12.213 69.0576 12.0358 68.56 12C67.52 12 66.92 12.8 66.42 13.74C65.5111 15.7566 65.1988 17.9914 65.52 20.18C63.9195 19.2587 62.2139 18.5334 60.44 18.02C59.9099 17.8433 59.3384 17.8328 58.8022 17.9901C58.266 18.1474 57.7907 18.4649 57.44 18.9C57.0273 19.2977 56.7749 19.833 56.7307 20.4044C56.6864 20.9758 56.8534 21.5435 57.2 22C57.7955 23.1477 58.6189 24.1617 59.62 24.98ZM59.34 20.24C59.92 19.5 60.82 20.24 61.34 20.52C62.92 21.22 64.42 22.14 65.94 22.98C66.52 23.3 67.06 24 67.8 23.42C68.54 22.84 68.38 22.04 68.1 21.3C67.2622 19.3597 67.2263 17.1667 68 15.2C68.46 14.2 68.68 13.72 69.66 15.86C70.02 16.62 69.66 15.7 73.16 27.86C73.32 28.44 73.76 29.36 72.52 28.92C68.1 27.34 63.48 26 60 22.38C59.54 21.76 58.68 21.08 59.34 20.24Z" fill="#FFC7D6"/>
<path d="M207.48 242.64C206.392 241.653 205.174 240.818 203.86 240.16C203.7 242.9 199.12 255.22 198.14 257.78C197.934 258.231 197.838 258.725 197.86 259.22C199.325 259.291 200.775 259.539 202.18 259.96C205.025 254.573 206.824 248.696 207.48 242.64Z" fill="#FFC7D6"/>
<path d="M286.92 108.24C286.359 107.75 285.661 107.443 284.92 107.36C283.652 107.439 282.459 107.986 281.572 108.895C280.685 109.804 280.167 111.011 280.12 112.28C281.5 112.227 282.846 111.83 284.034 111.124C285.221 110.419 286.214 109.427 286.92 108.24Z" fill="#FFC7D6"/>
<path d="M280 114C280.126 115.212 280.688 116.337 281.583 117.165C282.477 117.993 283.642 118.468 284.86 118.5C286.089 118.449 287.262 117.972 288.178 117.151C289.094 116.33 289.695 115.216 289.88 114C289.837 112.417 289.275 110.892 288.28 109.66C287.358 111.003 286.121 112.101 284.678 112.857C283.235 113.614 281.629 114.006 280 114Z" fill="#FFC7D6"/>
<path d="M196 242.58C196.572 241.277 197.066 239.941 197.48 238.58C196.616 238.354 195.779 238.039 194.98 237.64C194.761 237.859 194.585 238.117 194.46 238.4C191.84 243.96 185.2 252.4 184.64 254.98L186.98 256.98C187.24 256.8 187.48 256.54 187.76 256.3C191.68 252.5 193.6 247.42 196 242.58Z" fill="#FFC7D6"/>
<path d="M255.58 120.88C255.983 121.611 256.558 122.233 257.255 122.693C257.952 123.152 258.749 123.436 259.58 123.52C263.74 123.52 265.58 117.12 262.16 114.52C262.117 114.817 262.057 115.11 261.98 115.4C260.8 119.34 259.62 120.5 255.58 120.88Z" fill="#FFC7D6"/>
<path d="M254.92 119.32C255.883 119.576 256.906 119.464 257.79 119.005C258.674 118.546 259.355 117.774 259.7 116.84C260.142 115.85 260.425 114.798 260.54 113.72C259.763 113.504 258.943 113.497 258.162 113.702C257.382 113.906 256.67 114.314 256.099 114.883C255.527 115.452 255.117 116.163 254.91 116.942C254.703 117.722 254.707 118.542 254.92 119.32Z" fill="#FFC7D6"/>
<path d="M120.38 272C120.56 272.3 120.68 272.68 121.02 272.76C121.82 271.88 122.62 271 123.4 270.1C123.556 269.77 123.625 269.405 123.6 269.04C122.754 266.076 121.4 263.282 119.6 260.78C118.02 261.629 116.298 262.184 114.52 262.42C116.72 265.42 118.42 268.78 120.38 272Z" fill="#FFC7D6"/>
<path d="M134.72 206.16C134.711 206.735 134.82 207.305 135.04 207.836C135.259 208.367 135.585 208.848 135.997 209.249C136.409 209.65 136.899 209.962 137.436 210.167C137.973 210.372 138.546 210.465 139.12 210.44C140.15 210.441 141.141 210.044 141.887 209.333C142.632 208.621 143.074 207.649 143.12 206.62C143.105 205.403 142.616 204.24 141.757 203.377C140.898 202.515 139.737 202.021 138.52 202C137.991 202.004 137.468 202.117 136.985 202.332C136.502 202.547 136.068 202.859 135.711 203.25C135.355 203.641 135.082 204.101 134.912 204.601C134.741 205.102 134.676 205.633 134.72 206.16Z" fill="#FFC7D6"/>
<path d="M158.1 201.06C158.363 201.793 158.834 202.433 159.456 202.902C160.078 203.371 160.823 203.648 161.6 203.7C162.549 203.648 163.444 203.237 164.103 202.552C164.762 201.866 165.137 200.957 165.152 200.006C165.167 199.055 164.822 198.134 164.185 197.428C163.548 196.721 162.667 196.283 161.72 196.2C160.947 196.223 160.198 196.47 159.563 196.91C158.928 197.35 158.433 197.965 158.14 198.68C158.42 199.015 158.57 199.44 158.563 199.877C158.556 200.314 158.391 200.734 158.1 201.06Z" fill="#FFC7D6"/>
<path d="M209.34 355.26C210.52 354.64 210.88 353.92 209.78 352.86C209.069 352.3 208.254 351.886 207.382 351.642C206.51 351.399 205.599 351.33 204.7 351.44C203.63 351.385 202.558 351.493 201.52 351.76C200.947 352.928 200.144 353.969 199.16 354.82C199.541 355.083 199.997 355.216 200.46 355.2C208.12 355.24 207.76 356 209.34 355.26Z" fill="#FFC7D6"/>
<path d="M208 348.46C209.06 348.46 210.66 348.58 210.74 347.32C210.82 346.06 209.3 345.46 208.02 345.32C207.356 345.251 206.688 345.218 206.02 345.22C205.017 345.166 204.025 345.447 203.2 346.02C202.923 347.449 202.556 348.858 202.1 350.24C203.28 350.22 205.22 348.32 208 348.46Z" fill="#FFC7D6"/>
<path d="M125.44 240.8C124.092 239.996 122.524 239.639 120.96 239.78C119.74 239.78 118.02 239.54 117.42 240.6C117.2 241 117 241.42 116.8 241.86C117 241.82 114.96 242.2 125.44 240.8Z" fill="#FFC7D6"/>
<path d="M111.24 250.7C111.065 251.058 110.974 251.451 110.974 251.85C110.974 252.249 111.065 252.642 111.24 253C111.298 253.327 111.249 253.663 111.1 253.96C111.846 254.014 112.594 254.014 113.34 253.96C114.59 253.961 115.836 253.834 117.06 253.58H117.42C117.796 253.047 118.074 252.451 118.24 251.82C118.38 251.28 118.76 250.66 118.04 250.36C117.72 250.36 117.34 250.36 117.08 250.48C115 250.44 113.12 250.62 111.24 250.7Z" fill="#FFC7D6"/>
<path d="M137.2 362.1C141.34 365.48 142.1 366.64 143.02 365.92C145.02 364.38 142.42 361.46 140.3 360.16C139.14 360.66 138 361.2 136.86 361.76L137.2 362.1Z" fill="#FFC7D6"/>
<path d="M139.32 368.24C139.32 366.52 136.82 363.86 134.68 362.9L132.8 363.96C134.34 365.72 135.96 367.4 137.58 369.1C138.16 369.7 139.26 369.8 139.32 368.24Z" fill="#FFC7D6"/>
<path d="M118.44 236C116.44 231.74 116.02 227.06 114.82 222.6C114.389 221.156 114.048 219.686 113.8 218.2C113.36 214.86 114.24 216.5 114.62 217.98C115.88 223.16 117.2 228.34 118.5 233.54C119.24 236.6 120.5 238.94 124.26 238.96C125.76 238.96 125.88 238.96 125.58 237.54C124.18 231.08 121 215.88 123.3 209.74C123.94 211.2 123.3 212.62 123.4 214.06C123.617 220.022 124.285 225.959 125.4 231.82C125.695 234.658 126.326 237.451 127.28 240.14C128.22 242.14 128.5 241.4 132.84 241.48C134.32 241.48 134.84 241.18 134.1 239.48C132.033 235.125 130.424 230.567 129.3 225.88C129.081 225.286 128.991 224.653 129.036 224.022C129.081 223.391 129.26 222.777 129.56 222.22C130.763 228.358 132.703 234.328 135.34 240C135.86 241.18 136.42 241.7 137.7 241.22C138.98 240.74 142 241.04 140.66 238.48C133.46 224.74 129.4 208.48 129.14 200.1C129.14 199.6 128.96 198.8 129.7 198.74C130.44 198.68 130.36 199.34 130.36 199.82C130.36 199.96 130.36 200.1 130.36 200.22C131.307 199.874 132.171 199.336 132.9 198.64C132.7 198.8 132.52 198.98 132.28 199.14C135.26 193.72 135.4 187.64 136.28 181.7C137.42 182.64 137.56 184.2 136.68 188.04C136.327 190.627 135.745 193.177 134.94 195.66C135.449 195.357 136.013 195.16 136.6 195.08C136.8 193.96 137.08 194.04 137.72 193.94C143.316 192.769 148.787 191.068 154.06 188.86C155.56 188.3 156.52 186.48 158.36 186.66C158.645 186.514 158.96 186.439 159.28 186.44C159.273 186.143 159.233 185.848 159.16 185.56C158.28 181.04 157.28 177.12 152.44 174.42C145.88 170.57 138.108 169.342 130.68 170.98C124.725 171.999 119.198 174.738 114.78 178.86C111.892 181.349 110.008 184.804 109.48 188.58C108.88 197.08 108.94 205.64 108.76 214.16C108.76 215 108.6 215.1 109.06 215.78C110.307 217.34 111.114 219.204 111.4 221.18C112.47 225.999 114.045 230.692 116.1 235.18C118.3 239.58 118.9 237 118.44 236Z" fill="#A6EEF8"/>
<path d="M245.3 88.44C243.932 90.6815 243.034 93.1774 242.659 95.7764C242.284 98.3754 242.441 101.023 243.12 103.56C243.42 104.82 243.64 106.54 245.12 106.18C244.98 104.8 243.48 99.92 245.12 99.74C246.22 99.74 245.78 104.22 246.74 105.52C247.62 105.52 254.74 103.52 262.74 102.68C259.463 97.3191 257.18 91.4112 256 85.24C256 84.78 255.5 84.2 256.16 84C256.82 83.8 256.86 84.58 257.02 85.08C258.6 90.26 261.26 98.16 264.62 102.46C267.36 102.08 268.98 101.26 272.28 100.96C274.33 100.522 276.425 100.334 278.52 100.4C277.16 99.12 278.06 99.78 270.52 90.96C267.68 87.62 270 88.54 270.98 89.6C273.76 92.64 276.58 95.6 279.26 98.78C279.653 99.3491 280.209 99.7856 280.856 100.032C281.502 100.278 282.208 100.323 282.88 100.16C284.206 99.9911 285.545 99.9376 286.88 100C288.52 99.56 288.54 99.28 287.14 97.84C282.262 92.7602 276.678 88.4089 270.56 84.92C267.12 82.92 261.26 80.58 256.56 77.6C254.56 76.32 253.72 76.02 252.56 76.76C250.756 78.4157 249.041 80.1648 247.42 82C246.47 83.6165 245.641 85.3011 244.94 87.04C245.076 87.0854 245.199 87.1642 245.297 87.2694C245.396 87.3745 245.466 87.5026 245.502 87.6419C245.537 87.7812 245.538 87.9272 245.502 88.0666C245.467 88.2061 245.398 88.3344 245.3 88.44Z" fill="#A6EEF8"/>
<path d="M30.24 98C34.24 99.78 30.38 100.86 38.1 114C38.94 115.44 38.58 114.7 45 109.48C46.06 108.62 46.26 107.88 45.3 106.76C43.5102 104.674 42.4746 102.046 42.36 99.3C42.4078 98.9007 42.3342 98.4963 42.1486 98.1395C41.9631 97.7827 41.6743 97.4902 41.32 97.3C40.1355 96.6909 39.1217 95.7956 38.3708 94.6955C37.6199 93.5953 37.1556 92.3251 37.02 91C36.7313 89.4742 35.8824 88.1116 34.64 87.18C33.9048 86.422 32.9599 85.9008 31.9265 85.6835C30.8931 85.4661 29.8183 85.5624 28.84 85.96C27.8772 86.4444 27.0627 87.1792 26.482 88.0872C25.9013 88.9952 25.5759 90.0428 25.54 91.12C25.6158 92.5879 26.0945 94.0065 26.9236 95.2202C27.7527 96.4339 28.9002 97.3957 30.24 98Z" fill="#A6EEF8"/>
<path d="M44.12 83.78C45.1434 83.7801 46.13 84.1611 46.8879 84.8488C47.6458 85.5364 48.1207 86.4815 48.22 87.5C48.38 88.16 48.54 88.84 48.68 89.5C48.88 90.56 49.12 91.12 50.54 90.92C51.9933 90.6575 53.4884 90.7496 54.8985 91.1883C56.3087 91.627 57.5921 92.3994 58.64 93.44C59.44 94.28 59.94 94.06 60.64 93.44C61.8719 92.015 63.2607 90.7336 64.78 89.62C66.88 88.3 66.78 86.84 64.62 85.62C61.681 83.5975 58.1874 82.5355 54.62 82.58C54.3947 82.6346 54.1594 82.6331 53.9348 82.5758C53.7101 82.5185 53.5029 82.407 53.3313 82.2511C53.1596 82.0953 53.0288 81.8998 52.9501 81.6817C52.8714 81.4636 52.8474 81.2295 52.88 81C52.7977 79.303 52.502 77.6231 52 76C50.4 69.36 38.92 72.3 40.5 78.9C40.94 81.02 42 83.54 44.12 83.78Z" fill="#A6EEF8"/>
<path d="M42 96.22C42.88 96.62 43.66 97 43.62 98.22C43.7378 101.093 44.8636 103.834 46.8 105.96C47.64 107.14 48.3 106.78 48.8 105.96C49.7333 104.664 50.8519 103.511 52.12 102.54C57.66 97.2 59.44 96.54 56.24 94.54C51.66 91.64 49.46 94.1 47.8 90.9C47.2992 89.8404 46.578 88.8998 45.6848 88.1411C44.7915 87.3823 43.7467 86.8228 42.62 86.5C41.6727 86.4312 40.7284 86.668 39.9256 87.1756C39.1229 87.6831 38.504 88.4347 38.16 89.32C37.9836 90.7289 38.2608 92.1574 38.9513 93.3981C39.6418 94.6389 40.7097 95.6273 42 96.22Z" fill="#A6EEF8"/>
<path d="M169.78 215.08C169.08 212.82 168.3 210.58 167.44 207.94C166.205 210.275 164.709 212.463 162.98 214.46C164.857 215.335 166.909 215.773 168.98 215.74C169.36 215.8 170 216 169.78 215.08Z" fill="#A6EEF8"/>
<path d="M236.38 259.62C230.26 261.346 223.837 261.714 217.56 260.7C216.924 260.58 216.296 260.42 215.68 260.22C212.34 259.3 212.86 260.98 214.86 261.54C222.782 263.632 231.153 263.263 238.86 260.48C239.62 260.2 240.56 259.66 240.1 258.86C239.24 257.32 240.44 256.86 241.2 256.28C243.42 254.28 243.44 252.8 241.02 251.06C240.853 250.981 240.705 250.866 240.587 250.723C240.469 250.58 240.384 250.412 240.338 250.233C240.292 250.053 240.287 249.866 240.322 249.684C240.356 249.502 240.431 249.33 240.54 249.18C241.895 245.916 243.063 242.577 244.04 239.18C245.2 235.34 245.18 235.32 248.24 237.94C249.06 238.64 250.24 239.06 250.24 240.42C250.54 245 251 249.58 251.18 254.16C252.22 281.24 251.52 281.54 252.78 283.08C253.58 282.68 253.2 283.08 253.02 271.08C252.983 261.834 252.482 252.596 251.52 243.4C251.22 239.62 251.98 238.88 250.74 237.7C244.74 231.94 237.5 224.76 230.88 219.34C229.76 218.46 229.88 217.96 230.88 217.08C232.433 215.648 233.607 213.855 234.3 211.86C237.66 200.64 243.9 187.7 257.66 145.4C259.22 140.54 254.54 141.04 251.66 136.28C252.7 136.04 253.66 137.62 254.14 136.7C254.62 135.78 253.1 135.18 252.32 134.7C250.429 133.509 248.607 132.214 246.86 130.82C241.323 125.466 236.575 119.351 232.76 112.66C232.109 111.586 231.821 110.33 231.94 109.08C232.025 105.649 232.57 102.246 233.56 98.96C234 97.7 235.04 90.38 238.04 85.96C244.34 76.7 254.44 64.8 264.04 59.82C270.04 56.64 274.62 56.26 283.44 57.94C297.16 60.58 304.68 65.94 314.98 70.68C318.009 72.008 320.925 73.5798 323.7 75.38C323.786 75.4349 323.887 75.4586 323.988 75.4468C324.089 75.4351 324.183 75.3888 324.254 75.3158C324.325 75.2427 324.368 75.1474 324.376 75.0461C324.385 74.9448 324.358 74.8437 324.3 74.76C322.56 72.24 317.86 70.3 315.2 69.04C282.02 53.22 266.4 46.66 242.86 76.82C239.02 81.72 235.92 85.14 234.74 89.68C233.1 96.02 231.04 102.26 230.74 108.88C230.58 112.04 231.72 114.22 241.56 127.14C244 130.46 248 132.42 250.4 136C252.4 139.2 250.52 138 255.3 141.78C255.765 142.087 256.095 142.561 256.222 143.105C256.348 143.648 256.262 144.219 255.98 144.7C254.784 147.413 253.801 150.214 253.04 153.08C248.56 167.62 236.46 200.34 234.42 206.92C233.32 210.42 232.42 214 229.34 216.48C227.78 218 227.02 218.24 229.34 220.22C233.9 223.96 238.02 228.22 242.34 232.12C243.76 233.42 245.08 234.6 243.28 236.56C241.612 242.096 239.56 247.509 237.14 252.76C236.86 253.36 236.74 254.1 235.86 254.4C234.926 250.588 235.38 246.568 237.14 243.06C237.42 242.44 237.68 241.76 236.88 241.48C236.08 241.2 236 241.94 235.8 242.48C235.057 244.206 234.487 246.001 234.1 247.84C234.1 248.46 233.94 249.54 232.9 248.88C231.135 248.106 229.325 247.438 227.48 246.88C229.32 244.56 231.08 242.4 232.78 240.18C234.48 237.96 236.12 240.32 239 237.72C239.117 237.614 239.197 237.472 239.226 237.317C239.254 237.162 239.231 237.001 239.16 236.86C239.085 236.719 238.967 236.606 238.823 236.537C238.679 236.469 238.516 236.449 238.36 236.48C236.625 236.862 234.915 237.349 233.24 237.94C229.84 239.16 228.46 243.16 225.62 245.78C226.825 240.586 229.025 235.676 232.1 231.32C232.42 230.86 233.24 230.32 232.58 229.74C231.92 229.16 231.54 230.06 231.08 230.42C230.713 230.743 230.39 231.113 230.12 231.52C223.16 241.24 225.4 244.82 222.12 244.7C220.455 244.596 218.784 244.779 217.18 245.24C216.023 245.58 214.791 245.571 213.639 245.216C212.486 244.86 211.464 244.173 210.7 243.24C208.932 241.531 206.855 240.174 204.58 239.24C202.249 238.39 199.813 237.859 197.34 237.66C192.26 236.46 192.18 233.66 185.14 224.42C181.94 220.3 178.64 216.22 172.7 216.18C171.58 216.18 171.84 215.9 169.16 208.74C167.34 204.02 170.44 197.54 164.46 194.74C163.72 194.38 163.56 193.7 163.34 193.06C161.933 189.198 160.752 185.258 159.8 181.26C159.322 178.945 158.116 176.843 156.36 175.26C155.82 174.74 155.1 174.86 154.52 174.56C153.36 173.94 152.98 171.12 145.26 169.64C135.26 167.64 126.22 170.8 117.44 175.12C115.14 176 114 178 109.88 183.48C109.88 176.86 110.52 162.16 110.68 158.34C110.68 157.46 109.88 156.34 110.68 155.82C111.126 155.618 111.61 155.513 112.1 155.513C112.59 155.513 113.074 155.618 113.52 155.82C120.16 157.6 120.66 161.26 125 159.54C131.202 157.147 137.691 155.574 144.3 154.86C149.047 154.265 153.865 155.071 158.16 157.18C159.734 157.937 161.402 158.482 163.12 158.8C163.94 158.94 164.44 158.7 164.44 157.86C164.44 157.02 162.94 156.94 160.44 155.86C155.599 153.442 150.198 152.365 144.8 152.74C138.044 153.401 131.402 154.934 125.04 157.3C121.24 158.76 120.4 156.38 117.04 154.82C112.42 152.64 108.26 153.64 103.64 154.92C89.6 158.82 88 161.46 87.04 160C86.8153 159.554 86.7653 159.041 86.9 158.56C89.3 142.44 96.14 129.4 104.9 116.12C105.22 115.66 105.74 115.2 105.26 114.5C104.949 114.599 104.661 114.76 104.413 114.973C104.166 115.186 103.964 115.447 103.82 115.74C101.5 119.46 99.12 123.14 97 127C83.14 152.2 88 160.34 84.2 158.28C81.3894 156.402 78.0997 155.368 74.72 155.3C67.68 155.78 61.86 159.3 56.36 163.3C55.72 163.8 55.34 164.26 55.9 164.86C56.0051 164.979 56.1344 165.075 56.2792 165.14C56.424 165.205 56.5811 165.239 56.74 165.239C56.8989 165.239 57.056 165.205 57.2008 165.14C57.3456 165.075 57.4749 164.979 57.58 164.86C60.0334 162.601 62.8897 160.823 66 159.62C71.66 157.06 76.7 155.86 82.54 159.48C83.54 160.1 84.66 160.58 85.62 161.26C86.3892 161.81 87.3022 162.124 88.2472 162.163C89.1922 162.202 90.128 161.965 90.94 161.48C94.8896 159.692 98.993 158.267 103.2 157.22C104.94 156.76 105.42 156.94 105.44 158.88C105.44 173.7 104.76 188.52 104.58 203.36C104.48 211.26 104.46 219.16 104.24 227.06C104.24 229.38 104.64 232.24 101.22 233.06C100.94 233.06 100.5 233.5 100.5 233.72C100.5 236.38 99.22 238.86 99.4 241.56C99.58 244.26 100.38 245 102.9 245.56C107.54 246.46 110.48 244.56 110.56 246.48C110.56 247.52 110.56 248.8 109.14 249.2C107.598 249.544 105.989 249.423 104.515 248.854C103.042 248.284 101.77 247.291 100.86 246C100.64 245.66 100.46 245.2 99.94 245.4C99.8569 245.435 99.7827 245.487 99.7228 245.554C99.6628 245.621 99.6188 245.701 99.5938 245.788C99.5688 245.874 99.5636 245.965 99.5785 246.054C99.5935 246.142 99.6281 246.226 99.68 246.3C101.9 249.42 99.68 253.08 102.94 254.3C103.391 254.479 103.791 254.766 104.104 255.135C104.418 255.505 104.637 255.946 104.74 256.42C106.54 261.5 109.06 263.3 114.22 262.42C118.08 261.94 121.5 260.54 122.56 256.84C124.1 251.54 125.42 248.04 119.78 248.38C119.449 248.45 119.127 248.558 118.82 248.7C117.98 248.92 115 247.28 115.18 246.7C117.7 238.7 117.5 240.16 121 239.84C122.563 239.704 124.13 240.061 125.48 240.86C128.5 242.64 129.16 245.26 130.44 248.86C133.66 258.26 136.28 267.36 140.44 275.88C142.74 280.56 144.28 285.62 147.3 289.98C148.501 291.499 149.49 293.174 150.24 294.96C151.82 299.66 153.46 304.32 155.4 308.96C156.14 310.72 156.6 313.32 159.68 312.8C162 312.44 157.34 315.18 146.5 353.86C146.14 355.18 146.74 357.76 143.76 356.84C135.4 360 122.74 365.44 121.58 374.4C121.519 374.667 121.514 374.944 121.564 375.214C121.615 375.483 121.721 375.739 121.874 375.966C122.028 376.193 122.227 376.386 122.458 376.533C122.69 376.68 122.949 376.778 123.22 376.82C124.801 377.123 126.415 377.217 128.02 377.1C138.22 376.82 148.02 374.28 157.78 371.6C158.113 371.526 158.416 371.353 158.648 371.103C158.881 370.853 159.031 370.538 159.08 370.2C160.055 367.126 160.469 363.901 160.3 360.68C159.7 356.52 161.4 353.12 162.9 349.58C165.14 344.22 170.46 331.78 174.28 323.9C175.81 325.069 177.199 326.411 178.42 327.9C185.086 333.646 192.982 337.785 201.5 340C202.94 340.4 203.3 340.88 202.84 342.26C202.08 344.5 201.4 346.76 200.84 349.02C199.34 354.12 195.86 353.76 192.32 358.2C190.92 359.98 189.76 361.94 190.68 364.2C191.6 366.46 193.92 366.48 195.92 366.5C202.986 366.6 210.002 365.295 216.56 362.66C217.51 362.3 218.364 361.727 219.058 360.985C219.751 360.243 220.265 359.352 220.56 358.38C223.38 350.14 221.82 341.94 220.56 333.76C220.462 333.089 220.133 332.474 219.629 332.021C219.124 331.568 218.477 331.306 217.8 331.28C216.482 330.994 215.118 330.994 213.8 331.28C212.246 331.789 210.584 331.873 208.987 331.521C207.39 331.169 205.916 330.395 204.72 329.28C189.34 317.16 186.72 315.02 185.24 312.24C189.06 312.14 189.06 312.14 189.82 308.82C191.432 304.6 192.709 300.26 193.64 295.84C194.28 292.12 195.2 288.48 195.64 284.7C195.64 279.28 195.22 278.46 192.98 271.94C191.18 266.72 192.66 269.3 187.64 259.6C188.618 260.217 189.713 260.622 190.857 260.791C192 260.96 193.166 260.888 194.28 260.58C199.1 259.74 206.88 262.58 208.28 263.06C211.28 263.98 211.92 263.78 212.64 260.72C213.18 258.42 213.4 256.02 213.98 253.74C214.56 251.46 212.68 248.52 214.7 247.22C216.28 246.2 218.56 246.46 222.7 246.3C223.04 246.3 223.44 246.3 223.54 246.7C224 248.42 225.4 248.3 226.74 248.4C228.2 248.573 229.62 248.992 230.94 249.64C231.84 250.04 233.12 250.38 232.76 251.76C232.4 253.14 231.26 253 230.18 253C228.389 252.719 226.637 252.229 224.96 251.54C224.32 251.38 223.56 251.06 223.3 251.78C221.98 255.56 218.36 258.24 219.3 259.06C219.72 259.42 220.1 259.06 220.42 258.78C224.42 255.3 223.14 252.44 225.92 253.7C228.7 254.96 231.48 255.54 234.2 253.44C234.88 257.3 234.58 255.9 228.2 255.98C227.7 255.98 226.94 255.84 226.86 256.62C226.78 257.4 227.56 257.4 228.06 257.42C230.126 257.723 232.218 257.797 234.3 257.64C234.75 257.557 235.214 257.575 235.656 257.693C236.099 257.81 236.51 258.025 236.86 258.32C237.34 258.78 237.52 259.3 236.38 259.62ZM106.82 253.62C103.28 253.02 102.82 253.4 102.08 250.98C101.82 250.08 102.08 249.88 103.02 250.14C107.98 251.5 109.7 249.8 109.54 251.98C109.38 253.8 108.54 253.58 106.82 253.58V253.62ZM166.82 244.08C167.4 245.8 166.1 245.36 164.3 246.62C162.12 248.2 161.26 246.62 160.3 244.28C159.399 242.241 158.728 240.108 158.3 237.92C157.54 233.92 156.5 229.92 156.06 225.56C155.62 220.5 156.52 220.88 154.98 220.54C156.778 219.077 158.754 217.848 160.86 216.88C163 215.98 163.28 216.56 163.24 217.78C162.848 226.664 164.061 235.546 166.82 244V244.08ZM138.56 230.08C140.357 230.771 142.276 231.091 144.2 231.02C145.566 230.83 146.824 230.176 147.764 229.167C148.704 228.158 149.267 226.856 149.36 225.48C150.16 221.32 150.3 221.18 154.8 220.6C154.24 229 155.84 233.88 157.42 241.74C157.7 243.08 157.62 243.62 156.3 244.26C151.212 246.552 145.914 248.347 140.48 249.62C139.54 249.84 139.08 249.62 138.76 248.98C137.931 247.038 137.262 245.031 136.76 242.98C146.96 240.8 143.08 242 138.56 230V230.08ZM157.76 211.84C157.76 212.48 157.62 213.16 157.6 213.84C157.58 214.52 158.22 215.46 157.06 215.96C156.574 216.233 156.02 216.361 155.464 216.329C154.907 216.297 154.372 216.107 153.92 215.78C151.984 214.267 150.685 212.084 150.28 209.66C150.223 209.513 150.202 209.354 150.218 209.197C150.234 209.039 150.287 208.888 150.373 208.755C150.459 208.623 150.575 208.512 150.712 208.433C150.848 208.354 151.002 208.308 151.16 208.3C151.7 208.18 152.22 207.96 152.76 207.82C158.88 206.38 157.58 206.54 157.76 211.76V211.84ZM162.98 214.54C164.713 212.539 166.209 210.344 167.44 208C170.06 216 170.44 216 168.88 215.8C166.838 215.799 164.822 215.341 162.98 214.46V214.54ZM162 193.82C160.443 192.542 159.417 190.732 159.12 188.74C159.02 188.38 159.28 188.08 159.68 188C160.3 187.82 160.18 188.24 162 193.82ZM113.14 232.28C111.64 231.82 110.54 231.56 109.5 231.14C107.9 230.52 108.48 228.9 108.46 227.9C108.46 224.88 108.72 221.9 108.88 218.86C110.76 223.06 111.22 227.64 113.14 232.28ZM103.14 233.74C105.739 232.985 108.477 232.841 111.14 233.32C112.32 233.6 113.38 234.28 113.38 235.46C113.38 236.64 112.04 236.82 111.02 236.98C109.354 237.31 107.648 237.384 105.96 237.2C103.72 237.2 101.96 237.5 101.76 235.84C101.672 235.393 101.755 234.93 101.992 234.541C102.229 234.152 102.603 233.867 103.04 233.74H103.14ZM109.76 243.5C108.4 243.78 107 243.84 105.76 244C104.788 243.962 103.819 243.862 102.86 243.7C102.404 243.508 101.99 243.227 101.642 242.875C101.294 242.522 101.019 242.105 100.834 241.646C100.648 241.187 100.554 240.695 100.559 240.2C100.563 239.705 100.666 239.216 100.86 238.76C101.18 238.26 101.56 238.46 101.96 238.56C104.292 238.956 106.665 239.044 109.02 238.82C109.94 238.82 111.16 238.14 111.2 239.76C111.24 241.38 112 243.04 109.66 243.5H109.76ZM117.92 250.28C118.7 250.68 118.44 251 118.22 251.8C117.818 253.147 116.974 254.32 115.823 255.129C114.673 255.938 113.284 256.337 111.88 256.26C108.3 256.26 111.68 254.4 111.24 253.02C110.3 250.18 112.64 249.68 114.4 248.72C115.4 248 116.62 249.7 117.82 250.28H117.92ZM115.92 239.94C115.093 242.593 113.994 245.153 112.64 247.58C112.29 246.943 112.106 246.227 112.106 245.5C112.106 244.773 112.29 244.057 112.64 243.42C113.128 242.253 113.199 240.953 112.84 239.74C112.72 239.12 112.54 238.5 113.28 238.08C113.568 237.863 113.919 237.745 114.28 237.745C114.641 237.745 114.992 237.863 115.28 238.08C115.566 238.298 115.769 238.608 115.852 238.958C115.936 239.308 115.897 239.676 115.74 240L115.92 239.94ZM117.92 237.66C117.28 237.021 116.801 236.24 116.52 235.38C114.468 230.891 112.893 226.198 111.82 221.38C110.18 214.54 109.08 217.38 109.2 214.36C109.38 205.82 109.3 197.26 109.92 188.78C110.43 184.998 112.317 181.537 115.22 179.06C119.63 174.927 125.161 172.186 131.12 171.18C138.541 169.541 146.307 170.77 152.86 174.62C157.72 177.32 158.72 181.24 159.6 185.76C159.88 187.38 159.6 186.92 158.8 186.86C156.96 186.68 156 188.5 154.5 189.06C149.17 191.23 143.645 192.884 138 194C137.4 194 137.06 194 136.88 195.12C136.58 197.12 137.6 200.62 138.88 201.26C140.16 201.9 140.66 201.46 140.88 200.18C141.52 196.08 139.08 195.24 141.18 194.84C145.353 193.95 149.417 192.609 153.3 190.84C154 190.54 154.52 190.24 154.7 191.44C154.88 192.64 155.62 194.48 156.98 194.14C158.7 193.72 157.66 191.94 157.6 190.7C157.6 190.22 157 189.88 157.46 189.12C157.86 190.22 158.24 191.12 158.54 192.06C158.715 192.91 159.137 193.689 159.752 194.301C160.368 194.912 161.149 195.329 162 195.5C170 196.88 168.7 209.5 159.32 215.38C159.32 212.92 159.32 210.46 159.32 208.04C159.32 205.62 159.16 205.28 156.78 205.42C154.421 205.676 152.095 206.179 149.84 206.92C148.58 207.26 148.26 208.04 148.42 209.3C148.656 211.18 149.333 212.977 150.397 214.545C151.46 216.113 152.88 217.406 154.54 218.32C151.22 220.14 148.54 219.76 139.18 220.96C138.58 220.96 137.7 220.96 137.76 221.86C137.82 222.76 138.64 222.62 139.28 222.56C141.64 222.42 144.02 222.38 146.36 222.08C147.54 221.94 147.94 222.08 147.7 223.3C146.88 227.3 145.88 229.86 141.7 229.14C140.346 228.949 139.08 228.358 138.064 227.442C137.048 226.526 136.33 225.327 136 224C133.62 216.26 130.98 208.6 130.52 200.42C130.52 199.76 130.52 198.88 129.82 198.94C129.12 199 129.22 199.8 129.26 200.3C129.52 205.037 130.298 209.732 131.58 214.3C137.58 237.74 144.08 240.3 139.58 241.02C138.963 241.11 138.354 241.251 137.76 241.44C136.48 241.92 135.9 241.44 135.4 240.22C132.766 234.547 130.826 228.577 129.62 222.44C129.337 222.985 129.171 223.584 129.133 224.197C129.095 224.81 129.186 225.424 129.4 226C132.84 239.88 136.84 241.6 132.96 241.52C128.64 241.52 128.34 242.2 127.4 240.18C126.444 237.491 125.813 234.698 125.52 231.86C124.404 225.999 123.735 220.062 123.52 214.1C123.52 212.68 124.04 211.26 123.42 209.78C121.1 215.78 124.32 231.16 125.68 237.58C126 239 125.86 239.02 124.36 239C120.58 239 119.36 236.64 118.6 233.58C117.34 228.38 116 223.2 114.72 218.02C114.698 217.673 114.605 217.334 114.447 217.025C114.289 216.715 114.068 216.441 113.8 216.22C113.858 218.403 114.235 220.566 114.92 222.64C116.12 227.1 116.6 231.78 118.56 236.04C118.7 236.322 118.749 236.64 118.703 236.951C118.656 237.262 118.516 237.551 118.3 237.78C118 238 118.18 238 117.74 237.66H117.92ZM134.12 254.84C133.7 253.72 130.86 246.14 130.4 244.84C129.46 242.32 129.58 242.6 133.2 242.84C135.48 242.06 135.88 243.66 136.42 245.72C138.94 255.72 142.22 257.46 139.26 257.72C134.24 258.3 135.56 259.28 134 254.84H134.12ZM159.84 310.36C158.6 309.74 161.84 303.1 163.84 295.38C165.037 291.143 167.703 287.471 171.36 285.02C171.422 284.975 171.475 284.917 171.515 284.851C171.555 284.785 171.581 284.712 171.592 284.635C171.604 284.559 171.599 284.481 171.58 284.406C171.561 284.332 171.527 284.261 171.48 284.2C171.391 284.072 171.255 283.984 171.102 283.954C170.949 283.924 170.791 283.955 170.66 284.04C167.377 286.204 164.611 289.065 162.56 292.42C161.686 294.573 161.017 296.802 160.56 299.08C159.56 302.22 158.78 305.26 157.56 309.78C154.06 300.44 151.9 293.62 147.88 287.52C142.6 279.52 139.6 270.2 136.14 261.18C135.32 259 136.9 259.6 138.74 259.18C141.56 258.6 142.2 257.4 141.14 254.76C139.8 251.4 139.84 251.48 143.38 250.62C147.961 249.653 152.412 248.149 156.64 246.14C158 245.44 158.88 245.34 159.78 246.98C161.92 250.82 163.42 249.1 167.78 246.98C172.14 244.86 173.78 248.14 174.96 248.86C180.54 252.3 183.16 257.68 184.74 263.76C186.32 269.84 188.46 275.76 188.92 282.02C189.28 287.36 184.74 302.36 183.54 307.64C183.26 308.88 182.68 309.18 181.54 309.12C171.7 308.56 160.84 310.98 159.66 310.36H159.84ZM157.62 368.76C157.46 369.56 156.92 369.74 156.32 369.92C147.142 373.235 137.51 375.123 127.76 375.52C126.42 375.52 124.42 376.4 123.64 375C122.86 373.6 124.1 372.22 124.9 371C128.22 366.04 135.02 362.52 140.48 360.16C145.26 358.16 145.14 357.98 145.78 358.62C150.12 362.92 152.62 363.18 157.64 360C157.92 359.82 158.22 359.66 158.84 359.32C158.742 362.51 158.272 365.678 157.44 368.76H157.62ZM166.6 336.64C163.54 343.28 160.6 349.98 157.96 356.84C157.256 357.829 156.343 358.65 155.285 359.244C154.227 359.839 153.05 360.193 151.84 360.28C150.267 360 148.82 359.239 147.7 358.1C147.26 357.72 147.46 357.24 147.6 356.74C151.84 342.16 155.96 327.54 162 313.58C162.22 313.1 162.22 312.56 163.02 312.5C167.956 312.103 172.911 311.996 177.86 312.18C178.76 312.18 179.22 312.42 178.52 313.4C173.26 320.58 170 328.72 166.42 336.64H166.6ZM212.6 333.22C214.42 331.82 218.86 333.5 219.14 335.76C219.42 338.02 219.98 344.46 219.98 347.76C220.098 351.327 219.563 354.886 218.4 358.26C218.201 358.891 217.87 359.473 217.428 359.966C216.987 360.459 216.445 360.852 215.84 361.12C209.654 363.659 203.046 365.016 196.36 365.12C194.76 365.12 192.82 365.12 192.14 363.42C191.46 361.72 192.72 360.22 193.9 359.02C194.996 357.864 196.232 356.849 197.58 356C202.22 353.4 202.92 348.12 204.06 342.36C204.083 341.987 204.238 341.634 204.499 341.366C204.759 341.098 205.108 340.933 205.48 340.9C212.24 339.36 211.64 333.84 212.42 333.22H212.6ZM204.82 331.74C208.36 334.58 211.06 332.3 209.96 335.2C209.579 336.228 208.935 337.138 208.093 337.839C207.251 338.541 206.24 339.01 205.16 339.2C195.32 336 184.84 332.94 176 323.4C175.647 323.14 175.408 322.753 175.333 322.32C175.259 321.888 175.354 321.444 175.6 321.08C176.98 318.32 178.56 315.7 180.18 313.08C180.38 312.758 180.658 312.491 180.988 312.303C181.318 312.115 181.689 312.013 182.068 312.005C182.448 311.997 182.823 312.084 183.16 312.257C183.498 312.431 183.786 312.686 184 313C189.6 320.6 197.36 326 204.64 331.74H204.82ZM193.52 287.3C192.8 295.64 189.12 305.3 188.48 307.52C188.452 307.777 188.37 308.025 188.241 308.249C188.111 308.473 187.936 308.667 187.727 308.82C187.519 308.972 187.28 309.08 187.027 309.135C186.775 309.19 186.513 309.192 186.26 309.14C184.82 309.02 184.12 309.14 184.58 307.14C187.7 293.36 191.46 285.72 188.74 275.14C187.275 268.533 185.268 262.058 182.74 255.78C184.46 256.48 184.74 257.98 185.26 259.02C190.32 267.68 194.26 276.86 193.34 287.3H193.52ZM210.84 260.96C210.58 262.62 210.6 261.88 200.56 259.54C198.296 259.16 195.984 259.16 193.72 259.54C189.72 259.96 188.94 258.5 184.74 255.12C181.18 252.24 177.58 249.38 174.26 246.16C173.12 245.04 171.96 243.38 169.72 243.66C168.5 243.82 168.16 242.6 167.9 241.52C166.221 234.969 165.176 228.271 164.78 221.52C164.58 216.48 164.2 216.36 168.04 217.12C169.224 217.459 170.448 217.641 171.68 217.66C173.724 217.766 175.717 218.339 177.505 219.334C179.294 220.329 180.831 221.72 182 223.4C184 225.9 186.7 229.2 188.5 231.7C190.132 234.182 192.333 236.239 194.92 237.7C199.92 240.3 201.62 237.48 207.5 242.6C214.16 248.42 212.54 249.36 210.66 260.96H210.84ZM240.04 251.72C240.483 252.029 240.892 252.384 241.26 252.78C241.43 253.009 241.51 253.293 241.484 253.577C241.458 253.861 241.329 254.125 241.12 254.32C240.28 255.16 239.4 255.92 238.5 256.7C237.6 257.48 237.24 256.52 237.42 256.22C239.7 251.24 239.36 252 239.86 251.72H240.04Z" fill="#471280"/>
<path d="M374.46 247.58C375.36 247.46 376.28 248.36 376.9 247.36C378.9 244.3 374 241.76 370.9 238.5C368.18 235.6 364.5 233.2 365.24 228.36C362.5 216.18 359.8 204 356 192C352.14 179.68 349.34 167.06 345.12 154.84C344.799 153.915 344.657 152.938 344.7 151.96C344.926 147.872 343.541 143.858 340.84 140.78C335.641 134.422 329.767 128.648 323.32 123.56C318.14 119.24 318.02 116.72 314.26 112.1C313.961 111.815 313.781 111.427 313.759 111.014C313.737 110.601 313.873 110.196 314.14 109.88C320.14 100.64 325.04 91.74 327.76 81.74C327.918 81.235 327.999 80.7091 328 80.18C327.995 80.0257 327.933 79.8788 327.826 79.7678C327.719 79.6569 327.574 79.5899 327.42 79.58C327.267 79.5626 327.113 79.6048 326.99 79.6979C326.867 79.791 326.785 79.9278 326.76 80.08C326.5 81.2772 326.152 82.4537 325.72 83.6C321.96 94.96 315.24 104.26 309.72 113.6C309.5 114 309.04 114.48 309.58 114.9C310.12 115.32 310.62 114.9 311 114.46C311.194 114.277 311.362 114.068 311.5 113.84C312.4 112.16 313 112.72 313.92 113.98C315.78 116.88 319.06 121.98 319.06 125.78C319.06 126.3 319.16 127 320.02 126.84C320.88 126.68 320.9 125.88 320.92 125.16C320.94 124.44 320.32 124.02 320.92 123.4C326.248 127.682 331.199 132.413 335.72 137.54C340.64 143.26 342.68 145.76 342.78 149.54C342.94 156.46 344.02 155.8 345.78 162.06C354.22 192.06 358.46 206.28 361.78 222.54C361.988 223.083 362 223.682 361.814 224.234C361.628 224.785 361.255 225.254 360.76 225.56C357.54 227.82 354.44 230.2 351.22 232.44C346.708 235.49 342.399 238.831 338.32 242.44C337.72 243 336.48 243.66 337.26 244.58C338.04 245.5 338.44 244.58 340.52 242.98C344.06 240.22 342.88 240.98 343.3 240.74C345.84 238.74 343.74 243.98 349.64 254.38C350.599 256.162 351.389 258.03 352 259.96C352.269 260.554 352.3 261.229 352.089 261.846C351.877 262.463 351.437 262.976 350.86 263.28C348.371 264.844 345.986 266.567 343.72 268.44C335.34 276.62 320.42 286.88 311.92 293.42C307.56 296.8 298.88 293.64 290.66 293.42C269.4 292.84 260.18 285.92 253.72 285.7C253.12 285.7 252.3 285.24 252.08 286.02C251.86 286.8 252.86 287.04 253.46 287.22C254.44 287.54 255.46 287.62 256.48 287.94C263.16 290.592 270.078 292.601 277.14 293.94C278.74 294.18 278.54 295.22 278.32 296.24C275.16 311.42 271.56 322.74 269.46 341.82C268.42 351.14 262.16 346.7 238.26 370.34C237.541 371.051 236.934 371.867 236.46 372.76C235.06 375.4 234.46 377.7 237.42 377.8C247.04 378.2 252.7 375.66 259.84 374.1C270.52 371.76 281.42 370.42 291.84 366.62C296.14 365.04 296.24 365.3 296.6 360.62C296.75 359.652 296.75 358.668 296.6 357.7C296.08 355.86 296.6 355.04 298.6 355C299.163 355.009 299.709 354.81 300.133 354.441C300.558 354.072 300.831 353.558 300.9 353C306.14 332.12 307.9 327.36 314.46 307.52C333.1 335.8 328.18 330.14 338.46 346.64C339.44 348.22 338.24 348.08 328.98 356.94C324.89 360.446 321.225 364.42 318.06 368.78C317.06 370.32 315.9 371.94 317.14 373.78C318.34 375.46 320.26 375.22 322.06 375.14C323.86 375.06 335.12 371.42 335.94 371.14C346.26 368 355.5 362.24 365.84 359.14C368.283 358.235 370.496 356.801 372.32 354.94C372.898 354.461 373.343 353.842 373.613 353.141C373.882 352.441 373.968 351.683 373.86 350.94C373.776 349.328 373.48 347.734 372.98 346.2C370.5 339.24 368.36 332.2 365.48 325.32C360.64 314 356.72 302.32 351 291.32C348.2 286 345.18 280.82 342.24 275.56C342.02 275.16 341.9 274.54 341.22 274.82C340.54 275.1 340.92 275.62 341.1 276.04C341.52 277 341.94 278.04 342.42 278.88C357.36 306.44 354.62 305.82 362.02 322.18C362.86 324.04 364.86 326 364.52 327.54C364.18 329.08 361.66 330.26 360.08 331.54C353.918 336.808 347.446 341.704 340.7 346.2C339.626 344.919 338.675 343.539 337.86 342.08C331.515 330.169 324.338 318.72 316.38 307.82C313.66 304.14 316.74 302.44 319 294.02C319.605 291.263 321.208 288.827 323.5 287.18C333.08 280.48 342.04 273.02 350.92 265.42C353.62 263.12 355.44 261.42 353.36 258.08C355.22 258.9 357.76 259.22 358.14 255.7C359.524 257.529 361.07 259.23 362.76 260.78C363.251 261.236 363.849 261.561 364.499 261.726C365.149 261.89 365.83 261.889 366.479 261.722C367.128 261.554 367.725 261.227 368.214 260.768C368.704 260.31 369.07 259.737 369.28 259.1C372.44 260.8 375.02 258.86 374.28 255.6C377.12 256.62 378.38 255.6 378.28 252.78C378 251.3 376.64 250 374.46 247.58ZM343.2 347.24C363.9 334.06 364.7 328.32 366 332.46C370.52 346.74 371.76 349.46 371.58 351.6C371.545 352.326 371.268 353.02 370.793 353.571C370.318 354.122 369.673 354.498 368.96 354.64C364.4 356.04 350.96 365.16 326.54 372.42C324.54 373.04 319.5 374.74 318.44 372.88C317.94 372.02 318.56 371.26 319 370.58C323.78 363.1 334.1 355.4 339.84 348.84C340.72 347.86 342.12 348 343.2 347.24ZM294.52 363.1C294.74 363.72 294.04 363.92 293.48 364.12C283.992 367.451 274.208 369.869 264.26 371.34C255.7 372.64 250.4 375.92 240.1 376.12C239.3 376.12 237.86 376.76 237.66 375.7C237.48 374.98 238.28 374.22 238.66 373.56C240.002 371.502 241.686 369.69 243.64 368.2C250.564 362.093 257.807 356.358 265.34 351.02C265.96 350.6 266.66 350.26 267.34 349.82C268.278 349.105 269.433 348.733 270.612 348.765C271.791 348.798 272.923 349.234 273.82 350C279.648 353.79 286.469 355.767 293.42 355.68C297.26 355.64 293.26 359.74 294.52 363.1ZM299.44 351.6C299.12 352.94 298.66 353.4 297.34 353.6C289.34 354.72 281.64 352.22 274.52 348.38C273.161 347.795 272.066 346.727 271.445 345.384C270.825 344.04 270.724 342.514 271.16 341.1C272.9 331.1 274.5 320.86 276.82 310.88C280.5 294.88 279.4 294.36 281.22 294.6C288.42 295.52 295.7 295.6 302.9 296.82C304.26 297.04 304.18 297.42 303.86 298.54C301.04 308.28 297.58 319.2 292.36 333.76C290.36 339.36 288.72 345.12 286.36 350.66C286.318 350.772 286.32 350.895 286.364 351.006C286.408 351.117 286.492 351.208 286.6 351.26C286.71 351.311 286.834 351.318 286.949 351.281C287.064 351.244 287.161 351.165 287.22 351.06C288.217 349.015 289.014 346.878 289.6 344.68C294 330.68 293.6 334.8 304.86 298.68C305.4 296.96 305.42 296.92 307.3 297.2C308.12 297.2 294.72 331.32 289.14 351.36C289.1 351.477 289.108 351.604 289.163 351.715C289.217 351.826 289.313 351.91 289.43 351.95C289.547 351.99 289.674 351.982 289.785 351.927C289.896 351.873 289.98 351.777 290.02 351.66C290.893 349.161 291.634 346.617 292.24 344.04C293.6 338.96 302.96 312.88 307.82 298.8C307.966 298.268 308.27 297.792 308.691 297.435C309.112 297.078 309.631 296.857 310.18 296.8C312.74 296.16 314.28 294.5 318.04 291.94C311.52 310.96 303.26 334.82 299.44 351.6ZM376.18 254.2C375.12 255.22 374.3 253.38 373.48 252.72C370.82 250.6 369.48 248 368.32 249.12C367.7 249.72 368.32 250.28 368.56 250.8C369.908 252.494 371.087 254.316 372.08 256.24C372.36 256.86 373.08 257.62 372.08 258.24C371.08 258.86 370.64 258.24 370.08 257.64C367.78 255.288 365.636 252.79 363.66 250.16C363.22 249.56 362.74 248.6 361.88 249.24C360.34 250.4 363.24 251.24 366.58 258.38C366.82 258.9 367.38 259.5 366.88 260.1C366.38 260.7 365.7 260.42 365.08 260.42C362.66 260.42 358.8 253.58 355.56 249.58C355.16 249.12 354.7 248.44 354.02 248.82C353.34 249.2 353.56 250.04 353.84 250.68C355.22 253.8 357.66 257.44 354.06 256.52C353.208 256.217 352.496 255.612 352.06 254.82C349.279 250.212 347.253 245.188 346.06 239.94C345.82 239.06 346.22 238.66 346.8 238.22C350.96 235.04 355.42 232.22 359.42 228.86C361.6 226.86 358.98 231.32 375.6 245.3C374.351 245.194 373.161 244.72 372.18 243.94C371.6 243.62 370.98 243.4 370.44 243.94C369.9 244.48 370.28 245.12 370.6 245.64C373.78 250.76 377.76 252.68 376.18 254.2Z" fill="#471280"/>
<path d="M53.58 161.78C52.98 163.06 52.56 164.24 53.68 165.26C54.32 165.88 55.44 165.86 54.86 164.54C54.7367 164.216 54.6871 163.868 54.7148 163.522C54.7424 163.176 54.8467 162.841 55.02 162.54C58.7597 153.943 64.0476 146.106 70.62 139.42C79.1996 130.588 88.8317 122.843 99.3 116.36C101.486 114.856 104.005 113.909 106.64 113.6C113.309 112.935 120.028 114.198 126 117.24C132.362 120.267 138.516 123.715 144.42 127.56C151.6 132.46 162.54 141.9 164.62 150.38C165.4 153.54 166.62 157.98 166.96 158.86C167.3 159.74 167.36 160.32 168.3 160.08C169.24 159.84 169.12 159.08 168.96 158.38C167.16 150.84 164.96 143.52 159.08 137.9C153.68 132.68 148.52 126.36 128.6 116.84C123.58 114.46 118.6 111.72 112.84 111.54C111.78 111.54 111.64 110.86 111.64 110C111.64 108.12 111.64 106.22 111.64 104.34C111.64 99 112.38 95.06 108.56 95.44C107.22 95.58 106.96 96.5 106.96 97.7C106.96 101.82 106.82 105.94 106.96 110.06C106.96 112.78 104.54 110.94 100.38 113.58C92.5147 118.385 85.0922 123.88 78.2 130C62.32 144.54 58.98 150.28 53.58 161.78ZM108.34 108.46C108.34 107.66 108.14 97.5 109.12 97.42C109.78 97.42 109.78 98.02 109.84 98.46C110.13 101.787 110.13 105.133 109.84 108.46C109.84 109.44 110.64 111.32 109.02 111.3C107.4 111.28 108.46 109.44 108.34 108.46Z" fill="#471280"/>
<path d="M103.08 368.58C97.3027 367.674 91.4675 367.186 85.62 367.12C68.02 366.32 65.82 361.12 53.02 362.24C44.68 362.9 36.84 365.74 28.88 368.06C24.5 369.36 21 372.82 16.28 373.5C15.0396 373.712 13.8348 374.096 12.7 374.64C11.52 375.14 10.02 375.46 9.86 377.1C9.7 378.74 10.9 379.62 12.1 380.36C24.1 387.86 36.26 380.94 55.9 385.02C64.7479 386.931 73.7684 387.929 82.82 388C88.802 387.956 94.7282 386.846 100.32 384.72C101.5 384.28 102.7 383.7 102.8 382.2C102.9 380.7 101.82 380.2 100.8 379.42C96.42 376.16 95.38 375.96 95.56 375.12C95.74 374.28 96.36 374.66 96.8 374.56C98.8 374.06 101 374.42 103.06 374.1C104.58 373.88 106.66 373.92 106.9 371.92C107.14 369.92 105 368.88 103.08 368.58ZM48.8 375.26C48.26 379.38 49.4 383.26 46.18 382.56C32.32 381.3 23.16 385.62 12.9 379.58C11.98 379.06 10.9 378.44 10.9 377.32C10.9 376.2 12.26 375.84 13.22 375.48C17.82 373.8 21.58 373.66 25.22 370.96C26.2928 370.168 27.5084 369.591 28.8 369.26C35.24 367.46 41.62 365.54 48.14 364.06C49.94 363.66 49.78 364.26 49.68 365.66C49.54 368.76 49.2 372.16 48.8 375.26ZM54.52 382.34C54.52 383.06 54.3 383.28 53.56 383.34C51.12 383.52 50.24 382.76 50.24 380.34C50.24 371.06 51.1 369.66 51.06 364.52C51.06 362.9 52.9 363.66 53.88 363.3C54.86 362.94 55.18 363.56 55.16 364.4C55.04 371.26 54.72 376.58 54.52 382.34ZM104.94 372.34C103.901 372.737 102.792 372.921 101.68 372.88C100 373.04 98.34 373.24 96.66 373.36C95.62 373.36 94.66 373.62 94.3 374.7C93.94 375.78 94.88 376.38 95.56 376.94C100.26 380.72 101.56 380.62 101.44 381.98C101.32 383.34 100.02 383.46 99.08 383.76C94.6781 385.311 90.0795 386.233 85.42 386.5C75.85 386.729 66.2842 385.891 56.9 384C55.84 383.8 55.8 383.46 55.86 382.14C56.16 376.14 56.46 370.26 56.36 364.26C56.36 363.04 56.92 362.98 57.6 363.1C59.2 363.36 61.5 363.7 63.08 364C63.28 364 74.88 367.7 78.58 367.84C86.16 368.16 93.72 368.92 101.28 369.52C103.72 369.68 107.22 371.14 104.94 372.34Z" fill="#471280"/>
<path d="M276.42 140C276.42 140.92 286.9 244.44 287 247.86C287.013 248.353 287.222 248.821 287.58 249.16C290.201 251.77 293.068 254.121 296.14 256.18C296.34 256.3 297.14 256.64 297.3 256.48C300.94 252.82 306.76 255.64 306.18 251.5C304.46 239.82 304.5 231.5 301.72 209.84C301.48 207.84 290.4 131.34 289.98 129.2C289.84 128.56 289.98 127.88 289.18 127.56C289.007 127.71 288.886 127.91 288.832 128.132C288.778 128.354 288.795 128.588 288.88 128.8C288.88 129 290.16 135.28 290.16 135.9C300.16 207.14 300.16 199.02 304.46 248.18C304.8 251.96 304.84 251.96 301.14 253.02C299.14 253.54 297.34 256.22 292.58 251.8C290.24 249.62 287.82 247.8 288 244.22C288 244 277.76 141.96 277.52 139.1C277.2 135.66 278.92 136.12 284.26 130.58C285.5 129.28 284.26 129.36 283.8 129.7C281.5 131.7 279.2 133.56 276.92 135.52C275.68 136.48 276.22 138.1 276.42 140Z" fill="#471280"/>
<path d="M298.48 116.48C298.98 115.82 299.62 115.04 299.16 114.04C299 114.04 298.82 114.04 298.74 114.04C295.928 117.207 292.872 120.15 289.6 122.84C283.494 127.694 275.777 130.059 268 129.46C262 129.08 258.14 127.8 254 121C259.46 120.74 260.7 119.76 262 115.4C262.74 112.9 261.46 109.26 266 108.46C266.44 108.46 267.36 108.82 267.18 107.86C267.095 107.549 266.894 107.283 266.619 107.115C266.344 106.948 266.015 106.892 265.7 106.96C264.586 107.188 263.518 107.601 262.54 108.18C262.2 105.26 262.06 103.3 260.34 103.44C257.002 103.918 253.7 104.626 250.46 105.56C246.82 106.4 245.54 105.76 245.9 100.52C245.9 100.04 245.9 99.68 245.14 99.74C244.38 99.8 244.46 100.28 244.44 100.84C244.44 104.08 245.46 105.64 245.1 107.28C244.521 106.913 244.037 106.413 243.689 105.822C243.342 105.23 243.14 104.565 243.1 103.88C242.756 101.859 242.609 99.8094 242.66 97.76C242.9 89.6 246.84 88.38 245.26 87.16C243.06 85.4 238.7 101.28 242.68 106.64C243.86 108.2 244.36 107.66 244.88 109.78C246.6 116.74 249.82 117.78 251.66 120.34C253.06 122.16 255.94 128.7 263.46 130.2C266.893 130.851 270.39 131.093 273.88 130.92C284.58 130.5 292.2 124.68 298.48 116.48ZM252.16 116.9C249.02 109.38 246.38 107.94 249.16 107.38C259.98 105.24 260.54 104.3 260.54 106.12V110.5C260.92 114.7 259.94 119.48 255.76 119.42C254.965 119.46 254.18 119.234 253.528 118.777C252.876 118.321 252.395 117.66 252.16 116.9Z" fill="#471280"/>
<path d="M287.68 97.54C288.16 97.98 288.82 98.22 288.48 99.2C288.14 100.18 287.48 99.98 286.82 99.98C285.485 99.9154 284.146 99.969 282.82 100.14C282.145 100.305 281.436 100.261 280.786 100.014C280.136 99.7681 279.576 99.3307 279.18 98.76C276.5 95.64 273.68 92.62 270.9 89.6C270.34 88.98 269.76 88.3 268.72 88.9C271.5 92.22 274.34 95.46 276.98 98.9C278.98 101.34 280.98 102.62 283.94 101.92C284.978 101.757 286.031 101.703 287.08 101.76C287.56 101.76 287.98 101.76 288.12 102.44C288.405 104.501 287.945 106.596 286.823 108.349C285.701 110.101 283.991 111.396 282 112C279.315 112.552 276.52 112.118 274.129 110.777C271.738 109.437 269.91 107.279 268.98 104.7C268.6 103.42 268.8 102.52 270.44 102.46C272.08 102.4 274.2 102.24 276.06 102.08C276.58 102.08 277.42 102.08 277.42 101.44C277.42 100.8 276.48 100.68 275.92 100.7C273.8 100.7 271.4 101.04 271.16 101.08C269.581 101.272 268.026 101.627 266.52 102.14C266.14 102.38 265.84 102.82 266.52 102.96C267.58 103.22 267.38 103.88 267.54 104.44C268.08 106.737 269.265 108.833 270.955 110.48C272.645 112.127 274.77 113.258 277.08 113.74C281.88 114.92 287.88 112.62 289.26 107.5C289.92 105 289.5 101.2 290.58 100.64C291.16 100.36 291.52 101.06 291.9 101.42C293.424 103.246 295.141 104.902 297.02 106.36C301.52 109.14 300.68 114.16 301.02 116.36C301.02 116.7 300.64 117.3 301.42 117.26C301.88 117.26 301.98 116.86 302 116.52C302.3 112.92 302.24 109.32 299.5 106.52C292.588 99.1958 284.896 92.6502 276.56 87C269.673 82.4805 262.374 78.6233 254.76 75.48C254.22 75.26 253.7 74.72 253.4 75.48C253.1 76.24 253.88 76.18 254.32 76.38C266.46 82.46 276.42 87.48 287.68 97.54Z" fill="#471280"/>
<path d="M132.7 258.96C131.56 258.18 132.34 259.84 123.42 270.06C119.12 275 116.9 278.06 111.68 273.94C109.68 272.38 105.26 265.42 103.68 256.46C103.68 255.96 103.82 254.94 102.9 255.08C101.98 255.22 102.52 256 102.54 256.92C104.14 269.06 112.54 283.42 121.32 274.92C122.86 273.44 123.7 271.54 125.14 270.04C127.748 267.22 130.11 264.182 132.2 260.96C132.66 260.34 133.58 259.54 132.7 258.96Z" fill="#471280"/>
<path d="M157.62 152C158 152.56 158.26 154 159.18 153.38C160.1 152.76 158.92 151.92 158.58 151.22C153.591 144.052 147.77 137.499 141.24 131.7C133.928 125.333 125.812 119.954 117.1 115.7C116.68 115.5 116.28 115.08 115.58 115.56C117.54 118.14 139.5 125.62 157.62 152Z" fill="#471280"/>
<path d="M272.42 224.46C271.816 223.852 271.145 223.316 270.42 222.86C269.998 223.076 269.596 223.33 269.22 223.62C260.24 231.62 261.46 230.88 258.92 233.04C254.92 236.46 255.28 234.64 257.42 241.7C257.8 242.96 258.38 242.92 259.16 242.08C263.314 237.179 267.82 232.587 272.64 228.34C274.28 226.98 274 226 272.42 224.46ZM271.16 227.92C266.767 231.787 262.65 235.957 258.84 240.4C256.38 234.82 256.46 237.48 268.98 225.38C270.1 224.28 270.72 224.62 271.66 225.6C272.6 226.58 272 227.28 271.16 228V227.92Z" fill="#471280"/>
<path d="M316 227.26C319.48 229.26 322.28 230.44 326.8 232.4C329.04 233.4 329.24 233.24 329.74 230.82C329.88 230.14 329.6 228.64 331.2 229.64C331.66 229.94 332.18 229.36 331.66 228.64C329.38 225.34 321.34 223.48 316.46 220.74C315.22 220.04 313.62 219.02 313.12 220.1C312.851 221.165 312.73 222.262 312.76 223.36C312.66 225.64 313.58 226 316 227.26ZM313.68 221.54C313.68 220.86 314.1 220.7 314.66 221.04C318.96 223.92 324.08 225.04 328.54 227.64C329.14 227.98 330.08 228.34 329.3 228.8C328.52 229.26 329.16 231.58 327.52 231.24C325.88 230.9 317.2 226.56 315.4 225.62C313.6 224.68 313.54 223.18 313.6 221.54H313.68Z" fill="#471280"/>
<path d="M272.74 126.9C278.02 128.3 278.74 127.14 279 121.58C279 117.96 278.6 117.32 275.64 118.02C272.742 118.995 269.921 120.185 267.2 121.58C266.28 121.96 266.7 122.56 267 123.08C267.654 124.067 268.498 124.914 269.484 125.57C270.47 126.226 271.577 126.678 272.74 126.9ZM275.5 119.74C276.62 119.44 277.24 119.44 277.26 121C277.26 126.16 276.58 126.72 271.8 124.8C270.521 124.325 269.351 123.597 268.36 122.66C270.646 121.471 273.036 120.494 275.5 119.74Z" fill="#471280"/>
<path d="M110.1 115.86C116.82 128.48 118.1 142.72 121.84 156.2C121.14 142.46 114.12 118.72 110.1 115.86Z" fill="#471280"/>
<path d="M251.74 77.32C251.808 77.2349 251.845 77.1291 251.845 77.02C251.845 76.9109 251.808 76.8051 251.74 76.72C251.679 76.6328 251.591 76.5692 251.489 76.5401C251.386 76.5109 251.277 76.518 251.18 76.56C250.433 76.8821 249.754 77.3437 249.18 77.92C243.623 83.3519 239.174 89.8115 236.08 96.94C235.855 97.45 235.7 97.9883 235.62 98.54C235.573 98.6538 235.553 98.7769 235.561 98.8998C235.569 99.0227 235.606 99.142 235.668 99.2485C235.73 99.3549 235.815 99.4457 235.918 99.5136C236.021 99.5815 236.138 99.6247 236.26 99.64C236.78 99.64 236.96 99.38 237.06 98.9C237.913 96.1702 239.203 93.5969 240.88 91.28C243.848 86.1543 247.502 81.4576 251.74 77.32Z" fill="#471280"/>
<path d="M221.58 242.68C224.078 236.407 227.228 230.414 230.98 224.8C231.24 224.38 232 223.92 231.32 223.4C230.64 222.88 230.24 223.58 229.84 224.02C225.981 229.144 222.864 234.786 220.58 240.78C219.56 243.56 220.48 245.16 221.58 242.68Z" fill="#471280"/>
<path d="M256.9 85.08C256.74 84.6 256.9 83.8 256.04 84C255.18 84.2 255.78 84.78 255.88 85.24C257.059 91.2987 259.329 97.0928 262.58 102.34C263.8 104.34 266.7 105.52 264.16 102C260.84 97.38 258.48 90.12 256.9 85.08Z" fill="#471280"/>
<path d="M288.46 171.46C286.86 170.24 285.58 170.5 284.92 172.34C284.411 173.564 284.094 174.859 283.98 176.18C284.18 177.86 284.22 180.18 286.92 180.64C289.62 181.1 292.78 174.76 288.46 171.46ZM287.02 179.3C285.52 179.04 285.24 177.66 285.32 176.14C285.42 174.28 285.32 172.32 286.86 172.14C288.4 171.96 288.76 173.72 289.18 175C289.66 176.76 288.54 179.52 287.02 179.3Z" fill="#471280"/>
<path d="M286.58 143.8C285.72 142.42 284.46 142.64 283.22 142.4C281.98 142.16 282.2 143.66 281.88 144.4C281.693 145.14 281.586 145.897 281.56 146.66C281.391 147.776 281.64 148.916 282.26 149.86C285.08 153.82 288.82 147.4 286.58 143.8ZM284 149.7C282.54 149.7 282.82 147.94 282.72 146.74C282.724 146.328 282.778 145.919 282.88 145.52C283.14 144.84 282.6 143.52 283.86 143.52C285.12 143.52 285.4 144.58 285.7 145.52C285.78 145.929 285.78 146.351 285.7 146.76C285.66 148 285.48 149.74 284 149.7Z" fill="#471280"/>
<path d="M290.26 205.66C293.38 206.44 293.7 211.34 291.06 212C289.54 212.34 289.2 211.08 288.86 209.58C288.52 208.08 288.86 207.4 289.98 204.04C288.872 205.014 288.122 206.331 287.85 207.781C287.578 209.231 287.8 210.731 288.48 212.04C288.675 212.349 288.93 212.617 289.229 212.827C289.529 213.037 289.867 213.185 290.224 213.263C290.582 213.341 290.951 213.348 291.311 213.282C291.67 213.216 292.014 213.08 292.32 212.88C292.838 212.421 293.256 211.86 293.546 211.232C293.836 210.604 293.992 209.923 294.006 209.231C294.019 208.539 293.888 207.852 293.622 207.213C293.356 206.574 292.96 205.998 292.46 205.52C291.6 204.8 290.96 204.62 290.26 205.66Z" fill="#471280"/>
<path d="M292.12 240.6C292.12 241.78 293.48 244.6 295 244.22C297 243.84 297.1 242.06 297.24 240.04C297.24 238.34 296.3 235.68 294.9 235.6C293.5 235.52 292 238.84 292.12 240.6ZM293.7 237.68C293.74 237.507 293.833 237.351 293.965 237.233C294.098 237.114 294.264 237.04 294.44 237.02C294.96 236.92 295.18 237.3 295.36 237.68C295.944 238.719 296.116 239.94 295.84 241.1C295.84 241.84 295.58 242.66 294.86 242.76C294.14 242.86 293.96 242.3 293.7 241.76C293.28 240.432 293.28 239.008 293.7 237.68Z" fill="#471280"/>
<path d="M273.66 103.48C270.72 103.48 273.38 109.34 275.16 109.26C276.46 109.26 276.34 108.14 276.44 107.4C276.42 105.72 274.82 103.48 273.66 103.48Z" fill="#471280"/>
<path d="M265.3 111.8C265.3 111.44 265.54 110.88 264.92 110.82C264.3 110.76 264.18 111.16 264.12 111.6C264.02 112.5 263.98 113.4 263.9 114.28C263.78 115.48 263.62 116.8 265.06 117.26C265.745 117.482 266.486 117.459 267.157 117.197C267.828 116.934 268.387 116.448 268.74 115.82C268.517 115.694 268.266 115.627 268.01 115.627C267.754 115.627 267.503 115.694 267.28 115.82C264.4 116.94 265.22 114.28 265.3 111.8Z" fill="#471280"/>
<path d="M123.4 238C123.88 236.64 118.56 224.84 116.78 215.12C115.14 206.22 112.78 197.38 114.78 187.56C114.001 188.158 113.478 189.031 113.32 190C112.904 192.833 112.797 195.703 113 198.56C114.553 211.829 117.786 224.846 122.62 237.3C122.661 237.484 122.758 237.65 122.898 237.775C123.037 237.901 123.213 237.979 123.4 238Z" fill="#471280"/>
<path d="M136.94 188.14C137.8 184.3 137.66 182.74 136.54 181.8C135.6 187.8 135.44 193.8 132.54 199.24C136.14 196.5 136 192.4 136.94 188.14Z" fill="#471280"/>
<path d="M123.5 202.64C127.002 198.916 129.494 194.358 130.74 189.4C128.093 193.682 125.676 198.101 123.5 202.64Z" fill="#471280"/>
<path d="M156.9 199.64C157.1 200.86 155.68 201.12 154.9 201.64C154.674 201.855 154.46 202.082 154.26 202.32C154.948 202.583 155.707 202.596 156.405 202.359C157.102 202.122 157.695 201.648 158.08 201.02C158.369 200.705 158.539 200.299 158.561 199.872C158.582 199.445 158.455 199.023 158.2 198.68C157.76 198.16 157.201 197.752 156.572 197.491C155.942 197.23 155.259 197.124 154.58 197.18C154.404 197.168 154.229 197.223 154.092 197.335C153.955 197.446 153.865 197.605 153.84 197.78C153.7 198.88 156.64 198 156.9 199.64Z" fill="#471280"/>
<path d="M138.7 240C137.86 238.46 137.04 236.92 136.1 235.16C135.867 236.145 136.002 237.182 136.481 238.073C136.961 238.965 137.75 239.651 138.7 240Z" fill="#471280"/>
<path d="M174.24 269C174.416 268.742 174.524 268.444 174.555 268.133C174.587 267.822 174.54 267.508 174.42 267.22C173.002 262.054 171.292 256.973 169.3 252C168.84 251.08 168.42 250 166.96 250.6C160.136 252.859 153.49 255.627 147.08 258.88C145.7 259.66 145.5 260.44 146.22 261.92C153.7 277.6 151.36 277.26 156.22 277.4C168.18 276.82 168.54 277.48 174.24 269ZM170.94 270.56C168.72 274.32 165.48 275.34 161.5 275.3C150.42 275.2 156.9 279.1 147.7 261.88C147.14 260.8 147.28 260.4 148.36 259.88C154.133 257.08 160.086 254.668 166.18 252.66C167.58 252.18 167.9 252.88 168.3 253.86C169.72 257.44 170.54 261.22 171.92 264.78C172.265 265.747 172.356 266.786 172.184 267.798C172.012 268.81 171.584 269.761 170.94 270.56Z" fill="#471280"/>
<path d="M390 64.64C389.948 64.6011 389.885 64.58 389.82 64.58C389.755 64.58 389.692 64.6011 389.64 64.64C386.08 66.64 355.94 111.24 355.64 114.78C355.632 114.849 355.649 114.918 355.686 114.976C355.724 115.035 355.78 115.078 355.846 115.099C355.912 115.12 355.984 115.118 356.048 115.093C356.113 115.067 356.166 115.02 356.2 114.96C360.94 108.16 365.52 101.16 369.96 94.38C389.88 64 390.52 65.14 390 64.64Z" fill="#471280"/>
<path d="M354.36 71.72C360.96 59.38 376.9 36.78 377.66 35.86C378.42 34.94 378.86 31.16 376.48 34.56C375.7 35.7 374.38 37.58 372.14 40.74C364.62 51.36 357.52 61.4 352.24 72.92C352.216 72.971 352.207 73.0278 352.213 73.0839C352.22 73.1399 352.243 73.1929 352.278 73.2367C352.314 73.2806 352.361 73.3135 352.414 73.3318C352.468 73.3501 352.525 73.3529 352.58 73.34C352.987 73.2366 353.362 73.0347 353.672 72.7522C353.983 72.4697 354.219 72.1153 354.36 71.72Z" fill="#471280"/>
<path d="M183.58 64C178.46 71.16 173.74 78.76 169.18 86C159.66 101.34 156.6 105.48 155.78 106.72C155.34 107.4 155.78 107.56 156.08 107.32C167 94.04 175.06 78.64 184.08 64.22C184.3 64 183.8 63.72 183.58 64Z" fill="#471280"/>
<path d="M85.46 275.68C84.24 276.06 83.74 277.12 83.22 277.9C63.02 308.52 58.94 314.58 58.42 316.78C58.18 317.8 58.42 319.12 59.48 317.48C67.94 303.48 77.68 290.24 85.82 276.12C85.8533 276.067 85.8691 276.004 85.8652 275.942C85.8612 275.879 85.8377 275.819 85.798 275.771C85.7582 275.722 85.7042 275.687 85.6436 275.671C85.583 275.655 85.5188 275.658 85.46 275.68Z" fill="#471280"/>
<path d="M214.76 100.84C214.71 100.798 214.646 100.774 214.58 100.774C214.514 100.774 214.45 100.798 214.4 100.84C211.88 102.6 191.38 144.26 191.56 147.28C191.572 147.342 191.602 147.4 191.646 147.445C191.691 147.491 191.748 147.522 191.81 147.535C191.872 147.548 191.937 147.542 191.995 147.518C192.054 147.494 192.105 147.453 192.14 147.4C195.62 140.54 199 133.4 202.28 126.64C215.18 99.68 215.16 101.18 214.76 100.84Z" fill="#471280"/>
<path d="M60 252.9C60.58 252.9 60 251.56 72.96 230.64C75.935 225.159 79.2272 219.857 82.82 214.76C82.9685 214.601 83.0477 214.389 83.0402 214.172C83.0327 213.954 82.9391 213.749 82.78 213.6C82.6209 213.451 82.4093 213.372 82.1917 213.38C81.9742 213.387 81.7685 213.481 81.62 213.64C81.1672 214.101 80.7587 214.603 80.4 215.14C58.7 250.88 58.9 251.26 59.74 252.74C59.7609 252.791 59.7973 252.833 59.844 252.862C59.8907 252.891 59.9453 252.904 60 252.9Z" fill="#471280"/>
<path d="M130 315.08L129.38 314.66C129.322 314.609 129.247 314.581 129.17 314.581C129.093 314.581 129.018 314.609 128.96 314.66C120.22 326.9 111.88 339.62 104.86 350.46C104.805 350.516 104.774 350.591 104.774 350.67C104.774 350.749 104.805 350.824 104.86 350.88L105.62 351.38C105.98 351.62 105.62 352.04 118.02 333.38C130.42 314.72 130.32 315.34 130 315.08Z" fill="#471280"/>
<path d="M216.68 191.52L215.96 191.04C215.9 190.993 215.826 190.967 215.75 190.967C215.674 190.967 215.6 190.993 215.54 191.04C211.34 197.28 206.66 203.34 203 209.98C202.951 210.035 202.924 210.106 202.924 210.18C202.924 210.254 202.951 210.325 203 210.38C203.58 210.78 203.62 210.86 203.76 210.86C203.9 210.86 203.5 211.48 210.48 201.1C217.06 191.32 216.78 191.84 216.74 191.64C216.728 191.597 216.707 191.556 216.68 191.52Z" fill="#471280"/>
<path d="M342.38 125.44C341.12 127.76 343.26 133.12 345.9 134.42C345.96 134.443 346.025 134.447 346.088 134.431C346.15 134.416 346.206 134.383 346.249 134.336C346.292 134.288 346.32 134.229 346.329 134.166C346.338 134.102 346.328 134.038 346.3 133.98C344.622 131.879 343.712 129.269 343.72 126.58C345.256 127.776 346.477 129.327 347.28 131.1C347.313 131.158 347.365 131.203 347.427 131.229C347.489 131.254 347.558 131.258 347.623 131.239C347.687 131.221 347.743 131.181 347.783 131.127C347.822 131.073 347.842 131.007 347.84 130.94C348 127.74 343.88 122.58 342.38 125.44Z" fill="#471280"/>
<path d="M285.24 46.72C284.789 46.2694 284.26 45.9036 283.68 45.64C282.46 45 279.86 43.34 279.3 44.78C278.74 46.22 282.44 48.04 283.64 48.78C284.272 49.2698 285.062 49.5116 285.86 49.46C286.24 49.3606 286.569 49.1232 286.784 48.7941C286.998 48.465 287.082 48.0678 287.02 47.68C286.74 47 285.54 47.08 285.24 46.72Z" fill="#471280"/>
<path d="M145.72 108.9C144.5 108.9 143.72 109.74 143.72 111.14C143.72 112.96 146.2 115.62 148 115.4C149.44 115.24 149.48 112.88 148.92 111.56C148.36 110.24 147.02 108.8 145.72 108.9ZM148 113.6C147.46 115.12 144.74 111.82 145.06 110.92C145.72 108.98 148.56 112 148 113.6Z" fill="#471280"/>
<path d="M194 212.68C192.46 213.02 192 214.12 192.84 215.48C193.777 216.868 195.207 217.847 196.84 218.22C196.9 218.241 196.966 218.242 197.026 218.223C197.087 218.204 197.141 218.166 197.178 218.114C197.216 218.063 197.237 218.001 197.237 217.938C197.237 217.874 197.217 217.812 197.18 217.76C195.76 215.76 194.06 215.18 194.34 214.56C194.34 214.34 194.46 214.32 194.84 214.56C194.986 214.579 195.134 214.579 195.28 214.56C196.024 214.64 196.741 214.879 197.383 215.262C198.025 215.646 198.577 216.163 199 216.78C199.029 216.816 199.065 216.846 199.107 216.866C199.148 216.887 199.194 216.899 199.24 216.9C199.287 216.902 199.333 216.892 199.375 216.871C199.417 216.85 199.453 216.819 199.48 216.78C199.662 216.597 199.782 216.361 199.821 216.106C199.861 215.851 199.818 215.59 199.7 215.36C198.988 214.542 198.114 213.881 197.133 213.419C196.151 212.958 195.084 212.706 194 212.68Z" fill="#471280"/>
<path d="M296.16 45.88L295.64 46C294.5 46.26 292.92 46.6 293.28 48.74C293.287 48.8032 293.314 48.8624 293.358 48.9092C293.401 48.9559 293.458 48.9877 293.52 49C294.38 49.12 294.42 48.5 294.6 48.3C295.3 47.54 296.44 47.06 297.16 47.68C297.54 48 297.32 48.24 296.84 48.76C296.61 49.003 296.409 49.2714 296.24 49.56C296.24 49.76 295.4 50.06 295.76 50.82C295.797 50.8846 295.854 50.9353 295.923 50.9642C295.992 50.9931 296.068 50.9986 296.14 50.98C297.84 50.38 299.7 48.5 299.14 47.12C299.028 46.841 298.862 46.5871 298.651 46.3732C298.44 46.1593 298.188 45.9896 297.91 45.8741C297.633 45.7587 297.335 45.6997 297.035 45.7007C296.734 45.7017 296.437 45.7627 296.16 45.88Z" fill="#471280"/>
<path d="M353.48 132.48C353.455 132.536 353.45 132.599 353.464 132.659C353.479 132.719 353.512 132.772 353.56 132.811C353.608 132.849 353.667 132.871 353.728 132.873C353.79 132.874 353.85 132.856 353.9 132.82C354.8 132.36 356.44 132.06 356.5 133C356.56 133.94 354.22 134.58 353 135.28C352.945 135.31 352.901 135.357 352.873 135.414C352.846 135.47 352.838 135.534 352.849 135.596C352.86 135.658 352.89 135.715 352.935 135.759C352.98 135.802 353.038 135.831 353.1 135.84C353.938 135.941 354.788 135.829 355.571 135.514C356.354 135.199 357.045 134.692 357.58 134.04C359.88 131.72 354.3 130 353.48 132.48Z" fill="#471280"/>
<path d="M207.56 214.96C206.5 216.34 205.06 216.96 203.9 218.96C203.87 219.012 203.856 219.071 203.86 219.131C203.864 219.19 203.885 219.247 203.922 219.295C203.958 219.342 204.008 219.377 204.065 219.396C204.121 219.415 204.182 219.416 204.24 219.4C205.918 218.708 207.411 217.632 208.6 216.26C209.6 215.3 208.2 214.16 207.56 214.96Z" fill="#471280"/>
<path d="M158.76 117.38C158.06 118.34 156.48 118.58 155.76 120.16C155.74 120.206 155.732 120.256 155.736 120.306C155.741 120.357 155.757 120.405 155.785 120.446C155.813 120.488 155.851 120.522 155.896 120.546C155.94 120.569 155.99 120.581 156.04 120.58C157.417 120.237 158.683 119.549 159.72 118.58C159.816 118.517 159.897 118.434 159.959 118.337C160.02 118.24 160.059 118.13 160.075 118.017C160.09 117.903 160.08 117.787 160.047 117.677C160.013 117.567 159.956 117.466 159.88 117.38C159.7 117.26 158.98 117.06 158.76 117.38Z" fill="#471280"/>
<path d="M164.62 282.24C162.62 284.52 162.08 287.34 160.8 289.86C160.755 289.926 160.738 290.008 160.753 290.087C160.768 290.165 160.814 290.235 160.88 290.28C160.946 290.325 161.028 290.342 161.107 290.327C161.185 290.312 161.255 290.266 161.3 290.2C163.206 287.996 164.526 285.348 165.14 282.5C165.154 282.435 165.146 282.367 165.117 282.307C165.089 282.247 165.041 282.198 164.981 282.168C164.921 282.138 164.854 282.129 164.788 282.142C164.723 282.155 164.664 282.19 164.62 282.24Z" fill="#471280"/>
<path d="M251.74 110.26C251.576 110.272 251.417 110.324 251.276 110.41C251.135 110.496 251.017 110.614 250.931 110.755C250.845 110.895 250.794 111.054 250.782 111.219C250.769 111.383 250.796 111.548 250.86 111.7C251.318 113.247 252.338 114.567 253.72 115.4C253.831 115.489 253.964 115.547 254.105 115.57C254.245 115.592 254.389 115.577 254.523 115.526C254.656 115.476 254.774 115.392 254.864 115.282C254.955 115.172 255.016 115.04 255.04 114.9C255.52 113.7 253.14 110.22 251.74 110.26Z" fill="#471280"/>
</svg>
