<svg width="400" height="400" viewBox="0 0 400 400" fill="none" xmlns="http://www.w3.org/2000/svg">
<path d="M231.474 16.96C230.562 17.1139 229.712 17.5208 229.02 18.1342C228.328 18.7477 227.822 19.5432 227.56 20.43C226.44 24.766 232.056 28.43 235.96 25.584C240.524 22.238 236.8 16.062 231.474 16.96ZM235.204 23.866C232.884 26.02 228.804 23.93 229.266 21.124C229.39 20.5491 229.676 20.0221 230.092 19.6063C230.508 19.1905 231.035 18.9036 231.61 18.78C234.636 18 237.856 21.4 235.2 23.866H235.204Z" fill="#1D1D1B"/>
<path d="M232.554 20.51C232.341 20.51 232.132 20.5734 231.954 20.692C231.776 20.8107 231.638 20.9794 231.556 21.1767C231.475 21.3741 231.453 21.5912 231.495 21.8007C231.537 22.0102 231.639 22.2026 231.79 22.3537C231.941 22.5047 232.134 22.6076 232.343 22.6493C232.553 22.6909 232.77 22.6695 232.967 22.5878C233.165 22.5061 233.333 22.3676 233.452 22.19C233.571 22.0124 233.634 21.8036 233.634 21.59C233.634 21.4481 233.607 21.3076 233.552 21.1764C233.498 21.0453 233.419 20.9261 233.318 20.8257C233.218 20.7254 233.099 20.6459 232.968 20.5917C232.837 20.5375 232.696 20.5097 232.554 20.51Z" fill="#1D1D1B"/>
<path d="M216.094 106.714C214.921 106.559 213.728 106.766 212.676 107.308C211.623 107.851 210.762 108.702 210.208 109.748C209.654 110.794 209.433 111.985 209.575 113.16C209.717 114.335 210.215 115.439 211.003 116.322C211.79 117.206 212.829 117.828 213.98 118.104C215.131 118.38 216.339 118.297 217.442 117.867C218.545 117.436 219.489 116.679 220.149 115.696C220.809 114.713 221.152 113.552 221.132 112.368C221.197 110.954 220.707 109.571 219.765 108.515C218.824 107.458 217.506 106.812 216.094 106.714Z" fill="#86F2AA"/>
<path d="M324.014 112.8C324.312 114.128 323.64 114.18 322.046 115.098C318.41 117.186 318.346 117.366 317.918 117.078C317.49 116.79 317.052 116.498 316.62 116.212V118.352C316.62 118.533 316.548 118.706 316.421 118.834C316.293 118.962 316.119 119.034 315.938 119.034C315.757 119.034 315.584 118.962 315.456 118.834C315.328 118.706 315.256 118.533 315.256 118.352V114.952C315.257 114.833 315.289 114.715 315.349 114.612C315.408 114.508 315.494 114.422 315.597 114.362C315.7 114.301 315.817 114.269 315.936 114.267C316.056 114.265 316.174 114.295 316.278 114.352C316.95 114.796 317.608 115.24 318.278 115.684C319.732 114.842 321.178 114.012 322.634 113.17C322.503 112.531 322.185 111.945 321.722 111.486C321.426 111.178 321.107 110.892 320.768 110.632C320.616 110.532 320.51 110.375 320.473 110.197C320.435 110.019 320.47 109.833 320.568 109.68C319.677 110.644 318.592 111.409 317.383 111.923C316.175 112.437 314.872 112.689 313.559 112.662C312.246 112.635 310.954 112.331 309.768 111.768C308.581 111.205 307.528 110.398 306.676 109.398C306.592 109.462 306.51 109.529 306.43 109.598C306.449 109.723 306.43 109.851 306.378 109.966C306.325 110.081 306.241 110.178 306.134 110.246C305.22 110.826 304.555 111.727 304.27 112.772L308.628 115.286L310.628 113.954C310.733 113.894 310.851 113.862 310.972 113.862C311.093 113.863 311.211 113.895 311.316 113.956C311.42 114.017 311.506 114.104 311.565 114.209C311.625 114.314 311.656 114.433 311.654 114.554V117.954C311.645 118.129 311.569 118.293 311.442 118.414C311.315 118.534 311.146 118.601 310.971 118.601C310.796 118.601 310.628 118.534 310.501 118.414C310.374 118.293 310.298 118.129 310.288 117.954V115.814C309.046 116.632 308.81 116.966 308.288 116.68C303.3 113.83 303.1 113.838 302.918 113.402C302.323 114.274 301.783 115.182 301.302 116.122C302.85 117.87 304.751 119.27 306.88 120.23C309.008 121.189 311.316 121.686 313.651 121.688C315.986 121.69 318.295 121.197 320.425 120.242C322.556 119.286 324.459 117.889 326.01 116.144C325.513 114.937 324.84 113.811 324.014 112.8Z" fill="#FEE253"/>
<path d="M232.45 213.448L293.994 214.238C294.595 214.243 295.189 214.116 295.734 213.864C296.279 213.612 296.761 213.243 297.146 212.782L315.016 191.236C315.486 190.662 315.789 189.97 315.891 189.235C315.992 188.5 315.889 187.751 315.593 187.071C315.296 186.391 314.818 185.806 314.21 185.381C313.602 184.955 312.889 184.706 312.148 184.66L248.316 180.66L232.45 213.448ZM162.512 177.362C169.203 184.884 175.072 193.099 180.02 201.866C181.029 203.387 181.821 205.041 182.374 206.78C182.509 206.716 182.661 206.696 182.808 206.724C193.388 198.124 208.182 184.43 222.122 184.212C222.034 184.082 221.988 183.929 221.991 183.772C221.993 183.615 222.043 183.463 222.134 183.336C223.11 181.834 224.272 180.462 225.592 179.252L166.12 175.526C165.411 175.49 164.704 175.641 164.071 175.963C163.438 176.285 162.901 176.767 162.512 177.362Z" fill="#FDE992"/>
<path d="M240.028 112.988C240.098 111.573 239.609 110.187 238.666 109.129C237.723 108.072 236.402 107.427 234.988 107.334C233.815 107.179 232.622 107.387 231.57 107.93C230.518 108.472 229.657 109.324 229.103 110.37C228.549 111.416 228.329 112.606 228.471 113.781C228.613 114.957 229.112 116.06 229.899 116.944C230.687 117.827 231.726 118.449 232.877 118.724C234.028 119 235.236 118.917 236.339 118.487C237.441 118.056 238.386 117.299 239.045 116.316C239.705 115.333 240.048 114.172 240.028 112.988ZM121.828 149.128C113.928 140.6 92.7802 135.2 72.5142 142.428C73.2055 144.53 73.9531 146.612 74.7562 148.674C86.2722 141.322 108.742 144.558 121.828 149.128Z" fill="#FEE253"/>
<path d="M228.2 186.98C214.308 181.82 195.85 198.35 185.2 207.128C186.304 207.506 187.315 208.116 188.164 208.916C189.014 209.716 189.683 210.689 190.126 211.768C190.236 211.976 190.261 212.218 190.197 212.443C190.132 212.669 189.982 212.861 189.779 212.978C189.576 213.096 189.335 213.131 189.107 213.075C188.879 213.019 188.682 212.877 188.556 212.678C188.224 212.24 188.108 212.158 188.134 211.746C188.048 211.563 187.946 211.389 187.828 211.224C187.364 210.546 186.771 209.967 186.081 209.521C185.392 209.075 184.62 208.77 183.812 208.624C186.012 210.704 186.594 214.182 186.758 217.192C186.826 218.362 185.006 218.35 184.938 217.192C185.068 214.376 184.079 211.623 182.186 209.534C182.036 209.644 181.856 209.705 181.67 209.709C181.484 209.713 181.302 209.66 181.147 209.557C180.992 209.454 180.872 209.306 180.804 209.134C180.735 208.961 180.722 208.771 180.764 208.59C180.764 208.59 180.798 208.286 180.798 208.068C180.724 207.962 180.677 207.839 180.661 207.71C180.645 207.582 180.661 207.451 180.706 207.33C180.356 206.172 179.839 205.072 179.17 204.064C165.914 180.23 146.17 159.184 119.55 150.314C107.896 146.532 89.0382 143.65 77.6542 149.13C73.5392 151.073 70.2058 154.355 68.2002 158.44C83.4431 161.013 97.8391 167.229 110.164 176.56C136.612 196.264 138.718 230.526 144.656 260.126C148.056 277.086 150.812 309.472 164.426 322.648C168.028 321.859 171.244 319.844 173.526 316.948C172.878 316.8 172.4 316.004 173.05 315.47C175.87 313.074 177.925 309.903 178.961 306.35C179.996 302.797 179.966 299.018 178.874 295.482C178.51 294.368 180.274 293.882 180.626 294.992C181.21 296.841 181.517 298.766 181.536 300.704C182.224 297.466 182.335 294.131 181.866 290.854C177.018 280.082 184.364 271.728 195.05 266.826C194.119 262.747 191.949 259.056 188.838 256.258C178.416 259.544 167.174 259.086 157.054 254.962C155.11 254.247 153.231 253.368 151.436 252.334C151.233 252.21 151.086 252.011 151.028 251.779C150.97 251.548 151.005 251.303 151.125 251.097C151.246 250.892 151.442 250.741 151.673 250.679C151.903 250.617 152.148 250.647 152.356 250.764C153.228 251.267 154.124 251.727 155.042 252.14C165.124 256.941 176.612 257.896 187.348 254.826C204.182 249.494 233.444 230.378 238.21 212.508C241.484 199.266 235.948 189.856 228.2 186.98Z" fill="#FEE253"/>
<path d="M322.978 99.172C322.975 99.0326 322.94 98.8958 322.876 98.772C322.018 97.1178 320.728 95.7269 319.143 94.7471C317.558 93.7672 315.738 93.2351 313.874 93.2072C312.011 93.1793 310.175 93.6567 308.562 94.5886C306.948 95.5206 305.617 96.8722 304.71 98.5C302.81 99.48 302.226 105.264 303.958 105.564C305.348 105.828 306.722 101.996 306.136 99.598C307.208 97.7557 308.866 96.3256 310.846 95.536C312.799 94.8666 314.927 94.917 316.846 95.6784C318.765 96.4397 320.349 97.8617 321.312 99.688C321.343 99.7358 321.377 99.7813 321.414 99.824C321.117 100.861 321.081 101.956 321.308 103.01C321.536 104.065 322.02 105.047 322.718 105.87C324.848 107.458 325.126 100.954 322.978 99.172Z" fill="#AC47F5"/>
<path d="M286.27 50.3201C286.179 50.3705 286.079 50.3998 285.975 50.4059C285.871 50.412 285.768 50.3948 285.672 50.3554C285.576 50.316 285.49 50.2556 285.42 50.1785C285.351 50.1014 285.299 50.0096 285.27 49.9101C284.891 47.6672 283.735 45.6295 282.003 44.1549C280.271 42.6803 278.075 41.8632 275.8 41.8469C273.526 41.8307 271.318 42.6164 269.565 44.0662C267.813 45.5159 266.627 47.5368 266.216 49.7741C266.166 49.9477 266.05 50.0949 265.892 50.1841C265.735 50.2734 265.549 50.2978 265.374 50.2521C265.156 50.1848 264.925 50.1675 264.7 50.2013C264.474 50.2352 264.258 50.3193 264.069 50.4476C263.88 50.5758 263.723 50.7449 263.608 50.9423C263.493 51.1397 263.424 51.3604 263.406 51.5881C263.391 51.8295 263.434 52.0711 263.533 52.2918C263.632 52.5126 263.783 52.7059 263.974 52.8549C264.164 53.0039 264.389 53.1041 264.627 53.1468C264.865 53.1896 265.11 53.1735 265.34 53.1001C265.515 53.0548 265.701 53.0795 265.858 53.1687C266.015 53.2579 266.131 53.4047 266.182 53.5781C268.43 63.8921 283.118 63.2901 285.26 53.4541C285.284 53.3673 285.325 53.2862 285.38 53.2152C285.435 53.1442 285.504 53.0848 285.582 53.0404C285.66 52.996 285.746 52.9675 285.836 52.9565C285.925 52.9454 286.015 52.9521 286.102 52.9761C286.291 53.0765 286.497 53.1387 286.71 53.1593C286.923 53.1799 287.137 53.1583 287.341 53.0959C287.546 53.0335 287.736 52.9315 287.901 52.7956C288.065 52.6597 288.202 52.4927 288.302 52.3041C288.421 52.0216 288.452 51.71 288.391 51.4096C288.331 51.1093 288.181 50.8342 287.962 50.6201C287.743 50.406 287.464 50.2629 287.162 50.2094C286.861 50.1559 286.55 50.1944 286.27 50.3201Z" fill="#9B6868"/>
<path d="M257.676 112.988C257.746 111.573 257.256 110.187 256.314 109.129C255.371 108.072 254.05 107.427 252.636 107.334C251.463 107.179 250.27 107.387 249.218 107.93C248.166 108.472 247.305 109.324 246.751 110.37C246.197 111.416 245.977 112.606 246.119 113.781C246.261 114.957 246.76 116.06 247.547 116.944C248.335 117.827 249.374 118.449 250.525 118.724C251.676 119 252.884 118.917 253.987 118.487C255.089 118.056 256.034 117.299 256.693 116.316C257.353 115.333 257.696 114.172 257.676 112.988Z" fill="#F76559"/>
<path d="M76.2641 129.92C75.9241 131.13 75.8641 129.278 76.4221 139.32C78.1518 138.855 79.9016 138.468 81.6661 138.16C78.9021 136.182 76.9758 133.244 76.2641 129.92ZM128.182 69.0261C127.087 67.7091 125.921 66.4526 124.69 65.2621C121.186 71.2501 114.524 73.1041 113.928 79.3561C113.992 79.5561 115.276 83.7021 115.51 84.7941C127.422 89.1821 129.73 106.906 120.094 114.268C117.434 116.259 114.216 117.365 110.894 117.43C112.852 118.88 112.816 121.302 112.134 123.652C111.68 125.495 110.847 127.223 109.688 128.725C108.528 130.228 107.068 131.472 105.4 132.378C103.706 133.234 101.774 133.496 99.9129 133.123C98.052 132.749 96.3705 131.762 95.1381 130.318C95.4556 131.55 95.433 132.845 95.0727 134.065C94.7124 135.285 94.0279 136.384 93.0921 137.246C102.342 137.222 111.416 139.779 119.292 144.63C118.984 141.592 118.692 138.566 118.382 135.528C118.564 137.384 133.944 128.328 135.182 127.076C139.411 122.632 142.174 116.998 143.098 110.934C145.61 95.8001 137.642 80.3741 128.182 69.0261ZM240.6 209.824C244.916 206.57 247.952 201.904 249.178 196.64C249.223 196.488 249.306 196.35 249.419 196.24C249.533 196.129 249.673 196.05 249.826 196.01C249.979 195.969 250.14 195.969 250.293 196.01C250.447 196.05 250.587 196.13 250.7 196.24C251.549 197.179 252.692 197.801 253.942 198.002C254.404 197.978 254.847 197.811 255.209 197.524C255.572 197.237 255.837 196.845 255.968 196.402C256.866 194.082 255.07 191.828 253.716 190.122C251.969 188.988 249.88 188.501 247.812 188.746C247.583 188.801 247.342 188.764 247.139 188.645C246.936 188.525 246.788 188.332 246.725 188.105C246.662 187.878 246.689 187.636 246.8 187.429C246.912 187.222 247.1 187.066 247.324 186.994C249.952 186.586 252.637 187.196 254.83 188.7C256.354 189.3 258.552 189.974 259.3 188.006C259.481 187.13 259.426 186.222 259.14 185.375C258.855 184.527 258.349 183.771 257.674 183.184C256.958 182.344 256.179 181.56 255.342 180.84C253.951 180.24 252.452 179.929 250.936 179.925C249.421 179.921 247.921 180.225 246.526 180.818C246.318 180.931 246.074 180.961 245.844 180.902C245.614 180.842 245.416 180.698 245.288 180.498C245.165 180.29 245.129 180.042 245.188 179.808C245.247 179.574 245.397 179.372 245.604 179.248C247.487 178.421 249.537 178.047 251.59 178.156C247.051 175.39 241.62 174.48 236.426 175.616C231.233 176.751 226.677 179.844 223.706 184.252C234.644 184.934 242.844 195.186 240.6 209.824Z" fill="#FFCEB6"/>
<path d="M239.674 335.57C235.614 335.57 234.328 340.7 233.634 343.828C233.054 346.495 232.576 349.179 232.2 351.882C237.602 348.915 242.73 345.474 247.524 341.6C245.784 338.942 242.856 335.57 239.674 335.57ZM155.978 351.16C155.329 350.111 154.431 349.24 153.362 348.624C152.777 348.35 152.137 348.212 151.491 348.22C150.845 348.228 150.209 348.382 149.63 348.67C147.308 349.967 145.438 351.943 144.272 354.334C141.4 360.132 139.754 366.46 139.438 372.922C147.227 373.504 155.048 373.51 162.838 372.94C162.459 370.398 161.95 367.876 161.312 365.386C160.078 360.516 158.91 355.338 155.978 351.16Z" fill="#FF8684"/>
<path d="M261.05 312.864C258.434 308.89 253.69 308.532 248.98 309.338C229.538 312.65 212.396 325.184 192.534 328.62C183.922 330.11 174.322 330.282 167.268 325.118C151.104 313.344 148.424 278.946 144.654 260.15C138.726 230.55 136.61 196.286 110.162 176.584C92.9381 163.76 70.0401 155.146 48.4501 158.314C39.8941 159.578 31.3641 162.914 25.4601 169.236C5.46011 190.636 12.5821 235.836 18.7581 261.538C25.5721 289.874 38.4381 318.064 59.1321 338.994C61.3901 334.726 65.2041 333.516 67.8561 334.456C70.4281 335.366 71.4401 337.97 72.3621 340.302C74.0429 344.587 75.4458 348.976 76.5621 353.442C83.6962 358.2 91.4146 362.018 99.5261 364.8C111.865 368.994 124.667 371.674 137.652 372.78C139.408 350.722 150.524 339.87 157.73 350.518C160.768 355.024 161.962 360.552 163.304 365.738C163.883 368.067 164.33 370.428 164.64 372.808C178.026 371.68 191.209 368.827 203.864 364.322C212.926 361.19 221.743 357.391 230.244 352.958C230.472 351.14 230.734 349.33 231.044 347.532C231.782 343.438 232.644 337.712 235.878 335.132C236.711 334.47 237.701 334.033 238.752 333.863C239.802 333.694 240.879 333.798 241.878 334.166C244.814 335.477 247.27 337.667 248.908 340.434C253.174 336.566 259.852 328.592 261.808 321.434C261.82 318.56 261.566 315.691 261.05 312.864Z" fill="#FF8684"/>
<path d="M66.1281 335.968C64.8708 336.081 63.6725 336.553 62.676 337.327C61.6796 338.102 60.927 339.147 60.5081 340.338C64.7662 344.553 69.3703 348.404 74.2721 351.85C73.2571 348.092 72.0346 344.393 70.6101 340.77C69.8001 338.698 68.8001 336 66.1281 335.968Z" fill="#FF8684"/>
<path d="M321.414 99.8141C321.008 99.1062 320.523 98.4461 319.97 97.8461C318.854 96.5943 317.388 95.7047 315.763 95.2914C314.137 94.878 312.425 94.9597 310.846 95.5261C308.853 96.2935 307.188 97.7293 306.136 99.588C306.355 100.592 306.336 101.632 306.081 102.628C305.827 103.623 305.344 104.545 304.67 105.32C305.103 107.354 306.206 109.184 307.804 110.516C309.401 111.847 311.4 112.604 313.479 112.664C315.557 112.723 317.596 112.083 319.267 110.845C320.938 109.607 322.145 107.844 322.694 105.838C322.005 105.015 321.528 104.036 321.304 102.985C321.081 101.935 321.119 100.846 321.414 99.8141Z" fill="#FFCEB6"/>
<path d="M190.754 62.788C189.935 63.0766 189.036 63.0437 188.24 62.696C183.76 69.534 184.016 68.706 184.462 69.51C185.968 72.1524 187.562 74.7438 189.24 77.28C190.744 74.126 193.79 69.35 193.79 68.942C193.782 68.74 194 69.382 190.754 62.788ZM189.576 61.15C189.93 61.1506 190.28 61.071 190.599 60.9172C190.918 60.7634 191.198 60.5394 191.418 60.262C190.299 60.3967 189.166 60.3772 188.052 60.204C188.217 60.4673 188.441 60.6893 188.705 60.8533C188.969 61.0172 189.267 61.1187 189.576 61.15Z" fill="#F76559"/>
<path d="M179.646 50.576C179.878 50.5151 180.125 50.5476 180.333 50.6665C180.541 50.7854 180.695 50.9813 180.76 51.212C182.938 61.18 197.292 60.812 199.404 51.092C199.47 50.8608 199.623 50.6646 199.832 50.5456C200.041 50.4267 200.288 50.3945 200.52 50.456C200.848 50.6366 201.233 50.6805 201.593 50.5783C201.953 50.476 202.258 50.2359 202.442 49.91C202.543 49.6714 202.57 49.4081 202.521 49.1539C202.471 48.8996 202.347 48.666 202.163 48.4828C201.98 48.2996 201.746 48.1752 201.492 48.1256C201.238 48.0759 200.975 48.1032 200.736 48.204C200.615 48.2723 200.481 48.3123 200.343 48.321C200.204 48.3297 200.066 48.3069 199.938 48.2544C199.809 48.2018 199.695 48.1208 199.602 48.0175C199.51 47.9142 199.442 47.7913 199.404 47.658C196.73 36.958 183.148 37.338 180.816 47.442C180.816 47.464 180.816 47.486 180.794 47.52C180.729 47.7512 180.576 47.9475 180.368 48.0668C180.159 48.1862 179.912 48.2189 179.68 48.158C179.492 48.0991 179.293 48.0837 179.098 48.1131C178.903 48.1425 178.718 48.2158 178.555 48.3276C178.393 48.4394 178.258 48.5867 178.161 48.7583C178.065 48.9299 178.008 49.1213 177.996 49.318C177.986 49.5219 178.026 49.7251 178.112 49.9102C178.199 50.0953 178.328 50.2566 178.491 50.3804C178.653 50.5041 178.843 50.5866 179.044 50.6207C179.246 50.6548 179.452 50.6395 179.646 50.576Z" fill="#FFCEB6"/>
<path d="M133.062 88.842C134.388 88.842 135.462 87.7675 135.462 86.442C135.462 85.1165 134.388 84.042 133.062 84.042C131.737 84.042 130.662 85.1165 130.662 86.442C130.662 87.7675 131.737 88.842 133.062 88.842Z" fill="#1D1D1B"/>
<path d="M126.532 74.6461C126.696 74.4723 126.788 74.2422 126.788 74.0031C126.788 73.7639 126.696 73.5338 126.532 73.3601C126.361 73.1911 126.13 73.0964 125.889 73.0964C125.648 73.0964 125.417 73.1911 125.246 73.3601C123.397 75.4711 122.35 78.1662 122.29 80.9721C122.225 81.441 122.283 81.9188 122.46 82.3581C122.526 82.4703 122.614 82.5682 122.718 82.6459C122.823 82.7237 122.942 82.7796 123.068 82.8106C123.195 82.8415 123.326 82.8468 123.455 82.826C123.583 82.8053 123.707 82.7589 123.817 82.6898C123.927 82.6206 124.023 82.53 124.097 82.4234C124.172 82.3167 124.225 82.1962 124.252 82.0688C124.279 81.9415 124.281 81.81 124.256 81.6821C124.232 81.5541 124.182 81.4324 124.11 81.3241C124.068 78.8759 124.931 76.4983 126.532 74.6461ZM124.132 81.6461C124.132 81.7701 124.12 81.7481 124.12 81.6221L124.132 81.6461ZM132.778 105.156C133.904 106.282 135.358 107.023 136.93 107.275C138.503 107.526 140.115 107.275 141.536 106.556C141.644 106.499 141.739 106.421 141.816 106.326C141.893 106.231 141.95 106.121 141.984 106.004C142.018 105.886 142.027 105.763 142.012 105.642C141.997 105.521 141.958 105.404 141.897 105.298C141.835 105.193 141.754 105.1 141.656 105.027C141.558 104.954 141.446 104.901 141.328 104.872C141.209 104.843 141.086 104.838 140.965 104.857C140.845 104.877 140.729 104.921 140.626 104.986C139.554 105.511 138.344 105.684 137.168 105.482C135.992 105.28 134.909 104.712 134.074 103.86C133.902 103.688 133.669 103.592 133.426 103.592C133.183 103.592 132.95 103.688 132.778 103.86C132.606 104.032 132.51 104.265 132.51 104.508C132.51 104.751 132.606 104.984 132.778 105.156Z" fill="#1D1D1B"/>
<path d="M358.6 245.578C357.27 245.522 222.322 239.196 219.386 239.058C222.688 236.503 225.809 233.721 228.724 230.732C229.674 230.772 356.238 236.692 358.134 236.732C358.376 236.732 358.607 236.636 358.778 236.465C358.948 236.295 359.044 236.063 359.044 235.822C359.044 235.581 358.948 235.349 358.778 235.179C358.607 235.008 358.376 234.912 358.134 234.912C356.964 234.856 231.228 229.02 230.386 228.974C235.208 223.64 238.598 218.892 240.136 212.23C241.182 212.23 248.052 206.982 250.556 198.464C251.478 199.243 252.618 199.72 253.82 199.83C254.521 199.788 255.203 199.583 255.812 199.232C256.42 198.881 256.939 198.393 257.327 197.808C257.715 197.222 257.961 196.554 258.047 195.857C258.132 195.16 258.055 194.452 257.82 193.79C260.767 194.177 263.721 194.517 266.682 194.812C263.498 197.879 260.287 200.924 257.048 203.948C254.406 203.788 251.756 203.584 249.118 203.348C247.958 203.246 247.958 205.066 249.118 205.168C251.154 205.35 253.202 205.498 255.25 205.636C254.352 206.466 253.462 207.318 252.564 208.15C251.7 208.95 252.984 210.23 253.85 209.434C255.158 208.234 256.432 207.012 257.718 205.806C262.426 206.09 267.138 206.226 271.846 206.26C271.232 206.92 270.596 207.568 269.992 208.228C269.192 209.094 270.48 210.378 271.278 209.514C272.278 208.422 273.302 207.352 274.326 206.284C276.966 206.284 279.61 206.246 282.256 206.17C282.498 206.17 282.729 206.074 282.9 205.904C283.07 205.733 283.166 205.501 283.166 205.26C283.166 205.019 283.07 204.787 282.9 204.617C282.729 204.446 282.498 204.35 282.256 204.35C280.196 204.406 278.138 204.43 276.068 204.44C278.827 201.573 281.64 198.759 284.506 196C286.056 196.056 293.268 196.17 293.268 196.17C293.298 196.365 293.403 196.54 293.56 196.659C293.717 196.778 293.915 196.832 294.11 196.808C294.33 196.804 294.544 196.733 294.723 196.605C294.902 196.477 295.039 196.299 295.115 196.092C295.191 195.886 295.203 195.661 295.149 195.448C295.095 195.234 294.979 195.042 294.814 194.896C294.03 194.044 292.596 194.34 291.56 194.328C289.832 194.304 288.102 194.248 286.374 194.202C288.753 191.935 291.164 189.71 293.608 187.526C294.484 186.74 293.208 185.466 292.324 186.24C289.435 188.823 286.598 191.458 283.814 194.146C283.576 194.134 279.92 194.094 270.788 193.346C272.268 191.902 273.77 190.468 275.236 189.012C275.396 188.839 275.483 188.612 275.479 188.376C275.474 188.141 275.379 187.916 275.212 187.75C275.046 187.584 274.821 187.488 274.586 187.484C274.351 187.479 274.123 187.566 273.95 187.726C272.12 189.546 270.242 191.326 268.388 193.142C268.188 193.12 264.064 192.834 257.048 191.878C256.905 191.612 256.752 191.35 256.59 191.094C257.288 191.215 258.004 191.152 258.67 190.912C259.336 190.671 259.927 190.262 260.387 189.723C260.846 189.185 261.157 188.536 261.29 187.841C261.422 187.145 261.371 186.428 261.142 185.758C260.26 181.888 253.342 175.204 244.542 173.724V171.286C251.106 171.59 351.064 176.286 351.166 176.286C351.408 176.286 351.639 176.19 351.81 176.02C351.98 175.849 352.076 175.617 352.076 175.376C352.076 175.135 351.98 174.903 351.81 174.733C351.639 174.562 351.408 174.466 351.166 174.466C349.402 174.386 250.414 169.75 244.542 169.476C244.542 162.412 244.542 149.712 244.53 146.606C253.482 146.948 342.53 148.938 343.714 148.916C343.953 148.909 344.181 148.811 344.35 148.642C344.519 148.473 344.617 148.245 344.624 148.006C346.574 124.206 352.718 41.944 351.142 17.914C351.138 17.674 351.041 17.4449 350.871 17.2751C350.701 17.1053 350.472 17.0081 350.232 17.004C348.502 16.936 127.144 10.004 126.302 10.042C126.062 10.0471 125.834 10.1446 125.664 10.3142C125.495 10.4838 125.397 10.7123 125.392 10.952C125.392 12.82 125.322 30.488 125.25 50.386C122.038 45.474 114.392 43.544 110.05 47.524C109.71 45.4768 108.751 43.5828 107.303 42.0968C105.854 40.6108 103.985 39.6041 101.947 39.212C99.9091 38.82 97.8 39.0613 95.9034 39.9037C94.0068 40.7461 92.4136 42.1491 91.3382 43.924C89.0629 42.5729 86.4442 41.9115 83.8002 42.02C83.079 42.0675 82.3844 42.3109 81.7912 42.7239C81.1981 43.137 80.7289 43.704 80.4342 44.364C64.6342 45.586 50.0962 60.61 51.8342 86.978C52.9182 103.578 59.2922 106.726 62.0342 116.008C62.8548 118.859 63.0976 121.845 62.7483 124.79C62.399 127.736 61.4647 130.582 60.0002 133.162C59.2242 134.516 58.2602 136.074 58.8162 137.53C60.4162 141.684 73.4002 139.778 76.2782 129.92C76.9878 133.246 78.9135 136.187 81.6782 138.168C78.0933 138.806 74.5687 139.746 71.1422 140.978C70.9134 141.047 70.7198 141.2 70.6014 141.408C70.483 141.615 70.4489 141.86 70.5062 142.092C71.3024 144.656 72.2405 147.174 73.3162 149.634C70.2769 151.822 67.8635 154.768 66.3162 158.178C66.6362 158.224 67.9162 158.394 68.2402 158.44C74.4662 145.826 89.8642 145.068 103.812 146.814C137.396 150.994 162.702 174.374 179.212 204.068C179.612 204.802 181.17 207.51 180.812 208.594C180.77 208.775 180.783 208.965 180.852 209.138C180.92 209.31 181.04 209.458 181.195 209.561C181.349 209.664 181.532 209.717 181.718 209.713C181.904 209.709 182.084 209.648 182.234 209.538C184.134 211.625 185.129 214.381 185 217.2C185.068 218.362 186.888 218.372 186.82 217.2C186.642 214.26 186.114 210.724 183.872 208.634C187.792 209.378 188.138 213.766 189.756 213.06C189.959 212.977 190.125 212.822 190.221 212.625C190.317 212.427 190.338 212.201 190.278 211.99C189.847 210.864 189.175 209.845 188.308 209.006C187.442 208.168 186.402 207.529 185.262 207.134C196.062 198.2 214.314 181.832 228.262 186.986C239.49 191.186 244.062 208.572 232.576 223.674C223.956 234.976 208.376 245.63 195.888 251.488C190.077 254.554 183.669 256.32 177.108 256.664C168.497 256.968 159.962 254.948 152.4 250.816C152.193 250.708 151.952 250.683 151.727 250.747C151.502 250.812 151.31 250.96 151.191 251.162C151.073 251.363 151.036 251.603 151.089 251.831C151.142 252.059 151.281 252.257 151.476 252.386C157.617 255.707 164.373 257.732 171.328 258.336C177.257 258.929 183.244 258.238 188.882 256.31C199.013 252.512 208.548 247.283 217.196 240.782C219.742 240.896 358.584 247.402 358.662 247.404C359.78 247.42 359.78 245.624 358.6 245.578ZM269.082 195.012C273.338 195.402 276.796 195.658 282.014 195.888C279.144 198.69 276.326 201.546 273.562 204.454C268.91 204.442 264.246 204.294 259.592 204.054C262.78 201.075 265.944 198.061 269.082 195.012ZM98.7522 144.504C90.2102 143.892 81.7522 144.448 74.7522 148.674C73.9522 146.614 73.2162 144.532 72.5102 142.428C76.4009 141.06 80.4221 140.095 84.5102 139.55C101.884 137.208 116.388 143.234 121.834 149.128C114.375 146.586 106.615 145.032 98.7522 144.504ZM222.134 183.336C222.043 183.463 221.993 183.616 221.991 183.772C221.989 183.929 222.035 184.082 222.122 184.212C208.91 184.412 194.632 196.93 184.446 205.382C182.14 207.302 183.192 206.512 182.374 206.782C181.815 205.045 181.023 203.392 180.02 201.868C167.24 179.436 148.754 159.768 124.962 150.308C124.938 150.196 124.896 150.089 124.838 149.99C118.876 141.208 103.838 137.412 93.1222 137.248C94.0578 136.386 94.7423 135.287 95.1029 134.067C95.4636 132.847 95.4868 131.552 95.1702 130.32C96.402 131.764 98.0832 132.752 99.9438 133.125C101.804 133.499 103.737 133.236 105.43 132.38C107.096 131.473 108.554 130.229 109.712 128.726C110.869 127.224 111.701 125.496 112.152 123.654C112.844 121.254 112.868 118.936 110.914 117.432C124.698 117.052 129.914 101.68 123.336 91.256C121.549 88.2763 118.797 85.9969 115.536 84.796C114.632 81.628 114.918 82.47 113.956 79.358C114.556 73.11 121.12 71.38 124.716 65.264C125.532 66.102 126.05 66.596 127.042 67.704L127.254 11.866C147.136 11.382 342.724 19.066 349.374 18.866C350.712 40.616 345.914 107.538 344.254 129.426C342.674 129.378 183.544 124.31 138.546 122.896C138.146 123.504 137.725 124.097 137.282 124.676C180.33 126.052 341.708 131.204 344.13 131.224C342.7 149.346 342.848 146.724 342.844 147.104C315.866 147.566 148.922 140.188 126.776 139.704C126.776 137.97 126.792 135.076 126.802 132.256C126.35 132.506 125.898 132.75 125.452 132.986C125.136 135.422 124.967 137.874 124.944 140.33C124.992 140.53 124.836 141.4 125.854 141.468C127.39 141.548 203.618 144.982 212.138 145.336L214.262 168.008C206.384 167.644 154.312 165.222 154.214 165.22C153.99 165.24 153.781 165.342 153.628 165.508C153.476 165.673 153.39 165.889 153.389 166.115C153.387 166.34 153.47 166.557 153.62 166.725C153.771 166.892 153.978 166.997 154.202 167.02C155.912 167.092 205.518 169.42 214.434 169.83L214.892 174.71C214.895 174.909 214.961 175.101 215.082 175.259C215.203 175.417 215.371 175.532 215.562 175.586C219.772 176.253 224.002 176.775 228.254 177.154C225.823 178.787 223.742 180.889 222.134 183.336ZM213.978 145.4C223.566 145.787 233.16 146.166 242.758 146.538C242.796 152.662 242.758 168.738 242.758 173.494C238.733 173.122 234.683 173.839 231.03 175.57C226.217 175.22 221.42 174.669 216.652 173.918C216.526 172.6 214.682 152.968 213.978 145.4ZM223.738 184.248C226.709 179.841 231.265 176.748 236.457 175.612C241.65 174.476 247.08 175.385 251.62 178.15C249.568 178.042 247.518 178.416 245.636 179.242C245.433 179.366 245.286 179.566 245.228 179.797C245.17 180.028 245.205 180.273 245.325 180.479C245.446 180.684 245.642 180.835 245.873 180.897C246.103 180.959 246.348 180.929 246.556 180.812C247.951 180.219 249.451 179.915 250.966 179.919C252.482 179.923 253.981 180.234 255.372 180.834C257.388 182.634 260.29 185.486 259.332 188.002C258.582 189.97 256.386 189.298 254.862 188.696C252.668 187.192 249.983 186.582 247.354 186.988C247.13 187.06 246.942 187.216 246.831 187.423C246.719 187.63 246.692 187.872 246.755 188.099C246.818 188.326 246.966 188.519 247.169 188.639C247.372 188.758 247.613 188.795 247.842 188.74C249.885 188.517 251.945 188.973 253.702 190.038C255.102 191.438 256.828 194.252 256 196.396C255.871 196.84 255.606 197.233 255.243 197.52C254.88 197.806 254.436 197.973 253.974 197.996C252.722 197.801 251.576 197.177 250.732 196.232C250.618 196.123 250.477 196.046 250.324 196.006C250.171 195.967 250.011 195.967 249.858 196.007C249.705 196.047 249.565 196.126 249.451 196.235C249.337 196.344 249.253 196.481 249.206 196.632C247.973 201.892 244.939 206.556 240.63 209.816C242.62 196.8 235.96 185 223.738 184.24V184.248Z" fill="#1D1D1B"/>
<path d="M215.922 120.046C217.828 119.85 219.596 118.961 220.89 117.548C222.184 116.135 222.914 114.296 222.942 112.38C223.004 110.724 222.494 109.097 221.497 107.773C220.501 106.449 219.079 105.509 217.47 105.11C216.033 104.705 214.51 104.728 213.086 105.176C211.662 105.623 210.399 106.476 209.453 107.631C208.506 108.785 207.917 110.19 207.756 111.674C207.596 113.158 207.872 114.656 208.55 115.986C209.269 117.291 210.343 118.366 211.648 119.084C212.953 119.803 214.435 120.136 215.922 120.046ZM216.094 106.714C217.508 106.807 218.828 107.452 219.77 108.51C220.713 109.568 221.202 110.953 221.132 112.368C221.152 113.552 220.809 114.713 220.149 115.696C219.489 116.679 218.545 117.436 217.442 117.867C216.339 118.297 215.131 118.38 213.98 118.104C212.829 117.828 211.79 117.206 211.003 116.322C210.215 115.439 209.717 114.335 209.575 113.16C209.433 111.985 209.654 110.794 210.208 109.748C210.762 108.702 211.623 107.851 212.675 107.308C213.728 106.766 214.921 106.559 216.094 106.714ZM234.818 120.66C236.724 120.464 238.492 119.575 239.785 118.162C241.079 116.749 241.809 114.91 241.836 112.994C241.9 111.338 241.391 109.71 240.394 108.385C239.397 107.061 237.974 106.121 236.364 105.724C234.928 105.321 233.405 105.345 231.982 105.793C230.559 106.241 229.297 107.094 228.351 108.248C227.405 109.401 226.816 110.806 226.655 112.289C226.494 113.772 226.769 115.27 227.446 116.6C228.164 117.905 229.239 118.98 230.544 119.699C231.849 120.417 233.331 120.751 234.818 120.66ZM234.988 107.334C236.402 107.427 237.723 108.072 238.666 109.129C239.608 110.187 240.098 111.573 240.028 112.988C240.048 114.172 239.705 115.333 239.045 116.316C238.386 117.299 237.441 118.056 236.339 118.487C235.236 118.917 234.028 119 232.877 118.724C231.726 118.449 230.687 117.827 229.899 116.944C229.112 116.06 228.613 114.957 228.471 113.781C228.329 112.606 228.549 111.416 229.103 110.37C229.657 109.324 230.518 108.472 231.57 107.93C232.622 107.387 233.815 107.179 234.988 107.334ZM252.472 120.66C254.378 120.465 256.147 119.576 257.441 118.163C258.735 116.749 259.465 114.91 259.492 112.994C259.554 111.338 259.044 109.711 258.047 108.387C257.051 107.063 255.629 106.123 254.02 105.724C252.583 105.319 251.06 105.341 249.636 105.789C248.212 106.236 246.949 107.09 246.002 108.244C245.056 109.398 244.466 110.804 244.307 112.288C244.147 113.772 244.423 115.271 245.102 116.6C245.82 117.906 246.893 118.98 248.198 119.699C249.503 120.418 250.985 120.751 252.472 120.66ZM252.636 107.334C254.05 107.427 255.371 108.072 256.314 109.129C257.256 110.187 257.746 111.573 257.676 112.988C257.696 114.172 257.353 115.333 256.693 116.316C256.034 117.299 255.089 118.056 253.987 118.487C252.884 118.917 251.676 119 250.525 118.724C249.374 118.449 248.335 117.827 247.547 116.944C246.76 116.06 246.261 114.957 246.119 113.781C245.977 112.606 246.197 111.416 246.751 110.37C247.305 109.324 248.166 108.472 249.218 107.93C250.27 107.387 251.463 107.179 252.636 107.334ZM203.124 186.878C203.386 187.044 203.524 187.02 204.444 186.946C204.685 186.946 204.917 186.85 205.088 186.68C205.258 186.509 205.354 186.277 205.354 186.036C205.354 185.795 205.258 185.563 205.088 185.393C204.917 185.222 204.685 185.126 204.444 185.126C201.26 184.968 198.074 184.796 194.888 184.638C195.514 184.024 196.118 183.386 196.754 182.784C196.914 182.611 197.001 182.384 196.996 182.148C196.992 181.913 196.897 181.689 196.73 181.522C196.564 181.356 196.339 181.26 196.104 181.256C195.869 181.251 195.641 181.338 195.468 181.498C195.184 181.782 194.888 182.066 194.604 182.352L194.592 182.374C193.864 183.08 193.16 183.808 192.442 184.524C186.355 184.216 180.273 183.905 174.196 183.592C173.024 183.534 173.024 185.354 174.196 185.412C179.701 185.696 185.207 185.977 190.714 186.254C188.581 188.414 186.48 190.605 184.412 192.828C182.864 192.737 181.321 192.643 179.782 192.544C178.61 192.476 178.622 194.296 179.782 194.364C180.782 194.42 181.782 194.49 182.796 194.546C182.728 194.626 182.648 194.694 182.58 194.774C181.796 195.638 183.07 196.924 183.866 196.058C184.286 195.592 184.73 195.148 185.162 194.682L193.114 195.16C194.286 195.228 194.274 193.408 193.114 193.34L186.8 192.964C188.9 190.732 191.034 188.532 193.2 186.364C196.47 186.538 199.8 186.708 203.124 186.878ZM297.452 320.872C296.79 281.872 279.652 255.542 240.994 257.374C229.594 257.898 212.094 260.542 200.668 264.608C193.998 266.982 187.012 270.314 183.002 276.11C181.195 278.79 180.291 281.977 180.424 285.206C180.557 288.436 181.719 291.538 183.74 294.06C184.468 294.97 185.71 293.718 185.026 292.774C179.548 285.212 181.05 275.402 195.89 268.5C206.09 263.732 220.394 261.314 231.62 260.036C242.496 258.808 253.552 258.454 264.008 262.236C286.134 270.204 294.234 292.936 295.438 316.636C295.889 325.722 295.424 334.831 294.05 343.824C293.85 344.972 295.598 345.462 295.802 344.312C297.024 336.561 297.577 328.718 297.452 320.872Z" fill="#1D1D1B"/>
<path d="M261.704 308.502C261.889 307.163 262.347 305.877 263.052 304.723C263.757 303.57 264.693 302.575 265.8 301.8C265.903 301.74 265.994 301.661 266.066 301.567C266.138 301.472 266.192 301.364 266.222 301.249C266.253 301.134 266.261 301.014 266.245 300.896C266.23 300.778 266.191 300.664 266.131 300.561C266.072 300.458 265.992 300.368 265.898 300.295C265.803 300.223 265.695 300.17 265.58 300.139C265.465 300.108 265.345 300.1 265.227 300.116C265.109 300.132 264.995 300.17 264.892 300.23C262.375 301.952 260.638 304.596 260.056 307.59L260.022 307.612C259.931 306.625 259.981 305.629 260.17 304.656C260.51 302.658 261.274 300.757 262.412 299.08C263.072 298.104 261.49 297.192 260.842 298.16C259.399 300.309 258.512 302.783 258.26 305.36C258.06 307.224 258.06 310.442 260.534 310.704C263.308 320.062 259.852 331.474 265.404 354.046C265.476 354.27 265.632 354.458 265.839 354.57C266.046 354.681 266.288 354.709 266.515 354.645C266.742 354.582 266.935 354.434 267.055 354.231C267.174 354.028 267.211 353.787 267.156 353.558C261.338 329.92 265.628 318.95 261.704 308.502ZM178.872 295.506C179.968 299.041 180.001 302.821 178.965 306.375C177.93 309.928 175.872 313.099 173.048 315.492C172.148 316.248 173.448 317.504 174.334 316.778C177.381 314.152 179.598 310.696 180.717 306.833C181.836 302.969 181.808 298.864 180.636 295.016C180.272 293.912 178.51 294.4 178.872 295.506ZM248.922 340.4C247.286 337.632 244.829 335.442 241.892 334.132C240.893 333.765 239.816 333.661 238.765 333.83C237.715 334 236.725 334.437 235.892 335.1C234.394 336.445 233.302 338.182 232.74 340.116C230.958 345.296 228.512 360.612 229.714 375.506C229.722 375.722 229.806 375.927 229.951 376.087C230.096 376.246 230.293 376.35 230.507 376.378C230.721 376.407 230.938 376.359 231.119 376.243C231.301 376.126 231.436 375.95 231.5 375.744C231.802 374.978 232.128 374.372 231.446 373.982C230.753 363.869 231.494 353.708 233.646 343.802C234.33 340.674 235.616 335.544 239.688 335.544C242.856 335.544 245.792 338.91 247.536 341.572C250.636 346.645 252.304 352.463 252.36 358.408C252.406 359.58 254.226 359.58 254.18 358.408C254.118 352.036 252.299 345.804 248.922 340.4ZM163.304 365.732C161.964 360.556 160.778 355.018 157.73 350.512C153.658 344.482 148.566 345.454 144.398 350.842C137.16 360.172 137.042 377.482 137.624 389.082C137.68 390.242 139.5 390.254 139.444 389.082C138.888 378.126 138.796 364.02 144.272 354.334C145.438 351.943 147.308 349.967 149.63 348.67C152.36 347.424 154.294 348.758 155.978 351.16C158.914 355.336 160.09 360.516 161.342 365.374C163.532 373.828 163.294 379.106 164.778 386.574C165.004 387.722 166.756 387.232 166.53 386.084C165.178 379.304 165.07 372.552 163.304 365.732ZM72.3622 340.302C71.4382 337.97 70.4282 335.366 67.8562 334.456C66.6552 334.12 65.3852 334.12 64.184 334.455C62.9827 334.79 61.8962 335.447 61.0422 336.356C59.2353 338.462 57.9493 340.963 57.2882 343.658C54.2122 353.258 53.7462 363.84 53.3302 373.792C53.2842 374.964 55.1042 374.964 55.1502 373.792C55.5502 364.192 56.5602 335.872 66.1162 336.002C68.7662 336.036 69.7682 338.722 70.5982 340.814C75.1518 352.397 77.6564 364.684 78.0002 377.126C78.0002 377.367 78.0961 377.599 78.2667 377.769C78.4374 377.94 78.6689 378.036 78.9102 378.036C79.1516 378.036 79.383 377.94 79.5537 377.769C79.7243 377.599 79.8202 377.367 79.8202 377.126C79.4738 364.513 76.9507 352.055 72.3622 340.302ZM317.444 93.916C319.685 94.8461 321.557 96.4897 322.768 98.592C323.137 98.1563 323.385 97.6315 323.488 97.0701C323.591 96.5087 323.544 95.9301 323.354 95.392C323.07 94.7187 322.547 94.1741 321.886 93.8633C321.225 93.5524 320.472 93.4971 319.772 93.708C319.799 93.164 319.66 92.6247 319.372 92.162C318.85 91.48 317.654 91.178 316.062 92.434C316.144 92.1291 316.154 91.8095 316.093 91.4999C316.031 91.1903 315.9 90.8989 315.708 90.648C314.734 89.762 312.252 90.848 311.194 91.9C311.229 91.8129 311.244 91.7195 311.239 91.626C311.234 91.5325 311.209 91.4411 311.166 91.358C311.123 91.275 311.062 91.2022 310.988 91.1446C310.915 91.0869 310.829 91.0458 310.738 91.024C309.324 90.624 305 93.872 304.966 98.076C306.248 96.051 308.19 94.5309 310.464 93.7729C312.738 93.0149 315.203 93.0654 317.444 93.916ZM307.974 101.948C307.974 102.121 308.026 102.291 308.122 102.435C308.218 102.579 308.355 102.691 308.515 102.757C308.675 102.824 308.851 102.841 309.021 102.807C309.191 102.773 309.347 102.69 309.47 102.567C309.592 102.445 309.676 102.289 309.709 102.119C309.743 101.949 309.726 101.773 309.66 101.613C309.593 101.453 309.481 101.316 309.337 101.22C309.193 101.123 309.023 101.072 308.85 101.072C308.618 101.072 308.395 101.164 308.231 101.329C308.066 101.493 307.974 101.716 307.974 101.948ZM318.554 102.472C318.554 102.24 318.462 102.017 318.298 101.853C318.133 101.688 317.911 101.596 317.678 101.596C317.505 101.596 317.336 101.647 317.192 101.744C317.047 101.84 316.935 101.977 316.869 102.137C316.803 102.297 316.785 102.473 316.819 102.643C316.853 102.813 316.936 102.969 317.059 103.091C317.181 103.214 317.337 103.297 317.507 103.331C317.677 103.365 317.853 103.348 318.013 103.281C318.174 103.215 318.31 103.103 318.407 102.959C318.503 102.815 318.554 102.645 318.554 102.472ZM315.152 105.224C314.948 105.111 314.709 105.079 314.483 105.136C314.257 105.194 314.061 105.335 313.936 105.532C313.945 105.521 313.952 105.51 313.958 105.498C313.858 105.623 313.716 105.708 313.558 105.736L313.512 105.748C313.235 105.768 312.957 105.76 312.682 105.724C312.416 105.693 312.156 105.626 311.908 105.524C311.874 105.512 311.852 105.49 311.816 105.478C311.713 105.418 311.599 105.38 311.481 105.364C311.363 105.348 311.243 105.356 311.128 105.387C311.013 105.418 310.905 105.471 310.811 105.543C310.716 105.616 310.637 105.706 310.577 105.809C310.518 105.912 310.479 106.026 310.463 106.144C310.448 106.262 310.455 106.382 310.486 106.497C310.517 106.612 310.57 106.72 310.642 106.815C310.715 106.909 310.805 106.988 310.908 107.048C311.264 107.231 311.643 107.366 312.034 107.448C315.238 108.096 316.322 105.84 315.152 105.224ZM303.23 113.744C304.282 114.446 304.652 114.58 308.326 116.68C308.836 116.962 309.058 116.644 310.326 115.814V117.954C310.326 118.135 310.398 118.308 310.526 118.436C310.654 118.564 310.827 118.636 311.008 118.636C311.189 118.636 311.363 118.564 311.49 118.436C311.618 118.308 311.69 118.135 311.69 117.954V114.554C311.689 114.435 311.658 114.317 311.598 114.214C311.538 114.11 311.453 114.024 311.35 113.964C311.247 113.903 311.13 113.871 311.01 113.869C310.891 113.867 310.773 113.897 310.668 113.954C309.996 114.398 309.336 114.842 308.668 115.286L304.312 112.772C304.599 111.727 305.264 110.827 306.178 110.246C306.88 109.768 306.234 108.574 305.484 109.062C304.353 109.797 303.49 110.879 303.026 112.146C302.846 112.706 302.754 113.466 303.23 113.744ZM321.478 109.468C320.748 108.978 320.068 110.174 320.794 110.65C321.703 111.242 322.367 112.144 322.66 113.188L318.304 115.702C317.632 115.258 316.972 114.814 316.304 114.37C316.2 114.309 316.081 114.278 315.961 114.278C315.84 114.278 315.721 114.311 315.617 114.372C315.513 114.433 315.427 114.52 315.368 114.625C315.309 114.73 315.278 114.849 315.28 114.97V118.37C315.28 118.551 315.352 118.724 315.48 118.852C315.608 118.98 315.781 119.052 315.962 119.052C316.143 119.052 316.317 118.98 316.444 118.852C316.572 118.724 316.644 118.551 316.644 118.37V116.23C317.894 117.052 318.122 117.38 318.644 117.096C319.792 116.436 323.16 114.512 323.682 114.194C323.886 114.037 324.033 113.817 324.099 113.568C324.164 113.319 324.146 113.055 324.046 112.818C323.613 111.433 322.703 110.247 321.478 109.468Z" fill="#1D1D1B"/>
<path d="M307.87 86.2461C308.654 75.3921 308.964 42.3461 308.964 31.5561C308.994 30.2121 311.41 30.3381 239.014 28.9561C238.774 28.9612 238.546 29.0587 238.376 29.2282C238.207 29.3978 238.109 29.6263 238.104 29.8661L236.058 88.3821C236.06 88.6228 236.157 88.853 236.327 89.0232C236.497 89.1934 236.727 89.29 236.968 89.2921C238.88 89.3761 289.5 91.5321 299.19 91.9441C288.404 104.674 298.852 124.964 315.39 123.442C320.1 122.861 324.446 120.613 327.642 117.106C330.838 113.599 332.674 109.063 332.816 104.32C333.034 92.0821 320.14 82.6481 307.87 86.2461ZM290.982 89.7601L258.518 88.3501C258.132 79.9661 259.518 68.8381 265.748 63.2141C265.556 63.6048 265.455 64.0342 265.453 64.4697C265.451 64.9052 265.547 65.3355 265.736 65.7281C266.6 67.328 268.444 66.7281 269.866 65.8861C270.622 69.1941 273.026 69.3161 274.246 67.7421C274.741 66.9722 274.998 66.0733 274.984 65.1581C274.99 65.0351 274.971 64.9122 274.928 64.7969C274.884 64.6816 274.818 64.5763 274.733 64.4872C274.648 64.3981 274.546 64.3273 274.433 64.2788C274.32 64.2304 274.198 64.2054 274.075 64.2054C273.952 64.2054 273.83 64.2304 273.717 64.2788C273.604 64.3273 273.502 64.3981 273.417 64.4872C273.332 64.5763 273.266 64.6816 273.223 64.7969C273.18 64.9122 273.16 65.0351 273.166 65.1581C273.176 65.6415 273.074 66.1206 272.868 66.5581C272.818 66.6531 272.746 66.7342 272.657 66.794C272.568 66.8537 272.465 66.8902 272.358 66.9001C272.057 66.6449 271.842 66.3024 271.744 65.9201C271.563 65.3983 271.495 64.8441 271.544 64.2941C271.543 64.1348 271.5 63.9785 271.42 63.841C271.339 63.7034 271.224 63.5893 271.086 63.51C270.948 63.4307 270.791 63.389 270.632 63.389C270.473 63.389 270.316 63.4307 270.178 63.5101C269.365 64.1858 268.407 64.6649 267.378 64.9101C267.012 64.8961 267.378 63.9321 267.674 63.5101C268.052 62.9341 268.81 61.9101 268.73 61.1881C269.026 61.0401 269.33 60.9041 269.652 60.7881C271.437 61.8701 273.481 62.4488 275.568 62.4625C277.655 62.4762 279.707 61.9246 281.506 60.8661C282.001 61.0944 282.48 61.3571 282.938 61.6521C282.757 61.6447 282.578 61.6913 282.424 61.786C282.269 61.8806 282.146 62.019 282.071 62.1836C281.995 62.3482 281.97 62.5315 281.999 62.7104C282.027 62.8892 282.109 63.0555 282.232 63.1881C282.511 63.5712 282.683 64.0214 282.732 64.4929C282.78 64.9643 282.703 65.4401 282.508 65.8721C281.81 65.5536 281.206 65.0596 280.756 64.4381C280.626 64.3148 280.463 64.2319 280.287 64.1994C280.111 64.167 279.93 64.1864 279.765 64.2552C279.599 64.3241 279.458 64.4394 279.357 64.5873C279.256 64.7351 279.2 64.9091 279.196 65.0881C279.236 65.5921 279.326 66.6881 278.82 66.7601C278.464 66.8041 277.734 65.3921 277.592 65.0541C277.525 64.8267 277.371 64.6347 277.164 64.5193C276.957 64.4038 276.712 64.374 276.484 64.4361C276.255 64.4983 276.059 64.6476 275.939 64.852C275.819 65.0564 275.783 65.2998 275.84 65.5301C276.352 66.7701 277.308 68.6821 278.922 68.5561C279.298 68.5199 279.659 68.3895 279.971 68.1769C280.283 67.9644 280.537 67.6765 280.708 67.34C280.966 66.826 280.616 66.9121 281.494 67.3741C284.346 68.8301 285.482 64.4721 283.814 62.2541C288.798 66.1161 290.414 73.09 290.982 79.34C291.207 82.8097 291.207 86.2904 290.982 89.7601ZM263.4 51.6101C263.417 51.3816 263.485 51.1599 263.599 50.9612C263.713 50.7625 263.87 50.5918 264.059 50.4616C264.247 50.3314 264.463 50.245 264.689 50.2087C264.915 50.1725 265.146 50.1873 265.366 50.2521C265.541 50.2978 265.727 50.2734 265.884 50.1841C266.041 50.0949 266.158 49.9477 266.208 49.7741C266.621 47.5388 267.808 45.5203 269.56 44.0725C271.313 42.6248 273.519 41.8402 275.792 41.8564C278.065 41.8726 280.26 42.6886 281.992 44.1612C283.723 45.6339 284.881 47.6691 285.262 49.9101C285.291 50.0099 285.342 50.1019 285.412 50.1792C285.481 50.2565 285.567 50.3171 285.663 50.3565C285.759 50.3959 285.863 50.4131 285.967 50.4068C286.07 50.4005 286.171 50.3708 286.262 50.3201C286.543 50.1987 286.853 50.164 287.154 50.2204C287.455 50.2769 287.732 50.4219 287.949 50.6369C288.167 50.8519 288.315 51.127 288.375 51.4269C288.435 51.7269 288.404 52.0379 288.286 52.3201C288.186 52.5085 288.049 52.6754 287.884 52.811C287.719 52.9467 287.529 53.0485 287.325 53.1108C287.121 53.173 286.906 53.1943 286.693 53.1736C286.481 53.1529 286.275 53.0905 286.086 52.9901C285.911 52.9416 285.723 52.9647 285.565 53.0543C285.407 53.1439 285.291 53.2928 285.242 53.4681C283.072 63.4681 268.386 63.7501 266.166 53.5941C266.117 53.4202 266.001 53.2728 265.844 53.1834C265.687 53.094 265.501 53.0699 265.326 53.1161C265.097 53.1877 264.853 53.2025 264.617 53.1593C264.38 53.1161 264.158 53.0162 263.968 52.8681C263.779 52.72 263.628 52.5282 263.529 52.309C263.43 52.0899 263.386 51.8501 263.4 51.6101ZM292.884 80.6761C292.066 68.0241 288.02 64.7261 288.484 64.7261C289.358 64.5441 290.822 61.0801 289.064 58.3261C289.361 58.5721 289.711 58.7457 290.087 58.8332C290.462 58.9207 290.853 58.9197 291.228 58.8303C291.603 58.7408 291.953 58.5655 292.248 58.3179C292.544 58.0704 292.778 57.7576 292.932 57.4041C293.183 57.076 293.354 56.694 293.432 56.2883C293.509 55.8826 293.491 55.4644 293.379 55.067C293.266 54.6695 293.063 54.3038 292.784 53.9988C292.506 53.6938 292.16 53.458 291.774 53.3101C292.33 52.4449 292.676 51.4612 292.783 50.4381C292.89 49.415 292.755 48.3811 292.39 47.4195C292.025 46.4579 291.439 45.5955 290.68 44.9015C289.92 44.2076 289.009 43.7015 288.018 43.4241C288.142 42.163 287.882 40.8939 287.272 39.7832C286.662 38.6725 285.731 37.7721 284.6 37.2001C283.107 36.4174 281.478 35.9305 279.8 35.7661C277.936 35.7751 276.074 35.6575 274.226 35.4141C272.626 34.9701 270.922 35.0866 269.397 35.7443C267.872 36.402 266.618 37.5614 265.842 39.0301C265.342 39.9641 265.352 42.1261 264.306 42.4441C262.581 42.8233 261.011 43.7157 259.802 45.0041C259.224 45.6645 258.916 46.5192 258.942 47.3967C258.967 48.2743 259.323 49.1099 259.938 49.7361C258.861 50.6084 258.067 51.7821 257.66 53.1074C257.253 54.4326 257.25 55.8492 257.652 57.1761C258.742 59.7693 260.559 61.9919 262.884 63.5761C257.586 69.8941 256.342 80.0421 256.684 88.2801L237.896 87.4661C240 27.4001 239.922 30.8921 239.926 30.8001C241.526 30.8221 307.144 32.4001 307.144 32.4001C307.108 39.9181 306.81 75.9681 306.002 86.9081C304.116 87.6967 302.382 88.8072 300.876 90.1901L292.81 89.8421C293.081 86.7937 293.107 83.7286 292.89 80.6761H292.884ZM331.004 104.314C330.851 108.14 329.504 111.823 327.152 114.845C324.8 117.866 321.56 120.076 317.888 121.162C304.526 124.704 292.888 110.696 297.718 97.9221C298.986 94.6668 301.244 91.8915 304.173 89.9873C307.102 88.0831 310.554 87.146 314.044 87.3081C322.744 87.6961 331.2 94.6641 331.01 104.314H331.004Z" fill="#1D1D1B"/>
<path d="M271.168 50.718C271.341 50.718 271.511 50.6667 271.655 50.5704C271.799 50.4741 271.911 50.3373 271.977 50.1773C272.044 50.0172 272.061 49.8411 272.027 49.6711C271.993 49.5012 271.91 49.3451 271.788 49.2226C271.665 49.1001 271.509 49.0167 271.339 48.9829C271.169 48.9491 270.993 48.9664 270.833 49.0327C270.673 49.099 270.536 49.2113 270.44 49.3554C270.344 49.4994 270.292 49.6688 270.292 49.842C270.292 50.0744 270.384 50.2972 270.549 50.4615C270.713 50.6257 270.936 50.718 271.168 50.718ZM280.15 49.916C280.15 50.1484 280.242 50.3712 280.407 50.5355C280.571 50.6997 280.794 50.792 281.026 50.792C281.258 50.792 281.481 50.6997 281.646 50.5355C281.81 50.3712 281.902 50.1484 281.902 49.916C281.877 49.7014 281.774 49.5034 281.612 49.3598C281.451 49.2161 281.242 49.1367 281.026 49.1367C280.81 49.1367 280.601 49.2161 280.44 49.3598C280.278 49.5034 280.175 49.7014 280.15 49.916ZM157.588 26.936C157.349 26.944 157.122 27.0425 156.954 27.2114C156.785 27.3804 156.686 27.6072 156.678 27.846C156.644 29.782 154.63 86.364 154.63 86.364C154.633 86.6044 154.73 86.8341 154.9 87.0041C155.07 87.1741 155.3 87.2709 155.54 87.274C166.718 87.726 224.628 90.234 224.83 90.22C226.676 90.094 226.83 88.208 227.536 29.564C227.566 28.172 229.912 28.324 157.588 26.936ZM183.764 58.55C184.325 58.9222 184.919 59.2422 185.538 59.506C185.844 60.2558 186.275 60.9483 186.812 61.554C185.812 63.066 184.832 64.59 183.842 66.104C182.356 68.372 181.826 68.504 182.898 70.426C184.685 73.566 186.585 76.6327 188.598 79.626C188.691 79.7757 188.826 79.8955 188.985 79.9709C189.145 80.0464 189.323 80.0744 189.498 80.0517C189.673 80.0289 189.837 79.9563 189.972 79.8425C190.107 79.7288 190.206 79.5787 190.258 79.41C191.661 76.4262 193.226 73.5213 194.946 70.708C196.034 68.672 195.67 68.634 194.558 66.374C193.82 64.872 193.08 63.374 192.34 61.88C192.996 61.3478 193.446 60.604 193.614 59.776C194.487 59.5026 195.324 59.1245 196.106 58.65C202.584 61.822 204.688 69.796 205.342 77.01C205.564 80.5074 205.558 84.0154 205.326 87.512L172.886 86.112C172.41 76.09 174.498 62.464 183.764 58.55ZM188.24 62.696C189.036 63.0438 189.935 63.0767 190.754 62.788C191.414 64.096 193.114 67.56 193.308 67.958C193.432 68.22 193.786 68.656 193.79 68.942C193.79 69.342 190.752 74.108 189.24 77.28C187.562 74.7437 185.968 72.1523 184.462 69.51C184.026 68.748 183.686 69.646 188.24 62.696ZM188.052 60.2C189.165 60.3842 190.299 60.4037 191.418 60.258C191.206 60.5441 190.927 60.7744 190.607 60.9291C190.286 61.0837 189.932 61.1582 189.576 61.146C189.266 61.1179 188.967 61.0177 188.702 60.8535C188.438 60.6892 188.215 60.4655 188.052 60.2ZM180.76 51.2C180.694 50.9696 180.541 50.774 180.333 50.6552C180.124 50.5363 179.878 50.5036 179.646 50.564C179.453 50.6272 179.248 50.6427 179.048 50.6093C178.848 50.5758 178.659 50.4944 178.497 50.3719C178.335 50.2494 178.205 50.0896 178.119 49.9061C178.032 49.7225 177.992 49.5208 178 49.318C178.014 49.1222 178.072 48.9321 178.17 48.7617C178.267 48.5913 178.402 48.445 178.564 48.3337C178.725 48.2223 178.91 48.1487 179.104 48.1183C179.298 48.0879 179.496 48.1015 179.684 48.158C179.916 48.2189 180.163 48.1862 180.372 48.0668C180.58 47.9475 180.733 47.7512 180.798 47.52C180.808 47.4948 180.815 47.4687 180.82 47.442C181.233 45.2634 182.4 43.2997 184.116 41.8952C185.832 40.4907 187.987 39.7351 190.205 39.7609C192.422 39.7866 194.559 40.5921 196.242 42.0361C197.925 43.4801 199.046 45.4704 199.408 47.658C199.447 47.7909 199.515 47.9133 199.607 48.0161C199.7 48.119 199.814 48.1996 199.943 48.2521C200.071 48.3046 200.209 48.3275 200.347 48.3192C200.485 48.3109 200.619 48.2715 200.74 48.204C200.979 48.1032 201.242 48.0759 201.496 48.1256C201.751 48.1752 201.984 48.2996 202.167 48.4828C202.351 48.666 202.475 48.8996 202.525 49.1539C202.574 49.4081 202.547 49.6714 202.446 49.91C202.262 50.2359 201.957 50.476 201.597 50.5783C201.238 50.6805 200.852 50.6366 200.524 50.456C200.292 50.3929 200.044 50.4243 199.835 50.5435C199.626 50.6627 199.472 50.86 199.408 51.092C197.298 60.8 182.892 61.284 180.76 51.212V51.2ZM224.2 88.332L207.16 87.6C207.432 84.5272 207.464 81.4378 207.254 78.36C206.738 70.454 204.654 61.46 197.744 57.464C199.262 56.1085 200.371 54.355 200.944 52.402C201.671 52.4797 202.402 52.3004 203.011 51.8953C203.62 51.4901 204.067 50.8847 204.276 50.184C204.39 49.6968 204.386 49.1897 204.266 48.7041C204.146 48.2184 203.913 47.7681 203.586 47.3897C203.259 47.0114 202.846 46.7158 202.383 46.5271C201.92 46.3384 201.419 46.262 200.92 46.304C200.876 46.144 200.842 45.974 200.784 45.816C201.95 41.542 200.27 36.866 194.756 34.144C194.203 33.8089 193.554 33.6681 192.912 33.744C192.286 33.88 191.764 34.608 192.06 35.176C187.954 33.718 183.214 32.45 179.558 35.222C179.284 35.3993 179.066 35.6521 178.932 35.95C178.864 36.211 178.876 36.4867 178.967 36.7405C179.059 36.9944 179.225 37.2146 179.444 37.372C179.89 37.6754 180.393 37.8843 180.922 37.986C179.603 37.936 178.301 38.3027 177.202 39.034C175.735 39.6112 174.368 40.4172 173.152 41.422C172.767 41.7744 172.488 42.2274 172.346 42.7299C172.205 43.2325 172.207 43.7645 172.352 44.266C172.99 45.95 175.39 46.7 177.244 47.066C176.764 47.4634 176.419 47.9998 176.256 48.6014C176.093 49.2031 176.121 49.8404 176.336 50.4256C176.55 51.0108 176.941 51.5151 177.454 51.869C177.967 52.223 178.577 52.4092 179.2 52.402C179.732 54.2705 180.753 55.9629 182.158 57.304C172.758 62.034 170.568 75.546 171.044 86.04C162.678 85.68 156.672 85.42 156.484 85.414C156.54 83.788 158.484 30.834 158.498 28.74C160.098 28.762 225.728 30.34 225.728 30.34C225.298 64.428 225.064 84.034 224.2 88.332Z" fill="#1D1D1B"/>
<path d="M184.344 48.8581C184.527 48.8602 184.706 48.8043 184.855 48.6983C185.004 48.5923 185.116 48.4417 185.174 48.2683C185.232 48.0949 185.233 47.9075 185.178 47.7331C185.123 47.5588 185.014 47.4064 184.866 47.2981C184.701 47.1629 184.491 47.095 184.278 47.108C184.066 47.121 183.865 47.2139 183.718 47.3681C183.598 47.4916 183.517 47.6478 183.485 47.8171C183.453 47.9864 183.472 48.1613 183.538 48.3202C183.605 48.479 183.717 48.6147 183.86 48.7104C184.004 48.806 184.172 48.8574 184.344 48.8581ZM194.616 48.2941C194.616 48.5264 194.708 48.7492 194.873 48.9135C195.037 49.0778 195.26 49.1701 195.492 49.1701C195.725 49.1701 195.947 49.0778 196.112 48.9135C196.276 48.7492 196.368 48.5264 196.368 48.2941C196.339 48.0821 196.235 47.8878 196.074 47.747C195.913 47.6063 195.706 47.5287 195.492 47.5287C195.278 47.5287 195.072 47.6063 194.911 47.747C194.749 47.8878 194.645 48.0821 194.616 48.2941ZM274.894 69.8001C274.637 73.8714 274.57 77.9525 274.694 82.0301C274.694 82.2714 274.79 82.5029 274.961 82.6735C275.131 82.8442 275.363 82.9401 275.604 82.9401C275.846 82.9401 276.077 82.8442 276.248 82.6735C276.418 82.5029 276.514 82.2714 276.514 82.0301C276.391 77.9525 276.458 73.8714 276.714 69.8001C276.8 68.6281 274.97 68.6281 274.894 69.8001ZM278.706 73.6801C279.608 74.3721 280.816 73.0101 279.966 72.2461C279 71.3841 277.424 72.6981 278.706 73.6801ZM278.022 76.2501C277.604 77.1361 278.888 77.9581 279.66 77.2401C280.696 76.2781 278.698 74.8161 278.022 76.2501ZM279.784 46.2301C280.173 46.1935 280.562 46.2955 280.882 46.518C281.203 46.7405 281.435 47.0693 281.536 47.4461C281.552 47.5037 281.579 47.5577 281.615 47.605C281.652 47.6523 281.697 47.6919 281.749 47.7216C281.801 47.7514 281.858 47.7706 281.917 47.7782C281.976 47.7858 282.037 47.7817 282.094 47.7661C282.152 47.7504 282.206 47.7236 282.253 47.6871C282.3 47.6506 282.34 47.6052 282.37 47.5534C282.399 47.5015 282.419 47.4444 282.426 47.3851C282.434 47.3259 282.43 47.2657 282.414 47.2081C282.211 46.6752 281.856 46.213 281.395 45.8778C280.933 45.5426 280.384 45.3488 279.814 45.3201C279.698 45.3229 279.587 45.3702 279.504 45.4521C279.422 45.5341 279.373 45.6446 279.37 45.7609C279.366 45.8773 279.407 45.9907 279.484 46.0779C279.561 46.1651 279.668 46.2196 279.784 46.2301ZM269.064 47.5261C269.169 47.5842 269.292 47.6002 269.408 47.5708C269.525 47.5415 269.625 47.469 269.69 47.3681C269.951 47.0299 270.292 46.7615 270.681 46.587C271.071 46.4125 271.498 46.3373 271.924 46.3681C272.204 46.3481 272.244 45.5961 271.81 45.5381C269.812 45.2781 268.262 47.0941 269.064 47.5261ZM271.852 53.1521C271.782 53.103 271.715 53.0496 271.652 52.9921C270.788 52.2081 269.49 53.4941 270.366 54.2781C271.493 55.3502 272.913 56.064 274.446 56.3292C275.979 56.5944 277.556 56.3992 278.978 55.7681C278.539 56.3105 277.943 56.7038 277.272 56.8941C276.072 57.2501 276.802 59.1261 277.806 58.6241C278.903 58.2625 279.859 57.5666 280.541 56.6341C281.222 55.7015 281.595 54.579 281.606 53.4241C281.601 53.2461 281.544 53.0734 281.443 52.9268C281.342 52.7802 281.201 52.6659 281.036 52.5975C280.872 52.5291 280.691 52.5096 280.516 52.5412C280.341 52.5729 280.178 52.6544 280.048 52.7761C279.545 53.3403 278.936 53.7996 278.255 54.1275C277.573 54.4554 276.834 54.6455 276.079 54.6867C275.325 54.728 274.569 54.6196 273.856 54.3679C273.144 54.1163 272.488 53.7262 271.926 53.2201C271.908 53.1915 271.882 53.1681 271.852 53.1521ZM183.912 45.0741C184.069 45.162 184.255 45.185 184.429 45.1383C184.603 45.0916 184.752 44.9789 184.844 44.8241C185.258 43.9961 186.044 44.5201 186.494 44.2681C186.609 44.199 186.701 44.0981 186.759 43.9777C186.817 43.8573 186.839 43.7226 186.822 43.59C186.805 43.4573 186.75 43.3325 186.663 43.2306C186.577 43.1287 186.462 43.0542 186.334 43.0161C184.42 42.6001 182.868 44.5261 183.912 45.0741ZM194.104 44.1141C194.396 44.0884 194.69 44.1365 194.958 44.2539C195.226 44.3713 195.461 44.5543 195.64 44.7861C196.136 45.3861 197.25 44.6041 196.594 43.8301C196.29 43.4693 195.905 43.1855 195.47 43.0017C195.035 42.8178 194.563 42.7392 194.092 42.7721C194.001 42.768 193.91 42.7825 193.825 42.8148C193.739 42.847 193.661 42.8964 193.595 42.9598C193.53 43.0231 193.478 43.0993 193.442 43.1834C193.407 43.2676 193.389 43.3581 193.39 43.4494C193.391 43.5407 193.41 43.6309 193.447 43.7144C193.484 43.7979 193.537 43.8731 193.604 43.9353C193.671 43.9975 193.75 44.0454 193.836 44.0762C193.922 44.1069 194.013 44.1198 194.104 44.1141ZM185.97 51.5141C185.976 51.7218 186.051 51.9218 186.182 52.0825C186.314 52.2432 186.496 52.3556 186.698 52.4021C186.763 52.8611 186.92 53.3025 187.158 53.7C187.397 54.0976 187.712 54.4434 188.087 54.7169C188.461 54.9904 188.887 55.1861 189.338 55.2924C189.789 55.3988 190.257 55.4136 190.714 55.3361C192.998 54.9361 192.8 51.2501 191.544 50.7361C191.168 50.5681 191.222 50.6221 186.88 50.5821C186.638 50.5903 186.408 50.6918 186.238 50.8654C186.069 51.0391 185.973 51.2714 185.97 51.5141ZM336.788 194.274C327.206 189.368 317.2 198.274 312.206 205.898C310.306 208.8 308.206 212.438 308.384 216.024C308.65 221.424 314.67 226.186 324.584 223.69C333.804 221.394 341.458 213.144 342.046 203.852C342.304 201.904 341.933 199.924 340.988 198.201C340.042 196.478 338.57 195.102 336.788 194.274ZM320.556 199.336C323.26 197.136 328.556 193.524 331.842 194.706C331.772 195.616 330.51 196.424 329.964 197.14C329.629 197.798 329.245 198.429 328.814 199.028C327.838 199.984 325.59 200.038 325.048 201.94C322.922 201.69 320.796 201.212 318.634 201.042C318.952 201.054 320.26 199.576 320.556 199.336ZM316.7 222.28C315.199 222.085 313.789 221.451 312.648 220.457C311.506 219.463 310.684 218.154 310.284 216.694C309.484 212.35 314.114 205.87 316.996 202.694C319.667 202.835 322.322 203.188 324.936 203.752C325.092 204.376 325.41 204.948 325.858 205.41C326.305 205.871 326.867 206.206 327.487 206.381C328.106 206.555 328.76 206.563 329.383 206.403C330.006 206.243 330.576 205.921 331.034 205.47C337.38 207.72 338.22 209.07 339.086 208.916C335.486 218.128 325.05 223.954 316.7 222.28ZM340.258 203.08C340.241 204.564 340.016 206.039 339.588 207.46C339.532 207.395 339.464 207.341 339.388 207.3C336.983 205.962 334.472 204.825 331.88 203.9C332.033 203.389 332.067 202.849 331.978 202.322C331.889 201.796 331.681 201.297 331.368 200.864C330.73 200.01 330.23 200.226 330.744 199.202C331.677 197.655 332.873 196.285 334.28 195.152C338.778 196.834 340.286 199.458 340.258 203.078V203.08Z" fill="#1D1D1B"/>
<path d="M366.514 160.226C368.81 159.46 371.956 160.21 377.344 157.108C379.084 156.096 381.756 154.508 381.404 152.138C381.018 149.578 378.128 148.952 376.004 149.464C372.429 150.489 369.155 152.362 366.46 154.924C366.438 154.481 366.404 154.038 366.358 153.594C367.91 149.642 373.134 147.128 375.606 141.08C376.574 138.704 377.688 134.28 374.266 133.242C370.666 132.15 368.624 136.178 367.314 138.76C366.323 140.711 365.439 142.714 364.664 144.76C364.378 143.828 364.064 142.906 363.72 141.996C361.644 136.574 357.362 133.154 355.426 134.476C353.808 135.594 354.71 139.732 355.574 141.758C357.398 145.393 359.949 148.615 363.07 151.222C363.224 151.363 363.42 151.449 363.628 151.468C363.836 151.486 364.044 151.436 364.22 151.324C364.596 153.962 364.5 153.272 364.288 154.202C361.203 152.194 357.878 150.581 354.39 149.402C353.818 149.093 353.183 148.916 352.533 148.887C351.883 148.857 351.234 148.974 350.636 149.23C350.187 149.539 349.825 149.959 349.588 150.45C349.351 150.941 349.246 151.486 349.284 152.03C349.594 156.778 359.018 161.564 364.732 158.718C364.732 158.866 364.732 159.014 364.72 159.162C364.14 159.567 363.697 160.138 363.446 160.8C363.162 161.516 363.822 161.96 364.424 161.88C364.506 162.219 364.533 162.569 364.504 162.916C365.104 162.894 365.704 162.858 366.304 162.836C366.412 161.944 366.48 161.09 366.514 160.226Z" fill="#86F2AA"/>
<path d="M387.432 166.834C387.344 165.417 387.163 164.007 386.888 162.614C386.835 162.422 386.72 162.252 386.562 162.131C386.403 162.01 386.21 161.943 386.01 161.942C381.164 162.16 345.026 163.728 343.274 163.808C342.796 163.808 342.474 163.988 342.396 164.468C340.3 176.434 341.646 189.09 352.318 195.092C359.573 198.666 367.922 199.326 375.648 196.934C386.642 192.562 388.536 178.66 387.432 166.834Z" fill="#FF9F48"/>
<path d="M106.694 84.884C108.872 84.1075 111.211 83.8922 113.494 84.258C111.511 76.8756 108.85 69.6924 105.544 62.8C101.014 53.6 96.2861 47.164 87.6041 44.304C86.8369 43.9602 86.0061 43.7815 85.1654 43.7794C84.3247 43.7774 83.493 43.952 82.7241 44.292C87.9107 46.8161 92.4901 50.4321 96.1481 54.892C102.73 63.5314 106.421 74.0263 106.694 84.884Z" fill="#AC47F5"/>
<path d="M97.0921 98.4C96.3328 101.508 96.6562 104.783 98.0089 107.683C99.3615 110.582 101.663 112.934 104.532 114.35C107.194 115.569 110.167 115.937 113.046 115.404C115.925 114.87 118.569 113.462 120.618 111.37C125.326 106.272 125.35 97.844 121.766 92.17C114.2 80.53 99.9781 86.506 97.0921 98.4Z" fill="#AC47F5"/>
</svg>
