<svg width="400" height="400" viewBox="0 0 400 400" fill="none" xmlns="http://www.w3.org/2000/svg">
<path d="M82.0999 231.74C88.9057 227.454 95.165 222.357 100.74 216.56C107.66 208.88 114.38 203.5 116.5 201C118.62 198.5 124.94 190.24 127.06 189C129.18 187.76 140.32 179.58 141.06 179.4C141.8 179.22 167.2 173.54 167.2 173.54C167.2 173.54 242.32 155.86 243.08 155.1C243.84 154.34 248.08 154.9 252.5 155.48C256.92 156.06 269.2 155.48 272.08 157.78C277.003 161.757 281.653 166.06 286 170.66C288.5 173.72 290.62 179.68 296.76 181.98C302.9 184.28 306.18 189.66 308.1 191.78C310.02 193.9 315.78 201 318.1 202.34C320.42 203.68 329.82 208.68 330 211.56C330.18 214.44 316 281.3 316 281.3C312.811 278.613 309.472 276.109 306 273.8C296 266.04 299.84 268.92 288.62 261.22L289.88 274.16C289.88 274.16 289.26 297.28 286.94 313.04C284.62 328.8 284.2 339.52 284.94 341.2C285.68 342.88 289.88 362.02 290.3 365.38C290.72 368.74 292.3 379.38 292.3 379.38C176.3 379.38 212.3 379.92 131.58 377.38C131.186 373.525 131.334 369.634 132.02 365.82C133.16 361.72 134.84 330.2 134.54 322.62C134.24 315.04 134.32 293.1 132.22 286.16C130.923 281.771 130.079 277.261 129.7 272.7C129.7 272.7 107.7 292.88 105.2 293.62C102.7 294.36 82.0999 231.74 82.0999 231.74Z" fill="white"/>
<path d="M143.24 183.08C142.046 182.409 140.897 181.66 139.8 180.84C141.3 179.98 142.46 179.38 143 179.14C145 178.24 152.28 175.52 157.82 176.3C163.36 177.08 243.06 162.12 243.06 162.12C243.06 162.12 242.4 155.66 243.58 154.76C244.76 153.86 247.32 155.02 249.58 155.02C259.68 156.48 259.96 155.48 264.74 156.34C260.545 159.574 255.803 162.026 250.74 163.58C237.8 167.58 200.74 175.76 187.64 178.54L171.8 181.8C160.98 184 150.34 187.06 143.24 183.08Z" fill="#C5CDF3"/>
<path d="M122.84 194.16C125.548 190.982 128.623 188.135 132 185.68C134.194 188.515 136.977 190.84 140.157 192.494C143.338 194.148 146.839 195.092 150.42 195.26C155.656 195.42 160.891 194.916 166 193.76C190 189.5 223.68 182.24 249.86 175.32C262.02 172.1 267.4 168.64 276.86 160.88C279.38 162.7 279.22 163.18 285.4 171.24C258.28 187.82 229.16 192.42 196.42 198.84C169.68 204 162.86 205.8 154.2 205.42C142.857 204.881 131.935 200.96 122.84 194.16V194.16Z" fill="#C5CDF3"/>
<path d="M108.32 209.76C109.794 208.362 111.084 206.783 112.16 205.06L116.88 200.28C120.13 203.446 123.757 206.2 127.68 208.48C149.68 221.16 166.64 216.48 191.26 212.22C217.62 207.76 244.5 203.54 269.42 193.46C277.929 190.156 286.089 186.015 293.78 181.1C294.135 181.463 294.556 181.755 295.02 181.96C298.251 183.6 301.279 185.614 304.04 187.96C301.84 189.1 289.2 195.96 283.38 199.58C277.56 203.2 271.54 207.58 264.9 210.34C257.26 213.4 249.52 214.34 230.56 218.16C227.84 218.7 228.34 221.28 221.66 223.78C215.48 226.08 212.8 224.56 206.58 227.36C201.46 229.66 199.74 228.46 194.3 229.36C190.86 229.92 188.48 228.98 184 226.28C173.34 227.98 163.32 231.58 147.64 228.56C136.74 226.52 127.02 219.22 108.32 209.76Z" fill="#C5CDF3"/>
<path d="M173.52 313.16C179.82 312.94 186.1 312.88 192.4 312.42C221.94 310.24 259.7 303.12 289.02 296.68C289.62 288.694 289.733 280.679 289.36 272.68C277.932 276.66 266.278 279.959 254.46 282.56C233.612 286.962 212.532 290.181 191.32 292.2C171.84 294.2 150.72 298.4 132.34 289.96C133.478 295.763 134.147 301.649 134.34 307.56C146.915 311.94 160.221 313.842 173.52 313.16Z" fill="#C5CDF3"/>
<path d="M311.08 195.64C308.26 196.8 305.24 198.02 302.52 199.36C294.88 203.12 291.24 209.36 284.22 214.2C277.56 218.72 274.66 224.84 266.8 226.78C258.94 228.72 243.02 231.78 235.06 233.34C218.88 236.5 205.64 238.12 189.34 240.6C180.92 241.86 166.42 242.74 157.94 243.52C150.12 244.24 142.92 241.52 135.36 238.8C127.8 236.08 124.24 229.7 117.52 225.5C112.14 222.14 107.04 219.7 101.76 216.2C98.8398 219.76 97.2798 219.9 94.3398 223.1C102.236 231.298 108.603 240.841 113.14 251.28C117.054 260.138 120.257 269.294 122.72 278.66C125.6 275.88 128.42 273.12 129.44 272.1C129.438 274.312 129.558 276.522 129.8 278.72C140.81 282.374 152.424 283.861 164 283.1C189.42 281.1 192 281.42 226.8 275.3C246.706 271.843 266.288 266.725 285.34 260C286.104 259.738 286.916 259.642 287.72 259.72C282.16 247.72 285.94 234.6 289.06 228.46C292.898 222.003 297.816 216.253 303.6 211.46C306.741 208.906 310.086 206.611 313.6 204.6C315.04 203.8 316.56 203.08 318.06 202.32C315.247 200.665 312.857 198.378 311.08 195.64V195.64ZM254 255.78C225.46 262.28 175.38 270.42 146.68 268.72C139.82 268.3 135.04 267.6 129.26 264.06C127.66 263.08 129.26 256.06 125.96 251.44C126.382 251.323 126.824 251.295 127.257 251.357C127.691 251.419 128.107 251.57 128.48 251.8C136.18 256.3 145.34 256.66 154.04 256.36C172.76 255.72 190.04 255.04 208.42 251.82C232.42 247.66 249 244.92 270.82 237.08C273.76 240.46 274.52 243.72 276.24 246.72C270.88 248.56 259.6 254.5 254 255.78Z" fill="#C5CDF3"/>
<path d="M88.6399 227.78C85.4799 230.14 80.8999 233.44 80.6399 233.56L105.78 293.56C106.48 293.74 109.66 291.12 114.56 286.58C111.679 275.99 108.213 265.567 104.18 255.36C100.187 245.546 94.9656 236.279 88.6399 227.78V227.78Z" fill="#C5CDF3"/>
<path d="M151.26 341.2C156.855 341.933 162.51 342.107 168.14 341.72C207.518 340.29 246.702 335.485 285.26 327.36C285.48 323.64 286.28 315.52 286.84 309.74C259.92 315.24 230.98 320.74 203.58 322.86C190.68 323.88 171.88 325.76 159.04 324.06C147.7 322.56 144.9 321.58 134.58 316.9C133.88 322.56 134 330.08 133.8 335.72C134.225 335.745 134.638 335.875 135 336.1C140.049 338.811 145.567 340.541 151.26 341.2V341.2Z" fill="#C5CDF3"/>
<path d="M326.76 208.62C318.6 214.62 310.24 216.62 303.42 230.06C302.72 231.44 302.32 232.44 302.2 232.64C299.14 240.113 298.112 248.262 299.22 256.26C299.847 258.54 299.97 260.928 299.58 263.26C299.372 264.05 298.984 264.78 298.446 265.394C297.908 266.009 297.235 266.49 296.48 266.8C303.052 271.243 309.289 276.163 315.14 281.52C315.14 281.52 330.22 215.1 330.62 213.3C330.8 212.44 329.04 210.58 326.76 208.62Z" fill="#C5CDF3"/>
<path d="M200.4 377.16C187.68 377.76 173.54 378.48 160.82 377.76C150.82 377.2 141.08 376.84 131.24 374.38C131.197 375.715 131.244 377.051 131.38 378.38C134.1 382.76 148.02 380.58 157.18 382.38C166.34 384.18 199.18 380.82 207.18 382.64C215.18 384.46 246.12 381.6 253.18 382.24C260.24 382.88 270.06 380.06 276.12 382.24C282.18 384.42 292.12 380.82 292.12 380.82C292.12 380.82 291.5 376.82 290.92 372.72C286.88 373.12 226.86 376 200.4 377.16Z" fill="#C5CDF3"/>
<path d="M167.12 368.32C203.54 368.18 252.96 365.04 289.12 361.32C288.16 354.723 286.824 348.185 285.12 341.74C256.244 348.304 226.732 351.658 197.12 351.74C185.34 352.58 166.34 353.74 154.56 352.68C149.16 352.16 137.5 348.48 133.88 345.72C133.42 354.76 132.14 365.72 132.08 366.08C143.667 367.893 155.396 368.643 167.12 368.32Z" fill="#C5CDF3"/>
<path d="M378.42 215.14C378.454 215.496 378.392 215.854 378.241 216.177C378.09 216.501 377.855 216.778 377.56 216.98C375.96 218.18 377.56 216.3 375.98 211.34C375.72 210.5 376.12 210.82 377.58 209.64C378 209.26 377.8 209.16 378.42 215.14Z" fill="#F0F6FF"/>
<path d="M374 211.56C374.28 211.42 375.78 218.66 373.52 218.16C373.06 218.16 373.08 217.6 372.32 213.76C372.14 212.42 371.88 212.68 374 211.56Z" fill="#F0F6FF"/>
<path d="M371.32 218.48C370.96 219.16 371.72 218.64 368.58 219.72C367.82 220 367.88 219.72 366.84 214.18C366.84 213.78 367.56 213.52 369.74 212.96C370.66 212.74 370.42 212.92 371.32 218.48Z" fill="#F0F6FF"/>
<path d="M352.2 210.36C352.72 212.22 353.84 209.7 354.2 217.46C354.2 218.16 354.2 218.16 353.54 218C351.76 217.56 351.54 217.28 351.54 215.46C351.42 212.96 350.84 209.46 351.54 209.46C352.24 209.46 352.1 210 352.2 210.36Z" fill="#F0F6FF"/>
<path d="M358.96 213.58C359.98 220.04 360.16 219.72 359.4 219.58C356.74 218.98 356.52 219.22 356.42 218.56C355.52 212 355.24 212.46 356.3 212.18C359.18 213.44 358.9 213.26 358.96 213.58Z" fill="#F0F6FF"/>
<path d="M365.04 214.62C365.96 219.7 366.28 219.92 365.46 219.92C362.8 219.92 362.1 220.48 361.94 219.5C360.84 213.2 360.48 213.68 361.56 213.8C364.6 214.14 364.88 213.78 365.04 214.62Z" fill="#F0F6FF"/>
<path d="M80.1799 132C80.7399 132.7 80.7199 133.4 79.8199 134.36C78.3038 135.879 76.694 137.302 74.9999 138.62C70.6599 142.14 70.8399 141.58 70.6199 141.1C69.1531 137.71 68.0924 134.159 67.4599 130.52C67.0599 128.96 66.2399 128.1 64.9799 128.14C64.1825 128.155 63.4009 128.365 62.7036 128.752C62.0063 129.139 61.4144 129.691 60.9799 130.36C56.9799 135.56 60.8199 146.76 60.9799 148.92C60.9799 148.92 44.6999 162.92 35.3799 170.28C30.5199 174.12 30.9399 174.28 20.7399 159.72C17.6399 155.32 18.5799 157 20.5799 157.96C21.8359 158.602 23.1861 159.041 24.5799 159.26C29.2999 159.88 30.0799 157.08 30.2999 156.54C31.6999 152.8 30.5799 152.4 26.6799 148.16C25.5599 146.92 29.8399 150.02 33.7999 151.1C37.2199 152.04 39.1399 149.42 40.2199 146.04C40.5199 145.1 43.1799 145.46 44.6599 142.5C45.7599 140.34 43.6399 138.88 46.0799 138.3C50.5199 137.22 49.3199 131.42 48.2199 126.96C48.2199 126.72 48.2199 126.3 48.8999 125.66C51.6199 122.68 62.0399 114.56 62.5399 114.14C63.0399 113.72 63.4998 113.48 64.0198 113.78C66.1998 115.1 72.3399 122.28 80.1799 132Z" fill="#F0F6FF"/>
<path d="M14.5399 153.44C18.6231 160.247 23.2658 166.703 28.4199 172.74C30.8799 175.42 33.2999 174.36 36.2599 171.98C48.0399 162.46 48.8999 160.46 45.1599 166.54C42.5399 170.78 45.6399 167.74 35.6199 175.66C33.1399 177.66 31.6199 178.1 30.6599 177.9C29.6681 177.796 28.7566 177.307 28.1199 176.54C22.3726 170.572 17.2339 164.046 12.7799 157.06C11.7799 155.22 12.1399 154.88 12.3799 154.52C12.7975 153.966 13.3477 153.526 13.9799 153.24C14.0292 153.213 14.0836 153.197 14.1395 153.193C14.1954 153.189 14.2516 153.196 14.3044 153.215C14.3572 153.234 14.4055 153.264 14.446 153.303C14.4866 153.341 14.5186 153.388 14.5399 153.44V153.44Z" fill="white"/>
<path d="M72.5398 146.18C72.0198 146.62 72.0398 146.18 71.8998 145.46C71.5398 143.94 71.0598 143.68 72.0198 142.94C82.7198 134.72 83.3798 133.8 81.6598 131.2C76.5088 124.586 70.9796 118.275 65.0998 112.3C63.6198 111.12 63.7398 111.38 48.1198 124.3C47.6998 124.66 47.6398 124.1 47.5598 123.88C46.7998 121.76 45.9398 122.28 53.2798 116.42C58.1598 112.52 60.9798 109.92 62.8598 108.78C65.8798 106.98 65.3798 106.78 78.1998 121.62C90.6798 136 90.2198 131.56 72.5398 146.18Z" fill="white"/>
<path d="M219.84 119.74C219.84 119.84 219.84 120.28 219.84 120.56C219.98 123 219.48 123.02 217.56 122.84C216.94 122.84 216.48 122.74 216.3 122.42C216.21 122.025 216.21 121.615 216.3 121.22C216.3 120.26 216.3 119.82 216.54 119.7C216.78 119.58 217.3 119.82 217.78 119.86C218.96 120 219.62 119.48 219.84 119.74Z" fill="white"/>
<path d="M218 101.64C220.66 104.56 220 113.64 220 117.32C220 118.42 217.8 118.48 216.98 118.16C216.16 117.84 216.98 117.54 216.54 112.54C216.28 108.82 213.1 110.18 213.92 107.76C214.294 106.782 214.435 105.731 214.331 104.689C214.227 103.647 213.88 102.644 213.32 101.76C212.58 100.18 216.48 100 218 101.64Z" fill="white"/>
<path d="M220.72 47.7799C221.468 49.2451 221.832 50.8758 221.78 52.5199C221.66 53.6799 221.64 54.6599 220.72 54.8399C218.326 55.3949 216.146 56.6368 214.447 58.4132C212.749 60.1897 211.607 62.4233 211.16 64.8399C210.74 68.1399 211.68 71.1799 211.16 73.2599C210.24 77.2599 211.98 79.2599 211.52 84.7199C211.36 86.5399 210.7 86.1199 208.28 87.2199C204.4 88.9799 204.04 92.1999 203.32 96.1999C202.48 100.88 204.16 102.2 203.02 102.52C194.86 104.52 198.84 105.12 195.74 97.1599C194.22 93.2799 199.52 91.8799 191.74 87.1599C191.195 86.836 190.746 86.3722 190.44 85.8167C190.134 85.2611 189.982 84.6339 190 83.9999C190.9 79.7399 196 76.9999 188.44 71.5999C186.98 70.5399 187.86 68.7999 188.8 67.0399C192.24 60.6199 186.16 63.0399 183.54 62.8599C180.02 62.6999 181.88 56.1599 175.2 60.6799C171.5 63.1999 171.34 56.2799 167.62 58.4999C163.9 60.7199 164.22 61.4799 158.68 59.0799C158.116 58.7864 157.46 58.7245 156.851 58.9075C156.242 59.0906 155.728 59.504 155.42 60.0599C154.725 61.2919 153.589 62.214 152.24 62.6399C150.24 63.5999 147.92 60.7799 146.06 63.8399C144.56 66.2999 143.68 67.5199 141.6 66.8799C136 65.1199 136.94 67.1999 134.18 71.0599C133.32 72.2599 132.18 71.9999 130.74 72.1599C128.74 72.3999 129.76 73.5599 127.44 76.1599C123.32 80.8599 121.16 78.6799 116.34 78.6999C109.04 78.6999 110.04 85.6999 105.84 77.6799C105.56 77.1399 105.42 76.3799 105.84 76.0199C109.061 73.4378 113.144 72.1792 117.26 72.4999C119.26 72.4999 119.26 70.8199 118.28 69.9799C116.773 68.8638 115.182 67.8674 113.52 66.9999C109.52 64.5199 103.14 66.9999 103.28 64.9999C103.74 58.7599 103.82 58.6399 104.2 58.5799C108.98 57.7599 118.74 61.1399 120.98 63.3399C123.22 65.5399 126.48 62.2599 118.26 54.5399C116.652 53.2893 114.726 52.5134 112.7 52.2999C111.006 51.8864 109.41 51.1459 108 50.1199C107.674 49.9451 107.422 49.659 107.29 49.3139C107.158 48.9687 107.154 48.5876 107.28 48.2399C108.6 43.7599 107.92 43.8999 109.68 44.1199C117.48 45.1199 116 48.4799 120.7 49.5799C123.14 50.1599 124.22 52.4599 126.92 56.0999C127.6 57.0199 129.1 57.0799 128.82 55.5999C128.2 52.3199 117.82 38.7999 119.42 32.0599C119.42 31.7599 119.58 31.5199 119.9 31.4999C122.16 31.2799 125.02 27.8599 125.8 30.9999C127.8 38.9999 127.8 35.3399 128.72 40.0199C129.535 42.9578 131.173 45.6015 133.44 47.6399C135.3 49.7599 135.44 50.8199 136.44 51.2199C137.44 51.6199 137.94 50.1999 137.5 49.4199C135.08 45.2799 135.14 46.0999 135.04 45.4199C134.56 43.2595 134.319 41.053 134.32 38.8399C135.22 30.2999 131.9 25.5599 138.16 25.5599C141.74 25.3599 141.46 24.9999 141 27.0999C139.76 32.7199 140.54 30.9599 140.48 33.0999C140.48 38.2599 138.68 38.6999 142.96 45.4799C144.02 47.1799 146.96 46.2999 146.3 39.5799C146.1 37.3799 147.16 37.1999 148.04 35.0999C150.26 29.7399 147.36 31.1999 150.38 25.2799C151.86 22.3799 153.34 23.9999 157.22 24.1199C158.04 24.1199 158.02 24.1199 158.06 25.0799C158.088 26.1319 157.757 27.1621 157.12 27.9999C154.42 31.9999 156.14 34.8399 154.22 37.5799C153.561 38.6012 153.18 39.7763 153.113 40.9896C153.047 42.2029 153.297 43.4127 153.84 44.4999C154.38 45.9799 156.22 45.8799 155.84 43.9799C155.46 42.0799 154.74 41.1999 155.84 39.2399C156.836 37.8887 157.382 36.2585 157.4 34.5799C158 28.7599 160.58 28.8599 160.28 24.2999C160.1 21.8999 158.84 21.8999 157.02 21.5999C157.02 21.2799 157.18 19.3799 159.02 19.2599C160.86 19.1399 165.02 19.1399 164.92 20.8399C164 35.9999 159.84 26.9799 163.34 41.9999C163.46 42.4999 163.5 43.0999 164.26 43.2199C166.54 43.5799 165.06 41.0399 167.82 37.0599C172.62 30.1799 169.68 27.9199 173 22.5599C174.52 20.0799 174.54 18.4599 181.88 21.3199C183.08 21.7999 181.04 25.8599 180.24 26.8799C176.5 31.7799 172.36 44.6599 178.66 42.8799C181.4 42.0999 182.02 40.5399 182.66 37.7199C184.097 33.842 186.248 30.2672 189 27.1799C192.34 24.1599 192.7 24.8799 193.98 25.3599C194.912 25.7631 195.776 26.3097 196.54 26.9799C197.48 28.1999 197.26 27.4199 192.54 33.7599C191.34 35.3399 192.54 35.4599 189.74 39.0999C186.68 43.0999 189.34 47.3799 192.2 45.8599C193.42 45.2199 194.2 45.3199 195.18 43.8599C197.44 40.4399 199.18 35.2999 206.7 30.9399C207.1 30.7199 207.92 30.3399 208.22 30.6799C210.46 33.0999 213.14 35.4199 212.22 38.6799C211.9 39.7399 202.22 43.7399 202.22 49.6199C202.22 53.4599 205.14 54.9999 207.02 53.2399C209.111 51.018 211.583 49.1891 214.32 47.8399C217.02 46.4199 219.54 44.8199 220.72 47.7799Z" fill="#585858"/>
<path d="M168 134.54C173.8 134.06 177.32 131.36 178.3 131.54C178.092 132.12 177.787 132.661 177.4 133.14C171.94 139.14 170.78 141.14 167.58 140.98C164.208 140.612 160.906 139.757 157.78 138.44C157.734 138.414 157.696 138.376 157.67 138.33C157.644 138.285 157.63 138.233 157.63 138.18C157.63 138.127 157.644 138.075 157.67 138.03C157.696 137.984 157.734 137.946 157.78 137.92C160.76 135.56 166.94 134.64 168 134.54Z" fill="white"/>
<path d="M47.3199 132.92C47.4056 133.577 47.284 134.244 46.9721 134.829C46.6601 135.413 46.1734 135.886 45.5799 136.18C42.9199 137.04 42.9399 136.18 39.5799 131.42C37.6958 129.062 36.5977 126.174 36.4399 123.16C36.4791 122.037 36.9176 120.965 37.6764 120.137C38.4353 119.308 39.4648 118.777 40.5799 118.64C41.0637 118.508 41.5756 118.521 42.0521 118.678C42.5285 118.834 42.9485 119.127 43.2599 119.52C45.3199 122.16 46.8599 128.8 47.3199 132.92Z" fill="#C49E91"/>
<path d="M41.9998 142.3C41.5085 142.801 40.915 143.189 40.2598 143.44C39.8666 143.551 39.4497 143.545 39.0594 143.425C38.6691 143.304 38.322 143.073 38.0598 142.76C30.1798 136.2 28.5398 136.42 27.3398 133.64C25.7998 130.08 24.3398 128.12 26.7398 126.4C31.3398 123.16 30.5598 122.3 38.9398 134.8C42.6798 140.34 43.5198 141.16 41.9998 142.3Z" fill="#C49E91"/>
<path d="M37.5799 145.52C37.9999 146.24 37.5799 146.98 37.1599 147.74C36.9526 148.213 36.5703 148.588 36.0932 148.785C35.616 148.983 35.0809 148.988 34.5999 148.8C26.2199 146.8 23.6599 140.5 23.1199 144.26C23.1199 144.56 23.1199 144.76 22.7799 144.46C21.9799 143.88 17.1799 141.5 18.9199 138.32C19.8399 136.66 19.3999 135.5 22.5399 135.02C23.7684 135.034 24.9575 135.456 25.9199 136.22C30.7199 140.8 36.2799 143.18 37.5799 145.52Z" fill="#C49E91"/>
<path d="M28.24 153.58C28.48 153.88 29 154.76 27.96 156.4C27.62 156.96 26.86 157 25.96 156.96C19.72 156.28 15.66 149.56 13.76 150.64C13.08 151.02 12.06 149.16 12.72 147.72C13.8 145.4 15.44 143.12 17.76 144.22C21.7604 146.721 25.3046 149.886 28.24 153.58V153.58Z" fill="#C49E91"/>
<path d="M374.72 163.58C374.72 165.58 373.74 163.78 370.94 168.08C363.04 180.22 363.98 173.64 364.24 185.46C364.36 190.8 364.24 190.88 363.44 190.68C363.08 190.68 362.44 191.48 361.58 190.8C360.914 190.405 360.426 189.767 360.22 189.02C359.881 187.412 359.66 185.781 359.56 184.14C359.36 178.14 356.82 174.7 359.56 171.9C362.94 168.52 368.94 159.16 370.98 160.36C373.36 161.72 374.66 161.78 374.72 163.58Z" fill="#C49E91"/>
<path d="M366.6 157.24C367.62 159.76 367.48 158.48 363.14 163.82C356.36 172.14 357.4 170.7 357.14 171.1C353.72 177.36 359.14 181.64 356.46 186.68C356.41 186.728 356.35 186.765 356.284 186.785C356.218 186.806 356.148 186.811 356.08 186.8C355.58 186.46 355.08 186.66 354.56 186.8C352.74 187.02 353 185.4 352.78 182.66C353.04 176.9 349.54 169.12 352.32 165.9C356.1 161.54 359.64 154.62 362.98 154.6C363.804 154.509 364.632 154.729 365.302 155.217C365.972 155.706 366.435 156.427 366.6 157.24V157.24Z" fill="#C49E91"/>
<path d="M356.2 155.14C356.46 156.62 355.94 156.98 352.2 162.26C351.44 163.32 351.88 157.82 349.72 158.42C348.88 158.66 349.14 160.08 349.32 160.56C350.64 163.98 348.48 168.42 349.2 173.16C349.68 176.24 343.8 180.96 343.88 170.3C343.689 167.658 343.165 165.051 342.32 162.54C341.62 160 342.5 159.06 346.32 150.8C347 149.36 347.36 148.8 348.32 148.8C356.74 148.84 354.64 146.66 356.2 155.14Z" fill="#C49E91"/>
<path d="M365.36 193.3C365.1 194.28 361.36 199.64 363.36 205.98C364.1 208.28 366.66 208.52 365.48 205.56C364 201.88 365.2 198.1 367.24 194.56C368.04 193.2 370.52 196.32 373.34 189.08C374.22 186.82 374.12 185.8 374.14 181.78C374.14 180.96 374.46 181.36 376.14 181.5C376.92 181.5 377.38 179.98 376.42 179.8C375.46 179.62 376.42 179.18 377.16 177.98C378.12 176.14 376.94 175.24 375.98 175.98C375.68 176.2 373.98 178.26 372.78 179.58C370.5 182 373.68 184.36 369.96 190.54C368.58 192.84 366.08 191.78 366.1 190.36C366.1 186.78 365.96 187.24 366.34 187.24C365.16 173.9 366.34 178.86 370.44 172.56C373.8 167.32 374.44 166.7 376.44 167.06C384.84 168.6 380.44 175.6 381.08 183.22C382.24 196 375.82 199.84 376.76 205.34C376.76 205.7 377.24 206.26 377.12 206.4C376.548 207.189 375.836 207.867 375.02 208.4C364 214.24 359.48 210.66 356.16 210.12C355 209.94 354.38 210.44 353.94 209.46C351.14 202.98 347.74 202.86 346.76 200.06C345.855 197.459 345.186 194.781 344.76 192.06C343.74 187.66 341.82 188.9 340.52 184.24C336.42 169.58 337.04 176.24 334.52 164.48C333.995 161.997 333.224 159.571 332.22 157.24C331.32 154.54 334.22 154.18 337.02 156.78C338.144 157.969 339.021 159.37 339.6 160.9C339.36 163.08 341.44 167.48 341.34 170.9C341.34 172.46 342.28 178.1 343.66 178.9C349.76 182.04 350.24 172.36 350.54 184.44C350.72 191.58 355.4 188.44 356.54 190.02C359.36 193.82 359.18 200.26 360.64 200.56C361 200.56 361.54 200.76 361.72 200.56C361.888 200.381 362.009 200.163 362.072 199.925C362.135 199.688 362.138 199.439 362.08 199.2C361.2 196.02 360.34 193.2 360.96 193.4C362.44 193.84 363.26 193.12 365.36 193.3Z" fill="#C49E91"/>
<path d="M386 253.56C388.2 264.78 389.28 269.38 384.26 278.96C380.54 286.06 383.1 294.96 367.44 293.56C355.68 292.46 330.48 272.74 316.22 264.14C315.3 263.58 315.82 263.02 316.22 260.82C317.32 253.94 314.34 251.36 315.2 244.18C315.8 239.28 316.86 239.46 319.2 230.56C321.36 222.12 320.9 222.36 323.34 216.82C323.72 215.96 323.82 215.98 324.6 216.52C328.12 218.9 351.86 236.76 351.88 236.98C352.2 240.8 347.38 271.88 352.5 269.2C353.54 268.66 352.68 267.54 352.5 266.08C351.82 254.48 352.84 251.68 353.76 243.86C354.68 236.04 354.02 220.9 355.1 221.14C362.32 222.76 365.1 223.14 372.7 221.14C377.96 219.7 377.84 219.8 378 220.28C381.503 231.155 384.177 242.281 386 253.56V253.56Z" fill="#C49E91"/>
<path d="M182 216C181.88 215.78 181.42 215.74 181.08 215.7C180 215.56 180.6 214.72 181.24 214.56C182.56 214.26 183.92 216.2 184.18 217.82C184.5 219.82 184 219.98 185.24 219.94C186.48 219.9 186.08 216.88 185.58 215.56C184.04 211.56 179.7 211.76 178.8 213.74C177.16 217.34 180.52 219.24 181.84 217.36C182.01 217.181 182.118 216.952 182.147 216.707C182.176 216.461 182.124 216.213 182 216ZM222 212.46C221.46 214.46 226.88 214.88 225.42 210.68C223.96 206.48 217.88 211.26 218.06 215.54C217.82 217.54 218.9 217.54 219.24 217.54C219.58 217.54 219.8 217.12 219.76 216.56C219.76 213.76 222.48 210.94 222.1 212.36L222 212.46ZM165.2 120.5C165.38 121.86 168.82 122.04 170.18 120.66C172.32 118.5 172.78 113.66 168.78 113.28C168.12 113.28 167.5 113.4 167.34 114.04C167.283 114.169 167.255 114.309 167.257 114.45C167.259 114.591 167.292 114.729 167.353 114.857C167.413 114.984 167.501 115.096 167.609 115.187C167.717 115.277 167.844 115.343 167.98 115.38C168.4 115.54 169.24 115.38 169.46 116.32C169.528 116.677 169.523 117.045 169.444 117.4C169.365 117.754 169.214 118.089 169 118.384C168.786 118.678 168.514 118.925 168.201 119.11C167.888 119.296 167.541 119.415 167.18 119.46C166 119.52 165.08 119.48 165.2 120.5ZM164.22 122.5C164.92 119.76 162.22 119.16 161.64 122.04C159.96 130.22 147.38 127.14 149.1 120.36C149.88 117.32 155.26 110.76 148.18 104.1C148.067 104.013 147.934 103.954 147.794 103.928C147.654 103.902 147.509 103.91 147.372 103.951C147.235 103.992 147.11 104.065 147.007 104.164C146.904 104.263 146.826 104.385 146.78 104.52C146.54 105.18 146.78 105.56 147.18 106.08C152.66 113.14 146.48 115.62 146.5 121.94C146.54 130.58 161.32 133.86 164.22 122.56V122.5ZM233.68 157.3C242.92 157.52 242.04 154.9 241.68 162.18C240.76 187.98 239.68 186.18 239.4 189.1C239.12 192.02 239.62 200.8 235.98 206.56C227.24 220.4 228.72 217.3 222.24 220.96C214.94 225.08 213.06 221.74 204.94 226.2C200.36 228.7 195.1 227.94 189.94 226.38C178.8 223.04 180.84 223.52 172.66 215.76C165.067 207.34 159.511 197.288 156.42 186.38C156 184.8 155.8 183.14 155.4 181.56C154.44 177.78 153.62 177.98 154.42 177.56C162.82 172.96 173.6 168.86 173.92 164.92C174.22 161.34 181.06 167.84 192.56 158.4C197 154.76 203.48 145.04 202.56 141.96C202.12 140.42 200.86 141.14 200.56 141.76C191.5 166.2 166.92 167.28 149.5 146.58C143.3 139.22 138.52 129.34 135.02 116.24C134.86 115.64 134.9 115.72 135.38 115.9C137.36 116.491 139.482 116.403 141.406 115.649C143.331 114.895 144.948 113.519 146 111.74C146.44 110.68 146 109.74 144.64 110.26C143.28 110.78 143.4 112.64 138.88 113.76C137.66 114.08 135.18 113.62 134.88 114C134.26 115.02 134.42 113.52 133.24 110.16C130.92 103.52 129.96 102.84 130.68 100.88C132.2 96.7 135.64 96.04 137.96 97.18C138.288 97.3576 138.671 97.4049 139.032 97.3124C139.393 97.2199 139.706 96.9944 139.908 96.681C140.111 96.3676 140.187 95.9895 140.122 95.6222C140.058 95.2549 139.857 94.9255 139.56 94.7C138.688 94.1105 137.698 93.7203 136.659 93.5571C135.619 93.3939 134.557 93.4618 133.547 93.7558C132.537 94.0499 131.604 94.5629 130.814 95.2585C130.025 95.954 129.399 96.8149 128.98 97.78C128.87 97.9899 128.743 98.1905 128.6 98.38C127.6 96.94 122.78 83.86 123.58 82.06C123.9 81.34 127.44 80.78 129.58 77.74C131.38 75.26 130.84 74.62 132.64 74.54C133.483 74.6209 134.331 74.4318 135.06 74C136.466 72.8146 137.518 71.2644 138.1 69.52C138.98 67.78 138.88 69.16 142.84 69.52C145.32 69.68 146.48 68.04 148.12 65.52C148.58 64.78 148.96 65.16 150.26 65.52C151.684 65.6646 153.12 65.3941 154.394 64.7411C155.668 64.0882 156.726 63.0806 157.44 61.84C157.66 61.32 157.8 61.66 160.66 62.7C166.14 64.7 168.44 60.08 169.46 61.34C172.14 64.74 175.08 64.64 178.14 61.94C178.78 61.38 178.72 62.4 180.6 64.34C182.48 66.28 183.86 65.58 186.84 65.44C186.72 65.8 183.6 70.76 186.34 73.44C188.74 75.72 190.82 76.32 189.58 78.86C187.84 82.42 186.28 84.86 188.76 88.06C191.24 91.26 193.88 90.76 193.46 93.14C192.966 94.8721 192.966 96.7079 193.46 98.44C195.24 103.04 194.24 106.44 197.72 106.66C198.78 106.66 198.66 106.66 203.72 105.42C208.78 104.18 203.72 103.9 206.26 93.42C207.26 89.42 212.08 88.54 213 88.6C215.074 88.9467 216.992 89.9172 218.5 91.3823C220.008 92.8473 221.034 94.7372 221.44 96.8C221.631 97.9023 221.692 99.0234 221.62 100.14C221.62 104 221.62 103.4 220.64 101.58C220.276 100.865 219.769 100.233 219.152 99.7208C218.534 99.2091 217.818 98.8291 217.048 98.6043C216.278 98.3795 215.471 98.3146 214.675 98.4136C213.879 98.5126 213.111 98.7734 212.42 99.18C210.94 99.98 211.44 96.56 212.42 95.18C213.8 93.32 215.4 95.18 216.16 95.46C217.46 96.06 217.8 93.24 215.36 92.38C214.901 92.1309 214.394 91.9852 213.873 91.9529C213.352 91.9206 212.83 92.0026 212.344 92.1932C211.859 92.3837 211.42 92.6782 211.06 93.0559C210.7 93.4337 210.427 93.8856 210.26 94.38C209.595 95.5278 209.266 96.8387 209.308 98.1643C209.351 99.4898 209.763 100.777 210.5 101.88C211.16 102.9 212.5 103.88 212.12 106.32C211.84 107.9 211.04 109.7 213.42 111.14C214.78 111.98 214.64 112.6 215.08 115.6C215.4 117.78 208.88 114.94 210.18 123.38C211.729 132.684 214.098 141.833 217.26 150.72C220.48 160 224.72 157.16 233.68 157.36V157.3ZM221.94 201.3C221.899 200.957 221.839 200.616 221.76 200.28C221.28 198.84 218.62 198.98 219.52 200.94C219.92 201.8 219.92 201.8 219.14 202.4C217.38 203.84 221.6 205.88 222 201.34L221.94 201.3ZM217.72 209.42C217.827 208.977 217.823 208.514 217.709 208.073C217.595 207.631 217.374 207.225 217.066 206.889C216.757 206.553 216.371 206.298 215.941 206.146C215.511 205.995 215.051 205.952 214.6 206.02C206.76 207.52 210.84 219.36 212.6 215.34C213.16 214.02 210.14 210.76 214.3 208.56C214.309 208.72 214.309 208.88 214.3 209.04C214.44 211.22 217.36 210.96 217.72 209.46V209.42ZM213.16 194.34C213.64 195.38 215.88 194.62 215.04 192.34C214.2 190.06 208.78 192.58 209.04 195.8C208.86 198.64 210.38 202.76 211.78 201.2C212.78 200.1 211.32 200.16 210.98 196.54C210.84 194.92 212.76 193.54 213.16 194.38V194.34ZM203.84 208.6C205.32 209.02 205.42 206.28 205.08 204.72C204.52 201.94 200.06 201 200.38 203.64C200.56 205.16 202.38 203.4 203.14 205.38C203.74 206.9 202.58 208.3 203.84 208.64V208.6ZM202.96 214.42C204.08 214.8 204.96 212.16 202.42 212.06C196.42 211.86 198.8 223.38 201.16 221.08C202 220.26 200.98 220.48 200.64 216.56C200.621 216.26 200.67 215.959 200.783 215.681C200.896 215.402 201.071 215.153 201.294 214.951C201.517 214.749 201.782 214.6 202.071 214.515C202.359 214.43 202.663 214.411 202.96 214.46V214.42ZM197.28 134.72C197.28 132.9 195.28 132.84 195.14 134.54C195 136.24 197.22 136.34 197.28 134.72ZM197 197.78C197.16 197.78 197 196.36 196.82 196.12C196.357 195.391 195.67 194.831 194.863 194.525C194.055 194.219 193.17 194.182 192.34 194.42C192.181 194.506 192.049 194.633 191.956 194.788C191.864 194.943 191.815 195.12 191.815 195.3C191.815 195.48 191.864 195.657 191.956 195.812C192.049 195.967 192.181 196.094 192.34 196.18C193.6 196.52 195.08 196.18 195.28 198.18C195.44 199.62 195.54 199.7 195.94 199.58C196.9 199.26 197 199.38 197 197.78ZM195 220.3C194.82 223.42 197.74 222.2 196.68 217.9C196.445 217.336 196.055 216.849 195.557 216.495C195.058 216.142 194.47 215.935 193.86 215.9C193.2 215.919 192.556 216.115 191.997 216.466C191.438 216.818 190.983 217.313 190.68 217.9C190 219.46 190.46 221.26 192.16 221.16C192.33 221.163 192.5 221.131 192.658 221.066C192.816 221.002 192.959 220.906 193.078 220.784C193.198 220.663 193.292 220.518 193.354 220.359C193.416 220.2 193.445 220.03 193.44 219.86C193.44 218.9 192.86 218.84 192.64 218.58C192.42 218.32 192.88 217.84 193.76 217.7C195.36 217.4 194.92 220 194.92 220.3H195ZM194.08 144.3C194.08 146 196.24 146.02 196.08 144.3C196.109 144.146 196.103 143.988 196.063 143.836C196.023 143.685 195.951 143.544 195.85 143.424C195.75 143.304 195.624 143.208 195.481 143.143C195.339 143.077 195.184 143.044 195.028 143.045C194.871 143.047 194.717 143.083 194.576 143.151C194.435 143.219 194.311 143.318 194.213 143.44C194.114 143.562 194.044 143.704 194.008 143.856C193.971 144.008 193.968 144.167 194 144.32L194.08 144.3ZM194.9 211.82C195.357 210.828 195.496 209.72 195.3 208.646C195.103 207.572 194.579 206.585 193.8 205.82C193.31 205.25 192.67 204.83 191.953 204.607C191.235 204.384 190.47 204.367 189.743 204.559C189.017 204.751 188.36 205.144 187.846 205.692C187.333 206.241 186.984 206.923 186.84 207.66C186.761 208.083 186.806 208.519 186.968 208.917C187.131 209.315 187.404 209.658 187.757 209.905C188.109 210.152 188.525 210.292 188.954 210.309C189.384 210.326 189.809 210.218 190.18 210C191.22 209.48 191.36 207.58 189.5 208C188.42 208.28 188.44 207.26 189.26 206.5C189.577 206.235 189.977 206.089 190.39 206.089C190.803 206.089 191.203 206.235 191.52 206.5C193.68 207.9 193.52 209.4 193.52 211.3C193.5 212.14 194.2 212.3 194.82 211.84L194.9 211.82ZM190.36 138C190.382 137.685 190.279 137.374 190.073 137.134C189.867 136.894 189.575 136.746 189.26 136.72C189.105 136.709 188.949 136.729 188.802 136.778C188.655 136.828 188.518 136.906 188.401 137.008C188.284 137.11 188.189 137.235 188.12 137.374C188.051 137.513 188.01 137.665 188 137.82C187.988 137.975 188.007 138.131 188.055 138.278C188.104 138.426 188.181 138.563 188.282 138.681C188.383 138.799 188.507 138.896 188.645 138.966C188.784 139.036 188.935 139.078 189.09 139.09C189.245 139.102 189.401 139.083 189.548 139.035C189.696 138.986 189.833 138.909 189.951 138.808C190.069 138.707 190.165 138.583 190.236 138.445C190.306 138.306 190.348 138.155 190.36 138ZM189.78 151.48C189.772 151.357 189.74 151.236 189.685 151.125C189.631 151.014 189.555 150.915 189.462 150.833C189.369 150.751 189.261 150.689 189.144 150.649C189.027 150.609 188.903 150.592 188.78 150.6C188.656 150.608 188.536 150.64 188.425 150.694C188.314 150.749 188.214 150.825 188.133 150.918C188.051 151.011 187.988 151.119 187.948 151.236C187.909 151.353 187.892 151.477 187.9 151.6C188 152.84 189.7 153.14 189.78 151.5V151.48ZM184.48 129.72C184.7 129.26 184.48 128.92 183.9 128.2C183.288 127.515 182.539 126.966 181.702 126.587C180.865 126.208 179.958 126.008 179.04 126C178.34 126 178.02 126.7 178.48 127.18C178.94 127.66 180.28 127.96 179.52 128.48C176.222 130.661 172.437 131.994 168.5 132.36C150 134.92 152.84 144 154.74 141.14C155.36 140.22 155.4 139.72 156.2 140C165.7 143.44 169.36 144.74 174.08 140C176.911 137.017 179.308 133.651 181.2 130C181.78 128.7 181.78 128.78 183.2 129.7C183.8 130.28 184.26 130.2 184.48 129.72ZM182.62 145.22C184.28 145.34 184.2 142.76 183.08 142.64C181.4 142.46 180.92 145.08 182.62 145.22V145.22ZM180.46 155.54C180.426 155.829 180.508 156.12 180.688 156.348C180.868 156.577 181.131 156.725 181.42 156.76C181.562 156.777 181.706 156.765 181.843 156.726C181.981 156.686 182.109 156.62 182.22 156.531C182.332 156.441 182.425 156.331 182.493 156.205C182.562 156.08 182.605 155.942 182.62 155.8C182.84 153.86 180.46 153.6 180.46 155.54V155.54ZM180.66 207.84C181.6 207.84 181.38 205.7 180.66 204.72C178.94 202 175.68 202.16 176.02 204.32C176.26 205.86 177.72 204.32 178.6 205.48C179.48 206.64 179.66 207.86 180.66 207.84V207.84ZM168.66 107.46C173.3 107.06 180.38 100.3 178.28 98.8C177.969 98.6147 177.597 98.5591 177.246 98.6451C176.894 98.7312 176.59 98.952 176.4 99.26C175.383 100.821 174.035 102.138 172.452 103.12C170.869 104.101 169.09 104.723 167.24 104.94C162.78 104.94 163.82 104 162.16 104.14C160.5 104.28 160.9 108.1 168.64 107.46H168.66ZM175.66 82.7C166.06 77.7 161.52 85.34 158.64 87.22C154.98 89.6 152.64 85.86 151.66 87.98C151.549 88.1862 151.487 88.4148 151.479 88.6485C151.47 88.8823 151.514 89.1149 151.609 89.3289C151.703 89.5429 151.845 89.7325 152.024 89.8835C152.202 90.0344 152.413 90.1426 152.64 90.2C154.122 90.8781 155.776 91.0875 157.38 90.8C159.671 90.0251 161.733 88.6916 163.38 86.92C164.616 85.6996 166.114 84.7764 167.76 84.22C170.92 83.2 173.62 85.24 175.06 85.24C175.372 85.2595 175.682 85.1673 175.933 84.9798C176.183 84.7923 176.359 84.5217 176.429 84.2164C176.499 83.9111 176.458 83.591 176.313 83.3132C176.169 83.0354 175.93 82.8181 175.64 82.7H175.66ZM173.3 149.82C174.5 149.82 174.62 147.4 173.3 147.44C171.98 147.48 171.72 149.88 173.3 149.82ZM170.42 155.14C170.42 153.38 168.3 153.44 168.26 155.28C168.22 157.12 170.4 156.84 170.42 155.14V155.14ZM165.44 149.8C165.779 149.8 166.105 149.665 166.345 149.425C166.585 149.185 166.72 148.859 166.72 148.52C166.72 148.181 166.585 147.855 166.345 147.615C166.105 147.375 165.779 147.24 165.44 147.24C163.66 147.18 164 149.78 165.44 149.8ZM159.02 149.8C159.041 149.65 159.029 149.497 158.986 149.352C158.942 149.207 158.869 149.073 158.769 148.958C158.67 148.844 158.547 148.753 158.409 148.69C158.271 148.627 158.121 148.595 157.97 148.595C157.818 148.595 157.669 148.627 157.531 148.69C157.393 148.753 157.27 148.844 157.171 148.958C157.071 149.073 156.997 149.207 156.954 149.352C156.911 149.497 156.899 149.65 156.92 149.8C156.92 151.26 158.98 151.48 159.02 149.82V149.8Z" fill="#C49E91"/>
<path d="M99.6599 278.52C101.36 281.94 101.28 281.98 100.84 282.38C95.7608 287.428 90.1632 291.927 84.1399 295.8C78.4799 299.8 63.2199 308.62 55.1399 310.26C52.1199 310.86 50.3599 310.12 46.1599 308.26C44.6685 307.402 43.3891 306.219 42.4163 304.8C41.4435 303.38 40.8022 301.761 40.5399 300.06C34.1599 272.62 31.8999 234.84 30.7799 211.16C30.3399 201.48 29.8199 194.6 29.6799 191.16C29.7726 190.537 29.682 189.901 29.4192 189.33C29.1563 188.758 28.7327 188.275 28.1999 187.94C26.8636 186.93 25.838 185.565 25.2399 184C14.7399 160.52 21.2399 173.54 27.7799 179.5C28.3701 179.973 29.0622 180.302 29.8015 180.462C30.5408 180.622 31.3071 180.607 32.0399 180.42C34.1383 179.815 36.0415 178.67 37.5599 177.1C37.9199 176.8 38.1399 176.84 39.0199 178.18C42.0199 182.86 40.5599 181.3 41.0199 186.18C41.1599 187.58 43.2599 187.46 43.2799 186.18C43.2799 184.46 43.9199 181.14 42.7599 179.38C42.0975 177.996 41.257 176.706 40.2599 175.54C39.7799 175.1 39.9799 174.86 40.3799 174.56C43.2799 172.44 43.1199 172.02 43.3199 173.08C44.2799 178.76 46.9999 178.6 46.7599 176.4C45.8095 174.844 45.481 172.987 45.8399 171.2C48.8399 159.94 63.8399 157.8 63.3999 149.82C63.0999 144.8 58.9999 135.36 63.0999 131.2C66.0799 128.18 65.0999 134 68.6399 142.5C70.0599 146.02 69.9199 148.16 70.6399 155.16C71.4399 162.56 63.5199 169.88 61.3999 172.74C59.2799 175.6 60.6999 174.6 55.6999 182.96C52.4399 188.4 52.7599 193.18 54.2999 198.96C56.2999 206.52 55.2799 209.26 56.8399 216.96C56.9399 217.44 63.3199 243.52 66.3799 250.74C68.3799 255.52 73.4799 274 73.5199 274.04C73.6273 274.247 73.8001 274.413 74.0114 274.512C74.2227 274.611 74.4608 274.638 74.6887 274.587C74.9166 274.537 75.1216 274.413 75.2719 274.235C75.4222 274.056 75.5094 273.833 75.5199 273.6C75.5199 270 68.6399 250.64 69.0799 250.52C70.0399 250.26 78.7799 243.44 79.0799 243.24C86.0199 237.86 83.9799 237.68 86.4799 242.64C90.3399 250.32 91.7799 251.48 93.0799 257.78C94.3799 264.08 94.3999 263.16 97.0799 269.08C98.5799 272.34 97.9999 275.06 99.6599 278.52Z" fill="#C49E91"/>
<path d="M370.62 172.5C366.62 178.8 365.34 173.84 366.52 187.18C366.14 187.18 366.32 186.72 366.28 190.3C366.28 191.72 368.76 192.78 370.14 190.48C373.86 184.3 370.68 181.94 372.96 179.52C374.24 178.2 375.86 176.14 376.16 175.92C377.12 175.24 378.3 176.14 377.34 177.92C376.7 179.12 375.58 179.56 376.6 179.74C377.62 179.92 377.1 181.48 376.32 181.44C374.54 181.3 374.32 180.9 374.32 181.72C374.32 185.72 374.32 186.76 373.52 189.02C370.7 196.26 368.22 193.14 367.42 194.5C365.42 198.04 364.18 201.82 365.66 205.5C366.84 208.46 364.28 208.22 363.54 205.92C361.54 199.58 365.2 194.22 365.54 193.24C363.44 193.06 362.62 193.78 361.3 193.24C360.68 193 361.54 195.86 362.42 199.04C362.477 199.279 362.475 199.528 362.412 199.765C362.349 200.003 362.228 200.221 362.06 200.4C361.88 200.56 361.34 200.4 360.98 200.4C359.52 200.1 359.7 193.66 356.88 189.86C355.68 188.26 351 191.42 350.88 184.28C350.58 172.28 350.1 181.88 344 178.74C342.62 178.02 341.62 172.38 341.68 170.74C341.78 167.24 339.68 162.74 339.94 160.74C339.361 159.21 338.484 157.809 337.36 156.62C334.54 154.02 331.66 154.38 332.56 157.08C333.564 159.411 334.334 161.837 334.86 164.32C337.38 176.02 336.76 169.42 340.86 184.08C342.16 188.74 344.08 187.5 345.1 191.9C345.521 194.622 346.19 197.3 347.1 199.9C348.08 202.7 351.48 202.82 354.28 209.3C354.72 210.28 355.34 209.78 356.5 209.96C359.82 210.5 364.34 214.08 375.36 208.24C376.176 207.707 376.888 207.029 377.46 206.24C377.58 206.1 377.16 205.54 377.1 205.18C376.16 199.68 382.58 195.84 381.42 183.06C380.74 175.44 385.18 168.44 376.78 166.9C374.68 166.64 374 167.26 370.62 172.5ZM389.12 258C390.76 266.5 390.22 272.8 386.42 279.82C385.14 282.16 383.18 291.12 380.42 293C367.86 301.78 351.26 290.48 330.06 276.08C322.2 270.74 323.6 271.02 322.76 273.26C318.76 284.08 317.78 286.7 306.24 276.58C303.76 274.4 303.28 272.82 297.84 269.06C288.3 262.44 289.56 263.9 289.6 264.34C291.86 280.78 290.46 296.68 287.74 313.1C286.9 318.16 286.1 338.08 286.02 338.5C285.36 341.7 287.52 344.5 290.02 360.64C293.42 381.96 293.9 381.76 292.2 382.1C289.44 382.64 289.48 366.94 285.34 349.2C283.46 341.2 283.1 341.44 283.58 337.5C284.2 332.42 283.7 323.26 285.58 309.88C287.3 298 289.58 279.56 287.74 267.62C286.9 262.24 287.74 261.82 286.38 260.74C283.22 258.34 278.48 253.9 277.08 250.18C274.84 244.18 266.4 237.16 263.86 215.08C263.74 214.16 264.68 213.32 265.16 213.6C267.38 214.86 266.06 229.28 276.44 243.72C280.22 248.96 278.22 250.16 284.22 255.72C286.797 258.187 289.508 260.51 292.34 262.68C307.54 272.58 310.34 278.02 313.14 279.12C313.28 276.6 311.26 274.44 312.2 268.04C312.66 264.84 313.64 259.78 313.7 258.96C314.06 254.46 311.5 250.58 312.56 243.34C313.12 239.48 314.06 238.78 316.56 229.74C318.3 223.46 319.42 215.12 323.9 212.12C327.02 210.12 330.72 213.38 321.58 206.6C316.66 202.94 312.5 200.6 308.9 195.74C297.9 181.02 296.22 187.18 287.64 175.64C267.94 149.2 263.5 160.38 245.14 156.04C244.08 155.78 243.86 155.42 243.86 157.2C243.86 158.1 243.86 164.96 243.86 166.38C242.62 192.92 241.18 187.2 241.46 194.86C241.74 202.52 237.46 209.9 232.56 216.58C226.04 225.46 213.1 226.18 211.18 226.58C204.48 227.76 205.38 233.82 185.42 227.94C175.42 224.98 174.62 220.48 171.42 218.32C168.22 216.16 158.48 202 155.78 192.56C150.84 175.36 153.32 176.84 144.52 180.34C126.96 187.3 117.88 203.38 109.7 209.54C103.98 213.84 94.5599 226.12 83.8799 232.8C83.3999 233.1 82.8399 233.2 83.3199 233.56C87.3199 236.74 88.4799 242.52 91.3199 246.76C93.7148 250.911 95.3027 255.478 95.9999 260.22C96.8199 264.42 99.7399 266.92 100.58 273.72C101.16 278.46 102.42 275.26 106.22 291.72C106.62 293.48 117.88 281 123.42 275.96C128.16 271.6 128 272 128 271.14C126.74 250.1 130 264.72 119.28 236.38C118.52 234.38 117.42 232.02 119.28 232.38C119.423 232.407 119.559 232.467 119.677 232.553C119.794 232.64 119.891 232.751 119.96 232.88C120.96 235.54 122.38 238 123.18 240.74C124.142 244.21 125.483 247.564 127.18 250.74C127.26 243.232 126.59 235.735 125.18 228.36C123.66 221.22 123.98 223.14 123.92 221.82C123.86 220.5 125.52 220.3 125.92 221.68C130.6 241.98 128.66 236.08 130.16 265.68C130.96 281.68 134.32 292.1 134.8 297.1C136.34 313.34 135.06 347.22 134.1 359.5C133.44 367.86 132.58 366.78 132.1 375.5C132.1 376.8 132.28 379 132.28 379.5C132.27 379.783 132.159 380.053 131.966 380.26C131.774 380.468 131.513 380.599 131.232 380.631C130.951 380.662 130.668 380.592 130.434 380.432C130.201 380.272 130.032 380.034 129.96 379.76C129.658 375.297 129.873 370.814 130.6 366.4C131.7 362.6 132.02 353.08 132.08 349.14C132.08 346.16 132.84 340.9 132.88 339.14C133.98 282.9 130.42 295.5 128.44 275.14C128.32 273.86 109.88 292.64 109.2 293.54C108.006 294.78 106.396 295.535 104.68 295.66C102.52 296.36 98.1199 291.88 97.5199 289.86C97.2199 288.94 95.9399 290.48 94.6199 291.42C92.1222 293.019 89.7244 294.769 87.4399 296.66C84.2399 299.44 69.5799 307.54 63.9199 309.96C58.2599 312.38 53.0799 313.96 48.4999 312.14C41.4599 309.48 39.2599 306.98 36.6599 294.14C32.7919 275.111 30.4512 255.802 29.6599 236.4C29.2599 228.52 28.0999 190.66 26.6199 189.84C23.6999 188.2 22.6199 184.52 21.3799 181.64C19.1799 176.62 17.2599 174.12 17.0199 167.22C17.0199 166.16 17.0199 166.32 12.8199 160.7C7.21992 153.02 11.8599 154.38 10.8199 151.42C10.2199 149.64 9.59992 148.08 10.5399 146.6C11.8999 144.44 12.7599 141.7 16.2599 141.4C17.0799 141.4 16.6399 140.86 16.4399 140.02C15.9999 138 18.3599 132 23.6999 132.7C24.7399 132.82 24.3999 132.7 23.3399 129.92C23.1749 128.853 23.3123 127.76 23.7365 126.767C24.1607 125.774 24.8547 124.919 25.7399 124.3C28.5799 122.3 29.6199 121 32.4599 122.5C33.1599 122.86 33.3799 123.3 34.1999 123.78C34.2216 122.681 34.4243 121.593 34.7999 120.56C36.3599 116.86 40.4999 114.82 43.8599 116.98C46.0199 118.38 45.8599 120.52 46.9799 119.62C60.6599 108.74 63.5199 102.86 68.9799 108.06C68.9799 108.06 82.3799 123.44 86.1999 127.86C87.4599 129.32 89.2799 132.22 88.7599 134.04C88.2399 135.86 85.6399 138.04 79.1999 143.32C70.2599 150.46 72.5399 146.22 73.1999 156.32C73.5799 162.66 68.1599 169.18 63.9399 173.9C62.5655 175.885 61.4057 178.01 60.4799 180.24C58.2999 183.94 54.9999 187.52 55.6199 192.8C56.1599 197.46 57.4799 199.5 58.1399 205.66C58.3625 210.327 59.0323 214.961 60.1399 219.5C63.9799 234.6 67.7799 249.62 68.8599 248.68C81.1799 237.96 79.9999 242.36 79.4399 235.9C79.2199 233.26 81.0199 231.7 83.4399 230.54C86.2999 229.12 90.5199 224.54 92.6399 222.92C95.8054 220.263 98.6753 217.272 101.2 214C107.8 206.72 108.54 208.62 116.32 199.48C129.1 184.46 135.92 180.86 149.1 175.48C151.26 174.58 151.68 176.2 152.54 175.82C155.08 174.7 158.8 172.28 160.94 171.64C163.659 170.545 166.226 169.106 168.58 167.36C172.22 165.36 171.82 165.6 171.06 163.36C170.94 163.06 165.88 162 161.86 159.98C155.098 156.13 149.208 150.92 144.56 144.68C135.86 132.06 134.72 123.68 131.52 112.88C128.62 103.06 122.66 93.96 121.34 82.88C121.2 81.82 121.24 81.72 120.24 81.56C114.66 80.74 114.54 81.32 110.68 83.78C108.88 84.92 106.28 83.22 105.24 81.56C100.88 74.48 104.62 73.84 106.54 72.56C110 70.38 110 70.88 113.38 70.4C113.6 70.4 113.7 70.18 113.48 70C108.88 66.42 100.78 70.66 101.08 65.48C101.64 55.82 101.76 55.94 103.54 56.04C104.6 56.04 108.2 54.64 117.78 58.6C118.48 58.88 117.96 58.84 118.92 58.92C115.76 53.9 112.18 55.8 108.24 53.32C104.9 51.32 103.38 50.94 106.24 43.12C106.8 41.6 107.1 41.42 108.72 41.46C111.242 41.6555 113.715 42.2636 116.04 43.26C117.22 43.72 121.74 48.46 121.12 46.62C118.92 40.16 115.92 39.22 117.12 31.18C117.52 28.56 118.72 29.54 121.7 27.94C123.7 26.86 127.3 26.46 127.7 28.82C128.121 31.3617 128.896 33.8322 130 36.16C130.456 37.9283 131.044 39.6598 131.76 41.34C133.14 34.24 130.48 30.52 132.34 25.84C132.6 24.9854 133.131 24.2386 133.852 23.7119C134.574 23.1852 135.447 22.9073 136.34 22.92C137.74 22.92 139.14 22.78 140.54 22.82C146.54 22.96 141.86 28.52 142.66 31.88C143.2 34.08 141.32 39.7 143.82 42.32C144.04 41.34 143.82 39.92 144 38.1C144.28 35.48 145.84 35.1 146.32 32.26C146.72 29.94 146.18 28.38 147.1 26.52C148.7 23.22 149.1 21.06 152.5 21.1C154.5 21.1 155.1 21.62 155.12 20.7C155.14 16 162.22 16.1 166.2 18C166.569 18.1783 166.875 18.4659 167.075 18.8236C167.275 19.1813 167.361 19.592 167.32 20C166.26 33.56 163.96 31.14 164.24 34.18C164.308 35.0934 164.517 35.9908 164.86 36.84C166.483 34.8211 167.681 32.4943 168.38 30C169.6 24.36 167.94 25.44 172.62 18.6C173.88 16.74 175.98 17.38 176.86 17.34C179.033 17.3386 181.171 17.8818 183.08 18.92C186.54 20.24 183.74 26.44 182.22 28.44C179.962 31.6097 178.445 35.2457 177.78 39.08C177.6 39.8 177.54 40.56 178.2 40.26C180.48 39.26 179.5 38.74 181 35.2C183.24 29.88 188.72 21 193.8 22.52C195.093 22.7463 196.305 23.3064 197.315 24.1448C198.325 24.9831 199.099 26.0707 199.56 27.3C200.16 29.56 194.2 34.64 193.92 36.16C193.48 38.52 191.5 40.16 190.66 42.16C189.82 44.16 192.36 45.06 195.8 38.02C197.8 34.02 200.38 32.88 202.1 31.1C204.3 28.86 207.94 26.7 210.34 29.1C213.32 32.14 213.28 32.06 214.34 34.56C215.4 37.06 216.08 38.4 214.5 40.22C212.92 42.04 202.86 46.52 204.98 50.6C205.62 51.86 206.98 48.6 212.98 45.48C213.82 45.04 214.68 44.66 215.48 44.2C222.12 40.34 226.06 50.2 223.32 56.1C222.48 57.9 220.38 57 218.18 58.84C215.98 60.68 213.6 61.76 213.44 65.56C213.28 69.36 214.16 71.42 213.32 74.48C212.84 76.26 213.72 77.66 213.92 82.78C214.04 85.54 213.04 86.02 214.42 86.2C217.029 86.8248 219.362 88.2841 221.066 90.3561C222.77 92.4281 223.751 94.9996 223.86 97.68C223.76 110.88 221.86 109.68 221.86 112.46C221.26 124.22 221.56 124.14 219.24 124.46C218.596 124.588 217.932 124.579 217.291 124.434C216.65 124.29 216.047 124.012 215.52 123.62C214.48 122.62 214.92 120.94 215.04 119.24C215.04 118.62 214.78 118.9 213.7 119.24C212.62 119.58 211.94 120 212.56 123.62C214.322 132.291 216.586 140.852 219.34 149.26C220.32 152.52 222.48 155.52 225.9 155.26C230.94 154.84 240.14 155.08 240.18 155.08C241.54 155.08 241.96 153.08 246.02 154.02C256.7 156.48 267.5 151.88 278.16 161.26C285.86 168.02 290.54 175.52 292.78 177.86C296.9 182.2 299.92 181.96 304.78 186.86C307.82 189.966 310.678 193.244 313.34 196.68C318.34 202.26 326.92 205.56 331.64 212.08C332.28 212.96 332.14 215.08 332.6 216.62C333.06 218.16 332.36 219.36 333.2 220.04C338.68 224.56 350.74 232.84 351.48 233.2C352.22 233.56 352.02 233.96 352.54 221.06C352.54 219.22 350.04 221.06 349.6 217.24C349.34 214.84 348.52 209.24 350.22 207.42C350.56 207.08 347.14 204.06 347.1 204.04C344.54 201.76 344.38 199.82 342.84 193C342.04 189.5 339.96 190.2 338.6 185.32C334.34 170.14 334.42 175.64 332.6 165.98C331.62 160.58 329.22 157.84 329.92 155.46C330.98 151.8 335.36 152.12 338.42 154.56C340.6 156.32 340.42 157.56 341 156.56C345.42 147.38 345.38 146.86 347.2 146.56C349.851 146.152 352.549 146.152 355.2 146.56C359.04 147.12 357.46 155.76 358.64 154.42C361.54 151.04 367.04 152.42 368.12 154.96C369.2 157.5 368.9 158.36 369.62 158.16C371.28 157.72 377.88 159.86 376.96 164.34C376.72 165.5 382.96 164.34 384.14 170.68C384.98 175.3 383.82 176.84 383.72 180C383.62 183.82 384.42 184.54 383.5 190.6C382.34 198.22 380.1 199.84 379.5 202.76C379.16 204.48 381.82 202.16 383.5 205.32C385.36 208.78 386.82 220.58 381.82 221.84C380 222 381.34 218.16 389.12 258ZM384.24 278.88C389.26 269.3 388.24 264.7 385.98 253.48C384.159 242.187 381.485 231.048 377.98 220.16C377.82 219.68 377.98 219.58 372.68 221.02C365.02 223.02 362.3 222.68 355.08 221.02C354 220.78 354.7 235.68 353.74 243.74C352.78 251.8 351.74 254.36 352.48 265.96C352.58 267.42 353.44 268.54 352.48 269.08C347.36 271.76 352.18 240.68 351.86 236.86C351.86 236.64 328.1 218.86 324.58 216.4C323.8 215.86 323.7 215.84 323.32 216.7C320.88 222.24 321.32 222 319.18 230.44C316.9 239.34 315.84 239.16 315.18 244.06C314.32 251.24 317.3 253.82 316.2 260.7C315.86 262.9 315.34 263.46 316.2 264.02C330.46 272.62 355.66 292.34 367.42 293.44C383.08 295.04 380.52 286 384.24 278.96V278.88ZM377.56 216.88C377.854 216.678 378.09 216.401 378.241 216.077C378.392 215.754 378.454 215.396 378.42 215.04C377.88 209.04 378.04 209.16 377.58 209.54C376.12 210.72 375.72 210.4 375.98 211.24C377.54 216.3 376 218.18 377.56 216.98V216.88ZM370.94 168C373.74 163.7 374.8 165.54 374.72 163.5C374.64 161.46 373.36 161.64 371 160.28C369 159.08 363 168.44 359.58 171.82C356.82 174.62 359.36 178.12 359.58 184.06C359.68 185.701 359.901 187.332 360.24 188.94C360.446 189.687 360.934 190.325 361.6 190.72C362.46 191.4 363.1 190.5 363.46 190.6C364.22 190.8 364.38 190.72 364.26 185.38C364 173.64 363.04 180.24 370.94 168ZM373.6 218C375.86 218.48 374.36 211.26 374.08 211.4C371.88 212.52 372.08 212.26 372.4 213.6C373.16 217.6 373.14 218 373.6 218.16V218ZM368.58 219.56C371.72 218.48 370.96 219 371.32 218.32C370.42 212.76 370.66 212.58 369.74 212.8C367.56 213.36 366.76 213.62 366.84 214.02C367.88 219.62 367.82 220 368.58 219.72V219.56ZM363.14 163.66C367.48 158.32 367.64 159.66 366.6 157.08C366.448 156.26 365.994 155.527 365.327 155.027C364.66 154.527 363.829 154.296 363 154.38C359.66 154.38 356.12 161.32 352.34 165.68C349.56 168.9 353.06 176.68 352.8 182.44C353.02 185.18 352.8 186.8 354.58 186.58C355.1 186.58 355.6 186.3 356.1 186.58C356.168 186.591 356.238 186.586 356.304 186.565C356.37 186.545 356.43 186.508 356.48 186.46C359.1 181.42 353.74 177.14 357.16 170.88C357.4 170.7 356.36 172.14 363.14 163.82V163.66ZM365.46 220C366.28 220 365.96 219.78 365.04 214.7C364.88 213.86 364.6 214.2 361.56 213.88C360.48 213.76 360.84 213.28 361.94 219.58C362.1 220.48 362.8 219.88 365.46 220ZM359.46 219.62C360.22 219.8 360.06 220.12 359.02 213.62C359.02 213.3 359.24 213.48 356.36 212.18C355.3 212.46 355.58 212 356.48 218.56C356.52 219.18 356.74 218.94 359.4 219.54L359.46 219.62ZM352.2 162.34C356 157.06 356.52 156.7 356.2 155.22C354.64 146.74 356.72 148.92 348.2 148.82C347.28 148.82 346.94 149.44 346.2 150.82C342.38 159.08 341.5 160.02 342.2 162.56C343.045 165.071 343.569 167.678 343.76 170.32C343.76 180.98 349.56 176.32 349.08 173.18C348.36 168.44 350.52 164 349.2 160.58C349.02 160.1 348.76 158.58 349.6 158.44C351.82 157.82 351.38 163.32 352.14 162.26L352.2 162.34ZM353.68 218.08C354.38 218.24 354.38 218.24 354.34 217.54C353.9 209.78 352.78 212.3 352.34 210.44C352.34 210.06 352.16 209.52 351.68 209.56C351.2 209.6 351.68 213.04 351.68 215.56C351.66 217.28 351.84 217.56 353.62 218L353.68 218.08ZM241.78 162.24C242.04 154.96 242.92 157.58 233.78 157.36C224.64 157.14 220.58 159.98 217.26 150.64C214.037 141.759 211.607 132.61 210 123.3C208.7 114.86 215.22 117.7 214.9 115.52C214.46 112.52 214.62 111.9 213.24 111.06C210.86 109.62 211.66 107.82 211.94 106.24C212.38 103.72 210.98 102.82 210.32 101.8C209.583 100.697 209.171 99.4098 209.128 98.0843C209.086 96.7587 209.415 95.4478 210.08 94.3C210.247 93.8056 210.52 93.3536 210.88 92.9759C211.24 92.5981 211.679 92.3037 212.164 92.1132C212.65 91.9226 213.172 91.8406 213.693 91.8729C214.214 91.9052 214.721 92.0509 215.18 92.3C217.62 93.16 217.28 95.98 215.98 95.38C215.22 95.04 213.62 93.24 212.24 95.1C211.28 96.38 210.78 99.8 212.24 99.1C212.931 98.6934 213.699 98.4326 214.495 98.3336C215.291 98.2346 216.098 98.2995 216.868 98.5243C217.638 98.7491 218.354 99.1291 218.972 99.6408C219.589 100.153 220.096 100.785 220.46 101.5C221.38 103.32 221.44 103.92 221.44 100.06C221.512 98.9434 221.451 97.8223 221.26 96.72C220.854 94.6572 219.828 92.7673 218.32 91.3023C216.812 89.8372 214.894 88.8667 212.82 88.52C211.9 88.52 207.08 89.32 206.08 93.34C203.44 103.84 208.4 104.22 203.54 105.34C198.68 106.46 198.62 106.62 197.54 106.58C194.06 106.44 195.06 102.96 193.28 98.36C192.786 96.6279 192.786 94.7921 193.28 93.06C193.7 90.68 190.9 90.92 188.58 87.98C186.26 85.04 187.66 82.34 189.4 78.78C190.64 76.24 188.56 75.64 186.16 73.36C183.42 70.72 186.54 65.76 186.66 65.36C183.68 65.5 182 65.92 180.42 64.26C178.84 62.6 178.6 61.3 177.96 61.86C174.9 64.56 171.96 64.66 169.28 61.26C168.26 60 165.96 64.64 160.48 62.62C157.62 61.58 157.48 61.24 157.26 61.76C156.546 63.0006 155.488 64.0082 154.214 64.6611C152.94 65.3141 151.504 65.5846 150.08 65.44C148.78 65.06 148.4 64.68 147.94 65.44C146.3 67.98 145.14 69.62 142.66 69.44C138.66 69.18 138.8 67.8 137.92 69.44C137.401 71.1928 136.412 72.7699 135.06 74C134.379 74.4066 133.592 74.6015 132.8 74.56C131 74.56 131.54 75.28 129.74 77.76C127.54 80.8 124 81.36 123.74 82.08C122.94 83.88 127.74 96.96 128.76 98.4C128.903 98.2105 129.03 98.0099 129.14 97.8C129.559 96.8349 130.185 95.974 130.974 95.2785C131.764 94.5829 132.697 94.0699 133.707 93.7758C134.717 93.4818 135.779 93.4139 136.819 93.5771C137.858 93.7403 138.849 94.1305 139.72 94.72C140.017 94.9455 140.218 95.2749 140.282 95.6422C140.347 96.0095 140.271 96.3876 140.068 96.701C139.866 97.0144 139.553 97.2399 139.192 97.3324C138.831 97.4249 138.448 97.3776 138.12 97.2C135.8 96.06 132.36 96.72 130.84 100.9C130.12 102.9 131.08 103.54 133.4 110.18C134.04 111.98 134.28 113.26 134.46 113.88C135.42 113.72 137.88 114.06 139 113.88C143.52 112.76 143.52 110.8 144.76 110.38C146 109.96 146.56 110.8 146.12 111.86C145.059 113.661 143.421 115.05 141.471 115.801C139.521 116.553 137.375 116.623 135.38 116C134.9 115.82 134.86 115.74 135.02 116.34C138.52 129.44 143.3 139.32 149.5 146.68C166.9 167.36 191.5 166.32 200.78 141.92C201.02 141.3 202.28 140.58 202.78 142.12C203.64 145.2 197.16 154.92 192.78 158.56C181.16 168 174.32 161.4 174 164.98C173.68 168.98 162.9 172.98 154.5 177.62C153.7 178.04 154.5 177.84 155.48 181.62C155.88 183.2 156.08 184.86 156.5 186.44C159.591 197.348 165.147 207.4 172.74 215.82C180.92 223.58 178.88 223.12 190.02 226.44C195.18 228 200.44 228.76 205.02 226.26C213.14 221.8 215.02 225.14 222.32 221.02C228.8 217.36 227.32 220.46 236.06 206.62C239.7 200.86 239.26 192.16 239.48 189.16C239.7 186.16 240.86 188 241.78 162.24ZM221.78 52.52C221.821 50.8769 221.457 49.2489 220.72 47.78C219.54 44.82 217.02 46.42 214.32 47.78C211.583 49.1291 209.111 50.9581 207.02 53.18C205.14 54.94 202.22 53.4 202.22 49.56C202.22 43.68 211.82 39.68 212.22 38.62C213.18 35.42 210.5 33.1 208.22 30.62C207.92 30.28 207.1 30.62 206.7 30.88C199.22 35.24 197.44 40.38 195.18 43.8C194.22 45.24 193.42 45.14 192.2 45.8C189.34 47.32 186.68 43.02 189.74 39.04C192.52 35.4 191.34 35.28 192.54 33.7C197.36 27.36 197.58 28.14 196.54 26.92C195.776 26.2869 194.919 25.7743 194 25.4C192.72 24.92 192.36 24.2 189.02 27.22C186.268 30.3072 184.117 33.882 182.68 37.76C181.98 40.58 181.36 42.14 178.68 42.92C172.38 44.72 176.52 31.84 180.26 26.92C181.06 25.9 183.1 21.84 181.9 21.36C174.56 18.5 174.54 20.12 173.02 22.6C169.7 27.96 172.64 30.22 167.84 37.1C165.08 41.1 166.56 43.62 164.28 43.26C163.52 43.14 163.48 42.54 163.36 42.04C159.86 26.96 163.94 35.92 165 20.78C165.12 19.08 160.8 19.08 159.1 19.2C157.4 19.32 157.1 21.2 157.1 21.54C158.92 21.84 160.18 21.84 160.36 24.24C160.66 28.8 158.08 28.7 157.48 34.52C157.489 36.1965 156.971 37.8336 156 39.2C154.88 41.2 155.64 41.96 156 43.94C156.36 45.92 154.48 45.94 154 44.46C153.457 43.3728 153.207 42.163 153.273 40.9497C153.34 39.7363 153.721 38.5612 154.38 37.54C156.38 34.8 154.58 31.92 157.28 27.96C157.826 27.1109 158.079 26.1064 158 25.1C158 24.22 158 24.18 157.16 24.14C153.28 24.02 151.8 22.4 150.32 25.3C147.3 31.3 150.2 29.76 147.98 35.12C147.1 37.22 145.98 37.4 146.24 39.6C146.82 46.32 143.96 47.2 142.9 45.5C138.62 38.72 140.34 38.28 140.42 33.12C140.42 30.9 139.7 32.66 140.94 27.12C141.4 25.12 141.68 25.38 138.1 25.58C131.84 25.58 135.16 30.32 134.26 38.86C134.259 41.073 134.5 43.2795 134.98 45.44C135.08 46.18 134.98 45.44 137.44 49.44C137.88 50.22 137.44 51.64 136.38 51.24C135.32 50.84 135.24 49.78 133.38 47.66C131.106 45.6107 129.468 42.9522 128.66 40C127.74 35.32 127.72 38.9 125.74 30.98C124.96 27.84 122.1 31.26 119.84 31.48C119.52 31.48 119.44 31.74 119.36 32.04C117.76 38.78 128.14 52.3 128.76 55.58C129.04 57.06 127.54 57 126.86 56.08C124.16 52.44 123.08 50.08 120.64 49.56C115.94 48.46 117.42 45.1 109.62 44.1C107.86 43.88 108.54 43.74 107.22 48.22C107.094 48.5676 107.098 48.9488 107.23 49.2939C107.362 49.6391 107.614 49.9252 107.94 50.1C109.412 51.1665 111.086 51.9219 112.86 52.32C114.886 52.5334 116.812 53.3093 118.42 54.56C126.64 62.28 123.66 65.86 121.14 63.36C118.62 60.86 109.14 57.78 104.36 58.6C103.98 58.6 103.9 58.78 103.44 65.02C103.3 67.02 109.76 64.56 113.68 67.02C115.345 67.8827 116.937 68.8793 118.44 70C119.36 70.84 119.52 72.52 117.42 72.52C113.309 72.188 109.227 73.4321 106 76C105.48 76.36 105.62 77.12 106 77.66C110.2 85.66 109.2 78.72 116.5 78.68C121.32 78.68 123.48 80.84 127.6 76.14C129.92 73.48 128.98 72.32 130.9 72.14C132.32 71.98 133.48 72.24 134.34 71.04C137.1 67.18 136.16 65.04 141.76 66.86C143.76 67.5 144.72 66.28 146.22 63.82C148.08 60.76 150.22 63.58 152.4 62.62C153.718 62.1624 154.817 61.2277 155.48 60C155.789 59.4441 156.302 59.0306 156.911 58.8476C157.52 58.6645 158.176 58.7264 158.74 59.02C164.28 61.42 164.24 60.48 167.68 58.44C171.12 56.4 171.56 63.14 175.26 60.62C181.94 56.1 180.08 62.62 183.6 62.8C186.22 62.92 192.3 60.56 188.86 66.98C187.92 68.74 187.04 70.48 188.5 71.54C196.14 76.94 190.96 79.68 190.06 83.94C190.012 84.5932 190.146 85.2469 190.446 85.8291C190.746 86.4113 191.2 86.8995 191.76 87.24C199.56 91.9 194.26 93.24 195.76 97.24C198.86 105.24 194.88 104.58 203.04 102.6C204.18 102.32 202.5 100.96 203.34 96.28C204.06 92.28 204.42 89.06 208.3 87.3C210.72 86.2 211.38 86.62 211.54 84.8C212 79.28 210.26 77.36 211.18 73.34C211.66 71.34 210.72 68.22 211.18 64.92C211.627 62.5033 212.769 60.2697 214.468 58.4933C216.166 56.7168 218.346 55.4749 220.74 54.92C221.64 54.66 221.66 53.68 221.78 52.52V52.52ZM220 117.32C220 113.62 220.66 104.56 218 101.64C216.44 99.94 212.54 100.18 213.32 101.76C213.88 102.644 214.227 103.647 214.331 104.689C214.435 105.731 214.294 106.782 213.92 107.76C213.1 110.18 216.28 108.82 216.54 112.54C217 117.36 216.3 117.88 216.98 118.16C217.66 118.44 220 118.42 220 117.32ZM219.84 120.56C219.84 120.28 219.84 119.82 219.84 119.74C219.84 119.66 218.96 119.94 217.72 119.86C217.24 119.86 216.72 119.6 216.48 119.7C216.24 119.8 216.26 120.26 216.24 121.22C216.16 121.616 216.16 122.024 216.24 122.42C216.42 122.74 216.88 122.78 217.5 122.84C219.52 123.02 220 123.02 219.88 120.56H219.84ZM100.84 282.38C101.28 281.98 101.36 281.94 99.6599 278.52C97.9599 275.1 98.5799 272.34 97.1599 269.16C94.5399 263.16 94.4999 264.06 93.1599 257.86C91.8199 251.66 90.4199 250.4 86.5599 242.72C84.0599 237.76 86.0999 237.94 79.1599 243.32C78.8999 243.52 70.1599 250.34 69.1599 250.6C68.7199 250.72 75.5399 270.08 75.5999 273.68C75.5894 273.913 75.5022 274.136 75.3519 274.315C75.2017 274.493 74.9967 274.617 74.7687 274.667C74.5408 274.718 74.3027 274.691 74.0914 274.592C73.8801 274.493 73.7073 274.327 73.5999 274.12C73.5999 274.12 68.4799 255.6 66.4599 250.82C63.3999 243.6 57.0199 217.52 56.9199 217.04C55.3599 209.42 56.3599 206.68 54.3799 199.04C52.8399 193.18 52.5199 188.4 55.7799 183.04C60.7799 174.68 59.4999 175.46 61.4799 172.82C63.4599 170.18 71.4799 162.64 70.7199 155.24C69.9399 148.24 70.0799 146.1 68.7199 142.58C65.2999 134.1 66.1599 128.26 63.1799 131.28C59.0799 135.44 63.1799 144.88 63.4799 149.9C63.9999 157.88 48.9399 160 45.9999 171.28C45.641 173.067 45.9695 174.924 46.9199 176.48C47.1599 178.68 44.4399 178.84 43.4799 173.16C43.2799 172.1 43.4799 172.52 40.5399 174.64C40.1399 174.94 39.9399 175.18 40.4199 175.62C41.417 176.786 42.2575 178.077 42.9199 179.46C44.0799 181.22 43.4799 184.54 43.4399 186.26C43.4399 187.46 41.3199 187.58 41.1799 186.26C40.6199 181.3 42.0799 182.86 39.1799 178.26C38.2999 176.92 38.0799 176.88 37.7199 177.18C36.1272 178.722 34.1531 179.812 31.9999 180.34C31.2671 180.527 30.5008 180.542 29.7615 180.382C29.0222 180.222 28.3301 179.893 27.7399 179.42C21.1799 173.42 14.6999 160.44 25.1999 183.92C27.4799 189.04 29.4999 186.86 29.6399 191.02C29.7799 194.54 30.2999 201.44 30.7399 211.02C31.9999 234.8 34.1599 272.58 40.5399 300C40.8022 301.701 41.4435 303.32 42.4163 304.74C43.3891 306.159 44.6685 307.342 46.1599 308.2C50.3599 310.1 52.1599 310.84 55.1399 310.2C63.1399 308.56 78.4799 299.68 84.1399 295.74C90.1509 291.872 95.7471 287.395 100.84 282.38V282.38ZM78.1999 121.64C65.3199 106.76 65.8599 107.02 62.8599 108.8C60.9799 109.94 58.1599 112.54 53.2799 116.44C45.9999 122.26 46.7999 121.76 47.5599 124C47.5599 124.22 47.6999 124.78 48.1199 124.42C63.3599 111.8 63.5599 111.16 65.0999 112.42C70.9797 118.395 76.5089 124.706 81.6599 131.32C82.6999 132.88 82.7799 133.58 81.1999 135.32C78.3403 138.1 75.2639 140.648 71.9999 142.94C71.0399 143.68 71.5199 143.94 71.8799 145.46C72.0199 146.1 71.9999 146.62 72.5199 146.18C90.2399 131.54 90.6999 136 78.1999 121.64ZM74.9999 138.7C76.7073 137.398 78.3182 135.974 79.8199 134.44C80.7399 133.48 80.7399 132.78 80.1799 132.08C72.3399 122.28 66.1799 115.1 64.1799 113.86C63.6599 113.56 63.2199 113.86 62.6999 114.22C62.1799 114.58 51.7799 122.76 49.0599 125.74C48.4599 126.38 48.3199 126.8 48.3799 127.04C49.4799 131.5 50.6799 137.3 46.2399 138.38C43.7999 138.96 45.9199 140.38 44.8199 142.58C43.3399 145.54 40.6799 145.18 40.3799 146.12C39.2999 149.5 37.3799 152.12 33.9599 151.18C29.9599 150.1 25.7199 147 26.8399 148.24C30.7399 152.48 31.8599 152.88 30.4599 156.62C30.2399 157.16 29.4599 159.96 24.7399 159.34C23.3461 159.121 21.996 158.682 20.7399 158.04C18.7399 157.08 17.7999 155.4 20.8999 159.8C31.0799 174.3 30.6799 174.22 35.5399 170.36C44.8599 162.98 61.1399 149.06 61.1399 149C61.0199 146.84 57.1399 135.64 61.1399 130.44C61.5745 129.771 62.1663 129.219 62.8637 128.832C63.561 128.445 64.3425 128.235 65.1399 128.22C66.3999 128.22 67.1399 129.04 67.6199 130.6C68.2524 134.239 69.3131 137.79 70.7799 141.18C70.8399 141.66 70.6599 142.22 74.9999 138.7ZM45.5799 136.18C46.1734 135.886 46.6601 135.413 46.972 134.829C47.284 134.244 47.4056 133.577 47.3199 132.92C46.8599 128.8 45.3199 122.16 43.3199 119.52C43.0085 119.127 42.5885 118.834 42.1121 118.678C41.6356 118.521 41.1237 118.508 40.6399 118.64C39.5248 118.777 38.4953 119.308 37.7364 120.137C36.9775 120.965 36.5391 122.037 36.4999 123.16C36.6577 126.174 37.7558 129.062 39.6399 131.42C42.9399 136 42.9199 137.04 45.5799 136.18ZM45.1599 166.54C46.2799 164.7 46.9799 163.62 47.1599 163.22C47.4399 162.3 44.4799 165.36 36.2999 171.98C33.3399 174.36 30.9199 175.42 28.4599 172.74C25.1399 169.16 15.7999 156.38 14.5799 153.44C14.5586 153.388 14.5266 153.341 14.4861 153.303C14.4455 153.264 14.3973 153.234 14.3445 153.215C14.2916 153.196 14.2355 153.189 14.1796 153.193C14.1236 153.197 14.0693 153.213 14.0199 153.24C13.3878 153.526 12.8376 153.966 12.4199 154.52C12.1799 154.88 11.8199 155.22 12.8199 157.06C17.2696 164.05 22.4086 170.575 28.1599 176.54C28.7993 177.304 29.7095 177.791 30.6999 177.9C31.6599 178.1 33.1799 177.64 35.6599 175.66C45.6799 167.7 42.6399 170.64 45.1599 166.54V166.54ZM41.9999 142.3C43.5599 141.12 42.5999 140.3 38.9399 134.8C30.5599 122.3 31.3399 123.16 26.7399 126.4C24.3399 128.12 25.7999 130.08 27.3399 133.64C28.5399 136.42 30.1799 136.2 38.0599 142.76C38.3221 143.073 38.6692 143.304 39.0595 143.425C39.4498 143.545 39.8667 143.551 40.2599 143.44C40.9151 143.189 41.5086 142.801 41.9999 142.3V142.3ZM37.1599 147.74C37.6199 146.98 37.9999 146.24 37.5799 145.52C36.2799 143.18 30.7199 140.8 25.9199 136.22C24.9575 135.456 23.7685 135.034 22.5399 135.02C19.3999 135.5 19.8399 136.66 18.9199 138.32C17.1799 141.5 21.9799 143.88 22.7799 144.46C23.1799 144.76 23.0599 144.46 23.1199 144.26C23.6599 140.5 26.2199 146.72 34.5999 148.8C35.0809 148.988 35.616 148.983 36.0932 148.785C36.5704 148.588 36.9526 148.213 37.1599 147.74ZM27.9999 156.4C29.0399 154.76 28.5199 153.88 28.2799 153.58C25.3253 149.875 21.7527 146.709 17.7199 144.22C15.3999 143.12 13.7199 145.4 12.6799 147.72C12.0199 149.16 13.0399 151.02 13.7199 150.64C15.7199 149.56 19.7199 156.28 25.9199 156.96C26.8599 157 27.6199 156.96 27.9999 156.4Z" fill="#000001"/>
<path d="M353.1 28.1599C353.96 30.6599 352.06 31.1999 351.32 30.4399C349.7 28.7999 346.5 28.2999 343.2 30.8399C341.78 31.9199 344.12 32.6999 346.24 42.5599C347.26 47.3599 346.98 49.9199 346.12 51.3599C345.077 52.4964 343.717 53.2943 342.216 53.6507C340.716 54.0072 339.143 53.9059 337.7 53.3599C337.249 53.1182 336.858 52.7784 336.556 52.3656C336.254 51.9528 336.049 51.4775 335.955 50.9747C335.861 50.4719 335.88 49.9545 336.013 49.4604C336.145 48.9663 336.387 48.5083 336.72 48.1199C340.72 44.1199 344.72 47.5199 344.38 45.9199C343.42 41.2199 341.24 32.1799 337.88 28.7799C334.52 25.3799 350 19.4799 353.1 28.1599Z" fill="#000001"/>
<path d="M316.32 92C317.704 94.3749 318.817 96.8973 319.64 99.52C319.999 101.05 319.854 102.656 319.227 104.097C318.6 105.538 317.524 106.739 316.16 107.52C315.034 108.224 313.677 108.459 312.38 108.175C311.083 107.891 309.949 107.11 309.22 106C306.72 101.74 315.62 98.66 315.74 99.46C316.36 99.46 316.86 99.56 316.58 98.96C309.98 85.1 311.06 86.28 309.8 86.68C303.435 88.9522 297.438 92.1462 292 96.16C289.1 98.16 290 98.16 290.84 100.02C292.112 102.094 293.031 104.365 293.56 106.74C293.82 108.5 294.2 112.9 292.92 114.1C287.9 118.86 281.32 114.88 283.52 110.1C284.134 109.199 285.021 108.518 286.051 108.158C287.08 107.798 288.198 107.778 289.24 108.1C289.674 108.223 290.115 108.323 290.56 108.4C293.2 109.04 286.88 97.74 283.82 94.52C279.18 89.66 294.9 82.22 301.02 79.52C305.36 77.52 306.3 77.3 307.78 78.68C313.2 83.64 312.8 85.54 316.32 92ZM290.92 94.3C303.12 85.24 308.58 85.12 309.2 84.3C309.54 83.86 308.56 83.2 306.52 80.94C305.56 79.86 289.18 87.66 286.22 91.46C285.02 93 287.64 93.72 288.58 96C288.86 96.64 289.18 95.56 290.92 94.26V94.3Z" fill="#000001"/>
<path d="M280.54 60C280.7 60.4 279.86 61.2 279.38 61.22C258.72 61.22 269.38 60.66 269.38 75.22C269.608 78.2534 269.283 81.3029 268.42 84.22C267.9 85.56 265.04 87.86 260.42 86.8C254.56 85.46 256.74 77.54 261.76 77.66C267.76 77.82 266.9 81.48 266.88 76.82C266.88 65.62 260.48 59.7 261.48 57C262.48 54.3 278 53.38 280.54 60Z" fill="#000001"/>
<path d="M274.64 229.7C275.2 231.7 273.34 231.7 272.84 230.58C268.22 221.1 268.64 195.18 270.1 187.78C270.4 186.16 272.26 186.34 272.24 187.64C270.281 201.682 271.096 215.972 274.64 229.7V229.7Z" fill="#000001"/>
<path d="M238.64 379.6C238.94 387.76 201.9 350.42 198.74 346.18C193.44 339.08 190.92 337.34 184.88 330.64C174.7 319.32 177.6 321.84 167.24 304.86C166.38 303.46 165.86 303 165.76 302.26C165.54 300.94 166.9 300.76 167.54 301.48C172.16 306.62 174.84 313.18 178.44 318.48C181.14 322.48 180.8 322.18 191.68 333.58C194.08 336.08 215.68 362.04 235 376.58C237.58 378.52 238.58 378.32 238.64 379.6Z" fill="#000001"/>
<path d="M225.52 210.58C226.98 214.78 221.52 214.28 222.1 212.36C222.48 210.94 219.76 213.76 219.86 216.36C219.86 216.92 219.86 217.3 219.34 217.34C218.82 217.38 217.92 217.34 218.16 215.34C218 211.16 224 206.3 225.52 210.58Z" fill="#000001"/>
<path d="M221.76 200.32C221.839 200.656 221.899 200.997 221.94 201.34C221.6 205.88 217.38 203.84 219.14 202.44C219.92 201.84 219.92 201.84 219.52 200.98C218.62 199.02 221.28 198.88 221.76 200.32Z" fill="#000001"/>
<path d="M214.6 206C215.05 205.937 215.508 205.983 215.936 206.137C216.363 206.29 216.747 206.545 217.054 206.879C217.361 207.214 217.582 207.618 217.698 208.057C217.814 208.497 217.822 208.957 217.72 209.4C217.38 210.9 214.44 211.16 214.32 209.02C214.329 208.86 214.329 208.7 214.32 208.54C210.16 210.74 213.18 214 212.62 215.32C210.84 219.4 206.76 207.56 214.6 206Z" fill="#000001"/>
<path d="M215.04 192.42C215.88 194.66 213.64 195.42 213.16 194.42C212.68 193.42 210.84 194.96 210.98 196.66C211.32 200.28 212.78 200.22 211.78 201.32C210.38 202.88 208.86 198.76 209.04 195.92C208.78 192.66 214.26 190.34 215.04 192.42Z" fill="#000001"/>
<path d="M205.08 204.76C205.42 206.32 205.32 209.06 203.84 208.64C202.36 208.22 203.84 206.9 203.14 205.42C202.34 203.42 200.56 205.2 200.38 203.68C200 201.04 204.52 202 205.08 204.76Z" fill="#000001"/>
<path d="M202.42 212.1C204.88 212.1 204.08 214.84 202.96 214.46C202.66 214.41 202.352 214.43 202.06 214.517C201.769 214.604 201.501 214.757 201.277 214.963C201.053 215.169 200.88 215.424 200.769 215.708C200.659 215.992 200.615 216.297 200.64 216.6C200.98 220.6 202 220.3 201.16 221.12C198.8 223.42 196.34 212 202.42 212.1Z" fill="#000001"/>
<path d="M195.14 134.54C195.14 132.84 197.36 132.9 197.28 134.72C197.2 136.54 195.02 136.46 195.14 134.54Z" fill="#000001"/>
<path d="M196.82 196.12C196.82 196.36 197.16 197.76 197 197.78C197 199.38 197 199.26 196 199.56C195.6 199.68 195.5 199.56 195.34 198.16C195.14 196.16 193.66 196.52 192.4 196.16C192.241 196.074 192.109 195.947 192.016 195.792C191.924 195.637 191.875 195.46 191.875 195.28C191.875 195.1 191.924 194.923 192.016 194.768C192.109 194.613 192.241 194.486 192.4 194.4C193.224 194.178 194.097 194.225 194.892 194.534C195.688 194.844 196.363 195.399 196.82 196.12V196.12Z" fill="#000001"/>
<path d="M196.6 218C197.66 222.3 194.74 223.52 194.92 220.4C194.92 220.14 195.36 217.52 193.68 217.78C192.8 217.92 192.58 218.14 192.56 218.66C192.54 219.18 193.4 218.98 193.36 219.94C193.365 220.11 193.336 220.28 193.274 220.439C193.212 220.598 193.118 220.743 192.998 220.864C192.879 220.986 192.736 221.082 192.578 221.146C192.42 221.211 192.251 221.243 192.08 221.24C190.38 221.34 189.92 219.54 190.6 217.98C190.903 217.393 191.358 216.898 191.917 216.546C192.476 216.195 193.12 215.999 193.78 215.98C194.392 216.017 194.982 216.226 195.481 216.584C195.98 216.941 196.368 217.432 196.6 218V218Z" fill="#000001"/>
<path d="M196.1 144.22C196.1 146.04 194.1 146.02 194.1 144.22C194.044 144.06 194.027 143.889 194.05 143.721C194.074 143.554 194.137 143.394 194.235 143.256C194.333 143.117 194.463 143.005 194.613 142.927C194.764 142.849 194.931 142.808 195.1 142.808C195.269 142.808 195.436 142.849 195.587 142.927C195.737 143.005 195.867 143.117 195.965 143.256C196.063 143.394 196.126 143.554 196.15 143.721C196.173 143.889 196.156 144.06 196.1 144.22V144.22Z" fill="#000001"/>
<path d="M193.72 205.82C194.499 206.585 195.023 207.572 195.22 208.646C195.417 209.72 195.277 210.828 194.82 211.82C194.2 212.28 193.5 212.12 193.5 211.3C193.5 209.3 193.68 207.9 191.5 206.5C191.183 206.235 190.783 206.089 190.37 206.089C189.957 206.089 189.557 206.235 189.24 206.5C188.42 207.26 188.4 208.28 189.48 208C191.34 207.52 191.2 209.42 190.16 210C189.786 210.249 189.345 210.379 188.896 210.374C188.447 210.369 188.009 210.23 187.641 209.973C187.272 209.716 186.989 209.355 186.828 208.935C186.668 208.515 186.637 208.057 186.74 207.62C186.887 206.881 187.239 206.199 187.757 205.652C188.274 205.105 188.935 204.715 189.664 204.527C190.394 204.339 191.161 204.36 191.879 204.589C192.596 204.818 193.234 205.244 193.72 205.82Z" fill="#000001"/>
<path d="M188 138C187.978 137.831 187.992 137.659 188.042 137.496C188.092 137.332 188.176 137.182 188.288 137.053C188.401 136.925 188.54 136.822 188.695 136.752C188.851 136.682 189.019 136.645 189.19 136.645C189.361 136.645 189.529 136.682 189.685 136.752C189.84 136.822 189.979 136.925 190.092 137.053C190.204 137.182 190.288 137.332 190.338 137.496C190.388 137.659 190.402 137.831 190.38 138C190.402 138.169 190.388 138.341 190.338 138.504C190.288 138.668 190.204 138.818 190.092 138.947C189.979 139.075 189.84 139.177 189.685 139.248C189.529 139.318 189.361 139.355 189.19 139.355C189.019 139.355 188.851 139.318 188.695 139.248C188.54 139.177 188.401 139.075 188.288 138.947C188.176 138.818 188.092 138.668 188.042 138.504C187.992 138.341 187.978 138.169 188 138V138Z" fill="#000001"/>
<path d="M188 151.62C187.992 151.497 188.009 151.373 188.049 151.256C188.089 151.139 188.151 151.031 188.233 150.938C188.315 150.845 188.414 150.769 188.525 150.714C188.636 150.66 188.757 150.628 188.88 150.62C189.003 150.612 189.127 150.629 189.244 150.669C189.361 150.709 189.469 150.771 189.562 150.853C189.655 150.935 189.731 151.034 189.785 151.145C189.84 151.256 189.872 151.377 189.88 151.5C189.7 153.14 188 152.84 188 151.62Z" fill="#000001"/>
<path d="M186 378.78C186 380.78 184.44 381.16 183.46 379.86C175.24 368.96 176.98 365.1 173.16 359.74C169.34 354.38 168.74 353.74 167.94 351.64C161.52 334.04 162.3 336.36 161.5 334.14C160.52 331.06 163.02 331.52 163.5 332.44C169.94 348.44 169.7 350.1 173.5 355.48C181.5 366.66 174.7 361.48 184.84 377.12C185.36 377.8 185.16 377.08 186 378.78Z" fill="#000001"/>
<path d="M185.66 215.46C186.16 216.78 186.64 219.8 185.32 219.84C184 219.88 184.58 219.66 184.26 217.72C184 216.1 182.64 214.16 181.32 214.46C180.68 214.62 180.08 215.46 181.16 215.6C181.5 215.6 181.96 215.6 182.08 215.9C182.204 216.113 182.256 216.361 182.227 216.607C182.198 216.852 182.09 217.081 181.92 217.26C180.6 219.14 177.24 217.26 178.88 213.64C179.78 211.66 184.12 211.48 185.66 215.46Z" fill="#000001"/>
<path d="M184 128.2C184.58 128.9 184.8 129.26 184.58 129.72C184.36 130.18 183.9 130.28 183.32 129.9C181.88 128.98 181.88 128.92 181.32 130.2C179.428 133.851 177.031 137.217 174.2 140.2C169.48 144.84 165.82 143.54 156.32 140.2C155.52 139.92 155.48 140.42 154.86 141.34C152.86 144.18 150.06 135.12 168.62 132.64C172.557 132.274 176.342 130.941 179.64 128.76C180.4 128.24 178.98 127.88 178.6 127.46C178.22 127.04 178.46 126.34 179.16 126.28C180.054 126.256 180.945 126.414 181.777 126.744C182.608 127.074 183.365 127.569 184 128.2ZM178.48 131.54C177.5 131.36 173.98 134.06 168.18 134.54C167.04 134.54 160.86 135.56 157.88 137.92C157.834 137.946 157.796 137.984 157.77 138.03C157.743 138.075 157.729 138.127 157.729 138.18C157.729 138.233 157.743 138.285 157.77 138.33C157.796 138.376 157.834 138.414 157.88 138.44C161.006 139.757 164.307 140.612 167.68 140.98C170.88 141.18 172.04 139.16 177.5 133.14C177.88 132.659 178.178 132.119 178.38 131.54H178.48Z" fill="#000001"/>
<path d="M183.08 142.64C184.2 142.76 184.28 145.34 182.62 145.22C180.96 145.1 181.4 142.46 183.08 142.64Z" fill="#000001"/>
<path d="M182.64 155.58C182.669 155.732 182.665 155.889 182.629 156.04C182.593 156.19 182.526 156.332 182.431 156.455C182.337 156.577 182.217 156.679 182.081 156.752C181.945 156.826 181.794 156.87 181.64 156.881C181.485 156.893 181.33 156.871 181.184 156.818C181.039 156.765 180.906 156.682 180.794 156.575C180.683 156.467 180.596 156.337 180.538 156.193C180.48 156.049 180.454 155.895 180.46 155.74C180.3 153.7 182.64 153.74 182.64 155.58Z" fill="#000001"/>
<path d="M180.76 204.72C181.38 205.7 181.6 207.82 180.76 207.84C179.92 207.86 179.82 206.84 178.76 205.48C177.7 204.12 176.42 205.86 176.18 204.32C175.78 202.16 179.04 202 180.76 204.72Z" fill="#000001"/>
<path d="M178.26 98.8C180.36 100.3 173.28 107.06 168.64 107.46C160.9 108.1 160.64 104.3 162.14 104.14C163.64 103.98 162.76 104.86 167.22 104.94C169.055 104.721 170.82 104.107 172.394 103.141C173.969 102.174 175.315 100.877 176.34 99.3399C176.427 99.1754 176.547 99.0303 176.693 98.9134C176.838 98.7965 177.005 98.7102 177.185 98.6598C177.364 98.6093 177.552 98.5957 177.737 98.6198C177.921 98.6439 178.099 98.7052 178.26 98.8Z" fill="#000001"/>
<path d="M175.64 82.7C175.917 82.813 176.148 83.0168 176.294 83.278C176.44 83.5392 176.493 83.8424 176.444 84.1377C176.395 84.4329 176.247 84.7029 176.025 84.9032C175.803 85.1035 175.519 85.2222 175.22 85.24C173.36 85.24 170.92 83.24 167.8 84.22C163.56 85.6 161.6 89.84 157.36 90.8C155.756 91.0875 154.102 90.8781 152.62 90.2C152.396 90.1418 152.188 90.034 152.011 89.8844C151.835 89.7348 151.694 89.5474 151.6 89.336C151.506 89.1246 151.461 88.8948 151.467 88.6635C151.474 88.4322 151.533 88.2054 151.64 88C152.7 85.88 154.96 89.62 158.62 87.24C161.5 85.34 166 77.72 175.64 82.7Z" fill="#000001"/>
<path d="M173.28 147.44C174.62 147.44 174.5 149.78 173.28 149.82C171.72 149.88 171.8 147.48 173.28 147.44Z" fill="#000001"/>
<path d="M168.26 155.28C168.26 153.44 170.46 153.28 170.42 155.14C170.38 157 168.22 157.04 168.26 155.28Z" fill="#000001"/>
<path d="M168.78 113.28C172.78 113.66 172.32 118.5 170.18 120.66C168.82 122.04 165.38 121.86 165.2 120.5C165.08 119.48 166.08 119.52 167.2 119.46C167.561 119.415 167.908 119.296 168.222 119.11C168.535 118.925 168.806 118.678 169.02 118.384C169.234 118.089 169.385 117.754 169.464 117.4C169.543 117.045 169.548 116.677 169.48 116.32C169.26 115.38 168.42 115.54 168 115.38C167.864 115.343 167.738 115.277 167.629 115.187C167.521 115.096 167.434 114.984 167.373 114.857C167.312 114.729 167.279 114.591 167.277 114.45C167.275 114.309 167.303 114.169 167.36 114.04C167.5 113.4 168.12 113.22 168.78 113.28Z" fill="#000001"/>
<path d="M165.52 147.24C165.859 147.24 166.185 147.375 166.425 147.615C166.665 147.855 166.8 148.18 166.8 148.52C166.8 148.859 166.665 149.185 166.425 149.425C166.185 149.665 165.859 149.8 165.52 149.8C164 149.78 163.66 147.18 165.52 147.24Z" fill="#000001"/>
<path d="M161.64 122.1C162.22 119.22 164.92 119.82 164.22 122.56C161.32 133.84 146.54 130.56 146.5 122C146.5 115.68 152.66 113.2 147.18 106.14C146.8 105.62 146.54 105.24 146.78 104.58C146.827 104.445 146.904 104.323 147.007 104.224C147.11 104.125 147.236 104.052 147.372 104.011C147.509 103.97 147.654 103.962 147.794 103.988C147.935 104.014 148.067 104.073 148.18 104.16C155.26 110.82 149.88 117.38 149.1 120.42C147.38 127.2 160 130.28 161.64 122.1Z" fill="#000001"/>
<path d="M156.92 149.74C156.899 149.59 156.911 149.437 156.954 149.292C156.997 149.147 157.071 149.013 157.171 148.898C157.27 148.784 157.393 148.693 157.531 148.63C157.669 148.567 157.818 148.535 157.97 148.535C158.121 148.535 158.271 148.567 158.409 148.63C158.547 148.693 158.67 148.784 158.769 148.898C158.869 149.013 158.943 149.147 158.986 149.292C159.029 149.437 159.041 149.59 159.02 149.74C158.98 151.46 156.92 151.26 156.92 149.74Z" fill="#000001"/>
<path d="M121.8 136.54C121.822 136.808 121.76 137.077 121.623 137.309C121.486 137.54 121.28 137.724 121.034 137.834C120.788 137.943 120.514 137.974 120.25 137.922C119.986 137.869 119.745 137.736 119.56 137.54C118.26 136.1 115.28 135.54 111.68 138.02C109.86 139.32 114.26 141.8 115.36 155.32C115.76 160.18 109.58 162 106.22 160.54C102.22 158.84 104.38 152.16 112.1 153.44C112.84 153.56 112.86 153.56 112.76 152.88C112.1 148.54 109.36 139.18 106.42 136.12C103.48 133.06 111.78 129.02 118.66 131.74C119.495 132.27 120.207 132.973 120.749 133.8C121.29 134.628 121.649 135.562 121.8 136.54V136.54Z" fill="#000001"/>
<path d="M86.38 69.38C86.7009 70.6724 86.6856 72.0255 86.3355 73.3103C85.9854 74.5952 85.3122 75.769 84.38 76.72C79.8 80.72 73.94 76.6 76.14 73.08C78.14 70.06 79.78 69.76 83.02 69.64C84.14 69.64 83.18 69.34 77.9 57.52C77.46 56.54 77.5 56.56 76.54 56.86C69.5397 59.4314 63.0018 63.1191 57.18 67.78C56.64 68.28 56.58 68.32 59 72.7C60.58 75.54 61.6 82.98 59.34 84.7C58.4157 85.4864 57.3003 86.0152 56.1064 86.2329C54.9126 86.4506 53.6824 86.3496 52.54 85.94C48.54 84.28 49.1 77.94 55 77.94C57.92 78.6 60.44 80.52 54.12 69.24C52 65.6 50.94 65.68 50.2 64.2C47.56 58.94 62 52.36 67.3 50C72.28 47.8 73.08 47.52 74.56 48.88C80 54 79.52 55.76 83.06 62.16C84.3199 64.4932 85.4288 66.9048 86.38 69.38ZM75.04 54.88C75.42 54.78 76.2 54.56 75.94 54.24C73.18 50.88 73.08 50.74 72.6 50.9C67.08 52.56 56.28 57.94 53 61.58C52.32 62.36 52.42 62.46 53 63.26C56.46 67.5 54.8 65.8 55.56 66.44C57.14 64.48 66.62 57.54 75.04 54.88V54.88Z" fill="#000001"/>
</svg>
