<svg width="400" height="400" viewBox="0 0 400 400" fill="none" xmlns="http://www.w3.org/2000/svg">
<path d="M122.86 281.846C119.338 283.18 115.21 280.51 113.754 276.624C113.012 274.848 112.651 272.937 112.693 271.013C112.736 269.089 113.181 267.195 114 265.454C106.521 268.416 98.6831 270.376 90.69 271.282C88.1946 276.197 87.5897 281.857 88.99 287.188C89.6578 289.856 91.0408 292.29 92.99 294.23C93.9372 295.149 95.104 295.81 96.3791 296.15C97.6542 296.49 98.9951 296.497 100.274 296.172C109.748 293.258 114.36 286.944 122.86 281.846ZM207.85 247.242C204.33 248.7 200.322 246.028 198.744 242.264C197.944 240.492 197.521 238.574 197.5 236.631C197.479 234.687 197.861 232.76 198.622 230.972C191.341 234.166 183.666 236.371 175.8 237.528C173.502 242.646 173.115 248.419 174.708 253.798C175.438 256.462 176.912 258.863 178.958 260.72C179.939 261.579 181.122 262.174 182.396 262.45C183.67 262.726 184.994 262.674 186.242 262.298C195.344 259.14 199.716 252.584 207.85 247.242Z" fill="black"/>
<path d="M216.956 219.438C163.534 246.15 110 273.346 54.14 297.022C41.634 300.544 29.128 286.458 28.156 277.232C22.3326 224.238 13.0859 171.677 0.473996 119.878C-0.497663 115.47 0.0684791 110.862 2.07833 106.82C4.08818 102.778 7.42069 99.5457 11.522 97.66C68.952 77.262 127.6 57.228 188.424 40.716C197.286 37.802 214.892 48 215.984 60.386C220.112 106.038 224.24 151.568 229.218 196.986C230.8 206.568 225.212 216.524 216.956 219.438Z" fill="#643CFF"/>
<path d="M225.94 226.724C169.484 251 113.026 275.896 54.26 297.022C45.64 299.45 37.992 293.866 37.02 284.638C31.2643 231.343 22.3446 178.437 10.308 126.2C9.34598 121.777 9.93018 117.158 11.9631 113.114C13.996 109.07 17.3545 105.846 21.478 103.98C78.786 83.94 137.308 64.27 198.016 48C206.878 45.2 215.016 50.8 216.228 60.264C223.392 108.464 230.312 156.424 238.326 204.14C239.782 213.732 234.2 223.81 225.94 226.724Z" fill="#9778FF"/>
<path d="M229.948 242.75C172.276 263.876 114.24 285 54.26 302.728C42.24 307.464 43.82 322.528 49.282 325.312C80.364 341.582 111.932 357.972 144.594 373.392C150.3 376.062 161.956 375.212 170.332 371.45C227.398 345.344 281.184 316.326 334.242 288.522C342.134 284.522 350.39 267.762 338.614 263.998C310.324 256.712 282.278 248.7 254.352 240.322C248.766 237.894 237.84 238.986 229.948 242.75Z" fill="#643CFF"/>
<path d="M231.648 229.152C174.462 254.042 117.032 279.538 57.296 301.272C48.918 304.55 46.496 309.406 51.954 312.198C82.914 328.346 114.354 344.496 146.778 359.914C152.486 362.586 163.898 361.614 172.276 357.85C228.734 331.626 282.276 302.85 335.336 275.532C343.228 271.646 345.048 266.668 339.464 264.482C311.296 252.706 283.492 240.082 256.052 226.844C250.466 224.416 239.66 225.388 231.648 229.152Z" fill="#9778FF"/>
<path d="M261.516 250.4L278.27 243.48C275.114 242.024 271.956 240.444 268.8 238.988L267.344 238.26C265.451 237.313 263.379 236.78 261.264 236.697C259.15 236.613 257.042 236.98 255.08 237.774C252.044 238.988 249.01 240.202 245.974 241.538C245.61 241.66 245.124 241.902 244.76 242.024C246.096 242.752 247.432 243.358 248.76 243.966C253.016 246.15 257.266 248.334 261.516 250.4ZM281.67 245.056C276.084 247.364 270.378 249.67 264.794 251.978C269.408 254.284 274.142 256.592 278.756 258.898C284.584 256.592 290.412 254.406 296.24 252.22C293.326 250.764 290.412 249.306 288.348 248.334C286.162 247.242 283.856 246.15 281.67 245.056ZM296.726 255.012C291.868 256.834 287.012 258.776 282.156 260.598C285.434 262.176 288.59 263.754 291.868 265.332C300.126 261.204 305.832 258.532 307.41 257.684C305.346 256.712 302.554 255.256 299.64 253.92C298.546 254.284 297.696 254.648 296.726 255.012ZM213.8 288.888C218.534 291.688 223.27 294.35 228.126 296.9C238.69 291.68 249.126 286.58 258.726 281.846L247.07 274.924C235.896 279.416 224.848 284.152 213.8 288.888ZM196.438 278.2C207.486 273.466 218.656 268.61 229.704 263.874C226.029 261.558 222.427 259.128 218.904 256.588C217.823 255.859 216.771 255.09 215.748 254.282C204.7 259.018 193.65 263.882 182.602 268.61C184.424 269.824 186.244 271.158 188.066 272.372C190.728 274.493 193.525 276.44 196.438 278.2ZM232.376 265.698C221.274 270.444 210.185 275.219 199.108 280.024C202.994 282.452 206.878 284.88 210.764 287.188C221.806 282.345 232.896 277.612 244.032 272.988L236.382 268.252C235.168 267.518 233.832 266.546 232.376 265.698ZM164.506 291.8C174.218 287.672 183.81 283.544 193.402 279.414C190.366 277.472 187.452 275.414 184.538 273.466C182.838 272.252 181.138 271.158 179.44 270.066C169.118 274.436 158.798 278.808 148.356 283.066C147.628 283.43 146.778 283.666 146.05 284.036C148.586 285.253 151.179 286.347 153.82 287.314C157.342 288.766 160.862 290.344 164.506 291.8ZM196.2 281.36C194.258 282.21 192.314 283.06 190.25 283.91C182.85 287.066 175.316 290.222 167.91 293.38C172.646 295.444 177.382 297.63 182.238 299.694C186.608 297.75 191.1 295.808 195.472 293.866L207.856 288.402C205.928 287.313 204.025 286.179 202.15 285.002C200.2 283.91 198.258 282.574 196.2 281.36ZM189.152 299.694C188.06 300.178 186.846 300.664 185.752 301.272C191.58 303.822 197.286 306.492 203.114 309.164C210.4 305.642 217.928 302 225.334 298.364C220.491 295.7 215.675 292.988 210.886 290.228C203.631 293.358 196.386 296.514 189.152 299.694ZM131.6 305.522C134.4 304.428 137.184 303.214 139.978 302.122C147.02 299.208 153.94 296.294 160.978 293.38C157.214 291.802 153.328 290.222 149.566 288.644C147.196 287.643 144.848 286.591 142.524 285.488C133.052 289.372 123.704 293.622 114.234 297.63C117.754 299.328 121.396 301.03 125.034 302.608L131.6 305.522ZM164.506 294.836C154.733 298.935 144.938 302.983 135.122 306.978C138.766 308.556 142.286 310.014 145.922 311.714C147.622 312.442 149.322 313.292 151.022 314.02C160.227 309.547 169.538 305.297 178.948 301.272C176.398 300.178 173.97 298.964 171.42 297.872C169 296.78 166.69 295.8 164.506 294.836ZM162.2 311.714C159.53 312.928 156.736 314.262 154.066 315.478C158.066 317.298 161.958 319.24 165.964 321.184C167.906 322.154 169.85 323.004 171.792 323.984C180.412 319.984 189.882 315.486 199.718 310.75C193.89 308.078 188.062 305.53 182.234 302.858C175.532 305.755 168.854 308.707 162.2 311.714ZM232.498 262.784C238.698 260.112 244.882 257.44 251.074 254.892C253.483 253.931 255.872 252.918 258.238 251.856L241.482 243.478C233.833 246.635 226.183 249.913 218.534 253.312L222.534 256.226C225.82 258.29 229.098 260.6 232.498 262.784ZM235.29 264.482C239.174 266.912 243.182 269.34 247.066 271.768L248.888 271.04C257.752 267.396 266.488 263.876 275.356 260.354C270.742 258.048 266.128 255.742 261.394 253.434C252.774 257.076 244.032 260.72 235.29 264.482ZM249.98 273.59C253.016 275.41 255.93 277.11 258.966 278.81C259.816 279.296 260.666 279.782 261.636 280.266C271.956 275.168 281.306 270.554 288.836 266.79C285.436 265.212 282.158 263.512 278.758 261.934C269.165 265.698 259.572 269.583 249.98 273.59ZM86.072 318.634H86.192C88.378 319.606 90.564 320.698 92.75 321.67C104.526 316.57 116.304 311.714 128.08 306.856C122.252 304.306 116.546 301.758 110.84 298.964C107.198 300.544 103.44 302.122 99.792 303.578C95.3892 305.404 90.9354 307.105 86.436 308.678C85.4797 309.092 84.6603 309.769 84.0725 310.63C83.4847 311.49 83.1526 312.5 83.1145 313.541C83.0764 314.583 83.334 315.614 83.8573 316.515C84.3807 317.416 85.1485 318.151 86.072 318.634ZM131.48 308.436C119.62 313.31 107.802 318.288 96.028 323.368C102.098 326.282 108.168 329.196 114.118 332.11C124.438 327.862 134.272 322.398 143.986 317.42L147.628 315.598C145.686 314.748 143.744 313.778 141.68 312.928C138.4 311.348 134.88 309.892 131.48 308.436ZM137.672 323.734C130.994 327.134 124.316 330.654 117.396 333.568C122.738 336.238 128.196 338.788 133.666 341.46C137.186 339.76 150.786 333.81 168.634 325.432C162.684 322.632 156.856 319.726 151.034 317.056C146.536 319.24 142.044 321.548 137.672 323.734Z" fill="#643CFF"/>
<path d="M206.272 211.06C161.472 230.972 116.672 251.128 70.774 269.582C62.274 272.254 54.624 266.668 53.41 257.44C47.948 217.982 41.4 179 33.134 140.4C31.314 131.294 36.412 121.338 44.668 118.18C90.32 102.64 136.58 87.22 183.932 73.5C192.552 70.586 200.686 76.172 202.022 85.642C207.608 120.002 213.07 154.362 218.778 188.722C220.112 198.07 214.528 208.146 206.272 211.06ZM105.254 81.512C104.602 82.4808 104.253 83.6221 104.253 84.79C104.253 85.9579 104.602 87.0992 105.254 88.068C105.637 88.5718 106.086 89.0212 106.59 89.404C107.008 89.7641 107.509 90.0143 108.048 90.132C108.946 90.265 109.861 90.049 110.605 89.5282C111.349 89.0075 111.866 88.2216 112.048 87.332C113.026 83.576 108.412 77.504 105.254 81.512Z" fill="white"/>
<path d="M48.8 158.73L47.706 156.06C63.368 149.624 79.152 144.404 95.786 138.818C106.889 135.174 117.939 131.37 128.932 127.406L129.904 130.078C118.864 134.023 107.773 137.828 96.636 141.49C80 147.076 64.338 152.296 48.8 158.73Z" fill="#FF465A"/>
<path d="M65.736 158.656L76.022 155.344L76.878 158.002L66.592 161.314L65.736 158.656Z" fill="#FDB849"/>
<path d="M80.592 154.474L95.772 149.34L96.706 152.1L81.526 157.234L80.592 154.474Z" fill="#643CFF"/>
<path d="M101.856 150.232L101.006 147.432C109.626 144.882 118.246 141.846 126.746 138.568L127.838 141.24C119.328 144.656 110.657 147.656 101.856 150.232ZM83.4 164.316L82.428 161.644C113.098 150.539 144.031 140.176 175.2 130.562L176.05 133.234C144.958 142.826 113.876 153.388 83.4 164.316Z" fill="#FFD340"/>
<path d="M68.344 186.05L67.616 183.25C70.3549 182.547 73.0032 181.528 75.508 180.216L76.722 182.764C74.0665 184.181 71.2548 185.284 68.344 186.05Z" fill="#FDB849"/>
<path d="M80.504 178.308L96.964 172.408L97.946 175.152L81.486 181.052L80.504 178.308Z" fill="#643CFF"/>
<path d="M101.856 174.15L101.006 171.35C109.382 168.922 117.882 166.13 126.138 163.336L127.11 166.008C118.732 168.93 110.354 171.722 101.856 174.15Z" fill="#FDB849"/>
<path d="M88.256 187.384L87.286 184.714C116.543 174.114 146.057 164.235 175.8 155.088L176.65 157.76C146.94 166.887 117.466 176.765 88.256 187.384ZM88.496 192.682L125.544 179.1L126.504 181.72L89.456 195.304L88.496 192.682Z" fill="#FFD340"/>
<path d="M56.596 216.45L108.84 195.382L109.93 198.082L57.684 219.152L56.596 216.45Z" fill="#FF465A"/>
<path d="M72.37 221.316L80.28 218.21L81.344 220.922L73.434 224.028L72.37 221.316Z" fill="#FDB849"/>
<path d="M86.678 219.2L85.828 216.4C92.0652 214.537 98.1872 212.308 104.162 209.724L105.254 212.394C99.2286 215.094 93.0214 217.368 86.678 219.2Z" fill="#643CFF"/>
<path d="M88.378 228.544L87.286 225.874C114.273 214.881 141.432 204.316 168.754 194.184L169.726 196.856C142.436 206.966 115.316 217.53 88.378 228.544ZM90.078 236.558L88.986 233.886C95.186 231.216 101.612 228.544 108.048 226.238L109.018 228.908C102.585 231.336 96.2713 233.886 90.078 236.558Z" fill="#FFD340"/>
<path d="M245 211.8L262.242 58.938C262.72 52.427 265.635 46.3355 270.406 41.8794C275.177 37.4233 281.454 34.9303 287.982 34.898L377.222 26.642C396.526 32.592 401.382 48.376 399.682 63.674L380.986 229.646C380.251 236.136 377.09 242.108 372.135 246.364C367.181 250.621 360.801 252.846 354.274 252.594L275.354 249.316C260.908 248.7 244.4 228.302 245 211.8Z" fill="#008C6E"/>
<path d="M245 211.8L256.536 49.104C257.013 42.5928 259.928 36.5011 264.7 32.0449C269.471 27.5887 275.747 25.0959 282.276 25.064H368.36C371.999 25.0632 375.597 25.8326 378.917 27.3216C382.237 28.8106 385.205 30.9855 387.625 33.7033C390.044 36.4212 391.862 39.6204 392.957 43.0906C394.052 46.5609 394.4 50.2236 393.978 53.838L375.28 219.8C374.546 226.29 371.385 232.262 366.431 236.518C361.477 240.774 355.096 243 348.57 242.748L269.65 239.47C266.202 239.309 262.82 238.461 259.704 236.976C256.588 235.491 253.801 233.398 251.504 230.82C249.208 228.243 247.45 225.233 246.333 221.966C245.216 218.7 244.763 215.244 245 211.8Z" fill="#14D29B"/>
<path d="M298.304 215.674C297.696 217.32 297.696 219.128 298.304 220.774C302.432 231.216 320.766 226.724 316.638 213.732C316.342 212.527 315.772 211.407 314.972 210.459C314.171 209.511 313.162 208.761 312.024 208.268C306.56 206.2 300.126 210.454 298.304 215.674ZM260.786 175.6L269.65 55.156C270.378 45.2 279.364 37.43 290.17 37.43L359.012 37.672C371.396 37.672 380.988 47.628 379.652 59.042L365.082 181.914C363.868 191.87 354.518 199.276 343.712 198.79L280.578 196.118C269.042 195.64 260.058 186.414 260.786 175.6Z" fill="white"/>
<path d="M263.822 177.55L272.686 57.108C273.414 47.152 282.398 39.38 293.204 39.38L362.046 39.624C365.605 39.6165 369.11 40.4927 372.246 42.174C368.459 39.243 363.801 37.6613 359.012 37.68L290.17 37.438C279.37 37.438 270.37 45.086 269.65 55.164L260.786 175.6C260.578 179.288 261.456 182.956 263.312 186.15C265.168 189.344 267.92 191.923 271.228 193.568C268.779 191.706 266.823 189.273 265.532 186.481C264.241 183.688 263.654 180.622 263.822 177.55Z" fill="black"/>
<path d="M284.462 63.178L366.538 62.45L359.254 127.77L278.998 126.434L284.462 63.178Z" fill="#FDB849"/>
<path d="M297.576 117.572C312.024 111.622 328.176 113.444 343.228 110.044C350.029 108.528 356.491 105.77 362.29 101.908L364.838 79.2C358.328 84.7504 350.888 89.1073 342.862 92.07C330.478 96.562 317.488 97.534 304.374 97.656C299.992 97.5953 295.611 97.8385 291.262 98.384C287.866 98.9585 284.533 99.8532 281.306 101.056L279.12 126.314L284.826 126.434C288.391 122.6 292.74 119.577 297.576 117.572Z" fill="#FFD340"/>
<path d="M280.942 171.116L346.992 173.3L346.384 179.858L279.97 177.308L280.942 171.116Z" fill="#FDB849"/>
<path d="M300.732 134.812L331.932 134.69C333.084 134.691 334.225 134.923 335.286 135.372C336.347 135.821 337.308 136.478 338.111 137.304C338.915 138.13 339.545 139.109 339.964 140.182C340.383 141.256 340.583 142.402 340.552 143.554L340.43 145.012C340.389 146.13 340.127 147.229 339.658 148.245C339.189 149.261 338.523 150.174 337.699 150.931C336.874 151.688 335.908 152.273 334.856 152.653C333.803 153.034 332.686 153.201 331.568 153.146L300.368 151.81C299.077 151.742 297.817 151.385 296.682 150.766C295.547 150.147 294.565 149.282 293.808 148.234C293.051 147.186 292.538 145.981 292.308 144.709C292.077 143.437 292.135 142.129 292.476 140.882C293.055 139.14 294.16 137.621 295.639 136.534C297.117 135.447 298.897 134.845 300.732 134.812Z" fill="#9778FF"/>
<path d="M197.772 193.82C215.5 178.158 226.79 174.03 242.21 169.052C245.079 174.627 247.358 180.486 249.01 186.534C249.163 187.157 249.505 187.717 249.989 188.137C250.473 188.558 251.075 188.819 251.713 188.885C252.351 188.951 252.993 188.818 253.553 188.504C254.112 188.191 254.561 187.712 254.838 187.134C260.974 175.925 267.913 165.175 275.6 154.968C276.058 154.339 276.376 153.619 276.533 152.856C276.69 152.093 276.682 151.306 276.509 150.547C276.337 149.788 276.004 149.075 275.533 148.455C275.062 147.835 274.463 147.323 273.778 146.954C260.544 139.912 246.338 133.234 234.196 126.434C233.618 126.122 232.958 125.996 232.305 126.072C231.653 126.149 231.04 126.424 230.549 126.861C230.058 127.298 229.714 127.875 229.563 128.514C229.412 129.153 229.461 129.824 229.704 130.434C231.911 136.33 233.696 142.375 235.046 148.524C214.046 154.352 198.986 162.244 182.96 180.578C181.793 181.893 181.169 183.603 181.214 185.361C181.259 187.119 181.969 188.794 183.202 190.048C184.66 191.504 186.116 192.962 187.574 194.298C190.488 197.098 194.738 196.49 197.772 193.82Z" fill="#D70A32"/>
</svg>
