<svg width="400" height="400" viewBox="0 0 400 400" fill="none" xmlns="http://www.w3.org/2000/svg">
<path d="M18.75 343.75L331.25 343.75C338.154 343.75 343.75 338.154 343.75 331.25L343.75 18.75C343.75 11.8464 338.154 6.25 331.25 6.25L18.75 6.25C11.8464 6.25 6.25 11.8464 6.25 18.75L6.25 331.25C6.25 338.154 11.8464 343.75 18.75 343.75Z" fill="#D6DCDC" stroke="#231F20" stroke-width="6.25" stroke-linecap="round" stroke-linejoin="round"/>
<path d="M331.25 6.25H56.2501C49.3465 6.25 43.7501 11.8464 43.7501 18.75V331.25C43.7501 338.154 49.3465 343.75 56.2501 343.75H331.25C338.154 343.75 343.75 338.154 343.75 331.25V18.75C343.75 11.8464 338.154 6.25 331.25 6.25Z" fill="white" stroke="#231F20" stroke-width="6.25" stroke-linecap="round" stroke-linejoin="round"/>
<path d="M318.75 318.75V31.25L68.75 31.25L68.75 318.75H318.75Z" fill="#ADF1FF" stroke="#231F20" stroke-width="6.25" stroke-linecap="round" stroke-linejoin="round"/>
<path d="M120.312 115.625C119.663 115.633 119.018 115.722 118.391 115.891C117.693 112.907 115.922 110.284 113.415 108.522C110.908 106.759 107.84 105.98 104.796 106.333C101.752 106.686 98.9436 108.147 96.9067 110.437C94.8698 112.726 93.7462 115.685 93.75 118.75C92.0924 118.75 90.5027 119.408 89.3306 120.581C88.1585 121.753 87.5 123.342 87.5 125C87.5 126.658 88.1585 128.247 89.3306 129.419C90.5027 130.592 92.0924 131.25 93.75 131.25H120.312C122.385 131.25 124.372 130.427 125.837 128.962C127.302 127.497 128.125 125.51 128.125 123.438C128.125 121.366 127.302 119.378 125.837 117.913C124.372 116.448 122.385 115.625 120.312 115.625Z" fill="white" stroke="white" stroke-width="6.25" stroke-linecap="round" stroke-linejoin="round"/>
<path d="M290.385 61.5384C289.586 61.5482 288.791 61.6584 288.019 61.8664C287.161 58.1936 284.981 54.965 281.895 52.7956C278.81 50.6262 275.034 49.6676 271.287 50.1022C267.54 50.5369 264.084 52.3345 261.577 55.1527C259.07 57.9709 257.688 61.6127 257.692 65.3846C255.652 65.3846 253.696 66.1951 252.253 67.6377C250.81 69.0802 250 71.0368 250 73.0769C250 75.1171 250.81 77.0736 252.253 78.5162C253.696 79.9588 255.652 80.7693 257.692 80.7693H290.385C292.931 80.7628 295.37 79.7469 297.168 77.9443C298.966 76.1418 299.976 73.6998 299.976 71.1539C299.976 68.6079 298.966 66.1659 297.168 64.3634C295.37 62.5609 292.931 61.5449 290.385 61.5384Z" fill="white" stroke="white" stroke-width="6.25" stroke-linecap="round" stroke-linejoin="round"/>
<path d="M81.25 18.75H87.5" stroke="#231F20" stroke-width="6.25" stroke-linecap="round" stroke-linejoin="round"/>
<path d="M131.25 18.75H137.5" stroke="#231F20" stroke-width="6.25" stroke-linecap="round" stroke-linejoin="round"/>
<path d="M106.25 18.75H112.5" stroke="#231F20" stroke-width="6.25" stroke-linecap="round" stroke-linejoin="round"/>
<path d="M68.75 31.25L50 12.5" stroke="#231F20" stroke-width="6.25" stroke-linecap="round" stroke-linejoin="round"/>
<path d="M318.75 31.25L337.5 12.5" stroke="#231F20" stroke-width="6.25" stroke-linecap="round" stroke-linejoin="round"/>
<path d="M68.75 318.75L50 337.5" stroke="#231F20" stroke-width="6.25" stroke-linecap="round" stroke-linejoin="round"/>
<path d="M318.75 318.75L337.5 337.5" stroke="#231F20" stroke-width="6.25" stroke-linecap="round" stroke-linejoin="round"/>
<path d="M318.75 225H68.75V318.75H318.75V225Z" fill="#3A755C" stroke="#231F20" stroke-width="6.25" stroke-linecap="round" stroke-linejoin="round"/>
<path d="M68.75 240.44C68.75 240.44 165.811 240.402 166.406 255.6C167.001 270.798 90.8834 261.173 90.8834 284.477C90.8834 307.781 139.297 318.75 237.5 318.75" stroke="#231F20" stroke-width="6.25" stroke-linecap="round" stroke-linejoin="round"/>
<path d="M266.188 141.17L175.821 178.801C174 179.559 172.025 179.876 170.058 179.725C168.09 179.573 166.187 178.959 164.503 177.93L126.585 154.783C124.313 153.396 121.658 152.771 119.006 152.998C116.354 153.225 113.844 154.292 111.841 156.045L68.75 193.75V225H318.75V193.75L280.86 145.035C279.177 142.871 276.829 141.32 274.178 140.621C271.526 139.923 268.719 140.116 266.188 141.17Z" fill="#569161" stroke="#231F20" stroke-width="6.25" stroke-linecap="round" stroke-linejoin="round"/>
<path d="M68.75 218.75L87.5 212.5L100 218.75L112.5 206.25L137.5 218.75L156.25 200L181.25 218.75L193.75 206.25L218.75 218.75L243.75 206.25L256.25 218.75L281.25 206.25L293.75 218.75L318.75 212.5V225H68.75V218.75Z" fill="#231F20" stroke="#231F20" stroke-width="6.25" stroke-linecap="round" stroke-linejoin="round"/>
<path d="M256.25 218.75H143.75V125C143.75 110.082 149.676 95.7742 160.225 85.2252C170.774 74.6763 185.082 68.75 200 68.75C214.918 68.75 229.226 74.6763 239.775 85.2252C250.324 95.7742 256.25 110.082 256.25 125V218.75Z" fill="#231F20" stroke="#231F20" stroke-width="6.25" stroke-linecap="round" stroke-linejoin="round"/>
<path d="M190.625 175H209.375C226.78 175 243.472 181.914 255.779 194.221C268.086 206.528 275 223.22 275 240.625V318.75H125V240.625C125 223.22 131.914 206.528 144.221 194.221C156.528 181.914 173.22 175 190.625 175Z" fill="#666666" stroke="#231F20" stroke-width="6.25" stroke-linecap="round" stroke-linejoin="round"/>
<path d="M162.5 240.625V281.25" stroke="#231F20" stroke-width="6.25" stroke-linecap="round" stroke-linejoin="round"/>
<path d="M235.337 199.409C236.876 197.913 238.006 196.047 238.617 193.99C239.229 191.932 239.301 189.752 238.828 187.659C238.355 185.565 237.353 183.628 235.916 182.033C234.479 180.439 232.657 179.24 230.624 178.551C223.788 176.195 216.606 174.995 209.375 175H190.625C183.394 174.995 176.212 176.195 169.376 178.551C167.343 179.24 165.521 180.439 164.084 182.033C162.647 183.628 161.644 185.565 161.171 187.659C160.698 189.752 160.771 191.932 161.382 193.99C161.994 196.047 163.124 197.913 164.663 199.409C174.499 207.856 187.035 212.5 200 212.5C212.965 212.5 225.501 207.856 235.336 199.409H235.337Z" fill="#FBE8C2" stroke="#231F20" stroke-width="6.25" stroke-linecap="round" stroke-linejoin="round"/>
<path d="M250 265.625C249.455 256.383 250.981 247.135 254.466 238.557C257.95 229.98 263.306 222.288 270.141 216.044C264.519 202.151 254.325 190.593 241.245 183.278C228.837 189.587 218.417 199.206 211.138 211.07C203.859 222.934 200.004 236.581 200 250.5V281.25H250V265.625Z" fill="#989898" stroke="#231F20" stroke-width="6.25" stroke-linecap="round" stroke-linejoin="round"/>
<path d="M218.75 281.25H237.5V318.75H200C197.514 318.75 195.129 317.762 193.371 316.004C191.613 314.246 190.625 311.861 190.625 309.375C190.625 301.916 193.588 294.762 198.863 289.488C204.137 284.213 211.291 281.25 218.75 281.25Z" fill="#FBE8C2" stroke="#231F20" stroke-width="6.25" stroke-linecap="round" stroke-linejoin="round"/>
<path d="M171.875 281.25H190.625C198.084 281.25 205.238 284.213 210.512 289.488C215.787 294.762 218.75 301.916 218.75 309.375C218.75 311.861 217.762 314.246 216.004 316.004C214.246 317.762 211.861 318.75 209.375 318.75H171.875V281.25Z" fill="#FBE8C2" stroke="#231F20" stroke-width="6.25" stroke-linecap="round" stroke-linejoin="round"/>
<path d="M237.5 281.25H256.25" stroke="#231F20" stroke-width="6.25" stroke-linecap="round" stroke-linejoin="round"/>
<path d="M171.875 318.75H125C125 308.804 128.951 299.266 135.983 292.233C143.016 285.201 152.554 281.25 162.5 281.25H190.625C185.652 281.25 180.883 283.225 177.367 286.742C173.85 290.258 171.875 295.027 171.875 300V318.75Z" fill="#989898" stroke="#231F20" stroke-width="6.25" stroke-linecap="round" stroke-linejoin="round"/>
<path d="M148.438 318.75V309.375C148.438 301.916 151.401 294.762 156.675 289.488C161.95 284.213 169.103 281.25 176.562 281.25H190.625" stroke="#231F20" stroke-width="6.25" stroke-linecap="round" stroke-linejoin="round"/>
<path d="M223.438 281.25V261.64C223.438 249.412 226.427 237.369 232.146 226.561C237.865 215.753 246.14 206.508 256.25 199.63" stroke="#231F20" stroke-width="6.25" stroke-linecap="round" stroke-linejoin="round"/>
<path d="M200 181.25C231.066 181.25 256.25 156.066 256.25 125C256.25 93.934 231.066 68.75 200 68.75C168.934 68.75 143.75 93.934 143.75 125C143.75 156.066 168.934 181.25 200 181.25Z" fill="#FBE8C2" stroke="#231F20" stroke-width="6.25" stroke-linecap="round" stroke-linejoin="round"/>
<path d="M169.531 152.344C172.983 152.344 175.781 149.546 175.781 146.094C175.781 142.642 172.983 139.844 169.531 139.844C166.079 139.844 163.281 142.642 163.281 146.094C163.281 149.546 166.079 152.344 169.531 152.344Z" fill="#FBBD9C"/>
<path d="M230.469 152.344C233.921 152.344 236.719 149.546 236.719 146.094C236.719 142.642 233.921 139.844 230.469 139.844C227.017 139.844 224.219 142.642 224.219 146.094C224.219 149.546 227.017 152.344 230.469 152.344Z" fill="#FBBD9C"/>
<path d="M256.25 131.25V125C256.25 110.082 250.324 95.7742 239.775 85.2252C229.226 74.6763 214.918 68.75 200 68.75C187.5 112.5 256.25 93.75 256.25 131.25Z" fill="#231F20" stroke="#231F20" stroke-width="6.25" stroke-linecap="round" stroke-linejoin="round"/>
<path d="M143.75 131.25V125C143.75 110.082 149.676 95.7742 160.225 85.2252C170.774 74.6763 185.082 68.75 200 68.75C212.5 112.5 143.75 93.75 143.75 131.25Z" fill="#231F20" stroke="#231F20" stroke-width="6.25" stroke-linecap="round" stroke-linejoin="round"/>
<path d="M190.625 157.812C193.51 159.351 196.73 160.156 200 160.156C203.27 160.156 206.49 159.351 209.375 157.812" stroke="#231F20" stroke-width="6.25" stroke-linecap="round" stroke-linejoin="round"/>
<path d="M218.75 125V129.688" stroke="#231F20" stroke-width="6.25" stroke-linecap="round" stroke-linejoin="round"/>
<path d="M181.25 129.688V125" stroke="#231F20" stroke-width="6.25" stroke-linecap="round" stroke-linejoin="round"/>
<path d="M318.75 393.75C360.171 393.75 393.75 360.171 393.75 318.75C393.75 277.329 360.171 243.75 318.75 243.75C277.329 243.75 243.75 277.329 243.75 318.75C243.75 360.171 277.329 393.75 318.75 393.75Z" fill="white" stroke="#231F20" stroke-width="6.25" stroke-linecap="round" stroke-linejoin="round"/>
<path d="M318.75 368.75C346.364 368.75 368.75 346.364 368.75 318.75C368.75 291.136 346.364 268.75 318.75 268.75C291.136 268.75 268.75 291.136 268.75 318.75C268.75 346.364 291.136 368.75 318.75 368.75Z" fill="#55478E"/>
<path d="M318.75 281.25L290.625 318.75L318.75 356.25L346.875 318.75L318.75 281.25Z" stroke="#231F20" stroke-width="6.25" stroke-linecap="round" stroke-linejoin="round"/>
<path d="M290.625 318.75L318.75 331.25L346.875 318.75" stroke="#231F20" stroke-width="6.25" stroke-linecap="round" stroke-linejoin="round"/>
</svg>
