<svg width="400" height="400" viewBox="0 0 400 400" fill="none" xmlns="http://www.w3.org/2000/svg">
<path d="M372.98 328C372.86 327.68 372.56 327.2 372.44 326.82C372.24 326.82 173.22 326.82 173.46 326.82C168.127 338.7 162.734 350.574 157.28 362.44C157.72 362.44 143.28 362.68 386.7 360.98L372.98 328Z" fill="white"/>
<path d="M37.2202 201.2C35.6602 200.08 33.9402 199.74 32.6202 201.2C31.3002 202.66 31.7202 204.62 32.1202 206.64C32.3202 207.56 31.1402 209.86 30.1202 208.8C27.9402 206.8 25.1602 204.1 21.9002 204.18C16.7001 204.3 16.7001 210.38 20.3602 212.72C21.4402 213.4 20.1202 215.26 19.2801 215.54C16.7001 216.36 12.2201 218.74 12.3801 222.06C12.5401 225.38 17.6001 224.2 19.8001 224.32C21.0802 224.32 20.0602 226.5 19.5601 226.9C17.0801 228.9 16.0201 233.98 20.1402 234.9C23.2002 235.54 25.2802 232.9 26.7402 230.68C27.3402 229.78 29.0002 229.18 28.7402 230.88C28.1402 234.32 28.7402 238.34 32.9802 238.88C37.2202 239.42 38.3802 235.62 39.2202 231.74C39.3202 231.26 40.7802 229.04 41.3402 230.24C42.0156 231.734 43.0818 233.02 44.4264 233.96C45.771 234.9 47.3442 235.46 48.9802 235.58C52.3802 235.74 52.9802 232.72 51.5802 230.38C50.5734 228.906 49.3378 227.604 47.9202 226.52C47.0002 225.74 47.9202 223.96 48.9802 223.7C51.6402 223.04 57.1802 221.32 54.8402 217.5C53.6202 215.5 50.4002 215.7 48.4202 215.78C46.9402 215.78 48.4202 213.3 48.9402 213C50.0798 212.41 51.0976 211.608 51.9402 210.64C52.2368 210.28 52.43 209.848 52.4986 209.386C52.5674 208.926 52.5092 208.456 52.3302 208.026C52.151 207.596 51.8582 207.222 51.4828 206.946C51.1074 206.67 50.664 206.502 50.2002 206.46C47.8202 205.98 43.9802 207.18 42.9002 209.48C42.2202 210.92 40.0002 211.2 40.9002 209.3C40.1802 206.44 39.8402 203.06 37.2202 201.2Z" fill="#FF3E74"/>
<path d="M203.2 69.8602C204.54 68.9908 205.968 68.2666 207.46 67.7002C206.792 67.0332 205.978 66.5328 205.08 66.2402C203.78 65.8002 205.58 63.4402 206.44 63.3802C208.218 63.0972 209.858 62.2506 211.118 60.9652C212.378 59.6796 213.192 58.0232 213.44 56.2402C213.74 53.3002 210.8 50.4402 208.52 49.0202C206.05 47.462 203.106 46.8338 200.214 47.2478C197.323 47.662 194.674 49.0912 192.74 51.2802C191.34 52.8602 190.5 50.8802 191.54 49.6402C191.485 49.4156 191.478 49.182 191.519 48.9544C191.56 48.727 191.649 48.5108 191.78 48.3202C193.26 45.7402 194.72 40.7602 192.22 38.3202C188.86 35.0002 185.96 42.9002 185.42 45.2002C185.28 45.8602 183.7 47.9802 183.2 46.4202C181.2 39.9202 175.78 37.2402 173.58 37.9002C171.38 38.5602 171.9 41.3202 172.26 42.7802C172.757 44.683 173.704 46.4386 175.02 47.9002C175.8 48.8202 174.32 50.9002 173.22 50.5002C171.1 49.7202 157.54 46.2202 159.74 52.3802C161.1 56.2202 167.2 55.6602 170.32 56.6202C171.64 57.0002 170.58 58.9602 169.8 59.3802C166.54 61.2202 162.24 63.3802 161.56 67.5002C161.372 68.4282 161.434 69.3896 161.74 70.2858C162.045 71.182 162.584 71.9806 163.3 72.6002C164.68 73.6802 167.3 74.1002 168.48 72.3002C169.3 70.9602 170.88 71.1402 170.32 72.8802C169 76.8802 168.02 82.6802 171.66 85.9002C176.62 90.2402 179.66 81.1802 180.02 77.6802C180.02 76.9802 182.02 74.9402 182.24 76.4402C182.74 79.7402 184.84 86.7402 189.3 85.7802C193.76 84.8202 194.08 78.3402 193.56 74.7202C193.56 73.9802 194.76 71.2402 195.56 72.5602C198 75.8802 202.62 78.0002 206.54 76.0002C207.614 75.4786 208.452 74.571 208.886 73.4586C209.32 72.3462 209.318 71.1112 208.88 70.0002C206.89 70.5672 204.994 71.43 203.26 72.5602C201.7 73.5002 202.2 70.5002 203.2 69.8602Z" fill="#FF3E74"/>
<path d="M62.0002 93.46C59.8602 90.72 55.6402 87.62 51.8802 88.12C48.1202 88.62 49.6602 93.38 50.8802 95.28C51.886 96.8438 53.344 98.0646 55.0602 98.78C56.1402 99.26 54.8602 101.52 54.0002 101.6C51.9028 101.738 49.8582 102.317 48.0002 103.3C46.1802 104.32 43.7402 106.34 45.1802 108.62C47.1802 111.9 51.4402 107.58 53.6402 106.48C55.1602 105.72 54.8602 107.96 54.2602 108.64C52.1402 111.04 50.8002 115.52 53.0602 118.34C53.4046 118.707 53.83 118.988 54.3026 119.161C54.7752 119.333 55.2816 119.393 55.7814 119.334C56.281 119.276 56.7602 119.102 57.1802 118.825C57.6002 118.548 57.9496 118.176 58.2002 117.74C58.9134 116.345 59.3418 114.822 59.4602 113.26C59.6802 111.92 61.9202 110.6 61.7002 112.7C61.5296 114.452 61.8246 116.217 62.555 117.819C63.2854 119.42 64.4256 120.8 65.8602 121.82C66.5014 122.363 67.2622 122.747 68.0802 122.94C69.4802 123.1 69.5202 122.58 69.8602 121.48C70.302 118.999 70.234 116.454 69.6602 114C69.5402 113.22 70.8202 110.56 71.7602 111.84C73.4202 114.08 76.9802 112.96 76.1202 109.84C75.74 108.844 75.1192 107.957 74.313 107.259C73.507 106.561 72.5406 106.074 71.5002 105.84C70.0402 105.38 71.5002 103.28 72.3202 102.94C74.4798 102.205 76.3914 100.882 77.8402 99.12C78.9002 97.82 79.4602 95.68 77.1602 95.7C76.339 95.852 75.565 96.1944 74.9002 96.7C73.4002 97.6 73.8002 95.18 74.3002 94.56C76.8602 91.3 78.1002 84.56 72.3002 84.42C67.9202 84.42 66.0202 88.7 64.5602 92.12C64.1802 93.06 62.5002 94.2 62.0002 93.46Z" fill="#FF3E74"/>
<path d="M274.3 164.94C274.62 164.2 274.92 163.46 275.18 162.78C275.588 162.094 276.178 161.534 276.884 161.16C277.588 160.786 278.384 160.613 279.18 160.66L276.66 149.5L261.58 164.94H274.3Z" fill="#FF3E74"/>
<path d="M239.48 202.16C232.66 201.58 228.12 197.32 225.94 190.72C223.56 196.72 221.62 202.72 219.94 208.98C226.054 205.69 232.648 203.388 239.48 202.16Z" fill="#FF3E74"/>
<path d="M304.54 165.7C303.454 166.648 302.2 167.381 300.84 167.86C299.802 167.95 298.758 167.95 297.72 167.86H295.44C295.44 168.26 295.32 168.7 295.24 169.18C294.9 171.18 294.86 173.84 293.24 175.36C291.62 176.88 288.9 176.2 286.84 175.84C283.604 175.285 280.406 174.537 277.26 173.6C275.68 173.1 274.12 172.68 273.42 171.36C272.952 170.248 272.904 169.005 273.28 167.86C273.08 167.86 239.4 167.86 239.28 167.86C235.682 171.586 232.728 175.885 230.54 180.58L238.54 180.86C237.66 178.46 239.1 175.08 240.28 172.86C240.28 172.04 241.08 170.58 241.94 170.52C245.368 170.206 248.824 170.334 252.22 170.9C254.62 171.3 258.42 171.78 260.34 173.28C260.83 173.808 261.174 174.455 261.338 175.156C261.504 175.857 261.484 176.589 261.28 177.28C261.23 178.804 260.892 180.304 260.28 181.7L300.28 183.12L318.94 178.76C319.2 177.9 326.38 151.2 326.32 151.4L304.54 165.7Z" fill="#FF3E74"/>
<path d="M318.34 181.54L302.54 185.24C301.66 196.08 292.54 205.38 281.28 204.72C277.144 204.454 273.186 202.944 269.924 200.388C266.662 197.832 264.25 194.351 263 190.4C259.98 194.686 255.824 198.045 251 200.1C255.496 199.132 260.128 198.969 264.68 199.62C266.1 199.9 264.78 202.78 263.58 202.54C257.76 201.44 251.9 202.72 246.18 203.7C241.94 204.42 237.7 205.22 233.54 206.32C234.08 207.6 235 208.98 235.34 210.1C236.98 215.472 236.56 221.262 234.16 226.34C239.34 227.048 244.554 227.468 249.78 227.6C257.96 228 265.66 228.46 273.78 228.12C274.3 224.88 275.96 220.42 278.92 219C281.36 217.82 282.74 220.62 283.54 223.24C284.258 221.59 285.388 220.15 286.82 219.06C289.58 217.06 290.96 219.4 291.8 222.64C292.042 223.478 292.208 224.334 292.3 225.2C299 222.7 304.1 218.24 303.98 211.2C303.98 209.98 306.26 208.04 306.28 209.92C306.46 221.34 295.84 228.24 284.62 229.92C272.8 231.8 260.62 231.16 248.62 230.48C237.74 229.86 224.08 229.88 216.14 222.62C214.9 227.74 213.82 232.92 213.02 237.24C242.74 243.24 286.44 243.62 325.38 236.06C324.56 229.56 318.32 182 318.34 181.54Z" fill="#FF3E74"/>
<path d="M377.04 236.12C373.522 235.514 369.91 235.782 366.52 236.9C365.34 237.22 362.52 237.84 361.82 238.9C360.6 240.9 365.06 240.5 366.02 240.48C367.976 240.452 369.926 240.29 371.86 240C373.48 239.76 372.42 242.56 371.32 242.88C368.52 243.608 365.772 244.53 363.1 245.64C362.22 246 361.22 246.06 362.44 246.64C364.42 247.05 366.462 247.05 368.44 246.64C372.96 246.08 373.96 244.98 374.34 245.66C374.428 246.182 374.358 246.72 374.136 247.202C373.914 247.682 373.554 248.086 373.1 248.36C369.948 249.462 366.902 250.848 364 252.5C368.338 253.582 372.884 253.498 377.18 252.26C384.7 249.8 384.66 238.24 377.04 236.12Z" fill="#FF3E74"/>
<path d="M371.7 233.26C372.02 231.42 372.06 223.12 370.06 224.36C369.16 224.94 368.6 228.14 368.42 229.06C368.12 230.614 368.006 232.198 368.08 233.78C368.108 233.918 368.108 234.062 368.08 234.2L371.7 233.26Z" fill="#FF3E74"/>
<path d="M292.84 167.6C291.72 166.14 278 163.06 276.84 163.8C276.24 165.42 274.84 168.4 275.88 169.8C276.778 170.286 277.742 170.643 278.74 170.86C281.424 171.664 284.148 172.332 286.9 172.86C287.9 173.06 291.12 174.12 292.02 173.5C292.562 172.629 292.916 171.654 293.058 170.637C293.198 169.621 293.124 168.586 292.84 167.6Z" fill="#FFDE26"/>
<path d="M257.02 175.24C255.826 174.733 254.578 174.364 253.3 174.14C249.632 173.34 245.87 173.044 242.12 173.26C242.034 173.519 241.92 173.767 241.78 174C240.44 176.64 239.78 179.54 242.58 180.36C243.78 180.699 245.004 180.946 246.24 181.1L255.48 181.42C256.48 181.401 257.436 181.009 258.16 180.32C258.518 179.948 258.778 179.494 258.916 178.997C259.056 178.5 259.07 177.977 258.956 177.474C258.844 176.97 258.608 176.503 258.27 176.113C257.932 175.723 257.502 175.423 257.02 175.24Z" fill="#FFDE26"/>
<path d="M183.1 117.82C167.38 122.382 151.249 125.384 134.94 126.78C111.82 160.12 95.7802 199.22 93.5002 239.66C92.837 247.886 93.0582 256.16 94.1602 264.34C128 252.78 160.3 234.92 185.8 209.02C197.28 197.42 212.02 178.66 217.8 163.44C206.44 149.14 199.3 130.42 196.66 112.36C192.348 114.66 187.802 116.49 183.1 117.82ZM111.58 188.56C109.166 195.042 107.11 201.652 105.42 208.36C101.599 221.98 99.6416 236.054 99.6002 250.2C99.6002 251.42 97.3202 253.36 97.3002 251.48C97.3332 237.094 99.311 222.776 103.18 208.92C104.927 201.954 107.057 195.091 109.56 188.36C110.14 186.84 112.34 186.58 111.58 188.56ZM118 197.36C122.62 188.92 139.86 157.36 140 157.18C140.32 156.7 140.94 156.26 141.48 156.5L144.46 157.8C146.509 154.746 148.883 151.923 151.54 149.38C155.84 145.22 161.28 141.56 167.4 141.08C173.1 140.62 180.22 143.2 182.2 149.08C184.66 156.4 179.46 165.08 174.64 171.08L175.58 171.5C176.32 171.82 175.82 173.06 175.36 173.7C174.9 174.34 155.66 202.06 149 211.7C148.858 211.932 148.645 212.112 148.393 212.212C148.141 212.314 147.863 212.33 147.6 212.26L118 199.22C117.28 198.92 117.68 197.78 118 197.36ZM206 166.16C206.94 164.44 208.58 165.42 207.66 167.12C197.86 184.652 184.989 200.28 169.66 213.26C152.24 228.32 131.3 240.72 118.66 245.96C116.92 246.7 117.48 243.8 118.66 243.32C121.22 242.26 123.7 241.04 126.16 239.8C158.54 223.46 188.44 198.46 206 166.16Z" fill="#FFDE26"/>
<path d="M177.66 162.74C179.8 158.74 181.66 153.32 178.96 149.12C175.72 144.28 168.52 143.12 163.24 144.58C156.26 146.58 150.16 152.58 146.14 158.58L172.66 170.18C174.58 167.88 176.256 165.387 177.66 162.74Z" fill="#FFDE26"/>
<path d="M330.82 251.44H362C362.448 250.866 362.998 250.378 363.62 250C360.96 250 358.86 249.32 359.1 247.1C359.242 246.274 359.602 245.5 360.144 244.86C360.686 244.22 361.388 243.738 362.18 243.46C360.46 243.32 359 242.76 359 240.7C359 237.66 361.84 235.86 364.7 234.7L327.5 233.4C328.18 238.26 328 232.36 330.82 251.44Z" fill="#6CECC4"/>
<path d="M209.46 247.58C210.254 240.898 211.396 234.262 212.88 227.7L186.4 211.28C182.4 215.36 178.194 219.246 173.78 222.94L209.46 247.58Z" fill="#6CECC4"/>
<path d="M264 284.26C251.08 257.08 244.94 244.04 245.02 244.26C235.546 243.738 226.11 242.67 216.76 241.06C217.74 242 249.24 270.74 264 284.26Z" fill="#6CECC4"/>
<path d="M324.1 239.12C316.1 240.54 303.3 242.36 291.36 243.42L271.5 286.5L324.1 239.12Z" fill="#6CECC4"/>
<path d="M271.76 289.06H329.6C331.5 274.9 329.36 254.06 326.2 240.02L271.76 289.06Z" fill="#6CECC4"/>
<path d="M212.76 289.06H264.76L212.56 241.38C210 256.92 210.82 273.42 212.76 289.06Z" fill="#6CECC4"/>
<path d="M187.52 55.4602C188.396 56.1888 189.158 57.0452 189.78 58.0002C190.56 59.1602 192.46 56.6402 191.78 55.5802C190.867 54.2172 189.707 53.0368 188.36 52.1002C188.255 52.0266 188.128 51.9912 188 52.0002C188 51.2002 188.22 50.4002 188.32 49.6202C188.62 47.6202 186.32 48.8202 186.08 50.1802L185.54 54.1802C185.538 55.4684 185.376 56.7514 185.06 58.0002C185.06 57.8402 184.78 58.0002 184.6 58.0002C183.946 58.1662 183.275 58.26 182.6 58.2802C180.98 58.5002 179.36 58.6402 177.72 58.7402C176.48 58.7402 175.3 61.7402 176.62 61.6602C177.94 61.5802 179.1 61.4802 180.32 61.3602C180.32 61.7202 180.16 61.3602 183.44 65.0402C184.4 66.1202 186.24 63.5402 185.44 62.6402L184 60.9402C187.02 60.3802 187.14 58.3602 187.52 55.4602Z" fill="#0D128A"/>
<path d="M197.62 58C193.169 59.9338 189.455 63.242 187.02 67.44C186.02 69.1 187.68 70.06 188.68 68.4C190.771 64.9188 193.917 62.1938 197.66 60.62C198.8 60 199.36 57.14 197.62 58Z" fill="#0D128A"/>
<path d="M31.4 216C30.3998 215.76 29.4468 215.354 28.58 214.8C27.48 214.12 25.84 216.8 26.98 217.56C28.0004 218.2 29.1234 218.662 30.3 218.92C31.5 219.2 32.84 216.32 31.4 216Z" fill="#0D128A"/>
<path d="M36.0004 218.36C36.5814 217.788 37.2584 217.32 38.0004 216.98C38.3522 216.78 38.6436 216.488 38.844 216.136C39.0446 215.784 39.147 215.386 39.1404 214.98C39.1404 214.24 38.5804 214.04 37.9604 214.3C36.5004 214.96 33.9604 216.62 34.5004 218.16C34.8404 218.9 35.6204 218.78 36.0004 218.36Z" fill="#0D128A"/>
<path d="M28.0002 225.84C28.5002 226.38 29.2202 225.84 29.5802 225.46C30.013 224.938 30.5484 224.512 31.1528 224.204C31.7574 223.898 32.4182 223.718 33.0948 223.678C33.7714 223.636 34.4494 223.734 35.0866 223.964C35.7238 224.196 36.307 224.554 36.8002 225.02C37.7602 225.8 39.4402 223.02 38.4002 222.24C32.9402 218 26.5402 224.28 28.0002 225.84Z" fill="#0D128A"/>
<path d="M68.3802 105.28C68.0002 103.72 66.9802 101.76 65.0802 102.54C61.4202 104.06 62.7802 111.94 66.1402 110.54C67.0548 110.047 67.7748 109.258 68.1818 108.302C68.5888 107.347 68.6588 106.281 68.3802 105.28Z" fill="#0D128A"/>
<path d="M60.14 99.64C59.3 98.5 57.42 101.06 58.14 102.06L59.54 103.92C60.4 105.06 62.28 102.5 61.54 101.5L60.14 99.64Z" fill="#0D128A"/>
<path d="M63.5204 98.16C63.9006 98.4172 64.1992 98.7782 64.3804 99.2C64.6204 99.78 64.4804 100.12 64.8604 100.34C65.6604 100.78 66.8604 99.28 66.8604 98.34C66.8022 97.7606 66.618 97.2008 66.321 96.6998C66.0238 96.199 65.621 95.769 65.1404 95.44C64.1204 94.74 62.4004 97.42 63.5204 98.16Z" fill="#0D128A"/>
<path d="M192.44 330.6H179.48C178.24 330.6 177.02 333.52 178.38 333.52H191.34C192.58 333.52 193.8 330.6 192.44 330.6Z" fill="#0D128A"/>
<path d="M207.46 330.6H201.86C200.62 330.6 199.4 333.52 200.76 333.52H206.36C207.6 333.52 208.82 330.6 207.46 330.6Z" fill="#0D128A"/>
<path d="M222.36 330.6H216.78C215.52 330.6 214.3 333.52 215.68 333.52H221.26C222.52 333.52 223.74 330.6 222.36 330.6Z" fill="#0D128A"/>
<path d="M237.28 330.6H231.68C230.44 330.6 229.22 333.52 230.6 333.52H236.18C237.42 333.52 238.64 330.6 237.28 330.6Z" fill="#0D128A"/>
<path d="M252.2 330.6H246.6C245.36 330.6 244.14 333.52 245.5 333.52H251.1C252.34 333.52 253.56 330.6 252.2 330.6Z" fill="#0D128A"/>
<path d="M267.12 330.6H261.52C260.28 330.6 259.06 333.52 260.42 333.52H266C267.26 333.52 268.48 330.6 267.12 330.6Z" fill="#0D128A"/>
<path d="M282 330.6H276.42C275.16 330.6 273.94 333.52 275.32 333.52H280.9C282.18 333.52 283.4 330.6 282 330.6Z" fill="#0D128A"/>
<path d="M296.94 330.6H291.34C290.1 330.6 288.88 333.52 290.24 333.52H295.84C297.08 333.52 298.3 330.6 296.94 330.6Z" fill="#0D128A"/>
<path d="M311.86 330.6H306.26C305.02 330.6 303.8 333.52 305.16 333.52H310.76C312 333.52 313.22 330.6 311.86 330.6Z" fill="#0D128A"/>
<path d="M326.78 330.6H321.18C319.94 330.6 318.72 333.52 320.08 333.52H325.68C326.92 333.52 328.14 330.6 326.78 330.6Z" fill="#0D128A"/>
<path d="M341.68 330.6H336.1C334.84 330.6 333.62 333.52 335 333.52H340.58C341.84 333.52 343.06 330.6 341.68 330.6Z" fill="#0D128A"/>
<path d="M356.6 330.6H351C349.76 330.6 348.54 333.52 349.9 333.52H355.5C356.74 333.52 358 330.6 356.6 330.6Z" fill="#0D128A"/>
<path d="M52.1002 212.9C54.5002 210.42 56.3202 207.08 53.4002 204.44C50.8402 202.14 45.2602 203.78 42.7402 206.28C41.8802 202 39.7202 196.28 34.3402 197.36C30.8002 198.02 29.6602 201.1 29.5402 204.28C26.0202 201.56 21.7402 199.8 17.8802 203.36C16.3746 204.662 15.4286 206.494 15.2386 208.476C15.0487 210.458 15.6294 212.436 16.8602 214C15.2801 214.73 13.871 215.784 12.7237 217.094C11.5765 218.402 10.7168 219.938 10.2002 221.6C9.92308 222.432 9.87718 223.324 10.0674 224.18C10.2576 225.036 10.6768 225.824 11.2802 226.46C12.0514 226.956 12.9147 227.292 13.8185 227.446C14.7223 227.6 15.648 227.572 16.5402 227.36C14.1602 231.12 13.9202 235.72 17.9002 237.58C15.7703 239.508 14.3597 242.104 13.9002 244.94C13.5802 246.94 15.9002 245.72 16.1402 244.36C16.374 242.878 17.0105 241.486 17.9804 240.34C18.9503 239.194 20.2162 238.336 21.6402 237.86C23.2716 237.034 24.747 235.932 26.0002 234.6C25.8934 235.674 26.055 236.758 26.4706 237.756C26.8862 238.752 27.543 239.63 28.3816 240.31C29.2204 240.99 30.2148 241.452 31.2758 241.652C32.3368 241.852 33.431 241.786 34.4602 241.46C33.6922 243.902 33.4804 246.486 33.8402 249.02C34.0002 250.2 36.3402 249.18 36.0602 247.02C35.7062 244.596 36.0676 242.122 37.1002 239.9C38.668 238.372 39.812 236.464 40.4202 234.36C43.3202 237.92 49.1002 240.18 52.6802 236.62C56.2602 233.06 54.2602 228.62 51.3202 225.44C52.8926 224.976 54.3044 224.084 55.3962 222.86C56.4882 221.638 57.2168 220.134 57.5002 218.52C58.0002 214.82 55.1602 213.32 52.1002 212.9ZM48.8402 223.62C47.8602 223.88 46.8402 225.62 47.7802 226.44C49.1978 227.524 50.4334 228.826 51.4402 230.3C52.8402 232.64 52.2402 235.66 48.8402 235.5C47.2042 235.38 45.631 234.82 44.2864 233.88C42.9418 232.94 41.8756 231.656 41.2002 230.16C40.6402 228.96 39.2002 231.18 39.0802 231.66C38.2402 235.52 36.8402 239.26 32.8402 238.8C28.8402 238.34 28.0002 234.3 28.6002 230.8C28.9002 229.1 27.2402 229.7 26.6002 230.6C25.1402 232.86 23.0602 235.46 20.0002 234.82C15.8802 233.96 16.9402 228.82 19.4202 226.82C19.9202 226.42 20.9402 224.32 19.6602 224.24C17.4602 224.12 12.4202 225.54 12.2402 221.98C12.0602 218.42 16.5602 216.28 19.1402 215.46C19.9802 215.18 21.3002 213.32 20.2202 212.64C16.5602 210.3 16.5602 204.22 21.7602 204.1C25.0202 204.1 27.7602 206.64 29.9802 208.72C31.1002 209.78 32.2802 207.48 31.9802 206.56C31.5802 204.56 31.0602 202.76 32.4802 201.12C33.9002 199.48 35.5202 199.96 37.0802 201.12C39.5802 202.9 40.1002 206.28 40.5802 209.12C39.7002 211.12 41.9202 210.74 42.5802 209.3C43.6602 207 47.5002 205.8 49.8802 206.28C50.344 206.322 50.7876 206.49 51.1628 206.766C51.5382 207.042 51.8312 207.416 52.0102 207.846C52.1892 208.276 52.2474 208.746 52.1788 209.208C52.11 209.668 51.917 210.102 51.6202 210.46C50.7776 211.428 49.7598 212.23 48.6202 212.82C48.1402 213.12 46.6202 215.64 48.1002 215.6C50.1002 215.6 53.3002 215.36 54.5202 217.32C57.0402 221.24 51.5002 222.96 48.8402 223.62Z" fill="#0D128A"/>
<path d="M159.32 56.68C161.39 58.017 163.779 58.7766 166.24 58.88C162.12 61.7 158.4 65.58 159.24 70.88C159.323 71.8106 159.627 72.708 160.128 73.4966C160.628 74.2852 161.311 74.9422 162.118 75.4124C162.925 75.8828 163.834 76.1524 164.767 76.199C165.7 76.2456 166.63 76.0676 167.48 75.68C166.4 80.9 166.28 88.1 171.94 89.68C176.42 90.92 179.44 86.44 181.02 82.08C182.68 86.54 186.12 90.88 190.92 87.7C192.526 86.5024 193.824 84.9402 194.707 83.1424C195.59 81.3446 196.033 79.3628 196 77.36C197.854 78.9304 200.242 79.7256 202.666 79.5804C205.092 79.435 207.368 78.3604 209.02 76.58C209.896 75.6062 210.56 74.4626 210.972 73.2202C211.386 71.978 211.538 70.6638 211.42 69.36C213.82 69.08 218.78 68.62 220.36 70.48C221.3 71.58 223.14 69 222.36 68.06C220.22 65.54 213.7 66.06 210.66 66.74C210.322 66.1116 209.89 65.5384 209.38 65.04C211.458 63.7634 213.14 61.9356 214.24 59.76C215.386 58.013 215.872 55.9162 215.616 53.8432C215.36 51.7702 214.376 49.8556 212.84 48.44C213.84 46.54 217.88 45.04 219.62 44.44C222.082 43.6192 224.668 43.24 227.26 43.32C228.5 43.32 229.74 40.42 228.36 40.4C224.762 40.272 221.18 40.9556 217.88 42.4C215.346 43.3616 213.11 44.9762 211.4 47.08C208.978 45.2496 206.032 44.2458 202.996 44.217C199.961 44.1882 196.997 45.1358 194.54 46.92C196.12 42.92 197.14 36.54 192.86 34.78C188.92 33.22 186 38 184.38 42C182.22 37.8 177.86 33.3 173.16 35.3C168.46 37.3 169.04 42.34 170.76 46.42C165.72 45.2 159.8 45.06 157.64 50.42C157.178 51.5006 157.092 52.7056 157.396 53.841C157.701 54.9764 158.379 55.9762 159.32 56.68ZM173.32 50.46C174.42 50.86 175.9 48.78 175.12 47.86C173.804 46.3986 172.858 44.6428 172.36 42.74C172 41.28 171.5 38.52 173.68 37.86C175.86 37.2 181.22 39.86 183.3 46.38C183.8 47.94 185.3 45.82 185.52 45.16C186.06 42.86 188.94 34.96 192.32 38.28C194.82 40.76 193.36 45.76 191.88 48.28C191.754 48.4728 191.668 48.689 191.626 48.9156C191.585 49.1424 191.59 49.3752 191.64 49.6C190.6 50.84 191.46 52.82 192.84 51.24C194.774 49.0512 197.424 47.6218 200.314 47.2078C203.206 46.7936 206.15 47.422 208.62 48.98C210.9 50.4 213.84 53.26 213.54 56.2C213.292 57.9832 212.478 59.6396 211.218 60.925C209.958 62.2106 208.318 63.0572 206.54 63.34C205.68 63.34 203.88 65.76 205.18 66.2C206.078 66.4928 206.892 66.993 207.56 67.66C206.068 68.2266 204.64 68.9506 203.3 69.82C202.3 70.46 201.8 73.46 203.3 72.44C205.03 71.3556 206.91 70.5332 208.88 70C209.318 71.111 209.32 72.3462 208.886 73.4584C208.452 74.5708 207.614 75.4784 206.54 76C202.54 78.16 198.02 76 195.66 72.62C194.76 71.3 193.46 74.04 193.66 74.78C194.18 78.4 194 84.78 189.4 85.84C184.8 86.9 182.84 79.84 182.34 76.5C182.12 75 180.2 77.04 180.12 77.74C179.72 81.24 176.72 90.3 171.76 85.96C168.12 82.74 169.1 76.98 170.42 72.94C170.98 71.2 169.4 70.94 168.58 72.36C167.48 74.16 164.78 73.74 163.4 72.66C162.684 72.0406 162.146 71.2418 161.84 70.3456C161.534 69.4494 161.472 68.488 161.66 67.56C162.34 63.56 166.64 61.28 169.9 59.44C170.68 59.02 171.74 57.06 170.42 56.68C167.3 55.72 161.2 56.28 159.84 52.44C157.54 46.18 171.1 49.68 173.22 50.46H173.32Z" fill="#0D128A"/>
<path d="M77.36 93.16C79.36 88.84 80.16 82.92 74.64 81.72C69.12 80.52 65.44 85.72 63.28 90.3C59.9 86.64 52.22 82.3 48.54 87.32C45.68 91.32 47.24 96.46 50.54 99.58C39.42 103.3 41.3 112.96 46.54 112.76C48.0376 112.597 49.4588 112.015 50.64 111.08C49.08 114.92 48.64 119.7 52.26 121.82C54.36 123.06 58 122.08 59.96 118.52C60.3478 120.312 61.2268 121.961 62.4982 123.282C63.7698 124.603 65.384 125.544 67.16 126C72.06 126.92 72.58 120.68 72.3 116C73.5122 116.1 74.724 115.803 75.7524 115.154C76.7808 114.504 77.5698 113.538 78 112.4C78.6264 110.925 78.6804 109.27 78.1516 107.757C77.6228 106.244 76.549 104.983 75.14 104.22C77.9914 102.614 80.1334 99.9936 81.14 96.88C82.2 93.4 79.8 92.64 77.36 93.16ZM72.32 103.02C71.42 103.36 70.04 105.48 71.5 105.92C72.5404 106.154 73.5068 106.641 74.3128 107.339C75.119 108.037 75.7398 108.924 76.12 109.92C76.98 113.02 73.42 114.14 71.76 111.92C70.82 110.64 69.54 113.3 69.66 114.08C70.2026 116.518 70.257 119.04 69.82 121.5C69.48 122.6 69.44 123.12 68.04 122.96C67.222 122.767 66.4612 122.383 65.82 121.84C64.3854 120.82 63.2452 119.44 62.5148 117.839C61.7844 116.237 61.4894 114.472 61.66 112.72C61.88 110.62 59.66 111.94 59.42 113.28C59.3016 114.842 58.8732 116.365 58.16 117.76C57.9094 118.196 57.56 118.568 57.14 118.845C56.72 119.122 56.2408 119.296 55.7412 119.355C55.2414 119.413 54.735 119.353 54.2624 119.181C53.7898 119.008 53.3644 118.727 53.02 118.36C50.76 115.54 52.1 111.06 54.22 108.66C54.82 107.98 55.12 105.74 53.6 106.5C51.4 107.6 47.22 111.92 45.14 108.64C43.7 106.36 46.14 104.32 47.96 103.32C49.818 102.337 51.8626 101.758 53.96 101.62C54.82 101.62 56.1 99.28 55.02 98.8C53.3038 98.0846 51.8458 96.8638 50.84 95.3C49.62 93.3 47.98 88.68 51.84 88.14C55.7 87.6 59.84 90.74 61.96 93.48C62.54 94.22 64.22 93.08 64.58 92.22C66.04 88.8 67.94 84.44 72.32 84.52C78.14 84.52 76.9 91.4 74.32 94.66C73.82 95.28 73.42 97.7 74.92 96.8C75.5828 96.2912 76.3578 95.9484 77.18 95.8C80.6 95.76 78.3 100.82 72.32 103.02Z" fill="#0D128A"/>
<path d="M390 361.48C384.854 349.12 379.706 336.766 374.56 324.42C374.46 324.18 374.3 323.9 374 323.9H174C173.704 323.868 173.405 323.926 173.141 324.064C172.878 324.204 172.662 324.418 172.52 324.68C172.1 325.1 173.34 322.56 154.52 363.94C154.34 364.36 154.26 365.5 155 365.48L388.26 364C388.55 363.972 388.832 363.882 389.084 363.734C389.336 363.586 389.552 363.386 389.718 363.146C389.884 362.906 389.994 362.632 390.044 362.344C390.092 362.056 390.078 361.762 390 361.48ZM159.68 362.54C159.08 362.54 158.14 362.4 157.36 362.44C162.694 350.56 168.087 338.686 173.54 326.82C379.18 326.82 372.32 326.92 372.52 326.82C372.64 327.2 372.94 327.68 373.06 328L386.78 360.9L159.68 362.54Z" fill="#0D128A"/>
<path d="M302 347.66H242.88C242.02 347.66 241.18 349.12 241.18 349.66V356.88C241.18 357.22 241.36 357.7 241.78 357.7L300.9 356.86C301.9 356.86 302.6 355.66 302.6 354.86V348.48C302.6 348.14 302.42 347.66 302 347.66ZM243.48 354.86V350.58H300.3V354L243.48 354.86Z" fill="#0D128A"/>
<path d="M377.18 232.98C377.86 218.8 379.62 181.08 379.84 176.38C379.84 176.04 379.64 175.56 379.24 175.56L322.1 174.92C322.62 172.92 327.36 155.4 329.2 148.54C329.4 147.82 328.82 147 328.06 147.52C319.26 153.32 310.54 159.26 301.64 164.94H294.46C294.166 164.753 293.858 164.586 293.54 164.44C289.792 162.914 285.9 161.775 281.92 161.04C280.8 156.12 279.694 151.2 278.6 146.28C278.44 145.58 277.56 145.72 277.16 146.12L258.78 164.94H251.8C247.912 164.66 244.008 164.66 240.12 164.94C238.28 165.22 236.62 167.6 235.48 168.94C234.212 170.55 233.05 172.24 232 174L214.94 173.8C216.38 171.14 217.74 168.44 218.94 165.68C219.36 164.74 220.48 162.92 220.2 161.82C219.92 160.72 218.2 159.28 217.56 158.3C201.28 135.8 198.12 105.44 198.74 109.94C198.64 109.3 198.22 108.86 197.56 109.26C188.94 114.44 178.52 116.74 168.78 118.8C157.681 121.095 146.474 122.831 135.2 124C134.7 123.8 134.12 124.56 133.88 125C101.04 172.3 89.0804 220.68 91.1404 257.82C91.2566 260.902 91.5638 263.976 92.0604 267.02C92.0814 267.108 92.12 267.192 92.1738 267.266C92.2278 267.34 92.296 267.402 92.3744 267.448C92.4528 267.494 92.5398 267.526 92.63 267.538C92.7204 267.55 92.8124 267.544 92.9004 267.52C120.881 258.326 147.021 244.272 170.12 226C170.58 242.94 171.92 310.88 171.92 310.88C171.92 311.22 172.12 311.72 172.52 311.72H372.82C373.68 311.72 374.52 310.24 374.52 309.6C374.52 284.78 374.18 297 376.14 255.14C389.68 250.96 386.82 234.54 377.18 232.98ZM331.08 178C358.64 178.3 377.4 178.62 377.5 178.6C376.9 191.12 375.22 227.28 374.94 232.84C373.7 232.84 373.9 232.96 373.94 232.72C374.28 230.5 375.28 219.6 370.56 221.4C368.56 222.14 367.64 224.78 367.02 226.58C366.428 228.302 366.04 230.088 365.86 231.9L327.16 230.54C325.78 219.9 320.72 181.1 320.7 181.02L330.16 178.82C330.558 178.671 330.888 178.379 331.08 178ZM368 233.78C367.93 232.198 368.044 230.614 368.34 229.06C368.52 228.14 369.08 224.94 369.98 224.36C371.98 223.1 371.98 231.6 371.62 233.26L367.94 234.2C367.986 234.066 368.008 233.922 368 233.78ZM362.14 243.46C361.348 243.736 360.646 244.22 360.104 244.86C359.562 245.5 359.202 246.274 359.06 247.1C358.82 249.32 360.92 250 363.58 250C362.958 250.378 362.408 250.866 361.96 251.44H330.82C328.04 232.28 328.2 238.34 327.54 233.44L364.74 234.74C361.88 235.82 359.04 237.62 359.04 240.74C359.04 242.76 360.5 243.32 362.22 243.46H362.14ZM209.38 247.58L173.78 222.94C178.14 219.246 182.347 215.36 186.4 211.28L212.88 227.7C211.39 234.262 210.248 240.898 209.46 247.58H209.38ZM212.4 241.38C213.58 242.48 263.26 287.84 264.6 289.06H212.6C210.82 273.42 210 256.88 212.48 241.38H212.4ZM264 284.26C249.22 270.74 217.7 241.98 216.76 241.1C226.112 242.71 235.546 243.778 245.02 244.3C245.12 244.52 245.56 245.4 264 284.26ZM248.22 244.48H256.22C261.5 256.48 261.16 256.26 261.72 256.26H263.04L260 269.04L248.22 244.48ZM213.02 237.28C213.92 232.34 215.02 226.9 216.14 222.66C224.14 229.92 237.72 229.9 248.62 230.52C260.62 231.2 272.74 231.84 284.62 229.96C295.82 228.18 306.46 221.32 306.28 209.96C306.28 208.08 303.96 209.96 303.98 211.24C304.1 218.34 299 222.8 292.3 225.24C292.3 224.98 291.24 216 286.82 219.1C285.392 220.194 284.264 221.632 283.54 223.28C282.72 220.68 281.36 217.86 278.92 219.04C275.96 220.46 274.3 225.04 273.78 228.16C265.36 228.5 257.6 228.02 249.78 227.64C244.554 227.508 239.34 227.088 234.16 226.38C236.556 221.3 236.976 215.512 235.34 210.14C235 209.02 234.08 207.64 233.54 206.36C237.7 205.26 241.94 204.36 246.18 203.74C251.92 202.76 257.76 201.48 263.58 202.58C264.78 202.82 266.1 199.94 264.68 199.66C260.128 199.009 255.496 199.172 251 200.14C255.826 198.089 259.984 194.729 263 190.44C264.25 194.391 266.664 197.873 269.926 200.428C273.188 202.984 277.146 204.494 281.28 204.76C292.46 205.42 301.66 196.12 302.54 185.28L318.34 181.58C318.34 181.9 324.86 231.86 325.42 236.14C290.96 242.86 246 243.88 213.06 237.28H213.02ZM219.8 208.98C221.58 202.8 223.52 196.78 225.8 190.72C227.98 197.3 232.5 201.58 239.34 202.16C232.522 203.396 225.942 205.698 219.84 208.98H219.8ZM275.8 228.16C276.3 225.8 277.26 221.3 279.5 222.16C281 222.78 281.5 225.62 281.88 227.44C278.88 227.86 278.32 227.78 276 228.16H275.8ZM284.54 227.16C284.84 224.7 286.26 220.36 288.42 221.68C289 222.02 289.34 223.42 289.48 224.1C289.62 224.78 289.86 226.1 289.82 225.98C288.118 226.476 286.388 226.87 284.64 227.16H284.54ZM240.54 176.94C240.876 175.665 241.352 174.43 241.96 173.26C247.01 172.922 252.078 173.603 256.86 175.26C257.34 175.447 257.764 175.749 258.1 176.139C258.434 176.529 258.668 176.995 258.78 177.497C258.894 177.999 258.882 178.52 258.746 179.016C258.608 179.512 258.354 179.966 258 180.34C257.276 181.029 256.32 181.421 255.32 181.44L246.08 181.12C244.844 180.966 243.62 180.719 242.42 180.38C242.074 180.279 241.752 180.108 241.474 179.877C241.196 179.645 240.97 179.359 240.808 179.036C240.648 178.713 240.554 178.36 240.536 177.999C240.516 177.639 240.572 177.278 240.7 176.94H240.54ZM289.08 243.42L277.08 269.42L271.46 256.1H272.54C273.32 256.1 273.8 255.36 274.1 254.72C275.74 251.22 279.16 243.98 279.22 243.86C284 243.78 287.76 243.62 289.24 243.42H289.08ZM291.2 243.42C302.98 242.36 316.3 240.5 323.94 239.12L271.34 286.5L291.2 243.42ZM326.2 240C329.42 254.36 331.46 275.18 329.6 289.04H271.76L326.2 240ZM292.84 167.6C293.116 168.564 293.192 169.575 293.06 170.569C292.93 171.563 292.596 172.52 292.08 173.38C291.18 174 287.96 172.94 286.96 172.74C284.96 172.38 276.5 170.52 275.94 169.76C274.98 168.4 276.28 165.52 276.9 163.76C278.2 162.92 292 166.44 292.84 167.6ZM276.66 149.6L279.18 160.76C278.384 160.713 277.59 160.886 276.884 161.26C276.178 161.634 275.59 162.194 275.18 162.88C274.92 163.56 274.62 164.3 274.3 165.04H261.58L276.66 149.6ZM239.18 167.92C239.38 167.92 275.58 167.92 273.18 167.92C273.022 168.575 272.942 169.246 272.94 169.92C273.08 172.32 274.94 172.88 277.16 173.56C280.304 174.503 283.504 175.251 286.74 175.8C289.52 176.28 292.14 177.02 293.78 174.56C294.6 172.865 295.07 171.021 295.16 169.14C295.16 168.66 295.3 168.22 295.36 167.82H297.64C298.678 167.91 299.722 167.91 300.76 167.82C302.12 167.341 303.374 166.608 304.46 165.66L326.3 151.24L319 178.64L300.34 183L260.34 181.58C260.832 180.53 261.124 179.397 261.2 178.24C261.38 176.52 261.86 174.24 260.4 173.2C258.884 172.232 257.18 171.598 255.4 171.34C251.006 170.363 246.486 170.06 242 170.44C241.14 170.44 240.32 171.96 240.34 172.78C239.16 175.04 237.74 178.42 238.6 180.78L230.6 180.5C232.736 175.826 235.636 171.541 239.18 167.82V167.92ZM230.26 176.92C229.52 178.22 229 179.24 228.26 180.56H226.26C225.26 180.56 224.58 181.78 224.56 182.56C224.548 184.245 224.702 185.926 225.02 187.58C221.928 195.153 219.256 202.892 217.02 210.76C213.4 213.5 211.3 216.98 214.3 220.92C214 222.1 213.72 223.28 213.44 224.46L188.48 209C197.929 199.242 206.18 188.392 213.06 176.68L230.26 176.92ZM94.2604 264.44C93.1584 256.26 92.9372 247.986 93.6004 239.76C95.8804 199.34 111.88 160.3 135.04 126.88C151.349 125.484 167.481 122.482 183.2 117.92C187.889 116.587 192.421 114.757 196.72 112.46C199.36 130.46 206.5 149.24 217.86 163.54C212.08 178.88 197.4 197.54 185.86 209.12C160.28 234.86 128.26 252.7 94.1604 264.34L94.2604 264.44ZM172.44 226L209.1 251.3C208.236 263.928 208.638 276.612 210.3 289.16H181.88C179.322 289.02 176.758 289.02 174.2 289.16C172.44 225.48 172.78 238.14 172.44 226ZM372.22 308.86C163.34 308.86 174.44 308.74 174.22 308.86V292C272.7 292 371.52 292.22 372.22 292V308.86ZM372.22 289.16H331.76C333.228 277.626 333.052 265.944 331.24 254.46H361.54C362.46 255.82 365.38 256.06 367.06 256.16C369.34 256.332 371.634 256.204 373.88 255.78C373.32 267.66 373.14 271.44 372.3 289.06L372.22 289.16ZM376.1 252.68C372.1 253.66 367.922 253.66 363.92 252.68C366.988 251.03 370.154 249.566 373.4 248.3C374.34 247.48 374.9 245.26 373.56 245.66C371.3 246.36 364.4 247.82 362.36 246.9C361.14 246.32 362.14 246.26 363.02 245.9C365.73 244.782 368.51 243.84 371.34 243.08C372.28 242.7 373.22 240.5 372.16 240.28C371.62 240.16 369.82 240.7 365.94 240.74C364.98 240.74 360.52 241.26 361.74 239.16C362.4 238 365.26 237.38 366.44 237.16C371.16 235.9 377.1 234.88 380.44 238.42C381.41 239.534 382.08 240.876 382.392 242.318C382.702 243.762 382.642 245.262 382.216 246.676C381.792 248.09 381.014 249.372 379.958 250.406C378.904 251.438 377.604 252.186 376.18 252.58L376.1 252.68Z" fill="#0D128A"/>
<path d="M267.46 294C266.064 294.268 264.804 295.014 263.896 296.108C262.988 297.202 262.488 298.578 262.48 300C262.472 300.664 262.604 301.324 262.866 301.934C263.128 302.544 263.516 303.094 264.006 303.544C264.494 303.994 265.072 304.338 265.702 304.55C266.332 304.764 266.998 304.842 267.66 304.78C269.048 304.566 270.314 303.872 271.242 302.82C272.17 301.768 272.7 300.422 272.74 299.02C272.782 298.328 272.672 297.634 272.418 296.988C272.164 296.342 271.772 295.76 271.268 295.282C270.766 294.802 270.164 294.44 269.506 294.22C268.848 293.998 268.15 293.924 267.46 294ZM264.78 298.76C264.78 297.28 266.42 296.76 267.72 296.94C268.462 297.07 269.14 297.446 269.64 298.01C270.142 298.572 270.438 299.288 270.48 300.04C270.28 303.34 264.68 301.7 264.78 298.66V298.76Z" fill="#0D128A"/>
<path d="M118 199.22L147.56 212.14C147.823 212.214 148.102 212.198 148.355 212.098C148.608 211.996 148.821 211.814 148.96 211.58C177.14 171 175.4 173.58 175.6 173.16C175.8 172.74 176.16 171.7 175.6 171.42L174.66 171C179.48 165.14 184.66 156.38 182.22 149C180.22 143.14 173.12 140.56 167.42 141C161.3 141.48 155.86 145.14 151.56 149.3C148.898 151.838 146.523 154.662 144.48 157.72L141.5 156.42C140.78 156.1 139.98 156.96 139.68 157.7C133.36 169.22 118.94 195.7 118.04 197.28C117.68 197.78 117.28 198.92 118 199.22ZM163.24 144.58C168.52 143.08 175.72 144.28 178.96 149.12C181.76 153.32 179.8 158.74 177.66 162.74C176.256 165.387 174.58 167.88 172.66 170.18L146.14 158.58C150.16 152.5 156.26 146.54 163.24 144.58ZM140.7 159.66L172.86 173.66L148.34 209.04L120.34 196.82C120.6 196.44 140.34 160.34 140.7 159.66Z" fill="#0D128A"/>
<path d="M153.48 179.64C154.58 177 155.02 172.4 151.58 171.24C146.84 169.66 141.78 177.56 143.82 182.34C141.12 185.26 138.44 188.2 135.82 191.14C135.44 191.56 134.82 192.98 135.6 193.36L143.06 197.08C143.86 197.48 144.64 196.4 144.88 195.8C146.3 191.98 147.72 188.14 149.16 184.32C151.09 183.296 152.614 181.645 153.48 179.64Z" fill="#0D128A"/>
<path d="M109.56 188.36C107.057 195.091 104.928 201.954 103.18 208.92C99.3112 222.776 97.3334 237.094 97.3002 251.48C97.3002 253.36 99.6202 251.48 99.6002 250.2C99.6416 236.054 101.6 221.98 105.42 208.36C107.11 201.652 109.166 195.042 111.58 188.56C112.34 186.58 110.14 186.84 109.56 188.36Z" fill="#0D128A"/>
<path d="M207.74 167.12C208.66 165.42 207.02 164.44 206.08 166.16C188.44 198.46 158.54 223.46 126.22 239.8C123.76 241.04 121.28 242.26 118.72 243.32C117.58 243.8 117.02 246.7 118.72 245.96C131.36 240.72 152.3 228.34 169.72 213.26C185.056 200.282 197.934 184.654 207.74 167.12Z" fill="#0D128A"/>
<path d="M151.72 73.42C145.853 81.5668 141.963 90.9682 140.359 100.879C138.755 110.79 139.482 120.938 142.48 130.52L78.7802 62.66C77.7802 61.58 75.9602 64.18 76.7802 65.06L145.72 138.5C146.78 139.64 148.22 137.08 147.72 136.08C144.876 130.263 143.063 123.997 142.36 117.56C140.429 102.577 144.198 87.4148 152.92 75.08C153.82 73.78 152.94 71.68 151.72 73.42Z" fill="#0D128A"/>
<path d="M113.66 180.48C94.0002 167.44 46.3402 136 46.3402 136C45.2802 135.28 43.6402 138 44.7402 138.76L104.9 178.5C94.9048 177.169 84.7426 177.902 75.0418 180.654C65.341 183.406 56.3076 188.119 48.5002 194.5C47.4202 195.36 47.5002 198.02 49.1202 196.72C61.3838 186.726 76.6244 181.097 92.4402 180.72C99.0522 180.525 105.653 181.376 112 183.24C113.28 183.64 114.82 181.22 113.66 180.48Z" fill="#0D128A"/>
<path d="M61.3604 131.42L22.7604 107.88C21.6404 107.2 20.0204 109.88 21.1604 110.64L59.7604 134.2C60.8604 134.86 62.4804 132.12 61.3604 131.42Z" fill="#0D128A"/>
<path d="M73.08 75.6C73.98 76.4 75.68 73.74 74.68 72.84L58 57.68C57.1 56.88 55.4 59.54 56.4 60.46L73.08 75.6Z" fill="#0D128A"/>
<path d="M135.34 93.86C135.34 94.58 135.34 93.04 135.82 90.7C137.639 79.2374 143.62 68.848 152.62 61.52C153.72 60.68 153.64 58.02 152 59.3C146.588 63.688 142.118 69.1248 138.86 75.2838C135.602 81.4426 133.622 88.1966 133.04 95.14C132.9 96.98 135.24 95.04 135.34 93.86Z" fill="#0D128A"/>
<path d="M73.32 176.34C74.56 176.34 75.76 173.36 74.42 173.42C69.7594 173.789 65.1598 174.715 60.72 176.18C48.922 179.892 37.7944 185.469 27.76 192.7C26.78 193.38 26.28 196.38 27.76 195.32C37.6174 188.209 48.5488 182.719 60.14 179.06C64.408 177.627 68.8332 176.714 73.32 176.34Z" fill="#0D128A"/>
</svg>
