<svg width="400" height="400" viewBox="0 0 400 400" fill="none" xmlns="http://www.w3.org/2000/svg">
<path d="M133.76 81.38C149.76 67.38 146.48 31.98 117.54 32.46C82.46 33.06 80.52 69.44 108.02 84.46C86.28 90.26 69.26 131.76 114.16 136.46C170 128.24 170.22 90.12 133.76 81.38Z" fill="#3D9CFB"/>
<path d="M88.64 256C96.64 252.64 94.3 245.02 86.84 251.64C91.16 240.86 82.84 241.64 81.96 251.4C77.74 243.4 70.34 246.56 77.74 253.66C68.9 250.84 65.44 257.66 76.18 258.04C65.46 262.62 70.9 268.24 79.22 261.6C72.76 271.6 81.46 272.2 83.92 262.7C88.62 272.46 96.14 269.66 88.22 260.7C97.7 263.36 100.78 257.62 88.64 256Z" fill="#001434"/>
<path d="M54.24 252.68C59.92 244.86 53.7598 239.76 49.5798 251.1C48.0598 242.54 39.5798 242.8 44.6798 251.72C34.6798 244.78 33.5598 253.26 43.2598 256.42C33.8598 258.6 35.2598 266.42 44.5598 261.08C39.5398 268.94 45.7798 274.06 48.6798 263.72C50.8398 275.3 57.9198 271.44 53.0998 261.72C61.8398 270.54 64.52 262.24 55.3598 257.42C66.8 255.5 65.54 248.8 54.24 252.68Z" fill="#001434"/>
<path d="M108.82 175.56C105.867 173.809 102.372 173.203 99.0022 173.86C95.6318 174.516 92.6202 176.388 90.54 179.12C86.78 184.4 87.54 192.1 91 192.28C92.32 192.28 93 190.6 92.66 189.32C90.66 181.66 98.66 175.32 106.44 179.32C107.821 180.247 108.879 181.58 109.467 183.136C110.055 184.692 110.143 186.392 109.72 188C108.42 192.4 102.72 194.28 100.64 190.24C98.3 185.78 105.58 188 106.16 185.54C107.22 180.98 99.38 181.82 97.56 184.34C92.86 189.44 97.44 197.28 104.38 197.12C114.82 196.94 118.16 180.9 108.82 175.56Z" fill="#001434"/>
<path d="M121.64 253.14C127.96 244.78 123.06 239.58 117.06 251.42C116 243.26 107.6 243.08 112.14 251.76C102.56 244.7 100.96 252.66 110.48 256.12C100.98 257.72 102.48 264.22 111.54 260.6C106.08 267.8 112.06 272.94 115.54 263.3C117.08 274.36 124.36 271.06 120.06 261.58C128.32 270.36 131.46 262.66 122.54 257.58C132.94 256 131.78 249.08 121.64 253.14Z" fill="#001434"/>
<path d="M83.4 133.06C151.06 159.42 195.4 84.06 168.62 42.62C153.72 19.5 121.72 6.00005 92.72 11.02C33.58 21.12 20.48 108.52 83.4 133.06ZM65.16 115.6C70.6 95.4 88 86.14 105.82 85.82C126.64 85.44 144.5 95.82 150.86 118.32C126 140.22 86.92 136 65.16 115.6ZM95.26 78.38C78.48 69.06 77.14 51 85.6 40.38C88.0954 37.2968 91.234 34.7958 94.7964 33.0516C98.3588 31.3076 102.259 30.3624 106.225 30.2824C110.19 30.2024 114.126 30.9894 117.756 32.5884C121.385 34.1876 124.622 36.56 127.24 39.54C135.24 48.44 132.12 63.54 127 70.98C123.523 75.8738 118.377 79.3272 112.531 80.6902C106.685 82.0532 100.542 81.2316 95.26 78.38ZM47.26 66.12C53.7 24.34 87.46 9.88005 118.12 15.72C145.86 21.02 171.02 43.32 171.8 69.72C172.18 83.44 167.8 98.6 154.5 114C150.5 102.12 141.52 86.76 121.36 82.24C146 69.02 141.3 24.74 106.3 25.76C72.3 26.76 65.28 67.1 93.14 82.7C77.74 86.44 67.26 96 61.38 111.76C55.6938 105.74 51.4684 98.4928 49.0304 90.5788C46.5924 82.6648 46.0072 74.2962 47.32 66.12H47.26Z" fill="#001434"/>
<path d="M51.26 193.12C47.14 196.4 46 192 48.88 186.58C51.36 181.8 50.2 178.58 47.48 176.7C43.18 173.78 34.1 179.1 37.8 182.7C38.0584 182.889 38.3536 183.021 38.6666 183.089C38.9794 183.156 39.303 183.156 39.6162 183.09C39.9294 183.024 40.225 182.893 40.4842 182.705C40.7434 182.517 40.96 182.277 41.12 182C42.84 179.34 46.42 180.68 44.7 184.22C40.58 191.44 42.54 196.22 45.48 198.1C46.7476 199.004 48.3028 199.412 49.851 199.246C51.3992 199.08 52.8328 198.352 53.88 197.2C56 194.48 54.74 190.36 51.26 193.12Z" fill="#001434"/>
<path d="M374.28 262.3C380.92 236.56 382.56 210.3 371.24 194.3C365.24 185.52 356.14 180.92 345.24 179.8C344.8 168.7 343.24 161.96 330.16 160.16C324.72 133.32 312.76 117.04 291.88 109.48C298.04 108 320.18 108.94 317.3 97.34C344.84 91.34 325.3 66.24 299.68 83.52C296.4 66.48 282.08 79.74 273.26 86.26C282.74 74.66 278.3 60.04 264 67.4C264.7 49.02 242.68 56.74 242.62 72.66C236 69.48 229.3 72.98 232.62 90.66C228.98 86.4 223.8 82.1 218.8 81.82C209.56 59.98 184.8 70.34 198.56 86.32C197.2 90.2 198.34 92.72 205.4 99.52C188.58 97.04 192.5 106.74 192.5 106.74C171.06 111.12 173.6 132 202.32 124.38C193.7 133.9 188.86 146.6 188.32 162.12C185.371 162.882 182.687 164.439 180.56 166.62C134.1 166.3 81.38 163.4 45.8 167.08C9.79998 170.58 15.18 210.42 46.96 211.08C75.66 210.8 112.76 211.64 143.34 211.7C136.52 218.54 133.08 224.6 132.58 235.06C88.74 234.3 77.94 234.72 45.72 235.78C13.5 236.84 11.72 278.58 43.54 280.66C75.54 281.86 107.54 280.26 139.54 280.16C143.36 295.52 149.4 311.9 161.66 319.36C159.08 346.42 149.66 352.74 158.12 358.24C152.76 359.98 146.86 361.12 139.14 368.98C131.9 376.36 137.86 387.32 144.9 387.6C159.08 388.2 252.74 395.02 257.06 383.1C258.68 387.3 261.36 388.34 265.32 388.28C269.28 388.22 326.56 387.9 326.56 387.9C326.56 387.9 363.8 386.18 365.36 378.6C367.54 368.02 360.08 363.34 345.62 356.6C353.96 347.7 340.04 341.62 336.3 303.66C359.04 297.82 368.46 284.84 374.28 262.3ZM43.7 275.76C18 274 19.74 241 45.86 240.5C78 239.44 88.68 239.08 132.44 239.76C132.827 251.784 134.729 263.712 138.1 275.26C106.16 275.42 74.32 276.94 43.7 275.76ZM247.7 98.68C260.78 97.42 267.4 101.1 273.08 105.18C257.82 100.72 236.96 104.42 222.32 110.4C224.82 105.04 235.6 99.86 247.64 98.68H247.7ZM182.8 171.4C183.94 168.3 187.48 167.02 191.04 166.46C191.595 166.366 192.099 166.081 192.465 165.653C192.83 165.225 193.034 164.683 193.04 164.12C193.041 155.236 194.958 146.456 198.66 138.38C200.504 138.137 202.266 137.468 203.808 136.426C205.348 135.385 206.626 134 207.54 132.38C215.54 136.7 226.56 130.72 225.54 122.18C229.68 126.82 237.02 124.46 239.18 121.16C239.192 121.769 239.328 122.369 239.58 122.923C239.832 123.477 240.196 123.974 240.648 124.382C241.098 124.791 241.63 125.102 242.206 125.298C242.782 125.494 243.394 125.569 244 125.52C241.6 134.8 249.7 143.34 261.16 137.12C275.88 139.36 276.28 126.24 274.08 122.34C277.12 123.26 281.06 122.34 281.92 119.08C283.92 123.08 287.92 127.22 297.58 125.08C297.806 126.32 298.274 127.502 298.96 128.56C299.646 129.617 300.534 130.528 301.574 131.24C302.612 131.953 303.784 132.452 305.016 132.709C306.25 132.967 307.522 132.977 308.76 132.74C308.76 136.38 314.94 142.04 318.92 143.44C321.4 144.3 324.92 157.12 325.86 163.16C327.02 170.34 339.86 158.34 340.44 179.58C330.896 180.021 321.836 183.915 314.948 190.537C308.06 197.16 303.814 206.06 303 215.58C292.72 212.1 284.7 215.58 283.72 232.66C259.48 233 229.4 230.06 207.9 218.48C188.5 208 176 190 182.8 171.4ZM288 268.84C292.5 290.46 302.46 298.36 322.68 298.68C324.02 298.68 324.68 299.66 324.08 300.84C322.6 303.7 302.84 302.62 292.78 290.84C288.16 285.44 284.66 275.16 284.3 268.56C284.12 266.78 287.1 264.82 288 268.84ZM251.22 235.68C257.886 236.466 264.92 236.994 272.32 237.26L254 269.64C254 269.64 246.28 256.86 246.64 253.4C250 247.16 260.14 246 251.14 235.68H251.22ZM201.22 249.68C197.74 250.28 196.02 236.16 194.14 227.52C193.932 226.926 193.952 226.276 194.196 225.696C194.44 225.116 194.89 224.646 195.46 224.38C199 223.12 200.1 228.38 200.92 233.94C201.46 238 204.56 249.04 201.12 249.6L201.22 249.68ZM46.9 206.18C21.08 205.66 16.58 174.64 46.24 171.88C80.34 168.3 132.24 171.02 177.3 171.38C174.6 176.76 174.76 184.82 176.82 191.38C166.744 195.226 157.264 200.478 148.66 206.98C134 206.64 63.6 206 46.9 206.18ZM146.9 287.98C157.44 274.8 211.32 248.58 219.66 261.98C221.66 265.2 221.5 273.32 213.98 280.18C216.84 287.36 219.02 300.74 213.74 307.94C209.296 305.302 205.338 301.92 202.04 297.94C201.678 297.522 201.164 297.264 200.612 297.222C200.06 297.18 199.515 297.356 199.093 297.716C198.671 298.074 198.408 298.584 198.361 299.136C198.313 299.688 198.486 300.234 198.84 300.66C201.992 305.194 206.084 308.994 210.84 311.8C206.584 316.108 201.174 319.094 195.26 320.4C191.672 317.404 188.396 314.054 185.48 310.4C183.48 308.06 181.32 311.28 182.96 313.96C184.739 316.698 186.811 319.232 189.14 321.52C167.42 323.6 152.44 309.6 146.8 288L146.9 287.98ZM223.46 373.32C223.344 373.626 223.16 373.9 222.922 374.124C222.686 374.35 222.4 374.518 222.09 374.618C221.778 374.718 221.45 374.746 221.126 374.702C220.802 374.658 220.492 374.54 220.22 374.36C213.16 368.6 203.82 363.36 175.88 362.36C172.78 362.36 171.88 358.76 174.92 358.66C202.34 357.78 224.82 368.54 223.36 373.32H223.46ZM224.12 260.22C223.23 258.17 221.634 256.508 219.62 255.54C217.62 245.54 216.42 238.6 214.94 227.4C220.164 229.334 225.508 230.924 230.94 232.16C220.4 242.44 229.16 244.16 231.6 251.4C230.92 253.32 226.58 257.74 224 260.22H224.12ZM258.12 368.96C255.56 369.36 255.22 359.64 249.9 344.4C247.66 337.98 246.6 335.36 248.9 334.4C251.2 333.44 252.68 339.24 256.52 353.46C259.58 365.18 260.82 368.52 258 368.96H258.12ZM259.7 316.96C255.9 316.64 236 317.24 236.96 313.14C237.24 311.92 236.48 310.96 252.24 312.1C268 313.24 297.38 312.7 304.86 310.98C310.04 309.8 311.9 313.4 309.18 314.22C299.62 317.04 265.84 317.38 259.58 316.88L259.7 316.96ZM324.84 358.56C307.88 359.24 293.64 364.74 282.04 369.78C280.28 370.54 279.4 369.1 280.04 367.92C281.66 365 291.72 361.08 302.2 358.18C316.96 354.18 328.46 354.92 329.08 356.36C329.34 357.16 328.36 358.34 324.72 358.48L324.84 358.56ZM288.96 238.56C286.4 221.26 296.12 215.52 302.78 221.24C304.1 222.36 303.52 236.12 306.78 235.86C307.104 235.824 307.416 235.718 307.698 235.552C307.978 235.386 308.222 235.164 308.41 234.896C308.598 234.63 308.73 234.328 308.794 234.008C308.856 233.688 308.852 233.358 308.78 233.04C304.52 211.28 312.42 191.38 332.54 185.56C332.14 186.2 327.26 209.28 332.2 209.56C336.2 209.84 334.04 201.86 337.88 184.5C344.922 183.101 352.232 184.538 358.22 188.5C355.906 196.194 354.326 204.088 353.5 212.08C353.12 215.18 356.42 217.7 357 214.62C358.396 206.782 360.184 199.019 362.36 191.36C378.12 201.08 377.72 232.66 370.04 260.18C361.46 290.26 297.02 293.48 288.84 238.52L288.96 238.56Z" fill="#001434"/>
<path d="M206.82 184.26C225.68 193.12 253.76 179.9 234.82 159.5C204.52 133.58 183.2 171.14 206.82 184.26ZM208.98 156C213.56 154.36 218.4 156 223.46 158.18C217.46 165.08 215.1 174.34 214.28 181.56C199 181.04 198.66 159.6 208.98 156Z" fill="#001434"/>
<path d="M155.22 194.14C155.04 197.24 160.02 197.76 160 194.62C160 189.56 161.8 175.8 156.88 176.34C152.64 176.78 155.38 191.22 155.22 194.14Z" fill="#001434"/>
<path d="M267.58 158C271.44 156.44 277.82 151.04 280.96 148.74C283.48 146.88 281.32 142.96 278.62 144.54C273.406 146.993 268.776 150.532 265.04 154.92C263.64 156.56 265.64 158.8 267.58 158Z" fill="#001434"/>
<path d="M256.58 188.54C261.36 188.7 266.9 188.82 267.28 186.54C267.66 184.26 265.38 184 259.28 183.78C249.56 183.44 249.6 183.3 249.42 180.8C249.54 178.46 249.8 176.129 250.2 173.82C250.222 173.217 250.02 172.626 249.63 172.165C249.24 171.704 248.692 171.406 248.092 171.328C247.494 171.25 246.888 171.399 246.394 171.746C245.898 172.092 245.552 172.611 245.42 173.2C243.52 184 242.54 188 256.58 188.54Z" fill="#001434"/>
<path d="M141.66 187.86C139.66 188.38 139.88 185.52 139.18 183.86C134.92 166.7 118.28 173.86 123.58 196.02C123.743 196.603 124.117 197.103 124.63 197.423C125.144 197.743 125.758 197.859 126.353 197.749C126.947 197.638 127.479 197.309 127.843 196.827C128.207 196.344 128.377 195.742 128.32 195.14C126.94 185.14 127.32 178.12 131.56 179.32C135.8 180.52 134.44 190.12 138.74 192.32C143.52 194.84 148.38 186 141.66 187.86Z" fill="#001434"/>
<path d="M228.5 148.94C232.38 152.14 239.98 160.36 243.02 159.92C249.72 158.92 235.14 147.38 231.02 144.84C228.38 143.2 226 146.94 228.5 148.94Z" fill="#001434"/>
<path d="M260.54 196.44C257.14 194.44 236.32 192.56 235.6 197.28C234.88 202 252.24 199.6 259.6 201.06C262 201.54 263.8 198.38 260.54 196.44Z" fill="#001434"/>
<path d="M79.7 190.76C72.5 198.28 65.46 190.98 68.5 179.34C68.86 178.06 68.14 176.38 66.8 176.38C60.98 176.38 59.96 195.14 69.14 198.56C71.6312 199.401 74.3184 199.468 76.849 198.755C79.3796 198.041 81.6352 196.579 83.32 194.56C85.54 191.88 82.48 187.84 79.7 190.76Z" fill="#001434"/>
<path d="M270.84 161.84C260.84 178.22 278.28 197.02 303.74 184.32C319.62 176.32 314.7 152.84 300 151.04C292.16 150 274.8 155.36 270.84 161.84ZM298.16 155.84C313.3 157.16 313.12 180.28 295 183.18C294.22 175.18 291.44 165.06 285.82 158.14C289.69 156.391 293.916 155.569 298.16 155.74V155.84Z" fill="#001434"/>
</svg>
