<svg width="400" height="400" viewBox="0 0 400 400" fill="none" xmlns="http://www.w3.org/2000/svg">
<path d="M261.066 115.06C257.044 111.059 251.71 108.65 246.05 108.277C240.39 107.904 234.786 109.593 230.274 113.032C225.762 116.471 222.648 121.426 221.506 126.983C220.366 132.54 221.274 138.322 224.066 143.26C226.916 141.438 233.526 136.156 233.184 138.7C232.804 141.246 226.802 146.376 226.802 146.376C226.834 146.628 226.846 146.882 226.84 147.136C228.912 149.509 231.442 151.441 234.278 152.815C237.114 154.19 240.196 154.979 243.344 155.136C246.49 155.293 249.638 154.815 252.596 153.73C255.554 152.645 258.264 150.976 260.562 148.821C262.862 146.666 264.704 144.07 265.978 141.189C267.252 138.307 267.934 135.198 267.98 132.047C268.028 128.897 267.44 125.769 266.252 122.85C265.064 119.932 263.3 117.282 261.066 115.06Z" fill="#B8FFD4"/>
<path d="M207.53 231.67C204.678 229.058 201.512 226.812 198.106 224.982C178.806 214.452 158.905 205.062 138.506 196.86C137.93 194.73 137.474 193.294 137.474 193.294L115.854 187.024C115.854 187.024 90.434 207.124 96.628 225.134C100.048 235.134 113.574 248.502 159.208 258.988C154.542 282.722 148.569 306.18 141.316 329.256C143.086 325.422 153.204 323.152 165.174 324.494C178.054 325.938 188.086 330.612 187.63 334.982L187.78 335.172C190.63 309.11 191.604 282.876 190.696 256.674L229.784 314.452C227.584 311.34 233.46 302.398 243.104 294.252C252.904 285.968 262.862 281.674 265.37 284.6L265.522 284.676L207.53 231.67Z" fill="#B8FFD4"/>
<path d="M354.612 217.384C353.752 215.974 352.492 214.852 350.994 214.158C349.496 213.464 347.826 213.23 346.194 213.486C344.564 213.742 343.044 214.476 341.83 215.594C340.616 216.714 339.76 218.168 339.372 219.772C338.984 221.376 339.082 223.06 339.65 224.61C340.22 226.16 341.236 227.508 342.57 228.48C343.904 229.452 345.496 230.008 347.146 230.074C348.796 230.142 350.428 229.718 351.838 228.858C352.774 228.288 353.59 227.538 354.236 226.654C354.884 225.768 355.348 224.762 355.606 223.696C355.864 222.63 355.91 221.524 355.738 220.442C355.568 219.358 355.184 218.32 354.612 217.384Z" fill="#E9E9E9"/>
<path d="M283.75 263.814C284.61 265.224 285.87 266.346 287.368 267.04C288.866 267.734 290.536 267.968 292.168 267.712C293.798 267.456 295.318 266.722 296.532 265.604C297.746 264.484 298.602 263.03 298.99 261.426C299.378 259.822 299.28 258.138 298.712 256.588C298.142 255.038 297.126 253.69 295.792 252.718C294.458 251.746 292.866 251.19 291.216 251.124C289.566 251.056 287.934 251.48 286.524 252.34C285.588 252.91 284.772 253.66 284.126 254.546C283.478 255.43 283.014 256.436 282.756 257.502C282.498 258.568 282.452 259.674 282.624 260.756C282.794 261.84 283.178 262.878 283.75 263.814Z" fill="#E9E9E9"/>
<path d="M336.146 83.256C336.804 83.8858 337.632 84.3064 338.528 84.4648C339.426 84.623 340.348 84.5118 341.182 84.1452C342.014 83.7786 342.72 83.173 343.21 82.405C343.698 81.6372 343.948 80.7416 343.928 79.8314C343.908 78.9214 343.618 78.038 343.094 77.2928C342.572 76.5476 341.84 75.9744 340.99 75.6456C340.142 75.3166 339.214 75.247 338.326 75.4454C337.438 75.6438 336.628 76.1014 336 76.76C335.162 77.643 334.708 78.8212 334.734 80.038C334.762 81.255 335.27 82.4116 336.146 83.256Z" fill="#E9E9E9"/>
<path d="M55.43 87.664C55.0524 88.254 54.8518 88.9396 54.8518 89.64C54.8518 90.3404 55.0524 91.0262 55.43 91.616C55.7914 92.0402 56.249 92.3718 56.7646 92.5834C57.2802 92.7948 57.8388 92.8802 58.394 92.832L55.43 87.664Z" fill="#E9E9E9"/>
<path d="M73.25 78.926C72.9244 78.4312 72.4542 78.049 71.9032 77.8314C71.3524 77.6136 70.7478 77.5714 70.172 77.71C71.198 79.344 72.186 81.016 73.25 82.648C73.562 82.0774 73.7254 81.4374 73.7254 80.787C73.7254 80.1366 73.562 79.4966 73.25 78.926Z" fill="#E9E9E9"/>
<path d="M265.588 284.636C263.916 282.66 258.9 283.914 252.82 287.448L261.142 296.148C265.322 291.02 267.184 286.574 265.588 284.636Z" fill="#E9E9E9"/>
<path d="M235.874 301.506C230.782 307.32 228.312 312.526 230.1 314.654C231.922 316.818 237.736 315.11 244.538 310.778L235.874 301.506Z" fill="#E9E9E9"/>
<path d="M151.18 101.836C149.92 100.586 148.266 99.8116 146.499 99.6452C144.732 99.4788 142.963 99.9308 141.492 100.924C138.687 100.294 135.758 100.533 133.092 101.608C132.24 100.184 131.034 99.0048 129.591 98.1858C128.148 97.3668 126.517 96.9358 124.858 96.935C123.198 96.9342 121.567 97.3636 120.123 98.1812C118.679 98.9986 117.472 100.177 116.618 101.6C115.765 103.023 115.296 104.643 115.256 106.302C115.215 107.961 115.606 109.602 116.389 111.065C117.172 112.528 118.321 113.763 119.723 114.65C121.126 115.536 122.735 116.044 124.392 116.124C124.732 119.342 126.166 122.347 128.456 124.634C128.456 124.634 135.676 133.374 131.154 137.78C132.671 136.595 133.905 135.086 134.766 133.365C135.627 131.643 136.094 129.751 136.132 127.826C136.167 127.448 136.101 127.068 135.942 126.724C131.308 121.444 136.018 117.15 138.07 120.834C139.058 122.62 139.704 122.62 140.16 121.67C141.908 116.96 149.888 110.538 151.824 118.936V118.898C152.131 120.5 152.271 122.129 152.242 123.76C152.242 122.812 152.28 119.848 152.28 117.036C152.591 115.207 152.539 113.335 152.128 111.526C153.125 110.054 153.576 108.279 153.403 106.51C153.23 104.74 152.443 103.087 151.18 101.836Z" fill="#E9E9E9"/>
<path d="M187.772 335.096C188.116 332.132 183.592 329.054 176.676 326.896L175.232 340.65C182.414 340.074 187.432 338.022 187.772 335.096Z" fill="#E9E9E9"/>
<path d="M141.112 329.89C140.77 332.968 145.712 336.236 153.194 338.364L154.794 324.23C147.04 324.722 141.492 326.812 141.112 329.89Z" fill="#E9E9E9"/>
<path d="M283.522 312.982C273.172 316.446 262.328 318.204 251.414 318.182L256.354 323.5C270.768 328.602 286.27 329.82 301.304 327.034C295.84 321.79 289.886 317.084 283.522 312.982Z" fill="#E9E9E9"/>
<path d="M176.828 369.216C167.842 362.588 159.611 354.994 152.282 346.57L151.4 354.2C153.68 360.546 158.354 373.692 175.946 390C177.892 384.452 177.626 376.626 176.828 369.216Z" fill="#E9E9E9"/>
<path d="M148.788 163.922C148.356 166.864 147.718 169.772 146.878 172.624C148.41 173.759 150.026 174.775 151.712 175.664C150.8 171.75 149.774 167.114 148.788 163.922Z" fill="#E9E9E9"/>
<path d="M139.174 134.818C139.896 136.718 140.574 138.692 141.226 140.974C141.148 139.572 141.492 138.179 142.214 136.974C141.06 136.477 140.024 135.743 139.174 134.818Z" fill="#E9E9E9"/>
<path d="M159.274 259.026L154.638 281.636L163.53 259.978L159.274 259.026Z" fill="#E9E9E9"/>
<path d="M107.45 151.2L110.714 163.082L113.714 156.168C113.714 156.168 107.8 151.47 107.45 151.2Z" fill="#E9E9E9"/>
<path d="M193.47 67.944L174.586 63.042L181.692 35.724L192.786 31.81L200.576 40.662L193.47 67.944Z" fill="#E9E9E9"/>
<path d="M282.61 53.544C282.874 54.5362 282.836 55.5842 282.504 56.5554C282.172 57.5266 281.558 58.3776 280.742 59.0004C279.926 59.6232 278.944 59.99 277.92 60.0546C276.896 60.119 275.874 59.8782 274.986 59.3626C274.1 58.847 273.384 58.0798 272.932 57.158C272.482 56.236 272.314 55.201 272.45 54.1836C272.586 53.1662 273.022 52.2122 273.7 51.4422C274.38 50.6722 275.272 50.121 276.264 49.858C277.594 49.5082 279.008 49.6996 280.198 50.3904C281.388 51.0814 282.254 52.2152 282.61 53.544Z" stroke="black" stroke-width="1.5" stroke-linecap="round" stroke-linejoin="round"/>
<path d="M298.91 62.852C299.174 63.8442 299.138 64.8922 298.804 65.8636C298.472 66.835 297.86 67.6862 297.044 68.3092C296.228 68.9324 295.246 69.2996 294.222 69.3644C293.196 69.4292 292.176 69.1886 291.288 68.6732C290.4 68.1578 289.686 67.3906 289.234 66.4688C288.782 65.547 288.614 64.5118 288.75 63.4944C288.886 62.4768 289.322 61.5228 290 60.7526C290.68 59.9826 291.572 59.431 292.564 59.168C293.894 58.8182 295.308 59.0094 296.498 59.6998C297.686 60.3902 298.554 61.5236 298.91 62.852Z" stroke="black" stroke-width="1.5" stroke-linecap="round" stroke-linejoin="round"/>
<path d="M277.29 73.91L294.16 44.918" stroke="black" stroke-width="1.5" stroke-linecap="round" stroke-linejoin="round"/>
<path d="M354.612 217.384C353.752 215.974 352.492 214.852 350.994 214.158C349.496 213.464 347.826 213.23 346.194 213.486C344.564 213.742 343.044 214.476 341.83 215.594C340.616 216.714 339.76 218.168 339.372 219.772C338.984 221.376 339.082 223.06 339.65 224.61C340.22 226.16 341.236 227.508 342.57 228.48C343.904 229.452 345.496 230.008 347.146 230.074C348.796 230.142 350.428 229.718 351.838 228.858C352.774 228.288 353.59 227.538 354.236 226.654C354.884 225.768 355.348 224.762 355.606 223.696C355.864 222.63 355.91 221.524 355.738 220.442C355.568 219.358 355.184 218.32 354.612 217.384Z" stroke="black" stroke-width="1.5" stroke-linecap="round" stroke-linejoin="round"/>
<path d="M283.75 263.814C284.61 265.224 285.87 266.346 287.368 267.04C288.866 267.734 290.536 267.968 292.168 267.712C293.798 267.456 295.318 266.722 296.532 265.604C297.746 264.484 298.602 263.03 298.99 261.426C299.378 259.822 299.28 258.138 298.712 256.588C298.142 255.038 297.126 253.69 295.792 252.718C294.458 251.746 292.866 251.19 291.216 251.124C289.566 251.056 287.934 251.48 286.524 252.34C285.588 252.91 284.772 253.66 284.126 254.546C283.478 255.43 283.014 256.436 282.756 257.502C282.498 258.568 282.452 259.674 282.624 260.756C282.794 261.84 283.178 262.878 283.75 263.814Z" stroke="black" stroke-width="1.5" stroke-linecap="round" stroke-linejoin="round"/>
<path d="M340.516 226.616L298.264 255.608" stroke="black" stroke-width="1.5" stroke-linecap="round" stroke-linejoin="round"/>
<path d="M346.254 213.508L322.43 95.112L339.338 79.952" stroke="black" stroke-width="1.5" stroke-linecap="round" stroke-linejoin="round"/>
<path d="M341.732 190.938L257.988 236.648L213.114 196.334L328.054 123.114L341.732 190.938Z" stroke="black" stroke-width="1.5" stroke-linecap="round" stroke-linejoin="round"/>
<path d="M336.146 83.256C336.804 83.8858 337.632 84.3064 338.528 84.4648C339.426 84.623 340.348 84.5118 341.182 84.1452C342.014 83.7786 342.72 83.173 343.21 82.405C343.698 81.6372 343.948 80.7416 343.928 79.8314C343.908 78.9214 343.618 78.038 343.094 77.2928C342.572 76.5476 341.84 75.9744 340.99 75.6456C340.142 75.3166 339.214 75.247 338.326 75.4454C337.438 75.6438 336.628 76.1014 336 76.76C335.162 77.643 334.708 78.8212 334.734 80.038C334.762 81.255 335.27 82.4116 336.146 83.256Z" stroke="black" stroke-width="1.5" stroke-linecap="round" stroke-linejoin="round"/>
<path d="M214.824 165.4C215.624 165.136 229.424 160.552 236.982 153.966" stroke="black" stroke-width="1.5" stroke-linecap="round" stroke-linejoin="round"/>
<path d="M232.948 155.184C232.882 154.069 232.718 152.961 232.462 151.874" stroke="black" stroke-width="1.5" stroke-linecap="round" stroke-linejoin="round"/>
<path d="M226.832 147.128C227.174 147.546 227.542 147.928 227.934 148.344C232.15 152.543 237.802 154.986 243.75 155.179C249.698 155.372 255.496 153.3 259.976 149.382C264.454 145.464 267.28 139.993 267.88 134.073C268.482 128.152 266.814 122.225 263.212 117.487C259.612 112.75 254.348 109.555 248.482 108.549C242.618 107.543 236.588 108.801 231.616 112.068C226.642 115.334 223.092 120.367 221.686 126.149C220.28 131.931 221.12 138.032 224.038 143.218" stroke="black" stroke-width="1.5" stroke-linecap="round" stroke-linejoin="round"/>
<path d="M110.752 163.352L113.678 156.21L107.45 151.204" stroke="black" stroke-width="1.5" stroke-linecap="round" stroke-linejoin="round"/>
<path d="M141.232 141.146L139.06 134.746C140.074 135.552 141.157 136.268 142.296 136.886" stroke="black" stroke-width="1.5" stroke-linecap="round" stroke-linejoin="round"/>
<path d="M145.71 148.116C139.212 148.002 132.448 143.252 126.674 137.934" stroke="black" stroke-width="1.5" stroke-linecap="round" stroke-linejoin="round"/>
<path d="M126.636 137.934L125.344 147.546L137.122 146.558L144.912 155.108L145.71 148.116" stroke="black" stroke-width="1.5" stroke-linecap="round" stroke-linejoin="round"/>
<path d="M70.172 77.71C70.7478 77.5766 71.3506 77.6214 71.9004 77.8386C72.4502 78.0558 72.9208 78.435 73.25 78.926C74.892 81.2 72.186 85.878 67.286 89.374C62.386 92.87 57.066 93.856 55.468 91.574C55.091 90.9838 54.8906 90.2982 54.8906 89.598C54.8906 88.8976 55.091 88.212 55.468 87.622" stroke="black" stroke-width="1.5" stroke-linecap="round" stroke-linejoin="round"/>
<path d="M219.84 155.64C221.854 154.272 227.288 150.396 226.794 146.33C226.794 146.33 232.794 141.2 233.176 138.656C233.558 136.112 226.794 141.466 223.976 143.256C219.244 146.298 214.32 149.027 209.232 151.426" stroke="black" stroke-width="1.5" stroke-linecap="round" stroke-linejoin="round"/>
<path d="M148.788 163.922L151.712 175.664" stroke="black" stroke-width="1.5" stroke-linecap="round" stroke-linejoin="round"/>
<path d="M152.244 123.76C152.244 122.81 152.282 119.848 152.282 117.036C152.593 115.207 152.541 113.335 152.13 111.526C153.119 110.052 153.565 108.28 153.392 106.514C153.218 104.747 152.435 103.096 151.178 101.843C149.921 100.59 148.267 99.8138 146.5 99.6464C144.733 99.4792 142.962 99.9314 141.492 100.926C138.688 100.294 135.757 100.533 133.092 101.61C132.24 100.186 131.034 99.0068 129.591 98.1878C128.148 97.3688 126.517 96.9378 124.858 96.937C123.198 96.9362 121.567 97.3656 120.123 98.183C118.679 99.0006 117.472 100.179 116.618 101.602C115.765 103.025 115.296 104.645 115.256 106.304C115.215 107.963 115.606 109.604 116.389 111.067C117.172 112.53 118.321 113.765 119.723 114.652C121.126 115.538 122.735 116.046 124.392 116.126C124.731 119.345 126.166 122.349 128.456 124.636C128.456 124.636 136 133.768 130.836 138.07" stroke="black" stroke-width="1.5" stroke-linecap="round" stroke-linejoin="round"/>
<path d="M244.538 310.778C237.738 315.11 231.892 316.812 230.06 314.654C226.46 310.404 238.546 298.254 243.436 294.126C248.036 290.244 262.018 280.402 265.588 284.636C267.188 286.534 265.322 291.058 261.142 296.188" stroke="black" stroke-width="1.5" stroke-linecap="round" stroke-linejoin="round"/>
<path d="M283.522 312.982C273.172 316.448 262.328 318.204 251.414 318.182" stroke="black" stroke-width="1.5" stroke-linecap="round" stroke-linejoin="round"/>
<path d="M252.82 287.486L262.51 297.594C266.454 302.12 271.144 305.936 276.378 308.878C285.52 313.716 293.924 319.832 301.342 327.04C286.308 329.826 270.806 328.608 256.392 323.506L235.874 301.506" stroke="black" stroke-width="1.5" stroke-linecap="round" stroke-linejoin="round"/>
<path d="M175.232 340.642C182.414 340.074 187.45 338.02 187.772 335.096C188.41 329.27 173.418 325.666 166.91 324.794C159.08 323.746 141.8 323.69 141.11 329.89C140.768 332.968 145.71 336.236 153.192 338.364" stroke="black" stroke-width="1.5" stroke-linecap="round" stroke-linejoin="round"/>
<path d="M152.282 346.57C159.583 355.022 167.817 362.618 176.828 369.216" stroke="black" stroke-width="1.5" stroke-linecap="round" stroke-linejoin="round"/>
<path d="M154.82 324.34L151.4 354.17C153.68 360.514 158.354 373.662 175.946 389.97C178.764 381.796 176.862 368.4 175.528 359.84C174.593 353.932 174.439 347.928 175.072 341.98C175.244 340.396 174.974 343.038 176.662 326.946" stroke="black" stroke-width="1.5" stroke-linecap="round" stroke-linejoin="round"/>
<path d="M153.726 284.484L163.454 259.864L159.162 258.908" stroke="black" stroke-width="1.5" stroke-linecap="round" stroke-linejoin="round"/>
<path d="M141.33 329.082C148.651 306.062 154.605 282.63 159.162 258.908C113.524 248.436 100.01 235.012 96.618 225.058C90.418 207.058 115.844 186.948 115.844 186.948" stroke="black" stroke-width="1.5" stroke-linecap="round" stroke-linejoin="round"/>
<path d="M135.222 206.25C152.457 215.668 168.744 226.726 183.858 239.27C185.855 240.876 187.487 242.89 188.647 245.176C189.806 247.462 190.466 249.97 190.582 252.53C191.739 280.082 190.813 307.684 187.81 335.096" stroke="black" stroke-width="1.5" stroke-linecap="round" stroke-linejoin="round"/>
<path d="M137.464 193.218C139.133 198.458 140.253 203.856 140.808 209.328" stroke="black" stroke-width="1.5" stroke-linecap="round" stroke-linejoin="round"/>
<path d="M229.656 314.014L190.734 256.482" stroke="black" stroke-width="1.5" stroke-linecap="round" stroke-linejoin="round"/>
<path d="M138.452 196.752C158.871 204.988 178.801 214.388 198.144 224.906C201.556 226.726 204.724 228.974 207.568 231.594L265.168 284.23" stroke="black" stroke-width="1.5" stroke-linecap="round" stroke-linejoin="round"/>
<path d="M73.212 82.648C73.212 82.648 63.866 70.11 65.462 60.914C67.096 51.492 65.21 51.314 61.092 59.814C58.366 65.442 57.444 78.584 57.444 78.584" stroke="black" stroke-width="1.5" stroke-linecap="round" stroke-linejoin="round"/>
<path d="M58.4 92.832C58.4 92.832 50.028 78.476 45.444 68.632C42.014 61.266 46.432 64.186 47.686 66.656" stroke="black" stroke-width="1.5" stroke-linecap="round" stroke-linejoin="round"/>
<path d="M54.328 60.876C53.7576 58.1256 53.4522 55.3268 53.416 52.518C53.416 44.082 55.478 44.498 57.292 51.644C58.1382 55.0024 59.1658 58.3126 60.37 61.56" stroke="black" stroke-width="1.5" stroke-linecap="round" stroke-linejoin="round"/>
<path d="M55.886 59.434C52.5352 63.1134 50.5498 67.832 50.262 72.8" stroke="black" stroke-width="1.5" stroke-linecap="round" stroke-linejoin="round"/>
<path d="M53.72 56.926C52.96 55.178 52.202 53.126 51.478 50.926C48.936 43.174 47.338 44.884 48.174 51.952C48.7762 56.8788 49.975 61.7144 51.744 66.352" stroke="black" stroke-width="1.5" stroke-linecap="round" stroke-linejoin="round"/>
<path d="M48.97 57.078C46.35 48.604 44.402 50.126 45.476 57.878C46.2984 63.0586 47.9126 68.082 50.262 72.772" stroke="black" stroke-width="1.5" stroke-linecap="round" stroke-linejoin="round"/>
<path d="M99.392 273.466L94.11 293.946" stroke="black" stroke-width="1.5" stroke-linecap="round" stroke-linejoin="round"/>
<path d="M106.992 286.384L86.512 281.064" stroke="black" stroke-width="1.5" stroke-linecap="round" stroke-linejoin="round"/>
<path d="M193.47 67.944L174.586 63.042L181.692 35.724L192.786 31.81L200.576 40.662L193.47 67.944Z" stroke="black" stroke-width="1.5" stroke-linecap="round" stroke-linejoin="round"/>
<path d="M193.128 39.486C193.016 39.9144 192.779 40.2998 192.447 40.5936C192.116 40.8874 191.704 41.0762 191.266 41.1364C190.827 41.1966 190.38 41.1252 189.982 40.9316C189.583 40.7378 189.251 40.4304 189.028 40.048C188.804 39.6656 188.699 39.2256 188.725 38.7834C188.752 38.3412 188.909 37.917 189.176 37.564C189.444 37.211 189.81 36.9452 190.229 36.8004C190.647 36.6556 191.099 36.638 191.528 36.75C192.096 36.9112 192.58 37.2862 192.878 37.7962C193.177 38.306 193.266 38.9116 193.128 39.486Z" stroke="black" stroke-width="1.5" stroke-linecap="round" stroke-linejoin="round"/>
<path d="M191.324 36.7C203.638 29.516 188.614 17.178 201 10" stroke="black" stroke-width="1.5" stroke-linecap="round" stroke-linejoin="round"/>
<path d="M249.286 123.266L239.712 140.098" stroke="black" stroke-width="1.5" stroke-linecap="round" stroke-linejoin="round"/>
<path d="M252.934 136.49L236.102 126.876" stroke="black" stroke-width="1.5" stroke-linecap="round" stroke-linejoin="round"/>
<path d="M55.26 91.288C65.026 110.75 84.54 132.444 107.46 151.204C110.892 162.961 113.696 174.893 115.86 186.948L137.48 193.218C141.113 186.588 144.259 179.704 146.894 172.618C152.694 176.554 159.015 179.661 165.674 181.85C168.954 183.025 172.527 183.105 175.856 182.078C189.282 177.997 202.388 172.93 215.068 166.918C214.378 160.834 212.04 155.053 208.306 150.2C196.942 155.421 184.989 159.249 172.706 161.6C162.449 157.929 152.703 152.963 143.706 146.82C140.506 144.714 140.834 140.168 142.306 136.878C146.118 138.744 151.974 139.11 152.254 124.022C152.552 108.822 142.636 115.904 140.316 121.306C139.784 122.548 139.238 122.906 138.082 120.83C136.036 117.142 131.282 121.43 135.954 126.72C136.145 127.334 136.196 127.983 136.106 128.62C134.538 136.878 130.368 141.62 123.72 136.02C104.414 119.798 89.18 105.204 73.26 78.912" stroke="black" stroke-width="1.5" stroke-linecap="round" stroke-linejoin="round"/>
<path d="M146.878 172.624C148.394 168.733 149.033 164.555 148.748 160.388" stroke="black" stroke-width="1.5" stroke-linecap="round" stroke-linejoin="round"/>
</svg>
