<svg width="282" height="285" viewBox="0 0 282 285" fill="none" xmlns="http://www.w3.org/2000/svg">
<g clip-path="url(#clip0_601_3)">
<path d="M217.861 28.1938L120.01 126.041C119.585 126.467 119.079 126.805 118.523 127.036C117.966 127.266 117.37 127.385 116.768 127.385C116.166 127.385 115.57 127.266 115.013 127.036C114.457 126.805 113.952 126.467 113.526 126.041C113.1 125.616 112.762 125.11 112.532 124.554C112.301 123.998 112.182 123.401 112.182 122.799C112.182 122.197 112.301 121.601 112.532 121.045C112.762 120.488 113.1 119.983 113.526 119.557L118.453 114.63" stroke="#2B4257" stroke-width="2" stroke-miterlimit="10" stroke-linecap="round"/>
<path d="M146.86 20.8812C150.294 21.1508 154.124 22.9613 157.286 26.1201C160.448 29.2788 162.252 33.1117 162.522 36.5433C165.957 36.8162 169.786 38.6235 172.948 41.7822C176.11 44.941 177.914 48.7739 178.184 52.2087C181.619 52.4784 185.448 54.2857 188.61 57.4444C191.772 60.6032 193.57 64.4489 193.846 67.8709C197.281 68.1405 201.111 69.9478 204.273 73.1066C207.435 76.2653 209.239 80.0982 209.508 83.5331C212.943 83.8027 216.773 85.61 219.935 88.7688C223.097 91.9275 224.901 95.7604 225.17 99.1952C225.373 99.2113 225.578 99.2305 225.78 99.2594C240.749 84.0017 235.343 54.1572 213.62 32.4344C191.898 10.7115 162.05 5.30566 146.795 20.2744C146.821 20.4703 146.844 20.6821 146.86 20.8812Z" fill="#E57873"/>
<path d="M225.171 99.1952C225.373 99.2112 225.578 99.2305 225.781 99.2594C240.749 84.0017 235.343 54.1572 213.621 32.4343" stroke="#2B4257" stroke-width="2" stroke-miterlimit="10" stroke-linecap="round"/>
<path d="M209.508 83.5332C212.943 83.8029 216.773 85.6101 219.935 88.7689" stroke="#2B4257" stroke-width="2" stroke-miterlimit="10" stroke-linecap="round"/>
<path d="M193.846 67.8708C197.281 68.1405 201.111 69.9478 204.273 73.1066" stroke="#2B4257" stroke-width="2" stroke-miterlimit="10" stroke-linecap="round"/>
<path d="M178.184 52.2087C181.619 52.4784 185.449 54.2857 188.611 57.4444" stroke="#2B4257" stroke-width="2" stroke-miterlimit="10" stroke-linecap="round"/>
<path d="M162.522 36.5435C165.957 36.8163 169.786 38.6236 172.948 41.7824" stroke="#2B4257" stroke-width="2" stroke-miterlimit="10" stroke-linecap="round"/>
<path d="M146.795 20.2744C146.821 20.4767 146.844 20.6821 146.86 20.8811C150.294 21.1508 154.124 22.9613 157.286 26.12" stroke="#2B4257" stroke-width="2" stroke-miterlimit="10" stroke-linecap="round"/>
<path d="M213.62 32.4344C191.898 10.7115 162.05 5.30566 146.795 20.2744" stroke="#FFF1D7" stroke-width="2" stroke-miterlimit="10" stroke-linecap="round"/>
<path d="M10.4713 151.308C14.1244 149.17 14.4454 138.24 14.4454 138.24L2.30796 136.035C-2.07064 145.748 6.81497 153.45 10.4713 151.308Z" fill="#F4AB9D"/>
<path d="M16.561 148.493C20.0921 145.925 15.3989 136.616 15.3058 135.909L8.88558 138.709C7.06223 143.922 12.4263 145.264 12.4263 145.264C12.4263 145.264 10.0284 145.382 8.5742 145.986C7.12001 146.589 13.0138 151.061 16.561 148.493Z" fill="#F4AB9D"/>
<path d="M8.87278 138.708C7.06227 143.922 12.4264 145.264 12.4264 145.264C12.4264 145.264 10.0284 145.382 8.57423 145.986" stroke="#2B4257" stroke-width="2" stroke-linecap="round" stroke-linejoin="round"/>
<path d="M131.84 109.07C131.84 109.07 132.482 106.822 130.556 106.1C128.63 105.378 120.444 107.705 120.444 107.705L119.481 119.342C125.098 126.725 139.062 120.144 139.865 118.379C140.667 116.613 131.84 109.07 131.84 109.07Z" fill="#FBC2A5"/>
<path d="M119.481 119.342C125.098 126.725 139.062 120.144 139.865 118.379" stroke="#2B4257" stroke-width="2" stroke-miterlimit="10" stroke-linecap="round"/>
<path d="M1.19106 140.009C-2.69639 113.32 7.18435 96.6881 16.1598 87.4366C25.7228 77.5751 36.0241 74.0022 37.1669 73.6331L42.1682 88.8843L42.2132 88.8683C42.1361 88.8972 34.1879 91.6643 27.238 99.0797C18.1662 108.732 14.7474 121.727 17.0747 137.701L1.19106 140.009Z" fill="#628ECC"/>
<path d="M1.99351 113.474C1.48065 115.659 1.08843 117.871 0.818604 120.1L16.4358 125.688C16.5404 123.418 16.8043 121.158 17.2255 118.925L1.99351 113.474Z" fill="#5BC0C3"/>
<path d="M1.19106 140.009C-2.69639 113.32 7.18435 96.6881 16.1598 87.4365" stroke="#2B4257" stroke-width="2" stroke-miterlimit="10" stroke-linecap="round"/>
<path d="M179.237 227.555C139.229 177.927 86.1115 156.355 85.5786 156.143L92.7147 138.253C93.315 138.49 107.642 144.259 127.304 156.643C145.386 168.033 171.677 187.486 194.231 215.466L179.237 227.555Z" fill="#FBC2A5"/>
<path d="M91.8093 158.945C95.2891 160.605 100.069 163.019 105.754 166.223L114.421 148.981C113.779 148.628 113.159 148.285 112.56 147.951L91.8093 158.945Z" fill="#2B4257"/>
<path d="M88.4226 265.081L74.3302 251.952C86.06 239.362 93.9119 228.085 97.671 218.429C100.384 211.456 100.881 205.495 99.122 200.712C94.5861 188.311 74.465 183.23 67.7751 182.414L70.0672 163.321C76.6485 164.26 83.0955 165.975 89.2733 168.431C103.481 174.107 113.141 182.989 117.201 194.112C120.607 203.421 120.071 213.963 115.596 225.43C110.971 237.365 101.822 250.713 88.4226 265.081Z" fill="#FBC2A5"/>
<path d="M101.44 174.806C97.6276 172.245 93.5481 170.106 89.2733 168.428C86.1831 167.199 83.0219 166.157 79.8067 165.308L69.1523 170.954L67.7751 182.44C72.6706 183.027 84.7599 185.907 92.6696 192.269L101.44 174.806Z" fill="#2B4257"/>
<path d="M48.3828 284.162H145.56" stroke="#2B4257" stroke-width="2" stroke-miterlimit="10" stroke-linecap="round"/>
<path d="M151.896 284.162H155.489" stroke="#2B4257" stroke-width="2" stroke-miterlimit="10" stroke-linecap="round"/>
<path d="M58.1033 39.6926C58.1033 39.6926 66.1703 42.0135 71.0946 49.0758C76.0189 56.1381 90.9974 43.731 97.3084 53.3035C99.8765 57.1717 102.987 58.2824 105.812 58.2343C106.479 58.2207 107.139 58.3791 107.727 58.6943C108.316 59.0095 108.813 59.4709 109.171 60.034C109.529 60.5971 109.737 61.2429 109.773 61.9094C109.809 62.5759 109.674 63.2404 109.378 63.8391L102.499 77.7422C98.4352 85.9697 87.1452 87.4399 81.3445 80.3295C81.2193 80.1786 81.0973 80.0246 80.9786 79.8641C74.2373 70.9849 69.1011 77.3441 57.1049 73.3347C49.192 70.6895 50.7521 66.1119 45.0862 67.6174C39.4204 69.123 39.0994 51.0982 39.0994 51.0982" fill="#2B4257"/>
<path d="M58.1033 39.6926C58.1033 39.6926 66.1703 42.0135 71.0946 49.0758C76.0189 56.1381 90.9974 43.731 97.3084 53.3035C99.8765 57.1717 102.987 58.2824 105.812 58.2343C106.479 58.2207 107.139 58.3791 107.727 58.6943C108.316 59.0095 108.813 59.4709 109.171 60.034C109.529 60.5971 109.737 61.2429 109.773 61.9094C109.809 62.5759 109.674 63.2404 109.378 63.8391L102.499 77.7422C98.4352 85.9697 87.1452 87.4399 81.3445 80.3295C81.2193 80.1786 81.0973 80.0246 80.9786 79.8641C74.2373 70.9849 69.1011 77.3441 57.1049 73.3347C49.192 70.6895 50.7521 66.1119 45.0862 67.6174C39.4204 69.123 39.0994 51.0982 39.0994 51.0982" stroke="#586977" stroke-width="2" stroke-miterlimit="10" stroke-linecap="round"/>
<path d="M36.6436 72.9558L46.8453 73.0842V62.5903L36.6436 61.4475V72.9558Z" fill="#FBC2A5"/>
<path d="M36.6436 61.4475V72.9558" stroke="#2B4257" stroke-width="2" stroke-miterlimit="10" stroke-linecap="round"/>
<path d="M46.8453 68.0924C43.9048 67.5917 41.7444 65.9192 41.7444 63.9353C41.7476 63.4423 41.8769 62.9582 42.12 62.5293L46.8453 62.5903V68.0924Z" fill="#2B4257"/>
<path d="M54.9539 43.0889L53.0889 57.7591H57.1047L54.9539 43.0889Z" fill="#F39B92"/>
<path d="M57.1049 57.7591L54.9509 43.0889" stroke="#FFF1D7" stroke-width="2" stroke-miterlimit="10" stroke-linecap="round"/>
<path d="M53.0889 57.759H57.1047" stroke="#2B4257" stroke-width="2" stroke-miterlimit="10" stroke-linecap="round"/>
<path d="M46.8452 73.0842V62.5903" stroke="#FFF1D7" stroke-width="2" stroke-miterlimit="10" stroke-linecap="round"/>
<path d="M39.5358 43.0889H54.9444V59.7076C54.9444 60.5782 54.7729 61.4402 54.4398 62.2444C54.1067 63.0487 53.6184 63.7794 53.0028 64.395C52.3873 65.0105 51.6565 65.4988 50.8523 65.8319C50.048 66.1651 49.186 66.3365 48.3155 66.3365H47.3974C44.5581 66.3365 41.835 65.2086 39.8273 63.2009C37.8196 61.1932 36.6917 58.4701 36.6917 55.6308V45.9266C36.6917 45.174 36.9906 44.4522 37.5228 43.92C38.055 43.3878 38.7768 43.0889 39.5294 43.0889H39.5358Z" fill="#FBC2A5"/>
<path d="M63.6983 46.1321C63.4832 38.2128 50.4213 37.5707 43.6319 39.7665C43.6319 39.7665 36.0913 40.1388 33.6291 45.4901C31.167 50.8414 36.698 63.7011 36.698 63.7011L40.7107 57.7078L43.3141 54.7064C43.3141 54.7064 44.4697 54.0643 45.2144 52.1383C45.6105 51.1421 46.286 50.2816 47.1596 49.6603C48.0333 49.0389 49.0678 48.6833 50.1388 48.636C51.0109 48.5955 51.8777 48.4784 52.7293 48.2861C54.3087 47.9105 55.1209 48.3664 55.5382 48.9121C56.3085 49.9783 57.4545 50.7125 58.7451 50.9666C61.0211 51.355 63.8267 50.8831 63.6983 46.1321Z" fill="#2B4257"/>
<path d="M55.5352 48.8992C56.3039 49.9709 57.4516 50.7099 58.7453 50.9665" stroke="#586977" stroke-width="2" stroke-miterlimit="10" stroke-linecap="round"/>
<path d="M43.3142 54.7095C43.3142 54.7095 44.4699 54.0675 45.2146 52.1414C45.6107 51.1453 46.2862 50.2847 47.1598 49.6634C48.0334 49.0421 49.0679 48.6864 50.1389 48.6392C51.011 48.5986 51.8779 48.4816 52.7295 48.2893C54.3089 47.9137 55.121 48.3695 55.5383 48.9153" stroke="#586977" stroke-width="2" stroke-miterlimit="10" stroke-linecap="round"/>
<path d="M54.9509 58.2502V59.7044C54.9513 60.5751 54.7802 61.4372 54.4472 62.2417C54.1142 63.0461 53.6259 63.7771 53.0103 64.3927C52.3947 65.0083 51.6637 65.4966 50.8593 65.8296C50.0548 66.1626 49.1927 66.3337 48.322 66.3333" stroke="#FFF1D7" stroke-width="2" stroke-miterlimit="10" stroke-linecap="round"/>
<path d="M49.2112 54.1765C49.2752 54.1242 49.3334 54.065 49.3845 53.9999C49.4624 53.9064 49.5609 53.8322 49.6723 53.7832C49.7837 53.7341 49.905 53.7116 50.0265 53.7174H53.1693V55.9453C53.1693 56.2617 53.1069 56.575 52.9857 56.8674C52.8645 57.1597 52.6869 57.4252 52.4629 57.6488C52.239 57.8724 51.9733 58.0497 51.6808 58.1705C51.3883 58.2913 51.0749 58.3533 50.7584 58.3529C50.1199 58.3529 49.5075 58.0992 49.056 57.6477C48.6045 57.1962 48.3509 56.5838 48.3509 55.9453C48.3491 55.6042 48.4257 55.2673 48.5749 54.9606C48.7241 54.6539 48.9418 54.3856 49.2112 54.1765Z" fill="#F4AB9D"/>
<path d="M53.1628 53.3035C53.0248 54.2055 52.1645 54.7833 51.0473 54.6389C50.3376 54.5375 49.6833 54.1979 49.1919 53.6759C49.3299 52.7738 50.1902 52.196 51.3074 52.3404C52.0176 52.4403 52.6723 52.7801 53.1628 53.3035Z" fill="#F7F7F7"/>
<path d="M53.1628 53.3035C53.0248 54.2055 52.1645 54.7833 51.0473 54.6389C50.3376 54.5375 49.6833 54.1979 49.1919 53.6758" stroke="#2B4257" stroke-width="2" stroke-miterlimit="10" stroke-linecap="round"/>
<path d="M51.9672 53.7612C52.085 53.7357 52.1544 53.5942 52.1221 53.4452C52.0898 53.2962 51.9681 53.1961 51.8503 53.2216C51.7325 53.2471 51.6631 53.3886 51.6954 53.5376C51.7277 53.6867 51.8493 53.7868 51.9672 53.7612Z" fill="#2B4257"/>
<path d="M47.3558 57.0529C48.2777 57.0529 49.025 56.3055 49.025 55.3836C49.025 54.4617 48.2777 53.7144 47.3558 53.7144C46.4339 53.7144 45.6865 54.4617 45.6865 55.3836C45.6865 56.3055 46.4339 57.0529 47.3558 57.0529Z" fill="#E57873"/>
<path d="M53.2365 50.7194C52.6725 50.5685 52.0786 50.5691 51.5149 50.7213C50.9513 50.8735 50.4378 51.1718 50.0264 51.5861" stroke="#2B4257" stroke-width="2" stroke-miterlimit="10" stroke-linecap="round"/>
<path d="M53.1595 59.3866C52.9328 59.1026 52.6358 58.8829 52.2978 58.7495C51.9599 58.616 51.5929 58.5733 51.2334 58.6258" stroke="#2B4257" stroke-width="2" stroke-miterlimit="10" stroke-linecap="round"/>
<path d="M40.9867 58.6129C42.5097 58.6129 43.7442 57.3783 43.7442 55.8554C43.7442 54.3325 42.5097 53.0979 40.9867 53.0979C39.4638 53.0979 38.2292 54.3325 38.2292 55.8554C38.2292 57.3783 39.4638 58.6129 40.9867 58.6129Z" fill="#FBC2A5"/>
<path d="M40.9867 57.268C41.7667 57.268 42.3991 56.6356 42.3991 55.8556C42.3991 55.0755 41.7667 54.4431 40.9867 54.4431C40.2066 54.4431 39.5742 55.0755 39.5742 55.8556C39.5742 56.6356 40.2066 57.268 40.9867 57.268Z" fill="#F4AB9D"/>
<path d="M26.1433 121.047H59.2428V125.12C59.2411 129.508 57.4969 133.715 54.3937 136.817C51.2905 139.919 47.0824 141.662 42.6947 141.662C38.3064 141.663 34.0974 139.921 30.9936 136.819C27.8897 133.716 26.145 129.509 26.1433 125.12V121.047Z" fill="#5BC0C3"/>
<path d="M42.6947 71.7166C47.0835 71.7166 51.2926 73.46 54.396 76.5634C57.4994 79.6668 59.2428 83.8759 59.2428 88.2647V121.046H26.1433V88.2679C26.1429 86.0943 26.5707 83.9418 27.4024 81.9335C28.234 79.9252 29.4531 78.1004 30.9902 76.5634C32.5272 75.0264 34.352 73.8072 36.3602 72.9756C38.3685 72.144 40.521 71.7161 42.6947 71.7166Z" fill="#5BC0C3"/>
<path d="M57.1049 112.848L26.1433 125.12C26.1433 125.12 23.1772 180.581 78.2307 188.928L115.789 146.233L57.1049 112.848Z" fill="#5BC0C3"/>
<path d="M26.1433 125.12C26.1433 125.12 23.1771 180.581 78.2307 188.928" stroke="#2B4257" stroke-width="2" stroke-miterlimit="10" stroke-linecap="round"/>
<path d="M81.3284 239.606L64.1125 259.008L79.1937 281.7L81.3348 272.5L99.9535 259.444L81.3284 239.606Z" fill="#5BC0C3"/>
<path d="M81.3284 239.606L64.1125 259.008L79.1937 281.7" stroke="#2B4257" stroke-width="2" stroke-miterlimit="10" stroke-linecap="round"/>
<path d="M199.252 219.424L186.733 199.951L165.999 217.488L187.654 237.577L206.314 219.424H199.252Z" fill="#5BC0C3"/>
<path d="M165.999 217.488L187.654 237.577L206.314 219.424" stroke="#2B4257" stroke-width="2" stroke-miterlimit="10" stroke-linecap="round"/>
<path d="M120.103 120.697C88.8913 114.023 56.4563 100.152 42.1584 93.6097C41.1816 93.1625 40.3045 92.5238 39.5791 91.7313C38.8537 90.9388 38.2949 90.0088 37.9356 88.9963C37.5764 87.9839 37.4241 86.9096 37.4877 85.8371C37.5514 84.7647 37.8297 83.716 38.3063 82.7531C39.2279 80.8803 40.8428 79.4403 42.8086 78.7385C44.7743 78.0367 46.9362 78.1284 48.8355 78.9941C62.5555 85.2377 94.0789 98.717 123.474 104.996L120.103 120.697Z" fill="#628ECC"/>
<path d="M101.53 115.984C103.648 116.596 105.779 117.189 107.921 117.762L112.316 102.328C110.175 101.759 108.045 101.165 105.924 100.547L101.53 115.984Z" fill="#5BC0C3"/>
<path d="M48.8228 78.9907C62.5428 85.2344 94.0662 98.7137 123.461 104.993" stroke="#FFF1D7" stroke-width="2" stroke-miterlimit="10" stroke-linecap="round"/>
<path d="M120.103 120.697C88.8914 114.023 56.4563 100.152 42.1584 93.6096" stroke="#2B4257" stroke-width="2" stroke-miterlimit="10" stroke-linecap="round"/>
<path d="M87.113 263.403L91.5013 267.255" stroke="#2B4257" stroke-width="2" stroke-miterlimit="10" stroke-linecap="round"/>
<path d="M84.0249 264.882L88.4131 268.734" stroke="#2B4257" stroke-width="2" stroke-miterlimit="10" stroke-linecap="round"/>
<path d="M80.9399 266.362L85.3282 270.214" stroke="#2B4257" stroke-width="2" stroke-miterlimit="10" stroke-linecap="round"/>
<path d="M190.158 211.508L187.911 215.039" stroke="#2B4257" stroke-width="2" stroke-miterlimit="10" stroke-linecap="round"/>
<path d="M192.405 214.493L190.158 218.024" stroke="#2B4257" stroke-width="2" stroke-miterlimit="10" stroke-linecap="round"/>
<path d="M194.652 217.482L192.405 221.013" stroke="#2B4257" stroke-width="2" stroke-miterlimit="10" stroke-linecap="round"/>
<path d="M21.2671 224.014C21.2671 224.014 28.156 191.701 65.3581 217.488C102.56 243.275 145.56 204.272 145.56 204.272" stroke="#2B4257" stroke-width="2" stroke-miterlimit="10" stroke-linecap="round" stroke-dasharray="8 8"/>
<path d="M171.42 182.902C171.42 182.902 219.713 142.628 213.621 120.485C207.528 98.3415 175.42 142.924 213.621 149.283C251.821 155.642 265.304 96.3833 265.304 96.3833" stroke="#2B4257" stroke-width="2" stroke-miterlimit="10" stroke-linecap="round" stroke-dasharray="8 8"/>
<path d="M254.739 44.7388C268.42 47.0822 264.899 59.6338 264.899 59.6338L263.438 61.4989C263.438 61.4989 262.652 61.0815 260.992 61.2453C259.333 61.409 260.626 59.5632 260.626 59.5632C260.074 60.0333 259.433 60.3889 258.742 60.6093C258.051 60.8297 257.323 60.9106 256.601 60.8472C254.235 60.6418 257.06 58.1956 257.243 58.0319C257.021 58.2181 252.951 61.6144 250.502 59.9933C247.972 58.3305 251.587 55.8715 251.587 55.8715C251.587 55.8715 246.566 59.1298 244.203 57.7976C241.841 56.4654 247.924 52.9824 247.924 52.9824C247.924 52.9824 242.341 54.443 239.423 52.5362C236.505 50.6294 245.622 48.7675 245.622 48.7675C245.622 48.7675 238.001 46.5461 236.335 44.4435C234.669 42.3409 241.057 42.3922 254.739 44.7388Z" fill="#2B4257"/>
<path d="M255.176 49.6632L259.609 49.9296C259.609 49.9296 259.875 65.9128 269.278 71.4374L258.094 77.1097L269.403 86.8749C269.403 86.8749 278.885 61.1939 270.905 49.9007C267.136 44.5655 259.207 44.5174 255.176 49.6632Z" fill="#7296A3"/>
<path d="M258.094 77.1096L269.403 86.8748C269.403 86.8748 278.885 61.1938 270.905 49.9006" stroke="#2B4257" stroke-width="2" stroke-miterlimit="10" stroke-linecap="round"/>
<path d="M261.028 46.0549C258.708 46.5186 256.632 47.7989 255.176 49.6631L259.609 49.9295C259.609 49.9295 259.609 50.1029 259.609 50.4111C260.526 49.1963 261.021 47.7151 261.018 46.193C261.031 46.1512 261.028 46.1031 261.028 46.0549Z" fill="#E57873"/>
<path d="M261.631 49.0082C262.851 49.0082 263.84 48.4348 263.84 47.7274C263.84 47.02 262.851 46.4465 261.631 46.4465C260.411 46.4465 259.423 47.02 259.423 47.7274C259.423 48.4348 260.411 49.0082 261.631 49.0082Z" fill="white"/>
<path d="M259.426 47.7275C259.648 48.1173 259.969 48.4414 260.356 48.6668C260.744 48.8922 261.184 49.011 261.633 49.011C262.081 49.011 262.522 48.8922 262.909 48.6668C263.297 48.4414 263.618 48.1173 263.84 47.7275" stroke="#2B4257" stroke-width="2" stroke-miterlimit="10" stroke-linecap="round"/>
<path d="M261.631 48.2122C261.78 48.2122 261.901 48.0038 261.901 47.7467C261.901 47.4896 261.78 47.2812 261.631 47.2812C261.482 47.2812 261.361 47.4896 261.361 47.7467C261.361 48.0038 261.482 48.2122 261.631 48.2122Z" fill="#354B5F"/>
<path d="M279.444 41.4999C285.543 53.9744 273.284 58.4461 273.284 58.4461L270.934 58.3498C270.934 58.3498 270.812 57.467 269.708 56.2151C268.604 54.9631 270.86 54.931 270.86 54.931C270.156 54.758 269.493 54.4467 268.91 54.0152C268.327 53.5837 267.835 53.0406 267.464 52.4175C266.247 50.3759 269.884 51.2426 270.128 51.3036C269.846 51.233 264.716 49.9104 264.594 46.9699C264.469 43.946 268.575 45.4451 268.575 45.4451C268.575 45.4451 262.999 43.2687 262.713 40.5786C262.427 37.8885 268.793 40.7872 268.793 40.7872C268.793 40.7872 264.334 37.1117 264.193 33.6319C264.052 30.1521 270.873 36.4632 270.873 36.4632C270.873 36.4632 268.225 28.9804 268.947 26.3995C269.669 23.8186 273.358 29.0222 279.444 41.4999Z" fill="#7296A3"/>
<path d="M269.692 56.2118C268.591 54.9598 270.844 54.9277 270.844 54.9277C270.14 54.7547 269.477 54.4434 268.894 54.0119C268.311 53.5804 267.819 53.0373 267.448 52.4142C266.231 50.3726 269.868 51.2393 270.112 51.3003C269.83 51.2297 264.7 49.9071 264.578 46.9666C264.453 43.9427 268.558 45.4418 268.558 45.4418C268.558 45.4418 262.983 43.2654 262.697 40.5753C262.411 37.8852 268.777 40.784 268.777 40.784C268.777 40.784 264.334 37.1116 264.193 33.6318C264.051 30.152 270.873 36.4631 270.873 36.4631C270.873 36.4631 268.225 28.9803 268.947 26.3994" stroke="white" stroke-width="2" stroke-miterlimit="10" stroke-linecap="round"/>
</g>
<defs>
<clipPath id="clip0_601_3">
<rect y="0.246582" width="281.139" height="284.237" fill="white"/>
</clipPath>
</defs>
</svg>
