<svg width="400" height="400" viewBox="0 0 400 400" fill="none" xmlns="http://www.w3.org/2000/svg">
<path d="M366.46 61.88C366.422 58.4633 365.233 55.1593 363.084 52.5025C360.935 49.8458 357.953 47.9916 354.62 47.24H226.2C224.031 46.7361 221.775 46.7324 219.604 47.2292C217.433 47.7259 215.404 48.7101 213.669 50.1072C211.935 51.5043 210.541 53.2777 209.594 55.2931C208.646 57.3085 208.17 59.5131 208.2 61.74L208.44 79.74C210.807 78.7385 213.224 77.8574 215.68 77.1L215.58 68.84C215.58 60.62 220.56 55.24 231 55.2C231 55.2 333.32 55 345.8 56.28C355.28 57.24 356.18 62.66 356.24 68.74L360 303.48C360.014 305.418 359.594 307.335 358.771 309.09C357.947 310.845 356.741 312.393 355.241 313.62C353.741 314.848 351.985 315.724 350.102 316.184C348.219 316.645 346.257 316.677 344.36 316.28L229.14 312.54C226.236 311.965 223.617 310.413 221.717 308.143C219.818 305.872 218.753 303.02 218.7 300.06L217.18 182.06C214.672 181.133 212.227 180.044 209.86 178.8L211.74 324.26C211.778 327.65 212.972 330.925 215.125 333.544C217.278 336.163 220.261 337.968 223.58 338.66L352 346.18C354.175 346.625 356.421 346.578 358.575 346.041C360.729 345.504 362.735 344.492 364.446 343.078C366.157 341.664 367.53 339.885 368.463 337.871C369.397 335.857 369.867 333.66 369.84 331.44L366.46 61.88Z" fill="#DFEDED"/>
<path d="M370 331.44L366.46 61.88C366.46 54.78 362.22 47.88 354.62 47.24C347.02 46.6 226.2 47.24 226.2 47.24C218.02 47.24 215.94 47.7 212.56 51.24C218.36 44.94 221.88 41.66 236.22 41.46C236.22 41.46 343.72 40.36 364.68 42C374.68 42.8 376.52 49.4 376.52 56.38L380 325.84C380 333.14 370.12 342.2 361.28 345.18C363.911 343.984 366.136 342.048 367.685 339.608C369.233 337.168 370.038 334.33 370 331.44Z" fill="#B7B7B7"/>
<path d="M357.48 68.74C357.48 62.74 356.46 56.16 345.98 55.1C333.58 53.82 235.24 54.02 231.06 54.02C220.5 54.02 214.44 59.44 214.44 68.84L214.56 77.48L216.92 76.74V68.84C216.92 60.84 221.98 56.42 231.18 56.4C232.2 56.4 333.56 56.2 345.84 57.44C354.42 58.32 355.16 62.9 355.22 68.76L358.84 303.48C358.85 305.241 358.466 306.983 357.716 308.577C356.967 310.171 355.87 311.577 354.507 312.693C353.144 313.808 351.549 314.605 349.838 315.025C348.128 315.445 346.345 315.478 344.62 315.12C344.42 315.12 349.52 315.26 229.38 311.38C226.725 310.86 224.327 309.449 222.584 307.379C220.841 305.309 219.859 302.705 219.8 300L218.28 182.32C217.48 182.04 216.68 181.76 215.9 181.44L217.44 300.02C217.52 303.275 218.713 306.404 220.82 308.886C222.927 311.368 225.821 313.053 229.02 313.66L344.14 317.4C346.205 317.813 348.336 317.761 350.378 317.247C352.421 316.733 354.323 315.771 355.947 314.431C357.571 313.09 358.876 311.405 359.768 309.497C360.659 307.589 361.114 305.506 361.1 303.4L357.48 68.74Z" fill="#7F7F7F"/>
<path d="M282.46 99.64C275.24 93.34 268.76 90.7 261.06 87.92C243.74 82.26 223.18 82.08 207.06 91.54C193.34 99.54 181.4 119 181.54 134.96C181.756 141.58 183.281 148.093 186.027 154.12C188.773 160.148 192.686 165.572 197.54 170.08C224.6 195.74 280.14 191.14 294.22 153.5C300.74 136.26 296.52 112.14 282.46 99.64ZM224.46 160.7C223.934 161.859 223.168 162.893 222.213 163.734C221.258 164.575 220.136 165.205 218.92 165.58C217.457 165.737 215.981 165.451 214.683 164.759C213.385 164.068 212.325 163.002 211.64 161.7C210.282 159.071 209.479 156.192 209.28 153.24C210.94 154.36 213.28 157.12 218.18 157.24C221.302 157.299 224.379 156.482 227.06 154.88C226.309 156.876 225.427 158.82 224.42 160.7H224.46Z" fill="#FFF4EE"/>
<path d="M377.7 56.3C377.7 50.08 376.36 41.7 364.78 40.74C343.98 39.18 237.3 40.18 236.22 40.2C225.9 40.34 220.94 42.06 216.82 45.34C212.7 48.62 208.5 53.12 207.42 58.22C206.92 60.68 207.06 60.48 207.42 80.22C208.2 79.86 208.98 79.54 209.78 79.22L209.56 61.68C209.42 52.92 215.2 48.44 226.04 48.08C226.68 48.08 248.18 48.38 354.6 48.38C357.649 49.1244 360.36 50.8718 362.297 53.3419C364.234 55.8119 365.284 58.8611 365.28 62C368.9 350.72 368.86 332.22 368.4 334.46C368.026 336.234 367.303 337.917 366.273 339.41C365.243 340.902 363.928 342.176 362.402 343.156C360.877 344.137 359.172 344.805 357.386 345.121C355.6 345.438 353.77 345.396 352 345L223.66 337.4C220.611 336.756 217.871 335.095 215.891 332.689C213.91 330.284 212.806 327.276 212.76 324.16L210.9 179.32C210.087 178.92 209.287 178.5 208.5 178.06L210.4 324.18C210.459 327.86 211.775 331.41 214.128 334.24C216.482 337.07 219.732 339.011 223.34 339.74L351.7 347.34C356.76 348.38 362.66 346.34 367.18 343.74C374.52 339.48 381.18 332.2 381.18 325.74L377.7 56.3ZM368.68 340C370.428 337.184 371.233 333.885 370.98 330.58C370.98 319 370.28 271.04 367.64 61.86C367.6 58.2053 366.311 54.6742 363.986 51.8543C361.661 49.0343 358.44 47.0953 354.86 46.36C352.62 45.9 220.1 45.98 219.36 46.14C222.98 43.76 227.5 42.68 236.24 42.56C237.32 42.56 343.9 41.54 364.58 43.1C374.04 43.88 375.34 49.9 375.34 56.32L378.82 325.84C378.82 330.58 374.24 336.12 368.68 340Z" fill="#7F7F7F"/>
<path d="M294.76 327.12C293.22 315.4 276.22 315.7 277.8 329.36C279.26 341.82 296.76 340 294.76 327.12ZM280.16 329.12C278.78 318.44 291.28 318.9 292.42 327.52C293.82 336.4 281.36 338.42 280.16 329.06V329.12Z" fill="#7F7F7F"/>
<path d="M262.56 232C263.82 236.103 265.652 240.008 268 243.6C277.46 257.6 299.2 255.6 306.34 239.84C306.96 238.46 304.92 237.26 304.34 238.64C303.047 241.661 301.023 244.313 298.45 246.358C295.877 248.402 292.836 249.775 289.6 250.352C286.365 250.929 283.037 250.693 279.916 249.665C276.795 248.636 273.978 246.848 271.72 244.46C268.56 240.614 266.218 236.163 264.84 231.38C264.3 229.96 262.02 230.58 262.46 232.02L262.56 232Z" fill="#ABFFE1"/>
<path d="M299.44 167.56C304.141 169.141 308.109 172.374 310.607 176.659C313.104 180.944 313.962 185.99 313.02 190.86C312.74 192.36 315.02 192.98 315.4 191.5C316.483 186.024 315.536 180.341 312.735 175.512C309.934 170.683 305.471 167.039 300.18 165.26C298.72 164.78 298.08 167.06 299.54 167.64L299.44 167.56Z" fill="#ABFFE1"/>
<path d="M320.64 177.36C323.807 187.029 324.622 197.313 323.02 207.36C322.109 216.822 319.394 226.021 315.02 234.46C312.546 239.067 309.443 243.308 305.8 247.06C304.76 248.14 306.42 249.84 307.48 248.74C318.16 237.62 322.84 224.74 324.98 209.8C326.64 198.18 326.74 187.26 322.98 176.64C322.48 175.22 320.16 175.84 320.62 177.26L320.64 177.36Z" fill="#ABFFE1"/>
<path d="M252.72 222.14C253.18 231.96 254.72 241.94 260.72 250.14C266.72 258.34 275.78 264.84 286.1 262.38C287.58 262.02 286.94 259.68 285.48 260C275.7 262.14 266.94 255.28 261.8 247.64C256.66 240 255.24 231.08 255.04 222.08C255.04 221.767 254.916 221.467 254.694 221.246C254.473 221.024 254.173 220.9 253.86 220.9C253.547 220.9 253.247 221.024 253.026 221.246C252.804 221.467 252.68 221.767 252.68 222.08L252.72 222.14Z" fill="#ABFFE1"/>
<path d="M263.22 274.9C270.173 279.941 278.644 282.447 287.22 282C296.148 280.956 304.428 276.816 310.62 270.3C317.454 262.987 322.837 254.442 326.48 245.12C327.04 243.72 324.74 243.12 324.1 244.5C317.54 259.32 307.16 275.76 290.1 279.12C273.04 282.48 257.2 270.32 250.1 255.82C245.764 246.831 243.146 237.111 242.38 227.16C242.26 225.64 239.88 225.64 240.02 227.16C240.44 228.18 241.14 259.12 263.22 274.9Z" fill="#ABFFE1"/>
<path d="M308.38 146.9C323.04 148.72 330.68 164.32 332.78 177.34C333.48 181.8 333.78 186.32 334.12 190.82C334.12 191.133 334.244 191.433 334.466 191.654C334.687 191.876 334.987 192 335.3 192C335.613 192 335.913 191.876 336.134 191.654C336.356 191.433 336.48 191.133 336.48 190.82C336.365 183.119 335.174 175.471 332.94 168.1C330.767 160.781 326.413 154.299 320.46 149.52C316.989 146.793 312.84 145.064 308.46 144.52C306.9 144.34 306.9 146.72 308.38 146.9Z" fill="#ABFFE1"/>
<path d="M311.16 177.42C310.838 176.954 310.431 176.554 309.96 176.24C295.96 174.94 288.82 172.78 283.2 170.52C270.14 183.22 250.14 188.1 231.4 185.52C231.86 187.34 232.4 189.14 233 190.9C219.84 200.9 205.24 208.9 191.48 218.02C190.616 218.505 189.882 219.191 189.34 220.02C188.874 221.057 188.821 222.233 189.193 223.307C189.565 224.381 190.333 225.273 191.34 225.8C193.44 226.768 195.789 227.054 198.06 226.62C213.84 224.98 227.9 216.62 241.22 207.72C243.126 210.534 245.231 213.208 247.52 215.72C259.8 229.1 276.12 239.84 280.72 241.5H280.88C282.089 242.014 283.392 242.267 284.705 242.243C286.018 242.218 287.311 241.918 288.5 241.36C290.682 240.059 292.59 238.348 294.12 236.32C313.62 213.38 315.26 184.76 311.16 177.42Z" fill="#FFFDA9"/>
<path d="M276 199.6C275.32 199.88 274.6 200.14 274 200.36C270.861 200.988 267.919 202.359 265.42 204.36C264.765 204.912 264.265 205.624 263.967 206.426C263.669 207.229 263.584 208.095 263.72 208.94C264.78 213.44 273.72 213.3 278.18 212.94C279.78 208 279.84 202.5 276 199.6Z" fill="#FFF4EE"/>
<path d="M199.28 212.86C190.34 218.54 190.12 218.7 189.28 219.88C188.804 220.915 188.746 222.095 189.119 223.172C189.491 224.249 190.266 225.14 191.28 225.66C193.374 226.648 195.73 226.935 198 226.48C200.279 226.236 202.543 225.863 204.78 225.36C205.214 222.966 204.923 220.496 203.943 218.268C202.963 216.041 201.339 214.157 199.28 212.86Z" fill="#FFF4EE"/>
<path d="M133.82 298.32C115.58 305.1 95.3 303.78 76.86 297.08C76.5954 297.804 76.3816 298.546 76.22 299.3C75.5013 301.255 74.3615 303.027 72.8814 304.492C71.4012 305.957 69.617 307.079 67.655 307.777C65.6931 308.476 63.6016 308.734 61.5287 308.534C59.4557 308.334 57.4522 307.681 55.66 306.62C54.8417 308.552 53.4973 310.215 51.78 311.42C47.78 313.92 41.56 313.18 39.36 317.42C38.8725 318.487 38.6839 319.666 38.8142 320.832C38.9445 321.998 39.3889 323.107 40.1 324.04C43.54 328.8 52.4 329.92 57.76 329.22C63.3833 328.493 68.6332 326.008 72.76 322.12C73.7764 320.918 75.0562 319.967 76.5 319.34C81.36 317.88 91.46 322.76 96.32 323.96C98.5993 324.381 100.766 325.273 102.68 326.58C106.68 329.74 106.68 335.46 107.66 340.36C108.437 344.198 109.842 347.881 111.82 351.26C113.143 353.649 115.084 355.638 117.44 357.02C118.634 357.667 119.988 357.958 121.342 357.859C122.696 357.76 123.993 357.274 125.08 356.46C126.668 354.755 127.634 352.563 127.82 350.24C130.68 333.18 131.82 315.62 133.94 298.36L133.82 298.32Z" fill="#ABFFE1"/>
<path d="M111.6 238.7C110.982 241.657 109.966 244.516 108.58 247.2C105.6 252.9 98.58 256.48 96.74 262.54C95.46 266.96 97.84 271.5 97.84 276.22C97.8314 279.617 96.6778 282.911 94.5657 285.571C92.4536 288.231 89.5063 290.102 86.2 290.88C83.84 291.4 81 291.38 79.1 293.08C78.1584 294.294 77.4034 295.643 76.86 297.08C95.3 303.78 115.58 305.08 133.82 298.32C135.206 298.069 136.465 297.351 137.386 296.284C138.306 295.218 138.834 293.868 138.88 292.46C142.806 271.156 141.634 249.225 135.46 228.46C128.23 233.358 120.132 236.834 111.6 238.7Z" fill="#FFFDA9"/>
<path d="M140.48 147.56C140.241 148.299 139.743 148.926 139.078 149.327C138.412 149.727 137.625 149.874 136.86 149.74C135.4 149.22 134.5 147.62 133.04 147.36C134.46 155.16 129.64 164.62 125.24 170.74C121.597 175.707 118.257 180.89 115.24 186.26C114.053 185.527 112.659 185.201 111.269 185.33C109.88 185.46 108.571 186.039 107.54 186.98C102.9 192.18 103.22 202.66 109.64 208.58C110.16 220.58 113.92 228.08 111.64 238.7C160.88 227.08 169.84 177.86 140.48 147.56Z" fill="#FFD6AE"/>
<path d="M138.12 140.62C130.12 131.22 120.52 127.38 109.02 124.8C98.0881 122.999 86.8886 123.732 76.2848 126.943C65.6811 130.154 55.9562 135.757 47.86 143.32C46.04 145.1 44.28 146.98 42.6 148.92C39.2668 148.964 35.9966 149.834 33.0826 151.453C30.1686 153.071 27.702 155.388 25.904 158.195C24.106 161.002 23.0329 164.212 22.7809 167.536C22.5289 170.86 23.1058 174.194 24.46 177.24C25.0502 178.599 25.8241 179.871 26.76 181.02C24.28 196.64 28.1 212.72 24.32 227.74C22.16 236.2 18.84 246.24 25.16 253.74C28.28 257.48 33.42 259.74 35 264.34C37 270.34 32.2 277.56 35.66 282.8C37.6987 285.256 40.6237 286.808 43.8 287.12C46.9311 287.477 49.9545 288.478 52.68 290.06C57.24 293.26 55.06 304.06 49.92 300.06C51.0697 302.641 52.9634 304.821 55.3587 306.32C57.7541 307.819 60.5422 308.569 63.3663 308.474C66.1904 308.38 68.9221 307.445 71.2118 305.789C73.5016 304.133 75.2454 301.832 76.22 299.18C76.6878 296.912 77.6734 294.784 79.1 292.96C81.1 291.26 83.84 291.28 86.2 290.76C89.5063 289.982 92.4536 288.111 94.5657 285.451C96.6778 282.791 97.8314 279.497 97.84 276.1C97.84 271.38 95.46 266.84 96.74 262.42C98.48 256.42 105.6 252.78 108.58 247.08C115.94 232.82 110.16 222.52 109.56 208.46C103.14 202.46 102.82 192.06 107.46 186.86C108.491 185.919 109.8 185.34 111.189 185.21C112.579 185.081 113.973 185.407 115.16 186.14C118.177 180.77 121.517 175.587 125.16 170.62C129.56 164.5 134.38 155.04 132.96 147.24C134.42 147.5 135.32 149.1 136.78 149.62C138.78 150.18 140.78 148.04 140.78 145.94C140.533 143.913 139.593 142.034 138.12 140.62Z" fill="#FFAAD7"/>
<path d="M138.36 186.98C143.629 186.98 147.9 182.709 147.9 177.44C147.9 172.171 143.629 167.9 138.36 167.9C133.091 167.9 128.82 172.171 128.82 177.44C128.82 182.709 133.091 186.98 138.36 186.98Z" fill="#FFAF9C"/>
<path d="M62.86 162.86C62.5873 158.42 60.8419 154.197 57.9 150.86C54.34 146.86 48.3 147 46.68 149.36C48.5101 149.713 50.19 150.613 51.4971 151.942C52.8043 153.27 53.6771 154.964 54 156.8C55.42 165.02 54.72 173.66 50.4 180.7C48.9522 183.099 46.8308 185.018 44.3 186.22C43.8067 186.38 43.2867 186.52 42.74 186.64C47.8 189.2 56.28 186.88 60.14 179.78C62.8628 174.586 63.8177 168.646 62.86 162.86Z" fill="#FEDAF6"/>
<path d="M135.62 254.1C149.26 249.18 178.96 239.42 188.8 229.16C191.2 226.68 193.5 222.62 191.18 219.86C189.4 217.76 186.12 217.86 183.42 218.48C165.534 222.393 148.244 228.654 132 237.1C127.62 246 135.62 254.1 135.62 254.1Z" fill="#FFD6AE"/>
<path d="M189.4 109.82C188.307 108.023 187.523 106.056 187.08 104C178.773 116.606 175.013 131.668 176.42 146.7C177.114 153.344 180.065 159.549 184.78 164.28C187.889 166.993 191.874 168.491 196 168.5C187.136 159.534 181.974 147.56 181.54 134.96C181.842 126.024 184.558 117.337 189.4 109.82Z" fill="#FEDAF6"/>
<path d="M195.24 142.78C193.457 141.565 191.311 140.998 189.16 141.172C187.01 141.347 184.984 142.253 183.42 143.74C184.058 149.579 186.021 155.195 189.16 160.16C191.264 160.341 193.368 159.814 195.138 158.664C196.909 157.513 198.245 155.804 198.934 153.808C199.623 151.812 199.626 149.644 198.942 147.646C198.259 145.648 196.927 143.935 195.16 142.78H195.24Z" fill="#FFCECC"/>
<path d="M247.6 163.46C252.869 163.46 257.14 159.189 257.14 153.92C257.14 148.651 252.869 144.38 247.6 144.38C242.331 144.38 238.06 148.651 238.06 153.92C238.06 159.189 242.331 163.46 247.6 163.46Z" fill="#FFCECC"/>
<path d="M201 120.54C228.22 134.54 248.4 117.1 268.82 124.76C273.301 126.415 277.24 129.273 280.204 133.02C283.167 136.767 285.041 141.258 285.62 146C286.117 150.834 285.066 155.702 282.618 159.9C280.17 164.099 276.452 167.411 272 169.36C278.16 175.1 288.58 174.26 295.18 169.1C301.78 163.94 305.18 155.58 306.52 147.28C310.6 121.54 296 94.46 273.2 82C250.4 69.54 220.88 71.28 198.64 84.84C193.9 87.72 189.54 91.02 187.58 96.46C184 106.32 192.88 116.38 201 120.54Z" fill="#FEDAF6"/>
<path d="M310.18 174.38C304.112 174.48 298.058 173.767 292.18 172.26C300.18 168.44 304.86 160.04 306.94 151.38C314.32 116.82 291.3 83.26 257.84 74.66C240.118 70.3585 221.456 72.3011 205 80.16C197.66 83.64 189 88.38 186.4 96.74C185.672 98.9714 185.5 101.347 185.9 103.66C180.332 112.466 176.685 122.348 175.2 132.66C173.82 143.54 175.2 157.22 183.78 164.98C186.971 167.874 191.094 169.527 195.4 169.64C204.9 178.931 217.149 184.902 230.32 186.66C230.68 187.98 231.08 189.28 231.5 190.66C218.54 200.3 204.28 208 190.92 217.08C190.551 217.271 190.203 217.499 189.88 217.76C188.384 217.155 186.749 216.982 185.16 217.26C172.36 219.1 150.46 227.26 138.06 233.06C137.7 231.727 137.32 230.327 136.92 228.86C143.672 224.021 149.142 217.609 152.857 210.179C156.572 202.749 158.42 194.525 158.24 186.22L159.02 186C166.08 183.72 169.26 174 166.12 164.36C162.98 154.72 154.68 148.72 147.64 151.02C146.981 151.238 146.345 151.519 145.74 151.86C144.488 150.239 143.153 148.683 141.74 147.2C141.915 145.967 141.801 144.711 141.405 143.53C141.009 142.35 140.343 141.278 139.46 140.4C129.1 127.26 105.46 118.3 80.82 124.4C65.577 127.746 51.8706 136.045 41.84 148C36.5183 148.224 31.4778 150.451 27.7282 154.234C23.9786 158.017 21.7968 163.077 21.62 168.4C21.3116 173.018 22.651 177.596 25.4 181.32C23.4 193.74 25.2 206.16 24.38 217.56C23.944 222.233 23.094 226.858 21.84 231.38C19.84 238.82 18.36 247.38 23.32 253.96C25.7 257.04 29.02 258.94 31.56 261.78C37.4 268.16 30.18 276.3 34.08 283.24C35.92 286.54 40.08 287.92 43.54 288.54C47 289.16 51.72 289.54 53.14 293.04C53.6041 294.086 53.7838 295.236 53.6609 296.374C53.5379 297.512 53.1168 298.597 52.44 299.52C51.7 300.2 50.92 299.76 50.08 299.2C49.24 298.64 48.08 299.88 48.48 300.84C49.6875 303.498 51.6396 305.749 54.1 307.32C53.4616 308.508 52.5829 309.55 51.52 310.38C50.0203 311.336 48.3603 312.014 46.62 312.38C43.68 313.12 40.36 313.86 38.62 316.58C37.796 318.109 37.5003 319.867 37.7788 321.582C38.0573 323.296 38.8944 324.87 40.16 326.06C46.38 332.06 60.58 332.66 70 326.06C71.6854 324.857 73.2706 323.519 74.74 322.06C75.3311 321.485 76.045 321.051 76.8278 320.791C77.6107 320.531 78.4422 320.452 79.26 320.56C85.5 321.28 88.24 322.92 93.94 324.76C99 326.4 103.72 326.1 105.5 335.26C106.065 339.45 107.056 343.572 108.46 347.56C109.794 351.373 112.137 354.753 115.24 357.34C116.657 358.491 118.4 359.168 120.223 359.276C122.046 359.384 123.857 358.916 125.4 357.94C128.76 355.42 128.96 350.52 129.54 346.76C132.16 329.4 133.54 312 135 299.38C136.346 298.878 137.553 298.062 138.52 297C139.436 295.647 140 294.086 140.16 292.46C142.483 279.675 142.994 266.627 141.68 253.7C148.947 251.113 156.153 248.407 163.3 245.58C171.559 242.525 179.379 238.397 186.56 233.3C188.684 231.782 190.509 229.883 191.94 227.7C193.949 228.332 196.075 228.503 198.16 228.2C206.314 227.213 214.233 224.811 221.56 221.1C228.307 217.666 234.852 213.846 241.16 209.66C251.16 223.84 265.16 234.46 280.32 242.94C281.66 243.68 282.86 241.64 281.54 240.94C259.7 228.68 239.54 211.42 232.86 187.38C251.32 189.5 268.64 184.36 280.64 174.68C283.262 174.975 285.917 174.764 288.46 174.06C295.508 176.217 302.85 177.256 310.22 177.14C310.376 177.143 310.53 177.114 310.675 177.056C310.819 176.997 310.95 176.911 311.06 176.8C311.171 176.69 311.257 176.559 311.316 176.415C311.374 176.27 311.403 176.116 311.4 175.96C311.468 175.773 311.488 175.571 311.458 175.374C311.427 175.177 311.348 174.991 311.226 174.834C311.104 174.676 310.944 174.551 310.761 174.472C310.578 174.393 310.378 174.361 310.18 174.38ZM155.54 193.78C154.362 194.399 153.037 194.685 151.709 194.608C150.38 194.53 149.098 194.092 148 193.34C147.729 193.188 147.409 193.149 147.11 193.231C146.81 193.314 146.555 193.511 146.4 193.78C146.318 193.912 146.264 194.058 146.241 194.211C146.218 194.364 146.227 194.521 146.266 194.67C146.305 194.82 146.375 194.96 146.47 195.082C146.565 195.204 146.684 195.305 146.82 195.38C148.04 196.191 149.427 196.716 150.877 196.917C152.328 197.118 153.806 196.989 155.2 196.54C153.896 203.087 151.273 209.301 147.491 214.802C143.708 220.304 138.846 224.978 133.2 228.54C126.868 232.484 119.967 235.432 112.74 237.28C114.18 228.22 111.2 219.28 110.52 210.58C111.299 210.991 112.125 211.306 112.98 211.52C110.86 216.2 111.82 222.1 116.84 223.86C123.88 225.86 128.84 215.24 122.84 208.76C123.102 208.466 123.349 208.159 123.58 207.84C124.38 206.54 122.34 205.46 121.58 206.62C121.424 206.842 121.258 207.055 121.08 207.26C120.795 207.057 120.494 206.876 120.18 206.72C118.8 206.04 117.62 208.06 118.98 208.72H119.12C117.296 209.548 115.238 209.704 113.31 209.163C111.382 208.621 109.706 207.416 108.58 205.76C106.836 203.208 105.857 200.21 105.76 197.12C105.303 193.985 106.062 190.794 107.88 188.2C109.52 186.2 113.36 185.18 115.16 187.6C115.294 187.775 115.471 187.913 115.674 188C115.877 188.087 116.098 188.12 116.318 188.096C116.537 188.072 116.747 187.991 116.926 187.862C117.105 187.733 117.247 187.56 117.34 187.36C117.72 186.5 116.66 185.98 116.46 185.72C116.8 185.14 117.14 184.54 117.5 183.96L141.34 172.48C142.059 172.995 142.903 173.307 143.784 173.383C144.665 173.458 145.55 173.295 146.347 172.911C147.143 172.526 147.821 171.934 148.309 171.196C148.797 170.459 149.077 169.603 149.12 168.72L152 167.36C155.486 175.701 156.707 184.815 155.54 193.78ZM115.34 212C117.351 212.076 119.334 211.508 121 210.38C122.113 211.524 122.842 212.986 123.085 214.563C123.329 216.14 123.076 217.754 122.36 219.18C122.007 219.999 121.416 220.692 120.663 221.17C119.91 221.648 119.031 221.889 118.14 221.86C117.249 221.689 116.425 221.267 115.766 220.643C115.107 220.019 114.64 219.22 114.42 218.34C113.935 216.186 114.262 213.928 115.34 212ZM158.14 184C157.72 178.021 156.371 172.143 154.14 166.58L162.78 162.42C166.4 169.88 165.82 181.38 158.14 183.8V184ZM161.58 160.34L153.14 164.34C151.495 160.674 149.485 157.183 147.14 153.92C152.42 151.02 158.32 154.94 161.58 160.14V160.34ZM140.56 149.28C144.912 154.015 148.477 159.417 151.12 165.28L148.52 166.54C147.955 165.362 146.945 164.458 145.713 164.024C144.481 163.591 143.128 163.665 141.95 164.23C140.772 164.795 139.867 165.804 139.434 167.037C139.001 168.269 139.075 169.622 139.64 170.8L119.76 180.4C124.44 173.24 128.3 168.54 131.12 162.4V163.2C131.13 163.513 131.261 163.81 131.484 164.03C131.707 164.25 132.007 164.375 132.32 164.38C132.633 164.38 132.933 164.256 133.154 164.034C133.376 163.813 133.5 163.513 133.5 163.2C133.54 161.675 134 160.19 134.83 158.909C135.659 157.629 136.825 156.601 138.2 155.94C140.62 154.22 138.02 153.46 137.4 153.74C135.652 154.482 134.134 155.677 133 157.2C133.751 154.643 134.089 151.983 134 149.32C134.407 149.794 134.912 150.174 135.48 150.434C136.048 150.695 136.665 150.83 137.29 150.83C137.915 150.83 138.532 150.695 139.1 150.434C139.668 150.174 140.173 149.794 140.58 149.32L140.56 149.28ZM24 170.28C23.777 167.319 24.2593 164.347 25.4075 161.608C26.5557 158.87 28.3369 156.443 30.605 154.526C32.8731 152.609 35.5634 151.257 38.4551 150.582C41.3468 149.907 44.3575 149.926 47.24 150.64C48.6301 150.959 49.8975 151.675 50.8882 152.701C51.8788 153.728 52.5499 155.019 52.82 156.42C53.9013 161.981 53.7786 167.71 52.46 173.22C51.5867 176.772 49.809 180.038 47.3 182.7C45.9472 184.046 44.2507 184.995 42.3956 185.443C40.5405 185.891 38.5979 185.821 36.78 185.24C32.9618 184.557 29.5218 182.51 27.1 179.48C25.2187 176.768 24.1439 173.578 24 170.28ZM49.6 148.92C54.58 148.18 58.9 152.38 60.48 157.12C62.7802 163.601 62.7093 170.687 60.28 177.12C58.14 182.52 52.46 187.12 46.38 186.46C49.4084 184.559 51.7708 181.763 53.14 178.46C56.88 170.16 58.14 151.6 49.5 148.92H49.6ZM52.6 302.1C53.1038 302.018 53.5855 301.834 54.0155 301.559C54.4454 301.283 54.8145 300.923 55.1 300.5C55.7528 299.448 56.1851 298.275 56.3708 297.051C56.5564 295.827 56.4915 294.578 56.18 293.38C54.18 285.24 43.78 287.74 38.36 283.92C34.84 281.44 35.5 277.06 36 273.36C37.0221 269.772 36.7964 265.943 35.36 262.5C33.56 259.16 30.2 257.14 27.5 254.64C25.9913 253.243 24.7798 251.555 23.9378 249.679C23.0959 247.803 22.6409 245.776 22.6 243.72C22.6 233.72 25.68 231.12 26.96 218.24C27.9 206.78 26.2 194.24 27.62 183.5C29.2086 184.869 31.0404 185.927 33.02 186.62C36.0094 187.986 39.3433 188.411 42.58 187.84C49.44 190.98 57.8 186.74 61.54 179.84C65.0052 172.659 65.494 164.4 62.9 156.86C60.78 149.22 52.58 143.54 45.36 147.94H44.88C66.4 124.16 102.88 116.74 130.08 134.48C133.48 136.729 136.42 139.607 138.74 142.96C139.355 143.853 139.677 144.916 139.66 146C139.673 146.569 139.5 147.126 139.168 147.588C138.836 148.05 138.363 148.391 137.82 148.56C136.7 148.76 136.2 147.92 135.44 147.42C134.811 146.895 134.083 146.501 133.3 146.26C132.987 146.186 132.658 146.237 132.382 146.401C132.106 146.565 131.905 146.83 131.82 147.14C131.52 148.36 134.34 153.94 126.2 167.14C123.04 172.2 119.38 176.9 116.2 181.98L113.34 183.36C113.18 183.429 113.037 183.533 112.923 183.665C112.809 183.796 112.726 183.952 112.68 184.12C111.108 183.871 109.498 184.19 108.14 185.02C106.593 186.058 105.332 187.469 104.472 189.122C103.612 190.775 103.182 192.617 103.22 194.48C102.88 199.62 104.42 205.68 108.3 209.12C108.64 215.66 110.3 222.1 110.86 228.62C111.782 235.642 110.096 242.759 106.12 248.62C102.92 253.24 97.44 256.28 95.64 261.84C94.9107 265.15 95.0346 268.591 96 271.84C96.9495 274.92 96.8166 278.233 95.6232 281.227C94.4299 284.221 92.2479 286.717 89.44 288.3C86.62 289.88 83.44 289.64 80.48 290.66C77.12 291.92 76.22 294.88 75.18 298C74.4668 300.263 73.1489 302.288 71.3685 303.857C69.5881 305.425 67.413 306.477 65.0781 306.899C62.7433 307.321 60.3375 307.097 58.1206 306.251C55.9038 305.406 53.9603 303.97 52.5 302.1H52.6ZM126.6 351.16C126.497 352.081 126.213 352.972 125.763 353.783C125.314 354.593 124.707 355.306 123.98 355.88C123.092 356.358 122.099 356.608 121.09 356.608C120.081 356.608 119.088 356.358 118.2 355.88C114.56 354.02 112.2 349.7 110.78 346.08C109.487 342.306 108.569 338.414 108.04 334.46C107.672 331.112 106.143 327.999 103.72 325.66C101 323.44 97.4 323 94.24 321.92C91.1428 320.705 87.9853 319.651 84.78 318.76C82.0892 317.793 79.1886 317.566 76.38 318.1C74.6928 318.758 73.19 319.815 72 321.18C68.6489 324.379 64.485 326.598 59.9609 327.596C55.4369 328.594 50.7258 328.332 46.34 326.84C43.3 325.78 39.94 323.5 39.98 319.9C40.02 316.3 44.18 315.16 47.1 314.46C48.9555 314.187 50.7279 313.508 52.2906 312.47C53.8533 311.433 55.1677 310.064 56.14 308.46C58.1693 309.381 60.3746 309.849 62.603 309.832C64.8314 309.815 67.0294 309.314 69.0445 308.362C71.0596 307.411 72.8436 306.032 74.2726 304.322C75.7016 302.612 76.7415 300.612 77.32 298.46C94.44 304.56 114.94 306 132.64 299.88C131.22 312.12 128.62 340.98 126.42 351.16H126.6ZM185.24 231.04C170.82 241.18 157.84 244.72 135.54 253.04C134.12 253.56 134.72 255.84 136.16 255.42L139.5 254.22C140.031 260.204 140.224 266.214 140.08 272.22C139.9 277.89 139.353 283.542 138.44 289.14C138.278 290.983 137.882 292.798 137.26 294.54C136.42 295.84 135.62 296.54 131.9 297.78C116.82 302.92 97.74 303.14 78.22 296.22C78.465 295.653 78.7387 295.099 79.04 294.56C79.628 293.91 80.339 293.382 81.1319 293.008C81.9249 292.634 82.7841 292.42 83.66 292.38C85.9909 292.228 88.2618 291.576 90.3179 290.467C92.3741 289.359 94.1673 287.821 95.5755 285.957C96.9837 284.093 97.9739 281.948 98.4785 279.667C98.9832 277.386 98.9905 275.024 98.5 272.74C97.9 269.06 96.5 265.2 98.16 261.58C101.64 254.84 105.22 254.68 109.4 247.58C110.699 245.086 111.68 242.438 112.32 239.7C120.341 237.81 127.992 234.6 134.96 230.2C135.32 231.46 135.64 232.7 135.96 233.98C134.52 234.68 133.1 235.4 131.68 236.14C130.26 236.88 131.46 238.68 132.82 237.94C147.771 230.287 163.565 224.408 179.88 220.42C182.74 219.76 189.74 217.42 191.04 221.48C192 225.26 187.62 229 185.06 231.04H185.24ZM187.5 164.7C178.46 158.7 176.7 145.68 177.5 135.68C178.535 125.524 181.741 115.709 186.9 106.9C187.199 107.878 187.566 108.834 188 109.76C183 118.04 179.68 127.76 180.46 137.44C180.439 137.566 180.439 137.694 180.46 137.82C181.461 148.636 185.833 158.864 192.96 167.06C190.938 166.668 189.018 165.865 187.32 164.7H187.5ZM204.06 224.5C200.76 225.2 196.4 226.32 193.1 225.16C193.489 224.165 193.604 223.084 193.436 222.029C193.267 220.975 192.82 219.984 192.14 219.16C193.08 218.5 194.14 217.96 194.88 217.5C196.46 216.46 198.04 215.5 199.62 214.46C201.073 215.678 202.216 217.223 202.956 218.968C203.697 220.713 204.013 222.609 203.88 224.5H204.06ZM239.94 207.32C229.5 214.24 218.58 220.86 206.4 223.96C206.508 221.901 206.135 219.845 205.308 217.956C204.482 216.067 203.226 214.398 201.64 213.08C214.88 204.76 221.64 200.9 232.52 192.94C234.384 197.991 236.813 202.815 239.76 207.32H239.94ZM185.94 150.36C182.953 142.864 182.257 134.651 183.94 126.76C185.056 121.605 186.901 116.634 189.42 112C195.52 120.8 207.28 125.68 217.9 126.96C230.36 128.46 241.14 124.96 252.12 124.1C260.4 123.44 269 124.5 275.58 130.1C278.408 132.374 280.684 135.26 282.236 138.541C283.788 141.821 284.576 145.411 284.54 149.04C284.392 153.114 283.115 157.066 280.851 160.457C278.587 163.847 275.426 166.542 271.72 168.24C271.515 168.292 271.329 168.398 271.179 168.547C271.03 168.696 270.923 168.882 270.87 169.086C270.816 169.291 270.819 169.505 270.877 169.708C270.935 169.911 271.047 170.095 271.2 170.24C273.047 171.903 275.25 173.12 277.64 173.8C248.54 195.3 199.26 186 185.7 150.36H185.94ZM274.36 169.76C277.359 168.175 279.988 165.972 282.074 163.297C284.16 160.622 285.654 157.535 286.46 154.24C290.46 138.02 277.7 123.3 261.7 121.8C247.12 120.2 234.46 126.58 218.48 124.62C204.64 122.96 188.14 114.8 188 101.4C188 92.78 196 87.62 202.78 84C217.736 75.9874 234.917 73.1332 251.66 75.88C283.66 81.26 307.66 109.58 305.88 142.46C305.34 150.46 303.06 158.74 297.88 164.96C291.38 172.92 280.46 174.16 274.12 169.76H274.36Z" fill="#5E503B"/>
<path d="M298.34 185.36C298.114 188.772 297.666 192.166 297 195.52C296.618 198.314 295.886 201.049 294.82 203.66C292.04 209.5 285.96 210.7 279.72 211.5C280.76 207.5 280.7 203.08 278.02 199.98C284.34 197.1 284.02 189.8 283.88 183.54C283.88 183.227 283.756 182.927 283.534 182.706C283.313 182.484 283.013 182.36 282.7 182.36C282.387 182.36 282.087 182.484 281.866 182.706C281.644 182.927 281.52 183.227 281.52 183.54C281.929 186.947 281.692 190.401 280.82 193.72C280.109 195.131 279.085 196.362 277.827 197.318C276.569 198.275 275.11 198.932 273.56 199.24C270.566 199.897 267.727 201.126 265.2 202.86C264.05 203.64 263.193 204.782 262.766 206.104C262.338 207.427 262.364 208.854 262.84 210.16C263.492 211.186 264.373 212.048 265.414 212.676C266.455 213.304 267.628 213.682 268.84 213.78C272.196 214.303 275.609 214.357 278.98 213.94C285.16 213.38 291.58 212.34 295.56 207.04C297.34 204.223 298.499 201.06 298.96 197.76C299.862 193.67 300.457 189.519 300.74 185.34C300.737 185.022 300.608 184.718 300.381 184.494C300.155 184.271 299.848 184.147 299.53 184.15C299.212 184.153 298.908 184.282 298.684 184.509C298.461 184.735 298.337 185.042 298.34 185.36ZM264.8 208.76C263.86 205.52 268.44 203.42 270.8 202.6C272.482 202.144 274.138 201.596 275.76 200.96C278.76 203.54 278.32 208.22 277.22 211.74C273.66 212 265.8 212.16 264.8 208.76Z" fill="#5E503B"/>
<path d="M198 139.08C197.025 139.092 196.075 139.392 195.27 139.943C194.465 140.494 193.841 141.271 193.477 142.175C193.113 143.08 193.025 144.073 193.224 145.027C193.423 145.982 193.9 146.857 194.595 147.541C195.29 148.225 196.172 148.688 197.13 148.871C198.088 149.055 199.079 148.951 199.978 148.572C200.877 148.193 201.643 147.557 202.181 146.744C202.719 145.93 203.004 144.975 203 144C202.997 143.348 202.866 142.703 202.613 142.102C202.359 141.501 201.99 140.956 201.525 140.498C201.06 140.041 200.509 139.68 199.904 139.437C199.299 139.193 198.652 139.072 198 139.08Z" fill="#5E503B"/>
<path d="M240.48 141.24C239.508 141.244 238.558 141.536 237.752 142.079C236.946 142.622 236.318 143.392 235.949 144.291C235.579 145.19 235.485 146.179 235.677 147.132C235.869 148.085 236.339 148.96 237.028 149.646C237.717 150.332 238.594 150.799 239.547 150.987C240.501 151.175 241.49 151.076 242.387 150.704C243.285 150.331 244.052 149.7 244.592 148.891C245.132 148.083 245.42 147.132 245.42 146.16C245.42 145.512 245.292 144.871 245.044 144.273C244.795 143.674 244.431 143.131 243.972 142.674C243.513 142.217 242.968 141.855 242.369 141.609C241.77 141.363 241.128 141.237 240.48 141.24Z" fill="#5E503B"/>
<path d="M226.48 154C221.5 156.76 214.92 157.22 210.74 152.8C209.88 151.88 208.1 152.08 208.1 153.42C208.295 156.477 209.105 159.463 210.48 162.2C211.11 163.441 212.023 164.517 213.145 165.34C214.267 166.163 215.567 166.711 216.94 166.94C223.42 167.98 226.4 160.12 228.22 155.36C228.62 154.26 227.3 153.48 226.48 154ZM217.22 164.62C213.22 164.02 211.68 159.9 210.92 156.12C212.989 157.422 215.34 158.209 217.776 158.414C220.212 158.62 222.662 158.238 224.92 157.3C223.42 160.78 221.14 165.12 217.22 164.54V164.62Z" fill="#5E503B"/>
</svg>
