<svg width="400" height="400" viewBox="0 0 400 400" fill="none" xmlns="http://www.w3.org/2000/svg">
<path d="M40 200C40 242.435 56.8571 283.131 86.8629 313.137C116.869 343.143 157.565 360 200 360C242.435 360 283.131 343.143 313.137 313.137C343.143 283.131 360 242.435 360 200C360 157.565 343.143 116.869 313.137 86.8629C283.131 56.8571 242.435 40 200 40C157.565 40 116.869 56.8571 86.8629 86.8629C56.8571 116.869 40 157.565 40 200Z" fill="#D9EDFF"/>
<path d="M149.284 154.104C149.894 153.731 150.592 153.528 151.307 153.516C152.022 153.505 152.727 153.685 153.349 154.038C153.97 154.391 154.486 154.905 154.842 155.525C155.198 156.145 155.381 156.849 155.372 157.564C154.904 169.783 158.584 181.801 165.812 191.664C166.411 192.455 167.284 192.993 168.26 193.172C169.237 193.35 170.244 193.156 171.084 192.628C177.548 188.592 192.52 175.92 200 142.256C203.969 125.323 204.62 107.781 201.916 90.6C201.786 89.8518 201.873 89.0819 202.167 88.3815C202.46 87.6812 202.948 87.0795 203.573 86.6478C204.198 86.2161 204.933 85.9724 205.692 85.9455C206.451 85.9186 207.202 86.1096 207.856 86.496C232.044 100.885 252.119 121.259 266.148 145.657C280.177 170.054 287.687 197.654 287.956 225.796C289.096 275.728 249.656 318.436 199.712 318.276C176.422 318.202 154.11 308.898 137.668 292.403C121.225 275.907 111.992 253.567 111.992 230.276C112 194.06 128.376 167.684 149.284 154.104Z" fill="#B0D9FF" stroke="#020064" stroke-width="4"/>
<path d="M227.672 214C227.025 213.726 226.317 213.627 225.619 213.714C224.921 213.801 224.259 214.07 223.699 214.494C223.138 214.918 222.699 215.483 222.426 216.131C222.153 216.778 222.056 217.487 222.144 218.184C222.592 221.202 222.763 224.255 222.656 227.304C221.964 247.244 209.52 259.428 195.56 258.944C191.378 258.86 187.307 257.582 183.828 255.26C180.349 252.938 177.606 249.67 175.924 245.84C175.574 245.054 174.981 244.402 174.232 243.981C173.482 243.559 172.617 243.39 171.764 243.498C170.911 243.607 170.116 243.988 169.496 244.584C168.877 245.18 168.466 245.96 168.324 246.808C167.201 252.822 167.344 259.004 168.744 264.959C170.145 270.914 172.772 276.512 176.458 281.395C180.143 286.278 184.807 290.338 190.15 293.317C195.494 296.296 201.4 298.128 207.491 298.696C213.582 299.264 219.725 298.556 225.527 296.616C231.329 294.676 236.663 291.548 241.188 287.431C245.713 283.314 249.33 278.298 251.807 272.704C254.284 267.111 255.568 261.062 255.576 254.944C255.575 246.106 252.912 237.474 247.935 230.171C242.958 222.868 235.897 217.233 227.672 214Z" fill="white" stroke="#020064" stroke-width="4"/>
</svg>
