<svg width="400" height="400" viewBox="0 0 400 400" fill="none" xmlns="http://www.w3.org/2000/svg">
<path d="M40 200C40 242.435 56.8571 283.131 86.8629 313.137C116.869 343.143 157.565 360 200 360C242.435 360 283.131 343.143 313.137 313.137C343.143 283.131 360 242.435 360 200C360 157.565 343.143 116.869 313.137 86.8629C283.131 56.8571 242.435 40 200 40C157.565 40 116.869 56.8571 86.8629 86.8629C56.8571 116.869 40 157.565 40 200Z" fill="#E8F4FA" stroke="#DAEDF7" stroke-width="4"/>
<path d="M155.388 155.46C154.917 167.679 158.596 179.697 165.824 189.56C166.423 190.352 167.298 190.89 168.274 191.068C169.251 191.247 170.259 191.053 171.1 190.524C177.56 186.488 192.532 173.82 200 140.156C203.972 123.222 204.624 105.678 201.92 88.496C201.789 87.7468 201.875 86.9757 202.17 86.2743C202.464 85.5729 202.953 84.9708 203.58 84.5394C204.206 84.108 204.943 83.8656 205.703 83.8408C206.463 83.8161 207.215 84.0102 207.868 84.4C232.056 98.7868 252.131 119.159 266.161 143.556C280.191 167.952 287.702 195.55 287.972 223.692C289.108 273.624 249.672 316.332 199.724 316.172C176.433 316.098 154.122 306.794 137.679 290.299C121.237 273.803 112.004 251.463 112.004 228.172C112 191.956 128.4 165.6 149.296 152C149.906 151.626 150.605 151.422 151.32 151.41C152.036 151.398 152.741 151.578 153.364 151.931C153.986 152.284 154.502 152.798 154.858 153.419C155.214 154.04 155.397 154.744 155.388 155.46Z" fill="#FF866E" stroke="#FF6242" stroke-width="4" stroke-linecap="round" stroke-linejoin="round"/>
<path d="M113.152 211.976C112.377 217.337 111.992 222.747 112 228.164C112 251.455 121.233 273.795 137.676 290.291C154.118 306.786 176.43 316.09 199.72 316.164C249.668 316.324 289.104 273.616 287.968 223.684C287.848 218.489 287.532 213.455 287.02 208.58C281.02 251.908 244.68 286.524 199.72 286.38C178.804 286.299 158.602 278.768 142.738 265.136C126.874 251.504 116.388 232.666 113.16 212" fill="#FF6242"/>
<path d="M155.388 155.46C154.917 167.679 158.596 179.697 165.824 189.56C166.423 190.352 167.298 190.89 168.274 191.068C169.251 191.247 170.259 191.053 171.1 190.524C177.56 186.488 192.532 173.82 200 140.156C203.972 123.222 204.624 105.678 201.92 88.496C201.789 87.7468 201.875 86.9757 202.17 86.2743C202.464 85.5729 202.953 84.9708 203.58 84.5394C204.206 84.108 204.943 83.8656 205.703 83.8408C206.463 83.8161 207.215 84.0102 207.868 84.4C232.056 98.7868 252.131 119.159 266.161 143.556C280.191 167.952 287.702 195.55 287.972 223.692C289.108 273.624 249.672 316.332 199.724 316.172C176.433 316.098 154.122 306.794 137.679 290.299C121.237 273.803 112.004 251.463 112.004 228.172C112 191.956 128.4 165.6 149.296 152C149.906 151.626 150.605 151.422 151.32 151.41C152.036 151.398 152.741 151.578 153.364 151.931C153.986 152.284 154.502 152.798 154.858 153.419C155.214 154.04 155.397 154.744 155.388 155.46Z" stroke="#45413C" stroke-width="4" stroke-linecap="round" stroke-linejoin="round"/>
<path d="M227.688 211.884C227.04 211.609 226.331 211.509 225.633 211.596C224.934 211.682 224.271 211.951 223.709 212.376C223.148 212.801 222.709 213.367 222.436 214.016C222.163 214.664 222.067 215.374 222.156 216.072C222.604 219.089 222.775 222.14 222.668 225.188C221.98 245.132 209.532 257.312 195.576 256.828C191.394 256.745 187.323 255.467 183.843 253.145C180.364 250.823 177.621 247.554 175.94 243.724C175.59 242.938 174.997 242.286 174.248 241.865C173.498 241.443 172.633 241.274 171.78 241.382C170.927 241.491 170.132 241.872 169.512 242.468C168.892 243.064 168.481 243.844 168.34 244.692C167.214 250.635 167.327 256.746 168.67 262.643C170.014 268.54 172.561 274.097 176.151 278.965C179.74 283.833 184.296 287.908 189.532 290.935C194.769 293.962 200.574 295.875 206.584 296.556C217.2 297.782 227.898 295.102 236.683 289.018C245.468 282.934 251.739 273.86 254.324 263.491C256.909 253.123 255.633 242.168 250.733 232.671C245.833 223.174 237.644 215.786 227.696 211.884H227.688Z" fill="#FFE500"/>
<path d="M167.972 246.9C167.372 251.362 167.449 255.889 168.2 260.328C170.012 271.859 176.331 282.197 185.766 289.069C195.201 295.94 206.979 298.783 218.51 296.97C230.041 295.158 240.379 288.839 247.251 279.404C254.122 269.969 256.964 258.191 255.152 246.66C253.711 257.176 248.518 266.816 240.529 273.805C232.54 280.793 222.294 284.658 211.68 284.687C201.066 284.717 190.799 280.908 182.772 273.964C174.745 267.02 169.499 257.408 168 246.9" fill="#EBCB00"/>
<path d="M227.688 211.884C227.04 211.609 226.331 211.509 225.633 211.596C224.934 211.682 224.271 211.951 223.709 212.376C223.148 212.801 222.709 213.367 222.436 214.016C222.163 214.664 222.067 215.374 222.156 216.072C222.604 219.089 222.775 222.14 222.668 225.188C221.98 245.132 209.532 257.312 195.576 256.828C191.394 256.745 187.323 255.467 183.843 253.145C180.364 250.823 177.621 247.554 175.94 243.724C175.59 242.938 174.997 242.286 174.248 241.865C173.498 241.443 172.633 241.274 171.78 241.382C170.927 241.491 170.132 241.872 169.512 242.468C168.892 243.064 168.481 243.844 168.34 244.692C167.214 250.635 167.327 256.746 168.67 262.643C170.014 268.54 172.561 274.097 176.151 278.965C179.74 283.833 184.296 287.908 189.532 290.935C194.769 293.962 200.574 295.875 206.584 296.556C217.2 297.782 227.898 295.102 236.683 289.018C245.468 282.934 251.739 273.86 254.324 263.491C256.909 253.123 255.633 242.168 250.733 232.671C245.833 223.174 237.644 215.786 227.696 211.884H227.688Z" stroke="#E04122" stroke-width="4" stroke-linecap="round" stroke-linejoin="round"/>
</svg>
