<svg width="400" height="400" viewBox="0 0 400 400" fill="none" xmlns="http://www.w3.org/2000/svg">
<path d="M138.556 138.656C137.908 155.485 142.975 172.038 152.932 185.62C153.756 186.712 154.959 187.455 156.305 187.701C157.65 187.947 159.039 187.678 160.196 186.948C169.096 181.388 189.716 163.94 200.02 117.576C205.488 94.2548 206.384 70.0948 202.66 46.432C202.484 45.4028 202.606 44.3448 203.012 43.3828C203.418 42.4204 204.09 41.5948 204.95 41.0024C205.81 40.4104 206.822 40.0768 207.866 40.0408C208.909 40.0048 209.941 40.2684 210.84 40.8C244.15 60.6144 271.798 88.672 291.12 122.27C310.442 155.868 320.787 193.876 321.16 232.632C322.724 301.404 268.4 360.22 199.624 360C167.545 359.901 136.814 347.088 114.166 324.369C91.5176 301.65 78.8 270.879 78.8 238.8C78.8 188.932 101.368 152.604 130.16 133.904C130.997 133.378 131.962 133.088 132.95 133.065C133.939 133.042 134.916 133.287 135.776 133.774C136.637 134.261 137.35 134.972 137.84 135.832C138.329 136.691 138.576 137.667 138.556 138.656Z" stroke="#020064" stroke-width="4" stroke-linecap="round" stroke-linejoin="round"/>
<path d="M238.132 216.364C237.24 215.992 236.267 215.86 235.309 215.982C234.35 216.104 233.441 216.476 232.672 217.06C231.902 217.644 231.299 218.42 230.924 219.31C230.548 220.2 230.413 221.173 230.532 222.132C231.15 226.288 231.385 230.493 231.236 234.692C230.288 262.156 213.144 278.932 193.924 278.268C188.163 278.154 182.556 276.394 177.764 273.195C172.971 269.996 169.195 265.492 166.88 260.216C166.392 259.14 165.572 258.249 164.54 257.673C163.508 257.098 162.319 256.867 161.147 257.017C159.975 257.166 158.882 257.687 158.027 258.504C157.173 259.32 156.603 260.388 156.4 261.552C154.274 272.854 155.408 284.528 159.669 295.209C163.93 305.891 171.142 315.14 180.463 321.876C189.784 328.613 200.828 332.558 212.308 333.252C223.787 333.946 235.226 331.359 245.291 325.794C255.355 320.23 263.628 311.916 269.144 301.826C274.661 291.735 277.192 280.283 276.443 268.807C275.694 257.331 271.696 246.305 264.915 237.017C258.134 227.729 248.85 220.562 238.148 216.352L238.132 216.364Z" stroke="#020064" stroke-width="4" stroke-linecap="round" stroke-linejoin="round"/>
</svg>
