<svg width="400" height="400" viewBox="0 0 400 400" fill="none" xmlns="http://www.w3.org/2000/svg">
<path d="M346.35 236.292L346.638 236.214C345.666 231.594 348.742 219.814 348.572 209.05C348.402 198.286 348.726 173.318 348.726 173.318C341.908 174.452 333.452 172.488 330.314 171.65L330.368 171.424C329.76 171.228 329.198 170.914 328.714 170.5L328.574 170.864C328.574 170.864 325.786 172.864 323.774 171.914C321.804 170.567 320.202 168.748 319.116 166.624L319.1 166.61C318.992 166.508 318.378 165.926 317.578 165.102C315.9 163.37 313.416 160.568 313.206 158.968C312.888 156.544 329.016 142.768 331.036 142.822C333.056 142.876 342.902 152.094 346.862 153.99C350.822 155.886 363.326 162.314 364.802 167.806C364.802 167.806 380.802 225.668 381.66 235.872C382.518 246.076 380.66 257.71 381.06 262.462C381.46 267.214 357.848 265.498 342.06 267.564C327.66 269.444 313.908 270.5 298.828 264.8C297.924 264.59 296.996 264.508 296.07 264.552C301.748 254.502 303.214 227.818 303.214 227.818L309.226 230.218C314.946 228.782 320.85 228.216 326.738 228.542C333.924 229.012 340.784 231.722 346.35 236.292Z" fill="#FFE8BB"/>
<path d="M358.992 8.13989L342.134 71.3538L330.81 61.8798L311.776 110.448L298.722 99.6918L279.906 135.034L295.384 81.3878L307.226 90.4958L328.614 35.7478L338.452 47.2718L358.992 8.13989Z" fill="white"/>
<path d="M323.782 171.914C323.782 171.914 318.696 173.914 316.7 171.02C314.736 168.17 317.586 165.102 317.586 165.102C318.386 165.926 319 166.502 319.108 166.61L319.124 166.624C320.21 168.749 321.812 170.567 323.782 171.914Z" fill="#FFE8BB"/>
<path d="M275.324 204.156C277.234 210.392 271.822 212 266.876 212.124C266.378 212.124 265.876 212.108 265.376 212.124C263.676 212.096 261.984 211.886 260.328 211.496L259.226 211.604C258.784 207.004 258.326 203.752 258.326 203.752L256.664 203.582C257.462 203.172 258.142 202.562 258.632 201.81C259.124 201.058 259.412 200.192 259.468 199.297C259.522 198.4 259.344 197.505 258.95 196.699C258.554 195.893 257.956 195.203 257.214 194.698C259.46 192.382 261.108 189.554 262.014 186.458L262.706 186.658C262.706 186.658 272.646 195.42 275.324 204.156Z" fill="#55DEFF"/>
<path d="M269.268 290.854C272.568 293.588 273.584 297.836 267.768 301.29C261.952 304.744 250.102 303.404 246.668 297.906C244.036 293.688 238.422 290.466 235.23 288.462C234.764 288.172 234.394 287.75 234.168 287.248C233.944 286.748 233.872 286.192 233.964 285.65L235.656 280.176C235.656 280.176 239.5 282.498 240.744 281.76C241.988 281.022 242.304 272.938 250.544 270.126C250.932 269.968 251.354 269.906 251.772 269.946C252.192 269.986 252.592 270.128 252.944 270.36C255.444 272.022 255.662 278.142 255.662 278.142L259.536 283.542C261.12 286.784 265.974 288.12 269.268 290.854Z" fill="#55DEFF"/>
<path d="M196.276 192.104L195.306 192.322C194.977 191.681 194.518 191.116 193.958 190.663C193.399 190.209 192.75 189.878 192.055 189.69C191.36 189.502 190.633 189.461 189.921 189.569C189.209 189.678 188.527 189.935 187.92 190.322L187.82 189.964C183.798 184.482 183.494 175.202 189.62 173.222C190.509 172.946 191.438 172.818 192.368 172.842C193.646 177.085 195.72 181.046 198.48 184.514C191.762 158.514 200.91 147.858 212.862 138.16C220.582 164.268 246.662 161.76 249.376 162.7L249.68 162.63C251.586 170.902 250.816 179.566 247.48 187.372C250.676 184.45 253.33 180.984 255.316 177.136L255.402 177.182C256.544 177.131 257.688 177.278 258.78 177.618C262.492 178.86 263.098 182.564 262.002 186.462C261.096 189.558 259.448 192.386 257.202 194.702C256.62 194.306 255.964 194.032 255.274 193.898C254.584 193.763 253.872 193.771 253.184 193.921C252.498 194.071 251.848 194.359 251.276 194.769C250.702 195.178 250.22 195.7 249.856 196.302L248.994 195.858C245.544 201.188 241.04 205.758 235.762 209.286C231.542 212.136 226.524 213.572 221.434 213.386C212.822 212.734 205.934 206.724 201.142 200.186C199.285 197.64 197.657 194.936 196.276 192.104ZM236.65 167.742C239.748 167.723 242.846 167.892 245.924 168.248C242.576 165.576 231.79 163.976 230.974 165.81C229.956 168.076 233.42 168 236.65 167.742ZM229.49 196.484C231.212 195.152 232.81 193.668 234.266 192.05C230.554 191.224 226.788 190.653 222.998 190.342C219.204 189.939 215.374 190.012 211.598 190.558C212.952 192.295 214.44 193.923 216.048 195.428C217.806 197.392 220.248 198.609 222.874 198.828C224.078 198.903 225.284 198.734 226.422 198.331C227.558 197.928 228.602 197.3 229.49 196.484ZM212.134 166.298C215.334 166.764 218.782 167.06 217.92 164.73C217.228 162.85 206.356 163.752 202.838 166.206C205.936 166.051 209.04 166.082 212.134 166.298Z" fill="#FFE8BB"/>
<path d="M192.37 172.838C190.243 166.423 189.025 159.741 188.752 152.988C187.92 137.224 205.526 118.174 225.646 122.112L225.694 121.862C229.978 121.259 234.344 121.652 238.452 123.011C242.56 124.37 246.298 126.659 249.378 129.698C257.54 137.298 262.138 148.842 261.136 158.066C260.988 159.418 260.802 160.714 260.578 161.966C259.65 167.27 257.874 172.391 255.32 177.132C253.334 180.98 250.682 184.445 247.484 187.366C250.82 179.561 251.59 170.897 249.684 162.626L249.38 162.696C246.662 161.764 220.58 164.264 212.866 138.156C200.914 147.854 191.766 158.518 198.484 184.51C195.724 181.043 193.649 177.081 192.37 172.838Z" fill="#313553"/>
<path d="M259.226 211.6C259.782 217.08 260.026 222.586 259.956 228.094C259.66 238.826 253.93 264.094 253.93 264.094L252.93 270.354C252.578 270.122 252.178 269.98 251.758 269.94C251.34 269.9 250.918 269.962 250.53 270.12C242.298 272.932 241.972 281.016 240.73 281.754C239.488 282.492 235.642 280.17 235.642 280.17C235.534 279.394 237.212 273.57 237.096 272.288C236.202 262.704 235.096 243.166 233.188 236.558C233.088 236.212 233.008 235.862 232.948 235.508C232.554 232.558 232.53 229.572 232.878 226.616C233.494 220.808 234.474 215.046 235.814 209.362L235.768 209.284C241.046 205.756 245.55 201.186 249 195.856L249.862 196.3C249.434 197.006 249.184 197.806 249.132 198.63C249.072 199.544 249.254 200.458 249.662 201.278C250.07 202.098 250.688 202.794 251.452 203.298C252.218 203.8 253.104 204.09 254.018 204.14C254.932 204.188 255.844 203.994 256.658 203.576L258.32 203.746C258.32 203.746 258.784 207.014 259.226 211.6Z" fill="#FFE8BB"/>
<path d="M260.578 161.966C260.554 167.114 260.258 175.004 258.778 177.606C257.686 177.266 256.542 177.119 255.4 177.17L255.314 177.124C257.87 172.386 259.648 167.268 260.578 161.966Z" fill="#55DEFF"/>
<path d="M255.28 82.552L250.56 85.978L244.588 76.922L247.058 87.662L239.362 91.926L236.348 82.638L235.47 82.56C238.506 78.662 239.82 72.868 235.346 71.572L235.556 70.858C236.254 68.9234 236.84 66.9502 237.31 64.948L237.816 65.064C237.816 65.064 252.128 76.324 255.28 82.552Z" fill="#55DEFF"/>
<path d="M245.924 168.248C242.846 167.892 239.748 167.723 236.65 167.742C233.42 168.006 229.956 168.076 230.974 165.81C231.8 163.976 242.576 165.576 245.924 168.248Z" fill="#55DEFF"/>
<path d="M211.762 56.7319C203.522 56.0859 193.488 55.9699 193.488 55.9699C193.488 55.9699 192.076 55.8379 190.436 55.6199C190.29 55.9319 187.16 62.6199 184.566 66.8339L184.13 66.5699C183.765 64.5563 183.514 62.5237 183.378 60.4819C182.966 54.0519 183.54 44.0179 190.048 37.4019C193.008 34.2549 196.615 31.7863 200.62 30.1657C204.624 28.5451 208.932 27.8111 213.248 28.0139C217.544 28.4929 221.682 29.9149 225.366 32.1779C229.05 34.4411 232.188 37.4897 234.558 41.1059C239.862 48.7059 238.782 58.6719 237.314 64.9479C236.844 66.9503 236.26 68.9237 235.56 70.8579L235.35 71.5719C235.33 71.5629 235.31 71.5573 235.288 71.5559C231.864 68.2239 231.134 51.816 231.134 51.816C231.134 51.816 225.232 58.3319 216.852 57.2439C215.326 57.0419 213.586 56.8699 211.762 56.7319Z" fill="#55DEFF"/>
<path d="M235.774 209.29L235.82 209.368C234.48 215.052 233.5 220.816 232.884 226.624C229.988 229.796 226.238 232.066 222.084 233.162C220.57 233.224 219.484 233.348 219.484 233.348C219.434 233.352 219.386 233.352 219.336 233.348C214.576 233.068 205.91 223.036 202.112 220.596L200.87 220.418C202.008 217.454 202.208 214.212 201.444 211.13C201.042 210.076 200.57 209.048 200.032 208.056L200.248 207.938L200.908 200.352L201.15 200.18C205.95 206.728 212.83 212.738 221.442 213.38C226.532 213.568 231.55 212.136 235.774 209.29Z" fill="#FFE8BB"/>
<path d="M184.286 67.3082V67.2922C184.38 67.1462 184.472 66.9902 184.566 66.8342C187.166 62.6342 190.29 55.9322 190.436 55.6202C192.076 55.8382 193.488 55.9702 193.488 55.9702C193.488 55.9702 203.522 56.0862 211.762 56.7322C213.586 56.8702 215.326 57.0422 216.848 57.2362C225.228 58.3242 231.13 51.8082 231.13 51.8082C231.13 51.8082 231.86 68.2082 235.284 71.5482C235.306 71.5496 235.326 71.555 235.346 71.5642C239.82 72.8602 238.506 78.6542 235.47 82.5522C233.47 85.1222 230.686 86.8702 228.326 85.9382L227.938 85.6502C225.604 88.9626 222.498 91.6574 218.89 93.5022L219.03 93.5402L219 93.7042C219 93.7042 218.704 100.684 207.28 99.7922C197.978 99.0622 195.726 93.4482 195.198 91.2422C195.124 90.9484 195.072 90.6496 195.042 90.3482L195.5 90.0002C192.987 87.9226 190.908 85.3706 189.38 82.4902L188.768 82.6382C186.212 83.1822 183.688 80.8522 182.142 77.8382C179.906 73.5202 179.688 67.8002 184.286 67.3082ZM218.086 63.2462C219.834 64.0242 226.31 63.2082 226.31 63.2082C224.05 61.0722 218.086 59.9922 217.434 61.2982C216.782 62.6042 216.352 62.4702 218.09 63.2462H218.086ZM216.37 80.9762L201.5 79.7342C201.5 79.7342 203.138 86.1162 208.736 86.5822C214.036 87.0262 216.374 80.9762 216.374 80.9762H216.37ZM202.734 61.9762C204.582 61.5022 204.124 61.5562 203.696 60.1582C203.268 58.7602 197.212 58.8462 194.626 60.5782C194.63 60.5682 200.89 62.4462 202.738 61.9662L202.734 61.9762Z" fill="#FFE8BB"/>
<path d="M226.314 63.2C226.314 63.2 219.838 64.016 218.09 63.238C216.342 62.46 216.794 62.586 217.438 61.29C218.082 59.994 224.054 61.072 226.314 63.2Z" fill="#55DEFF"/>
<path d="M217.92 164.73C218.782 167.06 215.334 166.764 212.134 166.298C209.04 166.082 205.936 166.051 202.838 166.206C206.356 163.752 217.228 162.85 217.92 164.73Z" fill="#55DEFF"/>
<path d="M154.784 277.83C158.598 274.274 161.106 272.068 161.106 272.068L165.322 259.682C164.748 252.934 163.878 243.7 163.77 240.95C163.662 238.2 165.354 236.508 165.354 233.868C165.354 231.228 163.668 225.722 166.418 225.622C166.524 225.616 166.631 225.62 166.736 225.636C169.282 225.908 171.38 230.636 171.17 234.288C171.019 236.048 171.024 237.818 171.186 239.576L173.072 243.266L173.228 243.398C175.774 240.376 178.486 237.58 178.486 237.58C178.486 237.58 185.986 215.852 187.308 213.422C188.63 210.992 194.654 210.47 193.084 216.264C191.514 222.058 187.696 234.296 187.696 234.296L190.592 235.344C190.592 235.344 195.462 228.37 197.178 226.662C197.359 226.486 197.574 226.346 197.811 226.256C198.047 226.166 198.299 226.124 198.552 226.134C200.594 226.158 203.172 228.898 201.254 233.022C202.15 233.398 202.918 234.026 203.462 234.83C204.006 235.634 204.306 236.578 204.322 237.55C204.254 238.326 204.032 239.08 203.67 239.77C203.67 239.77 206.62 242.97 203.934 250.216C200.7 258.176 196.057 265.486 190.228 271.796C188.976 273.138 187.435 274.176 185.722 274.832C185.722 274.832 185.18 276.06 184.216 278.196C182.314 282.42 178.772 290.21 174.642 298.984C169.858 309.15 164.266 320.644 159.482 329.52C157.366 333.608 155.004 337.562 152.408 341.362C142.808 354.562 133.794 355.092 130.19 360.194C126.586 365.296 113.976 364.1 110.97 355.994C107.964 347.888 105.292 317.04 112.64 306.23C117.082 299.684 122.6 284.2 126.6 270.36C127.09 270.546 146.776 277.994 154.494 277.52L154.784 277.83Z" fill="#FFE8BB"/>
<path d="M203.7 60.148C204.128 61.548 204.586 61.492 202.738 61.966C200.89 62.44 194.63 60.566 194.63 60.566C197.216 58.836 203.282 58.758 203.7 60.148Z" fill="#55DEFF"/>
<path d="M188.744 278.086C191.058 280.004 190.63 286.116 190.63 286.116L193.916 291.894C195.158 295.28 199.842 297.128 202.83 300.188C205.818 303.248 206.388 307.588 200.23 310.408C194.072 313.228 182.446 310.656 179.612 304.832C178.454 302.668 176.927 300.724 175.1 299.086L174.634 298.984C178.764 290.21 182.306 282.42 184.208 278.196L184.318 278.242C184.987 277.98 185.675 277.766 186.376 277.606C186.78 277.488 187.207 277.47 187.619 277.554C188.032 277.638 188.418 277.82 188.744 278.086Z" fill="#55DEFF"/>
<path d="M169.562 220.6L159.8 212.054C161.429 207.51 163.395 203.096 165.68 198.844C172.544 189.06 185.466 192.044 185.466 192.044L186.08 192.362C185.764 192.977 185.579 193.652 185.536 194.342C185.476 195.256 185.66 196.169 186.068 196.988C186.475 197.808 187.093 198.504 187.858 199.007C188.623 199.51 189.508 199.801 190.422 199.851C191.336 199.901 192.247 199.707 193.062 199.29L194.382 199.344C196.464 202.114 198.353 205.022 200.036 208.05C200.574 209.042 201.046 210.07 201.448 211.124C202.212 214.206 202.012 217.448 200.874 220.412C200.26 222.378 199.484 224.29 198.552 226.128C198.299 226.118 198.047 226.16 197.811 226.25C197.574 226.34 197.359 226.48 197.178 226.656C195.462 228.364 190.592 235.338 190.592 235.338L187.696 234.29C187.696 234.29 191.516 222.042 193.084 216.258C194.652 210.474 188.62 210.992 187.308 213.416C185.996 215.84 178.486 237.574 178.486 237.574C178.486 237.574 175.776 240.374 173.228 243.39L173.072 243.258L171.186 239.57C171.024 237.812 171.019 236.042 171.17 234.282C171.38 230.632 169.282 225.902 166.736 225.63L168.452 225.616C168.707 223.92 169.078 222.244 169.562 220.6Z" fill="#FFE8BB"/>
<path d="M201.154 200.18L200.912 200.352L200.252 207.938L200.036 208.056C198.353 205.028 196.464 202.12 194.382 199.35L193.062 199.296C194.284 198.668 195.207 197.581 195.628 196.274C196.049 194.966 195.933 193.544 195.306 192.322L196.276 192.104C197.661 194.934 199.293 197.637 201.154 200.18Z" fill="#55DEFF"/>
<path d="M195.306 192.322C195.67 193.031 195.865 193.815 195.876 194.613C195.888 195.41 195.714 196.199 195.37 196.918C195.026 197.638 194.521 198.268 193.893 198.76C193.265 199.251 192.533 199.591 191.752 199.753C190.971 199.915 190.164 199.895 189.392 199.693C188.621 199.491 187.906 199.114 187.304 198.591C186.703 198.068 186.23 197.413 185.923 196.677C185.617 195.941 185.484 195.144 185.536 194.348C185.593 193.537 185.839 192.751 186.253 192.052C186.666 191.352 187.237 190.759 187.92 190.318C188.527 189.931 189.209 189.674 189.921 189.565C190.633 189.457 191.36 189.498 192.055 189.686C192.75 189.874 193.398 190.205 193.958 190.659C194.518 191.112 194.977 191.677 195.306 192.318V192.322Z" fill="white"/>
<path d="M192.37 172.838C191.44 172.814 190.511 172.943 189.622 173.218L189.544 172.992C188.651 169.233 188.301 165.365 188.504 161.506C188.518 156.996 188.752 152.988 188.752 152.988C189.025 159.741 190.243 166.423 192.37 172.838Z" fill="#55DEFF"/>
<path d="M190.228 271.8L190.39 271.972L188.744 278.09C188.419 277.826 188.034 277.644 187.623 277.56C187.212 277.476 186.787 277.494 186.384 277.61C185.683 277.77 184.995 277.984 184.326 278.246L184.216 278.2C185.18 276.064 185.722 274.836 185.722 274.836C187.435 274.18 188.976 273.142 190.228 271.8Z" fill="#FFE8BB"/>
<path d="M189.544 173L189.622 173.226C183.494 175.206 183.798 184.486 187.822 189.968L187.922 190.326C187.131 190.826 186.494 191.536 186.082 192.376L185.468 192.058C185.468 192.058 172.546 189.058 165.682 198.858C163.397 203.11 161.431 207.524 159.802 212.068C159.802 212.068 153.046 218.668 149.218 219.616C148.995 219.63 148.774 219.668 148.558 219.726C148.155 219.772 147.748 219.676 147.408 219.454C146.848 219.06 146.337 218.602 145.886 218.086C144.086 216.036 143.348 213.04 145.42 208.9C148.006 203.72 139.246 206.346 137.646 196.398C136.046 186.45 165.68 157.2 165.68 157.2C167.005 158.285 168.526 159.107 170.16 159.622L187.858 161.518H188.504C188.301 165.375 188.651 169.242 189.544 173Z" fill="#55DEFF"/>
<path d="M184.13 66.5699L184.566 66.8339C184.472 66.9899 184.38 67.1459 184.286 67.2919V67.3079C179.686 67.7899 179.906 73.5199 182.142 77.8539L181.622 78.0799L177.118 86.7379L170.23 81.2559L174.448 71.0739L167.048 79.0179L162.964 74.8559C167.102 69.2419 183.076 60.4979 183.076 60.4979L183.372 60.4819C183.51 62.5237 183.763 64.5563 184.13 66.5699Z" fill="#55DEFF"/>
<path d="M169.64 121.024C169.64 121.024 163.84 149.09 163.77 153.408C163.784 154.143 163.963 154.865 164.293 155.521C164.624 156.178 165.098 156.751 165.68 157.2C165.68 157.2 136.054 186.446 137.646 196.4C139.238 206.354 148.004 203.722 145.418 208.902C143.346 213.042 144.076 216.038 145.884 218.088C135.08 224.18 125.087 231.608 116.142 240.2C95.8659 244.634 53.8679 226.6 53.8679 226.6C53.8679 226.6 85.8779 230.918 89.4199 183.562C93.2019 132.962 141.42 111.014 152.62 108.102C161.168 114.866 169.64 121.024 169.64 121.024Z" fill="#313553"/>
<path d="M126.6 270.36C122.6 284.206 117.08 299.684 112.638 306.23C105.29 317.04 107.962 347.886 110.968 355.994C113.974 364.102 126.584 365.304 130.188 360.194C133.792 355.084 142.8 354.572 152.406 341.362C155.002 337.562 157.364 333.608 159.48 329.52L163.8 359.48L158.302 387.344C158.302 387.344 104.99 389.144 74.502 387.344C28.644 384.64 19.1699 311.58 19.1699 311.58C19.1699 311.58 57.642 331.468 81.918 284.98C90.7284 268.238 102.295 253.1 116.134 240.2C125.079 231.604 135.071 224.17 145.876 218.074C146.327 218.59 146.838 219.048 147.398 219.442C147.738 219.664 148.145 219.76 148.548 219.714C142.328 221.166 133.164 236.79 131.736 248.276C130.517 255.744 128.801 263.122 126.6 270.36Z" fill="#55DEFF"/>
<path d="M120.358 33.426C120.786 33.162 121.058 33.014 121.058 33.014C120.855 30.5832 120.444 28.1744 119.83 25.814C118.79 21.776 121.594 21.084 122.386 22.972C123.178 24.86 124.786 32.454 124.786 32.454C124.786 32.454 126.858 38.588 129.304 39.582C131.75 40.576 134.198 37.696 137.07 36.274C139.942 34.852 141.87 38.378 139.766 39.528C137.662 40.678 134.484 42.572 134.166 44.754C133.848 46.936 130.494 49.98 130.494 49.98L130.556 50.214L121.156 52.792C117.937 50.673 115.195 47.9068 113.104 44.67C113.104 44.67 104.704 41.858 103.754 40.298C102.804 38.738 103.28 37.478 106.754 39.04C108.829 39.98 111.051 40.5526 113.322 40.732C113.322 40.732 113.44 40.506 113.594 40.18C113.914 39.568 114.41 38.58 114.658 38.192C114.923 37.7944 115.225 37.4226 115.56 37.082C116.035 36.5974 116.541 36.1438 117.074 35.724C118.123 34.8944 119.22 34.1272 120.358 33.426Z" fill="#FFE8BB"/>
<path d="M120.358 33.4262C119.217 34.1226 118.118 34.8852 117.066 35.7102L116.654 35.4142C116.654 35.4142 112.996 27.9042 111.598 25.4142C110.2 22.9242 112.258 21.1282 113.718 22.5402C116.152 26.0296 118.369 29.665 120.358 33.4262Z" fill="#FFE8BB"/>
<path d="M115.552 37.0678C115.217 37.4086 114.915 37.7804 114.65 38.1778C114.402 38.5778 113.906 39.5538 113.586 40.1658C113.586 40.1658 108.772 34.3498 106.24 32.0598C103.708 29.7698 106.132 28.2598 107.662 29.5038C108.538 30.2178 115.552 37.0678 115.552 37.0678Z" fill="#FFE8BB"/>
<path d="M186.926 74.888C187.171 77.575 188.009 80.174 189.38 82.498C190.908 85.3756 192.988 87.9246 195.5 90C198.958 92.8124 203.2 94.4888 207.646 94.8" stroke="#313553" stroke-width="0.777" stroke-linecap="round" stroke-linejoin="round"/>
<path d="M188.768 82.646C186.212 83.19 183.688 80.86 182.142 77.846C179.906 73.512 179.688 67.782 184.286 67.3C184.993 67.2258 185.708 67.2576 186.406 67.394" stroke="#313553" stroke-width="0.777" stroke-linecap="round" stroke-linejoin="round"/>
<path d="M218.86 93.51C216.802 94.3876 214.624 94.9506 212.398 95.18" stroke="#313553" stroke-width="0.777" stroke-linecap="round" stroke-linejoin="round"/>
<path d="M231.424 78.6C230.76 81.1678 229.574 83.5706 227.938 85.658C225.604 88.9704 222.498 91.6652 218.89 93.5102" stroke="#313553" stroke-width="0.777" stroke-linecap="round" stroke-linejoin="round"/>
<path d="M228.326 85.946C230.686 86.878 233.46 85.13 235.47 82.56C238.506 78.662 239.82 72.868 235.346 71.572C235.326 71.563 235.306 71.5574 235.284 71.556C234.598 71.3704 233.89 71.284 233.18 71.3" stroke="#313553" stroke-width="0.777" stroke-linecap="round" stroke-linejoin="round"/>
<path d="M235.556 70.8579C236.254 68.9233 236.84 66.9499 237.31 64.9479C238.778 58.6719 239.858 48.7019 234.554 41.1059C232.184 37.4897 229.046 34.4411 225.362 32.1779C221.678 29.9149 217.54 28.4929 213.244 28.0139C208.928 27.8111 204.62 28.5451 200.616 30.1657C196.61 31.7863 193.004 34.2549 190.044 37.4019C183.536 44.0179 182.962 54.0519 183.374 60.4819C183.51 62.5237 183.761 64.5563 184.126 66.5699" stroke="#313553" stroke-width="0.777" stroke-linecap="round" stroke-linejoin="round"/>
<path d="M210.084 69.1398C213.564 75.3058 209.06 76.7518 209.06 76.7518" stroke="#313553" stroke-width="0.777" stroke-linecap="round" stroke-linejoin="round"/>
<path d="M195.058 68.0998C196.204 67.4478 197.52 67.1574 198.834 67.267C200.148 67.3766 201.398 67.881 202.42 68.7138" stroke="#313553" stroke-width="0.777" stroke-linecap="round" stroke-linejoin="round"/>
<path d="M224.652 70.5619C223.63 69.7309 222.38 69.2275 221.066 69.1181C219.752 69.0085 218.436 69.2977 217.29 69.9479" stroke="#313553" stroke-width="0.777" stroke-linecap="round" stroke-linejoin="round"/>
<path d="M194.63 60.568C197.216 58.836 203.282 58.768 203.7 60.148C204.118 61.528 204.586 61.492 202.738 61.966C200.89 62.44 194.63 60.568 194.63 60.568Z" stroke="#313553" stroke-width="0.777" stroke-linecap="round" stroke-linejoin="round"/>
<path d="M226.314 63.2C224.054 61.064 218.09 59.984 217.438 61.29C216.786 62.596 216.352 62.462 218.09 63.238C219.828 64.014 226.314 63.2 226.314 63.2Z" stroke="#313553" stroke-width="0.777" stroke-linecap="round" stroke-linejoin="round"/>
<path d="M195.034 90.364C195.064 90.6654 195.116 90.9642 195.19 91.258C195.718 93.458 197.97 99.078 207.272 99.808C218.696 100.7 218.992 93.72 218.992 93.72" stroke="#313553" stroke-width="0.777" stroke-linecap="round" stroke-linejoin="round"/>
<path d="M201.504 79.7338L216.374 80.9758C216.374 80.9758 214.036 87.0258 208.74 86.5758C203.142 86.1158 201.504 79.7338 201.504 79.7338Z" stroke="#313553" stroke-width="0.777" stroke-linecap="round" stroke-linejoin="round"/>
<path d="M235.284 71.5479C231.86 68.2159 231.13 51.8079 231.13 51.8079C231.13 51.8079 225.228 58.324 216.848 57.236C215.326 57.036 213.586 56.8699 211.762 56.7319C203.522 56.0859 193.488 55.97 193.488 55.97C193.488 55.97 203.84 48.654 207.46 43.7" stroke="#313553" stroke-width="0.777" stroke-linecap="round" stroke-linejoin="round"/>
<path d="M193.488 55.9698C193.488 55.9698 192.076 55.8378 190.436 55.6198C189.17 55.4418 187.774 55.2198 186.78 54.9678C190.378 52.4176 193.752 49.5652 196.866 46.4418" stroke="#313553" stroke-width="0.777" stroke-linecap="round" stroke-linejoin="round"/>
<path d="M190.436 55.6119C190.29 55.9319 187.16 62.6259 184.566 66.8339C184.472 66.9899 184.38 67.1459 184.286 67.2919" stroke="#313553" stroke-width="0.777" stroke-linecap="round" stroke-linejoin="round"/>
<path d="M211.762 56.732C215.86 53.8634 219.494 50.3852 222.54 46.418" stroke="#313553" stroke-width="0.777" stroke-linecap="round" stroke-linejoin="round"/>
<path d="M193.326 183.236C193.761 186.347 194.761 189.352 196.276 192.104C197.661 194.934 199.293 197.637 201.154 200.18C205.954 206.728 212.834 212.738 221.446 213.38" stroke="#313553" stroke-width="0.777" stroke-linecap="round" stroke-linejoin="round"/>
<path d="M187.82 189.96C183.798 184.478 183.494 175.198 189.62 173.218C190.509 172.943 191.438 172.814 192.368 172.838C192.938 172.851 193.507 172.903 194.07 172.992" stroke="#313553" stroke-width="0.777" stroke-linecap="round" stroke-linejoin="round"/>
<path d="M253.176 187.274C252.324 190.368 250.91 193.279 249.006 195.862C245.556 201.192 241.052 205.762 235.774 209.29C231.554 212.14 226.536 213.576 221.446 213.39" stroke="#313553" stroke-width="0.777" stroke-linecap="round" stroke-linejoin="round"/>
<path d="M257.214 194.698C259.46 192.382 261.108 189.554 262.014 186.458C263.11 182.56 262.504 178.858 258.792 177.614C257.7 177.274 256.556 177.127 255.414 177.178" stroke="#313553" stroke-width="0.777" stroke-linecap="round" stroke-linejoin="round"/>
<path d="M228.21 173.21C228.032 175.091 228.086 176.988 228.372 178.856C230.602 185.938 225.414 186.04 225.414 186.04" stroke="#313553" stroke-width="0.777" stroke-linecap="round" stroke-linejoin="round"/>
<path d="M206.17 173.2C207.524 172.318 209.128 171.902 210.74 172.018C212.35 172.133 213.88 172.772 215.094 173.838" stroke="#313553" stroke-width="0.777" stroke-linecap="round" stroke-linejoin="round"/>
<path d="M241.854 175.726C240.644 174.654 239.116 174.011 237.504 173.896C235.892 173.781 234.288 174.201 232.938 175.09" stroke="#313553" stroke-width="0.777" stroke-linecap="round" stroke-linejoin="round"/>
<path d="M202.838 166.2C206.356 163.746 217.238 162.844 217.92 164.724C218.782 167.054 215.334 166.758 212.134 166.292C209.04 166.076 205.936 166.045 202.838 166.2Z" stroke="#313553" stroke-width="0.777" stroke-linecap="round" stroke-linejoin="round"/>
<path d="M245.924 168.248C242.576 165.576 231.79 163.976 230.974 165.81C229.956 168.076 233.42 168.01 236.65 167.742C239.748 167.723 242.846 167.892 245.924 168.248Z" stroke="#313553" stroke-width="0.777" stroke-linecap="round" stroke-linejoin="round"/>
<path d="M211.6 190.558L234.26 192.05C232.804 193.668 231.206 195.152 229.484 196.484C228.598 197.297 227.556 197.923 226.422 198.325C225.288 198.726 224.084 198.895 222.884 198.822C220.258 198.603 217.816 197.386 216.058 195.422C214.448 193.919 212.958 192.293 211.6 190.558Z" stroke="#313553" stroke-width="0.777" stroke-linecap="round" stroke-linejoin="round"/>
<path d="M237.816 65.064C237.816 65.064 252.128 76.324 255.28 82.552L250.56 85.978L244.588 76.922L247.058 87.662L239.362 91.926L236.348 82.638" stroke="#313553" stroke-width="0.777" stroke-linecap="round" stroke-linejoin="round"/>
<path d="M183.082 60.498C183.082 60.498 167.108 69.242 162.97 74.856L167.054 79.018L174.454 71.074L170.236 81.256L177.124 86.738L181.628 78.08" stroke="#313553" stroke-width="0.777" stroke-linecap="round" stroke-linejoin="round"/>
<path d="M218.86 93.51H218.89L219.03 93.548C220.786 94.014 235.75 98.1 241.14 103.862C249.728 113.026 249.378 129.69 249.378 129.69" stroke="#313553" stroke-width="0.777" stroke-linecap="round" stroke-linejoin="round"/>
<path d="M120.374 33.45L120.358 33.426C118.37 29.6642 116.152 26.028 113.718 22.538C112.258 21.126 110.2 22.912 111.598 25.412C112.996 27.912 116.654 35.412 116.654 35.412" stroke="#313553" stroke-width="0.777" stroke-linecap="round" stroke-linejoin="round"/>
<path d="M121.142 52.778C117.923 50.659 115.181 47.8928 113.09 44.656C113.09 44.656 104.69 41.844 103.74 40.284C102.79 38.724 103.266 37.464 106.74 39.026C108.815 39.966 111.037 40.5386 113.308 40.718C113.308 40.718 113.426 40.492 113.58 40.166C113.9 39.554 114.396 38.566 114.644 38.178C114.908 37.78 115.211 37.4082 115.546 37.068C116.021 36.5834 116.527 36.1298 117.06 35.71C118.112 34.885 119.211 34.1224 120.352 33.426C120.78 33.162 121.052 33.014 121.052 33.014C120.849 30.5832 120.438 28.1744 119.824 25.814C118.784 21.776 121.588 21.084 122.38 22.972C123.172 24.86 124.78 32.454 124.78 32.454C124.78 32.454 126.852 38.588 129.298 39.582C131.744 40.576 134.192 37.696 137.064 36.274C139.936 34.852 141.864 38.378 139.76 39.528C137.656 40.678 134.478 42.572 134.16 44.754C133.842 46.936 130.488 49.98 130.488 49.98" stroke="#313553" stroke-width="0.777" stroke-linecap="round" stroke-linejoin="round"/>
<path d="M115.552 37.068C115.552 37.068 108.538 30.218 107.662 29.504C106.132 28.27 103.708 29.76 106.24 32.06C108.772 34.36 113.586 40.166 113.586 40.166" stroke="#313553" stroke-width="0.777" stroke-linecap="round" stroke-linejoin="round"/>
<path d="M195.058 91.296C195.058 91.296 183.874 89.216 177.538 88.64C177.325 88.6262 177.113 88.6008 176.902 88.564C168.522 87.476 151.502 79.352 151.502 79.352L134.302 49.176L130.544 50.208L121.144 52.786L116.508 54.06C116.508 54.06 129.778 86.374 136.72 94.248C141.679 99.2424 146.989 103.875 152.61 108.11C161.168 114.866 169.64 121.024 169.64 121.024C169.64 121.024 163.84 149.09 163.77 153.408C163.784 154.143 163.963 154.865 164.293 155.521C164.624 156.178 165.098 156.751 165.68 157.2C167.005 158.285 168.526 159.107 170.16 159.622L187.858 161.518" stroke="#313553" stroke-width="0.777" stroke-linecap="round" stroke-linejoin="round"/>
<path d="M211.6 190.558C215.376 190.012 219.206 189.939 223 190.342C226.79 190.653 230.556 191.224 234.268 192.05" stroke="#313553" stroke-width="0.777" stroke-linecap="round" stroke-linejoin="round"/>
<path d="M247.476 187.374C250.672 184.452 253.326 180.986 255.312 177.138C257.866 172.397 259.642 167.277 260.57 161.972C260.794 160.72 260.98 159.424 261.128 158.072C262.128 148.848 257.528 137.314 249.37 129.704C246.29 126.665 242.552 124.377 238.444 123.017C234.336 121.658 229.97 121.265 225.686 121.868" stroke="#313553" stroke-width="0.777" stroke-linecap="round" stroke-linejoin="round"/>
<path d="M231.144 136.252C240.254 142.569 246.822 151.916 249.682 162.626C251.588 170.898 250.818 179.562 247.482 187.368" stroke="#313553" stroke-width="0.777" stroke-linecap="round" stroke-linejoin="round"/>
<path d="M212.864 138.156C200.912 147.854 191.764 158.518 198.482 184.51C195.722 181.043 193.648 177.081 192.37 172.838C190.243 166.423 189.025 159.741 188.752 152.988C187.92 137.224 205.526 118.174 225.646 122.112C226.47 122.266 227.294 122.468 228.116 122.712" stroke="#313553" stroke-width="0.777" stroke-linecap="round" stroke-linejoin="round"/>
<path d="M249.378 162.696C246.66 161.764 220.578 164.264 212.864 138.156" stroke="#313553" stroke-width="0.777" stroke-linecap="round" stroke-linejoin="round"/>
<path d="M188.752 152.988C188.752 152.988 188.518 156.988 188.504 161.508C188.301 165.366 188.651 169.233 189.544 172.992" stroke="#313553" stroke-width="0.777" stroke-linecap="round" stroke-linejoin="round"/>
<path d="M260.522 157.298C260.522 157.298 260.586 159.248 260.578 161.966C260.554 167.114 260.258 175.004 258.778 177.606" stroke="#313553" stroke-width="0.777" stroke-linecap="round" stroke-linejoin="round"/>
<path d="M186.08 192.368C185.764 192.983 185.579 193.658 185.536 194.348C185.46 195.51 185.778 196.663 186.439 197.621C187.099 198.58 188.063 199.288 189.175 199.632C190.287 199.975 191.482 199.934 192.568 199.515C193.654 199.096 194.567 198.323 195.16 197.321C195.752 196.319 195.99 195.147 195.835 193.993C195.679 192.84 195.14 191.772 194.303 190.963C193.467 190.153 192.382 189.65 191.224 189.533C190.065 189.416 188.902 189.692 187.92 190.318C187.129 190.818 186.492 191.528 186.08 192.368Z" stroke="#313553" stroke-width="0.777" stroke-linecap="round" stroke-linejoin="round"/>
<path d="M249.868 196.306C249.44 197.012 249.19 197.812 249.138 198.636C249.056 199.899 249.438 201.148 250.214 202.148C250.992 203.148 252.108 203.828 253.352 204.06C254.596 204.292 255.882 204.06 256.968 203.408C258.052 202.756 258.86 201.728 259.238 200.522C259.616 199.313 259.54 198.008 259.02 196.854C258.502 195.699 257.578 194.775 256.424 194.256C255.27 193.736 253.964 193.658 252.756 194.036C251.548 194.414 250.52 195.221 249.868 196.306Z" stroke="#313553" stroke-width="0.777" stroke-linecap="round" stroke-linejoin="round"/>
<path d="M165.68 157.2C165.68 157.2 136.054 186.446 137.646 196.4C139.238 206.354 148.004 203.722 145.418 208.902C143.346 213.042 144.076 216.038 145.884 218.088C146.335 218.604 146.846 219.062 147.406 219.456C147.746 219.678 148.153 219.774 148.556 219.728C148.779 219.716 149.001 219.68 149.216 219.618C153.044 218.68 159.8 212.07 159.8 212.07" stroke="#313553" stroke-width="0.777" stroke-linecap="round" stroke-linejoin="round"/>
<path d="M145.884 206.866C145.884 206.866 150.42 204.398 153.084 195.722C155.748 187.046 162.324 180.214 166.946 179.492" stroke="#313553" stroke-width="0.777" stroke-linecap="round" stroke-linejoin="round"/>
<path d="M206.084 100.74C206.084 100.74 192.154 101.74 194.918 106.836C197.604 111.79 205.658 101.298 206.07 100.764" stroke="#313553" stroke-width="0.777" stroke-linecap="round" stroke-linejoin="round"/>
<path d="M206.084 100.74C206.084 100.74 206.084 100.74 206.07 100.764C205.836 101.408 200.626 115.216 195.19 117.094" stroke="#313553" stroke-width="0.777" stroke-linecap="round" stroke-linejoin="round"/>
<path d="M206.2 100.74C206.2 100.74 220.132 101.74 217.366 106.836C214.6 111.932 206.2 100.74 206.2 100.74Z" stroke="#313553" stroke-width="0.777" stroke-linecap="round" stroke-linejoin="round"/>
<path d="M206.2 100.74C206.2 100.74 208.932 112.776 219 114.4" stroke="#313553" stroke-width="0.777" stroke-linecap="round" stroke-linejoin="round"/>
<path d="M219.34 233.348C219.34 233.348 206.854 233.224 206.48 237.774C206.456 238.476 206.634 239.17 206.994 239.774C210.496 246.228 218.994 233.872 219.334 233.36" stroke="#313553" stroke-width="0.777" stroke-linecap="round" stroke-linejoin="round"/>
<path d="M219.34 233.348V233.364C219.168 234.04 213.57 255.564 206.48 258.012" stroke="#313553" stroke-width="0.777" stroke-linecap="round" stroke-linejoin="round"/>
<path d="M219.488 233.348C219.488 233.348 220.576 233.224 222.088 233.162C225.412 233.022 230.802 233.224 231.384 235.842C231.494 236.646 231.316 237.464 230.878 238.148C227.308 244.732 219.488 233.348 219.488 233.348Z" stroke="#313553" stroke-width="0.777" stroke-linecap="round" stroke-linejoin="round"/>
<path d="M219.488 233.348C219.488 233.348 222.114 253.148 229.304 255.652" stroke="#313553" stroke-width="0.777" stroke-linecap="round" stroke-linejoin="round"/>
<path d="M152.772 108.062L152.61 108.11C141.41 111.022 93.1941 132.96 89.4101 183.57C85.8701 230.926 53.8601 226.6 53.8601 226.6C53.8601 226.6 95.8601 244.624 116.134 240.2" stroke="#313553" stroke-width="0.777" stroke-linecap="round" stroke-linejoin="round"/>
<path d="M169.012 249.3C170.17 247.168 171.586 245.184 173.228 243.398C175.774 240.376 178.486 237.58 178.486 237.58C178.486 237.58 185.986 215.852 187.308 213.422C188.63 210.992 194.654 210.47 193.084 216.264C191.514 222.058 187.696 234.296 187.696 234.296L190.592 235.344C190.592 235.344 195.462 228.37 197.178 226.662C197.359 226.486 197.574 226.346 197.811 226.256C198.047 226.166 198.299 226.124 198.552 226.134C200.594 226.158 203.172 228.898 201.254 233.022C202.15 233.398 202.918 234.026 203.462 234.83C204.006 235.634 204.306 236.578 204.322 237.55C204.254 238.326 204.032 239.08 203.67 239.77C203.67 239.77 206.62 242.97 203.934 250.216C200.7 258.176 196.057 265.486 190.228 271.796C188.976 273.138 187.435 274.176 185.722 274.832C185.722 274.832 185.18 276.06 184.216 278.196C182.314 282.42 178.772 290.21 174.642 298.984C169.858 309.15 164.266 320.644 159.482 329.52C157.366 333.608 155.004 337.562 152.408 341.362C142.808 354.562 133.794 355.092 130.19 360.194C126.586 365.296 113.976 364.1 110.97 355.994C107.964 347.888 105.292 317.04 112.64 306.23C117.082 299.684 122.6 284.2 126.6 270.36C128.804 263.12 130.522 255.742 131.742 248.274C133.17 236.788 142.342 221.164 148.554 219.712C148.77 219.654 148.991 219.616 149.214 219.602C149.273 219.598 149.333 219.598 149.392 219.602" stroke="#313553" stroke-width="0.777" stroke-linecap="round" stroke-linejoin="round"/>
<path d="M173.072 243.266L171.186 239.576C171.024 237.818 171.019 236.048 171.17 234.288C171.38 230.638 169.282 225.908 166.736 225.636C166.631 225.62 166.524 225.616 166.418 225.622C163.668 225.722 165.354 231.222 165.354 233.868C165.354 236.514 163.668 238.202 163.77 240.95C163.872 243.698 164.748 252.934 165.322 259.682L161.106 272.068C161.106 272.068 158.598 274.268 154.784 277.83C143.322 288.532 120.024 311.496 117.532 323.57" stroke="#313553" stroke-width="0.777" stroke-linecap="round" stroke-linejoin="round"/>
<path d="M158.31 387.344C158.31 387.344 104.998 389.144 74.51 387.344C28.644 384.64 19.1699 311.58 19.1699 311.58C19.1699 311.58 57.642 331.468 81.918 284.98C90.7284 268.238 102.295 253.1 116.134 240.2C125.079 231.604 135.071 224.17 145.876 218.074" stroke="#313553" stroke-width="0.777" stroke-linecap="round" stroke-linejoin="round"/>
<path d="M159.482 329.52L163.8 359.48L158.302 387.344H285.956C285.956 387.344 271.254 347.846 271.254 338.66C271.096 331.784 270.47 324.926 269.376 318.134" stroke="#313553" stroke-width="0.777" stroke-linecap="round" stroke-linejoin="round"/>
<path d="M259.528 283.538C261.128 286.784 265.974 288.12 269.268 290.854C272.562 293.588 273.584 297.836 267.768 301.29C261.952 304.744 250.102 303.404 246.668 297.906C244.036 293.688 238.422 290.466 235.23 288.462C234.764 288.172 234.394 287.75 234.168 287.248C233.944 286.748 233.872 286.192 233.964 285.65L235.656 280.176C235.656 280.176 239.5 282.498 240.744 281.76C241.988 281.022 242.304 272.938 250.544 270.126C250.932 269.968 251.354 269.906 251.772 269.946C252.192 269.986 252.592 270.128 252.944 270.36C255.444 272.022 255.662 278.142 255.662 278.142L259.536 283.542" stroke="#313553" stroke-width="0.777" stroke-linecap="round" stroke-linejoin="round"/>
<path d="M235.82 209.368C234.48 215.052 233.5 220.816 232.884 226.624C232.536 229.578 232.56 232.566 232.954 235.514C233.014 235.868 233.094 236.218 233.194 236.564C235.098 243.164 236.208 262.71 237.102 272.294C237.218 273.568 235.54 279.4 235.648 280.176" stroke="#313553" stroke-width="0.777" stroke-linecap="round" stroke-linejoin="round"/>
<path d="M258.326 203.752C258.326 203.752 258.784 207.014 259.226 211.604C259.784 217.084 260.026 222.59 259.956 228.098C259.66 238.83 253.93 264.098 253.93 264.098L252.93 270.358" stroke="#313553" stroke-width="0.777" stroke-linecap="round" stroke-linejoin="round"/>
<path d="M338.584 150.65C337.314 150.272 335.962 150.275 334.696 150.659C333.428 151.043 332.302 151.791 331.456 152.81C328.706 156.366 323.13 162.742 323.332 165.118C324.92 167.108 326.724 168.913 328.714 170.5C329.198 170.914 329.76 171.228 330.368 171.424C330.44 171.441 330.512 171.446 330.586 171.44C332.17 171.3 336.27 169.73 335.986 166.298" stroke="#313553" stroke-width="0.777" stroke-linecap="round" stroke-linejoin="round"/>
<path d="M331.712 168.2L329.646 165.856L333.522 162.998C333.522 162.998 338.748 168.582 344.448 169.956" stroke="#313553" stroke-width="0.777" stroke-linecap="round" stroke-linejoin="round"/>
<path d="M319.124 166.624C320.21 168.749 321.812 170.567 323.782 171.914C325.782 172.86 328.582 170.864 328.582 170.864" stroke="#313553" stroke-width="0.777" stroke-linecap="round" stroke-linejoin="round"/>
<path d="M330.81 147.98C328.52 148.616 319.03 160.38 318.238 162.898C318.066 164.2 318.376 165.52 319.108 166.61" stroke="#313553" stroke-width="0.777" stroke-linecap="round" stroke-linejoin="round"/>
<path d="M319.124 166.624L319.108 166.61C319 166.508 318.386 165.926 317.586 165.102C315.908 163.37 313.424 160.568 313.214 158.968C312.896 156.544 329.024 142.768 331.044 142.822C333.064 142.876 342.91 152.094 346.87 153.99C350.83 155.886 363.334 162.314 364.81 167.806C364.81 167.806 380.81 225.668 381.668 235.872C382.526 246.076 380.668 257.71 381.068 262.462C381.468 267.214 357.856 265.498 342.068 267.564C327.668 269.444 313.916 270.5 298.836 264.8C297.932 264.59 297.004 264.508 296.078 264.552C293.43 264.552 289.842 264.792 288.762 264.8C284.27 265.016 279.77 264.798 275.32 264.148" stroke="#313553" stroke-width="0.777" stroke-linecap="round" stroke-linejoin="round"/>
<path d="M317.586 165.102C317.586 165.102 314.736 168.17 316.7 171.02C318.7 173.908 323.782 171.914 323.782 171.914" stroke="#313553" stroke-width="0.777" stroke-linecap="round" stroke-linejoin="round"/>
<path d="M329.072 171.3C329.072 171.3 329.522 171.44 330.314 171.65C333.452 172.488 341.914 174.45 348.726 173.318C348.726 173.318 348.4 198.278 348.572 209.05C348.744 219.822 345.666 231.594 346.638 236.214" stroke="#313553" stroke-width="0.777" stroke-linecap="round" stroke-linejoin="round"/>
<path d="M349.72 242.954L346.568 236.478C346.568 236.478 346.49 236.408 346.35 236.292C340.788 231.722 333.934 229.01 326.75 228.534C320.862 228.208 314.958 228.774 309.238 230.21L303.226 227.81C303.226 227.81 286.072 212.628 266.876 212.116C266.378 212.116 265.876 212.1 265.376 212.116C263.924 212.128 262.474 212.238 261.036 212.442" stroke="#313553" stroke-width="0.777" stroke-linecap="round" stroke-linejoin="round"/>
<path d="M200.252 207.938L200.912 200.352" stroke="#313553" stroke-width="0.777" stroke-linecap="round" stroke-linejoin="round"/>
<path d="M232.884 226.624C229.988 229.796 226.238 232.066 222.084 233.162C221.228 233.326 220.356 233.388 219.484 233.348C219.434 233.352 219.386 233.352 219.336 233.348C214.576 233.068 205.91 223.036 202.112 220.596" stroke="#313553" stroke-width="0.777" stroke-linecap="round" stroke-linejoin="round"/>
<path d="M271.6 239.778C271.6 239.778 266.6 248.258 269.908 254.502C271.592 257.686 273.332 261.002 274.978 264.318C279.724 273.838 283.73 283.352 283.63 289.674C283.412 302.51 269.38 318.134 269.38 318.134" stroke="#313553" stroke-width="0.777" stroke-linecap="round" stroke-linejoin="round"/>
<path d="M188.768 320.022C197.55 319.33 219.41 305.422 219.488 291.39" stroke="#313553" stroke-width="0.777" stroke-linecap="round" stroke-linejoin="round"/>
<path d="M303.226 227.818C303.226 227.818 301.76 254.502 296.082 264.552" stroke="#313553" stroke-width="0.777" stroke-linecap="round" stroke-linejoin="round"/>
<path d="M313.6 245.92C313.6 245.92 325.924 250.612 334.132 250.386" stroke="#313553" stroke-width="0.777" stroke-linecap="round" stroke-linejoin="round"/>
<path d="M262.698 186.652C262.698 186.652 272.646 195.42 275.324 204.156C277.234 210.392 271.822 212 266.876 212.124C266.362 212.14 265.858 212.14 265.376 212.124C263.676 212.096 261.984 211.886 260.328 211.496" stroke="#313553" stroke-width="0.777" stroke-linecap="round" stroke-linejoin="round"/>
<path d="M247.104 285.364C249.448 282.078 252.742 278.802 255.716 279.344" stroke="#313553" stroke-width="0.777" stroke-linecap="round" stroke-linejoin="round"/>
<path d="M250.21 289.246C252.556 285.962 255.848 282.684 258.822 283.228" stroke="#313553" stroke-width="0.777" stroke-linecap="round" stroke-linejoin="round"/>
<path d="M253.316 292.352C255.662 289.068 258.954 285.79 261.928 286.334" stroke="#313553" stroke-width="0.777" stroke-linecap="round" stroke-linejoin="round"/>
<path d="M184.326 278.242C184.995 277.98 185.683 277.766 186.384 277.606C186.787 277.49 187.212 277.472 187.623 277.556C188.034 277.64 188.418 277.822 188.744 278.086C191.058 280.004 190.63 286.116 190.63 286.116L193.916 291.894" stroke="#313553" stroke-width="0.777" stroke-linecap="round" stroke-linejoin="round"/>
<path d="M193.916 291.894C195.158 295.28 199.842 297.128 202.83 300.188C205.818 303.248 206.388 307.588 200.23 310.408C194.072 313.228 182.446 310.656 179.612 304.832C178.454 302.668 176.927 300.724 175.1 299.086" stroke="#313553" stroke-width="0.777" stroke-linecap="round" stroke-linejoin="round"/>
<path d="M190.39 271.968L188.744 278.086V278.094" stroke="#313553" stroke-width="0.777" stroke-linecap="round" stroke-linejoin="round"/>
<path d="M181.366 292.4C184.046 289.378 187.664 286.466 190.566 287.32" stroke="#313553" stroke-width="0.777" stroke-linecap="round" stroke-linejoin="round"/>
<path d="M184.046 296.6C186.732 293.572 190.344 290.668 193.246 291.514" stroke="#313553" stroke-width="0.777" stroke-linecap="round" stroke-linejoin="round"/>
<path d="M186.81 300.01C189.49 296.98 193.108 294.076 196.01 294.924" stroke="#313553" stroke-width="0.777" stroke-linecap="round" stroke-linejoin="round"/>
<path d="M198.552 226.134C199.484 224.296 200.26 222.384 200.874 220.418C202.012 217.454 202.212 214.212 201.448 211.13C201.046 210.076 200.574 209.048 200.036 208.056C198.353 205.028 196.464 202.12 194.382 199.35" stroke="#313553" stroke-width="0.777" stroke-linecap="round" stroke-linejoin="round"/>
<path d="M185.466 192.05C185.466 192.05 172.544 189.05 165.68 198.85C163.395 203.102 161.429 207.516 159.8 212.06L169.562 220.602C169.077 222.25 168.706 223.93 168.452 225.628" stroke="#313553" stroke-width="0.777" stroke-linecap="round" stroke-linejoin="round"/>
<path d="M169.562 220.596L173.072 217.398" stroke="#313553" stroke-width="0.777" stroke-linecap="round" stroke-linejoin="round"/>
<path d="M126.6 270.36C127.09 270.546 146.776 277.994 154.494 277.52" stroke="#313553" stroke-width="0.777" stroke-linecap="round" stroke-linejoin="round"/>
<path d="M358.992 8.13989L338.452 47.2718L328.614 35.7478L307.226 90.4958L295.384 81.3878L279.906 135.034L298.722 99.6918L311.776 110.448L330.81 61.8798L342.134 71.3538L358.992 8.13989Z" stroke="#313553" stroke-width="0.777" stroke-linecap="round" stroke-linejoin="round"/>
<path d="M222.122 185.286C221.41 185.347 220.696 185.172 220.094 184.788" stroke="#313553" stroke-width="0.777" stroke-linecap="round" stroke-linejoin="round"/>
</svg>
