<svg width="400" height="400" viewBox="0 0 400 400" fill="none" xmlns="http://www.w3.org/2000/svg">
<path d="M62.7081 325.624C62.4955 324.589 62.0761 323.607 61.475 322.738C60.8739 321.869 60.1036 321.13 59.2101 320.566C59.1027 320.49 58.9745 320.449 58.8431 320.449C58.7116 320.449 58.5834 320.49 58.4761 320.566H58.4621L51.9421 324.378L51.0121 324.922C50.8441 325.023 50.7222 325.185 50.6725 325.375C50.6228 325.564 50.6492 325.766 50.7461 325.936C52.165 328.38 54.4283 330.222 57.1101 331.114C57.9044 331.397 58.7623 331.452 59.5861 331.271C60.4099 331.091 61.1666 330.683 61.7701 330.094C62.2516 329.467 62.5859 328.74 62.7483 327.966C62.9106 327.192 62.8969 326.392 62.7081 325.624Z" fill="#FF8684"/>
<path d="M372.8 269.772C372.835 269.771 372.87 269.761 372.9 269.742H372.848C372.833 269.753 372.817 269.763 372.8 269.772Z" fill="#6D458F"/>
<path d="M389.284 325.164L383.458 324.732L369.594 323.704L352.708 322.452L338.21 321.378L333.392 321.02C333.064 320.996 332.724 320.954 332.392 320.916C333.907 318.76 335.432 316.613 336.968 314.474C341.024 308.813 345.137 303.19 349.306 297.606C353.802 291.606 358.364 285.638 363.17 279.876C365.078 277.586 367.022 275.322 369.09 273.174C369.87 272.362 370.67 271.574 371.512 270.818C371.826 270.54 372.146 270.268 372.478 270.018L372.63 269.902C372.686 269.862 372.748 269.822 372.804 269.778C372.748 269.782 372.692 269.765 372.648 269.73H372.72C372.764 269.737 372.808 269.741 372.852 269.742C372.976 269.624 372.972 269.7 372.898 269.742C373.136 269.742 373.392 269.724 373.62 269.724H389.288C389.478 269.714 389.657 269.632 389.787 269.494C389.918 269.356 389.991 269.173 389.991 268.983C389.991 268.793 389.918 268.61 389.787 268.472C389.657 268.334 389.478 268.252 389.288 268.242H373.5C373.23 268.242 372.95 268.22 372.68 268.242C372.303 268.314 371.955 268.495 371.68 268.762C370.885 269.376 370.128 270.036 369.412 270.74C367.452 272.634 365.642 274.682 363.868 276.74C359.002 282.414 354.434 288.34 349.93 294.306C345.543 300.113 341.231 305.973 336.994 311.886C335.515 313.938 334.045 315.996 332.584 318.06C331.878 319.06 331.12 320.036 330.462 321.06L330.436 321.096C330.385 321.155 330.344 321.223 330.316 321.296C330.26 321.41 330.243 321.539 330.268 321.664V334.432C330.273 334.627 330.352 334.812 330.49 334.95C330.628 335.087 330.813 335.167 331.008 335.172L336.632 335.7L350.068 336.964L366.384 338.496L380.438 339.816L385.078 340.252C385.812 340.322 386.56 340.442 387.298 340.462H387.394C388.344 340.552 388.338 339.062 387.394 338.98L381.772 338.452L368.334 337.19L352.02 335.656L337.964 334.336L333.326 333.9C332.814 333.852 332.278 333.76 331.75 333.716V322.38L336.836 322.758L350.698 323.786L367.584 325.038L382.082 326.112L386.902 326.47C387.658 326.526 388.428 326.63 389.188 326.638H389.286C390.236 326.716 390.232 325.234 389.284 325.164Z" fill="#6D458F"/>
<path d="M380.066 334.014L367.988 332.932L353.318 331.618L340.68 330.488L336.492 330.112C335.834 330.054 335.162 329.946 334.492 329.934H334.404C333.454 329.848 333.46 331.334 334.404 331.416L339.46 331.868L351.538 332.95L366.208 334.264L378.846 335.396L383.034 335.77C383.692 335.83 384.364 335.936 385.034 335.95C385.063 335.948 385.093 335.948 385.122 335.95C386.072 336.034 386.066 334.55 385.122 334.466L380.066 334.014ZM388.906 329.92L383.706 329.468L371.212 328.382L356.164 327.074L343.148 325.942L338.82 325.566C338.146 325.506 337.458 325.4 336.78 325.388H336.69C335.74 325.306 335.744 326.788 336.69 326.87L341.89 327.322L354.386 328.41L369.434 329.718L382.448 330.85L386.776 331.226C387.45 331.284 388.14 331.392 388.816 331.404C388.847 331.402 388.877 331.402 388.908 331.404C389.856 331.486 389.85 330 388.906 329.92Z" fill="#6D458F"/>
<path d="M269.302 117.346L284.16 117.27L298.64 117.196L308.67 117.144C309.346 117.144 310.022 117.144 310.698 117.134C311.874 117.16 313.014 116.721 313.868 115.912C314.722 115.102 315.221 113.988 315.258 112.812C315.292 110.636 315.236 108.456 315.224 106.28L315.152 92.3021L315.078 77.8501C315.066 75.2621 315.064 72.6761 315.038 70.0881C315.034 69.4947 314.912 68.9081 314.678 68.3626C314.444 67.8172 314.104 67.324 313.677 66.9119C313.25 66.4998 312.745 66.1772 312.191 65.9629C311.638 65.7486 311.047 65.647 310.454 65.6641L305.488 65.8021L293.416 66.1381L278.33 66.5561L264.284 66.9561L255.484 67.2001C254.858 67.1927 254.233 67.2294 253.612 67.3101C252.557 67.5028 251.607 68.0713 250.938 68.9103C250.269 69.7493 249.927 70.8022 249.974 71.8741L250.018 80.4521L250.094 95.1841L250.162 108.49L250.182 112.314C250.12 112.991 250.196 113.674 250.405 114.321C250.614 114.968 250.952 115.565 251.398 116.078C253.116 117.846 255.892 117.424 258.136 117.414L269.302 117.346Z" fill="#CFF0FA"/>
<path d="M254.524 155.258C254.544 153.163 254.027 151.097 253.022 149.258C250.069 149.384 247.253 150.539 245.062 152.522C242.871 154.506 241.442 157.192 241.022 160.118C240.655 162.996 241.274 165.913 242.776 168.394C242.908 168.382 243.04 168.374 243.176 168.36C246.327 167.906 249.209 166.331 251.293 163.925C253.377 161.519 254.524 158.442 254.524 155.258Z" fill="#FE744F"/>
<path d="M241.022 160.118C241.442 157.192 242.871 154.506 245.062 152.522C247.253 150.539 250.069 149.384 253.022 149.258C252.848 148.934 252.658 148.618 252.454 148.312C245.98 138.636 230.114 141.862 228.55 153.512C228.346 155.368 228.529 157.245 229.089 159.026C229.648 160.807 230.572 162.452 231.801 163.857C233.03 165.262 234.538 166.396 236.229 167.187C237.919 167.979 239.756 168.41 241.622 168.454C242.008 168.454 242.392 168.432 242.776 168.4C241.272 165.917 240.654 162.998 241.022 160.118Z" fill="#FFD35C"/>
<path d="M264.926 154.924C263.633 152.999 261.845 151.457 259.75 150.46C257.656 149.463 255.332 149.048 253.022 149.258C254.027 151.097 254.544 153.163 254.524 155.258C254.524 158.442 253.376 161.52 251.291 163.926C249.206 166.333 246.324 167.907 243.172 168.36C243.04 168.374 242.908 168.382 242.772 168.394C244.024 170.642 245.916 172.467 248.207 173.638C250.499 174.809 253.087 175.273 255.642 174.97C258.793 174.518 261.676 172.944 263.761 170.538C265.846 168.131 266.993 165.054 266.992 161.87C267.021 159.399 266.3 156.978 264.926 154.924Z" fill="#FFD35C"/>
<path d="M294.048 84.186L279.414 98.848L269.828 91.56L258.728 106.136H305.4L294.048 84.186Z" fill="#4FB3AA"/>
<path d="M272.014 75.53C271.25 75.53 270.503 75.7566 269.867 76.1812C269.232 76.6058 268.736 77.2093 268.444 77.9153C268.152 78.6214 268.075 79.3983 268.224 80.1479C268.373 80.8974 268.741 81.5859 269.282 82.1263C269.822 82.6667 270.511 83.0347 271.26 83.1838C272.01 83.3329 272.787 83.2564 273.493 82.9639C274.199 82.6714 274.802 82.1762 275.227 81.5408C275.651 80.9053 275.878 80.1583 275.878 79.394C275.877 78.3696 275.469 77.3874 274.745 76.6629C274.021 75.9385 273.038 75.5311 272.014 75.53Z" fill="#F08385"/>
<path d="M218.412 76.612C219.592 79.286 217.46 82.704 218.968 85.212C220.75 88.174 225.968 87.212 227.768 90.158C229.368 92.792 227.076 96.792 229.148 99.078C229.657 99.5527 230.213 99.9755 230.806 100.34C231.719 101.018 232.45 101.911 232.934 102.94C234.682 101.324 236.07 99.3572 237.006 97.1686C237.943 94.9799 238.408 92.6184 238.37 90.238C238.357 89.6358 238.309 89.0349 238.228 88.438C237.706 84.4828 235.876 80.8159 233.029 78.021C230.182 75.226 226.482 73.4635 222.518 73.014C220.003 72.8115 217.476 73.2055 215.142 74.164C215.841 74.2858 216.502 74.571 217.07 74.9964C217.638 75.4218 218.098 75.9753 218.412 76.612Z" fill="#59679C"/>
<path d="M232.942 102.948C232.458 101.919 231.727 101.026 230.814 100.348C230.221 99.9835 229.665 99.5607 229.156 99.086C227.084 96.8 229.386 92.8 227.776 90.166C225.976 87.216 220.75 88.182 218.976 85.22C217.468 82.714 219.6 79.296 218.42 76.62C218.105 75.9873 217.646 75.4375 217.079 75.015C216.512 74.5926 215.854 74.3093 215.158 74.188C212.289 75.3341 209.768 77.2055 207.839 79.6189C205.911 82.0324 204.643 84.9051 204.158 87.956C204.158 87.998 204.158 88.038 204.146 88.08C204.888 88.6679 205.755 89.0773 206.68 89.2763C207.605 89.4754 208.564 89.4589 209.482 89.228C210.292 88.9066 211.158 88.7495 212.03 88.766C213.664 89.02 214.41 90.87 215.202 92.322C215.335 92.6082 215.536 92.8575 215.788 93.048C216.193 93.2495 216.651 93.3194 217.098 93.248C219.446 93.12 222.368 93.648 223.07 95.88C223.268 96.788 223.268 97.728 223.07 98.636C222.691 101.525 222.745 104.455 223.232 107.328C223.232 107.374 223.25 107.42 223.258 107.468L223.36 107.458C226.954 107.019 230.313 105.438 232.942 102.948Z" fill="#4FB3AA"/>
<path d="M223.05 98.6241C223.248 97.7161 223.248 96.776 223.05 95.868C222.348 93.626 219.426 93.1081 217.078 93.2361C216.631 93.3075 216.173 93.2376 215.768 93.0361C215.516 92.8456 215.315 92.5963 215.182 92.3101C214.382 90.8581 213.644 89.0081 212.01 88.7541C211.139 88.7376 210.272 88.8946 209.462 89.2161C208.544 89.4469 207.586 89.4635 206.66 89.2644C205.735 89.0653 204.868 88.656 204.126 88.0681C203.796 90.668 204.061 93.3089 204.9 95.7917C205.739 98.2745 207.131 100.534 208.971 102.401C210.811 104.267 213.05 105.692 215.52 106.567C217.991 107.442 220.628 107.745 223.232 107.452C223.232 107.404 223.212 107.358 223.206 107.312C222.722 104.44 222.669 101.512 223.05 98.6241Z" fill="#59679C"/>
<path d="M282.158 332.4C280.42 328.574 278.81 324.686 277.178 320.814C275.363 316.514 273.559 312.209 271.766 307.9L270.626 305.162C270.578 305.009 270.483 304.874 270.356 304.776C270.228 304.679 270.073 304.624 269.912 304.618C264.41 304.444 258.912 304.398 253.396 304.362C246.224 304.314 239.053 304.301 231.882 304.324C224.657 304.339 217.431 304.369 210.204 304.414C204.471 304.45 198.743 304.493 193.02 304.542C190.368 304.564 187.698 304.498 185.048 304.616H184.934C184.773 304.62 184.617 304.675 184.489 304.772C184.361 304.87 184.267 305.006 184.22 305.16L182.276 310.496C175.412 310.408 168.545 310.341 161.676 310.296C155.665 310.26 149.656 310.24 143.648 310.236C141.012 310.236 138.35 310.136 135.716 310.236H135.61C135.481 310.236 135.353 310.269 135.241 310.333C135.129 310.398 135.035 310.49 134.97 310.602C132.57 315.084 130.558 319.802 128.49 324.45C126.207 329.571 123.96 334.709 121.748 339.862C121.276 340.955 120.809 342.051 120.348 343.148C119.976 344.014 121.254 344.77 121.628 343.896C122.933 340.829 124.253 337.774 125.586 334.73C128.022 329.13 130.474 323.55 133.03 318.012C134.006 315.898 134.982 313.776 136.07 311.718C138.081 311.71 140.092 311.71 142.104 311.718C147.749 311.718 153.395 311.733 159.042 311.762C166.967 311.803 174.893 311.874 182.818 311.974C191.846 312.09 200.875 312.255 209.904 312.468C218.764 312.684 227.626 312.958 236.48 313.352L239.016 313.468C241.568 321.046 243.867 328.707 245.91 336.438C246.755 339.603 247.512 342.791 248.18 345.998C248.37 346.932 249.8 346.538 249.61 345.598C247.354 335.28 244.518 325.098 241.116 315.1C240.841 314.248 240.561 313.398 240.274 312.55C240.227 312.396 240.133 312.26 240.005 312.162C239.877 312.065 239.721 312.01 239.56 312.006C230.774 311.586 221.982 311.294 213.19 311.064C204.146 310.827 195.101 310.649 186.054 310.53L183.854 310.504L185.466 306.082L191.466 306.026C196.925 305.975 202.383 305.933 207.842 305.9C214.971 305.855 222.101 305.821 229.232 305.8C236.472 305.783 243.713 305.789 250.956 305.818C256.734 305.848 262.514 305.89 268.292 306.04L269.432 306.074C270.44 308.497 271.45 310.917 272.462 313.336C274.438 318.06 276.429 322.779 278.434 327.494C279.234 329.38 280.034 331.268 280.892 333.136C281.272 334.01 282.548 333.258 282.158 332.4Z" fill="#4FB3AA"/>
<path d="M167.2 328.286C169.979 328.982 172.843 329.281 175.706 329.176C181.666 329.076 187.644 328.786 193.6 328.506C196.484 328.423 199.355 328.092 202.182 327.516C204.928 326.904 207.482 325.706 210.198 324.996C216.398 323.376 222.524 326.286 228.732 326.37C228.922 326.36 229.101 326.278 229.232 326.14C229.363 326.002 229.435 325.819 229.435 325.629C229.435 325.439 229.363 325.256 229.232 325.118C229.101 324.98 228.922 324.898 228.732 324.888C223.462 324.816 218.39 322.718 213.096 323.038C210.532 323.321 208.021 323.964 205.636 324.948C203.073 325.856 200.411 326.456 197.706 326.734C194.992 327.014 192.262 327.082 189.538 327.186L180.976 327.514C178.204 327.62 175.42 327.798 172.646 327.654C170.007 327.429 167.403 326.899 164.886 326.074C163.507 325.649 162.091 325.356 160.656 325.2C159.206 325.109 157.75 325.227 156.334 325.55C154.905 325.908 153.451 326.153 151.984 326.284C151.415 326.393 150.826 326.311 150.308 326.052C150.181 325.949 150.072 325.826 149.986 325.688C150.674 325.378 150.272 324.168 149.406 324.316C149.198 324.361 149.005 324.457 148.843 324.595C148.681 324.733 148.557 324.909 148.48 325.108C148.403 325.306 148.377 325.52 148.404 325.731C148.431 325.942 148.51 326.143 148.634 326.316C148.854 326.724 149.175 327.07 149.566 327.319C149.957 327.568 150.405 327.713 150.868 327.74C153.668 327.978 156.326 326.774 159.098 326.642C161.868 326.766 164.601 327.32 167.2 328.286ZM230.154 334.048C220.018 333.572 209.876 332.944 199.732 332.712C194.687 332.56 189.638 332.676 184.606 333.06C179.628 333.476 174.692 334.26 169.756 335.002C164.218 335.936 158.63 336.537 153.02 336.802C152.068 336.83 152.064 338.314 153.02 338.284C163.004 337.986 172.776 335.732 182.69 334.728C192.794 333.98 202.94 333.98 213.044 334.728L230.154 335.528C231.108 335.576 231.106 334.094 230.154 334.048ZM251.728 318.8C254.663 317.571 257.845 317.049 261.018 317.274C261.97 317.342 261.966 315.86 261.018 315.792C257.711 315.558 254.395 316.098 251.334 317.37C251.148 317.428 250.991 317.554 250.894 317.723C250.798 317.893 250.77 318.093 250.816 318.282C250.869 318.471 250.994 318.632 251.165 318.729C251.336 318.826 251.538 318.852 251.728 318.8ZM270.062 323.372L251.922 324.71C250.976 324.78 250.968 326.264 251.922 326.194L270.062 324.854C271 324.784 271.016 323.302 270.062 323.372ZM263.522 333.71H256.962C256.772 333.72 256.593 333.802 256.462 333.94C256.331 334.078 256.259 334.261 256.259 334.451C256.259 334.641 256.331 334.824 256.462 334.962C256.593 335.1 256.772 335.182 256.962 335.192H263.522C263.712 335.182 263.891 335.1 264.022 334.962C264.153 334.824 264.225 334.641 264.225 334.451C264.225 334.261 264.153 334.078 264.022 333.94C263.891 333.802 263.712 333.72 263.522 333.71Z" fill="#4FB3AA"/>
<path d="M155.824 177.382L153.94 172.536L153.044 170.236L152.408 170.636L151.772 171.036L148.816 172.884C148.718 172.94 148.608 172.973 148.495 172.98C148.382 172.987 148.269 172.969 148.164 172.926C148.06 172.883 147.966 172.817 147.89 172.733C147.815 172.649 147.759 172.549 147.728 172.44C147.702 172.356 147.682 172.272 147.66 172.188L147.63 172.074C147.564 171.838 147.502 171.6 147.44 171.362L147.354 171.044C147.174 171.284 146.994 171.526 146.808 171.762C144.938 174.141 142.801 176.298 140.438 178.188C140.452 178.258 140.476 178.325 140.51 178.388L141.98 180.948C142.52 181.884 142.996 182.922 143.622 183.802C144.006 184.344 144.966 184.548 145.546 184.802L149.468 186.48L152.162 187.63C152.261 187.684 152.37 187.715 152.482 187.722C152.594 187.728 152.707 187.709 152.811 187.667C152.915 187.625 153.008 187.56 153.084 187.477C153.16 187.394 153.217 187.295 153.25 187.188L156.344 179.636C156.642 178.896 156.088 178.06 155.824 177.382ZM145.066 153.282C145.082 153.146 145.1 153.01 145.12 152.882L145.186 152.494L137.484 138.732C137.955 137.963 138.284 137.115 138.456 136.23C138.691 135.28 138.872 134.317 138.996 133.346C138.517 133.167 138.046 132.971 137.582 132.756C135.929 131.99 134.307 131.158 132.72 130.262L132.334 130.042L131.708 131.022L129.324 134.74L128.902 135.4L128.48 136.06L128.88 136.58L130.028 138.09C130.258 138.404 130.58 138.638 130.95 138.758C131.608 138.996 132.324 139.246 133.058 139.436L135.4 157.504L135.64 157.438L135.882 157.374C138.851 156.593 141.87 156.013 144.918 155.64C144.922 154.852 144.972 154.065 145.066 153.282Z" fill="#6E458F"/>
<path d="M166.736 168.882C166.709 168.755 166.646 168.64 166.553 168.549C166.461 168.459 166.343 168.398 166.216 168.374L165.616 168.464C165.49 168.554 165.393 168.679 165.337 168.823C165.28 168.967 165.267 169.124 165.298 169.276C166.147 175.593 166.962 181.916 167.742 188.244C167.856 189.178 169.342 189.19 169.224 188.244C168.435 181.784 167.605 175.33 166.736 168.882ZM153.388 125.556C153.398 125.746 153.48 125.925 153.618 126.056C153.756 126.187 153.939 126.26 154.129 126.26C154.319 126.26 154.502 126.187 154.64 126.056C154.778 125.925 154.86 125.746 154.87 125.556C154.526 109.808 154.427 94.0574 154.574 78.304C154.614 73.8734 154.675 69.4434 154.756 65.014C154.746 64.8242 154.664 64.6453 154.526 64.5144C154.388 64.3835 154.205 64.3105 154.015 64.3105C153.825 64.3105 153.642 64.3835 153.504 64.5144C153.366 64.6453 153.284 64.8242 153.274 65.014C152.99 80.7647 152.951 96.516 153.156 112.268C153.215 116.697 153.292 121.127 153.388 125.556Z" fill="#4EB3AA"/>
<path d="M191.714 110.2L191.582 110.108L190.608 109.428L178.424 100.92L177.636 100.372L176.684 99.7061L176.522 99.5941C176.4 99.4974 176.246 99.4506 176.091 99.4633C175.937 99.4759 175.792 99.547 175.688 99.6621C175.564 99.7415 175.471 99.8611 175.424 100.001C175.378 100.141 175.38 100.292 175.432 100.43C175.574 100.882 175.744 101.326 175.924 101.764C172.407 105.936 169.199 110.357 166.324 114.994C163.072 120.018 159.971 125.137 157.022 130.35C155.445 133.139 153.911 135.955 152.422 138.796C149.881 133.516 145.964 129.017 141.084 125.774C141.033 125.74 140.979 125.713 140.922 125.692C140.567 124.752 139.918 123.952 139.072 123.41C137.827 122.632 136.402 122.188 134.936 122.12V122.164C135.19 123.612 135.16 125.096 134.846 126.532C134.587 127.39 134.025 128.124 133.264 128.598C133.004 128.769 132.732 128.922 132.45 129.056C132.023 129.253 131.586 129.427 131.142 129.58C128.578 130.375 125.907 130.774 123.222 130.762C122.23 130.917 121.215 130.817 120.272 130.474C119.318 129.894 119.026 128.438 118.816 127.438C118.802 127.372 118.794 127.304 118.78 127.238C116.699 128.596 115.188 130.668 114.53 133.064C114.467 133.306 114.453 133.559 114.491 133.806C114.528 134.054 114.616 134.291 114.748 134.504C113.191 135.861 111.825 137.422 110.686 139.144C108.88 142.035 107.519 145.181 106.648 148.476C104.776 155.021 104.36 161.897 105.428 168.62C106.238 173.738 107.828 179.982 112.402 182.98V187.746C112.397 187.847 112.412 187.947 112.447 188.042C112.482 188.136 112.535 188.222 112.605 188.295C112.674 188.368 112.758 188.427 112.85 188.466C112.943 188.506 113.042 188.527 113.143 188.527C113.244 188.527 113.343 188.506 113.436 188.466C113.528 188.427 113.612 188.368 113.681 188.295C113.75 188.222 113.804 188.136 113.839 188.042C113.874 187.947 113.889 187.847 113.884 187.746V183.8H113.896C116.815 184.887 119.949 185.27 123.044 184.918C126.589 184.835 130.084 184.061 133.332 182.638C135.859 181.429 138.237 179.932 140.42 178.176C142.786 176.289 144.927 174.135 146.8 171.758C146.986 171.522 147.166 171.28 147.346 171.04L147.432 171.358C147.494 171.596 147.556 171.834 147.622 172.07L147.652 172.184C147.674 172.268 147.694 172.352 147.72 172.436C147.751 172.545 147.807 172.645 147.882 172.729C147.958 172.813 148.051 172.879 148.156 172.922C148.261 172.965 148.374 172.983 148.487 172.976C148.6 172.969 148.71 172.936 148.808 172.88L151.764 171.032L152.4 170.632L153.036 170.232L154.416 169.37C154.581 169.267 154.701 169.104 154.75 168.916C154.8 168.727 154.775 168.527 154.682 168.356L147.648 153.756L146.648 151.666C146.593 151.524 146.485 151.409 146.348 151.343C146.21 151.277 146.053 151.266 145.908 151.312C145.759 151.313 145.616 151.367 145.503 151.464C145.39 151.561 145.316 151.695 145.294 151.842C145.248 152.056 145.22 152.27 145.184 152.484C145.162 152.614 145.136 152.742 145.118 152.872L145.064 153.272C144.971 154.055 144.924 154.842 144.922 155.63C141.874 156.003 138.855 156.583 135.886 157.364L135.644 157.428L135.404 157.494C131.523 158.532 127.809 160.117 124.374 162.2C124.15 162.338 123.934 162.488 123.714 162.632C122.411 156.527 120.565 150.55 118.2 144.772C117.844 143.902 116.4 144.282 116.772 145.172C119.201 151.114 121.08 157.267 122.386 163.552C121.264 164.358 120.196 165.235 119.186 166.178C118.488 166.832 119.538 167.878 120.234 167.226C121.021 166.49 121.848 165.797 122.712 165.152C122.888 166.063 123.052 166.975 123.204 167.888C123.358 168.826 124.786 168.428 124.632 167.488C124.452 166.39 124.248 165.288 124.032 164.204C128.96 161.044 134.466 158.895 140.232 157.882C141.8 157.574 143.378 157.318 144.964 157.116C145.042 158.688 145.238 160.258 145.458 161.786C145.814 164.264 146.308 166.724 146.89 169.16C143.796 173.555 139.804 177.243 135.178 179.98C132.304 181.738 129.081 182.847 125.734 183.228C122.693 183.696 119.597 183.661 116.568 183.124C115.223 182.829 113.954 182.259 112.84 181.45C111.727 180.64 110.793 179.608 110.098 178.42C108.681 175.863 107.712 173.083 107.232 170.2C105.962 163.934 106.048 157.47 107.484 151.24C108.243 147.681 109.518 144.252 111.27 141.062C112.462 138.988 113.993 137.128 115.8 135.56C118.27 137.282 123.558 138.052 125.856 138.316C126.184 138.354 126.517 138.299 126.815 138.158C127.114 138.016 127.367 137.794 127.546 137.516L128.474 136.062L128.896 135.402L129.318 134.742L131.702 131.014L132.328 130.034L132.714 130.254C133.56 130.728 135.654 131.882 137.576 132.748C137.814 132.856 138.05 132.948 138.28 133.056C138.51 133.164 138.76 133.256 138.99 133.338C140.088 133.752 140.974 133.956 141.284 133.698C141.894 133.196 142.114 130.508 141.612 127.96C146.021 131.242 149.488 135.628 151.662 140.676C151.97 141.388 152.874 141.02 152.996 140.388C153.094 140.367 153.186 140.324 153.265 140.261C153.344 140.199 153.407 140.119 153.45 140.028C158.868 129.536 164.947 119.399 171.65 109.678C173.189 107.448 174.842 105.298 176.6 103.236C177.698 105.261 178.976 107.182 180.418 108.978C182.267 111.363 184.239 113.649 186.326 115.828C185.648 117.848 185.02 119.886 184.272 121.882C183.387 124.224 182.406 126.529 181.332 128.79C179.196 133.308 176.75 137.67 174.202 141.966C172.772 144.378 171.308 146.766 169.842 149.166C169.344 149.982 170.624 150.728 171.122 149.914C176.624 141.493 181.367 132.6 185.296 123.34C186.108 121.26 186.782 119.14 187.484 117.022L187.638 117.178C187.719 117.257 187.816 117.317 187.923 117.352C188.03 117.388 188.144 117.399 188.256 117.385C188.368 117.37 188.475 117.331 188.57 117.269C188.664 117.207 188.744 117.125 188.802 117.028L191.97 111.228C192.069 111.057 192.098 110.854 192.051 110.662C192.003 110.47 191.882 110.304 191.714 110.2Z" fill="#4EB3AA"/>
<path d="M151.618 152.016C152.002 152.058 152.384 152.088 152.768 152.096C153.909 152.117 155.049 152.015 156.168 151.79C157.287 151.564 158.388 151.258 159.464 150.876C160.4 150.432 161.4 150.136 162.428 150C162.894 149.98 163.354 150.109 163.742 150.368C164.13 150.627 164.425 151.002 164.586 151.44C164.724 151.886 164.762 152.357 164.695 152.819C164.629 153.282 164.46 153.723 164.202 154.112C163.838 154.726 163.397 155.291 162.89 155.792L163.512 155.664C164.097 155.472 164.733 155.507 165.294 155.76C165.522 155.901 165.719 156.088 165.873 156.309C166.026 156.529 166.133 156.779 166.186 157.042C166.273 157.706 166.161 158.381 165.863 158.981C165.564 159.58 165.094 160.077 164.512 160.408C164.799 160.423 165.079 160.506 165.327 160.651C165.576 160.796 165.786 160.999 165.94 161.242C166.782 162.692 164.628 163.982 163.63 164.642C161.185 166.242 158.303 167.041 155.384 166.928L156.184 169.904L165.636 168.468L166.236 168.378L169.062 167.948L168.492 140.3C162.962 142.932 151.618 144.608 151.618 144.608V152.016ZM341 283.628L322.746 208.116C322.676 208.163 322.598 208.196 322.516 208.216C322.459 208.231 322.401 208.239 322.342 208.238H322.266C320.918 208.206 319.569 208.177 318.218 208.15C311.06 208.01 303.9 207.932 296.74 207.87C287.624 207.79 278.507 207.737 269.388 207.712C258.952 207.676 248.516 207.657 238.08 207.656C226.964 207.656 215.847 207.663 204.73 207.678C193.571 207.695 182.413 207.722 171.256 207.758C160.695 207.79 150.133 207.828 139.57 207.872C130.243 207.912 120.917 207.955 111.592 208L89.2339 208.118L74.3999 208.2L69.0599 208.234H69.0339C68.958 208.234 68.8825 208.222 68.8099 208.2C68.7289 208.178 68.6528 208.141 68.5859 208.09L44.3279 284.87L44.3159 294.02H44.5619C46.4399 294.032 170.742 294.8 257.848 294.8C301.78 294.8 336.248 294.6 340.776 294.018L340.964 293.994L340.988 293.806C341.038 293.498 342 286.148 341 283.628Z" fill="#FF8684"/>
<path d="M150.474 150.154C150.32 148.169 150.272 146.177 150.328 144.186C150.328 143.948 150.342 143.708 150.352 143.47C150.352 143.372 150.352 143.27 150.366 143.178C150.706 143.116 151.38 142.922 151.5 142.896C152.492 142.68 153.481 142.457 154.468 142.228C158.383 141.325 162.275 140.339 166.144 139.268C166.334 139.215 166.495 139.089 166.591 138.917C166.688 138.746 166.712 138.543 166.659 138.353C166.606 138.163 166.48 138.003 166.308 137.906C166.137 137.81 165.934 137.785 165.744 137.838C161.521 139.006 157.273 140.073 153 141.038C151.978 141.27 150.92 141.438 149.912 141.718C148.904 141.998 148.89 142.788 148.856 143.702C148.776 145.851 148.82 148.004 148.986 150.148C149.064 151.1 150.546 151.108 150.474 150.154ZM185.18 72.3321C184.496 71.6681 183.448 72.7141 184.132 73.3801L190.082 79.1661C190.766 79.8321 191.816 78.7841 191.13 78.1181L185.18 72.3321ZM198.066 66.5281C197.962 66.3676 197.801 66.2532 197.615 66.2088C197.429 66.1645 197.233 66.1935 197.068 66.2899C196.903 66.3863 196.782 66.5427 196.729 66.7264C196.677 66.9101 196.697 67.107 196.786 67.2761C197.835 68.9298 199.017 70.495 200.32 71.9561C200.46 72.0939 200.648 72.1711 200.844 72.1711C201.04 72.1711 201.228 72.0939 201.368 71.9561C201.503 71.815 201.578 71.6273 201.578 71.4321C201.578 71.2369 201.503 71.0492 201.368 70.9081C200.147 69.5433 199.042 68.0781 198.066 66.5281ZM218.16 62.4241C217.971 62.374 217.769 62.4 217.599 62.4964C217.429 62.5928 217.303 62.7521 217.248 62.9401L216.448 67.8541C216.401 68.0435 216.428 68.244 216.525 68.4138C216.621 68.5836 216.779 68.7097 216.966 68.7661C217.156 68.8161 217.357 68.7898 217.528 68.693C217.698 68.5962 217.824 68.4365 217.878 68.2481L218.678 63.3341C218.725 63.1449 218.698 62.9448 218.601 62.7753C218.505 62.6058 218.347 62.48 218.16 62.4241Z" fill="#FF8684"/>
<path d="M228.58 258.92C228.156 257.39 227.637 255.888 227.026 254.422C226.72 253.72 226.272 252.562 225.398 252.474C224.264 252.36 223.066 252.456 221.928 252.446C215.528 252.395 209.131 252.353 202.738 252.32C194.593 252.276 186.447 252.253 178.3 252.252C172.844 252.252 167.366 252.18 161.914 252.426C161.64 252.44 161.368 252.454 161.094 252.474C160.966 252.481 160.841 252.522 160.734 252.592C160.626 252.662 160.539 252.76 160.48 252.874C160.411 252.975 160.368 253.092 160.354 253.214L159.334 261.288L157.698 274.226L157.326 277.18C157.274 277.58 157.706 277.918 158.066 277.922C160.223 277.947 162.381 277.971 164.54 277.992C169.835 278.045 175.128 278.093 180.42 278.134C187.059 278.183 193.696 278.22 200.332 278.244C206.572 278.264 212.814 278.27 219.056 278.226C223.146 278.196 227.256 278.2 231.336 277.974C231.608 277.96 231.882 277.942 232.156 277.922C232.269 277.919 232.38 277.891 232.481 277.84C232.582 277.789 232.67 277.715 232.739 277.625C232.807 277.535 232.855 277.43 232.878 277.319C232.9 277.208 232.898 277.094 232.87 276.984C231.652 270.926 230.322 264.852 228.58 258.92Z" fill="#F9D0D2"/>
<path d="M305.784 238.572L309.184 238.62C309.374 238.61 309.553 238.528 309.684 238.39C309.814 238.252 309.887 238.069 309.887 237.879C309.887 237.689 309.814 237.506 309.684 237.368C309.553 237.23 309.374 237.148 309.184 237.138C303.632 237.054 298.079 236.992 292.524 236.952C284.924 236.887 277.324 236.833 269.724 236.792C264.575 236.76 259.425 236.734 254.276 236.714C254.4 235.058 254.56 233.406 254.706 231.762C254.79 230.812 253.306 230.818 253.224 231.762C253.078 233.402 252.918 235.054 252.794 236.706L242.394 236.654C232.414 236.61 222.433 236.571 212.452 236.536C202.256 236.503 192.056 236.471 181.852 236.442C171.957 236.414 162.063 236.389 152.17 236.366L139.254 236.338C139.71 234.205 140.172 232.071 140.64 229.938L141.134 227.698L147.086 227.712C156.454 227.732 165.823 227.755 175.192 227.782L204.85 227.872C214.583 227.905 224.317 227.943 234.05 227.984C243.13 228.023 252.211 228.067 261.292 228.116C269.084 228.16 276.877 228.212 284.67 228.272C290.566 228.32 296.461 228.38 302.356 228.452C303.455 228.465 304.552 228.481 305.648 228.5C305.845 228.5 306.033 228.422 306.173 228.283C306.312 228.144 306.39 227.955 306.39 227.758C306.39 227.561 306.312 227.372 306.173 227.233C306.033 227.094 305.845 227.016 305.648 227.016C300.272 226.932 294.896 226.87 289.52 226.83C282.16 226.763 274.799 226.71 267.438 226.67C258.618 226.615 249.798 226.569 240.978 226.532C231.315 226.488 221.653 226.449 211.992 226.416C202.125 226.38 192.253 226.348 182.376 226.32C172.797 226.292 163.219 226.267 153.642 226.244L127.784 226.188L117.112 226.168L117.254 225.75C117.554 224.879 117.856 224.013 118.16 223.15C118.476 222.246 117.044 221.86 116.73 222.75C116.33 223.886 115.946 225.026 115.552 226.164L106.352 226.146L91.224 226.122C88.882 226.122 86.53 226.058 84.186 226.122H83.882C83.6921 226.132 83.5133 226.214 83.3824 226.352C83.2515 226.49 83.1785 226.673 83.1785 226.863C83.1785 227.053 83.2515 227.236 83.3824 227.374C83.5133 227.512 83.6921 227.594 83.882 227.604H88.724L101.998 227.626C106.347 227.626 110.697 227.634 115.046 227.65C114.774 228.45 114.496 229.236 114.226 230.03C113.514 232.114 112.809 234.201 112.11 236.292L103.31 236.276L87.684 236.252C85.264 236.252 82.834 236.186 80.414 236.252H80.1C79.9101 236.262 79.7313 236.344 79.6004 236.482C79.4695 236.62 79.3965 236.803 79.3965 236.993C79.3965 237.183 79.4695 237.366 79.6004 237.504C79.7313 237.642 79.9101 237.724 80.1 237.734H85.1L98.812 237.756L111.612 237.778C110.928 239.845 110.255 241.915 109.594 243.99L109.262 245.048L99.898 245.002L89.12 244.958L81.544 244.93C80.358 244.93 79.17 244.888 77.986 244.918H77.84C77.6501 244.928 77.4713 245.01 77.3404 245.148C77.2095 245.286 77.1365 245.469 77.1365 245.659C77.1365 245.849 77.2095 246.032 77.3404 246.17C77.4713 246.308 77.6501 246.39 77.84 246.4H80.278L86.952 246.424L97.04 246.464C100.964 246.48 104.887 246.499 108.808 246.52C108.408 247.84 108.008 249.166 107.652 250.5C107.599 250.69 107.623 250.893 107.72 251.064C107.817 251.236 107.977 251.362 108.167 251.415C108.357 251.468 108.56 251.444 108.731 251.347C108.903 251.25 109.029 251.09 109.082 250.9C109.482 249.436 109.904 247.984 110.348 246.534C114.817 246.555 119.289 246.58 123.762 246.608C127.713 246.632 131.663 246.659 135.612 246.688C135.504 247.238 135.392 247.786 135.286 248.336C134.856 250.497 134.476 252.668 134.146 254.846C134.01 255.78 135.438 256.182 135.574 255.246C135.99 252.386 136.532 249.542 137.104 246.704L138.68 246.716C143.576 246.752 148.471 246.793 153.364 246.838C157.932 246.882 162.499 246.931 167.064 246.986C170.968 247.037 174.871 247.095 178.772 247.16C181.75 247.212 184.728 247.272 187.706 247.36C188.254 247.376 188.802 247.394 189.35 247.414C190.304 247.448 190.302 245.966 189.35 245.932C186.646 245.836 183.95 245.778 181.236 245.732C177.536 245.657 173.835 245.597 170.134 245.552C165.698 245.492 161.261 245.441 156.824 245.398C151.988 245.35 147.151 245.307 142.314 245.27L137.402 245.234L137.952 242.548C138.276 240.98 138.605 239.412 138.94 237.844L145.384 237.856C155.063 237.879 164.741 237.903 174.418 237.928C184.63 237.956 194.842 237.986 205.054 238.018C209.905 238.034 214.753 238.052 219.6 238.072C219.316 241.222 219 244.402 219 247.564C219.01 247.754 219.092 247.933 219.23 248.064C219.368 248.195 219.551 248.268 219.741 248.268C219.931 248.268 220.114 248.195 220.252 248.064C220.39 247.933 220.472 247.754 220.482 247.564C220.482 244.404 220.79 241.226 221.082 238.076L235.226 238.128C241.045 238.152 246.864 238.18 252.684 238.212C252.61 239.442 252.564 240.672 252.566 241.898C252.576 242.088 252.658 242.267 252.796 242.398C252.934 242.529 253.117 242.602 253.307 242.602C253.497 242.602 253.68 242.529 253.818 242.398C253.956 242.267 254.038 242.088 254.048 241.898C254.048 240.674 254.092 239.446 254.166 238.218L263.366 238.262C271.417 238.306 279.466 238.358 287.514 238.418C293.605 238.449 299.695 238.5 305.784 238.572ZM135.904 245.2L127.354 245.138C122.538 245.109 117.721 245.081 112.902 245.054H110.804C111.524 242.768 112.28 240.492 113.032 238.22L113.18 237.778L119.532 237.79C125.492 237.799 131.452 237.811 137.412 237.826C136.895 240.278 136.392 242.736 135.904 245.2ZM137.73 236.336L125.454 236.308L113.676 236.288C114.64 233.401 115.617 230.52 116.608 227.644H122.054L139.614 227.682C138.974 230.561 138.346 233.445 137.73 236.336Z" fill="#F9D0D2"/>
<path d="M238.156 245.304C234.79 245.292 231.382 245.226 228.026 245.518C227.082 245.6 227.074 247.084 228.026 247C231.382 246.708 234.79 246.776 238.156 246.786C238.346 246.776 238.525 246.694 238.656 246.556C238.786 246.418 238.859 246.235 238.859 246.045C238.859 245.855 238.786 245.672 238.656 245.534C238.525 245.396 238.346 245.314 238.156 245.304ZM261.882 245.304C257.595 245.239 253.308 245.253 249.022 245.346C247.74 245.378 246.456 245.416 245.178 245.518C244.234 245.594 244.226 247.078 245.178 247C250.194 246.6 255.284 246.732 260.312 246.772L261.882 246.786C262.072 246.776 262.251 246.694 262.382 246.556C262.512 246.418 262.585 246.235 262.585 246.045C262.585 245.855 262.512 245.672 262.382 245.534C262.251 245.396 262.072 245.314 261.882 245.304ZM312.464 245.274C308.602 245.199 304.739 245.145 300.876 245.11C293.476 245.036 286.076 245.004 278.69 245.134C275.34 245.192 271.984 245.266 268.642 245.518C267.696 245.59 267.688 247.072 268.642 247C275.242 246.502 281.89 246.542 288.5 246.534C295.11 246.526 301.746 246.586 308.368 246.686C309.733 246.706 311.099 246.729 312.464 246.756C312.654 246.746 312.833 246.664 312.964 246.526C313.094 246.388 313.167 246.205 313.167 246.015C313.167 245.825 313.094 245.642 312.964 245.504C312.833 245.366 312.654 245.284 312.464 245.274Z" fill="#F9D0D2"/>
<path d="M55.3999 316.268L50.5599 311.002L39.6619 299.142L28.1659 286.63L21.3999 279.258C20.6534 278.64 19.7843 278.187 18.8499 277.93L14.3999 276.06L14.7199 276.26L14.0919 276.73L13.4119 277.242L12.5419 277.894L11.9139 278.364L11.3559 278.782C11.3559 278.782 11.2459 278.558 11.0879 278.212L12.1459 281.542L13.1639 284.742C13.2373 285.041 13.3736 285.32 13.5639 285.562C15.4319 287.684 17.3879 289.732 19.2979 291.816L30.3119 303.83L41.2719 315.788C43.1679 317.854 44.9919 320.032 46.9799 322.012L47.0619 322.102C47.1452 322.196 47.2524 322.265 47.3719 322.302L47.4339 322.32H47.4659C47.5514 322.336 47.6392 322.334 47.724 322.315C47.8089 322.296 47.8891 322.26 47.9599 322.21L55.2459 317.41C55.3384 317.351 55.417 317.273 55.4761 317.18C55.5352 317.088 55.5735 316.984 55.5881 316.875C55.6028 316.766 55.5935 316.655 55.561 316.551C55.5285 316.446 55.4735 316.349 55.3999 316.268Z" fill="#FFD35E"/>
<path d="M122.466 89.5681H122.41C122.186 89.6001 121.936 89.6361 121.674 89.6781C121.412 89.7201 121.162 89.76 120.874 89.812C115.114 90.86 103.728 94.5841 107.936 110.424C107.936 110.424 103.396 109.162 102.89 112.024C102.384 114.886 104.32 118.92 110.964 116.732C112.372 118.062 113.946 119.204 115.646 120.132C115.882 120.256 116.122 120.376 116.366 120.49C116.61 120.604 116.88 120.722 117.142 120.824C117.472 120.952 117.804 121.066 118.142 121.162C118.194 123.203 118.414 125.236 118.8 127.24C118.814 127.306 118.822 127.374 118.836 127.44C119.036 128.44 119.338 129.896 120.292 130.476C121.235 130.819 122.25 130.919 123.242 130.764C125.927 130.776 128.598 130.377 131.162 129.582C131.607 129.429 132.043 129.254 132.47 129.058C132.752 128.924 133.024 128.771 133.284 128.6C134.045 128.126 134.607 127.392 134.866 126.534C135.18 125.098 135.21 123.614 134.956 122.166V122.122C134.71 120.162 134.334 118.221 133.828 116.312C135.334 115.28 136.395 113.718 136.8 111.938C137.544 106.744 127.366 89.0341 122.466 89.5681ZM166.186 157.04C166.133 156.777 166.026 156.527 165.873 156.307C165.719 156.086 165.522 155.899 165.294 155.758C164.733 155.505 164.097 155.47 163.512 155.662L162.89 155.79C163.397 155.289 163.838 154.724 164.202 154.11C164.46 153.721 164.629 153.28 164.695 152.817C164.762 152.355 164.724 151.884 164.586 151.438C164.425 151.001 164.129 150.626 163.741 150.367C163.354 150.109 162.894 149.98 162.428 150C161.4 150.137 160.4 150.433 159.464 150.878C158.388 151.26 157.287 151.566 156.168 151.792C155.049 152.017 153.909 152.119 152.768 152.098C152.384 152.092 152 152.066 151.618 152.018C151.43 151.998 151.242 151.98 151.054 151.948C150.605 151.933 150.177 151.751 149.854 151.438C149.308 150.666 148.022 151.406 148.574 152.188C148.864 152.585 149.254 152.899 149.704 153.096C150.38 153.385 151.105 153.546 151.84 153.57C152.44 153.606 153.04 153.592 153.566 153.57C155.642 153.474 157.693 153.07 159.65 152.37C160.508 151.964 161.412 151.662 162.342 151.472C163.324 151.398 163.408 152.378 163.076 153.086C162.184 154.683 160.773 155.927 159.076 156.612C158.276 156.972 158.876 158.128 159.648 157.966L162.532 157.366C163.03 157.262 163.532 157.138 164.03 157.056C164.496 156.978 164.794 157.056 164.77 157.598C164.736 158.372 164.002 158.918 163.424 159.318C162.651 159.845 161.839 160.313 160.996 160.718C160.182 161.118 160.796 162.194 161.566 162.072C162.228 161.966 162.896 161.896 163.566 161.86C163.891 161.806 164.222 161.814 164.544 161.884C164.579 161.899 164.61 161.92 164.636 161.948C164.533 162.053 164.425 162.151 164.31 162.242C163.446 163.02 162.478 163.672 161.432 164.18C159.433 165.148 157.213 165.572 154.998 165.41C154.89 165.41 154.782 165.41 154.676 165.39C154.585 165.381 154.492 165.39 154.404 165.416C153.74 165.616 153.834 166.794 154.676 166.872C154.916 166.894 155.156 166.898 155.396 166.908C158.315 167.021 161.197 166.222 163.642 164.622C164.642 163.964 166.794 162.674 165.952 161.222C165.798 160.979 165.588 160.776 165.339 160.631C165.091 160.486 164.811 160.403 164.524 160.388C165.101 160.057 165.567 159.562 165.862 158.966C166.158 158.37 166.271 157.7 166.186 157.04ZM195.766 99.2C195.591 98.2446 195.329 97.3073 194.982 96.4001C194.434 94.8801 193.313 93.6343 191.86 92.9281C192.021 91.1766 191.999 89.4131 191.796 87.6661C191.782 87.0137 191.509 86.3937 191.038 85.9421C190.719 85.7229 190.346 85.5959 189.96 85.5751C189.573 85.5543 189.189 85.6404 188.848 85.824C187.494 86.5071 186.335 87.5212 185.478 88.7721C184.517 90.0227 183.602 91.3082 182.736 92.626C182.531 92.3767 182.257 92.1936 181.948 92.1C181.626 92.0362 181.293 92.0581 180.983 92.1634C180.672 92.2687 180.395 92.4537 180.178 92.7C179.321 93.5479 178.631 94.5485 178.142 95.6501C177.863 96.2521 177.639 96.8779 177.472 97.52C177.397 98.0989 177.199 98.6549 176.89 99.1501C176.757 99.309 176.686 99.5108 176.69 99.7181L177.642 100.384C177.759 100.355 177.865 100.29 177.944 100.198C178.591 99.0623 179.066 97.837 179.354 96.562C179.823 95.4148 180.547 94.389 181.47 93.562C181.493 93.5435 181.521 93.5317 181.55 93.528C181.615 93.5741 181.67 93.6325 181.712 93.7C181.898 93.9634 182.055 94.2464 182.18 94.544C182.43 95.1197 182.608 95.7244 182.708 96.3441C182.895 97.6378 182.955 98.9466 182.888 100.252C182.898 100.442 182.98 100.621 183.118 100.752C183.256 100.883 183.439 100.956 183.629 100.956C183.819 100.956 184.002 100.883 184.14 100.752C184.278 100.621 184.36 100.442 184.37 100.252C184.541 98.1482 184.269 96.0318 183.57 94.0401C183.596 94.012 183.62 93.9827 183.642 93.9521C184.425 92.7521 185.239 91.5761 186.084 90.4241C186.77 89.386 187.614 88.4609 188.584 87.682C188.89 87.462 189.72 86.8301 190.12 87.0821C190.456 87.3001 190.398 88.37 190.422 88.682C190.516 90.0133 190.509 91.3499 190.4 92.68C189.211 93.1299 188.158 93.8778 187.342 94.852C186.361 95.9566 185.765 97.3497 185.644 98.822C185.656 99.1875 185.761 99.5438 185.95 99.8568C186.138 100.17 186.404 100.429 186.722 100.61C187.04 100.791 187.399 100.887 187.765 100.889C188.13 100.891 188.49 100.799 188.81 100.622C188.864 100.6 188.916 100.572 188.97 100.548C188.819 100.858 188.718 101.19 188.672 101.532C188.65 101.911 188.703 102.291 188.83 102.65C188.957 103.008 189.154 103.337 189.41 103.618C189.666 103.9 189.975 104.127 190.32 104.286C190.665 104.446 191.038 104.535 191.418 104.548C191.893 104.575 192.369 104.507 192.818 104.348C192.229 105.954 191.523 107.515 190.706 109.018C190.638 109.14 190.606 109.279 190.614 109.418L191.588 110.098C191.674 110.072 191.754 110.029 191.823 109.971C191.891 109.913 191.948 109.842 191.988 109.762C193.035 107.835 193.912 105.82 194.608 103.74C194.654 103.594 194.648 103.436 194.59 103.294C194.999 102.929 195.345 102.498 195.614 102.02C196.014 101.132 196.068 100.126 195.766 99.2ZM181.522 93.516C181.504 93.512 181.494 93.5101 181.522 93.5101V93.516ZM194.322 101.29C194.12 101.642 193.857 101.955 193.546 102.216C193.27 102.5 192.937 102.722 192.569 102.869C192.202 103.017 191.808 103.086 191.412 103.072C191.106 103.045 190.816 102.922 190.585 102.72C190.354 102.518 190.192 102.248 190.124 101.948C190.042 101.16 190.82 100.348 191.242 99.7481L193 97.2721C193.486 96.5881 192.4 95.7441 191.838 96.3741C191.02 97.3117 190.078 98.1333 189.038 98.8161C188.614 99.0921 188.05 99.496 187.514 99.368C186.914 99.224 187.13 98.568 187.246 98.126C187.489 97.2317 187.936 96.4055 188.55 95.7117C189.165 95.0179 189.931 94.4753 190.79 94.126C191.505 94.376 192.147 94.797 192.662 95.3523C193.176 95.9077 193.547 96.5805 193.742 97.312C194.021 98.1621 194.239 99.031 194.394 99.9121C194.534 100.363 194.51 100.849 194.326 101.284L194.322 101.29Z" fill="#FFE497"/>
<path d="M339.238 284.2C336.014 284 332.75 284.098 329.522 284.08C322.106 284.037 314.689 284.014 307.27 284.01C296.617 283.99 285.963 283.979 275.308 283.978H237.186C223.294 283.978 209.403 283.987 195.512 284.004C181.664 284.013 167.817 284.027 153.97 284.044L115.118 284.092L82.6059 284.14L59.1139 284.178C55.4379 284.178 51.7559 284.128 48.0799 284.196H47.5979C47.4081 284.206 47.2292 284.288 47.0983 284.426C46.9674 284.564 46.8944 284.747 46.8944 284.937C46.8944 285.127 46.9674 285.31 47.0983 285.448C47.2292 285.586 47.4081 285.668 47.5979 285.678L55.2399 285.666L75.8779 285.632L106.666 285.586L144.066 285.538L185.466 285.494C199.37 285.482 213.273 285.472 227.176 285.464C240.332 285.456 253.489 285.456 266.646 285.464C277.837 285.464 289.027 285.471 300.218 285.486C308.554 285.498 316.887 285.519 325.218 285.548C329.544 285.566 333.876 285.548 338.202 285.654C338.546 285.654 338.89 285.668 339.234 285.688C340.2 285.748 340.186 284.266 339.238 284.2ZM56.0859 317.8L49.2459 321.936L48.2639 322.536C48.0994 322.638 47.9812 322.8 47.9346 322.988C47.888 323.176 47.9167 323.375 48.0146 323.542C48.1125 323.709 48.2718 323.831 48.4585 323.882C48.6452 323.933 48.8445 323.91 49.0139 323.816C51.2913 322.436 53.5706 321.057 55.8519 319.68L56.8339 319.08C56.9945 318.976 57.1088 318.815 57.1532 318.629C57.1975 318.443 57.1685 318.247 57.0721 318.082C56.9757 317.917 56.8193 317.796 56.6356 317.743C56.4519 317.691 56.255 317.711 56.0859 317.8ZM21.7999 278C21.5899 277.068 20.1619 277.462 20.3699 278.4L20.9159 280.824H17.4619C17.2656 280.826 17.0778 280.904 16.939 281.043C16.8002 281.182 16.7215 281.37 16.7199 281.566L16.9799 284.69L13.5379 284C12.6059 283.82 12.2059 285.248 13.1379 285.43L17.5939 286.3C17.704 286.329 17.819 286.332 17.9305 286.309C18.0419 286.287 18.1467 286.239 18.2371 286.17C18.3274 286.101 18.4009 286.013 18.452 285.911C18.5031 285.809 18.5304 285.698 18.5319 285.584L18.2579 282.288H21.8279C21.9414 282.286 22.053 282.259 22.1543 282.207C22.2556 282.156 22.3439 282.083 22.4127 281.992C22.4814 281.902 22.5288 281.797 22.5512 281.686C22.5736 281.575 22.5704 281.46 22.5419 281.35L21.7999 278ZM268.848 128.898C270.143 128.473 271.36 127.837 272.448 127.016C273.048 126.598 273.648 126.166 274.266 125.778C274.735 125.412 275.301 125.189 275.894 125.138C276.446 125.16 276.48 125.66 276.582 126.102C276.669 126.672 276.946 127.197 277.368 127.59C277.86 127.909 278.438 128.07 279.024 128.051C279.61 128.033 280.177 127.837 280.648 127.488C281.115 127.155 281.605 126.857 282.116 126.596C282.697 126.388 283.33 126.38 283.916 126.572C285.054 127.007 286.214 127.382 287.392 127.694C288.976 127.677 290.558 127.559 292.128 127.342C293.884 127.396 295.634 127.62 297.39 127.702C300.943 127.864 304.502 127.804 308.048 127.524C308.992 127.45 309 125.968 308.048 126.042C305.268 126.259 302.483 126.344 299.692 126.296C298.319 126.268 296.946 126.208 295.574 126.116C294.236 126.026 292.888 125.832 291.544 125.856C290.297 126.077 289.036 126.21 287.77 126.256C286.733 126.025 285.721 125.694 284.748 125.268C283.779 124.89 282.711 124.852 281.718 125.162C280.776 125.508 279.982 126.456 278.968 126.562C277.832 126.688 278.058 125.256 277.618 124.562C277.331 124.166 276.923 123.874 276.456 123.732C275.988 123.589 275.487 123.603 275.028 123.772C273.917 124.186 272.883 124.783 271.97 125.54C270.996 126.298 269.918 126.913 268.77 127.366C268.246 127.579 267.683 127.679 267.118 127.66C266.553 127.642 265.999 127.505 265.49 127.258C265.013 126.984 264.608 126.602 264.306 126.142C265.389 125.401 266.344 124.489 267.132 123.44C267.744 122.62 268.416 121.388 267.776 120.39C267.056 119.266 265.53 119.698 264.6 120.276C263.726 120.815 263.047 121.618 262.659 122.569C262.272 123.52 262.197 124.57 262.446 125.566C262.233 125.681 262.017 125.791 261.798 125.894C260.089 126.688 258.203 127.021 256.326 126.86C256.337 126.813 256.342 126.766 256.342 126.718C256.341 126.522 256.263 126.334 256.125 126.195C255.986 126.057 255.798 125.979 255.602 125.978C255.261 125.993 254.936 126.121 254.677 126.343C254.418 126.565 254.242 126.868 254.176 127.202C254.127 127.392 254.154 127.593 254.25 127.763C254.347 127.933 254.506 128.059 254.694 128.114C257.531 128.7 260.484 128.275 263.042 126.914C263.664 127.829 264.567 128.518 265.614 128.875C266.661 129.233 267.796 129.241 268.848 128.898ZM264.512 122.298C264.8 121.946 265.156 121.655 265.558 121.442C265.84 121.292 266.574 120.908 266.52 121.456C266.386 121.978 266.116 122.454 265.738 122.838C265.388 123.278 265.002 123.688 264.586 124.066C264.323 124.303 264.048 124.526 263.762 124.734C263.718 124.297 263.762 123.856 263.891 123.436C264.019 123.017 264.231 122.627 264.512 122.29V122.298ZM311.44 135.47L301.696 135.824C300.112 135.882 298.524 135.906 296.942 136.012C295.454 136.141 293.98 136.409 292.542 136.812C291.036 137.18 289.492 137.374 287.942 137.388C286.389 137.383 284.839 137.517 283.31 137.788C281.894 138.202 280.398 138.266 278.952 137.974C277.648 137.632 276.412 137.064 275.1 136.748C273.64 136.421 272.121 136.47 270.686 136.89C269.237 137.491 267.649 137.673 266.102 137.414C265.188 137.132 264.798 138.562 265.702 138.842C268.502 139.706 271.042 137.708 273.82 138.014C275.175 138.27 276.502 138.659 277.78 139.176C279.085 139.633 280.479 139.776 281.85 139.592C282.588 139.48 283.312 139.286 284.05 139.15C284.871 139.012 285.7 138.934 286.532 138.916C288.083 138.914 289.634 138.82 291.174 138.634C292.656 138.402 294.074 137.874 295.558 137.634C297.11 137.448 298.671 137.354 300.234 137.354L311.434 136.954C312.4 136.918 312.4 135.436 311.44 135.47ZM201.86 127.094C202.53 127.456 203.28 127.643 204.041 127.64C204.802 127.636 205.55 127.441 206.216 127.072C206.908 126.72 207.553 126.282 208.136 125.77C208.72 125.166 209.356 124.616 210.038 124.126C210.658 123.782 211.208 124.254 211.708 124.612C212.283 125.077 212.943 125.425 213.652 125.636C215.092 125.848 216.561 125.734 217.952 125.304C219.382 124.898 220.909 124.996 222.276 125.582C223.579 126.371 225.037 126.871 226.55 127.046C228.085 126.947 229.56 126.413 230.802 125.506C231.536 125.046 232.246 124.524 233.022 124.138C233.97 123.666 234.644 124.02 235.544 124.414C237.23 125.153 239.111 125.322 240.902 124.896C241.83 124.682 241.438 123.252 240.502 123.466C238.955 123.817 237.335 123.639 235.902 122.96C235.301 122.629 234.636 122.431 233.952 122.38C233.194 122.427 232.463 122.675 231.834 123.1C230.659 123.922 229.416 124.642 228.12 125.254C227.454 125.481 226.747 125.56 226.047 125.484C225.348 125.408 224.674 125.18 224.072 124.816C222.9 124.126 221.594 123.692 220.242 123.544C218.816 123.614 217.402 123.83 216.02 124.188C215.427 124.309 214.819 124.328 214.22 124.244C213.54 124.068 212.909 123.737 212.378 123.278C211.9 122.832 211.276 122.576 210.622 122.558C209.969 122.54 209.332 122.761 208.83 123.18C207.677 124.44 206.256 125.426 204.672 126.064C204.306 126.177 203.919 126.205 203.54 126.147C203.162 126.088 202.801 125.945 202.486 125.728C202.21 125.529 202.004 125.248 201.896 124.925C201.789 124.602 201.785 124.253 201.886 123.928C202.19 123.022 200.76 122.634 200.458 123.528C200.267 124.194 200.301 124.904 200.555 125.549C200.808 126.193 201.267 126.736 201.86 127.094ZM244.882 134.298C242.296 133.62 239.838 134.656 237.282 134.972C235.899 135.091 234.506 135.004 233.148 134.714C231.746 134.467 230.332 134.293 228.912 134.192C226.054 134.006 223.178 134.046 220.312 134.068C217.408 134.089 214.503 134.133 211.598 134.2C209.998 134.234 208.398 134.288 206.808 134.454C205.218 134.62 203.688 135.002 202.112 135.074C201.162 135.118 201.158 136.602 202.112 136.556C203.494 136.492 204.842 136.172 206.212 136.002C207.582 135.832 209 135.756 210.398 135.714C213.256 135.624 216.12 135.594 218.98 135.562C221.84 135.53 224.718 135.496 227.58 135.608C229.002 135.65 230.421 135.777 231.828 135.988C233.189 136.266 234.569 136.446 235.956 136.526C238.804 136.572 241.648 134.986 244.478 135.726C244.667 135.78 244.87 135.756 245.042 135.66C245.214 135.564 245.34 135.403 245.394 135.214C245.447 135.025 245.424 134.822 245.328 134.65C245.232 134.478 245.071 134.352 244.882 134.298ZM117.32 101.988L117.332 101.954L117.32 101.988ZM117.112 102.774C117.112 102.774 117.124 102.746 117.112 102.706C117.114 102.729 117.114 102.751 117.112 102.774ZM117.672 101.366C117.706 101.344 117.724 101.312 117.71 101.322L117.684 101.352L117.672 101.366ZM107.526 112.21C107.217 112.219 106.907 112.205 106.6 112.168C106.385 112.138 106.172 112.096 105.962 112.044C105.769 111.996 105.564 112.023 105.39 112.12C105.225 112.219 105.103 112.377 105.05 112.562C104.998 112.752 105.024 112.954 105.121 113.125C105.218 113.296 105.379 113.421 105.568 113.474C106.207 113.637 106.866 113.711 107.526 113.692C107.722 113.689 107.91 113.611 108.05 113.474C108.119 113.405 108.174 113.324 108.211 113.234C108.249 113.144 108.268 113.047 108.268 112.95C108.268 112.853 108.249 112.756 108.211 112.666C108.174 112.576 108.119 112.495 108.05 112.426C107.91 112.288 107.722 112.21 107.526 112.21Z" fill="#1D1D1B"/>
<path d="M117.4 99.6C116.729 100.093 116.214 100.768 115.915 101.545C115.615 102.322 115.544 103.168 115.71 103.984C115.763 104.173 115.889 104.333 116.06 104.43C116.23 104.527 116.432 104.553 116.622 104.502C116.809 104.446 116.967 104.32 117.064 104.15C117.16 103.98 117.187 103.779 117.14 103.59C117.14 103.548 117.122 103.506 117.116 103.462V103.274C117.105 103.119 117.105 102.963 117.116 102.808V102.78C117.112 102.76 117.112 102.74 117.116 102.72C117.128 102.646 117.144 102.572 117.16 102.5C117.196 102.347 117.241 102.197 117.296 102.05L117.318 102.002C117.304 102.03 117.292 102.046 117.318 101.988V101.954V101.968C117.348 101.904 117.378 101.84 117.412 101.778C117.485 101.64 117.568 101.506 117.658 101.378L117.676 101.36L117.702 101.33L117.724 101.298C117.826 101.181 117.935 101.069 118.05 100.964L118.128 100.896L118.148 100.878C118.31 100.775 118.427 100.615 118.475 100.429C118.524 100.244 118.5 100.047 118.408 99.878C118.31 99.7092 118.149 99.5856 117.961 99.5336C117.772 99.4817 117.571 99.5055 117.4 99.6ZM130.706 106.856C129.988 107.701 129.052 108.334 128 108.684C126.718 109.036 125.381 109.14 124.06 108.99C123.761 108.932 123.452 108.954 123.166 109.056C122.879 109.157 122.624 109.333 122.428 109.566C122.11 110.038 121.946 110.597 121.958 111.166C121.967 111.712 122.095 112.25 122.334 112.741C122.573 113.232 122.916 113.666 123.34 114.01C123.884 114.426 124.506 114.728 125.169 114.898C125.832 115.068 126.523 115.103 127.2 115C127.395 114.994 127.58 114.913 127.717 114.776C127.855 114.638 127.936 114.453 127.942 114.258C127.94 114.062 127.862 113.874 127.723 113.736C127.584 113.597 127.396 113.519 127.2 113.518C126.614 113.647 126.005 113.623 125.431 113.448C124.857 113.273 124.338 112.952 123.924 112.518C123.626 112.136 123.459 111.668 123.45 111.184C123.457 110.96 123.501 110.739 123.58 110.53L123.604 110.45C123.604 110.452 123.604 110.455 123.604 110.457C123.605 110.459 123.607 110.462 123.608 110.463C123.61 110.465 123.612 110.466 123.615 110.466C123.617 110.467 123.62 110.467 123.622 110.466C123.798 110.45 123.974 110.458 124.148 110.488C125.604 110.636 127.074 110.5 128.478 110.088C129.746 109.665 130.877 108.911 131.756 107.904C132.378 107.188 131.334 106.136 130.706 106.856ZM127.418 95.844L127.596 95.918C127.668 95.9369 127.743 95.9449 127.818 95.942C127.935 95.931 128.053 95.931 128.17 95.942C128.248 95.9568 128.325 95.9761 128.4 96C128.502 96.0477 128.6 96.1046 128.692 96.17C128.832 96.2973 129.015 96.3684 129.204 96.37C129.4 96.368 129.588 96.2898 129.728 96.152C129.867 96.0129 129.945 95.8246 129.946 95.628C129.944 95.4316 129.866 95.2436 129.728 95.104C129.304 94.7098 128.756 94.4769 128.178 94.446C127.977 94.4349 127.776 94.4477 127.578 94.484C127.392 94.5354 127.233 94.6574 127.136 94.824C127.087 94.9079 127.054 95.0007 127.041 95.0971C127.027 95.1935 127.033 95.2916 127.058 95.3858C127.082 95.48 127.125 95.5684 127.184 95.646C127.242 95.7236 127.316 95.7889 127.4 95.838L127.418 95.844Z" fill="#1D1D1B"/>
<path d="M121.644 105.126C122.218 105.126 122.684 104.66 122.684 104.086C122.684 103.512 122.218 103.046 121.644 103.046C121.07 103.046 120.604 103.512 120.604 104.086C120.604 104.66 121.07 105.126 121.644 105.126Z" fill="#1D1D1B"/>
<path d="M130.252 100.394C130.826 100.394 131.292 99.9284 131.292 99.354C131.292 98.7796 130.826 98.314 130.252 98.314C129.678 98.314 129.212 98.7796 129.212 99.354C129.212 99.9284 129.678 100.394 130.252 100.394Z" fill="#1D1D1B"/>
<path d="M128.838 118.926C127.04 119.732 125.134 120.271 123.18 120.526C122.991 120.579 122.832 120.705 122.735 120.875C122.638 121.045 122.613 121.247 122.664 121.436C122.72 121.623 122.846 121.781 123.015 121.877C123.185 121.974 123.385 122.001 123.574 121.954C125.653 121.677 127.68 121.092 129.586 120.216C129.754 120.116 129.876 119.953 129.926 119.763C129.976 119.574 129.949 119.372 129.852 119.202C129.751 119.034 129.589 118.911 129.4 118.86C129.211 118.808 129.01 118.832 128.838 118.926ZM113.492 81.914C109.414 80.35 103.182 79.986 100.292 83.96C99.6419 84.8259 99.2569 85.8616 99.1835 86.9417C99.11 88.0218 99.3512 89.1001 99.8779 90.046C97.2339 91.724 94.2779 93.91 93.5119 97.036C93.2865 97.8232 93.2512 98.6526 93.4087 99.4561C93.5662 100.26 93.912 101.014 94.4179 101.658C94.9438 102.28 95.6384 102.736 96.4179 102.972C95.3638 104.423 94.6246 106.078 94.2474 107.832C93.8703 109.585 93.8636 111.398 94.2279 113.154C94.5389 115.348 95.478 117.404 96.9319 119.076C98.5626 120.753 100.535 122.058 102.716 122.904C104.899 123.913 107.316 124.306 109.706 124.04C112.086 123.685 114.353 122.788 116.332 121.418C116.61 121.23 116.878 121.018 117.142 120.818C116.63 120.617 116.13 120.386 115.646 120.126C113.946 119.198 112.372 118.056 110.964 116.726C104.32 118.914 102.386 114.876 102.89 112.018C103.394 109.16 107.936 110.418 107.936 110.418C103.736 94.578 115.114 90.854 120.874 89.806C121.152 89.754 121.414 89.712 121.674 89.672L122.41 89.562H122.466C120.45 86.0511 117.278 83.3481 113.492 81.914Z" fill="#1D1D1B"/>
<path d="M323.848 89.784C323.762 79.334 323.648 68.876 323.206 58.434C323.166 57.474 323.122 56.5134 323.076 55.552C323.072 55.3567 322.992 55.1706 322.854 55.0326C322.716 54.8947 322.529 54.8156 322.334 54.812C320.638 54.784 318.941 54.758 317.244 54.734C312.512 54.662 307.779 54.5954 303.044 54.534C295.904 54.438 288.763 54.3474 281.62 54.262C272.633 54.1567 263.647 54.0594 254.66 53.97C244.408 53.8674 234.156 53.7794 223.904 53.706C212.915 53.626 201.925 53.5647 190.936 53.522C179.892 53.4794 168.848 53.462 157.804 53.47C147.236 53.4807 136.668 53.524 126.1 53.6C116.588 53.6734 107.076 53.7934 97.5639 53.96C89.6539 54.11 81.7438 54.3 73.8378 54.608C72.2378 54.6694 70.6378 54.736 69.0378 54.808C68.8426 54.8111 68.6561 54.8901 68.518 55.0282C68.3799 55.1663 68.3009 55.3527 68.2978 55.548V201.348C68.2978 203.298 68.1918 205.28 68.2978 207.226V207.494C68.2951 207.584 68.3103 207.674 68.3426 207.759C68.3749 207.843 68.4236 207.921 68.4858 207.986C68.5679 208.093 68.6834 208.169 68.8138 208.202C68.8865 208.224 68.9619 208.236 69.0378 208.236H69.0638L74.4038 208.202L89.2218 208.114C96.6738 208.071 104.127 208.032 111.58 207.996C120.905 207.951 130.231 207.908 139.558 207.868C150.119 207.824 160.681 207.786 171.244 207.754C182.403 207.721 193.561 207.694 204.718 207.674C215.835 207.657 226.952 207.649 238.068 207.652C248.504 207.652 258.94 207.671 269.376 207.708C278.495 207.74 287.612 207.793 296.728 207.866C303.888 207.928 311.048 208.006 318.206 208.146C319.557 208.173 320.906 208.202 322.254 208.234H322.33C322.389 208.235 322.447 208.227 322.504 208.212C322.586 208.192 322.664 208.159 322.734 208.112C322.835 208.043 322.919 207.95 322.977 207.843C323.036 207.735 323.069 207.615 323.072 207.492C323.136 203.649 323.195 199.807 323.248 195.964C323.381 186.251 323.501 176.535 323.608 166.818C323.741 154.101 323.836 141.383 323.892 128.664C323.948 115.706 323.954 102.744 323.848 89.784ZM321.81 193.104C321.766 196.328 321.719 199.552 321.668 202.776L321.622 205.762C321.622 206.05 321.57 206.404 321.56 206.74C315.233 206.601 308.904 206.501 302.576 206.442C293.876 206.35 285.177 206.288 276.478 206.256C266.303 206.211 256.129 206.184 245.956 206.176C234.947 206.167 223.937 206.167 212.928 206.176C201.72 206.191 190.513 206.213 179.306 206.244C168.539 206.275 157.773 206.311 147.008 206.352C137.321 206.389 127.636 206.431 117.952 206.478L94.0478 206.602L77.2178 206.698C74.7418 206.714 72.2598 206.678 69.7838 206.74V190.26L74.6298 190.284C79.7872 190.312 84.9452 190.337 90.1038 190.36C97.8238 190.396 105.545 190.43 113.266 190.462C122.922 190.502 132.577 190.539 142.232 190.572C153.052 190.611 163.873 190.644 174.694 190.672C186.027 190.7 197.361 190.723 208.694 190.74C219.858 190.756 231.023 190.763 242.188 190.76C252.535 190.76 262.881 190.743 273.226 190.71C281.981 190.683 290.735 190.638 299.488 190.574C306.008 190.522 312.528 190.46 319.046 190.334C319.979 190.317 320.913 190.296 321.846 190.272L321.81 193.104ZM322.43 123.79C322.391 136.687 322.306 149.585 322.174 162.482C322.089 171.253 321.986 180.022 321.866 188.79C316.246 188.922 310.626 188.99 305.006 189.044C296.698 189.125 288.391 189.179 280.084 189.204C270.093 189.244 260.103 189.267 250.114 189.272C239.047 189.283 227.981 189.283 216.914 189.272C205.555 189.26 194.197 189.241 182.84 189.214C171.832 189.187 160.824 189.156 149.816 189.12C139.844 189.088 129.872 189.052 119.9 189.012L95.0618 188.906L77.5758 188.822C74.9758 188.808 72.3758 188.738 69.7758 188.776V57.85C69.7758 57.358 69.8438 56.784 69.8198 56.25C76.9378 55.926 84.0598 55.722 91.1818 55.562C100.382 55.354 109.588 55.2114 118.8 55.134C129.165 55.0327 139.53 54.9727 149.894 54.954C160.877 54.9287 171.858 54.9327 182.838 54.966C193.858 54.9967 204.877 55.0487 215.896 55.122C226.417 55.19 236.939 55.2727 247.462 55.37C256.81 55.458 266.157 55.5554 275.504 55.662C283.148 55.7487 290.792 55.842 298.436 55.942C303.793 56.014 309.153 56.0887 314.514 56.166L319.474 56.24C320.156 56.24 320.916 56.342 321.62 56.306C322.08 65.944 322.22 75.598 322.314 85.244C322.458 98.098 322.468 110.946 322.43 123.8V123.79Z" fill="#1D1D1B"/>
<path d="M199.754 195.09C199.113 194.724 198.376 194.562 197.641 194.626C196.906 194.69 196.208 194.976 195.64 195.448C195.072 195.919 194.662 196.553 194.464 197.264C194.266 197.975 194.29 198.729 194.532 199.426C194.741 200.206 195.196 200.897 195.829 201.398C196.463 201.898 197.241 202.181 198.048 202.204C199.053 202.19 200.013 201.783 200.722 201.071C201.432 200.36 201.836 199.399 201.848 198.394C201.837 197.704 201.636 197.03 201.266 196.447C200.897 195.864 200.374 195.394 199.754 195.09ZM200.2 199.29C200.178 199.356 200.188 199.32 200.2 199.29V199.29ZM200.364 198.63V198.7L200.35 198.778C200.318 198.939 200.274 199.097 200.22 199.252L200.208 199.286C200.16 199.387 200.109 199.486 200.056 199.584C200.018 199.652 199.964 199.728 199.914 199.8L199.882 199.842L199.824 199.91C199.721 200.023 199.611 200.129 199.494 200.228L199.394 200.302C199.322 200.35 199.248 200.396 199.174 200.438C199.1 200.48 199.036 200.51 198.964 200.544L198.84 200.59C198.681 200.645 198.517 200.685 198.35 200.71L198.21 200.72H197.754L197.62 200.692C197.553 200.677 197.486 200.66 197.42 200.64L197.292 200.596L197.262 200.584L197.136 200.522C197.019 200.458 196.906 200.388 196.798 200.31L196.696 200.222C196.586 200.12 196.483 200.01 196.388 199.894L196.34 199.826C196.298 199.762 196.256 199.698 196.216 199.626L196.122 199.452L196.078 199.362L196.05 199.296L195.994 199.136C195.974 199.074 195.954 199.01 195.938 198.936C195.922 198.862 195.906 198.806 195.894 198.736L195.872 198.62V198.6C195.86 198.467 195.856 198.334 195.858 198.2C195.858 198.122 195.858 198.044 195.872 197.964L195.89 197.86C195.921 197.715 195.961 197.572 196.01 197.432L196.038 197.358C196.105 197.218 196.181 197.082 196.266 196.952C196.266 196.936 196.32 196.878 196.338 196.85L196.434 196.742C196.482 196.692 196.53 196.644 196.582 196.598L196.662 196.528L196.772 196.452C196.872 196.388 196.972 196.336 197.084 196.282L197.144 196.26C197.196 196.242 197.248 196.224 197.302 196.21C197.356 196.196 197.408 196.18 197.462 196.168L197.59 196.146C197.79 196.132 197.99 196.146 198.204 196.146L198.308 196.158C198.362 196.168 198.418 196.18 198.472 196.194C198.599 196.224 198.725 196.261 198.848 196.306C198.91 196.328 199.048 196.392 198.906 196.328C198.966 196.356 199.026 196.382 199.084 196.414C199.209 196.479 199.33 196.552 199.446 196.632L199.514 196.68L199.662 196.81C199.754 196.899 199.842 196.993 199.924 197.092L199.986 197.176C200.027 197.239 200.067 197.305 200.106 197.376C200.14 197.436 200.168 197.496 200.198 197.554L200.21 197.576L200.224 197.618C200.273 197.757 200.313 197.9 200.344 198.044L200.358 198.132V198.15C200.358 198.234 200.368 198.318 200.37 198.402C200.372 198.486 200.368 198.552 200.364 198.63ZM10.144 274.366C9.63396 274.812 10.6 277.122 11.096 278.21C11.254 278.556 11.364 278.78 11.364 278.78L11.922 278.362L12.55 277.892L13.42 277.24L14.1 276.728L14.728 276.258L14.408 276.058C13.464 275.486 10.7 273.88 10.144 274.366Z" fill="#1D1D1B"/>
</svg>
