<svg width="400" height="400" viewBox="0 0 400 400" fill="none" xmlns="http://www.w3.org/2000/svg">
<path d="M386.84 26.24C386.34 27.42 388.66 54.1 385.14 97.26C382.9 124.9 386.08 150.38 386.2 184.62C386.2 209.58 383.86 243.92 384.2 268.48C384.56 306.84 385.86 339.02 386.52 359.38C387 374.18 374.76 382.92 357.54 382.64C319.1 382.02 248.64 380.64 185.28 379.18C162.86 378.7 146.62 374.86 127.72 374.44C111.86 374.08 92.5799 377.14 81.4199 376.9L53.9399 376.28C53.9399 376.28 63.9399 73.12 63.9399 72.12C64.9394 62.6671 65.1401 53.1467 64.5399 43.66L65.2199 28C65.2199 28 63.9999 25.04 71.9999 24.52C79.9999 24 162.92 24 162.92 24L386.84 26.24Z" fill="white"/>
<path d="M284.68 384C284.68 383.62 288.88 358.66 289.06 355.44C289.24 352.22 288 342.46 294.8 343.62C301.6 344.78 343.42 352.3 343.42 352.3L340.3 388.3C340.3 388.3 327.22 388.66 319.16 388.84C311.1 389.02 294.8 388.02 291.58 387.94C288.36 387.86 283.68 388.3 284.68 384Z" fill="#FFF59E"/>
<path d="M57.5201 256.62C57.5201 256.62 45.6601 278.62 45.6601 278.92C45.6601 279.22 40.7201 378.24 42.7201 376.92C44.7201 375.6 53.8401 376.36 53.8401 376.36L57.5201 256.62Z" fill="#D8E9FF"/>
<path d="M57.28 156.9L61.12 152.78L65.22 28C65.22 28 65.92 24.52 71.22 24.38C76.52 24.24 387.64 26.14 387.64 26.14L386 11.36C378 13.52 60 9.71999 55.8 15.14C52.88 18.92 53.18 26.86 53.18 26.86C53.18 26.86 48.62 170.86 49.18 169.52C49.74 168.18 55.36 158.3 57.28 156.9Z" fill="#D8E9FF"/>
<path d="M12.7401 250.4L25.8001 231.56C25.8001 231.56 37.3401 213.44 39.2401 207.22C41.1401 201 44.0201 192.34 45.2401 187.46C46.4601 182.58 49.7601 172.32 49.7601 172.32C49.7601 172.32 56.0601 158.7 57.2401 156.9C58.4201 155.1 63.0001 152.9 65.7201 150.76C68.4401 148.62 85.7201 144.6 88.7201 143.12C91.7201 141.64 99.9001 143.26 103.24 143.12C106.58 142.98 112.24 144.24 116.4 143.12C120.56 142 128.94 142.28 129.02 145.88C128.97 149.055 128.696 152.223 128.2 155.36C128.2 155.36 121.54 161.58 126.2 164.46C130.86 167.34 134.4 171.86 132.64 173.26C130.915 174.31 129.009 175.029 127.02 175.38C127.02 184.2 126.44 181.7 126.56 192.16C126.238 193.425 125.596 194.586 124.696 195.531C123.796 196.477 122.668 197.176 121.42 197.56C117.28 198.64 118.22 188.3 116.02 189.56C109.7 193.36 108.18 191.36 107.82 193.08C107.46 194.8 105.1 199.22 100.86 206.52C96.6201 213.82 90.0001 228.76 74.5001 237.24C59.0001 245.72 55.0201 260.6 52.5001 265.46C49.9801 270.32 34.5401 304 22.5601 329.32L13.1801 348C12.51 341.469 12.3028 334.9 12.5601 328.34C13.1001 319.76 12.1001 298.12 11.9201 288.74C11.7401 279.36 11.3801 254.56 12.7401 250.4Z" fill="#FFCEB6"/>
<path d="M218.18 254.36L215.88 242.36C216.074 233.015 215.733 223.666 214.86 214.36C214.86 214.36 218.16 200.36 224.26 197.32C224.26 197.32 227.58 191.68 229.74 187.06C231.9 182.44 235.96 180.7 238.26 178.54C240.56 176.38 246.94 170.3 249.24 172.9C250.739 174.599 252.142 176.382 253.44 178.24L257.24 172.24C257.24 172.24 259.64 164.24 263.42 164.24C267.2 164.24 270.76 167.46 271.08 169.56C271.4 171.66 272.46 175.56 271.48 178.74C270.5 181.92 268.32 187 274.82 188.74C281.32 190.48 278.62 193.16 279.6 195.28C280.58 197.4 287.34 200.34 287.22 203.74C287.1 207.14 285.58 209.74 287.22 212.66C287.22 212.66 292 225.96 290.72 229.96C289.44 233.96 281.06 250.64 280.22 253.96C279.38 257.28 272.02 270.76 271.42 273.66C270.82 276.56 270.32 288.5 269.8 292.76C269.28 297.02 268.36 304.76 269.04 307.78C269.72 310.8 272.12 335.24 273.04 340.12C273.96 345 277.62 381.22 277.28 381.82C276.94 382.42 256.24 384.18 248.4 384.96C240.56 385.74 225.16 385.76 220.14 385.68C215.12 385.6 211.86 385.78 213.06 384.4C214.26 383.02 213.56 375.1 214.34 371.16C215.12 367.22 218.72 350.18 219.04 344.3C219.36 338.42 222.1 321.2 222.78 315.08C223.46 308.96 223.98 298.22 223.9 293.36C223.938 287.517 223.212 281.694 221.74 276.04C219.82 268.94 218.78 257.42 218.18 254.36Z" fill="#FFCEB6"/>
<path d="M113.44 300.6C111.6 317.013 109.787 333.427 108 349.84C104.095 348.344 100.084 347.14 96 346.24C92.2586 344.873 88.3216 344.116 84.34 344C82.8 343.68 81.32 343.04 79.78 342.66C72.46 340.82 74.72 348.66 82.44 292.82C93.0142 294.336 103.403 296.943 113.44 300.6V300.6Z" fill="#FFF59E"/>
<path d="M341.48 46.8C356.94 48.5 357.2 46.98 356.98 48.8C354.6 67.94 354.98 71.52 353.5 76.44C351.36 83.56 348.78 99.54 345.78 99.46C316.8 98.82 339.44 100.24 314.26 97.88C307.68 97.26 304.44 98.28 302.54 97.88C307.48 85.42 307.1 85.88 310.72 69.74C315.14 49.92 312.36 60.42 314.32 45.96C338 45.82 330 45.56 341.48 46.8Z" fill="#FFF59E"/>
<path d="M270.24 47.2199C272.24 46.9199 273.28 46.8799 273.12 48.5999C269.32 90.0799 272.4 62.3999 268.14 91.5999C267.86 93.4399 267.94 93.5999 266.14 93.7799C260.14 94.0999 239.14 93.0199 225.94 94.2999C228.554 85.3421 230.197 76.1291 230.84 66.8199C230.84 66.8199 232.12 46.8199 233.28 46.6599C237.434 46.4109 241.602 46.5112 245.74 46.9599C248.72 47.0799 268.2 47.5399 270.24 47.2199Z" fill="#FFF59E"/>
<path d="M259.14 121.12C261.72 121.34 263.52 120.9 263.42 122.98C262.625 133.197 261.29 143.364 259.42 153.44C256.54 170.36 257.12 167.88 253.1 174.9C248.84 170.06 249.74 170.5 246.9 170.56C241.98 170.56 239.94 177.32 236.9 175.62C236.02 175.14 221.64 174.84 216 173.42C216 172 216.7 166.22 218.9 152.56C220.64 141.88 220.9 122.2 221.88 121.44C220.96 120.86 220.42 120.84 230.8 121.32C237.309 120.828 243.843 120.761 250.36 121.12C254.78 121.24 250.42 120.3 259.14 121.12Z" fill="#FFF59E"/>
<path d="M327.3 120.32C342.2 121.54 345.5 120.1 345.3 121.78C343.98 140.82 336.64 159.28 330.68 176.1C329.84 178.5 329.12 181.06 328.16 180.94C321.18 180 303.78 175.7 303.74 175.7C302.62 175.46 301.44 175.5 300.32 175.28C295.6 174.28 294.58 173.64 291.94 173.6C284.74 173.6 285.48 173.36 285.26 172.76C288.92 164.94 290.84 162.16 296.8 137.7C301.92 116.76 295.24 120.24 305.3 120.1C305.3 120.1 313 119.3 315.5 119.26C316.9 119.24 313.76 119.2 327.3 120.32Z" fill="#FFF59E"/>
<path d="M350.42 240.64C346.42 301.9 347.24 281.62 345.72 311.04C342.54 312.8 327.44 307.88 322.18 307.18C315.56 306.28 315.76 306.34 315.34 306.14C312.22 304.5 310.08 304.88 299 302.38C297.6 302.06 296.42 301.3 295.56 301.22C292.88 300.94 294.04 300.14 294.36 293.56C294.92 281.98 301.4 234.8 301.44 234.12C303.18 234.46 316.3 236.38 317.06 236.12C319.54 235.52 321.8 236.64 324.18 236.98C349.22 240.6 337.68 238.24 350.42 240.64Z" fill="#FFF59E"/>
<path d="M219.06 328.74C214.88 360.74 213.06 363.42 211.62 377.68L200 375.16C200.36 366.4 204.22 333.16 205.18 325.16L219.06 328.74Z" fill="#FFF59E"/>
<path d="M178.22 318.3C180.66 318.96 175.28 346.06 172.36 373.72C153.2 368 162.36 368.4 150.22 365.72C147.22 365.1 147.76 366.12 141.62 363.44C139.28 362.44 137.62 361.68 137.74 360.7C139.74 347.08 140.86 345.96 141.14 341.26C141.56 334.4 144.88 311.64 145.14 309.48C156.52 313.64 152 311.16 178.22 318.3Z" fill="#FFF59E"/>
<path d="M215.36 248.88C219.84 262.54 215.16 255.84 221.76 286.88C215.52 286.4 209.88 284.3 203.92 283.32C203.92 283.32 211.52 219.8 212.26 220.12C213 220.44 213.64 219.94 213.68 220.94C214.26 237.22 212 238.88 215.36 248.88Z" fill="#FFF59E"/>
<path d="M191.16 217.6C188.32 237.12 184.54 256.34 180.74 275.6C177.6 274.02 180.14 278.4 157.86 272.42C153.72 271.32 149.52 269.46 145.7 270.12C143.403 270.184 141.107 269.929 138.88 269.36C145.9 242.74 140.88 261.64 144.22 244.88C146.8 231.62 145.08 233.82 145.92 228.68C147.1 221.38 147.22 225.84 148.58 213.58C158.28 215.82 154.9 214.8 166.84 214.86C172.1 214.94 183.04 217.6 191.16 217.6Z" fill="#FFF59E"/>
<path d="M120.32 210.66C112.32 251.98 119.44 221.38 109.66 263.74C109.16 265.88 97.3 262.22 79.34 258.8C77.74 258.5 78.08 257.42 78.22 256.8C85.04 230.66 83.16 232.62 84.22 231.82C94.94 224.32 99.28 209.18 102 209.44C109.82 210.26 116.72 210 120.32 210.66Z" fill="#FFF59E"/>
<path d="M120.18 121.02C120.18 128.84 119.32 131.78 119.06 140.3C119.072 140.404 119.061 140.51 119.027 140.61C118.994 140.71 118.939 140.801 118.867 140.877C118.794 140.954 118.706 141.013 118.608 141.051C118.51 141.09 118.405 141.106 118.3 141.1C115.62 141.3 112.94 141.6 110.3 141.66C101.58 141.86 100.3 138.6 89.74 140.92C90.66 134 91.56 127.28 92.46 120.4C114.78 120.82 95.56 121.02 120.18 121.02Z" fill="#FFF59E"/>
<path d="M191.24 123.66C191.24 157.4 191.08 154.88 188.94 169.66C156.18 168.54 169.96 168.28 153.72 167.46C153.72 166.04 153.92 154.96 155.24 154.52C159.24 153.14 167.82 151.42 170.52 148.98C171.52 148.08 172.08 146.78 170.8 145.78C169.52 144.78 166.38 144.16 155.8 145.78C156.38 138.28 156.96 130.94 157.5 123.78C173.76 122.34 182.96 124.46 191.24 123.66Z" fill="#FFF59E"/>
<path d="M198.14 47.42C198.14 55.92 198.48 49.76 196.14 66.06C192.3 93.16 192.14 90.96 190.68 90.7C185.22 89.66 180.82 90.7 173.5 90.46C171.5 90.46 171.5 90.84 159.94 91.48C157.74 91.62 156.48 92.18 156.8 90.26C157.58 85.54 157.5 84.62 159.6 72.08C161.14 62.92 161.6 63.7 161.94 57.28C162.3 49.8 162.32 48.06 163.3 48.46C165.46 49.34 167.3 48.46 175.18 47.22C180.02 46.46 178.04 47.36 189.92 47.6C193.46 47.68 196.14 47.22 198.14 47.42Z" fill="#FFF59E"/>
<path d="M132 48.48C132.64 48.48 128.44 79.02 126.32 85.56C124.78 90.18 128.7 88 111.78 88C107.107 87.888 102.433 88.055 97.7799 88.5C95.1999 88.5 96.1599 88.66 98.9999 75.4C98.9999 75.4 102.3 52.24 102.3 48.28C107.86 48.76 104.42 48.28 110 48.28C124.58 48.6 125.74 48.2 132 48.48Z" fill="#FFF59E"/>
<path d="M388.6 11.28C388.6 13.42 391.66 13.06 229.5 13.72C46.94 14.44 58.3201 13.46 55.8801 18.28C54.1601 21.68 54.7601 20.28 53.5601 61.76C50.0001 184.6 47.8601 169.88 55.8801 156.28C61.2401 147.24 58.84 170.62 61.42 93.52C62.8 52.18 63.4201 31.84 63.7001 29.04C64.0401 25.28 65.7001 23.32 69.3601 23.32C75.3601 23.32 378.46 24.66 387.36 25.16C390.54 25.32 388.9 27.28 387.68 27.42C386.6 28.42 70.8801 25.16 66.9001 26.4C65.8801 26.72 62.62 151.04 62.62 151.08C83.82 141.8 87.0401 142.9 87.0401 140.92C87.0401 136.12 87.8801 136.4 89.0401 125.74C89.8401 118.3 89.2601 118.32 92.1401 117.94C101.9 116.68 103.1 118.74 118.56 117.94C120.28 117.94 122.56 117.72 122.56 119.06C124 146.8 118 138.72 127.02 142C128.304 142.587 129.364 143.575 130.038 144.816C130.712 146.057 130.966 147.483 130.76 148.88C130.56 150 149.78 146.56 149.9 146.54C153.34 145.98 152.68 149.32 154.2 129.86C154.82 121.68 154.2 121.08 155.68 120.68C156.319 120.444 157.004 120.362 157.68 120.44C159.98 120.94 162.14 120.06 164.36 120C167.48 119.88 187.8 120.52 187.84 120.52C196.28 120.52 193.74 116.52 194 139.18C194.36 151.78 193.5 156.98 191.6 170.74C191.44 171.78 191.16 172.62 189.84 172.46C189.72 172.46 189.58 172.64 189.44 172.68C185.44 173.74 156.06 171.38 154.34 170.68C150.68 169.06 149.52 174.68 151.94 156.68C151.94 156.3 151.94 155.9 151.94 155.52C143.14 157.52 134.64 160.34 125.52 161.52C130.72 166.48 134.1 168.42 132.58 173.3C132.292 174.316 131.705 175.222 130.895 175.899C130.086 176.577 129.091 176.995 128.04 177.1C128.82 186.98 127.68 181.8 128.04 187.64C128.38 194.06 128.04 198.98 122.04 199.42C117.32 199.78 115.84 196.9 115.26 192.76C115.02 190.92 116.02 190.76 113.66 191.84C106.02 195.28 111.52 192.6 104.88 202.42C104.072 203.832 103.403 205.319 102.88 206.86C113.56 207.8 118.46 205.9 122.52 208.86C123.24 209.38 119.94 229.92 117.22 245.2C114.58 260.12 115.22 252.72 112.34 265.76C111.84 268 111.96 268.58 94.0601 264.76C93.1401 264.56 92.3001 263.96 91.4001 263.76C86.9201 262.8 80.0801 261.76 76.2401 260.52C72.7601 259.46 75.2801 258.52 80.7801 234.98C81.0801 233.66 80.2601 234.98 77.4401 236.98C69.1201 242.98 66.64 243.76 63.0201 248.98C57.0201 257.76 59.8 240.68 55.98 348.22C54.96 376.74 55.98 377.66 53.46 377.6C51.72 377.6 51.7801 382.62 55.3601 276.82C56.1001 254.82 57.36 256.98 50.46 272.3C45.32 283.68 47.26 267.66 44.46 351.04C43.64 376.84 44.2001 376.46 42.5601 376.68C40.1601 377 40.7201 376.68 41.3601 355.92C43.6401 281.72 43.7201 286.86 43.2401 286.7C22.1601 331.12 30.8801 315.32 18.9401 339.68C16.9168 343.053 15.0872 346.539 13.4601 350.12C13.3168 350.47 13.0404 350.749 12.6916 350.895C12.3428 351.041 11.9501 351.043 11.6001 350.9C11.25 350.757 10.9711 350.48 10.8248 350.132C10.6786 349.783 10.6768 349.39 10.8201 349.04C14.1801 340.4 16.9601 337.84 23.7401 322.22C31.8601 303.54 25.7401 315.54 41.1601 284.22C50.6801 264.86 54.18 255.36 58.82 248.84C62 244.36 65.5 241.84 72.82 236.28C89.28 223.62 87.4801 227.48 101.16 202.98C101.98 201.52 102.98 200.18 103.76 198.7C108.88 189.08 104.84 193.6 113.52 188.38C114.12 188.02 113.64 185.28 115.28 185.16C115.421 185.137 115.566 185.144 115.704 185.18C115.843 185.216 115.972 185.28 116.085 185.368C116.198 185.457 116.291 185.567 116.359 185.693C116.427 185.819 116.468 185.957 116.48 186.1C116.48 186.62 116.96 187.1 117.08 187.62C117.461 190.175 118.132 192.677 119.08 195.08C119.76 196.28 124.92 196.88 125.08 192.82C125.3 185.18 126.68 189.2 122.06 188.02C113.28 185.8 115.28 180.62 113.86 175.26C111.06 177.4 107.5 177.26 104.66 179.42C106.26 182.84 108.16 186.42 106.52 186.94C104.88 187.46 104.86 185.46 102.7 181.4C101.36 178.9 97.4401 173.4 99.0401 172.96C100.64 172.52 101.38 174.34 103.28 176.7C113.42 173.22 110.02 174.12 113.78 171.7C113.218 170.391 112.321 169.253 111.18 168.4C110.44 167.7 111.74 166.8 112.3 166.96C119.12 168.96 122.3 175.24 128.3 173.44C129.38 173.12 130.86 170.3 129.28 168.92C128.72 168.42 123.5 163.66 123.4 163.4C122.68 161.4 121.62 162.54 114.2 164C112.5 164.34 110.76 164.48 109.06 164.78C101.42 166.14 104.42 169.3 91.9601 176.78C83.4401 182 84.3601 182.3 82.3201 185.42C80.2801 188.54 79.5401 190.14 80.4801 192.14C84.6601 201.1 84.7001 202.64 83.8801 209.58C83.5801 212.18 83.4401 213.8 81.8801 213.58C79.2801 213.1 83.3401 206.86 80.9601 200.24C75.3601 225.1 69.4801 220.24 71.1601 217.38C74.5201 211.88 74.5601 212.58 76.1001 207.14C77.6401 201.7 77.6001 202.64 77.6401 193.78C77.0888 192.876 76.7971 191.838 76.7971 190.78C76.7971 189.722 77.0888 188.684 77.6401 187.78C85.7401 171.9 87.1401 180.02 102.28 164.18C107.04 159.2 104.1 154.18 99.6601 153.72C101.66 156.9 103.12 158.32 100.16 162.3C97.7201 165.6 91.3001 166.12 90.6801 161.96C90.5801 161.28 91.0801 159.26 92.4401 159.96C93.8001 160.66 92.9601 162.58 95.0801 161.96C99.4601 160.82 100 158.38 98.0801 155.96C96.1601 153.54 96.2401 153.96 93.1201 155.36C77.1201 162.96 74.82 166.3 71.74 169.76C60.04 182.96 57.6 178.24 50.34 193.76C50.18 194.08 50.08 195.06 48.34 194.92C47.28 194.82 49.0601 190.58 49.4001 189.82C55.4001 176.38 66.34 175.12 58.14 176.52C55.39 176.77 52.6746 177.313 50.0401 178.14C48.0401 178.72 45.4801 192.84 41.3201 204.58C40.1613 207.922 38.8261 211.2 37.3201 214.4C27.6001 233.2 23.5601 237.64 16.0601 247.88C14.0601 250.56 13.6401 252.28 12.0601 251.88C7.48005 250.76 15.6001 247.14 32.5401 216.96C39.0001 205.46 39.9001 197.94 44.8801 182.16C45.7601 179.34 46.7201 178.34 45.4001 178.32C43.7001 178.32 41.7801 179.08 40.4001 176.32C38.4001 172.16 39.28 168.16 45 166.32C48.42 165.26 47.18 170.88 48.44 130.12C48.44 130.12 51.84 22.8 52.3 20.26C53.88 11.56 49.2201 10.84 138.5 10.84C165 10.84 199.96 10.12 245.56 10.24C392.74 10.8 388.62 8.77998 388.6 11.28ZM188.94 169.76C191.08 154.88 191.24 157.4 191.24 123.76C182.96 124.56 173.76 122.44 157.5 124.02C156.96 131.16 156.38 138.5 155.8 146.02C166.38 144.38 169.46 144.96 170.8 146.02C172.14 147.08 171.52 148.32 170.52 149.22C167.82 151.66 159.34 153.38 155.24 154.76C153.92 155.2 153.72 166.28 153.72 167.7C170 168.38 156.18 168.64 188.94 169.76ZM167.8 147.76C167.8 146.9 165 147.46 163.8 147.6C153.48 148.74 154.74 148.68 154.58 151.6C164.52 149.6 167.7 148.52 167.8 147.68V147.76ZM126.32 150.26C128.32 149.94 128.1 145.04 124.8 144.52C120.24 143.82 113.44 144.72 107.9 144.64C103.2 144.64 96.2001 142.3 92.4401 143.46C69.3201 150.56 58.44 153.06 55.28 164.38C65.66 161.26 80.2001 160.54 90.9201 153.44C93.7518 151.729 96.9915 150.81 100.3 150.78C108.66 153.82 101.08 154.16 126.32 150.26ZM117.42 179.54C117.62 185.72 126.26 186.84 125.7 182.62C125.44 180.78 125.42 178.9 125.3 176.9C121.3 177.06 119.02 174.16 115.9 172.32C116.794 174.629 117.307 177.067 117.42 179.54V179.54ZM119.06 140.3C119.32 131.78 120.18 128.84 120.18 121.02C95.5601 121.02 114.78 120.82 92.4201 120.4C91.5201 127.28 90.6201 134 89.7001 140.92C100.28 138.6 101.54 141.86 110.26 141.66C112.94 141.66 115.62 141.3 118.26 141.1C118.368 141.113 118.478 141.101 118.581 141.065C118.684 141.03 118.777 140.971 118.854 140.894C118.931 140.817 118.99 140.724 119.025 140.621C119.061 140.518 119.073 140.408 119.06 140.3V140.3ZM109.66 263.74C119.42 221.36 112.26 251.98 120.32 210.66C116.72 209.92 109.82 210.26 102.1 209.5C99.3801 209.24 95.0401 224.38 84.3201 231.88C83.1601 232.68 85.0401 230.72 78.3201 256.86C78.1801 257.42 77.8401 258.5 79.4401 258.86C97.3001 262.22 109.16 265.88 109.66 263.74Z" fill="#000001"/>
<path d="M357.18 45.04C358.02 45.04 359.96 45.2 359.84 48.06C359.2 63.76 354.54 91.3 349.4 101.96C349.02 102.72 348.78 102.76 342.76 102.56C316.24 101.66 341.82 103.2 315 100.74C306.84 99.98 297.7 102.36 299.74 97.08C304.02 86.08 305.08 81.08 308.88 65.44C313.82 45.04 307.48 43.04 314.74 43.04C355.18 43.1 326.82 44 357.18 45.04ZM356.98 48.72C357.2 46.98 356.98 48.5 341.48 46.72C329.98 45.48 337.96 45.74 314.32 45.74C312.32 60.2 315.14 49.74 310.72 69.52C307.1 85.74 307.48 85.2 302.54 97.66C304.44 98.12 307.68 97.1 314.26 97.66C339.44 100.02 316.8 98.6 345.78 99.24C348.78 99.24 351.36 83.34 353.5 76.22C354.96 71.44 354.6 67.86 356.98 48.72Z" fill="#000001"/>
<path d="M353.22 239.44C353.22 239.9 352.2 264.18 351.98 266.54C351.28 274.18 350.92 277.56 350.76 278.84C350.86 275.14 350.4 281.5 350.76 278.84C350.3 295.12 348.42 306.84 349.22 306.96C348.02 317.58 351.22 317.24 326.64 311.62C321.34 310.42 317.44 310.02 313.9 309.26C312.56 308.98 311.32 308.28 309.9 307.98C306.36 307.18 302.78 306.52 299.2 305.74C298.1 305.5 296.16 304.62 292.74 303.74C289.8 303.02 290.74 302.26 291.18 292.2C291.537 286.707 292.205 281.238 293.18 275.82C293.695 267.451 294.636 259.113 296 250.84C296.48 247.86 297.28 244.52 298.64 235.76C299.12 232.62 298.5 230.82 300.64 231.08C316.94 233.08 316.64 232.96 317.76 232.72C319.5 232.34 332.08 235.14 332.12 235.14C336.563 235.247 340.996 235.6 345.4 236.2C353.1 237.78 353.08 235.64 353.22 239.44ZM345.72 311.04C347.24 281.62 346.46 301.9 350.42 240.64C337.68 238.24 349.22 240.64 324.18 237.08C321.8 236.74 319.54 235.62 317.06 236.22C316.3 236.38 303.18 234.46 301.44 234.22C301.44 234.9 294.92 282.08 294.36 293.66C294.04 300.24 292.88 301.04 295.56 301.32C296.42 301.32 297.56 302.16 299 302.48C310.08 304.98 312.22 304.6 315.34 306.24C315.76 306.44 315.56 306.38 322.18 307.28C327.44 307.88 342.54 312.8 345.72 311.04V311.04Z" fill="#000001"/>
<path d="M348.12 118.96C349.6 126.3 346.24 142.02 342.12 154.96C340.12 161.34 337.52 168.38 336.38 171.64C331.8 184.64 332.8 180.66 332.08 182.7C331.46 184.42 331.92 184.54 326.08 183.4C326.08 183.4 295.94 177.4 294.98 177.08C292.48 176.12 288.98 176.96 283.1 175.82C280.36 175.28 281.78 172.66 282.64 170.7C287.12 160.7 286.44 165.64 295.16 129.12C296.12 125.12 294.78 127.12 297.4 117.96C297.62 117.2 298.04 117.28 303.1 116.66V117.06C319.1 114.76 310.68 116.48 329.46 116.88C333.724 117.649 338.078 117.777 342.38 117.26C344.1 117.02 347.8 117.46 348.12 118.96ZM345.38 121.78C345.5 120.1 342.2 121.54 327.38 120.32C313.84 119.2 316.98 119.24 315.66 119.26C313.16 119.26 305.46 120.1 305.46 120.1C295.46 120.24 302.08 116.76 296.96 137.7C290.96 162.16 289.08 164.94 285.42 172.76C285.64 173.36 284.9 173.5 292.1 173.6C294.74 173.6 295.76 174.28 300.48 175.28C301.6 175.5 302.78 175.46 303.9 175.7C303.9 175.7 321.34 180 328.32 180.94C329.28 181.06 330 178.5 330.84 176.1C336.72 159.28 344 140.82 345.38 121.78V121.78Z" fill="#000001"/>
<path d="M329.38 348.42C348.08 351.6 345.94 345.66 343.98 366.78C342.16 386.38 342.4 390.46 339.64 389.96C336.88 389.46 340.44 373.36 341.14 362.62C341.42 358.36 341.14 359.66 341.68 353.32C329.58 351.32 296.22 345.14 291.88 344.5C290.52 353.96 287.02 380.04 285.88 384.14C285.762 384.438 285.545 384.687 285.265 384.844C284.985 385.001 284.66 385.057 284.344 385.003C284.028 384.949 283.74 384.789 283.528 384.548C283.316 384.307 283.193 384 283.18 383.68C283.34 381.3 285.18 368.12 285.48 366.5C288.44 346.18 287.62 341.28 291.98 341.94C334 348.4 315.48 346 329.38 348.42Z" fill="#000001"/>
<path d="M329.02 102.24C329.46 102.36 327.9 102.24 329.02 102.24V102.24Z" fill="#000001"/>
<path d="M288.86 210.62C288.7 213 293.54 217.2 292.46 225.08C290.68 238.34 292.9 229.84 283.32 251.08C279.82 258.86 281.12 259.36 276.58 267.54C272.4 275.08 272.26 275.94 272.38 282.44C272.76 304.72 268.92 284.6 272.38 321.36C274.66 345.36 275.66 347.56 276.76 356.72C277.22 360.58 277.72 369.26 277.8 369.4C278.64 370.84 278.14 372.48 278.48 374.02C281.2 386.18 275 384.12 274.74 381.74C274.48 379.36 274.9 382.96 273.46 363.74C270.88 329.74 265.58 309.84 268.28 294.5C270.28 282.68 267.68 283.38 269.78 274.26C270.98 269 275.24 264.26 277.32 256.64C278.9 250.88 280.04 251.2 284.94 240.08C286.94 235.6 288.66 233.42 288.76 226.5C288.76 220.5 289.92 221.26 287.18 216.06C284.44 210.86 286.04 209.72 285.52 206.6C284.32 199.54 280.68 202.6 278.5 196.06C278.257 194.826 277.681 193.682 276.835 192.751C275.989 191.821 274.905 191.139 273.7 190.78C263.54 184.3 271.44 181.6 269.94 172.16C269.811 171.367 269.49 170.617 269.006 169.976C268.521 169.334 267.888 168.821 267.16 168.48C258.88 163.3 260.22 167.68 259.16 170.8C258.86 171.68 256.18 175.62 255.16 178C252.86 184 248.24 189.04 244.1 193.68C241.24 196.9 239.16 202.78 234.48 206.26C233.26 207.18 230.06 207.76 227.74 212.26C226.96 213.74 224.6 212.7 225.3 210.8C228.14 202.92 232.2 206.8 238.18 195.94C241.7 189.56 243.28 189.78 249.18 181.94C249.915 180.995 250.304 179.826 250.282 178.629C250.26 177.432 249.829 176.278 249.06 175.36C248.845 174.966 248.517 174.646 248.117 174.442C247.717 174.239 247.265 174.161 246.82 174.22C245.459 174.481 244.221 175.184 243.3 176.22C234.2 183.94 232.4 184.34 230.38 189.6C227.26 197.6 221.54 200.28 217.32 211C215.32 216.22 216.68 218.82 216.68 224.14C216.68 228.14 216.34 234.14 216.24 237.52C216.08 244.12 219 247.52 220.82 259.02C221.34 262.36 221.96 270 222.24 271.62C223.64 280.06 225.78 284.62 225.4 296.14C225.2 302.04 224.78 310.14 224.44 314.14C224.1 318.14 214.78 379.38 214.44 381.78C213.98 384.74 214.02 387.16 211.1 386.54C209.5 386.2 210.06 383.96 210.76 381.7C211.06 380.66 211.62 381.12 200.2 378.16C198.2 377.68 196.2 377.5 196.66 375.58C196.66 375.58 199.96 345.92 199.96 345.88C199.86 341.02 201.48 336.42 201.82 331.64C202.018 329.05 202.522 326.492 203.32 324.02C204.1 321.6 202.98 321.72 219.62 325.54C221.32 311 221.84 316.44 221.84 290.3C210.96 289.06 209.28 287.46 204.2 286.48C198.02 285.32 201.08 282.86 207.14 233.28C209.14 217.8 208.64 216.1 213.14 217.28C213.72 211.86 214.46 206 223.64 194.88C226.98 190.88 228.32 185.58 230.48 182.88C231.92 181.08 233.8 180.22 235.04 178.76C223.04 177.32 211.2 177.92 212.34 174.08C213.505 169.318 214.135 164.441 214.22 159.54C214.74 152.44 214.66 166.12 218.06 126.56C218.32 123.5 218.36 121.06 218.36 121.02C218.08 118.38 219.62 117.38 220.64 117.68C224.92 118.92 230.64 117.36 250 117.9C253.26 117.9 250 117.04 258.94 117.74C265.96 118.3 265.86 118.44 266.04 119.48C266.64 123 263.92 147.48 260.88 162.96C265.04 162.66 268 164.96 271.06 166.96C271.6 167.311 272.048 167.786 272.364 168.347C272.681 168.908 272.858 169.536 272.88 170.18C273.372 172.69 273.467 175.261 273.16 177.8C272.12 182.14 270.62 184.84 273.64 186.38C278.76 189.02 278.86 188.96 280.8 192.38C282.2 194.82 281.52 196.1 283.62 197.4C288.48 200.48 289.22 205.14 288.86 210.62ZM263.42 122.98C263.42 120.98 261.72 121.34 259.14 121.12C250.42 120.3 254.78 121.24 250.34 121.12C243.823 120.761 237.289 120.828 230.78 121.32C220.4 120.84 220.94 120.86 221.86 121.44C220.86 122.2 220.62 141.88 218.88 152.56C216.68 166.22 216 172 216 173.42C221.64 174.84 236 175.14 236.9 175.62C239.98 177.32 242.02 170.64 246.9 170.56C249.74 170.56 248.9 170.06 253.1 174.9C257.1 167.88 256.54 170.36 259.42 153.44C261.29 143.364 262.625 133.197 263.42 122.98V122.98ZM221.76 286.88C215.16 255.84 219.76 262.54 215.36 248.88C212.08 238.88 214.26 237.22 213.68 220.88C213.68 219.88 212.76 220.3 212.26 220.06C211.76 219.82 204 283.28 204 283.32C209.88 284.3 215.52 286.4 221.76 286.88V286.88ZM211.62 377.68C213.12 363.42 214.88 360.82 219.06 328.74L205.24 325.18C204.28 333.18 200.42 366.4 200.06 375.18L211.62 377.68Z" fill="#000001"/>
<path d="M275.26 45.26C276.44 48.1 273.64 85.26 269.26 96.34C268.88 97.3 227.84 96.54 226.36 96.94C223.12 97.78 222.36 95.16 223.04 92.94C225.87 83.4365 227.535 73.6248 228 63.72C228.924 58.3273 229.525 52.8843 229.8 47.42C229.775 46.7527 229.952 46.0935 230.309 45.5293C230.666 44.9651 231.186 44.5225 231.8 44.26C234.018 43.7735 236.293 43.5918 238.56 43.72C274.16 45.16 274.34 43.02 275.26 45.26ZM273.12 48.6C273.28 46.88 272.16 46.92 270.24 47.22C268.32 47.52 248.72 47.08 245.66 46.96C241.523 46.5113 237.355 46.4109 233.2 46.66C232.04 46.66 230.76 66.78 230.76 66.82C230.117 76.1292 228.474 85.3422 225.86 94.3C239.06 93.02 260.04 94.1 266.06 93.78C267.94 93.78 267.86 93.44 268.06 91.6C272.4 62.4 269.32 90 273.12 48.6V48.6Z" fill="#000001"/>
<path d="M200.46 46.4C200.693 48.7992 200.786 51.21 200.74 53.62C200.62 57.3 195.14 92.84 194.62 92.92C193.62 93.08 192.92 93.98 191.74 93.86C188.619 93.4297 185.462 93.3291 182.32 93.56C178.7 93.96 177.2 93.44 171.4 93.76C146.3 95.06 153.84 98.5 159.1 59.76C160.1 46.98 159.24 44.96 164.52 45.76C165.6 45.94 164.52 46.04 171.12 44.88C185.64 42.3 179.98 45.62 197.82 44.16C199.72 44 200.28 44.4 200.46 46.4ZM196.18 66C198.46 49.7 198.18 55.86 198.18 47.36C196.18 47.16 193.5 47.62 190 47.54C178.12 47.3 180 46.4 175.26 47.16C167.4 48.4 165.54 49.28 163.38 48.4C162.4 48 162.38 49.74 162.02 57.22C161.72 63.64 161.22 62.86 159.68 72.02C157.68 84.56 157.68 85.48 156.88 90.2C156.56 92.2 157.82 91.56 160.02 91.42C171.68 90.78 171.56 90.3 173.58 90.4C180.9 90.72 185.3 89.6 190.76 90.64C192.14 90.96 192.34 93.16 196.18 66Z" fill="#000001"/>
<path d="M178.6 213.08C191.62 214.76 194.2 213.42 193.82 216.84C191.82 235.76 185.28 272.18 183.3 278.08C182.94 279.16 180.9 279.54 179.64 278.92C178.38 278.3 175.86 279.04 173.88 278.8C166.054 277.775 158.349 275.973 150.88 273.42C148.38 272.36 145.24 273.18 143.36 272.8C137.14 271.54 135.74 272.14 135.96 270.6C137.28 261.1 137.8 262.6 139.2 256.42C139.92 253.2 138.64 257.74 142.14 239.76C142.567 237.035 142.681 234.271 142.48 231.52C142.48 227.2 143.54 227.34 145.98 213.52C146.72 209.36 149.54 211 155.66 211.84C156.376 211.842 157.091 211.796 157.8 211.7C176 211.82 171.64 212.16 178.6 213.08ZM180.74 275.66C184.54 256.34 188.32 237.12 191.16 217.66C183.04 217.66 172.1 215 166.84 214.98C154.84 214.98 158.28 215.94 148.58 213.7C147.22 225.96 147.1 221.5 145.92 228.8C145.08 233.94 146.8 231.74 144.22 245C140.96 261.76 145.9 242.86 138.88 269.48C141.107 270.049 143.402 270.304 145.7 270.24C149.52 269.58 153.7 271.44 157.86 272.54C180.14 278.46 177.6 274 180.74 275.66V275.66Z" fill="#000001"/>
<path d="M179.84 315.18C182.58 315.88 181.54 317.52 181.26 321.52C180.54 332.12 181 330.86 180.74 332.86C179.64 341.22 177.44 354.08 176.96 358.08C174.7 376.44 175.98 378.18 172.48 377.18C159.68 373.54 161.24 373.86 158.48 372.22C150.48 367.44 149.56 371.18 137.42 364.78C133.02 362.46 134.42 363.56 137.54 345.66C138.08 342.48 139.54 329.22 140.26 325C143.18 304.84 142.48 306.84 145.6 307C152.56 308.38 151.06 309 156.62 309.76C160.98 310.24 163.06 310.94 179.84 315.18ZM172.36 373.72C175.28 346.06 180.66 318.96 178.22 318.3C151.9 311.16 156.52 313.64 145.12 309.56C144.88 311.72 141.56 334.48 141.12 341.34C140.84 346.04 139.68 347.16 137.72 360.78C137.58 361.76 139.26 362.52 141.6 363.52C147.74 366.2 147.2 365.18 150.2 365.8C162.46 368.4 153.2 368 172.36 373.72Z" fill="#000001"/>
<path d="M131.84 45.3199C135.84 45.1199 136.38 43.1999 131.98 71.9599C131.14 77.3599 129.56 84.4599 128.26 90.6199C127.9 92.3399 126.08 91.8399 123.7 91.6999C101.1 90.3599 93.7001 93.6999 93.3601 88.2399C102.48 38.2399 96.5201 46.0399 106.08 45.6199C110.3 45.4399 126.38 45.5999 131.84 45.3199ZM126.28 85.5599C128.28 79.0199 132.6 48.4999 131.96 48.4799C125.74 48.1999 124.58 48.5999 109.96 48.3599C104.38 48.2599 107.82 48.7999 102.26 48.3599C102.26 52.3599 98.9801 75.4399 98.9601 75.4799C96.1201 88.7399 95.1601 88.6599 97.7401 88.5799C102.393 88.1349 107.068 87.968 111.74 88.0799C128.7 87.9999 124.78 90.1799 126.28 85.5599Z" fill="#000001"/>
<path d="M114.34 297.4C117.54 298.14 116.04 299.94 115.16 308.98C111.16 349.36 111.62 354.58 107.7 353.24C103.371 351.523 98.9007 350.184 94.34 349.24C82.34 346.1 90.1 347.94 82.56 346.88C80.26 346.56 77.88 344.3 74.56 344.68C70.32 345.16 72.56 335.08 79.64 293.84C80.1 291.06 79.28 289.02 81.64 289.58C84.84 290.32 91.88 291.36 97.64 292.46C106.98 294.22 108.7 296 114.34 297.4ZM108 349.84C109.84 333.4 111.687 316.987 113.54 300.6C103.504 296.937 93.115 294.323 82.54 292.8C74.82 348.6 72.54 340.8 79.88 342.64C81.42 343.02 82.9 343.66 84.44 343.98C88.3756 344.118 92.2641 344.881 95.96 346.24C100.057 347.139 104.082 348.342 108 349.84V349.84Z" fill="#000001"/>
<path d="M95.7601 187.82C97.0201 190 99.3401 190.96 99.2001 192.96C99.2001 193.26 98.5401 193.5 98.0601 193.86C96.2537 192.85 94.733 191.398 93.6401 189.64C90.6401 184.48 88.5801 184.48 88.1601 183.04C87.6401 181.24 89.1801 180.6 90.1601 181.42C92.418 183.177 94.3189 185.349 95.7601 187.82V187.82Z" fill="#000001"/>
</svg>
