<svg width="400" height="400" viewBox="0 0 400 400" fill="none" xmlns="http://www.w3.org/2000/svg">
<path d="M334.22 267.04L66.46 268.44C68.1834 276.674 69.4188 285.002 70.16 293.38C72.7 293.18 75.4 293.38 77.9 293.38C84.1 293.38 316.82 291.64 330.18 291.38C330.998 283.188 332.348 275.058 334.22 267.04Z" fill="#6CECC4"/>
<path d="M70.48 297.04C71.8658 315.27 71.9926 333.572 70.86 351.82C71.06 351.82 73.56 351.82 328.86 350.6C328.54 345.8 328.54 340.94 328.46 336.16C328.166 322.392 328.614 308.62 329.8 294.9C295.26 295.72 70.7 297.02 70.48 297.04Z" fill="#6CECC4"/>
<path d="M55.16 240.54C60.26 247.18 63.6 256.54 65.6 264.74C117.36 264.74 328.32 263.58 335.14 263.48C337.38 255.12 340.96 245.78 346.7 239.32C349.912 221.24 352.008 202.978 352.98 184.64C353.52 176.16 353.54 166.64 348.84 159.26C344.908 153.585 339.246 149.333 332.7 147.14C325.428 144.667 317.922 142.945 310.3 142C232.48 129.36 150 129.1 103.58 135.44C86 137.84 72.7 139.32 59.42 151.56C54.125 156.481 49.914 162.451 47.0558 169.091C44.1976 175.73 42.755 182.892 42.82 190.12C43.1 213.18 54.4 236.94 55.16 240.54Z" fill="#6CECC4"/>
<path d="M36.64 234.68C28.18 234.68 21.72 239.82 18.24 247.24C6.80001 271.56 16 326.14 22.6 351.86H68C68 350.54 68.26 349.08 68.3 347.86C69.82 314.96 69.38 234.72 36.64 234.68Z" fill="#6CECC4"/>
<path d="M378.72 243.26C376.456 240.034 373.296 237.544 369.63 236.098C365.966 234.65 361.956 234.31 358.1 235.12C335.48 240.28 332.1 291.4 331.4 314.4C330.96 329.6 331.26 342.14 331.96 351.86H377.7C380.82 336.32 384.18 321 385.86 305.2C387.76 287.3 389.26 257.8 378.72 243.26Z" fill="#6CECC4"/>
<path d="M178 64.1C177.82 94.94 180.18 99.2802 179.26 101.54H213.44C212.48 89.3002 211.874 77.0402 211.62 64.7602L178 64.1Z" fill="#FFDE26"/>
<path d="M214.56 64.8204C215.1 89.5204 216.7 100.42 216.16 101.54H249.56V65.5404L214.56 64.8204Z" fill="#FFDE26"/>
<path d="M175.28 64L155.1 63.6V101.6H176.62C175.593 89.08 175.147 76.5468 175.28 64Z" fill="#FFDE26"/>
<path d="M42 255.46C31.76 250.6 24.3 270.98 33.78 275.32C38.78 277.6 43.78 273.18 45.66 268.88C47.8 264.24 47.12 257.86 42 255.46ZM42.7 269.46C42.3016 270.16 41.756 270.766 41.1008 271.234C40.4454 271.702 39.6964 272.022 38.905 272.172C38.1138 272.322 37.2994 272.3 36.518 272.104C35.7368 271.908 35.0072 271.546 34.38 271.04C29.12 266.42 34.38 254.38 41.22 259.54C42.6824 260.688 43.656 262.348 43.9454 264.184C44.2348 266.02 43.8184 267.898 42.78 269.44L42.7 269.46Z" fill="#0D128A"/>
<path d="M26.34 262.68C25.1642 262.796 23.9784 262.604 22.9 262.12C21.38 261.42 19.6601 264.9 20.9 265.48C22.1434 266.08 23.523 266.342 24.9 266.24C27.1 266 27.68 262.58 26.34 262.68Z" fill="#0D128A"/>
<path d="M29.74 257.02L26.22 254.6C24.94 253.72 22.92 257.04 24.22 257.96L27.76 260.4C29.08 261.28 31.1 258 29.74 257.02Z" fill="#0D128A"/>
<path d="M35.36 252.38C35.64 253.22 36.54 253.06 37.1 252.58C37.4676 252.27 37.7452 251.868 37.9034 251.414C38.0618 250.96 38.0952 250.472 38 250C37.72 249.12 37.42 248.24 37.12 247.34C36.82 246.44 35.94 246.66 35.38 247.16C35.0148 247.456 34.7338 247.842 34.5654 248.282C34.3968 248.72 34.3466 249.196 34.42 249.66C34.78 250.62 35.08 251.5 35.36 252.38Z" fill="#0D128A"/>
<path d="M46 276.56C45.3 274.68 42.8 277.5 43.3 278.88C43.8 280.26 44.28 281.54 44.78 282.88C45.46 284.76 47.98 281.94 47.48 280.56C46.98 279.18 46.46 278 46 276.56Z" fill="#0D128A"/>
<path d="M350.2 272C349.8 277.68 354.86 281.28 360.2 280.32C362.686 279.832 364.926 278.492 366.532 276.532C368.138 274.572 369.01 272.114 369 269.58C369.022 267.844 368.508 266.144 367.528 264.712C366.546 263.28 365.146 262.186 363.52 261.58C354.98 258.46 350.56 266.64 350.2 272ZM360.62 276.84C359.166 277.11 357.664 276.892 356.346 276.22C355.03 275.546 353.972 274.456 353.34 273.12C351.62 268.28 356.46 261.42 362.92 265.66C367.16 268.46 367.62 276 360.62 276.86V276.84Z" fill="#0D128A"/>
<path d="M362 258.6C362.44 258.426 362.828 258.142 363.126 257.774C363.424 257.406 363.622 256.968 363.7 256.5C363.908 255.506 364.31 254.562 364.88 253.72C365.32 253.08 365.94 251.98 365.38 251.24C364.82 250.5 363.82 251.24 363.38 251.7C362.196 253.346 361.346 255.208 360.88 257.18C360.84 258 361.18 258.8 362 258.6Z" fill="#0D128A"/>
<path d="M370.12 255.82L367.48 258.14C367.108 258.436 366.822 258.824 366.648 259.268C366.476 259.71 366.426 260.192 366.5 260.66C366.76 261.52 367.7 261.32 368.24 260.86L370.88 258.54C371.25 258.244 371.536 257.854 371.708 257.412C371.88 256.97 371.932 256.49 371.86 256.02C371.6 255.16 370.66 255.36 370.12 255.82Z" fill="#0D128A"/>
<path d="M364 285C363.76 284.12 362.82 284.34 362.28 284.8C361.912 285.1 361.63 285.49 361.458 285.93C361.286 286.372 361.232 286.852 361.3 287.32C361.806 289.054 362.648 290.672 363.78 292.08C364.88 293.44 367.14 290.32 366.2 289.14C365.194 287.924 364.446 286.514 364 285Z" fill="#0D128A"/>
<path d="M353.82 283.88C353.384 284.058 353 284.344 352.706 284.712C352.412 285.08 352.218 285.516 352.14 285.98L351.24 289.3C351.04 290.02 351.44 290.9 352.28 290.72C352.716 290.542 353.1 290.256 353.394 289.888C353.688 289.52 353.882 289.084 353.96 288.62L354.86 285.28C355.04 284.58 354.66 283.68 353.82 283.88Z" fill="#0D128A"/>
<path d="M389.86 273.8C389.42 263.8 388.16 253.08 383.42 244.04C376.34 230.54 361.04 227.06 349.9 236.22C352.058 224.47 353.522 212.602 354.28 200.68C355.38 185.06 360.28 164.68 347.9 152.1C337.4 141.36 320.68 139.9 306.68 137.72C245.62 128.14 156.5 123.58 96.94 133.02C88.9376 133.935 81.0944 135.919 73.62 138.92C61.2622 144.618 51.3012 154.48 45.48 166.78C39.28 180 39.26 193.66 42 207.7C43.8208 217 46.396 226.138 49.7 235.02C40 227.88 27.06 231.02 20 240C3.86 260.44 10.98 310 15.88 335.6C19.62 355.3 18.76 349.38 20 354.64C19.9816 354.806 20.0162 354.972 20.099 355.116C20.1818 355.26 20.3082 355.374 20.46 355.44C21.72 355.96 329.18 353.96 329.22 354.46C329.26 354.96 329.42 355.48 329.94 355.48H377.94C378.6 355.48 379.26 354.78 379.66 354C379.796 353.798 379.898 353.576 379.96 353.34C385.84 330.38 390.86 297.34 389.86 273.8ZM42.82 190.12C42.7144 179.128 46.0952 168.384 52.477 159.433C58.8588 150.482 67.9134 143.784 78.34 140.3C86.5824 137.892 95.0328 136.265 103.58 135.44C149.06 129.24 231.14 129.14 310.3 142.06C317.92 142.985 325.426 144.688 332.7 147.14C339.246 149.333 344.908 153.585 348.84 159.26C353.54 166.68 353.52 176.16 352.98 184.64C352.01 202.978 349.914 221.24 346.7 239.32C340.98 245.78 337.38 255.08 335.14 263.48C321.48 263.7 67.6 264.74 65.6 264.74C63.6 256.56 60.26 247.16 55.16 240.54C54.34 236.7 43.12 213.42 42.82 190.12ZM68.68 337.48C68.42 350.84 68.2 348.52 68.04 351.86H22.6C16 326 6.82 271.54 18.24 247.24C21.72 239.82 28.24 234.66 36.64 234.68C67.58 234.72 69.32 306.3 68.68 337.48ZM328.9 350.6C67.76 351.86 71.06 351.8 70.9 351.82C72.0316 333.574 71.9046 315.27 70.52 297.04L329.88 294.9C328.38 313.428 328.052 332.032 328.9 350.6ZM70.16 293.38C69.4174 285.002 68.1818 276.674 66.46 268.44L334.22 267.04C332.366 275.052 331.03 283.176 330.22 291.36C288.78 292.38 70.36 293.36 70.16 293.38ZM385.86 305.2C384.18 321 380.82 336.32 377.7 351.86H332C330 322.78 329.54 241.64 358.14 235.12C361.996 234.316 366.004 234.658 369.668 236.106C373.332 237.552 376.492 240.038 378.76 243.26C389.28 257.82 387.74 287.42 385.86 305.2Z" fill="#0D128A"/>
<path d="M251.64 62L154.36 60C153.16 60 152.36 61.48 152.36 62.56V76.84C148.5 75.26 144.14 78.62 143.82 82.84C143.44 87.7 148.62 90.1 152.36 86.5V104.02C152.36 104.42 152.58 105.02 153.08 105.02H250.36C251.42 105.02 252.36 103.24 252.36 102.46V62.98C252.38 62.56 252.14 62 251.64 62ZM152.3 83.58C151.02 83.74 150.98 85.58 148.3 84.5C147.766 84.2854 147.312 83.9104 147.001 83.4268C146.689 82.9432 146.535 82.3748 146.56 81.8C146.78 78.08 152.12 81.36 152.32 81.4L152.3 83.58ZM155.1 101.58V63.58L175.28 63.98C175.16 76.5 175.607 89 176.62 101.48L155.1 101.58ZM179.34 101.58C180.18 99.58 177.92 93.38 178.08 64.14L211.7 64.8C211.94 77.08 212.546 89.34 213.52 101.58H179.34ZM249.56 101.58H216.16C216.66 100.52 215.1 89.38 214.56 64.86L249.56 65.56V101.58Z" fill="#0D128A"/>
<path d="M125.2 49.32C124.06 48.34 122 51.6 123.2 52.68L137.08 64.68C138.2 65.66 140.28 62.38 139.08 61.32L125.2 49.32Z" fill="#0D128A"/>
<path d="M133.16 76.1402L110.3 75.6602C108.8 75.6602 107.28 79.1802 108.96 79.2202L131.82 79.7002C133.34 79.7402 134.84 76.1802 133.16 76.1402Z" fill="#0D128A"/>
<path d="M125.5 96.8002C120.546 99.025 115.223 100.313 109.8 100.6C108.3 100.6 106.84 104.24 108.46 104.14C114.37 103.852 120.173 102.448 125.56 100C126.92 99.3802 127.62 95.8402 125.5 96.8002Z" fill="#0D128A"/>
<path d="M284.84 44.5802C276.422 46.8992 268.514 50.7724 261.52 56.0002C260.18 57.0202 260.24 60.2402 262.28 58.7202C268.88 53.8196 276.344 50.2036 284.28 48.0602C285.56 47.7002 286.72 44.0002 284.84 44.5802Z" fill="#0D128A"/>
<path d="M291.26 68.78C282.998 69.861 274.856 71.7158 266.94 74.32C265.56 74.76 264.44 78.42 266.28 77.82C274.196 75.2158 282.338 73.361 290.6 72.28C292 72 293.26 68.52 291.26 68.78Z" fill="#0D128A"/>
<path d="M292.6 94.1002L275.22 94.6202C273.7 94.6202 272.24 98.2202 273.88 98.1802L291.26 97.6602C292.78 97.6202 294.24 94.0002 292.6 94.1002Z" fill="#0D128A"/>
<path d="M306 215.3L256.52 212.28V266H309.64C308.466 249.094 307.254 232.194 306 215.3Z" fill="#FF3E74"/>
<path d="M222.7 316.76C222.98 311.96 223.166 307.154 223.26 302.34C214.804 303.262 206.268 303.148 197.84 302C197.684 307.878 198.357 313.75 199.84 319.44C200.12 320.44 200.26 323.06 201.84 321.12C202.98 319.74 202.46 315.6 202.5 313.8C202.5 312.38 205.2 309.8 205.3 312.24C205.3 314 205.56 320.66 206.8 321.92C209.42 324.58 209.96 314.8 210.06 313.66C210.16 312.52 212.74 309.66 212.86 312.1C212.85 315.004 213.288 317.89 214.16 320.66C215.54 324.26 215.68 322.66 216.16 320C216.416 318.172 216.464 316.32 216.3 314.48C216.3 313.32 218.78 310.68 219.06 312.48C219.288 314.52 219.722 316.53 220.36 318.48C220.74 319.5 221.24 321.64 222.6 320.36C222.9 320 222.66 317.5 222.7 316.76Z" fill="#FF3E74"/>
<path d="M179.52 210C172.3 209.32 161.52 208.64 153 208.64C147 208.64 140.18 208.64 134.74 210.78C133.8 211.16 134.2 211.04 134 211.5C132.915 214.746 132.177 218.098 131.8 221.5C130.96 226.48 130.3 231.5 129.8 236.5C129.8 237.38 128.78 238.68 127.8 238.62C115.767 237.64 103.673 237.64 91.64 238.62C87.5414 238.82 83.496 239.636 79.64 241.04C79.52 241.6 79.4 242.1 79.28 242.52C79.229 242.706 79.1478 242.882 79.04 243.04C78.6 246.36 75.98 249.62 72.66 249.5C72.076 251.728 72.0076 254.062 72.46 256.32C74.9 267.7 90.9 266.58 99.88 266.8C104.34 266.9 113.66 266.8 113.88 266.8C118.174 266.856 122.355 265.422 125.71 262.742C129.065 260.062 131.387 256.3 132.28 252.1C132.54 250.88 134.72 249.7 134.28 251.58C133.622 254.862 132.239 257.954 130.232 260.632C128.225 263.312 125.645 265.508 122.68 267.06C126.68 267.06 181.88 266.24 181.92 266.24C179.979 247.56 179.178 228.778 179.52 210ZM146.6 218.56C147.48 224.56 154.22 225.92 159.24 226.56C160.54 226.74 159.36 229.38 158.24 229.24C152.72 228.5 145.52 226.8 144.58 220.26C144.42 219.24 146.4 217.16 146.6 218.56ZM160.32 236.82C158.84 241.96 150.64 241.38 146.68 240.82C143.34 240.32 134.52 238.46 135.3 233.5C136.08 228.54 144.24 228.62 147.86 229.02C151.48 229.42 160.6 231.02 160.46 236.18C160.44 236.2 160.36 236.66 160.32 236.82Z" fill="#FF3E74"/>
<path d="M182.3 210.2C182.013 228.834 182.848 247.468 184.8 266H193C192.68 255.6 192.527 245.2 192.54 234.8C192.54 233.32 195.34 230.96 195.34 233.24C195.34 255.24 196 276.76 197.34 298.26C204.272 299.322 211.296 299.678 218.3 299.32C221.34 299.16 225.62 299.32 228.44 298.12C231.6 296.68 230.2 291.12 230.06 288.12C229.74 281.92 228.22 251.56 227.86 244.36C227.86 242.9 230.54 240.48 230.66 242.8C231.034 250.52 231.42 258.226 231.82 265.92H253.82V211.76C244.64 211.52 282.6 212.38 182.3 210.2Z" fill="#FFDE26"/>
<path d="M143.36 231.48C142 231.48 138.46 231.48 137.74 232.84C137.02 234.2 139.74 235.78 142.44 236.84C142.142 235.94 142.07 234.98 142.23 234.046C142.391 233.11 142.779 232.23 143.36 231.48Z" fill="white"/>
<path d="M148.78 232C149.053 233.086 149.01 234.228 148.655 235.292C148.301 236.354 147.65 237.294 146.78 238C149.06 238.44 157 239.6 158.4 237.04C158 234 151.76 232.48 148.78 232Z" fill="white"/>
<path d="M158.24 229.28C159.36 229.42 160.54 226.78 159.24 226.6C154.22 225.92 147.46 224.6 146.6 218.6C146.4 217.2 144.42 219.28 144.6 220.34C145.52 226.84 152.72 228.54 158.24 229.28Z" fill="#0D128A"/>
<path d="M147.86 228.98C144.22 228.58 136.1 228.32 135.3 233.46C134.5 238.6 143.3 240.28 146.68 240.78C150.68 241.38 158.84 241.96 160.32 236.78C160.32 236.62 160.44 236.16 160.46 236.1C160.6 230.98 151.5 229.38 147.86 228.98ZM142.44 236.74C139.74 235.78 136.92 234.36 137.74 232.74C138.56 231.12 142 231.4 143.36 231.38C142.783 232.132 142.398 233.012 142.238 233.946C142.078 234.88 142.147 235.84 142.44 236.74ZM146.72 237.94C147.592 237.236 148.244 236.296 148.599 235.234C148.953 234.17 148.995 233.026 148.72 231.94C151.68 232.46 157.92 233.94 158.28 236.98C156.94 239.54 149 238.38 146.72 238V237.94Z" fill="#0D128A"/>
<path d="M328.92 258.3C328.26 248.3 328.08 238.04 326.92 228.04C325.8 218.56 316.92 218.16 309.28 219.52L308.8 212.78C308.8 212.34 308.58 211.82 308.06 211.78C208.76 205.78 185.94 206.86 175.16 206.02L182.48 175.32C183.58 170.74 185.1 165.96 184.6 161.2C184.093 157.488 182.427 154.031 179.84 151.32C176.88 147.98 168.66 139.62 165.42 146.94C164 150.18 165.88 153.58 167.24 156.52C168.403 159.01 169.692 161.44 171.1 163.8C170.17 163.583 169.193 163.706 168.346 164.146C167.499 164.586 166.837 165.315 166.48 166.2C164.28 170.5 168.48 173.54 170.64 176.78C168.514 181.354 167.508 186.368 167.706 191.408C167.905 196.448 169.301 201.368 171.78 205.76C168.24 205.52 164.7 205.36 161.14 205.26C161.14 204.98 156.4 194.98 147.58 174.74C144.18 166.92 141.18 159.7 132.12 157.5C127.88 156.48 116.76 154.38 116.12 161.38C115.84 165.02 119.54 166.86 122.12 168.34C125.065 169.967 128.111 171.403 131.24 172.64C130.412 173.02 129.715 173.637 129.238 174.413C128.761 175.189 128.525 176.09 128.56 177C128.643 177.998 129.02 178.948 129.643 179.731C130.266 180.514 131.107 181.095 132.06 181.4C133.24 181.88 134.52 181.92 135.7 182.3C137.92 183 138.2 183.8 138.8 185.88C140.061 190.115 142.218 194.03 145.123 197.36C148.028 200.69 151.615 203.356 155.64 205.18C149.28 205.18 142.2 205.04 136.66 206.8C131.72 208.36 130.92 212.18 129.9 216.8C128.62 222.8 127.78 228.8 127.1 234.92C115.96 234.26 90.12 233.38 79.9 237.78C80.36 233.54 80 228.5 76.5 227.18C68.5 224.14 61.62 244.56 70.02 248.9C68.36 254.14 68.62 260.26 72.38 264.32C76.14 268.38 82.38 269.6 88.04 269.96C112.04 271.54 136.18 270.54 160.04 270.14C184.7 269.72 189.66 269.42 192.8 269.42C193.147 279.82 193.647 290.206 194.3 300.58C194.299 300.766 194.346 300.948 194.437 301.11C194.528 301.272 194.66 301.406 194.82 301.5C194.583 305.826 194.757 310.166 195.34 314.46C195.74 317.3 195.94 323.26 198.38 325.24C200.2 326.7 202.38 324.94 203.2 323.24C203.92 325.46 205.2 327.04 207.32 326.54C208.164 326.284 208.934 325.822 209.558 325.198C210.182 324.574 210.642 323.804 210.9 322.96C211.62 325.14 212.76 326.72 214.66 326.38C216.56 326.04 217.32 324.54 217.92 322.6C218.26 323.244 218.692 323.838 219.2 324.36C220.88 326 222.92 325.08 224 323.24C225.54 320.66 225.12 316.72 225.28 313.82C225.5 309.82 225.64 305.82 225.74 301.82C235.26 299.82 232.92 293.12 232.42 283.26C232.18 278.76 231.72 269.4 231.72 269.4H310.32C310.902 269.278 311.422 268.954 311.788 268.486C312.154 268.018 312.342 267.434 312.32 266.84V266.72C314.1 269.38 315.98 271.96 318 274.44C319.64 276.44 322.18 280.82 325.3 280.28C328.42 279.74 329.52 276.18 329.54 273.52C330 268.54 329.24 263.36 328.92 258.3ZM122.62 267.12C125.585 265.568 128.165 263.372 130.172 260.694C132.179 258.014 133.562 254.922 134.22 251.64C134.62 249.76 132.44 250.94 132.22 252.16C131.327 256.36 129.005 260.122 125.65 262.802C122.295 265.482 118.114 266.918 113.82 266.86C113.62 266.86 104.3 267.04 99.82 266.86C90.84 266.64 74.84 267.76 72.4 256.38C71.9476 254.122 72.016 251.788 72.6 249.56C75.92 249.68 78.6 246.42 78.98 243.1C79.3086 242.48 79.5126 241.8 79.58 241.1C83.436 239.696 87.4812 238.88 91.58 238.68C103.613 237.7 115.707 237.7 127.74 238.68C128.74 238.68 129.74 237.44 129.74 236.56C130.28 231.54 130.94 226.56 131.74 221.56C132.117 218.158 132.855 214.806 133.94 211.56C134.14 211.1 133.74 211.22 134.68 210.84C135.461 210.51 136.263 210.23 137.08 210C146.54 207.56 169.74 209.14 179.46 210C179.116 228.77 179.897 247.544 181.8 266.22C179.7 266.34 126.26 267.1 122.62 267.12ZM222.46 320.42C221.1 321.7 220.6 319.56 220.22 318.54C219.582 316.59 219.148 314.58 218.92 312.54C218.64 310.68 216.08 313.32 216.16 314.54C216.312 316.36 216.258 318.192 216 320C215.58 322.58 215.44 324.26 214 320.66C213.12 317.894 212.68 315.004 212.7 312.1C212.58 309.66 210 312.34 209.9 313.66C209.8 314.98 209.26 324.58 206.64 321.92C205.4 320.66 205.22 313.92 205.14 312.24C205.14 309.9 202.36 312.38 202.34 313.8C202.34 315.6 202.82 319.8 201.68 321.12C200.1 323.12 199.96 320.44 199.68 319.44C198.185 313.752 197.511 307.88 197.68 302C206.11 303.13 214.646 303.224 223.1 302.28C223.006 307.106 222.82 311.914 222.54 316.7C222.66 317.5 222.9 320 222.46 320.42ZM253.78 266H231.78C231.406 258.306 231.02 250.6 230.62 242.88C230.5 240.64 227.74 242.88 227.82 244.44C228.18 251.64 229.7 282 230.02 288.2C230.16 291.16 231.56 296.72 228.4 298.2C225.58 299.5 221.3 299.24 218.26 299.4C211.256 299.758 204.232 299.402 197.3 298.34C195.82 274.96 195.3 251.12 195.3 233.32C195.3 231.04 192.5 233.32 192.5 234.88C192.5 245.28 192.653 255.68 192.96 266.08H184.8C182.848 247.548 182.013 228.914 182.3 210.28L253.78 211.84V266ZM256.58 266V212.28L306 215.3C307.2 232.18 308.414 249.054 309.64 265.92L256.58 266Z" fill="#0D128A"/>
</svg>
