<svg width="400" height="400" viewBox="0 0 400 400" fill="none" xmlns="http://www.w3.org/2000/svg">
<g clip-path="url(#clip0_902_8956)">
<path d="M81.2 232.862C81.2 230.74 71.12 230.872 58 230.872C44.88 230.872 33.732 233.924 33.732 236.046C33.732 238.168 44.332 239.892 57.47 239.892C70.608 239.892 81.2 234.984 81.2 232.862Z" fill="black"/>
<path d="M50.424 188.7C50.424 188.566 50.29 188.434 50.29 188.3C49.362 185.382 51.22 184.984 53.606 186.046C55.728 186.974 58.248 190.29 60.502 189.758C63.818 188.958 61.702 185.116 60.238 183.526C57.718 180.476 55.198 177.69 52.944 174.508C51.484 172.386 50.158 169.468 51.882 167.61C53.882 165.49 57.452 167.21 59.442 169.21C61.43 171.332 63.95 173.852 66.736 173.056C69.122 169.476 66.736 164.702 63.686 161.784C60.636 158.734 56.79 156.214 55.462 152.234C54.534 149.45 55.728 145.604 58.646 145.206C59.713 145.232 60.7484 145.573 61.6216 146.186C62.4948 146.8 63.1665 147.659 63.552 148.654C64.2568 150.68 65.2388 152.599 66.47 154.356C67.796 155.956 70.582 156.876 72.174 155.418C72.5791 154.951 72.873 154.398 73.0337 153.801C73.1944 153.203 73.2178 152.578 73.102 151.97C72.4545 148.738 70.78 145.802 68.328 143.6C65.8989 141.373 64.0349 138.6 62.89 135.51C61.962 132.328 63.29 128.35 66.338 127.42C67.8626 127.13 69.4406 127.418 70.7646 128.227C72.0886 129.037 73.0637 130.311 73.5 131.8C74.428 134.452 74.56 138.298 77.346 138.828C79.998 139.358 81.722 136.176 81.854 133.524C82.12 128.75 79.998 124.108 79.468 119.334C78.938 114.56 80.528 108.734 85.038 107.398C88.884 106.198 93.26 108.998 94.852 112.702C96.2223 116.58 96.1277 120.825 94.586 124.638C93.26 128.484 91.404 132.198 90.21 136.038C90.0001 136.5 89.9027 137.005 89.9256 137.512C89.9486 138.019 90.0913 138.513 90.342 138.954C91.27 140.154 93.392 139.618 94.454 138.424C95.516 137.23 96.054 135.64 97.238 134.712C99.758 132.722 103.87 134.844 104.666 138.026C104.924 139.621 104.738 141.256 104.13 142.753C103.522 144.25 102.514 145.551 101.216 146.514C98.6543 148.433 95.901 150.082 93 151.434C91.012 152.494 87.564 154.35 86.634 156.606C84.778 161.114 93 156.472 93.928 155.806C96.184 154.082 99.764 152.756 101.62 155.006C102.02 155.608 102.255 156.305 102.302 157.027C102.348 157.748 102.205 158.469 101.886 159.118C98.968 166.942 85.972 166.942 83.054 174.766C85.308 175.828 87.96 174.366 90.082 173.042C92.204 171.718 95.256 170.788 97.112 172.512C100.692 175.96 96.184 180.336 93.266 182.326C89.288 184.978 82.922 184.326 80.136 188.162C79.8791 188.413 79.6825 188.72 79.5611 189.058C79.4397 189.396 79.3966 189.758 79.4351 190.115C79.4736 190.472 79.5927 190.816 79.7834 191.121C79.9741 191.426 80.2314 191.683 80.536 191.874C81.4785 192.359 82.5738 192.454 83.586 192.14C86.77 191.61 90.482 191.476 90.35 195.986C90.35 199.036 87.83 201.158 85.576 202.882C80.668 206.596 70.192 213.492 63.694 210.442C56.8 206.6 52.546 195.728 50.424 188.7Z" fill="#FF465A"/>
<path d="M64.084 246.256C59.574 220.256 67.134 195.994 74.428 172.52C80.262 153.556 86.364 133.92 86.098 113.504H87.558C87.958 134.192 81.722 153.82 75.886 172.918C68.6 196.26 61.166 220.264 65.674 246L64.084 246.256Z" fill="white"/>
<path d="M25.092 215.754C24.9417 215.589 24.7619 215.453 24.562 215.354C21.512 212.57 23.502 210.846 26.816 210.448C29.868 210.048 35.04 212.172 37.426 210.048C40.874 206.864 35.57 203.946 32.784 202.886C27.878 201.03 22.97 199.57 18.064 197.448C15.014 196 11.432 193.474 12.096 190.158C12.896 186.312 18.196 185.914 22.042 186.842C25.888 187.77 30.53 189.098 33.182 186.18C33.448 180.478 27.48 176.498 21.91 175.04C16.34 173.582 10.11 173.316 5.862 169.602C2.812 166.95 1.618 161.646 4.8 159.258C7.188 157.534 10.502 158.458 13.022 159.92C15.2646 161.783 17.7116 163.385 20.316 164.696C23.102 165.624 26.814 164.828 27.61 162.042C27.7458 161.198 27.6976 160.334 27.4687 159.51C27.2399 158.686 26.8357 157.921 26.284 157.268C23.632 153.688 19.256 152.096 15.012 150.77C10.768 149.444 6.392 148.25 3.212 145.2C0.0319979 142.15 -1.296 136.58 1.612 133.264C4.398 130.214 9.836 130.744 13.012 133.53C15.93 136.05 18.716 140.294 22.296 139.1C25.744 137.9 25.612 132.998 23.896 129.816C20.844 124.114 15.408 120.134 11.428 114.962C7.448 109.79 5.46 101.962 9.704 97.192C13.418 93.08 20.314 93.346 24.69 96.66C28.8942 100.28 31.7077 105.25 32.648 110.718C33.848 116.024 34.108 121.594 35.3 127.032C35.352 127.717 35.5731 128.378 35.9435 128.956C36.3138 129.535 36.8218 130.012 37.422 130.346C39.412 131.146 41.402 129.02 41.798 126.898C41.8734 124.808 42.0953 122.725 42.462 120.666C44.062 116.686 50.286 116.288 53.336 119.34C56.386 122.392 56.52 127.428 55.194 131.54C53.5644 135.569 51.4724 139.394 48.96 142.94C47.37 145.592 44.584 150.102 45.114 153.416C46.042 160.048 52.408 148.908 53.072 147.448C54.53 143.868 57.846 139.89 61.426 141.348C62.3113 141.786 63.0693 142.443 63.6275 143.258C64.1858 144.072 64.5254 145.016 64.614 146C66.604 157.14 51.484 165.892 53.34 177.032C56.656 176.768 58.646 173.186 60.37 170.27C61.97 167.352 64.878 164.036 68.062 164.832C74.56 166.432 72.438 174.646 70.45 178.89C67.664 184.592 59.85 188.174 59.05 194.672C58.9334 195.147 58.9229 195.641 59.0194 196.121C59.116 196.6 59.317 197.052 59.6084 197.444C59.8997 197.837 60.274 198.16 60.7047 198.392C61.1354 198.623 61.6118 198.756 62.1 198.782C63.501 198.657 64.8145 198.048 65.814 197.058C69.128 194.274 73.372 191.622 76.414 196.794C78.414 200.374 76.946 204.618 75.486 208.066C72.304 215.758 64.886 231.01 55.064 231.806C44.986 232.332 32.52 222.386 25.092 215.754Z" fill="#FDB849"/>
<path d="M59.574 253.02C58.3103 245.817 56.4922 238.723 54.136 231.8C52.536 226.628 50.822 221.322 49.628 216.018C48.168 209.52 46.444 202.888 44.72 196.522C42.9867 190.193 41.395 183.826 39.946 177.426L39.546 175.57C34.11 151.036 28.546 125.57 15.146 103.822L16.746 102.762C30.274 124.776 35.844 150.372 41.28 175.172L41.68 177.03C43.14 183.394 44.864 189.894 46.454 195.994C48.178 202.36 49.902 208.994 51.362 215.622C52.5835 220.915 54.0883 226.138 55.87 231.27C58.3479 238.256 60.2116 245.446 61.44 252.756L59.574 253.02Z" fill="white"/>
<path d="M70.184 328.216C74.958 295.326 76.55 265.884 81.184 232.862C66.3202 239.921 49.2933 240.92 33.706 235.648C39.276 265.222 44.306 299.836 49.884 329.41C54.932 334.45 64.878 333.786 70.184 328.216Z" fill="#643CFF"/>
<path d="M164.874 159.92C181.711 128.179 209.453 103.593 242.988 90.694C263.81 82.736 287.15 79.694 308.502 86.052C337.148 94.672 358.634 119.472 370.57 146.792C382.506 174.112 386.352 204.348 389.932 234.056C392.85 257.398 395.634 280.606 398.552 303.946C400.542 320.524 402.132 339.224 391.524 352.22C385.024 360.178 375.21 364.42 365.398 367.472C340.066 375.43 313.278 376.756 286.886 377.816C223.494 380.204 160.101 380.604 96.708 379.016C77.212 378.486 56.656 377.558 40.476 366.682C33.448 361.908 27.348 355.144 25.358 346.79C23.758 340.026 25.092 332.864 27.214 326.1C39.682 286.978 77.346 262.84 107.45 234.724C134.304 209.573 156.21 179.615 172.036 146.4" fill="#14D29B"/>
<path d="M398.42 303.946C395.502 280.606 392.716 257.398 389.8 234.056C386.218 204.348 382.372 174.244 370.436 146.792C362.612 128.756 350.544 111.78 335.036 99.976C338.462 105.147 341.435 110.605 343.922 116.288C351.35 133.53 354.798 152.23 357.052 170.664C358.533 182.765 359.286 194.943 359.306 207.134C359.306 216.152 361.164 230.734 353.604 237.372C352.162 238.637 350.478 239.595 348.654 240.188C346.83 240.781 344.904 240.996 342.994 240.82C345.561 242.437 347.447 244.936 348.298 247.848C357.318 270.262 343.79 296.918 332.782 316.414C323.366 333.256 309.982 347.58 292.068 355.536C283.978 359.25 224.696 378.878 228.278 354.608C228.006 357.473 227.333 360.285 226.278 362.962C224.156 367.738 220.708 369.064 215.802 369.462C187.113 372.046 158.238 371.778 129.602 368.662C120.186 367.6 110.638 366.408 101.354 364.816C92.998 363.49 83.582 361.632 76.818 356.328C73.768 353.94 71.382 350.626 72.178 346.646C72.84 342.8 77.35 339.352 74.432 335.374C71.912 331.926 66.342 331.13 62.632 329.672C59.2148 328.35 55.8527 326.889 52.554 325.294C45.79 322.112 37.832 318.134 33.456 311.768L33.324 311.634C30.8846 316.271 28.8432 321.107 27.222 326.09C25.1 332.722 23.774 339.89 25.366 346.78C27.356 355.134 33.324 361.898 40.484 366.672C56.664 377.548 77.22 378.608 96.716 379.006C160.108 380.598 223.501 380.198 286.894 377.806C313.418 376.746 340.208 375.42 365.406 367.462C375.218 364.412 385.032 360.168 391.532 352.21C402 339.224 400.542 320.524 398.42 303.946Z" fill="#008C6E"/>
<path d="M149.624 291.746C144.654 294.004 140.556 297.822 137.952 302.62C136.228 305.936 135.168 309.65 132.516 312.302C126.946 317.74 116.998 315.882 111.296 321.054C120.182 319.198 129.332 321.854 137.696 325.432C146.06 329.01 154.14 333.256 163.158 334.848C173.758 336.704 184.644 334.448 195.518 333.648C206.392 332.848 218.064 334.048 226.154 341.34C225.226 331.658 231.988 322.906 240.078 317.468C248.168 312.03 257.584 308.582 265.012 302.216C276.412 292.536 281.588 277.55 287.69 263.89C293.792 250.23 300.952 237.366 315.274 232.194C308.644 231.53 304.664 229.54 301.474 224.104C298.292 218.798 297.628 212.304 297.362 205.934C296.809 195.192 296.987 184.426 297.894 173.708C299.352 162.434 303.33 149.836 295.108 144.928C280.388 136.176 230.522 159.384 222.432 175.432C211.69 196.518 211.432 221.584 201.478 242.936C191.266 264.426 171.24 281.932 149.624 291.746Z" fill="#008C6E"/>
<path d="M164.874 159.92C166.074 157.534 167.528 155.28 168.854 152.892C169.914 150.77 170.976 148.516 172.036 146.394L164.874 159.92Z" fill="#14D29B"/>
<path d="M201.478 302.488C203.078 308.722 204.794 315.088 208.506 320.26C210.232 322.514 212.486 325.166 211.558 327.952C210.758 330.736 207.314 331.664 204.528 332.726C198.162 335.112 193.256 340.152 188.084 344.526C182.778 348.904 176.284 352.616 169.516 351.422C169.151 351.382 168.797 351.267 168.478 351.085C168.158 350.903 167.88 350.657 167.66 350.362C166.86 349.036 168.46 347.71 169.66 346.914C176.29 342.272 179.076 334.05 183.85 327.552C185.757 325.342 187.362 322.89 188.624 320.258C190.878 314.82 188.89 308.72 187.024 303.15C190.208 302.137 193.504 301.513 196.838 301.292C197.652 301.163 198.484 301.203 199.282 301.409C200.08 301.615 200.828 301.982 201.478 302.488Z" fill="#9778FF"/>
<path d="M168.986 301.162C169.252 307.528 169.516 314.162 172.036 319.994C173.236 322.646 174.822 325.696 173.362 328.216C171.902 330.736 168.322 330.868 165.406 331.266C158.642 332.196 152.806 336.174 146.706 339.224C140.606 342.274 133.444 344.662 127.21 342.008C126.869 341.905 126.553 341.735 126.28 341.507C126.007 341.279 125.782 340.999 125.62 340.682C125.22 339.224 126.946 338.296 128.404 337.632C135.83 334.582 140.34 327.022 146.44 321.718C148.74 319.925 150.831 317.879 152.674 315.618C155.99 310.844 155.458 304.344 154.796 298.642C158.158 298.31 161.549 298.445 164.874 299.042C166.466 299.195 167.938 299.954 168.986 301.162Z" fill="#643CFF"/>
<path d="M218.188 40.696C217.256 39.2594 216.654 37.6344 216.425 35.9376C216.196 34.2408 216.345 32.5143 216.862 30.882C218.187 27.3296 220.787 24.3979 224.156 22.658C228.81 20.1024 234.255 19.3926 239.408 20.67C244.558 21.9811 249.044 25.1448 252.008 29.556C255.058 34.196 255.988 40.828 252.408 45.204C249.756 48.52 245.114 49.58 240.87 49.714C233.838 49.714 222.432 47.06 218.188 40.696Z" fill="black"/>
<path d="M216.862 43.214C221.504 38.972 228.532 38.574 234.5 40.43C238.001 41.4039 241.137 43.387 243.518 46.132C244.697 47.4965 245.529 49.1252 245.945 50.8799C246.361 52.6345 246.347 54.4636 245.906 56.212C245.417 57.9414 244.373 59.4622 242.935 60.5405C241.497 61.6188 239.745 62.1948 237.948 62.18C236.38 62.0029 234.854 61.5542 233.44 60.854C228.235 58.4269 223.186 55.6803 218.32 52.63C214.474 50.244 212.884 46.8 216.862 43.214Z" fill="#D70A32"/>
<path d="M176.546 86.052C177.062 80.2011 178.833 74.5303 181.74 69.4262C184.646 64.3222 188.619 59.905 193.388 56.476C198.28 53.0255 203.837 50.6306 209.705 49.4434C215.573 48.2562 221.623 48.3027 227.472 49.58C230.755 50.2142 233.898 51.4271 236.756 53.162C241.222 56.2234 244.829 60.3783 247.232 65.23C250.162 70.6191 252.22 76.4377 253.332 82.47C254.503 89.0459 254.549 95.773 253.466 102.364C253.199 104.893 252.205 107.291 250.605 109.268C249.004 111.244 246.866 112.716 244.448 113.504C238.797 115.537 232.623 115.583 226.942 113.636C214.342 109.526 200.942 106.474 188.742 101.302C185.162 99.702 181.05 98.518 178.664 95.334C176.764 92.6392 176.003 89.3042 176.546 86.052Z" fill="black"/>
<path d="M139.544 116.024C142.728 108.862 149.49 104.624 157.714 100.64C164.849 97.3282 172.662 95.7388 180.524 96C180.92 97.9501 181.497 99.8591 182.248 101.702C168.19 109.262 151.612 115.892 139.942 126.902C134.24 121.064 128.8 115.36 122.834 109.8C122.322 105.263 122.278 100.686 122.702 96.14C125.007 96.4442 127.224 97.2256 129.211 98.4343C131.197 99.643 132.91 101.252 134.24 103.16C137.353 106.761 139.214 111.275 139.544 116.024Z" fill="#FDB849"/>
<path d="M253.6 152.096C246.021 139.125 241.656 124.528 240.868 109.526C240.468 112.044 238.084 113.372 236.226 115.228C231.977 118.923 227.456 122.293 222.7 125.308C226.497 137.087 229.118 149.213 230.524 161.508C234.742 162.772 239.257 162.632 243.388 161.108C247.762 159.524 250.946 155.81 253.6 152.096Z" fill="black"/>
<path d="M286.222 243.472C287.682 214.03 288.478 196.392 289.936 167.072C290.336 158.982 290.736 150.76 288.336 143.072C285.936 135.384 280.246 128.218 272.422 126.23C263.138 123.974 253.856 129.412 245.622 134.32C237.388 139.228 227.188 143.736 218.568 139.624C214.456 137.624 212.998 132.198 208.886 130.208C205.04 128.208 200.134 129.808 196.95 132.728C193.919 135.887 191.652 139.698 190.32 143.868C175.6 181.134 178.252 200.63 187.668 239.62C193.654 242.942 255.056 245.726 286.222 243.472Z" fill="#643CFF"/>
<path d="M230.92 242.544C230.39 239.228 227.87 234.718 226.676 231.544C226.808 231.81 237.02 231.81 239.408 231.81C253.996 232.21 269.38 233.01 282.244 240.032C284.234 241.092 286.62 242.154 286.222 244.01C285.692 246.132 283.304 246.53 281.58 246.53C273.207 246.549 264.84 246.106 256.516 245.204C252.272 244.804 248.028 244.54 243.784 244.004C242.458 243.87 231.052 243.2 230.92 242.544Z" fill="black"/>
<path d="M163.018 179.682C159.702 169.082 146.44 163.634 135.83 166.818C125.22 170.002 117.53 179.818 114.346 190.556C111.162 201.294 112.49 214.556 115.408 225.302C124.824 260.846 132.648 281.136 145.38 311.102C153.072 315.214 168.456 312.826 175.618 308.45C173.76 288.292 171.638 279.672 169.516 264.022C167.394 248.372 168.854 237.1 163.284 222.246C167.373 208.339 167.281 193.537 163.018 179.682Z" fill="#D70A32"/>
<path d="M192.2 122.92C193.772 126.312 196.035 129.337 198.843 131.804C201.652 134.27 204.946 136.122 208.512 137.242C216.204 139.364 221.512 138.042 228.274 134.326C233.871 130.995 238.495 126.253 241.683 120.574C244.871 114.895 246.512 108.478 246.442 101.966C245.779 90.5867 243.131 79.411 238.618 68.944C235.966 62.842 228.672 60.322 222.438 58.864C210.9 56.212 193.128 56.61 187.426 69.076C182.784 79.022 183.05 92.676 185.304 103.026C186.678 109.943 188.999 116.637 192.2 122.92Z" fill="#F7846C"/>
<path d="M193.124 71.728C195.257 70.0649 197.796 69.0034 200.478 68.6538C203.16 68.3042 205.886 68.6793 208.374 69.74C210.184 68.9656 212.166 68.6805 214.121 68.9132C216.076 69.1459 217.936 69.8883 219.514 71.066C222.358 72.9705 224.61 75.6358 226.012 78.758C227.612 81.808 228.666 85.256 230.522 88.174C231.276 89.5536 232.298 90.7687 233.528 91.7478C234.757 92.727 236.171 93.4506 237.684 93.876C240.468 94.54 244.844 93.876 246.57 91.622C246.304 84.062 243.518 77.298 240.336 70.402C238.96 67.0225 236.419 64.2471 233.174 62.578C229.724 60.6507 226.079 59.0947 222.3 57.936C210.762 55.284 191.93 55.814 186.1 68.412C184.146 73.7802 183.028 79.4165 182.784 85.124C185.028 79.8477 188.588 75.2354 193.124 71.728Z" fill="black"/>
<path d="M202.672 99.712C200.418 97.192 196.306 93.876 192.858 94.274C189.41 94.672 186.36 96.66 185.166 101.7C185.166 101.7 187.686 103.69 193.52 103.16C196.842 102.93 200.024 101.731 202.672 99.712ZM228.93 97.058C226.676 94.54 222.564 91.224 219.116 91.622C215.668 92.02 212.618 94.008 211.424 99.048C211.424 99.048 213.944 101.038 219.78 100.506C223.102 100.278 226.283 99.0786 228.93 97.058Z" fill="white"/>
<path d="M193.918 94.274H192.858C189.41 94.674 186.36 96.66 185.166 101.7C185.166 101.7 187.686 103.69 193.52 103.16C194.549 103.058 195.569 102.88 196.572 102.628C195.352 99.9614 194.46 97.1561 193.918 94.274ZM220.31 91.622H218.984C215.536 92.022 212.486 94.008 211.292 99.048C211.292 99.048 213.812 101.038 219.648 100.506C220.678 100.417 221.698 100.24 222.698 99.976C221.52 97.3148 220.717 94.5035 220.31 91.622Z" fill="black"/>
<path d="M205.456 173.846C189.971 171.559 174.173 172.691 159.172 177.162C156.766 176.623 154.33 176.222 151.878 175.962C150.01 170.995 147.118 166.477 143.39 162.7C142.59 161.9 142.064 161.242 141.268 160.578C135.698 140.818 127.078 121.978 118.326 103.418C119.164 101.22 120.53 99.2613 122.304 97.716C126.602 98.9799 130.475 101.387 133.512 104.68C136.548 107.974 138.633 112.03 139.544 116.416C144.403 109.74 151.287 104.81 159.172 102.358C166.864 99.706 175.086 99.042 183.31 98.246C187.83 100.295 191.489 103.861 193.654 108.326C203.468 128.092 202.4 152.096 205.456 173.846Z" fill="white"/>
<path d="M221.902 116.82C220.587 119.092 218.828 121.076 216.73 122.654C215.753 123.421 214.622 123.967 213.414 124.254C212.165 124.629 210.84 124.674 209.568 124.386C208.892 124.144 208.264 123.785 207.712 123.326C206.861 122.653 206.18 121.79 205.722 120.806C210.929 118.811 216.364 117.472 221.902 116.82Z" fill="#DD4040"/>
<path d="M207.844 116.024C205.456 116.288 202.672 116.952 201.61 118.41C200.948 119.21 201.876 120.93 203.21 121.328C203.821 121.444 204.444 121.489 205.066 121.462C208.817 120.971 212.504 120.081 216.066 118.808C217.924 118.278 222.166 117.084 222.83 116.156C218.718 117.084 212.486 115.626 207.844 116.024Z" fill="black"/>
<path d="M160.1 191.086C176.678 180.086 192.46 175.304 211.7 180.344C205.864 151.434 202.55 134.326 196.184 107.802C176.82 99.712 150.164 110.984 141.146 120.93C139.146 120.666 136.902 120.13 134.912 119.87C133.93 117.063 132.448 114.456 130.536 112.178C128.595 109.552 126.321 107.189 123.772 105.148C121.196 103.11 118.037 101.949 114.754 101.834C124.392 121.96 132.072 142.966 137.688 164.562C143.126 166.42 146.176 171.592 148.562 176.762C150.443 180.592 151.825 184.648 152.674 188.83C155.105 189.722 157.584 190.475 160.1 191.086Z" fill="#FFD340"/>
<path d="M147.766 148.914C146.83 145.813 146.034 142.671 145.38 139.498C144.85 137.11 144.18 134.724 143.656 132.336C142.594 132.336 141.656 132.204 140.606 132.204C141.268 134.458 141.932 136.712 142.462 138.834C143.262 142.15 144.186 145.332 145.114 148.648C145.914 151.698 146.714 154.882 147.634 157.932C148.502 160.439 149.171 163.011 149.634 165.624C150.603 165.514 151.577 165.47 152.552 165.492C151.878 162.972 148.562 151.832 147.766 148.914ZM185.298 117.482C179.508 115.874 173.422 115.647 167.528 116.82C163.983 117.622 160.612 119.06 157.58 121.064C155.358 122.294 153.308 123.809 151.48 125.572C155.458 136.314 157.978 147.588 161.028 158.594C165.822 154.606 171.507 151.831 177.6 150.504C183.251 149.203 189.045 148.624 194.842 148.78C191.532 138.436 188.216 127.96 185.298 117.482Z" fill="#008C6E"/>
<path d="M150.684 177.03C148.828 167.082 135.036 119.736 134.902 119.736C133.919 116.929 132.437 114.323 130.526 112.044C128.585 109.419 126.311 107.056 123.762 105.016C121.187 102.976 118.027 101.814 114.744 101.7C124.385 121.826 132.069 142.833 137.688 164.43C143.126 166.286 146.176 171.458 148.562 176.63C150.339 180.258 151.675 184.085 152.542 188.03C151.878 184.456 151.348 180.742 150.684 177.03Z" fill="#FDB849"/>
<path d="M249.354 134.724C248.69 131.142 247.896 127.694 247.232 124.124C244.402 127.966 240.786 131.159 236.624 133.492C232.462 135.824 227.85 137.242 223.096 137.65C223.013 140.048 222.791 142.439 222.432 144.812C222.904 145.75 223.622 146.543 224.51 147.104C225.398 147.665 226.422 147.973 227.472 147.996C229.601 147.937 231.688 147.389 233.572 146.396C239.54 143.874 244.314 138.966 249.354 134.724Z" fill="#FF465A"/>
<path d="M227.2 89.5C226.319 88.6739 225.272 88.0454 224.129 87.6563C222.985 87.2673 221.772 87.1267 220.57 87.244C218.192 87.5098 215.801 87.6434 213.408 87.644C212.2 87.643 211.015 87.3081 209.986 86.6763C208.956 86.0446 208.12 85.1405 207.572 84.064C210.226 83.932 212.878 83.004 215.53 82.864C217.973 82.5686 220.45 82.7486 222.824 83.394C224.046 83.9088 225.101 84.7518 225.874 85.8294C226.646 86.9071 227.105 88.1775 227.2 89.5ZM199.754 84.6C199.416 85.6419 198.828 86.5854 198.042 87.3484C197.256 88.1114 196.296 88.6708 195.244 88.978C193.364 89.3748 191.459 89.6421 189.542 89.778C188.517 89.8959 187.531 90.2434 186.659 90.7946C185.786 91.3459 185.049 92.0867 184.502 92.962C184.369 91.7881 184.558 90.6001 185.049 89.5254C185.539 88.4507 186.314 87.53 187.288 86.862C189.072 85.729 191.143 85.1307 193.256 85.138C195.244 85 197.898 85.786 199.754 84.6Z" fill="black"/>
<path d="M207.048 108.2C207.559 104.099 206.819 99.9394 204.926 96.266C205.274 98.4618 205.013 100.711 204.171 102.769C203.33 104.826 201.939 106.614 200.152 107.936C202.378 108.684 204.772 108.776 207.048 108.2Z" fill="#DD4040"/>
<path d="M249.222 91.488C247.833 91.5631 246.476 91.9329 245.241 92.5729C244.006 93.2129 242.922 94.1085 242.06 95.2C241.134 96.677 240.335 98.2299 239.672 99.842C239.217 100.647 238.609 101.354 237.88 101.923C237.152 102.492 236.319 102.912 235.428 103.158C232.246 103.558 230.39 100.24 229.064 97.322C224.952 88.702 223.228 78.888 217.664 70.922C216.689 69.2577 215.199 67.9551 213.42 67.21C212.531 66.865 211.547 66.8491 210.647 67.1652C209.747 67.4813 208.99 68.1086 208.512 68.934C208.622 68.2966 208.857 67.6873 209.204 67.1414C209.551 66.5955 210.003 66.1238 210.533 65.7537C211.064 65.3836 211.663 65.1223 212.295 64.985C212.927 64.8478 213.58 64.8372 214.216 64.954C215.491 65.2384 216.698 65.7715 217.768 66.5227C218.837 67.2739 219.748 68.2286 220.448 69.332C226.152 76.89 226.682 86.97 230.926 95.458C231.588 96.916 232.526 99.17 234.242 98.906C236.762 98.506 238.088 95.856 239.678 94.132C242.06 91.622 245.906 91.224 249.222 91.488Z" fill="black"/>
<path d="M246.436 88.04C247.138 87.3917 247.992 86.9305 248.92 86.6988C249.847 86.4671 250.817 86.4723 251.742 86.714C252.702 87.1717 253.518 87.8833 254.102 88.7717C254.686 89.6601 255.016 90.6915 255.056 91.754C255.72 96.396 253.73 101.038 251.21 105.016C250.373 106.468 249.297 107.768 248.028 108.862C247.645 109.244 247.189 109.547 246.689 109.753C246.188 109.959 245.651 110.064 245.11 110.062C243.386 109.93 242.458 108.072 241.928 106.48C240.468 100.374 241.4 92.02 246.436 88.04Z" fill="#F7846C"/>
<path d="M251.344 99.712C248.558 100.912 246.436 104.088 244.314 106.21C244.753 103.017 245.463 99.8669 246.436 96.794C247.498 93.744 248.426 90.958 251.21 89.898C249.913 91.4727 249.167 93.4293 249.088 95.468C248.824 97.2 248.558 100.374 251.344 99.712Z" fill="#DD4040"/>
<path d="M178.932 308.456C173.977 312.068 168.165 314.323 162.07 314.997C155.976 315.672 149.811 314.743 144.186 312.302C142.533 308.957 141.115 305.5 139.942 301.958C146.574 304.61 167.13 304.08 175.484 298.51C176.148 301.824 177.872 304.876 178.932 308.456Z" fill="white"/>
<path d="M278.928 242.942C280.372 258.457 277.335 274.06 270.176 287.9C266.196 295.99 260.76 303.814 252.802 307.792C246.568 310.601 239.725 311.787 232.91 311.24C228.589 311.344 224.308 310.389 220.442 308.456C216.73 306.334 212.75 303.018 212.884 298.642C213.727 302.652 213.906 306.774 213.414 310.842C203.563 315.092 192.688 316.382 182.116 314.554C180.656 314.29 177.474 305.802 176.81 304.342C174.954 300.63 173.362 296.784 171.772 293.07C168.456 285.246 165.406 277.288 162.354 269.198C156.254 253.152 149.354 237.104 146.042 220.262C142.6 202.89 141.8 176.1 162.222 168.8C173.362 164.822 185.298 171.188 193.388 179.94C209.834 197.712 218.454 212.3 231.052 235.906C246.834 236.84 266.2 236.444 278.928 242.942Z" fill="#FF465A"/>
<path d="M251.078 297.846C245.965 297.846 240.939 296.52 236.49 294C232.71 291.654 229.385 288.644 226.676 285.114C220.31 277.29 216.076 268.006 212.352 258.59C208.772 249.706 204.528 243.206 201.478 234.19C197.632 223.05 193.124 211.248 192.328 195.466C192.253 197.876 191.759 200.254 190.868 202.494C189.542 204.748 188.216 204.882 185.962 202.228C185.298 201.428 180.922 192.946 180.126 191.486C180.926 194.006 181.326 196.658 181.85 199.178C182.404 201.071 182.629 203.045 182.514 205.014C181.982 208.33 177.342 205.414 175.484 204.748C177.74 206.87 180.258 209.788 181.85 211.644C183.854 214.006 185.714 216.487 187.42 219.072C191.485 225.854 194.904 233.003 197.632 240.424C200.797 248.482 203.628 256.667 206.12 264.958C210.496 279.812 213.944 305.01 213.68 301.958C215.243 304.824 217.651 307.139 220.576 308.588C224.446 310.507 228.723 311.463 233.042 311.374C239.857 311.907 246.696 310.722 252.934 307.926C258.66 304.788 263.429 300.157 266.734 294.526C261.804 296.714 256.471 297.845 251.078 297.846Z" fill="#D70A32"/>
<path d="M216.2 310.976C213.994 312.876 211.351 314.197 208.508 314.822C199.49 317.474 190.074 319.464 181.19 316.422C178.828 313.201 176.909 309.676 175.486 305.944C189.676 305.678 202.144 304.088 213.946 298.518C214.6 302.222 215.4 307.528 216.2 310.976Z" fill="white"/>
<path d="M287.15 266.282C275.211 272.704 264.305 280.885 254.8 290.552C245.246 300.27 238.548 312.428 235.436 325.696C249.096 325.696 263.686 322.912 273.5 313.496C279.717 307.364 284.162 299.666 286.364 291.216C288.742 282.728 287.15 274.902 287.15 266.282Z" fill="#14D29B"/>
<path d="M222.166 167.348C218.217 162.811 215.036 157.659 212.75 152.096C210.844 146.627 207.214 141.925 202.406 138.696C200.9 137.614 199.482 136.416 198.162 135.114C194.052 131.8 191.796 122.782 185.962 125.036C188.746 129.544 191.266 134.32 194.052 138.836C191.686 136.781 189.511 134.518 187.552 132.072C185.432 129.818 183.31 126.636 179.728 127.962C180.528 129.288 181.188 131.012 181.982 132.338C181.83 132.089 181.629 131.873 181.391 131.704C181.154 131.535 180.884 131.416 180.599 131.354C180.314 131.292 180.019 131.288 179.733 131.343C179.446 131.398 179.174 131.511 178.932 131.674C180.241 136.138 182.66 140.198 185.962 143.474C183.706 141.352 180.126 139.098 177.474 141.474C182.514 144.658 185.828 149.034 189.542 153.146C192.232 156.302 195.306 159.109 198.694 161.5C200.332 162.542 202.064 163.43 203.866 164.152C205.59 165.082 207.446 165.752 209.038 166.806C210.197 167.768 211.262 168.837 212.22 170C213.82 171.856 215.27 173.846 216.73 175.836C219.393 173.652 221.296 170.68 222.166 167.348Z" fill="#F7846C"/>
<path d="M187.818 145.73C187.585 145.393 187.317 145.082 187.018 144.802C186.488 144.272 186.488 144.14 185.958 143.602C184.637 142.178 182.932 141.166 181.05 140.686C181.994 141.364 182.881 142.118 183.702 142.94C184.972 144.455 186.556 145.677 188.344 146.52C188.212 146.388 188.212 146.256 188.08 146.12C188.077 146.087 188.063 146.057 188.039 146.034C188.014 146.012 187.983 146 187.95 146C187.937 145.898 187.89 145.803 187.818 145.73ZM186.094 138.57C184.494 136.448 181.85 132.204 181.85 132.336C181.513 131.899 181.05 131.575 180.524 131.408C181.151 132.991 181.86 134.54 182.646 136.05C183.196 137.248 183.91 138.363 184.768 139.364C185.785 140.396 187.004 141.209 188.348 141.752L189.148 142.152C188.216 141.088 187.156 139.896 186.094 138.57Z" fill="#DD4040"/>
<path d="M221.504 162.308C230.788 170.132 237.684 176.498 244.314 188.566C243.784 175.166 246.834 161.778 250.416 148.78C252.272 142.15 254.394 135.38 258.638 130.082C262.882 124.784 269.91 120.93 276.542 122.256C282.51 123.456 287.142 128.49 289.406 134.192C291.349 139.994 292.115 146.126 291.66 152.228C290.996 175.428 285.824 198.116 279.06 220.264C276.938 227.026 274.418 234.322 268.45 238.168C262.614 241.88 254.79 241.35 248.556 238.168C242.483 234.701 237.412 229.721 233.836 223.712C222.164 206.072 220.574 190.158 208.236 171.856C212.352 167.612 215.8 164.164 221.504 162.308Z" fill="#9778FF"/>
<path d="M213.812 179.284C216.332 174.112 221.504 170.796 226.676 168.684C227.187 168.447 227.724 168.269 228.276 168.154C226.154 166.154 223.898 164.308 221.512 162.318C215.81 164.174 212.36 167.622 208.512 172.132C210.37 174.918 211.962 177.702 213.42 180.354C213.546 179.946 213.68 179.682 213.812 179.284Z" fill="#FF465A"/>
<path d="M247.1 194.27C248.3 197.054 249.354 199.972 250.416 202.89C251.344 205.278 252.272 207.796 253.2 210.184C253.833 209.53 254.501 208.911 255.2 208.328C252.677 200.394 249.062 192.851 244.458 185.914V188.568C244.182 188.302 246.172 192.148 247.1 194.27Z" fill="black"/>
<path d="M125.222 131.8C126.1 129.139 127.118 126.527 128.272 123.974C128.865 124.359 129.348 124.892 129.673 125.52C129.999 126.148 130.155 126.849 130.128 127.556C129.872 129.659 129.471 131.741 128.928 133.788C130.528 131.8 131.978 129.81 133.438 127.82C134.115 128.298 134.613 128.988 134.853 129.781C135.094 130.574 135.062 131.425 134.764 132.198C135.063 132.458 135.292 132.788 135.432 133.158C135.572 133.528 135.617 133.928 135.564 134.32C135.547 135.117 135.318 135.895 134.9 136.574C134.22 138.025 133.326 139.366 132.248 140.552C133.848 139.492 135.166 138.696 136.758 137.634C136.957 138.48 136.912 139.365 136.629 140.186C136.346 141.008 135.836 141.732 135.158 142.276C134.096 143.338 133.158 144.53 132.108 145.724C132.908 148.244 133.434 150.234 134.23 153.152C133.302 153.814 132.372 153.284 131.444 152.62C130.564 151.943 129.84 151.084 129.322 150.102C127.992 148.547 127.242 146.578 127.2 144.532C127.2 144.132 127.334 143.732 127.2 143.47C127.068 142.94 126.538 142.542 126.4 142.012C126.386 141.384 126.298 140.761 126.136 140.154C125.87 139.754 125.472 139.492 125.336 138.954C125.2 138.416 125.468 137.754 125.336 137.098C125.171 136.588 124.948 136.099 124.672 135.64C124.452 134.334 124.645 132.992 125.222 131.8Z" fill="#DD4040"/>
</g>
<defs>
<clipPath id="clip0_902_8956">
<rect width="400" height="400" fill="white"/>
</clipPath>
</defs>
</svg>
