<svg width="400" height="400" viewBox="0 0 400 400" fill="none" xmlns="http://www.w3.org/2000/svg">
<path d="M94.846 241.87C94.2324 240.548 93.3638 239.36 92.2896 238.374C91.2156 237.388 89.9574 236.624 88.5874 236.128C87.2174 235.63 85.7624 235.406 84.3062 235.472C82.85 235.538 81.4212 235.892 80.102 236.512L63.152 244.416L73.488 266.616C76.1766 267.808 78.9454 268.81 81.774 269.616C73.83 256.886 76.718 254.682 85.08 263.802C93.126 272.582 103.054 273.324 109.742 273.95L94.846 241.87Z" fill="#B8FFD4"/>
<path d="M92.716 295.528C90.548 294.892 88.25 294.196 85.954 293.476L94.238 311.26C92.847 306.14 92.3324 300.82 92.716 295.528Z" fill="#B8FFD4"/>
<path d="M98.57 315.48C97.436 315.962 96.252 315.064 95.53 313.958L98.836 321.028L115.29 313.35C110.578 314 101.344 315.136 98.57 315.48Z" fill="#B8FFD4"/>
<path d="M71.17 288.2C67.902 286.908 64.558 285.578 61.404 284.02C57.148 281.93 57.404 279.764 61.556 280.752C63.076 281.094 64.862 281.322 67.788 281.7C64.4406 280.458 61.1784 278.998 58.022 277.33C53.728 274.9 54.564 272.086 58.668 273.57C59.77 273.988 62.316 274.784 65.28 275.544L64.824 274.594C62.4798 273.262 60.2096 271.804 58.024 270.226C54.072 267.184 55.212 264.524 59.088 266.576C59.658 266.88 60.532 267.26 61.596 267.716L52.932 249.096L36.02 257C34.6976 257.614 33.5096 258.482 32.524 259.556C31.5386 260.63 30.7748 261.888 30.277 263.258C29.7792 264.628 29.5568 266.084 29.6228 267.54C29.689 268.996 30.042 270.424 30.662 271.744L56.958 328.292C57.5718 329.614 58.4406 330.802 59.5146 331.788C60.5886 332.772 61.8468 333.536 63.2168 334.034C64.5868 334.532 66.0416 334.754 67.4978 334.688C68.9538 334.622 70.3826 334.27 71.702 333.65L88.652 325.744L71.17 288.2Z" fill="#B8FFD4"/>
<path d="M189.242 27.616L162.982 38.638L186.316 22.296L180.274 11.314C180.076 10.9573 179.795 10.6532 179.455 10.4273C179.115 10.2014 178.726 10.0602 178.321 10.0156C177.915 9.97092 177.505 10.0241 177.124 10.1707C176.743 10.3172 176.403 10.5529 176.132 10.858L144.552 46.01C144.204 46.4048 143.986 46.8974 143.929 47.4206C143.871 47.9438 143.976 48.472 144.229 48.9332C144.483 49.3946 144.872 49.7664 145.345 49.998C145.818 50.2298 146.35 50.31 146.87 50.228L193.498 42.362C193.899 42.2966 194.278 42.1364 194.604 41.8944C194.93 41.6524 195.193 41.3358 195.372 40.9712C195.551 40.6066 195.639 40.2044 195.631 39.7986C195.622 39.3926 195.516 38.9946 195.322 38.638L189.242 27.616Z" fill="#B8FFD4"/>
<path d="M203.682 222.564C200.718 223.934 200.034 229.328 201.282 236.816C207.29 236.332 213.236 235.25 219.03 233.586C213.144 225.682 207.14 220.968 203.682 222.564Z" fill="#E9E9E9"/>
<path d="M233.97 263.34C228.536 267.648 222.152 270.596 215.348 271.94C222.494 283.378 230.094 290.294 234.312 288.318C238.53 286.37 238.15 276.148 233.97 263.34Z" fill="#E9E9E9"/>
<path d="M375.906 62.616C366.52 70.71 349.494 97.73 346.34 107.496C346.91 112.208 347.366 115.552 347.67 118.402C354.668 119.337 361.768 119.196 368.724 117.984L368.648 114.868C376.78 88.306 377.084 76.904 375.906 62.616Z" fill="#E9E9E9"/>
<path d="M263.116 30.124C256.352 42.246 249.284 70.064 248.716 82.682C250.73 85.91 252.668 89.102 254.53 92.258C259.896 87.4834 265.99 83.5958 272.582 80.742C272.7 73.672 273.642 61.042 263.116 30.124Z" fill="#E9E9E9"/>
<path d="M92.716 295.528C92.184 306.51 94.352 315.328 97.734 315.592C100.934 315.86 104.156 308.562 105.448 298.682C101.12 298.004 96.8602 296.948 92.716 295.528Z" fill="#E9E9E9"/>
<path d="M185.974 334.822C183.561 335.914 181.387 337.472 179.576 339.406C177.765 341.338 176.353 343.61 175.419 346.088C174.486 348.568 174.05 351.206 174.136 353.854C174.222 356.5 174.829 359.106 175.922 361.518C177.015 363.93 178.572 366.104 180.505 367.916C182.438 369.728 184.709 371.14 187.188 372.072C189.667 373.006 192.306 373.442 194.953 373.356C197.601 373.27 200.206 372.662 202.618 371.57L185.974 334.822Z" fill="#E9E9E9"/>
<path d="M369.142 133.49L369.256 139.038C375.906 137.4 375.754 135.01 369.142 133.49Z" fill="#E9E9E9"/>
<path d="M254.49 116.046C255.34 117.52 260.266 116.35 266.574 113.462C265.472 111.296 264.256 109.062 263.002 106.736C257.188 110.8 253.63 114.556 254.49 116.046Z" fill="#E9E9E9"/>
<path d="M288.312 96.514C287.742 95.526 285.348 95.714 281.966 96.818L284.892 101.834C287.552 99.44 288.882 97.502 288.312 96.514Z" fill="#E9E9E9"/>
<path d="M190.762 258.172C189.764 261.352 188.44 264.422 186.81 267.33L190.876 269.27L190.762 258.172Z" fill="#E9E9E9"/>
<path d="M168.34 226.442L166.516 232.218L165.3 228.038L168.34 226.442Z" fill="#E9E9E9"/>
<path d="M334.94 136.264C334.94 138.088 340.412 139.608 348.012 140.178C348.126 137.1 348.164 134.554 348.202 132.35C340.488 132.882 334.94 134.44 334.94 136.264Z" fill="#E9E9E9"/>
<path d="M203.644 186.768C204.32 186.328 204.896 185.747 205.328 185.065C205.76 184.383 206.042 183.616 206.152 182.816C206.266 181.965 206.188 181.099 205.92 180.283C205.652 179.467 205.204 178.722 204.606 178.104C204.01 177.486 203.282 177.012 202.476 176.715C201.67 176.419 200.806 176.309 199.952 176.394C200.468 175.688 200.794 174.862 200.902 173.994C201.102 172.509 200.706 171.004 199.803 169.809C198.899 168.613 197.56 167.823 196.076 167.61C194.958 167.454 193.819 167.639 192.808 168.142C192.881 167.907 192.932 167.665 192.96 167.42C193.128 166.193 192.889 164.944 192.28 163.865C191.671 162.786 190.726 161.936 189.589 161.445C188.451 160.954 187.185 160.849 185.982 161.145C184.779 161.442 183.706 162.124 182.928 163.088C182.936 161.72 182.448 160.396 181.553 159.362C180.658 158.327 179.419 157.653 178.064 157.464L177.684 157.388C176.365 157.205 175.025 157.494 173.898 158.203C172.771 158.912 171.931 159.996 171.526 161.264C171.082 160.087 170.259 159.09 169.186 158.433C168.113 157.776 166.851 157.495 165.6 157.634C164.35 157.773 163.181 158.326 162.279 159.203C161.377 160.081 160.794 161.234 160.62 162.48C160.588 162.643 160.576 162.808 160.582 162.974C159.718 162.14 158.616 161.595 157.428 161.416C156.692 161.311 155.942 161.353 155.222 161.539C154.501 161.725 153.825 162.052 153.232 162.501C152.638 162.949 152.14 163.511 151.764 164.153C151.389 164.795 151.144 165.505 151.044 166.242C150.945 167.033 151.012 167.836 151.24 168.6C150.761 168.369 150.248 168.215 149.72 168.144C148.601 167.989 147.46 168.173 146.446 168.672C145.432 169.171 144.591 169.963 144.031 170.944C143.472 171.926 143.219 173.053 143.306 174.18C143.393 175.307 143.816 176.382 144.52 177.266C143.188 177.105 141.843 177.422 140.723 178.16C139.604 178.899 138.783 180.012 138.408 181.3C138.033 182.588 138.128 183.967 138.676 185.192C139.224 186.416 140.19 187.406 141.4 187.984C140.069 188.162 138.845 188.806 137.945 189.803C137.046 190.799 136.529 192.083 136.488 193.425C136.447 194.767 136.884 196.08 137.721 197.129C138.558 198.179 139.741 198.897 141.058 199.156C140.101 199.79 139.36 200.7 138.934 201.766C138.508 202.832 138.417 204.002 138.673 205.12C138.929 206.24 139.52 207.254 140.367 208.028C141.214 208.802 142.277 209.3 143.414 209.454C143.88 209.492 144.348 209.492 144.814 209.454C144.338 210.178 144.027 210.998 143.902 211.854C143.702 213.34 144.097 214.844 145.001 216.04C145.905 217.234 147.244 218.026 148.728 218.238C149.859 218.414 151.016 218.228 152.034 217.706C151.755 218.752 151.781 219.856 152.112 220.888C152.442 221.918 153.061 222.832 153.896 223.522C153.181 219.898 153.155 216.172 153.82 212.538C156.442 193.538 166.36 203.38 168.298 210.258C168.754 211.474 169.552 211.512 170.958 209.422C173.886 205.09 179.244 210.866 172.974 216.87C172.328 217.516 172.022 221.924 174.574 226.712C175.4 227.46 176.434 227.936 177.538 228.08C178.315 228.186 179.105 228.128 179.858 227.914C180.612 227.698 181.312 227.328 181.916 226.828C182.519 226.328 183.012 225.708 183.364 225.008C183.716 224.308 183.919 223.542 183.96 222.76C184.702 223.504 185.638 224.026 186.662 224.266C187.685 224.506 188.755 224.456 189.752 224.12C190.748 223.784 191.63 223.176 192.299 222.366C192.967 221.554 193.396 220.572 193.536 219.53C193.64 218.754 193.588 217.966 193.384 217.212C194.185 217.576 195.061 217.748 195.94 217.714C196.82 217.68 197.679 217.442 198.451 217.018C199.222 216.594 199.883 215.996 200.382 215.27C200.882 214.546 201.204 213.714 201.326 212.842C201.436 212.092 201.39 211.328 201.194 210.596C200.998 209.864 200.656 209.18 200.186 208.586C201.52 208.754 202.868 208.444 203.994 207.708C205.118 206.972 205.944 205.86 206.324 204.57C206.702 203.282 206.61 201.898 206.064 200.672C205.518 199.444 204.552 198.451 203.34 197.87C204.572 197.712 205.718 197.155 206.604 196.283C207.49 195.412 208.064 194.274 208.242 193.044C208.438 191.606 208.068 190.148 207.21 188.977C206.354 187.806 205.074 187.014 203.644 186.768Z" fill="#E9E9E9"/>
<path d="M375.678 169.438C381.376 182.237 384.478 196.04 384.806 210.046C385.134 224.052 382.682 237.986 377.588 251.038C372.496 264.088 364.864 276.002 355.138 286.084C345.41 296.166 333.778 304.22 320.918 309.778" stroke="black" stroke-width="1.5" stroke-linecap="round" stroke-linejoin="round"/>
<path d="M295.038 107.952C314.752 110.954 333.21 119.479 348.278 132.54" stroke="black" stroke-width="1.5" stroke-linecap="round" stroke-linejoin="round"/>
<path d="M231.766 117.832C240.962 113.233 250.78 110.007 260.912 108.258" stroke="black" stroke-width="1.5" stroke-linecap="round" stroke-linejoin="round"/>
<path d="M168.758 296.744L211.016 390" stroke="black" stroke-width="1.5" stroke-linecap="round" stroke-linejoin="round"/>
<path d="M146.11 246.734L86.486 115.248C83.256 108.248 87.816 102.062 95.454 103.048L198.97 116.576C204.988 117.364 210.708 119.658 215.602 123.245C220.498 126.832 224.408 131.597 226.97 137.098L344.09 389.922" stroke="black" stroke-width="1.5" stroke-linecap="round" stroke-linejoin="round"/>
<path d="M167.114 234.618C153.93 243.514 139.587 250.558 124.486 255.55C117.08 256.614 109.62 257.26 102.142 257.488" stroke="black" stroke-width="1.5" stroke-linecap="round" stroke-linejoin="round"/>
<path d="M109.704 273.906L94.8 241.832C93.5538 239.168 91.301 237.106 88.5366 236.102C85.7722 235.098 82.722 235.232 80.056 236.474L36.02 257.032C33.3552 258.278 31.294 260.53 30.289 263.294C29.284 266.06 29.4174 269.11 30.66 271.776L56.958 328.324C58.2042 330.988 60.4568 333.05 63.2214 334.054C65.9858 335.058 69.036 334.924 71.702 333.682L115.29 313.35" stroke="black" stroke-width="1.5" stroke-linecap="round" stroke-linejoin="round"/>
<path d="M57.832 246.81C57.832 246.81 28.22 244.086 16.068 235.448C3.91597 226.81 14.008 205.848 29.634 216.978C45.51 228.278 57.832 246.81 57.832 246.81Z" stroke="black" stroke-width="1.5" stroke-linecap="round" stroke-linejoin="round"/>
<path d="M57.8 246.81C57.8 246.81 76.212 223.48 78.32 208.694C80.428 193.908 58.282 186.848 55.6 205.8C52.848 225.116 57.8 246.81 57.8 246.81Z" stroke="black" stroke-width="1.5" stroke-linecap="round" stroke-linejoin="round"/>
<path d="M166.456 232.414L168.34 226.414C168.34 226.414 150.598 238.46 153.862 212.542C156.204 193.942 165.94 202.942 168.194 209.784C168.722 211.384 169.366 211.89 170.994 209.464C173.918 205.13 179.31 210.942 173.008 216.912C171.798 218.06 172.26 226.59 179.508 232.798C184.108 236.742 198.356 239.486 218.99 233.598" stroke="black" stroke-width="1.5" stroke-linecap="round" stroke-linejoin="round"/>
<path d="M165.3 228.038C166.487 233.158 168.18 238.148 170.354 242.934" stroke="black" stroke-width="1.5" stroke-linecap="round" stroke-linejoin="round"/>
<path d="M176.55 229.672C171.95 244.378 158.422 260.718 147.82 274.02C132.36 275.346 116.802 274.988 101.42 272.954" stroke="black" stroke-width="1.5" stroke-linecap="round" stroke-linejoin="round"/>
<path d="M233.97 263.34C227.378 268.572 219.39 271.744 211.004 272.456C202.618 273.168 194.209 271.388 186.83 267.34C181.492 277.348 175.558 287.026 169.062 296.324C166.915 299.56 163.723 301.96 160.018 303.124C139.971 309.28 119.362 313.43 98.494 315.512" stroke="black" stroke-width="1.5" stroke-linecap="round" stroke-linejoin="round"/>
<path d="M215.348 271.93C222.494 283.368 230.086 290.268 234.312 288.308C247.386 282.242 216.964 216.436 203.682 222.564C200.718 223.934 200.034 229.328 201.282 236.816" stroke="black" stroke-width="1.5" stroke-linecap="round" stroke-linejoin="round"/>
<path d="M334.94 136.264C335.32 147.968 336.764 190.264 336.764 194.634C330.076 195.66 277.292 208.352 274.29 208.884" stroke="black" stroke-width="1.5" stroke-linecap="round" stroke-linejoin="round"/>
<path d="M295.8 255.132C375.946 226.932 374.19 228.264 375.8 206.262C376.822 192.24 375.154 152.034 374.166 136.226" stroke="black" stroke-width="1.5" stroke-linecap="round" stroke-linejoin="round"/>
<path d="M254.49 116.046C260.266 126.23 283.29 164.308 285.348 168.146C283.148 169.78 273.074 180.688 264.748 188.516" stroke="black" stroke-width="1.5" stroke-linecap="round" stroke-linejoin="round"/>
<path d="M315.066 199.384C330.76 175.1 327.714 169.062 322.866 158.95C316.586 145.882 295.884 108.864 288.208 96.4" stroke="black" stroke-width="1.5" stroke-linecap="round" stroke-linejoin="round"/>
<path d="M263.116 30.124C256.352 42.246 249.284 70.064 248.716 82.682C250.73 85.91 252.668 89.102 254.53 92.258C259.916 87.5092 266.006 83.6244 272.582 80.742C272.614 77.23 273.642 61.042 263.116 30.124Z" stroke="black" stroke-width="1.5" stroke-linecap="round" stroke-linejoin="round"/>
<path d="M86.244 107.21C88.3048 102.391 91.8786 98.3732 96.425 95.7648C100.971 93.1564 106.243 92.0988 111.444 92.752L212.946 105.824C217.344 106.388 221.526 108.058 225.102 110.677C228.68 113.295 231.534 116.778 233.4 120.8L358.082 389.928" stroke="black" stroke-width="1.5" stroke-linecap="round" stroke-linejoin="round"/>
<path d="M107.2 119.124C108.6 122.164 108.112 125.394 106.098 126.344C104.084 127.294 101.272 125.584 99.866 122.544C98.46 119.504 98.946 116.258 100.968 115.324C102.99 114.39 105.8 116.084 107.2 119.124Z" stroke="black" stroke-width="1.5" stroke-linecap="round" stroke-linejoin="round"/>
<path d="M43.886 135.314L54.032 157.278" stroke="black" stroke-width="1.5" stroke-linecap="round" stroke-linejoin="round"/>
<path d="M59.922 141.204L37.996 151.388" stroke="black" stroke-width="1.5" stroke-linecap="round" stroke-linejoin="round"/>
<path d="M335.472 151.502C348.306 155.716 361.442 155.302 374.958 151.502" stroke="black" stroke-width="1.5" stroke-linecap="round" stroke-linejoin="round"/>
<path d="M262.268 129.304C275.454 126.789 287.326 119.691 295.782 109.266" stroke="black" stroke-width="1.5" stroke-linecap="round" stroke-linejoin="round"/>
<path d="M189.242 27.616L162.982 38.638L186.316 22.296L180.274 11.314C180.076 10.9573 179.795 10.6532 179.455 10.4273C179.115 10.2014 178.726 10.0602 178.321 10.0156C177.915 9.97092 177.505 10.0241 177.124 10.1707C176.743 10.3172 176.403 10.5529 176.132 10.858L144.552 46.01C144.204 46.4048 143.986 46.8974 143.929 47.4206C143.871 47.9438 143.976 48.472 144.229 48.9332C144.483 49.3946 144.872 49.7664 145.345 49.998C145.818 50.2298 146.35 50.31 146.87 50.228L193.498 42.362C193.899 42.2966 194.278 42.1364 194.604 41.8944C194.93 41.6524 195.193 41.3358 195.372 40.9712C195.551 40.6066 195.639 40.2044 195.631 39.7986C195.622 39.3926 195.516 38.9946 195.322 38.638L189.242 27.616Z" stroke="black" stroke-width="1.5" stroke-linecap="round" stroke-linejoin="round"/>
<path d="M348.848 321.56C367.166 331.402 371.004 303.318 389.32 313.16" stroke="black" stroke-width="1.5" stroke-linecap="round" stroke-linejoin="round"/>
<path d="M85.612 270.6C78.3198 268.892 71.334 266.074 64.9 262.24C61.024 260.112 59.57 262.252 63.342 265.584C66.835 268.546 70.6306 271.134 74.666 273.3" stroke="black" stroke-width="1.5" stroke-linecap="round" stroke-linejoin="round"/>
<path d="M71.2 271.32C67.0888 270.006 63.0654 268.432 59.154 266.608C55.246 264.546 54.104 267.208 58.09 270.256C62.9268 273.552 68.0082 276.476 73.29 278.998" stroke="black" stroke-width="1.5" stroke-linecap="round" stroke-linejoin="round"/>
<path d="M67.522 276.11C64.5402 275.418 61.5974 274.568 58.706 273.564C54.62 272.032 53.77 274.884 58.06 277.326C62.598 279.684 67.3268 281.654 72.196 283.216" stroke="black" stroke-width="1.5" stroke-linecap="round" stroke-linejoin="round"/>
<path d="M105.448 298.682C104.384 299.024 85.724 293.896 74.742 289.638C70.342 287.928 65.742 286.21 61.442 284.09C57.114 281.954 57.37 279.818 61.556 280.784C63.074 281.134 64.862 281.354 67.788 281.734" stroke="black" stroke-width="1.5" stroke-linecap="round" stroke-linejoin="round"/>
<path d="M92.716 295.528C92.184 306.51 94.352 315.318 97.734 315.592C106.196 316.278 109.534 274.342 101.116 272.88C94.9848 271.512 89.3936 268.364 85.042 263.834C76.708 254.724 74.096 256.69 82.002 269.42" stroke="black" stroke-width="1.5" stroke-linecap="round" stroke-linejoin="round"/>
<path d="M185.974 334.86C182.398 336.474 179.37 339.096 177.262 342.404C175.155 345.712 174.059 349.566 174.109 353.488C174.159 357.41 175.352 361.234 177.544 364.488C179.735 367.742 182.828 370.286 186.444 371.808C190.06 373.33 194.042 373.762 197.901 373.054C201.76 372.346 205.328 370.526 208.168 367.82C211.006 365.112 212.994 361.636 213.886 357.814C214.78 353.994 214.536 349.996 213.19 346.312C212.234 343.712 210.754 341.336 208.842 339.334C206.93 337.33 204.626 335.742 202.072 334.668C199.519 333.594 196.773 333.056 194.003 333.09C191.234 333.122 188.501 333.726 185.974 334.86Z" stroke="black" stroke-width="1.5" stroke-linecap="round" stroke-linejoin="round"/>
<path d="M281.966 96.818C285.348 95.716 287.734 95.53 288.312 96.514C289.912 99.242 278.298 106.914 275.574 108.584C271.974 110.784 256.434 119.416 254.49 116.046C253.63 114.556 257.188 110.802 263.002 106.736" stroke="black" stroke-width="1.5" stroke-linecap="round" stroke-linejoin="round"/>
<path d="M272.58 80.742C266.008 83.593 259.928 87.467 254.566 92.22C258.784 99.364 263.192 106.82 266.576 113.42C273.176 110.396 279.336 106.494 284.892 101.82L272.58 80.742Z" stroke="black" stroke-width="1.5" stroke-linecap="round" stroke-linejoin="round"/>
<path d="M375.906 62.616C366.52 70.71 349.494 97.73 346.34 107.496C346.91 112.208 347.366 115.552 347.67 118.402C354.668 119.337 361.768 119.196 368.724 117.984L368.648 114.868C376.78 88.306 377.084 76.904 375.906 62.616Z" stroke="black" stroke-width="1.5" stroke-linecap="round" stroke-linejoin="round"/>
<path d="M368.724 117.984C361.768 119.196 354.668 119.337 347.67 118.402C348.374 125.639 348.488 132.922 348.012 140.178C355.114 140.772 362.264 140.375 369.256 139C368.73 117.778 368.828 121.576 368.724 117.984Z" stroke="black" stroke-width="1.5" stroke-linecap="round" stroke-linejoin="round"/>
<path d="M329.2 96.552C328.58 97.0292 327.832 97.3118 327.052 97.3642C326.272 97.4166 325.492 97.2362 324.814 96.846C324.136 96.4558 323.588 95.8732 323.242 95.172C322.894 94.4708 322.764 93.6824 322.864 92.9066C322.966 92.1306 323.294 91.4022 323.808 90.8132C324.324 90.2242 325.002 89.801 325.758 89.5974C326.512 89.3938 327.312 89.4188 328.054 89.669C328.794 89.9194 329.444 90.384 329.922 91.004C330.556 91.8374 330.838 92.8876 330.702 93.9266C330.566 94.9654 330.026 95.909 329.2 96.552Z" stroke="black" stroke-width="1.5" stroke-linecap="round" stroke-linejoin="round"/>
<path d="M208.242 193.038C208.066 194.268 207.492 195.407 206.606 196.279C205.72 197.15 204.572 197.707 203.34 197.864C204.552 198.445 205.518 199.438 206.064 200.666C206.61 201.892 206.702 203.276 206.324 204.564C205.944 205.854 205.118 206.966 203.994 207.702C202.868 208.436 201.52 208.748 200.186 208.58C200.654 209.176 200.996 209.86 201.192 210.592C201.388 211.322 201.434 212.086 201.326 212.836C201.224 213.572 200.978 214.28 200.602 214.922C200.226 215.562 199.727 216.124 199.134 216.572C198.541 217.02 197.866 217.346 197.146 217.534C196.427 217.72 195.678 217.764 194.942 217.662C194.403 217.586 193.878 217.434 193.384 217.206C193.586 217.962 193.638 218.748 193.536 219.524C193.396 220.566 192.967 221.548 192.299 222.36C191.63 223.17 190.748 223.778 189.751 224.114C188.755 224.45 187.685 224.5 186.662 224.26C185.638 224.02 184.702 223.498 183.96 222.754C183.966 222.92 183.953 223.086 183.922 223.248C183.709 224.732 182.919 226.072 181.723 226.974C180.528 227.878 179.023 228.274 177.538 228.074C176.434 227.928 175.401 227.452 174.574 226.706C172.028 221.918 172.324 217.506 172.974 216.864C179.174 210.792 173.882 205.082 170.958 209.416C169.746 211.216 168.814 211.842 168.18 209.86C165.99 203.014 156.416 193.894 153.82 212.532C153.158 216.166 153.184 219.892 153.896 223.516C153.15 222.904 152.573 222.11 152.221 221.212C151.868 220.314 151.752 219.34 151.882 218.384C151.913 218.152 151.963 217.924 152.034 217.7C151.013 218.214 149.858 218.4 148.728 218.232C147.248 218.012 145.913 217.22 145.011 216.026C144.108 214.832 143.71 213.332 143.902 211.848C144.028 210.992 144.339 210.172 144.814 209.448C144.348 209.486 143.88 209.486 143.414 209.448C142.277 209.294 141.214 208.796 140.367 208.022C139.52 207.248 138.929 206.232 138.673 205.114C138.417 203.996 138.508 202.826 138.934 201.76C139.36 200.694 140.101 199.784 141.058 199.15C139.741 198.891 138.558 198.173 137.721 197.123C136.884 196.074 136.447 194.761 136.488 193.419C136.529 192.077 137.046 190.793 137.945 189.797C138.845 188.8 140.069 188.156 141.4 187.978C140.192 187.399 139.229 186.409 138.682 185.186C138.135 183.963 138.041 182.585 138.415 181.299C138.789 180.012 139.607 178.9 140.725 178.161C141.842 177.422 143.186 177.103 144.516 177.262C143.812 176.378 143.389 175.303 143.302 174.176C143.215 173.049 143.468 171.922 144.027 170.94C144.587 169.958 145.428 169.167 146.442 168.668C147.456 168.169 148.596 167.985 149.716 168.14C150.244 168.211 150.757 168.365 151.236 168.596C151.01 167.832 150.946 167.03 151.046 166.24C151.144 165.502 151.388 164.791 151.763 164.148C152.138 163.505 152.636 162.943 153.23 162.494C153.824 162.045 154.501 161.718 155.222 161.533C155.943 161.348 156.693 161.307 157.43 161.414C158.619 161.588 159.723 162.134 160.584 162.972C160.65 161.674 161.161 160.438 162.031 159.473C162.901 158.507 164.077 157.871 165.361 157.67C166.645 157.47 167.959 157.717 169.082 158.371C170.205 159.025 171.069 160.046 171.528 161.262C173.55 155.014 183.016 156.726 182.928 163.086C183.706 162.122 184.779 161.44 185.982 161.143C187.185 160.847 188.451 160.952 189.589 161.443C190.726 161.934 191.671 162.784 192.28 163.863C192.889 164.942 193.128 166.191 192.96 167.418C192.931 167.663 192.881 167.904 192.808 168.14C193.818 167.635 194.958 167.449 196.076 167.608C197.562 167.82 198.903 168.611 199.809 169.809C200.714 171.006 201.108 172.513 200.908 174C200.798 174.867 200.472 175.693 199.958 176.4C200.414 176.359 200.872 176.371 201.326 176.436C202.806 176.657 204.14 177.449 205.044 178.643C205.946 179.837 206.344 181.338 206.152 182.822C206.042 183.622 205.76 184.389 205.328 185.071C204.896 185.753 204.32 186.334 203.644 186.774C205.074 187.016 206.354 187.805 207.212 188.975C208.07 190.144 208.44 191.601 208.242 193.038Z" stroke="black" stroke-width="1.5" stroke-linecap="round" stroke-linejoin="round"/>
<path d="M53.006 249.09L61.67 267.71" stroke="black" stroke-width="1.5" stroke-linecap="round" stroke-linejoin="round"/>
<path d="M71.208 288.194L88.69 325.74" stroke="black" stroke-width="1.5" stroke-linecap="round" stroke-linejoin="round"/>
<path d="M63.114 244.378L73.45 266.57" stroke="black" stroke-width="1.5" stroke-linecap="round" stroke-linejoin="round"/>
<path d="M85.954 293.476L94.238 311.26" stroke="black" stroke-width="1.5" stroke-linecap="round" stroke-linejoin="round"/>
<path d="M95.53 313.958L98.798 321.028" stroke="black" stroke-width="1.5" stroke-linecap="round" stroke-linejoin="round"/>
<path d="M348.2 132.35C344.858 132.58 333.6 133.808 335.064 136.794C336.594 139.9 351.464 140.45 355.232 140.44C370.272 140.402 381.114 136.266 369.102 133.452" stroke="black" stroke-width="1.5" stroke-linecap="round" stroke-linejoin="round"/>
<path d="M186.84 267.322C188.343 264.344 189.69 261.29 190.876 258.172V269.306" stroke="black" stroke-width="1.5" stroke-linecap="round" stroke-linejoin="round"/>
</svg>
