<svg width="400" height="400" viewBox="0 0 400 400" fill="none" xmlns="http://www.w3.org/2000/svg">
<path d="M255.6 37.28C255.924 37.4102 256.272 37.4752 256.62 37.4712C256.97 37.4672 257.316 37.3944 257.636 37.257C257.958 37.1196 258.25 36.9202 258.494 36.6702C258.738 36.4202 258.93 36.1244 259.06 35.8C260.48 32.22 266.06 28.62 271.76 27.6C274.62 27.08 279.94 26.82 283.46 30.72C283.758 31.0748 284.142 31.3466 284.576 31.5088C285.008 31.671 285.476 31.718 285.934 31.6456C286.392 31.573 286.822 31.3834 287.184 31.095C287.546 30.8066 287.828 30.4294 288 30C291.8 20.8 301.88 15.38 311.58 15.38C323.68 15.38 328.44 20.5 333.88 31.18C334.04 31.4926 334.258 31.7708 334.524 31.9986C334.79 32.2266 335.1 32.3998 335.432 32.5086C335.766 32.6172 336.118 32.659 336.468 32.6318C336.816 32.6046 337.158 32.509 337.47 32.35C337.782 32.1912 338.06 31.9722 338.288 31.7058C338.516 31.4394 338.69 31.1306 338.798 30.7974C338.908 30.464 338.95 30.1124 338.922 29.7628C338.894 29.4134 338.8 29.0726 338.64 28.76C332.64 16.92 326.22 10.04 311.56 10.04C306.194 9.97174 300.9 11.2865 296.188 13.8576C291.476 16.4287 287.506 20.1696 284.66 24.72C274.66 18.02 257.78 24.86 254.2 33.86C253.944 34.5004 253.948 35.2148 254.21 35.8528C254.47 36.4908 254.97 37.0024 255.6 37.28Z" fill="#3D9CFB"/>
<path d="M369.22 372.56C364.84 376.8 359.22 380.32 357.82 379.76C352.92 377.98 347.44 370.7 340.42 370.7C335.98 370.7 331.94 374.02 328.42 376.96C327.016 378.278 325.426 379.384 323.7 380.24C321.84 380.4 318.74 378.4 315.98 376.72C304.52 369.74 302.1 370.6 293.14 376.72C290.28 378.72 287.14 380.96 284.88 381.06C276.38 381.5 264.88 361.98 252.06 362.16C237.06 362.16 226.06 383.44 210.7 384.58C207.34 384.78 202.1 380.58 196.98 376.4C177.76 360.8 171.92 360.64 151.4 373.78C146.42 376.96 141.4 380.22 138.32 380.06C135.24 379.9 131.5 377.78 127.72 375.74C115.32 369.08 113.04 369.6 103.92 376C101.92 377.42 97.76 380.46 95.34 380.34C90.08 380.08 85.18 371 76.64 371.3C69.08 371.62 64.74 380.38 58.64 380.64C54.32 380.82 47.92 374.16 44.86 369.92C44.6552 369.636 44.3964 369.396 44.0986 369.212C43.8008 369.028 43.4698 368.906 43.1244 368.85C42.779 368.794 42.4258 368.806 42.0854 368.888C41.745 368.968 41.4238 369.116 41.14 369.32C40.8564 369.524 40.6158 369.784 40.4322 370.082C40.2486 370.38 40.1254 370.71 40.0696 371.056C40.014 371.402 40.0268 371.754 40.1076 372.094C40.1882 372.436 40.3352 372.756 40.54 373.04C41.5 374.38 50.08 385.98 58.54 385.98C67 385.98 71.94 376.84 77 376.64C83 376.32 87.68 385.68 95.54 385.68C102.68 385.68 109.8 376.84 114.5 376.32C119.84 375.74 130.1 384.88 138.1 385.38C147.46 385.98 160.86 370.94 172.7 369.68C179.46 368.96 187.06 375.12 193.76 380.54C198.84 384.68 205.36 390.32 211.22 389.9C220.42 389.2 228.04 382.86 234.74 377.28C250.62 364.04 253.84 364.56 267.94 376.82C273.76 381.9 279.28 386.82 285.26 386.4C291.92 386.06 299.94 377.06 303.9 377.06C306.56 377.06 309.9 379.16 313.32 381.2C323.54 387.4 325.12 386.56 331.92 381C339.92 374.48 341.1 374.38 348.92 380.24C351.114 382.068 353.558 383.57 356.18 384.7C361.76 386.7 370.56 378.7 373.1 376.32C373.61 375.83 373.902 375.156 373.916 374.45C373.93 373.742 373.66 373.06 373.17 372.55C372.68 372.04 372.006 371.748 371.3 371.734C370.592 371.722 369.91 371.99 369.4 372.48L369.22 372.56Z" fill="#3D9CFB"/>
<path d="M379.38 216.76C377.28 200.6 369.38 190.12 355.26 184.76C346.816 181.309 337.364 181.256 328.882 184.61C320.4 187.965 313.54 194.467 309.74 202.76C303.14 199.54 292.24 200 286 205.78C281.32 210.1 277.64 213.52 277.64 222.54C277.608 222.91 277.654 223.282 277.772 223.634C277.892 223.986 278.084 224.308 278.334 224.582C278.586 224.856 278.892 225.076 279.232 225.224C279.572 225.374 279.938 225.452 280.31 225.452C280.682 225.452 281.048 225.374 281.388 225.224C281.728 225.076 282.034 224.856 282.286 224.582C282.536 224.308 282.728 223.986 282.848 223.634C282.966 223.282 283.012 222.91 282.98 222.54C282.98 215.86 285.2 213.8 289.68 209.64C294.7 204.98 305.22 205.14 309.1 208.66C309.42 208.944 309.802 209.148 310.218 209.254C310.632 209.36 311.066 209.366 311.484 209.27C311.9 209.174 312.288 208.98 312.614 208.704C312.942 208.426 313.196 208.076 313.36 207.68C320.2 190.8 336.66 183.46 353.36 189.82C361.1 192.76 371.66 198.84 374.08 217.52C374.218 218.18 374.6 218.764 375.15 219.154C375.698 219.546 376.376 219.716 377.044 219.63C377.714 219.544 378.326 219.208 378.758 218.692C379.192 218.174 379.414 217.514 379.38 216.84V216.76Z" fill="#3D9CFB"/>
<path d="M371.04 349.08C367.26 352.68 360.32 357.48 357.46 356.36C352.34 354.36 346.14 347.8 339.24 347.8C335.06 347.8 332.36 350.44 329.96 352.76C324.82 357.76 323.82 357.26 317.96 352.5C314.76 349.92 311.12 346.98 306.86 346.84C297.16 346.46 293.1 357.32 285.2 356.84C276.54 356.32 262.8 335.66 249.86 335.68C234.92 335.68 222.78 357.38 207.86 356.18C193.4 355.02 183.58 336.34 169.86 337.88C162.58 338.7 154.98 344.56 148.28 349.74C143.38 353.5 137.86 357.74 135.04 357.6C129.04 357.22 123.86 345.88 111.8 347.24C104.6 348.08 103.04 357.62 94.9202 357.4C89.9002 357.28 85.4402 347.74 76.9202 348.1C69.4002 348.42 64.2202 357.3 57.9802 357.56C53.7402 357.7 47.3002 350.8 44.2402 346.38C43.8398 345.796 43.2238 345.396 42.528 345.266C41.8324 345.138 41.1136 345.29 40.5302 345.69C39.9468 346.09 39.5462 346.706 39.4168 347.402C39.2874 348.098 39.4398 348.816 39.8402 349.4C40.8202 350.82 49.7002 363.2 58.2002 362.88C66.7002 362.56 72.0202 353.66 77.1602 353.42C82.9802 353.14 87.1602 362.56 94.8402 362.74C105.32 362.92 108.64 352.98 112.46 352.54C122.24 351.4 126.46 362.94 135.22 362.94C144.6 362.94 159.22 344.46 170.5 343.18C181.08 342 191.16 360.2 207.46 361.5C224.96 362.9 237.72 341.02 249.96 341C260.36 341 273.66 361.48 284.98 362.16C295.56 362.78 299.8 352.04 306.76 352.26C312.2 352.46 317.96 362 324.76 361.72C332.14 361.46 334.96 353.24 339.48 353.24C344 353.24 350.26 359.24 355.72 361.4C362.76 364.2 372.98 354.92 374.96 353.04C375.214 352.798 375.416 352.51 375.558 352.188C375.7 351.868 375.778 351.524 375.786 351.174C375.794 350.824 375.734 350.476 375.608 350.148C375.482 349.822 375.292 349.524 375.05 349.27C374.808 349.016 374.52 348.814 374.2 348.672C373.878 348.53 373.534 348.452 373.184 348.444C372.834 348.436 372.486 348.496 372.158 348.622C371.832 348.748 371.534 348.938 371.28 349.18L371.04 349.08Z" fill="#3D9CFB"/>
<path d="M171.56 264.88C172.98 265.72 184.32 266.72 202.64 266.78C223.44 266.78 251.5 265.84 253.12 264.88C256.36 262.98 256.42 243.98 255.88 232.66C254.88 211.9 258.32 209.96 251.34 210.02C249.02 210.02 245.86 210.02 245.18 211.48C244.5 212.94 244.68 216.18 242.54 216.52C241.94 216.52 229.8 216.12 215 216.12C200.2 216.12 182.72 216.62 182.14 216.52C180 216.18 180.26 213 179.48 211.48C178.7 209.96 175.64 210.04 173.34 210.02C166.38 210.02 169.8 211.7 168.8 232.66C168.26 244 168.32 262.98 171.56 264.88ZM242.98 223.68C244.98 223.68 245.86 223.68 245.44 241.02C245.44 243.42 245.44 249.94 245.44 252.66C245.3 256.28 244.6 256.9 243.02 256.66C241.76 256.48 240.74 256.52 240.5 252.46C240.26 248.4 240.82 240.12 240.84 236.46C240.82 227.52 240.1 223.72 242.98 223.68ZM224.98 227.92C225.22 223.92 226.26 223.92 227.5 223.72C230.84 223.22 229.7 227.54 229.98 239.36C230.4 256.72 229.5 256.74 227.5 256.7C224.64 256.7 225.36 252.86 225.32 243.82C225.36 240.26 224.8 232 225.04 228L224.98 227.92ZM209.46 236.64C209.46 227.6 209.46 223.68 212.22 223.68C214.98 223.68 214.96 224.18 214.56 241.54C214.56 243.96 214.56 249.3 214.56 252.02C214.44 255.64 214.06 256.7 212.24 256.66C211.02 256.66 210.06 256.52 209.82 252.46C209.58 248.4 209.52 240.2 209.52 236.64H209.46ZM196.6 223.68C198.6 223.68 199.48 223.68 199.06 241.02C199.06 243.42 199.06 249.94 199.06 252.66C198.94 256.28 198.22 256.9 196.66 256.66C195.4 256.48 194.36 256.52 194.14 252.46C193.92 248.4 194.46 240.12 194.46 236.46C194.5 227.52 193.78 223.72 196.66 223.68H196.6ZM178.6 227.92C178.84 223.92 179.88 223.92 181.12 223.72C182.7 223.48 183.42 224.1 183.54 227.72C183.54 230.44 183.54 236.96 183.54 239.36C183.96 256.72 183.08 256.74 181.08 256.7C178.2 256.7 178.92 252.86 178.9 243.82C179.04 240.26 178.48 232 178.72 228L178.6 227.92Z" fill="#3D9CFB"/>
<path d="M50.7002 49.42C50.9836 49.6254 51.3048 49.773 51.6454 49.854C51.986 49.935 52.3392 49.948 52.6848 49.8922C53.0304 49.8366 53.3616 49.7132 53.6594 49.5292C53.9572 49.3452 54.2156 49.1042 54.4202 48.82C59.8202 41.34 65.2002 37.26 77.9602 37.48C85.3002 37.48 91.1602 41.8 96.4402 50.82C96.6208 51.1282 96.8618 51.3966 97.1486 51.6096C97.4352 51.8226 97.762 51.9756 98.1092 52.0596C98.4562 52.1436 98.8168 52.1568 99.1692 52.0986C99.5216 52.0402 99.8586 51.9114 100.16 51.72C110.54 45.18 118.32 46.76 125.42 56.88C125.829 57.4582 126.45 57.8504 127.148 57.9704C127.845 58.0904 128.562 57.9284 129.14 57.52C129.718 57.1116 130.111 56.4902 130.231 55.7926C130.351 55.095 130.189 54.3782 129.78 53.8C121.58 42.12 111.44 39.44 99.6402 45.8C93.6402 36.68 86.6202 32.18 78.0202 32.08C63.0802 31.94 56.2202 37.14 50.0202 45.64C49.8092 45.9302 49.6592 46.2602 49.579 46.6098C49.4988 46.9596 49.4902 47.322 49.5538 47.675C49.6172 48.0282 49.7516 48.3648 49.9486 48.6648C50.1456 48.9646 50.4012 49.2216 50.7002 49.42Z" fill="#3D9CFB"/>
<path d="M43.1002 157.82C43.443 157.877 43.7936 157.866 44.1322 157.787C44.4708 157.709 44.7904 157.564 45.0728 157.361C45.3554 157.159 45.595 156.902 45.7782 156.607C45.9612 156.312 46.0842 155.983 46.1402 155.64C47.4402 148.16 52.4402 143.04 61.4402 140.04C68.1802 137.8 83.9602 140.88 88.5802 152.4C88.7394 152.805 88.9956 153.164 89.326 153.446C89.6564 153.729 90.051 153.926 90.4754 154.021C90.8998 154.116 91.3408 154.105 91.76 153.99C92.1792 153.875 92.5638 153.658 92.8802 153.36C94.8802 151.52 98.7202 151.26 102.12 152.74C104.347 153.711 106.222 155.342 107.492 157.413C108.762 159.484 109.365 161.895 109.22 164.32C109.188 164.69 109.233 165.063 109.353 165.414C109.473 165.766 109.664 166.089 109.915 166.363C110.166 166.636 110.471 166.855 110.811 167.005C111.151 167.154 111.519 167.231 111.89 167.231C112.262 167.231 112.629 167.154 112.969 167.005C113.309 166.855 113.614 166.636 113.865 166.363C114.116 166.089 114.308 165.766 114.427 165.414C114.547 165.063 114.592 164.69 114.56 164.32C114.56 150.02 100.86 143.64 92.1402 147.56C85.3002 135.56 68.7602 131.98 59.7602 134.98C49.7602 138.3 43.7602 144.12 41.4202 152.32C37.162 152.319 32.988 153.505 29.3668 155.744C25.7454 157.984 22.8204 161.19 20.9202 165C20.6746 165.624 20.6718 166.317 20.9122 166.943C21.1528 167.569 21.6192 168.082 22.2194 168.381C22.8196 168.679 23.51 168.743 24.1544 168.557C24.7988 168.372 25.3502 167.952 25.7002 167.38C27.252 164.18 29.76 161.541 32.8772 159.828C35.9944 158.116 39.5668 157.414 43.1002 157.82Z" fill="#3D9CFB"/>
<path d="M165.08 102.34C169.08 99.54 167.24 82.66 164.54 81.48C159.38 79.2 152.24 80.06 150.24 82.46C148.7 84.34 149.36 99.28 150.64 101.84C152.3 105.16 161.3 104.96 165.08 102.34ZM154 85.54C156.545 84.7354 159.242 84.5302 161.88 84.94C162.794 89.2414 162.835 93.6826 162 98C156.52 99.38 154.98 98.8 154.7 98.66C153.74 96.72 153.1 87.8 154 85.54Z" fill="#001434"/>
<path d="M321.22 294C320.56 289.38 315.22 290.46 315.78 293C316.6 297 316.16 300.12 312.68 302.46C311.38 299.72 309.54 295.26 307.78 290.82C314.22 288.48 314.88 286.82 313.78 285.3C312.68 283.78 311.08 283.7 305.9 285.82C305.7 285.3 305.52 284.8 305.32 284.3C308.54 281.3 305.8 273.72 301 273.62C292.54 272.68 291.6 286.96 300.46 286.56C300.64 287 300.8 287.44 301 287.92C297.8 289.58 293.46 289.14 294.22 293.14C296.4 296.78 298.42 294.2 302.94 292.88C304.56 297 306.34 301.3 307.74 304.3C304.4 304.88 301.74 303.88 298.28 302.56C297.634 302.376 296.94 302.442 296.34 302.744C295.74 303.048 295.274 303.566 295.038 304.194C294.802 304.824 294.81 305.52 295.062 306.144C295.314 306.766 295.792 307.272 296.4 307.56C301.74 309.56 306.56 310.8 312.4 308.58C315.406 307.66 317.968 305.664 319.594 302.974C321.222 300.284 321.8 297.09 321.22 294Z" fill="#001434"/>
<path d="M102.44 264C99.86 268.6 107.32 272.32 108.84 267.22C110.36 262.12 104.48 260.28 102.44 264Z" fill="#001434"/>
<path d="M134 115.06C153.04 117.62 172.5 110 185.22 118.78C178 132 194.2 141.54 206.38 138.6C206.52 144.04 206.38 152.06 206.24 156.02C192.82 154.78 197.82 174.02 206.24 176.14C203.82 185.46 218.8 184.6 213.12 192.38C211.626 191.929 210.028 191.971 208.56 192.5C208.02 192.099 207.628 191.53 207.444 190.883C207.258 190.236 207.292 189.546 207.54 188.92C208.58 185.24 202.54 184.92 201.8 189.38C201.656 190.352 201.728 191.343 202.01 192.284C202.294 193.224 202.782 194.09 203.44 194.82C195.831 199.411 188.667 204.7 182.04 210.62C180.04 206.28 167.54 206.28 166.46 211.34C164 222.16 164 266.42 170.2 267.18C177.1 270.9 250.72 269.4 254.48 267.18C260.68 266.42 260.72 228 258.26 211.34C257.34 205.12 244 206.26 242.52 211C235.328 204.256 227.18 198.608 218.34 194.24C224.14 181.24 210.1 182.12 211.56 176.24C219.82 176.06 221.32 166.24 220.24 159.24C219.48 156.12 215.38 155.98 211.58 155.84C211.7 151.6 211.86 143.3 211.7 137.84C223.7 132.32 231.7 141.52 242.9 140.7C274.24 138.38 266.62 130.24 245.52 113.2C256.144 113.617 266.732 111.705 276.54 107.6C294.54 120.8 339.1 116.22 302.86 94.42C309.06 89.9 313.44 82.9 306.5 79.06C302.32 76.76 326.16 49.58 308.5 46.68C276.5 41.5 279.14 77.02 250.7 73.46C258.3 66.94 263.34 59.88 260.44 56.06C258.2 53.06 250.74 52.46 238.16 52.72C223.52 53.04 201.62 65.48 190.3 70.72C161.18 67.3 146.8 69.18 136.48 71.8C118.84 76.28 105.16 86.88 104.76 96.54C104.4 104 112.46 111.02 134 115.06ZM242.96 219.16C246.68 218.42 245.86 214.56 247.46 213C248.268 212.392 249.24 212.042 250.25 211.996C251.26 211.948 252.26 212.208 253.12 212.74C257.12 216.6 254.5 258.94 251.68 262.5C248.96 263.88 179.68 265 173.06 262.62C170.2 259.44 169.06 218.3 171.58 212.74C172.22 211.28 175.48 212.62 177.22 213C179.22 219.92 178.68 219.2 189.22 219C203.22 218.6 230 218.88 242.96 219.16ZM237.72 213.78C225.06 213.3 199.58 213.46 186.34 213.78C208.44 193.72 215.24 194.1 237.72 213.78ZM195.56 130.9C190.24 133.84 186.94 123.76 190.14 121.04C194.84 122.66 201.14 125.72 195.56 130.9ZM215.2 161.44C215.98 169 212.58 172.64 206.6 170.74C204.53 168.216 203.35 165.082 203.24 161.82C207.186 161.099 211.216 160.971 215.2 161.44ZM200.42 133.56C201.998 131.652 202.898 129.274 202.98 126.8C206.84 128.5 210.74 130.22 214.44 131.82C209.884 133.119 205.156 133.705 200.42 133.56ZM245.66 120C264.98 135.16 260.8 133.26 243.1 135.3C226.74 134.12 216.54 125.86 198.68 119.02C186.38 111.98 171.28 111.02 174.42 103.26C175.52 100.56 186.42 99.26 197.74 99.26C215.32 99.26 218.2 100.72 222.12 103.4C226.74 106.66 237.36 113.62 245.66 120ZM309.54 106C310.96 107.12 308.02 108.22 306.22 108.56C290.9 111.34 277.34 103.06 265.56 94.68C264.22 93.72 264.46 92.86 266.1 92.68C276.8 91.94 286.5 91.76 291.82 94.1C297.978 97.68 303.896 101.655 309.54 106ZM212.36 65.8C222 61.54 228.92 58 238.22 58C255.24 58.44 258.76 57 251.68 65.12C241.26 77.8 234.24 73.12 201.02 71.12C204.66 69.42 208.84 67.42 212.36 65.86V65.8ZM112.56 91.12C116.38 92.1 128.08 94.22 134.44 92.48C138.6 91.34 137.86 85.9 137.4 84.82C136.7 83.18 128.16 83.24 122.28 83.48C135.28 73.2 163.1 73.18 190.58 75.86C219.24 78.66 251.32 82.12 265.82 77.68C275.82 74.62 281.1 63.36 290.42 56.76C295.54 53.14 298.24 52.1 306.14 52.92C314.04 53.74 291.16 77.5 301.94 83.72C306.42 86.32 299.78 89.88 298.2 91.28C293.64 88.34 290.08 87.16 270.2 88.04C262.2 88.4 258.2 89.16 257.18 91.58C256.16 94 258.4 97.44 270.38 104.26C250.26 110.72 238.64 108.86 224.38 98.62C215.52 92.3 184.22 94.38 174.92 96.82C173.687 97.1638 172.555 97.7984 171.618 98.6704C170.682 99.5424 169.968 100.626 169.537 101.831C169.106 103.036 168.97 104.327 169.141 105.595C169.312 106.864 169.785 108.072 170.52 109.12C160.96 109.7 142.1 110.78 134.7 109.76C122 108 102.54 100.68 112.56 91.12Z" fill="#001434"/>
<path d="M348.16 261.36C345.88 259.08 342.3 258.16 336.16 258.34C321.7 258.88 295.58 257.78 283.48 258.86C272.24 258.62 271.76 274.4 264.78 279.08C237.8 279.86 177.4 278.42 143.02 278.72C143.14 256.42 143.2 256.12 143.58 232.72C153.58 233.62 154.04 226.72 153.58 217.8C153.26 208.06 155.02 202.1 143.78 202.58C144 195.96 137.78 191.06 130.36 192.02C130.36 190.02 130.26 187.56 130.18 185.08C137.34 188.5 147.98 198.12 146.5 176.18C146.5 156.34 138.5 163.68 129.88 170.8C129.782 168.407 129.903 166.011 130.24 163.64C130.359 162.974 130.221 162.287 129.854 161.718C129.487 161.15 128.919 160.741 128.263 160.574C127.607 160.406 126.913 160.494 126.319 160.818C125.724 161.142 125.275 161.678 125.06 162.32C124.04 164.82 124.84 183.6 125.06 191.94C115.22 191.38 103.06 192.88 103.64 203.56C103.86 207.66 104.08 228.3 104.24 235.82C88.24 236.34 68.34 231.82 69.48 248.36C67.9888 248.38 66.5078 248.61 65.08 249.04C62.64 250.44 63.96 253.88 69.26 253.7C69.1 260.34 69.26 269.18 69.58 278.28C68.043 278.284 66.5122 278.472 65.02 278.84C62.86 280.02 63.34 283.96 69.78 283.6C70.34 297.96 70.96 309.04 71.42 317.42C71.9 328.16 84.52 331.08 90.5 337.28C91.0462 337.862 91.4342 338.572 91.6268 339.346C91.8194 340.12 91.8102 340.93 91.6 341.7C91.5242 342.066 91.3754 342.41 91.1622 342.716C90.9492 343.022 90.6762 343.282 90.36 343.48C89.763 343.68 89.2554 344.084 88.9266 344.622C88.5976 345.158 88.4684 345.794 88.5614 346.416C88.6546 347.04 88.964 347.61 89.4354 348.028C89.907 348.444 90.5104 348.684 91.14 348.7C97.44 347.68 98.9 338.3 94.58 333.84C89.98 328 77.26 325 76.74 317.14C76.06 305 75.48 292.94 75.12 283.6C132.16 284 212.42 284.92 265.12 284.48C271.3 283.84 272.96 278.26 274.48 275.12C277.88 268.02 279.34 264.76 284.16 264.26C296.06 263.22 322.16 264.26 336.42 263.76C343.3 263.88 345.84 263.76 345.22 269.76C346.92 281 337.9 307.64 323.38 316.18C296.84 331.8 317.56 351.5 316.48 338.4C310.48 324.64 335.08 318.68 340.48 306.22C350.26 288.82 353.38 272.92 348.16 261.36ZM143.84 207.84C145.84 207.84 147.22 207.72 147.66 208.14C149.5 209.98 148.02 216.32 148.16 219.58C147.98 224.72 149.58 228 143.6 227.3C143.72 220 143.82 212.58 143.84 207.84ZM140.44 169.14C141.173 174.195 141.253 179.324 140.68 184.4C136.86 182.995 133.298 180.968 130.14 178.4C132.929 174.664 136.429 171.517 140.44 169.14ZM137.62 278.72C114.42 278.92 97.9 278.28 74.76 278.18C74.4 267.514 74.2866 259.3 74.42 253.54C94.56 253.06 119.24 254.3 137.86 253.54C137.76 263.18 137.64 264.54 137.62 278.72ZM138 248.2C121.78 248.96 93.88 247.74 74.78 248.2C74.06 235.94 92.78 241.18 106.96 241.04C122.5 240.9 140 235.48 138 248.2ZM138.22 236.5C129.04 233.78 125.16 236.22 109.52 235.7C109.36 228.32 109.28 207.48 108.9 203.48C108.4 197.92 114.72 196.72 119.68 197.36C124.64 198 137.38 193.36 138.36 202.6C129.74 203.08 121.08 201.74 118.36 207.84C117.34 210.04 117.76 213.16 117.86 217.84C117.96 222.52 117.46 225.52 118.26 227.84C120.62 234.6 128.54 232.9 138.38 232.72C138.22 234 138.133 235.26 138.12 236.5H138.22ZM138.36 227.28C134.04 226.96 127 228.08 123.42 227.14C123.42 207.14 117.7 208.48 138.6 207.94C138.48 212.68 138.38 220.1 138.26 227.28H138.36Z" fill="#001434"/>
<path d="M86.4 262.12C81.1 262.4 81.42 268.52 85.5 269.22C90.7 270.12 91.72 261.86 86.4 262.12Z" fill="#001434"/>
<path d="M128.8 266.64C128.988 266.214 129.087 265.754 129.09 265.288C129.093 264.822 129.002 264.36 128.82 263.93C128.639 263.5 128.371 263.114 128.035 262.79C127.698 262.468 127.299 262.218 126.862 262.056C126.425 261.894 125.96 261.822 125.494 261.846C125.029 261.87 124.573 261.99 124.156 262.196C123.738 262.402 123.366 262.692 123.065 263.046C122.763 263.402 122.537 263.814 122.4 264.26C120.82 269.3 127.7 271.34 128.8 266.64Z" fill="#001434"/>
<path d="M138.26 301.02C118.72 310.08 142.26 334.14 152.38 317.02C153.256 314.966 153.531 312.706 153.176 310.502C152.82 308.298 151.847 306.238 150.369 304.564C148.892 302.89 146.97 301.668 144.827 301.042C142.684 300.414 140.407 300.406 138.26 301.02ZM147.4 315.14C144.88 319.14 134.46 318.04 136.6 309.62C138.84 301.72 151.38 307.76 147.4 315.14Z" fill="#001434"/>
<path d="M250.38 301.24C237.92 304.76 242.76 324.82 253.88 323.14C271.8 322.58 266.3 296.32 250.38 301.24ZM259.28 314.78C256.6 319.9 246.62 319.08 248.44 310.14C250.74 302 263.16 307.3 259.28 314.78Z" fill="#001434"/>
<path d="M175.04 301.18C164.7 302.38 165.04 324 178.2 323.18C194.6 323.58 191.84 296.82 175.04 301.18ZM182.74 316C175.62 323.12 167.96 309.38 176.46 306.4C182.24 304.26 186.4 312.18 182.74 316Z" fill="#001434"/>
<path d="M225.14 306.74C220.1 296.46 199.74 300.74 204.16 315.36C208.38 328.46 231.48 322.54 225.14 306.74ZM219.62 315.14C204.66 324.94 206.42 298.38 220.14 308.64C220.654 309.668 220.878 310.816 220.786 311.962C220.694 313.108 220.292 314.208 219.62 315.14Z" fill="#001434"/>
</svg>
