<svg width="233" height="285" viewBox="0 0 233 285" fill="none" xmlns="http://www.w3.org/2000/svg">
<g clip-path="url(#clip0_601_81)">
<path d="M85.3913 69.8635C85.3913 69.8635 81.0549 81.1757 83.9961 81.1065C86.9372 81.0374 90.4974 72.5187 90.4974 72.5187L85.3913 69.8635Z" fill="#2B4257"/>
<path d="M74.4814 78.7309C77.4226 78.6743 80.9827 70.1556 80.9827 70.1556L75.8766 67.491C75.8766 67.491 71.5277 78.8031 74.4814 78.7309Z" fill="#2B4257"/>
<path d="M80.0966 47.6602C82.2774 51.3555 83.7951 57.043 82.114 58.0297C80.4328 59.0163 76.1876 54.9408 74.0069 51.2455C71.8262 47.5502 72.5363 45.6397 74.2174 44.6467C75.8986 43.6538 77.9159 43.9649 80.0966 47.6602Z" fill="#2B4257"/>
<path d="M101.301 26.4814C103.975 27.5467 103.968 32.3543 103.968 32.3543L99.6572 31.5185C98.2997 27.0596 101.301 26.4814 101.301 26.4814Z" fill="#F39B92"/>
<path d="M92.3106 29.0265C95.1889 28.9763 97.024 33.4257 97.024 33.4257L92.7222 34.3181C89.7528 30.7265 92.3106 29.0265 92.3106 29.0265Z" fill="#F39B92"/>
<path d="M101.301 26.4814C103.975 27.5467 103.968 32.3543 103.968 32.3543L99.6572 31.5185C98.2997 27.0596 101.301 26.4814 101.301 26.4814Z" stroke="#2B4257" stroke-width="2" stroke-miterlimit="10" stroke-linecap="round"/>
<path d="M92.3106 29.0265C95.1889 28.9763 97.024 33.4257 97.024 33.4257L92.7222 34.3181C89.7528 30.7265 92.3106 29.0265 92.3106 29.0265Z" stroke="#2B4257" stroke-width="2" stroke-miterlimit="10" stroke-linecap="round"/>
<path d="M96.6941 41.3318C94.1803 41.3318 91.9525 43.1543 90.5133 45.9949C89.661 47.7092 88.2854 49.108 86.5855 49.9887C84.5875 50.9888 83.0685 52.7416 82.3629 54.8616C81.6572 56.9815 81.8226 59.295 82.8226 61.293C83.8227 63.2911 85.5755 64.81 87.6955 65.5157C89.8154 66.2213 92.1289 66.0559 94.1269 65.0559C94.9152 65.4876 95.7985 65.7165 96.6973 65.722C101.037 65.722 104.553 60.2639 104.553 53.5269C104.553 46.7899 101.034 41.3318 96.6941 41.3318Z" fill="#2B4257"/>
<path d="M165.714 28.5583C159.744 29.3785 175.662 37.4541 175.662 37.4541C175.662 37.4541 173.805 44.9484 184.206 43.6569L187.835 33.7085C187.835 33.7085 171.684 27.7382 165.714 28.5583Z" fill="#FBC2A5"/>
<path d="M165.714 28.5583C159.744 29.3785 175.662 37.4541 175.662 37.4541C175.662 37.4541 173.805 44.9484 184.206 43.6569" stroke="#2B4257" stroke-width="2" stroke-miterlimit="10" stroke-linecap="round"/>
<path d="M181.048 262.148C178.186 259.948 173.988 251.706 173.988 251.706L162.097 256.105C162.097 256.105 166.968 261.023 169.089 265.328C171.21 269.633 163.951 281.668 163.219 282.708C162.487 283.748 164.589 285.2 166.327 283.022C168.064 280.845 166.955 281.341 171.335 280.194C175.716 279.047 175.631 271.082 179.666 270.84C183.7 270.598 183.911 264.357 181.048 262.148Z" fill="#FBC2A5"/>
<path d="M163.219 282.736C162.484 283.773 164.589 285.228 166.327 283.051C168.064 280.873 166.955 281.369 171.335 280.222C175.716 279.076 175.631 271.11 179.666 270.868C183.7 270.626 183.911 264.345 181.048 262.136C178.186 259.927 173.988 251.694 173.988 251.694L162.097 256.093" stroke="#2B4257" stroke-width="2" stroke-miterlimit="10" stroke-linecap="round"/>
<path d="M162.097 256.118C162.097 256.118 166.968 261.036 169.089 265.341C171.21 269.646 163.951 281.681 163.219 282.721" stroke="#FFF1D7" stroke-width="2" stroke-miterlimit="10" stroke-linecap="round"/>
<path d="M41.8646 48.3955C35.8943 49.2156 51.813 57.2912 51.813 57.2912C51.813 57.2912 49.956 64.7887 60.3569 63.4941L63.9862 53.5457C63.9862 53.5457 47.8318 47.5754 41.8646 48.3955Z" fill="#FBC2A5"/>
<path d="M41.8646 48.3955C35.8943 49.2156 51.813 57.2913 51.813 57.2913C51.813 57.2913 49.956 64.7887 60.3569 63.4941" stroke="#2B4257" stroke-width="2" stroke-miterlimit="10" stroke-linecap="round"/>
<path d="M160.139 266.971C150.947 250.175 144.13 232.183 139.884 213.512C136.382 198.133 134.46 182.437 134.15 166.667C133.578 139.345 137.873 120.702 138.056 119.923L162.531 125.667L150.295 122.795L162.55 125.642C162.509 125.808 158.716 142.575 159.313 166.928C159.635 180.883 161.375 194.769 164.507 208.371C168.236 224.602 174.178 240.243 182.167 254.855L160.139 266.971Z" fill="#706F6F"/>
<path d="M137.943 120.438C137.456 122.638 135.643 131.555 134.69 144.913C137.465 145.85 140.375 146.322 143.303 146.308C150.795 146.308 157.283 143.37 160.463 139.081C160.913 135.018 161.406 131.76 161.802 129.469C160.955 127.55 159.644 125.871 157.987 124.583L150.295 122.795L139.269 120.209C138.819 120.281 138.376 120.35 137.943 120.438Z" fill="#2B4257"/>
<path d="M152.469 182.184C148.909 181.555 141.368 176.213 141.368 176.213L132.884 185.64C132.884 185.64 139.482 187.736 143.357 190.564C147.231 193.392 146.395 207.426 146.226 208.682C146.056 209.939 148.595 210.254 149.129 207.532C149.663 204.811 148.909 205.751 152.271 202.712C155.634 199.674 151.853 192.657 155.31 190.564C158.766 188.471 156.029 182.812 152.469 182.184Z" fill="#FBC2A5"/>
<path d="M146.225 208.682C146.056 209.939 148.595 210.254 149.129 207.532C149.663 204.811 148.909 205.751 152.271 202.712C155.633 199.674 151.853 192.657 155.31 190.564C158.766 188.471 156.042 182.812 152.482 182.184C148.922 181.555 141.38 176.213 141.38 176.213L132.896 185.64" stroke="#2B4257" stroke-width="2" stroke-miterlimit="10" stroke-linecap="round"/>
<path d="M132.884 185.64C132.884 185.64 139.482 187.736 143.357 190.564C147.231 193.392 146.395 207.425 146.226 208.682" stroke="#FFF1D7" stroke-width="2" stroke-miterlimit="10" stroke-linecap="round"/>
<path d="M161.877 42.0136C165.14 42.0136 167.785 39.3688 167.785 36.1062C167.785 32.8436 165.14 30.1987 161.877 30.1987C158.615 30.1987 155.97 32.8436 155.97 36.1062C155.97 39.3688 158.615 42.0136 161.877 42.0136Z" fill="#2B4257"/>
<path d="M155.97 36.1062C155.969 35.3301 156.122 34.5616 156.419 33.8445C156.715 33.1274 157.15 32.4758 157.699 31.9269C158.247 31.378 158.899 30.9426 159.616 30.6455C160.333 30.3485 161.101 30.1956 161.877 30.1956" stroke="#586977" stroke-width="2" stroke-miterlimit="10" stroke-linecap="round"/>
<path d="M157.531 46.6139C160.433 46.6139 162.785 44.2617 162.785 41.3601C162.785 38.4584 160.433 36.1062 157.531 36.1062C154.63 36.1062 152.278 38.4584 152.278 41.3601C152.278 44.2617 154.63 46.6139 157.531 46.6139Z" fill="#5BC0C3"/>
<path d="M108.446 284.169H203.572" stroke="#2B4257" stroke-width="2" stroke-miterlimit="10" stroke-linecap="round"/>
<path d="M209.775 284.169H213.288" stroke="#2B4257" stroke-width="2" stroke-miterlimit="10" stroke-linecap="round"/>
<path d="M158.443 69.6624L146.163 69.8164V57.1844L158.443 55.8113V69.6624Z" fill="#FBC2A5"/>
<path d="M158.443 55.8113V69.6624" stroke="#2B4257" stroke-width="2" stroke-miterlimit="10" stroke-linecap="round"/>
<path d="M137.28 117.912H171.137V122.072C171.137 126.562 169.354 130.869 166.179 134.044C163.004 137.219 158.697 139.003 154.207 139.003C149.717 139.003 145.41 137.219 142.235 134.044C139.06 130.869 137.276 126.562 137.276 122.072V117.912H137.28Z" fill="#828181"/>
<path d="M154.21 67.447C158.7 67.4479 163.005 69.232 166.18 72.407C169.354 75.582 171.137 79.8878 171.137 84.3775V117.912H137.28V84.3775C137.28 79.8873 139.063 75.5809 142.238 72.4059C145.413 69.2308 149.72 67.447 154.21 67.447Z" fill="#628ECC"/>
<path d="M146.163 76.3082C146.163 76.3082 107.246 73.433 60.426 58.5732" stroke="#628ECC" stroke-width="20" stroke-miterlimit="10"/>
<path d="M139.322 76.3083C137.977 78.7849 137.275 81.5594 137.28 84.3777V117.912" stroke="#FFF1D7" stroke-width="2" stroke-miterlimit="10" stroke-linecap="round"/>
<path d="M140.78 38.7109L142.606 53.0711H138.675L140.78 38.7109Z" fill="#F39B92"/>
<path d="M142.606 53.0713H138.675" stroke="#2B4257" stroke-width="2" stroke-miterlimit="10" stroke-linecap="round"/>
<path d="M146.163 69.8162V57.1843" stroke="#FFF1D7" stroke-width="2" stroke-miterlimit="10" stroke-linecap="round"/>
<path d="M148.167 61.4641H147.269C145.548 61.4641 143.897 60.7805 142.681 59.5636C141.464 58.3467 140.78 56.6963 140.78 54.9753V38.7078H155.863C156.6 38.7078 157.306 39.0005 157.827 39.5214C158.348 40.0423 158.641 40.7489 158.641 41.4856V50.9847C158.641 53.7629 157.537 56.4274 155.573 58.3925C153.61 60.3576 150.946 61.4624 148.167 61.4641Z" fill="#FBC2A5"/>
<path d="M139.806 53.3037C139.806 53.3037 133.66 66.7872 142.606 69.6624C151.552 72.5375 157.374 57.6872 153.044 51.2078L156.975 53.3037L156.956 54.5606C156.949 55.0122 157.101 55.4519 157.384 55.8033C157.668 56.1547 158.066 56.3955 158.509 56.4837C158.509 56.4837 164.913 46.6924 162.433 40.8007C159.954 34.9089 143.209 30.1798 140.78 38.7111C140.78 38.7111 149.978 39.1541 151.395 41.2469C153.736 44.7034 152.042 56.3486 148.105 55.2519C144.167 54.1553 142.621 52.3202 139.806 53.3037Z" fill="#2B4257"/>
<path d="M154.945 35.2326C149.255 33.231 142.282 33.4352 140.78 38.7111" stroke="#586977" stroke-width="2" stroke-miterlimit="10" stroke-linecap="round"/>
<path d="M139.806 53.3037C139.806 53.3037 133.66 66.7872 142.606 69.6623C147.574 71.2586 151.577 67.3873 153.412 62.5168" stroke="#586977" stroke-width="2" stroke-miterlimit="10" stroke-linecap="round"/>
<path d="M146.392 49.2156C146.329 49.1642 146.272 49.1051 146.222 49.0397C146.146 48.9489 146.049 48.877 145.94 48.8295C145.831 48.7821 145.713 48.7605 145.594 48.7663H142.543V50.9439C142.543 51.5698 142.791 52.17 143.234 52.6126C143.677 53.0551 144.277 53.3037 144.903 53.3037C145.529 53.3037 146.129 53.0551 146.571 52.6126C147.014 52.17 147.263 51.5698 147.263 50.9439C147.261 50.6082 147.181 50.2775 147.03 49.9776C146.879 49.6778 146.661 49.417 146.392 49.2156Z" fill="#F4AB9D"/>
<path d="M146.427 49.0113C146.263 48.1346 145.402 47.5973 144.315 47.7733C143.622 47.8924 142.991 48.245 142.527 48.7725C142.69 49.6492 143.551 50.1897 144.639 50.0137C145.331 49.8928 145.962 49.5392 146.427 49.0113Z" fill="#F7F7F7"/>
<path d="M142.543 48.7725C142.706 49.6492 143.567 50.1896 144.654 50.0137C145.347 49.8928 145.978 49.5392 146.442 49.0113" stroke="#2B4257" stroke-width="2" stroke-miterlimit="10" stroke-linecap="round"/>
<path d="M143.734 49.2407C143.852 49.2407 143.947 49.1197 143.947 48.9704C143.947 48.8212 143.852 48.7002 143.734 48.7002C143.616 48.7002 143.52 48.8212 143.52 48.9704C143.52 49.1197 143.616 49.2407 143.734 49.2407Z" fill="#2B4257"/>
<path d="M147.586 53.8317C148.489 53.8317 149.22 53.1001 149.22 52.1977C149.22 51.2953 148.489 50.5637 147.586 50.5637C146.684 50.5637 145.952 51.2953 145.952 52.1977C145.952 53.1001 146.684 53.8317 147.586 53.8317Z" fill="#E57873"/>
<path d="M141.896 46.2996C142.488 45.9309 143.166 45.7243 143.863 45.7005C144.56 45.6768 145.252 45.8368 145.867 46.1645" stroke="#2B4257" stroke-width="2" stroke-miterlimit="10" stroke-linecap="round"/>
<path d="M145.402 54.6077C144.975 54.9814 144.457 55.2361 143.9 55.3464C143.343 55.4567 142.766 55.4187 142.229 55.2361" stroke="#BF6060" stroke-width="2" stroke-miterlimit="10" stroke-linecap="round"/>
<path d="M155.744 53.907C157.234 53.907 158.443 52.6985 158.443 51.2077C158.443 49.717 157.234 48.5085 155.744 48.5085C154.253 48.5085 153.044 49.717 153.044 51.2077C153.044 52.6985 154.253 53.907 155.744 53.907Z" fill="#FBC2A5"/>
<path d="M155.743 52.5904C156.507 52.5904 157.126 51.9714 157.126 51.2078C157.126 50.4442 156.507 49.8252 155.743 49.8252C154.98 49.8252 154.361 50.4442 154.361 51.2078C154.361 51.9714 154.98 52.5904 155.743 52.5904Z" fill="#F4AB9D"/>
<path d="M159.018 84.164L158.631 68.4527L158.823 76.3083L158.628 68.4527C166.818 68.1602 174.983 67.3711 183.078 66.0897C190.026 64.9428 195.669 63.4942 199.855 61.7911C204.345 59.9623 205.86 58.3157 206.07 57.8318C206.048 57.6674 206.007 57.506 205.948 57.3511C205.552 56.2513 203.434 52.3769 192.593 48.7035C188.3 47.2687 183.89 46.2079 179.414 45.533L181.507 29.9568C186.993 30.7731 192.397 32.0674 197.658 33.8249C210.164 38.0638 217.935 44.1944 220.754 52.0501C222.608 57.2128 221.97 62.4792 218.96 66.8753C213.979 74.1433 202.4 79.0704 183.556 81.9393C175.425 83.1435 167.233 83.8863 159.018 84.164Z" fill="#628ECC"/>
<path d="M218.947 66.8625C213.967 74.1306 202.387 79.0577 183.543 81.9266C177.705 82.8127 172.137 83.3563 167.788 83.6831" stroke="#2B4257" stroke-width="2" stroke-miterlimit="10" stroke-linecap="round"/>
<path d="M136.349 196.71C135.702 196.396 120.324 188.786 106.184 177.323C97.3382 170.165 90.6986 162.887 86.444 155.695C78.4595 142.183 79.9897 130.984 82.6732 123.958C86.0386 115.175 92.4143 108.812 101.074 105.553C111.623 101.591 125.443 102.339 142.15 107.781C153.541 111.483 171.137 117.912 170.141 118.572L151.027 138.569L156.903 127.455L151.027 138.575C145.542 135.811 139.854 133.471 134.012 131.574C123.488 128.187 114.699 127.282 109.901 129.092C107.984 129.815 106.932 130.896 106.146 132.954C105.1 135.685 104.521 143.55 121.722 157.564C133.685 167.305 147.31 174.089 147.448 174.155L136.349 196.71Z" fill="#828181"/>
<path d="M101.065 105.557C111.614 101.594 125.433 102.342 142.141 107.784" stroke="#FFF1D7" stroke-width="2" stroke-miterlimit="10" stroke-linecap="round"/>
<path d="M109.907 129.08C107.99 129.802 106.938 130.883 106.152 132.941C105.106 135.672 104.528 143.537 121.728 157.552C133.691 167.293 147.316 174.077 147.454 174.143" stroke="#2B4257" stroke-width="2" stroke-miterlimit="10" stroke-linecap="round"/>
<path d="M134.018 131.574C123.494 128.187 114.705 127.282 109.907 129.092" stroke="#2B4257" stroke-width="2" stroke-miterlimit="10" stroke-linecap="round"/>
<path d="M154.119 84.6634C154.486 83.3345 155.222 82.1364 156.24 81.2069C156.352 80.6908 156.409 80.1641 156.41 79.6358C156.413 78.6362 156.211 77.6465 155.817 76.7278C155.423 75.8091 154.845 74.9808 154.119 74.2939C153.393 74.9808 152.815 75.8091 152.421 76.7278C152.027 77.6465 151.825 78.6362 151.828 79.6358C151.829 80.1641 151.886 80.6908 151.998 81.2069C153.015 82.1372 153.75 83.335 154.119 84.6634Z" fill="#7FADE5"/>
<path d="M154.119 85.0876C153.75 86.4161 153.015 87.6139 151.998 88.5441C151.886 89.0604 151.829 89.587 151.828 90.1153C151.825 91.1149 152.027 92.1045 152.421 93.0232C152.815 93.942 153.393 94.7703 154.119 95.4571C154.845 94.7703 155.423 93.942 155.817 93.0232C156.211 92.1045 156.413 91.1149 156.41 90.1153C156.409 89.587 156.352 89.0604 156.24 88.5441C155.222 87.6147 154.486 86.4165 154.119 85.0876Z" fill="#7FADE5"/>
<path d="M153.934 84.7735C152.966 83.79 152.295 82.554 151.998 81.207C151.062 80.3545 149.923 79.7579 148.689 79.4749C147.455 79.192 146.17 79.2322 144.956 79.5919C145.252 80.8224 145.86 81.9558 146.722 82.8823C147.584 83.8088 148.671 84.497 149.877 84.8803C151.192 84.4642 152.598 84.4271 153.934 84.7735Z" fill="#7FADE5"/>
<path d="M153.934 84.7735L154.078 84.8144C154.078 84.7641 154.106 84.7138 154.119 84.6667C153.75 83.3383 153.015 82.1404 151.998 81.2102C152.296 82.5561 152.967 83.791 153.934 84.7735Z" fill="#BBDBF9"/>
<path d="M159.825 85.5183C159.364 85.2576 158.876 85.0469 158.37 84.8899C157.056 85.3061 155.651 85.3431 154.317 84.9967C155.277 85.9765 155.943 87.2054 156.24 88.5443C157.174 89.3993 158.313 89.9982 159.547 90.2828C160.781 90.5675 162.068 90.5282 163.282 90.1689C163.052 89.1996 162.627 88.2874 162.032 87.4878C161.438 86.6882 160.687 86.0181 159.825 85.5183Z" fill="#7FADE5"/>
<path d="M154.304 84.984L154.157 84.9463L154.119 85.0908C154.486 86.4197 155.222 87.6179 156.24 88.5473C155.942 87.2014 155.271 85.9666 154.304 84.984Z" fill="#BBDBF9"/>
<path d="M153.934 84.984C152.598 85.3303 151.192 85.2933 149.877 84.8772C148.67 85.2605 147.583 85.9491 146.721 86.8762C145.859 87.8033 145.251 88.9375 144.956 90.1688C146.17 90.5262 147.456 90.5645 148.69 90.28C149.924 89.9954 151.063 89.3976 151.998 88.5442C152.296 87.1994 152.967 85.9657 153.934 84.984Z" fill="#7FADE5"/>
<path d="M154.119 85.0877L154.078 84.9431L153.934 84.9808C152.967 85.9634 152.296 87.1982 151.998 88.5441C153.015 87.6139 153.75 86.4161 154.119 85.0877Z" fill="#BBDBF9"/>
<path d="M153.934 84.9841L154.04 84.8773L153.934 84.7704C152.598 84.4241 151.192 84.4612 149.877 84.8773C151.192 85.2934 152.598 85.3304 153.934 84.9841Z" fill="#BBDBF9"/>
<path d="M154.05 84.8395H154.075C154.075 84.8395 154.075 84.8237 154.075 84.8175L153.93 84.7766L154.037 84.8834L154.053 84.8677C154.055 84.8582 154.054 84.8483 154.05 84.8395Z" fill="#7FADE5"/>
<path d="M154.05 84.918C154.051 84.9097 154.051 84.9012 154.05 84.8929L154.034 84.8772L153.927 84.984L154.072 84.9463C154.072 84.9463 154.072 84.9306 154.072 84.9212L154.05 84.918Z" fill="#7FADE5"/>
<path d="M154.062 84.8773V84.8616L154.047 84.8773L154.062 84.893C154.062 84.893 154.059 84.8836 154.062 84.8773Z" fill="#7FADE5"/>
<path d="M154.119 84.9556V84.9399H154.094L154.135 85.0845L154.172 84.9399H154.15L154.119 84.9556Z" fill="#7FADE5"/>
<path d="M154.103 84.9399V84.9555L154.119 84.9399H154.103Z" fill="#7FADE5"/>
<path d="M154.074 84.8333H154.05C154.052 84.8403 154.052 84.8476 154.05 84.8546L154.074 84.8333Z" fill="#7FADE5"/>
<path d="M154.09 84.9275H154.075C154.075 84.9275 154.075 84.9275 154.075 84.9519H154.099L154.09 84.9275Z" fill="#7FADE5"/>
<path d="M154.056 84.8614V84.8772C154.055 84.8678 154.055 84.8582 154.056 84.8489V84.8614Z" fill="#7FADE5"/>
<path d="M154.304 84.7736C155.639 84.4272 157.044 84.4642 158.358 84.8804C158.864 84.7233 159.352 84.5127 159.813 84.2519C160.674 83.7527 161.425 83.0831 162.019 82.2841C162.614 81.485 163.039 80.5733 163.269 79.6045C162.313 79.3191 161.309 79.2321 160.318 79.3489C159.327 79.4656 158.37 79.7835 157.506 80.2833C157.047 80.5507 156.619 80.8667 156.227 81.2259C155.93 82.5648 155.264 83.7938 154.304 84.7736Z" fill="#7FADE5"/>
<path d="M154.119 84.6635L154.157 84.8112L154.304 84.7703C155.272 83.7869 155.943 82.5509 156.24 81.2039C155.221 82.1342 154.486 83.3335 154.119 84.6635Z" fill="#BBDBF9"/>
<path d="M154.119 84.7987L154.135 84.8144H154.169L154.132 84.6667C154.132 84.7139 154.103 84.7642 154.091 84.8144H154.116L154.119 84.7987Z" fill="#7FADE5"/>
<path d="M154.134 84.8142L154.119 84.7986V84.8142H154.134Z" fill="#7FADE5"/>
<path d="M154.304 84.7734L154.198 84.8803L154.304 84.9871C155.639 85.3335 157.044 85.2965 158.358 84.8803C157.044 84.4641 155.639 84.427 154.304 84.7734Z" fill="#BBDBF9"/>
<path d="M154.185 84.8394C154.185 84.8394 154.185 84.8394 154.185 84.8614C154.185 84.8834 154.185 84.8614 154.185 84.8771L154.292 84.7703L154.144 84.8111C154.146 84.8183 154.146 84.8259 154.144 84.8331L154.185 84.8394Z" fill="#7FADE5"/>
<path d="M154.169 84.8929C154.169 84.8929 154.169 84.9086 154.169 84.918C154.171 84.9263 154.171 84.9348 154.169 84.9432L154.317 84.9809L154.21 84.874L154.169 84.8929Z" fill="#7FADE5"/>
<path d="M154.147 84.8263H154.162C154.164 84.8193 154.164 84.8119 154.162 84.8049H154.141L154.147 84.8263Z" fill="#7FADE5"/>
<path d="M154.169 84.9204H154.191C154.191 84.9204 154.191 84.9204 154.191 84.896L154.169 84.9204Z" fill="#7FADE5"/>
<path d="M154.169 84.9055C154.169 84.9055 154.169 84.9055 154.169 84.8899C154.169 84.8951 154.169 84.9003 154.169 84.9055Z" fill="#7FADE5"/>
<path d="M154.09 84.8269H154.066C154.066 84.8269 154.066 84.8269 154.066 84.8483L154.09 84.8269Z" fill="#7FADE5"/>
<path d="M154.056 84.8928C154.058 84.9009 154.058 84.9092 154.056 84.9172H154.081V84.902L154.056 84.8928Z" fill="#7FADE5"/>
<path d="M154.062 84.8772C154.062 84.8772 154.062 84.8772 154.062 84.8928C154.062 84.8876 154.062 84.8824 154.062 84.8772Z" fill="#7FADE5"/>
<path d="M154.169 84.861C154.169 84.861 154.169 84.861 154.169 84.8396H154.147V84.8549L154.169 84.861Z" fill="#7FADE5"/>
<path d="M154.147 84.9268H154.169C154.17 84.9187 154.17 84.9104 154.169 84.9023L154.147 84.9268Z" fill="#7FADE5"/>
<path d="M154.169 84.8772V84.8616C154.169 84.8668 154.169 84.872 154.169 84.8772Z" fill="#7FADE5"/>
<path d="M154.091 84.8269H154.075V84.8425L154.091 84.8269Z" fill="#7FADE5"/>
<path d="M154.169 84.8333H154.154L154.175 84.8546L154.169 84.8333Z" fill="#7FADE5"/>
<path d="M154.075 84.9205H154.09L154.069 84.8992L154.075 84.9205Z" fill="#7FADE5"/>
<path d="M154.147 84.9274H154.163V84.9119L154.147 84.9274Z" fill="#7FADE5"/>
<path d="M154.168 84.8768C154.167 84.8675 154.167 84.858 154.168 84.8487L154.146 84.8269H154.118H154.09L154.069 84.8487C154.064 84.8575 154.062 84.8671 154.062 84.8768C154.062 84.8865 154.064 84.8961 154.069 84.9048L154.09 84.9266H154.118H154.146L154.168 84.9048C154.167 84.8955 154.167 84.8861 154.168 84.8768Z" fill="#7FADE5"/>
<path d="M99.0382 43.4057C102.886 43.4057 106.005 40.2867 106.005 36.4393C106.005 32.5919 102.886 29.4729 99.0382 29.4729C95.1907 29.4729 92.0718 32.5919 92.0718 36.4393C92.0718 40.2867 95.1907 43.4057 99.0382 43.4057Z" fill="#2B4257"/>
<path d="M99.6639 36.1821C99.931 35.5773 99.2133 34.6743 98.0608 34.1653C96.9083 33.6562 95.7574 33.7339 95.4903 34.3387C95.2232 34.9435 95.9409 35.8465 97.0934 36.3555C98.2459 36.8646 99.3968 36.7869 99.6639 36.1821Z" fill="white"/>
<path d="M95.5627 34.2239C95.5634 34.6503 95.686 35.0675 95.9159 35.4266C96.1458 35.7857 96.4735 36.0716 96.8605 36.2506C97.284 36.4624 97.7492 36.5774 98.2226 36.5872C98.696 36.5969 99.1656 36.5013 99.5974 36.3072" stroke="#2B4257" stroke-width="2" stroke-miterlimit="10" stroke-linecap="round"/>
<path d="M98.6443 35.3848C98.808 35.2006 98.8493 34.97 98.7365 34.8697C98.6236 34.7694 98.3994 34.8373 98.2357 35.0215C98.0719 35.2057 98.0307 35.4363 98.1435 35.5366C98.2563 35.6369 98.4806 35.569 98.6443 35.3848Z" fill="#354B5F"/>
<path d="M104.092 35.4304C105.028 34.675 105.433 33.6248 104.997 33.0846C104.561 32.5444 103.449 32.7189 102.513 33.4743C101.577 34.2297 101.172 35.2799 101.608 35.8201C102.044 36.3602 103.156 36.1858 104.092 35.4304Z" fill="white"/>
<path d="M104.861 32.9575C105.016 33.3414 105.049 33.7637 104.957 34.1672C104.864 34.5707 104.65 34.936 104.342 35.2137C103.996 35.5274 103.582 35.7576 103.133 35.8867C102.683 36.0157 102.21 36.0403 101.75 35.9584" stroke="#2B4257" stroke-width="2" stroke-miterlimit="10" stroke-linecap="round"/>
<path d="M103.691 34.7367C103.85 34.7341 103.977 34.5435 103.973 34.3109C103.969 34.0784 103.836 33.8921 103.677 33.8947C103.517 33.8973 103.391 34.0879 103.395 34.3204C103.398 34.5529 103.531 34.7393 103.691 34.7367Z" fill="#354B5F"/>
<path d="M97.6743 58.5732C97.6743 58.5732 93.3412 69.8854 96.2792 69.8163C99.2172 69.7471 102.784 61.241 102.784 61.241L97.6743 58.5732Z" fill="#2B4257"/>
<path d="M86.7644 67.4408C89.7056 67.3842 93.2657 58.8655 93.2657 58.8655L88.1596 56.1978C88.1596 56.1978 83.8232 67.4911 86.7644 67.4408Z" fill="#2B4257"/>
<path d="M50.4399 56.5718C50.4399 56.5718 53.8273 58.4823 55.3984 57.6967" stroke="#2B4257" stroke-width="2" stroke-miterlimit="10" stroke-linecap="round"/>
<path d="M189.121 91.3534L189.234 91.8059C189.254 91.8858 189.294 91.9589 189.352 92.0177C189.41 92.0765 189.482 92.1188 189.561 92.1403C189.641 92.1617 189.725 92.1616 189.804 92.1398C189.883 92.118 189.956 92.0754 190.013 92.0165L190.327 91.6802C190.399 91.6066 190.493 91.5589 190.595 91.5447C190.696 91.5305 190.8 91.5505 190.889 91.6017C190.978 91.6529 191.047 91.7322 191.086 91.8273C191.125 91.9223 191.131 92.0276 191.103 92.1264L190.975 92.5758C190.952 92.6551 190.95 92.7392 190.971 92.8191C190.992 92.8991 191.033 92.9721 191.092 93.0305C191.15 93.0889 191.223 93.1306 191.303 93.1512C191.383 93.1718 191.467 93.1706 191.546 93.1477L191.993 93.0188C192.091 92.9913 192.196 92.9973 192.291 93.0358C192.386 93.0743 192.465 93.1432 192.516 93.2316C192.568 93.32 192.588 93.423 192.575 93.5244C192.561 93.6258 192.515 93.7198 192.442 93.7918L192.106 94.1061C192.047 94.1633 192.004 94.2351 191.982 94.3143C191.96 94.3935 191.96 94.4771 191.981 94.5565C192.002 94.6359 192.044 94.7083 192.102 94.7661C192.161 94.8239 192.234 94.865 192.313 94.8853L192.769 94.9985C192.869 95.0224 192.958 95.0795 193.022 95.1605C193.086 95.2414 193.121 95.3415 193.121 95.4447C193.121 95.5478 193.086 95.6479 193.022 95.7289C192.958 95.8098 192.869 95.8669 192.769 95.8909L192.313 96.004C192.234 96.0243 192.161 96.0655 192.102 96.1233C192.044 96.1811 192.002 96.2534 191.981 96.3328C191.96 96.4122 191.96 96.4958 191.982 96.575C192.004 96.6542 192.047 96.7261 192.106 96.7833L192.442 97.0975C192.515 97.1695 192.561 97.2636 192.575 97.3649C192.588 97.4663 192.568 97.5693 192.516 97.6577C192.465 97.7462 192.386 97.815 192.291 97.8535C192.196 97.892 192.091 97.898 191.993 97.8705L191.546 97.7417C191.467 97.7188 191.383 97.7176 191.303 97.7382C191.223 97.7588 191.15 97.8004 191.092 97.8588C191.033 97.9172 190.992 97.9902 190.971 98.0702C190.95 98.1502 190.952 98.2342 190.975 98.3136L191.103 98.7629C191.134 98.8614 191.131 98.9674 191.094 99.0639C191.058 99.1604 190.99 99.2419 190.902 99.2954C190.814 99.3489 190.71 99.3714 190.608 99.3591C190.505 99.3469 190.41 99.3007 190.337 99.228L190.022 98.8917C189.965 98.8327 189.893 98.7902 189.814 98.7684C189.734 98.7466 189.65 98.7465 189.571 98.7679C189.491 98.7894 189.419 98.8317 189.362 98.8905C189.304 98.9493 189.263 99.0224 189.243 99.1023L189.13 99.5548C189.105 99.6544 189.047 99.7427 188.966 99.8059C188.885 99.869 188.785 99.9033 188.682 99.9033C188.58 99.9033 188.48 99.869 188.399 99.8059C188.317 99.7427 188.26 99.6544 188.234 99.5548L188.121 99.1023C188.101 99.0224 188.061 98.9493 188.003 98.8905C187.945 98.8317 187.873 98.7894 187.794 98.7679C187.714 98.7465 187.63 98.7466 187.551 98.7684C187.472 98.7902 187.4 98.8327 187.342 98.8917L187.028 99.228C186.964 99.3231 186.866 99.3909 186.754 99.4181C186.643 99.4453 186.525 99.4299 186.424 99.3749C186.323 99.32 186.247 99.2294 186.209 99.1209C186.171 99.0124 186.175 98.8937 186.22 98.788L186.349 98.3387C186.372 98.2597 186.373 98.176 186.352 98.0964C186.332 98.0168 186.291 97.9441 186.233 97.8858C186.175 97.8276 186.102 97.7858 186.023 97.7649C185.943 97.7439 185.86 97.7446 185.78 97.7668L185.331 97.8956C185.232 97.9251 185.126 97.9204 185.03 97.8822C184.935 97.844 184.854 97.7747 184.803 97.6853C184.751 97.596 184.731 97.4918 184.746 97.3897C184.761 97.2876 184.81 97.1935 184.885 97.1226L185.218 96.8084C185.277 96.7512 185.32 96.6793 185.342 96.6001C185.364 96.521 185.364 96.4373 185.343 96.3579C185.322 96.2785 185.28 96.2062 185.221 96.1484C185.163 96.0906 185.09 96.0494 185.011 96.0291L184.558 95.916C184.458 95.892 184.368 95.835 184.305 95.754C184.241 95.6731 184.206 95.5729 184.206 95.4698C184.206 95.3667 184.241 95.2666 184.305 95.1856C184.368 95.1047 184.458 95.0476 184.558 95.0236L185.011 94.9105C185.09 94.8902 185.163 94.849 185.221 94.7912C185.28 94.7334 185.322 94.6611 185.343 94.5817C185.364 94.5023 185.364 94.4187 185.342 94.3395C185.32 94.2603 185.277 94.1884 185.218 94.1312L184.885 93.817C184.81 93.7461 184.761 93.652 184.746 93.5499C184.731 93.4478 184.751 93.3437 184.803 93.2543C184.854 93.1649 184.935 93.0956 185.03 93.0574C185.126 93.0193 185.232 93.0145 185.331 93.044L185.78 93.1728C185.86 93.195 185.943 93.1957 186.023 93.1747C186.102 93.1538 186.175 93.112 186.233 93.0538C186.291 92.9955 186.332 92.9228 186.352 92.8432C186.373 92.7636 186.372 92.6799 186.349 92.6009L186.22 92.1264C186.193 92.0276 186.199 91.9223 186.238 91.8273C186.277 91.7322 186.346 91.6529 186.435 91.6017C186.524 91.5505 186.628 91.5305 186.729 91.5447C186.831 91.5589 186.925 91.6066 186.996 91.6802L187.311 92.0165C187.368 92.0754 187.44 92.118 187.52 92.1398C187.599 92.1616 187.683 92.1617 187.762 92.1403C187.842 92.1188 187.914 92.0765 187.972 92.0177C188.029 91.9589 188.07 91.8858 188.09 91.8059L188.203 91.3534C188.216 91.241 188.27 91.1373 188.355 91.0621C188.439 90.9869 188.549 90.9453 188.662 90.9453C188.775 90.9453 188.884 90.9869 188.969 91.0621C189.053 91.1373 189.107 91.241 189.121 91.3534Z" fill="#6CC4BF"/>
<path d="M209.775 96.8115L217.234 110.452L230.875 117.912L217.234 125.372L209.775 139.012L202.315 125.372L188.674 117.912L202.315 110.452L209.775 96.8115Z" fill="#F39B92"/>
<path d="M48.1368 85.4271L50.7763 82.7876L53.4126 85.4271L55.0372 83.8025L52.3977 81.1662L55.0372 78.5267L53.4126 76.9021L50.7763 79.5416L48.1368 76.9021L46.5122 78.5267L49.1517 81.1662L46.5122 83.8025L48.1368 85.4271Z" fill="#D2C5B9"/>
<path d="M36.3845 100.818L38.0153 99.1903L39.643 100.818L40.6485 99.8156L39.0177 98.1879L40.6485 96.5571L39.643 95.5547L38.0153 97.1855L36.3845 95.5547L35.3821 96.5571L37.0129 98.1879L35.3821 99.8156L36.3845 100.818Z" fill="#D2C5B9"/>
<path d="M28.155 84.0633H29.5816V85.4899H30.4583V84.0633H31.8849V83.1866H30.4583V81.76H29.5816V83.1866H28.155V84.0633Z" fill="#D2C5B9"/>
<path d="M35.6743 70.5515H37.1009V71.9781H37.9807V70.5515H39.4073V69.6717H37.9807V68.2451H37.1009V69.6717H35.6743V70.5515Z" fill="#D2C5B9"/>
<path d="M49.5034 99.8343L50.754 100.519L50.069 101.77L50.8389 102.194L51.5239 100.943L52.7745 101.629L53.1956 100.862L51.9481 100.174L52.6331 98.923L51.8633 98.502L51.1782 99.7494L49.9276 99.0644L49.5034 99.8343Z" fill="#D2C5B9"/>
<path d="M212.942 164.32H209.209V160.59H206.915V164.32H203.182V166.617H206.915V170.347H209.209V166.617H212.942V164.32Z" fill="#D2C5B9"/>
<path d="M232.135 161.746H229.829V159.44H228.412V161.746H226.108V163.164H228.412V165.467H229.829V163.164H232.135V161.746Z" fill="#D2C5B9"/>
<path d="M226.108 179.412L225.1 178.407L226.108 177.395L225.486 176.776L224.477 177.785L223.469 176.776L222.847 177.395L223.855 178.407L222.847 179.412L223.469 180.034L224.477 179.026L225.486 180.034L226.108 179.412Z" fill="#D2C5B9"/>
<path d="M211.233 183.651L210.224 182.643L211.233 181.634L210.614 181.012L209.605 182.02L208.596 181.012L207.974 181.634L208.983 182.643L207.974 183.651L208.596 184.27L209.605 183.262L210.614 184.27L211.233 183.651Z" fill="#D2C5B9"/>
<path d="M222.162 153.165L221.762 151.795L223.132 151.396L222.887 150.554L221.517 150.953L221.118 149.583L220.276 149.828L220.675 151.198L219.305 151.597L219.55 152.439L220.92 152.04L221.316 153.41L222.162 153.165Z" fill="#D2C5B9"/>
<path d="M53.2335 117.453L52.6741 118.905C52.6169 119.052 52.6083 119.214 52.6496 119.367C52.6909 119.519 52.7798 119.655 52.9035 119.753L54.1259 120.74C54.2388 120.83 54.323 120.951 54.3682 121.088C54.4134 121.225 54.4176 121.372 54.3802 121.512C54.3428 121.651 54.2655 121.777 54.1579 121.873C54.0502 121.969 53.9167 122.032 53.7739 122.053L52.2216 122.292C52.0635 122.316 51.917 122.39 51.8039 122.503C51.6908 122.616 51.617 122.762 51.5932 122.921L51.3544 124.473C51.3322 124.615 51.2692 124.748 51.1731 124.855C51.077 124.962 50.9519 125.039 50.8129 125.077C50.674 125.114 50.5271 125.111 50.3901 125.067C50.253 125.023 50.1318 124.94 50.0409 124.828L49.0542 123.602C48.9557 123.479 48.8203 123.39 48.6677 123.349C48.515 123.307 48.3532 123.316 48.2058 123.373L46.7415 123.942C46.6072 123.995 46.4603 124.007 46.3189 123.978C46.1775 123.948 46.0479 123.878 45.9457 123.776C45.8436 123.674 45.7736 123.544 45.7441 123.403C45.7147 123.262 45.7272 123.115 45.78 122.98L46.3456 121.516C46.4042 121.369 46.4138 121.207 46.373 121.054C46.3323 120.901 46.2433 120.766 46.1194 120.668L44.8939 119.681C44.7823 119.59 44.6993 119.469 44.6549 119.332C44.6106 119.196 44.6068 119.049 44.644 118.91C44.6812 118.771 44.7579 118.646 44.8647 118.55C44.9714 118.453 45.1038 118.39 45.2458 118.367L46.8169 118.129C46.9755 118.106 47.1225 118.032 47.2358 117.919C47.349 117.806 47.4226 117.659 47.4454 117.5L47.6874 115.948C47.7083 115.805 47.7706 115.671 47.8666 115.563C47.9625 115.455 48.088 115.377 48.2276 115.339C48.3671 115.302 48.5147 115.306 48.6521 115.351C48.7894 115.396 48.9107 115.48 49.0008 115.593L49.9875 116.818C50.086 116.942 50.2214 117.031 50.3741 117.072C50.5267 117.114 50.6885 117.105 50.8359 117.048L52.3002 116.479C52.4344 116.432 52.5793 116.425 52.7175 116.458C52.8557 116.491 52.9814 116.564 53.0798 116.666C53.1781 116.769 53.2449 116.898 53.2721 117.037C53.2994 117.177 53.2859 117.321 53.2335 117.453Z" fill="#628ECC"/>
<path d="M190.843 166.017L188.97 171.538L192.458 176.213L186.626 176.138L183.257 180.899L181.526 175.33L175.958 173.599L180.718 170.234L180.646 164.402L185.319 167.89L190.843 166.017Z" fill="#628ECC"/>
<path d="M99.5442 37.5861C99.748 37.8262 100.012 38.0082 100.308 38.1135C100.605 38.2188 100.925 38.2437 101.234 38.1856C101.544 38.1275 101.833 37.9886 102.071 37.7828C102.31 37.5771 102.489 37.3119 102.592 37.0142" stroke="#F39B92" stroke-width="2" stroke-miterlimit="10" stroke-linecap="round"/>
<path d="M36.4474 18.2141C36.446 15.2103 35.6916 12.2547 34.253 9.61774C32.8145 6.98076 30.7378 4.74651 28.2128 3.11934C25.6878 1.49218 22.7952 0.524016 19.7995 0.303408C16.8038 0.0828003 13.8005 0.616785 11.0644 1.85653C8.32835 3.09627 5.94675 5.0022 4.13744 7.40002C2.32813 9.79783 1.14886 12.611 0.707481 15.5822C0.2661 18.5535 0.576693 21.588 1.61086 24.4082C2.64502 27.2284 4.36975 29.7443 6.6273 31.7259C11.5921 36.0685 15.6959 41.3255 18.4234 47.3367L18.4674 47.4341L18.5113 47.3367C21.1807 41.4154 25.1262 36.1575 30.0655 31.9396C32.0667 30.2563 33.6751 28.1553 34.7776 25.7842C35.8801 23.413 36.4501 20.8291 36.4474 18.2141Z" fill="#7296A3"/>
<path d="M0.51253 17.6077C0.419081 20.2651 0.918509 22.91 1.97456 25.3504C3.03061 27.7908 4.61679 29.9654 6.61795 31.7164C11.5922 36.0685 15.696 41.3255 18.4234 47.3366" stroke="#FFF1D7" stroke-width="2" stroke-miterlimit="10" stroke-linecap="round"/>
<path d="M18.5239 47.3367C21.1933 41.4154 25.1388 36.1575 30.078 31.9396C32.0761 30.2559 33.6817 28.1553 34.782 25.7854C35.8823 23.4154 36.4507 20.8334 36.4474 18.2205" stroke="#2B4257" stroke-width="2" stroke-miterlimit="10" stroke-linecap="round"/>
<path d="M18.4799 24.376C21.883 24.376 24.6418 21.6172 24.6418 18.214C24.6418 14.8108 21.883 12.052 18.4799 12.052C15.0767 12.052 12.3179 14.8108 12.3179 18.214C12.3179 21.6172 15.0767 24.376 18.4799 24.376Z" fill="#A7C0C6"/>
<path d="M18.48 57.8852C19.8093 57.8852 20.8869 56.8076 20.8869 55.4783C20.8869 54.1489 19.8093 53.0713 18.48 53.0713C17.1506 53.0713 16.073 54.1489 16.073 55.4783C16.073 56.8076 17.1506 57.8852 18.48 57.8852Z" fill="#7296A3"/>
<path d="M18.48 12.052C19.2892 12.052 20.0905 12.2114 20.8381 12.5211C21.5857 12.8307 22.265 13.2846 22.8372 13.8568C23.4094 14.429 23.8632 15.1083 24.1729 15.8559C24.4826 16.6035 24.642 17.4048 24.642 18.214" stroke="#FFF1D7" stroke-width="2" stroke-miterlimit="10" stroke-linecap="round"/>
<path d="M12.3179 18.214C12.3179 16.5797 12.9671 15.0124 14.1227 13.8568C15.2783 12.7012 16.8456 12.052 18.4799 12.052" stroke="#2B4257" stroke-width="2" stroke-miterlimit="10" stroke-linecap="round"/>
</g>
<defs>
<clipPath id="clip0_601_81">
<rect x="0.198242" y="0.246582" width="231.937" height="284.237" fill="white"/>
</clipPath>
</defs>
</svg>
