<svg xmlns="http://www.w3.org/2000/svg" viewBox="0 0 48 48"><title>7-Communication</title><g id="_7-Communication" data-name="7-Communication"><path d="M5,2H35a3,3,0,0,1,3,3V6h2V5a5,5,0,0,0-5-5H5A5,5,0,0,0,0,5V27a5,5,0,0,0,5,5V30a3,3,0,0,1-3-3V5A3,3,0,0,1,5,2Z"/><path d="M43,9H13a5,5,0,0,0-5,5V36a5,5,0,0,0,5,5H29.59l6.71,6.71A1,1,0,0,0,38,47V41h5a5,5,0,0,0,5-5V14A5,5,0,0,0,43,9Zm3,27a3,3,0,0,1-3,3H37a1,1,0,0,0-1,1v4.59l-5.29-5.29A1,1,0,0,0,30,39H13a3,3,0,0,1-3-3V14a3,3,0,0,1,3-3H43a3,3,0,0,1,3,3Z"/><rect x="16" y="17" width="14" height="2"/><rect x="16" y="24" width="24" height="2"/><rect x="16" y="31" width="24" height="2"/><rect x="32" y="17" width="2" height="2"/></g></svg>