<svg width="400" height="400" viewBox="0 0 400 400" fill="none" xmlns="http://www.w3.org/2000/svg">
<path d="M212.016 249.762C244.742 248.102 274.724 247.35 279.558 250.06C282.048 251.46 285.922 269.86 287.702 282.166C297.754 280.966 310.386 279.862 323.006 279.002C321.132 269.534 319.976 263.602 315.724 254.454C315.08 253.068 316.844 252.508 317.562 253.774C321.823 261.574 324.684 270.059 326.016 278.846C343.102 277.724 359.96 277.046 370.526 277.046C369.326 266.706 362.68 242.878 350.766 230.66C341.582 221.242 323.766 212.86 307.998 210.876C307.752 213.061 306.91 215.137 305.562 216.874C304.214 218.612 302.414 219.944 300.358 220.726C291.934 224.036 276.558 224.906 262.842 217.372C248.372 221.5 221.854 237.248 212.016 249.762Z" fill="#38A1FF"/>
<path d="M388.412 323.358C302.126 324.98 216.23 324.66 129.99 324.758C128.246 324.758 127.852 327.484 129.656 327.516C215.702 329.106 302.774 327.234 388.806 326.18C390.644 326.164 390.24 323.324 388.412 323.358Z" fill="#38A1FF"/>
<path d="M175.958 152.872C184.816 153.038 227.986 152.234 232.576 152.036C233.96 151.976 233.924 149.588 232.576 149.588C226.414 149.588 185.874 150.37 175.958 150.89C175.718 150.922 175.498 151.041 175.339 151.223C175.18 151.405 175.092 151.639 175.092 151.881C175.092 152.123 175.18 152.357 175.339 152.539C175.498 152.721 175.718 152.84 175.958 152.872Z" fill="#38A1FF"/>
<path d="M140.6 141.814C139.956 142.15 128.818 155.538 133.95 153.946C134.678 153.72 141.95 144.506 142.308 142.854C142.351 142.64 142.327 142.418 142.239 142.218C142.152 142.018 142.005 141.85 141.818 141.736C141.632 141.622 141.415 141.569 141.197 141.583C140.979 141.597 140.771 141.678 140.6 141.814Z" fill="#38A1FF"/>
<path d="M116.33 111.4C119.912 111.568 192.85 111.386 197.198 110.958C197.816 110.876 198.381 110.568 198.784 110.093C199.187 109.619 199.4 109.011 199.381 108.388C199.361 107.766 199.112 107.173 198.68 106.724C198.248 106.275 197.665 106.002 197.044 105.958C176.746 106.21 134.55 106.314 116.444 106.71C113.728 106.772 113.5 111.272 116.33 111.4Z" fill="#38A1FF"/>
<path d="M218.428 188.368C213.734 188.368 178.044 187.968 175.516 188.69C174.656 188.938 174.316 190.33 175.348 190.624C178.044 191.398 213.548 191.006 218.45 191.006C223.352 191.006 228.11 191.182 232.91 191.006C234.378 190.952 234.27 188.492 232.814 188.428C228.038 188.216 223.214 188.368 218.428 188.368Z" fill="#38A1FF"/>
<path d="M174.954 207.054C174.651 207.144 174.396 207.35 174.244 207.627C174.092 207.904 174.055 208.23 174.142 208.534C174.554 209.934 172.704 209.454 233.53 210.468C233.866 210.434 234.177 210.276 234.403 210.026C234.629 209.776 234.754 209.45 234.754 209.113C234.754 208.776 234.629 208.45 234.403 208.2C234.177 207.95 233.866 207.792 233.53 207.758C175.178 206.816 178.8 206.756 174.954 207.054Z" fill="#38A1FF"/>
<path d="M232.23 172.38C232.555 172.358 232.861 172.216 233.088 171.981C233.314 171.747 233.445 171.436 233.455 171.11C233.466 170.784 233.354 170.466 233.143 170.218C232.932 169.969 232.635 169.808 232.312 169.766C223.632 169.526 183.24 169.19 175.912 170.65C174.712 170.888 174.98 172.636 176.126 172.738C182.324 173.296 191.8 171.214 232.23 172.38Z" fill="#38A1FF"/>
<path d="M285.576 136.848C285.684 119.62 286.484 98.1279 285.038 81.4119C284.998 81.1609 284.867 80.9335 284.669 80.7736C284.472 80.6137 284.222 80.5327 283.968 80.5461C283.715 80.5595 283.475 80.6665 283.295 80.8463C283.116 81.0262 283.009 81.2661 282.996 81.5199C282.526 89.5399 282.968 126.804 282.996 137.04C283 138.722 285.566 138.532 285.576 136.848Z" fill="#38A1FF"/>
<path d="M134.646 216.664C137.125 219.379 139.76 221.947 142.538 224.354C143.738 225.484 145.586 223.682 144.378 222.554C141.788 219.949 139.066 217.479 136.222 215.154C135.356 214.6 133.978 215.734 134.646 216.664Z" fill="#38A1FF"/>
<path d="M23.8 81.412C23.8 79.908 21.432 79.634 21.412 81.174C20.624 144.886 21.676 218.992 24.72 282.374C24.804 284.13 27.52 283.7 27.43 281.956C24.214 214.91 23.708 148.514 23.8 81.412Z" fill="#38A1FF"/>
<path d="M53.8861 223.578C53.2141 224.578 54.772 225.85 55.558 224.916C56.572 223.716 62.4521 216.902 62.1581 215.436C61.3481 211.552 55.0341 221.88 53.8861 223.578Z" fill="#38A1FF"/>
<path d="M97.884 191.258C96.858 191.068 90.35 196.844 89.036 198.098C76.75 190.064 77.972 192.042 78.124 196.898C78.1702 200.22 78.4013 203.536 78.816 206.832C78.966 207.874 80.55 207.692 80.616 206.678C80.866 202.964 80.388 199.262 80.328 195.55C91.146 202.15 87.802 201.95 97.904 193.674C99.104 195 104.818 200.56 106.548 200.35C107.948 200.176 112.662 193.842 113.784 192.492C113.784 195.358 113.876 203.538 114.726 205.854C115.166 207.054 116.326 206.63 116.386 205.436C116.534 202.892 116.226 196.862 116.232 193.926C116.232 190.582 116.222 189.726 114.822 187.726C111.782 183.382 104.082 172.74 99.384 166.964C95.246 161.874 95.064 161.764 92.16 166.26C87.686 173.198 80.176 186.66 79.028 189.22C78.542 190.298 80.204 190.806 80.782 190.008C82.706 187.35 87.062 179.536 89.068 176.098C93.578 176.278 98.0946 176.202 102.596 175.87C106.31 180.27 109.82 184.814 113.196 189.47L106.308 197.828C105.37 197.084 98.922 191.45 97.884 191.258Z" fill="#38A1FF"/>
<path d="M132.342 280.8C121.596 280.2 34.0901 280.67 30.6761 281.2C30.4236 281.281 30.2053 281.444 30.0552 281.663C29.9051 281.882 29.8318 282.144 29.8466 282.409C29.8615 282.674 29.9637 282.927 30.1373 283.127C30.3109 283.328 30.5461 283.465 30.8061 283.518C63.8921 283.612 99.0061 283.35 132.15 283.386C133.762 283.386 134.038 280.9 132.342 280.8Z" fill="#38A1FF"/>
<path d="M58.1021 156.966C59.2861 158.288 61.1021 156.632 60.1181 155.51C57.7301 152.8 52.6141 146.646 50.2561 144.574C49.3221 143.752 48.0561 145.038 48.7161 146.018C50.4121 148.548 55.7641 154.358 58.1021 156.966Z" fill="#38A1FF"/>
<path d="M96.6001 145.2C96.7501 140.009 96.4429 134.815 95.6821 129.678C95.5767 129.493 95.42 129.343 95.231 129.245C95.042 129.148 94.8288 129.107 94.6172 129.128C94.4055 129.15 94.2046 129.232 94.0386 129.365C93.8726 129.498 93.7488 129.676 93.6821 129.878C93.5202 135.063 93.7716 140.253 94.4341 145.398C94.4944 145.656 94.6459 145.884 94.8608 146.039C95.0757 146.194 95.3394 146.266 95.6033 146.242C95.8672 146.218 96.1134 146.099 96.2966 145.907C96.4798 145.716 96.5876 145.465 96.6001 145.2Z" fill="#38A1FF"/>
<path d="M98.3501 222.634C98.3501 224.294 97.9081 235.314 98.5041 236.76C98.6094 236.942 98.7609 237.094 98.9433 237.199C99.1256 237.304 99.3325 237.36 99.5431 237.36C99.7536 237.36 99.9605 237.304 100.143 237.199C100.325 237.094 100.477 236.942 100.582 236.76C101.204 235.172 100.498 224.82 100.416 222.634C100.308 221.464 98.3501 221.44 98.3501 222.634Z" fill="#38A1FF"/>
<path d="M48.31 186.482C72.6 140.8 127.968 145.6 148.33 182.78C124.274 219.494 77.146 225.052 48.2 189.752C47.296 188.652 46.178 190.058 47 191.21C72.448 226.61 126.822 221.99 149.274 186.21C150.005 185.301 150.432 184.184 150.495 183.019C150.557 181.853 150.251 180.698 149.62 179.716C124.93 137.432 63.094 145.038 46.638 185.4C46.148 186.6 47.724 187.586 48.31 186.482Z" fill="#38A1FF"/>
<path fill-rule="evenodd" clip-rule="evenodd" d="M269.708 140.084C263.452 141.284 257.934 154.95 264.836 161.348C269.062 165.266 288.524 165.432 300.322 164.93C300.407 166.374 300.717 167.796 301.24 169.144C301.71 170.344 303.118 170.724 302.768 168.56C302.577 167.327 302.489 166.081 302.506 164.834C304.894 164.716 306.78 164.572 307.998 164.434C307.68 167.099 307.222 169.745 306.626 172.362C306.296 173.796 307.906 174.064 308.452 172.696C310.126 168.369 310.804 163.721 310.434 159.096C309.722 148.902 281.136 137.888 269.708 140.084ZM271.678 145.468C268.8 146.126 268.12 150.498 267.858 152.836C267.408 156.836 264.858 154.036 265.47 150.518C265.938 147.866 268.204 143.546 271.51 143.976C271.702 143.966 271.89 144.029 272.036 144.153C272.183 144.277 272.276 144.452 272.298 144.643C272.319 144.833 272.267 145.025 272.152 145.178C272.037 145.332 271.867 145.435 271.678 145.468Z" fill="#191919"/>
<path fill-rule="evenodd" clip-rule="evenodd" d="M293.098 181.24C294.692 178.54 295.788 175.576 296.334 172.488C299.021 172.975 301.583 173.995 303.868 175.488C305.228 176.074 305.744 174.288 305.068 173.734C302.613 171.734 299.613 170.519 296.458 170.248C295.002 167.49 283.934 166.848 282.226 169.758C281.808 169.523 281.345 169.38 280.868 169.337C280.391 169.294 279.909 169.352 279.456 169.508C278.586 167.12 268.77 166.522 266.324 169.28C263.506 168.97 262.336 171.572 266.06 171.548C266.198 174.133 266.676 176.688 267.482 179.148C268.446 181.12 275.378 181.09 276.758 180.092C278.4 178.906 279.146 173.728 279.612 171.734C280.288 171.522 281.019 171.564 281.666 171.854C281.652 174.527 281.956 177.193 282.572 179.794C283.632 181.902 291.56 183.056 293.098 181.24ZM276 177.8C275.674 178.586 275.38 178.774 272.752 178.67C268.312 178.496 269.242 179.458 267.882 170.516C271.01 169.454 274.401 169.454 277.528 170.516C277.485 173.019 276.967 175.491 276 177.8ZM284.358 178.706C283.863 176.248 283.686 173.736 283.832 171.232C287.262 170.008 291.027 170.123 294.376 171.554C294.189 173.521 293.684 175.444 292.882 177.25C291.746 179.736 291.558 180.062 287.976 179.77C286.256 179.63 284.6 179.248 284.358 178.708V178.706Z" fill="#191919"/>
<path fill-rule="evenodd" clip-rule="evenodd" d="M286.054 177.108C286.428 178.456 289.054 178.614 288.442 174.72C288.092 172.504 284.968 173.2 286.054 177.108Z" fill="#191919"/>
<path fill-rule="evenodd" clip-rule="evenodd" d="M308.738 175.496C301.886 176.07 298.504 188.622 294.864 189.824C292.32 190.666 286.614 187.006 280.848 186.612C275.082 186.218 271.798 188.654 270.722 188.14C269.646 187.626 270.388 183.126 270.388 182.076C270.388 181.026 269.816 180.452 268.8 182.768C267.784 185.084 257.876 207.316 262.186 213.298C268.346 221.846 293.484 223.656 301.288 217.776C311.072 210.404 302.746 186.728 305.156 180.56C305.609 179.678 306.332 178.964 307.219 178.522C308.106 178.079 309.111 177.932 310.088 178.1C313.384 179.528 312.478 189.3 307.21 187.77C305.886 187.388 305.586 189.052 306.81 189.694C310.388 191.576 313.9 188.642 314.368 183.724C314.718 180 313.454 175.102 308.738 175.496ZM281.456 197.696C276.49 197.696 275.486 195.726 275.068 192.496C279.366 193.42 283.82 193.343 288.084 192.27C287.63 195.222 287 197.704 281.456 197.704V197.696Z" fill="#191919"/>
<path fill-rule="evenodd" clip-rule="evenodd" d="M279.08 176.714C278.161 178.834 277.472 181.047 277.026 183.314C276.532 186.004 280.11 186.012 282.126 185.702C283.326 185.518 283.546 184.15 282.232 184.054C281.266 183.982 279.368 183.934 279.188 183.6C279.353 181.369 279.782 179.165 280.466 177.034C280.744 176.154 279.46 175.81 279.08 176.714Z" fill="#191919"/>
<path fill-rule="evenodd" clip-rule="evenodd" d="M273.4 177.2C274.512 176.776 274.6 173.782 273.65 173.224C271.252 171.8 270.918 178.136 273.4 177.2Z" fill="#191919"/>
<path fill-rule="evenodd" clip-rule="evenodd" d="M292.966 71.86C200.47 71.932 102.278 71.718 11.19 72.494C9.63804 72.506 9.60204 76.494 11.094 76.504C103.304 77.082 200.422 76.362 292.87 76.29C294.53 76.288 294.566 71.86 292.966 71.86Z" fill="#191919"/>
<path fill-rule="evenodd" clip-rule="evenodd" d="M187.586 284.768C171.786 283.828 147.312 280.736 132.568 274.406C130.672 273.59 121.306 275.12 110.672 270.206C109.56 269.694 109.118 271.26 110.158 271.902C115.592 275.25 122.456 276.142 128.724 276.344C130.409 276.301 132.078 276.674 133.584 277.43C150.956 283.66 169.251 286.929 187.706 287.1C189.222 287.122 189.174 284.864 187.586 284.768Z" fill="#191919"/>
<path fill-rule="evenodd" clip-rule="evenodd" d="M367.22 280.232C366.912 278.548 364.642 279.142 364.926 280.816C365.903 286.825 365.516 292.977 363.792 298.816C359.71 313.042 347.698 310.76 335.674 310.206C323.054 309.626 305.674 308.416 294.77 307.914C294.529 307.882 294.286 307.945 294.091 308.09C293.896 308.236 293.766 308.451 293.727 308.691C293.689 308.931 293.746 309.176 293.886 309.375C294.025 309.573 294.237 309.709 294.476 309.754C304.966 311.42 327.374 312.406 336.104 312.82C348.044 313.388 361.364 314.98 365.81 301.156C367.998 294.404 368.482 287.216 367.22 280.232Z" fill="#191919"/>
<path fill-rule="evenodd" clip-rule="evenodd" d="M288.954 287.36C304.406 284.903 319.972 283.225 335.592 282.334C335.845 282.311 336.078 282.192 336.245 282C336.411 281.809 336.497 281.561 336.485 281.308C336.472 281.055 336.363 280.816 336.178 280.642C335.994 280.468 335.75 280.372 335.496 280.374C319.769 281.019 304.095 282.614 288.56 285.15C288.267 285.203 288.007 285.37 287.837 285.615C287.668 285.86 287.602 286.162 287.655 286.455C287.708 286.748 287.875 287.008 288.12 287.178C288.365 287.347 288.667 287.413 288.96 287.36H288.954Z" fill="#191919"/>
<path fill-rule="evenodd" clip-rule="evenodd" d="M124.45 270.06C124.616 270.059 124.781 270.024 124.933 269.958C125.086 269.892 125.224 269.795 125.338 269.675C125.453 269.554 125.542 269.412 125.6 269.256C125.659 269.1 125.685 268.934 125.678 268.768C125.671 268.602 125.63 268.439 125.558 268.289C125.486 268.138 125.385 268.004 125.261 267.894C125.136 267.784 124.99 267.7 124.832 267.648C124.675 267.595 124.508 267.575 124.342 267.588C116.918 267.826 113.172 265.718 108.272 262.238C107.496 261.688 106.672 262.658 107.272 263.438C110.76 268.048 118.898 270.276 124.45 270.06Z" fill="#191919"/>
<path fill-rule="evenodd" clip-rule="evenodd" d="M136.8 257.4C137.704 258.968 139.6 259.18 141.288 259.562C151.258 261.828 174.072 261.072 184.654 260.948C186.158 260.93 185.854 258.986 184.308 259C176.582 259.078 153.264 259.298 141.694 257.162C139.558 256.762 139.668 257.078 138.578 255.362C136.518 252.11 133.446 248.132 129.72 248.066C128.608 248.046 128.52 249.118 129.468 249.594C132.76 251.245 135.358 254.011 136.8 257.4Z" fill="#191919"/>
<path fill-rule="evenodd" clip-rule="evenodd" d="M130.2 257.844C125.036 256.328 117.738 253.896 113.724 248.71C112.524 247.154 111.504 248.364 112.1 249.618C114.6 254.882 123.752 259.618 129.006 259.818C131.912 259.94 131.104 258.108 130.2 257.844Z" fill="#191919"/>
<path fill-rule="evenodd" clip-rule="evenodd" d="M109.286 253.762C109.121 253.561 108.886 253.431 108.628 253.399C108.37 253.367 108.11 253.434 107.9 253.588C107.691 253.742 107.548 253.97 107.502 254.225C107.455 254.481 107.508 254.744 107.65 254.962C109.556 257.697 112.032 259.987 114.907 261.675C117.782 263.363 120.989 264.408 124.306 264.74C124.567 264.749 124.824 264.673 125.038 264.522C125.252 264.372 125.411 264.155 125.491 263.906C125.57 263.657 125.567 263.389 125.48 263.143C125.393 262.896 125.228 262.684 125.01 262.54C123.256 261.784 115.8 261.298 109.286 253.762Z" fill="#191919"/>
<path fill-rule="evenodd" clip-rule="evenodd" d="M339.532 314.952C335.95 314.486 294.4 315.406 292.476 314.618C290.552 313.83 280.6 257.152 278 253.428C275.4 249.704 193.502 252.066 189.778 254.216C186.054 256.366 198.352 321.106 201.538 322.416C204.38 323.582 335.262 321.962 339.538 321.736C343.814 321.51 343.114 315.418 339.532 314.952ZM236.348 296.326C225.174 297.256 221.672 278.926 232.838 277.104C238.138 276.238 242.808 280.938 243.798 286.726C244.004 287.854 243.97 289.013 243.697 290.127C243.425 291.241 242.921 292.285 242.218 293.191C241.515 294.096 240.629 294.844 239.617 295.384C238.606 295.924 237.492 296.245 236.348 296.326Z" fill="#191919"/>
</svg>
