<svg width="400" height="400" viewBox="0 0 400 400" fill="none" xmlns="http://www.w3.org/2000/svg">
<path d="M222.16 301.06C219.7 300.82 216.54 300.32 214.68 301.5C215.462 301.215 216.287 301.066 217.12 301.06C222.86 301.06 227.5 307.64 227.5 315.76C227.5 323.88 223 330.22 217.5 330.42C219.005 330.344 220.502 330.157 221.98 329.86C228.3 328.72 232.5 323 232.5 314.88C232.5 306.76 227.86 301.64 222.16 301.06Z" fill="#FFE7AB"/>
<path d="M217.12 330.38C222.842 330.38 227.48 323.808 227.48 315.7C227.48 307.592 222.842 301.02 217.12 301.02C211.398 301.02 206.76 307.592 206.76 315.7C206.76 323.808 211.398 330.38 217.12 330.38Z" fill="white"/>
<path d="M226.64 301.54C224.818 300.556 222.817 299.948 220.756 299.752C218.694 299.556 216.615 299.777 214.64 300.4C209.56 301.96 205.74 308.22 205.74 315.7C205.74 323.7 210.1 330.3 215.74 331.26C224.76 332.82 233.52 327.14 233.52 314.88C233.5 306.98 229.78 303.26 226.64 301.54ZM207.76 315.7C207.76 309.42 211.18 302.02 217.12 302.02C222.28 302.02 226.48 308.16 226.48 315.7C226.48 323.24 222.28 329.38 217.12 329.38C211.96 329.38 207.76 323.24 207.76 315.7ZM223.76 328.34C230.36 321.66 229.76 307.92 222.8 302.18C228.06 303.6 231.42 307.66 231.42 314.88C231.5 321.54 228.58 326.58 223.84 328.34H223.76Z" fill="#5E503B"/>
<path d="M242.16 289.82C241.368 288.174 240.179 286.751 238.7 285.68C233.356 281.177 227.62 277.161 221.56 273.68L220.26 273.88C217.894 277.123 216.263 280.843 215.48 284.78C215.36 285.178 215.36 285.602 215.48 286C215.756 286.433 216.173 286.758 216.66 286.92C222.98 289.66 229.46 292.02 235.94 294.38C236.695 294.778 237.526 295.011 238.378 295.063C239.229 295.115 240.083 294.984 240.88 294.68C241.617 294.138 242.146 293.36 242.378 292.476C242.611 291.592 242.534 290.654 242.16 289.82Z" fill="#FFE7AB"/>
<path d="M237.16 283.24C232.382 279.377 227.313 275.886 222 272.8C221.076 272.675 220.139 272.888 219.36 273.4C217.119 276.484 215.521 279.986 214.66 283.7C214.451 284.21 214.359 284.76 214.39 285.31C214.421 285.861 214.575 286.397 214.84 286.88C215.592 287.573 216.496 288.08 217.48 288.36C225.98 291.88 225.82 291.58 229.72 293.2C232.262 294.271 234.867 295.186 237.52 295.94C238.5 296.253 239.556 296.226 240.518 295.863C241.48 295.5 242.292 294.822 242.82 293.94C245.28 289.48 240.2 285.68 237.16 283.24ZM238.4 294.06C236.248 293.562 234.152 292.852 232.14 291.94C227.66 290.3 223.2 288.62 218.82 286.78C218.13 286.559 217.461 286.278 216.82 285.94C216.22 285.5 216.38 284.88 216.54 284.22C217.328 280.716 218.833 277.413 220.96 274.52C226.819 277.881 232.367 281.756 237.54 286.1C239.261 287.183 240.581 288.798 241.3 290.7C241.435 291.121 241.459 291.571 241.369 292.004C241.278 292.437 241.078 292.84 240.785 293.172C240.493 293.504 240.12 293.755 239.702 293.901C239.284 294.046 238.835 294.08 238.4 294V294.06Z" fill="#5E503B"/>
<path d="M172.96 323.82L217.46 321.24C218.408 321.306 219.348 321.021 220.1 320.44C220.6 319.889 220.897 319.183 220.94 318.44C221.302 315.991 220.874 313.49 219.72 311.3C219.427 310.619 218.922 310.051 218.28 309.68C217.12 309.26 220.66 309.18 174.48 312.08L172.48 324.24L172.96 323.82Z" fill="#FFE7AB"/>
<path d="M214.5 308.56L174.38 311.06C174.164 311.073 173.958 311.151 173.786 311.283C173.615 311.415 173.488 311.595 173.42 311.8L171.42 323.94C171.389 324.17 171.432 324.403 171.544 324.606C171.656 324.809 171.83 324.971 172.041 325.068C172.252 325.164 172.488 325.19 172.715 325.142C172.941 325.094 173.147 324.974 173.3 324.8L214.38 322.44C218.38 325.16 222.8 321.22 222.8 315.54C222.8 309.86 218.34 306 214.5 308.56ZM173.7 322.78L175.32 313L214.28 310.58C215.6 310.58 217.52 309.98 218.48 311.14C219.37 312.474 219.894 314.019 220 315.62C220 316.74 220.3 318.86 219.4 319.72C218.5 320.58 216.14 320.3 214.98 320.36L173.7 322.78Z" fill="#5E503B"/>
<path d="M225.58 285.5C225.58 306.58 211.58 320.2 194.48 320.2C177.38 320.2 163.36 306.58 163.36 285.5C163.36 264.42 177.36 247.34 194.48 247.34C211.6 247.34 225.58 264.42 225.58 285.5Z" fill="white"/>
<path d="M194.48 246.34C176.78 246.34 162.36 263.9 162.36 285.5C162.36 306.18 175.88 321.2 194.48 321.2C213.08 321.2 226.58 306.18 226.58 285.5C226.58 264 212.18 246.34 194.48 246.34ZM194.48 319.2C177.04 319.2 164.36 305.02 164.36 285.5C164.36 265.02 177.88 248.34 194.48 248.34C211.08 248.34 224.58 265.02 224.58 285.5C224.58 305.02 212 319.2 194.48 319.2Z" fill="#5E503B"/>
<path d="M162.64 282.76C166.08 291.34 176.92 294.32 185.12 296.06C200.2 299.24 216.84 295.38 225.94 282.76C226.7 281.7 224.96 280.76 224.22 281.74C212.86 297.2 190.5 297.74 174.22 290.72C170.22 289 166.22 286.44 164.5 282.22C164.04 281.04 162.1 281.56 162.5 282.76H162.64Z" fill="#5E503B"/>
<path d="M210 292C208.48 287.9 204.66 291.2 204.5 295.3C204.422 295.947 204.538 296.602 204.833 297.183C205.129 297.764 205.591 298.243 206.16 298.56C209.24 299.5 211.12 295.04 210 292Z" fill="#EFAC54"/>
<path d="M211.4 293.58C211.58 290.56 207.92 287.08 205.1 290.84C204.229 291.881 203.7 293.166 203.585 294.519C203.471 295.872 203.776 297.227 204.46 298.4C204.739 298.746 205.084 299.033 205.475 299.246C205.865 299.458 206.294 299.591 206.736 299.638C207.178 299.684 207.625 299.643 208.052 299.516C208.478 299.39 208.875 299.18 209.22 298.9C209.962 298.236 210.544 297.412 210.922 296.491C211.299 295.569 211.463 294.574 211.4 293.58ZM208.42 296.98C206.76 298.88 205.08 296.6 205.84 294.2C206.3 292.2 207.66 290.2 208.9 291.86C209.302 292.674 209.47 293.584 209.386 294.488C209.301 295.392 208.966 296.255 208.42 296.98Z" fill="#5E503B"/>
<path d="M186 289.82L185.54 289.32L186.28 288.64C186.374 288.547 186.448 288.436 186.499 288.315C186.55 288.193 186.576 288.062 186.576 287.93C186.576 287.798 186.55 287.667 186.499 287.545C186.448 287.424 186.374 287.313 186.28 287.22C186.09 287.036 185.835 286.932 185.57 286.932C185.305 286.932 185.05 287.036 184.86 287.22L184.14 287.88L183.48 287.18C183.387 287.087 183.276 287.013 183.154 286.962C183.032 286.912 182.902 286.886 182.77 286.886C182.638 286.886 182.508 286.912 182.386 286.962C182.264 287.013 182.153 287.087 182.06 287.18C181.967 287.273 181.893 287.384 181.842 287.506C181.792 287.628 181.766 287.758 181.766 287.89C181.766 288.022 181.792 288.152 181.842 288.274C181.893 288.396 181.967 288.507 182.06 288.6L182.66 289.22L181.4 290.38C181.215 290.57 181.112 290.825 181.112 291.09C181.112 291.355 181.215 291.61 181.4 291.8C181.493 291.894 181.604 291.968 181.725 292.019C181.847 292.07 181.978 292.096 182.11 292.096C182.242 292.096 182.373 292.07 182.495 292.019C182.616 291.968 182.727 291.894 182.82 291.8L184.06 290.68L184.6 291.24C184.787 291.423 185.038 291.526 185.3 291.526C185.562 291.526 185.813 291.423 186 291.24C186.094 291.147 186.168 291.036 186.219 290.915C186.27 290.793 186.296 290.662 186.296 290.53C186.296 290.398 186.27 290.267 186.219 290.145C186.168 290.024 186.094 289.913 186 289.82Z" fill="#5E503B"/>
<path d="M223.08 292.72L222.74 292.42L223.18 291.58C223.276 291.358 223.288 291.108 223.214 290.877C223.14 290.646 222.984 290.45 222.777 290.326C222.569 290.201 222.323 290.156 222.084 290.199C221.846 290.242 221.631 290.37 221.48 290.56L221.2 291.1L221.08 291C220.892 290.812 220.636 290.706 220.37 290.706C220.104 290.706 219.848 290.812 219.66 291C219.472 291.188 219.366 291.444 219.366 291.71C219.366 291.976 219.472 292.232 219.66 292.42L220.22 292.9L219.46 294.32C219.358 294.546 219.343 294.801 219.419 295.037C219.494 295.273 219.655 295.472 219.869 295.596C220.083 295.721 220.335 295.761 220.577 295.71C220.82 295.659 221.034 295.52 221.18 295.32L221.78 294.22C221.971 294.366 222.209 294.436 222.449 294.418C222.689 294.399 222.913 294.293 223.08 294.12C223.263 293.933 223.366 293.682 223.366 293.42C223.366 293.158 223.263 292.907 223.08 292.72Z" fill="#5E503B"/>
<path d="M173.3 304C170.84 303.74 167.66 303.26 165.82 304.42C166.607 304.154 167.43 304.013 168.26 304C174 304 178.64 310.58 178.64 318.68C178.64 326.78 174.14 333.16 168.52 333.36C170.03 333.265 171.533 333.078 173.02 332.8C179.36 331.68 183.52 325.94 183.52 317.82C183.52 309.7 178.96 304.68 173.3 304Z" fill="#FFE7AB"/>
<path d="M168.26 333.44C173.982 333.44 178.62 326.868 178.62 318.76C178.62 310.652 173.982 304.08 168.26 304.08C162.538 304.08 157.9 310.652 157.9 318.76C157.9 326.868 162.538 333.44 168.26 333.44Z" fill="white"/>
<path d="M177.6 304.6C174.314 302.815 170.498 302.262 166.84 303.04C160.28 304.72 156.84 311.88 156.84 318.76C156.84 327.12 161.62 333.98 167.6 334.42C169.454 334.422 171.304 334.234 173.12 333.86C180.02 332.76 184.46 326.5 184.46 317.86C184.52 310 180.76 306.34 177.6 304.6ZM158.9 318.76C158.9 312.46 162.34 305.08 168.26 305.08C173.42 305.08 177.62 311.22 177.62 318.76C177.62 326.3 173.42 332.44 168.26 332.44C163.1 332.44 158.9 326.3 158.9 318.76ZM175.1 331.28C181.58 324.52 180.98 310.98 174.06 305.28C180.06 307.02 182.52 311.76 182.52 317.9C182.52 324.44 179.68 329.42 175.1 331.28Z" fill="#5E503B"/>
<path d="M222.68 149.78C220.68 149.58 218.16 149.2 216.68 150.14C217.32 149.901 217.997 149.779 218.68 149.78C223.26 149.78 226.98 155.06 226.98 161.56C226.98 168.06 223.38 173.16 218.98 173.32C220.189 173.248 221.392 173.094 222.58 172.86C234 170.82 233.68 150.9 222.68 149.78Z" fill="#DFEDED"/>
<path d="M218.64 173.34C223.224 173.34 226.94 168.066 226.94 161.56C226.94 155.054 223.224 149.78 218.64 149.78C214.056 149.78 210.34 155.054 210.34 161.56C210.34 168.066 214.056 173.34 218.64 173.34Z" fill="white"/>
<path d="M226.18 150C223.93 148.778 221.371 148.243 218.82 148.46C212.82 149.08 209.34 155.3 209.34 161.52C209.34 168.56 213.52 174.3 218.64 174.3C226.46 174.3 232 169.94 232 160.82C232.162 158.649 231.7 156.478 230.669 154.561C229.638 152.644 228.08 151.061 226.18 150ZM211.34 161.52C211.34 154.42 215.84 150.74 218.64 150.74C222.64 150.74 225.94 155.58 225.94 161.52C225.94 166.76 223.4 171.14 219.94 172.1C215.04 173.58 211.34 167.54 211.34 161.56V161.52ZM224.84 171.06C229.24 165.64 228.84 156.06 224.16 151.24C226.029 152.015 227.604 153.365 228.654 155.095C229.704 156.825 230.175 158.844 230 160.86C230 165.7 228 169.46 224.84 171.1V171.06Z" fill="#5E503B"/>
<path d="M218.54 166.86C220.65 166.86 222.36 164.433 222.36 161.44C222.36 158.447 220.65 156.02 218.54 156.02C216.43 156.02 214.72 158.447 214.72 161.44C214.72 164.433 216.43 166.86 218.54 166.86Z" fill="#DFEDED"/>
<path d="M218.54 155.02C215.84 155.02 213.72 157.84 213.72 161.44C213.72 165.04 215.84 167.86 218.54 167.86C221.24 167.86 223.36 165.04 223.36 161.44C223.36 157.84 221.24 155.02 218.54 155.02ZM218.54 165.86C217.02 165.86 215.72 163.86 215.72 161.44C215.72 159.02 217.02 157.02 218.54 157.02C220.06 157.02 221.36 159.02 221.36 161.44C221.36 163.86 220 165.86 218.54 165.86Z" fill="#5E503B"/>
<path d="M217.24 163.4C217.24 166.52 216.08 166.12 210.02 166.98C205.6 167.62 201.1 166.52 201.1 163.4C201.1 160.28 204.7 157.74 209.1 157.74C213.5 157.74 217.24 160.28 217.24 163.4Z" fill="#DFEDED"/>
<path d="M209.1 156.74C204.14 156.74 200.1 159.72 200.1 163.4C200.106 163.971 200.234 164.534 200.475 165.052C200.717 165.569 201.066 166.029 201.5 166.4C203.62 168.22 207.5 168.4 210.16 167.98C215.68 167.18 218.16 167.56 218.16 163.4C218.24 159.72 214.14 156.74 209.1 156.74ZM209.88 166C207.47 166.547 204.942 166.146 202.82 164.88C200.82 163.08 203.34 158.74 209.1 158.74C212.98 158.74 216.24 160.88 216.24 163.4C216.24 165.54 216.16 165.1 209.88 166Z" fill="#5E503B"/>
<path d="M246.78 142.38C246.382 140.969 245.632 139.681 244.6 138.64C240.963 134.354 236.947 130.404 232.6 126.84C232.36 127.08 225.68 133.54 226.12 135.76C226.273 136.139 226.557 136.451 226.92 136.64C231.56 139.66 236.36 142.4 241.16 145.14C241.701 145.559 242.326 145.856 242.992 146.011C243.658 146.166 244.35 146.176 245.02 146.04C245.692 145.728 246.234 145.192 246.555 144.525C246.876 143.858 246.955 143.099 246.78 142.38Z" fill="#DFEDED"/>
<path d="M244.18 136.5C240.874 132.774 237.298 129.298 233.48 126.1C233.069 125.926 232.627 125.837 232.18 125.837C231.733 125.837 231.291 125.926 230.88 126.1C228.763 128.162 227.065 130.613 225.88 133.32C225.348 134.15 225.142 135.147 225.3 136.12C225.58 137 226.46 137.46 227.18 137.92C229.18 139.24 238.34 144.78 242.08 146.62C242.853 147.068 243.753 147.244 244.637 147.121C245.521 146.997 246.339 146.582 246.96 145.94C249.68 142.7 246.3 138.92 244.18 136.5ZM243.08 144.92C241.433 144.173 239.848 143.297 238.34 142.3C235.08 140.42 231.86 138.52 228.7 136.5C228.219 136.283 227.773 135.993 227.38 135.64C227.12 135.28 227.38 134.94 227.52 134.52C228.588 131.954 230.158 129.628 232.14 127.68C236.156 131.019 239.889 134.685 243.3 138.64C244.572 139.771 245.466 141.265 245.86 142.92C245.888 143.263 245.826 143.608 245.682 143.921C245.537 144.233 245.314 144.503 245.034 144.705C244.755 144.906 244.428 145.031 244.085 145.069C243.743 145.107 243.397 145.055 243.08 144.92Z" fill="#5E503B"/>
<path d="M234.34 135.7C234.34 152.6 223.16 163.52 209.4 163.52C195.64 163.52 184.48 152.6 184.48 135.7C184.48 118.8 195.64 105.06 209.4 105.06C223.16 105.06 234.34 118.82 234.34 135.7Z" fill="white"/>
<path d="M209.4 104C195.12 104 183.4 118.2 183.4 135.64C183.4 152.34 194.3 164.46 209.4 164.46C224.5 164.46 235.4 152.34 235.4 135.64C235.34 118.26 223.7 104 209.4 104ZM209.4 162.46C195.54 162.46 185.4 151.18 185.4 135.64C185.4 119.3 196.14 106 209.4 106C222.66 106 233.4 119.3 233.4 135.64C233.34 151.24 223.28 162.52 209.4 162.52V162.46Z" fill="#5E503B"/>
<path d="M295.54 226.92C282.755 231.984 269.578 235.998 256.14 238.92C259.402 248.734 263.559 258.227 268.56 267.28L270.42 268.84C282.42 265.547 294.2 261.667 305.76 257.2C301.223 247.524 297.794 237.366 295.54 226.92Z" fill="#FFFDA9"/>
<path d="M306.76 257.02C302.29 247.354 298.871 237.236 296.56 226.84C296.528 226.713 296.47 226.594 296.391 226.489C296.311 226.385 296.212 226.297 296.098 226.232C295.984 226.167 295.859 226.125 295.728 226.109C295.598 226.093 295.466 226.104 295.34 226.14C282.548 231.186 269.373 235.199 255.94 238.14C255.815 238.173 255.698 238.229 255.595 238.307C255.492 238.385 255.406 238.483 255.341 238.595C255.276 238.706 255.233 238.829 255.216 238.957C255.199 239.085 255.207 239.215 255.24 239.34C258.544 249.231 262.734 258.803 267.76 267.94C268.38 269.06 270.1 268.06 269.48 266.92C264.734 258.173 260.72 249.049 257.48 239.64C270.21 236.789 282.706 232.978 294.86 228.24C297.08 238.037 300.318 247.576 304.52 256.7C293.28 260.953 281.86 264.693 270.26 267.92C270.016 268.01 269.815 268.188 269.696 268.418C269.577 268.649 269.548 268.916 269.616 269.167C269.684 269.417 269.843 269.634 270.062 269.773C270.281 269.913 270.544 269.965 270.8 269.92C282.8 266.627 294.58 262.747 306.14 258.28C306.388 258.194 306.592 258.013 306.708 257.777C306.824 257.541 306.843 257.269 306.76 257.02Z" fill="#5E503B"/>
<path d="M290.1 296C290.336 307.221 289.444 318.437 287.44 329.48C287.001 331.299 286.899 333.184 287.14 335.04C287.291 335.966 287.717 336.826 288.362 337.507C289.008 338.188 289.843 338.66 290.76 338.86C291.699 338.934 292.64 338.747 293.48 338.32C295.846 337.043 297.896 335.253 299.48 333.08C304.82 326.06 308.46 317.96 312.7 310.24C313.79 308.218 315.194 306.382 316.86 304.8C317.716 304.03 318.732 303.46 319.836 303.131C320.939 302.803 322.102 302.724 323.24 302.9C324.423 303.229 325.515 303.825 326.431 304.644C327.346 305.462 328.061 306.481 328.52 307.62C329.416 309.913 329.923 312.34 330.02 314.8C330.64 321.16 331.18 327.7 334.02 333.42C334.66 334.7 335.66 336.12 337.1 336.06C337.734 336.026 338.343 335.795 338.84 335.4C341.74 333.4 342.96 329.8 343.88 326.42C347.15 314.54 349.003 302.315 349.4 290L290.1 296Z" fill="#51BDBF"/>
<path d="M286.9 326.82C286.42 329.76 285.36 333.08 286.38 336.02C286.7 337.145 287.379 338.133 288.315 338.834C289.251 339.535 290.391 339.91 291.56 339.9C294.234 339.384 296.654 337.973 298.42 335.9C305.6 327.58 307.58 321.72 312.58 312.62C313.841 309.742 315.734 307.185 318.12 305.14C319.257 304.183 320.714 303.693 322.199 303.767C323.683 303.841 325.084 304.475 326.12 305.54C328.031 307.909 329.082 310.856 329.1 313.9C329.74 320.02 330.1 326.3 332.48 332.04C333.32 334.04 334.6 337.06 337.26 337.02C342.2 337.02 344.92 328.26 345.84 323.4C348.59 312.468 350.14 301.268 350.46 290C350.46 289.735 350.355 289.48 350.167 289.293C349.98 289.105 349.725 289 349.46 289C349.195 289 348.94 289.105 348.753 289.293C348.565 289.48 348.46 289.735 348.46 290C348.254 302.766 346.302 315.443 342.66 327.68C342.096 330.151 340.832 332.408 339.02 334.18C337.74 335.28 336.58 335.42 335.6 333.94C332.18 328.7 331.76 318.42 330.92 312.44C330.26 307.7 327.84 301.86 322.2 301.82C316.56 301.78 313.3 307.36 310.9 311.72C306.4 319.9 302.9 328.4 297.34 334.3C295.8 335.96 292.52 339 290.04 337.64C286.86 335.88 288.26 331.12 288.72 328.36C290.556 317.661 291.373 306.813 291.16 295.96C291.16 295.695 291.055 295.44 290.867 295.253C290.68 295.065 290.425 294.96 290.16 294.96C289.895 294.96 289.64 295.065 289.453 295.253C289.265 295.44 289.16 295.695 289.16 295.96C289.273 306.292 288.517 316.615 286.9 326.82Z" fill="#5E503B"/>
<path d="M173.24 224.22C166 217.1 155.24 214.22 145.24 214.86C135.24 215.5 125.44 218.86 116.12 222.86L113.9 234.86C121.68 231.42 130.48 231.14 138.96 231.74C147.153 232.319 155.275 233.659 163.22 235.74C165.514 236.48 167.909 236.858 170.32 236.86C171.543 236.872 172.746 236.553 173.802 235.937C174.858 235.321 175.728 234.43 176.32 233.36C177.8 230.32 175.7 226.66 173.24 224.22Z" fill="#DFEDED"/>
<path d="M116.38 223.82C131.7 217.38 149.84 211.96 165.78 220.06C169.274 221.798 172.289 224.367 174.56 227.54C175.228 228.282 175.662 229.205 175.806 230.193C175.951 231.182 175.8 232.19 175.372 233.093C174.944 233.995 174.259 234.751 173.403 235.265C172.547 235.778 171.558 236.027 170.56 235.98C168.098 236.032 165.647 235.646 163.32 234.84C156.534 233.062 149.609 231.865 142.62 231.26C132.84 230.34 122.62 230.18 113.46 234.2C112.28 234.72 113.3 236.44 114.48 235.92C123.36 232.04 133.42 232.32 142.86 233.28C162.16 235.28 165.68 239.12 172.26 237.78C173.136 237.605 173.969 237.26 174.712 236.764C175.454 236.267 176.091 235.629 176.587 234.886C177.083 234.143 177.428 233.31 177.602 232.434C177.775 231.558 177.775 230.656 177.6 229.78C176.82 225.9 173.6 222.88 170.26 220.64C163.359 215.974 155.143 213.646 146.82 214C136.02 214.32 125.66 218 115.86 222C114.68 222.5 115.2 224.42 116.38 224V223.82Z" fill="#5E503B"/>
<path d="M293.8 61.14C292.057 60.2445 290.079 59.9158 288.14 60.2C288.14 60.2 132.28 60.2 131.78 60.2C130.524 60.3931 129.381 61.0341 128.561 62.0047C127.741 62.9752 127.3 64.2097 127.32 65.48C127.32 67.48 127.32 183.48 127.32 183.48C127.3 184.221 127.433 184.957 127.711 185.644C127.989 186.331 128.405 186.953 128.935 187.471C129.464 187.99 130.095 188.393 130.788 188.656C131.48 188.919 132.22 189.036 132.96 189H291.08C292.438 188.917 293.711 188.31 294.629 187.306C295.547 186.302 296.039 184.98 296 183.62V68.28C296 65.66 296.28 62.88 293.8 61.14ZM290.86 186.92H132.46C132.03 186.905 131.607 186.804 131.216 186.625C130.825 186.445 130.474 186.19 130.182 185.874C129.89 185.558 129.664 185.187 129.516 184.783C129.368 184.379 129.301 183.95 129.32 183.52C129.32 183.12 129.32 66 129.32 65.78C129.285 65.3374 129.338 64.8922 129.478 64.4708C129.618 64.0494 129.841 63.6603 130.133 63.3265C130.426 62.9927 130.783 62.721 131.183 62.5275C131.582 62.334 132.017 62.2227 132.46 62.2C132.46 62.2 286.62 61.98 290.86 62.2C294.44 62.38 293.98 65.88 293.98 68.36V180.92C294 183.36 294.38 186.86 290.86 186.92Z" fill="#7F7F7F"/>
<path d="M156.22 275.44C144.973 254.265 136.887 231.558 132.22 208.04L80 217.42C79.6885 217.404 79.3773 217.455 79.0877 217.571C78.798 217.687 78.5369 217.864 78.3221 218.09C78.1074 218.316 77.9442 218.586 77.8437 218.881C77.7432 219.176 77.7078 219.49 77.74 219.8L72 278C71.8558 278.484 71.8248 278.995 71.9092 279.493C71.9936 279.991 72.1913 280.463 72.4869 280.873C72.7825 281.282 73.1683 281.619 73.6144 281.856C74.0605 282.093 74.5551 282.224 75.06 282.24L114 294C130.7 299.68 139.7 294.2 154.26 282.5C155.046 282.013 155.713 281.356 156.211 280.577C156.71 279.798 157.027 278.918 157.14 278C157.04 277.086 156.725 276.209 156.22 275.44Z" fill="#DFEDED"/>
<path d="M131.24 208.3C135.974 231.844 144.056 254.588 155.24 275.84C155.818 276.635 156.12 277.597 156.1 278.58C155.838 279.531 155.268 280.368 154.48 280.96C151.452 283.612 148.244 286.051 144.88 288.26C137.88 292.98 130.08 296.46 121.82 294.96C117.29 294.082 112.832 292.872 108.48 291.34C108.48 291.34 76.8 282.06 74.48 281.34C73.66 281.08 72.84 280.72 72.62 279.82C72.5263 278.703 72.5936 277.578 72.8199 276.48C72.8199 276.48 77.8599 224.7 78.4599 220.1C78.6599 218.7 79.7999 218.72 80.9599 218.48L126.24 209.26C127.5 209 126.96 207.08 125.7 207.26L81.3799 216.24C79.6999 216.58 77.3799 216.68 76.7199 218.52C76.3999 219.72 76.8399 215.94 70.7199 278.04C70.503 278.883 70.5432 279.771 70.8355 280.591C71.1277 281.411 71.6587 282.125 72.3599 282.64C74.2609 283.574 76.2791 284.246 78.3599 284.64L114.56 295.06C128.92 300.06 138.56 295.64 150.34 286.62C151.96 285.38 153.58 284.14 155.16 282.84C156.61 281.848 157.638 280.35 158.04 278.64C157.953 276.621 157.255 274.675 156.04 273.06C145.392 252.452 137.646 230.47 133.02 207.74C132.78 206.48 130.84 207 131.02 208.26L131.24 208.3Z" fill="#5E503B"/>
<path d="M137.6 305.56C137.432 303.459 136.947 301.395 136.16 299.44C132.16 289 128.34 278.44 124.02 268.08C123.978 267.907 123.902 267.745 123.796 267.601C123.691 267.458 123.558 267.338 123.405 267.246C123.253 267.155 123.083 267.095 122.907 267.07C122.731 267.045 122.552 267.055 122.38 267.1C90.92 267.74 69.96 269.88 62.62 270.42L44.96 302.28C42.2308 306.653 40.0732 311.358 38.54 316.28C38 318.08 37.9 320.46 39.5 321.42C40.395 321.833 41.4052 321.925 42.36 321.68C52.36 320.04 57.5 313.44 82.6 296.76C84.2026 295.545 86.0422 294.68 88 294.22C89.7413 294.019 91.5054 294.182 93.18 294.7C105.5 298.34 115.44 307.82 127.78 311.44C128.969 311.935 130.252 312.161 131.538 312.102C132.824 312.043 134.081 311.701 135.22 311.1C136.032 310.435 136.672 309.585 137.087 308.621C137.501 307.656 137.677 306.607 137.6 305.56Z" fill="#51BDBF"/>
<path d="M136.78 298.26C133.46 289.02 129.927 279.847 126.18 270.74C125.56 269.28 125.08 266.56 123.24 266.16C122.289 266.06 121.331 266.06 120.38 266.16C97.66 266.84 90.38 267.24 63.76 269.44C62.56 269.54 62.16 269.26 61.76 269.94C42.62 304.38 36.06 314.14 37.36 320.26C39.36 326.7 52.4 319.56 57.78 315.56C65.64 309.96 73.38 304.2 81.42 298.82C83.2031 297.421 85.1849 296.295 87.3 295.48C89.6645 295.057 92.1008 295.321 94.32 296.24C98.2686 297.58 102.063 299.337 105.64 301.48C114.7 306.62 131.84 318.64 137.36 310.28C139.64 306.82 138.12 302.1 136.78 298.26ZM135.2 309.8C134.482 310.446 133.612 310.9 132.672 311.12C131.731 311.34 130.75 311.32 129.82 311.06C119.16 308.72 111.02 301.16 98.84 295.76C92.14 292.96 88.06 291.76 82.1 296.02C77.84 299.06 71.84 302.9 65.12 307.82C58.4 312.74 52 318.48 44 320.48C42.3 320.9 39.58 321.64 39.3 319.18C39.2976 317.348 39.7006 315.538 40.48 313.88C42.1777 309.774 44.1834 305.803 46.48 302L63.34 271.36C63.497 271.403 63.6629 271.403 63.82 271.36C82.58 269.693 101.36 268.633 120.16 268.18C121.02 268.18 122.66 267.78 123.16 268.6C123.92 270.1 131.16 288.94 132.12 291.28C133.08 293.62 133.66 295.58 134.48 297.7C135.324 299.767 135.993 301.901 136.48 304.08C136.719 305.068 136.727 306.097 136.505 307.089C136.283 308.081 135.837 309.008 135.2 309.8Z" fill="#5E503B"/>
<path d="M134 268.68C133.306 248.517 130.054 228.523 124.32 209.18L77.1999 204.92L57.34 258.5C56.0425 261.422 55.3161 264.565 55.2 267.76C55.42 274.34 60.76 279.64 66.48 282.88C80.76 291.02 98.28 290.56 114.48 288.56C121.28 287.68 128.96 285.92 132.24 279.92C133.819 276.397 134.426 272.517 134 268.68Z" fill="#3C444C"/>
<path d="M134.9 263.6C133.92 247.141 131.239 230.827 126.9 214.92C126.36 212.92 125.76 210.92 125.2 208.92C125.179 208.775 125.128 208.636 125.05 208.512C124.972 208.388 124.869 208.281 124.747 208.2C124.625 208.119 124.487 208.064 124.343 208.04C124.198 208.016 124.05 208.022 123.908 208.059C123.767 208.096 123.634 208.162 123.52 208.254C123.405 208.346 123.312 208.46 123.245 208.591C123.178 208.721 123.139 208.864 123.132 209.011C123.124 209.157 123.147 209.303 123.2 209.44H123.34C128.95 228.392 132.175 247.97 132.94 267.72C133.395 271.399 133.005 275.134 131.8 278.64C129.32 284.22 122.92 286.14 117.4 287.12C110.655 288.276 103.823 288.845 96.9799 288.82C84.4599 289.04 67.5399 285.64 59.5399 276.06C57.5131 273.773 56.3154 270.871 56.1399 267.82C55.9599 263.82 57.7599 260.1 59.0999 256.5C65.4599 239.42 71.7932 222.333 78.0999 205.24C78.5599 204.04 76.6199 203.52 76.0999 204.72L58.2999 252.88C56.6192 256.646 55.2805 260.555 54.2999 264.56C52.4599 274.84 61.2399 282.12 70.8999 286.18C84.4999 291.94 99.8199 291.42 114.18 289.6C119.92 288.88 126.3 287.78 130.68 283.6C136.22 278.46 135.28 270.36 134.9 263.6Z" fill="#53606B"/>
<path d="M67.06 211.24C60.8015 234.727 49.7195 256.652 34.52 275.62C33.6207 276.498 33.043 277.654 32.88 278.9C32.9766 279.995 33.4177 281.031 34.14 281.86C37.7389 286.807 42.319 290.958 47.5943 294.055C52.8696 297.152 58.7267 299.128 64.8 299.86C68.3643 300.576 72.0673 299.911 75.16 298C77.663 295.738 79.4147 292.765 80.18 289.48C88.555 264.419 92.8037 238.164 92.76 211.74C84 211.86 67.06 211.24 67.06 211.24Z" fill="#DFEDED"/>
<path d="M92.7999 210.72C84.0188 210.797 75.2569 209.884 66.6799 208C65.4199 207.74 64.8799 209.7 66.1399 210H66.3799C60.2172 233.012 49.5064 254.556 34.8799 273.36C33.7643 274.547 32.8338 275.896 32.1199 277.36C31.0999 280.4 34.1199 283.36 35.8399 285.36C40.0944 290.254 45.3357 294.194 51.2199 296.92C57.0201 299.878 63.4987 301.251 69.9999 300.9C71.5576 300.782 73.0735 300.34 74.451 299.603C75.8284 298.866 77.0371 297.85 77.9999 296.62C79.825 293.806 81.1763 290.711 81.9999 287.46C89.9204 262.996 93.9297 237.434 93.8799 211.72C93.8804 211.582 93.8521 211.445 93.7969 211.318C93.7418 211.191 93.6609 211.077 93.5593 210.983C93.4578 210.889 93.3379 210.817 93.2072 210.772C93.0765 210.727 92.9378 210.709 92.7999 210.72ZM87.5799 257.06C85.519 268.12 82.6786 279.021 79.0799 289.68C78.0799 292.66 76.8199 295.96 73.9999 297.68C71.0308 299.162 67.6483 299.599 64.3999 298.92C53.584 297.474 43.7018 292.03 36.6999 283.66C35.474 282.494 34.5182 281.075 33.8999 279.5C33.4999 277.8 35.2999 276.22 36.2399 275.02C51.1525 255.901 62.038 233.96 68.2399 210.52C75.9775 212.061 83.8506 212.818 91.7399 212.78C91.7161 227.636 90.3235 242.459 87.5799 257.06Z" fill="#5E503B"/>
<path d="M142.6 130.34C122.28 113.44 84.74 112 60.96 129.48C41.84 143.48 32.96 173.9 44.64 195.06C48.2993 201.647 53.2967 207.395 59.3107 211.935C65.3248 216.475 72.2224 219.706 79.56 221.42C108.94 228.42 139.08 214.92 151.56 196.94C166 176.46 161.74 146.24 142.6 130.34Z" fill="#FFF4EE"/>
<path d="M150.28 136.9C133.16 115.06 99.4199 111.04 73.7799 121.22C40.1199 134.14 28.3999 176.98 48.4599 202.62C55.8102 211.799 65.8108 218.489 77.0999 221.78C90.3879 225.496 104.472 225.245 117.62 221.06C129.62 217.42 141.16 211.06 149.38 201.5C164.88 183.5 164.72 155.5 150.28 136.9ZM125.66 216C113.368 221.501 99.8014 223.521 86.4399 221.84C64.4399 218.74 43.6599 202.66 40.9199 179.72C38.4799 159.26 48.6599 137.36 66.5799 126.98C77.3475 120.977 89.4927 117.882 101.82 118C113.391 117.813 124.811 120.639 134.96 126.2C157.76 139.48 166 169.74 152.62 193.6C146.62 204 136.48 211.24 125.66 216Z" fill="#5E503B"/>
<path d="M33.9999 160C33.7295 154.781 34.8695 149.586 37.2999 144.96C39.6799 140.48 43.8399 136.36 48.8999 136.34C50.9207 127.625 55.8606 119.862 62.8999 114.34C81.3799 100 109.34 98.78 128.42 112.34C130.98 114.16 133.6 117.62 131.68 120.12C130.824 121.027 129.692 121.625 128.46 121.82C123.964 122.916 119.25 122.722 114.86 121.26C117.94 121.88 118.86 126.3 117.14 128.92C116.159 130.12 114.943 131.108 113.568 131.823C112.193 132.538 110.686 132.966 109.14 133.08C104.41 133.756 99.5929 133.463 94.9799 132.22C96.3943 132.631 97.5919 133.578 98.317 134.86C99.042 136.142 99.2369 137.656 98.8599 139.08C98.4534 140.508 97.689 141.809 96.6389 142.859C95.5889 143.909 94.2882 144.674 92.8599 145.08C90.0025 145.899 87.0075 146.123 84.0599 145.74C79.3061 145.548 74.6252 144.505 70.2399 142.66C72.5399 143.66 72.5599 147.3 70.7199 149.02C65.9399 152.7 61.2999 149.18 56.2799 148.58C56.2977 152.501 55.5222 156.386 53.9999 160C53.1199 162.5 50.7799 167.74 47.2799 165.66C46.6784 165.292 46.1621 164.801 45.7655 164.218C45.3689 163.635 45.1011 162.974 44.9799 162.28C44.979 163.297 44.679 164.29 44.1172 165.138C43.5555 165.985 42.7568 166.648 41.8207 167.045C40.8847 167.442 39.8526 167.554 38.8531 167.368C37.8536 167.182 36.9309 166.707 36.1999 166C34.744 164.344 33.9594 162.204 33.9999 160Z" fill="#FFFDA9"/>
<path d="M131.82 114.22C129.055 111.199 125.634 108.853 121.82 107.36C112.551 103.071 102.321 101.281 92.1464 102.168C81.9716 103.056 72.2062 106.59 63.82 112.42C55.9803 117.936 50.3696 126.072 48 135.36C45.6697 135.751 43.4617 136.676 41.5495 138.064C39.6374 139.453 38.0732 141.265 36.98 143.36C33.68 149.02 31.82 158.06 33.74 163.54C34.0399 164.737 34.6903 165.818 35.6079 166.643C36.5256 167.469 37.6688 168.002 38.891 168.173C40.1133 168.345 41.3591 168.148 42.4688 167.608C43.5785 167.068 44.5016 166.208 45.12 165.14C45.9596 166.203 47.1643 166.916 48.5 167.14C49.4327 167.091 50.3355 166.795 51.1159 166.282C51.8962 165.769 52.5258 165.057 52.94 164.22C54.0639 162.344 54.9316 160.326 55.52 158.22C56.4958 155.508 57.0424 152.66 57.14 149.78C61.44 150.7 66.08 153.08 70.2 150.56C71.1527 149.952 71.9078 149.08 72.373 148.05C72.8383 147.02 72.9936 145.877 72.82 144.76C75.8425 145.741 78.9713 146.359 82.14 146.6C86.1589 147.347 90.3048 146.994 94.14 145.58C98.68 143.86 101.52 138.34 98.86 134.12C101.231 134.453 103.63 134.546 106.02 134.4C109.297 134.389 112.52 133.564 115.4 132C116.876 131.158 118.004 129.818 118.583 128.221C119.162 126.623 119.154 124.872 118.56 123.28C122.075 123.861 125.672 123.698 129.12 122.8C130.022 122.631 130.865 122.231 131.567 121.639C132.268 121.046 132.803 120.282 133.12 119.42C133.321 118.512 133.309 117.569 133.083 116.667C132.857 115.764 132.425 114.927 131.82 114.22ZM130.34 120C128.096 121.087 125.609 121.576 123.12 121.42C120.635 121.445 118.16 121.094 115.78 120.38C113.78 119.74 113 121.76 115.24 122.38C118.92 124.38 117.06 129.76 112.44 131.02C107.062 132.542 101.377 132.618 95.96 131.24C93.7 130.64 92.66 132.74 95.58 133.4C96.5337 133.94 97.274 134.79 97.6778 135.808C98.0817 136.827 98.1248 137.953 97.8 139C97.2482 140.365 96.3553 141.565 95.2067 142.486C94.0581 143.407 92.6922 144.018 91.24 144.26C87.8128 144.861 84.3072 144.861 80.88 144.26C77.359 143.904 73.9128 143.014 70.66 141.62C70.5287 141.573 70.3893 141.552 70.2499 141.558C70.1105 141.565 69.9737 141.599 69.8474 141.658C69.7212 141.718 69.6078 141.801 69.5139 141.905C69.4199 142.008 69.3473 142.129 69.3 142.26C69.2527 142.391 69.2318 142.531 69.2384 142.67C69.2449 142.81 69.2789 142.946 69.3383 143.073C69.3978 143.199 69.4815 143.312 69.5847 143.406C69.6879 143.5 69.8087 143.573 69.94 143.62C72.2 145.32 70.54 149.1 67.42 149.4C63.7 150.12 60.1 148 56.48 147.52C56.3312 147.481 56.1754 147.476 56.0243 147.505C55.8732 147.535 55.7308 147.598 55.6077 147.69C55.4845 147.783 55.3839 147.902 55.3133 148.038C55.2427 148.175 55.204 148.326 55.2 148.48C55.1848 152.912 54.1803 157.285 52.26 161.28C51.7661 162.661 50.8581 163.855 49.66 164.7C47.66 165.72 46.34 163.42 45.98 161.84C45.9097 161.621 45.7674 161.432 45.5761 161.304C45.3849 161.176 45.156 161.116 44.9265 161.135C44.6971 161.153 44.4807 161.249 44.3125 161.406C44.1443 161.563 44.0342 161.772 44 162C43.9905 162.627 43.8401 163.244 43.5599 163.805C43.2797 164.365 42.877 164.856 42.3814 165.24C41.8859 165.624 41.3103 165.892 40.6973 166.024C40.0842 166.155 39.4495 166.147 38.84 166C32.5 164.48 35.42 150.48 38.56 144.76C40.72 140.98 44.34 137.26 49 137.14C49.2164 137.14 49.4269 137.07 49.6 136.94C49.7731 136.81 49.8994 136.628 49.96 136.42C51.8158 128.552 56.1145 121.474 62.24 116.2C70.8982 109.224 81.4374 104.982 92.5146 104.017C103.592 103.052 114.706 105.406 124.44 110.78C126.317 111.743 128.042 112.976 129.56 114.44C130.98 115.82 132.58 118.44 130.34 120Z" fill="#5E503B"/>
<path d="M86.14 180.84C91.7402 180.84 96.28 176.3 96.28 170.7C96.28 165.1 91.7402 160.56 86.14 160.56C80.5398 160.56 76 165.1 76 170.7C76 176.3 80.5398 180.84 86.14 180.84Z" fill="#FFCECC"/>
<path d="M142.3 160.76C147.9 160.76 152.44 156.22 152.44 150.62C152.44 145.02 147.9 140.48 142.3 140.48C136.7 140.48 132.16 145.02 132.16 150.62C132.16 156.22 136.7 160.76 142.3 160.76Z" fill="#FFCECC"/>
<path d="M91.08 155.4C90.0436 155.4 89.0305 155.707 88.1688 156.283C87.3071 156.859 86.6354 157.677 86.2388 158.635C85.8422 159.592 85.7385 160.646 85.9407 161.662C86.1428 162.679 86.6419 163.612 87.3747 164.345C88.1076 165.078 89.0412 165.577 90.0577 165.779C91.0742 165.981 92.1277 165.878 93.0852 165.481C94.0427 165.085 94.8611 164.413 95.4369 163.551C96.0126 162.689 96.32 161.676 96.32 160.64C96.3147 159.252 95.7609 157.922 94.7794 156.941C93.7978 155.959 92.4681 155.405 91.08 155.4Z" fill="#5E503B"/>
<path d="M132 141.02C130.964 141.02 129.951 141.327 129.089 141.903C128.227 142.479 127.555 143.297 127.159 144.255C126.762 145.212 126.659 146.266 126.861 147.282C127.063 148.299 127.562 149.232 128.295 149.965C129.028 150.698 129.961 151.197 130.978 151.399C131.994 151.601 133.048 151.498 134.005 151.101C134.963 150.705 135.781 150.033 136.357 149.171C136.933 148.309 137.24 147.296 137.24 146.26C137.235 144.872 136.681 143.542 135.699 142.561C134.718 141.579 133.388 141.025 132 141.02Z" fill="#5E503B"/>
<path d="M127.74 157.64C125.464 160.256 122.481 162.16 119.15 163.121C115.818 164.083 112.28 164.061 108.96 163.06C108.14 167.189 108.157 171.44 109.009 175.562C109.861 179.685 111.531 183.594 113.92 187.06C120.24 196.14 127.8 191.84 130.18 183.34C132.327 174.746 131.466 165.676 127.74 157.64Z" fill="white"/>
<path d="M130 160.5C129.677 159.35 129.177 158.257 128.52 157.26C128.466 157.093 128.366 156.944 128.233 156.83C128.1 156.715 127.938 156.639 127.765 156.61C127.592 156.581 127.414 156.601 127.251 156.666C127.088 156.731 126.946 156.84 126.84 156.98C124.637 159.454 121.768 161.243 118.577 162.133C115.386 163.023 112.006 162.977 108.84 162C108.585 161.933 108.315 161.968 108.086 162.099C107.858 162.23 107.69 162.446 107.62 162.7C106.627 167.821 106.853 173.103 108.28 178.12C109.488 183.147 112.236 187.671 116.14 191.06C122.78 196.66 132.24 190.52 132.24 173.82C132.392 169.275 131.63 164.746 130 160.5ZM128 185.24C127.213 187.446 125.639 189.284 123.58 190.4C122.572 190.871 121.449 191.043 120.347 190.894C119.244 190.745 118.207 190.282 117.36 189.56C110.5 183.38 108.1 172.7 109.36 164.18C112.531 164.962 115.849 164.92 118.999 164.059C122.15 163.198 125.028 161.546 127.36 159.26C127.716 159.946 127.991 160.671 128.18 161.42C131.07 169.101 131.048 177.574 128.12 185.24H128Z" fill="#5E503B"/>
<path d="M47.3999 180.72C46.0735 180.22 44.6268 180.131 43.2494 180.467C41.8719 180.802 40.6278 181.546 39.6799 182.6C38.7566 183.688 38.1193 184.99 37.826 186.387C37.5326 187.784 37.5924 189.232 37.9999 190.6C38.683 192.797 40.0512 194.718 41.9045 196.082C43.7578 197.446 45.9989 198.181 48.2999 198.18C49.1731 198.109 50.0157 197.826 50.7547 197.356C51.4936 196.885 52.1064 196.241 52.5399 195.48L47.3999 180.72Z" fill="#FFF4EE"/>
<path d="M47.66 179.76C46.4576 179.34 45.1739 179.204 43.9103 179.365C42.6467 179.526 41.4378 179.978 40.3788 180.686C39.3199 181.394 38.4399 182.338 37.8084 183.444C37.1769 184.55 36.8112 185.788 36.74 187.06C36.5446 189.785 37.3275 192.49 38.9478 194.69C40.5681 196.889 42.9196 198.439 45.58 199.06C47.0385 199.481 48.5953 199.41 50.0091 198.857C51.4228 198.303 52.6147 197.299 53.4 196C53.5019 195.774 53.5166 195.519 53.4411 195.283C53.3656 195.047 53.2053 194.848 52.9913 194.724C52.7773 194.599 52.5247 194.559 52.2825 194.61C52.0403 194.661 51.8256 194.8 51.68 195C49.32 199.28 41.3 197 39.08 190.72C37.08 185.34 41.76 179.6 47.08 181.74C48.28 182.22 48.8 180.28 47.62 179.74L47.66 179.76Z" fill="#5E503B"/>
<path d="M318.16 128.6C302.812 128.803 287.993 134.243 276.16 144.02C260.16 157.74 251.24 180.18 256.32 201C263.6 228.2 300.2 248 334 237.86C352.38 232.32 368.5 218.22 374.64 199.98C386.64 164.32 353.56 128 318.16 128.6Z" fill="#FFF4EE"/>
<path d="M374.62 166.36C370.396 155.793 363.339 146.595 354.224 139.781C345.109 132.967 334.291 128.801 322.96 127.74C309.601 126.908 296.294 130.032 284.7 136.72C262.96 149.3 249.16 176.22 255.32 201.26C260.22 221.08 283.32 240.02 311.78 241.44C353.8 243.7 389.78 204.92 374.62 166.36ZM320.4 239.36C297.44 241.12 272.62 230.54 260.98 210.04C254.7 199.02 254.58 185.32 258.14 173.38C265.86 147.86 288.84 131.38 314.68 129.68C350.68 127.2 380.42 160.12 375.62 191.56C371.46 217.8 346.78 237.36 320.4 239.36Z" fill="#5E503B"/>
<path d="M353.06 285.28C353.06 285.28 346.12 248.32 345.22 243.62C344.64 240.46 345.22 236.02 342.52 233.8C340.891 232.53 338.986 231.66 336.96 231.26C323.631 228.137 309.664 229.198 296.96 234.3C296.025 234.623 295.176 235.157 294.48 235.86C293.32 237.2 293.56 241 293.22 242.74C289.6 261.66 284.98 281.36 280.16 299.1C288.858 306.567 299.541 311.34 310.907 312.835C322.272 314.33 333.827 312.483 344.16 307.52C347.692 305.934 350.682 303.348 352.76 300.08C354.96 295.62 354 290.24 353.06 285.28Z" fill="white"/>
<path d="M347.18 248.74C346.68 246.06 346.12 243.4 345.86 240.74C345.842 238.666 345.378 236.619 344.5 234.74C343.243 232.855 341.334 231.502 339.14 230.94C325.812 227.043 311.579 227.576 298.58 232.46C296.7 233.18 294.14 233.86 293.12 235.78C292.456 237.563 292.144 239.458 292.2 241.36C291.829 244.186 291.308 246.99 290.64 249.76C289.4 255.28 285.7 273.96 278.84 298.78C278.801 298.949 278.805 299.125 278.85 299.292C278.896 299.46 278.981 299.613 279.1 299.74C300.5 318.48 330.8 318.14 348.72 305.74C351.793 303.65 353.943 300.455 354.72 296.82C355.38 291.86 355.48 292.36 347.18 248.74ZM352.78 295.88C352.268 299.075 350.532 301.944 347.94 303.88C330.72 316.26 300.84 316.18 281.16 298.82C288.74 271.08 291.78 254.5 293.02 248.7C293.618 246.278 294.059 243.819 294.34 241.34C294.5 239.66 294.22 237.14 295.74 236.06C296.772 235.442 297.873 234.945 299.02 234.58C310.313 230.297 322.596 229.332 334.42 231.8C336.973 232.098 339.423 232.981 341.58 234.38C342.311 235.118 342.884 235.997 343.266 236.962C343.647 237.928 343.829 238.962 343.8 240C344.04 242.32 344.36 244.58 344.8 246.86C353.34 292 353.34 290.38 352.78 295.88Z" fill="#5E503B"/>
<path d="M372.2 155.42C374.32 143.62 350.42 132.14 341.7 128.78C328.737 123.713 314.57 122.565 300.96 125.48C288.42 128.26 274.96 134.34 263.42 128.8C262.171 127.936 260.648 127.559 259.14 127.74C258.67 127.962 258.252 128.28 257.912 128.674C257.572 129.067 257.319 129.527 257.168 130.025C257.018 130.522 256.973 131.046 257.037 131.562C257.101 132.078 257.272 132.574 257.54 133.02C258.144 133.953 258.894 134.784 259.76 135.48C258.827 135.564 257.95 135.958 257.268 136.6C256.586 137.242 256.14 138.094 256 139.02C255.84 142.26 258.56 144.68 261.16 146.52C273.46 155.28 286.16 158.36 300.36 162.02C296.828 168.111 294.862 174.983 294.64 182.02C293.76 203.12 299.8 223.68 315.68 238.02C318.029 240.468 321.037 242.184 324.34 242.96C325.997 243.303 327.721 243.07 329.227 242.299C330.733 241.528 331.93 240.265 332.62 238.72C335.56 247.26 344.14 244.72 348.2 239.02C347.758 239.787 347.638 240.697 347.866 241.552C348.095 242.407 348.654 243.137 349.42 243.58C350.279 244 351.234 244.188 352.188 244.125C353.142 244.061 354.064 243.75 354.86 243.22C361 239.22 365.96 232.72 369.86 226.7C378.82 212.7 384.78 196.38 384.86 179.58C385.14 162.34 372.4 154.28 372.2 155.42Z" fill="#ABFFE1"/>
<path d="M381.5 162.62C379.199 159.557 376.448 156.86 373.34 154.62C373.66 148.02 367.7 142.62 362.82 139.1C356.77 134.729 350.191 131.14 343.24 128.42C332.798 124.123 321.504 122.295 310.24 123.08C294.24 124.64 289.56 129.08 275.62 130.04C272.511 130.255 269.39 129.882 266.42 128.94C263.96 128.16 260.98 125.74 258.42 126.94C257.77 127.364 257.227 127.931 256.832 128.598C256.436 129.265 256.199 130.014 256.139 130.787C256.079 131.56 256.198 132.337 256.486 133.057C256.774 133.777 257.223 134.421 257.8 134.94C253.46 136.94 254.6 142.06 258.24 145.28C268.98 154.76 286.24 159.28 298.82 162.44C295.453 168.793 293.63 175.851 293.5 183.04C292.4 204.66 299.6 225.04 315.82 239.38C318.536 242.111 322.157 243.754 326 244C327.247 243.997 328.476 243.713 329.598 243.169C330.72 242.626 331.705 241.836 332.48 240.86C333.113 242.237 334.156 243.386 335.466 244.148C336.776 244.911 338.29 245.25 339.8 245.12C342.448 244.812 344.932 243.678 346.9 241.88C347.88 245.16 352.38 246.02 355.3 244C360.029 240.852 364.105 236.818 367.3 232.12C379.58 214.38 393.58 180.3 381.5 162.62ZM376.96 211.06C372.883 220.603 367.298 229.429 360.42 237.2C358.516 239.299 356.296 241.087 353.84 242.5C353.217 242.882 352.506 243.093 351.776 243.115C351.046 243.136 350.323 242.965 349.68 242.62C349.167 242.301 348.798 241.795 348.652 241.208C348.507 240.622 348.596 240.002 348.9 239.48C349.58 238.38 347.34 238.1 347.06 238.64C345.346 240.967 342.805 242.549 339.96 243.06C338.487 243.192 337.016 242.79 335.816 241.927C334.615 241.064 333.765 239.798 333.42 238.36C333.42 238.095 333.315 237.84 333.127 237.653C332.94 237.465 332.685 237.36 332.42 237.36C332.155 237.36 331.9 237.465 331.713 237.653C331.525 237.84 331.42 238.095 331.42 238.36C330.809 239.655 329.781 240.707 328.501 241.349C327.221 241.991 325.763 242.185 324.36 241.9C321.081 241.164 318.108 239.44 315.84 236.96C311.084 232.577 307.036 227.483 303.84 221.86C297.759 210.577 294.823 197.867 295.34 185.06C295.54 177.2 296.7 169.06 301.08 162.36C301.156 162.228 301.2 162.08 301.21 161.928C301.22 161.776 301.195 161.624 301.137 161.483C301.079 161.342 300.99 161.217 300.876 161.116C300.762 161.015 300.627 160.941 300.48 160.9C292.636 158.99 284.893 156.687 277.28 154C271.524 151.762 266.074 148.805 261.06 145.2C259.507 144.178 258.213 142.808 257.28 141.2C257 140.751 256.84 140.236 256.817 139.707C256.794 139.178 256.907 138.652 257.146 138.18C257.386 137.707 257.743 137.304 258.183 137.01C258.623 136.716 259.132 136.54 259.66 136.5C260.4 137 261.18 137.42 261.9 137.82C262.62 138.22 263.66 137.54 263.36 136.68C263.129 135.956 262.653 135.335 262.015 134.923C261.377 134.511 260.615 134.333 259.86 134.42C257.54 132.6 257.56 130.3 258.74 129.06C259.88 128.12 261.54 129.06 262.74 129.62C277.88 136.58 292.74 126.84 308.98 125.26C326.62 123.6 344.12 129.14 358.8 138.74C362.24 140.929 365.375 143.565 368.12 146.58C370.157 148.694 371.316 151.504 371.36 154.44C371.36 156.44 372.34 156.74 372.86 156.44C373.791 157.063 374.656 157.78 375.44 158.58C376.82 159.92 378.12 161.36 379.44 162.82C388.1 173.6 382.64 198.18 376.96 211.06Z" fill="#5E503B"/>
<path d="M304.96 193.3C303.26 185.46 293.52 184.88 292.36 191.5V211.1C293.673 211.712 295.14 211.911 296.568 211.672C297.996 211.433 299.318 210.766 300.36 209.76C302.385 207.687 303.773 205.077 304.36 202.24C305.337 199.363 305.544 196.281 304.96 193.3Z" fill="#FFF4EE"/>
<path d="M305.02 190.92C304.413 189.491 303.415 188.262 302.142 187.375C300.869 186.487 299.371 185.976 297.82 185.9C296.23 185.849 294.678 186.395 293.471 187.432C292.264 188.469 291.489 189.92 291.3 191.5C291.16 192.78 293.18 192.78 293.3 191.5C293.62 188.4 297.52 187.18 300.02 188.42C301.441 189.289 302.586 190.543 303.323 192.037C304.059 193.531 304.356 195.204 304.18 196.86C304.08 200.486 303.017 204.02 301.1 207.1C299.38 209.74 295.24 211.76 292.14 210.2C292.474 209.66 292.923 209.2 293.456 208.855C293.988 208.509 294.591 208.285 295.22 208.2C296.5 208.08 296.5 206.2 295.22 206.2C291.64 206.54 289.58 209.82 288.66 213C287.421 216.806 287.738 220.947 289.54 224.52C290.357 226.117 291.773 227.325 293.479 227.879C295.184 228.434 297.04 228.291 298.64 227.48C304.64 223.64 305.6 215.08 301.58 209.48C303.545 207.272 304.866 204.567 305.4 201.66C306.537 198.146 306.403 194.345 305.02 190.92ZM299.4 224.36C298.491 225.483 297.176 226.202 295.74 226.36C295.014 226.357 294.298 226.192 293.644 225.877C292.991 225.562 292.415 225.105 291.96 224.54C291.05 223.236 290.419 221.759 290.105 220.2C289.792 218.641 289.804 217.034 290.14 215.48C290.343 214.219 290.705 212.989 291.22 211.82C292.644 212.47 294.213 212.74 295.773 212.603C297.333 212.467 298.83 211.928 300.12 211.04C301.469 213.035 302.129 215.416 301.999 217.821C301.869 220.226 300.956 222.522 299.4 224.36Z" fill="#5E503B"/>
<path d="M272.32 198.18C277.92 198.18 282.46 193.64 282.46 188.04C282.46 182.44 277.92 177.9 272.32 177.9C266.72 177.9 262.18 182.44 262.18 188.04C262.18 193.64 266.72 198.18 272.32 198.18Z" fill="#FFCECC"/>
<path d="M264.88 174.44C263.844 174.44 262.831 174.747 261.969 175.323C261.107 175.899 260.435 176.717 260.039 177.675C259.642 178.632 259.539 179.686 259.741 180.702C259.943 181.719 260.442 182.652 261.175 183.385C261.908 184.118 262.841 184.617 263.858 184.819C264.874 185.022 265.928 184.918 266.885 184.521C267.843 184.125 268.661 183.453 269.237 182.591C269.813 181.729 270.12 180.716 270.12 179.68C270.115 178.292 269.561 176.962 268.579 175.981C267.598 174.999 266.268 174.445 264.88 174.44Z" fill="#5E503B"/>
<path d="M262.38 204.36C264.602 203.732 266.638 202.574 268.314 200.986C269.99 199.397 271.255 197.425 272 195.24C272.053 195.103 272.076 194.957 272.068 194.811C272.06 194.664 272.022 194.521 271.955 194.391C271.888 194.26 271.794 194.146 271.68 194.054C271.566 193.962 271.433 193.896 271.291 193.859C271.15 193.822 271.001 193.816 270.857 193.84C270.712 193.864 270.575 193.919 270.453 194C270.331 194.081 270.227 194.188 270.149 194.312C270.071 194.436 270.02 194.575 270 194.72C269.37 196.571 268.297 198.24 266.875 199.582C265.453 200.924 263.724 201.898 261.84 202.42C261.575 202.495 261.35 202.671 261.215 202.911C261.08 203.151 261.046 203.435 261.12 203.7C261.155 203.83 261.215 203.953 261.297 204.06C261.38 204.167 261.482 204.256 261.6 204.323C261.717 204.39 261.846 204.433 261.98 204.45C262.114 204.466 262.25 204.456 262.38 204.42V204.36Z" fill="#5E503B"/>
<path d="M263.6 167.74C265.227 167.172 267.004 167.207 268.608 167.839C270.212 168.47 271.536 169.655 272.34 171.18C272.94 172.32 274.68 171.32 274.08 170.18C273.046 168.277 271.375 166.798 269.361 166.001C267.347 165.204 265.117 165.14 263.06 165.82C262.81 165.894 262.599 166.064 262.472 166.292C262.345 166.52 262.312 166.788 262.38 167.04C262.455 167.291 262.623 167.504 262.85 167.634C263.077 167.764 263.346 167.802 263.6 167.74Z" fill="#5E503B"/>
<path d="M195.62 283.06C217.568 283.06 235.36 267.005 235.36 247.2C235.36 227.395 217.568 211.34 195.62 211.34C173.672 211.34 155.88 227.395 155.88 247.2C155.88 267.005 173.672 283.06 195.62 283.06Z" fill="white"/>
<path d="M210.32 133.74C227.916 133.74 242.18 120.873 242.18 105C242.18 89.1273 227.916 76.26 210.32 76.26C192.724 76.26 178.46 89.1273 178.46 105C178.46 120.873 192.724 133.74 210.32 133.74Z" fill="white"/>
<path d="M210.32 75.26C192.2 75.26 177.46 88.6 177.46 105C177.46 121.4 192.2 134.74 210.32 134.74C228.44 134.74 243.18 121.4 243.18 105C243.18 88.6 228.44 75.26 210.32 75.26ZM210.32 132.74C193.3 132.74 179.46 120.3 179.46 105C179.46 89.7 193.3 77.26 210.32 77.26C227.34 77.26 241.18 89.7 241.18 105C241.18 120.3 227.34 132.74 210.32 132.74Z" fill="#5E503B"/>
<path d="M215.7 128.68C227.85 128.68 237.7 119.788 237.7 108.82C237.7 97.8516 227.85 88.96 215.7 88.96C203.55 88.96 193.7 97.8516 193.7 108.82C193.7 119.788 203.55 128.68 215.7 128.68Z" fill="#DFEDED"/>
<path d="M215.7 88C203.02 88 192.7 97.36 192.7 108.86C192.7 120.36 203.02 129.72 215.7 129.72C228.38 129.72 238.7 120.36 238.7 108.86C238.7 97.36 228.38 88 215.7 88ZM215.7 127.72C204.12 127.72 194.7 119.26 194.7 108.86C194.7 98.46 204.12 90 215.7 90C227.28 90 236.7 98.46 236.7 108.86C236.7 119.26 227.28 127.68 215.7 127.68V127.72Z" fill="#5E503B"/>
<path d="M202 151.74C200 151.54 197.48 151.16 196 152.08C196.644 151.859 197.319 151.744 198 151.74C202.58 151.74 206.3 157.02 206.3 163.52C206.3 170.02 202.7 175.12 198.3 175.28C199.509 175.208 200.712 175.054 201.9 174.82C213.18 172.78 212.98 152.88 202 151.74Z" fill="#DFEDED"/>
<path d="M197.86 175.3C202.444 175.3 206.16 170.026 206.16 163.52C206.16 157.014 202.444 151.74 197.86 151.74C193.276 151.74 189.56 157.014 189.56 163.52C189.56 170.026 193.276 175.3 197.86 175.3Z" fill="white"/>
<path d="M196.48 150.76C191.2 152.28 188.48 158.02 188.48 163.52C188.48 170.56 192.66 176.3 197.78 176.3C205.78 176.3 211.16 171.82 211.16 162.82C211.24 153.18 203.3 148.76 196.48 150.76ZM190.48 163.52C190.48 158.6 193.14 152.74 197.78 152.74C201.78 152.74 205.08 157.58 205.08 163.52C205.08 169.04 201.84 175.1 196.92 174.22C193.38 173.58 190.56 169.04 190.56 163.52H190.48ZM204 173.06C208.48 167.56 208 157.74 203.08 153.06C206.3 154.02 209.18 157.24 209.18 162.88C209.24 167.66 207.28 171.42 204 173.06Z" fill="#5E503B"/>
<path d="M197.76 168.82C199.87 168.82 201.58 166.393 201.58 163.4C201.58 160.407 199.87 157.98 197.76 157.98C195.65 157.98 193.94 160.407 193.94 163.4C193.94 166.393 195.65 168.82 197.76 168.82Z" fill="#DFEDED"/>
<path d="M197.76 156.98C195.06 156.98 192.94 159.8 192.94 163.4C192.94 167 195.06 169.82 197.76 169.82C200.46 169.82 202.58 167 202.58 163.4C202.58 159.8 200.46 156.98 197.76 156.98ZM197.76 167.82C196.24 167.82 194.94 165.82 194.94 163.4C194.94 160.98 196.24 158.98 197.76 158.98C199.28 158.98 200.58 160.98 200.58 163.4C200.58 165.82 199.3 167.82 197.76 167.82Z" fill="#5E503B"/>
<path d="M181.58 112.72C184.452 112.72 186.78 109.676 186.78 105.92C186.78 102.164 184.452 99.12 181.58 99.12C178.708 99.12 176.38 102.164 176.38 105.92C176.38 109.676 178.708 112.72 181.58 112.72Z" fill="#DFEDED"/>
<path d="M181.58 98.12C178.16 98.12 175.38 101.62 175.38 105.92C175.38 110.22 178.16 113.72 181.58 113.72C185 113.72 187.78 110.22 187.78 105.92C187.78 101.62 185 98.12 181.58 98.12ZM181.58 111.72C179.26 111.72 177.38 109.12 177.38 105.92C177.38 102.72 179.26 100.12 181.58 100.12C183.9 100.12 185.78 102.72 185.78 105.92C185.78 109.12 184 111.72 181.58 111.72Z" fill="#5E503B"/>
<path d="M206.68 103.02C206.1 103.02 205.533 103.192 205.051 103.513C204.568 103.834 204.191 104.291 203.968 104.826C203.744 105.361 203.684 105.95 203.794 106.519C203.904 107.088 204.18 107.612 204.587 108.025C204.995 108.438 205.515 108.721 206.082 108.839C206.65 108.956 207.24 108.904 207.778 108.688C208.315 108.471 208.777 108.101 209.105 107.622C209.433 107.144 209.612 106.58 209.62 106C209.625 105.611 209.553 105.224 209.408 104.863C209.262 104.501 209.047 104.172 208.773 103.895C208.5 103.618 208.174 103.398 207.814 103.248C207.455 103.097 207.069 103.02 206.68 103.02Z" fill="#5E503B"/>
<path d="M227.74 102.5C227.158 102.5 226.59 102.672 226.107 102.995C225.623 103.319 225.246 103.778 225.024 104.315C224.801 104.852 224.743 105.443 224.856 106.014C224.97 106.584 225.25 107.108 225.661 107.519C226.072 107.93 226.596 108.21 227.166 108.324C227.737 108.437 228.328 108.379 228.865 108.156C229.402 107.934 229.861 107.557 230.184 107.073C230.508 106.59 230.68 106.021 230.68 105.44C230.68 104.66 230.37 103.912 229.819 103.361C229.267 102.81 228.52 102.5 227.74 102.5Z" fill="#5E503B"/>
<path d="M183.7 133.56C186.52 140.54 195.22 142.96 201.94 144.36C213.94 146.86 227.4 143.92 234.8 133.64C235.56 132.6 233.82 131.64 233.06 132.64C224 144.84 206.7 145.18 193.82 140C192.064 139.451 190.435 138.558 189.027 137.373C187.619 136.189 186.461 134.736 185.62 133.1C185.14 131.92 183.22 132.44 183.62 133.64L183.7 133.56Z" fill="#B7B7B7"/>
<path d="M220.42 139.3C218.3 139.3 216.98 142.28 217.66 144.76C218.34 147.24 221.38 146.02 221.96 143.64C222.54 141.26 222.1 139.26 220.42 139.3Z" fill="#DFEDED"/>
<path d="M217.58 139.84C215.74 142.32 216.14 147.12 219.24 147.12C220.116 147.036 220.944 146.678 221.605 146.096C222.266 145.514 222.726 144.739 222.92 143.88C224.34 138 219.74 136.94 217.58 139.84ZM220.98 143.4C220.898 143.829 220.688 144.223 220.377 144.53C220.066 144.837 219.67 145.043 219.24 145.12C219.12 145.12 218.8 145.12 218.62 144.5C218.459 143.916 218.427 143.304 218.527 142.706C218.628 142.108 218.857 141.54 219.2 141.04C219.333 140.827 219.515 140.649 219.731 140.52C219.946 140.391 220.189 140.316 220.44 140.3C221.42 140.18 221.22 142.38 220.98 143.4Z" fill="#B7B7B7"/>
<path d="M218.92 115.18C219.713 115.06 220.468 114.76 221.127 114.302C221.786 113.844 222.331 113.242 222.72 112.54C223.3 111.54 221.88 110.24 220.92 111.66C220.626 112.065 220.249 112.404 219.815 112.654C219.381 112.904 218.899 113.06 218.401 113.111C217.902 113.162 217.399 113.107 216.923 112.95C216.447 112.793 216.01 112.538 215.64 112.2C214.86 111.38 213.26 112.2 214.46 113.7C215.027 114.29 215.73 114.734 216.507 114.992C217.284 115.249 218.112 115.314 218.92 115.18Z" fill="#5E503B"/>
<path d="M222.94 280.2L222.4 279.88L222.9 278.9C223.035 278.669 223.073 278.394 223.006 278.135C222.938 277.877 222.771 277.655 222.54 277.52C222.309 277.385 222.034 277.347 221.775 277.414C221.517 277.482 221.295 277.649 221.16 277.88L220.66 278.88L220.34 278.7C220.112 278.569 219.841 278.533 219.586 278.6C219.331 278.668 219.113 278.833 218.98 279.06C218.848 279.283 218.81 279.549 218.873 279.8C218.937 280.051 219.098 280.267 219.32 280.4L219.76 280.66L218.96 282.22C218.875 282.329 218.815 282.454 218.782 282.588C218.749 282.722 218.745 282.861 218.77 282.996C218.794 283.132 218.847 283.261 218.925 283.374C219.003 283.488 219.104 283.584 219.221 283.656C219.338 283.728 219.469 283.775 219.606 283.793C219.743 283.811 219.881 283.8 220.013 283.76C220.145 283.721 220.268 283.654 220.372 283.565C220.477 283.475 220.561 283.364 220.62 283.24L221.46 281.64L221.9 281.9C222.012 281.968 222.137 282.012 222.267 282.031C222.397 282.049 222.529 282.041 222.656 282.008C222.783 281.974 222.902 281.915 223.005 281.835C223.109 281.755 223.196 281.654 223.26 281.54C223.394 281.319 223.435 281.055 223.375 280.804C223.315 280.553 223.159 280.336 222.94 280.2Z" fill="#5E503B"/>
<path d="M31.2199 178.26C28.9199 175.66 25.9799 173 22.5399 173.26C21.2348 173.448 19.999 173.965 18.9492 174.763C17.8994 175.561 17.0703 176.613 16.5399 177.82C15.5474 180.273 15.13 182.921 15.3199 185.56C15.8941 191.957 17.7905 198.164 20.889 203.79C23.9875 209.415 28.2205 214.336 33.3199 218.24C43.4199 226.24 55.7999 230.64 68.3799 233.04L72.5399 220C53.0799 213.62 43.4399 192.22 31.2199 178.26Z" fill="#DFEDED"/>
<path d="M19.7199 202C27.2599 204.56 37.5199 200.54 41.2799 191.38C38.0599 186.9 34.8799 182.42 31.2799 178.3C28.9999 175.68 26.0399 173.04 22.5799 173.3C21.2729 173.482 20.0346 173.997 18.9839 174.796C17.9333 175.594 17.1055 176.649 16.5799 177.86C15.5714 180.309 15.1469 182.959 15.3399 185.6C15.6595 191.309 17.1504 196.892 19.7199 202Z" fill="#FFF4EE"/>
<path d="M72.86 218.94V219.06C53.76 212.64 44.48 191.68 31.42 176.9C29.8204 175.047 27.8245 173.577 25.58 172.6C20.7 170.88 16.3 174.6 14.94 179.1C12 188.5 17.42 207.6 33.34 219.56C43.34 227.28 55.62 231.56 67.96 233.94C69.22 234.18 69.78 232.22 68.5 231.94C50.36 227.94 31.26 219.94 21.7 203.44C25.6447 203.994 29.6643 203.313 33.2063 201.491C36.7482 199.668 39.6386 196.792 41.48 193.26C49.66 204.7 58.56 216.32 72.34 220.94C73.56 221.34 74 219.42 72.86 218.94ZM20.46 201.1C17.7414 195.755 16.2905 189.856 16.22 183.86C16.1239 181.139 16.9561 178.466 18.58 176.28C19.3535 175.334 20.4062 174.656 21.5879 174.343C22.7696 174.031 24.0197 174.1 25.16 174.54C27.373 175.622 29.2987 177.212 30.78 179.18C33.72 182.46 37.44 187.6 40.16 191.4C38.5437 195.077 35.6817 198.066 32.078 199.841C28.4743 201.615 24.3601 202.061 20.46 201.1Z" fill="#5E503B"/>
<path d="M298 246.78C294.903 251.102 290.573 254.388 285.577 256.208C280.581 258.028 275.151 258.297 270 256.98C266.94 256.16 263.46 254.8 260.8 256.54C259.732 257.407 258.987 258.609 258.686 259.952C258.384 261.295 258.544 262.7 259.14 263.94C260.451 266.363 262.447 268.346 264.88 269.64C270.441 272.763 276.735 274.347 283.112 274.228C289.49 274.108 295.72 272.29 301.16 268.96L298 246.78Z" fill="white"/>
<path d="M272.8 257.58C268 256.98 263.86 254.36 260.52 256.54C259.433 257.394 258.675 258.596 258.373 259.944C258.07 261.293 258.242 262.704 258.86 263.94C260.12 266.394 262.121 268.389 264.58 269.64C266.715 270.893 268.982 271.906 271.34 272.66C269.83 267.636 270.355 262.221 272.8 257.58Z" fill="#FFF4EE"/>
<path d="M300.68 268C296.472 270.651 291.737 272.352 286.804 272.984C281.871 273.616 276.86 273.164 272.12 271.66C270.957 267.258 271.426 262.584 273.44 258.5C278.286 259.049 283.19 258.292 287.645 256.309C292.101 254.326 295.945 251.188 298.78 247.22C299.54 246.16 297.8 245.22 297.06 246.2C294.262 250.082 290.428 253.097 285.996 254.901C281.564 256.705 276.713 257.224 272 256.4C268.86 255.8 265.72 254.22 262.46 254.82C261.078 255.105 259.837 255.857 258.944 256.95C258.052 258.042 257.563 259.409 257.56 260.82C257.59 262.359 257.98 263.87 258.699 265.232C259.418 266.593 260.446 267.767 261.7 268.66C267.495 272.814 274.399 275.142 281.526 275.345C288.653 275.548 295.678 273.617 301.7 269.8C302.78 269.1 301.7 267.38 300.68 268ZM259.56 260.94C259.55 260.246 259.702 259.559 260.004 258.934C260.306 258.309 260.75 257.763 261.3 257.34C262.039 256.944 262.85 256.701 263.685 256.625C264.52 256.55 265.362 256.643 266.16 256.9C267.88 257.407 269.62 257.827 271.38 258.16C269.564 262.132 269.039 266.574 269.88 270.86C265.32 269.12 259.42 265.88 259.56 261V260.94Z" fill="#5E503B"/>
<path d="M192 133.2C190.412 131.173 188.352 129.567 186 128.52C181.92 134.227 178.127 140.053 174.62 146C173.457 147.643 172.765 149.572 172.62 151.58C172.596 151.886 172.643 152.193 172.757 152.477C172.871 152.762 173.049 153.017 173.277 153.222C173.506 153.427 173.778 153.576 174.073 153.659C174.368 153.742 174.678 153.756 174.98 153.7C177.107 153.042 179.038 151.867 180.6 150.28C184.611 146.766 188.38 142.984 191.88 138.96C192.395 138.465 192.798 137.865 193.06 137.2C193.2 136.497 193.178 135.77 192.994 135.077C192.81 134.384 192.47 133.742 192 133.2Z" fill="#DFEDED"/>
<path d="M186.62 127.58C185.34 127 184.34 128.8 176.32 141.22C174.894 143.398 173.605 145.662 172.46 148C171.978 148.859 171.707 149.82 171.668 150.803C171.63 151.787 171.826 152.767 172.24 153.66C174.36 156.94 180.24 152.34 182.96 149.66C184.96 147.92 186.72 146.12 188.52 144.26C190.415 142.55 192.118 140.638 193.6 138.56C196.36 134 190.12 129.16 186.62 127.58ZM191.7 137.68C187.752 142.361 183.431 146.716 178.78 150.7C177.697 151.614 176.438 152.295 175.08 152.7C174.2 152.88 173.9 152.7 173.8 151.82C173.879 149.83 174.579 147.914 175.8 146.34C178.96 140.96 182.3 135.74 186.62 129.78C189.46 131.32 193.64 135.06 191.7 137.68Z" fill="#5E503B"/>
<path d="M202.34 276.7C217.506 276.7 229.8 265.615 229.8 251.94C229.8 238.265 217.506 227.18 202.34 227.18C187.174 227.18 174.88 238.265 174.88 251.94C174.88 265.615 187.174 276.7 202.34 276.7Z" fill="#FFE7AB"/>
<path d="M191.08 251.58C192.836 251.58 194.26 250.156 194.26 248.4C194.26 246.644 192.836 245.22 191.08 245.22C189.324 245.22 187.9 246.644 187.9 248.4C187.9 250.156 189.324 251.58 191.08 251.58Z" fill="#5E503B"/>
<path d="M217.34 244.56C216.711 244.56 216.096 244.747 215.573 245.096C215.05 245.445 214.643 245.942 214.402 246.523C214.161 247.104 214.098 247.744 214.221 248.36C214.344 248.977 214.647 249.544 215.091 249.989C215.536 250.433 216.103 250.736 216.72 250.859C217.336 250.982 217.976 250.919 218.557 250.678C219.138 250.437 219.635 250.03 219.984 249.507C220.333 248.984 220.52 248.369 220.52 247.74C220.52 246.897 220.185 246.088 219.589 245.491C218.992 244.895 218.183 244.56 217.34 244.56Z" fill="#5E503B"/>
<path d="M195.62 210.34C173.16 210.34 154.88 226.88 154.88 247.2C154.88 267.52 173.16 284 195.62 284C218.08 284 236.36 267.46 236.36 247.14C236.36 226.82 218.1 210.34 195.62 210.34ZM156.88 247.2C156.88 228.18 173.92 212.66 194.88 212.34C197.764 213.543 200.295 215.459 202.237 217.908C204.178 220.356 205.466 223.258 205.98 226.34C188.92 224.34 173.78 236.34 173.78 251.88C173.78 267.42 188.66 279.18 205.46 277.48C204.401 279.207 202.922 280.639 201.16 281.64C177.8 284.78 156.88 268.36 156.88 247.2ZM202.34 275.7C187.76 275.7 175.88 265.04 175.88 251.94C175.88 238.84 187.76 228.18 202.34 228.18C216.92 228.18 228.8 238.84 228.8 252C228.8 265.16 216.94 275.7 202.34 275.7ZM205.48 280.92C206.541 279.821 207.419 278.558 208.08 277.18C221.04 274.76 230.8 264.36 230.8 251.94C230.8 239.52 221.06 229.14 208.14 226.72C207.757 223.873 206.784 221.138 205.282 218.689C203.78 216.24 201.784 214.132 199.42 212.5C219 214.22 234.36 229.14 234.36 247.2C234.36 263.36 222 276.98 205.48 280.92Z" fill="#5E503B"/>
<path d="M200 257.44C203.73 256.921 207.502 256.78 211.26 257.02C211.525 257.02 211.78 256.915 211.967 256.727C212.155 256.54 212.26 256.285 212.26 256.02C212.26 255.755 212.155 255.5 211.967 255.313C211.78 255.125 211.525 255.02 211.26 255.02C207.32 254.8 203.369 254.961 199.46 255.5C199.205 255.575 198.989 255.746 198.858 255.978C198.727 256.209 198.692 256.483 198.76 256.74C198.843 256.99 199.016 257.2 199.245 257.329C199.474 257.459 199.743 257.498 200 257.44Z" fill="#5E503B"/>
<path d="M165.18 277.32C159.4 283.78 153.9 290.52 148.76 297.5C147.101 299.383 145.994 301.688 145.56 304.16C145.465 304.69 145.528 305.236 145.741 305.731C145.955 306.225 146.309 306.646 146.76 306.94C147.223 307.126 147.73 307.174 148.22 307.08C150.944 306.542 153.493 305.34 155.64 303.58C161.073 299.748 166.251 295.565 171.14 291.06C171.835 290.519 172.407 289.838 172.82 289.06C174.36 284.24 169.22 280.28 165.18 277.32Z" fill="#FFE7AB"/>
<path d="M165.82 276.28C165.24 275.94 164.64 276.46 164.18 276.96C157.776 284.114 151.767 291.612 146.18 299.42C144.98 301.42 143.74 304.34 144.96 306.6C146.18 308.86 149.34 308.06 151.32 307.24C153.953 305.952 156.435 304.376 158.72 302.54C161.8 300.14 165.3 297.48 169.72 293.52C170.92 292.576 172.025 291.518 173.02 290.36C176.66 286.12 170.6 279.04 165.82 276.28ZM171.42 289.24C169.683 291.118 167.782 292.838 165.74 294.38C162.3 297.32 147.88 309.46 146.62 305.12C146 302.88 147.92 300.26 149.12 298.58C152.24 294.2 158.76 285.92 165.48 278.42C167.218 279.516 168.748 280.911 170 282.54C171.36 284.34 173.14 287.14 171.42 289.24Z" fill="#5E503B"/>
<path d="M168.14 325.38C170.78 325.38 172.92 322.353 172.92 318.62C172.92 314.887 170.78 311.86 168.14 311.86C165.5 311.86 163.36 314.887 163.36 318.62C163.36 322.353 165.5 325.38 168.14 325.38Z" fill="#EFAC54"/>
<path d="M168.14 310.86C164.96 310.86 162.36 314.34 162.36 318.62C162.36 322.9 164.96 326.38 168.14 326.38C171.32 326.38 174 322.9 174 318.62C174 314.34 171.34 310.86 168.14 310.86ZM168.14 324.38C166.14 324.38 164.36 321.74 164.36 318.62C164.36 315.5 166.1 312.86 168.14 312.86C170.18 312.86 172 315.5 172 318.62C172 321.74 170.2 324.38 168.14 324.38Z" fill="#5E503B"/>
<path d="M159.76 256.84C163.339 256.84 166.24 253.034 166.24 248.34C166.24 243.646 163.339 239.84 159.76 239.84C156.181 239.84 153.28 243.646 153.28 248.34C153.28 253.034 156.181 256.84 159.76 256.84Z" fill="#EFAC54"/>
<path d="M159.76 238.84C155.64 238.84 152.28 243.1 152.28 248.34C152.28 253.58 155.64 257.84 159.76 257.84C163.88 257.84 167.24 253.58 167.24 248.34C167.24 243.1 164 238.84 159.76 238.84ZM159.76 255.84C156.74 255.84 154.28 252.48 154.28 248.34C154.28 244.2 156.74 240.84 159.76 240.84C162.78 240.84 165.24 244.2 165.24 248.34C165.24 252.48 162.78 255.84 159.76 255.84Z" fill="#5E503B"/>
<path d="M184.74 300.18L185.84 299.14C185.933 299.049 186.007 298.94 186.058 298.82C186.108 298.699 186.134 298.57 186.134 298.44C186.134 298.31 186.108 298.181 186.058 298.06C186.007 297.94 185.933 297.831 185.84 297.74C185.747 297.646 185.636 297.572 185.515 297.521C185.393 297.47 185.262 297.444 185.13 297.444C184.998 297.444 184.867 297.47 184.745 297.521C184.624 297.572 184.513 297.646 184.42 297.74C184.42 297.74 183.94 298.18 183.34 298.78C182.984 298.433 182.603 298.112 182.2 297.82C182.096 297.74 181.977 297.682 181.851 297.65C181.724 297.618 181.592 297.611 181.463 297.632C181.333 297.653 181.21 297.7 181.099 297.77C180.989 297.84 180.894 297.932 180.82 298.04C180.74 298.145 180.681 298.266 180.649 298.394C180.616 298.523 180.61 298.656 180.631 298.787C180.651 298.918 180.698 299.043 180.768 299.155C180.839 299.268 180.931 299.364 181.04 299.44C181.34 299.66 181.62 299.92 181.92 300.18L180.96 301.18C180.776 301.37 180.672 301.625 180.672 301.89C180.672 302.155 180.776 302.41 180.96 302.6C181.053 302.694 181.164 302.768 181.285 302.819C181.407 302.87 181.538 302.896 181.67 302.896C181.802 302.896 181.933 302.87 182.055 302.819C182.176 302.768 182.287 302.694 182.38 302.6C182.64 302.3 182.92 302.02 183.2 301.74C183.66 302.32 183.96 302.78 183.96 302.78C184.113 302.997 184.346 303.146 184.607 303.195C184.869 303.243 185.139 303.188 185.36 303.04C185.469 302.968 185.563 302.874 185.635 302.765C185.707 302.656 185.757 302.534 185.781 302.405C185.805 302.276 185.804 302.144 185.776 302.016C185.748 301.888 185.695 301.767 185.62 301.66C185.359 301.148 185.065 300.654 184.74 300.18Z" fill="#5E503B"/>
</svg>
