<svg width="400" height="400" viewBox="0 0 400 400" fill="none" xmlns="http://www.w3.org/2000/svg">
<path d="M40 219.276C40 261.711 56.8571 302.407 86.8629 332.413C116.869 362.419 157.565 379.276 200 379.276C242.435 379.276 283.131 362.419 313.137 332.413C343.143 302.407 360 261.711 360 219.276C360 176.841 343.143 136.145 313.137 106.139C283.131 76.1331 242.435 59.276 200 59.276C157.565 59.276 116.869 76.1331 86.8629 106.139C56.8571 136.145 40 176.841 40 219.276Z" fill="#E8F4FA" stroke="#DAEDF7" stroke-width="4"/>
<path d="M227.108 20.724V41.524C227.108 42.3727 226.771 43.1866 226.171 43.7867C225.571 44.3869 224.757 44.724 223.908 44.724H170.072C169.223 44.724 168.409 44.3869 167.809 43.7867C167.209 43.1866 166.872 42.3727 166.872 41.524V20.724" fill="#009FD9"/>
<path d="M227.108 20.724V41.524C227.108 42.3727 226.771 43.1866 226.171 43.7867C225.571 44.3869 224.757 44.724 223.908 44.724H170.072C169.223 44.724 168.409 44.3869 167.809 43.7867C167.209 43.1866 166.872 42.3727 166.872 41.524V20.724" stroke="#45413C" stroke-width="4" stroke-linecap="round" stroke-linejoin="round"/>
<path d="M304.4 186.8H94.312C92.1903 186.8 90.1554 187.643 88.6552 189.143C87.1549 190.643 86.312 192.678 86.312 194.8V330.328H312.4V194.8C312.4 192.678 311.557 190.643 310.057 189.143C308.557 187.643 306.522 186.8 304.4 186.8Z" fill="white" stroke="#45413C" stroke-width="4" stroke-linecap="round" stroke-linejoin="round"/>
<path d="M296.452 202.748H102.496L102.272 330.328H296.452V202.748Z" fill="#80DDFF"/>
<path d="M248.352 202.748L111.36 330.328H102.272L102.496 202.748H248.352Z" fill="#B8ECFF"/>
<path d="M296.452 202.748H102.496L102.272 330.328H296.452V202.748Z" stroke="#45413C" stroke-width="4" stroke-linecap="round" stroke-linejoin="round"/>
<path opacity="0.15" d="M77.0039 362.248C77.0039 363.296 80.3064 364.334 86.723 365.302C93.1395 366.27 102.544 367.15 114.401 367.891C126.257 368.632 140.332 369.22 155.823 369.621C171.314 370.022 187.917 370.228 204.684 370.228C221.451 370.228 238.054 370.022 253.545 369.621C269.036 369.22 283.111 368.632 294.967 367.891C306.824 367.15 316.228 366.27 322.645 365.302C329.061 364.334 332.364 363.296 332.364 362.248C332.364 361.2 329.061 360.162 322.645 359.194C316.228 358.226 306.824 357.346 294.967 356.605C283.111 355.864 269.036 355.276 253.545 354.875C238.054 354.474 221.451 354.268 204.684 354.268C187.917 354.268 171.314 354.474 155.823 354.875C140.332 355.276 126.257 355.864 114.401 356.605C102.544 357.346 93.1395 358.226 86.723 359.194C80.3064 360.162 77.0039 361.2 77.0039 362.248Z" fill="#45413C"/>
<path d="M332.364 346.288H66.364V334.328C66.364 333.267 66.7854 332.25 67.5356 331.5C68.2857 330.749 69.3031 330.328 70.364 330.328H328.364C329.425 330.328 330.442 330.749 331.192 331.5C331.943 332.25 332.364 333.267 332.364 334.328V346.288Z" fill="#F0F0F0" stroke="#45413C" stroke-width="4" stroke-linecap="round" stroke-linejoin="round"/>
<path d="M332.364 346.292C307.659 353.347 282.092 356.927 256.4 356.928H142.332C116.638 356.928 91.0699 353.348 66.364 346.292H332.364Z" fill="#BDBEC0" stroke="#45413C" stroke-width="4" stroke-linecap="round" stroke-linejoin="round"/>
<path d="M244.076 132.484C244.071 127.846 242.226 123.399 238.945 120.12C235.665 116.84 231.218 114.996 226.58 114.992H169.488C164.851 114.998 160.406 116.843 157.128 120.123C153.849 123.402 152.005 127.847 152 132.484V176.704H167.2V132.484C167.216 131.356 167.671 130.279 168.469 129.482C169.267 128.685 170.344 128.23 171.472 128.216H224.58C225.707 128.231 226.785 128.685 227.582 129.482C228.379 130.279 228.833 131.357 228.848 132.484V176.704H244.076V132.484Z" fill="#BF8256" stroke="#45413C" stroke-width="4" stroke-linecap="round" stroke-linejoin="round"/>
<path d="M268.548 318.172H130.18C129.509 318.172 128.844 318.035 128.227 317.77C127.61 317.506 127.053 317.119 126.59 316.633C126.127 316.146 125.768 315.571 125.534 314.942C125.299 314.313 125.195 313.643 125.228 312.972L132.628 165.18C132.692 164.172 133.134 163.226 133.866 162.531C134.598 161.836 135.566 161.443 136.576 161.432H264C265.021 161.443 266 161.845 266.735 162.554C267.47 163.264 267.905 164.228 267.952 165.248L273.5 313.036C273.524 313.701 273.413 314.365 273.175 314.986C272.937 315.608 272.576 316.175 272.114 316.655C271.652 317.134 271.098 317.515 270.485 317.776C269.873 318.037 269.214 318.171 268.548 318.172Z" fill="#F0D5A8"/>
<path d="M268.556 181.26L267.956 165.26C267.914 164.235 267.48 163.266 266.744 162.552C266.008 161.838 265.026 161.434 264 161.424H136.576C135.567 161.435 134.598 161.828 133.866 162.523C133.134 163.218 132.692 164.164 132.628 165.172L131.828 181.26H268.556Z" fill="#F7E5C6"/>
<path d="M268.548 318.172H130.18C129.509 318.172 128.844 318.035 128.227 317.77C127.61 317.506 127.053 317.119 126.59 316.633C126.127 316.146 125.768 315.571 125.534 314.942C125.299 314.313 125.195 313.643 125.228 312.972L132.628 165.18C132.692 164.172 133.134 163.226 133.866 162.531C134.598 161.836 135.566 161.443 136.576 161.432H264C265.021 161.443 266 161.845 266.735 162.554C267.47 163.264 267.905 164.228 267.952 165.248L273.5 313.036C273.524 313.701 273.413 314.365 273.175 314.986C272.937 315.608 272.576 316.175 272.114 316.655C271.652 317.134 271.098 317.515 270.485 317.776C269.873 318.037 269.214 318.171 268.548 318.172Z" stroke="#45413C" stroke-width="4" stroke-linecap="round" stroke-linejoin="round"/>
<path d="M170.768 44.7321V53.2001C170.768 54.0488 171.105 54.8627 171.705 55.4628C172.305 56.0629 173.119 56.4001 173.968 56.4001H220.032C220.881 56.4001 221.695 56.0629 222.295 55.4628C222.895 54.8627 223.232 54.0488 223.232 53.2001V44.7321H170.768Z" fill="white" stroke="#45413C" stroke-width="4" stroke-linecap="round" stroke-linejoin="round"/>
<path d="M229.024 131.516V125.832H235.28C237.908 125.829 240.51 126.358 242.928 127.388C242.997 126.831 243.032 126.27 243.032 125.708V107.732C243.032 72.364 219.316 78.804 219.316 56.412H174.628V67.1C174.628 78.544 166.856 82.052 166.856 102.072V134.128C166.856 136.189 167.675 138.166 169.132 139.624C170.59 141.081 172.567 141.9 174.628 141.9C176.689 141.9 178.666 141.081 180.124 139.624C181.581 138.166 182.4 136.189 182.4 134.128V138C182.4 140.061 183.219 142.038 184.676 143.496C186.134 144.953 188.111 145.772 190.172 145.772C192.233 145.772 194.21 144.953 195.668 143.496C197.125 142.038 197.944 140.061 197.944 138V141.888C197.944 143.949 198.763 145.926 200.22 147.384C201.678 148.841 203.655 149.66 205.716 149.66C207.777 149.66 209.754 148.841 211.212 147.384C212.669 145.926 213.488 143.949 213.488 141.888V144.316C213.464 145.351 213.648 146.381 214.028 147.344C214.408 148.307 214.976 149.185 215.7 149.925C216.424 150.666 217.289 151.254 218.243 151.656C219.197 152.057 220.222 152.264 221.258 152.264C222.293 152.264 223.318 152.057 224.273 151.656C225.227 151.254 226.092 150.666 226.816 149.925C227.539 149.185 228.108 148.307 228.488 147.344C228.868 146.381 229.051 145.351 229.028 144.316V131.516H229.024Z" fill="#FFCEBF"/>
<path d="M219.316 56.4H174.628V67.088C174.628 73.76 171.988 77.736 169.784 83.86C181.388 79.716 193.771 78.218 206.029 79.4755C218.286 80.733 230.107 84.7142 240.628 91.128C234.596 73.784 219.316 74.4 219.316 56.4Z" fill="#FFB59E"/>
<path d="M229.024 131.516V125.832H235.28C237.908 125.829 240.51 126.358 242.928 127.388C242.997 126.831 243.032 126.27 243.032 125.708V107.732C243.032 72.364 219.316 78.804 219.316 56.412H174.628V67.1C174.628 78.544 166.856 82.052 166.856 102.072V134.128C166.856 136.189 167.675 138.166 169.132 139.624C170.59 141.081 172.567 141.9 174.628 141.9C176.689 141.9 178.666 141.081 180.124 139.624C181.581 138.166 182.4 136.189 182.4 134.128V138C182.4 140.061 183.219 142.038 184.676 143.496C186.134 144.953 188.111 145.772 190.172 145.772C192.233 145.772 194.21 144.953 195.668 143.496C197.125 142.038 197.944 140.061 197.944 138V141.888C197.944 143.949 198.763 145.926 200.22 147.384C201.678 148.841 203.655 149.66 205.716 149.66C207.777 149.66 209.754 148.841 211.212 147.384C212.669 145.926 213.488 143.949 213.488 141.888V144.316C213.464 145.351 213.648 146.381 214.028 147.344C214.408 148.307 214.976 149.185 215.7 149.925C216.424 150.666 217.289 151.254 218.243 151.656C219.197 152.057 220.222 152.264 221.258 152.264C222.293 152.264 223.318 152.057 224.273 151.656C225.227 151.254 226.092 150.666 226.816 149.925C227.539 149.185 228.108 148.307 228.488 147.344C228.868 146.381 229.051 145.351 229.028 144.316V131.516H229.024Z" stroke="#45413C" stroke-width="4" stroke-linecap="round" stroke-linejoin="round"/>
<path d="M229.06 108.84L229.044 134.444" stroke="#45413C" stroke-width="4" stroke-linecap="round" stroke-linejoin="round"/>
<path d="M197.944 129.596V138.012V129.596Z" fill="#FFCEBF"/>
<path d="M197.944 129.596V138.012" stroke="#45413C" stroke-width="4" stroke-linecap="round" stroke-linejoin="round"/>
<path d="M213.488 130.24V141.9V130.24Z" fill="#FFCEBF"/>
<path d="M213.488 130.24V141.9" stroke="#45413C" stroke-width="4" stroke-linecap="round" stroke-linejoin="round"/>
<path d="M182.4 129.596V134.128V129.596Z" fill="#FFCEBF"/>
<path d="M182.4 129.596V134.128" stroke="#45413C" stroke-width="4" stroke-linecap="round" stroke-linejoin="round"/>
<path d="M165.364 225.692C165.364 227.283 165.996 228.809 167.121 229.935C168.247 231.06 169.773 231.692 171.364 231.692C172.955 231.692 174.481 231.06 175.607 229.935C176.732 228.809 177.364 227.283 177.364 225.692C177.364 224.101 176.732 222.575 175.607 221.449C174.481 220.324 172.955 219.692 171.364 219.692C169.773 219.692 168.247 220.324 167.121 221.449C165.996 222.575 165.364 224.101 165.364 225.692Z" fill="#45413C"/>
<path d="M221.364 225.692C221.364 227.283 221.996 228.809 223.121 229.935C224.247 231.06 225.773 231.692 227.364 231.692C228.955 231.692 230.481 231.06 231.607 229.935C232.732 228.809 233.364 227.283 233.364 225.692C233.364 224.101 232.732 222.575 231.607 221.449C230.481 220.324 228.955 219.692 227.364 219.692C225.773 219.692 224.247 220.324 223.121 221.449C221.996 222.575 221.364 224.101 221.364 225.692Z" fill="#45413C"/>
<path d="M173.4 249.6C187.74 270.372 211 270.372 225.328 249.6H173.4Z" fill="#FF866E" stroke="#45413C" stroke-width="4" stroke-linecap="round" stroke-linejoin="round"/>
<path d="M229.064 161.424H244.076V132.484C244.063 128.284 242.537 124.23 239.779 121.063C237.021 117.897 233.214 115.829 229.056 115.24V132.392C229.056 132.424 229.056 132.452 229.056 132.484L229.064 161.424Z" fill="#BF8256" stroke="#45413C" stroke-width="4" stroke-linecap="round" stroke-linejoin="round"/>
</svg>
