<svg width="400" height="400" viewBox="0 0 400 400" fill="none" xmlns="http://www.w3.org/2000/svg">
<path d="M64.62 332.124H335.38C336.441 332.124 337.458 332.546 338.208 333.296C338.959 334.046 339.38 335.063 339.38 336.124V348.848H60.62V336.124C60.62 335.063 61.0416 334.046 61.7916 333.296C62.542 332.546 63.5592 332.124 64.62 332.124Z" stroke="#020064" stroke-width="4" stroke-linecap="round" stroke-linejoin="round"/>
<path d="M339.38 348.852C313.489 356.247 286.694 359.999 259.768 360H140.232C113.31 359.998 86.5188 356.246 60.632 348.852" stroke="#020064" stroke-width="4" stroke-linecap="round" stroke-linejoin="round"/>
<path d="M281.076 181.696H310.088C311.191 181.696 312.284 181.913 313.303 182.335C314.322 182.757 315.248 183.376 316.028 184.156C316.808 184.936 317.426 185.862 317.849 186.881C318.271 187.9 318.488 188.992 318.488 190.096V332.124H81.528V190.08C81.528 187.852 82.4132 185.715 83.9884 184.14C85.5636 182.565 87.7004 181.68 89.928 181.68H118.94" stroke="#020064" stroke-width="4" stroke-linecap="round" stroke-linejoin="round"/>
<path d="M283.5 198.424H301.632V332.124H98.368V198.424H116.5" stroke="#020064" stroke-width="4" stroke-linecap="round" stroke-linejoin="round"/>
<path d="M218.8 40V54.612C218.8 55.4988 218.448 56.3496 217.821 56.9764C217.194 57.6036 216.343 57.956 215.456 57.956H174.956C174.069 57.956 173.219 57.6036 172.592 56.9764C171.964 56.3496 171.612 55.4988 171.612 54.612V40" stroke="#020064" stroke-width="4" stroke-linecap="round" stroke-linejoin="round"/>
<path d="M171.6 116.2C168.227 116.98 165.218 118.879 163.062 121.588C160.905 124.296 159.729 127.654 159.724 131.116V155.116H171.296V131.116C171.298 130.498 171.456 129.889 171.756 129.348" stroke="#020064" stroke-width="4" stroke-linecap="round" stroke-linejoin="round"/>
<path d="M220.284 127.38H224.976C225.962 127.393 226.905 127.791 227.603 128.489C228.3 129.186 228.698 130.129 228.712 131.116V155.116H240.284V131.116C240.278 127.058 238.664 123.168 235.794 120.298C232.924 117.429 229.034 115.816 224.976 115.812H220.276" stroke="#020064" stroke-width="4" stroke-linecap="round" stroke-linejoin="round"/>
<path d="M174.672 63.8956V57.9556H215.736V63.8956C215.736 64.7444 215.399 65.5584 214.799 66.1584C214.199 66.7584 213.385 67.0956 212.536 67.0956H177.844C177.424 67.0956 177.008 67.0128 176.62 66.852C176.231 66.6912 175.878 66.4556 175.581 66.1584C175.284 65.8612 175.048 65.5084 174.888 65.1204C174.727 64.732 174.644 64.316 174.644 63.8956H174.672Z" stroke="#020064" stroke-width="4" stroke-linecap="round" stroke-linejoin="round"/>
<path d="M230.912 117.008C231.129 116.106 231.242 115.183 231.248 114.256V107.296C231.248 79.5956 212.676 84.6396 212.676 67.1036H177.68V75.4716C177.68 84.4356 171.592 87.1836 171.592 102.86V127.968C171.633 129.555 172.292 131.063 173.429 132.171C174.566 133.279 176.09 133.9 177.678 133.9C179.266 133.9 180.79 133.279 181.927 132.171C183.064 131.063 183.723 129.555 183.764 127.968V131.008C183.743 131.82 183.885 132.628 184.182 133.385C184.478 134.141 184.923 134.831 185.49 135.413C186.058 135.995 186.736 136.457 187.484 136.773C188.233 137.089 189.038 137.252 189.85 137.252C190.663 137.252 191.467 137.089 192.216 136.773C192.964 136.457 193.642 135.995 194.21 135.413C194.777 134.831 195.222 134.141 195.518 133.385C195.815 132.628 195.957 131.82 195.936 131.008V134.052C195.915 134.864 196.057 135.672 196.354 136.429C196.65 137.185 197.095 137.875 197.662 138.457C198.23 139.039 198.908 139.501 199.656 139.817C200.405 140.133 201.21 140.296 202.022 140.296C202.835 140.296 203.639 140.133 204.388 139.817C205.136 139.501 205.814 139.039 206.382 138.457C206.949 137.875 207.394 137.185 207.69 136.429C207.987 135.672 208.129 134.864 208.108 134.052V135.956C208.108 137.57 208.75 139.119 209.891 140.26C211.033 141.402 212.582 142.044 214.196 142.044C215.811 142.044 217.359 141.402 218.501 140.26C219.643 139.119 220.284 137.57 220.284 135.956V125.92V115.812" stroke="#020064" stroke-width="4" stroke-linecap="round" stroke-linejoin="round"/>
<path d="M220.284 108.188L220.276 115.812" stroke="#020064" stroke-width="4" stroke-linecap="round" stroke-linejoin="round"/>
<path d="M195.936 124.416V131.008" stroke="#020064" stroke-width="4" stroke-linecap="round" stroke-linejoin="round"/>
<path d="M208.112 124.924V134.052" stroke="#020064" stroke-width="4" stroke-linecap="round" stroke-linejoin="round"/>
<path d="M183.764 124.416V127.968" stroke="#020064" stroke-width="4" stroke-linecap="round" stroke-linejoin="round"/>
<path d="M172.271 226.229C171.565 226.586 170.77 226.726 169.984 226.632C169.199 226.536 168.459 226.211 167.859 225.696C167.258 225.18 166.824 224.499 166.612 223.737C166.399 222.975 166.417 222.167 166.663 221.416C166.909 220.664 167.373 220.002 167.996 219.514C168.618 219.026 169.371 218.733 170.16 218.673C170.949 218.613 171.738 218.788 172.427 219.176C173.116 219.564 173.675 220.148 174.032 220.854C174.27 221.322 174.412 221.833 174.452 222.357C174.492 222.881 174.429 223.407 174.266 223.906C174.102 224.406 173.842 224.868 173.499 225.266C173.157 225.664 172.74 225.992 172.271 226.229Z" stroke="#020064" stroke-width="4" stroke-linecap="round" stroke-linejoin="round"/>
<path d="M230.959 226.229C230.253 226.586 229.458 226.726 228.672 226.632C227.887 226.536 227.147 226.211 226.547 225.696C225.946 225.18 225.512 224.499 225.3 223.737C225.087 222.975 225.105 222.167 225.351 221.416C225.597 220.664 226.061 220.002 226.683 219.514C227.306 219.026 228.059 218.733 228.848 218.673C229.637 218.613 230.426 218.788 231.115 219.176C231.804 219.564 232.363 220.148 232.72 220.854C232.958 221.322 233.1 221.833 233.14 222.357C233.18 222.881 233.117 223.407 232.954 223.906C232.79 224.406 232.53 224.868 232.187 225.266C231.845 225.664 231.428 225.992 230.959 226.229Z" stroke="#020064" stroke-width="4" stroke-linecap="round" stroke-linejoin="round"/>
<path d="M172.8 247.532C187.828 269.304 212.196 269.304 227.224 247.532H172.8Z" stroke="#020064" stroke-width="4" stroke-linecap="round" stroke-linejoin="round"/>
<path d="M277.692 313.928L269.94 159.044C269.876 157.987 269.413 156.993 268.645 156.264C267.876 155.534 266.86 155.124 265.8 155.116H134.2C133.141 155.124 132.124 155.534 131.356 156.264C130.587 156.993 130.124 157.987 130.06 159.044L122.308 313.928C122.273 314.632 122.382 315.336 122.628 315.997C122.874 316.658 123.251 317.262 123.738 317.772C124.224 318.282 124.809 318.688 125.457 318.965C126.105 319.242 126.803 319.385 127.508 319.384H272.504C273.208 319.384 273.904 319.24 274.551 318.962C275.198 318.684 275.782 318.278 276.267 317.768C276.752 317.257 277.128 316.654 277.373 315.994C277.618 315.334 277.727 314.631 277.692 313.928Z" stroke="#020064" stroke-width="4" stroke-linecap="round" stroke-linejoin="round"/>
</svg>
