<svg width="400" height="400" viewBox="0 0 400 400" fill="none" xmlns="http://www.w3.org/2000/svg">
<path d="M389.8 120.8V131.42H240.132V120.8H389.8ZM269.326 126.55C269.326 126.059 269.18 125.58 268.906 125.172C268.634 124.764 268.246 124.446 267.792 124.259C267.34 124.071 266.84 124.022 266.36 124.118C265.878 124.214 265.436 124.45 265.09 124.797C264.742 125.144 264.506 125.586 264.41 126.067C264.314 126.549 264.364 127.048 264.55 127.501C264.738 127.954 265.056 128.342 265.464 128.615C265.872 128.888 266.352 129.034 266.842 129.034C267.17 129.036 267.494 128.973 267.798 128.848C268.102 128.724 268.376 128.54 268.608 128.308C268.84 128.077 269.024 127.801 269.148 127.498C269.272 127.195 269.336 126.87 269.334 126.542L269.326 126.55ZM259.556 126.55C259.556 126.059 259.41 125.58 259.138 125.172C258.864 124.764 258.476 124.446 258.024 124.259C257.57 124.071 257.072 124.022 256.59 124.118C256.108 124.213 255.666 124.45 255.32 124.796C254.972 125.143 254.736 125.585 254.64 126.066C254.544 126.547 254.592 127.046 254.78 127.5C254.968 127.953 255.284 128.341 255.692 128.614C256.1 128.887 256.58 129.033 257.07 129.034C257.398 129.036 257.722 128.973 258.026 128.848C258.33 128.724 258.606 128.54 258.838 128.308C259.068 128.077 259.252 127.801 259.378 127.498C259.502 127.195 259.566 126.87 259.564 126.542L259.556 126.55ZM249.784 126.55C249.784 126.059 249.638 125.58 249.364 125.172C249.092 124.764 248.704 124.446 248.25 124.259C247.798 124.071 247.298 124.022 246.818 124.118C246.336 124.214 245.894 124.45 245.548 124.797C245.2 125.144 244.964 125.586 244.868 126.067C244.772 126.549 244.822 127.048 245.008 127.501C245.196 127.954 245.514 128.342 245.922 128.615C246.33 128.888 246.81 129.034 247.3 129.034C247.628 129.037 247.954 128.974 248.258 128.85C248.562 128.726 248.838 128.542 249.07 128.311C249.304 128.079 249.488 127.803 249.612 127.499C249.738 127.196 249.802 126.87 249.8 126.542L249.784 126.55Z" fill="#313553"/>
<path d="M359.956 342.718H196.636L176.096 328.174L114.654 284.67L114.746 284.258C115.628 284.532 116.545 284.67 117.468 284.67H271.61C273.23 284.672 274.824 284.244 276.224 283.428L359.956 342.718ZM271.016 320.412H314.946L302.04 311.276L273.376 290.972H140.776L152.264 299.11L182.346 320.412H271.016ZM235.184 337.136H298.928L283.036 325.884H219.132L235.024 337.136H235.184Z" fill="#55DEFF"/>
<path d="M314.946 320.412H271.016V320.154L259.04 311.674H301.762L302.04 311.276L314.946 320.412Z" fill="#55DEFF"/>
<path d="M201.11 299.11L189.622 290.972H273.376L302.04 311.276L301.762 311.674H259.04L271.016 320.154V320.412H182.336L152.254 299.11H201.11Z" fill="#55DEFF"/>
<path d="M298.928 337.136H235.184H235.024L219.132 325.884H282.876H283.036L298.928 337.136Z" fill="#FFE8BB"/>
<path d="M280.782 220.634V275.506C280.782 276.71 280.544 277.902 280.084 279.014C279.622 280.128 278.946 281.138 278.096 281.988C277.244 282.84 276.232 283.514 275.12 283.974C274.006 284.434 272.814 284.672 271.61 284.67H117.468C116.264 284.67 115.072 284.434 113.96 283.974C112.848 283.514 111.837 282.838 110.986 281.988C110.135 281.136 109.46 280.126 109 279.014C108.54 277.902 108.303 276.71 108.304 275.506V165.768C108.304 163.337 109.269 161.006 110.988 159.287C112.706 157.568 115.037 156.601 117.468 156.6H271.61C272.814 156.6 274.008 156.836 275.12 157.297C276.234 157.758 277.244 158.434 278.096 159.285C278.948 160.137 279.624 161.148 280.084 162.261C280.546 163.375 280.782 164.567 280.782 165.772V220.634ZM273.802 270.494V170.772C273.802 168.863 273.044 167.031 271.694 165.681C270.342 164.331 268.512 163.572 266.602 163.572H122.478C120.568 163.572 118.737 164.331 117.387 165.681C116.037 167.031 115.278 168.863 115.278 170.772V270.494C115.278 272.404 116.037 274.236 117.387 275.586C118.737 276.936 120.568 277.694 122.478 277.694H266.6C268.51 277.694 270.34 276.936 271.692 275.586C273.042 274.236 273.8 272.404 273.8 270.494H273.802Z" fill="#55DEFF"/>
<path d="M273.8 170.772V201.6H272.432V201.082C272.432 192.282 267.476 187.982 261.418 187.982H260.77C260.378 187.982 260.004 187.828 259.726 187.552C259.448 187.276 259.292 186.901 259.29 186.51V184.186C260.238 183.718 261.038 182.995 261.596 182.097C262.154 181.199 262.452 180.163 262.452 179.106V175.95C262.452 174.447 261.854 173.005 260.792 171.942C259.728 170.879 258.288 170.282 256.784 170.282C255.28 170.282 253.84 170.879 252.776 171.942C251.714 173.005 251.116 174.447 251.116 175.95V179.106C251.116 180.163 251.414 181.199 251.972 182.097C252.53 182.995 253.33 183.718 254.278 184.186V186.518C254.276 186.908 254.122 187.282 253.846 187.558C253.57 187.837 253.194 187.996 252.8 188C251.114 187.943 249.436 188.238 247.87 188.866C246.304 189.494 244.886 190.441 243.708 191.648C242.53 192.854 241.614 194.293 241.024 195.873C240.432 197.452 240.176 199.138 240.272 200.822H240.132V163.576H266.6C268.508 163.576 270.34 164.334 271.69 165.683C273.04 167.033 273.8 168.863 273.8 170.772Z" fill="#FFE8BB"/>
<path d="M272.266 274.494L272.574 274.516C271.916 275.494 271.028 276.294 269.986 276.848C268.946 277.402 267.784 277.69 266.606 277.69H240.132V276.89H240.272C240.176 275.206 240.432 273.52 241.024 271.94C241.614 270.362 242.53 268.922 243.708 267.716C244.886 266.51 246.304 265.562 247.87 264.934C249.436 264.306 251.114 264.01 252.8 264.068C252.994 264.068 253.186 264.032 253.366 263.958C253.544 263.884 253.708 263.776 253.846 263.64C253.984 263.502 254.092 263.34 254.166 263.16C254.242 262.982 254.28 262.79 254.28 262.596V260.264C253.332 259.796 252.532 259.074 251.974 258.176C251.414 257.278 251.118 256.242 251.118 255.184V252.03C251.118 250.526 251.716 249.086 252.778 248.022C253.842 246.96 255.282 246.362 256.786 246.362C258.29 246.362 259.732 246.96 260.794 248.022C261.856 249.086 262.454 250.526 262.454 252.03V255.184C262.454 256.242 262.158 257.278 261.598 258.176C261.04 259.074 260.24 259.796 259.292 260.264V262.6C259.294 262.992 259.45 263.366 259.728 263.642C260.006 263.918 260.38 264.072 260.772 264.072H261.42C266.83 264.066 271.358 267.5 272.266 274.494Z" fill="#313553"/>
<path d="M272.434 238.78V239.526H240.132V238.5H240.272C240.176 236.816 240.432 235.13 241.024 233.552C241.616 231.972 242.53 230.534 243.708 229.328C244.888 228.12 246.304 227.174 247.87 226.546C249.436 225.918 251.114 225.622 252.8 225.68C253.194 225.68 253.57 225.524 253.848 225.246C254.124 224.97 254.28 224.596 254.28 224.206V221.876C253.332 221.408 252.532 220.684 251.974 219.786C251.414 218.888 251.118 217.852 251.118 216.794V213.64C251.118 212.136 251.716 210.696 252.778 209.632C253.842 208.57 255.282 207.972 256.786 207.972C258.29 207.972 259.732 208.57 260.794 209.632C261.856 210.696 262.454 212.136 262.454 213.64V216.8C262.454 217.858 262.158 218.894 261.598 219.792C261.04 220.69 260.24 221.414 259.292 221.882V224.2C259.294 224.592 259.45 224.966 259.728 225.242C260.006 225.518 260.38 225.674 260.772 225.674H261.42C267.478 225.68 272.434 229.986 272.434 238.78Z" fill="#313553"/>
<path d="M272.434 201.09V201.608H240.132V200.808H240.272C240.178 199.125 240.436 197.441 241.028 195.863C241.62 194.285 242.534 192.848 243.714 191.643C244.892 190.438 246.308 189.492 247.874 188.865C249.438 188.237 251.116 187.943 252.8 188C253.192 187.999 253.568 187.844 253.848 187.568C254.124 187.292 254.278 186.918 254.28 186.528V184.186C253.332 183.718 252.532 182.995 251.974 182.097C251.416 181.2 251.118 180.163 251.118 179.106V175.95C251.118 174.447 251.716 173.005 252.778 171.942C253.842 170.879 255.282 170.282 256.786 170.282C258.29 170.282 259.732 170.879 260.794 171.942C261.856 173.005 262.454 174.447 262.454 175.95V179.106C262.454 180.163 262.156 181.2 261.598 182.097C261.04 182.995 260.24 183.718 259.292 184.186V186.518C259.294 186.909 259.45 187.284 259.728 187.56C260.006 187.836 260.38 187.991 260.772 187.99H261.42C267.478 188 272.434 192.296 272.434 201.09Z" fill="#313553"/>
<path d="M257.078 124.064C257.57 124.063 258.05 124.207 258.46 124.48C258.868 124.752 259.188 125.139 259.376 125.593C259.564 126.047 259.614 126.546 259.518 127.028C259.424 127.51 259.188 127.953 258.84 128.3C258.492 128.648 258.05 128.885 257.568 128.98C257.086 129.076 256.586 129.027 256.132 128.838C255.68 128.65 255.292 128.331 255.018 127.923C254.746 127.514 254.602 127.033 254.602 126.542C254.602 125.885 254.864 125.256 255.328 124.791C255.792 124.327 256.422 124.065 257.078 124.064Z" fill="#FFE8BB"/>
<path d="M247.308 124.064C247.8 124.063 248.28 124.208 248.688 124.481C249.098 124.753 249.416 125.141 249.604 125.594C249.792 126.048 249.842 126.547 249.746 127.029C249.65 127.511 249.414 127.954 249.068 128.301C248.72 128.648 248.278 128.885 247.796 128.98C247.314 129.076 246.814 129.027 246.36 128.838C245.906 128.65 245.52 128.331 245.246 127.922C244.974 127.514 244.83 127.033 244.83 126.542C244.83 125.885 245.092 125.255 245.556 124.79C246.022 124.326 246.652 124.064 247.308 124.064Z" fill="#55DEFF"/>
<path d="M215.32 50.298V60.928H9.80005V50.298H215.32ZM39.01 56.05C39.0096 55.5594 38.8638 55.0798 38.591 54.672C38.318 54.264 37.9304 53.9462 37.477 53.7586C37.0236 53.571 36.5246 53.522 36.0434 53.6178C35.562 53.7138 35.12 53.95 34.773 54.297C34.426 54.644 34.1896 55.0862 34.0938 55.5674C33.998 56.0486 34.047 56.5476 34.2346 57.001C34.4222 57.4544 34.74 57.842 35.1478 58.115C35.5558 58.3878 36.0354 58.5338 36.526 58.534C36.8524 58.5346 37.1756 58.4708 37.4772 58.346C37.7788 58.2214 38.053 58.0384 38.2836 57.8078C38.5144 57.577 38.6974 57.303 38.822 57.0014C38.9466 56.6996 39.0106 56.3764 39.01 56.05ZM29.24 56.05C29.2396 55.5594 29.0938 55.08 28.821 54.6722C28.5482 54.2644 28.1608 53.9466 27.7074 53.7588C27.254 53.5712 26.7552 53.522 26.274 53.6178C25.7928 53.7134 25.3508 53.9496 25.0038 54.2964C24.6566 54.6432 24.4202 55.085 24.324 55.5662C24.228 56.0474 24.2768 56.5462 24.464 56.9996C24.6514 57.453 24.9688 57.8408 25.3764 58.114C25.784 58.3872 26.2634 58.5334 26.754 58.534C27.0806 58.5348 27.404 58.4712 27.7058 58.3466C28.0078 58.2222 28.282 58.0392 28.513 57.8084C28.744 57.5776 28.927 57.3036 29.0518 57.0018C29.1766 56.7 29.2406 56.3766 29.24 56.05ZM19.468 56.05C19.4677 55.5594 19.3218 55.0798 19.0489 54.672C18.776 54.264 18.3884 53.9462 17.9349 53.7586C17.4815 53.571 16.9826 53.522 16.5013 53.6178C16.0201 53.7138 15.578 53.95 15.231 54.297C14.884 54.644 14.6477 55.0862 14.5518 55.5674C14.456 56.0486 14.505 56.5476 14.6926 57.001C14.8802 57.4544 15.198 57.842 15.6059 58.115C16.0137 58.3878 16.4933 58.5338 16.984 58.534C17.3104 58.5346 17.6336 58.4708 17.9353 58.346C18.2369 58.2214 18.5109 58.0384 18.7417 57.8078C18.9724 57.577 19.1554 57.303 19.28 57.0014C19.4047 56.6996 19.4686 56.3764 19.468 56.05Z" fill="#313553"/>
<path d="M208.236 203.624V208.502L203.406 206.102C203.902 205.282 204.616 204.616 205.47 204.178C206.322 203.74 207.28 203.548 208.236 203.624Z" fill="#FFE8BB"/>
<path d="M189.622 290.972L201.11 299.11H152.254L140.766 290.972H189.622Z" fill="#55DEFF"/>
<path d="M167.846 104.334C168.023 104.463 168.171 104.628 168.281 104.818C168.39 105.008 168.457 105.219 168.479 105.437C168.501 105.656 168.476 105.876 168.407 106.084C168.337 106.292 168.224 106.483 168.076 106.644L163.676 111.292L159.126 116.092L150.57 125.138L150.066 125.208C149.87 124.993 149.645 124.807 149.396 124.656C148.849 124.311 148.222 124.114 147.576 124.084V124.07L159.2 111.62L165.8 104.536C165.945 104.379 166.121 104.254 166.317 104.169C166.513 104.084 166.724 104.04 166.938 104.04C167.264 104.041 167.581 104.144 167.846 104.334Z" fill="#313553"/>
<path d="M157.948 183.446L163.2 186.064C162.174 189.254 157.944 188.206 157.944 188.206L157.948 183.446Z" fill="#FFE8BB"/>
<path d="M155.624 87.52V92.4L150.8 90C151.296 89.1806 152.009 88.5148 152.861 88.0768C153.713 87.639 154.669 87.4462 155.624 87.52Z" fill="#FFE8BB"/>
<path d="M152.246 132.502C153 134.59 150.676 136.702 150.676 136.702C148.896 135.48 145.232 137.148 144.178 139.144C140.978 138.712 141.058 137.044 142.178 135.474C142.944 134.453 143.898 133.588 144.99 132.926C147.494 131.42 151.492 130.416 152.246 132.502Z" fill="#FFE8BB"/>
<path d="M149.734 128.768C152.582 130.382 152.246 132.502 152.246 132.502C151.492 130.416 147.494 131.42 144.988 132.922C143.896 133.583 142.942 134.448 142.176 135.47L141.812 135.224C141.52 135.208 141.23 135.164 140.946 135.092C138.588 134.506 139.99 132.37 140.088 132.216C141.343 131.739 142.532 131.103 143.626 130.324C143.942 130.081 144.209 129.78 144.414 129.438L144.644 129.472C144.644 129.472 147.828 127.686 149.734 128.768Z" fill="#FFE8BB"/>
<path d="M144.178 139.14C145.232 137.14 148.896 135.476 150.676 136.698C152.456 137.92 151.45 141.248 147.236 146.022C146.225 147.349 144.93 148.433 143.446 149.194C141.961 149.956 140.326 150.375 138.658 150.422L135.658 156.516V156.6H120.218V156.52L126.66 142.874L132.64 131.474C133.026 130.848 133.58 130.342 134.24 130.016C136.874 128.599 139.726 127.631 142.678 127.154C142.998 127.134 143.319 127.167 143.628 127.252C143.843 127.318 144.04 127.433 144.202 127.587C144.365 127.742 144.49 127.933 144.566 128.144C144.643 128.355 144.669 128.582 144.643 128.805C144.617 129.028 144.539 129.242 144.416 129.43C144.211 129.772 143.944 130.073 143.628 130.316C142.534 131.095 141.345 131.731 140.09 132.208C139.706 132.362 139.344 132.508 139.022 132.628L139.078 132.78L129.112 143.32C128.964 143.481 128.851 143.671 128.782 143.879C128.712 144.086 128.687 144.306 128.709 144.524C128.731 144.741 128.799 144.952 128.908 145.142C129.017 145.331 129.165 145.496 129.342 145.624C129.609 145.814 129.928 145.916 130.256 145.916C130.47 145.916 130.681 145.872 130.877 145.787C131.072 145.701 131.249 145.577 131.394 145.42L140.698 135.58L140.948 135.084C141.232 135.156 141.522 135.201 141.814 135.216L142.176 135.462C141.058 137.04 140.982 138.708 144.178 139.14Z" fill="#FFE8BB"/>
<path d="M150.068 125.216C151.374 126.724 149.734 128.768 149.734 128.768C147.828 127.686 144.652 129.466 144.652 129.466L144.422 129.432C144.545 129.244 144.623 129.03 144.649 128.807C144.675 128.583 144.649 128.357 144.572 128.146C144.496 127.935 144.371 127.744 144.208 127.589C144.046 127.434 143.849 127.32 143.634 127.254C143.325 127.169 143.004 127.135 142.684 127.156C143.179 126.277 143.886 125.537 144.741 125.002C145.596 124.468 146.572 124.157 147.578 124.098C148.224 124.127 148.851 124.325 149.398 124.67C149.646 124.819 149.872 125.003 150.068 125.216Z" fill="#FFE8BB"/>
<path d="M149.4 276.888V277.688H122.478C121.309 277.69 120.158 277.406 119.124 276.862C118.09 276.316 117.205 275.528 116.546 274.562L116.65 274.492C117.558 267.492 122.088 264.064 127.49 264.064H128.146C128.536 264.064 128.911 263.908 129.187 263.632C129.463 263.356 129.618 262.982 129.618 262.592V260.26C128.67 259.792 127.873 259.068 127.315 258.17C126.758 257.272 126.463 256.236 126.464 255.18V252.026C126.45 251.272 126.586 250.524 126.865 249.824C127.143 249.124 127.558 248.488 128.086 247.95C128.613 247.412 129.243 246.984 129.937 246.694C130.632 246.402 131.378 246.252 132.131 246.252C132.884 246.252 133.63 246.402 134.325 246.694C135.019 246.984 135.649 247.412 136.176 247.95C136.704 248.488 137.119 249.124 137.397 249.824C137.676 250.524 137.812 251.272 137.798 252.026V255.18C137.798 256.238 137.502 257.274 136.944 258.172C136.385 259.07 135.586 259.792 134.638 260.26V262.6C134.639 262.99 134.794 263.364 135.07 263.64C135.346 263.916 135.72 264.072 136.11 264.072C137.796 264.014 139.476 264.308 141.043 264.936C142.609 265.564 144.027 266.51 145.207 267.718C146.387 268.924 147.302 270.364 147.894 271.944C148.486 273.524 148.742 275.21 148.646 276.894L149.4 276.888Z" fill="#313553"/>
<path d="M149.4 239.526V276.888H148.648C148.744 275.204 148.488 273.518 147.896 271.938C147.303 270.358 146.388 268.918 145.209 267.712C144.029 266.504 142.611 265.558 141.045 264.93C139.478 264.302 137.798 264.008 136.112 264.066C135.722 264.066 135.348 263.91 135.072 263.634C134.796 263.358 134.64 262.984 134.64 262.594V260.262C135.588 259.794 136.387 259.072 136.945 258.174C137.504 257.276 137.8 256.24 137.8 255.182V252.028C137.772 250.544 137.163 249.13 136.103 248.09C135.043 247.05 133.618 246.466 132.133 246.466C130.648 246.466 129.223 247.05 128.163 248.09C127.103 249.13 126.494 250.544 126.466 252.028V255.182C126.465 256.238 126.76 257.274 127.317 258.172C127.875 259.07 128.672 259.794 129.62 260.262V262.6C129.62 262.99 129.465 263.364 129.189 263.64C128.913 263.916 128.538 264.072 128.148 264.072H127.492C122.092 264.072 117.56 267.506 116.652 274.5L116.548 274.57C115.723 273.374 115.282 271.954 115.284 270.5V239.526H149.4Z" fill="#FFE8BB"/>
<path d="M149.4 238.5V239.526H116.484V238.78C116.484 229.98 121.438 225.68 127.484 225.68H128.14C128.53 225.68 128.905 225.524 129.181 225.248C129.457 224.972 129.612 224.596 129.612 224.206V221.876C128.664 221.408 127.866 220.684 127.309 219.786C126.752 218.888 126.457 217.852 126.458 216.794V213.64C126.444 212.886 126.58 212.138 126.858 211.438C127.137 210.738 127.552 210.102 128.08 209.564C128.607 209.026 129.237 208.598 129.931 208.308C130.626 208.016 131.372 207.866 132.125 207.866C132.878 207.866 133.624 208.016 134.319 208.308C135.013 208.598 135.643 209.026 136.17 209.564C136.698 210.102 137.113 210.738 137.391 211.438C137.67 212.138 137.806 212.886 137.792 213.64V216.8C137.792 217.858 137.496 218.894 136.937 219.792C136.379 220.69 135.58 221.414 134.632 221.882V224.2C134.633 224.59 134.788 224.964 135.064 225.24C135.34 225.516 135.714 225.672 136.104 225.674C137.79 225.616 139.47 225.91 141.036 226.538C142.602 227.166 144.02 228.112 145.2 229.318C146.38 230.524 147.295 231.964 147.887 233.544C148.479 235.124 148.736 236.81 148.64 238.494L149.4 238.5Z" fill="#313553"/>
<path d="M149.4 200.812V201.612H116.484V201.094C116.484 192.294 121.438 187.994 127.484 187.994H128.14C128.53 187.993 128.904 187.838 129.18 187.562C129.456 187.286 129.611 186.912 129.612 186.522V184.186C128.664 183.718 127.867 182.994 127.31 182.096C126.752 181.199 126.457 180.163 126.458 179.106V175.95C126.444 175.197 126.58 174.448 126.858 173.748C127.137 173.049 127.552 172.411 128.08 171.873C128.607 171.336 129.237 170.909 129.931 170.617C130.626 170.326 131.372 170.176 132.125 170.176C132.878 170.176 133.624 170.326 134.319 170.617C135.013 170.909 135.643 171.336 136.17 171.873C136.698 172.411 137.113 173.049 137.391 173.748C137.67 174.448 137.806 175.197 137.792 175.95V179.106C137.792 180.163 137.495 181.199 136.937 182.097C136.379 182.995 135.58 183.718 134.632 184.186V186.518C134.632 186.908 134.788 187.282 135.064 187.558C135.34 187.834 135.714 187.989 136.104 187.99C137.79 187.932 139.47 188.226 141.037 188.854C142.603 189.481 144.021 190.429 145.201 191.635C146.38 192.842 147.295 194.281 147.888 195.861C148.48 197.441 148.736 199.127 148.64 200.812H149.4Z" fill="#313553"/>
<path d="M140.946 135.092L140.696 135.588L131.4 145.428C131.255 145.584 131.078 145.709 130.883 145.795C130.687 145.88 130.476 145.924 130.262 145.924C129.934 145.924 129.615 145.822 129.348 145.632C129.171 145.504 129.023 145.339 128.914 145.15C128.805 144.96 128.737 144.749 128.715 144.532C128.693 144.314 128.718 144.094 128.788 143.887C128.857 143.679 128.97 143.489 129.118 143.328L139.084 132.788L139.028 132.636C139.35 132.516 139.712 132.37 140.096 132.216C140 132.37 138.588 134.506 140.946 135.092Z" fill="#313553"/>
<path d="M105.338 67.3419L110.6 69.9599C109.582 73.1479 105.346 72.1019 105.346 72.1019L105.338 67.3419Z" fill="#FFE8BB"/>
<path d="M108.304 169.64V192.018H98.854V191.786L92.412 184.186C93.6972 181.199 94.3822 177.988 94.428 174.736C94.428 170.96 91.944 166.248 89.8 162.878L98.854 156.6L108.304 169.64Z" fill="#FFE8BB"/>
<path d="M87.916 60.928V139.462L87.818 139.662C86.4918 139.064 85.0974 138.631 83.666 138.372L83.728 138.058V60.928H87.916Z" fill="#55DEFF"/>
<path d="M73.322 121C74.46 123.268 73.196 126.564 70.796 126.864C69.944 126.983 69.0758 126.844 68.304 126.464C69.2932 124.998 70.0488 123.388 70.544 121.69C70.838 120.984 71.318 120.216 71.786 119.24C72.4508 119.673 72.9826 120.283 73.322 121Z" fill="#313553"/>
<path d="M65.344 135.636L73.056 138.066C73.056 138.066 68.814 142.756 57.374 143.37C50.1996 143.607 43.1096 141.766 36.958 138.066L46.674 134.052L40.372 127.52C40.414 127.52 39.542 120.56 39.584 120.554C40.784 120.4 49.236 127.904 49.926 126.912L51.798 127.344C53.6332 128.603 55.6406 129.591 57.758 130.276L57.828 130.298C58.442 130.528 63.062 132.224 65.162 132.866H65.2L65.22 133.25L65.344 135.636Z" fill="#FFE8BB"/>
<path d="M68.122 120.114C67.9004 120.273 67.6648 120.411 67.418 120.526C67.418 120.526 65.018 120.002 64.136 119.926C63.432 119.864 59.44 120.06 57.904 120.15C57.528 120.164 57.304 120.178 57.304 120.178C58.3026 121.033 59.3562 121.821 60.458 122.538C61.0486 122.971 61.7314 123.262 62.453 123.388C63.1746 123.514 63.9153 123.471 64.6179 123.264C65.9301 122.387 67.1102 121.326 68.122 120.114ZM37.846 110.274C38.94 109.074 40.462 109.736 41.446 110.406C42.4568 111.138 43.683 111.511 44.93 111.466C51.504 111.034 52.892 101.214 53.304 97.7242C53.304 97.7242 62.316 98.7002 65.226 100.138C65.504 100.278 65.784 100.432 66.056 100.586C68.9128 102.264 71.0241 104.966 71.9619 108.144L71.8919 108.344C71.7099 108.868 71.55 109.216 71.55 109.216C72.409 111.06 72.728 113.11 72.47 115.128C72.2068 116.62 71.7397 118.069 71.082 119.434C70.4599 120.754 69.804 121.786 69.414 122.736C68.7452 125.019 67.7278 127.184 66.398 129.156C66.0074 129.622 65.5374 130.014 65.01 130.316C64.5092 130.6 63.9598 130.786 63.39 130.866C61.8264 131.049 60.2426 130.937 58.72 130.538C58.428 130.468 58.12 130.392 57.834 130.302L57.764 130.28C55.6468 129.594 53.6396 128.607 51.804 127.348L48.538 126.916C49.1736 126.14 49.5588 125.189 49.6424 124.189C49.726 123.189 49.504 122.187 49.006 121.316C47.806 119.432 46.94 118.678 43.896 120.026C43.1604 120.408 42.5538 120.997 42.152 121.722L41.942 122.67C39.898 121.492 35.342 115.336 37.294 111.148C37.4284 110.828 37.615 110.533 37.846 110.274Z" fill="#FFE8BB"/>
<path d="M53.29 97.6879C53.2938 97.6995 53.2938 97.7121 53.29 97.7239C52.858 101.472 51.28 112.5 43.4 111.404C42.8448 111.323 42.3218 111.093 41.886 110.74C40.978 110.014 39.122 108.856 37.838 110.274C37.6072 110.534 37.4184 110.828 37.278 111.146C35.324 115.334 38.996 118.768 41.04 119.946L42.688 121.078C42.3234 121.699 42.1218 122.403 42.1024 123.123C42.0828 123.843 42.2456 124.556 42.576 125.196C43.434 127.618 45.402 127.344 46.904 127.38L46.666 134.052L36.95 138.066C32.7058 138.778 28.5874 140.104 24.724 142C21.102 131.936 33.022 115.318 36.338 105.54C36.686 104.52 36.26 97.0519 41.726 90.8899C44.4956 88.6567 47.7398 87.0879 51.21 86.3039C51.61 86.1999 51.994 86.1073 52.362 86.0259C55.9916 85.3441 59.7442 85.8413 63.0708 87.4447C66.3976 89.0483 69.1242 91.6739 70.852 94.9379C75.528 104.466 71.954 108.138 71.954 108.138C71.0172 104.96 68.9064 102.258 66.05 100.58C63.5694 98.5327 60.635 97.1085 57.492 96.4259C53.2 95.7339 53.262 97.4439 53.29 97.6879Z" fill="#313553"/>
<path d="M66.0499 100.586C65.7779 100.432 65.4979 100.278 65.2179 100.138C62.3079 98.6998 53.2979 97.7238 53.2979 97.7238C53.3015 97.7122 53.3015 97.6996 53.2979 97.688C53.2699 97.444 53.2079 95.7338 57.4979 96.4318C60.6387 97.1154 63.5709 98.5396 66.0499 100.586Z" fill="#313553"/>
<path d="M65.0659 130.422L65.1979 132.866H65.1619C63.0619 132.224 58.4419 130.528 57.8279 130.298C58.1199 130.388 58.4279 130.464 58.7139 130.534C60.2367 130.933 61.8205 131.045 63.3839 130.862C63.9531 130.782 64.5021 130.596 65.0019 130.312L65.0659 130.422Z" fill="#313553"/>
<path d="M46.534 127.038C45.6244 127.147 44.7056 126.929 43.9414 126.424C43.177 125.919 42.6168 125.159 42.36 124.28C42.1736 123.755 42.107 123.196 42.1652 122.642C42.2234 122.088 42.4046 121.554 42.696 121.08C42.9754 120.611 43.3952 120.243 43.896 120.026C44.3282 119.771 44.8094 119.611 45.308 119.556C45.8068 119.501 46.3114 119.553 46.7886 119.707C47.266 119.861 47.7052 120.115 48.0774 120.451C48.4496 120.787 48.7464 121.199 48.948 121.658C49.2488 122.315 49.3748 123.039 49.3138 123.76C49.2528 124.48 49.007 125.172 48.6 125.77C48.3806 126.108 48.0916 126.396 47.7522 126.613C47.4128 126.831 47.0308 126.974 46.632 127.032C46.6 127.03 46.57 127.038 46.534 127.038Z" fill="#55DEFF"/>
<path d="M36.958 172.174L36.344 192.018H16.0759V171.344L36.958 172.174Z" fill="#FFE8BB"/>
<path d="M26.7539 53.572C27.2453 53.5712 27.7257 53.7162 28.1345 53.9886C28.5431 54.261 28.8619 54.6486 29.0503 55.1024C29.2387 55.556 29.2881 56.0554 29.1925 56.5372C29.0969 57.019 28.8603 57.4618 28.5131 57.809C28.1657 58.1564 27.7231 58.3928 27.2413 58.4886C26.7593 58.5842 26.2601 58.5346 25.8063 58.3464C25.3527 58.158 24.9651 57.8392 24.6927 57.4304C24.4201 57.0216 24.2751 56.5412 24.2759 56.05C24.2765 55.393 24.5377 54.763 25.0023 54.2984C25.4669 53.8338 26.0969 53.5726 26.7539 53.572Z" fill="#FFE8BB"/>
<path d="M16.9841 53.572C17.4753 53.5712 17.9558 53.7162 18.3645 53.9886C18.7733 54.261 19.0921 54.6486 19.2804 55.1024C19.4688 55.556 19.5182 56.0554 19.4226 56.5372C19.327 57.019 19.0905 57.4618 18.7431 57.809C18.3958 58.1564 17.9532 58.3928 17.4713 58.4886C16.9895 58.5842 16.4901 58.5346 16.0364 58.3464C15.5827 58.158 15.1952 57.8392 14.9227 57.4304C14.6503 57.0216 14.5053 56.5412 14.5061 56.05C14.5066 55.393 14.7679 54.763 15.2325 54.2984C15.6971 53.8338 16.3271 53.5726 16.9841 53.572Z" fill="#55DEFF"/>
<path d="M276.224 283.428C274.824 284.244 273.23 284.672 271.61 284.67H117.468C116.264 284.67 115.072 284.434 113.96 283.974C112.848 283.514 111.837 282.838 110.986 281.988C110.135 281.136 109.46 280.126 109 279.014C108.54 277.902 108.303 276.71 108.304 275.506V165.768C108.304 163.337 109.269 161.006 110.988 159.287C112.706 157.568 115.037 156.601 117.468 156.6H271.61C272.814 156.6 274.008 156.836 275.12 157.297C276.234 157.758 277.244 158.434 278.096 159.285C278.948 160.137 279.624 161.148 280.084 162.261C280.546 163.375 280.782 164.567 280.782 165.772V275.51C280.782 277.114 280.36 278.688 279.56 280.078C278.76 281.468 277.61 282.622 276.224 283.428Z" stroke="#313553" stroke-width="0.698" stroke-linecap="round" stroke-linejoin="round"/>
<path d="M149.4 277.69H122.478C120.569 277.69 118.737 276.932 117.387 275.582C116.037 274.23 115.278 272.4 115.278 270.49V170.772C115.278 168.862 116.037 167.031 117.387 165.681C118.737 164.331 120.569 163.572 122.478 163.572H266.6C268.51 163.572 270.34 164.331 271.692 165.681C273.042 167.031 273.8 168.862 273.8 170.772V270.494C273.8 272.404 273.042 274.234 271.692 275.586C270.34 276.936 268.51 277.694 266.6 277.694H149.4V277.69Z" stroke="#313553" stroke-width="0.698" stroke-linecap="round" stroke-linejoin="round"/>
<path d="M185.51 160.672H197.396" stroke="#313553" stroke-width="0.698" stroke-linecap="round" stroke-linejoin="round"/>
<path d="M149.398 163.576V200.812V201.608V238.5V239.526V276.888V277.69" stroke="#313553" stroke-width="0.698" stroke-linecap="round" stroke-linejoin="round"/>
<path d="M240.132 163.576V200.812V201.608V238.5V239.526V276.888V277.69" stroke="#313553" stroke-width="0.698" stroke-linecap="round" stroke-linejoin="round"/>
<path d="M115.282 201.608H116.484H149.398" stroke="#313553" stroke-width="0.698" stroke-linecap="round" stroke-linejoin="round"/>
<path d="M115.282 239.526H116.484H149.398" stroke="#313553" stroke-width="0.698" stroke-linecap="round" stroke-linejoin="round"/>
<path d="M148.646 200.812C148.741 199.128 148.483 197.443 147.891 195.864C147.298 194.285 146.382 192.847 145.203 191.642C144.023 190.436 142.606 189.49 141.04 188.863C139.475 188.236 137.795 187.942 136.11 188C135.72 187.999 135.346 187.844 135.07 187.568C134.794 187.292 134.639 186.918 134.638 186.528V184.186C135.586 183.718 136.385 182.995 136.943 182.097C137.502 181.199 137.798 180.163 137.798 179.106V175.95C137.77 174.465 137.161 173.051 136.101 172.011C135.041 170.971 133.616 170.388 132.131 170.388C130.646 170.388 129.221 170.971 128.161 172.011C127.101 173.051 126.492 174.465 126.464 175.95V179.106C126.463 180.163 126.758 181.198 127.316 182.096C127.873 182.994 128.671 183.718 129.618 184.186V186.518C129.617 186.908 129.462 187.282 129.186 187.558C128.91 187.834 128.536 187.989 128.146 187.99H127.49C121.438 187.99 116.49 192.296 116.49 201.09" stroke="#313553" stroke-width="0.698" stroke-linecap="round" stroke-linejoin="round"/>
<path d="M148.646 238.5C148.742 236.816 148.485 235.13 147.893 233.55C147.301 231.97 146.386 230.53 145.206 229.324C144.026 228.118 142.608 227.172 141.042 226.544C139.476 225.916 137.796 225.622 136.11 225.68C135.72 225.678 135.346 225.522 135.07 225.246C134.794 224.97 134.639 224.596 134.638 224.206V221.876C135.586 221.408 136.384 220.686 136.943 219.788C137.502 218.892 137.798 217.856 137.8 216.8V213.64C137.772 212.156 137.163 210.742 136.103 209.702C135.043 208.662 133.618 208.078 132.133 208.078C130.648 208.078 129.223 208.662 128.163 209.702C127.103 210.742 126.494 212.156 126.466 213.64V216.8C126.465 217.858 126.76 218.894 127.317 219.792C127.875 220.69 128.672 221.414 129.62 221.882V224.2C129.62 224.59 129.465 224.966 129.189 225.242C128.913 225.518 128.539 225.674 128.148 225.674H127.492C121.44 225.674 116.492 229.98 116.492 238.774" stroke="#313553" stroke-width="0.698" stroke-linecap="round" stroke-linejoin="round"/>
<path d="M148.646 276.888C148.742 275.204 148.486 273.518 147.894 271.938C147.301 270.358 146.386 268.918 145.207 267.712C144.027 266.504 142.609 265.558 141.043 264.93C139.476 264.302 137.796 264.008 136.11 264.066C135.72 264.066 135.345 263.91 135.069 263.634C134.793 263.358 134.638 262.984 134.638 262.594V260.262C135.586 259.794 136.385 259.07 136.943 258.174C137.502 257.276 137.798 256.24 137.798 255.182V252.028C137.77 250.544 137.16 249.13 136.101 248.09C135.041 247.05 133.616 246.466 132.131 246.466C130.646 246.466 129.22 247.05 128.161 248.09C127.101 249.13 126.492 250.544 126.464 252.028V255.182C126.463 256.238 126.758 257.274 127.315 258.172C127.872 259.07 128.67 259.794 129.618 260.262V262.6C129.618 262.99 129.463 263.364 129.187 263.64C128.911 263.916 128.536 264.072 128.146 264.072H127.49C122.09 264.072 117.558 267.506 116.65 274.5" stroke="#313553" stroke-width="0.698" stroke-linecap="round" stroke-linejoin="round"/>
<path d="M273.802 201.608H272.434H240.216" stroke="#313553" stroke-width="0.698" stroke-linecap="round" stroke-linejoin="round"/>
<path d="M273.802 239.526H272.434H240.216" stroke="#313553" stroke-width="0.698" stroke-linecap="round" stroke-linejoin="round"/>
<path d="M240.272 200.812C240.178 199.129 240.434 197.444 241.026 195.866C241.618 194.287 242.532 192.85 243.712 191.644C244.89 190.439 246.308 189.492 247.872 188.865C249.436 188.237 251.116 187.943 252.8 188C253.192 187.999 253.568 187.844 253.848 187.568C254.124 187.292 254.278 186.918 254.28 186.528V184.186C253.332 183.718 252.532 182.995 251.974 182.097C251.416 181.2 251.118 180.163 251.118 179.106V175.95C251.118 174.447 251.716 173.005 252.778 171.942C253.84 170.879 255.282 170.282 256.786 170.282C258.29 170.282 259.73 170.879 260.794 171.942C261.856 173.005 262.454 174.447 262.454 175.95V179.106C262.454 180.163 262.156 181.2 261.598 182.097C261.04 182.995 260.24 183.718 259.292 184.186V186.518C259.294 186.909 259.45 187.284 259.728 187.56C260.006 187.836 260.38 187.991 260.772 187.99H261.42C267.478 187.99 272.434 192.296 272.434 201.09" stroke="#313553" stroke-width="0.698" stroke-linecap="round" stroke-linejoin="round"/>
<path d="M240.272 238.5C240.176 236.816 240.432 235.13 241.024 233.552C241.616 231.972 242.53 230.534 243.708 229.328C244.888 228.12 246.304 227.174 247.87 226.546C249.436 225.918 251.114 225.622 252.8 225.68C253.194 225.68 253.57 225.524 253.848 225.246C254.124 224.97 254.28 224.596 254.28 224.206V221.876C253.332 221.408 252.532 220.684 251.974 219.786C251.414 218.888 251.118 217.852 251.118 216.794V213.64C251.118 212.136 251.716 210.696 252.778 209.632C253.842 208.57 255.282 207.972 256.786 207.972C258.29 207.972 259.732 208.57 260.794 209.632C261.856 210.696 262.454 212.136 262.454 213.64V216.8C262.454 217.858 262.158 218.894 261.598 219.792C261.04 220.69 260.24 221.414 259.292 221.882V224.2C259.294 224.592 259.45 224.966 259.728 225.242C260.006 225.518 260.38 225.674 260.772 225.674H261.42C267.478 225.674 272.434 229.98 272.434 238.774" stroke="#313553" stroke-width="0.698" stroke-linecap="round" stroke-linejoin="round"/>
<path d="M240.272 276.888C240.176 275.204 240.432 273.518 241.024 271.938C241.614 270.36 242.528 268.92 243.708 267.714C244.886 266.508 246.304 265.56 247.87 264.932C249.434 264.304 251.114 264.008 252.8 264.066C252.994 264.066 253.186 264.03 253.366 263.956C253.544 263.882 253.708 263.774 253.846 263.638C253.982 263.5 254.092 263.338 254.166 263.158C254.242 262.98 254.28 262.788 254.28 262.594V260.262C253.332 259.794 252.532 259.072 251.974 258.174C251.414 257.276 251.118 256.24 251.118 255.182V252.028C251.118 250.524 251.716 249.084 252.778 248.02C253.842 246.958 255.282 246.36 256.786 246.36C258.29 246.36 259.73 246.958 260.794 248.02C261.856 249.084 262.454 250.524 262.454 252.028V255.182C262.454 256.24 262.158 257.276 261.598 258.174C261.04 259.072 260.24 259.794 259.292 260.262V262.6C259.294 262.992 259.45 263.366 259.728 263.642C260.006 263.918 260.38 264.072 260.772 264.072H261.42C266.82 264.072 271.358 267.506 272.266 274.5" stroke="#313553" stroke-width="0.698" stroke-linecap="round" stroke-linejoin="round"/>
<path d="M240.132 156.596V131.42V120.792H389.808V131.42V220.634H280.782" stroke="#313553" stroke-width="0.698" stroke-linecap="round" stroke-linejoin="round"/>
<path d="M240.132 131.42H389.808" stroke="#313553" stroke-width="0.698" stroke-linecap="round" stroke-linejoin="round"/>
<path d="M249.8 126.542C249.8 127.033 249.656 127.513 249.384 127.922C249.112 128.33 248.724 128.649 248.27 128.838C247.818 129.026 247.318 129.076 246.836 128.981C246.356 128.886 245.912 128.65 245.566 128.303C245.218 127.956 244.98 127.514 244.884 127.033C244.788 126.551 244.836 126.052 245.024 125.598C245.212 125.145 245.53 124.757 245.938 124.484C246.346 124.21 246.824 124.064 247.316 124.064C247.642 124.063 247.964 124.127 248.266 124.251C248.566 124.376 248.84 124.558 249.072 124.788C249.302 125.018 249.486 125.292 249.61 125.593C249.736 125.894 249.8 126.216 249.8 126.542Z" stroke="#313553" stroke-width="0.698" stroke-linecap="round" stroke-linejoin="round"/>
<path d="M259.564 126.542C259.564 127.033 259.42 127.513 259.148 127.922C258.876 128.33 258.488 128.649 258.036 128.838C257.582 129.026 257.084 129.076 256.602 128.981C256.12 128.886 255.678 128.65 255.33 128.304C254.982 127.957 254.746 127.515 254.648 127.034C254.552 126.553 254.6 126.054 254.788 125.6C254.974 125.146 255.292 124.758 255.7 124.484C256.108 124.211 256.588 124.065 257.078 124.064C257.404 124.063 257.728 124.127 258.028 124.251C258.33 124.375 258.604 124.557 258.834 124.788C259.066 125.018 259.25 125.291 259.374 125.592C259.5 125.893 259.564 126.216 259.564 126.542Z" stroke="#313553" stroke-width="0.698" stroke-linecap="round" stroke-linejoin="round"/>
<path d="M269.334 126.542C269.334 127.033 269.19 127.513 268.918 127.922C268.646 128.33 268.258 128.649 267.806 128.838C267.352 129.026 266.852 129.076 266.372 128.981C265.89 128.886 265.446 128.65 265.1 128.303C264.752 127.956 264.514 127.514 264.418 127.033C264.322 126.551 264.37 126.052 264.558 125.598C264.746 125.145 265.064 124.757 265.472 124.484C265.88 124.21 266.36 124.064 266.85 124.064C267.176 124.063 267.498 124.127 267.8 124.251C268.102 124.375 268.376 124.557 268.606 124.788C268.836 125.018 269.02 125.291 269.144 125.592C269.27 125.893 269.334 126.216 269.334 126.542Z" stroke="#313553" stroke-width="0.698" stroke-linecap="round" stroke-linejoin="round"/>
<path d="M108.304 192.018H98.8542H87.9162H36.3442H16.0761H9.80811V60.928V50.298H215.32V60.928V156.596" stroke="#313553" stroke-width="0.698" stroke-linecap="round" stroke-linejoin="round"/>
<path d="M9.80811 60.928H83.7282H87.9162H215.32" stroke="#313553" stroke-width="0.698" stroke-linecap="round" stroke-linejoin="round"/>
<path d="M19.4679 56.05C19.4687 56.541 19.3239 57.0212 19.0517 57.4298C18.7795 57.8384 18.3923 58.1572 17.939 58.3458C17.4856 58.5342 16.9866 58.5842 16.5049 58.489C16.0232 58.3938 15.5806 58.158 15.233 57.8112C14.8854 57.4644 14.6485 57.0224 14.5521 56.541C14.4558 56.0594 14.5044 55.5604 14.6919 55.1066C14.8793 54.6528 15.1971 54.2648 15.6051 53.9916C16.0131 53.7184 16.4929 53.5724 16.9839 53.572C17.6418 53.5714 18.273 53.8322 18.7388 54.2968C19.2046 54.7616 19.4668 55.3922 19.4679 56.05Z" stroke="#313553" stroke-width="0.698" stroke-linecap="round" stroke-linejoin="round"/>
<path d="M29.2402 56.05C29.241 56.541 29.0962 57.021 28.824 57.4296C28.552 57.8382 28.1648 58.157 27.7116 58.3456C27.2584 58.5342 26.7594 58.5842 26.2778 58.4892C25.7962 58.3942 25.3536 58.1584 25.006 57.8118C24.6582 57.4654 24.4212 57.0234 24.3246 56.5422C24.228 56.0608 24.2764 55.5618 24.4636 55.108C24.6506 54.654 24.9682 54.266 25.3758 53.9926C25.7836 53.7192 26.2632 53.5728 26.7542 53.572C27.08 53.5714 27.403 53.6352 27.7042 53.7594C28.0056 53.8836 28.2794 54.066 28.5104 54.2962C28.7412 54.5262 28.9244 54.7996 29.0496 55.1006C29.1748 55.4014 29.2396 55.724 29.2402 56.05Z" stroke="#313553" stroke-width="0.698" stroke-linecap="round" stroke-linejoin="round"/>
<path d="M39.0098 56.05C39.0106 56.541 38.8658 57.0212 38.5936 57.4298C38.3216 57.8384 37.9342 58.1572 37.481 58.3458C37.0276 58.5342 36.5286 58.5842 36.0468 58.489C35.5652 58.3938 35.1226 58.158 34.775 57.8112C34.4274 57.4644 34.1904 57.0224 34.0942 56.541C33.9978 56.0594 34.0464 55.5604 34.2338 55.1066C34.4214 54.6528 34.7392 54.2648 35.1472 53.9916C35.555 53.7184 36.035 53.5724 36.5258 53.572C37.1838 53.5714 37.815 53.8322 38.2808 54.2968C38.7466 54.7616 39.0088 55.3922 39.0098 56.05Z" stroke="#313553" stroke-width="0.698" stroke-linecap="round" stroke-linejoin="round"/>
<path d="M176.096 328.174L114.654 284.67V287.07C114.653 288.704 115.045 290.312 115.796 291.762C116.546 293.212 117.634 294.462 118.968 295.404L191.968 347.094C195.011 349.242 198.643 350.398 202.368 350.402H352.594C353.562 350.402 354.52 350.212 355.416 349.842C356.31 349.472 357.122 348.93 357.808 348.244C358.492 347.56 359.034 346.748 359.406 345.854C359.776 344.958 359.966 344 359.966 343.032V342.724" stroke="#313553" stroke-width="0.698" stroke-linecap="round" stroke-linejoin="round"/>
<path d="M276.224 283.428L359.956 342.718H196.636" stroke="#313553" stroke-width="0.698" stroke-linecap="round" stroke-linejoin="round"/>
<path d="M263.702 149.512H366.232" stroke="#313553" stroke-width="0.698" stroke-linecap="round" stroke-linejoin="round"/>
<path d="M281.85 172.544H366.232" stroke="#313553" stroke-width="0.698" stroke-linecap="round" stroke-linejoin="round"/>
<path d="M281.85 195.576H366.232" stroke="#313553" stroke-width="0.698" stroke-linecap="round" stroke-linejoin="round"/>
<path d="M69.5181 255.392H103.466" stroke="#313553" stroke-width="0.698" stroke-linecap="round" stroke-linejoin="round"/>
<path d="M285.884 255.392H333.79" stroke="#313553" stroke-width="0.698" stroke-linecap="round" stroke-linejoin="round"/>
<path d="M176.096 328.174L196.636 342.718V349.286" stroke="#313553" stroke-width="0.698" stroke-linecap="round" stroke-linejoin="round"/>
<path d="M235.024 337.136L219.132 325.884H282.876" stroke="#313553" stroke-width="0.698" stroke-linecap="round" stroke-linejoin="round"/>
<path d="M283.036 325.884L298.928 337.136H235.184" stroke="#313553" stroke-width="0.698" stroke-linecap="round" stroke-linejoin="round"/>
<path d="M314.946 320.412H271.016H182.336L152.254 299.11L140.766 290.972H189.622H273.376L302.04 311.276L314.946 320.412Z" stroke="#313553" stroke-width="0.698" stroke-linecap="round" stroke-linejoin="round"/>
<path d="M152.254 299.11H201.11H266.864" stroke="#313553" stroke-width="0.698" stroke-linecap="round" stroke-linejoin="round"/>
<path d="M187.152 311.674H259.04H301.762" stroke="#313553" stroke-width="0.698" stroke-linecap="round" stroke-linejoin="round"/>
<path d="M189.622 290.972L201.11 299.11L213.086 307.592" stroke="#313553" stroke-width="0.698" stroke-linecap="round" stroke-linejoin="round"/>
<path d="M247.552 303.536L259.04 311.674L271.016 320.154" stroke="#313553" stroke-width="0.698" stroke-linecap="round" stroke-linejoin="round"/>
<path d="M211.14 230.8C213.046 230.8 214.932 231.176 216.692 231.906C218.452 232.634 220.05 233.704 221.398 235.05C222.744 236.398 223.812 237.998 224.542 239.758C225.27 241.518 225.644 243.404 225.644 245.31C225.648 245.356 225.648 245.404 225.644 245.45C225.644 249.296 224.116 252.984 221.396 255.704C218.678 258.422 214.99 259.95 211.144 259.95C207.298 259.95 203.61 258.422 200.89 255.704C198.172 252.984 196.644 249.296 196.644 245.45C196.64 245.404 196.64 245.356 196.644 245.31C196.643 241.464 198.169 237.774 200.888 235.054C203.606 232.332 207.294 230.802 211.14 230.8Z" stroke="#313553" stroke-width="0.698" stroke-linecap="round" stroke-linejoin="round"/>
<path d="M211.14 221.604V230.802V245.452V259.816V267.906" stroke="#313553" stroke-width="0.698" stroke-linecap="round" stroke-linejoin="round"/>
<path d="M234.29 245.452H225.636H211.14H196.644H187.988" stroke="#313553" stroke-width="0.698" stroke-linecap="round" stroke-linejoin="round"/>
<path d="M158.34 111.354C158.429 107.567 159.996 103.966 162.705 101.319C165.415 98.6724 169.052 97.1906 172.84 97.1906C176.628 97.1906 180.265 98.6724 182.975 101.319C185.684 103.966 187.251 107.567 187.34 111.354C187.343 111.403 187.343 111.453 187.34 111.502C187.305 114.919 186.065 118.214 183.838 120.806C181.612 123.398 178.542 125.121 175.169 125.67C171.797 126.22 168.338 125.562 165.404 123.812C162.469 122.061 160.247 119.331 159.128 116.102" stroke="#313553" stroke-width="0.698" stroke-linecap="round" stroke-linejoin="round"/>
<path d="M172.844 87.652V96.852V111.502V125.858V133.954" stroke="#313553" stroke-width="0.698" stroke-linecap="round" stroke-linejoin="round"/>
<path d="M159.058 111.502H158.34H149.692" stroke="#313553" stroke-width="0.698" stroke-linecap="round" stroke-linejoin="round"/>
<path d="M195.994 111.502H187.34H172.844H163.902" stroke="#313553" stroke-width="0.698" stroke-linecap="round" stroke-linejoin="round"/>
<path d="M157.948 188.206V197.58L180.904 194.886L208.236 191.676V203.624V208.502L203.406 206.094L180.904 194.886L163.204 186.064L157.948 183.446V188.206Z" stroke="#313553" stroke-width="0.698" stroke-linecap="round" stroke-linejoin="round"/>
<path d="M157.948 188.2C157.948 188.2 162.178 189.248 163.204 186.058" stroke="#313553" stroke-width="0.698" stroke-linecap="round" stroke-linejoin="round"/>
<path d="M203.4 206.094C203.898 205.276 204.612 204.61 205.466 204.174C206.318 203.738 207.276 203.548 208.23 203.624" stroke="#313553" stroke-width="0.698" stroke-linecap="round" stroke-linejoin="round"/>
<path d="M105.338 72.1019V81.4819L128.3 78.7819L155.624 75.5699V87.5199V92.3979L150.794 89.9899L128.3 78.7819L110.592 69.9599L105.338 67.3419V72.1019Z" stroke="#313553" stroke-width="0.698" stroke-linecap="round" stroke-linejoin="round"/>
<path d="M105.338 72.102C105.338 72.102 109.574 73.148 110.592 69.96" stroke="#313553" stroke-width="0.698" stroke-linecap="round" stroke-linejoin="round"/>
<path d="M150.8 90C151.297 89.1814 152.012 88.517 152.865 88.0808C153.718 87.6448 154.675 87.454 155.63 87.53" stroke="#313553" stroke-width="0.698" stroke-linecap="round" stroke-linejoin="round"/>
<path d="M187.96 238.62H170.944V231.64V221.604H180.982H187.96V238.62Z" stroke="#313553" stroke-width="0.698" stroke-linecap="round" stroke-linejoin="round"/>
<path d="M180.982 231.64H170.944H163.966V214.624H180.982V221.604V231.64Z" stroke="#313553" stroke-width="0.698" stroke-linecap="round" stroke-linejoin="round"/>
<path d="M163.966 214.624L170.944 221.604" stroke="#313553" stroke-width="0.698" stroke-linecap="round" stroke-linejoin="round"/>
<path d="M180.982 214.624L187.96 221.604" stroke="#313553" stroke-width="0.698" stroke-linecap="round" stroke-linejoin="round"/>
<path d="M180.982 231.64L187.96 238.62" stroke="#313553" stroke-width="0.698" stroke-linecap="round" stroke-linejoin="round"/>
<path d="M163.966 231.64L170.944 238.62" stroke="#313553" stroke-width="0.698" stroke-linecap="round" stroke-linejoin="round"/>
<path d="M125.158 128.902H108.142V121.922V111.886H118.18H125.158V128.902Z" stroke="#313553" stroke-width="0.698" stroke-linecap="round" stroke-linejoin="round"/>
<path d="M118.18 121.922H108.142H101.164V104.906H118.18V111.886V121.922Z" stroke="#313553" stroke-width="0.698" stroke-linecap="round" stroke-linejoin="round"/>
<path d="M101.164 104.906L108.142 111.886" stroke="#313553" stroke-width="0.698" stroke-linecap="round" stroke-linejoin="round"/>
<path d="M118.18 104.906L125.158 111.886" stroke="#313553" stroke-width="0.698" stroke-linecap="round" stroke-linejoin="round"/>
<path d="M118.18 121.922L125.158 128.902" stroke="#313553" stroke-width="0.698" stroke-linecap="round" stroke-linejoin="round"/>
<path d="M101.164 121.922L108.142 128.902" stroke="#313553" stroke-width="0.698" stroke-linecap="round" stroke-linejoin="round"/>
<path d="M163.268 260.388C163.268 260.388 160.412 261.548 160.268 263.572C160.124 265.596 162.732 265.602 163.89 264.444C163.933 263.062 163.787 261.682 163.458 260.34C163.339 259.878 163.168 259.43 162.948 259.006C161.866 256.982 160.052 257.268 159.402 258.644" stroke="#313553" stroke-width="0.698" stroke-linecap="round" stroke-linejoin="round"/>
<path d="M218.49 176.6C218.49 176.6 215.634 177.758 215.49 179.79C215.346 181.822 217.954 181.822 219.112 180.662C219.154 179.279 219.01 177.896 218.68 176.552C218.562 176.091 218.392 175.646 218.17 175.226C217.088 173.194 215.274 173.488 214.624 174.862" stroke="#313553" stroke-width="0.698" stroke-linecap="round" stroke-linejoin="round"/>
<path d="M167.454 259.816H170.944" stroke="#313553" stroke-width="0.698" stroke-linecap="round" stroke-linejoin="round"/>
<path d="M167.454 262.608H170.944" stroke="#313553" stroke-width="0.698" stroke-linecap="round" stroke-linejoin="round"/>
<path d="M174.2 258.944C174.374 256.744 179.624 256.704 178.612 260.514C177.92 263.104 174.304 265.226 174.304 265.226H180.224" stroke="#313553" stroke-width="0.698" stroke-linecap="round" stroke-linejoin="round"/>
<path d="M198.34 175.042C198.52 172.852 203.77 172.802 202.74 176.606C202.05 179.206 198.44 181.324 198.44 181.324H204.352" stroke="#313553" stroke-width="0.698" stroke-linecap="round" stroke-linejoin="round"/>
<path d="M186.244 172.224C186.362 170.75 189.888 170.722 189.204 173.278C188.742 175.008 186.32 176.438 186.32 176.438H190.284" stroke="#313553" stroke-width="0.698" stroke-linecap="round" stroke-linejoin="round"/>
<path d="M184.08 263.948C186.48 266.726 190.146 264.974 188.902 262.148C187.658 259.322 184.304 261.344 184.08 263.948Z" stroke="#313553" stroke-width="0.698" stroke-linecap="round" stroke-linejoin="round"/>
<path d="M186.286 256.278C184.848 257.806 181.686 261.164 184.086 263.948" stroke="#313553" stroke-width="0.698" stroke-linecap="round" stroke-linejoin="round"/>
<path d="M209.052 174.47V176.698V178.924" stroke="#313553" stroke-width="0.698" stroke-linecap="round" stroke-linejoin="round"/>
<path d="M206.568 176.698H209.052H211.356" stroke="#313553" stroke-width="0.698" stroke-linecap="round" stroke-linejoin="round"/>
<path d="M196.37 171.148C194.312 171.776 192.602 175.692 193.244 178.448C193.415 179.623 193.888 180.734 194.616 181.672C195.345 182.61 196.304 183.343 197.4 183.8" stroke="#313553" stroke-width="0.698" stroke-linecap="round" stroke-linejoin="round"/>
<path d="M220.66 171.148C222.718 171.776 224.428 175.692 223.786 178.448C223.614 179.622 223.14 180.731 222.412 181.668C221.686 182.605 220.728 183.338 219.634 183.796" stroke="#313553" stroke-width="0.698" stroke-linecap="round" stroke-linejoin="round"/>
<path d="M83.728 60.928V138.066" stroke="#313553" stroke-width="0.698" stroke-linecap="round" stroke-linejoin="round"/>
<path d="M87.916 60.928V139.462" stroke="#313553" stroke-width="0.698" stroke-linecap="round" stroke-linejoin="round"/>
<path d="M36.958 168.642V172.174L16.076 171.344L13.78 171.254C13.78 171.254 13.934 154.976 18.232 147.614C19.839 145.182 22.0852 143.239 24.724 142C28.5894 140.1 32.7106 138.772 36.958 138.058C43.1096 141.758 50.1996 143.6 57.374 143.362C68.814 142.748 73.056 138.058 73.056 138.058C76.5898 137.662 80.1618 137.767 83.666 138.372C85.0976 138.631 86.4918 139.064 87.818 139.662C88.829 140.115 89.7602 140.729 90.576 141.478C94.5546 145.607 98.0442 150.18 100.976 155.108L98.848 156.588L89.8 162.878" stroke="#313553" stroke-width="0.698" stroke-linecap="round" stroke-linejoin="round"/>
<path d="M16.0759 171.344V192.018" stroke="#313553" stroke-width="0.698" stroke-linecap="round" stroke-linejoin="round"/>
<path d="M36.958 172.174L36.344 192.018" stroke="#313553" stroke-width="0.698" stroke-linecap="round" stroke-linejoin="round"/>
<path d="M86.7219 158.522C86.7219 158.522 88.1599 160.31 89.7999 162.878C91.9439 166.248 94.4219 170.96 94.4279 174.736C94.3819 177.988 93.6969 181.199 92.4119 184.186C91.2807 186.92 89.7669 189.478 87.9159 191.786" stroke="#313553" stroke-width="0.698" stroke-linecap="round" stroke-linejoin="round"/>
<path d="M70.872 171.344C70.872 171.344 71.402 181.24 67.71 185.686" stroke="#313553" stroke-width="0.698" stroke-linecap="round" stroke-linejoin="round"/>
<path d="M69.54 110.916C68.9052 110.64 68.2298 110.47 67.54 110.412C66.8918 110.276 66.2186 110.317 65.592 110.532" stroke="#313553" stroke-width="0.698" stroke-linecap="round" stroke-linejoin="round"/>
<path d="M54.8621 110.2C55.6425 110.007 56.4349 109.867 57.2341 109.78C57.8851 109.654 58.5579 109.705 59.1821 109.928" stroke="#313553" stroke-width="0.698" stroke-linecap="round" stroke-linejoin="round"/>
<path d="M64.682 108.248C64.413 108.815 64.2764 109.436 64.2822 110.064C64.2882 110.692 64.4364 111.31 64.716 111.872C65.128 113.254 66.448 114.726 66.216 116.032C65.984 117.338 63.578 117.86 62.168 117.476" stroke="#313553" stroke-width="0.698" stroke-linecap="round" stroke-linejoin="round"/>
<path d="M57.7581 130.276C55.6407 129.591 53.6333 128.603 51.7981 127.344" stroke="#313553" stroke-width="0.698" stroke-linecap="round" stroke-linejoin="round"/>
<path d="M71.0741 119.43C70.4541 120.75 69.7981 121.782 69.4061 122.732C68.7371 125.014 67.7205 127.179 66.3921 129.152C65.9977 129.618 65.5237 130.011 64.9921 130.312C64.4921 130.595 63.9431 130.782 63.3741 130.862C61.8105 131.044 60.2267 130.933 58.7041 130.534C58.4101 130.464 58.1041 130.388 57.8181 130.298" stroke="#313553" stroke-width="0.698" stroke-linecap="round" stroke-linejoin="round"/>
<path d="M71.884 108.34C71.702 108.864 71.542 109.212 71.542 109.212C72.4022 111.056 72.7218 113.106 72.464 115.124C72.1962 116.617 71.7252 118.065 71.064 119.43" stroke="#313553" stroke-width="0.698" stroke-linecap="round" stroke-linejoin="round"/>
<path d="M53.1021 107.698C54.8611 106.6 56.9272 106.097 58.994 106.266C61.254 106.65 61.3801 107.432 61.3941 107.466" stroke="#313553" stroke-width="0.698" stroke-linecap="round" stroke-linejoin="round"/>
<path d="M71.1441 106.49C70.4813 106.426 69.8125 106.466 69.1621 106.608C68.1915 106.793 67.2371 107.054 66.3081 107.39" stroke="#313553" stroke-width="0.698" stroke-linecap="round" stroke-linejoin="round"/>
<path d="M68.13 120.108C67.9086 120.267 67.6728 120.405 67.426 120.52C66.4594 120.925 65.424 121.141 64.376 121.156C62.191 121.062 60.0232 120.727 57.912 120.156C57.458 120.044 57.144 119.956 57.04 119.932" stroke="#313553" stroke-width="0.698" stroke-linecap="round" stroke-linejoin="round"/>
<path d="M57 119.926C57 119.926 57.118 120.024 57.308 120.19C58.3068 121.045 59.3604 121.833 60.462 122.55C61.0528 122.983 61.7354 123.274 62.457 123.4C63.1786 123.526 63.9194 123.483 64.622 123.276C65.9372 122.395 67.1192 121.33 68.132 120.114" stroke="#313553" stroke-width="0.698" stroke-linecap="round" stroke-linejoin="round"/>
<path d="M65.0659 130.422L65.1979 132.866L65.2179 133.25L65.3439 135.636" stroke="#313553" stroke-width="0.698" stroke-linecap="round" stroke-linejoin="round"/>
<path d="M73.056 138.066L65.344 135.636" stroke="#313553" stroke-width="0.698" stroke-linecap="round" stroke-linejoin="round"/>
<path d="M46.912 127.38L46.674 134.052L36.958 138.066" stroke="#313553" stroke-width="0.698" stroke-linecap="round" stroke-linejoin="round"/>
<path d="M42.43 111.216C42.43 111.216 39.604 108.34 37.846 110.274C37.6152 110.534 37.4264 110.828 37.286 111.146C35.332 115.334 39.506 119.932 42.686 121.078" stroke="#313553" stroke-width="0.698" stroke-linecap="round" stroke-linejoin="round"/>
<path d="M37.8459 110.274V110.286" stroke="#313553" stroke-width="0.698" stroke-linecap="round" stroke-linejoin="round"/>
<path d="M48.6 125.768C49.0106 125.172 49.2588 124.479 49.3198 123.758C49.3808 123.037 49.2526 122.313 48.948 121.656C48.745 121.198 48.4478 120.788 48.0754 120.452C47.703 120.117 47.264 119.864 46.7872 119.71C46.3102 119.556 45.8062 119.504 45.308 119.558C44.8098 119.612 44.3286 119.771 43.896 120.024C43.398 120.245 42.9794 120.613 42.696 121.078C42.4046 121.553 42.2234 122.086 42.1652 122.64C42.107 123.194 42.1736 123.753 42.36 124.278C42.6202 125.155 43.1814 125.913 43.9448 126.417C44.7082 126.921 45.625 127.141 46.534 127.036C46.562 127.036 46.59 127.036 46.618 127.036C47.0196 126.978 47.4042 126.835 47.746 126.616C48.0878 126.397 48.3788 126.108 48.6 125.768Z" stroke="#313553" stroke-width="0.698" stroke-linecap="round" stroke-linejoin="round"/>
<path d="M68.2959 126.466C69.0669 126.849 69.9359 126.988 70.7881 126.866C73.1881 126.566 74.4521 123.266 73.3161 121.002C72.9773 120.282 72.4421 119.673 71.7721 119.244" stroke="#313553" stroke-width="0.698" stroke-linecap="round" stroke-linejoin="round"/>
<path d="M57.2981 120.184C57.2981 120.184 57.5281 120.17 57.8981 120.156C59.4341 120.066 63.4261 119.87 64.1301 119.932C65.0041 120.002 67.4121 120.532 67.4121 120.532" stroke="#313553" stroke-width="0.698" stroke-linecap="round" stroke-linejoin="round"/>
<path d="M57.7581 130.276L57.8281 130.298C58.4421 130.528 63.0621 132.224 65.1621 132.866" stroke="#313553" stroke-width="0.698" stroke-linecap="round" stroke-linejoin="round"/>
<path d="M53.2901 97.688C53.2621 97.444 53.2001 95.7338 57.4901 96.4318C60.6331 97.1146 63.5673 98.5388 66.0481 100.586L66.0681 100.606" stroke="#313553" stroke-width="0.698" stroke-linecap="round" stroke-linejoin="round"/>
<path d="M44.8521 91.644C44.8521 91.644 52.3061 91.218 53.2901 97.688C53.2939 97.6996 53.2939 97.7122 53.2901 97.724" stroke="#313553" stroke-width="0.698" stroke-linecap="round" stroke-linejoin="round"/>
<path d="M42.5999 111.174C51.7999 114.642 52.8379 101.618 53.2919 97.724C53.2919 97.724 62.2919 98.7 65.2119 100.138C65.4919 100.278 65.7719 100.432 66.0439 100.586C68.9003 102.264 71.0111 104.966 71.9479 108.144C71.9479 108.144 75.5219 104.474 70.8459 94.944C69.1181 91.6802 66.3915 89.0544 63.0647 87.451C59.7379 85.8476 55.9855 85.3504 52.3559 86.032C51.9851 86.1134 51.6011 86.206 51.2039 86.31C47.7337 87.0942 44.4893 88.663 41.7199 90.896C36.2539 97.058 36.6799 104.526 36.3319 105.546C33.0159 115.324 21.0959 131.946 24.7179 142.006" stroke="#313553" stroke-width="0.698" stroke-linecap="round" stroke-linejoin="round"/>
<path d="M140.096 132.21C141.351 131.733 142.54 131.097 143.634 130.318C143.95 130.075 144.217 129.774 144.422 129.432C144.545 129.244 144.623 129.03 144.649 128.807C144.675 128.584 144.649 128.357 144.572 128.146C144.496 127.935 144.371 127.744 144.208 127.589C144.046 127.435 143.849 127.32 143.634 127.254C143.325 127.169 143.004 127.136 142.684 127.156C139.732 127.633 136.88 128.601 134.246 130.018C133.586 130.343 133.031 130.849 132.646 131.476L126.664 142.876L120.218 156.52" stroke="#313553" stroke-width="0.698" stroke-linecap="round" stroke-linejoin="round"/>
<path d="M137.688 133.118C137.688 133.118 138.238 132.936 139.02 132.636C139.342 132.516 139.704 132.37 140.088 132.216" stroke="#313553" stroke-width="0.698" stroke-linecap="round" stroke-linejoin="round"/>
<path d="M98.854 156.596L108.304 169.64" stroke="#313553" stroke-width="0.698" stroke-linecap="round" stroke-linejoin="round"/>
<path d="M92.4121 184.186L98.8541 191.786" stroke="#313553" stroke-width="0.698" stroke-linecap="round" stroke-linejoin="round"/>
<path d="M135.656 156.52L138.656 150.426C140.324 150.379 141.959 149.96 143.444 149.198C144.928 148.437 146.223 147.353 147.234 146.026C151.448 141.252 152.446 137.922 150.674 136.702C148.902 135.482 145.23 137.148 144.176 139.144C143.122 141.14 143.932 143.862 149.048 140.038" stroke="#313553" stroke-width="0.698" stroke-linecap="round" stroke-linejoin="round"/>
<path d="M150.676 136.698C150.676 136.698 153 134.59 152.246 132.498C151.492 130.406 147.494 131.416 144.988 132.918C143.896 133.58 142.941 134.445 142.176 135.466C141.058 137.036 140.976 138.704 144.176 139.136" stroke="#313553" stroke-width="0.698" stroke-linecap="round" stroke-linejoin="round"/>
<path d="M152.246 132.502C152.246 132.502 152.582 130.382 149.734 128.768C147.828 127.686 144.652 129.466 144.652 129.466" stroke="#313553" stroke-width="0.698" stroke-linecap="round" stroke-linejoin="round"/>
<path d="M140.096 132.21C139.998 132.364 138.596 134.5 140.954 135.086C141.238 135.158 141.528 135.202 141.82 135.218" stroke="#313553" stroke-width="0.698" stroke-linecap="round" stroke-linejoin="round"/>
<path d="M150.572 125.146L159.128 116.1L163.678 111.3L168.078 106.652C168.359 106.35 168.508 105.949 168.492 105.537C168.477 105.125 168.299 104.736 167.997 104.455C167.695 104.175 167.294 104.025 166.882 104.041C166.47 104.056 166.081 104.234 165.8 104.536L159.2 111.62L147.586 124.078" stroke="#313553" stroke-width="0.698" stroke-linecap="round" stroke-linejoin="round"/>
<path d="M139.076 132.788L129.11 143.328C128.962 143.489 128.849 143.679 128.779 143.887C128.71 144.094 128.685 144.314 128.707 144.532C128.729 144.749 128.796 144.96 128.906 145.15C129.015 145.339 129.163 145.504 129.34 145.632C129.607 145.822 129.926 145.924 130.254 145.924C130.468 145.924 130.679 145.88 130.875 145.795C131.07 145.709 131.247 145.585 131.392 145.428L140.696 135.588" stroke="#313553" stroke-width="0.698" stroke-linecap="round" stroke-linejoin="round"/>
<path d="M149.734 128.768C149.734 128.768 151.374 126.724 150.068 125.216C149.872 125.001 149.647 124.815 149.398 124.664C148.851 124.319 148.224 124.122 147.578 124.092C146.572 124.151 145.596 124.462 144.741 124.997C143.886 125.531 143.179 126.271 142.684 127.15" stroke="#313553" stroke-width="0.698" stroke-linecap="round" stroke-linejoin="round"/>
</svg>
