<svg width="400" height="400" viewBox="0 0 400 400" fill="none" xmlns="http://www.w3.org/2000/svg">
<path d="M39.364 219.592C39.364 262.027 56.2211 302.723 86.2269 332.729C116.233 362.735 156.929 379.592 199.364 379.592C241.799 379.592 282.495 362.735 312.501 332.729C342.507 302.723 359.364 262.027 359.364 219.592C359.364 177.157 342.507 136.461 312.501 106.455C282.495 76.4491 241.799 59.592 199.364 59.592C156.929 59.592 116.233 76.4491 86.2269 106.455C56.2211 136.461 39.364 177.157 39.364 219.592Z" fill="#D9EDFF"/>
<path d="M226.168 20.624V41.444C226.168 42.2927 225.831 43.1066 225.231 43.7067C224.631 44.3069 223.817 44.644 222.968 44.644H169.132C168.283 44.644 167.469 44.3069 166.869 43.7067C166.269 43.1066 165.932 42.2927 165.932 41.444V20.624" fill="#B0D9FF"/>
<path d="M226.168 20.624V41.444C226.168 42.2927 225.831 43.1066 225.231 43.7067C224.631 44.3069 223.817 44.644 222.968 44.644H169.132C168.283 44.644 167.469 44.3069 166.869 43.7067C166.269 43.1066 165.932 42.2927 165.932 41.444V20.624" stroke="#020064" stroke-width="4" stroke-linecap="round" stroke-linejoin="round"/>
<path d="M303.472 186.688H93.3721C91.2503 186.688 89.2155 187.531 87.7152 189.031C86.2149 190.531 85.3721 192.566 85.3721 194.688V330.228H311.472V194.688C311.472 192.566 310.629 190.531 309.129 189.031C307.629 187.531 305.594 186.688 303.472 186.688Z" fill="white" stroke="#020064" stroke-width="4" stroke-linecap="round" stroke-linejoin="round"/>
<path d="M295.512 202.648H101.556L101.332 330.228H295.512V202.648Z" fill="#B0D9FF"/>
<path d="M295.512 202.648H101.556L101.332 330.228H295.512V202.648Z" stroke="#020064" stroke-width="4" stroke-linecap="round" stroke-linejoin="round"/>
<path opacity="0.15" d="M76.064 362.148C76.064 363.196 79.3665 364.234 85.783 365.202C92.1995 366.17 101.604 367.05 113.461 367.791C125.317 368.532 139.392 369.12 154.883 369.521C170.374 369.922 186.977 370.128 203.744 370.128C220.511 370.128 237.114 369.922 252.605 369.521C268.096 369.12 282.171 368.532 294.027 367.791C305.884 367.05 315.288 366.17 321.705 365.202C328.121 364.234 331.424 363.196 331.424 362.148C331.424 361.1 328.121 360.062 321.705 359.094C315.288 358.126 305.884 357.246 294.027 356.505C282.171 355.764 268.096 355.176 252.605 354.775C237.114 354.374 220.511 354.168 203.744 354.168C186.977 354.168 170.374 354.374 154.883 354.775C139.392 355.176 125.317 355.764 113.461 356.505C101.604 357.246 92.1995 358.126 85.783 359.094C79.3665 360.062 76.064 361.1 76.064 362.148Z" fill="#020064"/>
<path d="M331.424 346.188H65.4241V334.228C65.4241 333.167 65.8455 332.15 66.5956 331.4C67.3458 330.649 68.3632 330.228 69.4241 330.228H327.424C328.485 330.228 329.502 330.649 330.253 331.4C331.003 332.15 331.424 333.167 331.424 334.228V346.188Z" fill="white" stroke="#020064" stroke-width="4" stroke-linecap="round" stroke-linejoin="round"/>
<path d="M331.424 346.192C306.718 353.248 281.15 356.828 255.456 356.828H141.392C115.698 356.828 90.1299 353.248 65.4241 346.192H331.424Z" fill="white" stroke="#020064" stroke-width="4" stroke-linecap="round" stroke-linejoin="round"/>
<path d="M243.132 132.4C243.127 127.762 241.282 123.316 238.003 120.036C234.724 116.756 230.278 114.91 225.64 114.904H168.548C163.909 114.909 159.462 116.754 156.182 120.034C152.902 123.314 151.057 127.761 151.052 132.4V176.608H166.276V132.4C166.291 131.271 166.745 130.193 167.543 129.395C168.341 128.597 169.42 128.143 170.548 128.128H223.64C224.768 128.143 225.846 128.597 226.643 129.396C227.441 130.194 227.895 131.272 227.908 132.4V176.608H243.132V132.4Z" fill="#B0D9FF" stroke="#020064" stroke-width="4" stroke-linecap="round" stroke-linejoin="round"/>
<path d="M267.6 318.072H129.24C128.568 318.072 127.904 317.936 127.286 317.672C126.669 317.407 126.111 317.02 125.648 316.534C125.184 316.048 124.824 315.472 124.59 314.843C124.356 314.213 124.252 313.543 124.284 312.872L131.688 165.08C131.752 164.072 132.194 163.126 132.926 162.431C133.658 161.736 134.626 161.343 135.636 161.332H263.064C264.085 161.343 265.064 161.745 265.799 162.454C266.534 163.164 266.969 164.128 267.016 165.148L272.564 312.936C272.588 313.602 272.477 314.267 272.238 314.889C271.999 315.512 271.637 316.08 271.174 316.559C270.71 317.038 270.155 317.42 269.541 317.68C268.927 317.939 268.267 318.073 267.6 318.072Z" fill="white"/>
<path d="M267.6 318.072H129.24C128.568 318.072 127.904 317.936 127.286 317.672C126.669 317.407 126.111 317.02 125.648 316.534C125.184 316.048 124.824 315.472 124.59 314.843C124.356 314.213 124.252 313.543 124.284 312.872L131.688 165.08C131.752 164.072 132.194 163.126 132.926 162.431C133.658 161.736 134.626 161.343 135.636 161.332H263.064C264.085 161.343 265.064 161.745 265.799 162.454C266.534 163.164 266.969 164.128 267.016 165.148L272.564 312.936C272.588 313.602 272.477 314.267 272.238 314.889C271.999 315.512 271.637 316.08 271.174 316.559C270.71 317.038 270.155 317.42 269.541 317.68C268.927 317.939 268.267 318.073 267.6 318.072V318.072Z" stroke="#020064" stroke-width="4" stroke-linecap="round" stroke-linejoin="round"/>
<path d="M169.828 44.636V53.1C169.828 53.9487 170.165 54.7626 170.765 55.3627C171.365 55.9628 172.179 56.3 173.028 56.3H219.092C219.941 56.3 220.755 55.9628 221.355 55.3627C221.955 54.7626 222.292 53.9487 222.292 53.1V44.636H169.828Z" fill="white" stroke="#020064" stroke-width="4" stroke-linecap="round" stroke-linejoin="round"/>
<path d="M228.084 131.416V125.732H234.34C236.969 125.729 239.57 126.26 241.988 127.292C242.057 126.733 242.092 126.171 242.092 125.608V107.632C242.092 72.268 218.376 78.708 218.376 56.312H173.688V67C173.688 78.444 165.916 81.952 165.916 101.972V134.028C165.916 136.089 166.735 138.066 168.192 139.524C169.65 140.981 171.627 141.8 173.688 141.8C175.749 141.8 177.726 140.981 179.184 139.524C180.641 138.066 181.46 136.089 181.46 134.028V137.916C181.46 139.977 182.279 141.954 183.736 143.412C185.194 144.869 187.171 145.688 189.232 145.688C191.293 145.688 193.27 144.869 194.728 143.412C196.185 141.954 197.004 139.977 197.004 137.916V141.8C197.004 143.861 197.823 145.838 199.28 147.296C200.738 148.753 202.715 149.572 204.776 149.572C206.837 149.572 208.814 148.753 210.272 147.296C211.729 145.838 212.548 143.861 212.548 141.8V144.228C212.525 145.263 212.708 146.293 213.088 147.256C213.468 148.219 214.037 149.097 214.76 149.837C215.484 150.578 216.349 151.166 217.303 151.568C218.258 151.969 219.283 152.176 220.318 152.176C221.353 152.176 222.379 151.969 223.333 151.568C224.287 151.166 225.152 150.578 225.876 149.837C226.599 149.097 227.168 148.219 227.548 147.256C227.928 146.293 228.112 145.263 228.088 144.228V131.428L228.084 131.416Z" fill="white"/>
<path d="M228.084 131.416V125.732H234.34C236.969 125.729 239.57 126.26 241.988 127.292C242.057 126.733 242.092 126.171 242.092 125.608V107.632C242.092 72.268 218.376 78.708 218.376 56.312H173.688V67C173.688 78.444 165.916 81.952 165.916 101.972V134.028C165.916 136.089 166.735 138.066 168.192 139.524C169.65 140.981 171.627 141.8 173.688 141.8C175.749 141.8 177.726 140.981 179.184 139.524C180.641 138.066 181.46 136.089 181.46 134.028V137.916C181.46 139.977 182.279 141.954 183.736 143.412C185.194 144.869 187.171 145.688 189.232 145.688C191.293 145.688 193.27 144.869 194.728 143.412C196.185 141.954 197.004 139.977 197.004 137.916V141.8C197.004 143.861 197.823 145.838 199.28 147.296C200.738 148.753 202.715 149.572 204.776 149.572C206.837 149.572 208.814 148.753 210.272 147.296C211.729 145.838 212.548 143.861 212.548 141.8V144.228C212.525 145.263 212.708 146.293 213.088 147.256C213.468 148.219 214.037 149.097 214.76 149.837C215.484 150.578 216.349 151.166 217.303 151.568C218.258 151.969 219.283 152.176 220.318 152.176C221.353 152.176 222.379 151.969 223.333 151.568C224.287 151.166 225.152 150.578 225.876 149.837C226.599 149.097 227.168 148.219 227.548 147.256C227.928 146.293 228.112 145.263 228.088 144.228V131.428L228.084 131.416Z" stroke="#020064" stroke-width="4" stroke-linecap="round" stroke-linejoin="round"/>
<path d="M228.12 108.74L228.104 134.344" stroke="#020064" stroke-width="4" stroke-linecap="round" stroke-linejoin="round"/>
<path d="M197.004 129.496V137.916V129.496Z" fill="#FFCEBF"/>
<path d="M197.004 129.496V137.916" stroke="#020064" stroke-width="4" stroke-linecap="round" stroke-linejoin="round"/>
<path d="M212.548 130.144V141.8V130.144Z" fill="#FFCEBF"/>
<path d="M212.548 130.144V141.8" stroke="#020064" stroke-width="4" stroke-linecap="round" stroke-linejoin="round"/>
<path d="M181.46 129.496V134.028V129.496Z" fill="#FFCEBF"/>
<path d="M181.46 129.496V134.028" stroke="#020064" stroke-width="4" stroke-linecap="round" stroke-linejoin="round"/>
<path d="M164.424 225.592C164.424 227.183 165.056 228.709 166.181 229.835C167.307 230.96 168.833 231.592 170.424 231.592C172.015 231.592 173.541 230.96 174.667 229.835C175.792 228.709 176.424 227.183 176.424 225.592C176.424 224.001 175.792 222.475 174.667 221.349C173.541 220.224 172.015 219.592 170.424 219.592C168.833 219.592 167.307 220.224 166.181 221.349C165.056 222.475 164.424 224.001 164.424 225.592Z" fill="#020064"/>
<path d="M220.424 225.592C220.424 227.183 221.056 228.709 222.181 229.835C223.307 230.96 224.833 231.592 226.424 231.592C228.015 231.592 229.541 230.96 230.667 229.835C231.792 228.709 232.424 227.183 232.424 225.592C232.424 224.001 231.792 222.475 230.667 221.349C229.541 220.224 228.015 219.592 226.424 219.592C224.833 219.592 223.307 220.224 222.181 221.349C221.056 222.475 220.424 224.001 220.424 225.592Z" fill="#020064"/>
<path d="M172.456 249.512C186.8 270.284 210.056 270.284 224.388 249.512H172.456Z" fill="#B0D9FF" stroke="#020064" stroke-width="4" stroke-linecap="round" stroke-linejoin="round"/>
<path d="M228.124 161.324H243.132V132.4C243.121 128.2 241.597 124.145 238.839 120.977C236.081 117.81 232.274 115.742 228.116 115.152V132.304C228.116 132.336 228.116 132.364 228.116 132.4L228.124 161.324Z" fill="#B0D9FF" stroke="#020064" stroke-width="4" stroke-linecap="round" stroke-linejoin="round"/>
</svg>
