<svg width="400" height="400" viewBox="0 0 400 400" fill="none" xmlns="http://www.w3.org/2000/svg">
<g clip-path="url(#clip0_902_9038)">
<path d="M235.432 157.966C234.314 155.694 233.986 153.115 234.5 150.636C234.829 145.887 236.804 141.401 240.086 137.952C236.515 137.716 233.062 136.578 230.05 134.645C227.039 132.712 224.566 130.046 222.864 126.898C222.939 134.737 220.262 142.355 215.3 148.424C219.152 148.429 222.955 149.287 226.436 150.937C229.917 152.587 232.989 154.987 235.432 157.966Z" fill="#FDB849"/>
<path d="M126.748 63.946C106.386 80.12 96.7281 95.48 91.6001 121.312C88.3819 138.261 86.9002 155.494 87.1781 172.744C87.7222 197.065 89.5474 221.341 92.6461 245.47C93.9261 256.292 94.2761 267.23 96.6021 277.82C97.3001 280.844 99.4021 284.568 102.304 283.638C105.33 273.864 103.468 263.506 101.49 253.5C98.6961 238.338 97.2936 222.953 97.3001 207.536C97.3001 188.336 94.9741 177.748 95.5561 162.272C101.84 200.322 105.68 240.002 128.836 270.838C131.636 274.438 135.934 278.402 140.122 276.54C126.74 249.078 116.036 228.482 109.054 191.012C118.828 211.842 122.202 226.736 133.722 242.678C138.61 249.426 143.614 256.292 150.594 260.946C161.194 268.044 174.566 268.976 187.366 269.674C190.865 270.065 194.404 269.868 197.838 269.092C200.265 268.232 202.636 267.222 204.936 266.066C206.752 265.46 208.505 264.681 210.172 263.74C212.083 262.374 213.737 260.681 215.06 258.74C224.718 245.01 227.162 227.322 226.346 210.566C225.53 193.81 221.692 177.286 220.18 160.53C217.968 136.21 220.528 111.774 220.064 87.33C219.946 79.766 219.366 71.97 215.874 65.33C212.382 58.69 205.168 53.344 197.722 54.392C200.282 52.992 199.002 48.69 196.322 47.642C193.642 46.594 190.62 47.642 187.944 48.806C188.758 46.596 185.5 45.206 183.172 45.206C162.762 44.7514 142.822 51.371 126.736 63.942" fill="black"/>
<path d="M222.05 264.554C235.182 262.668 248.547 263.18 261.496 266.066C264.988 266.764 268.594 267.696 271.852 266.3C273.598 265.602 274.994 264.204 276.74 263.39C282.326 260.714 288.842 264.204 295.008 264.67C297.834 264.834 300.66 264.341 303.265 263.231C305.869 262.121 308.181 260.423 310.02 258.27C311.198 256.536 312.607 254.97 314.208 253.616C316.325 252.389 318.745 251.783 321.19 251.87C330.848 251.056 341.67 249.31 347.488 241.63C349.861 238.22 351.45 234.327 352.142 230.23C354.241 221.328 353.426 211.986 349.816 203.582C345.976 195.436 338.18 188.804 329.102 187.756C319.212 190.556 313.976 203.466 303.852 204.978C298.15 205.794 291.868 202.768 286.63 205.212C283.83 206.492 281.86 209.052 279.068 210.212C270.572 213.936 260.566 203.58 252.188 207.304C248.93 208.816 246.718 212.074 243.344 213.354C240.668 214.402 237.642 213.936 234.85 214.052C232.058 214.168 228.798 215.566 227.984 218.358C224.494 231.39 225.424 243.726 223.096 256.99C222.632 259.9 222.632 261.412 222.05 264.554Z" fill="#14D29B"/>
<path d="M157.818 381.732C146.88 362.298 135.818 343.216 124.886 323.782C117.443 311.671 111.057 298.94 105.8 285.732C101.144 272.584 98.236 257.806 100.33 243.842C102.89 227.784 118.13 222.664 130.352 214.286C144.347 204.582 154.385 190.168 158.632 173.676C160.726 165.646 161.542 157.152 165.38 150.054C165.861 148.811 166.768 147.779 167.94 147.144C169.67 146.42 171.583 146.257 173.41 146.678C182.718 149.238 186.094 160.178 186.908 169.952C187.722 179.726 186.908 190.198 193.308 197.412C199.242 204.162 208.908 206.256 216.58 210.562C227.518 216.496 230.078 231.274 231.01 242.678C233.104 266.3 228.914 290.502 230.544 314.124C231.358 330.182 235.198 345.892 238.572 361.484" fill="#C54016"/>
<path d="M173.294 185.428C176.552 187.406 180.74 189.5 184.464 187.406C185.91 186.578 187.176 185.471 188.188 184.148C187.606 179.494 187.49 174.606 187.14 169.836C186.326 160.06 182.952 149.122 173.642 146.562C171.827 146.015 169.871 146.181 168.174 147.028C167.026 147.693 166.127 148.715 165.614 149.938C162.356 156.104 161.308 163.086 159.68 170.068C163.286 176 167.242 181.704 173.294 185.428Z" fill="black"/>
<path d="M204.944 205.21C198.198 211.108 190.534 215.864 182.254 219.29C183.763 221.707 185.16 224.192 186.442 226.736L188.886 225.69C197.323 221.168 204.856 215.135 211.112 207.89C209.016 206.954 207.038 206.14 204.944 205.21ZM171.548 222.082C163.002 223.11 154.358 223.032 145.832 221.85C138.268 221.15 130.704 220.802 123.49 218.59C121.862 219.522 120.348 220.452 118.72 221.5C125.798 224.389 133.235 226.306 140.828 227.2C150.72 228.6 161.428 230.458 171.78 229.876C171.412 227.295 171.334 224.681 171.548 222.082Z" fill="#962727"/>
<path d="M221.468 105.254C217.628 89.654 209.25 70.112 196.566 59.174C175.504 41.488 134.2 65.8 125.586 85.24V85.356C123.601 94.2957 123.962 103.597 126.632 112.356C131.003 127.038 137.512 140.996 145.948 153.782C151.484 161.96 159.07 168.54 167.948 172.864C183.89 180.544 204.836 177.518 216.24 163.556C222.29 156.224 224.502 146.916 224.85 137.49C225.167 126.642 224.03 115.8 221.468 105.254Z" fill="#C54016"/>
<path d="M139.782 141.21C136.872 129.34 134.894 117.01 137.104 104.904C138.966 94.782 144.204 84.426 153.628 79.422C158.109 77.1426 163.034 75.8715 168.058 75.698C171.78 75.466 176.552 76.28 179.578 73.486C181.09 72.086 181.904 69.996 183.418 68.486C184.596 67.2864 185.974 66.3016 187.49 65.576C190.829 64.015 194.535 63.4106 198.196 63.83C199.455 63.9508 200.701 64.1851 201.918 64.53C200.29 62.55 198.544 59.06 196.682 57.43C175.62 39.744 132.916 62.784 124.422 82.216L123.258 84.66C121.315 94.3471 121.714 104.358 124.422 113.86C126.4 121.076 131.636 126.428 134.662 133.294C136.174 136.668 137.57 140.042 139.2 143.416C139.228 142.647 139.427 141.893 139.782 141.21Z" fill="black"/>
<path d="M155.956 123.872C156.826 121.336 158.263 119.033 160.159 117.137C162.055 115.241 164.358 113.804 166.894 112.934C169.453 112.102 172.176 111.9 174.83 112.346C177.484 112.792 179.991 113.872 182.138 115.494C182.138 115.494 179.578 119.682 171.2 122.708C166.301 124.388 161.054 124.788 155.956 123.872ZM194.472 111.538C195.342 109.002 196.779 106.699 198.675 104.803C200.571 102.907 202.874 101.47 205.41 100.6C207.965 99.7345 210.694 99.5154 213.354 99.9621C216.014 100.409 218.522 101.508 220.654 103.16C220.654 103.16 218.094 107.348 209.716 110.374C204.831 112.123 199.566 112.525 194.472 111.538Z" fill="white"/>
<path d="M167.824 112.584C168.696 116.082 169.049 119.689 168.872 123.29C169.663 123.113 170.441 122.883 171.2 122.6C179.694 119.69 182.138 115.386 182.138 115.386C180.125 113.856 177.788 112.807 175.307 112.322C172.825 111.836 170.265 111.926 167.824 112.584ZM205.526 100.6C205.745 101.393 206.017 102.17 206.34 102.926C206.885 104.662 207.199 106.462 207.272 108.28C207.369 109.21 207.408 110.145 207.388 111.08C208.202 110.848 208.9 110.614 209.832 110.382C218.326 107.472 220.77 103.168 220.77 103.168C218.637 101.518 216.129 100.421 213.47 99.9728C210.811 99.5249 208.082 99.7403 205.526 100.6Z" fill="black"/>
<path d="M188.072 105.6C188.662 109.357 190.508 112.803 193.308 115.376C194.978 116.7 196.985 117.533 199.102 117.78C201.219 118.027 203.363 117.68 205.294 116.776C203.796 119.245 201.613 121.226 199.01 122.478C196.408 123.74 193.677 124.715 190.864 125.386C188.429 119.092 187.474 112.322 188.072 105.6ZM153.862 125.384C162.037 118.24 172.697 114.603 183.534 115.262C180.798 112.811 177.536 111.019 174 110.024C171.07 109.573 168.072 110.019 165.4 111.304C162.52 112.601 159.98 114.547 157.978 116.989C155.976 119.432 154.567 122.306 153.862 125.384Z" fill="#962727"/>
<path d="M193.89 112.12C201.519 105.915 211.18 102.764 221 103.276C218.92 101.134 216.251 99.659 213.331 99.0373C210.411 98.4156 207.372 98.6755 204.6 99.784C201.94 100.804 199.572 102.463 197.704 104.614C195.836 106.765 194.526 109.343 193.89 112.12Z" fill="#962727"/>
<path d="M158.864 103.858C161.839 103.14 164.932 103.06 167.94 103.624C170.996 104.08 174.118 103.76 177.018 102.694C177.585 102.5 178.099 102.179 178.523 101.756C178.946 101.332 179.267 100.817 179.46 100.25C179.926 98.272 178.06 96.526 176.202 95.828C172.407 94.5462 168.277 94.6704 164.566 96.178C161.238 97.2793 158.203 99.1174 155.684 101.555C153.166 103.993 151.231 106.968 150.022 110.258C152.356 107.386 155.406 105.178 158.864 103.858ZM210.646 86.752C206.985 85.299 202.907 85.299 199.246 86.752C197.822 87.403 196.554 88.3533 195.53 89.5381C194.506 90.7229 193.75 92.1145 193.312 93.618C193.104 94.1492 193.027 94.7227 193.088 95.2899C193.149 95.857 193.346 96.4011 193.662 96.876C194.824 98.04 196.802 97.342 198.2 96.41C200.967 94.3768 203.929 92.6229 207.042 91.174C208.59 90.5006 210.245 90.1065 211.93 90.01C213.412 89.9656 214.895 90.083 216.352 90.36C215.534 88.498 212.508 87.334 210.646 86.752Z" fill="black"/>
<path d="M209.25 143.538C210.601 144.459 211.749 145.647 212.624 147.028C213.09 147.656 213.379 148.398 213.461 149.175C213.543 149.953 213.415 150.739 213.09 151.45C212.29 152.592 211.082 153.383 209.716 153.66C206.403 154.599 202.866 154.352 199.716 152.962C196.787 151.673 194.197 149.721 192.152 147.26C196.916 144.7 203.548 144.118 209.25 143.538Z" fill="#962727"/>
<path d="M195.054 143.304C197.138 140.241 199.432 137.325 201.918 134.578C202.681 133.572 203.643 132.733 204.744 132.114C205.845 131.494 207.062 131.108 208.318 130.978C209.597 131.064 210.827 131.5 211.874 132.239C212.921 132.979 213.745 133.992 214.254 135.168C214.785 136.041 215.076 137.039 215.096 138.061C215.117 139.083 214.866 140.092 214.37 140.986C213.257 142.363 211.757 143.375 210.064 143.894C207.149 145.098 204.103 145.957 200.988 146.454C198.894 146.804 193.54 147.854 191.678 147.152C193.017 146.074 194.16 144.772 195.054 143.304Z" fill="black"/>
<path d="M205.41 291.434C203.55 275.903 195.646 261.73 183.41 251.986C182.828 252.568 182.828 253.15 182.246 253.848C191.983 263.406 198.145 276.017 199.7 289.572C201.8 290.038 203.316 290.852 205.41 291.434Z" fill="#962727"/>
<path d="M97.774 307.958C101.848 314.124 105.92 320.408 109.992 326.576C112.32 330.176 114.764 333.906 114.88 338.212C114.996 342.052 113.134 345.658 112.902 349.498C112.436 356.48 116.858 362.648 120.93 368.466C127.813 378.392 133.736 388.951 138.618 400C157.12 386.152 182.018 386.386 205.06 384.524C228.102 382.662 252.77 379.404 269.526 363.694C271.852 344.612 250.092 328.786 247.882 309.694C246.482 297.71 252.652 286.422 256.726 275.136C258.47 270.248 259.868 264.778 258.354 259.776C257.254 256.777 255.596 254.013 253.468 251.63C247.821 244.532 241.635 237.88 234.966 231.732C224.966 253.84 212.74 274.902 200.29 295.732C171.89 281.652 139.89 273.04 108.49 268.618C105.464 278.276 101.042 287.47 98.018 297.018C96.61 301.092 97.542 303.652 97.774 307.958Z" fill="#643CFF"/>
<path d="M133.382 359.04C139.782 354.733 146.298 350.661 152.93 346.822C154.829 345.573 156.97 344.74 159.214 344.378C161.25 344.37 163.266 344.766 165.148 345.542L185.4 352.176C186.33 352.524 187.494 353.338 187.028 354.154C186.9 354.351 186.729 354.517 186.527 354.638C186.325 354.759 186.098 354.832 185.864 354.852C182.456 355.78 178.917 356.134 175.392 355.898C176.433 356.03 177.431 356.391 178.317 356.954C179.202 357.517 179.951 358.269 180.512 359.156C182.258 361.368 182.84 364.276 184.352 366.604C183.704 367.058 182.932 367.301 182.141 367.301C181.35 367.301 180.578 367.058 179.93 366.604C179.582 367.652 177.13 368.466 176.09 368.234C175.018 367.898 174.028 367.343 173.182 366.604C169.458 363.578 166.2 363.804 161.662 362.648C162.708 363.462 163.756 364.16 164.92 364.974C166.911 366.271 168.712 367.838 170.272 369.63C170.761 370.203 171.127 370.87 171.348 371.591C171.568 372.311 171.637 373.069 171.552 373.818C167.183 372.178 163.1 369.862 159.45 366.954C154.214 368.116 150.026 372.654 144.788 373.818C142.756 374.253 140.65 374.195 138.646 373.648C136.642 373.101 134.797 372.082 133.268 370.676C131.817 369.357 130.834 367.602 130.468 365.676C130.478 364.43 130.742 363.199 131.243 362.058C131.744 360.917 132.471 359.891 133.382 359.04Z" fill="#C54016"/>
<path d="M96.728 263.4C92.306 261.306 87.65 266.426 86.728 271.314C85.914 276.2 86.844 281.436 84.528 285.742C82.212 290.048 77.428 292.142 73.24 294.47C69.05 296.912 64.746 300.636 64.978 305.524C65.094 307.27 65.792 309.014 65.792 310.76C65.91 314.95 62.07 318.208 58.346 320.302C54.622 322.396 50.432 324.026 48.222 327.632C44.732 333.334 48.106 340.898 52.76 345.668C62.884 355.908 78.36 359.166 88.832 369.058C92.324 372.316 95.348 376.504 99.886 378.134C106.054 380.334 113.268 377.202 119.436 379.534C122.346 380.975 125.113 382.689 127.698 384.654C130.498 386.4 133.982 387.454 136.898 385.934C150.396 378.72 152.84 360.916 152.258 345.672C143.996 339.156 132.476 335.2 122.12 336.472C120.84 336.588 119.32 336.822 118.396 336.006C116.996 334.842 117.466 332.632 117.232 330.77C116.967 329.386 116.328 328.102 115.385 327.056C114.441 326.009 113.229 325.242 111.88 324.836C109.198 324.061 106.405 323.746 103.618 323.904C102.688 318.204 113.974 316.574 113.392 310.872C113.276 309.708 112.694 308.546 113.16 307.498C113.51 306.566 114.672 306.098 115.604 305.752C130.604 299.702 137.004 289.228 134.92 273.288C120.582 266.532 111.97 258.386 96.728 263.4Z" fill="#14D29B"/>
<path d="M130.822 129.8C126.866 129.8 122.792 132.244 122.094 136.084C121.896 137.612 122.055 139.166 122.56 140.622C124.644 145.69 128.545 149.798 133.498 152.142C136.607 154.145 140.282 155.084 143.97 154.818C147.57 154.236 151.068 151.094 150.72 147.372C150.508 145.832 149.95 144.36 149.09 143.066C145.484 137.254 138.384 129.922 130.822 129.8Z" fill="#C54016"/>
<path d="M127.8 137.37C128.92 137.843 130.008 138.388 131.058 139C132.659 139.793 134.053 140.948 135.13 142.374C136.013 143.797 136.344 145.494 136.062 147.144C135.946 148.076 135.828 148.89 135.712 149.82C138.844 147.975 142.336 146.824 145.952 146.446C140.944 141.676 134.778 137.836 127.8 137.37Z" fill="#962727"/>
<path d="M223.446 246.168C222.864 234.416 221.934 223.13 220.42 211.492C219.34 210.352 217.904 209.613 216.348 209.398C216.872 222.99 216.404 236.602 214.948 250.126C210.472 253.033 206.3 256.383 202.496 260.126C198.75 263.756 196.16 268.411 195.05 273.508C183.562 264.725 169.69 259.615 155.25 258.846C148.036 241.276 140.356 224.52 131.85 207.414C130.718 209.149 129.347 210.716 127.778 212.068C137.663 229.638 145.554 248.257 151.302 267.58C154.102 277.122 159.912 285.266 168.872 289.456C175.61 292.781 183.182 294.034 190.632 293.056C194.339 292.518 197.884 291.178 201.02 289.128C204.155 287.078 206.805 284.368 208.784 281.188C210.878 277.464 211.926 273.276 213.904 269.436C215.766 265.596 218.558 262.22 220.77 258.498C222.879 254.75 223.812 250.453 223.446 246.168Z" fill="#FFD340"/>
<path d="M235.548 380.334C231.01 372.072 221.584 338.676 221.7 329.368C221.7 323.2 223.794 317.15 223.912 310.866C224.028 299.466 217.396 288.292 219.606 277.122C221.584 267.464 229.606 260.366 234.616 251.87C239.504 243.608 246.016 232.088 240.9 223.944C236.765 217.466 230.383 212.742 222.98 210.678C224.958 224.176 217.278 236.976 209.832 248.496C202.5 260.016 194.472 273.398 196.566 286.896C189.472 276.694 179.138 269.189 167.242 265.6C155.258 262 142.342 262.69 130.006 260.828C117.672 258.85 104.524 253.264 99.288 241.862C91.9743 250.214 85.431 259.211 79.738 268.742C85.324 276.886 97.426 279.796 107.2 279.098C116.974 278.4 127.68 276.886 135.942 282.24C141.294 285.614 144.784 291.44 150.37 294.458C156.538 297.948 164.218 297.366 171.082 298.996C182.602 301.796 191.912 310.864 197.614 321.338C203.316 331.812 212.614 372.072 214.718 383.708C221.717 382.96 228.671 381.833 235.548 380.334Z" fill="#9778FF"/>
<path d="M183.068 222.43C182.611 223.854 181.753 225.116 180.597 226.065C179.442 227.015 178.038 227.611 176.552 227.784C175.059 227.913 173.559 227.621 172.222 226.943C170.886 226.264 169.766 225.226 168.988 223.944C168.252 222.64 167.885 221.161 167.926 219.665C167.967 218.168 168.414 216.711 169.22 215.45C170.065 214.222 171.222 213.24 172.571 212.608C173.921 211.975 175.415 211.713 176.9 211.85C178.035 211.928 179.12 212.348 180.012 213.054C180.905 213.76 181.563 214.719 181.9 215.806C181.195 215.575 180.452 215.487 179.713 215.547C178.974 215.607 178.254 215.814 177.596 216.156C176.951 216.501 176.389 216.981 175.947 217.563C175.505 218.145 175.195 218.816 175.036 219.53C174.876 220.19 174.867 220.878 175.008 221.542C175.148 222.207 175.436 222.831 175.85 223.37C176.288 223.912 176.869 224.319 177.528 224.546C178.187 224.772 178.896 224.808 179.574 224.65C180.038 224.534 180.388 224.3 180.854 224.184C181.904 223.71 182.138 223.13 183.068 222.43Z" fill="#FDB849"/>
<path d="M150.6 35.67C150.964 34.6394 151.276 33.5906 151.532 32.528C152.561 30.6458 153.13 28.5463 153.19 26.4019C153.251 24.2574 152.802 22.1292 151.88 20.192C151.501 18.1524 150.794 16.1876 149.786 14.374C149.018 12.7887 147.951 11.3666 146.644 10.186C145.3 9.10318 143.754 8.29809 142.096 7.81744C140.438 7.33679 138.701 7.19014 136.986 7.386L134.892 7.734C134.294 6.08264 133.196 4.65909 131.75 3.662C130.019 2.52281 127.956 1.99552 125.89 2.16404C123.824 2.33257 121.874 3.18723 120.35 4.592C119.263 2.65235 117.502 1.17857 115.401 0.449562C113.3 -0.279447 111.005 -0.213117 108.95 0.636001C106.911 1.5759 105.109 2.96284 103.679 4.69396C102.249 6.42507 101.226 8.45596 100.688 10.636C99.6426 14.9746 99.2889 19.4511 99.6401 23.9C98.6264 23.3399 97.4905 23.0377 96.3326 23.0203C95.1746 23.0029 94.0301 23.2706 93.0001 23.8C91.1381 25.08 91.1381 28.8 93.4661 29.152C88.3461 32.178 83.1081 35.32 80.3161 40.552C77.5161 45.672 78.4541 53.468 83.8061 55.912C84.1561 56.028 84.3881 56.144 84.7381 56.262C80.5481 65.57 84.0401 76.862 92.4181 76.508C94.5756 76.4029 96.6652 75.7198 98.4681 74.53C99.8564 75.9376 101.532 77.0297 103.38 77.732C105.228 78.4343 107.205 78.7303 109.178 78.6C113.443 78.2131 117.572 76.9028 121.28 74.76C132.68 68.942 141.062 60.1 150.602 51.838C153.402 49.51 158.864 46.136 158.982 41.946C158.998 40.9244 158.772 39.9136 158.321 38.9964C157.871 38.0793 157.21 37.2818 156.392 36.6695C155.574 36.0571 154.623 35.6472 153.616 35.4735C152.609 35.2998 151.576 35.3671 150.6 35.67ZM87.0701 65.8C86.4547 62.679 86.534 59.4609 87.3021 56.374C90.634 56.1541 93.8837 55.2428 96.8441 53.698C95.7129 54.2487 94.7619 55.1101 94.1024 56.1815C93.4429 57.2529 93.1022 58.49 93.1201 59.748C93.2023 60.2679 93.4013 60.7623 93.7021 61.1943C94.0029 61.6262 94.3976 61.9844 94.8566 62.2419C95.3156 62.4994 95.827 62.6496 96.3524 62.6811C96.8778 62.7127 97.4035 62.6247 97.8901 62.424C96.9461 63.507 96.2912 64.811 95.9863 66.2149C95.6814 67.6188 95.7364 69.077 96.1461 70.454C92.2001 71.626 88.2321 71.044 87.0701 65.8ZM135.47 10.178C137.795 10.285 140.049 11.0107 142 12.28L143.4 13.68C140.522 12.9528 137.481 13.2411 134.79 14.496C135.374 13.1389 135.61 11.6574 135.476 10.186L135.47 10.178ZM192.494 281.66L176.2 310.284L195.634 317.5L195.982 315.056C196.448 311.914 200.636 285.034 200.636 285.034L192.494 281.66ZM192.26 312.03C189.118 310.866 185.86 309.702 182.26 308.306C182.724 307.492 185.06 303.306 185.284 302.954C185.866 303.07 192.034 304.816 193.43 305.048C193.076 307.492 192.61 309.82 192.26 312.03Z" fill="black"/>
<path d="M253.932 232.088L245.09 227.088C244.158 189.736 247.068 152.15 250.908 113.634C269.758 106.884 288.492 100.368 307.108 97.576C310.159 99.0538 313.113 100.724 315.952 102.576C317.93 134.342 309.668 177.63 304.432 211.258" fill="#D70A32"/>
<path d="M313.278 216.264C295.118 226.388 274.722 231.827 253.932 232.088C253.002 194.736 255.91 157.152 259.75 118.636C278.602 111.886 297.336 105.37 315.95 102.578C319.324 139.348 319.44 177.05 313.274 216.264" fill="#FDB849"/>
<path d="M328.288 227.784C320.26 228.016 311.184 225.34 306.762 220.57C302.922 216.496 297.918 210.794 297.686 203.812C287.595 208.323 276.888 211.303 265.918 212.656C266.131 211.342 266.653 210.097 267.442 209.025C268.232 207.953 269.265 207.084 270.456 206.49C266.438 206.586 262.431 206.036 258.588 204.86C258.097 204.773 257.647 204.528 257.308 204.162C256.61 203.114 257.89 201.952 259.052 201.486L281.052 190.314C286.052 187.754 291.408 184.148 296.992 184.496C290.826 181.936 284.426 179.26 277.676 179.376C275.65 179.455 273.63 179.649 271.626 179.958C265.756 180.447 259.848 179.694 254.288 177.748C253.706 177.514 253.008 177.282 252.776 176.7C251.96 175.3 253.822 173.792 255.452 173.326C264.047 170.513 272.836 168.335 281.75 166.81C283.776 166.38 285.845 166.185 287.916 166.228C293.618 166.46 299.552 169.718 304.208 172.976C296.876 164.598 289.662 156.22 282.332 147.842C280.236 145.398 278.026 142.374 278.956 139.348C297.11 144.818 312.356 158.898 324.106 173.21C330.214 180.684 335.555 188.753 340.048 197.296C343.648 204.394 349.124 213.354 343.77 220.696C340.274 225.69 334.222 227.55 328.288 227.784Z" fill="#C54016"/>
<path d="M266.268 127.13C265.617 128.118 265.223 129.252 265.121 130.431C265.019 131.61 265.214 132.795 265.686 133.88C266.201 134.787 267.027 135.475 268.012 135.817C268.997 136.16 270.072 136.132 271.038 135.74C271.681 135.478 272.304 135.167 272.9 134.81C274.557 133.743 275.855 132.202 276.624 130.388C277.043 129.582 277.271 128.691 277.291 127.783C277.311 126.876 277.123 125.975 276.74 125.152C274.646 121.544 268.944 122.6 266.268 127.13Z" fill="white"/>
<path d="M268.944 128.41C268.655 128.855 268.482 129.365 268.442 129.893C268.401 130.422 268.493 130.952 268.71 131.436C268.95 131.845 269.33 132.152 269.779 132.302C270.229 132.452 270.717 132.433 271.154 132.25C271.45 132.14 271.725 131.983 271.97 131.784C272.725 131.301 273.329 130.616 273.714 129.806C273.888 129.443 273.978 129.046 273.978 128.643C273.978 128.24 273.888 127.843 273.714 127.48C272.784 125.85 270.108 126.432 268.944 128.41Z" fill="black"/>
<path d="M265.336 141.676C264.685 142.664 264.291 143.798 264.19 144.976C264.088 146.155 264.282 147.34 264.754 148.424C265.269 149.331 266.096 150.02 267.081 150.363C268.066 150.705 269.142 150.678 270.108 150.286C270.751 150.023 271.373 149.712 271.97 149.356C273.626 148.289 274.923 146.748 275.692 144.934C276.112 144.129 276.341 143.238 276.361 142.33C276.382 141.422 276.193 140.521 275.81 139.698C273.6 136.09 267.896 137.138 265.336 141.676ZM266.85 155.872C266.517 156.361 266.31 156.926 266.249 157.515C266.188 158.104 266.274 158.699 266.5 159.246C266.753 159.703 267.167 160.051 267.66 160.222C268.154 160.394 268.694 160.377 269.176 160.176C269.508 160.069 269.822 159.912 270.108 159.712C270.937 159.179 271.585 158.408 271.968 157.5C272.17 157.104 272.275 156.665 272.275 156.22C272.275 155.775 272.17 155.336 271.968 154.94C270.922 153.078 268.13 153.66 266.85 155.872Z" fill="white"/>
<path d="M267.896 142.956C267.607 143.4 267.434 143.91 267.394 144.438C267.353 144.967 267.446 145.497 267.664 145.98C267.903 146.389 268.283 146.697 268.733 146.847C269.182 146.997 269.671 146.979 270.108 146.796C270.402 146.684 270.677 146.527 270.922 146.33C271.677 145.846 272.281 145.161 272.668 144.352C272.841 143.988 272.931 143.591 272.931 143.188C272.931 142.785 272.841 142.388 272.668 142.024C271.736 140.4 269.176 140.86 267.896 142.956Z" fill="black"/>
<path d="M153.046 177.514C151.928 175.243 151.601 172.663 152.116 170.184C152.445 165.435 154.421 160.949 157.702 157.5C154.131 157.264 150.678 156.126 147.666 154.193C144.654 152.26 142.182 149.594 140.48 146.446C140.554 154.286 137.878 161.904 132.916 167.974C136.772 167.953 140.583 168.799 144.068 170.45C147.553 172.102 150.621 174.516 153.046 177.514Z" fill="#FDB849"/>
<path d="M173.642 207.304V213.238H177.716V206.722C183.83 205.524 189.573 202.892 194.472 199.042C193.54 199.042 194.82 199.042 194.472 198.228C192.958 195.086 191.672 191.362 190.282 188.104C184.898 192.6 178.09 195.034 171.077 194.97C164.063 194.906 157.3 192.348 152 187.754C150.138 191.014 147.694 194.852 145.832 197.994C152.479 203.863 160.94 207.273 169.8 207.652C171.068 207.426 172.354 207.31 173.642 207.304ZM208.9 314.59C207.736 310.866 206.574 307.026 205.41 303.302L205.294 302.838C203.82 297.225 201.712 291.798 199.01 286.662H199.126C197.264 278.518 199.358 269.092 205.294 258.862C207.736 254.674 210.53 250.6 213.206 246.644C216.381 242.258 219.333 237.714 222.05 233.03L218.45 231.052C215.89 235.59 212.864 240.012 209.84 244.318C207.04 248.274 204.138 252.462 201.694 256.768C196.806 265.263 194.363 273.175 194.364 280.506C179.702 264.448 158.872 262.004 138.742 259.676C135.6 259.328 132.226 258.978 129.084 258.514C124.894 257.932 119.658 257.234 116.168 254.314L113.492 257.456C117.914 261.18 123.732 261.994 128.502 262.576C131.76 263.042 135.018 263.39 138.276 263.74C158.174 266.066 178.77 268.394 192.502 284.452C197.04 289.922 199.25 297.02 201.344 303.884L201.462 304.35C202.624 308.19 203.788 311.914 204.952 315.75C206.352 320.054 207.628 324.35 208.908 328.666C214.378 346.586 219.382 364.97 223.92 383.24L227.876 382.192C223.338 363.924 218.334 345.538 212.864 327.502C211.576 323.2 210.18 318.778 208.9 314.59ZM239.97 84.426L236.712 86.868C242.646 94.782 245.554 98.268 252.072 105.836L255.212 103.16C248.696 95.712 245.788 92.222 239.97 84.426ZM232.18 102.762L234.468 99.392L246.022 107.232L243.736 110.602L232.18 102.762ZM225.678 115.52L226.392 111.51L246.326 115.062L245.612 119.07L225.678 115.52Z" fill="black"/>
</g>
<defs>
<clipPath id="clip0_902_9038">
<rect width="400" height="400" fill="white"/>
</clipPath>
</defs>
</svg>
