<svg width="400" height="400" viewBox="0 0 400 400" fill="none" xmlns="http://www.w3.org/2000/svg">
<path d="M172.28 388.96H341.12C342.56 388.96 343.98 385.56 342.4 385.56H173.56C172.12 385.56 170.7 388.96 172.28 388.96Z" fill="#0D128A"/>
<path d="M308 269.8C297.648 275.85 286.5 280.42 274.88 283.38C252.3 288.78 227.98 284.54 211.36 267.82C210.68 269.92 210.06 272.04 209.48 274.18C233.48 294.04 268.52 299.44 309.48 277.64C309 275.02 308.5 272.4 308 269.8Z" fill="#FFDE26"/>
<path d="M32.5398 105.52C33.9798 109.52 37.6798 109.74 41.4798 108.82C40.1142 105.037 39.0248 101.161 38.2198 97.2202C34.3398 98.4202 30.8798 100.9 32.5398 105.52Z" fill="#FF3E74"/>
<path d="M63.1798 119.36C54.9398 105.86 49.9998 88.5404 51.2998 72.7004C51.7198 67.5404 53.6598 60.0404 57.8598 56.4404C52.9198 56.9404 46.9998 57.5204 43.9598 61.3604C35.7198 71.7204 39.9598 96.8204 45.5998 110.58C49.4198 119.88 57.3598 133.48 66.8798 136.86C71.8198 138.64 76.6398 136.22 81.2398 133.48C73.8398 134.44 66.5198 124.84 63.1798 119.36Z" fill="white"/>
<path d="M95.24 114.8C84.36 96.2802 77.88 72.6602 79.78 51.0002C80.48 43.3002 83.78 32.0202 90.56 28.1602C89.3 28.1602 88.02 28.3602 86.8 28.5202C80.22 29.3002 72.8 30.1402 68.5 35.8202C55.96 52.7002 62.28 98.3402 82.5 125.82C87.16 132.2 93.08 138.6 100.5 141.02C107.32 143.24 113.94 139.72 119.76 136.36C120.818 135.763 121.833 135.095 122.8 134.36C111.58 138.84 100 122.92 95.24 114.8Z" fill="white"/>
<path d="M382.18 89.8204C381.68 86.4204 379 84.5004 375.94 83.4004C375.084 87.0728 373.996 90.6868 372.68 94.2204C377.68 95.7004 383.12 96.0004 382.18 89.8204Z" fill="#FF3E74"/>
<path d="M374 80.9804C376 70.6204 376.98 52.5404 368.94 45.8804C365.886 43.8012 362.328 42.585 358.64 42.3604C363.16 46.9404 363.88 57.0204 363.7 62.4604C363.1 78.5822 357.858 94.1876 348.6 107.4C345.5 111.7 339.4 118.16 333.54 118.8C334.68 119.48 335.88 120.06 336.94 120.6C341.32 122.8 345.14 123.98 349.78 121.72C358.78 117.34 365.98 104.52 369.78 95.2804C371.618 90.652 373.032 85.8654 374 80.9804Z" fill="white"/>
<path d="M343.32 18.3401C340.912 16.7155 338.184 15.6245 335.32 15.1401C332.608 14.4997 329.864 13.999 327.1 13.6401C334.96 18.9801 336.06 35.1002 335.78 43.0602C335.006 65.0994 327.904 86.4498 315.32 104.56C310.72 110.94 301.32 120.56 292.86 119.72C294.932 121.071 297.098 122.274 299.34 123.32C305.58 126.44 311.12 128.14 317.7 124.84C325.32 121.02 331.16 113.8 335.7 106.64C356.38 74.0002 358 29.6602 343.32 18.3401Z" fill="white"/>
<path d="M59.6799 58.3002C53.9999 61.0402 53.6399 73.3802 53.9999 78.6002C54.6705 92.5854 58.9491 106.159 66.4199 118C68.8999 121.8 75.4199 130.12 81.2199 130.2C65.9999 110.26 58.2599 80.3002 59.6799 58.3002Z" fill="#FFDE26"/>
<path d="M127.14 73.0002C107.64 80.2402 108.44 82.3202 104.58 81.7202C105.528 84.0016 106.673 86.1964 108 88.2802C108.8 89.4802 106.58 92.4202 105.7 91.0802C100.286 82.6474 97.7199 72.6998 98.3801 62.7002C98.4801 61.3202 101.2 59.0802 101.06 61.2202C100.796 65.1302 101.051 69.0578 101.82 72.9002C102.984 71.5936 104.407 70.5446 106 69.8202C111.594 66.9778 117.351 64.4668 123.24 62.3002C118.82 51.6002 109.68 34.9002 98.5401 30.9402C83.2401 25.4602 82.0001 50.0002 82.2401 59.1802C82.9687 79.2934 89.1039 98.8386 100 115.76C104.66 122.78 118 138.48 126.78 128.68C131.78 123.14 132.54 113.88 132.6 106.5C132.502 95.1202 130.661 83.8224 127.14 73.0002Z" fill="#FFDE26"/>
<path d="M361.08 60.2404C360.92 55.4004 359.46 47.8804 355.6 44.8204C356 69.7004 346.12 98.0004 332.2 115.26C339.66 117.58 347.46 105.66 350.36 100.66C357.504 88.3968 361.208 74.4328 361.08 60.2404Z" fill="#FFDE26"/>
<path d="M332.96 38.1004C332.64 31.6004 331.58 23.8604 327.08 18.8003C323.38 14.6403 318.06 14.6203 313.4 17.1403C301.62 23.6004 292.74 42.0004 288.34 54.8004C292.88 56.1604 297.76 57.7804 301.58 59.1604C304.3 60.1404 308.78 60.9804 311.08 63.3404C311.812 60.0588 312.148 56.7016 312.08 53.3404C312.08 51.9204 314.72 49.6804 314.76 51.8604C314.618 63.0188 311.294 73.905 305.18 83.2404C303.96 85.2404 302.02 84.0604 303.18 82.1204C304.958 79.3014 306.51 76.3454 307.82 73.2804C304.6 74.0804 300.86 71.6204 297.96 70.5604C293.96 69.0804 289.3 67.5404 284.92 66.2204C282.63 75.1582 281.646 84.3806 282 93.6004C282.36 100.9 283.68 110.1 289.58 114.46C300.92 122.82 313.58 103.8 318.1 95.9604C328 78.7604 334 57.6604 332.96 38.1004Z" fill="#FFDE26"/>
<path d="M301.5 68C304.88 69.26 310.54 72.2 309.72 67.5C309.36 65.5 305.62 64.62 304.06 64.02C248 42.36 184.64 43.38 127.42 64C123.68 65.34 114.86 68.74 109.22 71.34C107.372 71.9974 105.618 72.8914 104 74C101.22 76.48 105.76 79.16 108 78.16C129.06 67.06 163.8 57.78 187.4 55C227.04 50.56 263.36 53.64 301.5 68Z" fill="#FF3E74"/>
<path d="M250.56 336.92L238.72 330.14C239.12 343.474 239.506 356.766 239.88 370.02C239.88 370.84 239 372.76 237.88 372.46C229.04 370.12 218.36 368.28 209.4 370.74C205.08 371.92 198.58 377.5 203.4 381.98C206.34 384.68 211.18 385.14 214.96 385.58C223.732 386.574 232.578 386.728 241.38 386.04C258.04 384.84 254.24 382.66 253.62 377.7C252.16 365.44 251.02 349.72 250.56 336.92Z" fill="#FF3E74"/>
<path d="M315.58 378.92C313.22 366.46 291.06 369.18 278.72 372.44C278.588 372.474 278.448 372.474 278.316 372.442C278.182 372.41 278.06 372.346 277.956 372.256C277.854 372.164 277.776 372.05 277.728 371.922C277.678 371.794 277.662 371.656 277.68 371.52L278.88 330.3L266.88 337.14C266.32 351.56 265.08 366.26 263.8 376.64C263.316 378.316 263.1 380.058 263.16 381.8C263.5 383 264.94 383.62 266 384.06C270.46 385.516 275.128 386.232 279.82 386.18C288.266 386.714 296.744 386.446 305.14 385.38C308.78 384.86 316.54 384 315.58 378.92Z" fill="#FF3E74"/>
<path d="M221.64 271.7C248.14 289.96 281.16 281.7 307.32 267.06C305.8 260.78 305.18 259.3 303.32 251.22C301.578 251.414 299.866 251.816 298.22 252.42C296.8 252.94 297.3 250.62 298.22 249.54L296.6 242.86C294.372 248.016 291.138 252.674 287.084 256.562C283.032 260.45 278.244 263.488 273 265.5C256.42 271.66 232.62 268.5 227 249.12C225.58 244.24 225.94 239.4 225.42 234.44C220.334 243.92 216.046 253.808 212.6 264C215.344 266.868 218.374 269.448 221.64 271.7Z" fill="white"/>
<path d="M208.46 278.12C206.66 285.92 205.46 294.3 207.08 302.12C207.68 305.294 208.924 308.31 210.738 310.984C212.55 313.656 214.894 315.928 217.62 317.66C232.92 327.98 259.62 329.66 277.92 327C286.92 325.64 296.72 323.3 303.92 317.58C314.38 309.22 311.92 292.22 309.92 280.42C299.822 285.978 289.016 290.142 277.8 292.8C253.7 298.24 228 293.7 208.46 278.12Z" fill="white"/>
<path d="M202.9 76.0002C203.76 77.2202 207.2 82.0002 208.7 80.9602C209.24 80.5602 209.38 77.9002 209.48 77.3002C210.04 73.7002 210.36 69.3002 210.54 65.7202C210.54 60.6602 206.1 57.2802 202.1 60.9802C199.009 64.0842 196.321 67.565 194.1 71.3402C192.68 73.5602 189.66 77.7402 192.46 78.2802C195.26 78.8202 199.38 77.2402 201.84 75.8602C202.006 75.7568 202.202 75.7142 202.396 75.7398C202.588 75.7654 202.766 75.8574 202.9 76.0002ZM204.24 67.5402C204.24 66.1002 205.64 64.6402 206.56 65.2602C206.676 65.3544 206.768 65.4736 206.83 65.6088C206.892 65.7438 206.924 65.8914 206.92 66.0402V71.3202C206.91 71.781 206.786 72.232 206.554 72.6308C206.324 73.0296 205.994 73.3632 205.6 73.6002C204.92 73.9402 204.24 73.6002 204.24 72.8202V67.5402Z" fill="#FF3E74"/>
<path d="M210.4 228.74C200.184 228.196 189.985 230.11 180.66 234.32C171.32 238.92 166.5 244.46 166.22 255.48C165.92 267.36 170.52 280 176.38 290.22C176.55 290.612 176.605 291.044 176.537 291.466C176.47 291.888 176.284 292.282 176 292.6C175 293.86 165 306.82 166.14 307.98C167.28 309.14 173.86 305.7 175.12 305.12C177.12 304.14 179.12 303.12 181.12 301.98C182.62 301.14 182.56 303.22 182.12 303.98C180.94 306.14 175.36 316.6 179.38 317.52C182.9 318.34 186.64 312.82 188.28 310.48C189.664 308.498 190.908 306.418 192 304.26C192.42 303.42 194.38 302.4 194.3 304.08C194.085 306.952 194.315 309.84 194.98 312.64C195.28 313.78 196.08 316.5 197.72 316.32C198.82 316.32 199.72 314.54 200.2 313.74C202.072 310.718 203.486 307.436 204.4 304C203.29 297.332 203.434 290.516 204.82 283.9C204.152 282.16 203.184 280.548 201.96 279.14C199.933 276.13 198.438 272.796 197.54 269.28C194.96 258.12 203.16 247.14 216.6 247.74C218.48 243.46 220.48 239.234 222.6 235.06C223.2 233.9 223.76 232.34 224.6 231.06C224.46 230.724 224.3 230.396 224.12 230.08C219.588 229.276 215.002 228.828 210.4 228.74Z" fill="#6CECC4"/>
<path d="M344.88 293.04C343.8 291.68 346.7 290.16 351.28 277.16C360.24 251.78 352.84 239.6 336.56 233C325.314 228.788 313.192 227.462 301.3 229.14C300.252 233.87 298.69 238.47 296.64 242.86L298.26 249.54C298.426 249.34 298.64 249.182 298.88 249.08C301.026 248.29 303.278 247.826 305.56 247.7C319.04 247 328.3 257.94 322.3 272.3C321.042 275.236 319.444 278.014 317.54 280.58C315.78 282.96 315.54 285.6 315.54 289.38C315.28 297.38 317.1 308.12 322.4 314.58C322.96 315.26 323.88 316.58 324.9 316.28C325.92 315.98 326.44 313.38 326.62 312.38C326.962 310.124 327.076 307.84 326.96 305.56C326.96 304.82 328.7 301.96 329.44 303.42C330.59 305.65 331.886 307.802 333.32 309.86C335.32 312.7 338.14 316.8 341.78 317.52C343.62 317.9 343.46 317.52 343.18 315.68C342.288 311.916 340.888 308.288 339.02 304.9C338.46 303.9 339.7 301.12 341.02 301.9C343.9 303.5 351.52 307.44 354.74 307.9C353.52 304.34 347.34 296.12 344.88 293.04Z" fill="#6CECC4"/>
<path d="M299.38 228C300.934 218.928 301.47 209.712 300.98 200.52C297.002 201.414 292.84 200.97 289.14 199.26C281.38 195.02 279.8 183.44 279 175.6C278.34 169.294 278.26 162.941 278.76 156.62C278.86 155.4 281.02 153.5 281.38 154.62C281.004 161.032 281.098 167.462 281.66 173.86C283.06 188.16 286.6 199.38 300.84 197.36C309 196.18 315.24 191.36 317.6 185.8C318.82 183.04 317.98 180.54 317.06 177.8C315.564 173.423 313.656 169.197 311.36 165.18C306.64 156.82 299.64 146.9 290 147.18C288.48 147.18 289.74 143.82 291.38 143.78C289.298 141.871 286.912 140.323 284.32 139.2C271.994 133.054 258.486 129.643 244.72 129.2C235.5 129.2 223.24 130.64 217.14 138.44C219.232 137.525 221.496 137.068 223.78 137.1C225.4 137.1 223.96 140.56 222.5 140.5C219.804 140.513 217.16 141.245 214.84 142.62C212.38 149.22 213.36 157.64 206.26 163.82C203.446 166.153 200.028 167.639 196.402 168.106C192.777 168.573 189.094 168.003 185.78 166.46C177.78 162.92 173.78 154.64 173.52 146.16C173.444 141.661 174.449 137.21 176.45 133.18C178.451 129.15 181.39 125.659 185.02 123C192.54 117 201.6 113.36 208.76 106.86C213.052 103.194 216.136 98.3154 217.606 92.8654C219.076 87.4154 218.864 81.6482 217 76.3202C215.958 73.3522 214.618 70.4974 213 67.8002C212.82 70.4802 212.58 73.1402 212.2 75.8002C211.82 78.4602 211.56 81.8002 209.56 83.6802C206.5 86.4602 202.82 81.9002 200.98 79.3002C198.761 80.3452 196.414 81.0916 194 81.5202C196.26 87.0002 203.14 95.1002 185.5 100.16C177.035 102.539 169.256 106.891 162.8 112.86C142.54 131.62 141.12 162.48 153.86 185.26C163.86 203.26 182.64 214.48 202.62 218.16C211.84 219.86 225.32 218.86 227.8 230.66C228.23 233.976 228.45 237.316 228.46 240.66C230 258.26 243 265.62 260.3 264.84C279.54 264 294.66 252.28 299.38 228ZM243.38 145.7C248.94 147.7 256.52 145.88 261.88 143.46C263.88 142.56 263.22 145.94 261.88 146.54C260.96 146.94 260.02 147.34 259.04 147.7C260.65 149.179 261.866 151.035 262.58 153.1C263.66 157.44 262.82 163.28 258.22 165.32C251.36 168.36 244.22 157.98 248.4 149.92C246.052 150.004 243.708 149.665 241.48 148.92C240.22 148.34 242 145.08 243.44 145.6L243.38 145.7ZM220.28 156.34C225.24 154 229.5 158.72 230.96 163C232.06 167.34 231.2 173.16 226.6 175.2C222 177.24 217.32 172.84 216.04 168.5C214.76 164.16 216 158.32 220.34 156.24L220.28 156.34ZM216.28 206.14C216.182 206.032 216.106 205.906 216.058 205.768C216.01 205.632 215.99 205.486 216 205.34C215.106 202.482 215.346 199.39 216.666 196.703C217.988 194.015 220.29 191.938 223.1 190.9C227.54 189.5 232.2 191.56 236.7 190.68C240.9 189.88 244.26 185.64 247.4 183.06C252.34 179.06 257.66 175.94 263.86 179.44C273.96 185.12 273.96 198.78 266.86 206.78C257.26 216.78 241.8 219.9 228.6 216.28C225.918 215.598 223.424 214.318 221.306 212.538C219.186 210.758 217.496 208.524 216.36 206L216.28 206.14Z" fill="#6CECC4"/>
<path d="M376.68 79.8802C378.68 69.5602 379.54 54.0202 373.4 45.4202C370.06 40.7202 364.42 39.7402 359.04 38.9602C357.794 38.7634 356.54 38.63 355.28 38.5602C354.932 31.641 352.766 24.9358 349 19.1202C344.36 12.6802 336.64 11.4002 329.24 10.3802C316.68 8.66019 307.46 16.5802 300.02 26.7802C294.062 35.169 289.384 44.3964 286.14 54.1602C233.46 39.0202 178.14 42.7402 126.34 61.2002C120.68 47.0602 107.5 24.3602 92.3398 24.7802C87.8208 24.9624 83.3314 25.599 78.9398 26.6802C75.746 27.2682 72.749 28.643 70.2198 30.6802C63.8598 36.0802 61.2998 45.0602 60.2198 53.0402C55.1798 53.1802 48.8398 54.0202 44.9198 57.1402C35.7398 64.4802 35.7798 82.8602 37.6798 94.4002C33.0798 96.1802 29.2998 99.6602 29.4798 105.18C29.4642 106.794 29.9668 108.37 30.9136 109.677C31.8604 110.984 33.2016 111.952 34.7398 112.44C37.3584 113.015 40.089 112.792 42.5798 111.8C46.5798 121.68 54.4398 135.8 64.5798 139.96C69.7998 142.08 74.2598 140.36 79.0398 137.96C81.054 137.009 82.9474 135.82 84.6798 134.42C87.9886 138.307 92.0768 141.455 96.6798 143.66C103.84 146.86 110.04 144.62 116.68 141.28C128.82 135.28 133.7 124.34 134.9 111.28C135.754 97.9952 134.092 84.6682 130 72.0002C179.38 54.3002 232.98 51.3402 282.66 65.6602C280.352 74.4064 279.19 83.4148 279.2 92.4602C279.42 109.6 286.02 119.72 291.54 123.34C297.54 127.24 305.1 131.54 312.46 129.88C318.7 128.48 324.08 124.24 328.46 119.54C329.06 120.175 329.73 120.739 330.46 121.22C334.74 124.16 340.46 127.36 345.72 126.32C356.82 124.16 366.66 108.46 371.18 97.9202C373.294 98.6958 375.566 98.9498 377.8 98.6602C379.456 98.3166 380.98 97.5074 382.19 96.3276C383.402 95.1478 384.252 93.6464 384.64 92.0002C386.32 85.5402 382 81.6602 376.68 79.8802ZM372.68 94.2202C374.016 90.688 375.124 87.074 376 83.4002C379.06 84.5002 381.74 86.4202 382.24 89.8202C383.12 96.0002 377.68 95.7002 372.68 94.2202ZM369.02 97.0402C365.26 105.78 358.4 117.56 349.82 121.72C345.18 123.98 341.36 122.8 336.98 120.6C335.92 120.06 334.72 119.48 333.58 118.8C339.44 118.16 345.58 111.7 348.64 107.4C357.898 94.1876 363.14 78.582 363.74 62.4602C363.92 57.0202 363.2 46.9402 358.68 42.4602C362.368 42.685 365.926 43.901 368.98 45.9802C376.72 52.3802 376.1 69.4802 374.36 79.3602C373.26 85.4382 371.47 91.3702 369.02 97.0402ZM317.6 124.84C311.02 128.14 305.48 126.44 299.24 123.32C296.998 122.274 294.832 121.071 292.76 119.72C301.2 120.64 310.62 110.94 315.22 104.56C327.806 86.4514 334.91 65.1 335.68 43.0602C335.96 35.0602 334.86 19.0602 327 13.6402C329.764 13.9991 332.508 14.4997 335.22 15.1402C338.084 15.6245 340.812 16.7156 343.22 18.3402C358.14 29.7802 356.12 74.3402 335.52 106.64C331.04 113.82 325.2 121.04 317.6 124.84ZM282 93.6002C281.664 84.3918 282.66 75.1832 284.96 66.2602C289.54 67.6402 294.34 69.2602 298 70.6002C300.9 71.6602 304.64 74.1202 307.86 73.3202C306.55 76.3854 304.998 79.3414 303.22 82.1602C302 84.1602 303.94 85.2002 305.22 83.2802C310.76 74.5202 315.04 63.0602 314.8 51.9002C314.8 49.7202 312.1 51.9002 312.12 53.3802C312.186 56.7416 311.852 60.0988 311.12 63.3802C308.82 61.0202 304.34 60.1802 301.62 59.2002C297.84 57.8202 293.02 56.2202 288.38 54.8402C292.72 42.2602 301.62 23.7202 313.3 17.2602C318.26 14.6202 323.44 14.7202 327.12 18.8402C331.62 23.8802 332.68 31.6402 333 38.1402C334 57.9202 327.92 79.0002 318.16 96.0002C313.64 103.84 300.98 122.86 289.64 114.5C283.7 110.1 282.38 100.92 282 93.6002ZM252.28 55.3402C230.788 52.377 209 52.2626 187.48 55.0002C156.52 58.6802 123.64 70.0002 108 78.2002C105.66 79.2002 101.12 76.5202 104 74.0402C105.642 72.9254 107.424 72.031 109.3 71.3802C111.1 70.5402 112.94 69.7602 114.78 68.9802C178 42.6202 246 41.6402 304 64.0002C305.56 64.6002 309.3 65.4202 309.66 67.4802C310.5 72.2002 304.5 69.1202 301.44 67.9802C285.552 62.02 269.072 57.7824 252.28 55.3402ZM132.5 106.5C132.5 113.88 131.68 123.14 126.68 128.68C113.56 143.26 83.7998 103.7 82.2398 59.1802C81.9998 50.0002 83.2398 25.4602 98.5998 30.9402C109.66 34.9402 118.82 51.4802 123.3 62.3002C117.394 64.4744 111.618 66.985 106 69.8202C104.407 70.5446 102.983 71.5936 101.82 72.9002C101.051 69.0576 100.795 65.13 101.06 61.2202C101.2 59.0802 98.4798 61.3202 98.3798 62.7002C97.7196 72.6998 100.285 82.6474 105.7 91.0802C106.58 92.4202 108.8 89.4802 108 88.2802C106.652 86.1986 105.487 84.0036 104.52 81.7202C108.36 82.3402 107.32 80.3602 127.08 73.0002C130.607 83.8198 132.435 95.1206 132.5 106.5ZM119.74 136.5C113.92 139.86 107.3 143.38 100.48 141.16C95.178 139.198 90.487 135.873 86.8798 131.52C60.3198 101.88 56.8798 51.5202 68.4998 35.9002C72.6998 30.2202 80.2198 29.3802 86.7998 28.6002C88.0198 28.4402 89.2998 28.3002 90.5598 28.2402C83.6798 32.1002 80.5598 43.3802 79.7798 51.0802C77.7798 72.6002 84.2798 96.1802 95.2398 114.88C100.02 123 111.58 138.88 122.78 134.5C121.811 135.208 120.795 135.849 119.74 136.42V136.5ZM54.0998 126C37.2798 102.92 36.4798 70.7802 43.9998 61.3602C47.0398 57.5202 52.9398 56.9402 57.9998 56.4402C53.7998 60.0402 51.8598 67.5402 51.4398 72.7002C50.1798 88.5402 55.0798 105.86 63.3198 119.36C66.6598 124.84 73.9798 134.44 81.3198 133.48C76.7198 136.22 71.8998 138.62 66.9598 136.86C61.5398 134.96 57.3598 130.34 54.0998 126ZM32.5398 105.52C30.8798 100.9 34.3398 98.4202 38.2198 97.2202C39.0246 101.161 40.1142 105.037 41.4798 108.82C37.6798 109.74 33.9998 109.54 32.5398 105.52ZM81.2198 130.24C75.4198 130.24 68.8998 121.84 66.4198 118.04C58.9424 106.187 54.6634 92.599 53.9998 78.6002C53.7398 73.3802 54.0998 61.0402 59.7798 58.3002C58.2798 80.2202 65.9998 110.14 81.2198 130.24ZM355.6 44.8202C359.46 47.8802 360.92 55.4002 361.08 60.2402C361.204 74.4322 357.502 88.3956 350.36 100.66C347.46 105.66 339.66 117.58 332.2 115.26C346 98.1402 356 69.7802 355.6 44.8202Z" fill="#0D128A"/>
<path d="M27.9998 45.66C20.6598 49.78 18.3798 60.9 17.6998 68.36C17.4798 70.78 20.1598 69.3 20.2998 67.7C20.8598 61.7 22.4998 51.84 28.0598 48.72C29.3598 48 29.9998 44.6 27.9998 45.66Z" fill="#0D128A"/>
<path d="M34.26 30.5002C26 30.9602 19.2399 40.0002 15.3799 46.3602C14.1799 48.3602 16.1199 49.4002 17.3799 47.4802C20.7 42.0602 25.7 35.8402 31.82 34.1602C32.239 34.104 32.6536 34.017 33.06 33.9002C34.42 33.8202 35.8 30.4002 34.26 30.5002Z" fill="#0D128A"/>
<path d="M379.64 127.12C374.74 131.12 366.5 137.12 359.52 135.12C358.18 134.74 356.6 138.06 358.24 138.52C365.9 140.66 374.98 134.22 380.36 129.78C381.6 128.7 381.52 125.58 379.64 127.12Z" fill="#0D128A"/>
<path d="M367.32 143.62C361.02 145.12 350.82 146.78 345.32 141.86C344.28 140.92 342.3 144.02 343.48 145.08C349.28 150.26 360.04 148.56 366.72 146.96C368 146.64 369.16 143.18 367.32 143.62Z" fill="#0D128A"/>
<path d="M354.18 299.86C352.18 296.78 350 293.86 347.72 290.9C353.72 280 358.44 266.62 357.72 254.16C357.552 249.71 356.224 245.38 353.866 241.602C351.508 237.824 348.204 234.726 344.28 232.62C333 226.06 319.34 224.62 306.28 225.52C305.96 223.36 304.92 220.72 302.82 220.12C303.576 213.374 303.844 206.584 303.62 199.8C309.6 198.098 314.774 194.309 318.2 189.12C319.24 187.724 319.996 186.136 320.422 184.448C320.848 182.759 320.934 181.003 320.68 179.28C319.71 175.112 318.226 171.081 316.26 167.28C312.4 159.28 305.72 147.28 296.26 144.26C293.38 139.06 289.94 137.48 284.62 134.96C272.62 129.3 257.28 125.16 243.62 125.52C231.26 125.84 218.74 129.14 213.32 140.14C211.912 141.052 210.576 142.068 209.32 143.18C208.12 144.22 208.22 147.38 210.04 145.78C210.58 145.3 211.16 144.84 211.74 144.4C210.14 149.86 210.4 156.1 206.22 160.4C199.78 166.88 188.58 165.48 182.22 159.52C174.06 151.8 174.32 137.7 181.5 129.52C188.1 122.02 198.1 118.34 205.94 112.36C213.78 106.38 220.48 97.28 221.34 86.86C222.1 77.76 218.04 68.66 212.7 61.22C211.6 57.74 208.7 54.8 204.7 56.12C201.94 57.06 199.98 59.64 198.18 61.8C195.943 64.4704 193.872 67.2756 191.98 70.2C190.6 72.36 186.4 78.48 189.16 81.02C189.41 81.2578 189.711 81.4356 190.04 81.54C191.021 83.2236 191.896 84.967 192.66 86.76C193.68 89.1 195.46 91.74 193.18 93.8C190.9 95.86 187.18 96.5 184.12 97.38C174.438 100.52 165.72 106.084 158.796 113.544C151.871 121.004 146.971 130.111 144.56 140C140.995 155.556 143.137 171.874 150.597 185.982C158.056 200.09 170.337 211.048 185.2 216.86C203.2 224.18 212.28 221.02 219.92 225.72C206.94 224.1 192.92 225.46 181.38 230.88C162 240 160.34 257.08 167.12 277.2C168.806 282.312 170.941 287.264 173.5 292C171.5 294.46 169.76 296.98 168.04 299.56C166.58 301.74 162.04 307.56 163.56 310.48C164.96 313.08 170.38 310.26 172.14 309.5C174.24 308.62 176.32 307.62 178.34 306.56C175.94 311.56 173.02 319.26 177.46 320.84C182.56 322.66 188.76 314.2 191.64 309.6C191.74 313.72 192.52 318.78 195.96 319.6C200.58 320.74 203.96 312.36 205.46 307.84C206.776 311.788 209.092 315.33 212.18 318.12C218.66 323.98 227.4 327.1 235.98 328.98L237.12 368.52C228.58 366.42 218.78 365.1 210.32 367.3C207.652 367.868 205.204 369.194 203.268 371.116C201.33 373.038 199.988 375.476 199.4 378.14C198.24 383.78 202.66 386.62 207.4 387.88C216.3 390.2 226.32 389.88 235.4 389.64C240.88 389.48 252.36 389.2 255.78 384.78C257.28 382.78 256.9 381.02 256.58 378.78C254.564 363.08 253.376 347.284 253.02 331.46C256.8 331.68 260.6 331.74 264.4 331.6C264.028 347.57 262.854 363.51 260.88 379.36C260.514 380.838 260.386 382.362 260.5 383.88C260.694 384.534 261.026 385.14 261.474 385.654C261.922 386.168 262.478 386.58 263.1 386.86C267.3 389.14 272.9 389.3 277.56 389.58C286.982 390.262 296.45 389.92 305.8 388.56C310.4 387.82 316.04 386.24 317.8 381.36C319.56 376.48 315.8 370.52 311.3 368.44C305.3 365.72 298.1 366.16 291.74 366.88C287.88 367.296 284.052 367.964 280.28 368.88L281.42 329.72C289.64 328.18 298 325.46 304.5 320.26C310.24 315.68 312.82 309.14 313.72 302.08C314.582 306.596 316.134 310.954 318.32 315C319.3 316.74 320.98 319.66 323.28 319.76C327.28 319.96 328.8 315.06 329.28 310.5C332.64 316.12 338.3 323.56 343.42 320.5C347.42 318.12 345.96 312.38 343.92 307.66C345.3 308.34 346.68 308.98 348.1 309.66C350.6 310.72 355.26 313.12 357.24 310.02C359.22 306.92 355.76 302.3 354.18 299.86ZM192.36 78.24C192.086 78.2212 191.826 78.1102 191.622 77.925C191.419 77.7398 191.284 77.4914 191.24 77.22C190.98 75.52 193.24 72.36 194 71.22C196.221 67.4448 198.909 63.964 202 60.86C206 57.16 210.44 60.54 210.44 65.6C210.284 69.4756 209.93 73.3406 209.38 77.18C209.38 77.78 209.14 80.44 208.6 80.84C207.1 81.96 203.66 77.1 202.8 75.88C202.662 75.7108 202.464 75.6014 202.248 75.5754C202.032 75.5492 201.814 75.6082 201.64 75.74C199.3 77.2 195.12 78.76 192.36 78.24ZM202.62 218.24C182.62 214.56 163.94 203.32 153.86 185.34C151.091 180.297 148.981 174.92 147.58 169.34C139.78 137.48 156.1 108.58 185.48 100.16C190.18 98.8 197.48 96.16 197.2 90.02C197.04 87.2 195.2 84.38 193.98 81.52C196.404 81.1066 198.76 80.3594 200.98 79.3C202.82 81.9 206.5 86.46 209.56 83.68C211.56 81.86 211.84 78.3 212.2 75.8C212.56 73.3 212.82 70.48 213 67.8C214.618 70.4972 215.958 73.3518 217 76.32C218.864 81.648 219.076 87.4152 217.606 92.8652C216.136 98.3152 213.052 103.193 208.76 106.86C201.6 113.36 192.54 117.04 185.02 123C181.408 125.641 178.479 129.105 176.476 133.106C174.472 137.106 173.452 141.526 173.5 146C173.72 154.48 177.74 162.76 185.76 166.3C189.074 167.842 192.757 168.413 196.382 167.946C200.008 167.478 203.426 165.992 206.24 163.66C213.38 157.44 212.24 149.14 214.82 142.46C217.14 141.085 219.784 140.353 222.48 140.34C223.94 140.34 225.38 137 223.76 136.94C221.476 136.908 219.212 137.365 217.12 138.28C222.98 130.64 235.12 128.92 244.72 129.02C264.84 129.22 286.72 138.88 291.38 143.62C290.12 143.62 289.06 145.62 289.38 146.58C289.7 147.54 290.58 146.58 294.14 147.58C295.658 148.029 297.102 148.703 298.42 149.58C306.54 154.72 314.06 168.72 317.08 177.78C318 180.52 318.84 183.02 317.62 185.78C313.14 196.08 297.9 200.22 290.64 195.78C283.76 191.62 282.38 180.98 281.68 173.78C281.046 167.573 280.972 161.321 281.46 155.1C281.62 152.98 278.88 155.1 278.78 156.58C278.28 162.901 278.36 169.254 279.02 175.56C280.66 191.72 285.02 203.34 301.02 200.48C301.74 220.02 299.92 242.2 285.44 255.16C278.438 261.188 269.574 264.62 260.34 264.88C242.72 265.66 230.02 258.06 228.5 240.7C228.516 237.206 228.262 233.716 227.74 230.26C224.68 218.9 212.24 220 202.62 218.16V218.24ZM204.4 304C203.514 307.438 202.126 310.726 200.28 313.76C199.78 314.56 198.9 316.24 197.8 316.34C196.16 316.52 195.36 313.8 195.06 312.66C194.394 309.858 194.165 306.972 194.38 304.1C194.38 302.42 192.5 303.44 192.08 304.28C190.971 306.468 189.708 308.572 188.3 310.58C186.66 312.92 182.92 318.44 179.4 317.62C175.4 316.7 180.96 306.24 182.14 304.08C182.58 303.24 182.64 301.16 181.14 302.08C179.14 303.18 177.14 304.24 175.14 305.22C173.88 305.8 167.48 309.4 166.16 308.08C164.84 306.76 175 293.98 176.02 292.7C176.317 292.39 176.518 292 176.6 291.578C176.681 291.156 176.64 290.72 176.48 290.32C170.52 280 166 267.36 166.22 255.48C166.5 244.52 171.26 238.96 180.66 234.32C189.985 230.11 200.182 228.196 210.4 228.74C214.992 228.808 219.574 229.236 224.1 230.02C224.28 230.336 224.44 230.664 224.58 231C223.8 232.32 223.24 233.88 222.58 235C220.44 239.16 218.42 243.4 216.58 247.68C203.26 247.1 194.92 257.94 197.52 269.22C198.806 273.87 201.008 278.214 204 282C204.374 282.626 204.664 283.298 204.86 284C203.472 290.582 203.316 297.362 204.4 304ZM202.4 273.24C200.4 269.24 198.62 264.1 200.2 259.64C202.38 253.48 208.84 250.96 215.06 251.12C211.27 259.96 208.24 269.106 206 278.46C204.732 276.774 203.55 275.026 202.46 273.22L202.4 273.24ZM211.26 267.84C227.88 284.56 252.2 288.8 274.78 283.4C286.434 280.442 297.616 275.864 308 269.8C308.54 272.4 309.04 275.02 309.52 277.64C293.06 286.38 274.84 292.34 256.04 291.64C239.01 291.122 222.634 284.968 209.48 274.14C210 272 210.64 270 211.32 267.82L211.26 267.84ZM253.62 377.72C254.24 382.66 258.02 384.86 241.38 386.06C232.578 386.746 223.732 386.592 214.96 385.6C211.18 385.16 206.34 384.7 203.4 382C198.54 377.52 205.04 372 209.4 370.76C218.36 368.3 229.04 370.14 237.88 372.48C238.98 372.78 239.88 370.86 239.88 370.04C239.506 356.706 239.12 343.414 238.72 330.16L250.56 336.94C251.04 349.86 252.18 365.5 253.68 377.7L253.62 377.72ZM315.52 378.94C316.48 384.08 308.72 384.94 305.14 385.4C296.744 386.466 288.266 386.734 279.82 386.2C275.124 386.226 270.456 385.482 266 384C264.94 383.56 263.5 382.94 263.16 381.74C263.1 379.998 263.316 378.256 263.8 376.58C265.08 366.1 266.32 351.56 266.88 337.08L278.88 330.24L277.68 371.46C277.668 371.594 277.686 371.73 277.736 371.856C277.786 371.982 277.864 372.094 277.966 372.184C278.068 372.274 278.188 372.338 278.32 372.372C278.45 372.406 278.588 372.408 278.72 372.38C291 369.18 313.22 366.44 315.58 378.92L315.52 378.94ZM303.82 317.66C286.9 331.18 239.18 332.32 217.56 317.66C214.34 315.588 211.658 312.78 209.732 309.472C207.806 306.162 206.692 302.444 206.48 298.62C206.012 291.704 206.688 284.758 208.48 278.06C227.92 293.64 253.72 298.18 277.86 292.8C289.08 290.164 299.892 286.02 310 280.48C312 292.28 314.34 309.28 303.88 317.64L303.82 317.66ZM313.36 284.16C312.62 278.42 311.24 271.04 310.26 266.56C309.1 261.52 307.32 256.34 306.26 251.12C310.408 251.124 314.408 252.672 317.48 255.46C324.7 262.46 321 272.28 315.78 279.24C314.688 280.708 313.886 282.372 313.42 284.14L313.36 284.16ZM341.04 302C339.64 301.22 338.4 304 339.04 305C340.908 308.388 342.308 312.016 343.2 315.78C343.48 317.68 343.64 318 341.8 317.62C338.16 316.9 335.32 312.8 333.34 309.96C331.906 307.902 330.61 305.75 329.46 303.52C328.72 302.06 326.94 304.92 326.98 305.66C327.096 307.94 326.982 310.224 326.64 312.48C326.46 313.48 326.2 316.12 324.92 316.38C323.64 316.64 322.92 315.36 322.42 314.68C317.12 308.22 315.3 297.56 315.56 289.48C315.9 278.82 317.82 283.26 322.38 272.4C328.56 257.6 318.38 246.4 304.38 247.92C302.554 248.118 300.762 248.542 299.04 249.18C297.76 249.64 296.7 253.18 298.4 252.52C300.046 251.916 301.758 251.514 303.5 251.32C305.26 259.06 306.02 261.14 307.5 267.16C281.34 281.72 248.32 290.08 221.82 271.8C218.486 269.526 215.396 266.912 212.6 264C216.11 253.826 220.41 243.944 225.46 234.44C225.98 238.44 225.46 244.04 227.04 249.16C232.66 268.54 256.46 271.72 273.04 265.54C288.88 259.66 297.58 245.54 301.3 229.18C313.19 227.496 325.314 228.824 336.56 233.04C352.84 239.64 360.24 251.82 351.28 277.2C346.68 290.24 343.78 291.68 344.88 293.08C347.34 296.16 353.52 304.38 354.76 307.98C351.56 307.44 344 303.58 341.04 302Z" fill="#0D128A"/>
<path d="M256 158.66C256.696 158.341 257.238 157.763 257.51 157.048C257.784 156.334 257.766 155.541 257.46 154.84C257.456 154.441 257.362 154.048 257.18 153.692C257 153.336 256.738 153.026 256.418 152.788C256.096 152.55 255.726 152.39 255.332 152.32C254.94 152.25 254.536 152.272 254.152 152.385C253.768 152.498 253.418 152.698 253.124 152.97C252.832 153.241 252.606 153.577 252.466 153.951C252.324 154.324 252.272 154.726 252.314 155.123C252.354 155.52 252.486 155.903 252.7 156.24C252.824 156.995 253.238 157.672 253.856 158.125C254.472 158.577 255.242 158.77 256 158.66Z" fill="#0D128A"/>
<path d="M226.66 175.1C231.26 173.1 232.1 167.24 231.02 162.9C229.56 158.62 225.3 153.9 220.34 156.24C215.94 158.24 214.86 164.14 216.1 168.4C217.34 172.66 221.84 177.24 226.66 175.1ZM222.38 158.22C225.82 158.36 228.08 161.62 229.08 164.56C229.96 168.06 229.26 173.62 224.38 173.06C221.22 172.7 218.88 169.6 218.04 166.74C217.04 163.34 217.86 158 222.38 158.22Z" fill="#0D128A"/>
<path d="M224.24 168.56C224.948 168.548 225.632 168.314 226.2 167.891C226.768 167.469 227.188 166.879 227.402 166.204C227.616 165.53 227.614 164.806 227.394 164.133C227.174 163.46 226.75 162.874 226.18 162.455C225.61 162.037 224.922 161.808 224.214 161.801C223.506 161.794 222.816 162.009 222.236 162.416C221.658 162.823 221.222 163.401 220.988 164.07C220.756 164.738 220.74 165.462 220.94 166.14C221.072 166.891 221.49 167.562 222.104 168.012C222.72 168.463 223.484 168.659 224.24 168.56Z" fill="#0D128A"/>
<path d="M241.58 148.82C243.808 149.565 246.152 149.904 248.5 149.82C244.3 157.82 251.48 168.26 258.32 165.22C262.92 163.22 263.76 157.34 262.68 153C261.966 150.934 260.75 149.079 259.14 147.6C260.12 147.24 261.14 146.84 261.98 146.44C263.28 145.84 263.98 142.44 261.98 143.36C256.6 145.8 249.04 147.54 243.48 145.6C242 145.08 240.22 148.34 241.58 148.82ZM250.7 149.68C252.416 149.485 254.114 149.157 255.78 148.7C256.982 149.294 258.046 150.136 258.902 151.17C259.756 152.204 260.382 153.407 260.74 154.7C261.62 158.2 260.92 163.76 256.04 163.2C254.498 162.839 253.086 162.054 251.966 160.934C250.846 159.814 250.06 158.403 249.7 156.86C249.302 155.667 249.186 154.398 249.358 153.153C249.532 151.907 249.992 150.719 250.7 149.68Z" fill="#0D128A"/>
<path d="M266.94 206.68C274.2 198.82 274.04 185.02 263.94 179.34C257.74 175.84 252.4 178.86 247.48 182.96C244.34 185.54 240.98 189.78 236.78 190.58C232.28 191.46 227.62 189.4 223.18 190.8C220.37 191.838 218.068 193.915 216.746 196.602C215.426 199.29 215.186 202.382 216.08 205.24C216.07 205.386 216.09 205.532 216.138 205.668C216.186 205.806 216.262 205.932 216.36 206.04C217.52 208.546 219.23 210.76 221.364 212.516C223.496 214.27 225.996 215.524 228.68 216.18C241.88 219.8 257.54 216.9 266.94 206.68ZM250.2 213.12C248.98 209.76 247.76 206.42 246.52 203.12C251.19 201.022 255.546 198.281 259.46 194.98L264.02 205.16C264.064 205.3 264.144 205.426 264.254 205.526C264.362 205.624 264.496 205.69 264.64 205.72C260.564 209.418 255.582 211.97 250.2 213.12ZM266.68 203.36C266.68 202.96 267.02 203.86 262 192.64C263.796 190.924 265.474 189.086 267.02 187.14C268.602 189.564 269.416 192.409 269.356 195.303C269.294 198.197 268.362 201.004 266.68 203.36ZM253.22 182C257.66 180 262.44 182 265.58 185.36C262.572 189.111 259.044 192.411 255.1 195.16C255.1 194.96 255.22 195.42 250.28 183.74C251.206 183.073 252.19 182.49 253.22 182ZM247.68 186C249.24 189.68 250.8 193.38 252.34 197.06C247.456 200.06 242.08 202.174 236.46 203.3C236.46 202.88 236.72 203.56 232.76 194.32C239.56 194.32 242.64 190.38 247.68 185.84V186ZM218.58 203.16C218.354 202.19 218.254 201.196 218.28 200.2C218.52 193.84 224.04 193.82 229.18 194.2C229.18 194.38 229.72 195.5 233.32 203.9C228.392 204.46 223.404 204.156 218.58 203V203.16ZM220.58 207.16C228.376 208.216 236.314 207.266 243.64 204.4C243.64 204.76 243.38 203.92 247 213.88C238.12 215.04 226 213.6 220.6 207L220.58 207.16Z" fill="#0D128A"/>
<path d="M205.6 73.5602C205.996 73.3244 206.326 72.9912 206.556 72.592C206.788 72.193 206.914 71.7412 206.92 71.2802V66.0002C206.93 65.835 206.894 65.67 206.816 65.5244C206.738 65.3788 206.618 65.2584 206.474 65.1768C206.33 65.0954 206.166 65.0562 206.002 65.064C205.836 65.0716 205.676 65.1258 205.54 65.2202C205.148 65.4582 204.822 65.7926 204.594 66.1916C204.366 66.5904 204.244 67.0408 204.24 67.5002V72.7802C204.24 73.6002 204.92 74.0002 205.6 73.5602Z" fill="#0D128A"/>
</svg>
