<svg width="400" height="400" viewBox="0 0 400 400" fill="none" xmlns="http://www.w3.org/2000/svg">
<path d="M334.3 125.34C332.94 116.78 340.3 114.7 346.8 114.44C348.674 114.528 350.534 114.79 352.36 115.22C354.36 99.7 341.58 87.56 329.42 90.16C326.028 90.7774 322.926 92.4736 320.578 94.9962C318.228 97.519 316.756 100.733 316.38 104.16C316.38 104.16 303.04 95.3 290.82 105.94C278.08 117 284.82 137.2 298.98 143.94C314.26 151.12 327.6 151.28 334.88 152.6C342.16 153.92 346.64 153.56 347.8 147.46C348.22 145.18 348.7 141.18 349.16 136.58C345 134.34 335.26 131.32 334.3 125.34Z" fill="#3D9CFB"/>
<path d="M56.16 111.66C49.28 111.66 50.34 99.4 48.76 97.16C47.18 94.92 37.12 99.8 33.66 98.32C29.66 96.6 28.22 90.7 23.66 82.86C19.1 75.02 11.34 63.1 13.14 55.64C15.88 44.32 42 34 50.12 30C70.12 20.2 84.12 14.7 91.08 18.68C98.04 22.66 99.08 30.38 104.44 42.32C107.32 48.74 113.8 60.16 110.44 65.94C107.08 71.72 69.54 87.2 67 89.5C64.46 91.8 61.2 111.72 56.16 111.66Z" fill="#3D9CFB"/>
<path d="M241.12 382.46C237.64 381.1 240.46 371.58 238.94 369.48C237.18 367.08 229.66 366.04 230.02 362.7C230.38 359.36 238.56 358.38 240.98 354.86C242.48 352.7 241.6 343.82 244.86 342.86C249.52 341.46 254.54 350.34 256.4 350.46C258.58 350.62 266.9 345.72 269.06 348.76C271.72 352.52 263.28 360.5 263.06 362.76C262.8 365.64 269.84 374.54 265.46 377.5C261.82 379.96 251.46 370.8 249.14 372.36C247.4 373.44 244.26 383.7 241.12 382.46Z" fill="#3D9CFB"/>
<path d="M298.66 363.04C292.8 363.5 295.4 347.38 293.88 345.3C292.12 342.88 282.3 344.82 282.82 339.16C283.22 334.74 292.96 333.16 295.38 329.74C296.9 327.58 294.5 313.86 299.16 311.6C303.82 309.34 307.36 322.28 309.16 322.42C311.36 322.58 320.16 314.42 322.32 317.42C324.98 321.18 319.76 328.02 319.56 330.26C319.28 333.12 329.92 343.22 325.56 346.26C321.92 348.72 310.64 343.04 308.22 344.62C306.54 345.68 302.38 362.76 298.66 363.04Z" fill="#3D9CFB"/>
<path d="M351.62 325.24C346.22 327.54 344.82 309.78 342.72 308.28C340.28 306.56 332.72 310.46 330.96 306.54C329.68 303.8 338.32 295.88 339.5 291.76C340.22 289.22 335.74 277.6 339.5 273.96C343.26 270.32 351 281.02 352.82 280.56C354.94 280 361.34 269.94 364.38 272.14C368.1 274.86 364.56 286.36 365.08 288.54C365.74 291.34 378.86 291.38 378.38 294.54C377.26 301.74 360.64 301.08 358.86 303.34C357.5 304.94 355.06 323.78 351.62 325.24Z" fill="#3D9CFB"/>
<path d="M54.8202 98.42C55.4602 104.04 54.8202 113.84 63.2402 114.42C69.2402 115.24 73.9002 98.42 77.2402 92.82C103.84 79.82 136.78 81.9 120.7 49.5C112 14.8 104.42 11.12 63.2202 27.78C29.4602 39.24 10.3802 47.44 30.9602 81.44C36.7402 96.3 37.5602 102.32 54.8202 98.42ZM27.4002 53.14C32.6202 40.52 96.3202 18.2 104.5 24.44C109.36 26.44 122.5 65.28 119.12 69.76C115.74 74.24 80.7802 85.16 74.2402 88.8C71.0202 91.02 66.8002 107.24 63.1602 109.44C60.7402 109.08 60.3002 105.3 60.0002 100.78C61.1402 89.44 48.9402 95.14 42.9202 94.48C37.4602 85.6 25.8802 62.94 27.4002 53.14Z" fill="#001434"/>
<path d="M52.0004 52.32C65.9004 54.7 67.0804 59.1 75.8004 44.84C84.7604 53.48 92.9404 40.6 102 38.52C102.641 38.3982 103.208 38.031 103.582 37.4968C103.956 36.9624 104.106 36.3034 104 35.66C101.12 30 92.0004 38 89.6804 39.52C78.4604 49.78 77.3404 29.14 66.8804 49.2C55.0804 51.54 47.0804 38.3 44.4604 60.48C42.3682 60.591 40.2874 60.1056 38.4604 59.08C35.5404 57.72 33.4404 62.38 36.4604 63.6C52.3004 70.1 46.8204 60.62 52.0004 52.32Z" fill="#001434"/>
<path d="M98.0004 52.32C97.4198 52.0868 96.7722 52.0816 96.1878 52.3056C95.6034 52.5296 95.1254 52.9664 94.8496 53.5282C94.5738 54.09 94.5204 54.7354 94.7006 55.3348C94.8806 55.9342 95.2806 56.4432 95.8204 56.76C96.0204 56.88 101.16 59.62 101.16 67.84C101.16 68.4978 101.422 69.1286 101.887 69.5938C102.352 70.0588 102.983 70.32 103.64 70.32C104.298 70.32 104.929 70.0588 105.394 69.5938C105.859 69.1286 106.12 68.4978 106.12 67.84C106 56.4 98.2404 52.48 98.0004 52.32Z" fill="#001434"/>
<path d="M70.7804 67.38C67.9604 69.64 67.8404 72.94 66.7804 75.38C56.2604 72.84 58.6604 71.56 50.9804 81.38C49.9972 80.3286 49.1198 79.183 48.3604 77.96C47.997 77.411 47.4306 77.0288 46.7854 76.8976C46.1402 76.7664 45.4694 76.8968 44.9204 77.26C44.3714 77.6234 43.9892 78.19 43.858 78.835C43.7266 79.4802 43.857 80.151 44.2204 80.7C50.2204 91.3 54.6204 85.28 59.6604 78.4C64.1604 81.22 71.6604 81.26 72.2204 74.6C72.4044 73.2956 72.9756 72.0762 73.8604 71.1C74.1988 70.6544 74.3764 70.1074 74.3646 69.5482C74.3528 68.9888 74.1522 68.4498 73.7954 68.0188C73.4386 67.5878 72.9466 67.2902 72.3992 67.1742C71.8518 67.0582 71.2814 67.1308 70.7804 67.38Z" fill="#001434"/>
<path d="M85.7 60.72C86.38 57.24 80.58 57.08 79.94 59.16C78.12 61.86 82.42 65.72 84.42 62.48C84.754 62.3046 85.0432 62.0546 85.2652 61.7494C85.4872 61.4442 85.636 61.092 85.7 60.72Z" fill="#001434"/>
<path d="M90.1802 71.02C89.8002 70.8006 89.369 70.685 88.9302 70.685C88.4914 70.685 88.0602 70.8006 87.6802 71.02C83.4802 70.32 83.8402 76.52 87.9402 76.3C90.0002 76.58 92.9202 72.7 90.1802 71.02Z" fill="#001434"/>
<path d="M91.5602 61.66C91.0334 62.0676 90.427 62.3606 89.7802 62.52C89.4546 62.52 89.1322 62.5842 88.8312 62.7088C88.5304 62.8336 88.257 63.0162 88.0266 63.2464C87.7964 63.4768 87.6136 63.7502 87.489 64.051C87.3644 64.352 87.3002 64.6744 87.3002 65C87.3002 65.3258 87.3644 65.6482 87.489 65.9492C87.6136 66.25 87.7964 66.5234 88.0266 66.7538C88.257 66.984 88.5304 67.1666 88.8312 67.2914C89.1322 67.416 89.4546 67.4802 89.7802 67.4802C91.4324 67.3804 93.0184 66.796 94.3402 65.8C94.8892 65.4314 95.2694 64.8598 95.3968 64.211C95.5244 63.562 95.389 62.889 95.0202 62.34C94.8378 62.0682 94.6034 61.835 94.3308 61.6538C94.0582 61.4724 93.7524 61.3466 93.4312 61.2836C92.7822 61.156 92.1092 61.2914 91.5602 61.66Z" fill="#001434"/>
<path d="M224 152C240.86 154 252 136.68 241.14 125.18C232 115.74 203.48 117.64 203.76 136C204 151.14 218.44 151.42 224 152ZM217.02 126C222.462 133.359 229.506 139.384 237.62 143.62C233.26 148.82 216.5 149.46 210.5 142.28C209.174 140.453 208.542 138.211 208.72 135.96C208.7 129.78 211.84 126.98 217.02 126Z" fill="#001434"/>
<path d="M193.14 151.86C195.14 151.86 198.36 151.62 197.96 148.84C196.62 144.6 188.74 148.72 187.48 144.04C185.06 138.8 189.96 133.44 195.78 136.68C196.381 136.947 197.062 136.969 197.678 136.741C198.295 136.513 198.798 136.054 199.08 135.46C199.218 135.165 199.295 134.845 199.308 134.52C199.321 134.195 199.269 133.87 199.155 133.565C199.042 133.26 198.869 132.981 198.647 132.743C198.424 132.505 198.157 132.314 197.86 132.18C182.32 124 173.78 151.18 193.14 151.86Z" fill="#001434"/>
<path d="M178 158.28C181.26 164.8 200 167.46 202 158.88C202.3 157.54 199.88 157.18 198.66 157.8C192.88 160.76 185.16 159.64 182.12 155.4C181.931 155.13 181.691 154.899 181.412 154.721C181.134 154.544 180.824 154.423 180.499 154.365C180.174 154.308 179.841 154.315 179.518 154.386C179.196 154.457 178.891 154.591 178.62 154.78C178.35 154.969 178.119 155.21 177.942 155.488C177.764 155.766 177.643 156.077 177.585 156.402C177.528 156.727 177.535 157.06 177.606 157.382C177.677 157.704 177.811 158.01 178 158.28Z" fill="#001434"/>
<path d="M150.88 112.62C164.88 108.3 169.66 115.8 172.06 112.26C176.82 105.3 158.3 103.24 149.92 107.46C146.56 109.16 146.54 114 150.88 112.62Z" fill="#001434"/>
<path d="M156.36 150.12C173 153.44 185.6 137.14 175.62 124.8C167.36 114.56 138.72 114.14 137.5 132.42C136.48 147.56 150.88 149.02 156.36 150.12ZM142.36 132.88C142.84 126.64 146.2 124.1 151.44 123.64C156.272 131.413 162.802 137.991 170.54 142.88C165.78 147.7 149.02 146.88 143.62 139.34C142.475 137.394 142.057 135.105 142.44 132.88H142.36Z" fill="#001434"/>
<path d="M374.82 187.3C387.36 175.74 385.96 132.94 379.36 126.72C382.29 126.897 385.23 126.675 388.1 126.06C390.48 125.26 390.9 121.76 387.76 121.88C384.62 122 375.16 122 371.48 120.6C364.82 118.04 355.18 112.82 348.26 111.54C344.84 89.4 314 87.42 310.4 108.36C269.34 102.62 275.5 157.3 314.4 156.74C317.82 181.96 350.4 185.6 369.44 191.04C377.02 193.22 388.92 195.18 389.28 192.3C389.64 189.42 381.6 189.16 374.82 187.3ZM302.58 149.3C275.24 138.32 286.58 105.3 314.1 113.86C314.46 113.615 314.75 113.279 314.936 112.885C315.122 112.491 315.2 112.054 315.16 111.62C313.94 97.1 338.66 92.1 343.16 111.34C325.16 113 330.7 136.42 345.76 139.48C344.98 148.12 350.14 152.5 337.02 152.32C326.12 152.2 317.14 153.5 302.58 149.26V149.3ZM369.26 186C349.54 180.2 322.48 177.04 319.58 157.3C332.56 156.52 354.54 163.3 350.72 141.3C352.072 141.825 353.464 142.247 354.88 142.56C355.464 142.555 356.026 142.344 356.47 141.965C356.914 141.586 357.21 141.062 357.306 140.486C357.4 139.91 357.29 139.319 356.994 138.817C356.696 138.315 356.23 137.933 355.68 137.74C349.22 135.74 338.34 131.86 337.2 126.78C334.52 104.78 362.62 123.82 372.78 126.06C375.18 128.62 382.14 138.5 378.78 164.06C377.34 174 374 181.6 369.26 186Z" fill="#001434"/>
<path d="M214.68 114.24C225.76 109.64 233.04 116.4 234.68 112.24C237.4 105.52 217.12 105.64 211.7 110.24C211.17 110.635 210.818 111.225 210.722 111.879C210.626 112.534 210.796 113.2 211.19 113.73C211.586 114.26 212.176 114.612 212.83 114.708C213.484 114.803 214.15 114.635 214.68 114.24Z" fill="#001434"/>
<path d="M83.4602 294.48C82.343 294.37 81.2176 294.37 80.1002 294.48C74.5402 287.36 61.1402 277.46 51.8602 283.46C44.6402 288.1 50.3602 297.1 46.5802 303.14C37.8002 309.8 22.8002 314.38 11.6602 318.74C11.3394 318.844 11.0435 319.014 10.7909 319.238C10.5383 319.46 10.3344 319.734 10.1919 320.04C10.0493 320.346 9.97116 320.678 9.96228 321.014C9.9534 321.352 10.014 321.688 10.1402 322C13.6402 326.18 18.8802 320.44 25.3402 319.04C22.1602 327.04 28.6802 360.06 41.1802 360.9C41.4288 360.688 41.6332 360.43 41.7818 360.14C41.9304 359.85 42.0202 359.534 42.0462 359.208C42.0722 358.882 42.0338 358.556 41.9334 358.246C41.8328 357.936 41.672 357.648 41.4602 357.4C30.9202 345.02 26.8002 328.46 31.2002 316.7C33.6802 315.68 36.1602 314.6 38.4802 313.54C31.7802 333.06 50.4802 363.88 66.7602 371.98C61.0602 376.14 58.2002 374.76 59.1002 379.36C61.4802 384.34 94.4202 360.12 102.74 355.54C130.34 335.5 105.24 298 83.4602 294.48ZM71.4602 369.1C53.4602 359.92 36.1802 331.5 44.1402 310.66C57.1802 305.82 49.9402 294.52 54.5002 287.66C61.3002 284.2 70.0802 291.18 74.8602 296.1C53.0602 311.04 64.0002 354.6 91.4602 357C85.5202 360.72 77.8202 365.36 71.5202 369.1H71.4602ZM100 351.32C96.8336 352.262 93.4908 352.452 90.2376 351.876C86.9844 351.3 83.9104 349.972 81.2602 348C84.4142 344.738 88.0334 341.962 92.0002 339.76C92.6074 339.508 93.0898 339.024 93.341 338.418C93.5922 337.81 93.592 337.128 93.3402 336.52C88.7602 331.94 82.3602 341.14 77.4402 344.64C73.493 340.604 70.613 335.648 69.0602 330.22C72.223 327.008 75.8666 324.31 79.8602 322.22C80.4674 321.968 80.9496 321.484 81.201 320.878C81.4522 320.27 81.452 319.588 81.2002 318.98C77.6402 314.58 71.7602 321.98 68.1602 324.32C67.8402 266 134 327.06 100 351.32Z" fill="#001434"/>
<path d="M325.62 221.7C329.62 214 327.22 200.48 317.84 201.06C316.56 189.64 302.92 190.32 294.98 197.96C293.142 199.074 291.104 199.814 288.98 200.14C288.712 200.17 288.442 200.146 288.184 200.07C287.926 199.993 287.686 199.864 287.478 199.693C287.272 199.521 287.1 199.309 286.978 199.07C286.854 198.83 286.78 198.569 286.76 198.3C285.6 186.54 283.48 176.06 275.18 169.3C269.6 164.76 261.18 163.46 251.68 162.24C254.932 158.277 257.072 153.522 257.88 148.46C261.102 147.417 263.854 145.275 265.656 142.409C267.458 139.543 268.196 136.135 267.74 132.78C267.28 128.78 268.66 126.96 270.8 123.78C284.8 101.94 260.68 75.04 232.34 70.54C229.22 70.04 227.88 68.9 228.34 67.24C232.68 50.52 213.5 38.24 184.54 41.8C162 44.56 152 55.84 156.96 68.4C157.092 68.701 157.156 69.0274 157.148 69.3558C157.139 69.6844 157.059 70.007 156.912 70.301C156.765 70.595 156.555 70.853 156.297 71.0568C156.04 71.2604 155.74 71.405 155.42 71.48C133.1 77.62 106.64 94.94 112.38 119.14C114.12 126.46 118.58 125.68 117.56 131.78C116.854 135.18 117.416 138.72 119.14 141.734C120.864 144.747 123.632 147.026 126.92 148.14C127.389 153.66 129.515 158.91 133.02 163.2C107.82 165.56 100.18 178.86 99.0202 198.06C98.8602 200.58 94.9202 199.64 91.0202 196.7C82.3402 190.3 69.6602 189.64 68.3602 201.06C58.9802 200.48 56.5202 214 60.6002 221.7C48.1002 230.38 64.7602 251.88 75.0802 253.7C83.3152 254.806 91.682 254.42 99.7802 252.56C81.6202 296.38 137.12 302.28 165.04 313.1C180.26 317.24 178.04 339.6 193.04 329.32C208.16 339.12 205.64 317.32 220.92 313.12C251.08 301.48 302.92 296.32 284.5 252.1C290.3 253.68 303.12 255.32 311.28 253.7C321.46 251.88 338.12 230.38 325.62 221.7ZM190.6 60.8C223 60.32 222.6 67.2 221.16 69.2C219.72 71.2 208 67.82 191.42 68C173.88 68.12 165.2 71.62 163.56 69.08C161.92 66.54 163.18 61.22 190.6 60.8ZM132 149.12C127.24 120.8 140 89.32 172 95.22C178.16 96.36 177.52 103.78 180.78 109.22C194.78 129.36 211.46 98.18 199.92 103.22C196.12 104.86 194.18 102.08 197.44 97.22C201.14 91.72 215.78 93.46 224.86 94.82C248.2 97.78 258.64 123.82 252.66 149.76C247.22 184 138.72 188.86 132 149.12ZM223.26 178.44C221.08 212.44 164.96 212.12 161.72 178.44C180.88 184.96 203.76 183.6 223.32 178.44H223.26ZM67.6802 243.22C70.831 242.262 73.923 241.12 76.9402 239.8C77.5086 239.504 77.9402 238.998 78.1444 238.39C78.3484 237.782 78.3094 237.12 78.035 236.54C77.7608 235.96 77.2728 235.51 76.6734 235.282C76.074 235.054 75.4098 235.068 74.8202 235.32C71.4472 236.78 67.9792 238.01 64.4402 239C61.9202 234.72 58.5802 228.38 63.5802 225.74C66.1202 230.24 74.6002 228 69.4602 224.44C65.0202 221.34 61.9402 213 64.6202 208.22C67.9402 202.72 72.1402 207.74 72.6202 212.82C74.4002 233.24 98.8002 212.94 79.3602 206.6C76.3002 205.66 72.1602 203.7 73.5202 200.08C75.5202 194.94 82.9202 197.26 88.5402 200.82C97.5002 206.5 99.3402 205.48 101.6 204.54C108.86 201.52 99.4202 179.42 121.1 171.66C138.66 165.36 144.46 184.78 145.78 209C147.06 232.82 124.78 240.6 103.78 246.36C101.08 247.04 75.2002 254.44 67.6802 243.22ZM77.4402 211.22C80.3002 212.08 84.1402 213.92 80.9602 216.5C78.4002 218.58 77.4802 213.58 77.4402 211.2V211.22ZM170.8 305.04C169.56 307.34 168.2 308.6 165.74 307.6C146.62 299.98 123.22 296.98 106.6 283.74C98.1002 274.34 114.06 259.5 123.76 256.56C140.2 251.6 168.24 262.56 172.5 264.86C176.76 267.16 172 302.74 170.8 305.04ZM190.56 269.84C190.22 276.54 189.9 296.38 190.34 308.7C190.66 317.98 189.78 328.96 185.38 327.38C180.98 325.8 179.76 318.82 176.32 314.64C175.828 314.058 175.47 313.374 175.27 312.638C175.069 311.902 175.032 311.132 175.16 310.38C177.32 299.38 178.1 274.22 178.16 270.38C178.3 263.08 190.7 267.1 190.56 269.84ZM189.64 254.1C172.96 254.1 153.84 246.8 148.58 241.96C146.42 239.96 146.32 235.72 150.18 237.96C154.04 240.2 165.3 248.8 192.74 248.48C219.5 248.16 231.92 239.3 234.6 237.66C237.28 236.02 239.2 239.66 236.32 241.84C229.3 247.22 205.24 255.66 189.64 254.1ZM203.1 322.96C189.54 343.42 194.68 276.3 195.52 271.24C196.26 266.76 205.9 264.58 206.1 267.06C206.54 272.5 203.78 307.06 209.84 313.86C207.022 316.424 204.732 319.516 203.1 322.96ZM275.6 286.24C260.74 297.18 234.68 300.38 217.34 309.1C214.2 310.68 212.18 310.58 212.06 308.56C211.2 302.68 207.74 269.16 211.16 265.48C213.16 263.48 231.52 256.52 249.04 254.92C269.68 253.1 283.52 279.48 275.6 286.24ZM321.72 239C318.188 238.006 314.728 236.776 311.36 235.32C310.766 235.036 310.084 235 309.462 235.22C308.842 235.438 308.334 235.896 308.05 236.49C307.766 237.084 307.73 237.766 307.95 238.388C308.168 239.008 308.626 239.516 309.22 239.8C312.238 241.116 315.33 242.258 318.48 243.22C314.6 249.58 298.62 250.22 278.86 245.22C266.86 242.14 253.7 236.38 248.54 232.92C233.98 225.06 237.24 168.78 264.54 171.9C281.78 173.9 281.24 195.64 282.24 199.72C284.1 207.36 290.24 206.96 298.24 201.72C302.78 198.7 306.6 196.5 309.8 197.6C319.64 203.96 303.8 206.38 300.68 210.42C295.06 218.6 307.22 226.66 312.36 217.86C314.24 214.62 312.8 211.16 314.8 208.02C315.146 207.426 315.646 206.938 316.25 206.608C316.852 206.278 317.534 206.12 318.222 206.152C318.908 206.182 319.572 206.402 320.144 206.784C320.714 207.166 321.17 207.698 321.46 208.32C324.14 213.1 321.46 221.92 316.62 224.54C312.88 229.58 320 230.34 322.62 225.84C327.6 228.38 324.26 234.72 321.72 239ZM308.74 211.2C308.74 213.58 307.98 218.28 305.2 216.48C302 214.38 305.86 212 308.74 211.2Z" fill="#001434"/>
</svg>
