<svg width="400" height="400" viewBox="0 0 400 400" fill="none" xmlns="http://www.w3.org/2000/svg">
<path d="M6.25 31.25L6.25 368.75C6.25 382.557 17.4429 393.75 31.25 393.75H331.25C345.057 393.75 356.25 382.557 356.25 368.75V31.25C356.25 17.4429 345.057 6.25 331.25 6.25H31.25C17.4429 6.25 6.25 17.4429 6.25 31.25Z" fill="#3380FF" stroke="#231F20" stroke-width="6.25" stroke-linecap="round" stroke-linejoin="round"/>
<path d="M356.25 56.25H6.25V143.75H356.25V56.25Z" fill="#B1B1B1" stroke="#231F20" stroke-width="6.25" stroke-linecap="round" stroke-linejoin="round"/>
<path d="M6.25 368.75H356.25C356.25 375.38 353.616 381.739 348.928 386.428C344.239 391.116 337.88 393.75 331.25 393.75H31.25C24.6196 393.75 18.2607 391.116 13.5723 386.428C8.88392 381.739 6.25 375.38 6.25 368.75Z" fill="#333333" stroke="#231F20" stroke-width="6.25" stroke-linecap="round" stroke-linejoin="round"/>
<path d="M31.25 6.25H331.25C337.88 6.25 344.239 8.88392 348.928 13.5723C353.616 18.2607 356.25 24.6196 356.25 31.25V56.25H6.25V31.25C6.25 24.6196 8.88392 18.2607 13.5723 13.5723C18.2607 8.88392 24.6196 6.25 31.25 6.25Z" fill="#D6DCDC" stroke="#231F20" stroke-width="6.25" stroke-linecap="round" stroke-linejoin="round"/>
<path d="M43.7501 31.25L43.7501 368.75C43.7501 382.557 54.943 393.75 68.7501 393.75H331.25C345.057 393.75 356.25 382.557 356.25 368.75V31.25C356.25 17.4429 345.057 6.25 331.25 6.25H68.7501C54.943 6.25 43.7501 17.4429 43.7501 31.25Z" fill="white" stroke="#231F20" stroke-width="6.25" stroke-linecap="round" stroke-linejoin="round"/>
<path d="M175 143.75H43.75V368.75H175V143.75Z" fill="#33DDFF" stroke="#231F20" stroke-width="6.25" stroke-linecap="round" stroke-linejoin="round"/>
<path d="M175 293.75H356.25V143.75L175 143.75L175 293.75Z" fill="#33DDFF" stroke="#231F20" stroke-width="6.25" stroke-linecap="round" stroke-linejoin="round"/>
<path d="M131.25 210.417H87.5C84.0482 210.417 81.25 213.215 81.25 216.667V229.167C81.25 232.618 84.0482 235.417 87.5 235.417H131.25C134.702 235.417 137.5 232.618 137.5 229.167V216.667C137.5 213.215 134.702 210.417 131.25 210.417Z" fill="#FF8B00" stroke="#231F20" stroke-width="6.25" stroke-linecap="round" stroke-linejoin="round"/>
<path d="M96.875 222.917H121.875" stroke="#FFE8CC" stroke-width="6.25" stroke-linecap="round" stroke-linejoin="round"/>
<path d="M93.75 210.419L109.375 185.419L125 210.419" stroke="#231F20" stroke-width="6.25" stroke-linecap="round" stroke-linejoin="round"/>
<path d="M291.018 282.408C296.987 282.408 301.826 277.57 301.826 271.601C301.826 265.632 296.987 260.793 291.018 260.793C285.049 260.793 280.211 265.632 280.211 271.601C280.211 277.57 285.049 282.408 291.018 282.408Z" fill="white" stroke="#C8D4FA" stroke-width="6.25" stroke-linecap="round" stroke-linejoin="round"/>
<path d="M204.558 285.417C210.526 285.417 215.365 280.578 215.365 274.609C215.365 268.64 210.526 263.802 204.558 263.802C198.589 263.802 193.75 268.64 193.75 274.609C193.75 280.578 198.589 285.417 204.558 285.417Z" fill="#33DDFF" stroke="#3380FF" stroke-width="6.25" stroke-linecap="round" stroke-linejoin="round"/>
<path d="M226.173 285.417C232.142 285.417 236.98 280.578 236.98 274.609C236.98 268.64 232.142 263.802 226.173 263.802C220.204 263.802 215.365 268.64 215.365 274.609C215.365 280.578 220.204 285.417 226.173 285.417Z" fill="#33DDFF" stroke="#3380FF" stroke-width="6.25" stroke-linecap="round" stroke-linejoin="round"/>
<path d="M215.365 263.802C221.334 263.802 226.173 258.963 226.173 252.994C226.173 247.025 221.334 242.186 215.365 242.186C209.396 242.186 204.558 247.025 204.558 252.994C204.558 258.963 209.396 263.802 215.365 263.802Z" fill="#33DDFF" stroke="#3380FF" stroke-width="6.25" stroke-linecap="round" stroke-linejoin="round"/>
<path d="M236.98 263.802C242.949 263.802 247.788 258.963 247.788 252.994C247.788 247.025 242.949 242.186 236.98 242.186C231.011 242.186 226.173 247.025 226.173 252.994C226.173 258.963 231.011 263.802 236.98 263.802Z" fill="#33DDFF" stroke="#3380FF" stroke-width="6.25" stroke-linecap="round" stroke-linejoin="round"/>
<path d="M247.788 285.417C253.757 285.417 258.595 280.578 258.595 274.609C258.595 268.64 253.757 263.802 247.788 263.802C241.819 263.802 236.98 268.64 236.98 274.609C236.98 280.578 241.819 285.417 247.788 285.417Z" fill="#33DDFF" stroke="#3380FF" stroke-width="6.25" stroke-linecap="round" stroke-linejoin="round"/>
<path d="M258.595 263.802C264.564 263.802 269.403 258.963 269.403 252.994C269.403 247.025 264.564 242.186 258.595 242.186C252.627 242.186 247.788 247.025 247.788 252.994C247.788 258.963 252.627 263.802 258.595 263.802Z" fill="#33DDFF" stroke="#3380FF" stroke-width="6.25" stroke-linecap="round" stroke-linejoin="round"/>
<path d="M269.403 285.417C275.372 285.417 280.211 280.578 280.211 274.609C280.211 268.64 275.372 263.802 269.403 263.802C263.434 263.802 258.595 268.64 258.595 274.609C258.595 280.578 263.434 285.417 269.403 285.417Z" fill="#33DDFF" stroke="#3380FF" stroke-width="6.25" stroke-linecap="round" stroke-linejoin="round"/>
<path d="M243.75 244.675V219.675" stroke="#1E9CDD" stroke-width="6.25" stroke-linecap="round" stroke-linejoin="round"/>
<path d="M256.25 194.675H231.25C227.798 194.675 225 197.473 225 200.925V213.425C225 216.877 227.798 219.675 231.25 219.675H256.25C259.702 219.675 262.5 216.877 262.5 213.425V200.925C262.5 197.473 259.702 194.675 256.25 194.675Z" fill="#33DDFF" stroke="#1E9CDD" stroke-width="6.25" stroke-linecap="round" stroke-linejoin="round"/>
<path d="M356.25 285.417H175V368.75H356.25V285.417Z" fill="#FFC700" stroke="#231F20" stroke-width="6.25" stroke-linecap="round" stroke-linejoin="round"/>
<path d="M356.25 56.25H43.75V143.75H356.25V56.25Z" fill="#D6DCDC" stroke="#231F20" stroke-width="6.25" stroke-linecap="round" stroke-linejoin="round"/>
<path d="M331.25 118.75H393.75V137.5C393.75 145.788 390.458 153.737 384.597 159.597C378.737 165.458 370.788 168.75 362.5 168.75C354.212 168.75 346.263 165.458 340.403 159.597C334.542 153.737 331.25 145.788 331.25 137.5V118.75Z" fill="#E62234" stroke="#231F20" stroke-width="6.25" stroke-linecap="round" stroke-linejoin="round"/>
<path d="M268.75 118.75H331.25V137.5C331.25 145.788 327.958 153.737 322.097 159.597C316.237 165.458 308.288 168.75 300 168.75C291.712 168.75 283.763 165.458 277.903 159.597C272.042 153.737 268.75 145.788 268.75 137.5V118.75Z" fill="#E4E4E4" stroke="#231F20" stroke-width="6.25" stroke-linecap="round" stroke-linejoin="round"/>
<path d="M206.25 118.75H268.75V137.5C268.75 145.788 265.458 153.737 259.597 159.597C253.737 165.458 245.788 168.75 237.5 168.75C229.212 168.75 221.263 165.458 215.403 159.597C209.542 153.737 206.25 145.788 206.25 137.5V118.75Z" fill="#E62234" stroke="#231F20" stroke-width="6.25" stroke-linecap="round" stroke-linejoin="round"/>
<path d="M143.75 118.75H206.25V137.5C206.25 145.788 202.958 153.737 197.097 159.597C191.237 165.458 183.288 168.75 175 168.75C166.712 168.75 158.763 165.458 152.903 159.597C147.042 153.737 143.75 145.788 143.75 137.5V118.75Z" fill="#E4E4E4" stroke="#231F20" stroke-width="6.25" stroke-linecap="round" stroke-linejoin="round"/>
<path d="M81.25 118.75H143.75V137.5C143.75 141.604 142.942 145.667 141.371 149.459C139.801 153.25 137.499 156.695 134.597 159.597C131.695 162.499 128.25 164.801 124.459 166.371C120.667 167.942 116.604 168.75 112.5 168.75C104.212 168.75 96.2634 165.458 90.4029 159.597C84.5424 153.737 81.25 145.788 81.25 137.5V118.75Z" fill="#E62234" stroke="#231F20" stroke-width="6.25" stroke-linecap="round" stroke-linejoin="round"/>
<path d="M68.75 6.25H331.25C337.88 6.25 344.239 8.88392 348.928 13.5723C353.616 18.2607 356.25 24.6196 356.25 31.25V56.25H43.75V31.25C43.75 24.6196 46.3839 18.2607 51.0723 13.5723C55.7607 8.88392 62.1196 6.25 68.75 6.25Z" fill="white" stroke="#231F20" stroke-width="6.25" stroke-linecap="round" stroke-linejoin="round"/>
<path d="M393.75 118.75H81.25L43.75 56.25H356.25L393.75 118.75Z" fill="white" stroke="#231F20" stroke-width="6.25" stroke-linecap="round" stroke-linejoin="round"/>
<path d="M106.25 56.25H43.75L81.25 118.75H143.75L106.25 56.25Z" fill="#FF3446" stroke="#231F20" stroke-width="6.25" stroke-linecap="round" stroke-linejoin="round"/>
<path d="M168.75 56.25H106.25L143.75 118.75H206.25L168.75 56.25Z" fill="white" stroke="#231F20" stroke-width="6.25" stroke-linecap="round" stroke-linejoin="round"/>
<path d="M231.25 56.25H168.75L206.25 118.75H268.75L231.25 56.25Z" fill="#FF3446" stroke="#231F20" stroke-width="6.25" stroke-linecap="round" stroke-linejoin="round"/>
<path d="M293.75 56.25H231.25L268.75 118.75H331.25L293.75 56.25Z" fill="white" stroke="#231F20" stroke-width="6.25" stroke-linecap="round" stroke-linejoin="round"/>
<path d="M356.25 56.25H293.75L331.25 118.75H393.75L356.25 56.25Z" fill="#FF3446" stroke="#231F20" stroke-width="6.25" stroke-linecap="round" stroke-linejoin="round"/>
<path d="M43.75 368.75H393.75C393.75 375.38 391.116 381.739 386.428 386.428C381.739 391.116 375.38 393.75 368.75 393.75H68.75C62.1196 393.75 55.7607 391.116 51.0723 386.428C46.3839 381.739 43.75 375.38 43.75 368.75Z" fill="#666666" stroke="#231F20" stroke-width="6.25" stroke-linecap="round" stroke-linejoin="round"/>
<path d="M75 25H325C326.658 25 328.247 25.6585 329.419 26.8306C330.592 28.0027 331.25 29.5924 331.25 31.25V37.5H68.75V31.25C68.75 29.5924 69.4085 28.0027 70.5806 26.8306C71.7527 25.6585 73.3424 25 75 25Z" fill="#E4E4E4" stroke="#E4E4E4" stroke-width="6.25" stroke-linecap="round" stroke-linejoin="round"/>
<path d="M268.75 368.75H352.083L367.579 244.784C367.726 243.611 367.621 242.421 367.273 241.292C366.924 240.163 366.339 239.121 365.558 238.235C364.776 237.349 363.814 236.64 362.737 236.154C361.66 235.668 360.492 235.417 359.31 235.417H292.773C290.742 235.417 288.781 236.159 287.258 237.503C285.736 238.847 284.756 240.701 284.504 242.716L268.75 368.75Z" stroke="#231F20" stroke-width="6.25" stroke-linecap="round" stroke-linejoin="round"/>
<path d="M271.354 347.917L284.504 242.716C284.756 240.701 285.735 238.847 287.258 237.503C288.781 236.159 290.742 235.417 292.773 235.417H359.31C360.492 235.417 361.66 235.668 362.737 236.154C363.814 236.64 364.775 237.349 365.557 238.235C366.339 239.121 366.924 240.163 367.272 241.292C367.621 242.421 367.725 243.611 367.579 244.784L354.688 347.917H271.354Z" fill="#054828" stroke="#231F20" stroke-width="6.25" stroke-linecap="round" stroke-linejoin="round"/>
<path d="M385.417 368.75H302.083L286.588 244.784C286.441 243.611 286.545 242.421 286.894 241.292C287.243 240.163 287.827 239.121 288.609 238.235C289.391 237.349 290.353 236.64 291.43 236.154C292.507 235.668 293.675 235.417 294.856 235.417H361.394C363.425 235.417 365.386 236.159 366.909 237.503C368.431 238.847 369.411 240.701 369.663 242.716L385.417 368.75Z" stroke="#231F20" stroke-width="6.25" stroke-linecap="round" stroke-linejoin="round"/>
<path d="M385.417 368.75H302.083L286.588 244.784C286.441 243.611 286.545 242.421 286.894 241.292C287.243 240.163 287.827 239.121 288.609 238.235C289.391 237.349 290.353 236.64 291.43 236.154C292.507 235.668 293.675 235.417 294.856 235.417H361.394C363.425 235.417 365.386 236.159 366.909 237.503C368.431 238.847 369.411 240.701 369.663 242.716L385.417 368.75Z" stroke="#231F20" stroke-width="6.25" stroke-linecap="round" stroke-linejoin="round"/>
<path d="M382.813 347.917L369.663 242.716C369.411 240.701 368.431 238.847 366.909 237.503C365.386 236.159 363.425 235.417 361.394 235.417H294.856C293.675 235.417 292.507 235.668 291.43 236.154C290.353 236.64 289.391 237.349 288.609 238.235C287.827 239.121 287.243 240.163 286.894 241.292C286.545 242.421 286.441 243.611 286.588 244.784L299.479 347.917H382.813Z" fill="#21CD62" stroke="#231F20" stroke-width="6.25" stroke-linecap="round" stroke-linejoin="round"/>
<path d="M358.333 310.417H317.187" stroke="white" stroke-width="6.25" stroke-linecap="round" stroke-linejoin="round"/>
<path d="M341.406 256.25H320.573" stroke="white" stroke-width="6.25" stroke-linecap="round" stroke-linejoin="round"/>
<path d="M354.167 277.083H313.021" stroke="white" stroke-width="6.25" stroke-linecap="round" stroke-linejoin="round"/>
<path d="M356.25 293.75H315.104" stroke="white" stroke-width="6.25" stroke-linecap="round" stroke-linejoin="round"/>
<path d="M319.271 327.083H360.417" stroke="white" stroke-width="6.25" stroke-linecap="round" stroke-linejoin="round"/>
<path d="M150 241.91C152.642 241.91 155.175 242.96 157.043 244.828C158.911 246.696 159.961 249.229 159.961 251.871V269.206C159.961 270.514 159.703 271.809 159.203 273.018C158.702 274.226 157.968 275.324 157.043 276.249C156.118 277.174 155.02 277.908 153.812 278.408C152.603 278.909 151.308 279.167 150 279.167" stroke="#231F20" stroke-width="6.25" stroke-linecap="round" stroke-linejoin="round"/>
<path d="M110.671 264.38L93.1403 278.404" stroke="white" stroke-width="6.25" stroke-linecap="round" stroke-linejoin="round"/>
<path d="M95.3125 297.917L89.0879 302.896" stroke="white" stroke-width="6.25" stroke-linecap="round" stroke-linejoin="round"/>
<path d="M128.721 271.19L106.268 289.152" stroke="white" stroke-width="6.25" stroke-linecap="round" stroke-linejoin="round"/>
<path d="M294.335 212.144L288.681 216.667" stroke="white" stroke-width="6.25" stroke-linecap="round" stroke-linejoin="round"/>
<path d="M323.847 188.533L305.29 203.379" stroke="white" stroke-width="6.25" stroke-linecap="round" stroke-linejoin="round"/>
</svg>
