<svg width="400" height="400" viewBox="0 0 400 400" fill="none" xmlns="http://www.w3.org/2000/svg">
<path d="M254.374 312C254.358 311.174 254.424 311.296 254.174 311.296C254.227 311.534 254.294 311.769 254.374 312Z" fill="#FFE497"/>
<path d="M231.944 279.704C232.064 279.799 232.153 279.927 232.202 280.071C232.252 280.216 232.259 280.372 232.222 280.52C231.714 282.502 231.188 285.6 233.306 286.86C235.158 287.966 238.604 286.766 240.236 285.25C240.347 285.148 240.487 285.083 240.636 285.062C241.631 281.865 243.235 278.889 245.358 276.3C245.394 274.9 245.542 273.752 245.542 273.752C244.178 274.366 242.677 274.613 241.188 274.47C237.61 273.566 235.132 268.6 237.65 263.23C238.253 261.655 239.171 260.22 240.347 259.012C241.523 257.804 242.934 256.848 244.492 256.204C245.161 255.982 245.869 255.907 246.569 255.984C247.27 256.062 247.945 256.291 248.548 256.654C251.932 258.72 249.864 264.358 249.864 264.358C251.838 263.28 252.948 263.11 253.464 263.466L253.25 251.936C253.158 251.87 253.082 251.783 253.03 251.682C252.977 251.581 252.949 251.47 252.948 251.356C251.968 226.062 252.272 225.458 250.854 223.118C250.202 222.055 249.308 221.161 248.245 220.509C247.183 219.857 245.981 219.464 244.738 219.364C244.518 219.412 209.726 226.11 204.174 228.814L202.234 229.9C199.296 231.736 196.893 234.312 195.265 237.37C193.637 240.428 192.842 243.86 192.96 247.322V346.908C214.347 344.016 235.163 337.862 254.684 328.66L254.434 315.272C253.488 314.131 252.853 312.765 252.59 311.306L240.25 311.38C239.494 311.38 239.426 310.402 239.472 310.602C239.116 307.376 238.816 304.142 238.708 300.898C229.308 303.736 215.796 293.344 219.834 279.574C220.144 278.52 220.948 276.078 221.944 275.574C222.972 275.036 223.832 275.788 231.944 279.704Z" fill="#FFE497"/>
<path d="M250.6 268.49C253.43 276.054 252.212 274.66 253.678 275.16L253.504 265.828C253.297 266.488 252.919 267.082 252.41 267.549C251.9 268.016 251.276 268.341 250.6 268.49Z" fill="#FFE497"/>
<path d="M253.464 263.466C252.938 263.11 251.828 263.28 249.864 264.358C253.276 255.058 242.986 251.842 237.65 263.23C235.136 268.598 237.606 273.566 241.188 274.47C242.677 274.614 244.178 274.367 245.542 273.752C245.542 273.752 245.394 274.902 245.358 276.3C245.32 277.806 245.358 281.018 246.858 281.27C249.112 281.646 253.434 279.39 253.434 277.698C252.752 274.558 251.809 271.481 250.616 268.498C252.976 268.254 254.624 264.248 253.464 263.466Z" fill="#CC6666"/>
<path d="M197.2 28.18C194.356 26.3388 191.021 25.4017 187.635 25.492C184.248 25.5824 180.968 26.6959 178.226 28.686C154.528 45.92 137.38 75.946 127.358 103.956C134.936 106.6 180.774 120.72 249.61 102.706C239.218 73.936 223.094 43.948 197.2 28.18Z" fill="#F76559"/>
<path d="M108.668 243.4C108.302 261.696 107.566 310.626 116.098 326.836C125.244 344.216 165.968 353.696 191.404 348.036V258.344C184.718 259.016 143.064 262.262 108.668 243.4Z" fill="#FF8684"/>
<path d="M207.318 125.146C207.374 125.249 207.408 125.363 207.417 125.479C207.426 125.596 207.41 125.714 207.37 125.824C207.33 125.934 207.266 126.035 207.184 126.118C207.102 126.202 207.003 126.268 206.894 126.31C181.708 135.726 182.264 173.046 207.44 181.864C207.568 181.905 207.682 181.981 207.771 182.082C207.859 182.184 207.918 182.307 207.942 182.44C226.61 188.59 245.612 174.04 245.612 153.684C245.612 133 226.056 118.472 207.318 125.146ZM230.548 134.486C230.313 134.934 229.944 135.296 229.491 135.521C229.038 135.746 228.526 135.823 228.028 135.74C227.529 135.656 227.069 135.418 226.714 135.058C226.359 134.699 226.127 134.236 226.05 133.736C225.973 133.237 226.056 132.726 226.287 132.276C226.518 131.826 226.885 131.461 227.336 131.232C227.786 131.003 228.298 130.923 228.797 131.002C229.296 131.081 229.758 131.315 230.116 131.672C230.536 131.996 230.815 132.468 230.896 132.992C230.976 133.516 230.852 134.051 230.548 134.486ZM236.18 170.762C235.22 172.008 233.98 169.838 234.274 169.468C239.968 162.084 240.788 146.868 233.704 137.212C233.104 136.402 235.286 135.192 235.874 135.992C242.908 145.586 243.722 160.958 236.18 170.762Z" fill="#9CF0F0"/>
<path d="M382.358 261.656C378.1 258.198 372.665 256.528 367.2 257C365.029 251.702 361.476 247.084 356.912 243.629C352.347 240.173 346.938 238.006 341.25 237.354C340.678 233.571 339.044 230.029 336.538 227.139C334.031 224.248 330.756 222.129 327.092 221.028C327.58 191.862 287.81 183.45 276.04 209.56C275.64 210.466 276.972 211.258 277.384 210.346C288.818 184.97 326.584 194.132 325.534 221.602C325.535 221.772 325.592 221.937 325.694 222.072C325.797 222.207 325.941 222.305 326.104 222.352C329.679 223.329 332.886 225.34 335.322 228.132C337.759 230.924 339.316 234.374 339.8 238.048C339.808 238.252 339.893 238.445 340.038 238.59C340.183 238.734 340.376 238.818 340.58 238.826C346.167 239.376 351.493 241.459 355.971 244.845C360.448 248.231 363.903 252.788 365.954 258.014C366.002 258.177 366.101 258.32 366.237 258.423C366.372 258.526 366.536 258.583 366.706 258.586C387.216 256.334 396.538 282.616 380.094 293.904C376.122 296.617 371.295 297.784 366.522 297.186C365.522 297.064 365.54 298.62 366.522 298.74C387.418 301.282 398.462 274.77 382.358 261.656Z" fill="#AC47F5"/>
<path d="M349.364 302.716C350.742 300.564 351.485 298.066 351.507 295.511C351.53 292.956 350.831 290.446 349.492 288.269C348.152 286.093 346.226 284.339 343.934 283.208C341.642 282.077 339.078 281.615 336.536 281.876C339.904 264.464 325.35 254.894 315.206 260.118C314.316 260.576 315.104 261.918 315.992 261.462C325.252 256.69 338.708 266.122 334.82 282.55C334.79 282.682 334.794 282.819 334.831 282.949C334.869 283.079 334.938 283.197 335.034 283.293C335.129 283.388 335.248 283.458 335.377 283.496C335.507 283.534 335.644 283.538 335.776 283.508C338.227 283.09 340.748 283.436 342.996 284.499C345.244 285.562 347.11 287.291 348.342 289.451C349.574 291.611 350.112 294.097 349.883 296.573C349.653 299.049 348.668 301.395 347.06 303.292C346.586 303.844 347.024 304.842 347.816 304.592C349.387 304.081 351.073 304.036 352.669 304.462C354.265 304.889 355.703 305.77 356.809 306.998C357.915 308.225 358.641 309.747 358.9 311.379C359.158 313.011 358.938 314.683 358.266 316.192C357.866 317.098 359.198 317.892 359.608 316.98C360.373 315.36 360.69 313.565 360.528 311.781C360.365 309.997 359.728 308.289 358.683 306.834C357.638 305.379 356.223 304.23 354.585 303.506C352.946 302.781 351.144 302.509 349.364 302.716Z" fill="#AC47F5"/>
<path d="M338.848 288.588C338.642 288.588 338.444 288.67 338.298 288.816C338.152 288.962 338.07 289.16 338.07 289.366C338.07 289.572 338.152 289.77 338.298 289.916C338.444 290.062 338.642 290.144 338.848 290.144C342.048 289.888 342.99 293.5 343.388 296.662C343.398 296.862 343.485 297.05 343.63 297.188C343.775 297.326 343.967 297.403 344.167 297.403C344.367 297.403 344.559 297.326 344.704 297.188C344.849 297.05 344.936 296.862 344.946 296.662C344.86 294.678 344.301 292.744 343.316 291.02C342.846 290.262 342.187 289.639 341.404 289.213C340.62 288.787 339.74 288.571 338.848 288.588ZM381.522 280.462C382.314 277.39 381.908 274.132 380.389 271.347C378.869 268.562 376.348 266.459 373.336 265.462C373.14 265.417 372.934 265.449 372.762 265.552C372.589 265.655 372.462 265.82 372.409 266.014C372.355 266.208 372.378 266.415 372.474 266.592C372.569 266.769 372.729 266.902 372.92 266.964C375.538 267.843 377.726 269.681 379.044 272.108C380.362 274.535 380.711 277.372 380.022 280.046C379.967 280.245 379.993 280.458 380.095 280.637C380.196 280.817 380.365 280.949 380.564 281.004C380.763 281.059 380.976 281.033 381.155 280.931C381.335 280.83 381.467 280.661 381.522 280.462ZM302.736 202.984C301.736 203.032 301.736 204.584 302.736 204.54C305.184 204.484 307.565 205.336 309.421 206.933C311.276 208.53 312.475 210.758 312.784 213.186C312.874 214.174 314.43 214.186 314.338 213.186C314.023 210.346 312.659 207.725 310.513 205.838C308.367 203.95 305.593 202.933 302.736 202.984ZM281.302 183.612C285.166 177.746 290.561 173.049 296.902 170.028C297.806 169.598 297.018 168.256 296.118 168.686C289.54 171.837 283.948 176.727 279.948 182.826C279.4 183.666 280.754 184.446 281.302 183.612ZM292.934 183.106C296.091 180.361 299.777 178.293 303.764 177.03C304.716 176.73 304.31 175.23 303.352 175.53C299.109 176.874 295.189 179.076 291.834 182C291.078 182.664 292.18 183.762 292.934 183.106ZM102.502 227.922C97.5963 226.437 92.3892 226.25 87.3896 227.38C82.3901 228.51 77.7691 230.917 73.9782 234.367C70.1873 237.816 67.3562 242.19 65.7615 247.062C64.1668 251.933 63.8631 257.134 64.8801 262.158C61.2474 264.007 58.1799 266.8 56.0001 270.244C20.9601 259.456 -5.15594 302.348 19.8481 328.63C17.9007 332.115 16.8686 336.038 16.8481 340.03C16.8481 340.236 16.93 340.434 17.0759 340.58C17.2218 340.726 17.4197 340.808 17.6261 340.808C17.8324 340.808 18.0303 340.726 18.1762 340.58C18.3221 340.434 18.4041 340.236 18.4041 340.03C18.4188 336.115 19.4772 332.275 21.4701 328.906C21.553 328.757 21.5859 328.585 21.564 328.415C21.542 328.245 21.4664 328.087 21.3481 327.964C-3.39795 302.792 22.1481 260.828 56.1321 271.898C56.2974 271.942 56.4725 271.93 56.6309 271.866C56.7893 271.801 56.9224 271.687 57.0101 271.54C59.1659 267.935 62.3416 265.05 66.1361 263.248C66.2815 263.159 66.3947 263.026 66.4591 262.868C66.5236 262.71 66.5358 262.535 66.4941 262.37C65.437 257.581 65.6515 252.599 67.1162 247.919C68.5809 243.239 71.2448 239.024 74.8433 235.692C78.4417 232.36 82.8493 230.028 87.6282 228.928C92.4071 227.827 97.3908 227.996 102.084 229.418C102.278 229.46 102.481 229.426 102.651 229.324C102.82 229.222 102.945 229.058 102.998 228.867C103.052 228.676 103.03 228.472 102.938 228.296C102.846 228.12 102.69 227.987 102.502 227.922ZM94.8661 278.44C79.05 275.128 69.0501 284.168 69.4921 295.266C66.8102 295.062 64.1171 295.473 61.6186 296.469C59.12 297.464 56.8821 299.018 55.0757 301.011C53.2693 303.003 51.9423 305.383 51.1961 307.967C50.4499 310.551 50.3042 313.271 50.7701 315.92C50.9341 316.904 52.4341 316.488 52.2701 315.506C51.8676 313.081 52.0256 310.596 52.7319 308.241C53.4383 305.887 54.6742 303.725 56.3451 301.922C58.016 300.119 60.0774 298.722 62.3715 297.839C64.6656 296.956 67.1314 296.609 69.5801 296.826C69.7801 296.802 69.5121 297.47 70.3221 299.898C70.6361 300.844 72.1401 300.438 71.8221 299.484C70.8708 296.644 70.783 293.586 71.5698 290.697C72.3565 287.807 73.9825 285.216 76.2421 283.25C83.2241 277.222 97.4941 278.744 100.008 283.424C100.482 284.306 101.826 283.522 101.352 282.64C100.644 281.508 99.6963 280.545 98.5756 279.82C97.4549 279.094 96.1886 278.623 94.8661 278.44Z" fill="#AC47F5"/>
<path d="M29.3341 282.964C26.6473 284.164 24.3854 286.147 22.8445 288.654C21.3036 291.161 20.5555 294.075 20.6981 297.014C20.7621 298.014 22.3161 298.014 22.2541 297.014C22.1161 294.347 22.7954 291.702 24.2009 289.431C25.6065 287.161 27.6716 285.374 30.1201 284.308C31.0381 283.918 30.2461 282.576 29.3341 282.964ZM76.8581 272.17C77.0581 273.15 78.5621 272.736 78.3581 271.756C78.1404 270.75 78.2013 269.703 78.5342 268.728C78.8672 267.754 79.4596 266.889 80.2477 266.226C81.0358 265.563 81.9898 265.128 83.0069 264.967C84.024 264.806 85.0658 264.925 86.0201 265.312C86.7181 265.572 87.1561 264.712 86.8981 264.17C81.5701 252.806 90.9541 242.586 99.9261 245.402C100.882 245.704 101.294 244.202 100.34 243.902C90.9401 240.952 80.3101 250.808 84.9401 263.452C83.7809 263.275 82.5962 263.385 81.4892 263.772C80.3822 264.158 79.3867 264.81 78.5896 265.67C77.7924 266.53 77.2179 267.572 76.9161 268.705C76.6142 269.838 76.5943 271.028 76.8581 272.17ZM72.5581 212.382C80.2716 210.547 88.3217 210.673 95.9741 212.748C96.1712 212.797 96.3796 212.767 96.555 212.665C96.7303 212.562 96.8585 212.395 96.9123 212.199C96.9661 212.003 96.9412 211.794 96.8428 211.616C96.7445 211.439 96.5806 211.306 96.3861 211.248C88.4627 209.104 80.1286 208.978 72.1441 210.882C71.1701 211.114 71.5841 212.614 72.5581 212.382ZM63.9501 224.11C69.0395 221.206 74.8462 219.801 80.7001 220.056C81.7001 220.1 81.7001 218.544 80.7001 218.5C74.5699 218.245 68.492 219.723 63.1641 222.766C62.9859 222.87 62.8563 223.041 62.804 223.241C62.7517 223.44 62.7809 223.653 62.8851 223.831C62.9893 224.009 63.1601 224.139 63.3598 224.191C63.5595 224.243 63.7719 224.214 63.9501 224.11ZM149.92 350.538C138.224 345.07 124.888 352.156 122.646 362.8C116.468 360.588 108.512 364.648 106.264 375.152C106.064 376.128 107.554 376.552 107.764 375.566C109.84 365.87 116.876 362.262 122.392 364.346C122.049 366.801 122.631 369.297 124.026 371.346C124.608 372.146 125.958 371.374 125.37 370.562C118.868 361.602 133.608 344.604 149.136 351.872C150.038 352.302 150.828 350.962 149.92 350.538ZM163.904 352.734C162.231 352.313 160.463 352.494 158.909 353.245C157.355 353.995 156.114 355.268 155.404 356.84C154.693 358.412 154.557 360.184 155.02 361.846C155.483 363.509 156.515 364.955 157.936 365.934C158.756 366.512 159.536 365.166 158.72 364.59C157.614 363.808 156.817 362.664 156.467 361.356C156.117 360.047 156.235 358.658 156.802 357.428C157.368 356.198 158.347 355.205 159.569 354.621C160.791 354.038 162.179 353.9 163.492 354.232C164.464 354.472 164.878 352.972 163.904 352.734Z" fill="#AC47F5"/>
<path d="M134.578 355.722C133.255 356.63 132.153 357.822 131.351 359.212C130.55 360.601 130.07 362.153 129.946 363.752C129.946 363.958 130.028 364.156 130.174 364.302C130.32 364.448 130.518 364.53 130.724 364.53C130.93 364.53 131.128 364.448 131.274 364.302C131.42 364.156 131.502 363.958 131.502 363.752C131.614 362.422 132.018 361.133 132.685 359.977C133.353 358.821 134.266 357.826 135.362 357.064C135.536 356.956 135.662 356.786 135.714 356.588C135.766 356.39 135.74 356.179 135.642 356C135.537 355.823 135.366 355.694 135.167 355.642C134.968 355.59 134.756 355.619 134.578 355.722Z" fill="#AC47F5"/>
<path d="M132.2 301.936L97.0881 302.772L105.534 306.67C106.868 306.802 102.788 306.954 141.298 304.76L132.2 301.936ZM94.1821 303.14C92.7821 307.09 76.7981 352.578 76.7261 352.778L88.2221 361.398C89.1161 358.774 85.3721 370.516 104.986 308.138C104.858 308.088 106.016 308.6 94.1821 303.14Z" fill="#F76559"/>
<path d="M309.26 219.818C306.762 218.282 307.366 218.692 272.994 217.418C270.668 157.658 249.762 55.538 196.706 26.076C193.832 24.5071 190.586 23.7498 187.314 23.8855C184.043 24.0211 180.87 25.0445 178.136 26.846C174.438 29.426 170.962 32.3114 167.746 35.472C135.4 66 119.146 113.868 112.476 158.022C107.138 193.362 105.822 264.262 107.97 294.068C108.042 295.068 109.598 295.068 109.526 294.068C107.466 265.886 109.026 206.11 111.29 180.93C116.184 126.462 134.752 60.302 178.222 28.686C180.964 26.695 184.245 25.581 187.633 25.4906C191.02 25.4003 194.356 26.3379 197.2 28.18C249.712 60.156 268.048 156.198 271.444 217.366L262.916 217.05C261.916 217.014 261.916 218.57 262.916 218.606C307.494 220.24 306.436 219.938 308.406 221.118C309.407 221.725 310.232 222.583 310.8 223.606C311.368 224.63 311.66 225.784 311.646 226.954C311.646 227.438 310.464 321.24 310.462 321.354C310.451 322.318 310.232 323.268 309.82 324.139C309.408 325.01 308.813 325.782 308.075 326.403C307.338 327.023 306.475 327.477 305.546 327.733C304.617 327.99 303.643 328.042 302.692 327.888L270.262 324.974C269.262 324.884 269.262 326.442 270.262 326.53L302.862 329.46C304.006 329.59 305.165 329.478 306.264 329.132C307.363 328.787 308.377 328.214 309.24 327.452C310.104 326.69 310.798 325.756 311.279 324.709C311.759 323.662 312.014 322.526 312.028 321.374C312.028 321.174 313.212 227.13 313.214 226.928C313.218 225.504 312.856 224.102 312.164 222.857C311.472 221.613 310.472 220.566 309.26 219.818Z" fill="#1D1D1B"/>
<path d="M252.108 222.186C251.306 220.924 250.218 219.868 248.932 219.104C247.647 218.34 246.2 217.888 244.708 217.786C243.518 217.751 242.329 217.891 241.18 218.202C207.042 226.026 204.948 225.812 200.072 229.46C197.593 231.312 195.54 233.675 194.052 236.389C192.564 239.102 191.676 242.104 191.448 245.19C191.346 246.654 191.398 349.176 191.398 349.176C191.398 349.382 191.48 349.58 191.626 349.726C191.772 349.872 191.97 349.954 192.176 349.954C192.382 349.954 192.58 349.872 192.726 349.726C192.872 349.58 192.954 349.382 192.954 349.176V247.316C192.841 243.855 193.638 240.424 195.266 237.367C196.893 234.31 199.294 231.733 202.228 229.894C206.192 227.384 205.628 227.954 241.25 219.782C242.006 219.576 242.777 219.43 243.556 219.344C244.999 219.249 246.441 219.55 247.726 220.214C249.011 220.878 250.09 221.88 250.848 223.112C253.062 226.77 252.218 251.178 253.248 251.93C253.359 252.025 253.494 252.085 253.638 252.105C253.782 252.125 253.929 252.103 254.061 252.042C254.193 251.981 254.305 251.883 254.383 251.761C254.461 251.638 254.502 251.495 254.502 251.35C253.474 225.368 253.85 224.938 252.108 222.186ZM258.636 220.584C258.574 219.584 257.02 219.584 257.082 220.584L258.918 250.436C258.978 251.436 260.536 251.436 260.474 250.436C260.354 248.496 258.8 223.2 258.636 220.584Z" fill="#1D1D1B"/>
<path d="M320.55 317.45L310.92 304.952C310.52 304.537 309.98 304.284 309.405 304.241C308.83 304.199 308.259 304.37 307.802 304.722L303.054 308.384C300.475 305.556 297.211 303.44 293.576 302.24C294.496 302.856 295.474 303.712 295.496 304.58C297.837 305.828 299.968 307.435 301.812 309.342L292.49 316.53C290.95 314.344 287.44 309.176 287.422 306.502C286.862 306.176 286.484 305.932 286.484 305.932C286.484 305.932 287.612 308.732 286.512 309.332C287.761 312.228 289.349 314.966 291.244 317.488L287.352 320.488C286.9 320.836 286.59 321.337 286.482 321.898C286.374 322.458 286.474 323.039 286.764 323.53L296.118 335.352C296.277 335.62 296.487 335.853 296.736 336.039C296.986 336.225 297.27 336.359 297.572 336.433C297.874 336.508 298.188 336.521 298.495 336.473C298.803 336.425 299.097 336.315 299.362 336.152L320.092 321.058C320.388 320.874 320.64 320.627 320.828 320.333C321.016 320.04 321.137 319.709 321.18 319.363C321.224 319.017 321.191 318.666 321.081 318.335C320.972 318.004 320.791 317.702 320.55 317.45Z" fill="#D1A9FF"/>
<path d="M295.822 301.952C296.342 300.986 294.966 298.366 287.022 298.152C286.332 301.235 284.511 303.947 281.918 305.752C285.654 311.504 288.062 309.882 286.474 305.952C290.966 308.854 292.202 308.232 292.444 307.866C293.364 306.488 291.526 304.42 291.526 304.42C291.526 304.42 294.202 306.332 294.97 305.646C296.604 304.19 294.004 302.34 292.042 301.386C292.474 301.568 295.326 302.872 295.822 301.952ZM232.266 273.378C233.852 274.534 232.666 277.412 231.448 279.054C231.182 279.418 230.894 279.186 231.866 279.642C231.894 279.66 231.92 279.681 231.944 279.704C232.778 278.542 236.622 273.058 235.3 272.33C234.302 271.778 233 272.712 232.266 273.378ZM231.074 274.618C230.155 274.964 229.311 275.482 228.588 276.146C227.788 276.786 226.824 275.658 227.534 275.016C228.61 274.036 230.554 272.638 231.904 273.17C233.372 267.57 230.426 267.846 227.646 272.37C228.458 268.37 226.246 265.608 222.446 275.33L222.624 275.416C223.727 275.668 224.777 276.111 225.726 276.726L230.024 278.758C230.004 278.673 230.002 278.586 230.016 278.5C230.031 278.415 230.063 278.333 230.11 278.26C231.054 276.964 232.102 274.458 231.074 274.618Z" fill="#CC6666"/>
<path d="M264.54 310.6H264.122C262.736 311.464 261.694 311.258 254.172 311.294C254.461 312.723 255.204 314.02 256.29 314.993C257.376 315.966 258.746 316.562 260.198 316.694C260.397 316.749 260.566 316.881 260.668 317.06C260.77 317.239 260.796 317.452 260.741 317.651C260.686 317.85 260.554 318.019 260.375 318.121C260.196 318.222 259.983 318.249 259.784 318.194C258.003 317.971 256.341 317.179 255.044 315.938C253.747 314.696 252.885 313.07 252.584 311.3L240.244 311.374C240.044 311.367 239.854 311.286 239.711 311.146C239.568 311.006 239.483 310.818 239.472 310.618C236.526 310.774 225.872 312.018 221.672 321.818C216.772 333.25 235.348 348.558 235.348 348.558C235.348 348.558 244.532 348.358 247.186 346.516C247.186 346.516 234.734 330.392 238.408 324.268C241.322 319.414 245.196 318.612 249.42 320.718C247.872 319.032 246.292 317.366 244.596 315.836C243.85 315.164 244.954 314.068 245.694 314.736C258.884 326.632 276.036 353.536 275.916 354.548C278.05 354.716 284.082 354.936 286.582 352.436L264.54 310.6Z" fill="#AC47F5"/>
<path d="M238.708 300.898C238.88 306.054 239.526 310.826 239.478 310.624C239.489 310.824 239.574 311.012 239.717 311.152C239.86 311.292 240.05 311.373 240.25 311.38L252.59 311.306C252.886 313.078 253.747 314.707 255.045 315.949C256.342 317.192 258.007 317.981 259.79 318.2C259.989 318.255 260.202 318.229 260.381 318.127C260.561 318.025 260.692 317.856 260.747 317.657C260.802 317.458 260.776 317.245 260.674 317.066C260.572 316.887 260.403 316.755 260.204 316.7C258.753 316.567 257.383 315.97 256.297 314.997C255.212 314.025 254.469 312.728 254.178 311.3L261.624 311.254C262.401 311.314 263.178 311.143 263.857 310.761C264.536 310.379 265.087 309.803 265.438 309.108C266.14 307.544 265.874 307.488 262.12 293.762C268.072 298.068 274.237 302.074 280.59 305.762C280.79 305.896 281.026 305.965 281.266 305.961C281.506 305.957 281.739 305.879 281.934 305.738C284.58 303.892 286.423 301.107 287.086 297.95C287.123 297.817 287.124 297.677 287.089 297.544C287.053 297.411 286.984 297.289 286.886 297.192C280.322 291.754 261.034 276.914 252.802 274.9C253.156 276.088 253.326 276.9 253.282 276.7C253.546 276.836 263.788 280.224 285.456 298.024C284.838 300.561 283.343 302.797 281.234 304.336C274.798 301.026 258.034 289.044 252.284 284.82C251.474 284.22 250.698 285.578 251.498 286.164C251.698 286.31 258.272 291.04 260.12 292.346C260.3 293 264 306.412 264.15 307.07C264.275 307.584 264.204 308.125 263.952 308.59C263.699 309.054 263.283 309.408 262.784 309.582C262.3 309.748 263.26 309.674 240.95 309.818C239.816 299.316 239.28 288.678 244.822 279.672C245.844 278.02 245.26 279.692 245.354 276.298C245.206 276.416 245.072 276.55 244.954 276.698C243.058 279.224 241.594 282.047 240.622 285.052C239.505 285.906 238.251 286.566 236.914 287.004C233.24 288.004 230.728 286.324 232.218 280.51C232.258 280.345 232.245 280.171 232.181 280.014C232.117 279.856 232.006 279.723 231.862 279.632C230.886 279.174 231.168 279.432 231.444 279.044C234.768 274.55 232.464 270.522 227.53 275.006C227.394 275.149 227.318 275.338 227.317 275.536C227.316 275.733 227.39 275.923 227.525 276.067C227.659 276.212 227.844 276.299 228.041 276.312C228.238 276.325 228.432 276.262 228.584 276.136C229.228 275.584 229.934 275.109 230.688 274.72C231.226 274.536 231.676 274.356 231.348 275.856C231.104 276.641 230.732 277.381 230.246 278.044C230.046 278.316 229.96 278.444 230.014 278.758C223.6 275.726 222.924 275.044 221.94 275.558C220.956 276.072 220.14 278.53 219.83 279.558C215.786 293.37 229.384 303.71 238.708 300.898ZM223.448 293.268C221.805 290.893 220.859 288.105 220.718 285.22C220.577 282.335 221.245 279.469 222.648 276.944C222.57 276.99 222.708 276.978 222.848 277.032C223.486 277.284 224.09 277.678 224.712 277.972L230.576 280.744C230.002 283.38 229.928 286.67 232.522 288.204C233.722 288.729 235.038 288.931 236.339 288.79C237.641 288.65 238.884 288.172 239.944 287.404C239.007 291.294 238.579 295.29 238.67 299.29C233.384 301.086 226.662 297.8 223.448 293.268ZM207.44 181.864C182.178 173.018 181.772 135.704 206.894 126.31C207.82 125.966 207.398 124.468 206.482 124.81C179.682 134.824 180.43 174.048 207.028 183.364C207.984 183.698 208.346 182.18 207.44 181.864ZM145.824 304.54C133.442 300.696 132.642 300.436 132.388 300.394C132.134 300.352 113.644 300.826 93.7181 301.296C93.5529 301.314 93.3958 301.377 93.2636 301.478C93.1315 301.579 93.0293 301.713 92.9681 301.868C92.8981 302.068 75.3081 352.12 75.0581 352.848C74.8081 353.576 74.6961 353.194 88.2741 363.372C88.5701 363.592 87.1561 363.736 104.488 360.694C104.618 360.659 104.737 360.59 104.833 360.494C104.928 360.399 104.997 360.28 105.032 360.15C105.432 358.898 118.084 318.418 118.202 318.028L146.076 318.928C146.282 318.926 146.479 318.843 146.624 318.698C146.769 318.552 146.852 318.356 146.854 318.15C146.364 304.518 146.612 304.784 145.824 304.54ZM132.19 301.94L141.288 304.764C98.8261 307.186 108.888 306.674 105.524 306.674L97.0781 302.776L132.19 301.94ZM88.2221 361.4L76.7261 352.78C76.8001 352.57 92.7841 307.06 94.1821 303.142C109.488 310.206 103.602 307.588 104.982 308.142C88.1361 361.722 89.2681 358.334 88.2221 361.4ZM103.642 359.272L89.8001 361.714C108.2 303.114 106 310.092 106.54 308.526L116.716 317.48C102.51 363.13 104.242 357.264 103.642 359.27V359.272ZM117.904 316.472L108.514 308.2C108.714 308.188 144.152 306.166 144.868 306.114C144.992 309.588 145.268 317.076 145.268 317.346L117.904 316.472ZM275.92 354.558C276.044 353.514 258.92 326.684 245.698 314.746C244.958 314.078 243.852 315.174 244.6 315.846C250.92 321.546 263.3 336.066 274.484 354.88C274.571 355.015 274.697 355.12 274.846 355.18C274.994 355.241 275.158 355.255 275.314 355.22C275.471 355.185 275.613 355.103 275.721 354.984C275.83 354.866 275.899 354.717 275.92 354.558ZM285.082 355.542C281.836 356.352 278.502 356.755 275.156 356.742C275.156 356.742 267.398 355.926 266.582 356.942C265.766 357.958 267.398 362.86 285.566 360.82C290.882 360.218 288.69 354.612 285.082 355.542ZM245.278 348.8C242.032 349.611 238.698 350.014 235.352 350C235.352 350 227.594 349.186 226.778 350.2C225.962 351.214 227.594 356.12 245.762 354.076C251.078 353.48 248.882 347.876 245.278 348.8ZM248.538 256.654C251.922 258.72 249.854 264.358 249.854 264.358C253.988 262.104 254.364 263.794 253.424 266.048C253.21 266.666 252.837 267.218 252.342 267.646C251.847 268.075 251.249 268.366 250.606 268.49C250.606 268.49 250.786 268.97 251.054 269.712C261.378 270.678 262.316 265.128 262.498 263.654C262.698 262.02 258.008 261.918 258.008 261.918C264.408 258.442 263.388 254.444 257.808 256.306C257.808 256.306 262.708 253.856 261.382 252.12C260.056 250.384 252.502 250.896 248.52 252.32C247.596 252.615 246.752 253.119 246.052 253.791C245.353 254.464 244.817 255.288 244.486 256.2C245.154 255.979 245.862 255.906 246.562 255.984C247.261 256.062 247.935 256.291 248.538 256.654ZM243.948 260.45C244.848 260.9 244.374 261.498 244.99 261.85C245.168 261.953 245.38 261.982 245.579 261.93C245.778 261.878 245.949 261.749 246.054 261.572C246.444 260.826 245.502 259.156 244.36 258.944C244.16 258.889 243.947 258.916 243.767 259.019C243.588 259.121 243.456 259.291 243.401 259.491C243.346 259.691 243.373 259.904 243.476 260.084C243.579 260.264 243.748 260.395 243.948 260.45ZM241.742 264.758C242.908 264.758 242.908 262.608 241.742 262.608C240.576 262.608 240.578 264.758 241.742 264.758ZM237.288 269.788C240.034 270.768 244.774 268.324 243.488 267.034C242.608 266.15 241.122 268.95 238.288 268.434C237.77 268.338 236.98 268.012 236.752 268.834C236.704 269.031 236.732 269.24 236.832 269.417C236.931 269.594 237.094 269.727 237.288 269.788ZM308.472 307.386L307.636 322.13L289.476 321.792C289.277 321.802 289.089 321.888 288.952 322.033C288.814 322.178 288.738 322.369 288.738 322.569C288.738 322.768 288.814 322.96 288.952 323.105C289.089 323.25 289.277 323.336 289.476 323.346L308.368 323.7C308.573 323.694 308.767 323.611 308.912 323.466C309.057 323.321 309.141 323.127 309.146 322.922L310.028 307.386C310.084 306.398 308.53 306.388 308.472 307.386Z" fill="#1D1D1B"/>
</svg>
