<svg width="400" height="400" viewBox="0 0 400 400" fill="none" xmlns="http://www.w3.org/2000/svg">
<path d="M233.224 203.892L213.624 199.218L128.642 111.432C115.502 117.988 104.674 128.395 97.6 141.264L133.36 180.102L92.242 170.302C84.11 182.918 80.614 196.182 82.442 210.242L186.72 238.022C195.45 247.488 199.642 252.846 207.962 257.622C216.512 262.524 230.424 267.968 245.814 263.94C247.744 263.678 239.456 221.8 233.224 203.892Z" fill="#B8FFD4"/>
<path d="M282.74 62.866L271.986 40.332C271.218 38.7148 270.138 37.2646 268.81 36.0646C267.48 34.8646 265.928 33.9382 264.242 33.3384C262.554 32.7384 260.766 32.4768 258.978 32.5684C257.19 32.66 255.438 33.1028 253.82 33.872L242.724 39.152L265.182 86.314L276.28 81.032C277.9 80.2668 279.352 79.189 280.556 77.8608C281.758 76.5324 282.686 74.9796 283.286 73.2916C283.886 71.6034 284.146 69.8134 284.054 68.0244C283.96 66.2352 283.514 64.4822 282.74 62.866ZM269.174 65.716C269.174 65.8168 269.134 65.9134 269.062 65.9846C268.992 66.056 268.894 66.096 268.794 66.096C268.694 66.096 268.596 66.056 268.526 65.9846C268.454 65.9134 268.414 65.8168 268.414 65.716V57.2L262.752 59.708C262.694 59.7288 262.632 59.736 262.572 59.7292C262.512 59.7222 262.452 59.7014 262.4 59.6684C262.35 59.6354 262.306 59.591 262.274 59.5384C262.242 59.486 262.224 59.427 262.218 59.366V50.288C262.218 50.1872 262.258 50.0906 262.33 50.0192C262.4 49.948 262.498 49.908 262.598 49.908C262.698 49.908 262.796 49.948 262.866 50.0192C262.938 50.0906 262.978 50.1872 262.978 50.288V58.8L268.642 56.292C268.698 56.269 268.758 56.2606 268.818 56.2672C268.878 56.2738 268.934 56.2954 268.984 56.33C269.038 56.3616 269.084 56.4058 269.116 56.4588C269.15 56.5116 269.17 56.5718 269.174 56.634V65.716Z" fill="#B8FFD4"/>
<path d="M313.446 165.32C313.668 166.242 313.692 167.2 313.522 168.132C316.15 166.963 318.544 165.328 320.59 163.306C318.27 164.181 315.88 164.855 313.446 165.32Z" fill="#E9E9E9"/>
<path d="M238.544 198.344C234.25 187.932 225.432 170.374 217.718 172.388C212.664 173.718 210.46 183.332 211.22 196.788L213.576 199.22L233.186 203.894C232.45 201.488 231.43 199.18 230.146 197.016C232.8 197.508 235.8 197.926 238.544 198.344Z" fill="#E9E9E9"/>
<path d="M94.6682 75.9C91.4002 81.716 90.1082 102.616 86.7642 113.864C85.4672 118.005 84.6262 122.276 84.2562 126.6C86.0514 129.562 88.339 132.197 91.0202 134.39C94.5018 125.73 99.5228 117.771 105.84 110.9C101.956 100.902 102.854 89.544 94.6682 75.9Z" fill="#E9E9E9"/>
<path d="M74.528 180.368C65.69 173.812 60.878 164.134 46.406 156.732C46.748 163.382 56.818 181.774 59.972 193.06C61.071 197.251 62.6388 201.306 64.646 205.146C67.7474 206.69 71.0894 207.692 74.528 208.11C72.868 198.937 72.868 189.541 74.528 180.368Z" fill="#E9E9E9"/>
<path d="M282.55 165.244C281.372 176.34 287.262 178.582 293.19 169.272C289.466 168.457 285.88 167.1 282.55 165.244Z" fill="#E9E9E9"/>
<path d="M290.264 146.698C292.164 147.61 295.28 148.37 296.04 147.838L297.18 145.064C295.356 142.86 292.582 144.2 290.264 146.698Z" fill="#E9E9E9"/>
<path d="M328.2 140.048C326.53 133.864 321.93 126.482 311.366 117.324C308.986 126.403 307.146 135.615 305.856 144.912C310.85 143.671 315.986 143.084 321.132 143.164C321.588 142.176 322.546 143.224 323.754 146.698C323.794 146.812 323.906 147.116 324.02 147.498C324.264 147.417 324.524 147.391 324.78 147.422C324.666 145.864 324.48 144.154 324.248 142.292C323.128 133.322 325.746 132.076 328.124 141.076C328.274 141.646 328.58 143.204 328.924 145.104C328.888 143.396 328.646 141.698 328.2 140.048Z" fill="#E9E9E9"/>
<path d="M323.098 204.652L321.198 217.686C321.198 217.686 326.86 210.466 328.836 207.086L323.098 204.652Z" fill="#E9E9E9"/>
<path d="M123.968 300.264L163.186 307.902L126.438 275.184L87.22 267.544L123.968 300.264Z" fill="#E9E9E9"/>
<path d="M163.109 307.902L199.667 283.924L156.801 278.718L141.561 288.712L163.109 307.902Z" fill="#E9E9E9"/>
<path d="M123.968 300.264L163.186 307.902L126.438 275.184L87.22 267.544L123.968 300.264Z" stroke="black" stroke-width="1.5" stroke-linejoin="round"/>
<path d="M163.109 307.902L199.667 283.924L156.801 278.718L141.561 288.712L163.109 307.902Z" stroke="black" stroke-width="1.5" stroke-linejoin="round"/>
<path d="M156.916 140.618C171.145 134.908 186.555 132.764 201.802 134.373C217.05 135.983 231.672 141.297 244.396 149.852" stroke="black" stroke-width="1.5" stroke-linecap="round" stroke-linejoin="round"/>
<path d="M114.05 175.504C116.142 172.386 118.413 169.392 120.85 166.536" stroke="black" stroke-width="1.5" stroke-linecap="round" stroke-linejoin="round"/>
<path d="M99.152 214.69C98.5722 218.96 98.2802 223.264 98.278 227.572C98.247 243.042 102.066 258.276 109.386 271.898" stroke="black" stroke-width="1.5" stroke-linecap="round" stroke-linejoin="round"/>
<path d="M283.462 248.126C280.014 263.474 272.76 277.706 262.368 289.514C251.974 301.322 238.776 310.324 223.992 315.692C209.206 321.06 193.306 322.62 177.759 320.23C162.61 317.9 148.27 311.892 135.991 302.74" stroke="black" stroke-width="1.5" stroke-linecap="round" stroke-linejoin="round"/>
<path d="M284.678 49.072C290.492 45.424 298.246 43.596 304.858 45.956C315.804 49.864 321.326 62.984 318.614 73.886C316.08 84.074 308.014 92.928 302.538 101.628C293.308 116.3 289.538 127.204 294.976 143.962" stroke="black" stroke-width="1.5" stroke-linecap="round" stroke-linejoin="round"/>
<path d="M275.558 47.78L280.232 57.546L283.538 55.946C284.434 55.5106 285.122 54.7412 285.456 53.8032C285.79 52.865 285.742 51.8334 285.324 50.93L283.924 47.966C283.488 47.0704 282.72 46.3816 281.782 46.0476C280.844 45.7136 279.812 45.7612 278.908 46.18L275.558 47.78Z" stroke="black" stroke-width="1.5" stroke-linecap="round" stroke-linejoin="round"/>
<path d="M265.22 86.314L242.762 39.152L220.492 49.756L242.952 96.916L265.22 86.314Z" stroke="black" stroke-width="1.5" stroke-linecap="round" stroke-linejoin="round"/>
<path d="M282.778 62.866L272.024 40.294C271.256 38.6768 270.176 37.2266 268.848 36.0268C267.518 34.8268 265.966 33.9004 264.28 33.3004C262.592 32.7004 260.804 32.4388 259.016 32.5304C257.228 32.622 255.474 33.065 253.858 33.834L242.762 39.152L265.22 86.314L276.318 81.032C277.936 80.2636 279.384 79.184 280.584 77.8552C281.784 76.5262 282.71 74.974 283.31 73.2872C283.91 71.6002 284.172 69.8116 284.08 68.0236C283.99 66.2354 283.546 64.483 282.778 62.866Z" stroke="black" stroke-width="1.5" stroke-linecap="round" stroke-linejoin="round"/>
<path d="M262.562 50.3124V59.1876L268.75 56.6876V65.75" stroke="black" stroke-width="1.5" stroke-linecap="round" stroke-linejoin="round"/>
<path d="M242.952 96.916L220.492 49.756L198.224 60.358L220.682 107.518L242.952 96.916Z" stroke="black" stroke-width="1.5" stroke-linecap="round" stroke-linejoin="round"/>
<path d="M181.35 83.502C180.581 81.885 180.139 80.1324 180.047 78.3442C179.956 76.556 180.218 74.7674 180.818 73.0804C181.418 71.3936 182.345 69.8414 183.545 68.5126C184.745 67.1838 186.195 66.1044 187.812 65.336L198.224 60.358L220.682 107.518L210.27 112.496C208.654 113.265 206.9 113.708 205.112 113.8C203.324 113.891 201.536 113.629 199.849 113.029C198.163 112.43 196.611 111.503 195.282 110.303C193.953 109.103 192.874 107.653 192.106 106.036L181.35 83.502Z" stroke="black" stroke-width="1.5" stroke-linecap="round" stroke-linejoin="round"/>
<path d="M186.71 238.018L82.4 210.238C80.576 196.178 84.072 182.914 92.2 170.298L133.356 180.098" stroke="black" stroke-width="1.5" stroke-linecap="round" stroke-linejoin="round"/>
<path d="M233.186 203.892L213.614 199.218" stroke="black" stroke-width="1.5" stroke-linecap="round" stroke-linejoin="round"/>
<path d="M243.94 250.026C237.358 251.274 230.56 250.682 224.292 248.316C216.158 245.396 208.892 240.472 203.164 234L107.322 127.6" stroke="black" stroke-width="1.5" stroke-linecap="round" stroke-linejoin="round"/>
<path d="M82.5081 195.19L167.328 217.002" stroke="black" stroke-width="1.5" stroke-linecap="round" stroke-linejoin="round"/>
<path d="M305.846 145.026C303.336 165.054 308.088 168.284 320.552 163.306" stroke="black" stroke-width="1.5" stroke-linecap="round" stroke-linejoin="round"/>
<path d="M229 215.14L128.616 111.446C115.487 118.002 104.668 128.404 97.6 141.264L195.684 247.784C199.231 251.676 203.358 254.996 207.92 257.626C216.488 262.542 230.406 267.972 245.81 263.944" stroke="black" stroke-width="1.5" stroke-linecap="round" stroke-linejoin="round"/>
<path d="M301.55 169.386C314.776 176.186 313.636 166.004 313.636 166.004L313.556 165.296" stroke="black" stroke-width="1.5" stroke-linecap="round" stroke-linejoin="round"/>
<path d="M312.952 169.652C311.052 178.392 274.684 201.004 221.214 172.768" stroke="black" stroke-width="1.5" stroke-linecap="round" stroke-linejoin="round"/>
<path d="M211.22 196.786C210.46 183.332 212.662 173.714 217.718 172.386C225.43 170.364 234.25 187.928 238.544 198.342C235.998 197.81 232.882 197.354 230.144 197.012" stroke="black" stroke-width="1.5" stroke-linecap="round" stroke-linejoin="round"/>
<path d="M94.668 75.9C93.642 74.152 92.768 73.16 92.122 73.24C88.09 73.744 87.072 96.614 83.648 108.088C82.3976 111.968 81.6424 115.991 81.4 120.06C81.8994 122.411 82.871 124.636 84.2558 126.6C84.5994 122.274 85.441 118.001 86.764 113.868C90.106 102.616 91.4 81.716 94.668 75.9Z" stroke="black" stroke-width="1.5" stroke-linecap="round" stroke-linejoin="round"/>
<path d="M105.84 110.9C103.256 104.25 102.888 98.13 101.204 91.824C99.706 86.2616 97.5098 80.911 94.6682 75.9C91.4002 81.716 90.0882 102.61 86.7642 113.864C85.4642 118.005 84.6232 122.276 84.2562 126.6C86.0514 129.562 88.339 132.197 91.0202 134.39C94.5012 125.729 99.5222 117.771 105.84 110.9Z" stroke="black" stroke-width="1.5" stroke-linecap="round" stroke-linejoin="round"/>
<path d="M91.02 134.386L97.594 141.264" stroke="black" stroke-width="1.5" stroke-linecap="round" stroke-linejoin="round"/>
<path d="M105.84 110.9L114.544 120.668" stroke="black" stroke-width="1.5" stroke-linecap="round" stroke-linejoin="round"/>
<path d="M46.3999 156.732C44.6139 155.818 43.3219 155.44 42.8279 155.858C39.7159 158.484 50.9999 178.326 54.2659 189.83C55.2939 193.774 56.7997 197.577 58.7499 201.156C60.4185 202.886 62.4227 204.256 64.6399 205.184C62.6321 201.344 61.0643 197.29 59.9659 193.098C56.8379 181.768 46.7479 163.382 46.3999 156.732Z" stroke="black" stroke-width="1.5" stroke-linecap="round" stroke-linejoin="round"/>
<path d="M74.528 180.368C68.79 176.112 65.176 171.138 60.428 166.726C56.192 162.818 51.481 159.458 46.406 156.726C46.748 163.376 56.806 181.772 59.972 193.054C61.0692 197.246 62.6372 201.3 64.646 205.14C67.7474 206.684 71.0894 207.686 74.528 208.104C72.8686 198.933 72.8686 189.539 74.528 180.368Z" stroke="black" stroke-width="1.5" stroke-linecap="round" stroke-linejoin="round"/>
<path d="M74.566 208.11L82.394 210.238" stroke="black" stroke-width="1.5" stroke-linecap="round" stroke-linejoin="round"/>
<path d="M74.528 180.368L85.51 183.522" stroke="black" stroke-width="1.5" stroke-linecap="round" stroke-linejoin="round"/>
<path d="M340.464 253.294C341.584 255.714 341.96 258.412 341.548 261.046C341.134 263.68 339.948 266.132 338.142 268.094C336.334 270.054 333.986 271.434 331.394 272.06C328.802 272.686 326.082 272.53 323.58 271.61C321.078 270.692 318.902 269.05 317.332 266.896C315.762 264.74 314.866 262.168 314.758 259.504C314.648 256.84 315.332 254.204 316.722 251.928C318.112 249.652 320.146 247.84 322.566 246.72C324.172 245.974 325.91 245.552 327.68 245.478C329.45 245.406 331.216 245.682 332.88 246.292C334.542 246.904 336.068 247.836 337.37 249.038C338.67 250.24 339.722 251.686 340.464 253.294Z" stroke="black" stroke-width="1.5" stroke-linecap="round" stroke-linejoin="round"/>
<path d="M324.39 250.634L328.228 258.956L336.398 255.194" stroke="black" stroke-width="1.5" stroke-linecap="round" stroke-linejoin="round"/>
<path d="M297.18 145.064C296.83 144.634 296.37 144.306 295.85 144.114C292.45 142.876 287.262 148.864 284.336 157.378C281.41 165.892 281.832 173.742 285.286 174.934C287.57 175.722 290.568 173.376 293.228 169.272" stroke="black" stroke-width="1.5" stroke-linecap="round" stroke-linejoin="round"/>
<path d="M295.85 144.114C286.126 141.846 276.524 139.081 267.084 135.83C256.216 132.066 238.048 137.768 246.828 158.594C251.122 168.778 263.548 180.444 273.506 186.486" stroke="black" stroke-width="1.5" stroke-linecap="round" stroke-linejoin="round"/>
<path d="M285.286 174.934L258.304 161.292" stroke="black" stroke-width="1.5" stroke-linecap="round" stroke-linejoin="round"/>
<path d="M308.126 164.104C307.29 165.168 306.46 166.2 305.656 167.104C301.958 171.27 292.278 170.562 282.512 165.28" stroke="black" stroke-width="1.5" stroke-linecap="round" stroke-linejoin="round"/>
<path d="M295.964 147.762C295.204 148.332 292.164 147.572 290.264 146.698" stroke="black" stroke-width="1.5" stroke-linecap="round" stroke-linejoin="round"/>
<path d="M302.5 142.784C302.538 142.366 302.614 139.584 302.652 139.212C302.842 132.524 301.304 133.67 298.928 140.542C296.91 145.995 294.602 151.336 292.012 156.542" stroke="black" stroke-width="1.5" stroke-linecap="round" stroke-linejoin="round"/>
<path d="M308.544 129.37C307.898 127.014 306.002 128.992 304.44 134.994C303.152 139.936 302.158 144.194 301.17 147.42" stroke="black" stroke-width="1.5" stroke-linecap="round" stroke-linejoin="round"/>
<path d="M305.694 146.432C303.516 146.483 301.398 147.141 299.574 148.332" stroke="black" stroke-width="1.5" stroke-linecap="round" stroke-linejoin="round"/>
<path d="M360.682 210.4L333.882 196.378C336.01 184.71 342.736 173.12 352.282 167.306C352.282 167.306 374.244 181.598 385.61 193.034C396.834 204.326 387.81 228.252 360.794 221.42C351.88 219.152 340.064 212.182 328.836 207.07C305.854 243.87 263.022 257.9 249.636 262.766C248.35 263.232 247.07 263.622 245.8 263.954C248.042 263.65 236.184 205.688 230.142 197.024C245.114 199.988 290.982 205.536 321.46 174.224" stroke="black" stroke-width="1.5" stroke-linecap="round" stroke-linejoin="round"/>
<path d="M336.702 157.378C336.702 157.378 339.058 151.484 342.102 150.378C345.37 149.198 339.626 159.918 339.936 165.884C340.048 168.012 346.892 171.47 346.892 171.47" stroke="black" stroke-width="1.5" stroke-linecap="round" stroke-linejoin="round"/>
<path d="M332.674 142.1C332.408 138.718 332.964 127.806 335.524 138.376C336.012 141.217 336.328 144.085 336.474 146.964C337.018 151.755 336.928 156.596 336.208 161.364" stroke="black" stroke-width="1.5" stroke-linecap="round" stroke-linejoin="round"/>
<path d="M325 150.346C324.848 149.928 323.936 147.346 323.822 146.964C321.542 140.694 320.506 142.328 320.858 149.586C321.154 155.706 320.526 164.636 320.402 167.03C319.942 175.962 323.936 178.544 336.172 187.854" stroke="black" stroke-width="1.5" stroke-linecap="round" stroke-linejoin="round"/>
<path d="M330.014 152.55C329.52 148.256 328.486 142.55 328.152 141.302C325.77 132.312 323.14 133.588 324.276 142.518C324.924 147.61 324.998 151.448 325.302 154.832" stroke="black" stroke-width="1.5" stroke-linecap="round" stroke-linejoin="round"/>
<path d="M328.228 141.568C328.19 124.168 331.628 131.496 332.56 141.188C332.984 145.558 333.472 148.788 333.548 151.372" stroke="black" stroke-width="1.5" stroke-linecap="round" stroke-linejoin="round"/>
<path d="M328.232 140.212C326.632 133.984 322.012 126.562 311.356 117.324C308.976 126.403 307.136 135.615 305.846 144.912C310.84 143.671 315.976 143.084 321.122 143.164" stroke="black" stroke-width="1.5" stroke-linecap="round" stroke-linejoin="round"/>
<path d="M304.744 178.2C307.062 180.328 309.304 182.2 316.106 179.226" stroke="black" stroke-width="1.5" stroke-linecap="round" stroke-linejoin="round"/>
<path d="M320.59 163.306C319.032 165.586 313.522 168.132 313.522 168.132" stroke="black" stroke-width="1.5" stroke-linecap="round" stroke-linejoin="round"/>
<path d="M376.832 110.178C376.49 112.116 366.116 111.778 353.652 109.418C341.188 107.058 331.382 103.604 331.724 101.666C332.066 99.728 342.44 100.066 354.906 102.426C367.372 104.786 377.174 108.24 376.832 110.178Z" stroke="black" stroke-width="1.5" stroke-linecap="round" stroke-linejoin="round"/>
<path d="M365.926 126.254C364.292 127.242 357.742 118.966 351.296 107.708C344.85 96.45 340.958 86.542 342.592 85.554C344.226 84.566 350.764 92.85 357.224 104.098C363.684 115.346 367.56 125.266 365.926 126.254Z" stroke="black" stroke-width="1.5" stroke-linecap="round" stroke-linejoin="round"/>
<path d="M10 245.314L29.724 262.338L34.93 226.73" stroke="black" stroke-width="1.5" stroke-linecap="round" stroke-linejoin="round"/>
<path d="M142.626 57.812C142.6 58.6354 142.33 59.4324 141.851 60.1024C141.372 60.7724 140.704 61.285 139.934 61.5758C139.163 61.8666 138.323 61.9222 137.521 61.7356C136.719 61.549 135.99 61.1288 135.426 60.5278C134.863 59.927 134.49 59.1724 134.356 58.3598C134.221 57.5472 134.331 56.7128 134.671 55.9624C135.01 55.212 135.565 54.5792 136.264 54.1442C136.964 53.709 137.777 53.4912 138.6 53.518C139.146 53.5356 139.684 53.6606 140.182 53.886C140.68 54.1112 141.128 54.4324 141.502 54.8312C141.876 55.23 142.168 55.6984 142.361 56.2098C142.553 56.7212 142.644 57.2658 142.626 57.812Z" stroke="black" stroke-width="1.5" stroke-linecap="round" stroke-linejoin="round"/>
<path d="M212.55 350.086L228.816 367.49" stroke="black" stroke-width="1.5" stroke-linecap="round" stroke-linejoin="round"/>
<path d="M229.386 350.656L211.98 366.92" stroke="black" stroke-width="1.5" stroke-linecap="round" stroke-linejoin="round"/>
<path d="M328.838 207.06C326.9 206.178 324.982 205.352 323.098 204.614L321.198 217.686" stroke="black" stroke-width="1.5" stroke-linecap="round" stroke-linejoin="round"/>
</svg>
