<svg width="208" height="285" viewBox="0 0 208 285" fill="none" xmlns="http://www.w3.org/2000/svg">
<g clip-path="url(#clip0_601_211)">
<path d="M29.8987 9.55833C12.4247 20.378 5.59465 35.5022 5.56903 49.9748C5.56127 55.5246 4.66919 61.0378 2.92633 66.3069C-0.490037 76.6429 -0.105322 87.859 4.01125 97.9367C8.12782 108.014 15.7059 116.292 25.382 121.28C27.493 122.382 29.4366 123.778 31.1542 125.427C38.1851 132.146 47.5378 135.892 57.2627 135.885C77.8773 135.885 94.8608 119.183 95.1646 98.5683C95.2549 93.0576 94.1368 87.5941 91.8887 82.562C91.9143 81.9361 91.929 81.3066 91.929 80.6733C91.937 74.4523 90.6688 68.2958 88.2028 62.5844C89.3628 62.7397 90.5317 62.8191 91.702 62.8223C98.2522 62.8243 104.571 60.3993 109.438 56.0156C114.305 51.6318 117.375 45.6003 118.056 39.0856C132.411 37.9875 147.06 37.702 151.324 38.1742L151.69 29.503C151.69 29.503 71.6256 -16.3087 29.8987 9.55833Z" fill="#C3D8DD"/>
<path d="M85.714 108.279L56.5674 93.6855C56.5674 93.6855 58.2145 118.78 83.2872 125.493C87.1469 121.846 90.2037 117.434 92.2621 112.54C88.7117 110.054 85.714 108.279 85.714 108.279Z" fill="#2B4257"/>
<path d="M0.616701 80.6733C0.614139 89.0641 2.9242 97.2932 7.29313 104.457C11.6621 111.62 17.9208 117.441 25.382 121.28C27.493 122.382 29.4366 123.778 31.1542 125.427C38.1851 132.146 47.5377 135.892 57.2627 135.885C77.8773 135.885 94.8608 119.183 95.1646 98.5683" stroke="#2B4257" stroke-width="2" stroke-miterlimit="10" stroke-linecap="round"/>
<path d="M91.7021 62.8368C98.2523 62.8388 104.571 60.4138 109.438 56.0301C114.305 51.6464 117.375 45.6148 118.056 39.1001" stroke="#2B4257" stroke-width="2" stroke-miterlimit="10" stroke-linecap="round"/>
<path d="M29.8987 9.5582C-11.8281 35.4215 7.14663 85.6914 34.4741 93.3779C61.8015 101.064 81.2923 50.8568 86.3069 45.1139C91.3214 39.3709 142.675 37.2187 151.317 38.1594L151.683 29.4883C151.683 29.4883 71.6256 -16.3088 29.8987 9.5582Z" fill="#C3D8DD"/>
<path d="M45.9562 58.0785C43.7496 57.6953 41.7062 56.6663 40.0843 55.1218C38.4624 53.5773 37.3349 51.5865 36.8443 49.4012C36.3538 47.216 36.5222 44.9343 37.3283 42.8447C38.1344 40.7552 39.542 38.9515 41.3731 37.6619C43.2042 36.3722 45.3766 35.6545 47.6155 35.5994C49.8545 35.5443 52.0596 36.1543 53.9519 37.3523C55.8442 38.5503 57.3388 40.2825 58.2467 42.3299C59.1546 44.3773 59.4351 46.6479 59.0526 48.8547" stroke="white" stroke-width="16" stroke-miterlimit="10" stroke-linecap="round"/>
<path d="M45.9563 58.0786C48.1633 58.4612 50.2072 59.4896 51.8296 61.0338C53.4521 62.578 54.5801 64.5687 55.0712 66.754C55.5623 68.9394 55.3943 71.2213 54.5885 73.3112C53.7828 75.401 52.3753 77.205 50.5443 78.495C48.7132 79.785 46.5407 80.5031 44.3015 80.5584C42.0624 80.6137 39.8571 80.0037 37.9646 78.8057C36.0721 77.6076 34.5773 75.8753 33.6694 73.8277C32.7614 71.7802 32.481 69.5094 32.8636 67.3024" stroke="white" stroke-width="16" stroke-miterlimit="10" stroke-linecap="round"/>
<path d="M40.7039 88.389L42.0874 80.4097" stroke="white" stroke-width="16" stroke-miterlimit="10" stroke-linecap="round"/>
<path d="M49.8289 35.773L51.2124 27.79" stroke="white" stroke-width="16" stroke-miterlimit="10" stroke-linecap="round"/>
<path d="M117.101 39.1588C131.742 38.0021 146.961 37.6947 151.317 38.1742" stroke="#2B4257" stroke-width="2" stroke-miterlimit="10" stroke-linecap="round"/>
<path d="M159.168 25.7256C154.549 27.1385 151.317 39.1807 151.317 39.1807L164.204 44.8138C171.616 35.202 163.787 24.3164 159.168 25.7256Z" fill="#FBC2A5"/>
<path d="M164.204 44.8138C171.616 35.202 163.787 24.3164 159.168 25.7256" stroke="#2B4257" stroke-width="2" stroke-miterlimit="10" stroke-linecap="round"/>
<path d="M78.6313 223.288L53.6318 228.826L59.4187 251.146L63.5035 244.415L82.0903 243.185" fill="#4075B5"/>
<path d="M78.6313 223.288L53.6282 228.826" stroke="#2B4257" stroke-width="2" stroke-miterlimit="10" stroke-linecap="round"/>
<path d="M73.2764 237.625L71.45 243.891" stroke="#2B4257" stroke-width="2" stroke-miterlimit="10" stroke-linecap="round"/>
<path d="M69.8431 237.694L68.0203 243.957" stroke="#2B4257" stroke-width="2" stroke-miterlimit="10" stroke-linecap="round"/>
<path d="M66.4134 237.764L64.5906 244.027" stroke="#2B4257" stroke-width="2" stroke-miterlimit="10" stroke-linecap="round"/>
<path d="M120.186 258.521L120.871 284.117L143.883 282.679L138.052 277.39L140.38 258.906" fill="#4075B5"/>
<path d="M120.186 258.521L120.871 284.117" stroke="#2B4257" stroke-width="2" stroke-miterlimit="10" stroke-linecap="round"/>
<path d="M133.246 266.504L139.047 269.487" stroke="#2B4257" stroke-width="2" stroke-miterlimit="10" stroke-linecap="round"/>
<path d="M132.66 269.886L138.462 272.866" stroke="#2B4257" stroke-width="2" stroke-miterlimit="10" stroke-linecap="round"/>
<path d="M132.075 273.268L137.876 276.248" stroke="#2B4257" stroke-width="2" stroke-miterlimit="10" stroke-linecap="round"/>
<path d="M139.34 77.3058C132.13 77.3058 123.861 74.8498 114.619 69.9487C108.498 66.6723 102.684 62.8528 97.2473 58.5361L108.847 44.3819L103.045 51.4571L108.839 44.3745C113.412 47.9697 118.293 51.1543 123.425 53.8912C131.961 58.3787 139.223 60.0331 142.854 58.3201C146.485 56.6071 148.637 49.5977 148.67 39.144L166.971 39.2026C166.913 57.7967 161.422 69.7986 150.654 74.8754C147.111 76.5173 143.245 77.3476 139.34 77.3058Z" fill="#4F6FB7"/>
<path d="M166.986 39.2173C166.928 57.8114 161.437 69.8133 150.669 74.8901C147.122 76.528 143.254 77.3533 139.348 77.3059C132.137 77.3059 123.868 74.8498 114.626 69.9487" stroke="#2B4257" stroke-width="2" stroke-miterlimit="10" stroke-linecap="round"/>
<path d="M150.687 74.8901C147.14 76.5279 143.272 77.3533 139.366 77.3058C132.155 77.3058 123.887 74.8498 114.645 69.9487" stroke="#2B4257" stroke-width="2" stroke-miterlimit="10" stroke-linecap="round"/>
<path d="M150.687 74.8901C147.14 76.5279 143.272 77.3533 139.366 77.3058C132.155 77.3058 123.887 74.8498 114.645 69.9487" stroke="#2B4257" stroke-width="2" stroke-miterlimit="10" stroke-linecap="round"/>
<path d="M177.59 31.1646C177.59 31.1646 185.478 28.7964 182.183 25.6047C178.889 22.413 155.936 30.7291 155.936 30.7291L154.6 35.1909C154.6 35.1909 168.073 51.296 175.943 48.0018C183.812 44.7076 175.119 41.4975 175.119 41.4975C175.119 41.4975 179.537 42.2808 183.263 37.9105C187.473 33.0057 177.59 31.1646 177.59 31.1646Z" fill="#C3D8DD"/>
<path d="M177.59 31.1647C177.59 31.1647 185.478 28.7965 182.183 25.6047" stroke="#2B4257" stroke-width="2" stroke-miterlimit="10" stroke-linecap="round"/>
<path d="M175.119 41.5307C175.119 41.5307 179.537 42.3139 183.263 37.9436" stroke="#2B4257" stroke-width="2" stroke-miterlimit="10" stroke-linecap="round"/>
<path d="M154.6 35.2092C154.6 35.2092 168.073 51.3143 175.943 48.0201" stroke="#2B4257" stroke-width="2" stroke-miterlimit="10" stroke-linecap="round"/>
<path d="M82.0903 248.412L75.2859 219.942L78.6826 234.18L75.2859 219.946C85.1408 217.335 94.6922 213.69 103.781 209.071C115.468 203.05 130.007 193.083 132.891 179.789C134.425 172.714 132.583 164.544 127.419 155.503C120.285 143.022 107.134 129.226 88.3274 114.509L106.376 91.449C128.513 108.777 143.711 124.992 152.861 141.02C161.723 156.547 164.622 171.704 161.481 186.074C159.018 197.355 152.883 207.783 143.227 217.047C136.174 223.822 127.203 230.004 116.563 235.421C105.569 240.971 94.0124 245.326 82.0903 248.412Z" fill="#2B4257"/>
<path d="M97.5658 108.253C97.5658 108.253 133.07 199.046 130.336 260.52" stroke="#2B4257" stroke-width="30" stroke-miterlimit="10"/>
<path d="M78.6973 96.5112H116.434V101.145C116.434 106.149 114.447 110.949 110.908 114.487C107.369 118.026 102.57 120.014 97.5659 120.014C92.5616 120.014 87.7623 118.026 84.2237 114.487C80.6852 110.949 78.6973 106.149 78.6973 101.145V96.5112Z" fill="#2B4257"/>
<path d="M97.5659 40.2532C102.57 40.2532 107.369 42.2411 110.908 45.7797C114.447 49.3182 116.434 54.1175 116.434 59.1218V96.5112H78.6973V59.1218C78.6973 54.1175 80.6852 49.3182 84.2237 45.7797C87.7623 42.2411 92.5616 40.2532 97.5659 40.2532Z" fill="#628ECC"/>
<path d="M78.6973 59.1218V96.5003" stroke="#2B4257" stroke-width="2" stroke-miterlimit="10" stroke-linecap="round"/>
<path d="M116.434 96.5112V59.1218C116.434 54.1175 114.446 49.3182 110.908 45.7797C107.369 42.2411 102.57 40.2532 97.5658 40.2532" stroke="#FFF1D7" stroke-width="2" stroke-miterlimit="10" stroke-linecap="round"/>
<path d="M95.6808 66.7716C95.6808 60.4247 89.0265 55.0222 79.7185 52.9907C79.042 54.964 78.697 57.0356 78.6973 59.1216V80.772C88.5324 78.909 95.6808 73.3454 95.6808 66.7716Z" fill="#2B4257"/>
<path d="M90.4137 43.6644L104.718 43.8438V29.1296L90.4137 27.5264V43.6644Z" fill="#FBC2A5"/>
<path d="M90.4137 27.5264V41.7281" stroke="#2B4257" stroke-width="2" stroke-miterlimit="10" stroke-linecap="round"/>
<path d="M110.988 7.60742L108.865 24.3348H113.44L110.988 7.60742Z" fill="#F39B92"/>
<path d="M108.865 24.3347H113.44" stroke="#2B4257" stroke-width="2" stroke-miterlimit="10" stroke-linecap="round"/>
<path d="M104.718 42.1491V29.1296" stroke="#FFF1D7" stroke-width="2" stroke-miterlimit="10" stroke-linecap="round"/>
<path d="M93.4078 7.60743H110.977V26.5565C110.977 27.5491 110.782 28.532 110.402 29.449C110.022 30.3661 109.465 31.1993 108.763 31.9012C108.061 32.603 107.228 33.1598 106.311 33.5396C105.394 33.9195 104.411 34.115 103.419 34.115H102.372C99.1343 34.115 96.0294 32.8289 93.7402 30.5396C91.4509 28.2504 90.1648 25.1455 90.1648 21.908V10.8614C90.1624 10.4343 90.2446 10.011 90.4066 9.61584C90.5686 9.22068 90.8072 8.86149 91.1086 8.559C91.4101 8.2565 91.7685 8.01668 92.1631 7.85336C92.5577 7.69004 92.9808 7.60646 93.4078 7.60743Z" fill="#FBC2A5"/>
<path d="M112.126 24.3346C112.126 24.3346 115.904 35.9633 110.443 37.4713C104.981 38.9793 93.1259 38.8622 96.0981 23.7783L94.9817 21.4138L92.7855 23.7783C92.7855 23.7783 92.9539 28.0022 90.3002 30.8536C90.3002 30.8536 79.7404 11.2859 86.4277 5.4624C88.5802 3.5747 91.2913 2.44343 94.1472 2.24138C95.4668 2.15033 96.776 1.94458 98.06 1.62645C102.628 0.502756 112.701 -1.11873 114.667 5.7662C116.332 11.6006 111.797 14.1848 111.797 14.1848L110.457 9.55822C110.457 9.55822 105.772 15.5464 101.358 17.5119C100.607 17.8536 99.9793 18.4163 99.5574 19.1247C99.1355 19.8331 98.94 20.6535 98.997 21.476C99.1763 24.1663 99.9084 27.3983 102.46 26.8602C106.72 25.9781 106.918 23.0792 112.126 24.3346Z" fill="#2B4257"/>
<path d="M112.507 25.6853C113.309 28.7965 114.751 36.3 110.443 37.4713" stroke="#586977" stroke-width="2" stroke-miterlimit="10" stroke-linecap="round"/>
<path d="M98.0453 1.62645C102.613 0.502756 112.686 -1.11873 114.652 5.7662C116.317 11.6006 111.782 14.1848 111.782 14.1848" stroke="#586977" stroke-width="2" stroke-miterlimit="10" stroke-linecap="round"/>
<path d="M110.443 9.55835C110.443 9.55835 105.772 15.5465 101.358 17.5121" stroke="#586977" stroke-width="2" stroke-miterlimit="10" stroke-linecap="round"/>
<path d="M104.451 19.8436C104.525 19.7849 104.591 19.7173 104.648 19.6423C104.737 19.5354 104.849 19.4506 104.976 19.3947C105.103 19.3388 105.242 19.3133 105.38 19.3202H108.96V21.8604C108.96 22.2212 108.889 22.5785 108.751 22.9118C108.613 23.2451 108.41 23.5479 108.155 23.8028C107.899 24.0578 107.596 24.2599 107.263 24.3977C106.929 24.5354 106.572 24.6061 106.211 24.6056C105.85 24.6061 105.493 24.5354 105.16 24.3977C104.826 24.2599 104.523 24.0578 104.268 23.8028C104.012 23.5479 103.81 23.2451 103.672 22.9118C103.534 22.5785 103.462 22.2212 103.462 21.8604C103.461 21.4709 103.55 21.0864 103.721 20.7367C103.893 20.3869 104.142 20.0813 104.451 19.8436Z" fill="#F4AB9D"/>
<path d="M104.414 19.6093C104.605 18.5845 105.604 17.9586 106.87 18.1635C107.68 18.3028 108.417 18.7148 108.96 19.3312C108.77 20.3524 107.767 20.9783 106.501 20.7733C105.692 20.6354 104.956 20.2246 104.414 19.6093Z" fill="#F7F7F7"/>
<path d="M108.96 19.3311C108.77 20.3523 107.767 20.9782 106.501 20.7732C105.695 20.6337 104.961 20.223 104.422 19.6092" stroke="#2B4257" stroke-width="2" stroke-miterlimit="10" stroke-linecap="round"/>
<path d="M107.624 19.6349C107.762 19.6349 107.873 19.494 107.873 19.3202C107.873 19.1463 107.762 19.0054 107.624 19.0054C107.487 19.0054 107.375 19.1463 107.375 19.3202C107.375 19.494 107.487 19.6349 107.624 19.6349Z" fill="#2B4257"/>
<path d="M103.06 25.2241C104.111 25.2241 104.963 24.372 104.963 23.3208C104.963 22.2696 104.111 21.4175 103.06 21.4175C102.009 21.4175 101.156 22.2696 101.156 23.3208C101.156 24.372 102.009 25.2241 103.06 25.2241Z" fill="#E57873"/>
<path d="M109.216 16.5493C108.607 16.1687 107.909 15.9555 107.191 15.9311C106.473 15.9067 105.761 16.0719 105.128 16.4102" stroke="#2B4257" stroke-width="2" stroke-miterlimit="10" stroke-linecap="round"/>
<path d="M106.23 26.2527C106.646 26.6185 107.152 26.8675 107.696 26.9742C108.24 27.0809 108.802 27.0416 109.326 26.8603" stroke="#EDB2B0" stroke-width="2" stroke-miterlimit="10" stroke-linecap="round"/>
<path d="M93.5579 25.312C95.2943 25.312 96.702 23.9043 96.702 22.1678C96.702 20.4314 95.2943 19.0237 93.5579 19.0237C91.8214 19.0237 90.4137 20.4314 90.4137 22.1678C90.4137 23.9043 91.8214 25.312 93.5579 25.312Z" fill="#FBC2A5"/>
<path d="M93.5579 23.7784C94.4474 23.7784 95.1684 23.0573 95.1684 22.1679C95.1684 21.2784 94.4474 20.5574 93.5579 20.5574C92.6684 20.5574 91.9474 21.2784 91.9474 22.1679C91.9474 23.0573 92.6684 23.7784 93.5579 23.7784Z" fill="#F4AB9D"/>
<path d="M207.242 284.117H96.4348" stroke="#2B4257" stroke-width="2" stroke-miterlimit="10" stroke-linecap="round"/>
<path d="M89.2095 284.117H85.1173" stroke="#2B4257" stroke-width="2" stroke-miterlimit="10" stroke-linecap="round"/>
<path d="M106.08 123.143C75.0407 116.95 58.672 106.54 56.0366 91.3284C54.2065 80.8271 59.3931 69.8171 71.4097 58.6021C76.4799 53.9284 81.9814 49.7456 87.8406 46.1096L97.2474 61.8084L92.544 53.9609L97.2474 61.8048C92.4199 64.8332 87.8859 68.306 83.7045 72.1779C77.0209 78.4589 73.4228 84.4544 74.078 88.2135C75.3957 95.7609 93.3273 101.936 109.67 105.197L106.08 123.143Z" fill="#628ECC"/>
<path d="M110.713 99.9299L105.348 126.818" stroke="#FFF1D7" stroke-width="2" stroke-miterlimit="10" stroke-linecap="round"/>
<path d="M102.452 122.386C73.7632 116.116 58.5659 105.936 56.0366 91.3284C54.2065 80.8271 59.3931 69.8171 71.4097 58.6021" stroke="#2B4257" stroke-width="2" stroke-miterlimit="10" stroke-linecap="round"/>
<path d="M97.2473 61.8047C92.4199 64.8332 87.8859 68.306 83.7044 72.1778C77.0208 78.4588 73.4228 84.4543 74.0779 88.2134C75.3956 95.7608 93.3272 101.936 109.67 105.197" stroke="#FFF1D7" stroke-width="2" stroke-miterlimit="10" stroke-linecap="round"/>
<path d="M86.3069 45.114L89.9708 37.9436L106.841 41.5014L104.963 46.8234" fill="#628ECC"/>
<path d="M86.3069 45.114L89.9708 37.9436L106.841 41.5014" stroke="#2B4257" stroke-width="2" stroke-miterlimit="10" stroke-linecap="round"/>
<path d="M103.774 209.071C115.461 203.05 129.999 193.083 132.884 179.789C134.417 172.714 132.576 164.544 127.411 155.504C122.792 147.422 115.651 138.791 106.083 129.71" stroke="#FFF1D7" stroke-width="2" stroke-miterlimit="10" stroke-linecap="round"/>
<path d="M143.227 217.047C136.174 223.822 127.203 230.004 116.563 235.421C105.569 240.971 94.0125 245.326 82.0903 248.412" stroke="#FFF1D7" stroke-width="2" stroke-miterlimit="10" stroke-linecap="round"/>
<path d="M151.672 27.2482C148.246 28.6721 148.897 35.4216 149.421 39.1294L158.114 39.2465C160.39 34.4882 155.409 31.926 155.409 31.926C155.409 31.926 158.095 32.4275 159.86 32.1383C161.624 31.8492 156.28 25.3339 151.672 27.2482Z" fill="#FBC2A5"/>
<path d="M159.86 32.131C161.62 31.8382 156.28 25.3339 151.672 27.2482" stroke="#FFF1D7" stroke-width="2" stroke-miterlimit="10" stroke-linecap="round"/>
<path d="M158.114 39.2465C160.39 34.4882 155.409 31.926 155.409 31.926C155.409 31.926 158.095 32.4275 159.86 32.1383" stroke="#2B4257" stroke-width="2" stroke-miterlimit="10" stroke-linecap="round"/>
<path d="M173.501 29.5286C173.501 29.5286 166.426 31.2891 165.273 35.2093C164.12 39.1294 169.387 40.2238 169.387 40.2238" stroke="#2B4257" stroke-width="2" stroke-miterlimit="10" stroke-linecap="round"/>
<path d="M165.273 35.2093C164.64 37.3396 165.91 38.6353 167.202 39.3747C168.498 38.6427 169.764 37.3396 169.135 35.2093C168.77 34.1466 168.097 33.2164 167.202 32.5374C166.309 33.2177 165.638 34.1475 165.273 35.2093Z" fill="#2B4257"/>
</g>
<defs>
<clipPath id="clip0_601_211">
<rect x="0.250732" y="0.246582" width="207.357" height="284.237" fill="white"/>
</clipPath>
</defs>
</svg>
