<svg width="400" height="400" viewBox="0 0 400 400" fill="none" xmlns="http://www.w3.org/2000/svg">
<path fill-rule="evenodd" clip-rule="evenodd" d="M253.88 199.44H181.356C168.896 199.44 167.022 214.738 180.376 214.924C193.73 215.11 251.808 215.576 253.88 215.576C255.172 215.576 254.69 199.44 253.88 199.44Z" fill="#38A1FF"/>
<path fill-rule="evenodd" clip-rule="evenodd" d="M322.43 161.318C322.417 157.951 321.141 154.711 318.855 152.238C316.57 149.766 313.44 148.24 310.084 147.962C302.484 147.252 136.622 147.65 127.85 147.962C119.078 148.274 114.96 154.222 114.594 159.53C114.336 163.262 114.04 173.594 115.658 173.594C120.498 173.594 319.592 174.098 321.948 174.134C323.336 174.154 322.43 162.726 322.43 161.318ZM282.862 167C274.942 167 274.218 154.64 282.422 154.64C283.269 154.549 284.126 154.633 284.939 154.887C285.752 155.141 286.503 155.56 287.147 156.118C287.791 156.675 288.313 157.36 288.681 158.128C289.049 158.896 289.254 159.732 289.284 160.584C289.315 161.435 289.169 162.283 288.857 163.076C288.545 163.868 288.073 164.588 287.47 165.19C286.868 165.792 286.148 166.264 285.355 166.575C284.562 166.886 283.713 167.031 282.862 167ZM303.896 167C303.05 167.092 302.193 167.009 301.38 166.755C300.567 166.501 299.816 166.083 299.171 165.526C298.527 164.969 298.005 164.286 297.637 163.518C297.268 162.75 297.062 161.915 297.031 161.064C297 160.213 297.144 159.365 297.455 158.572C297.766 157.779 298.237 157.059 298.838 156.457C299.44 155.854 300.159 155.382 300.951 155.069C301.743 154.756 302.591 154.61 303.442 154.64C311.6 154.634 312.312 167 303.896 167Z" fill="#38A1FF"/>
<path fill-rule="evenodd" clip-rule="evenodd" d="M321.778 219.636C323.093 205.952 323.207 192.18 322.118 178.476C321.98 176.73 319.282 177.058 319.422 178.804C320.338 190.156 320.622 213.632 318.358 225.204C316.094 236.776 307.798 235.296 298.644 235.404L141.504 237.248C113.422 237.576 116.986 235.848 116.652 178.974C116.652 177.724 114.526 177.696 114.452 178.974C114.01 186.738 113.674 218.5 114.948 226.434C117.52 242.434 133.548 239.974 146.584 239.834L293.918 238.144C310.822 237.958 319.768 240.558 321.778 219.636Z" fill="#191919"/>
<path fill-rule="evenodd" clip-rule="evenodd" d="M258.72 199.638C258.584 199.644 258.45 199.676 258.327 199.733C258.203 199.791 258.092 199.872 258 199.972C257.814 200.174 257.716 200.442 257.727 200.717C257.738 200.992 257.858 201.251 258.061 201.437C258.263 201.623 258.531 201.721 258.806 201.71C272.586 202.448 286.538 201.56 300.22 202.348C305.088 202.63 307.394 204.72 307.62 206.932C308.268 213.492 297.074 212.744 293.22 212.844H259.3C257.582 212.844 257.7 215.662 259.414 215.644C271.164 215.548 282.906 215.398 294.64 215.346C300.24 215.32 310.6 215.146 310.052 206.946C309.608 200.276 301.722 199.894 296.768 199.85C284.748 199.744 270.16 199.176 258.72 199.638Z" fill="#191919"/>
<path fill-rule="evenodd" clip-rule="evenodd" d="M146.47 188.54C146.158 187.616 144.822 187.886 144.512 188.638C143.896 190.14 143.746 201.894 143.674 204.08C141.874 202.66 140.092 201.25 138.274 199.908C137.932 199.654 135.036 199.654 138.416 202.988C140.392 204.943 142.593 206.658 144.972 208.096C146.15 208.394 150.772 203.136 151.814 202.164C154.34 199.806 152.214 198.928 151.444 199.084C149.624 200.306 147.952 201.734 146.462 203.342C146.462 200.632 147.172 190.568 146.462 188.468L146.47 188.54Z" fill="#191919"/>
<path fill-rule="evenodd" clip-rule="evenodd" d="M130.476 216.526C128.876 216.46 128.936 211.326 128.844 210.04C128.538 205.782 131.128 207.884 131.128 207.884C131.866 208.684 131.81 213.248 131.782 214.228C140.823 213.554 149.905 213.64 158.932 214.484C158.69 211.644 157.882 207.784 159.896 207.642C161.91 207.5 161.53 210.338 161.558 212.666C161.584 214.766 162.068 217.374 160.664 217.35C150.46 217.176 140.552 216.942 130.476 216.526Z" fill="#191919"/>
<path fill-rule="evenodd" clip-rule="evenodd" d="M198.232 110.324C197.65 109.486 193.064 103.524 191.746 103.654C188.082 103.988 171.124 109.402 172.884 111.942C175.508 122.472 180.162 141.478 181.016 143.804C181.37 144.77 182.848 144.272 182.704 143.294C181.686 136.378 177.184 120.06 174.926 111.772C180.315 109.235 185.965 107.29 191.774 105.972C193.462 107.846 195.124 109.69 196.798 111.65C199.41 113.594 247.598 98.8761 252.462 97.5701C261.662 127.048 261.81 132.834 265.604 140.802C266.084 141.802 267.392 141.028 267.264 140.106C263.786 128.212 259.02 106.354 253.952 95.9061C253 93.9221 198.232 110.578 198.232 110.324Z" fill="#191919"/>
<path fill-rule="evenodd" clip-rule="evenodd" d="M213.46 60.8901C218.49 65.3401 235.79 86.8341 239.234 92.7821C239.77 93.7061 238.298 94.4261 237.716 93.6761C230.64 84.5761 226.772 77.8941 212.964 62.7221C193.662 75.9501 176.29 93.0381 173.508 92.0441C170.726 91.0501 167.064 90.3981 164.438 89.5741C160.196 93.0738 156.264 96.9342 152.688 101.112C154.604 103.112 169.362 120.054 170.768 122.53C171.344 123.54 169.98 124.782 169.236 123.85C157.496 109.122 149.46 102.2 150.6 100.29C152.4 97.2761 160.294 89.5181 163.2 88.2261C163.612 86.3381 172.184 89.6461 173.56 90.2121C173.564 90.0121 211.54 59.2001 213.46 60.8901Z" fill="#191919"/>
<path fill-rule="evenodd" clip-rule="evenodd" d="M135.954 101.254C136.21 99.054 139.402 83.868 140.822 83.316L148.856 80.888C150.274 77.042 163.218 42.642 164.466 42.888C169.504 43.85 201.066 56.708 203.78 58.756C204.59 59.356 204.034 60.72 203.086 60.374C190.984 55.974 176.858 48.906 165.106 45.06C164.722 47.09 150.8 82.13 150.506 82.428C149.086 83.848 143.976 84.402 141.806 84.97C141.664 87.424 138.824 97.318 138.016 100.354L144.828 102.1C145.864 102.568 145.722 104.342 144.446 104.2C145.272 104.2 135.8 102.58 135.954 101.254Z" fill="#191919"/>
<path fill-rule="evenodd" clip-rule="evenodd" d="M94.228 91.774C92.808 92.242 88.3141 97.692 88.5501 99.04C89.5074 104.691 91.1321 110.208 93.3901 115.476C94.0561 117 125.11 107.188 128.758 106.166C128.896 106.141 129.028 106.089 129.146 106.013C129.264 105.937 129.365 105.838 129.445 105.723C129.525 105.608 129.581 105.478 129.611 105.341C129.641 105.204 129.643 105.062 129.618 104.924C129.593 104.786 129.541 104.654 129.465 104.536C129.389 104.418 129.29 104.317 129.175 104.237C129.06 104.157 128.93 104.101 128.793 104.071C128.656 104.041 128.514 104.039 128.376 104.064C117.043 106.451 105.881 109.591 94.9661 113.464C93.2139 108.794 91.7491 104.021 90.5801 99.172C91.5021 97.994 96.4001 92.772 96.2581 91.82C93.4181 78.578 90.4241 64.854 87.5141 51.67C100.288 49.484 113.6 46.27 126.474 43.778C127.168 50.194 131.908 68.956 134.988 81.778C135.156 82.474 136.4 81.992 136.408 81.31C136.464 77.052 129.086 48.35 127.58 42.338C127.018 40.094 89.2621 48.938 86.1101 49.958C83.4861 50.816 92.978 86.86 94.186 91.812L94.228 91.774Z" fill="#191919"/>
<path fill-rule="evenodd" clip-rule="evenodd" d="M83.768 129.214C71.252 120.176 50.056 105.362 36.378 98.87C33.546 97.526 18.084 128.546 17.53 133.898C17.53 136.934 43.674 150.698 49.45 152.986C49.55 155.968 49.634 158.948 49.734 161.928C50.334 163.348 56.062 166.19 57.71 166.626C64.632 168.458 67.262 169.138 67.91 167.208C74.816 146.29 84.122 129.47 83.768 129.214ZM66.184 166.286C61.1124 165.496 56.2208 163.814 51.736 161.318C51.906 160.04 51.948 151.85 50.444 151.07C39.488 145.39 30.134 140.242 19.432 133.77C24.94 119.464 29.368 113.56 36.548 101.298C52.062 110.722 66.638 119.152 81.548 129.98C77.822 136.6 67.986 159.2 66.184 166.286Z" fill="#191919"/>
<path fill-rule="evenodd" clip-rule="evenodd" d="M62.862 188.412C45.278 187.854 26.288 187.272 8.68797 187.688C5.12597 187.772 11.112 222.91 12.322 226.532C12.852 228.12 40.494 227.498 46.228 226.632C47.0238 228.785 48.3161 230.72 50 232.28C51.022 233.062 67.542 233.08 67.882 230.932C64.2 206.152 65.034 188.48 62.862 188.412ZM51.422 230.412C50.728 229.474 47.506 224.48 46.64 224.436C35.74 224.762 24.968 224.862 14.082 225.046C11.6843 213.349 10.1614 201.489 9.52597 189.566L61.526 190.366C62.526 203.14 63.698 216.85 65.458 229.452L51.422 230.412Z" fill="#191919"/>
<path fill-rule="evenodd" clip-rule="evenodd" d="M95.9602 275.014C86.7602 264.334 73.1002 245.96 71.9602 246.474C56.4072 253.307 41.2958 261.104 26.7142 269.82C22.9142 272.138 41.8482 297.49 45.8022 301.044C48.3522 303.334 70.4562 287.376 74.3722 284.964C76.5114 286.8 79.0109 288.168 81.7102 288.98C82.9502 289.338 97.3802 276.664 95.9602 275.014ZM82.0002 286.568C77.3442 285.006 74.6522 282.072 73.4842 282.82C64.7062 288.446 56.5522 293.99 46.3342 299.71C39.3051 290.722 33.2204 281.035 28.1762 270.8C42.7222 262.284 57.0582 256.152 71.9162 249.07C75.0262 253.57 89.5162 272.02 93.8022 275.526C89.8562 279.4 86.1242 282.864 82.0002 286.568Z" fill="#191919"/>
<path fill-rule="evenodd" clip-rule="evenodd" d="M157.442 313.022C153.916 310.348 127.042 299.722 120.13 298.276C118.114 297.854 92.9101 341.544 94.3981 342.728C104.86 350.458 116.686 356.145 129.256 359.49C132.096 360.216 145.056 331.174 146.768 327.47C148.558 327.47 150.768 327.03 152.568 327.016C154.448 326.59 158.944 314.162 157.442 313.022ZM152.042 325.222C150.482 325.322 145.346 324.982 144.876 325.988C140 336.4 134.8 346.688 129.71 357C115.51 352.742 108.988 349.42 96.4281 341.828C96.4281 341.828 113.458 309.908 120.556 300.386C127.906 302.898 149.394 311.74 155.866 314.222C154.574 317.89 153.284 321.538 152.048 325.214L152.042 325.222Z" fill="#191919"/>
<path fill-rule="evenodd" clip-rule="evenodd" d="M245.492 334.212C244.968 330.352 244.456 324.888 243.932 321.042C242.98 318.7 227.794 321.262 207.57 321.254C205.214 321.254 208.834 365.706 209.074 370.39C212.226 373.59 241.988 372.022 241.958 368.16L239.358 339.194C242 337.434 244.556 336.028 245.492 334.212ZM237.446 338.924C238.174 348.524 238.903 358.118 239.632 367.706C230.115 369.375 220.442 369.975 210.792 369.494C210.536 354.38 208.606 339.038 209.116 323.212C220.032 323.128 230.774 322.886 242.016 322.106C242.228 323.54 243.634 333.602 243.122 334.142C243.122 334.6 239.136 336.168 237.446 338.924Z" fill="#191919"/>
<path fill-rule="evenodd" clip-rule="evenodd" d="M315.534 302.8C316.952 300.232 317.67 299.082 317.592 298.046C317.498 296.798 310.04 286.35 308.892 286.99C303.782 289.828 291.562 301.708 288.492 305.936C288.378 308.604 305.92 339.02 307.992 339.714C308.992 343.434 327.12 324.684 327.04 323.578C326.928 322.2 316.768 304.976 315.534 302.8ZM309.062 337.884C302.142 327.773 295.975 317.166 290.61 306.15C296.984 300.06 302.22 295.25 308.934 289.63L315.236 298.414L313.546 302.414C313.12 303.436 323.482 319.928 325.114 323.378C320.416 328.891 315.02 333.769 309.062 337.888V337.884Z" fill="#191919"/>
<path fill-rule="evenodd" clip-rule="evenodd" d="M375.326 259.246C373.598 257.426 361.29 251.47 359.02 250.66C359.19 249.752 359.758 245.46 359.246 244.984C356.195 243.234 353.017 241.716 349.738 240.442C348.092 240.442 337.498 262.66 338.384 263.406C341.584 266.098 362.934 280.076 366.924 281.606C368.22 282.094 376.308 260.28 375.326 259.246ZM366.514 278.69C364.328 277.272 342.4 263.15 340.47 262.49C340.67 262.306 348.986 245.006 350.306 242.622C352.523 244.11 354.904 245.338 357.402 246.282C357.132 247.991 357.098 249.73 357.302 251.448C357.302 252.03 370.6 258.828 373.17 259.808C370.942 266.074 368.712 272.446 366.514 278.69Z" fill="#191919"/>
<path fill-rule="evenodd" clip-rule="evenodd" d="M385.502 201.058C385.502 199.638 375.086 196.8 373.502 196.232C373.5 194.962 373.314 193.7 372.948 192.484C372.394 191.364 363.88 188.226 363.17 188.652C361.51 189.532 357.942 207.75 359.48 208.594C362.098 210.028 380.024 217.708 382.556 217.108C383.988 216.772 385.744 201.498 385.502 201.058ZM381.586 214.696C374.674 212.312 367.804 209.544 360.95 207.23L364.058 190.796L371.154 193.52C371.282 194.414 371.494 197.48 372.304 197.778L383.36 201.824C382.704 205.744 381.586 213.972 381.586 214.696Z" fill="#191919"/>
<path fill-rule="evenodd" clip-rule="evenodd" d="M383.062 142.272C382.526 141.742 371.084 142.072 368.4 141.988L364.782 138.61C363.49 138.61 356.934 138.298 356.336 139.078C355.738 139.858 360.07 156.12 361.034 157.444C361.524 158.116 384.864 158.11 385.262 157.444C385.054 152.324 384.317 147.24 383.062 142.272ZM362.326 155.64C360.964 150.573 359.62 145.531 358.296 140.512C360.07 140.512 362.554 140.782 364.256 140.624C365.217 141.81 366.329 142.865 367.564 143.762C372.185 144.142 376.824 144.25 381.458 144.088C381.916 148.108 382.666 152.089 383.7 156C376.746 155.982 369.294 155.64 362.326 155.64Z" fill="#191919"/>
<path fill-rule="evenodd" clip-rule="evenodd" d="M353.612 76.162C352.836 75.392 340.924 80.306 339.412 80.846C338.262 79.8896 336.999 79.0788 335.65 78.432C334.85 78.432 326.152 81.812 326.992 83.358C329.192 87.392 335.408 97.182 339.128 100.204C340.328 101.184 359.278 93.106 360.616 91.874C362.182 90.436 354.958 77.498 353.612 76.162ZM340 98.43C336.054 93.548 332.902 88.496 329.17 83.4L335.344 80.69C336.012 81.102 338.666 83.016 339.276 82.86C343.892 81.6787 348.391 80.0781 352.716 78.078C354.618 82.222 356.974 86.366 358.818 90.51C356 91.926 340 98.23 340 98.43Z" fill="#191919"/>
<path fill-rule="evenodd" clip-rule="evenodd" d="M2.06008 123.552C1.69008 124.552 3.16808 125.368 3.60808 124.332C14.1281 99.5521 26.6341 83.2361 45.4201 64.8001C46.0861 64.1461 45.1081 62.9401 44.3541 63.5361C44.3541 62.4661 15.5701 86.8241 2.06008 123.552Z" fill="#38A1FF"/>
<path fill-rule="evenodd" clip-rule="evenodd" d="M166.44 140.454C162.464 136.284 156.162 130.15 151.212 127.368C150.286 126.85 149.52 128.208 150.232 128.888C155.032 133.46 160.182 137.034 165.106 142.002C166.032 142.936 167.334 141.4 166.44 140.454Z" fill="#38A1FF"/>
<path fill-rule="evenodd" clip-rule="evenodd" d="M209.556 44.9381C201.638 36.1381 183.866 29.3381 174.076 27.9081C173.822 27.8704 173.563 27.9352 173.357 28.0882C173.151 28.2413 173.014 28.47 172.976 28.7241C172.938 28.9781 173.003 29.2368 173.156 29.4431C173.309 29.6493 173.538 29.7864 173.792 29.8241C191.532 32.7021 198.366 38.9621 208.436 46.2861C209.236 46.8661 210.054 45.5061 209.5 44.8681L209.556 44.9381Z" fill="#38A1FF"/>
<path fill-rule="evenodd" clip-rule="evenodd" d="M83.612 109.046C81.128 108.962 77.576 114.344 76.742 116.142C76.294 117.11 77.92 117.874 78.446 116.952C80.486 113.374 84.122 111.02 84.434 110.266C84.4795 110.132 84.4932 109.99 84.4741 109.85C84.4549 109.71 84.4034 109.577 84.3236 109.46C84.2438 109.344 84.1379 109.247 84.0144 109.179C83.8908 109.111 83.7531 109.072 83.612 109.066V109.046Z" fill="#38A1FF"/>
<path fill-rule="evenodd" clip-rule="evenodd" d="M74.9821 67.448C64.5001 70.058 53.4001 81.458 48.1821 90.71C47.5581 91.816 49.3481 92.57 49.9821 91.49C55.8957 81.4479 64.8932 73.5833 75.6361 69.066C76.4441 68.726 75.8481 67.232 74.9821 67.448Z" fill="#38A1FF"/>
<path fill-rule="evenodd" clip-rule="evenodd" d="M68.2982 89.2341C69.1362 88.9921 69.7182 90.2341 69.0982 90.6521C64.5194 93.4396 60.867 97.5185 58.6002 102.376C58.0562 103.508 56.4002 102.502 56.9122 101.376C58.7122 97.3401 63.6822 90.5621 68.2662 89.2141L68.2982 89.2341Z" fill="#38A1FF"/>
<path fill-rule="evenodd" clip-rule="evenodd" d="M38.0001 154.32C33.7561 159.2 31.4801 169.336 31.4441 175.624C31.4441 176.702 33.2621 176.824 33.3461 175.738C34.0921 166.172 36.5061 160.322 39.7881 155.528C40.4661 154.534 38.8221 153.372 38.0001 154.32Z" fill="#38A1FF"/>
<path fill-rule="evenodd" clip-rule="evenodd" d="M25.1662 155.64C21.7042 160.466 20.1282 173.324 20.1422 179.272C20.1803 179.506 20.3006 179.719 20.4814 179.873C20.6622 180.027 20.8918 180.111 21.1292 180.111C21.3665 180.111 21.5962 180.027 21.777 179.873C21.9578 179.719 22.078 179.506 22.1162 179.272C22.3458 171.416 23.9711 163.664 26.9162 156.378C27.3162 155.378 25.8382 154.676 25.1702 155.598L25.1662 155.64Z" fill="#38A1FF"/>
<path fill-rule="evenodd" clip-rule="evenodd" d="M55.1701 330.21C35.5561 316.258 25.4921 300.944 16.0841 279.61C16.0045 279.401 15.8452 279.232 15.6411 279.141C15.4371 279.049 15.205 279.043 14.9961 279.122C14.7871 279.202 14.6182 279.361 14.5267 279.565C14.4352 279.769 14.4285 280.001 14.5081 280.21C20.5261 300.078 36.9361 319.71 54.0341 331.586C54.9721 332.238 56.1201 330.876 55.1701 330.168V330.21Z" fill="#38A1FF"/>
<path fill-rule="evenodd" clip-rule="evenodd" d="M380.18 224.944C380.153 224.747 380.055 224.567 379.905 224.437C379.755 224.306 379.563 224.235 379.364 224.235C379.166 224.235 378.973 224.306 378.824 224.437C378.674 224.567 378.576 224.747 378.548 224.944C377.814 230.144 377.99 232.798 375.284 237.618C374.78 238.516 376.36 239.418 376.884 238.526C378.908 234.986 381.132 229.044 380.18 224.944Z" fill="#38A1FF"/>
<path fill-rule="evenodd" clip-rule="evenodd" d="M369.466 223.07C368.146 225.412 364.866 237.79 364.1 240.512C363.778 241.648 365.516 241.93 365.86 240.854C366.72 238.154 370.842 226.254 371.04 223.594C371.08 223.394 371.045 223.187 370.943 223.011C370.841 222.835 370.677 222.702 370.484 222.638C370.291 222.574 370.081 222.582 369.893 222.662C369.706 222.741 369.554 222.886 369.466 223.07Z" fill="#38A1FF"/>
<path fill-rule="evenodd" clip-rule="evenodd" d="M324.488 303.358C324.351 303.516 324.272 303.716 324.265 303.926C324.258 304.135 324.324 304.34 324.45 304.507C324.577 304.674 324.758 304.791 324.961 304.84C325.165 304.889 325.379 304.867 325.568 304.776C330.492 301.398 339.32 292.756 341.094 286.776C341.364 285.868 340.144 284.96 339.674 285.882C338.976 286.166 335.76 295.048 324.488 303.358Z" fill="#38A1FF"/>
<path fill-rule="evenodd" clip-rule="evenodd" d="M333.388 277.966C332.436 281.766 325.788 287.752 322.788 289.79C321.85 290.426 321.038 288.99 321.894 288.37C328.77 283.444 329.894 279.272 331.956 277.214C332.074 276.736 333.588 276.864 333.388 277.966Z" fill="#38A1FF"/>
<path fill-rule="evenodd" clip-rule="evenodd" d="M272.132 350C271.9 350.075 271.705 350.238 271.591 350.454C271.477 350.669 271.451 350.921 271.52 351.156C271.588 351.39 271.745 351.589 271.958 351.709C272.171 351.829 272.422 351.862 272.658 351.8C277.046 350.508 289.504 345.854 292.938 342.362C293.538 341.762 292.824 340.532 292.058 340.944C291.55 340.684 281.658 347.108 272.132 350Z" fill="#38A1FF"/>
<path fill-rule="evenodd" clip-rule="evenodd" d="M264.95 339.35C258.638 341.884 256.606 344.402 248.728 344.15C248.509 344.166 248.302 344.26 248.147 344.417C247.992 344.573 247.899 344.78 247.885 345C247.871 345.22 247.937 345.437 248.071 345.612C248.205 345.787 248.398 345.907 248.614 345.95C253.302 346.289 257.995 345.357 262.198 343.252C268.278 340.184 265.832 339 264.95 339.35Z" fill="#38A1FF"/>
<path fill-rule="evenodd" clip-rule="evenodd" d="M279.144 317.536C270.79 320.898 261.915 322.785 252.916 323.114C251.852 323.14 251.978 324.774 253.044 324.76C260.044 324.664 273.644 322.718 279.882 319.082C280.75 318.576 279.966 317.322 279.144 317.664V317.536Z" fill="#38A1FF"/>
<path fill-rule="evenodd" clip-rule="evenodd" d="M195.974 331.274C186.886 330.75 183.644 331.82 174.146 328.564C173.068 328.194 172.614 329.868 173.678 330.266C180.038 332.646 189.478 334.524 196.16 332.822C196.33 332.761 196.475 332.643 196.57 332.489C196.665 332.335 196.705 332.154 196.683 331.974C196.662 331.794 196.58 331.627 196.451 331.5C196.322 331.373 196.154 331.293 195.974 331.274Z" fill="#38A1FF"/>
<path fill-rule="evenodd" clip-rule="evenodd" d="M191.618 349.454C178.956 348.822 171.642 349.096 159.23 344.274C158.166 343.862 157.328 345.436 158.406 345.874C167.738 349.702 181.89 352.94 191.916 351.098C192.936 350.914 192.498 349.498 191.618 349.454Z" fill="#38A1FF"/>
<path fill-rule="evenodd" clip-rule="evenodd" d="M80.12 320.02C71.65 316.132 66.398 314.166 60.676 306.22C59.952 305.22 58.446 306.35 59.144 307.356C63.52 313.678 71.8 320.784 79.68 321.634C79.8773 321.649 80.0736 321.595 80.2352 321.48C80.3968 321.366 80.5136 321.199 80.5656 321.009C80.6177 320.818 80.6017 320.615 80.5204 320.434C80.439 320.254 80.2975 320.107 80.12 320.02Z" fill="#38A1FF"/>
<path fill-rule="evenodd" clip-rule="evenodd" d="M98.032 309.786C98.16 309.786 100.632 313.32 91.844 309.516C86.3915 307.147 81.3547 303.918 76.926 299.952C76.034 299.152 77.412 297.93 78.346 298.702C85.57 304.668 90.346 305.798 98.102 309.786H98.032Z" fill="#38A1FF"/>
<path fill-rule="evenodd" clip-rule="evenodd" d="M107.682 297.268C104.66 294.97 101.524 292.78 98.4421 290.556C97.4781 289.86 96.5441 291.46 97.5061 292.156C100.554 294.328 103.538 296.57 106.604 298.67C107.404 299.224 108.506 297.904 107.682 297.25V297.268Z" fill="#38A1FF"/>
<path fill-rule="evenodd" clip-rule="evenodd" d="M30.5601 253.144C27.3473 247.974 26.0375 241.846 26.8561 235.814C26.9741 234.88 25.5741 234.72 25.2561 235.588C23.1981 241.126 25.8781 249.29 28.9461 254.038C29.5821 255.03 31.2001 254.162 30.5601 253.144Z" fill="#38A1FF"/>
<path fill-rule="evenodd" clip-rule="evenodd" d="M48.23 249.95C45.7473 246.076 43.8754 241.843 42.68 237.4C42.432 236.466 41.26 237.4 41.176 238.21C41.076 240.508 45.428 249.57 46.598 250.81C47.416 251.686 48.924 250.816 48.23 249.95Z" fill="#38A1FF"/>
<path fill-rule="evenodd" clip-rule="evenodd" d="M395.664 162.112C396.52 178.141 394.873 194.206 390.782 209.728C390.728 209.944 390.761 210.173 390.873 210.365C390.986 210.558 391.169 210.698 391.384 210.758C391.599 210.817 391.828 210.79 392.023 210.682C392.218 210.575 392.364 210.395 392.428 210.182C396.106 197.014 399.368 175.752 397.41 161.928C397.41 160.952 395.61 161.072 395.664 162.112Z" fill="#38A1FF"/>
<path fill-rule="evenodd" clip-rule="evenodd" d="M329.03 50.7141C328.21 49.9141 326.764 51.0081 327.612 51.8641C333.749 58.1647 339.271 65.0365 344.102 72.3861C344.636 73.1861 346.004 72.3861 345.608 71.4921C346.102 71.4921 340.238 61.7841 329.03 50.7141Z" fill="#38A1FF"/>
<path fill-rule="evenodd" clip-rule="evenodd" d="M330.2 68.0001C330.76 68.8001 329.574 69.5621 328.922 69.0001C324.658 65.2761 313.842 52.4901 309.522 47.5141C308.856 46.7461 309.944 45.6141 310.656 46.3781C315.238 51.2781 326.864 63.2001 330.2 68.0001Z" fill="#38A1FF"/>
<path fill-rule="evenodd" clip-rule="evenodd" d="M365.08 105.13C365.014 105.037 364.931 104.957 364.835 104.896C364.738 104.835 364.631 104.794 364.519 104.774C364.406 104.755 364.291 104.758 364.18 104.783C364.069 104.808 363.963 104.854 363.87 104.92C363.777 104.986 363.697 105.069 363.636 105.165C363.575 105.262 363.534 105.369 363.515 105.482C363.495 105.594 363.498 105.709 363.523 105.82C363.548 105.932 363.594 106.037 363.66 106.13C369.992 115.93 371.278 122.272 373.198 130.144C373.436 131.124 374.798 130.726 374.83 129.804C375.154 122.49 365.722 105.13 365.08 105.13Z" fill="#38A1FF"/>
<path fill-rule="evenodd" clip-rule="evenodd" d="M356.138 105.356C355.726 104.278 353.976 104.756 354.378 105.868C355.136 107.972 358.798 118.902 359.978 120.542C360.416 121.154 361.604 120.998 361.512 120.102C361.21 117.266 357.328 108.466 356.138 105.356Z" fill="#38A1FF"/>
<path fill-rule="evenodd" clip-rule="evenodd" d="M382.338 170.2C382.21 169.378 380.686 169 380.762 169.974C380.991 177.251 380.468 184.532 379.202 191.702C379.002 192.852 380.734 192.838 380.99 191.702C382.35 184.612 382.803 177.377 382.338 170.172V170.2Z" fill="#38A1FF"/>
<path fill-rule="evenodd" clip-rule="evenodd" d="M154.504 44.584C150.474 41.846 141.08 42.832 136.606 44.47C135.358 44.926 135.796 46.95 137.076 46.5C146.076 43.328 150.572 46.174 154.022 46.23C154.215 46.2297 154.403 46.167 154.557 46.0511C154.712 45.9352 154.824 45.7725 154.879 45.5873C154.933 45.402 154.926 45.2042 154.858 45.0234C154.791 44.8426 154.666 44.6884 154.504 44.584Z" fill="#38A1FF"/>
<path fill-rule="evenodd" clip-rule="evenodd" d="M279.172 102.73C279.018 101.638 277.526 102.05 277.412 102.958C276.128 113.178 276.592 123.886 275.07 134.678C274.92 135.744 276.77 136.012 276.944 134.948C278.336 126.428 280.338 111 279.172 102.73Z" fill="#38A1FF"/>
<path fill-rule="evenodd" clip-rule="evenodd" d="M218.47 32.3501C217.578 31.5501 216.27 32.7921 217.122 33.6701C235.458 52.5301 241.19 67.0981 246.922 83.6421C247.302 84.7361 249.428 84.1981 249.122 83.0741C243.4 62.0001 230.056 42.6881 218.47 32.3501Z" fill="#38A1FF"/>
</svg>
