<svg width="400" height="400" viewBox="0 0 400 400" fill="none" xmlns="http://www.w3.org/2000/svg">
<path d="M40 202.548C40 244.983 56.8571 285.679 86.8629 315.685C116.869 345.691 157.565 362.548 200 362.548C242.435 362.548 283.131 345.691 313.137 315.685C343.143 285.679 360 244.983 360 202.548C360 160.113 343.143 119.417 313.137 89.4109C283.131 59.4051 242.435 42.548 200 42.548C157.565 42.548 116.869 59.4051 86.8629 89.4109C56.8571 119.417 40 160.113 40 202.548Z" fill="#D9EDFF"/>
<path d="M150.956 335.904C150.956 337.495 156.856 339.021 167.358 340.147C177.86 341.272 192.104 341.904 206.956 341.904C221.808 341.904 236.052 341.272 246.554 340.147C257.056 339.021 262.956 337.495 262.956 335.904C262.956 334.313 257.056 332.787 246.554 331.661C236.052 330.536 221.808 329.904 206.956 329.904C192.104 329.904 177.86 330.536 167.358 331.661C156.856 332.787 150.956 334.313 150.956 335.904Z" fill="#B0D9FF"/>
<path d="M137.032 292.432H147.768C149.192 292.432 150.557 291.866 151.564 290.86C152.57 289.853 153.136 288.488 153.136 287.064V225.332C153.136 223.908 152.57 222.543 151.564 221.536C150.557 220.53 149.192 219.964 147.768 219.964H137.032V292.432Z" fill="white" stroke="#020064" stroke-width="4" stroke-linecap="round" stroke-linejoin="round"/>
<path d="M214.872 211.912C216.872 191.856 219.532 148.836 202.792 148.836C199.589 148.836 196.518 150.108 194.253 152.373C191.988 154.638 190.716 157.709 190.716 160.912V164.94C190.716 194.464 177.916 225.34 153.116 225.34V287.072H156.284C171.764 287.072 179.084 297.808 206.82 297.808H253.792C256.639 297.808 259.37 296.677 261.383 294.664C263.397 292.65 264.528 289.919 264.528 287.072C264.528 284.225 263.397 281.494 261.383 279.48C259.37 277.467 256.639 276.336 253.792 276.336H259.16C262.007 276.336 264.738 275.205 266.751 273.191C268.765 271.178 269.896 268.447 269.896 265.6C269.896 262.753 268.765 260.022 266.751 258.009C264.738 255.995 262.007 254.864 259.16 254.864H264.528C267.375 254.864 270.106 253.733 272.119 251.719C274.133 249.706 275.264 246.975 275.264 244.128C275.264 241.281 274.133 238.55 272.119 236.536C270.106 234.523 267.375 233.392 264.528 233.392H269.896C272.743 233.392 275.474 232.261 277.487 230.247C279.501 228.234 280.632 225.503 280.632 222.656C280.632 219.809 279.501 217.078 277.487 215.064C275.474 213.051 272.743 211.92 269.896 211.92L214.872 211.912Z" fill="white"/>
<path d="M204.136 211.912H214.872" stroke="#020064" stroke-width="4" stroke-linecap="round" stroke-linejoin="round"/>
<path d="M253.792 276.328H248.424" stroke="#020064" stroke-width="4" stroke-linecap="round" stroke-linejoin="round"/>
<path d="M259.16 254.856H253.792" stroke="#020064" stroke-width="4" stroke-linecap="round" stroke-linejoin="round"/>
<path d="M264.528 233.384H259.16" stroke="#020064" stroke-width="4" stroke-linecap="round" stroke-linejoin="round"/>
<path d="M214.872 211.912C216.872 191.856 219.532 148.836 202.792 148.836C199.589 148.836 196.518 150.108 194.253 152.373C191.988 154.638 190.716 157.709 190.716 160.912V164.94C190.716 194.464 177.916 225.34 153.116 225.34V287.072H156.284C171.764 287.072 179.084 297.808 206.82 297.808H253.792C256.639 297.808 259.37 296.677 261.383 294.664C263.397 292.65 264.528 289.919 264.528 287.072C264.528 284.225 263.397 281.494 261.383 279.48C259.37 277.467 256.639 276.336 253.792 276.336H259.16C262.007 276.336 264.738 275.205 266.751 273.191C268.765 271.178 269.896 268.447 269.896 265.6C269.896 262.753 268.765 260.022 266.751 258.009C264.738 255.995 262.007 254.864 259.16 254.864H264.528C267.375 254.864 270.106 253.733 272.119 251.719C274.133 249.706 275.264 246.975 275.264 244.128C275.264 241.281 274.133 238.55 272.119 236.536C270.106 234.523 267.375 233.392 264.528 233.392H269.896C272.743 233.392 275.474 232.261 277.487 230.247C279.501 228.234 280.632 225.503 280.632 222.656C280.632 219.809 279.501 217.078 277.487 215.064C275.474 213.051 272.743 211.92 269.896 211.92L214.872 211.912Z" stroke="#020064" stroke-width="4" stroke-linecap="round" stroke-linejoin="round"/>
<path d="M99.4561 214.596H137.032V297.804H99.4561V214.596Z" fill="#B0D9FF"/>
<path d="M99.4561 214.596H137.032V297.804H99.4561V214.596Z" stroke="#020064" stroke-width="4" stroke-linecap="round" stroke-linejoin="round"/>
<path d="M204.652 40L212.868 56.644C213.192 57.3058 213.673 57.8782 214.269 58.3113C214.865 58.7443 215.558 59.0247 216.288 59.128L234.66 61.8C235.498 61.9218 236.286 62.2758 236.934 62.8218C237.581 63.3679 238.063 64.0843 238.325 64.89C238.587 65.6957 238.618 66.5585 238.415 67.381C238.212 68.2035 237.783 68.9527 237.176 69.544L223.88 82.504C223.357 83.0168 222.966 83.6482 222.739 84.3445C222.512 85.0408 222.456 85.7815 222.576 86.504L225.712 104.808C225.86 105.644 225.77 106.506 225.453 107.294C225.135 108.082 224.603 108.765 223.917 109.265C223.23 109.765 222.417 110.062 221.569 110.123C220.722 110.184 219.875 110.005 219.124 109.608L202.692 100.96C202.04 100.617 201.315 100.438 200.578 100.438C199.841 100.438 199.116 100.617 198.464 100.96L182.032 109.6C181.281 109.997 180.434 110.176 179.587 110.115C178.739 110.054 177.926 109.757 177.239 109.257C176.553 108.757 176.021 108.074 175.703 107.286C175.386 106.498 175.296 105.636 175.444 104.8L178.58 86.496C178.701 85.7735 178.646 85.0325 178.419 84.336C178.192 83.6395 177.8 83.0082 177.276 82.496L164 69.528C163.393 68.9367 162.964 68.1875 162.761 67.365C162.558 66.5425 162.589 65.6797 162.851 64.874C163.113 64.0683 163.595 63.3519 164.242 62.8058C164.89 62.2598 165.678 61.9058 166.516 61.784L184.888 59.112C185.618 59.0087 186.311 58.7283 186.907 58.2953C187.503 57.8622 187.984 57.2898 188.308 56.628L196.508 40C196.883 39.2399 197.463 38.5999 198.182 38.1523C198.902 37.7048 199.733 37.4676 200.58 37.4676C201.427 37.4676 202.258 37.7048 202.978 38.1523C203.697 38.5999 204.277 39.2399 204.652 40Z" fill="#B0D9FF"/>
<path d="M204.652 40L212.868 56.644C213.192 57.3058 213.673 57.8782 214.269 58.3113C214.865 58.7443 215.558 59.0247 216.288 59.128L234.66 61.8C235.498 61.9218 236.286 62.2758 236.934 62.8218C237.581 63.3679 238.063 64.0843 238.325 64.89C238.587 65.6957 238.618 66.5585 238.415 67.381C238.212 68.2035 237.783 68.9527 237.176 69.544L223.88 82.504C223.357 83.0168 222.966 83.6482 222.739 84.3445C222.512 85.0408 222.456 85.7815 222.576 86.504L225.712 104.808C225.86 105.644 225.77 106.506 225.453 107.294C225.135 108.082 224.603 108.765 223.917 109.265C223.23 109.765 222.417 110.062 221.569 110.123C220.722 110.184 219.875 110.005 219.124 109.608L202.692 100.96C202.04 100.617 201.315 100.438 200.578 100.438C199.841 100.438 199.116 100.617 198.464 100.96L182.032 109.6C181.281 109.997 180.434 110.176 179.587 110.115C178.739 110.054 177.926 109.757 177.239 109.257C176.553 108.757 176.021 108.074 175.703 107.286C175.386 106.498 175.296 105.636 175.444 104.8L178.58 86.496C178.701 85.7735 178.646 85.0325 178.419 84.336C178.192 83.6395 177.8 83.0082 177.276 82.496L164 69.528C163.393 68.9367 162.964 68.1875 162.761 67.365C162.558 66.5425 162.589 65.6797 162.851 64.874C163.113 64.0683 163.595 63.3519 164.242 62.8058C164.89 62.2598 165.678 61.9058 166.516 61.784L184.888 59.112C185.618 59.0087 186.311 58.7283 186.907 58.2953C187.503 57.8622 187.984 57.2898 188.308 56.628L196.508 40C196.883 39.2399 197.463 38.5999 198.182 38.1523C198.902 37.7048 199.733 37.4676 200.58 37.4676C201.427 37.4676 202.258 37.7048 202.978 38.1523C203.697 38.5999 204.277 39.2399 204.652 40V40Z" stroke="#020064" stroke-width="4" stroke-linecap="round" stroke-linejoin="round"/>
<path d="M109.884 75.908L122.868 84.088C123.383 84.4136 123.969 84.6085 124.576 84.6559C125.183 84.7033 125.793 84.6018 126.352 84.36L140.456 78.3C141.1 78.0228 141.808 77.9314 142.501 78.0362C143.194 78.1409 143.844 78.4377 144.377 78.8927C144.909 79.3478 145.304 79.943 145.516 80.611C145.728 81.2789 145.749 81.9929 145.576 82.672L141.808 97.552C141.658 98.1406 141.652 98.7569 141.791 99.3482C141.931 99.9395 142.211 100.488 142.608 100.948L152.732 112.488C153.194 113.015 153.499 113.661 153.614 114.352C153.728 115.043 153.646 115.753 153.378 116.401C153.11 117.048 152.667 117.608 152.097 118.016C151.528 118.425 150.855 118.666 150.156 118.712L134.844 119.724C134.236 119.765 133.648 119.952 133.129 120.271C132.61 120.589 132.176 121.029 131.864 121.552L124.016 134.752C123.658 135.355 123.139 135.845 122.517 136.167C121.894 136.49 121.194 136.632 120.496 136.577C119.797 136.522 119.128 136.272 118.564 135.856C118 135.441 117.563 134.875 117.304 134.224L111.604 119.972C111.379 119.406 111.02 118.904 110.557 118.509C110.094 118.114 109.542 117.837 108.948 117.704L94 114.308C93.317 114.154 92.6908 113.811 92.1923 113.319C91.6938 112.827 91.3429 112.206 91.1793 111.525C91.0158 110.844 91.046 110.131 91.2667 109.466C91.4874 108.801 91.8897 108.212 92.428 107.764L104.22 97.94C104.689 97.5516 105.056 97.0544 105.289 96.4918C105.521 95.9292 105.613 95.3182 105.556 94.712L104.152 79.428C104.088 78.7313 104.22 78.0307 104.534 77.4051C104.847 76.7796 105.329 76.2541 105.925 75.888C106.521 75.5219 107.208 75.3297 107.907 75.3333C108.607 75.3368 109.292 75.5359 109.884 75.908Z" fill="#B0D9FF"/>
<path d="M109.884 75.908L122.868 84.088C123.383 84.4136 123.969 84.6085 124.576 84.6559C125.183 84.7033 125.793 84.6018 126.352 84.36L140.456 78.3C141.1 78.0228 141.808 77.9314 142.501 78.0362C143.194 78.1409 143.844 78.4377 144.377 78.8927C144.909 79.3478 145.304 79.943 145.516 80.611C145.728 81.2789 145.749 81.9929 145.576 82.672L141.808 97.552C141.658 98.1406 141.652 98.7569 141.791 99.3482C141.931 99.9395 142.211 100.488 142.608 100.948L152.732 112.488C153.194 113.015 153.499 113.661 153.614 114.352C153.728 115.043 153.646 115.753 153.378 116.401C153.11 117.048 152.667 117.608 152.097 118.016C151.528 118.425 150.855 118.666 150.156 118.712L134.844 119.724C134.236 119.765 133.648 119.952 133.129 120.271C132.61 120.589 132.176 121.029 131.864 121.552L124.016 134.752C123.658 135.355 123.139 135.845 122.517 136.167C121.894 136.49 121.194 136.632 120.496 136.577C119.797 136.522 119.128 136.272 118.564 135.856C118 135.441 117.563 134.875 117.304 134.224L111.604 119.972C111.379 119.406 111.02 118.904 110.557 118.509C110.094 118.114 109.542 117.837 108.948 117.704L94 114.308C93.317 114.154 92.6908 113.811 92.1923 113.319C91.6938 112.827 91.3429 112.206 91.1793 111.525C91.0158 110.844 91.046 110.131 91.2667 109.466C91.4874 108.801 91.8897 108.212 92.428 107.764L104.22 97.94C104.689 97.5516 105.056 97.0544 105.289 96.4918C105.521 95.9292 105.613 95.3182 105.556 94.712L104.152 79.428C104.088 78.7313 104.22 78.0307 104.534 77.4051C104.847 76.7796 105.329 76.2541 105.925 75.888C106.521 75.5219 107.208 75.3297 107.907 75.3333C108.607 75.3368 109.292 75.5359 109.884 75.908V75.908Z" stroke="#020064" stroke-width="4" stroke-linecap="round" stroke-linejoin="round"/>
<path d="M59.0881 150.6L70.848 151.2C71.3145 151.224 71.7798 151.133 72.2035 150.937C72.6273 150.74 72.9967 150.443 73.28 150.072L80.4401 140.724C80.7669 140.297 81.2068 139.97 81.7098 139.78C82.2128 139.591 82.7589 139.545 83.2863 139.65C83.8137 139.754 84.3013 140.004 84.6939 140.372C85.0866 140.739 85.3686 141.209 85.5081 141.728L88.572 153.1C88.6943 153.55 88.9237 153.964 89.2407 154.306C89.5576 154.648 89.9527 154.908 90.392 155.064L101.5 158.988C102.007 159.167 102.453 159.484 102.788 159.904C103.124 160.323 103.336 160.828 103.399 161.362C103.463 161.895 103.376 162.436 103.149 162.923C102.921 163.409 102.562 163.823 102.112 164.116L92.2441 170.544C91.8534 170.8 91.5303 171.146 91.3025 171.553C91.0748 171.961 90.949 172.417 90.936 172.884L90.64 184.656C90.6264 185.193 90.4628 185.716 90.1676 186.165C89.8725 186.614 89.4576 186.971 88.9698 187.197C88.4821 187.423 87.941 187.507 87.4077 187.441C86.8744 187.375 86.3702 187.162 85.9521 186.824L76.8001 179.428C76.437 179.133 76.0075 178.931 75.5489 178.84C75.0903 178.749 74.6163 178.771 74.168 178.904L62.8801 182.26C62.365 182.414 61.8171 182.42 61.2985 182.279C60.78 182.137 60.3115 181.853 59.9462 181.459C59.5809 181.064 59.3335 180.575 59.232 180.047C59.1306 179.52 59.1791 178.974 59.3721 178.472L63.572 167.472C63.7409 167.036 63.8003 166.565 63.7453 166.101C63.6902 165.636 63.5222 165.193 63.256 164.808L56.5801 155.108C56.2764 154.666 56.1021 154.148 56.0768 153.613C56.0515 153.077 56.1762 152.545 56.4369 152.077C56.6975 151.608 57.0838 151.222 57.5522 150.961C58.0206 150.7 58.5525 150.575 59.0881 150.6Z" fill="#B0D9FF"/>
<path d="M59.0881 150.6L70.848 151.2C71.3145 151.224 71.7798 151.133 72.2035 150.937C72.6273 150.74 72.9967 150.443 73.28 150.072L80.4401 140.724C80.7669 140.297 81.2068 139.97 81.7098 139.78C82.2128 139.591 82.7589 139.545 83.2863 139.65C83.8137 139.754 84.3013 140.004 84.6939 140.372C85.0866 140.739 85.3686 141.209 85.5081 141.728L88.572 153.1C88.6943 153.55 88.9237 153.964 89.2407 154.306C89.5576 154.648 89.9527 154.908 90.392 155.064L101.5 158.988C102.007 159.167 102.453 159.484 102.788 159.904C103.124 160.323 103.336 160.828 103.399 161.362C103.463 161.895 103.376 162.436 103.149 162.923C102.921 163.409 102.562 163.823 102.112 164.116L92.2441 170.544C91.8534 170.8 91.5303 171.146 91.3025 171.553C91.0748 171.961 90.949 172.417 90.936 172.884L90.64 184.656C90.6264 185.193 90.4628 185.716 90.1676 186.165C89.8725 186.614 89.4576 186.971 88.9698 187.197C88.4821 187.423 87.941 187.507 87.4077 187.441C86.8744 187.375 86.3702 187.162 85.9521 186.824L76.8001 179.428C76.437 179.133 76.0075 178.931 75.5489 178.84C75.0903 178.749 74.6163 178.771 74.168 178.904L62.8801 182.26C62.365 182.414 61.8171 182.42 61.2985 182.279C60.78 182.137 60.3115 181.853 59.9462 181.459C59.5809 181.064 59.3335 180.575 59.232 180.047C59.1306 179.52 59.1791 178.974 59.3721 178.472L63.572 167.472C63.7409 167.036 63.8003 166.565 63.7453 166.101C63.6902 165.636 63.5222 165.193 63.256 164.808L56.5801 155.108C56.2764 154.666 56.1021 154.148 56.0768 153.613C56.0515 153.077 56.1762 152.545 56.4369 152.077C56.6975 151.608 57.0838 151.222 57.5522 150.961C58.0206 150.7 58.5525 150.575 59.0881 150.6V150.6Z" stroke="#020064" stroke-width="4" stroke-linecap="round" stroke-linejoin="round"/>
<path d="M298.424 79.428C298.489 78.7301 298.357 78.028 298.044 77.4011C297.73 76.7743 297.247 76.2478 296.65 75.8814C296.052 75.515 295.364 75.3232 294.663 75.328C293.962 75.3327 293.277 75.5336 292.684 75.908L279.7 84.088C279.185 84.4136 278.599 84.6085 277.992 84.6559C277.385 84.7033 276.775 84.6018 276.216 84.36L262.112 78.3C261.468 78.0245 260.761 77.9343 260.068 78.0397C259.376 78.1451 258.727 78.4419 258.195 78.8966C257.662 79.3512 257.268 79.9457 257.055 80.6128C256.843 81.2799 256.821 81.9931 256.992 82.672L260.76 97.552C260.911 98.1406 260.918 98.757 260.778 99.3485C260.639 99.94 260.358 100.489 259.96 100.948L249.84 112.488C249.378 113.015 249.073 113.66 248.958 114.351C248.844 115.042 248.925 115.752 249.193 116.399C249.46 117.046 249.903 117.606 250.472 118.015C251.041 118.424 251.713 118.665 252.412 118.712L267.728 119.724C268.335 119.765 268.923 119.952 269.442 120.271C269.96 120.589 270.393 121.029 270.704 121.552L278.552 134.752C278.91 135.355 279.429 135.845 280.051 136.167C280.674 136.49 281.374 136.632 282.072 136.577C282.771 136.522 283.44 136.272 284.004 135.856C284.568 135.441 285.005 134.875 285.264 134.224L290.964 119.972C291.189 119.407 291.549 118.905 292.011 118.509C292.474 118.114 293.026 117.838 293.62 117.704L308.592 114.316C309.275 114.162 309.902 113.82 310.401 113.328C310.9 112.837 311.251 112.215 311.415 111.534C311.579 110.853 311.549 110.14 311.329 109.475C311.109 108.81 310.706 108.22 310.168 107.772L298.372 97.948C297.904 97.5591 297.537 97.0619 297.304 96.4994C297.072 95.9369 296.98 95.3261 297.036 94.72L298.424 79.428Z" fill="#B0D9FF"/>
<path d="M298.424 79.428C298.489 78.7301 298.357 78.028 298.044 77.4011C297.73 76.7743 297.247 76.2478 296.65 75.8814C296.052 75.515 295.364 75.3232 294.663 75.328C293.962 75.3327 293.277 75.5336 292.684 75.908L279.7 84.088C279.185 84.4136 278.599 84.6085 277.992 84.6559C277.385 84.7033 276.775 84.6018 276.216 84.36L262.112 78.3C261.469 78.0232 260.761 77.932 260.068 78.0366C259.376 78.1413 258.727 78.4376 258.194 78.8921C257.661 79.3466 257.266 79.9412 257.054 80.6085C256.841 81.2757 256.82 81.9892 256.992 82.668L260.76 97.552C260.911 98.1406 260.918 98.757 260.778 99.3485C260.639 99.94 260.358 100.489 259.96 100.948L249.84 112.488C249.378 113.015 249.073 113.66 248.958 114.351C248.844 115.042 248.925 115.752 249.193 116.399C249.46 117.046 249.903 117.606 250.472 118.015C251.041 118.424 251.713 118.665 252.412 118.712L267.728 119.724C268.335 119.765 268.923 119.952 269.442 120.271C269.96 120.589 270.393 121.029 270.704 121.552L278.552 134.752C278.91 135.355 279.429 135.845 280.051 136.167C280.674 136.49 281.374 136.632 282.072 136.577C282.771 136.522 283.44 136.272 284.004 135.856C284.568 135.441 285.005 134.875 285.264 134.224L290.964 119.972C291.189 119.407 291.549 118.905 292.011 118.509C292.474 118.114 293.026 117.838 293.62 117.704L308.592 114.316C309.275 114.162 309.902 113.82 310.401 113.328C310.9 112.837 311.251 112.215 311.415 111.534C311.579 110.853 311.549 110.14 311.329 109.475C311.109 108.81 310.706 108.22 310.168 107.772L298.372 97.948C297.904 97.5591 297.537 97.0619 297.304 96.4994C297.072 95.9369 296.98 95.3261 297.036 94.72L298.424 79.428Z" stroke="#020064" stroke-width="4" stroke-linecap="round" stroke-linejoin="round"/>
<path d="M346 155.108C346.306 154.666 346.481 154.147 346.507 153.61C346.533 153.073 346.408 152.54 346.146 152.07C345.884 151.601 345.496 151.215 345.025 150.955C344.555 150.695 344.021 150.572 343.484 150.6L331.724 151.2C331.257 151.225 330.792 151.135 330.368 150.938C329.944 150.742 329.575 150.444 329.292 150.072L322.128 140.724C321.801 140.297 321.361 139.97 320.858 139.78C320.355 139.591 319.809 139.545 319.282 139.65C318.754 139.754 318.267 140.004 317.874 140.372C317.481 140.739 317.199 141.209 317.06 141.728L314 153.1C313.878 153.55 313.648 153.964 313.331 154.306C313.014 154.648 312.619 154.908 312.18 155.064L301.076 158.988C300.568 159.166 300.121 159.483 299.784 159.902C299.448 160.322 299.235 160.827 299.172 161.361C299.108 161.895 299.195 162.437 299.424 162.924C299.652 163.41 300.012 163.824 300.464 164.116L310.328 170.544C310.72 170.798 311.044 171.144 311.272 171.552C311.5 171.96 311.625 172.417 311.636 172.884L311.936 184.656C311.95 185.193 312.113 185.716 312.408 186.165C312.704 186.614 313.118 186.971 313.606 187.197C314.094 187.423 314.635 187.507 315.168 187.441C315.702 187.375 316.206 187.162 316.624 186.824L325.788 179.428C326.15 179.134 326.579 178.932 327.037 178.841C327.495 178.749 327.968 178.771 328.416 178.904L339.704 182.26C340.219 182.413 340.767 182.419 341.285 182.278C341.804 182.136 342.272 181.852 342.637 181.458C343.003 181.064 343.251 180.575 343.353 180.047C343.455 179.52 343.408 178.974 343.216 178.472L339.012 167.472C338.845 167.036 338.786 166.565 338.841 166.101C338.896 165.637 339.063 165.193 339.328 164.808L346 155.108Z" fill="#B0D9FF"/>
<path d="M346 155.108C346.306 154.666 346.481 154.147 346.507 153.61C346.533 153.073 346.408 152.54 346.146 152.07C345.884 151.601 345.496 151.215 345.025 150.955C344.555 150.695 344.021 150.572 343.484 150.6L331.724 151.2C331.257 151.225 330.792 151.135 330.368 150.938C329.944 150.742 329.575 150.444 329.292 150.072L322.128 140.724C321.801 140.298 321.361 139.973 320.859 139.783C320.356 139.594 319.811 139.549 319.284 139.654C318.758 139.758 318.271 140.008 317.878 140.374C317.486 140.741 317.204 141.21 317.064 141.728L314 153.1C313.878 153.55 313.648 153.964 313.331 154.306C313.014 154.648 312.619 154.908 312.18 155.064L301.076 158.988C300.568 159.166 300.121 159.483 299.784 159.902C299.448 160.322 299.235 160.827 299.172 161.361C299.108 161.895 299.195 162.437 299.424 162.924C299.652 163.41 300.012 163.824 300.464 164.116L310.328 170.544C310.72 170.798 311.044 171.144 311.272 171.552C311.5 171.96 311.625 172.417 311.636 172.884L311.936 184.656C311.95 185.193 312.113 185.716 312.408 186.165C312.704 186.614 313.118 186.971 313.606 187.197C314.094 187.423 314.635 187.507 315.168 187.441C315.702 187.375 316.206 187.162 316.624 186.824L325.788 179.428C326.15 179.134 326.579 178.932 327.037 178.841C327.495 178.749 327.968 178.771 328.416 178.904L339.708 182.26C340.223 182.412 340.77 182.418 341.288 182.275C341.806 182.133 342.273 181.849 342.638 181.455C343.003 181.061 343.25 180.573 343.352 180.046C343.455 179.519 343.407 178.974 343.216 178.472L339.012 167.472C338.845 167.036 338.786 166.565 338.841 166.101C338.896 165.637 339.063 165.193 339.328 164.808L346 155.108Z" stroke="#020064" stroke-width="4" stroke-linecap="round" stroke-linejoin="round"/>
</svg>
