<svg width="400" height="400" viewBox="0 0 400 400" fill="none" xmlns="http://www.w3.org/2000/svg">
<path d="M40 202.552C40 244.987 56.8571 285.683 86.8629 315.689C116.869 345.695 157.565 362.552 200 362.552C242.435 362.552 283.131 345.695 313.137 315.689C343.143 285.683 360 244.987 360 202.552C360 160.117 343.143 119.421 313.137 89.4149C283.131 59.4091 242.435 42.552 200 42.552C157.565 42.552 116.869 59.4091 86.8629 89.4149C56.8571 119.421 40 160.117 40 202.552Z" fill="#E8F4FA" stroke="#DAEDF7" stroke-width="4"/>
<path opacity="0.15" d="M152.956 328.904C152.956 330.495 157.592 332.021 165.843 333.147C174.095 334.272 185.287 334.904 196.956 334.904C208.626 334.904 219.817 334.272 228.069 333.147C236.32 332.021 240.956 330.495 240.956 328.904C240.956 327.313 236.32 325.787 228.069 324.661C219.817 323.536 208.626 322.904 196.956 322.904C185.287 322.904 174.095 323.536 165.843 324.661C157.592 325.787 152.956 327.313 152.956 328.904Z" fill="#45413C"/>
<path d="M137.032 292.432H147.768C149.192 292.432 150.557 291.866 151.564 290.86C152.57 289.853 153.136 288.488 153.136 287.064V225.328C153.136 223.904 152.57 222.539 151.564 221.532C150.557 220.526 149.192 219.96 147.768 219.96H137.032V292.432Z" fill="white" stroke="#45413C" stroke-width="4" stroke-linecap="round" stroke-linejoin="round"/>
<path d="M214.872 211.908C216.872 191.856 219.528 148.832 202.792 148.832C199.588 148.832 196.516 150.105 194.25 152.37C191.985 154.636 190.712 157.708 190.712 160.912V164.936C190.712 194.464 177.912 225.336 153.136 225.336L153.112 287.072H156.28C171.76 287.072 179.08 297.808 206.816 297.808H253.788C256.635 297.808 259.366 296.677 261.38 294.664C263.393 292.65 264.524 289.919 264.524 287.072C264.524 284.225 263.393 281.494 261.38 279.481C259.366 277.467 256.635 276.336 253.788 276.336H259.156C262.003 276.336 264.734 275.205 266.748 273.192C268.761 271.178 269.892 268.447 269.892 265.6C269.892 262.753 268.761 260.022 266.748 258.009C264.734 255.995 262.003 254.864 259.156 254.864H264.524C265.952 254.892 267.37 254.634 268.697 254.107C270.024 253.58 271.233 252.793 272.252 251.793C273.271 250.793 274.081 249.6 274.634 248.284C275.187 246.967 275.471 245.554 275.471 244.126C275.471 242.698 275.187 241.285 274.634 239.968C274.081 238.652 273.271 237.459 272.252 236.459C271.233 235.459 270.024 234.672 268.697 234.145C267.37 233.618 265.952 233.36 264.524 233.388H269.896C272.743 233.388 275.474 232.257 277.488 230.244C279.501 228.23 280.632 225.499 280.632 222.652C280.632 219.805 279.501 217.074 277.488 215.061C275.474 213.047 272.743 211.916 269.896 211.916L214.872 211.908Z" fill="#D18660"/>
<path d="M269.896 211.908H206.8C206.8 213.318 207.078 214.715 207.618 216.017C208.157 217.32 208.949 218.504 209.946 219.501C210.943 220.498 212.127 221.289 213.43 221.828C214.733 222.367 216.13 222.645 217.54 222.644H280.632C280.632 219.797 279.501 217.066 277.488 215.053C275.474 213.039 272.743 211.908 269.896 211.908Z" fill="#E09F7E"/>
<path d="M213.568 159.908C211.95 159.858 210.338 160.134 208.828 160.72C207.318 161.305 205.942 162.188 204.78 163.316C203.619 164.444 202.696 165.794 202.066 167.286C201.437 168.778 201.114 170.381 201.116 172V176C201.116 205.524 188.316 236.4 163.516 236.4H153.116V225.328C177.888 225.328 190.692 194.464 190.692 164.928V160.912C190.692 157.708 191.965 154.636 194.23 152.37C196.496 150.105 199.568 148.832 202.772 148.832C208.152 148.832 211.524 153.248 213.568 159.908Z" fill="#E09F7E"/>
<path d="M204.132 211.908H214.872" stroke="#45413C" stroke-width="4" stroke-linecap="round" stroke-linejoin="round"/>
<path d="M253.788 276.328H248.42" stroke="#45413C" stroke-width="4" stroke-linecap="round" stroke-linejoin="round"/>
<path d="M259.156 254.856H253.788" stroke="#45413C" stroke-width="4" stroke-linecap="round" stroke-linejoin="round"/>
<path d="M264.524 233.38H259.156" stroke="#45413C" stroke-width="4" stroke-linecap="round" stroke-linejoin="round"/>
<path d="M214.872 211.908C216.872 191.856 219.528 148.832 202.792 148.832C199.588 148.832 196.516 150.105 194.25 152.37C191.985 154.636 190.712 157.708 190.712 160.912V164.936C190.712 194.464 177.912 225.336 153.136 225.336L153.112 287.072H156.28C171.76 287.072 179.08 297.808 206.816 297.808H253.788C256.635 297.808 259.366 296.677 261.38 294.664C263.393 292.65 264.524 289.919 264.524 287.072C264.524 284.225 263.393 281.494 261.38 279.481C259.366 277.467 256.635 276.336 253.788 276.336H259.156C262.003 276.336 264.734 275.205 266.748 273.192C268.761 271.178 269.892 268.447 269.892 265.6C269.892 262.753 268.761 260.022 266.748 258.009C264.734 255.995 262.003 254.864 259.156 254.864H264.524C265.952 254.892 267.37 254.634 268.697 254.107C270.024 253.58 271.233 252.793 272.252 251.793C273.271 250.793 274.081 249.6 274.634 248.284C275.187 246.967 275.471 245.554 275.471 244.126C275.471 242.698 275.187 241.285 274.634 239.968C274.081 238.652 273.271 237.459 272.252 236.459C271.233 235.459 270.024 234.672 268.697 234.145C267.37 233.618 265.952 233.36 264.524 233.388H269.896C272.743 233.388 275.474 232.257 277.488 230.244C279.501 228.23 280.632 225.499 280.632 222.652C280.632 219.805 279.501 217.074 277.488 215.061C275.474 213.047 272.743 211.916 269.896 211.916L214.872 211.908Z" stroke="#45413C" stroke-width="4" stroke-linecap="round" stroke-linejoin="round"/>
<path d="M99.4561 214.592H137.032V297.8H99.4561V214.592Z" fill="#009FD9"/>
<path d="M99.4561 228V220.448C99.4561 218.896 100.072 217.407 101.17 216.309C102.267 215.211 103.756 214.593 105.308 214.592H131.176C132.729 214.592 134.219 215.209 135.317 216.307C136.415 217.405 137.032 218.895 137.032 220.448V228H99.4561Z" fill="#00B8F0"/>
<path d="M99.4561 214.592H137.032V297.8H99.4561V214.592Z" stroke="#45413C" stroke-width="4" stroke-linecap="round" stroke-linejoin="round"/>
<path d="M204.648 39.98L212.864 56.628C213.19 57.2884 213.671 57.8596 214.267 58.2923C214.863 58.7251 215.555 59.0064 216.284 59.112L234.66 61.784C235.498 61.9059 236.286 62.2598 236.933 62.8059C237.581 63.3519 238.063 64.0683 238.325 64.874C238.587 65.6797 238.618 66.5426 238.415 67.365C238.212 68.1875 237.783 68.9367 237.176 69.528L223.88 82.488C223.356 82.9999 222.963 83.631 222.735 84.3275C222.507 85.024 222.451 85.7652 222.572 86.488L225.712 104.788C225.858 105.624 225.767 106.485 225.45 107.272C225.132 108.059 224.6 108.741 223.913 109.241C223.227 109.741 222.415 110.038 221.568 110.099C220.722 110.161 219.875 109.984 219.124 109.588L202.688 100.948C202.037 100.605 201.312 100.426 200.576 100.426C199.84 100.426 199.115 100.605 198.464 100.948L182.028 109.6C181.277 109.996 180.43 110.173 179.583 110.111C178.737 110.05 177.924 109.753 177.238 109.253C176.552 108.753 176.02 108.071 175.702 107.284C175.384 106.497 175.293 105.636 175.44 104.8L178.576 86.5C178.698 85.7775 178.644 85.0361 178.417 84.3394C178.19 83.6427 177.797 83.0115 177.272 82.5L163.976 69.54C163.369 68.9487 162.94 68.1995 162.737 67.377C162.534 66.5546 162.565 65.6917 162.827 64.886C163.089 64.0803 163.571 63.3639 164.218 62.8179C164.866 62.2718 165.654 61.9179 166.492 61.796L184.868 59.124C185.597 59.0184 186.289 58.7371 186.885 58.3043C187.48 57.8716 187.962 57.3004 188.288 56.64L196.504 39.992C196.878 39.2314 197.457 38.5905 198.176 38.1419C198.895 37.6933 199.725 37.4549 200.572 37.4536C201.42 37.4524 202.251 37.6883 202.971 38.1348C203.691 38.5813 204.272 39.2205 204.648 39.98Z" fill="#FFE500"/>
<path d="M176 101.54L178.576 86.5081C178.698 85.7856 178.644 85.0441 178.417 84.3474C178.19 83.6507 177.797 83.0195 177.272 82.5081L163.976 69.5481C163.369 68.9568 162.94 68.2075 162.737 67.3851C162.534 66.5626 162.565 65.6997 162.827 64.894C163.089 64.0883 163.571 63.372 164.218 62.8259C164.866 62.2798 165.654 61.9259 166.492 61.8041L184.868 59.1321C185.597 59.0264 186.289 58.7451 186.885 58.3124C187.48 57.8796 187.962 57.3084 188.288 56.6481L196.504 40.0001C196.879 39.24 197.459 38.5999 198.178 38.1524C198.898 37.7048 199.728 37.4677 200.576 37.4677C201.423 37.4677 202.254 37.7048 202.974 38.1524C203.693 38.5999 204.273 39.24 204.648 40.0001L212.864 56.6481C213.19 57.3084 213.671 57.8796 214.267 58.3124C214.863 58.7451 215.555 59.0264 216.284 59.1321L176 101.54Z" fill="#FFF48C"/>
<path d="M204.648 39.98L212.864 56.628C213.19 57.2884 213.671 57.8596 214.267 58.2923C214.863 58.7251 215.555 59.0064 216.284 59.112L234.66 61.784C235.498 61.9059 236.286 62.2598 236.933 62.8059C237.581 63.3519 238.063 64.0683 238.325 64.874C238.587 65.6797 238.618 66.5426 238.415 67.365C238.212 68.1875 237.783 68.9367 237.176 69.528L223.88 82.488C223.356 82.9999 222.963 83.631 222.735 84.3275C222.507 85.024 222.451 85.7652 222.572 86.488L225.712 104.788C225.858 105.624 225.767 106.485 225.45 107.272C225.132 108.059 224.6 108.741 223.913 109.241C223.227 109.741 222.415 110.038 221.568 110.099C220.722 110.161 219.875 109.984 219.124 109.588L202.688 100.948C202.037 100.605 201.312 100.426 200.576 100.426C199.84 100.426 199.115 100.605 198.464 100.948L182.028 109.6C181.277 109.996 180.43 110.173 179.583 110.111C178.737 110.05 177.924 109.753 177.238 109.253C176.552 108.753 176.02 108.071 175.702 107.284C175.384 106.497 175.293 105.636 175.44 104.8L178.576 86.5C178.698 85.7775 178.644 85.0361 178.417 84.3394C178.19 83.6427 177.797 83.0115 177.272 82.5L163.976 69.54C163.369 68.9487 162.94 68.1995 162.737 67.377C162.534 66.5546 162.565 65.6917 162.827 64.886C163.089 64.0803 163.571 63.3639 164.218 62.8179C164.866 62.2718 165.654 61.9179 166.492 61.796L184.868 59.124C185.597 59.0184 186.289 58.7371 186.885 58.3043C187.48 57.8716 187.962 57.3004 188.288 56.64L196.504 39.992C196.878 39.2314 197.457 38.5905 198.176 38.1419C198.895 37.6933 199.725 37.4549 200.572 37.4536C201.42 37.4524 202.251 37.6883 202.971 38.1348C203.691 38.5813 204.272 39.2205 204.648 39.98V39.98Z" stroke="#45413C" stroke-width="4" stroke-linecap="round" stroke-linejoin="round"/>
<path d="M109.884 75.908L122.868 84.088C123.383 84.4117 123.97 84.6055 124.577 84.6529C125.183 84.7002 125.793 84.5998 126.352 84.36L140.456 78.3C141.099 78.0233 141.807 77.932 142.5 78.0367C143.192 78.1413 143.841 78.4377 144.374 78.8922C144.907 79.3467 145.302 79.9412 145.514 80.6085C145.727 81.2758 145.748 81.9892 145.576 82.668L141.808 97.548C141.657 98.1372 141.65 98.7543 141.79 99.3464C141.929 99.9386 142.21 100.488 142.608 100.948L152.732 112.488C153.194 113.015 153.5 113.66 153.615 114.351C153.729 115.043 153.647 115.752 153.379 116.4C153.111 117.047 152.667 117.606 152.097 118.014C151.528 118.422 150.855 118.663 150.156 118.708L134.84 119.724C134.233 119.764 133.644 119.951 133.126 120.27C132.607 120.588 132.174 121.028 131.864 121.552L124.016 134.752C123.658 135.355 123.139 135.845 122.517 136.168C121.895 136.491 121.196 136.633 120.497 136.579C119.798 136.524 119.129 136.275 118.565 135.859C118 135.444 117.564 134.879 117.304 134.228L111.62 119.96C111.393 119.396 111.034 118.894 110.571 118.499C110.108 118.104 109.557 117.827 108.964 117.692L94 114.308C93.3176 114.153 92.6921 113.81 92.1941 113.318C91.6961 112.827 91.3454 112.205 91.1815 111.525C91.0177 110.845 91.0472 110.132 91.2667 109.467C91.4862 108.803 91.8871 108.213 92.424 107.764L104.22 97.936C104.688 97.5471 105.055 97.0499 105.288 96.4874C105.52 95.9249 105.613 95.3142 105.556 94.708L104.152 79.424C104.089 78.7277 104.222 78.0276 104.535 77.4026C104.849 76.7777 105.331 76.2528 105.927 75.8872C106.523 75.5217 107.209 75.3299 107.908 75.3335C108.608 75.3372 109.292 75.5362 109.884 75.908Z" fill="#FFE500"/>
<path d="M116.3 131.668L111.62 119.96C111.393 119.395 111.034 118.894 110.571 118.499C110.108 118.104 109.557 117.827 108.964 117.692L94 114.308C93.3176 114.153 92.6921 113.81 92.1941 113.318C91.6961 112.826 91.3454 112.205 91.1815 111.525C91.0177 110.845 91.0472 110.132 91.2667 109.467C91.4862 108.803 91.8871 108.213 92.424 107.764L104.22 97.936C104.688 97.5471 105.055 97.0499 105.288 96.4874C105.52 95.9249 105.613 95.3141 105.556 94.708L104.152 79.424C104.088 78.7264 104.22 78.0248 104.534 77.3986C104.848 76.7724 105.331 76.2466 105.928 75.8807C106.526 75.5147 107.214 75.3234 107.914 75.3282C108.615 75.333 109.3 75.5339 109.892 75.908L122.876 84.088C123.391 84.4116 123.978 84.6055 124.585 84.6528C125.191 84.7002 125.801 84.5997 126.36 84.36L116.3 131.668Z" fill="#FFF48C"/>
<path d="M109.884 75.908L122.868 84.088C123.383 84.4117 123.97 84.6055 124.577 84.6529C125.183 84.7002 125.793 84.5998 126.352 84.36L140.456 78.3C141.099 78.0233 141.807 77.932 142.5 78.0367C143.192 78.1413 143.841 78.4377 144.374 78.8922C144.907 79.3467 145.302 79.9412 145.514 80.6085C145.727 81.2758 145.748 81.9892 145.576 82.668L141.808 97.548C141.657 98.1372 141.65 98.7543 141.79 99.3464C141.929 99.9386 142.21 100.488 142.608 100.948L152.732 112.488C153.194 113.015 153.5 113.66 153.615 114.351C153.729 115.043 153.647 115.752 153.379 116.4C153.111 117.047 152.667 117.606 152.097 118.014C151.528 118.422 150.855 118.663 150.156 118.708L134.84 119.724C134.233 119.764 133.644 119.951 133.126 120.27C132.607 120.588 132.174 121.028 131.864 121.552L124.016 134.752C123.658 135.355 123.139 135.845 122.517 136.168C121.895 136.491 121.196 136.633 120.497 136.579C119.798 136.524 119.129 136.275 118.565 135.859C118 135.444 117.564 134.879 117.304 134.228L111.62 119.96C111.393 119.396 111.034 118.894 110.571 118.499C110.108 118.104 109.557 117.827 108.964 117.692L94 114.308C93.3176 114.153 92.6921 113.81 92.1941 113.318C91.6961 112.827 91.3454 112.205 91.1815 111.525C91.0177 110.845 91.0472 110.132 91.2667 109.467C91.4862 108.803 91.8871 108.213 92.424 107.764L104.22 97.936C104.688 97.5471 105.055 97.0499 105.288 96.4874C105.52 95.9249 105.613 95.3142 105.556 94.708L104.152 79.424C104.089 78.7277 104.222 78.0276 104.535 77.4026C104.849 76.7777 105.331 76.2528 105.927 75.8872C106.523 75.5217 107.209 75.3299 107.908 75.3335C108.608 75.3372 109.292 75.5362 109.884 75.908V75.908Z" stroke="#45413C" stroke-width="4" stroke-linecap="round" stroke-linejoin="round"/>
<path d="M59.084 150.596L70.844 151.196C71.3102 151.22 71.7753 151.131 72.1991 150.935C72.6228 150.739 72.9925 150.443 73.276 150.072L80.44 140.724C80.7666 140.297 81.2061 139.97 81.7089 139.78C82.2116 139.59 82.7575 139.544 83.2849 139.648C83.8122 139.753 84.2999 140.002 84.6927 140.369C85.0856 140.736 85.368 141.205 85.508 141.724L88.572 153.096C88.6937 153.547 88.9228 153.961 89.2398 154.304C89.5568 154.647 89.9521 154.908 90.392 155.064L101.496 158.984C102.003 159.163 102.451 159.48 102.787 159.9C103.124 160.32 103.336 160.825 103.399 161.36C103.463 161.894 103.376 162.435 103.148 162.922C102.919 163.41 102.559 163.823 102.108 164.116L92.244 170.544C91.8519 170.798 91.5277 171.144 91.2998 171.552C91.0718 171.96 90.9469 172.417 90.936 172.884L90.636 184.656C90.6224 185.193 90.4587 185.716 90.1636 186.165C89.8684 186.614 89.4535 186.971 88.9658 187.197C88.478 187.423 87.9369 187.507 87.4036 187.441C86.8703 187.375 86.3661 187.162 85.948 186.824L76.8 179.424C76.4368 179.131 76.0079 178.93 75.5501 178.84C75.0923 178.749 74.6194 178.771 74.172 178.904L62.884 182.256C62.3688 182.409 61.8211 182.415 61.3027 182.274C60.7842 182.132 60.3158 181.848 59.9504 181.454C59.585 181.06 59.3372 180.571 59.235 180.043C59.1327 179.516 59.1802 178.97 59.372 178.468L63.576 167.468C63.7431 167.032 63.8016 166.562 63.7466 166.099C63.6915 165.636 63.5245 165.193 63.26 164.808L56.584 155.108C56.2797 154.667 56.1046 154.149 56.0784 153.614C56.0522 153.078 56.176 152.546 56.4358 152.077C56.6956 151.608 57.0811 151.221 57.549 150.96C58.0168 150.698 58.5484 150.572 59.084 150.596Z" fill="#FFE500"/>
<path d="M84.312 185.5L76.8 179.424C76.4369 179.131 76.008 178.93 75.5502 178.84C75.0924 178.749 74.6194 178.771 74.172 178.904L62.884 182.256C62.3689 182.409 61.8212 182.415 61.3027 182.274C60.7843 182.132 60.3159 181.848 59.9505 181.454C59.5851 181.06 59.3372 180.571 59.235 180.043C59.1328 179.516 59.1803 178.97 59.372 178.468L63.576 167.468C63.7431 167.032 63.8017 166.562 63.7466 166.099C63.6916 165.636 63.5246 165.192 63.26 164.808L56.584 155.108C56.2787 154.666 56.1033 154.147 56.0777 153.61C56.0521 153.073 56.1773 152.539 56.4391 152.07C56.7009 151.6 57.0889 151.213 57.5591 150.953C58.0294 150.692 58.5632 150.569 59.1 150.596L70.86 151.196C71.3262 151.22 71.7914 151.131 72.2151 150.935C72.6389 150.739 73.0085 150.443 73.292 150.072L84.312 185.5Z" fill="#FFF48C"/>
<path d="M59.084 150.596L70.844 151.196C71.3102 151.22 71.7753 151.131 72.1991 150.935C72.6228 150.739 72.9925 150.443 73.276 150.072L80.44 140.724C80.7666 140.297 81.2061 139.97 81.7089 139.78C82.2116 139.59 82.7575 139.544 83.2849 139.648C83.8122 139.753 84.2999 140.002 84.6927 140.369C85.0856 140.736 85.368 141.205 85.508 141.724L88.572 153.096C88.6937 153.547 88.9228 153.961 89.2398 154.304C89.5568 154.647 89.9521 154.908 90.392 155.064L101.496 158.984C102.003 159.163 102.451 159.48 102.787 159.9C103.124 160.32 103.336 160.825 103.399 161.36C103.463 161.894 103.376 162.435 103.148 162.922C102.919 163.41 102.559 163.823 102.108 164.116L92.244 170.544C91.8519 170.798 91.5277 171.144 91.2998 171.552C91.0718 171.96 90.9469 172.417 90.936 172.884L90.636 184.656C90.6224 185.193 90.4587 185.716 90.1636 186.165C89.8684 186.614 89.4535 186.971 88.9658 187.197C88.478 187.423 87.9369 187.507 87.4036 187.441C86.8703 187.375 86.3661 187.162 85.948 186.824L76.8 179.424C76.4368 179.131 76.0079 178.93 75.5501 178.84C75.0923 178.749 74.6194 178.771 74.172 178.904L62.884 182.256C62.3688 182.409 61.8211 182.415 61.3027 182.274C60.7842 182.132 60.3158 181.848 59.9504 181.454C59.585 181.06 59.3372 180.571 59.235 180.043C59.1327 179.516 59.1802 178.97 59.372 178.468L63.576 167.468C63.7431 167.032 63.8016 166.562 63.7466 166.099C63.6915 165.636 63.5245 165.193 63.26 164.808L56.584 155.108C56.2797 154.667 56.1046 154.149 56.0784 153.614C56.0522 153.078 56.176 152.546 56.4358 152.077C56.6956 151.608 57.0811 151.221 57.549 150.96C58.0168 150.698 58.5484 150.572 59.084 150.596V150.596Z" stroke="#45413C" stroke-width="4" stroke-linecap="round" stroke-linejoin="round"/>
<path d="M298.424 79.424C298.488 78.7264 298.356 78.0248 298.042 77.3986C297.728 76.7724 297.245 76.2466 296.648 75.8807C296.05 75.5147 295.362 75.3234 294.662 75.3282C293.961 75.333 293.276 75.5339 292.684 75.908L279.7 84.088C279.184 84.4116 278.598 84.6055 277.991 84.6528C277.385 84.7002 276.775 84.5997 276.216 84.36L262.112 78.3C261.469 78.0232 260.761 77.932 260.068 78.0366C259.376 78.1413 258.727 78.4376 258.194 78.8921C257.661 79.3466 257.266 79.9412 257.054 80.6085C256.841 81.2757 256.82 81.9892 256.992 82.668L260.76 97.548C260.91 98.1373 260.916 98.7541 260.777 99.3461C260.637 99.938 260.357 100.488 259.96 100.948L249.836 112.488C249.374 113.014 249.068 113.66 248.953 114.351C248.839 115.043 248.92 115.752 249.189 116.4C249.457 117.047 249.901 117.606 250.47 118.014C251.04 118.422 251.713 118.663 252.412 118.708L267.724 119.724C268.332 119.763 268.921 119.95 269.44 120.269C269.96 120.587 270.393 121.028 270.704 121.552L278.552 134.752C278.909 135.355 279.429 135.845 280.051 136.168C280.672 136.491 281.372 136.633 282.071 136.579C282.77 136.524 283.439 136.275 284.003 135.859C284.568 135.444 285.004 134.879 285.264 134.228L290.964 119.972C291.19 119.407 291.55 118.906 292.013 118.511C292.476 118.116 293.027 117.839 293.62 117.704L308.592 114.32C309.275 114.166 309.901 113.823 310.4 113.331C310.898 112.839 311.249 112.218 311.413 111.537C311.576 110.856 311.546 110.143 311.325 109.478C311.105 108.813 310.702 108.224 310.164 107.776L298.372 97.948C297.903 97.5596 297.536 97.0624 297.303 96.4998C297.071 95.9372 296.979 95.3262 297.036 94.72L298.424 79.424Z" fill="#FFE500"/>
<path d="M251.628 110.424L259.94 100.948C260.339 100.489 260.62 99.9391 260.76 99.3468C260.899 98.7544 260.892 98.1371 260.74 97.548L256.972 82.668C256.8 81.9892 256.821 81.2757 257.034 80.6084C257.246 79.9411 257.641 79.3466 258.174 78.8921C258.707 78.4376 259.356 78.1413 260.048 78.0366C260.741 77.932 261.449 78.0232 262.092 78.3L276.196 84.356C276.755 84.5977 277.364 84.6993 277.972 84.6519C278.579 84.6045 279.165 84.4096 279.68 84.084L292.668 75.904C293.26 75.5307 293.946 75.3307 294.646 75.3266C295.346 75.3225 296.033 75.5144 296.63 75.8807C297.227 76.2469 297.71 76.7729 298.023 77.3991C298.336 78.0253 298.468 78.7267 298.404 79.424L297 94.708C296.943 95.3141 297.036 95.9249 297.268 96.4874C297.501 97.0499 297.868 97.5471 298.336 97.936L251.628 110.424Z" fill="#FFF48C"/>
<path d="M298.424 79.424C298.488 78.7264 298.356 78.0248 298.042 77.3986C297.728 76.7724 297.245 76.2466 296.648 75.8807C296.05 75.5147 295.362 75.3234 294.662 75.3282C293.961 75.333 293.276 75.5339 292.684 75.908L279.7 84.088C279.184 84.4116 278.598 84.6055 277.991 84.6528C277.385 84.7002 276.775 84.5997 276.216 84.36L262.108 78.3C261.465 78.0227 260.757 77.931 260.064 78.0355C259.372 78.14 258.723 78.4364 258.19 78.8912C257.657 79.3459 257.263 79.9408 257.051 80.6083C256.839 81.2759 256.819 81.9894 256.992 82.668L260.76 97.548C260.91 98.1373 260.916 98.7541 260.777 99.3461C260.637 99.938 260.357 100.488 259.96 100.948L249.836 112.488C249.374 113.014 249.068 113.66 248.953 114.351C248.839 115.043 248.92 115.752 249.189 116.4C249.457 117.047 249.901 117.606 250.47 118.014C251.04 118.422 251.713 118.663 252.412 118.708L267.724 119.724C268.332 119.763 268.921 119.95 269.44 120.269C269.96 120.587 270.393 121.028 270.704 121.552L278.552 134.752C278.909 135.355 279.429 135.845 280.051 136.168C280.672 136.491 281.372 136.633 282.071 136.579C282.77 136.524 283.439 136.275 284.003 135.859C284.568 135.444 285.004 134.879 285.264 134.228L290.964 119.972C291.19 119.407 291.55 118.906 292.013 118.511C292.476 118.116 293.027 117.839 293.62 117.704L308.592 114.32C309.275 114.166 309.901 113.823 310.4 113.331C310.898 112.839 311.249 112.218 311.413 111.537C311.576 110.856 311.546 110.143 311.325 109.478C311.105 108.813 310.702 108.224 310.164 107.776L298.372 97.948C297.903 97.5596 297.536 97.0624 297.303 96.4998C297.071 95.9372 296.979 95.3262 297.036 94.72L298.424 79.424Z" stroke="#45413C" stroke-width="4" stroke-linecap="round" stroke-linejoin="round"/>
<path d="M346 155.108C346.305 154.665 346.481 154.146 346.506 153.609C346.532 153.071 346.406 152.537 346.144 152.068C345.882 151.598 345.493 151.211 345.022 150.951C344.551 150.691 344.017 150.568 343.48 150.596L331.724 151.196C331.257 151.22 330.792 151.13 330.367 150.935C329.943 150.739 329.572 150.443 329.288 150.072L322.128 140.724C321.801 140.297 321.362 139.97 320.859 139.78C320.356 139.59 319.81 139.544 319.283 139.648C318.756 139.753 318.268 140.002 317.875 140.369C317.482 140.736 317.2 141.205 317.06 141.724L314 153.096C313.878 153.547 313.649 153.961 313.332 154.304C313.015 154.647 312.62 154.908 312.18 155.064L301.072 158.984C300.566 159.164 300.12 159.482 299.784 159.902C299.449 160.321 299.237 160.827 299.174 161.36C299.11 161.894 299.197 162.434 299.424 162.921C299.651 163.408 300.01 163.822 300.46 164.116L310.328 170.544C310.719 170.799 311.042 171.146 311.27 171.553C311.498 171.961 311.623 172.417 311.636 172.884L311.932 184.656C311.946 185.193 312.109 185.716 312.404 186.165C312.699 186.614 313.114 186.971 313.602 187.197C314.09 187.423 314.631 187.507 315.164 187.441C315.698 187.375 316.202 187.162 316.62 186.824L325.784 179.424C326.148 179.131 326.577 178.93 327.036 178.84C327.494 178.749 327.968 178.771 328.416 178.904L339.704 182.256C340.219 182.41 340.767 182.417 341.285 182.275C341.804 182.133 342.272 181.849 342.638 181.455C343.003 181.06 343.25 180.571 343.352 180.043C343.453 179.516 343.405 178.97 343.212 178.468L339.012 167.468C338.843 167.033 338.784 166.562 338.839 166.099C338.894 165.635 339.062 165.192 339.328 164.808L346 155.108Z" fill="#FFE500"/>
<path d="M303.052 158.284L312.172 155.06C312.613 154.906 313.01 154.647 313.328 154.304C313.645 153.962 313.875 153.547 313.996 153.096L317.06 141.724C317.2 141.206 317.482 140.737 317.874 140.37C318.267 140.004 318.754 139.754 319.28 139.65C319.807 139.545 320.352 139.59 320.855 139.779C321.357 139.969 321.797 140.294 322.124 140.72L329.288 150.072C329.572 150.443 329.941 150.739 330.365 150.935C330.789 151.13 331.254 151.22 331.72 151.196L343.48 150.596C344.017 150.57 344.55 150.694 345.02 150.954C345.49 151.215 345.878 151.601 346.14 152.07C346.402 152.539 346.527 153.072 346.503 153.609C346.478 154.146 346.304 154.665 346 155.108L339.324 164.8C339.058 165.185 338.89 165.628 338.834 166.092C338.779 166.557 338.837 167.027 339.004 167.464L303.052 158.284Z" fill="#FFF48C"/>
<path d="M346 155.108C346.305 154.665 346.481 154.146 346.506 153.609C346.532 153.071 346.406 152.537 346.144 152.068C345.882 151.598 345.493 151.211 345.022 150.951C344.551 150.691 344.017 150.568 343.48 150.596L331.724 151.196C331.257 151.22 330.792 151.13 330.367 150.935C329.943 150.739 329.572 150.443 329.288 150.072L322.124 140.724C321.798 140.297 321.359 139.97 320.856 139.779C320.354 139.589 319.808 139.543 319.281 139.648C318.753 139.752 318.266 140.001 317.873 140.368C317.481 140.735 317.199 141.205 317.06 141.724L314 153.096C313.878 153.547 313.649 153.961 313.332 154.304C313.015 154.647 312.62 154.908 312.18 155.064L301.072 158.984C300.566 159.164 300.12 159.482 299.784 159.902C299.449 160.321 299.237 160.827 299.174 161.36C299.11 161.894 299.197 162.435 299.424 162.921C299.651 163.408 300.01 163.822 300.46 164.116L310.328 170.544C310.719 170.799 311.042 171.146 311.27 171.553C311.498 171.961 311.623 172.417 311.636 172.884L311.932 184.656C311.946 185.193 312.109 185.716 312.404 186.165C312.699 186.614 313.114 186.971 313.602 187.197C314.09 187.423 314.631 187.507 315.164 187.441C315.698 187.375 316.202 187.162 316.62 186.824L325.784 179.424C326.148 179.131 326.577 178.93 327.036 178.84C327.494 178.749 327.968 178.771 328.416 178.904L339.704 182.26C340.219 182.412 340.766 182.418 341.284 182.276C341.802 182.133 342.269 181.849 342.634 181.455C342.999 181.061 343.246 180.573 343.348 180.046C343.451 179.519 343.403 178.974 343.212 178.472L339.012 167.468C338.843 167.033 338.784 166.562 338.839 166.099C338.894 165.635 339.062 165.192 339.328 164.808L346 155.108Z" stroke="#45413C" stroke-width="4" stroke-linecap="round" stroke-linejoin="round"/>
</svg>
