<svg width="400" height="400" viewBox="0 0 400 400" fill="none" xmlns="http://www.w3.org/2000/svg">
<path d="M134.956 354.684H120.364V264.864H134.956C136.38 264.864 137.745 265.43 138.752 266.436C139.759 267.443 140.324 268.808 140.324 270.232V349.316C140.324 350.74 139.759 352.105 138.752 353.112C137.745 354.118 136.38 354.684 134.956 354.684Z" stroke="#020064" stroke-width="4" stroke-linecap="round" stroke-linejoin="round"/>
<path d="M203.532 254.888H216.84" stroke="#020064" stroke-width="4" stroke-linecap="round" stroke-linejoin="round"/>
<path d="M265.076 334.728H258.424" stroke="#020064" stroke-width="4" stroke-linecap="round" stroke-linejoin="round"/>
<path d="M271.728 308.112H265.076" stroke="#020064" stroke-width="4" stroke-linecap="round" stroke-linejoin="round"/>
<path d="M278.384 281.5H271.728" stroke="#020064" stroke-width="4" stroke-linecap="round" stroke-linejoin="round"/>
<path d="M216.84 254.888C219.324 230.032 222.612 176.708 201.868 176.708C197.898 176.709 194.091 178.287 191.284 181.095C188.477 183.902 186.9 187.71 186.9 191.68V196.668C186.9 233.264 171.028 271.52 140.328 271.52L140.296 348.032H144.224C163.424 348.032 172.492 361.34 206.86 361.34H265.076C266.843 361.371 268.598 361.049 270.239 360.394C271.88 359.739 273.374 358.764 274.635 357.526C275.895 356.287 276.896 354.81 277.579 353.18C278.263 351.55 278.615 349.801 278.615 348.034C278.615 346.267 278.263 344.518 277.579 342.888C276.896 341.258 275.895 339.781 274.635 338.543C273.374 337.304 271.88 336.329 270.239 335.674C268.598 335.019 266.843 334.697 265.076 334.728H271.728C275.257 334.728 278.642 333.326 281.138 330.83C283.634 328.334 285.036 324.95 285.036 321.42C285.036 317.89 283.634 314.506 281.138 312.01C278.642 309.514 275.257 308.112 271.728 308.112H278.4C281.889 308.052 285.214 306.623 287.66 304.134C290.106 301.646 291.477 298.296 291.477 294.806C291.477 291.316 290.106 287.966 287.66 285.478C285.214 282.989 281.889 281.56 278.4 281.5H285.052C286.819 281.531 288.574 281.209 290.215 280.554C291.856 279.899 293.35 278.924 294.611 277.686C295.871 276.447 296.872 274.97 297.556 273.34C298.239 271.71 298.59 269.961 298.59 268.194C298.59 266.427 298.239 264.678 297.556 263.048C296.872 261.418 295.871 259.941 294.611 258.703C293.35 257.464 291.856 256.489 290.215 255.834C288.574 255.179 286.819 254.857 285.052 254.888H216.84Z" stroke="#020064" stroke-width="4" stroke-linecap="round" stroke-linejoin="round"/>
<path d="M80.4484 258.212H113.712C115.478 258.212 117.17 258.913 118.419 260.162C119.667 261.41 120.368 263.103 120.368 264.868V354.688C120.367 356.452 119.666 358.144 118.417 359.392C117.169 360.639 115.477 361.34 113.712 361.34H80.4484" stroke="#020064" stroke-width="4" stroke-linecap="round" stroke-linejoin="round"/>
<path d="M194.08 41.8C194.544 40.8576 195.262 40.0636 196.154 39.5087C197.046 38.9536 198.075 38.6594 199.126 38.6594C200.176 38.6594 201.206 38.9536 202.098 39.5087C202.989 40.0636 203.708 40.8576 204.172 41.8L214.352 62.432C214.756 63.2504 215.353 63.958 216.092 64.494C216.83 65.0296 217.688 65.378 218.592 65.508L241.364 68.82C242.403 68.9708 243.38 69.4096 244.183 70.0864C244.986 70.7632 245.583 71.6512 245.908 72.65C246.233 73.6488 246.271 74.7188 246.02 75.7384C245.768 76.758 245.236 77.6868 244.484 78.42L228 94.48C227.35 95.12 226.866 95.9072 226.587 96.7752C226.308 97.6432 226.244 98.566 226.4 99.464L230.288 122.148C230.466 123.183 230.352 124.248 229.956 125.221C229.561 126.194 228.901 127.037 228.052 127.654C227.202 128.272 226.196 128.639 225.148 128.714C224.101 128.789 223.053 128.57 222.124 128.08L201.756 117.372C200.948 116.946 200.049 116.724 199.136 116.724C198.223 116.724 197.324 116.946 196.516 117.372L176.136 128.08C175.206 128.57 174.159 128.789 173.111 128.714C172.063 128.639 171.058 128.272 170.208 127.654C169.358 127.037 168.698 126.194 168.303 125.221C167.908 124.248 167.793 123.183 167.972 122.148L171.86 99.464C172.015 98.564 171.948 97.64 171.666 96.772C171.384 95.9036 170.894 95.1168 170.24 94.48L153.764 78.42C153.012 77.6872 152.48 76.7588 152.228 75.7392C151.976 74.72 152.014 73.6504 152.338 72.6516C152.662 71.6528 153.26 70.7648 154.062 70.0876C154.865 69.4104 155.841 68.9716 156.88 68.82L179.652 65.508C180.556 65.3796 181.415 65.0324 182.154 64.4964C182.893 63.9604 183.489 63.2516 183.892 62.432L194.08 41.8Z" stroke="#020064" stroke-width="4" stroke-linecap="round" stroke-linejoin="round"/>
<path d="M79.6 90.688C79.5212 89.8236 79.6856 88.954 80.0748 88.178C80.464 87.4016 81.0624 86.75 81.8028 86.296C82.5428 85.842 83.3952 85.6044 84.2632 85.6092C85.1316 85.614 85.9812 85.8616 86.716 86.324L102.8 96.464C103.438 96.8664 104.164 97.1072 104.916 97.1656C105.668 97.2244 106.423 97.0988 107.116 96.8L124.596 89.292C125.394 88.9488 126.271 88.836 127.13 88.9656C127.988 89.0956 128.793 89.4628 129.454 90.0264C130.114 90.59 130.604 91.3272 130.867 92.1544C131.131 92.982 131.157 93.8664 130.944 94.708L126.272 113.148C126.088 113.88 126.084 114.645 126.26 115.378C126.436 116.112 126.788 116.792 127.284 117.36L139.832 131.664C140.404 132.317 140.782 133.118 140.923 133.975C141.064 134.832 140.962 135.711 140.63 136.514C140.296 137.316 139.746 138.008 139.039 138.514C138.332 139.019 137.499 139.316 136.632 139.372L117.652 140.632C116.899 140.682 116.17 140.914 115.526 141.308C114.883 141.703 114.346 142.248 113.96 142.896L104.232 159.244C103.789 159.991 103.146 160.599 102.375 160.999C101.604 161.398 100.737 161.574 99.8712 161.507C99.0052 161.439 98.176 161.13 97.4768 160.615C96.778 160.1 96.2372 159.399 95.916 158.592L88.852 140.928C88.5704 140.23 88.1232 139.61 87.5492 139.122C86.9752 138.634 86.2912 138.293 85.556 138.128L67.02 133.92C66.1736 133.728 65.3976 133.303 64.78 132.694C64.1624 132.084 63.7276 131.313 63.5252 130.47C63.3224 129.626 63.36 128.742 63.6332 127.918C63.9068 127.094 64.4048 126.364 65.072 125.808L79.688 113.632C80.268 113.15 80.7216 112.534 81.01 111.837C81.2988 111.14 81.4132 110.383 81.344 109.632L79.6 90.688Z" stroke="#020064" stroke-width="4" stroke-linecap="round" stroke-linejoin="round"/>
<path d="M20.6359 184.488C20.2559 183.939 20.0373 183.294 20.0051 182.628C19.9729 181.96 20.1282 181.298 20.4535 180.715C20.7788 180.132 21.261 179.652 21.8454 179.328C22.4299 179.006 23.0931 178.853 23.7599 178.888L38.3319 179.632C38.9103 179.662 39.4873 179.551 40.0132 179.308C40.5388 179.064 40.9968 178.696 41.348 178.236L50.228 166.636C50.6328 166.108 51.1772 165.704 51.8 165.468C52.4224 165.234 53.0984 165.178 53.7512 165.306C54.404 165.436 55.0076 165.744 55.494 166.198C55.9804 166.652 56.3304 167.234 56.504 167.876L60.304 181.972C60.4568 182.529 60.7416 183.042 61.1344 183.466C61.5268 183.89 62.016 184.213 62.56 184.408L76.324 189.268C76.9524 189.489 77.506 189.882 77.9224 190.402C78.3392 190.922 78.602 191.548 78.6808 192.21C78.76 192.871 78.6524 193.541 78.37 194.145C78.088 194.748 77.6424 195.26 77.084 195.624L64.856 203.6C64.374 203.918 63.9768 204.347 63.698 204.852C63.4192 205.358 63.2676 205.923 63.256 206.5L62.884 221.092C62.8672 221.758 62.6648 222.405 62.2996 222.962C61.934 223.519 61.42 223.962 60.8156 224.242C60.2112 224.521 59.5408 224.626 58.88 224.545C58.2188 224.463 57.594 224.198 57.076 223.78L45.716 214.608C45.2644 214.246 44.732 213.999 44.1648 213.887C43.5972 213.775 43.0112 213.802 42.456 213.964L28.4559 218.12C27.8185 218.31 27.1406 218.319 26.4987 218.145C25.8567 217.971 25.2762 217.62 24.8227 217.134C24.3693 216.647 24.0609 216.043 23.9325 215.39C23.8041 214.738 23.8607 214.062 24.0959 213.44L29.2959 199.808C29.5031 199.267 29.5749 198.683 29.5052 198.108C29.4355 197.533 29.2263 196.984 28.8959 196.508L20.6359 184.488Z" stroke="#020064" stroke-width="4" stroke-linecap="round" stroke-linejoin="round"/>
<path d="M320.4 90.688C320.479 89.8236 320.314 88.954 319.925 88.178C319.536 87.4016 318.938 86.75 318.198 86.296C317.457 85.842 316.605 85.6044 315.737 85.6092C314.868 85.614 314.019 85.8616 313.284 86.324L297.2 96.464C296.562 96.8664 295.836 97.1072 295.084 97.1656C294.332 97.2244 293.577 97.0988 292.884 96.8L275.404 89.292C274.606 88.9488 273.729 88.836 272.87 88.9656C272.012 89.0956 271.207 89.4628 270.546 90.0264C269.886 90.59 269.396 91.3272 269.133 92.1544C268.869 92.982 268.843 93.8664 269.056 94.708L273.728 113.148C273.912 113.88 273.916 114.645 273.74 115.378C273.564 116.112 273.212 116.792 272.716 117.36L260.168 131.664C259.596 132.317 259.218 133.118 259.077 133.975C258.936 134.832 259.038 135.711 259.371 136.514C259.704 137.316 260.255 138.008 260.961 138.514C261.668 139.019 262.502 139.316 263.368 139.372L282.348 140.632C283.101 140.682 283.83 140.914 284.474 141.308C285.117 141.703 285.654 142.248 286.04 142.896L295.768 159.244C296.211 159.991 296.854 160.599 297.625 160.999C298.396 161.398 299.263 161.574 300.129 161.507C300.995 161.439 301.824 161.13 302.523 160.615C303.222 160.1 303.763 159.399 304.084 158.592L311.148 140.928C311.43 140.23 311.877 139.61 312.451 139.122C313.025 138.634 313.709 138.293 314.444 138.128L333 133.932C333.846 133.74 334.622 133.315 335.24 132.706C335.858 132.096 336.292 131.326 336.495 130.482C336.698 129.638 336.66 128.754 336.387 127.93C336.114 127.106 335.615 126.376 334.948 125.82L320.332 113.644C319.752 113.162 319.298 112.546 319.01 111.849C318.722 111.152 318.607 110.395 318.676 109.644L320.4 90.688Z" stroke="#020064" stroke-width="4" stroke-linecap="round" stroke-linejoin="round"/>
<path d="M379.364 184.488C379.744 183.939 379.963 183.294 379.995 182.628C380.027 181.96 379.872 181.298 379.546 180.715C379.221 180.132 378.739 179.652 378.155 179.328C377.57 179.006 376.907 178.853 376.24 178.888L361.668 179.632C361.09 179.662 360.513 179.551 359.987 179.308C359.462 179.064 359.003 178.696 358.652 178.236L349.772 166.636C349.367 166.108 348.823 165.704 348.2 165.468C347.578 165.234 346.902 165.178 346.249 165.306C345.596 165.436 344.992 165.744 344.506 166.198C344.02 166.652 343.67 167.234 343.496 167.876L339.696 181.972C339.543 182.529 339.258 183.042 338.866 183.466C338.473 183.89 337.984 184.213 337.44 184.408L323.676 189.268C323.048 189.489 322.494 189.882 322.078 190.402C321.661 190.922 321.398 191.548 321.319 192.21C321.24 192.871 321.348 193.541 321.63 194.145C321.912 194.748 322.358 195.26 322.916 195.624L335.144 203.6C335.63 203.915 336.031 204.344 336.313 204.849C336.596 205.355 336.75 205.921 336.764 206.5L337.136 221.092C337.153 221.758 337.355 222.405 337.721 222.962C338.086 223.519 338.6 223.962 339.204 224.242C339.809 224.521 340.479 224.626 341.14 224.545C341.801 224.463 342.426 224.198 342.944 223.78L354.304 214.608C354.756 214.246 355.288 213.999 355.856 213.887C356.423 213.775 357.009 213.802 357.564 213.964L371.564 218.12C372.202 218.31 372.881 218.317 373.524 218.14C374.166 217.964 374.746 217.612 375.198 217.124C375.65 216.635 375.957 216.03 376.084 215.376C376.21 214.722 376.15 214.046 375.912 213.424L370.712 199.792C370.505 199.251 370.433 198.667 370.503 198.092C370.572 197.517 370.782 196.968 371.112 196.492L379.364 184.488Z" stroke="#020064" stroke-width="4" stroke-linecap="round" stroke-linejoin="round"/>
</svg>
