<svg width="400" height="400" viewBox="0 0 400 400" fill="none" xmlns="http://www.w3.org/2000/svg">
<path d="M373.64 281.7C370.94 278.06 367.64 277 365.44 278.68C364.78 279.16 360.54 281.24 357.62 283.4C355.38 285.08 355.74 289.4 358.44 293.04C361.56 297.24 366.14 297.74 366.84 297.2C369.42 295.2 371.86 292.98 374.24 290.72C376.28 288.78 376.34 285.34 373.64 281.7Z" fill="#50BDBF"/>
<path d="M374.6 280.98C372.04 277.52 368.04 275.26 364.72 277.72C364.72 277.72 358.72 281.06 356.9 282.44C352.22 285.92 356.44 295.46 362.66 297.94C363.527 298.363 364.489 298.55 365.451 298.483C366.413 298.416 367.34 298.098 368.14 297.56C370.59 295.732 372.903 293.726 375.06 291.56C377.74 289.12 377.56 284.96 374.6 280.98ZM363.54 295.68C361.904 294.917 360.485 293.759 359.409 292.31C358.334 290.861 357.636 289.166 357.38 287.38C356.94 282.26 362.34 283.24 365.64 287.68C368.94 292.12 368.24 297.58 363.54 295.68ZM373.42 289.82C373.04 290.16 372.42 290.88 370.12 292.9C369.909 290.521 369.052 288.245 367.642 286.317C366.232 284.389 364.323 282.883 362.12 281.96C363.42 281.18 365.6 280.08 366.12 279.66C370 276.84 377.3 286.3 373.42 289.82Z" fill="#5E503B"/>
<path d="M46.4 136L10.6 265.54C13.22 266.94 18.16 269.74 20.38 267.8C52.18 239.8 82.06 206.98 113.88 179L46.4 136Z" fill="#DCE28F"/>
<path d="M53.6201 138.42L17.8201 268C20.4601 269.4 23.5001 267.32 25.7001 265.38L121.12 181.38L53.6201 138.42Z" fill="#C1C69B"/>
<path d="M120.22 180.72C120.22 180.72 26.32 263.42 24.5 264.94C23.842 265.673 23.0415 266.263 22.1474 266.676C21.2533 267.089 20.2844 267.315 19.3 267.34L54.8 138.88C54.8875 138.562 54.845 138.222 54.6819 137.935C54.5187 137.648 54.2483 137.438 53.93 137.35C53.7724 137.307 53.6078 137.295 53.4457 137.315C53.2835 137.335 53.1269 137.387 52.9848 137.468C52.6979 137.631 52.4875 137.902 52.4 138.22L16.84 267.08C15.2285 266.517 13.6748 265.8 12.2 264.94L47.76 136.24C47.94 135.58 46.44 131.38 46.26 132.04L9.44001 265.28C9.36924 265.537 9.38585 265.81 9.48724 266.056C9.58862 266.302 9.76901 266.508 10 266.64C12.7803 268.368 15.8834 269.511 19.12 270C22.68 270.68 25.12 267.58 36.5 257.62L122 182.44C123.1 181.42 121.38 179.7 120.22 180.72Z" fill="#5E503B"/>
<path d="M338 84.64C336.5 80.8116 334.2 77.3471 331.255 74.4777C328.31 71.6083 324.786 69.4 320.92 68C318.522 67.0967 315.895 67.0053 313.44 67.74C309.04 69.14 306.84 74.26 306.66 78.88C306.905 83.4875 307.473 88.0721 308.36 92.6C310.58 113.76 294.36 132.12 278.1 145.88L285.3 184.64C300.723 178.35 314.111 167.927 323.992 154.518C333.872 141.109 339.861 125.234 341.3 108.64C342.091 100.492 340.961 92.272 338 84.64Z" fill="#DCE28F"/>
<path d="M309.72 97.44C309.561 92.9188 309.039 88.4178 308.16 83.98C307.285 79.9485 307.918 75.736 309.94 72.14C312.58 68.14 317.18 68.14 321.42 69.54C325.002 70.9743 328.248 73.1371 330.95 75.8913C333.653 78.6456 335.754 81.9312 337.12 85.54C348.38 116.38 328.68 166.4 285 183.76C284.824 183.785 284.656 183.848 284.505 183.943C284.355 184.038 284.227 184.164 284.129 184.312C284.031 184.46 283.965 184.627 283.936 184.803C283.907 184.978 283.916 185.157 283.961 185.329C284.007 185.501 284.088 185.661 284.2 185.8C284.312 185.938 284.451 186.051 284.61 186.131C284.769 186.211 284.942 186.257 285.12 186.266C285.297 186.274 285.475 186.245 285.64 186.18C300.076 180.346 312.791 170.935 322.587 158.833C332.384 146.73 338.94 132.335 341.64 117C344.38 100.74 343.02 80.84 328.34 70.56C325.025 68.0963 321.079 66.6258 316.96 66.32C315.068 66.2512 313.194 66.7106 311.547 67.6467C309.901 68.5827 308.548 69.9585 307.64 71.62C302.82 79.62 307.64 89.2 307.4 97.84C306.92 115.3 294.32 129.84 282.06 141.22C280.5 142.64 278.92 144.02 277.24 145.4C276.06 146.4 277.76 148.1 278.94 147.1C280 144.88 308.92 125.2 309.72 97.44Z" fill="#5E503B"/>
<path d="M277.5 77.54L177.56 72C164.856 70.44 152.005 73.3383 141.2 80.2C110.18 96.2 79.2 114.2 48.16 130.42C46.66 128.78 46.7 135.24 48.34 136.64C68.24 154.64 94.46 164 120.34 171.16C164.6 183.34 182.46 180 215.62 159.82C226.545 153.416 236.733 145.831 246 137.2C262.601 121.187 273.64 100.28 277.5 77.54Z" fill="#C1C69B"/>
<path d="M277.5 76.34L180.26 70.86C163.92 69.94 158.54 69.04 137.22 80.86C123.22 88.66 63.9401 120.86 48.2201 128.98C47.8645 128.865 47.4798 128.878 47.1327 129.017C46.7856 129.155 46.4981 129.411 46.3201 129.74C45.8717 130.976 45.7303 132.303 45.908 133.606C46.0856 134.909 46.5771 136.149 47.3401 137.22C49.0071 138.868 50.7918 140.392 52.6801 141.78C66.0401 151.78 80.2401 159.98 104.9 167.78C114.9 170.98 125.12 173.88 135.42 176.12C157.84 181.5 178.14 180.72 198.26 170.8C207.715 166.109 216.831 160.763 225.54 154.8C257.2 134.5 274.42 106.16 278.7 77.88C278.731 77.6989 278.724 77.5132 278.68 77.335C278.635 77.1567 278.553 76.9898 278.44 76.8448C278.327 76.6998 278.185 76.5801 278.024 76.4931C277.862 76.4062 277.683 76.354 277.5 76.34ZM208.52 162.54C190.24 173.7 172.52 179.04 151.06 176.3C140.606 174.971 130.279 172.79 120.18 169.78C96.4801 163.36 70.0001 154 51.4401 137.72C50.1201 136.6 48.8201 135.72 48.4401 134.06C48.2511 133.234 48.1837 132.385 48.2401 131.54C50.1601 131.16 114 96 132.46 86C139.032 82.2985 145.802 78.9602 152.74 76C154.893 75.1478 157.114 74.4788 159.38 74C163.621 96.579 166.559 119.383 168.18 142.3C168.3 143.82 170.72 143.84 170.6 142.3C168.964 119.228 165.999 96.2703 161.72 73.54C168.8 72.36 165.32 72.96 276.02 78.92C272.84 96.5569 265.19 113.084 253.8 126.92C241.66 142 225.24 152.86 208.52 162.54Z" fill="#5E503B"/>
<path d="M197.86 130.36L201 100.78C201.4 97.12 201.92 93.14 204.52 90.5C206.206 88.9995 208.179 87.8565 210.32 87.14C220.48 83.14 220.5 82.94 222 82.84C223.262 82.9934 224.465 83.4611 225.5 84.2C240.4 93.1 240.3 92.78 241.74 94.76C242.737 96.9447 242.914 99.4152 242.24 101.72L235.5 140.48L197.86 130.36Z" fill="#ABF9FF"/>
<path d="M199.06 130.36L201.78 104.94C201.82 101.115 202.496 97.3234 203.78 93.72C205.42 90.2 208.96 88.9 212.32 87.72L218.12 85.3C223.48 83.16 221.98 83.3 234.62 90.92C236.418 91.8623 238.143 92.9387 239.78 94.14C240.467 94.7844 240.98 95.5909 241.274 96.4855C241.567 97.3801 241.631 98.3342 241.46 99.26C241.12 103.26 240.14 107.26 239.46 111.26L234.44 140.18C234.18 141.7 236.44 142.34 236.86 140.82C244.12 98.1 243.62 101.74 243.86 98.82C244.012 97.1945 243.663 95.5614 242.86 94.14C241.686 92.5386 240.133 91.2535 238.34 90.4L226.34 83.16C224.981 82.1942 223.347 81.6895 221.68 81.72C219.342 82.2011 217.086 83.0161 214.98 84.14C211.38 85.58 207.08 86.68 204.16 89.36C201.722 91.9948 200.303 95.413 200.16 99C198.8 109.44 197.92 119.98 196.78 130.34C196.64 131.88 199.04 131.88 199.18 130.34L199.06 130.36Z" fill="#51BDBF"/>
<path d="M224.1 68.96C223.291 69.0231 222.507 69.2749 221.813 69.6951C221.118 70.1154 220.532 70.6924 220.1 71.38C217.64 76.52 216.46 81.76 219.42 84.82C222.38 87.88 230.06 88.46 231.22 82.82C231.78 80.12 232.28 77.42 232.68 74.7C233.72 70 227.5 68.72 224.1 68.96Z" fill="#51BDBF"/>
<path d="M232.8 70.46C229.04 67.4 222.26 66.22 219.24 70.78C217.947 73.7877 217.007 76.9355 216.44 80.16C216.12 88.56 229 91.84 232.16 84.16C232.64 82.62 233.28 78.74 233.58 76.96C234 74.74 234.58 72.3 232.8 70.46ZM230.94 71.96C231.238 72.1859 231.467 72.4907 231.6 72.84C230.776 73.4562 229.835 73.8982 228.834 74.1388C227.834 74.3795 226.794 74.414 225.78 74.24C224.948 74.1193 224.155 73.8095 223.462 73.3346C222.768 72.8596 222.193 72.232 221.78 71.5C224.1 69.28 228.42 70.24 230.94 72V71.96ZM230 83.14C228.62 87.96 221.06 86.3 219.34 82.66C218.32 79.84 219.34 78 220.7 74.08C222.105 75.4046 223.867 76.2886 225.768 76.6227C227.67 76.9568 229.628 76.7264 231.4 75.96C230.98 78.68 230.76 80.34 230 83.14Z" fill="#5E503B"/>
<path d="M123.38 127.7L107.54 97.22C106.303 94.3566 104.492 91.7769 102.22 89.64C98.6966 87.2529 94.5897 85.8701 90.34 85.64C86.02 85.04 81.32 84.48 77.48 86.58C74.4632 88.6554 72.0484 91.4911 70.48 94.8C62 109.42 62 115.78 72.32 129.68C78.4267 137.893 84.86 145.84 91.62 153.52C91.82 153.52 101.86 170.26 121.16 153.52C124.314 151.167 126.571 147.809 127.56 144C128.86 138.38 126 132.74 123.38 127.7Z" fill="#ABFFE1"/>
<path d="M127.58 133.8C125.58 128.9 125.34 130.32 110.8 100.72C109.204 97.3667 107.359 94.1376 105.28 91.06C100.96 85.5 93.58 84.7 87.04 83.84C83.5711 83.345 80.0331 83.8733 76.86 85.36C74.1791 87.0542 71.9869 89.4188 70.5 92.22C66.86 98 62.8 104.76 62.96 112C63.12 120.14 68.56 126.94 73.26 133.14C78.82 140.38 84.64 147.46 90.72 154.38C91.76 155.56 93.44 153.84 92.44 152.66C92.66 152.66 88.02 147.9 78.44 135.78C68 122.46 60.62 114.24 69.2 99.32C72.02 94.14 75.1 87.5 81.56 86.44C84.9015 86.1127 88.2733 86.2948 91.56 86.98C94.7004 87.2777 97.7446 88.2244 100.5 89.76C103.08 91.7336 105.1 94.3464 106.36 97.34C108 100.56 121.8 127.2 121.8 127.2C124.96 133.3 128.76 140.46 125.02 147.2C118.12 158.18 102.54 162.62 91.26 155.38C89.96 154.52 88.82 156.64 90.02 157.38C103.54 166.86 124.9 157.74 128.6 144.44C129.301 140.87 128.947 137.172 127.58 133.8Z" fill="#51BDBF"/>
<path d="M84.64 81.4C82.64 77.4 82.64 77.18 81.94 76.46C79.06 74.12 70.68 75.3 67.28 81.98C65.06 86.32 67.72 91.08 71.02 93.62C73.44 95.04 76.74 94.14 79.44 93.04C82.14 91.94 85.44 90.22 86.08 87.22C86.2212 85.1771 85.7175 83.1414 84.64 81.4Z" fill="#50BDBF"/>
<path d="M84.9601 79.48C84.4843 78.2914 83.8808 77.1581 83.1601 76.1C82.3866 75.1824 81.3196 74.5606 80.1401 74.34C78.1378 73.9749 76.0762 74.1123 74.1401 74.74C68.7001 76.46 64.5401 82.74 64.9801 85.5C65.5801 89.2 67.4401 93.36 70.9801 94.94C73.3226 95.7879 75.8973 95.7308 78.2001 94.78C80.2918 94.1461 82.2796 93.2096 84.1001 92C84.9884 91.42 85.7413 90.6552 86.3073 89.7578C86.8734 88.8605 87.2392 87.8516 87.3801 86.8C87.2507 84.186 86.4143 81.656 84.9601 79.48ZM79.8801 76.8C81.4001 77.18 81.2601 78.48 80.7601 79.42C79.4001 81.86 74.0001 84.4 71.0001 84.98C70.0001 85.18 68.2001 84.98 68.0401 83.74C68.7926 81.315 70.4243 79.2588 72.6148 77.9749C74.8053 76.6909 77.3965 76.2719 79.8801 76.8ZM83.3401 89.56C82.0775 90.6218 80.6347 91.4482 79.0801 92C77.2913 92.8394 75.3358 93.2633 73.3601 93.24C70.3401 92.94 68.5801 89.9 67.7801 87.02C68.3935 87.3516 69.0829 87.5171 69.7801 87.5C72.0959 87.4258 74.3598 86.7947 76.3801 85.66C79.0158 84.6419 81.2817 82.85 82.8801 80.52C83.5666 81.895 84.1677 83.311 84.6801 84.76C84.9571 85.6029 84.9776 86.509 84.7391 87.3635C84.5005 88.2181 84.0136 88.9825 83.3401 89.56Z" fill="#5E503B"/>
<path d="M191.76 113.3C193.047 111.904 194.704 110.903 196.539 110.414C198.373 109.926 200.309 109.969 202.12 110.54C206.3 111.395 210.22 113.225 213.56 115.88C216.911 118.587 219.065 122.501 219.56 126.78C219.678 129.79 218.926 132.77 217.394 135.363C215.861 137.956 213.614 140.052 210.92 141.4C201.7 145.72 191.04 142.34 186.64 135.9C182.78 128.64 186.42 118.92 191.76 113.3Z" fill="#FEDAF6"/>
<path d="M220.72 122.26C217.24 111.34 200.72 104.26 192.56 110.48C190.953 111.967 189.536 113.646 188.34 115.48C184.86 121.74 183.3 127.48 185 133.1C186.335 136.514 188.915 139.294 192.22 140.88C195.569 142.743 199.356 143.674 203.187 143.576C207.017 143.477 210.752 142.353 214 140.32C216.897 138.417 219.11 135.639 220.319 132.391C221.528 129.143 221.668 125.594 220.72 122.26ZM214.48 137C211.987 139.117 208.964 140.515 205.737 141.044C202.509 141.572 199.198 141.212 196.16 140C192.711 138.94 189.794 136.61 188 133.48C186.46 129.9 185.88 125.26 189.88 117.8C190.798 116.199 191.906 114.715 193.18 113.38C199.34 106.68 212.36 112.48 217.48 120.62C218.905 123.288 219.384 126.359 218.839 129.334C218.294 132.308 216.758 135.011 214.48 137Z" fill="#5E503B"/>
<path d="M194 110.82C188 116 188 126 193.22 131.88C195.956 134.693 199.437 136.668 203.256 137.575C207.074 138.482 211.071 138.282 214.78 137C208.78 143.18 201.06 147.38 193.52 151.46C180.44 158.5 180.18 158.98 177.02 159.46C174.881 159.464 172.79 158.823 171.02 157.62C164.14 153.74 160.02 145.62 163.88 138.64C163.84 138.58 183.66 119.44 194 110.82Z" fill="#FFAAD7"/>
<path d="M215.66 136.18C215.06 135.64 214.46 135.92 213.9 136.18C206.92 138.18 198.46 136.66 193.9 130.7C191.7 127.976 190.6 124.526 190.819 121.031C191.037 117.535 192.558 114.249 195.08 111.82C196.22 110.76 194.56 109.16 193.36 110.14C183.031 118.653 173.257 127.818 164.1 137.58C163.86 137.506 163.602 137.52 163.371 137.619C163.14 137.718 162.952 137.895 162.84 138.12C158.02 146.9 164.84 157.1 173.36 160.12C178.62 162 183.36 158.5 187.82 156.12C201 149.06 208.24 145.26 215.82 137.88C215.922 137.758 215.999 137.618 216.046 137.466C216.093 137.314 216.11 137.155 216.095 136.997C216.08 136.838 216.034 136.685 215.959 136.545C215.885 136.404 215.783 136.281 215.66 136.18ZM191.88 151C181.74 156.48 182.5 156.38 178.98 157.84C174.62 159.34 169.96 156.08 167.14 153.02C165.469 151.319 164.342 149.159 163.904 146.815C163.466 144.471 163.736 142.05 164.68 139.86C166.28 140.04 169.88 133.58 188.98 116.72C185.42 128.22 194.98 140.94 210.74 139.02C204.891 143.665 198.57 147.68 191.88 151Z" fill="#5E503B"/>
<path d="M145.62 112.86C142.76 108.04 141.16 101.54 145.4 97.04C151.28 90.82 160.42 91.04 168.18 93.36C171.716 94.379 174.817 96.5374 177 99.5C179.26 102.78 178.56 108.36 176.74 111.88C170.24 122.56 154.38 122.66 145.82 113.1L145.62 112.86Z" fill="#FFFDA9"/>
<path d="M177.56 98.32C175.115 95.2833 171.767 93.1046 168 92.1C161.46 90.1 153.76 89.7 147.78 93.56C146.144 94.4692 144.736 95.7398 143.665 97.2753C142.594 98.8107 141.888 100.57 141.6 102.42C140.16 124.26 174.94 128.58 179.28 107.76C179.665 106.153 179.712 104.484 179.415 102.859C179.119 101.233 178.487 99.6874 177.56 98.32ZM177.16 105.86C176.859 108.906 175.583 111.773 173.522 114.036C171.461 116.299 168.725 117.836 165.72 118.42C157.28 120.18 144.4 116.78 144 104C144.002 102.504 144.367 101.031 145.063 99.707C145.76 98.3832 146.768 97.2484 148 96.4C152.92 92.74 159.42 92.62 165.22 93.8C171.7 95.14 177.88 99.16 177.16 105.86Z" fill="#5E503B"/>
<path d="M138 153.02L142.82 102.26C142.82 108.96 149.28 114.12 155.78 115.78C165.16 118.32 175.92 114.5 178.26 104.54L171.02 152L138 153.02Z" fill="#FFE7AB"/>
<path d="M177.24 104.2C175.46 112.36 166.98 116.02 159.24 115.16C152.46 114.38 144.28 109.82 144.12 102.22C144.12 101.902 143.994 101.597 143.768 101.371C143.543 101.146 143.238 101.02 142.92 101.02C142.602 101.02 142.296 101.146 142.071 101.371C141.846 101.597 141.72 101.902 141.72 102.22L136.94 153C136.78 154.54 139.2 154.52 139.34 153C139.06 153 138.84 156.38 143.34 108.46C149.34 118.72 167.16 121.28 175.74 111.66L170 151.68C169.76 153.16 172 153.84 172.42 152.3L179.66 104.84C180 103.34 177.68 102.64 177.24 104.2Z" fill="#5E503B"/>
<path d="M150.98 105.04C153.421 105.04 155.4 103.607 155.4 101.84C155.4 100.073 153.421 98.64 150.98 98.64C148.539 98.64 146.56 100.073 146.56 101.84C146.56 103.607 148.539 105.04 150.98 105.04Z" fill="#5E503B"/>
<path d="M48 137.56C52.5983 192.117 61.662 246.205 75.1 299.28C75.8383 303.719 77.6815 307.9 80.46 311.44C83.1462 313.98 86.3347 315.928 89.82 317.16C128.388 333.847 169.173 344.848 210.9 349.82C214.267 350.458 217.734 350.322 221.04 349.42C224.688 347.701 227.82 345.052 230.12 341.74L279.36 282.5C293.36 265.68 294.7 259.82 292.84 239.3C287.84 185.46 282.833 131.62 277.82 77.78L205.82 139.12C203.037 141.794 199.764 143.906 196.18 145.34C192.25 146.293 188.165 146.43 184.18 145.74L47.38 131.28L48 137.56Z" fill="#DCE28F"/>
<path d="M278.92 77.74C278.896 77.5199 278.814 77.3103 278.681 77.1328C278.549 76.9554 278.372 76.8166 278.167 76.7308C277.963 76.6451 277.74 76.6156 277.521 76.6454C277.301 76.6751 277.094 76.763 276.92 76.9C196.98 148 202.7 140 200.72 141.44C197.616 143.725 193.854 144.939 190 144.9C186 144.76 194.96 145.62 47.2 130.2C46.8817 130.2 46.5765 130.326 46.3515 130.551C46.1264 130.777 46 131.082 46 131.4C48 151.7 49.46 169.52 54 199.62C58.84 232.3 64.96 262.94 72 291.92C74 300.36 75.32 310.26 83.3 315.3C87.4447 317.571 91.7494 319.536 96.18 321.18C100.9 323.02 105.58 324.94 110.3 326.7C143.092 338.936 177.238 347.182 212 351.26C216.487 352.162 221.149 351.302 225.02 348.86C228.501 345.915 231.61 342.557 234.28 338.86C234.28 338.86 278.48 286 284.76 278C291.88 269.14 294.46 261.32 294.64 252.92C294.82 244.52 291.1 256.58 278.92 77.74ZM290.24 263.38C287.1 272.2 280.24 279.38 274.36 286.4C225.24 345.64 228.74 341.76 224.76 345.68C220.94 349.02 216.48 349.22 211.64 348.7C169 343.74 136.6 334.18 97.84 319.26C93.3321 317.568 88.9481 315.563 84.72 313.26C81.0204 310.847 78.3698 307.125 77.3 302.84C75.74 297.84 71.3 278.38 70.2 273.78C57.38 217.04 53.3 181.64 48.62 132.68C48.62 132.68 182.16 146.68 186.28 147.1C190.019 147.637 193.832 147.302 197.42 146.12C203.24 143.54 199 146.3 276.74 80.12L291.06 234.34C292 244.1 293.48 254.18 290.24 263.38Z" fill="#5E503B"/>
<path d="M233.04 189.38C236.6 202.08 259.04 205.62 266.84 185.88C268.638 181.158 269.382 176.1 269.02 171.06C268.982 170.766 268.838 170.496 268.616 170.3C268.393 170.104 268.107 169.996 267.81 169.996C267.513 169.996 267.227 170.104 267.004 170.3C266.782 170.496 266.638 170.766 266.6 171.06C267.82 191.06 254.2 201.3 242.08 196.08C240.492 195.448 239.066 194.471 237.903 193.218C236.741 191.966 235.872 190.47 235.36 188.84C235.33 188.667 235.265 188.502 235.167 188.356C235.07 188.209 234.943 188.085 234.795 187.991C234.647 187.896 234.481 187.834 234.307 187.808C234.133 187.781 233.956 187.792 233.787 187.838C233.617 187.884 233.459 187.965 233.323 188.076C233.187 188.187 233.075 188.325 232.996 188.482C232.916 188.638 232.87 188.809 232.86 188.985C232.851 189.16 232.878 189.336 232.94 189.5L233.04 189.38Z" fill="#5E503B"/>
<path d="M247.66 229.3C232.08 226.94 221.66 231.98 207.2 232.34L197.64 168.54C197.4 167 195.08 167.66 195.22 169.18C195.42 169.18 194.84 166.18 204.72 232.34C200.514 232.293 196.35 231.501 192.42 230C190.98 229.44 190.42 231.76 191.8 232.4L191.68 232.14C201.68 236.14 212.42 234.36 222.66 232.72C228.143 231.76 233.68 231.139 239.24 230.86C244.243 230.501 249.247 231.533 253.7 233.84C269.4 243.84 236.76 278.66 187.54 262.96C186.06 262.52 185.4 264.96 186.9 265.38C194.45 267.847 202.32 269.195 210.26 269.38L220 334.22C220.22 335.74 222.4 335.1 222.4 333.58L212.8 269.44C233.16 269.44 248.16 261.44 256.32 250.98C263.72 241.1 260.16 231.36 247.66 229.3Z" fill="#5E503B"/>
<path d="M275.24 62.92C295.416 70.2236 316.097 76.0457 337.12 80.34C340.477 81.32 344.043 81.32 347.4 80.34C352.52 78.34 354.78 72.54 356.42 67.32C358.84 59.86 360.84 50.88 355.86 44.8C352.8 41.04 347.86 39.5 343.24 38.14L299.24 25.26C292.74 23.26 285.5 21.48 279.36 24.4C273.8 27.04 270.62 32.98 268.7 38.86C266.28 46.08 265.84 55.24 271.6 60.28L275.24 62.92Z" fill="#ABF9FF"/>
<path d="M358.4 46.52C356.574 43.2106 353.643 40.648 350.12 39.28C346.298 37.8142 342.399 36.559 338.44 35.52C304.44 26.26 305.58 25.52 296.02 23.14C288.3 21.14 279.76 20.64 274.02 27C268.767 33.3436 265.932 41.3441 266.02 49.58C266.001 53.3515 267.248 57.0204 269.56 60C271.075 61.537 272.775 62.8805 274.62 64C274.833 64.1587 275.095 64.2367 275.36 64.22C293.389 70.7581 311.829 76.103 330.56 80.22C338 81.86 347.2 84.94 352.76 77.8C354.872 75.0364 356.434 71.8927 357.36 68.54C358.632 64.8758 359.517 61.0885 360 57.24C360.497 53.5872 359.942 49.8684 358.4 46.52ZM333.26 36.66C343.42 49.82 334.14 72.54 322.04 75.72C317.573 74.64 313.133 73.4933 308.72 72.28C315.84 69.9 320.06 62.14 322.1 55.32C324.34 47.9 324.5 39.42 320.1 32.84L333.26 36.66ZM290.46 66.82C298.46 65 302.96 56.82 305.12 49.5C307.28 42.18 307.5 34.34 303.62 27.9C308.02 29.18 312.38 30.56 316.7 31.9C327.28 45.48 317.3 68.74 304.98 71.28C300.12 69.84 295.28 68.38 290.46 66.82ZM268.32 50.82C267.989 43.9958 269.838 37.2432 273.6 31.54C275.474 28.5657 278.291 26.3053 281.6 25.12C285.617 24.1291 289.825 24.2119 293.8 25.36C295.92 25.8667 298.04 26.4067 300.16 26.98C310.16 39.86 299.94 64.48 286.72 65.68C283 64.46 275.52 61.8 275.48 61.8C274.32 61.02 273.2 60.2 272.12 59.32C269.818 57.0407 268.461 53.9765 268.32 50.74V50.82ZM356 64.92C355.217 68.0536 354.076 71.0868 352.6 73.96C351.862 75.5593 350.733 76.9471 349.317 77.9956C347.902 79.0441 346.245 79.7196 344.5 79.96C340.435 79.9531 336.392 79.3534 332.5 78.18C330.34 77.72 328.2 77.22 326.04 76.72C332.7 74.06 336.68 66.72 338.66 60.04C340.88 52.68 341.04 44.28 336.66 37.72C339.22 38.46 341.8 39.24 344.36 40.02C347.963 40.8254 351.323 42.4777 354.16 44.84C356.473 47.3269 357.746 50.6041 357.72 54C357.706 57.7063 357.126 61.3887 356 64.92Z" fill="#51BDBF"/>
<path d="M267.22 27.56C265.756 27.3889 264.272 27.6111 262.922 28.2035C261.572 28.796 260.404 29.7374 259.538 30.931C258.672 32.1245 258.14 33.5271 257.997 34.9945C257.853 36.4619 258.102 37.9411 258.72 39.28C261.4 45.94 271.8 45.28 274.38 37.94C274.594 36.7881 274.578 35.6053 274.333 34.4596C274.089 33.3138 273.621 32.2276 272.955 31.2632C272.29 30.2988 271.441 29.4753 270.457 28.8398C269.473 28.2043 268.373 27.7694 267.22 27.56Z" fill="#50BDBF"/>
<path d="M265.56 26.16C263.19 26.3607 260.983 27.4447 259.375 29.197C257.767 30.9493 256.877 33.2418 256.88 35.62C256.36 44.26 265.64 47.5 271.86 43.26C279.66 38.18 274.98 26.1 265.56 26.16ZM264.3 28.86C265.461 30.6984 265.949 32.8824 265.68 35.04C265.02 37.5447 263.414 39.6957 261.2 41.04C257.36 37.36 259.46 30.32 264.3 28.86ZM271.1 40.86C270.043 41.7241 268.789 42.3147 267.45 42.5798C266.111 42.8449 264.727 42.7762 263.42 42.38C265.679 40.7208 267.297 38.3332 268 35.62C268.38 33.2743 268.017 30.8685 266.96 28.74C272.78 29.72 275.72 37.08 271.1 40.88V40.86Z" fill="#5E503B"/>
<path d="M352.68 111.26C361.342 126.52 365.705 143.843 365.303 161.385C364.902 178.927 359.751 196.033 350.4 210.88C349.54 212.18 351.62 213.28 352.4 212.08C361.973 196.876 367.243 179.36 367.648 161.398C368.053 143.436 363.578 125.7 354.7 110.08C354.514 109.882 354.266 109.753 353.997 109.714C353.729 109.675 353.454 109.728 353.22 109.865C352.985 110.002 352.804 110.215 352.706 110.468C352.608 110.722 352.599 111.001 352.68 111.26Z" fill="#51BDBF"/>
<path d="M360.44 92.82C368.401 104.044 373.902 116.822 376.583 130.319C379.264 143.815 379.066 157.726 376 171.14C375.956 171.446 376.026 171.757 376.196 172.015C376.367 172.273 376.626 172.459 376.925 172.538C377.224 172.617 377.541 172.583 377.817 172.443C378.092 172.304 378.307 172.068 378.42 171.78C381.517 158.04 381.693 143.803 378.937 129.991C376.18 116.178 370.553 103.099 362.42 91.6C361.54 90.34 359.46 91.6 360.42 92.82H360.44Z" fill="#51BDBF"/>
<path d="M222.96 190.66C228.328 190.66 232.68 186.308 232.68 180.94C232.68 175.572 228.328 171.22 222.96 171.22C217.592 171.22 213.24 175.572 213.24 180.94C213.24 186.308 217.592 190.66 222.96 190.66Z" fill="#C1C69B"/>
<path d="M272.36 145.76C274.282 145.76 276.162 146.33 277.76 147.398C279.359 148.466 280.604 149.984 281.34 151.76C282.076 153.536 282.268 155.491 281.893 157.376C281.518 159.262 280.592 160.994 279.233 162.353C277.874 163.712 276.142 164.638 274.256 165.013C272.371 165.388 270.416 165.196 268.64 164.46C266.864 163.724 265.346 162.479 264.278 160.88C263.21 159.282 262.64 157.402 262.64 155.48C262.645 152.904 263.671 150.434 265.493 148.613C267.314 146.791 269.784 145.765 272.36 145.76Z" fill="#C1C69B"/>
<path d="M225.76 175.56C228.532 175.56 230.78 173.312 230.78 170.54C230.78 167.768 228.532 165.52 225.76 165.52C222.988 165.52 220.74 167.768 220.74 170.54C220.74 173.312 222.988 175.56 225.76 175.56Z" fill="#5E503B"/>
<path d="M264.32 153.44C267.093 153.44 269.34 151.192 269.34 148.42C269.34 145.648 267.093 143.4 264.32 143.4C261.548 143.4 259.3 145.648 259.3 148.42C259.3 151.192 261.548 153.44 264.32 153.44Z" fill="#5E503B"/>
<path d="M124.96 267.28C101.14 260.48 114.96 264.3 99.4001 259.56C95.5401 258.36 93.5201 254.52 96.5201 249.34L99.4401 244V246.3C99.4401 246.846 99.6571 247.37 100.043 247.757C100.43 248.143 100.954 248.36 101.5 248.36C102.046 248.36 102.57 248.143 102.957 247.757C103.343 247.37 103.56 246.846 103.56 246.3C103.56 242.16 103.56 240.08 103.36 235.9C103.361 235.556 103.273 235.218 103.105 234.918C102.937 234.619 102.695 234.367 102.401 234.188C102.108 234.009 101.773 233.909 101.429 233.897C101.086 233.885 100.745 233.962 100.44 234.12C97.4801 235.48 95.9601 236.12 92.8801 237.48C92.3761 237.695 91.9782 238.101 91.7738 238.609C91.5694 239.117 91.5752 239.686 91.7901 240.19C92.0049 240.694 92.4111 241.092 92.9193 241.296C93.4275 241.501 93.9961 241.495 94.5001 241.28L96.7401 240.3L92.9201 247.42C88.6001 254.88 91.8601 261.64 98.2001 263.6C113.82 268.4 100.74 264.82 123.84 271.34C124.107 271.414 124.385 271.434 124.66 271.4C124.934 271.366 125.199 271.278 125.44 271.141C125.68 271.005 125.891 270.822 126.061 270.604C126.231 270.386 126.357 270.137 126.43 269.87C126.504 269.603 126.524 269.325 126.49 269.051C126.456 268.776 126.368 268.511 126.231 268.271C126.095 268.03 125.912 267.819 125.694 267.649C125.476 267.479 125.227 267.354 124.96 267.28Z" fill="white"/>
<path d="M161.44 264.82C157.08 257.66 147.18 238.82 144.82 234.1C144.705 233.853 144.541 233.632 144.338 233.45C144.135 233.269 143.897 233.131 143.638 233.045C143.38 232.959 143.107 232.926 142.835 232.949C142.564 232.973 142.3 233.051 142.06 233.18C141.81 233.294 141.587 233.459 141.403 233.664C141.22 233.869 141.081 234.109 140.995 234.37C140.908 234.631 140.877 234.906 140.902 235.18C140.927 235.454 141.008 235.719 141.14 235.96C144.1 241.84 153.58 259.96 157.94 266.96C161.22 272.32 156.12 273.4 149.94 272.32L140.48 270.8L142.48 270.04C142.737 269.949 142.973 269.807 143.173 269.622C143.373 269.438 143.533 269.214 143.644 268.965C143.754 268.715 143.813 268.446 143.816 268.174C143.818 267.901 143.765 267.631 143.66 267.38C143.57 267.121 143.427 266.882 143.241 266.68C143.054 266.479 142.828 266.317 142.577 266.207C142.325 266.096 142.054 266.038 141.779 266.037C141.504 266.036 141.232 266.091 140.98 266.2C137.26 267.66 135.46 268.4 132.02 269.84C131.664 269.963 131.35 270.183 131.113 270.477C130.877 270.77 130.729 271.124 130.685 271.498C130.641 271.872 130.704 272.251 130.865 272.591C131.027 272.931 131.282 273.218 131.6 273.42C139.78 279.42 140.48 280.14 141.6 280.14C142.065 280.195 142.534 280.086 142.927 279.831C143.319 279.576 143.61 279.191 143.748 278.744C143.886 278.296 143.862 277.815 143.682 277.383C143.501 276.951 143.175 276.596 142.76 276.38C142.04 275.88 141.38 275.44 140.76 275L149.34 276.38C162 278.6 165.56 271.54 161.44 264.82Z" fill="white"/>
<path d="M139.36 214C138.821 214.004 138.305 214.213 137.915 214.585C137.524 214.956 137.29 215.462 137.26 216C137.26 216.34 137.26 216.84 137.26 217.38L133.58 210C128.9 199.84 121.98 200 118.4 204.82C107.02 220.2 114.6 209.62 102.94 226.56C102.699 226.863 102.551 227.23 102.514 227.616C102.478 228.002 102.554 228.391 102.735 228.734C102.915 229.077 103.191 229.361 103.529 229.55C103.867 229.739 104.253 229.826 104.64 229.8C104.973 229.802 105.301 229.72 105.594 229.563C105.887 229.406 106.137 229.178 106.32 228.9C117.5 212.68 110.12 222.9 121.72 207.26C124.5 203.5 127.88 207.48 129.84 211.76L133.12 218.5L132.08 217.64C131.658 217.29 131.115 217.122 130.569 217.172C130.023 217.223 129.52 217.488 129.17 217.91C128.82 218.332 128.652 218.875 128.702 219.421C128.753 219.967 129.018 220.47 129.44 220.82C132.94 223.72 134.6 225.14 137.86 227.68C138.156 227.942 138.523 228.11 138.915 228.163C139.307 228.216 139.705 228.151 140.061 227.978C140.416 227.805 140.712 227.53 140.911 227.189C141.11 226.847 141.204 226.455 141.18 226.06C141.18 223.56 141.36 217.68 141.38 216.24C141.414 215.956 141.387 215.668 141.301 215.396C141.215 215.123 141.071 214.873 140.88 214.66C140.688 214.448 140.454 214.279 140.191 214.165C139.929 214.051 139.646 213.995 139.36 214Z" fill="white"/>
<path d="M159.7 332C163.02 340.56 157.08 351.12 150.68 353.04C144.28 354.96 133.58 347.52 131.22 339.6C128.86 331.68 136.04 322.92 142.74 321.86C146.32 321.164 150.03 321.814 153.16 323.685C156.29 325.556 158.619 328.517 159.7 332Z" fill="#50BDBF"/>
<path d="M138.64 325.8C145.06 323.8 152.2 328.7 154.64 336.6C157.08 344.5 153.72 352.46 147.28 354.38C140.84 356.3 133.74 351.46 131.28 343.58C128.82 335.7 132.22 327.72 138.64 325.8Z" fill="#ABFFE1"/>
<path d="M160.82 331.52C159.929 328.567 158.193 325.939 155.827 323.96C153.46 321.982 150.566 320.74 147.501 320.387C144.437 320.033 141.336 320.585 138.581 321.974C135.827 323.362 133.539 325.527 132 328.2C126.96 336.2 128.96 348.2 136.98 353.66C145.5 359.42 155.98 353.42 159.76 345.66C160.896 343.501 161.576 341.132 161.759 338.7C161.941 336.268 161.622 333.824 160.82 331.52ZM138.4 351.66C129.3 345.48 129.58 329.78 138.98 326.94C148.38 324.1 157.28 337.06 152.98 347.26C152.49 348.662 151.676 349.927 150.603 350.954C149.531 351.981 148.231 352.74 146.809 353.169C145.388 353.598 143.885 353.685 142.424 353.423C140.962 353.161 139.584 352.557 138.4 351.66ZM155.26 348.28C160.12 336.94 150.62 322.04 139.26 324.4C141.011 323.443 142.953 322.887 144.945 322.774C146.937 322.661 148.929 322.992 150.777 323.745C152.625 324.497 154.283 325.652 155.629 327.125C156.975 328.598 157.976 330.352 158.56 332.26C159.458 334.986 159.626 337.899 159.047 340.71C158.468 343.521 157.162 346.131 155.26 348.28Z" fill="#5E503B"/>
<path d="M140.18 333.26C143.54 332.24 147.26 334.78 148.5 338.92C149.74 343.06 148.02 347.2 144.66 348.22C141.3 349.24 137.6 346.68 136.36 342.56C135.12 338.44 136.82 334.26 140.18 333.26Z" fill="#50BDBF"/>
<path d="M143.18 349.64C141.304 349.511 139.517 348.788 138.079 347.577C136.641 346.365 135.626 344.727 135.18 342.9C133.76 338.14 135.84 333.3 139.82 332.1C144.1 330.82 148.3 334.1 149.64 338.56C151.36 344.24 148 349.64 143.18 349.64ZM137.5 342.2C138.56 345.7 141.62 347.88 144.32 347.06C148.72 345.74 148.84 338.14 144.46 335.16C140.08 332.18 135.84 336.68 137.5 342.2Z" fill="#5E503B"/>
<path d="M299.12 312C294.952 314.836 291.439 318.532 288.82 322.84C286.998 325.814 286.152 329.283 286.399 332.761C286.647 336.24 287.976 339.554 290.2 342.24C300.62 354.5 313.24 348.24 324.92 340.4C337.688 331.379 349.683 321.311 360.78 310.3C366.04 305.3 368.42 296.42 364.26 290.18C357.38 279.86 348.26 281.96 339.28 286.92C325.467 294.578 312.062 302.949 299.12 312Z" fill="#ABF9FF"/>
<path d="M294.46 322C297.317 320.673 300.537 320.348 303.601 321.078C306.666 321.808 309.394 323.549 311.346 326.022C313.298 328.494 314.359 331.552 314.358 334.702C314.357 337.852 313.294 340.909 311.34 343.38C310.42 344.64 312.52 345.78 313.34 344.58C314.979 342.222 315.997 339.488 316.301 336.633C316.605 333.777 316.185 330.891 315.08 328.24C314.192 326.239 312.918 324.434 311.33 322.927C309.743 321.42 307.873 320.242 305.829 319.459C303.785 318.677 301.607 318.306 299.419 318.368C297.231 318.43 295.077 318.923 293.08 319.82C291.66 320.46 292.88 322.52 294.28 321.92L294.46 322Z" fill="#51BDBF"/>
<path d="M365.26 289.6C357.4 277.78 346.94 281.44 338.7 285.94C324.806 293.536 311.364 301.93 298.44 311.08C294.119 314.001 290.488 317.83 287.8 322.3C285.84 325.486 284.928 329.207 285.194 332.938C285.459 336.669 286.888 340.224 289.28 343.1C299.72 355.38 312.2 350.46 325.6 341.46C338.417 332.41 350.459 322.308 361.6 311.26C367.06 306 370 296.54 365.26 289.6ZM354 305.4C354.647 309.495 353.871 313.688 351.8 317.28C349.04 319.8 346.233 322.267 343.38 324.68C344.649 321.664 345.201 318.394 344.992 315.129C344.784 311.863 343.821 308.691 342.18 305.86C338.52 299.12 331.8 296.68 324.74 296.74C328.02 294.74 331.32 292.74 334.62 290.98C339.095 290.37 343.63 291.539 347.253 294.235C350.876 296.93 353.298 300.939 354 305.4ZM328.48 336.42C333.58 320.96 325.56 309.68 315.4 307.76C313.226 307.263 311.009 306.975 308.78 306.9C312.64 304.32 316.54 301.82 320.46 299.36C324.542 298.585 328.756 298.896 332.68 300.26C336.036 301.635 338.755 304.219 340.3 307.5C342.038 310.663 342.823 314.261 342.56 317.86C342.24 321.489 341.098 324.998 339.22 328.12C335.74 330.987 332.16 333.753 328.48 336.42ZM291.12 341.56C289.063 339.064 287.836 335.988 287.61 332.762C287.384 329.535 288.171 326.318 289.86 323.56C293.86 316.88 298.36 314.02 304.76 309.56C307.86 308.5 312.04 309.42 315 310.06C325.5 312.2 331.3 324.86 325.28 338.68L324.24 339.42C310.92 348.42 300.18 352.2 291.12 341.56ZM359.94 309.56L355.94 313.56C356.715 310.8 356.879 307.904 356.421 305.074C355.963 302.244 354.893 299.548 353.286 297.174C351.679 294.8 349.574 292.805 347.117 291.327C344.66 289.85 341.91 288.926 339.06 288.62C349.06 283.16 357.06 281.54 363.3 291.02C367.2 296.82 364.66 305.02 360 309.54L359.94 309.56Z" fill="#51BDBF"/>
<path d="M389.2 355.86C390.3 363.86 386.64 371.24 381.04 372C377.98 372.42 356.06 375.64 349.94 376.82C347 377.42 343.16 367.18 342.7 363.68C342.3 360.64 341.52 348.82 344.1 348.38C352.1 346.98 373.76 344.16 377.22 343.68C382.8 342.98 388.1 348 389.2 355.86Z" fill="#FFAAD7"/>
<path d="M345.7 348C351.32 347.22 356.76 353.06 357.86 361.02C358.96 368.98 355.28 376.08 349.66 376.84C344.04 377.6 338.6 371.78 337.5 363.82C336.4 355.86 340 348.82 345.7 348Z" fill="#FEDAF6"/>
<path d="M390.4 355.68C389.24 347.36 383.5 341.68 377.06 342.48C377.06 342.48 353.74 345.6 346.24 346.8C338.96 347.16 335.18 355.9 336.24 364.04C337.3 372.18 343.52 380.04 350.94 377.84C358 376.56 378.24 373.58 381.12 373.2C387.46 372.34 391.6 364.48 390.4 355.68ZM340.16 353.82C344.82 344.82 355.08 349.82 356.66 361.24C357.66 368.54 354.44 375.02 349.5 375.72C341.52 376.8 335.44 362.92 340.16 353.82ZM380.88 370.8C378.54 371.12 364.7 373.16 355.78 374.6C361.78 367.3 359.78 353.42 351.78 348.38C359.18 347.3 377.32 344.88 377.32 344.88C383.06 344.18 387.1 349.94 387.96 356.02C389 363.36 385.74 370.14 380.88 370.8Z" fill="#5E503B"/>
<path d="M347.2 365.74C348.5 365.56 349.78 366.9 350.02 368.76C350.26 370.62 349.44 372.24 348.12 372.42C346.8 372.6 345.56 371.24 345.3 369.4C345.04 367.56 346 366 347.2 365.74Z" fill="white"/>
<path d="M346 372.96C343.12 370.76 343.58 364.96 347.1 364.54C349.1 364.26 350.94 366.04 351.28 368.54C351.76 372.58 348.46 374.86 346 372.96ZM347.42 366.96C346.7 366.96 346.44 368.44 346.56 369.28C346.68 370.12 347.28 371.28 348.02 371.28C348.76 371.28 349.02 369.94 348.9 368.98C348.78 368.02 348 366.9 347.36 366.92L347.42 366.96Z" fill="#FFAAD7"/>
</svg>
