<svg width="400" height="400" viewBox="0 0 400 400" fill="none" xmlns="http://www.w3.org/2000/svg">
<path d="M322.38 141.32C330.88 131.8 331.02 129.68 331.96 130.4C335 132.66 299.96 162.16 316.74 172.92C320.74 175.46 322 176.12 320.74 178.92C320.6 180.6 319.3 182.3 319.46 185.08C319.62 187.86 319.46 188.9 324.02 190.66C326.497 190.783 328.953 190.148 331.06 188.84C333.64 187.28 337.06 185.76 338.82 188.1C341.324 187.594 343.677 186.52 345.7 184.96C344.661 185.007 343.62 184.886 342.62 184.6C352.02 181.26 354.2 176.6 355.1 170.78C355.34 164.4 350.92 159.12 350.46 157.94C349.22 160.44 347.16 166.26 343.38 167.04C346.456 163.192 348.709 158.754 350 154C349.6 148.42 349.52 142.68 347 138.14C344.8 134.14 341.74 134.14 339.22 137.86C338.02 139.66 338.04 140.06 337.36 139.86C336.68 139.66 336.76 139.08 336.58 138.6C332.74 128.6 333 128.6 331.92 128.6C321.12 128.26 316.32 123.68 315.26 125.14C315.78 130.7 316.54 136.08 319.54 140.92C320.84 143.04 320.82 143.06 322.38 141.32Z" fill="#FEF0BB"/>
<path d="M164.96 105.6C166.099 107.067 167.518 108.293 169.135 109.207C170.753 110.12 172.535 110.702 174.38 110.92C178.14 111.68 181.62 109.08 185.1 107.48C180.64 107 176.5 106.7 172.88 104.32C170.6 102.84 172.88 100.54 173.2 102.46C173.74 104.98 183.92 105.62 185.46 107.32C197.84 101.6 198.94 104.74 191.46 102.9C190 102.54 185.98 101.14 186.6 99.78C187.22 98.42 188.32 101.78 201.34 102.44C212.32 100.44 212.4 106.26 214.5 106.86C210.5 102.02 208.24 95.16 209.44 94.86C211.7 94.14 208.64 104.6 228.42 115.7C231.267 117.117 234.34 118.024 237.5 118.38C237.09 118.836 236.565 119.175 235.98 119.36C244.26 122.66 241.98 130.4 242.66 126.64C242.66 126.2 242.4 125.42 243.1 125.36C243.8 125.3 243.92 126.08 243.86 126.64C243.48 130.14 244.62 133.64 244.18 137.16C244.58 137.3 244.64 136.64 244.72 136.44C245.603 134.27 246.345 132.046 246.94 129.78C246.94 114.04 241.6 112.26 232.1 98.04C226.1 89.02 213.62 89.86 201.42 90.04C177.42 90.22 222.42 96.46 201.9 95.28C199.292 95.2343 196.724 94.6347 194.365 93.521C192.007 92.4073 189.912 90.8048 188.22 88.82C178.9 77.76 180.02 78 178.94 72.82C177.019 76.6261 175.857 80.7699 175.52 85.02C175.52 86.88 174.94 88.9 177.32 89.98C172.7 89.74 171.02 85.98 168.6 82.94C168.094 84.142 167.79 85.4191 167.7 86.72C167.2 93.04 170.44 96.5 168.38 97.58C166.32 98.66 163.12 93.3 162 91.34C161.505 93.7936 161.512 96.322 162.021 98.7728C162.53 101.224 163.53 103.546 164.96 105.6ZM230.32 110.1C230.74 109.56 230.64 109.46 241.24 115.8C241.617 115.981 241.935 116.265 242.158 116.618C242.381 116.972 242.5 117.382 242.5 117.8C240.44 116.78 229.02 111.86 230.32 110.1Z" fill="#FEF0BB"/>
<path d="M176.6 370.34C170.88 371.66 156.26 379.2 143.42 370.34C139.42 367.879 135.178 365.834 130.76 364.24C130.646 364.365 130.552 364.507 130.48 364.66C129.7 366.38 128.36 363.94 127.7 365.24C127.24 366.1 127.6 368.38 128.08 373.98C128.08 374.48 128.88 375.98 127.32 375.84C129.12 382.1 138.94 385.28 145.32 386.36C161.72 389.16 180.26 392.62 207.94 383.62C211.94 382.3 209.46 378.74 212.18 360.98C200.44 364.68 188.56 367.6 176.6 370.34Z" fill="#FEF0BB"/>
<path d="M150.52 62.22C150.72 62.22 183.14 60.04 188.66 59.58C190.06 59.46 190.66 58.72 190.02 57.32C189.38 55.92 188.92 54.12 188.14 52.62C186.9 50.26 188.38 50.76 197.96 48.24C201.96 47.22 198.82 45.6 191.48 37.08C190.985 36.4268 190.268 35.9782 189.464 35.8197C188.66 35.6611 187.826 35.8036 187.12 36.22C184.64 37.34 174 42 171.28 43.2C168.14 44.66 168.68 44.48 174.58 50.12C150 60.44 147.6 59.58 148.3 61.48C148.66 62.44 149.7 62.46 150.52 62.22Z" fill="#FEF0BB"/>
<path d="M252.36 170.44C249.04 157.9 257.56 146.06 251.88 147.22C253.08 147.94 251.88 148.54 251.6 148.92C243.6 158.18 237.48 175.76 247.08 180.18C251.4 182.18 251.72 181.14 250.94 184.76C250.28 187.84 251.7 188.04 254.76 188C257.271 187.746 259.675 186.851 261.74 185.4C265.04 183.4 255.74 183.22 252.36 170.44Z" fill="#FEF0BB"/>
<path d="M273.68 318.3C275.68 318.86 277.68 319.8 279.88 318.82C280.31 318.622 280.777 318.52 281.25 318.52C281.723 318.52 282.19 318.622 282.62 318.82C283.804 318.944 284.925 319.417 285.84 320.18C287.518 319.874 289.046 319.015 290.18 317.74C289.98 317.74 268.96 313.1 248.96 306.36C249.96 309.86 250.96 310.88 250 310.88C257.755 313.774 265.66 316.251 273.68 318.3Z" fill="#FEF0BB"/>
<path d="M279.58 295C277.7 290.78 277.94 290.26 276.64 290.02C267.4 288.3 258.16 286.56 248.86 285.18C248.62 288.22 248.28 288.76 248.48 288.76C250.5 289.2 279.32 295.58 279.58 295Z" fill="#FEF0BB"/>
<path d="M311.68 271.36C311.98 270.48 310.04 267.36 309.12 267.36C302.76 267.18 296.46 266.14 290.1 266.14C286.4 266.14 282.72 265.8 279.04 265.48C279.98 269.26 279.78 269.12 279.98 269.22C310.58 271.24 311.24 272.68 311.68 271.36Z" fill="#FEF0BB"/>
<path d="M304.12 243.42C306.12 243.42 304.12 242.62 302.12 239.98C292.26 239.98 296.6 238.1 291.2 243.5L298.76 243.9C299.88 244 302 243.38 304.12 243.42Z" fill="#FEF0BB"/>
<path d="M282.92 240C283.327 241.152 283.914 242.232 284.66 243.2C289.96 243.46 288.66 244.08 292.66 240.1C293.5 239.12 292.88 239.84 282.92 240Z" fill="#FEF0BB"/>
<path d="M274 239.58C272.7 239.58 272.92 239.04 273.7 242.64C275.04 242.64 281.7 243.02 282.96 243.1C280.78 239.42 282.32 240.04 280.4 239.92C278.48 239.8 276.16 239.66 274 239.58Z" fill="#FEF0BB"/>
<path d="M314 295.4C308.52 294.94 303.12 293.82 297.62 293.56C294.507 293.321 291.418 292.84 288.38 292.12C289.48 294.12 290.38 295.48 291.22 296.92C318.78 299.18 317.22 299.18 317.22 298.26C316 295.58 316.8 295.62 314 295.4Z" fill="#FEF0BB"/>
<path d="M270.34 268.28C271.82 268.58 271.34 267.98 270.9 265.4C270.34 264.74 270.22 265.08 262.16 264.52C246.16 263.42 239.94 259.42 239.2 259.2C239.767 260.762 240.435 262.285 241.2 263.76C246.78 266.38 266.24 267.84 270.34 268.28Z" fill="#FEF0BB"/>
<path d="M266.16 241.74C265.48 239.02 265.62 238.88 264.68 238.78C257.46 238.02 249.1 235.5 247.22 235.36C246.123 236.264 245.081 237.232 244.1 238.26C267.26 242.22 266 242 266.16 241.74Z" fill="#FEF0BB"/>
<path d="M267.62 213.08C267.02 213.62 266.68 211.58 267.92 216.64C269.7 216.64 269.26 216.38 269.5 214.46C269.6 213.6 270.18 212.76 267.62 213.08Z" fill="#FEF0BB"/>
<path d="M343.48 212.88C340.574 211.302 337.583 209.886 334.52 208.64C332.76 207.98 331.1 205.68 329.32 206.82C327.54 207.96 327.08 210.08 325.98 211.76C325.48 212.5 332.1 211.44 330.92 215.34C325.96 211.34 319.74 217.58 317.6 223.34C317.298 224.201 317.23 225.126 317.402 226.022C317.574 226.918 317.98 227.752 318.58 228.44C320.1 230.56 322.58 228.22 323.7 225.86C325.52 222.02 329.88 215.18 334.06 216.14C342.6 218.14 336.64 225.04 336.38 227.66C334.64 245 334.38 237.26 339.22 240.14C346.36 243.32 339.22 245.58 341.52 248.78C343.82 251.98 343.24 255.46 339.52 257.5C336.7 259.04 335.1 258.6 336.12 260.62C339.88 268.12 339.9 276.12 346.84 283C352.6 288.7 349.96 295.14 351.54 297.22C352.273 293.694 352.735 290.117 352.92 286.52C352.76 276.88 348.76 275.46 349.72 262.02C350.38 252 364.14 223.28 343.48 212.88Z" fill="#FFC7D6"/>
<path d="M334.96 218C333.68 217.74 332.16 217.4 331.1 219.24C329 222.92 321.1 229.92 326.62 233.4C327.72 234.08 328.62 232.76 329.34 232.06C332.026 229.412 334.359 226.427 336.28 223.18C337.14 221.78 337.08 218.36 334.96 218Z" fill="#FFC7D6"/>
<path d="M256.4 136.94C254.4 149.24 257.58 148.64 255.08 154.24C250.84 163.72 253.08 172.04 259.76 179.5C262.025 181.737 264.757 183.444 267.76 184.5C275.76 187.88 279.48 187.3 282.58 193.16C283.64 195.16 285.76 198.8 284.94 199.28C284.12 199.76 283.68 198.68 282.78 197.92C282.42 197.64 282.34 196.8 281.64 197.22C280.94 197.64 280.58 197.8 280.48 198.64C279.337 208.387 279.203 218.226 280.08 228C280.4 231.2 292.08 230 295.3 229.76C299.14 229.56 294 224.94 293.3 216.86C292.6 208.78 299.6 207.4 307.04 207.58C305.84 188.96 304.6 180.92 309.04 180.28C317.26 179.06 313.26 192.28 317.9 206.12C320.364 201.218 323.449 196.653 327.08 192.54C325.494 192.416 323.926 192.128 322.4 191.68C316.96 189.5 316.02 184.58 318 179.08C318.28 178.32 319.18 177.7 319.42 176.96C318.86 175.36 308.1 173.26 310.7 161.24C311.28 155.82 313.72 152.72 319.6 144.22C320.26 143.24 320.14 143.86 318.7 142.22C313.14 135.64 314.16 123.62 314.14 123.42C313.74 122.64 305.06 120.1 296.54 111.26C294.994 109.952 293.838 108.242 293.2 106.32C292.44 106.2 292.14 107.02 290.68 108.74C291.06 108.4 291.48 108 291.9 108.48C292.32 108.96 291.54 109.42 291.22 109.74C285.22 115.94 277.84 120.42 270.48 124.84C268.04 126.3 267.74 125.94 270.48 126.14C266.07 128.1 262.083 130.899 258.74 134.38C258.48 133.3 258.48 133.3 262.2 129.26C261.04 129.46 260.04 130.08 258.88 130.28C257.698 131.765 256.729 133.407 256 135.16C257.02 135.36 256.5 136.28 256.4 136.94ZM304.88 149.74C299.46 149.74 300.44 141.3 305.32 141.24C306.395 141.271 307.416 141.722 308.163 142.496C308.91 143.269 309.326 144.304 309.32 145.38C309.192 146.506 308.681 147.553 307.873 148.347C307.064 149.141 306.008 149.633 304.88 149.74ZM313.28 134.44C313.1 135.5 311.72 135.66 311.28 136.7C311.28 136.94 310.86 136.58 310.68 136.44C301.4 129.6 293.6 138.78 294.06 133.9C294.34 130.84 294.5 130.64 297.58 129.9C306 127.64 313.56 132.84 313.28 134.44ZM292.92 121.5C298.983 119.708 305.506 120.354 311.1 123.3C311.602 123.514 312.031 123.871 312.333 124.326C312.635 124.781 312.797 125.314 312.8 125.86C302.8 118.58 292.36 123.86 291.92 122.46C291.72 121.76 292.46 121.62 292.92 121.5ZM286 153.68C293.08 153.68 298.66 153.68 297.26 160.62C295.68 168.46 289.9 171.9 287.86 174.62C285.56 177.7 273.18 177.5 268.2 165.76C267.432 163.821 266.856 161.811 266.48 159.76C266.273 159.195 266.297 158.571 266.548 158.024C266.799 157.477 267.256 157.051 267.82 156.84C272.86 154 280 153.64 286 153.68ZM269.4 147.68C272.9 142.24 280.7 137.84 281.24 140.32C281.44 141.3 280.52 140.88 280.06 141.06C276.718 142.474 273.807 144.743 271.62 147.64C271.561 147.733 271.53 147.84 271.53 147.95C271.53 148.06 271.561 148.167 271.62 148.26C271.675 148.357 271.757 148.436 271.857 148.486C271.957 148.535 272.069 148.554 272.18 148.54C275 148.26 277.44 147.1 279.96 146.82C280.103 146.808 280.247 146.846 280.366 146.925C280.486 147.005 280.575 147.123 280.62 147.26C280.655 147.399 280.642 147.545 280.584 147.675C280.526 147.806 280.426 147.913 280.3 147.98C270.6 152.68 267.76 150.12 269.34 147.68H269.4ZM265.04 132.76C265.4 131.86 265.86 130.76 267.04 131.14C268.22 131.52 268.2 132.56 268.08 133.56C268.092 136.015 267.53 138.44 266.44 140.64C264.8 143.28 261.2 142.32 264.98 132.76H265.04ZM263.04 144.26C264.146 144.249 265.211 144.673 266.008 145.439C266.805 146.206 267.269 147.255 267.3 148.36C267.157 149.615 266.586 150.782 265.682 151.664C264.778 152.546 263.598 153.088 262.34 153.2C261.194 153.122 260.117 152.624 259.316 151.801C258.515 150.977 258.047 149.888 258 148.74C258.124 147.511 258.7 146.372 259.617 145.544C260.533 144.716 261.725 144.259 262.96 144.26H263.04Z" fill="#FFC7D6"/>
<path d="M316.94 248.48C310.76 248.86 307.88 243.9 310.84 247.94C312.04 247.7 312.84 250.92 313.7 251.78C315.7 252.8 320.02 249.04 323.46 250.6C323.86 250.74 324.38 251.02 324.76 250.42C327.54 245.9 332.56 248.08 332.04 245.08C331.92 244.4 332.18 244.66 331.14 245.24C330.7 245.48 330.06 246.08 329.56 245.48C328.62 244.26 333.24 244.52 334.06 229.82C330.88 232.52 326.62 240.04 322.8 230.88C322.709 230.567 322.649 230.245 322.62 229.92C321.854 230.295 321.002 230.459 320.152 230.397C319.301 230.335 318.482 230.049 317.779 229.567C317.075 229.085 316.512 228.425 316.147 227.654C315.782 226.883 315.628 226.03 315.7 225.18C315.54 217.8 322.96 213.54 323.32 212.72C329.32 199.26 341.04 193.86 337.76 189.68C335.62 186.94 329.48 192.56 327.18 195.18C321.9 201.18 319.78 208.86 317.56 208.46C315.34 208.06 314.42 199.98 314.18 197.86C312.48 183.64 312.94 181.86 309.66 182.08C307.66 182.08 308.06 183.92 308 185C307.4 197.82 309.34 199.58 308.46 204.64C308.14 206.64 308.2 207.88 310.46 208.84C313.86 210.24 313.78 213.18 310.56 215.06C309.216 215.798 307.834 216.466 306.42 217.06C308.218 217.969 309.676 219.431 310.58 221.232C311.484 223.032 311.785 225.075 311.44 227.06C311.44 227.64 311.44 228.48 310.7 228.46C309.96 228.44 310.28 227.54 310.22 227.02C309.68 222.7 308.22 219.02 303.52 217.78C297.52 216.08 317.1 214.26 309.76 209.88C306.9 208.16 303.88 208.7 300.9 209.4C290.26 211.92 297.02 222.58 301.96 235.4C306.16 246 314.34 245.34 316.94 248.48Z" fill="#FFC7D6"/>
<path d="M278.98 228.46C277.981 218.611 278.102 208.681 279.34 198.86C276.34 200.16 275.04 199.92 274.12 203.16C270.86 214.72 267.64 225.26 278.98 228.46Z" fill="#FFC7D6"/>
<path d="M348.42 303.88C350.42 300 349 298.24 348.86 293.98C348.5 283.3 343.18 285.02 339.1 273.68C334.92 262.02 334.8 254.42 331.8 265.06C330.48 269.72 328.4 270.88 323.8 269.3C321.14 268.36 318.7 266.12 314.02 267.3C313.14 267.52 312.88 267.54 313.16 268.56C315.82 278.56 313.48 287.12 321.52 304.14C323.52 308.58 330.72 312.34 338.24 311.3C341.998 309.37 345.432 306.866 348.42 303.88Z" fill="#FFC7D6"/>
<path d="M84.72 130.88C89.6 131.7 97.02 135.14 98.46 131.1C100.46 125.34 105.16 105.1 105.64 102.68C108.64 88.5 107.98 86.94 112.96 72.1C115.32 65.1 126 24.42 121.18 19C106.411 16.3221 91.4993 14.4991 76.52 13.54C66.16 12.94 72.72 15 59.7 54.86C60.6 55.32 65.28 51.98 69.7 51.5C78.84 50.52 88.4 54.3 90.12 55.9C92.56 57.54 90.98 63.02 89.84 65.72C89.04 67.72 86.72 67.84 84.84 68.34C76.84 70.52 71.2 65.48 64 70.34C92.7 68.24 95.74 67.84 98 79.28C99.46 86.44 91.56 85.12 62.6 88.4C57.76 88.94 54.6 91.8 51.52 94.7C51.9117 94.7504 52.3083 94.7504 52.7 94.7C55.8484 94.2835 59.0284 94.1563 62.2 94.32C63.8873 94.2849 65.546 94.7588 66.96 95.68C88.3 108.2 88.2 106.62 84.96 114.78C84.22 116.78 83.82 118.48 80.96 118.22C69.52 117.18 65.76 112.22 55.92 111.76C66.62 116.34 65.04 117.48 68.22 122.72C70.72 126.86 71.08 127.3 72 127.52C76.46 128.48 80.46 130.18 84.72 130.88ZM88.3 28.36C74.18 25.86 73.3 26 71.86 24.54C69.2 22.42 70.5 18.54 72.82 16.28C74.5 14.64 75.72 14.86 89.98 18C93.7 18.84 94.38 20.54 94.38 23.32C94.38 27.14 92.1 29.04 88.3 28.36Z" fill="#FFC7D6"/>
<path d="M233.72 357.08C234.6 347.9 239.06 345.42 238.94 340.18C238.94 338.5 238.66 339.06 237.68 338.3C235.68 336.72 235.68 335.06 237.06 332.76C237.886 331.472 238.889 330.307 240.04 329.3C243.46 326.56 234.28 328.44 235.5 322.26C237.011 315.434 239.229 308.785 242.12 302.42C243.025 301.068 244.108 299.843 245.34 298.78C245.96 295.92 246 285.66 247.12 281.12C247.32 277.32 247.84 276.5 246.04 273.5C239.9 263.34 235.42 258.64 236.04 250.82C235.92 245.32 238.28 242.82 240.7 240.1C243.852 236.581 247.372 233.409 251.2 230.64C255.2 227.84 253.76 227.42 257.76 217.04C259.76 211.72 257.08 211.32 256.98 205.04C256.898 203.941 256.724 202.85 256.46 201.78C256.23 201.117 255.862 200.51 255.38 200C252.941 199.039 250.291 198.742 247.7 199.14C240.7 200.8 237.28 214.3 235.22 221.94C233.54 228.18 233.12 232.9 231.64 262.2C231.14 272.2 233.1 270.2 228.6 281.96C220.6 302.76 211.64 354.9 214.4 357.72C214.552 357.895 214.636 358.118 214.636 358.35C214.636 358.582 214.552 358.805 214.4 358.98C213.24 360.14 213.52 361.7 213.46 362.98C213.14 369.1 212.1 379.58 213.82 385.28C213.418 385.338 213.007 385.304 212.62 385.18C212.76 385.94 213.18 386.32 214.32 386.08C215.91 385.759 217.45 385.228 218.9 384.5C226.08 380.76 233.54 371.38 234.38 369.68C232.982 365.625 232.754 361.259 233.72 357.08Z" fill="#FFC7D6"/>
<path d="M182.38 29.42C187.567 28.2941 192.694 26.9057 197.74 25.26C199.115 24.8494 200.336 24.0384 201.248 22.9305C202.16 21.8226 202.721 20.4682 202.86 19.04C202.86 15.62 198.86 14.6 195.98 15.4C194.92 15.68 193.72 16.32 192.82 16.04C191.92 15.76 192.62 14.62 191.56 12.44C191.357 11.8335 190.996 11.2924 190.513 10.8729C190.031 10.4533 189.445 10.1707 188.816 10.0544C188.187 9.93799 187.539 9.99215 186.938 10.2112C186.337 10.4303 185.806 10.8062 185.4 11.3C182.62 14 181.78 19.5 180 26.66C179.4 28.84 180.2 30 182.38 29.42ZM183.38 24.46C187.38 8.3 190.36 12.84 188.94 18.7C188.5 20.52 190 21.66 191.54 20.44C193.215 19.0152 195.341 18.2289 197.54 18.22C198.28 18.22 199.24 17.96 199.54 18.92C200.24 21.12 196.48 22.7 194.16 23.22C183.36 25.6 182.98 26 183.38 24.46Z" fill="#FFC7D6"/>
<path d="M167.26 176.72C166.28 176.3 163.42 177.46 159.64 175.78C147.1 170.14 148.2 168.22 140.36 164.52C138.1 163.097 135.508 162.29 132.84 162.18C127.22 162.66 123.84 162.36 124.48 163.74C125.44 164.6 136.04 175.08 135.04 177.22L134.42 176.62C134.1 176.62 133.86 176.22 133.62 176C123.62 166.16 122.38 161.52 126.28 172.9C127.36 176.08 127.42 179.64 129.56 182.48C130.94 184.32 127.3 193.14 126.38 200.26C126.38 201.14 125.38 200.92 125.22 200.38C124.5 200.26 124.8 199.44 124.78 198.94C124.52 190.94 130.16 183.1 127.1 180.06C124.94 178 120.86 157.7 112.2 147.52C110.04 146.14 104.7 150.12 96.9599 151C99.8399 152.7 100.82 153.5 100.64 152.38C100.18 149.9 101.96 152.06 106.88 154.38C107.606 154.714 108.243 155.214 108.74 155.84C109.397 156.448 109.876 157.224 110.126 158.083C110.376 158.943 110.388 159.854 110.16 160.72C107.9 179.56 106.32 194.38 99.3999 212.72C97.6199 217.4 97.0399 213.44 97.8799 211.36C99.0799 208.42 96.9399 208.56 96.1799 208.04C91.8199 205.04 86.8399 203.16 82.1799 200.2C83.2399 205.46 84.3199 210.44 87.5399 214.64C98.4199 228.78 93.3999 230.26 116.24 212.64C118.24 211.08 118.96 213.32 119.54 215.6C119.581 215.773 119.567 215.954 119.501 216.118C119.434 216.283 119.319 216.423 119.17 216.519C119.021 216.616 118.846 216.664 118.669 216.657C118.492 216.65 118.321 216.588 118.18 216.48C115.94 214.7 118.82 214.88 104.48 224.62C105.28 224.98 105.78 225.58 106.48 225.92C108.32 226.82 117.68 229.08 122.48 234.3C126.7 238.3 125.14 241.18 127.5 242.88C129.32 244.16 133.5 244.28 135 242.66C152.2 224.06 145 231.4 175.7 193.52C175.828 193.389 175.9 193.213 175.9 193.03C175.9 192.847 175.828 192.671 175.7 192.54C173.48 188.34 169.7 178.52 167.26 176.72ZM150 187.8C147.42 199.813 142.322 211.143 135.04 221.04C128.94 228.92 125.9 226.4 127.66 225.2C139.06 217.78 144.92 196.98 147.88 188.16C149.7 182.82 150.76 184.92 150 187.8Z" fill="#A6EEF8"/>
<path d="M368.92 357.54C368.806 356.528 368.489 355.549 367.987 354.662C367.485 353.775 366.809 352.999 366 352.38C365.5 352.08 338.4 340.38 337.76 340.84C345.56 357.88 346.76 371.96 353.56 377.18C355.78 378.58 359.9 379.36 369.94 381.18C372.08 381.58 373.04 380.58 373.04 378.46C373.04 368.36 370.42 367.2 368.92 357.54Z" fill="#A6EEF8"/>
<path d="M248.82 89.82C247.328 86.8714 245.006 84.424 242.14 82.78C246.32 96.78 243.1 108.78 244.14 110.32C246.655 114.089 248.157 118.442 248.5 122.96C251.46 120.96 249.92 118.32 250.96 113.24C252.654 105.398 251.907 97.2252 248.82 89.82Z" fill="#A6EEF8"/>
<path d="M242.48 108.1C243.46 101.036 243.257 93.8577 241.88 86.86C241.5 85 241.54 82.58 239.88 81.56C235.941 79.0636 231.585 77.2954 227.02 76.34C230.228 81.3126 232.435 86.8628 233.52 92.68C234.44 97.48 230.62 91.62 242.48 108.1Z" fill="#A6EEF8"/>
<path d="M270.34 234C268.08 224.18 264.56 214.66 263.26 204.6C263.153 203.986 262.92 203.401 262.576 202.881C262.232 202.361 261.784 201.918 261.26 201.58C259.78 201.24 258.58 200.66 258.08 201.98C260.4 209.18 253.76 185.04 264.68 233.06C266.32 240.26 268.68 247.3 269.98 254.58C277.4 294.58 286.52 304.32 297.22 315.12C298.52 316.08 299.42 311.56 298.9 310.96C276.24 283.26 279.58 274 270.34 234Z" fill="#A6EEF8"/>
<path d="M271.36 55.02C274.32 56.04 274.96 55.86 275.88 52.88C282.66 30.88 282.84 30.08 281.88 26.1C282.4 24.1 281.2 24.1 267.36 17.18C267.098 17.012 266.801 16.9073 266.492 16.8742C266.183 16.8411 265.871 16.8804 265.58 16.9891C265.288 17.0978 265.027 17.2729 264.815 17.5004C264.603 17.728 264.447 18.0017 264.36 18.3C261.6 24.44 264.7 24.3 252.36 21.2C248 20 248.66 24 242.98 41.48C241.38 46.46 240 44.32 271.36 55.02ZM266.88 21.74C267.2 20.26 267.38 20.82 277.52 25.88C278.7 26.46 278.26 27.64 277.36 27.54C263.72 24 266 25.58 266.88 21.74ZM274.24 34C274.08 35.68 271.6 35 271.6 33.54C271.6 32.08 274.14 32.3 274.24 34ZM246 41.76C251.08 23.54 250.18 24.12 252 24.64L273.02 30.48C269.42 32.32 268.68 33.5 269.7 35.46C271.7 39.22 278.34 37.2 274.98 31.28C275.92 30.86 276.7 31.56 277.54 31.64C278.38 31.72 278.24 32.4 278.06 33.04C272.4 51.56 273.06 51.98 270.88 51.28C244.6 42.58 245.44 43.5 246 41.76Z" fill="#A6EEF8"/>
<path d="M225.7 63.84C225.961 64.2773 226.355 64.6194 226.824 64.8161C227.294 65.0128 227.814 65.0537 228.309 64.9329C228.804 64.812 229.246 64.5358 229.572 64.1447C229.898 63.7536 230.09 63.2683 230.12 62.76C231.38 56.2 230.4 57.68 239.5 57.56C242.64 57.56 243.92 54.06 240.3 52.66C233.92 50.24 232.94 50.32 233.56 48.52C234.18 46.72 232.78 44.34 229.9 45.68C227.34 46.88 226.56 47.56 224.06 46.44C217.88 43.68 216.94 43.52 215.84 44.84C213.72 47.36 219.42 50.42 216.5 51.62C214.508 52.6912 212.328 53.3702 210.08 53.62C208.8 53.62 207.6 53.84 207.6 55.4C207.6 56.96 208.84 57.5 210.18 57.52C224.72 58.16 219.62 54.96 225.7 63.84Z" fill="#A6EEF8"/>
<path d="M237.58 199.62C234.12 197.32 229.4 195.62 227.02 192.48C226.46 191.76 226.78 191.94 220.62 198.9C219.72 199.94 220.08 199.4 226.22 206.24C228.06 208.24 232.6 213.44 234.68 215.32C239.06 200.98 242.14 202.58 237.58 199.62Z" fill="#A6EEF8"/>
<path d="M351.44 322.76C363.62 348.22 358.86 348.42 362.92 348.76C363.56 348.76 364.06 348.98 363.8 347.82C360.46 332.66 353.58 322.04 349.66 313.82C348.966 312.085 348.178 310.389 347.3 308.74C344.96 311.38 343.66 306.44 351.44 322.76Z" fill="#A6EEF8"/>
<path d="M347.22 372.64C341 360.64 340.14 343.2 333.9 338.64C334.44 341.96 334.82 344.78 335.42 347.56C336.1 350.72 341.08 365.24 341.22 365.4C342.294 365.721 343.208 366.435 343.78 367.4C346.8 370.72 344.64 371.4 344.2 370.5C343.729 369.359 343.051 368.314 342.2 367.42C340.56 366.26 339.9 367.9 339.16 368.78C338.1 370.04 339.68 369.38 345.04 372.5C346.04 373.08 347.22 374.66 348.38 375.08C348.24 374.68 348.24 374.9 347.22 372.64Z" fill="#A6EEF8"/>
<path d="M339.3 364C334.38 349.26 334.2 353.54 332.06 337.7C331.9 336.4 330.9 335.44 330.06 335.46C328.58 335.46 329.14 336.98 329.22 337.94C330.04 346.26 333.12 360.96 337.22 367.66C338.48 367.72 339.7 365.28 339.3 364Z" fill="#A6EEF8"/>
<path d="M228.4 134.68C220.86 134.56 221.12 146.56 228.28 146.68C236 146.78 234.72 134.78 228.4 134.68Z" fill="#A6EEF8"/>
<path d="M179.78 126.44C176.22 123.76 170.88 127.88 172.96 134.58C173.141 135.207 173.462 135.785 173.898 136.27C174.335 136.755 174.875 137.135 175.48 137.382C176.084 137.628 176.736 137.734 177.388 137.692C178.039 137.651 178.672 137.462 179.24 137.14C183.66 134.94 184 129.54 179.78 126.44Z" fill="#A6EEF8"/>
<path d="M311.52 320.98C310.76 320.06 311.06 320.42 310.16 321.7C308.42 324.18 309.8 325.24 310.5 326.36C315 331.36 313.72 339.12 314.5 340.36C315.96 341.38 318.5 338.56 318.28 337.02C317.69 331.115 315.334 325.526 311.52 320.98Z" fill="#A6EEF8"/>
<path d="M291.16 374.16C291.182 374.859 291.431 375.531 291.869 376.076C292.307 376.62 292.91 377.008 293.588 377.179C294.265 377.351 294.98 377.298 295.624 377.027C296.269 376.757 296.808 376.284 297.16 375.68C295.16 373.96 293.16 372.2 291.16 370.44C291.09 371.679 291.09 372.921 291.16 374.16Z" fill="#A6EEF8"/>
<path d="M292.66 364.28C290.94 365 291.08 366.62 291.08 368.5C292.82 370.14 291.08 368.66 297.6 374.26C298.76 367.16 294.88 363.38 292.66 364.28Z" fill="#A6EEF8"/>
<path d="M291.46 346.76C291.477 345.839 291.136 344.948 290.51 344.273C289.883 343.598 289.02 343.192 288.1 343.14C287.274 343.168 286.488 343.504 285.896 344.081C285.305 344.658 284.949 345.435 284.9 346.26C284.839 348.595 285.081 350.928 285.62 353.2C285.738 353.888 286.119 354.502 286.683 354.913C287.247 355.324 287.949 355.499 288.64 355.4C292.32 355.04 291.48 350.74 291.46 346.76Z" fill="#A6EEF8"/>
<path d="M343.52 337.38C346.14 336.78 345 333.38 344.8 330.34C344.26 328.74 343.84 328.18 344.62 327.86C344.621 327.311 344.54 326.765 344.38 326.24C343.52 328.24 342.52 330.52 343.28 331.92C344.58 334.44 339.9 333.4 341.28 328.8C341.732 327.334 342.307 325.909 343 324.54C338.72 322.88 338.66 331.22 339.62 335.38C339.948 336.105 340.512 336.698 341.221 337.061C341.929 337.424 342.74 337.537 343.52 337.38Z" fill="#A6EEF8"/>
<path d="M252.68 331.58C251.92 327.58 246.92 327.9 246.42 330.56C245.42 335.68 247.92 342.38 251.14 339.42C251.831 338.717 252.339 337.855 252.618 336.91C252.897 335.965 252.939 334.965 252.74 334C252.787 333.193 252.767 332.384 252.68 331.58Z" fill="#A6EEF8"/>
<path d="M258.34 326.18C260.68 326.82 263.02 327.5 265.32 328.18C265.185 327.244 264.998 326.315 264.76 325.4C264.609 324.59 264.156 323.867 263.491 323.38C262.827 322.892 262.002 322.676 261.184 322.776C260.366 322.875 259.616 323.282 259.088 323.915C258.56 324.547 258.292 325.357 258.34 326.18Z" fill="#A6EEF8"/>
<path d="M265.26 330C263 329.3 260.72 328.6 258.44 328C259.42 335.44 264.78 334.1 265.26 330Z" fill="#A6EEF8"/>
<path d="M308.18 365.48C309.46 365.06 310.04 363.96 310.18 362.22C309.46 360.38 308.78 358.22 307.74 356.08C307.398 355.548 306.888 355.145 306.29 354.936C305.693 354.726 305.043 354.723 304.444 354.925C303.844 355.127 303.329 355.524 302.981 356.052C302.632 356.58 302.47 357.209 302.52 357.84C303.02 361.64 304.54 366.72 308.18 365.48Z" fill="#A6EEF8"/>
<path d="M289.52 324.94C288.938 324.675 288.399 324.324 287.92 323.9C287.316 323.967 286.739 324.185 286.243 324.535C285.746 324.885 285.346 325.354 285.08 325.9L291.08 330.82C291.24 328.74 290.69 326.667 289.52 324.94Z" fill="#A6EEF8"/>
<path d="M290.88 331.82C288.432 330.67 286.319 328.915 284.74 326.72C284.465 327.675 284.404 328.679 284.56 329.66C284.481 330.371 284.481 331.089 284.56 331.8C284.557 332.638 284.888 333.443 285.478 334.037C286.069 334.632 286.872 334.967 287.71 334.97C288.548 334.973 289.353 334.642 289.947 334.052C290.542 333.461 290.877 332.658 290.88 331.82Z" fill="#A6EEF8"/>
<path d="M329.5 328.42C330.303 328.285 331.031 327.865 331.549 327.237C332.067 326.608 332.341 325.814 332.32 325C332.08 320.44 331.74 316.86 328.7 317.22C325.66 317.58 326.22 320.04 326.22 322.46C326.22 323.38 326.22 324.28 326.22 325.18C326.269 326.03 326.631 326.832 327.237 327.431C327.843 328.029 328.649 328.382 329.5 328.42Z" fill="#A6EEF8"/>
<path d="M306.48 379.02C306.08 379.068 305.702 379.229 305.391 379.484C305.079 379.739 304.846 380.078 304.72 380.46C305.4 381.08 306.92 382.02 306.1 382.86C305.28 383.7 304.9 382.86 304.4 382.34C304.29 383.678 304.371 385.025 304.64 386.34C306.603 386.942 308.609 387.396 310.64 387.7C310.74 387.4 310.82 387.06 310.9 386.72C310.26 383.6 309.64 378.62 306.48 379.02Z" fill="#A6EEF8"/>
<path d="M247.36 321.52C246.8 318.14 246.86 314.9 243.48 315.36C240.1 315.82 241.02 320.18 242.06 323.78C242.72 326.18 247.28 326.42 247.36 321.52Z" fill="#A6EEF8"/>
<path d="M317.8 326.5C318.328 329.786 319.549 332.921 321.38 335.7C326.12 339.48 325.76 339.46 326.24 336.52C326.78 333 328.32 335.58 317.8 326.5Z" fill="#A6EEF8"/>
<path d="M306.92 329.02C306.789 328.407 306.431 327.867 305.918 327.507C305.405 327.147 304.774 326.995 304.154 327.082C303.533 327.168 302.968 327.486 302.572 327.971C302.176 328.457 301.979 329.075 302.02 329.7C301.977 330.696 302.024 331.693 302.16 332.68C303.82 332.84 305.5 333.06 307.14 333.36C307.638 331.94 307.559 330.382 306.92 329.02Z" fill="#A6EEF8"/>
<path d="M258 44.84C260.319 44.8351 262.543 43.9214 264.196 42.2948C265.849 40.6682 266.798 38.4585 266.84 36.14C266.746 34.0162 265.826 32.0132 264.275 30.5594C262.724 29.1055 260.665 28.3161 258.54 28.36C248 28.48 246.6 44.84 258 44.84ZM259.26 31.6C260.499 31.7257 261.645 32.3147 262.468 33.2493C263.292 34.1839 263.731 35.3949 263.7 36.64C263.642 38.1388 263.024 39.5615 261.969 40.6276C260.914 41.6938 259.498 42.3261 258 42.4C256.751 42.3593 255.565 41.8408 254.687 40.9514C253.808 40.062 253.305 38.8696 253.28 37.62C253.339 36.0424 253.993 34.5454 255.109 33.4291C256.225 32.3127 257.722 31.6594 259.3 31.6H259.26Z" fill="#A6EEF8"/>
<path d="M371.04 354.7C370.981 354.174 370.803 353.667 370.518 353.22C370.234 352.773 369.852 352.397 369.4 352.12C365.92 350.76 366.4 348.12 364.62 342.22C359.34 324.4 347.88 308.22 348.94 307.02C351.36 304.06 351.64 300.04 353.78 297.02C354.082 296.441 354.272 295.81 354.34 295.16C358.16 276.22 348.34 274.54 353.38 254C357.58 236.84 359.84 218.84 343.48 210.74C331.8 204.94 329.48 205.68 331.7 203.44C341.46 193.18 342.08 192.12 338.7 187.9C337.22 186.38 335.64 186.82 333.84 187.58C329.06 189.58 328.7 192.54 324.1 190.66C319.5 188.78 317.46 185.68 320.54 179.5C323.92 172.7 310.66 175.24 312.44 162.72C314.22 150.2 334.32 132.14 332 130.4C331.02 129.68 330.86 131.86 322.4 141.32C320.86 143.06 320.86 143.04 319.56 141.02C316.4 136.04 315.56 129.88 315.12 123.6C320.94 125.76 329.8 128.32 335.26 127.6C335.74 127.6 336.44 127.6 336.36 126.82C336.28 126.04 335.66 126.38 335.26 126.38C320.56 126.38 301.54 116.38 295.44 108.16C289.92 100.68 293.44 113.5 313.04 122.7C313.64 122.98 314.36 122.96 314.22 124.06C313.54 129.86 315.12 139.12 320 143.5C320.92 144.32 312.68 151.66 310.68 161.2C308.12 173.2 318.82 175.2 319.4 176.92C319.72 177.86 318.5 179.16 317.64 181.98C317.29 182.924 317.136 183.929 317.187 184.934C317.238 185.94 317.493 186.924 317.936 187.828C318.379 188.731 319.002 189.535 319.766 190.191C320.53 190.846 321.419 191.339 322.38 191.64C323.901 192.107 325.472 192.396 327.06 192.5C323.44 196.629 320.355 201.198 317.88 206.1C313.24 192.22 317.28 179.04 309.02 180.24C306.88 180.56 306.5 182.1 306.28 183.9C305.68 188.74 305.86 187.9 307.1 207.56C299.58 207.36 292.66 208.88 293.36 216.84C294.06 224.8 299.2 229.54 295.36 229.74C291.84 229.92 280.44 231.12 280.14 227.96C279.263 218.192 279.397 208.36 280.54 198.62C280.588 198.301 280.722 198.001 280.926 197.751C281.13 197.501 281.397 197.311 281.7 197.2C282.4 196.78 282.5 197.62 282.84 197.9C283.78 198.68 284.3 199.68 285 199.26C285.7 198.84 283.64 195.02 282.64 193.14C279.52 187.26 276.08 187.92 267.82 184.46C264.81 183.42 262.074 181.71 259.82 179.46C253.1 172.02 250.9 163.7 255.14 154.2C257.7 148.5 254.34 149.2 256.46 136.92C256.46 136.56 257.1 135.08 256.1 135.08C254.44 134.7 253.62 142.3 253.56 144.14C252.58 143.62 252.48 142.7 252.26 141.96C249.9 134.58 251.88 127.78 255.16 121.2C255.415 120.517 255.875 119.93 256.476 119.519C257.078 119.107 257.791 118.891 258.52 118.9C258.84 118.9 259.28 118.78 259.04 118.38C258.5 117.44 259.32 116.9 259.64 116.38C271.22 94.8 308.24 86.96 324.94 101.3C330.008 105.401 334.296 110.38 337.6 116C333.92 113.64 332.9 111.4 332.26 112C332.139 112.16 332.086 112.36 332.112 112.559C332.138 112.757 332.242 112.937 332.4 113.06C333.44 114.1 335.36 116.08 337.2 117.58C337.419 117.755 337.687 117.859 337.966 117.879C338.246 117.898 338.525 117.831 338.767 117.688C339.008 117.545 339.199 117.331 339.316 117.076C339.433 116.821 339.469 116.536 339.42 116.26C339.254 114.976 338.818 113.742 338.14 112.64C326.7 95.22 312.7 90.76 293.08 93.2C279.78 94.88 261.64 104.22 257.58 117.04C257.16 118.34 254.8 117.38 252.38 122.44C249.32 128.86 247.16 139.28 252.14 144.8C256.76 149.9 251.3 153.1 251.6 163.9C251.98 178.12 260.58 185.3 274.14 189.12C276.716 189.858 278.921 191.535 280.32 193.82C281.46 195.54 281.02 196.12 279.38 196.84C259.16 205.54 251.08 190.4 242.04 200.6C240.86 201.94 242.04 199.24 235.5 195.9C227.26 191.78 227.1 185.48 216.68 184.84C216.26 184.84 215.74 184.84 215.68 184.22C216.066 182.367 217.033 180.686 218.44 179.42C241.7 167.42 239.1 146 244.9 139.42C246.339 137.792 247.436 135.89 248.123 133.828C248.81 131.766 249.074 129.586 248.9 127.42C248.821 126.891 248.879 126.35 249.068 125.85C249.257 125.349 249.571 124.905 249.98 124.56C251.1 123.702 251.926 122.519 252.345 121.172C252.764 119.825 252.755 118.382 252.32 117.04C251.7 115.04 254.04 108.16 252.48 95.14C252.236 92.0467 251.214 89.0655 249.507 86.4741C247.8 83.8828 245.465 81.7656 242.72 80.32C238.279 77.7536 233.479 75.866 228.48 74.72C222.48 73.5 224.62 72.02 218.98 69.8C206.86 65.02 185.54 66.32 183.26 78.04C180.98 78.24 181 76.92 180.28 70.64C180.1 69.08 179 69.32 178.52 70.04C173.64 77.48 174.1 86.74 173.9 86.64C170.7 84 169.12 78 167.14 82.2C165.52 85.68 166.02 91.32 166.84 94.74C164.772 92.9329 163.33 90.5174 162.72 87.84C162.56 87.26 162.84 86.36 161.9 86.34C160.96 86.32 160.92 87.32 160.82 87.94C160.167 91.3865 159.892 94.8939 160 98.4C160.197 101.388 161.283 104.249 163.119 106.615C164.954 108.982 167.455 110.745 170.3 111.68C171.52 112 172.8 112.1 174.3 112.34C172.01 116.704 170.372 121.38 169.44 126.22C166.14 124 164.6 124.22 162.08 127.3C159.56 130.38 159.84 133.46 160.08 136.76C160.119 138.852 160.704 140.898 161.777 142.694C162.851 144.491 164.376 145.975 166.2 147C169.14 148.6 163.52 157.9 177.44 169.96C181.936 173.483 186.674 176.684 191.62 179.54C200.28 185.1 205.8 183.12 215.22 181.02C214.08 183.82 209.82 193.14 211.08 193.64C211.92 193.98 212.2 192.96 212.46 192.36C214.98 186.54 214.64 185.88 215.5 186.14C217.652 186.557 219.747 187.228 221.74 188.14C215.08 189 206.42 214.14 193.04 201.7C185.2 194.071 179.498 184.52 176.5 174C176.28 173.22 175.88 171.86 174.7 171.72C173.63 171.536 172.535 171.567 171.477 171.811C170.42 172.055 169.421 172.507 168.54 173.14C163.28 177.14 154.1 172.06 148.92 167.98C141.12 161.84 136 158.54 128.1 159.98C125.8 160.42 123.64 160.74 123.14 163.98C121.14 158.62 115.96 143.54 110.02 145.56C88.02 153.04 95.66 148.86 68.88 133.56C68.56 133.38 68.16 133.24 68.18 132.74C69.3981 131.259 71.1229 130.282 73.02 130C98.28 138.22 99.7 138.48 101.66 131.32C103.22 125.64 126.42 32.18 126.34 23.1C126.34 20.2 124.52 17.36 122.34 17.1C117.34 16.3 112.34 15.3 107.34 14.82C74 11.58 70.12 9.32 67.82 15.84C65.38 22.72 67.82 20 57.92 53.64C55.92 60.7 54.96 53.92 31.7 75.28C26.38 80.18 23.38 85.62 24.32 93.28C27.28 116.78 30.16 118.56 27.86 124.5C27.4211 125.514 27.2601 126.626 27.3937 127.723C27.5273 128.82 27.9505 129.861 28.62 130.74C51.28 163.02 56.74 178.34 77.56 196.16C83.42 201.2 79.56 207.78 85.56 214.62C93.7 223.8 92.32 229.24 99.08 228.32C101.297 227.804 103.592 227.723 105.84 228.08C111.354 229.421 116.5 231.976 120.9 235.56C125.04 239.16 124.46 239.98 124.52 243.74C124.96 275.74 120.66 276.62 119.52 297.92C118.3 320.86 124.02 326.96 123.1 331.34C122.28 335.22 127.74 337.84 126.94 339.22C124.78 342.94 124.28 347.22 123.38 351.22C121.2 360.9 126.68 357.36 125.84 364.92C125.6 366.92 125.48 376.34 127.84 375.68C128.8 375.42 128.22 374.5 128.16 373.86C127.686 370.254 127.512 366.615 127.64 362.98C133.197 364.751 138.521 367.182 143.5 370.22C156.3 379.14 171.34 371.56 176.68 370.22C188.68 367.48 200.52 364.56 212.3 360.76C211.74 364.48 209.84 383.74 212.8 385.04C213.195 385.129 213.605 385.129 214 385.04C212.28 379.46 213.32 368.7 213.64 362.74C213.64 361.42 213.42 359.88 214.58 358.74C214.736 358.567 214.822 358.343 214.822 358.11C214.822 357.877 214.736 357.653 214.58 357.48C211.92 354.8 220.82 302.7 228.8 281.74C233.34 269.74 231.32 271.74 231.82 261.96C233.26 234.74 233.58 228.56 235.42 221.72C241.12 200.54 244.94 196.4 255.92 199.88C256.54 200.06 256.34 199.88 257.14 204.28C259.62 217.66 260.06 210.98 257.14 218.66C255.48 223.16 255.78 223.98 254.82 226.16C252.22 232.16 227.9 242.64 238.82 261.44C250.56 281.8 246.82 271.28 247.24 283.74C247.36 288.44 245.6 292.98 246 297.74C246 298.6 243.02 300.52 242.26 302.3C239.378 308.669 237.16 315.317 235.64 322.14C234.48 327.92 242.64 326.68 240.6 328.78C238.874 330.172 237.503 331.954 236.6 333.98C236.21 334.701 236.116 335.546 236.341 336.334C236.565 337.123 237.089 337.792 237.8 338.2C238.5 338.72 239.8 338.9 239.32 340.38C239.02 341.34 239.54 342.38 239 343.4C237.008 347.546 235.355 351.847 234.06 356.26C232.854 360.65 233.05 365.307 234.62 369.58C236.62 366.18 234 363.32 235.74 357.78C242.02 337.78 237.56 348.08 247.1 345.14C241.1 362.8 241.74 385.14 244.3 384.76C245.06 384.76 244.8 383.56 244.8 382.88C244.94 375.76 242.8 372.12 246.1 370.64C252.979 367.356 259.143 362.748 264.24 357.08C264.92 356.32 267.54 353.66 268.66 352.22C271.962 354.037 275.671 354.987 279.44 354.98C280.44 354.98 280.44 355.66 280.52 356.22C280.715 358.391 281.411 360.487 282.553 362.343C283.694 364.2 285.251 365.766 287.1 366.92C289.92 368.74 284.8 376.32 286.48 379.76C286.531 379.86 286.614 379.94 286.715 379.987C286.817 380.034 286.931 380.046 287.04 380.02C287.153 379.993 287.254 379.929 287.326 379.839C287.399 379.748 287.439 379.636 287.44 379.52C287.44 375.78 289.64 372.62 289.3 368.66C306.26 382.66 305.06 383.92 306.22 382.66C307.38 381.4 303.28 379.9 291.22 368.28C288.26 365.44 283.22 364.28 282.26 358.42C281.16 351.74 282.26 345.1 282.84 338.42C282.84 337.74 282.84 336.72 283.9 336.54C285.36 336.3 286.6 342.94 291.46 338.44C293.18 336.86 295.34 335.32 296.98 336.98C305.54 345.76 309.56 348.98 312.98 355.98C315.963 361.359 318.261 367.09 319.82 373.04C319.96 373.72 320.34 373.88 320.94 373.5C321.6 372.18 319.48 370.88 326.26 366.64C329.1 364.64 329.24 363.96 327.06 361.24C324.62 358.18 323.06 354.62 320.48 351.42C323.527 351.116 326.435 349.997 328.9 348.18C334.62 364.48 335.76 370.64 339.6 371.98C343.44 373.32 346.72 377.28 351.34 377.68C353.354 378.986 355.602 379.889 357.96 380.34C370.26 382.64 369.64 384.06 373.48 383.24C374.169 383.147 374.8 382.805 375.253 382.277C375.707 381.75 375.951 381.075 375.94 380.38C376 368.68 373.72 367.08 371.04 354.7ZM248.82 89.82C251.85 97.2422 252.548 105.411 250.82 113.24C249.6 119.46 251.54 119.24 248.4 123.58C248.171 118.841 246.649 114.256 244 110.32C243 108.8 246.22 96.72 242 82.78C244.914 84.4081 247.285 86.856 248.82 89.82ZM240 81.56C241.6 82.6 241.56 85 242 86.86C243.384 93.8565 243.593 101.035 242.62 108.1C230.74 91.66 234.62 97.3 233.7 92.68C232.632 86.8423 230.416 81.2747 227.18 76.3C231.717 77.3246 236.051 79.1026 240 81.56ZM186.36 75.46C192.36 67.86 205.74 67.34 215.54 70.66C224.86 73.82 229.42 83.74 231.38 93.42C228.213 91.1346 224.556 89.621 220.7 89C192.7 85.98 193.38 90.88 191.1 88.46C189.34 86.62 187.54 84.86 185.88 82.94C185.175 81.7971 184.843 80.4635 184.929 79.1236C185.015 77.7836 185.515 76.5034 186.36 75.46ZM166.82 126.92C171.02 129.46 166.58 131.22 166.82 146C157.54 138.1 163.24 124.76 166.82 126.92ZM200.82 180.92C198.763 180.576 196.805 179.792 195.08 178.62C185.08 173.2 177.68 169.06 171.34 161.32C165 153.58 171.06 126.24 173.62 116.52C174.04 114.96 175.4 113.72 175 111.82C174.76 110.58 173.64 111.32 170.2 110.12C167.674 109.068 165.505 107.311 163.951 105.059C162.398 102.807 161.526 100.155 161.44 97.42C161.411 95.4037 161.612 93.3906 162.04 91.42C163.14 93.42 166.34 98.6 168.34 97.54C170.34 96.48 167.2 92.68 167.66 86.68C167.757 85.3802 168.061 84.1043 168.56 82.9C171 85.86 172.56 89.68 177.3 89.94C174.92 88.88 175.3 86.84 175.48 84.98C175.831 80.7299 176.999 76.5874 178.92 72.78C179.96 77.74 179.72 78.08 182.3 81.24C186.3 86.26 189.84 94.48 201.88 95.24C203.689 95.6539 205.574 95.6058 207.36 95.1C203.12 93.1 198.24 93.36 193.9 90.82C197.7 89.44 214.32 89.78 220.82 91.02C230.98 93.02 231.32 98.2 241.16 110.52C245.28 116.095 247.312 122.94 246.9 129.86C246.588 132.826 245.596 135.68 244 138.2C244.86 134.2 243.42 130.44 243.84 126.6C243.84 126.04 243.84 125.26 243.08 125.32C242.32 125.38 242.72 126.16 242.64 126.6C241.58 133.2 245.46 129.22 236.94 155.14C235.941 158.273 234.759 161.345 233.4 164.34C226.3 171.44 218.6 182.14 200.86 180.94L200.82 180.92ZM170.14 174.92C170.66 174.72 173.82 172.14 174.88 175.7C178.12 186.48 187.04 203.38 196.38 206.42C205.72 209.46 212.38 200.24 221.46 189.32C222.7 187.84 223.2 188.78 225.9 191.32C217.9 197.92 201.48 225.78 187.9 209.06C177.64 196.5 174.62 185.28 171.9 180.68C169.62 176.8 167.54 176 170.18 175L170.14 174.92ZM59.7 54.86C72.84 15.06 66 12.96 76.54 13.56C91.5542 14.5706 106.503 16.3933 121.32 19.02C125.74 19.78 124.24 27.02 123.32 31.38C116.52 66.74 114.46 62.36 106.56 100.42C104.56 110.14 102.18 119.78 99.66 129.4C98.66 133.4 96.84 134.28 92.86 133.26C76 128.88 72.48 128.44 71.3 127.04C67.3 122.4 67.02 117.18 62.62 115.04C53.9 111.04 55.34 111.64 56.18 111.68C66.02 112.26 69.86 117.12 81.24 118.16C84 118.4 84.42 116.56 85.24 114.72C87.66 108.48 87.64 107.98 81.86 104.4C66.78 95.08 65.38 94.62 62.64 94.66C62.44 94.66 51.52 94.82 51.72 94.66C58.98 87.7 58.12 88.5 89.3 85.64C91.5025 85.5016 93.6693 85.0156 95.72 84.2C96.1985 84.0836 96.6478 83.8697 97.0399 83.5717C97.432 83.2737 97.7583 82.898 97.9986 82.4682C98.2389 82.0383 98.3879 81.5635 98.4363 81.0734C98.4847 80.5834 98.4315 80.0886 98.28 79.62C96.76 71.08 94.28 69.62 86.66 69.62C71.56 69.48 66.36 71.18 63.46 70.74C71.04 65.18 76.7 70.5 84.88 68.3C86.76 67.8 89.1 67.58 89.88 65.68C91 62.98 92.6 57.5 90.16 55.86C83.6344 52.2462 76.0749 50.9557 68.72 52.2C65.583 53.1021 62.5205 54.2455 59.56 55.62C59.52 55.4 59.62 55.14 59.7 54.86ZM51.22 160.58C41.84 145.02 44.7 151.56 30.02 129.08C29.6323 128.559 29.3815 127.949 29.2907 127.306C29.1998 126.663 29.2718 126.008 29.5 125.4C32.32 117.64 27.5 113.9 26.04 90.86C25.9812 88.8351 26.3278 86.8189 27.0594 84.9299C27.791 83.0409 28.8927 81.3171 30.3 79.86C43.26 64.92 56.84 59.3 62.74 55.86C70.3 51.36 79.94 53.64 88.22 56.78C88.8563 56.9353 89.4249 57.2933 89.84 57.8C91.1 59.8 89 65.52 86.74 66.24C77.82 69.06 68.74 63.38 60.08 71.1C59.3312 71.7366 58.3828 72.0905 57.4 72.1C53.983 72.4878 50.6253 73.2869 47.4 74.48C46.8 74.64 46.18 74.86 46.36 75.62C46.74 77.44 50.24 73.92 66.36 72.66C73.7968 71.9335 81.2686 71.6263 88.74 71.74C89.8946 71.8135 91.021 72.1287 92.046 72.6652C93.0711 73.2018 93.972 73.9477 94.6904 74.8546C95.4087 75.7615 95.9286 76.8093 96.2162 77.9299C96.5038 79.0506 96.5528 80.2192 96.36 81.36C95.94 83.64 88.92 84.34 85.7 84.68C69.92 86.3 58.58 84.9 54.4 89.98C50.62 94.6 45.94 95.18 46.4 96.48C46.58 97.06 47.16 97.12 47.7 97.06C52.42 96.46 57.18 97.06 61.92 96.44C63.8067 96.2301 65.7065 96.698 67.28 97.76C88.56 110.98 85.78 106.4 83.08 114.96C82.34 117.32 82.14 117.44 79.64 116.96C68.66 114.72 71.64 112.62 53.64 109.28C52.44 109.06 51.44 110.06 50.22 109.7C49.96 109.7 49.8 109.96 49.8 110.22C49.8 110.82 50.28 110.92 50.66 111.14C59.82 116.48 63.76 115.3 65.48 120.38C67.86 127.42 72.2 128.62 68.8 130.14C66.3 131.24 65.4 134.58 62.8 131.56C56 123.8 56 123.32 54.36 124.62C52.4361 125.463 50.4234 126.087 48.36 126.48C45.5 127.38 44.8 128.64 48.64 128.24C51.06 127.96 53.22 126.76 54.82 126.66C55.5 126.66 55.94 126.42 56.42 127.04C58 129.04 62.6 134.8 65.16 134.32C67.72 133.84 78.98 144.32 90.2 150.32C110.2 161.12 108.2 159.62 107.82 163.44C105.54 182.4 103.94 193.44 99.32 208.34C94.5 203.32 90.24 204.72 83.48 198.74C70.837 187.746 59.9569 174.876 51.22 160.58ZM120.92 232.96C113.86 227.68 108.32 227.72 105.46 225.52C104.6 224.86 104.16 226.44 103.3 225.52C112.56 219.52 116.48 215.24 117.3 215.7C117.68 215.9 118.08 216.72 118.84 217.36C118.961 217.463 119.114 217.522 119.272 217.529C119.431 217.537 119.588 217.491 119.718 217.4C119.849 217.308 119.945 217.176 119.992 217.024C120.04 216.872 120.035 216.709 119.98 216.56C119.7 215.78 119.38 215 119.26 214.56C118.76 212.9 118.14 211.9 116.56 213.12C100.34 225.54 98.1 228.8 94.36 223.92C85.02 211.7 84.36 210.96 82.18 200.26C86.82 203.24 91.8 205.12 96.18 208.12C96.6486 208.376 97.1452 208.578 97.66 208.72C98.6 209.04 98.88 209.54 98.84 210.14C98.84 211.18 97.86 212.56 97.84 213.88C97.8421 213.995 97.8797 214.107 97.9477 214.2C98.0158 214.293 98.1108 214.363 98.22 214.4C98.3325 214.43 98.4517 214.423 98.5598 214.38C98.668 214.336 98.7592 214.259 98.82 214.16C101.46 209.68 106.5 190.16 108.38 175.08C109.3 167.8 110.06 163.5 110.2 160.74C110.32 158.44 110.56 156.74 109.56 155.6C107.526 154.02 105.319 152.678 102.98 151.6C101.78 150.92 101.1 152 102.28 152.8C104.292 153.916 106.205 155.2 108 156.64C108.56 157.34 108.16 158.12 108 159.08C104.17 155.96 100.005 153.276 95.58 151.08C103.26 150.38 110.14 146.12 112.32 147.52C118.58 151.52 126.6 179.24 127.14 179.96C130.9 183.72 125.48 189.46 125.24 198.78C125.191 199.312 125.191 199.848 125.24 200.38C125.42 200.9 126.28 201.14 126.4 200.26C127.46 192.68 130.98 184.26 129.58 182.46C127.42 179.64 127.4 176.08 126.3 172.88C124.52 167.7 123.98 166.22 124.3 166.18C124.62 166.14 127.26 169.74 134.3 176.38C134.394 176.462 134.515 176.507 134.64 176.507C134.765 176.507 134.886 176.462 134.98 176.38C135.081 176.307 135.153 176.201 135.183 176.08C135.212 175.959 135.197 175.831 135.14 175.72C134.941 175.392 134.721 175.078 134.48 174.78C134.1 174.24 132.14 171.7 130.3 169.7C122.7 161.44 121.78 163.04 132.94 162.12C136.94 161.78 145.1 166.84 147.94 169.02C151.597 171.703 155.558 173.945 159.74 175.7C161.85 176.606 164.172 176.897 166.44 176.54C169.34 176.18 172.96 186.76 176.32 192.88C176.52 193.26 176.54 193.48 176.16 193.96C147.54 229.58 149.44 228.5 135.14 243.44C134.06 244.56 128.38 244.78 126.8 242.02C125.48 240 126.18 236.9 120.92 232.96ZM234.34 218.36C230.54 233.86 229.04 263.48 229.76 268.36C230.48 273.24 228.04 278.02 226.08 283.34C219.36 301.62 217.78 317.84 216.08 323.72C212.62 336 212.72 350.58 211.92 354.6C211.56 356.44 213.32 356.94 211.1 358.6C207.76 361.08 172.6 371.1 158.08 371.96C147.02 372.62 145.22 366.1 128.58 361.96C127.372 361.392 126.352 360.489 125.643 359.358C124.933 358.226 124.565 356.915 124.58 355.58C125.273 350.709 126.268 345.887 127.56 341.14C128.04 339.3 127.56 338.86 140.52 353.62C141.7 354.96 142.24 355.78 143.08 355.1C145.08 353.58 130.94 339.84 126.02 334.08C125.158 333.203 124.615 332.062 124.48 330.84C124.18 326.5 122.36 322.46 121.86 318.14C118.6 289.64 126.62 284.24 126.62 243.78C128.118 245.097 130.076 245.767 132.066 245.643C134.057 245.519 135.917 244.612 137.24 243.12C147.82 232.02 171.02 203.32 176.88 194.82C182.3 202.62 190.76 223.5 205.96 212.62C217.82 204.14 218.26 198.92 220.18 201.22C235.24 219.26 234.9 216 234.34 218.36ZM239.14 205.18C233.7 216.08 236.26 216.9 234 214.62C230.38 210.98 226 206.12 220.56 200.1C219.82 199.3 219.98 199.68 226 192.72C226.44 192.2 226.76 191.94 227.2 192.52C229.8 195.9 234.08 197.32 237.58 199.62C241.08 201.92 240.8 201.84 239.14 205.18ZM364.34 349.18C361.4 349.18 361.12 349 360.34 346.06C357.36 333.52 346.84 313.36 345.68 311.28C344.52 309.2 346.78 309.54 347.36 308.58C353.6 322 361.82 334.44 364.34 349.18ZM348.34 303.88C342.12 315.6 326.34 311.66 322.34 305.7C320.16 302.42 315.82 291.7 314.74 279.7C313.6 266.78 311.9 267.7 313.94 267.3C318.54 266.22 321.04 268.42 323.72 269.3C332.06 272.22 330.94 264.38 333.1 260.84C336 256.06 336.16 274.56 344.62 283.32C348.86 287.7 348.5 292.4 349.32 299.14C349.515 300.775 349.201 302.43 348.42 303.88H348.34ZM334.34 208.64C337.408 209.874 340.4 211.29 343.3 212.88C363.56 223.12 350.74 252.16 349.68 260.44C347.54 277.2 355.4 278.44 351.68 295.72C351.68 296.02 351.26 297.06 351.2 297.24C349.66 295.24 352.2 288.66 346.5 283.02C339.62 276.24 339.46 268.02 335.78 260.64C334.76 258.64 336.4 259.06 339.18 257.54C342.92 255.54 343.72 252.28 341.18 248.8C338.92 245.66 345.98 243.16 338.86 240.16C333.84 238.04 334.34 243.82 336.02 227.7C336.28 225.14 342.22 218.12 333.7 216.18C332.817 215.967 331.889 216.022 331.038 216.339C330.186 216.656 329.449 217.221 328.92 217.96C326.572 220.251 324.679 222.965 323.34 225.96C319.1 235.04 311.6 223.6 323.34 215.36C324.333 214.497 325.604 214.023 326.92 214.023C328.235 214.023 329.507 214.497 330.5 215.36C331.14 213.24 330.16 212.56 325.6 211.96C325.6 211.96 325.6 211.82 325.6 211.78C326.7 210.1 327.4 207.78 328.94 206.84C330.48 205.9 332.76 208 334.52 208.64H334.34ZM326.44 233.3C320.88 229.82 328.82 222.86 330.92 219.14C331.96 217.32 333.48 217.64 334.8 217.9C336.96 218.36 336.92 221.9 336.1 223.08C335.28 224.26 328.76 234.64 326.62 233.3H326.44ZM300.74 209.3C303.7 208.6 306.74 208.06 309.6 209.78C316.88 214.14 297.44 216 303.34 217.78C310.98 219.96 309.54 228.42 310.54 228.46C311.2 228.46 311.18 227.64 311.28 227.08C311.625 225.095 311.324 223.052 310.42 221.252C309.516 219.451 308.058 217.989 306.26 217.08C307.669 216.49 309.045 215.822 310.38 215.08C313.62 213.08 313.68 210.28 310.28 208.86C307.96 207.9 307.9 206.58 308.28 204.68C309.14 199.66 307.24 197.72 307.84 185.02C307.84 183.94 307.4 182.2 309.48 182.1C312.82 181.92 312.34 183.96 314 197.9C314.26 199.9 315.32 208.12 317.38 208.48C319.44 208.84 321.72 201.22 327.02 195.2C329.3 192.6 335.46 186.96 337.6 189.7C338.42 190.78 338.84 191.7 338.02 192.88C337.42 193.66 336.16 195.26 335.56 195.9C321.92 210.48 325.82 210.36 321.84 213.9C311.72 222.92 315.18 232.48 322.44 229.9C322.481 230.225 322.548 230.546 322.64 230.86C326.38 239.88 330.5 232.68 333.88 229.82C333 245.96 328.1 243.82 329.4 245.46C329.92 246.12 331.4 244.96 331.8 244.66C334.22 242.66 333.5 239.64 336.2 241.02C336.48 241.16 336.82 241.22 337.12 241.34C341.12 242.68 341.12 242.68 339.36 246.32C338.12 248.94 344.98 253.6 337.12 256.32C326.42 260.18 332.82 270.02 324.5 267.42C320.5 266.14 319.16 264.74 315.4 265.98C314.631 266.321 313.798 266.491 312.957 266.48C312.116 266.469 311.287 266.277 310.528 265.916C309.768 265.555 309.095 265.035 308.556 264.39C308.016 263.745 307.622 262.991 307.4 262.18C307.146 261.171 306.573 260.271 305.765 259.615C304.958 258.959 303.96 258.582 302.92 258.54C300.6 258.32 298.44 257.28 299.16 255.04C299.56 254.116 299.655 253.089 299.432 252.107C299.209 251.126 298.68 250.24 297.92 249.58C297 248.76 297.22 247.58 298.34 247.02C307.76 241.4 309.34 248.82 316.82 248.36C314.32 245.34 305.94 245.68 301.84 235.2C296.52 221.48 290.76 211.82 300.92 209.4L300.74 209.3ZM281.14 230.76C292.68 233.84 296.6 229.68 297.94 231.52C298.6 232.4 297.58 232.56 297.3 233C295.834 235.44 294.197 237.773 292.4 239.98C284.58 248.38 282.82 242.22 280.4 231.36C280.46 230.86 280.66 230.68 281.32 230.86L281.14 230.76ZM288.3 256.02C288.3 257.3 287.68 257.68 286.74 257.7C285.8 257.72 284.4 258.52 283.76 256.84C283.12 255.16 283.76 249.54 284.22 246.64C284.4 245.7 284.68 245.72 285.48 245.88C290.56 246.94 288 246.5 288.48 256.12L288.3 256.02ZM279.16 198.74C277.922 208.568 277.801 218.505 278.8 228.36C267.48 225.16 270.6 214.62 273.92 203.04C275.04 199.88 276.3 200.16 279.34 198.84L279.16 198.74ZM266.06 202.04C276.6 202.28 272.06 196.24 269.48 213.34C267.02 229.5 278.4 226.68 279.32 231.86C279.82 235.745 281.005 239.51 282.82 242.98C283.62 244.34 283.4 244.04 283.12 245.16C282.18 249.16 280.9 253.16 281.9 257.16C282.76 260.56 285.18 259.84 288.88 259.28C291.42 258.9 289.66 256.48 290.5 248.52C290.64 247.18 291.5 245.8 290.3 244.52C289.92 244.08 290.64 243.78 291.02 243.48C303.42 231.08 295.02 230.68 301.94 239.96C302.886 241.208 303.973 242.342 305.18 243.34C300.58 243.54 293.18 246.42 297.44 250.9C300.18 253.72 293.7 258.48 301.44 260.24C307.44 261.6 304.98 266.02 308.96 266.66C313.9 267.48 310.38 280.78 316.82 298.24C320.98 309.5 324.82 311.08 332.4 313.22C325.28 313.92 319.38 316.66 313.3 318.8C310.52 319.78 313.02 317.74 311.66 316.68C308.9 314.5 306.92 311.48 304.04 309.42C301.82 307.84 301.82 307.86 300.38 310.16C282.38 288.74 279.74 271.4 273.46 242.6C265.1 203.06 263.7 202 266.24 202.14L266.06 202.04ZM318.06 334.24C318.575 335.709 318.624 337.302 318.2 338.8C317.66 339.96 316.92 341.02 315.48 340.92C312.48 340.72 315.72 332.3 310.32 326.24C309 324.24 308.18 324.12 310.88 320.06C314.58 324.066 317.124 329.002 318.24 334.34L318.06 334.24ZM317.62 326.4C328.62 335.92 327.08 332.72 326.32 339.26C320.7 337.28 319.16 332.44 317.8 326.5L317.62 326.4ZM306.7 325.84C300.84 321.36 300.94 321.34 299.94 320.98C298.2 320.36 299.62 318.7 299.82 317.56C300.421 315.46 301.176 313.408 302.08 311.42C302.42 310.42 302.78 310.56 303.38 311.1C307.68 314.96 309.82 317.2 309.9 317.7C309.98 318.2 308.14 321.62 306.88 326L306.7 325.84ZM259.1 201C263.36 201.86 263.68 201.86 263.72 203C264.06 212.36 267.32 221 269.72 230.02C272.12 239.04 273.62 248.16 275.56 257.24C280.64 281 280.68 286.5 296.58 307.68C298.32 310 301.58 311.96 298.12 315.84C286.68 304.96 277.34 293.84 270.12 254.52C268.76 247.24 266.46 240.2 264.82 233C256.9 198.78 257.62 200.7 259.1 201ZM248 346.52C248.552 345.67 249.367 345.024 250.32 344.681C251.274 344.338 252.313 344.317 253.28 344.62C256.501 346.65 259.841 348.487 263.28 350.12C258.08 356.12 252.62 361.7 244.56 364.34C245.015 358.287 246.169 352.307 248 346.52ZM244.28 370.34C244.28 367.28 243.94 364.96 247.04 364.72C253.081 361.999 258.392 357.887 262.54 352.72C264.16 350.72 265.48 350.94 267.44 351.86C262.32 356.38 256 364.76 244.32 370.34H244.28ZM279.2 354C274.02 353.34 275.54 353.7 254.78 343.8C263.9 341.12 272.64 339.34 281.5 337.32C279 352 281.4 354.3 279.2 354ZM247.2 344C246.08 344.24 244.92 344.38 243.78 344.66C242.18 345.06 241.48 344.26 241.22 342.86C241.034 342.102 240.966 341.319 241.02 340.54C241.42 337.52 234.84 338.7 238.88 332.54C240.5 330.1 244.72 328.06 241.22 326.54C236.04 324.42 236.68 324.38 237.98 319.12C241.28 305.76 245.04 301.12 245.98 299.56C246.5 301.652 246.821 303.788 246.94 305.94C247.24 308.16 248.74 310.76 250.06 310.84C252.26 310.84 245.94 307.72 248.48 288.62C250.48 273.18 245.52 271.88 241.24 263.66C235.64 252.84 236.4 246.18 244.14 238.18C251.88 230.18 256.62 232.18 257.62 223.58C258.007 221.226 258.82 218.962 260.02 216.9C270.34 258.7 267.18 244.64 270.94 265.28C276.94 297.52 285.64 307.12 296.18 316.64C298.04 318.32 297.12 320.02 297.36 321.7C297.36 322.18 296.9 322.26 296.58 321.9C296.058 320.672 295.319 319.547 294.4 318.58C292.78 317.38 288.9 319.66 288.7 319.8C285.18 322.46 286.12 316.34 277.68 319.94C276.56 320.42 277.1 321.32 277.42 322.1C279.147 326.48 281.103 330.766 283.28 334.94C255.02 340.94 260.58 341.02 247.1 344H247.2ZM290.56 337.64C288.82 339.36 288.12 339.26 286.74 337.24C283.5 332.5 281.54 327.1 278.9 322.08C278.48 321.32 278.9 321.22 279.46 321.04C280.254 320.666 281.131 320.503 282.007 320.566C282.883 320.629 283.727 320.916 284.46 321.4C289.1 324.74 289.46 325.4 290.66 325.02C289.98 322.18 285.6 322.44 292.34 320.4C294.56 319.74 296.84 324.12 296.66 326.68C296.6 329.636 297.158 332.572 298.3 335.3C294.82 334 292.6 335.52 290.46 337.6L290.56 337.64ZM297.42 324.44C297.2 323.34 298.42 322.64 299.52 323.2C305.32 326.06 307.26 329.76 308.84 326.12C310.411 328.213 311.491 330.633 312 333.2C312.54 335.64 310.96 333.46 302.1 332.68C298.76 332.4 299.22 333.66 297.32 324.4L297.42 324.44ZM325.64 363.3C326.6 364.88 325.54 365.08 320.7 368.44C320.06 366.88 319.46 365.4 318.88 363.9C310.62 342.52 298.74 341.26 300.6 336.44C300.82 335.86 300.46 335.06 300.34 334.06C300.767 334.162 301.178 334.323 301.56 334.54C320 351.1 320.1 354.28 325.54 363.26L325.64 363.3ZM320.22 350C319.68 350.2 319.24 350.34 318.76 349.7C305.58 331.84 296.14 333.8 311.4 335.96C312.96 336.18 312.28 338.64 312.8 340.24C314.26 344.8 319.68 343.34 320.52 336.92C322.92 338.62 324.94 340.74 327.34 342.36C328.32 343 328.06 344.86 328.18 346.18C328.26 347.02 328.58 346.78 320.22 350ZM313.66 320.38C321.18 317.98 335.86 311.76 342.56 314.38C342.56 313.3 341.56 313.16 340.88 312.56L344.08 311.02C344.08 316.66 346.54 317.24 344.28 321.84C343.071 324.065 342.048 326.387 341.22 328.78C339.9 333.36 344.6 334.42 343.22 331.9C341.74 329.06 347 322.78 347.02 318.5C351.44 327.94 356.14 337.24 358.78 347.78C350.18 343.78 349.88 344.14 350.3 342.46C351.14 339.14 349.06 335.94 345.68 328.66C345.52 328.32 345.22 327.5 344.56 327.84C343.9 328.18 344.14 328.66 344.74 330.32C345.34 331.98 349.52 341.26 348.46 342.32C347.74 343 346.72 341.78 345.82 341.42C340.872 339.438 336.135 336.966 331.68 334.04C331.057 333.666 330.383 333.383 329.68 333.2C328.5 332.9 329.22 333.82 329.1 334.2C324 329.78 318.68 325.32 313.66 320.38ZM337.66 368.26C333.18 361.3 330.1 346.26 329.3 338C329.3 337.04 328.66 335.54 330.14 335.52C330.748 335.569 331.32 335.83 331.755 336.258C332.19 336.686 332.461 337.253 332.52 337.86C333.46 344.46 332.82 347.42 339.16 362.62C340.18 365.06 340.28 366.84 337.66 368.26ZM346.58 373.78C344.493 372.459 342.322 371.277 340.08 370.24C339.36 369.84 338.24 369.72 339.12 368.7C340 367.68 340.52 366.18 342.16 367.34C343.28 367.9 344.46 370.44 344.92 371.34C344.92 371.54 345.1 371.8 345.76 371.72C345.571 370.362 345.061 369.07 344.271 367.949C343.481 366.829 342.435 365.914 341.22 365.28C341.08 365.06 336.12 350.68 335.42 347.44C334.64 343.82 334.14 339.68 333.88 338.36C341.48 344.94 341.88 362.64 348.34 374.92C348.74 375.72 348.54 375.28 346.58 373.78ZM364.84 380.54C358.62 379.3 356.56 379.44 353.56 377.16C346.62 371.86 342.42 348.54 337.68 340.64C341.68 341.8 365.68 352.16 366 352.36C366.924 352.942 367.705 353.724 368.287 354.648C368.868 355.572 369.235 356.615 369.36 357.7C370.9 367.44 373.36 367.8 373.36 379.98C373.46 382.96 367.82 381.12 364.84 380.54Z" fill="#471280"/>
<path d="M266.4 159.88C266.793 161.93 267.376 163.938 268.14 165.88C273.1 177.56 285.48 177.88 287.8 174.72C289.66 172.24 295.66 168.36 297.2 160.72C298.6 153.78 293.02 153.82 285.94 153.78C280.16 153.78 272.76 154.16 267.76 157.06C267.213 157.264 266.766 157.671 266.513 158.196C266.259 158.722 266.219 159.325 266.4 159.88ZM269.14 158.32C274.64 155.88 287.14 155.14 293.14 155.98C294.72 156.2 295.3 157.18 295.34 158.74C294.58 165.08 289.34 169.86 284.9 173.84C283.36 175.22 281.64 174.48 280.1 174.14C277.554 173.544 275.251 172.183 273.5 170.24C270.944 167.386 269.119 163.954 268.18 160.24C267.76 159.2 268.22 158.74 269.14 158.32Z" fill="#471280"/>
<path d="M344 129.14C343.7 130.08 345.14 129.14 347.08 131.42C355.4 141.12 350.64 157.96 343.48 166.98C347.7 166.1 350 158.7 350.72 157.56C352.153 160.041 353.377 162.637 354.38 165.32C356.92 172.8 353.9 180.58 342.72 184.54C353.52 187.38 363.74 170.36 352.4 157.66C349.92 154.88 353.82 152.22 353.16 143.1C352.26 131.56 344.58 127.2 344 129.14Z" fill="#471280"/>
<path d="M251.6 148.92C251.92 148.54 253.08 147.94 251.88 147.2C251.34 146.92 250.94 147.52 250.36 148.16C244.04 155.16 240.08 162.86 240.36 172.16C240.31 174.453 241.024 176.697 242.388 178.54C243.753 180.383 245.692 181.72 247.9 182.34C249.36 182.8 249.76 183.32 249.32 184.8C249.093 185.329 248.991 185.902 249.021 186.476C249.051 187.051 249.212 187.61 249.492 188.113C249.772 188.615 250.164 189.046 250.637 189.373C251.11 189.701 251.651 189.915 252.22 190C254.057 190.421 255.968 190.398 257.795 189.932C259.621 189.466 261.309 188.57 262.72 187.32C261.82 186.86 261.36 187.32 260.84 187.46C256.08 189 249.88 189.6 250.94 184.72C251.74 181.06 251.18 182 247.8 180.52C236.9 175.78 243.7 158.12 251.6 148.92Z" fill="#471280"/>
<path d="M320.8 373.74C318.136 377.933 315.712 382.273 313.54 386.74C312.26 389.48 306.14 386.16 288.22 382.32C287.84 382.32 288.12 380.76 287.22 381.86C285.08 384.54 291.22 384.04 302.76 387.98C304.781 388.67 306.845 389.224 308.94 389.64C311.86 390.18 314.32 390.48 315.82 387.1C320.44 376.72 324.94 372.88 323.98 372.12C323.854 372.014 323.695 371.956 323.53 371.956C323.365 371.956 323.206 372.014 323.08 372.12C322.279 372.6 321.517 373.142 320.8 373.74Z" fill="#471280"/>
<path d="M310.76 136.44C310.94 136.58 311.28 136.94 311.36 136.7C311.7 135.66 313.1 135.5 313.36 134.44C313.64 132.82 306.08 127.66 297.76 129.84C294.68 130.64 294.52 130.84 294.22 133.84C293.7 138.7 301.74 129.56 310.76 136.44Z" fill="#471280"/>
<path d="M258.68 134.24C262.023 130.759 266.01 127.96 270.42 126L268.42 125.84C276.658 121.431 284.294 115.98 291.14 109.62C291.48 109.28 292.44 109 291.82 108.34C291.2 107.68 291.18 108.34 287.48 111.14C270.1 124.56 258.78 128.16 257.06 130.06C259.06 130.62 260.44 129.4 262.12 129.1C258.42 133.18 258.42 133.18 258.68 134.24Z" fill="#471280"/>
<path d="M280 141.06C280.46 140.88 281.38 141.28 281.18 140.3C280.66 137.9 272.96 142.04 269.34 147.66C267.7 150.18 270.7 152.66 280.34 147.88C280.46 147.823 280.556 147.726 280.611 147.605C280.666 147.484 280.676 147.348 280.64 147.22C280.604 147.092 280.524 146.98 280.415 146.903C280.305 146.827 280.173 146.79 280.04 146.8C277.36 147.04 274.8 148.32 271.8 148.58C271.709 148.585 271.619 148.563 271.541 148.517C271.462 148.47 271.399 148.402 271.36 148.32C271.316 148.244 271.293 148.158 271.293 148.07C271.293 147.982 271.316 147.896 271.36 147.82C273.587 144.838 276.57 142.505 280 141.06Z" fill="#471280"/>
<path d="M325.4 117.84C313.88 112.92 314.86 110.14 313.84 110.86C310.84 112.98 331.56 124 337.06 122.7C336.82 121.58 334.26 121.62 325.4 117.84Z" fill="#471280"/>
<path d="M266.44 140.66C267.539 138.463 268.101 136.037 268.08 133.58C268.2 132.58 268.24 131.48 267.04 131.16C265.84 130.84 265.34 131.86 265.04 132.78C261.2 142.32 264.78 143.28 266.44 140.66Z" fill="#471280"/>
<path d="M340 124C339.84 122.28 340.7 121.4 342.52 121.24C345 121.02 347.08 124.34 339.44 125.94C339 125.94 338.26 125.74 338.32 126.58C338.46 128.72 348.1 126.58 346.32 121.84C344.54 117.1 335.56 122 340 124Z" fill="#471280"/>
<path d="M311.1 123.3C305.509 120.344 298.982 119.697 292.92 121.5C292.46 121.62 291.72 121.76 291.94 122.44C292.34 123.66 303.2 118.9 312.84 125.84C312.82 125.295 312.646 124.768 312.338 124.318C312.03 123.868 311.601 123.515 311.1 123.3Z" fill="#471280"/>
<path d="M271.86 115.68C271.4 114.96 270.66 115.68 270.14 115.86C267.22 117.3 259.48 121.48 258.54 124.66C266.36 119.02 272.72 117.02 271.86 115.68Z" fill="#471280"/>
<path d="M284.8 374.72C277.782 374.144 270.847 372.803 264.12 370.72C266.84 373.34 281.46 375.84 284.8 374.72Z" fill="#471280"/>
<path d="M285.06 370.38C280.8 370.04 276.78 368.6 272.56 368.24C276.474 370.012 280.779 370.749 285.06 370.38Z" fill="#471280"/>
<path d="M301.6 318.26C301.57 319.28 301.858 320.285 302.424 321.134C302.99 321.983 303.807 322.635 304.76 323C308.02 324.06 308.76 318.3 307.32 316.26C305.4 313.34 301.14 313.42 301.6 318.26ZM306.06 316.26C308.06 318.62 306.68 321.48 305.46 321.38C304.24 321.28 304.22 320.38 303.78 319.66C303.34 318.94 303.78 318.68 304.28 318.44C305.061 317.878 305.659 317.099 306 316.2L306.06 316.26Z" fill="#471280"/>
<path d="M140.78 342.58C140.3 342.26 139.66 341.8 139.24 342.44C138.24 343.92 154.04 353.94 166.34 356.14C166.8 356.14 167.36 356.34 167.52 355.8C168 354.16 155.24 352.16 140.78 342.58Z" fill="#471280"/>
<path d="M38.94 91.4C35.82 84.12 41.72 83.12 40.54 82.02C38.64 80.24 32.82 88 38.94 91.4Z" fill="#471280"/>
<path d="M217.78 146C211.02 142.66 202.34 140.1 185.62 143.08C185.04 143.2 184.2 143.08 184.24 143.86C184.4 146.66 184.1 149.48 185.7 152.08C190.16 159.36 197.06 162.08 205.02 161.84C211.96 161.68 216.34 156.94 219.64 151.32C221.42 148.26 220.96 147.54 217.78 146ZM217.78 150.42C216.387 152.871 214.474 154.988 212.177 156.622C209.879 158.256 207.252 159.368 204.48 159.88C197.06 161.26 187.24 154.52 185.96 147.22C185.56 144.94 185.84 144.42 188.06 144.36C198.9 144.06 205.8 142.36 217.02 147.82C218.42 148.52 218.5 149.14 217.74 150.4L217.78 150.42Z" fill="#471280"/>
<path d="M209.34 96.92C212 110 232.86 123.24 237.46 118.3C234.3 117.944 231.227 117.037 228.38 115.62C208.66 104.54 211.68 94.06 209.4 94.78C208.76 94.98 209.2 96.26 209.34 96.92Z" fill="#471280"/>
<path d="M185.78 110.52C182.78 110.18 182.38 117.06 182.2 118.78C182.02 120.5 182.42 122.66 184.2 122.78C187.68 123.3 189.64 110.96 185.78 110.52Z" fill="#471280"/>
<path d="M200.44 125.38C202.08 125.56 201.26 123.16 199.14 123.68C191.28 125.58 186.72 133 192.88 133.68C195.48 133.98 195.68 132.54 197.98 134.76C201.24 137.9 205.5 134.76 204.72 133.44C204.38 132.86 203.92 133.32 203.54 133.44C198.2 135.96 199.82 130.9 195 131.78C193 131.78 191.24 132.08 192 130.2C192.946 128.806 194.198 127.647 195.661 126.811C197.124 125.976 198.759 125.486 200.44 125.38Z" fill="#471280"/>
<path d="M225.34 121.8C225.493 121.251 225.441 120.665 225.193 120.152C224.945 119.639 224.519 119.234 223.994 119.013C223.468 118.792 222.88 118.771 222.34 118.952C221.8 119.134 221.345 119.507 221.06 120C215.68 128.84 223.18 131.22 225.34 121.8Z" fill="#471280"/>
<path d="M186.86 100.78C190.86 104 198.54 103.76 203.76 103.66C204.142 103.673 204.521 103.596 204.869 103.436C205.216 103.277 205.521 103.038 205.76 102.74C204.38 102.46 205.92 102.74 201.32 102.42C188.2 101.82 187.18 98.42 186.56 99.78C186.482 99.955 186.469 100.152 186.524 100.336C186.579 100.519 186.698 100.677 186.86 100.78Z" fill="#471280"/>
<path d="M242.5 117.72C242.495 117.303 242.375 116.895 242.152 116.542C241.93 116.189 241.614 115.905 241.24 115.72C230.86 109.44 230.74 109.48 230.32 110.02C229 111.88 240.32 116.72 242.5 117.72Z" fill="#471280"/>
<path d="M185.66 107.52C184.16 105.52 173.66 105.08 173.2 102.44C172.94 101.22 171.62 101.72 171.88 102.94C172.6 106.28 182.46 107.1 185.66 107.52Z" fill="#471280"/>
<path d="M207.26 133.38C208.36 132.08 208.58 129.54 207.26 129.54C206.38 129.54 206.66 130.26 206.7 130.68C206.82 131.54 206.44 132.48 207.26 133.38Z" fill="#471280"/>
<path d="M128.54 225.72C128.473 225.802 128.437 225.904 128.437 226.01C128.437 226.116 128.473 226.218 128.54 226.3C128.588 226.396 128.669 226.472 128.768 226.512C128.868 226.553 128.979 226.556 129.08 226.52C133.94 224.92 144.8 209.58 150.16 187.8C150.248 187.478 150.315 187.151 150.36 186.82C150.384 186.656 150.347 186.49 150.254 186.353C150.162 186.216 150.021 186.118 149.86 186.08C149.704 186.044 149.54 186.064 149.397 186.138C149.254 186.211 149.142 186.332 149.08 186.48C146.44 193.1 141.08 215.4 128.54 225.72Z" fill="#471280"/>
<path d="M74.5999 26C79.1599 26.86 83.7199 27.66 88.2799 28.44C92.0999 29.12 94.2799 27.22 94.2799 23.38C94.2799 18.44 93.1799 19.04 76.6199 15.88C71.3199 14.78 67.6599 24.62 74.5999 26ZM79.7199 17.5C92.7399 20.38 93.4799 19.74 92.8399 23.7C92.0799 28.42 89.6999 27.08 77.3199 25.2C81.3599 23.34 81.9999 21.04 79.7199 17.42V17.5ZM77.2599 18.66C79.1399 18.66 79.5999 19.72 79.8199 20.86C79.818 21.5457 79.5609 22.206 79.0988 22.7126C78.6367 23.2191 78.0025 23.5354 77.3199 23.6C76.6542 23.608 76.0126 23.3511 75.5363 22.8861C75.06 22.421 74.7879 21.7857 74.7799 21.12C74.772 20.4543 75.0288 19.8127 75.4939 19.3364C75.959 18.86 76.5942 18.588 77.2599 18.58V18.66ZM78.7999 17.24C77.8027 17.2481 76.8341 17.5746 76.0354 18.1718C75.2367 18.769 74.6497 19.6057 74.3599 20.56C74.1914 21.3203 74.258 22.1138 74.5509 22.8353C74.8438 23.5569 75.3492 24.1723 75.9999 24.6C75.1544 24.7662 74.2772 24.6128 73.5383 24.1694C72.7993 23.7261 72.2512 23.0243 71.9999 22.2C71.9316 21.1674 72.1706 20.1378 72.6867 19.2408C73.2028 18.3439 73.9729 17.6199 74.8999 17.16C76.1808 16.8448 77.519 16.8448 78.7999 17.16V17.24Z" fill="#471280"/>
<path d="M276.42 322.82C265.38 317.48 254.56 314.7 243.82 308.82C243.723 308.727 243.594 308.675 243.46 308.675C243.326 308.675 243.197 308.727 243.1 308.82C243.52 311.94 270.62 321.36 275.66 323.98C276.74 324.64 277.64 323.4 276.42 322.82Z" fill="#471280"/>
<path d="M249.7 324C249.22 323.88 248.34 323.14 248.06 324C247.78 324.86 248.58 324.72 265.26 329.86C273.26 332.3 273.54 332.98 275.4 332C267.09 328.569 258.489 325.891 249.7 324Z" fill="#471280"/>
<path d="M272 288.96C263.78 284.02 262.64 282.24 255.28 274.96C256.88 279.56 267.52 288.4 272 288.96Z" fill="#471280"/>
<path d="M313.7 251.8C312.68 250.9 311.86 247.14 310.54 248.08C309.58 248.76 311.14 255.8 317.36 252.58C323.58 249.36 324.72 255.62 327.2 251.76C330.4 246.76 336.4 251.88 334.56 244.24C332.96 244.82 333.94 246.9 331.84 247C325.84 247.32 326.04 251.76 324.62 251C319.06 248.44 315.8 253.66 313.7 251.8Z" fill="#471280"/>
<path d="M283.74 324.84C284.72 328.06 290.34 332.54 292.42 332.06C292 331.66 284.2 325.2 283.74 324.84Z" fill="#471280"/>
<path d="M84.9399 24.84C85.6195 24.8423 86.2749 24.5882 86.7754 24.1285C87.2759 23.6688 87.5846 23.0373 87.6399 22.36C87.5993 21.6595 87.2934 21.0008 86.7844 20.5179C86.2754 20.0349 85.6016 19.7639 84.8999 19.76C80.4199 19.78 81.2999 24.88 84.9399 24.84ZM85.7199 22.36C85.7354 22.4731 85.7252 22.5882 85.6901 22.6969C85.6549 22.8055 85.5958 22.9048 85.517 22.9874C85.4382 23.07 85.3418 23.1339 85.235 23.1741C85.1282 23.2144 85.0137 23.2301 84.8999 23.22C81.3599 23.18 85.3999 19.2 85.7199 22.36Z" fill="#471280"/>
</svg>
