<svg width="400" height="400" viewBox="0 0 400 400" fill="none" xmlns="http://www.w3.org/2000/svg">
<path d="M176.26 88.26C174.26 89.2 172.38 92.26 171.18 94C170.6 94.86 168.9 95.52 169.18 93.82C170.544 88.3884 171.573 82.878 172.26 77.32C173.02 75.18 170.26 76.66 168.96 78.64C167.995 79.9478 167.227 81.3898 166.68 82.92C166.52 84 166.3 85.1 166.06 86.18C165.82 87.26 163.68 88.94 163.82 87.08C163.903 85.826 164.124 84.5852 164.48 83.38C164.675 82.2616 164.809 81.1332 164.88 80C164.88 78.18 165.14 74.14 162.7 77.32C160.26 80.5 159.7 84.92 159.16 88.58C158.94 89.92 156.66 91.2 156.94 89.14C157.177 87.404 157.244 85.649 157.14 83.9C157.14 83.34 156.9 79.02 156.22 78.7C154.36 77.84 153.44 85.7 153.32 86.84C152.7 93.6486 153.2 100.513 154.8 107.16C154.858 107.376 154.858 107.604 154.8 107.82L173.64 105.32C174.22 96.38 177.08 91.86 178.3 88.48C177.527 87.4932 176.847 87.42 176.26 88.26ZM166.86 97.88C166.211 99.202 165.915 100.67 166 102.14C166.001 102.541 165.898 102.936 165.702 103.286C165.506 103.637 165.223 103.931 164.88 104.14C164.764 104.221 164.627 104.267 164.486 104.273C164.344 104.278 164.204 104.243 164.082 104.172C163.96 104.1 163.861 103.995 163.797 103.869C163.733 103.743 163.706 103.601 163.72 103.46C163.696 101.206 164.247 98.9826 165.32 97C165.56 96.52 166.32 95.76 166.92 96.1C167.52 96.44 167.1 97.4 166.86 97.88Z" fill="white"/>
<path d="M248.68 223.66C247.8 224 247.58 222.66 248.12 221.78C253.38 213.3 250.12 193.78 239.36 186.84C234.988 184.099 229.786 183 224.68 183.74C225.3 184.16 224.52 186.24 223.6 186.54L222.32 186.92C221.838 192.184 219.876 197.204 216.66 201.4C214.836 203.634 212.542 205.436 209.94 206.68C206.334 208.584 202.368 209.716 198.3 210C197.58 210 195.24 209.84 194.66 210C195.537 210.918 196.501 211.75 197.54 212.48C201.2 215 203.54 214.48 203.08 217.96C202.74 220.74 202.24 223.5 201.78 226.26C203.59 225.788 205.49 225.788 207.3 226.26C216.76 228.56 219.8 238.48 220.38 248.26C220.74 254.42 215.36 249.62 212.96 247.6C209.32 244.532 204.942 242.464 200.26 241.6C198.26 241.26 194.14 240.42 192.8 242.5C192.2 243.4 190.58 243.98 190.8 242.3C191.76 236.72 194.52 230.02 199.44 227.26C199.68 225.72 199.94 224.18 200.18 222.64C200.36 221.42 201.16 219.12 200.52 218.08C199.88 217.04 198.68 216.92 197.76 216.4C196.623 215.708 195.557 214.904 194.58 214C193.44 213.04 191.8 212 191.88 210.3C191.932 209.68 192.158 209.088 192.534 208.592C192.909 208.096 193.418 207.718 194 207.5C196.2 206.68 199 207.14 201.32 206.78C201.8 206.78 202.26 206.62 202.74 206.54C201.26 204.54 202.16 200.78 203.08 198.54C204.754 194.781 207.24 191.441 210.36 188.76C182.84 204.44 180.12 242.76 197.54 255.94C201.646 259.076 206.54 261.014 211.68 261.54L211.06 258.24C210.64 257.38 211.72 255.64 212.64 255.74L236.52 251.94C240.3 248.714 243.29 244.664 245.26 240.1C245.48 239.52 246.08 238.7 246.8 238.76C252.8 239.14 260.36 238.12 261.5 232.24C261.87 230.834 261.896 229.358 261.58 227.94C261.264 226.52 260.612 225.196 259.68 224.08C256.78 221.04 252 222.34 248.68 223.66ZM242.18 200.5C241.528 200.02 240.9 199.506 240.3 198.96C238.79 203.096 236.15 206.728 232.68 209.44C229.64 211.58 223.78 212.64 222.1 208.2C220.74 204.56 223.16 199.46 225.16 196.5C227.268 193.416 230.2 190.984 233.62 189.48L233.34 188.84C232.92 187.74 234.96 185.44 235.54 186.96C237.18 191.283 240.034 195.04 243.76 197.78C244.82 198.56 243.18 201.24 242.18 200.5ZM254 227.64C253.21 227.538 252.408 227.672 251.694 228.028C250.982 228.386 250.392 228.946 250 229.64C249.78 230.16 249.2 231.1 248.46 230.98C247.72 230.86 247.78 229.96 248 229.44C248.548 228.036 249.518 226.838 250.774 226.006C252.032 225.176 253.514 224.754 255.02 224.8C256.46 224.84 255.22 227.72 254 227.64Z" fill="white"/>
<path d="M317.78 254.14C313.28 253.66 307.6 254.36 304.78 257.7C308.254 257.494 311.686 256.82 314.98 255.7C316.48 255.18 315.5 257.7 314.98 258.2C311.88 260.92 308.46 263.78 306.98 267.7C306.62 268.62 305.32 274 308.06 272.58C308.38 272.42 308.76 271.66 308.96 271.4C315.12 263.2 314.96 263.26 315.5 263.12C316.04 262.98 316.66 264.14 316.14 265C315.072 266.724 314.308 268.618 313.88 270.6C313.582 271.592 313.46 272.626 313.52 273.66C313.8 275.12 313.86 274.48 314.56 273.66C315.744 272.058 316.814 270.374 317.76 268.62C318.74 267.04 320.88 263.68 320.94 263.58C321.76 262.3 323.38 262.46 322.76 264.16C321.78 266.82 319.5 271.96 320.76 275C325.24 268.42 327.98 263.86 331.58 261.26C332.26 260.78 334.34 259.44 334.14 259.58C328.85 257.308 323.378 255.488 317.78 254.14Z" fill="white"/>
<path d="M216.18 238.82C215.98 238.82 207.04 233.12 203.72 239.04C208.006 240.176 211.962 242.316 215.26 245.28C216.07 246.232 216.99 247.084 218 247.82C217.79 244.754 217.178 241.728 216.18 238.82Z" fill="#FF3E74"/>
<path d="M191.58 254.32C183.34 244.32 182.92 228.58 186.76 216.02C186.76 215.84 178.62 121.28 177.46 107.6L149.82 111.26C149.82 112.22 148.58 98.4596 161.08 238L174.2 245.08C174.84 245.44 174.48 246.46 174.2 246.92L166.56 261.3L213.64 271.8L212.26 264.48C208.298 264.304 204.416 263.312 200.858 261.562C197.298 259.814 194.14 257.348 191.58 254.32Z" fill="#6CECC4"/>
<path d="M349.52 230.54C345.06 222.24 332.76 216.72 323.2 215.7C315.574 215.102 307.904 215.998 300.62 218.34C282.04 223.92 259.5 238.2 244.12 250.68L271.56 246.32C271.92 246.32 272.32 246.32 272.38 246.8C272.8 249.32 273.22 251.86 273.62 254.38C282.856 245.354 293.956 238.46 306.14 234.18C310.352 232.686 314.792 231.936 319.26 231.96C328.54 232.28 329.26 237.52 324.88 245.7C323.72 247.934 322.2 249.96 320.38 251.7C326.72 253.46 333.8 255.38 339.4 258.88C347.72 251.54 354.74 240.22 349.52 230.54Z" fill="#6CECC4"/>
<path d="M306 265.66L294.26 267L304.26 273.6C304.042 270.84 304.648 268.076 306 265.66Z" fill="#FFDE26"/>
<path d="M334 290.24L350.78 280.58C350.086 274.58 349.374 268.58 348.64 262.58L323.44 288.58C323.14 288.9 322.54 289.44 322.06 289.12L291.6 269.12L296.34 302.56L336.5 298.82L332.9 292.94C332.28 292.26 333.08 290.52 334 290.24Z" fill="#FFDE26"/>
<path d="M329.2 266.54C326.3 270.2 323.78 274.24 321.2 278.08C320.86 278.56 320.1 278.98 319.64 278.46C318.896 277.414 318.41 276.208 318.222 274.94C318.036 273.67 318.15 272.376 318.56 271.16L316.88 273.84C316.12 275.06 314.56 278.62 312.46 277.84C310.36 277.06 311.42 273.58 311.66 272.1C311.9 270.62 311.96 270.86 311.66 271.16C310.58 272.58 309.22 275.16 307.3 275.68L323.1 286.08C331.234 277.72 339.36 269.354 347.48 260.98L334.16 262.5C332.318 263.598 330.648 264.958 329.2 266.54Z" fill="#FFDE26"/>
<path d="M374 272.14C370.88 280.392 367.754 288.66 364.62 296.94C364.42 297.46 363.78 298.4 363.08 298.28L336.84 293.7L349.9 314.98L387.08 294.58L374 272.14Z" fill="#FFDE26"/>
<path d="M337.62 290.76L363.14 295.22C366.22 287.06 369.306 278.906 372.4 270.76L337.62 290.76Z" fill="#FFDE26"/>
<path d="M351.34 227.78L355.34 228.46C358.42 220.314 361.506 212.16 364.6 204L340.48 217.86C344.932 220.122 348.684 223.552 351.34 227.78Z" fill="#FFDE26"/>
<path d="M355.14 231.52L352.78 231.1C353.88 234.76 353.88 238.66 352.78 242.32L379.2 227.82C374.84 220.34 370.486 212.866 366.14 205.4L356.76 230.18C356.48 230.7 355.84 231.64 355.14 231.52Z" fill="#FFDE26"/>
<path d="M304.44 204.38L329.48 201.12L296.62 180.64C299.22 188.56 301.826 196.473 304.44 204.38Z" fill="#FFDE26"/>
<path d="M299.68 214L301.82 215.38C309.278 212.986 317.144 212.136 324.94 212.88L330.56 203.76L303.26 207.32C303.174 207.344 303.086 207.35 302.998 207.34C302.91 207.328 302.824 207.298 302.748 207.254C302.672 207.21 302.604 207.15 302.552 207.078C302.498 207.008 302.46 206.926 302.44 206.84C299.48 197.867 296.526 188.92 293.58 180L286.7 191.76C291.306 193.09 295.224 196.141 297.642 200.282C300.058 204.424 300.788 209.336 299.68 214Z" fill="#FFDE26"/>
<path d="M287.64 173.72C290.14 173.48 292.34 170.16 293.98 168.46C301.18 161.1 305.5 156.68 307.98 153.84C309.576 152.294 310.924 150.514 311.98 148.56C312.74 146.78 309.8 145.08 308.54 144.02C305.622 141.559 302.504 139.345 299.22 137.4C296.49 135.828 293.68 134.399 290.8 133.12C291.748 137.222 292.35 141.397 292.6 145.6C292.78 148.54 293.76 154.06 291.18 156.26C289.54 157.241 287.672 157.779 285.76 157.82C283.38 158.22 269.76 160.4 265.22 161.04C269.22 163.56 275.44 168.58 280.66 171.24C282.58 172.14 285.62 174 287.64 173.72Z" fill="#FFDE26"/>
<path d="M290.3 154.28C290.8 153.8 290.62 151.56 290.62 150.88C290.58 144.943 289.822 139.033 288.36 133.28C288.312 133.076 288.312 132.863 288.36 132.66C286.62 132.86 284.72 135.58 283.1 137.22C276.484 143.939 270.24 151.016 264.4 158.42C272.106 157.313 279.786 156.106 287.44 154.8C288.414 154.764 289.376 154.589 290.3 154.28Z" fill="#FFDE26"/>
<path d="M80.7 158.42C84 160.24 100.92 168 104.32 169.66C105.557 170.447 107.019 170.806 108.48 170.68C109.385 170.252 110.2 169.655 110.88 168.92C116.4 164.3 122.26 154.14 124.6 150.92C119.6 152.04 104.82 155.1 102.44 155.56C100.797 156.129 99.0526 156.347 97.32 156.2C95.9 155.78 95.5 154.44 94.98 153.2C92.4464 146.906 90.7714 140.3 90 133.56C89.3782 133.923 88.8178 134.382 88.34 134.92C85.4918 137.696 82.9136 140.737 80.64 144C79.06 146.22 73.72 152.82 75.86 155.34C77.301 156.615 78.9344 157.655 80.7 158.42Z" fill="#FFDE26"/>
<path d="M96.48 149.5C96.7198 150.434 97.0758 151.334 97.54 152.18C98.5 153.4 99.54 153.26 100.94 153.06C108.32 152.12 115.72 150.22 122.94 148.54C114.016 143.191 104.78 138.382 95.28 134.14C94.3744 133.63 93.3858 133.285 92.36 133.12C93.1046 138.719 94.4868 144.215 96.48 149.5Z" fill="#FFDE26"/>
<path d="M135.24 251.74L170 246.4L123.46 221.32C127.38 231.466 131.307 241.606 135.24 251.74Z" fill="#FFDE26"/>
<path d="M134.1 254.68C134.013 254.704 133.923 254.71 133.833 254.7C133.744 254.688 133.658 254.66 133.58 254.616C133.502 254.57 133.433 254.512 133.378 254.44C133.323 254.368 133.283 254.286 133.26 254.2L120.38 220.9L114 233.64L116.86 258L153.78 278.8C154.9 273.04 157.14 261.46 157.14 261.46C157.14 260.64 157.92 259.6 158.64 259.56C160.668 259.86 162.673 260.302 164.64 260.88L170.96 248.88L134.1 254.68Z" fill="#FFDE26"/>
<path d="M76.34 295.44L105.78 302.82L118.68 275.02L76.34 295.44Z" fill="#FFDE26"/>
<path d="M107.06 304.56C106.84 305.04 106.22 306.1 105.52 305.92L75.1801 298.32L88.6401 324.32L133.42 303.84C128.967 294.72 124.513 285.614 120.06 276.52L107.06 304.56Z" fill="#FFDE26"/>
<path d="M57.0601 283.26L23.3 270.76L33.62 288.76C34 289.46 34.58 290.2 34.94 290.96C35.62 290.62 33.5201 291.38 57.0601 283.26Z" fill="#FFDE26"/>
<path d="M33.14 293.7C28.78 286.06 24.38 278.46 20.02 270.84C17.5267 278.186 15.0334 285.52 12.54 292.84L50.38 307.72L58.52 285.34L33.86 294C33.7238 294.036 33.5792 294.026 33.449 293.972C33.3188 293.918 33.2102 293.822 33.14 293.7Z" fill="#FFDE26"/>
<path d="M111.58 233.8C102.887 244.586 94.22 255.374 85.58 266.16C85.36 266.46 84.62 267.08 84.22 266.72L54.66 240.72C56.1934 251.654 57.7466 262.6 59.32 273.56L115.74 268.3C115.6 267.62 111.58 234 111.58 233.8Z" fill="#FFDE26"/>
<path d="M110.52 232L56.34 238.16L85.2 263.5L110.52 232Z" fill="#FFDE26"/>
<path d="M249.18 277.36L269.54 249.36L216.44 257.78L249.18 277.36Z" fill="#FFDE26"/>
<path d="M270.6 251.16L249.64 280C249.38 280.36 248.74 280.82 248.28 280.54L214 260L216.32 272.36L222.08 273.64C222.62 273.76 222.76 274.3 222.64 274.8C222.28 276.44 219.98 287.06 219.5 289.3C219.72 290.58 219.96 291.86 220.2 293.14L276.2 285.42C276 283.68 270.86 252.78 270.6 251.16Z" fill="#FFDE26"/>
<path d="M162 263.4L184.92 293.16L218.78 276L162 263.4Z" fill="#FFDE26"/>
<path d="M184.32 296C184.184 296.126 184.005 296.194 183.82 296.194C183.635 296.194 183.456 296.126 183.32 296L158.74 264C157.94 268.18 152.86 294.34 151.7 300.36L211.82 315.06C213.6 306.84 219.82 278.72 219.82 278.08L184.32 296Z" fill="#FFDE26"/>
<path d="M151.62 243.34L147.62 241.58C147.66 241.208 147.66 240.832 147.62 240.46L151.18 239.72C151.76 239.6 152.24 238.14 151.44 238.3L147.3 239.16C147.042 238.462 146.646 237.824 146.135 237.284C145.623 236.744 145.008 236.314 144.326 236.018C143.643 235.724 142.908 235.57 142.165 235.566C141.421 235.562 140.685 235.71 140 236L137.76 232.48C137.4 231.9 136.44 233.14 136.78 233.66C137.42 234.7 138.08 235.66 138.78 236.74C138.496 236.96 138.235 237.208 138 237.48L134.2 235.96C133.6 235.72 132.84 237.1 133.42 237.32L137.14 238.82C136.976 239.15 136.855 239.5 136.78 239.86L133.8 240.72C133.24 240.88 132.78 242.36 133.52 242.14L136.64 241.24C136.65 242.304 136.968 243.342 137.555 244.228C138.143 245.114 138.975 245.812 139.951 246.234C140.926 246.658 142.004 246.79 143.053 246.612C144.102 246.436 145.077 245.96 145.86 245.24L147.4 248C147.7 248.58 148.66 247.36 148.38 246.8C147.88 245.86 147.38 244.8 146.86 243.96C147.04 243.684 147.187 243.388 147.3 243.08L150.82 244.64C151.42 244.96 152.2 243.6 151.62 243.34Z" fill="#0D128A"/>
<path d="M110.14 145.34C110.76 145.34 111.34 143.88 110.68 143.9L107.32 144C107.058 142.958 106.405 142.056 105.497 141.483C104.588 140.909 103.493 140.708 102.44 140.92C102 139.92 101.58 138.92 101.16 137.94C100.74 136.96 99.84 138.32 100.06 138.88L101.14 141.4L100.74 141.68L98 140C97.46 139.66 96.66 141.02 97.22 141.36L99.74 142.88C99.6658 142.996 99.599 143.116 99.54 143.24L97.04 143.56C96.44 143.56 95.96 145.08 96.76 144.98L99.14 144.68C99.061 145.459 99.2016 146.245 99.5458 146.949C99.89 147.652 100.424 148.246 101.088 148.662C101.751 149.078 102.518 149.3 103.301 149.303C104.084 149.306 104.853 149.091 105.52 148.68L106.3 151.02C106.56 151.8 107.6 150.66 107.4 150.1C107.2 149.54 106.88 148.52 106.6 147.72C106.698 147.616 106.785 147.502 106.86 147.38L109.4 149.06C109.92 149.4 110.74 148.06 110.18 147.7L107.38 146C107.39 145.854 107.39 145.707 107.38 145.56L110.14 145.34Z" fill="#0D128A"/>
<path d="M357.22 217.18L354.18 217.02C354.08 216.85 353.966 216.69 353.84 216.54L356.14 214.92C356.7 214.52 356.68 213.22 355.84 213.82L353.06 215.82C352.802 215.64 352.528 215.486 352.24 215.36L353.26 212.42C353.6 211.44 352.52 211.56 352.26 212.42L351.3 215.14C350.206 214.946 349.078 215.194 348.166 215.826C347.252 216.46 346.624 217.428 346.42 218.52H343.68C343.06 218.52 342.46 219.98 343.14 219.96H346.4C346.442 220.204 346.502 220.444 346.58 220.68L344.22 222.48C343.68 222.9 343.7 224.2 344.52 223.58L347.06 221.58C347.216 221.83 347.404 222.058 347.62 222.26L346.9 225.08C346.72 225.76 347.68 226.02 348 224.8C348.16 224.18 348.32 223.54 348.5 222.92C349.188 223.31 349.974 223.498 350.764 223.462C351.554 223.426 352.32 223.168 352.97 222.716C353.62 222.266 354.128 221.64 354.438 220.91C354.748 220.182 354.846 219.382 354.72 218.6H356.72C357.28 218.66 358 217.22 357.22 217.18Z" fill="#0D128A"/>
<path d="M85.88 239.24C84.9612 239.03 84.0078 239.026 83.087 239.226C82.1664 239.428 81.3012 239.828 80.553 240.402C79.8046 240.974 79.1916 241.704 78.7574 242.54C78.323 243.376 78.0782 244.298 78.04 245.24C77.9 253.62 91.66 255.46 92.04 246.5C91.9974 244.768 91.363 243.102 90.2422 241.782C89.1212 240.46 87.5818 239.564 85.88 239.24Z" fill="#FF3E74"/>
<path d="M164.78 104C165.124 103.792 165.408 103.498 165.604 103.148C165.801 102.797 165.902 102.401 165.9 102C165.855 100.521 166.186 99.0558 166.86 97.7396C167.1 97.2596 167.46 96.2596 166.86 95.8996C166.26 95.5396 165.5 96.3196 165.26 96.7996C164.187 98.7822 163.636 101.005 163.66 103.26C163.639 103.399 163.658 103.542 163.716 103.671C163.773 103.799 163.866 103.909 163.984 103.987C164.102 104.065 164.239 104.107 164.38 104.11C164.521 104.112 164.66 104.074 164.78 104Z" fill="#0D128A"/>
<path d="M389.84 293.68L374.6 267.54C374.4 267.18 373.9 267.26 373.6 267.44L353.04 279.28L350.58 258.7C350.58 258.14 350.28 257.84 349.72 257.92L342.48 258.74C346.292 254.966 349.358 250.508 351.52 245.6L381 229.42C381.44 229.196 381.782 228.816 381.96 228.354C382.138 227.892 382.138 227.382 381.96 226.92L366.72 200.78C366.52 200.44 366 200.5 365.72 200.78L337.96 216.78C334.462 215.16 330.772 213.992 326.98 213.3L333.88 202.12C334.16 201.64 334.44 200.64 333.88 200.28C293.22 174.92 294.94 175.94 294.74 175.9C294.16 175.72 293.46 176.38 293.14 177.14L284.8 191.4C280.97 190.722 277.024 191.26 273.516 192.939C270.008 194.617 267.114 197.352 265.24 200.76C258.28 171.1 231.68 164.18 221.24 170.02C218.8 171.294 216.872 173.369 215.778 175.896C214.686 178.423 214.496 181.249 215.24 183.9C203.21 189.082 193.669 198.744 188.64 210.84C188 202.98 180 110.52 179.64 105.44C179.64 104.9 179.34 104.58 178.78 104.66L175.78 105.06C175.975 100.794 176.923 96.5958 178.58 92.6598C179.32 90.9198 181.66 87.3198 180.58 85.3198C179 82.3398 175.04 86.1398 172.28 89.4398C172.96 86.3798 173.64 83.2998 174.14 80.2198C174.42 78.5798 175.88 73.0198 173.1 72.5998C170.68 72.2198 168.3 76.3398 167.24 77.8998C167.04 78.1998 167.24 78.1198 167.1 75.4198C166.94 73.0398 166.04 72.0798 163.82 73.5398C161.652 75.1068 160.024 77.308 159.16 79.8398C159.101 78.4828 158.703 77.1624 158 75.9998C155.7 72.9598 153.16 78.5198 152.6 80.1198C149.5 88.8398 150.36 99.1798 152.32 108.12L148.6 108.62C147.82 108.62 147.14 109.96 147.2 110.62C148.84 128.88 156.36 212.86 158.48 236.62C118.78 215.22 121.56 216.62 121.34 216.62C120.62 216.36 119.86 217.28 119.6 218.06L113.5 230.2C113.5 229.48 113.38 228.86 112.56 228.96L53.42 235.68C52.62 235.32 51.42 237.02 51.68 238.02C51.68 238.24 51.4 236.02 57.06 276.02C57.06 276.46 57.54 276.54 57.9 276.5L116.7 271.02C117.46 271.02 118.18 269.66 118.1 269.02L117.26 261.86L153.16 282C151.86 288.62 150.58 295.26 149.3 301.88C149.2 302.38 149.3 302.9 149.86 303.04L211.86 318.22C212.7 318.42 213.38 317.08 213.5 316.5L218.06 295.54C218.08 295.628 218.12 295.712 218.174 295.784C218.228 295.858 218.296 295.918 218.376 295.964C218.454 296.008 218.542 296.036 218.632 296.046C218.722 296.056 218.814 296.046 218.9 296.02L277.32 288.02C278.3 287.88 278.82 286.48 278.68 285.66L274 256.8C285 246.42 304.54 233.24 319.6 234.94C321.82 235.18 325.12 236 325.1 238.78C324.86 241.264 324.068 243.664 322.786 245.806C321.502 247.948 319.758 249.776 317.68 251.16C311.36 250.8 304.5 253.16 301.68 259.16C301.5 259.56 301.42 260.7 302.14 260.68C304.918 260.66 307.688 260.346 310.4 259.74C309.456 260.68 308.568 261.676 307.74 262.72L290.44 264.72C289.54 264.46 288.44 266.22 288.76 267.14L294.14 305.02C294.14 305.44 294.62 305.52 294.96 305.48L338.02 301.48L348.02 317.92C348.24 318.28 348.72 318.2 349.02 318.04L388.72 296.26C389.208 296.064 389.6 295.682 389.81 295.2C390.02 294.716 390.03 294.17 389.84 293.68ZM372.4 270.76C369.32 278.894 366.234 287.046 363.14 295.22L337.62 290.76L372.4 270.76ZM347.48 260.94C339.36 269.3 331.234 277.666 323.1 286.04L307.3 275.64C309.18 275.2 310.52 272.66 311.78 270.96C311.78 271.32 311.64 271.7 311.58 272.06C311.34 273.54 310.5 277.08 312.38 277.8C314.26 278.52 316.04 275.06 316.8 273.8L318.48 271.12C318.07 272.336 317.956 273.63 318.142 274.9C318.33 276.168 318.816 277.374 319.56 278.42C320.02 278.94 320.78 278.52 321.12 278.04C323.78 274.2 326.3 270.16 329.12 266.5C330.576 264.938 332.246 263.59 334.08 262.5L347.48 260.94ZM366 205.4C370.36 212.866 374.714 220.34 379.06 227.82L352.64 242.32C353.74 238.66 353.74 234.76 352.64 231.1L355 231.52C355.7 231.64 356.34 230.7 356.54 230.18L366 205.4ZM364.46 204C361.366 212.16 358.28 220.314 355.2 228.46L351.2 227.78C348.534 223.51 344.75 220.052 340.26 217.78L364.46 204ZM329.42 201.12L304.38 204.38C301.714 196.473 299.106 188.56 296.56 180.64C300.22 182.9 325.5 198.66 329.48 201.12H329.42ZM293.58 180C296.526 188.96 299.48 197.92 302.44 206.88C302.46 206.966 302.498 207.048 302.552 207.118C302.604 207.19 302.672 207.25 302.748 207.294C302.824 207.338 302.91 207.368 302.998 207.38C303.086 207.39 303.174 207.384 303.26 207.36L330.56 203.8L324.94 212.92C317.144 212.176 309.278 213.026 301.82 215.42L299.68 214.04C300.804 209.37 300.082 204.444 297.664 200.294C295.246 196.142 291.318 193.085 286.7 191.76L293.58 180ZM264 226.82C264.826 224.518 265.454 222.148 265.88 219.74C268.052 223.106 271.25 225.688 275 227.1C270.84 229.46 266.76 231.98 262.78 234.62C263.9 232.182 264.322 229.482 264 226.82ZM218.58 187.82L220.12 187.5C219.2 194.74 215.96 202.08 208.94 204.36C207.22 204.9 204.8 205.4 204.3 203C204.152 201.452 204.458 199.896 205.18 198.52C211.46 200.68 219.1 193.78 218.56 187.82H218.58ZM210.44 188.68C207.32 191.361 204.834 194.701 203.16 198.46C202.24 200.78 201.36 204.62 202.82 206.46C198.82 207.24 196.52 206.46 194.08 207.42C193.483 207.63 192.96 208.008 192.574 208.508C192.187 209.008 191.953 209.61 191.9 210.24C191.9 211.86 193.46 212.98 194.6 213.94C195.606 214.77 196.691 215.5 197.84 216.12C198.76 216.64 200.06 216.9 200.6 217.8C201.14 218.7 200.44 221.14 200.26 222.36C200.02 223.9 199.76 225.44 199.52 226.98C194.6 229.74 191.84 236.44 190.88 242.02C190.6 243.7 192.22 243.12 192.88 242.22C194.22 240.22 198.42 240.98 200.34 241.32C205.028 242.168 209.408 244.238 213.04 247.32C215.7 249.58 220.84 254.16 220.46 247.98C219.88 238.22 216.82 228.34 207.38 225.98C205.57 225.508 203.67 225.508 201.86 225.98C202.32 223.22 202.82 220.46 203.16 217.68C203.6 214.22 201.28 214.74 197.62 212.2C196.583 211.468 195.618 210.636 194.74 209.72C195.32 209.62 197.66 209.84 198.38 209.72C202.442 209.456 206.406 208.352 210.02 206.48C212.622 205.238 214.918 203.434 216.74 201.2C219.956 197.004 221.918 191.984 222.4 186.72L223.68 186.34C224.6 186.04 225.38 183.96 224.76 183.54C229.866 182.8 235.068 183.899 239.44 186.64C250.12 193.58 253.44 213.12 248.2 221.58C247.68 222.44 247.88 223.8 248.76 223.46C252.16 222.14 256.76 220.84 259.82 223.8C260.752 224.916 261.404 226.24 261.72 227.658C262.036 229.078 262.01 230.554 261.64 231.96C260.38 237.96 253 238.86 246.94 238.48C246.22 238.48 245.62 239.24 245.4 239.82C243.43 244.384 240.44 248.434 236.66 251.66L212.78 255.46C211.86 255.46 210.78 257.1 211.2 257.96L211.82 261.26C206.68 260.734 201.786 258.796 197.68 255.66C179.82 242.32 183.34 204.12 210.42 188.68H210.44ZM203.74 239.04C207.04 233.04 216 238.8 216.2 238.82C217.198 241.728 217.81 244.754 218.02 247.82C217.01 247.084 216.09 246.232 215.28 245.28C211.98 242.306 208.016 240.168 203.72 239.04H203.74ZM269.56 249.4L249.2 277.4L216.46 257.86L269.56 249.4ZM153.32 86.8598C153.44 85.7198 154.36 77.8598 156.22 78.7198C156.9 79.0398 157.1 83.3598 157.14 83.9198C157.244 85.6688 157.177 87.4238 156.94 89.1598C156.66 91.1598 158.94 89.9398 159.16 88.5998C159.7 84.9398 160.38 80.3598 162.7 77.3398C165.02 74.3198 164.94 78.1998 164.88 80.0198C164.72 84.8398 164.18 83.2398 163.9 87.0798C163.76 88.9398 165.9 87.0798 166.14 86.1798C166.38 85.2798 166.6 83.9998 166.76 82.9198C167.307 81.3896 168.075 79.9476 169.04 78.6398C170.42 76.6398 173.04 75.1798 172.34 77.3198C171.643 82.8762 170.615 88.3862 169.26 93.8198C168.9 95.5198 170.6 94.8598 171.26 93.9998C172.46 92.2198 174.36 89.1998 176.34 88.2598C176.927 87.4198 177.593 87.4998 178.34 88.4998C177.1 91.9398 174.34 96.4998 173.68 105.34L154.84 107.84C154.898 107.624 154.898 107.396 154.84 107.18C153.227 100.535 152.713 93.6708 153.32 86.8598ZM149.82 111.26L177.46 107.6C178.62 121.28 186.74 215.84 186.76 216.02C182.92 228.58 183.34 244.32 191.58 254.32C194.144 257.354 197.309 259.822 200.876 261.57C204.442 263.32 208.332 264.31 212.3 264.48L213.68 271.8L166.6 261.3L174.24 246.92C174.48 246.46 174.84 245.44 174.24 245.08L161.08 238C148.54 97.9998 150 112.22 149.82 111.26ZM218.78 276L184.94 293.1L162 263.4L218.78 276ZM170 246.4L135.26 251.74C131.26 241.594 127.333 231.454 123.48 221.32L170 246.4ZM110.52 232L85.2 263.5L56.34 238.18L110.52 232ZM59.26 273.6C57.7 262.64 56.1466 251.694 54.6 240.76L84.16 266.76C84.56 267.12 85.3 266.5 85.52 266.2C94.2 255.414 102.867 244.626 111.52 233.84C111.52 233.84 115.3 265.72 115.62 268.38L59.26 273.6ZM116.86 258L114 233.64L120.4 220.9C124.707 232.006 129 243.106 133.28 254.2C133.303 254.286 133.343 254.368 133.398 254.44C133.453 254.51 133.522 254.57 133.6 254.616C133.678 254.66 133.764 254.688 133.853 254.7C133.943 254.71 134.033 254.704 134.12 254.68L171.02 248.98L164.7 260.98C162.733 260.4 160.728 259.958 158.7 259.66C157.98 259.66 157.28 260.74 157.2 261.56C157.2 261.56 154.96 273.14 153.84 278.9L116.86 258ZM211.82 315.18L151.7 300.48C152.86 294.48 157.94 268.3 158.74 264.12L183.32 296.12C183.456 296.244 183.635 296.314 183.82 296.314C184.005 296.314 184.184 296.244 184.32 296.12L219.86 278.12C219.14 281.48 214.4 303.22 211.82 315.12V315.18ZM276.24 285.52L220.24 293.24C220 291.96 219.78 290.68 219.54 289.4C220.02 287.16 222.32 276.54 222.68 274.9C222.8 274.4 222.68 273.86 222.12 273.74L216.36 272.46L214 260L248.26 280.44C248.72 280.72 249.36 280.26 249.62 279.9L270.58 251.12C270.9 252.92 274.78 276.6 276.24 285.46V285.52ZM324.88 245.76C329.2 237.58 328.54 232.34 319.26 232.02C314.792 231.996 310.352 232.746 306.14 234.24C293.956 238.52 282.856 245.414 273.62 254.44C273.22 251.92 272.8 249.38 272.38 246.86C272.38 246.44 271.92 246.32 271.56 246.38L244.12 250.74C259.66 238.14 282.12 223.98 300.62 218.4C307.902 216.05 315.574 215.152 323.2 215.76C332.7 216.76 345.06 222.32 349.52 230.6C354.76 240.32 347.64 251.66 339.4 258.92C333.8 255.42 326.7 253.5 320.38 251.74C322.206 249.992 323.726 247.95 324.88 245.7V245.76ZM307.04 267.76C308.5 263.86 311.92 260.98 315.04 258.26C315.52 257.84 316.5 255.24 315.04 255.76C311.746 256.88 308.314 257.554 304.84 257.76C307.66 254.42 313.34 253.76 317.84 254.2C323.478 255.574 328.992 257.422 334.32 259.72C332.66 260.8 332.6 260.8 331.76 261.4C328.18 263.98 325.48 268.48 320.94 275.14C319.62 272.1 321.9 266.96 322.94 264.3C323.54 262.66 321.96 262.3 321.12 263.72C321.12 263.72 318.92 267.18 317.94 268.76C316.994 270.514 315.924 272.198 314.74 273.8C314.04 274.6 313.98 275.24 313.7 273.8C313.64 272.766 313.762 271.73 314.06 270.74C314.488 268.758 315.252 266.864 316.32 265.14C316.84 264.28 316.52 263.28 315.88 263.24C315.24 263.2 315.64 262.88 309.14 271.54C308.94 271.8 308.56 272.56 308.24 272.72C305.38 274 306.68 268.68 307.04 267.76ZM305.9 265.76C304.55 268.198 303.958 270.984 304.2 273.76L294.2 267.16L305.9 265.76ZM296.32 302.6L291.58 269.16L322.04 289.16C322.52 289.48 323.12 288.94 323.42 288.62L348.62 262.62C349.34 268.62 350.06 274.62 350.76 280.62L334 290.24C333.1 290.52 332.3 292.24 332.9 292.88L336.5 298.76L296.32 302.6ZM349.84 315.08L336.78 293.8L363.02 298.38C363.72 298.5 364.36 297.56 364.56 297.04C367.694 288.786 370.82 280.52 373.94 272.24L387.02 294.68L349.84 315.08Z" fill="#0D128A"/>
<path d="M232.68 209.44C236.15 206.728 238.79 203.096 240.3 198.96C240.9 199.506 241.528 200.02 242.18 200.5C243.18 201.24 244.82 198.5 243.76 197.78C240.034 195.04 237.18 191.283 235.54 186.96C234.96 185.44 232.92 187.74 233.34 188.84L233.62 189.48C230.2 190.984 227.268 193.416 225.16 196.5C223.16 199.46 220.74 204.5 222.1 208.2C223.78 212.64 229.64 211.58 232.68 209.44ZM224.12 203.26C229.28 205 235.48 200.68 237.1 195.54C237.62 196.239 238.18 196.907 238.78 197.54C237.766 200.53 236.138 203.276 234 205.6C231.82 207.92 224.8 210.68 224.16 205.42C224.056 204.704 224.044 203.978 224.12 203.26Z" fill="#0D128A"/>
<path d="M248.52 230.94C249.26 231.06 249.84 230.12 250.06 229.6C250.452 228.906 251.042 228.346 251.754 227.988C252.468 227.632 253.27 227.498 254.06 227.6C255.28 227.6 256.52 224.8 255.14 224.72C253.61 224.652 252.096 225.068 250.814 225.908C249.534 226.748 248.548 227.97 248 229.4C247.84 230 247.84 230.82 248.52 230.94Z" fill="#0D128A"/>
<path d="M261.58 162C261.86 162.46 261.14 162 270.4 168.42C274.466 171.608 278.99 174.163 283.82 176C285.308 176.715 287.002 176.878 288.6 176.46C290.92 175.46 292.88 172.46 294.6 170.76C306.6 158.48 313.74 151.46 314.82 147.58C315.28 145.84 314.3 145.04 313.08 143.9C307.778 138.888 301.7 134.768 295.08 131.7C293.336 130.651 291.396 129.971 289.38 129.7C287.38 129.7 286.12 131.54 284.86 132.78C276.254 141.3 268.236 150.394 260.86 160C260 160.98 260.54 162.7 261.58 162ZM294 134.52C299.286 137.035 304.228 140.221 308.7 144C309.96 145.06 312.9 146.76 312.14 148.54C311.084 150.494 309.736 152.275 308.14 153.82C305.44 156.8 302.14 160.12 294.14 168.44C292.5 170.14 290.3 173.46 287.8 173.7C285.8 173.9 282.74 172.12 280.98 171.22C275.74 168.54 269.36 163.48 265.54 161.02C270 160.38 283.7 158.2 286.08 157.8C287.992 157.759 289.86 157.221 291.5 156.24C294.08 154.04 293.1 148.52 292.92 145.58C292.67 141.377 292.068 137.202 291.12 133.1C292 133.56 293.14 134.14 294 134.52ZM283.2 137.22C284.84 135.56 286.72 132.86 288.46 132.66C288.412 132.864 288.412 133.076 288.46 133.28C289.922 139.033 290.68 144.943 290.72 150.88C290.72 151.56 290.9 153.8 290.4 154.28C289.49 154.585 288.54 154.76 287.58 154.8C279.914 156.133 272.234 157.34 264.54 158.42C270.348 151.018 276.558 143.941 283.14 137.22H283.2Z" fill="#0D128A"/>
<path d="M75.7 159.08C79.44 161.66 87.88 165.46 98.52 170.42C100.775 171.683 103.129 172.76 105.56 173.64C106.455 173.787 107.372 173.715 108.232 173.429C109.093 173.143 109.871 172.653 110.5 172C116.92 167.12 126.9 151.14 127.04 150.9C128.06 150.9 129.16 148.68 128.2 148.08C118.717 142.202 108.87 136.932 98.72 132.3C96.84 131.46 94.24 129.66 92.12 129.82C90 129.98 88.68 131.82 87.44 133.1C82.3244 138.125 78.0018 143.897 74.62 150.22C73.86 151.64 72.22 153.94 72.34 155.66C72.46 157.38 74.58 158.3 75.7 159.08ZM95.34 134.14C104.844 138.374 114.081 143.183 123 148.54C115.72 150.22 108.32 152.12 101 153.06C99.54 153.26 98.56 153.4 97.6 152.18C97.1358 151.335 96.7798 150.434 96.54 149.5C94.588 144.21 93.246 138.714 92.54 133.12C93.5244 133.299 94.4712 133.644 95.34 134.14ZM80.64 144C82.9284 140.749 85.52 137.722 88.38 134.96C88.8578 134.422 89.4182 133.963 90.04 133.6C90.7926 140.327 92.4544 146.92 94.98 153.2C95.5 154.44 95.9 155.78 97.32 156.2C99.0526 156.347 100.797 156.129 102.44 155.56C104.82 155.1 119.6 152.04 124.6 150.92C122.6 153.72 116.3 164.42 110.88 168.92C110.2 169.655 109.385 170.252 108.48 170.68C107.019 170.806 105.557 170.447 104.32 169.66C102.14 168.64 82.32 159.28 80.7 158.42C78.9276 157.65 77.2928 156.596 75.86 155.3C73.72 152.78 79.06 146.18 80.64 144Z" fill="#0D128A"/>
<path d="M120.92 272C120.72 271.6 120.2 271.74 119.92 271.88L72.7 294.58C72.434 294.66 72.1878 294.794 71.9766 294.974C71.7656 295.156 71.5944 295.378 71.474 295.628C71.3536 295.878 71.2866 296.15 71.2772 296.428C71.268 296.706 71.3166 296.982 71.42 297.24L86.92 327.24C87.12 327.62 87.64 327.48 87.92 327.36L135.24 305.7C135.677 305.472 136.015 305.092 136.188 304.63C136.362 304.168 136.359 303.66 136.18 303.2C131.1 292.76 126.013 282.36 120.92 272ZM118.68 275.1L105.78 302.9L76.34 295.52L118.68 275.1ZM88.68 324.42L75.22 298.42L105.52 306C106.22 306.18 106.84 305.12 107.06 304.64L120.06 276.64C124.5 285.76 128.96 294.84 133.42 303.96L88.68 324.42Z" fill="#0D128A"/>
<path d="M61.26 281.5L20.84 266.54C20.34 266.04 19.34 266.98 19.06 267.58C19.06 267.78 19.38 266.62 10.14 293.92C10.02 294.28 9.82 295.18 10.34 295.38L50 310.96C50.8 311.28 51.54 310.36 51.78 309.7C55.0334 300.78 58.28 291.866 61.52 282.96C61.6 282.6 61.78 281.68 61.26 281.5ZM57.06 283.26C32.44 291.76 35.74 290.58 34.94 290.92C34.58 290.16 34 289.42 33.62 288.72L23.3 270.72L57.06 283.26ZM50.38 307.78L12.54 292.9C15.0467 285.54 17.54 278.206 20.02 270.9C24.38 278.526 28.7534 286.146 33.14 293.76C33.2214 293.868 33.3348 293.948 33.4642 293.986C33.5936 294.026 33.7322 294.024 33.86 293.98L58.52 285.46L50.38 307.78Z" fill="#0D128A"/>
<path d="M94.3 245.46C94.3356 244.2 94.1048 242.948 93.6224 241.784C93.1402 240.62 92.4174 239.572 91.5016 238.708C90.5858 237.842 89.4974 237.18 88.308 236.766C87.1186 236.352 85.855 236.192 84.6 236.3C82.149 236.642 79.9042 237.86 78.2798 239.726C76.6552 241.594 75.7604 243.984 75.76 246.46C75.7548 247.7 76.009 248.93 76.5068 250.066C77.0044 251.204 77.7342 252.224 78.6496 253.062C79.565 253.9 80.6456 254.538 81.8218 254.932C82.9982 255.328 84.2442 255.474 85.48 255.36C87.8822 255.016 90.0852 253.834 91.6994 252.022C93.3136 250.21 94.2348 247.886 94.3 245.46ZM78 245.2C78.0382 244.258 78.283 243.336 78.7174 242.5C79.1516 241.664 79.7646 240.934 80.513 240.362C81.2612 239.788 82.1264 239.388 83.047 239.186C83.9678 238.986 84.9212 238.99 85.84 239.2C87.5418 239.524 89.0812 240.42 90.2022 241.742C91.323 243.062 91.9574 244.728 92 246.46C91.66 255.42 78 253.58 78 245.2Z" fill="#0D128A"/>
<path d="M85.06 247.86C85.4038 247.652 85.688 247.358 85.8842 247.008C86.0806 246.658 86.1824 246.262 86.18 245.86L86 242C86.0098 241.86 85.98 241.722 85.9142 241.598C85.8484 241.476 85.749 241.374 85.6278 241.304C85.5066 241.236 85.3682 241.202 85.2288 241.208C85.0894 241.214 84.9546 241.26 84.84 241.34C84.4948 241.546 84.2096 241.84 84.013 242.19C83.8166 242.542 83.7156 242.938 83.72 243.34C83.72 244.68 83.9 246.02 83.98 247.34C84.0008 247.456 84.0484 247.564 84.1192 247.656C84.19 247.75 84.2818 247.824 84.3872 247.876C84.4926 247.926 84.6086 247.952 84.7256 247.948C84.8424 247.946 84.957 247.916 85.06 247.86Z" fill="#0D128A"/>
<path d="M86.56 250.12C86.98 249.04 86.32 248.34 85.72 248.46C84.68 248.46 83.6 250.68 84.52 251.26C85.44 251.84 86.1 251.12 86.56 250.12Z" fill="#0D128A"/>
<path d="M294.3 146.32C292.85 145.331 291.09 144.902 289.346 145.112C287.604 145.322 285.996 146.156 284.82 147.46C284.298 148.223 283.934 149.083 283.752 149.989C283.57 150.895 283.572 151.829 283.76 152.735C283.946 153.64 284.314 154.498 284.84 155.259C285.366 156.019 286.038 156.666 286.82 157.16C288.266 158.165 290.03 158.604 291.776 158.394C293.524 158.184 295.134 157.339 296.3 156.02C298.88 152.84 297.28 148.5 294.3 146.32Z" fill="#FF3E74"/>
<path d="M285.3 160C286.354 160.643 287.526 161.07 288.746 161.258C289.968 161.447 291.212 161.391 292.412 161.096C293.612 160.8 294.74 160.27 295.734 159.536C296.726 158.802 297.566 157.879 298.2 156.82C299.588 154.755 300.12 152.232 299.688 149.782C299.256 147.332 297.89 145.145 295.88 143.68C285.72 137.48 275.46 153.32 285.3 160ZM294.3 146.42C297.28 148.6 298.88 152.94 296.3 156.12C295.134 157.439 293.524 158.284 291.776 158.494C290.03 158.704 288.266 158.265 286.82 157.26C286.038 156.766 285.366 156.119 284.84 155.359C284.314 154.599 283.946 153.74 283.76 152.835C283.572 151.929 283.57 150.996 283.752 150.089C283.934 149.183 284.298 148.323 284.82 147.56C285.982 146.24 287.584 145.387 289.328 145.159C291.07 144.931 292.838 145.343 294.3 146.32V146.42Z" fill="#0D128A"/>
<path d="M286.92 151.5L290.4 153.5C291.52 154.14 293.1 151.4 291.98 150.76L288.5 148.76C287.38 148.14 285.8 150.86 286.92 151.5Z" fill="#0D128A"/>
<path d="M295.1 154.28C295.7 153.42 295.68 152.78 295.36 152.46C295.04 152.14 294.04 152.2 293.36 153.14C292.18 154.96 293.78 156.14 295.1 154.28Z" fill="#0D128A"/>
</svg>
