<svg width="400" height="400" viewBox="0 0 400 400" fill="none" xmlns="http://www.w3.org/2000/svg">
<g clip-path="url(#clip0_902_9075)">
<path d="M171.8 0.0259985C168.163 9.71041 163.818 19.1138 158.8 28.16C154.782 32.9163 150.39 37.3437 145.666 41.4C134.178 51.246 121.282 59.336 109.326 68.48C99.9481 75.748 90.9261 83.952 86.1261 94.738C84.9913 97.3579 84.2027 100.114 83.7801 102.938C82.0907 104.786 80.5246 106.744 79.0921 108.798C76.0977 113.144 74.1333 118.115 73.3481 123.334C70.72 123.053 68.2127 122.083 66.0801 120.522C66.8147 121.8 67.8288 122.896 69.0465 123.727C70.2642 124.558 71.654 125.104 73.1121 125.322C72.6675 130.072 73.6471 134.847 75.9261 139.038C75.0633 134.552 75.5111 129.912 77.2161 125.674H77.8001C79.2634 125.563 80.7147 125.327 82.1381 124.97C81.1035 128.713 80.9427 132.643 81.6681 136.458C80.5474 136.099 79.4511 135.668 78.3861 135.168C79.466 135.922 80.6027 136.59 81.7861 137.168C82.6394 141.351 84.4439 145.282 87.0601 148.656C85.5465 145.415 84.6712 141.912 84.4821 138.34C90.6941 140.684 96.7901 140.45 104.058 138.692C115.422 136 123.862 125.692 130.66 115.492C141.968 98.5501 151.403 80.4306 158.8 61.452C159.502 59.576 160.324 57.584 161.026 55.59C169.366 42.0412 176.092 27.5635 181.068 12.452C184.23 13.5721 186.863 15.8284 188.454 18.782L198.3 15.264C195.695 10.5467 191.848 6.63276 187.177 3.94657C182.505 1.26037 177.187 -0.0955049 171.8 0.0259985ZM96.2001 105.412C92.139 108.531 88.6152 112.292 85.7681 116.548C85.6501 114.79 85.5321 113.148 85.4161 111.39C85.7681 110.92 86.2361 110.452 86.5881 109.99C93.2701 102.136 101.944 96.39 110.736 91.232C114.488 89.006 118.238 87.012 121.99 84.786C119.412 87.482 116.832 90.186 114.488 93.108C108.506 97.2 102.058 100.84 96.2001 105.412ZM102.53 107.052C98.8236 111.11 94.6979 114.764 90.2221 117.954C89.9881 118.072 89.8701 118.188 89.6361 118.306C91.1828 116.133 92.9971 114.164 95.0361 112.444C97.3681 110.57 99.9481 108.81 102.526 107.052H102.53ZM93.5001 88.414C100.768 80.09 110.264 74.112 119.172 67.43C132.534 57.4665 144.76 46.0648 155.63 33.43C154.926 34.486 154.34 35.658 153.63 36.712C140.742 57 121.986 72.822 102.762 87.124C97.2289 91.0112 91.9434 95.2394 86.9361 99.784C87.295 98.5486 87.7257 97.3352 88.2261 96.15C89.5845 93.3205 91.3626 90.7124 93.5001 88.414ZM78.1441 123.112C79.6947 119.766 81.5796 116.585 83.7701 113.618C84.0041 115.258 84.2401 116.9 84.5921 118.54C83.9974 119.61 83.4496 120.705 82.9501 121.822C81.4768 122.415 79.9439 122.847 78.3781 123.112H78.1441ZM145.548 80.8C141.072 91.0009 135.737 100.803 129.6 110.1C123.856 119.126 116.822 129.326 107.562 133.662C100.301 137.095 92.1672 138.24 84.2401 136.946C84.1291 132.744 84.8461 128.561 86.3501 124.636C87.0521 126.636 87.7501 128.622 88.5761 130.498C87.8538 128.189 87.2668 125.841 86.8181 123.464C86.9568 123.2 87.0745 122.926 87.1701 122.644C88.2261 122.058 89.3981 121.354 90.4521 120.768C96.3391 116.719 101.834 112.127 106.864 107.052C109.56 104.59 112.14 102.13 114.836 99.668C128.004 92.0666 139.778 82.274 149.652 70.712C148.244 74.112 146.956 77.512 145.548 80.8ZM209.436 27.104C212.161 24.3342 215.235 21.9307 218.58 19.954C221.628 30.036 223.622 40.938 220.808 51.136C218.228 60.748 211.782 68.602 206.624 77.16C204.731 80.0594 203.27 83.2184 202.286 86.538C201.331 89.9094 201.708 93.519 203.34 96.62C202.583 92.8929 203.209 89.0177 205.1 85.718C206.924 82.4819 209.043 79.4209 211.43 76.574C221.042 63.678 227.138 47.618 225.262 31.676C224.997 26.4276 222.879 21.4433 219.284 17.61C214.6 18.664 211.312 22.532 209.436 27.104Z" fill="black"/>
<path d="M359.838 226.506C364.762 219.472 364.058 208.57 357.376 203.294C354.369 201.142 350.854 199.809 347.176 199.426C343.355 198.874 339.46 199.153 335.757 200.246C332.054 201.338 328.631 203.218 325.722 205.756C322.863 208.363 320.837 211.757 319.899 215.511C318.96 219.265 319.151 223.212 320.448 226.858C326.662 242.332 351.748 238 359.838 226.506Z" fill="#FFD340"/>
<path d="M143.086 400C116.71 393.788 90.922 387.456 64.194 382.65C105.458 362.37 146.486 341.85 187.632 321.224C193.142 324.742 198.886 326.382 205.1 328.61C227.724 320.17 248.122 310.792 269.926 300.476C281.414 311.846 290.326 323.676 301.926 335.056C309.312 331.306 315.172 328.024 322.558 324.39C341.08 339.39 359.836 356.51 377.42 372.57C358.664 378.9 340.258 385.816 321.502 392.146C306.424 386.239 290.902 381.535 275.082 378.078C230.186 387.8 193.142 393.2 143.086 400Z" fill="#14D29B"/>
<path d="M228.31 340.45C221.042 343.146 208.03 354.4 206.858 354.4C197.596 354.4 158.092 354.516 154.34 353.812C147.2 357.446 118.118 367.528 111.2 370C114.95 371.056 135.114 374.572 140.858 377.502C142.498 378.324 136.168 386.88 136.168 386.998C140.036 386.528 190.326 375.744 202.87 373.398C204.394 373.164 212.716 378.556 216.47 379.494C222.918 375.86 259.374 358.744 264.298 357.104C265.354 356.752 278.834 362.964 285.282 364.488C295.246 360.62 304.506 354.876 314.354 350.422C306.734 347.374 299.354 344.092 291.964 340.458L228.31 340.45Z" fill="#008C6E"/>
<path d="M212.016 290.042C194.9 287.228 190.564 285.242 182.944 278.442C175.324 271.642 166.766 263.79 156.568 264.61C153.286 264.844 150.12 266.01 146.838 266.01C139.804 266.01 134.06 260.852 128.668 256.516C116.946 247.02 102.644 239.636 87.638 240.338C72.632 241.04 57.512 252.296 56.456 267.3C55.754 276.912 42.038 281.602 33.364 285.94C24.5891 290.101 15.3375 293.171 5.81604 295.082C19.296 294.966 155.864 290.862 212.016 290.042Z" fill="#9778FF"/>
<path d="M174.856 285.236C168.76 282.422 163.484 278.436 157.388 275.506C153.814 273.714 149.896 272.714 145.9 272.576C141.938 272.553 137.981 272.827 134.06 273.396C130.805 273.922 127.498 274.041 124.214 273.748C121.544 273.365 118.941 272.615 116.476 271.52C112.046 269.188 107.847 266.443 103.934 263.32C99.9103 260.059 95.2327 257.7 90.218 256.404C83.8262 255.261 77.2358 256.38 71.58 259.57C66.07 262.618 58.332 270.236 55.05 271.526C51.416 278.442 40.514 282.312 33.25 285.946C24.4753 290.107 15.2237 293.178 5.70203 295.088C17.66 294.972 125.976 291.688 189.746 290.288C184.598 289.209 179.598 287.512 174.856 285.236Z" fill="#643CFF"/>
<path d="M394.302 245.614C384.839 243.703 375.983 239.516 368.502 233.414C361.586 228.014 352.676 222.864 344.702 226.264C341.42 227.664 338.488 230.366 334.854 230.248C328.406 229.898 326.766 221.34 323.836 215.712C318.326 205.28 304.024 202.466 292.888 206.334C281.752 210.202 273.31 218.996 265.106 227.436C264.988 222.278 259.83 218.41 254.672 218.174C249.514 217.938 244.708 220.52 240.604 223.45C233.102 228.724 226.538 235.29 219.036 240.682C211.534 246.074 206.374 247.482 193.48 249.122C265.47 249.248 324.904 249.248 394.302 245.614Z" fill="#9778FF"/>
<path d="M364.76 234.712C360.432 232.102 355.365 230.99 350.342 231.546C345.654 232.132 341.198 234.126 336.51 234.828C333.384 235.536 330.118 235.292 327.132 234.126C324.196 232.499 321.793 230.055 320.216 227.092C318.122 223.208 315.519 219.621 312.478 216.424C309.283 213.285 305.551 210.744 301.46 208.922C298.698 207.673 295.779 206.805 292.784 206.342C281.648 210.212 273.208 219.004 265.002 227.444C264.884 222.286 259.726 218.418 254.568 218.182C249.41 217.946 244.604 220.528 240.502 223.458C233 228.732 226.434 235.298 218.932 240.69C211.43 246.082 206.272 247.49 193.376 249.13C262.658 249.248 320.332 249.248 386.448 246.082C378.828 243.504 372.028 238.698 364.76 234.712Z" fill="#643CFF"/>
<path d="M291.846 47.854L287.744 80.912H300.286L304.272 54.3L291.846 47.854Z" fill="black"/>
<path d="M330.648 42.696C319.864 47.618 307.086 42.696 295.48 45.158C294.311 45.2732 293.226 45.8159 292.432 46.682C290.908 48.682 292.902 51.604 295.012 52.894C297.122 54.184 299.812 55.238 300.638 57.694C301.576 60.508 299.114 63.438 296.302 64.26C293.414 64.8036 290.438 64.6424 287.626 63.79C274.026 60.86 258.906 59.804 247.066 67.19C256.092 68.128 260.078 76.45 265.118 83.954C270.158 91.458 275.904 99.778 284.696 101.654C285.752 102.012 286.893 102.035 287.963 101.72C289.033 101.406 289.98 100.769 290.674 99.896C291.26 98.84 293.488 88.76 293.722 88.76H293.84C303.452 90.048 312.478 97.082 322.09 95.442C327.721 78.425 330.61 60.6205 330.648 42.696Z" fill="#14D29B"/>
<path d="M293.722 88.648H293.84C294.426 88.766 298.294 89.704 298.762 89.82C299.818 83.49 300.99 75.754 302.396 69.54C304.272 60.982 304.976 53.012 307.438 44.572C303.404 44.2861 299.351 44.4828 295.364 45.158C294.195 45.2728 293.109 45.8156 292.316 46.682C290.792 48.682 292.784 51.604 294.894 52.894C297.004 54.184 299.694 55.238 300.522 57.694C300.793 58.5327 300.793 59.4353 300.522 60.274C299.818 63.086 298.176 67.542 297.474 70.354C296.418 74.464 293.6 88.53 293.722 88.648Z" fill="#008C6E"/>
<path d="M311.54 146.8C312.42 147.032 313.326 147.15 314.236 147.152C314.7 147.133 315.154 147.007 315.561 146.783C315.968 146.559 316.318 146.244 316.582 145.862C317.168 145.042 319.278 145.98 319.746 145.042C320.098 144.222 318.574 142.698 319.042 142.58C319.746 142.346 320.442 141.994 321.042 141.76C321.158 141.642 321.394 141.642 321.51 141.524C321.746 141.29 321.628 140.938 321.51 140.704C321.392 140.47 321.158 140.236 321.042 140C320.69 139.064 321.746 137.304 321.746 136.366C321.628 135.194 320.104 135.078 319.048 134.492C318.299 133.994 317.465 133.636 316.588 133.436C315.953 133.34 315.304 133.421 314.712 133.67C311.43 134.374 308.264 135.546 304.982 136.25C302.845 136.541 300.78 137.219 298.886 138.25C298.366 138.656 297.978 139.207 297.77 139.832C297.561 140.458 297.542 141.131 297.714 141.768C300.522 145.62 307.2 145.854 311.54 146.8Z" fill="#E28A42"/>
<path d="M279.176 344.58L331.204 29.538L335.252 30.206L283.224 345.248L279.176 344.58Z" fill="black"/>
<path d="M306.148 141.634C307.965 140.69 309.593 139.418 310.948 137.882C312.072 136.369 313.622 135.226 315.4 134.6C316.8 134.132 320.09 133.076 319.62 130.966C316.924 131.436 312.94 132.608 310.594 132.724C308.394 132.704 306.199 132.509 304.03 132.138C301.835 131.787 299.586 132.115 297.582 133.076C295.238 134.476 294.418 135.422 295.12 138.118C295.95 141.4 302.514 143.276 306.148 141.634Z" fill="#F2BF8C"/>
<path d="M246.012 190.87C236.237 198.257 224.88 203.273 212.836 205.522C199.004 208.102 184.116 206.812 172.036 199.544C166.292 196.144 161.486 191.456 155.976 187.586C150.466 183.716 144.018 180.786 137.336 181.256C151.887 176.433 166.779 172.71 181.888 170.12C201.23 167.072 221.746 166.134 239.446 174.458C242.964 176.098 246.48 178.326 248.004 181.726C249.646 185.36 249.176 188.524 246.012 190.87Z" fill="black"/>
<path d="M205.45 80.8C215.884 79.862 225.85 84.668 235.226 89.474C240.268 92.054 245.308 94.516 249.996 97.446C258.796 102.846 266.642 109.646 275.084 115.498C283.526 121.35 292.902 126.518 303.1 127.924C302.81 132.56 301.517 137.078 299.311 141.167C297.105 145.255 294.038 148.816 290.322 151.604C284.226 149.604 278.014 147.15 271.922 145.156C267.35 143.632 262.662 142.226 258.206 140.356C233 130.028 212.954 106.936 205.45 80.8Z" fill="#FDB849"/>
<path d="M202.168 76.8C222.684 87.82 235.11 110.562 237.806 133.654C240.502 156.746 234.524 180.194 225.028 201.412C222.8 191.33 224.324 180.546 224.91 170.23C225.742 154.495 223.266 138.761 217.642 124.042C214.594 116.07 210.608 108.442 207.562 100.48C204.516 92.518 201.582 85.366 202.168 76.8Z" fill="#FFD340"/>
<path d="M312.83 137.532C312.087 137.983 311.382 138.492 310.72 139.056C310.486 139.29 309.9 139.876 310.016 140.228C310.25 140.814 311.54 140.696 312.016 140.696C314.31 140.638 316.574 140.164 318.698 139.296C319.825 138.881 320.831 138.194 321.628 137.296C321.776 137.119 321.875 136.905 321.912 136.677C321.95 136.448 321.925 136.214 321.842 135.999C321.758 135.783 321.618 135.594 321.436 135.451C321.254 135.308 321.037 135.217 320.808 135.186C320.307 135.07 319.785 135.07 319.284 135.186C317 135.54 314.808 136.337 312.83 137.532Z" fill="#F2BF8C"/>
<path d="M316.23 140C314.363 139.968 312.515 140.37 310.83 141.174C310.36 141.408 309.892 141.876 310.126 142.346C310.181 142.454 310.265 142.544 310.369 142.606C310.472 142.668 310.591 142.7 310.712 142.698C312.456 143.246 314.291 143.445 316.112 143.284C317.413 143.25 318.709 143.093 319.98 142.814C320.684 142.58 322.676 141.642 321.622 140.704C320.854 140.332 320.014 140.132 319.16 140.118C318.187 140.022 317.208 139.983 316.23 140Z" fill="#F2BF8C"/>
<path d="M310.954 143.276C310.486 143.392 310.016 143.744 310.016 144.214C310.041 144.387 310.108 144.552 310.21 144.695C310.311 144.838 310.446 144.954 310.602 145.034C312.029 145.845 313.651 146.25 315.292 146.206C316.464 146.324 321.974 145.972 319.042 143.744C316.482 142.655 313.623 142.49 310.954 143.276Z" fill="#F2BF8C"/>
<path d="M315.878 145.502C314.567 145.229 313.217 145.19 311.892 145.386C311.54 145.386 311.072 145.62 311.072 145.972C311.072 146.088 311.188 146.206 311.306 146.324C311.988 146.792 312.74 147.147 313.534 147.378C314.61 147.72 315.706 147.994 316.816 148.198C317.636 148.434 318.926 148.316 318.574 147.144C318.34 146.324 316.698 145.738 315.878 145.502Z" fill="#F2BF8C"/>
<path d="M245.66 154.294C239.68 138 239.446 135.772 229.366 123.694C231.234 119.062 232.304 114.147 232.53 109.158C232.54 106.895 232.063 104.656 231.13 102.594C230.212 100.993 228.975 99.5967 227.496 98.492C222.572 94.388 216.594 91.692 211.436 87.94C206.278 84.188 201.824 78.094 201.94 71.764C198.424 70.364 194.32 65.55 190.686 66.364C189.632 72.458 185.886 83.01 180.606 86.292C175.564 89.456 168.766 91.092 166.304 96.492C163.96 101.768 166.772 107.746 169.938 112.552C174.039 118.803 178.624 124.722 183.652 130.254C190.686 137.872 199.01 145.962 198.892 156.278C209.326 163.78 216.242 164.366 219.992 176.678C230.363 171.598 239.216 163.878 245.66 154.294Z" fill="white"/>
<path d="M223.856 299.538C226.552 311.378 230.186 323.338 229.13 335.292C230.255 336.315 231.663 336.974 233.169 337.183C234.675 337.392 236.209 337.142 237.57 336.464L238.626 313.136C238.86 308.564 238.978 303.992 239.212 299.536L223.856 299.538Z" fill="#E28A42"/>
<path d="M228.428 320.17C229.305 325.16 229.541 330.242 229.13 335.292C230.255 336.315 231.663 336.974 233.169 337.183C234.675 337.392 236.209 337.142 237.57 336.464L238.392 316.536C235.296 318.294 231.928 319.522 228.428 320.17Z" fill="black"/>
<path d="M168.4 299.538H150C149.414 315.598 151.524 332.126 153.634 348.068C156.522 348.954 159.626 348.831 162.434 347.718C161.414 336.067 162.164 324.328 164.66 312.902C165.548 308.355 166.798 303.886 168.4 299.538Z" fill="#F2BF8C"/>
<path d="M162.78 323.686C159.269 325.932 155.055 326.808 150.94 326.148C151.652 333.477 152.551 340.786 153.638 348.068C156.526 348.954 159.63 348.831 162.438 347.718C161.73 339.717 161.845 331.664 162.78 323.686Z" fill="black"/>
<path d="M221.98 305.164C228.308 305.209 234.614 304.421 240.736 302.82C241.98 286.083 244.29 269.441 247.652 252.998C249.052 245.848 250.818 238.814 251.872 231.664C256.328 203.998 253.162 175.396 244.488 148.664C236.674 156.493 227.337 162.636 217.056 166.716C216.797 185.888 218.367 205.042 221.746 223.916C223.34 230.764 224.243 237.754 224.442 244.782C224.208 255.45 220.338 265.65 219.166 276.2C218.112 286.174 218.228 295.786 221.98 305.164Z" fill="#D70A32"/>
<path d="M167.352 307.274C161.256 309.274 155.162 306.922 149.066 304.93C145.434 294.39 145.311 282.958 148.714 272.342C152.348 261.204 159.85 251.592 163.25 240.342C164.934 233.635 166.148 226.818 166.884 219.942C170.986 193.096 182.71 168.128 194.314 143.51C196.63 144.516 199.077 145.189 201.582 145.51C214.912 145.479 228.117 142.931 240.502 138C243.659 143.243 245.88 148.996 247.066 155C239.732 163.274 231.427 170.633 222.332 176.92C217.444 206.244 205.09 233.817 186.46 256.984C179.66 265.308 177.2 275.984 174.034 286.056C171.8 293.09 168.876 300.124 167.352 307.274Z" fill="#FF465A"/>
<path d="M199.472 14.326C198.088 10.547 195.797 7.16584 192.8 4.48C190.232 4.56085 187.779 5.5592 185.884 7.294C184.007 9.02395 182.768 11.3367 182.368 13.858C185.07 15.2934 187.398 17.3406 189.168 19.836C190.142 17.996 191.643 16.4886 193.478 15.507C195.314 14.5253 197.401 14.1141 199.472 14.326Z" fill="#D70A32"/>
<path d="M198.534 82.436C200.741 82.4888 202.923 81.9634 204.864 80.912C202.972 78.1489 201.952 74.8825 201.934 71.534C198.418 70.134 194.314 65.32 190.68 66.134C189.914 69.835 188.775 73.4489 187.28 76.92C188.646 78.5984 190.359 79.9607 192.302 80.913C194.245 81.8653 196.371 82.3849 198.534 82.436Z" fill="#F2BF8C"/>
<path d="M198.886 77.042C200.245 77.5036 201.671 77.7414 203.106 77.746C202.314 75.8536 201.915 73.8196 201.934 71.768C198.418 70.368 194.314 65.554 190.68 66.368C190.446 67.54 190.094 68.946 189.742 70.47C192.211 73.3707 195.35 75.6264 198.886 77.042Z" fill="black"/>
<path d="M171.222 84.2C163.602 86.544 158.208 93.108 153.286 99.322C145.784 108.816 138.286 118.312 132.77 129.096C142.825 135.797 153.858 140.899 165.476 144.22C166.898 143.389 168.132 142.272 169.101 140.941C170.069 139.609 170.751 138.091 171.104 136.482C167.118 134.724 164.89 131.082 162.078 127.808C159.266 124.534 155.4 121.354 150.94 121.706C156.568 116.306 161.608 111.272 166.766 105.412C169.46 102.793 171.507 99.5819 172.744 96.034C173.8 92.634 171.8 87.71 171.222 84.2ZM218.698 60.982C212.836 75.754 197.128 75.754 188.336 66.024C182.474 59.576 180.136 55.122 180.6 47.15C180.716 45.04 179.896 42.93 180.012 40.702C180.482 31.208 180.248 21.008 190.328 16.554C199.004 12.802 214.242 11.514 219.528 21.478C223.28 28.512 223.632 38.478 222.458 46.096C221.775 51.1848 220.513 56.1791 218.698 60.982Z" fill="#F2BF8C"/>
<path d="M180.6 47.15L180.95 46.798C182.057 45.5972 183.003 44.2573 183.764 42.812C184.733 40.9103 185.483 38.9048 186 36.834C187.758 31.208 190.688 23.118 198.308 23.94C201.048 24.3716 203.7 25.2421 206.162 26.518C208.737 27.9253 211.724 28.3819 214.602 27.808C215.554 27.4989 216.46 27.0651 217.298 26.518C218.316 26.0022 219.296 25.4147 220.23 24.76C220.418 24.6711 220.584 24.5428 220.718 24.3838C220.852 24.2249 220.95 24.0391 221.005 23.8389C221.061 23.6388 221.073 23.429 221.04 23.2239C221.007 23.0187 220.931 22.823 220.816 22.65C219.877 20.6942 218.562 18.9417 216.948 17.492C215.495 16.2292 213.827 15.2368 212.024 14.562C208.199 13.1796 204.116 12.6592 200.066 13.038C196.604 13.2878 193.203 14.0787 189.986 15.382C179.786 19.836 178.848 30.622 178.386 40.116C178.6 42.226 180.716 45.04 180.6 47.15Z" fill="black"/>
<path d="M190.564 40.938C191.652 40.296 192.871 39.9095 194.13 39.8076C195.389 39.7058 196.655 39.8912 197.832 40.35C198.994 40.8311 200.025 41.5816 200.841 42.5396C201.656 43.4976 202.231 44.6357 202.52 45.86C200.429 46.3305 198.241 46.0832 196.308 45.158C194.023 44.3403 192.027 42.8737 190.564 40.938ZM209.906 46.212C210.377 45.0509 211.109 44.0139 212.045 43.1814C212.982 42.349 214.098 41.7435 215.306 41.412C216.525 41.1136 217.797 41.1068 219.019 41.3921C220.241 41.6774 221.379 42.2467 222.34 43.054C220.946 44.6851 219.044 45.7995 216.94 46.218C214.649 46.9283 212.196 46.9263 209.906 46.212Z" fill="white"/>
<path d="M199.706 41.4C199.15 40.938 198.515 40.5802 197.832 40.344C196.655 39.8874 195.389 39.7031 194.131 39.8049C192.872 39.9068 191.653 40.2921 190.564 40.932C192.027 42.8677 194.023 44.3343 196.308 45.152C196.804 45.3447 197.313 45.5011 197.832 45.62C198.308 44.1519 198.936 42.7375 199.706 41.4ZM218.112 41.288C217.212 41.2077 216.305 41.2474 215.416 41.406C214.191 41.7024 213.059 42.2951 212.117 43.1321C211.175 43.9691 210.454 45.0247 210.016 46.206C212.346 46.9223 214.838 46.9223 217.168 46.206C217.621 46.1218 218.057 45.9637 218.458 45.738C218.048 44.2924 217.93 42.7796 218.112 41.288Z" fill="black"/>
<path d="M209.436 59.694C209.272 60.506 208.906 61.2639 208.374 61.8986C207.842 62.5333 207.159 63.0247 206.388 63.328C204.69 63.7158 202.911 63.5089 201.348 62.742C198.915 61.45 196.856 59.5522 195.37 57.232C199.831 59.0397 204.626 59.8789 209.436 59.694Z" fill="#E28A42"/>
<path d="M194.784 57C197.532 57.47 200.328 57.5876 203.106 57.35C204.235 57.2143 205.369 57.1362 206.506 57.116C207.639 57.0988 208.762 57.3395 209.788 57.82C210.223 57.9905 210.588 58.3034 210.822 58.7077C211.056 59.112 211.146 59.5838 211.078 60.046C208.301 60.7227 205.413 60.8011 202.603 60.2759C199.794 59.7508 197.129 58.6341 194.784 57Z" fill="black"/>
<path d="M180.012 39.882C179.58 39.1602 178.958 38.5708 178.214 38.178C177.469 37.7852 176.632 37.6039 175.792 37.654C175.346 37.7671 174.928 37.9713 174.565 38.2539C174.202 38.5366 173.901 38.8914 173.682 39.296C173.365 40.0828 173.167 40.9127 173.096 41.758C172.97 44.1447 173.451 46.5243 174.496 48.674C174.912 49.7013 175.552 50.6225 176.37 51.37C177.238 52.2497 178.418 52.7526 179.654 52.77C180.133 52.8061 180.613 52.7258 181.054 52.536C185.288 50.55 181.772 42.226 180.012 39.882Z" fill="#F2BF8C"/>
<path d="M176.144 40C177.395 40.9009 178.437 42.0605 179.2 43.4C180.438 45.4419 181.012 47.818 180.842 50.2C180.271 49.555 179.566 49.0419 178.776 48.6966C177.987 48.3512 177.132 48.1818 176.27 48.2C176.749 47.8596 177.149 47.4195 177.442 46.91C177.888 46.0866 178.053 45.1397 177.91 44.214C177.612 42.7046 177.011 41.2711 176.144 40ZM208.616 54.652C207.392 50.9148 207.032 46.9486 207.562 43.052C206.1 46.3434 204.808 49.7079 203.692 53.132C204.347 53.7374 205.129 54.1882 205.981 54.4513C206.834 54.7143 207.734 54.7829 208.616 54.652Z" fill="#E28A42"/>
<path d="M190.564 36.952C191.608 36.2324 192.818 35.7887 194.08 35.662C194.798 35.6647 195.51 35.7836 196.19 36.014C197.832 36.366 199.472 36.834 201.114 37.304C201.639 37.4948 202.197 37.5745 202.754 37.538C204.044 37.42 204.864 36.248 205.568 35.31C205.802 34.958 206.038 34.49 206.272 34.138C202.536 33.0677 198.67 32.5152 194.784 32.496C194.378 32.4474 193.967 32.5301 193.612 32.732C193.283 32.9436 193.002 33.2232 192.79 33.552C191.928 34.6021 191.182 35.742 190.564 36.952ZM223.504 36.952C222.793 36.2733 221.894 35.8239 220.924 35.662C220.396 35.667 219.876 35.7871 219.4 36.014C218.228 36.366 217.056 36.834 215.884 37.304C215.532 37.42 215.064 37.654 214.712 37.538C213.774 37.42 213.188 36.248 212.602 35.31C212.368 34.958 212.25 34.49 212.016 34.138C214.704 33.0755 217.566 32.5188 220.456 32.496C220.787 32.4607 221.119 32.5444 221.394 32.732C221.653 32.9539 221.854 33.2353 221.98 33.552C222.554 34.6548 223.062 35.7901 223.504 36.952Z" fill="black"/>
<path d="M183.764 72.354C196.542 79.974 204.044 94.154 208.148 108.342C212.016 121.706 213.548 136.242 209.672 149.606C204.748 166.368 191.852 179.85 177.316 189.462C168.76 195.09 159.264 199.896 152.464 207.516C152.7 203.882 149.3 200.834 146.134 199.192C140.976 196.496 134.998 195.09 130.426 191.456C128.214 189.696 126.394 187.495 125.081 184.992C123.768 182.489 122.991 179.74 122.8 176.92C122.332 168.72 126.904 160.976 132.414 154.88C137.924 148.784 144.614 143.744 149.88 137.414C165.712 118.424 166.884 90.4 183.764 72.354Z" fill="#FFD340"/>
<path d="M208.148 108.46C204.396 95.448 197.832 82.436 186.93 74.58C191.891 82.2526 194.685 91.1234 195.018 100.254C195.171 103.781 194.975 107.315 194.432 110.804C196.65 113.261 198.506 116.022 199.942 119.004C204.338 128.393 206.581 138.647 206.506 149.014C206.509 152.751 206.156 156.48 205.45 160.15C207.217 156.829 208.632 153.332 209.672 149.716C213.54 136.242 212.016 121.822 208.148 108.46Z" fill="#FDB849"/>
<path d="M163.25 199.426L162.43 198.372C165.946 195.676 169.698 193.214 173.332 190.752C181.579 185.571 189.246 179.519 196.2 172.7C200.761 168.211 204.04 162.585 205.696 156.404C206.507 152.11 206.542 147.706 205.8 143.4C204.399 133.002 201.101 122.949 196.07 113.742L197.244 113.04C202.383 122.377 205.722 132.596 207.09 143.166C207.829 147.633 207.789 152.194 206.972 156.648C205.319 163.079 201.91 168.923 197.126 173.528C190.128 180.454 182.383 186.582 174.034 191.8C170.518 194.268 166.766 196.73 163.25 199.426Z" fill="black"/>
<path d="M179.426 168.128C168.721 171.685 157.139 171.602 146.486 167.892C147.542 165.782 148.948 163.908 150.004 161.796C159.919 163.578 170.094 163.298 179.896 160.976C180.095 163.37 179.936 165.78 179.426 168.128Z" fill="#FDB849"/>
<path d="M179.31 137.296L188.11 141.166C189.048 141.516 190.11 142.22 189.986 143.276C189.868 143.978 189.164 144.564 189.164 145.276C189.164 145.988 189.634 146.566 189.516 147.152C189.4 148.206 187.992 148.676 187.516 149.73C187.164 150.552 187.632 151.73 186.93 152.31C186.566 152.586 186.173 152.822 185.758 153.014C185.054 153.364 184.702 154.068 184.116 154.538C183.344 155.039 182.479 155.38 181.573 155.541C180.667 155.702 179.737 155.679 178.84 155.474C177.29 155.247 175.761 154.895 174.268 154.42C176.42 153.034 179.023 152.533 181.536 153.02C180.014 152.668 178.49 152.198 176.966 151.964C176.439 151.878 175.926 151.721 175.442 151.496C174.998 151.208 174.602 150.851 174.268 150.44C173.496 149.311 173.054 147.988 172.993 146.622C172.931 145.255 173.251 143.898 173.918 142.704C174.974 140.29 176.899 138.36 179.31 137.296Z" fill="#F2BF8C"/>
<path d="M186.694 78.566C184.584 74.932 179.662 73.644 175.558 74.698C171.56 76.0121 167.912 78.2169 164.89 81.146C151.392 93.4549 140.025 107.913 131.248 123.934C129.779 125.968 129.111 128.471 129.372 130.966C129.958 132.86 131.102 134.533 132.654 135.766C143.39 145.691 157.036 151.898 171.572 153.468C174.519 151.948 176.902 149.524 178.372 146.552C180.13 143.425 181.32 140.012 181.888 136.47C175.732 131.411 168.584 127.697 160.906 125.568C166.306 120.768 171.69 115.604 176.73 110.568C181.186 106.112 185.64 101.306 187.984 95.446C189.165 92.7413 189.665 89.7882 189.44 86.8454C189.216 83.9026 188.273 81.0598 186.694 78.566Z" fill="#FDB849"/>
<path d="M222.332 342.09L222.684 342.794C223.386 343.966 225.262 344.552 226.318 345.138C228.046 346.013 229.855 346.719 231.718 347.248C235.745 348.577 239.857 349.635 244.026 350.414C248.243 351.153 252.527 351.428 256.804 351.234C260.228 351.173 263.64 350.819 267.004 350.178C267.24 349.476 267.59 348.778 267.826 348.068C268.304 347.947 268.772 347.791 269.226 347.6C267.936 339.98 259.966 339.98 256.096 338.926C251.383 336.543 246.839 333.84 242.496 330.836C242.848 328.962 243.2 326.968 243.434 325.092C243.552 324.272 243.552 323.218 243.082 322.866C242.972 322.768 242.841 322.695 242.699 322.654C242.557 322.613 242.408 322.605 242.262 322.63C241.502 322.574 240.74 322.694 240.034 322.982C238.98 323.452 237.924 323.804 236.87 324.272C235.771 324.627 234.768 325.228 233.938 326.03C233.469 326.5 233.119 327.074 232.915 327.706C232.711 328.338 232.66 329.009 232.766 329.664C230.892 327.664 229.016 325.562 227.14 323.568C226.666 324.74 226.312 325.958 226.084 327.202C225.968 328.492 226.554 330.016 227.484 330.134C225.882 332.909 223.577 335.214 220.802 336.816C220.568 336.932 220.332 337.05 220.332 337.402C220.314 337.605 220.355 337.808 220.45 337.988C220.76 339.48 221.404 340.882 222.332 342.09Z" fill="#643CFF"/>
<path d="M245.894 349.71C248.764 350.195 251.661 350.509 254.568 350.648C257.618 350.746 260.671 350.668 263.712 350.414C264.884 350.296 265.94 350.178 267.112 350.062C267.334 349.376 267.608 348.707 267.932 348.062H268.05C259.962 348.532 251.99 348.532 243.902 348.766C243.08 348.785 242.257 348.747 241.44 348.65C242.872 349.195 244.37 349.551 245.894 349.71Z" fill="white"/>
<path d="M246.48 349.242C243.454 348.895 240.443 348.428 237.454 347.842C234.796 347.342 232.173 346.674 229.6 345.842C226.979 344.882 224.496 343.581 222.214 341.974V342.09C221.059 343.334 219.663 344.332 218.112 345.022C218.266 347.87 218.859 350.677 219.87 353.344C222.676 354.315 225.588 354.945 228.544 355.22C231.394 355.256 234.183 354.394 236.516 352.758C237.178 352.383 237.925 352.186 238.685 352.186C239.445 352.186 240.193 352.383 240.854 352.758C242.217 353.44 243.479 354.307 244.604 355.336C250.582 360.136 258.906 355.806 265.588 352.992C266.194 352.13 266.666 351.181 266.988 350.178C266.012 350.237 265.034 350.237 264.058 350.178C258.32 350.062 252.342 349.944 246.48 349.242ZM241.088 339.042L240.384 337.87C242.961 336.467 245.077 334.351 246.48 331.774L247.652 332.478C246.089 335.213 243.823 337.479 241.088 339.042ZM247.3 340.918L246.246 339.98C247.889 338.054 249.341 335.974 250.582 333.768L251.756 334.47C250.516 336.779 249.021 338.942 247.3 340.918ZM235.812 336.346L235.226 335.056C237.998 333.947 240.483 332.223 242.494 330.016L243.55 330.836C241.483 333.303 238.819 335.2 235.812 336.346Z" fill="black"/>
<path d="M144.728 351.702C144.61 351.702 144.61 351.82 144.728 351.702C144.728 352.054 144.962 352.172 145.08 352.524C145.99 353.808 147.196 354.853 148.596 355.572C150.222 356.705 151.949 357.685 153.754 358.502C157.568 360.35 161.528 361.879 165.594 363.074C169.597 364.253 173.732 364.924 177.902 365.074C181.189 365.25 184.484 365.133 187.75 364.724C188.076 363.961 188.35 363.177 188.57 362.378C188.922 362.262 189.508 362.144 189.97 362.026C188.914 353.226 181.17 352.532 177.544 351.008C175.668 350.188 168.166 343.74 164.532 340.692C165.006 338.525 165.358 336.334 165.586 334.128C165.785 333.215 165.661 332.261 165.234 331.43C165.147 331.327 165.039 331.243 164.919 331.183C164.798 331.123 164.667 331.088 164.532 331.08C163.822 330.917 163.079 331 162.422 331.314C161.366 331.666 160.31 332.134 159.256 332.486C158.172 332.797 157.197 333.406 156.442 334.244C155.953 334.797 155.594 335.453 155.391 336.163C155.188 336.873 155.147 337.62 155.27 338.348C153.512 335.886 151.754 333.306 149.996 330.844C149.398 332.137 149.04 333.527 148.94 334.948C148.822 336.472 149.292 338.23 150.23 338.464C148.705 341.418 146.392 343.894 143.548 345.616C143.314 345.732 143.078 345.85 143.078 346.202V346.788C143.289 348.521 143.851 350.193 144.728 351.702Z" fill="#9778FF"/>
<path d="M167.118 363.542C169.912 364.467 172.773 365.172 175.676 365.652C178.526 365.828 181.384 365.828 184.234 365.652C185.439 365.511 186.598 365.111 187.634 364.48C187.87 363.778 188.22 362.956 188.456 362.254C188.456 362.254 182.712 364.716 161.728 360.73C163.45 361.804 165.252 362.744 167.118 363.542Z" fill="white"/>
<path d="M168.876 363.308C166.064 362.37 161.96 360.378 159.146 359.44C156.581 358.637 154.074 357.658 151.644 356.51C149.1 355.232 146.768 353.572 144.728 351.586V351.702C143.661 353.021 142.294 354.065 140.742 354.75C140.846 358.035 141.315 361.299 142.142 364.48C144.772 365.8 147.573 366.747 150.464 367.294C153.216 367.588 155.978 366.834 158.2 365.184C158.857 364.811 159.612 364.645 160.365 364.707C161.119 364.77 161.836 365.059 162.422 365.536C163.771 366.467 164.993 367.571 166.056 368.818C171.682 374.796 179.888 370.46 186.336 367.762C186.942 366.816 187.413 365.79 187.736 364.714C187.002 364.88 186.258 364.998 185.508 365.066C182.676 365.476 179.809 365.593 176.952 365.418C174.201 364.964 171.498 364.258 168.876 363.308ZM162.898 349.6L162.078 348.428C164.527 346.861 166.607 344.781 168.174 342.332L169.346 343.154C167.692 345.747 165.491 347.947 162.898 349.6ZM168.876 352.29L167.704 351.352C169.378 349.239 170.831 346.96 172.042 344.552L173.332 345.256C172.141 347.774 170.644 350.137 168.876 352.29ZM157.974 346.2L157.388 344.91C160.214 343.847 162.69 342.02 164.54 339.634L165.712 340.456C163.674 343.008 161.007 344.988 157.974 346.2ZM208.734 25.464C207.291 22.8314 205.241 20.5806 202.754 18.898C201.7 18.196 197.246 16.788 195.954 17.96C188.216 25.228 185.872 36.96 180.246 45.978C174.736 55.004 167.586 63.092 163.952 73.056C162.688 76.1842 162.05 79.5302 162.076 82.904C162.566 86.4258 164.216 89.684 166.764 92.164C160.786 82.318 168.64 69.774 174.964 60.514C177.544 56.762 180.364 53.598 183.052 49.964C190.086 40.702 194.072 30.856 200.872 20.306C203.681 21.7205 206.318 23.451 208.734 25.464Z" fill="black"/>
</g>
<defs>
<clipPath id="clip0_902_9075">
<rect width="400" height="400" fill="white"/>
</clipPath>
</defs>
</svg>
