<svg width="400" height="400" viewBox="0 0 400 400" fill="none" xmlns="http://www.w3.org/2000/svg">
<path d="M342.467 64.2231L337.5 62.5H275L270.033 64.2231C254.865 69.7308 241.782 79.8153 232.595 93.0821C223.408 106.349 218.57 122.142 218.75 138.279V375C218.75 379.973 220.725 384.742 224.242 388.258C227.758 391.775 232.527 393.75 237.5 393.75H254.775C257.096 393.75 259.371 393.104 261.346 391.883C263.321 390.663 264.917 388.917 265.955 386.84L267.352 384.045C267.772 383.205 268.418 382.499 269.217 382.005C270.015 381.511 270.936 381.25 271.875 381.25C272.814 381.25 273.735 381.511 274.533 382.005C275.332 382.499 275.978 383.205 276.398 384.045L277.795 386.84C278.833 388.917 280.429 390.663 282.404 391.883C284.378 393.104 286.654 393.75 288.975 393.75H323.525C325.846 393.75 328.121 393.104 330.096 391.883C332.071 390.663 333.667 388.917 334.705 386.84L336.102 384.045C336.522 383.205 337.168 382.499 337.967 382.005C338.765 381.511 339.686 381.25 340.625 381.25C341.564 381.25 342.485 381.511 343.283 382.005C344.082 382.499 344.728 383.205 345.148 384.045L346.545 386.84C347.583 388.917 349.179 390.663 351.154 391.883C353.128 393.104 355.404 393.75 357.725 393.75H375C379.973 393.75 384.742 391.775 388.258 388.258C391.775 384.742 393.75 379.973 393.75 375V138.279C393.93 122.142 389.092 106.349 379.905 93.0821C370.718 79.8153 357.635 69.7308 342.467 64.2231Z" fill="#33DDFF" stroke="#231F20" stroke-width="6.25" stroke-linecap="round" stroke-linejoin="round"/>
<path d="M250 381.25V138.279C250 104.679 251.907 74.8486 282.533 64.2231L287.5 62.5H275L270.033 64.2231C254.865 69.7308 241.782 79.8153 232.595 93.0821C223.408 106.349 218.57 122.142 218.75 138.279V375C218.75 379.973 220.725 384.742 224.242 388.258C227.758 391.775 232.527 393.75 237.5 393.75H254.774C256.091 393.734 257.396 393.507 258.641 393.08C256.136 392.274 253.95 390.695 252.398 388.569C250.846 386.444 250.006 383.882 250 381.25Z" fill="#3380FF" stroke="#3380FF" stroke-width="6.25" stroke-linecap="round" stroke-linejoin="round"/>
<path d="M393.75 156.25H218.75V306.25H393.75V156.25Z" fill="#3380FF" stroke="#231F20" stroke-width="6.25" stroke-linecap="round" stroke-linejoin="round"/>
<path d="M218.75 253.125C232.508 246.945 247.418 243.75 262.5 243.75C277.582 243.75 292.492 246.945 306.25 253.125C320.008 259.305 334.918 262.5 350 262.5C365.082 262.5 379.992 259.305 393.75 253.125V209.375C379.992 215.555 365.082 218.75 350 218.75C334.918 218.75 320.008 215.555 306.25 209.375C292.492 203.195 277.582 200 262.5 200C247.418 200 232.508 203.195 218.75 209.375V253.125Z" fill="white" stroke="#231F20" stroke-width="6.25" stroke-linecap="round" stroke-linejoin="round"/>
<path d="M268.75 43.75L343.75 43.75C347.202 43.75 350 40.9518 350 37.5V12.5C350 9.04822 347.202 6.25 343.75 6.25L268.75 6.25C265.298 6.25 262.5 9.04822 262.5 12.5V37.5C262.5 40.9518 265.298 43.75 268.75 43.75Z" fill="white" stroke="#231F20" stroke-width="6.25" stroke-linecap="round" stroke-linejoin="round"/>
<path d="M337.5 43.75H275V62.5H337.5V43.75Z" fill="#33DDFF" stroke="#231F20" stroke-width="6.25" stroke-linecap="round" stroke-linejoin="round"/>
<path d="M250 156.25H218.75V306.25H250V156.25Z" fill="#1E4BDD" stroke="#1E4BDD" stroke-width="6.25" stroke-linecap="round" stroke-linejoin="round"/>
<path d="M218.75 253.125C228.552 248.353 239.142 245.41 250 244.44V200.793C239.145 201.712 228.552 204.621 218.75 209.375V253.125Z" fill="#C8D4FA" stroke="#C8D4FA" stroke-width="6.25" stroke-linecap="round" stroke-linejoin="round"/>
<path d="M287.5 43.75H275V62.5H287.5V43.75Z" fill="#3380FF" stroke="#3380FF" stroke-width="6.25" stroke-linecap="round" stroke-linejoin="round"/>
<path d="M342.467 64.2231L337.5 62.5H275L270.033 64.2231C254.865 69.7308 241.782 79.8153 232.595 93.0821C223.408 106.349 218.57 122.142 218.75 138.279V375C218.75 379.973 220.725 384.742 224.242 388.258C227.758 391.775 232.527 393.75 237.5 393.75H254.775C257.096 393.75 259.371 393.104 261.346 391.883C263.321 390.663 264.917 388.917 265.955 386.84L267.352 384.045C267.772 383.205 268.418 382.499 269.217 382.005C270.015 381.511 270.936 381.25 271.875 381.25C272.814 381.25 273.735 381.511 274.533 382.005C275.332 382.499 275.978 383.205 276.398 384.045L277.795 386.84C278.833 388.917 280.429 390.663 282.404 391.883C284.378 393.104 286.654 393.75 288.975 393.75H323.525C325.846 393.75 328.121 393.104 330.096 391.883C332.071 390.663 333.667 388.917 334.705 386.84L336.102 384.045C336.522 383.205 337.168 382.499 337.967 382.005C338.765 381.511 339.686 381.25 340.625 381.25C341.564 381.25 342.485 381.511 343.283 382.005C344.082 382.499 344.728 383.205 345.148 384.045L346.545 386.84C347.583 388.917 349.179 390.663 351.154 391.883C353.128 393.104 355.404 393.75 357.725 393.75H375C379.973 393.75 384.742 391.775 388.258 388.258C391.775 384.742 393.75 379.973 393.75 375V138.279C393.93 122.142 389.092 106.349 379.905 93.0821C370.718 79.8153 357.635 69.7308 342.467 64.2231V64.2231Z" stroke="#231F20" stroke-width="6.25" stroke-linecap="round" stroke-linejoin="round"/>
<path d="M393.75 156.25H218.75V306.25H393.75V156.25Z" stroke="#231F20" stroke-width="6.25" stroke-linecap="round" stroke-linejoin="round"/>
<path d="M218.75 253.125C232.508 246.945 247.418 243.75 262.5 243.75C277.582 243.75 292.492 246.945 306.25 253.125C320.008 259.305 334.918 262.5 350 262.5C365.082 262.5 379.992 259.305 393.75 253.125V209.375C379.992 215.555 365.082 218.75 350 218.75C334.918 218.75 320.008 215.555 306.25 209.375C292.492 203.195 277.582 200 262.5 200C247.418 200 232.508 203.195 218.75 209.375V253.125Z" stroke="#231F20" stroke-width="6.25" stroke-linecap="round" stroke-linejoin="round"/>
<path d="M268.75 43.75L343.75 43.75C347.202 43.75 350 40.9518 350 37.5V12.5C350 9.04822 347.202 6.25 343.75 6.25L268.75 6.25C265.298 6.25 262.5 9.04822 262.5 12.5V37.5C262.5 40.9518 265.298 43.75 268.75 43.75Z" stroke="#231F20" stroke-width="6.25" stroke-linecap="round" stroke-linejoin="round"/>
<path d="M337.5 43.75H275V62.5H337.5V43.75Z" stroke="#231F20" stroke-width="6.25" stroke-linecap="round" stroke-linejoin="round"/>
<path d="M375 325H237.5" stroke="white" stroke-width="6.25" stroke-linecap="round" stroke-linejoin="round"/>
<path d="M262.5 31.25H350" stroke="#231F20" stroke-width="6.25" stroke-linecap="round" stroke-linejoin="round"/>
<path d="M306.25 6.25V31.25" stroke="#231F20" stroke-width="6.25" stroke-linecap="round" stroke-linejoin="round"/>
<path d="M328.125 6.25V31.25" stroke="#231F20" stroke-width="6.25" stroke-linecap="round" stroke-linejoin="round"/>
<path d="M284.375 6.25V31.25" stroke="#231F20" stroke-width="6.25" stroke-linecap="round" stroke-linejoin="round"/>
<path d="M331.25 175H375" stroke="white" stroke-width="6.25" stroke-linecap="round" stroke-linejoin="round"/>
<path d="M343.75 187.5H375" stroke="white" stroke-width="6.25" stroke-linecap="round" stroke-linejoin="round"/>
<path d="M375 287.5H325" stroke="white" stroke-width="6.25" stroke-linecap="round" stroke-linejoin="round"/>
<path d="M375 137.5H237.5" stroke="white" stroke-width="6.25" stroke-linecap="round" stroke-linejoin="round"/>
<path d="M190.989 274.405L190.704 274.523C189.197 275.147 187.507 275.157 185.993 274.552C184.479 273.947 183.261 272.774 182.599 271.284L86.2266 54.1347C85.8883 53.3725 85.706 52.5503 85.6903 51.7165C85.6747 50.8827 85.826 50.0542 86.1355 49.2799C86.445 48.5055 86.9063 47.8009 87.4923 47.2076C88.0782 46.6142 88.777 46.1441 89.5475 45.825L100.804 41.1625C101.574 40.8434 102.401 40.6817 103.235 40.6869C104.068 40.6921 104.893 40.8641 105.659 41.1929C106.426 41.5216 107.118 42.0004 107.697 42.601C108.275 43.2016 108.728 43.9119 109.028 44.6901L194.43 266.384C195.016 267.905 194.984 269.596 194.341 271.094C193.698 272.593 192.495 273.781 190.989 274.405Z" fill="#FFFCDF" stroke="#231F20" stroke-width="6.25" stroke-linecap="round" stroke-linejoin="round"/>
<path d="M92.1467 51.6823C91.8085 50.92 91.6262 50.0978 91.6106 49.2641C91.5949 48.4303 91.7463 47.6019 92.0558 46.8276C92.3653 46.0532 92.8266 45.3486 93.4126 44.7553C93.9985 44.162 94.6973 43.6919 95.4677 43.3728L89.5476 45.8251C88.7772 46.1442 88.0784 46.6142 87.4924 47.2076C86.9065 47.8009 86.4452 48.5055 86.1357 49.2798C85.8262 50.0542 85.6748 50.8826 85.6904 51.7163C85.706 52.5501 85.8883 53.3723 86.2266 54.1345L182.6 271.284C183.975 274.383 92.1467 51.6823 92.1467 51.6823Z" fill="#EAB46D" stroke="#EAB46D" stroke-width="6.25" stroke-linecap="round" stroke-linejoin="round"/>
<path d="M190.989 274.405L190.704 274.523C189.197 275.147 187.507 275.157 185.993 274.552C184.479 273.947 183.261 272.774 182.599 271.284L86.2266 54.1347C85.8883 53.3725 85.706 52.5503 85.6903 51.7165C85.6747 50.8827 85.826 50.0542 86.1355 49.2799C86.445 48.5055 86.9063 47.8009 87.4923 47.2076C88.0782 46.6142 88.777 46.1441 89.5475 45.825L100.804 41.1625C101.574 40.8434 102.401 40.6817 103.235 40.6869C104.068 40.6921 104.893 40.8641 105.659 41.1929C106.426 41.5216 107.118 42.0004 107.697 42.601C108.275 43.2016 108.728 43.9119 109.028 44.6901L194.43 266.384C195.016 267.905 194.984 269.596 194.341 271.094C193.698 272.593 192.495 273.781 190.989 274.405V274.405Z" stroke="#231F20" stroke-width="6.25" stroke-linecap="round" stroke-linejoin="round"/>
<path d="M212.461 247.951L212.243 248.169C211.09 249.322 209.532 249.979 207.902 250C206.271 250.02 204.698 249.402 203.516 248.278L31.3799 84.5391C30.7757 83.9643 30.2926 83.2745 29.9591 82.5102C29.6256 81.7459 29.4484 80.9225 29.438 80.0887C29.4276 79.2549 29.5841 78.4274 29.8984 77.6549C30.2127 76.8825 30.6784 76.1808 31.2681 75.5912L39.8832 66.9761C40.4729 66.3864 41.1746 65.9207 41.947 65.6064C42.7194 65.2921 43.5469 65.1356 44.3807 65.146C45.2145 65.1564 46.0379 65.3336 46.8022 65.6671C47.5665 66.0006 48.2563 66.4837 48.8311 67.0879L212.571 239.224C213.694 240.406 214.312 241.979 214.292 243.61C214.271 245.24 213.614 246.798 212.461 247.951Z" fill="#FFFCDF" stroke="#231F20" stroke-width="6.25" stroke-linecap="round" stroke-linejoin="round"/>
<path d="M35.9109 80.0078C35.3067 79.4331 34.8237 78.7432 34.4902 77.9789C34.1567 77.2146 33.9795 76.3913 33.9691 75.5574C33.9587 74.7236 34.1153 73.8961 34.4296 73.1237C34.7439 72.3513 35.2096 71.6497 35.7992 71.06L31.268 75.5913C30.6783 76.1809 30.2126 76.8826 29.8983 77.655C29.584 78.4274 29.4275 79.2549 29.4379 80.0887C29.4483 80.9225 29.6254 81.7458 29.9589 82.5102C30.2924 83.2745 30.7755 83.9643 31.3797 84.5391L203.516 248.278C205.973 250.616 35.9109 80.0078 35.9109 80.0078Z" fill="#EAB46D" stroke="#EAB46D" stroke-width="6.25" stroke-linecap="round" stroke-linejoin="round"/>
<path d="M212.461 247.951L212.243 248.169C211.09 249.322 209.532 249.979 207.902 250C206.271 250.02 204.698 249.402 203.516 248.278L31.3799 84.5391C30.7757 83.9643 30.2926 83.2745 29.9591 82.5102C29.6256 81.7459 29.4484 80.9225 29.438 80.0887C29.4276 79.2549 29.5841 78.4274 29.8984 77.6549C30.2127 76.8825 30.6784 76.1808 31.2681 75.5912L39.8832 66.9761C40.4729 66.3864 41.1746 65.9207 41.947 65.6064C42.7194 65.2921 43.5469 65.1356 44.3807 65.146C45.2145 65.1564 46.0379 65.3336 46.8022 65.6671C47.5665 66.0006 48.2563 66.4837 48.8311 67.0879L212.571 239.224C213.694 240.406 214.312 241.979 214.292 243.61C214.271 245.24 213.614 246.798 212.461 247.951Z" stroke="#231F20" stroke-width="6.25" stroke-linecap="round" stroke-linejoin="round"/>
<path d="M252.393 259.675C251.622 259.395 250.913 258.965 250.307 258.411C249.702 257.857 249.212 257.189 248.865 256.445C248.518 255.701 248.32 254.896 248.284 254.076C248.248 253.256 248.374 252.437 248.655 251.666C253.2 239.213 262.498 229.071 274.511 223.465C286.523 217.859 300.269 217.247 312.732 221.763C314.29 222.33 315.559 223.492 316.26 224.994C316.961 226.496 317.036 228.215 316.47 229.773C315.903 231.331 314.741 232.6 313.239 233.301C311.737 234.002 310.018 234.077 308.46 233.511C299.113 230.123 288.803 230.582 279.794 234.786C270.784 238.991 263.811 246.598 260.403 255.938C260.122 256.709 259.693 257.418 259.138 258.023C258.584 258.629 257.916 259.119 257.172 259.466C256.428 259.813 255.623 260.01 254.803 260.046C253.983 260.082 253.164 259.956 252.393 259.675Z" fill="#FFD540" stroke="#231F20" stroke-width="6.25" stroke-linecap="round" stroke-linejoin="round"/>
<path d="M154.438 243.75C154.438 216.136 182.42 193.75 216.938 193.75C251.455 193.75 279.438 216.136 279.438 243.75H154.438Z" fill="#FFD540" stroke="#231F20" stroke-width="6.25" stroke-linecap="round" stroke-linejoin="round"/>
<path d="M170.062 243.75C170.062 223.039 191.049 206.25 216.938 206.25C242.826 206.25 263.812 223.039 263.812 243.75H170.062Z" fill="#FFD540" stroke="#231F20" stroke-width="6.25" stroke-linecap="round" stroke-linejoin="round"/>
<path d="M245.062 262.5C257.144 262.5 266.938 252.706 266.938 240.625C266.938 228.544 257.144 218.75 245.062 218.75C232.981 218.75 223.188 228.544 223.188 240.625C223.188 252.706 232.981 262.5 245.062 262.5Z" fill="#F87D30" stroke="#231F20" stroke-width="6.25" stroke-linecap="round" stroke-linejoin="round"/>
<path d="M185.688 243.75C185.688 229.943 199.679 218.75 216.938 218.75C234.196 218.75 248.188 229.943 248.188 243.75H185.688Z" fill="#FFD540" stroke="#231F20" stroke-width="6.25" stroke-linecap="round" stroke-linejoin="round"/>
<path d="M201.312 243.75C201.771 240.04 203.662 236.656 206.581 234.32C209.501 231.985 213.217 230.883 216.938 231.25C220.658 230.883 224.374 231.985 227.294 234.32C230.213 236.656 232.104 240.04 232.562 243.75H201.312Z" fill="#FFD540" stroke="#231F20" stroke-width="6.25" stroke-linecap="round" stroke-linejoin="round"/>
<path d="M29.4375 243.75C29.4375 209.232 63.0161 181.25 104.437 181.25C145.859 181.25 179.438 209.232 179.438 243.75H29.4375Z" fill="#FFD540" stroke="#231F20" stroke-width="6.25" stroke-linecap="round" stroke-linejoin="round"/>
<path d="M107.116 181.363C106.22 181.336 105.342 181.25 104.437 181.25C63.0161 181.25 29.4375 209.232 29.4375 243.75H34.7946C34.7947 209.986 66.9461 182.548 107.116 181.363Z" fill="#FF991F" stroke="#FF991F" stroke-width="6.25" stroke-linecap="round" stroke-linejoin="round"/>
<path d="M29.4375 243.75C29.4375 209.232 63.0161 181.25 104.437 181.25C145.859 181.25 179.438 209.232 179.438 243.75H29.4375Z" stroke="#231F20" stroke-width="6.25" stroke-linecap="round" stroke-linejoin="round"/>
<path d="M44.4375 243.75C44.4375 216.136 71.3004 193.75 104.437 193.75C137.575 193.75 164.437 216.136 164.437 243.75H44.4375Z" fill="#FFD540" stroke="#231F20" stroke-width="6.25" stroke-linecap="round" stroke-linejoin="round"/>
<path d="M59.4375 243.75C59.4375 223.039 79.5847 206.25 104.437 206.25C129.29 206.25 149.438 223.039 149.438 243.75H59.4375Z" fill="#FFD540" stroke="#231F20" stroke-width="6.25" stroke-linecap="round" stroke-linejoin="round"/>
<path d="M74.4375 243.75C74.4375 229.943 87.8687 218.75 104.437 218.75C121.006 218.75 134.438 229.943 134.438 243.75H74.4375Z" fill="#FFD540" stroke="#231F20" stroke-width="6.25" stroke-linecap="round" stroke-linejoin="round"/>
<path d="M250.523 393.75H64.1972C61.4096 393.75 58.7019 392.818 56.5046 391.103C54.3073 389.387 52.7466 386.986 52.0704 384.282L16.9375 243.75H291.938L262.761 383.799C262.175 386.612 260.638 389.136 258.409 390.948C256.181 392.761 253.396 393.75 250.523 393.75Z" fill="#D62030" stroke="#231F20" stroke-width="6.25" stroke-linecap="round" stroke-linejoin="round"/>
<path d="M272.406 337.5L280.219 300H31L40.375 337.5H272.406Z" fill="#FF8B00" stroke="#231F20" stroke-width="6.25" stroke-linecap="round" stroke-linejoin="round"/>
<path d="M250.523 393.75H127.527C124.568 393.75 121.705 392.7 119.447 390.788C117.189 388.875 115.683 386.224 115.197 383.305L91.9375 243.75H291.938L262.761 383.799C262.175 386.612 260.638 389.136 258.409 390.948C256.181 392.761 253.396 393.75 250.523 393.75Z" fill="#FF3446" stroke="#231F20" stroke-width="6.25" stroke-linecap="round" stroke-linejoin="round"/>
<path d="M272.406 337.5L280.219 300H101.312L107.562 337.5H272.406Z" fill="#FFC800" stroke="#231F20" stroke-width="6.25" stroke-linecap="round" stroke-linejoin="round"/>
<path d="M195.062 362.5C219.225 362.5 238.812 342.912 238.812 318.75C238.812 294.588 219.225 275 195.062 275C170.9 275 151.312 294.588 151.312 318.75C151.312 342.912 170.9 362.5 195.062 362.5Z" fill="white" stroke="#231F20" stroke-width="6.25" stroke-linecap="round" stroke-linejoin="round"/>
<path d="M195.062 350C212.321 350 226.312 336.009 226.312 318.75C226.312 301.491 212.321 287.5 195.062 287.5C177.804 287.5 163.812 301.491 163.812 318.75C163.812 336.009 177.804 350 195.062 350Z" fill="#FFC800" stroke="#FFC800" stroke-width="6.25" stroke-linecap="round" stroke-linejoin="round"/>
<path d="M176.312 318.75H213.812" stroke="white" stroke-width="6.25" stroke-linecap="round" stroke-linejoin="round"/>
<path d="M182.562 334.375H207.562" stroke="white" stroke-width="6.25" stroke-linecap="round" stroke-linejoin="round"/>
<path d="M182.562 303.125H207.562" stroke="white" stroke-width="6.25" stroke-linecap="round" stroke-linejoin="round"/>
<path d="M157.562 268.75C169.644 268.75 179.438 258.956 179.438 246.875C179.438 234.794 169.644 225 157.562 225C145.481 225 135.688 234.794 135.688 246.875C135.688 258.956 145.481 268.75 157.562 268.75Z" fill="#F87D30" stroke="#231F20" stroke-width="6.25" stroke-linecap="round" stroke-linejoin="round"/>
<path d="M308.179 281.25H121.955C120.411 281.25 118.892 280.869 117.531 280.141C116.17 279.412 115.011 278.359 114.154 277.075L91.9375 243.75H291.938L312.079 273.962C312.55 274.668 312.82 275.489 312.861 276.336C312.902 277.184 312.712 278.026 312.312 278.774C311.911 279.522 311.315 280.148 310.588 280.584C309.86 281.02 309.027 281.25 308.179 281.25Z" fill="white" stroke="#231F20" stroke-width="6.25" stroke-linecap="round" stroke-linejoin="round"/>
<path d="M72.6804 281.25H10.941C10.1983 281.25 9.46617 281.073 8.80503 280.735C8.14388 280.397 7.57263 279.906 7.13834 279.303C6.70405 278.701 6.41916 278.004 6.30715 277.269C6.19514 276.535 6.25921 275.785 6.49409 275.08L16.9375 243.75H91.9375L81.5742 274.84C80.952 276.706 79.7582 278.33 78.162 279.48C76.5658 280.631 74.648 281.25 72.6804 281.25Z" fill="#E4E4E4" stroke="#231F20" stroke-width="6.25" stroke-linecap="round" stroke-linejoin="round"/>
<path d="M129.278 243.75H143.906C139.655 234.776 132.475 227.516 123.548 223.167C114.621 218.817 104.48 217.636 94.7922 219.819C85.105 222.001 76.4495 227.417 70.2507 235.175C64.0518 242.933 60.679 252.57 60.6875 262.5C60.6778 270.785 57.3822 278.728 51.5238 284.586C45.6654 290.445 37.7225 293.74 29.4375 293.75C27.7799 293.75 26.1902 294.408 25.0181 295.581C23.846 296.753 23.1875 298.342 23.1875 300C23.1875 301.658 23.846 303.247 25.0181 304.419C26.1902 305.592 27.7799 306.25 29.4375 306.25C41.0366 306.236 52.1567 301.623 60.3585 293.421C68.5603 285.219 73.174 274.099 73.1875 262.5C73.1652 255.95 75.2087 249.56 79.0273 244.238C82.8458 238.916 88.2451 234.934 94.4573 232.857C100.669 230.78 107.378 230.715 113.63 232.671C119.881 234.626 125.356 238.503 129.278 243.75H129.278Z" fill="#FFD540" stroke="#231F20" stroke-width="6.25" stroke-linecap="round" stroke-linejoin="round"/>
<path d="M222.677 260.028C218.855 251.18 212.559 243.625 204.546 238.27C196.534 232.915 187.145 229.987 177.508 229.84C178.63 233.941 179.25 238.164 179.357 242.415C186.222 242.892 192.823 245.248 198.438 249.226C204.054 253.204 208.467 258.65 211.194 264.968C211.85 266.49 213.083 267.69 214.623 268.303C216.162 268.916 217.882 268.893 219.405 268.238C220.927 267.583 222.127 266.35 222.741 264.81C223.354 263.271 223.331 261.55 222.676 260.028L222.677 260.028Z" fill="#FFD540" stroke="#231F20" stroke-width="6.25" stroke-linecap="round" stroke-linejoin="round"/>
</svg>
