<svg width="400" height="400" viewBox="0 0 400 400" fill="none" xmlns="http://www.w3.org/2000/svg">
<path d="M321.52 148.54C324.32 143.666 323.57 136.908 315.332 140.636L306 116L289.082 112.126L278.724 116C278.724 116 273.46 123.55 273.46 126.622C273.46 129.694 274.188 135.882 274.188 135.882C273.02 138.094 272.312 140.519 272.104 143.012C272.278 145.744 276.472 160.466 279.32 162.212C282.168 163.958 288.638 162.954 288.638 162.954L289.838 169.31L278.27 171.096C278.27 171.096 277.304 181.762 284.798 182.19C292.292 182.618 321.528 174.07 321.528 174.07L312.664 170.07L311.49 153.98C311.49 153.98 318.728 153.414 321.52 148.54ZM275.35 136.322C275.242 135.555 275.394 134.775 275.78 134.104C275.78 134.104 276.316 133.504 278.104 134.006C279.432 134.561 280.574 135.481 281.4 136.66C279.934 137.42 278.364 137.959 276.74 138.26C276.142 138.224 275.512 137.664 275.35 136.322ZM282.11 153.2C280.51 152.8 278.724 149.436 278.724 149.436L284.378 149.104L292.178 149.492C287.754 153.702 283.71 153.6 282.11 153.2ZM292 138.98C291.456 138.874 291.114 138.428 290.636 137.238C290.158 136.048 291.47 134.392 291.47 134.392C292.078 134.428 292.688 134.428 293.296 134.392C294.312 134.332 298.432 137.856 298.432 137.856C296.35 138.525 294.186 138.903 292 138.98Z" fill="#FFE8BB"/>
<path d="M89.1339 129.286C89.1339 129.286 79.9999 132.8 78.1879 135.474C76.3759 138.148 72.3779 138.896 75.3119 145.178C75.3119 145.178 71.6959 149.256 74.1379 153.498C74.1379 153.498 94.1919 140.298 98.7759 139.638C103.36 138.978 126.062 151.908 135.856 158.652L145.796 162.754C145.796 162.754 152.746 155.666 152.878 147.68C152.964 142.917 152.426 138.163 151.278 133.54C151.278 133.54 149.538 133.884 148.496 134.218C147.739 134.391 146.946 134.314 146.236 134L140.358 148C140.358 148 131.758 138.166 124.062 133.75C116.366 129.334 108.366 117.644 89.1339 129.286Z" fill="#55DEFF"/>
<path d="M174.918 170.71H174.356C173.367 170.71 172.389 170.915 171.483 171.311C170.577 171.707 169.763 172.287 169.092 173.014C168.42 173.74 167.907 174.598 167.584 175.532C167.26 176.467 167.134 177.458 167.212 178.444L168.08 189.326C168.692 187.828 169.619 186.479 170.799 185.371C171.979 184.264 173.384 183.424 174.918 182.908V170.71Z" fill="#55DEFF"/>
<path d="M71.266 180.382C71.266 180.382 82.126 163.234 99.964 160.068C117.802 156.902 120.654 174.622 120.654 174.622L123.822 194.4L132.126 195.65L131.656 203.29L137.1 200.49L141.068 207.334C141.068 207.334 143.376 202.216 145.098 201.754C148.048 200.72 150.766 199.117 153.098 197.036C155.828 194.598 164.752 188.888 168.072 189.324C168.858 187.585 170.027 186.046 171.49 184.821C172.954 183.596 174.675 182.717 176.526 182.25C181.134 180.937 185.452 178.765 189.254 175.85L197.454 196.582L194.49 199C194.49 199 196.052 204.726 192.69 204.872C189.328 205.018 192.936 214.658 184.838 215.78C184.838 215.78 183.366 215.556 182.602 217.548C181.838 219.54 172.764 231.674 169.852 233.256C166.94 234.838 147.706 251.826 134.58 253.704C121.454 255.582 91.6 219.418 91.6 219.418C91.6 219.418 73.086 209.418 70.628 198.798C69.1116 192.721 69.3326 186.34 71.266 180.382Z" fill="#55DEFF"/>
<path d="M73.272 303.584L76.164 311.296C76.164 311.296 126.752 315.532 137.722 316.168C148.692 316.804 177.694 307.32 177.694 307.32C178.597 304.366 179.041 301.29 179.01 298.2C179.01 298.2 138.428 302.116 123.682 302.448L73.272 303.584Z" fill="#55DEFF"/>
<path d="M172.84 230.944C172.84 230.944 175.886 266.39 176.416 269.436C176.946 272.482 181.178 288.036 181.174 290.164C181.17 292.292 181.428 295.774 179.01 298.2L177.694 307.32L182.666 324.384C182.666 324.384 191.05 324.898 194.142 323.89C197.234 322.882 195.854 320.648 195.854 320.648L194.542 309.402C195.822 305.77 196.734 302.018 197.262 298.202C197.222 294.358 195.688 290.68 192.984 287.946C194.541 282.756 194.81 277.264 193.766 271.946C192.198 261.98 187.966 256.576 186.648 245.994C185.337 237.474 183.493 229.044 181.128 220.754L172.84 230.944Z" fill="#55DEFF"/>
<path d="M278.724 116C278.724 116 282.584 114.432 284.26 113.764C286.098 115.032 288.096 116.053 290.2 116.8C291.624 116.884 299.512 115.704 299.512 115.704C301.232 117.332 302.394 119.461 302.832 121.788C303.748 125.936 308.194 126.434 308.978 126.728C309.762 127.022 309.338 131.452 309.338 131.452L308.666 136.652C308.958 138.345 309.544 139.974 310.398 141.464L311.474 142.784C311.474 142.784 309.156 146.27 308.212 146.23C307.268 146.19 303.346 147.136 302.904 148.256C302.462 149.376 303.234 149.818 305.53 149.77C307.822 149.456 309.928 148.34 311.474 146.62C312.87 144.694 314.156 142.691 315.328 140.62C315.328 140.62 320.182 139.706 320.34 139.62C320.498 139.534 322.212 141.646 322.212 141.646C323.266 140.023 324.012 138.219 324.412 136.326C324.286 134.836 324.234 130.59 324.234 130.59L325.148 125.334C326.838 125.724 328.596 125.7 330.274 125.264C330.94 124.954 331.534 124.507 332.016 123.953C332.498 123.399 332.858 122.749 333.072 122.046C333.288 121.343 333.352 120.603 333.262 119.874C333.17 119.145 332.928 118.443 332.548 117.814C333.142 117.399 333.616 116.834 333.922 116.177C334.228 115.52 334.356 114.794 334.292 114.072C334.46 112.778 334.108 111.47 333.318 110.432C332.526 109.394 331.356 108.711 330.064 108.53C327.496 108.354 328.886 108.414 328.886 108.414C328.922 107.278 328.546 106.167 327.824 105.289C327.104 104.41 326.088 103.824 324.966 103.638C320.906 102.956 315.744 103.71 315.546 110.34C315.546 110.34 315.626 108.392 311.774 109.74C310.412 108.333 308.678 107.342 306.774 106.882C304.548 106.784 299.132 104.8 296.52 104.926C292.736 105.464 289.028 106.446 285.474 107.852C283.426 108.776 278.724 116 278.724 116Z" fill="#55DEFF"/>
<path d="M311.82 155.444C313.418 156.308 315.066 157.075 316.756 157.74C317.522 157.955 318.308 158.099 319.1 158.17L319.3 156.03C318.124 155.873 316.972 155.568 315.872 155.122C314.482 154.478 313.592 153.98 313.592 153.98H311.49L311.82 155.444Z" fill="#55DEFF"/>
<path d="M164.496 97.76C164.496 97.76 162.424 86.226 160.096 82.838C160.096 82.838 138.176 75.838 134.018 79.252C129.86 82.666 126.5 87.332 126.54 92.382C126.58 97.432 125.762 104.748 125.762 104.748C125.762 104.748 120.346 92.856 117.198 96.836C114.775 100.084 113.585 104.088 113.84 108.132C114.364 109.328 114.954 110.493 115.61 111.622C115.61 111.622 120 115.498 122.478 115.452L118.064 129.286C118.064 129.286 132.8 140.8 134.42 141.5C136.04 142.2 140.358 148 140.358 148L146.236 134C147.628 134.147 149.036 133.995 150.364 133.553C151.692 133.11 152.91 132.389 153.936 131.436C156.922 128.27 158.916 121.308 160.86 118.73C162.913 114.997 163.725 110.707 163.18 106.482C162.46 103.768 164.496 97.76 164.496 97.76ZM138.846 102.2C141.046 100.944 147.96 102.2 147.96 102.2C147.839 103.499 147.549 104.777 147.096 106C146.915 106.065 146.727 106.106 146.536 106.122L144.852 105.486C143.892 105.068 138.846 102.2 138.846 102.2ZM147.272 123.48C145.536 123.096 141.654 117.454 141.654 117.454L154.548 119.834C154.548 119.834 149 123.866 147.272 123.48ZM160.972 108.132C160.508 108.932 159.404 108.556 159.404 108.556L157.658 107.872L155.628 106.972L154.72 104.044C154.72 104.044 156.504 104.09 157.734 104.114C158.931 104.253 160.109 104.527 161.244 104.93C161.288 106.005 161.197 107.08 160.972 108.132Z" fill="#FFE8BB"/>
<path d="M190.642 178.538L197.208 195.458L202.55 198.012L207.884 198.892H210.788L213.588 200.616L217.998 201.592L221.114 199.7V196.794L223.69 195.298L224.476 192.616L220.786 181.432L218.424 177.814L212.776 177.198L190.642 178.538Z" fill="#FFE8BB"/>
<path d="M254.346 188.364L245.602 198.31L240.656 199.67L235.976 199.604L233.5 199.158L230.848 200.2L226.94 200.356L224.574 198.266L225.018 195.79L223.05 194.12L222.792 191.714L227.648 182.744L230.216 180.024L235.126 180.362L250.348 185.83L254.346 188.364Z" fill="#FFE8BB"/>
<path d="M246.124 197.716C246.124 197.716 278.182 239.022 289.662 243.012C301.142 247.002 315.498 236.258 315.498 236.258L301.612 212.544L295.378 214.28L254.346 188.364L246.124 197.716Z" fill="#FFE8BB"/>
<path d="M247.282 229.448C247.282 229.448 244.428 261.176 243.426 263.28C242.424 265.384 237.794 274.37 237.012 278.362C236.23 282.354 233.312 296.54 237.488 325.84C237.488 325.84 246.342 326.458 248.088 326.274C248.088 326.274 244.974 306.892 247.66 296.148C250.346 285.404 253.516 271.572 260.336 264.812L261.41 255.374L259.01 230.944L247.282 229.448Z" fill="#FFE8BB"/>
<path d="M295.878 215.78L301.612 212.544L298.888 207.894C298.81 207.762 298.784 207.606 298.812 207.456C298.84 207.304 298.922 207.17 299.042 207.074L308.392 199.656L309.802 192.256C309.814 192.17 309.844 192.088 309.888 192.014C309.932 191.94 309.992 191.876 310.062 191.825C310.132 191.775 310.212 191.739 310.296 191.721C310.38 191.702 310.468 191.701 310.554 191.717C310.638 191.733 310.718 191.766 310.79 191.815C310.862 191.863 310.924 191.925 310.97 191.998C311.018 192.071 311.048 192.152 311.064 192.237C311.078 192.323 311.074 192.41 311.054 192.494L309.922 198.446L315.8 193.78C315.866 193.727 315.942 193.688 316.022 193.665C316.102 193.642 316.188 193.634 316.27 193.644C316.354 193.653 316.436 193.678 316.508 193.719C316.582 193.76 316.648 193.814 316.7 193.88C316.752 193.946 316.792 194.021 316.816 194.102C316.838 194.183 316.846 194.267 316.836 194.351C316.828 194.434 316.802 194.515 316.76 194.589C316.72 194.662 316.666 194.727 316.6 194.78L300.276 207.73L317.366 236.91L340.208 219.558C343.538 214.57 348.706 203.4 348.682 194.282C348.658 185.502 328.796 174.104 323.63 171.282C323.256 171.077 322.842 170.955 322.416 170.925C321.99 170.896 321.564 170.959 321.164 171.11C315.74 173.16 294.258 181.006 288.18 179.11C283.22 177.554 279.298 172.646 277.448 169.94C277.086 169.415 276.566 169.02 275.962 168.814C275.358 168.608 274.706 168.603 274.098 168.798C269.15 170.372 257.438 174.138 256.298 174.884C254.858 175.832 250.77 184.43 250.77 184.43L250.348 185.83L249.83 186.484C249.83 186.484 269.23 199.674 275.408 203.234C281.586 206.794 295.878 215.78 295.878 215.78Z" fill="#313553"/>
<path d="M317.556 238.358C317.446 238.444 317.31 238.488 317.17 238.488C317.128 238.488 317.088 238.484 317.046 238.476C316.958 238.458 316.874 238.422 316.8 238.37C316.728 238.316 316.666 238.25 316.62 238.172L315.498 236.258C315.49 236.24 315.484 236.222 315.48 236.204C311.576 238.026 297.714 244.116 290.346 242.362C282.316 240.45 250.946 202.948 246.62 197.832L240.804 217.694C240.722 217.97 240.742 218.268 240.858 218.532C240.972 218.796 241.178 219.012 241.436 219.14L244.826 220.83L247.648 210.696C247.7 210.54 247.808 210.41 247.954 210.332C248.098 210.254 248.268 210.236 248.426 210.28C248.584 210.324 248.72 210.428 248.804 210.568C248.886 210.71 248.914 210.878 248.876 211.038L245.746 222.278C245.746 222.912 245.764 223.952 245.838 225.678C246.05 230.496 254.346 236.588 254.346 236.588C254.346 236.588 256.124 236.988 256.116 245.354C256.108 253.72 261.402 255.38 261.402 255.38C261.402 255.38 278.19 256.278 287.402 256.6C296.614 256.922 328.228 255.178 328.228 255.178C331.032 252.922 333.344 250.12 335.028 246.94C337.388 242.426 338.784 226.23 339.116 221.978L317.556 238.358Z" fill="#313553"/>
<path d="M138.846 101.688C141.89 101.294 144.979 101.466 147.96 102.196" stroke="#313553" stroke-width="0.638" stroke-linecap="round" stroke-linejoin="round"/>
<path d="M145.188 101.96C145.188 101.96 144.216 104.33 144.852 105.492L146.536 106.128C147.017 105.628 147.382 105.028 147.605 104.372C147.829 103.715 147.907 103.018 147.832 102.328L145.188 101.96Z" fill="#313553"/>
<path d="M154.72 104.036C156.954 103.935 159.189 104.175 161.35 104.748" stroke="#313553" stroke-width="0.638" stroke-linecap="round" stroke-linejoin="round"/>
<path d="M158.534 104.618C158.534 104.618 157.564 106.986 158.198 108.148L159.882 108.784C160.363 108.284 160.728 107.684 160.952 107.028C161.176 106.371 161.253 105.674 161.178 104.984L158.534 104.618Z" fill="#313553"/>
<path d="M138.422 95.684C140.059 94.8886 141.849 94.4578 143.669 94.4212C145.488 94.3846 147.294 94.7432 148.962 95.472C149.388 95.698 150.082 96.012 149.686 97.258C149.29 98.504 149.206 98.59 147.498 98.368C145.742 97.8382 143.907 97.6222 142.076 97.73C138.846 98.464 136.436 96.6 138.422 95.684Z" fill="#313553"/>
<path d="M151.28 96.934L150.54 98.59" stroke="#313553" stroke-width="0.638" stroke-linecap="round" stroke-linejoin="round"/>
<path d="M164.496 97.76C163.653 97.2316 162.695 96.9124 161.703 96.829C160.712 96.7454 159.714 96.9 158.794 97.28C158.334 97.422 157.594 97.606 157.756 98.902C157.918 100.198 157.982 100.302 159.702 100.396C161.422 100.49 160.828 99.556 162.598 100.126C162.956 100.2 163.308 100.299 163.652 100.42C164.326 100.722 165.2 98.214 164.496 97.76Z" fill="#313553"/>
<path d="M156.248 98.292L156.67 100.056" stroke="#313553" stroke-width="0.638" stroke-linecap="round" stroke-linejoin="round"/>
<path d="M154.688 100C154.286 101.122 154.137 102.318 154.253 103.504C154.369 104.69 154.746 105.836 155.358 106.858C155.358 106.858 157.938 111.702 157.312 113.33C156.686 114.958 151.686 115.764 151.686 115.764" stroke="#313553" stroke-width="0.638" stroke-linecap="round" stroke-linejoin="round"/>
<path d="M151.788 113.6C150.915 113.576 150.043 113.684 149.202 113.92" stroke="#313553" stroke-width="0.638" stroke-linecap="round" stroke-linejoin="round"/>
<path d="M141.6 117.456C141.6 117.456 144.836 123.208 147.914 123.646C150.992 124.084 154.6 119.77 154.6 119.77C154.6 119.77 142.458 117.77 141.52 117.144C141.261 117 141.054 116.779 140.926 116.512C140.797 116.244 140.755 115.944 140.804 115.652" stroke="#313553" stroke-width="0.638" stroke-linecap="round" stroke-linejoin="round"/>
<path d="M115.82 98.6C115.82 98.6 112.73 105.622 114.29 109.318C114.998 111.282 116.348 112.949 118.122 114.049C119.895 115.15 121.988 115.621 124.062 115.384" stroke="#313553" stroke-width="0.638" stroke-linecap="round" stroke-linejoin="round"/>
<path d="M122.12 115.478C120.932 120.163 119.459 124.772 117.71 129.278" stroke="#313553" stroke-width="0.638" stroke-linecap="round" stroke-linejoin="round"/>
<path d="M120.986 101.48C117.242 100.952 114.552 107.936 121.586 111.622" stroke="#313553" stroke-width="0.638" stroke-linecap="round" stroke-linejoin="round"/>
<path d="M159.432 81.5258C159.432 81.5258 164.754 91.2178 164.496 98.3978C163.89 100.904 163.419 103.441 163.084 105.998C162.918 108.33 164.508 111.614 160.394 119.656C154.626 130.936 154.322 132.672 149.468 134.056C144.614 135.44 132.05 127.628 129.684 124" stroke="#313553" stroke-width="0.638" stroke-linecap="round" stroke-linejoin="round"/>
<path d="M115.95 100C115.95 100 117.62 96.256 119.914 97.02C122.006 97.714 124.17 102.22 125.066 105.182C125.136 105.418 125.28 105.624 125.477 105.771C125.673 105.918 125.912 105.998 126.158 105.998H128.158C128.334 105.999 128.509 105.958 128.667 105.88C128.825 105.802 128.962 105.688 129.069 105.547C129.175 105.406 129.247 105.243 129.279 105.069C129.311 104.896 129.303 104.718 129.254 104.548C128.588 102.23 127.454 97.808 128.088 96.42C128.956 94.508 130.934 97.116 131.87 89.746C132.806 82.376 134.962 80.146 139.816 81.946C144.67 83.746 153.028 86.802 156.254 86.512C159.48 86.222 161.956 79.02 162.932 75.4C163.908 71.78 161.876 72.318 160.062 74.266C160.062 74.266 160.554 66.514 157.416 65.344C154.278 64.174 152.642 69.758 152.642 69.758C152.642 69.758 153.842 64.29 150.546 64.81C147.25 65.33 145.912 69.18 144.078 69.278C142.244 69.376 130.954 66.546 123.456 74.556C115.958 82.566 111.81 90.672 115.95 100Z" fill="#313553"/>
<path d="M136.666 130.378L142.744 141.438L146.194 133.982L136.666 130.378Z" fill="#313553"/>
<path d="M146.2 133.982L140.358 148C140.358 148 144.402 153.972 144.854 157.978" stroke="#313553" stroke-width="0.638" stroke-linecap="round" stroke-linejoin="round"/>
<path d="M126.55 108.556H129.282" stroke="#313553" stroke-width="0.638" stroke-linecap="round" stroke-linejoin="round"/>
<path d="M127.252 111.002H128.794" stroke="#313553" stroke-width="0.638" stroke-linecap="round" stroke-linejoin="round"/>
<path d="M120.472 119.72C120.472 119.72 104.146 116.59 96.1659 120.934C90.2017 124.467 84.6035 128.585 79.4541 133.226C79.4541 133.226 83.0119 135.426 93.1719 128.138C103.332 120.85 118.2 130.378 118.2 130.378L119.924 123.2L120.472 119.72Z" fill="#313553"/>
<path d="M81.1998 132.512C81.1998 132.512 74.1238 138.112 74.1298 141.246C74.1358 144.38 75.7619 144.708 75.2759 146.056C74.7899 147.404 71.8158 149.44 74.1298 153.498C74.1298 153.498 93.5799 138.35 101.668 139.498C109.756 140.646 134.78 161 145.8 162.754C145.8 162.754 144.696 149.518 134.286 141.438C123.876 133.358 117.714 129.286 117.714 129.286" stroke="#313553" stroke-width="0.638" stroke-linecap="round" stroke-linejoin="round"/>
<path d="M146.236 126.174C147.029 126.712 147.982 126.964 148.938 126.89" stroke="#313553" stroke-width="0.638" stroke-linecap="round" stroke-linejoin="round"/>
<path d="M129.684 133.024C129.684 133.024 136.126 142.464 138.204 145.178" stroke="#313553" stroke-width="0.638" stroke-linecap="round" stroke-linejoin="round"/>
<path d="M74.1381 153.498C74.1381 153.498 71.1381 171.112 71.2701 178.926C71.4021 186.74 61.3561 204.926 91.5961 219.418C91.5961 219.418 118.358 247.986 124.766 251.122C131.174 254.258 131.982 256.134 144.686 250.462C157.39 244.79 175.956 230.844 183.432 215.978C183.432 215.978 188.384 214.578 189.508 213.136C190.632 211.694 190.232 206.578 191.178 205.398C192.124 204.218 194.812 207.424 194.49 198.998L197.434 196.036L189.384 175.296C187.863 176.876 186.082 178.184 184.118 179.162C180.62 180.992 167.896 184.326 168.08 189.324C168.08 189.324 158.724 190.946 153.08 197.068C147.436 203.19 145.6 200.118 143.494 203.106C140.96 207.47 138.657 211.962 136.596 216.568" stroke="#313553" stroke-width="0.638" stroke-linecap="round" stroke-linejoin="round"/>
<path d="M114.578 163.896C116.799 166.107 118.606 168.697 119.914 171.544C121.54 177.132 123.822 194.4 123.822 194.4L132.126 195.65L119.126 211.154" stroke="#313553" stroke-width="0.638" stroke-linecap="round" stroke-linejoin="round"/>
<path d="M132.126 195.65C132.126 195.65 131.072 218.424 128.418 227.412C128.418 227.412 133.75 213.752 137.722 207.916" stroke="#313553" stroke-width="0.638" stroke-linecap="round" stroke-linejoin="round"/>
<path d="M131.656 203.29C133.341 202.122 135.171 201.182 137.1 200.49C138.076 200.586 141.068 207.334 141.068 207.334" stroke="#313553" stroke-width="0.638" stroke-linecap="round" stroke-linejoin="round"/>
<path d="M145.8 162.754C150.405 157.747 153.005 151.22 153.102 144.418C152.675 140.875 151.914 137.381 150.828 133.982" stroke="#313553" stroke-width="0.638" stroke-linecap="round" stroke-linejoin="round"/>
<path d="M81.7222 140.75C81.7222 140.75 99.3862 130.026 106.8 131C114.214 131.974 93.0002 141.43 93.0002 141.43" stroke="#313553" stroke-width="0.638" stroke-linecap="round" stroke-linejoin="round"/>
<path d="M122.684 186.424C122.684 186.424 124.736 176.154 126.312 176.55C127.888 176.946 125.884 189.636 125.884 189.636" stroke="#313553" stroke-width="0.638" stroke-linecap="round" stroke-linejoin="round"/>
<path d="M134.578 253.704C134.578 253.704 150.672 242.448 153.106 237.138" stroke="#313553" stroke-width="0.638" stroke-linecap="round" stroke-linejoin="round"/>
<path d="M194.49 199C194.49 199 187.542 188.916 187.278 191.292C187.014 193.668 189.226 199 189.226 199" stroke="#313553" stroke-width="0.638" stroke-linecap="round" stroke-linejoin="round"/>
<path d="M151.788 137.226C153.457 139.873 156.049 141.805 159.062 142.648C163.708 143.648 177.106 143.57 174.774 169.08L175.044 182.908" stroke="#313553" stroke-width="0.638" stroke-linecap="round" stroke-linejoin="round"/>
<path d="M73.268 204.8C73.268 204.8 73.486 240.544 70.65 257.314C67.814 274.084 60.464 299.314 73.55 301.914C86.636 304.514 107.786 303.472 112.25 302.852" stroke="#313553" stroke-width="0.638" stroke-linecap="round" stroke-linejoin="round"/>
<path d="M173.102 230.944C173.102 230.944 173.818 264.398 179.188 281.944C184.558 299.49 178.824 299.488 164.506 299.846" stroke="#313553" stroke-width="0.638" stroke-linecap="round" stroke-linejoin="round"/>
<path d="M181.174 220.756C181.174 220.756 189.662 260.318 191.718 264.756C193.774 269.194 196.028 281.306 193.032 287.784C193.032 287.784 201.448 294.494 194.542 309.402C195.246 313.234 195.686 317.11 195.858 321.002" stroke="#313553" stroke-width="0.638" stroke-linecap="round" stroke-linejoin="round"/>
<path d="M136.098 173.536C135.751 173.5 135.417 173.386 135.121 173.203C134.824 173.019 134.574 172.771 134.387 172.476C134.201 172.181 134.084 171.848 134.045 171.502C134.006 171.155 134.046 170.805 134.162 170.476C134.979 168.303 135.547 166.045 135.856 163.744C136.19 160.954 136.049 158.128 135.438 155.386C135.394 155.226 135.384 155.058 135.409 154.894C135.435 154.73 135.495 154.573 135.585 154.433C135.676 154.294 135.795 154.175 135.935 154.086C136.074 153.996 136.232 153.937 136.396 153.912C136.609 153.876 136.828 153.901 137.029 153.982C137.229 154.064 137.402 154.199 137.53 154.374C139.4 157.304 140.305 160.747 140.116 164.218C140.168 166.992 139.583 169.742 138.404 172.254C138.197 172.678 137.864 173.027 137.452 173.257C137.04 173.486 136.567 173.583 136.098 173.536Z" fill="#313553"/>
<path d="M135.856 172.264L134.242 176.982" stroke="#313553" stroke-width="0.638" stroke-linecap="round" stroke-linejoin="round"/>
<path d="M151.69 170.98C151.343 171.014 150.993 170.969 150.666 170.849C150.339 170.728 150.044 170.534 149.802 170.283C149.561 170.031 149.38 169.728 149.273 169.396C149.166 169.065 149.135 168.713 149.184 168.368C149.552 166.076 149.66 163.75 149.504 161.434C149.275 158.634 148.574 155.892 147.43 153.326C147.355 153.178 147.312 153.015 147.304 152.849C147.296 152.684 147.324 152.518 147.384 152.363C147.445 152.209 147.538 152.069 147.657 151.953C147.776 151.837 147.918 151.747 148.074 151.69C148.276 151.614 148.494 151.596 148.706 151.636C148.917 151.676 149.114 151.774 149.274 151.918C151.69 154.417 153.262 157.611 153.766 161.05C154.369 163.758 154.343 166.569 153.688 169.266C153.569 169.722 153.314 170.13 152.957 170.437C152.599 170.743 152.156 170.933 151.688 170.98H151.69Z" fill="#313553"/>
<path d="M151.2 169.784L150.556 174.728" stroke="#313553" stroke-width="0.638" stroke-linecap="round" stroke-linejoin="round"/>
<path d="M73.5499 301.91C73.5413 305.22 74.4459 308.468 76.1639 311.296C76.1639 311.296 161 314.74 177.694 307.32C178.464 304.106 178.905 300.822 179.01 297.52" stroke="#313553" stroke-width="0.638" stroke-linecap="round" stroke-linejoin="round"/>
<path d="M76.1638 311.296L75.0498 326.026C75.0498 326.026 129.396 329.318 147.3 326.982C159.287 325.532 171.352 324.822 183.426 324.858L177.694 307.32C153.966 312.216 128.262 312.698 97.9358 312.094C89.4418 311.926 79.7598 311.728 76.1638 311.296Z" fill="#313553"/>
<path d="M102.778 303.458L74.7439 308.4L73.5479 302.448L86.0319 303.412L102.778 303.458Z" fill="#313553"/>
<path d="M108.244 250.62C108.244 250.62 117.044 260.116 117.814 270.878C118.584 281.64 113.262 286.85 113.262 286.85" stroke="#313553" stroke-width="0.638" stroke-linecap="round" stroke-linejoin="round"/>
<path d="M165.624 251.632C165.624 251.632 163.04 253.704 162.572 265.778C162.006 280.416 169.72 284.178 169.72 284.178" stroke="#313553" stroke-width="0.638" stroke-linecap="round" stroke-linejoin="round"/>
<path d="M73.272 226.104C75.4242 227.368 77.6836 228.438 80.024 229.304C83.17 230.364 104.438 233.668 108.978 236.968L92.512 220.4C92.512 220.4 76.044 208.826 73.272 206.07V226.104Z" fill="#313553"/>
<path d="M131.076 145.178C131.076 145.178 143.624 156.724 145.796 162.754" stroke="#313553" stroke-width="0.638" stroke-linecap="round" stroke-linejoin="round"/>
<path d="M190.642 178.538C190.642 178.538 208.884 177.818 214.266 177.276C219.648 176.734 219.774 179.002 221.77 183.962C223.766 188.922 224.63 191.982 224.454 193.732C224.278 195.482 222.086 196.702 220.546 196.91C219.784 197.521 218.884 197.941 217.926 198.132C216.966 198.324 215.976 198.283 215.036 198.012C215.036 198.012 207.436 196.94 206.104 195.65C204.772 194.36 205.408 191.69 206.684 191.45C207.96 191.21 210.5 192.412 210.57 194.002" stroke="#313553" stroke-width="0.638" stroke-linecap="round" stroke-linejoin="round"/>
<path d="M212.52 181.432C213.45 181.446 214.352 181.749 215.102 182.299C215.852 182.848 216.412 183.618 216.704 184.5C217.458 187.5 217.32 196.432 215.036 198.012" stroke="#313553" stroke-width="0.638" stroke-linecap="round" stroke-linejoin="round"/>
<path d="M220.062 197.266C220.062 197.266 222.146 196.768 221.152 192.066C220.046 186.82 220.152 182.196 217.114 180.39" stroke="#313553" stroke-width="0.638" stroke-linecap="round" stroke-linejoin="round"/>
<path d="M212.776 191.8C212.776 191.8 209.216 192.964 207.884 190.942" stroke="#313553" stroke-width="0.638" stroke-linecap="round" stroke-linejoin="round"/>
<path d="M209.478 188.488C208.302 189.883 206.844 191.012 205.2 191.8C203.242 192.4 198.572 193.272 197.438 191.8" stroke="#313553" stroke-width="0.638" stroke-linecap="round" stroke-linejoin="round"/>
<path d="M197.2 195.072C197.2 195.072 202.822 198.7 205.58 199C208.338 199.3 209.058 197.788 212.208 199.978C215.358 202.168 219.06 202.088 220.912 199.978C221.42 199.398 222 197.656 220.538 196.91" stroke="#313553" stroke-width="0.638" stroke-linecap="round" stroke-linejoin="round"/>
<path d="M223.82 195.1C224.388 195.615 225.068 195.991 225.808 196.196C226.394 196.786 227.112 197.228 227.904 197.483C228.696 197.738 229.538 197.799 230.358 197.662C230.358 197.662 236.888 197.496 238.142 196.534C239.396 195.572 239.114 193.254 238.058 192.934C237.002 192.614 234.738 193.378 234.524 194.716" stroke="#313553" stroke-width="0.638" stroke-linecap="round" stroke-linejoin="round"/>
<path d="M250.708 186.092C250.708 186.092 237.524 181.186 233.026 180.206C228.528 179.226 228.202 181.128 226.026 185.13C225.108 186.82 224.396 188.242 223.876 189.434" stroke="#313553" stroke-width="0.638" stroke-linecap="round" stroke-linejoin="round"/>
<path d="M234.098 183.888C233.31 183.81 232.52 183.979 231.832 184.371C231.146 184.763 230.598 185.359 230.264 186.076C229.334 188.534 228.582 196.106 230.358 197.662" stroke="#313553" stroke-width="0.638" stroke-linecap="round" stroke-linejoin="round"/>
<path d="M226.182 196.542C226.182 196.542 224.47 195.92 225.766 192.034C227.212 187.706 227.566 183.786 230.316 182.554" stroke="#313553" stroke-width="0.638" stroke-linecap="round" stroke-linejoin="round"/>
<path d="M232.874 192.634C232.874 192.634 235.77 193.962 237.094 192.384" stroke="#313553" stroke-width="0.638" stroke-linecap="round" stroke-linejoin="round"/>
<path d="M235.984 190.15C236.842 191.446 237.966 192.544 239.282 193.37C240.882 194.078 244.744 195.258 245.846 194.124" stroke="#313553" stroke-width="0.638" stroke-linecap="round" stroke-linejoin="round"/>
<path d="M225.8 196.2C224.49 196.688 224.812 198.216 225.186 198.758C226.546 200.722 229.668 201.158 232.544 199.604C235.42 198.05 237.796 200.044 240.158 200.058C242.278 199.757 244.316 199.022 246.14 197.9" stroke="#313553" stroke-width="0.638" stroke-linecap="round" stroke-linejoin="round"/>
<path d="M114.578 94.394H27.9521V230.944H72.7281" stroke="#313553" stroke-width="0.638" stroke-linecap="round" stroke-linejoin="round"/>
<path d="M212.776 200.616V230.944H183.942" stroke="#313553" stroke-width="0.638" stroke-linecap="round" stroke-linejoin="round"/>
<path d="M164.41 94.394H212.776V177.198" stroke="#313553" stroke-width="0.638" stroke-linecap="round" stroke-linejoin="round"/>
<path d="M30.9082 94.4C32.7654 103.431 33.4018 112.671 32.8002 121.872H96.1662" stroke="#313553" stroke-width="0.638" stroke-linecap="round" stroke-linejoin="round"/>
<path d="M207.116 94.4C207.116 94.4 207.814 108.576 209.054 121.878H159.712" stroke="#313553" stroke-width="0.638" stroke-linecap="round" stroke-linejoin="round"/>
<path d="M42.9479 121.872C42.9479 121.872 41.0899 149.836 41.5919 157.628C42.0939 165.42 43.7819 177.694 43.5219 186.31C43.3567 191.426 43.6857 196.547 44.5039 201.6" stroke="#313553" stroke-width="0.638" stroke-linecap="round" stroke-linejoin="round"/>
<path d="M44.2979 207.708C45.8399 207.708 47.0899 206.458 47.0899 204.916C47.0899 203.374 45.8399 202.124 44.2979 202.124C42.7559 202.124 41.5059 203.374 41.5059 204.916C41.5059 206.458 42.7559 207.708 44.2979 207.708Z" stroke="#313553" stroke-width="0.638" stroke-linecap="round" stroke-linejoin="round"/>
<path d="M36.2202 99.174C36.2202 99.174 85.4722 100.374 89.1342 100.444C92.7962 100.514 110.954 100.444 110.954 100.444" stroke="#313553" stroke-width="0.638" stroke-linecap="round" stroke-linejoin="round"/>
<path d="M32.7861 107.872C39.3401 107.066 45.9333 106.62 52.5361 106.536C58.3241 106.836 90.0601 107.272 96.1661 107.186" stroke="#313553" stroke-width="0.638" stroke-linecap="round" stroke-linejoin="round"/>
<path d="M41.5059 115.478C41.5059 115.478 98.4619 115.652 104.418 115.652" stroke="#313553" stroke-width="0.638" stroke-linecap="round" stroke-linejoin="round"/>
<path d="M166.918 103.922C166.918 103.922 199.536 104.392 204.018 104.03" stroke="#313553" stroke-width="0.638" stroke-linecap="round" stroke-linejoin="round"/>
<path d="M208.502 115.478C208.502 115.478 174.614 116.092 171.334 115.478" stroke="#313553" stroke-width="0.638" stroke-linecap="round" stroke-linejoin="round"/>
<path d="M206.048 80.454C206.048 80.454 255.83 81.07 270.55 80.454C285.27 79.838 292.71 79.816 292.71 79.816" stroke="#313553" stroke-width="0.638" stroke-linecap="round" stroke-linejoin="round"/>
<path d="M226.824 71.4C226.824 71.4 285.288 71.8 292.71 71.842C300.132 71.884 308.434 72.042 308.434 72.042" stroke="#313553" stroke-width="0.638" stroke-linecap="round" stroke-linejoin="round"/>
<path d="M32.7861 243.012H64.4761" stroke="#313553" stroke-width="0.638" stroke-linecap="round" stroke-linejoin="round"/>
<path d="M190.284 243.012H241.104" stroke="#313553" stroke-width="0.638" stroke-linecap="round" stroke-linejoin="round"/>
<path d="M11.144 291.986H32.786" stroke="#313553" stroke-width="0.638" stroke-linecap="round" stroke-linejoin="round"/>
<path d="M43.0259 291.986H58.2899" stroke="#313553" stroke-width="0.638" stroke-linecap="round" stroke-linejoin="round"/>
<path d="M21.9641 279.27H48.6301" stroke="#313553" stroke-width="0.638" stroke-linecap="round" stroke-linejoin="round"/>
<path d="M352.286 291.986H365.638" stroke="#313553" stroke-width="0.638" stroke-linecap="round" stroke-linejoin="round"/>
<path d="M375.88 291.986H391.144" stroke="#313553" stroke-width="0.638" stroke-linecap="round" stroke-linejoin="round"/>
<path d="M347.804 279.27H381.484" stroke="#313553" stroke-width="0.638" stroke-linecap="round" stroke-linejoin="round"/>
<path d="M194.4 278.362C194.4 278.362 203.164 267.962 215.828 267.962C227.146 267.962 237.256 275.328 237.256 275.328" stroke="#313553" stroke-width="0.638" stroke-linecap="round" stroke-linejoin="round"/>
<path d="M193.766 269.436C199.972 264.23 207.738 261.246 215.832 260.956C231.396 260.956 239.81 268.956 239.81 268.956" stroke="#313553" stroke-width="0.638" stroke-linecap="round" stroke-linejoin="round"/>
<path d="M386.43 252.706C384.648 252.506 373.962 252.906 368.262 252.706C362.562 252.506 348.662 252.706 348.662 252.706L344.032 229.906C344.032 229.906 353.306 229.242 358.61 229.106C366.724 228.976 374.838 229.31 382.914 230.106L377.458 252.306" stroke="#313553" stroke-width="0.638" stroke-linecap="round" stroke-linejoin="round"/>
<path d="M363.958 228.8C363.958 228.8 371.146 199 370.13 178.93C369.636 169.192 368.642 155.994 372.06 155.992C377.766 155.992 377.982 170.694 377.754 182.706C377.388 201.924 368.31 229.082 368.31 229.082" stroke="#313553" stroke-width="0.638" stroke-linecap="round" stroke-linejoin="round"/>
<path d="M370.862 229.072C370.862 229.072 379.922 209.72 381.43 198.316C383.512 182.568 391.144 183.604 386.894 201.58C382.632 219.61 375.242 229.072 375.242 229.072" stroke="#313553" stroke-width="0.638" stroke-linecap="round" stroke-linejoin="round"/>
<path d="M357.978 229.098C357.978 229.098 355.178 206.604 354.084 193.276C352.99 179.948 354.65 173.82 354.2 161.812C353.786 150.826 360.228 150.506 361 167.622C361.772 184.738 362.092 186.178 362.426 194.596C362.76 203.014 361.76 229.098 361.76 229.098" stroke="#313553" stroke-width="0.638" stroke-linecap="round" stroke-linejoin="round"/>
<path d="M349.48 229.47C347.592 221.916 344.63 209.834 342.852 201.422C340.086 188.34 340.954 182.05 338.988 170.194C337.188 159.348 343.538 158.218 346.458 175.1C349.378 191.982 349.888 193.368 351.284 201.676C352.222 207.276 353.578 220.914 354.362 229.21" stroke="#313553" stroke-width="0.638" stroke-linecap="round" stroke-linejoin="round"/>
<path d="M261.4 255.374C260.638 258.46 260.276 261.632 260.326 264.812C260.326 264.812 247.926 282.212 247.004 302.922C246.082 323.632 248.078 326.274 248.078 326.274" stroke="#313553" stroke-width="0.638" stroke-linecap="round" stroke-linejoin="round"/>
<path d="M264.832 265.932C264.832 265.932 258.478 276.714 255.36 280.576" stroke="#313553" stroke-width="0.638" stroke-linecap="round" stroke-linejoin="round"/>
<path d="M284.05 256.466C284.09 259.402 283.78 262.332 283.128 265.196C282.038 272.378 281.624 279.648 281.89 286.908" stroke="#313553" stroke-width="0.638" stroke-linecap="round" stroke-linejoin="round"/>
<path d="M274.23 307.44C274.23 307.44 290.552 316.692 292.752 317.966L295.306 326.274" stroke="#313553" stroke-width="0.638" stroke-linecap="round" stroke-linejoin="round"/>
<path d="M281.28 315.652C285.05 316.668 288.882 317.442 292.752 317.966" stroke="#313553" stroke-width="0.638" stroke-linecap="round" stroke-linejoin="round"/>
<path d="M328.236 255.172C328.446 257.568 328.446 259.976 328.236 262.372C328.236 262.372 341.312 274.726 347.804 289.798C354.296 304.87 360.95 324.374 360.95 324.374" stroke="#313553" stroke-width="0.638" stroke-linecap="round" stroke-linejoin="round"/>
<path d="M312.178 267.988C312.178 267.988 325.41 280.322 332.3 284.77" stroke="#313553" stroke-width="0.638" stroke-linecap="round" stroke-linejoin="round"/>
<path d="M290.994 269.436C291.964 269.436 292.752 267.324 292.752 264.718C292.752 262.112 291.964 260 290.994 260C290.022 260 289.236 262.112 289.236 264.718C289.236 267.324 290.022 269.436 290.994 269.436Z" stroke="#313553" stroke-width="0.638" stroke-linecap="round" stroke-linejoin="round"/>
<path d="M247.282 226.082C247.282 226.082 244.362 254.794 243.924 260.956C243.486 267.118 237.26 267.684 235.37 289.328C234.324 301.538 235.036 313.834 237.488 325.84" stroke="#313553" stroke-width="0.638" stroke-linecap="round" stroke-linejoin="round"/>
<path d="M47.614 250.38L19.958 262.824" stroke="#313553" stroke-width="0.638" stroke-linecap="round" stroke-linejoin="round"/>
<path d="M49.0661 253.608L21.4121 266.052" stroke="#313553" stroke-width="0.638" stroke-linecap="round" stroke-linejoin="round"/>
<path d="M50.9102 248.896L51.2722 248.734C51.7002 248.542 52.1872 248.528 52.626 248.694C53.0648 248.86 53.4196 249.194 53.6122 249.622C53.8046 250.05 53.8192 250.538 53.6526 250.976C53.4862 251.414 53.1522 251.77 52.7242 251.962L51.9122 252.328" stroke="#313553" stroke-width="0.638" stroke-linecap="round" stroke-linejoin="round"/>
<path d="M17.364 263.992L13.686 267.588L18.816 267.22" stroke="#313553" stroke-width="0.638" stroke-linecap="round" stroke-linejoin="round"/>
<path d="M40.3402 259.114C37.3412 263.34 34.0794 267.374 30.5742 271.19C27.8102 273.604 56.1322 272.39 56.1322 272.39L68.5002 253.696L54.7842 253.296" stroke="#313553" stroke-width="0.638" stroke-linecap="round" stroke-linejoin="round"/>
<path d="M36.3999 267.588L39.9999 266.372C40.2921 266.274 40.6039 266.246 40.9087 266.294C41.2135 266.342 41.5021 266.464 41.7499 266.648C42.1091 266.914 42.5501 267.046 42.9961 267.02C43.4423 266.994 43.8653 266.812 44.1919 266.508L44.4239 266.292C44.7373 266 45.1395 265.822 45.5663 265.786C45.9931 265.75 46.4197 265.858 46.7779 266.092L47.7779 266.748C48.1427 266.988 48.5787 267.094 49.0131 267.052C49.4475 267.01 49.8543 266.82 50.1659 266.514L50.2539 266.428C50.5819 266.106 51.0147 265.914 51.4733 265.884C51.9321 265.856 52.3859 265.992 52.7517 266.27L54.5917 267.67" stroke="#313553" stroke-width="0.638" stroke-linecap="round" stroke-linejoin="round"/>
<path d="M43.0962 261.744L46.0702 260.344C46.3284 260.222 46.62 260.192 46.898 260.256C47.1758 260.32 47.424 260.478 47.6022 260.7C47.7088 260.834 47.8416 260.946 47.9924 261.026C48.1432 261.108 48.309 261.158 48.4798 261.174C48.6504 261.188 48.8224 261.17 48.9854 261.116C49.1484 261.064 49.299 260.978 49.4282 260.866L51.0282 259.466C51.1652 259.346 51.326 259.258 51.5 259.206C51.674 259.154 51.857 259.142 52.0368 259.166C52.2164 259.19 52.3888 259.254 52.5422 259.35C52.6958 259.448 52.8266 259.576 52.9262 259.728L54.2722 261.784C54.453 262.06 54.7334 262.254 55.0546 262.326C55.3756 262.4 55.7124 262.344 55.9942 262.174L58.4882 260.66" stroke="#313553" stroke-width="0.638" stroke-linecap="round" stroke-linejoin="round"/>
<path d="M295.254 214.28C296.774 216.012 298.172 217.848 299.438 219.774" stroke="#313553" stroke-width="0.638" stroke-linecap="round" stroke-linejoin="round"/>
<path d="M278.262 171.086C278.262 171.086 287.958 169.972 289.83 169.3" stroke="#313553" stroke-width="0.638" stroke-linecap="round" stroke-linejoin="round"/>
<path d="M288.638 162.944L290.688 171.402" stroke="#313553" stroke-width="0.638" stroke-linecap="round" stroke-linejoin="round"/>
<path d="M324.978 125.276C324.982 126.984 324.712 128.682 324.178 130.304C323.324 132.664 317.156 137.392 315.036 137.6C313.974 137.702 313.048 139.748 312.014 141.8C311.184 143.732 309.64 145.269 307.704 146.092C300.816 147.532 302.334 150.292 305.53 149.77C308.726 149.248 312.694 146.97 315.33 140.628C315.33 140.628 321.008 137.844 322.214 141.65C323.42 145.456 320.4 155.128 310.778 153.94L312.728 170.004L319.298 172.466" stroke="#313553" stroke-width="0.638" stroke-linecap="round" stroke-linejoin="round"/>
<path d="M324.182 130.304C324.578 132.058 324.552 133.88 324.11 135.622C323.304 137.418 321.896 138.876 320.13 139.746" stroke="#313553" stroke-width="0.638" stroke-linecap="round" stroke-linejoin="round"/>
<path d="M324.11 135.622C324.11 135.622 325.778 137.54 322.216 141.658" stroke="#313553" stroke-width="0.638" stroke-linecap="round" stroke-linejoin="round"/>
<path d="M311.2 142.182C308.028 140.288 308.562 135.144 309.012 132.84C309.462 130.536 311.352 126.66 306.546 125.402C301.74 124.144 302.746 118.002 300.42 116.174C298.094 114.346 294.68 117.454 290.22 116.808C285.76 116.162 286.4 112.45 283.552 114.082C282.072 114.993 280.442 115.639 278.74 115.992C278.74 115.992 286.774 99.222 306.218 106.932" stroke="#313553" stroke-width="0.638" stroke-linecap="round" stroke-linejoin="round"/>
<path d="M287 111.078C292.12 105.612 299.37 105.458 307.568 107.206" stroke="#313553" stroke-width="0.638" stroke-linecap="round" stroke-linejoin="round"/>
<path d="M293.322 112.87C293.322 112.87 305.47 105.504 309.278 107.576C310.1 108.193 310.848 108.904 311.506 109.696C311.506 109.696 313.648 108.608 314.602 109.896" stroke="#313553" stroke-width="0.638" stroke-linecap="round" stroke-linejoin="round"/>
<path d="M317.366 111.476C317.366 111.476 313.304 110.442 313.326 113.696C313.384 114.516 313.71 115.294 314.256 115.908C314.802 116.523 315.534 116.941 316.342 117.096C315.98 117.159 315.636 117.304 315.34 117.52C315.042 117.737 314.798 118.019 314.628 118.344C314.456 118.67 314.362 119.03 314.352 119.398C314.344 119.765 314.418 120.13 314.572 120.464C315.674 123.136 320.278 121.426 320.278 121.426C320.278 121.426 322.32 126.708 329.396 125.318C330.018 125.277 330.624 125.108 331.178 124.822C331.73 124.536 332.218 124.138 332.612 123.655C333.004 123.171 333.292 122.611 333.458 122.011C333.624 121.411 333.664 120.783 333.578 120.166C333.49 119.549 333.276 118.957 332.948 118.427C332.62 117.897 332.188 117.44 331.676 117.086C331.164 116.731 330.584 116.485 329.972 116.365C329.362 116.245 328.732 116.252 328.124 116.386" stroke="#313553" stroke-width="0.638" stroke-linecap="round" stroke-linejoin="round"/>
<path d="M315.62 111.338C315.382 110.461 315.34 109.543 315.5 108.648C315.658 107.754 316.012 106.905 316.536 106.163C317.06 105.422 317.742 104.805 318.534 104.358C319.324 103.911 320.204 103.644 321.11 103.576C326.072 102.66 330.2 105.716 328.926 110.618" stroke="#313553" stroke-width="0.638" stroke-linecap="round" stroke-linejoin="round"/>
<path d="M329.142 108.426C329.142 108.426 333.942 108.526 334.268 112.87C334.594 117.214 332.56 117.826 332.56 117.826" stroke="#313553" stroke-width="0.638" stroke-linecap="round" stroke-linejoin="round"/>
<path d="M300.412 116.174C301.754 113.871 303.904 112.147 306.444 111.338" stroke="#313553" stroke-width="0.638" stroke-linecap="round" stroke-linejoin="round"/>
<path d="M308.982 138.98C308.982 138.98 311.202 134.38 314.34 134.14C317.478 133.9 319.752 129.698 321.52 127.588" stroke="#313553" stroke-width="0.638" stroke-linecap="round" stroke-linejoin="round"/>
<path d="M313.326 114.952C313.326 114.952 307.986 116.98 306.444 119.23" stroke="#313553" stroke-width="0.638" stroke-linecap="round" stroke-linejoin="round"/>
<path d="M309.6 130.304C311.766 129.188 313.736 127.728 315.434 125.98C317.882 123.318 318.738 123.544 318.738 123.544" stroke="#313553" stroke-width="0.638" stroke-linecap="round" stroke-linejoin="round"/>
<path d="M314.758 142.6C314.758 142.6 318.4 141.946 318.726 144.356C318.704 145.552 318.336 146.716 317.67 147.709C317.002 148.702 316.064 149.482 314.966 149.956" stroke="#313553" stroke-width="0.638" stroke-linecap="round" stroke-linejoin="round"/>
<path d="M278.724 116C278.724 116 272.952 122.87 273.46 129.696C273.46 129.696 274.08 134.524 274.188 135.882C274.296 137.24 271.376 141.282 272.278 145.744C273.28 149.53 274.68 153.2 276.454 156.692C278.724 162.21 280.138 163.732 286.11 163.092C289.304 162.835 292.434 162.06 295.378 160.796" stroke="#313553" stroke-width="0.638" stroke-linecap="round" stroke-linejoin="round"/>
<path d="M279.326 114.922C279.326 114.922 276.364 115.86 275.578 113.494C275.358 112.792 275.318 112.046 275.462 111.325C275.604 110.603 275.926 109.929 276.396 109.364C276.396 109.364 273.526 108.322 275.362 104.316C277.198 100.31 281.444 102.874 281.444 102.874C281.444 102.874 281.776 99.1902 284.844 98.7282C287.912 98.2662 289.844 102.072 289.844 102.072C289.844 102.072 292.878 98.0922 295.364 100.872C297.85 103.652 296.942 104.906 296.942 104.906C292.592 105.23 288.352 106.428 284.476 108.428C282.178 110.061 280.392 112.313 279.326 114.922Z" fill="#313553"/>
<path d="M312.468 152.294C313.412 152.294 314.178 151.528 314.178 150.584C314.178 149.64 313.412 148.874 312.468 148.874C311.524 148.874 310.758 149.64 310.758 150.584C310.758 151.528 311.524 152.294 312.468 152.294Z" fill="#313553"/>
<path d="M313.584 153.98C314.58 154.585 315.644 155.07 316.756 155.424C317.382 155.59 317.998 155.79 318.602 156.024C318.836 156.114 319.032 156.283 319.154 156.503C319.278 156.722 319.32 156.977 319.274 157.224C319.222 157.504 319.062 157.752 318.828 157.915C318.594 158.077 318.306 158.14 318.026 158.09C315.342 157.242 312.87 155.828 310.78 153.942" stroke="#313553" stroke-width="0.638" stroke-linecap="round" stroke-linejoin="round"/>
<path d="M313.524 156.03C313.758 157.879 314.688 159.57 316.124 160.758C316.868 161.33 317.46 161.746 317.924 162.044C318.282 162.273 318.54 162.63 318.646 163.042C318.75 163.454 318.696 163.891 318.492 164.264C318.376 164.477 318.216 164.662 318.022 164.808C317.83 164.953 317.606 165.054 317.37 165.105C317.132 165.156 316.888 165.155 316.652 165.103C316.414 165.05 316.192 164.947 316 164.8C315.6 164.5 315.182 164.158 314.768 163.8C313.04 161.997 311.81 159.775 311.202 157.352V154.574L313.524 156.03Z" fill="#313553"/>
<path d="M273.46 129.688C273.46 129.688 274.788 127.726 276.322 128.048C277.688 128.553 278.942 129.319 280.014 130.304" stroke="#313553" stroke-width="0.638" stroke-linecap="round" stroke-linejoin="round"/>
<path d="M288.1 130.652C290.018 129.332 292.236 128.515 294.552 128.278C295.554 128.439 296.512 128.805 297.366 129.352C298.22 129.9 298.952 130.617 299.516 131.46" stroke="#313553" stroke-width="0.638" stroke-linecap="round" stroke-linejoin="round"/>
<path d="M275.35 133.374C277.64 133.432 279.814 134.393 281.398 136.046" stroke="#313553" stroke-width="0.638" stroke-linecap="round" stroke-linejoin="round"/>
<path d="M277.922 135.448C277.78 136.752 277.03 137.738 276.246 137.648C275.462 137.558 274.944 136.448 275.088 135.136C275.232 133.824 275.98 133.484 276.762 133.57C277.544 133.656 278.064 134.146 277.922 135.448Z" fill="#313553"/>
<path d="M290.644 134.104C290.644 134.104 295.834 134.818 298.15 137.504" stroke="#313553" stroke-width="0.638" stroke-linecap="round" stroke-linejoin="round"/>
<path d="M293.216 136.178C293.074 137.48 292.324 138.466 291.542 138.378C290.76 138.29 290.24 137.168 290.382 135.866C290.524 134.564 291.274 134.214 292.056 134.3C292.838 134.386 293.358 134.874 293.216 136.178Z" fill="#313553"/>
<path d="M283.668 131.85C283.668 131.85 284.638 133.978 284.198 134.886C283.758 135.794 280.704 140.23 280.014 141.658C279.324 143.086 282.164 145.438 282.164 145.438" stroke="#313553" stroke-width="0.638" stroke-linecap="round" stroke-linejoin="round"/>
<path d="M284.378 143.952C285.298 144.106 286.18 144.433 286.978 144.918" stroke="#313553" stroke-width="0.638" stroke-linecap="round" stroke-linejoin="round"/>
<path d="M278.104 148.874C280.17 149.371 282.266 149.731 284.378 149.954C287.172 149.791 289.952 149.445 292.7 148.92C292.7 148.92 288.624 153.58 284.378 153.662C280.132 153.744 278.104 148.874 278.104 148.874Z" stroke="#313553" stroke-width="0.638" stroke-linecap="round" stroke-linejoin="round"/>
<path d="M280.534 154.692C280.824 155.24 281.242 155.711 281.752 156.064C282.262 156.418 282.85 156.643 283.466 156.722C284.912 156.666 286.324 156.254 287.572 155.522" stroke="#313553" stroke-width="0.638" stroke-linecap="round" stroke-linejoin="round"/>
<path d="M278.104 148.846C279.584 148.123 281.17 147.635 282.8 147.4C284.2 147.48 291.484 149.126 291.484 149.126L283.764 149.674L278.104 148.846Z" fill="#313553"/>
<path d="M290.54 167.98L292.7 162.322L288.638 162.944L289.83 167.862" fill="#313553"/>
</svg>
