<svg width="400" height="400" viewBox="0 0 400 400" fill="none" xmlns="http://www.w3.org/2000/svg">
<path d="M173.24 133.66H173.254C173.464 133.68 173.674 133.672 173.884 133.682V133.506C173.673 133.572 173.458 133.623 173.24 133.66Z" fill="#D1A9FF"/>
<path d="M224.654 116.524C224.35 112.116 223.526 107.759 222.2 103.544C221.267 100.208 219.903 97.0067 218.144 94.022C217.849 93.5496 217.525 93.0967 217.172 92.666C216.38 91.5753 215.285 90.7409 214.024 90.266C212.63 89.9522 211.201 89.8238 209.774 89.884C206.634 89.78 203.495 89.6287 200.356 89.43C194.04 89.03 187.74 88.4394 181.456 87.658C177.883 87.2127 174.318 86.7047 170.762 86.134C170.653 86.12 170.542 86.1302 170.438 86.164C171.799 86.1998 173.091 86.7678 174.038 87.746L174.064 87.778C175.243 89.409 176.019 91.2957 176.33 93.284C177.416 98.0015 178.186 102.786 178.636 107.606C178.884 110.006 179.084 112.422 179.272 114.834C179.438 116.964 179.634 119.098 179.646 121.234C179.668 125.018 179.046 129.234 176.246 132.034C175.587 132.707 174.775 133.211 173.88 133.504V133.68C174.208 133.694 174.534 133.72 174.86 133.714C176.618 133.674 178.358 133.358 180.018 132.78C184.41 131.244 188.037 128.069 190.142 123.92C192.169 119.683 193.195 115.037 193.142 110.34C192.914 108.441 193.364 106.523 194.414 104.924C194.68 104.6 195.022 104.347 195.409 104.186C195.796 104.025 196.217 103.961 196.634 104C197.179 104.099 197.697 104.314 198.152 104.63C198.606 104.947 198.988 105.357 199.27 105.834C201.351 109.075 202.529 112.813 202.682 116.662C202.978 114.645 203.04 112.6 202.868 110.568C202.678 108.444 201.518 105.402 203.236 103.61C204.954 101.818 207.462 103.21 208.848 104.66C209.686 105.61 210.388 106.672 210.934 107.816C211.57 109.029 212.122 110.284 212.588 111.572C212.634 111.702 212.668 111.834 212.714 111.972L212.496 107.95C212.264 106.677 212.532 105.363 213.244 104.282C214.244 103.16 215.624 103.774 216.552 104.63C217.37 105.412 218.125 106.257 218.812 107.156C221.701 110.973 223.322 115.599 223.446 120.384C223.458 120.938 223.446 121.492 223.422 122.046C223.35 123.602 223.146 125.16 222.938 126.696C222.791 127.766 222.621 128.833 222.43 129.896C222.63 129.53 222.81 129.158 222.974 128.778C224.484 124.881 225.059 120.684 224.654 116.524Z" fill="#D1A9FF"/>
<path d="M166.306 109.8L166.338 109.87C166.365 109.924 166.38 109.983 166.384 110.043C166.388 110.103 166.379 110.163 166.36 110.22C166.34 110.277 166.309 110.329 166.269 110.374C166.229 110.419 166.181 110.456 166.126 110.482C166.102 110.494 166.076 110.504 166.05 110.512C165.969 110.566 165.875 110.598 165.778 110.606C164.794 110.684 163.808 110.734 162.824 110.772C162.866 111.824 162.944 112.875 163.058 113.926C163.23 115.526 163.472 117.138 163.78 118.726C164.074 118.186 164.366 117.646 164.65 117.108C165.525 115.443 166.406 113.779 167.294 112.118C167.294 112.106 167.31 112.102 167.316 112.092L167.336 112.068C167.395 111.974 167.483 111.903 167.587 111.865C167.691 111.827 167.805 111.824 167.91 111.858C167.99 111.87 168.066 111.9 168.133 111.945C168.2 111.99 168.256 112.049 168.298 112.118C170.562 115.574 172.802 119.046 175.116 122.468C175.166 122.557 175.192 122.657 175.192 122.759C175.191 122.86 175.164 122.96 175.114 123.048C175.063 123.137 174.991 123.21 174.903 123.262C174.815 123.314 174.716 123.342 174.614 123.344L173.062 123.412L165.026 123.772C165.565 125.94 166.516 127.985 167.826 129.794C168.866 131.231 170.411 132.222 172.15 132.568C173.073 132.555 173.973 132.286 174.752 131.792C175.531 131.298 176.158 130.597 176.562 129.768C178.258 126.472 178.898 122.734 178.396 119.062C178.196 115.498 177.888 111.932 177.52 108.376C177.465 108.45 177.394 108.511 177.313 108.555C177.232 108.599 177.142 108.624 177.05 108.63C174.698 108.65 172.35 108.912 170 108.722C169.845 108.716 169.699 108.65 169.591 108.538C169.484 108.426 169.424 108.277 169.424 108.122C169.426 108.025 169.452 107.931 169.498 107.846C171.464 104.446 173.43 101.07 175.144 97.54C175.19 97.4309 175.274 97.3424 175.38 97.2915C175.487 97.2405 175.609 97.2308 175.722 97.264C175.815 97.2662 175.905 97.2939 175.982 97.344C175.701 95.85 175.378 94.3641 175.014 92.888C174.793 91.0923 173.985 89.4202 172.714 88.132C172.153 87.6873 171.479 87.4094 170.768 87.3302C170.056 87.251 169.337 87.3736 168.692 87.684C168.193 88.1155 167.743 88.6004 167.35 89.13C165.7 91.6579 164.615 94.5122 164.168 97.498C163.734 99.652 163.458 101.828 163.21 104.008C164.399 105.809 165.418 107.717 166.254 109.706C166.275 109.735 166.293 109.767 166.306 109.8Z" fill="#1D1D1B"/>
<path d="M163.058 113.916C162.945 112.867 162.867 111.815 162.824 110.762C162.436 110.778 162.046 110.792 161.658 110.802C161.693 111.574 161.745 112.345 161.814 113.114C162.035 115.539 162.406 117.949 162.924 120.328C163.204 119.788 163.49 119.255 163.78 118.728C163.472 117.128 163.23 115.524 163.058 113.916Z" fill="white"/>
<path d="M166.338 109.86L166.306 109.79C166.296 109.756 166.281 109.723 166.262 109.692C165.425 107.705 164.406 105.799 163.218 104C162.898 103.512 162.565 103.031 162.218 102.556C161.88 102.092 161.544 101.624 161.18 101.174C161.07 101.064 160.921 101.003 160.765 101.003C160.61 101.003 160.46 101.064 160.35 101.174C160.318 101.206 160.29 101.242 160.268 101.282C158.54 104.087 156.991 106.999 155.632 110C155.594 110.067 155.57 110.142 155.561 110.219C155.552 110.295 155.558 110.373 155.58 110.448C155.601 110.522 155.636 110.591 155.685 110.652C155.733 110.712 155.792 110.763 155.86 110.8C155.944 110.846 156.038 110.872 156.134 110.874C157.976 110.874 159.818 110.864 161.658 110.812C162.046 110.8 162.436 110.788 162.824 110.772C163.808 110.734 164.794 110.684 165.778 110.606C165.875 110.598 165.969 110.566 166.05 110.512C166.167 110.479 166.266 110.401 166.326 110.295C166.386 110.189 166.401 110.063 166.368 109.946C166.361 109.917 166.351 109.888 166.338 109.86ZM162.836 99.272C162.804 99.186 162.76 99.106 162.726 99.02C161.57 96.4613 160.254 93.9777 158.786 91.584C158.706 91.4516 158.577 91.3562 158.428 91.3187C158.278 91.2812 158.119 91.3047 157.986 91.384C157.905 91.4338 157.836 91.5024 157.786 91.584C156.595 94.2651 155.351 96.9223 154.054 99.554C154.005 99.6428 153.98 99.7425 153.981 99.8438C153.982 99.945 154.009 100.044 154.06 100.132C154.11 100.22 154.182 100.293 154.269 100.345C154.356 100.397 154.455 100.425 154.556 100.428C157.184 100.228 159.822 100.382 162.434 99.988C162.483 99.9779 162.529 99.9604 162.572 99.936C162.677 99.8968 162.762 99.8187 162.81 99.718C162.85 99.6513 162.873 99.5759 162.878 99.4982C162.882 99.4206 162.868 99.343 162.836 99.272ZM175.116 122.46C172.802 119.038 170.562 115.566 168.298 112.11C168.256 112.041 168.2 111.982 168.133 111.937C168.066 111.892 167.99 111.862 167.91 111.85C167.805 111.816 167.691 111.819 167.587 111.857C167.483 111.895 167.395 111.966 167.336 112.06L167.316 112.084C167.316 112.084 167.3 112.098 167.294 112.11C166.406 113.77 165.525 115.433 164.65 117.1C164.366 117.638 164.074 118.178 163.78 118.718C163.486 119.258 163.206 119.788 162.924 120.318C162.436 121.236 161.997 122.179 161.608 123.144C161.588 123.218 161.583 123.295 161.592 123.372C161.602 123.448 161.627 123.521 161.665 123.588C161.703 123.654 161.754 123.713 161.815 123.759C161.876 123.806 161.946 123.84 162.02 123.86C162.068 123.874 162.118 123.88 162.168 123.88L163.818 123.808L165.018 123.754L173.054 123.394L174.606 123.326C174.683 123.325 174.76 123.308 174.831 123.277C174.901 123.246 174.966 123.202 175.019 123.146C175.073 123.09 175.115 123.024 175.143 122.952C175.171 122.88 175.184 122.803 175.182 122.726C175.182 122.633 175.159 122.542 175.116 122.46ZM176.214 97.666C176.204 97.5982 176.179 97.5333 176.143 97.4755C176.106 97.4177 176.057 97.3681 176 97.33C175.922 97.2797 175.831 97.252 175.738 97.25C175.625 97.2169 175.504 97.2268 175.397 97.2777C175.291 97.3286 175.207 97.4171 175.162 97.526C173.448 101.056 171.482 104.44 169.516 107.832C169.443 107.969 169.427 108.129 169.469 108.278C169.512 108.427 169.61 108.554 169.744 108.632C169.828 108.678 169.922 108.704 170.018 108.706C172.368 108.896 174.716 108.634 177.068 108.614C177.16 108.608 177.25 108.583 177.331 108.539C177.412 108.495 177.483 108.434 177.538 108.36C177.578 108.316 177.608 108.264 177.627 108.207C177.646 108.151 177.653 108.091 177.648 108.032C177.2 104.57 176.904 101.092 176.214 97.666Z" fill="#AC47F5"/>
<path d="M145.694 59.952C145.186 58.2979 144.056 56.9054 142.542 56.067C141.028 55.2286 139.248 55.0096 137.576 55.456C138.672 52.5904 139.009 49.4902 138.554 46.456C138.262 45.2022 137.721 44.0199 136.962 42.9795C136.204 41.9391 135.244 41.0619 134.14 40.4C131.942 39.0785 129.421 38.3911 126.856 38.414C123.963 38.4957 121.132 39.2708 118.6 40.674C115.599 42.3514 112.784 44.3404 110.2 46.608C109.676 45.5333 108.939 44.5769 108.032 43.7976C107.126 43.0182 106.069 42.4324 104.928 42.076C102.044 41.1699 98.9256 41.3761 96.1861 42.654C93.1566 44.1054 90.3927 46.0559 88.0101 48.424C85.8568 50.408 83.8028 52.4947 81.8481 54.684C73.4221 64.106 66.3861 75.684 64.6601 88.4C64.114 92.4302 64.1882 96.5203 64.8801 100.528C65.2499 100.455 65.624 100.406 66.0001 100.382C66.5158 100.341 67.0342 100.351 67.5481 100.41C69.0901 100.672 70.5671 101.229 71.8981 102.05C71.9321 101.374 71.9801 100.702 72.0581 100.03C73.1212 92.0285 76.604 84.5429 82.0401 78.576C87.2437 72.5067 93.7593 67.7002 101.094 64.52C104.084 63.3136 107.201 62.4462 110.384 61.934C113.702 61.3423 117.071 61.0877 120.44 61.174C123.436 61.1327 126.399 61.793 129.094 63.102C132.335 65.1157 135.06 67.8595 137.052 71.114C137.852 72.304 138.568 73.542 139.252 74.798C139.494 75.238 139.736 75.678 139.966 76.124C140.434 74.942 140.966 73.786 141.534 72.646C143.062 69.9072 144.348 67.0403 145.378 64.078C145.833 62.752 145.942 61.3318 145.694 59.952Z" fill="#1D1D1B"/>
<path d="M87.632 129.104C82.1124 126.639 77.6392 122.306 75 116.868C74.886 117.112 74.748 117.344 74.614 117.578C74.0164 120.92 73.5494 124.284 73.214 127.662C73.014 129.65 72.84 131.64 72.666 133.63C72.3641 135.616 72.518 137.644 73.116 139.562C73.8989 141.414 75.1373 143.039 76.716 144.284C78.2559 145.677 79.9022 146.948 81.64 148.084C85.1242 150.382 89.0881 151.852 93.228 152.382C97.6958 152.892 102.216 152.71 106.628 151.844C108.775 151.434 110.904 150.936 113.01 150.35C114.946 149.959 116.81 149.269 118.534 148.306C119.666 147.549 120.636 146.572 121.385 145.435C122.135 144.297 122.649 143.021 122.898 141.682L123.898 136.832L125.678 128.248C119.863 130.699 113.65 132.071 107.344 132.296C100.619 132.694 93.8882 131.604 87.632 129.104Z" fill="#FFE497"/>
<path d="M71.452 137.6C71.6918 139.436 72.3967 141.181 73.5 142.668C74.8504 144.292 76.4007 145.739 78.114 146.974C81.3616 149.624 85.1074 151.596 89.13 152.774C98.018 155.174 107.486 153.228 116.096 150.66C117.987 150.094 119.7 149.049 121.068 147.626C122.181 146.478 123.036 145.105 123.576 143.6C124.004 142.175 124.338 140.723 124.576 139.254L126.976 127.654C126.598 127.828 126.222 128.01 125.842 128.174L125.668 128.242C125.076 131.105 124.483 133.966 123.888 136.826L122.888 141.676C122.639 143.015 122.125 144.291 121.375 145.429C120.626 146.566 119.656 147.543 118.524 148.3C116.8 149.263 114.936 149.953 113 150.344C110.894 150.93 108.765 151.428 106.618 151.838C102.205 152.704 97.6858 152.886 93.218 152.376C89.0786 151.847 85.1153 150.376 81.632 148.078C79.8927 146.943 78.2456 145.672 76.706 144.278C75.1272 143.033 73.8889 141.408 73.106 139.556C72.508 137.638 72.3541 135.61 72.656 133.624C72.83 131.624 73.004 129.644 73.204 127.656C73.546 124.276 74.004 120.914 74.604 117.572C74.1714 118.327 73.6592 119.034 73.076 119.68C72.7888 121.43 72.5408 123.187 72.332 124.948C72.098 126.948 71.906 128.948 71.732 130.938C71.4881 132.763 71.3619 134.601 71.354 136.442C71.366 136.708 71.354 136.976 71.39 137.242C71.4 137.366 71.434 137.484 71.452 137.6Z" fill="#1D1D1B"/>
<path d="M142.84 108.976L142.788 108.96C142.742 108.949 142.697 108.932 142.654 108.91C142.525 108.851 142.425 108.744 142.375 108.611C142.325 108.478 142.33 108.331 142.388 108.202C142.406 108.121 142.443 108.046 142.496 107.982C143.44 106.4 144.354 104.8 145.236 103.182C145.324 101.464 145.292 99.7417 145.14 98.028H138.4C138.323 98.027 138.246 98.0106 138.175 97.9798C138.104 97.9491 138.039 97.9045 137.985 97.8488C137.931 97.793 137.889 97.7271 137.861 97.6549C137.832 97.5827 137.819 97.5056 137.82 97.428C137.821 97.3794 137.828 97.331 137.84 97.284C138.914 94.494 140.208 91.796 141.284 89.008C141.318 88.9005 141.381 88.8047 141.467 88.7321C141.554 88.6596 141.659 88.6132 141.77 88.5984C141.882 88.5837 141.996 88.6013 142.098 88.649C142.2 88.6968 142.286 88.7728 142.346 88.868C143.026 90.094 143.688 91.33 144.358 92.56C144.34 92.466 144.328 92.37 144.308 92.274C143.491 88.1295 142.239 84.0825 140.574 80.2C139.051 76.4891 137.066 72.9848 134.666 69.77C132.717 66.9366 130.001 64.7168 126.836 63.37C123.918 62.4865 120.865 62.1356 117.822 62.334C111.246 62.446 104.771 63.974 98.8382 66.814C91.9323 70.3357 85.8886 75.338 81.1382 81.464C76.1955 87.5985 73.3483 95.1552 73.0142 103.026C73.0126 103.103 72.9959 103.179 72.9649 103.25C72.9339 103.321 72.8892 103.385 72.8335 103.438C72.7778 103.492 72.7121 103.534 72.6401 103.562C72.5682 103.59 72.4914 103.604 72.4142 103.602C72.317 103.6 72.2217 103.574 72.1362 103.528C70.606 102.464 68.8464 101.775 67.0002 101.518C65.4435 101.441 63.8987 101.825 62.5602 102.624C56.9322 105.888 56.9222 113.464 60.3182 118.37C61.9702 120.756 64.8902 122.878 67.9182 121.988C69.3817 121.468 70.6916 120.59 71.7282 119.434C72.9512 118.297 73.8605 116.865 74.3682 115.274C74.4922 114.828 75.2202 114.662 75.4322 115.136C76.8098 118.282 78.7842 121.13 81.2462 123.524C83.9384 126.041 87.1628 127.92 90.6802 129.02C96.7675 130.903 103.164 131.575 109.51 131C115.622 130.54 121.596 128.952 127.13 126.318C129.923 124.98 132.566 123.351 135.016 121.458C137.581 119.549 139.832 117.251 141.686 114.646C142.832 112.94 143.704 111.064 144.27 109.088C143.82 109.06 143.37 109.042 142.922 109C142.894 108.995 142.867 108.987 142.84 108.976ZM68.1202 112.2C66.9359 112.317 65.7924 112.695 64.7722 113.308C64.6406 113.371 64.49 113.383 64.3502 113.341C64.2105 113.298 64.0918 113.205 64.0177 113.079C63.9437 112.953 63.9197 112.804 63.9505 112.661C63.9814 112.518 64.0648 112.392 64.1842 112.308C65.3856 111.598 66.7303 111.166 68.1202 111.042C68.8662 110.97 68.8582 112.134 68.1202 112.204V112.2ZM90.0922 87.532C87.3623 88.4725 85.1056 90.4386 83.8002 93.014C83.4582 93.682 82.4562 93.092 82.8002 92.428C84.2642 89.5897 86.7744 87.4317 89.8002 86.41C90.4942 86.168 90.8002 87.292 90.0922 87.532ZM92.5322 101.492C92.5322 101.646 92.4709 101.794 92.3617 101.904C92.2526 102.013 92.1045 102.074 91.9502 102.074C91.7958 102.074 91.6478 102.013 91.5387 101.904C91.4295 101.794 91.3682 101.646 91.3682 101.492V97.454C91.3682 97.2997 91.4295 97.1516 91.5387 97.0425C91.6478 96.9333 91.7958 96.872 91.9502 96.872C92.1045 96.872 92.2526 96.9333 92.3617 97.0425C92.4709 97.1516 92.5322 97.2997 92.5322 97.454V101.492ZM125.64 100.028V100.042C125.028 102.798 124.035 105.455 122.688 107.936C121.543 110.147 119.799 111.991 117.656 113.259C115.513 114.527 113.057 115.167 110.568 115.106C105.4 114.722 101.1 111.052 98.0002 107.164C97.9204 107.081 97.8664 106.977 97.8448 106.865C97.8233 106.752 97.8351 106.635 97.8788 106.529C97.9226 106.423 97.9963 106.332 98.0911 106.267C98.1858 106.202 98.2974 106.166 98.4122 106.164C107.622 106.195 116.687 103.866 124.742 99.4C124.802 99.3592 124.871 99.3319 124.942 99.32C125.043 99.2958 125.149 99.3019 125.246 99.3375C125.344 99.373 125.429 99.4365 125.49 99.52C125.598 99.6648 125.649 99.8443 125.632 100.024L125.64 100.028ZM123.324 77.72C122.664 78.074 122.078 77.07 122.738 76.72C123.673 76.2104 124.703 75.9003 125.764 75.8095C126.824 75.7186 127.892 75.8488 128.9 76.192C129.606 76.434 129.3 77.556 128.592 77.312C127.734 77.011 126.822 76.8921 125.915 76.963C125.008 77.034 124.125 77.2931 123.324 77.724V77.72ZM130.042 92.862C130.186 93.594 129.064 93.906 128.92 93.172C128.631 91.6947 128.34 90.218 128.048 88.742C127.904 88.008 129.026 87.698 129.17 88.432L130.042 92.862ZM128.256 109.124C127.76 109.688 126.94 108.862 127.434 108.302C128.487 107.074 129.136 105.551 129.293 103.941C129.45 102.33 129.108 100.711 128.312 99.302C128.249 99.1704 128.237 99.0198 128.28 98.8801C128.322 98.7403 128.416 98.6216 128.541 98.5476C128.667 98.4735 128.817 98.4495 128.959 98.4804C129.102 98.5112 129.228 98.5946 129.312 98.714C130.233 100.346 130.625 102.224 130.435 104.088C130.246 105.953 129.483 107.713 128.252 109.126L128.256 109.124ZM132.98 111.144C132.65 111.816 131.646 111.226 131.98 110.558C132.98 108.498 133.484 106.232 133.451 103.942C133.418 101.653 132.849 99.4024 131.79 97.372C131.44 96.71 132.446 96.124 132.79 96.786C133.947 98.9963 134.567 101.448 134.6 103.942C134.633 106.437 134.078 108.904 132.98 111.144Z" fill="#FFE497"/>
<path d="M75.0001 116.868C77.6403 122.307 82.115 126.64 87.6361 129.104C93.8909 131.601 100.619 132.689 107.342 132.29C113.649 132.065 119.861 130.693 125.676 128.242L125.85 128.174C126.23 128.01 126.606 127.828 126.984 127.654C132.546 125.217 137.483 121.55 141.424 116.93C143.282 114.638 144.656 111.994 145.464 109.156C145.064 109.144 144.664 109.112 144.264 109.088C143.698 111.064 142.826 112.939 141.68 114.646C139.826 117.251 137.575 119.549 135.01 121.458C132.56 123.351 129.917 124.98 127.124 126.318C121.59 128.952 115.616 130.54 109.504 131C103.158 131.575 96.7614 130.903 90.6741 129.02C87.1567 127.919 83.9323 126.041 81.2401 123.524C78.7782 121.13 76.8037 118.281 75.4261 115.136C75.2141 114.662 74.4861 114.828 74.3621 115.274C73.8544 116.865 72.9451 118.297 71.7221 119.434C70.6855 120.59 69.3756 121.468 67.9121 121.988C64.8821 122.878 61.9621 120.756 60.3121 118.37C56.9121 113.464 56.9261 105.888 62.5541 102.624C63.8926 101.825 65.4374 101.441 66.9941 101.518C68.8431 101.774 70.6056 102.462 72.1381 103.528C72.2746 103.601 72.4341 103.619 72.5831 103.577C72.7322 103.535 72.8594 103.437 72.9381 103.304C72.9861 103.219 73.0115 103.123 73.0121 103.026C73.3479 95.1551 76.1957 87.5987 81.1381 81.4639C85.8885 75.3379 91.9322 70.3357 98.8381 66.814C104.771 63.9739 111.246 62.4459 117.822 62.334C120.865 62.1355 123.918 62.4864 126.836 63.37C130.001 64.7167 132.717 66.9365 134.666 69.7699C137.066 72.9847 139.051 76.489 140.574 80.1999C142.242 84.0878 143.494 88.141 144.31 92.292C144.33 92.388 144.342 92.492 144.36 92.578C144.901 93.5766 145.455 94.5673 146.022 95.55L145.962 95.0879C145.018 88.4821 142.995 82.0762 139.974 76.126C139.744 75.68 139.502 75.24 139.26 74.8C138.575 73.5435 137.842 72.3145 137.06 71.1159C135.068 67.8614 132.343 65.1177 129.102 63.104C126.407 61.7949 123.444 61.1347 120.448 61.176C117.079 61.0896 113.71 61.3442 110.392 61.936C107.209 62.4481 104.092 63.3156 101.102 64.522C93.767 67.7016 87.2513 72.5082 82.0481 78.578C76.6105 84.5443 73.1263 92.03 72.0621 100.032C71.9841 100.704 71.9361 101.376 71.9021 102.052C70.5711 101.231 69.0941 100.674 67.5521 100.412C67.037 100.352 66.5172 100.342 66.0001 100.382C65.6254 100.407 65.2526 100.455 64.8841 100.528C64.2483 100.652 63.627 100.841 63.0301 101.092C61.536 101.744 60.2174 102.74 59.1819 103.999C58.1464 105.258 57.4235 106.744 57.0721 108.336C56.3844 111.831 57.0699 115.457 58.9861 118.46C60.6741 121.17 63.6961 123.69 67.0861 123.328C69.0021 123.022 70.7648 122.096 72.1041 120.692C72.4441 120.372 72.7701 120.034 73.0861 119.692C73.6693 119.046 74.1815 118.339 74.6141 117.584C74.7441 117.344 74.8821 117.112 75.0001 116.868Z" fill="#1D1D1B"/>
<path d="M145.236 103.2C145.636 102.484 146.036 101.772 146.436 101.064C146.427 100.056 146.378 99.05 146.29 98.046H145.14C145.292 99.7597 145.324 101.482 145.236 103.2ZM91.368 97.454V101.492C91.368 101.646 91.4293 101.794 91.5385 101.904C91.6476 102.013 91.7957 102.074 91.95 102.074C92.1044 102.074 92.2524 102.013 92.3616 101.904C92.4707 101.794 92.532 101.646 92.532 101.492V97.454C92.532 97.2997 92.4707 97.1516 92.3616 97.0425C92.2524 96.9333 92.1044 96.872 91.95 96.872C91.7957 96.872 91.6476 96.9333 91.5385 97.0425C91.4293 97.1516 91.368 97.2997 91.368 97.454ZM128.048 88.742L128.92 93.172C129.064 93.906 130.186 93.594 130.042 92.862C129.75 91.386 129.459 89.9093 129.17 88.432C129.026 87.698 127.904 88 128.048 88.742ZM89.782 86.41C86.7562 87.4317 84.2461 89.5897 82.782 92.428C82.444 93.092 83.446 93.682 83.782 93.014C85.0884 90.4378 87.3466 88.4716 90.078 87.532C90.8 87.292 90.494 86.168 89.782 86.41ZM128.9 76.188C127.892 75.8448 126.824 75.7145 125.764 75.8054C124.703 75.8963 123.673 76.2064 122.738 76.716C122.078 77.07 122.664 78.074 123.324 77.716C124.125 77.2851 125.008 77.026 125.915 76.955C126.822 76.8841 127.733 77.0029 128.592 77.304C129.3 77.552 129.6 76.43 128.9 76.188ZM125.498 99.524C125.436 99.4405 125.352 99.377 125.254 99.3415C125.157 99.3059 125.051 99.2998 124.95 99.324C124.878 99.3359 124.81 99.3632 124.75 99.404C116.689 103.875 107.617 106.205 98.4 106.172C98.2848 106.173 98.1726 106.209 98.0773 106.273C97.9819 106.338 97.9077 106.429 97.8638 106.536C97.8199 106.642 97.8083 106.76 97.8304 106.873C97.8525 106.986 97.9073 107.09 97.988 107.172C101.098 111.06 105.388 114.73 110.566 115.114C113.055 115.175 115.511 114.535 117.654 113.267C119.797 111.999 121.541 110.155 122.686 107.944C124.032 105.463 125.026 102.806 125.638 100.05V100.036C125.654 99.8562 125.604 99.6768 125.496 99.532L125.498 99.524ZM68.12 111.028C66.7302 111.152 65.3854 111.584 64.184 112.294C64.0646 112.378 63.9812 112.504 63.9504 112.647C63.9195 112.79 63.9435 112.939 64.0176 113.065C64.0916 113.191 64.2103 113.284 64.3501 113.327C64.4898 113.369 64.6404 113.357 64.772 113.294C65.7934 112.686 66.9368 112.313 68.12 112.2C68.858 112.12 68.866 110.956 68.12 111.028ZM128.312 99.3C129.108 100.709 129.45 102.328 129.293 103.939C129.136 105.549 128.487 107.072 127.434 108.3C126.94 108.86 127.76 109.686 128.256 109.122C129.487 107.709 130.249 105.949 130.439 104.084C130.629 102.22 130.237 100.342 129.316 98.71C129.232 98.5906 129.106 98.5072 128.963 98.4764C128.82 98.4455 128.671 98.4695 128.545 98.5435C128.419 98.6176 128.326 98.7363 128.283 98.876C128.241 99.0158 128.253 99.1664 128.316 99.298L128.312 99.3ZM131.786 97.372C132.845 99.4024 133.414 101.653 133.447 103.942C133.48 106.232 132.976 108.498 131.976 110.558C131.646 111.226 132.65 111.816 132.976 111.144C134.074 108.904 134.629 106.437 134.596 103.942C134.563 101.448 133.943 98.9963 132.786 96.786C132.442 96.124 131.436 96.71 131.786 97.372Z" fill="#1D1D1B"/>
<path d="M146.972 97.16C146.646 96.628 146.332 96.088 146.02 95.548C145.454 94.564 144.9 93.5733 144.36 92.576C143.69 91.346 143.028 90.11 142.348 88.884C142.289 88.788 142.202 88.7113 142.1 88.663C141.998 88.6147 141.884 88.5968 141.772 88.6116C141.66 88.6264 141.555 88.6731 141.468 88.7463C141.382 88.8194 141.319 88.9158 141.286 89.024C140.21 91.812 138.916 94.51 137.842 97.298C137.822 97.3724 137.817 97.4501 137.827 97.5265C137.837 97.6029 137.863 97.6766 137.901 97.7433C137.94 97.81 137.991 97.8684 138.053 97.9152C138.114 97.962 138.184 97.9963 138.258 98.016C138.305 98.0277 138.354 98.0344 138.402 98.036H146.468C146.626 98.0292 146.774 97.9608 146.881 97.8456C146.989 97.7303 147.047 97.5775 147.042 97.42C147.038 97.3292 147.014 97.2404 146.972 97.16ZM153 108.12C151.516 105.382 149.793 102.78 147.85 100.346C147.767 100.214 147.636 100.119 147.485 100.081C147.333 100.044 147.173 100.067 147.038 100.146C146.956 100.195 146.887 100.264 146.838 100.346C146.7 100.578 146.572 100.818 146.438 101.054C146.029 101.762 145.629 102.474 145.238 103.19C144.344 104.79 143.45 106.408 142.498 107.99C142.445 108.054 142.408 108.129 142.39 108.21C142.332 108.339 142.327 108.486 142.377 108.619C142.427 108.752 142.527 108.859 142.656 108.918C142.699 108.94 142.744 108.957 142.79 108.968C142.807 108.975 142.824 108.981 142.842 108.984C142.867 108.994 142.894 109.002 142.92 109.008C143.368 109.05 143.818 109.068 144.268 109.096C144.668 109.12 145.068 109.152 145.468 109.164C147.814 109.242 150.17 109.146 152.506 109.004C152.661 108.998 152.808 108.932 152.915 108.82C153.022 108.708 153.082 108.559 153.082 108.404C153.079 108.304 153.051 108.206 153 108.12ZM151.544 124.2C150.129 120.703 148.337 117.371 146.2 114.262C146.157 114.187 146.096 114.124 146.023 114.079C145.95 114.033 145.866 114.006 145.78 114C145.666 113.961 145.541 113.967 145.432 114.018C145.322 114.068 145.236 114.16 145.192 114.272C143.624 117.644 141.446 120.692 139.878 124.072C139.841 124.139 139.817 124.214 139.808 124.29C139.799 124.367 139.805 124.445 139.826 124.519C139.848 124.594 139.883 124.663 139.931 124.723C139.979 124.784 140.039 124.834 140.106 124.872C140.19 124.919 140.284 124.945 140.38 124.946H150.98C151.058 124.945 151.135 124.929 151.206 124.898C151.277 124.868 151.342 124.823 151.396 124.767C151.45 124.711 151.492 124.645 151.52 124.573C151.548 124.501 151.562 124.424 151.56 124.346C151.56 124.297 151.555 124.248 151.544 124.2Z" fill="#AC47F5"/>
<path d="M189.358 184.148C185.741 186.077 182.229 188.196 178.836 190.496C178.214 190.908 178.796 191.916 179.422 191.496C184.525 187.924 189.996 184.911 195.742 182.508C196.014 182.402 196.282 182.286 196.558 182.184C196.97 182.032 197.386 181.894 197.802 181.754C202.636 180.226 207.613 179.198 212.656 178.686C216.748 178.19 220.856 177.8 224.952 177.368C225.688 177.29 225.696 176.126 224.952 176.204C218.272 176.908 211.526 177.404 204.922 178.684C202.913 179.072 200.927 179.57 198.972 180.176C198.316 180.377 197.664 180.592 197.016 180.82C194.387 181.745 191.828 182.857 189.358 184.148ZM254.282 173.568C260.027 173.554 265.538 171.296 269.64 167.274C271.401 165.3 272.733 162.981 273.552 160.466C274.372 157.951 274.66 155.293 274.4 152.66C274.08 149.105 273.132 145.634 271.6 142.41C271.288 141.73 270.286 142.32 270.6 142.996C273.16 148.069 273.891 153.871 272.668 159.42C272.032 161.767 270.895 163.949 269.334 165.813C267.772 167.678 265.825 169.182 263.626 170.22C260.691 171.572 257.512 172.312 254.282 172.396C253.536 172.436 253.532 173.6 254.282 173.568Z" fill="#1D1D1B"/>
<path d="M198.97 210.44C196.018 210.72 193.07 211.037 190.126 211.392C190.095 211.398 190.065 211.408 190.036 211.422C189.952 211.431 189.872 211.459 189.8 211.504C189.729 211.548 189.669 211.609 189.624 211.68C186.75 216.034 185.87 221.656 185.448 226.754C185.294 228.612 185.216 230.476 185.214 232.34V233.184C185.234 236.46 185.596 239.725 186.294 242.926C186.502 243.889 186.782 244.836 187.13 245.758C187.239 246.176 187.425 246.57 187.678 246.92C187.989 247.117 188.342 247.239 188.708 247.278C189.09 247.382 189.474 247.478 189.856 247.594C192.528 248.338 195.186 249.13 197.856 249.922C197.98 249.68 198.096 249.436 198.222 249.196C198.268 249.123 198.331 249.062 198.405 249.018C198.48 248.974 198.564 248.949 198.65 248.944C198.724 248.924 198.802 248.92 198.878 248.93L201.364 249.574L217.33 253.708C215.517 250.629 214.941 246.977 215.716 243.49C216.078 241.792 216.86 239.68 218.852 239.47C219.493 239.43 220.132 239.559 220.707 239.844C221.282 240.13 221.771 240.561 222.126 241.096C221.922 233.812 222.695 226.534 224.424 219.456C225.112 216.836 226.424 212.456 228.922 210.36C229.556 209.81 230.322 209.434 231.144 209.268C220.405 208.914 209.655 209.306 198.97 210.44Z" fill="#FF8684"/>
<path d="M256.888 124.766C253.721 121.61 250.064 118.988 246.058 117.002C242.296 115.284 238.381 113.922 234.364 112.934C231.79 112.242 229.204 111.584 226.632 110.876C226.485 110.84 226.33 110.863 226.199 110.94C226.069 111.017 225.973 111.141 225.933 111.287C225.893 111.433 225.912 111.589 225.985 111.722C226.058 111.855 226.179 111.954 226.324 111.998C234.45 114.232 242.938 115.856 250.052 120.632C252.203 122.097 254.217 123.756 256.066 125.588C256.6 126.112 257.424 125.29 256.888 124.766ZM277.68 131.93L286.204 121.054C286.66 120.472 285.842 119.654 285.38 120.232L276.858 131.106C276.4 131.69 277.218 132.518 277.68 131.93ZM295.98 132.814L281.46 134.79C280.722 134.892 281.036 136.012 281.77 135.912L296.29 133.936C297.028 133.834 296.714 132.714 295.98 132.814ZM389.952 281.07C389.386 276.449 387.948 271.978 385.714 267.894C383.168 262.776 379.826 258.11 377.202 253.038C376.166 250.91 375.276 248.715 374.538 246.466C372.284 240.112 370.356 233.638 368.492 227.158C368.269 227.68 368.019 228.191 367.744 228.688C364.652 234.288 358.398 238.128 351.93 236.32C351.682 237.002 351.416 237.678 351.12 238.34C351.088 239.404 351.054 240.468 351.038 241.54C350.968 246.254 351.108 250.968 351.076 255.68C351.064 260.225 350.724 264.762 350.06 269.258C349.996 269.678 349.932 270.094 349.86 270.504C354.937 272.833 359.326 276.436 362.6 280.962C366.744 286.479 370.196 292.482 372.88 298.838C374.185 301.806 375.396 304.814 376.512 307.858C376.672 308.288 376.842 308.712 376.998 309.142C378.408 307.234 379.998 305.458 381.408 303.542C383.582 300.64 385.418 297.501 386.882 294.184C387.772 292.143 388.512 290.039 389.096 287.89C389.772 285.683 390.062 283.376 389.952 281.07ZM362.69 205.8C361.999 202.463 360.952 199.21 359.566 196.096C357.284 191.578 354.152 187.544 350.34 184.214C348.578 182.594 346.647 181.165 344.582 179.954C342.506 178.8 340.309 177.878 338.03 177.206C333.347 175.793 328.442 175.261 323.564 175.636C322.536 175.718 321.512 175.854 320.496 176.036C313.452 171.022 303.718 170.57 295.638 173.078C291.468 174.596 287.655 176.958 284.438 180.016C279.832 184.152 275.679 188.766 272.048 193.78C267.561 199.862 263.58 206.302 260.144 213.034C258.029 217.16 256.097 221.377 254.354 225.674C254.488 225.728 254.628 225.772 254.754 225.838C255.785 226.386 256.576 227.296 256.976 228.393C257.375 229.49 257.355 230.695 256.918 231.778C256.517 232.926 255.839 233.957 254.945 234.781C254.051 235.604 252.967 236.195 251.79 236.5C251.726 236.512 251.662 236.5 251.59 236.518C251.181 236.573 250.767 236.577 250.356 236.532C249.886 237.992 249.439 239.459 249.014 240.932C249.372 241.125 249.707 241.356 250.014 241.622C250.392 241.946 250.722 242.321 250.996 242.736C251.673 243.934 251.848 245.351 251.483 246.677C251.117 248.003 250.241 249.13 249.046 249.812C248.655 250.033 248.237 250.203 247.802 250.318C247.4 250.42 246.987 250.478 246.572 250.49C245.666 254.592 244.942 258.733 244.404 262.9C243.808 267.507 243.462 272.142 243.368 276.786C243.323 279.114 243.343 281.442 243.43 283.77C243.458 285.876 243.65 287.978 244.006 290.054C244.651 293.1 245.96 295.967 247.84 298.449C249.72 300.931 252.124 302.968 254.882 304.414C255.312 304.656 255.752 304.876 256.19 305.096C256.436 304.78 256.684 304.47 256.926 304.154C258.94 301.512 260.852 298.788 262.82 296.116C268.77 288.038 275.244 280.02 283.71 274.448C286.298 272.738 289.07 271.324 291.974 270.232C291.586 268.402 291.36 266.508 291.146 264.68C290.852 262.099 290.69 259.504 290.662 256.906C290.64 255.28 290.662 253.656 290.698 252.03C290.152 251.672 289.604 251.318 289.084 250.92C283.931 246.843 280.197 241.244 278.412 234.92C276.534 228.511 276.35 221.725 277.878 215.224C278.642 211.892 280.015 208.731 281.928 205.898C283.884 203.087 286.243 200.578 288.928 198.452C291.653 196.204 294.673 194.339 297.904 192.91C301.026 191.572 304.313 190.66 307.678 190.198C313.963 189.358 320.353 189.82 326.452 191.554C329.09 192.282 331.649 193.27 334.092 194.502C336.485 195.744 338.704 197.296 340.692 199.118C346.338 204.052 350.448 210.504 352.534 217.706C354.722 214.972 357.464 212.25 361.134 212.106C361.824 212.082 362.514 212.158 363.182 212.334C363.642 212.455 364.09 212.621 364.518 212.828C363.898 210.474 363.274 208.14 362.69 205.8ZM262.358 244C261.914 244.6 260.904 244.012 261.358 243.412C263.105 240.803 263.832 237.642 263.4 234.532C262.986 231.164 261.738 227.953 259.768 225.19C259.346 224.568 260.354 223.99 260.768 224.602C262.843 227.543 264.149 230.957 264.568 234.532C265.01 237.851 264.228 241.216 262.368 244H262.358ZM268.178 246.03C267.778 246.662 266.778 246.078 267.178 245.442C268.162 243.899 268.898 242.212 269.36 240.442C270.12 237.312 270.049 234.038 269.154 230.944C268.259 227.85 266.572 225.043 264.258 222.802C263.724 222.276 264.548 221.454 265.082 221.98C266.5 223.368 267.708 224.956 268.666 226.694C270.308 229.669 271.128 233.027 271.043 236.423C270.959 239.82 269.972 243.133 268.184 246.022L268.178 246.03ZM274.294 248.066C273.932 248.722 272.928 248.134 273.294 247.478C274.373 245.536 275.163 243.448 275.638 241.278C276.418 237.421 276.246 233.433 275.138 229.657C274.03 225.882 272.019 222.433 269.278 219.61C268.76 219.068 269.582 218.246 270.1 218.788C271.762 220.516 273.181 222.463 274.318 224.574C276.267 228.183 277.285 232.22 277.282 236.322C277.278 240.423 276.253 244.459 274.298 248.064L274.294 248.066ZM285.944 142.14C285.216 141.966 284.906 143.088 285.634 143.26L295.358 145.564C296.086 145.738 296.396 144.616 295.666 144.444L285.944 142.14ZM236.318 221.43C235.59 220.667 235.139 219.683 235.037 218.634C234.934 217.585 235.186 216.531 235.752 215.642C235.828 215.504 235.92 215.38 236.004 215.242C235.714 214.365 235.353 213.514 234.924 212.696C234.629 212.113 234.254 211.575 233.81 211.096C233.657 210.924 233.48 210.776 233.284 210.654C233.135 210.54 232.961 210.463 232.776 210.432C230.636 209.954 229.006 211.68 227.958 213.466C226.57 216.06 225.594 218.854 225.064 221.748C224.336 225.171 223.846 228.64 223.596 232.13C223.712 232.098 223.835 232.104 223.946 232.148H223.968C223.991 232.153 224.013 232.16 224.034 232.168C225.116 232.813 226.026 233.708 226.689 234.778C227.352 235.849 227.748 237.063 227.844 238.318C227.989 239.628 227.659 240.946 226.914 242.034C226.17 243.121 225.06 243.905 223.786 244.244C223.715 244.259 223.641 244.259 223.57 244.244C223.922 245.594 224.436 246.897 225.1 248.124C225.498 248.923 226.081 249.616 226.801 250.143C227.522 250.67 228.358 251.017 229.24 251.154C230.244 251.134 231.228 250.864 232.101 250.368C232.974 249.871 233.709 249.165 234.24 248.312C235.319 246.739 236.099 244.981 236.542 243.126C237.282 239.193 237.672 235.202 237.708 231.2C237.717 231.071 237.767 230.948 237.851 230.85C237.934 230.751 238.047 230.681 238.172 230.65C238.162 227.87 237.966 225.094 237.586 222.34C237.123 222.098 236.696 221.791 236.318 221.43ZM234.464 233.778C233.869 234.31 233.149 234.685 232.371 234.866C231.593 235.048 230.782 235.031 230.012 234.818C229.285 234.592 228.611 234.223 228.03 233.733C227.448 233.242 226.971 232.64 226.626 231.962C225.938 230.293 225.776 228.454 226.162 226.69C226.305 225.728 226.695 224.82 227.295 224.054C227.894 223.288 228.681 222.691 229.58 222.32C230.801 221.862 232.131 221.778 233.4 222.078C234.107 222.291 234.764 222.645 235.33 223.119C235.897 223.592 236.361 224.176 236.696 224.834C237.384 226.359 237.538 228.071 237.133 229.694C236.728 231.317 235.788 232.756 234.464 233.778ZM272.58 137.056C272.185 135.105 271.074 133.373 269.464 132.202C267.891 131.013 266.169 130.036 264.342 129.296C262.427 128.563 260.668 127.472 259.16 126.082C259.047 125.975 258.896 125.918 258.741 125.923C258.586 125.927 258.439 125.993 258.332 126.106C258.266 126.178 258.218 126.265 258.193 126.359C258.168 126.454 258.166 126.553 258.188 126.648C258.765 130.055 259.773 133.375 261.188 136.528C262.258 138.846 263.952 141.964 266.698 142.554C267.386 142.634 268.083 142.577 268.749 142.388C269.415 142.198 270.038 141.879 270.58 141.449C271.123 141.019 271.576 140.486 271.913 139.881C272.25 139.276 272.464 138.61 272.544 137.922C272.576 137.635 272.586 137.345 272.572 137.056H272.58ZM267.78 134.602L269.332 135.764C269.932 136.208 269.344 137.216 268.746 136.764L267.2 135.6C266.6 135.162 267.178 134.152 267.776 134.6L267.78 134.602ZM251.358 172.478C250.208 172.549 249.054 172.39 247.966 172.011C246.877 171.631 245.875 171.039 245.018 170.268C243.374 168.954 241.503 167.951 239.498 167.31C238.624 167.035 237.694 166.986 236.795 167.17C235.897 167.353 235.061 167.762 234.364 168.358C233.234 169.56 232.229 170.873 231.364 172.278C230.798 173.115 230.174 173.911 229.496 174.66C229.016 175.243 228.388 175.686 227.678 175.944C227.591 175.957 227.51 175.994 227.442 176.05C227.361 176.104 227.297 176.179 227.256 176.267C227.216 176.356 227.201 176.454 227.214 176.55V176.624C227.214 176.65 227.214 176.668 227.23 176.69C227.262 176.816 227.338 176.926 227.444 177L227.52 177.04C227.548 177.059 227.577 177.075 227.608 177.088C229.815 177.462 231.933 178.247 233.85 179.402C234.712 180.089 235.534 180.824 236.314 181.602C236.899 182.289 237.642 182.826 238.478 183.166C242.552 184.5 245.394 180.198 247.556 177.524C248.196 176.724 248.852 175.948 249.556 175.218C250.125 174.537 250.837 173.991 251.642 173.618C251.791 173.577 251.917 173.478 251.993 173.344C252.07 173.21 252.089 173.051 252.048 172.902C252.007 172.753 251.908 172.627 251.774 172.551C251.64 172.475 251.481 172.455 251.332 172.496L251.358 172.478ZM240.2 170.224C238.712 170.355 237.329 171.045 236.328 172.154C235.822 172.708 235 171.882 235.506 171.332C236.727 170.008 238.404 169.197 240.2 169.062C240.948 168.998 240.942 170.162 240.2 170.224ZM176.664 192.274C172.978 193.413 169.378 194.816 165.894 196.474C164.204 197.271 162.621 198.279 161.184 199.474C160.069 200.342 159.272 201.555 158.918 202.924C158.828 203.775 158.955 204.635 159.288 205.424C159.621 206.212 160.149 206.903 160.822 207.432C161.827 208.43 163.141 209.057 164.548 209.212C165.877 209.254 167.182 208.85 168.254 208.064C171.06 205.824 173.256 202.913 174.64 199.6C175.689 197.459 176.604 195.255 177.378 193C177.417 192.85 177.395 192.69 177.318 192.556C177.24 192.422 177.112 192.324 176.962 192.284C176.865 192.255 176.763 192.251 176.664 192.274ZM166 199.318C164.208 200.256 162.754 201.732 161.842 203.538C161.504 204.206 160.5 203.616 160.842 202.952C161.85 200.969 163.449 199.349 165.418 198.314C166.082 197.964 166.668 198.968 166 199.318Z" fill="#1D1D1B"/>
<path d="M227.844 238.324C227.748 237.069 227.352 235.855 226.689 234.784C226.026 233.714 225.115 232.819 224.034 232.174C224.013 232.166 223.991 232.159 223.968 232.154H223.946C223.834 232.11 223.712 232.104 223.596 232.136L223.546 232.154C223.449 232.184 223.363 232.242 223.297 232.32C223.232 232.398 223.191 232.493 223.178 232.594V232.64C223.177 232.655 223.177 232.669 223.178 232.684L223.076 242.792C223.266 243.282 223.434 243.774 223.588 244.268C223.659 244.283 223.733 244.283 223.804 244.268C225.078 243.925 226.186 243.137 226.928 242.046C227.669 240.955 227.994 239.634 227.844 238.324ZM236.696 224.834C236.361 224.176 235.897 223.592 235.33 223.119C234.764 222.645 234.107 222.291 233.4 222.078C232.131 221.778 230.801 221.862 229.58 222.32C228.681 222.691 227.893 223.288 227.294 224.054C226.695 224.82 226.305 225.728 226.162 226.69C225.776 228.454 225.938 230.293 226.626 231.962C226.971 232.64 227.448 233.242 228.03 233.733C228.611 234.223 229.285 234.592 230.012 234.818C230.782 235.031 231.593 235.048 232.371 234.866C233.149 234.685 233.868 234.31 234.464 233.778C235.788 232.755 236.728 231.317 237.133 229.694C237.538 228.071 237.384 226.359 236.696 224.834ZM380.8 320.696C379.636 316.809 378.369 312.955 377 309.134C376.844 308.704 376.674 308.28 376.514 307.85C375.398 304.806 374.186 301.798 372.882 298.83C370.198 292.474 366.745 286.471 362.602 280.954C359.328 276.428 354.939 272.825 349.862 270.496C349.794 270.887 349.714 271.272 349.622 271.652C349.423 272.57 349.075 273.448 348.59 274.252C347.723 275.577 346.626 276.736 345.352 277.676C342.101 280.008 338.458 281.738 334.596 282.784C330.184 284.104 325.644 284.948 321.052 285.3C316.393 285.806 311.681 285.452 307.15 284.254C303.428 283.199 299.988 281.329 297.08 278.778C294.981 277.04 293.391 274.766 292.48 272.198C292.396 271.922 292.336 271.636 292.264 271.356C292.168 270.98 292.064 270.608 291.984 270.226C289.08 271.318 286.308 272.732 283.72 274.442C275.254 280.014 268.78 288.032 262.83 296.11C260.862 298.782 258.95 301.51 256.936 304.148C256.694 304.464 256.446 304.774 256.2 305.09C255.866 305.516 255.54 305.95 255.2 306.372C252.612 309.959 249.025 312.703 244.886 314.264C237.486 316.664 231.236 311.246 228.886 304.55C227.785 301.067 227.126 297.459 226.924 293.812C226.575 290.089 226.482 286.347 226.644 282.612C226.747 280.474 226.971 278.343 227.316 276.23V276.152C227.273 276.259 227.199 276.352 227.104 276.417C227.008 276.483 226.896 276.518 226.78 276.52C223.955 276.416 221.128 276.402 218.302 276.478C208.33 276.732 198.41 277.878 188.478 278.74C188.417 278.749 188.354 278.746 188.294 278.731C188.234 278.715 188.177 278.688 188.128 278.651C188.078 278.614 188.036 278.567 188.005 278.514C187.973 278.461 187.953 278.401 187.944 278.34C187.916 278.263 187.906 278.18 187.914 278.098C187.914 278.116 187.886 278.124 187.882 278.144C184.054 293.666 181.26 310.378 185.818 326.044C187.754 332.919 191.091 339.32 195.618 344.844C200.484 350.604 206.776 354.986 213.866 357.552C222.557 360.48 231.699 361.845 240.866 361.584H389.426C389.582 361.579 389.729 361.513 389.837 361.401C389.946 361.289 390.006 361.14 390.006 360.984C390.004 360.939 389.998 360.894 389.988 360.85C387.748 347.29 384.679 333.881 380.8 320.696ZM348.242 350.34L348.642 321.14C348.651 320.992 348.716 320.853 348.824 320.751C348.932 320.649 349.075 320.592 349.223 320.592C349.371 320.592 349.514 320.649 349.622 320.751C349.73 320.853 349.795 320.992 349.804 321.14L349.688 329.502L349.288 358.702C349.288 358.856 349.227 359.004 349.118 359.114C349.008 359.223 348.86 359.284 348.706 359.284C348.552 359.284 348.404 359.223 348.294 359.114C348.185 359.004 348.124 358.856 348.124 358.702L348.242 350.34ZM255.364 226.214C255.174 226.07 254.974 225.941 254.764 225.828C254.634 225.762 254.494 225.718 254.364 225.664C253.35 225.289 252.257 225.18 251.189 225.345C250.12 225.51 249.112 225.945 248.258 226.608C247.284 227.428 246.572 228.517 246.211 229.738C245.851 230.96 245.857 232.26 246.23 233.478C246.678 234.498 247.445 235.344 248.416 235.891C249.386 236.437 250.508 236.654 251.612 236.508C251.676 236.498 251.74 236.508 251.812 236.49C252.989 236.185 254.072 235.594 254.967 234.771C255.861 233.947 256.539 232.916 256.94 231.768C257.335 230.799 257.395 229.726 257.109 228.719C256.824 227.713 256.209 226.831 255.364 226.214ZM241.626 212.618C240.763 212.468 239.876 212.53 239.043 212.801C238.21 213.071 237.456 213.541 236.846 214.17C236.528 214.499 236.246 214.86 236.004 215.248C235.92 215.38 235.828 215.504 235.752 215.648C235.186 216.537 234.934 217.591 235.037 218.64C235.139 219.689 235.59 220.673 236.318 221.436C236.693 221.802 237.118 222.114 237.58 222.362C237.97 222.568 238.381 222.731 238.806 222.848C239.653 223.119 240.553 223.175 241.428 223.013C242.302 222.851 243.122 222.474 243.815 221.918C244.508 221.361 245.053 220.642 245.4 219.823C245.748 219.005 245.887 218.113 245.806 217.228C245.755 216.093 245.31 215.012 244.547 214.17C243.783 213.328 242.751 212.779 241.626 212.618Z" fill="#FEE253"/>
<path d="M243.284 241.376C243.3 240.92 243.32 240.462 243.328 240.01C243.22 238.456 242.756 236.948 241.97 235.602C241.185 234.257 240.1 233.11 238.8 232.252C238.817 236.277 238.362 240.291 237.442 244.21C236.42 247.574 234.262 251.64 230.424 252.264C226.636 252.88 224.156 249.512 222.982 246.37C222.316 244.592 222.152 242.064 220.366 240.99C219.967 240.695 219.468 240.57 218.977 240.643C218.486 240.716 218.044 240.98 217.748 241.378C217.249 242.167 216.926 243.053 216.798 243.978C216.399 245.766 216.408 247.621 216.823 249.406C217.239 251.19 218.05 252.858 219.198 254.286C219.239 254.331 219.272 254.381 219.298 254.436C219.888 255.18 220.62 255.799 221.45 256.259C222.281 256.719 223.194 257.01 224.138 257.116C224.876 257.196 224.88 258.36 224.138 258.28C221.91 258.05 219.865 256.946 218.45 255.21L216.148 254.61L199.022 250.174C198.17 251.81 197.376 253.477 196.64 255.174C193.571 262.404 191.096 269.872 189.24 277.504C191.784 277.281 194.327 277.049 196.87 276.808C206.64 275.696 216.472 275.207 226.304 275.344C226.923 271.715 228.069 268.195 229.704 264.896C231.285 261.767 233.459 258.974 236.104 256.672C237.477 255.705 238.787 254.651 240.024 253.516C241 252.365 241.717 251.018 242.126 249.566C242.222 249.252 242.282 248.924 242.364 248.604C241.805 247.913 241.4 247.111 241.174 246.252C241.018 245.322 241.134 244.367 241.509 243.502C241.883 242.637 242.5 241.899 243.284 241.376Z" fill="#FFCEB6"/>
<path d="M188.47 278.724C198.402 277.866 208.322 276.724 218.294 276.462C221.12 276.386 223.949 276.4 226.774 276.504C226.889 276.502 227.002 276.466 227.097 276.401C227.192 276.335 227.265 276.243 227.308 276.136C227.319 276.118 227.327 276.098 227.334 276.078C228.279 268.883 231.731 262.251 237.082 257.348C238.502 256.376 239.834 255.28 241.062 254.074C242.024 252.874 242.748 251.5 243.194 250.028C243.25 249.858 243.292 249.686 243.342 249.514C242.977 249.25 242.648 248.939 242.364 248.59C242.282 248.91 242.222 249.238 242.126 249.552C241.717 251.004 241 252.351 240.024 253.502C238.787 254.637 237.477 255.691 236.104 256.658C233.46 258.96 231.286 261.753 229.704 264.882C228.069 268.181 226.923 271.701 226.304 275.33C216.472 275.193 206.64 275.682 196.87 276.794C194.329 277.031 191.785 277.263 189.24 277.49C191.096 269.858 193.571 262.39 196.64 255.16C197.377 253.471 198.171 251.804 199.022 250.16L216.148 254.596L218.45 255.196C218.37 255.1 218.286 255.008 218.208 254.908C217.756 254.308 218.766 253.732 219.208 254.322L219.292 254.422C219.267 254.367 219.233 254.317 219.192 254.272C218.044 252.844 217.233 251.176 216.817 249.392C216.402 247.607 216.393 245.752 216.792 243.964C216.92 243.04 217.244 242.153 217.742 241.364C218.038 240.966 218.48 240.702 218.971 240.629C219.462 240.556 219.961 240.681 220.36 240.976C222.146 242.05 222.31 244.576 222.976 246.356C224.15 249.498 226.63 252.866 230.418 252.25C234.256 251.626 236.418 247.56 237.436 244.196C238.356 240.277 238.811 236.263 238.794 232.238C240.094 233.096 241.179 234.243 241.964 235.588C242.75 236.934 243.214 238.442 243.322 239.996C243.322 240.448 243.294 240.906 243.278 241.362C243.643 241.086 244.038 240.852 244.456 240.666L244.476 240.266C244.411 238.449 243.906 236.675 243.006 235.095C242.105 233.515 240.835 232.178 239.304 231.196C239.062 231.03 238.82 230.854 238.57 230.71C238.448 230.642 238.305 230.625 238.17 230.662C238.045 230.693 237.932 230.763 237.849 230.862C237.765 230.96 237.715 231.083 237.706 231.212C237.67 235.214 237.28 239.205 236.54 243.138C236.098 244.993 235.317 246.751 234.238 248.324C233.707 249.177 232.972 249.883 232.099 250.38C231.226 250.876 230.242 251.146 229.238 251.166C228.356 251.029 227.52 250.682 226.799 250.155C226.079 249.628 225.495 248.935 225.098 248.136C224.434 246.909 223.92 245.606 223.568 244.256C223.414 243.758 223.243 243.266 223.056 242.78C223.038 242.734 223.026 242.686 223.008 242.64C222.785 242.086 222.486 241.565 222.12 241.092C221.765 240.557 221.276 240.126 220.701 239.84C220.126 239.555 219.487 239.426 218.846 239.466C216.846 239.676 216.072 241.788 215.71 243.486C214.935 246.974 215.511 250.625 217.324 253.704L201.358 249.568L198.872 248.926C198.796 248.916 198.718 248.92 198.644 248.94C198.558 248.945 198.474 248.97 198.399 249.014C198.325 249.058 198.262 249.119 198.216 249.192C198.09 249.432 197.974 249.676 197.85 249.918C194.51 256.646 191.821 263.678 189.818 270.918C189.134 273.262 188.497 275.619 187.908 277.988C187.898 278.103 187.907 278.218 187.934 278.33C187.943 278.391 187.965 278.45 187.997 278.503C188.029 278.556 188.071 278.602 188.12 278.638C188.17 278.675 188.227 278.701 188.287 278.716C188.347 278.731 188.409 278.733 188.47 278.724Z" fill="#1D1D1B"/>
<path d="M291.932 259.952C292.059 262.604 292.342 265.247 292.78 267.866C292.966 269.632 293.39 271.366 294.042 273.018C295.362 275.578 297.304 277.766 299.688 279.382C302.978 281.689 306.745 283.226 310.71 283.878C315.263 284.535 319.888 284.499 324.43 283.77C328.8 283.219 333.094 282.177 337.23 280.664C340.674 279.55 343.82 277.668 346.43 275.16C347.387 274.188 348.088 272.995 348.47 271.686C348.718 270.605 348.906 269.512 349.032 268.41C349.207 267.21 349.354 266.01 349.474 264.81C350.284 256.81 349.83 248.752 349.92 240.722C349.858 240.834 349.8 240.948 349.734 241.058C346.002 247.084 340.465 251.78 333.912 254.48C326.303 257.533 318.071 258.707 309.912 257.904C303.583 257.578 297.411 255.813 291.866 252.744C291.802 255.147 291.824 257.551 291.932 259.952Z" fill="#FFCEB6"/>
<path d="M351.076 255.672C351.108 250.96 350.968 246.246 351.038 241.532C351.054 240.468 351.088 239.404 351.12 238.332C350.755 239.146 350.35 239.941 349.906 240.714C349.816 248.744 350.27 256.806 349.46 264.802C349.34 266.002 349.193 267.202 349.018 268.402C348.892 269.504 348.704 270.597 348.456 271.678C348.074 272.987 347.373 274.181 346.416 275.152C343.806 277.66 340.66 279.543 337.216 280.656C333.08 282.169 328.786 283.211 324.416 283.762C319.874 284.491 315.249 284.527 310.696 283.87C306.731 283.218 302.964 281.681 299.674 279.374C297.29 277.758 295.348 275.57 294.028 273.01C293.376 271.358 292.952 269.625 292.766 267.858C292.328 265.239 292.045 262.596 291.918 259.944C291.798 257.544 291.8 255.144 291.844 252.744C291.455 252.511 291.073 252.268 290.696 252.016C290.655 253.641 290.643 255.267 290.66 256.892C290.688 259.49 290.85 262.085 291.144 264.666C291.358 266.494 291.584 268.388 291.972 270.218C292.054 270.6 292.156 270.972 292.252 271.348C292.324 271.628 292.384 271.914 292.468 272.19C293.379 274.758 294.969 277.032 297.068 278.77C299.976 281.321 303.416 283.191 307.138 284.246C311.669 285.444 316.381 285.798 321.04 285.292C325.632 284.94 330.172 284.096 334.584 282.776C338.446 281.73 342.089 280 345.34 277.668C346.614 276.728 347.711 275.569 348.578 274.244C349.063 273.44 349.411 272.562 349.61 271.644C349.702 271.264 349.782 270.879 349.85 270.488C349.92 270.088 349.984 269.662 350.05 269.242C350.717 264.749 351.06 260.214 351.076 255.672Z" fill="#1D1D1B"/>
<path d="M251 242.722C250.726 242.307 250.396 241.932 250.018 241.608C249.711 241.342 249.376 241.111 249.018 240.918C247.889 240.285 246.563 240.096 245.302 240.388C245.013 240.462 244.73 240.56 244.456 240.68C244.038 240.866 243.643 241.1 243.278 241.376C242.496 241.898 241.881 242.634 241.507 243.496C241.133 244.359 241.015 245.311 241.168 246.238C241.394 247.097 241.799 247.899 242.358 248.59C242.642 248.939 242.971 249.25 243.336 249.514C243.863 249.9 244.461 250.178 245.096 250.332C245.582 250.444 246.08 250.492 246.578 250.476C246.993 250.464 247.406 250.406 247.808 250.304C248.576 250.101 249.288 249.724 249.888 249.203C250.488 248.682 250.961 248.031 251.27 247.299C251.579 246.567 251.716 245.773 251.67 244.98C251.625 244.187 251.398 243.414 251.008 242.722H251Z" fill="#FEE253"/>
<path d="M352.786 219.236C352.701 219.366 352.569 219.458 352.418 219.493C352.266 219.528 352.107 219.502 351.974 219.422C351.854 219.347 351.765 219.231 351.724 219.096C351.301 217.25 350.72 215.443 349.988 213.696C348.449 210.191 346.388 206.94 343.876 204.052C341.736 201.454 339.252 199.159 336.492 197.232C332.132 194.452 327.256 192.58 322.156 191.726C315.998 190.513 309.648 190.669 303.556 192.182C296.986 193.95 291.023 197.476 286.308 202.382C283.984 204.73 282.082 207.461 280.686 210.456C279.376 213.468 278.553 216.669 278.248 219.94C277.524 226.289 278.471 232.716 280.996 238.586C283.596 244.645 288.211 249.618 294.058 252.664C300.792 255.799 308.183 257.265 315.604 256.936C323.307 257.006 330.895 255.064 337.616 251.3C343.815 247.782 348.56 242.174 351.002 235.478C351.049 235.333 351.148 235.212 351.28 235.137C351.413 235.063 351.569 235.042 351.716 235.078C353.95 235.749 356.33 235.762 358.57 235.116C360.811 234.469 362.819 233.191 364.352 231.434C366.007 229.81 367.222 227.792 367.884 225.569C368.545 223.347 368.631 220.993 368.134 218.728C367.696 217.157 366.754 215.772 365.454 214.787C364.153 213.802 362.566 213.27 360.934 213.274C357.4 213.494 354.78 216.626 352.786 219.236ZM286.69 207.768C287.868 206.522 289.366 205.626 291.02 205.177C292.675 204.729 294.421 204.746 296.066 205.226C296.211 205.27 296.333 205.369 296.406 205.502C296.479 205.635 296.497 205.791 296.457 205.937C296.417 206.083 296.322 206.207 296.191 206.284C296.061 206.361 295.905 206.384 295.758 206.348C294.311 205.921 292.774 205.905 291.318 206.301C289.863 206.696 288.546 207.489 287.514 208.59C287 209.138 286.182 208.314 286.69 207.768ZM295.97 224.666C295.677 225.2 295.262 225.657 294.761 226.003C294.259 226.348 293.684 226.571 293.08 226.655C292.477 226.739 291.863 226.681 291.286 226.485C290.709 226.289 290.186 225.962 289.758 225.528C289.194 224.898 288.763 224.161 288.491 223.361C288.218 222.56 288.11 221.713 288.172 220.87C288.181 220.722 288.246 220.583 288.354 220.481C288.462 220.379 288.605 220.322 288.753 220.322C288.902 220.322 289.044 220.379 289.152 220.481C289.26 220.583 289.326 220.722 289.334 220.87C289.334 222.546 289.734 224.616 291.51 225.27C292.076 225.556 292.728 225.623 293.34 225.458C293.953 225.293 294.482 224.908 294.828 224.376C295.266 223.262 295.438 222.06 295.33 220.868C295.33 220.714 295.392 220.566 295.501 220.456C295.61 220.347 295.758 220.286 295.912 220.286C296.067 220.286 296.215 220.347 296.324 220.456C296.433 220.566 296.494 220.714 296.494 220.868C296.578 222.156 296.399 223.448 295.97 224.666ZM328.308 233.31C327.723 235.008 326.88 236.607 325.81 238.05C324.34 239.965 322.425 241.492 320.231 242.499C318.037 243.505 315.63 243.961 313.22 243.826C306.976 243.58 302.042 238.44 298.972 233.448C298.934 233.381 298.909 233.307 298.899 233.231C298.889 233.154 298.895 233.077 298.915 233.002C298.936 232.928 298.971 232.858 299.018 232.797C299.066 232.737 299.125 232.686 299.192 232.648C299.278 232.599 299.375 232.573 299.474 232.572C308.898 232.73 318.322 232.414 327.748 232.572C327.868 232.574 327.984 232.616 328.078 232.69C328.188 232.745 328.273 232.839 328.316 232.955C328.358 233.07 328.356 233.197 328.308 233.31ZM330.896 205.652C332.519 205.139 334.26 205.138 335.884 205.649C337.507 206.16 338.934 207.158 339.97 208.508C340.426 209.108 339.416 209.68 338.97 209.094C338.066 207.964 336.839 207.136 335.452 206.721C334.065 206.306 332.585 206.324 331.208 206.772C330.49 207 330.188 205.884 330.896 205.652ZM340.426 224.452C340.132 224.985 339.718 225.443 339.216 225.788C338.715 226.133 338.139 226.356 337.536 226.44C336.933 226.523 336.319 226.465 335.742 226.27C335.165 226.074 334.642 225.747 334.214 225.314C333.65 224.684 333.219 223.947 332.946 223.147C332.673 222.346 332.564 221.499 332.626 220.656C332.626 220.502 332.688 220.354 332.797 220.244C332.906 220.135 333.054 220.074 333.208 220.074C333.363 220.074 333.511 220.135 333.62 220.244C333.729 220.354 333.79 220.502 333.79 220.656C333.79 222.332 334.19 224.402 335.964 225.056C336.531 225.342 337.182 225.408 337.795 225.243C338.408 225.078 338.938 224.693 339.284 224.162C339.72 223.047 339.892 221.846 339.786 220.654C339.795 220.506 339.86 220.367 339.968 220.265C340.076 220.163 340.219 220.106 340.367 220.106C340.516 220.106 340.658 220.163 340.766 220.265C340.875 220.367 340.94 220.506 340.948 220.654C341.032 221.942 340.854 223.233 340.426 224.45V224.452ZM360.714 224.686L353.468 229.436C352.84 229.848 352.258 228.836 352.882 228.436L360.126 223.686C360.754 223.268 361.336 224.276 360.714 224.684V224.686Z" fill="#FFCEB6"/>
<path d="M361.134 212.086C357.466 212.228 354.724 214.95 352.534 217.686C350.448 210.484 346.338 204.032 340.692 199.098C338.704 197.276 336.485 195.724 334.092 194.482C331.649 193.25 329.09 192.262 326.452 191.534C320.353 189.8 313.963 189.338 307.678 190.178C304.313 190.64 301.026 191.552 297.904 192.89C294.673 194.319 291.653 196.184 288.928 198.432C286.243 200.558 283.884 203.067 281.928 205.878C280.016 208.711 278.643 211.873 277.878 215.204C276.35 221.705 276.534 228.491 278.412 234.9C280.196 241.224 283.931 246.823 289.084 250.9C289.604 251.3 290.154 251.65 290.698 252.01C291.078 252.26 291.456 252.508 291.846 252.738C297.391 255.806 303.563 257.571 309.892 257.898C318.051 258.7 326.283 257.526 333.892 254.474C340.445 251.774 345.981 247.077 349.714 241.052C349.78 240.942 349.838 240.828 349.9 240.716C350.344 239.943 350.749 239.148 351.114 238.334C351.41 237.672 351.676 236.996 351.924 236.314C358.392 238.114 364.646 234.278 367.738 228.682C368.013 228.184 368.263 227.673 368.486 227.15C368.764 226.514 369 225.859 369.192 225.192C369.849 222.976 369.871 220.62 369.256 218.392C368.879 217.189 368.265 216.074 367.45 215.112C366.635 214.151 365.636 213.362 364.512 212.792C364.084 212.585 363.636 212.419 363.176 212.298C362.509 212.127 361.821 212.056 361.134 212.086ZM368.134 218.714C368.631 220.979 368.545 223.333 367.884 225.555C367.222 227.778 366.007 229.796 364.352 231.42C362.819 233.177 360.812 234.455 358.571 235.101C356.331 235.748 353.951 235.735 351.718 235.064C351.57 235.027 351.414 235.048 351.281 235.123C351.148 235.197 351.048 235.319 351.002 235.464C348.56 242.16 343.815 247.768 337.616 251.286C330.895 255.05 323.307 256.992 315.604 256.922C308.183 257.251 300.792 255.785 294.058 252.65C288.211 249.604 283.596 244.631 280.996 238.572C278.472 232.702 277.524 226.275 278.248 219.926C278.553 216.655 279.376 213.454 280.686 210.442C282.082 207.447 283.984 204.715 286.31 202.368C291.024 197.463 296.987 193.936 303.556 192.168C309.648 190.655 315.997 190.499 322.156 191.712C327.256 192.566 332.132 194.438 336.492 197.218C339.252 199.145 341.736 201.44 343.876 204.038C346.388 206.926 348.449 210.177 349.988 213.682C350.72 215.429 351.301 217.236 351.724 219.082C351.757 219.19 351.821 219.285 351.907 219.358C351.993 219.43 352.099 219.477 352.21 219.492C352.322 219.506 352.435 219.489 352.538 219.441C352.64 219.393 352.726 219.317 352.786 219.222C354.786 216.622 357.402 213.48 360.94 213.246C362.573 213.243 364.162 213.777 365.463 214.765C366.764 215.752 367.704 217.14 368.14 218.714H368.134Z" fill="#1D1D1B"/>
<path d="M360.126 223.68L352.882 228.43C352.258 228.83 352.84 229.846 353.468 229.43L360.714 224.68C361.336 224.276 360.754 223.268 360.126 223.68ZM339.786 220.654C339.892 221.846 339.72 223.047 339.284 224.162C338.938 224.693 338.407 225.078 337.795 225.243C337.182 225.408 336.531 225.342 335.964 225.056C334.19 224.398 333.79 222.33 333.79 220.656C333.79 220.502 333.729 220.354 333.62 220.244C333.51 220.135 333.362 220.074 333.208 220.074C333.054 220.074 332.906 220.135 332.797 220.244C332.687 220.354 332.626 220.502 332.626 220.656C332.564 221.499 332.673 222.346 332.946 223.147C333.219 223.947 333.65 224.684 334.214 225.314C334.642 225.747 335.165 226.074 335.742 226.27C336.319 226.465 336.933 226.523 337.536 226.44C338.139 226.356 338.715 226.133 339.216 225.788C339.718 225.443 340.132 224.985 340.426 224.452C340.855 223.234 341.032 221.941 340.948 220.652C340.939 220.504 340.874 220.365 340.766 220.263C340.658 220.161 340.516 220.104 340.367 220.104C340.219 220.104 340.076 220.161 339.968 220.263C339.86 220.365 339.795 220.504 339.786 220.652V220.654ZM295.758 206.348C295.905 206.384 296.061 206.361 296.191 206.284C296.322 206.207 296.417 206.083 296.457 205.937C296.497 205.791 296.479 205.635 296.406 205.502C296.333 205.369 296.211 205.27 296.066 205.226C294.421 204.746 292.675 204.729 291.02 205.177C289.366 205.626 287.867 206.522 286.69 207.768C286.182 208.314 287.002 209.138 287.514 208.59C288.546 207.489 289.863 206.696 291.318 206.301C292.774 205.905 294.311 205.921 295.758 206.348ZM328.078 232.692C327.984 232.618 327.868 232.576 327.748 232.574C318.322 232.416 308.898 232.732 299.474 232.574C299.397 232.575 299.32 232.591 299.249 232.622C299.177 232.652 299.113 232.697 299.059 232.753C299.005 232.809 298.963 232.875 298.935 232.947C298.907 233.019 298.894 233.097 298.896 233.174C298.896 233.272 298.922 233.369 298.972 233.454C302.042 238.454 306.972 243.586 313.22 243.832C315.63 243.967 318.037 243.511 320.231 242.505C322.425 241.498 324.34 239.971 325.81 238.056C326.88 236.613 327.723 235.014 328.308 233.316C328.357 233.202 328.36 233.074 328.317 232.958C328.274 232.842 328.189 232.747 328.078 232.692ZM338.966 209.094C339.416 209.68 340.426 209.094 339.966 208.508C338.93 207.158 337.503 206.16 335.88 205.649C334.256 205.138 332.515 205.139 330.892 205.652C330.184 205.884 330.492 207.008 331.2 206.772C332.577 206.323 334.058 206.305 335.446 206.72C336.834 207.135 338.062 207.963 338.966 209.094ZM295.33 220.87C295.438 222.062 295.266 223.264 294.828 224.378C294.482 224.91 293.952 225.295 293.34 225.46C292.728 225.625 292.076 225.558 291.51 225.272C289.736 224.616 289.334 222.546 289.334 220.872C289.325 220.724 289.26 220.585 289.152 220.483C289.044 220.381 288.902 220.324 288.753 220.324C288.605 220.324 288.462 220.381 288.354 220.483C288.246 220.585 288.181 220.724 288.172 220.872C288.11 221.715 288.218 222.562 288.491 223.363C288.763 224.163 289.194 224.9 289.758 225.53C290.186 225.964 290.709 226.291 291.286 226.487C291.863 226.683 292.477 226.741 293.08 226.657C293.684 226.573 294.259 226.35 294.761 226.005C295.262 225.659 295.676 225.202 295.97 224.668C296.399 223.45 296.577 222.157 296.494 220.868C296.494 220.714 296.433 220.566 296.324 220.456C296.214 220.347 296.066 220.286 295.912 220.286C295.758 220.286 295.61 220.347 295.501 220.456C295.391 220.566 295.33 220.714 295.33 220.868V220.87ZM85.9501 195.456C81.8701 195.935 77.7774 196.268 73.6721 196.456C72.9261 196.49 72.9221 197.656 73.6721 197.618C81.0831 197.271 88.4653 196.463 95.7761 195.2C103.736 193.802 111.621 192.003 119.4 189.81C124.186 188.474 128.945 187.042 133.674 185.516L134.104 185.382C134.814 185.152 134.504 184.03 133.794 184.26H133.774C125.482 186.93 117.112 189.376 108.63 191.374C101.154 193.165 93.5816 194.528 85.9501 195.456Z" fill="#1D1D1B"/>
<path d="M158.322 218.764L157.822 219.108C157.758 219.481 157.714 219.858 157.69 220.236V220.58C165.003 215.491 171.905 209.836 178.332 203.666C185.399 196.897 191.909 189.571 197.8 181.758C197.384 181.898 196.968 182.034 196.556 182.188C196.28 182.29 196.012 182.406 195.74 182.512C190.892 188.822 185.634 194.807 180 200.426C173.296 207.13 166.045 213.264 158.322 218.764Z" fill="#1D1D1B"/>
<path d="M157.822 219.108C158.59 215.715 160.169 212.558 162.422 209.908C162.87 209.308 161.86 208.728 161.422 209.322C159.036 212.126 157.391 215.484 156.638 219.088C156.596 219.386 156.584 219.688 156.564 219.98C156.534 220.446 156.53 220.913 156.552 221.38C156.796 224.315 157.718 227.153 159.244 229.672C160.743 232.454 163.206 234.592 166.17 235.686C169.08 236.653 172.18 236.907 175.208 236.426C178.676 235.952 182.034 234.876 185.132 233.248C185.162 233.227 185.19 233.204 185.216 233.178V232.334C185.13 232.248 185.018 232.193 184.898 232.177C184.778 232.161 184.656 232.184 184.55 232.244C179.474 235.13 173.53 236.098 167.8 234.972C165.05 234.307 162.639 232.661 161.018 230.342C158.95 227.496 157.792 224.091 157.696 220.574V220.23C157.718 219.854 157.76 219.48 157.822 219.108Z" fill="#1D1D1B"/>
<path d="M153.064 223.554C149.295 225.786 145.428 227.843 141.464 229.726C137.63 231.544 133.707 233.171 129.712 234.602C117.317 239.058 104.238 241.316 91.0661 241.274C86.2521 241.274 81.4461 240.956 76.6661 240.474C73.1121 240.12 69.5681 239.64 66.0061 239.372C65.2641 239.316 65.2601 238.152 66.0061 238.208C66.3721 238.236 66.7401 238.266 67.1061 238.3C70.8061 238.63 74.4921 239.116 78.1901 239.458C83.0709 239.928 87.973 240.14 92.8761 240.094C98.9361 240.02 104.98 239.452 110.948 238.398C118.09 237.116 125.095 235.164 131.87 232.568C139.898 229.466 147.616 225.614 154.922 221.064L155.034 220.996C153.489 218.527 151.977 216.035 150.498 213.522C150.098 212.848 149.71 212.17 149.314 211.494C146.888 207.34 144.488 203.168 141.966 199.07C139.196 194.566 136.212 190.162 133.69 185.51C128.961 187.036 124.201 188.468 119.414 189.804C111.631 192 103.741 193.801 95.7761 195.2C88.4654 196.465 81.0832 197.274 73.6721 197.622C72.9221 197.658 72.9261 196.494 73.6721 196.46C77.7748 196.272 81.8674 195.939 85.9501 195.46C93.5836 194.533 101.158 193.171 108.636 191.38C117.118 189.38 125.488 186.936 133.78 184.266C137.848 182.568 141.787 180.576 145.566 178.306C145.992 178.048 146.404 177.774 146.822 177.506C147.158 177.292 147.498 177.084 147.822 176.866C146.763 173.525 145.35 170.307 143.608 167.266C141.03 162.833 137.876 158.76 134.23 155.154C130.634 151.638 126.439 148.794 121.842 146.754C121.598 147.066 121.338 147.365 121.062 147.65C119.694 149.073 117.981 150.118 116.09 150.684C107.49 153.252 98.0121 155.204 89.1241 152.798C85.1015 151.62 81.3557 149.648 78.1081 146.998C76.3948 145.763 74.8445 144.316 73.4941 142.692C72.3892 141.197 71.6861 139.444 71.4521 137.6C71.4341 137.478 71.4021 137.36 71.3901 137.238C71.3601 136.976 71.3641 136.708 71.3541 136.438C71.2761 136.438 71.1961 136.438 71.1161 136.454C62.1651 137.406 53.5625 140.446 46.0001 145.328C38.368 150.302 31.6919 156.607 26.2901 163.942C23.5016 167.664 20.9978 171.591 18.8001 175.69C17.1541 178.75 15.7461 181.902 14.3721 185.09C14.0021 185.952 13.6421 186.814 13.3181 187.69C11.684 192.19 10.6361 196.882 10.2001 201.65C9.90062 204.868 9.94756 208.11 10.3401 211.318C10.7758 214.881 11.7124 218.365 13.1221 221.666C14.7278 225.357 16.9381 228.754 19.6621 231.718C22.9429 235.235 26.7602 238.21 30.9721 240.532C36.4217 243.519 42.228 245.804 48.2521 247.332C56.2223 249.368 64.3635 250.664 72.5721 251.202C82.9237 252.146 93.3464 251.986 103.664 250.724C112.008 249.713 120.097 247.191 127.536 243.28C133.34 240.134 138.393 235.767 142.346 230.48C142.54 230.178 142.75 229.886 142.974 229.606C143.464 229.214 144.011 228.899 144.596 228.672C145.856 227.995 147.105 227.296 148.342 226.576C150.954 225.056 153.513 223.451 156.018 221.76L156.04 221.74C155.052 222.357 154.06 222.962 153.064 223.554Z" fill="#9CF0F0"/>
<path d="M213.014 154.666C216.75 146.939 219.49 138.769 221.168 130.352C222.16 126.243 222.463 121.998 222.064 117.79C221.372 113.086 219.145 108.742 215.73 105.434C215.33 105.062 214.68 104.51 214.156 104.988C213.871 105.327 213.701 105.747 213.668 106.188C213.569 107.531 213.607 108.881 213.782 110.216L214.3 119.762C214.34 120.514 213.188 120.504 213.136 119.762C212.942 116.953 212.34 114.186 211.35 111.55C210.889 110.327 210.344 109.137 209.718 107.99C209.227 106.99 208.588 106.069 207.822 105.26C207.151 104.486 206.206 104.001 205.186 103.906C204.696 103.964 204.248 104.21 203.935 104.591C203.623 104.973 203.469 105.46 203.508 105.952C203.532 107.071 203.658 108.185 203.886 109.28C204.063 110.58 204.147 111.89 204.136 113.202C204.11 115.829 203.712 118.44 202.956 120.956C202.915 121.088 202.829 121.202 202.713 121.276C202.596 121.351 202.457 121.382 202.32 121.363C202.183 121.345 202.056 121.278 201.964 121.175C201.871 121.073 201.818 120.94 201.814 120.802C201.736 117.88 201.386 114.971 200.768 112.114C200.44 110.727 199.948 109.384 199.302 108.114C198.756 107.062 197.902 105.314 196.578 105.15C194.668 104.906 194.314 107.998 194.3 109.292C194.314 111.395 194.176 113.497 193.888 115.58C193.366 120.042 191.674 124.287 188.982 127.884C186.223 131.233 182.42 133.561 178.182 134.494C176.739 134.816 175.259 134.945 173.782 134.876C175.22 136.968 176.526 139.147 177.694 141.4C178.074 142.089 178.408 142.801 178.694 143.534C178.918 144.2 178.182 144.898 177.828 145.43C176.949 146.75 176.063 148.063 175.168 149.37C169.986 157.352 163.881 164.695 156.98 171.248C150.391 177.051 142.891 181.729 134.78 185.092C136.142 187.578 137.656 189.978 139.16 192.38C142.144 197.116 145.05 201.9 147.878 206.73C150.542 211.304 153.202 215.88 156.008 220.37L156.576 219.97C156.596 219.672 156.608 219.37 156.65 219.078C157.403 215.474 159.048 212.116 161.434 209.312C161.876 208.712 162.886 209.298 162.434 209.898C160.181 212.548 158.602 215.705 157.834 219.098L158.334 218.754C166.052 213.256 173.299 207.126 180 200.426C185.638 194.807 190.9 188.823 195.752 182.512C190.006 184.915 184.535 187.928 179.432 191.5C178.806 191.916 178.232 190.9 178.846 190.5C182.239 188.2 185.751 186.081 189.368 184.152C191.838 182.863 194.397 181.752 197.026 180.828C197.626 180.044 198.226 179.274 198.804 178.48C204.266 170.998 209.023 163.026 213.014 154.666ZM213.37 133.03C213.921 132.201 214.274 131.257 214.402 130.27C214.494 129.536 215.658 129.528 215.566 130.27C215.429 131.464 215.019 132.609 214.366 133.618C213.966 134.244 212.952 133.66 213.366 133.03H213.37ZM200.606 133.612C201.072 132.674 201.258 131.621 201.142 130.58C201.07 129.834 202.234 129.842 202.306 130.58C202.422 131.828 202.18 133.084 201.61 134.2C201.276 134.87 200.274 134.28 200.6 133.612H200.606ZM177.378 193C176.604 195.255 175.689 197.459 174.64 199.6C173.255 202.911 171.059 205.821 168.254 208.06C167.182 208.846 165.877 209.25 164.548 209.208C163.141 209.053 161.827 208.426 160.822 207.428C160.149 206.899 159.621 206.208 159.288 205.42C158.955 204.631 158.828 203.771 158.918 202.92C159.272 201.551 160.068 200.338 161.184 199.47C162.621 198.275 164.203 197.267 165.894 196.47C169.378 194.812 172.978 193.409 176.664 192.27C176.763 192.244 176.867 192.245 176.966 192.272C177.064 192.299 177.154 192.351 177.226 192.423C177.298 192.496 177.35 192.586 177.377 192.685C177.404 192.783 177.404 192.887 177.378 192.986V193Z" fill="#FFE497"/>
<path d="M218.812 107.138C218.126 106.238 217.37 105.394 216.552 104.612C215.624 103.756 214.242 103.142 213.244 104.264C212.532 105.345 212.264 106.659 212.496 107.932L212.714 111.954C212.668 111.826 212.634 111.692 212.588 111.554C212.122 110.266 211.57 109.011 210.934 107.798C210.388 106.654 209.686 105.592 208.848 104.642C207.462 103.184 204.946 101.808 203.236 103.592C201.526 105.376 202.678 108.426 202.868 110.55C203.04 112.582 202.978 114.627 202.682 116.644C202.529 112.795 201.351 109.057 199.27 105.816C198.986 105.343 198.603 104.936 198.149 104.623C197.694 104.31 197.178 104.097 196.634 104C196.217 103.964 195.797 104.031 195.412 104.195C195.026 104.358 194.687 104.613 194.422 104.938C193.372 106.537 192.922 108.455 193.15 110.354C193.203 115.051 192.177 119.697 190.15 123.934C188.045 128.083 184.418 131.258 180.026 132.794C178.366 133.372 176.626 133.688 174.868 133.728C174.542 133.728 174.216 133.708 173.888 133.694C173.688 133.694 173.468 133.694 173.258 133.672H173.24L173.008 133.646H172.944C172.89 133.646 172.836 133.63 172.784 133.62C172.612 133.591 172.435 133.631 172.292 133.732C172.173 133.803 172.087 133.919 172.054 134.054C172.02 134.188 172.041 134.331 172.112 134.45L172.126 134.474C174.164 137.441 175.969 140.561 177.526 143.806C172.942 151.018 167.83 157.88 162.232 164.336C157.981 169.111 153.142 173.328 147.832 176.888C147.502 177.106 147.162 177.314 146.832 177.528C146.414 177.794 146.002 178.068 145.576 178.328C141.797 180.598 137.858 182.59 133.79 184.288H133.812C134.526 184.058 134.83 185.18 134.12 185.41L133.69 185.544C136.212 190.196 139.196 194.6 141.966 199.104C144.488 203.202 146.888 207.372 149.316 211.528C149.716 212.204 150.102 212.88 150.498 213.556C151.977 216.068 153.489 218.559 155.034 221.03L155.54 220.722C156.178 220.322 156.76 221.332 156.126 221.722C156.276 221.622 156.418 221.512 156.566 221.41C156.545 220.943 156.549 220.476 156.578 220.01C156.378 220.14 156.2 220.274 156.01 220.41C153.21 215.922 150.544 211.346 147.88 206.772C145.06 201.934 142.138 197.172 139.164 192.422C137.658 190.022 136.144 187.622 134.782 185.134C142.893 181.771 150.393 177.093 156.982 171.29C163.883 164.738 169.988 157.396 175.17 149.416C176.066 148.111 176.953 146.797 177.83 145.476C178.184 144.942 178.92 144.246 178.696 143.58C178.41 142.847 178.076 142.135 177.696 141.446C176.535 139.178 175.234 136.984 173.8 134.878C175.277 134.947 176.757 134.818 178.2 134.496C182.438 133.563 186.241 131.235 189 127.886C191.692 124.289 193.385 120.044 193.906 115.582C194.194 113.499 194.332 111.397 194.318 109.294C194.332 108 194.686 104.908 196.596 105.152C197.926 105.322 198.774 107.064 199.32 108.116C199.966 109.386 200.458 110.729 200.786 112.116C201.404 114.973 201.754 117.882 201.832 120.804C201.836 120.942 201.889 121.075 201.982 121.177C202.075 121.28 202.201 121.347 202.338 121.365C202.475 121.384 202.614 121.353 202.731 121.278C202.847 121.204 202.934 121.09 202.974 120.958C203.73 118.442 204.128 115.831 204.156 113.204C204.166 111.892 204.082 110.582 203.904 109.282C203.677 108.187 203.55 107.073 203.526 105.954C203.488 105.462 203.641 104.975 203.954 104.594C204.267 104.213 204.715 103.967 205.204 103.908C206.225 104.002 207.169 104.487 207.84 105.262C208.601 106.075 209.234 106.998 209.718 108C210.344 109.147 210.889 110.336 211.35 111.558C212.34 114.195 212.942 116.962 213.136 119.772C213.188 120.514 214.336 120.524 214.3 119.772L213.784 110.226C213.609 108.891 213.57 107.541 213.668 106.198C213.701 105.757 213.872 105.337 214.156 104.998C214.68 104.52 215.326 105.072 215.73 105.444C219.146 108.752 221.373 113.096 222.064 117.8C222.463 122.008 222.161 126.253 221.168 130.362C219.49 138.779 216.751 146.949 213.014 154.676C209.021 163.031 204.263 170.999 198.8 178.476C198.224 179.276 197.612 180.04 197.024 180.824C197.67 180.599 198.321 180.384 198.978 180.18C204.288 173.029 208.965 165.429 212.954 157.466C216.932 149.627 219.927 141.327 221.87 132.754C222.078 131.801 222.267 130.843 222.436 129.88C222.626 128.816 222.798 127.748 222.944 126.68C223.144 125.144 223.356 123.586 223.428 122.03C223.454 121.476 223.466 120.922 223.452 120.368C223.327 115.581 221.705 110.954 218.812 107.138Z" fill="#1D1D1B"/>
<path d="M155.53 220.694L155.024 221.002L154.912 221.07C147.606 225.62 139.888 229.472 131.86 232.574C125.085 235.169 118.08 237.119 110.938 238.4C104.97 239.454 98.9262 240.022 92.8661 240.096C87.963 240.142 83.0609 239.93 78.1801 239.46C74.4821 239.118 70.7961 238.632 67.0961 238.302C66.7297 238.268 66.3631 238.238 65.9961 238.21C65.2501 238.154 65.2541 239.318 65.9961 239.374C69.5581 239.642 73.1021 240.122 76.6561 240.476C81.4461 240.952 86.2561 241.262 91.0561 241.276C104.232 241.318 117.314 239.058 129.712 234.6C133.712 233.174 137.628 231.538 141.464 229.724C145.424 227.851 149.291 225.793 153.064 223.552C154.06 222.961 155.05 222.361 156.034 221.752L156.116 221.7C156.75 221.304 156.166 220.298 155.53 220.694ZM201.61 134.2C202.181 133.084 202.422 131.828 202.306 130.58C202.234 129.842 201.07 129.834 201.142 130.58C201.258 131.621 201.072 132.674 200.606 133.612C200.274 134.28 201.276 134.87 201.61 134.2ZM214.374 133.618C215.027 132.609 215.437 131.464 215.574 130.27C215.666 129.528 214.502 129.536 214.41 130.27C214.282 131.257 213.929 132.201 213.378 133.03C212.96 133.66 213.966 134.244 214.374 133.618ZM224.144 258.272C224.886 258.352 224.882 257.188 224.144 257.108C223.201 257.002 222.287 256.711 221.456 256.251C220.626 255.791 219.894 255.172 219.304 254.428L219.22 254.328C218.772 253.728 217.762 254.316 218.22 254.914C218.298 255.016 218.382 255.114 218.462 255.202C219.876 256.936 221.919 258.04 224.144 258.272ZM348.126 358.702C348.135 358.85 348.2 358.989 348.308 359.091C348.416 359.193 348.559 359.25 348.707 359.25C348.856 359.25 348.998 359.193 349.106 359.091C349.214 358.989 349.279 358.85 349.288 358.702L349.688 329.502L349.804 321.14C349.795 320.992 349.73 320.853 349.622 320.751C349.514 320.649 349.372 320.592 349.223 320.592C349.075 320.592 348.932 320.649 348.824 320.751C348.716 320.853 348.651 320.992 348.642 321.14L348.242 350.34L348.126 358.702ZM49.7241 82.542C51.6882 74.2995 55.1298 66.4811 59.8821 59.466C61.2386 57.4659 62.6993 55.5386 64.2581 53.692C64.7381 53.122 63.9201 52.292 63.4361 52.87C56.2533 61.3562 51.1706 71.4152 48.6001 82.232C48.4301 82.96 49.5501 83.27 49.7241 82.542ZM36.0821 89.984C37.7051 76.1841 43.0451 63.0839 51.5321 52.082C53.8956 49.0197 56.492 46.1445 59.2981 43.482C59.8421 42.964 59.0181 42.144 58.4761 42.658C53.3922 47.4966 48.9928 53.0068 45.4001 59.036C41.8052 65.0632 39.0358 71.5457 37.1661 78.31C36.116 82.1373 35.3644 86.0404 34.9181 89.984C34.8341 90.726 36.0001 90.72 36.0821 89.984Z" fill="#1D1D1B"/>
</svg>
