<svg width="400" height="400" viewBox="0 0 400 400" fill="none" xmlns="http://www.w3.org/2000/svg">
<path d="M153.38 330.88C151.72 328.18 153.98 318.88 154.16 318.54C154.34 318.2 243.64 318.54 242.76 319.5C241.88 320.46 244.14 325.64 243.58 329.38C215.22 331.64 175.66 324.96 153.38 330.88Z" fill="#3D9CFB"/>
<path d="M203.06 265.2C214.92 266.44 215.86 289.2 201.8 287.2C188.18 285.2 188.22 263.66 203.06 265.2Z" fill="#3D9CFB"/>
<path d="M56.3399 153.58H31.4999L30.9399 197.14C30.9399 197.14 36.9399 187.62 41.7599 186.76C40.7999 173.68 38.2399 166.48 56.3399 153.58Z" fill="#3D9CFB"/>
<path d="M47.9998 218.1C38.1998 218.76 45.8598 246.92 45.8598 246.92H58.1798C58.1798 246.92 57.8398 217.42 47.9998 218.1Z" fill="#3D9CFB"/>
<path d="M66.5804 165.38C47.5404 170.92 52.4404 184.18 52.4404 184.18C66.1604 180.18 81.0004 191.3 81.0004 191.3C81.0004 191.3 80.3404 192.32 83.4204 189.46C80.7004 173.46 85.6204 174.02 90.4404 178.28C93.0276 172.736 96.7032 167.768 101.249 163.672C105.794 159.577 111.117 156.437 116.9 154.44C116.9 154.44 104.18 153.58 75.2604 153.58C76.5804 162.68 73.3404 163.42 66.5804 165.38Z" fill="#3D9CFB"/>
<path d="M70.7202 247.74H79.5202C79.5202 247.74 79.5202 240.22 81.0002 222.12C64.3402 211.12 70.7202 247.74 70.7202 247.74Z" fill="#3D9CFB"/>
<path d="M180 151.66L139.66 153.66C139.66 153.66 146.26 154.14 154.18 163.84C164.66 163.84 178.18 174.84 180.76 183.14C179.8 153.58 180 151.66 180 151.66Z" fill="#3D9CFB"/>
<path d="M284.5 155.42C272.5 154.76 262.8 173.3 264.5 181.3C269.9 207.3 308.34 213.06 318.16 190.62C321.88 182.1 316.38 168.26 312.16 161.92C307.94 155.58 296.5 156 284.5 155.42Z" fill="#3D9CFB"/>
<path d="M309.5 73.4C309.5 73.4 299.02 57 259.66 70.36C220.3 83.72 222.28 128.54 222.28 128.54C241.68 127.24 242.28 120.34 250.28 114.54C282.7 118.1 300.82 105.78 308.28 99.34C322.48 114.72 350.28 119.46 350.28 119.46C356.7 140.4 370.04 134.32 370.04 134.32V103.64C344.3 55.66 309.5 73.4 309.5 73.4Z" fill="#3D9CFB"/>
<path d="M244.38 257.26C222.38 253.84 219.28 291.04 241.66 290.72C262.8 290.74 266.3 260.12 244.38 257.26ZM254.26 274.14C252.1 294.4 222 285.44 233.24 266.64C238.48 257.4 256.48 263.74 254.26 274.14Z" fill="#001434"/>
<path d="M206.88 259.5C179.82 248.04 171.68 289.12 199.18 290.26C214.14 292.24 222.44 266.6 206.88 259.5ZM200 285.28C184.54 286.98 181.5 261.92 198.7 262.62C213.8 261.46 213.72 285.48 200 285.28Z" fill="#001434"/>
<path d="M296.86 176.66C301.14 175.7 298.72 169.76 304.6 169.94C306.6 169.7 306.26 165.94 304.4 165.94C297.36 166.2 289.64 164.66 285.34 161.94C274.64 160.48 281.36 178.92 296.86 176.66Z" fill="#001434"/>
<path d="M382.84 314.28C388.48 308.5 391.56 306.08 389.2 200.28C387.98 153.14 390.62 92.86 388.42 48.8C387.68 34.58 377 29.52 349.04 30.2C300.48 31.1 254.36 28.2 200.32 28.9C130.6 29.32 126.44 29.34 39.84 29.72C19.2401 29.72 12.8401 37.9 11.3201 65.72C8.56008 118.06 10.9001 210.12 11.3201 264.82C11.3201 281.64 10.2001 303.9 19.5401 310.96C31.54 320.58 90.36 321.18 150.76 321.12C152.2 330.1 150.4 335.3 150.38 344.66C119.96 344.52 93.98 344.94 88.82 345.16C69.58 345.58 72.46 372.42 91.72 370.7C135.84 372.08 152.82 368.7 199.88 370.16C235.18 371.42 258.5 369.18 289.52 369.98C307.52 370.62 316.28 369.38 320.06 365.72C320.99 364.72 321.686 363.528 322.102 362.228C322.516 360.928 322.638 359.552 322.46 358.2C322.46 349.52 321.62 344.62 305.4 344.58C285.72 344.58 268.44 345.42 246.94 345.6C246.94 335.9 245.7 332.5 246.8 321.6C282.74 321 367.84 327.26 382.84 314.28ZM276.66 350.1C287.1 349.84 296.1 349.62 305.46 349.64C319.16 348.92 318.86 354.56 316.66 362.3C314.12 364.76 305.32 365.32 289.74 365.16C249.74 364.72 188.06 364.68 149.08 365.48C135.08 366 120.74 366.5 91.88 365.88C82.12 365.66 80.76 361.5 80.76 357.02C80.76 351.42 85.98 350.36 89.08 350.22C137.48 348.42 226.26 352 276.66 350.1ZM155.84 321.22C184.1 321.12 215.34 321.22 241.84 321.64C240.78 332.5 241.84 336.22 242 345.78C219.84 346.14 182.16 345.02 155.36 344.82C155.46 335.46 157.14 330.54 155.84 321.22ZM164.98 316.26C106.78 317.6 34.3 316.5 22.7 307.2C15.3201 301.66 16.2801 279.74 16.3401 264.98C15.8801 210.34 13.5001 118.28 16.3401 66.12C17.9001 37.76 24.72 34.76 39.94 34.7C127.3 34.32 132.82 34.32 203.7 33.86C257.06 33.3 301.42 36.1 349.24 35.2C380.22 34.46 383.24 41.34 383.56 49.2C382.82 91.6 389.94 309.2 379.74 310.54C357.18 324.32 219.56 315 164.98 316.26Z" fill="#001434"/>
<path d="M126 109.14C129.226 109.062 132.445 108.794 135.64 108.34C144.82 107.22 143.38 91.12 133.16 89.64C115.68 87.14 107.88 108.68 126 109.14ZM136.84 99.76C137.48 104.58 133.5 104.6 133.5 104.6C130.958 101.148 128.07 97.9644 124.88 95.1C128.7 92.82 136 93.1 136.84 99.76Z" fill="#001434"/>
<path d="M101 106C98.52 90.18 70.72 95 75.64 110.86C78.4 119.8 102.68 116.62 101 106ZM96 106.56C96 107.44 96.62 109.78 93.22 110.24C90.4136 107.131 87.0998 104.52 83.42 102.52C86.76 99.3 95.8 100.46 96 106.56Z" fill="#001434"/>
<path d="M107.44 201.44C111.72 200.94 109.62 194.76 106.2 195.14C102 195.58 103.18 202 107.44 201.44Z" fill="#001434"/>
<path d="M104.28 108.96C105.76 109.54 106.84 108.26 108.6 107.66C110.36 107.06 113.3 108.24 114.1 106.4C115.4 103.38 111.74 100.88 106.9 102.08C102.06 103.28 101.5 107.88 104.28 108.96Z" fill="#001434"/>
<path d="M372.72 247.34C373.56 210.52 372.5 171.1 372.9 134.1C373.38 59.38 371.32 54.78 367.66 50.86C363.12 45.14 346.82 44.36 294.84 46.3C239.68 48.3 88.64 42.42 39.34 47.68C20.8 49.8 31.8 106.26 28.22 139.68C27.52 180.5 26.22 228.64 27.12 268.42C27.66 291.3 30.88 298.92 48.72 299C154.72 301 236.36 302.82 337.5 301.56C377.02 301.1 371.7 290.74 372.72 247.34ZM367.78 244.96C360.64 245.1 338.58 245.5 316.28 245.36C308.38 239.56 305.84 232.22 308.78 224.24C313.7 227.3 324.6 236.24 328.16 230.12C328.234 229.466 328.046 228.808 327.638 228.292C327.23 227.774 326.634 227.44 325.98 227.36C321.88 226.9 314.72 222.92 311.04 219.68C314.68 213.8 320.6 209.08 325.36 207.68C328.1 210.74 335.48 221.1 340.66 217.18C342.1 212.54 326.8 207.86 326.82 198.82C325.34 192.68 331.7 188.48 338.26 189.44C344.82 190.4 350.66 194.96 354.5 202.38C358.88 206.72 360.5 199.76 357.04 196.92C360.888 196.811 364.67 197.948 367.82 200.16C367.88 215.32 368 230.56 367.78 244.96ZM194.48 218.26C198.911 214.68 204.354 212.582 210.04 212.26C210.37 212.268 210.696 212.204 211 212.076C211.302 211.948 211.576 211.756 211.798 211.514C212.022 211.27 212.19 210.984 212.294 210.672C212.398 210.358 212.434 210.028 212.4 209.7C211.18 204.28 196.22 209.02 191.44 214.32C188.58 210.54 184.2 206.02 184.78 200.32C185.18 196.32 189.96 194.92 205 193.62C205.648 193.553 206.244 193.234 206.66 192.731C207.074 192.228 207.276 191.582 207.218 190.933C207.16 190.283 206.848 189.683 206.35 189.261C205.854 188.84 205.21 188.631 204.56 188.68C194.22 189.12 187.32 189.3 183.64 194.18C182.913 191.174 183.344 188.004 184.849 185.302C186.354 182.6 188.821 180.564 191.76 179.6C201.48 176.18 205.02 178.08 207.76 176.3C210.5 174.52 209.26 162.46 214.82 163.12C220.64 162.78 223.96 171.28 225.86 177.26C248.62 193.38 250.16 220.04 245.74 234.1C229.42 237.42 210.66 237.6 194.48 218.26ZM224.68 240.54C224.68 241.88 224.44 242.82 224.4 244.42C212.12 244.42 198.4 244.6 182.92 244.78C182.44 234.36 182.92 222.28 183.26 210.94C195.62 231.16 209.54 239.04 224.68 240.54ZM230.46 240.7C236.46 240.86 256.46 237.84 264.1 233.4C267.48 231.4 265.22 229.56 263.88 229.86C259.88 230.74 255.42 231.98 251.2 232.98C255 217.2 252.32 190.68 229.66 173.96C229.496 172.841 229.242 171.737 228.9 170.66C230.9 170.16 233.04 169.86 235.36 169.34C238.482 174.093 242.684 178.039 247.624 180.854C252.564 183.67 258.1 185.276 263.78 185.54C264.768 187.519 265.94 189.4 267.28 191.16C280.3 209.82 306.96 212.34 319.42 192.94C320.5 192.78 321.58 192.62 322.6 192.42C321.322 195.955 321.466 199.848 323 203.28C308 208.32 294.56 231.54 308.8 245.28C290.8 244.76 249.36 244.4 230.2 244.32C230.162 243.108 230.25 241.894 230.46 240.7ZM270.72 170.34C285.84 150.68 284.4 160.46 301.72 159.84C312.92 155.84 319.48 183.26 315.72 189.38C302.16 216.6 254.8 190.92 270.72 170.34ZM367.8 194.46C363.368 192.196 358.302 191.491 353.42 192.46C350.38 189.127 346.496 186.674 342.18 185.36C350.4 180.26 353.02 177.36 356.82 170.42C358.802 170.7 360.82 170.539 362.732 169.948C364.644 169.356 366.402 168.35 367.88 167C367.88 174 367.78 187.34 367.8 194.46ZM368 159.56C363.52 167.56 356.14 164.08 354.14 166.92C348 175.7 342.34 183.76 321.68 187.58C321.92 174.32 317.48 160.42 309.34 155.76C304.36 152.92 301.34 155.4 295.92 155C291.38 154.58 288.2 151 283 152.84C275.42 155.56 260.82 169.92 262.2 180.42C248.2 178.68 237.98 169.2 234.42 154.42C221.46 146.94 223.12 133.64 225.4 131.24C229.64 126.8 240.66 130.4 247.86 118.84C248.268 118.077 248.902 117.46 249.676 117.073C250.45 116.686 251.324 116.549 252.18 116.68C262.054 117.75 272.028 117.393 281.8 115.62C285.58 116.12 288.5 119.98 291.2 119.98C295.62 119.98 293.56 115.1 289.76 113.62C296.818 111.533 303.222 107.67 308.36 102.4C314.75 109.527 322.902 114.845 332 117.82C327.118 116.587 322.094 116.015 317.06 116.12C312.1 116.4 312.74 120.28 314.42 121.46C316.98 123.26 331.34 122.52 337.4 125.6C339.94 126.88 346.3 124.3 337.66 119.6C341.24 120.32 343.66 120.86 345.9 121.2C346.696 121.315 347.45 121.638 348.082 122.137C348.714 122.636 349.202 123.292 349.5 124.04C353.04 132.94 358.62 139.36 367.94 137.14C368 141.34 368 154.86 368 159.56ZM368 132C360.96 134 356.96 129.3 353.58 119.78C353.256 118.862 352.686 118.051 351.93 117.437C351.176 116.822 350.264 116.429 349.3 116.3C338.34 114.88 319.72 110.3 311.56 98.52C312.78 96.52 317.46 91.8 313.78 90.06C311.3 88.88 306.96 98.62 296.74 104.66C285.14 111.48 273.16 112 265.24 112C253.24 112.12 247.68 110.36 243.64 116.16C237.64 124.72 232.86 122.04 225.42 125.34C223.86 83.2 267.88 56.9 307.3 74.6C309.64 75.74 312.56 75.14 316.62 74.32C335.18 67.62 359.08 81.02 367.96 106.88C368 114.16 368 122.46 368 132ZM182.56 50.84C220.22 51.44 266.8 51.42 305.48 50.42C335.9 49.62 358.26 49.22 363.66 53.8C366.62 56.32 367.4 58.18 367.88 95.56C354.06 65.56 326.92 66.24 309.46 70.14C268.4 49.86 214.94 81.72 220.6 129.78C218.92 134.64 218.91 139.922 220.572 144.788C222.236 149.654 225.476 153.825 229.78 156.64C230.53 159.455 231.54 162.194 232.8 164.82C230.8 165.22 228.68 165.56 226.8 166.12C219.62 156.12 207.5 152.54 204.02 171.7C200.302 171.404 196.562 171.848 193.016 173.005C189.47 174.161 186.189 176.009 183.36 178.44C181.26 133.72 184.22 85.3 182.56 50.84ZM177.96 244.84C163.44 245 150.34 245.16 140.8 245.3C140.197 243.758 139.832 242.132 139.72 240.48C141.16 241.44 146.14 243.7 147.48 241.88C149.14 239.62 144.46 237.88 140.28 234.48C140.804 232.338 141.705 230.306 142.94 228.48C146.36 230.28 152.94 236.48 154.14 233.46C155.34 230.44 148.52 227.7 146.34 224.86C154.02 218.72 161.34 226.66 165.52 225.32C171.08 223.52 169.88 213.62 178 220.4C177.76 228.84 177.62 237.2 178 244.82L177.96 244.84ZM134.3 238.64C123 238.22 109.48 232.24 105.62 223.04C113.62 220.94 118.74 214.66 118.3 205.2C128.88 205.2 133.18 192.24 128.3 185.62C131.153 185.601 133.97 184.988 136.573 183.821C139.176 182.653 141.508 180.957 143.42 178.84C149.78 182.36 153.9 186.84 155.78 192.3C136.14 186.3 131.54 214.92 153.78 214.84C153.44 215.68 153.08 216.56 152.7 217.44C147.487 217.9 142.655 220.364 139.223 224.314C135.791 228.266 134.026 233.394 134.3 238.62V238.64ZM112.96 186.2C115.597 185.332 118.47 185.533 120.96 186.76C118.774 189.022 117.066 191.702 115.94 194.64C115.122 191.768 114.127 188.949 112.96 186.2ZM151.74 195.86C149.711 200.126 148.103 204.58 146.94 209.16C140.32 204.56 142.92 195.1 151.74 195.86ZM164.28 220C162.264 219.056 160.161 218.314 158 217.78C164.98 202.18 163.74 183.78 146.28 174.72C147.5 172.04 147.36 169.72 145.32 169.34C140.84 168.54 142.52 179.78 127.32 180.7C121.42 181.04 116.14 180 111.12 181.6C107.12 170.68 97.6 170.48 97.94 182.26C97.4472 182.23 96.953 182.23 96.46 182.26C95.5552 180.767 94.4888 179.379 93.28 178.12C101.14 159.8 133.28 144.26 153.42 165.86C180.02 169.36 178.28 191.86 178.2 213.86C172.34 210.38 166.2 214.98 164.28 220ZM108 185.04C106.077 184.091 104.068 183.328 102 182.76C102 180.96 102 178.76 103.6 178.32C105.2 177.88 106.28 180.34 108 185.04ZM89.46 175.04C81.68 171.28 78.54 177.2 80.64 188.9C74.26 183.5 65.94 181.18 54.64 181.34C51.72 163.34 80.64 172.82 78.64 156.68C88.64 156.96 97.56 156.46 107.8 156.12C100.113 160.681 93.7554 167.177 89.36 174.96L89.46 175.04ZM91.04 183.04C89.0392 183.641 87.0978 184.424 85.24 185.38C84.62 183.12 84.32 179.62 85.72 178.92C87.12 178.22 89.46 180.46 90.94 182.94L91.04 183.04ZM117.88 150.76C97.6 151.46 83.16 152.16 63.22 151.2C64.2932 147.222 66.1404 143.494 68.656 140.23C71.1716 136.966 74.306 134.231 77.88 132.18C87.1 143.02 108.08 142.56 119.46 138.86C117.934 142.629 117.39 146.723 117.88 150.76ZM135.76 130C135.28 127.68 133.06 128.58 130.6 129.26C129.34 121 132.38 118.04 136.92 118.8C140.92 119.46 140.18 128.8 144.28 129.42C146.62 129.88 168 132.18 174 150.62C161.26 150.02 139.72 150.14 122.82 150.62C120.7 131.08 136.96 135.76 135.76 130ZM146.88 124.64C150.19 120.757 152.16 115.911 152.5 110.82C164.96 112.82 170.8 117.1 177.5 124.7C177.5 129.36 177.5 134.28 177.66 139.22C177.66 141.22 176.66 142.84 175.66 141.22C170.88 132.98 160.32 125.86 146.88 124.72V124.64ZM154.42 160.78C152.618 158.531 150.447 156.603 148 155.08C160.1 154.98 171.18 155.08 178 155.82C178.12 162.64 178.26 169 178.38 174.24C175.763 170.241 172.217 166.936 168.044 164.605C163.872 162.275 159.197 160.99 154.42 160.86V160.78ZM177.6 50.78C179.04 66.12 177.76 95 177.48 117.42C172.001 111.996 165.044 108.309 157.48 106.82C167.08 102.36 172.48 90.44 159.12 82C163.12 63.7 158.24 53.54 132.34 55.1C132.472 53.3474 132.148 51.5902 131.4 50C137.8 50 144.52 50.48 177.6 50.92V50.78ZM71.24 96.64C78.12 93.02 84.82 88.4 88.62 82.84C97.36 99.34 117.88 94.54 130.62 82.14C134.9 86.6978 140.397 89.9324 146.46 91.46C148.6 101.96 148.6 113.72 144.46 119.86C137.06 106.6 120.96 116.44 126 131.54C93.32 144 69.1 130.4 71.24 96.64ZM33.24 139.82C36.16 109.82 27.96 52.26 41.08 52.36C44.06 51.3 55.08 50.82 70.32 50.68C47.66 60.68 34.2 74.68 51 93.36C35.28 113.68 49.42 129.98 71.6 123.36C72.506 125.096 73.5422 126.761 74.7 128.34C70.5874 130.825 67.014 134.109 64.1906 137.997C61.367 141.886 59.3506 146.3 58.26 150.98C49.58 150.72 40.92 150.58 33.04 150.98C33.02 147.18 33.1 143.44 33.16 139.82H33.24ZM32.86 156C38.06 155.74 43.62 155.72 49.34 155.8C41.68 161.8 36.12 170.4 38.94 185.34C36.2878 187.233 34.015 189.607 32.24 192.34C32.42 180 32.64 167.62 32.86 156ZM40.22 190.64C42.42 193.36 44.72 191.6 44.04 186.44C42.98 178.44 41.22 163.82 58.04 156.02C63.22 156.16 68.36 156.36 73.54 156.5C75.04 165.56 60.72 162.18 53.54 168.82C46.14 175.74 50.18 186.98 50.3 187.5C50.3654 187.834 50.4986 188.15 50.6914 188.43C50.8842 188.71 51.1324 188.948 51.4208 189.128C51.7092 189.307 52.0316 189.426 52.3678 189.476C52.704 189.527 53.047 189.507 53.3754 189.419C53.7038 189.331 54.0106 189.177 54.2766 188.965C54.5428 188.754 54.7626 188.49 54.9226 188.19C55.0824 187.89 55.1788 187.56 55.206 187.221C55.233 186.882 55.1902 186.542 55.08 186.22C77.08 184.76 80.4 200.02 84.36 199.22C86.96 198.68 85.7 195.4 84.02 192.34C96.14 179.26 117.84 192.98 112.76 209.76C110.76 216.48 104.16 220 94.02 218.98C89.44 218.52 90.66 223.32 97.48 224.02C103.92 230.86 113.8 244.14 105.48 245.56C103.3 245.92 98.64 245.78 98.56 244.26C98.22 236.16 83.06 217.5 74.9 217.64C69.18 217.64 65.68 224.14 68.3 244.96C66.62 244.96 61.92 244.96 60.3 244.96C56.98 228.8 60.12 218.74 53.34 216.66C44.04 213.84 37.9 217.26 43.74 244.92C42.22 244.92 36.72 244.92 35.2 244.92C32.24 234.22 26.6 198.38 40.22 190.62V190.64ZM90.38 245.3L82 245.16C81.62 240.62 83.2 232.18 83.62 228.2C85.88 230.88 89.62 235.5 91.4 238.06C90.806 240.424 90.464 242.844 90.38 245.28V245.3ZM79.52 223.3C79.34 229.3 77.52 237.84 77.52 245H73.52C72.68 235.66 69.64 219 79.52 223.38V223.3ZM55.24 244.82C52.14 244.82 52.02 244.82 48.88 244.82C46.56 234.32 42.88 217.38 50.66 220.7C55.24 222.66 53.4 233.86 55.24 244.82ZM302 296.28C106.88 297.46 171.78 294.58 48.72 294.08C28.58 298.2 32.36 268.58 31.8 250.08C135.6 249.82 275.06 249.92 367.8 249.92C367.66 262.46 367.8 271.7 366.78 284.46C365.38 300.92 319.04 296 302 296.28Z" fill="#001434"/>
<path d="M132 205.7C126.74 203.8 124.88 207.7 126 209.3C127.12 210.9 128.28 209.58 130 210.28C131.72 210.98 131.9 211.72 133.2 212.02C135.52 212.54 137.88 207.84 132 205.7Z" fill="#001434"/>
<path d="M47.7602 202.84C46.6402 206.68 51.3802 207.2 51.4602 203.52C54.5402 206.68 57.0202 202.76 53.7002 200.82C57.9802 200.82 56.5802 196.34 52.9002 198.06C54.9002 193.94 50.0402 192.82 49.6802 197.3C46.9602 193.42 43.5202 197.18 47.4802 199.62C43.7202 200.22 43.8202 203.8 47.7602 202.84Z" fill="#001434"/>
<path d="M98.3 204.84C96.3 210.96 93.54 204.3 90.76 206.3C89.58 207.14 91.8 211.46 95.24 212C96.0536 212.106 96.8806 212.02 97.655 211.748C98.4294 211.478 99.1298 211.03 99.7 210.44C100.038 211.098 100.577 211.632 101.239 211.962C101.901 212.292 102.651 212.404 103.38 212.28C106.72 211.96 109.84 207.28 107.56 206.12C106.1 205.38 103.02 210.58 102.08 204.98C108.16 198.76 91.62 198 98.3 204.84Z" fill="#001434"/>
<path d="M94.0001 200.58C98.2801 200.06 98 193.28 93.34 193.7C88.68 194.12 89.7001 201.08 94.0001 200.58Z" fill="#001434"/>
<path d="M128 218C123.56 214.54 116.58 223.22 121.9 225.5C126.46 227.34 132.46 221.34 128 218Z" fill="#001434"/>
<path d="M322 126.94C300.56 127.42 305.68 161.48 328 158.74C355.4 158.36 350 122.76 322 126.94ZM339.76 148.52C338.9 151.48 334.46 153.54 329.04 153.78C329.688 146.652 329.794 139.484 329.36 132.34C339.58 133.82 342.72 138.2 339.74 148.52H339.76Z" fill="#001434"/>
<path d="M297.84 130.74C295.5 128.54 292.08 132.24 294.48 134.38C298.48 138.08 300.48 141.32 300.18 143.52C300.62 146.34 292.86 147.22 294.36 150.96C294.624 151.561 295.114 152.034 295.726 152.274C296.336 152.514 297.018 152.502 297.62 152.24C308.44 147.22 306.92 138.94 297.84 130.74Z" fill="#001434"/>
<path d="M155.68 257.52C133.06 256.82 134.9 291.8 157.12 289.84C178.48 288 178 257.6 155.68 257.52ZM156.84 284.9C141.1 286.42 139.76 262.2 155.68 262.46C171.6 262.72 172.14 283.42 156.84 284.9Z" fill="#001434"/>
<path d="M109.32 116.14C104.2 116.82 99.76 115.44 99.32 117.86C98.84 121.32 104.6 127.1 112.78 125.46C120.46 123.9 122.22 116.94 121.36 114.86C120.16 111.88 114.7 115.4 109.32 116.14Z" fill="#001434"/>
<path d="M264.4 120.68C242.4 121.18 247.66 155.68 270.54 152.68C298.84 152.42 293.16 116.38 264.4 120.68ZM282.86 142.46C282.02 145.28 277.76 147.32 272.56 147.74C273.374 140.604 273.588 133.412 273.2 126.24C282.98 128 285.8 132.48 282.86 142.46Z" fill="#001434"/>
</svg>
