<svg width="400" height="400" viewBox="0 0 400 400" fill="none" xmlns="http://www.w3.org/2000/svg">
<path d="M190.08 35.328C175.166 35.744 163.404 47.128 163.82 60.752C164.276 76.612 180.592 87.504 196.948 83.936L196.074 73.652C195.884 71.9476 196.031 70.2224 196.508 68.575C196.985 66.9278 197.782 65.3906 198.853 64.0514C199.925 62.7122 201.25 61.5972 202.752 60.7702C204.254 59.9434 205.906 59.4206 207.61 59.232L217.742 58.36C216.908 45.156 204.688 34.91 190.08 35.328Z" fill="#B8FFD4"/>
<path fill-rule="evenodd" clip-rule="evenodd" d="M175.964 301.672L297.542 291.426C300.862 291.142 303.934 289.552 306.082 287.004C308.232 284.456 309.282 281.16 309.002 277.84L301.944 194.928C301.66 191.608 300.07 188.537 297.522 186.388C294.976 184.24 291.68 183.189 288.36 183.468L223.4 188.934C222.252 190.685 221.504 191.597 219.78 192.952C217.93 194.366 215.772 195.321 213.48 195.736C211.19 196.151 208.832 196.015 206.604 195.34C204.376 194.664 202.34 193.468 200.666 191.85C200.37 191.558 200.074 191.265 199.779 190.972L179.513 192.674C186.236 216.532 186.942 233.084 187.435 256.722C187.844 263.67 186.893 270.632 184.635 277.214L175.964 301.672ZM246.77 247.712L259.028 253.442L256.826 227.41L245.708 235.15C245.318 232.698 244.012 230.486 242.054 228.958C240.096 227.43 237.634 226.702 235.16 226.918L211.442 228.968C210.152 229.074 208.896 229.436 207.744 230.03C206.594 230.624 205.574 231.442 204.742 232.434C203.908 233.424 203.282 234.572 202.894 235.808C202.508 237.042 202.37 238.342 202.488 239.632L203.436 250.632C203.542 251.922 203.904 253.178 204.498 254.328C205.092 255.478 205.91 256.5 206.902 257.332C207.892 258.164 209.04 258.792 210.274 259.18C211.51 259.566 212.81 259.704 214.1 259.586L237.778 257.614C239.066 257.504 240.322 257.14 241.47 256.544C242.618 255.948 243.636 255.13 244.468 254.14C245.3 253.15 245.928 252.004 246.316 250.77C246.628 249.778 246.782 248.744 246.77 247.708V247.712Z" fill="#B8FFD4"/>
<path d="M335.868 195.27C335.972 196.176 335.894 197.094 335.64 197.97C335.386 198.846 334.962 199.663 334.392 200.374C333.82 201.086 333.114 201.676 332.314 202.112C331.514 202.55 330.634 202.824 329.728 202.918C328.82 203.014 327.904 202.928 327.03 202.668C326.156 202.406 325.342 201.976 324.636 201.398C323.93 200.82 323.346 200.11 322.916 199.305C322.486 198.501 322.22 197.62 322.132 196.712L321.032 186.312C320.858 184.499 321.406 182.691 322.558 181.28C323.712 179.87 325.374 178.972 327.186 178.782C328.996 178.592 330.81 179.125 332.23 180.265C333.65 181.405 334.562 183.06 334.768 184.87L335.868 195.27Z" fill="#B8FFD4"/>
<path d="M259.748 69.934C260.336 71.314 260.782 72.751 261.076 74.222C262.214 71.8318 262.886 69.2462 263.054 66.604C261.876 67.894 260.774 68.986 259.748 69.934Z" fill="#E9E9E9"/>
<path d="M156.572 122.11C156.898 123.905 157.514 125.634 158.394 127.232C161.316 127.232 164.542 126.854 165.338 125.678C165.452 125.478 165.566 125.26 165.68 125.032C164.58 127.2 160.6 125 156.572 122.11Z" fill="#E9E9E9"/>
<path d="M56.1298 206.502C49.0718 196.37 4.18189 233.368 10.6319 242.702L11.7319 243.688C21.0678 248.888 61.6318 214.472 56.1298 206.502Z" fill="#E9E9E9"/>
<path d="M132.932 337.112C123.708 341.498 152.234 392.956 160.932 385.646C166.136 378.094 140.218 333.622 132.932 337.112Z" fill="#E9E9E9"/>
<path d="M46.1498 238.68C45.972 239.334 45.921 240.018 45.9998 240.692C46.3798 243.12 49.4898 243.234 51.5778 242.664C50.1156 240.918 48.2534 239.552 46.1498 238.68Z" fill="#E9E9E9"/>
<path d="M66.2979 218.872C67.7399 220.656 69.2199 222.438 70.5479 224.072C70.7703 223.436 70.9107 222.772 70.9659 222.1C71.0039 221.53 70.8931 220.958 70.6445 220.444C70.3959 219.928 70.0179 219.488 69.5475 219.162C69.0773 218.836 68.5305 218.64 67.9611 218.588C67.3915 218.538 66.8185 218.636 66.2979 218.872Z" fill="#E9E9E9"/>
<path d="M135.36 142C134.939 142.045 134.542 142.214 134.217 142.485C133.893 142.756 133.656 143.117 133.537 143.523C133.417 143.929 133.421 144.361 133.547 144.764C133.674 145.168 133.917 145.525 134.246 145.79C134.575 146.056 134.976 146.217 135.397 146.255C135.818 146.293 136.241 146.205 136.612 146.003C136.983 145.8 137.286 145.492 137.482 145.117C137.678 144.743 137.759 144.318 137.714 143.898C137.688 143.617 137.606 143.345 137.472 143.096C137.339 142.848 137.157 142.628 136.938 142.451C136.718 142.275 136.466 142.143 136.195 142.066C135.924 141.988 135.64 141.966 135.36 142Z" fill="#E9E9E9"/>
<path d="M120.182 159.638C119.761 159.683 119.364 159.852 119.039 160.123C118.715 160.394 118.478 160.755 118.359 161.161C118.239 161.567 118.243 161.999 118.369 162.402C118.496 162.806 118.739 163.163 119.068 163.428C119.397 163.694 119.798 163.855 120.219 163.893C120.64 163.931 121.063 163.843 121.434 163.641C121.805 163.438 122.108 163.13 122.304 162.755C122.5 162.381 122.581 161.956 122.536 161.536C122.506 161.257 122.422 160.986 122.288 160.739C122.153 160.492 121.972 160.274 121.753 160.098C121.534 159.922 121.283 159.79 121.013 159.711C120.744 159.632 120.461 159.607 120.182 159.638Z" fill="#E9E9E9"/>
<path d="M129.176 182.938C128.755 182.983 128.358 183.151 128.033 183.422C127.708 183.693 127.471 184.054 127.351 184.46C127.232 184.865 127.235 185.298 127.361 185.701C127.487 186.105 127.73 186.462 128.059 186.728C128.389 186.993 128.789 187.155 129.21 187.193C129.632 187.231 130.055 187.143 130.426 186.941C130.797 186.738 131.1 186.43 131.296 186.056C131.492 185.681 131.573 185.257 131.528 184.836C131.498 184.557 131.414 184.286 131.28 184.04C131.145 183.793 130.964 183.576 130.745 183.4C130.527 183.223 130.276 183.092 130.007 183.013C129.737 182.933 129.455 182.908 129.176 182.938Z" fill="#E9E9E9"/>
<path d="M109.444 155.616C109.023 155.661 108.625 155.829 108.301 156.1C107.976 156.371 107.739 156.732 107.619 157.138C107.5 157.544 107.503 157.976 107.629 158.379C107.755 158.783 107.998 159.14 108.327 159.406C108.656 159.671 109.057 159.833 109.478 159.871C109.899 159.909 110.322 159.821 110.694 159.619C111.065 159.416 111.368 159.108 111.564 158.734C111.76 158.359 111.841 157.935 111.796 157.514C111.766 157.235 111.682 156.964 111.547 156.718C111.413 156.471 111.232 156.254 111.013 156.078C110.795 155.901 110.544 155.77 110.274 155.691C110.005 155.611 109.723 155.586 109.444 155.616Z" fill="#E9E9E9"/>
<path d="M153.424 150.342C153.003 150.387 152.605 150.555 152.28 150.826C151.956 151.097 151.719 151.459 151.599 151.864C151.48 152.27 151.483 152.702 151.61 153.106C151.736 153.51 151.979 153.867 152.308 154.132C152.638 154.398 153.038 154.56 153.46 154.597C153.881 154.635 154.304 154.547 154.675 154.344C155.047 154.141 155.349 153.833 155.545 153.458C155.741 153.083 155.821 152.659 155.776 152.238C155.746 151.959 155.661 151.689 155.527 151.443C155.393 151.196 155.211 150.979 154.993 150.803C154.774 150.627 154.523 150.495 154.254 150.416C153.985 150.337 153.703 150.312 153.424 150.342Z" fill="#E9E9E9"/>
<path d="M141.052 167.646C140.631 167.691 140.234 167.86 139.909 168.131C139.585 168.402 139.348 168.764 139.229 169.17C139.11 169.575 139.114 170.007 139.24 170.411C139.367 170.815 139.61 171.172 139.939 171.437C140.269 171.702 140.669 171.864 141.09 171.901C141.512 171.939 141.935 171.851 142.306 171.648C142.677 171.445 142.979 171.137 143.175 170.762C143.371 170.387 143.451 169.962 143.406 169.542C143.376 169.263 143.292 168.992 143.157 168.746C143.023 168.499 142.841 168.282 142.622 168.105C142.404 167.929 142.153 167.798 141.883 167.719C141.614 167.64 141.331 167.615 141.052 167.646Z" fill="#E9E9E9"/>
<path d="M163.252 175.69C162.831 175.735 162.433 175.903 162.109 176.174C161.784 176.445 161.547 176.806 161.427 177.212C161.308 177.618 161.311 178.05 161.437 178.453C161.563 178.857 161.806 179.214 162.135 179.48C162.465 179.745 162.865 179.907 163.286 179.945C163.708 179.983 164.131 179.895 164.502 179.693C164.873 179.49 165.176 179.182 165.372 178.808C165.568 178.433 165.649 178.009 165.604 177.588C165.574 177.309 165.49 177.038 165.356 176.792C165.221 176.545 165.04 176.328 164.821 176.152C164.603 175.975 164.352 175.844 164.083 175.765C163.813 175.685 163.531 175.66 163.252 175.69Z" fill="#E9E9E9"/>
<path d="M172.472 138.882C172.051 138.927 171.653 139.095 171.329 139.366C171.004 139.637 170.767 139.998 170.647 140.404C170.528 140.81 170.531 141.242 170.657 141.645C170.783 142.049 171.026 142.406 171.355 142.672C171.685 142.937 172.085 143.099 172.506 143.137C172.927 143.175 173.351 143.087 173.722 142.885C174.093 142.682 174.396 142.374 174.592 142C174.788 141.625 174.869 141.201 174.824 140.78C174.798 140.499 174.716 140.227 174.583 139.979C174.45 139.73 174.268 139.511 174.049 139.334C173.829 139.157 173.577 139.026 173.306 138.948C173.035 138.871 172.752 138.848 172.472 138.882Z" fill="#E9E9E9"/>
<path d="M192.356 174.778C191.935 174.823 191.537 174.991 191.213 175.262C190.888 175.533 190.651 175.894 190.531 176.3C190.412 176.706 190.415 177.138 190.541 177.541C190.667 177.945 190.91 178.302 191.239 178.568C191.569 178.833 191.969 178.995 192.39 179.033C192.812 179.071 193.235 178.983 193.606 178.781C193.977 178.578 194.28 178.27 194.476 177.896C194.672 177.521 194.753 177.097 194.708 176.676C194.647 176.113 194.366 175.596 193.925 175.24C193.484 174.884 192.919 174.718 192.356 174.778Z" fill="#E9E9E9"/>
<path d="M192.432 154.856C192.711 154.827 192.982 154.742 193.228 154.608C193.475 154.474 193.693 154.292 193.869 154.074C194.045 153.855 194.177 153.604 194.256 153.335C194.335 153.065 194.36 152.783 194.33 152.504C194.255 151.952 193.968 151.451 193.53 151.108C193.092 150.764 192.537 150.605 191.983 150.664C191.429 150.724 190.921 150.997 190.565 151.426C190.21 151.854 190.036 152.405 190.08 152.96C190.109 153.239 190.194 153.51 190.328 153.756C190.462 154.003 190.644 154.22 190.862 154.396C191.081 154.573 191.332 154.704 191.601 154.783C191.871 154.862 192.153 154.887 192.432 154.856Z" fill="#E9E9E9"/>
<path d="M215.618 179.294C215.198 179.339 214.8 179.507 214.474 179.778C214.15 180.049 213.912 180.41 213.794 180.816C213.674 181.222 213.678 181.654 213.804 182.057C213.93 182.461 214.172 182.818 214.502 183.084C214.83 183.349 215.232 183.511 215.652 183.549C216.074 183.587 216.496 183.499 216.868 183.297C217.24 183.094 217.542 182.786 217.738 182.412C217.934 182.037 218.014 181.613 217.97 181.192C217.94 180.913 217.856 180.642 217.722 180.396C217.588 180.149 217.406 179.932 217.188 179.756C216.968 179.579 216.718 179.448 216.448 179.369C216.18 179.289 215.896 179.264 215.618 179.294Z" fill="#E9E9E9"/>
<path d="M218.274 156.68C217.854 156.725 217.456 156.893 217.13 157.164C216.806 157.435 216.568 157.797 216.45 158.202C216.33 158.608 216.334 159.04 216.46 159.444C216.586 159.848 216.83 160.205 217.158 160.471C217.488 160.736 217.888 160.898 218.31 160.936C218.732 160.973 219.154 160.885 219.526 160.682C219.896 160.479 220.2 160.171 220.396 159.796C220.592 159.421 220.672 158.997 220.626 158.576C220.596 158.297 220.512 158.027 220.378 157.78C220.244 157.534 220.062 157.316 219.844 157.14C219.624 156.964 219.374 156.833 219.104 156.754C218.836 156.675 218.552 156.65 218.274 156.68Z" fill="#E9E9E9"/>
<path d="M237.246 149.09C237.202 148.669 237.032 148.272 236.762 147.947C236.49 147.622 236.13 147.385 235.724 147.265C235.318 147.146 234.886 147.149 234.482 147.275C234.078 147.401 233.722 147.644 233.456 147.974C233.19 148.303 233.028 148.703 232.99 149.124C232.952 149.546 233.04 149.969 233.242 150.34C233.446 150.711 233.754 151.014 234.128 151.21C234.502 151.406 234.928 151.487 235.348 151.442C235.628 151.412 235.898 151.328 236.144 151.194C236.39 151.059 236.608 150.878 236.784 150.659C236.96 150.441 237.092 150.19 237.172 149.921C237.25 149.651 237.276 149.369 237.246 149.09Z" fill="#E9E9E9"/>
<path d="M300.578 30.356C300.346 27.4138 299.074 24.6504 296.988 22.5628C294.9 20.4752 292.138 19.2002 289.196 18.9669C286.254 18.7336 283.326 19.5574 280.936 21.2902C278.546 23.0228 276.854 25.551 276.162 28.42C272.734 26.8246 268.952 26.1388 265.182 26.4288C261.412 26.7188 257.782 27.9748 254.638 30.0758C251.494 32.1768 248.944 35.0518 247.234 38.4242C245.524 41.7966 244.712 45.5524 244.874 49.33C249.444 48.0912 254.142 47.3778 258.874 47.204C259.13 48.7584 259.484 50.2948 259.936 51.804C260.354 52.752 260.998 52.828 262.136 51.082C264.68 47.402 269.84 53.094 263.806 57.496C266.41 62.0032 269.718 66.0646 273.606 69.526C278.372 67.9908 282.476 64.8842 285.248 60.7138C288.018 56.5436 289.292 51.5566 288.862 46.568C288.784 45.6526 288.65 44.743 288.462 43.844C288.736 43.8454 289.008 43.83 289.28 43.798C290.904 43.6572 292.486 43.198 293.932 42.4462C295.38 41.6946 296.664 40.6652 297.712 39.417C298.762 38.1688 299.556 36.7262 300.046 35.1714C300.538 33.6168 300.718 31.9804 300.578 30.356Z" fill="#E9E9E9"/>
<path d="M139.762 230.294L140.18 245.694L145.6 240.8C143.236 237.546 141.276 234.02 139.762 230.294Z" fill="#E9E9E9"/>
<path d="M174.598 159.98L179.986 167.646L180.29 177.474L174.598 159.98Z" fill="#E9E9E9"/>
<path d="M165.3 108.032C165.96 107.911 166.555 107.559 166.98 107.039C167.404 106.519 167.63 105.866 167.616 105.195C167.602 104.524 167.35 103.879 166.905 103.377C166.46 102.875 165.85 102.548 165.186 102.454C165.7 102.078 166.072 101.541 166.244 100.927C166.415 100.314 166.374 99.6612 166.129 99.0736C165.884 98.4862 165.448 97.9984 164.891 97.689C164.335 97.3796 163.69 97.2664 163.062 97.368C163.384 96.8334 163.52 96.2074 163.451 95.5872C163.381 94.967 163.108 94.3872 162.675 93.9376C162.242 93.488 161.673 93.1938 161.056 93.1006C160.439 93.0074 159.808 93.1204 159.262 93.422C159.392 92.7854 159.301 92.1234 159.003 91.546C158.704 90.9688 158.217 90.511 157.622 90.2494C157.028 89.9876 156.361 89.9376 155.734 90.1078C155.107 90.2778 154.557 90.6576 154.176 91.184C154.114 90.5 153.816 89.8588 153.333 89.371C152.85 88.8832 152.211 88.5794 151.528 88.5118C150.844 88.4444 150.159 88.6174 149.589 89.001C149.02 89.3848 148.602 89.9552 148.408 90.614C148.139 90.023 147.677 89.5418 147.097 89.2504C146.517 88.959 145.855 88.875 145.22 89.0124C144.586 89.15 144.018 89.5006 143.61 90.006C143.203 90.5114 142.981 91.141 142.982 91.79C142.508 91.3828 141.914 91.1426 141.291 91.1064C140.667 91.07 140.049 91.2396 139.532 91.589C139.014 91.9384 138.626 92.4482 138.426 93.04C138.227 93.6318 138.227 94.2726 138.428 94.864C137.838 94.6444 137.191 94.6278 136.59 94.8172C135.99 95.0066 135.47 95.391 135.112 95.9096C134.755 96.4282 134.581 97.0512 134.618 97.6798C134.655 98.3084 134.9 98.9068 135.316 99.38C134.646 99.3432 133.985 99.5444 133.449 99.9478C132.914 100.351 132.538 100.931 132.388 101.585C132.238 102.238 132.324 102.924 132.631 103.52C132.937 104.117 133.445 104.586 134.064 104.844C133.406 104.971 132.815 105.328 132.396 105.851C131.976 106.373 131.756 107.028 131.774 107.697C131.793 108.367 132.048 109.009 132.495 109.508C132.942 110.007 133.552 110.331 134.216 110.422C133.713 110.804 133.352 111.343 133.19 111.953C133.029 112.564 133.076 113.211 133.325 113.792C133.574 114.372 134.01 114.853 134.563 115.157C135.117 115.461 135.756 115.571 136.38 115.47C136.065 116.007 135.936 116.633 136.013 117.251C136.089 117.869 136.366 118.444 136.802 118.889C137.238 119.333 137.808 119.622 138.424 119.71C139.04 119.799 139.669 119.682 140.212 119.378C140.086 120.013 140.182 120.672 140.483 121.245C140.784 121.819 141.272 122.271 141.866 122.528C142.461 122.786 143.125 122.832 143.749 122.659C144.373 122.486 144.919 122.104 145.296 121.578C145.329 122.052 145.479 122.51 145.732 122.912C145.986 123.313 146.335 123.645 146.749 123.879C147.163 124.112 147.628 124.239 148.103 124.248C148.578 124.258 149.047 124.149 149.47 123.932C149.812 123.514 154.47 117.784 156.112 115.696C152.09 111.144 155.428 108.184 157.592 111.182C158.73 112.814 160.392 112.358 159.412 107.5C160.669 106.953 161.874 106.293 163.012 105.528C163.812 108.6 164.412 111.22 164.908 113.42C165.484 113.269 165.998 112.942 166.379 112.484C166.76 112.026 166.988 111.46 167.031 110.866C167.074 110.272 166.931 109.68 166.62 109.171C166.31 108.663 165.848 108.265 165.3 108.032Z" fill="#E9E9E9"/>
<path d="M164.92 113.42C164.428 111.22 163.82 108.602 163.024 105.528C161.886 106.293 160.681 106.953 159.424 107.5C160.412 112.358 158.754 112.804 157.604 111.182C155.464 108.166 152.102 111.144 156.124 115.696C154.492 117.784 149.824 123.514 149.482 123.932C149.059 124.149 148.59 124.258 148.115 124.248C147.64 124.239 147.175 124.112 146.761 123.879C146.348 123.645 145.998 123.313 145.745 122.912C145.491 122.51 145.341 122.052 145.308 121.578C144.931 122.104 144.385 122.486 143.761 122.659C143.137 122.831 142.473 122.786 141.879 122.528C141.285 122.271 140.796 121.818 140.495 121.245C140.194 120.672 140.098 120.013 140.224 119.378C139.681 119.682 139.053 119.799 138.436 119.71C137.82 119.622 137.25 119.333 136.814 118.889C136.379 118.444 136.101 117.869 136.025 117.251C135.948 116.633 136.077 116.007 136.392 115.47C135.769 115.571 135.129 115.461 134.576 115.157C134.022 114.853 133.586 114.372 133.337 113.792C133.089 113.211 133.041 112.564 133.202 111.953C133.364 111.343 133.725 110.804 134.228 110.422C133.564 110.331 132.955 110.007 132.507 109.508C132.06 109.009 131.805 108.367 131.787 107.697C131.768 107.028 131.989 106.373 132.408 105.851C132.827 105.328 133.418 104.971 134.076 104.844C133.457 104.586 132.95 104.117 132.643 103.52C132.336 102.924 132.25 102.238 132.4 101.585C132.55 100.931 132.926 100.351 133.461 99.9476C133.997 99.5444 134.658 99.3432 135.328 99.38C134.913 98.9068 134.667 98.3084 134.63 97.6798C134.593 97.051 134.767 96.428 135.125 95.9096C135.482 95.391 136.002 95.0066 136.603 94.8172C137.203 94.6278 137.85 94.6442 138.44 94.864C138.245 94.2742 138.248 93.637 138.449 93.0492C138.65 92.4616 139.038 91.9556 139.553 91.6086C140.068 91.2616 140.682 91.0926 141.303 91.127C141.923 91.1616 142.515 91.398 142.988 91.8C142.988 91.151 143.209 90.5212 143.617 90.0158C144.024 89.5106 144.592 89.1598 145.226 89.0224C145.861 88.885 146.523 88.9688 147.103 89.2602C147.683 89.5516 148.146 90.033 148.414 90.624C148.608 89.9652 149.026 89.3948 149.595 89.011C150.165 88.6272 150.85 88.4542 151.534 88.5218C152.217 88.5894 152.856 88.8932 153.339 89.381C153.823 89.8688 154.121 90.51 154.182 91.194C154.563 90.6676 155.113 90.2878 155.74 90.1176C156.367 89.9476 157.034 89.9976 157.629 90.2594C158.223 90.521 158.711 90.9786 159.009 91.556C159.307 92.1334 159.399 92.7954 159.268 93.432C159.814 93.1304 160.445 93.0174 161.062 93.1106C161.679 93.2038 162.248 93.498 162.681 93.9476C163.114 94.3972 163.387 94.977 163.457 95.5972C163.527 96.2174 163.39 96.8434 163.068 97.378C163.697 97.2764 164.341 97.3894 164.897 97.6988C165.454 98.0082 165.89 98.496 166.135 99.0836C166.381 99.671 166.421 100.324 166.25 100.937C166.079 101.551 165.706 102.088 165.192 102.464C165.857 102.558 166.466 102.885 166.911 103.387C167.356 103.889 167.609 104.534 167.622 105.204C167.636 105.875 167.41 106.529 166.986 107.049C166.562 107.569 165.966 107.921 165.306 108.042C165.851 108.276 166.309 108.674 166.617 109.181C166.925 109.687 167.068 110.277 167.025 110.868C166.983 111.46 166.757 112.023 166.38 112.48C166.003 112.938 165.492 113.266 164.92 113.42Z" stroke="black" stroke-width="1.5" stroke-linecap="round" stroke-linejoin="round"/>
<path d="M165.376 97.862L175.546 97.028C176.76 96.922 177.983 97.057 179.145 97.4256C180.307 97.794 181.384 98.3886 182.315 99.175C183.246 99.9616 184.013 100.924 184.57 102.008C185.128 103.092 185.465 104.275 185.564 105.49L188.334 138.768" stroke="black" stroke-width="1.5" stroke-linecap="round" stroke-linejoin="round"/>
<path d="M180.668 176.942L182.224 176.828C183.582 176.813 184.909 176.419 186.056 175.69" stroke="black" stroke-width="1.5" stroke-linecap="round" stroke-linejoin="round"/>
<path d="M110.24 182.854L89.826 184.6C87.3762 184.805 84.9454 184.029 83.0672 182.443C81.1892 180.856 80.0178 178.59 79.81 176.14L74.61 114.818C74.404 112.367 75.1798 109.935 76.7666 108.057C78.3534 106.178 80.6216 105.007 83.072 104.8L132.987 100.595" stroke="black" stroke-width="1.5" stroke-linecap="round" stroke-linejoin="round"/>
<path d="M175.964 301.672L297.542 291.426C300.862 291.142 303.934 289.552 306.082 287.004C308.232 284.456 309.282 281.16 309.002 277.84L301.944 194.928C301.66 191.608 300.07 188.537 297.522 186.388C294.976 184.24 291.68 183.189 288.36 183.468L223.4 188.934" stroke="black" stroke-width="1.5" stroke-linecap="round" stroke-linejoin="round"/>
<path d="M179.568 192.652L199.756 190.944" stroke="black" stroke-width="1.5" stroke-linecap="round" stroke-linejoin="round"/>
<path d="M245.064 56L207.572 59.226C204.138 59.6092 200.996 61.3378 198.833 64.033C196.671 66.7284 195.665 70.1706 196.036 73.606L203.55 160.086" stroke="black" stroke-width="1.5" stroke-linecap="round" stroke-linejoin="round"/>
<path d="M230.644 172.768L344.368 162.94C346.892 162.712 349.29 161.728 351.246 160.117C353.202 158.506 354.626 156.342 355.334 153.908" stroke="black" stroke-width="1.5" stroke-linecap="round" stroke-linejoin="round"/>
<path d="M351.692 99.722L348.314 60.448C348.088 56.9976 346.504 53.7776 343.908 51.494C341.31 49.2104 337.914 48.0494 334.464 48.266L288.664 52.214" stroke="black" stroke-width="1.5" stroke-linecap="round" stroke-linejoin="round"/>
<path d="M310.064 111.144C306.156 117.29 297.922 135.24 293.14 146.888C302.32 150.476 310.056 157.001 315.14 165.444" stroke="black" stroke-width="1.5" stroke-linecap="round" stroke-linejoin="round"/>
<path d="M248.934 130.8C250.322 137.947 252.134 145.004 254.36 151.936C252.272 159.79 251.438 166.772 250.452 171.06" stroke="black" stroke-width="1.5" stroke-linecap="round" stroke-linejoin="round"/>
<path d="M252.576 101.582C249.71 106 248.038 111.085 247.72 116.342" stroke="black" stroke-width="1.5" stroke-linecap="round" stroke-linejoin="round"/>
<path d="M293.102 146.926C282.402 154.63 262.176 158.726 254.36 151.936" stroke="black" stroke-width="1.5" stroke-linecap="round" stroke-linejoin="round"/>
<path d="M288.246 149.848C293.954 154.312 298.528 160.058 301.6 166.62" stroke="black" stroke-width="1.5" stroke-linecap="round" stroke-linejoin="round"/>
<path d="M261.102 74.178C262.222 71.7978 262.884 69.2286 263.054 66.604C261.878 67.894 260.774 68.986 259.748 69.934" stroke="black" stroke-width="1.5" stroke-linecap="round" stroke-linejoin="round"/>
<path d="M304.638 121.314L318.224 144.27C328.734 163.32 350.624 169.312 364.366 140.856C370.852 127.422 373.928 118.392 379.62 109.056C370.312 106.402 361.836 101.413 355 94.562C348.682 104.071 343.064 114.026 338.188 124.348C310.678 65.874 307.3 76.184 288.972 75.17C283.38 75.0158 277.994 73.0292 273.642 69.516" stroke="black" stroke-width="1.5" stroke-linecap="round" stroke-linejoin="round"/>
<path d="M233.566 121.768C238.992 103.326 251.148 94.802 256.484 88.984C258.994 86.576 260.668 83.4258 261.254 79.9968C261.842 76.5676 261.314 73.0406 259.748 69.934C250.186 78.358 244.912 71.642 244.912 49.334" stroke="black" stroke-width="1.5" stroke-linecap="round" stroke-linejoin="round"/>
<path d="M291.282 75.246C283.676 81.3584 276.812 88.3392 270.828 96.046C269.89 97.2134 268.666 98.1178 267.274 98.6704C265.882 99.223 264.37 99.4052 262.886 99.199C261.404 98.9928 259.998 98.4054 258.81 97.4942C257.622 96.583 256.69 95.379 256.106 94C255.618 92.86 255.194 91.8 254.816 90.774" stroke="black" stroke-width="1.5" stroke-linecap="round" stroke-linejoin="round"/>
<path d="M338.182 124.348L333.668 134.518" stroke="black" stroke-width="1.5" stroke-linecap="round" stroke-linejoin="round"/>
<path d="M149.476 123.932C144.172 130.732 140.418 130.286 130.428 134.746C110.088 143.816 117.07 180.168 117.07 180.168" stroke="black" stroke-width="1.5" stroke-linecap="round" stroke-linejoin="round"/>
<path d="M164.92 113.42C166.578 121.106 166.428 124.048 165.338 125.638C164.538 126.816 161.316 127.194 158.394 127.194" stroke="black" stroke-width="1.5" stroke-linecap="round" stroke-linejoin="round"/>
<path d="M165.686 125C164.624 127.2 160.596 125 156.572 122.078C157.332 125.57 157.862 129.754 160.708 129.932C185.936 131.514 188.6 134.372 210.494 171.932" stroke="black" stroke-width="1.5" stroke-linecap="round" stroke-linejoin="round"/>
<path d="M207.8 167.266C208.748 164.61 214.63 152.504 218.046 141.576C225.526 140.771 233.044 142.728 239.182 147.078C236.828 158.234 230 175.16 224.116 187.6C223.116 189.703 221.63 191.537 219.78 192.952C217.93 194.366 215.772 195.321 213.48 195.736C211.19 196.151 208.832 196.015 206.604 195.34C204.376 194.664 202.34 193.468 200.666 191.85C190.842 182.19 182.112 171.477 174.636 159.904" stroke="black" stroke-width="1.5" stroke-linecap="round" stroke-linejoin="round"/>
<path d="M174.674 159.904L180.29 177.474" stroke="black" stroke-width="1.5" stroke-linecap="round" stroke-linejoin="round"/>
<path d="M133.2 191.818C144.47 195.418 163.746 194.056 178.812 189.958C181.088 185.48 180.14 167.798 180.14 167.798" stroke="black" stroke-width="1.5" stroke-linecap="round" stroke-linejoin="round"/>
<path d="M133.084 190.944C128.228 197.926 118.684 198.184 114.3 190.906C108.776 181.706 106.408 168.594 105.232 154.022C105.232 154.022 113.832 151.27 117.432 152.348" stroke="black" stroke-width="1.5" stroke-linecap="round" stroke-linejoin="round"/>
<path d="M145.6 240.8L105.53 276.28C102.879 278.612 99.4738 279.904 95.9438 279.918C92.4138 279.93 88.9984 278.664 86.33 276.354L46.908 242.248" stroke="black" stroke-width="1.5" stroke-linecap="round" stroke-linejoin="round"/>
<path d="M99.882 247.674L70.056 219.556" stroke="black" stroke-width="1.5" stroke-linecap="round" stroke-linejoin="round"/>
<path d="M126.974 153.758C126.974 153.758 133.574 180.358 133.16 192.5C125.131 197.064 118.927 204.264 115.6 212.878C110.754 225.972 93.97 241.906 93.97 241.906" stroke="black" stroke-width="1.5" stroke-linecap="round" stroke-linejoin="round"/>
<path d="M178.81 189.958C186.246 215.268 186.986 232.158 187.498 256.666C187.907 263.614 186.956 270.574 184.698 277.158L167.32 326.032C156.692 324.916 146.475 321.316 137.494 315.522L154.874 265.736C155.209 257.232 152.356 248.91 146.874 242.4C141.447 235.79 138.047 227.75 137.084 219.252" stroke="black" stroke-width="1.5" stroke-linecap="round" stroke-linejoin="round"/>
<path d="M140.75 130.686C140.75 130.686 146.82 137.364 161.24 129.964" stroke="black" stroke-width="1.5" stroke-linecap="round" stroke-linejoin="round"/>
<path d="M108.23 153.15C108.111 147.36 107.463 141.594 106.294 135.922C105.175 131.557 103.571 127.331 101.512 123.322C98.4921 117.434 99.4721 115.84 104.322 121.198C109.111 127.21 113.056 133.849 116.046 140.93" stroke="black" stroke-width="1.5" stroke-linecap="round" stroke-linejoin="round"/>
<path d="M114.362 137.18C116.772 139.912 118.214 131.58 119.12 129.736C120.372 127.194 121.92 124.426 121.814 132.242C121.784 134.404 122.042 137.858 122.384 141.272" stroke="black" stroke-width="1.5" stroke-linecap="round" stroke-linejoin="round"/>
<path d="M104.018 128.902C102.918 127.688 100.418 125.262 99.6918 124.576C96.3758 121.404 95.7158 122.522 96.0918 123.176C97.5318 125.7 100.232 129.588 101.492 131.976C103.508 135.844 107.6 143.208 107.828 147.002" stroke="black" stroke-width="1.5" stroke-linecap="round" stroke-linejoin="round"/>
<path d="M101.362 131.748C100.716 131.294 100.182 130.92 99.8821 130.724C96.0381 128.218 95.6321 129.358 96.0821 129.924C97.9041 132.2 101.212 135.572 102.838 137.74C104.747 140.411 106.398 143.257 107.77 146.24" stroke="black" stroke-width="1.5" stroke-linecap="round" stroke-linejoin="round"/>
<path d="M237.4 145.826C239.436 139.757 242 133.878 245.066 128.258C247.66 124.016 250.728 120.083 254.21 116.532C259.322 111.332 258.81 109.284 251.934 113.344C244.92 118.134 238.588 123.853 233.112 130.344" stroke="black" stroke-width="1.5" stroke-linecap="round" stroke-linejoin="round"/>
<path d="M236.302 126.744C232.474 129.598 233.886 119.85 233.528 117.556C233.046 114.48 232.352 111.03 229.884 119.34C229.202 121.614 226.43 128.662 221.204 141.384" stroke="black" stroke-width="1.5" stroke-linecap="round" stroke-linejoin="round"/>
<path d="M249.73 121.578C251.286 120.63 254.702 118.922 255.688 118.43C260.242 116.152 260.54 117.59 259.976 118.126C257.642 120.344 253.528 123.556 251.438 125.676C248.066 129.098 241.344 135.542 239.826 139.49" stroke="black" stroke-width="1.5" stroke-linecap="round" stroke-linejoin="round"/>
<path d="M251.628 125.488C252.462 125.222 253.146 124.996 253.526 124.888C258.39 123.398 258.456 124.846 257.776 125.306C255.108 127.106 250.532 129.6 248.098 131.376C245.218 133.577 242.552 136.042 240.13 138.738" stroke="black" stroke-width="1.5" stroke-linecap="round" stroke-linejoin="round"/>
<path d="M56.13 206.502C49.376 196.8 7.97394 230.27 10.0779 241.35C10.4039 243.066 11.8879 244.602 15.3499 244.132C28.656 242.33 61.12 213.682 56.13 206.502Z" stroke="black" stroke-width="1.5" stroke-linecap="round" stroke-linejoin="round"/>
<path d="M56.1298 206.502C58.2158 209.158 65.3878 217.734 70.5118 224.102" stroke="black" stroke-width="1.5" stroke-linecap="round" stroke-linejoin="round"/>
<path d="M163.138 325.502C161.538 331.534 152.558 344.774 159.456 361.74C162.99 370.428 165.034 383.098 160.256 386.286" stroke="black" stroke-width="1.5" stroke-linecap="round" stroke-linejoin="round"/>
<path d="M131.718 338.252C132.854 335.692 136.984 326.352 140.674 317.652" stroke="black" stroke-width="1.5" stroke-linecap="round" stroke-linejoin="round"/>
<path d="M132.932 337.112C124.448 341.146 147.096 382.622 157.484 386.406C160.354 387.452 161.726 385.406 161.612 382.36C161.14 369.688 139.49 334 132.932 337.112Z" stroke="black" stroke-width="1.5" stroke-linecap="round" stroke-linejoin="round"/>
<path d="M66.262 218.872C66.7822 218.636 67.3548 218.538 67.9242 218.588C68.4936 218.638 69.04 218.836 69.5102 219.162C69.9804 219.486 70.3582 219.928 70.6066 220.442C70.8552 220.958 70.9658 221.528 70.928 222.098C70.3 230.098 55.438 243.802 48.756 242.994C46.756 242.75 45.488 241.336 46.156 238.644" stroke="black" stroke-width="1.5" stroke-linecap="round" stroke-linejoin="round"/>
<path d="M164.954 311.904L176.6 275.07C178.621 269.314 179.472 263.212 179.104 257.122C177.49 230.752 175.538 210.372 170.794 191.818" stroke="black" stroke-width="1.5" stroke-linecap="round" stroke-linejoin="round"/>
<path d="M142.228 301.936C150.842 308.49 161.275 312.216 172.092 312.6" stroke="black" stroke-width="1.5" stroke-linecap="round" stroke-linejoin="round"/>
<path d="M58.1398 251.962C69.6378 248.28 76.0898 239.962 79.9598 229.118" stroke="black" stroke-width="1.5" stroke-linecap="round" stroke-linejoin="round"/>
<path d="M139.762 230.294L107.47 258.906C104.814 261.272 101.384 262.586 97.8274 262.6C94.2702 262.614 90.8304 261.328 88.156 258.982L71.118 244.03" stroke="black" stroke-width="1.5" stroke-linecap="round" stroke-linejoin="round"/>
<path d="M145.226 201.91C144.734 201.986 144.012 211.55 145.302 215.42C147.77 218.83 150.924 221.688 154.562 223.806C156.643 220.34 159.141 217.14 162 214.282C161.62 209.462 161.164 206.92 160.634 201.834C155.526 202.564 150.341 202.59 145.226 201.91Z" stroke="black" stroke-width="1.5" stroke-linecap="round" stroke-linejoin="round"/>
<path d="M123.712 199.976C125.66 200.004 127.573 200.498 129.29 201.418C125.798 203.124 122.27 211.818 122.27 211.818L114.49 215.538" stroke="black" stroke-width="1.5" stroke-linecap="round" stroke-linejoin="round"/>
<path d="M370.588 76C376.588 77.896 379.924 80.97 383.788 85.904" stroke="black" stroke-width="1.5" stroke-linecap="round" stroke-linejoin="round"/>
<path d="M369.11 78.814C371.204 80.9392 372.832 83.4774 373.89 86.2666C374.948 89.0558 375.412 92.0348 375.256 95.014" stroke="black" stroke-width="1.5" stroke-linecap="round" stroke-linejoin="round"/>
<path d="M380.644 82.152C382.972 79.0848 384.92 75.7464 386.444 72.21C389.244 65.646 390.96 67.468 389.404 73.69C388.986 75.36 388.57 76.802 388.19 78.016C387.094 81.508 386.014 85.034 385.002 88.566C383.928 92.318 376.802 108.184 376.802 108.184C370.124 106.4 363.18 101.544 357.754 97.066C357.868 96.838 360.754 91.528 360.864 91.336C361.452 90.2746 361.702 89.0592 361.58 87.8522C361.458 86.6454 360.97 85.5044 360.182 84.582C357.438 81.29 353.764 76.382 354.982 75.056C356.872 73.002 362.836 79.948 366.024 80.37C367.162 80.52 368.074 77.068 368.262 75.816C368.606 73.54 369.804 65.796 369.894 65.04C370.72 58.004 373.234 59.196 373.196 65.418C373.158 71.338 373.158 75.17 373.158 75.17" stroke="black" stroke-width="1.5" stroke-linecap="round" stroke-linejoin="round"/>
<path d="M372.676 76.688C372.676 76.688 376.814 63.712 377.076 62.838C379.134 56.048 381.292 57.602 380.264 63.71C379.28 69.556 378.214 76.688 378.214 76.688" stroke="black" stroke-width="1.5" stroke-linecap="round" stroke-linejoin="round"/>
<path d="M377.2 78.776C379.18 74.8074 380.928 70.7272 382.436 66.556C384.896 59.876 386.704 61.582 385.548 67.658C384.914 71.4354 384.014 75.1634 382.854 78.814" stroke="black" stroke-width="1.5" stroke-linecap="round" stroke-linejoin="round"/>
<path d="M335.868 195.27C335.972 196.176 335.894 197.094 335.64 197.97C335.386 198.846 334.962 199.663 334.392 200.374C333.82 201.086 333.114 201.676 332.314 202.112C331.514 202.55 330.634 202.824 329.728 202.918C328.82 203.014 327.904 202.928 327.03 202.668C326.156 202.406 325.342 201.976 324.636 201.398C323.93 200.82 323.346 200.11 322.916 199.305C322.486 198.501 322.22 197.62 322.132 196.712L321.032 186.312C320.858 184.499 321.406 182.691 322.558 181.28C323.712 179.87 325.374 178.972 327.186 178.782C328.996 178.592 330.81 179.125 332.23 180.265C333.65 181.405 334.562 183.06 334.768 184.87L335.868 195.27Z" stroke="black" stroke-width="1.5" stroke-linecap="round" stroke-linejoin="round"/>
<path d="M316.516 192.538L317.046 197.66C317.21 199.235 317.684 200.762 318.438 202.154C319.192 203.546 320.214 204.776 321.444 205.772C322.672 206.77 324.088 207.514 325.604 207.966C327.122 208.416 328.714 208.564 330.288 208.4C331.864 208.234 333.39 207.762 334.782 207.008C336.174 206.252 337.404 205.232 338.402 204.002C339.398 202.772 340.144 201.358 340.594 199.84C341.044 198.322 341.192 196.731 341.028 195.156L340.498 190.034" stroke="black" stroke-width="1.5" stroke-linecap="round" stroke-linejoin="round"/>
<path d="M330.29 208.4L331.314 217.962" stroke="black" stroke-width="1.5" stroke-linecap="round" stroke-linejoin="round"/>
<path d="M326.192 218.494L336.4 217.43" stroke="black" stroke-width="1.5" stroke-linecap="round" stroke-linejoin="round"/>
<path d="M246.77 247.712L259.028 253.442L256.826 227.41L245.708 235.15" stroke="black" stroke-width="1.5" stroke-linecap="round" stroke-linejoin="round"/>
<path d="M235.16 226.918C237.634 226.702 240.096 227.43 242.054 228.958C244.012 230.486 245.318 232.698 245.708 235.15L246.732 246.95C246.846 248.238 246.704 249.536 246.316 250.77C245.928 252.004 245.3 253.15 244.468 254.14C243.636 255.13 242.618 255.948 241.47 256.544C240.322 257.14 239.066 257.504 237.778 257.614L214.1 259.586C212.81 259.704 211.51 259.566 210.274 259.18C209.04 258.792 207.892 258.164 206.902 257.332C205.91 256.5 205.092 255.478 204.498 254.328C203.904 253.178 203.542 251.922 203.436 250.632L202.488 239.632C202.37 238.342 202.508 237.042 202.894 235.808C203.282 234.572 203.908 233.424 204.742 232.434C205.574 231.442 206.594 230.624 207.744 230.03C208.896 229.436 210.152 229.074 211.442 228.968L235.16 226.918Z" stroke="black" stroke-width="1.5" stroke-linecap="round" stroke-linejoin="round"/>
<path d="M300.578 30.356C300.342 27.4212 299.07 24.6662 296.988 22.584C294.906 20.5016 292.152 19.2279 289.216 18.9908C286.282 18.7536 283.358 19.5684 280.97 21.2894C278.58 23.0104 276.882 25.5252 276.178 28.384C279.294 29.8214 282.03 31.9658 284.172 34.647C286.314 37.328 287.8 40.4718 288.512 43.828C290.206 43.7888 291.874 43.4026 293.414 42.6932C294.954 41.984 296.33 40.9666 297.462 39.7042C298.592 38.4418 299.452 36.9608 299.988 35.353C300.524 33.7452 300.724 32.0444 300.578 30.356Z" stroke="black" stroke-width="1.5" stroke-linecap="round" stroke-linejoin="round"/>
<path d="M288.854 46.56C288.376 40.8114 285.664 35.4794 281.298 31.7086C276.934 27.9378 271.264 26.0288 265.506 26.3914C259.75 26.754 254.364 29.3592 250.506 33.648C246.65 37.9368 244.626 43.567 244.874 49.33C249.444 48.0912 254.142 47.3778 258.874 47.204C259.13 48.7584 259.484 50.2948 259.936 51.804C260.354 52.752 260.998 52.828 262.136 51.082C264.68 47.402 269.84 53.094 263.806 57.496C266.41 62.0032 269.718 66.0646 273.606 69.526C278.372 67.989 282.476 64.8806 285.246 60.7088C288.014 56.537 289.288 51.5488 288.854 46.56Z" stroke="black" stroke-width="1.5" stroke-linecap="round" stroke-linejoin="round"/>
<path d="M34.7657 174.628L42.6957 173.83" stroke="black" stroke-width="1.5" stroke-linecap="round" stroke-linejoin="round"/>
<path d="M56.7358 172.388L64.6678 171.592" stroke="black" stroke-width="1.5" stroke-linecap="round" stroke-linejoin="round"/>
<path d="M48.198 158.158L48.996 166.09" stroke="black" stroke-width="1.5" stroke-linecap="round" stroke-linejoin="round"/>
<path d="M50.438 180.13L51.234 188.06" stroke="black" stroke-width="1.5" stroke-linecap="round" stroke-linejoin="round"/>
<path d="M38.0677 163.624L44.2518 168.632" stroke="black" stroke-width="1.5" stroke-linecap="round" stroke-linejoin="round"/>
<path d="M55.1801 177.55L61.3661 182.596" stroke="black" stroke-width="1.5" stroke-linecap="round" stroke-linejoin="round"/>
<path d="M59.2038 161.46L54.1938 167.646" stroke="black" stroke-width="1.5" stroke-linecap="round" stroke-linejoin="round"/>
<path d="M45.276 178.574L40.23 184.76" stroke="black" stroke-width="1.5" stroke-linecap="round" stroke-linejoin="round"/>
<path d="M218.502 83.784L213.902 72.552C216.714 68.3714 218.074 63.3818 217.772 58.352C216.938 45.152 204.68 34.902 190.072 35.32C175.158 35.736 163.396 47.12 163.812 60.744C164.226 75.126 177.68 85.422 192.378 84.556C197.643 84.224 202.72 82.4728 207.07 79.488L218.502 83.784Z" stroke="black" stroke-width="1.5" stroke-linecap="round" stroke-linejoin="round"/>
<path d="M131.074 78.054C130.372 78.726 129.487 79.175 128.53 79.344C127.574 79.513 126.588 79.3946 125.699 79.0036C124.81 78.6126 124.056 77.9666 123.534 77.1472C123.012 76.328 122.744 75.3722 122.765 74.4008C122.786 73.4296 123.095 72.4862 123.652 71.6904C124.209 70.8944 124.989 70.2814 125.895 69.9292C126.8 69.577 127.79 69.5012 128.739 69.7112C129.687 69.9214 130.552 70.4082 131.224 71.11C132.122 72.0522 132.61 73.3118 132.582 74.613C132.554 75.9142 132.012 77.1514 131.074 78.054Z" stroke="black" stroke-width="1.5" stroke-linecap="round" stroke-linejoin="round"/>
<path d="M334.008 13.318L335.716 34.038" stroke="black" stroke-width="1.5" stroke-linecap="round" stroke-linejoin="round"/>
<path d="M345.24 22.804L324.522 24.55" stroke="black" stroke-width="1.5" stroke-linecap="round" stroke-linejoin="round"/>
<path d="M51.576 242.664C50.1318 240.894 48.268 239.512 46.154 238.644C42.474 237.314 38.864 238.49 34.576 239.706C25.936 242.106 16.674 247.318 11.814 243.72" stroke="black" stroke-width="1.5" stroke-linecap="round" stroke-linejoin="round"/>
<path d="M140.18 245.7L139.762 230.294" stroke="black" stroke-width="1.5" stroke-linecap="round" stroke-linejoin="round"/>
</svg>
