<svg width="1374" height="609" viewBox="0 0 1374 609" fill="none" xmlns="http://www.w3.org/2000/svg">
<g clip-path="url(#clip0_16_631)">
<rect width="1374" height="609" fill="white"/>
<path d="M739.53 466.06C821.362 466.06 887.7 457.092 887.7 446.03C887.7 434.968 821.362 426 739.53 426C657.698 426 591.36 434.968 591.36 446.03C591.36 457.092 657.698 466.06 739.53 466.06Z" fill="#E3E5FC"/>
<path d="M1026.99 563.83C1108.82 563.83 1175.16 554.862 1175.16 543.8C1175.16 532.738 1108.82 523.77 1026.99 523.77C945.158 523.77 878.82 532.738 878.82 543.8C878.82 554.862 945.158 563.83 1026.99 563.83Z" fill="#E3E5FC"/>
<path fill-rule="evenodd" clip-rule="evenodd" d="M892.4 273.65C895.9 252.99 897.65 228.29 897.65 199.57C897.65 146.67 890.99 105.77 877.69 76.88C869.98 60.24 860.57 46.28 849.45 34.98C838.32 23.68 825.41 15.1 810.7 9.22999C795.99 3.35999 779.61 0.429993 761.57 0.429993C734.25 0.429993 710.74 7.03999 691.03 20.26C671.32 33.48 656.3 52.7 645.97 77.92C640.01 93.16 635.63 111.37 632.83 132.56C630.03 153.76 628.63 177.58 628.63 204.02C628.63 224.51 629.9 243.56 632.44 261.16C634.97 278.76 638.96 294.83 644.39 309.37C655.08 336 670.97 356.84 692.08 371.9C713.19 386.96 737.05 394.49 763.67 394.49C786.79 394.49 807.81 388.89 826.72 377.68C845.64 366.48 861.05 350.54 872.96 329.87C882.42 313.06 888.89 294.32 892.4 273.65ZM819.88 115.62C823.73 136.03 825.66 162.26 825.66 194.31C825.66 228.11 823.82 255.44 820.14 276.27C816.46 297.12 810.06 313.14 800.96 324.35C791.85 335.56 779.24 341.16 763.13 341.16C747.54 341.16 735.19 335.77 726.09 325C716.98 314.23 710.5 298.34 706.65 277.32C702.8 256.3 700.87 229.33 700.87 196.4C700.87 147.89 705.38 111.98 714.4 88.69C723.42 65.4 739.49 53.75 762.61 53.75C778.72 53.75 791.33 58.96 800.44 69.38C809.55 79.81 816.02 95.22 819.88 115.62Z" fill="#978CFF"/>
<path fill-rule="evenodd" clip-rule="evenodd" d="M1069.18 420.86V469.73C1069.18 482.86 1072.2 492.8 1078.26 499.54C1084.3 506.28 1092.23 509.65 1102.04 509.65C1112.01 509.65 1119.99 506.37 1125.94 499.8C1131.89 493.23 1134.87 483.21 1134.87 469.72V420.85H1150.89C1164.2 420.85 1174.18 418.53 1180.84 413.89C1187.49 409.25 1190.82 401.85 1190.82 391.69C1190.82 379.26 1186.74 371.2 1178.6 367.52C1170.46 363.84 1159.64 362 1146.16 362H1134.86V158.65C1134.86 128.18 1121.55 112.94 1094.93 112.94C1086.69 112.94 1079.64 115.7 1073.78 121.22C1067.91 126.74 1060.42 135.63 1051.32 147.89L912.08 334.15C908.23 339.24 904.99 343.53 902.36 347.03C899.73 350.53 897.19 354.17 894.74 357.93C892.29 361.7 890.45 365.28 889.22 368.7C887.99 372.12 887.38 375.49 887.38 378.82C887.38 391.79 891.54 402.03 899.86 409.56C908.18 417.1 920.66 420.86 937.3 420.86H1069.18ZM1069.18 362.01H956.21L1069.18 209.37V362.01Z" fill="#978CFF"/>
<path d="M449.14 592.87C530.972 592.87 597.31 583.902 597.31 572.84C597.31 561.778 530.972 552.81 449.14 552.81C367.308 552.81 300.97 561.778 300.97 572.84C300.97 583.902 367.308 592.87 449.14 592.87Z" fill="#E3E5FC"/>
<path fill-rule="evenodd" clip-rule="evenodd" d="M493.26 452.7V501.57C493.26 514.7 496.28 524.65 502.33 531.38C508.38 538.12 516.3 541.49 526.11 541.49C536.1 541.49 544.06 538.21 550.02 531.64C555.97 525.07 558.95 515.05 558.95 501.56V452.69H574.97C588.28 452.69 598.26 450.37 604.92 445.73C611.57 441.09 614.9 433.69 614.9 423.53C614.9 411.1 610.82 403.04 602.68 399.36C594.53 395.68 583.72 393.84 570.23 393.84H558.93V190.49C558.93 160.02 545.62 144.78 519 144.78C510.76 144.78 503.72 147.54 497.85 153.06C491.98 158.58 484.5 167.47 475.39 179.73L336.15 365.99C332.3 371.08 329.06 375.37 326.43 378.87C323.8 382.37 321.26 386.01 318.81 389.77C316.35 393.54 314.51 397.12 313.29 400.54C312.06 403.96 311.45 407.33 311.45 410.66C311.45 423.63 315.61 433.87 323.93 441.4C332.25 448.94 344.73 452.7 361.37 452.7H493.26ZM493.26 393.85H380.29L493.26 241.21V393.85Z" fill="#978CFF"/>
<path d="M1154.09 354.8C1155.15 348.56 1156.6 341.95 1162.59 337.41C1170.19 331.68 1182.65 330.95 1193.01 333.02C1203.36 335.1 1212.69 339.58 1222.92 342.57C1225.67 343.37 1228.83 344.05 1231.48 343.01C1234.16 341.97 1235.44 339.51 1236.33 337.23C1246.14 310.99 1235.76 283.47 1235.93 257.05C1235.86 249.86 1236.79 241.92 1241.81 235.77C1254.84 218.86 1260 228.02 1271.98 209.41C1280.35 196.41 1282.13 172.03 1296.51 163.53C1326.24 145.94 1325.51 211.27 1327.65 226.25C1331.7 254.67 1371.16 253.23 1363.7 287.68C1360.46 302.64 1350.58 314.84 1344.08 328.26C1337.68 341.73 1335.59 359.26 1348.56 369.58C1357.01 376.3 1371.82 380.11 1372.97 389.92C1373.63 395.7 1368.52 400.31 1363.61 404.07C1351.36 413.5 1338.49 422.33 1325.03 430.55C1321.63 432.63 1318.01 434.84 1316.82 438.06C1315.18 442.46 1318.57 447.33 1321.06 451.91C1330.25 468.81 1326.35 487.43 1314.36 501.24C1302.46 515.07 1283.39 524.73 1263.66 532.98C1238.28 543.64 1211.46 552.49 1183.36 559.4C1100.92 576.07 1129.43 512.92 1132.94 490.14C1139.33 444.51 1146.38 399.39 1154.09 354.8Z" fill="#5A54FF"/>
<path d="M1204.29 535.39C1204.07 535.39 1203.84 535.35 1203.62 535.27C1202.65 534.9 1202.17 533.82 1202.54 532.85L1297.41 285.02C1297.78 284.05 1298.87 283.57 1299.83 283.94C1300.8 284.31 1301.28 285.39 1300.91 286.36L1206.04 534.19C1205.76 534.94 1205.05 535.39 1204.29 535.39Z" fill="white"/>
<path d="M1258.22 394.36C1257.57 394.36 1256.93 394.02 1256.59 393.4L1239.82 363.53C1239.31 362.63 1239.63 361.49 1240.53 360.98C1241.44 360.48 1242.58 360.79 1243.08 361.7L1259.85 391.57C1260.36 392.47 1260.04 393.61 1259.14 394.12C1258.84 394.28 1258.53 394.36 1258.22 394.36Z" fill="white"/>
<path d="M1272.02 359.37C1271.31 359.37 1270.64 358.97 1270.32 358.28C1269.89 357.34 1270.3 356.23 1271.23 355.79L1302.33 341.43C1303.27 341 1304.38 341.4 1304.82 342.35C1305.25 343.29 1304.84 344.4 1303.91 344.84L1272.81 359.2C1272.55 359.32 1272.28 359.37 1272.02 359.37Z" fill="white"/>
<path d="M1148.75 562.55C1141.32 561.56 1133.95 560.49 1128.06 555.93C1125.01 553.57 1122.65 548.79 1125.43 546.13C1126.83 544.79 1128.95 544.65 1130.84 544.23C1138.13 542.61 1133.05 536.6 1128.97 534.61C1121.78 531.11 1113.31 528.7 1108.99 521.97C1108.72 521.55 1108.46 521.08 1108.48 520.58C1108.52 519.83 1109.17 519.27 1109.8 518.86C1114.09 516.08 1122.35 517.69 1124.93 512.66C1131.23 500.37 1103.79 485.24 1097.25 478.92C1096 477.71 1094.69 476.4 1094.34 474.7C1093.65 471.4 1096.98 468.48 1100.3 467.88C1105.38 466.97 1110.6 469.18 1115.64 467.59C1119.61 466.34 1121.72 462.09 1122.09 458.18C1123.21 446.42 1115.99 434.91 1114.88 423.31C1113.97 413.82 1117.83 394.9 1131.18 397.41C1137.29 398.56 1140.1 405.44 1142.78 411.05C1145.27 416.25 1148.59 422.02 1152.75 426.02C1155.8 428.95 1159.95 431.03 1164.17 430.65C1172.36 429.9 1182.06 421.83 1184.13 434.94C1184.76 438.96 1183.91 443.05 1184.04 447.11C1184.17 451.17 1185.66 455.66 1189.33 457.42C1196.01 460.63 1212.93 449.48 1213.98 462.58C1214.25 465.86 1212.93 469.03 1211.83 472.13C1206.52 487.12 1220.45 484.41 1225.54 494.45C1227.37 498.06 1227.18 502.43 1225.93 506.28C1223.92 512.46 1219.64 517.8 1216.81 523.62C1211.06 535.44 1207.96 548.39 1205.73 561.27C1204.1 570.72 1204.18 588.65 1191.6 590.69C1183.84 591.95 1179.6 580.52 1176.2 575.58C1169.58 565.99 1159.7 564.01 1148.75 562.55Z" fill="#FDC510"/>
<path d="M1199.74 594.74C1198.97 594.74 1198.25 594.27 1197.98 593.5L1149.18 458.47C1148.83 457.5 1149.33 456.42 1150.31 456.07C1151.27 455.71 1152.36 456.22 1152.71 457.2L1201.51 592.23C1201.86 593.2 1201.36 594.28 1200.38 594.63C1200.17 594.7 1199.96 594.74 1199.74 594.74Z" fill="white"/>
<path d="M1166.65 500.84C1166.48 500.84 1166.31 500.82 1166.14 500.77C1165.14 500.49 1164.57 499.45 1164.85 498.46L1172.91 470.02C1173.19 469.02 1174.21 468.44 1175.23 468.73C1176.23 469.01 1176.8 470.05 1176.52 471.04L1168.46 499.48C1168.22 500.3 1167.46 500.84 1166.65 500.84Z" fill="white"/>
<path d="M1184.85 549.61C1184.68 549.61 1184.51 549.59 1184.34 549.54C1183.34 549.26 1182.77 548.22 1183.05 547.23L1191.11 518.79C1191.39 517.79 1192.42 517.2 1193.43 517.5C1194.43 517.78 1195 518.82 1194.72 519.81L1186.66 548.25C1186.42 549.07 1185.66 549.61 1184.85 549.61Z" fill="white"/>
<path d="M1173.72 527.51C1173.54 527.51 1173.36 527.48 1173.17 527.43L1145.41 519.02C1144.42 518.72 1143.86 517.67 1144.16 516.68C1144.46 515.69 1145.5 515.13 1146.5 515.43L1174.26 523.84C1175.25 524.14 1175.81 525.19 1175.51 526.18C1175.27 526.99 1174.53 527.51 1173.72 527.51Z" fill="white"/>
<path d="M850.68 499.72C850.94 499.73 851.2 499.79 851.47 499.94C852.3 500.39 852.61 501.42 852.81 502.35C854.62 510.85 854.57 508.77 853.67 519.92C855.57 512.96 854.82 514.18 858.37 507.89C859.06 506.67 859.83 505.42 861.03 504.68C868.79 499.93 861.28 520.98 859.96 523.4C855.09 532.36 845.62 534.58 836.43 531.28C828.37 528.38 820.67 522.11 817.78 513.9C817.52 513.16 817.33 512.23 817.88 511.67C818.26 511.28 818.86 511.23 819.4 511.23C824.27 511.22 828.83 513.7 832.55 516.83C836.27 519.96 839.35 523.79 842.85 527.16C845.33 529.55 850.81 529.41 854.23 529.83C860.05 530.53 862.35 528.28 867.4 525.3C868.5 524.65 869.7 524.06 870.98 524.07C872.26 524.08 873.61 524.89 873.85 526.14C873.99 526.89 873.73 527.65 873.41 528.34C869.27 537.08 858 535.91 853.03 528.93C848.29 522.28 845.24 511.2 847.51 503.22C847.98 501.61 849.25 499.69 850.68 499.72Z" fill="#A7ADFF"/>
<path d="M118.08 565.52C118.33 565.59 118.56 565.73 118.78 565.96C119.45 566.68 119.45 567.92 119.37 569.01C118.62 579.07 119.19 576.7 115.05 589.07C118.94 581.68 117.85 582.87 123.13 576.67C124.16 575.46 125.27 574.24 126.64 573.71C135.55 570.3 122.09 592.18 120.11 594.58C112.77 603.47 102.95 603.59 95.03 597.55C88.08 592.25 82.47 583.22 82.09 573.23C82.06 572.33 82.15 571.23 82.84 570.74C83.32 570.4 83.91 570.49 84.44 570.62C89.15 571.83 92.84 575.78 95.52 580.26C98.2 584.74 100.06 589.83 102.46 594.52C104.16 597.85 109.5 599.07 112.69 600.4C118.12 602.66 121 600.69 126.76 598.6C128.02 598.15 129.35 597.78 130.59 598.12C131.83 598.46 132.9 599.7 132.76 601.18C132.68 602.06 132.2 602.86 131.69 603.55C125.12 612.38 114.55 608.22 111.79 599.09C109.16 590.38 109.46 577.1 114 568.66C114.9 566.97 116.7 565.13 118.08 565.52Z" fill="#A7ADFF"/>
<path d="M623.64 431.45C624.45 423.19 624.43 415.53 627.14 407.47C628.05 404.75 629.35 401.85 631.93 400.61C632.42 400.37 633 400.21 633.49 400.43C633.92 400.62 634.19 401.05 634.41 401.48C648.45 428.38 610.77 443.51 593.58 423.28C592.52 422.03 591.52 420.6 591.37 418.96C591.1 415.96 593.96 413.37 596.95 413.02C599.94 412.67 602.87 414.03 605.34 415.74C611.88 420.27 616.23 427.25 620.39 434.02C614.59 425.3 611.6 414.75 611.95 404.29C612 402.72 612.53 400.71 614.1 400.58C614.85 400.52 615.54 400.95 616.14 401.41C620.42 404.7 622.83 409.97 623.73 415.3C624.63 420.62 624.16 426.08 623.64 431.45Z" fill="#FDC510"/>
<path d="M1088.64 606.55C1095.69 599.29 1101.5 591.94 1110.16 586.39C1113.08 584.52 1116.49 582.79 1119.84 583.67C1120.47 583.84 1121.14 584.14 1121.43 584.75C1121.69 585.28 1121.6 585.91 1121.49 586.49C1114.03 623.55 1067.49 607.73 1066.94 574.53C1066.91 572.47 1067.07 570.3 1068.18 568.62C1070.22 565.54 1074.85 565.35 1077.89 567.42C1080.93 569.49 1082.62 573.15 1083.61 576.78C1086.23 586.38 1084.96 596.56 1083.66 606.39C1084.92 593.38 1090.17 580.86 1098.47 571.12C1099.72 569.66 1101.74 568.16 1103.3 569.29C1104.05 569.83 1104.36 570.81 1104.56 571.73C1106.03 578.33 1104.25 585.32 1101.02 591.14C1097.81 596.97 1093.22 601.82 1088.64 606.55Z" fill="#FDC510"/>
<path d="M124.99 402.42C125.57 393.18 128.05 382.16 136.79 379.12C149.63 374.65 158.86 390.89 168.65 400.33C170.89 402.49 173.59 404.45 176.69 404.72C179.78 404.99 182.8 403.53 185.24 401.61C193.78 394.87 196.45 383.17 197.46 372.34C198.48 361.51 198.54 350.12 203.78 340.58C209.01 331.05 221.78 324.53 231 330.27C251.75 343.17 258.69 312.48 271.35 302.44C276.68 298.21 284.09 295.93 290.43 298.4C296.65 300.82 300.47 307.13 302.69 313.42C307.73 327.75 306.95 346.42 298.53 359.47C290.61 371.74 273.01 376.62 270.79 393C269.26 404.27 277.24 415.64 274.21 426.6C271.68 435.74 262.28 441.45 258.72 450.24C253.93 462.09 260.84 476.49 255.33 488.01C251.74 495.5 243.64 500 239.86 507.4C235.21 516.52 238.2 527.48 237.63 537.7C236.42 559.6 216.34 579.88 193.65 577.91C174.26 576.23 165.22 553.99 156.56 538.65C133.34 497.5 122.01 449.6 124.99 402.42Z" fill="#F44E4E"/>
<path d="M197.12 522.62C196.96 522.62 196.81 522.6 196.65 522.56C195.65 522.3 195.05 521.28 195.31 520.27L224.39 408.47C224.65 407.47 225.67 406.86 226.68 407.13C227.68 407.39 228.28 408.41 228.02 409.42L198.94 521.22C198.71 522.06 197.95 522.62 197.12 522.62Z" fill="white"/>
<path d="M214.12 457.24C213.56 457.24 213 456.99 212.63 456.51L189.03 425.74C188.4 424.92 188.56 423.74 189.38 423.11C190.2 422.48 191.38 422.64 192.01 423.46L215.61 454.23C216.24 455.05 216.08 456.23 215.26 456.86C214.92 457.11 214.52 457.24 214.12 457.24Z" fill="white"/>
<path d="M175.68 586.44C166.83 582.7 158.6 574.37 150.27 567.57C132.09 552.71 131.45 533.52 46.09 519.3C6.41005 512.69 35.69 470.05 13.71 436.22C6.77005 425.54 0.0700493 413.72 0.600049 400.99C1.13005 388.26 11.96 375.2 24.57 377.04C32.14 378.14 37.9901 383.96 44.43 388.09C50.87 392.22 60.2201 394.43 65.5601 388.96C61.5101 380.4 54.66 373.55 49.2901 365.75C43.9201 357.96 39.94 348.17 42.75 339.13C47.09 325.16 59.74 333.9 65.08 328.17C72.25 320.49 70.38 300.01 75.68 289.43C88.11 264.62 131.61 255.03 147.85 281.87C166.65 312.94 154.56 355.57 145.44 390.88C132.76 439.97 181.77 456.46 197.79 490.34C209.33 514.77 226.36 559.01 201.36 581.12C191.97 589.45 183.58 589.77 175.68 586.44Z" fill="#978CFF"/>
<path d="M195.79 597.09C195.11 597.09 194.46 596.72 194.13 596.08L111.12 437.21C110.64 436.29 111 435.16 111.91 434.68C112.82 434.2 113.96 434.56 114.44 435.47L197.45 594.34C197.93 595.26 197.57 596.39 196.66 596.87C196.38 597.03 196.09 597.09 195.79 597.09Z" fill="white"/>
<path d="M154.28 522.07C153.95 522.07 153.61 521.98 153.31 521.8L92.61 484.82C91.73 484.28 91.45 483.13 91.98 482.24C92.52 481.36 93.67 481.08 94.56 481.61L155.26 518.59C156.14 519.13 156.42 520.28 155.89 521.17C155.53 521.75 154.92 522.07 154.28 522.07Z" fill="white"/>
<path d="M131.45 474.68C131.12 474.68 130.78 474.59 130.48 474.41L69.78 437.43C68.9 436.89 68.62 435.74 69.15 434.85C69.69 433.97 70.84 433.69 71.73 434.22L132.43 471.2C133.31 471.74 133.59 472.89 133.06 473.78C132.7 474.36 132.08 474.68 131.45 474.68Z" fill="white"/>
<path d="M171.45 554.92C171.33 554.92 171.2 554.91 171.07 554.88C170.06 554.68 169.4 553.69 169.61 552.67L181.32 495.11C181.52 494.1 182.51 493.45 183.53 493.65C184.54 493.85 185.2 494.84 184.99 495.86L173.28 553.42C173.11 554.31 172.32 554.92 171.45 554.92Z" fill="white"/>
<path d="M1358.74 548.85C1363.13 541.99 1366.91 534.04 1367.88 525.15C1368.11 523 1368.14 520.63 1367.16 518.89C1366.31 517.38 1364.88 516.67 1363.49 516.28C1353.63 513.5 1344.38 523.03 1337.27 532.46C1324.7 549.12 1313.48 567.55 1303.86 587.34C1309.62 575.5 1312.65 552.79 1311.28 538.87C1311.23 538.32 1311.14 537.73 1310.82 537.38C1310.49 537.03 1310.02 537.05 1309.6 537.15C1306.57 537.92 1304.66 541.81 1303.2 545.41C1298.7 556.56 1294.79 569.44 1292.18 581.95C1293.82 574.09 1288.97 564.63 1284.57 559.95C1276.7 551.58 1278.38 563.26 1280.09 570.12C1281.76 576.85 1292.89 603.17 1300.82 597.29C1302.27 596.21 1302.63 590.33 1303.82 588.44C1305.9 585.16 1308.79 584.08 1311.77 582.86C1319.77 579.58 1328.1 578.23 1335.62 573.07C1344.41 567.05 1352.35 558.84 1358.74 548.85Z" fill="#F44E4E"/>
<path d="M341.81 509.74C342.07 509.7 342.34 509.73 342.62 509.83C343.51 510.15 343.98 511.11 344.32 512C347.44 520.11 347.07 518.06 347.94 529.21C348.72 522.03 348.17 523.36 350.69 516.59C351.18 515.27 351.74 513.92 352.81 513C359.73 507.09 355.62 529.06 354.7 531.65C351.3 541.26 342.3 544.94 332.7 543.13C324.29 541.54 315.69 536.55 311.55 528.9C311.18 528.21 310.84 527.32 311.3 526.68C311.61 526.24 312.19 526.09 312.73 526.01C317.53 525.24 322.43 526.96 326.6 529.47C330.77 531.98 334.41 535.27 338.4 538.05C341.23 540.02 346.61 539.02 350.06 538.89C355.92 538.67 357.83 536.08 362.35 532.35C363.34 531.54 364.43 530.76 365.7 530.58C366.97 530.4 368.43 530.97 368.86 532.17C369.12 532.89 368.98 533.68 368.77 534.41C366.06 543.69 354.74 544.31 348.74 538.2C343.01 532.37 338.25 521.92 339.24 513.68C339.43 512.03 340.39 509.94 341.81 509.74Z" fill="#978CFF"/>
</g>
<defs>
<clipPath id="clip0_16_631">
<rect width="1374" height="609" fill="white"/>
</clipPath>
</defs>
</svg>
