<svg width="277" height="285" viewBox="0 0 277 285" fill="none" xmlns="http://www.w3.org/2000/svg">
<g clip-path="url(#clip0_601_285)">
<path d="M237.277 23.8623H189.548V85.4851H261.143V47.7285C261.143 41.3988 258.628 35.3283 254.153 30.8526C249.677 26.3768 243.606 23.8623 237.277 23.8623Z" fill="#7296A3"/>
<path d="M237.277 55.4838V12.0304C237.278 10.9226 237.718 9.86041 238.502 9.07737C239.286 8.29434 240.348 7.85449 241.456 7.85449H250.195C250.499 7.85449 250.792 7.97554 251.007 8.19101C251.223 8.40648 251.344 8.69871 251.344 9.00343V11.0951C251.344 12.2212 250.896 13.3011 250.1 14.0974C249.304 14.8937 248.224 15.341 247.098 15.341H237.277" fill="#5BC0C3"/>
<path d="M261.143 85.4851V47.7285C261.143 41.3988 258.628 35.3283 254.153 30.8526C249.677 26.3768 243.606 23.8623 237.277 23.8623" stroke="#2B4257" stroke-width="2" stroke-miterlimit="10" stroke-linecap="round"/>
<path d="M161.859 85.4851H261.471" stroke="#2B4257" stroke-width="2" stroke-miterlimit="10" stroke-linecap="round"/>
<path d="M189.548 23.8623C195.877 23.8623 201.946 26.3764 206.421 30.8515C210.896 35.3266 213.41 41.3961 213.41 47.7248V85.4851H165.685V47.7285C165.685 44.5945 166.302 41.4912 167.501 38.5956C168.7 35.7 170.457 33.069 172.673 30.8528C174.889 28.6366 177.52 26.8785 180.415 25.6791C183.311 24.4796 186.414 23.8623 189.548 23.8623Z" fill="#2B4257"/>
<path d="M165.151 124.475C155.035 124.475 148.801 113.428 154.034 104.763L165.685 85.4851H213.414L202.617 103.356C198.717 109.803 193.22 115.134 186.656 118.834C180.093 122.534 172.686 124.477 165.151 124.475Z" fill="#40697F"/>
<path d="M202.617 103.356C198.719 109.805 193.222 115.138 186.658 118.84C180.095 122.542 172.687 124.487 165.151 124.487C155.035 124.487 148.801 113.439 154.034 104.774" stroke="#2B4257" stroke-width="2" stroke-miterlimit="10" stroke-linecap="round"/>
<path d="M116.808 62.628C116.808 62.628 136.45 55.1378 140.376 55.5061C144.301 55.8743 134.241 61.0298 134.241 61.0298C134.241 61.0298 136.572 77.7262 117.791 75.6382" fill="#FBC2A5"/>
<path d="M140.375 55.5061C144.305 55.8744 134.24 61.0298 134.24 61.0298C134.24 61.0298 136.571 77.7263 117.791 75.6383" stroke="#2B4257" stroke-width="2" stroke-miterlimit="10" stroke-linecap="round"/>
<path d="M48.9467 49.9824C48.9467 49.9824 59.3607 69.9121 120.49 68.1702" stroke="#628ECC" stroke-width="20" stroke-miterlimit="10"/>
<path d="M167.913 71.9446H124.46C122.985 71.9446 121.79 73.1399 121.79 74.6144V96.3485C121.79 97.8229 122.985 99.0183 124.46 99.0183H167.913C169.388 99.0183 170.583 97.8229 170.583 96.3485V74.6144C170.583 73.1399 169.388 71.9446 167.913 71.9446Z" fill="#CAAF95"/>
<path d="M167.913 71.9446C168.621 71.9456 169.299 72.2272 169.8 72.7276C170.3 73.2281 170.582 73.9066 170.583 74.6144V96.3411C170.582 97.0489 170.3 97.7274 169.8 98.2278C169.299 98.7283 168.621 99.0099 167.913 99.0109H124.46C123.752 99.0099 123.073 98.7283 122.573 98.2278C122.072 97.7274 121.791 97.0489 121.79 96.3411" stroke="#2B4257" stroke-width="2" stroke-miterlimit="10" stroke-linecap="round"/>
<path d="M121.79 96.3596V74.6329C121.791 73.9252 122.072 73.2467 122.573 72.7462C123.073 72.2457 123.752 71.9641 124.46 71.9631H167.913" stroke="#FFF1D7" stroke-width="2" stroke-miterlimit="10" stroke-linecap="round"/>
<path d="M132.462 76.4778H127.873C127.31 76.4778 126.853 76.9345 126.853 77.4978V80.0645C126.853 80.6279 127.31 81.0846 127.873 81.0846H132.462C133.025 81.0846 133.482 80.6279 133.482 80.0645V77.4978C133.482 76.9345 133.025 76.4778 132.462 76.4778Z" fill="#FDEED9"/>
<path d="M132.462 76.4778H127.873C127.31 76.4778 126.853 76.9345 126.853 77.4978V80.0645C126.853 80.6279 127.31 81.0846 127.873 81.0846H132.462C133.025 81.0846 133.482 80.6279 133.482 80.0645V77.4978C133.482 76.9345 133.025 76.4778 132.462 76.4778Z" fill="#FDEED9"/>
<path d="M127.873 81.0846C127.603 81.0846 127.343 80.9772 127.152 80.7859C126.961 80.5946 126.853 80.3351 126.853 80.0646V77.4868C126.853 77.2163 126.961 76.9569 127.152 76.7656C127.343 76.5743 127.603 76.4668 127.873 76.4668H132.462C132.732 76.4668 132.992 76.5743 133.183 76.7656C133.374 76.9569 133.482 77.2163 133.482 77.4868" stroke="#2B4257" stroke-width="2" stroke-miterlimit="10" stroke-linecap="round"/>
<path d="M145.325 248.273C139.256 251.632 139.09 241.133 139.09 241.133L120.505 248.384L130.23 267.934L159.245 248.885C158.081 249.647 155.986 242.374 145.325 248.273Z" fill="#5BC0C3"/>
<path d="M146.474 247.673C146.053 249.15 145.84 250.678 145.84 252.214C145.837 253.899 146.094 255.575 146.603 257.181L159.245 248.885C158.125 249.617 156.137 242.923 146.474 247.673Z" fill="#628ECC"/>
<path d="M130.23 267.934L159.245 248.885" stroke="#2B4257" stroke-width="2" stroke-miterlimit="10" stroke-linecap="round"/>
<path d="M120.505 248.384L130.23 267.934" stroke="#2B4257" stroke-width="2" stroke-miterlimit="10" stroke-linecap="round"/>
<path d="M139.274 249.492L142.368 247.459" stroke="#2B4257" stroke-width="2" stroke-miterlimit="10" stroke-linecap="round"/>
<path d="M141.985 250.247L145.078 248.214" stroke="#2B4257" stroke-width="2" stroke-miterlimit="10" stroke-linecap="round"/>
<path d="M42.4323 105.632C42.4323 105.632 98.0747 162.177 130.293 246.138" stroke="#1D2537" stroke-width="30" stroke-miterlimit="10"/>
<path d="M126.305 90.9574C124 88.1661 119.021 87.68 114.153 90.9574C109.284 94.2348 99.0543 93.2221 99.0543 93.2221L93.9835 104.362C102.24 107.275 108.087 104.314 118.288 103.949C128.488 103.585 125.473 94.1501 125.473 94.1501C125.473 94.1501 127.885 95.9914 129.707 95.2549C131.53 94.5184 128.614 93.7487 126.305 90.9574Z" fill="#FBC2A5"/>
<path d="M129.707 95.2548C131.53 94.5183 128.603 93.756 126.305 90.9647C124.007 88.1734 119.021 87.6873 114.153 90.9647C109.284 94.2421 99.0543 93.2295 99.0543 93.2295" stroke="#FFF1D7" stroke-width="2" stroke-miterlimit="10" stroke-linecap="round"/>
<path d="M93.9872 104.362C102.243 107.275 108.091 104.314 118.292 103.949C128.492 103.585 125.472 94.1501 125.472 94.1501" stroke="#2B4257" stroke-width="2" stroke-miterlimit="10" stroke-linecap="round"/>
<path d="M62.1336 275.966C55.2216 275.443 60.8447 266.575 60.8447 266.575L41.3275 262.433L38.724 284.115H73.4352C72.0469 284.115 74.2858 276.886 62.1336 275.966Z" fill="#5BC0C3"/>
<path d="M73.4352 284.115C72.1058 284.115 74.098 277.487 63.6103 276.117C60.6054 278.009 58.4806 280.849 57.8435 284.115H73.4352Z" fill="#628ECC"/>
<path d="M41.3275 262.433L38.724 284.115" stroke="#2B4257" stroke-width="2" stroke-miterlimit="10" stroke-linecap="round"/>
<path d="M32.9572 4.74292C32.9572 4.74292 23.4196 7.17705 31.2338 16.4901C39.048 25.8031 40.9408 13.4226 40.9408 13.4226L32.9572 4.74292Z" fill="#2B4257"/>
<path d="M124.964 120.866C122.586 120.866 120.305 121.811 118.624 123.493C116.942 125.174 115.997 127.455 115.997 129.833H133.931C133.931 127.455 132.986 125.174 131.305 123.493C129.623 121.811 127.342 120.866 124.964 120.866Z" fill="#EFEEED"/>
<path d="M114.698 124.601C113.31 124.601 111.979 125.152 110.997 126.133C110.016 127.115 109.465 128.446 109.465 129.833H119.93C119.929 128.446 119.378 127.115 118.397 126.134C117.415 125.153 116.085 124.602 114.698 124.601Z" fill="#EFEEED"/>
<path d="M260.9 110.125C263.277 110.128 265.556 111.074 267.236 112.756C268.916 114.438 269.859 116.718 269.859 119.095H251.933C251.933 116.717 252.877 114.436 254.559 112.753C256.24 111.071 258.521 110.126 260.9 110.125Z" fill="#EFEEED"/>
<path d="M271.17 113.863C272.558 113.863 273.889 114.414 274.87 115.395C275.852 116.377 276.403 117.708 276.403 119.095H265.937C265.937 117.708 266.489 116.377 267.47 115.395C268.451 114.414 269.782 113.863 271.17 113.863Z" fill="#EFEEED"/>
<path d="M245.227 108.637C246.601 108.636 247.961 108.907 249.23 109.432C250.499 109.957 251.652 110.728 252.623 111.699C253.594 112.67 254.365 113.823 254.89 115.092C255.416 116.362 255.686 117.722 255.685 119.095H234.772C234.772 117.722 235.042 116.362 235.567 115.093C236.092 113.824 236.862 112.672 237.833 111.7C238.804 110.729 239.957 109.959 241.225 109.433C242.494 108.908 243.854 108.637 245.227 108.637Z" fill="#EFEEED"/>
<path d="M116.918 2.2019C120.043 2.2019 123.041 3.44343 125.251 5.65335C127.46 7.86327 128.702 10.8606 128.702 13.9859H105.134C105.134 10.8606 106.376 7.86327 108.585 5.65335C110.795 3.44343 113.793 2.2019 116.918 2.2019Z" fill="#EFEEED"/>
<path d="M130.407 7.11085C131.31 7.1094 132.205 7.28606 133.04 7.63074C133.875 7.97542 134.634 8.48134 135.273 9.11956C135.912 9.75779 136.419 10.5158 136.766 11.3502C137.112 12.1846 137.29 13.0791 137.29 13.9824H123.536C123.535 13.0799 123.712 12.1861 124.058 11.3522C124.403 10.5183 124.909 9.76057 125.547 9.12239C126.185 8.48422 126.943 7.97808 127.777 7.63293C128.611 7.28777 129.505 7.11036 130.407 7.11085Z" fill="#EFEEED"/>
<path d="M96.3329 0.246582C99.9758 0.246582 103.47 1.69373 106.045 4.26967C108.621 6.84561 110.069 10.3393 110.069 13.9823H82.5972C82.5972 10.3393 84.0443 6.84561 86.6203 4.26967C89.1962 1.69373 92.6899 0.246582 96.3329 0.246582V0.246582Z" fill="#EFEEED"/>
<path d="M209.757 157.721C207.417 157.726 205.173 158.659 203.52 160.316C201.866 161.973 200.938 164.218 200.938 166.559H218.581C218.581 164.217 217.651 161.972 215.997 160.315C214.343 158.658 212.099 157.725 209.757 157.721Z" fill="#EFEEED"/>
<path d="M199.656 161.396C198.289 161.396 196.978 161.939 196.011 162.906C195.044 163.873 194.501 165.184 194.501 166.551H204.812C204.812 165.184 204.269 163.873 203.302 162.906C202.335 161.939 201.024 161.396 199.656 161.396Z" fill="#EFEEED"/>
<path d="M225.176 156.259C223.825 156.259 222.487 156.524 221.239 157.041C219.991 157.558 218.857 158.315 217.902 159.27C216.947 160.226 216.189 161.36 215.673 162.608C215.156 163.856 214.89 165.193 214.891 166.544H235.461C235.461 163.816 234.378 161.2 232.449 159.271C230.52 157.343 227.904 156.259 225.176 156.259Z" fill="#EFEEED"/>
<path d="M0.669189 284.115H112.146" stroke="#2B4257" stroke-width="2" stroke-miterlimit="10" stroke-linecap="round"/>
<path d="M119.415 284.115H123.536" stroke="#2B4257" stroke-width="2" stroke-miterlimit="10" stroke-linecap="round"/>
<path d="M53.3067 43.3096L38.9192 43.4863V28.6864L53.3067 27.0735V43.3096Z" fill="#FBC2A5"/>
<path d="M53.3066 27.0735V43.3096" stroke="#2B4257" stroke-width="2" stroke-miterlimit="10" stroke-linecap="round"/>
<path d="M32.6111 7.03345L34.7469 23.8624H30.1401L32.6111 7.03345Z" fill="#F39B92"/>
<path d="M34.7469 23.8623H30.1401" stroke="#2B4257" stroke-width="2" stroke-miterlimit="10" stroke-linecap="round"/>
<path d="M38.9192 43.4865V28.6865" stroke="#FFF1D7" stroke-width="2" stroke-miterlimit="10" stroke-linecap="round"/>
<path d="M41.2686 33.7019H40.197C38.1834 33.697 36.2539 32.8937 34.8318 31.4681C33.4097 30.0426 32.611 28.1112 32.611 26.0976V7.03331L50.287 7.03331C50.7154 7.03234 51.1398 7.11594 51.5359 7.27934C51.9319 7.44273 52.2918 7.68269 52.5949 7.98546C52.898 8.28823 53.1384 8.64786 53.3022 9.04372C53.4661 9.43958 53.5502 9.86388 53.5497 10.2923V21.4171C53.5497 24.6743 52.2558 27.798 49.9526 30.1012C47.6495 32.4043 44.5257 33.6982 41.2686 33.6982V33.7019Z" fill="#FBC2A5"/>
<path d="M39.1843 19.344C39.1126 19.282 39.0461 19.2143 38.9855 19.1414C38.8966 19.0337 38.7836 18.9482 38.6557 18.8919C38.5278 18.8357 38.3885 18.8101 38.249 18.8174H34.6586V21.373C34.6586 21.7357 34.73 22.0948 34.8688 22.4299C35.0076 22.765 35.211 23.0695 35.4675 23.3259C35.724 23.5824 36.0284 23.7858 36.3635 23.9246C36.6986 24.0634 37.0577 24.1349 37.4204 24.1349C37.7834 24.1354 38.143 24.0643 38.4785 23.9257C38.814 23.7871 39.1189 23.5838 39.3758 23.3273C39.6326 23.0707 39.8364 22.7661 39.9754 22.4308C40.1144 22.0955 40.186 21.736 40.186 21.373C40.1863 20.9806 40.0961 20.5933 39.9224 20.2414C39.7486 19.8895 39.4961 19.5824 39.1843 19.344Z" fill="#F4AB9D"/>
<path d="M31.7898 23.8144C31.7898 23.8144 28.6082 34.1254 34.1798 37.0714C39.7514 40.0174 49.2338 34.9687 47.5141 25.7035C45.8827 16.9024 48.6188 23.0521 49.9887 18.8099C49.9887 18.8099 49.3995 26.2154 53.5092 29.7064C53.5092 29.7064 61.3934 9.85778 54.1647 6.72766C46.9359 3.59755 30.7293 2.4928 29.8087 7.28004C28.888 12.0673 33.1229 13.7391 41.5926 15.4404C45.3304 16.1769 46.3799 27.1986 42.76 25.7698C39.1401 24.341 36.0578 23.3909 31.7898 23.8144Z" fill="#2B4257"/>
<path d="M30.5526 11.1541C32.1582 13.1942 35.9143 14.3136 41.5448 15.4478C45.2826 16.1843 46.3321 27.206 42.7122 25.7772" stroke="#586977" stroke-width="2" stroke-miterlimit="10" stroke-linecap="round"/>
<path d="M54.1463 6.73523C46.9139 3.60512 30.7109 2.50037 29.7903 7.28761" stroke="#586977" stroke-width="2" stroke-miterlimit="10" stroke-linecap="round"/>
<path d="M32.9572 4.74292C32.9572 4.74292 23.4196 7.17705 31.2338 16.4901" stroke="#586977" stroke-width="2" stroke-miterlimit="10" stroke-linecap="round"/>
<path d="M34.1798 37.0715C39.733 40.0175 49.2338 34.9688 47.5141 25.7036L34.1798 37.0715Z" fill="#2B4257"/>
<path d="M31.4548 25.1145C30.814 27.9832 29.8308 34.77 34.1798 37.0716" stroke="#586977" stroke-width="2" stroke-miterlimit="10" stroke-linecap="round"/>
<path d="M34.1798 37.0715C39.733 40.0175 49.2338 34.9688 47.5141 25.7036" stroke="#2B4257" stroke-width="2" stroke-miterlimit="10" stroke-linecap="round"/>
<path d="M39.2249 19.1083C39.0334 18.0772 38.0244 17.4475 36.7502 17.6538C35.9406 17.7963 35.2033 18.2091 34.6586 18.8248C34.8501 19.8559 35.8554 20.4856 37.1295 20.2794C37.941 20.1393 38.6803 19.7261 39.2249 19.1083Z" fill="#F7F7F7"/>
<path d="M34.6586 18.8247C34.8501 19.8558 35.8554 20.4855 37.1295 20.2793C37.941 20.1392 38.6803 19.726 39.2249 19.1083" stroke="#2B4257" stroke-width="2" stroke-miterlimit="10" stroke-linecap="round"/>
<path d="M36.4114 19.3072C36.5497 19.3072 36.6618 19.1654 36.6618 18.9905C36.6618 18.8156 36.5497 18.6738 36.4114 18.6738C36.2731 18.6738 36.161 18.8156 36.161 18.9905C36.161 19.1654 36.2731 19.3072 36.4114 19.3072Z" fill="#2B4257"/>
<path d="M40.186 24.0502C41.2436 24.0502 42.1009 23.1929 42.1009 22.1354C42.1009 21.0778 41.2436 20.2205 40.186 20.2205C39.1284 20.2205 38.2711 21.0778 38.2711 22.1354C38.2711 23.1929 39.1284 24.0502 40.186 24.0502Z" fill="#E57873"/>
<path d="M34.5481 16.6778C35.0435 16.2314 35.648 15.9237 36.3004 15.786C36.9529 15.6482 37.6302 15.6853 38.2637 15.8934" stroke="#2B4257" stroke-width="2" stroke-miterlimit="10" stroke-linecap="round"/>
<path d="M38.0244 25.6558C37.523 26.0944 36.915 26.3933 36.2615 26.5226C35.608 26.6518 34.932 26.6069 34.3014 26.3923" stroke="#FFF1D7" stroke-width="2" stroke-miterlimit="10" stroke-linecap="round"/>
<path d="M50.1435 24.8456C51.8905 24.8456 53.3067 23.4293 53.3067 21.6823C53.3067 19.9353 51.8905 18.519 50.1435 18.519C48.3965 18.519 46.9802 19.9353 46.9802 21.6823C46.9802 23.4293 48.3965 24.8456 50.1435 24.8456Z" fill="#FBC2A5"/>
<path d="M50.1434 23.3026C51.0382 23.3026 51.7637 22.5772 51.7637 21.6823C51.7637 20.7874 51.0382 20.062 50.1434 20.062C49.2485 20.062 48.5231 20.7874 48.5231 21.6823C48.5231 22.5772 49.2485 23.3026 50.1434 23.3026Z" fill="#F4AB9D"/>
<path d="M26.5533 96.4663H64.5235V101.147C64.5235 103.64 64.0325 106.108 63.0785 108.411C62.1245 110.714 60.7262 112.807 58.9634 114.57C57.2007 116.333 55.108 117.731 52.8048 118.685C50.5017 119.639 48.0332 120.13 45.5403 120.13C43.047 120.13 40.5781 119.64 38.2746 118.686C35.971 117.732 33.8779 116.334 32.1147 114.571C30.3516 112.808 28.9529 110.716 27.9987 108.412C27.0445 106.109 26.5533 103.64 26.5533 101.147V96.4663Z" fill="#1D2537"/>
<path d="M45.5366 39.8774C48.0295 39.8774 50.498 40.3685 52.8012 41.3225C55.1043 42.2764 57.197 43.6747 58.9598 45.4375C60.7225 47.2003 62.1208 49.293 63.0748 51.5961C64.0288 53.8993 64.5198 56.3678 64.5198 58.8607V96.4663H26.5533V58.8607C26.5533 53.826 28.5534 48.9976 32.1134 45.4375C35.6735 41.8775 40.5019 39.8774 45.5366 39.8774Z" fill="#628ECC"/>
<path d="M64.5235 64.0715L60.2334 68.3616L53.4245 61.5564L46.6192 68.3616L39.814 61.5564L33.0051 68.3616L26.5533 61.9099V80.4402L33.0051 73.9885L39.814 80.7937L46.6192 73.9885L53.4245 80.7937L60.2334 73.9885L64.5235 78.2749V64.0715Z" fill="#5BC0C3"/>
<path d="M45.5366 39.8774C40.5019 39.8774 35.6735 41.8775 32.1134 45.4375C28.5534 48.9976 26.5533 53.826 26.5533 58.8607V96.4663" stroke="#2B4257" stroke-width="2" stroke-miterlimit="10" stroke-linecap="round"/>
<path d="M52.8537 75.3952C58.9445 84.1227 67.4106 92.9902 63.5329 95.6857C59.6553 98.3813 44.94 93.8887 38.8602 85.1612C32.7804 76.4337 30.9613 67.1759 34.8095 64.4803C38.6577 61.7847 46.7628 66.6714 52.8537 75.3952Z" fill="#1D2537"/>
<path d="M64.5235 96.4663V58.8607C64.5257 56.4997 64.0861 54.159 63.2273 51.9597" stroke="#FFF1D7" stroke-width="2" stroke-miterlimit="10" stroke-linecap="round"/>
<path d="M32.379 45.88L34.4854 38.8833L56.5214 39.8334C56.6913 39.838 56.8569 39.8871 57.0019 39.9757C57.1468 40.0643 57.266 40.1893 57.3476 40.3383C57.4292 40.4873 57.4703 40.6551 57.4668 40.825C57.4634 40.9948 57.4155 41.1608 57.3279 41.3064L53.94 47.2904" fill="#628ECC"/>
<path d="M34.4855 38.8833L56.5215 39.8334C56.6913 39.838 56.857 39.8871 57.0019 39.9757C57.1469 40.0643 57.2661 40.1893 57.3477 40.3383C57.4292 40.4873 57.4704 40.6551 57.4669 40.825C57.4634 40.9948 57.4155 41.1608 57.328 41.3064L53.9401 47.2904" stroke="#FFF1D7" stroke-width="2" stroke-miterlimit="10" stroke-linecap="round"/>
<path d="M32.379 45.88L34.4854 38.8833" stroke="#2B4257" stroke-width="2" stroke-miterlimit="10" stroke-linecap="round"/>
<path d="M35.5239 56.5039C35.5239 56.5039 54.6103 99.589 106.508 99.589" stroke="#628ECC" stroke-width="20" stroke-miterlimit="10"/>
<path d="M65.6983 271.138L36.7576 265.754C48.0628 205.152 31.2338 111.9 31.0681 110.964L60.0456 105.651C60.7674 109.665 78.0015 205.141 65.6983 271.138Z" fill="#1D2537"/>
<path d="M60.0272 105.632C60.7637 109.664 78.0088 205.14 65.6983 271.138" stroke="#FFF1D7" stroke-width="2" stroke-miterlimit="10" stroke-linecap="round"/>
<path d="M56.4073 273.664H60.1083" stroke="#2B4257" stroke-width="2" stroke-miterlimit="10" stroke-linecap="round"/>
<path d="M58.2596 275.782H61.9605" stroke="#2B4257" stroke-width="2" stroke-miterlimit="10" stroke-linecap="round"/>
<path d="M143.528 92.5739C146.9 92.5739 149.633 90.9862 149.633 89.0277C149.633 87.0691 146.9 85.4814 143.528 85.4814C140.156 85.4814 137.422 87.0691 137.422 89.0277C137.422 90.9862 140.156 92.5739 143.528 92.5739Z" fill="white"/>
<path d="M137.422 89.0278C138.037 90.1048 138.925 91 139.998 91.6227C141.07 92.2453 142.288 92.5733 143.528 92.5733C144.768 92.5733 145.986 92.2453 147.058 91.6227C148.13 91 149.019 90.1048 149.633 89.0278" stroke="#2B4257" stroke-width="2" stroke-miterlimit="10" stroke-linecap="round"/>
<path d="M142.445 88.6779C142.858 88.6779 143.193 88.0992 143.193 87.3853C143.193 86.6715 142.858 86.0928 142.445 86.0928C142.032 86.0928 141.698 86.6715 141.698 87.3853C141.698 88.0992 142.032 88.6779 142.445 88.6779Z" fill="#354B5F"/>
<path d="M159.58 92.5739C162.952 92.5739 165.685 90.9862 165.685 89.0277C165.685 87.0691 162.952 85.4814 159.58 85.4814C156.208 85.4814 153.474 87.0691 153.474 89.0277C153.474 90.9862 156.208 92.5739 159.58 92.5739Z" fill="white"/>
<path d="M153.493 89.0278C154.107 90.1048 154.996 91 156.068 91.6227C157.14 92.2453 158.358 92.5733 159.598 92.5733C160.838 92.5733 162.056 92.2453 163.128 91.6227C164.201 91 165.089 90.1048 165.704 89.0278" stroke="#2B4257" stroke-width="2" stroke-miterlimit="10" stroke-linecap="round"/>
<path d="M158.501 88.6779C158.914 88.6779 159.248 88.0992 159.248 87.3853C159.248 86.6715 158.914 86.0928 158.501 86.0928C158.088 86.0928 157.753 86.6715 157.753 87.3853C157.753 88.0992 158.088 88.6779 158.501 88.6779Z" fill="#354B5F"/>
<path d="M189.548 49.9822C194.254 49.9822 198.069 47.768 198.069 45.0367C198.069 42.3053 194.254 40.0911 189.548 40.0911C184.842 40.0911 181.026 42.3053 181.026 45.0367C181.026 47.768 184.842 49.9822 189.548 49.9822Z" fill="white"/>
<path d="M181.03 45.0366C181.888 46.5391 183.128 47.788 184.624 48.6566C186.12 49.5253 187.82 49.9828 189.55 49.9828C191.28 49.9828 192.979 49.5253 194.475 48.6566C195.971 47.788 197.211 46.5391 198.069 45.0366" stroke="#2B4257" stroke-width="2" stroke-miterlimit="10" stroke-linecap="round"/>
<path d="M187.526 47.8207C188.104 47.8207 188.572 47.0145 188.572 46.02C188.572 45.0255 188.104 44.2192 187.526 44.2192C186.948 44.2192 186.48 45.0255 186.48 46.02C186.48 47.0145 186.948 47.8207 187.526 47.8207Z" fill="#354B5F"/>
<path d="M127.888 68.2806C126.691 68.1812 125.207 65.6624 125.207 65.6624C125.207 65.6624 125.126 69.9304 122.733 70.0224" stroke="#2B4257" stroke-width="2" stroke-miterlimit="10" stroke-linecap="round"/>
<path d="M121.79 62.7494C121.79 62.7494 125.126 60.1717 127.796 62.0129" stroke="#2B4257" stroke-width="2" stroke-miterlimit="10" stroke-linecap="round"/>
<path d="M127.796 62.0129C130.466 63.8542 129.085 68.3763 127.888 68.2732" stroke="#FFF1D7" stroke-width="2" stroke-miterlimit="10" stroke-linecap="round"/>
<path d="M237.277 55.4838V12.0304C237.278 10.9226 237.718 9.86041 238.502 9.07737C239.286 8.29434 240.348 7.85449 241.456 7.85449H250.195C250.499 7.85449 250.792 7.97554 251.007 8.19101C251.223 8.40648 251.344 8.69871 251.344 9.00343V11.0951C251.344 12.2212 250.896 13.3011 250.1 14.0974C249.304 14.8937 248.224 15.341 247.098 15.341H239.103" stroke="#2B4257" stroke-width="2" stroke-miterlimit="10" stroke-linecap="round"/>
<path d="M240.628 57.6346C240.639 56.6291 240.403 55.6362 239.939 54.7439V52.9395H237.398C235.612 52.9395 234.165 55.0422 234.165 57.6346C234.165 60.2271 235.612 62.3298 237.398 62.3298H239.939V60.5291C240.403 59.6354 240.639 58.6413 240.628 57.6346Z" fill="#2B4257"/>
<path d="M239.939 62.3298C241.725 62.3298 243.172 60.2277 243.172 57.6346C243.172 55.0416 241.725 52.9395 239.939 52.9395C238.153 52.9395 236.706 55.0416 236.706 57.6346C236.706 60.2277 238.153 62.3298 239.939 62.3298Z" fill="#FDEED9"/>
<path d="M181.03 55.1636C181.888 56.666 183.128 57.9149 184.624 58.7836C186.12 59.6522 187.82 60.1098 189.55 60.1098C191.28 60.1098 192.979 59.6522 194.475 58.7836C195.971 57.9149 197.211 56.666 198.069 55.1636" stroke="#F39B92" stroke-width="5" stroke-miterlimit="10" stroke-linecap="round"/>
<path d="M213.414 85.4851V273.664" stroke="#2B4257" stroke-width="2" stroke-miterlimit="10" stroke-linecap="round"/>
<path d="M179.41 284.115C179.41 284.115 171.555 281.243 175.484 277.07C179.414 272.898 186.775 277.07 186.775 277.07C186.775 277.07 179.167 271.179 184.812 269.952C190.457 268.726 198.069 277.034 198.069 277.034C198.069 277.034 181.619 253.602 198.069 254.534C214.519 255.465 222.127 276.581 222.127 276.581C222.127 276.581 219.917 258.658 231.948 260.621C243.979 262.584 241.769 278.054 241.769 278.054C241.769 278.054 243.485 272.221 248.151 273.664C252.817 275.108 248.151 281 248.151 281C248.151 281 252.323 278.297 254.779 279.527C257.236 280.757 253.306 284.115 253.306 284.115" fill="#40697F"/>
<path d="M254.779 279.527C257.236 280.753 253.306 284.115 253.306 284.115" stroke="#2B4257" stroke-width="2" stroke-miterlimit="10" stroke-linecap="round"/>
<path d="M248.151 273.664C252.817 275.108 248.151 281 248.151 281" stroke="#2B4257" stroke-width="2" stroke-miterlimit="10" stroke-linecap="round"/>
<path d="M231.948 260.621C243.979 262.587 241.769 278.054 241.769 278.054" stroke="#2B4257" stroke-width="2" stroke-miterlimit="10" stroke-linecap="round"/>
<path d="M241.769 278.054C241.769 278.054 243.485 272.221 248.151 273.664" stroke="#FFF1D7" stroke-width="2" stroke-miterlimit="10" stroke-linecap="round"/>
<path d="M198.069 254.534C214.519 255.465 222.127 276.581 222.127 276.581" stroke="#2B4257" stroke-width="2" stroke-miterlimit="10" stroke-linecap="round"/>
<path d="M222.127 276.581C222.127 276.581 219.917 258.658 231.948 260.621" stroke="#FFF1D7" stroke-width="2" stroke-miterlimit="10" stroke-linecap="round"/>
<path d="M184.812 269.952C190.457 268.722 198.069 277.034 198.069 277.034" stroke="#2B4257" stroke-width="2" stroke-miterlimit="10" stroke-linecap="round"/>
<path d="M198.069 277.034C198.069 277.034 181.619 253.602 198.069 254.534" stroke="#FFF1D7" stroke-width="2" stroke-miterlimit="10" stroke-linecap="round"/>
<path d="M175.484 277.07C179.41 272.898 186.775 277.07 186.775 277.07" stroke="#2B4257" stroke-width="2" stroke-miterlimit="10" stroke-linecap="round"/>
<path d="M179.41 284.115C179.41 284.115 171.555 281.243 175.484 277.071" stroke="#FFF1D7" stroke-width="2" stroke-miterlimit="10" stroke-linecap="round"/>
<path d="M186.775 277.07C186.775 277.07 179.167 271.178 184.812 269.952" stroke="#FFF1D7" stroke-width="2" stroke-miterlimit="10" stroke-linecap="round"/>
<path d="M157.676 284.115H269.152" stroke="#2B4257" stroke-width="2" stroke-miterlimit="10" stroke-linecap="round"/>
<path d="M248.151 281C248.151 281 252.323 278.297 254.779 279.527" stroke="#FFF1D7" stroke-width="2" stroke-miterlimit="10" stroke-linecap="round"/>
</g>
<defs>
<clipPath id="clip0_601_285">
<rect x="0.300903" y="0.246582" width="276.102" height="284.237" fill="white"/>
</clipPath>
</defs>
</svg>
