<svg width="220" height="220" viewBox="0 0 220 220" fill="none" xmlns="http://www.w3.org/2000/svg">
<path d="M206.376 23.2188H14.2905C9.18902 23.2188 5.05322 27.3543 5.05322 32.4558V152.085C5.05322 157.187 9.18902 161.322 14.2905 161.322H206.376C211.478 161.322 215.613 157.187 215.613 152.085V32.4558C215.613 27.3543 211.478 23.2188 206.376 23.2188Z" fill="#E7E3E6"/>
<path d="M203.938 34.2827H16.7295V138.461H203.938V34.2827Z" fill="#656766"/>
<path d="M33.0691 39.5566C32.5772 39.5566 32.0853 39.7444 31.7098 40.1199C30.9587 40.871 30.9587 42.0876 31.7098 42.8387L37.6454 48.7743L31.7098 54.7099C30.9587 55.4609 30.9587 56.6775 31.7098 57.4286C32.4608 58.1796 33.6774 58.1796 34.4285 57.4286L41.7235 50.1336C42.4745 49.3826 42.4745 48.1659 41.7235 47.4149L34.4284 40.1199C34.0529 39.7444 33.561 39.5566 33.0691 39.5566Z" fill="#85BD57"/>
<path d="M49.9402 44.9277C48.8788 44.9277 48.0176 45.7889 48.0176 46.8504C48.0176 47.9118 48.8781 48.773 49.9402 48.773L60.2587 48.7743C61.3201 48.7743 62.1813 47.9144 62.1813 46.8516C62.1813 45.7902 61.3208 44.929 60.2587 44.929L49.9402 44.9277Z" fill="#53B1E2"/>
<path d="M173.838 197.448C182.935 197.448 188.302 186.906 182.652 179.777C178.455 174.481 172.654 170.464 165.834 168.504L137.353 160.313C134.4 156.551 133.684 152.081 134.461 147.137L139.498 127.533C142.163 127.42 143.321 126.132 143.269 123.914C143.218 121.827 143.939 119.819 145 118.027C145.17 117.737 145.277 117.465 145.277 117.249C145.283 116.194 143.837 114.442 144.018 113.404C144.359 111.475 147.126 109.331 146.554 107.459C145.09 102.666 141.21 104.929 141.21 104.929C141.21 104.929 144.534 82.1323 141.21 75.5923C138.913 71.0771 135.896 67.4923 132.413 64.7697C132.407 64.764 132.401 64.7582 132.396 64.7525C126.871 59.6646 119.48 59.7666 118.822 55.728C118.822 55.728 117.727 56.3122 117.886 58.4791C117.931 59.1369 118.09 59.931 118.431 60.901C116.604 60.0333 115.441 59.0576 114.727 58.0932C112.656 55.2913 114.278 52.5459 114.278 52.5459C101.289 52.9146 95.8437 61.2357 95.679 61.4968C95.6734 61.5024 95.6734 61.5024 95.6734 61.5024C89.054 64.4858 83.2569 69.2848 79.4563 75.5922C75.6731 81.8772 79.4563 104.929 79.4563 104.929C79.4563 104.929 75.5765 102.666 74.1133 107.459C73.5403 109.331 76.3082 111.475 76.6485 113.404C76.83 114.442 75.3837 116.194 75.3837 117.249C75.3837 117.465 75.4916 117.737 75.6673 118.026C76.728 119.819 77.4429 121.827 77.3974 123.914C77.3462 126.132 78.5035 127.42 81.1696 127.533L86.2063 147.137C87.5234 151.959 86.7427 156.386 83.3137 160.313L54.8333 168.504C48.0137 170.464 42.2106 174.48 38.0132 179.776C32.3625 186.905 37.7294 197.448 46.8264 197.448H173.838Z" fill="#EC6E62"/>
</svg>
