<svg width="211" height="212" viewBox="0 0 211 212" fill="none" xmlns="http://www.w3.org/2000/svg">
<path d="M186.866 28.9818H23.7337C17.5226 28.9818 12.5044 34 12.5044 40.211V123.834C12.5044 130.045 17.5226 135.063 23.7337 135.063H42.6547V113.139H167.986V135.063H186.908C193.119 135.063 198.137 130.045 198.137 123.834V40.2521C198.137 34.0411 193.077 28.9818 186.866 28.9818ZM148.777 61.0653C144.788 61.0653 141.579 57.857 141.579 53.8671C141.579 49.8772 144.788 46.6689 148.777 46.6689C152.767 46.6689 155.976 49.8772 155.976 53.8671C155.976 57.857 152.767 61.0653 148.777 61.0653ZM174.403 61.0653C170.413 61.0653 167.205 57.857 167.205 53.8671C167.205 49.8772 170.413 46.6689 174.403 46.6689C178.393 46.6689 181.601 49.8772 181.601 53.8671C181.601 57.857 178.352 61.0653 174.403 61.0653Z" fill="#3B4652"/>
<path d="M105.3 166.365C117.557 166.365 129.157 161.059 137.178 151.804C138.206 150.611 138.083 148.802 136.89 147.732C135.697 146.704 133.887 146.827 132.818 148.02C125.866 156 115.83 160.607 105.259 160.607C94.6876 160.607 84.6512 156.041 77.6997 148.02C76.6714 146.827 74.8204 146.704 73.6276 147.732C72.4347 148.761 72.3113 150.611 73.3397 151.804C81.4428 161.059 93.0423 166.365 105.3 166.365Z" fill="#F46262"/>
<path d="M149.312 158.509C148.119 157.481 146.309 157.604 145.24 158.797C135.162 170.396 120.601 177.06 105.3 177.06C89.9985 177.06 75.4374 170.396 65.3599 158.797C64.3316 157.604 62.4806 157.481 61.2877 158.509C60.0949 159.537 59.9715 161.388 60.9998 162.581C72.1879 175.415 88.312 182.818 105.3 182.818C122.288 182.818 138.412 175.456 149.6 162.581C150.628 161.347 150.505 159.537 149.312 158.509Z" fill="#F46262"/>
</svg>
