<svg width="48" height="48" viewBox="0 0 48 48" fill="none" xmlns="http://www.w3.org/2000/svg">
<rect width="48" height="48" fill="white"/>
<path fill-rule="evenodd" clip-rule="evenodd" d="M31.6758 11.2871C29.604 8.01973 26.7296 5.99178 23.5094 5.96948C17.069 6.00242 12 14.0978 12 24.005C12 28.9526 13.2697 33.4569 15.3424 36.7228C17.4147 39.9888 20.2891 42.0184 23.5093 42.0304C26.7295 42.0184 29.604 39.9888 31.6758 36.7228C33.7487 33.4569 35.0187 28.9526 35.0187 24.005C35.0187 19.056 33.7487 14.553 31.6758 11.2871Z" fill="#1F211D"/>
<path fill-rule="evenodd" clip-rule="evenodd" d="M33.7656 17.1094C33.197 14.982 32.3725 13.0719 31.3583 11.4779C30.3336 9.88146 29.1302 8.59065 27.8045 7.70034C26.4786 6.82259 25.036 6.33411 23.5093 6.33411C21.9827 6.33411 20.54 6.82259 19.2141 7.70034C17.8884 8.59065 16.685 9.88146 15.6603 11.4779C14.6462 13.0719 13.8217 14.982 13.253 17.1094C12.685 19.2251 12.3727 21.5583 12.3727 24.0108C12.3727 28.894 13.6328 33.3321 15.6603 36.5227C16.685 38.1183 17.8884 39.4085 19.2141 40.2989C20.54 41.1783 21.9827 41.6657 23.5093 41.6657C25.036 41.6657 26.4786 41.1783 27.8045 40.2989C29.1302 39.4085 30.3336 38.1183 31.3583 36.5227C33.3859 33.3321 34.6459 28.894 34.6459 24.0108C34.6459 21.5583 34.3337 19.2251 33.7656 17.1094Z" fill="#E21C2A"/>
<path fill-rule="evenodd" clip-rule="evenodd" d="M23.5094 40.6574C17.816 40.6237 13.3649 33.1373 13.3649 24.0109C13.3649 14.874 17.816 7.38611 23.5094 7.354C29.2028 7.38611 33.6539 14.874 33.6539 24.0109C33.6539 33.1373 29.2028 40.6237 23.5094 40.6574Z" fill="#1F211D"/>
<path fill-rule="evenodd" clip-rule="evenodd" d="M23.5094 14.2121C27.3311 14.2121 30.6448 16.2848 32.3501 19.3336C31.893 16.85 31.1022 14.6241 30.0431 12.8228C28.3615 9.96868 26.0499 8.23432 23.5094 8.22266C20.9688 8.23432 18.6572 9.96868 16.9756 12.8228C15.9165 14.6241 15.1257 16.85 14.6687 19.3336C16.3739 16.2848 19.6876 14.2121 23.5094 14.2121Z" fill="white"/>
<path fill-rule="evenodd" clip-rule="evenodd" d="M23.5094 33.7988C19.6876 33.7988 16.3848 31.7271 14.6801 28.6775C15.1257 31.1619 15.9165 33.3862 16.9757 35.1781C17.8221 36.5987 18.8136 37.7604 19.9277 38.5521C21.0306 39.3548 22.2395 39.7892 23.5094 39.7892C24.7793 39.7892 25.9882 39.3548 27.0911 38.5521C28.2052 37.7604 29.1967 36.5987 30.0431 35.1781C31.1022 33.3862 31.893 31.1619 32.3386 28.6775C30.634 31.7271 27.3311 33.7988 23.5094 33.7988Z" fill="white"/>
<path fill-rule="evenodd" clip-rule="evenodd" d="M26.8472 33.8826C26.225 34.0909 25.8766 34.5646 26.1214 35.2575C26.2864 35.7284 26.7818 36.0173 27.3916 35.8151C27.6043 35.7416 27.8363 35.6135 27.9106 35.3731L27.923 35.3794C28.1273 35.974 27.923 36.2173 27.6769 36.3405C27.4337 36.455 27.2097 36.3963 27.0644 36.2257L27.0627 36.2229L26.6529 36.499C26.8905 36.8455 27.3357 36.9515 27.8267 36.7865C28.4015 36.5942 28.8575 36.0467 28.4742 34.9589C28.3356 34.561 27.9483 33.5145 26.8472 33.8826ZM27.3691 35.3277C27.1314 35.4059 26.8123 35.4072 26.6642 34.9857C26.5228 34.5836 26.842 34.3932 27.0014 34.3443C27.3257 34.2371 27.5497 34.3807 27.6645 34.6983C27.7817 35.0346 27.5874 35.2535 27.3691 35.3277Z" fill="#1F211D"/>
<path fill-rule="evenodd" clip-rule="evenodd" d="M23.6872 13.4837C24.3379 13.4837 24.9252 13.2123 25.331 12.7781L24.8497 12.3492C24.5615 12.6545 24.1476 12.8478 23.6872 12.8478C22.8145 12.8478 22.1063 12.1599 22.1063 11.3096C22.1063 10.4541 22.8145 9.76506 23.6872 9.76506C24.1476 9.76506 24.5615 9.95919 24.8497 10.2642L25.3298 9.83292C24.9211 9.40082 24.3379 9.12903 23.6872 9.12903C22.4546 9.12903 21.4549 10.1047 21.4549 11.3096C21.4549 12.509 22.4546 13.4837 23.6872 13.4837Z" fill="#1F211D"/>
<path fill-rule="evenodd" clip-rule="evenodd" d="M26.7592 11.7224L27.2361 14.1512C27.3497 14.1983 27.4601 14.2427 27.5733 14.2939L28.249 12.6764L28.9566 15.0171C29.2336 15.1913 29.5054 15.3829 29.7639 15.5842L28.536 11.5406L28.1526 11.2455L27.5987 12.5792L27.1382 10.4448L26.6055 10.0986L25.4932 13.6524C25.7015 13.6927 25.9075 13.7377 26.113 13.7909L26.7592 11.7224Z" fill="#1F211D"/>
<path fill-rule="evenodd" clip-rule="evenodd" d="M18.7317 13.7437L20.6711 12.9923L20.9176 13.7903C21.1187 13.7371 21.325 13.6927 21.5314 13.6524L20.434 10.0986L19.6314 10.6016L17.1023 15.7081C17.4202 15.4518 17.7584 15.2134 18.107 14.9939L18.7317 13.7437ZM20.069 11.0528L20.4865 12.3984L19.1415 12.9192L20.069 11.0528Z" fill="#1F211D"/>
<path fill-rule="evenodd" clip-rule="evenodd" d="M24.3418 34.3623C23.6871 34.4176 23.2312 34.7918 23.293 35.522C23.3371 36.013 23.7445 36.416 24.3868 36.3614C24.6132 36.3445 24.8665 36.2747 25.001 36.064L25.0106 36.0703C25.0584 36.6957 24.7967 36.8844 24.5293 36.9378C24.2652 36.9964 24.0637 36.888 23.9665 36.6873V36.6825L23.5001 36.8551C23.6406 37.2396 24.0488 37.4485 24.5643 37.4079C25.1672 37.3589 25.7476 36.9378 25.6501 35.7926C25.6175 35.3722 25.5032 34.27 24.3418 34.3623ZM24.4888 35.8829C24.2371 35.9053 23.9264 35.8339 23.8875 35.3879C23.8537 34.9596 24.2089 34.856 24.3796 34.8449C24.7168 34.8171 24.9015 35.0067 24.9307 35.3457C24.9616 35.701 24.7168 35.8676 24.4888 35.8829Z" fill="#1F211D"/>
<path fill-rule="evenodd" clip-rule="evenodd" d="M21.8378 34.2549C21.2593 34.1533 20.753 34.3808 20.6641 34.8871C20.6137 35.1592 20.7192 35.3696 20.9599 35.5334C20.4195 35.651 20.3504 36.044 20.323 36.1922C20.2494 36.5972 20.4549 37.1435 21.3079 37.2944C22.1832 37.4429 22.5564 36.9058 22.6256 36.5329C22.693 36.1504 22.5498 35.9339 22.2577 35.7354C22.5463 35.6614 22.7008 35.4608 22.7472 35.2062C22.8187 34.7976 22.521 34.3736 21.8378 34.2549ZM21.9789 36.4483C21.9421 36.6526 21.7356 36.8882 21.3961 36.8268C21.0988 36.7762 20.8997 36.5502 20.9519 36.2616C21.0085 35.9444 21.3099 35.8537 21.5486 35.8991C21.9114 35.9557 22.0185 36.2391 21.9789 36.4483ZM22.1357 35.1649C22.0971 35.3745 21.8982 35.5026 21.6409 35.4587C21.3599 35.4074 21.2254 35.1877 21.2553 35.0164C21.2949 34.796 21.502 34.6772 21.7957 34.7262C22.0042 34.7639 22.1758 34.9388 22.1357 35.1649Z" fill="#1F211D"/>
<path fill-rule="evenodd" clip-rule="evenodd" d="M18.6911 33.9658L18.6022 33.9357L18.476 34.2886L18.4802 34.2897L18.418 34.4603L18.5396 34.5045C18.8608 34.6165 19.0799 34.6165 19.2264 34.5571L18.5649 36.4482L19.1957 36.6565L20.1693 33.8787L19.5961 33.684C19.5518 33.8128 19.1688 34.122 18.6911 33.9658Z" fill="#1F211D"/>
<path fill-rule="evenodd" clip-rule="evenodd" d="M29.7876 25.4001V30.8366C31.37 29.4582 32.4735 27.5486 32.8079 25.4001H29.7876Z" fill="white"/>
<path fill-rule="evenodd" clip-rule="evenodd" d="M24.0281 33.1484C24.808 33.1046 25.5647 32.9637 26.278 32.7574V25.4001H24.0281V33.1484Z" fill="white"/>
<path fill-rule="evenodd" clip-rule="evenodd" d="M32.7629 22.3074C32.3737 20.2824 31.3092 18.4963 29.7876 17.1843V22.3074H32.7629Z" fill="white"/>
<path fill-rule="evenodd" clip-rule="evenodd" d="M24.0281 22.3073H26.278V15.254C25.5534 15.0482 24.808 14.9073 24.0281 14.8635V22.3073Z" fill="white"/>
<path fill-rule="evenodd" clip-rule="evenodd" d="M29.7866 17.1747H29.7767C29.78 17.1775 29.7832 17.1805 29.7866 17.1834V17.1747Z" fill="white"/>
<path fill-rule="evenodd" clip-rule="evenodd" d="M15.2477 28.4053V19.6046C14.5235 20.9189 14.1004 22.416 14.1004 24.011C14.1004 25.5954 14.5235 27.0927 15.2477 28.4053Z" fill="#E21C2A"/>
<path fill-rule="evenodd" clip-rule="evenodd" d="M26.7689 15.4166V22.7955H24.0273V24.9117L26.7689 24.9231V32.5945C27.681 32.2699 28.5288 31.8017 29.2871 31.2277V24.9231H32.885C32.9183 24.6183 32.9295 24.3153 32.9295 24.011C32.9295 23.5991 32.8958 23.1865 32.84 22.7955H29.2871V16.7836C28.5288 16.2086 27.681 15.7421 26.7689 15.4166Z" fill="#E21C2A"/>
<path fill-rule="evenodd" clip-rule="evenodd" d="M20.5176 32.6921C21.0862 32.8767 21.6656 33.0072 22.278 33.0939V14.9172C21.6656 14.9931 21.0862 15.135 20.5176 15.3196V32.6921Z" fill="#E21C2A"/>
<path fill-rule="evenodd" clip-rule="evenodd" d="M17.0082 30.6191C17.5433 31.1185 18.1228 31.5412 18.7572 31.9117V16.1002C18.1228 16.4583 17.5433 16.8916 17.0082 17.3918V30.6191Z" fill="#E21C2A"/>
</svg>
