<svg width="48" height="48" viewBox="0 0 48 48" fill="none" xmlns="http://www.w3.org/2000/svg">
<rect width="48" height="48" rx="4" fill="#5876A3"/>
<mask id="mask0_0_6" style="mask-type:luminance" maskUnits="userSpaceOnUse" x="0" y="0" width="48" height="48">
<rect width="48" height="48" rx="4" fill="white"/>
</mask>
<g mask="url(#mask0_0_6)">
<path d="M22.718 31.7471H39.3836C39.9967 31.7471 40.4984 32.2487 40.4984 32.8618V35.0913C40.4984 35.7044 39.9967 36.2061 39.3836 36.2061H22.718C22.1049 36.2061 21.6033 35.7044 21.6033 35.0913V32.8618C21.6033 32.2487 22.1049 31.7471 22.718 31.7471Z" fill="white"/>
<path d="M22.718 21.7705H39.3836C39.9967 21.7705 40.4984 22.2721 40.4984 22.8853V25.1148C40.4984 25.7279 39.9967 26.2295 39.3836 26.2295H22.718C22.1049 26.2295 21.6033 25.7279 21.6033 25.1148V22.8853C21.6033 22.2721 22.1049 21.7705 22.718 21.7705Z" fill="white"/>
<path d="M22.718 11.8486H39.3836C39.9967 11.8486 40.4984 12.3503 40.4984 12.9634V15.1929C40.4984 15.806 39.9967 16.3076 39.3836 16.3076H22.718C22.1049 16.3076 21.6033 15.806 21.6033 15.1929V12.9634C21.6033 12.3503 22.1049 11.8486 22.718 11.8486Z" fill="white"/>
<path d="M12.0164 11.8486C10.7901 11.8486 9.78687 12.8519 9.78687 14.0781C9.78687 15.3044 10.7901 16.3076 12.0164 16.3076C13.2426 16.3076 14.2459 15.3044 14.2459 14.0781C14.2459 12.8519 13.2426 11.8486 12.0164 11.8486Z" fill="white"/>
<path d="M12.0164 31.7471C10.7901 31.7471 9.78687 32.7503 9.78687 33.9766C9.78687 35.2028 10.7901 36.2061 12.0164 36.2061C13.2426 36.2061 14.2459 35.2028 14.2459 33.9766C14.2459 32.7503 13.2426 31.7471 12.0164 31.7471Z" fill="white"/>
<path fill-rule="evenodd" clip-rule="evenodd" d="M7 23.9998C7 21.2129 9.22951 18.9834 12.0164 18.9834C14.8033 18.9834 17.0328 21.2129 17.0328 23.9998C17.0328 26.7867 14.8033 29.0162 12.0164 29.0162C9.22951 29.0162 7 26.7867 7 23.9998ZM10.3443 23.9998C10.3443 24.8916 11.0689 25.6719 12.0164 25.6719C12.9639 25.6719 13.6885 24.9473 13.6885 23.9998C13.6885 23.108 12.9082 22.3277 12.0164 22.3277C11.1246 22.3277 10.3443 23.0523 10.3443 23.9998Z" fill="white"/>
</g>
</svg>
