<svg width="24" height="24" viewBox="0 0 24 24" fill="none" xmlns="http://www.w3.org/2000/svg">
<g clip-path="url(#clip0_3_47)">
<path fill-rule="evenodd" clip-rule="evenodd" d="M3 7.23901C3 4.89801 5.003 3 7.475 3C10.2 3 13.8 3 16.525 3C18.997 3 21 4.89801 21 7.23901C21 10.07 21 13.93 21 16.761C21 19.102 18.997 21 16.525 21C13.8 21 10.2 21 7.475 21C5.003 21 3 19.102 3 16.761C3 13.93 3 10.07 3 7.23901ZM12.5 11.5V8C12.5 7.724 12.276 7.5 12 7.5C11.724 7.5 11.5 7.724 11.5 8V11.5H8C7.724 11.5 7.5 11.724 7.5 12C7.5 12.276 7.724 12.5 8 12.5H11.5V16C11.5 16.276 11.724 16.5 12 16.5C12.276 16.5 12.5 16.276 12.5 16V12.5H16C16.276 12.5 16.5 12.276 16.5 12C16.5 11.724 16.276 11.5 16 11.5H12.5Z" fill="black"/>
</g>
<defs>
<clipPath id="clip0_3_47">
<rect width="24" height="24" fill="white"/>
</clipPath>
</defs>
</svg>
