<svg width="24" height="24" viewBox="0 0 24 24" fill="none" xmlns="http://www.w3.org/2000/svg">
<g clip-path="url(#clip0_1_1100)">
<path fill-rule="evenodd" clip-rule="evenodd" d="M3.00035 7.23934C3.00035 4.89811 5.00351 3.00024 7.47418 3.00024C10.1998 3.00024 13.8001 3.00024 16.5257 3.00024C18.9964 3.00024 20.9996 4.89811 20.9996 7.23934C20.9996 10.0701 20.9996 13.93 20.9996 16.7608C20.9996 19.102 18.9964 20.9999 16.5257 20.9999C13.8001 20.9999 10.1998 20.9999 7.47418 20.9999C5.00351 20.9999 3.00035 19.102 3.00035 16.7608C3.00035 13.93 3.00035 10.0701 3.00035 7.23934ZM3.99958 7.23934C3.99958 10.0701 3.99958 13.93 3.99958 16.7608C3.99958 18.5794 5.55601 20.0529 7.47418 20.0529C10.1998 20.0529 13.8001 20.0529 16.5257 20.0529C18.4439 20.0529 20.0003 18.5794 20.0003 16.7608C20.0003 13.93 20.0003 10.0701 20.0003 7.23934C20.0003 5.42072 18.4439 3.94717 16.5257 3.94717C13.8001 3.94717 10.1998 3.94717 7.47418 3.94717C5.55601 3.94717 3.99958 5.42072 3.99958 7.23934Z" fill="black"/>
<path d="M8 12H16" stroke="#FF7949" stroke-miterlimit="1.5" stroke-linecap="round" stroke-linejoin="round"/>
<path d="M12 8V16" stroke="#FF7949" stroke-miterlimit="1.5" stroke-linecap="round" stroke-linejoin="round"/>
</g>
<defs>
<clipPath id="clip0_1_1100">
<rect width="24" height="24" fill="white"/>
</clipPath>
</defs>
</svg>
