<svg width="48" height="49" viewBox="0 0 48 49" fill="none" xmlns="http://www.w3.org/2000/svg">
<path fill-rule="evenodd" clip-rule="evenodd" d="M23.519 48.1C23.519 47.63 23.519 47.16 23.429 46.69C23.009 42.46 22.579 38.27 22.519 34.06C22.379 23.06 23.589 11.96 23.519 0.899994C23.519 0.781804 23.4958 0.664766 23.4506 0.555573C23.4053 0.446379 23.339 0.347153 23.2554 0.26358C23.1719 0.180008 23.0726 0.113711 22.9634 0.0684814C22.8542 0.0232522 22.7372 0 22.619 0C22.5008 0 22.3838 0.0232522 22.2747 0.0684814C22.1655 0.113711 22.0662 0.180008 21.9827 0.26358C21.8991 0.347153 21.8328 0.446379 21.7875 0.555573C21.7423 0.664766 21.7191 0.781804 21.7191 0.899994C21.7991 11.96 20.4491 23.03 20.6591 34.07C20.6191 38.3855 20.9908 42.695 21.769 46.94C21.869 47.41 22.019 47.86 22.149 48.33C22.1822 48.5183 22.2888 48.6857 22.4454 48.7954C22.602 48.9051 22.7958 48.9481 22.9841 48.915C23.1724 48.8818 23.3398 48.7752 23.4495 48.6187C23.5592 48.4621 23.6022 48.2683 23.569 48.08L23.519 48.1Z" fill="black"/>
<path fill-rule="evenodd" clip-rule="evenodd" d="M1.38907 24.4999C1.87907 24.5599 2.38908 24.6499 2.83908 24.6699C3.28908 24.6899 3.78907 24.6699 4.26907 24.6099C12.8591 24.2499 21.4891 23.9499 30.0691 23.8399C33.2991 23.7899 36.5791 23.5099 39.8391 23.4799C41.9606 23.4159 44.0834 23.5531 46.179 23.8899C46.4018 23.931 46.6319 23.882 46.8185 23.7535C47.0051 23.6251 47.133 23.4277 47.1741 23.2049C47.2152 22.9821 47.1661 22.7522 47.0376 22.5656C46.9092 22.379 46.7118 22.251 46.489 22.2099C44.8406 21.8847 43.1684 21.6941 41.489 21.6399C37.679 21.4999 33.8191 21.9299 30.0291 21.9899C23.3391 22.0899 16.6291 22.2999 9.9191 22.5699C7.6291 22.6599 5.31909 22.6199 3.03909 22.8799C2.45909 22.9399 1.89906 23.0799 1.31906 23.1799C1.14488 23.1903 0.981636 23.2681 0.863982 23.397C0.746329 23.5259 0.683541 23.6955 0.689056 23.8699C0.692907 23.9566 0.713862 24.0417 0.75064 24.1203C0.787418 24.1989 0.83932 24.2695 0.903411 24.328C0.967502 24.3866 1.04249 24.4319 1.12411 24.4614C1.20574 24.4909 1.29236 24.504 1.37906 24.4999H1.38907Z" fill="black"/>
</svg>
