<svg width="53" height="41" viewBox="0 0 53 41" fill="none" xmlns="http://www.w3.org/2000/svg">
<path fill-rule="evenodd" clip-rule="evenodd" d="M13.5465 37.8075C13.6965 37.3775 12.3665 36.8075 11.5465 35.8075C8.96654 32.6575 5.22655 27.2275 2.86655 24.5875C2.45326 24.0822 1.98355 23.6259 1.46655 23.2275C1.41655 23.2275 1.37654 23.1475 1.32654 23.1575H1.15655C0.906555 23.1575 1.38653 23.0375 1.03653 23.3675C0.964959 23.3182 0.884406 23.2836 0.799438 23.2654C0.71447 23.2473 0.62675 23.2461 0.541321 23.2619C0.455891 23.2777 0.37443 23.3102 0.301544 23.3575C0.228658 23.4047 0.165792 23.4659 0.116546 23.5375C0.0673007 23.609 0.0326344 23.6896 0.0145261 23.7746C-0.00358216 23.8596 -0.00476937 23.9473 0.0110166 24.0327C0.0268026 24.1181 0.0592597 24.1996 0.106537 24.2725C0.153814 24.3454 0.214959 24.4082 0.286529 24.4575C0.216529 24.7775 0.0365549 24.4575 0.156555 24.8275C0.276555 25.1975 0.68655 25.3275 1.02655 25.6975C3.23655 28.1475 7.02657 33.5275 9.57657 36.8575C10.3324 37.9029 11.1972 38.865 12.1565 39.7275C12.4205 39.9266 12.7297 40.0572 13.0565 40.1075C14.4506 40.2412 15.8573 40.0942 17.1936 39.6751C18.5298 39.256 19.7685 38.5734 20.8365 37.6675C23.8365 35.3575 26.2265 31.7875 28.4865 29.2775C32.8365 24.4275 37.4165 19.4775 42.2365 14.8375C45.4156 11.7647 48.7535 8.86078 52.2365 6.13748C52.4819 5.94653 52.6413 5.66592 52.6797 5.35742C52.7182 5.04892 52.6325 4.73779 52.4416 4.49246C52.2506 4.24714 51.97 4.08773 51.6615 4.04929C51.353 4.01084 51.0419 4.09652 50.7965 4.28747C47.2543 7.05113 43.8565 9.99502 40.6165 13.1075C35.7265 17.7575 31.0865 22.7375 26.6165 27.6075C24.4465 30.0175 22.1265 33.4275 19.2765 35.6775C17.6917 37.0817 15.6332 37.8321 13.5166 37.7775L13.5465 37.8075Z" fill="black"/>
<path fill-rule="evenodd" clip-rule="evenodd" d="M15.6466 0.757436C15.5976 0.874263 15.5575 0.994587 15.5266 1.11742C15.5129 1.5668 15.5499 2.01631 15.6366 2.45745C16.2166 7.45745 16.9866 12.4574 17.7466 17.5074C17.7643 17.6243 17.8049 17.7366 17.866 17.8378C17.9271 17.939 18.0076 18.0271 18.1027 18.0972C18.1979 18.1673 18.306 18.218 18.4207 18.2464C18.5355 18.2747 18.6547 18.2802 18.7716 18.2624C18.8884 18.2447 19.0007 18.2041 19.1019 18.143C19.2031 18.0819 19.2912 18.0015 19.3613 17.9063C19.4315 17.8111 19.4822 17.7031 19.5105 17.5883C19.5389 17.4735 19.5443 17.3543 19.5266 17.2374C18.7866 12.2374 18.3866 7.16743 17.5266 2.18743C17.4807 1.73453 17.3834 1.28834 17.2366 0.857442C17.1746 0.747002 17.0972 0.645963 17.0066 0.557424C16.9771 0.38451 16.881 0.230054 16.7389 0.127218C16.5968 0.0243819 16.4201 -0.0186192 16.2466 0.00743632C16.1608 0.0195981 16.0783 0.0488032 16.0039 0.0933128C15.9296 0.137822 15.8649 0.196744 15.8137 0.266622C15.7624 0.3365 15.7256 0.415914 15.7055 0.500204C15.6854 0.584493 15.6824 0.671952 15.6966 0.757436H15.6466Z" fill="black"/>
<path fill-rule="evenodd" clip-rule="evenodd" d="M8.82655 10.3674C9.54655 10.4674 10.2265 10.5674 10.9065 10.5974C12.5342 10.622 14.1599 10.4746 15.7565 10.1574C18.9865 9.60741 22.0165 8.59741 25.6265 7.80741C25.856 7.75834 26.0565 7.62017 26.184 7.42325C26.3115 7.22634 26.3556 6.98683 26.3065 6.75742C26.2575 6.52801 26.1193 6.32748 25.9224 6.19996C25.7255 6.07243 25.486 6.02836 25.2565 6.07743C21.6665 6.80743 18.6365 7.71741 15.4265 8.24741C13.9234 8.48541 12.4074 8.63234 10.8866 8.68741C10.2566 8.68741 9.60655 8.79741 8.88655 8.80741C8.67968 8.79415 8.47598 8.86362 8.32033 9.00052C8.16467 9.13743 8.06979 9.33055 8.05653 9.53742C8.04327 9.74429 8.11275 9.94796 8.24965 10.1036C8.38655 10.2593 8.57965 10.3541 8.78651 10.3674H8.82655Z" fill="black"/>
</svg>
