<svg width="220" height="220" viewBox="0 0 220 220" fill="none" xmlns="http://www.w3.org/2000/svg">
<g clip-path="url(#clip0_8_5819)">
<path d="M103.557 210.253C159.94 210.253 205.647 164.546 205.647 108.163C205.647 51.7808 159.94 6.07373 103.557 6.07373C47.1744 6.07373 1.46729 51.7808 1.46729 108.163C1.46729 164.546 47.1744 210.253 103.557 210.253Z" fill="#E7E3E6"/>
<path d="M103.558 213.444C45.5072 213.444 -1.72217 166.214 -1.72217 108.164C-1.72217 50.1131 45.5072 2.88379 103.558 2.88379C161.608 2.88379 208.838 50.1131 208.838 108.164C208.838 166.214 161.608 213.444 103.558 213.444ZM103.558 9.26442C49.0236 9.26442 4.65846 53.6296 4.65846 108.164C4.65846 162.698 49.0236 207.063 103.558 207.063C158.092 207.063 202.457 162.698 202.457 108.164C202.457 53.6296 158.092 9.26442 103.558 9.26442Z" fill="#D2D2D2"/>
<path d="M103.558 213.444C69.3826 213.444 41.5796 166.214 41.5796 108.164C41.5796 50.1131 69.3826 2.88379 103.558 2.88379C137.731 2.88379 165.534 50.1131 165.534 108.164C165.534 166.214 137.731 213.444 103.558 213.444ZM103.558 9.26442C72.9011 9.26442 47.9602 53.6296 47.9602 108.164C47.9602 162.698 72.9011 207.063 103.558 207.063C134.213 207.063 159.153 162.698 159.153 108.164C159.153 53.6296 134.213 9.26442 103.558 9.26442Z" fill="#D2D2D2"/>
<path d="M106.748 6.07422H100.368V210.254H106.748V6.07422Z" fill="#D2D2D2"/>
<path d="M103.558 170.14C45.5072 170.14 -1.72217 142.337 -1.72217 108.164C-1.72217 73.9885 45.5072 46.1855 103.558 46.1855C161.608 46.1855 208.838 73.9885 208.838 108.164C208.838 142.337 161.608 170.14 103.558 170.14ZM103.558 52.5662C49.0236 52.5662 4.65846 77.507 4.65846 108.164C4.65846 138.819 49.0236 163.759 103.558 163.759C158.092 163.759 202.457 138.819 202.457 108.164C202.457 77.507 158.092 52.5662 103.558 52.5662Z" fill="#D2D2D2"/>
<path d="M205.648 104.974H1.46826V111.354H205.648V104.974Z" fill="#D2D2D2"/>
<path d="M52.4412 69.6055C60.8801 69.6055 67.7212 62.7644 67.7212 54.3254C67.7212 45.8865 60.8801 39.0454 52.4412 39.0454C44.0022 39.0454 37.1611 45.8865 37.1611 54.3254C37.1611 62.7644 44.0022 69.6055 52.4412 69.6055Z" fill="#85BD57"/>
<path d="M154.805 74.1499C163.244 74.1499 170.085 67.3088 170.085 58.8699C170.085 50.431 163.244 43.5898 154.805 43.5898C146.366 43.5898 139.525 50.431 139.525 58.8699C139.525 67.3088 146.366 74.1499 154.805 74.1499Z" fill="#EC6E62"/>
<path d="M52.4412 172.737C60.8801 172.737 67.7212 165.896 67.7212 157.457C67.7212 149.018 60.8801 142.177 52.4412 142.177C44.0022 142.177 37.1611 149.018 37.1611 157.457C37.1611 165.896 44.0022 172.737 52.4412 172.737Z" fill="#FFC966"/>
<path d="M164.235 217.784C195.984 217.784 221.721 192.046 221.721 160.297C221.721 128.548 195.984 102.811 164.235 102.811C132.486 102.811 106.748 128.548 106.748 160.297C106.748 192.046 132.486 217.784 164.235 217.784Z" fill="#53B1E2"/>
<path d="M137.379 136.533H145.399V184.061H137.379V136.533Z" fill="white"/>
<path d="M190.581 140.679C193.886 143.446 195.546 147.706 195.546 153.465C195.546 159.219 193.857 163.436 190.478 166.11C187.099 168.785 181.919 170.12 174.94 170.12H166.507V184.061H158.487V136.533H174.807C182.015 136.533 187.268 137.916 190.581 140.679ZM184.9 160.297C186.508 158.596 187.32 156.106 187.32 152.816C187.32 149.532 186.294 147.208 184.258 145.847C182.214 144.49 179.02 143.807 174.667 143.807H166.507V162.846H175.825C180.267 162.846 183.292 161.997 184.9 160.297Z" fill="white"/>
</g>
<defs>
<clipPath id="clip0_8_5819">
<rect width="219.333" height="219.333" fill="white" transform="translate(0.333008 0.666992)"/>
</clipPath>
</defs>
</svg>
