<svg width="49" height="50" viewBox="0 0 49 50" fill="none" xmlns="http://www.w3.org/2000/svg">
<path fill-rule="evenodd" clip-rule="evenodd" d="M18.7436 27.7717L18.2536 27.9317C16.7192 28.4334 15.2359 29.0796 13.8236 29.8617C10.3591 31.8887 7.40917 34.688 5.20361 38.0417C3.2105 41.0112 1.76442 44.3131 0.933624 47.7917C0.8212 48.0871 0.750528 48.3967 0.723633 48.7117C0.74458 48.8044 0.774725 48.8949 0.813629 48.9817C0.781082 49.1539 0.817284 49.332 0.91449 49.4778C1.0117 49.6236 1.16216 49.7255 1.33362 49.7617C1.41901 49.7791 1.50702 49.7795 1.59256 49.7628C1.6781 49.7461 1.75948 49.7126 1.832 49.6642C1.90452 49.6159 1.96674 49.5536 2.01508 49.4811C2.06342 49.4086 2.0969 49.3272 2.11362 49.2417C2.18362 49.1717 2.25362 49.1417 2.30362 49.0517C2.40516 48.7702 2.4756 48.4785 2.51364 48.1817C3.373 44.922 4.79795 41.8385 6.72363 39.0717C8.8049 35.9912 11.5615 33.4261 14.7836 31.5717C16.0776 30.8593 17.4372 30.2733 18.8436 29.8217C21.0258 29.149 23.2508 28.6245 25.5036 28.2517C26.9536 27.9917 28.5636 27.8517 30.0536 27.4517C31.1665 27.1709 32.2108 26.6674 33.1236 25.9717C34.1716 25.0958 35.009 23.9953 35.5736 22.7517C36.3474 21.04 36.9568 19.2586 37.3936 17.4317C37.6625 16.4837 37.8433 15.5129 37.9336 14.5317C38.0139 13.5567 38.0139 12.5767 37.9336 11.6017C37.8625 10.4187 37.6715 9.24605 37.3636 8.10166C37.0423 6.93282 36.5646 5.81272 35.9436 4.77168C34.868 2.92744 33.1856 1.51366 31.1836 0.771668C29.263 0.0844458 27.2093 -0.148311 25.1836 0.0916676C22.4082 0.375373 19.739 1.31078 17.3936 2.82167C15.0053 4.35251 13.1095 6.54001 11.9336 9.12167C10.4354 12.5265 10.1118 16.3328 11.0136 19.9417C11.4397 21.8235 12.3809 23.5496 13.7319 24.9271C15.0829 26.3046 16.7905 27.2791 18.6636 27.7417L18.7436 27.7717ZM26.6836 26.0317C27.6465 25.9067 28.6015 25.7265 29.5436 25.4917C30.391 25.2794 31.1868 24.8984 31.8836 24.3717C32.6871 23.6793 33.3288 22.8191 33.7636 21.8517C34.4721 20.2396 35.0311 18.5659 35.4336 16.8517C35.6606 16.0234 35.8145 15.1768 35.8936 14.3217C35.9637 13.4564 35.9637 12.5869 35.8936 11.7217C35.827 10.6772 35.6562 9.6421 35.3836 8.63168C35.1104 7.6458 34.7068 6.70078 34.1836 5.82166C33.3358 4.40071 32.0263 3.31356 30.4736 2.74167C28.8541 2.17611 27.1253 1.99467 25.4236 2.21167C22.9833 2.45446 20.6372 3.28107 18.5836 4.62167C16.5447 5.9246 14.9263 7.78958 13.9236 9.99168C12.6263 12.9407 12.3518 16.2387 13.1436 19.3617C13.4766 20.8588 14.22 22.2337 15.2903 23.3323C16.3606 24.4309 17.7156 25.2098 19.2036 25.5817C20.047 25.7752 20.9084 25.8791 21.7736 25.8917C23.1422 25.9138 24.5109 25.8604 25.8736 25.7317C26.0186 25.7156 26.1653 25.7315 26.3035 25.7781C26.4417 25.8247 26.568 25.901 26.6736 26.0017L26.6836 26.0317Z" fill="black"/>
<path fill-rule="evenodd" clip-rule="evenodd" d="M39.7736 31.5416C39.6936 33.1116 39.6536 34.6616 39.7136 36.2216C39.8436 39.8016 40.2836 43.3516 40.3036 46.9316C40.3263 47.1399 40.4251 47.3324 40.581 47.4723C40.737 47.6122 40.9391 47.6896 41.1486 47.6896C41.3581 47.6896 41.5602 47.6122 41.7162 47.4723C41.8721 47.3324 41.9709 47.1399 41.9936 46.9316C41.9936 45.9316 41.9936 44.8516 41.9936 43.8116C41.8436 40.5416 41.5036 37.2916 41.3036 34.0016C41.2436 33.1916 41.1736 32.3916 41.1336 31.5816C41.1336 31.4066 41.0641 31.2387 40.9403 31.1149C40.8165 30.9912 40.6487 30.9216 40.4736 30.9216C40.2986 30.9216 40.1307 30.9912 40.0069 31.1149C39.8831 31.2387 39.8136 31.4066 39.8136 31.5816L39.7736 31.5416Z" fill="black"/>
<path fill-rule="evenodd" clip-rule="evenodd" d="M28.8436 43.0917C29.4536 42.9817 30.0636 42.9117 30.6836 42.8017C33.0736 42.3517 35.5036 41.8517 37.9636 41.5017C41.0436 41.0717 44.1536 40.7617 47.1636 40.6417C47.295 40.6364 47.424 40.6053 47.5433 40.5502C47.6626 40.4951 47.7699 40.4171 47.859 40.3205C47.9481 40.2239 48.0174 40.1107 48.0628 39.9874C48.1082 39.8641 48.1289 39.733 48.1236 39.6017C48.1184 39.4703 48.0873 39.3413 48.0322 39.222C47.9771 39.1027 47.899 38.9954 47.8025 38.9063C47.7059 38.8171 47.5927 38.7479 47.4694 38.7025C47.346 38.6571 47.2149 38.6364 47.0836 38.6417C43.9315 38.774 40.7896 39.0879 37.6736 39.5817C35.1731 39.94 32.7006 40.4712 30.2736 41.1717C29.6636 41.3617 29.0836 41.6017 28.4936 41.8217C28.325 41.8685 28.1815 41.9795 28.0936 42.1309C28.0058 42.2823 27.9806 42.462 28.0236 42.6317C28.0456 42.717 28.0844 42.797 28.1378 42.867C28.1912 42.9371 28.2581 42.9958 28.3345 43.0396C28.4109 43.0834 28.4954 43.1114 28.5828 43.1221C28.6702 43.1327 28.7589 43.1258 28.8436 43.1017V43.0917Z" fill="black"/>
</svg>
