<svg width="24" height="24" viewBox="0 0 24 24" fill="none" xmlns="http://www.w3.org/2000/svg">
<g clip-path="url(#clip0_3_44)">
<path fill-rule="evenodd" clip-rule="evenodd" d="M20 19.49C20 17.01 17.99 15 15.51 15C13.062 15 9.93801 15 7.49001 15C5.01001 15 3.00001 17.01 3.00001 19.49C3.00001 21.062 3.00001 22.5 3.00001 22.5C3.00001 22.776 3.22401 23 3.50001 23H19.5C19.776 23 20 22.776 20 22.5V19.49Z" fill="black"/>
<path d="M11.4996 12.0008C13.9849 12.0008 15.9996 9.98579 15.9996 7.50019C15.9996 5.01459 13.9849 2.9996 11.4996 2.9996C9.01434 2.9996 6.99963 5.01459 6.99963 7.50019C6.99963 9.98579 9.01434 12.0008 11.4996 12.0008Z" fill="black"/>
<path fill-rule="evenodd" clip-rule="evenodd" d="M15.5 12.5H20.5C20.776 12.5 21 12.276 21 12C21 11.724 20.776 11.5 20.5 11.5H15.5C15.224 11.5 15 11.724 15 12C15 12.276 15.224 12.5 15.5 12.5Z" fill="black"/>
<path fill-rule="evenodd" clip-rule="evenodd" d="M18.5 14.5V9.5C18.5 9.224 18.276 9 18 9C17.724 9 17.5 9.224 17.5 9.5V14.5C17.5 14.776 17.724 15 18 15C18.276 15 18.5 14.776 18.5 14.5Z" fill="black"/>
</g>
<defs>
<clipPath id="clip0_3_44">
<rect width="24" height="24" fill="white"/>
</clipPath>
</defs>
</svg>
