<svg width="190" height="189" viewBox="0 0 190 189" fill="none" xmlns="http://www.w3.org/2000/svg">
<path d="M133.808 62.4821V138.592C133.808 138.776 133.808 138.924 133.808 139.108C134.029 151.388 142.031 162.081 153.758 165.732L159.363 167.465C169.024 161.713 175.588 151.24 175.809 139.219C175.809 138.998 175.809 138.813 175.809 138.592V62.4821H133.808Z" fill="#F46262"/>
<path d="M68.6869 53.7796V50.3502C68.6869 46.8471 65.8475 44.0077 62.3444 44.0077C58.8413 44.0077 56.0019 46.8471 56.0019 50.3502V53.7796C56.0019 57.2827 58.8413 60.1221 62.3444 60.1221C65.8475 60.1221 68.6869 57.2827 68.6869 53.7796ZM61.2013 53.7796V50.3502C61.2013 49.7233 61.7175 49.1702 62.3813 49.1702C63.045 49.1702 63.5613 49.6864 63.5613 50.3502V53.7796C63.5613 54.4064 63.045 54.9596 62.3813 54.9596C61.7175 54.9596 61.2013 54.4064 61.2013 53.7796Z" fill="#F46262"/>
<path d="M81.63 46.2939C80.4131 45.5195 78.8275 45.8882 78.0531 47.0682L60.7588 74.1345C59.9844 75.3514 60.3531 76.937 61.5331 77.7114C61.9756 77.9695 62.455 78.117 62.9344 78.117C63.7825 78.117 64.6306 77.7114 65.11 76.937L82.4044 49.8707C83.2156 48.6539 82.8469 47.0682 81.63 46.2939Z" fill="#F46262"/>
<path d="M80.8556 63.9202C77.3525 63.9202 74.5131 66.7595 74.5131 70.2627V73.692C74.5131 77.1952 77.3525 80.0345 80.8556 80.0345C84.3588 80.0345 87.1981 77.1952 87.1981 73.692V70.2627C87.1613 66.7595 84.3219 63.9202 80.8556 63.9202ZM81.9988 73.6552C81.9988 74.282 81.4825 74.8352 80.8188 74.8352C80.155 74.8352 79.6388 74.3189 79.6388 73.6552V70.2258C79.6388 69.5989 80.155 69.0458 80.8188 69.0458C81.4825 69.0458 81.9988 69.562 81.9988 70.2258V73.6552Z" fill="#F46262"/>
<path d="M128.646 139.219C128.646 138.998 128.646 138.813 128.646 138.592V17.052H14.5913V138.592C14.5913 157.14 29.6363 172.148 48.1475 172.148H142.216C145.682 172.148 149.038 171.632 152.209 170.636C138.749 166.469 128.904 154.006 128.646 139.219ZM30.9269 36.4851H112.31V87.4832H30.9269V36.4851ZM112.31 144.713H46.525C45.0869 144.713 43.9438 143.57 43.9438 142.132C43.9438 140.694 45.0869 139.551 46.525 139.551H112.31C113.748 139.551 114.891 140.694 114.891 142.132C114.891 143.57 113.748 144.713 112.31 144.713ZM112.31 126.497H46.525C45.0869 126.497 43.9438 125.354 43.9438 123.916C43.9438 122.478 45.0869 121.334 46.525 121.334H112.31C113.748 121.334 114.891 122.478 114.891 123.916C114.891 125.354 113.748 126.497 112.31 126.497ZM112.31 108.318H30.9269C29.4888 108.318 28.3456 107.174 28.3456 105.736C28.3456 104.298 29.4888 103.155 30.9269 103.155H112.31C113.748 103.155 114.891 104.298 114.891 105.736C114.891 107.174 113.748 108.318 112.31 108.318Z" fill="#3B4652"/>
</svg>
