<svg width="220" height="220" viewBox="0 0 220 220" fill="none" xmlns="http://www.w3.org/2000/svg">
<path d="M118.12 102.643H101.879V159.589H118.12V102.643Z" fill="#656766"/>
<path d="M19.2422 177.283C19.2422 172.798 22.8779 169.163 27.3627 169.163H192.637C197.122 169.163 200.757 172.798 200.757 177.283C200.757 181.768 197.122 185.404 192.637 185.404H27.3627C22.8778 185.404 19.2422 181.768 19.2422 177.283Z" fill="#656766"/>
<path d="M151.488 167.385C148.155 191.455 119.976 210.208 112.072 215.031C110.801 215.806 109.235 215.808 107.965 215.034C100.105 210.244 72.178 191.687 68.562 167.823C66.4189 153.68 76.224 139.855 90.503 138.996C98.2793 138.528 105.395 141.819 110.017 147.271C114.502 141.92 121.389 138.651 129.056 138.973C143.348 139.574 153.45 153.216 151.488 167.385Z" fill="#EC6E62"/>
<path d="M190.666 5.05371H29.3338C15.7398 5.05371 4.71973 16.0738 4.71973 29.6678V29.6678C4.71973 43.2618 15.7398 54.2819 29.3338 54.2819H190.666C204.26 54.2819 215.28 43.2618 215.28 29.6678V29.6678C215.28 16.0738 204.26 5.05371 190.666 5.05371Z" fill="#E7E3E6"/>
<path d="M28.3905 38.8162C33.443 38.8162 37.5389 34.7204 37.5389 29.6679C37.5389 24.6154 33.443 20.5195 28.3905 20.5195C23.338 20.5195 19.2422 24.6154 19.2422 29.6679C19.2422 34.7204 23.338 38.8162 28.3905 38.8162Z" fill="#EC6E62"/>
<path d="M52.7321 38.8162C57.7846 38.8162 61.8804 34.7204 61.8804 29.6679C61.8804 24.6154 57.7846 20.5195 52.7321 20.5195C47.6796 20.5195 43.5837 24.6154 43.5837 29.6679C43.5837 34.7204 47.6796 38.8162 52.7321 38.8162Z" fill="#85BD57"/>
<path d="M77.0739 38.8162C82.1264 38.8162 86.2222 34.7204 86.2222 29.6679C86.2222 24.6154 82.1264 20.5195 77.0739 20.5195C72.0214 20.5195 67.9255 24.6154 67.9255 29.6679C67.9255 34.7204 72.0214 38.8162 77.0739 38.8162Z" fill="#53B1E2"/>
<path d="M190.666 69.3472H29.3338C15.7398 69.3472 4.71973 80.3673 4.71973 93.9612V93.9613C4.71973 107.555 15.7398 118.575 29.3338 118.575H190.666C204.26 118.575 215.28 107.555 215.28 93.9613V93.9612C215.28 80.3673 204.26 69.3472 190.666 69.3472Z" fill="#E7E3E6"/>
<path d="M28.3905 103.11C33.443 103.11 37.5389 99.0138 37.5389 93.9613C37.5389 88.9088 33.443 84.813 28.3905 84.813C23.338 84.813 19.2422 88.9088 19.2422 93.9613C19.2422 99.0138 23.338 103.11 28.3905 103.11Z" fill="#EC6E62"/>
<path d="M52.7321 103.11C57.7846 103.11 61.8804 99.0138 61.8804 93.9613C61.8804 88.9088 57.7846 84.813 52.7321 84.813C47.6796 84.813 43.5837 88.9088 43.5837 93.9613C43.5837 99.0138 47.6796 103.11 52.7321 103.11Z" fill="#85BD57"/>
<path d="M77.0739 103.11C82.1264 103.11 86.2222 99.0138 86.2222 93.9613C86.2222 88.9088 82.1264 84.813 77.0739 84.813C72.0214 84.813 67.9255 88.9088 67.9255 93.9613C67.9255 99.0138 72.0214 103.11 77.0739 103.11Z" fill="#53B1E2"/>
<path d="M189.693 54.2817H30.3062V69.3469H189.693V54.2817Z" fill="#D2D2D2"/>
</svg>
