<svg width="32" height="32" viewBox="0 0 32 32" fill="none" xmlns="http://www.w3.org/2000/svg">
<path d="M20.9609 25V30C20.9609 30.55 20.5109 31 19.9609 31H15.9609C15.4109 31 14.9609 30.55 14.9609 30V25H17.9609H20.9609Z" fill="#668077"/>
<path d="M17.9609 1C17.9609 1 21.9609 6 21.9609 12C21.9609 18 17.9609 25 17.9609 25C17.9609 25 13.9609 18 13.9609 12C13.9609 6 17.9609 1 17.9609 1Z" fill="#FFE6EA"/>
<path fill-rule="evenodd" clip-rule="evenodd" d="M17.961 1C12.931 1 8.581 4.66 7.381 9C7.081 10.09 6.961 11.08 7.011 12C7.081 13.41 7.531 14.69 8.251 16C8.931 17.25 9.871 18.54 10.961 20C12.0984 22.3342 13.7041 23.8255 14.5734 24.6328C14.7282 24.7766 14.8597 24.8987 14.961 25H17.961H20.961C24.961 21 28.961 17 28.961 12C28.961 5.92 24.041 1 17.961 1ZM17.961 1C17.961 1 21.961 6 21.961 12C21.961 18 17.961 25 17.961 25C17.961 25 13.961 18 13.961 12C13.961 6 17.961 1 17.961 1Z" fill="#FFC44D"/>
<path d="M10 16H4M9 12H3M18 25H21M18 25C18 25 22 18 22 12C22 6 18 1 18 1M18 25C18 25 14 18 14 12C14 6 18 1 18 1M21 25V30C21 30.553 20.553 31 20 31H16C15.447 31 15 30.553 15 30V25C14.33 24.33 12.344 22.75 11 20H5M21 25C25 21 29 17 29 12C29 5.925 24.075 1 18 1M18 1C12.966 1 8.721 4.382 7.415 8.998" stroke="black" stroke-width="2" stroke-linecap="round" stroke-linejoin="round"/>
</svg>
