<svg width="48" height="48" viewBox="0 0 48 48" fill="none" xmlns="http://www.w3.org/2000/svg">
<rect width="48" height="48" fill="white"/>
<path d="M23.9355 39.6237C32.5426 39.6237 39.5198 32.6462 39.5198 24.0393C39.5198 15.4326 32.5426 8.4549 23.9355 8.4549C15.3286 8.4549 8.35101 15.4326 8.35101 24.0393C8.35091 32.6462 15.3286 39.6237 23.9355 39.6237Z" fill="white"/>
<path d="M36.8384 26.6486C36.9246 26.2191 36.9898 25.7866 37.0327 25.3534C37.075 24.9264 37.0967 24.4882 37.0967 24.0394C37.0967 20.4051 35.6235 17.1149 33.2418 14.733C30.86 12.3516 27.5697 10.8782 23.9354 10.8782C23.8832 10.8782 23.8298 10.8785 23.7754 10.879L23.7694 10.3663C23.8236 10.3656 23.879 10.3652 23.9354 10.3652C27.7113 10.3652 31.1297 11.8959 33.6043 14.3705C36.0789 16.8451 37.6096 20.2635 37.6096 24.0394C37.6096 24.4945 37.5866 24.9497 37.5417 25.4036C37.4961 25.8638 37.4288 26.3128 37.3411 26.7487L36.8384 26.6486Z" fill="#D2122E"/>
<path d="M36.3685 26.5557C36.4513 26.1449 36.5141 25.728 36.5558 25.3066C36.597 24.8912 36.6184 24.4686 36.6184 24.0394C36.6184 20.5374 35.1986 17.3667 32.9033 15.0715C30.6085 12.7766 27.4378 11.3568 23.9357 11.3568C23.9073 11.3568 23.8789 11.357 23.8503 11.3571C23.8224 11.3574 23.7943 11.3574 23.7654 11.3582L23.7639 11.23C23.792 11.2295 23.821 11.2292 23.8498 11.229C23.8783 11.2289 23.907 11.2288 23.9357 11.2288C27.4731 11.2288 30.676 12.6628 32.9941 14.9811C35.3125 17.2993 36.7466 20.5021 36.7466 24.0395C36.7466 24.4703 36.7251 24.8972 36.6831 25.319C36.6406 25.7476 36.5772 26.1688 36.4943 26.5809L36.3685 26.5557Z" fill="#D2122E"/>
<path d="M37.6823 26.8297C37.7743 26.3741 37.8442 25.912 37.8907 25.4446C37.9364 24.9837 37.96 24.5149 37.96 24.0393C37.96 20.1667 36.3903 16.6606 33.8523 14.1225C31.3144 11.5847 27.8082 10.015 23.9355 10.015C23.9072 10.015 23.8788 10.0151 23.8501 10.0151C23.8223 10.0152 23.7939 10.0156 23.7652 10.0158L23.7637 9.88772C23.7918 9.88731 23.8206 9.8872 23.8497 9.88689C23.8782 9.88689 23.9068 9.88647 23.9355 9.88647C27.8436 9.88647 31.3817 11.4709 33.9431 14.0319C36.504 16.5931 38.0881 20.1311 38.0881 24.0392C38.0881 24.5164 38.0643 24.9895 38.018 25.457C37.9707 25.9315 37.9002 26.3977 37.808 26.8547L37.6823 26.8297Z" fill="#D2122E"/>
<path d="M10.7952 23.2972C10.7879 23.4274 10.7827 23.5508 10.7793 23.6679C10.7759 23.7934 10.7742 23.9175 10.7742 24.0393C10.7742 27.6737 12.2474 30.9641 14.6289 33.3457C17.0108 35.7271 20.3011 37.2007 23.9355 37.2007C24.2547 37.2007 24.5775 37.1885 24.9027 37.1647C25.2337 37.1406 25.5527 37.1062 25.8603 37.061L25.9342 37.568C25.5978 37.6171 25.2657 37.6543 24.9388 37.6777C24.6134 37.7014 24.2789 37.7134 23.9356 37.7134C20.1598 37.7134 16.741 36.1828 14.2665 33.7082C11.792 31.2335 10.2614 27.8151 10.2614 24.0393C10.2614 23.9081 10.2634 23.7795 10.2666 23.6538C10.2706 23.5183 10.2758 23.3899 10.2823 23.2693L10.7952 23.2972Z" fill="#D2122E"/>
<path d="M11.2711 23.3513C11.265 23.4671 11.2604 23.5814 11.2574 23.6944C11.2544 23.8094 11.2528 23.9246 11.2528 24.0393C11.2528 27.5414 12.6725 30.7121 14.9675 33.0072C17.2626 35.3023 20.4333 36.7217 23.9355 36.7217C24.2501 36.7217 24.5642 36.7102 24.8759 36.6873C25.1921 36.6642 25.5028 36.6298 25.8078 36.5846L25.8263 36.7115C25.5138 36.7577 25.2001 36.7926 24.885 36.8156C24.5732 36.8384 24.2563 36.8502 23.9355 36.8502C20.398 36.8502 17.1952 35.4161 14.8768 33.0977C12.5585 30.7797 11.1246 27.5769 11.1246 24.0393C11.1246 23.9226 11.1261 23.8066 11.1292 23.6915C11.1321 23.5738 11.1369 23.458 11.1429 23.3448L11.2711 23.3513Z" fill="#D2122E"/>
<path d="M9.93434 23.2233C9.92655 23.3603 9.92063 23.4964 9.91678 23.6311C9.91294 23.7671 9.91097 23.9034 9.91097 24.0394C9.91097 27.912 11.4807 31.4182 14.0186 33.9561C16.5566 36.4938 20.0628 38.0638 23.9355 38.0638C24.2771 38.0638 24.6175 38.0511 24.9558 38.027C25.2991 38.0024 25.6363 37.9656 25.9673 37.9177L25.9851 38.0442C25.6462 38.0935 25.3059 38.1309 24.965 38.1553C24.6266 38.1792 24.2831 38.1921 23.9355 38.1921C20.0273 38.1921 16.4891 36.6079 13.928 34.0466C11.367 31.4855 9.78265 27.9476 9.78265 24.0395C9.78265 23.901 9.78473 23.7638 9.78858 23.6277C9.79263 23.4885 9.79845 23.3512 9.80624 23.2165L9.93434 23.2233Z" fill="#D2122E"/>
<path fill-rule="evenodd" clip-rule="evenodd" d="M27.5605 37.1159L27.2273 37.2039L27.2473 36.6362L27.5605 37.1159ZM27.3146 36.2729L27.0016 36.3552L26.9216 37.8231L27.2073 37.7475L27.2178 37.4586L27.7018 37.3311L27.8614 37.5754L28.1519 37.4989L27.3146 36.2729Z" fill="black"/>
<path fill-rule="evenodd" clip-rule="evenodd" d="M29.1637 35.6118L29.3881 35.5185L29.9258 36.8097L29.6685 36.9171L29.3324 36.1103L29.2225 36.6317L29.1832 36.6481L28.7354 36.3587L29.0715 37.1657L28.814 37.2728L28.2761 35.9812L28.5002 35.8878L29.0316 36.2288L29.1637 35.6118Z" fill="black"/>
<path fill-rule="evenodd" clip-rule="evenodd" d="M30.7791 35.1663C30.5932 35.1692 30.4919 35.1871 30.4093 35.2346C30.3226 35.2844 30.2896 35.3557 30.3244 35.4159C30.4298 35.599 30.8936 35.2635 31.1372 35.6869C31.2711 35.9196 31.1922 36.145 30.9761 36.2691C30.807 36.3665 30.6913 36.3596 30.5585 36.3532L30.4082 36.0918C30.6141 36.1269 30.723 36.1188 30.8296 36.0578C30.9224 36.0042 30.9484 35.935 30.9075 35.8638C30.7929 35.6647 30.3413 36.0213 30.0907 35.586C29.9703 35.376 30.0354 35.1539 30.2602 35.0248C30.3682 34.9622 30.4828 34.9345 30.643 34.9298L30.7791 35.1663Z" fill="black"/>
<path fill-rule="evenodd" clip-rule="evenodd" d="M32.0904 34.1139L31.765 34.3558L32.4466 35.2731L32.2227 35.4393L31.5412 34.5223L31.2158 34.7638L31.0628 34.558L31.9375 33.9084L32.0904 34.1139Z" fill="black"/>
<path fill-rule="evenodd" clip-rule="evenodd" d="M33.9218 33.9906L33.3219 34.5578L32.3607 33.5412L32.952 32.9819L33.1283 33.1683L32.7396 33.5356L32.9412 33.7488L33.312 33.3983L33.4881 33.5845L33.1173 33.9354L33.3485 34.1796L33.7454 33.8041L33.9218 33.9906Z" fill="black"/>
<path fill-rule="evenodd" clip-rule="evenodd" d="M33.7498 32.4864L33.8406 32.378C33.9081 32.2976 33.9837 32.2904 34.0638 32.3579C34.155 32.4343 34.1379 32.5182 34.0883 32.5774L33.9934 32.6907L33.7498 32.4864ZM33.3741 32.5353L34.4458 33.4345L34.6253 33.2207L34.19 32.8551L34.2416 32.7936C34.3388 32.6781 34.573 32.8168 34.8795 32.9176L35.0768 32.6824C34.6611 32.5395 34.5071 32.4548 34.3783 32.4968C34.4039 32.3516 34.357 32.2284 34.2392 32.1294C34.0789 31.9952 33.8434 31.9757 33.6959 32.1514L33.3741 32.5353Z" fill="black"/>
<path fill-rule="evenodd" clip-rule="evenodd" d="M34.6757 31.2743L34.7728 31.1239C34.916 30.9017 35.1427 30.925 35.3444 31.0553C35.5167 31.1663 35.6713 31.3657 35.5192 31.6017L35.4205 31.7547L34.6757 31.2743ZM34.3091 31.3697L35.4847 32.1282L35.7355 31.7394C35.9774 31.3642 35.8397 31.0327 35.5018 30.8149C35.1796 30.6069 34.7983 30.6113 34.5767 30.9545L34.3091 31.3697Z" fill="black"/>
<path fill-rule="evenodd" clip-rule="evenodd" d="M36.2387 29.7656L36.0894 30.076L35.6705 29.6927L36.2387 29.7656ZM35.4374 29.4056L35.2974 29.6971L36.3625 30.7103L36.4905 30.4439L36.2771 30.2485L36.494 29.7972L36.7836 29.8345L36.9137 29.5639L35.4374 29.4056Z" fill="black"/>
<path fill-rule="evenodd" clip-rule="evenodd" d="M36.1342 27.5677L36.2085 27.3364L37.5404 27.7645L37.4552 28.0301L36.6231 27.7631L36.9486 28.1846L36.9354 28.2253L36.4253 28.3782L37.2573 28.6457L37.1719 28.9113L35.84 28.4833L35.9143 28.2519L36.5183 28.0688L36.1342 27.5677Z" fill="black"/>
<path fill-rule="evenodd" clip-rule="evenodd" d="M10.2353 20.2227L11.7251 20.0937L11.4394 21.1425L10.2353 20.2227ZM12.5903 22.037L11.9785 21.5649L12.3956 20.034L13.1539 19.9677L13.4107 19.0256L9.48378 19.4426L9.20441 20.4684L12.3325 22.9843L12.5903 22.037Z" fill="black"/>
<path fill-rule="evenodd" clip-rule="evenodd" d="M14.257 18.4463C14.3813 18.258 14.4298 18.1073 14.4027 17.9938C14.3755 17.8804 14.2404 17.7377 13.997 17.5659L11.3 15.6584L11.8326 14.9051L14.5556 16.8304C14.9773 17.1289 15.2227 17.4088 15.2917 17.6703C15.3606 17.9321 15.2759 18.2417 15.0375 18.6002L14.257 18.4463Z" fill="black"/>
<path fill-rule="evenodd" clip-rule="evenodd" d="M15.535 12.5562L16.7838 13.3803L15.9117 14.025L15.535 12.5562ZM16.2615 15.4391L16.0717 14.6873L17.3449 13.7463L17.9823 14.1673L18.7657 13.5882L15.4295 11.4817L14.5764 12.1122L15.4723 16.0222L16.2615 15.4391Z" fill="black"/>
<path fill-rule="evenodd" clip-rule="evenodd" d="M19.3245 13.3106L20.419 11.1107L18.6064 9.7008L19.7356 9.4473L20.8288 10.307L21.4547 9.06143L22.5785 8.80896L21.5303 10.8503L23.5154 12.3696L22.3608 12.6286L21.1354 11.6722L20.4423 13.0597L19.3245 13.3106Z" fill="black"/>
<path d="M14.5005 29.7934C14.5051 29.7925 16.0935 29.4129 19.6254 30.959C19.6845 30.9801 20.3194 31.2034 20.7822 31.2693C20.7722 31.2388 20.7367 31.1822 20.6344 31.0801C20.5439 30.9892 20.4532 30.8988 20.6344 30.7176C20.8158 30.5364 20.9065 30.6268 20.9969 30.7176C21.7348 31.4552 20.9841 31.7729 20.982 31.7742L20.8587 31.7962C20.318 31.7513 19.4488 31.4389 19.4463 31.4384L19.4312 31.4323C16.047 29.949 14.6128 30.2937 14.6087 30.2942C14.4834 30.322 14.3581 30.3492 14.3041 30.099C14.2501 29.8483 14.3753 29.8209 14.5005 29.7934ZM22.0631 24.2124C21.9535 24.3089 21.6652 24.5877 21.6247 24.8856L21.6069 25.0153L21.4924 25.0764C21.4909 25.0775 20.9426 25.3745 20.2594 25.4885C20.1329 25.5091 20.0065 25.5304 19.9644 25.2779C19.9225 25.0258 20.0488 25.0047 20.1751 24.9834C20.6082 24.9113 20.9765 24.7569 21.1475 24.6766C21.2468 24.325 21.5174 24.0275 21.6741 23.8778L21.4393 22.3904L21.8419 22.1438L23.2379 23.1591C23.3395 23.2153 23.3773 23.2707 23.3828 23.3253C23.3904 23.3725 23.3752 23.4314 23.3214 23.5104C22.9751 24.1789 23.1677 24.2888 23.1682 24.2892L23.2032 24.3142C23.5486 24.6065 23.6514 25.0952 23.6514 25.0965L23.6536 25.1063C23.8837 26.4247 23.473 26.9185 23.3702 27.0189C23.1612 27.2765 22.8351 28.0423 22.7721 28.1921C22.6083 29.0235 21.8105 29.0456 21.6428 29.041C20.9408 29.1804 20.6881 29.3246 20.6873 29.3251L20.6622 29.338C19.9522 29.6512 19.4143 29.4604 19.2606 29.3915C18.65 29.2613 18.4485 28.9738 18.448 28.973L18.4169 28.9129C18.203 28.3249 17.8729 28.2149 17.8719 28.2145L17.7887 28.1684C16.8534 27.3935 17.5098 26.5182 17.5117 26.5155L17.5357 26.4867C17.5894 26.4329 17.7224 26.2423 17.8461 26.0592C17.772 26.0392 17.7171 25.981 17.7171 25.8131C17.7171 25.5567 17.8453 25.5567 17.9734 25.5567H18.1997C18.2429 25.5276 18.2987 25.5199 18.3804 25.5567H18.7213C18.8494 25.5567 18.9778 25.5567 18.9778 25.8131C18.9778 26.0695 18.8494 26.0695 18.7213 26.0695H18.4532C18.3163 26.2775 18.0329 26.702 17.913 26.8335C17.8603 26.9136 17.6175 27.3393 18.0899 27.7522C18.2379 27.8228 18.6375 28.0634 18.8809 28.6942C18.9195 28.7312 19.0475 28.8265 19.3911 28.8952L19.4664 28.9234C19.4674 28.9239 19.8455 29.1377 20.4529 28.8707C20.5393 28.827 20.8853 28.6669 21.5795 28.532L21.6436 28.5268C21.6451 28.5268 22.1852 28.5717 22.2727 28.0768L22.2886 28.0238C22.2899 28.0208 22.7109 27.0017 22.9931 26.6726L23.0272 26.6386C23.0279 26.638 23.3567 26.3897 23.1492 25.1976C23.1376 25.1483 23.0644 24.8672 22.8726 24.7049L22.8748 24.7066C22.7637 24.6184 22.4291 24.2696 22.779 23.4589L22.0403 22.9218L22.1912 23.8772C22.2451 23.967 22.2393 24.0285 22.208 24.0779C22.1978 24.1347 22.161 24.1833 22.0631 24.2124ZM28.6154 33.6685V33.6691V33.6697C28.616 33.6868 28.6226 33.862 28.6363 33.8493L28.6425 33.8446C28.6436 33.8436 29.0554 33.5043 29.2158 31.9625L29.2207 31.9312C29.2219 31.927 29.5712 30.3752 30.7729 31.8617C30.8518 31.9421 31.5458 32.6357 31.584 32.044C31.5013 31.7965 31.1147 30.6396 31.0352 30.4158C30.9549 30.2759 30.4763 29.3449 31.9663 29.3173H31.9844C31.9871 29.3173 32.9152 29.3617 33.8952 29.7178C34.0154 29.7616 34.1361 29.8053 34.049 30.0458C33.9618 30.2862 33.8412 30.2426 33.721 30.1987C32.8641 29.8874 32.0421 29.835 31.9626 29.8304C31.2778 29.8467 31.4841 30.1662 31.4846 30.1668L31.5045 30.2111C31.5768 30.404 32.0829 31.9243 32.0844 31.9285L32.0986 32.0137C32.067 33.9665 30.4018 32.2131 30.3968 32.2084L30.3818 32.1915C29.8845 31.5724 29.7432 31.962 29.7222 32.0342C29.5382 33.7666 28.9746 34.2335 28.9726 34.2349L28.979 34.2301C28.291 34.8492 28.1422 34.0915 28.1107 33.7942C28.1031 33.7602 28.1026 33.7226 28.1026 33.6849V33.6843C28.1015 33.656 28.1006 33.6281 28.1026 33.6011V32.2662C28.1026 31.1962 27.691 31.5283 27.6268 31.5864C26.1698 33.1913 25.3565 35.7558 25.3544 35.7631C25.315 35.8852 25.276 36.0072 25.0325 35.9291C24.7892 35.8511 24.8284 35.729 24.8674 35.607C24.8699 35.5992 25.7175 32.9253 27.2506 31.2389L27.2616 31.2278C27.2655 31.2244 28.5978 29.8954 28.6147 32.2218C28.6153 32.2364 28.6153 32.2512 28.6153 32.2662V32.2724V32.2783V32.2844V33.6685H28.6154ZM27.6217 31.5911C27.6195 31.5933 27.6184 31.5946 27.6184 31.5946L27.6217 31.5911ZM29.7194 32.0444C29.7194 32.0451 29.7194 32.0456 29.7194 32.0456V32.0444ZM19.3829 21.0461C19.3821 21.047 19.0701 21.398 19.2255 21.4106C19.3803 21.3954 20.3027 21.3356 20.3027 22.0948V22.0739C20.3029 22.0763 20.4042 23.0305 19.3645 22.7705L19.2794 22.7323C19.2792 22.7323 19.2059 22.6791 19.2301 23.2394C19.2336 23.2653 19.2341 23.2925 19.2342 23.3199L19.2344 23.3211C19.2362 23.357 19.2382 23.3929 19.2344 23.4262V24.3138C19.4296 24.5691 19.9355 25.3527 18.7802 25.3456C18.7442 25.3517 18.7049 25.3479 18.6652 25.3426C18.6194 25.3405 18.5738 25.3384 18.5345 25.3246L18.0251 25.2541C17.8981 25.237 17.7711 25.2193 17.8052 24.966C17.8392 24.7124 17.9662 24.73 18.0932 24.7475L18.6924 24.8299C18.9176 24.8392 18.8816 24.7186 18.8342 24.6388C18.7583 24.6111 18.7334 24.5576 18.7254 24.4957C18.69 24.4417 18.6747 24.3827 18.7215 24.3075V23.347C18.6413 21.8754 19.3341 22.1725 19.5258 22.2818C19.8147 22.3373 19.79 22.1164 19.79 22.1158V22.0948C19.79 21.8539 19.267 21.9216 19.2654 21.9218L19.2344 21.9237C17.9146 21.9237 18.9973 20.7108 19.0004 20.7074C19.0854 20.6115 19.1706 20.5156 19.3617 20.6848C19.5531 20.8542 19.4679 20.9503 19.3829 21.0461ZM17.8942 20.817C17.8929 20.8158 17.4633 20.3648 17.4025 20.2432C17.3826 20.2039 17.3686 20.1692 17.3585 20.1396C17.2338 19.9561 16.7678 19.1527 18.2754 19.2976L18.3246 19.3065C18.3361 19.31 22.274 20.4353 28.4111 26.5078L28.409 26.5058C28.4114 26.5082 29.3011 27.3648 28.0891 27.7253L28.0689 27.7302C28.0676 27.7306 27.5559 27.8272 27.6006 28.363C27.7357 28.5566 27.977 29.0724 26.9689 29.3306L26.9479 29.3345C26.9461 29.3349 26.2941 29.4375 26.0097 29.5702L25.9455 29.5913C25.9433 29.5917 25.1957 29.7368 25.2818 28.4456L25.2949 28.3825C25.2952 28.3809 25.466 27.8687 25.2067 27.5282C25.1304 27.4282 25.014 27.4036 24.9102 27.3818C24.5591 27.3078 24.2755 27.2481 24.3416 26.4954C24.3416 26.4726 24.3455 26.1825 24.4461 25.9314C24.4936 25.8126 24.5413 25.6936 24.7785 25.7885C25.0159 25.8839 24.9684 26.003 24.9207 26.1217C24.8544 26.2878 24.8544 26.4963 24.8544 26.4965L24.8521 26.5206C24.8218 26.84 24.9078 26.8583 25.0142 26.881C25.2063 26.9212 25.4225 26.9672 25.6133 27.2177C25.9818 27.7011 25.8377 28.3418 25.7931 28.5042C25.7627 28.988 25.8215 29.0704 25.8465 29.0838C26.1846 28.9437 26.7534 28.8478 26.8496 28.8323C27.2537 28.727 27.1685 28.6383 27.1681 28.6379L27.1011 28.5006C26.9458 27.4917 27.8377 27.2576 27.9526 27.2316C28.3102 27.1207 28.0528 26.8732 28.0523 26.8724L28.0501 26.8705C22.2569 21.138 18.5093 19.8993 18.1995 19.8039C17.7058 19.7599 17.7928 19.8677 17.7931 19.8678L17.8453 20.0221C17.8453 20.0222 17.8453 19.9835 17.8607 20.0147C17.8854 20.0639 18.2655 20.4653 18.2665 20.4664C18.3544 20.5597 18.4422 20.6531 18.2559 20.8286C18.0698 21.0036 17.9821 20.9102 17.8942 20.817ZM24.0333 28.4422C24.0325 28.4455 23.7251 29.6095 23.4294 30.1101L23.4154 30.1312C23.4139 30.1331 22.9046 30.8249 23.4928 30.5034L23.5239 30.4884C23.5264 30.4874 24.3628 30.1568 24.9088 30.0886C25.036 30.0728 25.1632 30.0568 25.1944 30.3114C25.2253 30.5656 25.098 30.5816 24.9711 30.5975C24.5246 30.6533 23.8155 30.9243 23.7178 30.9626C21.2318 32.3141 22.8578 30.0286 22.9938 29.8409C23.2522 29.3959 23.5378 28.315 23.5387 28.3119C23.5716 28.1881 23.6047 28.0642 23.8521 28.1292C24.0994 28.1943 24.0662 28.3183 24.0333 28.4422ZM30.7385 14.947C31.3301 15.11 33.7811 16.0009 33.7811 19.5732V19.5703C33.7814 19.5857 33.9161 24.9743 28.8772 24.9743H28.8962C28.8895 24.9747 26.5834 25.1823 25.4363 22.5111L25.4281 22.4881C25.4266 22.483 24.8431 20.6336 23.8638 20.647L23.8066 20.6411C23.8059 20.6408 23.5236 20.5723 23.1084 20.9096C23.009 20.9902 22.9097 21.0712 22.7483 20.8728C22.5871 20.6744 22.6865 20.5935 22.786 20.5128C23.3057 20.0905 23.7575 20.1169 23.8813 20.1344C25.1538 20.1411 25.8371 22.0962 25.9088 22.3122C26.9095 24.6375 28.8523 24.4617 28.8581 24.4611H28.8774C33.39 24.4611 33.2685 19.5902 33.2685 19.5762V19.5732C33.2685 16.6885 31.536 15.7658 30.8164 15.5066V17.0538C32.1438 18.0229 32.1786 19.1252 32.1786 19.1285C32.1849 19.2565 32.191 19.3846 31.9346 19.3966C31.6779 19.4086 31.672 19.2806 31.6658 19.1526C31.6656 19.15 31.639 18.2643 30.4711 17.4356C30.3698 17.419 30.3297 17.372 30.3136 17.3126C30.2761 17.2666 30.2618 17.2079 30.3033 17.1182V15.2769C30.2952 15.243 30.2944 15.1994 30.3033 15.1434C30.304 15.065 30.31 14.9896 30.3815 14.9464C30.4363 14.8884 30.5092 14.8956 30.5835 14.9101C30.655 14.9126 30.7043 14.9261 30.7385 14.947ZM25.9142 22.3292C25.9147 22.3308 25.915 22.3316 25.9152 22.3318L25.9142 22.3292ZM18.3212 22.0989C18.319 22.1021 17.5825 23.3233 17.5058 23.5148L17.4697 23.5779C17.4692 23.5786 17.2603 23.8442 17.5291 23.8947L17.5962 23.9168C17.5965 23.917 17.713 23.9752 17.9095 23.9752C18.0377 23.9752 18.1659 23.9752 18.1659 24.2316C18.1659 24.4883 18.0378 24.4883 17.9095 24.4883C17.6671 24.4883 17.4787 24.4222 17.4036 24.3912C16.4592 24.1957 16.9367 23.4441 17.0464 23.2895C17.1876 22.9857 17.8803 21.8379 17.8825 21.8344C17.9485 21.7248 18.0146 21.6148 18.2339 21.747C18.4535 21.8792 18.3874 21.9889 18.3212 22.0989ZM17.3684 24.3755C17.3683 24.3755 17.368 24.3755 17.368 24.3755H17.3684ZM23.1503 25.2012L23.1508 25.2043C23.1508 25.2043 23.1506 25.2034 23.1503 25.2012ZM22.907 24.7293L22.9077 24.7297C22.9078 24.7296 22.9075 24.7296 22.907 24.7293ZM19.3542 18.6116C19.3567 18.6116 20.2596 18.6122 22.3911 17.2274L22.3831 17.2324C22.3904 17.2274 24.9009 15.455 26.9035 15.4383H26.9127C26.9165 15.4385 28.3326 15.4722 29.2785 16.1256C29.3839 16.1984 29.4894 16.2713 29.3443 16.4816C29.199 16.692 29.0936 16.6191 28.9881 16.5463C28.1901 15.9951 26.9622 15.9532 26.9011 15.9515C25.0584 15.9708 22.6844 17.6463 22.6775 17.651L22.6695 17.6561C20.41 19.124 19.3631 19.1244 19.36 19.1244C19.2319 19.1259 19.1037 19.1277 19.1005 18.8711C19.0978 18.6149 19.226 18.6132 19.3542 18.6116ZM29.3851 29.0823C29.3833 29.0823 28.7696 29.1289 28.7651 29.6746C28.7673 29.7136 28.8054 30.129 29.3633 30.129L29.4344 30.1402C29.4353 30.1404 29.8065 30.2622 30.0641 29.5701C30.1087 29.4501 30.1535 29.3297 30.3929 29.4188C30.6325 29.508 30.5876 29.6283 30.5427 29.7485C30.1751 30.7364 29.5128 30.6771 29.3362 30.6416C28.2808 30.626 28.252 29.6921 28.252 29.6895V29.6806C28.252 28.6506 29.338 28.5695 29.3411 28.5692C29.4688 28.558 29.5965 28.5463 29.6186 28.8029C29.6406 29.0592 29.5128 29.071 29.3851 29.0823ZM19.7893 32.8685C19.7937 32.8693 21.3296 33.1135 21.5188 35.1708C21.5305 35.2984 21.5422 35.4259 21.2879 35.4489C21.0334 35.4722 21.0217 35.3443 21.01 35.2167C20.8572 33.5557 19.7083 33.3739 19.7051 33.3734C19.5788 33.3518 19.4523 33.3304 19.4945 33.0779C19.5366 32.8256 19.6629 32.8471 19.7893 32.8685Z" fill="black"/>
</svg>
