<svg width="48" height="48" viewBox="0 0 48 48" fill="none" xmlns="http://www.w3.org/2000/svg">
<rect width="48" height="48" rx="4" fill="#F2CF5B"/>
<mask id="mask0_0_436" style="mask-type:luminance" maskUnits="userSpaceOnUse" x="0" y="0" width="48" height="48">
<rect width="48" height="48" rx="4" fill="white"/>
</mask>
<g mask="url(#mask0_0_436)">
<path fill-rule="evenodd" clip-rule="evenodd" d="M7.2099 19.383C7.2099 12.8768 12.8346 7.62988 19.8025 7.62988C26.7704 7.62988 32.3951 12.8768 32.4371 19.383C32.4371 25.8891 26.8124 31.1361 19.8445 31.1361C17.4099 31.1361 15.1432 30.5064 13.2124 29.3731C13.0025 29.2472 12.7506 29.2052 12.4988 29.2891L8.80496 30.5904C8.13336 30.8003 7.50373 30.2126 7.7136 29.541L8.88891 25.8052C8.97286 25.5953 8.93089 25.3435 8.80496 25.1336C7.79755 23.4126 7.2099 21.4817 7.2099 19.383ZM19.4247 23.2027L25.8469 16.7805C26.0988 16.5706 26.0988 16.1509 25.8469 15.899L24.9655 15.0175C24.7136 14.7657 24.3358 14.7657 24.084 15.0175L18.5432 20.5583L16.3185 18.3336C16.0667 18.0817 15.6889 18.0817 15.4371 18.3336L14.5556 19.2151C14.3037 19.4669 14.3037 19.8447 14.5556 20.0965L17.6618 23.2027C17.9136 23.4546 18.2074 23.5805 18.5432 23.5805C18.879 23.5805 19.1729 23.4546 19.4247 23.2027Z" fill="white"/>
<path fill-rule="evenodd" clip-rule="evenodd" d="M41 24.6299V40.5805H25.0494L41 24.6299ZM37.9358 36.257L39.237 34.9138C39.321 34.7879 39.321 34.62 39.1531 34.62L37.3481 34.3262C37.3062 34.3262 37.2642 34.2842 37.2222 34.2422L36.4247 32.5212C36.3407 32.3953 36.1728 32.3953 36.1309 32.5212L35.3333 34.2422C35.2914 34.2842 35.2494 34.3262 35.2074 34.3262L33.4025 34.62C33.2765 34.662 33.2346 34.7879 33.3185 34.9138L34.6197 36.257C34.6617 36.257 34.6617 36.341 34.6617 36.383L34.3679 38.2719C34.3259 38.3978 34.4518 38.4817 34.5778 38.4398L36.2568 37.5583C36.2988 37.5163 36.3407 37.5163 36.3827 37.5583L37.9778 38.4398C38.0617 38.5237 38.2296 38.3978 38.1876 38.2719L37.8938 36.383C37.8938 36.341 37.8938 36.299 37.9358 36.257Z" fill="white" fill-opacity="0.65"/>
</g>
</svg>
