<svg width="48" height="48" viewBox="0 0 48 48" fill="none" xmlns="http://www.w3.org/2000/svg">
<rect width="48" height="48" rx="4" fill="#F2CF5B"/>
<mask id="mask0_0_446" style="mask-type:luminance" maskUnits="userSpaceOnUse" x="0" y="0" width="48" height="48">
<rect width="48" height="48" rx="4" fill="white"/>
</mask>
<g mask="url(#mask0_0_446)">
<path d="M36.0244 33.5366C35.5683 33.5366 35.1951 33.9098 35.1951 34.3659V34.7805H36.8537V34.3659C36.8537 33.9098 36.4805 33.5366 36.0244 33.5366Z" fill="white" fill-opacity="0.65"/>
<path fill-rule="evenodd" clip-rule="evenodd" d="M40.5854 24.4146V40.1706H24.8293L40.5854 24.4146ZM37.8903 38.0975C38.222 38.0975 38.5122 37.8072 38.5122 37.4755V35.4024C38.5122 35.0706 38.222 34.7804 37.8903 34.7804H37.6829V34.3658C37.6829 33.4536 36.9366 32.7072 36.0244 32.7072C35.1122 32.7072 34.3659 33.4536 34.3659 34.3658V34.7804H34.1586C33.8268 34.7804 33.5366 35.0706 33.5366 35.4024V37.4755C33.5366 37.8072 33.8268 38.0975 34.1586 38.0975H37.8903Z" fill="white" fill-opacity="0.65"/>
<path fill-rule="evenodd" clip-rule="evenodd" d="M7.37317 19.4389C7.37317 13.012 12.9293 7.8291 19.8122 7.8291C26.7366 7.8291 32.2512 13.012 32.2927 19.4389C32.2927 25.8657 26.7366 31.0486 19.8537 31.0486C17.4488 31.0486 15.2098 30.4267 13.3024 29.3071C13.0951 29.1828 12.8463 29.1413 12.5976 29.2242L8.94878 30.5096C8.28536 30.7169 7.66341 30.1364 7.87073 29.473L9.03171 25.7828C9.11463 25.5754 9.07317 25.3267 8.94878 25.1193C7.95366 23.4193 7.37317 21.512 7.37317 19.4389ZM19.4805 23.212L25.8244 16.8681C26.0317 16.6608 26.0317 16.2462 25.8244 15.9974L24.9537 15.1267C24.7049 14.8779 24.3317 14.8779 24.0829 15.1267L18.6098 20.5998L16.4122 18.4023C16.1634 18.1535 15.7902 18.1535 15.5415 18.4023L14.6707 19.273C14.4219 19.5218 14.4219 19.895 14.6707 20.1437L17.739 23.212C17.9878 23.4608 18.278 23.5852 18.6098 23.5852C18.9415 23.5852 19.2317 23.4608 19.4805 23.212Z" fill="white"/>
</g>
</svg>
