<svg width="26" height="26" viewBox="0 0 26 26" fill="none" xmlns="http://www.w3.org/2000/svg">
<path fill-rule="evenodd" clip-rule="evenodd" d="M13.1 9.0499L18.65 3.4999C18.95 3.1999 18.95 2.7499 18.65 2.4499L17.45 1.2499C17.15 0.949902 16.7 0.949902 16.4 1.2499L10.85 6.7999L13.1 9.0499ZM19.2 15.3499L24.75 9.7999C25.05 9.4999 25.05 9.0499 24.75 8.7499L23.55 7.5499C23.25 7.2499 22.8 7.2499 22.5 7.5499L16.95 13.0999L19.2 15.3499ZM18.4 19.9499C18.5 19.8499 18.55 19.6999 18.6 19.5499C18.65 19.3499 18.6 19.1499 18.5 18.9999C18.45 18.9499 18.45 18.8999 18.4 18.8999L7.15003 7.6499C7.05003 7.4999 6.80003 7.4499 6.60003 7.4499C6.40003 7.4499 6.20003 7.5499 6.05003 7.6999C5.95003 7.7999 5.85003 7.8499 5.75003 7.9499C5.70003 7.9999 5.65003 8.0999 5.60003 8.1499C5.55003 8.2499 5.45003 8.2999 5.40003 8.3999C5.35003 8.4999 5.25003 8.5999 5.20003 8.6999C5.10003 8.7999 5.05003 8.9499 5.00003 9.0999C4.90003 9.2499 4.85003 9.3999 4.80003 9.5499C4.70003 9.6999 4.65003 9.8999 4.60003 10.0999C4.50003 10.2999 4.45003 10.4999 4.40003 10.6999C4.35003 10.9499 4.25003 11.1499 4.20003 11.3999C4.15003 11.6499 4.10003 11.8999 4.05003 12.1999C4.00003 12.4999 3.95003 12.7999 3.90003 13.0499C3.85003 13.3499 3.80003 13.6999 3.80003 13.9999C3.75003 14.3499 3.75003 14.6999 3.75003 15.0999V16.2999C3.75003 16.7499 3.75003 17.1499 3.80003 17.5999C3.80003 18.0499 3.85003 18.5499 3.90003 18.9999C3.90003 19.1499 3.95003 19.2499 3.95003 19.3999H4.00003L1.40003 21.9999C1.00003 22.1999 1.00003 22.6999 1.25003 22.9999L3.10003 24.8499C3.40003 25.1499 3.85003 25.1499 4.15003 24.8499L6.75003 22.2499C7.70003 22.3499 8.60003 22.3999 9.55003 22.3999C10.35 22.3999 11.1 22.3999 11.9 22.3499C12.55 22.2999 13.2 22.2499 13.8 22.0999C14.3 21.9999 14.8 21.8999 15.3 21.7499C15.7 21.6499 16.1 21.4999 16.45 21.2999C16.75 21.1499 17.05 20.9999 17.3 20.8499C17.65 20.6499 18 20.3499 18.3 20.0499L18.4 19.9499Z" fill="#706E6B"/>
</svg>
