<svg width="48" height="48" viewBox="0 0 48 48" fill="none" xmlns="http://www.w3.org/2000/svg">
<rect width="48" height="48" rx="4" fill="#9895EE"/>
<mask id="mask0_0_489" style="mask-type:luminance" maskUnits="userSpaceOnUse" x="0" y="0" width="48" height="48">
<rect width="48" height="48" rx="4" fill="white"/>
</mask>
<g mask="url(#mask0_0_489)">
<path fill-rule="evenodd" clip-rule="evenodd" d="M10.5172 7H37.4828C39.4172 7 41 8.58276 41 10.5172V37.4828C41 39.4172 39.4172 41 37.4828 41H10.5172C8.58276 41 7 39.4172 7 37.4828V10.5172C7 8.58276 8.58276 7 10.5172 7ZM11.6897 37.4828H36.3103C36.9552 37.4828 37.4828 36.9552 37.4828 36.3103V11.6897C37.4828 11.0448 36.9552 10.5172 36.3103 10.5172H11.6897C11.0448 10.5172 10.5172 11.0448 10.5172 11.6897V36.3103C10.5172 36.9552 11.0448 37.4828 11.6897 37.4828Z" fill="white"/>
<path d="M21.069 14.0347H15.2069C14.5621 14.0347 14.0345 14.5623 14.0345 15.2071V21.0692C14.0345 21.714 14.5621 22.2416 15.2069 22.2416H21.069C21.7138 22.2416 22.2414 21.714 22.2414 21.0692V15.2071C22.2414 14.5623 21.7138 14.0347 21.069 14.0347Z" fill="white"/>
<path d="M32.7931 14.0347H26.931C26.2862 14.0347 25.7586 14.5623 25.7586 15.2071V21.0692C25.7586 21.714 26.2862 22.2416 26.931 22.2416H32.7931C33.4379 22.2416 33.9655 21.714 33.9655 21.0692V15.2071C33.9655 14.5623 33.4379 14.0347 32.7931 14.0347Z" fill="white"/>
<path d="M21.069 25.7588H15.2069C14.5621 25.7588 14.0345 26.2864 14.0345 26.9312V32.7933C14.0345 33.4381 14.5621 33.9657 15.2069 33.9657H21.069C21.7138 33.9657 22.2414 33.4381 22.2414 32.7933V26.9312C22.2414 26.2864 21.7138 25.7588 21.069 25.7588Z" fill="white"/>
<path d="M32.7931 25.7588H26.931C26.2862 25.7588 25.7586 26.2864 25.7586 26.9312V32.7933C25.7586 33.4381 26.2862 33.9657 26.931 33.9657H32.7931C33.4379 33.9657 33.9655 33.4381 33.9655 32.7933V26.9312C33.9655 26.2864 33.4379 25.7588 32.7931 25.7588Z" fill="white"/>
</g>
</svg>
