<svg width="24" height="24" viewBox="0 0 24 24" fill="none" xmlns="http://www.w3.org/2000/svg">
<g clip-path="url(#clip0_1_1099)">
<path fill-rule="evenodd" clip-rule="evenodd" d="M12 3.00055C7.03338 3.00055 3.00043 7.0335 3.00043 12.0001C3.00043 16.9667 7.03338 20.9996 12 20.9996C16.9665 20.9996 20.9995 16.9667 20.9995 12.0001C20.9995 7.0335 16.9665 3.00055 12 3.00055ZM12 3.94697C16.4443 3.94697 20.0531 7.55574 20.0531 12.0001C20.0531 16.4444 16.4443 20.0532 12 20.0532C7.55561 20.0532 3.94685 16.4444 3.94685 12.0001C3.94685 7.55574 7.55561 3.94697 12 3.94697Z" fill="black"/>
<path fill-rule="evenodd" clip-rule="evenodd" d="M8.64601 10.854L11.646 13.854C11.842 14.049 12.158 14.049 12.354 13.854L15.354 10.854C15.549 10.658 15.549 10.342 15.354 10.146C15.158 9.95101 14.842 9.95101 14.646 10.146L12 12.793L9.35401 10.146C9.15801 9.95101 8.84201 9.95101 8.64601 10.146C8.45101 10.342 8.45101 10.658 8.64601 10.854Z" fill="#FF7949"/>
</g>
<defs>
<clipPath id="clip0_1_1099">
<rect width="24" height="24" fill="white"/>
</clipPath>
</defs>
</svg>
