<svg width="24" height="24" viewBox="0 0 24 24" fill="none" xmlns="http://www.w3.org/2000/svg">
<path d="M14.0001 16.5L13.5667 16.7502C13.4285 16.5109 13.5105 16.2048 13.7498 16.0666L14.0001 16.5ZM15.0667 19.3483L13.5667 16.7502L14.4335 16.2498L15.9335 18.8478L15.0667 19.3483ZM13.7498 16.0666L16.3479 14.5666L16.8484 15.4334L14.2503 16.9334L13.7498 16.0666Z" fill="black"/>
<path d="M14.25 16.3971C15.1079 16.8924 16.1053 17.0908 17.0874 16.9615C18.0695 16.8322 18.9816 16.3824 19.682 15.682C20.3825 14.9815 20.8322 14.0695 20.9615 13.0874C21.0908 12.1052 20.8925 11.1079 20.3972 10.25C19.9019 9.3921 19.1373 8.72162 18.2221 8.34253C17.3069 7.96344 16.2922 7.89694 15.3354 8.15332C14.3785 8.40971 13.533 8.97466 12.93 9.76056C12.3269 10.5465 12 11.5094 12 12.5" stroke="black" stroke-width="1.00088" stroke-linejoin="round"/>
<path d="M10 8.50001L10.4334 8.24979C10.4998 8.36473 10.5177 8.50133 10.4834 8.62953C10.449 8.75773 10.3652 8.86704 10.2502 8.9334L10 8.50001ZM8.93339 5.65171L10.4334 8.24979L9.56661 8.75023L8.06661 6.15215L8.93339 5.65171ZM10.2502 8.9334L7.65214 10.4334L7.1517 9.56661L9.74978 8.06661L10.2502 8.9334Z" fill="black"/>
<path d="M9.75003 8.5644C8.89214 8.06909 7.89479 7.87071 6.91266 8.00001C5.93053 8.12931 5.01851 8.57907 4.31805 9.27953C3.61759 9.97999 3.16783 10.892 3.03853 11.8741C2.90923 12.8563 3.10761 13.8536 3.60292 14.7115C4.09822 15.5694 4.86276 16.2399 5.77795 16.619C6.69315 16.9981 7.70787 17.0646 8.66472 16.8082C9.62157 16.5518 10.4671 15.9868 11.0701 15.2009C11.6732 14.415 12 13.4521 12 12.4615" stroke="black" stroke-width="1.00088" stroke-linejoin="round"/>
</svg>
