<svg width="24" height="24" viewBox="0 0 24 24" fill="none" xmlns="http://www.w3.org/2000/svg">
<path d="M4.25 6.25003L17.75 6.25003C18.8546 6.25003 19.75 7.14546 19.75 8.25003L19.75 10C19.75 11.1046 18.8546 12 17.75 12L7 12" stroke="black" stroke-width="1.00088" stroke-linejoin="round"/>
<path d="M6.75 3.25C5.57843 4.42157 4.92157 5.07843 3.75 6.25L6.75 9.25" stroke="black" stroke-width="1.00088" stroke-linejoin="round"/>
<path d="M19.25 18L6 18C4.89543 18 4 17.1046 4 16L4 14C4 12.8954 4.89543 12 6 12L16.25 12" stroke="black" stroke-width="1.00088" stroke-linejoin="round"/>
<path d="M16.75 21C17.9216 19.8284 18.5784 19.1716 19.75 18L16.75 15" stroke="black" stroke-width="1.00088" stroke-linejoin="round"/>
</svg>
