<svg width="24" height="24" viewBox="0 0 24 24" fill="none" xmlns="http://www.w3.org/2000/svg">
<path d="M4.27265 9.92945C4.75169 8.14167 5.83579 6.5753 7.34024 5.49723C8.84469 4.41915 10.6764 3.89608 12.5233 4.01713C14.3702 4.13818 16.1179 4.89587 17.4688 6.16109C18.8197 7.42631 19.69 9.12078 19.9316 10.9558" stroke="black" stroke-width="1.00088" stroke-linejoin="round"/>
<path d="M4.00009 10L3.5167 10.1295C3.58824 10.3965 3.86265 10.5549 4.12961 10.4834L4.00009 10ZM2.48143 6.26582L3.5167 10.1295L4.48348 9.87048L3.4482 6.00678L2.48143 6.26582ZM4.12961 10.4834L7.99332 9.44812L7.73427 8.48134L3.87057 9.51662L4.12961 10.4834Z" fill="black"/>
<path d="M19.7274 14.0705C19.2484 15.8583 18.1643 17.4247 16.6599 18.5028C15.1554 19.5808 13.3237 20.1039 11.4768 19.9828C9.62993 19.8618 7.88216 19.1041 6.53129 17.8389C5.18043 16.5737 4.31006 14.8792 4.06847 13.0442" stroke="black" stroke-width="1.00088" stroke-linejoin="round"/>
<path d="M20 14L20.4834 13.8705C20.4119 13.6035 20.1374 13.4451 19.8705 13.5166L20 14ZM21.5187 17.7342L20.4834 13.8705L19.5166 14.1295L20.5519 17.9932L21.5187 17.7342ZM19.8705 13.5166L16.0068 14.5519L16.2658 15.5186L20.1295 14.4834L19.8705 13.5166Z" fill="black"/>
</svg>
