<svg width="24" height="24" viewBox="0 0 24 24" fill="none" xmlns="http://www.w3.org/2000/svg">
<g clip-path="url(#clip0_1_1097)">
<path fill-rule="evenodd" clip-rule="evenodd" d="M12 20.9995C16.9666 20.9995 20.9996 16.9665 20.9996 11.9999C20.9996 7.03334 16.9666 3.00039 12 3.00039C7.03346 3.00039 3.00051 7.03334 3.00051 11.9999C3.00051 16.9665 7.03346 20.9995 12 20.9995ZM12 20.053C7.5557 20.053 3.94693 16.4443 3.94693 11.9999C3.94693 7.55558 7.5557 3.94681 12 3.94681C16.4444 3.94681 20.0532 7.55558 20.0532 11.9999C20.0532 16.4443 16.4444 20.053 12 20.053Z" fill="black"/>
<path fill-rule="evenodd" clip-rule="evenodd" d="M15.354 13.146L12.354 10.146C12.158 9.95099 11.842 9.95099 11.646 10.146L8.64599 13.146C8.45099 13.342 8.45099 13.658 8.64599 13.854C8.84199 14.049 9.15799 14.049 9.35399 13.854L12 11.207L14.646 13.854C14.842 14.049 15.158 14.049 15.354 13.854C15.549 13.658 15.549 13.342 15.354 13.146Z" fill="#FF7949"/>
</g>
<defs>
<clipPath id="clip0_1_1097">
<rect width="24" height="24" fill="white"/>
</clipPath>
</defs>
</svg>
