<svg width="24" height="24" viewBox="0 0 24 24" fill="none" xmlns="http://www.w3.org/2000/svg">
<g clip-path="url(#clip0_912_1898)">
<path d="M9.92946 4.27257C11.7172 3.79354 13.6158 3.94921 15.3017 4.71307C16.9875 5.47692 18.3564 6.8017 19.175 8.46167C19.5714 9.26546 19.8269 10.1238 19.9373 11" stroke="black" stroke-width="1.00088" stroke-linejoin="round"/>
<path d="M9.73206 4.07179L9.37819 3.71793C9.18276 3.91336 9.18276 4.23022 9.37819 4.42566L9.73206 4.07179ZM12.2066 0.889501L9.37819 3.71793L10.0859 4.42566L12.9143 1.59723L12.2066 0.889501ZM9.37819 4.42566L12.2066 7.25408L12.9143 6.54635L10.0859 3.71793L9.37819 4.42566Z" fill="black"/>
<path d="M6.34316 17.6569C5.03441 16.3481 4.21995 14.6261 4.03853 12.7841C3.85712 10.9422 4.31998 9.09436 5.34826 7.55544C5.84617 6.81026 6.46174 6.15984 7.16537 5.62613" stroke="black" stroke-width="1.00088" stroke-linejoin="round"/>
<path d="M6.26794 17.9282L6.13842 18.4116C6.40539 18.4831 6.67979 18.3247 6.75133 18.0577L6.26794 17.9282ZM2.27471 17.3763L6.13842 18.4116L6.39746 17.4448L2.53376 16.4095L2.27471 17.3763ZM6.75133 18.0577L7.78661 14.194L6.81983 13.935L5.78455 17.7987L6.75133 18.0577Z" fill="black"/>
<path d="M19.7274 14.0705C19.2484 15.8583 18.1643 17.4247 16.6598 18.5028C15.1554 19.5808 13.3237 20.1039 11.4768 19.9829C10.5825 19.9242 9.71141 19.7164 8.8974 19.3738" stroke="black" stroke-width="1.00088" stroke-linejoin="round"/>
<path d="M20 14L20.4834 13.8705C20.4119 13.6035 20.1374 13.4451 19.8705 13.5166L20 14ZM21.5187 17.7342L20.4834 13.8705L19.5166 14.1295L20.5519 17.9932L21.5187 17.7342ZM19.8705 13.5166L16.0068 14.5519L16.2658 15.5187L20.1295 14.4834L19.8705 13.5166Z" fill="black"/>
</g>
<defs>
<clipPath id="clip0_912_1898">
<rect width="24" height="24" fill="white"/>
</clipPath>
</defs>
</svg>
