<svg width="24" height="24" viewBox="0 0 24 24" fill="none" xmlns="http://www.w3.org/2000/svg">
<path d="M11.5 8L17 8C18.1046 8 19 8.89542 19 9.99999L19 12M8.50001 8L7.00001 8C5.89544 8 5.00001 8.89544 5.00001 10L5.00003 12" stroke="black" stroke-width="1.00088" stroke-linejoin="round"/>
<path d="M14 5C12.8285 6.17157 12.1716 6.82843 11 8L14 11" stroke="black" stroke-width="1.00088" stroke-linejoin="round"/>
<path d="M12.5 16L7.00005 16C5.89548 16 5.00006 15.1046 5.00005 14L5.00004 12M15.5 16L17 16C18.1046 16 19.0001 15.1046 19 14L19 12" stroke="black" stroke-width="1.00088" stroke-linejoin="round"/>
<path d="M10 19C11.1716 17.8284 11.8285 17.1716 13 16L10 13" stroke="black" stroke-width="1.00088" stroke-linejoin="round"/>
</svg>
