<svg width="24" height="24" viewBox="0 0 24 24" fill="none" xmlns="http://www.w3.org/2000/svg">
<g clip-path="url(#clip0_1_1093)">
<path fill-rule="evenodd" clip-rule="evenodd" d="M20.9996 7.23934C20.9996 4.89811 18.9964 3.00024 16.5258 3.00024C13.8001 3.00024 10.1999 3.00024 7.4742 3.00024C5.00353 3.00024 3.00037 4.89811 3.00037 7.23934C3.00037 10.0701 3.00037 13.93 3.00037 16.7608C3.00037 19.102 5.00353 20.9999 7.4742 20.9999C10.1999 20.9999 13.8001 20.9999 16.5258 20.9999C18.9964 20.9999 20.9996 19.102 20.9996 16.7608C20.9996 13.93 20.9996 10.0701 20.9996 7.23934ZM20.0004 7.23934C20.0004 10.0701 20.0004 13.93 20.0004 16.7608C20.0004 18.5794 18.4439 20.0529 16.5258 20.0529C13.8001 20.0529 10.1999 20.0529 7.4742 20.0529C5.55603 20.0529 3.9996 18.5794 3.9996 16.7608C3.9996 13.93 3.9996 10.0701 3.9996 7.23934C3.9996 5.42072 5.55603 3.94717 7.4742 3.94717C10.1999 3.94717 13.8001 3.94717 16.5258 3.94717C18.4439 3.94717 20.0004 5.42072 20.0004 7.23934Z" fill="black"/>
<path d="M7 12H17" stroke="#FF7949" stroke-miterlimit="1.5" stroke-linecap="round" stroke-linejoin="round"/>
<path d="M13 9L17 12L13 15" stroke="#FF7949" stroke-miterlimit="1.5" stroke-linecap="round" stroke-linejoin="round"/>
</g>
<defs>
<clipPath id="clip0_1_1093">
<rect width="24" height="24" fill="white"/>
</clipPath>
</defs>
</svg>
