<svg width="24" height="24" viewBox="0 0 24 24" fill="none" xmlns="http://www.w3.org/2000/svg">
<g clip-path="url(#clip0_3_52)">
<path fill-rule="evenodd" clip-rule="evenodd" d="M21 7.239C21 4.898 18.997 3 16.525 3C13.8 3 10.2 3 7.47501 3C5.00301 3 3 4.898 3 7.239C3 10.07 3 13.93 3 16.761C3 19.102 5.00301 21 7.47501 21C10.2 21 13.8 21 16.525 21C18.997 21 21 19.102 21 16.761C21 13.93 21 10.07 21 7.239ZM17.427 11.741C17.395 11.687 17.352 11.639 17.3 11.6L13.3 8.60001C13.079 8.43401 12.766 8.479 12.6 8.7C12.434 8.921 12.479 9.23399 12.7 9.39999L15.5 11.5H7C6.724 11.5 6.5 11.724 6.5 12C6.5 12.276 6.724 12.5 7 12.5H15.5L12.7 14.6C12.479 14.766 12.434 15.079 12.6 15.3C12.766 15.521 13.079 15.566 13.3 15.4L17.3 12.4C17.352 12.361 17.395 12.313 17.427 12.259L17.438 12.241C17.474 12.176 17.496 12.102 17.499 12.022L17.5 12.006L17.499 11.978C17.496 11.898 17.474 11.824 17.438 11.759L17.427 11.741Z" fill="black"/>
</g>
<defs>
<clipPath id="clip0_3_52">
<rect width="24" height="24" fill="white"/>
</clipPath>
</defs>
</svg>
