<svg width="24" height="24" viewBox="0 0 24 24" fill="none" xmlns="http://www.w3.org/2000/svg">
<g clip-path="url(#clip0_3_42)">
<path fill-rule="evenodd" clip-rule="evenodd" d="M12 3C7.033 3 3 7.033 3 12C3 16.967 7.033 21 12 21C16.967 21 21 16.967 21 12C21 7.033 16.967 3 12 3ZM8.646 10.854L11.646 13.854C11.842 14.049 12.158 14.049 12.354 13.854L15.354 10.854C15.549 10.658 15.549 10.342 15.354 10.146C15.158 9.951 14.842 9.951 14.646 10.146L12 12.793L9.354 10.146C9.158 9.951 8.842 9.951 8.646 10.146C8.451 10.342 8.451 10.658 8.646 10.854Z" fill="black"/>
</g>
<defs>
<clipPath id="clip0_3_42">
<rect width="24" height="24" fill="white"/>
</clipPath>
</defs>
</svg>
