<svg width="25" height="24" viewBox="0 0 25 24" fill="none" xmlns="http://www.w3.org/2000/svg">
<path d="M16.503 5.5L16.503 12C16.503 13.1046 15.6076 14 14.503 14L8.50299 14C7.39842 14 6.50299 14.8954 6.50299 16L6.50299 20" stroke="black" stroke-width="1.00088" stroke-linejoin="round"/>
<path d="M19.503 8C18.3314 6.82843 17.6746 6.17158 16.503 5L13.503 8" stroke="black" stroke-width="1.00088" stroke-linejoin="round"/>
<path d="M6.50299 12L7.00343 12V12H6.50299ZM16.503 16H16.0026H16.503ZM6.566 12.5L7.05064 12.3753L6.566 12.5ZM16.44 15.5L15.9553 15.6247L16.44 15.5ZM6.00255 5.5L6.00255 12H7.00343L7.00343 5.5L6.00255 5.5ZM8.50299 14.5004H14.503V13.4996H8.50299V14.5004ZM16.0026 16L16.0026 20H17.0034L17.0034 16H16.0026ZM6.00255 12C6.00255 12.2151 6.02982 12.4245 6.08136 12.6247L7.05064 12.3753C7.01991 12.2559 7.00343 12.1302 7.00343 12L6.00255 12ZM6.08136 12.6247C6.13854 12.8469 6.22541 13.057 6.33737 13.2506L7.20374 12.7494C7.13666 12.6335 7.08477 12.5079 7.05064 12.3753L6.08136 12.6247ZM15.8022 15.2506C15.8693 15.3665 15.9212 15.4921 15.9553 15.6247L16.9246 15.3753C16.8674 15.1531 16.7806 14.943 16.6686 14.7494L15.8022 15.2506ZM15.9553 15.6247C15.9861 15.7441 16.0026 15.8698 16.0026 16H17.0034C17.0034 15.7849 16.9762 15.5755 16.9246 15.3753L15.9553 15.6247Z" fill="black"/>
<path d="M3.50299 8C4.67456 6.82843 5.33142 6.17158 6.50299 5L9.50299 8" stroke="black" stroke-width="1.00088" stroke-linejoin="round"/>
</svg>
