<svg width="24" height="24" viewBox="0 0 24 24" fill="none" xmlns="http://www.w3.org/2000/svg">
<g clip-path="url(#clip0_3_24)">
<path fill-rule="evenodd" clip-rule="evenodd" d="M3 16.761C3 19.102 5.00301 21 7.47501 21C10.2 21 13.8 21 16.525 21C18.997 21 21 19.102 21 16.761C21 13.93 21 10.07 21 7.239C21 4.898 18.997 3 16.525 3C13.8 3 10.2 3 7.47501 3C5.00301 3 3 4.898 3 7.239C3 10.07 3 13.93 3 16.761ZM6.573 12.259C6.605 12.313 6.648 12.361 6.7 12.4L10.7 15.4C10.921 15.566 11.234 15.521 11.4 15.3C11.566 15.079 11.521 14.766 11.3 14.6L8.5 12.5H17C17.276 12.5 17.5 12.276 17.5 12C17.5 11.724 17.276 11.5 17 11.5H8.5L11.3 9.39999C11.521 9.23399 11.566 8.921 11.4 8.7C11.234 8.479 10.921 8.43401 10.7 8.60001L6.7 11.6C6.648 11.639 6.605 11.687 6.573 11.741L6.562 11.759C6.526 11.824 6.50401 11.898 6.50101 11.978L6.5 11.994L6.50101 12.022C6.50401 12.102 6.526 12.176 6.562 12.241L6.573 12.259Z" fill="black"/>
</g>
<defs>
<clipPath id="clip0_3_24">
<rect width="24" height="24" fill="white"/>
</clipPath>
</defs>
</svg>
