<svg width="24" height="24" viewBox="0 0 24 24" fill="none" xmlns="http://www.w3.org/2000/svg">
<path d="M19.1607 7.99633C17.373 7.5173 15.4744 7.67297 13.7885 8.43683C12.1027 9.20068 10.7338 10.5255 9.9152 12.1854C9.0966 13.8454 8.87889 15.7379 9.29917 17.5403C9.50394 18.4186 9.854 19.249 10.329 20" stroke="black" stroke-width="1.00088" stroke-linejoin="round"/>
<path d="M19.3581 7.79556L19.712 7.4417C19.9074 7.63713 19.9074 7.95399 19.712 8.14943L19.3581 7.79556ZM16.8836 4.61327L19.712 7.4417L19.0043 8.14943L16.1758 5.321L16.8836 4.61327ZM19.712 8.14943L16.8836 10.9779L16.1758 10.2701L19.0043 7.4417L19.712 8.14943Z" fill="black"/>
<path d="M4.49469 7.99633C6.28246 7.5173 8.18103 7.67297 9.8669 8.43683M13.3264 20C13.8014 19.249 14.1515 18.4186 14.3563 17.5403C14.7765 15.7379 14.5588 13.8454 13.7402 12.1854C13.6241 11.95 13.4969 11.7213 13.3594 11.5" stroke="black" stroke-width="1.00088" stroke-linejoin="round"/>
<path d="M4.29731 7.79556L3.94344 7.4417C3.74801 7.63713 3.74801 7.95399 3.94344 8.14943L4.29731 7.79556ZM6.77187 4.61327L3.94344 7.4417L4.65117 8.14943L7.4796 5.321L6.77187 4.61327ZM3.94344 8.14943L6.77187 10.9779L7.4796 10.2701L4.65117 7.4417L3.94344 8.14943Z" fill="black"/>
</svg>
