<svg width="24" height="24" viewBox="0 0 24 24" fill="none" xmlns="http://www.w3.org/2000/svg">
<g clip-path="url(#clip0_3_22)">
<path fill-rule="evenodd" clip-rule="evenodd" d="M12 21C7.03301 21 3.00001 16.967 3.00001 12C3.00001 7.033 7.03301 3 12 3C16.967 3 21 7.033 21 12C21 16.967 16.967 21 12 21ZM8.646 13.146L11.646 10.146C11.842 9.951 12.158 9.951 12.354 10.146L15.354 13.146C15.549 13.342 15.549 13.658 15.354 13.854C15.158 14.049 14.842 14.049 14.646 13.854L12 11.207L9.35401 13.854C9.15801 14.049 8.842 14.049 8.646 13.854C8.451 13.658 8.451 13.342 8.646 13.146Z" fill="black"/>
</g>
<defs>
<clipPath id="clip0_3_22">
<rect width="24" height="24" fill="white"/>
</clipPath>
</defs>
</svg>
