<svg width="24" height="24" viewBox="0 0 24 24" fill="none" xmlns="http://www.w3.org/2000/svg">
<path d="M19.7274 9.92944C19.2484 8.14166 18.1643 6.57529 16.6598 5.49722C15.1554 4.41914 13.3237 3.89607 11.4768 4.01712C9.62992 4.13817 7.88215 4.89586 6.53128 6.16108C5.18042 7.4263 4.31005 9.12077 4.06846 10.9558C3.82688 12.7908 4.22904 14.6528 5.20641 16.2245C6.18378 17.7963 7.67589 18.9805 9.42851 19.5754C11.1811 20.1704 13.0858 20.1392 14.818 19.4872C16.5502 18.8353 18.0028 17.6029 18.9282 16" stroke="black" stroke-width="1.00088" stroke-linejoin="round"/>
<path d="M20 10L20.4834 10.1295C20.4119 10.3965 20.1374 10.5549 19.8705 10.4834L20 10ZM21.5187 6.26582L20.4834 10.1295L19.5166 9.87047L20.5519 6.00677L21.5187 6.26582ZM19.8705 10.4834L16.0068 9.44811L16.2658 8.48133L20.1295 9.51661L19.8705 10.4834Z" fill="black"/>
</svg>
