<svg width="24" height="24" viewBox="0 0 24 24" fill="none" xmlns="http://www.w3.org/2000/svg">
<path d="M4.2726 9.92944C4.75163 8.14166 5.83573 6.57529 7.34019 5.49722C8.84464 4.41914 10.6764 3.89607 12.5232 4.01712C14.3701 4.13817 16.1179 4.89586 17.4687 6.16108C18.8196 7.4263 19.69 9.12077 19.9316 10.9558C20.1731 12.7908 19.771 14.6528 18.7936 16.2245C17.8163 17.7963 16.3241 18.9805 14.5715 19.5754C12.8189 20.1704 10.9142 20.1392 9.18201 19.4872C7.44979 18.8353 5.99722 17.6029 5.0718 16" stroke="black" stroke-width="1.00088" stroke-linejoin="round"/>
<path d="M4.00003 10L3.51664 10.1295C3.58818 10.3965 3.86259 10.5549 4.12955 10.4834L4.00003 10ZM2.48137 6.26582L3.51664 10.1295L4.48342 9.87047L3.44814 6.00677L2.48137 6.26582ZM4.12955 10.4834L7.99326 9.44811L7.73421 8.48133L3.87051 9.51661L4.12955 10.4834Z" fill="black"/>
</svg>
