<svg width="24" height="24" viewBox="0 0 24 24" fill="none" xmlns="http://www.w3.org/2000/svg">
<path d="M4.50006 8L10.0001 8C11.1046 8 12.0001 8.89543 12.0001 9.99999L12.0001 10.5" stroke="black" stroke-width="1.00088" stroke-linejoin="round"/>
<path d="M7.00006 5C5.82849 6.17157 5.17163 6.82843 4.00006 8L7.00006 11" stroke="black" stroke-width="1.00088" stroke-linejoin="round"/>
<path d="M19.5001 16L14.0001 16C12.8955 16 12.0001 15.1046 12.0001 14L12.0001 13.5" stroke="black" stroke-width="1.00088" stroke-linejoin="round"/>
<path d="M17.0001 19C18.1716 17.8284 18.8285 17.1716 20.0001 16L17.0001 13" stroke="black" stroke-width="1.00088" stroke-linejoin="round"/>
<path d="M16.0001 4.50001L16.0001 9.99999C16.0001 11.1046 15.1046 12 14.0001 12L12.0001 12" stroke="black" stroke-width="1.00088" stroke-linejoin="round"/>
<path d="M19.0001 7C17.8285 5.82843 17.1716 5.17157 16.0001 4L13.0001 7" stroke="black" stroke-width="1.00088" stroke-linejoin="round"/>
<path d="M8.00006 19.5L8.00006 14C8.00006 12.8954 8.89549 12 10.0001 12L12.0001 12" stroke="black" stroke-width="1.00088" stroke-linejoin="round"/>
<path d="M5.00006 17C6.17163 18.1716 6.82849 18.8284 8.00006 20L11.0001 17" stroke="black" stroke-width="1.00088" stroke-linejoin="round"/>
</svg>
