<svg width="24" height="24" viewBox="0 0 24 24" fill="none" xmlns="http://www.w3.org/2000/svg">
<path d="M16.1607 7.99633C14.373 7.5173 12.4744 7.67297 10.7885 8.43683C9.10266 9.20068 7.73381 10.5255 6.9152 12.1854C6.0966 13.8454 5.87889 15.7379 6.29917 17.5403C6.50394 18.4186 6.854 19.249 7.329 20" stroke="black" stroke-width="1.00088" stroke-linejoin="round"/>
<path d="M16.3581 7.79556L16.712 7.4417C16.9074 7.63713 16.9074 7.95399 16.712 8.14943L16.3581 7.79556ZM13.8836 4.61327L16.712 7.4417L16.0043 8.14943L13.1758 5.321L13.8836 4.61327ZM16.712 8.14943L13.8836 10.9779L13.1758 10.2701L16.0043 7.4417L16.712 8.14943Z" fill="black"/>
</svg>
