<svg width="48" height="48" viewBox="0 0 48 48" fill="none" xmlns="http://www.w3.org/2000/svg">
<g clip-path="url(#clip0_144_1112)">
<mask id="mask0_144_1112" style="mask-type:alpha" maskUnits="userSpaceOnUse" x="0" y="0" width="48" height="48">
<path d="M44 0H4C1.79086 0 0 1.79086 0 4V44C0 46.2091 1.79086 48 4 48H44C46.2091 48 48 46.2091 48 44V4C48 1.79086 46.2091 0 44 0Z" fill="white"/>
</mask>
<g mask="url(#mask0_144_1112)">
<path d="M44 0H4C1.79086 0 0 1.79086 0 4V44C0 46.2091 1.79086 48 4 48H44C46.2091 48 48 46.2091 48 44V4C48 1.79086 46.2091 0 44 0Z" fill="#317A92"/>
<path d="M22.3928 34.0762C22.2768 32.1742 22.7286 30.2808 23.6909 28.6362H14.1709C14.0202 28.6474 13.8721 28.5924 13.7652 28.4855C13.6584 28.3786 13.6034 28.2305 13.6146 28.0798V27.5234C13.6034 27.3727 13.6584 27.2246 13.7652 27.1177C13.8721 27.0109 14.0202 26.9559 14.1709 26.9671H24.8655C25.2272 26.5848 25.6201 26.2333 26.04 25.9162C25.8892 25.8235 25.796 25.6604 25.7928 25.4834V17.5707C25.7928 17.2634 26.0418 17.0143 26.3491 17.0143C26.6564 17.0143 26.9055 17.2634 26.9055 17.5707V25.4216C27.3888 25.113 27.9078 24.8639 28.4509 24.6798V17.5707C28.4397 17.42 28.4947 17.2719 28.6016 17.165C28.7085 17.0581 28.8566 17.0031 29.0073 17.0143H30.0582C30.2089 17.0031 30.357 17.0581 30.4639 17.165C30.5708 17.2719 30.6258 17.42 30.6146 17.5707V24.1853C30.7382 24.1853 30.9237 24.1234 31.0473 24.1234C32.9689 24.0073 34.8821 24.4588 36.5491 25.4216V8.73071C36.5391 7.9155 35.8807 7.25707 35.0655 7.24707H9.34911C8.5339 7.25707 7.87548 7.9155 7.86548 8.73071V34.3853C7.87548 35.2005 8.5339 35.8589 9.34911 35.8689H12.6255V37.4143C12.6355 38.2296 13.2939 38.888 14.1091 38.898H15.84C16.6552 38.888 17.3137 38.2296 17.3237 37.4143V35.8689H22.7018C22.5042 35.2915 22.3999 34.6864 22.3928 34.0762ZM20.0437 25.5453C20.0549 25.696 19.9999 25.8441 19.893 25.951C19.7861 26.0578 19.638 26.1128 19.4873 26.1016H18.4364C18.2857 26.1128 18.1376 26.0578 18.0307 25.951C17.9238 25.8441 17.8688 25.696 17.88 25.5453V17.5707C17.8688 17.42 17.9238 17.2719 18.0307 17.165C18.1376 17.0581 18.2857 17.0031 18.4364 17.0143H19.4873C19.638 17.0031 19.7861 17.0581 19.893 17.165C19.9999 17.2719 20.0549 17.42 20.0437 17.5707V25.5453ZM24.8037 25.5453C24.8149 25.696 24.7599 25.8441 24.653 25.951C24.5461 26.0578 24.398 26.1128 24.2473 26.1016H22.1455C21.9948 26.1128 21.8466 26.0578 21.7398 25.951C21.6329 25.8441 21.5779 25.696 21.5891 25.5453V17.5707C21.5779 17.42 21.6329 17.2719 21.7398 17.165C21.8466 17.0581 21.9948 17.0031 22.1455 17.0143H24.2473C24.398 17.0031 24.5461 17.0581 24.653 17.165C24.7599 17.2719 24.8149 17.42 24.8037 17.5707V25.5453ZM13.6764 14.9125C13.6652 14.7618 13.7202 14.6137 13.827 14.5068C13.9339 14.4 14.082 14.3449 14.2328 14.3562H30.12C30.2707 14.3449 30.4189 14.4 30.5257 14.5068C30.6326 14.6137 30.6876 14.7618 30.6764 14.9125V15.4689C30.6876 15.6196 30.6326 15.7677 30.5257 15.8746C30.4189 15.9815 30.2707 16.0365 30.12 16.0253H14.1709C14.0202 16.0365 13.8721 15.9815 13.7652 15.8746C13.6584 15.7677 13.6034 15.6196 13.6146 15.4689V14.9125H13.6764ZM13.6764 17.5707C13.6652 17.42 13.7202 17.2719 13.827 17.165C13.9339 17.0581 14.082 17.0031 14.2328 17.0143H16.3346C16.4853 17.0031 16.6334 17.0581 16.7403 17.165C16.8471 17.2719 16.9021 17.42 16.8909 17.5707V25.5453C16.9021 25.696 16.8471 25.8441 16.7403 25.951C16.6334 26.0578 16.4853 26.1128 16.3346 26.1016H14.2328C14.082 26.1128 13.9339 26.0578 13.827 25.951C13.7202 25.8441 13.6652 25.696 13.6764 25.5453V17.5707Z" fill="white"/>
<path d="M31.2328 29.8103H31.9746C32.173 29.825 32.3307 29.9827 32.3455 30.1812V33.5193C32.3455 33.643 32.2837 33.7048 32.2218 33.8284L30.0582 35.9921C29.8934 36.1157 29.6667 36.1157 29.5018 35.9921L29.0691 35.4357C28.9455 35.2709 28.9455 35.0442 29.0691 34.8793L30.8618 33.0866V30.1812C30.8584 30.0818 30.8963 29.9854 30.9666 29.915C31.037 29.8447 31.1333 29.8068 31.2328 29.8103ZM39.9491 33.1484H38.8364V32.9012C38.5616 29.0353 35.2601 26.0901 31.3881 26.2567C27.516 26.4234 24.4797 29.6413 24.5381 33.5165C24.5965 37.3917 27.7283 40.5167 31.6037 40.5666C33.6109 40.6109 35.5429 39.8022 36.92 38.3412C37.0437 38.2175 37.1673 38.0939 37.0437 37.9703L36.4255 37.2284C36.3602 37.1403 36.257 37.0883 36.1473 37.0883C36.0376 37.0883 35.9344 37.1403 35.8691 37.2284C34.6546 38.5443 32.8899 39.2089 31.1091 39.0212C28.5325 38.6565 26.4985 36.6476 26.1018 34.0757C25.8032 31.0004 28.0407 28.2598 31.1137 27.9372C34.1866 27.6146 36.9445 29.8308 37.2909 32.9012V33.1484H36.1782C35.9798 33.1632 35.8221 33.3209 35.8073 33.5193C35.8073 33.643 35.8073 33.7048 35.8691 33.7666L37.7855 36.1157C37.8641 36.2038 37.9765 36.2542 38.0946 36.2542C38.2126 36.2542 38.3251 36.2038 38.4037 36.1157L40.32 33.7666C40.4437 33.6018 40.4437 33.3751 40.32 33.2102C40.202 33.1644 40.0757 33.1433 39.9491 33.1484Z" fill="white"/>
</g>
</g>
<defs>
<clipPath id="clip0_144_1112">
<rect width="48" height="48" fill="white"/>
</clipPath>
</defs>
</svg>
