<svg width="48" height="48" viewBox="0 0 48 48" fill="none" xmlns="http://www.w3.org/2000/svg">
<g clip-path="url(#clip0_144_560)">
<mask id="mask0_144_560" style="mask-type:alpha" maskUnits="userSpaceOnUse" x="0" y="0" width="48" height="48">
<path d="M44 0H4C1.79086 0 0 1.79086 0 4V44C0 46.2091 1.79086 48 4 48H44C46.2091 48 48 46.2091 48 44V4C48 1.79086 46.2091 0 44 0Z" fill="white"/>
</mask>
<g mask="url(#mask0_144_560)">
<path d="M44 0H4C1.79086 0 0 1.79086 0 4V44C0 46.2091 1.79086 48 4 48H44C46.2091 48 48 46.2091 48 44V4C48 1.79086 46.2091 0 44 0Z" fill="#317A92"/>
<path d="M23.4536 33.6539C23.4603 31.7128 24.0762 29.8228 25.2143 28.2503H14.3464C14.1984 28.2613 14.0529 28.2073 13.948 28.1023C13.843 27.9974 13.789 27.8519 13.8 27.7039V27.1574C13.789 27.0094 13.843 26.8639 13.948 26.759C14.0529 26.654 14.1984 26.6 14.3464 26.611H26.6107C27.1459 26.1188 27.7368 25.6909 28.3714 25.336C28.3107 25.2753 28.3107 25.2146 28.3107 25.0932V17.3825C28.2997 17.2344 28.3537 17.0889 28.4587 16.984C28.5636 16.879 28.7091 16.825 28.8571 16.836H29.8893C30.0373 16.825 30.1828 16.879 30.2877 16.984C30.3927 17.0889 30.4467 17.2344 30.4357 17.3825V24.6075C32.3554 24.033 34.4147 24.1403 36.2643 24.911V8.70031C36.2545 7.89965 35.6078 7.25299 34.8071 7.24316H9.61071C8.81005 7.25299 8.16339 7.89965 8.15356 8.70031V33.8967C8.16339 34.6974 8.81005 35.3441 9.61071 35.3539H12.8286V36.8717C12.8384 37.6724 13.4851 38.3191 14.2857 38.3289H15.9857C16.7864 38.3191 17.433 37.6724 17.4429 36.8717V35.3539H23.6964C23.5225 34.8044 23.4405 34.23 23.4536 33.6539ZM20.1143 25.2146C20.1253 25.3626 20.0713 25.5081 19.9663 25.6131C19.8614 25.718 19.7159 25.772 19.5679 25.761H18.5357C18.3877 25.772 18.2422 25.718 18.1372 25.6131C18.0323 25.5081 17.9783 25.3626 17.9893 25.2146V17.3825C17.9783 17.2344 18.0323 17.0889 18.1372 16.984C18.2422 16.879 18.3877 16.825 18.5357 16.836H19.5679C19.7159 16.825 19.8614 16.879 19.9663 16.984C20.0713 17.0889 20.1253 17.2344 20.1143 17.3825V25.2146ZM24.7893 25.2146C24.8003 25.3626 24.7463 25.5081 24.6413 25.6131C24.5364 25.718 24.3909 25.772 24.2428 25.761H22.1786C22.0305 25.772 21.8851 25.718 21.7801 25.6131C21.6751 25.5081 21.6211 25.3626 21.6321 25.2146V17.3825C21.6211 17.2344 21.6751 17.0889 21.7801 16.984C21.8851 16.879 22.0305 16.825 22.1786 16.836H24.2428C24.3909 16.825 24.5364 16.879 24.6413 16.984C24.7463 17.0889 24.8003 17.2344 24.7893 17.3825V25.2146ZM26.7929 25.2146C26.7929 25.5164 26.5482 25.761 26.2464 25.761C25.9446 25.761 25.7 25.5164 25.7 25.2146V17.3825C25.7 17.1872 25.8041 17.0068 25.9732 16.9092C26.1423 16.8116 26.3506 16.8116 26.5196 16.9092C26.6887 17.0068 26.7929 17.1872 26.7929 17.3825V25.2146ZM13.8607 14.7717C13.8497 14.6237 13.9037 14.4782 14.0087 14.3733C14.1136 14.2683 14.2591 14.2143 14.4071 14.2253H30.0107C30.1587 14.2143 30.3042 14.2683 30.4092 14.3733C30.5141 14.4782 30.5681 14.6237 30.5571 14.7717V15.3182C30.5681 15.4662 30.5141 15.6117 30.4092 15.7166C30.3042 15.8216 30.1587 15.8756 30.0107 15.8646H14.3464C14.1984 15.8756 14.0529 15.8216 13.948 15.7166C13.843 15.6117 13.789 15.4662 13.8 15.3182V14.7717H13.8607ZM13.8607 17.3825C13.8497 17.2344 13.9037 17.0889 14.0087 16.984C14.1136 16.879 14.2591 16.825 14.4071 16.836H16.4714C16.6194 16.825 16.7649 16.879 16.8699 16.984C16.9748 17.0889 17.0289 17.2344 17.0178 17.3825V25.2146C17.0289 25.3626 16.9748 25.5081 16.8699 25.6131C16.7649 25.718 16.6194 25.772 16.4714 25.761H14.4071C14.2591 25.772 14.1136 25.718 14.0087 25.6131C13.9037 25.5081 13.8497 25.3626 13.8607 25.2146V17.3825Z" fill="white"/>
<path d="M32.8643 26.3682C28.8332 26.3746 25.5577 29.6231 25.5178 33.6539C25.5178 37.6541 28.7428 40.9063 32.7428 40.9396C36.7666 40.9731 40.0557 37.7384 40.0893 33.7146C40.1228 29.6908 36.888 26.4017 32.8643 26.3682ZM37.7214 33.9575L34.5035 37.236C34.4264 37.3226 34.3159 37.372 34.2 37.372C34.084 37.372 33.9736 37.3226 33.8964 37.236C33.6792 37.0273 33.4763 36.8042 33.2892 36.5682C33.2027 36.491 33.1532 36.3805 33.1532 36.2646C33.1532 36.1486 33.2027 36.0382 33.2892 35.961L34.2607 34.9289C34.3524 34.8549 34.3864 34.7305 34.345 34.6202C34.3037 34.5099 34.1963 34.4386 34.0785 34.4432H28.1893C27.9609 34.4284 27.779 34.2465 27.7642 34.0182V33.1075C27.7609 32.9937 27.8045 32.8836 27.885 32.8032C27.9654 32.7227 28.0755 32.6791 28.1893 32.6824H34.0785C34.1928 32.68 34.294 32.6083 34.3341 32.5013C34.3743 32.3943 34.3452 32.2737 34.2607 32.1967L33.2892 31.286C33.2027 31.2088 33.1532 31.0984 33.1532 30.9825C33.1532 30.8665 33.2027 30.7561 33.2892 30.6789L33.8964 30.0717C33.9736 29.9852 34.084 29.9357 34.2 29.9357C34.3159 29.9357 34.4264 29.9852 34.5035 30.0717L37.7214 33.411C37.808 33.4751 37.859 33.5765 37.859 33.6842C37.859 33.792 37.808 33.8933 37.7214 33.9575Z" fill="white"/>
</g>
</g>
<defs>
<clipPath id="clip0_144_560">
<rect width="48" height="48" fill="white"/>
</clipPath>
</defs>
</svg>
