<svg width="48" height="48" viewBox="0 0 48 48" fill="none" xmlns="http://www.w3.org/2000/svg">
<g clip-path="url(#clip0_144_1133)">
<mask id="mask0_144_1133" style="mask-type:alpha" maskUnits="userSpaceOnUse" x="0" y="0" width="48" height="48">
<path d="M44 0H4C1.79086 0 0 1.79086 0 4V44C0 46.2091 1.79086 48 4 48H44C46.2091 48 48 46.2091 48 44V4C48 1.79086 46.2091 0 44 0Z" fill="white"/>
</mask>
<g mask="url(#mask0_144_1133)">
<path d="M44 0H4C1.79086 0 0 1.79086 0 4V44C0 46.2091 1.79086 48 4 48H44C46.2091 48 48 46.2091 48 44V4C48 1.79086 46.2091 0 44 0Z" fill="#317A92"/>
<path d="M31.0518 38.1041C30.4138 38.0978 29.8057 37.833 29.3665 37.3701C28.9274 36.9072 28.6949 36.286 28.7222 35.6485V34.3263C28.597 33.6116 28.8326 32.8812 29.3518 32.3744L36.6555 25.0707V9.39295C36.6453 8.56264 35.9747 7.89202 35.1444 7.88184H9.07776C8.24746 7.89202 7.57684 8.56264 7.56665 9.39295V35.5226C7.57684 36.3529 8.24746 37.0235 9.07776 37.0337H12.4148V38.6078C12.425 39.4381 13.0956 40.1087 13.9259 40.1189H15.6889C16.5192 40.1087 17.1898 39.4381 17.2 38.6078V37.0337H27.1481V38.6078C27.1583 39.4381 27.8289 40.1087 28.6592 40.1189H30.4222C31.2525 40.1087 31.9231 39.4381 31.9333 38.6078V38.1041H31.0518ZM13.4852 15.6892C13.4737 15.5357 13.5298 15.3849 13.6386 15.276C13.7475 15.1672 13.8983 15.1112 14.0518 15.1226H30.2333C30.3868 15.1112 30.5377 15.1672 30.6465 15.276C30.7554 15.3849 30.8114 15.5357 30.8 15.6892V16.2559C30.8114 16.4094 30.7554 16.5603 30.6465 16.6691C30.5377 16.778 30.3868 16.834 30.2333 16.8226H13.9889C13.8354 16.834 13.6845 16.778 13.5757 16.6691C13.4668 16.5603 13.4108 16.4094 13.4222 16.2559V15.6892H13.4852ZM30.6111 18.3967V26.5189C30.6225 26.6724 30.5665 26.8232 30.4576 26.9321C30.3488 27.0409 30.1979 27.097 30.0444 27.0855H28.9741C28.8205 27.097 28.6697 27.0409 28.5608 26.9321C28.452 26.8232 28.396 26.6724 28.4074 26.5189V18.3967C28.396 18.2431 28.452 18.0923 28.5608 17.9834C28.6697 17.8746 28.8205 17.8186 28.9741 17.83H30.0444C30.4222 17.8929 30.6111 18.0818 30.6111 18.3967ZM26.8963 18.3967V26.5189C26.8963 26.8318 26.6426 27.0855 26.3296 27.0855C26.0167 27.0855 25.7629 26.8318 25.7629 26.5189V18.3967C25.7515 18.2431 25.8076 18.0923 25.9164 17.9834C26.0252 17.8746 26.1761 17.8186 26.3296 17.83C26.7074 17.8929 26.8963 18.0818 26.8963 18.3967ZM24.8185 18.3967V26.5189C24.8299 26.6724 24.7739 26.8232 24.6651 26.9321C24.5562 27.0409 24.4053 27.097 24.2518 27.0855H22.1111C21.9576 27.097 21.8067 27.0409 21.6979 26.9321C21.589 26.8232 21.533 26.6724 21.5444 26.5189V18.3967C21.533 18.2431 21.589 18.0923 21.6979 17.9834C21.8067 17.8746 21.9576 17.8186 22.1111 17.83H24.2518C24.5667 17.8929 24.8185 18.0818 24.8185 18.3967ZM19.9704 18.3967V26.5189C19.9818 26.6724 19.9257 26.8232 19.8169 26.9321C19.7081 27.0409 19.5572 27.097 19.4037 27.0855H18.3333C18.1798 27.097 18.0289 27.0409 17.9201 26.9321C17.8113 26.8232 17.7552 26.6724 17.7667 26.5189V18.3967C17.7552 18.2431 17.8113 18.0923 17.9201 17.9834C18.0289 17.8746 18.1798 17.8186 18.3333 17.83H19.4037C19.7185 17.8929 19.9704 18.0818 19.9704 18.3967ZM13.4852 18.3967C13.4737 18.2431 13.5298 18.0923 13.6386 17.9834C13.7475 17.8746 13.8983 17.8186 14.0518 17.83H16.1926C16.3461 17.8186 16.4969 17.8746 16.6058 17.9834C16.7146 18.0923 16.7707 18.2431 16.7592 18.3967V26.5189C16.7707 26.6724 16.7146 26.8232 16.6058 26.9321C16.4969 27.0409 16.3461 27.097 16.1926 27.0855H14.0518C13.8983 27.097 13.7475 27.0409 13.6386 26.9321C13.5298 26.8232 13.4737 26.6724 13.4852 26.5189V18.3967ZM13.9889 29.667C13.8354 29.6784 13.6845 29.6224 13.5757 29.5136C13.4668 29.4047 13.4108 29.2539 13.4222 29.1004V28.5337C13.4108 28.3802 13.4668 28.2293 13.5757 28.1205C13.6845 28.0116 13.8354 27.9556 13.9889 27.967H30.1704C30.3239 27.9556 30.4747 28.0116 30.5836 28.1205C30.6924 28.2293 30.7484 28.3802 30.737 28.5337V29.1004C30.7484 29.2539 30.6924 29.4047 30.5836 29.5136C30.4747 29.6224 30.3239 29.6784 30.1704 29.667H13.9889Z" fill="white"/>
<path d="M40.3704 26.9592L39.8037 26.3926C39.4192 26.015 38.8031 26.015 38.4185 26.3926L30.9259 33.8852C30.863 33.9481 30.9259 34.0111 30.9259 34.074V35.6481C30.9259 35.774 30.9259 35.9 31.0519 35.9H32.6889C32.7519 35.9 32.8148 35.837 32.8778 35.837L40.3704 28.4074C40.5807 28.2256 40.7016 27.9613 40.7016 27.6833C40.7016 27.4053 40.5807 27.141 40.3704 26.9592Z" fill="white"/>
</g>
</g>
<defs>
<clipPath id="clip0_144_1133">
<rect width="48" height="48" fill="white"/>
</clipPath>
</defs>
</svg>
