<svg width="48" height="48" viewBox="0 0 48 48" fill="none" xmlns="http://www.w3.org/2000/svg">
<rect width="48" height="48" rx="4" fill="#45C173"/>
<mask id="mask0_0_527" style="mask-type:luminance" maskUnits="userSpaceOnUse" x="0" y="0" width="48" height="48">
<rect width="48" height="48" rx="4" fill="white"/>
</mask>
<g mask="url(#mask0_0_527)">
<path fill-rule="evenodd" clip-rule="evenodd" d="M23.9507 7.54838C18.3112 7.49957 13.1988 10.8562 11.0016 16.0503C8.80447 21.2444 9.9562 27.2508 13.9188 31.2638C17.8814 35.2768 23.8728 36.5043 29.0943 34.3729C34.3157 32.2415 37.7366 27.1719 37.759 21.5322C37.759 13.97 31.5952 7.54838 23.9507 7.54838ZM33.021 20.2929L27.2519 25.8535C26.8352 26.2703 26.2813 25.9248 26.2813 25.2284V21.8942C22.1136 21.8942 19.3332 24.7403 19.3332 28.9135H15.1655C15.1241 25.9464 16.2796 23.0877 18.3712 20.9828C20.4627 18.8778 23.314 17.704 26.2813 17.7264V14.321C26.2813 13.6245 26.9065 13.279 27.2519 13.6958L33.021 19.3222C33.2288 19.6124 33.2288 20.0027 33.021 20.2929Z" fill="white"/>
<path fill-rule="evenodd" clip-rule="evenodd" d="M10.8387 31.7925H10.1423C8.71008 31.7985 7.5514 32.9596 7.5484 34.3918V37.8522C7.5484 39.2856 8.70883 40.4485 10.1423 40.4515H37.8578C39.2899 40.4455 40.4486 39.2844 40.4516 37.8522V34.3918C40.4516 32.9584 39.2912 31.7955 37.8578 31.7925H37.0132C33.8824 35.8454 29.0501 38.2187 23.9287 38.2187C18.8073 38.2187 13.9751 35.8454 10.8442 31.7925L10.8387 31.7925Z" fill="white"/>
</g>
</svg>
