<svg width="48" height="48" viewBox="0 0 48 48" fill="none" xmlns="http://www.w3.org/2000/svg">
<rect width="48" height="48" fill="white"/>
<path fill-rule="evenodd" clip-rule="evenodd" d="M14.3928 35.4485C16.4985 39.9364 19.7995 42.8367 23.499 42.8367C29.832 42.8367 34.998 34.3382 34.998 23.9183C34.998 19.8147 34.197 16.0084 32.8377 12.9019L32.6213 12.4246C30.5177 7.91643 27.2086 5 23.499 5C17.1659 5 12 13.4985 12 23.9183C12 28.0382 12.8091 31.8586 14.1764 34.9712L14.3928 35.4485Z" fill="white"/>
<path fill-rule="evenodd" clip-rule="evenodd" d="M32.8398 12.9039C34.1991 16.0105 35 19.8168 35 23.9204C35 34.3403 29.8341 42.8388 23.501 42.8388C19.8015 42.8388 16.5005 39.9385 14.3949 35.4506L16.8059 32.5039C18.6709 33.9297 20.999 34.7792 23.5172 34.7792C29.6278 34.7792 34.6117 29.7856 34.6117 23.6636C34.6117 20.3548 33.1553 17.3756 30.8515 15.335L32.8398 12.9039ZM17.4896 31.6645L30.1638 16.1723C32.2249 18.0127 33.5275 20.6885 33.5275 23.6615C33.5275 29.187 29.0291 33.6931 23.5152 33.6931C21.2559 33.6951 19.1684 32.9367 17.4896 31.6645Z" fill="black"/>
<path fill-rule="evenodd" clip-rule="evenodd" d="M23.499 5C27.2086 5 30.5177 7.91643 32.6213 12.4246L30.4914 15.0315C28.584 13.4803 26.1548 12.5479 23.5172 12.5479C17.4066 12.5479 12.4227 17.5414 12.4227 23.6635C12.4227 27.0936 13.9863 30.1678 16.4378 32.2105L14.1784 34.9733C12.8091 31.8586 12 28.0402 12 23.9183C12 13.4985 17.1659 5 23.499 5ZM29.8057 15.8688L17.1214 31.3712C14.9127 29.5287 13.5029 26.7559 13.5029 23.6635C13.5029 18.1381 18.0013 13.632 23.5152 13.632C25.8959 13.632 28.0844 14.4713 29.8057 15.8688Z" fill="#0072BC"/>
<path fill-rule="evenodd" clip-rule="evenodd" d="M23.2947 33.3978C23.0641 33.052 22.8133 32.6899 22.5524 32.3178C21.6765 31.078 20.8513 30.0101 20.2971 29.3852V29.3771H20.2869C20.1757 29.2194 19.9289 29.0434 19.6174 28.914C19.4597 28.8492 19.3059 28.8047 19.1664 28.7805C17.2367 28.5742 15.8006 28.0059 15.8269 27.4032C15.833 27.2636 15.9179 27.1301 16.0696 27.0108C16.0494 27.027 16.0292 27.0432 16.013 27.0593V27.0573C16.102 26.9886 16.1687 26.5881 16.1687 26.1047C16.1687 26.0319 16.1667 25.9611 16.1647 25.8924C16.1323 25.8458 16.1121 25.773 16.1121 25.6942C16.1121 25.6355 16.1222 25.5829 16.1424 25.5384C16.1323 25.504 16.1283 25.4656 16.1283 25.4252C16.1283 25.4211 16.1283 25.4171 16.1283 25.413C16.1283 25.409 16.1283 25.4049 16.1283 25.4009C16.1283 25.3058 16.1586 25.2209 16.2011 25.1784C16.2213 25.1764 16.2416 25.1643 16.2577 25.1481C16.2618 25.1481 16.2638 25.1481 16.2679 25.1481C16.2719 25.14 16.2739 25.1319 16.278 25.1238C16.3103 25.0773 16.3306 25.0045 16.3306 24.9256C16.3306 24.9195 16.3306 24.9135 16.3306 24.9054C16.3386 24.8569 16.3427 24.8043 16.3447 24.7497C16.3528 24.5737 16.3326 24.4159 16.2942 24.3189H16.2962C16.2901 24.3027 16.282 24.2865 16.2739 24.2744L16.278 24.2703L16.2577 24.2501C16.2537 24.2461 16.2497 24.242 16.2456 24.238L16.2213 24.2157L15.8471 23.8537C15.7541 23.7789 15.6954 23.6717 15.6954 23.5523C15.6954 23.4007 15.7905 23.2672 15.928 23.1984L17.5381 21.4348C17.6534 21.3458 17.7768 21.0303 17.8375 20.64C17.8476 20.5732 17.8557 20.5065 17.8617 20.4438C17.9103 20.2516 18.2339 19.7521 18.6728 19.208C18.9317 18.8865 19.1846 18.6074 19.3848 18.4152C19.3868 18.4132 19.3909 18.4092 19.3929 18.4071C19.3929 18.4071 19.3929 18.4071 19.3949 18.4051C19.4415 18.3525 19.4819 18.219 19.5082 18.0451C19.5365 17.4181 19.9633 16.868 20.5903 16.5465C20.5944 16.5444 20.5964 16.5424 20.6005 16.5404C20.6025 16.5384 20.6045 16.5384 20.6065 16.5363C20.8533 16.4109 21.1486 16.3381 21.4662 16.3381C21.5976 16.3381 21.723 16.3503 21.8444 16.3745C22.2247 16.4211 22.6252 16.4797 23.0338 16.5545C24.3 16.7831 25.4246 17.1026 26.1972 17.4283C26.5998 17.6224 27.0447 17.7923 27.5241 17.9258C29.2191 18.399 30.813 18.2757 31.5351 17.6932C31.5452 17.7053 31.5533 17.7195 31.5634 17.7316C31.7374 17.582 32.059 17.8206 32.2633 17.8206C32.2633 17.8469 32.3725 17.9298 32.3725 17.9561C32.6719 18.0916 32.8074 18.7186 32.8883 18.9916L33.3232 20.0797C33.7034 20.9514 33.5942 22.0941 33.8106 22.9921C33.9725 23.7 33.8369 24.7072 33.8106 25.4434C33.8106 25.6072 33.7297 25.8236 33.7014 25.9874L33.2949 27.567C33.2686 27.7308 33.1047 28.0018 33.1047 28.194C33.0501 28.2486 32.9955 28.3841 32.9429 28.4387V28.465V28.4913C32.9166 28.4913 32.8337 28.5459 32.8337 28.6005C32.8074 28.6005 32.7528 28.6268 32.7245 28.6268L32.6435 28.7077L32.1561 28.734C32.1561 28.7461 32.1399 28.7522 32.1197 28.7562C32.1156 28.7643 32.1096 28.7724 32.1055 28.7825L31.7414 28.7845C30.0282 31.5493 26.9719 33.3978 23.501 33.3978C23.4322 33.3998 23.3635 33.3998 23.2947 33.3978Z" fill="white"/>
<path fill-rule="evenodd" clip-rule="evenodd" d="M15.7986 13.1547L15.5417 12.0424L15.5478 12.0383L16.4337 12.7421L15.7986 13.1547ZM16.6926 12.9221L17.2812 13.3853L17.5826 13.1891L15.5134 11.6257L15.1999 11.83L15.7582 14.3743L16.0454 14.1882L15.8734 13.4541L16.6926 12.9221Z" fill="white"/>
<path fill-rule="evenodd" clip-rule="evenodd" d="M16.2598 11.0473L18.0559 10.214L18.1793 10.4789L17.4309 10.8268L18.333 12.7745L18.0357 12.912L17.1315 10.9643L16.3831 11.3122L16.2598 11.0473Z" fill="white"/>
<path fill-rule="evenodd" clip-rule="evenodd" d="M19.3484 11.292L19.4334 10.1533L19.4395 10.1513L20.0766 11.0877L19.3484 11.292ZM20.2708 11.3345L20.6955 11.9513L21.0414 11.8543L19.5305 9.74683L19.1704 9.84795L18.9479 12.4448L19.2756 12.3518L19.3282 11.5994L20.2708 11.3345Z" fill="white"/>
<path fill-rule="evenodd" clip-rule="evenodd" d="M21.6624 11.4093L22.8902 11.2576L22.9266 11.5488L21.3711 11.739L21.0738 9.31804L21.4015 9.27759L21.6624 11.4093Z" fill="white"/>
<path fill-rule="evenodd" clip-rule="evenodd" d="M23.9885 10.5922L24.4759 9.55869H24.482L24.7429 10.661L23.9885 10.5922ZM24.836 10.9623L25.012 11.6904L25.37 11.7228L24.7126 9.21285L24.3404 9.17847L23.2057 11.5246L23.5435 11.5549L23.861 10.8713L24.836 10.9623Z" fill="white"/>
<path fill-rule="evenodd" clip-rule="evenodd" d="M27.9509 9.84797L28.2564 9.93898L27.5585 12.277L27.2046 12.1718L26.5796 9.92887L26.5735 9.92684L26.0092 11.8158L25.7037 11.7248L26.4016 9.38684L26.7758 9.49808L27.3805 11.7349L27.3866 11.737L27.9509 9.84797Z" fill="white"/>
<path fill-rule="evenodd" clip-rule="evenodd" d="M28.669 10.0704L30.4651 10.9057L30.3417 11.1707L29.5933 10.8228L28.6872 12.7684L28.3898 12.6309L29.294 10.6832L28.5456 10.3354L28.669 10.0704Z" fill="white"/>
<path fill-rule="evenodd" clip-rule="evenodd" d="M30.2204 12.4852L31.1427 11.8117L31.1488 11.8158L30.8494 12.9079L30.2204 12.4852ZM30.7867 13.2174L30.5905 13.9414L30.8899 14.1416L31.5149 11.6257L31.2054 11.4174L29.0836 12.9282L29.3648 13.1183L29.9716 12.6713L30.7867 13.2174Z" fill="white"/>
<path fill-rule="evenodd" clip-rule="evenodd" d="M18.9945 37.9464L18.6142 37.8251L19.2574 35.8046L18.594 35.5922L18.685 35.3091C19.1563 35.4244 19.3626 35.4406 19.6235 35.0098L19.9027 35.0988L18.9945 37.9464Z" fill="white"/>
<path fill-rule="evenodd" clip-rule="evenodd" d="M21.5026 37.2264C21.2538 37.196 20.9079 37.0808 20.9787 36.5124C21.0273 36.116 21.2882 35.8754 21.6341 35.9158C22.0588 35.9684 22.1964 36.2839 22.1559 36.6217C22.0811 37.2062 21.6968 37.2486 21.5026 37.2264ZM21.4075 37.552C21.6806 37.5864 21.9921 37.4954 22.1296 37.281L22.1377 37.2911C21.9516 38.0475 21.6948 38.363 21.2902 38.3125C20.9868 38.276 20.8331 38.0677 20.8473 37.7664L20.4771 37.7219C20.4427 38.0091 20.5661 38.5369 21.2619 38.6219C22.2813 38.7473 22.5018 37.4003 22.5402 37.0848C22.5989 36.6035 22.6151 35.6994 21.6705 35.5841C21.0475 35.5073 20.6591 35.9441 20.5944 36.4841C20.5196 37.0706 20.8594 37.4853 21.4075 37.552Z" fill="white"/>
<path fill-rule="evenodd" clip-rule="evenodd" d="M25.1617 37.1718C25.2082 37.9181 25.0403 38.3792 24.6135 38.4055C24.1847 38.4318 23.9622 37.995 23.9157 37.2487C23.8692 36.5024 24.037 36.0412 24.4638 36.0149C24.8926 35.9886 25.1151 36.4255 25.1617 37.1718ZM25.5601 37.1455C25.5217 36.5266 25.2992 35.6266 24.4436 35.6792C23.588 35.7318 23.4788 36.654 23.5172 37.2729C23.5556 37.8918 23.7781 38.7918 24.6337 38.7392C25.4893 38.6866 25.5986 37.7644 25.5601 37.1455Z" fill="white"/>
<path fill-rule="evenodd" clip-rule="evenodd" d="M26.0455 35.4951L28.0298 34.9288L28.1188 35.2423C27.9185 35.6225 27.4938 36.7329 27.6536 38.0738L27.2571 38.1871C27.1297 37.372 27.3583 36.1929 27.7264 35.394L26.1467 35.845L26.0455 35.4951Z" fill="white"/>
<path fill-rule="evenodd" clip-rule="evenodd" d="M24.0613 18.5022C23.6325 18.3646 23.1127 18.2817 22.5524 18.2817C21.7393 18.2817 21.0071 18.4536 20.5196 18.7226C20.5317 18.6862 20.5459 18.6518 20.56 18.6174C21.001 18.0431 22.2692 17.679 23.7316 17.766C24.1099 17.7882 24.474 17.8388 24.8097 17.9136C25.7442 18.1604 26.5614 18.4476 27.1581 18.7287C27.5525 18.939 27.9914 19.1271 28.4627 19.2808C29.7329 19.6914 30.9587 19.7581 31.8022 19.5255C31.8001 19.5296 31.8001 19.5316 31.7981 19.5357C31.428 20.5267 29.4376 20.7046 27.3644 19.9321C26.8992 19.7581 26.4683 19.5518 26.086 19.3233C25.5642 19.0482 24.8643 18.761 24.0613 18.4981V18.5022Z" fill="black"/>
<path fill-rule="evenodd" clip-rule="evenodd" d="M29.0493 21.1719C29.5003 21.2871 30.0343 21.3418 30.5966 21.3134C31.4138 21.273 32.1217 21.0667 32.5728 20.7755C32.5667 20.8119 32.5586 20.8462 32.5485 20.8826C32.1885 21.4732 30.9708 21.8959 29.4902 21.8858C29.1059 21.8838 28.7357 21.8514 28.3878 21.7948C27.4129 21.5986 26.5512 21.3559 25.91 21.1071C25.4833 20.9191 25.016 20.7552 24.5205 20.6278C23.1855 20.284 21.9456 20.282 21.1324 20.555C21.1324 20.551 21.1345 20.5489 21.1345 20.5449C21.361 19.5458 23.3331 19.2707 25.5257 19.9301C26.0172 20.0777 26.4804 20.2617 26.8991 20.468C27.4635 20.7148 28.2078 20.9635 29.0513 21.182L29.0493 21.1719Z" fill="black"/>
<path fill-rule="evenodd" clip-rule="evenodd" d="M32.9288 27.3101C32.0772 28.293 30.8535 28.9281 29.4801 28.9685C27.8741 29.015 26.4218 28.2384 25.5075 27.0107C26.4299 27.4982 27.5262 27.8359 28.7155 27.9532C30.2851 28.1069 31.7596 27.8541 32.9288 27.3101Z" fill="black"/>
<path fill-rule="evenodd" clip-rule="evenodd" d="M33.2585 25.2654C32.6537 26.2948 31.0113 27.0553 29.0776 27.0897C27.773 27.1119 26.5917 26.8004 25.7624 26.2867H25.7503C25.2406 25.9975 24.5528 25.775 23.7802 25.682C23.7013 25.6719 23.6204 25.6638 23.5435 25.6577C23.8752 25.5506 24.3121 25.4858 24.7895 25.4858C25.4266 25.4858 25.993 25.6031 26.3308 25.7791C26.9113 26.1816 27.9955 26.4546 29.2313 26.4546C30.3013 26.4546 31.256 26.2503 31.8689 25.9348C32.1056 25.8418 32.3564 25.7326 32.6112 25.6072C32.8418 25.4959 33.0582 25.3807 33.2585 25.2654Z" fill="black"/>
<path fill-rule="evenodd" clip-rule="evenodd" d="M33.1594 23.1802C33.1735 23.2429 33.1836 23.3056 33.1857 23.3703C33.2403 24.511 31.436 25.4979 29.1686 25.5667C27.51 25.6173 26.0496 25.1622 25.3639 24.4665C25.0039 24.1995 24.4679 23.9851 23.8509 23.8921C23.503 23.8395 23.1693 23.8314 22.8679 23.8618C23.1875 23.6373 23.6932 23.4916 24.2616 23.4916C24.8279 23.4916 25.3316 23.6352 25.6511 23.8597C26.2195 24.3694 27.5909 24.7375 29.1848 24.7476C31.2843 24.7597 32.9975 24.1489 32.9975 23.3865C32.9975 23.3844 32.9975 23.3844 32.9975 23.3824C33.0744 23.3197 33.1513 23.2307 33.1513 23.1822C33.1553 23.1822 33.1573 23.1802 33.1594 23.1802Z" fill="black"/>
<path fill-rule="evenodd" clip-rule="evenodd" d="M33.0785 21.4246C33.0805 21.459 33.0825 21.4934 33.0825 21.5278C33.0825 22.8161 31.1974 23.8658 28.8875 23.8658C27.3745 23.8658 26.0456 23.4148 25.3073 22.7433C24.749 22.3165 23.5678 22.0213 22.2045 22.0213C21.9375 22.0213 21.6786 22.0334 21.4298 22.0536C21.6705 21.5177 23.0803 21.3458 24.6661 21.6754C25.5925 21.8676 26.3894 22.1912 26.8911 22.5431C27.5444 22.8141 28.4303 22.9819 29.4053 22.9819C30.4166 22.9819 31.3309 22.8019 31.9903 22.5148H31.9943V22.5127C32.6355 22.2316 33.0299 21.8473 33.0299 21.4226H33.0785V21.4246Z" fill="black"/>
<path d="M16.1404 25.5323C16.2092 25.5546 16.28 25.5688 16.3528 25.5768C16.28 25.5688 16.2092 25.5546 16.1404 25.5323Z" stroke="black" stroke-width="0.0191613" stroke-miterlimit="2.6131"/>
</svg>
