<svg width="48" height="48" viewBox="0 0 48 48" fill="none" xmlns="http://www.w3.org/2000/svg">
<rect width="48" height="48" fill="white"/>
<path d="M36.2523 11.258C36.2523 9.97741 35.3876 9.5888 34.1493 9.26606C32.338 8.7937 28.6109 8.00049 23.9993 8.00049C19.3877 8.00049 15.6597 8.79276 13.8484 9.26512C12.6111 9.5888 11.7463 9.97647 11.7463 11.258V29.1811V29.1877V29.1943C11.7623 30.6848 12.4699 32.0999 13.6395 32.9816L23.2616 40.2767L23.9993 40.8357L24.7379 40.2767L34.3629 32.9797C35.5447 32.0886 36.2523 30.6678 36.2523 29.1811V11.258Z" fill="white"/>
<path d="M23.9998 8C19.3882 8 15.6602 8.7932 13.8489 9.26556C12.6115 9.5883 11.7468 9.97596 11.7468 11.2575V29.1807V29.1872V29.1938C11.7619 30.6843 12.4694 32.0995 13.64 32.9811L23.2621 40.2763L23.9998 40.8352L24.7384 40.2763L34.3633 32.9792C35.5452 32.0882 36.2527 30.6673 36.2527 29.1816V11.2575C36.2527 9.9769 35.388 9.5883 34.1497 9.26556C32.3384 8.7932 28.6113 8 23.9998 8ZM23.7316 8.92493L24.0224 9.82359H24.967L24.203 10.3787L24.4947 11.2764L23.7316 10.7212L22.9666 11.2764L23.2583 10.3787L22.4943 9.82359H23.439L23.7316 8.92493ZM13.5271 10.2347L13.8187 11.1334H14.7635L13.9994 11.6885L14.2911 12.5862L13.5271 12.031L12.763 12.5862L13.0547 11.6885L12.2907 11.1334H13.2354L13.5271 10.2347ZM33.7178 10.2347L34.0095 11.1334H34.9543L34.1902 11.6885L34.4818 12.5862L33.7178 12.031L32.9538 12.5862L33.2455 11.6885L32.4815 11.1334H33.4261L33.7178 10.2347ZM29.2663 11.7421C29.3556 11.7544 29.4441 11.7666 29.5316 11.7798C29.7932 11.8165 30.0463 11.856 30.291 11.8955C30.5375 11.936 30.7765 11.9774 31.0042 12.0197L24.5681 16.906V13.5591C25.5815 14.1604 26.2656 14.0992 26.7069 13.8188C26.9591 13.6588 27.1322 13.4264 27.2404 13.2062C28.3385 13.529 29.557 12.8478 29.2663 11.7421ZM17.4753 11.9341C17.4837 12.0281 17.5026 12.1176 17.5289 12.2032C17.5298 12.207 17.5308 12.2107 17.5317 12.2145C17.5326 12.2182 17.5345 12.2211 17.5355 12.2249C17.8168 13.0802 18.961 13.5233 20.0149 13.2128C20.2115 13.6118 20.6829 13.9618 21.3406 14.0531C21.7829 14.1143 22.3098 14.0568 22.8932 13.8178V18.1782L18.8651 21.2372C18.8782 21.1403 18.8867 21.0368 18.8867 20.9248V20.89V20.8279V20.7996C19.3271 20.5277 19.7156 19.998 19.9104 19.328C19.997 19.0307 20.0327 18.7362 20.0299 18.4596C19.949 18.4953 19.8634 18.5197 19.7825 18.5357C19.5689 18.5771 19.3854 18.5649 19.3845 18.5649C19.7373 18.5376 19.9932 18.4031 20.1597 18.2789C20.2087 18.2375 20.2623 18.1876 20.3188 18.1302C20.6669 17.7745 20.8965 17.3614 21.033 16.8825L21.6954 14.5659C21.3492 14.5339 21.0151 14.6986 20.8288 14.9922L20.5089 15.4965L20.1955 15.9923C20.125 16.1109 19.9989 16.2182 19.8559 16.2954C19.6357 16.1232 19.4644 15.9877 19.3289 15.8813C19.3082 15.8653 19.2885 15.8493 19.2697 15.8343L19.0608 14.9573L19.3647 14.4154C19.4522 14.2582 19.4804 14.0785 19.4513 13.9063C19.4325 13.8009 19.392 13.6974 19.3299 13.6043C19.28 13.5309 19.1765 13.514 19.1012 13.562L18.3381 14.0493C18.3165 14.0277 18.2958 14.0107 18.2742 13.9975C18.2262 13.9674 18.1772 13.96 18.1245 13.9684C18.0473 13.9816 17.9617 14.0315 17.8611 14.0992L17.6662 14.2413L17.3764 14.453L17.1544 14.4446L17.0001 14.4379C16.8495 14.4379 16.7893 14.7089 16.9286 14.9084C17.0443 15.074 17.1356 15.2886 17.1977 15.5473C17.1986 15.5511 17.2005 15.5549 17.2015 15.5586C17.2052 15.5775 17.2089 15.5962 17.2136 15.6151C17.2165 15.6301 17.2203 15.6442 17.2231 15.6593C17.272 15.9002 17.2974 16.1759 17.2974 16.4826C17.2974 17.1676 16.9286 18.6327 16.4534 19.5877C16.4308 19.6291 16.4073 19.6705 16.3847 19.7129L16.0272 20.3085C15.9698 20.3951 15.9829 20.5258 16.0507 20.6199C16.0996 20.6877 16.1777 20.7366 16.2794 20.7366C16.2794 20.7366 16.5663 21.0979 16.6566 21.7933C16.698 22.1094 16.699 22.4953 16.6134 22.9469L15.9359 23.4616L15.217 24.0074L15.218 12.3914C15.5633 12.3095 15.9557 12.2221 16.3894 12.1355C16.7263 12.0677 17.0895 11.9999 17.4753 11.9341ZM34.7572 13.8383L34.4501 14.0735L33.7964 14.5736L34.7572 13.8383ZM32.3903 15.6498V33.1897L29.0326 35.7349V18.2198L29.0329 18.2196L32.3902 15.6499L32.3903 15.6498ZM27.2169 16.0978L27.5085 16.9954H28.4533L27.6892 17.5506L27.9809 18.4492L27.2169 17.8941L26.4528 18.4492L26.7445 17.5506L25.9805 16.9954H26.9252L27.2169 16.0978ZM13.5271 17.8818L13.8187 18.7794H14.7635L13.9994 19.3346L14.2911 20.2332L13.5271 19.6781L12.763 20.2322L13.0547 19.3346L12.2907 18.7794H13.2354L13.5271 17.8818ZM25.6744 20.7895V38.2804L23.9998 39.5499L22.3166 38.274V23.3593L18.9584 25.9291V35.728L21.1454 37.3862L14.1971 32.1192C14.1971 32.119 14.1965 32.1188 14.1963 32.1185L15.6001 33.1822V28.4993L18.9582 25.9287L22.3164 23.359L25.6744 20.7895ZM20.6189 20.8599L20.9116 21.7585H21.8554L21.0913 22.3137L21.383 23.2113L20.6189 22.6571L19.8549 23.2113L20.1475 22.3137L19.3826 21.7585H20.3273L20.6189 20.8599ZM13.5271 25.9608L13.8187 26.8593H14.7635L13.9994 27.4145L14.2911 28.3122L13.5271 27.7579L12.763 28.3122L13.0547 27.4145L12.2907 26.8593H13.2354L13.5271 25.9608ZM15.3614 28.6819L14.344 29.4608L13.178 30.3526L14.3438 29.4601L15.3614 28.6819ZM13.0154 30.4771C13.1742 30.9336 13.4209 31.3533 13.7444 31.7068C13.4208 31.3536 13.174 30.9338 13.0152 30.4772L13.0154 30.4771ZM34.4874 31.4319C34.4754 31.4477 34.464 31.4638 34.4518 31.4794C34.4387 31.496 34.4251 31.5123 34.4117 31.5288C34.4252 31.5122 34.4388 31.4958 34.4519 31.4791C34.4641 31.4636 34.4755 31.4476 34.4874 31.4319ZM34.1511 31.817C34.0436 31.9235 33.9287 32.0236 33.8063 32.1164C33.8044 32.1173 33.8035 32.1183 33.8026 32.1192L32.5273 33.0859L33.8065 32.1161C33.9284 32.0234 34.0434 31.9235 34.1511 31.817Z" fill="#262F61"/>
<path d="M35.2128 27.3108V13.4893L34.4497 14.0736L32.39 15.6497V33.1898L33.8061 32.1162C34.0498 31.9308 34.2662 31.7163 34.4516 31.4792C34.9371 30.86 35.2128 30.0866 35.2128 29.2858V27.3108ZM29.0322 18.2196L25.674 20.7893V38.2805L29.0322 35.7352V18.2196ZM18.958 25.9291V35.7281L22.3162 38.2743V23.3594L18.958 25.9291ZM15.5998 28.4992L14.3436 29.4608L13.015 30.4771C13.2408 31.1263 13.6445 31.7012 14.194 32.1171L15.5998 33.1823V28.4992Z" fill="#CE3524"/>
</svg>
