<svg width="24" height="24" viewBox="0 0 24 24" fill="none" xmlns="http://www.w3.org/2000/svg">
<path fill-rule="evenodd" clip-rule="evenodd" d="M4.5898 11.411L12.1068 3.894C12.3655 3.63533 12.7849 3.63533 13.0436 3.89401L17.2197 8.07013C17.4784 8.32881 17.4784 8.7482 17.2197 9.00687L9.70267 16.5239C9.444 16.7826 9.02461 16.7826 8.76593 16.5239L4.58981 12.3478C4.33113 12.0891 4.33113 11.6697 4.5898 11.411ZM3.38773 13.5499C2.46516 12.6273 2.46516 11.1315 3.38772 10.209L10.9048 2.69192C11.8273 1.76936 13.3231 1.76936 14.2457 2.69192L18.4218 6.86805C19.3443 7.79062 19.3443 9.28639 18.4218 10.209L16.9299 11.7008L20.2757 15.0466C21.5275 16.2984 21.5275 18.328 20.2757 19.5798C19.0239 20.8316 16.9943 20.8316 15.7425 19.5798L12.3967 16.234L10.9048 17.726C9.98219 18.6486 8.48642 18.6485 7.56385 17.726L3.38773 13.5499ZM13.5988 15.032L16.9445 18.3777C17.5325 18.9657 18.4857 18.9657 19.0736 18.3777C19.6615 17.7898 19.6615 16.8366 19.0736 16.2487L15.7278 12.9029L13.5988 15.032Z" fill="#1C1C1C"/>
<path d="M2.89844 21.1017H7.62319" stroke="#1C1C1C" stroke-width="1.7" stroke-linecap="round"/>
</svg>
