<svg width="219" height="219" viewBox="0 0 219 219" fill="none" xmlns="http://www.w3.org/2000/svg">
<path d="M116.14 176.869V36.9562C116.14 31.3682 111.618 26.8467 106.03 26.8467H28.5237C22.9357 26.8467 18.4142 31.3682 18.4142 36.9562V176.869C18.4142 182.457 22.9357 186.978 28.5237 186.978H105.987C111.575 186.978 116.14 182.457 116.14 176.869ZM26.5615 154.048V36.9562C26.5615 35.8471 27.4573 34.9514 28.5664 34.9514H106.03C107.139 34.9514 108.035 35.8471 108.035 36.9562V154.048H26.5615ZM48.5295 178.788L34.197 170.513L48.5295 162.238V178.788ZM67.2982 178.746C62.734 178.746 59.0656 175.077 59.0656 170.513C59.0656 165.949 62.7767 162.28 67.2982 162.28C71.8198 162.28 75.5309 165.991 75.5309 170.513C75.5309 175.035 71.8198 178.746 67.2982 178.746ZM86.0243 178.788V162.238L100.357 170.513L86.0243 178.788Z" fill="#1B3954"/>
<path d="M173.64 48.5161L174.536 63.5311H178.034V118.515C178.034 121.672 175.475 124.188 172.361 124.188H161.952V122.866C161.952 122.269 161.441 121.757 160.843 121.757H153.293V118.942C153.293 117.406 152.056 116.212 150.563 116.212H149.412V63.5311H154.36L155.085 53.2936C152.611 54.36 149.966 54.9146 147.279 54.9146C144.591 54.9146 141.904 54.36 139.473 53.2936L140.198 63.5311H145.146V116.212H143.994C142.459 116.212 141.264 117.449 141.264 118.942V133.701C141.264 135.236 142.501 136.431 143.994 136.431H145.146V184.547C145.146 191.116 139.771 196.491 133.202 196.491H92.9773C90.3326 196.491 88.1572 194.315 88.1572 191.67V191.244H83.8915V191.67C83.8915 196.661 87.9865 200.756 92.9773 200.756H133.202C142.117 200.756 149.412 193.505 149.412 184.547V136.473H150.563C152.099 136.473 153.293 135.236 153.293 133.743V130.928H160.843C161.441 130.928 161.952 130.416 161.952 129.819V128.497H172.361C177.863 128.497 182.3 124.018 182.3 118.558V63.5311H186.608L187.077 55.4691C186.992 55.4691 186.949 55.4691 186.864 55.4691C181.702 54.8719 177.01 52.3125 173.64 48.5161Z" fill="#1B3954"/>
<path d="M139.089 48.303C141.477 49.7533 144.25 50.6064 147.279 50.6064C150.307 50.6064 153.08 49.7533 155.469 48.303C159.948 45.5303 162.976 40.5822 162.976 34.9089C162.976 26.2497 155.981 19.2114 147.321 19.2114C138.619 19.2541 131.581 26.2924 131.581 34.9516C131.581 40.6249 134.567 45.573 139.089 48.303ZM140.923 33.5439C141.563 30.6006 144.165 28.4252 147.279 28.4252C150.393 28.4252 152.995 30.6006 153.634 33.5439C153.72 33.9705 153.805 34.4397 153.805 34.9516C153.805 38.5347 150.904 41.478 147.321 41.478C143.738 41.478 140.795 38.5774 140.795 34.9516C140.752 34.4824 140.795 34.0131 140.923 33.5439Z" fill="#F46262"/>
<path d="M193.433 25.7378V44.4212C197.442 43.2269 200.386 39.4731 200.386 35.0795C200.386 30.6859 197.442 26.9322 193.433 25.7378Z" fill="#F46262"/>
<path d="M172.787 33.5438C172.787 33.6718 172.745 33.7998 172.745 33.9704L172.958 37.7668C174.237 44.8904 180.081 50.3931 187.333 51.1609C187.93 51.2462 188.527 51.2462 189.125 51.2462V18.4009C180.551 18.4435 173.47 25.0979 172.787 33.5438Z" fill="#F46262"/>
</svg>
