<svg width="219" height="219" viewBox="0 0 219 219" fill="none" xmlns="http://www.w3.org/2000/svg">
<path d="M169.303 27.8281C156.037 14.562 135.945 12.2585 120.291 20.9604L176.17 76.8401C184.872 61.1853 182.569 41.1368 169.303 27.8281Z" fill="#F46262"/>
<path d="M166.786 93.5188C168.151 94.8838 169.985 95.609 171.777 95.609C173.568 95.609 175.403 94.9265 176.768 93.5188C179.54 90.7462 179.54 86.2673 176.768 83.4946L114.447 21.1312C113.082 19.7662 111.248 19.041 109.456 19.041C107.664 19.041 105.83 19.7235 104.465 21.1312C101.693 23.9038 101.693 28.3827 104.465 31.1554L166.786 93.5188Z" fill="#1B3954"/>
<path d="M111.162 85.9686C118.755 93.5614 128.566 97.5711 138.505 97.955C145.927 98.2536 153.435 96.5473 160.132 92.8362L104.252 36.9565C100.626 43.4829 98.9198 50.8198 99.1331 58.114C99.4317 68.2662 103.441 78.2478 111.162 85.9686Z" fill="#F46262"/>
<path d="M134.069 101.879C124.3 100.557 115.215 96.0781 108.134 88.9971C100.967 81.8309 96.4458 72.6171 95.2087 62.6782L36.4711 130.16L66.7997 160.489L134.069 101.879ZM89.4502 93.3481L103.569 107.467L92.5641 118.473L78.4448 104.353L89.4502 93.3481ZM75.4163 107.382L89.5355 121.501L78.5302 132.507L64.4109 118.387L75.4163 107.382Z" fill="#1B3954"/>
<path d="M191.868 162.835C189.479 154.133 183.891 147.351 176.938 144.706C169.9 142.019 161.241 143.256 153.136 148.204C147.889 151.403 143.41 155.669 139.102 159.764C137.865 160.916 136.628 162.153 135.348 163.304C115.94 181.177 90.9431 193.505 64.9655 198.069C57.5433 199.349 46.7513 200.501 38.6892 195.467C32.4614 191.5 28.5797 183.865 29.1769 176.442C29.5181 172.177 31.3097 167.954 34.253 164.541C35.362 163.262 36.7697 162.238 38.22 161.171C40.0542 159.849 41.8884 158.484 43.4241 156.522C47.6897 159.636 53.3203 160.02 57.9272 157.674L39.2438 138.99C36.8977 143.597 37.2816 149.228 40.3955 153.493C40.2675 153.579 40.1822 153.707 40.0542 153.835C38.9452 155.328 37.3669 156.479 35.6606 157.716C34.0397 158.911 32.3761 160.105 30.9684 161.726C27.428 165.821 25.2525 170.897 24.8259 176.101C24.1434 185.059 28.793 194.273 36.4284 199.05C41.7605 202.377 47.903 203.401 53.7469 203.401C58.0978 203.401 62.2355 202.847 65.7333 202.207C92.5214 197.515 118.243 184.803 138.249 166.376C139.529 165.181 140.808 163.987 142.045 162.792C146.183 158.825 150.491 154.73 155.354 151.787C162.307 147.564 169.601 146.412 175.402 148.631C181.076 150.806 185.725 156.522 187.73 163.944C189.65 170.982 189.308 178.703 188.967 185.528C188.925 186.723 189.82 187.704 191.015 187.746C192.209 187.789 193.19 186.893 193.233 185.699C193.617 178.575 194.001 170.513 191.868 162.835Z" fill="#F46262"/>
</svg>
