<svg width="219" height="219" viewBox="0 0 219 219" fill="none" xmlns="http://www.w3.org/2000/svg">
<path d="M81.5028 65.4773V78.0182H98.224V56.1782L35.4767 17.3184L31.0404 24.5273L43.5387 32.7599V41.9737L81.5028 65.4773Z" fill="#1B3954"/>
<path d="M132.904 112.356V154.543C132.904 161.795 127.017 167.682 119.765 167.682C113.239 167.682 107.822 162.904 106.798 156.676C106.542 156.676 106.243 156.719 105.987 156.719C99.3757 156.719 94.001 151.344 94.001 144.732C94.001 138.974 98.096 134.111 103.556 133.002C98.096 131.85 94.001 127.03 94.001 121.271C94.001 115.513 98.096 110.65 103.556 109.541C98.096 108.432 94.001 103.569 94.001 97.8106C94.001 91.1989 99.3757 85.8242 105.987 85.8242C106.201 85.8242 106.414 85.8242 106.627 85.8242V82.2837H73.2274V154.543C73.2274 180.222 94.129 201.124 119.808 201.124C145.487 201.124 166.389 180.222 166.389 154.543V135.049C165.919 134.922 165.45 134.751 165.024 134.58C152.483 130.357 141.264 122.551 132.904 112.356Z" fill="#F46262"/>
<path d="M182.811 106.769C176.797 106.001 171.209 103.911 166.303 100.754C165.45 100.199 164.597 99.6023 163.787 99.0051C155.469 92.692 149.71 83.1796 148.345 72.3023C148.004 69.4443 145.53 67.3115 142.672 67.3115H126.974C123.604 67.3115 120.96 70.2548 121.301 73.6246C122.41 85.3125 126.505 96.1471 132.904 105.276C140.966 116.921 152.653 125.879 166.303 130.528C171.124 132.192 176.2 133.301 181.489 133.77C184.859 134.069 187.802 131.467 187.802 128.097V112.399C187.759 109.541 185.627 107.11 182.811 106.769Z" fill="#1B3954"/>
<path d="M105.945 90.0474C101.679 90.0474 98.224 93.5025 98.224 97.7681C98.224 102.034 101.679 105.489 105.945 105.489C106.158 105.489 106.371 105.489 106.585 105.446C110.552 105.105 113.666 101.82 113.666 97.7681C113.666 93.7158 110.552 90.3886 106.585 90.09C106.371 90.09 106.158 90.0474 105.945 90.0474Z" fill="#1B3954"/>
<path d="M106.585 113.551C106.371 113.551 106.158 113.508 105.945 113.508C101.679 113.508 98.224 116.963 98.224 121.229C98.224 125.495 101.679 128.95 105.945 128.95C106.158 128.95 106.371 128.95 106.585 128.907C110.552 128.566 113.666 125.281 113.666 121.229C113.666 117.219 110.552 113.892 106.585 113.551Z" fill="#1B3954"/>
<path d="M106.585 137.012C106.371 137.012 106.158 136.969 105.945 136.969C101.679 136.969 98.224 140.424 98.224 144.69C98.224 148.956 101.679 152.411 105.945 152.411C106.158 152.411 106.371 152.411 106.585 152.368C110.552 152.027 113.666 148.742 113.666 144.69C113.666 140.68 110.552 137.353 106.585 137.012Z" fill="#1B3954"/>
</svg>
