<svg width="219" height="219" viewBox="0 0 219 219" fill="none" xmlns="http://www.w3.org/2000/svg">
<path d="M184.104 126.433C181.118 125.068 177.919 124.13 174.549 123.746C174.592 124.215 174.635 124.685 174.635 125.154V189.607C190.972 187.517 203.556 173.569 203.556 156.677C203.556 143.24 195.579 131.68 184.104 126.433Z" fill="#1B3954"/>
<path d="M168.023 119.523C166.573 118.073 164.568 117.177 162.392 117.177C157.999 117.177 154.416 120.76 154.416 125.153V192.934C154.416 197.328 157.999 200.911 162.392 200.911C166.786 200.911 170.369 197.328 170.369 192.934V125.153C170.369 124.556 170.326 124.002 170.198 123.447C169.815 121.954 169.089 120.589 168.023 119.523Z" fill="#F46262"/>
<path d="M14.8444 156.677C14.8444 173.569 27.4706 187.517 43.7653 189.607V125.154C43.7653 124.685 43.808 124.215 43.8506 123.746C40.4808 124.173 37.2815 125.111 34.2956 126.433C22.8211 131.68 14.8444 143.24 14.8444 156.677Z" fill="#1B3954"/>
<path d="M56.0503 117.177C53.8321 117.177 51.87 118.073 50.4196 119.523C49.3532 120.589 48.5854 121.954 48.2442 123.49C48.1162 124.044 48.0735 124.599 48.0735 125.196V192.977C48.0735 197.37 51.6567 200.954 56.0503 200.954C60.4439 200.954 64.027 197.37 64.027 192.977V125.153C63.9843 120.76 60.4439 117.177 56.0503 117.177Z" fill="#F46262"/>
<path d="M184.104 101.607C184.104 85.0992 178.644 69.1031 168.663 56.0503L158.681 64.6669C166.615 75.2883 170.966 88.2558 170.966 101.607V116.409C171.009 116.452 171.009 116.452 171.052 116.494C171.905 117.347 172.587 118.286 173.142 119.31C176.895 119.608 180.607 120.419 184.104 121.826V101.607Z" fill="#1B3954"/>
<path d="M49.7372 56.0503C39.7556 69.1031 34.2956 85.0992 34.2956 101.607V121.826C37.7934 120.419 41.5045 119.608 45.2582 119.31C45.8128 118.286 46.5379 117.347 47.3484 116.494C47.3911 116.452 47.3911 116.452 47.4337 116.409V101.607C47.4337 88.2558 51.742 75.2883 59.7187 64.6669L49.7372 56.0503Z" fill="#1B3954"/>
<path d="M109.2 17.4893C84.6726 17.4893 61.4677 28.1533 45.4716 46.7514L69.4017 67.3544C79.3833 55.7519 93.9291 49.0975 109.2 49.0975C124.471 49.0975 139.017 55.7519 148.998 67.3544L172.928 46.7514C156.932 28.1533 133.727 17.4893 109.2 17.4893ZM123.021 27.94C122.85 29.0918 121.741 29.9022 120.589 29.7316C112.868 28.4946 104.892 28.5372 97.1709 29.8596C97.043 29.8596 96.915 29.9022 96.8297 29.9022C95.8059 29.9022 94.9102 29.1771 94.7395 28.1107C94.5262 26.9589 95.3367 25.8499 96.4884 25.6366C104.636 24.2716 113.124 24.2289 121.272 25.5086C122.381 25.6793 123.191 26.7883 123.021 27.94Z" fill="#F46262"/>
</svg>
