<svg width="219" height="219" viewBox="0 0 219 219" fill="none" xmlns="http://www.w3.org/2000/svg">
<path d="M78.6155 109.2C78.6155 122.594 89.4928 133.472 102.887 133.472C116.281 133.472 127.158 122.594 127.158 109.2C127.158 95.8061 116.281 84.9287 102.887 84.9287C89.4502 84.9287 78.6155 95.8061 78.6155 109.2Z" fill="#1B3954"/>
<path d="M102.887 80.6632V23.7598C55.7091 23.7598 17.4464 62.0224 17.4464 109.2H74.3498C74.3498 93.4601 87.1467 80.6632 102.887 80.6632Z" fill="#F46262"/>
<path d="M121.656 190.076C112.229 190.076 104.55 182.398 104.55 172.929C104.55 163.459 112.229 155.781 121.656 155.781C124.13 155.781 126.518 156.293 128.737 157.316L173.398 132.661V72.1319C166.999 71.7054 161.966 66.3733 161.966 59.8896V47.5193C147.591 33.7413 128.395 24.9114 107.152 23.8877V81.0044C120.845 83.0519 131.424 94.9103 131.424 109.2C131.424 124.94 118.627 137.737 102.887 137.737C88.597 137.737 76.7386 127.201 74.6911 113.466H17.5317C19.7498 158.681 57.1167 194.641 102.844 194.641C133.13 194.641 159.748 178.858 174.933 155.056L138.59 175.104C137.566 183.55 130.357 190.076 121.656 190.076ZM101.565 186.536C83.0091 186.237 65.2214 179.242 51.3581 166.871C37.6228 154.586 28.7076 137.865 26.2336 119.736C26.063 118.585 26.8734 117.476 28.0678 117.348C29.2622 117.177 30.3286 117.987 30.4566 119.182C35.2767 154.544 65.8612 181.673 101.607 182.27C102.802 182.27 103.74 183.251 103.697 184.446C103.697 185.598 102.759 186.536 101.565 186.536Z" fill="#1B3954"/>
<path d="M192.977 23.7598H174.251C169.857 23.7598 166.274 27.3429 166.274 31.7365V59.847C166.274 64.2405 169.857 67.8237 174.251 67.8237H177.706V135.135L128.737 162.137C126.689 160.814 124.258 160.004 121.656 160.004C114.532 160.004 108.773 165.762 108.773 172.886C108.773 179.967 114.532 185.768 121.656 185.768C128.737 185.768 134.495 180.01 134.495 172.886C134.495 172.758 134.495 172.587 134.495 172.459L177.663 148.615L179.028 147.889L189.522 142.088V67.8663H192.977C197.37 67.8663 200.954 64.2832 200.954 59.8896V31.7791C200.954 27.3429 197.37 23.7598 192.977 23.7598Z" fill="#F46262"/>
</svg>
