<svg width="219" height="219" viewBox="0 0 219 219" fill="none" xmlns="http://www.w3.org/2000/svg">
<path d="M134.154 106.729L114.233 126.65C115.129 134.2 112.527 141.707 107.11 147.167C102.418 151.859 96.1472 154.461 89.4928 154.461C82.8384 154.461 76.5679 151.859 71.8758 147.167C67.1836 142.475 64.5815 136.205 64.5815 129.55C64.5815 122.896 67.1836 116.625 71.8758 111.933C76.5679 107.241 82.8384 104.639 89.4928 104.639C90.4739 104.639 91.4123 104.682 92.3934 104.81L112.314 84.8891L100.413 72.988C94.6115 67.1868 88.6823 70.6419 82.8811 76.4432L69.2311 90.0932L69.359 90.2211C75.075 95.9371 68.3353 102.208 60.3159 103.445C50.4197 104.938 40.9073 109.502 33.2719 117.137C14.2898 136.119 21.4134 159.708 40.3954 178.69C59.3775 197.672 83.009 204.796 101.948 185.814C109.584 178.178 114.148 168.666 115.641 158.77C116.835 150.75 123.106 144.011 128.865 149.727L128.992 149.855L142.642 136.205C148.444 130.403 151.899 124.474 146.098 118.673L134.154 106.729ZM76.5679 179.159L39.7983 142.39L47.4764 134.712L84.2461 171.481L76.5679 179.159Z" fill="#1B3954"/>
<path d="M74.8617 114.962C66.7997 123.024 66.7997 136.119 74.8617 144.181C82.9237 152.244 96.0192 152.244 104.081 144.181C109.243 139.02 111.077 131.854 109.669 125.199C108.859 121.446 106.982 117.863 104.081 114.962C101.181 112.061 97.5975 110.184 93.8437 109.374C87.1894 107.924 79.9805 109.801 74.8617 114.962Z" fill="#F46262"/>
<path d="M97.2562 105.876C100.925 107.07 104.295 109.161 107.067 111.933C109.84 114.706 111.887 118.033 113.124 121.744L164.696 70.1302L148.87 54.3047L97.2562 105.876Z" fill="#1B3954"/>
<path d="M195.664 51.02L192.166 47.5222C192.124 47.4796 192.038 47.4369 191.996 47.3943L194.939 43.7258C196.603 41.6783 196.432 38.735 194.555 36.8582L182.142 24.4452C180.265 22.5683 177.322 22.4404 175.275 24.0613L171.606 27.0046C171.563 26.9619 171.521 26.8766 171.478 26.8339L167.98 23.3361C167.127 22.483 165.805 22.483 164.952 23.3361C164.099 24.1893 164.099 25.5116 164.952 26.3647L168.322 29.7346L151.728 43.1286C149.34 45.0482 149.169 48.6313 151.302 50.7641L168.279 67.7413C170.454 69.9168 173.995 69.7035 175.914 67.3147L189.308 50.7214L192.678 54.0913C193.105 54.5179 193.659 54.7311 194.171 54.7311C194.683 54.7311 195.28 54.5179 195.664 54.0913C196.517 53.1955 196.517 51.8305 195.664 51.02Z" fill="#F46262"/>
</svg>
