<svg width="219" height="219" viewBox="0 0 219 219" fill="none" xmlns="http://www.w3.org/2000/svg">
<path d="M185.856 93.5186H33.7866V112.842H185.856V93.5186Z" fill="#1B3954"/>
<path d="M185.856 181.988H33.7866V201.311H185.856V181.988Z" fill="#1B3954"/>
<path d="M60.3615 117.15H34.4691C35.7061 120.989 38.6068 124.061 42.3179 125.554C43.8961 126.194 45.6451 126.535 47.4366 126.535C49.2282 126.535 50.9771 126.194 52.5554 125.554C56.2238 124.018 59.1244 120.947 60.3615 117.15Z" fill="#1B3954"/>
<path d="M60.3615 177.722C59.1245 173.926 56.2239 170.812 52.5128 169.319C50.9345 168.679 49.1856 168.338 47.394 168.338C45.6024 168.338 43.8535 168.679 42.2753 169.319C38.5642 170.812 35.6635 173.883 34.4265 177.722H60.3615Z" fill="#1B3954"/>
<path d="M42.3179 130.032V164.797C43.9815 164.328 45.6877 164.072 47.4366 164.072C49.1855 164.072 50.8918 164.328 52.5554 164.797V130.032C50.8918 130.544 49.1855 130.757 47.4366 130.757C45.6877 130.757 43.9388 130.544 42.3179 130.032Z" fill="#F46262"/>
<path d="M101.951 117.15H76.0164C77.2534 120.989 80.154 124.061 83.8651 125.554C85.4434 126.194 87.1923 126.535 88.9839 126.535C90.7754 126.535 92.5243 126.194 94.1026 125.554C97.8137 124.018 100.714 120.947 101.951 117.15Z" fill="#1B3954"/>
<path d="M101.951 177.722C100.714 173.926 97.8137 170.812 94.1026 169.319C92.5243 168.679 90.7754 168.338 88.9839 168.338C87.1923 168.338 85.4434 168.679 83.8651 169.319C80.154 170.812 77.2534 173.883 76.0164 177.722H101.951Z" fill="#1B3954"/>
<path d="M83.9077 130.032V164.797C85.5713 164.328 87.2776 164.072 89.0265 164.072C90.7754 164.072 92.4816 164.328 94.1452 164.797V130.032C92.4816 130.544 90.7754 130.757 89.0265 130.757C87.2776 130.757 85.5287 130.544 83.9077 130.032Z" fill="#F46262"/>
<path d="M143.541 117.15H117.606C118.843 120.989 121.744 124.061 125.455 125.554C127.033 126.194 128.782 126.535 130.574 126.535C132.365 126.535 134.114 126.194 135.692 125.554C139.404 124.018 142.304 120.947 143.541 117.15Z" fill="#1B3954"/>
<path d="M143.541 177.722C142.304 173.926 139.404 170.812 135.692 169.319C134.114 168.679 132.365 168.338 130.574 168.338C128.782 168.338 127.033 168.679 125.455 169.319C121.744 170.812 118.843 173.883 117.606 177.722H143.541Z" fill="#1B3954"/>
<path d="M125.498 130.032V164.797C127.161 164.328 128.867 164.072 130.616 164.072C132.365 164.072 134.071 164.328 135.735 164.797V130.032C134.071 130.544 132.365 130.757 130.616 130.757C128.867 130.757 127.118 130.544 125.498 130.032Z" fill="#F46262"/>
<path d="M185.131 117.15H159.196C160.433 120.989 163.334 124.061 167.045 125.554C168.623 126.194 170.372 126.535 172.164 126.535C173.955 126.535 175.704 126.194 177.282 125.554C180.993 124.018 183.894 120.947 185.131 117.15Z" fill="#1B3954"/>
<path d="M185.131 177.722C183.894 173.926 180.993 170.812 177.282 169.319C175.704 168.679 173.955 168.338 172.164 168.338C170.372 168.338 168.623 168.679 167.045 169.319C163.334 170.812 160.433 173.883 159.196 177.722H185.131Z" fill="#1B3954"/>
<path d="M167.087 130.032V164.797C168.751 164.328 170.457 164.072 172.206 164.072C173.955 164.072 175.661 164.328 177.325 164.797V130.032C175.661 130.544 173.955 130.757 172.206 130.757C170.457 130.757 168.708 130.544 167.087 130.032Z" fill="#F46262"/>
<path d="M181.761 25.9512L173.699 17.8892L120.251 74.366L125.284 79.3568L181.761 25.9512Z" fill="#F46262"/>
<path d="M99.3493 74.366L45.901 17.8892L37.839 25.9512L94.3159 79.3568L99.3493 74.366Z" fill="#F46262"/>
</svg>
