<svg width="219" height="220" viewBox="0 0 219 220" fill="none" xmlns="http://www.w3.org/2000/svg">
<path d="M173.187 61.9263H130.531V78.7755H173.187V61.9263Z" fill="#1B3954"/>
<path d="M159.409 32.3652H144.266V57.6604H159.409V32.3652Z" fill="#F46262"/>
<path d="M159.409 21.8293L151.859 14.791L144.266 21.8293V28.0998H159.409V21.8293Z" fill="#1B3954"/>
<path d="M140.641 145.745H149.726V177.396C149.726 190.407 139.148 200.985 126.137 200.985H125.626C112.615 200.985 102.037 190.407 102.037 177.396V101.468C102.037 86.1121 89.5384 73.6138 74.1821 73.6138C66.7599 73.6138 59.7643 76.5144 54.5176 81.7611C49.2709 87.0078 46.3702 94.0035 46.3702 101.426V203.075C46.3702 204.27 47.3087 205.208 48.5031 205.208C49.6974 205.208 50.6359 204.27 50.6359 203.075V101.468C50.6359 95.1552 53.0673 89.2686 57.5462 84.7897C61.9824 80.3535 67.9116 77.8794 74.2248 77.8794C87.2349 77.8794 97.8137 88.4581 97.8137 101.468V177.396C97.8137 192.753 110.312 205.251 125.668 205.251H126.18C141.536 205.251 154.035 192.753 154.035 177.396V145.703H163.12V127.787H140.683V145.745H140.641Z" fill="#1B3954"/>
<path d="M130.531 83.041V110C130.531 115.161 132.365 119.896 135.436 123.564H136.375H167.343H168.282C171.353 119.896 173.187 115.161 173.187 110V83.041H130.531Z" fill="#F46262"/>
</svg>
