<svg width="219" height="219" viewBox="0 0 219 219" fill="none" xmlns="http://www.w3.org/2000/svg">
<path d="M196.192 113.069L105.932 22.808C101.111 17.9878 93.2626 17.9878 88.4425 22.808L86.395 24.8555C81.5748 29.6756 81.5748 37.5244 86.395 42.3446L176.698 132.648C181.518 137.468 189.367 137.468 194.187 132.648L196.235 130.6C201.055 125.738 201.055 117.889 196.192 113.069Z" fill="#1B3954"/>
<path d="M40.6675 153.763C36.2312 149.326 29.0223 149.326 24.5861 153.763L22.7092 155.64C18.273 160.076 18.273 167.285 22.7092 171.721L47.2792 196.291C51.7155 200.727 58.9244 200.727 63.3606 196.291L65.2375 194.414C69.6737 189.978 69.6737 182.769 65.2375 178.333L40.6675 153.763Z" fill="#1B3954"/>
<path d="M83.8356 45.7998L40.3689 148.217C41.5633 148.9 42.6723 149.753 43.6961 150.734L68.2661 175.304C69.2898 176.328 70.143 177.437 70.7828 178.631L82.8119 173.555L96.0353 186.779C98.8933 189.637 102.69 191.215 106.742 191.215C110.794 191.215 114.591 189.637 117.449 186.779C123.335 180.892 123.335 171.252 117.449 165.365L112.885 160.801L173.2 135.207L83.8356 45.7998ZM117.619 176.029C117.619 178.93 116.468 181.66 114.42 183.707C112.373 185.755 109.643 186.907 106.699 186.907C103.799 186.907 101.069 185.755 99.0212 183.707L87.0348 171.721L108.662 162.55L114.42 168.309C116.468 170.399 117.619 173.129 117.619 176.029Z" fill="#F46262"/>
</svg>
