<svg width="220" height="220" viewBox="0 0 220 220" fill="none" xmlns="http://www.w3.org/2000/svg">
<path d="M195.952 51.7739H24.0476C20.8484 51.7739 18.289 54.3333 18.289 57.5325V162.467C18.289 165.666 20.8484 168.225 24.0476 168.225H195.952C199.152 168.225 201.711 165.666 201.711 162.467V57.5325C201.711 54.3333 199.152 51.7739 195.952 51.7739ZM185.502 152.016H34.4984V67.9833H78.8183L91.018 86.752H106.715H113.327H129.025L141.224 67.9833H185.502V152.016Z" fill="#1B3954"/>
<path d="M81.2923 119.214H86.1125C85.7286 115.929 84.4062 112.9 82.4867 110.426L79.0742 113.839C78.6476 114.265 78.0931 114.479 77.5812 114.479C77.0694 114.479 76.4722 114.265 76.0883 113.839C75.2351 112.986 75.2351 111.663 76.0883 110.81L79.5008 107.398C77.0267 105.436 73.9981 104.156 70.7136 103.772V108.635C70.7136 109.829 69.7751 110.768 68.5808 110.768C67.3864 110.768 66.4479 109.829 66.4479 108.635V103.772C63.1634 104.156 60.1348 105.478 57.6608 107.398L61.0733 110.81C61.9264 111.663 61.9264 112.986 61.0733 113.839C60.6467 114.265 60.0922 114.479 59.5803 114.479C59.0684 114.479 58.4712 114.265 58.0873 113.839L54.6748 110.426C52.7126 112.9 51.433 115.929 51.049 119.214H55.8265C57.0209 119.214 57.9594 120.152 57.9594 121.346C57.9594 122.541 57.0209 123.479 55.8265 123.479H50.9637C51.3476 126.764 52.67 129.792 54.5895 132.266L58.002 128.854C58.8551 128.001 60.1775 128.001 61.0306 128.854C61.8837 129.707 61.8837 131.029 61.0306 131.882L57.6181 135.295C60.0922 137.257 63.1208 138.537 66.4053 138.921V134.058C66.4053 132.864 67.3437 131.925 68.5381 131.925C69.7325 131.925 70.6709 132.864 70.6709 134.058V138.921C73.9555 138.537 76.984 137.214 79.4581 135.295L76.0456 131.882C75.1925 131.029 75.1925 129.707 76.0456 128.854C76.8987 128.001 78.2211 128.001 79.0742 128.854L82.4867 132.266C84.4489 129.792 85.7286 126.764 86.1125 123.479H81.2497C80.0553 123.479 79.1169 122.541 79.1169 121.346C79.1169 120.152 80.0979 119.214 81.2923 119.214Z" fill="#F46262"/>
<path d="M140.542 107.398L143.954 110.81C144.807 111.663 144.807 112.986 143.954 113.839C143.528 114.265 142.973 114.479 142.461 114.479C141.95 114.479 141.352 114.265 140.968 113.839L137.556 110.426C135.594 112.9 134.314 115.929 133.93 119.214H138.793C139.987 119.214 140.926 120.152 140.926 121.346C140.926 122.541 139.987 123.479 138.793 123.479H133.887C134.271 126.764 135.594 129.792 137.513 132.266L140.926 128.854C141.779 128.001 143.101 128.001 143.954 128.854C144.807 129.707 144.807 131.029 143.954 131.882L140.542 135.295C143.016 137.257 146.045 138.537 149.329 138.921V134.058C149.329 132.864 150.267 131.925 151.462 131.925C152.656 131.925 153.595 132.864 153.595 134.058V138.921C156.879 138.537 159.908 137.214 162.382 135.295L158.969 131.882C158.116 131.029 158.116 129.707 158.969 128.854C159.822 128.001 161.145 128.001 161.998 128.854L165.41 132.266C167.373 129.792 168.652 126.764 169.036 123.479H164.173C162.979 123.479 162.041 122.541 162.041 121.346C162.041 120.152 162.979 119.214 164.173 119.214H169.036C168.652 115.929 167.33 112.9 165.41 110.426L161.998 113.839C161.571 114.265 161.017 114.479 160.505 114.479C159.993 114.479 159.396 114.265 159.012 113.839C158.159 112.986 158.159 111.663 159.012 110.81L162.425 107.398C159.95 105.436 156.922 104.156 153.637 103.772V108.635C153.637 109.829 152.699 110.768 151.505 110.768C150.31 110.768 149.372 109.829 149.372 108.635V103.772C146.002 104.156 143.016 105.478 140.542 107.398Z" fill="#F46262"/>
<path d="M65.8934 87.4771C68.2395 87.4771 70.1591 85.5575 70.1591 83.2114C70.1591 80.8653 68.2395 78.9458 65.8934 78.9458H52.3714C50.0253 78.9458 48.1058 80.8653 48.1058 83.2114C48.1058 85.5575 50.0253 87.4771 52.3714 87.4771H65.8934Z" fill="#1B3954"/>
<path d="M154.107 87.4771H167.629C169.975 87.4771 171.894 85.5575 171.894 83.2114C171.894 80.8653 169.975 78.9458 167.629 78.9458H154.107C151.76 78.9458 149.841 80.8653 149.841 83.2114C149.841 85.5575 151.76 87.4771 154.107 87.4771Z" fill="#1B3954"/>
<path d="M121.944 113.412H98.0562V130.347H121.944V113.412Z" fill="#1B3954"/>
<path d="M128.342 101.81H91.6578C90.4634 101.81 89.525 102.748 89.525 103.942C89.525 105.137 90.4634 106.075 91.6578 106.075H128.342C129.537 106.075 130.475 105.137 130.475 103.942C130.475 102.748 129.537 101.81 128.342 101.81Z" fill="#1B3954"/>
<path d="M128.342 137.684H91.6578C90.4634 137.684 89.525 138.622 89.525 139.816C89.525 141.011 90.4634 141.949 91.6578 141.949H128.342C129.537 141.949 130.475 141.011 130.475 139.816C130.475 138.622 129.537 137.684 128.342 137.684Z" fill="#1B3954"/>
</svg>
