<svg width="219" height="220" viewBox="0 0 219 220" fill="none" xmlns="http://www.w3.org/2000/svg">
<path d="M131.496 36.6309H102.362V183.368H131.496V36.6309Z" fill="#1B3954"/>
<path d="M52.9659 70.116H16.6228V149.841H52.9659L62.6916 165.666H90.3328V54.2905H62.6916L52.9659 70.116ZM47.7619 139.134H26.1351V127.19H47.7619V139.134ZM47.7619 115.971H26.1351V104.028H47.7619V115.971ZM47.7619 92.8091H26.1351V80.8654H47.7619V92.8091Z" fill="#F46262"/>
<path d="M145.359 128.683C144.165 128.683 143.227 129.622 143.227 130.816C143.227 132.01 144.165 132.949 145.359 132.949C158.028 132.949 168.308 122.626 168.308 110C168.308 97.3736 157.986 87.0508 145.359 87.0508C144.165 87.0508 143.227 87.9892 143.227 89.1836C143.227 90.378 144.165 91.3164 145.359 91.3164C155.682 91.3164 164.043 99.7197 164.043 110C164.043 120.28 155.682 128.683 145.359 128.683Z" fill="#F46262"/>
<path d="M145.359 53.1816C144.165 53.1816 143.227 54.1201 143.227 55.3145C143.227 56.5088 144.165 57.4473 145.359 57.4473C174.323 57.4473 197.912 81.0362 197.912 110C197.912 138.963 174.323 162.552 145.359 162.552C144.165 162.552 143.227 163.491 143.227 164.685C143.227 165.879 144.165 166.818 145.359 166.818C176.669 166.818 202.178 141.352 202.178 110C202.178 78.6474 176.712 53.1816 145.359 53.1816Z" fill="#F46262"/>
</svg>
