<svg width="219" height="219" viewBox="0 0 219 219" fill="none" xmlns="http://www.w3.org/2000/svg">
<path d="M50.3344 90.9165H37.4522C33.7411 90.9165 30.7125 93.9451 30.7125 97.6562V164.797H54.728V113.823H50.3344V90.9165Z" fill="#1B3954"/>
<path d="M76.4827 90.9165H63.4298V113.823H58.9936V164.797H80.9189V113.823H76.4827V90.9165Z" fill="#F46262"/>
<path d="M102.674 90.9165H89.5782V113.823H85.1846V164.797H107.067V113.823H102.674V90.9165Z" fill="#1B3954"/>
<path d="M128.822 90.9165H115.726V113.823H111.333V164.797H133.215V113.823H128.822V90.9165Z" fill="#F46262"/>
<path d="M155.013 90.9165H141.917V113.823H137.481V164.797H159.406V113.823H155.013V90.9165Z" fill="#1B3954"/>
<path d="M180.948 90.9165H168.066V113.823H163.672V164.797H187.687V97.6989C187.687 93.9451 184.659 90.9165 180.948 90.9165Z" fill="#F46262"/>
<path d="M192.38 54.4028H26.0203C21.2855 54.4028 17.4891 58.1992 17.4891 62.9341V156.309C17.4891 161.001 21.2855 164.84 26.0203 164.84H26.4469V97.6989C26.4469 91.6417 31.395 86.6936 37.4522 86.6936H51.3155H54.6H59.1642H80.7909H85.3125H106.939H111.503H133.088H137.652H159.278H163.8H167.127H180.948C187.005 86.6936 191.953 91.6417 191.953 97.6989V164.84H192.38C197.115 164.84 200.911 161.001 200.911 156.309V62.9341C200.911 58.1992 197.115 54.4028 192.38 54.4028ZM37.2389 79.6127C33.6131 79.6127 30.7125 76.6694 30.7125 73.0863C30.7125 69.4605 33.6558 66.5599 37.2389 66.5599C40.8647 66.5599 43.7653 69.5031 43.7653 73.0863C43.808 76.712 40.8647 79.6127 37.2389 79.6127ZM60.8705 79.6127C57.2447 79.6127 54.3441 76.6694 54.3441 73.0863C54.3441 69.4605 57.2874 66.5599 60.8705 66.5599C64.4963 66.5599 67.3969 69.5031 67.3969 73.0863C67.3969 76.712 64.4536 79.6127 60.8705 79.6127ZM84.4594 79.6127C80.8336 79.6127 77.933 76.6694 77.933 73.0863C77.933 69.4605 80.8763 66.5599 84.4594 66.5599C88.0852 66.5599 90.9858 69.5031 90.9858 73.0863C90.9858 76.712 88.0852 79.6127 84.4594 79.6127ZM133.301 75.2191H114.873C113.679 75.2191 112.74 74.2806 112.74 73.0863C112.74 71.8919 113.679 70.9535 114.873 70.9535H133.301C134.495 70.9535 135.434 71.8919 135.434 73.0863C135.434 74.2806 134.453 75.2191 133.301 75.2191ZM160.473 75.2191H142.045C140.851 75.2191 139.913 74.2806 139.913 73.0863C139.913 71.8919 140.851 70.9535 142.045 70.9535H160.473C161.667 70.9535 162.606 71.8919 162.606 73.0863C162.606 74.2806 161.667 75.2191 160.473 75.2191ZM187.688 75.2191H169.26C168.066 75.2191 167.127 74.2806 167.127 73.0863C167.127 71.8919 168.066 70.9535 169.26 70.9535H187.688C188.882 70.9535 189.82 71.8919 189.82 73.0863C189.82 74.2806 188.882 75.2191 187.688 75.2191Z" fill="#1B3954"/>
</svg>
