<svg width="220" height="219" viewBox="0 0 220 219" fill="none" xmlns="http://www.w3.org/2000/svg">
<path d="M152.571 25.807C147.964 22.9917 142.931 20.7309 137.641 19.1526C131.712 17.361 125.442 16.4226 118.958 16.4653C114.01 16.4653 109.19 17.0624 104.54 18.1715C99.2933 19.4085 94.2598 21.3281 89.6103 23.7595C69.05 34.6368 55.0587 56.4342 55.0587 81.2601V94.9954L45.845 124.769C45.1198 127.073 46.8687 129.419 49.3002 129.419H55.0587L57.9167 153.093C58.6845 159.278 63.9312 163.971 70.1591 163.971H96.6486V171.179C110.682 158.084 119.512 139.784 120.621 119.693H116.057L114.82 102.546C110 98.7918 107.185 93.0759 107.185 86.8481C107.185 75.8428 116.142 66.8849 127.148 66.8849C138.153 66.8849 147.068 75.8428 147.068 86.8481C147.068 93.0759 144.253 98.7918 139.433 102.546L138.196 119.693H133.418C132.522 137.993 125.953 155.823 114.692 170.284C109.531 176.938 103.431 182.782 96.6486 187.645V199.887H156.965V171.35C156.965 151.472 162.382 131.936 173.089 115.214C179.53 105.233 183.241 93.3318 183.241 80.5776C183.326 57.3726 170.998 37.0682 152.571 25.807Z" fill="#1B3954"/>
<path d="M111.408 167.596C122.967 152.752 129.366 134.196 129.366 115.385H134.314L135.039 105.147C132.565 106.214 129.92 106.726 127.233 106.726C124.546 106.726 121.858 106.171 119.427 105.147L120.152 115.385H125.1C125.1 152.539 100.018 184.659 64.1445 193.489C55.528 195.621 46.9541 197.029 38.6787 197.712C37.4844 197.797 36.6312 198.821 36.7166 200.015C36.8019 201.124 37.7403 201.977 38.8494 201.977C38.892 201.977 38.9773 201.977 39.02 201.977C47.5512 201.295 56.3384 199.802 65.1683 197.626C83.3825 193.147 99.8051 182.483 111.408 167.596Z" fill="#F46262"/>
<path d="M135.38 100.199C139.859 97.4268 142.888 92.4787 142.888 86.8054C142.888 78.1462 135.85 71.1079 127.233 71.1079C118.574 71.1079 111.536 78.1035 111.536 86.8054C111.536 92.4787 114.522 97.4268 119.043 100.199C121.432 101.65 124.247 102.503 127.233 102.503C130.176 102.503 132.992 101.65 135.38 100.199ZM120.707 86.8054C120.707 86.3362 120.749 85.867 120.835 85.3978C121.475 82.4545 124.077 80.279 127.19 80.279C130.304 80.279 132.906 82.4545 133.546 85.3978C133.632 85.867 133.717 86.2935 133.717 86.8054C133.717 90.3885 130.816 93.3318 127.233 93.3318C123.607 93.3318 120.707 90.3885 120.707 86.8054Z" fill="#F46262"/>
</svg>
