<svg width="219" height="219" viewBox="0 0 219 219" fill="none" xmlns="http://www.w3.org/2000/svg">
<path d="M114.945 103.258C110.808 99.1204 104.153 99.1204 100.016 103.258L31.7657 171.551L45.2878 185.073L59.0657 171.252C57.6154 172.873 57.6581 175.304 59.1937 176.883L84.2329 201.922C89.4797 207.169 98.0109 207.169 103.258 201.922L148.9 156.28C154.147 151.033 154.147 142.502 148.9 137.255L114.945 103.258ZM129.406 148.772L95.7928 182.385C94.6837 183.494 92.8922 183.494 91.7831 182.385L69.9004 160.503L105.518 124.885C106.627 123.776 108.419 123.776 109.528 124.885L129.449 144.805C130.515 145.872 130.515 147.663 129.406 148.772Z" fill="#1B3954"/>
<path d="M122.325 71.7351C121.557 78.4748 118.529 84.7879 113.708 89.6081L107.395 95.9212H107.523C111.49 95.9212 115.201 97.4568 117.974 100.272L124.031 106.329L127.23 103.13C132.051 98.31 138.321 95.2814 145.103 94.5562L176.328 91.0584L125.823 40.5107L122.325 71.7351Z" fill="#F46262"/>
<path d="M201.751 89.7358L127.103 15.0874C125.695 13.6797 123.818 12.9546 121.941 12.9546C120.064 12.9546 118.187 13.6797 116.78 15.0874C113.922 17.9454 113.922 22.5522 116.78 25.4102L191.428 100.059C194.286 102.917 198.893 102.917 201.751 100.059C204.609 97.2007 204.609 92.5938 201.751 89.7358Z" fill="#1B3954"/>
<path d="M24.7064 170.537L14.9338 180.31L36.53 201.906L46.3026 192.134L24.7064 170.537Z" fill="#F46262"/>
<path d="M56.8713 132.594L49.9301 139.527L53.8489 143.451L60.7902 136.517L56.8713 132.594Z" fill="#1B3954"/>
<path d="M74.1661 123.136L70.2417 119.211L63.3314 126.122L67.2558 130.046L74.1661 123.136Z" fill="#1B3954"/>
<path d="M87.5602 109.742L83.6358 105.817L76.6829 112.77L80.6072 116.652L87.5602 109.742Z" fill="#1B3954"/>
</svg>
