<svg width="219" height="220" viewBox="0 0 219 220" fill="none" xmlns="http://www.w3.org/2000/svg">
<path d="M128.139 103.857C128.822 103.9 129.504 103.943 130.187 103.985L131.253 102.151L135.306 95.3688C132.064 95.0703 128.694 94.857 125.281 94.729C127.67 97.1178 128.737 100.53 128.139 103.857Z" fill="#1B3954"/>
<path d="M151.771 97.5441L146.439 105.734C152.24 106.63 157.658 107.824 162.52 109.275C174.848 112.986 178.943 117.038 179.625 118.275C178.943 119.512 174.805 123.564 162.52 127.275C150.15 130.987 133.983 133.034 117.006 133.034C100.029 133.034 83.9049 130.987 71.4919 127.275C59.1643 123.564 55.0693 119.512 54.3441 118.275C55.0266 116.995 59.1643 112.943 71.4919 109.275C81.5161 106.289 94.0144 104.369 107.408 103.729C107.366 103.516 107.366 103.345 107.323 103.132L102.034 99.2077L100.967 98.3972L97.0857 95.4966C67.1836 98.3546 45.3436 107.483 45.3436 118.275C45.3436 118.403 45.3436 118.488 45.3436 118.616C45.3436 118.744 45.3436 118.83 45.3863 118.958C45.4289 119.085 45.3863 119.171 45.4289 119.299C45.4289 119.427 45.4716 119.555 45.4716 119.683C45.4716 119.768 45.5143 119.896 45.5143 119.981C45.5143 120.067 45.5569 120.152 45.5569 120.237V120.28C45.6849 120.706 45.8128 121.133 45.9835 121.56C46.0261 121.645 46.0688 121.773 46.1114 121.858C46.1541 121.943 46.1968 122.071 46.2394 122.157C46.2821 122.242 46.3247 122.285 46.3247 122.37C46.3674 122.455 46.41 122.498 46.4527 122.583C46.5807 122.797 46.666 122.967 46.7939 123.18C46.8366 123.266 46.8793 123.308 46.9219 123.394C46.9646 123.479 47.0499 123.564 47.0925 123.65C47.2205 123.82 47.3485 123.991 47.4764 124.119C47.6044 124.29 47.7324 124.46 47.903 124.631C47.9883 124.759 48.1163 124.887 48.2443 125.015C48.2869 125.057 48.3296 125.1 48.3722 125.143C48.5002 125.271 48.6282 125.399 48.7561 125.527L48.7988 125.569C48.9694 125.74 49.0974 125.868 49.268 126.038C49.4386 126.209 49.6093 126.38 49.8225 126.55C49.9932 126.678 50.1211 126.806 50.2918 126.977C50.2918 126.977 50.3344 126.977 50.3344 127.02C50.505 127.19 50.7183 127.318 50.8889 127.489L50.9316 127.531C51.1022 127.659 51.2728 127.787 51.4435 127.915C51.4861 127.958 51.5714 128.001 51.6141 128.043L51.8274 128.214C51.9127 128.257 51.998 128.342 52.0407 128.385C52.2539 128.555 52.4672 128.683 52.6805 128.854C52.8085 128.939 52.9364 129.024 53.0644 129.11C53.1924 129.195 53.3203 129.28 53.4483 129.366C53.8322 129.622 54.2588 129.878 54.6853 130.133C54.8133 130.219 54.9413 130.304 55.1119 130.389C55.1119 130.389 55.1119 130.389 55.1546 130.389C55.3678 130.517 55.5811 130.645 55.8371 130.731C56.0503 130.859 56.3063 130.987 56.5196 131.115C56.7328 131.2 56.9035 131.328 57.1167 131.413C57.2447 131.456 57.33 131.541 57.458 131.584C57.7992 131.754 58.0978 131.882 58.4391 132.053C58.6524 132.138 58.8657 132.266 59.0789 132.352C59.2922 132.437 59.5055 132.565 59.7188 132.65C59.9747 132.778 60.2307 132.863 60.4866 132.991C60.5293 132.991 60.5719 133.034 60.6572 133.077C60.9132 133.205 61.2118 133.29 61.5103 133.418C62.0649 133.631 62.6621 133.887 63.2593 134.1C63.4299 134.186 63.6432 134.228 63.8138 134.314C64.1977 134.442 64.5816 134.612 64.9655 134.74C65.3494 134.868 65.776 134.996 66.1599 135.167C66.5438 135.338 66.9703 135.423 67.3969 135.551C67.7808 135.679 68.2074 135.807 68.5913 135.935C69.3164 136.148 70.0843 136.361 70.8521 136.575C71.1933 136.66 71.5346 136.745 71.8758 136.83C71.9185 136.83 72.0038 136.873 72.0891 136.873C72.345 136.958 72.601 137.001 72.8569 137.086C72.8996 137.086 72.9849 137.129 73.0275 137.129C73.4967 137.257 73.966 137.342 74.4352 137.47H74.4778C74.8191 137.556 75.1603 137.641 75.5443 137.726C76.44 137.94 77.3358 138.153 78.2743 138.323C78.7435 138.409 79.2553 138.537 79.7246 138.622C80.0658 138.707 80.3644 138.75 80.7057 138.835C80.7483 138.835 80.8336 138.835 80.8763 138.878C81.0896 138.921 81.3455 138.963 81.5588 139.006C81.9427 139.091 82.3266 139.134 82.7105 139.219C83.2224 139.305 83.7342 139.39 84.2461 139.475C84.886 139.603 85.5258 139.688 86.1657 139.774C86.5922 139.859 86.9761 139.902 87.4027 139.944C87.9572 140.03 88.4691 140.115 89.0236 140.158C89.4928 140.2 89.9621 140.286 90.4313 140.328C90.5592 140.328 90.7299 140.371 90.8578 140.371C91.2417 140.414 91.6257 140.456 92.0096 140.499C92.2228 140.542 92.3935 140.542 92.6068 140.584C92.9907 140.627 93.3746 140.67 93.7585 140.712C94.9528 140.84 96.1046 140.968 97.3416 141.096C97.8961 141.139 98.4507 141.181 99.0052 141.267C99.4744 141.309 99.901 141.352 100.37 141.395C100.711 141.437 101.095 141.437 101.437 141.48C101.778 141.523 102.119 141.523 102.46 141.565C102.972 141.608 103.441 141.608 103.953 141.651C104.636 141.693 105.318 141.736 106.001 141.779C106.598 141.821 107.195 141.821 107.792 141.864C108.39 141.907 108.987 141.907 109.584 141.949C110.096 141.949 110.565 141.992 111.077 141.992C111.205 141.992 111.333 141.992 111.461 141.992C111.93 141.992 112.399 141.992 112.868 142.035C113.082 142.035 113.252 142.035 113.466 142.035C114.02 142.035 114.575 142.035 115.129 142.035C115.726 142.035 116.366 142.035 116.963 142.035C117.603 142.035 118.201 142.035 118.798 142.035C119.352 142.035 119.907 142.035 120.461 142.035C120.632 142.035 120.845 142.035 121.016 142.035C121.485 142.035 121.954 142.035 122.423 141.992C122.551 141.992 122.679 141.992 122.807 141.992C123.319 141.992 123.788 141.949 124.3 141.949C124.898 141.949 125.495 141.907 126.092 141.864C126.689 141.821 127.286 141.821 127.883 141.779C128.566 141.736 129.248 141.693 129.931 141.651C130.443 141.608 130.912 141.608 131.424 141.565C131.765 141.523 132.106 141.523 132.448 141.48C132.789 141.437 133.173 141.437 133.514 141.395C133.983 141.352 134.453 141.309 134.879 141.267C135.434 141.224 135.988 141.181 136.543 141.096C137.737 140.968 138.931 140.883 140.126 140.712C140.51 140.67 140.894 140.627 141.278 140.584C141.491 140.542 141.661 140.542 141.875 140.499C142.259 140.456 142.643 140.414 143.026 140.371C143.197 140.371 143.325 140.328 143.453 140.328C143.922 140.286 144.391 140.2 144.861 140.158C145.415 140.072 145.927 139.987 146.482 139.944C146.908 139.902 147.292 139.816 147.719 139.774C148.358 139.688 148.998 139.56 149.638 139.475C150.15 139.39 150.662 139.305 151.174 139.219C151.558 139.134 151.942 139.091 152.326 139.006C152.581 138.963 152.795 138.921 153.008 138.878C153.051 138.878 153.136 138.878 153.179 138.835C153.52 138.793 153.818 138.707 154.16 138.622C154.672 138.537 155.141 138.409 155.61 138.323C156.548 138.11 157.444 137.94 158.34 137.726C158.681 137.641 159.023 137.556 159.406 137.47H159.449C159.918 137.342 160.388 137.257 160.857 137.129C160.942 137.129 160.985 137.086 161.07 137.086C161.326 137.001 161.582 136.958 161.838 136.873C161.88 136.873 161.966 136.83 162.051 136.83C162.392 136.745 162.734 136.66 163.032 136.575C163.8 136.361 164.525 136.148 165.293 135.935C165.677 135.807 166.103 135.679 166.487 135.551C166.914 135.423 167.298 135.295 167.724 135.167C168.151 135.039 168.535 134.911 168.919 134.74C169.303 134.612 169.687 134.484 170.071 134.314C170.284 134.228 170.454 134.186 170.668 134.1C171.265 133.887 171.862 133.674 172.417 133.418C172.715 133.29 172.971 133.205 173.27 133.077C173.312 133.077 173.398 133.034 173.44 132.991C173.696 132.863 173.995 132.778 174.208 132.65C174.421 132.565 174.635 132.48 174.848 132.352C175.061 132.266 175.275 132.138 175.488 132.053C175.829 131.882 176.128 131.754 176.469 131.584C176.597 131.541 176.682 131.456 176.81 131.413C177.023 131.328 177.237 131.2 177.407 131.115C177.621 130.987 177.877 130.859 178.09 130.731C178.303 130.603 178.516 130.475 178.73 130.389C178.73 130.389 178.73 130.389 178.772 130.389C178.9 130.304 179.028 130.219 179.199 130.133C179.625 129.878 180.052 129.622 180.436 129.366C180.564 129.28 180.692 129.195 180.82 129.11C180.948 129.024 181.076 128.939 181.204 128.854C181.417 128.683 181.63 128.555 181.844 128.385C181.929 128.342 182.014 128.257 182.057 128.214L182.27 128.043C182.313 128.001 182.398 127.958 182.441 127.915C182.611 127.787 182.782 127.659 182.953 127.531L182.995 127.489C183.209 127.361 183.379 127.19 183.55 127.02L183.593 126.977C183.763 126.849 183.891 126.721 184.062 126.55C184.232 126.38 184.446 126.209 184.616 126.038C184.787 125.868 184.915 125.74 185.085 125.569C185.213 125.441 185.341 125.313 185.469 125.185C185.512 125.143 185.555 125.1 185.597 125.057C185.725 124.929 185.811 124.801 185.939 124.673C186.109 124.503 186.237 124.332 186.365 124.162C186.493 123.991 186.621 123.82 186.749 123.692C186.792 123.607 186.877 123.522 186.92 123.436C186.962 123.351 187.005 123.308 187.048 123.223C187.176 123.01 187.304 122.839 187.389 122.626C187.432 122.541 187.474 122.498 187.517 122.413C187.56 122.327 187.602 122.285 187.602 122.199C187.645 122.114 187.688 121.986 187.73 121.901C187.773 121.815 187.815 121.688 187.858 121.602C188.029 121.176 188.199 120.749 188.285 120.323V120.28C188.285 120.195 188.327 120.109 188.327 120.024C188.37 119.939 188.37 119.811 188.37 119.725C188.37 119.597 188.413 119.469 188.413 119.341C188.413 119.213 188.455 119.128 188.455 119C188.455 118.872 188.455 118.787 188.498 118.659C188.498 118.531 188.498 118.446 188.498 118.318C188.669 109.36 173.782 101.596 151.771 97.5441Z" fill="#1B3954"/>
<path d="M111.034 146.172C110.522 146.172 110.01 146.129 109.541 146.129C108.944 146.129 108.347 146.087 107.75 146.044H107.707C107.11 146.002 106.513 146.001 105.915 145.959C105.233 145.916 104.508 145.874 103.825 145.831C103.313 145.788 102.802 145.788 102.332 145.746C101.991 145.746 101.65 145.703 101.266 145.66C100.925 145.618 100.541 145.618 100.2 145.575C99.773 145.532 99.3037 145.49 98.8772 145.447H98.7919C98.2373 145.404 97.6401 145.362 97.0856 145.276C95.6353 145.148 94.4836 145.02 93.4598 144.892L91.9669 144.722L90.4312 144.551C90.3033 144.551 90.218 144.509 90.09 144.509L88.597 144.295C88.0425 144.21 87.488 144.125 86.9334 144.039C86.5495 143.997 86.123 143.911 85.6964 143.826C85.0139 143.698 84.3741 143.613 83.7342 143.485C83.2223 143.399 82.6678 143.314 82.1559 143.229C81.772 143.144 81.3881 143.101 80.9616 143.016C80.8336 142.973 80.0658 142.845 80.0231 142.845L79.0847 142.674C78.5728 142.589 78.1036 142.461 77.5917 142.376C76.7386 142.205 75.8428 141.992 74.7764 141.736C74.4351 141.651 74.1365 141.565 73.7953 141.48C73.7526 141.48 73.6673 141.437 73.6247 141.437C73.2834 141.352 72.9422 141.267 72.6009 141.181L72.217 141.096L71.0653 140.797C70.7241 140.712 70.3401 140.627 69.9989 140.499C69.2737 140.286 68.4633 140.072 67.6955 139.816L66.4584 139.432C65.9892 139.304 65.6053 139.177 65.1787 139.006C64.7522 138.878 64.3256 138.707 63.8991 138.579L63.4298 138.409C63.1739 138.323 62.918 138.238 62.662 138.11L62.4914 138.025C62.3208 137.982 62.1928 137.897 62.0648 137.854C61.425 137.641 60.8278 137.385 60.2306 137.129C59.932 137.001 59.6761 136.916 59.3775 136.788C59.2922 136.745 59.2495 136.745 59.1642 136.702C58.8656 136.574 58.6097 136.446 58.3537 136.361C58.1405 136.276 57.8845 136.148 57.6712 136.063C57.458 135.977 57.202 135.849 56.9887 135.721C56.6475 135.551 56.3062 135.38 55.965 135.209C55.837 135.167 55.7091 135.082 55.5811 135.039C55.3678 134.911 55.1545 134.826 54.9412 134.698C54.728 134.57 54.5147 134.484 54.3014 134.356L54.1734 134.271C54.0881 134.228 54.0455 134.186 53.9601 134.143L77.4211 193.734L111.631 146.001C111.247 146.215 111.162 146.172 111.034 146.172Z" fill="#F46262"/>
<path d="M180.052 134.485L179.967 134.527C179.753 134.655 179.54 134.741 179.327 134.869C179.156 134.954 178.687 135.21 178.687 135.21C178.516 135.295 178.431 135.338 178.303 135.423C177.962 135.594 177.621 135.764 177.237 135.935C177.023 136.02 176.81 136.148 176.554 136.234C176.341 136.319 176.128 136.447 175.872 136.532C175.616 136.66 175.317 136.788 175.061 136.873C174.976 136.916 174.891 136.916 174.848 136.959C174.549 137.087 174.293 137.172 173.995 137.3C173.398 137.556 172.758 137.769 172.161 138.025C172.033 138.068 171.862 138.153 171.734 138.196L171.563 138.238C171.308 138.324 171.052 138.409 170.796 138.537L170.326 138.708C169.9 138.836 169.473 139.006 169.047 139.134C168.62 139.262 168.236 139.39 167.81 139.561L166.573 139.945C165.762 140.201 164.994 140.414 164.184 140.627C163.843 140.712 163.501 140.798 163.118 140.926L161.881 141.267L161.539 141.352C161.198 141.438 160.857 141.523 160.516 141.608C160.473 141.608 160.388 141.651 160.345 141.651C160.004 141.736 159.662 141.822 159.321 141.907C158.255 142.163 157.359 142.333 156.506 142.547C156.037 142.632 155.525 142.76 155.013 142.845L154.074 143.016C154.032 143.016 153.264 143.187 153.093 143.187C152.709 143.272 152.326 143.314 151.899 143.4C151.387 143.485 150.875 143.57 150.321 143.698C149.723 143.826 149.041 143.912 148.401 143.997C147.975 144.082 147.548 144.125 147.121 144.21C146.61 144.296 146.055 144.381 145.458 144.424L144.008 144.637C143.88 144.637 143.794 144.679 143.666 144.679L141.875 144.893L140.68 145.021C139.614 145.149 138.462 145.277 137.012 145.405C136.415 145.447 135.86 145.49 135.263 145.575H135.22C134.794 145.618 134.325 145.661 133.898 145.703C133.557 145.746 133.173 145.746 132.789 145.789C132.448 145.831 132.106 145.831 131.723 145.874C131.253 145.917 130.741 145.959 130.23 145.959C129.547 146.002 128.822 146.044 128.139 146.087C127.542 146.13 126.945 146.13 126.348 146.172H126.263C125.665 146.215 125.026 146.215 124.428 146.258C123.959 146.258 123.447 146.3 122.935 146.3C122.807 146.3 122.722 146.3 122.594 146.3L156.804 194.033L180.265 134.442C180.223 134.399 180.137 134.442 180.052 134.485Z" fill="#F46262"/>
<path d="M47.3911 130.091C47.2632 129.963 47.1352 129.878 47.0072 129.792C46.7939 129.579 46.538 129.366 46.3247 129.195C46.1541 129.025 45.9408 128.854 45.7702 128.683L45.6849 128.598C45.5996 128.47 45.4716 128.385 45.3863 128.257L45.3436 128.171V177.482H45.4716C45.3863 177.909 45.3436 178.378 45.3436 178.804C45.3436 186.568 56.6049 193.478 74.0513 197.786L47.4338 130.219L47.3911 130.091Z" fill="#1B3954"/>
<path d="M188.285 128.555L188.199 128.641C188.029 128.811 187.858 128.982 187.645 129.153C187.432 129.366 187.218 129.579 186.962 129.792C186.834 129.878 186.749 130.006 186.621 130.091L186.536 130.176L159.961 197.744C177.407 193.436 188.669 186.525 188.669 178.762C188.669 178.335 188.626 177.866 188.541 177.44H188.669V128.129L188.626 128.214C188.498 128.3 188.413 128.427 188.285 128.555Z" fill="#1B3954"/>
<path d="M117.006 145.661L116.58 146.258L78.8714 198.81C89.9194 201.114 102.972 202.436 117.006 202.436C131.04 202.436 144.093 201.114 155.141 198.81L117.433 146.258L117.006 145.661Z" fill="#1B3954"/>
<path d="M132.32 108.763C130.102 108.635 127.883 109.701 126.646 111.706C124.812 114.649 125.708 118.488 128.651 120.323C131.595 122.157 135.434 121.261 137.268 118.318C138.505 116.313 138.505 113.839 137.396 111.919L141.832 105.094L147.164 96.7764L197.754 18.8434L189.138 13.4688L139.998 95.7953L134.922 104.284L132.32 108.763Z" fill="#F46262"/>
<path d="M103.527 94.9851L111.589 101.042C111.461 101.895 111.503 102.749 111.717 103.602C112.058 104.924 112.783 106.118 113.935 107.014C116.665 109.147 120.589 108.635 122.722 105.948C123.277 105.265 123.618 104.497 123.831 103.687C124.428 101.341 123.66 98.7815 121.613 97.2032C119.736 95.7529 117.305 95.497 115.257 96.3927L113.124 94.6438L29.0489 26.5645L22.8211 34.5412L103.527 94.9851Z" fill="#F46262"/>
</svg>
