<svg width="219" height="219" viewBox="0 0 219 219" fill="none" xmlns="http://www.w3.org/2000/svg">
<path d="M173.272 142.561C176.002 139.02 176.856 134.541 175.619 130.233C174.382 125.967 171.14 122.555 166.959 121.019C161.371 119.014 155.016 114.919 150.451 106.687C147.252 100.886 144.906 93.0794 144.309 82.5007C143.754 72.3058 141.024 63.8599 136.204 57.2055C134.029 54.1769 131.427 51.5749 128.355 49.3141C118.971 42.4038 107.369 40.6549 98.0695 40.6549C91.5004 40.6549 83.3957 41.9346 79.1728 42.6597V36.0054H65.3521V187.862H49.9106C48.119 187.862 46.4981 188.587 45.3464 189.738C44.1946 190.89 43.4695 192.511 43.4695 194.303C43.4695 197.886 46.3701 200.786 49.9532 200.786H146.655C148.447 200.786 150.067 200.061 151.219 198.91C152.371 197.758 153.096 196.137 153.096 194.345C153.096 190.762 150.195 187.862 146.612 187.862H138.294L150.451 172.121L173.272 142.561ZM162.48 133.432C162.736 133.518 162.907 133.688 162.95 133.944C163.035 134.243 162.907 134.456 162.822 134.541L152.499 147.893V128.356C156.125 130.788 159.58 132.366 162.48 133.432ZM148.276 124.944V153.395L138.294 166.32V111.891C141.195 117.436 144.693 121.702 148.276 124.944ZM131.128 83.2685C131.512 90.0935 132.536 95.9801 134.029 101.141V171.823L124.047 184.748V63.1774C128.313 67.9549 130.659 74.5666 131.128 83.2685ZM109.8 55.1154C113.298 55.9685 116.753 57.3335 119.782 59.4236V187.862H109.8V55.1154ZM98.1975 53.8357C100.544 53.8357 103.06 53.9637 105.577 54.3049C105.577 54.4329 105.534 54.5182 105.534 54.6462V187.862H95.5528V54.0916C95.5528 54.049 95.5528 53.9637 95.5528 53.921C96.4912 53.8357 97.387 53.8357 98.1975 53.8357ZM79.1728 55.9258C81.8174 55.5419 86.7229 54.8168 91.2871 54.3049V187.862H79.1728V55.9258Z" fill="#1B3954"/>
<path d="M55.8824 31.7398H88.6424C90.434 31.7398 92.0549 31.0146 93.2066 29.8629C94.3584 28.7112 95.0835 27.0903 95.0835 25.2987C95.0835 21.7156 92.1829 18.8149 88.5998 18.8149H55.8398C54.0482 18.8149 52.4273 19.5401 51.2756 20.6918C50.1238 21.8435 49.3987 23.4645 49.3987 25.256C49.3987 28.8392 52.2993 31.7398 55.8824 31.7398Z" fill="#F46262"/>
</svg>
