<svg width="220" height="219" viewBox="0 0 220 219" fill="none" xmlns="http://www.w3.org/2000/svg">
<path d="M32.8349 134.837H44.608H53.2246H64.9977H73.6142H85.3874H94.0039H105.777H114.394H126.167H134.783H146.556H155.173H166.946H175.563H187.336H201.796V111.077C201.796 90.5168 185.118 73.8382 164.557 73.8382C159.865 73.8382 155.429 74.6913 151.291 76.2696C138.793 55.4107 116.015 41.4194 89.9089 41.4194C50.4519 41.4194 18.4597 73.4116 18.4597 112.869V134.794H32.8349V134.837ZM89.8236 50.8465C91.018 50.8465 91.9564 51.7849 91.9564 52.9793C91.9564 54.1737 91.018 55.1121 89.8236 55.1121C57.9594 55.1121 31.9817 81.0471 31.9817 112.911C31.9817 114.106 31.0433 115.044 29.8489 115.044C28.6546 115.044 27.7161 114.106 27.7161 112.911C27.7161 78.701 55.5706 50.8465 89.8236 50.8465Z" fill="#1B3954"/>
<path d="M32.8349 139.102H18.3318V176.938H36.5887V155.909H32.8349V139.102Z" fill="#F46262"/>
<path d="M53.1819 139.102H44.608V155.909H40.8542V176.938H57.7035V155.909H53.1819V139.102Z" fill="#F46262"/>
<path d="M73.5716 139.102H64.9551V155.909H61.9691V176.938H77.3254V155.909H73.5716V139.102Z" fill="#F46262"/>
<path d="M93.9186 139.102H85.3447V155.909H81.5909V176.938H97.6724V155.909H93.9186V139.102Z" fill="#F46262"/>
<path d="M114.308 139.102H105.692V155.909H101.938V176.938H118.062V155.909H114.308V139.102Z" fill="#F46262"/>
<path d="M134.655 139.102H126.082V155.909H122.328V176.938H138.409V155.909H134.655V139.102Z" fill="#F46262"/>
<path d="M155.045 139.102H146.429V155.909H142.675V176.938H158.799V155.909H155.045V139.102Z" fill="#F46262"/>
<path d="M175.392 139.102H166.818V155.909H163.064V176.938H179.146V155.909H175.392V139.102Z" fill="#F46262"/>
<path d="M187.165 139.102V155.909H183.411V176.938H201.668V139.102H187.165Z" fill="#F46262"/>
</svg>
