<svg width="219" height="219" viewBox="0 0 219 219" fill="none" xmlns="http://www.w3.org/2000/svg">
<path d="M89.2103 132.235C99.8317 121.613 107.851 120.205 117.619 127.585C131.952 105.916 132.933 88.3413 125.681 75.0325L84.4328 119.608L64.555 99.6878L109.131 58.4392C95.7794 51.1877 78.2476 52.1261 56.5783 66.5013C63.9578 76.2696 62.5501 84.2889 51.9287 94.9103C41.3073 105.532 33.3306 106.939 23.5197 99.5172C5.47608 126.732 9.99765 146.098 23.9889 160.089C37.9801 174.08 57.3461 178.602 84.5608 160.558C77.1812 150.875 78.5889 142.856 89.2103 132.235ZM58.6258 144.349L39.7717 125.495L49.284 115.983L68.1381 134.837L58.6258 144.349ZM73.1716 127.628C72.745 128.054 72.1905 128.268 71.6786 128.268C71.1667 128.268 70.5695 128.054 70.1856 127.628L56.5783 113.978C55.7251 113.125 55.7251 111.802 56.5783 110.949C57.3887 110.096 58.7537 110.096 59.6069 110.949L73.2142 124.599C73.982 125.452 73.982 126.775 73.1716 127.628Z" fill="#1B3954"/>
<path d="M70.6548 99.8582L84.2622 113.466L123.293 71.2785L152.725 39.457L160.873 47.6043C161.299 48.0309 161.854 48.2442 162.366 48.2442C162.878 48.2442 163.475 48.0309 163.859 47.6043C164.712 46.7512 164.712 45.4289 163.859 44.5757L155.669 36.3857C155.669 36.3857 155.626 36.3431 155.583 36.3431L160.446 31.0964L166.162 36.8123C166.589 37.2389 167.143 37.4521 167.655 37.4521C168.21 37.4521 168.764 37.2389 169.148 36.8123C170.001 35.9592 170.001 34.6368 169.148 33.7837L163.39 28.0251C163.39 28.0251 163.347 27.9825 163.304 27.9825L166.973 24.0154L160.062 17.1051L156.095 20.7735C156.095 20.7735 156.053 20.7309 156.053 20.6882L150.379 14.9296C149.526 14.0765 148.204 14.0765 147.351 14.9296C146.498 15.7828 146.498 17.1051 147.351 17.9582L153.067 23.6742L147.82 28.537C147.82 28.537 147.777 28.4943 147.777 28.4517L139.587 20.2617C138.734 19.4085 137.412 19.4085 136.559 20.2617C135.706 21.1148 135.706 22.4371 136.559 23.2903L144.706 31.4376L112.885 60.8704L70.6548 99.8582Z" fill="#F46262"/>
<path d="M206.899 74.2646C206.046 73.4115 204.723 73.4115 203.87 74.2646L197.6 80.5351L191.031 73.966C190.178 73.1129 188.855 73.1129 188.002 73.966L77.3945 184.574C76.5414 185.427 76.5414 186.749 77.3945 187.602L83.9636 194.171L77.6931 200.442C76.84 201.295 76.84 202.617 77.6931 203.47C78.1197 203.897 78.6742 204.11 79.1861 204.11C79.6979 204.11 80.2951 203.897 80.679 203.47L88.4851 195.664L199.093 85.0566L206.899 77.2506C207.752 76.4401 207.752 75.1177 206.899 74.2646ZM86.9922 191.143L81.9161 186.067L189.538 78.4876L194.614 83.5637L86.9922 191.143Z" fill="#1B3954"/>
</svg>
