<svg width="219" height="219" viewBox="0 0 219 219" fill="none" xmlns="http://www.w3.org/2000/svg">
<path d="M109.2 37.0552C73.5394 37.0552 44.4905 66.0614 44.4905 101.765V170.356H60.1027V101.765C60.1027 74.678 82.1133 52.6674 109.2 52.6674C136.287 52.6674 158.297 74.678 158.297 101.765V170.356H173.91V101.765C173.91 66.1041 144.861 37.0552 109.2 37.0552Z" fill="#1B3954"/>
<path d="M17.873 143.653C17.873 156.919 27.556 167.925 40.2249 170.015V117.249C34.5942 118.187 29.5608 120.875 25.7217 124.714C20.8589 129.577 17.873 136.231 17.873 143.653Z" fill="#F46262"/>
<path d="M192.678 124.714C188.797 120.875 183.763 118.145 178.133 117.249V170.015C190.801 167.925 200.484 156.919 200.484 143.653C200.527 136.231 197.541 129.577 192.678 124.714Z" fill="#F46262"/>
<path d="M109.584 105.945C88.6397 105.945 71.7052 122.922 71.7052 143.824C71.7052 164.768 88.6824 181.702 109.584 181.702C130.486 181.702 147.463 164.725 147.463 143.824C147.463 122.922 130.528 105.945 109.584 105.945ZM139.23 152.824C138.803 153.251 138.249 153.464 137.737 153.464C137.225 153.464 136.628 153.251 136.244 152.824L122.807 139.387L111.12 151.075C110.266 151.928 108.944 151.928 108.091 151.075L96.4032 139.387L82.9664 152.824C82.1133 153.677 80.791 153.677 79.9379 152.824C79.0847 151.971 79.0847 150.649 79.9379 149.795L94.8675 134.866C95.7207 134.013 97.043 134.013 97.8961 134.866L109.584 146.554L121.272 134.866C122.125 134.013 123.447 134.013 124.3 134.866L139.23 149.795C140.041 150.649 140.041 151.971 139.23 152.824Z" fill="#F46262"/>
</svg>
