<svg width="219" height="219" viewBox="0 0 219 219" fill="none" xmlns="http://www.w3.org/2000/svg">
<path d="M140.014 170.326C166.069 170.326 187.192 149.204 187.192 123.149C187.192 97.0929 166.069 75.9707 140.014 75.9707C113.958 75.9707 92.8361 97.0929 92.8361 123.149C92.8361 149.204 113.958 170.326 140.014 170.326Z" fill="#F46262"/>
<path d="M180.153 169.772C180.111 169.729 180.025 169.686 179.983 169.644C193.036 158.382 201.311 141.747 201.311 123.191C201.311 89.322 173.84 61.894 140.014 61.894C106.187 61.894 78.7168 89.3647 78.7168 123.191C78.7168 141.917 87.1201 158.724 100.386 169.942L87.2054 183.123C86.3523 183.976 86.3523 185.299 87.2054 186.152C87.632 186.578 88.1865 186.792 88.6984 186.792C89.2102 186.792 89.8074 186.578 90.1913 186.152L103.543 172.8C103.628 172.715 103.671 172.672 103.713 172.587C113.866 180.052 126.406 184.488 140.014 184.488C153.792 184.488 166.546 179.924 176.784 172.246C176.869 172.459 176.997 172.63 177.167 172.8L190.519 186.152C190.945 186.578 191.5 186.792 192.012 186.792C192.524 186.792 193.121 186.578 193.505 186.152C194.358 185.299 194.358 183.976 193.505 183.123L180.153 169.772ZM140.014 174.592C111.647 174.592 88.5704 151.515 88.5704 123.148C88.5704 94.782 111.647 71.705 140.014 71.705C168.38 71.705 191.457 94.782 191.457 123.148C191.457 151.515 168.38 174.592 140.014 174.592Z" fill="#1B3954"/>
<path d="M59.4788 91.7111C57.9859 91.0712 56.3223 90.73 54.5734 90.73C52.8245 90.73 51.1609 91.0712 49.6679 91.7111C45.061 93.6306 41.8618 98.1522 41.8618 103.442C41.8618 108.731 45.1037 113.252 49.6679 115.172C51.1609 115.812 52.8245 116.153 54.5734 116.153C56.3223 116.153 57.9859 115.812 59.4788 115.172C64.0857 113.252 67.2849 108.731 67.2849 103.442C67.2849 98.1948 64.0857 93.6306 59.4788 91.7111Z" fill="#F46262"/>
<path d="M59.4789 119.736C57.9006 120.205 56.237 120.461 54.5734 120.461C52.9098 120.461 51.2462 120.205 49.6679 119.736V175.871H42.8003V184.488H49.6679V184.659H59.4789V184.488H66.3465V175.871H59.4789V119.736Z" fill="#1B3954"/>
<path d="M54.5734 45.5569C52.8245 45.5569 51.1609 45.5569 49.5826 45.5143C46.1275 45.4716 42.715 45.3437 39.4304 45.1304V51.1449H49.6679V87.1894C51.2462 86.7202 52.9098 86.4643 54.5734 86.4643C56.237 86.4643 57.9006 86.7202 59.4789 87.1894V51.1449H69.7164V45.1304C66.4318 45.3437 63.0193 45.4716 59.5215 45.5143C57.9859 45.5569 56.3223 45.5569 54.5734 45.5569Z" fill="#1B3954"/>
<path d="M54.5734 41.2912C56.237 41.2912 57.8579 41.2912 59.4789 41.2485C63.1047 41.2059 66.5172 41.0353 69.7164 40.8646C82.4279 40.0968 91.2578 38.4332 91.2578 36.471C91.2578 33.7837 74.8351 31.6509 54.5734 31.6509C34.3117 31.6509 17.889 33.8263 17.889 36.471C17.889 38.4332 26.7189 40.0968 39.4304 40.8646C42.6297 41.0353 46.0848 41.2059 49.6679 41.2485C51.2889 41.2912 52.9098 41.2912 54.5734 41.2912Z" fill="#1B3954"/>
</svg>
