<svg width="220" height="219" viewBox="0 0 220 219" fill="none" xmlns="http://www.w3.org/2000/svg">
<path d="M192.199 80.2661H27.8014C22.5547 80.2661 18.289 84.5317 18.289 89.7785V191.599C18.289 196.846 22.5547 201.111 27.8014 201.111H192.156C197.403 201.111 201.668 196.846 201.668 191.599V89.7785C201.711 84.5317 197.445 80.2661 192.199 80.2661ZM182.942 108.121V128.468H72.2492V108.121H182.942ZM161.486 147.407V159.649H149.244V147.407H161.486ZM137.599 147.407V159.649H125.356V147.407H137.599ZM113.711 147.407V159.649H101.469V147.407H113.711ZM37.0578 108.121H60.9453V128.468H37.0578V108.121ZM60.9453 191.855C46.3995 191.855 34.6264 180.082 34.6264 165.536C34.6264 150.99 46.3995 139.217 60.9453 139.217C75.4911 139.217 87.2642 150.99 87.2642 165.536C87.2642 180.082 75.4911 191.855 60.9453 191.855ZM185.374 183.75H101.469V169.332H185.374V183.75ZM185.374 159.649H173.131V147.407H185.374V159.649Z" fill="#1B3954"/>
<path d="M60.9453 155.683C55.4853 155.683 51.049 160.119 51.049 165.579C51.049 171.039 55.4853 175.475 60.9453 175.475C66.4053 175.475 70.8415 171.039 70.8415 165.579C70.8415 160.119 66.4053 155.683 60.9453 155.683Z" fill="#F46262"/>
<path d="M170.572 23.0215L165.88 17.6895L54.8028 76.0005H92.2123L170.572 23.0215Z" fill="#F46262"/>
</svg>
