<svg width="219" height="219" viewBox="0 0 219 219" fill="none" xmlns="http://www.w3.org/2000/svg">
<path d="M109.8 89.2666C129.55 89.2666 145.589 73.2279 145.589 53.478C145.589 33.7282 129.55 17.6895 109.8 17.6895C90.0502 17.6895 74.0115 33.7282 74.0115 53.478C74.0115 73.2279 90.0502 89.2666 109.8 89.2666ZM114.279 36.5862H128.782V70.3273H114.279V36.5862ZM90.818 36.5862H105.321V70.3273H90.818V36.5862Z" fill="#1B3954"/>
<path d="M109.8 129.534C90.0502 129.534 74.0115 145.573 74.0115 165.323C74.0115 185.073 90.0502 201.111 109.8 201.111C129.55 201.111 145.589 185.073 145.589 165.323C145.589 145.573 129.55 129.534 109.8 129.534ZM130.403 175.688C130.403 177.181 129.934 178.674 128.995 180.039C127.716 181.959 125.626 183.494 123.194 184.347C121.872 184.817 120.464 185.03 119.142 185.03C115.303 185.03 112.189 183.11 111.122 180.124C109.672 175.944 112.701 171.209 117.99 169.332C118.758 169.077 119.483 168.863 120.251 168.778V154.659L106.644 156.152V177.736C106.644 179.229 106.174 180.722 105.236 182.087C103.914 184.006 101.866 185.542 99.4346 186.395C98.1123 186.864 96.7046 187.077 95.3823 187.077C91.5432 187.077 88.4293 185.158 87.3629 182.172C85.9126 177.992 88.9412 173.257 94.2305 171.38C94.9983 171.124 95.7235 170.911 96.4913 170.825V147.023L130.403 143.355V175.688Z" fill="#1B3954"/>
<path d="M165.722 73.6118C145.973 73.6118 129.934 89.6506 129.934 109.4C129.934 129.15 145.973 145.189 165.722 145.189C185.472 145.189 201.511 129.15 201.511 109.4C201.511 89.6506 185.472 73.6118 165.722 73.6118ZM182.572 126.292H148.831V92.5512H182.572V126.292Z" fill="#F46262"/>
<path d="M89.6663 109.4C89.6663 89.6506 73.6275 73.6118 53.8777 73.6118C34.1279 73.6118 18.0891 89.6506 18.0891 109.4C18.0891 129.15 34.1279 145.189 53.8777 145.189C73.6275 145.189 89.6663 129.15 89.6663 109.4ZM41.9766 129.492V89.352L76.7415 109.443L41.9766 129.492Z" fill="#F46262"/>
</svg>
