<svg width="220" height="219" viewBox="0 0 220 219" fill="none" xmlns="http://www.w3.org/2000/svg">
<path d="M156.709 116.881L126.849 99.6482V124.602C126.849 125.967 126.636 127.332 126.167 128.697C125.74 130.062 125.058 131.384 124.205 132.664C121.773 136.247 117.934 139.063 113.413 140.641C110.938 141.494 108.379 141.921 105.862 141.921C98.7388 141.921 92.8949 138.337 90.9754 132.749C89.2264 127.716 90.89 122.085 95.4543 117.692C97.715 115.516 100.573 113.767 103.73 112.658C105.052 112.189 106.374 111.89 107.697 111.677V88.5149L88.7572 77.5522C85.3447 75.59 81.0791 78.0641 81.0791 81.9885V160.476C81.0791 164.4 85.3447 166.874 88.7572 164.912L156.709 125.668C160.121 123.749 160.121 118.843 156.709 116.881Z" fill="#F46262"/>
<path d="M174.71 85.5718C174.965 84.0362 175.136 82.4153 175.136 80.7943C175.136 65.694 162.894 53.4517 147.793 53.4517C141.608 53.4517 135.935 55.4992 131.371 58.9543C119.384 48.3329 103.602 41.8492 86.3258 41.8492C48.703 41.8065 18.2891 72.2631 18.2891 109.801C18.2891 147.338 48.703 177.795 86.2831 177.795H153.083C179.956 177.795 201.711 155.997 201.711 129.167C201.711 110.057 190.706 93.5059 174.71 85.5718ZM158.841 129.422L90.89 168.666C89.4397 169.477 87.8187 169.946 86.1978 169.946C81.0364 169.946 76.8134 165.723 76.8134 160.562V82.074C76.8134 76.9126 81.0364 72.6896 86.1978 72.6896C87.8187 72.6896 89.4397 73.1162 90.89 73.9693L107.697 83.695V68.2534L122.157 66.6751L141.694 64.5849V83.7803L126.892 85.4012V94.7003L158.884 113.17C161.827 114.877 163.576 117.905 163.576 121.275C163.534 124.688 161.785 127.716 158.841 129.422Z" fill="#1B3954"/>
<path d="M98.4401 120.806C95.2409 123.877 93.7906 127.887 95.0276 131.428C96.9472 136.93 104.54 139.276 112.047 136.632C115.844 135.309 118.872 132.963 120.707 130.276C121.347 129.337 121.816 128.356 122.157 127.375C122.456 126.437 122.626 125.498 122.626 124.56V81.5623L126.508 81.1358L137.428 79.9414V69.2773L122.626 70.8556L112.005 72.0073V115.687C109.829 115.602 107.483 115.943 105.18 116.711C102.492 117.692 100.189 119.1 98.4401 120.806Z" fill="#1B3954"/>
</svg>
