<svg width="220" height="220" viewBox="0 0 220 220" fill="none" xmlns="http://www.w3.org/2000/svg">
<path d="M172.492 50.4092V50.4945H140.542V18.2891C148.433 26.0952 163.875 41.6647 172.492 50.4092Z" fill="#F46262"/>
<path d="M136.276 54.7602V18.2891H47.5087V201.711H172.491V54.7602H136.276ZM110 59.623V97.0325C102.834 97.0325 97.0326 102.834 97.0326 110H59.623C59.623 82.1881 82.1882 59.623 110 59.623ZM110 160.377C83.5959 160.377 61.9691 140.073 59.7937 114.266H97.7577C99.5066 119.342 104.327 122.967 110 122.967C117.166 122.967 122.968 117.166 122.968 110C122.968 104.327 119.342 99.5066 114.266 97.7577V59.7936C140.073 61.9691 160.377 83.5958 160.377 110C160.377 137.812 137.812 160.377 110 160.377Z" fill="#1B3954"/>
</svg>
