<svg width="219" height="219" viewBox="0 0 219 219" fill="none" xmlns="http://www.w3.org/2000/svg">
<path d="M25.5738 173.069L12.6945 185.948L25.3325 198.586L38.2118 185.707L25.5738 173.069Z" fill="#F46262"/>
<path d="M204.835 51.6437L174.293 21.1018C173.099 19.9075 171.222 19.9075 170.07 21.1018L162.222 28.9079C161.07 30.1023 161.07 31.9792 162.222 33.1309L163.843 34.7518L155.653 42.9418C160.046 47.3354 160.046 54.5017 155.653 58.8953C151.259 63.2889 144.093 63.2889 139.699 58.8953L131.68 66.9146C136.073 71.3082 136.073 78.4745 131.68 82.8681C127.286 87.2617 120.12 87.2617 115.726 82.8681L107.707 90.8875C112.101 95.2811 112.101 102.447 107.707 106.841C103.313 111.234 96.1472 111.234 91.7536 106.841L83.7342 114.86C88.1278 119.254 88.1278 126.42 83.7342 130.814C79.3406 135.207 72.1744 135.207 67.7808 130.814L59.7614 138.833C64.155 143.227 64.155 150.393 59.7614 154.787C55.3678 159.18 48.2016 159.18 43.808 154.787L28.5797 170.015L41.2059 182.641L46.282 177.565H61.6383L191.143 62.0518L192.764 63.6728C193.958 64.8671 195.835 64.8671 197.029 63.6728L204.835 55.8667C205.987 54.715 205.987 52.7954 204.835 51.6437Z" fill="#1B3954"/>
</svg>
