<svg width="219" height="220" viewBox="0 0 219 220" fill="none" xmlns="http://www.w3.org/2000/svg">
<path d="M190.148 45.887C174.365 30.1042 147.236 31.5545 129.192 49.001C133.032 49.001 136.657 50.5366 139.387 53.2239C142.117 55.9539 143.61 59.5797 143.653 63.4614C147.535 63.4614 151.16 64.997 153.89 67.727C156.62 70.457 158.113 74.0828 158.113 77.9645C161.995 77.9645 165.621 79.5002 168.351 82.2302C171.166 85.0455 172.574 88.7566 172.574 92.4677C176.456 92.4677 180.081 93.9606 182.811 96.6906C185.584 99.4633 187.034 103.174 187.034 106.928C204.481 88.7992 205.931 61.6699 190.148 45.887ZM191.129 72.3339C191.044 72.3339 191.001 72.3339 190.916 72.3339C189.85 72.3339 188.911 71.5234 188.783 70.4144C188.186 64.1866 185.669 58.6839 181.489 54.5036C180.636 53.6505 180.636 52.3281 181.489 51.475C182.342 50.6219 183.664 50.6219 184.518 51.475C189.38 56.3378 192.324 62.7363 193.006 69.9878C193.177 71.1822 192.324 72.2059 191.129 72.3339Z" fill="#1B3954"/>
<path d="M165.322 99.6765C169.332 95.6668 169.332 89.1831 165.322 85.216C161.313 81.2064 154.829 81.2064 150.862 85.216C154.872 81.2064 154.872 74.7226 150.862 70.7556C146.852 66.7459 140.368 66.7459 136.401 70.7556C140.411 66.7459 140.411 60.2621 136.401 56.2951C133.117 53.0106 128.126 52.4134 124.244 54.5462C111.917 70.3717 110.381 91.2732 120.363 105.99C121.642 107.867 123.093 109.658 124.756 111.322C126.42 112.985 128.211 114.478 130.088 115.758C144.805 125.739 165.706 124.204 181.532 111.876C183.664 107.994 183.11 103.004 179.783 99.7192C175.773 95.6668 169.289 95.6668 165.322 99.6765Z" fill="#F46262"/>
<path d="M86.6215 139.646C78.9861 147.239 69.815 152.997 59.8761 157.135C57.7432 158.031 55.7811 159.438 54.2028 161.4C49.7665 166.818 49.9372 174.795 54.5014 180.041C60.0893 186.44 69.815 186.696 75.7442 180.809C77.1518 179.401 78.2183 177.78 78.9434 176.032C83.1664 165.623 89.6075 156.196 97.5415 148.262L106.414 139.39L96.6458 129.622L86.6215 139.646Z" fill="#1B3954"/>
<path d="M126.974 118.787C125.097 117.464 123.306 115.972 121.685 114.308C120.021 112.687 118.528 110.895 117.206 109.019L112.429 113.839L122.197 123.607L126.974 118.787Z" fill="#1B3954"/>
<path d="M50.4917 82.1877C53.2217 79.4577 56.8474 77.9647 60.7292 77.9221C60.7292 74.211 62.1368 70.4999 64.9521 67.6846C67.6821 64.9546 71.3079 63.4616 75.1896 63.4189C75.1896 59.5372 76.7253 55.9114 79.4553 53.1814C82.1853 50.4514 85.811 48.9585 89.6501 48.9585C71.5639 31.5121 44.4771 30.0618 28.6943 45.8446C12.9115 61.6274 14.3618 88.7568 31.8082 106.843C31.8082 103.089 33.2585 99.3782 36.0312 96.6055C38.7612 93.8755 42.387 92.3825 46.2687 92.3399C46.226 88.6714 47.6764 85.003 50.4917 82.1877ZM37.2682 54.4611C33.0879 58.6414 30.5712 64.1441 29.974 70.3719C29.8887 71.481 28.9503 72.2914 27.8412 72.2914C27.7559 72.2914 27.7132 72.2914 27.6279 72.2914C26.4762 72.1635 25.5804 71.1397 25.7084 69.9453C26.3909 62.6938 29.3342 56.2953 34.197 51.4325C35.0501 50.5794 36.3724 50.5794 37.2256 51.4325C38.0787 52.2857 38.0787 53.6507 37.2682 54.4611Z" fill="#1B3954"/>
<path d="M88.7543 115.716C90.6312 114.436 92.4227 112.986 94.0863 111.322C95.7499 109.658 97.2429 107.867 98.4799 105.99C108.461 91.2735 106.926 70.3719 94.5982 54.5465C90.7165 52.4137 85.7257 52.9682 82.4412 56.2954C78.4315 60.3051 78.4315 66.7888 82.4412 70.7558C78.4315 66.7462 71.9477 66.7462 67.9807 70.7558C63.971 74.7655 63.971 81.2493 67.9807 85.2163C63.971 81.2066 57.5299 81.2066 53.5202 85.2163C49.5106 89.226 49.5106 95.7098 53.5202 99.6768C49.5106 95.6671 43.0695 95.6671 39.0598 99.6768C35.7752 102.961 35.1781 107.952 37.3109 111.834C53.1363 124.161 74.0379 125.697 88.7543 115.716Z" fill="#F46262"/>
<path d="M158.924 157.135C148.985 152.997 139.771 147.238 132.178 139.646L119.168 126.635L101.594 109.061C100.271 110.938 98.7785 112.687 97.1149 114.35C95.494 115.971 93.7024 117.507 91.8256 118.829L121.301 148.305C129.235 156.281 135.676 165.666 139.899 176.074C140.624 177.823 141.648 179.444 143.098 180.852C149.028 186.781 158.753 186.525 164.341 180.084C168.948 174.794 169.076 166.86 164.64 161.443C163.019 159.438 161.057 158.03 158.924 157.135Z" fill="#1B3954"/>
</svg>
