<svg width="219" height="219" viewBox="0 0 219 219" fill="none" xmlns="http://www.w3.org/2000/svg">
<path d="M89.6075 122.837L124.415 85.8536L161.697 46.1833L155.127 39.6143L115.67 76.7252L78.4742 111.703L89.6075 122.837Z" fill="#F46262"/>
<path d="M179.1 37.5669L186.011 24.514L176.797 15.3003L163.744 22.2106L156.834 35.2634L166.047 44.4772L179.1 37.5669Z" fill="#1B3954"/>
<path d="M106.969 133.799L155.127 93.8732L129.107 87.0482L89.6928 128.937L72.3317 111.576L109.101 77.024L89.4795 68.2368L70.924 92.5082L12.1864 137.724L62.5634 140.07L69.6017 203.5L81.5881 181.148L91.2284 163.104L106.969 133.799ZM79.6685 141.136L60.1747 121.642L66.4451 115.372L85.939 134.866L79.6685 141.136Z" fill="#1B3954"/>
<path d="M205.035 133.842C203.884 133.544 202.732 134.226 202.433 135.335C202.391 135.421 200.13 143.611 192.708 153.848C185.84 163.275 173.043 176.413 151.032 185.456C115.585 200.002 100.016 183.281 96.0485 177.821C95.9632 177.736 95.9206 177.65 95.8353 177.565L101.466 171.934L94.8968 165.408L85.3418 183.196L84.7446 184.347L86.8774 186.48L92.7213 180.636C96.0912 185.158 105.859 195.566 124.884 195.566C132.562 195.566 141.733 193.86 152.568 189.423C175.602 179.954 189.039 166.133 196.205 156.194C204.054 145.359 206.4 136.786 206.486 136.444C206.827 135.293 206.144 134.141 205.035 133.842Z" fill="#F46262"/>
</svg>
