<svg width="219" height="219" viewBox="0 0 219 219" fill="none" xmlns="http://www.w3.org/2000/svg">
<path d="M179.202 87.4454L206.033 56.5622L162.438 12.9675L131.555 39.7983L127.673 35.9166C124.047 32.2908 118.161 32.2908 114.535 35.9166L36.5167 113.935C32.8909 117.561 32.8909 123.447 36.5167 127.073L40.3984 130.955L13.5676 161.795L57.1623 205.39L88.0454 178.559L91.9272 182.441C95.5529 186.067 101.439 186.067 105.065 182.441L183.041 104.423C186.667 100.797 186.667 94.9102 183.041 91.2844L179.202 87.4454ZM137.015 46.1968C137.868 45.3436 139.19 45.3436 140.043 46.1968L150.665 56.8182C151.518 57.6713 151.518 58.9936 150.665 59.8468C150.238 60.2733 149.684 60.4866 149.172 60.4866C148.66 60.4866 148.063 60.2733 147.679 59.8468L137.057 49.2253C136.162 48.3722 136.162 47.0072 137.015 46.1968ZM60.4468 150.065C60.0203 150.491 59.4658 150.705 58.9539 150.705C58.442 150.705 57.8448 150.491 57.4609 150.065L46.8395 139.443C45.9864 138.59 45.9864 137.268 46.8395 136.415C47.6926 135.562 49.015 135.562 49.8681 136.415L60.4895 147.036C61.2573 147.889 61.2573 149.212 60.4468 150.065ZM82.5854 172.203C82.1589 172.63 81.6043 172.843 81.0925 172.843C80.5806 172.843 79.9834 172.63 79.5995 172.203L68.9781 161.582C68.125 160.729 68.125 159.406 68.9781 158.553C69.8312 157.7 71.1536 157.7 72.0067 158.553L82.6281 169.175C83.4386 170.028 83.4386 171.393 82.5854 172.203ZM168.026 102.93L103.53 167.426C100.757 170.198 96.2354 170.198 93.4628 167.426L51.5743 125.537C48.8017 122.765 48.8017 118.243 51.5743 115.471L116.071 50.9743C118.843 48.2016 123.365 48.2016 126.137 50.9743L168.026 92.8627C170.799 95.6353 170.799 100.157 168.026 102.93ZM172.803 81.9853C172.377 82.4119 171.822 82.6252 171.31 82.6252C170.799 82.6252 170.201 82.4119 169.817 81.9853L159.196 71.3639C158.343 70.5108 158.343 69.1885 159.196 68.3353C160.049 67.4822 161.372 67.4822 162.225 68.3353L172.846 78.9568C173.657 79.8099 173.657 81.1749 172.803 81.9853Z" fill="#1B3954"/>
<path d="M97.4725 109.456L121.189 85.7392C111.464 81.0044 99.4347 82.7106 91.3727 90.7726C87.4056 94.7397 84.9742 99.6451 84.1211 104.764C87.2777 104.849 90.5622 105.702 93.6334 107.153C94.9984 107.835 96.2781 108.603 97.4725 109.456Z" fill="#1B3954"/>
<path d="M131.384 103.484L101.951 132.917C101.653 133.215 101.354 133.514 101.013 133.77C110.184 137.054 120.848 135.007 128.185 127.627C133.858 121.954 136.332 114.404 135.735 106.982L131.384 103.484Z" fill="#1B3954"/>
<path d="M130.275 82.7104L97.6432 115.342C96.1075 113.636 94.1027 112.143 91.7566 111.034C89.0692 109.755 86.2966 109.072 83.6946 109.029C79.0024 108.944 74.95 110.821 73.2438 114.404C70.5564 119.949 74.5235 127.372 82.0736 131.04C85.87 132.874 89.9224 133.429 93.2922 132.746C94.4439 132.533 95.553 132.149 96.5341 131.637C97.4299 131.168 98.283 130.571 98.9655 129.888L131.086 97.7681L134.328 100.37L143.371 107.622L151.347 99.645L139.062 89.7914L130.275 82.7104Z" fill="#F46262"/>
</svg>
