<svg width="219" height="220" viewBox="0 0 219 220" fill="none" xmlns="http://www.w3.org/2000/svg">
<path d="M105.873 104.881C109.072 103.772 111.674 101.81 113.21 99.5066C114.233 97.971 114.831 96.3074 114.831 94.6865V58.3007L127.372 56.9357V47.8926L114.831 49.2576L105.83 50.2387V87.179C103.996 87.0937 102.034 87.3923 100.072 88.0748C93.7158 90.2929 89.8767 95.8382 91.4977 100.488C93.0759 105.095 99.517 107.099 105.873 104.881Z" fill="#1B3954"/>
<path d="M94.6115 144.21C93.7584 144.296 92.8626 144.509 92.0095 144.808C86.9334 146.557 83.9475 151.206 85.3125 155.173C86.2936 157.988 89.3222 159.823 92.9906 159.823C94.3129 159.823 95.6353 159.609 96.9576 159.14C99.3464 158.33 101.351 156.837 102.631 154.96C103.527 153.637 103.996 152.23 103.996 150.822V128.641L118.584 127.063V142.206C117.731 142.291 116.835 142.504 115.982 142.803C110.906 144.552 107.92 149.201 109.285 153.168C110.266 155.984 113.295 157.818 116.963 157.818C118.286 157.818 119.608 157.604 120.93 157.135C123.319 156.325 125.324 154.832 126.604 152.955C127.5 151.633 127.969 150.225 127.969 148.817V116.612L94.5262 120.238V144.21H94.6115Z" fill="#1B3954"/>
<path d="M74.3072 18.2891H26.8734C22.3092 18.2891 18.6834 22.1281 18.9394 26.6923L25.935 151.931C26.1483 156.154 29.6461 159.439 33.8691 159.439H67.2689C71.4919 159.439 74.9897 156.154 75.203 151.931L82.1986 26.6923C82.4972 22.1281 78.8714 18.2891 74.3072 18.2891ZM50.5903 140.968C44.1919 140.968 38.9878 135.764 38.9878 129.366C38.9878 122.967 44.1919 117.763 50.5903 117.763C56.9887 117.763 62.1928 122.967 62.1928 129.366C62.1928 135.764 56.9887 140.968 50.5903 140.968ZM50.5903 100.445C44.1919 100.445 38.9878 95.2409 38.9878 88.8425C38.9878 82.4441 44.1919 77.24 50.5903 77.24C56.9887 77.24 62.1928 82.4441 62.1928 88.8425C62.1928 95.2409 56.9887 100.445 50.5903 100.445ZM50.5903 59.9216C44.1919 59.9216 38.9878 54.7175 38.9878 48.3191C38.9878 41.9206 44.1919 36.7166 50.5903 36.7166C56.9887 36.7166 62.1928 41.9206 62.1928 48.3191C62.1928 54.7175 56.9887 59.9216 50.5903 59.9216Z" fill="#1B3954"/>
<path d="M56.6475 185.928V163.704H44.5331V185.928C36.2578 187.933 29.5608 193.905 26.5322 201.711H74.6484C71.6199 193.905 64.9228 187.933 56.6475 185.928Z" fill="#F46262"/>
<path d="M191.527 18.2891H144.093C139.529 18.2891 135.903 22.1281 136.159 26.6923L143.154 151.931C143.41 156.154 146.865 159.439 151.088 159.439H184.488C188.711 159.439 192.209 156.154 192.422 151.931L199.418 26.6923C199.717 22.1281 196.091 18.2891 191.527 18.2891ZM167.81 140.968C161.411 140.968 156.207 135.764 156.207 129.366C156.207 122.967 161.411 117.763 167.81 117.763C174.208 117.763 179.412 122.967 179.412 129.366C179.412 135.764 174.208 140.968 167.81 140.968ZM167.81 100.445C161.411 100.445 156.207 95.2409 156.207 88.8425C156.207 82.4441 161.411 77.24 167.81 77.24C174.208 77.24 179.412 82.4441 179.412 88.8425C179.412 95.2409 174.208 100.445 167.81 100.445ZM167.81 59.9216C161.411 59.9216 156.207 54.7175 156.207 48.3191C156.207 41.9206 161.411 36.7166 167.81 36.7166C174.208 36.7166 179.412 41.9206 179.412 48.3191C179.412 54.7175 174.208 59.9216 167.81 59.9216Z" fill="#1B3954"/>
<path d="M173.867 185.928V163.704H161.752V185.928C153.477 187.933 146.78 193.905 143.752 201.711H191.91C188.839 193.905 182.142 187.933 173.867 185.928Z" fill="#F46262"/>
</svg>
