<svg width="219" height="219" viewBox="0 0 219 219" fill="none" xmlns="http://www.w3.org/2000/svg">
<path d="M194.358 80.9224H24.842C21.003 80.9224 17.8891 84.0363 17.8891 87.8753V185.985C17.8891 189.824 21.003 192.938 24.842 192.938H194.315C198.154 192.938 201.268 189.824 201.268 185.985V87.8753C201.311 84.0363 198.197 80.9224 194.358 80.9224ZM154.389 92.3116H170.598V104.895H154.389V92.3116ZM48.047 92.3116H145.858V104.895H48.047V92.3116ZM60.9719 174.212C45.0611 174.212 32.1789 161.329 32.1789 145.419C32.1789 129.508 45.0611 116.626 60.9719 116.626C76.8826 116.626 89.7648 129.508 89.7648 145.419C89.7648 161.329 76.8826 174.212 60.9719 174.212ZM120.563 169.306H98.68V159.495H120.563V169.306ZM120.563 150.324H98.68V140.513H120.563V150.324ZM120.563 131.342H98.68V121.531H120.563V131.342ZM158.228 174.212C142.317 174.212 129.435 161.329 129.435 145.419C129.435 129.508 142.317 116.626 158.228 116.626C174.139 116.626 187.021 129.508 187.021 145.419C187.021 161.329 174.139 174.212 158.228 174.212Z" fill="#1B3954"/>
<path d="M168.466 76.6567H172.731V36.1333C172.731 34.9389 171.793 34.0005 170.598 34.0005H144.45V38.2661H168.466V76.6567Z" fill="#1B3954"/>
<path d="M50.1798 38.2661H74.7925V34.0005H48.047C46.8526 34.0005 45.9142 34.9389 45.9142 36.1333V76.6567H50.1798V38.2661Z" fill="#1B3954"/>
<path d="M81.6601 45.6884H137.54C138.99 45.6884 140.185 44.4941 140.185 43.0438V29.2658C140.185 27.8155 138.99 26.6211 137.54 26.6211H81.6601C80.2098 26.6211 79.0155 27.8155 79.0155 29.2658V43.0438C79.0155 44.4941 80.2098 45.6884 81.6601 45.6884Z" fill="#F46262"/>
<path d="M60.9719 130.702C52.8245 130.702 46.2555 137.314 46.2555 145.419C46.2555 153.523 52.8245 160.135 60.9719 160.135C69.1192 160.135 75.6883 153.523 75.6883 145.419C75.6883 137.314 69.0766 130.702 60.9719 130.702Z" fill="#F46262"/>
<path d="M158.228 130.702C150.081 130.702 143.512 137.314 143.512 145.419C143.512 153.523 150.123 160.135 158.228 160.135C166.375 160.135 172.945 153.523 172.945 145.419C172.945 137.314 166.375 130.702 158.228 130.702Z" fill="#F46262"/>
</svg>
