<svg width="219" height="219" viewBox="0 0 219 219" fill="none" xmlns="http://www.w3.org/2000/svg">
<path d="M164.669 108.675L127.857 87.4324V117.974C127.857 119.51 127.601 121.088 127.089 122.667C126.62 124.202 125.852 125.738 124.828 127.231C122.013 131.411 117.534 134.696 112.245 136.53C109.344 137.554 106.401 138.065 103.457 138.065C95.2674 138.065 88.5277 133.97 86.3096 127.615C84.3048 121.856 86.267 115.415 91.471 110.381C94.0731 107.822 97.4429 105.817 101.111 104.538C102.86 103.94 104.652 103.514 106.443 103.258V75.1048L82.7265 61.4121C78.6315 59.0234 73.4701 62.0093 73.4701 66.7442V161.27C73.4701 166.005 78.5888 168.991 82.7265 166.602L164.584 119.339C168.807 116.993 168.807 111.064 164.669 108.675Z" fill="#F46262"/>
<path d="M109.6 17.6895C58.967 17.6895 17.889 58.7674 17.889 109.4C17.889 160.033 58.967 201.111 109.6 201.111C160.233 201.111 201.311 160.033 201.311 109.4C201.311 58.7674 160.233 17.6895 109.6 17.6895ZM109.6 185.755C67.4129 185.755 33.2453 151.545 33.2453 109.4C33.2453 67.256 67.4129 33.0457 109.6 33.0457C151.787 33.0457 185.955 67.256 185.955 109.4C185.955 151.545 151.787 185.755 109.6 185.755Z" fill="#1B3954"/>
<path d="M94.457 113.453C90.6179 117.164 88.869 121.941 90.362 126.207C92.6654 132.819 101.836 135.634 110.88 132.52C115.444 130.942 119.112 128.126 121.33 124.885C122.098 123.776 122.695 122.581 123.037 121.387C123.421 120.278 123.591 119.126 123.591 118.017V66.1469L128.283 65.6351L141.421 64.2274V51.3452L123.549 53.2647L110.752 54.6724V107.31C108.15 107.182 105.334 107.609 102.519 108.59C99.3624 109.656 96.5898 111.363 94.457 113.453Z" fill="#1B3954"/>
</svg>
