<svg width="219" height="219" viewBox="0 0 219 219" fill="none" xmlns="http://www.w3.org/2000/svg">
<path d="M150.465 17.8892H68.7779C65.664 17.8892 63.1046 20.4059 63.1046 23.5624V195.68C63.1046 198.794 65.6213 201.354 68.7779 201.354H150.465C153.579 201.354 156.138 198.837 156.138 195.68V23.5624C156.095 20.4059 153.579 17.8892 150.465 17.8892ZM109.6 188.514C96.4191 188.514 85.7551 177.85 85.7551 164.669C85.7551 151.489 96.4191 140.824 109.6 140.824C122.781 140.824 133.445 151.489 133.445 164.669C133.445 177.85 122.781 188.514 109.6 188.514ZM109.6 133.445C96.4191 133.445 85.7551 122.781 85.7551 109.6C85.7551 96.4193 96.4191 85.7553 109.6 85.7553C122.781 85.7553 133.445 96.4193 133.445 109.6C133.445 122.781 122.781 133.445 109.6 133.445ZM109.6 78.3757C96.4191 78.3757 85.7551 67.7117 85.7551 54.5309C85.7551 41.3501 96.4191 30.686 109.6 30.686C122.781 30.686 133.445 41.3501 133.445 54.5309C133.445 67.669 122.781 78.3757 109.6 78.3757Z" fill="#1B3954"/>
<path d="M109.6 64.7685C115.254 64.7685 119.837 60.185 119.837 54.531C119.837 48.8769 115.254 44.2935 109.6 44.2935C103.946 44.2935 99.3624 48.8769 99.3624 54.531C99.3624 60.185 103.946 64.7685 109.6 64.7685Z" fill="#F46262"/>
<path d="M109.6 119.838C115.254 119.838 119.837 115.254 119.837 109.6C119.837 103.946 115.254 99.3628 109.6 99.3628C103.946 99.3628 99.3624 103.946 99.3624 109.6C99.3624 115.254 103.946 119.838 109.6 119.838Z" fill="#F46262"/>
<path d="M109.6 174.907C115.254 174.907 119.837 170.323 119.837 164.669C119.837 159.015 115.254 154.432 109.6 154.432C103.946 154.432 99.3624 159.015 99.3624 164.669C99.3624 170.323 103.946 174.907 109.6 174.907Z" fill="#F46262"/>
<path d="M173.03 67.8825C171.835 67.8825 170.897 68.8209 170.897 70.0153C170.897 71.2097 171.835 72.1481 173.03 72.1481C182.755 72.1481 190.647 64.2567 190.647 54.5311C190.647 44.8055 182.755 36.9141 173.03 36.9141C171.835 36.9141 170.897 37.8525 170.897 39.0469C170.897 40.2413 171.835 41.1797 173.03 41.1797C180.409 41.1797 186.381 47.1516 186.381 54.5311C186.381 61.9106 180.409 67.8825 173.03 67.8825Z" fill="#F46262"/>
<path d="M173.03 91.9829C171.835 91.9829 170.897 92.9213 170.897 94.1157C170.897 95.3101 171.835 96.2485 173.03 96.2485C180.409 96.2485 186.381 102.22 186.381 109.6C186.381 116.979 180.409 122.951 173.03 122.951C171.835 122.951 170.897 123.89 170.897 125.084C170.897 126.279 171.835 127.217 173.03 127.217C182.755 127.217 190.647 119.326 190.647 109.6C190.647 99.8743 182.755 91.9829 173.03 91.9829Z" fill="#F46262"/>
<path d="M173.03 147.052C171.835 147.052 170.897 147.991 170.897 149.185C170.897 150.379 171.835 151.318 173.03 151.318C180.409 151.318 186.381 157.29 186.381 164.669C186.381 172.049 180.409 178.021 173.03 178.021C171.835 178.021 170.897 178.959 170.897 180.153C170.897 181.348 171.835 182.286 173.03 182.286C182.755 182.286 190.647 174.395 190.647 164.669C190.647 154.944 182.755 147.052 173.03 147.052Z" fill="#F46262"/>
<path d="M46.1701 41.1797C47.3645 41.1797 48.3029 40.2413 48.3029 39.0469C48.3029 37.8525 47.3645 36.9141 46.1701 36.9141C36.4445 36.9141 28.5531 44.8055 28.5531 54.5311C28.5531 64.2567 36.4445 72.1481 46.1701 72.1481C47.3645 72.1481 48.3029 71.2097 48.3029 70.0153C48.3029 68.8209 47.3645 67.8825 46.1701 67.8825C38.7906 67.8825 32.8187 61.9106 32.8187 54.5311C32.8187 47.1516 38.7906 41.1797 46.1701 41.1797Z" fill="#F46262"/>
<path d="M46.1701 96.2485C47.3645 96.2485 48.3029 95.3101 48.3029 94.1157C48.3029 92.9213 47.3645 91.9829 46.1701 91.9829C36.4445 91.9829 28.5531 99.8743 28.5531 109.6C28.5531 119.326 36.4445 127.217 46.1701 127.217C47.3645 127.217 48.3029 126.279 48.3029 125.084C48.3029 123.89 47.3645 122.951 46.1701 122.951C38.7906 122.951 32.8187 116.979 32.8187 109.6C32.8187 102.22 38.7906 96.2485 46.1701 96.2485Z" fill="#F46262"/>
<path d="M46.1701 151.318C47.3645 151.318 48.3029 150.379 48.3029 149.185C48.3029 147.991 47.3645 147.052 46.1701 147.052C36.4445 147.052 28.5531 154.944 28.5531 164.669C28.5531 174.395 36.4445 182.286 46.1701 182.286C47.3645 182.286 48.3029 181.348 48.3029 180.153C48.3029 178.959 47.3645 178.021 46.1701 178.021C38.7906 178.021 32.8187 172.049 32.8187 164.669C32.8187 157.29 38.7906 151.318 46.1701 151.318Z" fill="#F46262"/>
</svg>
