<svg width="219" height="220" viewBox="0 0 219 220" fill="none" xmlns="http://www.w3.org/2000/svg">
<path d="M140.312 175.051H78.8875C78.2476 175.051 77.5651 175.008 76.9253 174.923L63.6592 188.189H155.498L142.232 174.923C141.592 175.008 140.952 175.051 140.312 175.051Z" fill="#F46262"/>
<path d="M199.733 50.4518C195.851 39.5745 185.059 31.8963 173.456 31.811H173.243C166.29 31.811 159.636 34.541 154.517 39.0626C154.304 39.0199 154.133 38.9773 153.877 38.9773H65.2801C65.0669 38.9773 64.8536 39.0199 64.6403 39.0626C59.5642 34.541 52.8672 31.811 45.9142 31.811H45.7009C34.1411 31.8963 23.3491 39.5745 19.4247 50.4518C15.543 61.3292 18.9981 74.126 27.9133 81.5056C33.6292 86.2404 40.5822 87.8613 46.5541 85.7712C51.7581 83.9796 55.2133 79.5434 55.7251 73.9128C56.237 68.2821 53.763 62.9074 49.5826 60.5187C46.8526 58.9831 43.7387 58.8551 40.9234 60.1348C39.857 60.604 39.5158 61.969 40.1983 62.8648C40.1983 62.8648 46.8953 71.4387 36.9137 70.6709C32.6481 70.3296 30.7712 60.3907 32.6481 55.1013C34.525 49.812 40.1983 45.8023 45.7862 45.7596C45.8289 45.7596 45.8289 45.7596 45.8715 45.7596C51.4595 45.7596 57.0901 49.684 59.0523 54.8881C59.3509 55.6985 59.6069 56.5943 59.7775 57.4901C60.8439 63.1634 59.1376 69.9457 57.5167 76.5148L57.2181 77.6239C54.1469 89.9942 51.8434 102.706 50.3931 115.375C49.4973 123.351 48.8575 131.883 50.3931 140.414C52.1847 150.438 56.8769 158.969 63.6592 164.472C67.3276 167.458 71.6786 169.463 76.1148 170.401C77.0106 170.572 77.949 170.7 78.8448 170.7H140.312C141.251 170.7 142.147 170.614 143.042 170.401C147.479 169.463 151.787 167.458 155.498 164.472C162.238 158.969 166.973 150.438 168.764 140.414C170.3 131.883 169.66 123.351 168.764 115.375C167.314 102.706 165.053 89.9942 161.939 77.6239L161.641 76.5148C160.02 69.9457 158.313 63.1634 159.38 57.4901C159.55 56.5943 159.764 55.7412 160.105 54.8881C162.067 49.684 167.74 45.7596 173.286 45.7596C173.328 45.7596 173.328 45.7596 173.371 45.7596C178.959 45.8023 184.632 49.812 186.509 55.1013C188.386 60.3907 186.552 70.3296 182.244 70.6709C172.305 71.4813 178.959 62.8648 178.959 62.8648C179.642 61.9263 179.3 60.604 178.234 60.1348C175.419 58.8551 172.305 58.9831 169.575 60.5187C165.394 62.8648 162.92 68.2395 163.432 73.9128C163.944 79.5007 167.357 83.937 172.603 85.7712C178.575 87.8187 185.528 86.2404 191.244 81.5056C200.117 74.126 203.614 61.3292 199.733 50.4518ZM150.721 43.2429C149.142 45.3331 147.863 47.5938 146.967 50.0679C146.284 51.8595 145.815 53.651 145.517 55.4426H73.7261C73.4275 53.651 72.9583 51.8595 72.2758 50.0679C71.3373 47.5938 70.0576 45.2904 68.522 43.2429H150.721ZM74.1526 59.7082H145.005C144.834 63.8459 145.346 67.9409 146.114 71.9079H73.0436C73.8114 67.9409 74.3659 63.8459 74.1526 59.7082ZM147.095 76.1735C147.393 77.4532 147.692 78.7329 148.033 79.9699L148.289 81.079C148.886 83.5104 149.441 85.9418 149.995 88.3732H69.2045C69.7591 85.9418 70.3136 83.5104 70.9108 81.079L71.1667 79.9699C71.4653 78.7329 71.8066 77.4532 72.1051 76.1735H147.095ZM68.3087 92.6388H150.934C151.744 96.6912 152.512 100.744 153.152 104.839H66.0906C66.7305 100.786 67.4556 96.6912 68.3087 92.6388ZM64.427 117.038C64.7256 114.394 65.0669 111.749 65.4508 109.104H153.792C154.176 111.749 154.517 114.394 154.816 117.038C154.986 118.446 155.114 119.896 155.242 121.347H63.9578C64.0858 119.896 64.2564 118.446 64.427 117.038ZM146.626 153.637L146.583 153.68C144.322 155.514 141.464 156.41 138.606 156.41H80.5937C77.6931 156.41 74.8351 155.514 72.617 153.68L72.5744 153.637C69.2898 150.993 66.7731 146.94 65.2801 142.077H153.962C152.427 146.94 149.91 150.993 146.626 153.637ZM154.944 137.812H64.2564C63.5739 133.887 63.4886 129.75 63.7019 125.612H155.541C155.711 129.707 155.626 133.845 154.944 137.812Z" fill="#1B3954"/>
</svg>
