<svg width="219" height="219" viewBox="0 0 219 219" fill="none" xmlns="http://www.w3.org/2000/svg">
<path d="M154.717 17.4893H64.8829C60.3187 17.4893 56.6503 21.2004 56.6503 25.7219V164.781H162.992V25.7219C162.992 21.2004 159.281 17.4893 154.717 17.4893ZM89.6236 31.6511C90.69 30.5847 92.1403 29.9449 93.7612 29.9449H125.881C129.081 29.9449 131.725 32.5469 131.725 35.7888C131.725 37.4097 131.085 38.86 130.019 39.9264C128.953 40.9928 127.502 41.6327 125.881 41.6327H93.7612C90.562 41.6327 87.9173 39.0307 87.9173 35.7888C87.9173 34.1679 88.5571 32.6749 89.6236 31.6511ZM124.346 141.192L121.019 142.6C120.592 143.453 120.123 144.306 119.568 145.117C116.497 149.596 111.677 153.179 105.961 155.184C102.804 156.293 99.6051 156.847 96.4059 156.847C87.5334 156.847 80.3245 152.454 77.9357 145.629C76.1868 140.595 77.2532 135.007 80.8364 130.187L80.3245 129.505C75.419 123.021 72.817 115.3 72.817 107.153C72.817 99.0907 75.3764 91.4125 80.1965 84.9714C84.8887 78.7436 91.5431 74.0514 98.9226 71.7907L100.16 71.4068V61.5958L118.075 59.6336L142.475 56.9889V79.7674L135.522 80.5352C142.731 87.4882 146.826 96.9578 146.826 107.153C146.826 121.997 137.996 135.348 124.346 141.192Z" fill="#1B3954"/>
<path d="M56.6076 192.678C56.6076 197.242 60.3187 200.911 64.8403 200.911H154.717C159.281 200.911 162.95 197.2 162.95 192.678V169.089H56.6076V192.678ZM109.8 178.005C113.639 178.005 116.753 181.118 116.753 184.957C116.753 188.797 113.639 191.91 109.8 191.91C105.961 191.91 102.847 188.797 102.847 184.957C102.847 181.118 105.961 178.005 109.8 178.005Z" fill="#F46262"/>
<path d="M93.9744 120.76C96.0219 120.035 98.1121 119.566 100.16 119.31V75.8857C86.7655 79.9807 77.0399 92.4364 77.0399 107.195C77.0399 114.618 79.514 121.485 83.6943 126.945C86.5096 124.258 90.0501 122.125 93.9744 120.76Z" fill="#F46262"/>
<path d="M129.72 81.1748L122.853 81.9426V135.178C122.853 135.86 122.81 136.585 122.682 137.268C134.37 132.277 142.56 120.674 142.56 107.152C142.56 96.5737 137.527 87.1467 129.72 81.1748Z" fill="#F46262"/>
<path d="M138.209 75.9711V61.7666L118.545 63.8994L104.425 65.435V123.405C101.567 123.277 98.4534 123.746 95.3822 124.813C91.8417 126.05 88.8131 127.926 86.467 130.187C82.244 134.282 80.3245 139.572 81.9454 144.264C84.4622 151.558 94.5717 154.629 104.511 151.174C109.544 149.425 113.596 146.354 115.985 142.771C116.838 141.534 117.478 140.254 117.905 138.932C118.289 137.695 118.502 136.458 118.502 135.221V78.1039L123.663 77.5494L138.209 75.9711Z" fill="#1B3954"/>
</svg>
