<svg width="219" height="219" viewBox="0 0 219 219" fill="none" xmlns="http://www.w3.org/2000/svg">
<path d="M202.177 64.171L194.329 72.0197L186.693 79.6978L168.82 61.8249V163.56C168.735 168.124 167.114 172.688 164.299 176.826C160.972 181.732 155.938 186.125 149.753 189.367C146.127 191.287 142.075 192.78 137.767 193.803C117.931 198.453 99.0773 190.86 94.9823 176.826C94.897 176.485 94.8117 176.144 94.7264 175.76C94.3425 174.181 94.1719 172.603 94.1719 171.025C94.1719 168.508 94.6411 165.991 95.5369 163.517C97.9256 156.906 103.343 150.763 110.723 146.284C112.813 145.005 115.116 143.853 117.505 142.872C119.936 141.891 122.538 141.038 125.226 140.398C132.861 138.606 140.326 138.649 146.895 140.142V23.9888H161.953L202.177 64.171Z" fill="#1B3954"/>
<path d="M142.629 28.2119V32.4775H41.2355C40.0411 32.4775 39.1027 31.5391 39.1027 30.3447C39.1027 29.1504 40.0411 28.2119 41.2355 28.2119H142.629Z" fill="#F46262"/>
<path d="M29.5476 32.4775H18.7556C17.5612 32.4775 16.6228 31.5391 16.6228 30.3447C16.6228 29.1504 17.5612 28.2119 18.7556 28.2119H29.5476C30.742 28.2119 31.6805 29.1504 31.6805 30.3447C31.6805 31.5391 30.742 32.4775 29.5476 32.4775Z" fill="#F46262"/>
<path d="M142.629 56.3647V60.6304H41.2355C40.0411 60.6304 39.1027 59.6919 39.1027 58.4976C39.1027 57.3032 40.0411 56.3647 41.2355 56.3647H142.629Z" fill="#F46262"/>
<path d="M29.5476 60.6304H18.7556C17.5612 60.6304 16.6228 59.6919 16.6228 58.4976C16.6228 57.3032 17.5612 56.3647 18.7556 56.3647H29.5476C30.742 56.3647 31.6805 57.3032 31.6805 58.4976C31.6805 59.6919 30.742 60.6304 29.5476 60.6304Z" fill="#F46262"/>
<path d="M142.629 84.5181V88.7837H41.2355C40.0411 88.7837 39.1027 87.8453 39.1027 86.6509C39.1027 85.4565 40.0411 84.5181 41.2355 84.5181H142.629Z" fill="#F46262"/>
<path d="M29.5476 88.7837H18.7556C17.5612 88.7837 16.6228 87.8453 16.6228 86.6509C16.6228 85.4565 17.5612 84.5181 18.7556 84.5181H29.5476C30.742 84.5181 31.6805 85.4565 31.6805 86.6509C31.6805 87.8453 30.742 88.7837 29.5476 88.7837Z" fill="#F46262"/>
<path d="M142.629 112.671V116.937H41.2355C40.0411 116.937 39.1027 115.998 39.1027 114.804C39.1027 113.609 40.0411 112.671 41.2355 112.671H142.629Z" fill="#F46262"/>
<path d="M29.5476 116.937H18.7556C17.5612 116.937 16.6228 115.998 16.6228 114.804C16.6228 113.609 17.5612 112.671 18.7556 112.671H29.5476C30.742 112.671 31.6805 113.609 31.6805 114.804C31.6805 115.998 30.742 116.937 29.5476 116.937Z" fill="#F46262"/>
<path d="M111.917 140.824C110.723 141.421 109.613 142.061 108.504 142.701C107.267 143.469 106.073 144.237 104.964 145.09H41.2355C40.0411 145.09 39.1027 144.151 39.1027 142.957C39.1027 141.763 40.0411 140.824 41.2355 140.824H111.917Z" fill="#F46262"/>
<path d="M29.5476 145.09H18.7556C17.5612 145.09 16.6228 144.151 16.6228 142.957C16.6228 141.763 17.5612 140.824 18.7556 140.824H29.5476C30.742 140.824 31.6805 141.763 31.6805 142.957C31.6805 144.151 30.742 145.09 29.5476 145.09Z" fill="#F46262"/>
<path d="M89.9063 171.067C89.9063 171.793 89.9489 172.475 89.9916 173.2H41.2355C40.0411 173.2 39.1027 172.262 39.1027 171.067C39.1027 169.873 40.0411 168.935 41.2355 168.935H89.9916C89.9489 169.66 89.9063 170.385 89.9063 171.067Z" fill="#F46262"/>
<path d="M29.5476 173.243H18.7556C17.5612 173.243 16.6228 172.305 16.6228 171.11C16.6228 169.916 17.5612 168.978 18.7556 168.978H29.5476C30.742 168.978 31.6805 169.916 31.6805 171.11C31.6805 172.305 30.742 173.243 29.5476 173.243Z" fill="#F46262"/>
</svg>
