<svg width="219" height="219" viewBox="0 0 219 219" fill="none" xmlns="http://www.w3.org/2000/svg">
<path d="M170.94 47.1384C170.215 46.2 168.85 46.072 167.954 46.7972C167.058 47.5223 166.887 48.8873 167.613 49.7831C178.234 62.9639 184.078 79.5572 184.078 96.4917C184.078 97.6861 185.016 98.6245 186.211 98.6245C187.405 98.6245 188.344 97.6861 188.344 96.4917C188.344 78.6187 182.158 61.087 170.94 47.1384Z" fill="#1B3954"/>
<path d="M35.1222 96.5343C35.1222 76.6565 42.8857 57.9304 56.9196 43.8965C57.7727 43.0433 57.7727 41.721 56.9196 40.8679C56.0665 40.0147 54.7441 40.0147 53.891 40.8679C39.004 55.7122 30.814 75.5047 30.814 96.5343C30.814 97.7286 31.7524 98.6671 32.9468 98.6671C34.1412 98.6671 35.1222 97.686 35.1222 96.5343Z" fill="#1B3954"/>
<path d="M168.423 143.712V96.5346C168.423 68.5947 148.972 45.2191 122.866 39.2046V39.3752H96.3766V39.2046C85.4566 41.7213 75.6884 47.2666 68.0529 54.9447C57.3888 65.5662 50.8198 80.2826 50.8198 96.5346V143.712L35.037 164.017C29.6623 170.97 34.6104 181.079 43.3976 181.079H175.888C184.675 181.079 189.623 170.97 184.249 164.017L168.423 143.712ZM139.587 129.124C139.587 131.043 138.905 133.048 137.668 134.84C135.834 137.527 132.805 139.873 129.009 141.196C121.501 143.798 113.866 141.452 111.946 135.949C110.027 130.446 114.591 123.877 122.098 121.275C124.402 120.465 126.748 120.123 128.923 120.209V86.1691L96.0354 89.7522V132.835C96.0354 134.755 95.3529 136.759 94.1159 138.551C92.2816 141.238 89.253 143.584 85.4566 144.907C77.9491 147.509 70.3137 145.163 68.3941 139.66C66.4746 134.157 71.0388 127.588 78.5463 124.986C80.8498 124.176 83.1959 123.835 85.3713 123.92V80.1972L96.0354 79.0455L128.923 75.5051L139.587 74.3533V129.124Z" fill="#1B3954"/>
<path d="M100.6 35.1094H118.558V33.8297L122.823 34.8108V31.313C122.823 27.6445 121.33 24.36 118.942 21.9286C116.553 19.5398 113.226 18.0469 109.557 18.0469C102.263 18.0469 96.2913 23.9761 96.2913 31.2703V34.7681L100.557 33.787V35.1094H100.6Z" fill="#F46262"/>
<path d="M95.6941 187.606C95.6941 195.284 101.922 201.511 109.6 201.511C117.278 201.511 123.506 195.284 123.506 187.606V185.345H95.7368V187.606H95.6941Z" fill="#F46262"/>
</svg>
