<svg width="219" height="219" viewBox="0 0 219 219" fill="none" xmlns="http://www.w3.org/2000/svg">
<path d="M189.21 55.8801C194.926 48.4579 194.414 37.7512 187.589 30.9689C180.807 24.1865 170.1 23.632 162.678 29.3479C173.129 36.3435 182.257 45.472 189.21 55.8801Z" fill="#F46262"/>
<path d="M186.181 159.364C195.651 144.946 201.111 127.713 201.111 109.2C201.111 90.6874 195.608 73.4116 186.181 58.9938C179.271 48.415 170.185 39.3293 159.607 32.4189C145.189 22.9919 127.913 17.4893 109.4 17.4893C90.8873 17.4893 73.6115 22.9919 59.2364 32.4189C48.6576 39.3293 39.5719 48.415 32.6616 58.9938C23.1919 73.4116 17.6892 90.6874 17.6892 109.2C17.6892 127.713 23.1919 144.946 32.6189 159.364C39.5292 169.943 48.615 179.028 59.1937 185.939C73.6116 195.408 90.8447 200.868 109.357 200.868C127.87 200.868 145.146 195.366 159.521 185.939C170.185 179.028 179.228 169.985 186.181 159.364ZM153.293 176.341C140.241 184.872 125.098 189.394 109.4 189.394C93.7026 189.394 78.5597 184.872 65.5069 176.341C56.1651 170.241 48.3591 162.393 42.2592 153.093C33.728 140.041 29.2064 124.855 29.2064 109.2C29.2064 93.5453 33.728 78.3597 42.2592 65.3069C48.3591 55.9652 56.2078 48.1591 65.5069 42.0593C78.5597 33.528 93.7453 29.0064 109.4 29.0064C125.055 29.0064 140.241 33.528 153.293 42.0593C162.635 48.1591 170.441 56.0079 176.541 65.3069C185.072 78.3597 189.594 93.5027 189.594 109.2C189.594 124.898 185.072 140.041 176.541 153.051C170.441 162.393 162.592 170.241 153.293 176.341Z" fill="#1B3954"/>
<path d="M109.4 48.0737C75.6163 48.0737 48.2737 75.459 48.2737 109.2C48.2737 142.984 75.659 170.327 109.4 170.327C143.141 170.327 170.526 142.984 170.526 109.2C170.526 75.4164 143.184 48.0737 109.4 48.0737ZM109.4 128.651C98.6507 128.651 89.9488 119.95 89.9488 109.2C89.9488 98.4508 98.6507 89.7489 109.4 89.7489C120.149 89.7489 128.851 98.4508 128.851 109.2C128.851 119.95 120.149 128.651 109.4 128.651Z" fill="#F46262"/>
<path d="M162.72 189.01C170.143 194.726 180.807 194.214 187.632 187.389C194.414 180.607 194.969 169.9 189.253 162.478C182.257 172.929 173.129 182.057 162.72 189.01Z" fill="#F46262"/>
<path d="M29.5903 162.521C23.8744 169.943 24.3863 180.607 31.2113 187.432C37.9936 194.214 48.7003 194.769 56.1225 189.053C45.6717 182.057 36.5433 172.929 29.5903 162.521Z" fill="#F46262"/>
<path d="M56.0798 29.3903C48.6576 23.6743 37.9936 24.1862 31.1686 31.0112C24.3862 37.7935 23.8317 48.5003 29.5476 55.9225C36.6286 45.3437 45.5437 36.4285 56.0798 29.3903Z" fill="#F46262"/>
</svg>
