<svg width="220" height="219" viewBox="0 0 220 219" fill="none" xmlns="http://www.w3.org/2000/svg">
<path d="M183.241 133.957H136.148V116.596H172.961V96.4191H136.148V79.058H162.723V58.8389H136.148V41.4779H152.486V21.2588H67.4717V41.4352H83.809V58.8389H57.2342V79.0153H83.809V96.3764H46.9967V116.553H83.809V133.914H36.7592V154.09H183.198V133.957H183.241ZM160.761 102.519C162.979 102.519 164.771 104.311 164.771 106.529C164.771 108.747 162.979 110.538 160.761 110.538C158.543 110.538 156.751 108.747 156.751 106.529C156.751 104.311 158.543 102.519 160.761 102.519ZM150.822 64.9388C153.04 64.9388 154.832 66.7303 154.832 68.9485C154.832 71.1666 153.04 72.9582 150.822 72.9582C148.604 72.9582 146.812 71.1666 146.812 68.9485C146.812 66.7303 148.604 64.9388 150.822 64.9388ZM140.414 27.3586C142.632 27.3586 144.424 29.1502 144.424 31.3683C144.424 33.5864 142.632 35.378 140.414 35.378C138.196 35.378 136.404 33.5864 136.404 31.3683C136.404 29.1502 138.196 27.3586 140.414 27.3586ZM79.5861 35.378C77.3679 35.378 75.5764 33.5864 75.5764 31.3683C75.5764 29.1502 77.3679 27.3586 79.5861 27.3586C81.8042 27.3586 83.5958 29.1502 83.5958 31.3683C83.5958 33.5864 81.7615 35.378 79.5861 35.378ZM88.1173 41.4779H131.925V58.8389H88.1173V41.4779ZM69.178 72.9582C66.9598 72.9582 65.1683 71.1666 65.1683 68.9485C65.1683 66.7303 66.9598 64.9388 69.178 64.9388C71.3961 64.9388 73.1876 66.7303 73.1876 68.9485C73.1876 71.1666 71.3961 72.9582 69.178 72.9582ZM88.1173 79.0153H131.925V96.3764H88.1173V79.0153ZM59.239 110.496C57.0209 110.496 55.2294 108.704 55.2294 106.486C55.2294 104.268 57.0209 102.476 59.239 102.476C61.4572 102.476 63.2487 104.268 63.2487 106.486C63.2487 108.704 61.4572 110.496 59.239 110.496ZM88.1173 116.596H131.925V133.957H88.1173V116.596ZM49.4708 148.076C47.2526 148.076 45.4611 146.284 45.4611 144.066C45.4611 141.848 47.2526 140.056 49.4708 140.056C51.6889 140.056 53.4804 141.848 53.4804 144.066C53.4804 146.284 51.6889 148.076 49.4708 148.076ZM170.529 148.076C168.311 148.076 166.52 146.284 166.52 144.066C166.52 141.848 168.311 140.056 170.529 140.056C172.747 140.056 174.539 141.848 174.539 144.066C174.539 146.284 172.747 148.076 170.529 148.076Z" fill="#1B3954"/>
<path d="M118.872 174.309L128.939 174.011C129.366 174.779 129.92 175.419 130.603 175.93C131.669 176.741 132.992 177.21 134.442 177.21C137.897 177.167 140.67 174.352 140.627 170.897C140.627 170.001 140.414 169.191 140.073 168.423C139.092 166.205 136.873 164.669 134.271 164.712C131.883 164.754 129.835 166.077 128.811 168.039H126.039L17.8625 167.356L17.9905 177.509L118.872 174.309Z" fill="#F46262"/>
<path d="M93.8759 188.429H91.1033C90.0795 186.466 88.032 185.101 85.6433 185.101C83.0839 185.059 80.8231 186.594 79.842 188.813C79.5008 189.58 79.3301 190.391 79.2875 191.287C79.2448 194.742 82.0175 197.557 85.4726 197.6C86.923 197.6 88.2453 197.131 89.3117 196.32C89.9942 195.808 90.5914 195.126 90.9753 194.401L101.042 194.699L201.839 197.898L201.967 187.746L93.8759 188.429Z" fill="#F46262"/>
</svg>
