<svg width="220" height="219" viewBox="0 0 220 219" fill="none" xmlns="http://www.w3.org/2000/svg">
<path d="M18.2891 63.3179V155.925C18.2891 161.342 22.6827 165.736 28.1 165.736H130.475V53.5496H28.1C22.6827 53.507 18.2891 57.9006 18.2891 63.3179ZM41.3661 125.084C43.7975 124.231 46.2289 123.89 48.4897 123.975V78.3329L59.623 77.1385L93.9186 73.4274L105.052 72.2331V129.435C105.052 131.44 104.327 133.53 103.047 135.407C101.127 138.222 97.9709 140.654 94.0039 142.061C86.1552 144.791 78.1784 142.317 76.2163 136.601C74.2114 130.885 78.9463 124.018 86.795 121.288C89.2264 120.435 91.6578 120.093 93.9186 120.179V84.646L59.623 88.3571V133.317C59.623 135.322 58.8978 137.412 57.6181 139.289C55.6986 142.104 52.542 144.535 48.575 145.943C40.7262 148.673 32.7495 146.199 30.7873 140.483C28.8252 134.682 33.56 127.814 41.3661 125.084Z" fill="#1B3954"/>
<path d="M186.568 148.161C195.952 138.052 201.711 124.487 201.711 109.6C201.711 94.7128 195.952 81.1481 186.568 71.0386L158.116 99.4903L156.623 97.9973C159.609 100.983 161.443 105.078 161.443 109.642C161.443 114.207 159.609 118.302 156.623 121.288L158.116 119.795L186.568 148.161Z" fill="#1B3954"/>
<path d="M185.075 69.4606L185.032 69.418L185.16 69.5459C185.118 69.5033 185.118 69.5033 185.075 69.4606Z" fill="#1B3954"/>
<path d="M185.075 149.739L185.118 149.697L184.99 149.825C185.075 149.739 185.075 149.739 185.075 149.739Z" fill="#1B3954"/>
<path d="M156.623 121.245C153.637 124.231 149.542 126.065 144.978 126.065C141.096 126.065 137.556 124.743 134.741 122.482V165.394C138.068 165.992 141.48 166.333 144.978 166.333C159.865 166.333 173.43 160.574 183.539 151.19L155.088 122.738L156.623 121.245Z" fill="#F46262"/>
<path d="M183.539 68.0102C173.43 58.6258 159.865 52.8672 144.978 52.8672C141.48 52.8672 138.068 53.1658 134.741 53.8056V96.7178C137.556 94.4997 141.096 93.1347 144.978 93.1347C149.542 93.1347 153.637 94.9689 156.623 97.9548L155.13 96.4619L183.539 68.0102Z" fill="#F46262"/>
<path d="M183.582 151.233L185.032 149.782C184.563 150.251 184.051 150.721 183.582 151.233Z" fill="#1B3954"/>
<path d="M185.16 149.654L186.611 148.204L186.568 148.161C186.099 148.673 185.629 149.185 185.16 149.654Z" fill="#1B3954"/>
<path d="M183.582 67.9673C184.051 68.4792 184.563 68.9484 185.032 69.4176L183.582 67.9673Z" fill="#1B3954"/>
<path d="M186.611 70.9962L185.16 69.5459C185.629 70.0151 186.099 70.527 186.611 70.9962Z" fill="#1B3954"/>
</svg>
