<svg width="219" height="220" viewBox="0 0 219 220" fill="none" xmlns="http://www.w3.org/2000/svg">
<path d="M176.173 74.1257C169.348 61.1156 158.983 50.2809 146.356 42.8587C141.366 39.9581 135.991 37.5267 130.318 35.7778C122.938 33.4743 115.089 32.2373 106.985 32.2373C100.117 32.2373 93.5053 33.1331 87.1495 34.7967C67.3144 39.9581 50.5078 52.7976 40.1423 69.9028L54.2189 77.4103C62.0676 64.8693 74.2247 55.3143 88.6425 50.8781C94.4437 49.0865 100.586 48.1054 106.985 48.1054C114.407 48.1054 121.488 49.3851 128.1 51.7739C130.83 52.755 133.517 53.9493 136.034 55.3143C147.935 61.6275 157.532 71.6517 163.291 83.8514C164.528 86.4534 165.552 89.1834 166.447 91.9561C168.239 97.7573 169.178 103.9 169.178 110.298C169.178 117.72 167.898 124.801 165.509 131.413C164.528 134.143 163.334 136.788 161.969 139.347C155.698 151.248 145.631 160.846 133.432 166.562C130.83 167.799 128.1 168.865 125.327 169.718C119.526 171.51 113.383 172.448 106.985 172.448C99.5625 172.448 92.4816 171.169 85.8698 168.78C71.6227 163.619 59.7642 153.424 52.5127 140.286L38.0522 147.025C47.6072 164.898 63.9445 178.634 83.6091 184.819C90.9886 187.122 98.8373 188.359 106.942 188.359C113.81 188.359 120.464 187.463 126.777 185.8C132.536 184.307 137.996 182.174 143.115 179.487C156.125 172.662 166.959 162.296 174.382 149.67C177.325 144.637 179.714 139.262 181.462 133.631C183.766 126.252 185.003 118.403 185.003 110.298C185.003 103.431 184.107 96.8189 182.444 90.4631C181.036 84.7471 178.903 79.2871 176.173 74.1257Z" fill="#1B3954"/>
<path d="M53.0672 135.38C55.3706 134.314 56.437 131.669 55.5839 129.323C53.3231 123.266 52.214 116.91 52.214 110.341C52.214 102.748 53.707 95.454 56.693 88.629C57.7167 86.3255 56.7356 83.5955 54.5175 82.4438L52.0861 81.1641L38.0522 73.6993L35.4075 72.2916C32.9334 70.9693 29.8622 71.993 28.7105 74.5098C23.5917 85.6857 20.9044 98.0134 20.9044 110.384C20.9044 121.304 22.9092 131.925 26.8762 141.949C27.9 144.551 30.9286 145.746 33.4453 144.594L36.1326 143.314L50.5505 136.617L53.0672 135.38Z" fill="#F46262"/>
<path d="M128.142 30.0619C124.346 23.2369 117.009 18.5874 108.648 18.5874C100.629 18.5874 93.5906 22.8104 89.6663 29.1662C95.3395 27.9291 101.183 27.3319 107.027 27.3319C114.151 27.3319 121.232 28.2704 128.142 30.0619Z" fill="#F46262"/>
<path d="M178.562 68.9219C180.908 61.2865 179.031 52.6699 173.017 46.6127C167.301 40.9394 159.281 38.9346 151.987 40.6835C162.95 47.8497 172.035 57.5327 178.562 68.9219Z" fill="#F46262"/>
<path d="M187.392 91.9136C188.671 97.7148 189.311 103.687 189.311 109.701C189.311 116.995 188.373 124.247 186.453 131.243C193.705 127.532 198.653 120.024 198.653 111.322C198.696 103.004 194.131 95.7526 187.392 91.9136Z" fill="#F46262"/>
<path d="M147.977 181.108C155.698 183.625 164.528 181.833 170.67 175.691C176.557 169.804 178.477 161.443 176.386 153.979C169.263 165.197 159.537 174.496 147.977 181.108Z" fill="#F46262"/>
<path d="M85.4432 189.17C89.1117 196.421 96.6618 201.37 105.321 201.37C113.639 201.37 120.891 196.805 124.73 190.066C118.928 191.345 112.957 191.985 106.942 191.985C99.6904 192.028 92.4389 191.089 85.4432 189.17Z" fill="#F46262"/>
<path d="M125.967 54.9307C119.867 52.7979 113.511 51.7314 106.985 51.7314C101.397 51.7314 95.894 52.4993 90.6047 54.0775C94.657 59.6229 101.226 63.206 108.606 63.206C115.644 63.2486 121.872 60.0068 125.967 54.9307Z" fill="#F46262"/>
<path d="M135.138 59.0684C134.114 65.808 136.204 72.9743 141.408 78.1784C146.271 83.0412 152.84 85.174 159.196 84.6194C154.035 73.8701 145.546 64.8696 135.138 59.0684Z" fill="#F46262"/>
<path d="M161.883 128.257C163.888 122.285 164.912 116.057 164.912 109.701C164.912 104.284 164.144 98.9091 162.694 93.7051C157.447 97.8001 154.077 104.156 154.077 111.322C154.077 118.104 157.106 124.162 161.883 128.257Z" fill="#F46262"/>
<path d="M132.664 161.614C143.157 156.41 151.987 148.007 157.66 137.769C151.091 136.959 144.181 139.091 139.147 144.125C134.327 148.902 132.195 155.343 132.664 161.614Z" fill="#F46262"/>
<path d="M88.4292 164.557C94.4011 166.562 100.629 167.586 106.985 167.586C112.402 167.586 117.777 166.818 122.938 165.368C118.843 160.121 112.487 156.751 105.321 156.751C98.5814 156.751 92.4815 159.78 88.4292 164.557Z" fill="#F46262"/>
</svg>
