<svg width="219" height="219" viewBox="0 0 219 219" fill="none" xmlns="http://www.w3.org/2000/svg">
<path d="M199.25 83.4229V101.296L174.51 103.983V175.774C174.51 179.016 173.358 182.3 171.353 185.286C168.324 189.765 163.248 193.689 156.892 195.865C144.394 200.216 131.683 196.291 128.483 187.163C125.284 177.992 132.877 167.072 145.375 162.721C149.257 161.356 153.139 160.801 156.765 160.972V88.0297L174.51 86.1102L199.25 83.4229Z" fill="#F46262"/>
<path d="M139.617 21.1445V112.472C139.617 115.713 138.465 118.998 136.46 121.984C133.432 126.505 128.355 130.387 122 132.563C109.501 136.914 96.7898 132.989 93.5906 123.861C90.3914 114.69 97.9842 103.77 110.482 99.4187C114.364 98.0537 118.246 97.4992 121.872 97.6698V40.937L67.1011 46.8663V118.657C67.1011 121.899 65.9494 125.183 63.9445 128.169C60.9159 132.648 55.8398 136.572 49.484 138.748C36.9858 143.099 24.2742 139.174 21.075 130.046C17.8758 120.875 25.4686 109.955 37.9669 105.604C41.8486 104.239 45.7303 103.684 49.3561 103.855V30.9128L67.1011 28.9933L121.872 23.0641L139.617 21.1445Z" fill="#1B3954"/>
<path d="M76.6561 158.881C81.1086 158.881 84.7181 155.272 84.7181 150.819C84.7181 146.367 81.1086 142.757 76.6561 142.757C72.2036 142.757 68.5941 146.367 68.5941 150.819C68.5941 155.272 72.2036 158.881 76.6561 158.881Z" fill="#1B3954"/>
<path d="M115.729 159.948C118.58 159.948 120.891 157.637 120.891 154.786C120.891 151.936 118.58 149.625 115.729 149.625C112.879 149.625 110.568 151.936 110.568 154.786C110.568 157.637 112.879 159.948 115.729 159.948Z" fill="#1B3954"/>
<path d="M189.439 33.5577C192.29 33.5577 194.601 31.2468 194.601 28.3963C194.601 25.5457 192.29 23.2349 189.439 23.2349C186.589 23.2349 184.278 25.5457 184.278 28.3963C184.278 31.2468 186.589 33.5577 189.439 33.5577Z" fill="#F46262"/>
<path d="M95.0836 193.689C101.751 193.689 107.155 188.284 107.155 181.617C107.155 174.95 101.751 169.545 95.0836 169.545C88.4165 169.545 83.0118 174.95 83.0118 181.617C83.0118 188.284 88.4165 193.689 95.0836 193.689Z" fill="#F46262"/>
<path d="M166.789 66.3602C173.456 66.3602 178.86 60.9555 178.86 54.2885C178.86 47.6215 173.456 42.2168 166.789 42.2168C160.122 42.2168 154.717 47.6215 154.717 54.2885C154.717 60.9555 160.122 66.3602 166.789 66.3602Z" fill="#F46262"/>
</svg>
