<svg width="220" height="219" viewBox="0 0 220 219" fill="none" xmlns="http://www.w3.org/2000/svg">
<path d="M55.7412 166.107H18.289V180.056H55.7412V166.107Z" fill="#1B3954"/>
<path d="M55.7412 140.812H18.289V154.761H55.7412V140.812Z" fill="#1B3954"/>
<path d="M55.7412 115.474H18.289V129.423H55.7412V115.474Z" fill="#1B3954"/>
<path d="M55.7412 90.1787H18.289V104.127H55.7412V90.1787Z" fill="#1B3954"/>
<path d="M104.412 166.107H66.9598V180.056H104.412V166.107Z" fill="#F46262"/>
<path d="M104.412 140.812H66.9598V154.761H104.412V140.812Z" fill="#F46262"/>
<path d="M104.412 115.474H66.9598V129.423H104.412V115.474Z" fill="#F46262"/>
<path d="M153.083 166.107H115.631V180.056H153.083V166.107Z" fill="#1B3954"/>
<path d="M153.083 140.812H115.631V154.761H153.083V140.812Z" fill="#1B3954"/>
<path d="M153.083 115.474H115.631V129.423H153.083V115.474Z" fill="#1B3954"/>
<path d="M153.083 90.1787H115.631V104.127H153.083V90.1787Z" fill="#1B3954"/>
<path d="M201.711 166.107H164.259V180.056H201.711V166.107Z" fill="#F46262"/>
<path d="M201.711 140.812H164.259V154.761H201.711V140.812Z" fill="#F46262"/>
<path d="M201.711 115.474H164.259V129.423H201.711V115.474Z" fill="#F46262"/>
<path d="M201.711 90.1787H164.259V104.127H201.711V90.1787Z" fill="#F46262"/>
<path d="M201.711 64.8838H164.259V78.8324H201.711V64.8838Z" fill="#F46262"/>
<path d="M201.711 39.5459H164.259V53.4945H201.711V39.5459Z" fill="#F46262"/>
</svg>
