<svg width="219" height="219" viewBox="0 0 219 219" fill="none" xmlns="http://www.w3.org/2000/svg">
<path d="M94.1878 89.5088C94.1878 91.6416 93.3347 93.6038 91.927 95.0115C90.5194 96.4191 88.5572 97.2723 86.4244 97.2723H76.6987C76.912 115.359 91.6711 129.99 109.8 129.99C127.929 129.99 142.688 115.401 142.901 97.2723H133.176C128.867 97.2723 125.412 93.7744 125.412 89.5088C125.412 87.376 126.265 85.4138 127.673 84.0062C129.081 82.5985 131.043 81.7454 133.176 81.7454H142.901V66.1759H133.176C128.867 66.1759 125.412 62.678 125.412 58.4124C125.412 56.2796 126.265 54.3174 127.673 52.9098C129.081 51.5021 131.043 50.649 133.176 50.649H142.901C142.816 41.6485 139.105 33.5438 133.218 27.6146C127.246 21.6427 118.928 17.9316 109.8 17.9316C91.6284 17.9316 76.912 32.5201 76.6987 50.649H86.4244C90.7326 50.649 94.1878 54.1468 94.1878 58.4124C94.1878 60.5452 93.3347 62.5074 91.927 63.9151C90.5194 65.3227 88.5572 66.1759 86.4244 66.1759H76.6987V81.7454H86.4244C90.69 81.7027 94.1878 85.2005 94.1878 89.5088Z" fill="#F46262"/>
<path d="M151.902 84.7315C150.707 84.7315 149.769 85.67 149.769 86.8643C149.769 88.0587 150.707 88.9971 151.902 88.9971C160.177 88.9971 166.959 82.2575 166.959 73.9395C166.959 65.6215 160.22 58.8818 151.902 58.8818C150.707 58.8818 149.769 59.8203 149.769 61.0146C149.769 62.209 150.707 63.1475 151.902 63.1475C157.831 63.1475 162.694 67.9676 162.694 73.9395C162.694 79.9114 157.874 84.7315 151.902 84.7315Z" fill="#1B3954"/>
<path d="M67.6983 88.9971C68.8927 88.9971 69.8311 88.0587 69.8311 86.8643C69.8311 85.67 68.8927 84.7315 67.6983 84.7315C61.7691 84.7315 56.9062 79.9114 56.9062 73.9395C56.9062 67.9676 61.7264 63.1475 67.6983 63.1475C68.8927 63.1475 69.8311 62.209 69.8311 61.0146C69.8311 59.8203 68.8927 58.8818 67.6983 58.8818C59.423 58.8818 52.6406 65.6215 52.6406 73.9395C52.6406 82.2575 59.3803 88.9971 67.6983 88.9971Z" fill="#1B3954"/>
<path d="M175.704 51.5874C174.509 51.5874 173.571 52.5258 173.571 53.7202C173.571 54.9146 174.509 55.853 175.704 55.853C185.685 55.853 193.79 63.9577 193.79 73.9393C193.79 83.9208 185.685 92.0255 175.704 92.0255C174.509 92.0255 173.571 92.964 173.571 94.1583C173.571 95.3527 174.509 96.2912 175.704 96.2912C188.032 96.2912 198.056 86.2669 198.056 73.9393C198.056 61.6116 188.032 51.5874 175.704 51.5874Z" fill="#1B3954"/>
<path d="M46.0289 94.1583C46.0289 92.964 45.0904 92.0255 43.8961 92.0255C33.9145 92.0255 25.8098 83.9208 25.8098 73.9393C25.8098 63.9577 33.9145 55.853 43.8961 55.853C45.0904 55.853 46.0289 54.9146 46.0289 53.7202C46.0289 52.5258 45.0904 51.5874 43.8961 51.5874C31.5684 51.5874 21.5442 61.6116 21.5442 73.9393C21.5442 86.2669 31.5684 96.2912 43.8961 96.2912C45.0904 96.2912 46.0289 95.3101 46.0289 94.1583Z" fill="#1B3954"/>
<path d="M144.309 131.781C135.052 140.91 122.81 145.943 109.8 145.943C96.7898 145.943 84.5475 140.91 75.2911 131.781C67.7836 124.359 62.9634 114.975 61.3425 104.609L45.1331 107.169C47.3086 120.989 53.7497 133.53 63.7739 143.469C73.9687 153.579 86.9362 159.892 100.927 161.769V184.632C89.8369 186.765 80.1112 192.822 73.3289 201.311H100.927H118.715H146.314C139.531 192.822 129.806 186.765 118.715 184.632V161.769C132.706 159.892 145.674 153.536 155.869 143.469C165.893 133.573 172.334 120.989 174.51 107.169L158.3 104.609C156.637 114.932 151.816 124.359 144.309 131.781Z" fill="#1B3954"/>
</svg>
