<svg width="219" height="219" viewBox="0 0 219 219" fill="none" xmlns="http://www.w3.org/2000/svg">
<path d="M82.3132 145.206L80.351 179.928H138.406L136.444 145.206C135.676 145.334 134.908 145.461 134.098 145.547L128.339 146.144L128.425 145.717H90.3326L90.4179 146.144L84.6593 145.547C83.8915 145.461 83.081 145.334 82.3132 145.206Z" fill="#1B3954"/>
<path d="M148.174 184.193H70.6254C65.8479 184.193 61.9662 188.075 61.9662 192.853C61.9662 197.63 65.8479 201.512 70.6254 201.512H148.174C152.952 201.512 156.834 197.63 156.834 192.853C156.834 188.075 152.952 184.193 148.174 184.193Z" fill="#F46262"/>
<path d="M169.631 18.0898H49.1693C45.8421 18.0898 42.8136 19.4548 40.5954 21.6303C38.42 23.8058 37.055 26.8344 37.055 30.2042C37.055 36.9013 42.4723 42.3186 49.1693 42.3186H169.631C172.958 42.3186 175.986 40.9536 178.204 38.7781C180.38 36.6027 181.745 33.5741 181.745 30.2042C181.745 23.5072 176.328 18.0898 169.631 18.0898Z" fill="#1B3954"/>
<path d="M91.8682 141.452H126.932L109.4 53.2388L91.8682 141.452Z" fill="#F46262"/>
<path d="M112.429 46.584L130.302 136.418L148.174 46.584H112.429Z" fill="#1B3954"/>
<path d="M88.4984 136.418L106.371 46.584H70.6254L88.4984 136.418Z" fill="#1B3954"/>
<path d="M161.483 83.0551L165.365 46.584H154.189L161.483 83.0551Z" fill="#1B3954"/>
<path d="M158.625 90.6056L151.203 53.2388L133.671 141.324C134.525 141.239 135.378 141.111 136.231 140.94C147.62 138.637 156.535 129.21 157.815 117.266L160.502 92.3119C159.564 92.1839 158.796 91.5441 158.625 90.6056Z" fill="#F46262"/>
<path d="M53.435 46.584L57.3167 83.0551L64.6109 46.584H53.435Z" fill="#1B3954"/>
<path d="M82.5692 140.897C83.4223 141.068 84.2754 141.196 85.1285 141.281L67.5968 53.2388L60.1746 90.6056C60.004 91.5441 59.1935 92.1839 58.2978 92.3119L60.9851 117.266C62.2648 129.167 71.18 138.637 82.5692 140.897Z" fill="#F46262"/>
</svg>
