<svg width="220" height="219" viewBox="0 0 220 219" fill="none" xmlns="http://www.w3.org/2000/svg">
<path d="M99.5066 36.1167H35.0957V50.4065H99.5066V36.1167Z" fill="#F46262"/>
<path d="M99.5066 68.9619H35.0957V83.2518H99.5066V68.9619Z" fill="#F46262"/>
<path d="M141.651 17.2627H125.442V142.373C118.403 140.753 110.341 140.71 102.109 142.672C96.3501 144.037 91.0607 146.213 86.4965 148.985C78.5198 153.805 72.7185 160.417 70.1592 167.541C68.6235 171.849 68.2396 176.285 69.2634 180.679C69.3487 181.063 69.434 181.447 69.562 181.831C73.9982 196.973 94.26 205.121 115.631 200.13C120.323 199.021 124.631 197.4 128.556 195.353C135.21 191.855 140.627 187.163 144.21 181.873C147.239 177.394 148.988 172.489 149.073 167.583C149.073 167.413 149.073 167.285 149.073 167.114V57.9994L168.269 77.1947L176.501 68.9621L184.947 60.5161L141.651 17.2627ZM104.924 154.658C100.53 155.682 96.4781 157.303 92.8949 159.521C87.4349 162.848 83.3826 167.285 81.7617 171.721C81.4631 172.574 80.61 173.129 79.7568 173.129C79.5009 173.129 79.2876 173.086 79.0317 173.001C77.9226 172.617 77.3681 171.38 77.752 170.271C79.6715 164.939 84.4064 159.692 90.6768 155.896C94.6439 153.464 99.1228 151.673 103.943 150.563C105.095 150.308 106.246 150.99 106.502 152.142C106.801 153.251 106.076 154.403 104.924 154.658Z" fill="#1B3954"/>
<path d="M99.5066 101.808H35.0957V116.097H99.5066V101.808Z" fill="#F46262"/>
<path d="M84.2784 145.317C88.9279 142.501 94.004 140.369 99.5066 138.918V134.695H35.0957V148.985H79.0316C80.6526 147.663 82.4015 146.426 84.2784 145.317Z" fill="#F46262"/>
<path d="M35.0957 167.498V181.788H65.1257C65.1257 181.745 65.083 181.66 65.083 181.617C64.0166 176.968 64.1873 172.233 65.6376 167.498H35.0957Z" fill="#F46262"/>
</svg>
