<svg width="219" height="219" viewBox="0 0 219 219" fill="none" xmlns="http://www.w3.org/2000/svg">
<path d="M122.168 54.0917V18.9856C117.945 18.3884 113.594 18.0898 109.2 18.0898C104.806 18.0898 100.498 18.3884 96.2325 18.9856V90.6481C102.802 93.1222 107.451 99.4353 107.451 106.9C107.451 114.322 102.802 120.678 96.2325 123.11V200.616C100.455 201.213 104.806 201.512 109.2 201.512C113.594 201.512 117.902 201.213 122.168 200.616V86.5531C115.598 84.0791 110.949 77.7659 110.949 70.3438C110.906 62.8789 115.598 56.5658 122.168 54.0917Z" fill="#1B3954"/>
<path d="M84.0328 90.6484V21.5879C74.6911 24.2326 65.9892 28.3276 58.0978 33.617V129.679C64.6669 132.153 69.3591 138.509 69.3591 145.931C69.3591 153.353 64.6669 159.709 58.0978 162.183V185.985C65.9466 191.274 74.6911 195.369 84.0328 198.014V123.11C77.4638 120.636 72.8142 114.323 72.8142 106.858C72.8142 99.4355 77.4638 93.1224 84.0328 90.6484Z" fill="#F46262"/>
<path d="M17.4891 109.801C17.4891 135.906 28.4091 159.495 45.9408 176.174V162.14C39.3717 159.666 34.7222 153.31 34.7222 145.931C34.7222 138.509 39.3717 132.195 45.9408 129.721V43.4277C28.4091 60.1063 17.4891 83.6952 17.4891 109.801Z" fill="#1B3954"/>
<path d="M160.26 129.721V33.617C152.411 28.3276 143.666 24.2326 134.325 21.5879V54.0919C140.894 56.566 145.543 62.8791 145.543 70.344C145.543 77.7662 140.851 84.122 134.325 86.596V198.057C143.666 195.412 152.368 191.317 160.26 186.028V162.226C153.69 159.751 148.998 153.438 148.998 145.973C148.998 138.509 153.69 132.153 160.26 129.721Z" fill="#F46262"/>
<path d="M172.459 43.4277V129.721C179.028 132.195 183.72 138.509 183.72 145.973C183.72 153.438 179.028 159.751 172.459 162.225V176.259C189.991 159.495 200.911 135.906 200.911 109.801C200.911 83.6952 189.991 60.1063 172.459 43.4277Z" fill="#1B3954"/>
</svg>
