<svg width="219" height="219" viewBox="0 0 219 219" fill="none" xmlns="http://www.w3.org/2000/svg">
<path d="M154.602 17.8892H64.5976C58.4551 17.8892 53.507 22.8373 53.507 28.9798V190.22C53.507 196.363 58.4551 201.311 64.5976 201.311H154.602C160.745 201.311 165.693 196.363 165.693 190.22V28.9798C165.693 22.8373 160.745 17.8892 154.602 17.8892ZM75.3897 177.637H68.2234C66.0053 177.637 64.1711 175.803 64.1711 173.584C64.1711 171.366 66.0053 169.532 68.2234 169.532H75.3897C77.6078 169.532 79.442 171.366 79.442 173.584C79.442 175.803 77.6078 177.637 75.3897 177.637ZM107.467 181.476V190.946C99.3198 189.964 92.9214 183.353 92.1962 175.163H101.751C101.794 175.163 101.837 175.163 101.879 175.163C102.476 178.106 104.652 180.409 107.51 181.22C107.467 181.305 107.467 181.391 107.467 181.476ZM102.178 170.94C102.05 170.897 101.879 170.897 101.751 170.897H92.3242C93.5186 163.219 99.7037 157.204 107.467 156.223V165.693C107.467 165.778 107.467 165.864 107.467 165.992C104.993 166.674 103.031 168.508 102.178 170.94ZM111.733 190.946V181.476C111.733 181.391 111.733 181.305 111.733 181.177C114.591 180.409 116.766 178.063 117.363 175.12C117.406 175.12 117.449 175.12 117.491 175.12H127.046C126.279 183.353 119.88 189.964 111.733 190.946ZM111.733 165.992C111.733 165.906 111.733 165.821 111.733 165.693V156.223C119.496 157.162 125.681 163.176 126.876 170.897H117.449C117.278 170.897 117.15 170.897 117.022 170.94C116.169 168.508 114.207 166.674 111.733 165.992ZM150.977 177.637H143.81C141.592 177.637 139.758 175.803 139.758 173.584C139.758 171.366 141.592 169.532 143.81 169.532H150.977C153.195 169.532 155.029 171.366 155.029 173.584C155.029 175.803 153.195 177.637 150.977 177.637ZM155.029 146.412H64.1711V28.9798C64.1711 28.7238 64.3844 28.5532 64.5976 28.5532H154.602C154.816 28.5532 155.029 28.7238 155.029 28.9798V146.412Z" fill="#1B3954"/>
<path d="M143.085 86.9922L119.88 73.5981V93.22C119.88 94.4144 119.667 95.6087 119.283 96.8031C118.899 97.9548 118.345 99.1066 117.619 100.216C115.572 103.244 112.33 105.633 108.491 106.955C106.401 107.68 104.268 108.064 102.135 108.064C96.0353 108.064 91.0019 104.95 89.3383 100.13C87.8453 95.822 89.2956 90.8312 93.1347 87.1202C95.0115 85.2859 97.443 83.8356 100.088 82.8972C100.941 82.5986 101.837 82.3427 102.732 82.172V63.7445L88.3145 55.4266C85.5845 53.8483 82.1294 55.8105 82.1294 59.0097V122.226C82.1294 125.383 85.5419 127.388 88.3145 125.809L143.042 94.2011C145.815 92.5802 145.815 88.6131 143.085 86.9922Z" fill="#F46262"/>
<path d="M96.1206 90.1915C93.5612 92.6656 92.3669 95.8648 93.3906 98.7228C94.9262 103.159 101.069 105.036 107.126 102.946C110.197 101.879 112.629 100.002 114.079 97.827C114.591 97.0592 114.975 96.2914 115.231 95.4809C115.487 94.7131 115.615 93.988 115.615 93.2201V58.5833L118.771 58.242L127.558 57.3036V48.687L115.615 49.9667L107.041 50.9051V86.0965C105.292 86.0112 103.415 86.3098 101.538 86.9497C99.4051 87.6748 97.5709 88.8265 96.1206 90.1915Z" fill="#1B3954"/>
</svg>
