<svg width="512" height="513" viewBox="0 0 512 513" fill="none" xmlns="http://www.w3.org/2000/svg">
<g clip-path="url(#clip0_17_233)">
<path d="M390.977 321.955C390.977 361.02 359.308 392.689 320.243 392.689C281.177 392.689 249.508 361.02 249.508 321.955C249.508 282.889 281.177 251.22 320.243 251.22C359.308 251.22 390.977 282.889 390.977 321.955Z" stroke="#1F0D68" stroke-width="10"/>
<path d="M236.358 178.902C236.358 210.751 210.539 236.569 178.69 236.569C146.841 236.569 121.022 210.751 121.022 178.902C121.022 147.053 146.841 121.234 178.69 121.234C210.539 121.234 236.358 147.053 236.358 178.902Z" stroke="#1F0D68" stroke-width="10"/>
<path d="M379.678 178.903C379.678 203.061 360.093 222.646 335.935 222.646C311.776 222.646 292.191 203.061 292.191 178.903C292.191 154.744 311.776 135.159 335.935 135.159C360.093 135.159 379.678 154.744 379.678 178.903Z" stroke="#1F0D68" stroke-width="10"/>
<path d="M204.44 313.679C204.44 330.184 191.06 343.564 174.555 343.564C158.051 343.564 144.671 330.184 144.671 313.679C144.671 297.175 158.051 283.795 174.555 283.795C191.06 283.795 204.44 297.175 204.44 313.679Z" stroke="#1F0D68" stroke-width="10"/>
</g>
<defs>
<clipPath id="clip0_17_233">
<rect width="512" height="512" fill="white" transform="translate(0 0.961914)"/>
</clipPath>
</defs>
</svg>
