<svg width="24" height="24" viewBox="0 0 24 24" fill="none" xmlns="http://www.w3.org/2000/svg">
<path d="M15.1549 7.12021V6.05246C15.1549 4.28368 13.721 2.84979 11.9522 2.84979C10.1834 2.84979 8.74954 4.28367 8.74954 6.05246V7.12021C8.74954 9.11767 8.21921 11.0793 7.21275 12.8047L6.1356 14.6512C5.75004 15.3122 5.54688 16.0637 5.54688 16.8289C5.54688 19.2158 7.48184 21.1507 9.86875 21.1507H14.0357C16.4226 21.1507 18.3575 19.2158 18.3575 16.8289C18.3575 16.0637 18.1544 15.3122 17.7688 14.6512L16.6917 12.8047C15.6852 11.0793 15.1549 9.11767 15.1549 7.12021Z" stroke="black" stroke-width="1.69904"/>
<path d="M14.0812 15.1858L13.7583 14.2172C13.4991 13.4396 12.7714 12.915 11.9517 12.915C11.132 12.915 10.4043 13.4396 10.1451 14.2172L9.82218 15.1858C9.46893 16.2456 9.94869 17.4038 10.9478 17.9034C11.5798 18.2194 12.3236 18.2194 12.9555 17.9034C13.9547 17.4038 14.4344 16.2456 14.0812 15.1858Z" stroke="#DF1463" stroke-width="1.69904"/>
</svg>
