<svg width="221" height="220" viewBox="0 0 221 220" fill="none" xmlns="http://www.w3.org/2000/svg">
<path d="M172.484 214.947H48.3641C39.9179 214.947 33.0708 208.1 33.0708 199.653V19.68C33.0708 11.2338 39.9179 4.38672 48.3641 4.38672H172.484C180.93 4.38672 187.777 11.2338 187.777 19.68V199.653C187.777 208.1 180.93 214.947 172.484 214.947Z" fill="#656766"/>
<path d="M148.933 156.86C148.933 180.819 127.007 199.623 102.15 194.476C87.534 191.449 75.7363 179.602 72.753 164.977C71.3932 158.312 71.7554 151.852 73.4822 145.974C77.4591 132.438 76.6128 117.639 68.3558 106.2C60.9264 95.9066 57.1793 82.764 59.0496 68.724C62.1473 45.47 81.3542 26.7625 104.681 24.2755C135.95 20.9419 162.284 45.3533 162.284 75.8602C162.284 87.3581 158.547 97.9849 152.224 106.59C144.102 117.645 142.716 131.769 147.008 144.797C148.258 148.592 148.933 152.649 148.933 156.86Z" fill="#4E4C4D"/>
<path d="M110.424 108.853C128.631 108.853 143.391 94.0927 143.391 75.8854C143.391 57.678 128.631 42.918 110.424 42.918C92.2165 42.918 77.4565 57.678 77.4565 75.8854C77.4565 94.0927 92.2165 108.853 110.424 108.853Z" fill="#D2D2D2"/>
<path d="M110.424 183.23C125.005 183.23 136.825 171.41 136.825 156.828C136.825 142.247 125.005 130.427 110.424 130.427C95.8424 130.427 84.022 142.247 84.022 156.828C84.022 171.41 95.8424 183.23 110.424 183.23Z" fill="#D2D2D2"/>
<path d="M175.787 20.9962C177.687 20.9962 179.228 19.4557 179.228 17.5552C179.228 15.6548 177.687 14.1143 175.787 14.1143C173.886 14.1143 172.346 15.6548 172.346 17.5552C172.346 19.4557 173.886 20.9962 175.787 20.9962Z" fill="#4E4C4D"/>
<path d="M175.787 113.108C177.687 113.108 179.228 111.567 179.228 109.667C179.228 107.767 177.687 106.226 175.787 106.226C173.886 106.226 172.346 107.767 172.346 109.667C172.346 111.567 173.886 113.108 175.787 113.108Z" fill="#4E4C4D"/>
<path d="M175.787 205.22C177.687 205.22 179.228 203.679 179.228 201.779C179.228 199.878 177.687 198.338 175.787 198.338C173.886 198.338 172.346 199.878 172.346 201.779C172.346 203.679 173.886 205.22 175.787 205.22Z" fill="#4E4C4D"/>
<path d="M45.0611 20.9962C46.9615 20.9962 48.5021 19.4557 48.5021 17.5552C48.5021 15.6548 46.9615 14.1143 45.0611 14.1143C43.1607 14.1143 41.6201 15.6548 41.6201 17.5552C41.6201 19.4557 43.1607 20.9962 45.0611 20.9962Z" fill="#4E4C4D"/>
<path d="M45.0611 113.108C46.9615 113.108 48.5021 111.567 48.5021 109.667C48.5021 107.767 46.9615 106.226 45.0611 106.226C43.1607 106.226 41.6201 107.767 41.6201 109.667C41.6201 111.567 43.1607 113.108 45.0611 113.108Z" fill="#4E4C4D"/>
<path d="M45.0611 205.22C46.9615 205.22 48.5021 203.679 48.5021 201.779C48.5021 199.878 46.9615 198.338 45.0611 198.338C43.1607 198.338 41.6201 199.878 41.6201 201.779C41.6201 203.679 43.1607 205.22 45.0611 205.22Z" fill="#4E4C4D"/>
</svg>
