<svg width="47" height="41" viewBox="0 0 47 41" fill="none" xmlns="http://www.w3.org/2000/svg">
<path fill-rule="evenodd" clip-rule="evenodd" d="M2.46729 21.1531C2.72378 19.4221 3.38128 17.775 4.3873 16.3431C6.1995 13.8004 8.18772 11.3878 10.3373 9.12311C11.6673 7.56311 13.0873 5.93311 14.5973 4.42311C15.5698 3.43391 16.6053 2.50864 17.6973 1.65311C17.7932 1.57891 17.8735 1.48655 17.9337 1.38132C17.9938 1.27608 18.0327 1.16003 18.048 1.03978C18.0633 0.91953 18.0548 0.797445 18.0229 0.680483C17.9911 0.563522 17.9365 0.453976 17.8623 0.358111C17.7881 0.262246 17.6957 0.181926 17.5905 0.121752C17.4853 0.0615786 17.3692 0.0227246 17.249 0.00740296C17.1287 -0.0079187 17.0066 0.000594873 16.8896 0.0324579C16.7727 0.0643209 16.6632 0.118906 16.5673 0.193102C15.4088 1.09105 14.3067 2.05956 13.2673 3.09311C11.7173 4.62311 10.2673 6.28312 8.87729 7.86312C6.65791 10.1832 4.59978 12.6523 2.71729 15.2531C1.37538 17.1315 0.573102 19.3413 0.397308 21.6431C0.399458 21.9387 0.509726 22.2233 0.707306 22.4431C0.937306 22.7231 1.6173 23.3531 1.6373 23.3731L4.6373 26.8431C7.4473 30.1831 10.1473 33.5031 13.0973 36.6431C14.2373 37.8498 15.4206 39.0331 16.6473 40.1931C16.7173 40.2531 16.7673 40.3531 16.8573 40.3831C16.9473 40.4131 17.0573 40.3831 17.2273 40.3831C17.3526 40.5065 17.5214 40.5756 17.6973 40.5756C17.8732 40.5756 18.042 40.5065 18.1673 40.3831C18.2296 40.3217 18.279 40.2485 18.3128 40.1679C18.3466 40.0872 18.364 40.0006 18.364 39.9131C18.364 39.8256 18.3466 39.7391 18.3128 39.6584C18.279 39.5777 18.2296 39.5045 18.1673 39.4431C18.1659 39.2962 18.1388 39.1507 18.0873 39.0131C17.8023 38.6347 17.4657 38.2981 17.0873 38.0131C13.2273 34.0131 9.80729 29.8631 6.25729 25.5831L3.1973 22.0131C3.01879 21.6887 2.78532 21.3977 2.50729 21.1531H2.46729Z" fill="black"/>
<path fill-rule="evenodd" clip-rule="evenodd" d="M0.747281 21.6432C2.61728 21.5332 4.48731 21.5632 6.36731 21.6432C10.7973 21.8032 15.2573 22.2332 19.6873 22.1732C24.1173 22.1132 28.4173 21.8632 32.7573 21.5132C36.6573 21.1932 40.5773 20.9132 44.4473 20.3432C44.8873 20.2832 45.3073 20.1832 45.7373 20.1032C45.855 20.0926 45.9693 20.0576 46.0727 20.0004C46.1761 19.9432 46.2665 19.865 46.338 19.7709C46.4095 19.6768 46.4606 19.5688 46.488 19.4538C46.5155 19.3389 46.5186 19.2194 46.4973 19.1032C46.4839 18.9866 46.447 18.8739 46.389 18.772C46.3309 18.67 46.2528 18.5809 46.1594 18.5099C46.066 18.4389 45.9592 18.3875 45.8454 18.3588C45.7316 18.3302 45.6132 18.3249 45.4973 18.3432C44.9773 18.3432 44.4973 18.4032 43.9373 18.4532C39.2773 18.8932 34.6473 19.5432 29.9873 19.9132C26.5473 20.1832 23.0873 20.3832 19.6273 20.4632C15.2173 20.5532 10.7873 20.0932 6.37729 20.0432C4.45076 20.0164 2.52429 20.0999 0.607297 20.2932C0.520625 20.3004 0.436225 20.3246 0.358915 20.3645C0.281604 20.4043 0.212885 20.459 0.156705 20.5254C0.100526 20.5918 0.0579867 20.6686 0.0314915 20.7514C0.00499633 20.8342 -0.0049365 20.9215 0.0022862 21.0082C0.00950891 21.0948 0.0337343 21.1792 0.0735753 21.2565C0.113416 21.3339 0.168101 21.4026 0.234494 21.4588C0.300888 21.5149 0.377699 21.5575 0.460538 21.584C0.543377 21.6105 0.63061 21.6204 0.717283 21.6132L0.747281 21.6432Z" fill="black"/>
</svg>
