<svg width="24" height="24" viewBox="0 0 24 24" fill="none" xmlns="http://www.w3.org/2000/svg">
<g clip-path="url(#clip0_3_43)">
<path fill-rule="evenodd" clip-rule="evenodd" d="M6.484 8.10001H5.5C4.837 8.10001 4.201 8.363 3.732 8.832C3.263 9.301 3 9.93701 3 10.6V18.5C3 19.163 3.263 19.799 3.732 20.268C4.201 20.737 4.837 21 5.5 21C8.771 21 15.229 21 18.5 21C19.163 21 19.799 20.737 20.268 20.268C20.737 19.799 21 19.163 21 18.5V10.6C21 9.93701 20.737 9.301 20.268 8.832C19.799 8.363 19.163 8.10001 18.5 8.10001H17.516C17.414 6.80401 16.859 5.579 15.938 4.646C14.899 3.593 13.48 3 12 3C10.52 3 9.101 3.593 8.062 4.646C7.141 5.579 6.586 6.80401 6.484 8.10001ZM6.5 9V11C6.5 11.276 6.724 11.5 7 11.5C7.276 11.5 7.5 11.276 7.5 11V9C7.5 8.724 7.276 8.5 7 8.5C6.724 8.5 6.5 8.724 6.5 9ZM16.5 9V11C16.5 11.276 16.724 11.5 17 11.5C17.276 11.5 17.5 11.276 17.5 11V9C17.5 8.724 17.276 8.5 17 8.5C16.724 8.5 16.5 8.724 16.5 9ZM16.512 8.10001C16.413 7.06701 15.962 6.094 15.226 5.349C14.375 4.486 13.213 4 12 4C10.787 4 9.625 4.486 8.774 5.349C8.038 6.094 7.587 7.06701 7.488 8.10001H16.512Z" fill="black"/>
</g>
<defs>
<clipPath id="clip0_3_43">
<rect width="24" height="24" fill="white"/>
</clipPath>
</defs>
</svg>
