<svg width="24" height="24" viewBox="0 0 24 24" fill="none" xmlns="http://www.w3.org/2000/svg">
<g clip-path="url(#clip0_1_1082)">
<path fill-rule="evenodd" clip-rule="evenodd" d="M21.0005 10.6007C21.0005 9.93725 20.736 9.30061 20.2676 8.83205C19.7991 8.36348 19.1626 8.10019 18.4996 8.10019C15.228 8.10019 8.77182 8.10019 5.50027 8.10019C4.83727 8.10019 4.20072 8.36348 3.73228 8.83205C3.26383 9.30061 2.99939 9.93725 2.99939 10.6007V18.4993C2.99939 19.1627 3.26383 19.7994 3.73228 20.2679C4.20072 20.7365 4.83727 20.9998 5.50027 20.9998C8.77182 20.9998 15.228 20.9998 18.4996 20.9998C19.1626 20.9998 19.7991 20.7365 20.2676 20.2679C20.736 19.7994 21.0005 19.1627 21.0005 18.4993V10.6007ZM19.9994 10.6007V18.4993C19.9994 18.8979 19.8426 19.2788 19.5611 19.5614C19.2797 19.8425 18.8982 20.0002 18.4996 20.0002H5.50027C5.10172 20.0002 4.72017 19.8425 4.43872 19.5614C4.15728 19.2788 4.0005 18.8979 4.0005 18.4993V10.6007C4.0005 10.202 4.15728 9.82122 4.43872 9.53859C4.72017 9.25746 5.10172 9.09978 5.50027 9.09978H18.4996C18.8982 9.09978 19.2797 9.25746 19.5611 9.53859C19.8426 9.82122 19.9994 10.202 19.9994 10.6007Z" fill="black"/>
<path fill-rule="evenodd" clip-rule="evenodd" d="M17.4999 11.0072C17.4999 11.0072 17.5141 9.93618 17.5325 8.60508C17.5509 7.12608 16.9776 5.70062 15.9372 4.64747C14.8989 3.59177 13.4811 3.00018 12 3.00018C10.519 3.00018 9.10117 3.59177 8.06281 4.64747C7.02241 5.70062 6.44917 7.12608 6.46753 8.60508C6.48589 9.93618 6.50018 11.0072 6.50018 11.0072C6.50426 11.2826 6.73069 11.5044 7.00609 11.4993C7.28353 11.4968 7.50385 11.2698 7.49977 10.9944C7.49977 10.9944 7.48549 9.92342 7.46713 8.59232C7.45081 7.38107 7.92205 6.21065 8.77273 5.34875C9.62545 4.48685 10.7862 3.99978 12 3.99978C13.2138 3.99978 14.3746 4.48685 15.2273 5.34875C16.078 6.21065 16.5492 7.38107 16.5329 8.59232C16.5145 9.92342 16.5003 10.9944 16.5003 10.9944C16.4962 11.2698 16.7165 11.4968 16.9939 11.4993C17.2693 11.5044 17.4958 11.2826 17.4999 11.0072Z" fill="#FF7949"/>
</g>
<defs>
<clipPath id="clip0_1_1082">
<rect width="24" height="24" fill="white"/>
</clipPath>
</defs>
</svg>
