<svg width="190" height="190" viewBox="0 0 190 190" fill="none" xmlns="http://www.w3.org/2000/svg">
<path d="M153.278 107.221C150.07 107.516 146.604 107.774 142.99 107.996C141.921 111.314 140.077 114.375 137.569 116.882L110.171 144.281L82.7732 116.882C80.2657 114.375 78.4219 111.314 77.3525 107.996C73.7388 107.774 70.2725 107.516 67.0644 107.221C59.1732 106.484 52.2038 102.649 47.3732 96.9331L47.5575 98.9981L50.655 132.333L51.6507 142.806C52.0932 147.415 55.965 150.955 60.6113 150.955H159.621C164.267 150.955 168.176 147.415 168.581 142.806L172.674 98.9981L172.859 96.9331C168.139 102.649 161.169 106.484 153.278 107.221Z" fill="#3B4652"/>
<path d="M162.866 58.7306C165.152 57.3293 167.475 55.8543 169.54 53.9737C174.85 49.1062 178.39 43.5012 179.681 37.7487C181.045 31.7381 180.049 25.2112 176.952 19.8643C173.854 14.5175 168.692 10.4243 162.755 8.65434C156.855 6.88434 150.181 7.14246 141.773 9.53934C139.303 10.24 136.869 11.0512 134.509 11.8256C130.563 13.1531 126.876 14.37 123.004 15.1443C116.883 16.3612 110.688 16.3612 104.161 16.3243C100.473 16.3243 96.6382 16.3243 92.877 16.5456C79.602 17.3937 69.5351 21.745 63.7457 29.1937C59.542 34.6143 57.3663 42.1368 57.6245 50.4337C57.8088 56.4812 59.1732 62.2337 60.4638 67.0643C60.5376 67.3962 60.6482 67.9862 60.722 68.5762C60.7957 69.2031 60.9063 69.8668 61.0538 70.5306C57.1451 70.5306 54.822 70.5306 54.822 70.5306C49.807 70.5306 45.8245 74.6237 45.8245 79.5281C45.8245 79.8231 45.8245 80.0812 45.8613 80.3762C46.9307 91.8812 56.0388 100.989 67.5438 102.022C70.3463 102.28 73.2963 102.501 76.357 102.686C75.9513 96.38 78.2376 90.2587 82.7363 85.76C86.9032 81.63 92.3976 79.3437 98.2607 79.3437C102.538 79.3437 106.631 80.5606 110.134 82.81C113.638 80.5606 117.731 79.3437 122.008 79.3437C127.871 79.3437 133.366 81.63 137.533 85.76C142.031 90.2587 144.318 96.38 143.912 102.686C147.009 102.501 149.959 102.28 152.725 102.022C164.23 100.989 173.338 91.8812 174.408 80.3762C174.887 75.1031 170.757 70.5306 165.447 70.5306H154.569C154.569 70.4568 154.569 70.3831 154.569 70.3093C154.348 67.4331 154.974 64.8518 156.191 63.5612C158.035 61.7543 160.395 60.2793 162.866 58.7306ZM152.541 60.0581C149.406 63.3768 149.333 68.355 149.48 70.5675H66.2901C66.2901 70.3462 66.2532 70.1618 66.2163 69.9406C66.0688 69.3506 65.9582 68.6131 65.8476 67.9125C65.737 67.1381 65.6263 66.4006 65.442 65.7737C64.2251 61.2381 62.9345 55.8543 62.787 50.3231C62.5657 43.2431 64.3726 36.8637 67.8388 32.4018C73.9601 24.5475 85.0226 22.2612 93.2088 21.745C96.8226 21.5237 100.547 21.5237 104.161 21.5237C110.688 21.5237 117.436 21.5606 124.036 20.2331C128.203 19.385 132.259 18.0575 136.168 16.73C138.454 15.9556 140.851 15.1812 143.211 14.4806C150.623 12.3787 156.376 12.0837 161.28 13.5587C165.963 14.96 170.056 18.205 172.49 22.4456C174.961 26.6862 175.735 31.8118 174.629 36.6056C173.264 42.5793 169.208 47.2993 166.037 50.1756C164.341 51.7243 162.313 53.015 160.137 54.3425C157.482 56.0018 154.753 57.735 152.541 60.0581Z" fill="#3B4652"/>
<path d="M110.171 136.979L133.919 113.232C136.758 110.392 138.381 106.779 138.749 103.054C139.229 98.2237 137.643 93.2087 133.919 89.4843C127.355 82.9206 116.735 82.9206 110.171 89.4843C103.607 82.9206 92.9875 82.9206 86.4237 89.4843C82.6994 93.2087 81.1137 98.2237 81.5931 103.054C81.9619 106.779 83.5844 110.392 86.4237 113.232L110.171 136.979Z" fill="#F46262"/>
<path d="M46.5619 143.248L45.5663 132.776L45.3082 129.936C42.7638 129.125 40.035 128.682 37.1957 128.682C22.2244 128.682 10.0925 140.814 10.0925 155.786C10.0925 170.757 22.2244 182.889 37.1957 182.889C52.0563 182.889 64.1144 170.904 64.2988 156.081H60.685C53.31 156.117 47.2625 150.586 46.5619 143.248ZM35.9788 153.204H38.4494C42.5425 153.204 45.8982 156.56 45.8982 160.653C45.8982 164.304 43.28 167.327 39.8138 167.991V169.909C39.8138 171.347 38.6707 172.49 37.2325 172.49C35.7944 172.49 34.6513 171.347 34.6513 169.909V168.102H31.1482C29.71 168.102 28.5669 166.959 28.5669 165.521C28.5669 164.082 29.71 162.939 31.1482 162.939H38.4863C39.74 162.939 40.7725 161.907 40.7725 160.653C40.7725 159.399 39.74 158.367 38.4863 158.367H36.0157C31.8857 158.367 28.5669 155.011 28.5669 150.918C28.5669 147.267 31.185 144.244 34.6513 143.58V141.662C34.6513 140.224 35.7944 139.081 37.2325 139.081C38.6707 139.081 39.8138 140.224 39.8138 141.662V143.469H43.3169C44.755 143.469 45.8982 144.612 45.8982 146.051C45.8982 147.489 44.755 148.632 43.3169 148.632H35.9788C34.725 148.632 33.6925 149.664 33.6925 150.918C33.6925 152.209 34.725 153.204 35.9788 153.204Z" fill="#F46262"/>
</svg>
