<svg width="48" height="48" viewBox="0 0 48 48" fill="none" xmlns="http://www.w3.org/2000/svg">
<rect width="48" height="48" fill="white"/>
<path fill-rule="evenodd" clip-rule="evenodd" d="M10.7999 8.97027C12.986 9.92985 16.574 9.81623 18.9805 8C22.3455 10.4656 25.5842 10.2125 28.6721 8C30.7309 9.48813 33.9006 10.1235 36.8748 9.0015L38.2081 10.854C34.7314 15.5004 36.0183 19.9417 39.6044 23.8502L38.0985 25.3771C38.4397 35.3984 30.678 37.791 26.2211 38.0394L23.8248 40L21.4464 38.0687C13.4895 37.3815 9.28837 33.1838 9.54828 25.4028L8 23.8385C11.0252 20.5664 13.2984 16.0951 9.41232 10.853L10.7999 8.97027Z" fill="black" stroke="black" stroke-width="0.0389009"/>
<path fill-rule="evenodd" clip-rule="evenodd" d="M10.9811 25.201H36.5844C37.2573 32.286 32.756 36.1128 25.9112 36.489L21.5617 36.5C15.0131 36.0293 10.1342 32.5718 10.9811 25.201Z" fill="#004D98"/>
<path d="M25.6452 25.2863H22.0184V36.6076H25.6452V25.2863Z" fill="#A50044"/>
<path d="M18.4269 25.2863H14.8001V35.4043H18.4269V25.2863Z" fill="#A50044"/>
<path d="M18.4269 34.8859H16.0646V35.9281H18.4269V34.8859Z" fill="#A50044"/>
<path d="M32.8223 25.2863H29.1955V35.4043H32.8223V25.2863Z" fill="#A50044"/>
<path d="M31.5578 34.8859H29.1955V35.9281H31.5578V34.8859Z" fill="#A50044"/>
<path fill-rule="evenodd" clip-rule="evenodd" d="M23.7139 11.3113V21.3673L11.492 21.4557L12.7518 16.6156L11.1826 10.8251L18.918 9.83057L23.7139 11.3113Z" fill="white"/>
<path fill-rule="evenodd" clip-rule="evenodd" d="M23.8907 11.3113V21.3673L36.1126 21.4557L34.8529 16.6156L36.422 10.8251L28.6867 9.83057L23.8907 11.3113Z" fill="#FFED02"/>
<path d="M20.1559 10.1171H16.6517V21.305H20.1559V10.1171Z" fill="#DB0030"/>
<path d="M23.7139 17.7944V14.2902H12.8099V17.7944H23.7139Z" fill="#DB0030"/>
<path d="M26.2835 10.9102H24.9875V21.2322H26.2835V10.9102Z" fill="#DB0030"/>
<path d="M28.7437 10.1707H27.4477V21.2564H28.7437V10.1707Z" fill="#DB0030"/>
<path d="M31.2201 10.7955H29.9241V21.2796H31.2201V10.7955Z" fill="#DB0030"/>
<path d="M33.6734 11.1794H32.3773V21.27H33.6734V11.1794Z" fill="#DB0030"/>
<path fill-rule="evenodd" clip-rule="evenodd" d="M18.9602 8.79651C16.7031 10.4508 13.1315 10.6249 11.0812 9.79775L10.26 10.8549C13.783 15.8119 11.7589 20.799 8.96552 23.8533L10.2518 25.2146C9.72987 32.6861 14.0901 37.0072 21.7552 37.4518L23.8327 39.1869L25.9061 37.4245C30.3698 37.3475 38.1968 34.8441 37.3535 25.2037L38.6466 23.8642C35.3661 20.226 34.2354 15.2429 37.4053 10.8549L36.6346 9.80457C33.8298 10.7263 30.621 10.2154 28.6902 8.8197C25.794 10.8947 22.1161 11.1089 18.9602 8.79651ZM28.7161 10.2165C30.4574 11.2977 32.3816 11.6054 35.6988 11.3146C34.0377 14.1886 33.8583 17.6122 35.3292 20.9178L12.3089 20.9041C13.547 17.9504 13.8311 14.5516 11.8901 11.2491C14.2827 11.5965 16.6199 11.5133 18.9506 10.2452C22.1119 12.101 25.3641 12.1349 28.7161 10.2165ZM11.4918 25.3128H36.1776C36.8264 32.1438 32.4864 35.8327 25.887 36.1955L21.6924 36.2064C15.3786 35.7525 10.6753 32.4193 11.4918 25.3128Z" fill="#EDBB00" stroke="#DEB405" stroke-width="0.0364844"/>
<path fill-rule="evenodd" clip-rule="evenodd" d="M11.8635 11.2851C13.8045 14.5876 13.5202 17.9864 12.2821 20.9401L35.3018 20.9537C33.831 17.6482 34.011 14.2245 35.6721 11.3505C32.3549 11.6412 30.4312 11.3339 28.6899 10.2527C25.3379 12.1711 22.0847 12.1364 18.9233 10.2806C16.5927 11.5487 14.2561 11.6325 11.8635 11.2851Z" stroke="black" stroke-width="0.155603"/>
<path fill-rule="evenodd" clip-rule="evenodd" d="M11.4915 25.3129H36.1769C36.8257 32.1438 32.4858 35.8334 25.8864 36.1962L21.6928 36.2068C15.379 35.7529 10.675 32.4193 11.4915 25.3129Z" stroke="black" stroke-width="0.155603"/>
<path d="M23.8101 11.6304V20.9578" stroke="black" stroke-width="0.155603"/>
<path d="M27.2146 30.6358C27.2146 31.0766 27.1279 31.5131 26.9593 31.9204C26.7906 32.3276 26.5434 32.6977 26.2318 33.0094C25.9201 33.3211 25.5501 33.5684 25.1429 33.7371C24.7357 33.9058 24.2992 33.9926 23.8584 33.9926C23.4176 33.9926 22.9811 33.9058 22.5739 33.7371C22.1667 33.5684 21.7967 33.3211 21.485 33.0094C21.1734 32.6977 20.9262 32.3276 20.7576 31.9204C20.5889 31.5131 20.5022 31.0766 20.5023 30.6358C20.5022 30.195 20.5889 29.7586 20.7576 29.3513C20.9262 28.944 21.1734 28.574 21.485 28.2623C21.7967 27.9506 22.1667 27.7033 22.5739 27.5346C22.9811 27.3659 23.4176 27.2791 23.8584 27.2791C24.2992 27.2791 24.7357 27.3659 25.1429 27.5346C25.5501 27.7033 25.9201 27.9506 26.2318 28.2623C26.5434 28.574 26.7906 28.944 26.9593 29.3513C27.1279 29.7586 27.2146 30.195 27.2146 30.6358Z" fill="#EDBB00" stroke="black" stroke-width="0.156383"/>
<path d="M21.9224 27.9021C21.5307 29.3299 21.2877 30.7357 22.4178 31.4112C23.2075 31.8833 23.7414 30.9206 23.8893 30.5477" stroke="black" stroke-width="0.136153"/>
<path d="M20.7526 31.9894C21.4142 31.9592 21.7594 31.9047 22.1837 31.26" stroke="black" stroke-width="0.136153"/>
<path d="M23.8615 30.5726C24.5254 30.1645 25.1159 30.362 25.3902 31.3836C26.0364 31.124 26.6591 31.6227 26.8214 32.1267" stroke="black" stroke-width="0.136153"/>
<path d="M25.404 31.3837C24.9135 32.5678 23.6234 33.116 21.8123 33.2965" stroke="black" stroke-width="0.136153"/>
<path d="M23.8624 30.6212C23.4549 30.2481 22.828 29.8211 23.7413 28.7241C23.3538 28.233 23.2482 27.7532 23.7548 27.2979" stroke="black" stroke-width="0.136153"/>
<path d="M27.1993 30.8364C26.6033 29.7828 25.216 28.3228 23.7414 28.7105" stroke="black" stroke-width="0.136153"/>
<path d="M19.1659 21.5168V21.5291H18.5562V22.7131V23.3843V24.7006H19.215V23.3843H20.1549V22.7131H19.215V22.1989H20.8369V21.5168H19.1659Z" fill="black"/>
<path fill-rule="evenodd" clip-rule="evenodd" d="M24.1538 22.5104L24.7452 22.2016C24.3677 21.367 22.8372 21.1296 22.3338 22.2016C21.8143 23.4802 22.3665 24.6681 23.3719 24.7839C24.0108 24.8769 24.5171 24.5641 24.732 24.0085L24.1472 23.6734C23.9915 24.0615 23.3977 24.3286 22.9448 23.68C22.8054 23.3902 22.7696 22.9441 22.9251 22.5104C23.2965 22.0001 23.8394 22.0554 24.1538 22.5104Z" fill="black" stroke="black" stroke-width="0.00778018"/>
<path fill-rule="evenodd" clip-rule="evenodd" d="M26.4146 21.525L26.4269 24.7252L28.1688 24.7183C28.7356 24.639 29.4787 23.7111 28.6081 22.99C29.0683 22.5844 29.0107 21.7167 28.0897 21.5318L26.4146 21.525ZM27.0844 22.1552H27.9519C28.3334 22.265 28.2202 22.6318 27.9642 22.694H27.0844V22.1552ZM27.0912 23.3188L28.0038 23.3311C28.4552 23.4654 28.3532 23.9798 28.0174 24.0677L27.098 24.0609L27.0912 23.3188Z" fill="black" stroke="black" stroke-width="0.0389009"/>
</svg>
