<svg width="24" height="24" viewBox="0 0 24 24" fill="none" xmlns="http://www.w3.org/2000/svg">
<rect opacity="0.3" x="1.99951" y="1.99951" width="20" height="20" rx="10" fill="#2B3F6C"/>
<path fill-rule="evenodd" clip-rule="evenodd" d="M2.02721 11.2495H7.21823C7.03162 9.02163 6.02082 7.02102 4.47986 5.54031L5.51916 4.45872C7.34008 6.20843 8.53259 8.59267 8.72276 11.2495H11.2495V2.02721C11.4971 2.00885 11.7472 1.99951 11.9995 1.99951C12.2518 1.99951 12.5019 2.00885 12.7495 2.02721V11.2495H15.2753C15.4609 8.55699 16.6385 6.13643 18.4438 4.35256C18.6368 4.51543 18.8237 4.68549 19.0038 4.86231L19.2754 5.13932C19.3568 5.22568 19.4368 5.31349 19.5151 5.40271C17.9742 6.91763 16.9625 8.96626 16.7794 11.2495H21.9718C21.9902 11.4971 21.9995 11.7472 21.9995 11.9995C21.9995 12.2518 21.9902 12.5019 21.9718 12.7495H16.7795C16.9626 15.0327 17.9743 17.0813 19.5153 18.5961C19.4395 18.6824 19.3623 18.7674 19.2836 18.851L18.9953 19.1451C18.8178 19.3188 18.6339 19.4861 18.444 19.6463C16.6387 17.8625 15.461 15.442 15.2753 12.7495H12.7495V21.9718C12.5019 21.9902 12.2518 21.9995 11.9995 21.9995C11.7472 21.9995 11.4971 21.9902 11.2495 21.9718V12.7495H8.72276C8.53259 15.4064 7.34008 17.7906 5.51916 19.5403L4.47986 18.4587C6.02082 16.978 7.03162 14.9774 7.21823 12.7495H2.02721C2.00885 12.5019 1.99951 12.2518 1.99951 11.9995C1.99951 11.7472 2.00885 11.4971 2.02721 11.2495Z" fill="#2B3F6C"/>
</svg>
