<svg width="48" height="48" viewBox="0 0 48 48" fill="none" xmlns="http://www.w3.org/2000/svg">
<rect width="48" height="48" fill="white"/>
<path d="M23.9997 8C15.1634 8 8 15.1634 8 23.9997C8 32.8361 15.1634 40 23.9997 40C32.8361 40 40 32.8355 40 23.9997C40 15.1639 32.8355 8 23.9997 8Z" fill="#0066B2"/>
<path d="M23.9997 8.7998C15.6053 8.7998 8.7998 15.6053 8.7998 23.9997C8.7998 32.3941 15.6053 39.2002 23.9997 39.2002C32.3941 39.2002 39.2002 32.3947 39.2002 23.9997C39.2002 15.6047 32.3947 8.7998 23.9997 8.7998Z" fill="white"/>
<path d="M23.9997 9.52002C16.0027 9.52002 9.52002 16.0032 9.52002 23.9997C9.52002 31.9962 16.0032 38.4799 23.9997 38.4799C31.9962 38.4799 38.4799 31.9973 38.4799 23.9997C38.4799 16.0021 31.9973 9.52002 23.9997 9.52002ZM23.9997 33.0398C22.2117 33.0398 20.4639 32.5096 18.9773 31.5163C17.4906 30.5229 16.3319 29.1111 15.6477 27.4592C14.9635 25.8073 14.7845 23.9897 15.1333 22.236C15.4821 20.4824 16.3431 18.8716 17.6074 17.6074C18.8716 16.3431 20.4824 15.4821 22.236 15.1333C23.9897 14.7845 25.8073 14.9635 27.4592 15.6477C29.1111 16.3319 30.5229 17.4906 31.5163 18.9773C32.5096 20.4639 33.0398 22.2117 33.0398 23.9997C33.0399 25.1869 32.8061 26.3625 32.3518 27.4593C31.8975 28.5561 31.2317 29.5527 30.3922 30.3922C29.5527 31.2317 28.5561 31.8975 27.4593 32.3518C26.3625 32.8061 25.1869 33.0399 23.9997 33.0398Z" fill="#DC052D"/>
<path d="M16.0518 26.4572C16.4171 27.6429 17.044 28.7314 17.8862 29.6424V25.8928L15.7662 22.7957C15.5864 24.0222 15.684 25.2734 16.0518 26.4572ZM20.3314 29.429V25.1353L17.9043 21.59V18.3383C17.4563 18.8214 17.0672 19.3559 16.7449 19.9306L17.8851 21.5962V25.8928L20.3122 29.4375V31.4559C20.9025 31.7479 21.5253 31.969 22.1675 32.1146L20.3314 29.429ZM22.7771 24.3761L25.2043 27.9208V32.2168L22.7771 28.6715V24.3784L20.35 20.8331V16.5371L22.7771 20.0818V24.3761ZM25.2229 23.6192L22.7958 20.0739V15.7802L25.2229 19.3255V23.6215L27.65 27.1667V31.4627L25.2229 27.9174V23.6192ZM21.5405 16.0517C20.3433 16.4208 19.2454 17.0565 18.3293 17.911L20.3337 20.8387V25.1347L22.7608 28.6794V32.2275C23.9998 32.4135 25.2649 32.3178 26.4619 31.9475C27.6589 31.5773 28.757 30.942 29.6747 30.0888L27.6703 27.1611V22.8645L25.2432 19.3193V15.7712C24.0039 15.5841 22.7382 15.6806 21.5416 16.0534L21.5405 16.0517ZM30.1155 26.4053V22.1076L27.6884 18.5623V16.5445C27.0979 16.2522 26.475 16.0309 25.8325 15.8852L27.6692 18.5686V22.8645L30.0963 26.4098V29.6616C30.544 29.1786 30.933 28.6443 31.2551 28.0698L30.1155 26.4053ZM31.9494 21.5415C31.5841 20.3559 30.9574 19.2674 30.1155 18.3563V22.1093L32.235 25.2058C32.4153 23.9784 32.3177 22.7262 31.9494 21.5415Z" fill="#0066B2"/>
<path d="M14.3218 26.9907L14.7327 27.8656L14.0644 29.1288C13.9639 29.3168 13.877 29.4703 13.877 29.4703L13.886 29.4867C13.886 29.4867 14.0627 29.4974 14.2749 29.5155L15.6984 29.6436L16.2064 30.4649L13.1302 32.2621L12.6386 31.4718L13.9266 30.7223C14.2269 30.5484 14.4533 30.4259 14.4533 30.4259L14.4442 30.4096C14.4442 30.4096 14.289 30.3983 13.9645 30.3503L12.6544 30.1556L12.6454 30.1392L13.1929 28.9341C13.3295 28.6361 13.4045 28.4995 13.4045 28.4995L13.3955 28.4831C13.3955 28.4831 13.1697 28.6062 12.8598 28.7653L11.53 29.4319L11.1349 28.5898L14.3218 26.9907ZM16.6766 30.8735L17.3856 31.5035L15.962 33.1968C15.7283 33.479 15.7402 33.7736 16.0935 34.0519C16.4469 34.3302 16.737 34.2726 16.956 33.9797L18.2689 32.1988L19.0473 32.7401L17.6994 34.5656C17.0813 35.4032 16.2809 35.2378 15.5889 34.6931C14.8969 34.1484 14.5475 33.409 15.2181 32.6098L16.6766 30.8735ZM18.0951 32.0261L17.2202 32.6374L17.2055 32.6256L17.5955 31.6321L18.0951 32.0261ZM19.5954 33.0489L20.521 33.3876L21.0443 35.1746C21.1572 35.5612 21.2035 35.7656 21.2035 35.7656L21.2305 35.7735C21.2305 35.7735 21.2909 35.5076 21.3796 35.1825L21.7594 33.7607L22.6625 33.9746L21.7425 37.4177L20.7829 37.1874L20.1886 35.3191C20.0757 34.9562 20.0249 34.7264 20.0249 34.7264L19.9978 34.7185C19.9978 34.7185 19.9182 35.0007 19.8177 35.3005L19.3323 36.7494L18.4603 36.4277L19.5954 33.0489ZM26.5262 36.1313C26.5459 36.978 26.0182 37.556 25.0072 37.6243C24.0629 37.6898 23.179 37.2596 23.1271 35.8835C23.0746 34.4877 23.8473 33.9644 24.7538 33.904C25.7354 33.8374 26.3032 34.3861 26.4008 35.1311L25.4469 35.1955C25.3595 34.8726 25.1867 34.6824 24.7662 34.7112C24.3711 34.7377 24.0974 35.0995 24.1273 35.8158C24.1594 36.5648 24.4699 36.8538 24.9096 36.8245C25.3493 36.7951 25.5412 36.5846 25.5621 36.1979L26.5262 36.1313ZM26.7395 33.6698L27.624 33.3311L28.1241 34.5289L29.2281 34.0254L28.6496 32.8576L29.4878 32.4139L31.0682 35.6075L30.2289 36.0529L29.6035 34.7829L28.4481 35.3095L28.9973 36.6173L28.1128 36.956L26.7395 33.6737V33.6698ZM30.0477 31.9979L31.7529 30.3638L32.3015 30.9023L31.2325 31.9268L31.6406 32.3783L32.6758 31.3866L33.2114 31.9115L32.1418 32.9371L32.5855 33.4339L33.79 32.2796L34.3386 32.818L32.4308 34.6463L30.0477 31.9979ZM32.1785 29.8587L32.6662 29.0035L34.5164 28.7902C34.9166 28.7439 35.126 28.7337 35.126 28.7337L35.1384 28.7083C35.1384 28.7083 34.8884 28.6022 34.5853 28.4611L33.2481 27.8464L33.6116 26.9913L36.8431 28.4797L36.4542 29.3828L34.5119 29.6549C34.1349 29.708 33.9 29.7164 33.9 29.7164L33.8876 29.7418C33.8876 29.7418 34.1495 29.8671 34.4306 30.0178L35.7763 30.7415L35.3117 31.5464L32.1785 29.8587ZM11.8066 18.0669L12.5212 18.3491L11.9511 19.9312L12.6183 20.1519L13.1522 18.6714L13.8493 18.948L13.3312 20.3845L14.5791 20.7897L14.311 21.6991L10.8973 20.5871L11.8066 18.0669ZM16.1709 15.7154C16.7867 16.2736 16.8928 17.0385 16.2776 17.8174C15.7131 18.5303 14.8473 18.8723 13.7257 18.0398C12.6188 17.2191 12.7662 16.2482 13.352 15.5054C13.9729 14.7186 14.766 14.6526 15.384 15.0906L14.7914 15.8407C14.5024 15.6781 14.2309 15.6962 13.9605 16.0383C13.6901 16.3803 13.75 16.8036 14.35 17.2535C14.924 17.6831 15.3722 17.6672 15.6222 17.3512C15.8892 17.0125 15.8373 16.7387 15.576 16.4729L16.1709 15.7154ZM18.5122 11.683C19.1415 11.3923 19.7579 11.3291 20.0294 11.9726C20.2524 12.4992 20.1107 12.7295 19.8358 12.9604L19.8454 12.9818C20.1389 12.9135 20.5323 12.9254 20.7829 13.5135C21.0838 14.2208 20.6226 14.63 19.9927 14.9212L18.6618 15.5365L17.0661 12.3513L18.5122 11.683ZM19.0467 12.9739C19.2934 12.861 19.3639 12.7447 19.2646 12.5071C19.1686 12.2779 19.0061 12.2604 18.7679 12.3705L18.2362 12.616L18.5365 13.2104L19.0467 12.9739ZM19.6484 14.2755C19.9205 14.1496 19.995 14.043 19.8798 13.7709C19.7726 13.5163 19.5841 13.5101 19.3114 13.636L18.852 13.8482L19.176 14.4911L19.6484 14.2755ZM24.9926 14.0238H23.9816L23.6915 13.3831L22.4684 13.4881L22.2917 14.1654L21.2955 14.3404L22.2827 10.6151L23.3845 10.5203L24.9926 14.0238ZM23.4161 12.6968L23.1118 12.0036C23.0069 11.7682 22.9278 11.5588 22.9278 11.5588H22.9092C22.9092 11.5588 22.8669 11.779 22.8036 12.029L22.6225 12.7628L23.4161 12.6968ZM25.8928 12.9784L25.0654 10.4497L26.1333 10.6529L26.4573 11.7253C26.5183 11.9302 26.5702 12.1481 26.5702 12.1481L26.5882 12.1521C26.5882 12.1521 26.7271 11.976 26.8676 11.8134L27.6065 10.9718L28.6626 11.2298L26.8631 13.189L26.5877 14.3709L25.6535 14.1683L25.8928 12.9784ZM29.3738 11.538L31.6157 12.769L31.2251 13.4311L29.844 12.6714L29.5674 13.2144L30.8447 13.9154L30.4632 14.5611L29.227 13.8838L28.9233 14.4759L30.2701 15.2153L29.8795 15.8774L27.7606 14.7141L29.3738 11.538ZM32.8558 13.7331L33.9435 14.897C34.5 15.4924 34.6333 16.067 33.9706 16.6467C33.5473 17.017 33.2368 17.1192 32.866 16.9741L32.297 18.4101L31.6253 17.5888L32.1458 16.4164L31.8353 16.0845L30.9982 16.9182L30.3107 16.2652L32.8558 13.7331ZM32.3665 15.5562L32.7345 15.9513C32.9394 16.1703 33.1115 16.1771 33.3401 15.975C33.5687 15.773 33.5619 15.5884 33.357 15.3688L32.9698 14.9545L32.3665 15.5562ZM33.7539 21.6923L33.4287 20.7621L34.4803 19.2257C34.7061 18.8994 34.837 18.7278 34.837 18.7278L34.8263 18.7019C34.8263 18.7019 34.5825 18.8232 34.2743 18.961L32.9337 19.5677L32.5262 18.7324L35.7717 17.2648L36.2007 18.1521L35.1328 19.7969C34.9279 20.1102 34.7783 20.2992 34.7783 20.2992L34.789 20.3252C34.789 20.3252 35.0555 20.2123 35.3535 20.096L36.7821 19.5542L37.0858 20.4325L33.7539 21.6923Z" fill="white"/>
</svg>
