<svg width="48" height="48" viewBox="0 0 48 48" fill="none" xmlns="http://www.w3.org/2000/svg">
<rect width="48" height="48" fill="white"/>
<path d="M22.4551 41.9166C20.4655 40.9623 19.5215 40.7898 18.0293 40.2113C12.954 38.1201 10.2335 35.0139 10.3757 29.177C11.1065 23.249 13.5427 20.5895 12.4464 16.8437C12.0708 15.4328 11.2182 13.9609 10.0001 12.9052C12.3043 10.9865 13.9791 9.39295 15.3902 6.0025C18.3846 8.39811 21.6938 6.72322 24.4649 6.67239C27.2258 6.72304 30.535 8.40828 33.5398 6.01267C34.9507 9.39295 36.6155 10.9865 38.9399 12.9052C37.7016 13.9609 36.8488 15.4328 36.4935 16.8641C35.3769 20.5793 37.8131 23.249 38.5541 29.1772C38.6861 35.0141 35.9656 38.1203 30.9208 40.2214C29.4084 40.8002 28.4541 40.9625 26.4747 41.937C25.3481 42.5056 24.7996 43.3377 24.4647 43.9976C24.1401 43.3276 23.5819 42.5054 22.4551 41.9166Z" fill="black"/>
<path d="M20.0695 40.6577C18.1511 40.1503 16.9127 39.5207 15.5728 38.7493V6.48962C16.7807 7.16967 17.6232 7.63677 20.0695 7.51496V18.4375C20.2117 18.2547 20.3538 18.0314 20.5364 17.6863C21.785 18.7928 22.851 18.1837 24.4648 18.1127C26.0687 18.1837 27.1345 18.803 28.3831 17.6863C28.5252 18.0416 28.6775 18.2955 28.84 18.4477V7.51478C31.2762 7.64676 32.2303 7.17984 33.3368 6.48944V38.7493C31.9969 39.5006 30.7686 40.1503 28.8298 40.6679V30.3037C27.7134 31.0549 27.3071 31.0651 25.9979 31.4509C25.2264 31.7452 24.79 32.0294 24.4549 32.598C24.1301 32.0193 23.6935 31.725 22.9222 31.4509C21.5924 31.0549 21.1762 31.0043 20.0697 30.2936V40.6577H20.0695Z" fill="white"/>
<path d="M31.7242 15.8386L31.3385 13.7982C31.308 13.1284 30.6583 12.976 30.3435 13.6663V16.0822C30.374 16.2648 30.4147 16.346 30.5568 16.478H28.9123C29.0748 16.3055 29.1053 16.3258 29.1256 16.0619V10.2656C29.1053 10.1133 29.0546 10.0525 28.9123 9.93071H30.5568C30.4655 10.0322 30.3742 10.1034 30.3435 10.2656V12.9049L32.3331 10.2961C32.4041 10.1743 32.3839 10.0324 32.191 9.91038H33.3381C33.2569 9.95104 33.0438 10.0324 32.8915 10.2353L31.2675 12.428C31.7751 12.3771 32.1202 12.3265 32.3636 12.9862C32.79 14.9657 32.7799 16.6609 33.4092 15.5746C33.1048 17.0364 31.8257 16.5593 31.7242 15.8386ZM15.5363 16.4462C15.813 16.2663 15.8981 16.1963 15.9193 15.8964V10.2979C15.9193 10.118 15.813 9.97815 15.6108 9.87809C17.7818 9.87809 18.5694 9.79801 19.2292 10.4779C19.8891 11.1677 19.6869 12.0376 18.8781 12.7472C20.2403 13.347 20.1659 15.4064 19.3038 15.9763C18.4631 16.4962 18.2077 16.4462 15.5363 16.4462Z" fill="black"/>
<path d="M22.049 15.8286C21.5312 15.0605 21.6937 14.2299 22.2519 13.8668C22.7188 13.5969 23.47 13.628 23.47 14.6246C23.4599 15.1851 22.8913 15.372 22.5769 15.1125C22.1098 15.8288 23.2772 16.6904 24.8404 15.59V10.2439C24.343 10.2646 23.8761 10.2646 23.3686 10.3374L23.5512 9.95322C24.414 9.95322 25.4088 9.95322 26.3426 9.94287C26.2412 10.0779 26.1295 10.1505 26.0787 10.3581L26.0888 15.7455C23.9776 16.4928 22.9726 16.8561 22.049 15.8286ZM17.0864 12.56V10.1237C17.938 10.1237 18.4384 10.5398 18.4491 11.3115C18.4277 12.1641 17.9913 12.5801 17.0864 12.56ZM17.0964 15.9911V12.9356C18.422 12.9458 18.8069 13.7578 18.8174 14.5497C18.8067 15.4632 18.2294 16.0114 17.0964 15.9911Z" fill="white"/>
<path d="M17.6612 38.4032V37.9741C18.0107 37.9635 18.0929 37.9949 18.0929 37.7857V34.7193L17.6098 34.7088C18.1035 34.3321 18.4015 34.06 19.0391 33.4844V37.8066C19.0287 37.9949 19.183 37.9741 19.5017 37.9741V38.4032H17.6612Z" fill="black"/>
<path d="M28.2115 36.033C28.2144 32.7576 24.8322 32.7564 24.8329 36.032C24.8301 39.3074 28.212 39.309 28.2115 36.0336V36.033Z" fill="white"/>
<path d="M27.2872 36.0331C27.2854 38.9627 25.7465 38.962 25.7465 36.0326C25.7482 33.103 27.2872 33.1032 27.2872 36.0328V36.0331ZM30.1694 35.4941H30.2696C30.6137 35.4941 30.8764 35.4376 31.0388 35.2823C31.2204 35.1456 31.3208 34.9289 31.3208 34.6559C31.3208 34.4014 31.2395 34.2084 31.1202 34.0718C30.996 33.9116 30.8145 33.8551 30.5707 33.8551C30.4321 33.8551 30.2887 33.8738 30.1694 33.9352C30.026 33.9917 29.964 34.0293 29.964 34.0718C29.964 34.0907 30.0069 34.1283 30.1073 34.2273C30.1885 34.3028 30.2267 34.4205 30.2267 34.5194C30.2267 34.6561 30.1885 34.7549 30.1073 34.8303C30.0069 34.9104 29.9067 34.948 29.7633 34.948C29.6201 34.948 29.5006 34.9104 29.4193 34.8114C29.3191 34.7124 29.2759 34.576 29.2759 34.4205C29.2759 34.1661 29.4002 33.9541 29.6629 33.775C29.9258 33.6008 30.2459 33.502 30.6327 33.502C31.0579 33.502 31.4018 33.6197 31.6837 33.8364C31.9657 34.0718 32.1089 34.345 32.1089 34.6748C32.1089 34.9291 32.0276 35.1458 31.846 35.3202C31.6836 35.4756 31.4208 35.6311 31.0768 35.7112C31.4399 35.8102 31.7456 35.9655 31.9463 36.1963C32.1469 36.413 32.2521 36.7051 32.2521 37.0395C32.2521 37.4494 32.1087 37.779 31.803 38.0335C31.502 38.2878 31.1198 38.4055 30.6326 38.4055C30.2265 38.4055 29.9063 38.3067 29.6388 38.1323C29.3569 37.9345 29.2376 37.7037 29.2376 37.407C29.2376 37.2327 29.2757 37.0961 29.3761 36.9784C29.4812 36.8607 29.6197 36.8041 29.7822 36.8041C29.9063 36.8041 30.0258 36.8418 30.1072 36.9218C30.1883 36.9973 30.2265 37.115 30.2265 37.2327C30.2265 37.3693 30.1692 37.5059 30.064 37.6047L29.9063 37.7603C29.9063 37.8214 29.9829 37.878 30.1261 37.9156C30.2695 37.977 30.4318 38.0146 30.6326 38.0146C30.8762 38.0146 31.0959 37.9345 31.2391 37.7603C31.3825 37.5858 31.4588 37.3504 31.4588 37.0585C31.4588 36.6864 31.3586 36.3943 31.158 36.1965C30.9764 36.0033 30.6707 35.9045 30.3074 35.9045C30.2884 35.9045 30.2693 35.9232 30.2261 35.9232H30.1689V35.4941H30.1694Z" fill="black"/>
<path d="M23.0677 36.2444C22.9468 36.381 22.812 36.4752 22.6539 36.5553C22.5145 36.6165 22.3377 36.6543 22.161 36.6543C21.766 36.6543 21.4729 36.4988 21.2172 36.2257C20.98 35.9288 20.8639 35.5615 20.8639 35.0905C20.8639 34.6241 20.98 34.2521 21.2545 33.9599C21.5102 33.6678 21.8635 33.5078 22.2773 33.5078C22.77 33.5078 23.1653 33.7056 23.4581 34.0966C23.737 34.4686 23.8906 34.9915 23.8906 35.6792C23.8906 36.4754 23.7138 37.1396 23.3791 37.6482C23.0443 38.1571 22.5933 38.4114 22.0633 38.4114C21.7658 38.4114 21.51 38.3313 21.2962 38.1571C21.0963 38.0015 20.98 37.8038 20.98 37.573C20.98 37.3941 21.0405 37.2573 21.1195 37.1631C21.2172 37.0643 21.3333 37.0031 21.4728 37.0031C21.6076 37.0031 21.71 37.0454 21.7841 37.1208C21.8865 37.2009 21.9238 37.2997 21.9238 37.4128C21.9238 37.5118 21.8865 37.6106 21.8075 37.686C21.7472 37.7661 21.71 37.8038 21.71 37.8273C21.71 37.8838 21.7471 37.9215 21.8448 37.9828C21.9238 38.0204 22.0213 38.0581 22.1423 38.0581C22.4166 38.0581 22.6352 37.8838 22.8118 37.573C22.9651 37.2386 23.0675 36.81 23.0675 36.2635V36.2444H23.0677Z" fill="white"/>
<path d="M22.3982 33.8987C22.1425 33.8987 21.9659 33.9977 21.8263 34.2144C21.7102 34.4076 21.6497 34.6995 21.6497 35.0907C21.6497 35.4627 21.7102 35.7548 21.845 35.9715C21.9659 36.1647 22.161 36.2635 22.417 36.2635C22.6727 36.2635 22.8494 36.1645 22.9655 35.9904C23.0865 35.816 23.1469 35.5194 23.1469 35.1518C23.1469 34.7422 23.0866 34.4452 22.947 34.2333C22.8305 34.0165 22.6354 33.8987 22.3982 33.8987Z" fill="black"/>
<path d="M23.6152 31.4123C22.7772 31.0603 22.3796 30.9968 21.751 30.7833C19.6131 30.0121 18.4671 28.8665 18.527 26.7139C18.835 24.5275 19.861 23.5467 19.3993 22.1652C19.2411 21.6448 18.8819 21.102 18.3688 20.7125C19.3396 20.005 20.0449 19.4172 20.6393 18.1667C21.9008 19.0503 23.2945 18.4325 24.4618 18.4139C25.6248 18.4325 27.0187 19.054 28.2843 18.1707C28.8787 19.4173 29.5799 20.005 30.5589 20.7125C30.0372 21.1019 29.678 21.6448 29.5284 22.1727C29.0581 23.543 30.0843 24.5275 30.3964 26.7139C30.452 28.8665 29.3062 30.0121 27.181 30.787C26.544 31.0003 26.142 31.0603 25.3084 31.4196C24.8337 31.6294 24.6029 31.9363 24.4618 32.1796C24.325 31.9326 24.0898 31.6294 23.6152 31.4123Z" fill="#CD3529"/>
<path d="M24.3526 30.0805C22.7691 30.0398 20.871 28.9335 20.5361 26.7612C20.3534 25.543 20.7492 24.0408 22.1908 22.8836C21.9878 23.1373 21.7137 23.4012 21.541 23.9495C21.2468 24.8327 21.3178 25.5634 21.602 26.2843C22.2314 27.4617 23.1551 28.1926 24.3833 28.2331C26.2306 28.1216 27.0934 26.7815 27.3066 26.1319C27.4792 25.6245 27.7635 24.8731 27.1644 23.6044C26.9716 23.2084 26.6569 22.8836 26.6569 22.8836C27.5095 23.4724 28.4637 24.7208 28.3319 26.5785C28.2097 28.3344 26.606 30.0093 24.3526 30.0805ZM24.4447 22.6605L24.1611 21.757H23.2366L23.9614 21.1478L23.6778 20.1813L24.4657 20.7381L25.2117 20.2023L24.9385 21.1374L25.674 21.7572H24.7495L24.4447 22.6605Z" fill="white"/>
</svg>
