<svg width="220" height="220" viewBox="0 0 220 220" fill="none" xmlns="http://www.w3.org/2000/svg">
<path d="M202.453 5.05371H18.213C10.9449 5.05371 5.05298 10.9457 5.05298 18.2137V34.7071C5.05298 41.9752 10.9449 47.8671 18.213 47.8671H202.453C209.721 47.8671 215.613 41.9752 215.613 34.7071V18.2137C215.613 10.9457 209.721 5.05371 202.453 5.05371Z" fill="#E7E3E6"/>
<path d="M202.453 60.9692H18.213C10.9449 60.9692 5.05298 66.8612 5.05298 74.1292V90.6227C5.05298 97.8907 10.9449 103.783 18.213 103.783H202.453C209.721 103.783 215.613 97.8907 215.613 90.6227V74.1292C215.613 66.8611 209.721 60.9692 202.453 60.9692Z" fill="#E7E3E6"/>
<path d="M202.453 116.885H18.213C10.9449 116.885 5.05298 122.777 5.05298 130.045V146.538C5.05298 153.806 10.9449 159.698 18.213 159.698H202.453C209.721 159.698 215.613 153.806 215.613 146.538V130.045C215.613 122.777 209.721 116.885 202.453 116.885Z" fill="#E7E3E6"/>
<path d="M202.453 172.8H18.2132C10.9452 172.8 5.05322 178.692 5.05322 185.96V202.454C5.05322 209.722 10.9452 215.614 18.2132 215.614H202.453C209.721 215.614 215.613 209.722 215.613 202.454V185.96C215.613 178.692 209.721 172.8 202.453 172.8Z" fill="#E7E3E6"/>
<path d="M200.071 47.8672H20.5957V60.9693H200.071V47.8672Z" fill="#D2D2D2"/>
<path d="M200.071 103.783H20.5957V116.885H200.071V103.783Z" fill="#D2D2D2"/>
<path d="M200.071 159.698H20.5957V172.8H200.071V159.698Z" fill="#D2D2D2"/>
<path d="M28.724 91.5242C33.7765 91.5242 37.8724 87.4284 37.8724 82.3759C37.8724 77.3234 33.7765 73.2275 28.724 73.2275C23.6715 73.2275 19.5757 77.3234 19.5757 82.3759C19.5757 87.4284 23.6715 91.5242 28.724 91.5242Z" fill="#EC6E62"/>
<path d="M53.0656 91.5242C58.1181 91.5242 62.2139 87.4284 62.2139 82.3759C62.2139 77.3234 58.1181 73.2275 53.0656 73.2275C48.0131 73.2275 43.9172 77.3234 43.9172 82.3759C43.9172 87.4284 48.0131 91.5242 53.0656 91.5242Z" fill="#85BD57"/>
<path d="M77.4074 91.5242C82.4599 91.5242 86.5557 87.4284 86.5557 82.3759C86.5557 77.3234 82.4599 73.2275 77.4074 73.2275C72.3549 73.2275 68.259 77.3234 68.259 82.3759C68.259 87.4284 72.3549 91.5242 77.4074 91.5242Z" fill="#53B1E2"/>
<path d="M28.724 35.6087C33.7765 35.6087 37.8724 31.5129 37.8724 26.4604C37.8724 21.4079 33.7765 17.312 28.724 17.312C23.6715 17.312 19.5757 21.4079 19.5757 26.4604C19.5757 31.5129 23.6715 35.6087 28.724 35.6087Z" fill="#EC6E62"/>
<path d="M53.0656 35.6087C58.1181 35.6087 62.2139 31.5129 62.2139 26.4604C62.2139 21.4079 58.1181 17.312 53.0656 17.312C48.0131 17.312 43.9172 21.4079 43.9172 26.4604C43.9172 31.5129 48.0131 35.6087 53.0656 35.6087Z" fill="#85BD57"/>
<path d="M77.4074 35.6087C82.4599 35.6087 86.5557 31.5129 86.5557 26.4604C86.5557 21.4079 82.4599 17.312 77.4074 17.312C72.3549 17.312 68.259 21.4079 68.259 26.4604C68.259 31.5129 72.3549 35.6087 77.4074 35.6087Z" fill="#53B1E2"/>
<path d="M28.724 147.44C33.7765 147.44 37.8724 143.344 37.8724 138.291C37.8724 133.239 33.7765 129.143 28.724 129.143C23.6715 129.143 19.5757 133.239 19.5757 138.291C19.5757 143.344 23.6715 147.44 28.724 147.44Z" fill="#EC6E62"/>
<path d="M53.0656 147.44C58.1181 147.44 62.2139 143.344 62.2139 138.291C62.2139 133.239 58.1181 129.143 53.0656 129.143C48.0131 129.143 43.9172 133.239 43.9172 138.291C43.9172 143.344 48.0131 147.44 53.0656 147.44Z" fill="#85BD57"/>
<path d="M77.4074 147.44C82.4599 147.44 86.5557 143.344 86.5557 138.291C86.5557 133.239 82.4599 129.143 77.4074 129.143C72.3549 129.143 68.259 133.239 68.259 138.291C68.259 143.344 72.3549 147.44 77.4074 147.44Z" fill="#53B1E2"/>
<path d="M28.724 203.355C33.7765 203.355 37.8724 199.259 37.8724 194.207C37.8724 189.154 33.7765 185.059 28.724 185.059C23.6715 185.059 19.5757 189.154 19.5757 194.207C19.5757 199.259 23.6715 203.355 28.724 203.355Z" fill="#EC6E62"/>
<path d="M53.0656 203.355C58.1181 203.355 62.2139 199.259 62.2139 194.207C62.2139 189.154 58.1181 185.059 53.0656 185.059C48.0131 185.059 43.9172 189.154 43.9172 194.207C43.9172 199.259 48.0131 203.355 53.0656 203.355Z" fill="#85BD57"/>
<path d="M77.4074 203.355C82.4599 203.355 86.5557 199.259 86.5557 194.207C86.5557 189.154 82.4599 185.059 77.4074 185.059C72.3549 185.059 68.259 189.154 68.259 194.207C68.259 199.259 72.3549 203.355 77.4074 203.355Z" fill="#53B1E2"/>
<path d="M145.528 152.876C169.023 152.876 188.07 133.829 188.07 110.334C188.07 86.8382 169.023 67.7915 145.528 67.7915C122.032 67.7915 102.986 86.8382 102.986 110.334C102.986 133.829 122.032 152.876 145.528 152.876Z" fill="#FFC966"/>
<path d="M170.966 105.629C172.698 103.941 171.742 100.998 169.348 100.65L156.216 98.742C155.265 98.6038 154.443 98.0066 154.018 97.145L148.145 85.2459C147.075 83.0763 143.981 83.0763 142.91 85.2459L137.037 97.1448C136.612 98.0065 135.79 98.6038 134.839 98.742L121.708 100.65C119.313 100.998 118.357 103.941 120.09 105.629L129.592 114.892C130.28 115.562 130.594 116.528 130.431 117.475L128.188 130.554C127.779 132.939 130.282 134.757 132.424 133.632L144.169 127.457C145.02 127.01 146.036 127.01 146.886 127.457L158.631 133.631C160.773 134.757 163.276 132.939 162.867 130.554L160.624 117.476C160.461 116.529 160.775 115.562 161.463 114.892L170.966 105.629Z" fill="white"/>
</svg>
