<svg width="220" height="220" viewBox="0 0 220 220" fill="none" xmlns="http://www.w3.org/2000/svg">
<g clip-path="url(#clip0_8_5140)">
<path d="M60.8171 91.207H3.39648V128.127H60.8171V91.207Z" fill="#D2D2D2"/>
<path d="M3.10637 105.446H61.1068C66.7925 105.446 71.4017 100.837 71.4017 95.1509V87.2636C71.4017 81.5779 66.7925 76.9688 61.1068 76.9688H3.10637C-2.57932 76.9688 -7.18848 81.5779 -7.18848 87.2636V95.1509C-7.18848 100.837 -2.57932 105.446 3.10637 105.446Z" fill="#E7E3E6"/>
<path d="M3.10637 142.365H61.1068C66.7925 142.365 71.4017 137.756 71.4017 132.07V124.183C71.4017 118.497 66.7925 113.888 61.1068 113.888H3.10637C-2.57932 113.888 -7.18848 118.497 -7.18848 124.183V132.07C-7.18848 137.756 -2.57932 142.365 3.10637 142.365Z" fill="#E7E3E6"/>
<path d="M56.2342 133.607C59.2608 133.607 61.7144 131.153 61.7144 128.127C61.7144 125.1 59.2608 122.646 56.2342 122.646C53.2075 122.646 50.7539 125.1 50.7539 128.127C50.7539 131.153 53.2075 133.607 56.2342 133.607Z" fill="#EC6E62"/>
<path d="M40.659 133.607C43.6856 133.607 46.1392 131.153 46.1392 128.127C46.1392 125.1 43.6856 122.646 40.659 122.646C37.6323 122.646 35.1787 125.1 35.1787 128.127C35.1787 131.153 37.6323 133.607 40.659 133.607Z" fill="#85BD57"/>
<path d="M56.2342 96.6876C59.2608 96.6876 61.7144 94.234 61.7144 91.2073C61.7144 88.1806 59.2608 85.7271 56.2342 85.7271C53.2075 85.7271 50.7539 88.1806 50.7539 91.2073C50.7539 94.234 53.2075 96.6876 56.2342 96.6876Z" fill="#EC6E62"/>
<path d="M40.659 96.6876C43.6856 96.6876 46.1392 94.234 46.1392 91.2073C46.1392 88.1806 43.6856 85.7271 40.659 85.7271C37.6323 85.7271 35.1787 88.1806 35.1787 91.2073C35.1787 94.234 37.6323 96.6876 40.659 96.6876Z" fill="#85BD57"/>
<path d="M215.677 126.081H136.884V178.229H215.677V126.081Z" fill="#4E4C4D"/>
<path d="M136.55 126.059H216.01C222.552 126.059 227.855 120.756 227.855 114.215V105.14C227.855 98.5985 222.552 93.2954 216.01 93.2954H136.55C130.009 93.2954 124.706 98.5985 124.706 105.14V114.215C124.706 120.756 130.009 126.059 136.55 126.059Z" fill="#656766"/>
<path d="M136.55 168.537H216.01C222.552 168.537 227.855 163.234 227.855 156.692V147.618C227.855 141.076 222.552 135.773 216.01 135.773H136.55C130.009 135.773 124.706 141.076 124.706 147.618V156.692C124.706 163.234 130.009 168.537 136.55 168.537Z" fill="#656766"/>
<path d="M136.55 210.994H216.01C222.552 210.994 227.855 205.691 227.855 199.149V190.074C227.855 183.533 222.552 178.229 216.01 178.229H136.55C130.009 178.229 124.706 183.533 124.706 190.074V199.149C124.706 205.691 130.009 210.994 136.55 210.994Z" fill="#656766"/>
<path d="M210.404 200.917C213.887 200.917 216.71 198.094 216.71 194.611C216.71 191.129 213.887 188.306 210.404 188.306C206.922 188.306 204.099 191.129 204.099 194.611C204.099 198.094 206.922 200.917 210.404 200.917Z" fill="#EC6E62"/>
<path d="M192.484 200.917C195.966 200.917 198.789 198.094 198.789 194.611C198.789 191.129 195.966 188.306 192.484 188.306C189.002 188.306 186.179 191.129 186.179 194.611C186.179 198.094 189.002 200.917 192.484 200.917Z" fill="#85BD57"/>
<path d="M210.404 158.46C213.887 158.46 216.71 155.637 216.71 152.155C216.71 148.673 213.887 145.85 210.404 145.85C206.922 145.85 204.099 148.673 204.099 152.155C204.099 155.637 206.922 158.46 210.404 158.46Z" fill="#EC6E62"/>
<path d="M192.484 158.46C195.966 158.46 198.789 155.637 198.789 152.155C198.789 148.673 195.966 145.85 192.484 145.85C189.002 145.85 186.179 148.673 186.179 152.155C186.179 155.637 189.002 158.46 192.484 158.46Z" fill="#85BD57"/>
<path d="M210.404 115.983C213.887 115.983 216.71 113.16 216.71 109.677C216.71 106.195 213.887 103.372 210.404 103.372C206.922 103.372 204.099 106.195 204.099 109.677C204.099 113.16 206.922 115.983 210.404 115.983Z" fill="#EC6E62"/>
<path d="M192.484 115.983C195.966 115.983 198.789 113.16 198.789 109.677C198.789 106.195 195.966 103.372 192.484 103.372C189.002 103.372 186.179 106.195 186.179 109.677C186.179 113.16 189.002 115.983 192.484 115.983Z" fill="#85BD57"/>
<path d="M215.677 41.1255H136.884V93.274H215.677V41.1255Z" fill="#4E4C4D"/>
<path d="M136.55 41.1044H216.01C222.552 41.1044 227.855 35.8013 227.855 29.2597V20.185C227.855 13.6434 222.552 8.34033 216.01 8.34033H136.55C130.009 8.34033 124.706 13.6434 124.706 20.185V29.2597C124.706 35.8013 130.009 41.1044 136.55 41.1044Z" fill="#656766"/>
<path d="M136.55 83.5819H216.01C222.552 83.5819 227.855 78.2789 227.855 71.7372V62.6626C227.855 56.1209 222.552 50.8179 216.01 50.8179H136.55C130.009 50.8179 124.706 56.1209 124.706 62.6626V71.7372C124.706 78.2789 130.009 83.5819 136.55 83.5819Z" fill="#656766"/>
<path d="M210.404 73.5051C213.887 73.5051 216.71 70.6821 216.71 67.1998C216.71 63.7175 213.887 60.8945 210.404 60.8945C206.922 60.8945 204.099 63.7175 204.099 67.1998C204.099 70.6821 206.922 73.5051 210.404 73.5051Z" fill="#EC6E62"/>
<path d="M192.484 73.5051C195.966 73.5051 198.789 70.6821 198.789 67.1998C198.789 63.7175 195.966 60.8945 192.484 60.8945C189.002 60.8945 186.179 63.7175 186.179 67.1998C186.179 70.6821 189.002 73.5051 192.484 73.5051Z" fill="#85BD57"/>
<path d="M210.404 31.0275C213.887 31.0275 216.71 28.2046 216.71 24.7223C216.71 21.24 213.887 18.417 210.404 18.417C206.922 18.417 204.099 21.24 204.099 24.7223C204.099 28.2046 206.922 31.0275 210.404 31.0275Z" fill="#EC6E62"/>
<path d="M192.484 31.0275C195.966 31.0275 198.789 28.2046 198.789 24.7223C198.789 21.24 195.966 18.417 192.484 18.417C189.002 18.417 186.179 21.24 186.179 24.7223C186.179 28.2046 189.002 31.0275 192.484 31.0275Z" fill="#85BD57"/>
<path d="M107.46 110.937L91.9501 126.447C90.3849 128.012 87.8473 128.012 86.2822 126.447C84.7179 124.883 84.717 122.347 86.28 120.781L98.9383 108.103L86.2784 95.4431C84.7156 93.8804 84.7129 91.3476 86.2722 89.7814L86.2822 89.7714C87.8464 88.2004 90.3887 88.1976 91.9563 89.7652L107.46 105.269C109.025 106.834 109.025 109.372 107.46 110.937Z" fill="#53B1E2"/>
</g>
<defs>
<clipPath id="clip0_8_5140">
<rect width="219.333" height="219.333" fill="white" transform="translate(0.666504)"/>
</clipPath>
</defs>
</svg>
