<svg width="32" height="32" viewBox="0 0 32 32" fill="none" xmlns="http://www.w3.org/2000/svg">
<g clip-path="url(#clip0_901_2863)">
<path d="M21 1C22.1 1 23 1.9 23 3C23 4.1 22.1 5 21 5C19.9 5 19 4.1 19 3C19 1.9 19.9 1 21 1Z" fill="#FFE6EA"/>
<path d="M19.7498 9.95018L19.6898 10.0002C14.6898 13.0002 12.9998 17.1602 12.9998 17.1602C11.6698 16.1702 10.5198 14.9702 10.9998 14.0002C12.9998 10.0002 15.9998 8.00018 17.9998 7.00018C18.4498 8.13018 19.0598 9.11018 19.7498 9.95018Z" fill="#668077"/>
<path d="M25.0001 19C28.3101 19 31.0001 21.69 31.0001 25C31.0001 28.31 28.3101 31 25.0001 31C21.6901 31 19.0001 28.31 19.0001 25C19.0001 21.69 21.6901 19 25.0001 19ZM10.36 20C11.95 21.08 13 22.93 13 25C13 28.31 10.31 31 7 31C3.69 31 1 28.31 1 25C1 24.29 1 22 3 20H10.36Z" fill="#FFC44D"/>
<path d="M16.0003 25V19C16.0003 19 10.0003 16 11.0003 14C13.0003 10 16.0003 8 18.0003 7C20.0003 12 25.0003 14 25.0003 14M8.0003 16H2.0003M7.0003 12H1.0003M1.346 22.9893C1.122 23.6183 1 24.2953 1 25.0003C1 28.3133 3.687 31.0003 7 31.0003C10.314 31.0003 13 28.3133 13 25.0003C13 22.9283 11.951 21.0783 10.356 20.0003H3M13.0003 17.1582C13.0003 17.1582 14.6873 13.0002 19.6873 10.0002M31.0003 25C31.0003 21.687 28.3133 19 25.0003 19C21.6873 19 19.0003 21.687 19.0003 25C19.0003 28.313 21.6873 31 25.0003 31C28.3133 31 31.0003 28.313 31.0003 25ZM23.0003 3C23.0003 1.896 22.1043 1 21.0003 1C19.8963 1 19.0003 1.896 19.0003 3C19.0003 4.104 19.8963 5 21.0003 5C22.1043 5 23.0003 4.104 23.0003 3Z" stroke="black" stroke-width="2" stroke-linecap="round" stroke-linejoin="round"/>
</g>
<defs>
<clipPath id="clip0_901_2863">
<rect width="32" height="32" fill="white"/>
</clipPath>
</defs>
</svg>
