<svg width="32" height="32" viewBox="0 0 32 32" fill="none" xmlns="http://www.w3.org/2000/svg">
<g clip-path="url(#clip0_901_896)">
<path d="M16.0003 25V19C16.0003 19 10.0003 16 11.0003 14C13.0003 10 16.0003 8 18.0003 7C20.0003 12 25.0003 14 25.0003 14M8.0003 16H2.0003M7.0003 12H1.0003M1.346 22.9893C1.122 23.6183 1 24.2953 1 25.0003C1 28.3133 3.687 31.0003 7 31.0003C10.314 31.0003 13 28.3133 13 25.0003C13 22.9283 11.951 21.0783 10.356 20.0003H3M13.0003 17.1582C13.0003 17.1582 14.6873 13.0002 19.6873 10.0002M31.0003 25C31.0003 21.687 28.3133 19 25.0003 19C21.6873 19 19.0003 21.687 19.0003 25C19.0003 28.313 21.6873 31 25.0003 31C28.3133 31 31.0003 28.313 31.0003 25ZM23.0003 3C23.0003 1.896 22.1043 1 21.0003 1C19.8963 1 19.0003 1.896 19.0003 3C19.0003 4.104 19.8963 5 21.0003 5C22.1043 5 23.0003 4.104 23.0003 3Z" stroke="black" stroke-width="2" stroke-linecap="round" stroke-linejoin="round"/>
</g>
<defs>
<clipPath id="clip0_901_896">
<rect width="32" height="32" fill="white"/>
</clipPath>
</defs>
</svg>
