<svg width="263" height="206" viewBox="0 0 263 206" fill="none" xmlns="http://www.w3.org/2000/svg">
<path d="M228.3 39.4999L262.3 32.3999L238.2 60.2999L228.3 39.4999Z" fill="#4B369D"/>
<path d="M99.3 132C89.8 143.4 80.1 157.1 68.4 167.3C56.7 177.4 34.8 179.4 26 190.3C53.3 220.1 120.7 199 150.2 183.5C189.5 162.9 221.5 127.5 235.4 85.1001C242.8 62.5001 244 34.1001 226.1 18.4001C217.4 10.8001 205.8 7.60011 194.5 5.10011C176.8 1.10011 155.1 -3.09989 137.6 4.00011C111 14.8001 140 13.2001 146 25.4001C153 39.8001 138.4 67.3001 132.1 79.7001C122.5 97.9001 112.4 116.1 99.3 132Z" fill="#A7ADFF"/>
<path d="M203.5 39.5C207.421 39.5 210.6 36.3213 210.6 32.4C210.6 28.4788 207.421 25.3 203.5 25.3C199.579 25.3 196.4 28.4788 196.4 32.4C196.4 36.3213 199.579 39.5 203.5 39.5Z" fill="#4B369D"/>
<path d="M84.3001 44.0001C66.0001 37.4001 45.4001 33.7001 31.6001 20.0001C24.0001 12.4001 17.6001 1.50011 6.90011 0.600115C5.30011 0.500115 3.50011 0.600115 2.30011 1.80011C0.800113 3.20011 0.800113 5.50011 0.900113 7.60011C1.50011 19.8001 2.20011 32.3001 7.00011 43.5001C11.8001 54.7001 21.8001 64.5001 34.0001 65.6001C35.5001 65.7001 37.1001 65.8001 38.4001 66.5001C42.1001 68.7001 40.0001 74.6001 36.8001 77.4001C33.5001 80.2001 29.0001 82.4001 28.1001 86.6001C27.1001 91.0001 31.0001 95.4001 35.4001 96.6001C39.8001 97.8001 44.4001 96.8001 48.9001 95.7001C47.3001 103.5 46.9001 113.8 54.2001 116.9C60.6001 119.5 69.3001 114.4 74.2001 119.2C76.0001 121 76.7001 123.7 77.7001 126C81.0001 133.6 89.3001 138.3 97.6001 139.1C105.9 139.9 114.2 137.5 121.8 134.1C141.4 125.4 163 106 147.3 85.9001C132.4 66.9001 106.5 52.1001 84.3001 44.0001Z" fill="#978CFF"/>
</svg>
