<svg width="400" height="400" viewBox="0 0 400 400" fill="none" xmlns="http://www.w3.org/2000/svg">
<path d="M199.092 134.496C185.502 163.995 172.988 196.922 169.51 229.383" stroke="black" stroke-opacity="0.9" stroke-width="16" stroke-linecap="round" stroke-linejoin="round"/>
<path d="M200.643 135.265C200.713 158.637 201.573 181.999 202.039 205.363C202.226 214.737 202.329 224.114 202.474 233.49" stroke="black" stroke-opacity="0.9" stroke-width="16" stroke-linecap="round" stroke-linejoin="round"/>
<path d="M199.581 313.344C198.03 329.789 195.269 346.077 191.844 362.227" stroke="black" stroke-opacity="0.9" stroke-width="16" stroke-linecap="round" stroke-linejoin="round"/>
<path d="M262.789 135.265C251.093 210.555 263.238 290.409 260.634 365.725" stroke="black" stroke-opacity="0.9" stroke-width="16" stroke-linecap="round" stroke-linejoin="round"/>
<path d="M262.789 135.265C276.477 161.035 281.563 212.13 284 225.129" stroke="black" stroke-opacity="0.9" stroke-width="16" stroke-linecap="round" stroke-linejoin="round"/>
<path d="M115.373 298.036C109.531 227.844 247.462 233.556 222.539 304.175" stroke="black" stroke-opacity="0.9" stroke-width="16" stroke-linecap="round" stroke-linejoin="round"/>
<path d="M122.071 301.944C155.05 301.038 189.098 304.176 222.538 304.176" stroke="black" stroke-opacity="0.9" stroke-width="16" stroke-linecap="round" stroke-linejoin="round"/>
<path d="M180.678 234.963C170.906 231.63 167.006 231.26 161.7 240.546" stroke="black" stroke-opacity="0.9" stroke-width="16" stroke-linecap="round" stroke-linejoin="round"/>
<path d="M217.013 43.5591C234.614 26.7953 249.476 35.1533 263.899 49.5424C319.273 104.79 159.542 145.787 211.016 46.2795" stroke="black" stroke-opacity="0.9" stroke-width="16" stroke-linecap="round" stroke-linejoin="round"/>
</svg>
