<svg width="400" height="400" viewBox="0 0 400 400" fill="none" xmlns="http://www.w3.org/2000/svg">
<g clip-path="url(#clip0_1782_72031)">
<path d="M113.613 58.8847C150.302 12.9562 202.538 80.0144 146.48 101.376C125.061 109.535 104.581 86.2219 116.905 74.4145" stroke="black" stroke-opacity="0.9" stroke-width="16" stroke-linecap="round" stroke-linejoin="round"/>
<path d="M180.196 110.471C169.027 119.42 155.435 123.39 142.637 128.596" stroke="black" stroke-opacity="0.9" stroke-width="16" stroke-linecap="round" stroke-linejoin="round"/>
<path d="M189.933 117.442C196.683 130.646 218.845 164.368 219.145 164.846" stroke="black" stroke-opacity="0.9" stroke-width="16" stroke-linecap="round" stroke-linejoin="round"/>
<path d="M145.419 132.779C161.963 151.213 181.324 166.77 199.67 182.971" stroke="black" stroke-opacity="0.9" stroke-width="16" stroke-linecap="round" stroke-linejoin="round"/>
<path d="M196.186 183.293C152.599 189.378 147.247 179.811 163.213 215.283C170.778 232.098 176.3 251.891 186.722 266.625" stroke="black" stroke-opacity="0.9" stroke-width="16" stroke-linecap="round" stroke-linejoin="round"/>
<path d="M219.288 164.846C167.712 138.632 230.857 202.652 241.402 217.827" stroke="black" stroke-opacity="0.9" stroke-width="16" stroke-linecap="round" stroke-linejoin="round"/>
<path d="M140.567 129.24C113.186 137.82 86.7951 126.858 61.8454 119.373" stroke="black" stroke-opacity="0.9" stroke-width="16" stroke-linecap="round" stroke-linejoin="round"/>
<path d="M182.978 111.865C206.28 125.715 240.508 135.977 269.223 133.907" stroke="black" stroke-opacity="0.9" stroke-width="16" stroke-linecap="round" stroke-linejoin="round"/>
<path d="M162.013 300.513C170.943 287.538 178.675 276.821 191.479 263.515C206.972 247.414 221.976 237.247 235.546 227.05C249.117 216.853 283.036 186.725 295.654 206.745C299.721 220.186 289.175 230.751 283.036 237.775C271.108 251.427 177.304 331.067 160.721 308.918" stroke="black" stroke-opacity="0.9" stroke-width="16" stroke-linecap="round" stroke-linejoin="round"/>
</g>
<defs>
<clipPath id="clip0_1782_72031">
<rect width="249" height="290" fill="white" transform="translate(55 31)"/>
</clipPath>
</defs>
</svg>
