<svg width="217" height="217" viewBox="0 0 217 217" fill="none" xmlns="http://www.w3.org/2000/svg">
<path d="M72.1422 101.698C71.9305 101.698 71.7188 101.698 71.5494 101.698C65.4096 102.037 60.4977 107.118 60.4977 113.343C60.4977 119.779 65.706 124.987 72.1422 124.987C78.3667 124.987 83.4903 120.075 83.7867 113.936C83.7867 113.724 83.7867 113.512 83.7867 113.343C83.7867 106.949 78.5785 101.698 72.1422 101.698Z" fill="#F46262"/>
<path d="M105.848 101.74C105.636 101.74 105.425 101.74 105.255 101.74C98.8189 101.74 93.6106 106.949 93.6106 113.385C93.6106 113.597 93.6106 113.808 93.6106 113.978C93.907 120.118 99.0306 125.03 105.255 125.03C111.691 125.03 116.9 119.821 116.9 113.385C116.9 107.16 111.988 102.037 105.848 101.74Z" fill="#F46262"/>
<path d="M117.069 47.2017C108.261 43.7296 98.6918 41.7817 88.6563 41.7817C46.1009 41.7817 11.5907 76.2919 11.5907 118.847C11.5907 161.445 46.1009 195.955 88.6563 195.955C131.254 195.955 165.764 161.445 165.764 118.847C165.764 98.7341 158.058 80.4416 145.439 66.7222C137.648 58.2535 127.994 51.5208 117.069 47.2017ZM128.883 115.714C128.883 126.427 124.691 136.124 117.874 143.322L132.863 158.312C134.176 159.624 134.176 161.784 132.863 163.097C132.186 163.774 131.339 164.07 130.45 164.07C129.56 164.07 128.714 163.732 128.036 163.097L112.835 147.853C112.581 148.065 112.284 148.234 112.03 148.446V155.094C112.03 159.074 108.812 162.292 104.832 162.292H102.884V153.95C102.884 152.087 101.359 150.563 99.4963 150.563C97.6332 150.563 96.1088 152.087 96.1088 153.95V162.292H92.0862V153.95C92.0862 152.087 90.5618 150.563 88.6987 150.563C86.8355 150.563 85.3112 152.087 85.3112 153.95V162.292H81.2885V153.95C81.2885 152.087 79.7641 150.563 77.901 150.563C76.0379 150.563 74.5135 152.087 74.5135 153.95V162.292H72.5657C68.5854 162.292 65.3673 159.074 65.3673 155.094V148.446C65.1132 148.234 64.8168 148.065 64.5627 147.853L49.2766 163.139C48.5991 163.816 47.7523 164.113 46.863 164.113C46.0162 164.113 45.1269 163.774 44.4494 163.139C43.1368 161.826 43.1368 159.667 44.4494 158.354L59.4815 143.322C52.6641 136.124 48.4721 126.427 48.4721 115.714C48.4721 106.652 51.4785 98.2683 56.5174 91.578L44.4494 79.51C43.1368 78.1974 43.1368 76.0378 44.4494 74.7252C45.7621 73.4125 47.9216 73.4125 49.2343 74.7252L61.0482 86.5391C68.2466 79.7217 77.9857 75.5297 88.6563 75.5297C99.3693 75.5297 109.066 79.7217 116.264 86.5391L128.078 74.7252C129.391 73.4125 131.551 73.4125 132.863 74.7252C134.176 76.0378 134.176 78.1974 132.863 79.51L120.795 91.578C125.876 98.2683 128.883 106.652 128.883 115.714Z" fill="#3B4652"/>
<path d="M195.362 23.9974C193.542 23.9974 191.806 24.4632 190.324 25.3101C182.236 19.8477 173.937 17.8999 165.722 19.5937C152.934 22.2613 144.127 32.8896 140.866 37.4627L132.313 31.5346C130.661 30.3913 128.375 30.8148 127.231 32.4662L121.007 41.4854C131.635 45.9315 141.374 52.6641 149.377 61.0059L155.559 52.029C156.703 50.3776 156.279 48.091 154.628 46.9477L146.413 41.2737C149.165 37.4627 156.745 28.3165 167.077 26.1993C173.217 24.929 179.484 26.3687 185.793 30.4337C185.327 31.6193 185.073 32.8896 185.073 34.2023C185.073 39.8763 189.646 44.4495 195.32 44.4495C200.994 44.4495 205.567 39.8763 205.567 34.2023C205.61 28.5705 201.037 23.9974 195.362 23.9974Z" fill="#F46262"/>
</svg>
