<svg width="24" height="24" viewBox="0 0 24 24" fill="none" xmlns="http://www.w3.org/2000/svg">
<g clip-path="url(#clip0_1_1090)">
<path fill-rule="evenodd" clip-rule="evenodd" d="M20.999 2.57721C20.999 2.15876 20.8364 1.75908 20.545 1.46133C20.2502 1.16627 19.8572 0.999969 19.4438 0.999969H4.55599C3.69877 0.999969 3.00079 1.70543 3.00079 2.57721V21.9307C3.00079 22.3358 3.22442 22.706 3.58357 22.8884C3.93933 23.0681 4.36625 23.0278 4.68813 22.7864L11.9999 17.2285L19.3117 22.7864C19.6336 23.0278 20.0605 23.0681 20.4163 22.8884C20.7754 22.706 20.999 22.3358 20.999 21.9307V2.57721ZM19.9419 21.9227L12.3184 16.1287C12.1287 15.9865 11.8712 15.9865 11.6814 16.1287L4.05792 21.9227V2.57721C4.05792 2.29824 4.28154 2.07291 4.55599 2.07291H19.4438C19.576 2.07291 19.7013 2.12658 19.7962 2.22047C19.8877 2.31435 19.9419 2.44309 19.9419 2.57721V21.9227Z" fill="black"/>
<path fill-rule="evenodd" clip-rule="evenodd" d="M8.82343 6.49998H15.1764C15.4516 6.49998 15.6761 6.2768 15.6761 5.99997C15.6761 5.72315 15.4516 5.49997 15.1764 5.49997H8.82343C8.54814 5.49997 8.32367 5.72315 8.32367 5.99997C8.32367 6.2768 8.54814 6.49998 8.82343 6.49998Z" fill="#FF7949"/>
</g>
<defs>
<clipPath id="clip0_1_1090">
<rect width="24" height="24" fill="white"/>
</clipPath>
</defs>
</svg>
