<svg width="48" height="48" viewBox="0 0 48 48" fill="none" xmlns="http://www.w3.org/2000/svg">
<rect width="48" height="48" rx="4" fill="#5876A3"/>
<mask id="mask0_0_556" style="mask-type:luminance" maskUnits="userSpaceOnUse" x="0" y="0" width="48" height="48">
<rect width="48" height="48" rx="4" fill="white"/>
</mask>
<g mask="url(#mask0_0_556)">
<path d="M26.5226 30.0322C25.9742 30.2515 25.4258 30.416 24.7677 30.4709C20.7645 30.9096 17.4193 27.7838 17.4193 23.8902C17.4193 23.2322 17.529 22.5741 17.6935 21.916C17.8032 21.6418 18.1322 21.587 18.2968 21.7515L22.0258 25.4805C22.3 25.7547 22.7387 25.7547 23.0677 25.4805L25.7 22.8483C25.9742 22.5741 25.9742 22.1354 25.7 21.8063L21.9709 18.0773C21.8064 17.858 21.8613 17.5289 22.1355 17.4741C22.7387 17.3096 23.3968 17.1999 24.0548 17.1999C27.9484 17.1999 31.0742 20.5451 30.6355 24.5483C30.5806 25.1515 30.4161 25.6999 30.1968 26.3031L37.1064 33.2128C39.2451 30.6902 40.5064 27.4547 40.5064 23.9999C40.4516 15.4999 33.1032 8.80957 24 8.80957C14.8419 8.80957 7.54836 15.5547 7.54836 23.8354C7.54836 26.4676 8.31611 28.9354 9.52256 31.1289C9.74191 31.458 9.79675 31.8967 9.68707 32.2805L7.54836 38.1483C7.32901 38.6967 7.8774 39.1902 8.42578 39.0257L14.4032 36.7773C14.7322 36.6128 15.1709 36.7225 15.5548 36.9418C18.0226 38.3128 20.9838 39.1354 24.1645 39.1354C27.4548 39.0805 30.5258 38.1483 33.1032 36.6128L26.5226 30.0322Z" fill="white"/>
</g>
</svg>
