<svg width="24" height="24" viewBox="0 0 24 24" fill="none" xmlns="http://www.w3.org/2000/svg">
<path d="M12.9162 8.48581L17.4944 3.90753C18.135 3.26696 19.1736 3.26696 19.8141 3.90753V3.90753C20.4547 4.5481 20.4547 5.58667 19.8141 6.22724L18.4075 7.63391L17.7658 8.27555" stroke="#DF1463" stroke-width="1.7" stroke-linecap="round"/>
<path d="M2.92578 19.3746H21.0739" stroke="black" stroke-width="1.7" stroke-linecap="round"/>
<path d="M20.3148 8.48584H3.68486C3.26563 8.48584 2.92578 8.82569 2.92578 9.24492V10.3006C2.92578 15.3121 6.98837 19.3747 11.9998 19.3747C17.0113 19.3747 21.0739 15.3121 21.0739 10.3006V9.24492C21.0739 8.82569 20.734 8.48584 20.3148 8.48584Z" stroke="black" stroke-width="1.7" stroke-linecap="round"/>
<path d="M12.9162 8.48581L17.4944 3.90753C18.135 3.26696 19.1736 3.26696 19.8141 3.90753V3.90753C20.4547 4.5481 20.4547 5.58667 19.8141 6.22724L18.4075 7.63391L17.7658 8.27555" stroke="#DF1463" stroke-width="1.7" stroke-linecap="round"/>
<path d="M2.92578 19.3746H21.0739" stroke="black" stroke-width="1.7" stroke-linecap="round"/>
<path d="M20.3148 8.48584H3.68486C3.26563 8.48584 2.92578 8.82569 2.92578 9.24492V10.3006C2.92578 15.3121 6.98837 19.3747 11.9998 19.3747C17.0113 19.3747 21.0739 15.3121 21.0739 10.3006V9.24492C21.0739 8.82569 20.734 8.48584 20.3148 8.48584Z" stroke="black" stroke-width="1.7" stroke-linecap="round"/>
</svg>
