<svg width="48" height="48" viewBox="0 0 48 48" fill="none" xmlns="http://www.w3.org/2000/svg">
<rect width="48" height="48" rx="4" fill="#E9696E"/>
<mask id="mask0_0_18" style="mask-type:luminance" maskUnits="userSpaceOnUse" x="0" y="0" width="48" height="48">
<rect width="48" height="48" rx="4" fill="white"/>
</mask>
<g mask="url(#mask0_0_18)">
<path d="M11.6613 35.2423C13.5258 31.4036 16.8162 28.6616 20.6 27.2907C22.0258 26.7423 23.5065 26.4133 24.9323 26.2487H27.3452V33.7068C27.3452 34.31 28.0033 34.6391 28.5516 34.2552L40.1774 24.5487C40.6162 24.2197 40.6162 23.452 40.1774 23.1778L28.5516 13.6907C28.1129 13.3616 27.3452 13.6907 27.3452 14.2391V21.752H24.9323C23.4516 21.5875 21.9162 21.2036 20.6 20.71C16.871 19.2842 13.5258 16.5971 11.6613 12.7584C11.442 12.21 10.7839 11.9907 10.2355 12.21L8.15164 13.0875C7.54842 13.3616 7.3839 13.9649 7.71293 14.5681C9.68712 18.7358 12.8678 21.9713 16.5968 24.0004C12.8129 26.0294 9.68712 29.2649 7.71293 33.4875C7.43874 34.0907 7.49358 34.6939 8.15164 34.9681L10.2355 35.8455C10.7839 36.0649 11.442 35.7907 11.6613 35.2423Z" fill="white"/>
</g>
</svg>
